<?xml version="1.0" encoding="UTF-8" standalone="no"?>
<!DOCTYPE svg PUBLIC "-//W3C//DTD SVG 1.1//EN"
 "http://www.w3.org/Graphics/SVG/1.1/DTD/svg11.dtd">
<!-- Generated by graphviz version 2.40.1 (20161225.0304)
 -->
<!-- Title: /home/oleg/Dev/riversim/source/river/border.cpp Pages: 1 -->
<svg width="450pt" height="207pt"
 viewBox="0.00 0.00 450.00 207.00" xmlns="http://www.w3.org/2000/svg" xmlns:xlink="http://www.w3.org/1999/xlink">
<g id="graph0" class="graph" transform="scale(1 1) rotate(0) translate(4 203)">
<title>/home/oleg/Dev/riversim/source/river/border.cpp</title>
<polygon fill="#ffffff" stroke="transparent" points="-4,4 -4,-203 446,-203 446,4 -4,4"/>
<!-- Node0 -->
<g id="node1" class="node">
<title>Node0</title>
<polygon fill="#bfbfbf" stroke="#000000" points="129,-168.5 129,-198.5 252,-198.5 252,-168.5 129,-168.5"/>
<text text-anchor="start" x="137" y="-186.5" font-family="Helvetica,sans-Serif" font-size="10.00" fill="#000000">/home/oleg/Dev/riversim</text>
<text text-anchor="middle" x="190.5" y="-175.5" font-family="Helvetica,sans-Serif" font-size="10.00" fill="#000000">/source/river/border.cpp</text>
</g>
<!-- Node1 -->
<g id="node2" class="node">
<title>Node1</title>
<g id="a_node2"><a xlink:href="border_8hpp.html" target="_top" xlink:title="Generate some initial predefinide border geometry and its source positions. ">
<polygon fill="#ffffff" stroke="#000000" points="159.5,-112.5 159.5,-131.5 221.5,-131.5 221.5,-112.5 159.5,-112.5"/>
<text text-anchor="middle" x="190.5" y="-119.5" font-family="Helvetica,sans-Serif" font-size="10.00" fill="#000000">border.hpp</text>
</a>
</g>
</g>
<!-- Node0&#45;&gt;Node1 -->
<g id="edge1" class="edge">
<title>Node0&#45;&gt;Node1</title>
<path fill="none" stroke="#191970" d="M190.5,-168.2977C190.5,-160.3834 190.5,-150.6043 190.5,-142.0759"/>
<polygon fill="#191970" stroke="#191970" points="194.0001,-141.8469 190.5,-131.8469 187.0001,-141.847 194.0001,-141.8469"/>
</g>
<!-- Node2 -->
<g id="node3" class="node">
<title>Node2</title>
<polygon fill="#ffffff" stroke="#bfbfbf" points="65.5,-.5 65.5,-19.5 109.5,-19.5 109.5,-.5 65.5,-.5"/>
<text text-anchor="middle" x="87.5" y="-7.5" font-family="Helvetica,sans-Serif" font-size="10.00" fill="#000000">vector</text>
</g>
<!-- Node1&#45;&gt;Node2 -->
<g id="edge2" class="edge">
<title>Node1&#45;&gt;Node2</title>
<path fill="none" stroke="#191970" d="M182.5946,-112.4103C171.7798,-99.3936 151.6414,-75.5173 133.5,-56 124.3162,-46.1197 113.689,-35.4459 104.9642,-26.8696"/>
<polygon fill="#191970" stroke="#191970" points="107.184,-24.1454 97.5826,-19.6661 102.295,-29.1552 107.184,-24.1454"/>
</g>
<!-- Node3 -->
<g id="node4" class="node">
<title>Node3</title>
<polygon fill="#ffffff" stroke="#bfbfbf" points="298.5,-56.5 298.5,-75.5 354.5,-75.5 354.5,-56.5 298.5,-56.5"/>
<text text-anchor="middle" x="326.5" y="-63.5" font-family="Helvetica,sans-Serif" font-size="10.00" fill="#000000">algorithm</text>
</g>
<!-- Node1&#45;&gt;Node3 -->
<g id="edge3" class="edge">
<title>Node1&#45;&gt;Node3</title>
<path fill="none" stroke="#191970" d="M213.8792,-112.3733C236.0045,-103.2629 269.4134,-89.5062 294.1019,-79.3404"/>
<polygon fill="#191970" stroke="#191970" points="295.5117,-82.5451 303.4258,-75.5011 292.8464,-76.0723 295.5117,-82.5451"/>
</g>
<!-- Node4 -->
<g id="node5" class="node">
<title>Node4</title>
<polygon fill="#ffffff" stroke="#bfbfbf" points="200,-.5 200,-19.5 241,-19.5 241,-.5 200,-.5"/>
<text text-anchor="middle" x="220.5" y="-7.5" font-family="Helvetica,sans-Serif" font-size="10.00" fill="#000000">string</text>
</g>
<!-- Node1&#45;&gt;Node4 -->
<g id="edge4" class="edge">
<title>Node1&#45;&gt;Node4</title>
<path fill="none" stroke="#191970" d="M193.0578,-112.4509C197.9729,-94.1013 208.8239,-53.5908 215.3118,-29.3693"/>
<polygon fill="#191970" stroke="#191970" points="218.7421,-30.09 217.9487,-19.5249 211.9804,-28.2788 218.7421,-30.09"/>
</g>
<!-- Node5 -->
<g id="node6" class="node">
<title>Node5</title>
<g id="a_node6"><a xlink:href="tethex_8hpp.html" target="_top" xlink:title="tethex.hpp">
<polygon fill="#ffffff" stroke="#000000" points="218.5,-56.5 218.5,-75.5 280.5,-75.5 280.5,-56.5 218.5,-56.5"/>
<text text-anchor="middle" x="249.5" y="-63.5" font-family="Helvetica,sans-Serif" font-size="10.00" fill="#000000">tethex.hpp</text>
</a>
</g>
</g>
<!-- Node1&#45;&gt;Node5 -->
<g id="edge5" class="edge">
<title>Node1&#45;&gt;Node5</title>
<path fill="none" stroke="#191970" d="M200.777,-112.2455C209.3218,-104.1352 221.6778,-92.4075 231.8085,-82.7919"/>
<polygon fill="#191970" stroke="#191970" points="234.4972,-85.0655 239.3408,-75.6427 229.6782,-79.9884 234.4972,-85.0655"/>
</g>
<!-- Node10 -->
<g id="node11" class="node">
<title>Node10</title>
<g id="a_node11"><a xlink:href="common_8hpp.html" target="_top" xlink:title="common.hpp">
<polygon fill="#ffffff" stroke="#000000" points="51,-56.5 51,-75.5 124,-75.5 124,-56.5 51,-56.5"/>
<text text-anchor="middle" x="87.5" y="-63.5" font-family="Helvetica,sans-Serif" font-size="10.00" fill="#000000">common.hpp</text>
</a>
</g>
</g>
<!-- Node1&#45;&gt;Node10 -->
<g id="edge12" class="edge">
<title>Node1&#45;&gt;Node10</title>
<path fill="none" stroke="#191970" d="M172.5588,-112.2455C156.46,-103.4928 132.6121,-90.527 114.2609,-80.5496"/>
<polygon fill="#191970" stroke="#191970" points="115.6929,-77.3444 105.2356,-75.6427 112.3493,-83.4942 115.6929,-77.3444"/>
</g>
<!-- Node5&#45;&gt;Node2 -->
<g id="edge11" class="edge">
<title>Node5&#45;&gt;Node2</title>
<path fill="none" stroke="#191970" d="M221.6512,-56.3733C193.1229,-46.5116 148.8455,-31.2059 119.0419,-20.9034"/>
<polygon fill="#191970" stroke="#191970" points="120.1279,-17.5756 109.5331,-17.6164 117.8409,-24.1915 120.1279,-17.5756"/>
</g>
<!-- Node5&#45;&gt;Node4 -->
<g id="edge10" class="edge">
<title>Node5&#45;&gt;Node4</title>
<path fill="none" stroke="#191970" d="M244.4486,-56.2455C240.4981,-48.617 234.8903,-37.7881 230.0942,-28.5267"/>
<polygon fill="#191970" stroke="#191970" points="233.2001,-26.9131 225.4935,-19.6427 226.9841,-30.1321 233.2001,-26.9131"/>
</g>
<!-- Node6 -->
<g id="node7" class="node">
<title>Node6</title>
<polygon fill="#ffffff" stroke="#bfbfbf" points="127.5,-.5 127.5,-19.5 181.5,-19.5 181.5,-.5 127.5,-.5"/>
<text text-anchor="middle" x="154.5" y="-7.5" font-family="Helvetica,sans-Serif" font-size="10.00" fill="#000000">iostream</text>
</g>
<!-- Node5&#45;&gt;Node6 -->
<g id="edge6" class="edge">
<title>Node5&#45;&gt;Node6</title>
<path fill="none" stroke="#191970" d="M232.9523,-56.2455C218.2401,-47.5731 196.5112,-34.7645 179.6495,-24.825"/>
<polygon fill="#191970" stroke="#191970" points="181.2502,-21.7057 170.8581,-19.6427 177.6954,-27.736 181.2502,-21.7057"/>
</g>
<!-- Node7 -->
<g id="node8" class="node">
<title>Node7</title>
<polygon fill="#ffffff" stroke="#bfbfbf" points="259,-.5 259,-19.5 294,-19.5 294,-.5 259,-.5"/>
<text text-anchor="middle" x="276.5" y="-7.5" font-family="Helvetica,sans-Serif" font-size="10.00" fill="#000000">map</text>
</g>
<!-- Node5&#45;&gt;Node7 -->
<g id="edge7" class="edge">
<title>Node5&#45;&gt;Node7</title>
<path fill="none" stroke="#191970" d="M254.203,-56.2455C257.8424,-48.6973 262.9924,-38.0158 267.4262,-28.8197"/>
<polygon fill="#191970" stroke="#191970" points="270.6605,-30.1704 271.8509,-19.6427 264.3551,-27.1303 270.6605,-30.1704"/>
</g>
<!-- Node8 -->
<g id="node9" class="node">
<title>Node8</title>
<polygon fill="#ffffff" stroke="#bfbfbf" points="312.5,-.5 312.5,-19.5 364.5,-19.5 364.5,-.5 312.5,-.5"/>
<text text-anchor="middle" x="338.5" y="-7.5" font-family="Helvetica,sans-Serif" font-size="10.00" fill="#000000">sstream</text>
</g>
<!-- Node5&#45;&gt;Node8 -->
<g id="edge8" class="edge">
<title>Node5&#45;&gt;Node8</title>
<path fill="none" stroke="#191970" d="M265.0026,-56.2455C278.658,-47.6534 298.7657,-35.0014 314.4989,-25.1018"/>
<polygon fill="#191970" stroke="#191970" points="316.5751,-27.9307 323.175,-19.6427 312.8471,-22.006 316.5751,-27.9307"/>
</g>
<!-- Node9 -->
<g id="node10" class="node">
<title>Node9</title>
<polygon fill="#ffffff" stroke="#bfbfbf" points="383,-.5 383,-19.5 442,-19.5 442,-.5 383,-.5"/>
<text text-anchor="middle" x="412.5" y="-7.5" font-family="Helvetica,sans-Serif" font-size="10.00" fill="#000000">stdexcept</text>
</g>
<!-- Node5&#45;&gt;Node9 -->
<g id="edge9" class="edge">
<title>Node5&#45;&gt;Node9</title>
<path fill="none" stroke="#191970" d="M277.5207,-56.3733C304.5078,-47.1016 345.5017,-33.0178 375.2311,-22.804"/>
<polygon fill="#191970" stroke="#191970" points="376.5248,-26.0605 384.8449,-19.5011 374.2503,-19.4403 376.5248,-26.0605"/>
</g>
<!-- Node10&#45;&gt;Node2 -->
<g id="edge13" class="edge">
<title>Node10&#45;&gt;Node2</title>
<path fill="none" stroke="#191970" d="M87.5,-56.2455C87.5,-48.9382 87.5,-38.6944 87.5,-29.7046"/>
<polygon fill="#191970" stroke="#191970" points="91.0001,-29.6426 87.5,-19.6427 84.0001,-29.6427 91.0001,-29.6426"/>
</g>
<!-- Node10&#45;&gt;Node6 -->
<g id="edge15" class="edge">
<title>Node10&#45;&gt;Node6</title>
<path fill="none" stroke="#191970" d="M99.1705,-56.2455C109.0661,-47.9746 123.4627,-35.9416 135.0901,-26.2232"/>
<polygon fill="#191970" stroke="#191970" points="137.535,-28.7413 142.9632,-19.6427 133.0458,-23.3703 137.535,-28.7413"/>
</g>
<!-- Node11 -->
<g id="node12" class="node">
<title>Node11</title>
<polygon fill="#ffffff" stroke="#bfbfbf" points="0,-.5 0,-19.5 47,-19.5 47,-.5 0,-.5"/>
<text text-anchor="middle" x="23.5" y="-7.5" font-family="Helvetica,sans-Serif" font-size="10.00" fill="#000000">math.h</text>
</g>
<!-- Node10&#45;&gt;Node11 -->
<g id="edge14" class="edge">
<title>Node10&#45;&gt;Node11</title>
<path fill="none" stroke="#191970" d="M76.3521,-56.2455C66.9913,-48.0549 53.4142,-36.1749 42.3651,-26.5069"/>
<polygon fill="#191970" stroke="#191970" points="44.3508,-23.5937 34.5202,-19.6427 39.7412,-28.8618 44.3508,-23.5937"/>
</g>
</g>
</svg>
