<?xml version="1.0" encoding="UTF-8" standalone="no"?>
<!DOCTYPE svg PUBLIC "-//W3C//DTD SVG 1.1//EN"
 "http://www.w3.org/Graphics/SVG/1.1/DTD/svg11.dtd">
<!-- Generated by graphviz version 2.40.1 (20161225.0304)
 -->
<!-- Title: /home/oleg/Dev/riversim/source/river/border.cpp Pages: 1 -->
<svg width="385pt" height="207pt"
 viewBox="0.00 0.00 384.50 207.00" xmlns="http://www.w3.org/2000/svg" xmlns:xlink="http://www.w3.org/1999/xlink">
<g id="graph0" class="graph" transform="scale(1 1) rotate(0) translate(4 203)">
<title>/home/oleg/Dev/riversim/source/river/border.cpp</title>
<polygon fill="#ffffff" stroke="transparent" points="-4,4 -4,-203 380.5,-203 380.5,4 -4,4"/>
<!-- Node0 -->
<g id="node1" class="node">
<title>Node0</title>
<polygon fill="#bfbfbf" stroke="#000000" points="126.5,-168.5 126.5,-198.5 249.5,-198.5 249.5,-168.5 126.5,-168.5"/>
<text text-anchor="start" x="134.5" y="-186.5" font-family="Helvetica,sans-Serif" font-size="10.00" fill="#000000">/home/oleg/Dev/riversim</text>
<text text-anchor="middle" x="188" y="-175.5" font-family="Helvetica,sans-Serif" font-size="10.00" fill="#000000">/source/river/border.cpp</text>
</g>
<!-- Node1 -->
<g id="node2" class="node">
<title>Node1</title>
<g id="a_node2"><a xlink:href="border_8hpp.html" target="_top" xlink:title="Generate initial predefinide border geometry and its source positions. ">
<polygon fill="#ffffff" stroke="#000000" points="121,-112.5 121,-131.5 183,-131.5 183,-112.5 121,-112.5"/>
<text text-anchor="middle" x="152" y="-119.5" font-family="Helvetica,sans-Serif" font-size="10.00" fill="#000000">border.hpp</text>
</a>
</g>
</g>
<!-- Node0&#45;&gt;Node1 -->
<g id="edge1" class="edge">
<title>Node0&#45;&gt;Node1</title>
<path fill="none" stroke="#191970" d="M179.1011,-168.2977C174.2081,-159.9388 168.0974,-149.4997 162.9176,-140.6509"/>
<polygon fill="#191970" stroke="#191970" points="165.8365,-138.7089 157.7641,-131.8469 159.7953,-142.2452 165.8365,-138.7089"/>
</g>
<!-- Node11 -->
<g id="node12" class="node">
<title>Node11</title>
<polygon fill="#ffffff" stroke="#bfbfbf" points="201.5,-112.5 201.5,-131.5 248.5,-131.5 248.5,-112.5 201.5,-112.5"/>
<text text-anchor="middle" x="225" y="-119.5" font-family="Helvetica,sans-Serif" font-size="10.00" fill="#000000">math.h</text>
</g>
<!-- Node0&#45;&gt;Node11 -->
<g id="edge15" class="edge">
<title>Node0&#45;&gt;Node11</title>
<path fill="none" stroke="#191970" d="M197.1461,-168.2977C202.1751,-159.9388 208.4555,-149.4997 213.7791,-140.6509"/>
<polygon fill="#191970" stroke="#191970" points="216.9197,-142.2201 219.0758,-131.8469 210.9215,-138.6114 216.9197,-142.2201"/>
</g>
<!-- Node2 -->
<g id="node3" class="node">
<title>Node2</title>
<polygon fill="#ffffff" stroke="#bfbfbf" points="0,-.5 0,-19.5 44,-19.5 44,-.5 0,-.5"/>
<text text-anchor="middle" x="22" y="-7.5" font-family="Helvetica,sans-Serif" font-size="10.00" fill="#000000">vector</text>
</g>
<!-- Node1&#45;&gt;Node2 -->
<g id="edge2" class="edge">
<title>Node1&#45;&gt;Node2</title>
<path fill="none" stroke="#191970" d="M120.7485,-116.487C96.089,-110.5591 62.532,-98.7373 42,-76 30.6031,-63.379 25.6962,-44.4468 23.5859,-30.0914"/>
<polygon fill="#191970" stroke="#191970" points="27.0204,-29.3129 22.4226,-19.7678 20.0645,-30.0968 27.0204,-29.3129"/>
</g>
<!-- Node3 -->
<g id="node4" class="node">
<title>Node3</title>
<polygon fill="#ffffff" stroke="#bfbfbf" points="260,-56.5 260,-75.5 316,-75.5 316,-56.5 260,-56.5"/>
<text text-anchor="middle" x="288" y="-63.5" font-family="Helvetica,sans-Serif" font-size="10.00" fill="#000000">algorithm</text>
</g>
<!-- Node1&#45;&gt;Node3 -->
<g id="edge3" class="edge">
<title>Node1&#45;&gt;Node3</title>
<path fill="none" stroke="#191970" d="M175.3792,-112.3733C197.5045,-103.2629 230.9134,-89.5062 255.6019,-79.3404"/>
<polygon fill="#191970" stroke="#191970" points="257.0117,-82.5451 264.9258,-75.5011 254.3464,-76.0723 257.0117,-82.5451"/>
</g>
<!-- Node4 -->
<g id="node5" class="node">
<title>Node4</title>
<polygon fill="#ffffff" stroke="#bfbfbf" points="134.5,-.5 134.5,-19.5 175.5,-19.5 175.5,-.5 134.5,-.5"/>
<text text-anchor="middle" x="155" y="-7.5" font-family="Helvetica,sans-Serif" font-size="10.00" fill="#000000">string</text>
</g>
<!-- Node1&#45;&gt;Node4 -->
<g id="edge4" class="edge">
<title>Node1&#45;&gt;Node4</title>
<path fill="none" stroke="#191970" d="M152.2558,-112.4509C152.7451,-94.184 153.8226,-53.9553 154.4724,-29.6976"/>
<polygon fill="#191970" stroke="#191970" points="157.9758,-29.6151 154.7449,-19.5249 150.9783,-29.4276 157.9758,-29.6151"/>
</g>
<!-- Node5 -->
<g id="node6" class="node">
<title>Node5</title>
<g id="a_node6"><a xlink:href="tethex_8hpp.html" target="_top" xlink:title="tethex &#45; tetrahedra to hexahedra conversion Copyright (c) 2013 Mikhail Artemyev Report issues: github...">
<polygon fill="#ffffff" stroke="#000000" points="180,-56.5 180,-75.5 242,-75.5 242,-56.5 180,-56.5"/>
<text text-anchor="middle" x="211" y="-63.5" font-family="Helvetica,sans-Serif" font-size="10.00" fill="#000000">tethex.hpp</text>
</a>
</g>
</g>
<!-- Node1&#45;&gt;Node5 -->
<g id="edge5" class="edge">
<title>Node1&#45;&gt;Node5</title>
<path fill="none" stroke="#191970" d="M162.277,-112.2455C170.8218,-104.1352 183.1778,-92.4075 193.3085,-82.7919"/>
<polygon fill="#191970" stroke="#191970" points="195.9972,-85.0655 200.8408,-75.6427 191.1782,-79.9884 195.9972,-85.0655"/>
</g>
<!-- Node10 -->
<g id="node11" class="node">
<title>Node10</title>
<g id="a_node11"><a xlink:href="common_8hpp.html" target="_top" xlink:title="Common geometric entities to whole program. ">
<polygon fill="#ffffff" stroke="#000000" points="50.5,-56.5 50.5,-75.5 123.5,-75.5 123.5,-56.5 50.5,-56.5"/>
<text text-anchor="middle" x="87" y="-63.5" font-family="Helvetica,sans-Serif" font-size="10.00" fill="#000000">common.hpp</text>
</a>
</g>
</g>
<!-- Node1&#45;&gt;Node10 -->
<g id="edge12" class="edge">
<title>Node1&#45;&gt;Node10</title>
<path fill="none" stroke="#191970" d="M140.6779,-112.2455C131.0777,-103.9746 117.1108,-91.9416 105.8305,-82.2232"/>
<polygon fill="#191970" stroke="#191970" points="108.053,-79.5182 98.1924,-75.6427 103.484,-84.8214 108.053,-79.5182"/>
</g>
<!-- Node5&#45;&gt;Node2 -->
<g id="edge11" class="edge">
<title>Node5&#45;&gt;Node2</title>
<path fill="none" stroke="#191970" d="M179.7431,-57.1863C149.8076,-48.6823 103.1348,-35.2603 54.1503,-20.2986"/>
<polygon fill="#191970" stroke="#191970" points="54.9136,-16.8719 44.3269,-17.2868 52.8616,-23.5644 54.9136,-16.8719"/>
</g>
<!-- Node5&#45;&gt;Node4 -->
<g id="edge10" class="edge">
<title>Node5&#45;&gt;Node4</title>
<path fill="none" stroke="#191970" d="M201.2455,-56.2455C193.1352,-48.1352 181.4075,-36.4075 171.7919,-26.7919"/>
<polygon fill="#191970" stroke="#191970" points="174.1887,-24.2389 164.6427,-19.6427 169.2389,-29.1887 174.1887,-24.2389"/>
</g>
<!-- Node6 -->
<g id="node7" class="node">
<title>Node6</title>
<polygon fill="#ffffff" stroke="#bfbfbf" points="62,-.5 62,-19.5 116,-19.5 116,-.5 62,-.5"/>
<text text-anchor="middle" x="89" y="-7.5" font-family="Helvetica,sans-Serif" font-size="10.00" fill="#000000">iostream</text>
</g>
<!-- Node5&#45;&gt;Node6 -->
<g id="edge6" class="edge">
<title>Node5&#45;&gt;Node6</title>
<path fill="none" stroke="#191970" d="M190.0275,-56.3733C170.4433,-47.3838 141.0039,-33.8706 118.949,-23.7471"/>
<polygon fill="#191970" stroke="#191970" points="120.2473,-20.4919 109.6989,-19.5011 117.3271,-26.8538 120.2473,-20.4919"/>
</g>
<!-- Node7 -->
<g id="node8" class="node">
<title>Node7</title>
<polygon fill="#ffffff" stroke="#bfbfbf" points="193.5,-.5 193.5,-19.5 228.5,-19.5 228.5,-.5 193.5,-.5"/>
<text text-anchor="middle" x="211" y="-7.5" font-family="Helvetica,sans-Serif" font-size="10.00" fill="#000000">map</text>
</g>
<!-- Node5&#45;&gt;Node7 -->
<g id="edge7" class="edge">
<title>Node5&#45;&gt;Node7</title>
<path fill="none" stroke="#191970" d="M211,-56.2455C211,-48.9382 211,-38.6944 211,-29.7046"/>
<polygon fill="#191970" stroke="#191970" points="214.5001,-29.6426 211,-19.6427 207.5001,-29.6427 214.5001,-29.6426"/>
</g>
<!-- Node8 -->
<g id="node9" class="node">
<title>Node8</title>
<polygon fill="#ffffff" stroke="#bfbfbf" points="247,-.5 247,-19.5 299,-19.5 299,-.5 247,-.5"/>
<text text-anchor="middle" x="273" y="-7.5" font-family="Helvetica,sans-Serif" font-size="10.00" fill="#000000">sstream</text>
</g>
<!-- Node5&#45;&gt;Node8 -->
<g id="edge8" class="edge">
<title>Node5&#45;&gt;Node8</title>
<path fill="none" stroke="#191970" d="M221.7996,-56.2455C230.8678,-48.0549 244.0206,-36.1749 254.7245,-26.5069"/>
<polygon fill="#191970" stroke="#191970" points="257.2491,-28.9429 262.3242,-19.6427 252.5571,-23.7482 257.2491,-28.9429"/>
</g>
<!-- Node9 -->
<g id="node10" class="node">
<title>Node9</title>
<polygon fill="#ffffff" stroke="#bfbfbf" points="317.5,-.5 317.5,-19.5 376.5,-19.5 376.5,-.5 317.5,-.5"/>
<text text-anchor="middle" x="347" y="-7.5" font-family="Helvetica,sans-Serif" font-size="10.00" fill="#000000">stdexcept</text>
</g>
<!-- Node5&#45;&gt;Node9 -->
<g id="edge9" class="edge">
<title>Node5&#45;&gt;Node9</title>
<path fill="none" stroke="#191970" d="M234.3792,-56.3733C256.5045,-47.2629 289.9134,-33.5062 314.6019,-23.3404"/>
<polygon fill="#191970" stroke="#191970" points="316.0117,-26.5451 323.9258,-19.5011 313.3464,-20.0723 316.0117,-26.5451"/>
</g>
<!-- Node10&#45;&gt;Node2 -->
<g id="edge13" class="edge">
<title>Node10&#45;&gt;Node2</title>
<path fill="none" stroke="#191970" d="M75.6779,-56.2455C66.0777,-47.9746 52.1108,-35.9416 40.8305,-26.2232"/>
<polygon fill="#191970" stroke="#191970" points="43.053,-23.5182 33.1924,-19.6427 38.484,-28.8214 43.053,-23.5182"/>
</g>
<!-- Node10&#45;&gt;Node6 -->
<g id="edge14" class="edge">
<title>Node10&#45;&gt;Node6</title>
<path fill="none" stroke="#191970" d="M87.3484,-56.2455C87.6093,-48.9382 87.9752,-38.6944 88.2963,-29.7046"/>
<polygon fill="#191970" stroke="#191970" points="91.7964,-29.7613 88.6556,-19.6427 84.8008,-29.5113 91.7964,-29.7613"/>
</g>
</g>
</svg>
