<?xml version="1.0" encoding="UTF-8" standalone="no"?>
<!DOCTYPE svg PUBLIC "-//W3C//DTD SVG 1.1//EN"
 "http://www.w3.org/Graphics/SVG/1.1/DTD/svg11.dtd">
<!-- Generated by graphviz version 2.40.1 (20161225.0304)
 -->
<!-- Title: border.hpp Pages: 1 -->
<svg width="128pt" height="196pt"
 viewBox="0.00 0.00 127.50 196.00" xmlns="http://www.w3.org/2000/svg" xmlns:xlink="http://www.w3.org/1999/xlink">
<g id="graph0" class="graph" transform="scale(1 1) rotate(0) translate(4 192)">
<title>border.hpp</title>
<polygon fill="#ffffff" stroke="transparent" points="-4,4 -4,-192 123.5,-192 123.5,4 -4,4"/>
<!-- Node2 -->
<g id="node1" class="node">
<title>Node2</title>
<polygon fill="#bfbfbf" stroke="#000000" points="0,-168.5 0,-187.5 68,-187.5 68,-168.5 0,-168.5"/>
<text text-anchor="middle" x="34" y="-175.5" font-family="Helvetica,sans-Serif" font-size="10.00" fill="#000000">border.hpp</text>
</g>
<!-- Node3 -->
<g id="node2" class="node">
<title>Node3</title>
<g id="a_node2"><a xlink:href="io_8hpp.html" target="_top" xlink:title="Contains functionality to read and write state of program(simulation data) and program options...">
<polygon fill="#ffffff" stroke="#000000" points="20.5,-56.5 20.5,-75.5 67.5,-75.5 67.5,-56.5 20.5,-56.5"/>
<text text-anchor="middle" x="44" y="-63.5" font-family="Helvetica,sans-Serif" font-size="10.00" fill="#000000">io.hpp</text>
</a>
</g>
</g>
<!-- Node2&#45;&gt;Node3 -->
<g id="edge1" class="edge">
<title>Node2&#45;&gt;Node3</title>
<path fill="none" stroke="#191970" d="M35.7616,-158.2702C37.9287,-133.9985 41.5203,-93.7725 43.1496,-75.5249"/>
<polygon fill="#191970" stroke="#191970" points="32.2559,-158.1793 34.8526,-168.4509 39.2281,-158.8019 32.2559,-158.1793"/>
</g>
<!-- Node4 -->
<g id="node3" class="node">
<title>Node4</title>
<g id="a_node3"><a xlink:href="riversim_8hpp.html" target="_top" xlink:title="Some general routines like backward, forward simulation etc. ">
<polygon fill="#ffffff" stroke="#000000" points="5,-.5 5,-19.5 83,-19.5 83,-.5 5,-.5"/>
<text text-anchor="middle" x="44" y="-7.5" font-family="Helvetica,sans-Serif" font-size="10.00" fill="#000000">riversim.hpp</text>
</a>
</g>
</g>
<!-- Node2&#45;&gt;Node4 -->
<g id="edge6" class="edge">
<title>Node2&#45;&gt;Node4</title>
<path fill="none" stroke="#191970" d="M24.7606,-159.1421C14.1432,-134.8578 -.4324,-91.5486 11,-56 15.5738,-41.7779 26.35,-28.2277 34.3508,-19.5654"/>
<polygon fill="#191970" stroke="#191970" points="21.619,-160.6878 28.9812,-168.3069 27.9772,-157.7597 21.619,-160.6878"/>
</g>
<!-- Node5 -->
<g id="node4" class="node">
<title>Node5</title>
<g id="a_node4"><a xlink:href="tree_8hpp.html" target="_top" xlink:title="Holds all functionality that you need to work with tree(network) of river, its separate branches and ...">
<polygon fill="#ffffff" stroke="#000000" points="62.5,-112.5 62.5,-131.5 119.5,-131.5 119.5,-112.5 62.5,-112.5"/>
<text text-anchor="middle" x="91" y="-119.5" font-family="Helvetica,sans-Serif" font-size="10.00" fill="#000000">tree.hpp</text>
</a>
</g>
</g>
<!-- Node2&#45;&gt;Node5 -->
<g id="edge3" class="edge">
<title>Node2&#45;&gt;Node5</title>
<path fill="none" stroke="#191970" d="M51.2271,-161.0751C61.0341,-151.4402 72.964,-139.7196 81.1851,-131.6427"/>
<polygon fill="#191970" stroke="#191970" points="48.6091,-158.7406 43.9286,-168.2455 53.5149,-163.734 48.6091,-158.7406"/>
</g>
<!-- Node3&#45;&gt;Node4 -->
<g id="edge2" class="edge">
<title>Node3&#45;&gt;Node4</title>
<path fill="none" stroke="#191970" d="M44,-46.1575C44,-37.155 44,-26.9199 44,-19.6427"/>
<polygon fill="#191970" stroke="#191970" points="40.5001,-46.2455 44,-56.2455 47.5001,-46.2456 40.5001,-46.2455"/>
</g>
<!-- Node5&#45;&gt;Node3 -->
<g id="edge4" class="edge">
<title>Node5&#45;&gt;Node3</title>
<path fill="none" stroke="#191970" d="M76.3128,-104.5004C68.3204,-94.9775 58.7375,-83.5596 52.093,-75.6427"/>
<polygon fill="#191970" stroke="#191970" points="73.7036,-106.8358 82.8132,-112.2455 79.0654,-102.3357 73.7036,-106.8358"/>
</g>
<!-- Node5&#45;&gt;Node4 -->
<g id="edge5" class="edge">
<title>Node5&#45;&gt;Node4</title>
<path fill="none" stroke="#191970" d="M88.9583,-102.1384C87.0596,-88.6809 83.5035,-70.7343 77,-56 70.9675,-42.3326 60.4648,-28.6785 52.927,-19.8401"/>
<polygon fill="#191970" stroke="#191970" points="85.5029,-102.717 90.1917,-112.2178 92.4511,-101.8666 85.5029,-102.717"/>
</g>
</g>
</svg>
