<?xml version="1.0" encoding="UTF-8" standalone="no"?>
<!DOCTYPE svg PUBLIC "-//W3C//DTD SVG 1.1//EN"
 "http://www.w3.org/Graphics/SVG/1.1/DTD/svg11.dtd">
<!-- Generated by graphviz version 2.40.1 (20161225.0304)
 -->
<!-- Title: /home/oleg/Dev/riversim/source/river/border.cpp Pages: 1 -->
<svg width="240pt" height="207pt"
 viewBox="0.00 0.00 239.82 207.00" xmlns="http://www.w3.org/2000/svg" xmlns:xlink="http://www.w3.org/1999/xlink">
<g id="graph0" class="graph" transform="scale(1 1) rotate(0) translate(4 203)">
<title>/home/oleg/Dev/riversim/source/river/border.cpp</title>
<polygon fill="#ffffff" stroke="transparent" points="-4,4 -4,-203 235.817,-203 235.817,4 -4,4"/>
<!-- Node0 -->
<g id="node1" class="node">
<title>Node0</title>
<polygon fill="#bfbfbf" stroke="#000000" points="72.317,-168.5 72.317,-198.5 195.317,-198.5 195.317,-168.5 72.317,-168.5"/>
<text text-anchor="start" x="80.317" y="-186.5" font-family="Helvetica,sans-Serif" font-size="10.00" fill="#000000">/home/oleg/Dev/riversim</text>
<text text-anchor="middle" x="133.817" y="-175.5" font-family="Helvetica,sans-Serif" font-size="10.00" fill="#000000">/source/river/border.cpp</text>
</g>
<!-- Node1 -->
<g id="node2" class="node">
<title>Node1</title>
<g id="a_node2"><a xlink:href="border_8hpp.html" target="_top" xlink:title="Generate initial predefinide border geometry and its source positions. ">
<polygon fill="#ffffff" stroke="#000000" points="29.817,-112.5 29.817,-131.5 91.817,-131.5 91.817,-112.5 29.817,-112.5"/>
<text text-anchor="middle" x="60.817" y="-119.5" font-family="Helvetica,sans-Serif" font-size="10.00" fill="#000000">border.hpp</text>
</a>
</g>
</g>
<!-- Node0&#45;&gt;Node1 -->
<g id="edge1" class="edge">
<title>Node0&#45;&gt;Node1</title>
<path fill="none" stroke="#191970" d="M115.7721,-168.2977C105.0056,-159.2274 91.3319,-147.7077 80.3175,-138.4285"/>
<polygon fill="#191970" stroke="#191970" points="82.4081,-135.6132 72.5052,-131.8469 77.898,-140.9667 82.4081,-135.6132"/>
</g>
<!-- Node7 -->
<g id="node8" class="node">
<title>Node7</title>
<polygon fill="#ffffff" stroke="#bfbfbf" points="110.317,-112.5 110.317,-131.5 157.317,-131.5 157.317,-112.5 110.317,-112.5"/>
<text text-anchor="middle" x="133.817" y="-119.5" font-family="Helvetica,sans-Serif" font-size="10.00" fill="#000000">math.h</text>
</g>
<!-- Node0&#45;&gt;Node7 -->
<g id="edge8" class="edge">
<title>Node0&#45;&gt;Node7</title>
<path fill="none" stroke="#191970" d="M133.817,-168.2977C133.817,-160.3834 133.817,-150.6043 133.817,-142.0759"/>
<polygon fill="#191970" stroke="#191970" points="137.3171,-141.8469 133.817,-131.8469 130.3171,-141.847 137.3171,-141.8469"/>
</g>
<!-- Node8 -->
<g id="node9" class="node">
<title>Node8</title>
<polygon fill="#ffffff" stroke="#bfbfbf" points="175.817,-112.5 175.817,-131.5 231.817,-131.5 231.817,-112.5 175.817,-112.5"/>
<text text-anchor="middle" x="203.817" y="-119.5" font-family="Helvetica,sans-Serif" font-size="10.00" fill="#000000">algorithm</text>
</g>
<!-- Node0&#45;&gt;Node8 -->
<g id="edge9" class="edge">
<title>Node0&#45;&gt;Node8</title>
<path fill="none" stroke="#191970" d="M151.1204,-168.2977C161.3432,-159.3163 174.2993,-147.9334 184.8066,-138.702"/>
<polygon fill="#191970" stroke="#191970" points="187.4067,-141.0766 192.6091,-131.8469 182.7865,-135.8178 187.4067,-141.0766"/>
</g>
<!-- Node2 -->
<g id="node3" class="node">
<title>Node2</title>
<polygon fill="#ffffff" stroke="#bfbfbf" points="16.817,-.5 16.817,-19.5 60.817,-19.5 60.817,-.5 16.817,-.5"/>
<text text-anchor="middle" x="38.817" y="-7.5" font-family="Helvetica,sans-Serif" font-size="10.00" fill="#000000">vector</text>
</g>
<!-- Node1&#45;&gt;Node2 -->
<g id="edge2" class="edge">
<title>Node1&#45;&gt;Node2</title>
<path fill="none" stroke="#191970" d="M40.9929,-112.3695C27.4955,-104.6136 10.7013,-92.3161 2.817,-76 -5.443,-58.9065 7.3049,-39.9308 19.8549,-26.73"/>
<polygon fill="#191970" stroke="#191970" points="22.3587,-29.1769 27.061,-19.6828 17.4644,-24.1723 22.3587,-29.1769"/>
</g>
<!-- Node3 -->
<g id="node4" class="node">
<title>Node3</title>
<polygon fill="#ffffff" stroke="#bfbfbf" points="12.317,-56.5 12.317,-75.5 53.317,-75.5 53.317,-56.5 12.317,-56.5"/>
<text text-anchor="middle" x="32.817" y="-63.5" font-family="Helvetica,sans-Serif" font-size="10.00" fill="#000000">string</text>
</g>
<!-- Node1&#45;&gt;Node3 -->
<g id="edge3" class="edge">
<title>Node1&#45;&gt;Node3</title>
<path fill="none" stroke="#191970" d="M55.9398,-112.2455C52.1657,-104.6973 46.8249,-94.0158 42.2269,-84.8197"/>
<polygon fill="#191970" stroke="#191970" points="45.241,-83.0217 37.6383,-75.6427 38.98,-86.1522 45.241,-83.0217"/>
</g>
<!-- Node4 -->
<g id="node5" class="node">
<title>Node4</title>
<polygon fill="#ffffff" stroke="#bfbfbf" points="71.317,-56.5 71.317,-75.5 106.317,-75.5 106.317,-56.5 71.317,-56.5"/>
<text text-anchor="middle" x="88.817" y="-63.5" font-family="Helvetica,sans-Serif" font-size="10.00" fill="#000000">map</text>
</g>
<!-- Node1&#45;&gt;Node4 -->
<g id="edge4" class="edge">
<title>Node1&#45;&gt;Node4</title>
<path fill="none" stroke="#191970" d="M65.6942,-112.2455C69.4683,-104.6973 74.8091,-94.0158 79.4071,-84.8197"/>
<polygon fill="#191970" stroke="#191970" points="82.654,-86.1522 83.9957,-75.6427 76.393,-83.0217 82.654,-86.1522"/>
</g>
<!-- Node5 -->
<g id="node6" class="node">
<title>Node5</title>
<g id="a_node6"><a xlink:href="common_8hpp.html" target="_top" xlink:title="Common geometric entities to whole program. ">
<polygon fill="#ffffff" stroke="#000000" points="124.317,-56.5 124.317,-75.5 197.317,-75.5 197.317,-56.5 124.317,-56.5"/>
<text text-anchor="middle" x="160.817" y="-63.5" font-family="Helvetica,sans-Serif" font-size="10.00" fill="#000000">common.hpp</text>
</a>
</g>
</g>
<!-- Node1&#45;&gt;Node5 -->
<g id="edge5" class="edge">
<title>Node1&#45;&gt;Node5</title>
<path fill="none" stroke="#191970" d="M78.2357,-112.2455C93.8655,-103.4928 117.0189,-90.527 134.8355,-80.5496"/>
<polygon fill="#191970" stroke="#191970" points="136.583,-83.5825 143.5979,-75.6427 133.1627,-77.475 136.583,-83.5825"/>
</g>
<!-- Node5&#45;&gt;Node2 -->
<g id="edge6" class="edge">
<title>Node5&#45;&gt;Node2</title>
<path fill="none" stroke="#191970" d="M139.8445,-56.3733C120.2603,-47.3838 90.8209,-33.8706 68.766,-23.7471"/>
<polygon fill="#191970" stroke="#191970" points="70.0643,-20.4919 59.5159,-19.5011 67.1441,-26.8538 70.0643,-20.4919"/>
</g>
<!-- Node6 -->
<g id="node7" class="node">
<title>Node6</title>
<polygon fill="#ffffff" stroke="#bfbfbf" points="133.817,-.5 133.817,-19.5 187.817,-19.5 187.817,-.5 133.817,-.5"/>
<text text-anchor="middle" x="160.817" y="-7.5" font-family="Helvetica,sans-Serif" font-size="10.00" fill="#000000">iostream</text>
</g>
<!-- Node5&#45;&gt;Node6 -->
<g id="edge7" class="edge">
<title>Node5&#45;&gt;Node6</title>
<path fill="none" stroke="#191970" d="M160.817,-56.2455C160.817,-48.9382 160.817,-38.6944 160.817,-29.7046"/>
<polygon fill="#191970" stroke="#191970" points="164.3171,-29.6426 160.817,-19.6427 157.3171,-29.6427 164.3171,-29.6426"/>
</g>
</g>
</svg>
