<?xml version="1.0" encoding="UTF-8" standalone="no"?>
<!DOCTYPE svg PUBLIC "-//W3C//DTD SVG 1.1//EN"
 "http://www.w3.org/Graphics/SVG/1.1/DTD/svg11.dtd">
<!-- Generated by graphviz version 2.40.1 (20161225.0304)
 -->
<!-- Title: /home/oleg/Dev/riversim/source/river/border.hpp Pages: 1 -->
<svg width="464pt" height="240pt"
 viewBox="0.00 0.00 464.00 240.00" xmlns="http://www.w3.org/2000/svg" xmlns:xlink="http://www.w3.org/1999/xlink">
<g id="graph0" class="graph" transform="scale(1 1) rotate(0) translate(4 236)">
<title>/home/oleg/Dev/riversim/source/river/border.hpp</title>
<polygon fill="#ffffff" stroke="transparent" points="-4,4 -4,-236 460,-236 460,4 -4,4"/>
<!-- Node11 -->
<g id="node1" class="node">
<title>Node11</title>
<polygon fill="#bfbfbf" stroke="#000000" points="155,-201.5 155,-231.5 278,-231.5 278,-201.5 155,-201.5"/>
<text text-anchor="start" x="163" y="-219.5" font-family="Helvetica,sans-Serif" font-size="10.00" fill="#000000">/home/oleg/Dev/riversim</text>
<text text-anchor="middle" x="216.5" y="-208.5" font-family="Helvetica,sans-Serif" font-size="10.00" fill="#000000">/source/river/border.hpp</text>
</g>
<!-- Node12 -->
<g id="node2" class="node">
<title>Node12</title>
<g id="a_node2"><a xlink:href="border_8cpp.html" target="_top" xlink:title="/home/oleg/Dev/riversim\l/source/river/border.cpp">
<polygon fill="#ffffff" stroke="#000000" points="0,-134.5 0,-164.5 123,-164.5 123,-134.5 0,-134.5"/>
<text text-anchor="start" x="8" y="-152.5" font-family="Helvetica,sans-Serif" font-size="10.00" fill="#000000">/home/oleg/Dev/riversim</text>
<text text-anchor="middle" x="61.5" y="-141.5" font-family="Helvetica,sans-Serif" font-size="10.00" fill="#000000">/source/river/border.cpp</text>
</a>
</g>
</g>
<!-- Node11&#45;&gt;Node12 -->
<g id="edge1" class="edge">
<title>Node11&#45;&gt;Node12</title>
<path fill="none" stroke="#191970" d="M172.4328,-197.4516C148.3444,-187.0392 118.925,-174.3224 96.4367,-164.6017"/>
<polygon fill="#191970" stroke="#191970" points="171.1471,-200.7088 181.715,-201.4639 173.9246,-194.2834 171.1471,-200.7088"/>
</g>
<!-- Node13 -->
<g id="node3" class="node">
<title>Node13</title>
<g id="a_node3"><a xlink:href="geometrynew_8hpp.html" target="_top" xlink:title="Holds all functionality that you need to work with tree of river, its separate branches and generatio...">
<polygon fill="#ffffff" stroke="#000000" points="141,-134.5 141,-164.5 292,-164.5 292,-134.5 141,-134.5"/>
<text text-anchor="start" x="149" y="-152.5" font-family="Helvetica,sans-Serif" font-size="10.00" fill="#000000">/home/oleg/Dev/riversim</text>
<text text-anchor="middle" x="216.5" y="-141.5" font-family="Helvetica,sans-Serif" font-size="10.00" fill="#000000">/source/river/geometrynew.hpp</text>
</a>
</g>
</g>
<!-- Node11&#45;&gt;Node13 -->
<g id="edge2" class="edge">
<title>Node11&#45;&gt;Node13</title>
<path fill="none" stroke="#191970" d="M216.5,-191.0249C216.5,-182.128 216.5,-172.4287 216.5,-164.6432"/>
<polygon fill="#191970" stroke="#191970" points="213.0001,-191.2966 216.5,-201.2967 220.0001,-191.2967 213.0001,-191.2966"/>
</g>
<!-- Node15 -->
<g id="node5" class="node">
<title>Node15</title>
<g id="a_node5"><a xlink:href="riversim_8hpp.html" target="_top" xlink:title="/home/oleg/Dev/riversim\l/source/river/riversim.hpp">
<polygon fill="#ffffff" stroke="#000000" points="257,-67.5 257,-97.5 384,-97.5 384,-67.5 257,-67.5"/>
<text text-anchor="start" x="265" y="-85.5" font-family="Helvetica,sans-Serif" font-size="10.00" fill="#000000">/home/oleg/Dev/riversim</text>
<text text-anchor="middle" x="320.5" y="-74.5" font-family="Helvetica,sans-Serif" font-size="10.00" fill="#000000">/source/river/riversim.hpp</text>
</a>
</g>
</g>
<!-- Node11&#45;&gt;Node15 -->
<g id="edge7" class="edge">
<title>Node11&#45;&gt;Node15</title>
<path fill="none" stroke="#191970" d="M263.3236,-196.4334C277.0972,-188.47 291.0018,-178.0457 300.5,-165 315.16,-144.8646 319.1804,-115.3602 320.2198,-97.6319"/>
<polygon fill="#191970" stroke="#191970" points="261.4554,-193.465 254.3388,-201.3139 264.7968,-199.6161 261.4554,-193.465"/>
</g>
<!-- Node14 -->
<g id="node4" class="node">
<title>Node14</title>
<g id="a_node4"><a xlink:href="geometrynew_8cpp.html" target="_top" xlink:title="/home/oleg/Dev/riversim\l/source/river/geometrynew.cpp">
<polygon fill="#ffffff" stroke="#000000" points="88,-67.5 88,-97.5 239,-97.5 239,-67.5 88,-67.5"/>
<text text-anchor="start" x="96" y="-85.5" font-family="Helvetica,sans-Serif" font-size="10.00" fill="#000000">/home/oleg/Dev/riversim</text>
<text text-anchor="middle" x="163.5" y="-74.5" font-family="Helvetica,sans-Serif" font-size="10.00" fill="#000000">/source/river/geometrynew.cpp</text>
</a>
</g>
</g>
<!-- Node13&#45;&gt;Node14 -->
<g id="edge3" class="edge">
<title>Node13&#45;&gt;Node14</title>
<path fill="none" stroke="#191970" d="M198.188,-126.3509C190.6709,-116.8482 182.1791,-106.1132 175.4789,-97.6432"/>
<polygon fill="#191970" stroke="#191970" points="195.5244,-128.6252 204.4735,-134.2967 201.0144,-124.2824 195.5244,-128.6252"/>
</g>
<!-- Node13&#45;&gt;Node15 -->
<g id="edge4" class="edge">
<title>Node13&#45;&gt;Node15</title>
<path fill="none" stroke="#191970" d="M248.639,-128.7951C264.2223,-118.7558 282.6061,-106.9124 296.8784,-97.7177"/>
<polygon fill="#191970" stroke="#191970" points="246.3506,-126.1058 239.8396,-134.4639 250.1417,-131.9904 246.3506,-126.1058"/>
</g>
<!-- Node16 -->
<g id="node6" class="node">
<title>Node16</title>
<g id="a_node6"><a xlink:href="main_8cpp.html" target="_top" xlink:title="Entry point of program and main loop handler. ">
<polygon fill="#ffffff" stroke="#000000" points="188,-.5 188,-30.5 311,-30.5 311,-.5 188,-.5"/>
<text text-anchor="start" x="196" y="-18.5" font-family="Helvetica,sans-Serif" font-size="10.00" fill="#000000">/home/oleg/Dev/riversim</text>
<text text-anchor="middle" x="249.5" y="-7.5" font-family="Helvetica,sans-Serif" font-size="10.00" fill="#000000">/source/main.cpp</text>
</a>
</g>
</g>
<!-- Node15&#45;&gt;Node16 -->
<g id="edge5" class="edge">
<title>Node15&#45;&gt;Node16</title>
<path fill="none" stroke="#191970" d="M296.8806,-60.2113C286.5905,-50.5009 274.7949,-39.3698 265.5472,-30.6432"/>
<polygon fill="#191970" stroke="#191970" points="294.7139,-62.979 304.389,-67.2967 299.5181,-57.8879 294.7139,-62.979"/>
</g>
<!-- Node17 -->
<g id="node7" class="node">
<title>Node17</title>
<g id="a_node7"><a xlink:href="riversim_8cpp.html" target="_top" xlink:title="/home/oleg/Dev/riversim\l/source/river/riversim.cpp">
<polygon fill="#ffffff" stroke="#000000" points="329,-.5 329,-30.5 456,-30.5 456,-.5 329,-.5"/>
<text text-anchor="start" x="337" y="-18.5" font-family="Helvetica,sans-Serif" font-size="10.00" fill="#000000">/home/oleg/Dev/riversim</text>
<text text-anchor="middle" x="392.5" y="-7.5" font-family="Helvetica,sans-Serif" font-size="10.00" fill="#000000">/source/river/riversim.cpp</text>
</a>
</g>
</g>
<!-- Node15&#45;&gt;Node17 -->
<g id="edge6" class="edge">
<title>Node15&#45;&gt;Node17</title>
<path fill="none" stroke="#191970" d="M344.452,-60.2113C354.8871,-50.5009 366.8488,-39.3698 376.2267,-30.6432"/>
<polygon fill="#191970" stroke="#191970" points="341.7743,-57.9221 336.8379,-67.2967 346.5429,-63.0466 341.7743,-57.9221"/>
</g>
</g>
</svg>
