<?xml version="1.0" encoding="UTF-8" standalone="no"?>
<!DOCTYPE svg PUBLIC "-//W3C//DTD SVG 1.1//EN"
 "http://www.w3.org/Graphics/SVG/1.1/DTD/svg11.dtd">
<!-- Generated by graphviz version 2.40.1 (20161225.0304)
 -->
<!-- Title: border.hpp Pages: 1 -->
<svg width="128pt" height="252pt"
 viewBox="0.00 0.00 127.50 252.00" xmlns="http://www.w3.org/2000/svg" xmlns:xlink="http://www.w3.org/1999/xlink">
<g id="graph0" class="graph" transform="scale(1 1) rotate(0) translate(4 248)">
<title>border.hpp</title>
<polygon fill="#ffffff" stroke="transparent" points="-4,4 -4,-248 123.5,-248 123.5,4 -4,4"/>
<!-- Node2 -->
<g id="node1" class="node">
<title>Node2</title>
<polygon fill="#bfbfbf" stroke="#000000" points="0,-224.5 0,-243.5 68,-243.5 68,-224.5 0,-224.5"/>
<text text-anchor="middle" x="34" y="-231.5" font-family="Helvetica,sans-Serif" font-size="10.00" fill="#000000">border.hpp</text>
</g>
<!-- Node3 -->
<g id="node2" class="node">
<title>Node3</title>
<g id="a_node2"><a xlink:href="io_8hpp.html" target="_top" xlink:title="Contains functionality to read and write state of program(simulation data) and program options...">
<polygon fill="#ffffff" stroke="#000000" points="20.5,-112.5 20.5,-131.5 67.5,-131.5 67.5,-112.5 20.5,-112.5"/>
<text text-anchor="middle" x="44" y="-119.5" font-family="Helvetica,sans-Serif" font-size="10.00" fill="#000000">io.hpp</text>
</a>
</g>
</g>
<!-- Node2&#45;&gt;Node3 -->
<g id="edge1" class="edge">
<title>Node2&#45;&gt;Node3</title>
<path fill="none" stroke="#191970" d="M35.7616,-214.2702C37.9287,-189.9985 41.5203,-149.7725 43.1496,-131.5249"/>
<polygon fill="#191970" stroke="#191970" points="32.2559,-214.1793 34.8526,-224.4509 39.2281,-214.8019 32.2559,-214.1793"/>
</g>
<!-- Node4 -->
<g id="node3" class="node">
<title>Node4</title>
<g id="a_node3"><a xlink:href="riversim_8hpp.html" target="_top" xlink:title="Some general routines like backward, forward simulation etc. ">
<polygon fill="#ffffff" stroke="#000000" points="5,-56.5 5,-75.5 83,-75.5 83,-56.5 5,-56.5"/>
<text text-anchor="middle" x="44" y="-63.5" font-family="Helvetica,sans-Serif" font-size="10.00" fill="#000000">riversim.hpp</text>
</a>
</g>
</g>
<!-- Node2&#45;&gt;Node4 -->
<g id="edge7" class="edge">
<title>Node2&#45;&gt;Node4</title>
<path fill="none" stroke="#191970" d="M24.7606,-215.1421C14.1432,-190.8578 -.4324,-147.5486 11,-112 15.5738,-97.7779 26.35,-84.2277 34.3508,-75.5654"/>
<polygon fill="#191970" stroke="#191970" points="21.619,-216.6878 28.9812,-224.3069 27.9772,-213.7597 21.619,-216.6878"/>
</g>
<!-- Node6 -->
<g id="node5" class="node">
<title>Node6</title>
<g id="a_node5"><a xlink:href="tree_8hpp.html" target="_top" xlink:title="Holds all functionality that you need to work with tree(network) of river, its separate branches and ...">
<polygon fill="#ffffff" stroke="#000000" points="62.5,-168.5 62.5,-187.5 119.5,-187.5 119.5,-168.5 62.5,-168.5"/>
<text text-anchor="middle" x="91" y="-175.5" font-family="Helvetica,sans-Serif" font-size="10.00" fill="#000000">tree.hpp</text>
</a>
</g>
</g>
<!-- Node2&#45;&gt;Node6 -->
<g id="edge4" class="edge">
<title>Node2&#45;&gt;Node6</title>
<path fill="none" stroke="#191970" d="M51.2271,-217.0751C61.0341,-207.4402 72.964,-195.7196 81.1851,-187.6427"/>
<polygon fill="#191970" stroke="#191970" points="48.6091,-214.7406 43.9286,-224.2455 53.5149,-219.734 48.6091,-214.7406"/>
</g>
<!-- Node3&#45;&gt;Node4 -->
<g id="edge2" class="edge">
<title>Node3&#45;&gt;Node4</title>
<path fill="none" stroke="#191970" d="M44,-102.1575C44,-93.155 44,-82.9199 44,-75.6427"/>
<polygon fill="#191970" stroke="#191970" points="40.5001,-102.2455 44,-112.2455 47.5001,-102.2456 40.5001,-102.2455"/>
</g>
<!-- Node5 -->
<g id="node4" class="node">
<title>Node5</title>
<g id="a_node4"><a xlink:href="main_8cpp.html" target="_top" xlink:title="Entry point of program and main loop handler. ">
<polygon fill="#ffffff" stroke="#000000" points="13,-.5 13,-19.5 75,-19.5 75,-.5 13,-.5"/>
<text text-anchor="middle" x="44" y="-7.5" font-family="Helvetica,sans-Serif" font-size="10.00" fill="#000000">main.cpp</text>
</a>
</g>
</g>
<!-- Node4&#45;&gt;Node5 -->
<g id="edge3" class="edge">
<title>Node4&#45;&gt;Node5</title>
<path fill="none" stroke="#191970" d="M44,-46.1575C44,-37.155 44,-26.9199 44,-19.6427"/>
<polygon fill="#191970" stroke="#191970" points="40.5001,-46.2455 44,-56.2455 47.5001,-46.2456 40.5001,-46.2455"/>
</g>
<!-- Node6&#45;&gt;Node3 -->
<g id="edge5" class="edge">
<title>Node6&#45;&gt;Node3</title>
<path fill="none" stroke="#191970" d="M76.3128,-160.5004C68.3204,-150.9775 58.7375,-139.5596 52.093,-131.6427"/>
<polygon fill="#191970" stroke="#191970" points="73.7036,-162.8358 82.8132,-168.2455 79.0654,-158.3357 73.7036,-162.8358"/>
</g>
<!-- Node6&#45;&gt;Node4 -->
<g id="edge6" class="edge">
<title>Node6&#45;&gt;Node4</title>
<path fill="none" stroke="#191970" d="M88.9583,-158.1384C87.0596,-144.6809 83.5035,-126.7343 77,-112 70.9675,-98.3326 60.4648,-84.6785 52.927,-75.8401"/>
<polygon fill="#191970" stroke="#191970" points="85.5029,-158.717 90.1917,-168.2178 92.4511,-157.8666 85.5029,-158.717"/>
</g>
</g>
</svg>
