<?xml version="1.0" encoding="UTF-8" standalone="no"?>
<!DOCTYPE svg PUBLIC "-//W3C//DTD SVG 1.1//EN"
 "http://www.w3.org/Graphics/SVG/1.1/DTD/svg11.dtd">
<!-- Generated by graphviz version 2.43.0 (0)
 -->
<!-- Title: boundary.hpp Pages: 1 -->
<svg width="336pt" height="308pt"
 viewBox="0.00 0.00 336.00 308.00" xmlns="http://www.w3.org/2000/svg" xmlns:xlink="http://www.w3.org/1999/xlink">
<g id="graph0" class="graph" transform="scale(1 1) rotate(0) translate(4 304)">
<title>boundary.hpp</title>
<polygon fill="white" stroke="transparent" points="-4,4 -4,-304 332,-304 332,4 -4,4"/>
<!-- Node1 -->
<g id="node1" class="node">
<title>Node1</title>
<g id="a_node1"><a xlink:title="Generate initial predefinide boundary geometry and its source positions.">
<polygon fill="#bfbfbf" stroke="black" points="116,-280.5 116,-299.5 198,-299.5 198,-280.5 116,-280.5"/>
<text text-anchor="middle" x="157" y="-287.5" font-family="Helvetica,sans-Serif" font-size="10.00">boundary.hpp</text>
</a>
</g>
</g>
<!-- Node2 -->
<g id="node2" class="node">
<title>Node2</title>
<g id="a_node2"><a xlink:href="rivers_8hpp.html" target="_top" xlink:title="Holds all functionality that you need to work with tree(network) of river, its separate branches and ...">
<polygon fill="white" stroke="black" points="32.5,-224.5 32.5,-243.5 97.5,-243.5 97.5,-224.5 32.5,-224.5"/>
<text text-anchor="middle" x="65" y="-231.5" font-family="Helvetica,sans-Serif" font-size="10.00">rivers.hpp</text>
</a>
</g>
</g>
<!-- Node1&#45;&gt;Node2 -->
<g id="edge1" class="edge">
<title>Node1&#45;&gt;Node2</title>
<path fill="none" stroke="midnightblue" d="M133.45,-275.18C116.52,-265.24 94.22,-252.15 79.74,-243.65"/>
<polygon fill="midnightblue" stroke="midnightblue" points="131.82,-278.28 142.22,-280.32 135.37,-272.24 131.82,-278.28"/>
</g>
<!-- Node8 -->
<g id="node8" class="node">
<title>Node8</title>
<g id="a_node8"><a xlink:href="solver_8hpp.html" target="_top" xlink:title="PDE Solver and Integration tool.">
<polygon fill="white" stroke="black" points="124,-168.5 124,-187.5 192,-187.5 192,-168.5 124,-168.5"/>
<text text-anchor="middle" x="158" y="-175.5" font-family="Helvetica,sans-Serif" font-size="10.00">solver.hpp</text>
</a>
</g>
</g>
<!-- Node1&#45;&gt;Node8 -->
<g id="edge9" class="edge">
<title>Node1&#45;&gt;Node8</title>
<path fill="none" stroke="midnightblue" d="M150.92,-270.58C147.36,-257.6 143.93,-239.78 146,-224 147.68,-211.17 151.95,-196.8 154.91,-187.83"/>
<polygon fill="midnightblue" stroke="midnightblue" points="147.58,-271.64 153.82,-280.2 154.28,-269.62 147.58,-271.64"/>
</g>
<!-- Node9 -->
<g id="node9" class="node">
<title>Node9</title>
<g id="a_node9"><a xlink:href="tethex_8hpp.html" target="_top" xlink:title="Classes for holding mesh and converting by splitting triangles to quadrangles.">
<polygon fill="white" stroke="black" points="154.5,-224.5 154.5,-243.5 223.5,-243.5 223.5,-224.5 154.5,-224.5"/>
<text text-anchor="middle" x="189" y="-231.5" font-family="Helvetica,sans-Serif" font-size="10.00">tethex.hpp</text>
</a>
</g>
</g>
<!-- Node1&#45;&gt;Node9 -->
<g id="edge11" class="edge">
<title>Node1&#45;&gt;Node9</title>
<path fill="none" stroke="midnightblue" d="M167.5,-271.27C172.97,-262.05 179.42,-251.17 183.81,-243.75"/>
<polygon fill="midnightblue" stroke="midnightblue" points="164.37,-269.7 162.28,-280.08 170.39,-273.26 164.37,-269.7"/>
</g>
<!-- Node11 -->
<g id="node11" class="node">
<title>Node11</title>
<g id="a_node11"><a xlink:href="triangle__c_8hpp_source.html" target="_top" xlink:title=" ">
<polygon fill="white" stroke="black" points="242,-224.5 242,-243.5 328,-243.5 328,-224.5 242,-224.5"/>
<text text-anchor="middle" x="285" y="-231.5" font-family="Helvetica,sans-Serif" font-size="10.00">triangle_c.hpp</text>
</a>
</g>
</g>
<!-- Node1&#45;&gt;Node11 -->
<g id="edge15" class="edge">
<title>Node1&#45;&gt;Node11</title>
<path fill="none" stroke="midnightblue" d="M186.62,-276.5C210.62,-266.38 243.78,-252.39 264.81,-243.52"/>
<polygon fill="midnightblue" stroke="midnightblue" points="185.14,-273.33 177.28,-280.44 187.86,-279.78 185.14,-273.33"/>
</g>
<!-- Node3 -->
<g id="node3" class="node">
<title>Node3</title>
<g id="a_node3"><a xlink:href="model_8hpp.html" target="_top" xlink:title="Contains all RiverSim program parameters.">
<polygon fill="white" stroke="black" points="67,-112.5 67,-131.5 135,-131.5 135,-112.5 67,-112.5"/>
<text text-anchor="middle" x="101" y="-119.5" font-family="Helvetica,sans-Serif" font-size="10.00">model.hpp</text>
</a>
</g>
</g>
<!-- Node2&#45;&gt;Node3 -->
<g id="edge2" class="edge">
<title>Node2&#45;&gt;Node3</title>
<path fill="none" stroke="midnightblue" d="M71,-214.67C78.87,-190.62 92.36,-149.39 98.19,-131.59"/>
<polygon fill="midnightblue" stroke="midnightblue" points="67.61,-213.78 67.82,-224.37 74.26,-215.95 67.61,-213.78"/>
</g>
<!-- Node7 -->
<g id="node7" class="node">
<title>Node7</title>
<g id="a_node7"><a xlink:href="region_8hpp_source.html" target="_top" xlink:title=" ">
<polygon fill="white" stroke="black" points="0,-168.5 0,-187.5 68,-187.5 68,-168.5 0,-168.5"/>
<text text-anchor="middle" x="34" y="-175.5" font-family="Helvetica,sans-Serif" font-size="10.00">region.hpp</text>
</a>
</g>
</g>
<!-- Node2&#45;&gt;Node7 -->
<g id="edge6" class="edge">
<title>Node2&#45;&gt;Node7</title>
<path fill="none" stroke="midnightblue" d="M54.82,-215.27C49.53,-206.05 43.28,-195.17 39.02,-187.75"/>
<polygon fill="midnightblue" stroke="midnightblue" points="51.87,-217.15 59.88,-224.08 57.94,-213.67 51.87,-217.15"/>
</g>
<!-- Node4 -->
<g id="node4" class="node">
<title>Node4</title>
<g id="a_node4"><a xlink:href="io_8hpp.html" target="_top" xlink:title="Contains functionality to read and write state of program(simulation data) and program options.">
<polygon fill="white" stroke="black" points="82.5,-56.5 82.5,-75.5 129.5,-75.5 129.5,-56.5 82.5,-56.5"/>
<text text-anchor="middle" x="106" y="-63.5" font-family="Helvetica,sans-Serif" font-size="10.00">io.hpp</text>
</a>
</g>
</g>
<!-- Node3&#45;&gt;Node4 -->
<g id="edge3" class="edge">
<title>Node3&#45;&gt;Node4</title>
<path fill="none" stroke="midnightblue" d="M102.75,-102.1C103.58,-93.14 104.53,-82.86 105.19,-75.75"/>
<polygon fill="midnightblue" stroke="midnightblue" points="99.26,-101.8 101.83,-112.08 106.23,-102.45 99.26,-101.8"/>
</g>
<!-- Node6 -->
<g id="node6" class="node">
<title>Node6</title>
<g id="a_node6"><a xlink:href="river_8hpp_source.html" target="_top" xlink:title=" ">
<polygon fill="white" stroke="black" points="4,-56.5 4,-75.5 64,-75.5 64,-56.5 4,-56.5"/>
<text text-anchor="middle" x="34" y="-63.5" font-family="Helvetica,sans-Serif" font-size="10.00">river.hpp</text>
</a>
</g>
</g>
<!-- Node3&#45;&gt;Node6 -->
<g id="edge5" class="edge">
<title>Node3&#45;&gt;Node6</title>
<path fill="none" stroke="midnightblue" d="M82.17,-105.82C70.16,-96.15 55.03,-83.95 44.96,-75.83"/>
<polygon fill="midnightblue" stroke="midnightblue" points="80.25,-108.77 90.24,-112.32 84.65,-103.32 80.25,-108.77"/>
</g>
<!-- Node5 -->
<g id="node5" class="node">
<title>Node5</title>
<g id="a_node5"><a xlink:href="riversolver_8hpp_source.html" target="_top" xlink:title=" ">
<polygon fill="white" stroke="black" points="61,-0.5 61,-19.5 151,-19.5 151,-0.5 61,-0.5"/>
<text text-anchor="middle" x="106" y="-7.5" font-family="Helvetica,sans-Serif" font-size="10.00">riversolver.hpp</text>
</a>
</g>
</g>
<!-- Node4&#45;&gt;Node5 -->
<g id="edge4" class="edge">
<title>Node4&#45;&gt;Node5</title>
<path fill="none" stroke="midnightblue" d="M106,-45.8C106,-36.91 106,-26.78 106,-19.75"/>
<polygon fill="midnightblue" stroke="midnightblue" points="102.5,-46.08 106,-56.08 109.5,-46.08 102.5,-46.08"/>
</g>
<!-- Node7&#45;&gt;Node3 -->
<g id="edge7" class="edge">
<title>Node7&#45;&gt;Node3</title>
<path fill="none" stroke="midnightblue" d="M52.83,-161.82C64.84,-152.15 79.97,-139.95 90.04,-131.83"/>
<polygon fill="midnightblue" stroke="midnightblue" points="50.35,-159.32 44.76,-168.32 54.75,-164.77 50.35,-159.32"/>
</g>
<!-- Node7&#45;&gt;Node6 -->
<g id="edge8" class="edge">
<title>Node7&#45;&gt;Node6</title>
<path fill="none" stroke="midnightblue" d="M34,-158.35C34,-134.25 34,-93.31 34,-75.59"/>
<polygon fill="midnightblue" stroke="midnightblue" points="30.5,-158.37 34,-168.37 37.5,-158.37 30.5,-158.37"/>
</g>
<!-- Node8&#45;&gt;Node3 -->
<g id="edge10" class="edge">
<title>Node8&#45;&gt;Node3</title>
<path fill="none" stroke="midnightblue" d="M141.38,-161.25C131.27,-151.67 118.72,-139.79 110.32,-131.83"/>
<polygon fill="midnightblue" stroke="midnightblue" points="139.18,-163.99 148.84,-168.32 143.99,-158.91 139.18,-163.99"/>
</g>
<!-- Node9&#45;&gt;Node8 -->
<g id="edge12" class="edge">
<title>Node9&#45;&gt;Node8</title>
<path fill="none" stroke="midnightblue" d="M178.82,-215.27C173.53,-206.05 167.28,-195.17 163.02,-187.75"/>
<polygon fill="midnightblue" stroke="midnightblue" points="175.87,-217.15 183.88,-224.08 181.94,-213.67 175.87,-217.15"/>
</g>
<!-- Node10 -->
<g id="node10" class="node">
<title>Node10</title>
<g id="a_node10"><a xlink:href="triangle_8hpp.html" target="_top" xlink:title="Mesh generation functionality.">
<polygon fill="white" stroke="black" points="210.5,-168.5 210.5,-187.5 285.5,-187.5 285.5,-168.5 210.5,-168.5"/>
<text text-anchor="middle" x="248" y="-175.5" font-family="Helvetica,sans-Serif" font-size="10.00">triangle.hpp</text>
</a>
</g>
</g>
<!-- Node9&#45;&gt;Node10 -->
<g id="edge13" class="edge">
<title>Node9&#45;&gt;Node10</title>
<path fill="none" stroke="midnightblue" d="M205.89,-217.54C216.41,-207.91 229.57,-195.87 238.35,-187.83"/>
<polygon fill="midnightblue" stroke="midnightblue" points="203.49,-214.99 198.48,-224.32 208.22,-220.15 203.49,-214.99"/>
</g>
<!-- Node10&#45;&gt;Node3 -->
<g id="edge14" class="edge">
<title>Node10&#45;&gt;Node3</title>
<path fill="none" stroke="midnightblue" d="M215.08,-164.91C187.44,-154.75 148.66,-140.51 124.18,-131.52"/>
<polygon fill="midnightblue" stroke="midnightblue" points="214.11,-168.28 224.71,-168.44 216.53,-161.71 214.11,-168.28"/>
</g>
<!-- Node11&#45;&gt;Node10 -->
<g id="edge16" class="edge">
<title>Node11&#45;&gt;Node10</title>
<path fill="none" stroke="midnightblue" d="M273.05,-215.57C266.69,-206.27 259.13,-195.25 254,-187.75"/>
<polygon fill="midnightblue" stroke="midnightblue" points="270.35,-217.81 278.89,-224.08 276.13,-213.86 270.35,-217.81"/>
</g>
</g>
</svg>
