<?xml version="1.0" encoding="UTF-8" standalone="no"?>
<!DOCTYPE svg PUBLIC "-//W3C//DTD SVG 1.1//EN"
 "http://www.w3.org/Graphics/SVG/1.1/DTD/svg11.dtd">
<!-- Generated by graphviz version 2.40.1 (20161225.0304)
 -->
<!-- Title: nlohmann::basic_json::push_back Pages: 1 -->
<svg width="266pt" height="39pt"
 viewBox="0.00 0.00 266.00 39.00" xmlns="http://www.w3.org/2000/svg" xmlns:xlink="http://www.w3.org/1999/xlink">
<g id="graph0" class="graph" transform="scale(1 1) rotate(0) translate(4 35)">
<title>nlohmann::basic_json::push_back</title>
<polygon fill="#ffffff" stroke="transparent" points="-4,4 -4,-35 262,-35 262,4 -4,4"/>
<!-- Node350 -->
<g id="node1" class="node">
<title>Node350</title>
<polygon fill="#bfbfbf" stroke="#000000" points="0,-.5 0,-30.5 111,-30.5 111,-.5 0,-.5"/>
<text text-anchor="start" x="8" y="-18.5" font-family="Helvetica,sans-Serif" font-size="10.00" fill="#000000">nlohmann::basic_json</text>
<text text-anchor="middle" x="55.5" y="-7.5" font-family="Helvetica,sans-Serif" font-size="10.00" fill="#000000">::push_back</text>
</g>
<!-- Node351 -->
<g id="node2" class="node">
<title>Node351</title>
<g id="a_node2"><a xlink:href="classnlohmann_1_1basic__json.html#afbd800010b67619463c0fce6e74f7878" target="_top" xlink:title="get a reference value (implicit) ">
<polygon fill="#ffffff" stroke="#000000" points="147,-.5 147,-30.5 258,-30.5 258,-.5 147,-.5"/>
<text text-anchor="start" x="155" y="-18.5" font-family="Helvetica,sans-Serif" font-size="10.00" fill="#000000">nlohmann::basic_json</text>
<text text-anchor="middle" x="202.5" y="-7.5" font-family="Helvetica,sans-Serif" font-size="10.00" fill="#000000">::get_ref</text>
</a>
</g>
</g>
<!-- Node350&#45;&gt;Node351 -->
<g id="edge1" class="edge">
<title>Node350&#45;&gt;Node351</title>
<path fill="none" stroke="#191970" d="M111.0744,-15.5C119.4894,-15.5 128.2383,-15.5 136.8421,-15.5"/>
<polygon fill="#191970" stroke="#191970" points="136.8471,-19.0001 146.847,-15.5 136.847,-12.0001 136.8471,-19.0001"/>
</g>
</g>
</svg>
