<?xml version="1.0" encoding="UTF-8" standalone="no"?>
<!DOCTYPE svg PUBLIC "-//W3C//DTD SVG 1.1//EN"
 "http://www.w3.org/Graphics/SVG/1.1/DTD/svg11.dtd">
<!-- Generated by graphviz version 2.40.1 (20161225.0304)
 -->
<!-- Title: River::Point::angle Pages: 1 -->
<svg width="269pt" height="78pt"
 viewBox="0.00 0.00 269.00 77.50" xmlns="http://www.w3.org/2000/svg" xmlns:xlink="http://www.w3.org/1999/xlink">
<g id="graph0" class="graph" transform="scale(1 1) rotate(0) translate(4 73.5)">
<title>River::Point::angle</title>
<polygon fill="#ffffff" stroke="transparent" points="-4,4 -4,-73.5 265,-73.5 265,4 -4,4"/>
<!-- Node43 -->
<g id="node1" class="node">
<title>Node43</title>
<polygon fill="#bfbfbf" stroke="#000000" points="0,-22.5 0,-41.5 98,-41.5 98,-22.5 0,-22.5"/>
<text text-anchor="middle" x="49" y="-29.5" font-family="Helvetica,sans-Serif" font-size="10.00" fill="#000000">River::Point::angle</text>
</g>
<!-- Node44 -->
<g id="node2" class="node">
<title>Node44</title>
<g id="a_node2"><a xlink:href="classRiver_1_1Border.html#ad884663725156885e8e5def07a2e49c1" target="_top" xlink:title="Return normal line angle to boundary at point where is located source with source_id ...">
<polygon fill="#ffffff" stroke="#000000" points="134,-39 134,-69 261,-69 261,-39 134,-39"/>
<text text-anchor="start" x="142" y="-57" font-family="Helvetica,sans-Serif" font-size="10.00" fill="#000000">River::Border::GetSource</text>
<text text-anchor="middle" x="197.5" y="-46" font-family="Helvetica,sans-Serif" font-size="10.00" fill="#000000">NormalAngle</text>
</a>
</g>
</g>
<!-- Node43&#45;&gt;Node44 -->
<g id="edge1" class="edge">
<title>Node43&#45;&gt;Node44</title>
<path fill="none" stroke="#191970" d="M108.1974,-40.77C116.6644,-42.0244 125.404,-43.3191 133.9505,-44.5853"/>
<polygon fill="#191970" stroke="#191970" points="108.441,-37.268 98.036,-39.2646 107.4151,-44.1924 108.441,-37.268"/>
</g>
<!-- Node45 -->
<g id="node3" class="node">
<title>Node45</title>
<g id="a_node3"><a xlink:href="classRiver_1_1Point.html#a5a80f76067f92be8434cafff8cf55380" target="_top" xlink:title="Returns Polar representation of vector. ">
<polygon fill="#ffffff" stroke="#000000" points="142.5,-.5 142.5,-19.5 252.5,-19.5 252.5,-.5 142.5,-.5"/>
<text text-anchor="middle" x="197.5" y="-7.5" font-family="Helvetica,sans-Serif" font-size="10.00" fill="#000000">River::Point::getPolar</text>
</a>
</g>
</g>
<!-- Node43&#45;&gt;Node45 -->
<g id="edge2" class="edge">
<title>Node43&#45;&gt;Node45</title>
<path fill="none" stroke="#191970" d="M108.2138,-23.2276C119.4781,-21.5588 131.2243,-19.8186 142.3558,-18.1695"/>
<polygon fill="#191970" stroke="#191970" points="107.4151,-19.8076 98.036,-24.7354 108.441,-26.732 107.4151,-19.8076"/>
</g>
</g>
</svg>
