<?xml version="1.0" encoding="UTF-8" standalone="no"?>
<!DOCTYPE svg PUBLIC "-//W3C//DTD SVG 1.1//EN"
 "http://www.w3.org/Graphics/SVG/1.1/DTD/svg11.dtd">
<!-- Generated by graphviz version 2.40.1 (20161225.0304)
 -->
<!-- Title: nlohmann::detail::json_reverse_iterator&lt; Base &gt; Pages: 1 -->
<svg width="138pt" height="314pt"
 viewBox="0.00 0.00 138.00 314.00" xmlns="http://www.w3.org/2000/svg" xmlns:xlink="http://www.w3.org/1999/xlink">
<g id="graph0" class="graph" transform="scale(1 1) rotate(0) translate(4 310)">
<title>nlohmann::detail::json_reverse_iterator&lt; Base &gt;</title>
<polygon fill="#ffffff" stroke="transparent" points="-4,4 -4,-310 134,-310 134,4 -4,4"/>
<!-- Node0 -->
<g id="node1" class="node">
<title>Node0</title>
<polygon fill="#bfbfbf" stroke="#000000" points="0,-.5 0,-200.5 130,-200.5 130,-.5 0,-.5"/>
<text text-anchor="start" x="8" y="-188.5" font-family="Helvetica,sans-Serif" font-size="10.00" fill="#000000">nlohmann::detail::json</text>
<text text-anchor="middle" x="65" y="-177.5" font-family="Helvetica,sans-Serif" font-size="10.00" fill="#000000">_reverse_iterator&lt; Base &gt;</text>
<polyline fill="none" stroke="#000000" points="0,-170.5 130,-170.5 "/>
<text text-anchor="middle" x="65" y="-158.5" font-family="Helvetica,sans-Serif" font-size="10.00" fill="#000000"> </text>
<polyline fill="none" stroke="#000000" points="0,-151.5 130,-151.5 "/>
<text text-anchor="start" x="8" y="-139.5" font-family="Helvetica,sans-Serif" font-size="10.00" fill="#000000">+ json_reverse_iterator()</text>
<text text-anchor="start" x="8" y="-128.5" font-family="Helvetica,sans-Serif" font-size="10.00" fill="#000000">+ json_reverse_iterator()</text>
<text text-anchor="start" x="8" y="-117.5" font-family="Helvetica,sans-Serif" font-size="10.00" fill="#000000">+ operator++()</text>
<text text-anchor="start" x="8" y="-106.5" font-family="Helvetica,sans-Serif" font-size="10.00" fill="#000000">+ operator++()</text>
<text text-anchor="start" x="8" y="-95.5" font-family="Helvetica,sans-Serif" font-size="10.00" fill="#000000">+ operator&#45;&#45;()</text>
<text text-anchor="start" x="8" y="-84.5" font-family="Helvetica,sans-Serif" font-size="10.00" fill="#000000">+ operator&#45;&#45;()</text>
<text text-anchor="start" x="8" y="-73.5" font-family="Helvetica,sans-Serif" font-size="10.00" fill="#000000">+ operator+=()</text>
<text text-anchor="start" x="8" y="-62.5" font-family="Helvetica,sans-Serif" font-size="10.00" fill="#000000">+ operator+()</text>
<text text-anchor="start" x="8" y="-51.5" font-family="Helvetica,sans-Serif" font-size="10.00" fill="#000000">+ operator&#45;()</text>
<text text-anchor="start" x="8" y="-40.5" font-family="Helvetica,sans-Serif" font-size="10.00" fill="#000000">+ operator&#45;()</text>
<text text-anchor="start" x="8" y="-29.5" font-family="Helvetica,sans-Serif" font-size="10.00" fill="#000000">+ operator[]()</text>
<text text-anchor="start" x="8" y="-18.5" font-family="Helvetica,sans-Serif" font-size="10.00" fill="#000000">+ key()</text>
<text text-anchor="start" x="8" y="-7.5" font-family="Helvetica,sans-Serif" font-size="10.00" fill="#000000">+ value()</text>
</g>
<!-- Node1 -->
<g id="node2" class="node">
<title>Node1</title>
<polygon fill="#ffffff" stroke="#bfbfbf" points="13,-237.5 13,-305.5 117,-305.5 117,-237.5 13,-237.5"/>
<text text-anchor="start" x="21" y="-293.5" font-family="Helvetica,sans-Serif" font-size="10.00" fill="#000000">std::reverse_iterator</text>
<text text-anchor="middle" x="65" y="-282.5" font-family="Helvetica,sans-Serif" font-size="10.00" fill="#000000">&lt; Base &gt;</text>
<polyline fill="none" stroke="#bfbfbf" points="13,-275.5 117,-275.5 "/>
<text text-anchor="middle" x="65" y="-263.5" font-family="Helvetica,sans-Serif" font-size="10.00" fill="#000000"> </text>
<polyline fill="none" stroke="#bfbfbf" points="13,-256.5 117,-256.5 "/>
<text text-anchor="middle" x="65" y="-244.5" font-family="Helvetica,sans-Serif" font-size="10.00" fill="#000000"> </text>
</g>
<!-- Node1&#45;&gt;Node0 -->
<g id="edge1" class="edge">
<title>Node1&#45;&gt;Node0</title>
<path fill="none" stroke="#191970" d="M65,-227.1502C65,-218.816 65,-209.7968 65,-200.5434"/>
<polygon fill="none" stroke="#191970" points="61.5001,-227.3065 65,-237.3066 68.5001,-227.3066 61.5001,-227.3065"/>
</g>
</g>
</svg>
