<?xml version="1.0" encoding="UTF-8" standalone="no"?>
<!DOCTYPE svg PUBLIC "-//W3C//DTD SVG 1.1//EN"
 "http://www.w3.org/Graphics/SVG/1.1/DTD/svg11.dtd">
<!-- Generated by graphviz version 2.40.1 (20161225.0304)
 -->
<!-- Title: tethex::Mesh::set_vertexes Pages: 1 -->
<svg width="722pt" height="104pt"
 viewBox="0.00 0.00 722.00 104.00" xmlns="http://www.w3.org/2000/svg" xmlns:xlink="http://www.w3.org/1999/xlink">
<g id="graph0" class="graph" transform="scale(1 1) rotate(0) translate(4 100)">
<title>tethex::Mesh::set_vertexes</title>
<polygon fill="#ffffff" stroke="transparent" points="-4,4 -4,-100 718,-100 718,4 -4,4"/>
<!-- Node180 -->
<g id="node1" class="node">
<title>Node180</title>
<polygon fill="#bfbfbf" stroke="#000000" points="0,-54.5 0,-73.5 136,-73.5 136,-54.5 0,-54.5"/>
<text text-anchor="middle" x="68" y="-61.5" font-family="Helvetica,sans-Serif" font-size="10.00" fill="#000000">tethex::Mesh::set_vertexes</text>
</g>
<!-- Node181 -->
<g id="node2" class="node">
<title>Node181</title>
<g id="a_node2"><a xlink:href="classRiver_1_1Border.html#a15c063e3c9acabf547dfa4b2d815c42d" target="_top" xlink:title="Initializes Border::borderMesh object of type tethex::Mesh by setting lines and vertices to rectangul...">
<polygon fill="#ffffff" stroke="#000000" points="302,-76.5 302,-95.5 459,-95.5 459,-76.5 302,-76.5"/>
<text text-anchor="middle" x="380.5" y="-83.5" font-family="Helvetica,sans-Serif" font-size="10.00" fill="#000000">River::Border::MakeRectangular</text>
</a>
</g>
</g>
<!-- Node180&#45;&gt;Node181 -->
<g id="edge1" class="edge">
<title>Node180&#45;&gt;Node181</title>
<path fill="none" stroke="#191970" d="M146.4398,-69.5222C193.9815,-72.8691 254.4278,-77.1245 301.9834,-80.4724"/>
<polygon fill="#191970" stroke="#191970" points="146.4144,-66.0118 136.1933,-68.8008 145.9228,-72.9945 146.4144,-66.0118"/>
</g>
<!-- Node183 -->
<g id="node4" class="node">
<title>Node183</title>
<g id="a_node4"><a xlink:href="classRiver_1_1Triangle.html#ace837080fe12b6a062b3256288885d74" target="_top" xlink:title="River::Triangle::io\l_to_tethex">
<polygon fill="#ffffff" stroke="#000000" points="172,-27 172,-57 266,-57 266,-27 172,-27"/>
<text text-anchor="start" x="180" y="-45" font-family="Helvetica,sans-Serif" font-size="10.00" fill="#000000">River::Triangle::io</text>
<text text-anchor="middle" x="219" y="-34" font-family="Helvetica,sans-Serif" font-size="10.00" fill="#000000">_to_tethex</text>
</a>
</g>
</g>
<!-- Node180&#45;&gt;Node183 -->
<g id="edge3" class="edge">
<title>Node180&#45;&gt;Node183</title>
<path fill="none" stroke="#191970" d="M143.3934,-53.0155C153.0548,-51.6079 162.7185,-50.2 171.7517,-48.8839"/>
<polygon fill="#191970" stroke="#191970" points="142.7435,-49.5732 133.3526,-54.4784 143.7527,-56.5001 142.7435,-49.5732"/>
</g>
<!-- Node182 -->
<g id="node3" class="node">
<title>Node182</title>
<g id="a_node3"><a xlink:href="main_8cpp.html#a0ddf1224851353fc92bfbff6f499fa97" target="_top" xlink:title="Entry point of RiverSim program. ">
<polygon fill="#ffffff" stroke="#000000" points="676,-38.5 676,-57.5 714,-57.5 714,-38.5 676,-38.5"/>
<text text-anchor="middle" x="695" y="-45.5" font-family="Helvetica,sans-Serif" font-size="10.00" fill="#000000">main</text>
</a>
</g>
</g>
<!-- Node181&#45;&gt;Node182 -->
<g id="edge2" class="edge">
<title>Node181&#45;&gt;Node182</title>
<path fill="none" stroke="#191970" d="M469.344,-79.6409C519.6086,-75.4077 583.5212,-68.9603 640,-60 651.9691,-58.1011 665.2472,-55.2263 675.758,-52.7666"/>
<polygon fill="#191970" stroke="#191970" points="468.8336,-76.1711 459.1565,-80.4844 469.4112,-83.1472 468.8336,-76.1711"/>
</g>
<!-- Node184 -->
<g id="node5" class="node">
<title>Node184</title>
<g id="a_node5"><a xlink:href="classRiver_1_1Triangle.html#a0dae20b40d446e6009a88543e2c14daf" target="_top" xlink:title="River::Triangle::generate">
<polygon fill="#ffffff" stroke="#000000" points="318.5,-32.5 318.5,-51.5 442.5,-51.5 442.5,-32.5 318.5,-32.5"/>
<text text-anchor="middle" x="380.5" y="-39.5" font-family="Helvetica,sans-Serif" font-size="10.00" fill="#000000">River::Triangle::generate</text>
</a>
</g>
</g>
<!-- Node183&#45;&gt;Node184 -->
<g id="edge4" class="edge">
<title>Node183&#45;&gt;Node184</title>
<path fill="none" stroke="#191970" d="M276.3215,-42C289.9117,-42 304.4712,-42 318.2683,-42"/>
<polygon fill="#191970" stroke="#191970" points="276.1467,-38.5001 266.1466,-42 276.1466,-45.5001 276.1467,-38.5001"/>
</g>
<!-- Node184&#45;&gt;Node182 -->
<g id="edge5" class="edge">
<title>Node184&#45;&gt;Node182</title>
<path fill="none" stroke="#191970" d="M453.0771,-43.3846C525.6139,-44.7685 632.4026,-46.8058 675.7043,-47.6319"/>
<polygon fill="#191970" stroke="#191970" points="452.7001,-39.8769 442.6351,-43.1854 452.5665,-46.8756 452.7001,-39.8769"/>
</g>
<!-- Node185 -->
<g id="node6" class="node">
<title>Node185</title>
<g id="a_node6"><a xlink:href="namespaceRiver.html#a494b68e2992de95500d6d81770de62ed" target="_top" xlink:title="River::ForwardRiverEvolution">
<polygon fill="#ffffff" stroke="#000000" points="495,-.5 495,-19.5 640,-19.5 640,-.5 495,-.5"/>
<text text-anchor="middle" x="567.5" y="-7.5" font-family="Helvetica,sans-Serif" font-size="10.00" fill="#000000">River::ForwardRiverEvolution</text>
</a>
</g>
</g>
<!-- Node184&#45;&gt;Node185 -->
<g id="edge6" class="edge">
<title>Node184&#45;&gt;Node185</title>
<path fill="none" stroke="#191970" d="M446.1056,-30.7734C467.5494,-27.1038 491.148,-23.0656 511.7915,-19.533"/>
<polygon fill="#191970" stroke="#191970" points="445.3662,-27.3489 436.0999,-32.4856 446.547,-34.2486 445.3662,-27.3489"/>
</g>
<!-- Node185&#45;&gt;Node182 -->
<g id="edge7" class="edge">
<title>Node185&#45;&gt;Node182</title>
<path fill="none" stroke="#191970" d="M609.3311,-22.4673C631.7927,-29.1617 658.3879,-37.0882 675.9206,-42.3136"/>
<polygon fill="#191970" stroke="#191970" points="610.2568,-19.0911 599.6736,-19.589 608.2573,-25.7995 610.2568,-19.0911"/>
</g>
</g>
</svg>
