<?xml version="1.0" encoding="UTF-8" standalone="no"?>
<!DOCTYPE svg PUBLIC "-//W3C//DTD SVG 1.1//EN"
 "http://www.w3.org/Graphics/SVG/1.1/DTD/svg11.dtd">
<!-- Generated by graphviz version 2.40.1 (20161225.0304)
 -->
<!-- Title: nlohmann::basic_json::erase Pages: 1 -->
<svg width="440pt" height="88pt"
 viewBox="0.00 0.00 440.00 88.00" xmlns="http://www.w3.org/2000/svg" xmlns:xlink="http://www.w3.org/1999/xlink">
<g id="graph0" class="graph" transform="scale(1 1) rotate(0) translate(4 84)">
<title>nlohmann::basic_json::erase</title>
<polygon fill="#ffffff" stroke="transparent" points="-4,4 -4,-84 436,-84 436,4 -4,4"/>
<!-- Node254 -->
<g id="node1" class="node">
<title>Node254</title>
<polygon fill="#bfbfbf" stroke="#000000" points="0,-24.5 0,-54.5 111,-54.5 111,-24.5 0,-24.5"/>
<text text-anchor="start" x="8" y="-42.5" font-family="Helvetica,sans-Serif" font-size="10.00" fill="#000000">nlohmann::basic_json</text>
<text text-anchor="middle" x="55.5" y="-31.5" font-family="Helvetica,sans-Serif" font-size="10.00" fill="#000000">::erase</text>
</g>
<!-- Node255 -->
<g id="node2" class="node">
<title>Node255</title>
<g id="a_node2"><a xlink:href="classnlohmann_1_1detail_1_1out__of__range.html#a3f6d82a6f967c4728a1ec735a7867073" target="_top" xlink:title="nlohmann::detail::out\l_of_range::create">
<polygon fill="#ffffff" stroke="#000000" points="150,-49.5 150,-79.5 257,-79.5 257,-49.5 150,-49.5"/>
<text text-anchor="start" x="158" y="-67.5" font-family="Helvetica,sans-Serif" font-size="10.00" fill="#000000">nlohmann::detail::out</text>
<text text-anchor="middle" x="203.5" y="-56.5" font-family="Helvetica,sans-Serif" font-size="10.00" fill="#000000">_of_range::create</text>
</a>
</g>
</g>
<!-- Node254&#45;&gt;Node255 -->
<g id="edge1" class="edge">
<title>Node254&#45;&gt;Node255</title>
<path fill="none" stroke="#191970" d="M111.0308,-48.8802C120.3071,-50.4471 129.997,-52.0839 139.4652,-53.6833"/>
<polygon fill="#191970" stroke="#191970" points="139.1788,-57.1844 149.6221,-55.399 140.3448,-50.2822 139.1788,-57.1844"/>
</g>
<!-- Node257 -->
<g id="node4" class="node">
<title>Node257</title>
<g id="a_node4"><a xlink:href="classnlohmann_1_1detail_1_1type__error.html#aecc083aea4b698c33d042670ba50c10f" target="_top" xlink:title="nlohmann::detail::type\l_error::create">
<polygon fill="#ffffff" stroke="#000000" points="147,-.5 147,-30.5 260,-30.5 260,-.5 147,-.5"/>
<text text-anchor="start" x="155" y="-18.5" font-family="Helvetica,sans-Serif" font-size="10.00" fill="#000000">nlohmann::detail::type</text>
<text text-anchor="middle" x="203.5" y="-7.5" font-family="Helvetica,sans-Serif" font-size="10.00" fill="#000000">_error::create</text>
</a>
</g>
</g>
<!-- Node254&#45;&gt;Node257 -->
<g id="edge3" class="edge">
<title>Node254&#45;&gt;Node257</title>
<path fill="none" stroke="#191970" d="M111.0308,-30.495C119.4022,-29.1375 128.1106,-27.7253 136.6888,-26.3342"/>
<polygon fill="#191970" stroke="#191970" points="137.3604,-29.7711 146.6712,-24.7155 136.2399,-22.8614 137.3604,-29.7711"/>
</g>
<!-- Node256 -->
<g id="node3" class="node">
<title>Node256</title>
<g id="a_node3"><a xlink:href="classnlohmann_1_1detail_1_1exception.html#abf41a7e9178356314082284e6cfea278" target="_top" xlink:title="nlohmann::detail::exception\l::name">
<polygon fill="#ffffff" stroke="#000000" points="296,-24.5 296,-54.5 432,-54.5 432,-24.5 296,-24.5"/>
<text text-anchor="start" x="304" y="-42.5" font-family="Helvetica,sans-Serif" font-size="10.00" fill="#000000">nlohmann::detail::exception</text>
<text text-anchor="middle" x="364" y="-31.5" font-family="Helvetica,sans-Serif" font-size="10.00" fill="#000000">::name</text>
</a>
</g>
</g>
<!-- Node255&#45;&gt;Node256 -->
<g id="edge2" class="edge">
<title>Node255&#45;&gt;Node256</title>
<path fill="none" stroke="#191970" d="M257.3907,-56.1058C266.5829,-54.674 276.2941,-53.1613 285.9626,-51.6554"/>
<polygon fill="#191970" stroke="#191970" points="286.6568,-55.0895 295.999,-50.0921 285.5794,-48.1729 286.6568,-55.0895"/>
</g>
<!-- Node257&#45;&gt;Node256 -->
<g id="edge4" class="edge">
<title>Node257&#45;&gt;Node256</title>
<path fill="none" stroke="#191970" d="M260.0863,-23.9615C268.3895,-25.2031 277.0638,-26.5002 285.7078,-27.7928"/>
<polygon fill="#191970" stroke="#191970" points="285.4095,-31.287 295.8172,-29.3044 286.4448,-24.364 285.4095,-31.287"/>
</g>
</g>
</svg>
