<?xml version="1.0" encoding="UTF-8" standalone="no"?>
<!DOCTYPE svg PUBLIC "-//W3C//DTD SVG 1.1//EN"
 "http://www.w3.org/Graphics/SVG/1.1/DTD/svg11.dtd">
<!-- Generated by graphviz version 2.40.1 (20161225.0304)
 -->
<!-- Title: River::Branch::Branch Pages: 1 -->
<svg width="937pt" height="83pt"
 viewBox="0.00 0.00 937.00 83.00" xmlns="http://www.w3.org/2000/svg" xmlns:xlink="http://www.w3.org/1999/xlink">
<g id="graph0" class="graph" transform="scale(1 1) rotate(0) translate(4 79)">
<title>River::Branch::Branch</title>
<polygon fill="#ffffff" stroke="transparent" points="-4,4 -4,-79 933,-79 933,4 -4,4"/>
<!-- Node3 -->
<g id="node1" class="node">
<title>Node3</title>
<polygon fill="#bfbfbf" stroke="#000000" points="0,-28 0,-47 113,-47 113,-28 0,-28"/>
<text text-anchor="middle" x="56.5" y="-35" font-family="Helvetica,sans-Serif" font-size="10.00" fill="#000000">River::Branch::Branch</text>
</g>
<!-- Node4 -->
<g id="node2" class="node">
<title>Node4</title>
<g id="a_node2"><a xlink:href="classRiver_1_1Geometry.html#a0c430d5eb103fe6016b805dc5278d247" target="_top" xlink:title="River::Geometry::initiate\lRootBranch">
<polygon fill="#ffffff" stroke="#000000" points="168,-44.5 168,-74.5 291,-74.5 291,-44.5 168,-44.5"/>
<text text-anchor="start" x="176" y="-62.5" font-family="Helvetica,sans-Serif" font-size="10.00" fill="#000000">River::Geometry::initiate</text>
<text text-anchor="middle" x="229.5" y="-51.5" font-family="Helvetica,sans-Serif" font-size="10.00" fill="#000000">RootBranch</text>
</a>
</g>
</g>
<!-- Node3&#45;&gt;Node4 -->
<g id="edge1" class="edge">
<title>Node3&#45;&gt;Node4</title>
<path fill="none" stroke="#191970" d="M123.1877,-45.9805C137.9106,-47.8528 153.4428,-49.828 167.951,-51.673"/>
<polygon fill="#191970" stroke="#191970" points="123.5083,-42.4932 113.1467,-44.7036 122.6252,-49.4373 123.5083,-42.4932"/>
</g>
<!-- Node5 -->
<g id="node3" class="node">
<title>Node5</title>
<g id="a_node3"><a xlink:href="classRiver_1_1Geometry.html#a2e00a634a0e948570540a2ab47335478" target="_top" xlink:title="River::Geometry::AddBiffurcation">
<polygon fill="#ffffff" stroke="#000000" points="149,-6 149,-25 310,-25 310,-6 149,-6"/>
<text text-anchor="middle" x="229.5" y="-13" font-family="Helvetica,sans-Serif" font-size="10.00" fill="#000000">River::Geometry::AddBiffurcation</text>
</a>
</g>
</g>
<!-- Node3&#45;&gt;Node5 -->
<g id="edge2" class="edge">
<title>Node3&#45;&gt;Node5</title>
<path fill="none" stroke="#191970" d="M123.3022,-29.0049C133.6125,-27.6938 144.3171,-26.3325 154.7869,-25.0011"/>
<polygon fill="#191970" stroke="#191970" points="122.6252,-25.5627 113.1467,-30.2964 123.5083,-32.5068 122.6252,-25.5627"/>
</g>
<!-- Node6 -->
<g id="node4" class="node">
<title>Node6</title>
<g id="a_node4"><a xlink:href="namespaceRiver_1_1SimpleGeo.html#aaeaf0931007ed0bb3f04ffe517b90708" target="_top" xlink:title="River::SimpleGeo::AddBranches">
<polygon fill="#ffffff" stroke="#000000" points="346,-6 346,-25 504,-25 504,-6 346,-6"/>
<text text-anchor="middle" x="425" y="-13" font-family="Helvetica,sans-Serif" font-size="10.00" fill="#000000">River::SimpleGeo::AddBranches</text>
</a>
</g>
</g>
<!-- Node5&#45;&gt;Node6 -->
<g id="edge3" class="edge">
<title>Node5&#45;&gt;Node6</title>
<path fill="none" stroke="#191970" d="M320.151,-15.5C328.7158,-15.5 337.3536,-15.5 345.7997,-15.5"/>
<polygon fill="#191970" stroke="#191970" points="320.1461,-12.0001 310.146,-15.5 320.146,-19.0001 320.1461,-12.0001"/>
</g>
<!-- Node7 -->
<g id="node5" class="node">
<title>Node7</title>
<g id="a_node5"><a xlink:href="namespaceRiver_1_1SimpleGeo.html#ab6e4b434f7b71839df562edbc13ddb5b" target="_top" xlink:title="River::SimpleGeo::Custom\lRiverTree">
<polygon fill="#ffffff" stroke="#000000" points="540,-.5 540,-30.5 674,-30.5 674,-.5 540,-.5"/>
<text text-anchor="start" x="548" y="-18.5" font-family="Helvetica,sans-Serif" font-size="10.00" fill="#000000">River::SimpleGeo::Custom</text>
<text text-anchor="middle" x="607" y="-7.5" font-family="Helvetica,sans-Serif" font-size="10.00" fill="#000000">RiverTree</text>
</a>
</g>
</g>
<!-- Node6&#45;&gt;Node7 -->
<g id="edge4" class="edge">
<title>Node6&#45;&gt;Node7</title>
<path fill="none" stroke="#191970" d="M514.118,-15.5C522.7327,-15.5 531.37,-15.5 539.7208,-15.5"/>
<polygon fill="#191970" stroke="#191970" points="514.0339,-12.0001 504.0338,-15.5 514.0338,-19.0001 514.0339,-12.0001"/>
</g>
<!-- Node8 -->
<g id="node6" class="node">
<title>Node8</title>
<g id="a_node6"><a xlink:href="namespaceRiver.html#a494b68e2992de95500d6d81770de62ed" target="_top" xlink:title="River::ForwardRiverEvolution">
<polygon fill="#ffffff" stroke="#000000" points="710,-6 710,-25 855,-25 855,-6 710,-6"/>
<text text-anchor="middle" x="782.5" y="-13" font-family="Helvetica,sans-Serif" font-size="10.00" fill="#000000">River::ForwardRiverEvolution</text>
</a>
</g>
</g>
<!-- Node7&#45;&gt;Node8 -->
<g id="edge5" class="edge">
<title>Node7&#45;&gt;Node8</title>
<path fill="none" stroke="#191970" d="M684.3625,-15.5C692.847,-15.5 701.4628,-15.5 709.8868,-15.5"/>
<polygon fill="#191970" stroke="#191970" points="684.1003,-12.0001 674.1002,-15.5 684.1002,-19.0001 684.1003,-12.0001"/>
</g>
<!-- Node9 -->
<g id="node7" class="node">
<title>Node9</title>
<g id="a_node7"><a xlink:href="main_8cpp.html#a0ddf1224851353fc92bfbff6f499fa97" target="_top" xlink:title="Entry point of RiverSim program. ">
<polygon fill="#ffffff" stroke="#000000" points="891,-6 891,-25 929,-25 929,-6 891,-6"/>
<text text-anchor="middle" x="910" y="-13" font-family="Helvetica,sans-Serif" font-size="10.00" fill="#000000">main</text>
</a>
</g>
</g>
<!-- Node8&#45;&gt;Node9 -->
<g id="edge6" class="edge">
<title>Node8&#45;&gt;Node9</title>
<path fill="none" stroke="#191970" d="M865.2526,-15.5C874.7338,-15.5 883.5978,-15.5 890.8947,-15.5"/>
<polygon fill="#191970" stroke="#191970" points="865.1886,-12.0001 855.1886,-15.5 865.1885,-19.0001 865.1886,-12.0001"/>
</g>
</g>
</svg>
