<?xml version="1.0" encoding="UTF-8" standalone="no"?>
<!DOCTYPE svg PUBLIC "-//W3C//DTD SVG 1.1//EN"
 "http://www.w3.org/Graphics/SVG/1.1/DTD/svg11.dtd">
<!-- Generated by graphviz version 2.40.1 (20161225.0304)
 -->
<!-- Title: nlohmann::json_pointer::get_checked Pages: 1 -->
<svg width="451pt" height="88pt"
 viewBox="0.00 0.00 451.00 88.00" xmlns="http://www.w3.org/2000/svg" xmlns:xlink="http://www.w3.org/1999/xlink">
<g id="graph0" class="graph" transform="scale(1 1) rotate(0) translate(4 84)">
<title>nlohmann::json_pointer::get_checked</title>
<polygon fill="#ffffff" stroke="transparent" points="-4,4 -4,-84 447,-84 447,4 -4,4"/>
<!-- Node58 -->
<g id="node1" class="node">
<title>Node58</title>
<polygon fill="#bfbfbf" stroke="#000000" points="0,-24.5 0,-54.5 117,-54.5 117,-24.5 0,-24.5"/>
<text text-anchor="start" x="8" y="-42.5" font-family="Helvetica,sans-Serif" font-size="10.00" fill="#000000">nlohmann::json_pointer</text>
<text text-anchor="middle" x="58.5" y="-31.5" font-family="Helvetica,sans-Serif" font-size="10.00" fill="#000000">::get_checked</text>
</g>
<!-- Node59 -->
<g id="node2" class="node">
<title>Node59</title>
<g id="a_node2"><a xlink:href="classnlohmann_1_1detail_1_1out__of__range.html#a3f6d82a6f967c4728a1ec735a7867073" target="_top" xlink:title="nlohmann::detail::out\l_of_range::create">
<polygon fill="#ffffff" stroke="#000000" points="158.5,-49.5 158.5,-79.5 265.5,-79.5 265.5,-49.5 158.5,-49.5"/>
<text text-anchor="start" x="166.5" y="-67.5" font-family="Helvetica,sans-Serif" font-size="10.00" fill="#000000">nlohmann::detail::out</text>
<text text-anchor="middle" x="212" y="-56.5" font-family="Helvetica,sans-Serif" font-size="10.00" fill="#000000">_of_range::create</text>
</a>
</g>
</g>
<!-- Node58&#45;&gt;Node59 -->
<g id="edge1" class="edge">
<title>Node58&#45;&gt;Node59</title>
<path fill="none" stroke="#191970" d="M117.4081,-49.0942C127.4269,-50.7259 137.875,-52.4275 148.0172,-54.0793"/>
<polygon fill="#191970" stroke="#191970" points="147.5974,-57.557 158.0301,-55.7101 148.7227,-50.6481 147.5974,-57.557"/>
</g>
<!-- Node61 -->
<g id="node4" class="node">
<title>Node61</title>
<g id="a_node4"><a xlink:href="classnlohmann_1_1detail_1_1parse__error.html#a137ea4d27de45d8a844fd13451d40f3d" target="_top" xlink:title="create a parse error exception ">
<polygon fill="#ffffff" stroke="#000000" points="153,-.5 153,-30.5 271,-30.5 271,-.5 153,-.5"/>
<text text-anchor="start" x="161" y="-18.5" font-family="Helvetica,sans-Serif" font-size="10.00" fill="#000000">nlohmann::detail::parse</text>
<text text-anchor="middle" x="212" y="-7.5" font-family="Helvetica,sans-Serif" font-size="10.00" fill="#000000">_error::create</text>
</a>
</g>
</g>
<!-- Node58&#45;&gt;Node61 -->
<g id="edge3" class="edge">
<title>Node58&#45;&gt;Node61</title>
<path fill="none" stroke="#191970" d="M117.4081,-30.2896C125.7941,-28.9785 134.4809,-27.6203 143.0372,-26.2825"/>
<polygon fill="#191970" stroke="#191970" points="143.6566,-29.7282 152.9959,-24.7254 142.5752,-22.8122 143.6566,-29.7282"/>
</g>
<!-- Node60 -->
<g id="node3" class="node">
<title>Node60</title>
<g id="a_node3"><a xlink:href="classnlohmann_1_1detail_1_1exception.html#abf41a7e9178356314082284e6cfea278" target="_top" xlink:title="nlohmann::detail::exception\l::name">
<polygon fill="#ffffff" stroke="#000000" points="307,-24.5 307,-54.5 443,-54.5 443,-24.5 307,-24.5"/>
<text text-anchor="start" x="315" y="-42.5" font-family="Helvetica,sans-Serif" font-size="10.00" fill="#000000">nlohmann::detail::exception</text>
<text text-anchor="middle" x="375" y="-31.5" font-family="Helvetica,sans-Serif" font-size="10.00" fill="#000000">::name</text>
</a>
</g>
</g>
<!-- Node59&#45;&gt;Node60 -->
<g id="edge2" class="edge">
<title>Node59&#45;&gt;Node60</title>
<path fill="none" stroke="#191970" d="M265.824,-56.2448C275.8028,-54.7143 286.4096,-53.0875 296.9398,-51.4724"/>
<polygon fill="#191970" stroke="#191970" points="297.6354,-54.9068 306.9892,-49.9311 296.5741,-47.9877 297.6354,-54.9068"/>
</g>
<!-- Node61&#45;&gt;Node60 -->
<g id="edge4" class="edge">
<title>Node61&#45;&gt;Node60</title>
<path fill="none" stroke="#191970" d="M271.3078,-24.2324C279.6169,-25.4559 288.259,-26.7283 296.8515,-27.9935"/>
<polygon fill="#191970" stroke="#191970" points="296.4892,-31.4778 306.8924,-29.4719 297.5089,-24.5525 296.4892,-31.4778"/>
</g>
</g>
</svg>
