<?xml version="1.0" encoding="UTF-8" standalone="no"?>
<!DOCTYPE svg PUBLIC "-//W3C//DTD SVG 1.1//EN"
 "http://www.w3.org/Graphics/SVG/1.1/DTD/svg11.dtd">
<!-- Generated by graphviz version 2.40.1 (20161225.0304)
 -->
<!-- Title: Function Pages: 1 -->
<svg width="326pt" height="182pt"
 viewBox="0.00 0.00 326.00 182.00" xmlns="http://www.w3.org/2000/svg" xmlns:xlink="http://www.w3.org/1999/xlink">
<g id="graph0" class="graph" transform="scale(1 1) rotate(0) translate(4 178)">
<title>Function</title>
<polygon fill="#ffffff" stroke="transparent" points="-4,4 -4,-178 322,-178 322,4 -4,4"/>
<!-- Node0 -->
<g id="node1" class="node">
<title>Node0</title>
<polygon fill="#bfbfbf" stroke="#000000" points="137.5,-116.5 137.5,-173.5 194.5,-173.5 194.5,-116.5 137.5,-116.5"/>
<text text-anchor="middle" x="166" y="-161.5" font-family="Helvetica,sans-Serif" font-size="10.00" fill="#000000">Function</text>
<polyline fill="none" stroke="#000000" points="137.5,-154.5 194.5,-154.5 "/>
<text text-anchor="middle" x="166" y="-142.5" font-family="Helvetica,sans-Serif" font-size="10.00" fill="#000000"> </text>
<polyline fill="none" stroke="#000000" points="137.5,-135.5 194.5,-135.5 "/>
<text text-anchor="middle" x="166" y="-123.5" font-family="Helvetica,sans-Serif" font-size="10.00" fill="#000000"> </text>
</g>
<!-- Node1 -->
<g id="node2" class="node">
<title>Node1</title>
<g id="a_node2"><a xlink:href="classRiver_1_1Solver_1_1BoundaryValues.html" target="_top" xlink:title="See Deal.II step&#45;6 for more details. ">
<polygon fill="#ffffff" stroke="#000000" points="0,-.5 0,-79.5 164,-79.5 164,-.5 0,-.5"/>
<text text-anchor="start" x="8" y="-67.5" font-family="Helvetica,sans-Serif" font-size="10.00" fill="#000000">River::Solver::BoundaryValues</text>
<text text-anchor="middle" x="82" y="-56.5" font-family="Helvetica,sans-Serif" font-size="10.00" fill="#000000">&lt; dim &gt;</text>
<polyline fill="none" stroke="#000000" points="0,-49.5 164,-49.5 "/>
<text text-anchor="middle" x="82" y="-37.5" font-family="Helvetica,sans-Serif" font-size="10.00" fill="#000000"> </text>
<polyline fill="none" stroke="#000000" points="0,-30.5 164,-30.5 "/>
<text text-anchor="start" x="8" y="-18.5" font-family="Helvetica,sans-Serif" font-size="10.00" fill="#000000">+ BoundaryValues()</text>
<text text-anchor="start" x="8" y="-7.5" font-family="Helvetica,sans-Serif" font-size="10.00" fill="#000000">+ value()</text>
</a>
</g>
</g>
<!-- Node0&#45;&gt;Node1 -->
<g id="edge1" class="edge">
<title>Node0&#45;&gt;Node1</title>
<path fill="none" stroke="#191970" d="M136.7023,-108.3779C129.2817,-99.1021 121.2771,-89.0964 113.7418,-79.6773"/>
<polygon fill="none" stroke="#191970" points="134.0666,-110.686 143.0466,-116.3083 139.5327,-106.3131 134.0666,-110.686"/>
</g>
<!-- Node2 -->
<g id="node3" class="node">
<title>Node2</title>
<g id="a_node3"><a xlink:href="classRiver_1_1Solver_1_1RightHandSide.html" target="_top" xlink:title="See Deal.II step&#45;6 for more details. ">
<polygon fill="#ffffff" stroke="#000000" points="182,-.5 182,-79.5 318,-79.5 318,-.5 182,-.5"/>
<text text-anchor="start" x="190" y="-67.5" font-family="Helvetica,sans-Serif" font-size="10.00" fill="#000000">River::Solver::RightHand</text>
<text text-anchor="middle" x="250" y="-56.5" font-family="Helvetica,sans-Serif" font-size="10.00" fill="#000000">Side&lt; dim &gt;</text>
<polyline fill="none" stroke="#000000" points="182,-49.5 318,-49.5 "/>
<text text-anchor="start" x="190" y="-37.5" font-family="Helvetica,sans-Serif" font-size="10.00" fill="#000000">+ fieldValue</text>
<polyline fill="none" stroke="#000000" points="182,-30.5 318,-30.5 "/>
<text text-anchor="start" x="190" y="-18.5" font-family="Helvetica,sans-Serif" font-size="10.00" fill="#000000">+ RightHandSide()</text>
<text text-anchor="start" x="190" y="-7.5" font-family="Helvetica,sans-Serif" font-size="10.00" fill="#000000">+ value()</text>
</a>
</g>
</g>
<!-- Node0&#45;&gt;Node2 -->
<g id="edge2" class="edge">
<title>Node0&#45;&gt;Node2</title>
<path fill="none" stroke="#191970" d="M195.2977,-108.3779C202.7183,-99.1021 210.7229,-89.0964 218.2582,-79.6773"/>
<polygon fill="none" stroke="#191970" points="192.4673,-106.3131 188.9534,-116.3083 197.9334,-110.686 192.4673,-106.3131"/>
</g>
</g>
</svg>
