<?xml version="1.0" encoding="UTF-8" standalone="no"?>
<!DOCTYPE svg PUBLIC "-//W3C//DTD SVG 1.1//EN"
 "http://www.w3.org/Graphics/SVG/1.1/DTD/svg11.dtd">
<!-- Generated by graphviz version 2.40.1 (20161225.0304)
 -->
<!-- Title: River::Solver::run Pages: 1 -->
<svg width="356pt" height="47pt"
 viewBox="0.00 0.00 356.00 47.00" xmlns="http://www.w3.org/2000/svg" xmlns:xlink="http://www.w3.org/1999/xlink">
<g id="graph0" class="graph" transform="scale(1 1) rotate(0) translate(4 43)">
<title>River::Solver::run</title>
<polygon fill="#ffffff" stroke="transparent" points="-4,4 -4,-43 352,-43 352,4 -4,4"/>
<!-- Node30 -->
<g id="node1" class="node">
<title>Node30</title>
<polygon fill="#bfbfbf" stroke="#000000" points="0,-19.5 0,-38.5 93,-38.5 93,-19.5 0,-19.5"/>
<text text-anchor="middle" x="46.5" y="-26.5" font-family="Helvetica,sans-Serif" font-size="10.00" fill="#000000">River::Solver::run</text>
</g>
<!-- Node31 -->
<g id="node2" class="node">
<title>Node31</title>
<g id="a_node2"><a xlink:href="main_8cpp.html#a0ddf1224851353fc92bfbff6f499fa97" target="_top" xlink:title="Entry point of RiverSim program. ">
<polygon fill="#ffffff" stroke="#000000" points="310,-19.5 310,-38.5 348,-38.5 348,-19.5 310,-19.5"/>
<text text-anchor="middle" x="329" y="-26.5" font-family="Helvetica,sans-Serif" font-size="10.00" fill="#000000">main</text>
</a>
</g>
</g>
<!-- Node30&#45;&gt;Node31 -->
<g id="edge1" class="edge">
<title>Node30&#45;&gt;Node31</title>
<path fill="none" stroke="#191970" d="M103.4871,-29C167.512,-29 267.9413,-29 309.7424,-29"/>
<polygon fill="#191970" stroke="#191970" points="103.1492,-25.5001 93.1491,-29 103.1491,-32.5001 103.1492,-25.5001"/>
</g>
<!-- Node32 -->
<g id="node3" class="node">
<title>Node32</title>
<g id="a_node3"><a xlink:href="namespaceRiver.html#a494b68e2992de95500d6d81770de62ed" target="_top" xlink:title="River::ForwardRiverEvolution">
<polygon fill="#ffffff" stroke="#000000" points="129,-.5 129,-19.5 274,-19.5 274,-.5 129,-.5"/>
<text text-anchor="middle" x="201.5" y="-7.5" font-family="Helvetica,sans-Serif" font-size="10.00" fill="#000000">River::ForwardRiverEvolution</text>
</a>
</g>
</g>
<!-- Node30&#45;&gt;Node32 -->
<g id="edge2" class="edge">
<title>Node30&#45;&gt;Node32</title>
<path fill="none" stroke="#191970" d="M103.0614,-22.0667C111.4747,-21.0354 120.2438,-19.9604 128.9301,-18.8957"/>
<polygon fill="#191970" stroke="#191970" points="102.5049,-18.6086 93.0051,-23.2994 103.3567,-25.5566 102.5049,-18.6086"/>
</g>
<!-- Node32&#45;&gt;Node31 -->
<g id="edge3" class="edge">
<title>Node32&#45;&gt;Node31</title>
<path fill="none" stroke="#191970" d="M275.7834,-21.0697C288.3501,-22.9424 300.3551,-24.7313 309.7718,-26.1346"/>
<polygon fill="#191970" stroke="#191970" points="276.0302,-17.5679 265.6235,-19.5557 274.9984,-24.4914 276.0302,-17.5679"/>
</g>
</g>
</svg>
