<?xml version="1.0" encoding="UTF-8" standalone="no"?>
<!DOCTYPE svg PUBLIC "-//W3C//DTD SVG 1.1//EN"
 "http://www.w3.org/Graphics/SVG/1.1/DTD/svg11.dtd">
<!-- Generated by graphviz version 2.40.1 (20161225.0304)
 -->
<!-- Title: tethex::IncidenceMatrix::get_n_nonzero Pages: 1 -->
<svg width="726pt" height="61pt"
 viewBox="0.00 0.00 726.00 61.00" xmlns="http://www.w3.org/2000/svg" xmlns:xlink="http://www.w3.org/1999/xlink">
<g id="graph0" class="graph" transform="scale(1 1) rotate(0) translate(4 57)">
<title>tethex::IncidenceMatrix::get_n_nonzero</title>
<polygon fill="#ffffff" stroke="transparent" points="-4,4 -4,-57 722,-57 722,4 -4,4"/>
<!-- Node16 -->
<g id="node1" class="node">
<title>Node16</title>
<polygon fill="#bfbfbf" stroke="#000000" points="0,-22.5 0,-52.5 119,-52.5 119,-22.5 0,-22.5"/>
<text text-anchor="start" x="8" y="-40.5" font-family="Helvetica,sans-Serif" font-size="10.00" fill="#000000">tethex::IncidenceMatrix</text>
<text text-anchor="middle" x="59.5" y="-29.5" font-family="Helvetica,sans-Serif" font-size="10.00" fill="#000000">::get_n_nonzero</text>
</g>
<!-- Node17 -->
<g id="node2" class="node">
<title>Node17</title>
<g id="a_node2"><a xlink:href="classtethex_1_1Mesh.html#ad6757f5eeaca6b0cae07fb85b5f40cb2" target="_top" xlink:title="tethex::Mesh::edge\l_numeration">
<polygon fill="#ffffff" stroke="#000000" points="155,-22.5 155,-52.5 256,-52.5 256,-22.5 155,-22.5"/>
<text text-anchor="start" x="163" y="-40.5" font-family="Helvetica,sans-Serif" font-size="10.00" fill="#000000">tethex::Mesh::edge</text>
<text text-anchor="middle" x="205.5" y="-29.5" font-family="Helvetica,sans-Serif" font-size="10.00" fill="#000000">_numeration</text>
</a>
</g>
</g>
<!-- Node16&#45;&gt;Node17 -->
<g id="edge1" class="edge">
<title>Node16&#45;&gt;Node17</title>
<path fill="none" stroke="#191970" d="M129.3562,-37.5C137.9656,-37.5 146.6335,-37.5 154.8796,-37.5"/>
<polygon fill="#191970" stroke="#191970" points="129.3051,-34.0001 119.305,-37.5 129.305,-41.0001 129.3051,-34.0001"/>
</g>
<!-- Node18 -->
<g id="node3" class="node">
<title>Node18</title>
<g id="a_node3"><a xlink:href="classtethex_1_1Mesh.html#adb803e48ce7101318531730a512ecbc8" target="_top" xlink:title="tethex::Mesh::convert_2D">
<polygon fill="#ffffff" stroke="#000000" points="440,-28 440,-47 570,-47 570,-28 440,-28"/>
<text text-anchor="middle" x="505" y="-35" font-family="Helvetica,sans-Serif" font-size="10.00" fill="#000000">tethex::Mesh::convert_2D</text>
</a>
</g>
</g>
<!-- Node17&#45;&gt;Node18 -->
<g id="edge2" class="edge">
<title>Node17&#45;&gt;Node18</title>
<path fill="none" stroke="#191970" d="M266.2947,-39.8743C274.9226,-40.1338 283.6851,-40.3559 292,-40.5 341.7703,-41.3628 354.2277,-41.239 404,-40.5 415.5767,-40.3281 427.8974,-40.0454 439.809,-39.7206"/>
<polygon fill="#191970" stroke="#191970" points="266.3693,-36.375 256.2629,-39.5549 266.1464,-43.3715 266.3693,-36.375"/>
</g>
<!-- Node20 -->
<g id="node5" class="node">
<title>Node20</title>
<g id="a_node5"><a xlink:href="classtethex_1_1Mesh.html#ab739c5e4bbb1c3461a068c2104eab52e" target="_top" xlink:title="tethex::Mesh::convert\l_triangles">
<polygon fill="#ffffff" stroke="#000000" points="292,-.5 292,-30.5 404,-30.5 404,-.5 292,-.5"/>
<text text-anchor="start" x="300" y="-18.5" font-family="Helvetica,sans-Serif" font-size="10.00" fill="#000000">tethex::Mesh::convert</text>
<text text-anchor="middle" x="348" y="-7.5" font-family="Helvetica,sans-Serif" font-size="10.00" fill="#000000">_triangles</text>
</a>
</g>
</g>
<!-- Node17&#45;&gt;Node20 -->
<g id="edge4" class="edge">
<title>Node17&#45;&gt;Node20</title>
<path fill="none" stroke="#191970" d="M266.2955,-28.114C274.728,-26.8122 283.3602,-25.4795 291.7058,-24.191"/>
<polygon fill="#191970" stroke="#191970" points="265.4903,-24.6968 256.1414,-29.6817 266.5584,-31.6148 265.4903,-24.6968"/>
</g>
<!-- Node19 -->
<g id="node4" class="node">
<title>Node19</title>
<g id="a_node4"><a xlink:href="classtethex_1_1Mesh.html#aaa882d21498571cbd84d4f7129fd6e32" target="_top" xlink:title="tethex::Mesh::convert">
<polygon fill="#ffffff" stroke="#000000" points="606,-28 606,-47 718,-47 718,-28 606,-28"/>
<text text-anchor="middle" x="662" y="-35" font-family="Helvetica,sans-Serif" font-size="10.00" fill="#000000">tethex::Mesh::convert</text>
</a>
</g>
</g>
<!-- Node18&#45;&gt;Node19 -->
<g id="edge3" class="edge">
<title>Node18&#45;&gt;Node19</title>
<path fill="none" stroke="#191970" d="M580.2433,-37.5C588.8245,-37.5 597.4576,-37.5 605.7317,-37.5"/>
<polygon fill="#191970" stroke="#191970" points="580.2182,-34.0001 570.2182,-37.5 580.2182,-41.0001 580.2182,-34.0001"/>
</g>
<!-- Node20&#45;&gt;Node18 -->
<g id="edge5" class="edge">
<title>Node20&#45;&gt;Node18</title>
<path fill="none" stroke="#191970" d="M414.3808,-24.8018C422.7962,-25.981 431.402,-27.1869 439.7987,-28.3635"/>
<polygon fill="#191970" stroke="#191970" points="414.6261,-21.302 404.2372,-23.3804 413.6547,-28.2343 414.6261,-21.302"/>
</g>
</g>
</svg>
