<?xml version="1.0" encoding="UTF-8" standalone="no"?>
<!DOCTYPE svg PUBLIC "-//W3C//DTD SVG 1.1//EN"
 "http://www.w3.org/Graphics/SVG/1.1/DTD/svg11.dtd">
<!-- Generated by graphviz version 2.40.1 (20161225.0304)
 -->
<!-- Title: River::Border::IsSource Pages: 1 -->
<svg width="555pt" height="117pt"
 viewBox="0.00 0.00 555.00 116.78" xmlns="http://www.w3.org/2000/svg" xmlns:xlink="http://www.w3.org/1999/xlink">
<g id="graph0" class="graph" transform="scale(1 1) rotate(0) translate(4 112.7844)">
<title>River::Border::IsSource</title>
<polygon fill="#ffffff" stroke="transparent" points="-4,4 -4,-112.7844 551,-112.7844 551,4 -4,4"/>
<!-- Node78 -->
<g id="node1" class="node">
<title>Node78</title>
<polygon fill="#bfbfbf" stroke="#000000" points="0,-28 0,-47 119,-47 119,-28 0,-28"/>
<text text-anchor="middle" x="59.5" y="-35" font-family="Helvetica,sans-Serif" font-size="10.00" fill="#000000">River::Border::IsSource</text>
</g>
<!-- Node79 -->
<g id="node2" class="node">
<title>Node79</title>
<g id="a_node2"><a xlink:href="classRiver_1_1Border.html#ae11520725faf327360db442782a8b036" target="_top" xlink:title="Returns vector of sources ids. ">
<polygon fill="#ffffff" stroke="#000000" points="155,-58 155,-77 295,-77 295,-58 155,-58"/>
<text text-anchor="middle" x="225" y="-65" font-family="Helvetica,sans-Serif" font-size="10.00" fill="#000000">River::Border::GetSourcesId</text>
</a>
</g>
</g>
<!-- Node78&#45;&gt;Node79 -->
<g id="edge1" class="edge">
<title>Node78&#45;&gt;Node79</title>
<path fill="none" stroke="#191970" d="M122.4171,-48.9049C138.9055,-51.8937 156.5102,-55.0849 172.3976,-57.9648"/>
<polygon fill="#191970" stroke="#191970" points="122.7842,-45.4145 112.3203,-47.0747 121.5356,-52.3023 122.7842,-45.4145"/>
</g>
<!-- Node83 -->
<g id="node6" class="node">
<title>Node83</title>
<g id="a_node6"><a xlink:href="classRiver_1_1Border.html#a2f25dbd4abd2d3d684a4d01389e76a0d" target="_top" xlink:title="Returns vector of sources points(both source point is merged into one). ">
<polygon fill="#ffffff" stroke="#000000" points="159,-.5 159,-30.5 291,-30.5 291,-.5 159,-.5"/>
<text text-anchor="start" x="167" y="-18.5" font-family="Helvetica,sans-Serif" font-size="10.00" fill="#000000">River::Border::GetSources</text>
<text text-anchor="middle" x="225" y="-7.5" font-family="Helvetica,sans-Serif" font-size="10.00" fill="#000000">Point</text>
</a>
</g>
</g>
<!-- Node78&#45;&gt;Node83 -->
<g id="edge6" class="edge">
<title>Node78&#45;&gt;Node83</title>
<path fill="none" stroke="#191970" d="M129.3403,-28.2161C139.1324,-26.9144 149.1716,-25.5799 158.8914,-24.2879"/>
<polygon fill="#191970" stroke="#191970" points="128.7009,-24.7702 119.2493,-29.5575 129.6233,-31.7092 128.7009,-24.7702"/>
</g>
<!-- Node80 -->
<g id="node3" class="node">
<title>Node80</title>
<g id="a_node3"><a xlink:href="main_8cpp.html#a0ddf1224851353fc92bfbff6f499fa97" target="_top" xlink:title="Entry point of RiverSim program. ">
<polygon fill="#ffffff" stroke="#000000" points="509,-28 509,-47 547,-47 547,-28 509,-28"/>
<text text-anchor="middle" x="528" y="-35" font-family="Helvetica,sans-Serif" font-size="10.00" fill="#000000">main</text>
</a>
</g>
</g>
<!-- Node79&#45;&gt;Node80 -->
<g id="edge2" class="edge">
<title>Node79&#45;&gt;Node80</title>
<path fill="none" stroke="#191970" d="M257.0289,-80.6987C305.7464,-98.678 400.4626,-125.3075 473,-94.5 495.783,-84.8238 513.7186,-60.5748 522.3598,-47.0298"/>
<polygon fill="#191970" stroke="#191970" points="258.2282,-77.4103 247.6371,-77.1274 255.7402,-83.9532 258.2282,-77.4103"/>
</g>
<!-- Node81 -->
<g id="node4" class="node">
<title>Node81</title>
<g id="a_node4"><a xlink:href="classRiver_1_1Border.html#a08df0eb89a5692e84d6b3fe5fe5bec37" target="_top" xlink:title="Add border line to each source points. ">
<polygon fill="#ffffff" stroke="#000000" points="331,-66 331,-85 473,-85 473,-66 331,-66"/>
<text text-anchor="middle" x="402" y="-73" font-family="Helvetica,sans-Serif" font-size="10.00" fill="#000000">River::Border::CloseSources</text>
</a>
</g>
</g>
<!-- Node79&#45;&gt;Node81 -->
<g id="edge3" class="edge">
<title>Node79&#45;&gt;Node81</title>
<path fill="none" stroke="#191970" d="M305.4275,-71.1351C313.8617,-71.5163 322.3946,-71.902 330.7162,-72.2781"/>
<polygon fill="#191970" stroke="#191970" points="305.3572,-67.6285 295.2093,-70.6733 305.041,-74.6213 305.3572,-67.6285"/>
</g>
<!-- Node82 -->
<g id="node5" class="node">
<title>Node82</title>
<g id="a_node5"><a xlink:href="namespaceRiver.html#aa226e8aa15b4b21c82a2ea177e1faee6" target="_top" xlink:title="River::BoundaryGenerator">
<polygon fill="#ffffff" stroke="#000000" points="337,-28 337,-47 467,-47 467,-28 337,-28"/>
<text text-anchor="middle" x="402" y="-35" font-family="Helvetica,sans-Serif" font-size="10.00" fill="#000000">River::BoundaryGenerator</text>
</a>
</g>
</g>
<!-- Node79&#45;&gt;Node82 -->
<g id="edge4" class="edge">
<title>Node79&#45;&gt;Node82</title>
<path fill="none" stroke="#191970" d="M291.7902,-56.1796C309.5677,-53.1665 328.5908,-49.9422 345.7424,-47.0352"/>
<polygon fill="#191970" stroke="#191970" points="290.765,-52.8034 281.4906,-57.9253 291.9348,-59.705 290.765,-52.8034"/>
</g>
<!-- Node82&#45;&gt;Node80 -->
<g id="edge5" class="edge">
<title>Node82&#45;&gt;Node80</title>
<path fill="none" stroke="#191970" d="M477.5129,-37.5C489.1067,-37.5 500.1114,-37.5 508.8697,-37.5"/>
<polygon fill="#191970" stroke="#191970" points="477.2145,-34.0001 467.2144,-37.5 477.2144,-41.0001 477.2145,-34.0001"/>
</g>
<!-- Node83&#45;&gt;Node80 -->
<g id="edge7" class="edge">
<title>Node83&#45;&gt;Node80</title>
<path fill="none" stroke="#191970" d="M301.3327,-10.1611C350.6732,-8.2452 416.0697,-8.5893 473,-18.5 485.2417,-20.6311 498.4167,-25.1005 508.8021,-29.1693"/>
<polygon fill="#191970" stroke="#191970" points="300.8975,-6.6764 291.0566,-10.6016 301.1973,-13.67 300.8975,-6.6764"/>
</g>
</g>
</svg>
