<?xml version="1.0" encoding="UTF-8" standalone="no"?>
<!DOCTYPE svg PUBLIC "-//W3C//DTD SVG 1.1//EN"
 "http://www.w3.org/Graphics/SVG/1.1/DTD/svg11.dtd">
<!-- Generated by graphviz version 2.40.1 (20161225.0304)
 -->
<!-- Title: nlohmann::detail::file_input_adapter Pages: 1 -->
<svg width="144pt" height="259pt"
 viewBox="0.00 0.00 144.00 259.00" xmlns="http://www.w3.org/2000/svg" xmlns:xlink="http://www.w3.org/1999/xlink">
<g id="graph0" class="graph" transform="scale(1 1) rotate(0) translate(4 255)">
<title>nlohmann::detail::file_input_adapter</title>
<polygon fill="#ffffff" stroke="transparent" points="-4,4 -4,-255 140,-255 140,4 -4,4"/>
<!-- Node0 -->
<g id="node1" class="node">
<title>Node0</title>
<polygon fill="#bfbfbf" stroke="#000000" points="11,-.5 11,-134.5 125,-134.5 125,-.5 11,-.5"/>
<text text-anchor="start" x="19" y="-122.5" font-family="Helvetica,sans-Serif" font-size="10.00" fill="#000000">nlohmann::detail::file</text>
<text text-anchor="middle" x="68" y="-111.5" font-family="Helvetica,sans-Serif" font-size="10.00" fill="#000000">_input_adapter</text>
<polyline fill="none" stroke="#000000" points="11,-104.5 125,-104.5 "/>
<text text-anchor="start" x="19" y="-92.5" font-family="Helvetica,sans-Serif" font-size="10.00" fill="#000000">&#45; m_file</text>
<polyline fill="none" stroke="#000000" points="11,-85.5 125,-85.5 "/>
<text text-anchor="start" x="19" y="-73.5" font-family="Helvetica,sans-Serif" font-size="10.00" fill="#000000">+ file_input_adapter()</text>
<text text-anchor="start" x="19" y="-62.5" font-family="Helvetica,sans-Serif" font-size="10.00" fill="#000000">+ file_input_adapter()</text>
<text text-anchor="start" x="19" y="-51.5" font-family="Helvetica,sans-Serif" font-size="10.00" fill="#000000">+ file_input_adapter()</text>
<text text-anchor="start" x="19" y="-40.5" font-family="Helvetica,sans-Serif" font-size="10.00" fill="#000000">+ operator=()</text>
<text text-anchor="start" x="19" y="-29.5" font-family="Helvetica,sans-Serif" font-size="10.00" fill="#000000">+ operator=()</text>
<text text-anchor="start" x="19" y="-18.5" font-family="Helvetica,sans-Serif" font-size="10.00" fill="#000000">+ ~file_input_adapter()</text>
<text text-anchor="start" x="19" y="-7.5" font-family="Helvetica,sans-Serif" font-size="10.00" fill="#000000">+ get_character()</text>
</g>
<!-- Node1 -->
<g id="node2" class="node">
<title>Node1</title>
<g id="a_node2"><a xlink:href="structnlohmann_1_1detail_1_1input__adapter__protocol.html" target="_top" xlink:title="abstract input adapter interface ">
<polygon fill="#ffffff" stroke="#000000" points="0,-171.5 0,-250.5 136,-250.5 136,-171.5 0,-171.5"/>
<text text-anchor="start" x="8" y="-238.5" font-family="Helvetica,sans-Serif" font-size="10.00" fill="#000000">nlohmann::detail::input</text>
<text text-anchor="middle" x="68" y="-227.5" font-family="Helvetica,sans-Serif" font-size="10.00" fill="#000000">_adapter_protocol</text>
<polyline fill="none" stroke="#000000" points="0,-220.5 136,-220.5 "/>
<text text-anchor="middle" x="68" y="-208.5" font-family="Helvetica,sans-Serif" font-size="10.00" fill="#000000"> </text>
<polyline fill="none" stroke="#000000" points="0,-201.5 136,-201.5 "/>
<text text-anchor="start" x="8" y="-189.5" font-family="Helvetica,sans-Serif" font-size="10.00" fill="#000000">+ get_character()</text>
<text text-anchor="start" x="8" y="-178.5" font-family="Helvetica,sans-Serif" font-size="10.00" fill="#000000">+ ~input_adapter_protocol()</text>
</a>
</g>
</g>
<!-- Node1&#45;&gt;Node0 -->
<g id="edge1" class="edge">
<title>Node1&#45;&gt;Node0</title>
<path fill="none" stroke="#191970" d="M68,-161.173C68,-152.5614 68,-143.4836 68,-134.5054"/>
<polygon fill="none" stroke="#191970" points="64.5001,-161.4081 68,-171.4081 71.5001,-161.4082 64.5001,-161.4081"/>
</g>
</g>
</svg>
