<?xml version="1.0" encoding="UTF-8" standalone="no"?>
<!DOCTYPE svg PUBLIC "-//W3C//DTD SVG 1.1//EN"
 "http://www.w3.org/Graphics/SVG/1.1/DTD/svg11.dtd">
<!-- Generated by graphviz version 2.40.1 (20161225.0304)
 -->
<!-- Title: River::Model::WeightFunction Pages: 1 -->
<svg width="381pt" height="28pt"
 viewBox="0.00 0.00 381.00 28.00" xmlns="http://www.w3.org/2000/svg" xmlns:xlink="http://www.w3.org/1999/xlink">
<g id="graph0" class="graph" transform="scale(1 1) rotate(0) translate(4 24)">
<title>River::Model::WeightFunction</title>
<polygon fill="#ffffff" stroke="transparent" points="-4,4 -4,-24 377,-24 377,4 -4,4"/>
<!-- Node7 -->
<g id="node1" class="node">
<title>Node7</title>
<polygon fill="#bfbfbf" stroke="#000000" points="0,-.5 0,-19.5 146,-19.5 146,-.5 0,-.5"/>
<text text-anchor="middle" x="73" y="-7.5" font-family="Helvetica,sans-Serif" font-size="10.00" fill="#000000">River::Model::WeightFunction</text>
</g>
<!-- Node8 -->
<g id="node2" class="node">
<title>Node8</title>
<g id="a_node2"><a xlink:href="classRiver_1_1Solver.html#a8224d44b334d6d1f0d40d5b161bbdd6d" target="_top" xlink:title="River::Solver::integrate">
<polygon fill="#ffffff" stroke="#000000" points="182,-.5 182,-19.5 299,-19.5 299,-.5 182,-.5"/>
<text text-anchor="middle" x="240.5" y="-7.5" font-family="Helvetica,sans-Serif" font-size="10.00" fill="#000000">River::Solver::integrate</text>
</a>
</g>
</g>
<!-- Node7&#45;&gt;Node8 -->
<g id="edge1" class="edge">
<title>Node7&#45;&gt;Node8</title>
<path fill="none" stroke="#191970" d="M156.5251,-10C165.112,-10 173.702,-10 181.9341,-10"/>
<polygon fill="#191970" stroke="#191970" points="156.468,-6.5001 146.4679,-10 156.4679,-13.5001 156.468,-6.5001"/>
</g>
<!-- Node9 -->
<g id="node3" class="node">
<title>Node9</title>
<g id="a_node3"><a xlink:href="main_8cpp.html#a0ddf1224851353fc92bfbff6f499fa97" target="_top" xlink:title="Entry point of RiverSim program. ">
<polygon fill="#ffffff" stroke="#000000" points="335,-.5 335,-19.5 373,-19.5 373,-.5 335,-.5"/>
<text text-anchor="middle" x="354" y="-7.5" font-family="Helvetica,sans-Serif" font-size="10.00" fill="#000000">main</text>
</a>
</g>
</g>
<!-- Node8&#45;&gt;Node9 -->
<g id="edge2" class="edge">
<title>Node8&#45;&gt;Node9</title>
<path fill="none" stroke="#191970" d="M309.4247,-10C318.6879,-10 327.4969,-10 334.8005,-10"/>
<polygon fill="#191970" stroke="#191970" points="309.2448,-6.5001 299.2448,-10 309.2447,-13.5001 309.2448,-6.5001"/>
</g>
</g>
</svg>
