<?xml version="1.0" encoding="UTF-8" standalone="no"?>
<!DOCTYPE svg PUBLIC "-//W3C//DTD SVG 1.1//EN"
 "http://www.w3.org/Graphics/SVG/1.1/DTD/svg11.dtd">
<!-- Generated by graphviz version 2.40.1 (20161225.0304)
 -->
<!-- Title: nlohmann::basic_json::value Pages: 1 -->
<svg width="598pt" height="132pt"
 viewBox="0.00 0.00 598.00 132.00" xmlns="http://www.w3.org/2000/svg" xmlns:xlink="http://www.w3.org/1999/xlink">
<g id="graph0" class="graph" transform="scale(1 1) rotate(0) translate(4 128)">
<title>nlohmann::basic_json::value</title>
<polygon fill="#ffffff" stroke="transparent" points="-4,4 -4,-128 594,-128 594,4 -4,4"/>
<!-- Node222 -->
<g id="node1" class="node">
<title>Node222</title>
<polygon fill="#bfbfbf" stroke="#000000" points="0,-24.5 0,-54.5 111,-54.5 111,-24.5 0,-24.5"/>
<text text-anchor="start" x="8" y="-42.5" font-family="Helvetica,sans-Serif" font-size="10.00" fill="#000000">nlohmann::basic_json</text>
<text text-anchor="middle" x="55.5" y="-31.5" font-family="Helvetica,sans-Serif" font-size="10.00" fill="#000000">::value</text>
</g>
<!-- Node223 -->
<g id="node2" class="node">
<title>Node223</title>
<g id="a_node2"><a xlink:href="classnlohmann_1_1json__pointer.html#a366d68a67e40d86676d3bdb52e167294" target="_top" xlink:title="nlohmann::json_pointer\l::get_checked">
<polygon fill="#ffffff" stroke="#000000" points="147,-49.5 147,-79.5 264,-79.5 264,-49.5 147,-49.5"/>
<text text-anchor="start" x="155" y="-67.5" font-family="Helvetica,sans-Serif" font-size="10.00" fill="#000000">nlohmann::json_pointer</text>
<text text-anchor="middle" x="205.5" y="-56.5" font-family="Helvetica,sans-Serif" font-size="10.00" fill="#000000">::get_checked</text>
</a>
</g>
</g>
<!-- Node222&#45;&gt;Node223 -->
<g id="edge1" class="edge">
<title>Node222&#45;&gt;Node223</title>
<path fill="none" stroke="#191970" d="M111.3545,-48.8091C119.6762,-50.196 128.3349,-51.6391 136.8823,-53.0637"/>
<polygon fill="#191970" stroke="#191970" points="136.3987,-56.5313 146.8381,-54.723 137.5496,-49.6266 136.3987,-56.5313"/>
</g>
<!-- Node227 -->
<g id="node6" class="node">
<title>Node227</title>
<g id="a_node6"><a xlink:href="classnlohmann_1_1detail_1_1type__error.html#aecc083aea4b698c33d042670ba50c10f" target="_top" xlink:title="nlohmann::detail::type\l_error::create">
<polygon fill="#ffffff" stroke="#000000" points="149,-.5 149,-30.5 262,-30.5 262,-.5 149,-.5"/>
<text text-anchor="start" x="157" y="-18.5" font-family="Helvetica,sans-Serif" font-size="10.00" fill="#000000">nlohmann::detail::type</text>
<text text-anchor="middle" x="205.5" y="-7.5" font-family="Helvetica,sans-Serif" font-size="10.00" fill="#000000">_error::create</text>
</a>
</g>
</g>
<!-- Node222&#45;&gt;Node227 -->
<g id="edge6" class="edge">
<title>Node222&#45;&gt;Node227</title>
<path fill="none" stroke="#191970" d="M111.3545,-30.5633C120.3464,-29.1246 129.7319,-27.6229 138.9452,-26.1488"/>
<polygon fill="#191970" stroke="#191970" points="139.5268,-29.6003 148.8482,-24.5643 138.4208,-22.6882 139.5268,-29.6003"/>
</g>
<!-- Node224 -->
<g id="node3" class="node">
<title>Node224</title>
<g id="a_node3"><a xlink:href="classnlohmann_1_1detail_1_1out__of__range.html#a3f6d82a6f967c4728a1ec735a7867073" target="_top" xlink:title="nlohmann::detail::out\l_of_range::create">
<polygon fill="#ffffff" stroke="#000000" points="305.5,-93.5 305.5,-123.5 412.5,-123.5 412.5,-93.5 305.5,-93.5"/>
<text text-anchor="start" x="313.5" y="-111.5" font-family="Helvetica,sans-Serif" font-size="10.00" fill="#000000">nlohmann::detail::out</text>
<text text-anchor="middle" x="359" y="-100.5" font-family="Helvetica,sans-Serif" font-size="10.00" fill="#000000">_of_range::create</text>
</a>
</g>
</g>
<!-- Node223&#45;&gt;Node224 -->
<g id="edge2" class="edge">
<title>Node223&#45;&gt;Node224</title>
<path fill="none" stroke="#191970" d="M257.8967,-79.5192C270.4236,-83.11 283.9161,-86.9776 296.8361,-90.681"/>
<polygon fill="#191970" stroke="#191970" points="296.0017,-94.0827 306.579,-93.4738 297.9306,-87.3537 296.0017,-94.0827"/>
</g>
<!-- Node226 -->
<g id="node5" class="node">
<title>Node226</title>
<g id="a_node5"><a xlink:href="classnlohmann_1_1detail_1_1parse__error.html#a137ea4d27de45d8a844fd13451d40f3d" target="_top" xlink:title="create a parse error exception ">
<polygon fill="#ffffff" stroke="#000000" points="300,-44.5 300,-74.5 418,-74.5 418,-44.5 300,-44.5"/>
<text text-anchor="start" x="308" y="-62.5" font-family="Helvetica,sans-Serif" font-size="10.00" fill="#000000">nlohmann::detail::parse</text>
<text text-anchor="middle" x="359" y="-51.5" font-family="Helvetica,sans-Serif" font-size="10.00" fill="#000000">_error::create</text>
</a>
</g>
</g>
<!-- Node223&#45;&gt;Node226 -->
<g id="edge4" class="edge">
<title>Node223&#45;&gt;Node226</title>
<path fill="none" stroke="#191970" d="M264.4081,-62.5812C272.7029,-62.311 281.2921,-62.0312 289.7582,-61.7554"/>
<polygon fill="#191970" stroke="#191970" points="290.1152,-65.2458 299.9959,-61.422 289.8872,-58.2495 290.1152,-65.2458"/>
</g>
<!-- Node225 -->
<g id="node4" class="node">
<title>Node225</title>
<g id="a_node4"><a xlink:href="classnlohmann_1_1detail_1_1exception.html#abf41a7e9178356314082284e6cfea278" target="_top" xlink:title="nlohmann::detail::exception\l::name">
<polygon fill="#ffffff" stroke="#000000" points="454,-44.5 454,-74.5 590,-74.5 590,-44.5 454,-44.5"/>
<text text-anchor="start" x="462" y="-62.5" font-family="Helvetica,sans-Serif" font-size="10.00" fill="#000000">nlohmann::detail::exception</text>
<text text-anchor="middle" x="522" y="-51.5" font-family="Helvetica,sans-Serif" font-size="10.00" fill="#000000">::name</text>
</a>
</g>
</g>
<!-- Node224&#45;&gt;Node225 -->
<g id="edge3" class="edge">
<title>Node224&#45;&gt;Node225</title>
<path fill="none" stroke="#191970" d="M409.2354,-93.3986C425.8909,-88.3917 444.5997,-82.7676 461.9194,-77.561"/>
<polygon fill="#191970" stroke="#191970" points="463.3615,-80.7823 471.9305,-74.5516 461.3462,-74.0787 463.3615,-80.7823"/>
</g>
<!-- Node226&#45;&gt;Node225 -->
<g id="edge5" class="edge">
<title>Node226&#45;&gt;Node225</title>
<path fill="none" stroke="#191970" d="M418.3078,-59.5C426.6169,-59.5 435.259,-59.5 443.8515,-59.5"/>
<polygon fill="#191970" stroke="#191970" points="443.8924,-63.0001 453.8924,-59.5 443.8924,-56.0001 443.8924,-63.0001"/>
</g>
<!-- Node227&#45;&gt;Node225 -->
<g id="edge7" class="edge">
<title>Node227&#45;&gt;Node225</title>
<path fill="none" stroke="#191970" d="M262.1571,-18.2996C305.1301,-20.9702 365.5489,-25.8986 418,-34.5 430.4353,-36.5392 443.5856,-39.254 456.1981,-42.1429"/>
<polygon fill="#191970" stroke="#191970" points="455.6382,-45.6066 466.1738,-44.4874 457.2398,-38.7923 455.6382,-45.6066"/>
</g>
</g>
</svg>
