<?xml version="1.0" encoding="UTF-8" standalone="no"?>
<!DOCTYPE svg PUBLIC "-//W3C//DTD SVG 1.1//EN"
 "http://www.w3.org/Graphics/SVG/1.1/DTD/svg11.dtd">
<!-- Generated by graphviz version 2.40.1 (20161225.0304)
 -->
<!-- Title: River::Model::next_point Pages: 1 -->
<svg width="517pt" height="53pt"
 viewBox="0.00 0.00 517.00 52.50" xmlns="http://www.w3.org/2000/svg" xmlns:xlink="http://www.w3.org/1999/xlink">
<g id="graph0" class="graph" transform="scale(1 1) rotate(0) translate(4 48.5)">
<title>River::Model::next_point</title>
<polygon fill="#ffffff" stroke="transparent" points="-4,4 -4,-48.5 513,-48.5 513,4 -4,4"/>
<!-- Node8 -->
<g id="node1" class="node">
<title>Node8</title>
<polygon fill="#bfbfbf" stroke="#000000" points="0,-14 0,-44 97,-44 97,-14 0,-14"/>
<text text-anchor="start" x="8" y="-32" font-family="Helvetica,sans-Serif" font-size="10.00" fill="#000000">River::Model::next</text>
<text text-anchor="middle" x="48.5" y="-21" font-family="Helvetica,sans-Serif" font-size="10.00" fill="#000000">_point</text>
</g>
<!-- Node9 -->
<g id="node2" class="node">
<title>Node9</title>
<g id="a_node2"><a xlink:href="classRiver_1_1Point.html#a5a80f76067f92be8434cafff8cf55380" target="_top" xlink:title="Returns Polar representation of vector. ">
<polygon fill="#ffffff" stroke="#000000" points="133,-19.5 133,-38.5 243,-38.5 243,-19.5 133,-19.5"/>
<text text-anchor="middle" x="188" y="-26.5" font-family="Helvetica,sans-Serif" font-size="10.00" fill="#000000">River::Point::getPolar</text>
</a>
</g>
</g>
<!-- Node8&#45;&gt;Node9 -->
<g id="edge1" class="edge">
<title>Node8&#45;&gt;Node9</title>
<path fill="none" stroke="#191970" d="M97.2903,-29C105.5353,-29 114.2109,-29 122.7944,-29"/>
<polygon fill="#191970" stroke="#191970" points="122.7971,-32.5001 132.797,-29 122.797,-25.5001 122.7971,-32.5001"/>
</g>
<!-- Node10 -->
<g id="node3" class="node">
<title>Node10</title>
<g id="a_node3"><a xlink:href="classRiver_1_1Point.html#a96d6c70f36acd051f5885163bc2de5b5" target="_top" xlink:title="Returns norm of vector. ">
<polygon fill="#ffffff" stroke="#000000" points="413,-19.5 413,-38.5 509,-38.5 509,-19.5 413,-19.5"/>
<text text-anchor="middle" x="461" y="-26.5" font-family="Helvetica,sans-Serif" font-size="10.00" fill="#000000">River::Point::norm</text>
</a>
</g>
</g>
<!-- Node9&#45;&gt;Node10 -->
<g id="edge2" class="edge">
<title>Node9&#45;&gt;Node10</title>
<path fill="none" stroke="#191970" d="M243.2456,-29C289.5494,-29 355.4663,-29 402.6262,-29"/>
<polygon fill="#191970" stroke="#191970" points="402.6892,-32.5001 412.6892,-29 402.6891,-25.5001 402.6892,-32.5001"/>
</g>
<!-- Node11 -->
<g id="node4" class="node">
<title>Node11</title>
<g id="a_node4"><a xlink:href="classRiver_1_1Point.html#a24deaa21918d47a5d4fea7e0a7e4b61b" target="_top" xlink:title="Returns angle. ">
<polygon fill="#ffffff" stroke="#000000" points="279,-.5 279,-19.5 377,-19.5 377,-.5 279,-.5"/>
<text text-anchor="middle" x="328" y="-7.5" font-family="Helvetica,sans-Serif" font-size="10.00" fill="#000000">River::Point::angle</text>
</a>
</g>
</g>
<!-- Node9&#45;&gt;Node11 -->
<g id="edge3" class="edge">
<title>Node9&#45;&gt;Node11</title>
<path fill="none" stroke="#191970" d="M243.3317,-21.4907C251.6997,-20.355 260.3604,-19.1797 268.8061,-18.0335"/>
<polygon fill="#191970" stroke="#191970" points="269.5288,-21.4676 278.9672,-16.6545 268.5873,-14.5311 269.5288,-21.4676"/>
</g>
<!-- Node11&#45;&gt;Node10 -->
<g id="edge4" class="edge">
<title>Node11&#45;&gt;Node10</title>
<path fill="none" stroke="#191970" d="M377.1464,-17.0209C385.5498,-18.2214 394.3506,-19.4787 402.9592,-20.7085"/>
<polygon fill="#191970" stroke="#191970" points="402.5469,-24.185 412.9414,-22.1345 403.5369,-17.2554 402.5469,-24.185"/>
</g>
</g>
</svg>
