<?xml version="1.0" encoding="UTF-8" standalone="no"?>
<!DOCTYPE svg PUBLIC "-//W3C//DTD SVG 1.1//EN"
 "http://www.w3.org/Graphics/SVG/1.1/DTD/svg11.dtd">
<!-- Generated by graphviz version 2.40.1 (20161225.0304)
 -->
<!-- Title: nlohmann::basic_json::flatten Pages: 1 -->
<svg width="272pt" height="39pt"
 viewBox="0.00 0.00 272.00 39.00" xmlns="http://www.w3.org/2000/svg" xmlns:xlink="http://www.w3.org/1999/xlink">
<g id="graph0" class="graph" transform="scale(1 1) rotate(0) translate(4 35)">
<title>nlohmann::basic_json::flatten</title>
<polygon fill="#ffffff" stroke="transparent" points="-4,4 -4,-35 268,-35 268,4 -4,4"/>
<!-- Node555 -->
<g id="node1" class="node">
<title>Node555</title>
<polygon fill="#bfbfbf" stroke="#000000" points="0,-.5 0,-30.5 111,-30.5 111,-.5 0,-.5"/>
<text text-anchor="start" x="8" y="-18.5" font-family="Helvetica,sans-Serif" font-size="10.00" fill="#000000">nlohmann::basic_json</text>
<text text-anchor="middle" x="55.5" y="-7.5" font-family="Helvetica,sans-Serif" font-size="10.00" fill="#000000">::flatten</text>
</g>
<!-- Node556 -->
<g id="node2" class="node">
<title>Node556</title>
<g id="a_node2"><a xlink:href="classnlohmann_1_1json__pointer.html#ab0d7759d0caa6a0c0187916da28e6ee7" target="_top" xlink:title="nlohmann::json_pointer\l::flatten">
<polygon fill="#ffffff" stroke="#000000" points="147,-.5 147,-30.5 264,-30.5 264,-.5 147,-.5"/>
<text text-anchor="start" x="155" y="-18.5" font-family="Helvetica,sans-Serif" font-size="10.00" fill="#000000">nlohmann::json_pointer</text>
<text text-anchor="middle" x="205.5" y="-7.5" font-family="Helvetica,sans-Serif" font-size="10.00" fill="#000000">::flatten</text>
</a>
</g>
</g>
<!-- Node555&#45;&gt;Node556 -->
<g id="edge1" class="edge">
<title>Node555&#45;&gt;Node556</title>
<path fill="none" stroke="#191970" d="M111.3545,-15.5C119.5857,-15.5 128.1467,-15.5 136.6035,-15.5"/>
<polygon fill="#191970" stroke="#191970" points="136.8381,-19.0001 146.8381,-15.5 136.8381,-12.0001 136.8381,-19.0001"/>
</g>
</g>
</svg>
