<?xml version="1.0" encoding="UTF-8" standalone="no"?>
<!DOCTYPE svg PUBLIC "-//W3C//DTD SVG 1.1//EN"
 "http://www.w3.org/Graphics/SVG/1.1/DTD/svg11.dtd">
<!-- Generated by graphviz version 2.40.1 (20161225.0304)
 -->
<!-- Title: nlohmann::basic_json::diff Pages: 1 -->
<svg width="618pt" height="470pt"
 viewBox="0.00 0.00 618.00 470.00" xmlns="http://www.w3.org/2000/svg" xmlns:xlink="http://www.w3.org/1999/xlink">
<g id="graph0" class="graph" transform="scale(1 1) rotate(0) translate(4 466)">
<title>nlohmann::basic_json::diff</title>
<polygon fill="#ffffff" stroke="transparent" points="-4,4 -4,-466 614,-466 614,4 -4,4"/>
<!-- Node590 -->
<g id="node1" class="node">
<title>Node590</title>
<polygon fill="#bfbfbf" stroke="#000000" points="0,-218.5 0,-248.5 111,-248.5 111,-218.5 0,-218.5"/>
<text text-anchor="start" x="8" y="-236.5" font-family="Helvetica,sans-Serif" font-size="10.00" fill="#000000">nlohmann::basic_json</text>
<text text-anchor="middle" x="55.5" y="-225.5" font-family="Helvetica,sans-Serif" font-size="10.00" fill="#000000">::diff</text>
</g>
<!-- Node591 -->
<g id="node2" class="node">
<title>Node591</title>
<g id="a_node2"><a xlink:href="classnlohmann_1_1basic__json.html#a2b2d781d7f2a4ee41bc0016e931cadf7" target="_top" xlink:title="return the type of the JSON value (explicit) ">
<polygon fill="#ffffff" stroke="#000000" points="158,-431.5 158,-461.5 269,-461.5 269,-431.5 158,-431.5"/>
<text text-anchor="start" x="166" y="-449.5" font-family="Helvetica,sans-Serif" font-size="10.00" fill="#000000">nlohmann::basic_json</text>
<text text-anchor="middle" x="213.5" y="-438.5" font-family="Helvetica,sans-Serif" font-size="10.00" fill="#000000">::type</text>
</a>
</g>
</g>
<!-- Node590&#45;&gt;Node591 -->
<g id="edge1" class="edge">
<title>Node590&#45;&gt;Node591</title>
<path fill="none" stroke="#191970" d="M58.6919,-248.6025C66.9452,-284.0347 92.2797,-373.2195 147,-422.5 148.3168,-423.6859 149.6965,-424.8143 151.128,-425.8881"/>
<polygon fill="#191970" stroke="#191970" points="149.5058,-429.0056 159.8129,-431.4581 153.2849,-423.1133 149.5058,-429.0056"/>
</g>
<!-- Node592 -->
<g id="node3" class="node">
<title>Node592</title>
<g id="a_node3"><a xlink:href="classnlohmann_1_1basic__json.html#ac8e523ddc8c2dd7e5d2daf0d49a9c0d7" target="_top" xlink:title="add an object to an array ">
<polygon fill="#ffffff" stroke="#000000" points="158,-382.5 158,-412.5 269,-412.5 269,-382.5 158,-382.5"/>
<text text-anchor="start" x="166" y="-400.5" font-family="Helvetica,sans-Serif" font-size="10.00" fill="#000000">nlohmann::basic_json</text>
<text text-anchor="middle" x="213.5" y="-389.5" font-family="Helvetica,sans-Serif" font-size="10.00" fill="#000000">::push_back</text>
</a>
</g>
</g>
<!-- Node590&#45;&gt;Node592 -->
<g id="edge2" class="edge">
<title>Node590&#45;&gt;Node592</title>
<path fill="none" stroke="#191970" d="M61.5979,-248.8909C73.6674,-277.459 103.2722,-338.9181 147,-373.5 148.76,-374.8919 150.6077,-376.2073 152.5217,-377.4502"/>
<polygon fill="#191970" stroke="#191970" points="150.8516,-380.527 161.2711,-382.4465 154.3229,-374.4483 150.8516,-380.527"/>
</g>
<!-- Node595 -->
<g id="node6" class="node">
<title>Node595</title>
<g id="a_node6"><a xlink:href="classnlohmann_1_1basic__json.html#a25e27ad0c6d53c01871c5485e1f75b96" target="_top" xlink:title="returns the number of elements ">
<polygon fill="#ffffff" stroke="#000000" points="158,-333.5 158,-363.5 269,-363.5 269,-333.5 158,-333.5"/>
<text text-anchor="start" x="166" y="-351.5" font-family="Helvetica,sans-Serif" font-size="10.00" fill="#000000">nlohmann::basic_json</text>
<text text-anchor="middle" x="213.5" y="-340.5" font-family="Helvetica,sans-Serif" font-size="10.00" fill="#000000">::size</text>
</a>
</g>
</g>
<!-- Node590&#45;&gt;Node595 -->
<g id="edge5" class="edge">
<title>Node590&#45;&gt;Node595</title>
<path fill="none" stroke="#191970" d="M67.2357,-248.7659C83.2806,-268.7019 113.8757,-303.5242 147,-324.5 149.5616,-326.1222 152.2481,-327.6547 155.0115,-329.0999"/>
<polygon fill="#191970" stroke="#191970" points="153.5089,-332.2609 164.0401,-333.4206 156.5307,-325.9467 153.5089,-332.2609"/>
</g>
<!-- Node596 -->
<g id="node7" class="node">
<title>Node596</title>
<g id="a_node7"><a xlink:href="classnlohmann_1_1basic__json.html#a0136728f5db69d4051c77b94307abd6c" target="_top" xlink:title="inserts element ">
<polygon fill="#ffffff" stroke="#000000" points="158,-284.5 158,-314.5 269,-314.5 269,-284.5 158,-284.5"/>
<text text-anchor="start" x="166" y="-302.5" font-family="Helvetica,sans-Serif" font-size="10.00" fill="#000000">nlohmann::basic_json</text>
<text text-anchor="middle" x="213.5" y="-291.5" font-family="Helvetica,sans-Serif" font-size="10.00" fill="#000000">::insert</text>
</a>
</g>
</g>
<!-- Node590&#45;&gt;Node596 -->
<g id="edge6" class="edge">
<title>Node590&#45;&gt;Node596</title>
<path fill="none" stroke="#191970" d="M87.8967,-248.6023C105.3041,-256.5682 127.2003,-266.3513 147,-274.5 152.0613,-276.583 157.3661,-278.6951 162.6779,-280.7635"/>
<polygon fill="#191970" stroke="#191970" points="161.6056,-284.101 172.1955,-284.4239 164.1183,-277.5675 161.6056,-284.101"/>
</g>
<!-- Node598 -->
<g id="node9" class="node">
<title>Node598</title>
<g id="a_node9"><a xlink:href="classnlohmann_1_1basic__json.html#a13e032a02a7fd8a93fdddc2fcbc4763c" target="_top" xlink:title="returns an iterator to one past the last element ">
<polygon fill="#ffffff" stroke="#000000" points="147,-246 147,-265 280,-265 280,-246 147,-246"/>
<text text-anchor="middle" x="213.5" y="-253" font-family="Helvetica,sans-Serif" font-size="10.00" fill="#000000">nlohmann::basic_json::end</text>
</a>
</g>
</g>
<!-- Node590&#45;&gt;Node598 -->
<g id="edge10" class="edge">
<title>Node590&#45;&gt;Node598</title>
<path fill="none" stroke="#191970" d="M111.2049,-241.2564C119.5064,-242.4123 128.1849,-243.6207 136.8262,-244.8239"/>
<polygon fill="#191970" stroke="#191970" points="136.5413,-248.3179 146.9285,-246.2305 137.5067,-241.3848 136.5413,-248.3179"/>
</g>
<!-- Node600 -->
<g id="node11" class="node">
<title>Node600</title>
<g id="a_node11"><a xlink:href="classnlohmann_1_1basic__json.html#a0ff28dac23f2bdecee9564d07f51dcdc" target="_top" xlink:title="returns an iterator to the first element ">
<polygon fill="#ffffff" stroke="#000000" points="158,-147.5 158,-177.5 269,-177.5 269,-147.5 158,-147.5"/>
<text text-anchor="start" x="166" y="-165.5" font-family="Helvetica,sans-Serif" font-size="10.00" fill="#000000">nlohmann::basic_json</text>
<text text-anchor="middle" x="213.5" y="-154.5" font-family="Helvetica,sans-Serif" font-size="10.00" fill="#000000">::begin</text>
</a>
</g>
</g>
<!-- Node590&#45;&gt;Node600 -->
<g id="edge12" class="edge">
<title>Node590&#45;&gt;Node600</title>
<path fill="none" stroke="#191970" d="M83.5688,-218.4157C101.4874,-209.0303 125.3383,-196.9848 147,-187.5 151.7506,-185.4199 156.7347,-183.3487 161.7473,-181.3395"/>
<polygon fill="#191970" stroke="#191970" points="163.3365,-184.4759 171.3682,-177.5663 160.7806,-177.9591 163.3365,-184.4759"/>
</g>
<!-- Node602 -->
<g id="node13" class="node">
<title>Node602</title>
<g id="a_node13"><a xlink:href="classnlohmann_1_1basic__json.html#ad865d6c291b237ae508d5cb2146b5877" target="_top" xlink:title="returns a const iterator to the first element ">
<polygon fill="#ffffff" stroke="#000000" points="158,-98.5 158,-128.5 269,-128.5 269,-98.5 158,-98.5"/>
<text text-anchor="start" x="166" y="-116.5" font-family="Helvetica,sans-Serif" font-size="10.00" fill="#000000">nlohmann::basic_json</text>
<text text-anchor="middle" x="213.5" y="-105.5" font-family="Helvetica,sans-Serif" font-size="10.00" fill="#000000">::cbegin</text>
</a>
</g>
</g>
<!-- Node590&#45;&gt;Node602 -->
<g id="edge14" class="edge">
<title>Node590&#45;&gt;Node602</title>
<path fill="none" stroke="#191970" d="M66.2461,-218.4293C81.8443,-197.5542 112.6712,-159.887 147,-137.5 149.4096,-135.9286 151.9354,-134.4438 154.5359,-133.0428"/>
<polygon fill="#191970" stroke="#191970" points="156.1653,-136.1421 163.6052,-128.599 153.0852,-129.8561 156.1653,-136.1421"/>
</g>
<!-- Node603 -->
<g id="node14" class="node">
<title>Node603</title>
<g id="a_node14"><a xlink:href="classnlohmann_1_1basic__json.html#a8dba7b7d2f38e6b0c614030aa43983f6" target="_top" xlink:title="returns a const iterator to one past the last element ">
<polygon fill="#ffffff" stroke="#000000" points="158,-196.5 158,-226.5 269,-226.5 269,-196.5 158,-196.5"/>
<text text-anchor="start" x="166" y="-214.5" font-family="Helvetica,sans-Serif" font-size="10.00" fill="#000000">nlohmann::basic_json</text>
<text text-anchor="middle" x="213.5" y="-203.5" font-family="Helvetica,sans-Serif" font-size="10.00" fill="#000000">::cend</text>
</a>
</g>
</g>
<!-- Node590&#45;&gt;Node603 -->
<g id="edge16" class="edge">
<title>Node590&#45;&gt;Node603</title>
<path fill="none" stroke="#191970" d="M111.2049,-225.7436C123.0047,-224.1006 135.5661,-222.3516 147.6999,-220.662"/>
<polygon fill="#191970" stroke="#191970" points="148.3439,-224.1062 157.7656,-219.2605 147.3784,-217.1731 148.3439,-224.1062"/>
</g>
<!-- Node604 -->
<g id="node15" class="node">
<title>Node604</title>
<g id="a_node15"><a xlink:href="classnlohmann_1_1json__pointer.html#a8abf3577f9a0087f29a233893cdc73ad" target="_top" xlink:title="escape &quot;~&quot; to &quot;~0&quot; and &quot;/&quot; to &quot;~1&quot; ">
<polygon fill="#ffffff" stroke="#000000" points="155,-49.5 155,-79.5 272,-79.5 272,-49.5 155,-49.5"/>
<text text-anchor="start" x="163" y="-67.5" font-family="Helvetica,sans-Serif" font-size="10.00" fill="#000000">nlohmann::json_pointer</text>
<text text-anchor="middle" x="213.5" y="-56.5" font-family="Helvetica,sans-Serif" font-size="10.00" fill="#000000">::escape</text>
</a>
</g>
</g>
<!-- Node590&#45;&gt;Node604 -->
<g id="edge18" class="edge">
<title>Node590&#45;&gt;Node604</title>
<path fill="none" stroke="#191970" d="M61.0814,-218.4714C72.6529,-189.2959 101.9925,-124.6813 147,-88.5 148.5784,-87.2311 150.2296,-86.0261 151.9377,-84.882"/>
<polygon fill="#191970" stroke="#191970" points="154.0115,-87.7239 160.8779,-79.6552 150.4785,-81.6809 154.0115,-87.7239"/>
</g>
<!-- Node605 -->
<g id="node16" class="node">
<title>Node605</title>
<g id="a_node16"><a xlink:href="classnlohmann_1_1basic__json.html#a89eb3928f57903677051c80534be9cb1" target="_top" xlink:title="find an element in a JSON object ">
<polygon fill="#ffffff" stroke="#000000" points="158,-.5 158,-30.5 269,-30.5 269,-.5 158,-.5"/>
<text text-anchor="start" x="166" y="-18.5" font-family="Helvetica,sans-Serif" font-size="10.00" fill="#000000">nlohmann::basic_json</text>
<text text-anchor="middle" x="213.5" y="-7.5" font-family="Helvetica,sans-Serif" font-size="10.00" fill="#000000">::find</text>
</a>
</g>
</g>
<!-- Node590&#45;&gt;Node605 -->
<g id="edge19" class="edge">
<title>Node590&#45;&gt;Node605</title>
<path fill="none" stroke="#191970" d="M58.5102,-218.272C66.4348,-182.0979 91.2227,-90.2478 147,-39.5 148.3107,-38.3075 149.6851,-37.1731 151.1119,-36.0941"/>
<polygon fill="#191970" stroke="#191970" points="153.2727,-38.8652 159.7761,-30.5012 149.4763,-32.9841 153.2727,-38.8652"/>
</g>
<!-- Node593 -->
<g id="node4" class="node">
<title>Node593</title>
<g id="a_node4"><a xlink:href="classnlohmann_1_1detail_1_1type__error.html#aecc083aea4b698c33d042670ba50c10f" target="_top" xlink:title="nlohmann::detail::type\l_error::create">
<polygon fill="#ffffff" stroke="#000000" points="320.5,-333.5 320.5,-363.5 433.5,-363.5 433.5,-333.5 320.5,-333.5"/>
<text text-anchor="start" x="328.5" y="-351.5" font-family="Helvetica,sans-Serif" font-size="10.00" fill="#000000">nlohmann::detail::type</text>
<text text-anchor="middle" x="377" y="-340.5" font-family="Helvetica,sans-Serif" font-size="10.00" fill="#000000">_error::create</text>
</a>
</g>
</g>
<!-- Node592&#45;&gt;Node593 -->
<g id="edge3" class="edge">
<title>Node592&#45;&gt;Node593</title>
<path fill="none" stroke="#191970" d="M263.8895,-382.3986C280.5961,-377.3917 299.3623,-371.7676 316.7351,-366.561"/>
<polygon fill="#191970" stroke="#191970" points="318.2026,-369.7751 326.7769,-363.5516 316.193,-363.0698 318.2026,-369.7751"/>
</g>
<!-- Node594 -->
<g id="node5" class="node">
<title>Node594</title>
<g id="a_node5"><a xlink:href="classnlohmann_1_1detail_1_1exception.html#abf41a7e9178356314082284e6cfea278" target="_top" xlink:title="nlohmann::detail::exception\l::name">
<polygon fill="#ffffff" stroke="#000000" points="474,-308.5 474,-338.5 610,-338.5 610,-308.5 474,-308.5"/>
<text text-anchor="start" x="482" y="-326.5" font-family="Helvetica,sans-Serif" font-size="10.00" fill="#000000">nlohmann::detail::exception</text>
<text text-anchor="middle" x="542" y="-315.5" font-family="Helvetica,sans-Serif" font-size="10.00" fill="#000000">::name</text>
</a>
</g>
</g>
<!-- Node593&#45;&gt;Node594 -->
<g id="edge4" class="edge">
<title>Node593&#45;&gt;Node594</title>
<path fill="none" stroke="#191970" d="M433.7836,-339.8964C443.4319,-338.4346 453.6016,-336.8937 463.6875,-335.3655"/>
<polygon fill="#191970" stroke="#191970" points="464.3604,-338.8036 473.7232,-333.845 463.3117,-331.8826 464.3604,-338.8036"/>
</g>
<!-- Node596&#45;&gt;Node593 -->
<g id="edge9" class="edge">
<title>Node596&#45;&gt;Node593</title>
<path fill="none" stroke="#191970" d="M263.8895,-314.6014C280.5961,-319.6083 299.3623,-325.2324 316.7351,-330.439"/>
<polygon fill="#191970" stroke="#191970" points="316.193,-333.9302 326.7769,-333.4484 318.2026,-327.2249 316.193,-333.9302"/>
</g>
<!-- Node597 -->
<g id="node8" class="node">
<title>Node597</title>
<g id="a_node8"><a xlink:href="classnlohmann_1_1detail_1_1invalid__iterator.html#a4e849260a3caa1b288c7e619130c6c09" target="_top" xlink:title="nlohmann::detail::invalid\l_iterator::create">
<polygon fill="#ffffff" stroke="#000000" points="316,-284.5 316,-314.5 438,-314.5 438,-284.5 316,-284.5"/>
<text text-anchor="start" x="324" y="-302.5" font-family="Helvetica,sans-Serif" font-size="10.00" fill="#000000">nlohmann::detail::invalid</text>
<text text-anchor="middle" x="377" y="-291.5" font-family="Helvetica,sans-Serif" font-size="10.00" fill="#000000">_iterator::create</text>
</a>
</g>
</g>
<!-- Node596&#45;&gt;Node597 -->
<g id="edge7" class="edge">
<title>Node596&#45;&gt;Node597</title>
<path fill="none" stroke="#191970" d="M269.3101,-299.5C281.0183,-299.5 293.5185,-299.5 305.7036,-299.5"/>
<polygon fill="#191970" stroke="#191970" points="305.8407,-303.0001 315.8407,-299.5 305.8407,-296.0001 305.8407,-303.0001"/>
</g>
<!-- Node597&#45;&gt;Node594 -->
<g id="edge8" class="edge">
<title>Node597&#45;&gt;Node594</title>
<path fill="none" stroke="#191970" d="M438.4399,-308.4367C446.7377,-309.6437 455.34,-310.8949 463.8797,-312.137"/>
<polygon fill="#191970" stroke="#191970" points="463.4539,-315.6119 473.8536,-313.5878 464.4616,-308.6848 463.4539,-315.6119"/>
</g>
<!-- Node599 -->
<g id="node10" class="node">
<title>Node599</title>
<g id="a_node10"><a xlink:href="classnlohmann_1_1detail_1_1iter__impl.html#a23e50ad4c13aa62d9ac7f60a123823ee" target="_top" xlink:title="set the iterator past the last value ">
<polygon fill="#ffffff" stroke="#000000" points="323.5,-215.5 323.5,-245.5 430.5,-245.5 430.5,-215.5 323.5,-215.5"/>
<text text-anchor="start" x="331.5" y="-233.5" font-family="Helvetica,sans-Serif" font-size="10.00" fill="#000000">nlohmann::detail::iter</text>
<text text-anchor="middle" x="377" y="-222.5" font-family="Helvetica,sans-Serif" font-size="10.00" fill="#000000">_impl::set_end</text>
</a>
</g>
</g>
<!-- Node598&#45;&gt;Node599 -->
<g id="edge11" class="edge">
<title>Node598&#45;&gt;Node599</title>
<path fill="none" stroke="#191970" d="M275.7788,-245.9773C288.0463,-244.1015 300.935,-242.1307 313.2502,-240.2477"/>
<polygon fill="#191970" stroke="#191970" points="314.0779,-243.6619 323.4339,-238.6905 313.0198,-236.7423 314.0779,-243.6619"/>
</g>
<!-- Node601 -->
<g id="node12" class="node">
<title>Node601</title>
<g id="a_node12"><a xlink:href="classnlohmann_1_1detail_1_1iter__impl.html#a5d5f92c7f6848814bc82cf7e4e541820" target="_top" xlink:title="set the iterator to the first value ">
<polygon fill="#ffffff" stroke="#000000" points="323.5,-123.5 323.5,-153.5 430.5,-153.5 430.5,-123.5 323.5,-123.5"/>
<text text-anchor="start" x="331.5" y="-141.5" font-family="Helvetica,sans-Serif" font-size="10.00" fill="#000000">nlohmann::detail::iter</text>
<text text-anchor="middle" x="377" y="-130.5" font-family="Helvetica,sans-Serif" font-size="10.00" fill="#000000">_impl::set_begin</text>
</a>
</g>
</g>
<!-- Node600&#45;&gt;Node601 -->
<g id="edge13" class="edge">
<title>Node600&#45;&gt;Node601</title>
<path fill="none" stroke="#191970" d="M269.3101,-154.3077C283.5161,-152.2224 298.8879,-149.966 313.4483,-147.8287"/>
<polygon fill="#191970" stroke="#191970" points="313.989,-151.2869 323.3747,-146.3716 312.9723,-144.3611 313.989,-151.2869"/>
</g>
<!-- Node602&#45;&gt;Node601 -->
<g id="edge15" class="edge">
<title>Node602&#45;&gt;Node601</title>
<path fill="none" stroke="#191970" d="M269.3101,-122.0337C283.5161,-124.2058 298.8879,-126.5563 313.4483,-128.7826"/>
<polygon fill="#191970" stroke="#191970" points="312.9605,-132.2486 323.3747,-130.3004 314.0186,-125.329 312.9605,-132.2486"/>
</g>
<!-- Node603&#45;&gt;Node599 -->
<g id="edge17" class="edge">
<title>Node603&#45;&gt;Node599</title>
<path fill="none" stroke="#191970" d="M269.3101,-217.9856C283.3795,-219.6206 298.5924,-221.3884 313.0281,-223.066"/>
<polygon fill="#191970" stroke="#191970" points="313.0375,-226.5905 323.3747,-224.2683 313.8456,-219.6373 313.0375,-226.5905"/>
</g>
</g>
</svg>
