<?xml version="1.0" encoding="UTF-8" standalone="no"?>
<!DOCTYPE svg PUBLIC "-//W3C//DTD SVG 1.1//EN"
 "http://www.w3.org/Graphics/SVG/1.1/DTD/svg11.dtd">
<!-- Generated by graphviz version 2.40.1 (20161225.0304)
 -->
<!-- Title: nlohmann::basic_json::at Pages: 1 -->
<svg width="454pt" height="88pt"
 viewBox="0.00 0.00 454.00 88.00" xmlns="http://www.w3.org/2000/svg" xmlns:xlink="http://www.w3.org/1999/xlink">
<g id="graph0" class="graph" transform="scale(1 1) rotate(0) translate(4 84)">
<title>nlohmann::basic_json::at</title>
<polygon fill="#ffffff" stroke="transparent" points="-4,4 -4,-84 450,-84 450,4 -4,4"/>
<!-- Node182 -->
<g id="node1" class="node">
<title>Node182</title>
<polygon fill="#bfbfbf" stroke="#000000" points="0,-30 0,-49 125,-49 125,-30 0,-30"/>
<text text-anchor="middle" x="62.5" y="-37" font-family="Helvetica,sans-Serif" font-size="10.00" fill="#000000">nlohmann::basic_json::at</text>
</g>
<!-- Node183 -->
<g id="node2" class="node">
<title>Node183</title>
<g id="a_node2"><a xlink:href="classnlohmann_1_1detail_1_1out__of__range.html#a3f6d82a6f967c4728a1ec735a7867073" target="_top" xlink:title="nlohmann::detail::out\l_of_range::create">
<polygon fill="#ffffff" stroke="#000000" points="164,-49.5 164,-79.5 271,-79.5 271,-49.5 164,-49.5"/>
<text text-anchor="start" x="172" y="-67.5" font-family="Helvetica,sans-Serif" font-size="10.00" fill="#000000">nlohmann::detail::out</text>
<text text-anchor="middle" x="217.5" y="-56.5" font-family="Helvetica,sans-Serif" font-size="10.00" fill="#000000">_of_range::create</text>
</a>
</g>
</g>
<!-- Node182&#45;&gt;Node183 -->
<g id="edge1" class="edge">
<title>Node182&#45;&gt;Node183</title>
<path fill="none" stroke="#191970" d="M121.541,-49.0227C132.1088,-50.7272 143.1627,-52.5101 153.8532,-54.2344"/>
<polygon fill="#191970" stroke="#191970" points="153.5339,-57.728 163.9637,-55.8651 154.6486,-50.8174 153.5339,-57.728"/>
</g>
<!-- Node185 -->
<g id="node4" class="node">
<title>Node185</title>
<g id="a_node4"><a xlink:href="classnlohmann_1_1detail_1_1type__error.html#aecc083aea4b698c33d042670ba50c10f" target="_top" xlink:title="nlohmann::detail::type\l_error::create">
<polygon fill="#ffffff" stroke="#000000" points="161,-.5 161,-30.5 274,-30.5 274,-.5 161,-.5"/>
<text text-anchor="start" x="169" y="-18.5" font-family="Helvetica,sans-Serif" font-size="10.00" fill="#000000">nlohmann::detail::type</text>
<text text-anchor="middle" x="217.5" y="-7.5" font-family="Helvetica,sans-Serif" font-size="10.00" fill="#000000">_error::create</text>
</a>
</g>
</g>
<!-- Node182&#45;&gt;Node185 -->
<g id="edge3" class="edge">
<title>Node182&#45;&gt;Node185</title>
<path fill="none" stroke="#191970" d="M124.2055,-29.9456C132.9769,-28.5875 142.0302,-27.1857 150.8898,-25.8138"/>
<polygon fill="#191970" stroke="#191970" points="151.4382,-29.2707 160.7849,-24.2817 150.367,-22.3532 151.4382,-29.2707"/>
</g>
<!-- Node184 -->
<g id="node3" class="node">
<title>Node184</title>
<g id="a_node3"><a xlink:href="classnlohmann_1_1detail_1_1exception.html#abf41a7e9178356314082284e6cfea278" target="_top" xlink:title="nlohmann::detail::exception\l::name">
<polygon fill="#ffffff" stroke="#000000" points="310,-24.5 310,-54.5 446,-54.5 446,-24.5 310,-24.5"/>
<text text-anchor="start" x="318" y="-42.5" font-family="Helvetica,sans-Serif" font-size="10.00" fill="#000000">nlohmann::detail::exception</text>
<text text-anchor="middle" x="378" y="-31.5" font-family="Helvetica,sans-Serif" font-size="10.00" fill="#000000">::name</text>
</a>
</g>
</g>
<!-- Node183&#45;&gt;Node184 -->
<g id="edge2" class="edge">
<title>Node183&#45;&gt;Node184</title>
<path fill="none" stroke="#191970" d="M271.3907,-56.1058C280.5829,-54.674 290.2941,-53.1613 299.9626,-51.6554"/>
<polygon fill="#191970" stroke="#191970" points="300.6568,-55.0895 309.999,-50.0921 299.5794,-48.1729 300.6568,-55.0895"/>
</g>
<!-- Node185&#45;&gt;Node184 -->
<g id="edge4" class="edge">
<title>Node185&#45;&gt;Node184</title>
<path fill="none" stroke="#191970" d="M274.0863,-23.9615C282.3895,-25.2031 291.0638,-26.5002 299.7078,-27.7928"/>
<polygon fill="#191970" stroke="#191970" points="299.4095,-31.287 309.8172,-29.3044 300.4448,-24.364 299.4095,-31.287"/>
</g>
</g>
</svg>
