<?xml version="1.0" encoding="UTF-8" standalone="no"?>
<!DOCTYPE svg PUBLIC "-//W3C//DTD SVG 1.1//EN"
 "http://www.w3.org/Graphics/SVG/1.1/DTD/svg11.dtd">
<!-- Generated by graphviz version 2.40.1 (20161225.0304)
 -->
<!-- Title: nlohmann::detail::out_of_range::create Pages: 1 -->
<svg width="532pt" height="851pt"
 viewBox="0.00 0.00 532.00 850.50" xmlns="http://www.w3.org/2000/svg" xmlns:xlink="http://www.w3.org/1999/xlink">
<g id="graph0" class="graph" transform="scale(1 1) rotate(0) translate(4 846.5)">
<title>nlohmann::detail::out_of_range::create</title>
<polygon fill="#ffffff" stroke="transparent" points="-4,4 -4,-846.5 528,-846.5 528,4 -4,4"/>
<!-- Node4 -->
<g id="node1" class="node">
<title>Node4</title>
<polygon fill="#bfbfbf" stroke="#000000" points="0,-406.5 0,-436.5 107,-436.5 107,-406.5 0,-406.5"/>
<text text-anchor="start" x="8" y="-424.5" font-family="Helvetica,sans-Serif" font-size="10.00" fill="#000000">nlohmann::detail::out</text>
<text text-anchor="middle" x="53.5" y="-413.5" font-family="Helvetica,sans-Serif" font-size="10.00" fill="#000000">_of_range::create</text>
</g>
<!-- Node5 -->
<g id="node2" class="node">
<title>Node5</title>
<g id="a_node2"><a xlink:href="classnlohmann_1_1detail_1_1json__sax__dom__parser.html#a9929b4cc92d471c49bd0a92802629f90" target="_top" xlink:title="nlohmann::detail::json\l_sax_dom_parser::start\l_object">
<polygon fill="#ffffff" stroke="#000000" points="156.5,-801 156.5,-842 275.5,-842 275.5,-801 156.5,-801"/>
<text text-anchor="start" x="164.5" y="-830" font-family="Helvetica,sans-Serif" font-size="10.00" fill="#000000">nlohmann::detail::json</text>
<text text-anchor="start" x="164.5" y="-819" font-family="Helvetica,sans-Serif" font-size="10.00" fill="#000000">_sax_dom_parser::start</text>
<text text-anchor="middle" x="216" y="-808" font-family="Helvetica,sans-Serif" font-size="10.00" fill="#000000">_object</text>
</a>
</g>
</g>
<!-- Node4&#45;&gt;Node5 -->
<g id="edge1" class="edge">
<title>Node4&#45;&gt;Node5</title>
<path fill="none" stroke="#191970" d="M56.5996,-446.7492C66.2033,-521.301 97.5739,-738.5543 143,-791.5 146.8365,-795.9716 151.4438,-799.7875 156.4547,-803.0417"/>
<polygon fill="#191970" stroke="#191970" points="60.0711,-446.3023 55.3415,-436.8217 53.1266,-447.1824 60.0711,-446.3023"/>
</g>
<!-- Node6 -->
<g id="node3" class="node">
<title>Node6</title>
<g id="a_node3"><a xlink:href="classnlohmann_1_1detail_1_1json__sax__dom__parser.html#a056b895d011efaf48ea096c024aca0d4" target="_top" xlink:title="nlohmann::detail::json\l_sax_dom_parser::start_array">
<polygon fill="#ffffff" stroke="#000000" points="143,-751.5 143,-781.5 289,-781.5 289,-751.5 143,-751.5"/>
<text text-anchor="start" x="151" y="-769.5" font-family="Helvetica,sans-Serif" font-size="10.00" fill="#000000">nlohmann::detail::json</text>
<text text-anchor="middle" x="216" y="-758.5" font-family="Helvetica,sans-Serif" font-size="10.00" fill="#000000">_sax_dom_parser::start_array</text>
</a>
</g>
</g>
<!-- Node4&#45;&gt;Node6 -->
<g id="edge2" class="edge">
<title>Node4&#45;&gt;Node6</title>
<path fill="none" stroke="#191970" d="M57.503,-446.9672C68.6451,-514.8627 101.9169,-697.9958 143,-741.5 146.6791,-745.3959 150.9906,-748.6846 155.6473,-751.4609"/>
<polygon fill="#191970" stroke="#191970" points="60.9014,-446.0567 55.8504,-436.7434 53.9911,-447.1738 60.9014,-446.0567"/>
</g>
<!-- Node7 -->
<g id="node4" class="node">
<title>Node7</title>
<g id="a_node4"><a xlink:href="classnlohmann_1_1detail_1_1json__sax__dom__callback__parser.html#a040e60243cc7c18a6078c6b83cdb4a81" target="_top" xlink:title="nlohmann::detail::json\l_sax_dom_callback_parser\l::start_object">
<polygon fill="#ffffff" stroke="#000000" points="148.5,-691 148.5,-732 283.5,-732 283.5,-691 148.5,-691"/>
<text text-anchor="start" x="156.5" y="-720" font-family="Helvetica,sans-Serif" font-size="10.00" fill="#000000">nlohmann::detail::json</text>
<text text-anchor="start" x="156.5" y="-709" font-family="Helvetica,sans-Serif" font-size="10.00" fill="#000000">_sax_dom_callback_parser</text>
<text text-anchor="middle" x="216" y="-698" font-family="Helvetica,sans-Serif" font-size="10.00" fill="#000000">::start_object</text>
</a>
</g>
</g>
<!-- Node4&#45;&gt;Node7 -->
<g id="edge3" class="edge">
<title>Node4&#45;&gt;Node7</title>
<path fill="none" stroke="#191970" d="M55.3921,-446.7119C60.5086,-497.6087 78.914,-613.5582 143,-681.5 146.2907,-684.9886 150.046,-688.0841 154.0776,-690.8287"/>
<polygon fill="#191970" stroke="#191970" points="58.8639,-446.2432 54.4677,-436.6035 51.893,-446.8808 58.8639,-446.2432"/>
</g>
<!-- Node8 -->
<g id="node5" class="node">
<title>Node8</title>
<g id="a_node5"><a xlink:href="classnlohmann_1_1detail_1_1json__sax__dom__callback__parser.html#a5255b98ba8282e3625968f91cff9d3d0" target="_top" xlink:title="nlohmann::detail::json\l_sax_dom_callback_parser\l::start_array">
<polygon fill="#ffffff" stroke="#000000" points="148.5,-631 148.5,-672 283.5,-672 283.5,-631 148.5,-631"/>
<text text-anchor="start" x="156.5" y="-660" font-family="Helvetica,sans-Serif" font-size="10.00" fill="#000000">nlohmann::detail::json</text>
<text text-anchor="start" x="156.5" y="-649" font-family="Helvetica,sans-Serif" font-size="10.00" fill="#000000">_sax_dom_callback_parser</text>
<text text-anchor="middle" x="216" y="-638" font-family="Helvetica,sans-Serif" font-size="10.00" fill="#000000">::start_array</text>
</a>
</g>
</g>
<!-- Node4&#45;&gt;Node8 -->
<g id="edge4" class="edge">
<title>Node4&#45;&gt;Node8</title>
<path fill="none" stroke="#191970" d="M58.4089,-446.635C67.7804,-488.3191 91.9995,-572.0494 143,-621.5 146.6397,-625.0291 150.7523,-628.1648 155.1249,-630.947"/>
<polygon fill="#191970" stroke="#191970" points="61.8095,-445.7998 56.2912,-436.7555 54.9649,-447.267 61.8095,-445.7998"/>
</g>
<!-- Node9 -->
<g id="node6" class="node">
<title>Node9</title>
<g id="a_node6"><a xlink:href="classnlohmann_1_1detail_1_1parser.html#ad256ac6f45b213d29096a04b5aa3c587" target="_top" xlink:title="nlohmann::detail::parser\l::sax_parse_internal">
<polygon fill="#ffffff" stroke="#000000" points="155.5,-581.5 155.5,-611.5 276.5,-611.5 276.5,-581.5 155.5,-581.5"/>
<text text-anchor="start" x="163.5" y="-599.5" font-family="Helvetica,sans-Serif" font-size="10.00" fill="#000000">nlohmann::detail::parser</text>
<text text-anchor="middle" x="216" y="-588.5" font-family="Helvetica,sans-Serif" font-size="10.00" fill="#000000">::sax_parse_internal</text>
</a>
</g>
</g>
<!-- Node4&#45;&gt;Node9 -->
<g id="edge5" class="edge">
<title>Node4&#45;&gt;Node9</title>
<path fill="none" stroke="#191970" d="M61.8541,-446.2734C74.345,-479.6566 101.0131,-538.7759 143,-572.5 147.2645,-575.9253 152.0355,-578.869 157.0414,-581.3976"/>
<polygon fill="#191970" stroke="#191970" points="65.1201,-445.0127 58.4315,-436.796 58.5363,-447.3903 65.1201,-445.0127"/>
</g>
<!-- Node10 -->
<g id="node7" class="node">
<title>Node10</title>
<g id="a_node7"><a xlink:href="classnlohmann_1_1json__pointer.html#a4b1ee4d511ca195bed896a3da47e264c" target="_top" xlink:title="remove last reference token ">
<polygon fill="#ffffff" stroke="#000000" points="157.5,-532.5 157.5,-562.5 274.5,-562.5 274.5,-532.5 157.5,-532.5"/>
<text text-anchor="start" x="165.5" y="-550.5" font-family="Helvetica,sans-Serif" font-size="10.00" fill="#000000">nlohmann::json_pointer</text>
<text text-anchor="middle" x="216" y="-539.5" font-family="Helvetica,sans-Serif" font-size="10.00" fill="#000000">::pop_back</text>
</a>
</g>
</g>
<!-- Node4&#45;&gt;Node10 -->
<g id="edge6" class="edge">
<title>Node4&#45;&gt;Node10</title>
<path fill="none" stroke="#191970" d="M68.9878,-445.1558C85.0152,-467.9238 112.0193,-501.8544 143,-522.5 148.6853,-526.2887 155.0026,-529.5601 161.4745,-532.3698"/>
<polygon fill="#191970" stroke="#191970" points="71.7501,-442.9954 63.2019,-436.7361 65.9809,-446.96 71.7501,-442.9954"/>
</g>
<!-- Node12 -->
<g id="node9" class="node">
<title>Node12</title>
<g id="a_node9"><a xlink:href="classnlohmann_1_1basic__json.html#a81e0c41a4a9dff4df2f6973f7f8b2a83" target="_top" xlink:title="applies a JSON patch ">
<polygon fill="#ffffff" stroke="#000000" points="332,-428.5 332,-458.5 443,-458.5 443,-428.5 332,-428.5"/>
<text text-anchor="start" x="340" y="-446.5" font-family="Helvetica,sans-Serif" font-size="10.00" fill="#000000">nlohmann::basic_json</text>
<text text-anchor="middle" x="387.5" y="-435.5" font-family="Helvetica,sans-Serif" font-size="10.00" fill="#000000">::patch</text>
</a>
</g>
</g>
<!-- Node4&#45;&gt;Node12 -->
<g id="edge28" class="edge">
<title>Node4&#45;&gt;Node12</title>
<path fill="none" stroke="#191970" d="M107.9417,-439.2444C119.401,-442.2606 131.503,-444.9244 143,-446.5 207.3488,-455.3185 282.1143,-452.5245 331.8604,-448.8488"/>
<polygon fill="#191970" stroke="#191970" points="108.6387,-435.806 98.0681,-436.5216 106.7778,-442.5542 108.6387,-435.806"/>
</g>
<!-- Node13 -->
<g id="node10" class="node">
<title>Node13</title>
<g id="a_node10"><a xlink:href="classnlohmann_1_1json__pointer.html#a6bd5b554c10f15672135c216893eef31" target="_top" xlink:title="return last reference token ">
<polygon fill="#ffffff" stroke="#000000" points="157.5,-406.5 157.5,-436.5 274.5,-436.5 274.5,-406.5 157.5,-406.5"/>
<text text-anchor="start" x="165.5" y="-424.5" font-family="Helvetica,sans-Serif" font-size="10.00" fill="#000000">nlohmann::json_pointer</text>
<text text-anchor="middle" x="216" y="-413.5" font-family="Helvetica,sans-Serif" font-size="10.00" fill="#000000">::back</text>
</a>
</g>
</g>
<!-- Node4&#45;&gt;Node13 -->
<g id="edge9" class="edge">
<title>Node4&#45;&gt;Node13</title>
<path fill="none" stroke="#191970" d="M117.5288,-421.5C130.6622,-421.5 144.4247,-421.5 157.3571,-421.5"/>
<polygon fill="#191970" stroke="#191970" points="117.159,-418.0001 107.1589,-421.5 117.1589,-425.0001 117.159,-418.0001"/>
</g>
<!-- Node14 -->
<g id="node11" class="node">
<title>Node14</title>
<g id="a_node11"><a xlink:href="classnlohmann_1_1json__pointer.html#ac53f5b79dd91da78743c437832f57ce4" target="_top" xlink:title="nlohmann::json_pointer\l::array_index">
<polygon fill="#ffffff" stroke="#000000" points="157.5,-357.5 157.5,-387.5 274.5,-387.5 274.5,-357.5 157.5,-357.5"/>
<text text-anchor="start" x="165.5" y="-375.5" font-family="Helvetica,sans-Serif" font-size="10.00" fill="#000000">nlohmann::json_pointer</text>
<text text-anchor="middle" x="216" y="-364.5" font-family="Helvetica,sans-Serif" font-size="10.00" fill="#000000">::array_index</text>
</a>
</g>
</g>
<!-- Node4&#45;&gt;Node14 -->
<g id="edge11" class="edge">
<title>Node4&#45;&gt;Node14</title>
<path fill="none" stroke="#191970" d="M113.5683,-403.3871C130.8441,-398.1778 149.4933,-392.5543 166.0841,-387.5516"/>
<polygon fill="#191970" stroke="#191970" points="112.145,-400.1605 103.5813,-406.3986 114.166,-406.8625 112.145,-400.1605"/>
</g>
<!-- Node15 -->
<g id="node12" class="node">
<title>Node15</title>
<g id="a_node12"><a xlink:href="classnlohmann_1_1json__pointer.html#a00eff109d9a0091e42ada9b16b90c8d9" target="_top" xlink:title="nlohmann::json_pointer::top">
<polygon fill="#ffffff" stroke="#000000" points="147.5,-494 147.5,-513 284.5,-513 284.5,-494 147.5,-494"/>
<text text-anchor="middle" x="216" y="-501" font-family="Helvetica,sans-Serif" font-size="10.00" fill="#000000">nlohmann::json_pointer::top</text>
</a>
</g>
</g>
<!-- Node4&#45;&gt;Node15 -->
<g id="edge13" class="edge">
<title>Node4&#45;&gt;Node15</title>
<path fill="none" stroke="#191970" d="M81.9826,-442.6636C99.0417,-454.6371 121.5237,-469.2231 143,-479.5 154.9138,-485.201 168.5303,-490.0819 180.7508,-493.9243"/>
<polygon fill="#191970" stroke="#191970" points="83.7638,-439.635 73.5902,-436.6771 79.6987,-445.3337 83.7638,-439.635"/>
</g>
<!-- Node16 -->
<g id="node13" class="node">
<title>Node16</title>
<g id="a_node13"><a xlink:href="classnlohmann_1_1json__pointer.html#a577512ee6b7f030e8872b4d29fa5c3e5" target="_top" xlink:title="return a reference to the pointed to value ">
<polygon fill="#ffffff" stroke="#000000" points="157.5,-269.5 157.5,-299.5 274.5,-299.5 274.5,-269.5 157.5,-269.5"/>
<text text-anchor="start" x="165.5" y="-287.5" font-family="Helvetica,sans-Serif" font-size="10.00" fill="#000000">nlohmann::json_pointer</text>
<text text-anchor="middle" x="216" y="-276.5" font-family="Helvetica,sans-Serif" font-size="10.00" fill="#000000">::get_unchecked</text>
</a>
</g>
</g>
<!-- Node4&#45;&gt;Node16 -->
<g id="edge15" class="edge">
<title>Node4&#45;&gt;Node16</title>
<path fill="none" stroke="#191970" d="M66.9704,-397.547C82.3181,-372.291 109.6442,-332.9759 143,-309.5 148.4775,-305.6449 154.6001,-302.3421 160.9068,-299.5228"/>
<polygon fill="#191970" stroke="#191970" points="63.9535,-395.7726 61.8689,-406.1604 69.9764,-399.3398 63.9535,-395.7726"/>
</g>
<!-- Node18 -->
<g id="node15" class="node">
<title>Node18</title>
<g id="a_node15"><a xlink:href="classnlohmann_1_1json__pointer.html#a366d68a67e40d86676d3bdb52e167294" target="_top" xlink:title="nlohmann::json_pointer\l::get_checked">
<polygon fill="#ffffff" stroke="#000000" points="157.5,-49.5 157.5,-79.5 274.5,-79.5 274.5,-49.5 157.5,-49.5"/>
<text text-anchor="start" x="165.5" y="-67.5" font-family="Helvetica,sans-Serif" font-size="10.00" fill="#000000">nlohmann::json_pointer</text>
<text text-anchor="middle" x="216" y="-56.5" font-family="Helvetica,sans-Serif" font-size="10.00" fill="#000000">::get_checked</text>
</a>
</g>
</g>
<!-- Node4&#45;&gt;Node18 -->
<g id="edge17" class="edge">
<title>Node4&#45;&gt;Node18</title>
<path fill="none" stroke="#191970" d="M57.1591,-396.473C67.7516,-327.1956 100.4174,-135.0187 143,-89.5 147.1183,-85.0977 152.0444,-81.4707 157.367,-78.4823"/>
<polygon fill="#191970" stroke="#191970" points="53.6781,-396.0855 55.6505,-406.4952 60.6001,-397.1276 53.6781,-396.0855"/>
</g>
<!-- Node21 -->
<g id="node18" class="node">
<title>Node21</title>
<g id="a_node18"><a xlink:href="classnlohmann_1_1detail_1_1binary__writer.html#a5bae2f1db2c511b869dffaddf15a1653" target="_top" xlink:title="nlohmann::detail::binary\l_writer::calc_bson_entry\l_header_size">
<polygon fill="#ffffff" stroke="#000000" points="154.5,-209 154.5,-250 277.5,-250 277.5,-209 154.5,-209"/>
<text text-anchor="start" x="162.5" y="-238" font-family="Helvetica,sans-Serif" font-size="10.00" fill="#000000">nlohmann::detail::binary</text>
<text text-anchor="start" x="162.5" y="-227" font-family="Helvetica,sans-Serif" font-size="10.00" fill="#000000">_writer::calc_bson_entry</text>
<text text-anchor="middle" x="216" y="-216" font-family="Helvetica,sans-Serif" font-size="10.00" fill="#000000">_header_size</text>
</a>
</g>
</g>
<!-- Node4&#45;&gt;Node21 -->
<g id="edge20" class="edge">
<title>Node4&#45;&gt;Node21</title>
<path fill="none" stroke="#191970" d="M61.6541,-396.1502C74.0524,-361.269 100.766,-298.4871 143,-260.5 147.2996,-256.6327 152.1534,-253.2 157.2637,-250.1633"/>
<polygon fill="#191970" stroke="#191970" points="58.202,-395.4267 58.2646,-406.0213 64.8226,-397.7 58.202,-395.4267"/>
</g>
<!-- Node22 -->
<g id="node19" class="node">
<title>Node22</title>
<g id="a_node19"><a xlink:href="classnlohmann_1_1detail_1_1binary__writer.html#a5e295ed1be6af6260d2a65f7397c3742" target="_top" xlink:title="Writes a BSON element with key name and unsigned value. ">
<polygon fill="#ffffff" stroke="#000000" points="144.5,-159.5 144.5,-189.5 287.5,-189.5 287.5,-159.5 144.5,-159.5"/>
<text text-anchor="start" x="152.5" y="-177.5" font-family="Helvetica,sans-Serif" font-size="10.00" fill="#000000">nlohmann::detail::binary</text>
<text text-anchor="middle" x="216" y="-166.5" font-family="Helvetica,sans-Serif" font-size="10.00" fill="#000000">_writer::write_bson_unsigned</text>
</a>
</g>
</g>
<!-- Node4&#45;&gt;Node22 -->
<g id="edge21" class="edge">
<title>Node4&#45;&gt;Node22</title>
<path fill="none" stroke="#191970" d="M56.7201,-396.518C63.8906,-350.9851 85.3483,-254.1593 143,-199.5 147.083,-195.6289 151.7912,-192.3551 156.8095,-189.5868"/>
<polygon fill="#191970" stroke="#191970" points="53.2546,-396.0284 55.2598,-406.4318 60.1798,-397.0486 53.2546,-396.0284"/>
</g>
<!-- Node23 -->
<g id="node20" class="node">
<title>Node23</title>
<g id="a_node20"><a xlink:href="classnlohmann_1_1detail_1_1binary__writer.html#a0ea6745f944c0c61672146886b4ee90f" target="_top" xlink:title="nlohmann::detail::binary\l_writer::write_number_with\l_ubjson_prefix">
<polygon fill="#ffffff" stroke="#000000" points="149,-99 149,-140 283,-140 283,-99 149,-99"/>
<text text-anchor="start" x="157" y="-128" font-family="Helvetica,sans-Serif" font-size="10.00" fill="#000000">nlohmann::detail::binary</text>
<text text-anchor="start" x="157" y="-117" font-family="Helvetica,sans-Serif" font-size="10.00" fill="#000000">_writer::write_number_with</text>
<text text-anchor="middle" x="216" y="-106" font-family="Helvetica,sans-Serif" font-size="10.00" fill="#000000">_ubjson_prefix</text>
</a>
</g>
</g>
<!-- Node4&#45;&gt;Node23 -->
<g id="edge22" class="edge">
<title>Node4&#45;&gt;Node23</title>
<path fill="none" stroke="#191970" d="M54.9408,-396.2325C59.2522,-343.6066 76.2924,-221.1945 143,-149.5 146.2668,-145.989 150.0048,-142.8773 154.0242,-140.1213"/>
<polygon fill="#191970" stroke="#191970" points="51.439,-396.1312 54.2007,-406.3597 58.4204,-396.6414 51.439,-396.1312"/>
</g>
<!-- Node24 -->
<g id="node21" class="node">
<title>Node24</title>
<g id="a_node21"><a xlink:href="classnlohmann_1_1basic__json.html#a73ae333487310e3302135189ce8ff5d8" target="_top" xlink:title="access specified array element with bounds checking ">
<polygon fill="#ffffff" stroke="#000000" points="153.5,-319 153.5,-338 278.5,-338 278.5,-319 153.5,-319"/>
<text text-anchor="middle" x="216" y="-326" font-family="Helvetica,sans-Serif" font-size="10.00" fill="#000000">nlohmann::basic_json::at</text>
</a>
</g>
</g>
<!-- Node4&#45;&gt;Node24 -->
<g id="edge23" class="edge">
<title>Node4&#45;&gt;Node24</title>
<path fill="none" stroke="#191970" d="M75.1814,-399.3868C92.2396,-383.1564 117.3417,-361.7216 143,-348.5 151.2935,-344.2264 160.6019,-340.7849 169.7242,-338.0427"/>
<polygon fill="#191970" stroke="#191970" points="72.6674,-396.9495 67.9368,-406.4296 77.5468,-401.9687 72.6674,-396.9495"/>
</g>
<!-- Node27 -->
<g id="node24" class="node">
<title>Node27</title>
<g id="a_node24"><a xlink:href="classnlohmann_1_1basic__json.html#a88cbcefe9a3f4d294bed0653550a5cb9" target="_top" xlink:title="remove element from a JSON array given an index ">
<polygon fill="#ffffff" stroke="#000000" points="160.5,-.5 160.5,-30.5 271.5,-30.5 271.5,-.5 160.5,-.5"/>
<text text-anchor="start" x="168.5" y="-18.5" font-family="Helvetica,sans-Serif" font-size="10.00" fill="#000000">nlohmann::basic_json</text>
<text text-anchor="middle" x="216" y="-7.5" font-family="Helvetica,sans-Serif" font-size="10.00" fill="#000000">::erase</text>
</a>
</g>
</g>
<!-- Node4&#45;&gt;Node27 -->
<g id="edge27" class="edge">
<title>Node4&#45;&gt;Node27</title>
<path fill="none" stroke="#191970" d="M56.1919,-396.3193C64.8365,-319.9236 94.2107,-92.7563 143,-39.5 147.8664,-34.188 153.9279,-30.0491 160.4638,-26.8248"/>
<polygon fill="#191970" stroke="#191970" points="52.6911,-396.1332 55.067,-406.4582 59.6485,-396.9051 52.6911,-396.1332"/>
</g>
<!-- Node11 -->
<g id="node8" class="node">
<title>Node11</title>
<g id="a_node8"><a xlink:href="classnlohmann_1_1json__pointer.html#afdaacce1edb7145e0434e014f0e8685a" target="_top" xlink:title="returns the parent of this JSON pointer ">
<polygon fill="#ffffff" stroke="#000000" points="329,-532.5 329,-562.5 446,-562.5 446,-532.5 329,-532.5"/>
<text text-anchor="start" x="337" y="-550.5" font-family="Helvetica,sans-Serif" font-size="10.00" fill="#000000">nlohmann::json_pointer</text>
<text text-anchor="middle" x="387.5" y="-539.5" font-family="Helvetica,sans-Serif" font-size="10.00" fill="#000000">::parent_pointer</text>
</a>
</g>
</g>
<!-- Node10&#45;&gt;Node11 -->
<g id="edge7" class="edge">
<title>Node10&#45;&gt;Node11</title>
<path fill="none" stroke="#191970" d="M284.5771,-547.5C299.2681,-547.5 314.6602,-547.5 328.932,-547.5"/>
<polygon fill="#191970" stroke="#191970" points="284.5409,-544.0001 274.5409,-547.5 284.5409,-551.0001 284.5409,-544.0001"/>
</g>
<!-- Node10&#45;&gt;Node12 -->
<g id="edge8" class="edge">
<title>Node10&#45;&gt;Node12</title>
<path fill="none" stroke="#191970" d="M276.6544,-528.5798C280.9073,-526.6921 285.0644,-524.6652 289,-522.5 321.2669,-504.7482 353.6039,-476.2732 372.0228,-458.7942"/>
<polygon fill="#191970" stroke="#191970" points="275.1325,-525.4219 267.2395,-532.4896 277.8172,-531.8867 275.1325,-525.4219"/>
</g>
<!-- Node13&#45;&gt;Node12 -->
<g id="edge10" class="edge">
<title>Node13&#45;&gt;Node12</title>
<path fill="none" stroke="#191970" d="M284.6919,-430.3118C300.3474,-432.3201 316.7935,-434.4298 331.8272,-436.3583"/>
<polygon fill="#191970" stroke="#191970" points="284.905,-426.8105 274.5409,-429.0096 284.0143,-433.7536 284.905,-426.8105"/>
</g>
<!-- Node14&#45;&gt;Node12 -->
<g id="edge12" class="edge">
<title>Node14&#45;&gt;Node12</title>
<path fill="none" stroke="#191970" d="M272.1975,-391.0645C277.9041,-393.1528 283.588,-395.3169 289,-397.5 312.2792,-406.8906 337.9562,-418.9398 357.2563,-428.3504"/>
<polygon fill="#191970" stroke="#191970" points="273.2108,-387.7098 262.6162,-387.6317 270.8497,-394.2996 273.2108,-387.7098"/>
</g>
<!-- Node15&#45;&gt;Node12 -->
<g id="edge14" class="edge">
<title>Node15&#45;&gt;Node12</title>
<path fill="none" stroke="#191970" d="M255.5756,-490.7506C266.4345,-487.1812 278.1924,-483.2505 289,-479.5 308.2649,-472.8147 329.5265,-465.0884 347.3503,-458.5116"/>
<polygon fill="#191970" stroke="#191970" points="254.3258,-487.4768 245.9088,-493.9115 256.5014,-494.1302 254.3258,-487.4768"/>
</g>
<!-- Node17 -->
<g id="node14" class="node">
<title>Node17</title>
<g id="a_node14"><a xlink:href="classnlohmann_1_1basic__json.html#ac6946dffeb3be5aa173645f0467a44b3" target="_top" xlink:title="access specified element via JSON Pointer ">
<polygon fill="#ffffff" stroke="#000000" points="332,-269.5 332,-299.5 443,-299.5 443,-269.5 332,-269.5"/>
<text text-anchor="start" x="340" y="-287.5" font-family="Helvetica,sans-Serif" font-size="10.00" fill="#000000">nlohmann::basic_json</text>
<text text-anchor="middle" x="387.5" y="-276.5" font-family="Helvetica,sans-Serif" font-size="10.00" fill="#000000">::operator[]</text>
</a>
</g>
</g>
<!-- Node16&#45;&gt;Node17 -->
<g id="edge16" class="edge">
<title>Node16&#45;&gt;Node17</title>
<path fill="none" stroke="#191970" d="M284.6919,-284.5C300.3474,-284.5 316.7935,-284.5 331.8272,-284.5"/>
<polygon fill="#191970" stroke="#191970" points="284.5409,-281.0001 274.5409,-284.5 284.5409,-288.0001 284.5409,-281.0001"/>
</g>
<!-- Node19 -->
<g id="node16" class="node">
<title>Node19</title>
<g id="a_node16"><a xlink:href="classnlohmann_1_1basic__json.html#a671aea68432ecb28770bbc482918f023" target="_top" xlink:title="access specified object element via JSON Pointer with default value ">
<polygon fill="#ffffff" stroke="#000000" points="332,-71.5 332,-101.5 443,-101.5 443,-71.5 332,-71.5"/>
<text text-anchor="start" x="340" y="-89.5" font-family="Helvetica,sans-Serif" font-size="10.00" fill="#000000">nlohmann::basic_json</text>
<text text-anchor="middle" x="387.5" y="-78.5" font-family="Helvetica,sans-Serif" font-size="10.00" fill="#000000">::value</text>
</a>
</g>
</g>
<!-- Node18&#45;&gt;Node19 -->
<g id="edge18" class="edge">
<title>Node18&#45;&gt;Node19</title>
<path fill="none" stroke="#191970" d="M284.6919,-73.3118C300.3474,-75.3201 316.7935,-77.4298 331.8272,-79.3583"/>
<polygon fill="#191970" stroke="#191970" points="284.905,-69.8105 274.5409,-72.0096 284.0143,-76.7536 284.905,-69.8105"/>
</g>
<!-- Node20 -->
<g id="node17" class="node">
<title>Node20</title>
<g id="a_node17"><a xlink:href="classnlohmann_1_1basic__json.html#a8ab61397c10f18b305520da7073b2b45" target="_top" xlink:title="access specified element via JSON Pointer ">
<polygon fill="#ffffff" stroke="#000000" points="325,-33 325,-52 450,-52 450,-33 325,-33"/>
<text text-anchor="middle" x="387.5" y="-40" font-family="Helvetica,sans-Serif" font-size="10.00" fill="#000000">nlohmann::basic_json::at</text>
</a>
</g>
</g>
<!-- Node18&#45;&gt;Node20 -->
<g id="edge19" class="edge">
<title>Node18&#45;&gt;Node20</title>
<path fill="none" stroke="#191970" d="M284.5725,-55.7035C297.8663,-53.9982 311.7345,-52.2192 324.8272,-50.5397"/>
<polygon fill="#191970" stroke="#191970" points="284.0143,-52.2464 274.5409,-56.9904 284.905,-59.1895 284.0143,-52.2464"/>
</g>
<!-- Node24&#45;&gt;Node12 -->
<g id="edge26" class="edge">
<title>Node24&#45;&gt;Node12</title>
<path fill="none" stroke="#191970" d="M273.9791,-341.4498C279.2006,-343.4828 284.2889,-345.8191 289,-348.5 325.7551,-369.416 359.0184,-407.1743 375.8761,-428.2416"/>
<polygon fill="#191970" stroke="#191970" points="275.084,-338.1283 264.4891,-338.1089 272.7594,-344.7311 275.084,-338.1283"/>
</g>
<!-- Node25 -->
<g id="node22" class="node">
<title>Node25</title>
<g id="a_node22"><a xlink:href="namespaceRiver.html#ab2e6cbc1f3bbe0e9879ff60bb4a6df3c" target="_top" xlink:title="River::Open">
<polygon fill="#ffffff" stroke="#000000" points="353,-319 353,-338 422,-338 422,-319 353,-319"/>
<text text-anchor="middle" x="387.5" y="-326" font-family="Helvetica,sans-Serif" font-size="10.00" fill="#000000">River::Open</text>
</a>
</g>
</g>
<!-- Node24&#45;&gt;Node25 -->
<g id="edge24" class="edge">
<title>Node24&#45;&gt;Node25</title>
<path fill="none" stroke="#191970" d="M288.9145,-328.5C310.9646,-328.5 334.1733,-328.5 352.5295,-328.5"/>
<polygon fill="#191970" stroke="#191970" points="288.8865,-325.0001 278.8864,-328.5 288.8864,-332.0001 288.8865,-325.0001"/>
</g>
<!-- Node26 -->
<g id="node23" class="node">
<title>Node26</title>
<g id="a_node23"><a xlink:href="main_8cpp.html#a0ddf1224851353fc92bfbff6f499fa97" target="_top" xlink:title="Entry point of RiverSim program. ">
<polygon fill="#ffffff" stroke="#000000" points="486,-319 486,-338 524,-338 524,-319 486,-319"/>
<text text-anchor="middle" x="505" y="-326" font-family="Helvetica,sans-Serif" font-size="10.00" fill="#000000">main</text>
</a>
</g>
</g>
<!-- Node25&#45;&gt;Node26 -->
<g id="edge25" class="edge">
<title>Node25&#45;&gt;Node26</title>
<path fill="none" stroke="#191970" d="M432.1999,-328.5C450.8091,-328.5 471.4161,-328.5 485.9419,-328.5"/>
<polygon fill="#191970" stroke="#191970" points="432.1184,-325.0001 422.1184,-328.5 432.1183,-332.0001 432.1184,-325.0001"/>
</g>
</g>
</svg>
