<?xml version="1.0" encoding="UTF-8" standalone="no"?>
<!DOCTYPE svg PUBLIC "-//W3C//DTD SVG 1.1//EN"
 "http://www.w3.org/Graphics/SVG/1.1/DTD/svg11.dtd">
<!-- Generated by graphviz version 2.40.1 (20161225.0304)
 -->
<!-- Title: tethex::Mesh::set_vertexes Pages: 1 -->
<svg width="689pt" height="39pt"
 viewBox="0.00 0.00 689.00 39.00" xmlns="http://www.w3.org/2000/svg" xmlns:xlink="http://www.w3.org/1999/xlink">
<g id="graph0" class="graph" transform="scale(1 1) rotate(0) translate(4 35)">
<title>tethex::Mesh::set_vertexes</title>
<polygon fill="#ffffff" stroke="transparent" points="-4,4 -4,-35 685,-35 685,4 -4,4"/>
<!-- Node148 -->
<g id="node1" class="node">
<title>Node148</title>
<polygon fill="#bfbfbf" stroke="#000000" points="0,-6 0,-25 136,-25 136,-6 0,-6"/>
<text text-anchor="middle" x="68" y="-13" font-family="Helvetica,sans-Serif" font-size="10.00" fill="#000000">tethex::Mesh::set_vertexes</text>
</g>
<!-- Node149 -->
<g id="node2" class="node">
<title>Node149</title>
<g id="a_node2"><a xlink:href="classRiver_1_1Triangle.html#ace837080fe12b6a062b3256288885d74" target="_top" xlink:title="Converts triangulateio to tethex::Mesh used by rest of program. ">
<polygon fill="#ffffff" stroke="#000000" points="172,-.5 172,-30.5 266,-30.5 266,-.5 172,-.5"/>
<text text-anchor="start" x="180" y="-18.5" font-family="Helvetica,sans-Serif" font-size="10.00" fill="#000000">River::Triangle::io</text>
<text text-anchor="middle" x="219" y="-7.5" font-family="Helvetica,sans-Serif" font-size="10.00" fill="#000000">_to_tethex</text>
</a>
</g>
</g>
<!-- Node148&#45;&gt;Node149 -->
<g id="edge1" class="edge">
<title>Node148&#45;&gt;Node149</title>
<path fill="none" stroke="#191970" d="M146.6002,-15.5C155.2648,-15.5 163.8749,-15.5 171.9729,-15.5"/>
<polygon fill="#191970" stroke="#191970" points="146.4311,-12.0001 136.4311,-15.5 146.4311,-19.0001 146.4311,-12.0001"/>
</g>
<!-- Node150 -->
<g id="node3" class="node">
<title>Node150</title>
<g id="a_node3"><a xlink:href="classRiver_1_1Triangle.html#a0dae20b40d446e6009a88543e2c14daf" target="_top" xlink:title="Generate mesh. ">
<polygon fill="#ffffff" stroke="#000000" points="302,-6 302,-25 426,-25 426,-6 302,-6"/>
<text text-anchor="middle" x="364" y="-13" font-family="Helvetica,sans-Serif" font-size="10.00" fill="#000000">River::Triangle::generate</text>
</a>
</g>
</g>
<!-- Node149&#45;&gt;Node150 -->
<g id="edge2" class="edge">
<title>Node149&#45;&gt;Node150</title>
<path fill="none" stroke="#191970" d="M276.1821,-15.5C284.6105,-15.5 293.3283,-15.5 301.8513,-15.5"/>
<polygon fill="#191970" stroke="#191970" points="276.0774,-12.0001 266.0773,-15.5 276.0773,-19.0001 276.0774,-12.0001"/>
</g>
<!-- Node151 -->
<g id="node4" class="node">
<title>Node151</title>
<g id="a_node4"><a xlink:href="namespaceRiver.html#af1a3f7c61809dd8032e4ff5920da83cc" target="_top" xlink:title="One step of forward river evolution. ">
<polygon fill="#ffffff" stroke="#000000" points="462,-6 462,-25 607,-25 607,-6 462,-6"/>
<text text-anchor="middle" x="534.5" y="-13" font-family="Helvetica,sans-Serif" font-size="10.00" fill="#000000">River::ForwardRiverEvolution</text>
</a>
</g>
</g>
<!-- Node150&#45;&gt;Node151 -->
<g id="edge3" class="edge">
<title>Node150&#45;&gt;Node151</title>
<path fill="none" stroke="#191970" d="M436.2431,-15.5C444.7006,-15.5 453.333,-15.5 461.7967,-15.5"/>
<polygon fill="#191970" stroke="#191970" points="436.0368,-12.0001 426.0367,-15.5 436.0367,-19.0001 436.0368,-12.0001"/>
</g>
<!-- Node152 -->
<g id="node5" class="node">
<title>Node152</title>
<g id="a_node5"><a xlink:href="main_8cpp.html#a0ddf1224851353fc92bfbff6f499fa97" target="_top" xlink:title="Entry point of RiverSim program. ">
<polygon fill="#ffffff" stroke="#000000" points="643,-6 643,-25 681,-25 681,-6 643,-6"/>
<text text-anchor="middle" x="662" y="-13" font-family="Helvetica,sans-Serif" font-size="10.00" fill="#000000">main</text>
</a>
</g>
</g>
<!-- Node151&#45;&gt;Node152 -->
<g id="edge4" class="edge">
<title>Node151&#45;&gt;Node152</title>
<path fill="none" stroke="#191970" d="M617.2526,-15.5C626.7338,-15.5 635.5978,-15.5 642.8947,-15.5"/>
<polygon fill="#191970" stroke="#191970" points="617.1886,-12.0001 607.1886,-15.5 617.1885,-19.0001 617.1886,-12.0001"/>
</g>
</g>
</svg>
