<?xml version="1.0" encoding="UTF-8" standalone="no"?>
<!DOCTYPE svg PUBLIC "-//W3C//DTD SVG 1.1//EN"
 "http://www.w3.org/Graphics/SVG/1.1/DTD/svg11.dtd">
<!-- Generated by graphviz version 2.43.0 (0)
 -->
<!-- Title: River::SolverParams Pages: 1 -->
<svg width="289pt" height="215pt"
 viewBox="0.00 0.00 289.00 215.00" xmlns="http://www.w3.org/2000/svg" xmlns:xlink="http://www.w3.org/1999/xlink">
<g id="graph0" class="graph" transform="scale(1 1) rotate(0) translate(4 211)">
<title>River::SolverParams</title>
<polygon fill="white" stroke="transparent" points="-4,4 -4,-211 285,-211 285,4 -4,4"/>
<!-- Node1 -->
<g id="node1" class="node">
<title>Node1</title>
<g id="a_node1"><a xlink:title="Holds All parameters used in Deal.II solver.">
<polygon fill="#bfbfbf" stroke="black" points="30,-0.5 30,-57.5 146,-57.5 146,-0.5 30,-0.5"/>
<text text-anchor="middle" x="88" y="-45.5" font-family="Helvetica,sans-Serif" font-size="10.00">River::SolverParams</text>
<polyline fill="none" stroke="black" points="30,-38.5 146,-38.5 "/>
<text text-anchor="middle" x="88" y="-26.5" font-family="Helvetica,sans-Serif" font-size="10.00"> </text>
<polyline fill="none" stroke="black" points="30,-19.5 146,-19.5 "/>
<text text-anchor="start" x="38" y="-7.5" font-family="Helvetica,sans-Serif" font-size="10.00">+ operator==()</text>
</a>
</g>
</g>
<!-- Node2 -->
<g id="node2" class="node">
<title>Node2</title>
<g id="a_node2"><a xlink:title=" ">
<polygon fill="white" stroke="#bfbfbf" points="0,-149.5 0,-206.5 50,-206.5 50,-149.5 0,-149.5"/>
<text text-anchor="middle" x="25" y="-194.5" font-family="Helvetica,sans-Serif" font-size="10.00">double</text>
<polyline fill="none" stroke="#bfbfbf" points="0,-187.5 50,-187.5 "/>
<text text-anchor="middle" x="25" y="-175.5" font-family="Helvetica,sans-Serif" font-size="10.00"> </text>
<polyline fill="none" stroke="#bfbfbf" points="0,-168.5 50,-168.5 "/>
<text text-anchor="middle" x="25" y="-156.5" font-family="Helvetica,sans-Serif" font-size="10.00"> </text>
</a>
</g>
</g>
<!-- Node2&#45;&gt;Node1 -->
<g id="edge1" class="edge">
<title>Node2&#45;&gt;Node1</title>
<path fill="none" stroke="#404040" d="M18.89,-149.28C15.67,-128.05 14.46,-98.66 26,-76 27.71,-72.64 29.79,-69.47 32.14,-66.48"/>
<polygon fill="none" stroke="#404040" points="32.27,-66.34 33.42,-59.23 40.44,-57.56 39.28,-64.67 32.27,-66.34"/>
<text text-anchor="middle" x="77.5" y="-117.5" font-family="Helvetica,sans-Serif" font-size="10.00"> +refinment_fraction</text>
<text text-anchor="middle" x="77.5" y="-106.5" font-family="Helvetica,sans-Serif" font-size="10.00">+max_distance</text>
<text text-anchor="middle" x="77.5" y="-95.5" font-family="Helvetica,sans-Serif" font-size="10.00">+field_value</text>
<text text-anchor="middle" x="77.5" y="-84.5" font-family="Helvetica,sans-Serif" font-size="10.00">+tollerance</text>
</g>
<!-- Node3 -->
<g id="node3" class="node">
<title>Node3</title>
<g id="a_node3"><a xlink:title=" ">
<polygon fill="white" stroke="#bfbfbf" points="120.5,-149.5 120.5,-206.5 181.5,-206.5 181.5,-149.5 120.5,-149.5"/>
<text text-anchor="middle" x="151" y="-194.5" font-family="Helvetica,sans-Serif" font-size="10.00">unsigned</text>
<polyline fill="none" stroke="#bfbfbf" points="120.5,-187.5 181.5,-187.5 "/>
<text text-anchor="middle" x="151" y="-175.5" font-family="Helvetica,sans-Serif" font-size="10.00"> </text>
<polyline fill="none" stroke="#bfbfbf" points="120.5,-168.5 181.5,-168.5 "/>
<text text-anchor="middle" x="151" y="-156.5" font-family="Helvetica,sans-Serif" font-size="10.00"> </text>
</a>
</g>
</g>
<!-- Node3&#45;&gt;Node1 -->
<g id="edge2" class="edge">
<title>Node3&#45;&gt;Node1</title>
<path fill="none" stroke="#404040" d="M148.79,-149.14C146.23,-128.1 140.73,-99.03 129,-76 127.5,-73.06 125.77,-70.17 123.89,-67.34"/>
<polygon fill="none" stroke="#404040" points="123.71,-67.11 116.91,-64.7 116.52,-57.5 123.31,-59.9 123.71,-67.11"/>
<text text-anchor="middle" x="213" y="-123" font-family="Helvetica,sans-Serif" font-size="10.00"> +num_of_iterrations</text>
<text text-anchor="middle" x="213" y="-112" font-family="Helvetica,sans-Serif" font-size="10.00">+renumbering_type</text>
<text text-anchor="middle" x="213" y="-101" font-family="Helvetica,sans-Serif" font-size="10.00">+static_refinment_steps</text>
<text text-anchor="middle" x="213" y="-90" font-family="Helvetica,sans-Serif" font-size="10.00">+quadrature_degree</text>
<text text-anchor="middle" x="213" y="-79" font-family="Helvetica,sans-Serif" font-size="10.00">+adaptive_refinment_steps</text>
</g>
</g>
</svg>
