<?xml version="1.0" encoding="UTF-8" standalone="no"?>
<!DOCTYPE svg PUBLIC "-//W3C//DTD SVG 1.1//EN"
 "http://www.w3.org/Graphics/SVG/1.1/DTD/svg11.dtd">
<!-- Generated by graphviz version 2.40.1 (20161225.0304)
 -->
<!-- Title: tethex::PhysPoint Pages: 1 -->
<svg width="247pt" height="453pt"
 viewBox="0.00 0.00 247.00 453.00" xmlns="http://www.w3.org/2000/svg" xmlns:xlink="http://www.w3.org/1999/xlink">
<g id="graph0" class="graph" transform="scale(1 1) rotate(0) translate(4 449)">
<title>tethex::PhysPoint</title>
<polygon fill="#ffffff" stroke="transparent" points="-4,4 -4,-449 243,-449 243,4 -4,4"/>
<!-- Node2 -->
<g id="node1" class="node">
<title>Node2</title>
<polygon fill="#bfbfbf" stroke="#000000" points="93.5,-.5 93.5,-79.5 188.5,-79.5 188.5,-.5 93.5,-.5"/>
<text text-anchor="middle" x="141" y="-67.5" font-family="Helvetica,sans-Serif" font-size="10.00" fill="#000000">tethex::PhysPoint</text>
<polyline fill="none" stroke="#000000" points="93.5,-60.5 188.5,-60.5 "/>
<text text-anchor="middle" x="141" y="-48.5" font-family="Helvetica,sans-Serif" font-size="10.00" fill="#000000"> </text>
<polyline fill="none" stroke="#000000" points="93.5,-41.5 188.5,-41.5 "/>
<text text-anchor="start" x="101.5" y="-29.5" font-family="Helvetica,sans-Serif" font-size="10.00" fill="#000000">+ PhysPoint()</text>
<text text-anchor="start" x="101.5" y="-18.5" font-family="Helvetica,sans-Serif" font-size="10.00" fill="#000000">+ PhysPoint()</text>
<text text-anchor="start" x="101.5" y="-7.5" font-family="Helvetica,sans-Serif" font-size="10.00" fill="#000000">+ PhysPoint()</text>
</g>
<!-- Node3 -->
<g id="node2" class="node">
<title>Node3</title>
<g id="a_node2"><a xlink:href="classtethex_1_1MeshElement.html" target="_top" xlink:title="This class implements the most part of functionality of all elements of mesh: triangles, tetrahedra, quadrangles, hexahedra, etc. ">
<polygon fill="#ffffff" stroke="#000000" points="39.5,-117.5 39.5,-306.5 150.5,-306.5 150.5,-117.5 39.5,-117.5"/>
<text text-anchor="middle" x="95" y="-294.5" font-family="Helvetica,sans-Serif" font-size="10.00" fill="#000000">tethex::MeshElement</text>
<polyline fill="none" stroke="#000000" points="39.5,-287.5 150.5,-287.5 "/>
<text text-anchor="middle" x="95" y="-275.5" font-family="Helvetica,sans-Serif" font-size="10.00" fill="#000000"> </text>
<polyline fill="none" stroke="#000000" points="39.5,-268.5 150.5,-268.5 "/>
<text text-anchor="start" x="47.5" y="-256.5" font-family="Helvetica,sans-Serif" font-size="10.00" fill="#000000">+ ~MeshElement()</text>
<text text-anchor="start" x="47.5" y="-245.5" font-family="Helvetica,sans-Serif" font-size="10.00" fill="#000000">+ get_n_vertices()</text>
<text text-anchor="start" x="47.5" y="-234.5" font-family="Helvetica,sans-Serif" font-size="10.00" fill="#000000">+ get_n_edges()</text>
<text text-anchor="start" x="47.5" y="-223.5" font-family="Helvetica,sans-Serif" font-size="10.00" fill="#000000">+ get_gmsh_el_type()</text>
<text text-anchor="start" x="47.5" y="-212.5" font-family="Helvetica,sans-Serif" font-size="10.00" fill="#000000">+ get_material_id()</text>
<text text-anchor="start" x="47.5" y="-201.5" font-family="Helvetica,sans-Serif" font-size="10.00" fill="#000000">+ get_vertex()</text>
<text text-anchor="start" x="47.5" y="-190.5" font-family="Helvetica,sans-Serif" font-size="10.00" fill="#000000">+ get_edge()</text>
<text text-anchor="start" x="47.5" y="-179.5" font-family="Helvetica,sans-Serif" font-size="10.00" fill="#000000">+ set_vertex()</text>
<text text-anchor="start" x="47.5" y="-168.5" font-family="Helvetica,sans-Serif" font-size="10.00" fill="#000000">+ set_edge()</text>
<text text-anchor="start" x="47.5" y="-157.5" font-family="Helvetica,sans-Serif" font-size="10.00" fill="#000000">+ contains()</text>
<text text-anchor="start" x="47.5" y="-146.5" font-family="Helvetica,sans-Serif" font-size="10.00" fill="#000000"># MeshElement()</text>
<text text-anchor="start" x="47.5" y="-135.5" font-family="Helvetica,sans-Serif" font-size="10.00" fill="#000000"># MeshElement()</text>
<text text-anchor="start" x="47.5" y="-124.5" font-family="Helvetica,sans-Serif" font-size="10.00" fill="#000000"># operator=()</text>
</a>
</g>
</g>
<!-- Node3&#45;&gt;Node2 -->
<g id="edge1" class="edge">
<title>Node3&#45;&gt;Node2</title>
<path fill="none" stroke="#191970" d="M122.9303,-107.5648C125.5486,-97.7749 128.0774,-88.3194 130.3722,-79.7387"/>
<polygon fill="none" stroke="#191970" points="119.4902,-106.8814 120.2876,-117.4462 126.2525,-108.69 119.4902,-106.8814"/>
</g>
<!-- Node4 -->
<g id="node3" class="node">
<title>Node4</title>
<polygon fill="#ffffff" stroke="#bfbfbf" points="0,-387.5 0,-444.5 72,-444.5 72,-387.5 0,-387.5"/>
<text text-anchor="middle" x="36" y="-432.5" font-family="Helvetica,sans-Serif" font-size="10.00" fill="#000000">vector&lt; int &gt;</text>
<polyline fill="none" stroke="#bfbfbf" points="0,-425.5 72,-425.5 "/>
<text text-anchor="middle" x="36" y="-413.5" font-family="Helvetica,sans-Serif" font-size="10.00" fill="#000000"> </text>
<polyline fill="none" stroke="#bfbfbf" points="0,-406.5 72,-406.5 "/>
<text text-anchor="middle" x="36" y="-394.5" font-family="Helvetica,sans-Serif" font-size="10.00" fill="#000000"> </text>
</g>
<!-- Node4&#45;&gt;Node3 -->
<g id="edge2" class="edge">
<title>Node4&#45;&gt;Node3</title>
<path fill="none" stroke="#404040" d="M36.5114,-387.3052C37.4021,-369.1826 39.6212,-345.4181 45,-325 45.5695,-322.838 46.1756,-320.6647 46.8142,-318.4847"/>
<polygon fill="none" stroke="#404040" points="46.8955,-318.2278 44.8932,-311.3002 50.5178,-306.7876 52.5201,-313.7151 46.8955,-318.2278"/>
<text text-anchor="middle" x="66.5" y="-350" font-family="Helvetica,sans-Serif" font-size="10.00" fill="#000000"> #vertices</text>
<text text-anchor="middle" x="66.5" y="-339" font-family="Helvetica,sans-Serif" font-size="10.00" fill="#000000">#edges</text>
</g>
<!-- Node5 -->
<g id="node4" class="node">
<title>Node5</title>
<polygon fill="#ffffff" stroke="#bfbfbf" points="131.5,-387.5 131.5,-444.5 160.5,-444.5 160.5,-387.5 131.5,-387.5"/>
<text text-anchor="middle" x="146" y="-432.5" font-family="Helvetica,sans-Serif" font-size="10.00" fill="#000000">int</text>
<polyline fill="none" stroke="#bfbfbf" points="131.5,-425.5 160.5,-425.5 "/>
<text text-anchor="middle" x="146" y="-413.5" font-family="Helvetica,sans-Serif" font-size="10.00" fill="#000000"> </text>
<polyline fill="none" stroke="#bfbfbf" points="131.5,-406.5 160.5,-406.5 "/>
<text text-anchor="middle" x="146" y="-394.5" font-family="Helvetica,sans-Serif" font-size="10.00" fill="#000000"> </text>
</g>
<!-- Node5&#45;&gt;Node2 -->
<g id="edge4" class="edge">
<title>Node5&#45;&gt;Node2</title>
<path fill="none" stroke="#404040" d="M160.5843,-395.9689C165.5482,-387.9858 170.4772,-378.456 173,-369 178.0409,-350.1053 173.657,-344.5445 173,-325 169.8871,-232.3987 172.7016,-208.6349 159,-117 157.7581,-108.6944 156.082,-99.9615 154.25,-91.4797"/>
<polygon fill="none" stroke="#404040" points="154.2387,-91.4297 149.011,-86.4626 151.5853,-79.7267 156.813,-84.6937 154.2387,-91.4297"/>
<text text-anchor="middle" x="205.5" y="-220.5" font-family="Helvetica,sans-Serif" font-size="10.00" fill="#000000"> +n_vertices</text>
<text text-anchor="middle" x="205.5" y="-209.5" font-family="Helvetica,sans-Serif" font-size="10.00" fill="#000000">+n_edges</text>
<text text-anchor="middle" x="205.5" y="-198.5" font-family="Helvetica,sans-Serif" font-size="10.00" fill="#000000">+gmsh_el_type</text>
</g>
<!-- Node5&#45;&gt;Node3 -->
<g id="edge3" class="edge">
<title>Node5&#45;&gt;Node3</title>
<path fill="none" stroke="#404040" d="M131.1929,-404.5943C121.2719,-396.0025 108.9716,-383.2853 103,-369 96.5202,-353.4991 92.6942,-336.3748 90.6203,-319.3042"/>
<polygon fill="none" stroke="#404040" points="90.576,-318.8506 86.0105,-313.2688 89.4069,-306.9077 93.9724,-312.4894 90.576,-318.8506"/>
<text text-anchor="middle" x="138" y="-361" font-family="Helvetica,sans-Serif" font-size="10.00" fill="#000000"> #gmsh_el_type</text>
<text text-anchor="middle" x="138" y="-350" font-family="Helvetica,sans-Serif" font-size="10.00" fill="#000000">#n_vertices</text>
<text text-anchor="middle" x="138" y="-339" font-family="Helvetica,sans-Serif" font-size="10.00" fill="#000000">#n_edges</text>
<text text-anchor="middle" x="138" y="-328" font-family="Helvetica,sans-Serif" font-size="10.00" fill="#000000">#material_id</text>
</g>
</g>
</svg>
