<?xml version="1.0" encoding="UTF-8" standalone="no"?>
<!DOCTYPE svg PUBLIC "-//W3C//DTD SVG 1.1//EN"
 "http://www.w3.org/Graphics/SVG/1.1/DTD/svg11.dtd">
<!-- Generated by graphviz version 2.40.1 (20161225.0304)
 -->
<!-- Title: River::BranchNew::Size Pages: 1 -->
<svg width="545pt" height="78pt"
 viewBox="0.00 0.00 545.00 77.50" xmlns="http://www.w3.org/2000/svg" xmlns:xlink="http://www.w3.org/1999/xlink">
<g id="graph0" class="graph" transform="scale(1 1) rotate(0) translate(4 73.5)">
<title>River::BranchNew::Size</title>
<polygon fill="#ffffff" stroke="transparent" points="-4,4 -4,-73.5 541,-73.5 541,4 -4,4"/>
<!-- Node48 -->
<g id="node1" class="node">
<title>Node48</title>
<polygon fill="#bfbfbf" stroke="#000000" points="0,-28 0,-47 122,-47 122,-28 0,-28"/>
<text text-anchor="middle" x="61" y="-35" font-family="Helvetica,sans-Serif" font-size="10.00" fill="#000000">River::BranchNew::Size</text>
</g>
<!-- Node49 -->
<g id="node2" class="node">
<title>Node49</title>
<g id="a_node2"><a xlink:href="namespaceRiver.html#aa5a21f7169be41bacdb7bab009a2e7be" target="_top" xlink:title="Generates trees boundary. ">
<polygon fill="#ffffff" stroke="#000000" points="180.5,-50 180.5,-69 274.5,-69 274.5,-50 180.5,-50"/>
<text text-anchor="middle" x="227.5" y="-57" font-family="Helvetica,sans-Serif" font-size="10.00" fill="#000000">River::TreeVector</text>
</a>
</g>
</g>
<!-- Node48&#45;&gt;Node49 -->
<g id="edge1" class="edge">
<title>Node48&#45;&gt;Node49</title>
<path fill="none" stroke="#191970" d="M132.087,-46.8929C148.3706,-49.0445 165.2887,-51.2799 180.2766,-53.2603"/>
<polygon fill="#191970" stroke="#191970" points="132.4254,-43.4072 122.053,-45.5671 131.5083,-50.3469 132.4254,-43.4072"/>
</g>
<!-- Node52 -->
<g id="node5" class="node">
<title>Node52</title>
<g id="a_node5"><a xlink:href="classRiver_1_1BranchNew.html#a4ae4087275d76ff330e81189638b1b86" target="_top" xlink:title="Returns BranchNew::Lenght() divided by BranchNew::Size() ">
<polygon fill="#ffffff" stroke="#000000" points="158,-.5 158,-30.5 297,-30.5 297,-.5 158,-.5"/>
<text text-anchor="start" x="166" y="-18.5" font-family="Helvetica,sans-Serif" font-size="10.00" fill="#000000">River::BranchNew::Average</text>
<text text-anchor="middle" x="227.5" y="-7.5" font-family="Helvetica,sans-Serif" font-size="10.00" fill="#000000">Speed</text>
</a>
</g>
</g>
<!-- Node48&#45;&gt;Node52 -->
<g id="edge4" class="edge">
<title>Node48&#45;&gt;Node52</title>
<path fill="none" stroke="#191970" d="M132.245,-28.0862C140.6888,-26.9706 149.3008,-25.8326 157.7238,-24.7197"/>
<polygon fill="#191970" stroke="#191970" points="131.5083,-24.6531 122.053,-29.4329 132.4254,-31.5928 131.5083,-24.6531"/>
</g>
<!-- Node50 -->
<g id="node3" class="node">
<title>Node50</title>
<g id="a_node3"><a xlink:href="namespaceRiver.html#aa226e8aa15b4b21c82a2ea177e1faee6" target="_top" xlink:title="Finnal Boudary Geneartor Class. ">
<polygon fill="#ffffff" stroke="#000000" points="333,-50 333,-69 463,-69 463,-50 333,-50"/>
<text text-anchor="middle" x="398" y="-57" font-family="Helvetica,sans-Serif" font-size="10.00" fill="#000000">River::BoundaryGenerator</text>
</a>
</g>
</g>
<!-- Node49&#45;&gt;Node50 -->
<g id="edge2" class="edge">
<title>Node49&#45;&gt;Node50</title>
<path fill="none" stroke="#191970" d="M284.9623,-59.5C300.3704,-59.5 317.1382,-59.5 332.9265,-59.5"/>
<polygon fill="#191970" stroke="#191970" points="284.5412,-56.0001 274.5412,-59.5 284.5412,-63.0001 284.5412,-56.0001"/>
</g>
<!-- Node51 -->
<g id="node4" class="node">
<title>Node51</title>
<g id="a_node4"><a xlink:href="main_8cpp.html#a0ddf1224851353fc92bfbff6f499fa97" target="_top" xlink:title="Entry point of RiverSim program. ">
<polygon fill="#ffffff" stroke="#000000" points="499,-50 499,-69 537,-69 537,-50 499,-50"/>
<text text-anchor="middle" x="518" y="-57" font-family="Helvetica,sans-Serif" font-size="10.00" fill="#000000">main</text>
</a>
</g>
</g>
<!-- Node50&#45;&gt;Node51 -->
<g id="edge3" class="edge">
<title>Node50&#45;&gt;Node51</title>
<path fill="none" stroke="#191970" d="M473.2762,-59.5C482.7335,-59.5 491.6483,-59.5 498.9929,-59.5"/>
<polygon fill="#191970" stroke="#191970" points="473.2674,-56.0001 463.2674,-59.5 473.2674,-63.0001 473.2674,-56.0001"/>
</g>
</g>
</svg>
