<?xml version="1.0" encoding="UTF-8" standalone="no"?>
<!DOCTYPE svg PUBLIC "-//W3C//DTD SVG 1.1//EN"
 "http://www.w3.org/Graphics/SVG/1.1/DTD/svg11.dtd">
<!-- Generated by graphviz version 2.40.1 (20161225.0304)
 -->
<!-- Title: nlohmann::basic_json::end Pages: 1 -->
<svg width="288pt" height="137pt"
 viewBox="0.00 0.00 288.00 137.00" xmlns="http://www.w3.org/2000/svg" xmlns:xlink="http://www.w3.org/1999/xlink">
<g id="graph0" class="graph" transform="scale(1 1) rotate(0) translate(4 133)">
<title>nlohmann::basic_json::end</title>
<polygon fill="#ffffff" stroke="transparent" points="-4,4 -4,-133 284,-133 284,4 -4,4"/>
<!-- Node287 -->
<g id="node1" class="node">
<title>Node287</title>
<polygon fill="#bfbfbf" stroke="#000000" points="0,-55 0,-74 133,-74 133,-55 0,-55"/>
<text text-anchor="middle" x="66.5" y="-62" font-family="Helvetica,sans-Serif" font-size="10.00" fill="#000000">nlohmann::basic_json::end</text>
</g>
<!-- Node288 -->
<g id="node2" class="node">
<title>Node288</title>
<g id="a_node2"><a xlink:href="classnlohmann_1_1basic__json.html#a81e0c41a4a9dff4df2f6973f7f8b2a83" target="_top" xlink:title="applies a JSON patch ">
<polygon fill="#ffffff" stroke="#000000" points="169,-98.5 169,-128.5 280,-128.5 280,-98.5 169,-98.5"/>
<text text-anchor="start" x="177" y="-116.5" font-family="Helvetica,sans-Serif" font-size="10.00" fill="#000000">nlohmann::basic_json</text>
<text text-anchor="middle" x="224.5" y="-105.5" font-family="Helvetica,sans-Serif" font-size="10.00" fill="#000000">::patch</text>
</a>
</g>
</g>
<!-- Node287&#45;&gt;Node288 -->
<g id="edge1" class="edge">
<title>Node287&#45;&gt;Node288</title>
<path fill="none" stroke="#191970" d="M106.9435,-77.0426C127.9972,-83.5719 153.8913,-91.6024 176.0135,-98.463"/>
<polygon fill="#191970" stroke="#191970" points="107.9271,-73.6832 97.3391,-74.064 105.8535,-80.3691 107.9271,-73.6832"/>
</g>
<!-- Node289 -->
<g id="node3" class="node">
<title>Node289</title>
<g id="a_node3"><a xlink:href="classnlohmann_1_1basic__json.html#a4336103c941d9f60bd51320f4880e3dd" target="_top" xlink:title="creates a diff as a JSON patch ">
<polygon fill="#ffffff" stroke="#000000" points="169,-49.5 169,-79.5 280,-79.5 280,-49.5 169,-49.5"/>
<text text-anchor="start" x="177" y="-67.5" font-family="Helvetica,sans-Serif" font-size="10.00" fill="#000000">nlohmann::basic_json</text>
<text text-anchor="middle" x="224.5" y="-56.5" font-family="Helvetica,sans-Serif" font-size="10.00" fill="#000000">::diff</text>
</a>
</g>
</g>
<!-- Node287&#45;&gt;Node289 -->
<g id="edge2" class="edge">
<title>Node287&#45;&gt;Node289</title>
<path fill="none" stroke="#191970" d="M143.0766,-64.5C151.6548,-64.5 160.2712,-64.5 168.5206,-64.5"/>
<polygon fill="#191970" stroke="#191970" points="143.0483,-61.0001 133.0483,-64.5 143.0483,-68.0001 143.0483,-61.0001"/>
</g>
<!-- Node290 -->
<g id="node4" class="node">
<title>Node290</title>
<g id="a_node4"><a xlink:href="classnlohmann_1_1basic__json.html#a7c43ed2a3004c1fa9543913f37b9fca9" target="_top" xlink:title="applies a JSON Merge Patch ">
<polygon fill="#ffffff" stroke="#000000" points="169,-.5 169,-30.5 280,-30.5 280,-.5 169,-.5"/>
<text text-anchor="start" x="177" y="-18.5" font-family="Helvetica,sans-Serif" font-size="10.00" fill="#000000">nlohmann::basic_json</text>
<text text-anchor="middle" x="224.5" y="-7.5" font-family="Helvetica,sans-Serif" font-size="10.00" fill="#000000">::merge_patch</text>
</a>
</g>
</g>
<!-- Node287&#45;&gt;Node290 -->
<g id="edge3" class="edge">
<title>Node287&#45;&gt;Node290</title>
<path fill="none" stroke="#191970" d="M106.9435,-51.9574C127.9972,-45.4281 153.8913,-37.3976 176.0135,-30.537"/>
<polygon fill="#191970" stroke="#191970" points="105.8535,-48.6309 97.3391,-54.936 107.9271,-55.3168 105.8535,-48.6309"/>
</g>
</g>
</svg>
