<?xml version="1.0" encoding="UTF-8" standalone="no"?>
<!DOCTYPE svg PUBLIC "-//W3C//DTD SVG 1.1//EN"
 "http://www.w3.org/Graphics/SVG/1.1/DTD/svg11.dtd">
<!-- Generated by graphviz version 2.40.1 (20161225.0304)
 -->
<!-- Title: River::Point::norm Pages: 1 -->
<svg width="680pt" height="180pt"
 viewBox="0.00 0.00 680.00 180.00" xmlns="http://www.w3.org/2000/svg" xmlns:xlink="http://www.w3.org/1999/xlink">
<g id="graph0" class="graph" transform="scale(1 1) rotate(0) translate(4 176)">
<title>River::Point::norm</title>
<polygon fill="#ffffff" stroke="transparent" points="-4,4 -4,-176 676,-176 676,4 -4,4"/>
<!-- Node11 -->
<g id="node1" class="node">
<title>Node11</title>
<polygon fill="#bfbfbf" stroke="#000000" points="0,-76.5 0,-95.5 96,-95.5 96,-76.5 0,-76.5"/>
<text text-anchor="middle" x="48" y="-83.5" font-family="Helvetica,sans-Serif" font-size="10.00" fill="#000000">River::Point::norm</text>
</g>
<!-- Node12 -->
<g id="node2" class="node">
<title>Node12</title>
<g id="a_node2"><a xlink:href="classRiver_1_1Point.html#af33df3fef6945d57925744ad1b128cf4" target="_top" xlink:title="River::Point::getNormalized">
<polygon fill="#ffffff" stroke="#000000" points="132,-152.5 132,-171.5 269,-171.5 269,-152.5 132,-152.5"/>
<text text-anchor="middle" x="200.5" y="-159.5" font-family="Helvetica,sans-Serif" font-size="10.00" fill="#000000">River::Point::getNormalized</text>
</a>
</g>
</g>
<!-- Node11&#45;&gt;Node12 -->
<g id="edge1" class="edge">
<title>Node11&#45;&gt;Node12</title>
<path fill="none" stroke="#191970" d="M67.7112,-102.1146C84.0648,-114.7874 108.3831,-132.0719 132,-143 140.0643,-146.7315 149.0109,-149.867 157.7056,-152.4465"/>
<polygon fill="#191970" stroke="#191970" points="69.5142,-99.0782 59.5002,-95.6183 65.1709,-104.5678 69.5142,-99.0782"/>
</g>
<!-- Node13 -->
<g id="node3" class="node">
<title>Node13</title>
<g id="a_node3"><a xlink:href="classRiver_1_1Point.html#a5a80f76067f92be8434cafff8cf55380" target="_top" xlink:title="River::Point::getPolar">
<polygon fill="#ffffff" stroke="#000000" points="313.5,-76.5 313.5,-95.5 423.5,-95.5 423.5,-76.5 313.5,-76.5"/>
<text text-anchor="middle" x="368.5" y="-83.5" font-family="Helvetica,sans-Serif" font-size="10.00" fill="#000000">River::Point::getPolar</text>
</a>
</g>
</g>
<!-- Node11&#45;&gt;Node13 -->
<g id="edge2" class="edge">
<title>Node11&#45;&gt;Node13</title>
<path fill="none" stroke="#191970" d="M106.5893,-86C165.5025,-86 255.6396,-86 313.3136,-86"/>
<polygon fill="#191970" stroke="#191970" points="106.3291,-82.5001 96.3291,-86 106.3291,-89.5001 106.3291,-82.5001"/>
</g>
<!-- Node14 -->
<g id="node4" class="node">
<title>Node14</title>
<g id="a_node4"><a xlink:href="classRiver_1_1Point.html#aa6005dcc4bb5ded97a0b9a5eb28bc528" target="_top" xlink:title="River::Point::normalize">
<polygon fill="#ffffff" stroke="#000000" points="142.5,-114.5 142.5,-133.5 258.5,-133.5 258.5,-114.5 142.5,-114.5"/>
<text text-anchor="middle" x="200.5" y="-121.5" font-family="Helvetica,sans-Serif" font-size="10.00" fill="#000000">River::Point::normalize</text>
</a>
</g>
</g>
<!-- Node11&#45;&gt;Node14 -->
<g id="edge3" class="edge">
<title>Node11&#45;&gt;Node14</title>
<path fill="none" stroke="#191970" d="M96.3184,-98.04C117.6234,-103.3488 142.3042,-109.4988 162.2945,-114.4799"/>
<polygon fill="#191970" stroke="#191970" points="97.0318,-94.6108 86.4822,-95.589 95.3392,-101.4031 97.0318,-94.6108"/>
</g>
<!-- Node18 -->
<g id="node8" class="node">
<title>Node18</title>
<g id="a_node8"><a xlink:href="classRiver_1_1Point.html#a24deaa21918d47a5d4fea7e0a7e4b61b" target="_top" xlink:title="River::Point::angle">
<polygon fill="#ffffff" stroke="#000000" points="151.5,-38.5 151.5,-57.5 249.5,-57.5 249.5,-38.5 151.5,-38.5"/>
<text text-anchor="middle" x="200.5" y="-45.5" font-family="Helvetica,sans-Serif" font-size="10.00" fill="#000000">River::Point::angle</text>
</a>
</g>
</g>
<!-- Node11&#45;&gt;Node18 -->
<g id="edge7" class="edge">
<title>Node11&#45;&gt;Node18</title>
<path fill="none" stroke="#191970" d="M96.3184,-73.96C117.6234,-68.6512 142.3042,-62.5012 162.2945,-57.5201"/>
<polygon fill="#191970" stroke="#191970" points="95.3392,-70.5969 86.4822,-76.411 97.0318,-77.3892 95.3392,-70.5969"/>
</g>
<!-- Node21 -->
<g id="node11" class="node">
<title>Node21</title>
<g id="a_node11"><a xlink:href="classRiver_1_1BranchNew.html#a3d751724e8b8c4349c7ce25eee3a2995" target="_top" xlink:title="River::BranchNew::Shrink">
<polygon fill="#ffffff" stroke="#000000" points="135,-.5 135,-19.5 266,-19.5 266,-.5 135,-.5"/>
<text text-anchor="middle" x="200.5" y="-7.5" font-family="Helvetica,sans-Serif" font-size="10.00" fill="#000000">River::BranchNew::Shrink</text>
</a>
</g>
</g>
<!-- Node11&#45;&gt;Node21 -->
<g id="edge12" class="edge">
<title>Node11&#45;&gt;Node21</title>
<path fill="none" stroke="#191970" d="M67.7112,-69.8854C84.0648,-57.2126 108.3831,-39.9281 132,-29 140.0643,-25.2685 149.0109,-22.133 157.7056,-19.5535"/>
<polygon fill="#191970" stroke="#191970" points="65.1709,-67.4322 59.5002,-76.3817 69.5142,-72.9218 65.1709,-67.4322"/>
</g>
<!-- Node15 -->
<g id="node5" class="node">
<title>Node15</title>
<g id="a_node5"><a xlink:href="namespaceRiver.html#aa5a21f7169be41bacdb7bab009a2e7be" target="_top" xlink:title="River::TreeVector">
<polygon fill="#ffffff" stroke="#000000" points="321.5,-114.5 321.5,-133.5 415.5,-133.5 415.5,-114.5 321.5,-114.5"/>
<text text-anchor="middle" x="368.5" y="-121.5" font-family="Helvetica,sans-Serif" font-size="10.00" fill="#000000">River::TreeVector</text>
</a>
</g>
</g>
<!-- Node14&#45;&gt;Node15 -->
<g id="edge4" class="edge">
<title>Node14&#45;&gt;Node15</title>
<path fill="none" stroke="#191970" d="M269.0196,-124C286.6252,-124 305.1707,-124 321.4164,-124"/>
<polygon fill="#191970" stroke="#191970" points="268.7868,-120.5001 258.7868,-124 268.7867,-127.5001 268.7868,-120.5001"/>
</g>
<!-- Node16 -->
<g id="node6" class="node">
<title>Node16</title>
<g id="a_node6"><a xlink:href="namespaceRiver.html#aa226e8aa15b4b21c82a2ea177e1faee6" target="_top" xlink:title="River::BoundaryGenerator">
<polygon fill="#ffffff" stroke="#000000" points="468,-92.5 468,-111.5 598,-111.5 598,-92.5 468,-92.5"/>
<text text-anchor="middle" x="533" y="-99.5" font-family="Helvetica,sans-Serif" font-size="10.00" fill="#000000">River::BoundaryGenerator</text>
</a>
</g>
</g>
<!-- Node15&#45;&gt;Node16 -->
<g id="edge5" class="edge">
<title>Node15&#45;&gt;Node16</title>
<path fill="none" stroke="#191970" d="M425.7825,-116.3391C439.3381,-114.5262 453.8932,-112.5796 467.7721,-110.7235"/>
<polygon fill="#191970" stroke="#191970" points="425.0869,-112.9009 415.6391,-117.6957 426.0148,-119.8391 425.0869,-112.9009"/>
</g>
<!-- Node17 -->
<g id="node7" class="node">
<title>Node17</title>
<g id="a_node7"><a xlink:href="main_8cpp.html#a0ddf1224851353fc92bfbff6f499fa97" target="_top" xlink:title="Entry point of RiverSim program. ">
<polygon fill="#ffffff" stroke="#000000" points="634,-51.5 634,-70.5 672,-70.5 672,-51.5 634,-51.5"/>
<text text-anchor="middle" x="653" y="-58.5" font-family="Helvetica,sans-Serif" font-size="10.00" fill="#000000">main</text>
</a>
</g>
</g>
<!-- Node16&#45;&gt;Node17 -->
<g id="edge6" class="edge">
<title>Node16&#45;&gt;Node17</title>
<path fill="none" stroke="#191970" d="M570.4601,-89.2011C591.5175,-82.0065 616.9088,-73.3311 633.9193,-67.5192"/>
<polygon fill="#191970" stroke="#191970" points="569.1633,-85.9455 560.832,-92.4907 571.4266,-92.5695 569.1633,-85.9455"/>
</g>
<!-- Node18&#45;&gt;Node13 -->
<g id="edge9" class="edge">
<title>Node18&#45;&gt;Node13</title>
<path fill="none" stroke="#191970" d="M252.7757,-59.8243C276.4607,-65.1816 304.0903,-71.4311 326.4114,-76.4799"/>
<polygon fill="#191970" stroke="#191970" points="253.4193,-56.3815 242.8935,-57.589 251.8749,-63.209 253.4193,-56.3815"/>
</g>
<!-- Node19 -->
<g id="node9" class="node">
<title>Node19</title>
<g id="a_node9"><a xlink:href="classRiver_1_1Border.html#ad884663725156885e8e5def07a2e49c1" target="_top" xlink:title="Return normal line angle to boundary at point where is located source with source_id ...">
<polygon fill="#ffffff" stroke="#000000" points="305,-27 305,-57 432,-57 432,-27 305,-27"/>
<text text-anchor="start" x="313" y="-45" font-family="Helvetica,sans-Serif" font-size="10.00" fill="#000000">River::Border::GetSource</text>
<text text-anchor="middle" x="368.5" y="-34" font-family="Helvetica,sans-Serif" font-size="10.00" fill="#000000">NormalAngle</text>
</a>
</g>
</g>
<!-- Node18&#45;&gt;Node19 -->
<g id="edge8" class="edge">
<title>Node18&#45;&gt;Node19</title>
<path fill="none" stroke="#191970" d="M259.9504,-45.8768C274.5437,-45.3556 290.2208,-44.7957 304.9967,-44.268"/>
<polygon fill="#191970" stroke="#191970" points="259.4129,-42.3936 249.5442,-46.2484 259.6628,-49.3892 259.4129,-42.3936"/>
</g>
<!-- Node20 -->
<g id="node10" class="node">
<title>Node20</title>
<g id="a_node10"><a xlink:href="classRiver_1_1Solver.html#a8224d44b334d6d1f0d40d5b161bbdd6d" target="_top" xlink:title="River::Solver::integrate">
<polygon fill="#ffffff" stroke="#000000" points="474.5,-32.5 474.5,-51.5 591.5,-51.5 591.5,-32.5 474.5,-32.5"/>
<text text-anchor="middle" x="533" y="-39.5" font-family="Helvetica,sans-Serif" font-size="10.00" fill="#000000">River::Solver::integrate</text>
</a>
</g>
</g>
<!-- Node18&#45;&gt;Node20 -->
<g id="edge10" class="edge">
<title>Node18&#45;&gt;Node20</title>
<path fill="none" stroke="#191970" d="M245.8127,-35.7841C253.5678,-33.5927 261.5302,-31.2793 269,-29 285.1312,-24.0778 288.3523,-19.7016 305,-17 360.7156,-7.9586 375.9705,-10.1687 432,-17 456.0277,-19.9295 482.5741,-26.6419 502.4191,-32.3742"/>
<polygon fill="#191970" stroke="#191970" points="244.8424,-32.4211 236.1531,-38.4829 246.726,-39.1629 244.8424,-32.4211"/>
</g>
<!-- Node20&#45;&gt;Node17 -->
<g id="edge11" class="edge">
<title>Node20&#45;&gt;Node17</title>
<path fill="none" stroke="#191970" d="M601.6426,-52.8684C613.5261,-54.75 624.9477,-56.5584 633.9898,-57.99"/>
<polygon fill="#191970" stroke="#191970" points="602.0182,-49.3844 591.5939,-51.2774 600.9234,-56.2982 602.0182,-49.3844"/>
</g>
</g>
</svg>
