<?xml version="1.0" encoding="UTF-8" standalone="no"?>
<!DOCTYPE svg PUBLIC "-//W3C//DTD SVG 1.1//EN"
 "http://www.w3.org/Graphics/SVG/1.1/DTD/svg11.dtd">
<!-- Generated by graphviz version 2.40.1 (20161225.0304)
 -->
<!-- Title: River::Geometry Pages: 1 -->
<svg width="790pt" height="578pt"
 viewBox="0.00 0.00 789.50 578.00" xmlns="http://www.w3.org/2000/svg" xmlns:xlink="http://www.w3.org/1999/xlink">
<g id="graph0" class="graph" transform="scale(1 1) rotate(0) translate(4 574)">
<title>River::Geometry</title>
<polygon fill="#ffffff" stroke="transparent" points="-4,4 -4,-574 785.5,-574 785.5,4 -4,4"/>
<!-- Node1 -->
<g id="node1" class="node">
<title>Node1</title>
<polygon fill="#bfbfbf" stroke="#000000" points="332.5,-.5 332.5,-365.5 499.5,-365.5 499.5,-.5 332.5,-.5"/>
<text text-anchor="middle" x="416" y="-353.5" font-family="Helvetica,sans-Serif" font-size="10.00" fill="#000000">River::Geometry</text>
<polyline fill="none" stroke="#000000" points="332.5,-346.5 499.5,-346.5 "/>
<text text-anchor="middle" x="416" y="-334.5" font-family="Helvetica,sans-Serif" font-size="10.00" fill="#000000"> </text>
<polyline fill="none" stroke="#000000" points="332.5,-327.5 499.5,-327.5 "/>
<text text-anchor="start" x="340.5" y="-315.5" font-family="Helvetica,sans-Serif" font-size="10.00" fill="#000000">+ Geometry()</text>
<text text-anchor="start" x="340.5" y="-304.5" font-family="Helvetica,sans-Serif" font-size="10.00" fill="#000000">+ ~Geometry()</text>
<text text-anchor="start" x="340.5" y="-293.5" font-family="Helvetica,sans-Serif" font-size="10.00" fill="#000000">+ initiateRootBranch()</text>
<text text-anchor="start" x="340.5" y="-282.5" font-family="Helvetica,sans-Serif" font-size="10.00" fill="#000000">+ addPoints()</text>
<text text-anchor="start" x="340.5" y="-271.5" font-family="Helvetica,sans-Serif" font-size="10.00" fill="#000000">+ addDPoints()</text>
<text text-anchor="start" x="340.5" y="-260.5" font-family="Helvetica,sans-Serif" font-size="10.00" fill="#000000">+ addPolar()</text>
<text text-anchor="start" x="340.5" y="-249.5" font-family="Helvetica,sans-Serif" font-size="10.00" fill="#000000">+ SetSquareBoundary()</text>
<text text-anchor="start" x="340.5" y="-238.5" font-family="Helvetica,sans-Serif" font-size="10.00" fill="#000000">+ AddBiffurcation()</text>
<text text-anchor="start" x="340.5" y="-227.5" font-family="Helvetica,sans-Serif" font-size="10.00" fill="#000000">+ GetTipIds()</text>
<text text-anchor="start" x="340.5" y="-216.5" font-family="Helvetica,sans-Serif" font-size="10.00" fill="#000000">+ GetTipPoints()</text>
<text text-anchor="start" x="340.5" y="-205.5" font-family="Helvetica,sans-Serif" font-size="10.00" fill="#000000">+ GetTipPolars()</text>
<text text-anchor="start" x="340.5" y="-194.5" font-family="Helvetica,sans-Serif" font-size="10.00" fill="#000000">+ InitiateMesh()</text>
<text text-anchor="start" x="340.5" y="-183.5" font-family="Helvetica,sans-Serif" font-size="10.00" fill="#000000">+ SetEps()</text>
<text text-anchor="start" x="340.5" y="-172.5" font-family="Helvetica,sans-Serif" font-size="10.00" fill="#000000">+ clear()</text>
<text text-anchor="start" x="340.5" y="-161.5" font-family="Helvetica,sans-Serif" font-size="10.00" fill="#000000">&#45; get_branch()</text>
<text text-anchor="start" x="340.5" y="-150.5" font-family="Helvetica,sans-Serif" font-size="10.00" fill="#000000">&#45; q_branch()</text>
<text text-anchor="start" x="340.5" y="-139.5" font-family="Helvetica,sans-Serif" font-size="10.00" fill="#000000">&#45; q_branch_childs()</text>
<text text-anchor="start" x="340.5" y="-128.5" font-family="Helvetica,sans-Serif" font-size="10.00" fill="#000000">&#45; get_branch_childs()</text>
<text text-anchor="start" x="340.5" y="-117.5" font-family="Helvetica,sans-Serif" font-size="10.00" fill="#000000">&#45; add_branch()</text>
<text text-anchor="start" x="340.5" y="-106.5" font-family="Helvetica,sans-Serif" font-size="10.00" fill="#000000">&#45; add_branch_relation()</text>
<text text-anchor="start" x="340.5" y="-95.5" font-family="Helvetica,sans-Serif" font-size="10.00" fill="#000000">&#45; GetEndPointOfSquareBoundary()</text>
<text text-anchor="start" x="340.5" y="-84.5" font-family="Helvetica,sans-Serif" font-size="10.00" fill="#000000">&#45; InserBranchTree()</text>
<text text-anchor="start" x="340.5" y="-73.5" font-family="Helvetica,sans-Serif" font-size="10.00" fill="#000000">&#45; generate_ids_of_tip</text>
<text text-anchor="start" x="340.5" y="-62.5" font-family="Helvetica,sans-Serif" font-size="10.00" fill="#000000">_branches()</text>
<text text-anchor="start" x="340.5" y="-51.5" font-family="Helvetica,sans-Serif" font-size="10.00" fill="#000000">&#45; generateCircularBoundary()</text>
<text text-anchor="start" x="340.5" y="-40.5" font-family="Helvetica,sans-Serif" font-size="10.00" fill="#000000">&#45; mergedLeft()</text>
<text text-anchor="start" x="340.5" y="-29.5" font-family="Helvetica,sans-Serif" font-size="10.00" fill="#000000">&#45; mergedRight()</text>
<text text-anchor="start" x="340.5" y="-18.5" font-family="Helvetica,sans-Serif" font-size="10.00" fill="#000000">&#45; mergedCenter()</text>
<text text-anchor="start" x="340.5" y="-7.5" font-family="Helvetica,sans-Serif" font-size="10.00" fill="#000000">&#45; generateID()</text>
</g>
<!-- Node2 -->
<g id="node2" class="node">
<title>Node2</title>
<polygon fill="#ffffff" stroke="#bfbfbf" points="0,-490.5 0,-569.5 100,-569.5 100,-490.5 0,-490.5"/>
<text text-anchor="start" x="8" y="-557.5" font-family="Helvetica,sans-Serif" font-size="10.00" fill="#000000">map&lt; unsigned int,</text>
<text text-anchor="start" x="8" y="-546.5" font-family="Helvetica,sans-Serif" font-size="10.00" fill="#000000"> pair&lt; unsigned int,</text>
<text text-anchor="middle" x="50" y="-535.5" font-family="Helvetica,sans-Serif" font-size="10.00" fill="#000000"> unsigned int &gt; &gt;</text>
<polyline fill="none" stroke="#bfbfbf" points="0,-528.5 100,-528.5 "/>
<text text-anchor="middle" x="50" y="-516.5" font-family="Helvetica,sans-Serif" font-size="10.00" fill="#000000"> </text>
<polyline fill="none" stroke="#bfbfbf" points="0,-509.5 100,-509.5 "/>
<text text-anchor="middle" x="50" y="-497.5" font-family="Helvetica,sans-Serif" font-size="10.00" fill="#000000"> </text>
</g>
<!-- Node2&#45;&gt;Node1 -->
<g id="edge1" class="edge">
<title>Node2&#45;&gt;Node1</title>
<path fill="none" stroke="#404040" d="M61.5454,-490.4417C72.1723,-459.0342 90.3554,-415.3406 117,-384 173.511,-317.5293 257.2063,-263.8214 321.6857,-228.702"/>
<polygon fill="none" stroke="#404040" points="321.6994,-228.6946 325.0889,-222.3298 332.2678,-223.0105 328.8783,-229.3754 321.6994,-228.6946"/>
<text text-anchor="middle" x="153" y="-425.5" font-family="Helvetica,sans-Serif" font-size="10.00" fill="#000000"> &#45;branchRelation</text>
</g>
<!-- Node3 -->
<g id="node3" class="node">
<title>Node3</title>
<polygon fill="#ffffff" stroke="#bfbfbf" points="118,-501.5 118,-558.5 258,-558.5 258,-501.5 118,-501.5"/>
<text text-anchor="middle" x="188" y="-546.5" font-family="Helvetica,sans-Serif" font-size="10.00" fill="#000000">vector&lt; River::GeomPoint &gt;</text>
<polyline fill="none" stroke="#bfbfbf" points="118,-539.5 258,-539.5 "/>
<text text-anchor="middle" x="188" y="-527.5" font-family="Helvetica,sans-Serif" font-size="10.00" fill="#000000"> </text>
<polyline fill="none" stroke="#bfbfbf" points="118,-520.5 258,-520.5 "/>
<text text-anchor="middle" x="188" y="-508.5" font-family="Helvetica,sans-Serif" font-size="10.00" fill="#000000"> </text>
</g>
<!-- Node3&#45;&gt;Node1 -->
<g id="edge2" class="edge">
<title>Node3&#45;&gt;Node1</title>
<path fill="none" stroke="#404040" d="M189.6058,-501.4998C192.3565,-470.8447 199.8112,-421.4626 220,-384 245.6876,-336.3337 285.9914,-292.1853 323.3882,-257.4782"/>
<polygon fill="none" stroke="#404040" points="323.4601,-257.4125 325.1899,-250.4119 332.3173,-249.316 330.5875,-256.3166 323.4601,-257.4125"/>
<text text-anchor="middle" x="255.5" y="-431" font-family="Helvetica,sans-Serif" font-size="10.00" fill="#000000"> &#45;points</text>
<text text-anchor="middle" x="255.5" y="-420" font-family="Helvetica,sans-Serif" font-size="10.00" fill="#000000">&#45;boundaryPoints</text>
</g>
<!-- Node4 -->
<g id="node4" class="node">
<title>Node4</title>
<polygon fill="#ffffff" stroke="#bfbfbf" points="276.5,-501.5 276.5,-558.5 321.5,-558.5 321.5,-501.5 276.5,-501.5"/>
<text text-anchor="middle" x="299" y="-546.5" font-family="Helvetica,sans-Serif" font-size="10.00" fill="#000000">double</text>
<polyline fill="none" stroke="#bfbfbf" points="276.5,-539.5 321.5,-539.5 "/>
<text text-anchor="middle" x="299" y="-527.5" font-family="Helvetica,sans-Serif" font-size="10.00" fill="#000000"> </text>
<polyline fill="none" stroke="#bfbfbf" points="276.5,-520.5 321.5,-520.5 "/>
<text text-anchor="middle" x="299" y="-508.5" font-family="Helvetica,sans-Serif" font-size="10.00" fill="#000000"> </text>
</g>
<!-- Node4&#45;&gt;Node1 -->
<g id="edge3" class="edge">
<title>Node4&#45;&gt;Node1</title>
<path fill="none" stroke="#404040" d="M296.3538,-501.4101C294.4652,-471.5305 293.9266,-423.5772 305,-384 310.5252,-364.2525 318.3117,-344.3255 327.2277,-325.0883"/>
<polygon fill="none" stroke="#404040" points="327.2732,-324.993 326.2489,-317.855 332.4439,-314.1641 333.4682,-321.3021 327.2732,-324.993"/>
<text text-anchor="middle" x="352" y="-464" font-family="Helvetica,sans-Serif" font-size="10.00" fill="#000000"> &#45;len</text>
<text text-anchor="middle" x="352" y="-453" font-family="Helvetica,sans-Serif" font-size="10.00" fill="#000000">&#45;tipMeshSize</text>
<text text-anchor="middle" x="352" y="-442" font-family="Helvetica,sans-Serif" font-size="10.00" fill="#000000">&#45;eps</text>
<text text-anchor="middle" x="352" y="-431" font-family="Helvetica,sans-Serif" font-size="10.00" fill="#000000">&#45;boundariesMeshSize</text>
<text text-anchor="middle" x="352" y="-420" font-family="Helvetica,sans-Serif" font-size="10.00" fill="#000000">&#45;riverMeshSize</text>
<text text-anchor="middle" x="352" y="-409" font-family="Helvetica,sans-Serif" font-size="10.00" fill="#000000">&#45;dx</text>
<text text-anchor="middle" x="352" y="-398" font-family="Helvetica,sans-Serif" font-size="10.00" fill="#000000">&#45;alpha</text>
<text text-anchor="middle" x="352" y="-387" font-family="Helvetica,sans-Serif" font-size="10.00" fill="#000000">&#45;bifAngle</text>
</g>
<!-- Node5 -->
<g id="node5" class="node">
<title>Node5</title>
<polygon fill="#ffffff" stroke="#bfbfbf" points="340,-501.5 340,-558.5 462,-558.5 462,-501.5 340,-501.5"/>
<text text-anchor="middle" x="401" y="-546.5" font-family="Helvetica,sans-Serif" font-size="10.00" fill="#000000">vector&lt; River::Branch &gt;</text>
<polyline fill="none" stroke="#bfbfbf" points="340,-539.5 462,-539.5 "/>
<text text-anchor="middle" x="401" y="-527.5" font-family="Helvetica,sans-Serif" font-size="10.00" fill="#000000"> </text>
<polyline fill="none" stroke="#bfbfbf" points="340,-520.5 462,-520.5 "/>
<text text-anchor="middle" x="401" y="-508.5" font-family="Helvetica,sans-Serif" font-size="10.00" fill="#000000"> </text>
</g>
<!-- Node5&#45;&gt;Node1 -->
<g id="edge4" class="edge">
<title>Node5&#45;&gt;Node1</title>
<path fill="none" stroke="#404040" d="M402.2403,-501.3083C403.4723,-472.8068 405.4768,-426.4366 407.5793,-377.7992"/>
<polygon fill="none" stroke="#404040" points="407.5826,-377.7197 403.8455,-371.5525 408.101,-365.7309 411.8381,-371.8981 407.5826,-377.7197"/>
<text text-anchor="middle" x="430" y="-425.5" font-family="Helvetica,sans-Serif" font-size="10.00" fill="#000000"> &#45;branches</text>
</g>
<!-- Node6 -->
<g id="node6" class="node">
<title>Node6</title>
<polygon fill="#ffffff" stroke="#bfbfbf" points="480.5,-501.5 480.5,-558.5 509.5,-558.5 509.5,-501.5 480.5,-501.5"/>
<text text-anchor="middle" x="495" y="-546.5" font-family="Helvetica,sans-Serif" font-size="10.00" fill="#000000">int</text>
<polyline fill="none" stroke="#bfbfbf" points="480.5,-539.5 509.5,-539.5 "/>
<text text-anchor="middle" x="495" y="-527.5" font-family="Helvetica,sans-Serif" font-size="10.00" fill="#000000"> </text>
<polyline fill="none" stroke="#bfbfbf" points="480.5,-520.5 509.5,-520.5 "/>
<text text-anchor="middle" x="495" y="-508.5" font-family="Helvetica,sans-Serif" font-size="10.00" fill="#000000"> </text>
</g>
<!-- Node6&#45;&gt;Node1 -->
<g id="edge5" class="edge">
<title>Node6&#45;&gt;Node1</title>
<path fill="none" stroke="#404040" d="M488.4679,-501.3083C481.9653,-472.7465 471.3775,-426.2404 460.2789,-377.4907"/>
<polygon fill="none" stroke="#404040" points="460.2655,-377.4315 455.0333,-372.4692 457.6016,-365.7309 462.8337,-370.6933 460.2655,-377.4315"/>
<text text-anchor="middle" x="512" y="-425.5" font-family="Helvetica,sans-Serif" font-size="10.00" fill="#000000"> &#45;rootBranchId</text>
</g>
<!-- Node7 -->
<g id="node7" class="node">
<title>Node7</title>
<polygon fill="#ffffff" stroke="#bfbfbf" points="528,-496 528,-564 628,-564 628,-496 528,-496"/>
<text text-anchor="start" x="536" y="-552" font-family="Helvetica,sans-Serif" font-size="10.00" fill="#000000">map&lt; unsigned int,</text>
<text text-anchor="middle" x="578" y="-541" font-family="Helvetica,sans-Serif" font-size="10.00" fill="#000000"> unsigned int &gt;</text>
<polyline fill="none" stroke="#bfbfbf" points="528,-534 628,-534 "/>
<text text-anchor="middle" x="578" y="-522" font-family="Helvetica,sans-Serif" font-size="10.00" fill="#000000"> </text>
<polyline fill="none" stroke="#bfbfbf" points="528,-515 628,-515 "/>
<text text-anchor="middle" x="578" y="-503" font-family="Helvetica,sans-Serif" font-size="10.00" fill="#000000"> </text>
</g>
<!-- Node7&#45;&gt;Node1 -->
<g id="edge6" class="edge">
<title>Node7&#45;&gt;Node1</title>
<path fill="none" stroke="#404040" d="M574.364,-495.8976C570.3025,-465.6155 562.1978,-420.6172 547,-384 535.9835,-357.4573 521.39,-330.622 505.9476,-305.5797"/>
<polygon fill="none" stroke="#404040" points="505.8993,-305.5026 499.3227,-302.5448 499.5236,-295.3364 506.1002,-298.2943 505.8993,-305.5026"/>
<text text-anchor="middle" x="605" y="-425.5" font-family="Helvetica,sans-Serif" font-size="10.00" fill="#000000"> &#45;branchIndexes</text>
</g>
<!-- Node8 -->
<g id="node8" class="node">
<title>Node8</title>
<polygon fill="#ffffff" stroke="#bfbfbf" points="646.5,-501.5 646.5,-558.5 781.5,-558.5 781.5,-501.5 646.5,-501.5"/>
<text text-anchor="middle" x="714" y="-546.5" font-family="Helvetica,sans-Serif" font-size="10.00" fill="#000000">vector&lt; River::GeomLine &gt;</text>
<polyline fill="none" stroke="#bfbfbf" points="646.5,-539.5 781.5,-539.5 "/>
<text text-anchor="middle" x="714" y="-527.5" font-family="Helvetica,sans-Serif" font-size="10.00" fill="#000000"> </text>
<polyline fill="none" stroke="#bfbfbf" points="646.5,-520.5 781.5,-520.5 "/>
<text text-anchor="middle" x="714" y="-508.5" font-family="Helvetica,sans-Serif" font-size="10.00" fill="#000000"> </text>
</g>
<!-- Node8&#45;&gt;Node1 -->
<g id="edge7" class="edge">
<title>Node8&#45;&gt;Node1</title>
<path fill="none" stroke="#404040" d="M704.1527,-501.2294C692.719,-470.3432 671.8135,-420.7649 644,-384 606.0293,-333.809 553.9514,-286.7577 509.1525,-250.8144"/>
<polygon fill="none" stroke="#404040" points="509.108,-250.7791 501.9219,-250.1799 499.7111,-243.316 506.8973,-243.9153 509.108,-250.7791"/>
<text text-anchor="middle" x="725.5" y="-431" font-family="Helvetica,sans-Serif" font-size="10.00" fill="#000000"> &#45;lines</text>
<text text-anchor="middle" x="725.5" y="-420" font-family="Helvetica,sans-Serif" font-size="10.00" fill="#000000">&#45;boundaryLines</text>
</g>
</g>
</svg>
