<?xml version="1.0" encoding="UTF-8" standalone="no"?>
<!DOCTYPE svg PUBLIC "-//W3C//DTD SVG 1.1//EN"
 "http://www.w3.org/Graphics/SVG/1.1/DTD/svg11.dtd">
<!-- Generated by graphviz version 2.40.1 (20161225.0304)
 -->
<!-- Title: nlohmann::basic_json::is_object Pages: 1 -->
<svg width="266pt" height="137pt"
 viewBox="0.00 0.00 266.00 137.00" xmlns="http://www.w3.org/2000/svg" xmlns:xlink="http://www.w3.org/1999/xlink">
<g id="graph0" class="graph" transform="scale(1 1) rotate(0) translate(4 133)">
<title>nlohmann::basic_json::is_object</title>
<polygon fill="#ffffff" stroke="transparent" points="-4,4 -4,-133 262,-133 262,4 -4,4"/>
<!-- Node74 -->
<g id="node1" class="node">
<title>Node74</title>
<polygon fill="#bfbfbf" stroke="#000000" points="0,-49.5 0,-79.5 111,-79.5 111,-49.5 0,-49.5"/>
<text text-anchor="start" x="8" y="-67.5" font-family="Helvetica,sans-Serif" font-size="10.00" fill="#000000">nlohmann::basic_json</text>
<text text-anchor="middle" x="55.5" y="-56.5" font-family="Helvetica,sans-Serif" font-size="10.00" fill="#000000">::is_object</text>
</g>
<!-- Node75 -->
<g id="node2" class="node">
<title>Node75</title>
<g id="a_node2"><a xlink:href="classnlohmann_1_1basic__json.html#a1cfa9ae5e7c2434cab4cfe69bffffe11" target="_top" xlink:title="updates a JSON object from another object, overwriting existing keys ">
<polygon fill="#ffffff" stroke="#000000" points="147,-98.5 147,-128.5 258,-128.5 258,-98.5 147,-98.5"/>
<text text-anchor="start" x="155" y="-116.5" font-family="Helvetica,sans-Serif" font-size="10.00" fill="#000000">nlohmann::basic_json</text>
<text text-anchor="middle" x="202.5" y="-105.5" font-family="Helvetica,sans-Serif" font-size="10.00" fill="#000000">::update</text>
</a>
</g>
</g>
<!-- Node74&#45;&gt;Node75 -->
<g id="edge1" class="edge">
<title>Node74&#45;&gt;Node75</title>
<path fill="none" stroke="#191970" d="M110.7164,-82.9055C126.0967,-88.0322 142.6175,-93.5392 157.3453,-98.4484"/>
<polygon fill="#191970" stroke="#191970" points="111.398,-79.4434 100.8043,-79.6014 109.1843,-86.0842 111.398,-79.4434"/>
</g>
<!-- Node76 -->
<g id="node3" class="node">
<title>Node76</title>
<g id="a_node3"><a xlink:href="classnlohmann_1_1basic__json.html#a81e0c41a4a9dff4df2f6973f7f8b2a83" target="_top" xlink:title="applies a JSON patch ">
<polygon fill="#ffffff" stroke="#000000" points="147,-49.5 147,-79.5 258,-79.5 258,-49.5 147,-49.5"/>
<text text-anchor="start" x="155" y="-67.5" font-family="Helvetica,sans-Serif" font-size="10.00" fill="#000000">nlohmann::basic_json</text>
<text text-anchor="middle" x="202.5" y="-56.5" font-family="Helvetica,sans-Serif" font-size="10.00" fill="#000000">::patch</text>
</a>
</g>
</g>
<!-- Node74&#45;&gt;Node76 -->
<g id="edge2" class="edge">
<title>Node74&#45;&gt;Node76</title>
<path fill="none" stroke="#191970" d="M121.0775,-64.5C129.6805,-64.5 138.4299,-64.5 146.847,-64.5"/>
<polygon fill="#191970" stroke="#191970" points="121.0744,-61.0001 111.0744,-64.5 121.0744,-68.0001 121.0744,-61.0001"/>
</g>
<!-- Node77 -->
<g id="node4" class="node">
<title>Node77</title>
<g id="a_node4"><a xlink:href="classnlohmann_1_1basic__json.html#a7c43ed2a3004c1fa9543913f37b9fca9" target="_top" xlink:title="applies a JSON Merge Patch ">
<polygon fill="#ffffff" stroke="#000000" points="147,-.5 147,-30.5 258,-30.5 258,-.5 147,-.5"/>
<text text-anchor="start" x="155" y="-18.5" font-family="Helvetica,sans-Serif" font-size="10.00" fill="#000000">nlohmann::basic_json</text>
<text text-anchor="middle" x="202.5" y="-7.5" font-family="Helvetica,sans-Serif" font-size="10.00" fill="#000000">::merge_patch</text>
</a>
</g>
</g>
<!-- Node74&#45;&gt;Node77 -->
<g id="edge3" class="edge">
<title>Node74&#45;&gt;Node77</title>
<path fill="none" stroke="#191970" d="M110.7164,-46.0945C126.0967,-40.9678 142.6175,-35.4608 157.3453,-30.5516"/>
<polygon fill="#191970" stroke="#191970" points="109.1843,-42.9158 100.8043,-49.3986 111.398,-49.5566 109.1843,-42.9158"/>
</g>
</g>
</svg>
