<?xml version="1.0" encoding="UTF-8" standalone="no"?>
<!DOCTYPE svg PUBLIC "-//W3C//DTD SVG 1.1//EN"
 "http://www.w3.org/Graphics/SVG/1.1/DTD/svg11.dtd">
<!-- Generated by graphviz version 2.40.1 (20161225.0304)
 -->
<!-- Title: nlohmann::detail::invalid_iterator Pages: 1 -->
<svg width="226pt" height="310pt"
 viewBox="0.00 0.00 225.50 310.00" xmlns="http://www.w3.org/2000/svg" xmlns:xlink="http://www.w3.org/1999/xlink">
<g id="graph0" class="graph" transform="scale(1 1) rotate(0) translate(4 306)">
<title>nlohmann::detail::invalid_iterator</title>
<polygon fill="#ffffff" stroke="transparent" points="-4,4 -4,-306 221.5,-306 221.5,4 -4,4"/>
<!-- Node3 -->
<g id="node1" class="node">
<title>Node3</title>
<polygon fill="#bfbfbf" stroke="#000000" points="72,-.5 72,-79.5 194,-79.5 194,-.5 72,-.5"/>
<text text-anchor="start" x="80" y="-67.5" font-family="Helvetica,sans-Serif" font-size="10.00" fill="#000000">nlohmann::detail::invalid</text>
<text text-anchor="middle" x="133" y="-56.5" font-family="Helvetica,sans-Serif" font-size="10.00" fill="#000000">_iterator</text>
<polyline fill="none" stroke="#000000" points="72,-49.5 194,-49.5 "/>
<text text-anchor="middle" x="133" y="-37.5" font-family="Helvetica,sans-Serif" font-size="10.00" fill="#000000"> </text>
<polyline fill="none" stroke="#000000" points="72,-30.5 194,-30.5 "/>
<text text-anchor="start" x="80" y="-18.5" font-family="Helvetica,sans-Serif" font-size="10.00" fill="#000000">+ create()</text>
<text text-anchor="start" x="80" y="-7.5" font-family="Helvetica,sans-Serif" font-size="10.00" fill="#000000">&#45; invalid_iterator()</text>
</g>
<!-- Node4 -->
<g id="node2" class="node">
<title>Node4</title>
<g id="a_node2"><a xlink:href="classnlohmann_1_1detail_1_1exception.html" target="_top" xlink:title="general exception of the basic_json class ">
<polygon fill="#ffffff" stroke="#000000" points="65,-117.5 65,-196.5 201,-196.5 201,-117.5 65,-117.5"/>
<text text-anchor="middle" x="133" y="-184.5" font-family="Helvetica,sans-Serif" font-size="10.00" fill="#000000">nlohmann::detail::exception</text>
<polyline fill="none" stroke="#000000" points="65,-177.5 201,-177.5 "/>
<text text-anchor="middle" x="133" y="-165.5" font-family="Helvetica,sans-Serif" font-size="10.00" fill="#000000"> </text>
<polyline fill="none" stroke="#000000" points="65,-158.5 201,-158.5 "/>
<text text-anchor="start" x="73" y="-146.5" font-family="Helvetica,sans-Serif" font-size="10.00" fill="#000000">+ what()</text>
<text text-anchor="start" x="73" y="-135.5" font-family="Helvetica,sans-Serif" font-size="10.00" fill="#000000"># exception()</text>
<text text-anchor="start" x="73" y="-124.5" font-family="Helvetica,sans-Serif" font-size="10.00" fill="#000000"># name()</text>
</a>
</g>
</g>
<!-- Node4&#45;&gt;Node3 -->
<g id="edge1" class="edge">
<title>Node4&#45;&gt;Node3</title>
<path fill="none" stroke="#191970" d="M133,-107.1578C133,-97.9409 133,-88.4308 133,-79.5701"/>
<polygon fill="none" stroke="#191970" points="129.5001,-107.3891 133,-117.3891 136.5001,-107.3892 129.5001,-107.3891"/>
</g>
<!-- Node5 -->
<g id="node3" class="node">
<title>Node5</title>
<polygon fill="#ffffff" stroke="#bfbfbf" points="0,-244.5 0,-301.5 78,-301.5 78,-244.5 0,-244.5"/>
<text text-anchor="middle" x="39" y="-289.5" font-family="Helvetica,sans-Serif" font-size="10.00" fill="#000000">std::exception</text>
<polyline fill="none" stroke="#bfbfbf" points="0,-282.5 78,-282.5 "/>
<text text-anchor="middle" x="39" y="-270.5" font-family="Helvetica,sans-Serif" font-size="10.00" fill="#000000"> </text>
<polyline fill="none" stroke="#bfbfbf" points="0,-263.5 78,-263.5 "/>
<text text-anchor="middle" x="39" y="-251.5" font-family="Helvetica,sans-Serif" font-size="10.00" fill="#000000"> </text>
</g>
<!-- Node5&#45;&gt;Node4 -->
<g id="edge2" class="edge">
<title>Node5&#45;&gt;Node4</title>
<path fill="none" stroke="#191970" d="M68.7385,-236.3014C78.9476,-223.703 90.4186,-209.5473 100.8129,-196.7203"/>
<polygon fill="none" stroke="#191970" points="65.8126,-234.3529 62.236,-244.3258 71.2511,-238.76 65.8126,-234.3529"/>
</g>
<!-- Node6 -->
<g id="node4" class="node">
<title>Node6</title>
<polygon fill="#ffffff" stroke="#bfbfbf" points="96,-244.5 96,-301.5 170,-301.5 170,-244.5 96,-244.5"/>
<text text-anchor="middle" x="133" y="-289.5" font-family="Helvetica,sans-Serif" font-size="10.00" fill="#000000">runtime_error</text>
<polyline fill="none" stroke="#bfbfbf" points="96,-282.5 170,-282.5 "/>
<text text-anchor="middle" x="133" y="-270.5" font-family="Helvetica,sans-Serif" font-size="10.00" fill="#000000"> </text>
<polyline fill="none" stroke="#bfbfbf" points="96,-263.5 170,-263.5 "/>
<text text-anchor="middle" x="133" y="-251.5" font-family="Helvetica,sans-Serif" font-size="10.00" fill="#000000"> </text>
</g>
<!-- Node6&#45;&gt;Node4 -->
<g id="edge3" class="edge">
<title>Node6&#45;&gt;Node4</title>
<path fill="none" stroke="#404040" d="M133,-244.3258C133,-233.5576 133,-220.9593 133,-208.7364"/>
<polygon fill="none" stroke="#404040" points="133.0001,-208.7203 129,-202.7203 133,-196.7203 137,-202.7203 133.0001,-208.7203"/>
<text text-anchor="middle" x="140.5" y="-218" font-family="Helvetica,sans-Serif" font-size="10.00" fill="#000000"> &#45;m</text>
</g>
<!-- Node7 -->
<g id="node5" class="node">
<title>Node7</title>
<polygon fill="#ffffff" stroke="#bfbfbf" points="188.5,-244.5 188.5,-301.5 217.5,-301.5 217.5,-244.5 188.5,-244.5"/>
<text text-anchor="middle" x="203" y="-289.5" font-family="Helvetica,sans-Serif" font-size="10.00" fill="#000000">int</text>
<polyline fill="none" stroke="#bfbfbf" points="188.5,-282.5 217.5,-282.5 "/>
<text text-anchor="middle" x="203" y="-270.5" font-family="Helvetica,sans-Serif" font-size="10.00" fill="#000000"> </text>
<polyline fill="none" stroke="#bfbfbf" points="188.5,-263.5 217.5,-263.5 "/>
<text text-anchor="middle" x="203" y="-251.5" font-family="Helvetica,sans-Serif" font-size="10.00" fill="#000000"> </text>
</g>
<!-- Node7&#45;&gt;Node4 -->
<g id="edge4" class="edge">
<title>Node7&#45;&gt;Node4</title>
<path fill="none" stroke="#404040" d="M188.496,-248.9647C181.1488,-236.7895 171.9412,-221.5311 163.1498,-206.9626"/>
<polygon fill="none" stroke="#404040" points="163.0545,-206.8046 156.5298,-203.7342 156.8545,-196.5303 163.3793,-199.6008 163.0545,-206.8046"/>
<text text-anchor="middle" x="182.5" y="-218" font-family="Helvetica,sans-Serif" font-size="10.00" fill="#000000"> +id</text>
</g>
</g>
</svg>
