<?xml version="1.0" encoding="UTF-8" standalone="no"?>
<!DOCTYPE svg PUBLIC "-//W3C//DTD SVG 1.1//EN"
 "http://www.w3.org/Graphics/SVG/1.1/DTD/svg11.dtd">
<!-- Generated by graphviz version 2.40.1 (20161225.0304)
 -->
<!-- Title: River::GeomPoint::norm Pages: 1 -->
<svg width="503pt" height="142pt"
 viewBox="0.00 0.00 503.00 142.00" xmlns="http://www.w3.org/2000/svg" xmlns:xlink="http://www.w3.org/1999/xlink">
<g id="graph0" class="graph" transform="scale(1 1) rotate(0) translate(4 138)">
<title>River::GeomPoint::norm</title>
<polygon fill="#ffffff" stroke="transparent" points="-4,4 -4,-138 499,-138 499,4 -4,4"/>
<!-- Node7 -->
<g id="node1" class="node">
<title>Node7</title>
<polygon fill="#bfbfbf" stroke="#000000" points="0,-57.5 0,-76.5 122,-76.5 122,-57.5 0,-57.5"/>
<text text-anchor="middle" x="61" y="-64.5" font-family="Helvetica,sans-Serif" font-size="10.00" fill="#000000">River::GeomPoint::norm</text>
</g>
<!-- Node8 -->
<g id="node2" class="node">
<title>Node8</title>
<g id="a_node2"><a xlink:href="classRiver_1_1GeomPoint.html#a7749a4f2404dca387475ba3fd9e01bf3" target="_top" xlink:title="River::GeomPoint::getNormalized">
<polygon fill="#ffffff" stroke="#000000" points="158,-114.5 158,-133.5 322,-133.5 322,-114.5 158,-114.5"/>
<text text-anchor="middle" x="240" y="-121.5" font-family="Helvetica,sans-Serif" font-size="10.00" fill="#000000">River::GeomPoint::getNormalized</text>
</a>
</g>
</g>
<!-- Node7&#45;&gt;Node8 -->
<g id="edge1" class="edge">
<title>Node7&#45;&gt;Node8</title>
<path fill="none" stroke="#191970" d="M97.668,-79.8918C115.7677,-86.1486 137.9659,-93.6636 158,-100 173.6985,-104.9652 191.1998,-110.1367 205.9891,-114.4021"/>
<polygon fill="#191970" stroke="#191970" points="98.6689,-76.5344 88.0741,-76.5607 96.3729,-83.1471 98.6689,-76.5344"/>
</g>
<!-- Node9 -->
<g id="node3" class="node">
<title>Node9</title>
<g id="a_node3"><a xlink:href="classRiver_1_1GeomPoint.html#ad859db1c8c4a3ba2d4ad9e6b9f774e92" target="_top" xlink:title="River::GeomPoint::getPolar">
<polygon fill="#ffffff" stroke="#000000" points="358,-57.5 358,-76.5 495,-76.5 495,-57.5 358,-57.5"/>
<text text-anchor="middle" x="426.5" y="-64.5" font-family="Helvetica,sans-Serif" font-size="10.00" fill="#000000">River::GeomPoint::getPolar</text>
</a>
</g>
</g>
<!-- Node7&#45;&gt;Node9 -->
<g id="edge2" class="edge">
<title>Node7&#45;&gt;Node9</title>
<path fill="none" stroke="#191970" d="M132.3811,-67C197.6628,-67 293.5903,-67 357.9626,-67"/>
<polygon fill="#191970" stroke="#191970" points="132.1765,-63.5001 122.1765,-67 132.1764,-70.5001 132.1765,-63.5001"/>
</g>
<!-- Node10 -->
<g id="node4" class="node">
<title>Node10</title>
<g id="a_node4"><a xlink:href="classRiver_1_1GeomPoint.html#a9e12280c2ff754f15207a9a5417f21bc" target="_top" xlink:title="River::GeomPoint::normalize">
<polygon fill="#ffffff" stroke="#000000" points="168.5,-38.5 168.5,-57.5 311.5,-57.5 311.5,-38.5 168.5,-38.5"/>
<text text-anchor="middle" x="240" y="-45.5" font-family="Helvetica,sans-Serif" font-size="10.00" fill="#000000">River::GeomPoint::normalize</text>
</a>
</g>
</g>
<!-- Node7&#45;&gt;Node10 -->
<g id="edge3" class="edge">
<title>Node7&#45;&gt;Node10</title>
<path fill="none" stroke="#191970" d="M132.3782,-59.4235C144.2277,-58.1658 156.5196,-56.8611 168.3751,-55.6026"/>
<polygon fill="#191970" stroke="#191970" points="131.6757,-55.9784 122.101,-60.5144 132.4146,-62.9393 131.6757,-55.9784"/>
</g>
<!-- Node11 -->
<g id="node5" class="node">
<title>Node11</title>
<g id="a_node5"><a xlink:href="classRiver_1_1GeomPoint.html#ac7b5a6f51601c28b1c169efd99faa80e" target="_top" xlink:title="River::GeomPoint::angle">
<polygon fill="#ffffff" stroke="#000000" points="178,-.5 178,-19.5 302,-19.5 302,-.5 178,-.5"/>
<text text-anchor="middle" x="240" y="-7.5" font-family="Helvetica,sans-Serif" font-size="10.00" fill="#000000">River::GeomPoint::angle</text>
</a>
</g>
</g>
<!-- Node7&#45;&gt;Node11 -->
<g id="edge4" class="edge">
<title>Node7&#45;&gt;Node11</title>
<path fill="none" stroke="#191970" d="M91.9162,-53.556C110.769,-45.6939 135.4916,-35.9758 158,-29 169.3062,-25.496 181.667,-22.3072 193.283,-19.585"/>
<polygon fill="#191970" stroke="#191970" points="90.4868,-50.3603 82.6353,-57.4739 93.2092,-56.8092 90.4868,-50.3603"/>
</g>
<!-- Node11&#45;&gt;Node9 -->
<g id="edge5" class="edge">
<title>Node11&#45;&gt;Node9</title>
<path fill="none" stroke="#191970" d="M295.6813,-21.9423C304.5324,-24.1159 313.551,-26.495 322,-29 350.1326,-37.3409 381.6981,-49.1735 402.702,-57.4109"/>
<polygon fill="#191970" stroke="#191970" points="296.3383,-18.5008 285.7986,-19.5798 294.7108,-25.309 296.3383,-18.5008"/>
</g>
<!-- Node12 -->
<g id="node6" class="node">
<title>Node12</title>
<g id="a_node6"><a xlink:href="classRiver_1_1Branch.html#ad1c529a3eae4a3a33cdc6de391218e0a" target="_top" xlink:title="River::Branch::addDPoint">
<polygon fill="#ffffff" stroke="#000000" points="362.5,-.5 362.5,-19.5 490.5,-19.5 490.5,-.5 362.5,-.5"/>
<text text-anchor="middle" x="426.5" y="-7.5" font-family="Helvetica,sans-Serif" font-size="10.00" fill="#000000">River::Branch::addDPoint</text>
</a>
</g>
</g>
<!-- Node11&#45;&gt;Node12 -->
<g id="edge6" class="edge">
<title>Node11&#45;&gt;Node12</title>
<path fill="none" stroke="#191970" d="M312.2604,-10C328.8005,-10 346.27,-10 362.4376,-10"/>
<polygon fill="#191970" stroke="#191970" points="312.1018,-6.5001 302.1018,-10 312.1018,-13.5001 312.1018,-6.5001"/>
</g>
</g>
</svg>
