<?xml version="1.0" encoding="UTF-8" standalone="no"?>
<!DOCTYPE svg PUBLIC "-//W3C//DTD SVG 1.1//EN"
 "http://www.w3.org/Graphics/SVG/1.1/DTD/svg11.dtd">
<!-- Generated by graphviz version 2.40.1 (20161225.0304)
 -->
<!-- Title: nlohmann::basic_json::operator[] Pages: 1 -->
<svg width="598pt" height="88pt"
 viewBox="0.00 0.00 598.00 88.00" xmlns="http://www.w3.org/2000/svg" xmlns:xlink="http://www.w3.org/1999/xlink">
<g id="graph0" class="graph" transform="scale(1 1) rotate(0) translate(4 84)">
<title>nlohmann::basic_json::operator[]</title>
<polygon fill="#ffffff" stroke="transparent" points="-4,4 -4,-84 594,-84 594,4 -4,4"/>
<!-- Node537 -->
<g id="node1" class="node">
<title>Node537</title>
<polygon fill="#bfbfbf" stroke="#000000" points="0,-24.5 0,-54.5 111,-54.5 111,-24.5 0,-24.5"/>
<text text-anchor="start" x="8" y="-42.5" font-family="Helvetica,sans-Serif" font-size="10.00" fill="#000000">nlohmann::basic_json</text>
<text text-anchor="middle" x="55.5" y="-31.5" font-family="Helvetica,sans-Serif" font-size="10.00" fill="#000000">::operator[]</text>
</g>
<!-- Node538 -->
<g id="node2" class="node">
<title>Node538</title>
<g id="a_node2"><a xlink:href="classnlohmann_1_1json__pointer.html#a577512ee6b7f030e8872b4d29fa5c3e5" target="_top" xlink:title="return a reference to the pointed to value ">
<polygon fill="#ffffff" stroke="#000000" points="147,-24.5 147,-54.5 264,-54.5 264,-24.5 147,-24.5"/>
<text text-anchor="start" x="155" y="-42.5" font-family="Helvetica,sans-Serif" font-size="10.00" fill="#000000">nlohmann::json_pointer</text>
<text text-anchor="middle" x="205.5" y="-31.5" font-family="Helvetica,sans-Serif" font-size="10.00" fill="#000000">::get_unchecked</text>
</a>
</g>
</g>
<!-- Node537&#45;&gt;Node538 -->
<g id="edge1" class="edge">
<title>Node537&#45;&gt;Node538</title>
<path fill="none" stroke="#191970" d="M111.3545,-39.5C119.5857,-39.5 128.1467,-39.5 136.6035,-39.5"/>
<polygon fill="#191970" stroke="#191970" points="136.8381,-43.0001 146.8381,-39.5 136.8381,-36.0001 136.8381,-43.0001"/>
</g>
<!-- Node539 -->
<g id="node3" class="node">
<title>Node539</title>
<g id="a_node3"><a xlink:href="classnlohmann_1_1detail_1_1parse__error.html#a137ea4d27de45d8a844fd13451d40f3d" target="_top" xlink:title="create a parse error exception ">
<polygon fill="#ffffff" stroke="#000000" points="300,-49.5 300,-79.5 418,-79.5 418,-49.5 300,-49.5"/>
<text text-anchor="start" x="308" y="-67.5" font-family="Helvetica,sans-Serif" font-size="10.00" fill="#000000">nlohmann::detail::parse</text>
<text text-anchor="middle" x="359" y="-56.5" font-family="Helvetica,sans-Serif" font-size="10.00" fill="#000000">_error::create</text>
</a>
</g>
</g>
<!-- Node538&#45;&gt;Node539 -->
<g id="edge2" class="edge">
<title>Node538&#45;&gt;Node539</title>
<path fill="none" stroke="#191970" d="M264.4081,-49.0942C272.7941,-50.4599 281.4809,-51.8747 290.0372,-53.2683"/>
<polygon fill="#191970" stroke="#191970" points="289.5633,-56.7371 299.9959,-54.8902 290.6886,-49.8282 289.5633,-56.7371"/>
</g>
<!-- Node541 -->
<g id="node5" class="node">
<title>Node541</title>
<g id="a_node5"><a xlink:href="classnlohmann_1_1detail_1_1out__of__range.html#a3f6d82a6f967c4728a1ec735a7867073" target="_top" xlink:title="nlohmann::detail::out\l_of_range::create">
<polygon fill="#ffffff" stroke="#000000" points="305.5,-.5 305.5,-30.5 412.5,-30.5 412.5,-.5 305.5,-.5"/>
<text text-anchor="start" x="313.5" y="-18.5" font-family="Helvetica,sans-Serif" font-size="10.00" fill="#000000">nlohmann::detail::out</text>
<text text-anchor="middle" x="359" y="-7.5" font-family="Helvetica,sans-Serif" font-size="10.00" fill="#000000">_of_range::create</text>
</a>
</g>
</g>
<!-- Node538&#45;&gt;Node541 -->
<g id="edge4" class="edge">
<title>Node538&#45;&gt;Node541</title>
<path fill="none" stroke="#191970" d="M264.4081,-30.2896C274.4269,-28.7232 284.875,-27.0896 295.0172,-25.5038"/>
<polygon fill="#191970" stroke="#191970" points="295.6908,-28.9411 305.0301,-23.9383 294.6094,-22.0251 295.6908,-28.9411"/>
</g>
<!-- Node540 -->
<g id="node4" class="node">
<title>Node540</title>
<g id="a_node4"><a xlink:href="classnlohmann_1_1detail_1_1exception.html#abf41a7e9178356314082284e6cfea278" target="_top" xlink:title="nlohmann::detail::exception\l::name">
<polygon fill="#ffffff" stroke="#000000" points="454,-24.5 454,-54.5 590,-54.5 590,-24.5 454,-24.5"/>
<text text-anchor="start" x="462" y="-42.5" font-family="Helvetica,sans-Serif" font-size="10.00" fill="#000000">nlohmann::detail::exception</text>
<text text-anchor="middle" x="522" y="-31.5" font-family="Helvetica,sans-Serif" font-size="10.00" fill="#000000">::name</text>
</a>
</g>
</g>
<!-- Node539&#45;&gt;Node540 -->
<g id="edge3" class="edge">
<title>Node539&#45;&gt;Node540</title>
<path fill="none" stroke="#191970" d="M418.3078,-55.4037C426.6169,-54.1293 435.259,-52.8038 443.8515,-51.486"/>
<polygon fill="#191970" stroke="#191970" points="444.5386,-54.9216 453.8924,-49.9459 443.4774,-48.0025 444.5386,-54.9216"/>
</g>
<!-- Node541&#45;&gt;Node540 -->
<g id="edge5" class="edge">
<title>Node541&#45;&gt;Node540</title>
<path fill="none" stroke="#191970" d="M412.824,-23.425C422.8028,-24.8943 433.4096,-26.456 443.9398,-28.0065"/>
<polygon fill="#191970" stroke="#191970" points="443.5859,-31.492 453.9892,-29.4861 444.6057,-24.5667 443.5859,-31.492"/>
</g>
</g>
</svg>
