<?xml version="1.0" encoding="UTF-8" standalone="no"?>
<!DOCTYPE svg PUBLIC "-//W3C//DTD SVG 1.1//EN"
 "http://www.w3.org/Graphics/SVG/1.1/DTD/svg11.dtd">
<!-- Generated by graphviz version 2.43.0 (0)
 -->
<!-- Title: River::Model Pages: 1 -->
<svg width="2090pt" height="672pt"
 viewBox="0.00 0.00 2089.50 672.00" xmlns="http://www.w3.org/2000/svg" xmlns:xlink="http://www.w3.org/1999/xlink">
<g id="graph0" class="graph" transform="scale(1 1) rotate(0) translate(4 668)">
<title>River::Model</title>
<polygon fill="white" stroke="transparent" points="-4,4 -4,-668 2085.5,-668 2085.5,4 -4,4"/>
<!-- Node1 -->
<g id="node1" class="node">
<title>Node1</title>
<g id="a_node1"><a xlink:title="Physical model parameters.">
<polygon fill="#bfbfbf" stroke="black" points="1052.5,-0.5 1052.5,-211.5 1233.5,-211.5 1233.5,-0.5 1052.5,-0.5"/>
<text text-anchor="middle" x="1143" y="-199.5" font-family="Helvetica,sans-Serif" font-size="10.00">River::Model</text>
<polyline fill="none" stroke="black" points="1052.5,-192.5 1233.5,-192.5 "/>
<text text-anchor="start" x="1060.5" y="-180.5" font-family="Helvetica,sans-Serif" font-size="10.00">+ river_width</text>
<text text-anchor="start" x="1060.5" y="-169.5" font-family="Helvetica,sans-Serif" font-size="10.00">+ bifurcation_threshold</text>
<polyline fill="none" stroke="black" points="1052.5,-162.5 1233.5,-162.5 "/>
<text text-anchor="start" x="1060.5" y="-150.5" font-family="Helvetica,sans-Serif" font-size="10.00">+ InitializeLaplace()</text>
<text text-anchor="start" x="1060.5" y="-139.5" font-family="Helvetica,sans-Serif" font-size="10.00">+ InitializePoisson()</text>
<text text-anchor="start" x="1060.5" y="-128.5" font-family="Helvetica,sans-Serif" font-size="10.00">+ InitializeDirichlet()</text>
<text text-anchor="start" x="1060.5" y="-117.5" font-family="Helvetica,sans-Serif" font-size="10.00">+ InitializeDirichletWithHole()</text>
<text text-anchor="start" x="1060.5" y="-106.5" font-family="Helvetica,sans-Serif" font-size="10.00">+ clear()</text>
<text text-anchor="start" x="1060.5" y="-95.5" font-family="Helvetica,sans-Serif" font-size="10.00">+ RevertLastSimulationStep()</text>
<text text-anchor="start" x="1060.5" y="-84.5" font-family="Helvetica,sans-Serif" font-size="10.00">+ collect_backward_data()</text>
<text text-anchor="start" x="1060.5" y="-73.5" font-family="Helvetica,sans-Serif" font-size="10.00">+ q_bifurcate()</text>
<text text-anchor="start" x="1060.5" y="-62.5" font-family="Helvetica,sans-Serif" font-size="10.00">+ q_bifurcate()</text>
<text text-anchor="start" x="1060.5" y="-51.5" font-family="Helvetica,sans-Serif" font-size="10.00">+ q_growth()</text>
<text text-anchor="start" x="1060.5" y="-40.5" font-family="Helvetica,sans-Serif" font-size="10.00">+ next_point()</text>
<text text-anchor="start" x="1060.5" y="-29.5" font-family="Helvetica,sans-Serif" font-size="10.00">+ next_point()</text>
<text text-anchor="start" x="1060.5" y="-18.5" font-family="Helvetica,sans-Serif" font-size="10.00">+ CheckParametersConsistency()</text>
<text text-anchor="start" x="1060.5" y="-7.5" font-family="Helvetica,sans-Serif" font-size="10.00">+ operator==()</text>
</a>
</g>
</g>
<!-- Node2 -->
<g id="node2" class="node">
<title>Node2</title>
<g id="a_node2"><a xlink:title=" ">
<polygon fill="white" stroke="#bfbfbf" points="172,-601 172,-658 222,-658 222,-601 172,-601"/>
<text text-anchor="middle" x="197" y="-646" font-family="Helvetica,sans-Serif" font-size="10.00">double</text>
<polyline fill="none" stroke="#bfbfbf" points="172,-639 222,-639 "/>
<text text-anchor="middle" x="197" y="-627" font-family="Helvetica,sans-Serif" font-size="10.00"> </text>
<polyline fill="none" stroke="#bfbfbf" points="172,-620 222,-620 "/>
<text text-anchor="middle" x="197" y="-608" font-family="Helvetica,sans-Serif" font-size="10.00"> </text>
</a>
</g>
</g>
<!-- Node2&#45;&gt;Node1 -->
<g id="edge1" class="edge">
<title>Node2&#45;&gt;Node1</title>
<path fill="none" stroke="#404040" d="M193.87,-600.92C185.77,-523.69 167.82,-307.8 214,-259 325.49,-141.19 822.62,-114.69 1040.32,-108.73"/>
<polygon fill="none" stroke="#404040" points="1040.36,-108.73 1046.26,-104.57 1052.36,-108.41 1046.47,-112.57 1040.36,-108.73"/>
<text text-anchor="middle" x="261" y="-412" font-family="Helvetica,sans-Serif" font-size="10.00"> +eta</text>
<text text-anchor="middle" x="261" y="-401" font-family="Helvetica,sans-Serif" font-size="10.00">+height</text>
<text text-anchor="middle" x="261" y="-390" font-family="Helvetica,sans-Serif" font-size="10.00">+ds</text>
<text text-anchor="middle" x="261" y="-379" font-family="Helvetica,sans-Serif" font-size="10.00">+width</text>
<text text-anchor="middle" x="261" y="-368" font-family="Helvetica,sans-Serif" font-size="10.00">+dx</text>
<text text-anchor="start" x="214" y="-357" font-family="Helvetica,sans-Serif" font-size="10.00">+bifurcation</text>
<text text-anchor="middle" x="261" y="-346" font-family="Helvetica,sans-Serif" font-size="10.00">_min_dist</text>
<text text-anchor="start" x="214" y="-335" font-family="Helvetica,sans-Serif" font-size="10.00">+growth_min</text>
<text text-anchor="middle" x="261" y="-324" font-family="Helvetica,sans-Serif" font-size="10.00">_distance</text>
<text text-anchor="start" x="214" y="-313" font-family="Helvetica,sans-Serif" font-size="10.00">+maximal_river</text>
<text text-anchor="middle" x="261" y="-302" font-family="Helvetica,sans-Serif" font-size="10.00">_height</text>
<text text-anchor="middle" x="261" y="-291" font-family="Helvetica,sans-Serif" font-size="10.00">+growth_threshold</text>
<text text-anchor="middle" x="261" y="-280" font-family="Helvetica,sans-Serif" font-size="10.00">+bifurcation_angle</text>
<text text-anchor="middle" x="261" y="-269" font-family="Helvetica,sans-Serif" font-size="10.00">...</text>
</g>
<!-- Node3 -->
<g id="node3" class="node">
<title>Node3</title>
<g id="a_node3"><a xlink:href="classRiver_1_1SolverParams.html" target="_top" xlink:title="Holds All parameters used in Deal.II solver.">
<polygon fill="white" stroke="black" points="317,-314.5 317,-371.5 433,-371.5 433,-314.5 317,-314.5"/>
<text text-anchor="middle" x="375" y="-359.5" font-family="Helvetica,sans-Serif" font-size="10.00">River::SolverParams</text>
<polyline fill="none" stroke="black" points="317,-352.5 433,-352.5 "/>
<text text-anchor="middle" x="375" y="-340.5" font-family="Helvetica,sans-Serif" font-size="10.00"> </text>
<polyline fill="none" stroke="black" points="317,-333.5 433,-333.5 "/>
<text text-anchor="start" x="325" y="-321.5" font-family="Helvetica,sans-Serif" font-size="10.00">+ operator==()</text>
</a>
</g>
</g>
<!-- Node2&#45;&gt;Node3 -->
<g id="edge3" class="edge">
<title>Node2&#45;&gt;Node3</title>
<path fill="none" stroke="#404040" d="M195.87,-600.7C194.61,-555.3 194.85,-467.99 214,-445 232.91,-422.3 251.94,-440.93 278,-427 300.59,-414.92 322.56,-396.83 339.86,-380.61"/>
<polygon fill="none" stroke="#404040" points="340.32,-380.17 341.87,-373.13 348.97,-371.85 347.42,-378.89 340.32,-380.17"/>
<text text-anchor="middle" x="265.5" y="-525" font-family="Helvetica,sans-Serif" font-size="10.00"> +refinment_fraction</text>
<text text-anchor="middle" x="265.5" y="-514" font-family="Helvetica,sans-Serif" font-size="10.00">+max_distance</text>
<text text-anchor="middle" x="265.5" y="-503" font-family="Helvetica,sans-Serif" font-size="10.00">+field_value</text>
<text text-anchor="middle" x="265.5" y="-492" font-family="Helvetica,sans-Serif" font-size="10.00">+tollerance</text>
</g>
<!-- Node16 -->
<g id="node16" class="node">
<title>Node16</title>
<g id="a_node16"><a xlink:href="classRiver_1_1MeshParams.html" target="_top" xlink:title="Adaptive mesh area constraint function.">
<polygon fill="white" stroke="black" points="451.5,-292.5 451.5,-393.5 586.5,-393.5 586.5,-292.5 451.5,-292.5"/>
<text text-anchor="middle" x="519" y="-381.5" font-family="Helvetica,sans-Serif" font-size="10.00">River::MeshParams</text>
<polyline fill="none" stroke="black" points="451.5,-374.5 586.5,-374.5 "/>
<text text-anchor="start" x="459.5" y="-362.5" font-family="Helvetica,sans-Serif" font-size="10.00">+ min_edge</text>
<polyline fill="none" stroke="black" points="451.5,-355.5 586.5,-355.5 "/>
<text text-anchor="start" x="459.5" y="-343.5" font-family="Helvetica,sans-Serif" font-size="10.00">+ sign()</text>
<text text-anchor="start" x="459.5" y="-332.5" font-family="Helvetica,sans-Serif" font-size="10.00">+ PointInTriangle()</text>
<text text-anchor="start" x="459.5" y="-321.5" font-family="Helvetica,sans-Serif" font-size="10.00">+ refinementFunction()</text>
<text text-anchor="start" x="459.5" y="-310.5" font-family="Helvetica,sans-Serif" font-size="10.00">+ meshAreaConstraint()</text>
<text text-anchor="start" x="459.5" y="-299.5" font-family="Helvetica,sans-Serif" font-size="10.00">+ operator==()</text>
</a>
</g>
</g>
<!-- Node2&#45;&gt;Node16 -->
<g id="edge17" class="edge">
<title>Node2&#45;&gt;Node16</title>
<path fill="none" stroke="#404040" d="M222.07,-625.05C249.91,-619.81 293.96,-607.04 317,-577 353.07,-529.97 294.62,-487.44 336,-445 369.36,-410.79 399.96,-449.72 442,-427 453.65,-420.7 464.5,-411.97 474.17,-402.52"/>
<polygon fill="none" stroke="#404040" points="474.36,-402.32 475.65,-395.23 482.7,-393.69 481.41,-400.79 474.36,-402.32"/>
<text text-anchor="middle" x="391" y="-569" font-family="Helvetica,sans-Serif" font-size="10.00"> +min_area</text>
<text text-anchor="middle" x="391" y="-558" font-family="Helvetica,sans-Serif" font-size="10.00">+refinment_radius</text>
<text text-anchor="middle" x="391" y="-547" font-family="Helvetica,sans-Serif" font-size="10.00">+max_edge</text>
<text text-anchor="middle" x="391" y="-536" font-family="Helvetica,sans-Serif" font-size="10.00">+sigma</text>
<text text-anchor="middle" x="391" y="-525" font-family="Helvetica,sans-Serif" font-size="10.00">+max_area</text>
<text text-anchor="middle" x="391" y="-514" font-family="Helvetica,sans-Serif" font-size="10.00">+smoothness_degree</text>
<text text-anchor="middle" x="391" y="-503" font-family="Helvetica,sans-Serif" font-size="10.00">+exponant</text>
<text text-anchor="middle" x="391" y="-492" font-family="Helvetica,sans-Serif" font-size="10.00">+ratio</text>
<text text-anchor="middle" x="391" y="-481" font-family="Helvetica,sans-Serif" font-size="10.00">+min_angle</text>
<text text-anchor="start" x="336" y="-470" font-family="Helvetica,sans-Serif" font-size="10.00">+ignored_smoothness</text>
<text text-anchor="middle" x="391" y="-459" font-family="Helvetica,sans-Serif" font-size="10.00">_length</text>
<text text-anchor="middle" x="391" y="-448" font-family="Helvetica,sans-Serif" font-size="10.00">...</text>
</g>
<!-- Node19 -->
<g id="node19" class="node">
<title>Node19</title>
<g id="a_node19"><a xlink:href="classRiver_1_1IntegrationParams.html" target="_top" xlink:title="Holds parameters used by integration of series paramets functionality(see River::Solver::integrate())">
<polygon fill="white" stroke="black" points="0,-298 0,-388 138,-388 138,-298 0,-298"/>
<text text-anchor="middle" x="69" y="-376" font-family="Helvetica,sans-Serif" font-size="10.00">River::IntegrationParams</text>
<polyline fill="none" stroke="black" points="0,-369 138,-369 "/>
<text text-anchor="middle" x="69" y="-357" font-family="Helvetica,sans-Serif" font-size="10.00"> </text>
<polyline fill="none" stroke="black" points="0,-350 138,-350 "/>
<text text-anchor="start" x="8" y="-338" font-family="Helvetica,sans-Serif" font-size="10.00">+ WeightFunction()</text>
<text text-anchor="start" x="8" y="-327" font-family="Helvetica,sans-Serif" font-size="10.00">+ BaseVector()</text>
<text text-anchor="start" x="8" y="-316" font-family="Helvetica,sans-Serif" font-size="10.00">+ BaseVectorFinal()</text>
<text text-anchor="start" x="8" y="-305" font-family="Helvetica,sans-Serif" font-size="10.00">+ operator==()</text>
</a>
</g>
</g>
<!-- Node2&#45;&gt;Node19 -->
<g id="edge23" class="edge">
<title>Node2&#45;&gt;Node19</title>
<path fill="none" stroke="#404040" d="M171.85,-627.01C140.33,-623.63 87.48,-612.64 63,-577 27.47,-525.28 37.18,-450.73 50.37,-399.98"/>
<polygon fill="none" stroke="#404040" points="50.41,-399.83 48.14,-392.98 53.58,-388.26 55.85,-395.1 50.41,-399.83"/>
<text text-anchor="middle" x="114.5" y="-519.5" font-family="Helvetica,sans-Serif" font-size="10.00"> +integration_radius</text>
<text text-anchor="middle" x="114.5" y="-508.5" font-family="Helvetica,sans-Serif" font-size="10.00">+weigth_func_radius</text>
<text text-anchor="middle" x="114.5" y="-497.5" font-family="Helvetica,sans-Serif" font-size="10.00">+exponant</text>
</g>
<!-- Node3&#45;&gt;Node1 -->
<g id="edge2" class="edge">
<title>Node3&#45;&gt;Node1</title>
<path fill="none" stroke="#404040" d="M381.97,-314.31C390.03,-288.3 405.92,-250.43 434,-230 529.09,-160.84 867.66,-126.88 1040.24,-113.75"/>
<polygon fill="none" stroke="#404040" points="1040.41,-113.74 1046.1,-109.3 1052.38,-112.85 1046.69,-117.28 1040.41,-113.74"/>
<text text-anchor="middle" x="476" y="-233" font-family="Helvetica,sans-Serif" font-size="10.00"> +solver_params</text>
</g>
<!-- Node4 -->
<g id="node4" class="node">
<title>Node4</title>
<g id="a_node4"><a xlink:title=" ">
<polygon fill="white" stroke="#bfbfbf" points="507.5,-601 507.5,-658 568.5,-658 568.5,-601 507.5,-601"/>
<text text-anchor="middle" x="538" y="-646" font-family="Helvetica,sans-Serif" font-size="10.00">unsigned</text>
<polyline fill="none" stroke="#bfbfbf" points="507.5,-639 568.5,-639 "/>
<text text-anchor="middle" x="538" y="-627" font-family="Helvetica,sans-Serif" font-size="10.00"> </text>
<polyline fill="none" stroke="#bfbfbf" points="507.5,-620 568.5,-620 "/>
<text text-anchor="middle" x="538" y="-608" font-family="Helvetica,sans-Serif" font-size="10.00"> </text>
</a>
</g>
</g>
<!-- Node4&#45;&gt;Node1 -->
<g id="edge21" class="edge">
<title>Node4&#45;&gt;Node1</title>
<path fill="none" stroke="#404040" d="M568.57,-614.28C583.42,-605.69 599.97,-593.23 609,-577 677.89,-453.17 543.24,-369.46 632,-259 683.14,-195.36 906.49,-147.24 1040.4,-123.48"/>
<polygon fill="none" stroke="#404040" points="1040.45,-123.47 1045.67,-118.49 1052.27,-121.4 1047.05,-126.37 1040.45,-123.47"/>
<text text-anchor="start" x="632" y="-373.5" font-family="Helvetica,sans-Serif" font-size="10.00"> +number_of_backward</text>
<text text-anchor="middle" x="690.5" y="-362.5" font-family="Helvetica,sans-Serif" font-size="10.00">_steps</text>
<text text-anchor="middle" x="690.5" y="-351.5" font-family="Helvetica,sans-Serif" font-size="10.00">+growth_type</text>
<text text-anchor="middle" x="690.5" y="-340.5" font-family="Helvetica,sans-Serif" font-size="10.00">+number_of_steps</text>
<text text-anchor="middle" x="690.5" y="-329.5" font-family="Helvetica,sans-Serif" font-size="10.00">+bifurcation_type</text>
<text text-anchor="middle" x="690.5" y="-318.5" font-family="Helvetica,sans-Serif" font-size="10.00">+simulation_type</text>
<text text-anchor="middle" x="690.5" y="-307.5" font-family="Helvetica,sans-Serif" font-size="10.00">+river_boundary_id</text>
</g>
<!-- Node4&#45;&gt;Node3 -->
<g id="edge4" class="edge">
<title>Node4&#45;&gt;Node3</title>
<path fill="none" stroke="#404040" d="M507.26,-611.1C494.72,-602.45 481.24,-590.86 473,-577 442.55,-525.82 473.5,-499.72 450,-445 440.11,-421.97 424.02,-399.29 409.27,-381.28"/>
<polygon fill="none" stroke="#404040" points="409,-380.96 402.07,-378.95 401.26,-371.78 408.19,-373.79 409,-380.96"/>
<text text-anchor="middle" x="541" y="-530.5" font-family="Helvetica,sans-Serif" font-size="10.00"> +num_of_iterrations</text>
<text text-anchor="middle" x="541" y="-519.5" font-family="Helvetica,sans-Serif" font-size="10.00">+renumbering_type</text>
<text text-anchor="middle" x="541" y="-508.5" font-family="Helvetica,sans-Serif" font-size="10.00">+static_refinment_steps</text>
<text text-anchor="middle" x="541" y="-497.5" font-family="Helvetica,sans-Serif" font-size="10.00">+quadrature_degree</text>
<text text-anchor="middle" x="541" y="-486.5" font-family="Helvetica,sans-Serif" font-size="10.00">+adaptive_refinment_steps</text>
</g>
<!-- Node5 -->
<g id="node5" class="node">
<title>Node5</title>
<g id="a_node5"><a xlink:href="classRiver_1_1Rivers.html" target="_top" xlink:title="Combines BranchNew into river like structure.">
<polygon fill="white" stroke="black" points="1144.5,-259.5 1144.5,-426.5 1275.5,-426.5 1275.5,-259.5 1144.5,-259.5"/>
<text text-anchor="middle" x="1210" y="-414.5" font-family="Helvetica,sans-Serif" font-size="10.00">River::Rivers</text>
<polyline fill="none" stroke="black" points="1144.5,-407.5 1275.5,-407.5 "/>
<text text-anchor="middle" x="1210" y="-395.5" font-family="Helvetica,sans-Serif" font-size="10.00"> </text>
<polyline fill="none" stroke="black" points="1144.5,-388.5 1275.5,-388.5 "/>
<text text-anchor="start" x="1152.5" y="-376.5" font-family="Helvetica,sans-Serif" font-size="10.00">+ Rivers()</text>
<text text-anchor="start" x="1152.5" y="-365.5" font-family="Helvetica,sans-Serif" font-size="10.00">+ Rivers()</text>
<text text-anchor="start" x="1152.5" y="-354.5" font-family="Helvetica,sans-Serif" font-size="10.00">+ operator=()</text>
<text text-anchor="start" x="1152.5" y="-343.5" font-family="Helvetica,sans-Serif" font-size="10.00">+ operator==()</text>
<text text-anchor="start" x="1152.5" y="-332.5" font-family="Helvetica,sans-Serif" font-size="10.00">+ Initialize()</text>
<text text-anchor="start" x="1152.5" y="-321.5" font-family="Helvetica,sans-Serif" font-size="10.00">+ AddBranch()</text>
<text text-anchor="start" x="1152.5" y="-310.5" font-family="Helvetica,sans-Serif" font-size="10.00">+ AddSubBranches()</text>
<text text-anchor="start" x="1152.5" y="-299.5" font-family="Helvetica,sans-Serif" font-size="10.00">+ DeleteBranch()</text>
<text text-anchor="start" x="1152.5" y="-288.5" font-family="Helvetica,sans-Serif" font-size="10.00">+ DeleteSubBranches()</text>
<text text-anchor="start" x="1152.5" y="-277.5" font-family="Helvetica,sans-Serif" font-size="10.00">+ Clear()</text>
<text text-anchor="start" x="1152.5" y="-266.5" font-family="Helvetica,sans-Serif" font-size="10.00">and 23 more...</text>
</a>
</g>
</g>
<!-- Node5&#45;&gt;Node1 -->
<g id="edge5" class="edge">
<title>Node5&#45;&gt;Node1</title>
<path fill="none" stroke="#404040" d="M1186.47,-259.48C1183.13,-247.75 1179.64,-235.51 1176.16,-223.29"/>
<polygon fill="none" stroke="#404040" points="1176.11,-223.14 1170.62,-218.47 1172.82,-211.6 1178.31,-216.27 1176.11,-223.14"/>
<text text-anchor="middle" x="1201" y="-233" font-family="Helvetica,sans-Serif" font-size="10.00"> +rivers</text>
</g>
<!-- Node6 -->
<g id="node6" class="node">
<title>Node6</title>
<g id="a_node6"><a xlink:href="classt__Rivers.html" target="_top" xlink:title=" ">
<polygon fill="white" stroke="black" points="1137,-601 1137,-658 1193,-658 1193,-601 1137,-601"/>
<text text-anchor="middle" x="1165" y="-646" font-family="Helvetica,sans-Serif" font-size="10.00">t_Rivers</text>
<polyline fill="none" stroke="black" points="1137,-639 1193,-639 "/>
<text text-anchor="middle" x="1165" y="-627" font-family="Helvetica,sans-Serif" font-size="10.00"> </text>
<polyline fill="none" stroke="black" points="1137,-620 1193,-620 "/>
<text text-anchor="middle" x="1165" y="-608" font-family="Helvetica,sans-Serif" font-size="10.00"> </text>
</a>
</g>
</g>
<!-- Node6&#45;&gt;Node5 -->
<g id="edge6" class="edge">
<title>Node6&#45;&gt;Node5</title>
<path fill="none" stroke="midnightblue" d="M1170.93,-590.99C1177.51,-549.38 1188.33,-480.97 1196.92,-426.69"/>
<polygon fill="none" stroke="midnightblue" points="1167.46,-590.54 1169.36,-600.96 1174.38,-591.63 1167.46,-590.54"/>
</g>
<!-- Node7 -->
<g id="node7" class="node">
<title>Node7</title>
<g id="a_node7"><a xlink:title=" ">
<polygon fill="white" stroke="#bfbfbf" points="1211,-595.5 1211,-663.5 1327,-663.5 1327,-595.5 1211,-595.5"/>
<text text-anchor="start" x="1219" y="-651.5" font-family="Helvetica,sans-Serif" font-size="10.00">map&lt; t_branch_id, t</text>
<text text-anchor="middle" x="1269" y="-640.5" font-family="Helvetica,sans-Serif" font-size="10.00">_branch_id_pair &gt;</text>
<polyline fill="none" stroke="#bfbfbf" points="1211,-633.5 1327,-633.5 "/>
<text text-anchor="middle" x="1269" y="-621.5" font-family="Helvetica,sans-Serif" font-size="10.00"> </text>
<polyline fill="none" stroke="#bfbfbf" points="1211,-614.5 1327,-614.5 "/>
<text text-anchor="middle" x="1269" y="-602.5" font-family="Helvetica,sans-Serif" font-size="10.00"> </text>
</a>
</g>
</g>
<!-- Node7&#45;&gt;Node5 -->
<g id="edge7" class="edge">
<title>Node7&#45;&gt;Node5</title>
<path fill="none" stroke="#404040" d="M1262.12,-595.31C1254.2,-557.15 1240.87,-492.83 1229.66,-438.82"/>
<polygon fill="none" stroke="#404040" points="1229.6,-438.51 1224.46,-433.44 1227.16,-426.76 1232.3,-431.82 1229.6,-438.51"/>
<text text-anchor="middle" x="1307.5" y="-508.5" font-family="Helvetica,sans-Serif" font-size="10.00"> +branches_relation</text>
</g>
<!-- Node8 -->
<g id="node8" class="node">
<title>Node8</title>
<g id="a_node8"><a xlink:title=" ">
<polygon fill="white" stroke="#bfbfbf" points="1294,-309 1294,-377 1408,-377 1408,-309 1294,-309"/>
<text text-anchor="start" x="1302" y="-365" font-family="Helvetica,sans-Serif" font-size="10.00">map&lt; string, vector</text>
<text text-anchor="middle" x="1351" y="-354" font-family="Helvetica,sans-Serif" font-size="10.00">&lt; double &gt; &gt;</text>
<polyline fill="none" stroke="#bfbfbf" points="1294,-347 1408,-347 "/>
<text text-anchor="middle" x="1351" y="-335" font-family="Helvetica,sans-Serif" font-size="10.00"> </text>
<polyline fill="none" stroke="#bfbfbf" points="1294,-328 1408,-328 "/>
<text text-anchor="middle" x="1351" y="-316" font-family="Helvetica,sans-Serif" font-size="10.00"> </text>
</a>
</g>
</g>
<!-- Node8&#45;&gt;Node1 -->
<g id="edge8" class="edge">
<title>Node8&#45;&gt;Node1</title>
<path fill="none" stroke="#404040" d="M1325.1,-308.85C1312.87,-293.49 1297.94,-275.1 1284,-259 1270.61,-243.53 1256.21,-227.44 1241.92,-211.76"/>
<polygon fill="none" stroke="#404040" points="1241.62,-211.44 1234.62,-209.71 1233.52,-202.58 1240.52,-204.31 1241.62,-211.44"/>
<text text-anchor="middle" x="1294.5" y="-233" font-family="Helvetica,sans-Serif" font-size="10.00"> +sim_data</text>
</g>
<!-- Node9 -->
<g id="node9" class="node">
<title>Node9</title>
<g id="a_node9"><a xlink:href="classRiver_1_1SeriesParameters.html" target="_top" xlink:title="Used for collection of tip points series parameters.">
<polygon fill="white" stroke="black" points="1426,-314.5 1426,-371.5 1560,-371.5 1560,-314.5 1426,-314.5"/>
<text text-anchor="middle" x="1493" y="-359.5" font-family="Helvetica,sans-Serif" font-size="10.00">River::SeriesParameters</text>
<polyline fill="none" stroke="black" points="1426,-352.5 1560,-352.5 "/>
<text text-anchor="middle" x="1493" y="-340.5" font-family="Helvetica,sans-Serif" font-size="10.00"> </text>
<polyline fill="none" stroke="black" points="1426,-333.5 1560,-333.5 "/>
<text text-anchor="start" x="1434" y="-321.5" font-family="Helvetica,sans-Serif" font-size="10.00">+ record()</text>
</a>
</g>
</g>
<!-- Node9&#45;&gt;Node1 -->
<g id="edge9" class="edge">
<title>Node9&#45;&gt;Node1</title>
<path fill="none" stroke="#404040" d="M1471.67,-314.46C1457.41,-297.2 1437.55,-275.22 1417,-259 1364.16,-217.31 1298.39,-180.42 1244.54,-153.42"/>
<polygon fill="none" stroke="#404040" points="1244.33,-153.32 1237.18,-154.23 1233.58,-147.98 1240.74,-147.06 1244.33,-153.32"/>
<text text-anchor="middle" x="1441.5" y="-233" font-family="Helvetica,sans-Serif" font-size="10.00"> +series_parameters</text>
</g>
<!-- Node10 -->
<g id="node10" class="node">
<title>Node10</title>
<g id="a_node10"><a xlink:href="classt__SeriesParameters.html" target="_top" xlink:title=" ">
<polygon fill="white" stroke="black" points="1437,-601 1437,-658 1549,-658 1549,-601 1437,-601"/>
<text text-anchor="middle" x="1493" y="-646" font-family="Helvetica,sans-Serif" font-size="10.00">t_SeriesParameters</text>
<polyline fill="none" stroke="black" points="1437,-639 1549,-639 "/>
<text text-anchor="middle" x="1493" y="-627" font-family="Helvetica,sans-Serif" font-size="10.00"> </text>
<polyline fill="none" stroke="black" points="1437,-620 1549,-620 "/>
<text text-anchor="middle" x="1493" y="-608" font-family="Helvetica,sans-Serif" font-size="10.00"> </text>
</a>
</g>
</g>
<!-- Node10&#45;&gt;Node9 -->
<g id="edge10" class="edge">
<title>Node10&#45;&gt;Node9</title>
<path fill="none" stroke="midnightblue" d="M1493,-590.75C1493,-532.67 1493,-422.76 1493,-371.55"/>
<polygon fill="none" stroke="midnightblue" points="1489.5,-590.96 1493,-600.96 1496.5,-590.96 1489.5,-590.96"/>
</g>
<!-- Node11 -->
<g id="node11" class="node">
<title>Node11</title>
<g id="a_node11"><a xlink:href="classRiver_1_1BoundaryConditions.html" target="_top" xlink:title="Map structure of boundary condition types.">
<polygon fill="white" stroke="black" points="1578,-314.5 1578,-371.5 1724,-371.5 1724,-314.5 1578,-314.5"/>
<text text-anchor="middle" x="1651" y="-359.5" font-family="Helvetica,sans-Serif" font-size="10.00">River::BoundaryConditions</text>
<polyline fill="none" stroke="black" points="1578,-352.5 1724,-352.5 "/>
<text text-anchor="middle" x="1651" y="-340.5" font-family="Helvetica,sans-Serif" font-size="10.00"> </text>
<polyline fill="none" stroke="black" points="1578,-333.5 1724,-333.5 "/>
<text text-anchor="start" x="1586" y="-321.5" font-family="Helvetica,sans-Serif" font-size="10.00">+ Get()</text>
</a>
</g>
</g>
<!-- Node11&#45;&gt;Node1 -->
<g id="edge11" class="edge">
<title>Node11&#45;&gt;Node1</title>
<path fill="none" stroke="#404040" d="M1628.96,-314.45C1613.64,-296.73 1591.93,-274.26 1569,-259 1468.9,-192.38 1336.13,-151.08 1245.6,-128.64"/>
<polygon fill="none" stroke="#404040" points="1245.32,-128.57 1238.54,-131.04 1233.66,-125.73 1240.44,-123.26 1245.32,-128.57"/>
<text text-anchor="middle" x="1594.5" y="-233" font-family="Helvetica,sans-Serif" font-size="10.00"> +boundary_conditions</text>
</g>
<!-- Node12 -->
<g id="node12" class="node">
<title>Node12</title>
<g id="a_node12"><a xlink:href="classt__BoundaryConditions.html" target="_top" xlink:title=" ">
<polygon fill="white" stroke="black" points="1589,-601 1589,-658 1713,-658 1713,-601 1589,-601"/>
<text text-anchor="middle" x="1651" y="-646" font-family="Helvetica,sans-Serif" font-size="10.00">t_BoundaryConditions</text>
<polyline fill="none" stroke="black" points="1589,-639 1713,-639 "/>
<text text-anchor="middle" x="1651" y="-627" font-family="Helvetica,sans-Serif" font-size="10.00"> </text>
<polyline fill="none" stroke="black" points="1589,-620 1713,-620 "/>
<text text-anchor="middle" x="1651" y="-608" font-family="Helvetica,sans-Serif" font-size="10.00"> </text>
</a>
</g>
</g>
<!-- Node12&#45;&gt;Node11 -->
<g id="edge12" class="edge">
<title>Node12&#45;&gt;Node11</title>
<path fill="none" stroke="midnightblue" d="M1651,-590.75C1651,-532.67 1651,-422.76 1651,-371.55"/>
<polygon fill="none" stroke="midnightblue" points="1647.5,-590.96 1651,-600.96 1654.5,-590.96 1647.5,-590.96"/>
</g>
<!-- Node13 -->
<g id="node13" class="node">
<title>Node13</title>
<g id="a_node13"><a xlink:href="classRiver_1_1Boundary.html" target="_top" xlink:title="Structure which defines simple boundary data structure.">
<polygon fill="white" stroke="black" points="758.5,-292.5 758.5,-393.5 921.5,-393.5 921.5,-292.5 758.5,-292.5"/>
<text text-anchor="middle" x="840" y="-381.5" font-family="Helvetica,sans-Serif" font-size="10.00">River::Boundary</text>
<polyline fill="none" stroke="black" points="758.5,-374.5 921.5,-374.5 "/>
<text text-anchor="middle" x="840" y="-362.5" font-family="Helvetica,sans-Serif" font-size="10.00"> </text>
<polyline fill="none" stroke="black" points="758.5,-355.5 921.5,-355.5 "/>
<text text-anchor="start" x="766.5" y="-343.5" font-family="Helvetica,sans-Serif" font-size="10.00">+ Append()</text>
<text text-anchor="start" x="766.5" y="-332.5" font-family="Helvetica,sans-Serif" font-size="10.00">+ ReplaceElement()</text>
<text text-anchor="start" x="766.5" y="-321.5" font-family="Helvetica,sans-Serif" font-size="10.00">+ FixLinesIndices()</text>
<text text-anchor="start" x="766.5" y="-310.5" font-family="Helvetica,sans-Serif" font-size="10.00">+ generateSmoothBoundary()</text>
<text text-anchor="start" x="766.5" y="-299.5" font-family="Helvetica,sans-Serif" font-size="10.00">+ operator==()</text>
</a>
</g>
</g>
<!-- Node13&#45;&gt;Node1 -->
<g id="edge13" class="edge">
<title>Node13&#45;&gt;Node1</title>
<path fill="none" stroke="#404040" d="M891.84,-292.15C904.1,-280.94 917.3,-269.32 930,-259 965.53,-230.13 1006.09,-200.43 1042.22,-175.04"/>
<polygon fill="none" stroke="#404040" points="1042.46,-174.87 1045.08,-168.16 1052.29,-167.99 1049.67,-174.71 1042.46,-174.87"/>
<text text-anchor="middle" x="993" y="-233" font-family="Helvetica,sans-Serif" font-size="10.00"> +boundary</text>
</g>
<!-- Node14 -->
<g id="node14" class="node">
<title>Node14</title>
<g id="a_node14"><a xlink:title=" ">
<polygon fill="white" stroke="#bfbfbf" points="808.5,-601 808.5,-658 903.5,-658 903.5,-601 808.5,-601"/>
<text text-anchor="middle" x="856" y="-646" font-family="Helvetica,sans-Serif" font-size="10.00">vector&lt; Point &gt;</text>
<polyline fill="none" stroke="#bfbfbf" points="808.5,-639 903.5,-639 "/>
<text text-anchor="middle" x="856" y="-627" font-family="Helvetica,sans-Serif" font-size="10.00"> </text>
<polyline fill="none" stroke="#bfbfbf" points="808.5,-620 903.5,-620 "/>
<text text-anchor="middle" x="856" y="-608" font-family="Helvetica,sans-Serif" font-size="10.00"> </text>
</a>
</g>
</g>
<!-- Node14&#45;&gt;Node13 -->
<g id="edge14" class="edge">
<title>Node14&#45;&gt;Node13</title>
<path fill="none" stroke="#404040" d="M854.45,-600.96C851.93,-556.15 846.88,-466.36 843.47,-405.71"/>
<polygon fill="none" stroke="#404040" points="843.46,-405.59 839.13,-399.83 842.79,-393.61 847.12,-399.38 843.46,-405.59"/>
<text text-anchor="middle" x="878.5" y="-508.5" font-family="Helvetica,sans-Serif" font-size="10.00"> +vertices</text>
</g>
<!-- Node14&#45;&gt;Node16 -->
<g id="edge18" class="edge">
<title>Node14&#45;&gt;Node16</title>
<path fill="none" stroke="#404040" d="M808.31,-602.38C798.75,-595.25 789.63,-586.75 783,-577 749.06,-527.08 796.14,-485.08 751,-445 700.8,-400.41 661.3,-456.53 601,-427 588.48,-420.87 576.76,-412.03 566.32,-402.39"/>
<polygon fill="none" stroke="#404040" points="566.07,-402.14 558.98,-400.81 557.49,-393.76 564.58,-395.09 566.07,-402.14"/>
<text text-anchor="middle" x="813" y="-508.5" font-family="Helvetica,sans-Serif" font-size="10.00"> +tip_points</text>
</g>
<!-- Node22 -->
<g id="node22" class="node">
<title>Node22</title>
<g id="a_node22"><a xlink:href="classRiver_1_1Region.html" target="_top" xlink:title="Structure which defines Region of region.">
<polygon fill="white" stroke="black" points="939.5,-270.5 939.5,-415.5 1126.5,-415.5 1126.5,-270.5 939.5,-270.5"/>
<text text-anchor="middle" x="1033" y="-403.5" font-family="Helvetica,sans-Serif" font-size="10.00">River::Region</text>
<polyline fill="none" stroke="black" points="939.5,-396.5 1126.5,-396.5 "/>
<text text-anchor="middle" x="1033" y="-384.5" font-family="Helvetica,sans-Serif" font-size="10.00"> </text>
<polyline fill="none" stroke="black" points="939.5,-377.5 1126.5,-377.5 "/>
<text text-anchor="start" x="947.5" y="-365.5" font-family="Helvetica,sans-Serif" font-size="10.00">+ Region()</text>
<text text-anchor="start" x="947.5" y="-354.5" font-family="Helvetica,sans-Serif" font-size="10.00">+ MakeRectangular()</text>
<text text-anchor="start" x="947.5" y="-343.5" font-family="Helvetica,sans-Serif" font-size="10.00">+ MakeRectangularWithHole()</text>
<text text-anchor="start" x="947.5" y="-332.5" font-family="Helvetica,sans-Serif" font-size="10.00">+ Check()</text>
<text text-anchor="start" x="947.5" y="-321.5" font-family="Helvetica,sans-Serif" font-size="10.00">+ GetHolesList()</text>
<text text-anchor="start" x="947.5" y="-310.5" font-family="Helvetica,sans-Serif" font-size="10.00">+ GetSourcesIdsPointsAndAngles()</text>
<text text-anchor="start" x="947.5" y="-299.5" font-family="Helvetica,sans-Serif" font-size="10.00">+ NormalAngle()</text>
<text text-anchor="start" x="947.5" y="-288.5" font-family="Helvetica,sans-Serif" font-size="10.00">+ GetAdjacentVerticesPositions()</text>
<text text-anchor="start" x="947.5" y="-277.5" font-family="Helvetica,sans-Serif" font-size="10.00">+ GetVerticeNormalAngle()</text>
</a>
</g>
</g>
<!-- Node14&#45;&gt;Node22 -->
<g id="edge28" class="edge">
<title>Node14&#45;&gt;Node22</title>
<path fill="none" stroke="#404040" d="M887.05,-600.77C894.38,-593.43 901.84,-585.25 908,-577 942.83,-530.35 973.83,-472.73 996.25,-426.46"/>
<polygon fill="none" stroke="#404040" points="996.28,-426.39 995.27,-419.25 1001.47,-415.57 1002.48,-422.71 996.28,-426.39"/>
<text text-anchor="middle" x="1005" y="-508.5" font-family="Helvetica,sans-Serif" font-size="10.00"> +holes</text>
</g>
<!-- Node15 -->
<g id="node15" class="node">
<title>Node15</title>
<g id="a_node15"><a xlink:title=" ">
<polygon fill="white" stroke="#bfbfbf" points="670,-601 670,-658 760,-658 760,-601 670,-601"/>
<text text-anchor="middle" x="715" y="-646" font-family="Helvetica,sans-Serif" font-size="10.00">vector&lt; Line &gt;</text>
<polyline fill="none" stroke="#bfbfbf" points="670,-639 760,-639 "/>
<text text-anchor="middle" x="715" y="-627" font-family="Helvetica,sans-Serif" font-size="10.00"> </text>
<polyline fill="none" stroke="#bfbfbf" points="670,-620 760,-620 "/>
<text text-anchor="middle" x="715" y="-608" font-family="Helvetica,sans-Serif" font-size="10.00"> </text>
</a>
</g>
</g>
<!-- Node15&#45;&gt;Node13 -->
<g id="edge15" class="edge">
<title>Node15&#45;&gt;Node13</title>
<path fill="none" stroke="#404040" d="M707.47,-600.98C698.76,-563.22 688.84,-494.42 716,-445 723.12,-432.03 732.15,-435.86 744,-427 754.54,-419.12 765.38,-410.4 775.82,-401.66"/>
<polygon fill="none" stroke="#404040" points="776.11,-401.41 778.1,-394.48 785.27,-393.65 783.28,-400.58 776.11,-401.41"/>
<text text-anchor="middle" x="733.5" y="-508.5" font-family="Helvetica,sans-Serif" font-size="10.00"> +lines</text>
</g>
<!-- Node16&#45;&gt;Node1 -->
<g id="edge16" class="edge">
<title>Node16&#45;&gt;Node1</title>
<path fill="none" stroke="#404040" d="M510.61,-292.47C509.79,-270.86 513.16,-246.69 528,-230 594.59,-155.11 883.4,-124.32 1040.42,-112.94"/>
<polygon fill="none" stroke="#404040" points="1040.45,-112.93 1046.15,-108.52 1052.42,-112.09 1046.72,-116.5 1040.45,-112.93"/>
<text text-anchor="middle" x="568.5" y="-233" font-family="Helvetica,sans-Serif" font-size="10.00"> +mesh_params</text>
</g>
<!-- Node17 -->
<g id="node17" class="node">
<title>Node17</title>
<g id="a_node17"><a xlink:title=" ">
<polygon fill="white" stroke="#bfbfbf" points="1742,-314.5 1742,-371.5 1780,-371.5 1780,-314.5 1742,-314.5"/>
<text text-anchor="middle" x="1761" y="-359.5" font-family="Helvetica,sans-Serif" font-size="10.00">bool</text>
<polyline fill="none" stroke="#bfbfbf" points="1742,-352.5 1780,-352.5 "/>
<text text-anchor="middle" x="1761" y="-340.5" font-family="Helvetica,sans-Serif" font-size="10.00"> </text>
<polyline fill="none" stroke="#bfbfbf" points="1742,-333.5 1780,-333.5 "/>
<text text-anchor="middle" x="1761" y="-321.5" font-family="Helvetica,sans-Serif" font-size="10.00"> </text>
</a>
</g>
</g>
<!-- Node17&#45;&gt;Node1 -->
<g id="edge19" class="edge">
<title>Node17&#45;&gt;Node1</title>
<path fill="none" stroke="#404040" d="M1757.8,-314.17C1754.4,-296.34 1747.4,-273.85 1733,-259 1707.25,-232.45 1690.38,-240.78 1655,-230 1514.81,-187.27 1349.4,-149.82 1245.35,-127.79"/>
<polygon fill="none" stroke="#404040" points="1245.34,-127.79 1238.64,-130.47 1233.6,-125.32 1240.29,-122.64 1245.34,-127.79"/>
<text text-anchor="middle" x="1731.5" y="-233" font-family="Helvetica,sans-Serif" font-size="10.00"> +verbose</text>
</g>
<!-- Node18 -->
<g id="node18" class="node">
<title>Node18</title>
<g id="a_node18"><a xlink:title=" ">
<polygon fill="white" stroke="#bfbfbf" points="1798,-309 1798,-377 1958,-377 1958,-309 1798,-309"/>
<text text-anchor="start" x="1806" y="-365" font-family="Helvetica,sans-Serif" font-size="10.00">map&lt; t_branch_id, Backward</text>
<text text-anchor="middle" x="1878" y="-354" font-family="Helvetica,sans-Serif" font-size="10.00">Data &gt;</text>
<polyline fill="none" stroke="#bfbfbf" points="1798,-347 1958,-347 "/>
<text text-anchor="middle" x="1878" y="-335" font-family="Helvetica,sans-Serif" font-size="10.00"> </text>
<polyline fill="none" stroke="#bfbfbf" points="1798,-328 1958,-328 "/>
<text text-anchor="middle" x="1878" y="-316" font-family="Helvetica,sans-Serif" font-size="10.00"> </text>
</a>
</g>
</g>
<!-- Node18&#45;&gt;Node1 -->
<g id="edge20" class="edge">
<title>Node18&#45;&gt;Node1</title>
<path fill="none" stroke="#404040" d="M1852.37,-308.76C1830.8,-283.18 1797.66,-249.09 1761,-230 1594.38,-143.25 1373.24,-117.54 1245.68,-110.01"/>
<polygon fill="none" stroke="#404040" points="1245.62,-110.01 1239.4,-113.67 1233.64,-109.34 1239.85,-105.68 1245.62,-110.01"/>
<text text-anchor="middle" x="1820" y="-233" font-family="Helvetica,sans-Serif" font-size="10.00"> +backward_data</text>
</g>
<!-- Node19&#45;&gt;Node1 -->
<g id="edge22" class="edge">
<title>Node19&#45;&gt;Node1</title>
<path fill="none" stroke="#404040" d="M80.43,-297.72C88.97,-273.78 103.2,-245.94 126,-230 271.89,-127.99 811.53,-110.31 1039.88,-107.44"/>
<polygon fill="none" stroke="#404040" points="1040.16,-107.44 1046.11,-103.37 1052.16,-107.3 1046.21,-111.37 1040.16,-107.44"/>
<text text-anchor="middle" x="146" y="-233" font-family="Helvetica,sans-Serif" font-size="10.00"> +integr</text>
</g>
<!-- Node20 -->
<g id="node20" class="node">
<title>Node20</title>
<g id="a_node20"><a xlink:href="classRiver_1_1Sources.html" target="_top" xlink:title="Map structure which holds source id and its source point coordinates.">
<polygon fill="white" stroke="black" points="1976.5,-314.5 1976.5,-371.5 2081.5,-371.5 2081.5,-314.5 1976.5,-314.5"/>
<text text-anchor="middle" x="2029" y="-359.5" font-family="Helvetica,sans-Serif" font-size="10.00">River::Sources</text>
<polyline fill="none" stroke="black" points="1976.5,-352.5 2081.5,-352.5 "/>
<text text-anchor="middle" x="2029" y="-340.5" font-family="Helvetica,sans-Serif" font-size="10.00"> </text>
<polyline fill="none" stroke="black" points="1976.5,-333.5 2081.5,-333.5 "/>
<text text-anchor="start" x="1984.5" y="-321.5" font-family="Helvetica,sans-Serif" font-size="10.00">+ GetSourcesIds()</text>
</a>
</g>
</g>
<!-- Node20&#45;&gt;Node1 -->
<g id="edge24" class="edge">
<title>Node20&#45;&gt;Node1</title>
<path fill="none" stroke="#404040" d="M2014.63,-314.36C2003.83,-296.15 1987.4,-273.13 1967,-259 1928.96,-232.65 1912.11,-240.34 1867,-230 1647.68,-179.74 1386.67,-140.32 1245.68,-120.68"/>
<polygon fill="none" stroke="#404040" points="1245.55,-120.66 1239.06,-123.8 1233.67,-119.02 1240.16,-115.88 1245.55,-120.66"/>
<text text-anchor="middle" x="1955.5" y="-233" font-family="Helvetica,sans-Serif" font-size="10.00"> +sources</text>
</g>
<!-- Node21 -->
<g id="node21" class="node">
<title>Node21</title>
<g id="a_node21"><a xlink:href="classt__Sources.html" target="_top" xlink:title=" ">
<polygon fill="white" stroke="black" points="1997,-601 1997,-658 2061,-658 2061,-601 1997,-601"/>
<text text-anchor="middle" x="2029" y="-646" font-family="Helvetica,sans-Serif" font-size="10.00">t_Sources</text>
<polyline fill="none" stroke="black" points="1997,-639 2061,-639 "/>
<text text-anchor="middle" x="2029" y="-627" font-family="Helvetica,sans-Serif" font-size="10.00"> </text>
<polyline fill="none" stroke="black" points="1997,-620 2061,-620 "/>
<text text-anchor="middle" x="2029" y="-608" font-family="Helvetica,sans-Serif" font-size="10.00"> </text>
</a>
</g>
</g>
<!-- Node21&#45;&gt;Node20 -->
<g id="edge25" class="edge">
<title>Node21&#45;&gt;Node20</title>
<path fill="none" stroke="midnightblue" d="M2029,-590.75C2029,-532.67 2029,-422.76 2029,-371.55"/>
<polygon fill="none" stroke="midnightblue" points="2025.5,-590.96 2029,-600.96 2032.5,-590.96 2025.5,-590.96"/>
</g>
<!-- Node22&#45;&gt;Node1 -->
<g id="edge26" class="edge">
<title>Node22&#45;&gt;Node1</title>
<path fill="none" stroke="#404040" d="M1066.6,-270.22C1073.63,-255.19 1081.22,-238.98 1088.79,-222.82"/>
<polygon fill="none" stroke="#404040" points="1088.93,-222.52 1087.85,-215.39 1094.01,-211.65 1095.09,-218.78 1088.93,-222.52"/>
<text text-anchor="middle" x="1106.5" y="-233" font-family="Helvetica,sans-Serif" font-size="10.00"> +region</text>
</g>
<!-- Node23 -->
<g id="node23" class="node">
<title>Node23</title>
<g id="a_node23"><a xlink:href="classt__Boundaries.html" target="_top" xlink:title=" ">
<polygon fill="white" stroke="black" points="993,-601 993,-658 1073,-658 1073,-601 993,-601"/>
<text text-anchor="middle" x="1033" y="-646" font-family="Helvetica,sans-Serif" font-size="10.00">t_Boundaries</text>
<polyline fill="none" stroke="black" points="993,-639 1073,-639 "/>
<text text-anchor="middle" x="1033" y="-627" font-family="Helvetica,sans-Serif" font-size="10.00"> </text>
<polyline fill="none" stroke="black" points="993,-620 1073,-620 "/>
<text text-anchor="middle" x="1033" y="-608" font-family="Helvetica,sans-Serif" font-size="10.00"> </text>
</a>
</g>
</g>
<!-- Node23&#45;&gt;Node22 -->
<g id="edge27" class="edge">
<title>Node23&#45;&gt;Node22</title>
<path fill="none" stroke="midnightblue" d="M1033,-590.88C1033,-546.43 1033,-471.46 1033,-415.78"/>
<polygon fill="none" stroke="midnightblue" points="1029.5,-590.96 1033,-600.96 1036.5,-590.96 1029.5,-590.96"/>
</g>
</g>
</svg>
