<?xml version="1.0" encoding="UTF-8" standalone="no"?>
<!DOCTYPE svg PUBLIC "-//W3C//DTD SVG 1.1//EN"
 "http://www.w3.org/Graphics/SVG/1.1/DTD/svg11.dtd">
<!-- Generated by graphviz version 2.40.1 (20161225.0304)
 -->
<!-- Title: River::Point::angle Pages: 1 -->
<svg width="343pt" height="116pt"
 viewBox="0.00 0.00 343.00 115.50" xmlns="http://www.w3.org/2000/svg" xmlns:xlink="http://www.w3.org/1999/xlink">
<g id="graph0" class="graph" transform="scale(1 1) rotate(0) translate(4 111.5)">
<title>River::Point::angle</title>
<polygon fill="#ffffff" stroke="transparent" points="-4,4 -4,-111.5 339,-111.5 339,4 -4,4"/>
<!-- Node44 -->
<g id="node1" class="node">
<title>Node44</title>
<polygon fill="#bfbfbf" stroke="#000000" points="0,-38.5 0,-57.5 98,-57.5 98,-38.5 0,-38.5"/>
<text text-anchor="middle" x="49" y="-45.5" font-family="Helvetica,sans-Serif" font-size="10.00" fill="#000000">River::Point::angle</text>
</g>
<!-- Node45 -->
<g id="node2" class="node">
<title>Node45</title>
<g id="a_node2"><a xlink:href="classRiver_1_1Border.html#ad884663725156885e8e5def07a2e49c1" target="_top" xlink:title="Return normal line angle to boundary at point where is located source with source_id ...">
<polygon fill="#ffffff" stroke="#000000" points="134,-77 134,-107 261,-107 261,-77 134,-77"/>
<text text-anchor="start" x="142" y="-95" font-family="Helvetica,sans-Serif" font-size="10.00" fill="#000000">River::Border::GetSource</text>
<text text-anchor="middle" x="197.5" y="-84" font-family="Helvetica,sans-Serif" font-size="10.00" fill="#000000">NormalAngle</text>
</a>
</g>
</g>
<!-- Node44&#45;&gt;Node45 -->
<g id="edge1" class="edge">
<title>Node44&#45;&gt;Node45</title>
<path fill="none" stroke="#191970" d="M91.0365,-60.4553C108.3369,-65.5813 128.5317,-71.5649 146.6544,-76.9346"/>
<polygon fill="#191970" stroke="#191970" points="91.8046,-57.0325 81.2223,-57.5473 89.8159,-63.7441 91.8046,-57.0325"/>
</g>
<!-- Node46 -->
<g id="node3" class="node">
<title>Node46</title>
<g id="a_node3"><a xlink:href="classRiver_1_1Point.html#a5a80f76067f92be8434cafff8cf55380" target="_top" xlink:title="River::Point::getPolar">
<polygon fill="#ffffff" stroke="#000000" points="142.5,-38.5 142.5,-57.5 252.5,-57.5 252.5,-38.5 142.5,-38.5"/>
<text text-anchor="middle" x="197.5" y="-45.5" font-family="Helvetica,sans-Serif" font-size="10.00" fill="#000000">River::Point::getPolar</text>
</a>
</g>
</g>
<!-- Node44&#45;&gt;Node46 -->
<g id="edge2" class="edge">
<title>Node44&#45;&gt;Node46</title>
<path fill="none" stroke="#191970" d="M108.2138,-48C119.4781,-48 131.2243,-48 142.3558,-48"/>
<polygon fill="#191970" stroke="#191970" points="108.036,-44.5001 98.036,-48 108.036,-51.5001 108.036,-44.5001"/>
</g>
<!-- Node47 -->
<g id="node4" class="node">
<title>Node47</title>
<g id="a_node4"><a xlink:href="classRiver_1_1Solver.html#a8224d44b334d6d1f0d40d5b161bbdd6d" target="_top" xlink:title="River::Solver::integrate">
<polygon fill="#ffffff" stroke="#000000" points="139,-.5 139,-19.5 256,-19.5 256,-.5 139,-.5"/>
<text text-anchor="middle" x="197.5" y="-7.5" font-family="Helvetica,sans-Serif" font-size="10.00" fill="#000000">River::Solver::integrate</text>
</a>
</g>
</g>
<!-- Node44&#45;&gt;Node47 -->
<g id="edge3" class="edge">
<title>Node44&#45;&gt;Node47</title>
<path fill="none" stroke="#191970" d="M96.3329,-35.8879C117.0146,-30.5956 140.9188,-24.4787 160.2966,-19.5201"/>
<polygon fill="#191970" stroke="#191970" points="95.293,-32.5411 86.4728,-38.411 97.0284,-39.3226 95.293,-32.5411"/>
</g>
<!-- Node48 -->
<g id="node5" class="node">
<title>Node48</title>
<g id="a_node5"><a xlink:href="main_8cpp.html#a0ddf1224851353fc92bfbff6f499fa97" target="_top" xlink:title="Entry point of RiverSim program. ">
<polygon fill="#ffffff" stroke="#000000" points="297,-.5 297,-19.5 335,-19.5 335,-.5 297,-.5"/>
<text text-anchor="middle" x="316" y="-7.5" font-family="Helvetica,sans-Serif" font-size="10.00" fill="#000000">main</text>
</a>
</g>
</g>
<!-- Node47&#45;&gt;Node48 -->
<g id="edge4" class="edge">
<title>Node47&#45;&gt;Node48</title>
<path fill="none" stroke="#191970" d="M266.0882,-10C277.4166,-10 288.2778,-10 296.9589,-10"/>
<polygon fill="#191970" stroke="#191970" points="266.0557,-6.5001 256.0557,-10 266.0556,-13.5001 266.0557,-6.5001"/>
</g>
</g>
</svg>
