<?xml version="1.0" encoding="UTF-8" standalone="no"?>
<!DOCTYPE svg PUBLIC "-//W3C//DTD SVG 1.1//EN"
 "http://www.w3.org/Graphics/SVG/1.1/DTD/svg11.dtd">
<!-- Generated by graphviz version 2.40.1 (20161225.0304)
 -->
<!-- Title: River::Border Pages: 1 -->
<svg width="537pt" height="336pt"
 viewBox="0.00 0.00 537.00 336.00" xmlns="http://www.w3.org/2000/svg" xmlns:xlink="http://www.w3.org/1999/xlink">
<g id="graph0" class="graph" transform="scale(1 1) rotate(0) translate(4 332)">
<title>River::Border</title>
<polygon fill="#ffffff" stroke="transparent" points="-4,4 -4,-332 533,-332 533,4 -4,4"/>
<!-- Node1 -->
<g id="node1" class="node">
<title>Node1</title>
<polygon fill="#bfbfbf" stroke="#000000" points="198.5,-.5 198.5,-222.5 338.5,-222.5 338.5,-.5 198.5,-.5"/>
<text text-anchor="middle" x="268.5" y="-210.5" font-family="Helvetica,sans-Serif" font-size="10.00" fill="#000000">River::Border</text>
<polyline fill="none" stroke="#000000" points="198.5,-203.5 338.5,-203.5 "/>
<text text-anchor="middle" x="268.5" y="-191.5" font-family="Helvetica,sans-Serif" font-size="10.00" fill="#000000"> </text>
<polyline fill="none" stroke="#000000" points="198.5,-184.5 338.5,-184.5 "/>
<text text-anchor="start" x="206.5" y="-172.5" font-family="Helvetica,sans-Serif" font-size="10.00" fill="#000000">+ Border()</text>
<text text-anchor="start" x="206.5" y="-161.5" font-family="Helvetica,sans-Serif" font-size="10.00" fill="#000000">+ MakeRectangular()</text>
<text text-anchor="start" x="206.5" y="-150.5" font-family="Helvetica,sans-Serif" font-size="10.00" fill="#000000">+ SourceByVerticeIdMap()</text>
<text text-anchor="start" x="206.5" y="-139.5" font-family="Helvetica,sans-Serif" font-size="10.00" fill="#000000">+ GetSourcesId()</text>
<text text-anchor="start" x="206.5" y="-128.5" font-family="Helvetica,sans-Serif" font-size="10.00" fill="#000000">+ GetSourcesPoint()</text>
<text text-anchor="start" x="206.5" y="-117.5" font-family="Helvetica,sans-Serif" font-size="10.00" fill="#000000">+ GetSourcePoint()</text>
<text text-anchor="start" x="206.5" y="-106.5" font-family="Helvetica,sans-Serif" font-size="10.00" fill="#000000">+ GetSourceVerticeIndex()</text>
<text text-anchor="start" x="206.5" y="-95.5" font-family="Helvetica,sans-Serif" font-size="10.00" fill="#000000">+ GetSourceNormalAngle()</text>
<text text-anchor="start" x="206.5" y="-84.5" font-family="Helvetica,sans-Serif" font-size="10.00" fill="#000000">+ GetSourcesNormalAngle()</text>
<text text-anchor="start" x="206.5" y="-73.5" font-family="Helvetica,sans-Serif" font-size="10.00" fill="#000000">* GetAdjacentPoints()</text>
<text text-anchor="start" x="206.5" y="-62.5" font-family="Helvetica,sans-Serif" font-size="10.00" fill="#000000">* GetSourcesId()</text>
<text text-anchor="start" x="206.5" y="-51.5" font-family="Helvetica,sans-Serif" font-size="10.00" fill="#000000">* GetSourcesPoint()</text>
<text text-anchor="start" x="206.5" y="-40.5" font-family="Helvetica,sans-Serif" font-size="10.00" fill="#000000">* GetSourcePoint()</text>
<text text-anchor="start" x="206.5" y="-29.5" font-family="Helvetica,sans-Serif" font-size="10.00" fill="#000000">* GetSourceVerticeIndex()</text>
<text text-anchor="start" x="206.5" y="-18.5" font-family="Helvetica,sans-Serif" font-size="10.00" fill="#000000">* GetSourceNormalAngle()</text>
<text text-anchor="start" x="206.5" y="-7.5" font-family="Helvetica,sans-Serif" font-size="10.00" fill="#000000">* GetSourcesNormalAngle()</text>
</g>
<!-- Node2 -->
<g id="node2" class="node">
<title>Node2</title>
<polygon fill="#ffffff" stroke="#bfbfbf" points="0,-270.5 0,-327.5 113,-327.5 113,-270.5 0,-270.5"/>
<text text-anchor="middle" x="56.5" y="-315.5" font-family="Helvetica,sans-Serif" font-size="10.00" fill="#000000">vector&lt; River::Point &gt;</text>
<polyline fill="none" stroke="#bfbfbf" points="0,-308.5 113,-308.5 "/>
<text text-anchor="middle" x="56.5" y="-296.5" font-family="Helvetica,sans-Serif" font-size="10.00" fill="#000000"> </text>
<polyline fill="none" stroke="#bfbfbf" points="0,-289.5 113,-289.5 "/>
<text text-anchor="middle" x="56.5" y="-277.5" font-family="Helvetica,sans-Serif" font-size="10.00" fill="#000000"> </text>
</g>
<!-- Node2&#45;&gt;Node1 -->
<g id="edge1" class="edge">
<title>Node2&#45;&gt;Node1</title>
<path fill="none" stroke="#404040" d="M89.1604,-270.114C115.8154,-246.5394 154.6061,-212.2316 189.2982,-181.5488"/>
<polygon fill="none" stroke="#404040" points="189.5,-181.3703 191.3444,-174.399 198.4888,-173.4202 196.6444,-180.3915 189.5,-181.3703"/>
<text text-anchor="middle" x="141.5" y="-244" font-family="Helvetica,sans-Serif" font-size="10.00" fill="#000000"> +vertices</text>
</g>
<!-- Node3 -->
<g id="node3" class="node">
<title>Node3</title>
<polygon fill="#ffffff" stroke="#bfbfbf" points="131.5,-270.5 131.5,-327.5 261.5,-327.5 261.5,-270.5 131.5,-270.5"/>
<text text-anchor="middle" x="196.5" y="-315.5" font-family="Helvetica,sans-Serif" font-size="10.00" fill="#000000">map&lt; int, long unsigned &gt;</text>
<polyline fill="none" stroke="#bfbfbf" points="131.5,-308.5 261.5,-308.5 "/>
<text text-anchor="middle" x="196.5" y="-296.5" font-family="Helvetica,sans-Serif" font-size="10.00" fill="#000000"> </text>
<polyline fill="none" stroke="#bfbfbf" points="131.5,-289.5 261.5,-289.5 "/>
<text text-anchor="middle" x="196.5" y="-277.5" font-family="Helvetica,sans-Serif" font-size="10.00" fill="#000000"> </text>
</g>
<!-- Node3&#45;&gt;Node1 -->
<g id="edge2" class="edge">
<title>Node3&#45;&gt;Node1</title>
<path fill="none" stroke="#404040" d="M207.5922,-270.114C211.5677,-259.7613 216.338,-247.3386 221.4362,-234.062"/>
<polygon fill="none" stroke="#404040" points="221.4838,-233.938 219.9005,-226.9028 225.7856,-222.7355 227.3688,-229.7707 221.4838,-233.938"/>
<text text-anchor="middle" x="240.5" y="-244" font-family="Helvetica,sans-Serif" font-size="10.00" fill="#000000"> +sources</text>
</g>
<!-- Node4 -->
<g id="node4" class="node">
<title>Node4</title>
<polygon fill="#ffffff" stroke="#bfbfbf" points="279.5,-270.5 279.5,-327.5 401.5,-327.5 401.5,-270.5 279.5,-270.5"/>
<text text-anchor="middle" x="340.5" y="-315.5" font-family="Helvetica,sans-Serif" font-size="10.00" fill="#000000">vector&lt; long unsigned &gt;</text>
<polyline fill="none" stroke="#bfbfbf" points="279.5,-308.5 401.5,-308.5 "/>
<text text-anchor="middle" x="340.5" y="-296.5" font-family="Helvetica,sans-Serif" font-size="10.00" fill="#000000"> </text>
<polyline fill="none" stroke="#bfbfbf" points="279.5,-289.5 401.5,-289.5 "/>
<text text-anchor="middle" x="340.5" y="-277.5" font-family="Helvetica,sans-Serif" font-size="10.00" fill="#000000"> </text>
</g>
<!-- Node4&#45;&gt;Node1 -->
<g id="edge3" class="edge">
<title>Node4&#45;&gt;Node1</title>
<path fill="none" stroke="#404040" d="M329.4078,-270.114C325.4323,-259.7613 320.662,-247.3386 315.5638,-234.062"/>
<polygon fill="none" stroke="#404040" points="315.5162,-233.938 309.6312,-229.7707 311.2144,-222.7355 317.0995,-226.9028 315.5162,-233.938"/>
<text text-anchor="middle" x="337" y="-244" font-family="Helvetica,sans-Serif" font-size="10.00" fill="#000000"> +holes</text>
</g>
<!-- Node5 -->
<g id="node5" class="node">
<title>Node5</title>
<polygon fill="#ffffff" stroke="#bfbfbf" points="420,-270.5 420,-327.5 529,-327.5 529,-270.5 420,-270.5"/>
<text text-anchor="middle" x="474.5" y="-315.5" font-family="Helvetica,sans-Serif" font-size="10.00" fill="#000000">vector&lt; River::Line &gt;</text>
<polyline fill="none" stroke="#bfbfbf" points="420,-308.5 529,-308.5 "/>
<text text-anchor="middle" x="474.5" y="-296.5" font-family="Helvetica,sans-Serif" font-size="10.00" fill="#000000"> </text>
<polyline fill="none" stroke="#bfbfbf" points="420,-289.5 529,-289.5 "/>
<text text-anchor="middle" x="474.5" y="-277.5" font-family="Helvetica,sans-Serif" font-size="10.00" fill="#000000"> </text>
</g>
<!-- Node5&#45;&gt;Node1 -->
<g id="edge4" class="edge">
<title>Node5&#45;&gt;Node1</title>
<path fill="none" stroke="#404040" d="M442.764,-270.114C417.4893,-247.1092 380.9857,-213.8838 347.9114,-183.7798"/>
<polygon fill="none" stroke="#404040" points="347.5603,-183.4602 340.4306,-182.3796 338.6858,-175.3827 345.8155,-176.4633 347.5603,-183.4602"/>
<text text-anchor="middle" x="433.5" y="-244" font-family="Helvetica,sans-Serif" font-size="10.00" fill="#000000"> +lines</text>
</g>
</g>
</svg>
