<?xml version="1.0" encoding="UTF-8" standalone="no"?>
<!DOCTYPE svg PUBLIC "-//W3C//DTD SVG 1.1//EN"
 "http://www.w3.org/Graphics/SVG/1.1/DTD/svg11.dtd">
<!-- Generated by graphviz version 2.40.1 (20161225.0304)
 -->
<!-- Title: River::Solver Pages: 1 -->
<svg width="1462pt" height="391pt"
 viewBox="0.00 0.00 1461.50 391.00" xmlns="http://www.w3.org/2000/svg" xmlns:xlink="http://www.w3.org/1999/xlink">
<g id="graph0" class="graph" transform="scale(1 1) rotate(0) translate(4 387)">
<title>River::Solver</title>
<polygon fill="#ffffff" stroke="transparent" points="-4,4 -4,-387 1457.5,-387 1457.5,4 -4,4"/>
<!-- Node1 -->
<g id="node1" class="node">
<title>Node1</title>
<polygon fill="#bfbfbf" stroke="#000000" points="608.5,-.5 608.5,-233.5 766.5,-233.5 766.5,-.5 608.5,-.5"/>
<text text-anchor="middle" x="687.5" y="-221.5" font-family="Helvetica,sans-Serif" font-size="10.00" fill="#000000">River::Solver</text>
<polyline fill="none" stroke="#000000" points="608.5,-214.5 766.5,-214.5 "/>
<text text-anchor="middle" x="687.5" y="-202.5" font-family="Helvetica,sans-Serif" font-size="10.00" fill="#000000"> </text>
<polyline fill="none" stroke="#000000" points="608.5,-195.5 766.5,-195.5 "/>
<text text-anchor="start" x="616.5" y="-183.5" font-family="Helvetica,sans-Serif" font-size="10.00" fill="#000000">+ Solver()</text>
<text text-anchor="start" x="616.5" y="-172.5" font-family="Helvetica,sans-Serif" font-size="10.00" fill="#000000">+ ~Solver()</text>
<text text-anchor="start" x="616.5" y="-161.5" font-family="Helvetica,sans-Serif" font-size="10.00" fill="#000000">+ SetBoundaryRegionValue()</text>
<text text-anchor="start" x="616.5" y="-150.5" font-family="Helvetica,sans-Serif" font-size="10.00" fill="#000000">+ SetMesh()</text>
<text text-anchor="start" x="616.5" y="-139.5" font-family="Helvetica,sans-Serif" font-size="10.00" fill="#000000">+ OpenMesh()</text>
<text text-anchor="start" x="616.5" y="-128.5" font-family="Helvetica,sans-Serif" font-size="10.00" fill="#000000">+ static_refine_grid()</text>
<text text-anchor="start" x="616.5" y="-117.5" font-family="Helvetica,sans-Serif" font-size="10.00" fill="#000000">+ run()</text>
<text text-anchor="start" x="616.5" y="-106.5" font-family="Helvetica,sans-Serif" font-size="10.00" fill="#000000">+ output_results()</text>
<text text-anchor="start" x="616.5" y="-95.5" font-family="Helvetica,sans-Serif" font-size="10.00" fill="#000000">+ integrate()</text>
<text text-anchor="start" x="616.5" y="-84.5" font-family="Helvetica,sans-Serif" font-size="10.00" fill="#000000">+ integration_test()</text>
<text text-anchor="start" x="616.5" y="-73.5" font-family="Helvetica,sans-Serif" font-size="10.00" fill="#000000">+ max_value()</text>
<text text-anchor="start" x="616.5" y="-62.5" font-family="Helvetica,sans-Serif" font-size="10.00" fill="#000000">+ clear()</text>
<text text-anchor="start" x="616.5" y="-51.5" font-family="Helvetica,sans-Serif" font-size="10.00" fill="#000000">&#45; setup_system()</text>
<text text-anchor="start" x="616.5" y="-40.5" font-family="Helvetica,sans-Serif" font-size="10.00" fill="#000000">&#45; assemble_system()</text>
<text text-anchor="start" x="616.5" y="-29.5" font-family="Helvetica,sans-Serif" font-size="10.00" fill="#000000">&#45; solve()</text>
<text text-anchor="start" x="616.5" y="-18.5" font-family="Helvetica,sans-Serif" font-size="10.00" fill="#000000">&#45; refine_grid()</text>
<text text-anchor="start" x="616.5" y="-7.5" font-family="Helvetica,sans-Serif" font-size="10.00" fill="#000000">&#45; TryInsertCellBoundary()</text>
</g>
<!-- Node2 -->
<g id="node2" class="node">
<title>Node2</title>
<polygon fill="#ffffff" stroke="#bfbfbf" points="0,-320 0,-377 121,-377 121,-320 0,-320"/>
<text text-anchor="middle" x="60.5" y="-365" font-family="Helvetica,sans-Serif" font-size="10.00" fill="#000000">Triangulation&lt; dim &gt;</text>
<polyline fill="none" stroke="#bfbfbf" points="0,-358 121,-358 "/>
<text text-anchor="middle" x="60.5" y="-346" font-family="Helvetica,sans-Serif" font-size="10.00" fill="#000000"> </text>
<polyline fill="none" stroke="#bfbfbf" points="0,-339 121,-339 "/>
<text text-anchor="middle" x="60.5" y="-327" font-family="Helvetica,sans-Serif" font-size="10.00" fill="#000000"> </text>
</g>
<!-- Node2&#45;&gt;Node1 -->
<g id="edge1" class="edge">
<title>Node2&#45;&gt;Node1</title>
<path fill="none" stroke="#404040" d="M61.936,-319.9889C64.5743,-298.3256 71.6863,-269.3828 90.5,-252 163.3777,-184.6649 447.6268,-143.7292 596.0772,-126.5096"/>
<polygon fill="none" stroke="#404040" points="596.3454,-126.479 601.8513,-121.8222 608.2675,-125.1135 602.7616,-129.7702 596.3454,-126.479"/>
<text text-anchor="middle" x="125.5" y="-271.5" font-family="Helvetica,sans-Serif" font-size="10.00" fill="#000000"> &#45;triangulation</text>
</g>
<!-- Node3 -->
<g id="node3" class="node">
<title>Node3</title>
<polygon fill="#ffffff" stroke="#bfbfbf" points="139.5,-320 139.5,-377 189.5,-377 189.5,-320 139.5,-320"/>
<text text-anchor="middle" x="164.5" y="-365" font-family="Helvetica,sans-Serif" font-size="10.00" fill="#000000">double</text>
<polyline fill="none" stroke="#bfbfbf" points="139.5,-358 189.5,-358 "/>
<text text-anchor="middle" x="164.5" y="-346" font-family="Helvetica,sans-Serif" font-size="10.00" fill="#000000"> </text>
<polyline fill="none" stroke="#bfbfbf" points="139.5,-339 189.5,-339 "/>
<text text-anchor="middle" x="164.5" y="-327" font-family="Helvetica,sans-Serif" font-size="10.00" fill="#000000"> </text>
</g>
<!-- Node3&#45;&gt;Node1 -->
<g id="edge2" class="edge">
<title>Node3&#45;&gt;Node1</title>
<path fill="none" stroke="#404040" d="M162.2467,-319.5895C162.2148,-298.289 165.8259,-270.0067 182.5,-252 238.1268,-191.9276 466.1994,-149.4727 596.0045,-129.6424"/>
<polygon fill="none" stroke="#404040" points="596.3848,-129.5851 601.7206,-124.7344 608.2504,-127.7941 602.9146,-132.6448 596.3848,-129.5851"/>
<text text-anchor="middle" x="236.5" y="-288" font-family="Helvetica,sans-Serif" font-size="10.00" fill="#000000"> +coarsening_fraction</text>
<text text-anchor="middle" x="236.5" y="-277" font-family="Helvetica,sans-Serif" font-size="10.00" fill="#000000">+refinment_fraction</text>
<text text-anchor="middle" x="236.5" y="-266" font-family="Helvetica,sans-Serif" font-size="10.00" fill="#000000">+field_value</text>
<text text-anchor="middle" x="236.5" y="-255" font-family="Helvetica,sans-Serif" font-size="10.00" fill="#000000">+tollerance</text>
</g>
<!-- Node4 -->
<g id="node4" class="node">
<title>Node4</title>
<polygon fill="#ffffff" stroke="#bfbfbf" points="212.5,-320 212.5,-377 310.5,-377 310.5,-320 212.5,-320"/>
<text text-anchor="middle" x="261.5" y="-365" font-family="Helvetica,sans-Serif" font-size="10.00" fill="#000000">ConstraintMatrix</text>
<polyline fill="none" stroke="#bfbfbf" points="212.5,-358 310.5,-358 "/>
<text text-anchor="middle" x="261.5" y="-346" font-family="Helvetica,sans-Serif" font-size="10.00" fill="#000000"> </text>
<polyline fill="none" stroke="#bfbfbf" points="212.5,-339 310.5,-339 "/>
<text text-anchor="middle" x="261.5" y="-327" font-family="Helvetica,sans-Serif" font-size="10.00" fill="#000000"> </text>
</g>
<!-- Node4&#45;&gt;Node1 -->
<g id="edge3" class="edge">
<title>Node4&#45;&gt;Node1</title>
<path fill="none" stroke="#404040" d="M277.9184,-319.7084C291.3037,-298.4702 311.9676,-270.2137 336.5,-252 414.8706,-193.8148 521.413,-157.5477 596.4949,-137.4425"/>
<polygon fill="none" stroke="#404040" points="596.6588,-137.3996 601.447,-132.0076 608.2659,-134.3537 603.4777,-139.7456 596.6588,-137.3996"/>
<text text-anchor="middle" x="367" y="-271.5" font-family="Helvetica,sans-Serif" font-size="10.00" fill="#000000"> &#45;constraints</text>
</g>
<!-- Node5 -->
<g id="node5" class="node">
<title>Node5</title>
<polygon fill="#ffffff" stroke="#bfbfbf" points="329,-320 329,-377 420,-377 420,-320 329,-320"/>
<text text-anchor="middle" x="374.5" y="-365" font-family="Helvetica,sans-Serif" font-size="10.00" fill="#000000">SparsityPattern</text>
<polyline fill="none" stroke="#bfbfbf" points="329,-358 420,-358 "/>
<text text-anchor="middle" x="374.5" y="-346" font-family="Helvetica,sans-Serif" font-size="10.00" fill="#000000"> </text>
<polyline fill="none" stroke="#bfbfbf" points="329,-339 420,-339 "/>
<text text-anchor="middle" x="374.5" y="-327" font-family="Helvetica,sans-Serif" font-size="10.00" fill="#000000"> </text>
</g>
<!-- Node5&#45;&gt;Node1 -->
<g id="edge4" class="edge">
<title>Node5&#45;&gt;Node1</title>
<path fill="none" stroke="#404040" d="M388.4142,-319.5783C399.495,-298.8232 416.5919,-271.2362 437.5,-252 484.0009,-209.2174 546.5626,-175.4479 597.4682,-152.3839"/>
<polygon fill="none" stroke="#404040" points="597.5132,-152.3639 601.3661,-146.2684 608.4746,-147.4804 604.6217,-153.576 597.5132,-152.3639"/>
<text text-anchor="middle" x="481" y="-271.5" font-family="Helvetica,sans-Serif" font-size="10.00" fill="#000000"> &#45;sparsity_pattern</text>
</g>
<!-- Node6 -->
<g id="node6" class="node">
<title>Node6</title>
<polygon fill="#ffffff" stroke="#bfbfbf" points="438,-320 438,-377 553,-377 553,-320 438,-320"/>
<text text-anchor="middle" x="495.5" y="-365" font-family="Helvetica,sans-Serif" font-size="10.00" fill="#000000">DoFHandler&lt; dim &gt;</text>
<polyline fill="none" stroke="#bfbfbf" points="438,-358 553,-358 "/>
<text text-anchor="middle" x="495.5" y="-346" font-family="Helvetica,sans-Serif" font-size="10.00" fill="#000000"> </text>
<polyline fill="none" stroke="#bfbfbf" points="438,-339 553,-339 "/>
<text text-anchor="middle" x="495.5" y="-327" font-family="Helvetica,sans-Serif" font-size="10.00" fill="#000000"> </text>
</g>
<!-- Node6&#45;&gt;Node1 -->
<g id="edge5" class="edge">
<title>Node6&#45;&gt;Node1</title>
<path fill="none" stroke="#404040" d="M513.4787,-319.8266C526.1772,-300.1946 543.988,-273.8607 561.5,-252 573.5342,-236.9774 586.8542,-221.5758 600.1948,-206.7993"/>
<polygon fill="none" stroke="#404040" points="600.4123,-206.5604 601.4952,-199.431 608.4926,-197.6885 607.4097,-204.8179 600.4123,-206.5604"/>
<text text-anchor="middle" x="594" y="-271.5" font-family="Helvetica,sans-Serif" font-size="10.00" fill="#000000"> &#45;dof_handler</text>
</g>
<!-- Node7 -->
<g id="node7" class="node">
<title>Node7</title>
<polygon fill="#ffffff" stroke="#bfbfbf" points="571.5,-320 571.5,-377 653.5,-377 653.5,-320 571.5,-320"/>
<text text-anchor="middle" x="612.5" y="-365" font-family="Helvetica,sans-Serif" font-size="10.00" fill="#000000">FE_Q&lt; dim &gt;</text>
<polyline fill="none" stroke="#bfbfbf" points="571.5,-358 653.5,-358 "/>
<text text-anchor="middle" x="612.5" y="-346" font-family="Helvetica,sans-Serif" font-size="10.00" fill="#000000"> </text>
<polyline fill="none" stroke="#bfbfbf" points="571.5,-339 653.5,-339 "/>
<text text-anchor="middle" x="612.5" y="-327" font-family="Helvetica,sans-Serif" font-size="10.00" fill="#000000"> </text>
</g>
<!-- Node7&#45;&gt;Node1 -->
<g id="edge6" class="edge">
<title>Node7&#45;&gt;Node1</title>
<path fill="none" stroke="#404040" d="M621.8472,-319.6484C628.1285,-300.2602 636.8932,-273.2064 645.9765,-245.1693"/>
<polygon fill="none" stroke="#404040" points="646.0449,-244.958 644.0888,-238.0172 649.7434,-233.5421 651.6994,-240.4829 646.0449,-244.958"/>
<text text-anchor="middle" x="651" y="-271.5" font-family="Helvetica,sans-Serif" font-size="10.00" fill="#000000"> &#45;fe</text>
</g>
<!-- Node8 -->
<g id="node8" class="node">
<title>Node8</title>
<polygon fill="#ffffff" stroke="#bfbfbf" points="672,-314.5 672,-382.5 791,-382.5 791,-314.5 672,-314.5"/>
<text text-anchor="start" x="680" y="-370.5" font-family="Helvetica,sans-Serif" font-size="10.00" fill="#000000">map&lt; double, vector</text>
<text text-anchor="middle" x="731.5" y="-359.5" font-family="Helvetica,sans-Serif" font-size="10.00" fill="#000000">&lt; int &gt; &gt;</text>
<polyline fill="none" stroke="#bfbfbf" points="672,-352.5 791,-352.5 "/>
<text text-anchor="middle" x="731.5" y="-340.5" font-family="Helvetica,sans-Serif" font-size="10.00" fill="#000000"> </text>
<polyline fill="none" stroke="#bfbfbf" points="672,-333.5 791,-333.5 "/>
<text text-anchor="middle" x="731.5" y="-321.5" font-family="Helvetica,sans-Serif" font-size="10.00" fill="#000000"> </text>
</g>
<!-- Node8&#45;&gt;Node1 -->
<g id="edge7" class="edge">
<title>Node8&#45;&gt;Node1</title>
<path fill="none" stroke="#404040" d="M698.2795,-314.4002C694.2912,-308.639 690.8169,-302.4286 688.5,-296 682.8191,-280.2377 679.4867,-263.1753 677.7655,-246.0595"/>
<polygon fill="none" stroke="#404040" points="677.727,-245.5681 673.269,-239.9001 676.7864,-233.605 681.2444,-239.273 677.727,-245.5681"/>
<text text-anchor="middle" x="745" y="-271.5" font-family="Helvetica,sans-Serif" font-size="10.00" fill="#000000"> &#45;boundaryRegionValue</text>
</g>
<!-- Node9 -->
<g id="node9" class="node">
<title>Node9</title>
<polygon fill="#ffffff" stroke="#bfbfbf" points="809,-320 809,-377 838,-377 838,-320 809,-320"/>
<text text-anchor="middle" x="823.5" y="-365" font-family="Helvetica,sans-Serif" font-size="10.00" fill="#000000">int</text>
<polyline fill="none" stroke="#bfbfbf" points="809,-358 838,-358 "/>
<text text-anchor="middle" x="823.5" y="-346" font-family="Helvetica,sans-Serif" font-size="10.00" fill="#000000"> </text>
<polyline fill="none" stroke="#bfbfbf" points="809,-339 838,-339 "/>
<text text-anchor="middle" x="823.5" y="-327" font-family="Helvetica,sans-Serif" font-size="10.00" fill="#000000"> </text>
</g>
<!-- Node9&#45;&gt;Node1 -->
<g id="edge8" class="edge">
<title>Node9&#45;&gt;Node1</title>
<path fill="none" stroke="#404040" d="M820.5953,-319.8476C817.7312,-299.9862 812.1615,-273.3733 801.5,-252 793.9347,-236.8336 784.3249,-221.9255 773.9056,-207.8707"/>
<polygon fill="none" stroke="#404040" points="773.8653,-207.8181 767.0437,-205.4802 766.578,-198.2841 773.3996,-200.622 773.8653,-207.8181"/>
<text text-anchor="middle" x="828.5" y="-271.5" font-family="Helvetica,sans-Serif" font-size="10.00" fill="#000000"> &#45;dim</text>
</g>
<!-- Node10 -->
<g id="node10" class="node">
<title>Node10</title>
<polygon fill="#ffffff" stroke="#bfbfbf" points="856.5,-320 856.5,-377 894.5,-377 894.5,-320 856.5,-320"/>
<text text-anchor="middle" x="875.5" y="-365" font-family="Helvetica,sans-Serif" font-size="10.00" fill="#000000">bool</text>
<polyline fill="none" stroke="#bfbfbf" points="856.5,-358 894.5,-358 "/>
<text text-anchor="middle" x="875.5" y="-346" font-family="Helvetica,sans-Serif" font-size="10.00" fill="#000000"> </text>
<polyline fill="none" stroke="#bfbfbf" points="856.5,-339 894.5,-339 "/>
<text text-anchor="middle" x="875.5" y="-327" font-family="Helvetica,sans-Serif" font-size="10.00" fill="#000000"> </text>
</g>
<!-- Node10&#45;&gt;Node1 -->
<g id="edge9" class="edge">
<title>Node10&#45;&gt;Node1</title>
<path fill="none" stroke="#404040" d="M870.927,-319.6491C866.7187,-299.4482 859.0134,-272.5106 845.5,-252 827.1944,-224.2159 801.5744,-198.9308 776.285,-177.9497"/>
<polygon fill="none" stroke="#404040" points="775.9486,-177.6772 768.7686,-177.008 766.6247,-170.123 773.8048,-170.7921 775.9486,-177.6772"/>
<text text-anchor="middle" x="890" y="-271.5" font-family="Helvetica,sans-Serif" font-size="10.00" fill="#000000"> +verbose</text>
</g>
<!-- Node11 -->
<g id="node11" class="node">
<title>Node11</title>
<polygon fill="#ffffff" stroke="#bfbfbf" points="913,-320 913,-377 1016,-377 1016,-320 913,-320"/>
<text text-anchor="middle" x="964.5" y="-365" font-family="Helvetica,sans-Serif" font-size="10.00" fill="#000000">Vector&lt; double &gt;</text>
<polyline fill="none" stroke="#bfbfbf" points="913,-358 1016,-358 "/>
<text text-anchor="middle" x="964.5" y="-346" font-family="Helvetica,sans-Serif" font-size="10.00" fill="#000000"> </text>
<polyline fill="none" stroke="#bfbfbf" points="913,-339 1016,-339 "/>
<text text-anchor="middle" x="964.5" y="-327" font-family="Helvetica,sans-Serif" font-size="10.00" fill="#000000"> </text>
</g>
<!-- Node11&#45;&gt;Node1 -->
<g id="edge10" class="edge">
<title>Node11&#45;&gt;Node1</title>
<path fill="none" stroke="#404040" d="M956.2072,-319.6657C949.1105,-298.9541 937.201,-271.3832 919.5,-252 880.5163,-209.3117 824.8351,-176.2944 777.7935,-153.5995"/>
<polygon fill="none" stroke="#404040" points="777.51,-153.4656 770.3763,-154.5199 766.6594,-148.3406 773.793,-147.2862 777.51,-153.4656"/>
<text text-anchor="middle" x="977" y="-277" font-family="Helvetica,sans-Serif" font-size="10.00" fill="#000000"> &#45;solution</text>
<text text-anchor="middle" x="977" y="-266" font-family="Helvetica,sans-Serif" font-size="10.00" fill="#000000">&#45;system_rhs</text>
</g>
<!-- Node12 -->
<g id="node12" class="node">
<title>Node12</title>
<polygon fill="#ffffff" stroke="#bfbfbf" points="1034,-320 1034,-377 1159,-377 1159,-320 1034,-320"/>
<text text-anchor="middle" x="1096.5" y="-365" font-family="Helvetica,sans-Serif" font-size="10.00" fill="#000000">const QGauss&lt; dim &gt;</text>
<polyline fill="none" stroke="#bfbfbf" points="1034,-358 1159,-358 "/>
<text text-anchor="middle" x="1096.5" y="-346" font-family="Helvetica,sans-Serif" font-size="10.00" fill="#000000"> </text>
<polyline fill="none" stroke="#bfbfbf" points="1034,-339 1159,-339 "/>
<text text-anchor="middle" x="1096.5" y="-327" font-family="Helvetica,sans-Serif" font-size="10.00" fill="#000000"> </text>
</g>
<!-- Node12&#45;&gt;Node1 -->
<g id="edge11" class="edge">
<title>Node12&#45;&gt;Node1</title>
<path fill="none" stroke="#404040" d="M1076.6058,-319.5618C1060.9328,-298.5266 1037.4517,-270.5952 1011.5,-252 940.0913,-200.8336 846.3629,-164.4835 778.0969,-142.4883"/>
<polygon fill="none" stroke="#404040" points="777.9526,-142.4426 771.0241,-144.4416 766.514,-138.8149 773.4425,-136.8159 777.9526,-142.4426"/>
<text text-anchor="middle" x="1108.5" y="-271.5" font-family="Helvetica,sans-Serif" font-size="10.00" fill="#000000"> &#45;quadrature_formula</text>
</g>
<!-- Node13 -->
<g id="node13" class="node">
<title>Node13</title>
<polygon fill="#ffffff" stroke="#bfbfbf" points="1177,-320 1177,-377 1238,-377 1238,-320 1177,-320"/>
<text text-anchor="middle" x="1207.5" y="-365" font-family="Helvetica,sans-Serif" font-size="10.00" fill="#000000">unsigned</text>
<polyline fill="none" stroke="#bfbfbf" points="1177,-358 1238,-358 "/>
<text text-anchor="middle" x="1207.5" y="-346" font-family="Helvetica,sans-Serif" font-size="10.00" fill="#000000"> </text>
<polyline fill="none" stroke="#bfbfbf" points="1177,-339 1238,-339 "/>
<text text-anchor="middle" x="1207.5" y="-327" font-family="Helvetica,sans-Serif" font-size="10.00" fill="#000000"> </text>
</g>
<!-- Node13&#45;&gt;Node1 -->
<g id="edge12" class="edge">
<title>Node13&#45;&gt;Node1</title>
<path fill="none" stroke="#404040" d="M1201.5971,-319.6254C1195.7293,-298.0567 1184.6043,-269.4103 1164.5,-252 1106.8097,-202.0404 900.1348,-156.5128 778.5798,-133.2525"/>
<polygon fill="none" stroke="#404040" points="778.518,-133.2409 771.8775,-136.0521 766.7284,-131.0036 773.369,-128.1924 778.518,-133.2409"/>
<text text-anchor="middle" x="1268" y="-282.5" font-family="Helvetica,sans-Serif" font-size="10.00" fill="#000000"> +num_of_static_refinments</text>
<text text-anchor="middle" x="1268" y="-271.5" font-family="Helvetica,sans-Serif" font-size="10.00" fill="#000000">+number_of_iterations</text>
<text text-anchor="middle" x="1268" y="-260.5" font-family="Helvetica,sans-Serif" font-size="10.00" fill="#000000">+num_of_adaptive_refinments</text>
</g>
<!-- Node14 -->
<g id="node14" class="node">
<title>Node14</title>
<polygon fill="#ffffff" stroke="#bfbfbf" points="1313.5,-320 1313.5,-377 1449.5,-377 1449.5,-320 1313.5,-320"/>
<text text-anchor="middle" x="1381.5" y="-365" font-family="Helvetica,sans-Serif" font-size="10.00" fill="#000000">SparseMatrix&lt; double &gt;</text>
<polyline fill="none" stroke="#bfbfbf" points="1313.5,-358 1449.5,-358 "/>
<text text-anchor="middle" x="1381.5" y="-346" font-family="Helvetica,sans-Serif" font-size="10.00" fill="#000000"> </text>
<polyline fill="none" stroke="#bfbfbf" points="1313.5,-339 1449.5,-339 "/>
<text text-anchor="middle" x="1381.5" y="-327" font-family="Helvetica,sans-Serif" font-size="10.00" fill="#000000"> </text>
</g>
<!-- Node14&#45;&gt;Node1 -->
<g id="edge13" class="edge">
<title>Node14&#45;&gt;Node1</title>
<path fill="none" stroke="#404040" d="M1378.891,-319.799C1375.3596,-298.031 1367.0501,-269.04 1347.5,-252 1263.5593,-178.8369 939.3466,-139.8237 778.7334,-124.6359"/>
<polygon fill="none" stroke="#404040" points="778.4688,-124.6113 772.1234,-128.037 766.5207,-123.4972 772.8661,-120.0715 778.4688,-124.6113"/>
<text text-anchor="middle" x="1413" y="-271.5" font-family="Helvetica,sans-Serif" font-size="10.00" fill="#000000"> &#45;system_matrix</text>
</g>
</g>
</svg>
