<?xml version="1.0" encoding="UTF-8" standalone="no"?>
<!DOCTYPE svg PUBLIC "-//W3C//DTD SVG 1.1//EN"
 "http://www.w3.org/Graphics/SVG/1.1/DTD/svg11.dtd">
<!-- Generated by graphviz version 2.40.1 (20161225.0304)
 -->
<!-- Title: River::Solver::refine_grid Pages: 1 -->
<svg width="517pt" height="47pt"
 viewBox="0.00 0.00 517.00 47.00" xmlns="http://www.w3.org/2000/svg" xmlns:xlink="http://www.w3.org/1999/xlink">
<g id="graph0" class="graph" transform="scale(1 1) rotate(0) translate(4 43)">
<title>River::Solver::refine_grid</title>
<polygon fill="#ffffff" stroke="transparent" points="-4,4 -4,-43 513,-43 513,4 -4,4"/>
<!-- Node65 -->
<g id="node1" class="node">
<title>Node65</title>
<polygon fill="#bfbfbf" stroke="#000000" points="0,-19.5 0,-38.5 125,-38.5 125,-19.5 0,-19.5"/>
<text text-anchor="middle" x="62.5" y="-26.5" font-family="Helvetica,sans-Serif" font-size="10.00" fill="#000000">River::Solver::refine_grid</text>
</g>
<!-- Node66 -->
<g id="node2" class="node">
<title>Node66</title>
<g id="a_node2"><a xlink:href="classRiver_1_1Solver.html#a4222fe744d607f870a5d7d22b11e8334" target="_top" xlink:title="River::Solver::run">
<polygon fill="#ffffff" stroke="#000000" points="161,-19.5 161,-38.5 254,-38.5 254,-19.5 161,-19.5"/>
<text text-anchor="middle" x="207.5" y="-26.5" font-family="Helvetica,sans-Serif" font-size="10.00" fill="#000000">River::Solver::run</text>
</a>
</g>
</g>
<!-- Node65&#45;&gt;Node66 -->
<g id="edge1" class="edge">
<title>Node65&#45;&gt;Node66</title>
<path fill="none" stroke="#191970" d="M135.3859,-29C144.0376,-29 152.6819,-29 160.8261,-29"/>
<polygon fill="#191970" stroke="#191970" points="135.2558,-25.5001 125.2558,-29 135.2557,-32.5001 135.2558,-25.5001"/>
</g>
<!-- Node67 -->
<g id="node3" class="node">
<title>Node67</title>
<g id="a_node3"><a xlink:href="main_8cpp.html#a0ddf1224851353fc92bfbff6f499fa97" target="_top" xlink:title="Entry point of RiverSim program. ">
<polygon fill="#ffffff" stroke="#000000" points="471,-19.5 471,-38.5 509,-38.5 509,-19.5 471,-19.5"/>
<text text-anchor="middle" x="490" y="-26.5" font-family="Helvetica,sans-Serif" font-size="10.00" fill="#000000">main</text>
</a>
</g>
</g>
<!-- Node66&#45;&gt;Node67 -->
<g id="edge2" class="edge">
<title>Node66&#45;&gt;Node67</title>
<path fill="none" stroke="#191970" d="M264.4871,-29C328.512,-29 428.9413,-29 470.7424,-29"/>
<polygon fill="#191970" stroke="#191970" points="264.1492,-25.5001 254.1491,-29 264.1491,-32.5001 264.1492,-25.5001"/>
</g>
<!-- Node68 -->
<g id="node4" class="node">
<title>Node68</title>
<g id="a_node4"><a xlink:href="namespaceRiver.html#a494b68e2992de95500d6d81770de62ed" target="_top" xlink:title="River::ForwardRiverEvolution">
<polygon fill="#ffffff" stroke="#000000" points="290,-.5 290,-19.5 435,-19.5 435,-.5 290,-.5"/>
<text text-anchor="middle" x="362.5" y="-7.5" font-family="Helvetica,sans-Serif" font-size="10.00" fill="#000000">River::ForwardRiverEvolution</text>
</a>
</g>
</g>
<!-- Node66&#45;&gt;Node68 -->
<g id="edge3" class="edge">
<title>Node66&#45;&gt;Node68</title>
<path fill="none" stroke="#191970" d="M264.0614,-22.0667C272.4747,-21.0354 281.2438,-19.9604 289.9301,-18.8957"/>
<polygon fill="#191970" stroke="#191970" points="263.5049,-18.6086 254.0051,-23.2994 264.3567,-25.5566 263.5049,-18.6086"/>
</g>
<!-- Node68&#45;&gt;Node67 -->
<g id="edge4" class="edge">
<title>Node68&#45;&gt;Node67</title>
<path fill="none" stroke="#191970" d="M436.7834,-21.0697C449.3501,-22.9424 461.3551,-24.7313 470.7718,-26.1346"/>
<polygon fill="#191970" stroke="#191970" points="437.0302,-17.5679 426.6235,-19.5557 435.9984,-24.4914 437.0302,-17.5679"/>
</g>
</g>
</svg>
