<?xml version="1.0" encoding="UTF-8" standalone="no"?>
<!DOCTYPE svg PUBLIC "-//W3C//DTD SVG 1.1//EN"
 "http://www.w3.org/Graphics/SVG/1.1/DTD/svg11.dtd">
<!-- Generated by graphviz version 2.40.1 (20161225.0304)
 -->
<!-- Title: nlohmann::detail::parser::sax_parse Pages: 1 -->
<svg width="604pt" height="132pt"
 viewBox="0.00 0.00 604.00 132.00" xmlns="http://www.w3.org/2000/svg" xmlns:xlink="http://www.w3.org/1999/xlink">
<g id="graph0" class="graph" transform="scale(1 1) rotate(0) translate(4 128)">
<title>nlohmann::detail::parser::sax_parse</title>
<polygon fill="#ffffff" stroke="transparent" points="-4,4 -4,-128 600,-128 600,4 -4,4"/>
<!-- Node15 -->
<g id="node1" class="node">
<title>Node15</title>
<polygon fill="#bfbfbf" stroke="#000000" points="0,-22.5 0,-52.5 121,-52.5 121,-22.5 0,-22.5"/>
<text text-anchor="start" x="8" y="-40.5" font-family="Helvetica,sans-Serif" font-size="10.00" fill="#000000">nlohmann::detail::parser</text>
<text text-anchor="middle" x="60.5" y="-29.5" font-family="Helvetica,sans-Serif" font-size="10.00" fill="#000000">::sax_parse</text>
</g>
<!-- Node16 -->
<g id="node2" class="node">
<title>Node16</title>
<g id="a_node2"><a xlink:href="namespacenlohmann_1_1detail.html#a59fca69799f6b9e366710cb9043aa77d" target="_top" xlink:title="nlohmann::detail::void">
<polygon fill="#ffffff" stroke="#000000" points="160,-50 160,-69 272,-69 272,-50 160,-50"/>
<text text-anchor="middle" x="216" y="-57" font-family="Helvetica,sans-Serif" font-size="10.00" fill="#000000">nlohmann::detail::void</text>
</a>
</g>
</g>
<!-- Node15&#45;&gt;Node16 -->
<g id="edge1" class="edge">
<title>Node15&#45;&gt;Node16</title>
<path fill="none" stroke="#191970" d="M121.0656,-46.0688C130.4594,-47.3978 140.2055,-48.7767 149.7175,-50.1224"/>
<polygon fill="#191970" stroke="#191970" points="149.5276,-53.6303 159.9193,-51.5658 150.5082,-46.6993 149.5276,-53.6303"/>
</g>
<!-- Node20 -->
<g id="node6" class="node">
<title>Node20</title>
<g id="a_node6"><a xlink:href="classnlohmann_1_1detail_1_1parse__error.html#a137ea4d27de45d8a844fd13451d40f3d" target="_top" xlink:title="create a parse error exception ">
<polygon fill="#ffffff" stroke="#000000" points="157,-.5 157,-30.5 275,-30.5 275,-.5 157,-.5"/>
<text text-anchor="start" x="165" y="-18.5" font-family="Helvetica,sans-Serif" font-size="10.00" fill="#000000">nlohmann::detail::parse</text>
<text text-anchor="middle" x="216" y="-7.5" font-family="Helvetica,sans-Serif" font-size="10.00" fill="#000000">_error::create</text>
</a>
</g>
</g>
<!-- Node15&#45;&gt;Node20 -->
<g id="edge5" class="edge">
<title>Node15&#45;&gt;Node20</title>
<path fill="none" stroke="#191970" d="M121.0656,-28.9312C129.524,-27.7345 138.2681,-26.4974 146.8696,-25.2805"/>
<polygon fill="#191970" stroke="#191970" points="147.4649,-28.7312 156.876,-23.8648 146.4843,-21.8002 147.4649,-28.7312"/>
</g>
<!-- Node17 -->
<g id="node3" class="node">
<title>Node17</title>
<g id="a_node3"><a xlink:href="classnlohmann_1_1detail_1_1type__error.html#aecc083aea4b698c33d042670ba50c10f" target="_top" xlink:title="nlohmann::detail::type\l_error::create">
<polygon fill="#ffffff" stroke="#000000" points="311,-93.5 311,-123.5 424,-123.5 424,-93.5 311,-93.5"/>
<text text-anchor="start" x="319" y="-111.5" font-family="Helvetica,sans-Serif" font-size="10.00" fill="#000000">nlohmann::detail::type</text>
<text text-anchor="middle" x="367.5" y="-100.5" font-family="Helvetica,sans-Serif" font-size="10.00" fill="#000000">_error::create</text>
</a>
</g>
</g>
<!-- Node16&#45;&gt;Node17 -->
<g id="edge2" class="edge">
<title>Node16&#45;&gt;Node17</title>
<path fill="none" stroke="#191970" d="M245.5704,-69.064C264.2482,-75.105 288.9834,-83.1052 311.2915,-90.3204"/>
<polygon fill="#191970" stroke="#191970" points="310.4163,-93.7158 321.0082,-93.463 312.5705,-87.0554 310.4163,-93.7158"/>
</g>
<!-- Node19 -->
<g id="node5" class="node">
<title>Node19</title>
<g id="a_node5"><a xlink:href="namespacenlohmann_1_1detail.html#a40f7bb070a60e8ba14fffb9c117fcbd8" target="_top" xlink:title="nlohmann::detail::from\l_json_array_impl">
<polygon fill="#ffffff" stroke="#000000" points="311,-44.5 311,-74.5 424,-74.5 424,-44.5 311,-44.5"/>
<text text-anchor="start" x="319" y="-62.5" font-family="Helvetica,sans-Serif" font-size="10.00" fill="#000000">nlohmann::detail::from</text>
<text text-anchor="middle" x="367.5" y="-51.5" font-family="Helvetica,sans-Serif" font-size="10.00" fill="#000000">_json_array_impl</text>
</a>
</g>
</g>
<!-- Node16&#45;&gt;Node19 -->
<g id="edge4" class="edge">
<title>Node16&#45;&gt;Node19</title>
<path fill="none" stroke="#191970" d="M272.413,-59.5C281.6185,-59.5 291.2322,-59.5 300.6593,-59.5"/>
<polygon fill="#191970" stroke="#191970" points="300.7874,-63.0001 310.7874,-59.5 300.7873,-56.0001 300.7874,-63.0001"/>
</g>
<!-- Node18 -->
<g id="node4" class="node">
<title>Node18</title>
<g id="a_node4"><a xlink:href="classnlohmann_1_1detail_1_1exception.html#abf41a7e9178356314082284e6cfea278" target="_top" xlink:title="nlohmann::detail::exception\l::name">
<polygon fill="#ffffff" stroke="#000000" points="460,-46.5 460,-76.5 596,-76.5 596,-46.5 460,-46.5"/>
<text text-anchor="start" x="468" y="-64.5" font-family="Helvetica,sans-Serif" font-size="10.00" fill="#000000">nlohmann::detail::exception</text>
<text text-anchor="middle" x="528" y="-53.5" font-family="Helvetica,sans-Serif" font-size="10.00" fill="#000000">::name</text>
</a>
</g>
</g>
<!-- Node17&#45;&gt;Node18 -->
<g id="edge3" class="edge">
<title>Node17&#45;&gt;Node18</title>
<path fill="none" stroke="#191970" d="M418.7245,-93.4997C434.071,-89.0057 451.0543,-84.0324 466.9666,-79.3727"/>
<polygon fill="#191970" stroke="#191970" points="468.0983,-82.6884 476.7117,-76.519 466.131,-75.9705 468.0983,-82.6884"/>
</g>
<!-- Node20&#45;&gt;Node18 -->
<g id="edge6" class="edge">
<title>Node20&#45;&gt;Node18</title>
<path fill="none" stroke="#191970" d="M275.0611,-18.3272C316.8802,-20.9533 374.1664,-25.8148 424,-34.5 437.9745,-36.9355 452.8233,-40.3065 466.794,-43.8422"/>
<polygon fill="#191970" stroke="#191970" points="466.2281,-47.3112 476.7866,-46.4349 467.9861,-40.5356 466.2281,-47.3112"/>
</g>
</g>
</svg>
