<?xml version="1.0" encoding="UTF-8" standalone="no"?>
<!DOCTYPE svg PUBLIC "-//W3C//DTD SVG 1.1//EN"
 "http://www.w3.org/Graphics/SVG/1.1/DTD/svg11.dtd">
<!-- Generated by graphviz version 2.40.1 (20161225.0304)
 -->
<!-- Title: nlohmann::detail::file_input_adapter Pages: 1 -->
<svg width="206pt" height="270pt"
 viewBox="0.00 0.00 206.00 270.00" xmlns="http://www.w3.org/2000/svg" xmlns:xlink="http://www.w3.org/1999/xlink">
<g id="graph0" class="graph" transform="scale(1 1) rotate(0) translate(4 266)">
<title>nlohmann::detail::file_input_adapter</title>
<polygon fill="#ffffff" stroke="transparent" points="-4,4 -4,-266 202,-266 202,4 -4,4"/>
<!-- Node2 -->
<g id="node1" class="node">
<title>Node2</title>
<polygon fill="#bfbfbf" stroke="#000000" points="65,-.5 65,-134.5 179,-134.5 179,-.5 65,-.5"/>
<text text-anchor="start" x="73" y="-122.5" font-family="Helvetica,sans-Serif" font-size="10.00" fill="#000000">nlohmann::detail::file</text>
<text text-anchor="middle" x="122" y="-111.5" font-family="Helvetica,sans-Serif" font-size="10.00" fill="#000000">_input_adapter</text>
<polyline fill="none" stroke="#000000" points="65,-104.5 179,-104.5 "/>
<text text-anchor="middle" x="122" y="-92.5" font-family="Helvetica,sans-Serif" font-size="10.00" fill="#000000"> </text>
<polyline fill="none" stroke="#000000" points="65,-85.5 179,-85.5 "/>
<text text-anchor="start" x="73" y="-73.5" font-family="Helvetica,sans-Serif" font-size="10.00" fill="#000000">+ file_input_adapter()</text>
<text text-anchor="start" x="73" y="-62.5" font-family="Helvetica,sans-Serif" font-size="10.00" fill="#000000">+ file_input_adapter()</text>
<text text-anchor="start" x="73" y="-51.5" font-family="Helvetica,sans-Serif" font-size="10.00" fill="#000000">+ file_input_adapter()</text>
<text text-anchor="start" x="73" y="-40.5" font-family="Helvetica,sans-Serif" font-size="10.00" fill="#000000">+ operator=()</text>
<text text-anchor="start" x="73" y="-29.5" font-family="Helvetica,sans-Serif" font-size="10.00" fill="#000000">+ operator=()</text>
<text text-anchor="start" x="73" y="-18.5" font-family="Helvetica,sans-Serif" font-size="10.00" fill="#000000">+ ~file_input_adapter()</text>
<text text-anchor="start" x="73" y="-7.5" font-family="Helvetica,sans-Serif" font-size="10.00" fill="#000000">+ get_character()</text>
</g>
<!-- Node3 -->
<g id="node2" class="node">
<title>Node3</title>
<g id="a_node2"><a xlink:href="structnlohmann_1_1detail_1_1input__adapter__protocol.html" target="_top" xlink:title="abstract input adapter interface ">
<polygon fill="#ffffff" stroke="#000000" points="0,-182.5 0,-261.5 136,-261.5 136,-182.5 0,-182.5"/>
<text text-anchor="start" x="8" y="-249.5" font-family="Helvetica,sans-Serif" font-size="10.00" fill="#000000">nlohmann::detail::input</text>
<text text-anchor="middle" x="68" y="-238.5" font-family="Helvetica,sans-Serif" font-size="10.00" fill="#000000">_adapter_protocol</text>
<polyline fill="none" stroke="#000000" points="0,-231.5 136,-231.5 "/>
<text text-anchor="middle" x="68" y="-219.5" font-family="Helvetica,sans-Serif" font-size="10.00" fill="#000000"> </text>
<polyline fill="none" stroke="#000000" points="0,-212.5 136,-212.5 "/>
<text text-anchor="start" x="8" y="-200.5" font-family="Helvetica,sans-Serif" font-size="10.00" fill="#000000">+ get_character()</text>
<text text-anchor="start" x="8" y="-189.5" font-family="Helvetica,sans-Serif" font-size="10.00" fill="#000000">+ ~input_adapter_protocol()</text>
</a>
</g>
</g>
<!-- Node3&#45;&gt;Node2 -->
<g id="edge1" class="edge">
<title>Node3&#45;&gt;Node2</title>
<path fill="none" stroke="#191970" d="M85.2085,-172.7645C89.437,-160.6662 94.0362,-147.5076 98.505,-134.7217"/>
<polygon fill="none" stroke="#191970" points="81.9018,-171.6176 81.9063,-182.2124 88.5098,-173.9272 81.9018,-171.6176"/>
</g>
<!-- Node4 -->
<g id="node3" class="node">
<title>Node4</title>
<polygon fill="#ffffff" stroke="#bfbfbf" points="154,-193.5 154,-250.5 198,-250.5 198,-193.5 154,-193.5"/>
<text text-anchor="middle" x="176" y="-238.5" font-family="Helvetica,sans-Serif" font-size="10.00" fill="#000000">FILE *</text>
<polyline fill="none" stroke="#bfbfbf" points="154,-231.5 198,-231.5 "/>
<text text-anchor="middle" x="176" y="-219.5" font-family="Helvetica,sans-Serif" font-size="10.00" fill="#000000"> </text>
<polyline fill="none" stroke="#bfbfbf" points="154,-212.5 198,-212.5 "/>
<text text-anchor="middle" x="176" y="-200.5" font-family="Helvetica,sans-Serif" font-size="10.00" fill="#000000"> </text>
</g>
<!-- Node4&#45;&gt;Node2 -->
<g id="edge2" class="edge">
<title>Node4&#45;&gt;Node2</title>
<path fill="none" stroke="#404040" d="M165.9696,-193.3018C161.261,-179.8301 155.3945,-163.0455 149.4965,-146.1705"/>
<polygon fill="none" stroke="#404040" points="149.3814,-145.841 143.6257,-141.4968 145.422,-134.513 151.1777,-138.8572 149.3814,-145.841"/>
<text text-anchor="middle" x="171.5" y="-156" font-family="Helvetica,sans-Serif" font-size="10.00" fill="#000000"> &#45;m_file</text>
</g>
</g>
</svg>
