<?xml version="1.0" encoding="UTF-8" standalone="no"?>
<!DOCTYPE svg PUBLIC "-//W3C//DTD SVG 1.1//EN"
 "http://www.w3.org/Graphics/SVG/1.1/DTD/svg11.dtd">
<!-- Generated by graphviz version 2.40.1 (20161225.0304)
 -->
<!-- Title: River::Border::SourceByVerticeIdMap Pages: 1 -->
<svg width="583pt" height="39pt"
 viewBox="0.00 0.00 583.00 39.00" xmlns="http://www.w3.org/2000/svg" xmlns:xlink="http://www.w3.org/1999/xlink">
<g id="graph0" class="graph" transform="scale(1 1) rotate(0) translate(4 35)">
<title>River::Border::SourceByVerticeIdMap</title>
<polygon fill="#ffffff" stroke="transparent" points="-4,4 -4,-35 579,-35 579,4 -4,4"/>
<!-- Node27 -->
<g id="node1" class="node">
<title>Node27</title>
<polygon fill="#bfbfbf" stroke="#000000" points="0,-.5 0,-30.5 154,-30.5 154,-.5 0,-.5"/>
<text text-anchor="start" x="8" y="-18.5" font-family="Helvetica,sans-Serif" font-size="10.00" fill="#000000">River::Border::SourceByVertice</text>
<text text-anchor="middle" x="77" y="-7.5" font-family="Helvetica,sans-Serif" font-size="10.00" fill="#000000">IdMap</text>
</g>
<!-- Node28 -->
<g id="node2" class="node">
<title>Node28</title>
<g id="a_node2"><a xlink:href="namespaceRiver.html#a43d55da8d0508b984518c4ebed6e0ad7" target="_top" xlink:title="Finnal Boudary Geneartor Class. ">
<polygon fill="#ffffff" stroke="#000000" points="190,-6 190,-25 320,-25 320,-6 190,-6"/>
<text text-anchor="middle" x="255" y="-13" font-family="Helvetica,sans-Serif" font-size="10.00" fill="#000000">River::BoundaryGenerator</text>
</a>
</g>
</g>
<!-- Node27&#45;&gt;Node28 -->
<g id="edge1" class="edge">
<title>Node27&#45;&gt;Node28</title>
<path fill="none" stroke="#191970" d="M164.1561,-15.5C172.8009,-15.5 181.4688,-15.5 189.8336,-15.5"/>
<polygon fill="#191970" stroke="#191970" points="164.0382,-12.0001 154.0381,-15.5 164.0381,-19.0001 164.0382,-12.0001"/>
</g>
<!-- Node29 -->
<g id="node3" class="node">
<title>Node29</title>
<g id="a_node3"><a xlink:href="namespaceRiver.html#af1a3f7c61809dd8032e4ff5920da83cc" target="_top" xlink:title="One step of forward river evolution. ">
<polygon fill="#ffffff" stroke="#000000" points="356,-6 356,-25 501,-25 501,-6 356,-6"/>
<text text-anchor="middle" x="428.5" y="-13" font-family="Helvetica,sans-Serif" font-size="10.00" fill="#000000">River::ForwardRiverEvolution</text>
</a>
</g>
</g>
<!-- Node28&#45;&gt;Node29 -->
<g id="edge2" class="edge">
<title>Node28&#45;&gt;Node29</title>
<path fill="none" stroke="#191970" d="M330.3052,-15.5C338.7508,-15.5 347.3436,-15.5 355.7559,-15.5"/>
<polygon fill="#191970" stroke="#191970" points="330.0987,-12.0001 320.0986,-15.5 330.0986,-19.0001 330.0987,-12.0001"/>
</g>
<!-- Node30 -->
<g id="node4" class="node">
<title>Node30</title>
<g id="a_node4"><a xlink:href="main_8cpp.html#a0ddf1224851353fc92bfbff6f499fa97" target="_top" xlink:title="Entry point of RiverSim program. ">
<polygon fill="#ffffff" stroke="#000000" points="537,-6 537,-25 575,-25 575,-6 537,-6"/>
<text text-anchor="middle" x="556" y="-13" font-family="Helvetica,sans-Serif" font-size="10.00" fill="#000000">main</text>
</a>
</g>
</g>
<!-- Node29&#45;&gt;Node30 -->
<g id="edge3" class="edge">
<title>Node29&#45;&gt;Node30</title>
<path fill="none" stroke="#191970" d="M511.2526,-15.5C520.7338,-15.5 529.5978,-15.5 536.8947,-15.5"/>
<polygon fill="#191970" stroke="#191970" points="511.1886,-12.0001 501.1886,-15.5 511.1885,-19.0001 511.1886,-12.0001"/>
</g>
</g>
</svg>
