<?xml version="1.0" encoding="UTF-8" standalone="no"?>
<!DOCTYPE svg PUBLIC "-//W3C//DTD SVG 1.1//EN"
 "http://www.w3.org/Graphics/SVG/1.1/DTD/svg11.dtd">
<!-- Generated by graphviz version 2.40.1 (20161225.0304)
 -->
<!-- Title: River::Triangle::set_all_values_to_default Pages: 1 -->
<svg width="273pt" height="78pt"
 viewBox="0.00 0.00 273.00 77.50" xmlns="http://www.w3.org/2000/svg" xmlns:xlink="http://www.w3.org/1999/xlink">
<g id="graph0" class="graph" transform="scale(1 1) rotate(0) translate(4 73.5)">
<title>River::Triangle::set_all_values_to_default</title>
<polygon fill="#ffffff" stroke="transparent" points="-4,4 -4,-73.5 269,-73.5 269,4 -4,4"/>
<!-- Node8 -->
<g id="node1" class="node">
<title>Node8</title>
<polygon fill="#bfbfbf" stroke="#000000" points="0,-17 0,-47 113,-47 113,-17 0,-17"/>
<text text-anchor="start" x="8" y="-35" font-family="Helvetica,sans-Serif" font-size="10.00" fill="#000000">River::Triangle::set</text>
<text text-anchor="middle" x="56.5" y="-24" font-family="Helvetica,sans-Serif" font-size="10.00" fill="#000000">_all_values_to_default</text>
</g>
<!-- Node9 -->
<g id="node2" class="node">
<title>Node9</title>
<g id="a_node2"><a xlink:href="classRiver_1_1Triangle.html#a98666335bc441895b9c13ba84d8f7981" target="_top" xlink:title="Updates options bassing on interface flags. ">
<polygon fill="#ffffff" stroke="#000000" points="149,-39 149,-69 265,-69 265,-39 149,-39"/>
<text text-anchor="start" x="157" y="-57" font-family="Helvetica,sans-Serif" font-size="10.00" fill="#000000">River::Triangle::update</text>
<text text-anchor="middle" x="207" y="-46" font-family="Helvetica,sans-Serif" font-size="10.00" fill="#000000">_options</text>
</a>
</g>
</g>
<!-- Node8&#45;&gt;Node9 -->
<g id="edge1" class="edge">
<title>Node8&#45;&gt;Node9</title>
<path fill="none" stroke="#191970" d="M113.3976,-40.3173C121.7138,-41.5329 130.3485,-42.7951 138.8607,-44.0394"/>
<polygon fill="#191970" stroke="#191970" points="138.3696,-47.5048 148.7707,-45.4881 139.3821,-40.5784 138.3696,-47.5048"/>
</g>
<!-- Node10 -->
<g id="node3" class="node">
<title>Node10</title>
<g id="a_node3"><a xlink:href="triangle_8cpp.html#a2a3ed65e621942ea855e7b2b59a16b96" target="_top" xlink:title="Set the triangulateio structure to default values. ">
<polygon fill="#ffffff" stroke="#000000" points="158.5,-.5 158.5,-19.5 255.5,-19.5 255.5,-.5 158.5,-.5"/>
<text text-anchor="middle" x="207" y="-7.5" font-family="Helvetica,sans-Serif" font-size="10.00" fill="#000000">set_tria_to_default</text>
</a>
</g>
</g>
<!-- Node8&#45;&gt;Node10 -->
<g id="edge2" class="edge">
<title>Node8&#45;&gt;Node10</title>
<path fill="none" stroke="#191970" d="M113.3976,-23.6827C124.8574,-22.0076 136.922,-20.244 148.4376,-18.5606"/>
<polygon fill="#191970" stroke="#191970" points="148.9984,-22.0159 158.387,-17.1062 147.9859,-15.0895 148.9984,-22.0159"/>
</g>
</g>
</svg>
