<?xml version="1.0" encoding="UTF-8" standalone="no"?>
<!DOCTYPE svg PUBLIC "-//W3C//DTD SVG 1.1//EN"
 "http://www.w3.org/Graphics/SVG/1.1/DTD/svg11.dtd">
<!-- Generated by graphviz version 2.40.1 (20161225.0304)
 -->
<!-- Title: nlohmann::detail::parse_error Pages: 1 -->
<svg width="271pt" height="342pt"
 viewBox="0.00 0.00 270.50 342.00" xmlns="http://www.w3.org/2000/svg" xmlns:xlink="http://www.w3.org/1999/xlink">
<g id="graph0" class="graph" transform="scale(1 1) rotate(0) translate(4 338)">
<title>nlohmann::detail::parse_error</title>
<polygon fill="#ffffff" stroke="transparent" points="-4,4 -4,-338 266.5,-338 266.5,4 -4,4"/>
<!-- Node3 -->
<g id="node1" class="node">
<title>Node3</title>
<polygon fill="#bfbfbf" stroke="#000000" points="128,-.5 128,-101.5 246,-101.5 246,-.5 128,-.5"/>
<text text-anchor="start" x="136" y="-89.5" font-family="Helvetica,sans-Serif" font-size="10.00" fill="#000000">nlohmann::detail::parse</text>
<text text-anchor="middle" x="187" y="-78.5" font-family="Helvetica,sans-Serif" font-size="10.00" fill="#000000">_error</text>
<polyline fill="none" stroke="#000000" points="128,-71.5 246,-71.5 "/>
<text text-anchor="middle" x="187" y="-59.5" font-family="Helvetica,sans-Serif" font-size="10.00" fill="#000000"> </text>
<polyline fill="none" stroke="#000000" points="128,-52.5 246,-52.5 "/>
<text text-anchor="start" x="136" y="-40.5" font-family="Helvetica,sans-Serif" font-size="10.00" fill="#000000">+ create()</text>
<text text-anchor="start" x="136" y="-29.5" font-family="Helvetica,sans-Serif" font-size="10.00" fill="#000000">+ create()</text>
<text text-anchor="start" x="136" y="-18.5" font-family="Helvetica,sans-Serif" font-size="10.00" fill="#000000">&#45; parse_error()</text>
<text text-anchor="start" x="136" y="-7.5" font-family="Helvetica,sans-Serif" font-size="10.00" fill="#000000">&#45; position_string()</text>
</g>
<!-- Node4 -->
<g id="node2" class="node">
<title>Node4</title>
<g id="a_node2"><a xlink:href="classnlohmann_1_1detail_1_1exception.html" target="_top" xlink:title="general exception of the basic_json class ">
<polygon fill="#ffffff" stroke="#000000" points="65,-149.5 65,-228.5 201,-228.5 201,-149.5 65,-149.5"/>
<text text-anchor="middle" x="133" y="-216.5" font-family="Helvetica,sans-Serif" font-size="10.00" fill="#000000">nlohmann::detail::exception</text>
<polyline fill="none" stroke="#000000" points="65,-209.5 201,-209.5 "/>
<text text-anchor="middle" x="133" y="-197.5" font-family="Helvetica,sans-Serif" font-size="10.00" fill="#000000"> </text>
<polyline fill="none" stroke="#000000" points="65,-190.5 201,-190.5 "/>
<text text-anchor="start" x="73" y="-178.5" font-family="Helvetica,sans-Serif" font-size="10.00" fill="#000000">+ what()</text>
<text text-anchor="start" x="73" y="-167.5" font-family="Helvetica,sans-Serif" font-size="10.00" fill="#000000"># exception()</text>
<text text-anchor="start" x="73" y="-156.5" font-family="Helvetica,sans-Serif" font-size="10.00" fill="#000000"># name()</text>
</a>
</g>
</g>
<!-- Node4&#45;&gt;Node3 -->
<g id="edge1" class="edge">
<title>Node4&#45;&gt;Node3</title>
<path fill="none" stroke="#191970" d="M152.1229,-140.1303C157.0059,-127.6515 162.2656,-114.2101 167.1826,-101.6445"/>
<polygon fill="none" stroke="#191970" points="148.8589,-138.8669 148.4742,-149.4547 155.3776,-141.4177 148.8589,-138.8669"/>
</g>
<!-- Node5 -->
<g id="node3" class="node">
<title>Node5</title>
<polygon fill="#ffffff" stroke="#bfbfbf" points="0,-276.5 0,-333.5 78,-333.5 78,-276.5 0,-276.5"/>
<text text-anchor="middle" x="39" y="-321.5" font-family="Helvetica,sans-Serif" font-size="10.00" fill="#000000">std::exception</text>
<polyline fill="none" stroke="#bfbfbf" points="0,-314.5 78,-314.5 "/>
<text text-anchor="middle" x="39" y="-302.5" font-family="Helvetica,sans-Serif" font-size="10.00" fill="#000000"> </text>
<polyline fill="none" stroke="#bfbfbf" points="0,-295.5 78,-295.5 "/>
<text text-anchor="middle" x="39" y="-283.5" font-family="Helvetica,sans-Serif" font-size="10.00" fill="#000000"> </text>
</g>
<!-- Node5&#45;&gt;Node4 -->
<g id="edge2" class="edge">
<title>Node5&#45;&gt;Node4</title>
<path fill="none" stroke="#191970" d="M68.7385,-268.3014C78.9476,-255.703 90.4186,-241.5473 100.8129,-228.7203"/>
<polygon fill="none" stroke="#191970" points="65.8126,-266.3529 62.236,-276.3258 71.2511,-270.76 65.8126,-266.3529"/>
</g>
<!-- Node6 -->
<g id="node4" class="node">
<title>Node6</title>
<polygon fill="#ffffff" stroke="#bfbfbf" points="96,-276.5 96,-333.5 170,-333.5 170,-276.5 96,-276.5"/>
<text text-anchor="middle" x="133" y="-321.5" font-family="Helvetica,sans-Serif" font-size="10.00" fill="#000000">runtime_error</text>
<polyline fill="none" stroke="#bfbfbf" points="96,-314.5 170,-314.5 "/>
<text text-anchor="middle" x="133" y="-302.5" font-family="Helvetica,sans-Serif" font-size="10.00" fill="#000000"> </text>
<polyline fill="none" stroke="#bfbfbf" points="96,-295.5 170,-295.5 "/>
<text text-anchor="middle" x="133" y="-283.5" font-family="Helvetica,sans-Serif" font-size="10.00" fill="#000000"> </text>
</g>
<!-- Node6&#45;&gt;Node4 -->
<g id="edge3" class="edge">
<title>Node6&#45;&gt;Node4</title>
<path fill="none" stroke="#404040" d="M133,-276.3258C133,-265.5576 133,-252.9593 133,-240.7364"/>
<polygon fill="none" stroke="#404040" points="133.0001,-240.7203 129,-234.7203 133,-228.7203 137,-234.7203 133.0001,-240.7203"/>
<text text-anchor="middle" x="140.5" y="-250" font-family="Helvetica,sans-Serif" font-size="10.00" fill="#000000"> &#45;m</text>
</g>
<!-- Node7 -->
<g id="node5" class="node">
<title>Node7</title>
<polygon fill="#ffffff" stroke="#bfbfbf" points="188.5,-276.5 188.5,-333.5 217.5,-333.5 217.5,-276.5 188.5,-276.5"/>
<text text-anchor="middle" x="203" y="-321.5" font-family="Helvetica,sans-Serif" font-size="10.00" fill="#000000">int</text>
<polyline fill="none" stroke="#bfbfbf" points="188.5,-314.5 217.5,-314.5 "/>
<text text-anchor="middle" x="203" y="-302.5" font-family="Helvetica,sans-Serif" font-size="10.00" fill="#000000"> </text>
<polyline fill="none" stroke="#bfbfbf" points="188.5,-295.5 217.5,-295.5 "/>
<text text-anchor="middle" x="203" y="-283.5" font-family="Helvetica,sans-Serif" font-size="10.00" fill="#000000"> </text>
</g>
<!-- Node7&#45;&gt;Node4 -->
<g id="edge4" class="edge">
<title>Node7&#45;&gt;Node4</title>
<path fill="none" stroke="#404040" d="M188.496,-280.9647C181.1488,-268.7895 171.9412,-253.5311 163.1498,-238.9626"/>
<polygon fill="none" stroke="#404040" points="163.0545,-238.8046 156.5298,-235.7342 156.8545,-228.5303 163.3793,-231.6008 163.0545,-238.8046"/>
<text text-anchor="middle" x="183.5" y="-250" font-family="Helvetica,sans-Serif" font-size="10.00" fill="#000000"> +id</text>
</g>
<!-- Node8 -->
<g id="node6" class="node">
<title>Node8</title>
<polygon fill="#ffffff" stroke="#bfbfbf" points="219.5,-160.5 219.5,-217.5 262.5,-217.5 262.5,-160.5 219.5,-160.5"/>
<text text-anchor="middle" x="241" y="-205.5" font-family="Helvetica,sans-Serif" font-size="10.00" fill="#000000">size_t</text>
<polyline fill="none" stroke="#bfbfbf" points="219.5,-198.5 262.5,-198.5 "/>
<text text-anchor="middle" x="241" y="-186.5" font-family="Helvetica,sans-Serif" font-size="10.00" fill="#000000"> </text>
<polyline fill="none" stroke="#bfbfbf" points="219.5,-179.5 262.5,-179.5 "/>
<text text-anchor="middle" x="241" y="-167.5" font-family="Helvetica,sans-Serif" font-size="10.00" fill="#000000"> </text>
</g>
<!-- Node8&#45;&gt;Node3 -->
<g id="edge5" class="edge">
<title>Node8&#45;&gt;Node3</title>
<path fill="none" stroke="#404040" d="M229.8112,-160.4063C224.4146,-146.6152 217.717,-129.499 211.2343,-112.932"/>
<polygon fill="none" stroke="#404040" points="211.172,-112.7728 205.2606,-108.643 206.7992,-101.5979 212.7106,-105.7278 211.172,-112.7728"/>
<text text-anchor="middle" x="231" y="-123" font-family="Helvetica,sans-Serif" font-size="10.00" fill="#000000"> +byte</text>
</g>
</g>
</svg>
