<?xml version="1.0" encoding="UTF-8" standalone="no"?>
<!DOCTYPE svg PUBLIC "-//W3C//DTD SVG 1.1//EN"
 "http://www.w3.org/Graphics/SVG/1.1/DTD/svg11.dtd">
<!-- Generated by graphviz version 2.40.1 (20161225.0304)
 -->
<!-- Title: Function Pages: 1 -->
<svg width="304pt" height="182pt"
 viewBox="0.00 0.00 303.50 182.00" xmlns="http://www.w3.org/2000/svg" xmlns:xlink="http://www.w3.org/1999/xlink">
<g id="graph0" class="graph" transform="scale(1 1) rotate(0) translate(4 178)">
<title>Function</title>
<polygon fill="#ffffff" stroke="transparent" points="-4,4 -4,-178 299.5,-178 299.5,4 -4,4"/>
<!-- Node0 -->
<g id="node1" class="node">
<title>Node0</title>
<polygon fill="#bfbfbf" stroke="#000000" points="126.5,-116.5 126.5,-173.5 180.5,-173.5 180.5,-116.5 126.5,-116.5"/>
<text text-anchor="middle" x="153.5" y="-161.5" font-family="Helvetica,sans-Serif" font-size="10.00" fill="#000000">Function</text>
<polyline fill="none" stroke="#000000" points="126.5,-154.5 180.5,-154.5 "/>
<text text-anchor="middle" x="153.5" y="-142.5" font-family="Helvetica,sans-Serif" font-size="10.00" fill="#000000"> </text>
<polyline fill="none" stroke="#000000" points="126.5,-135.5 180.5,-135.5 "/>
<text text-anchor="middle" x="153.5" y="-123.5" font-family="Helvetica,sans-Serif" font-size="10.00" fill="#000000"> </text>
</g>
<!-- Node1 -->
<g id="node2" class="node">
<title>Node1</title>
<g id="a_node2"><a xlink:href="classRiver_1_1Solver_1_1BoundaryValues.html" target="_top" xlink:title="{River::Solver::BoundaryValues\l\&lt; dim \&gt;\n||+ BoundaryValues()\l+ value()\l}">
<polygon fill="#ffffff" stroke="#000000" points="0,-.5 0,-79.5 151,-79.5 151,-.5 0,-.5"/>
<text text-anchor="start" x="8" y="-67.5" font-family="Helvetica,sans-Serif" font-size="10.00" fill="#000000">River::Solver::BoundaryValues</text>
<text text-anchor="middle" x="75.5" y="-56.5" font-family="Helvetica,sans-Serif" font-size="10.00" fill="#000000">&lt; dim &gt;</text>
<polyline fill="none" stroke="#000000" points="0,-49.5 151,-49.5 "/>
<text text-anchor="middle" x="75.5" y="-37.5" font-family="Helvetica,sans-Serif" font-size="10.00" fill="#000000"> </text>
<polyline fill="none" stroke="#000000" points="0,-30.5 151,-30.5 "/>
<text text-anchor="start" x="8" y="-18.5" font-family="Helvetica,sans-Serif" font-size="10.00" fill="#000000">+ BoundaryValues()</text>
<text text-anchor="start" x="8" y="-7.5" font-family="Helvetica,sans-Serif" font-size="10.00" fill="#000000">+ value()</text>
</a>
</g>
</g>
<!-- Node0&#45;&gt;Node1 -->
<g id="edge1" class="edge">
<title>Node0&#45;&gt;Node1</title>
<path fill="none" stroke="#191970" d="M126.086,-108.0966C119.2543,-98.9001 111.901,-89.0013 104.9746,-79.6773"/>
<polygon fill="none" stroke="#191970" points="123.4133,-110.368 132.1862,-116.3083 129.0325,-106.1937 123.4133,-110.368"/>
</g>
<!-- Node2 -->
<g id="node3" class="node">
<title>Node2</title>
<g id="a_node3"><a xlink:href="classRiver_1_1Solver_1_1RightHandSide.html" target="_top" xlink:title="{River::Solver::RightHand\lSide\&lt; dim \&gt;\n|+ fieldValue\l|+ RightHandSide()\l+ value()\l}">
<polygon fill="#ffffff" stroke="#000000" points="169.5,-.5 169.5,-79.5 295.5,-79.5 295.5,-.5 169.5,-.5"/>
<text text-anchor="start" x="177.5" y="-67.5" font-family="Helvetica,sans-Serif" font-size="10.00" fill="#000000">River::Solver::RightHand</text>
<text text-anchor="middle" x="232.5" y="-56.5" font-family="Helvetica,sans-Serif" font-size="10.00" fill="#000000">Side&lt; dim &gt;</text>
<polyline fill="none" stroke="#000000" points="169.5,-49.5 295.5,-49.5 "/>
<text text-anchor="start" x="177.5" y="-37.5" font-family="Helvetica,sans-Serif" font-size="10.00" fill="#000000">+ fieldValue</text>
<polyline fill="none" stroke="#000000" points="169.5,-30.5 295.5,-30.5 "/>
<text text-anchor="start" x="177.5" y="-18.5" font-family="Helvetica,sans-Serif" font-size="10.00" fill="#000000">+ RightHandSide()</text>
<text text-anchor="start" x="177.5" y="-7.5" font-family="Helvetica,sans-Serif" font-size="10.00" fill="#000000">+ value()</text>
</a>
</g>
</g>
<!-- Node0&#45;&gt;Node2 -->
<g id="edge2" class="edge">
<title>Node0&#45;&gt;Node2</title>
<path fill="none" stroke="#191970" d="M181.2654,-108.0966C188.1847,-98.9001 195.6324,-89.0013 202.6476,-79.6773"/>
<polygon fill="none" stroke="#191970" points="178.3025,-106.2131 175.0871,-116.3083 183.8961,-110.4217 178.3025,-106.2131"/>
</g>
</g>
</svg>
