<?xml version="1.0" encoding="UTF-8" standalone="no"?>
<!DOCTYPE svg PUBLIC "-//W3C//DTD SVG 1.1//EN"
 "http://www.w3.org/Graphics/SVG/1.1/DTD/svg11.dtd">
<!-- Generated by graphviz version 2.40.1 (20161225.0304)
 -->
<!-- Title: River::SolverParams Pages: 1 -->
<svg width="254pt" height="204pt"
 viewBox="0.00 0.00 254.00 204.00" xmlns="http://www.w3.org/2000/svg" xmlns:xlink="http://www.w3.org/1999/xlink">
<g id="graph0" class="graph" transform="scale(1 1) rotate(0) translate(4 200)">
<title>River::SolverParams</title>
<polygon fill="#ffffff" stroke="transparent" points="-4,4 -4,-200 250,-200 250,4 -4,4"/>
<!-- Node1 -->
<g id="node1" class="node">
<title>Node1</title>
<polygon fill="#bfbfbf" stroke="#000000" points="29.5,-.5 29.5,-57.5 144.5,-57.5 144.5,-.5 29.5,-.5"/>
<text text-anchor="middle" x="87" y="-45.5" font-family="Helvetica,sans-Serif" font-size="10.00" fill="#000000">River::SolverParams</text>
<polyline fill="none" stroke="#000000" points="29.5,-38.5 144.5,-38.5 "/>
<text text-anchor="middle" x="87" y="-26.5" font-family="Helvetica,sans-Serif" font-size="10.00" fill="#000000"> </text>
<polyline fill="none" stroke="#000000" points="29.5,-19.5 144.5,-19.5 "/>
<text text-anchor="middle" x="87" y="-7.5" font-family="Helvetica,sans-Serif" font-size="10.00" fill="#000000"> </text>
</g>
<!-- Node2 -->
<g id="node2" class="node">
<title>Node2</title>
<polygon fill="#ffffff" stroke="#bfbfbf" points="0,-138.5 0,-195.5 50,-195.5 50,-138.5 0,-138.5"/>
<text text-anchor="middle" x="25" y="-183.5" font-family="Helvetica,sans-Serif" font-size="10.00" fill="#000000">double</text>
<polyline fill="none" stroke="#bfbfbf" points="0,-176.5 50,-176.5 "/>
<text text-anchor="middle" x="25" y="-164.5" font-family="Helvetica,sans-Serif" font-size="10.00" fill="#000000"> </text>
<polyline fill="none" stroke="#bfbfbf" points="0,-157.5 50,-157.5 "/>
<text text-anchor="middle" x="25" y="-145.5" font-family="Helvetica,sans-Serif" font-size="10.00" fill="#000000"> </text>
</g>
<!-- Node2&#45;&gt;Node1 -->
<g id="edge1" class="edge">
<title>Node2&#45;&gt;Node1</title>
<path fill="none" stroke="#404040" d="M19.1315,-138.4351C16.7269,-119.7093 16.4097,-95.2285 26,-76 27.5943,-72.8034 29.5203,-69.7622 31.6913,-66.8786"/>
<polygon fill="none" stroke="#404040" points="31.9035,-66.6407 32.9123,-59.5005 39.8913,-57.6854 38.8825,-64.8256 31.9035,-66.6407"/>
<text text-anchor="middle" x="77" y="-101" font-family="Helvetica,sans-Serif" font-size="10.00" fill="#000000"> +refinment_fraction</text>
<text text-anchor="middle" x="77" y="-90" font-family="Helvetica,sans-Serif" font-size="10.00" fill="#000000">+tollerance</text>
</g>
<!-- Node3 -->
<g id="node3" class="node">
<title>Node3</title>
<polygon fill="#ffffff" stroke="#bfbfbf" points="119.5,-138.5 119.5,-195.5 180.5,-195.5 180.5,-138.5 119.5,-138.5"/>
<text text-anchor="middle" x="150" y="-183.5" font-family="Helvetica,sans-Serif" font-size="10.00" fill="#000000">unsigned</text>
<polyline fill="none" stroke="#bfbfbf" points="119.5,-176.5 180.5,-176.5 "/>
<text text-anchor="middle" x="150" y="-164.5" font-family="Helvetica,sans-Serif" font-size="10.00" fill="#000000"> </text>
<polyline fill="none" stroke="#bfbfbf" points="119.5,-157.5 180.5,-157.5 "/>
<text text-anchor="middle" x="150" y="-145.5" font-family="Helvetica,sans-Serif" font-size="10.00" fill="#000000"> </text>
</g>
<!-- Node3&#45;&gt;Node1 -->
<g id="edge2" class="edge">
<title>Node3&#45;&gt;Node1</title>
<path fill="none" stroke="#404040" d="M146.6567,-138.2915C143.6461,-119.731 138.0793,-95.4906 128,-76 126.5125,-73.1236 124.813,-70.2778 122.9713,-67.4947"/>
<polygon fill="none" stroke="#404040" points="122.9138,-67.4164 116.1367,-64.9522 115.8048,-57.7487 122.5818,-60.2129 122.9138,-67.4164"/>
<text text-anchor="middle" x="194" y="-112" font-family="Helvetica,sans-Serif" font-size="10.00" fill="#000000"> +num_of_iterrations</text>
<text text-anchor="start" x="142" y="-101" font-family="Helvetica,sans-Serif" font-size="10.00" fill="#000000">+adaptive_refinment</text>
<text text-anchor="middle" x="194" y="-90" font-family="Helvetica,sans-Serif" font-size="10.00" fill="#000000">_steps</text>
<text text-anchor="middle" x="194" y="-79" font-family="Helvetica,sans-Serif" font-size="10.00" fill="#000000">+quadrature_degree</text>
</g>
</g>
</svg>
