<?xml version="1.0" encoding="UTF-8" standalone="no"?>
<!DOCTYPE svg PUBLIC "-//W3C//DTD SVG 1.1//EN"
 "http://www.w3.org/Graphics/SVG/1.1/DTD/svg11.dtd">
<!-- Generated by graphviz version 2.40.1 (20161225.0304)
 -->
<!-- Title: River::Solver::setup_system Pages: 1 -->
<svg width="496pt" height="53pt"
 viewBox="0.00 0.00 496.00 52.50" xmlns="http://www.w3.org/2000/svg" xmlns:xlink="http://www.w3.org/1999/xlink">
<g id="graph0" class="graph" transform="scale(1 1) rotate(0) translate(4 48.5)">
<title>River::Solver::setup_system</title>
<polygon fill="#ffffff" stroke="transparent" points="-4,4 -4,-48.5 492,-48.5 492,4 -4,4"/>
<!-- Node49 -->
<g id="node1" class="node">
<title>Node49</title>
<polygon fill="#bfbfbf" stroke="#000000" points="0,-14 0,-44 104,-44 104,-14 0,-14"/>
<text text-anchor="start" x="8" y="-32" font-family="Helvetica,sans-Serif" font-size="10.00" fill="#000000">River::Solver::setup</text>
<text text-anchor="middle" x="52" y="-21" font-family="Helvetica,sans-Serif" font-size="10.00" fill="#000000">_system</text>
</g>
<!-- Node50 -->
<g id="node2" class="node">
<title>Node50</title>
<g id="a_node2"><a xlink:href="classRiver_1_1Solver.html#a4222fe744d607f870a5d7d22b11e8334" target="_top" xlink:title="River::Solver::run">
<polygon fill="#ffffff" stroke="#000000" points="140,-19.5 140,-38.5 233,-38.5 233,-19.5 140,-19.5"/>
<text text-anchor="middle" x="186.5" y="-26.5" font-family="Helvetica,sans-Serif" font-size="10.00" fill="#000000">River::Solver::run</text>
</a>
</g>
</g>
<!-- Node49&#45;&gt;Node50 -->
<g id="edge1" class="edge">
<title>Node49&#45;&gt;Node50</title>
<path fill="none" stroke="#191970" d="M114.1034,-29C122.7838,-29 131.5792,-29 139.9066,-29"/>
<polygon fill="#191970" stroke="#191970" points="114.0012,-25.5001 104.0012,-29 114.0012,-32.5001 114.0012,-25.5001"/>
</g>
<!-- Node51 -->
<g id="node3" class="node">
<title>Node51</title>
<g id="a_node3"><a xlink:href="main_8cpp.html#a0ddf1224851353fc92bfbff6f499fa97" target="_top" xlink:title="Entry point of RiverSim program. ">
<polygon fill="#ffffff" stroke="#000000" points="450,-19.5 450,-38.5 488,-38.5 488,-19.5 450,-19.5"/>
<text text-anchor="middle" x="469" y="-26.5" font-family="Helvetica,sans-Serif" font-size="10.00" fill="#000000">main</text>
</a>
</g>
</g>
<!-- Node50&#45;&gt;Node51 -->
<g id="edge2" class="edge">
<title>Node50&#45;&gt;Node51</title>
<path fill="none" stroke="#191970" d="M243.4871,-29C307.512,-29 407.9413,-29 449.7424,-29"/>
<polygon fill="#191970" stroke="#191970" points="243.1492,-25.5001 233.1491,-29 243.1491,-32.5001 243.1492,-25.5001"/>
</g>
<!-- Node52 -->
<g id="node4" class="node">
<title>Node52</title>
<g id="a_node4"><a xlink:href="namespaceRiver.html#a494b68e2992de95500d6d81770de62ed" target="_top" xlink:title="River::ForwardRiverEvolution">
<polygon fill="#ffffff" stroke="#000000" points="269,-.5 269,-19.5 414,-19.5 414,-.5 269,-.5"/>
<text text-anchor="middle" x="341.5" y="-7.5" font-family="Helvetica,sans-Serif" font-size="10.00" fill="#000000">River::ForwardRiverEvolution</text>
</a>
</g>
</g>
<!-- Node50&#45;&gt;Node52 -->
<g id="edge3" class="edge">
<title>Node50&#45;&gt;Node52</title>
<path fill="none" stroke="#191970" d="M243.0614,-22.0667C251.4747,-21.0354 260.2438,-19.9604 268.9301,-18.8957"/>
<polygon fill="#191970" stroke="#191970" points="242.5049,-18.6086 233.0051,-23.2994 243.3567,-25.5566 242.5049,-18.6086"/>
</g>
<!-- Node52&#45;&gt;Node51 -->
<g id="edge4" class="edge">
<title>Node52&#45;&gt;Node51</title>
<path fill="none" stroke="#191970" d="M415.7834,-21.0697C428.3501,-22.9424 440.3551,-24.7313 449.7718,-26.1346"/>
<polygon fill="#191970" stroke="#191970" points="416.0302,-17.5679 405.6235,-19.5557 414.9984,-24.4914 416.0302,-17.5679"/>
</g>
</g>
</svg>
