<?xml version="1.0" encoding="UTF-8" standalone="no"?>
<!DOCTYPE svg PUBLIC "-//W3C//DTD SVG 1.1//EN"
 "http://www.w3.org/Graphics/SVG/1.1/DTD/svg11.dtd">
<!-- Generated by graphviz version 2.40.1 (20161225.0304)
 -->
<!-- Title: nlohmann::detail::json_sax_dom_parser&lt; BasicJsonType &gt; Pages: 1 -->
<svg width="446pt" height="314pt"
 viewBox="0.00 0.00 446.00 314.00" xmlns="http://www.w3.org/2000/svg" xmlns:xlink="http://www.w3.org/1999/xlink">
<g id="graph0" class="graph" transform="scale(1 1) rotate(0) translate(4 310)">
<title>nlohmann::detail::json_sax_dom_parser&lt; BasicJsonType &gt;</title>
<polygon fill="#ffffff" stroke="transparent" points="-4,4 -4,-310 442,-310 442,4 -4,4"/>
<!-- Node1 -->
<g id="node1" class="node">
<title>Node1</title>
<polygon fill="#bfbfbf" stroke="#000000" points="146.5,-.5 146.5,-189.5 325.5,-189.5 325.5,-.5 146.5,-.5"/>
<text text-anchor="start" x="154.5" y="-177.5" font-family="Helvetica,sans-Serif" font-size="10.00" fill="#000000">nlohmann::detail::json</text>
<text text-anchor="middle" x="236" y="-166.5" font-family="Helvetica,sans-Serif" font-size="10.00" fill="#000000">_sax_dom_parser&lt; BasicJsonType &gt;</text>
<polyline fill="none" stroke="#000000" points="146.5,-159.5 325.5,-159.5 "/>
<text text-anchor="middle" x="236" y="-147.5" font-family="Helvetica,sans-Serif" font-size="10.00" fill="#000000"> </text>
<polyline fill="none" stroke="#000000" points="146.5,-140.5 325.5,-140.5 "/>
<text text-anchor="start" x="154.5" y="-128.5" font-family="Helvetica,sans-Serif" font-size="10.00" fill="#000000">+ json_sax_dom_parser()</text>
<text text-anchor="start" x="154.5" y="-117.5" font-family="Helvetica,sans-Serif" font-size="10.00" fill="#000000">+ json_sax_dom_parser()</text>
<text text-anchor="start" x="154.5" y="-106.5" font-family="Helvetica,sans-Serif" font-size="10.00" fill="#000000">+ json_sax_dom_parser()</text>
<text text-anchor="start" x="154.5" y="-95.5" font-family="Helvetica,sans-Serif" font-size="10.00" fill="#000000">+ operator=()</text>
<text text-anchor="start" x="154.5" y="-84.5" font-family="Helvetica,sans-Serif" font-size="10.00" fill="#000000">+ operator=()</text>
<text text-anchor="start" x="154.5" y="-73.5" font-family="Helvetica,sans-Serif" font-size="10.00" fill="#000000">+ ~json_sax_dom_parser()</text>
<text text-anchor="start" x="154.5" y="-62.5" font-family="Helvetica,sans-Serif" font-size="10.00" fill="#000000">+ null()</text>
<text text-anchor="start" x="154.5" y="-51.5" font-family="Helvetica,sans-Serif" font-size="10.00" fill="#000000">+ boolean()</text>
<text text-anchor="start" x="154.5" y="-40.5" font-family="Helvetica,sans-Serif" font-size="10.00" fill="#000000">+ number_integer()</text>
<text text-anchor="start" x="154.5" y="-29.5" font-family="Helvetica,sans-Serif" font-size="10.00" fill="#000000">+ number_unsigned()</text>
<text text-anchor="start" x="154.5" y="-18.5" font-family="Helvetica,sans-Serif" font-size="10.00" fill="#000000">and 9 more...</text>
<text text-anchor="start" x="154.5" y="-7.5" font-family="Helvetica,sans-Serif" font-size="10.00" fill="#000000">&#45; handle_value()</text>
</g>
<!-- Node2 -->
<g id="node2" class="node">
<title>Node2</title>
<polygon fill="#ffffff" stroke="#bfbfbf" points="0,-248.5 0,-305.5 136,-305.5 136,-248.5 0,-248.5"/>
<text text-anchor="middle" x="68" y="-293.5" font-family="Helvetica,sans-Serif" font-size="10.00" fill="#000000">vector&lt; BasicJsonType * &gt;</text>
<polyline fill="none" stroke="#bfbfbf" points="0,-286.5 136,-286.5 "/>
<text text-anchor="middle" x="68" y="-274.5" font-family="Helvetica,sans-Serif" font-size="10.00" fill="#000000"> </text>
<polyline fill="none" stroke="#bfbfbf" points="0,-267.5 136,-267.5 "/>
<text text-anchor="middle" x="68" y="-255.5" font-family="Helvetica,sans-Serif" font-size="10.00" fill="#000000"> </text>
</g>
<!-- Node2&#45;&gt;Node1 -->
<g id="edge1" class="edge">
<title>Node2&#45;&gt;Node1</title>
<path fill="none" stroke="#404040" d="M94.6201,-248.1616C107.3419,-234.3796 123.4273,-216.9538 140.1521,-198.8353"/>
<polygon fill="none" stroke="#404040" points="140.2625,-198.7157 141.3929,-191.5937 148.4019,-189.898 147.2714,-197.02 140.2625,-198.7157"/>
<text text-anchor="middle" x="151.5" y="-216.5" font-family="Helvetica,sans-Serif" font-size="10.00" fill="#000000"> &#45;ref_stack</text>
</g>
<!-- Node3 -->
<g id="node3" class="node">
<title>Node3</title>
<polygon fill="#ffffff" stroke="#bfbfbf" points="154,-248.5 154,-305.5 248,-305.5 248,-248.5 154,-248.5"/>
<text text-anchor="middle" x="201" y="-293.5" font-family="Helvetica,sans-Serif" font-size="10.00" fill="#000000">BasicJsonType &amp;</text>
<polyline fill="none" stroke="#bfbfbf" points="154,-286.5 248,-286.5 "/>
<text text-anchor="middle" x="201" y="-274.5" font-family="Helvetica,sans-Serif" font-size="10.00" fill="#000000"> </text>
<polyline fill="none" stroke="#bfbfbf" points="154,-267.5 248,-267.5 "/>
<text text-anchor="middle" x="201" y="-255.5" font-family="Helvetica,sans-Serif" font-size="10.00" fill="#000000"> </text>
</g>
<!-- Node3&#45;&gt;Node1 -->
<g id="edge2" class="edge">
<title>Node3&#45;&gt;Node1</title>
<path fill="none" stroke="#404040" d="M206.5459,-248.1616C209.0517,-235.1313 212.1839,-218.8439 215.4628,-201.7934"/>
<polygon fill="none" stroke="#404040" points="215.4841,-201.6821 212.6892,-195.0346 217.7504,-189.898 220.5453,-196.5454 215.4841,-201.6821"/>
<text text-anchor="middle" x="224.5" y="-216.5" font-family="Helvetica,sans-Serif" font-size="10.00" fill="#000000"> &#45;root</text>
</g>
<!-- Node4 -->
<g id="node4" class="node">
<title>Node4</title>
<polygon fill="#ffffff" stroke="#bfbfbf" points="266.5,-248.5 266.5,-305.5 301.5,-305.5 301.5,-248.5 266.5,-248.5"/>
<text text-anchor="middle" x="284" y="-293.5" font-family="Helvetica,sans-Serif" font-size="10.00" fill="#000000">bool</text>
<polyline fill="none" stroke="#bfbfbf" points="266.5,-286.5 301.5,-286.5 "/>
<text text-anchor="middle" x="284" y="-274.5" font-family="Helvetica,sans-Serif" font-size="10.00" fill="#000000"> </text>
<polyline fill="none" stroke="#bfbfbf" points="266.5,-267.5 301.5,-267.5 "/>
<text text-anchor="middle" x="284" y="-255.5" font-family="Helvetica,sans-Serif" font-size="10.00" fill="#000000"> </text>
</g>
<!-- Node4&#45;&gt;Node1 -->
<g id="edge3" class="edge">
<title>Node4&#45;&gt;Node1</title>
<path fill="none" stroke="#404040" d="M276.3943,-248.1616C272.9577,-235.1313 268.6621,-218.8439 264.1653,-201.7934"/>
<polygon fill="none" stroke="#404040" points="264.0883,-201.5012 258.6904,-196.7197 261.028,-189.898 266.4259,-194.6795 264.0883,-201.5012"/>
<text text-anchor="middle" x="312" y="-222" font-family="Helvetica,sans-Serif" font-size="10.00" fill="#000000"> &#45;allow_exceptions</text>
<text text-anchor="middle" x="312" y="-211" font-family="Helvetica,sans-Serif" font-size="10.00" fill="#000000">&#45;errored</text>
</g>
<!-- Node5 -->
<g id="node5" class="node">
<title>Node5</title>
<polygon fill="#ffffff" stroke="#bfbfbf" points="331.5,-248.5 331.5,-305.5 422.5,-305.5 422.5,-248.5 331.5,-248.5"/>
<text text-anchor="middle" x="377" y="-293.5" font-family="Helvetica,sans-Serif" font-size="10.00" fill="#000000">BasicJsonType *</text>
<polyline fill="none" stroke="#bfbfbf" points="331.5,-286.5 422.5,-286.5 "/>
<text text-anchor="middle" x="377" y="-274.5" font-family="Helvetica,sans-Serif" font-size="10.00" fill="#000000"> </text>
<polyline fill="none" stroke="#bfbfbf" points="331.5,-267.5 422.5,-267.5 "/>
<text text-anchor="middle" x="377" y="-255.5" font-family="Helvetica,sans-Serif" font-size="10.00" fill="#000000"> </text>
</g>
<!-- Node5&#45;&gt;Node1 -->
<g id="edge4" class="edge">
<title>Node5&#45;&gt;Node1</title>
<path fill="none" stroke="#404040" d="M371.3194,-248.4117C367.8996,-235.4194 362.68,-220.2511 355,-208 348.8146,-198.1331 341.5707,-188.5363 333.7639,-179.3748"/>
<polygon fill="none" stroke="#404040" points="333.7418,-179.3498 326.7697,-177.5085 325.7879,-170.3645 332.7599,-172.2059 333.7418,-179.3498"/>
<text text-anchor="middle" x="401.5" y="-216.5" font-family="Helvetica,sans-Serif" font-size="10.00" fill="#000000"> &#45;object_element</text>
</g>
</g>
</svg>
