<?xml version="1.0" encoding="UTF-8" standalone="no"?>
<!DOCTYPE svg PUBLIC "-//W3C//DTD SVG 1.1//EN"
 "http://www.w3.org/Graphics/SVG/1.1/DTD/svg11.dtd">
<!-- Generated by graphviz version 2.40.1 (20161225.0304)
 -->
<!-- Title: tethex::MeshElement::get_material_id Pages: 1 -->
<svg width="533pt" height="192pt"
 viewBox="0.00 0.00 533.00 192.00" xmlns="http://www.w3.org/2000/svg" xmlns:xlink="http://www.w3.org/1999/xlink">
<g id="graph0" class="graph" transform="scale(1 1) rotate(0) translate(4 188)">
<title>tethex::MeshElement::get_material_id</title>
<polygon fill="#ffffff" stroke="transparent" points="-4,4 -4,-188 529,-188 529,4 -4,4"/>
<!-- Node17 -->
<g id="node1" class="node">
<title>Node17</title>
<polygon fill="#bfbfbf" stroke="#000000" points="0,-52 0,-82 110,-82 110,-52 0,-52"/>
<text text-anchor="start" x="8" y="-70" font-family="Helvetica,sans-Serif" font-size="10.00" fill="#000000">tethex::MeshElement</text>
<text text-anchor="middle" x="55" y="-59" font-family="Helvetica,sans-Serif" font-size="10.00" fill="#000000">::get_material_id</text>
</g>
<!-- Node18 -->
<g id="node2" class="node">
<title>Node18</title>
<g id="a_node2"><a xlink:href="classRiver_1_1Border.html#acf71aa49ddf1244f1aba474fe0457eba" target="_top" xlink:title="Return source poinst indexes(each source consist of two points at distance eps). ">
<polygon fill="#ffffff" stroke="#000000" points="146,-115 146,-145 273,-145 273,-115 146,-115"/>
<text text-anchor="start" x="154" y="-133" font-family="Helvetica,sans-Serif" font-size="10.00" fill="#000000">River::Border::GetSource</text>
<text text-anchor="middle" x="209.5" y="-122" font-family="Helvetica,sans-Serif" font-size="10.00" fill="#000000">VerticesIndexById</text>
</a>
</g>
</g>
<!-- Node17&#45;&gt;Node18 -->
<g id="edge1" class="edge">
<title>Node17&#45;&gt;Node18</title>
<path fill="none" stroke="#191970" d="M100.13,-86.0602C114.7399,-92.173 131.0332,-98.9296 146,-105 154.0148,-108.2508 162.6222,-111.6804 170.8323,-114.9226"/>
<polygon fill="#191970" stroke="#191970" points="101.3788,-82.7886 90.8032,-82.1499 98.6722,-89.2442 101.3788,-82.7886"/>
</g>
<!-- Node23 -->
<g id="node7" class="node">
<title>Node23</title>
<g id="a_node7"><a xlink:href="classRiver_1_1Solver.html#a3d51dbec8b2d1d790c5f4e0385b408d7" target="_top" xlink:title="River::Solver::SetMesh">
<polygon fill="#ffffff" stroke="#000000" points="150,-76.5 150,-95.5 269,-95.5 269,-76.5 150,-76.5"/>
<text text-anchor="middle" x="209.5" y="-83.5" font-family="Helvetica,sans-Serif" font-size="10.00" fill="#000000">River::Solver::SetMesh</text>
</a>
</g>
</g>
<!-- Node17&#45;&gt;Node23 -->
<g id="edge6" class="edge">
<title>Node17&#45;&gt;Node23</title>
<path fill="none" stroke="#191970" d="M120.4009,-75.0428C130.1696,-76.2442 140.1972,-77.4773 149.8388,-78.663"/>
<polygon fill="#191970" stroke="#191970" points="120.6941,-71.5526 110.3417,-73.8058 119.8397,-78.5003 120.6941,-71.5526"/>
</g>
<!-- Node24 -->
<g id="node8" class="node">
<title>Node24</title>
<g id="a_node8"><a xlink:href="classtethex_1_1Mesh.html#af7abffd9bc4bd64eb2f4cdd4aaf7fbe3" target="_top" xlink:title="tethex::Mesh::Mesh">
<polygon fill="#ffffff" stroke="#000000" points="157.5,-38.5 157.5,-57.5 261.5,-57.5 261.5,-38.5 157.5,-38.5"/>
<text text-anchor="middle" x="209.5" y="-45.5" font-family="Helvetica,sans-Serif" font-size="10.00" fill="#000000">tethex::Mesh::Mesh</text>
</a>
</g>
</g>
<!-- Node17&#45;&gt;Node24 -->
<g id="edge7" class="edge">
<title>Node17&#45;&gt;Node24</title>
<path fill="none" stroke="#191970" d="M120.551,-58.9387C132.852,-57.426 145.5582,-55.8634 157.3827,-54.4093"/>
<polygon fill="#191970" stroke="#191970" points="119.8397,-55.4997 110.3417,-60.1942 120.6941,-62.4474 119.8397,-55.4997"/>
</g>
<!-- Node25 -->
<g id="node9" class="node">
<title>Node25</title>
<g id="a_node9"><a xlink:href="classtethex_1_1Mesh.html#af992d5d2e64047656766e4afcbc95b8b" target="_top" xlink:title="tethex::Mesh::operator=">
<polygon fill="#ffffff" stroke="#000000" points="149,-.5 149,-19.5 270,-19.5 270,-.5 149,-.5"/>
<text text-anchor="middle" x="209.5" y="-7.5" font-family="Helvetica,sans-Serif" font-size="10.00" fill="#000000">tethex::Mesh::operator=</text>
</a>
</g>
</g>
<!-- Node17&#45;&gt;Node25 -->
<g id="edge8" class="edge">
<title>Node17&#45;&gt;Node25</title>
<path fill="none" stroke="#191970" d="M98.3235,-47.8192C113.2942,-41.4832 130.2616,-34.6231 146,-29 155.4276,-25.6316 165.7812,-22.3583 175.3427,-19.5045"/>
<polygon fill="#191970" stroke="#191970" points="96.6252,-44.7388 88.8069,-51.8889 99.3776,-51.175 96.6252,-44.7388"/>
</g>
<!-- Node19 -->
<g id="node3" class="node">
<title>Node19</title>
<g id="a_node3"><a xlink:href="classRiver_1_1Border.html#a08df0eb89a5692e84d6b3fe5fe5bec37" target="_top" xlink:title="Add border line to each source points. ">
<polygon fill="#ffffff" stroke="#000000" points="309,-164.5 309,-183.5 451,-183.5 451,-164.5 309,-164.5"/>
<text text-anchor="middle" x="380" y="-171.5" font-family="Helvetica,sans-Serif" font-size="10.00" fill="#000000">River::Border::CloseSources</text>
</a>
</g>
</g>
<!-- Node18&#45;&gt;Node19 -->
<g id="edge2" class="edge">
<title>Node18&#45;&gt;Node19</title>
<path fill="none" stroke="#191970" d="M277.5132,-147.5518C299.9116,-153.332 323.9666,-159.5398 343.1394,-164.4876"/>
<polygon fill="#191970" stroke="#191970" points="278.2569,-144.1291 267.6996,-145.0192 276.5077,-150.9071 278.2569,-144.1291"/>
</g>
<!-- Node20 -->
<g id="node4" class="node">
<title>Node20</title>
<g id="a_node4"><a xlink:href="classRiver_1_1Border.html#ad884663725156885e8e5def07a2e49c1" target="_top" xlink:title="Return normal line angle to boundary at point where is located source with source_id ...">
<polygon fill="#ffffff" stroke="#000000" points="316.5,-115 316.5,-145 443.5,-145 443.5,-115 316.5,-115"/>
<text text-anchor="start" x="324.5" y="-133" font-family="Helvetica,sans-Serif" font-size="10.00" fill="#000000">River::Border::GetSource</text>
<text text-anchor="middle" x="380" y="-122" font-family="Helvetica,sans-Serif" font-size="10.00" fill="#000000">NormalAngle</text>
</a>
</g>
</g>
<!-- Node18&#45;&gt;Node20 -->
<g id="edge3" class="edge">
<title>Node18&#45;&gt;Node20</title>
<path fill="none" stroke="#191970" d="M283.7542,-130C294.5787,-130 305.6438,-130 316.2355,-130"/>
<polygon fill="#191970" stroke="#191970" points="283.473,-126.5001 273.473,-130 283.473,-133.5001 283.473,-126.5001"/>
</g>
<!-- Node21 -->
<g id="node5" class="node">
<title>Node21</title>
<g id="a_node5"><a xlink:href="namespaceRiver.html#aa226e8aa15b4b21c82a2ea177e1faee6" target="_top" xlink:title="Finnal Boudary Geneartor Class. ">
<polygon fill="#ffffff" stroke="#000000" points="315,-76.5 315,-95.5 445,-95.5 445,-76.5 315,-76.5"/>
<text text-anchor="middle" x="380" y="-83.5" font-family="Helvetica,sans-Serif" font-size="10.00" fill="#000000">River::BoundaryGenerator</text>
</a>
</g>
</g>
<!-- Node18&#45;&gt;Node21 -->
<g id="edge4" class="edge">
<title>Node18&#45;&gt;Node21</title>
<path fill="none" stroke="#191970" d="M277.5132,-112.4482C299.9116,-106.668 323.9666,-100.4602 343.1394,-95.5124"/>
<polygon fill="#191970" stroke="#191970" points="276.5077,-109.0929 267.6996,-114.9808 278.2569,-115.8709 276.5077,-109.0929"/>
</g>
<!-- Node22 -->
<g id="node6" class="node">
<title>Node22</title>
<g id="a_node6"><a xlink:href="main_8cpp.html#a0ddf1224851353fc92bfbff6f499fa97" target="_top" xlink:title="Entry point of RiverSim program. ">
<polygon fill="#ffffff" stroke="#000000" points="487,-76.5 487,-95.5 525,-95.5 525,-76.5 487,-76.5"/>
<text text-anchor="middle" x="506" y="-83.5" font-family="Helvetica,sans-Serif" font-size="10.00" fill="#000000">main</text>
</a>
</g>
</g>
<!-- Node21&#45;&gt;Node22 -->
<g id="edge5" class="edge">
<title>Node21&#45;&gt;Node22</title>
<path fill="none" stroke="#191970" d="M455.5129,-86C467.1067,-86 478.1114,-86 486.8697,-86"/>
<polygon fill="#191970" stroke="#191970" points="455.2145,-82.5001 445.2144,-86 455.2144,-89.5001 455.2145,-82.5001"/>
</g>
</g>
</svg>
