<?xml version="1.0" encoding="UTF-8" standalone="no"?>
<!DOCTYPE svg PUBLIC "-//W3C//DTD SVG 1.1//EN"
 "http://www.w3.org/Graphics/SVG/1.1/DTD/svg11.dtd">
<!-- Generated by graphviz version 2.40.1 (20161225.0304)
 -->
<!-- Title: River::Solver::refine_grid Pages: 1 -->
<svg width="336pt" height="28pt"
 viewBox="0.00 0.00 336.00 28.00" xmlns="http://www.w3.org/2000/svg" xmlns:xlink="http://www.w3.org/1999/xlink">
<g id="graph0" class="graph" transform="scale(1 1) rotate(0) translate(4 24)">
<title>River::Solver::refine_grid</title>
<polygon fill="#ffffff" stroke="transparent" points="-4,4 -4,-24 332,-24 332,4 -4,4"/>
<!-- Node56 -->
<g id="node1" class="node">
<title>Node56</title>
<polygon fill="#bfbfbf" stroke="#000000" points="0,-.5 0,-19.5 125,-19.5 125,-.5 0,-.5"/>
<text text-anchor="middle" x="62.5" y="-7.5" font-family="Helvetica,sans-Serif" font-size="10.00" fill="#000000">River::Solver::refine_grid</text>
</g>
<!-- Node57 -->
<g id="node2" class="node">
<title>Node57</title>
<g id="a_node2"><a xlink:href="classRiver_1_1Solver.html#a4222fe744d607f870a5d7d22b11e8334" target="_top" xlink:title="River::Solver::run">
<polygon fill="#ffffff" stroke="#000000" points="161,-.5 161,-19.5 254,-19.5 254,-.5 161,-.5"/>
<text text-anchor="middle" x="207.5" y="-7.5" font-family="Helvetica,sans-Serif" font-size="10.00" fill="#000000">River::Solver::run</text>
</a>
</g>
</g>
<!-- Node56&#45;&gt;Node57 -->
<g id="edge1" class="edge">
<title>Node56&#45;&gt;Node57</title>
<path fill="none" stroke="#191970" d="M135.3859,-10C144.0376,-10 152.6819,-10 160.8261,-10"/>
<polygon fill="#191970" stroke="#191970" points="135.2558,-6.5001 125.2558,-10 135.2557,-13.5001 135.2558,-6.5001"/>
</g>
<!-- Node58 -->
<g id="node3" class="node">
<title>Node58</title>
<g id="a_node3"><a xlink:href="main_8cpp.html#a0ddf1224851353fc92bfbff6f499fa97" target="_top" xlink:title="Entry point of RiverSim program. ">
<polygon fill="#ffffff" stroke="#000000" points="290,-.5 290,-19.5 328,-19.5 328,-.5 290,-.5"/>
<text text-anchor="middle" x="309" y="-7.5" font-family="Helvetica,sans-Serif" font-size="10.00" fill="#000000">main</text>
</a>
</g>
</g>
<!-- Node57&#45;&gt;Node58 -->
<g id="edge2" class="edge">
<title>Node57&#45;&gt;Node58</title>
<path fill="none" stroke="#191970" d="M264.3645,-10C273.4202,-10 282.2123,-10 289.5649,-10"/>
<polygon fill="#191970" stroke="#191970" points="264.0911,-6.5001 254.0911,-10 264.091,-13.5001 264.0911,-6.5001"/>
</g>
</g>
</svg>
