<?xml version="1.0" encoding="UTF-8" standalone="no"?>
<!DOCTYPE svg PUBLIC "-//W3C//DTD SVG 1.1//EN"
 "http://www.w3.org/Graphics/SVG/1.1/DTD/svg11.dtd">
<!-- Generated by graphviz version 2.40.1 (20161225.0304)
 -->
<!-- Title: River::Triangle::set_all_values_to_default Pages: 1 -->
<svg width="536pt" height="66pt"
 viewBox="0.00 0.00 536.00 66.00" xmlns="http://www.w3.org/2000/svg" xmlns:xlink="http://www.w3.org/1999/xlink">
<g id="graph0" class="graph" transform="scale(1 1) rotate(0) translate(4 62)">
<title>River::Triangle::set_all_values_to_default</title>
<polygon fill="#ffffff" stroke="transparent" points="-4,4 -4,-62 532,-62 532,4 -4,4"/>
<!-- Node11 -->
<g id="node1" class="node">
<title>Node11</title>
<polygon fill="#bfbfbf" stroke="#000000" points="0,-14 0,-44 113,-44 113,-14 0,-14"/>
<text text-anchor="start" x="8" y="-32" font-family="Helvetica,sans-Serif" font-size="10.00" fill="#000000">River::Triangle::set</text>
<text text-anchor="middle" x="56.5" y="-21" font-family="Helvetica,sans-Serif" font-size="10.00" fill="#000000">_all_values_to_default</text>
</g>
<!-- Node12 -->
<g id="node2" class="node">
<title>Node12</title>
<g id="a_node2"><a xlink:href="classRiver_1_1Triangle.html#af0831b121aebb9accaafe9e291327938" target="_top" xlink:title="River::Triangle::Triangle">
<polygon fill="#ffffff" stroke="#000000" points="150.5,-38.5 150.5,-57.5 271.5,-57.5 271.5,-38.5 150.5,-38.5"/>
<text text-anchor="middle" x="211" y="-45.5" font-family="Helvetica,sans-Serif" font-size="10.00" fill="#000000">River::Triangle::Triangle</text>
</a>
</g>
</g>
<!-- Node11&#45;&gt;Node12 -->
<g id="edge1" class="edge">
<title>Node11&#45;&gt;Node12</title>
<path fill="none" stroke="#191970" d="M123.2512,-37.2089C132.2931,-38.3208 141.5304,-39.4568 150.4554,-40.5544"/>
<polygon fill="#191970" stroke="#191970" points="123.5053,-33.7138 113.1528,-35.967 122.6508,-40.6615 123.5053,-33.7138"/>
</g>
<!-- Node13 -->
<g id="node3" class="node">
<title>Node13</title>
<g id="a_node3"><a xlink:href="classRiver_1_1Triangle.html#a0dae20b40d446e6009a88543e2c14daf" target="_top" xlink:title="Generate mesh. ">
<polygon fill="#ffffff" stroke="#000000" points="149,-.5 149,-19.5 273,-19.5 273,-.5 149,-.5"/>
<text text-anchor="middle" x="211" y="-7.5" font-family="Helvetica,sans-Serif" font-size="10.00" fill="#000000">River::Triangle::generate</text>
</a>
</g>
</g>
<!-- Node11&#45;&gt;Node13 -->
<g id="edge2" class="edge">
<title>Node11&#45;&gt;Node13</title>
<path fill="none" stroke="#191970" d="M123.0961,-20.8102C131.658,-19.7573 140.3978,-18.6825 148.8841,-17.6388"/>
<polygon fill="#191970" stroke="#191970" points="122.6508,-17.3385 113.1528,-22.033 123.5053,-24.2862 122.6508,-17.3385"/>
</g>
<!-- Node14 -->
<g id="node4" class="node">
<title>Node14</title>
<g id="a_node4"><a xlink:href="namespaceRiver.html#af1a3f7c61809dd8032e4ff5920da83cc" target="_top" xlink:title="One step of forward river evolution. ">
<polygon fill="#ffffff" stroke="#000000" points="309,-.5 309,-19.5 454,-19.5 454,-.5 309,-.5"/>
<text text-anchor="middle" x="381.5" y="-7.5" font-family="Helvetica,sans-Serif" font-size="10.00" fill="#000000">River::ForwardRiverEvolution</text>
</a>
</g>
</g>
<!-- Node13&#45;&gt;Node14 -->
<g id="edge3" class="edge">
<title>Node13&#45;&gt;Node14</title>
<path fill="none" stroke="#191970" d="M283.2431,-10C291.7006,-10 300.333,-10 308.7967,-10"/>
<polygon fill="#191970" stroke="#191970" points="283.0368,-6.5001 273.0367,-10 283.0367,-13.5001 283.0368,-6.5001"/>
</g>
<!-- Node15 -->
<g id="node5" class="node">
<title>Node15</title>
<g id="a_node5"><a xlink:href="main_8cpp.html#a0ddf1224851353fc92bfbff6f499fa97" target="_top" xlink:title="Entry point of RiverSim program. ">
<polygon fill="#ffffff" stroke="#000000" points="490,-.5 490,-19.5 528,-19.5 528,-.5 490,-.5"/>
<text text-anchor="middle" x="509" y="-7.5" font-family="Helvetica,sans-Serif" font-size="10.00" fill="#000000">main</text>
</a>
</g>
</g>
<!-- Node14&#45;&gt;Node15 -->
<g id="edge4" class="edge">
<title>Node14&#45;&gt;Node15</title>
<path fill="none" stroke="#191970" d="M464.2526,-10C473.7338,-10 482.5978,-10 489.8947,-10"/>
<polygon fill="#191970" stroke="#191970" points="464.1886,-6.5001 454.1886,-10 464.1885,-13.5001 464.1886,-6.5001"/>
</g>
</g>
</svg>
