<?xml version="1.0" encoding="UTF-8" standalone="no"?>
<!DOCTYPE svg PUBLIC "-//W3C//DTD SVG 1.1//EN"
 "http://www.w3.org/Graphics/SVG/1.1/DTD/svg11.dtd">
<!-- Generated by graphviz version 2.40.1 (20161225.0304)
 -->
<!-- Title: nlohmann::detail::invalid_iterator::create Pages: 1 -->
<svg width="424pt" height="578pt"
 viewBox="0.00 0.00 424.00 578.00" xmlns="http://www.w3.org/2000/svg" xmlns:xlink="http://www.w3.org/1999/xlink">
<g id="graph0" class="graph" transform="scale(1 1) rotate(0) translate(4 574)">
<title>nlohmann::detail::invalid_iterator::create</title>
<polygon fill="#ffffff" stroke="transparent" points="-4,4 -4,-574 420,-574 420,4 -4,4"/>
<!-- Node4 -->
<g id="node1" class="node">
<title>Node4</title>
<polygon fill="#bfbfbf" stroke="#000000" points="0,-269.5 0,-299.5 122,-299.5 122,-269.5 0,-269.5"/>
<text text-anchor="start" x="8" y="-287.5" font-family="Helvetica,sans-Serif" font-size="10.00" fill="#000000">nlohmann::detail::invalid</text>
<text text-anchor="middle" x="61" y="-276.5" font-family="Helvetica,sans-Serif" font-size="10.00" fill="#000000">_iterator::create</text>
</g>
<!-- Node5 -->
<g id="node2" class="node">
<title>Node5</title>
<g id="a_node2"><a xlink:href="classnlohmann_1_1detail_1_1iter__impl.html#a5ca57856d9bba54a5fc51cee891de827" target="_top" xlink:title="return a reference to the value pointed to by the iterator ">
<polygon fill="#ffffff" stroke="#000000" points="160,-539.5 160,-569.5 267,-569.5 267,-539.5 160,-539.5"/>
<text text-anchor="start" x="168" y="-557.5" font-family="Helvetica,sans-Serif" font-size="10.00" fill="#000000">nlohmann::detail::iter</text>
<text text-anchor="middle" x="213.5" y="-546.5" font-family="Helvetica,sans-Serif" font-size="10.00" fill="#000000">_impl::operator*</text>
</a>
</g>
</g>
<!-- Node4&#45;&gt;Node5 -->
<g id="edge1" class="edge">
<title>Node4&#45;&gt;Node5</title>
<path fill="none" stroke="#191970" d="M64.4324,-309.6583C72.3304,-358.409 96.1079,-466.5592 158,-530.5 161.2855,-533.8943 165.1309,-536.8369 169.2378,-539.3816"/>
<polygon fill="#191970" stroke="#191970" points="67.8751,-309.0171 62.9033,-299.6613 60.9556,-310.0755 67.8751,-309.0171"/>
</g>
<!-- Node6 -->
<g id="node3" class="node">
<title>Node6</title>
<g id="a_node3"><a xlink:href="classnlohmann_1_1detail_1_1iter__impl.html#a6da3d2b34528aff328f3dcb513076dec" target="_top" xlink:title="dereference the iterator ">
<polygon fill="#ffffff" stroke="#000000" points="160,-490.5 160,-520.5 267,-520.5 267,-490.5 160,-490.5"/>
<text text-anchor="start" x="168" y="-508.5" font-family="Helvetica,sans-Serif" font-size="10.00" fill="#000000">nlohmann::detail::iter</text>
<text text-anchor="middle" x="213.5" y="-497.5" font-family="Helvetica,sans-Serif" font-size="10.00" fill="#000000">_impl::operator&#45;&gt;</text>
</a>
</g>
</g>
<!-- Node4&#45;&gt;Node6 -->
<g id="edge2" class="edge">
<title>Node4&#45;&gt;Node6</title>
<path fill="none" stroke="#191970" d="M67.2182,-309.4793C78.6203,-350.5203 106.5593,-432.5391 158,-481.5 161.5739,-484.9016 165.7062,-487.8631 170.0715,-490.4316"/>
<polygon fill="#191970" stroke="#191970" points="70.5786,-308.497 64.6119,-299.742 63.8166,-310.307 70.5786,-308.497"/>
</g>
<!-- Node7 -->
<g id="node4" class="node">
<title>Node7</title>
<g id="a_node4"><a xlink:href="classnlohmann_1_1detail_1_1iter__impl.html#a2b592605b63ae7f5401996ffa3b14393" target="_top" xlink:title="comparison: equal ">
<polygon fill="#ffffff" stroke="#000000" points="160,-441.5 160,-471.5 267,-471.5 267,-441.5 160,-441.5"/>
<text text-anchor="start" x="168" y="-459.5" font-family="Helvetica,sans-Serif" font-size="10.00" fill="#000000">nlohmann::detail::iter</text>
<text text-anchor="middle" x="213.5" y="-448.5" font-family="Helvetica,sans-Serif" font-size="10.00" fill="#000000">_impl::operator==</text>
</a>
</g>
</g>
<!-- Node4&#45;&gt;Node7 -->
<g id="edge3" class="edge">
<title>Node4&#45;&gt;Node7</title>
<path fill="none" stroke="#191970" d="M71.4234,-308.7316C86.357,-340.9135 116.6682,-397.7298 158,-432.5 162.0166,-435.879 166.5814,-438.8535 171.327,-441.4528"/>
<polygon fill="#191970" stroke="#191970" points="74.5973,-307.2558 67.2874,-299.5867 68.2193,-310.1404 74.5973,-307.2558"/>
</g>
<!-- Node8 -->
<g id="node5" class="node">
<title>Node8</title>
<g id="a_node5"><a xlink:href="classnlohmann_1_1detail_1_1iter__impl.html#a0d14cd76203e00bdcef6a64a5d055cc7" target="_top" xlink:title="comparison: smaller ">
<polygon fill="#ffffff" stroke="#000000" points="160,-392.5 160,-422.5 267,-422.5 267,-392.5 160,-392.5"/>
<text text-anchor="start" x="168" y="-410.5" font-family="Helvetica,sans-Serif" font-size="10.00" fill="#000000">nlohmann::detail::iter</text>
<text text-anchor="middle" x="213.5" y="-399.5" font-family="Helvetica,sans-Serif" font-size="10.00" fill="#000000">_impl::operator&lt;</text>
</a>
</g>
</g>
<!-- Node4&#45;&gt;Node8 -->
<g id="edge4" class="edge">
<title>Node4&#45;&gt;Node8</title>
<path fill="none" stroke="#191970" d="M79.0405,-307.5209C97.1191,-329.376 126.6946,-361.9965 158,-383.5 162.7592,-386.769 168.0351,-389.7412 173.3862,-392.3932"/>
<polygon fill="#191970" stroke="#191970" points="81.7195,-305.2679 72.6949,-299.7174 76.2885,-309.6842 81.7195,-305.2679"/>
</g>
<!-- Node9 -->
<g id="node6" class="node">
<title>Node9</title>
<g id="a_node6"><a xlink:href="classnlohmann_1_1detail_1_1iter__impl.html#a3eef94f9d167046e7f773aeb6b78090c" target="_top" xlink:title="add to iterator ">
<polygon fill="#ffffff" stroke="#000000" points="160,-343.5 160,-373.5 267,-373.5 267,-343.5 160,-343.5"/>
<text text-anchor="start" x="168" y="-361.5" font-family="Helvetica,sans-Serif" font-size="10.00" fill="#000000">nlohmann::detail::iter</text>
<text text-anchor="middle" x="213.5" y="-350.5" font-family="Helvetica,sans-Serif" font-size="10.00" fill="#000000">_impl::operator+=</text>
</a>
</g>
</g>
<!-- Node4&#45;&gt;Node9 -->
<g id="edge5" class="edge">
<title>Node4&#45;&gt;Node9</title>
<path fill="none" stroke="#191970" d="M98.1707,-304.4091C116.1073,-313.8232 138.0215,-325.0446 158,-334.5 164.3574,-337.5088 171.1887,-340.5867 177.8103,-343.4913"/>
<polygon fill="#191970" stroke="#191970" points="99.6629,-301.2392 89.1849,-299.6698 96.3972,-307.4308 99.6629,-301.2392"/>
</g>
<!-- Node10 -->
<g id="node7" class="node">
<title>Node10</title>
<g id="a_node7"><a xlink:href="classnlohmann_1_1detail_1_1iter__impl.html#a49bf3e708a9c1c88c415011735962d06" target="_top" xlink:title="return difference ">
<polygon fill="#ffffff" stroke="#000000" points="160,-294.5 160,-324.5 267,-324.5 267,-294.5 160,-294.5"/>
<text text-anchor="start" x="168" y="-312.5" font-family="Helvetica,sans-Serif" font-size="10.00" fill="#000000">nlohmann::detail::iter</text>
<text text-anchor="middle" x="213.5" y="-301.5" font-family="Helvetica,sans-Serif" font-size="10.00" fill="#000000">_impl::operator&#45;</text>
</a>
</g>
</g>
<!-- Node4&#45;&gt;Node10 -->
<g id="edge6" class="edge">
<title>Node4&#45;&gt;Node10</title>
<path fill="none" stroke="#191970" d="M132.1457,-296.1632C141.4191,-297.6835 150.7937,-299.2203 159.7174,-300.6832"/>
<polygon fill="#191970" stroke="#191970" points="132.5834,-292.6883 122.1489,-294.5244 131.4509,-299.5961 132.5834,-292.6883"/>
</g>
<!-- Node11 -->
<g id="node8" class="node">
<title>Node11</title>
<g id="a_node8"><a xlink:href="classnlohmann_1_1detail_1_1iter__impl.html#ac0b9276f1102ed4b9cd3f5f56287e3ce" target="_top" xlink:title="access to successor ">
<polygon fill="#ffffff" stroke="#000000" points="160,-245.5 160,-275.5 267,-275.5 267,-245.5 160,-245.5"/>
<text text-anchor="start" x="168" y="-263.5" font-family="Helvetica,sans-Serif" font-size="10.00" fill="#000000">nlohmann::detail::iter</text>
<text text-anchor="middle" x="213.5" y="-252.5" font-family="Helvetica,sans-Serif" font-size="10.00" fill="#000000">_impl::operator[]</text>
</a>
</g>
</g>
<!-- Node4&#45;&gt;Node11 -->
<g id="edge7" class="edge">
<title>Node4&#45;&gt;Node11</title>
<path fill="none" stroke="#191970" d="M132.1457,-273.3033C141.4191,-271.8439 150.7937,-270.3685 159.7174,-268.9641"/>
<polygon fill="#191970" stroke="#191970" points="131.4832,-269.8644 122.1489,-274.8766 132.5715,-276.7793 131.4832,-269.8644"/>
</g>
<!-- Node12 -->
<g id="node9" class="node">
<title>Node12</title>
<g id="a_node9"><a xlink:href="classnlohmann_1_1detail_1_1iter__impl.html#a15dfb2744fed2ef40c12a9e9a20d6dbc" target="_top" xlink:title="return the key of an object iterator ">
<polygon fill="#ffffff" stroke="#000000" points="160,-196.5 160,-226.5 267,-226.5 267,-196.5 160,-196.5"/>
<text text-anchor="start" x="168" y="-214.5" font-family="Helvetica,sans-Serif" font-size="10.00" fill="#000000">nlohmann::detail::iter</text>
<text text-anchor="middle" x="213.5" y="-203.5" font-family="Helvetica,sans-Serif" font-size="10.00" fill="#000000">_impl::key</text>
</a>
</g>
</g>
<!-- Node4&#45;&gt;Node12 -->
<g id="edge8" class="edge">
<title>Node4&#45;&gt;Node12</title>
<path fill="none" stroke="#191970" d="M100.3825,-264.6078C117.946,-255.8411 138.9355,-245.5072 158,-236.5 164.9752,-233.2045 172.4853,-229.7556 179.6581,-226.5088"/>
<polygon fill="#191970" stroke="#191970" points="98.3871,-261.6926 91.0115,-269.2986 101.5204,-267.9522 98.3871,-261.6926"/>
</g>
<!-- Node13 -->
<g id="node10" class="node">
<title>Node13</title>
<g id="a_node10"><a xlink:href="classnlohmann_1_1basic__json.html#abe197e9f3184487805cfb5bba6fd5938" target="_top" xlink:title="construct a JSON container given an iterator range ">
<polygon fill="#ffffff" stroke="#000000" points="158,-147.5 158,-177.5 269,-177.5 269,-147.5 158,-147.5"/>
<text text-anchor="start" x="166" y="-165.5" font-family="Helvetica,sans-Serif" font-size="10.00" fill="#000000">nlohmann::basic_json</text>
<text text-anchor="middle" x="213.5" y="-154.5" font-family="Helvetica,sans-Serif" font-size="10.00" fill="#000000">::basic_json</text>
</a>
</g>
</g>
<!-- Node4&#45;&gt;Node13 -->
<g id="edge9" class="edge">
<title>Node4&#45;&gt;Node13</title>
<path fill="none" stroke="#191970" d="M79.7544,-261.4292C97.9985,-240.1158 127.3769,-208.6449 158,-187.5 163.3047,-183.8372 169.2325,-180.5005 175.1854,-177.5424"/>
<polygon fill="#191970" stroke="#191970" points="76.8639,-259.428 73.1007,-269.332 82.2188,-263.9364 76.8639,-259.428"/>
</g>
<!-- Node14 -->
<g id="node11" class="node">
<title>Node14</title>
<g id="a_node11"><a xlink:href="classnlohmann_1_1basic__json.html#a068a16e76be178e83da6a192916923ed" target="_top" xlink:title="remove element given an iterator ">
<polygon fill="#ffffff" stroke="#000000" points="158,-98.5 158,-128.5 269,-128.5 269,-98.5 158,-98.5"/>
<text text-anchor="start" x="166" y="-116.5" font-family="Helvetica,sans-Serif" font-size="10.00" fill="#000000">nlohmann::basic_json</text>
<text text-anchor="middle" x="213.5" y="-105.5" font-family="Helvetica,sans-Serif" font-size="10.00" fill="#000000">::erase</text>
</a>
</g>
</g>
<!-- Node4&#45;&gt;Node14 -->
<g id="edge10" class="edge">
<title>Node4&#45;&gt;Node14</title>
<path fill="none" stroke="#191970" d="M72.0153,-259.7879C87.2739,-227.9963 117.5956,-172.7956 158,-138.5 162.4312,-134.7387 167.5202,-131.4397 172.7797,-128.5779"/>
<polygon fill="#191970" stroke="#191970" points="68.6648,-258.6903 67.5968,-269.2311 75.0051,-261.6569 68.6648,-258.6903"/>
</g>
<!-- Node16 -->
<g id="node13" class="node">
<title>Node16</title>
<g id="a_node13"><a xlink:href="classnlohmann_1_1basic__json.html#a0136728f5db69d4051c77b94307abd6c" target="_top" xlink:title="inserts element ">
<polygon fill="#ffffff" stroke="#000000" points="158,-49.5 158,-79.5 269,-79.5 269,-49.5 158,-49.5"/>
<text text-anchor="start" x="166" y="-67.5" font-family="Helvetica,sans-Serif" font-size="10.00" fill="#000000">nlohmann::basic_json</text>
<text text-anchor="middle" x="213.5" y="-56.5" font-family="Helvetica,sans-Serif" font-size="10.00" fill="#000000">::insert</text>
</a>
</g>
</g>
<!-- Node4&#45;&gt;Node16 -->
<g id="edge12" class="edge">
<title>Node4&#45;&gt;Node16</title>
<path fill="none" stroke="#191970" d="M67.4456,-259.5998C79.1153,-219.0119 107.3554,-138.238 158,-89.5 161.9596,-85.6895 166.6005,-82.3955 171.4826,-79.5655"/>
<polygon fill="#191970" stroke="#191970" points="64.0091,-258.8949 64.71,-269.4665 70.7546,-260.7652 64.0091,-258.8949"/>
</g>
<!-- Node18 -->
<g id="node15" class="node">
<title>Node18</title>
<g id="a_node15"><a xlink:href="classnlohmann_1_1basic__json.html#a27921dafadb3bbefd180235ec763e3ea" target="_top" xlink:title="updates a JSON object from another object, overwriting existing keys ">
<polygon fill="#ffffff" stroke="#000000" points="158,-.5 158,-30.5 269,-30.5 269,-.5 158,-.5"/>
<text text-anchor="start" x="166" y="-18.5" font-family="Helvetica,sans-Serif" font-size="10.00" fill="#000000">nlohmann::basic_json</text>
<text text-anchor="middle" x="213.5" y="-7.5" font-family="Helvetica,sans-Serif" font-size="10.00" fill="#000000">::update</text>
</a>
</g>
</g>
<!-- Node4&#45;&gt;Node18 -->
<g id="edge15" class="edge">
<title>Node4&#45;&gt;Node18</title>
<path fill="none" stroke="#191970" d="M64.4631,-259.4426C72.4145,-210.8876 96.2812,-103.1729 158,-39.5 161.2879,-36.108 165.1348,-33.1669 169.2426,-30.623"/>
<polygon fill="#191970" stroke="#191970" points="60.9928,-258.9819 62.9226,-269.3995 67.9105,-260.0522 60.9928,-258.9819"/>
</g>
<!-- Node15 -->
<g id="node12" class="node">
<title>Node15</title>
<g id="a_node12"><a xlink:href="classnlohmann_1_1basic__json.html#a81e0c41a4a9dff4df2f6973f7f8b2a83" target="_top" xlink:title="applies a JSON patch ">
<polygon fill="#ffffff" stroke="#000000" points="305,-98.5 305,-128.5 416,-128.5 416,-98.5 305,-98.5"/>
<text text-anchor="start" x="313" y="-116.5" font-family="Helvetica,sans-Serif" font-size="10.00" fill="#000000">nlohmann::basic_json</text>
<text text-anchor="middle" x="360.5" y="-105.5" font-family="Helvetica,sans-Serif" font-size="10.00" fill="#000000">::patch</text>
</a>
</g>
</g>
<!-- Node14&#45;&gt;Node15 -->
<g id="edge11" class="edge">
<title>Node14&#45;&gt;Node15</title>
<path fill="none" stroke="#191970" d="M279.0775,-113.5C287.6805,-113.5 296.4299,-113.5 304.847,-113.5"/>
<polygon fill="#191970" stroke="#191970" points="279.0744,-110.0001 269.0744,-113.5 279.0744,-117.0001 279.0744,-110.0001"/>
</g>
<!-- Node16&#45;&gt;Node15 -->
<g id="edge13" class="edge">
<title>Node16&#45;&gt;Node15</title>
<path fill="none" stroke="#191970" d="M268.7164,-82.9055C284.0967,-88.0322 300.6175,-93.5392 315.3453,-98.4484"/>
<polygon fill="#191970" stroke="#191970" points="269.398,-79.4434 258.8043,-79.6014 267.1843,-86.0842 269.398,-79.4434"/>
</g>
<!-- Node17 -->
<g id="node14" class="node">
<title>Node17</title>
<g id="a_node14"><a xlink:href="classnlohmann_1_1basic__json.html#a4336103c941d9f60bd51320f4880e3dd" target="_top" xlink:title="creates a diff as a JSON patch ">
<polygon fill="#ffffff" stroke="#000000" points="305,-49.5 305,-79.5 416,-79.5 416,-49.5 305,-49.5"/>
<text text-anchor="start" x="313" y="-67.5" font-family="Helvetica,sans-Serif" font-size="10.00" fill="#000000">nlohmann::basic_json</text>
<text text-anchor="middle" x="360.5" y="-56.5" font-family="Helvetica,sans-Serif" font-size="10.00" fill="#000000">::diff</text>
</a>
</g>
</g>
<!-- Node16&#45;&gt;Node17 -->
<g id="edge14" class="edge">
<title>Node16&#45;&gt;Node17</title>
<path fill="none" stroke="#191970" d="M279.0775,-64.5C287.6805,-64.5 296.4299,-64.5 304.847,-64.5"/>
<polygon fill="#191970" stroke="#191970" points="279.0744,-61.0001 269.0744,-64.5 279.0744,-68.0001 279.0744,-61.0001"/>
</g>
</g>
</svg>
