<?xml version="1.0" encoding="UTF-8" standalone="no"?>
<!DOCTYPE svg PUBLIC "-//W3C//DTD SVG 1.1//EN"
 "http://www.w3.org/Graphics/SVG/1.1/DTD/svg11.dtd">
<!-- Generated by graphviz version 2.40.1 (20161225.0304)
 -->
<!-- Title: River::Tree::GetBranch Pages: 1 -->
<svg width="496pt" height="28pt"
 viewBox="0.00 0.00 496.00 28.00" xmlns="http://www.w3.org/2000/svg" xmlns:xlink="http://www.w3.org/1999/xlink">
<g id="graph0" class="graph" transform="scale(1 1) rotate(0) translate(4 24)">
<title>River::Tree::GetBranch</title>
<polygon fill="#ffffff" stroke="transparent" points="-4,4 -4,-24 492,-24 492,4 -4,4"/>
<!-- Node26 -->
<g id="node1" class="node">
<title>Node26</title>
<polygon fill="#bfbfbf" stroke="#000000" points="0,-.5 0,-19.5 118,-19.5 118,-.5 0,-.5"/>
<text text-anchor="middle" x="59" y="-7.5" font-family="Helvetica,sans-Serif" font-size="10.00" fill="#000000">River::Tree::GetBranch</text>
</g>
<!-- Node27 -->
<g id="node2" class="node">
<title>Node27</title>
<g id="a_node2"><a xlink:href="namespaceRiver.html#aa5a21f7169be41bacdb7bab009a2e7be" target="_top" xlink:title="Generates trees boundary. ">
<polygon fill="#ffffff" stroke="#000000" points="154,-.5 154,-19.5 248,-19.5 248,-.5 154,-.5"/>
<text text-anchor="middle" x="201" y="-7.5" font-family="Helvetica,sans-Serif" font-size="10.00" fill="#000000">River::TreeVector</text>
</a>
</g>
</g>
<!-- Node26&#45;&gt;Node27 -->
<g id="edge1" class="edge">
<title>Node26&#45;&gt;Node27</title>
<path fill="none" stroke="#191970" d="M128.4762,-10C137.099,-10 145.7519,-10 153.9256,-10"/>
<polygon fill="#191970" stroke="#191970" points="128.398,-6.5001 118.398,-10 128.398,-13.5001 128.398,-6.5001"/>
</g>
<!-- Node28 -->
<g id="node3" class="node">
<title>Node28</title>
<g id="a_node3"><a xlink:href="namespaceRiver.html#aa226e8aa15b4b21c82a2ea177e1faee6" target="_top" xlink:title="Finnal Boudary Geneartor Class. ">
<polygon fill="#ffffff" stroke="#000000" points="284,-.5 284,-19.5 414,-19.5 414,-.5 284,-.5"/>
<text text-anchor="middle" x="349" y="-7.5" font-family="Helvetica,sans-Serif" font-size="10.00" fill="#000000">River::BoundaryGenerator</text>
</a>
</g>
</g>
<!-- Node27&#45;&gt;Node28 -->
<g id="edge2" class="edge">
<title>Node27&#45;&gt;Node28</title>
<path fill="none" stroke="#191970" d="M258.2771,-10C266.658,-10 275.3409,-10 283.8646,-10"/>
<polygon fill="#191970" stroke="#191970" points="258.2351,-6.5001 248.235,-10 258.235,-13.5001 258.2351,-6.5001"/>
</g>
<!-- Node29 -->
<g id="node4" class="node">
<title>Node29</title>
<g id="a_node4"><a xlink:href="main_8cpp.html#a0ddf1224851353fc92bfbff6f499fa97" target="_top" xlink:title="Entry point of RiverSim program. ">
<polygon fill="#ffffff" stroke="#000000" points="450,-.5 450,-19.5 488,-19.5 488,-.5 450,-.5"/>
<text text-anchor="middle" x="469" y="-7.5" font-family="Helvetica,sans-Serif" font-size="10.00" fill="#000000">main</text>
</a>
</g>
</g>
<!-- Node28&#45;&gt;Node29 -->
<g id="edge3" class="edge">
<title>Node28&#45;&gt;Node29</title>
<path fill="none" stroke="#191970" d="M424.2762,-10C433.7335,-10 442.6483,-10 449.9929,-10"/>
<polygon fill="#191970" stroke="#191970" points="424.2674,-6.5001 414.2674,-10 424.2674,-13.5001 424.2674,-6.5001"/>
</g>
</g>
</svg>
