<?xml version="1.0" encoding="UTF-8" standalone="no"?>
<!DOCTYPE svg PUBLIC "-//W3C//DTD SVG 1.1//EN"
 "http://www.w3.org/Graphics/SVG/1.1/DTD/svg11.dtd">
<!-- Generated by graphviz version 2.40.1 (20161225.0304)
 -->
<!-- Title: River::Point::norm Pages: 1 -->
<svg width="844pt" height="180pt"
 viewBox="0.00 0.00 844.00 180.00" xmlns="http://www.w3.org/2000/svg" xmlns:xlink="http://www.w3.org/1999/xlink">
<g id="graph0" class="graph" transform="scale(1 1) rotate(0) translate(4 176)">
<title>River::Point::norm</title>
<polygon fill="#ffffff" stroke="transparent" points="-4,4 -4,-176 840,-176 840,4 -4,4"/>
<!-- Node11 -->
<g id="node1" class="node">
<title>Node11</title>
<polygon fill="#bfbfbf" stroke="#000000" points="0,-76.5 0,-95.5 96,-95.5 96,-76.5 0,-76.5"/>
<text text-anchor="middle" x="48" y="-83.5" font-family="Helvetica,sans-Serif" font-size="10.00" fill="#000000">River::Point::norm</text>
</g>
<!-- Node12 -->
<g id="node2" class="node">
<title>Node12</title>
<g id="a_node2"><a xlink:href="classRiver_1_1Point.html#af33df3fef6945d57925744ad1b128cf4" target="_top" xlink:title="Returns normalized vector of current Point. ">
<polygon fill="#ffffff" stroke="#000000" points="132,-152.5 132,-171.5 269,-171.5 269,-152.5 132,-152.5"/>
<text text-anchor="middle" x="200.5" y="-159.5" font-family="Helvetica,sans-Serif" font-size="10.00" fill="#000000">River::Point::getNormalized</text>
</a>
</g>
</g>
<!-- Node11&#45;&gt;Node12 -->
<g id="edge1" class="edge">
<title>Node11&#45;&gt;Node12</title>
<path fill="none" stroke="#191970" d="M69.856,-101.3663C86.3863,-112.5265 109.9318,-127.4579 132,-138 143.5978,-143.5403 156.8282,-148.4758 168.5489,-152.4088"/>
<polygon fill="#191970" stroke="#191970" points="71.6761,-98.3706 61.4483,-95.606 67.7197,-104.1453 71.6761,-98.3706"/>
</g>
<!-- Node13 -->
<g id="node3" class="node">
<title>Node13</title>
<g id="a_node3"><a xlink:href="classRiver_1_1Point.html#a5a80f76067f92be8434cafff8cf55380" target="_top" xlink:title="Returns Polar representation of vector. ">
<polygon fill="#ffffff" stroke="#000000" points="305,-82.5 305,-101.5 415,-101.5 415,-82.5 305,-82.5"/>
<text text-anchor="middle" x="360" y="-89.5" font-family="Helvetica,sans-Serif" font-size="10.00" fill="#000000">River::Point::getPolar</text>
</a>
</g>
</g>
<!-- Node11&#45;&gt;Node13 -->
<g id="edge2" class="edge">
<title>Node11&#45;&gt;Node13</title>
<path fill="none" stroke="#191970" d="M91.9892,-97.884C104.7922,-100.815 118.868,-103.5334 132,-105 192.5127,-111.7583 208.2643,-109.3164 269,-105 280.6208,-104.1741 293.0136,-102.7622 304.7934,-101.1656"/>
<polygon fill="#191970" stroke="#191970" points="92.5761,-94.4258 82.0366,-95.5077 90.9503,-101.2344 92.5761,-94.4258"/>
</g>
<!-- Node17 -->
<g id="node7" class="node">
<title>Node17</title>
<g id="a_node7"><a xlink:href="classRiver_1_1Point.html#aa6005dcc4bb5ded97a0b9a5eb28bc528" target="_top" xlink:title="Normalizes current Point. ">
<polygon fill="#ffffff" stroke="#000000" points="142.5,-38.5 142.5,-57.5 258.5,-57.5 258.5,-38.5 142.5,-38.5"/>
<text text-anchor="middle" x="200.5" y="-45.5" font-family="Helvetica,sans-Serif" font-size="10.00" fill="#000000">River::Point::normalize</text>
</a>
</g>
</g>
<!-- Node11&#45;&gt;Node17 -->
<g id="edge6" class="edge">
<title>Node11&#45;&gt;Node17</title>
<path fill="none" stroke="#191970" d="M96.3184,-73.96C117.6234,-68.6512 142.3042,-62.5012 162.2945,-57.5201"/>
<polygon fill="#191970" stroke="#191970" points="95.3392,-70.5969 86.4822,-76.411 97.0318,-77.3892 95.3392,-70.5969"/>
</g>
<!-- Node20 -->
<g id="node10" class="node">
<title>Node20</title>
<g id="a_node10"><a xlink:href="classRiver_1_1Point.html#a24deaa21918d47a5d4fea7e0a7e4b61b" target="_top" xlink:title="Returns angle. ">
<polygon fill="#ffffff" stroke="#000000" points="151.5,-76.5 151.5,-95.5 249.5,-95.5 249.5,-76.5 151.5,-76.5"/>
<text text-anchor="middle" x="200.5" y="-83.5" font-family="Helvetica,sans-Serif" font-size="10.00" fill="#000000">River::Point::angle</text>
</a>
</g>
</g>
<!-- Node11&#45;&gt;Node20 -->
<g id="edge10" class="edge">
<title>Node11&#45;&gt;Node20</title>
<path fill="none" stroke="#191970" d="M106.3303,-86C121.1518,-86 136.9308,-86 151.2508,-86"/>
<polygon fill="#191970" stroke="#191970" points="106.252,-82.5001 96.252,-86 106.2519,-89.5001 106.252,-82.5001"/>
</g>
<!-- Node21 -->
<g id="node11" class="node">
<title>Node21</title>
<g id="a_node11"><a xlink:href="classRiver_1_1BranchNew.html#a3d751724e8b8c4349c7ce25eee3a2995" target="_top" xlink:title="Reduces lenght of branch by lenght. ">
<polygon fill="#ffffff" stroke="#000000" points="135,-.5 135,-19.5 266,-19.5 266,-.5 135,-.5"/>
<text text-anchor="middle" x="200.5" y="-7.5" font-family="Helvetica,sans-Serif" font-size="10.00" fill="#000000">River::BranchNew::Shrink</text>
</a>
</g>
</g>
<!-- Node11&#45;&gt;Node21 -->
<g id="edge12" class="edge">
<title>Node11&#45;&gt;Node21</title>
<path fill="none" stroke="#191970" d="M67.7112,-69.8854C84.0648,-57.2126 108.3831,-39.9281 132,-29 140.0643,-25.2685 149.0109,-22.133 157.7056,-19.5535"/>
<polygon fill="#191970" stroke="#191970" points="65.1709,-67.4322 59.5002,-76.3817 69.5142,-72.9218 65.1709,-67.4322"/>
</g>
<!-- Node14 -->
<g id="node4" class="node">
<title>Node14</title>
<g id="a_node4"><a xlink:href="classRiver_1_1Model.html#ad22bc4fecfe36e2cde033df2a5220c07" target="_top" xlink:title="Evaluate next point of simualtion based on series parameters around tip. ">
<polygon fill="#ffffff" stroke="#000000" points="467.5,-77 467.5,-107 564.5,-107 564.5,-77 467.5,-77"/>
<text text-anchor="start" x="475.5" y="-95" font-family="Helvetica,sans-Serif" font-size="10.00" fill="#000000">River::Model::next</text>
<text text-anchor="middle" x="516" y="-84" font-family="Helvetica,sans-Serif" font-size="10.00" fill="#000000">_point</text>
</a>
</g>
</g>
<!-- Node13&#45;&gt;Node14 -->
<g id="edge3" class="edge">
<title>Node13&#45;&gt;Node14</title>
<path fill="none" stroke="#191970" d="M425.5458,-92C439.5971,-92 454.202,-92 467.4724,-92"/>
<polygon fill="#191970" stroke="#191970" points="425.439,-88.5001 415.439,-92 425.439,-95.5001 425.439,-88.5001"/>
</g>
<!-- Node15 -->
<g id="node5" class="node">
<title>Node15</title>
<g id="a_node5"><a xlink:href="namespaceRiver.html#af1a3f7c61809dd8032e4ff5920da83cc" target="_top" xlink:title="One step of forward river evolution. ">
<polygon fill="#ffffff" stroke="#000000" points="617,-60.5 617,-79.5 762,-79.5 762,-60.5 617,-60.5"/>
<text text-anchor="middle" x="689.5" y="-67.5" font-family="Helvetica,sans-Serif" font-size="10.00" fill="#000000">River::ForwardRiverEvolution</text>
</a>
</g>
</g>
<!-- Node14&#45;&gt;Node15 -->
<g id="edge4" class="edge">
<title>Node14&#45;&gt;Node15</title>
<path fill="none" stroke="#191970" d="M574.8698,-84.5352C588.3378,-82.8275 602.8091,-80.9925 616.7815,-79.2208"/>
<polygon fill="#191970" stroke="#191970" points="574.2714,-81.083 564.7911,-85.8132 575.152,-88.0274 574.2714,-81.083"/>
</g>
<!-- Node16 -->
<g id="node6" class="node">
<title>Node16</title>
<g id="a_node6"><a xlink:href="main_8cpp.html#a0ddf1224851353fc92bfbff6f499fa97" target="_top" xlink:title="Entry point of RiverSim program. ">
<polygon fill="#ffffff" stroke="#000000" points="798,-60.5 798,-79.5 836,-79.5 836,-60.5 798,-60.5"/>
<text text-anchor="middle" x="817" y="-67.5" font-family="Helvetica,sans-Serif" font-size="10.00" fill="#000000">main</text>
</a>
</g>
</g>
<!-- Node15&#45;&gt;Node16 -->
<g id="edge5" class="edge">
<title>Node15&#45;&gt;Node16</title>
<path fill="none" stroke="#191970" d="M772.2526,-70C781.7338,-70 790.5978,-70 797.8947,-70"/>
<polygon fill="#191970" stroke="#191970" points="772.1886,-66.5001 762.1886,-70 772.1885,-73.5001 772.1886,-66.5001"/>
</g>
<!-- Node18 -->
<g id="node8" class="node">
<title>Node18</title>
<g id="a_node8"><a xlink:href="namespaceRiver.html#ace7057edc24ee07f8265dad28b73a41a" target="_top" xlink:title="Generates trees boundary. ">
<polygon fill="#ffffff" stroke="#000000" points="313,-38.5 313,-57.5 407,-57.5 407,-38.5 313,-38.5"/>
<text text-anchor="middle" x="360" y="-45.5" font-family="Helvetica,sans-Serif" font-size="10.00" fill="#000000">River::TreeVector</text>
</a>
</g>
</g>
<!-- Node17&#45;&gt;Node18 -->
<g id="edge7" class="edge">
<title>Node17&#45;&gt;Node18</title>
<path fill="none" stroke="#191970" d="M268.7454,-48C283.6593,-48 299.1216,-48 312.9864,-48"/>
<polygon fill="#191970" stroke="#191970" points="268.5344,-44.5001 258.5344,-48 268.5343,-51.5001 268.5344,-44.5001"/>
</g>
<!-- Node19 -->
<g id="node9" class="node">
<title>Node19</title>
<g id="a_node9"><a xlink:href="namespaceRiver.html#a43d55da8d0508b984518c4ebed6e0ad7" target="_top" xlink:title="Finnal Boudary Geneartor Class. ">
<polygon fill="#ffffff" stroke="#000000" points="451,-38.5 451,-57.5 581,-57.5 581,-38.5 451,-38.5"/>
<text text-anchor="middle" x="516" y="-45.5" font-family="Helvetica,sans-Serif" font-size="10.00" fill="#000000">River::BoundaryGenerator</text>
</a>
</g>
</g>
<!-- Node18&#45;&gt;Node19 -->
<g id="edge8" class="edge">
<title>Node18&#45;&gt;Node19</title>
<path fill="none" stroke="#191970" d="M417.4334,-48C428.2917,-48 439.7227,-48 450.7996,-48"/>
<polygon fill="#191970" stroke="#191970" points="417.2285,-44.5001 407.2285,-48 417.2285,-51.5001 417.2285,-44.5001"/>
</g>
<!-- Node19&#45;&gt;Node15 -->
<g id="edge9" class="edge">
<title>Node19&#45;&gt;Node15</title>
<path fill="none" stroke="#191970" d="M591.0269,-57.5135C599.5619,-58.5957 608.2512,-59.6976 616.7559,-60.776"/>
<polygon fill="#191970" stroke="#191970" points="591.4595,-54.0404 581.0986,-56.2546 590.5789,-60.9848 591.4595,-54.0404"/>
</g>
<!-- Node20&#45;&gt;Node13 -->
<g id="edge11" class="edge">
<title>Node20&#45;&gt;Node13</title>
<path fill="none" stroke="#191970" d="M259.7072,-88.2272C274.4977,-88.7836 290.2997,-89.378 304.8832,-89.9266"/>
<polygon fill="#191970" stroke="#191970" points="259.7813,-84.7276 249.6567,-87.8492 259.5181,-91.7227 259.7813,-84.7276"/>
</g>
</g>
</svg>
