<?xml version="1.0" encoding="UTF-8" standalone="no"?>
<!DOCTYPE svg PUBLIC "-//W3C//DTD SVG 1.1//EN"
 "http://www.w3.org/Graphics/SVG/1.1/DTD/svg11.dtd">
<!-- Generated by graphviz version 2.40.1 (20161225.0304)
 -->
<!-- Title: nlohmann::json_pointer::pop_back Pages: 1 -->
<svg width="278pt" height="88pt"
 viewBox="0.00 0.00 278.00 88.00" xmlns="http://www.w3.org/2000/svg" xmlns:xlink="http://www.w3.org/1999/xlink">
<g id="graph0" class="graph" transform="scale(1 1) rotate(0) translate(4 84)">
<title>nlohmann::json_pointer::pop_back</title>
<polygon fill="#ffffff" stroke="transparent" points="-4,4 -4,-84 274,-84 274,4 -4,4"/>
<!-- Node20 -->
<g id="node1" class="node">
<title>Node20</title>
<polygon fill="#bfbfbf" stroke="#000000" points="0,-24.5 0,-54.5 117,-54.5 117,-24.5 0,-24.5"/>
<text text-anchor="start" x="8" y="-42.5" font-family="Helvetica,sans-Serif" font-size="10.00" fill="#000000">nlohmann::json_pointer</text>
<text text-anchor="middle" x="58.5" y="-31.5" font-family="Helvetica,sans-Serif" font-size="10.00" fill="#000000">::pop_back</text>
</g>
<!-- Node21 -->
<g id="node2" class="node">
<title>Node21</title>
<g id="a_node2"><a xlink:href="classnlohmann_1_1json__pointer.html#afdaacce1edb7145e0434e014f0e8685a" target="_top" xlink:title="returns the parent of this JSON pointer ">
<polygon fill="#ffffff" stroke="#000000" points="153,-49.5 153,-79.5 270,-79.5 270,-49.5 153,-49.5"/>
<text text-anchor="start" x="161" y="-67.5" font-family="Helvetica,sans-Serif" font-size="10.00" fill="#000000">nlohmann::json_pointer</text>
<text text-anchor="middle" x="211.5" y="-56.5" font-family="Helvetica,sans-Serif" font-size="10.00" fill="#000000">::parent_pointer</text>
</a>
</g>
</g>
<!-- Node20&#45;&gt;Node21 -->
<g id="edge1" class="edge">
<title>Node20&#45;&gt;Node21</title>
<path fill="none" stroke="#191970" d="M127.2131,-50.7276C135.8031,-52.1312 144.5255,-53.5565 152.9409,-54.9315"/>
<polygon fill="#191970" stroke="#191970" points="127.6498,-47.2526 117.2162,-49.0942 126.5209,-54.161 127.6498,-47.2526"/>
</g>
<!-- Node22 -->
<g id="node3" class="node">
<title>Node22</title>
<g id="a_node3"><a xlink:href="classnlohmann_1_1basic__json.html#a81e0c41a4a9dff4df2f6973f7f8b2a83" target="_top" xlink:title="applies a JSON patch ">
<polygon fill="#ffffff" stroke="#000000" points="156,-.5 156,-30.5 267,-30.5 267,-.5 156,-.5"/>
<text text-anchor="start" x="164" y="-18.5" font-family="Helvetica,sans-Serif" font-size="10.00" fill="#000000">nlohmann::basic_json</text>
<text text-anchor="middle" x="211.5" y="-7.5" font-family="Helvetica,sans-Serif" font-size="10.00" fill="#000000">::patch</text>
</a>
</g>
</g>
<!-- Node20&#45;&gt;Node22 -->
<g id="edge2" class="edge">
<title>Node20&#45;&gt;Node22</title>
<path fill="none" stroke="#191970" d="M127.1708,-28.7281C136.8062,-27.2167 146.609,-25.679 155.9592,-24.2123"/>
<polygon fill="#191970" stroke="#191970" points="126.553,-25.2821 117.2162,-30.2896 127.6378,-32.1976 126.553,-25.2821"/>
</g>
</g>
</svg>
