<?xml version="1.0" encoding="UTF-8" standalone="no"?>
<!DOCTYPE svg PUBLIC "-//W3C//DTD SVG 1.1//EN"
 "http://www.w3.org/Graphics/SVG/1.1/DTD/svg11.dtd">
<!-- Generated by graphviz version 2.40.1 (20161225.0304)
 -->
<!-- Title: nlohmann::detail::iter_impl&lt; BasicJsonType &gt; Pages: 1 -->
<svg width="474pt" height="882pt"
 viewBox="0.00 0.00 473.66 882.00" xmlns="http://www.w3.org/2000/svg" xmlns:xlink="http://www.w3.org/1999/xlink">
<g id="graph0" class="graph" transform="scale(1 1) rotate(0) translate(4 878)">
<title>nlohmann::detail::iter_impl&lt; BasicJsonType &gt;</title>
<polygon fill="#ffffff" stroke="transparent" points="-4,4 -4,-878 469.6614,-878 469.6614,4 -4,4"/>
<!-- Node1 -->
<g id="node1" class="node">
<title>Node1</title>
<polygon fill="#bfbfbf" stroke="#000000" points="199.1614,-.5 199.1614,-200.5 324.1614,-200.5 324.1614,-.5 199.1614,-.5"/>
<text text-anchor="start" x="207.1614" y="-188.5" font-family="Helvetica,sans-Serif" font-size="10.00" fill="#000000">nlohmann::detail::iter</text>
<text text-anchor="middle" x="261.6614" y="-177.5" font-family="Helvetica,sans-Serif" font-size="10.00" fill="#000000">_impl&lt; BasicJsonType &gt;</text>
<polyline fill="none" stroke="#000000" points="199.1614,-170.5 324.1614,-170.5 "/>
<text text-anchor="middle" x="261.6614" y="-158.5" font-family="Helvetica,sans-Serif" font-size="10.00" fill="#000000"> </text>
<polyline fill="none" stroke="#000000" points="199.1614,-151.5 324.1614,-151.5 "/>
<text text-anchor="start" x="207.1614" y="-139.5" font-family="Helvetica,sans-Serif" font-size="10.00" fill="#000000">+ iter_impl()</text>
<text text-anchor="start" x="207.1614" y="-128.5" font-family="Helvetica,sans-Serif" font-size="10.00" fill="#000000">+ iter_impl()</text>
<text text-anchor="start" x="207.1614" y="-117.5" font-family="Helvetica,sans-Serif" font-size="10.00" fill="#000000">+ iter_impl()</text>
<text text-anchor="start" x="207.1614" y="-106.5" font-family="Helvetica,sans-Serif" font-size="10.00" fill="#000000">+ operator=()</text>
<text text-anchor="start" x="207.1614" y="-95.5" font-family="Helvetica,sans-Serif" font-size="10.00" fill="#000000">+ operator*()</text>
<text text-anchor="start" x="207.1614" y="-84.5" font-family="Helvetica,sans-Serif" font-size="10.00" fill="#000000">+ operator&#45;&gt;()</text>
<text text-anchor="start" x="207.1614" y="-73.5" font-family="Helvetica,sans-Serif" font-size="10.00" fill="#000000">+ operator++()</text>
<text text-anchor="start" x="207.1614" y="-62.5" font-family="Helvetica,sans-Serif" font-size="10.00" fill="#000000">+ operator++()</text>
<text text-anchor="start" x="207.1614" y="-51.5" font-family="Helvetica,sans-Serif" font-size="10.00" fill="#000000">+ operator&#45;&#45;()</text>
<text text-anchor="start" x="207.1614" y="-40.5" font-family="Helvetica,sans-Serif" font-size="10.00" fill="#000000">+ operator&#45;&#45;()</text>
<text text-anchor="start" x="207.1614" y="-29.5" font-family="Helvetica,sans-Serif" font-size="10.00" fill="#000000">and 14 more...</text>
<text text-anchor="start" x="207.1614" y="-18.5" font-family="Helvetica,sans-Serif" font-size="10.00" fill="#000000">&#45; set_begin()</text>
<text text-anchor="start" x="207.1614" y="-7.5" font-family="Helvetica,sans-Serif" font-size="10.00" fill="#000000">&#45; set_end()</text>
</g>
<!-- Node2 -->
<g id="node2" class="node">
<title>Node2</title>
<g id="a_node2"><a xlink:href="structnlohmann_1_1detail_1_1internal__iterator.html" target="_top" xlink:title="{nlohmann::detail::internal\l_iterator\&lt; typename std\l::remove_const\&lt; BasicJsonType\l \&gt;::type \&gt;\n||}">
<polygon fill="#ffffff" stroke="#000000" points="65.1614,-292.5 65.1614,-382.5 226.1614,-382.5 226.1614,-292.5 65.1614,-292.5"/>
<text text-anchor="start" x="73.1614" y="-370.5" font-family="Helvetica,sans-Serif" font-size="10.00" fill="#000000">nlohmann::detail::internal</text>
<text text-anchor="start" x="73.1614" y="-359.5" font-family="Helvetica,sans-Serif" font-size="10.00" fill="#000000">_iterator&lt; typename std</text>
<text text-anchor="start" x="73.1614" y="-348.5" font-family="Helvetica,sans-Serif" font-size="10.00" fill="#000000">::remove_const&lt; BasicJsonType</text>
<text text-anchor="middle" x="145.6614" y="-337.5" font-family="Helvetica,sans-Serif" font-size="10.00" fill="#000000"> &gt;::type &gt;</text>
<polyline fill="none" stroke="#000000" points="65.1614,-330.5 226.1614,-330.5 "/>
<text text-anchor="middle" x="145.6614" y="-318.5" font-family="Helvetica,sans-Serif" font-size="10.00" fill="#000000"> </text>
<polyline fill="none" stroke="#000000" points="65.1614,-311.5 226.1614,-311.5 "/>
<text text-anchor="middle" x="145.6614" y="-299.5" font-family="Helvetica,sans-Serif" font-size="10.00" fill="#000000"> </text>
</a>
</g>
</g>
<!-- Node2&#45;&gt;Node1 -->
<g id="edge1" class="edge">
<title>Node2&#45;&gt;Node1</title>
<path fill="none" stroke="#404040" d="M167.7532,-292.3643C179.0029,-269.38 193.2239,-240.3249 207.1731,-211.8253"/>
<polygon fill="none" stroke="#404040" points="207.2237,-211.7218 206.2687,-204.5742 212.4992,-200.9436 213.4542,-208.0912 207.2237,-211.7218"/>
<text text-anchor="middle" x="216.1614" y="-244" font-family="Helvetica,sans-Serif" font-size="10.00" fill="#000000"> &#45;m_it</text>
</g>
<!-- Node3 -->
<g id="node3" class="node">
<title>Node3</title>
<polygon fill="#ffffff" stroke="#bfbfbf" points="91.1614,-634.5 91.1614,-691.5 138.1614,-691.5 138.1614,-634.5 91.1614,-634.5"/>
<text text-anchor="middle" x="114.6614" y="-679.5" font-family="Helvetica,sans-Serif" font-size="10.00" fill="#000000">iterator</text>
<polyline fill="none" stroke="#bfbfbf" points="91.1614,-672.5 138.1614,-672.5 "/>
<text text-anchor="middle" x="114.6614" y="-660.5" font-family="Helvetica,sans-Serif" font-size="10.00" fill="#000000"> </text>
<polyline fill="none" stroke="#bfbfbf" points="91.1614,-653.5 138.1614,-653.5 "/>
<text text-anchor="middle" x="114.6614" y="-641.5" font-family="Helvetica,sans-Serif" font-size="10.00" fill="#000000"> </text>
</g>
<!-- Node3&#45;&gt;Node2 -->
<g id="edge2" class="edge">
<title>Node3&#45;&gt;Node2</title>
<path fill="none" stroke="#404040" d="M90.8994,-642.5235C50.434,-605.0421 -24.4122,-522.7456 8.6614,-452 19.9318,-427.8922 39.0507,-407.0767 59.4864,-390.0565"/>
<polygon fill="none" stroke="#404040" points="59.5669,-389.9922 61.7603,-383.1228 68.9449,-382.5053 66.7516,-389.3748 59.5669,-389.9922"/>
<text text-anchor="middle" x="42.1614" y="-484" font-family="Helvetica,sans-Serif" font-size="10.00" fill="#000000"> +array_iterator</text>
</g>
<!-- Node3&#45;&gt;Node2 -->
<g id="edge3" class="edge">
<title>Node3&#45;&gt;Node2</title>
<path fill="none" stroke="#404040" d="M109.9659,-634.4443C104.0769,-593.6702 95.9689,-516.5555 106.6614,-452 109.8716,-432.6189 115.9435,-412.1126 122.357,-393.8916"/>
<polygon fill="none" stroke="#404040" points="122.3712,-393.8523 120.669,-386.845 126.4825,-382.5785 128.1848,-389.5858 122.3712,-393.8523"/>
<text text-anchor="middle" x="142.1614" y="-484" font-family="Helvetica,sans-Serif" font-size="10.00" fill="#000000"> +object_iterator</text>
</g>
<!-- Node7 -->
<g id="node7" class="node">
<title>Node7</title>
<g id="a_node7"><a xlink:href="structnlohmann_1_1detail_1_1internal__iterator.html" target="_top" xlink:title="an iterator value ">
<polygon fill="#ffffff" stroke="#000000" points="187.1614,-452.5 187.1614,-520.5 324.1614,-520.5 324.1614,-452.5 187.1614,-452.5"/>
<text text-anchor="start" x="195.1614" y="-508.5" font-family="Helvetica,sans-Serif" font-size="10.00" fill="#000000">nlohmann::detail::internal</text>
<text text-anchor="middle" x="255.6614" y="-497.5" font-family="Helvetica,sans-Serif" font-size="10.00" fill="#000000">_iterator&lt; BasicJsonType &gt;</text>
<polyline fill="none" stroke="#000000" points="187.1614,-490.5 324.1614,-490.5 "/>
<text text-anchor="middle" x="255.6614" y="-478.5" font-family="Helvetica,sans-Serif" font-size="10.00" fill="#000000"> </text>
<polyline fill="none" stroke="#000000" points="187.1614,-471.5 324.1614,-471.5 "/>
<text text-anchor="middle" x="255.6614" y="-459.5" font-family="Helvetica,sans-Serif" font-size="10.00" fill="#000000"> </text>
</a>
</g>
</g>
<!-- Node3&#45;&gt;Node7 -->
<g id="edge8" class="edge">
<title>Node3&#45;&gt;Node7</title>
<path fill="none" stroke="#404040" d="M111.0542,-634.3836C109.2098,-607.1074 110.7949,-566.2631 131.6614,-539 132.1158,-538.4064 152.0191,-529.8991 175.7505,-519.8995"/>
<polygon fill="none" stroke="#404040" points="175.8061,-519.8761 179.7857,-513.8626 186.8673,-515.2231 182.8877,-521.2367 175.8061,-519.8761"/>
<text text-anchor="middle" x="165.1614" y="-542" font-family="Helvetica,sans-Serif" font-size="10.00" fill="#000000"> +array_iterator</text>
</g>
<!-- Node3&#45;&gt;Node7 -->
<g id="edge9" class="edge">
<title>Node3&#45;&gt;Node7</title>
<path fill="none" stroke="#404040" d="M137.6293,-634.2494C160.1181,-606.0986 194.6853,-562.8283 220.6089,-530.3778"/>
<polygon fill="none" stroke="#404040" points="220.8639,-530.0586 221.4836,-522.8742 228.3538,-520.683 227.734,-527.8674 220.8639,-530.0586"/>
<text text-anchor="middle" x="246.1614" y="-542" font-family="Helvetica,sans-Serif" font-size="10.00" fill="#000000"> +object_iterator</text>
</g>
<!-- Node4 -->
<g id="node4" class="node">
<title>Node4</title>
<g id="a_node4"><a xlink:href="classnlohmann_1_1detail_1_1primitive__iterator__t.html" target="_top" xlink:title="{nlohmann::detail::primitive\l_iterator_t\n||+ get_value()\l+ set_begin()\l+ set_end()\l+ is_begin()\l+ is_end()\l+ operator+()\l+ operator++()\l+ operator++()\l+ operator&#45;&#45;()\l+ operator&#45;&#45;()\l+ operator+=()\l+ operator&#45;=()\l}">
<polygon fill="#ffffff" stroke="#000000" points="297.1614,-568.5 297.1614,-757.5 428.1614,-757.5 428.1614,-568.5 297.1614,-568.5"/>
<text text-anchor="start" x="305.1614" y="-745.5" font-family="Helvetica,sans-Serif" font-size="10.00" fill="#000000">nlohmann::detail::primitive</text>
<text text-anchor="middle" x="362.6614" y="-734.5" font-family="Helvetica,sans-Serif" font-size="10.00" fill="#000000">_iterator_t</text>
<polyline fill="none" stroke="#000000" points="297.1614,-727.5 428.1614,-727.5 "/>
<text text-anchor="middle" x="362.6614" y="-715.5" font-family="Helvetica,sans-Serif" font-size="10.00" fill="#000000"> </text>
<polyline fill="none" stroke="#000000" points="297.1614,-708.5 428.1614,-708.5 "/>
<text text-anchor="start" x="305.1614" y="-696.5" font-family="Helvetica,sans-Serif" font-size="10.00" fill="#000000">+ get_value()</text>
<text text-anchor="start" x="305.1614" y="-685.5" font-family="Helvetica,sans-Serif" font-size="10.00" fill="#000000">+ set_begin()</text>
<text text-anchor="start" x="305.1614" y="-674.5" font-family="Helvetica,sans-Serif" font-size="10.00" fill="#000000">+ set_end()</text>
<text text-anchor="start" x="305.1614" y="-663.5" font-family="Helvetica,sans-Serif" font-size="10.00" fill="#000000">+ is_begin()</text>
<text text-anchor="start" x="305.1614" y="-652.5" font-family="Helvetica,sans-Serif" font-size="10.00" fill="#000000">+ is_end()</text>
<text text-anchor="start" x="305.1614" y="-641.5" font-family="Helvetica,sans-Serif" font-size="10.00" fill="#000000">+ operator+()</text>
<text text-anchor="start" x="305.1614" y="-630.5" font-family="Helvetica,sans-Serif" font-size="10.00" fill="#000000">+ operator++()</text>
<text text-anchor="start" x="305.1614" y="-619.5" font-family="Helvetica,sans-Serif" font-size="10.00" fill="#000000">+ operator++()</text>
<text text-anchor="start" x="305.1614" y="-608.5" font-family="Helvetica,sans-Serif" font-size="10.00" fill="#000000">+ operator&#45;&#45;()</text>
<text text-anchor="start" x="305.1614" y="-597.5" font-family="Helvetica,sans-Serif" font-size="10.00" fill="#000000">+ operator&#45;&#45;()</text>
<text text-anchor="start" x="305.1614" y="-586.5" font-family="Helvetica,sans-Serif" font-size="10.00" fill="#000000">+ operator+=()</text>
<text text-anchor="start" x="305.1614" y="-575.5" font-family="Helvetica,sans-Serif" font-size="10.00" fill="#000000">+ operator&#45;=()</text>
</a>
</g>
</g>
<!-- Node4&#45;&gt;Node2 -->
<g id="edge4" class="edge">
<title>Node4&#45;&gt;Node2</title>
<path fill="none" stroke="#404040" d="M382.4801,-568.2459C383.3431,-562.0895 384.0859,-555.9682 384.6614,-550 391.0821,-483.4229 336.9461,-408.6031 327.6614,-401 298.1336,-376.8199 278.572,-393.1848 238.0939,-383.0991"/>
<polygon fill="none" stroke="#404040" points="237.9063,-383.0431 231.012,-385.1571 226.4089,-379.6063 233.3032,-377.4922 237.9063,-383.0431"/>
<text text-anchor="middle" x="424.6614" y="-484" font-family="Helvetica,sans-Serif" font-size="10.00" fill="#000000"> +primitive_iterator</text>
</g>
<!-- Node4&#45;&gt;Node7 -->
<g id="edge10" class="edge">
<title>Node4&#45;&gt;Node7</title>
<path fill="none" stroke="#404040" d="M310.508,-568.309C304.6261,-558.3302 298.6075,-548.4021 292.6614,-539 290.933,-536.267 289.1214,-533.4794 287.2676,-530.6848"/>
<polygon fill="none" stroke="#404040" points="287.1771,-530.5513 280.4993,-527.8296 280.4433,-520.6187 287.1211,-523.3404 287.1771,-530.5513"/>
<text text-anchor="middle" x="339.6614" y="-542" font-family="Helvetica,sans-Serif" font-size="10.00" fill="#000000"> +primitive_iterator</text>
</g>
<!-- Node5 -->
<g id="node5" class="node">
<title>Node5</title>
<polygon fill="#ffffff" stroke="#bfbfbf" points="223.6614,-816.5 223.6614,-873.5 379.6614,-873.5 379.6614,-816.5 223.6614,-816.5"/>
<text text-anchor="middle" x="301.6614" y="-861.5" font-family="Helvetica,sans-Serif" font-size="10.00" fill="#000000">static constexpr difference_type</text>
<polyline fill="none" stroke="#bfbfbf" points="223.6614,-854.5 379.6614,-854.5 "/>
<text text-anchor="middle" x="301.6614" y="-842.5" font-family="Helvetica,sans-Serif" font-size="10.00" fill="#000000"> </text>
<polyline fill="none" stroke="#bfbfbf" points="223.6614,-835.5 379.6614,-835.5 "/>
<text text-anchor="middle" x="301.6614" y="-823.5" font-family="Helvetica,sans-Serif" font-size="10.00" fill="#000000"> </text>
</g>
<!-- Node5&#45;&gt;Node4 -->
<g id="edge5" class="edge">
<title>Node5&#45;&gt;Node4</title>
<path fill="none" stroke="#404040" d="M311.3271,-816.1616C315.7363,-803.006 321.2584,-786.5304 327.0329,-769.3014"/>
<polygon fill="none" stroke="#404040" points="327.0414,-769.2759 325.1555,-762.3158 330.855,-757.898 332.7408,-764.8581 327.0414,-769.2759"/>
<text text-anchor="middle" x="350.1614" y="-790" font-family="Helvetica,sans-Serif" font-size="10.00" fill="#000000"> &#45;end_value</text>
<text text-anchor="middle" x="350.1614" y="-779" font-family="Helvetica,sans-Serif" font-size="10.00" fill="#000000">&#45;begin_value</text>
</g>
<!-- Node6 -->
<g id="node6" class="node">
<title>Node6</title>
<polygon fill="#ffffff" stroke="#bfbfbf" points="397.6614,-816.5 397.6614,-873.5 447.6614,-873.5 447.6614,-816.5 397.6614,-816.5"/>
<text text-anchor="middle" x="422.6614" y="-861.5" font-family="Helvetica,sans-Serif" font-size="10.00" fill="#000000">ptrdiff_t</text>
<polyline fill="none" stroke="#bfbfbf" points="397.6614,-854.5 447.6614,-854.5 "/>
<text text-anchor="middle" x="422.6614" y="-842.5" font-family="Helvetica,sans-Serif" font-size="10.00" fill="#000000"> </text>
<polyline fill="none" stroke="#bfbfbf" points="397.6614,-835.5 447.6614,-835.5 "/>
<text text-anchor="middle" x="422.6614" y="-823.5" font-family="Helvetica,sans-Serif" font-size="10.00" fill="#000000"> </text>
</g>
<!-- Node6&#45;&gt;Node4 -->
<g id="edge6" class="edge">
<title>Node6&#45;&gt;Node4</title>
<path fill="none" stroke="#404040" d="M413.1543,-816.1616C408.8173,-803.006 403.3857,-786.5304 397.7058,-769.3014"/>
<polygon fill="none" stroke="#404040" points="397.7037,-769.2947 392.0262,-764.8487 393.9465,-757.898 399.624,-762.3439 397.7037,-769.2947"/>
<text text-anchor="middle" x="418.1614" y="-784.5" font-family="Helvetica,sans-Serif" font-size="10.00" fill="#000000"> &#45;m_it</text>
</g>
<!-- Node7&#45;&gt;Node2 -->
<g id="edge7" class="edge">
<title>Node7&#45;&gt;Node2</title>
<path fill="none" stroke="#ffa500" d="M224.3109,-444.0343C210.118,-424.8094 193.3298,-402.0689 178.9163,-382.5452"/>
<polygon fill="#ffa500" stroke="#ffa500" points="221.67,-446.35 230.4252,-452.3164 227.3016,-442.1925 221.67,-446.35"/>
<text text-anchor="start" x="213.6614" y="-426" font-family="Helvetica,sans-Serif" font-size="10.00" fill="#000000"> &lt; typename std::remove</text>
<text text-anchor="start" x="213.6614" y="-415" font-family="Helvetica,sans-Serif" font-size="10.00" fill="#000000">_const&lt; BasicJsonType</text>
<text text-anchor="middle" x="268.6614" y="-404" font-family="Helvetica,sans-Serif" font-size="10.00" fill="#000000"> &gt;::type &gt;</text>
</g>
<!-- Node8 -->
<g id="node8" class="node">
<title>Node8</title>
<polygon fill="#ffffff" stroke="#bfbfbf" points="244.1614,-309 244.1614,-366 279.1614,-366 279.1614,-309 244.1614,-309"/>
<text text-anchor="middle" x="261.6614" y="-354" font-family="Helvetica,sans-Serif" font-size="10.00" fill="#000000">type</text>
<polyline fill="none" stroke="#bfbfbf" points="244.1614,-347 279.1614,-347 "/>
<text text-anchor="middle" x="261.6614" y="-335" font-family="Helvetica,sans-Serif" font-size="10.00" fill="#000000"> </text>
<polyline fill="none" stroke="#bfbfbf" points="244.1614,-328 279.1614,-328 "/>
<text text-anchor="middle" x="261.6614" y="-316" font-family="Helvetica,sans-Serif" font-size="10.00" fill="#000000"> </text>
</g>
<!-- Node8&#45;&gt;Node1 -->
<g id="edge11" class="edge">
<title>Node8&#45;&gt;Node1</title>
<path fill="none" stroke="#404040" d="M261.6614,-308.9123C261.6614,-284.6885 261.6614,-248.3042 261.6614,-212.6833"/>
<polygon fill="none" stroke="#404040" points="261.6615,-212.6511 257.6615,-206.6511 261.6614,-200.6511 265.6615,-206.651 261.6615,-212.6511"/>
<text text-anchor="middle" x="284.6614" y="-244" font-family="Helvetica,sans-Serif" font-size="10.00" fill="#000000"> &#45;m_object</text>
</g>
<!-- Node9 -->
<g id="node9" class="node">
<title>Node9</title>
<polygon fill="#ffffff" stroke="#bfbfbf" points="310.1614,-309 310.1614,-366 351.1614,-366 351.1614,-309 310.1614,-309"/>
<text text-anchor="middle" x="330.6614" y="-354" font-family="Helvetica,sans-Serif" font-size="10.00" fill="#000000">friend</text>
<polyline fill="none" stroke="#bfbfbf" points="310.1614,-347 351.1614,-347 "/>
<text text-anchor="middle" x="330.6614" y="-335" font-family="Helvetica,sans-Serif" font-size="10.00" fill="#000000"> </text>
<polyline fill="none" stroke="#bfbfbf" points="310.1614,-328 351.1614,-328 "/>
<text text-anchor="middle" x="330.6614" y="-316" font-family="Helvetica,sans-Serif" font-size="10.00" fill="#000000"> </text>
</g>
<!-- Node9&#45;&gt;Node1 -->
<g id="edge12" class="edge">
<title>Node9&#45;&gt;Node1</title>
<path fill="none" stroke="#404040" d="M326.9398,-308.8872C323.412,-284.6594 317.3528,-249.1593 308.6614,-219 308.0064,-216.7271 307.3242,-214.4375 306.6182,-212.1365"/>
<polygon fill="none" stroke="#404040" points="306.5706,-211.9878 300.9291,-207.4963 302.9054,-200.5612 308.5468,-205.0528 306.5706,-211.9878"/>
<text text-anchor="start" x="320.6614" y="-266" font-family="Helvetica,sans-Serif" font-size="10.00" fill="#000000"> &#45;iteration_proxy_value</text>
<text text-anchor="middle" x="370.1614" y="-255" font-family="Helvetica,sans-Serif" font-size="10.00" fill="#000000">&lt; iter_impl &gt;</text>
<text text-anchor="start" x="320.6614" y="-244" font-family="Helvetica,sans-Serif" font-size="10.00" fill="#000000">&#45;iteration_proxy&lt; iter</text>
<text text-anchor="middle" x="370.1614" y="-233" font-family="Helvetica,sans-Serif" font-size="10.00" fill="#000000">_impl &gt;</text>
<text text-anchor="middle" x="370.1614" y="-222" font-family="Helvetica,sans-Serif" font-size="10.00" fill="#000000">&#45;BasicJsonType</text>
</g>
</g>
</svg>
