<?xml version="1.0" encoding="UTF-8" standalone="no"?>
<!DOCTYPE svg PUBLIC "-//W3C//DTD SVG 1.1//EN"
 "http://www.w3.org/Graphics/SVG/1.1/DTD/svg11.dtd">
<!-- Generated by graphviz version 2.40.1 (20161225.0304)
 -->
<!-- Title: nlohmann::detail::lexer&lt; BasicJsonType &gt; Pages: 1 -->
<svg width="1092pt" height="639pt"
 viewBox="0.00 0.00 1092.00 639.00" xmlns="http://www.w3.org/2000/svg" xmlns:xlink="http://www.w3.org/1999/xlink">
<g id="graph0" class="graph" transform="scale(1 1) rotate(0) translate(4 635)">
<title>nlohmann::detail::lexer&lt; BasicJsonType &gt;</title>
<polygon fill="#ffffff" stroke="transparent" points="-4,4 -4,-635 1088,-635 1088,4 -4,4"/>
<!-- Node1 -->
<g id="node1" class="node">
<title>Node1</title>
<polygon fill="#bfbfbf" stroke="#000000" points="475.5,-.5 475.5,-376.5 602.5,-376.5 602.5,-.5 475.5,-.5"/>
<text text-anchor="start" x="483.5" y="-364.5" font-family="Helvetica,sans-Serif" font-size="10.00" fill="#000000">nlohmann::detail::lexer</text>
<text text-anchor="middle" x="539" y="-353.5" font-family="Helvetica,sans-Serif" font-size="10.00" fill="#000000">&lt; BasicJsonType &gt;</text>
<polyline fill="none" stroke="#000000" points="475.5,-346.5 602.5,-346.5 "/>
<text text-anchor="middle" x="539" y="-334.5" font-family="Helvetica,sans-Serif" font-size="10.00" fill="#000000"> </text>
<polyline fill="none" stroke="#000000" points="475.5,-327.5 602.5,-327.5 "/>
<text text-anchor="start" x="483.5" y="-315.5" font-family="Helvetica,sans-Serif" font-size="10.00" fill="#000000">+ lexer()</text>
<text text-anchor="start" x="483.5" y="-304.5" font-family="Helvetica,sans-Serif" font-size="10.00" fill="#000000">+ lexer()</text>
<text text-anchor="start" x="483.5" y="-293.5" font-family="Helvetica,sans-Serif" font-size="10.00" fill="#000000">+ lexer()</text>
<text text-anchor="start" x="483.5" y="-282.5" font-family="Helvetica,sans-Serif" font-size="10.00" fill="#000000">+ operator=()</text>
<text text-anchor="start" x="483.5" y="-271.5" font-family="Helvetica,sans-Serif" font-size="10.00" fill="#000000">+ operator=()</text>
<text text-anchor="start" x="483.5" y="-260.5" font-family="Helvetica,sans-Serif" font-size="10.00" fill="#000000">+ ~lexer()</text>
<text text-anchor="start" x="483.5" y="-249.5" font-family="Helvetica,sans-Serif" font-size="10.00" fill="#000000">+ get_number_integer()</text>
<text text-anchor="start" x="483.5" y="-238.5" font-family="Helvetica,sans-Serif" font-size="10.00" fill="#000000">+ get_number_unsigned()</text>
<text text-anchor="start" x="483.5" y="-227.5" font-family="Helvetica,sans-Serif" font-size="10.00" fill="#000000">+ get_number_float()</text>
<text text-anchor="start" x="483.5" y="-216.5" font-family="Helvetica,sans-Serif" font-size="10.00" fill="#000000">+ get_string()</text>
<text text-anchor="start" x="483.5" y="-205.5" font-family="Helvetica,sans-Serif" font-size="10.00" fill="#000000">+ get_position()</text>
<text text-anchor="start" x="483.5" y="-194.5" font-family="Helvetica,sans-Serif" font-size="10.00" fill="#000000">+ get_token_string()</text>
<text text-anchor="start" x="483.5" y="-183.5" font-family="Helvetica,sans-Serif" font-size="10.00" fill="#000000">+ get_error_message()</text>
<text text-anchor="start" x="483.5" y="-172.5" font-family="Helvetica,sans-Serif" font-size="10.00" fill="#000000">+ skip_bom()</text>
<text text-anchor="start" x="483.5" y="-161.5" font-family="Helvetica,sans-Serif" font-size="10.00" fill="#000000">+ scan()</text>
<text text-anchor="start" x="483.5" y="-150.5" font-family="Helvetica,sans-Serif" font-size="10.00" fill="#000000">+ token_type_name()</text>
<text text-anchor="start" x="483.5" y="-139.5" font-family="Helvetica,sans-Serif" font-size="10.00" fill="#000000">&#45; get_codepoint()</text>
<text text-anchor="start" x="483.5" y="-128.5" font-family="Helvetica,sans-Serif" font-size="10.00" fill="#000000">&#45; next_byte_in_range()</text>
<text text-anchor="start" x="483.5" y="-117.5" font-family="Helvetica,sans-Serif" font-size="10.00" fill="#000000">&#45; scan_string()</text>
<text text-anchor="start" x="483.5" y="-106.5" font-family="Helvetica,sans-Serif" font-size="10.00" fill="#000000">&#45; scan_number()</text>
<text text-anchor="start" x="483.5" y="-95.5" font-family="Helvetica,sans-Serif" font-size="10.00" fill="#000000">&#45; scan_literal()</text>
<text text-anchor="start" x="483.5" y="-84.5" font-family="Helvetica,sans-Serif" font-size="10.00" fill="#000000">&#45; reset()</text>
<text text-anchor="start" x="483.5" y="-73.5" font-family="Helvetica,sans-Serif" font-size="10.00" fill="#000000">&#45; get()</text>
<text text-anchor="start" x="483.5" y="-62.5" font-family="Helvetica,sans-Serif" font-size="10.00" fill="#000000">&#45; unget()</text>
<text text-anchor="start" x="483.5" y="-51.5" font-family="Helvetica,sans-Serif" font-size="10.00" fill="#000000">&#45; add()</text>
<text text-anchor="start" x="483.5" y="-40.5" font-family="Helvetica,sans-Serif" font-size="10.00" fill="#000000">&#45; get_decimal_point()</text>
<text text-anchor="start" x="483.5" y="-29.5" font-family="Helvetica,sans-Serif" font-size="10.00" fill="#000000">&#45; strtof()</text>
<text text-anchor="start" x="483.5" y="-18.5" font-family="Helvetica,sans-Serif" font-size="10.00" fill="#000000">&#45; strtof()</text>
<text text-anchor="start" x="483.5" y="-7.5" font-family="Helvetica,sans-Serif" font-size="10.00" fill="#000000">&#45; strtof()</text>
</g>
<!-- Node2 -->
<g id="node2" class="node">
<title>Node2</title>
<g id="a_node2"><a xlink:href="structnlohmann_1_1detail_1_1position__t.html" target="_top" xlink:title="struct to capture the start position of the current token ">
<polygon fill="#ffffff" stroke="#000000" points="0,-430 0,-487 136,-487 136,-430 0,-430"/>
<text text-anchor="middle" x="68" y="-475" font-family="Helvetica,sans-Serif" font-size="10.00" fill="#000000">nlohmann::detail::position_t</text>
<polyline fill="none" stroke="#000000" points="0,-468 136,-468 "/>
<text text-anchor="middle" x="68" y="-456" font-family="Helvetica,sans-Serif" font-size="10.00" fill="#000000"> </text>
<polyline fill="none" stroke="#000000" points="0,-449 136,-449 "/>
<text text-anchor="start" x="8" y="-437" font-family="Helvetica,sans-Serif" font-size="10.00" fill="#000000">+ operator size_t()</text>
</a>
</g>
</g>
<!-- Node2&#45;&gt;Node1 -->
<g id="edge1" class="edge">
<title>Node2&#45;&gt;Node1</title>
<path fill="none" stroke="#404040" d="M117.9593,-429.8609C201.0236,-382.2444 367.955,-286.5512 464.8096,-231.0295"/>
<polygon fill="none" stroke="#404040" points="464.9878,-230.9274 468.2038,-224.4732 475.3985,-224.9594 472.1825,-231.4137 464.9878,-230.9274"/>
<text text-anchor="middle" x="190" y="-398" font-family="Helvetica,sans-Serif" font-size="10.00" fill="#000000"> &#45;position</text>
</g>
<!-- Node3 -->
<g id="node3" class="node">
<title>Node3</title>
<polygon fill="#ffffff" stroke="#bfbfbf" points="46.5,-573.5 46.5,-630.5 89.5,-630.5 89.5,-573.5 46.5,-573.5"/>
<text text-anchor="middle" x="68" y="-618.5" font-family="Helvetica,sans-Serif" font-size="10.00" fill="#000000">size_t</text>
<polyline fill="none" stroke="#bfbfbf" points="46.5,-611.5 89.5,-611.5 "/>
<text text-anchor="middle" x="68" y="-599.5" font-family="Helvetica,sans-Serif" font-size="10.00" fill="#000000"> </text>
<polyline fill="none" stroke="#bfbfbf" points="46.5,-592.5 89.5,-592.5 "/>
<text text-anchor="middle" x="68" y="-580.5" font-family="Helvetica,sans-Serif" font-size="10.00" fill="#000000"> </text>
</g>
<!-- Node3&#45;&gt;Node2 -->
<g id="edge2" class="edge">
<title>Node3&#45;&gt;Node2</title>
<path fill="none" stroke="#404040" d="M68,-573.3055C68,-552.0904 68,-522.9058 68,-499.2714"/>
<polygon fill="none" stroke="#404040" points="68.0001,-499.1447 64,-493.1448 68,-487.1447 72,-493.1447 68.0001,-499.1447"/>
<text text-anchor="middle" x="113" y="-547" font-family="Helvetica,sans-Serif" font-size="10.00" fill="#000000"> +chars_read_total</text>
<text text-anchor="start" x="68" y="-536" font-family="Helvetica,sans-Serif" font-size="10.00" fill="#000000">+chars_read_current</text>
<text text-anchor="middle" x="113" y="-525" font-family="Helvetica,sans-Serif" font-size="10.00" fill="#000000">_line</text>
<text text-anchor="middle" x="113" y="-514" font-family="Helvetica,sans-Serif" font-size="10.00" fill="#000000">+lines_read</text>
</g>
<!-- Node4 -->
<g id="node4" class="node">
<title>Node4</title>
<polygon fill="#ffffff" stroke="#bfbfbf" points="154.5,-430 154.5,-487 235.5,-487 235.5,-430 154.5,-430"/>
<text text-anchor="middle" x="195" y="-475" font-family="Helvetica,sans-Serif" font-size="10.00" fill="#000000">number_float_t</text>
<polyline fill="none" stroke="#bfbfbf" points="154.5,-468 235.5,-468 "/>
<text text-anchor="middle" x="195" y="-456" font-family="Helvetica,sans-Serif" font-size="10.00" fill="#000000"> </text>
<polyline fill="none" stroke="#bfbfbf" points="154.5,-449 235.5,-449 "/>
<text text-anchor="middle" x="195" y="-437" font-family="Helvetica,sans-Serif" font-size="10.00" fill="#000000"> </text>
</g>
<!-- Node4&#45;&gt;Node1 -->
<g id="edge3" class="edge">
<title>Node4&#45;&gt;Node1</title>
<path fill="none" stroke="#404040" d="M229.3095,-429.8193C242.5715,-418.835 257.9195,-406.2464 272,-395 336.8726,-343.1849 411.7207,-285.4723 465.632,-244.2611"/>
<polygon fill="none" stroke="#404040" points="465.9115,-244.0476 468.2514,-237.2267 475.4476,-236.7632 473.1077,-243.5841 465.9115,-244.0476"/>
<text text-anchor="middle" x="299" y="-398" font-family="Helvetica,sans-Serif" font-size="10.00" fill="#000000"> &#45;value_float</text>
</g>
<!-- Node5 -->
<g id="node5" class="node">
<title>Node5</title>
<polygon fill="#ffffff" stroke="#bfbfbf" points="253.5,-430 253.5,-487 304.5,-487 304.5,-430 253.5,-430"/>
<text text-anchor="middle" x="279" y="-475" font-family="Helvetica,sans-Serif" font-size="10.00" fill="#000000">int_type</text>
<polyline fill="none" stroke="#bfbfbf" points="253.5,-468 304.5,-468 "/>
<text text-anchor="middle" x="279" y="-456" font-family="Helvetica,sans-Serif" font-size="10.00" fill="#000000"> </text>
<polyline fill="none" stroke="#bfbfbf" points="253.5,-449 304.5,-449 "/>
<text text-anchor="middle" x="279" y="-437" font-family="Helvetica,sans-Serif" font-size="10.00" fill="#000000"> </text>
</g>
<!-- Node5&#45;&gt;Node1 -->
<g id="edge4" class="edge">
<title>Node5&#45;&gt;Node1</title>
<path fill="none" stroke="#404040" d="M304.5148,-431.9208C315.439,-420.5456 328.3411,-407.1175 340,-395 382.0418,-351.3045 429.1209,-302.4477 466.9292,-263.2299"/>
<polygon fill="none" stroke="#404040" points="467.0135,-263.1425 468.2983,-256.0468 475.3423,-254.5036 474.0576,-261.5993 467.0135,-263.1425"/>
<text text-anchor="middle" x="358.5" y="-398" font-family="Helvetica,sans-Serif" font-size="10.00" fill="#000000"> &#45;current</text>
</g>
<!-- Node6 -->
<g id="node6" class="node">
<title>Node6</title>
<polygon fill="#ffffff" stroke="#bfbfbf" points="322.5,-430 322.5,-487 371.5,-487 371.5,-430 322.5,-430"/>
<text text-anchor="middle" x="347" y="-475" font-family="Helvetica,sans-Serif" font-size="10.00" fill="#000000">string_t</text>
<polyline fill="none" stroke="#bfbfbf" points="322.5,-468 371.5,-468 "/>
<text text-anchor="middle" x="347" y="-456" font-family="Helvetica,sans-Serif" font-size="10.00" fill="#000000"> </text>
<polyline fill="none" stroke="#bfbfbf" points="322.5,-449 371.5,-449 "/>
<text text-anchor="middle" x="347" y="-437" font-family="Helvetica,sans-Serif" font-size="10.00" fill="#000000"> </text>
</g>
<!-- Node6&#45;&gt;Node1 -->
<g id="edge5" class="edge">
<title>Node6&#45;&gt;Node1</title>
<path fill="none" stroke="#404040" d="M365.0201,-429.8185C372.0511,-418.8341 380.2676,-406.2456 388,-395 413.5313,-357.8689 442.5438,-317.7334 468.2676,-282.8076"/>
<polygon fill="none" stroke="#404040" points="468.3048,-282.7572 468.649,-275.5543 475.4302,-273.1017 475.086,-280.3046 468.3048,-282.7572"/>
<text text-anchor="middle" x="418.5" y="-398" font-family="Helvetica,sans-Serif" font-size="10.00" fill="#000000"> &#45;token_buffer</text>
</g>
<!-- Node7 -->
<g id="node7" class="node">
<title>Node7</title>
<polygon fill="#ffffff" stroke="#bfbfbf" points="390,-430 390,-487 470,-487 470,-430 390,-430"/>
<text text-anchor="middle" x="430" y="-475" font-family="Helvetica,sans-Serif" font-size="10.00" fill="#000000">vector&lt; char &gt;</text>
<polyline fill="none" stroke="#bfbfbf" points="390,-468 470,-468 "/>
<text text-anchor="middle" x="430" y="-456" font-family="Helvetica,sans-Serif" font-size="10.00" fill="#000000"> </text>
<polyline fill="none" stroke="#bfbfbf" points="390,-449 470,-449 "/>
<text text-anchor="middle" x="430" y="-437" font-family="Helvetica,sans-Serif" font-size="10.00" fill="#000000"> </text>
</g>
<!-- Node7&#45;&gt;Node1 -->
<g id="edge6" class="edge">
<title>Node7&#45;&gt;Node1</title>
<path fill="none" stroke="#404040" d="M441.5617,-429.8609C449.0831,-411.2298 459.5759,-385.2385 470.9061,-357.1731"/>
<polygon fill="none" stroke="#404040" points="470.9651,-357.0268 469.502,-349.9656 475.4573,-345.8993 476.9203,-352.9605 470.9651,-357.0268"/>
<text text-anchor="middle" x="483" y="-398" font-family="Helvetica,sans-Serif" font-size="10.00" fill="#000000"> &#45;token_string</text>
</g>
<!-- Node8 -->
<g id="node8" class="node">
<title>Node8</title>
<polygon fill="#ffffff" stroke="#bfbfbf" points="488.5,-430 488.5,-487 589.5,-487 589.5,-430 488.5,-430"/>
<text text-anchor="middle" x="539" y="-475" font-family="Helvetica,sans-Serif" font-size="10.00" fill="#000000">number_unsigned_t</text>
<polyline fill="none" stroke="#bfbfbf" points="488.5,-468 589.5,-468 "/>
<text text-anchor="middle" x="539" y="-456" font-family="Helvetica,sans-Serif" font-size="10.00" fill="#000000"> </text>
<polyline fill="none" stroke="#bfbfbf" points="488.5,-449 589.5,-449 "/>
<text text-anchor="middle" x="539" y="-437" font-family="Helvetica,sans-Serif" font-size="10.00" fill="#000000"> </text>
</g>
<!-- Node8&#45;&gt;Node1 -->
<g id="edge7" class="edge">
<title>Node8&#45;&gt;Node1</title>
<path fill="none" stroke="#404040" d="M539,-429.8609C539,-418.5051 539,-404.4149 539,-388.7874"/>
<polygon fill="none" stroke="#404040" points="539.0001,-388.557 535,-382.5571 539,-376.557 543,-382.557 539.0001,-388.557"/>
<text text-anchor="middle" x="576" y="-398" font-family="Helvetica,sans-Serif" font-size="10.00" fill="#000000"> &#45;value_unsigned</text>
</g>
<!-- Node9 -->
<g id="node9" class="node">
<title>Node9</title>
<polygon fill="#ffffff" stroke="#bfbfbf" points="608,-424.5 608,-492.5 738,-492.5 738,-424.5 608,-424.5"/>
<text text-anchor="start" x="616" y="-480.5" font-family="Helvetica,sans-Serif" font-size="10.00" fill="#000000">shared_ptr&lt; input_adapter</text>
<text text-anchor="middle" x="673" y="-469.5" font-family="Helvetica,sans-Serif" font-size="10.00" fill="#000000">_protocol &gt;</text>
<polyline fill="none" stroke="#bfbfbf" points="608,-462.5 738,-462.5 "/>
<text text-anchor="middle" x="673" y="-450.5" font-family="Helvetica,sans-Serif" font-size="10.00" fill="#000000"> </text>
<polyline fill="none" stroke="#bfbfbf" points="608,-443.5 738,-443.5 "/>
<text text-anchor="middle" x="673" y="-431.5" font-family="Helvetica,sans-Serif" font-size="10.00" fill="#000000"> </text>
</g>
<!-- Node9&#45;&gt;Node1 -->
<g id="edge8" class="edge">
<title>Node9&#45;&gt;Node1</title>
<path fill="none" stroke="#404040" d="M656.0288,-424.3043C643.6472,-399.3564 625.9698,-363.7376 608.0934,-327.7181"/>
<polygon fill="none" stroke="#404040" points="607.8796,-327.2871 601.6292,-323.6909 602.5448,-316.5381 608.7952,-320.1344 607.8796,-327.2871"/>
<text text-anchor="middle" x="651" y="-398" font-family="Helvetica,sans-Serif" font-size="10.00" fill="#000000"> &#45;ia</text>
</g>
<!-- Node10 -->
<g id="node10" class="node">
<title>Node10</title>
<polygon fill="#ffffff" stroke="#bfbfbf" points="756,-430 756,-487 848,-487 848,-430 756,-430"/>
<text text-anchor="middle" x="802" y="-475" font-family="Helvetica,sans-Serif" font-size="10.00" fill="#000000">number_integer_t</text>
<polyline fill="none" stroke="#bfbfbf" points="756,-468 848,-468 "/>
<text text-anchor="middle" x="802" y="-456" font-family="Helvetica,sans-Serif" font-size="10.00" fill="#000000"> </text>
<polyline fill="none" stroke="#bfbfbf" points="756,-449 848,-449 "/>
<text text-anchor="middle" x="802" y="-437" font-family="Helvetica,sans-Serif" font-size="10.00" fill="#000000"> </text>
</g>
<!-- Node10&#45;&gt;Node1 -->
<g id="edge9" class="edge">
<title>Node10&#45;&gt;Node1</title>
<path fill="none" stroke="#404040" d="M774.1034,-429.8609C735.6418,-390.3756 664.9782,-317.8312 611.1279,-262.5476"/>
<polygon fill="none" stroke="#404040" points="611.0103,-262.4269 603.9584,-260.9199 602.6371,-253.8309 609.689,-255.3378 611.0103,-262.4269"/>
<text text-anchor="middle" x="777" y="-398" font-family="Helvetica,sans-Serif" font-size="10.00" fill="#000000"> &#45;value_integer</text>
</g>
<!-- Node11 -->
<g id="node11" class="node">
<title>Node11</title>
<polygon fill="#ffffff" stroke="#bfbfbf" points="866.5,-430 866.5,-487 901.5,-487 901.5,-430 866.5,-430"/>
<text text-anchor="middle" x="884" y="-475" font-family="Helvetica,sans-Serif" font-size="10.00" fill="#000000">bool</text>
<polyline fill="none" stroke="#bfbfbf" points="866.5,-468 901.5,-468 "/>
<text text-anchor="middle" x="884" y="-456" font-family="Helvetica,sans-Serif" font-size="10.00" fill="#000000"> </text>
<polyline fill="none" stroke="#bfbfbf" points="866.5,-449 901.5,-449 "/>
<text text-anchor="middle" x="884" y="-437" font-family="Helvetica,sans-Serif" font-size="10.00" fill="#000000"> </text>
</g>
<!-- Node11&#45;&gt;Node1 -->
<g id="edge10" class="edge">
<title>Node11&#45;&gt;Node1</title>
<path fill="none" stroke="#404040" d="M866.2017,-434.0332C863.2749,-430.5314 860.1605,-427.0775 857,-424 780.6893,-349.6934 680.1725,-279.0131 612.7591,-234.8213"/>
<polygon fill="none" stroke="#404040" points="612.6988,-234.782 605.4881,-234.8558 602.6466,-228.2281 609.8574,-228.1543 612.6988,-234.782"/>
<text text-anchor="middle" x="860.5" y="-398" font-family="Helvetica,sans-Serif" font-size="10.00" fill="#000000"> &#45;next_unget</text>
</g>
<!-- Node12 -->
<g id="node12" class="node">
<title>Node12</title>
<polygon fill="#ffffff" stroke="#bfbfbf" points="923.5,-430 923.5,-487 992.5,-487 992.5,-430 923.5,-430"/>
<text text-anchor="middle" x="958" y="-475" font-family="Helvetica,sans-Serif" font-size="10.00" fill="#000000">const char *</text>
<polyline fill="none" stroke="#bfbfbf" points="923.5,-468 992.5,-468 "/>
<text text-anchor="middle" x="958" y="-456" font-family="Helvetica,sans-Serif" font-size="10.00" fill="#000000"> </text>
<polyline fill="none" stroke="#bfbfbf" points="923.5,-449 992.5,-449 "/>
<text text-anchor="middle" x="958" y="-437" font-family="Helvetica,sans-Serif" font-size="10.00" fill="#000000"> </text>
</g>
<!-- Node12&#45;&gt;Node1 -->
<g id="edge11" class="edge">
<title>Node12&#45;&gt;Node1</title>
<path fill="none" stroke="#404040" d="M931.0601,-429.7582C919.5811,-418.2818 905.6947,-405.3612 892,-395 801.9252,-326.8509 687.4835,-263.6576 613.7426,-225.5775"/>
<polygon fill="none" stroke="#404040" points="613.3911,-225.397 606.2264,-226.2137 602.7168,-219.9143 609.8815,-219.0975 613.3911,-225.397"/>
<text text-anchor="middle" x="938.5" y="-398" font-family="Helvetica,sans-Serif" font-size="10.00" fill="#000000"> &#45;error_message</text>
</g>
<!-- Node13 -->
<g id="node13" class="node">
<title>Node13</title>
<polygon fill="#ffffff" stroke="#bfbfbf" points="1021,-430 1021,-487 1083,-487 1083,-430 1021,-430"/>
<text text-anchor="middle" x="1052" y="-475" font-family="Helvetica,sans-Serif" font-size="10.00" fill="#000000">const char</text>
<polyline fill="none" stroke="#bfbfbf" points="1021,-468 1083,-468 "/>
<text text-anchor="middle" x="1052" y="-456" font-family="Helvetica,sans-Serif" font-size="10.00" fill="#000000"> </text>
<polyline fill="none" stroke="#bfbfbf" points="1021,-449 1083,-449 "/>
<text text-anchor="middle" x="1052" y="-437" font-family="Helvetica,sans-Serif" font-size="10.00" fill="#000000"> </text>
</g>
<!-- Node13&#45;&gt;Node1 -->
<g id="edge12" class="edge">
<title>Node13&#45;&gt;Node1</title>
<path fill="none" stroke="#404040" d="M1022.501,-429.97C1009.4941,-418.2652 993.633,-405.1183 978,-395 857.9801,-317.3187 704.1194,-251.8661 614.0587,-216.5771"/>
<polygon fill="none" stroke="#404040" points="614.0428,-216.5709 607.0002,-218.1208 602.8608,-212.2161 609.9034,-210.6662 614.0428,-216.5709"/>
<text text-anchor="middle" x="1038.5" y="-398" font-family="Helvetica,sans-Serif" font-size="10.00" fill="#000000"> &#45;decimal_point_char</text>
</g>
</g>
</svg>
