<?xml version="1.0" encoding="UTF-8" standalone="no"?>
<!DOCTYPE svg PUBLIC "-//W3C//DTD SVG 1.1//EN"
 "http://www.w3.org/Graphics/SVG/1.1/DTD/svg11.dtd">
<!-- Generated by graphviz version 2.40.1 (20161225.0304)
 -->
<!-- Title: River::Geometry::GetTipPoints Pages: 1 -->
<svg width="477pt" height="66pt"
 viewBox="0.00 0.00 477.00 66.00" xmlns="http://www.w3.org/2000/svg" xmlns:xlink="http://www.w3.org/1999/xlink">
<g id="graph0" class="graph" transform="scale(1 1) rotate(0) translate(4 62)">
<title>River::Geometry::GetTipPoints</title>
<polygon fill="#ffffff" stroke="transparent" points="-4,4 -4,-62 473,-62 473,4 -4,4"/>
<!-- Node32 -->
<g id="node1" class="node">
<title>Node32</title>
<polygon fill="#bfbfbf" stroke="#000000" points="0,-19.5 0,-38.5 152,-38.5 152,-19.5 0,-19.5"/>
<text text-anchor="middle" x="76" y="-26.5" font-family="Helvetica,sans-Serif" font-size="10.00" fill="#000000">River::Geometry::GetTipPoints</text>
</g>
<!-- Node33 -->
<g id="node2" class="node">
<title>Node33</title>
<g id="a_node2"><a xlink:href="classRiver_1_1Branch.html#a2bf375682c5b397c9bf04ab9f215a926" target="_top" xlink:title="River::Branch::getHead">
<polygon fill="#ffffff" stroke="#000000" points="200.5,-38.5 200.5,-57.5 319.5,-57.5 319.5,-38.5 200.5,-38.5"/>
<text text-anchor="middle" x="260" y="-45.5" font-family="Helvetica,sans-Serif" font-size="10.00" fill="#000000">River::Branch::getHead</text>
</a>
</g>
</g>
<!-- Node32&#45;&gt;Node33 -->
<g id="edge1" class="edge">
<title>Node32&#45;&gt;Node33</title>
<path fill="none" stroke="#191970" d="M152.168,-36.8652C164.7581,-38.1652 177.7559,-39.5074 190.1799,-40.7903"/>
<polygon fill="#191970" stroke="#191970" points="190.1529,-44.3061 200.4595,-41.8518 190.8719,-37.3431 190.1529,-44.3061"/>
</g>
<!-- Node35 -->
<g id="node4" class="node">
<title>Node35</title>
<g id="a_node4"><a xlink:href="classRiver_1_1Branch.html#a769ba8d295c72c53343ff2e4b0d91f29" target="_top" xlink:title="River::Branch::getHeadAngle">
<polygon fill="#ffffff" stroke="#000000" points="188,-.5 188,-19.5 332,-19.5 332,-.5 188,-.5"/>
<text text-anchor="middle" x="260" y="-7.5" font-family="Helvetica,sans-Serif" font-size="10.00" fill="#000000">River::Branch::getHeadAngle</text>
</a>
</g>
</g>
<!-- Node32&#45;&gt;Node35 -->
<g id="edge3" class="edge">
<title>Node32&#45;&gt;Node35</title>
<path fill="none" stroke="#191970" d="M152.168,-21.1348C160.5323,-20.2711 169.0765,-19.3888 177.5129,-18.5177"/>
<polygon fill="#191970" stroke="#191970" points="178.1431,-21.9713 187.7307,-17.4626 177.424,-15.0083 178.1431,-21.9713"/>
</g>
<!-- Node34 -->
<g id="node3" class="node">
<title>Node34</title>
<g id="a_node3"><a xlink:href="classRiver_1_1Branch.html#a28a8c207ba296169ca20b47e99a9e091" target="_top" xlink:title="River::Branch::size">
<polygon fill="#ffffff" stroke="#000000" points="368,-19.5 368,-38.5 469,-38.5 469,-19.5 368,-19.5"/>
<text text-anchor="middle" x="418.5" y="-26.5" font-family="Helvetica,sans-Serif" font-size="10.00" fill="#000000">River::Branch::size</text>
</a>
</g>
</g>
<!-- Node33&#45;&gt;Node34 -->
<g id="edge2" class="edge">
<title>Node33&#45;&gt;Node34</title>
<path fill="none" stroke="#191970" d="M319.9221,-40.8169C332.2499,-39.3391 345.2423,-37.7817 357.6043,-36.2998"/>
<polygon fill="#191970" stroke="#191970" points="358.2992,-39.7416 367.8116,-35.0762 357.466,-32.7914 358.2992,-39.7416"/>
</g>
<!-- Node35&#45;&gt;Node34 -->
<g id="edge4" class="edge">
<title>Node35&#45;&gt;Node34</title>
<path fill="none" stroke="#191970" d="M332.2926,-18.666C340.7672,-19.6819 349.3488,-20.7106 357.6456,-21.7051"/>
<polygon fill="#191970" stroke="#191970" points="357.2528,-25.183 367.5983,-22.8982 358.086,-18.2328 357.2528,-25.183"/>
</g>
</g>
</svg>
