<?xml version="1.0" encoding="UTF-8" standalone="no"?>
<!DOCTYPE svg PUBLIC "-//W3C//DTD SVG 1.1//EN"
 "http://www.w3.org/Graphics/SVG/1.1/DTD/svg11.dtd">
<!-- Generated by graphviz version 2.40.1 (20161225.0304)
 -->
<!-- Title: nlohmann::detail::json_sax_dom_parser::parse_error Pages: 1 -->
<svg width="583pt" height="39pt"
 viewBox="0.00 0.00 583.00 39.00" xmlns="http://www.w3.org/2000/svg" xmlns:xlink="http://www.w3.org/1999/xlink">
<g id="graph0" class="graph" transform="scale(1 1) rotate(0) translate(4 35)">
<title>nlohmann::detail::json_sax_dom_parser::parse_error</title>
<polygon fill="#ffffff" stroke="transparent" points="-4,4 -4,-35 579,-35 579,4 -4,4"/>
<!-- Node39 -->
<g id="node1" class="node">
<title>Node39</title>
<polygon fill="#bfbfbf" stroke="#000000" points="0,-.5 0,-30.5 149,-30.5 149,-.5 0,-.5"/>
<text text-anchor="start" x="8" y="-18.5" font-family="Helvetica,sans-Serif" font-size="10.00" fill="#000000">nlohmann::detail::json</text>
<text text-anchor="middle" x="74.5" y="-7.5" font-family="Helvetica,sans-Serif" font-size="10.00" fill="#000000">_sax_dom_parser::parse_error</text>
</g>
<!-- Node40 -->
<g id="node2" class="node">
<title>Node40</title>
<g id="a_node2"><a xlink:href="classnlohmann_1_1detail_1_1parser.html#a14338d8f3174601c0b2b7ef28752ab17" target="_top" xlink:title="public parser interface ">
<polygon fill="#ffffff" stroke="#000000" points="185,-.5 185,-30.5 306,-30.5 306,-.5 185,-.5"/>
<text text-anchor="start" x="193" y="-18.5" font-family="Helvetica,sans-Serif" font-size="10.00" fill="#000000">nlohmann::detail::parser</text>
<text text-anchor="middle" x="245.5" y="-7.5" font-family="Helvetica,sans-Serif" font-size="10.00" fill="#000000">::parse</text>
</a>
</g>
</g>
<!-- Node39&#45;&gt;Node40 -->
<g id="edge1" class="edge">
<title>Node39&#45;&gt;Node40</title>
<path fill="none" stroke="#191970" d="M159.1536,-15.5C167.8208,-15.5 176.4997,-15.5 184.8338,-15.5"/>
<polygon fill="#191970" stroke="#191970" points="159.0057,-12.0001 149.0056,-15.5 159.0056,-19.0001 159.0057,-12.0001"/>
</g>
<!-- Node41 -->
<g id="node3" class="node">
<title>Node41</title>
<g id="a_node3"><a xlink:href="classnlohmann_1_1basic__json.html#afd4ef1ac8ad50a5894a9afebca69140a" target="_top" xlink:title="deserialize from a compatible input ">
<polygon fill="#ffffff" stroke="#000000" points="342,-.5 342,-30.5 453,-30.5 453,-.5 342,-.5"/>
<text text-anchor="start" x="350" y="-18.5" font-family="Helvetica,sans-Serif" font-size="10.00" fill="#000000">nlohmann::basic_json</text>
<text text-anchor="middle" x="397.5" y="-7.5" font-family="Helvetica,sans-Serif" font-size="10.00" fill="#000000">::parse</text>
</a>
</g>
</g>
<!-- Node40&#45;&gt;Node41 -->
<g id="edge2" class="edge">
<title>Node40&#45;&gt;Node41</title>
<path fill="none" stroke="#191970" d="M316.0264,-15.5C324.6171,-15.5 333.3015,-15.5 341.6376,-15.5"/>
<polygon fill="#191970" stroke="#191970" points="316.0112,-12.0001 306.0112,-15.5 316.0111,-19.0001 316.0112,-12.0001"/>
</g>
<!-- Node42 -->
<g id="node4" class="node">
<title>Node42</title>
<g id="a_node4"><a xlink:href="json_8hpp.html#a106b949d848bb8243a7cf94f11bcebf1" target="_top" xlink:title="user&#45;defined string literal for JSON values ">
<polygon fill="#ffffff" stroke="#000000" points="489,-6 489,-25 575,-25 575,-6 489,-6"/>
<text text-anchor="middle" x="532" y="-13" font-family="Helvetica,sans-Serif" font-size="10.00" fill="#000000">operator&quot;&quot; _json</text>
</a>
</g>
</g>
<!-- Node41&#45;&gt;Node42 -->
<g id="edge3" class="edge">
<title>Node41&#45;&gt;Node42</title>
<path fill="none" stroke="#191970" d="M463.4399,-15.5C472.0567,-15.5 480.7022,-15.5 488.8102,-15.5"/>
<polygon fill="#191970" stroke="#191970" points="463.3717,-12.0001 453.3716,-15.5 463.3716,-19.0001 463.3717,-12.0001"/>
</g>
</g>
</svg>
