<?xml version="1.0" encoding="UTF-8" standalone="no"?>
<!DOCTYPE svg PUBLIC "-//W3C//DTD SVG 1.1//EN"
 "http://www.w3.org/Graphics/SVG/1.1/DTD/svg11.dtd">
<!-- Generated by graphviz version 2.40.1 (20161225.0304)
 -->
<!-- Title: River::Border::GetSourceVerticesIndexById Pages: 1 -->
<svg width="391pt" height="176pt"
 viewBox="0.00 0.00 391.00 176.00" xmlns="http://www.w3.org/2000/svg" xmlns:xlink="http://www.w3.org/1999/xlink">
<g id="graph0" class="graph" transform="scale(1 1) rotate(0) translate(4 172)">
<title>River::Border::GetSourceVerticesIndexById</title>
<polygon fill="#ffffff" stroke="transparent" points="-4,4 -4,-172 387,-172 387,4 -4,4"/>
<!-- Node63 -->
<g id="node1" class="node">
<title>Node63</title>
<polygon fill="#bfbfbf" stroke="#000000" points="0,-71.5 0,-101.5 127,-101.5 127,-71.5 0,-71.5"/>
<text text-anchor="start" x="8" y="-89.5" font-family="Helvetica,sans-Serif" font-size="10.00" fill="#000000">River::Border::GetSource</text>
<text text-anchor="middle" x="63.5" y="-78.5" font-family="Helvetica,sans-Serif" font-size="10.00" fill="#000000">VerticesIndexById</text>
</g>
<!-- Node64 -->
<g id="node2" class="node">
<title>Node64</title>
<g id="a_node2"><a xlink:href="classtethex_1_1Mesh.html#a77dc945a9f65b5b1d41e39ec8d06adb8" target="_top" xlink:title="tethex::Mesh::get_n\l_points">
<polygon fill="#ffffff" stroke="#000000" points="170.5,-137.5 170.5,-167.5 274.5,-167.5 274.5,-137.5 170.5,-137.5"/>
<text text-anchor="start" x="178.5" y="-155.5" font-family="Helvetica,sans-Serif" font-size="10.00" fill="#000000">tethex::Mesh::get_n</text>
<text text-anchor="middle" x="222.5" y="-144.5" font-family="Helvetica,sans-Serif" font-size="10.00" fill="#000000">_points</text>
</a>
</g>
</g>
<!-- Node63&#45;&gt;Node64 -->
<g id="edge1" class="edge">
<title>Node63&#45;&gt;Node64</title>
<path fill="none" stroke="#191970" d="M99.9778,-101.6417C122.8028,-111.1163 152.3986,-123.4013 176.7843,-133.5237"/>
<polygon fill="#191970" stroke="#191970" points="175.6142,-136.8275 186.1919,-137.4287 178.2978,-130.3623 175.6142,-136.8275"/>
</g>
<!-- Node65 -->
<g id="node3" class="node">
<title>Node65</title>
<g id="a_node3"><a xlink:href="classtethex_1_1Mesh.html#a662e5df32c04d894bbc9598d3fe4d3f0" target="_top" xlink:title="tethex::Mesh::get_point">
<polygon fill="#ffffff" stroke="#000000" points="163,-99 163,-118 282,-118 282,-99 163,-99"/>
<text text-anchor="middle" x="222.5" y="-106" font-family="Helvetica,sans-Serif" font-size="10.00" fill="#000000">tethex::Mesh::get_point</text>
</a>
</g>
</g>
<!-- Node63&#45;&gt;Node65 -->
<g id="edge2" class="edge">
<title>Node63&#45;&gt;Node65</title>
<path fill="none" stroke="#191970" d="M127.2552,-95.3215C135.7005,-96.49 144.3927,-97.6927 152.9297,-98.8739"/>
<polygon fill="#191970" stroke="#191970" points="152.4707,-102.3437 162.856,-100.2474 153.4302,-95.4097 152.4707,-102.3437"/>
</g>
<!-- Node67 -->
<g id="node5" class="node">
<title>Node67</title>
<g id="a_node5"><a xlink:href="classtethex_1_1MeshElement.html#a44ac13c3270bbf9d70c7e0ea85809979" target="_top" xlink:title="tethex::MeshElement\l::get_material_id">
<polygon fill="#ffffff" stroke="#000000" points="167.5,-49.5 167.5,-79.5 277.5,-79.5 277.5,-49.5 167.5,-49.5"/>
<text text-anchor="start" x="175.5" y="-67.5" font-family="Helvetica,sans-Serif" font-size="10.00" fill="#000000">tethex::MeshElement</text>
<text text-anchor="middle" x="222.5" y="-56.5" font-family="Helvetica,sans-Serif" font-size="10.00" fill="#000000">::get_material_id</text>
</a>
</g>
</g>
<!-- Node63&#45;&gt;Node67 -->
<g id="edge4" class="edge">
<title>Node63&#45;&gt;Node67</title>
<path fill="none" stroke="#191970" d="M127.2552,-77.6785C137.1301,-76.3122 147.3426,-74.8991 157.2498,-73.5283"/>
<polygon fill="#191970" stroke="#191970" points="158.0108,-76.9565 167.4367,-72.1188 157.0514,-70.0225 158.0108,-76.9565"/>
</g>
<!-- Node68 -->
<g id="node6" class="node">
<title>Node68</title>
<g id="a_node6"><a xlink:href="classtethex_1_1MeshElement.html#aed911a47266af4848f1e8bdd0c89e177" target="_top" xlink:title="tethex::MeshElement\l::get_vertex">
<polygon fill="#ffffff" stroke="#000000" points="167.5,-.5 167.5,-30.5 277.5,-30.5 277.5,-.5 167.5,-.5"/>
<text text-anchor="start" x="175.5" y="-18.5" font-family="Helvetica,sans-Serif" font-size="10.00" fill="#000000">tethex::MeshElement</text>
<text text-anchor="middle" x="222.5" y="-7.5" font-family="Helvetica,sans-Serif" font-size="10.00" fill="#000000">::get_vertex</text>
</a>
</g>
</g>
<!-- Node63&#45;&gt;Node68 -->
<g id="edge5" class="edge">
<title>Node63&#45;&gt;Node68</title>
<path fill="none" stroke="#191970" d="M95.6333,-71.2951C115.0591,-62.1905 140.3638,-50.4843 163,-40.5 167.4435,-38.5401 172.0879,-36.5272 176.7379,-34.5354"/>
<polygon fill="#191970" stroke="#191970" points="178.3947,-37.6343 186.2279,-30.5005 175.6557,-31.1924 178.3947,-37.6343"/>
</g>
<!-- Node66 -->
<g id="node4" class="node">
<title>Node66</title>
<g id="a_node4"><a xlink:href="namespacetethex.html#a31a6ad16911dd58abefe17ab46534aa4" target="_top" xlink:title="tethex::d2s">
<polygon fill="#ffffff" stroke="#000000" points="318,-52 318,-71 383,-71 383,-52 318,-52"/>
<text text-anchor="middle" x="350.5" y="-59" font-family="Helvetica,sans-Serif" font-size="10.00" fill="#000000">tethex::d2s</text>
</a>
</g>
</g>
<!-- Node65&#45;&gt;Node66 -->
<g id="edge3" class="edge">
<title>Node65&#45;&gt;Node66</title>
<path fill="none" stroke="#191970" d="M254.1539,-98.9027C263.1979,-96.0228 273.0313,-92.7592 282,-89.5 294.2636,-85.0434 307.578,-79.7159 319.1792,-74.91"/>
<polygon fill="#191970" stroke="#191970" points="320.5868,-78.1151 328.4607,-71.0262 317.8847,-71.6576 320.5868,-78.1151"/>
</g>
<!-- Node68&#45;&gt;Node66 -->
<g id="edge6" class="edge">
<title>Node68&#45;&gt;Node66</title>
<path fill="none" stroke="#191970" d="M264.412,-30.5621C280.4409,-36.3225 298.5767,-42.8401 314.0549,-48.4025"/>
<polygon fill="#191970" stroke="#191970" points="313.1992,-51.8141 323.7936,-51.9024 315.5666,-45.2266 313.1992,-51.8141"/>
</g>
</g>
</svg>
