<?xml version="1.0" encoding="UTF-8" standalone="no"?>
<!DOCTYPE svg PUBLIC "-//W3C//DTD SVG 1.1//EN"
 "http://www.w3.org/Graphics/SVG/1.1/DTD/svg11.dtd">
<!-- Generated by graphviz version 2.40.1 (20161225.0304)
 -->
<!-- Title: nlohmann::basic_json::operator[] Pages: 1 -->
<svg width="440pt" height="88pt"
 viewBox="0.00 0.00 440.00 88.00" xmlns="http://www.w3.org/2000/svg" xmlns:xlink="http://www.w3.org/1999/xlink">
<g id="graph0" class="graph" transform="scale(1 1) rotate(0) translate(4 84)">
<title>nlohmann::basic_json::operator[]</title>
<polygon fill="#ffffff" stroke="transparent" points="-4,4 -4,-84 436,-84 436,4 -4,4"/>
<!-- Node191 -->
<g id="node1" class="node">
<title>Node191</title>
<polygon fill="#bfbfbf" stroke="#000000" points="0,-24.5 0,-54.5 111,-54.5 111,-24.5 0,-24.5"/>
<text text-anchor="start" x="8" y="-42.5" font-family="Helvetica,sans-Serif" font-size="10.00" fill="#000000">nlohmann::basic_json</text>
<text text-anchor="middle" x="55.5" y="-31.5" font-family="Helvetica,sans-Serif" font-size="10.00" fill="#000000">::operator[]</text>
</g>
<!-- Node192 -->
<g id="node2" class="node">
<title>Node192</title>
<g id="a_node2"><a xlink:href="classnlohmann_1_1basic__json.html#a9ad7ec0bc1082ed09d10900fbb20a21f" target="_top" xlink:title="explicitly create an array from an initializer list ">
<polygon fill="#ffffff" stroke="#000000" points="148,-49.5 148,-79.5 259,-79.5 259,-49.5 148,-49.5"/>
<text text-anchor="start" x="156" y="-67.5" font-family="Helvetica,sans-Serif" font-size="10.00" fill="#000000">nlohmann::basic_json</text>
<text text-anchor="middle" x="203.5" y="-56.5" font-family="Helvetica,sans-Serif" font-size="10.00" fill="#000000">::array</text>
</a>
</g>
</g>
<!-- Node191&#45;&gt;Node192 -->
<g id="edge1" class="edge">
<title>Node191&#45;&gt;Node192</title>
<path fill="none" stroke="#191970" d="M111.0308,-48.8802C119.7316,-50.3499 128.7963,-51.8811 137.7007,-53.3853"/>
<polygon fill="#191970" stroke="#191970" points="137.2146,-56.8527 147.658,-55.0672 138.3806,-49.9504 137.2146,-56.8527"/>
</g>
<!-- Node193 -->
<g id="node3" class="node">
<title>Node193</title>
<g id="a_node3"><a xlink:href="classnlohmann_1_1detail_1_1type__error.html#aecc083aea4b698c33d042670ba50c10f" target="_top" xlink:title="nlohmann::detail::type\l_error::create">
<polygon fill="#ffffff" stroke="#000000" points="147,-.5 147,-30.5 260,-30.5 260,-.5 147,-.5"/>
<text text-anchor="start" x="155" y="-18.5" font-family="Helvetica,sans-Serif" font-size="10.00" fill="#000000">nlohmann::detail::type</text>
<text text-anchor="middle" x="203.5" y="-7.5" font-family="Helvetica,sans-Serif" font-size="10.00" fill="#000000">_error::create</text>
</a>
</g>
</g>
<!-- Node191&#45;&gt;Node193 -->
<g id="edge2" class="edge">
<title>Node191&#45;&gt;Node193</title>
<path fill="none" stroke="#191970" d="M111.0308,-30.495C119.4022,-29.1375 128.1106,-27.7253 136.6888,-26.3342"/>
<polygon fill="#191970" stroke="#191970" points="137.3604,-29.7711 146.6712,-24.7155 136.2399,-22.8614 137.3604,-29.7711"/>
</g>
<!-- Node194 -->
<g id="node4" class="node">
<title>Node194</title>
<g id="a_node4"><a xlink:href="classnlohmann_1_1detail_1_1exception.html#abf41a7e9178356314082284e6cfea278" target="_top" xlink:title="nlohmann::detail::exception\l::name">
<polygon fill="#ffffff" stroke="#000000" points="296,-.5 296,-30.5 432,-30.5 432,-.5 296,-.5"/>
<text text-anchor="start" x="304" y="-18.5" font-family="Helvetica,sans-Serif" font-size="10.00" fill="#000000">nlohmann::detail::exception</text>
<text text-anchor="middle" x="364" y="-7.5" font-family="Helvetica,sans-Serif" font-size="10.00" fill="#000000">::name</text>
</a>
</g>
</g>
<!-- Node193&#45;&gt;Node194 -->
<g id="edge3" class="edge">
<title>Node193&#45;&gt;Node194</title>
<path fill="none" stroke="#191970" d="M260.0863,-15.5C268.3895,-15.5 277.0638,-15.5 285.7078,-15.5"/>
<polygon fill="#191970" stroke="#191970" points="285.8172,-19.0001 295.8172,-15.5 285.8172,-12.0001 285.8172,-19.0001"/>
</g>
</g>
</svg>
