<?xml version="1.0" encoding="UTF-8" standalone="no"?>
<!DOCTYPE svg PUBLIC "-//W3C//DTD SVG 1.1//EN"
 "http://www.w3.org/Graphics/SVG/1.1/DTD/svg11.dtd">
<!-- Generated by graphviz version 2.40.1 (20161225.0304)
 -->
<!-- Title: River::Point::normalize Pages: 1 -->
<svg width="494pt" height="28pt"
 viewBox="0.00 0.00 494.00 28.00" xmlns="http://www.w3.org/2000/svg" xmlns:xlink="http://www.w3.org/1999/xlink">
<g id="graph0" class="graph" transform="scale(1 1) rotate(0) translate(4 24)">
<title>River::Point::normalize</title>
<polygon fill="#ffffff" stroke="transparent" points="-4,4 -4,-24 490,-24 490,4 -4,4"/>
<!-- Node37 -->
<g id="node1" class="node">
<title>Node37</title>
<polygon fill="#bfbfbf" stroke="#000000" points="0,-.5 0,-19.5 116,-19.5 116,-.5 0,-.5"/>
<text text-anchor="middle" x="58" y="-7.5" font-family="Helvetica,sans-Serif" font-size="10.00" fill="#000000">River::Point::normalize</text>
</g>
<!-- Node38 -->
<g id="node2" class="node">
<title>Node38</title>
<g id="a_node2"><a xlink:href="namespaceRiver.html#aa5a21f7169be41bacdb7bab009a2e7be" target="_top" xlink:title="Generates trees boundary. ">
<polygon fill="#ffffff" stroke="#000000" points="152,-.5 152,-19.5 246,-19.5 246,-.5 152,-.5"/>
<text text-anchor="middle" x="199" y="-7.5" font-family="Helvetica,sans-Serif" font-size="10.00" fill="#000000">River::TreeVector</text>
</a>
</g>
</g>
<!-- Node37&#45;&gt;Node38 -->
<g id="edge1" class="edge">
<title>Node37&#45;&gt;Node38</title>
<path fill="none" stroke="#191970" d="M126.2318,-10C134.852,-10 143.5175,-10 151.712,-10"/>
<polygon fill="#191970" stroke="#191970" points="126.1642,-6.5001 116.1642,-10 126.1641,-13.5001 126.1642,-6.5001"/>
</g>
<!-- Node39 -->
<g id="node3" class="node">
<title>Node39</title>
<g id="a_node3"><a xlink:href="namespaceRiver.html#aa226e8aa15b4b21c82a2ea177e1faee6" target="_top" xlink:title="Finnal Boudary Geneartor Class. ">
<polygon fill="#ffffff" stroke="#000000" points="282,-.5 282,-19.5 412,-19.5 412,-.5 282,-.5"/>
<text text-anchor="middle" x="347" y="-7.5" font-family="Helvetica,sans-Serif" font-size="10.00" fill="#000000">River::BoundaryGenerator</text>
</a>
</g>
</g>
<!-- Node38&#45;&gt;Node39 -->
<g id="edge2" class="edge">
<title>Node38&#45;&gt;Node39</title>
<path fill="none" stroke="#191970" d="M256.2771,-10C264.658,-10 273.3409,-10 281.8646,-10"/>
<polygon fill="#191970" stroke="#191970" points="256.2351,-6.5001 246.235,-10 256.235,-13.5001 256.2351,-6.5001"/>
</g>
<!-- Node40 -->
<g id="node4" class="node">
<title>Node40</title>
<g id="a_node4"><a xlink:href="main_8cpp.html#a0ddf1224851353fc92bfbff6f499fa97" target="_top" xlink:title="Entry point of RiverSim program. ">
<polygon fill="#ffffff" stroke="#000000" points="448,-.5 448,-19.5 486,-19.5 486,-.5 448,-.5"/>
<text text-anchor="middle" x="467" y="-7.5" font-family="Helvetica,sans-Serif" font-size="10.00" fill="#000000">main</text>
</a>
</g>
</g>
<!-- Node39&#45;&gt;Node40 -->
<g id="edge3" class="edge">
<title>Node39&#45;&gt;Node40</title>
<path fill="none" stroke="#191970" d="M422.2762,-10C431.7335,-10 440.6483,-10 447.9929,-10"/>
<polygon fill="#191970" stroke="#191970" points="422.2674,-6.5001 412.2674,-10 422.2674,-13.5001 422.2674,-6.5001"/>
</g>
</g>
</svg>
