<?xml version="1.0" encoding="UTF-8" standalone="no"?>
<!DOCTYPE svg PUBLIC "-//W3C//DTD SVG 1.1//EN"
 "http://www.w3.org/Graphics/SVG/1.1/DTD/svg11.dtd">
<!-- Generated by graphviz version 2.40.1 (20161225.0304)
 -->
<!-- Title: River::BranchNew::Size Pages: 1 -->
<svg width="726pt" height="78pt"
 viewBox="0.00 0.00 726.00 77.50" xmlns="http://www.w3.org/2000/svg" xmlns:xlink="http://www.w3.org/1999/xlink">
<g id="graph0" class="graph" transform="scale(1 1) rotate(0) translate(4 73.5)">
<title>River::BranchNew::Size</title>
<polygon fill="#ffffff" stroke="transparent" points="-4,4 -4,-73.5 722,-73.5 722,4 -4,4"/>
<!-- Node56 -->
<g id="node1" class="node">
<title>Node56</title>
<polygon fill="#bfbfbf" stroke="#000000" points="0,-28 0,-47 122,-47 122,-28 0,-28"/>
<text text-anchor="middle" x="61" y="-35" font-family="Helvetica,sans-Serif" font-size="10.00" fill="#000000">River::BranchNew::Size</text>
</g>
<!-- Node57 -->
<g id="node2" class="node">
<title>Node57</title>
<g id="a_node2"><a xlink:href="namespaceRiver.html#ace7057edc24ee07f8265dad28b73a41a" target="_top" xlink:title="Generates trees boundary. ">
<polygon fill="#ffffff" stroke="#000000" points="180.5,-50 180.5,-69 274.5,-69 274.5,-50 180.5,-50"/>
<text text-anchor="middle" x="227.5" y="-57" font-family="Helvetica,sans-Serif" font-size="10.00" fill="#000000">River::TreeVector</text>
</a>
</g>
</g>
<!-- Node56&#45;&gt;Node57 -->
<g id="edge1" class="edge">
<title>Node56&#45;&gt;Node57</title>
<path fill="none" stroke="#191970" d="M132.087,-46.8929C148.3706,-49.0445 165.2887,-51.2799 180.2766,-53.2603"/>
<polygon fill="#191970" stroke="#191970" points="132.4254,-43.4072 122.053,-45.5671 131.5083,-50.3469 132.4254,-43.4072"/>
</g>
<!-- Node61 -->
<g id="node6" class="node">
<title>Node61</title>
<g id="a_node6"><a xlink:href="classRiver_1_1BranchNew.html#a4ae4087275d76ff330e81189638b1b86" target="_top" xlink:title="Returns BranchNew::Lenght() divided by BranchNew::Size() ">
<polygon fill="#ffffff" stroke="#000000" points="158,-.5 158,-30.5 297,-30.5 297,-.5 158,-.5"/>
<text text-anchor="start" x="166" y="-18.5" font-family="Helvetica,sans-Serif" font-size="10.00" fill="#000000">River::BranchNew::Average</text>
<text text-anchor="middle" x="227.5" y="-7.5" font-family="Helvetica,sans-Serif" font-size="10.00" fill="#000000">Speed</text>
</a>
</g>
</g>
<!-- Node56&#45;&gt;Node61 -->
<g id="edge5" class="edge">
<title>Node56&#45;&gt;Node61</title>
<path fill="none" stroke="#191970" d="M132.245,-28.0862C140.6888,-26.9706 149.3008,-25.8326 157.7238,-24.7197"/>
<polygon fill="#191970" stroke="#191970" points="131.5083,-24.6531 122.053,-29.4329 132.4254,-31.5928 131.5083,-24.6531"/>
</g>
<!-- Node58 -->
<g id="node3" class="node">
<title>Node58</title>
<g id="a_node3"><a xlink:href="namespaceRiver.html#a43d55da8d0508b984518c4ebed6e0ad7" target="_top" xlink:title="Finnal Boudary Geneartor Class. ">
<polygon fill="#ffffff" stroke="#000000" points="333,-50 333,-69 463,-69 463,-50 333,-50"/>
<text text-anchor="middle" x="398" y="-57" font-family="Helvetica,sans-Serif" font-size="10.00" fill="#000000">River::BoundaryGenerator</text>
</a>
</g>
</g>
<!-- Node57&#45;&gt;Node58 -->
<g id="edge2" class="edge">
<title>Node57&#45;&gt;Node58</title>
<path fill="none" stroke="#191970" d="M284.9623,-59.5C300.3704,-59.5 317.1382,-59.5 332.9265,-59.5"/>
<polygon fill="#191970" stroke="#191970" points="284.5412,-56.0001 274.5412,-59.5 284.5412,-63.0001 284.5412,-56.0001"/>
</g>
<!-- Node59 -->
<g id="node4" class="node">
<title>Node59</title>
<g id="a_node4"><a xlink:href="namespaceRiver.html#af1a3f7c61809dd8032e4ff5920da83cc" target="_top" xlink:title="One step of forward river evolution. ">
<polygon fill="#ffffff" stroke="#000000" points="499,-50 499,-69 644,-69 644,-50 499,-50"/>
<text text-anchor="middle" x="571.5" y="-57" font-family="Helvetica,sans-Serif" font-size="10.00" fill="#000000">River::ForwardRiverEvolution</text>
</a>
</g>
</g>
<!-- Node58&#45;&gt;Node59 -->
<g id="edge3" class="edge">
<title>Node58&#45;&gt;Node59</title>
<path fill="none" stroke="#191970" d="M473.3052,-59.5C481.7508,-59.5 490.3436,-59.5 498.7559,-59.5"/>
<polygon fill="#191970" stroke="#191970" points="473.0987,-56.0001 463.0986,-59.5 473.0986,-63.0001 473.0987,-56.0001"/>
</g>
<!-- Node60 -->
<g id="node5" class="node">
<title>Node60</title>
<g id="a_node5"><a xlink:href="main_8cpp.html#a0ddf1224851353fc92bfbff6f499fa97" target="_top" xlink:title="Entry point of RiverSim program. ">
<polygon fill="#ffffff" stroke="#000000" points="680,-50 680,-69 718,-69 718,-50 680,-50"/>
<text text-anchor="middle" x="699" y="-57" font-family="Helvetica,sans-Serif" font-size="10.00" fill="#000000">main</text>
</a>
</g>
</g>
<!-- Node59&#45;&gt;Node60 -->
<g id="edge4" class="edge">
<title>Node59&#45;&gt;Node60</title>
<path fill="none" stroke="#191970" d="M654.2526,-59.5C663.7338,-59.5 672.5978,-59.5 679.8947,-59.5"/>
<polygon fill="#191970" stroke="#191970" points="654.1886,-56.0001 644.1886,-59.5 654.1885,-63.0001 654.1886,-56.0001"/>
</g>
</g>
</svg>
