<?xml version="1.0" encoding="UTF-8" standalone="no"?>
<!DOCTYPE svg PUBLIC "-//W3C//DTD SVG 1.1//EN"
 "http://www.w3.org/Graphics/SVG/1.1/DTD/svg11.dtd">
<!-- Generated by graphviz version 2.40.1 (20161225.0304)
 -->
<!-- Title: River::MeshParams Pages: 1 -->
<svg width="380pt" height="281pt"
 viewBox="0.00 0.00 380.00 281.00" xmlns="http://www.w3.org/2000/svg" xmlns:xlink="http://www.w3.org/1999/xlink">
<g id="graph0" class="graph" transform="scale(1 1) rotate(0) translate(4 277)">
<title>River::MeshParams</title>
<polygon fill="#ffffff" stroke="transparent" points="-4,4 -4,-277 376,-277 376,4 -4,4"/>
<!-- Node1 -->
<g id="node1" class="node">
<title>Node1</title>
<polygon fill="#bfbfbf" stroke="#000000" points="84,-.5 84,-57.5 194,-57.5 194,-.5 84,-.5"/>
<text text-anchor="middle" x="139" y="-45.5" font-family="Helvetica,sans-Serif" font-size="10.00" fill="#000000">River::MeshParams</text>
<polyline fill="none" stroke="#000000" points="84,-38.5 194,-38.5 "/>
<text text-anchor="middle" x="139" y="-26.5" font-family="Helvetica,sans-Serif" font-size="10.00" fill="#000000"> </text>
<polyline fill="none" stroke="#000000" points="84,-19.5 194,-19.5 "/>
<text text-anchor="start" x="92" y="-7.5" font-family="Helvetica,sans-Serif" font-size="10.00" fill="#000000">+ operator()()</text>
</g>
<!-- Node2 -->
<g id="node2" class="node">
<title>Node2</title>
<polygon fill="#ffffff" stroke="#bfbfbf" points="0,-215.5 0,-272.5 50,-272.5 50,-215.5 0,-215.5"/>
<text text-anchor="middle" x="25" y="-260.5" font-family="Helvetica,sans-Serif" font-size="10.00" fill="#000000">double</text>
<polyline fill="none" stroke="#bfbfbf" points="0,-253.5 50,-253.5 "/>
<text text-anchor="middle" x="25" y="-241.5" font-family="Helvetica,sans-Serif" font-size="10.00" fill="#000000"> </text>
<polyline fill="none" stroke="#bfbfbf" points="0,-234.5 50,-234.5 "/>
<text text-anchor="middle" x="25" y="-222.5" font-family="Helvetica,sans-Serif" font-size="10.00" fill="#000000"> </text>
</g>
<!-- Node2&#45;&gt;Node1 -->
<g id="edge1" class="edge">
<title>Node2&#45;&gt;Node1</title>
<path fill="none" stroke="#404040" d="M20.4614,-215.2672C16.3973,-179.3149 14.9112,-117.4436 44,-76 51.3703,-65.4994 61.7721,-57.2323 73.0077,-50.761"/>
<polygon fill="none" stroke="#404040" points="73.3057,-50.6069 76.7965,-44.297 83.9636,-45.0925 80.4728,-51.4023 73.3057,-50.6069"/>
<text text-anchor="middle" x="89.5" y="-189" font-family="Helvetica,sans-Serif" font-size="10.00" fill="#000000"> +min_area</text>
<text text-anchor="middle" x="89.5" y="-178" font-family="Helvetica,sans-Serif" font-size="10.00" fill="#000000">+refinment_radius</text>
<text text-anchor="middle" x="89.5" y="-167" font-family="Helvetica,sans-Serif" font-size="10.00" fill="#000000">+sigma</text>
<text text-anchor="middle" x="89.5" y="-156" font-family="Helvetica,sans-Serif" font-size="10.00" fill="#000000">+max_edge</text>
<text text-anchor="middle" x="89.5" y="-145" font-family="Helvetica,sans-Serif" font-size="10.00" fill="#000000">+max_area</text>
<text text-anchor="middle" x="89.5" y="-134" font-family="Helvetica,sans-Serif" font-size="10.00" fill="#000000">+exponant</text>
<text text-anchor="middle" x="89.5" y="-123" font-family="Helvetica,sans-Serif" font-size="10.00" fill="#000000">+eps</text>
<text text-anchor="middle" x="89.5" y="-112" font-family="Helvetica,sans-Serif" font-size="10.00" fill="#000000">+ratio</text>
<text text-anchor="middle" x="89.5" y="-101" font-family="Helvetica,sans-Serif" font-size="10.00" fill="#000000">+min_angle</text>
<text text-anchor="middle" x="89.5" y="-90" font-family="Helvetica,sans-Serif" font-size="10.00" fill="#000000">+min_edge</text>
<text text-anchor="middle" x="89.5" y="-79" font-family="Helvetica,sans-Serif" font-size="10.00" fill="#000000">...</text>
</g>
<!-- Node3 -->
<g id="node3" class="node">
<title>Node3</title>
<polygon fill="#ffffff" stroke="#bfbfbf" points="76,-215.5 76,-272.5 202,-272.5 202,-215.5 76,-215.5"/>
<text text-anchor="middle" x="139" y="-260.5" font-family="Helvetica,sans-Serif" font-size="10.00" fill="#000000">vector&lt; River::Point &gt;</text>
<polyline fill="none" stroke="#bfbfbf" points="76,-253.5 202,-253.5 "/>
<text text-anchor="middle" x="139" y="-241.5" font-family="Helvetica,sans-Serif" font-size="10.00" fill="#000000"> </text>
<polyline fill="none" stroke="#bfbfbf" points="76,-234.5 202,-234.5 "/>
<text text-anchor="middle" x="139" y="-222.5" font-family="Helvetica,sans-Serif" font-size="10.00" fill="#000000"> </text>
</g>
<!-- Node3&#45;&gt;Node1 -->
<g id="edge2" class="edge">
<title>Node3&#45;&gt;Node1</title>
<path fill="none" stroke="#404040" d="M139,-215.4497C139,-178.1028 139,-112.4225 139,-69.8247"/>
<polygon fill="none" stroke="#404040" points="139.0001,-69.6684 135,-63.6685 139,-57.6684 143,-63.6684 139.0001,-69.6684"/>
<text text-anchor="middle" x="169" y="-134" font-family="Helvetica,sans-Serif" font-size="10.00" fill="#000000"> +tip_points</text>
</g>
<!-- Node4 -->
<g id="node4" class="node">
<title>Node4</title>
<polygon fill="#ffffff" stroke="#bfbfbf" points="220.5,-215.5 220.5,-272.5 281.5,-272.5 281.5,-215.5 220.5,-215.5"/>
<text text-anchor="middle" x="251" y="-260.5" font-family="Helvetica,sans-Serif" font-size="10.00" fill="#000000">unsigned</text>
<polyline fill="none" stroke="#bfbfbf" points="220.5,-253.5 281.5,-253.5 "/>
<text text-anchor="middle" x="251" y="-241.5" font-family="Helvetica,sans-Serif" font-size="10.00" fill="#000000"> </text>
<polyline fill="none" stroke="#bfbfbf" points="220.5,-234.5 281.5,-234.5 "/>
<text text-anchor="middle" x="251" y="-222.5" font-family="Helvetica,sans-Serif" font-size="10.00" fill="#000000"> </text>
</g>
<!-- Node4&#45;&gt;Node1 -->
<g id="edge3" class="edge">
<title>Node4&#45;&gt;Node1</title>
<path fill="none" stroke="#404040" d="M248.5117,-215.4402C244.2217,-179.9444 232.7962,-118.829 203,-76 200.5644,-72.499 197.7827,-69.1578 194.7743,-65.9889"/>
<polygon fill="none" stroke="#404040" points="194.5267,-65.7556 187.4169,-64.551 185.7943,-57.5248 192.9041,-58.7294 194.5267,-65.7556"/>
<text text-anchor="start" x="245" y="-150.5" font-family="Helvetica,sans-Serif" font-size="10.00" fill="#000000"> +number_of_refined</text>
<text text-anchor="middle" x="308.5" y="-139.5" font-family="Helvetica,sans-Serif" font-size="10.00" fill="#000000">_quadrangles</text>
<text text-anchor="middle" x="308.5" y="-128.5" font-family="Helvetica,sans-Serif" font-size="10.00" fill="#000000">+number_of_quadrangles</text>
<text text-anchor="middle" x="308.5" y="-117.5" font-family="Helvetica,sans-Serif" font-size="10.00" fill="#000000">+static_refinment_steps</text>
</g>
</g>
</svg>
