<?xml version="1.0" encoding="UTF-8" standalone="no"?>
<!DOCTYPE svg PUBLIC "-//W3C//DTD SVG 1.1//EN"
 "http://www.w3.org/Graphics/SVG/1.1/DTD/svg11.dtd">
<!-- Generated by graphviz version 2.40.1 (20161225.0304)
 -->
<!-- Title: River::BranchNew::Vector Pages: 1 -->
<svg width="690pt" height="28pt"
 viewBox="0.00 0.00 690.00 28.00" xmlns="http://www.w3.org/2000/svg" xmlns:xlink="http://www.w3.org/1999/xlink">
<g id="graph0" class="graph" transform="scale(1 1) rotate(0) translate(4 24)">
<title>River::BranchNew::Vector</title>
<polygon fill="#ffffff" stroke="transparent" points="-4,4 -4,-24 686,-24 686,4 -4,4"/>
<!-- Node33 -->
<g id="node1" class="node">
<title>Node33</title>
<polygon fill="#bfbfbf" stroke="#000000" points="0,-.5 0,-19.5 131,-19.5 131,-.5 0,-.5"/>
<text text-anchor="middle" x="65.5" y="-7.5" font-family="Helvetica,sans-Serif" font-size="10.00" fill="#000000">River::BranchNew::Vector</text>
</g>
<!-- Node34 -->
<g id="node2" class="node">
<title>Node34</title>
<g id="a_node2"><a xlink:href="namespaceRiver.html#ace7057edc24ee07f8265dad28b73a41a" target="_top" xlink:title="Generates trees boundary. ">
<polygon fill="#ffffff" stroke="#000000" points="167,-.5 167,-19.5 261,-19.5 261,-.5 167,-.5"/>
<text text-anchor="middle" x="214" y="-7.5" font-family="Helvetica,sans-Serif" font-size="10.00" fill="#000000">River::TreeVector</text>
</a>
</g>
</g>
<!-- Node33&#45;&gt;Node34 -->
<g id="edge1" class="edge">
<title>Node33&#45;&gt;Node34</title>
<path fill="none" stroke="#191970" d="M141.2066,-10C149.858,-10 158.4831,-10 166.6118,-10"/>
<polygon fill="#191970" stroke="#191970" points="141.0666,-6.5001 131.0665,-10 141.0665,-13.5001 141.0666,-6.5001"/>
</g>
<!-- Node35 -->
<g id="node3" class="node">
<title>Node35</title>
<g id="a_node3"><a xlink:href="namespaceRiver.html#a43d55da8d0508b984518c4ebed6e0ad7" target="_top" xlink:title="Finnal Boudary Geneartor Class. ">
<polygon fill="#ffffff" stroke="#000000" points="297,-.5 297,-19.5 427,-19.5 427,-.5 297,-.5"/>
<text text-anchor="middle" x="362" y="-7.5" font-family="Helvetica,sans-Serif" font-size="10.00" fill="#000000">River::BoundaryGenerator</text>
</a>
</g>
</g>
<!-- Node34&#45;&gt;Node35 -->
<g id="edge2" class="edge">
<title>Node34&#45;&gt;Node35</title>
<path fill="none" stroke="#191970" d="M271.2771,-10C279.658,-10 288.3409,-10 296.8646,-10"/>
<polygon fill="#191970" stroke="#191970" points="271.2351,-6.5001 261.235,-10 271.235,-13.5001 271.2351,-6.5001"/>
</g>
<!-- Node36 -->
<g id="node4" class="node">
<title>Node36</title>
<g id="a_node4"><a xlink:href="namespaceRiver.html#af1a3f7c61809dd8032e4ff5920da83cc" target="_top" xlink:title="One step of forward river evolution. ">
<polygon fill="#ffffff" stroke="#000000" points="463,-.5 463,-19.5 608,-19.5 608,-.5 463,-.5"/>
<text text-anchor="middle" x="535.5" y="-7.5" font-family="Helvetica,sans-Serif" font-size="10.00" fill="#000000">River::ForwardRiverEvolution</text>
</a>
</g>
</g>
<!-- Node35&#45;&gt;Node36 -->
<g id="edge3" class="edge">
<title>Node35&#45;&gt;Node36</title>
<path fill="none" stroke="#191970" d="M437.3052,-10C445.7508,-10 454.3436,-10 462.7559,-10"/>
<polygon fill="#191970" stroke="#191970" points="437.0987,-6.5001 427.0986,-10 437.0986,-13.5001 437.0987,-6.5001"/>
</g>
<!-- Node37 -->
<g id="node5" class="node">
<title>Node37</title>
<g id="a_node5"><a xlink:href="main_8cpp.html#a0ddf1224851353fc92bfbff6f499fa97" target="_top" xlink:title="Entry point of RiverSim program. ">
<polygon fill="#ffffff" stroke="#000000" points="644,-.5 644,-19.5 682,-19.5 682,-.5 644,-.5"/>
<text text-anchor="middle" x="663" y="-7.5" font-family="Helvetica,sans-Serif" font-size="10.00" fill="#000000">main</text>
</a>
</g>
</g>
<!-- Node36&#45;&gt;Node37 -->
<g id="edge4" class="edge">
<title>Node36&#45;&gt;Node37</title>
<path fill="none" stroke="#191970" d="M618.2526,-10C627.7338,-10 636.5978,-10 643.8947,-10"/>
<polygon fill="#191970" stroke="#191970" points="618.1886,-6.5001 608.1886,-10 618.1885,-13.5001 618.1886,-6.5001"/>
</g>
</g>
</svg>
