<?xml version="1.0" encoding="UTF-8" standalone="no"?>
<!DOCTYPE svg PUBLIC "-//W3C//DTD SVG 1.1//EN"
 "http://www.w3.org/Graphics/SVG/1.1/DTD/svg11.dtd">
<!-- Generated by graphviz version 2.40.1 (20161225.0304)
 -->
<!-- Title: River::Solver::output_results Pages: 1 -->
<svg width="318pt" height="39pt"
 viewBox="0.00 0.00 318.00 39.00" xmlns="http://www.w3.org/2000/svg" xmlns:xlink="http://www.w3.org/1999/xlink">
<g id="graph0" class="graph" transform="scale(1 1) rotate(0) translate(4 35)">
<title>River::Solver::output_results</title>
<polygon fill="#ffffff" stroke="transparent" points="-4,4 -4,-35 314,-35 314,4 -4,4"/>
<!-- Node60 -->
<g id="node1" class="node">
<title>Node60</title>
<polygon fill="#bfbfbf" stroke="#000000" points="0,-.5 0,-30.5 107,-30.5 107,-.5 0,-.5"/>
<text text-anchor="start" x="8" y="-18.5" font-family="Helvetica,sans-Serif" font-size="10.00" fill="#000000">River::Solver::output</text>
<text text-anchor="middle" x="53.5" y="-7.5" font-family="Helvetica,sans-Serif" font-size="10.00" fill="#000000">_results</text>
</g>
<!-- Node61 -->
<g id="node2" class="node">
<title>Node61</title>
<g id="a_node2"><a xlink:href="classRiver_1_1Solver.html#a4222fe744d607f870a5d7d22b11e8334" target="_top" xlink:title="River::Solver::run">
<polygon fill="#ffffff" stroke="#000000" points="143,-6 143,-25 236,-25 236,-6 143,-6"/>
<text text-anchor="middle" x="189.5" y="-13" font-family="Helvetica,sans-Serif" font-size="10.00" fill="#000000">River::Solver::run</text>
</a>
</g>
</g>
<!-- Node60&#45;&gt;Node61 -->
<g id="edge1" class="edge">
<title>Node60&#45;&gt;Node61</title>
<path fill="none" stroke="#191970" d="M117.2564,-15.5C125.8433,-15.5 134.5207,-15.5 142.7382,-15.5"/>
<polygon fill="#191970" stroke="#191970" points="117.2508,-12.0001 107.2508,-15.5 117.2508,-19.0001 117.2508,-12.0001"/>
</g>
<!-- Node62 -->
<g id="node3" class="node">
<title>Node62</title>
<g id="a_node3"><a xlink:href="main_8cpp.html#a0ddf1224851353fc92bfbff6f499fa97" target="_top" xlink:title="Entry point of RiverSim program. ">
<polygon fill="#ffffff" stroke="#000000" points="272,-6 272,-25 310,-25 310,-6 272,-6"/>
<text text-anchor="middle" x="291" y="-13" font-family="Helvetica,sans-Serif" font-size="10.00" fill="#000000">main</text>
</a>
</g>
</g>
<!-- Node61&#45;&gt;Node62 -->
<g id="edge2" class="edge">
<title>Node61&#45;&gt;Node62</title>
<path fill="none" stroke="#191970" d="M246.3645,-15.5C255.4202,-15.5 264.2123,-15.5 271.5649,-15.5"/>
<polygon fill="#191970" stroke="#191970" points="246.0911,-12.0001 236.0911,-15.5 246.091,-19.0001 246.0911,-12.0001"/>
</g>
</g>
</svg>
