<?xml version="1.0" encoding="UTF-8" standalone="no"?>
<!DOCTYPE svg PUBLIC "-//W3C//DTD SVG 1.1//EN"
 "http://www.w3.org/Graphics/SVG/1.1/DTD/svg11.dtd">
<!-- Generated by graphviz version 2.40.1 (20161225.0304)
 -->
<!-- Title: tethex::Mesh::edge_numeration Pages: 1 -->
<svg width="365pt" height="105pt"
 viewBox="0.00 0.00 365.00 104.50" xmlns="http://www.w3.org/2000/svg" xmlns:xlink="http://www.w3.org/1999/xlink">
<g id="graph0" class="graph" transform="scale(1 1) rotate(0) translate(4 100.5)">
<title>tethex::Mesh::edge_numeration</title>
<polygon fill="#ffffff" stroke="transparent" points="-4,4 -4,-100.5 361,-100.5 361,4 -4,4"/>
<!-- Node220 -->
<g id="node1" class="node">
<title>Node220</title>
<polygon fill="#bfbfbf" stroke="#000000" points="0,-17 0,-47 101,-47 101,-17 0,-17"/>
<text text-anchor="start" x="8" y="-35" font-family="Helvetica,sans-Serif" font-size="10.00" fill="#000000">tethex::Mesh::edge</text>
<text text-anchor="middle" x="50.5" y="-24" font-family="Helvetica,sans-Serif" font-size="10.00" fill="#000000">_numeration</text>
</g>
<!-- Node221 -->
<g id="node2" class="node">
<title>Node221</title>
<g id="a_node2"><a xlink:href="classtethex_1_1IncidenceMatrix.html#a35358d0c7bd51a6c7ce900237f3e7672" target="_top" xlink:title="tethex::IncidenceMatrix\l::get_n_nonzero">
<polygon fill="#ffffff" stroke="#000000" points="137,-66 137,-96 256,-96 256,-66 137,-66"/>
<text text-anchor="start" x="145" y="-84" font-family="Helvetica,sans-Serif" font-size="10.00" fill="#000000">tethex::IncidenceMatrix</text>
<text text-anchor="middle" x="196.5" y="-73" font-family="Helvetica,sans-Serif" font-size="10.00" fill="#000000">::get_n_nonzero</text>
</a>
</g>
</g>
<!-- Node220&#45;&gt;Node221 -->
<g id="edge1" class="edge">
<title>Node220&#45;&gt;Node221</title>
<path fill="none" stroke="#191970" d="M95.4961,-47.1014C110.1357,-52.0147 126.5463,-57.5224 141.8143,-62.6466"/>
<polygon fill="#191970" stroke="#191970" points="141.0585,-66.0847 151.6524,-65.9484 143.2858,-59.4485 141.0585,-66.0847"/>
</g>
<!-- Node222 -->
<g id="node3" class="node">
<title>Node222</title>
<g id="a_node3"><a xlink:href="classtethex_1_1IncidenceMatrix.html#a1d659ff5b0bba8be07196b23ded3d58d" target="_top" xlink:title="tethex::IncidenceMatrix\l::find">
<polygon fill="#ffffff" stroke="#000000" points="137,-17 137,-47 256,-47 256,-17 137,-17"/>
<text text-anchor="start" x="145" y="-35" font-family="Helvetica,sans-Serif" font-size="10.00" fill="#000000">tethex::IncidenceMatrix</text>
<text text-anchor="middle" x="196.5" y="-24" font-family="Helvetica,sans-Serif" font-size="10.00" fill="#000000">::find</text>
</a>
</g>
</g>
<!-- Node220&#45;&gt;Node222 -->
<g id="edge2" class="edge">
<title>Node220&#45;&gt;Node222</title>
<path fill="none" stroke="#191970" d="M101.154,-32C109.4414,-32 118.1542,-32 126.8049,-32"/>
<polygon fill="#191970" stroke="#191970" points="126.9024,-35.5001 136.9023,-32 126.9023,-28.5001 126.9024,-35.5001"/>
</g>
<!-- Node223 -->
<g id="node4" class="node">
<title>Node223</title>
<g id="a_node4"><a xlink:href="namespacetethex.html#a31a6ad16911dd58abefe17ab46534aa4" target="_top" xlink:title="tethex::d2s">
<polygon fill="#ffffff" stroke="#000000" points="292,-.5 292,-19.5 357,-19.5 357,-.5 292,-.5"/>
<text text-anchor="middle" x="324.5" y="-7.5" font-family="Helvetica,sans-Serif" font-size="10.00" fill="#000000">tethex::d2s</text>
</a>
</g>
</g>
<!-- Node220&#45;&gt;Node223 -->
<g id="edge4" class="edge">
<title>Node220&#45;&gt;Node223</title>
<path fill="none" stroke="#191970" d="M95.8064,-16.9486C108.9431,-13.2644 123.4109,-9.8502 137,-8 189.4054,-.8647 203.1167,-7.2281 256,-8 264.2883,-8.121 273.1389,-8.3242 281.6318,-8.556"/>
<polygon fill="#191970" stroke="#191970" points="281.6548,-12.0581 291.752,-8.8493 281.8577,-5.061 281.6548,-12.0581"/>
</g>
<!-- Node222&#45;&gt;Node223 -->
<g id="edge3" class="edge">
<title>Node222&#45;&gt;Node223</title>
<path fill="none" stroke="#191970" d="M256.0033,-21.7729C264.6333,-20.2896 273.3728,-18.7875 281.5902,-17.3751"/>
<polygon fill="#191970" stroke="#191970" points="282.4093,-20.7857 291.6719,-15.6423 281.2235,-13.8869 282.4093,-20.7857"/>
</g>
</g>
</svg>
