<?xml version="1.0" encoding="UTF-8" standalone="no"?>
<!DOCTYPE svg PUBLIC "-//W3C//DTD SVG 1.1//EN"
 "http://www.w3.org/Graphics/SVG/1.1/DTD/svg11.dtd">
<!-- Generated by graphviz version 2.40.1 (20161225.0304)
 -->
<!-- Title: tethex::Mesh::Mesh Pages: 1 -->
<svg width="395pt" height="577pt"
 viewBox="0.00 0.00 395.00 576.50" xmlns="http://www.w3.org/2000/svg" xmlns:xlink="http://www.w3.org/1999/xlink">
<g id="graph0" class="graph" transform="scale(1 1) rotate(0) translate(4 572.5)">
<title>tethex::Mesh::Mesh</title>
<polygon fill="#ffffff" stroke="transparent" points="-4,4 -4,-572.5 391,-572.5 391,4 -4,4"/>
<!-- Node2 -->
<g id="node1" class="node">
<title>Node2</title>
<polygon fill="#bfbfbf" stroke="#000000" points="0,-269.5 0,-288.5 104,-288.5 104,-269.5 0,-269.5"/>
<text text-anchor="middle" x="52" y="-276.5" font-family="Helvetica,sans-Serif" font-size="10.00" fill="#000000">tethex::Mesh::Mesh</text>
</g>
<!-- Node3 -->
<g id="node2" class="node">
<title>Node3</title>
<g id="a_node2"><a xlink:href="classtethex_1_1Mesh.html#a433b551470046cc7a95e4592f9851119" target="_top" xlink:title="Get the number of converted quadrangles. ">
<polygon fill="#ffffff" stroke="#000000" points="152,-538 152,-568 274,-568 274,-538 152,-538"/>
<text text-anchor="start" x="160" y="-556" font-family="Helvetica,sans-Serif" font-size="10.00" fill="#000000">tethex::Mesh::get_n</text>
<text text-anchor="middle" x="213" y="-545" font-family="Helvetica,sans-Serif" font-size="10.00" fill="#000000">_converted_quadrangles</text>
</a>
</g>
</g>
<!-- Node2&#45;&gt;Node3 -->
<g id="edge1" class="edge">
<title>Node2&#45;&gt;Node3</title>
<path fill="none" stroke="#191970" d="M52.4718,-288.7388C54.789,-325.6619 68.0078,-458.4913 140,-529 141.102,-530.0793 142.2535,-531.1101 143.4475,-532.0946"/>
<polygon fill="#191970" stroke="#191970" points="141.6649,-535.1177 151.8764,-537.942 145.655,-529.3662 141.6649,-535.1177"/>
</g>
<!-- Node4 -->
<g id="node3" class="node">
<title>Node4</title>
<g id="a_node3"><a xlink:href="classtethex_1_1Mesh.html#ab88564c8b781ba5b0d329a85c7a1dfa9" target="_top" xlink:title="Get the number of vertices. ">
<polygon fill="#ffffff" stroke="#000000" points="161,-489 161,-519 265,-519 265,-489 161,-489"/>
<text text-anchor="start" x="169" y="-507" font-family="Helvetica,sans-Serif" font-size="10.00" fill="#000000">tethex::Mesh::get_n</text>
<text text-anchor="middle" x="213" y="-496" font-family="Helvetica,sans-Serif" font-size="10.00" fill="#000000">_vertices</text>
</a>
</g>
</g>
<!-- Node2&#45;&gt;Node4 -->
<g id="edge2" class="edge">
<title>Node2&#45;&gt;Node4</title>
<path fill="none" stroke="#191970" d="M53.4272,-288.5005C58.6931,-320.2569 79.9425,-423.8178 140,-479 143.5728,-482.2828 147.5958,-485.137 151.8702,-487.6184"/>
<polygon fill="#191970" stroke="#191970" points="150.4303,-490.8124 160.9332,-492.2057 153.5916,-484.5668 150.4303,-490.8124"/>
</g>
<!-- Node5 -->
<g id="node4" class="node">
<title>Node5</title>
<g id="a_node4"><a xlink:href="classtethex_1_1Mesh.html#aea31733cbb3d4e47252da53a253ec9b8" target="_top" xlink:title="Get the copy of vertex. ">
<polygon fill="#ffffff" stroke="#000000" points="150.5,-450.5 150.5,-469.5 275.5,-469.5 275.5,-450.5 150.5,-450.5"/>
<text text-anchor="middle" x="213" y="-457.5" font-family="Helvetica,sans-Serif" font-size="10.00" fill="#000000">tethex::Mesh::get_vertex</text>
</a>
</g>
</g>
<!-- Node2&#45;&gt;Node5 -->
<g id="edge3" class="edge">
<title>Node2&#45;&gt;Node5</title>
<path fill="none" stroke="#191970" d="M54.3752,-288.8003C61.7594,-317.1039 87.0627,-399.5831 140,-441 142.3207,-442.8157 144.7974,-444.4589 147.3847,-445.9461"/>
<polygon fill="#191970" stroke="#191970" points="146.0208,-449.1752 156.5418,-450.4246 149.0963,-442.887 146.0208,-449.1752"/>
</g>
<!-- Node6 -->
<g id="node5" class="node">
<title>Node6</title>
<g id="a_node5"><a xlink:href="classtethex_1_1Mesh.html#a6ce5b68ae1669faa214948051eea279c" target="_top" xlink:title="Get the number of physical points. ">
<polygon fill="#ffffff" stroke="#000000" points="161,-401 161,-431 265,-431 265,-401 161,-401"/>
<text text-anchor="start" x="169" y="-419" font-family="Helvetica,sans-Serif" font-size="10.00" fill="#000000">tethex::Mesh::get_n</text>
<text text-anchor="middle" x="213" y="-408" font-family="Helvetica,sans-Serif" font-size="10.00" fill="#000000">_points</text>
</a>
</g>
</g>
<!-- Node2&#45;&gt;Node6 -->
<g id="edge4" class="edge">
<title>Node2&#45;&gt;Node6</title>
<path fill="none" stroke="#191970" d="M57.0014,-288.6233C68.6461,-310.1146 99.6731,-362.3691 140,-391 143.6627,-393.6004 147.6183,-395.9485 151.7272,-398.0658"/>
<polygon fill="#191970" stroke="#191970" points="150.3701,-401.2946 160.9132,-402.3405 153.3235,-394.9481 150.3701,-401.2946"/>
</g>
<!-- Node7 -->
<g id="node6" class="node">
<title>Node7</title>
<g id="a_node6"><a xlink:href="classtethex_1_1Mesh.html#a662e5df32c04d894bbc9598d3fe4d3f0" target="_top" xlink:title="Get the physical point. ">
<polygon fill="#ffffff" stroke="#000000" points="153.5,-362.5 153.5,-381.5 272.5,-381.5 272.5,-362.5 153.5,-362.5"/>
<text text-anchor="middle" x="213" y="-369.5" font-family="Helvetica,sans-Serif" font-size="10.00" fill="#000000">tethex::Mesh::get_point</text>
</a>
</g>
</g>
<!-- Node2&#45;&gt;Node7 -->
<g id="edge5" class="edge">
<title>Node2&#45;&gt;Node7</title>
<path fill="none" stroke="#191970" d="M60.7418,-288.7499C75.5064,-304.6154 107.0145,-335.9568 140,-353 144.5375,-355.3445 149.3867,-357.4156 154.3473,-359.2422"/>
<polygon fill="#191970" stroke="#191970" points="153.3778,-362.6084 163.9716,-362.4611 155.5982,-355.9699 153.3778,-362.6084"/>
</g>
<!-- Node8 -->
<g id="node7" class="node">
<title>Node8</title>
<g id="a_node7"><a xlink:href="classtethex_1_1MeshElement.html#aed911a47266af4848f1e8bdd0c89e177" target="_top" xlink:title="Get the number of vertex describing the element. ">
<polygon fill="#ffffff" stroke="#000000" points="158,-313 158,-343 268,-343 268,-313 158,-313"/>
<text text-anchor="start" x="166" y="-331" font-family="Helvetica,sans-Serif" font-size="10.00" fill="#000000">tethex::MeshElement</text>
<text text-anchor="middle" x="213" y="-320" font-family="Helvetica,sans-Serif" font-size="10.00" fill="#000000">::get_vertex</text>
</a>
</g>
</g>
<!-- Node2&#45;&gt;Node8 -->
<g id="edge6" class="edge">
<title>Node2&#45;&gt;Node8</title>
<path fill="none" stroke="#191970" d="M83.4246,-288.564C103.4517,-294.6592 130.0319,-302.7488 153.9041,-310.0143"/>
<polygon fill="#191970" stroke="#191970" points="153.007,-313.3997 163.5928,-312.963 155.0452,-306.703 153.007,-313.3997"/>
</g>
<!-- Node10 -->
<g id="node9" class="node">
<title>Node10</title>
<g id="a_node9"><a xlink:href="classtethex_1_1MeshElement.html#a44ac13c3270bbf9d70c7e0ea85809979" target="_top" xlink:title="Get the material ID of the element. ">
<polygon fill="#ffffff" stroke="#000000" points="158,-264 158,-294 268,-294 268,-264 158,-264"/>
<text text-anchor="start" x="166" y="-282" font-family="Helvetica,sans-Serif" font-size="10.00" fill="#000000">tethex::MeshElement</text>
<text text-anchor="middle" x="213" y="-271" font-family="Helvetica,sans-Serif" font-size="10.00" fill="#000000">::get_material_id</text>
</a>
</g>
</g>
<!-- Node2&#45;&gt;Node10 -->
<g id="edge8" class="edge">
<title>Node2&#45;&gt;Node10</title>
<path fill="none" stroke="#191970" d="M104.2721,-279C118.0886,-279 133.1753,-279 147.5923,-279"/>
<polygon fill="#191970" stroke="#191970" points="147.944,-282.5001 157.9439,-279 147.9439,-275.5001 147.944,-282.5001"/>
</g>
<!-- Node11 -->
<g id="node10" class="node">
<title>Node11</title>
<g id="a_node10"><a xlink:href="classtethex_1_1Mesh.html#a5bc67888bd55417ea5ae69660194479b" target="_top" xlink:title="Get the number of lines (physical lines). ">
<polygon fill="#ffffff" stroke="#000000" points="161,-215 161,-245 265,-245 265,-215 161,-215"/>
<text text-anchor="start" x="169" y="-233" font-family="Helvetica,sans-Serif" font-size="10.00" fill="#000000">tethex::Mesh::get_n</text>
<text text-anchor="middle" x="213" y="-222" font-family="Helvetica,sans-Serif" font-size="10.00" fill="#000000">_lines</text>
</a>
</g>
</g>
<!-- Node2&#45;&gt;Node11 -->
<g id="edge9" class="edge">
<title>Node2&#45;&gt;Node11</title>
<path fill="none" stroke="#191970" d="M83.4246,-269.436C103.4517,-263.3408 130.0319,-255.2512 153.9041,-247.9857"/>
<polygon fill="#191970" stroke="#191970" points="155.0452,-251.297 163.5928,-245.037 153.007,-244.6003 155.0452,-251.297"/>
</g>
<!-- Node12 -->
<g id="node11" class="node">
<title>Node12</title>
<g id="a_node11"><a xlink:href="classtethex_1_1Mesh.html#a31af01d4cca474c530bcfa8dbda990c0" target="_top" xlink:title="Get the physical line. ">
<polygon fill="#ffffff" stroke="#000000" points="156.5,-176.5 156.5,-195.5 269.5,-195.5 269.5,-176.5 156.5,-176.5"/>
<text text-anchor="middle" x="213" y="-183.5" font-family="Helvetica,sans-Serif" font-size="10.00" fill="#000000">tethex::Mesh::get_line</text>
</a>
</g>
</g>
<!-- Node2&#45;&gt;Node12 -->
<g id="edge10" class="edge">
<title>Node2&#45;&gt;Node12</title>
<path fill="none" stroke="#191970" d="M60.7946,-269.4346C75.6353,-253.8593 107.2501,-223.048 140,-206 145.227,-203.2791 150.8627,-200.8977 156.6036,-198.8204"/>
<polygon fill="#191970" stroke="#191970" points="157.9184,-202.072 166.3108,-195.6054 155.7175,-195.427 157.9184,-202.072"/>
</g>
<!-- Node13 -->
<g id="node12" class="node">
<title>Node13</title>
<g id="a_node12"><a xlink:href="classtethex_1_1Mesh.html#ab0dbfb48a0cf7176cb1f48b8c657d530" target="_top" xlink:title="Get the number of triangles. ">
<polygon fill="#ffffff" stroke="#000000" points="161,-127 161,-157 265,-157 265,-127 161,-127"/>
<text text-anchor="start" x="169" y="-145" font-family="Helvetica,sans-Serif" font-size="10.00" fill="#000000">tethex::Mesh::get_n</text>
<text text-anchor="middle" x="213" y="-134" font-family="Helvetica,sans-Serif" font-size="10.00" fill="#000000">_triangles</text>
</a>
</g>
</g>
<!-- Node2&#45;&gt;Node13 -->
<g id="edge11" class="edge">
<title>Node2&#45;&gt;Node13</title>
<path fill="none" stroke="#191970" d="M57.0014,-269.3767C68.6461,-247.8854 99.6731,-195.6309 140,-167 143.6627,-164.3996 147.6183,-162.0515 151.7272,-159.9342"/>
<polygon fill="#191970" stroke="#191970" points="153.3235,-163.0519 160.9132,-155.6595 150.3701,-156.7054 153.3235,-163.0519"/>
</g>
<!-- Node14 -->
<g id="node13" class="node">
<title>Node14</title>
<g id="a_node13"><a xlink:href="classtethex_1_1Mesh.html#a28ee91d1c112c5852cead4cbcdfc6dda" target="_top" xlink:title="Get the mesh triangle. ">
<polygon fill="#ffffff" stroke="#000000" points="148,-88.5 148,-107.5 278,-107.5 278,-88.5 148,-88.5"/>
<text text-anchor="middle" x="213" y="-95.5" font-family="Helvetica,sans-Serif" font-size="10.00" fill="#000000">tethex::Mesh::get_triangle</text>
</a>
</g>
</g>
<!-- Node2&#45;&gt;Node14 -->
<g id="edge12" class="edge">
<title>Node2&#45;&gt;Node14</title>
<path fill="none" stroke="#191970" d="M54.42,-269.2918C61.9256,-241.2485 87.5254,-159.4874 140,-118 142.817,-115.7728 145.8645,-113.7932 149.0611,-112.0337"/>
<polygon fill="#191970" stroke="#191970" points="150.8426,-115.0634 158.3972,-107.6351 147.8592,-108.731 150.8426,-115.0634"/>
</g>
<!-- Node15 -->
<g id="node14" class="node">
<title>Node15</title>
<g id="a_node14"><a xlink:href="classtethex_1_1Mesh.html#a8526bdc64d01aa4d7e1c9d0af264eb05" target="_top" xlink:title="Get the number of tetrahedra. ">
<polygon fill="#ffffff" stroke="#000000" points="161,-39 161,-69 265,-69 265,-39 161,-39"/>
<text text-anchor="start" x="169" y="-57" font-family="Helvetica,sans-Serif" font-size="10.00" fill="#000000">tethex::Mesh::get_n</text>
<text text-anchor="middle" x="213" y="-46" font-family="Helvetica,sans-Serif" font-size="10.00" fill="#000000">_quadrangles</text>
</a>
</g>
</g>
<!-- Node2&#45;&gt;Node15 -->
<g id="edge13" class="edge">
<title>Node2&#45;&gt;Node15</title>
<path fill="none" stroke="#191970" d="M53.4272,-269.4995C58.6931,-237.7431 79.9425,-134.1822 140,-79 143.5728,-75.7172 147.5958,-72.863 151.8702,-70.3816"/>
<polygon fill="#191970" stroke="#191970" points="153.5916,-73.4332 160.9332,-65.7943 150.4303,-67.1876 153.5916,-73.4332"/>
</g>
<!-- Node16 -->
<g id="node15" class="node">
<title>Node16</title>
<g id="a_node15"><a xlink:href="classtethex_1_1Mesh.html#a5737e6675d86cce7410b4b690f25618f" target="_top" xlink:title="Get the mesh quadrangle. ">
<polygon fill="#ffffff" stroke="#000000" points="140,-.5 140,-19.5 286,-19.5 286,-.5 140,-.5"/>
<text text-anchor="middle" x="213" y="-7.5" font-family="Helvetica,sans-Serif" font-size="10.00" fill="#000000">tethex::Mesh::get_quadrangle</text>
</a>
</g>
</g>
<!-- Node2&#45;&gt;Node16 -->
<g id="edge14" class="edge">
<title>Node2&#45;&gt;Node16</title>
<path fill="none" stroke="#191970" d="M52.3627,-269.4382C54.2921,-232.6037 66.3116,-98.5443 140,-30 142.1649,-27.9863 144.5131,-26.172 146.9957,-24.5377"/>
<polygon fill="#191970" stroke="#191970" points="148.8101,-27.5343 155.8834,-19.6463 145.4349,-21.4017 148.8101,-27.5343"/>
</g>
<!-- Node9 -->
<g id="node8" class="node">
<title>Node9</title>
<g id="a_node8"><a xlink:href="namespacetethex.html#a31a6ad16911dd58abefe17ab46534aa4" target="_top" xlink:title="tethex::d2s">
<polygon fill="#ffffff" stroke="#000000" points="322,-318.5 322,-337.5 387,-337.5 387,-318.5 322,-318.5"/>
<text text-anchor="middle" x="354.5" y="-325.5" font-family="Helvetica,sans-Serif" font-size="10.00" fill="#000000">tethex::d2s</text>
</a>
</g>
</g>
<!-- Node8&#45;&gt;Node9 -->
<g id="edge7" class="edge">
<title>Node8&#45;&gt;Node9</title>
<path fill="none" stroke="#191970" d="M268.1128,-328C282.5826,-328 297.9711,-328 311.6897,-328"/>
<polygon fill="#191970" stroke="#191970" points="311.8122,-331.5001 321.8121,-328 311.8121,-324.5001 311.8122,-331.5001"/>
</g>
</g>
</svg>
