<?xml version="1.0" encoding="UTF-8" standalone="no"?>
<!DOCTYPE svg PUBLIC "-//W3C//DTD SVG 1.1//EN"
 "http://www.w3.org/Graphics/SVG/1.1/DTD/svg11.dtd">
<!-- Generated by graphviz version 2.40.1 (20161225.0304)
 -->
<!-- Title: River::Tree Pages: 1 -->
<svg width="592pt" height="424pt"
 viewBox="0.00 0.00 592.00 424.00" xmlns="http://www.w3.org/2000/svg" xmlns:xlink="http://www.w3.org/1999/xlink">
<g id="graph0" class="graph" transform="scale(1 1) rotate(0) translate(4 420)">
<title>River::Tree</title>
<polygon fill="#ffffff" stroke="transparent" points="-4,4 -4,-420 588,-420 588,4 -4,4"/>
<!-- Node1 -->
<g id="node1" class="node">
<title>Node1</title>
<polygon fill="#bfbfbf" stroke="#000000" points="244.5,-.5 244.5,-299.5 393.5,-299.5 393.5,-.5 244.5,-.5"/>
<text text-anchor="middle" x="319" y="-287.5" font-family="Helvetica,sans-Serif" font-size="10.00" fill="#000000">River::Tree</text>
<polyline fill="none" stroke="#000000" points="244.5,-280.5 393.5,-280.5 "/>
<text text-anchor="middle" x="319" y="-268.5" font-family="Helvetica,sans-Serif" font-size="10.00" fill="#000000"> </text>
<polyline fill="none" stroke="#000000" points="244.5,-261.5 393.5,-261.5 "/>
<text text-anchor="start" x="252.5" y="-249.5" font-family="Helvetica,sans-Serif" font-size="10.00" fill="#000000">+ Tree()</text>
<text text-anchor="start" x="252.5" y="-238.5" font-family="Helvetica,sans-Serif" font-size="10.00" fill="#000000">+ Initialize()</text>
<text text-anchor="start" x="252.5" y="-227.5" font-family="Helvetica,sans-Serif" font-size="10.00" fill="#000000">+ AddPoints()</text>
<text text-anchor="start" x="252.5" y="-216.5" font-family="Helvetica,sans-Serif" font-size="10.00" fill="#000000">+ AddPolars()</text>
<text text-anchor="start" x="252.5" y="-205.5" font-family="Helvetica,sans-Serif" font-size="10.00" fill="#000000">+ AddAbsolutePolars()</text>
<text text-anchor="start" x="252.5" y="-194.5" font-family="Helvetica,sans-Serif" font-size="10.00" fill="#000000">+ AddSubBranches()</text>
<text text-anchor="start" x="252.5" y="-183.5" font-family="Helvetica,sans-Serif" font-size="10.00" fill="#000000">+ TipBranchesId()</text>
<text text-anchor="start" x="252.5" y="-172.5" font-family="Helvetica,sans-Serif" font-size="10.00" fill="#000000">+ TipPoints()</text>
<text text-anchor="start" x="252.5" y="-161.5" font-family="Helvetica,sans-Serif" font-size="10.00" fill="#000000">+ NumberOfSourceBranches()</text>
<text text-anchor="start" x="252.5" y="-150.5" font-family="Helvetica,sans-Serif" font-size="10.00" fill="#000000">+ SourceBranchesID()</text>
<text text-anchor="start" x="252.5" y="-139.5" font-family="Helvetica,sans-Serif" font-size="10.00" fill="#000000">* Clear()</text>
<text text-anchor="start" x="252.5" y="-128.5" font-family="Helvetica,sans-Serif" font-size="10.00" fill="#000000">* AddSourceBranch()</text>
<text text-anchor="start" x="252.5" y="-117.5" font-family="Helvetica,sans-Serif" font-size="10.00" fill="#000000">* AddBranch()</text>
<text text-anchor="start" x="252.5" y="-106.5" font-family="Helvetica,sans-Serif" font-size="10.00" fill="#000000">* DoesExistBranch()</text>
<text text-anchor="start" x="252.5" y="-95.5" font-family="Helvetica,sans-Serif" font-size="10.00" fill="#000000">* GetBranch()</text>
<text text-anchor="start" x="252.5" y="-84.5" font-family="Helvetica,sans-Serif" font-size="10.00" fill="#000000">* GetBranch()</text>
<text text-anchor="start" x="252.5" y="-73.5" font-family="Helvetica,sans-Serif" font-size="10.00" fill="#000000">* HasSubBranches()</text>
<text text-anchor="start" x="252.5" y="-62.5" font-family="Helvetica,sans-Serif" font-size="10.00" fill="#000000">* IsSubBranch()</text>
<text text-anchor="start" x="252.5" y="-51.5" font-family="Helvetica,sans-Serif" font-size="10.00" fill="#000000">* GetSourceBranch()</text>
<text text-anchor="start" x="252.5" y="-40.5" font-family="Helvetica,sans-Serif" font-size="10.00" fill="#000000">* GetSubBranches()</text>
<text text-anchor="start" x="252.5" y="-29.5" font-family="Helvetica,sans-Serif" font-size="10.00" fill="#000000">* IsValidBranchId()</text>
<text text-anchor="start" x="252.5" y="-18.5" font-family="Helvetica,sans-Serif" font-size="10.00" fill="#000000">* GenerateNewID()</text>
<text text-anchor="start" x="252.5" y="-7.5" font-family="Helvetica,sans-Serif" font-size="10.00" fill="#000000">* operator&lt;&lt;</text>
</g>
<!-- Node2 -->
<g id="node2" class="node">
<title>Node2</title>
<polygon fill="#ffffff" stroke="#bfbfbf" points="0,-353 0,-410 142,-410 142,-353 0,-353"/>
<text text-anchor="middle" x="71" y="-398" font-family="Helvetica,sans-Serif" font-size="10.00" fill="#000000">vector&lt; River::BranchNew &gt;</text>
<polyline fill="none" stroke="#bfbfbf" points="0,-391 142,-391 "/>
<text text-anchor="middle" x="71" y="-379" font-family="Helvetica,sans-Serif" font-size="10.00" fill="#000000"> </text>
<polyline fill="none" stroke="#bfbfbf" points="0,-372 142,-372 "/>
<text text-anchor="middle" x="71" y="-360" font-family="Helvetica,sans-Serif" font-size="10.00" fill="#000000"> </text>
</g>
<!-- Node2&#45;&gt;Node1 -->
<g id="edge1" class="edge">
<title>Node2&#45;&gt;Node1</title>
<path fill="none" stroke="#404040" d="M101.6584,-352.8814C134.8957,-321.8554 189.37,-271.0054 235.4653,-227.9769"/>
<polygon fill="none" stroke="#404040" points="235.4933,-227.9508 237.1498,-220.9326 244.2654,-219.7624 242.6088,-226.7806 235.4933,-227.9508"/>
<text text-anchor="middle" x="162.5" y="-321" font-family="Helvetica,sans-Serif" font-size="10.00" fill="#000000"> +branches</text>
</g>
<!-- Node3 -->
<g id="node3" class="node">
<title>Node3</title>
<polygon fill="#ffffff" stroke="#bfbfbf" points="160.5,-347.5 160.5,-415.5 259.5,-415.5 259.5,-347.5 160.5,-347.5"/>
<text text-anchor="start" x="168.5" y="-403.5" font-family="Helvetica,sans-Serif" font-size="10.00" fill="#000000">map&lt; int, pair&lt; int,</text>
<text text-anchor="middle" x="210" y="-392.5" font-family="Helvetica,sans-Serif" font-size="10.00" fill="#000000"> int &gt; &gt;</text>
<polyline fill="none" stroke="#bfbfbf" points="160.5,-385.5 259.5,-385.5 "/>
<text text-anchor="middle" x="210" y="-373.5" font-family="Helvetica,sans-Serif" font-size="10.00" fill="#000000"> </text>
<polyline fill="none" stroke="#bfbfbf" points="160.5,-366.5 259.5,-366.5 "/>
<text text-anchor="middle" x="210" y="-354.5" font-family="Helvetica,sans-Serif" font-size="10.00" fill="#000000"> </text>
</g>
<!-- Node3&#45;&gt;Node1 -->
<g id="edge2" class="edge">
<title>Node3&#45;&gt;Node1</title>
<path fill="none" stroke="#404040" d="M218.8187,-347.4461C221.6862,-337.7898 225.1382,-327.3611 229,-318 232.1734,-310.3077 235.5919,-302.5054 239.1766,-294.6891"/>
<polygon fill="none" stroke="#404040" points="239.2613,-294.508 238.1812,-287.3782 244.3472,-283.6391 245.4272,-290.7688 239.2613,-294.508"/>
<text text-anchor="middle" x="272" y="-321" font-family="Helvetica,sans-Serif" font-size="10.00" fill="#000000"> +branches_relation</text>
</g>
<!-- Node4 -->
<g id="node4" class="node">
<title>Node4</title>
<polygon fill="#ffffff" stroke="#bfbfbf" points="304.5,-353 304.5,-410 333.5,-410 333.5,-353 304.5,-353"/>
<text text-anchor="middle" x="319" y="-398" font-family="Helvetica,sans-Serif" font-size="10.00" fill="#000000">int</text>
<polyline fill="none" stroke="#bfbfbf" points="304.5,-391 333.5,-391 "/>
<text text-anchor="middle" x="319" y="-379" font-family="Helvetica,sans-Serif" font-size="10.00" fill="#000000"> </text>
<polyline fill="none" stroke="#bfbfbf" points="304.5,-372 333.5,-372 "/>
<text text-anchor="middle" x="319" y="-360" font-family="Helvetica,sans-Serif" font-size="10.00" fill="#000000"> </text>
</g>
<!-- Node4&#45;&gt;Node1 -->
<g id="edge3" class="edge">
<title>Node4&#45;&gt;Node1</title>
<path fill="none" stroke="#404040" d="M319,-352.6484C319,-341.203 319,-327.0861 319,-311.6727"/>
<polygon fill="none" stroke="#404040" points="319.0001,-311.6559 315,-305.6559 319,-299.6559 323,-305.6559 319.0001,-311.6559"/>
<text text-anchor="middle" x="355" y="-321" font-family="Helvetica,sans-Serif" font-size="10.00" fill="#000000"> +invalid_branch</text>
</g>
<!-- Node5 -->
<g id="node5" class="node">
<title>Node5</title>
<polygon fill="#ffffff" stroke="#bfbfbf" points="378,-353 378,-410 450,-410 450,-353 378,-353"/>
<text text-anchor="middle" x="414" y="-398" font-family="Helvetica,sans-Serif" font-size="10.00" fill="#000000">vector&lt; int &gt;</text>
<polyline fill="none" stroke="#bfbfbf" points="378,-391 450,-391 "/>
<text text-anchor="middle" x="414" y="-379" font-family="Helvetica,sans-Serif" font-size="10.00" fill="#000000"> </text>
<polyline fill="none" stroke="#bfbfbf" points="378,-372 450,-372 "/>
<text text-anchor="middle" x="414" y="-360" font-family="Helvetica,sans-Serif" font-size="10.00" fill="#000000"> </text>
</g>
<!-- Node5&#45;&gt;Node1 -->
<g id="edge4" class="edge">
<title>Node5&#45;&gt;Node1</title>
<path fill="none" stroke="#404040" d="M404.6036,-352.8816C400.8644,-341.9049 396.4072,-329.3052 392,-318 391.0751,-315.6273 390.1365,-313.2387 389.1862,-310.8375"/>
<polygon fill="none" stroke="#404040" points="389.116,-310.6618 383.1737,-306.5766 384.6592,-299.5201 390.6015,-303.6053 389.116,-310.6618"/>
<text text-anchor="middle" x="443.5" y="-321" font-family="Helvetica,sans-Serif" font-size="10.00" fill="#000000"> +source_branches_id</text>
</g>
<!-- Node6 -->
<g id="node6" class="node">
<title>Node6</title>
<polygon fill="#ffffff" stroke="#bfbfbf" points="484,-347.5 484,-415.5 584,-415.5 584,-347.5 484,-347.5"/>
<text text-anchor="start" x="492" y="-403.5" font-family="Helvetica,sans-Serif" font-size="10.00" fill="#000000">map&lt; int, unsigned</text>
<text text-anchor="middle" x="534" y="-392.5" font-family="Helvetica,sans-Serif" font-size="10.00" fill="#000000"> int &gt;</text>
<polyline fill="none" stroke="#bfbfbf" points="484,-385.5 584,-385.5 "/>
<text text-anchor="middle" x="534" y="-373.5" font-family="Helvetica,sans-Serif" font-size="10.00" fill="#000000"> </text>
<polyline fill="none" stroke="#bfbfbf" points="484,-366.5 584,-366.5 "/>
<text text-anchor="middle" x="534" y="-354.5" font-family="Helvetica,sans-Serif" font-size="10.00" fill="#000000"> </text>
</g>
<!-- Node6&#45;&gt;Node1 -->
<g id="edge5" class="edge">
<title>Node6&#45;&gt;Node1</title>
<path fill="none" stroke="#404040" d="M515.9062,-347.4103C510.0716,-337.5519 503.2289,-327.0245 496,-318 468.3968,-283.5404 433.9354,-249.2964 402.7739,-220.8028"/>
<polygon fill="none" stroke="#404040" points="402.5449,-220.5954 395.4128,-219.5311 393.652,-212.5383 400.7842,-213.6025 402.5449,-220.5954"/>
<text text-anchor="middle" x="542" y="-321" font-family="Helvetica,sans-Serif" font-size="10.00" fill="#000000"> +branches_index</text>
</g>
</g>
</svg>
