<?xml version="1.0" encoding="UTF-8" standalone="no"?>
<!DOCTYPE svg PUBLIC "-//W3C//DTD SVG 1.1//EN"
 "http://www.w3.org/Graphics/SVG/1.1/DTD/svg11.dtd">
<!-- Generated by graphviz version 2.40.1 (20161225.0304)
 -->
<!-- Title: River::Timing Pages: 1 -->
<svg width="276pt" height="226pt"
 viewBox="0.00 0.00 275.50 226.00" xmlns="http://www.w3.org/2000/svg" xmlns:xlink="http://www.w3.org/1999/xlink">
<g id="graph0" class="graph" transform="scale(1 1) rotate(0) translate(4 222)">
<title>River::Timing</title>
<polygon fill="#ffffff" stroke="transparent" points="-4,4 -4,-222 271.5,-222 271.5,4 -4,4"/>
<!-- Node1 -->
<g id="node1" class="node">
<title>Node1</title>
<polygon fill="#bfbfbf" stroke="#000000" points="69,-.5 69,-101.5 173,-101.5 173,-.5 69,-.5"/>
<text text-anchor="middle" x="121" y="-89.5" font-family="Helvetica,sans-Serif" font-size="10.00" fill="#000000">River::Timing</text>
<polyline fill="none" stroke="#000000" points="69,-82.5 173,-82.5 "/>
<text text-anchor="middle" x="121" y="-70.5" font-family="Helvetica,sans-Serif" font-size="10.00" fill="#000000"> </text>
<polyline fill="none" stroke="#000000" points="69,-63.5 173,-63.5 "/>
<text text-anchor="start" x="77" y="-51.5" font-family="Helvetica,sans-Serif" font-size="10.00" fill="#000000">+ Timing()</text>
<text text-anchor="start" x="77" y="-40.5" font-family="Helvetica,sans-Serif" font-size="10.00" fill="#000000">+ CurrentDate()</text>
<text text-anchor="start" x="77" y="-29.5" font-family="Helvetica,sans-Serif" font-size="10.00" fill="#000000">+ CreationtDate()</text>
<text text-anchor="start" x="77" y="-18.5" font-family="Helvetica,sans-Serif" font-size="10.00" fill="#000000">+ Record()</text>
<text text-anchor="start" x="77" y="-7.5" font-family="Helvetica,sans-Serif" font-size="10.00" fill="#000000">+ Total()</text>
</g>
<!-- Node2 -->
<g id="node2" class="node">
<title>Node2</title>
<polygon fill="#ffffff" stroke="#bfbfbf" points="0,-160.5 0,-217.5 48,-217.5 48,-160.5 0,-160.5"/>
<text text-anchor="middle" x="24" y="-205.5" font-family="Helvetica,sans-Serif" font-size="10.00" fill="#000000">time_t</text>
<polyline fill="none" stroke="#bfbfbf" points="0,-198.5 48,-198.5 "/>
<text text-anchor="middle" x="24" y="-186.5" font-family="Helvetica,sans-Serif" font-size="10.00" fill="#000000"> </text>
<polyline fill="none" stroke="#bfbfbf" points="0,-179.5 48,-179.5 "/>
<text text-anchor="middle" x="24" y="-167.5" font-family="Helvetica,sans-Serif" font-size="10.00" fill="#000000"> </text>
</g>
<!-- Node2&#45;&gt;Node1 -->
<g id="edge1" class="edge">
<title>Node2&#45;&gt;Node1</title>
<path fill="none" stroke="#404040" d="M28.061,-160.2962C30.8367,-147.2796 35.4388,-132.1242 43,-120 47.7358,-112.4062 53.5564,-105.1694 59.8653,-98.4353"/>
<polygon fill="none" stroke="#404040" points="60.2334,-98.0669 61.6445,-90.9952 68.7149,-89.5778 67.3039,-96.6495 60.2334,-98.0669"/>
<text text-anchor="middle" x="80" y="-128.5" font-family="Helvetica,sans-Serif" font-size="10.00" fill="#000000"> &#45;creation_date</text>
</g>
<!-- Node3 -->
<g id="node3" class="node">
<title>Node3</title>
<polygon fill="#ffffff" stroke="#bfbfbf" points="95.5,-160.5 95.5,-217.5 146.5,-217.5 146.5,-160.5 95.5,-160.5"/>
<text text-anchor="middle" x="121" y="-205.5" font-family="Helvetica,sans-Serif" font-size="10.00" fill="#000000">clock_t</text>
<polyline fill="none" stroke="#bfbfbf" points="95.5,-198.5 146.5,-198.5 "/>
<text text-anchor="middle" x="121" y="-186.5" font-family="Helvetica,sans-Serif" font-size="10.00" fill="#000000"> </text>
<polyline fill="none" stroke="#bfbfbf" points="95.5,-179.5 146.5,-179.5 "/>
<text text-anchor="middle" x="121" y="-167.5" font-family="Helvetica,sans-Serif" font-size="10.00" fill="#000000"> </text>
</g>
<!-- Node3&#45;&gt;Node1 -->
<g id="edge2" class="edge">
<title>Node3&#45;&gt;Node1</title>
<path fill="none" stroke="#404040" d="M121,-160.4063C121,-146.8804 121,-130.1561 121,-113.8884"/>
<polygon fill="none" stroke="#404040" points="121.0001,-113.5979 117,-107.5979 121,-101.5979 125,-107.5979 121.0001,-113.5979"/>
<text text-anchor="middle" x="131" y="-134" font-family="Helvetica,sans-Serif" font-size="10.00" fill="#000000"> &#45;tik</text>
<text text-anchor="middle" x="131" y="-123" font-family="Helvetica,sans-Serif" font-size="10.00" fill="#000000">&#45;tok</text>
</g>
<!-- Node4 -->
<g id="node4" class="node">
<title>Node4</title>
<polygon fill="#ffffff" stroke="#bfbfbf" points="164.5,-160.5 164.5,-217.5 267.5,-217.5 267.5,-160.5 164.5,-160.5"/>
<text text-anchor="middle" x="216" y="-205.5" font-family="Helvetica,sans-Serif" font-size="10.00" fill="#000000">vector&lt; double &gt;</text>
<polyline fill="none" stroke="#bfbfbf" points="164.5,-198.5 267.5,-198.5 "/>
<text text-anchor="middle" x="216" y="-186.5" font-family="Helvetica,sans-Serif" font-size="10.00" fill="#000000"> </text>
<polyline fill="none" stroke="#bfbfbf" points="164.5,-179.5 267.5,-179.5 "/>
<text text-anchor="middle" x="216" y="-167.5" font-family="Helvetica,sans-Serif" font-size="10.00" fill="#000000"> </text>
</g>
<!-- Node4&#45;&gt;Node1 -->
<g id="edge3" class="edge">
<title>Node4&#45;&gt;Node1</title>
<path fill="none" stroke="#404040" d="M196.3159,-160.4063C186.5482,-146.2174 174.3575,-128.5087 162.6484,-111.4998"/>
<polygon fill="none" stroke="#404040" points="162.6364,-111.4823 155.9394,-108.8082 155.8319,-101.5979 162.5289,-104.2719 162.6364,-111.4823"/>
<text text-anchor="middle" x="206" y="-128.5" font-family="Helvetica,sans-Serif" font-size="10.00" fill="#000000"> +records</text>
</g>
</g>
</svg>
