<?xml version="1.0" encoding="UTF-8" standalone="no"?>
<!DOCTYPE svg PUBLIC "-//W3C//DTD SVG 1.1//EN"
 "http://www.w3.org/Graphics/SVG/1.1/DTD/svg11.dtd">
<!-- Generated by graphviz version 2.43.0 (0)
 -->
<!-- Title: River::Triangle Pages: 1 -->
<svg width="1006pt" height="826pt"
 viewBox="0.00 0.00 1005.51 826.00" xmlns="http://www.w3.org/2000/svg" xmlns:xlink="http://www.w3.org/1999/xlink">
<g id="graph0" class="graph" transform="scale(1 1) rotate(0) translate(4 822)">
<title>River::Triangle</title>
<polygon fill="white" stroke="transparent" points="-4,4 -4,-822 1001.51,-822 1001.51,4 -4,4"/>
<!-- Node1 -->
<g id="node1" class="node">
<title>Node1</title>
<g id="a_node1"><a xlink:title="Traingle mesh geneartion tool wrapper.">
<polygon fill="#bfbfbf" stroke="black" points="361.01,-0.5 361.01,-332.5 542.01,-332.5 542.01,-0.5 361.01,-0.5"/>
<text text-anchor="middle" x="451.51" y="-320.5" font-family="Helvetica,sans-Serif" font-size="10.00">River::Triangle</text>
<polyline fill="none" stroke="black" points="361.01,-313.5 542.01,-313.5 "/>
<text text-anchor="start" x="369.01" y="-301.5" font-family="Helvetica,sans-Serif" font-size="10.00">+ Refine</text>
<text text-anchor="start" x="369.01" y="-290.5" font-family="Helvetica,sans-Serif" font-size="10.00">+ EncloseConvexHull</text>
<text text-anchor="start" x="369.01" y="-279.5" font-family="Helvetica,sans-Serif" font-size="10.00">+ AssignRegionalAttributes</text>
<text text-anchor="start" x="369.01" y="-268.5" font-family="Helvetica,sans-Serif" font-size="10.00">+ Quite</text>
<text text-anchor="start" x="369.01" y="-257.5" font-family="Helvetica,sans-Serif" font-size="10.00">&#45; ReadPSLG</text>
<text text-anchor="start" x="369.01" y="-246.5" font-family="Helvetica,sans-Serif" font-size="10.00">&#45; SuppressNodeFile</text>
<text text-anchor="start" x="369.01" y="-235.5" font-family="Helvetica,sans-Serif" font-size="10.00">&#45; OutputEdges</text>
<text text-anchor="start" x="369.01" y="-224.5" font-family="Helvetica,sans-Serif" font-size="10.00">&#45; ComputeNeighbours</text>
<text text-anchor="start" x="369.01" y="-213.5" font-family="Helvetica,sans-Serif" font-size="10.00">&#45; SuppressMehsFileNumbering</text>
<text text-anchor="start" x="369.01" y="-202.5" font-family="Helvetica,sans-Serif" font-size="10.00">&#45; SuppressHoles</text>
<text text-anchor="start" x="369.01" y="-191.5" font-family="Helvetica,sans-Serif" font-size="10.00">&#45; SuppressExactArithmetics</text>
<text text-anchor="start" x="369.01" y="-180.5" font-family="Helvetica,sans-Serif" font-size="10.00">&#45; SteinerPointsOnBoundary</text>
<text text-anchor="start" x="369.01" y="-169.5" font-family="Helvetica,sans-Serif" font-size="10.00">&#45; VoronoiDiagram</text>
<polyline fill="none" stroke="black" points="361.01,-162.5 542.01,-162.5 "/>
<text text-anchor="start" x="369.01" y="-150.5" font-family="Helvetica,sans-Serif" font-size="10.00">+ print_geometry()</text>
<text text-anchor="start" x="369.01" y="-139.5" font-family="Helvetica,sans-Serif" font-size="10.00">+ Triangle()</text>
<text text-anchor="start" x="369.01" y="-128.5" font-family="Helvetica,sans-Serif" font-size="10.00">+ Triangle()</text>
<text text-anchor="start" x="369.01" y="-117.5" font-family="Helvetica,sans-Serif" font-size="10.00">+ ~Triangle()</text>
<text text-anchor="start" x="369.01" y="-106.5" font-family="Helvetica,sans-Serif" font-size="10.00">+ generate_quadrangular_mesh()</text>
<text text-anchor="start" x="369.01" y="-95.5" font-family="Helvetica,sans-Serif" font-size="10.00">&#45; set_all_values_to_default()</text>
<text text-anchor="start" x="369.01" y="-84.5" font-family="Helvetica,sans-Serif" font-size="10.00">&#45; free_allocated_memory()</text>
<text text-anchor="start" x="369.01" y="-73.5" font-family="Helvetica,sans-Serif" font-size="10.00">&#45; update_options()</text>
<text text-anchor="start" x="369.01" y="-62.5" font-family="Helvetica,sans-Serif" font-size="10.00">&#45; print_options()</text>
<text text-anchor="start" x="369.01" y="-51.5" font-family="Helvetica,sans-Serif" font-size="10.00">&#45; get_geometry()</text>
<text text-anchor="start" x="369.01" y="-40.5" font-family="Helvetica,sans-Serif" font-size="10.00">&#45; get_voronoi()</text>
<text text-anchor="start" x="369.01" y="-29.5" font-family="Helvetica,sans-Serif" font-size="10.00">&#45; tethex_to_io()</text>
<text text-anchor="start" x="369.01" y="-18.5" font-family="Helvetica,sans-Serif" font-size="10.00">&#45; io_to_tethex()</text>
<text text-anchor="start" x="369.01" y="-7.5" font-family="Helvetica,sans-Serif" font-size="10.00">&#45; initialize_mesh_parameters()</text>
</a>
</g>
</g>
<!-- Node2 -->
<g id="node2" class="node">
<title>Node2</title>
<g id="a_node2"><a xlink:title=" ">
<polygon fill="white" stroke="#bfbfbf" points="7.51,-760.5 7.51,-817.5 57.51,-817.5 57.51,-760.5 7.51,-760.5"/>
<text text-anchor="middle" x="32.51" y="-805.5" font-family="Helvetica,sans-Serif" font-size="10.00">double</text>
<polyline fill="none" stroke="#bfbfbf" points="7.51,-798.5 57.51,-798.5 "/>
<text text-anchor="middle" x="32.51" y="-786.5" font-family="Helvetica,sans-Serif" font-size="10.00"> </text>
<polyline fill="none" stroke="#bfbfbf" points="7.51,-779.5 57.51,-779.5 "/>
<text text-anchor="middle" x="32.51" y="-767.5" font-family="Helvetica,sans-Serif" font-size="10.00"> </text>
</a>
</g>
</g>
<!-- Node2&#45;&gt;Node1 -->
<g id="edge1" class="edge">
<title>Node2&#45;&gt;Node1</title>
<path fill="none" stroke="#404040" d="M23.57,-760.27C7.57,-705.31 -20.36,-580.11 24.51,-490 91.92,-354.6 246.31,-260.98 349.76,-210.76"/>
<polygon fill="none" stroke="#404040" points="350.04,-210.63 353.73,-204.43 360.86,-205.44 357.18,-211.64 350.04,-210.63"/>
<text text-anchor="middle" x="71.51" y="-566" font-family="Helvetica,sans-Serif" font-size="10.00"> +MaxEdgeLenght</text>
<text text-anchor="middle" x="71.51" y="-555" font-family="Helvetica,sans-Serif" font-size="10.00">+MinTriaArea</text>
<text text-anchor="middle" x="71.51" y="-544" font-family="Helvetica,sans-Serif" font-size="10.00">+MaxTriaArea</text>
<text text-anchor="middle" x="71.51" y="-533" font-family="Helvetica,sans-Serif" font-size="10.00">+MaxTriangleRatio</text>
<text text-anchor="middle" x="71.51" y="-522" font-family="Helvetica,sans-Serif" font-size="10.00">+MinAngle</text>
<text text-anchor="middle" x="71.51" y="-511" font-family="Helvetica,sans-Serif" font-size="10.00">+MinEdgeLenght</text>
</g>
<!-- Node8 -->
<g id="node8" class="node">
<title>Node8</title>
<g id="a_node8"><a xlink:href="classRiver_1_1MeshParams.html" target="_top" xlink:title="Adaptive mesh area constraint function.">
<polygon fill="white" stroke="black" points="128.01,-490.5 128.01,-591.5 263.01,-591.5 263.01,-490.5 128.01,-490.5"/>
<text text-anchor="middle" x="195.51" y="-579.5" font-family="Helvetica,sans-Serif" font-size="10.00">River::MeshParams</text>
<polyline fill="none" stroke="black" points="128.01,-572.5 263.01,-572.5 "/>
<text text-anchor="start" x="136.01" y="-560.5" font-family="Helvetica,sans-Serif" font-size="10.00">+ min_edge</text>
<polyline fill="none" stroke="black" points="128.01,-553.5 263.01,-553.5 "/>
<text text-anchor="start" x="136.01" y="-541.5" font-family="Helvetica,sans-Serif" font-size="10.00">+ sign()</text>
<text text-anchor="start" x="136.01" y="-530.5" font-family="Helvetica,sans-Serif" font-size="10.00">+ PointInTriangle()</text>
<text text-anchor="start" x="136.01" y="-519.5" font-family="Helvetica,sans-Serif" font-size="10.00">+ refinementFunction()</text>
<text text-anchor="start" x="136.01" y="-508.5" font-family="Helvetica,sans-Serif" font-size="10.00">+ meshAreaConstraint()</text>
<text text-anchor="start" x="136.01" y="-497.5" font-family="Helvetica,sans-Serif" font-size="10.00">+ operator==()</text>
</a>
</g>
</g>
<!-- Node2&#45;&gt;Node8 -->
<g id="edge9" class="edge">
<title>Node2&#45;&gt;Node8</title>
<path fill="none" stroke="#404040" d="M29.82,-760.44C27.65,-722.18 29.56,-652.87 65.51,-610 80.14,-592.54 93.02,-601.98 113.51,-592 114.52,-591.5 115.54,-591 116.56,-590.49"/>
<polygon fill="none" stroke="#404040" points="116.95,-590.29 120.42,-583.96 127.59,-584.73 124.12,-591.06 116.95,-590.29"/>
<text text-anchor="middle" x="120.51" y="-734" font-family="Helvetica,sans-Serif" font-size="10.00"> +min_area</text>
<text text-anchor="middle" x="120.51" y="-723" font-family="Helvetica,sans-Serif" font-size="10.00">+refinment_radius</text>
<text text-anchor="middle" x="120.51" y="-712" font-family="Helvetica,sans-Serif" font-size="10.00">+max_edge</text>
<text text-anchor="middle" x="120.51" y="-701" font-family="Helvetica,sans-Serif" font-size="10.00">+sigma</text>
<text text-anchor="middle" x="120.51" y="-690" font-family="Helvetica,sans-Serif" font-size="10.00">+max_area</text>
<text text-anchor="middle" x="120.51" y="-679" font-family="Helvetica,sans-Serif" font-size="10.00">+smoothness_degree</text>
<text text-anchor="middle" x="120.51" y="-668" font-family="Helvetica,sans-Serif" font-size="10.00">+exponant</text>
<text text-anchor="middle" x="120.51" y="-657" font-family="Helvetica,sans-Serif" font-size="10.00">+ratio</text>
<text text-anchor="middle" x="120.51" y="-646" font-family="Helvetica,sans-Serif" font-size="10.00">+min_angle</text>
<text text-anchor="start" x="65.51" y="-635" font-family="Helvetica,sans-Serif" font-size="10.00">+ignored_smoothness</text>
<text text-anchor="middle" x="120.51" y="-624" font-family="Helvetica,sans-Serif" font-size="10.00">_length</text>
<text text-anchor="middle" x="120.51" y="-613" font-family="Helvetica,sans-Serif" font-size="10.00">...</text>
</g>
<!-- Node3 -->
<g id="node3" class="node">
<title>Node3</title>
<g id="a_node3"><a xlink:title=" ">
<polygon fill="white" stroke="#bfbfbf" points="330.51,-512.5 330.51,-569.5 374.51,-569.5 374.51,-512.5 330.51,-512.5"/>
<text text-anchor="middle" x="352.51" y="-557.5" font-family="Helvetica,sans-Serif" font-size="10.00">string</text>
<polyline fill="none" stroke="#bfbfbf" points="330.51,-550.5 374.51,-550.5 "/>
<text text-anchor="middle" x="352.51" y="-538.5" font-family="Helvetica,sans-Serif" font-size="10.00"> </text>
<polyline fill="none" stroke="#bfbfbf" points="330.51,-531.5 374.51,-531.5 "/>
<text text-anchor="middle" x="352.51" y="-519.5" font-family="Helvetica,sans-Serif" font-size="10.00"> </text>
</a>
</g>
</g>
<!-- Node3&#45;&gt;Node1 -->
<g id="edge2" class="edge">
<title>Node3&#45;&gt;Node1</title>
<path fill="none" stroke="#404040" d="M359.87,-512.31C369.5,-476.04 387.22,-409.4 404.52,-344.29"/>
<polygon fill="none" stroke="#404040" points="404.55,-344.19 402.22,-337.36 407.63,-332.59 409.95,-339.42 404.55,-344.19"/>
<text text-anchor="middle" x="424.01" y="-409" font-family="Helvetica,sans-Serif" font-size="10.00"> &#45;options</text>
</g>
<!-- Node4 -->
<g id="node4" class="node">
<title>Node4</title>
<g id="a_node4"><a xlink:href="structtriangulateio.html" target="_top" xlink:title="Used to pass data into and out of the triangulate() procedure.">
<polygon fill="white" stroke="black" points="392.51,-490.5 392.51,-591.5 510.51,-591.5 510.51,-490.5 392.51,-490.5"/>
<text text-anchor="middle" x="451.51" y="-579.5" font-family="Helvetica,sans-Serif" font-size="10.00">triangulateio</text>
<polyline fill="none" stroke="black" points="392.51,-572.5 510.51,-572.5 "/>
<text text-anchor="start" x="400.51" y="-560.5" font-family="Helvetica,sans-Serif" font-size="10.00">+ numberofpoints</text>
<text text-anchor="start" x="400.51" y="-549.5" font-family="Helvetica,sans-Serif" font-size="10.00">+ numberoftriangles</text>
<text text-anchor="start" x="400.51" y="-538.5" font-family="Helvetica,sans-Serif" font-size="10.00">+ numberofcorners</text>
<text text-anchor="start" x="400.51" y="-527.5" font-family="Helvetica,sans-Serif" font-size="10.00">+ edgelist</text>
<text text-anchor="start" x="400.51" y="-516.5" font-family="Helvetica,sans-Serif" font-size="10.00">+ edgemarkerlist</text>
<polyline fill="none" stroke="black" points="392.51,-509.5 510.51,-509.5 "/>
<text text-anchor="middle" x="451.51" y="-497.5" font-family="Helvetica,sans-Serif" font-size="10.00"> </text>
</a>
</g>
</g>
<!-- Node4&#45;&gt;Node1 -->
<g id="edge3" class="edge">
<title>Node4&#45;&gt;Node1</title>
<path fill="none" stroke="#404040" d="M451.51,-490.15C451.51,-452.37 451.51,-398.01 451.51,-344.64"/>
<polygon fill="none" stroke="#404040" points="451.51,-344.56 447.51,-338.56 451.51,-332.56 455.51,-338.56 451.51,-344.56"/>
<text text-anchor="middle" x="471.01" y="-409" font-family="Helvetica,sans-Serif" font-size="10.00"> &#45;vorout</text>
</g>
<!-- Node5 -->
<g id="node5" class="node">
<title>Node5</title>
<g id="a_node5"><a xlink:title=" ">
<polygon fill="white" stroke="#bfbfbf" points="246.51,-760.5 246.51,-817.5 284.51,-817.5 284.51,-760.5 246.51,-760.5"/>
<text text-anchor="middle" x="265.51" y="-805.5" font-family="Helvetica,sans-Serif" font-size="10.00">int *</text>
<polyline fill="none" stroke="#bfbfbf" points="246.51,-798.5 284.51,-798.5 "/>
<text text-anchor="middle" x="265.51" y="-786.5" font-family="Helvetica,sans-Serif" font-size="10.00"> </text>
<polyline fill="none" stroke="#bfbfbf" points="246.51,-779.5 284.51,-779.5 "/>
<text text-anchor="middle" x="265.51" y="-767.5" font-family="Helvetica,sans-Serif" font-size="10.00"> </text>
</a>
</g>
</g>
<!-- Node5&#45;&gt;Node4 -->
<g id="edge4" class="edge">
<title>Node5&#45;&gt;Node4</title>
<path fill="none" stroke="#404040" d="M256.79,-760.32C246.49,-721.61 235.01,-651.4 271.51,-610 302.5,-574.84 332.48,-606.33 381.03,-591.94"/>
<polygon fill="none" stroke="#404040" points="381.09,-591.91 385.38,-586.11 392.38,-587.83 388.1,-593.64 381.09,-591.91"/>
<text text-anchor="middle" x="314.51" y="-673.5" font-family="Helvetica,sans-Serif" font-size="10.00"> +pointmarkerlist</text>
</g>
<!-- Node6 -->
<g id="node6" class="node">
<title>Node6</title>
<g id="a_node6"><a xlink:title=" ">
<polygon fill="white" stroke="#bfbfbf" points="349.51,-760.5 349.51,-817.5 399.51,-817.5 399.51,-760.5 349.51,-760.5"/>
<text text-anchor="middle" x="374.51" y="-805.5" font-family="Helvetica,sans-Serif" font-size="10.00">REAL *</text>
<polyline fill="none" stroke="#bfbfbf" points="349.51,-798.5 399.51,-798.5 "/>
<text text-anchor="middle" x="374.51" y="-786.5" font-family="Helvetica,sans-Serif" font-size="10.00"> </text>
<polyline fill="none" stroke="#bfbfbf" points="349.51,-779.5 399.51,-779.5 "/>
<text text-anchor="middle" x="374.51" y="-767.5" font-family="Helvetica,sans-Serif" font-size="10.00"> </text>
</a>
</g>
</g>
<!-- Node6&#45;&gt;Node4 -->
<g id="edge5" class="edge">
<title>Node6&#45;&gt;Node4</title>
<path fill="none" stroke="#404040" d="M368.01,-760.31C360.94,-724.01 353.36,-659.17 375.51,-610 377.92,-604.63 380.99,-599.51 384.51,-594.67"/>
<polygon fill="none" stroke="#404040" points="384.71,-594.42 385.39,-587.24 392.28,-585.11 391.6,-592.29 384.71,-594.42"/>
<text text-anchor="middle" x="427.01" y="-706.5" font-family="Helvetica,sans-Serif" font-size="10.00"> +regionlist</text>
<text text-anchor="middle" x="427.01" y="-695.5" font-family="Helvetica,sans-Serif" font-size="10.00">+pointattributelist</text>
<text text-anchor="middle" x="427.01" y="-684.5" font-family="Helvetica,sans-Serif" font-size="10.00">+pointlist</text>
<text text-anchor="middle" x="427.01" y="-673.5" font-family="Helvetica,sans-Serif" font-size="10.00">+trianglearealist</text>
<text text-anchor="middle" x="427.01" y="-662.5" font-family="Helvetica,sans-Serif" font-size="10.00">+normlist</text>
<text text-anchor="middle" x="427.01" y="-651.5" font-family="Helvetica,sans-Serif" font-size="10.00">+triangleattributelist</text>
<text text-anchor="middle" x="427.01" y="-640.5" font-family="Helvetica,sans-Serif" font-size="10.00">+holelist</text>
</g>
<!-- Node7 -->
<g id="node7" class="node">
<title>Node7</title>
<g id="a_node7"><a xlink:title=" ">
<polygon fill="white" stroke="#bfbfbf" points="564.01,-760.5 564.01,-817.5 593.01,-817.5 593.01,-760.5 564.01,-760.5"/>
<text text-anchor="middle" x="578.51" y="-805.5" font-family="Helvetica,sans-Serif" font-size="10.00">int</text>
<polyline fill="none" stroke="#bfbfbf" points="564.01,-798.5 593.01,-798.5 "/>
<text text-anchor="middle" x="578.51" y="-786.5" font-family="Helvetica,sans-Serif" font-size="10.00"> </text>
<polyline fill="none" stroke="#bfbfbf" points="564.01,-779.5 593.01,-779.5 "/>
<text text-anchor="middle" x="578.51" y="-767.5" font-family="Helvetica,sans-Serif" font-size="10.00"> </text>
</a>
</g>
</g>
<!-- Node7&#45;&gt;Node1 -->
<g id="edge7" class="edge">
<title>Node7&#45;&gt;Node1</title>
<path fill="none" stroke="#404040" d="M593.11,-782.31C608.59,-775.39 632.2,-762.09 642.51,-742 669.27,-689.8 654.38,-667.45 642.51,-610 623.61,-518.53 584.88,-422.7 547.2,-343.7"/>
<polygon fill="none" stroke="#404040" points="547.09,-343.48 540.89,-339.81 541.89,-332.67 548.1,-336.34 547.09,-343.48"/>
<text text-anchor="middle" x="699.51" y="-544" font-family="Helvetica,sans-Serif" font-size="10.00"> &#45;dim</text>
<text text-anchor="middle" x="699.51" y="-533" font-family="Helvetica,sans-Serif" font-size="10.00">&#45;MaxNumOfSteinerPoints</text>
</g>
<!-- Node7&#45;&gt;Node4 -->
<g id="edge6" class="edge">
<title>Node7&#45;&gt;Node4</title>
<path fill="none" stroke="#404040" d="M563.98,-783.52C546.22,-777.25 516.68,-764.07 501.51,-742 467.76,-692.93 494.69,-667.31 478.51,-610 477.87,-607.75 477.19,-605.48 476.47,-603.19"/>
<polygon fill="none" stroke="#404040" points="476.44,-603.1 470.73,-598.7 472.6,-591.73 478.31,-596.14 476.44,-603.1"/>
<text text-anchor="middle" x="572.01" y="-728.5" font-family="Helvetica,sans-Serif" font-size="10.00"> +numberofsegments</text>
<text text-anchor="middle" x="572.01" y="-717.5" font-family="Helvetica,sans-Serif" font-size="10.00">+segmentmarkerlist</text>
<text text-anchor="middle" x="572.01" y="-706.5" font-family="Helvetica,sans-Serif" font-size="10.00">+numberofedges</text>
<text text-anchor="middle" x="572.01" y="-695.5" font-family="Helvetica,sans-Serif" font-size="10.00">+segmentlist</text>
<text text-anchor="middle" x="572.01" y="-684.5" font-family="Helvetica,sans-Serif" font-size="10.00">+numberofpointattributes</text>
<text text-anchor="middle" x="572.01" y="-673.5" font-family="Helvetica,sans-Serif" font-size="10.00">+trianglelist</text>
<text text-anchor="middle" x="572.01" y="-662.5" font-family="Helvetica,sans-Serif" font-size="10.00">+numberofholes</text>
<text text-anchor="middle" x="572.01" y="-651.5" font-family="Helvetica,sans-Serif" font-size="10.00">+neighborlist</text>
<text text-anchor="middle" x="572.01" y="-640.5" font-family="Helvetica,sans-Serif" font-size="10.00">+numberofregions</text>
<text text-anchor="middle" x="572.01" y="-629.5" font-family="Helvetica,sans-Serif" font-size="10.00">+numberoftriangleattributes</text>
<text text-anchor="middle" x="572.01" y="-618.5" font-family="Helvetica,sans-Serif" font-size="10.00">...</text>
</g>
<!-- Node8&#45;&gt;Node1 -->
<g id="edge8" class="edge">
<title>Node8&#45;&gt;Node1</title>
<path fill="none" stroke="#404040" d="M214.9,-490.17C231.29,-450.81 256.8,-395.32 286.51,-351 305.82,-322.19 329.42,-293.25 352.66,-267.15"/>
<polygon fill="none" stroke="#404040" points="352.83,-266.96 353.87,-259.82 360.86,-258.04 359.82,-265.17 352.83,-266.96"/>
<text text-anchor="middle" x="327.01" y="-409" font-family="Helvetica,sans-Serif" font-size="10.00"> +mesh_params</text>
</g>
<!-- Node9 -->
<g id="node9" class="node">
<title>Node9</title>
<g id="a_node9"><a xlink:title=" ">
<polygon fill="white" stroke="#bfbfbf" points="133.01,-760.5 133.01,-817.5 228.01,-817.5 228.01,-760.5 133.01,-760.5"/>
<text text-anchor="middle" x="180.51" y="-805.5" font-family="Helvetica,sans-Serif" font-size="10.00">vector&lt; Point &gt;</text>
<polyline fill="none" stroke="#bfbfbf" points="133.01,-798.5 228.01,-798.5 "/>
<text text-anchor="middle" x="180.51" y="-786.5" font-family="Helvetica,sans-Serif" font-size="10.00"> </text>
<polyline fill="none" stroke="#bfbfbf" points="133.01,-779.5 228.01,-779.5 "/>
<text text-anchor="middle" x="180.51" y="-767.5" font-family="Helvetica,sans-Serif" font-size="10.00"> </text>
</a>
</g>
</g>
<!-- Node9&#45;&gt;Node8 -->
<g id="edge10" class="edge">
<title>Node9&#45;&gt;Node8</title>
<path fill="none" stroke="#404040" d="M179.63,-760.48C178.82,-725.44 178.41,-663.07 183.51,-610 183.7,-607.95 183.93,-605.87 184.17,-603.77"/>
<polygon fill="none" stroke="#404040" points="184.21,-603.53 181.05,-597.05 185.81,-591.64 188.97,-598.12 184.21,-603.53"/>
<text text-anchor="middle" x="213.51" y="-673.5" font-family="Helvetica,sans-Serif" font-size="10.00"> +tip_points</text>
</g>
<!-- Node10 -->
<g id="node10" class="node">
<title>Node10</title>
<g id="a_node10"><a xlink:title=" ">
<polygon fill="white" stroke="#bfbfbf" points="798.51,-512.5 798.51,-569.5 836.51,-569.5 836.51,-512.5 798.51,-512.5"/>
<text text-anchor="middle" x="817.51" y="-557.5" font-family="Helvetica,sans-Serif" font-size="10.00">bool</text>
<polyline fill="none" stroke="#bfbfbf" points="798.51,-550.5 836.51,-550.5 "/>
<text text-anchor="middle" x="817.51" y="-538.5" font-family="Helvetica,sans-Serif" font-size="10.00"> </text>
<polyline fill="none" stroke="#bfbfbf" points="798.51,-531.5 836.51,-531.5 "/>
<text text-anchor="middle" x="817.51" y="-519.5" font-family="Helvetica,sans-Serif" font-size="10.00"> </text>
</a>
</g>
</g>
<!-- Node10&#45;&gt;Node1 -->
<g id="edge11" class="edge">
<title>Node10&#45;&gt;Node1</title>
<path fill="none" stroke="#404040" d="M800.02,-512.4C795.15,-505.02 789.75,-497.12 784.51,-490 737.1,-425.68 726.7,-407.79 670.51,-351 633.84,-313.95 590.37,-276.39 551.86,-244.99"/>
<polygon fill="none" stroke="#404040" points="551.51,-244.7 544.33,-244.03 542.19,-237.14 549.36,-237.81 551.51,-244.7"/>
<text text-anchor="middle" x="835.51" y="-464" font-family="Helvetica,sans-Serif" font-size="10.00"> +Verbose</text>
<text text-anchor="middle" x="835.51" y="-453" font-family="Helvetica,sans-Serif" font-size="10.00">+DelaunayTriangles</text>
<text text-anchor="middle" x="835.51" y="-442" font-family="Helvetica,sans-Serif" font-size="10.00">+CustomConstraint</text>
<text text-anchor="middle" x="835.51" y="-431" font-family="Helvetica,sans-Serif" font-size="10.00">&#45;SteinerPointsOnSegments</text>
<text text-anchor="middle" x="835.51" y="-420" font-family="Helvetica,sans-Serif" font-size="10.00">+CheckFinalMesh</text>
<text text-anchor="middle" x="835.51" y="-409" font-family="Helvetica,sans-Serif" font-size="10.00">+AreaConstrain</text>
<text text-anchor="middle" x="835.51" y="-398" font-family="Helvetica,sans-Serif" font-size="10.00">&#45;SuppressBoundaryMarkers</text>
<text text-anchor="middle" x="835.51" y="-387" font-family="Helvetica,sans-Serif" font-size="10.00">&#45;SuppressEleFile</text>
<text text-anchor="middle" x="835.51" y="-376" font-family="Helvetica,sans-Serif" font-size="10.00">&#45;SuppressPolyFile</text>
<text text-anchor="middle" x="835.51" y="-365" font-family="Helvetica,sans-Serif" font-size="10.00">+ConstrainAngle</text>
<text text-anchor="middle" x="835.51" y="-354" font-family="Helvetica,sans-Serif" font-size="10.00">...</text>
</g>
<!-- Node11 -->
<g id="node11" class="node">
<title>Node11</title>
<g id="a_node11"><a xlink:title=" ">
<polygon fill="white" stroke="#bfbfbf" points="898.51,-512.5 898.51,-569.5 962.51,-569.5 962.51,-512.5 898.51,-512.5"/>
<text text-anchor="middle" x="930.51" y="-557.5" font-family="Helvetica,sans-Serif" font-size="10.00">algorithm</text>
<polyline fill="none" stroke="#bfbfbf" points="898.51,-550.5 962.51,-550.5 "/>
<text text-anchor="middle" x="930.51" y="-538.5" font-family="Helvetica,sans-Serif" font-size="10.00"> </text>
<polyline fill="none" stroke="#bfbfbf" points="898.51,-531.5 962.51,-531.5 "/>
<text text-anchor="middle" x="930.51" y="-519.5" font-family="Helvetica,sans-Serif" font-size="10.00"> </text>
</a>
</g>
</g>
<!-- Node11&#45;&gt;Node1 -->
<g id="edge12" class="edge">
<title>Node11&#45;&gt;Node1</title>
<path fill="none" stroke="#404040" d="M935.03,-512.38C939.96,-472.43 942.86,-398.15 906.51,-351 821.62,-240.91 660.03,-196.61 554.04,-178.96"/>
<polygon fill="none" stroke="#404040" points="553.89,-178.93 547.34,-181.93 542.05,-177.03 548.6,-174.03 553.89,-178.93"/>
<text text-anchor="middle" x="967.51" y="-409" font-family="Helvetica,sans-Serif" font-size="10.00"> +Algorithm</text>
</g>
</g>
</svg>
