<?xml version="1.0" encoding="UTF-8" standalone="no"?>
<!DOCTYPE svg PUBLIC "-//W3C//DTD SVG 1.1//EN"
 "http://www.w3.org/Graphics/SVG/1.1/DTD/svg11.dtd">
<!-- Generated by graphviz version 2.40.1 (20161225.0304)
 -->
<!-- Title: River::Line Pages: 1 -->
<svg width="116pt" height="182pt"
 viewBox="0.00 0.00 116.00 182.00" xmlns="http://www.w3.org/2000/svg" xmlns:xlink="http://www.w3.org/1999/xlink">
<g id="graph0" class="graph" transform="scale(1 1) rotate(0) translate(4 178)">
<title>River::Line</title>
<polygon fill="#ffffff" stroke="transparent" points="-4,4 -4,-178 112,-178 112,4 -4,4"/>
<!-- Node1 -->
<g id="node1" class="node">
<title>Node1</title>
<polygon fill="#bfbfbf" stroke="#000000" points="11.5,-.5 11.5,-57.5 79.5,-57.5 79.5,-.5 11.5,-.5"/>
<text text-anchor="middle" x="45.5" y="-45.5" font-family="Helvetica,sans-Serif" font-size="10.00" fill="#000000">River::Line</text>
<polyline fill="none" stroke="#000000" points="11.5,-38.5 79.5,-38.5 "/>
<text text-anchor="middle" x="45.5" y="-26.5" font-family="Helvetica,sans-Serif" font-size="10.00" fill="#000000"> </text>
<polyline fill="none" stroke="#000000" points="11.5,-19.5 79.5,-19.5 "/>
<text text-anchor="start" x="19.5" y="-7.5" font-family="Helvetica,sans-Serif" font-size="10.00" fill="#000000">+ Line()</text>
</g>
<!-- Node2 -->
<g id="node2" class="node">
<title>Node2</title>
<polygon fill="#ffffff" stroke="#bfbfbf" points="0,-116.5 0,-173.5 29,-173.5 29,-116.5 0,-116.5"/>
<text text-anchor="middle" x="14.5" y="-161.5" font-family="Helvetica,sans-Serif" font-size="10.00" fill="#000000">int</text>
<polyline fill="none" stroke="#bfbfbf" points="0,-154.5 29,-154.5 "/>
<text text-anchor="middle" x="14.5" y="-142.5" font-family="Helvetica,sans-Serif" font-size="10.00" fill="#000000"> </text>
<polyline fill="none" stroke="#bfbfbf" points="0,-135.5 29,-135.5 "/>
<text text-anchor="middle" x="14.5" y="-123.5" font-family="Helvetica,sans-Serif" font-size="10.00" fill="#000000"> </text>
</g>
<!-- Node2&#45;&gt;Node1 -->
<g id="edge1" class="edge">
<title>Node2&#45;&gt;Node1</title>
<path fill="none" stroke="#404040" d="M22.1629,-116.3258C25.9262,-102.2439 30.5259,-85.0322 34.6438,-69.6233"/>
<polygon fill="none" stroke="#404040" points="34.7195,-69.3395 32.4043,-62.5102 37.8178,-57.7463 40.1331,-64.5757 34.7195,-69.3395"/>
<text text-anchor="middle" x="44" y="-84.5" font-family="Helvetica,sans-Serif" font-size="10.00" fill="#000000"> +id</text>
</g>
<!-- Node3 -->
<g id="node3" class="node">
<title>Node3</title>
<polygon fill="#ffffff" stroke="#bfbfbf" points="47,-116.5 47,-173.5 108,-173.5 108,-116.5 47,-116.5"/>
<text text-anchor="middle" x="77.5" y="-161.5" font-family="Helvetica,sans-Serif" font-size="10.00" fill="#000000">unsigned</text>
<polyline fill="none" stroke="#bfbfbf" points="47,-154.5 108,-154.5 "/>
<text text-anchor="middle" x="77.5" y="-142.5" font-family="Helvetica,sans-Serif" font-size="10.00" fill="#000000"> </text>
<polyline fill="none" stroke="#bfbfbf" points="47,-135.5 108,-135.5 "/>
<text text-anchor="middle" x="77.5" y="-123.5" font-family="Helvetica,sans-Serif" font-size="10.00" fill="#000000"> </text>
</g>
<!-- Node3&#45;&gt;Node1 -->
<g id="edge2" class="edge">
<title>Node3&#45;&gt;Node1</title>
<path fill="none" stroke="#404040" d="M69.5899,-116.3258C65.7052,-102.2439 60.9572,-85.0322 56.7064,-69.6233"/>
<polygon fill="none" stroke="#404040" points="56.6212,-69.3142 51.1697,-64.594 53.43,-57.7463 58.8816,-62.4665 56.6212,-69.3142"/>
<text text-anchor="middle" x="75.5" y="-90" font-family="Helvetica,sans-Serif" font-size="10.00" fill="#000000"> +p1</text>
<text text-anchor="middle" x="75.5" y="-79" font-family="Helvetica,sans-Serif" font-size="10.00" fill="#000000">+p2</text>
</g>
</g>
</svg>
