<?xml version="1.0" encoding="UTF-8" standalone="no"?>
<!DOCTYPE svg PUBLIC "-//W3C//DTD SVG 1.1//EN"
 "http://www.w3.org/Graphics/SVG/1.1/DTD/svg11.dtd">
<!-- Generated by graphviz version 2.40.1 (20161225.0304)
 -->
<!-- Title: nlohmann::basic_json::patch Pages: 1 -->
<svg width="622pt" height="810pt"
 viewBox="0.00 0.00 622.00 810.00" xmlns="http://www.w3.org/2000/svg" xmlns:xlink="http://www.w3.org/1999/xlink">
<g id="graph0" class="graph" transform="scale(1 1) rotate(0) translate(4 806)">
<title>nlohmann::basic_json::patch</title>
<polygon fill="#ffffff" stroke="transparent" points="-4,4 -4,-806 618,-806 618,4 -4,4"/>
<!-- Node565 -->
<g id="node1" class="node">
<title>Node565</title>
<polygon fill="#bfbfbf" stroke="#000000" points="0,-396.5 0,-426.5 111,-426.5 111,-396.5 0,-396.5"/>
<text text-anchor="start" x="8" y="-414.5" font-family="Helvetica,sans-Serif" font-size="10.00" fill="#000000">nlohmann::basic_json</text>
<text text-anchor="middle" x="55.5" y="-403.5" font-family="Helvetica,sans-Serif" font-size="10.00" fill="#000000">::patch</text>
</g>
<!-- Node566 -->
<g id="node2" class="node">
<title>Node566</title>
<g id="a_node2"><a xlink:href="classnlohmann_1_1json__pointer.html#a649252bda4a2e75a0915b11a25d8bcc3" target="_top" xlink:title="return whether pointer points to the root document ">
<polygon fill="#ffffff" stroke="#000000" points="157,-771.5 157,-801.5 274,-801.5 274,-771.5 157,-771.5"/>
<text text-anchor="start" x="165" y="-789.5" font-family="Helvetica,sans-Serif" font-size="10.00" fill="#000000">nlohmann::json_pointer</text>
<text text-anchor="middle" x="215.5" y="-778.5" font-family="Helvetica,sans-Serif" font-size="10.00" fill="#000000">::empty</text>
</a>
</g>
</g>
<!-- Node565&#45;&gt;Node566 -->
<g id="edge1" class="edge">
<title>Node565&#45;&gt;Node566</title>
<path fill="none" stroke="#191970" d="M57.7257,-426.5705C66.7865,-486.1632 102.5391,-704.629 147,-756.5 150.0285,-760.0332 153.5518,-763.1652 157.372,-765.939"/>
<polygon fill="#191970" stroke="#191970" points="155.8054,-769.0886 166.1324,-771.4558 159.5356,-763.1653 155.8054,-769.0886"/>
</g>
<!-- Node567 -->
<g id="node3" class="node">
<title>Node567</title>
<g id="a_node3"><a xlink:href="classnlohmann_1_1json__pointer.html#a00eff109d9a0091e42ada9b16b90c8d9" target="_top" xlink:title="nlohmann::json_pointer::top">
<polygon fill="#ffffff" stroke="#000000" points="147,-509 147,-528 284,-528 284,-509 147,-509"/>
<text text-anchor="middle" x="215.5" y="-516" font-family="Helvetica,sans-Serif" font-size="10.00" fill="#000000">nlohmann::json_pointer::top</text>
</a>
</g>
</g>
<!-- Node565&#45;&gt;Node567 -->
<g id="edge2" class="edge">
<title>Node565&#45;&gt;Node567</title>
<path fill="none" stroke="#191970" d="M67.1213,-426.6166C83.0394,-446.2874 113.4946,-480.3945 147,-499.5 150.9047,-501.7266 155.085,-503.7042 159.3832,-505.4586"/>
<polygon fill="#191970" stroke="#191970" points="158.3266,-508.7989 168.9203,-508.9527 160.7348,-502.2262 158.3266,-508.7989"/>
</g>
<!-- Node568 -->
<g id="node4" class="node">
<title>Node568</title>
<g id="a_node4"><a xlink:href="classnlohmann_1_1detail_1_1out__of__range.html#a3f6d82a6f967c4728a1ec735a7867073" target="_top" xlink:title="nlohmann::detail::out\l_of_range::create">
<polygon fill="#ffffff" stroke="#000000" points="327.5,-541.5 327.5,-571.5 434.5,-571.5 434.5,-541.5 327.5,-541.5"/>
<text text-anchor="start" x="335.5" y="-559.5" font-family="Helvetica,sans-Serif" font-size="10.00" fill="#000000">nlohmann::detail::out</text>
<text text-anchor="middle" x="381" y="-548.5" font-family="Helvetica,sans-Serif" font-size="10.00" fill="#000000">_of_range::create</text>
</a>
</g>
</g>
<!-- Node565&#45;&gt;Node568 -->
<g id="edge18" class="edge">
<title>Node565&#45;&gt;Node568</title>
<path fill="none" stroke="#191970" d="M61.4944,-426.8526C73.2054,-454.5181 101.9822,-512.2086 147,-537.5 198.7531,-566.5753 267.3564,-568.7177 316.8872,-565.1615"/>
<polygon fill="#191970" stroke="#191970" points="317.4719,-568.6255 327.1541,-564.3238 316.9025,-561.6487 317.4719,-568.6255"/>
</g>
<!-- Node570 -->
<g id="node6" class="node">
<title>Node570</title>
<g id="a_node6"><a xlink:href="classnlohmann_1_1basic__json.html#a73ae333487310e3302135189ce8ff5d8" target="_top" xlink:title="access specified array element with bounds checking ">
<polygon fill="#ffffff" stroke="#000000" points="153,-471 153,-490 278,-490 278,-471 153,-471"/>
<text text-anchor="middle" x="215.5" y="-478" font-family="Helvetica,sans-Serif" font-size="10.00" fill="#000000">nlohmann::basic_json::at</text>
</a>
</g>
</g>
<!-- Node565&#45;&gt;Node570 -->
<g id="edge5" class="edge">
<title>Node565&#45;&gt;Node570</title>
<path fill="none" stroke="#191970" d="M79.603,-426.6667C97.6323,-437.5108 123.1795,-451.8379 147,-461.5 152.854,-463.8745 159.1056,-466.059 165.3618,-468.0347"/>
<polygon fill="#191970" stroke="#191970" points="164.5564,-471.447 175.1403,-470.9646 166.5656,-464.7416 164.5564,-471.447"/>
</g>
<!-- Node572 -->
<g id="node8" class="node">
<title>Node572</title>
<g id="a_node8"><a xlink:href="classnlohmann_1_1json__pointer.html#a6bd5b554c10f15672135c216893eef31" target="_top" xlink:title="return last reference token ">
<polygon fill="#ffffff" stroke="#000000" points="157,-683.5 157,-713.5 274,-713.5 274,-683.5 157,-683.5"/>
<text text-anchor="start" x="165" y="-701.5" font-family="Helvetica,sans-Serif" font-size="10.00" fill="#000000">nlohmann::json_pointer</text>
<text text-anchor="middle" x="215.5" y="-690.5" font-family="Helvetica,sans-Serif" font-size="10.00" fill="#000000">::back</text>
</a>
</g>
</g>
<!-- Node565&#45;&gt;Node572 -->
<g id="edge9" class="edge">
<title>Node565&#45;&gt;Node572</title>
<path fill="none" stroke="#191970" d="M56.3319,-426.644C59.584,-471.0733 75.1205,-602.463 147,-674.5 147.9513,-675.4533 148.9425,-676.3689 149.9687,-677.2482"/>
<polygon fill="#191970" stroke="#191970" points="148.2675,-680.3345 158.4378,-683.3035 152.3388,-674.6402 148.2675,-680.3345"/>
</g>
<!-- Node573 -->
<g id="node9" class="node">
<title>Node573</title>
<g id="a_node9"><a xlink:href="classnlohmann_1_1json__pointer.html#a4b1ee4d511ca195bed896a3da47e264c" target="_top" xlink:title="remove last reference token ">
<polygon fill="#ffffff" stroke="#000000" points="157,-634.5 157,-664.5 274,-664.5 274,-634.5 157,-634.5"/>
<text text-anchor="start" x="165" y="-652.5" font-family="Helvetica,sans-Serif" font-size="10.00" fill="#000000">nlohmann::json_pointer</text>
<text text-anchor="middle" x="215.5" y="-641.5" font-family="Helvetica,sans-Serif" font-size="10.00" fill="#000000">::pop_back</text>
</a>
</g>
</g>
<!-- Node565&#45;&gt;Node573 -->
<g id="edge11" class="edge">
<title>Node565&#45;&gt;Node573</title>
<path fill="none" stroke="#191970" d="M57.6967,-426.5763C64.1108,-465.2268 86.3504,-568.7862 147,-625.5 148.2656,-626.6834 149.5928,-627.809 150.9714,-628.8794"/>
<polygon fill="#191970" stroke="#191970" points="149.0862,-631.8288 159.3574,-634.4274 152.9485,-625.9908 149.0862,-631.8288"/>
</g>
<!-- Node574 -->
<g id="node10" class="node">
<title>Node574</title>
<g id="a_node10"><a xlink:href="classnlohmann_1_1basic__json.html#ac8e523ddc8c2dd7e5d2daf0d49a9c0d7" target="_top" xlink:title="add an object to an array ">
<polygon fill="#ffffff" stroke="#000000" points="160,-421.5 160,-451.5 271,-451.5 271,-421.5 160,-421.5"/>
<text text-anchor="start" x="168" y="-439.5" font-family="Helvetica,sans-Serif" font-size="10.00" fill="#000000">nlohmann::basic_json</text>
<text text-anchor="middle" x="215.5" y="-428.5" font-family="Helvetica,sans-Serif" font-size="10.00" fill="#000000">::push_back</text>
</a>
</g>
</g>
<!-- Node565&#45;&gt;Node574 -->
<g id="edge13" class="edge">
<title>Node565&#45;&gt;Node574</title>
<path fill="none" stroke="#191970" d="M111.0112,-420.1736C123.4745,-422.121 136.8154,-424.2055 149.6539,-426.2115"/>
<polygon fill="#191970" stroke="#191970" points="149.3956,-429.7136 159.8161,-427.7994 150.4763,-422.7975 149.3956,-429.7136"/>
</g>
<!-- Node575 -->
<g id="node11" class="node">
<title>Node575</title>
<g id="a_node11"><a xlink:href="classnlohmann_1_1json__pointer.html#ac53f5b79dd91da78743c437832f57ce4" target="_top" xlink:title="nlohmann::json_pointer\l::array_index">
<polygon fill="#ffffff" stroke="#000000" points="157,-585.5 157,-615.5 274,-615.5 274,-585.5 157,-585.5"/>
<text text-anchor="start" x="165" y="-603.5" font-family="Helvetica,sans-Serif" font-size="10.00" fill="#000000">nlohmann::json_pointer</text>
<text text-anchor="middle" x="215.5" y="-592.5" font-family="Helvetica,sans-Serif" font-size="10.00" fill="#000000">::array_index</text>
</a>
</g>
</g>
<!-- Node565&#45;&gt;Node575 -->
<g id="edge15" class="edge">
<title>Node565&#45;&gt;Node575</title>
<path fill="none" stroke="#191970" d="M60.5618,-426.7428C71.5735,-457.7686 100.5129,-528.8392 147,-570.5 151.1695,-574.2366 155.8781,-577.5657 160.8259,-580.5184"/>
<polygon fill="#191970" stroke="#191970" points="159.4635,-583.7604 169.9254,-585.4337 162.7904,-577.6015 159.4635,-583.7604"/>
</g>
<!-- Node576 -->
<g id="node12" class="node">
<title>Node576</title>
<g id="a_node12"><a xlink:href="classnlohmann_1_1basic__json.html#a25e27ad0c6d53c01871c5485e1f75b96" target="_top" xlink:title="returns the number of elements ">
<polygon fill="#ffffff" stroke="#000000" points="160,-235.5 160,-265.5 271,-265.5 271,-235.5 160,-235.5"/>
<text text-anchor="start" x="168" y="-253.5" font-family="Helvetica,sans-Serif" font-size="10.00" fill="#000000">nlohmann::basic_json</text>
<text text-anchor="middle" x="215.5" y="-242.5" font-family="Helvetica,sans-Serif" font-size="10.00" fill="#000000">::size</text>
</a>
</g>
</g>
<!-- Node565&#45;&gt;Node576 -->
<g id="edge17" class="edge">
<title>Node565&#45;&gt;Node576</title>
<path fill="none" stroke="#191970" d="M62.6913,-396.1104C75.9073,-369.3075 106.4606,-313.7509 147,-280.5 151.6301,-276.7023 156.8155,-273.2992 162.2058,-270.2719"/>
<polygon fill="#191970" stroke="#191970" points="164.1235,-273.221 171.4087,-265.5283 160.9164,-266.9989 164.1235,-273.221"/>
</g>
<!-- Node577 -->
<g id="node13" class="node">
<title>Node577</title>
<g id="a_node13"><a xlink:href="classnlohmann_1_1basic__json.html#a0136728f5db69d4051c77b94307abd6c" target="_top" xlink:title="inserts element ">
<polygon fill="#ffffff" stroke="#000000" points="160,-323.5 160,-353.5 271,-353.5 271,-323.5 160,-323.5"/>
<text text-anchor="start" x="168" y="-341.5" font-family="Helvetica,sans-Serif" font-size="10.00" fill="#000000">nlohmann::basic_json</text>
<text text-anchor="middle" x="215.5" y="-330.5" font-family="Helvetica,sans-Serif" font-size="10.00" fill="#000000">::insert</text>
</a>
</g>
</g>
<!-- Node565&#45;&gt;Node577 -->
<g id="edge19" class="edge">
<title>Node565&#45;&gt;Node577</title>
<path fill="none" stroke="#191970" d="M81.8639,-396.4727C99.9009,-386.4909 124.5255,-373.4432 147,-363.5 151.9203,-361.3231 157.0949,-359.1801 162.3036,-357.1195"/>
<polygon fill="#191970" stroke="#191970" points="163.5965,-360.3722 171.6688,-353.5102 161.0792,-353.8405 163.5965,-360.3722"/>
</g>
<!-- Node579 -->
<g id="node15" class="node">
<title>Node579</title>
<g id="a_node15"><a xlink:href="classnlohmann_1_1basic__json.html#a0ff28dac23f2bdecee9564d07f51dcdc" target="_top" xlink:title="returns an iterator to the first element ">
<polygon fill="#ffffff" stroke="#000000" points="160,-186.5 160,-216.5 271,-216.5 271,-186.5 160,-186.5"/>
<text text-anchor="start" x="168" y="-204.5" font-family="Helvetica,sans-Serif" font-size="10.00" fill="#000000">nlohmann::basic_json</text>
<text text-anchor="middle" x="215.5" y="-193.5" font-family="Helvetica,sans-Serif" font-size="10.00" fill="#000000">::begin</text>
</a>
</g>
</g>
<!-- Node565&#45;&gt;Node579 -->
<g id="edge23" class="edge">
<title>Node565&#45;&gt;Node579</title>
<path fill="none" stroke="#191970" d="M58.8646,-396.4679C67.4186,-361.6322 93.232,-274.687 147,-226.5 148.8973,-224.7996 150.9196,-223.2121 153.0356,-221.7302"/>
<polygon fill="#191970" stroke="#191970" points="154.8711,-224.7104 161.5949,-216.5226 151.2327,-218.7303 154.8711,-224.7104"/>
</g>
<!-- Node581 -->
<g id="node17" class="node">
<title>Node581</title>
<g id="a_node17"><a xlink:href="classnlohmann_1_1basic__json.html#af8f511af124e82e4579f444b4175787c" target="_top" xlink:title="return whether value is an object ">
<polygon fill="#ffffff" stroke="#000000" points="160,-137.5 160,-167.5 271,-167.5 271,-137.5 160,-137.5"/>
<text text-anchor="start" x="168" y="-155.5" font-family="Helvetica,sans-Serif" font-size="10.00" fill="#000000">nlohmann::basic_json</text>
<text text-anchor="middle" x="215.5" y="-144.5" font-family="Helvetica,sans-Serif" font-size="10.00" fill="#000000">::is_object</text>
</a>
</g>
</g>
<!-- Node565&#45;&gt;Node581 -->
<g id="edge25" class="edge">
<title>Node565&#45;&gt;Node581</title>
<path fill="none" stroke="#191970" d="M57.1384,-396.2984C62.3601,-355.2074 82.2726,-240.768 147,-177.5 148.6183,-175.9182 150.3445,-174.4355 152.1557,-173.0456"/>
<polygon fill="#191970" stroke="#191970" points="154.1273,-175.9382 160.5704,-167.5277 150.2887,-170.0845 154.1273,-175.9382"/>
</g>
<!-- Node582 -->
<g id="node18" class="node">
<title>Node582</title>
<g id="a_node18"><a xlink:href="classnlohmann_1_1basic__json.html#a89eb3928f57903677051c80534be9cb1" target="_top" xlink:title="find an element in a JSON object ">
<polygon fill="#ffffff" stroke="#000000" points="160,-88.5 160,-118.5 271,-118.5 271,-88.5 160,-88.5"/>
<text text-anchor="start" x="168" y="-106.5" font-family="Helvetica,sans-Serif" font-size="10.00" fill="#000000">nlohmann::basic_json</text>
<text text-anchor="middle" x="215.5" y="-95.5" font-family="Helvetica,sans-Serif" font-size="10.00" fill="#000000">::find</text>
</a>
</g>
</g>
<!-- Node565&#45;&gt;Node582 -->
<g id="edge26" class="edge">
<title>Node565&#45;&gt;Node582</title>
<path fill="none" stroke="#191970" d="M58.593,-396.2416C69.5901,-343.3274 108.218,-168.7534 147,-128.5 148.4163,-127.0299 149.926,-125.6458 151.5117,-124.3428"/>
<polygon fill="#191970" stroke="#191970" points="153.7575,-127.0452 159.9926,-118.4793 149.7767,-121.2873 153.7575,-127.0452"/>
</g>
<!-- Node583 -->
<g id="node19" class="node">
<title>Node583</title>
<g id="a_node19"><a xlink:href="classnlohmann_1_1basic__json.html#a13e032a02a7fd8a93fdddc2fcbc4763c" target="_top" xlink:title="returns an iterator to one past the last element ">
<polygon fill="#ffffff" stroke="#000000" points="149,-50 149,-69 282,-69 282,-50 149,-50"/>
<text text-anchor="middle" x="215.5" y="-57" font-family="Helvetica,sans-Serif" font-size="10.00" fill="#000000">nlohmann::basic_json::end</text>
</a>
</g>
</g>
<!-- Node565&#45;&gt;Node583 -->
<g id="edge27" class="edge">
<title>Node565&#45;&gt;Node583</title>
<path fill="none" stroke="#191970" d="M57.6561,-396.3664C66.3249,-337.5607 100.4221,-125.1905 147,-78.5 148.4382,-77.0584 149.9755,-75.7236 151.5932,-74.488"/>
<polygon fill="#191970" stroke="#191970" points="153.6185,-77.3503 160.2653,-69.0998 149.9242,-71.4045 153.6185,-77.3503"/>
</g>
<!-- Node585 -->
<g id="node21" class="node">
<title>Node585</title>
<g id="a_node21"><a xlink:href="classnlohmann_1_1basic__json.html#a068a16e76be178e83da6a192916923ed" target="_top" xlink:title="remove element given an iterator ">
<polygon fill="#ffffff" stroke="#000000" points="160,-372.5 160,-402.5 271,-402.5 271,-372.5 160,-372.5"/>
<text text-anchor="start" x="168" y="-390.5" font-family="Helvetica,sans-Serif" font-size="10.00" fill="#000000">nlohmann::basic_json</text>
<text text-anchor="middle" x="215.5" y="-379.5" font-family="Helvetica,sans-Serif" font-size="10.00" fill="#000000">::erase</text>
</a>
</g>
</g>
<!-- Node565&#45;&gt;Node585 -->
<g id="edge29" class="edge">
<title>Node565&#45;&gt;Node585</title>
<path fill="none" stroke="#191970" d="M111.0112,-403.1733C123.4745,-401.3038 136.8154,-399.3027 149.6539,-397.3769"/>
<polygon fill="#191970" stroke="#191970" points="150.446,-400.7973 159.8161,-395.8526 149.4075,-393.8748 150.446,-400.7973"/>
</g>
<!-- Node586 -->
<g id="node22" class="node">
<title>Node586</title>
<g id="a_node22"><a xlink:href="classnlohmann_1_1basic__json.html#aef9ce5dd2381caee1f8ddcdb5bdd9c65" target="_top" xlink:title="return whether value is an array ">
<polygon fill="#ffffff" stroke="#000000" points="160,-.5 160,-30.5 271,-30.5 271,-.5 160,-.5"/>
<text text-anchor="start" x="168" y="-18.5" font-family="Helvetica,sans-Serif" font-size="10.00" fill="#000000">nlohmann::basic_json</text>
<text text-anchor="middle" x="215.5" y="-7.5" font-family="Helvetica,sans-Serif" font-size="10.00" fill="#000000">::is_array</text>
</a>
</g>
</g>
<!-- Node565&#45;&gt;Node586 -->
<g id="edge32" class="edge">
<title>Node565&#45;&gt;Node586</title>
<path fill="none" stroke="#191970" d="M57.364,-396.0815C65.2748,-332.9809 97.9315,-95.1837 147,-40.5 148.3633,-38.9806 149.8267,-37.5535 151.3721,-36.213"/>
<polygon fill="#191970" stroke="#191970" points="153.6365,-38.8952 159.6991,-30.2064 149.5413,-33.218 153.6365,-38.8952"/>
</g>
<!-- Node587 -->
<g id="node23" class="node">
<title>Node587</title>
<g id="a_node23"><a xlink:href="classnlohmann_1_1detail_1_1parse__error.html#a137ea4d27de45d8a844fd13451d40f3d" target="_top" xlink:title="create a parse error exception ">
<polygon fill="#ffffff" stroke="#000000" points="322,-301.5 322,-331.5 440,-331.5 440,-301.5 322,-301.5"/>
<text text-anchor="start" x="330" y="-319.5" font-family="Helvetica,sans-Serif" font-size="10.00" fill="#000000">nlohmann::detail::parse</text>
<text text-anchor="middle" x="381" y="-308.5" font-family="Helvetica,sans-Serif" font-size="10.00" fill="#000000">_error::create</text>
</a>
</g>
</g>
<!-- Node565&#45;&gt;Node587 -->
<g id="edge33" class="edge">
<title>Node565&#45;&gt;Node587</title>
<path fill="none" stroke="#191970" d="M64.0882,-396.4297C78.0583,-373.6379 108.1002,-331.2816 147,-314.5 198.8909,-292.114 263.4802,-294.6468 311.6463,-301.6273"/>
<polygon fill="#191970" stroke="#191970" points="311.2472,-305.1071 321.6647,-303.177 312.3173,-298.1894 311.2472,-305.1071"/>
</g>
<!-- Node588 -->
<g id="node24" class="node">
<title>Node588</title>
<g id="a_node24"><a xlink:href="classnlohmann_1_1detail_1_1other__error.html#a87e8ab894e8c85c0d97a0919782d3683" target="_top" xlink:title="nlohmann::detail::other\l_error::create">
<polygon fill="#ffffff" stroke="#000000" points="323,-658.5 323,-688.5 439,-688.5 439,-658.5 323,-658.5"/>
<text text-anchor="start" x="331" y="-676.5" font-family="Helvetica,sans-Serif" font-size="10.00" fill="#000000">nlohmann::detail::other</text>
<text text-anchor="middle" x="381" y="-665.5" font-family="Helvetica,sans-Serif" font-size="10.00" fill="#000000">_error::create</text>
</a>
</g>
</g>
<!-- Node565&#45;&gt;Node588 -->
<g id="edge35" class="edge">
<title>Node565&#45;&gt;Node588</title>
<path fill="none" stroke="#191970" d="M57.5811,-426.8466C65.7363,-484.4603 97.5242,-686.4502 147,-723.5 208.0717,-769.2334 301.9561,-723.6098 350.1369,-694.175"/>
<polygon fill="#191970" stroke="#191970" points="352.2421,-696.9864 358.8621,-688.7144 348.5285,-691.0527 352.2421,-696.9864"/>
</g>
<!-- Node567&#45;&gt;Node568 -->
<g id="edge3" class="edge">
<title>Node567&#45;&gt;Node568</title>
<path fill="none" stroke="#191970" d="M257.2626,-528.089C275.5314,-532.2837 297.366,-537.297 317.5724,-541.9366"/>
<polygon fill="#191970" stroke="#191970" points="316.8087,-545.3522 327.3383,-544.1789 318.3752,-538.5297 316.8087,-545.3522"/>
</g>
<!-- Node569 -->
<g id="node5" class="node">
<title>Node569</title>
<g id="a_node5"><a xlink:href="classnlohmann_1_1detail_1_1exception.html#abf41a7e9178356314082284e6cfea278" target="_top" xlink:title="nlohmann::detail::exception\l::name">
<polygon fill="#ffffff" stroke="#000000" points="478,-421.5 478,-451.5 614,-451.5 614,-421.5 478,-421.5"/>
<text text-anchor="start" x="486" y="-439.5" font-family="Helvetica,sans-Serif" font-size="10.00" fill="#000000">nlohmann::detail::exception</text>
<text text-anchor="middle" x="546" y="-428.5" font-family="Helvetica,sans-Serif" font-size="10.00" fill="#000000">::name</text>
</a>
</g>
</g>
<!-- Node568&#45;&gt;Node569 -->
<g id="edge4" class="edge">
<title>Node568&#45;&gt;Node569</title>
<path fill="none" stroke="#191970" d="M401.8974,-541.3019C431.0323,-520.1129 483.9815,-481.6044 516.9453,-457.6307"/>
<polygon fill="#191970" stroke="#191970" points="519.2435,-460.287 525.2723,-451.5747 515.1263,-454.6259 519.2435,-460.287"/>
</g>
<!-- Node570&#45;&gt;Node568 -->
<g id="edge6" class="edge">
<title>Node570&#45;&gt;Node568</title>
<path fill="none" stroke="#191970" d="M256.6649,-490.0415C265.8189,-492.6779 275.3643,-495.8395 284,-499.5 307.3367,-509.3919 331.9384,-523.9013 350.5264,-535.8054"/>
<polygon fill="#191970" stroke="#191970" points="348.8458,-538.8875 359.1365,-541.4082 352.6638,-533.0204 348.8458,-538.8875"/>
</g>
<!-- Node571 -->
<g id="node7" class="node">
<title>Node571</title>
<g id="a_node7"><a xlink:href="classnlohmann_1_1detail_1_1type__error.html#aecc083aea4b698c33d042670ba50c10f" target="_top" xlink:title="nlohmann::detail::type\l_error::create">
<polygon fill="#ffffff" stroke="#000000" points="324.5,-421.5 324.5,-451.5 437.5,-451.5 437.5,-421.5 324.5,-421.5"/>
<text text-anchor="start" x="332.5" y="-439.5" font-family="Helvetica,sans-Serif" font-size="10.00" fill="#000000">nlohmann::detail::type</text>
<text text-anchor="middle" x="381" y="-428.5" font-family="Helvetica,sans-Serif" font-size="10.00" fill="#000000">_error::create</text>
</a>
</g>
</g>
<!-- Node570&#45;&gt;Node571 -->
<g id="edge7" class="edge">
<title>Node570&#45;&gt;Node571</title>
<path fill="none" stroke="#191970" d="M251.411,-470.9527C269.878,-466.043 292.9855,-459.8996 314.5542,-454.1653"/>
<polygon fill="#191970" stroke="#191970" points="315.5687,-457.5173 324.3337,-451.5654 313.7701,-450.7523 315.5687,-457.5173"/>
</g>
<!-- Node571&#45;&gt;Node569 -->
<g id="edge8" class="edge">
<title>Node571&#45;&gt;Node569</title>
<path fill="none" stroke="#191970" d="M437.7836,-436.5C447.4319,-436.5 457.6016,-436.5 467.6875,-436.5"/>
<polygon fill="#191970" stroke="#191970" points="467.7233,-440.0001 477.7232,-436.5 467.7232,-433.0001 467.7233,-440.0001"/>
</g>
<!-- Node572&#45;&gt;Node568 -->
<g id="edge10" class="edge">
<title>Node572&#45;&gt;Node568</title>
<path fill="none" stroke="#191970" d="M268.2136,-683.4129C273.7641,-680.8479 279.1452,-677.8923 284,-674.5 320.1688,-649.2273 350.2971,-606.961 366.9585,-580.466"/>
<polygon fill="#191970" stroke="#191970" points="370.0263,-582.1587 372.2781,-571.8059 364.0617,-578.4948 370.0263,-582.1587"/>
</g>
<!-- Node573&#45;&gt;Node568 -->
<g id="edge12" class="edge">
<title>Node573&#45;&gt;Node568</title>
<path fill="none" stroke="#191970" d="M264.1256,-634.3826C270.9302,-631.717 277.7331,-628.7439 284,-625.5 309.7398,-612.1764 336.3893,-592.7425 355.2266,-577.892"/>
<polygon fill="#191970" stroke="#191970" points="357.4256,-580.6149 363.0479,-571.6349 353.0527,-575.1489 357.4256,-580.6149"/>
</g>
<!-- Node574&#45;&gt;Node571 -->
<g id="edge14" class="edge">
<title>Node574&#45;&gt;Node571</title>
<path fill="none" stroke="#191970" d="M271.0695,-436.5C284.8978,-436.5 299.8653,-436.5 314.1728,-436.5"/>
<polygon fill="#191970" stroke="#191970" points="314.4485,-440.0001 324.4485,-436.5 314.4484,-433.0001 314.4485,-440.0001"/>
</g>
<!-- Node575&#45;&gt;Node568 -->
<g id="edge16" class="edge">
<title>Node575&#45;&gt;Node568</title>
<path fill="none" stroke="#191970" d="M271.9928,-585.4808C286.6644,-581.5802 302.5646,-577.3529 317.5674,-573.3643"/>
<polygon fill="#191970" stroke="#191970" points="318.5099,-576.7353 327.2749,-570.7834 316.7113,-569.9703 318.5099,-576.7353"/>
</g>
<!-- Node577&#45;&gt;Node571 -->
<g id="edge22" class="edge">
<title>Node577&#45;&gt;Node571</title>
<path fill="none" stroke="#191970" d="M267.345,-353.6333C273.2376,-356.4337 278.9363,-359.7018 284,-363.5 305.618,-379.7152 298.5855,-396.0169 320,-412.5 321.7952,-413.8818 323.6801,-415.1938 325.6298,-416.4386"/>
<polygon fill="#191970" stroke="#191970" points="324.0906,-419.5892 334.5166,-421.4729 327.5409,-413.4986 324.0906,-419.5892"/>
</g>
<!-- Node578 -->
<g id="node14" class="node">
<title>Node578</title>
<g id="a_node14"><a xlink:href="classnlohmann_1_1detail_1_1invalid__iterator.html#a4e849260a3caa1b288c7e619130c6c09" target="_top" xlink:title="nlohmann::detail::invalid\l_iterator::create">
<polygon fill="#ffffff" stroke="#000000" points="320,-372.5 320,-402.5 442,-402.5 442,-372.5 320,-372.5"/>
<text text-anchor="start" x="328" y="-390.5" font-family="Helvetica,sans-Serif" font-size="10.00" fill="#000000">nlohmann::detail::invalid</text>
<text text-anchor="middle" x="381" y="-379.5" font-family="Helvetica,sans-Serif" font-size="10.00" fill="#000000">_iterator::create</text>
</a>
</g>
</g>
<!-- Node577&#45;&gt;Node578 -->
<g id="edge20" class="edge">
<title>Node577&#45;&gt;Node578</title>
<path fill="none" stroke="#191970" d="M266.5059,-353.6014C283.5749,-358.6551 302.7679,-364.3376 320.4906,-369.5848"/>
<polygon fill="#191970" stroke="#191970" points="319.5803,-372.9654 330.1625,-372.4484 321.5676,-366.2534 319.5803,-372.9654"/>
</g>
<!-- Node578&#45;&gt;Node569 -->
<g id="edge21" class="edge">
<title>Node578&#45;&gt;Node569</title>
<path fill="none" stroke="#191970" d="M431.8518,-402.6014C448.8692,-407.6551 468.0042,-413.3376 485.6734,-418.5848"/>
<polygon fill="#191970" stroke="#191970" points="484.7335,-421.9567 495.3161,-421.4484 486.7263,-415.2464 484.7335,-421.9567"/>
</g>
<!-- Node580 -->
<g id="node16" class="node">
<title>Node580</title>
<g id="a_node16"><a xlink:href="classnlohmann_1_1detail_1_1iter__impl.html#a5d5f92c7f6848814bc82cf7e4e541820" target="_top" xlink:title="set the iterator to the first value ">
<polygon fill="#ffffff" stroke="#000000" points="327.5,-186.5 327.5,-216.5 434.5,-216.5 434.5,-186.5 327.5,-186.5"/>
<text text-anchor="start" x="335.5" y="-204.5" font-family="Helvetica,sans-Serif" font-size="10.00" fill="#000000">nlohmann::detail::iter</text>
<text text-anchor="middle" x="381" y="-193.5" font-family="Helvetica,sans-Serif" font-size="10.00" fill="#000000">_impl::set_begin</text>
</a>
</g>
</g>
<!-- Node579&#45;&gt;Node580 -->
<g id="edge24" class="edge">
<title>Node579&#45;&gt;Node580</title>
<path fill="none" stroke="#191970" d="M271.0695,-201.5C285.795,-201.5 301.8124,-201.5 316.9489,-201.5"/>
<polygon fill="#191970" stroke="#191970" points="317.2607,-205.0001 327.2606,-201.5 317.2606,-198.0001 317.2607,-205.0001"/>
</g>
<!-- Node584 -->
<g id="node20" class="node">
<title>Node584</title>
<g id="a_node20"><a xlink:href="classnlohmann_1_1detail_1_1iter__impl.html#a23e50ad4c13aa62d9ac7f60a123823ee" target="_top" xlink:title="set the iterator past the last value ">
<polygon fill="#ffffff" stroke="#000000" points="327.5,-44.5 327.5,-74.5 434.5,-74.5 434.5,-44.5 327.5,-44.5"/>
<text text-anchor="start" x="335.5" y="-62.5" font-family="Helvetica,sans-Serif" font-size="10.00" fill="#000000">nlohmann::detail::iter</text>
<text text-anchor="middle" x="381" y="-51.5" font-family="Helvetica,sans-Serif" font-size="10.00" fill="#000000">_impl::set_end</text>
</a>
</g>
</g>
<!-- Node583&#45;&gt;Node584 -->
<g id="edge28" class="edge">
<title>Node583&#45;&gt;Node584</title>
<path fill="none" stroke="#191970" d="M282.3381,-59.5C293.8086,-59.5 305.703,-59.5 317.0942,-59.5"/>
<polygon fill="#191970" stroke="#191970" points="317.3875,-63.0001 327.3874,-59.5 317.3874,-56.0001 317.3875,-63.0001"/>
</g>
<!-- Node585&#45;&gt;Node571 -->
<g id="edge31" class="edge">
<title>Node585&#45;&gt;Node571</title>
<path fill="none" stroke="#191970" d="M266.5059,-402.6014C283.5749,-407.6551 302.7679,-413.3376 320.4906,-418.5848"/>
<polygon fill="#191970" stroke="#191970" points="319.5803,-421.9654 330.1625,-421.4484 321.5676,-415.2534 319.5803,-421.9654"/>
</g>
<!-- Node585&#45;&gt;Node578 -->
<g id="edge30" class="edge">
<title>Node585&#45;&gt;Node578</title>
<path fill="none" stroke="#191970" d="M271.0695,-387.5C283.4437,-387.5 296.7302,-387.5 309.6396,-387.5"/>
<polygon fill="#191970" stroke="#191970" points="309.8873,-391.0001 319.8873,-387.5 309.8872,-384.0001 309.8873,-391.0001"/>
</g>
<!-- Node587&#45;&gt;Node569 -->
<g id="edge34" class="edge">
<title>Node587&#45;&gt;Node569</title>
<path fill="none" stroke="#191970" d="M401.8974,-331.6981C431.0323,-352.8871 483.9815,-391.3956 516.9453,-415.3693"/>
<polygon fill="#191970" stroke="#191970" points="515.1263,-418.3741 525.2723,-421.4253 519.2435,-412.713 515.1263,-418.3741"/>
</g>
<!-- Node588&#45;&gt;Node569 -->
<g id="edge36" class="edge">
<title>Node588&#45;&gt;Node569</title>
<path fill="none" stroke="#191970" d="M391.5725,-658.3141C419.6286,-618.0152 496.1127,-508.1563 529.7539,-459.8353"/>
<polygon fill="#191970" stroke="#191970" points="532.6743,-461.7662 535.5156,-451.5595 526.9294,-457.7666 532.6743,-461.7662"/>
</g>
</g>
</svg>
