<?xml version="1.0" encoding="UTF-8" standalone="no"?>
<!DOCTYPE svg PUBLIC "-//W3C//DTD SVG 1.1//EN"
 "http://www.w3.org/Graphics/SVG/1.1/DTD/svg11.dtd">
<!-- Generated by graphviz version 2.40.1 (20161225.0304)
 -->
<!-- Title: River::Model::next_point Pages: 1 -->
<svg width="257pt" height="66pt"
 viewBox="0.00 0.00 257.00 66.00" xmlns="http://www.w3.org/2000/svg" xmlns:xlink="http://www.w3.org/1999/xlink">
<g id="graph0" class="graph" transform="scale(1 1) rotate(0) translate(4 62)">
<title>River::Model::next_point</title>
<polygon fill="#ffffff" stroke="transparent" points="-4,4 -4,-62 253,-62 253,4 -4,4"/>
<!-- Node4 -->
<g id="node1" class="node">
<title>Node4</title>
<polygon fill="#bfbfbf" stroke="#000000" points="0,-14 0,-44 105,-44 105,-14 0,-14"/>
<text text-anchor="start" x="8" y="-32" font-family="Helvetica,sans-Serif" font-size="10.00" fill="#000000">River::Model::next</text>
<text text-anchor="middle" x="52.5" y="-21" font-family="Helvetica,sans-Serif" font-size="10.00" fill="#000000">_point</text>
</g>
<!-- Node5 -->
<g id="node2" class="node">
<title>Node5</title>
<g id="a_node2"><a xlink:href="namespaceRiver.html#afcdc83c23d37484c22c3d7aca5193579" target="_top" xlink:title="Returns Polar representation of vector. ">
<polygon fill="#ffffff" stroke="#000000" points="153.5,-38.5 153.5,-57.5 236.5,-57.5 236.5,-38.5 153.5,-38.5"/>
<text text-anchor="middle" x="195" y="-45.5" font-family="Helvetica,sans-Serif" font-size="10.00" fill="#000000">River::ToPolar</text>
</a>
</g>
</g>
<!-- Node4&#45;&gt;Node5 -->
<g id="edge1" class="edge">
<title>Node4&#45;&gt;Node5</title>
<path fill="none" stroke="#191970" d="M105.1569,-36.0209C117.5449,-37.6726 130.7391,-39.4319 143.0938,-41.0792"/>
<polygon fill="#191970" stroke="#191970" points="142.8633,-44.5793 153.2381,-42.4318 143.7885,-37.6407 142.8633,-44.5793"/>
</g>
<!-- Node6 -->
<g id="node3" class="node">
<title>Node6</title>
<g id="a_node3"><a xlink:href="classRiver_1_1Point.html#a9b212b34eba5102c0dafd5c6de9f2b21" target="_top" xlink:title="Rotates point on phi angle(counterclockwise) ">
<polygon fill="#ffffff" stroke="#000000" points="141,-.5 141,-19.5 249,-19.5 249,-.5 141,-.5"/>
<text text-anchor="middle" x="195" y="-7.5" font-family="Helvetica,sans-Serif" font-size="10.00" fill="#000000">River::Point::rotate</text>
</a>
</g>
</g>
<!-- Node4&#45;&gt;Node6 -->
<g id="edge2" class="edge">
<title>Node4&#45;&gt;Node6</title>
<path fill="none" stroke="#191970" d="M105.1569,-21.9791C113.4766,-20.8698 122.1601,-19.712 130.7086,-18.5722"/>
<polygon fill="#191970" stroke="#191970" points="131.2023,-22.0374 140.652,-17.2464 130.2771,-15.0988 131.2023,-22.0374"/>
</g>
</g>
</svg>
