<?xml version="1.0" encoding="UTF-8" standalone="no"?>
<!DOCTYPE svg PUBLIC "-//W3C//DTD SVG 1.1//EN"
 "http://www.w3.org/Graphics/SVG/1.1/DTD/svg11.dtd">
<!-- Generated by graphviz version 2.40.1 (20161225.0304)
 -->
<!-- Title: River::Tree::GetSubBranches Pages: 1 -->
<svg width="705pt" height="28pt"
 viewBox="0.00 0.00 705.00 28.00" xmlns="http://www.w3.org/2000/svg" xmlns:xlink="http://www.w3.org/1999/xlink">
<g id="graph0" class="graph" transform="scale(1 1) rotate(0) translate(4 24)">
<title>River::Tree::GetSubBranches</title>
<polygon fill="#ffffff" stroke="transparent" points="-4,4 -4,-24 701,-24 701,4 -4,4"/>
<!-- Node61 -->
<g id="node1" class="node">
<title>Node61</title>
<polygon fill="#bfbfbf" stroke="#000000" points="0,-.5 0,-19.5 146,-19.5 146,-.5 0,-.5"/>
<text text-anchor="middle" x="73" y="-7.5" font-family="Helvetica,sans-Serif" font-size="10.00" fill="#000000">River::Tree::GetSubBranches</text>
</g>
<!-- Node62 -->
<g id="node2" class="node">
<title>Node62</title>
<g id="a_node2"><a xlink:href="namespaceRiver.html#ace7057edc24ee07f8265dad28b73a41a" target="_top" xlink:title="Generates trees boundary. ">
<polygon fill="#ffffff" stroke="#000000" points="182,-.5 182,-19.5 276,-19.5 276,-.5 182,-.5"/>
<text text-anchor="middle" x="229" y="-7.5" font-family="Helvetica,sans-Serif" font-size="10.00" fill="#000000">River::TreeVector</text>
</a>
</g>
</g>
<!-- Node61&#45;&gt;Node62 -->
<g id="edge1" class="edge">
<title>Node61&#45;&gt;Node62</title>
<path fill="none" stroke="#191970" d="M156.5761,-10C165.2033,-10 173.739,-10 181.7583,-10"/>
<polygon fill="#191970" stroke="#191970" points="156.432,-6.5001 146.432,-10 156.432,-13.5001 156.432,-6.5001"/>
</g>
<!-- Node63 -->
<g id="node3" class="node">
<title>Node63</title>
<g id="a_node3"><a xlink:href="namespaceRiver.html#a43d55da8d0508b984518c4ebed6e0ad7" target="_top" xlink:title="Finnal Boudary Geneartor Class. ">
<polygon fill="#ffffff" stroke="#000000" points="312,-.5 312,-19.5 442,-19.5 442,-.5 312,-.5"/>
<text text-anchor="middle" x="377" y="-7.5" font-family="Helvetica,sans-Serif" font-size="10.00" fill="#000000">River::BoundaryGenerator</text>
</a>
</g>
</g>
<!-- Node62&#45;&gt;Node63 -->
<g id="edge2" class="edge">
<title>Node62&#45;&gt;Node63</title>
<path fill="none" stroke="#191970" d="M286.2771,-10C294.658,-10 303.3409,-10 311.8646,-10"/>
<polygon fill="#191970" stroke="#191970" points="286.2351,-6.5001 276.235,-10 286.235,-13.5001 286.2351,-6.5001"/>
</g>
<!-- Node64 -->
<g id="node4" class="node">
<title>Node64</title>
<g id="a_node4"><a xlink:href="namespaceRiver.html#af1a3f7c61809dd8032e4ff5920da83cc" target="_top" xlink:title="One step of forward river evolution. ">
<polygon fill="#ffffff" stroke="#000000" points="478,-.5 478,-19.5 623,-19.5 623,-.5 478,-.5"/>
<text text-anchor="middle" x="550.5" y="-7.5" font-family="Helvetica,sans-Serif" font-size="10.00" fill="#000000">River::ForwardRiverEvolution</text>
</a>
</g>
</g>
<!-- Node63&#45;&gt;Node64 -->
<g id="edge3" class="edge">
<title>Node63&#45;&gt;Node64</title>
<path fill="none" stroke="#191970" d="M452.3052,-10C460.7508,-10 469.3436,-10 477.7559,-10"/>
<polygon fill="#191970" stroke="#191970" points="452.0987,-6.5001 442.0986,-10 452.0986,-13.5001 452.0987,-6.5001"/>
</g>
<!-- Node65 -->
<g id="node5" class="node">
<title>Node65</title>
<g id="a_node5"><a xlink:href="main_8cpp.html#a0ddf1224851353fc92bfbff6f499fa97" target="_top" xlink:title="Entry point of RiverSim program. ">
<polygon fill="#ffffff" stroke="#000000" points="659,-.5 659,-19.5 697,-19.5 697,-.5 659,-.5"/>
<text text-anchor="middle" x="678" y="-7.5" font-family="Helvetica,sans-Serif" font-size="10.00" fill="#000000">main</text>
</a>
</g>
</g>
<!-- Node64&#45;&gt;Node65 -->
<g id="edge4" class="edge">
<title>Node64&#45;&gt;Node65</title>
<path fill="none" stroke="#191970" d="M633.2526,-10C642.7338,-10 651.5978,-10 658.8947,-10"/>
<polygon fill="#191970" stroke="#191970" points="633.1886,-6.5001 623.1886,-10 633.1885,-13.5001 633.1886,-6.5001"/>
</g>
</g>
</svg>
