<?xml version="1.0" encoding="UTF-8" standalone="no"?>
<!DOCTYPE svg PUBLIC "-//W3C//DTD SVG 1.1//EN"
 "http://www.w3.org/Graphics/SVG/1.1/DTD/svg11.dtd">
<!-- Generated by graphviz version 2.40.1 (20161225.0304)
 -->
<!-- Title: River::Tree Pages: 1 -->
<svg width="592pt" height="380pt"
 viewBox="0.00 0.00 592.00 380.00" xmlns="http://www.w3.org/2000/svg" xmlns:xlink="http://www.w3.org/1999/xlink">
<g id="graph0" class="graph" transform="scale(1 1) rotate(0) translate(4 376)">
<title>River::Tree</title>
<polygon fill="#ffffff" stroke="transparent" points="-4,4 -4,-376 588,-376 588,4 -4,4"/>
<!-- Node1 -->
<g id="node1" class="node">
<title>Node1</title>
<polygon fill="#bfbfbf" stroke="#000000" points="244.5,-.5 244.5,-255.5 393.5,-255.5 393.5,-.5 244.5,-.5"/>
<text text-anchor="middle" x="319" y="-243.5" font-family="Helvetica,sans-Serif" font-size="10.00" fill="#000000">River::Tree</text>
<polyline fill="none" stroke="#000000" points="244.5,-236.5 393.5,-236.5 "/>
<text text-anchor="middle" x="319" y="-224.5" font-family="Helvetica,sans-Serif" font-size="10.00" fill="#000000"> </text>
<polyline fill="none" stroke="#000000" points="244.5,-217.5 393.5,-217.5 "/>
<text text-anchor="start" x="252.5" y="-205.5" font-family="Helvetica,sans-Serif" font-size="10.00" fill="#000000">+ Tree()</text>
<text text-anchor="start" x="252.5" y="-194.5" font-family="Helvetica,sans-Serif" font-size="10.00" fill="#000000">+ AddPoints()</text>
<text text-anchor="start" x="252.5" y="-183.5" font-family="Helvetica,sans-Serif" font-size="10.00" fill="#000000">+ AddPolars()</text>
<text text-anchor="start" x="252.5" y="-172.5" font-family="Helvetica,sans-Serif" font-size="10.00" fill="#000000">+ AddAbsolutePolars()</text>
<text text-anchor="start" x="252.5" y="-161.5" font-family="Helvetica,sans-Serif" font-size="10.00" fill="#000000">+ AddSubBranches()</text>
<text text-anchor="start" x="252.5" y="-150.5" font-family="Helvetica,sans-Serif" font-size="10.00" fill="#000000">+ TipBranchesId()</text>
<text text-anchor="start" x="252.5" y="-139.5" font-family="Helvetica,sans-Serif" font-size="10.00" fill="#000000">+ TipPoints()</text>
<text text-anchor="start" x="252.5" y="-128.5" font-family="Helvetica,sans-Serif" font-size="10.00" fill="#000000">+ NumberOfSourceBranches()</text>
<text text-anchor="start" x="252.5" y="-117.5" font-family="Helvetica,sans-Serif" font-size="10.00" fill="#000000">* AddSourceBranch()</text>
<text text-anchor="start" x="252.5" y="-106.5" font-family="Helvetica,sans-Serif" font-size="10.00" fill="#000000">* AddBranch()</text>
<text text-anchor="start" x="252.5" y="-95.5" font-family="Helvetica,sans-Serif" font-size="10.00" fill="#000000">* DoesExistBranch()</text>
<text text-anchor="start" x="252.5" y="-84.5" font-family="Helvetica,sans-Serif" font-size="10.00" fill="#000000">* GetBranch()</text>
<text text-anchor="start" x="252.5" y="-73.5" font-family="Helvetica,sans-Serif" font-size="10.00" fill="#000000">* HasSubBranches()</text>
<text text-anchor="start" x="252.5" y="-62.5" font-family="Helvetica,sans-Serif" font-size="10.00" fill="#000000">* IsSubBranch()</text>
<text text-anchor="start" x="252.5" y="-51.5" font-family="Helvetica,sans-Serif" font-size="10.00" fill="#000000">* GetSourceBranch()</text>
<text text-anchor="start" x="252.5" y="-40.5" font-family="Helvetica,sans-Serif" font-size="10.00" fill="#000000">* GetSubBranches()</text>
<text text-anchor="start" x="252.5" y="-29.5" font-family="Helvetica,sans-Serif" font-size="10.00" fill="#000000">* IsValidBranchId()</text>
<text text-anchor="start" x="252.5" y="-18.5" font-family="Helvetica,sans-Serif" font-size="10.00" fill="#000000">* GenerateNewID()</text>
<text text-anchor="start" x="252.5" y="-7.5" font-family="Helvetica,sans-Serif" font-size="10.00" fill="#000000">* operator&lt;&lt;</text>
</g>
<!-- Node2 -->
<g id="node2" class="node">
<title>Node2</title>
<polygon fill="#ffffff" stroke="#bfbfbf" points="0,-309 0,-366 142,-366 142,-309 0,-309"/>
<text text-anchor="middle" x="71" y="-354" font-family="Helvetica,sans-Serif" font-size="10.00" fill="#000000">vector&lt; River::BranchNew &gt;</text>
<polyline fill="none" stroke="#bfbfbf" points="0,-347 142,-347 "/>
<text text-anchor="middle" x="71" y="-335" font-family="Helvetica,sans-Serif" font-size="10.00" fill="#000000"> </text>
<polyline fill="none" stroke="#bfbfbf" points="0,-328 142,-328 "/>
<text text-anchor="middle" x="71" y="-316" font-family="Helvetica,sans-Serif" font-size="10.00" fill="#000000"> </text>
</g>
<!-- Node2&#45;&gt;Node1 -->
<g id="edge1" class="edge">
<title>Node2&#45;&gt;Node1</title>
<path fill="none" stroke="#404040" d="M104.9633,-308.8092C138.3406,-280.6135 190.6008,-236.4662 235.1252,-198.8539"/>
<polygon fill="none" stroke="#404040" points="235.3323,-198.679 237.3345,-191.7514 244.4992,-190.9351 242.4971,-197.8627 235.3323,-198.679"/>
<text text-anchor="middle" x="168.5" y="-277" font-family="Helvetica,sans-Serif" font-size="10.00" fill="#000000"> +branches</text>
</g>
<!-- Node3 -->
<g id="node3" class="node">
<title>Node3</title>
<polygon fill="#ffffff" stroke="#bfbfbf" points="160.5,-303.5 160.5,-371.5 259.5,-371.5 259.5,-303.5 160.5,-303.5"/>
<text text-anchor="start" x="168.5" y="-359.5" font-family="Helvetica,sans-Serif" font-size="10.00" fill="#000000">map&lt; int, pair&lt; int,</text>
<text text-anchor="middle" x="210" y="-348.5" font-family="Helvetica,sans-Serif" font-size="10.00" fill="#000000"> int &gt; &gt;</text>
<polyline fill="none" stroke="#bfbfbf" points="160.5,-341.5 259.5,-341.5 "/>
<text text-anchor="middle" x="210" y="-329.5" font-family="Helvetica,sans-Serif" font-size="10.00" fill="#000000"> </text>
<polyline fill="none" stroke="#bfbfbf" points="160.5,-322.5 259.5,-322.5 "/>
<text text-anchor="middle" x="210" y="-310.5" font-family="Helvetica,sans-Serif" font-size="10.00" fill="#000000"> </text>
</g>
<!-- Node3&#45;&gt;Node1 -->
<g id="edge2" class="edge">
<title>Node3&#45;&gt;Node1</title>
<path fill="none" stroke="#404040" d="M218.4545,-303.2893C221.3163,-293.6306 224.8563,-283.2397 229,-274 232.0385,-267.2247 235.339,-260.384 238.8217,-253.5549"/>
<polygon fill="none" stroke="#404040" points="238.8642,-253.4737 238.1054,-246.3026 244.433,-242.8441 245.1918,-250.0151 238.8642,-253.4737"/>
<text text-anchor="middle" x="272" y="-277" font-family="Helvetica,sans-Serif" font-size="10.00" fill="#000000"> +branches_relation</text>
</g>
<!-- Node4 -->
<g id="node4" class="node">
<title>Node4</title>
<polygon fill="#ffffff" stroke="#bfbfbf" points="304.5,-309 304.5,-366 333.5,-366 333.5,-309 304.5,-309"/>
<text text-anchor="middle" x="319" y="-354" font-family="Helvetica,sans-Serif" font-size="10.00" fill="#000000">int</text>
<polyline fill="none" stroke="#bfbfbf" points="304.5,-347 333.5,-347 "/>
<text text-anchor="middle" x="319" y="-335" font-family="Helvetica,sans-Serif" font-size="10.00" fill="#000000"> </text>
<polyline fill="none" stroke="#bfbfbf" points="304.5,-328 333.5,-328 "/>
<text text-anchor="middle" x="319" y="-316" font-family="Helvetica,sans-Serif" font-size="10.00" fill="#000000"> </text>
</g>
<!-- Node4&#45;&gt;Node1 -->
<g id="edge3" class="edge">
<title>Node4&#45;&gt;Node1</title>
<path fill="none" stroke="#404040" d="M319,-308.8092C319,-297.4023 319,-283.3846 319,-268.2451"/>
<polygon fill="none" stroke="#404040" points="319.0001,-267.8914 315,-261.8914 319,-255.8914 323,-261.8914 319.0001,-267.8914"/>
<text text-anchor="middle" x="355" y="-277" font-family="Helvetica,sans-Serif" font-size="10.00" fill="#000000"> +invalid_branch</text>
</g>
<!-- Node5 -->
<g id="node5" class="node">
<title>Node5</title>
<polygon fill="#ffffff" stroke="#bfbfbf" points="378,-309 378,-366 450,-366 450,-309 378,-309"/>
<text text-anchor="middle" x="414" y="-354" font-family="Helvetica,sans-Serif" font-size="10.00" fill="#000000">vector&lt; int &gt;</text>
<polyline fill="none" stroke="#bfbfbf" points="378,-347 450,-347 "/>
<text text-anchor="middle" x="414" y="-335" font-family="Helvetica,sans-Serif" font-size="10.00" fill="#000000"> </text>
<polyline fill="none" stroke="#bfbfbf" points="378,-328 450,-328 "/>
<text text-anchor="middle" x="414" y="-316" font-family="Helvetica,sans-Serif" font-size="10.00" fill="#000000"> </text>
</g>
<!-- Node5&#45;&gt;Node1 -->
<g id="edge4" class="edge">
<title>Node5&#45;&gt;Node1</title>
<path fill="none" stroke="#404040" d="M404.9231,-308.752C401.2231,-297.7595 396.7093,-285.1827 392,-274 391.0118,-271.6535 390.0031,-269.2919 388.9765,-266.9191"/>
<polygon fill="none" stroke="#404040" points="388.8924,-266.7281 382.8118,-262.8516 384.0514,-255.7478 390.132,-259.6243 388.8924,-266.7281"/>
<text text-anchor="middle" x="444.5" y="-277" font-family="Helvetica,sans-Serif" font-size="10.00" fill="#000000"> +source_branches_id</text>
</g>
<!-- Node6 -->
<g id="node6" class="node">
<title>Node6</title>
<polygon fill="#ffffff" stroke="#bfbfbf" points="484,-303.5 484,-371.5 584,-371.5 584,-303.5 484,-303.5"/>
<text text-anchor="start" x="492" y="-359.5" font-family="Helvetica,sans-Serif" font-size="10.00" fill="#000000">map&lt; int, unsigned</text>
<text text-anchor="middle" x="534" y="-348.5" font-family="Helvetica,sans-Serif" font-size="10.00" fill="#000000"> int &gt;</text>
<polyline fill="none" stroke="#bfbfbf" points="484,-341.5 584,-341.5 "/>
<text text-anchor="middle" x="534" y="-329.5" font-family="Helvetica,sans-Serif" font-size="10.00" fill="#000000"> </text>
<polyline fill="none" stroke="#bfbfbf" points="484,-322.5 584,-322.5 "/>
<text text-anchor="middle" x="534" y="-310.5" font-family="Helvetica,sans-Serif" font-size="10.00" fill="#000000"> </text>
</g>
<!-- Node6&#45;&gt;Node1 -->
<g id="edge5" class="edge">
<title>Node6&#45;&gt;Node1</title>
<path fill="none" stroke="#404040" d="M517.087,-303.3808C511.3826,-293.416 504.5306,-282.8376 497,-274 469.8664,-242.1569 435.1635,-211.9455 403.6173,-187.3548"/>
<polygon fill="none" stroke="#404040" points="403.4504,-187.2265 396.2559,-186.7373 393.9403,-179.9081 401.1348,-180.3972 403.4504,-187.2265"/>
<text text-anchor="middle" x="543" y="-277" font-family="Helvetica,sans-Serif" font-size="10.00" fill="#000000"> +branches_index</text>
</g>
</g>
</svg>
