<?xml version="1.0" encoding="UTF-8" standalone="no"?>
<!DOCTYPE svg PUBLIC "-//W3C//DTD SVG 1.1//EN"
 "http://www.w3.org/Graphics/SVG/1.1/DTD/svg11.dtd">
<!-- Generated by graphviz version 2.43.0 (0)
 -->
<!-- Title: tethex::Mesh Pages: 1 -->
<svg width="558pt" height="413pt"
 viewBox="0.00 0.00 558.00 413.00" xmlns="http://www.w3.org/2000/svg" xmlns:xlink="http://www.w3.org/1999/xlink">
<g id="graph0" class="graph" transform="scale(1 1) rotate(0) translate(4 409)">
<title>tethex::Mesh</title>
<polygon fill="white" stroke="transparent" points="-4,4 -4,-409 554,-409 554,4 -4,4"/>
<!-- Node1 -->
<g id="node1" class="node">
<title>Node1</title>
<g id="a_node1"><a xlink:title="Main class that stores all data during program execution.">
<polygon fill="#bfbfbf" stroke="black" points="174,-0.5 174,-255.5 356,-255.5 356,-0.5 174,-0.5"/>
<text text-anchor="middle" x="265" y="-243.5" font-family="Helvetica,sans-Serif" font-size="10.00">tethex::Mesh</text>
<polyline fill="none" stroke="black" points="174,-236.5 356,-236.5 "/>
<text text-anchor="middle" x="265" y="-224.5" font-family="Helvetica,sans-Serif" font-size="10.00"> </text>
<polyline fill="none" stroke="black" points="174,-217.5 356,-217.5 "/>
<text text-anchor="start" x="182" y="-205.5" font-family="Helvetica,sans-Serif" font-size="10.00">+ Mesh()</text>
<text text-anchor="start" x="182" y="-194.5" font-family="Helvetica,sans-Serif" font-size="10.00">+ Mesh()</text>
<text text-anchor="start" x="182" y="-183.5" font-family="Helvetica,sans-Serif" font-size="10.00">+ Mesh()</text>
<text text-anchor="start" x="182" y="-172.5" font-family="Helvetica,sans-Serif" font-size="10.00">+ operator=()</text>
<text text-anchor="start" x="182" y="-161.5" font-family="Helvetica,sans-Serif" font-size="10.00">+ Mesh()</text>
<text text-anchor="start" x="182" y="-150.5" font-family="Helvetica,sans-Serif" font-size="10.00">+ ~Mesh()</text>
<text text-anchor="start" x="182" y="-139.5" font-family="Helvetica,sans-Serif" font-size="10.00">+ read()</text>
<text text-anchor="start" x="182" y="-128.5" font-family="Helvetica,sans-Serif" font-size="10.00">+ convert()</text>
<text text-anchor="start" x="182" y="-117.5" font-family="Helvetica,sans-Serif" font-size="10.00">+ write()</text>
<text text-anchor="start" x="182" y="-106.5" font-family="Helvetica,sans-Serif" font-size="10.00">+ get_n_converted_quadrangles()</text>
<text text-anchor="start" x="182" y="-95.5" font-family="Helvetica,sans-Serif" font-size="10.00">and 31 more...</text>
<text text-anchor="start" x="182" y="-84.5" font-family="Helvetica,sans-Serif" font-size="10.00"># edge_numeration()</text>
<text text-anchor="start" x="182" y="-73.5" font-family="Helvetica,sans-Serif" font-size="10.00"># convert_2D()</text>
<text text-anchor="start" x="182" y="-62.5" font-family="Helvetica,sans-Serif" font-size="10.00"># find_face_from_two</text>
<text text-anchor="start" x="182" y="-51.5" font-family="Helvetica,sans-Serif" font-size="10.00">_edges()</text>
<text text-anchor="start" x="182" y="-40.5" font-family="Helvetica,sans-Serif" font-size="10.00"># set_new_vertices()</text>
<text text-anchor="start" x="182" y="-29.5" font-family="Helvetica,sans-Serif" font-size="10.00"># convert_triangles()</text>
<text text-anchor="start" x="182" y="-18.5" font-family="Helvetica,sans-Serif" font-size="10.00"># redefine_lines()</text>
<text text-anchor="start" x="182" y="-7.5" font-family="Helvetica,sans-Serif" font-size="10.00"># convert_quadrangles()</text>
</a>
</g>
</g>
<!-- Node2 -->
<g id="node2" class="node">
<title>Node2</title>
<g id="a_node2"><a xlink:title=" ">
<polygon fill="white" stroke="#bfbfbf" points="0,-347.5 0,-404.5 98,-404.5 98,-347.5 0,-347.5"/>
<text text-anchor="middle" x="49" y="-392.5" font-family="Helvetica,sans-Serif" font-size="10.00">vector&lt; string &gt;</text>
<polyline fill="none" stroke="#bfbfbf" points="0,-385.5 98,-385.5 "/>
<text text-anchor="middle" x="49" y="-373.5" font-family="Helvetica,sans-Serif" font-size="10.00"> </text>
<polyline fill="none" stroke="#bfbfbf" points="0,-366.5 98,-366.5 "/>
<text text-anchor="middle" x="49" y="-354.5" font-family="Helvetica,sans-Serif" font-size="10.00"> </text>
</a>
</g>
</g>
<!-- Node2&#45;&gt;Node1 -->
<g id="edge1" class="edge">
<title>Node2&#45;&gt;Node1</title>
<path fill="none" stroke="#404040" d="M67.43,-347.14C81.58,-326.37 102.02,-297.62 122,-274 135.58,-257.94 150.58,-241.52 165.59,-225.77"/>
<polygon fill="none" stroke="#404040" points="165.61,-225.75 166.88,-218.65 173.92,-217.09 172.65,-224.19 165.61,-225.75"/>
<text text-anchor="middle" x="167.5" y="-299" font-family="Helvetica,sans-Serif" font-size="10.00"> #physical_names</text>
</g>
<!-- Node3 -->
<g id="node3" class="node">
<title>Node3</title>
<g id="a_node3"><a xlink:title=" ">
<polygon fill="white" stroke="#bfbfbf" points="116,-347.5 116,-404.5 298,-404.5 298,-347.5 116,-347.5"/>
<text text-anchor="middle" x="207" y="-392.5" font-family="Helvetica,sans-Serif" font-size="10.00">vector&lt; tethex::MeshElement * &gt;</text>
<polyline fill="none" stroke="#bfbfbf" points="116,-385.5 298,-385.5 "/>
<text text-anchor="middle" x="207" y="-373.5" font-family="Helvetica,sans-Serif" font-size="10.00"> </text>
<polyline fill="none" stroke="#bfbfbf" points="116,-366.5 298,-366.5 "/>
<text text-anchor="middle" x="207" y="-354.5" font-family="Helvetica,sans-Serif" font-size="10.00"> </text>
</a>
</g>
</g>
<!-- Node3&#45;&gt;Node1 -->
<g id="edge2" class="edge">
<title>Node3&#45;&gt;Node1</title>
<path fill="none" stroke="#404040" d="M213.25,-347.11C217.82,-326.82 224.21,-298.69 230,-274 230.51,-271.83 231.03,-269.63 231.55,-267.43"/>
<polygon fill="none" stroke="#404040" points="231.6,-267.19 229.09,-260.43 234.36,-255.51 236.87,-262.27 231.6,-267.19"/>
<text text-anchor="middle" x="266" y="-321" font-family="Helvetica,sans-Serif" font-size="10.00"> #quadrangles</text>
<text text-anchor="middle" x="266" y="-310" font-family="Helvetica,sans-Serif" font-size="10.00">#lines</text>
<text text-anchor="middle" x="266" y="-299" font-family="Helvetica,sans-Serif" font-size="10.00">#points</text>
<text text-anchor="middle" x="266" y="-288" font-family="Helvetica,sans-Serif" font-size="10.00">#triangles</text>
<text text-anchor="middle" x="266" y="-277" font-family="Helvetica,sans-Serif" font-size="10.00">#edges</text>
</g>
<!-- Node4 -->
<g id="node4" class="node">
<title>Node4</title>
<g id="a_node4"><a xlink:title=" ">
<polygon fill="white" stroke="#bfbfbf" points="316.5,-347.5 316.5,-404.5 377.5,-404.5 377.5,-347.5 316.5,-347.5"/>
<text text-anchor="middle" x="347" y="-392.5" font-family="Helvetica,sans-Serif" font-size="10.00">unsigned</text>
<polyline fill="none" stroke="#bfbfbf" points="316.5,-385.5 377.5,-385.5 "/>
<text text-anchor="middle" x="347" y="-373.5" font-family="Helvetica,sans-Serif" font-size="10.00"> </text>
<polyline fill="none" stroke="#bfbfbf" points="316.5,-366.5 377.5,-366.5 "/>
<text text-anchor="middle" x="347" y="-354.5" font-family="Helvetica,sans-Serif" font-size="10.00"> </text>
</a>
</g>
</g>
<!-- Node4&#45;&gt;Node1 -->
<g id="edge3" class="edge">
<title>Node4&#45;&gt;Node1</title>
<path fill="none" stroke="#404040" d="M332.8,-347.08C330.04,-341.18 327.3,-334.95 325,-329 317.36,-309.24 310.09,-288.09 303.41,-267.2"/>
<polygon fill="none" stroke="#404040" points="303.37,-267.07 297.75,-262.56 299.76,-255.63 305.38,-260.15 303.37,-267.07"/>
<text text-anchor="middle" x="393.5" y="-299" font-family="Helvetica,sans-Serif" font-size="10.00"> #n_converted_quadrangles</text>
</g>
<!-- Node5 -->
<g id="node5" class="node">
<title>Node5</title>
<g id="a_node5"><a xlink:title=" ">
<polygon fill="white" stroke="#bfbfbf" points="418,-347.5 418,-404.5 550,-404.5 550,-347.5 418,-347.5"/>
<text text-anchor="middle" x="484" y="-392.5" font-family="Helvetica,sans-Serif" font-size="10.00">vector&lt; tethex::Point &gt;</text>
<polyline fill="none" stroke="#bfbfbf" points="418,-385.5 550,-385.5 "/>
<text text-anchor="middle" x="484" y="-373.5" font-family="Helvetica,sans-Serif" font-size="10.00"> </text>
<polyline fill="none" stroke="#bfbfbf" points="418,-366.5 550,-366.5 "/>
<text text-anchor="middle" x="484" y="-354.5" font-family="Helvetica,sans-Serif" font-size="10.00"> </text>
</a>
</g>
</g>
<!-- Node5&#45;&gt;Node1 -->
<g id="edge4" class="edge">
<title>Node5&#45;&gt;Node1</title>
<path fill="none" stroke="#404040" d="M483.2,-347.26C481.41,-325.74 476.26,-295.98 462,-274 438.18,-237.28 401.61,-206.62 366.41,-183.09"/>
<polygon fill="none" stroke="#404040" points="366.09,-182.89 358.88,-182.96 356.04,-176.34 363.25,-176.26 366.09,-182.89"/>
<text text-anchor="middle" x="505.5" y="-304.5" font-family="Helvetica,sans-Serif" font-size="10.00"> #vertices</text>
<text text-anchor="middle" x="505.5" y="-293.5" font-family="Helvetica,sans-Serif" font-size="10.00">#holes</text>
</g>
</g>
</svg>
