<?xml version="1.0" encoding="UTF-8" standalone="no"?>
<!DOCTYPE svg PUBLIC "-//W3C//DTD SVG 1.1//EN"
 "http://www.w3.org/Graphics/SVG/1.1/DTD/svg11.dtd">
<!-- Generated by graphviz version 2.40.1 (20161225.0304)
 -->
<!-- Title: nlohmann::basic_json::sax_parse Pages: 1 -->
<svg width="751pt" height="132pt"
 viewBox="0.00 0.00 751.00 132.00" xmlns="http://www.w3.org/2000/svg" xmlns:xlink="http://www.w3.org/1999/xlink">
<g id="graph0" class="graph" transform="scale(1 1) rotate(0) translate(4 128)">
<title>nlohmann::basic_json::sax_parse</title>
<polygon fill="#ffffff" stroke="transparent" points="-4,4 -4,-128 747,-128 747,4 -4,4"/>
<!-- Node436 -->
<g id="node1" class="node">
<title>Node436</title>
<polygon fill="#bfbfbf" stroke="#000000" points="0,-22.5 0,-52.5 111,-52.5 111,-22.5 0,-22.5"/>
<text text-anchor="start" x="8" y="-40.5" font-family="Helvetica,sans-Serif" font-size="10.00" fill="#000000">nlohmann::basic_json</text>
<text text-anchor="middle" x="55.5" y="-29.5" font-family="Helvetica,sans-Serif" font-size="10.00" fill="#000000">::sax_parse</text>
</g>
<!-- Node437 -->
<g id="node2" class="node">
<title>Node437</title>
<g id="a_node2"><a xlink:href="classnlohmann_1_1detail_1_1parser.html#a14e34931965064b26e118eb72cbd5e25" target="_top" xlink:title="nlohmann::detail::parser\l::sax_parse">
<polygon fill="#ffffff" stroke="#000000" points="147,-22.5 147,-52.5 268,-52.5 268,-22.5 147,-22.5"/>
<text text-anchor="start" x="155" y="-40.5" font-family="Helvetica,sans-Serif" font-size="10.00" fill="#000000">nlohmann::detail::parser</text>
<text text-anchor="middle" x="207.5" y="-29.5" font-family="Helvetica,sans-Serif" font-size="10.00" fill="#000000">::sax_parse</text>
</a>
</g>
</g>
<!-- Node436&#45;&gt;Node437 -->
<g id="edge1" class="edge">
<title>Node436&#45;&gt;Node437</title>
<path fill="none" stroke="#191970" d="M111.2361,-37.5C119.5791,-37.5 128.2737,-37.5 136.8759,-37.5"/>
<polygon fill="#191970" stroke="#191970" points="136.9052,-41.0001 146.9052,-37.5 136.9051,-34.0001 136.9052,-41.0001"/>
</g>
<!-- Node438 -->
<g id="node3" class="node">
<title>Node438</title>
<g id="a_node3"><a xlink:href="namespacenlohmann_1_1detail.html#a59fca69799f6b9e366710cb9043aa77d" target="_top" xlink:title="nlohmann::detail::void">
<polygon fill="#ffffff" stroke="#000000" points="307,-50 307,-69 419,-69 419,-50 307,-50"/>
<text text-anchor="middle" x="363" y="-57" font-family="Helvetica,sans-Serif" font-size="10.00" fill="#000000">nlohmann::detail::void</text>
</a>
</g>
</g>
<!-- Node437&#45;&gt;Node438 -->
<g id="edge2" class="edge">
<title>Node437&#45;&gt;Node438</title>
<path fill="none" stroke="#191970" d="M268.0656,-46.0688C277.4594,-47.3978 287.2055,-48.7767 296.7175,-50.1224"/>
<polygon fill="#191970" stroke="#191970" points="296.5276,-53.6303 306.9193,-51.5658 297.5082,-46.6993 296.5276,-53.6303"/>
</g>
<!-- Node442 -->
<g id="node7" class="node">
<title>Node442</title>
<g id="a_node7"><a xlink:href="classnlohmann_1_1detail_1_1parse__error.html#a137ea4d27de45d8a844fd13451d40f3d" target="_top" xlink:title="create a parse error exception ">
<polygon fill="#ffffff" stroke="#000000" points="304,-.5 304,-30.5 422,-30.5 422,-.5 304,-.5"/>
<text text-anchor="start" x="312" y="-18.5" font-family="Helvetica,sans-Serif" font-size="10.00" fill="#000000">nlohmann::detail::parse</text>
<text text-anchor="middle" x="363" y="-7.5" font-family="Helvetica,sans-Serif" font-size="10.00" fill="#000000">_error::create</text>
</a>
</g>
</g>
<!-- Node437&#45;&gt;Node442 -->
<g id="edge6" class="edge">
<title>Node437&#45;&gt;Node442</title>
<path fill="none" stroke="#191970" d="M268.0656,-28.9312C276.524,-27.7345 285.2681,-26.4974 293.8696,-25.2805"/>
<polygon fill="#191970" stroke="#191970" points="294.4649,-28.7312 303.876,-23.8648 293.4843,-21.8002 294.4649,-28.7312"/>
</g>
<!-- Node439 -->
<g id="node4" class="node">
<title>Node439</title>
<g id="a_node4"><a xlink:href="classnlohmann_1_1detail_1_1type__error.html#aecc083aea4b698c33d042670ba50c10f" target="_top" xlink:title="nlohmann::detail::type\l_error::create">
<polygon fill="#ffffff" stroke="#000000" points="458,-93.5 458,-123.5 571,-123.5 571,-93.5 458,-93.5"/>
<text text-anchor="start" x="466" y="-111.5" font-family="Helvetica,sans-Serif" font-size="10.00" fill="#000000">nlohmann::detail::type</text>
<text text-anchor="middle" x="514.5" y="-100.5" font-family="Helvetica,sans-Serif" font-size="10.00" fill="#000000">_error::create</text>
</a>
</g>
</g>
<!-- Node438&#45;&gt;Node439 -->
<g id="edge3" class="edge">
<title>Node438&#45;&gt;Node439</title>
<path fill="none" stroke="#191970" d="M392.5704,-69.064C411.2482,-75.105 435.9834,-83.1052 458.2915,-90.3204"/>
<polygon fill="#191970" stroke="#191970" points="457.4163,-93.7158 468.0082,-93.463 459.5705,-87.0554 457.4163,-93.7158"/>
</g>
<!-- Node441 -->
<g id="node6" class="node">
<title>Node441</title>
<g id="a_node6"><a xlink:href="namespacenlohmann_1_1detail.html#a40f7bb070a60e8ba14fffb9c117fcbd8" target="_top" xlink:title="nlohmann::detail::from\l_json_array_impl">
<polygon fill="#ffffff" stroke="#000000" points="458,-44.5 458,-74.5 571,-74.5 571,-44.5 458,-44.5"/>
<text text-anchor="start" x="466" y="-62.5" font-family="Helvetica,sans-Serif" font-size="10.00" fill="#000000">nlohmann::detail::from</text>
<text text-anchor="middle" x="514.5" y="-51.5" font-family="Helvetica,sans-Serif" font-size="10.00" fill="#000000">_json_array_impl</text>
</a>
</g>
</g>
<!-- Node438&#45;&gt;Node441 -->
<g id="edge5" class="edge">
<title>Node438&#45;&gt;Node441</title>
<path fill="none" stroke="#191970" d="M419.413,-59.5C428.6185,-59.5 438.2322,-59.5 447.6593,-59.5"/>
<polygon fill="#191970" stroke="#191970" points="447.7874,-63.0001 457.7874,-59.5 447.7873,-56.0001 447.7874,-63.0001"/>
</g>
<!-- Node440 -->
<g id="node5" class="node">
<title>Node440</title>
<g id="a_node5"><a xlink:href="classnlohmann_1_1detail_1_1exception.html#abf41a7e9178356314082284e6cfea278" target="_top" xlink:title="nlohmann::detail::exception\l::name">
<polygon fill="#ffffff" stroke="#000000" points="607,-46.5 607,-76.5 743,-76.5 743,-46.5 607,-46.5"/>
<text text-anchor="start" x="615" y="-64.5" font-family="Helvetica,sans-Serif" font-size="10.00" fill="#000000">nlohmann::detail::exception</text>
<text text-anchor="middle" x="675" y="-53.5" font-family="Helvetica,sans-Serif" font-size="10.00" fill="#000000">::name</text>
</a>
</g>
</g>
<!-- Node439&#45;&gt;Node440 -->
<g id="edge4" class="edge">
<title>Node439&#45;&gt;Node440</title>
<path fill="none" stroke="#191970" d="M565.7245,-93.4997C581.071,-89.0057 598.0543,-84.0324 613.9666,-79.3727"/>
<polygon fill="#191970" stroke="#191970" points="615.0983,-82.6884 623.7117,-76.519 613.131,-75.9705 615.0983,-82.6884"/>
</g>
<!-- Node442&#45;&gt;Node440 -->
<g id="edge7" class="edge">
<title>Node442&#45;&gt;Node440</title>
<path fill="none" stroke="#191970" d="M422.0611,-18.3272C463.8802,-20.9533 521.1664,-25.8148 571,-34.5 584.9745,-36.9355 599.8233,-40.3065 613.794,-43.8422"/>
<polygon fill="#191970" stroke="#191970" points="613.2281,-47.3112 623.7866,-46.4349 614.9861,-40.5356 613.2281,-47.3112"/>
</g>
</g>
</svg>
