<?xml version="1.0" encoding="UTF-8" standalone="no"?>
<!DOCTYPE svg PUBLIC "-//W3C//DTD SVG 1.1//EN"
 "http://www.w3.org/Graphics/SVG/1.1/DTD/svg11.dtd">
<!-- Generated by graphviz version 2.40.1 (20161225.0304)
 -->
<!-- Title: nlohmann::basic_json::cbegin Pages: 1 -->
<svg width="266pt" height="88pt"
 viewBox="0.00 0.00 266.00 88.00" xmlns="http://www.w3.org/2000/svg" xmlns:xlink="http://www.w3.org/1999/xlink">
<g id="graph0" class="graph" transform="scale(1 1) rotate(0) translate(4 84)">
<title>nlohmann::basic_json::cbegin</title>
<polygon fill="#ffffff" stroke="transparent" points="-4,4 -4,-84 262,-84 262,4 -4,4"/>
<!-- Node282 -->
<g id="node1" class="node">
<title>Node282</title>
<polygon fill="#bfbfbf" stroke="#000000" points="0,-24.5 0,-54.5 111,-54.5 111,-24.5 0,-24.5"/>
<text text-anchor="start" x="8" y="-42.5" font-family="Helvetica,sans-Serif" font-size="10.00" fill="#000000">nlohmann::basic_json</text>
<text text-anchor="middle" x="55.5" y="-31.5" font-family="Helvetica,sans-Serif" font-size="10.00" fill="#000000">::cbegin</text>
</g>
<!-- Node283 -->
<g id="node2" class="node">
<title>Node283</title>
<g id="a_node2"><a xlink:href="classnlohmann_1_1basic__json.html#a1cfa9ae5e7c2434cab4cfe69bffffe11" target="_top" xlink:title="updates a JSON object from another object, overwriting existing keys ">
<polygon fill="#ffffff" stroke="#000000" points="147,-49.5 147,-79.5 258,-79.5 258,-49.5 147,-49.5"/>
<text text-anchor="start" x="155" y="-67.5" font-family="Helvetica,sans-Serif" font-size="10.00" fill="#000000">nlohmann::basic_json</text>
<text text-anchor="middle" x="202.5" y="-56.5" font-family="Helvetica,sans-Serif" font-size="10.00" fill="#000000">::update</text>
</a>
</g>
</g>
<!-- Node282&#45;&gt;Node283 -->
<g id="edge1" class="edge">
<title>Node282&#45;&gt;Node283</title>
<path fill="none" stroke="#191970" d="M121.0775,-50.6526C129.6805,-52.1157 138.4299,-53.6037 146.847,-55.0352"/>
<polygon fill="#191970" stroke="#191970" points="121.5197,-47.1777 111.0744,-48.9514 120.346,-54.0786 121.5197,-47.1777"/>
</g>
<!-- Node284 -->
<g id="node3" class="node">
<title>Node284</title>
<g id="a_node3"><a xlink:href="classnlohmann_1_1basic__json.html#a4336103c941d9f60bd51320f4880e3dd" target="_top" xlink:title="creates a diff as a JSON patch ">
<polygon fill="#ffffff" stroke="#000000" points="147,-.5 147,-30.5 258,-30.5 258,-.5 147,-.5"/>
<text text-anchor="start" x="155" y="-18.5" font-family="Helvetica,sans-Serif" font-size="10.00" fill="#000000">nlohmann::basic_json</text>
<text text-anchor="middle" x="202.5" y="-7.5" font-family="Helvetica,sans-Serif" font-size="10.00" fill="#000000">::diff</text>
</a>
</g>
</g>
<!-- Node282&#45;&gt;Node284 -->
<g id="edge2" class="edge">
<title>Node282&#45;&gt;Node284</title>
<path fill="none" stroke="#191970" d="M121.0775,-28.7935C129.6805,-27.3889 138.4299,-25.9604 146.847,-24.5862"/>
<polygon fill="#191970" stroke="#191970" points="120.3797,-25.361 111.0744,-30.4266 121.5077,-32.2695 120.3797,-25.361"/>
</g>
</g>
</svg>
