<?xml version="1.0" encoding="UTF-8" standalone="no"?>
<!DOCTYPE svg PUBLIC "-//W3C//DTD SVG 1.1//EN"
 "http://www.w3.org/Graphics/SVG/1.1/DTD/svg11.dtd">
<!-- Generated by graphviz version 2.40.1 (20161225.0304)
 -->
<!-- Title: tethex::Line::common_vertex Pages: 1 -->
<svg width="735pt" height="39pt"
 viewBox="0.00 0.00 735.00 39.00" xmlns="http://www.w3.org/2000/svg" xmlns:xlink="http://www.w3.org/1999/xlink">
<g id="graph0" class="graph" transform="scale(1 1) rotate(0) translate(4 35)">
<title>tethex::Line::common_vertex</title>
<polygon fill="#ffffff" stroke="transparent" points="-4,4 -4,-35 731,-35 731,4 -4,4"/>
<!-- Node9 -->
<g id="node1" class="node">
<title>Node9</title>
<polygon fill="#bfbfbf" stroke="#000000" points="0,-.5 0,-30.5 111,-30.5 111,-.5 0,-.5"/>
<text text-anchor="start" x="8" y="-18.5" font-family="Helvetica,sans-Serif" font-size="10.00" fill="#000000">tethex::Line::common</text>
<text text-anchor="middle" x="55.5" y="-7.5" font-family="Helvetica,sans-Serif" font-size="10.00" fill="#000000">_vertex</text>
</g>
<!-- Node10 -->
<g id="node2" class="node">
<title>Node10</title>
<g id="a_node2"><a xlink:href="classtethex_1_1Mesh.html#abc261df76b5f1090b366386fdcb495cb" target="_top" xlink:title="tethex::Mesh::find\l_face_from_two_edges">
<polygon fill="#ffffff" stroke="#000000" points="147,-.5 147,-30.5 265,-30.5 265,-.5 147,-.5"/>
<text text-anchor="start" x="155" y="-18.5" font-family="Helvetica,sans-Serif" font-size="10.00" fill="#000000">tethex::Mesh::find</text>
<text text-anchor="middle" x="206" y="-7.5" font-family="Helvetica,sans-Serif" font-size="10.00" fill="#000000">_face_from_two_edges</text>
</a>
</g>
</g>
<!-- Node9&#45;&gt;Node10 -->
<g id="edge1" class="edge">
<title>Node9&#45;&gt;Node10</title>
<path fill="none" stroke="#191970" d="M121.3456,-15.5C129.8246,-15.5 138.4653,-15.5 146.8281,-15.5"/>
<polygon fill="#191970" stroke="#191970" points="121.1131,-12.0001 111.1131,-15.5 121.113,-19.0001 121.1131,-12.0001"/>
</g>
<!-- Node11 -->
<g id="node3" class="node">
<title>Node11</title>
<g id="a_node3"><a xlink:href="classtethex_1_1Mesh.html#ab739c5e4bbb1c3461a068c2104eab52e" target="_top" xlink:title="tethex::Mesh::convert\l_triangles">
<polygon fill="#ffffff" stroke="#000000" points="301,-.5 301,-30.5 413,-30.5 413,-.5 301,-.5"/>
<text text-anchor="start" x="309" y="-18.5" font-family="Helvetica,sans-Serif" font-size="10.00" fill="#000000">tethex::Mesh::convert</text>
<text text-anchor="middle" x="357" y="-7.5" font-family="Helvetica,sans-Serif" font-size="10.00" fill="#000000">_triangles</text>
</a>
</g>
</g>
<!-- Node10&#45;&gt;Node11 -->
<g id="edge2" class="edge">
<title>Node10&#45;&gt;Node11</title>
<path fill="none" stroke="#191970" d="M275.2488,-15.5C283.8352,-15.5 292.5302,-15.5 300.8855,-15.5"/>
<polygon fill="#191970" stroke="#191970" points="275.2458,-12.0001 265.2458,-15.5 275.2458,-19.0001 275.2458,-12.0001"/>
</g>
<!-- Node12 -->
<g id="node4" class="node">
<title>Node12</title>
<g id="a_node4"><a xlink:href="classtethex_1_1Mesh.html#adb803e48ce7101318531730a512ecbc8" target="_top" xlink:title="tethex::Mesh::convert_2D">
<polygon fill="#ffffff" stroke="#000000" points="449,-6 449,-25 579,-25 579,-6 449,-6"/>
<text text-anchor="middle" x="514" y="-13" font-family="Helvetica,sans-Serif" font-size="10.00" fill="#000000">tethex::Mesh::convert_2D</text>
</a>
</g>
</g>
<!-- Node11&#45;&gt;Node12 -->
<g id="edge3" class="edge">
<title>Node11&#45;&gt;Node12</title>
<path fill="none" stroke="#191970" d="M423.3808,-15.5C431.7962,-15.5 440.402,-15.5 448.7987,-15.5"/>
<polygon fill="#191970" stroke="#191970" points="423.2372,-12.0001 413.2372,-15.5 423.2371,-19.0001 423.2372,-12.0001"/>
</g>
<!-- Node13 -->
<g id="node5" class="node">
<title>Node13</title>
<g id="a_node5"><a xlink:href="classtethex_1_1Mesh.html#aaa882d21498571cbd84d4f7129fd6e32" target="_top" xlink:title="tethex::Mesh::convert">
<polygon fill="#ffffff" stroke="#000000" points="615,-6 615,-25 727,-25 727,-6 615,-6"/>
<text text-anchor="middle" x="671" y="-13" font-family="Helvetica,sans-Serif" font-size="10.00" fill="#000000">tethex::Mesh::convert</text>
</a>
</g>
</g>
<!-- Node12&#45;&gt;Node13 -->
<g id="edge4" class="edge">
<title>Node12&#45;&gt;Node13</title>
<path fill="none" stroke="#191970" d="M589.2433,-15.5C597.8245,-15.5 606.4576,-15.5 614.7317,-15.5"/>
<polygon fill="#191970" stroke="#191970" points="589.2182,-12.0001 579.2182,-15.5 589.2182,-19.0001 589.2182,-12.0001"/>
</g>
</g>
</svg>
