<?xml version="1.0" encoding="UTF-8" standalone="no"?>
<!DOCTYPE svg PUBLIC "-//W3C//DTD SVG 1.1//EN"
 "http://www.w3.org/Graphics/SVG/1.1/DTD/svg11.dtd">
<!-- Generated by graphviz version 2.40.1 (20161225.0304)
 -->
<!-- Title: River::Model Pages: 1 -->
<svg width="1202pt" height="548pt"
 viewBox="0.00 0.00 1201.50 548.00" xmlns="http://www.w3.org/2000/svg" xmlns:xlink="http://www.w3.org/1999/xlink">
<g id="graph0" class="graph" transform="scale(1 1) rotate(0) translate(4 544)">
<title>River::Model</title>
<polygon fill="#ffffff" stroke="transparent" points="-4,4 -4,-544 1197.5,-544 1197.5,4 -4,4"/>
<!-- Node1 -->
<g id="node1" class="node">
<title>Node1</title>
<polygon fill="#bfbfbf" stroke="#000000" points="660.5,-.5 660.5,-134.5 840.5,-134.5 840.5,-.5 660.5,-.5"/>
<text text-anchor="middle" x="750.5" y="-122.5" font-family="Helvetica,sans-Serif" font-size="10.00" fill="#000000">River::Model</text>
<polyline fill="none" stroke="#000000" points="660.5,-115.5 840.5,-115.5 "/>
<text text-anchor="start" x="668.5" y="-103.5" font-family="Helvetica,sans-Serif" font-size="10.00" fill="#000000">+ biffurcation_threshold</text>
<text text-anchor="start" x="668.5" y="-92.5" font-family="Helvetica,sans-Serif" font-size="10.00" fill="#000000">+ biffurcation_min_dist</text>
<polyline fill="none" stroke="#000000" points="660.5,-85.5 840.5,-85.5 "/>
<text text-anchor="start" x="668.5" y="-73.5" font-family="Helvetica,sans-Serif" font-size="10.00" fill="#000000">+ q_biffurcate()</text>
<text text-anchor="start" x="668.5" y="-62.5" font-family="Helvetica,sans-Serif" font-size="10.00" fill="#000000">+ q_growth()</text>
<text text-anchor="start" x="668.5" y="-51.5" font-family="Helvetica,sans-Serif" font-size="10.00" fill="#000000">+ next_point()</text>
<text text-anchor="start" x="668.5" y="-40.5" font-family="Helvetica,sans-Serif" font-size="10.00" fill="#000000">+ GetZeroIndices()</text>
<text text-anchor="start" x="668.5" y="-29.5" font-family="Helvetica,sans-Serif" font-size="10.00" fill="#000000">+ GetNonZeroIndices()</text>
<text text-anchor="start" x="668.5" y="-18.5" font-family="Helvetica,sans-Serif" font-size="10.00" fill="#000000">+ CheckParametersConsistency()</text>
<text text-anchor="start" x="668.5" y="-7.5" font-family="Helvetica,sans-Serif" font-size="10.00" fill="#000000">+ print()</text>
</g>
<!-- Node2 -->
<g id="node2" class="node">
<title>Node2</title>
<g id="a_node2"><a xlink:href="classRiver_1_1ProgramOptions.html" target="_top" xlink:title="Global program options. ">
<polygon fill="#ffffff" stroke="#000000" points="622,-225 622,-282 749,-282 749,-225 622,-225"/>
<text text-anchor="middle" x="685.5" y="-270" font-family="Helvetica,sans-Serif" font-size="10.00" fill="#000000">River::ProgramOptions</text>
<polyline fill="none" stroke="#000000" points="622,-263 749,-263 "/>
<text text-anchor="middle" x="685.5" y="-251" font-family="Helvetica,sans-Serif" font-size="10.00" fill="#000000"> </text>
<polyline fill="none" stroke="#000000" points="622,-244 749,-244 "/>
<text text-anchor="middle" x="685.5" y="-232" font-family="Helvetica,sans-Serif" font-size="10.00" fill="#000000"> </text>
</a>
</g>
</g>
<!-- Node2&#45;&gt;Node1 -->
<g id="edge1" class="edge">
<title>Node2&#45;&gt;Node1</title>
<path fill="none" stroke="#404040" d="M694.1492,-224.7568C700.3446,-204.5753 709.0527,-177.0097 717.5,-153 718.3251,-150.6548 719.1724,-148.2774 720.0362,-145.8804"/>
<polygon fill="none" stroke="#404040" points="720.0521,-145.8368 718.3579,-138.8275 724.1765,-134.5678 725.8706,-141.5771 720.0521,-145.8368"/>
<text text-anchor="middle" x="745" y="-156" font-family="Helvetica,sans-Serif" font-size="10.00" fill="#000000"> +prog_opt</text>
</g>
<!-- Node3 -->
<g id="node3" class="node">
<title>Node3</title>
<polygon fill="#ffffff" stroke="#bfbfbf" points="187.5,-482.5 187.5,-539.5 237.5,-539.5 237.5,-482.5 187.5,-482.5"/>
<text text-anchor="middle" x="212.5" y="-527.5" font-family="Helvetica,sans-Serif" font-size="10.00" fill="#000000">double</text>
<polyline fill="none" stroke="#bfbfbf" points="187.5,-520.5 237.5,-520.5 "/>
<text text-anchor="middle" x="212.5" y="-508.5" font-family="Helvetica,sans-Serif" font-size="10.00" fill="#000000"> </text>
<polyline fill="none" stroke="#bfbfbf" points="187.5,-501.5 237.5,-501.5 "/>
<text text-anchor="middle" x="212.5" y="-489.5" font-family="Helvetica,sans-Serif" font-size="10.00" fill="#000000"> </text>
</g>
<!-- Node3&#45;&gt;Node1 -->
<g id="edge8" class="edge">
<title>Node3&#45;&gt;Node1</title>
<path fill="none" stroke="#404040" d="M198.9427,-482.4504C196.6857,-476.4807 194.6929,-470.134 193.5,-464 183.2335,-411.2113 171.1471,-391.9122 193.5,-343 238.945,-243.5579 283.8883,-235.0319 379.5,-182 464.2699,-134.9816 570.8734,-104.6566 648.0309,-87.1071"/>
<polygon fill="none" stroke="#404040" points="648.4421,-87.0153 653.4259,-81.8036 660.1536,-84.3996 655.1697,-89.6113 648.4421,-87.0153"/>
<text text-anchor="middle" x="429.5" y="-317" font-family="Helvetica,sans-Serif" font-size="10.00" fill="#000000"> +biffurcation_angle</text>
<text text-anchor="middle" x="429.5" y="-306" font-family="Helvetica,sans-Serif" font-size="10.00" fill="#000000">+eta</text>
<text text-anchor="middle" x="429.5" y="-295" font-family="Helvetica,sans-Serif" font-size="10.00" fill="#000000">+height</text>
<text text-anchor="middle" x="429.5" y="-284" font-family="Helvetica,sans-Serif" font-size="10.00" fill="#000000">+field_value</text>
<text text-anchor="middle" x="429.5" y="-273" font-family="Helvetica,sans-Serif" font-size="10.00" fill="#000000">+ds</text>
<text text-anchor="start" x="379.5" y="-262" font-family="Helvetica,sans-Serif" font-size="10.00" fill="#000000">+biffurcation</text>
<text text-anchor="middle" x="429.5" y="-251" font-family="Helvetica,sans-Serif" font-size="10.00" fill="#000000">_threshold_2</text>
<text text-anchor="middle" x="429.5" y="-240" font-family="Helvetica,sans-Serif" font-size="10.00" fill="#000000">+width</text>
<text text-anchor="middle" x="429.5" y="-229" font-family="Helvetica,sans-Serif" font-size="10.00" fill="#000000">+dx</text>
<text text-anchor="start" x="379.5" y="-218" font-family="Helvetica,sans-Serif" font-size="10.00" fill="#000000">+growth_min</text>
<text text-anchor="middle" x="429.5" y="-207" font-family="Helvetica,sans-Serif" font-size="10.00" fill="#000000">_distance</text>
<text text-anchor="middle" x="429.5" y="-196" font-family="Helvetica,sans-Serif" font-size="10.00" fill="#000000">+growth_threshold</text>
<text text-anchor="middle" x="429.5" y="-185" font-family="Helvetica,sans-Serif" font-size="10.00" fill="#000000">...</text>
</g>
<!-- Node3&#45;&gt;Node2 -->
<g id="edge2" class="edge">
<title>Node3&#45;&gt;Node2</title>
<path fill="none" stroke="#404040" d="M237.9279,-506.4527C261.814,-500.7849 296.6249,-488.6618 315.5,-464 348.6283,-420.7152 295.0991,-379.59 335.5,-343 381.2212,-301.5916 556.1746,-350.1503 612.5,-325 629.1845,-317.5501 644.2605,-304.5206 656.3214,-291.6073"/>
<polygon fill="none" stroke="#404040" points="656.5988,-291.2936 657.579,-284.1494 664.5506,-282.3064 663.5705,-289.4506 656.5988,-291.2936"/>
<text text-anchor="middle" x="395" y="-401" font-family="Helvetica,sans-Serif" font-size="10.00" fill="#000000"> +maximal_river_height</text>
</g>
<!-- Node6 -->
<g id="node6" class="node">
<title>Node6</title>
<g id="a_node6"><a xlink:href="classRiver_1_1SolverParams.html" target="_top" xlink:title="Holds All parameters used in Deal.II solver. ">
<polygon fill="#ffffff" stroke="#000000" points="489,-225 489,-282 604,-282 604,-225 489,-225"/>
<text text-anchor="middle" x="546.5" y="-270" font-family="Helvetica,sans-Serif" font-size="10.00" fill="#000000">River::SolverParams</text>
<polyline fill="none" stroke="#000000" points="489,-263 604,-263 "/>
<text text-anchor="middle" x="546.5" y="-251" font-family="Helvetica,sans-Serif" font-size="10.00" fill="#000000"> </text>
<polyline fill="none" stroke="#000000" points="489,-244 604,-244 "/>
<text text-anchor="middle" x="546.5" y="-232" font-family="Helvetica,sans-Serif" font-size="10.00" fill="#000000"> </text>
</a>
</g>
</g>
<!-- Node3&#45;&gt;Node6 -->
<g id="edge6" class="edge">
<title>Node3&#45;&gt;Node6</title>
<path fill="none" stroke="#404040" d="M203.0463,-482.3337C192.9778,-445.8826 182.3722,-382.899 213.5,-343 233.2594,-317.6728 252.4447,-333.2138 283.5,-325 349.3115,-307.5935 424.2161,-287.1696 477.2079,-272.6173"/>
<polygon fill="none" stroke="#404040" points="477.2708,-272.6001 481.9963,-267.1531 488.8418,-269.4201 484.1163,-274.8671 477.2708,-272.6001"/>
<text text-anchor="middle" x="264.5" y="-406.5" font-family="Helvetica,sans-Serif" font-size="10.00" fill="#000000"> +refinment_fraction</text>
<text text-anchor="middle" x="264.5" y="-395.5" font-family="Helvetica,sans-Serif" font-size="10.00" fill="#000000">+tollerance</text>
</g>
<!-- Node8 -->
<g id="node8" class="node">
<title>Node8</title>
<g id="a_node8"><a xlink:href="classRiver_1_1MeshParams.html" target="_top" xlink:title="Adaptive mesh area constraint function. ">
<polygon fill="#ffffff" stroke="#000000" points="909.5,-225 909.5,-282 1019.5,-282 1019.5,-225 909.5,-225"/>
<text text-anchor="middle" x="964.5" y="-270" font-family="Helvetica,sans-Serif" font-size="10.00" fill="#000000">River::MeshParams</text>
<polyline fill="none" stroke="#000000" points="909.5,-263 1019.5,-263 "/>
<text text-anchor="middle" x="964.5" y="-251" font-family="Helvetica,sans-Serif" font-size="10.00" fill="#000000"> </text>
<polyline fill="none" stroke="#000000" points="909.5,-244 1019.5,-244 "/>
<text text-anchor="start" x="917.5" y="-232" font-family="Helvetica,sans-Serif" font-size="10.00" fill="#000000">+ operator()()</text>
</a>
</g>
</g>
<!-- Node3&#45;&gt;Node8 -->
<g id="edge11" class="edge">
<title>Node3&#45;&gt;Node8</title>
<path fill="none" stroke="#404040" d="M237.5591,-507.3759C281.0146,-501.2222 373.2108,-488.7432 451.5,-482 490.5177,-478.6393 772.0079,-487.2793 803.5,-464 849.5156,-429.9849 807.2401,-383.6646 847.5,-343 863.53,-326.8089 876.4543,-337.5049 895.5,-325 909.5193,-315.7954 922.8416,-303.2703 933.9746,-291.2741"/>
<polygon fill="none" stroke="#404040" points="934.0331,-291.2087 935.0544,-284.0703 942.0366,-282.2674 941.0153,-289.4059 934.0331,-291.2087"/>
<text text-anchor="middle" x="893" y="-456" font-family="Helvetica,sans-Serif" font-size="10.00" fill="#000000"> +min_area</text>
<text text-anchor="middle" x="893" y="-445" font-family="Helvetica,sans-Serif" font-size="10.00" fill="#000000">+refinment_radius</text>
<text text-anchor="middle" x="893" y="-434" font-family="Helvetica,sans-Serif" font-size="10.00" fill="#000000">+sigma</text>
<text text-anchor="middle" x="893" y="-423" font-family="Helvetica,sans-Serif" font-size="10.00" fill="#000000">+max_edge</text>
<text text-anchor="middle" x="893" y="-412" font-family="Helvetica,sans-Serif" font-size="10.00" fill="#000000">+max_area</text>
<text text-anchor="middle" x="893" y="-401" font-family="Helvetica,sans-Serif" font-size="10.00" fill="#000000">+exponant</text>
<text text-anchor="middle" x="893" y="-390" font-family="Helvetica,sans-Serif" font-size="10.00" fill="#000000">+eps</text>
<text text-anchor="middle" x="893" y="-379" font-family="Helvetica,sans-Serif" font-size="10.00" fill="#000000">+ratio</text>
<text text-anchor="middle" x="893" y="-368" font-family="Helvetica,sans-Serif" font-size="10.00" fill="#000000">+min_angle</text>
<text text-anchor="middle" x="893" y="-357" font-family="Helvetica,sans-Serif" font-size="10.00" fill="#000000">+min_edge</text>
<text text-anchor="middle" x="893" y="-346" font-family="Helvetica,sans-Serif" font-size="10.00" fill="#000000">...</text>
</g>
<!-- Node11 -->
<g id="node11" class="node">
<title>Node11</title>
<g id="a_node11"><a xlink:href="classRiver_1_1IntegrationParams.html" target="_top" xlink:title="Holds parameters used by integration of series paramets functionality(see River::Solver::integrate())...">
<polygon fill="#ffffff" stroke="#000000" points="0,-214 0,-293 137,-293 137,-214 0,-214"/>
<text text-anchor="middle" x="68.5" y="-281" font-family="Helvetica,sans-Serif" font-size="10.00" fill="#000000">River::IntegrationParams</text>
<polyline fill="none" stroke="#000000" points="0,-274 137,-274 "/>
<text text-anchor="middle" x="68.5" y="-262" font-family="Helvetica,sans-Serif" font-size="10.00" fill="#000000"> </text>
<polyline fill="none" stroke="#000000" points="0,-255 137,-255 "/>
<text text-anchor="start" x="8" y="-243" font-family="Helvetica,sans-Serif" font-size="10.00" fill="#000000">+ WeightFunction()</text>
<text text-anchor="start" x="8" y="-232" font-family="Helvetica,sans-Serif" font-size="10.00" fill="#000000">+ BaseVector()</text>
<text text-anchor="start" x="8" y="-221" font-family="Helvetica,sans-Serif" font-size="10.00" fill="#000000">+ BaseVectorFinal()</text>
</a>
</g>
</g>
<!-- Node3&#45;&gt;Node11 -->
<g id="edge16" class="edge">
<title>Node3&#45;&gt;Node11</title>
<path fill="none" stroke="#404040" d="M187.421,-506.7971C148.7375,-499.7457 77.4044,-484.289 62.5,-464 28.9493,-418.3284 38.228,-350.7902 50.7705,-304.61"/>
<polygon fill="none" stroke="#404040" points="50.7745,-304.5959 48.5904,-297.7235 54.0941,-293.0642 56.2782,-299.9366 50.7745,-304.5959"/>
<text text-anchor="middle" x="114" y="-412" font-family="Helvetica,sans-Serif" font-size="10.00" fill="#000000"> +integration_radius</text>
<text text-anchor="middle" x="114" y="-401" font-family="Helvetica,sans-Serif" font-size="10.00" fill="#000000">+weigth_func_radius</text>
<text text-anchor="middle" x="114" y="-390" font-family="Helvetica,sans-Serif" font-size="10.00" fill="#000000">+exponant</text>
</g>
<!-- Node4 -->
<g id="node4" class="node">
<title>Node4</title>
<polygon fill="#ffffff" stroke="#bfbfbf" points="460.5,-482.5 460.5,-539.5 498.5,-539.5 498.5,-482.5 460.5,-482.5"/>
<text text-anchor="middle" x="479.5" y="-527.5" font-family="Helvetica,sans-Serif" font-size="10.00" fill="#000000">bool</text>
<polyline fill="none" stroke="#bfbfbf" points="460.5,-520.5 498.5,-520.5 "/>
<text text-anchor="middle" x="479.5" y="-508.5" font-family="Helvetica,sans-Serif" font-size="10.00" fill="#000000"> </text>
<polyline fill="none" stroke="#bfbfbf" points="460.5,-501.5 498.5,-501.5 "/>
<text text-anchor="middle" x="479.5" y="-489.5" font-family="Helvetica,sans-Serif" font-size="10.00" fill="#000000"> </text>
</g>
<!-- Node4&#45;&gt;Node2 -->
<g id="edge3" class="edge">
<title>Node4&#45;&gt;Node2</title>
<path fill="none" stroke="#404040" d="M469.5281,-482.3882C458.6519,-445.4092 446.9161,-381.244 480.5,-343 500.0345,-320.7549 585.9107,-338.0175 612.5,-325 628.7828,-317.0283 643.6988,-304.027 655.7443,-291.2819"/>
<polygon fill="none" stroke="#404040" points="655.9596,-291.0427 656.9997,-283.9069 663.9865,-282.1225 662.9465,-289.2582 655.9596,-291.0427"/>
<text text-anchor="middle" x="508.5" y="-406.5" font-family="Helvetica,sans-Serif" font-size="10.00" fill="#000000"> +save_vtk</text>
<text text-anchor="middle" x="508.5" y="-395.5" font-family="Helvetica,sans-Serif" font-size="10.00" fill="#000000">+verbose</text>
</g>
<!-- Node5 -->
<g id="node5" class="node">
<title>Node5</title>
<polygon fill="#ffffff" stroke="#bfbfbf" points="778,-482.5 778,-539.5 839,-539.5 839,-482.5 778,-482.5"/>
<text text-anchor="middle" x="808.5" y="-527.5" font-family="Helvetica,sans-Serif" font-size="10.00" fill="#000000">unsigned</text>
<polyline fill="none" stroke="#bfbfbf" points="778,-520.5 839,-520.5 "/>
<text text-anchor="middle" x="808.5" y="-508.5" font-family="Helvetica,sans-Serif" font-size="10.00" fill="#000000"> </text>
<polyline fill="none" stroke="#bfbfbf" points="778,-501.5 839,-501.5 "/>
<text text-anchor="middle" x="808.5" y="-489.5" font-family="Helvetica,sans-Serif" font-size="10.00" fill="#000000"> </text>
</g>
<!-- Node5&#45;&gt;Node1 -->
<g id="edge17" class="edge">
<title>Node5&#45;&gt;Node1</title>
<path fill="none" stroke="#404040" d="M839.0744,-507.0396C864.8546,-501.9087 900.2288,-490.2557 917.5,-464 947.0545,-419.0714 952.642,-383.7073 917.5,-343 881.684,-301.5119 833.9925,-364.0177 795.5,-325 741.3353,-270.0962 787.2467,-228.7019 772.5,-153 772.0787,-150.8374 771.6354,-148.648 771.1738,-146.4417"/>
<polygon fill="none" stroke="#404040" points="771.1332,-146.257 765.9366,-141.2574 768.5529,-134.5377 773.7495,-139.5372 771.1332,-146.257"/>
<text text-anchor="middle" x="848" y="-262" font-family="Helvetica,sans-Serif" font-size="10.00" fill="#000000"> +biffurcation_type</text>
<text text-anchor="middle" x="848" y="-251" font-family="Helvetica,sans-Serif" font-size="10.00" fill="#000000">+growth_type</text>
<text text-anchor="middle" x="848" y="-240" font-family="Helvetica,sans-Serif" font-size="10.00" fill="#000000">+boundary_condition</text>
</g>
<!-- Node5&#45;&gt;Node2 -->
<g id="edge4" class="edge">
<title>Node5&#45;&gt;Node2</title>
<path fill="none" stroke="#404040" d="M777.8328,-503.4072C745.3197,-494.6655 697.1982,-479.507 686.5,-464 668.1999,-437.474 674.6395,-347.5931 680.4171,-294.2383"/>
<polygon fill="none" stroke="#404040" points="680.4342,-294.086 677.1327,-287.6751 681.7808,-282.1618 685.0822,-288.5728 680.4342,-294.086"/>
<text text-anchor="start" x="686.5" y="-412" font-family="Helvetica,sans-Serif" font-size="10.00" fill="#000000"> +number_of_backward</text>
<text text-anchor="middle" x="745" y="-401" font-family="Helvetica,sans-Serif" font-size="10.00" fill="#000000">_steps</text>
<text text-anchor="middle" x="745" y="-390" font-family="Helvetica,sans-Serif" font-size="10.00" fill="#000000">+number_of_steps</text>
</g>
<!-- Node5&#45;&gt;Node6 -->
<g id="edge7" class="edge">
<title>Node5&#45;&gt;Node6</title>
<path fill="none" stroke="#404040" d="M777.5621,-509.5064C718.5866,-505.9695 593.4465,-494.9231 565.5,-464 543.7479,-439.9311 542.9803,-348.6837 544.5861,-294.544"/>
<polygon fill="none" stroke="#404040" points="544.5949,-294.2851 540.8041,-288.1508 545.0085,-282.2922 548.7993,-288.4265 544.5949,-294.2851"/>
<text text-anchor="middle" x="617.5" y="-417.5" font-family="Helvetica,sans-Serif" font-size="10.00" fill="#000000"> +num_of_iterrations</text>
<text text-anchor="start" x="565.5" y="-406.5" font-family="Helvetica,sans-Serif" font-size="10.00" fill="#000000">+adaptive_refinment</text>
<text text-anchor="middle" x="617.5" y="-395.5" font-family="Helvetica,sans-Serif" font-size="10.00" fill="#000000">_steps</text>
<text text-anchor="middle" x="617.5" y="-384.5" font-family="Helvetica,sans-Serif" font-size="10.00" fill="#000000">+quadrature_degree</text>
</g>
<!-- Node5&#45;&gt;Node8 -->
<g id="edge13" class="edge">
<title>Node5&#45;&gt;Node8</title>
<path fill="none" stroke="#404040" d="M839.3079,-504.2176C874.679,-495.7723 929.5068,-480.4409 942.5,-464 952.7728,-451.0013 959.4906,-351.8346 962.5635,-294.3676"/>
<polygon fill="none" stroke="#404040" points="962.5781,-294.0837 958.8935,-287.885 963.1982,-282.0997 966.8828,-288.2984 962.5781,-294.0837"/>
<text text-anchor="start" x="958.5" y="-417.5" font-family="Helvetica,sans-Serif" font-size="10.00" fill="#000000"> +number_of_refined</text>
<text text-anchor="middle" x="1022" y="-406.5" font-family="Helvetica,sans-Serif" font-size="10.00" fill="#000000">_quadrangles</text>
<text text-anchor="middle" x="1022" y="-395.5" font-family="Helvetica,sans-Serif" font-size="10.00" fill="#000000">+number_of_quadrangles</text>
<text text-anchor="middle" x="1022" y="-384.5" font-family="Helvetica,sans-Serif" font-size="10.00" fill="#000000">+static_refinment_steps</text>
</g>
<!-- Node6&#45;&gt;Node1 -->
<g id="edge5" class="edge">
<title>Node6&#45;&gt;Node1</title>
<path fill="none" stroke="#404040" d="M565.5438,-224.7179C580.3932,-203.5025 602.3278,-174.685 625.5,-153 633.3244,-145.6778 641.8258,-138.5198 650.5904,-131.6595"/>
<polygon fill="none" stroke="#404040" points="650.6448,-131.618 652.9881,-124.7983 660.1846,-124.3384 657.8412,-131.1581 650.6448,-131.618"/>
<text text-anchor="middle" x="667.5" y="-156" font-family="Helvetica,sans-Serif" font-size="10.00" fill="#000000"> +solver_params</text>
</g>
<!-- Node7 -->
<g id="node7" class="node">
<title>Node7</title>
<polygon fill="#ffffff" stroke="#bfbfbf" points="1038,-225 1038,-282 1067,-282 1067,-225 1038,-225"/>
<text text-anchor="middle" x="1052.5" y="-270" font-family="Helvetica,sans-Serif" font-size="10.00" fill="#000000">int</text>
<polyline fill="none" stroke="#bfbfbf" points="1038,-263 1067,-263 "/>
<text text-anchor="middle" x="1052.5" y="-251" font-family="Helvetica,sans-Serif" font-size="10.00" fill="#000000"> </text>
<polyline fill="none" stroke="#bfbfbf" points="1038,-244 1067,-244 "/>
<text text-anchor="middle" x="1052.5" y="-232" font-family="Helvetica,sans-Serif" font-size="10.00" fill="#000000"> </text>
</g>
<!-- Node7&#45;&gt;Node1 -->
<g id="edge9" class="edge">
<title>Node7&#45;&gt;Node1</title>
<path fill="none" stroke="#404040" d="M1048.626,-224.8279C1045.374,-210.4522 1039.4119,-193.6668 1028.5,-182 982.1339,-132.4259 911.1392,-103.6712 852.5012,-87.3765"/>
<polygon fill="none" stroke="#404040" points="852.162,-87.2858 845.3319,-89.5986 840.57,-84.1834 847.4001,-81.8706 852.162,-87.2858"/>
<text text-anchor="middle" x="1054.5" y="-156" font-family="Helvetica,sans-Serif" font-size="10.00" fill="#000000"> +river_boundary_id</text>
</g>
<!-- Node8&#45;&gt;Node1 -->
<g id="edge10" class="edge">
<title>Node8&#45;&gt;Node1</title>
<path fill="none" stroke="#404040" d="M938.472,-224.7877C925.8919,-211.3705 910.334,-195.4308 895.5,-182 880.9287,-168.807 865.0246,-155.3691 849.2609,-142.5596"/>
<polygon fill="none" stroke="#404040" points="848.8196,-142.2039 841.638,-141.5526 839.477,-134.6728 846.6587,-135.3242 848.8196,-142.2039"/>
<text text-anchor="middle" x="892" y="-156" font-family="Helvetica,sans-Serif" font-size="10.00" fill="#000000"> +mesh</text>
</g>
<!-- Node9 -->
<g id="node9" class="node">
<title>Node9</title>
<polygon fill="#ffffff" stroke="#bfbfbf" points="1051.5,-482.5 1051.5,-539.5 1177.5,-539.5 1177.5,-482.5 1051.5,-482.5"/>
<text text-anchor="middle" x="1114.5" y="-527.5" font-family="Helvetica,sans-Serif" font-size="10.00" fill="#000000">vector&lt; River::Point &gt;</text>
<polyline fill="none" stroke="#bfbfbf" points="1051.5,-520.5 1177.5,-520.5 "/>
<text text-anchor="middle" x="1114.5" y="-508.5" font-family="Helvetica,sans-Serif" font-size="10.00" fill="#000000"> </text>
<polyline fill="none" stroke="#bfbfbf" points="1051.5,-501.5 1177.5,-501.5 "/>
<text text-anchor="middle" x="1114.5" y="-489.5" font-family="Helvetica,sans-Serif" font-size="10.00" fill="#000000"> </text>
</g>
<!-- Node9&#45;&gt;Node8 -->
<g id="edge12" class="edge">
<title>Node9&#45;&gt;Node8</title>
<path fill="none" stroke="#404040" d="M1119.4597,-482.2654C1124.0703,-445.449 1125.9155,-381.7702 1092.5,-343 1073.4884,-320.9419 1054.2396,-340.3607 1029.5,-325 1015.5551,-316.3417 1002.7746,-303.8572 992.3056,-291.7361"/>
<polygon fill="none" stroke="#404040" points="992.0574,-291.4349 985.155,-289.3475 984.427,-282.1732 991.3294,-284.2606 992.0574,-291.4349"/>
<text text-anchor="middle" x="1151.5" y="-401" font-family="Helvetica,sans-Serif" font-size="10.00" fill="#000000"> +tip_points</text>
</g>
<!-- Node10 -->
<g id="node10" class="node">
<title>Node10</title>
<polygon fill="#ffffff" stroke="#bfbfbf" points="1096,-225 1096,-282 1179,-282 1179,-225 1096,-225"/>
<text text-anchor="middle" x="1137.5" y="-270" font-family="Helvetica,sans-Serif" font-size="10.00" fill="#000000">vector&lt; int &gt;</text>
<polyline fill="none" stroke="#bfbfbf" points="1096,-263 1179,-263 "/>
<text text-anchor="middle" x="1137.5" y="-251" font-family="Helvetica,sans-Serif" font-size="10.00" fill="#000000"> </text>
<polyline fill="none" stroke="#bfbfbf" points="1096,-244 1179,-244 "/>
<text text-anchor="middle" x="1137.5" y="-232" font-family="Helvetica,sans-Serif" font-size="10.00" fill="#000000"> </text>
</g>
<!-- Node10&#45;&gt;Node1 -->
<g id="edge14" class="edge">
<title>Node10&#45;&gt;Node1</title>
<path fill="none" stroke="#404040" d="M1136.7511,-224.8401C1134.5961,-202.248 1127.9411,-171.5577 1108.5,-153 1072.1337,-118.2862 945.2186,-93.9443 852.8074,-80.339"/>
<polygon fill="none" stroke="#404040" points="852.7413,-80.3296 846.2306,-83.4295 840.8649,-78.6119 847.3757,-75.5119 852.7413,-80.3296"/>
<text text-anchor="middle" x="1155" y="-156" font-family="Helvetica,sans-Serif" font-size="10.00" fill="#000000"> +boundary_ids</text>
</g>
<!-- Node11&#45;&gt;Node1 -->
<g id="edge15" class="edge">
<title>Node11&#45;&gt;Node1</title>
<path fill="none" stroke="#404040" d="M81.1622,-213.7976C90.1044,-192.3289 104.326,-167.3438 125.5,-153 208.5942,-96.71 493.0801,-77.1955 647.9857,-70.6512"/>
<polygon fill="none" stroke="#404040" points="648.2892,-70.6389 654.1204,-66.3966 660.2791,-70.1476 654.4479,-74.3899 648.2892,-70.6389"/>
<text text-anchor="middle" x="145.5" y="-156" font-family="Helvetica,sans-Serif" font-size="10.00" fill="#000000"> +integr</text>
</g>
</g>
</svg>
