<?xml version="1.0" encoding="UTF-8" standalone="no"?>
<!DOCTYPE svg PUBLIC "-//W3C//DTD SVG 1.1//EN"
 "http://www.w3.org/Graphics/SVG/1.1/DTD/svg11.dtd">
<!-- Generated by graphviz version 2.43.0 (0)
 -->
<!-- Title: tethex::PhysPoint Pages: 1 -->
<svg width="235pt" height="464pt"
 viewBox="0.00 0.00 234.50 464.00" xmlns="http://www.w3.org/2000/svg" xmlns:xlink="http://www.w3.org/1999/xlink">
<g id="graph0" class="graph" transform="scale(1 1) rotate(0) translate(4 460)">
<title>tethex::PhysPoint</title>
<polygon fill="white" stroke="transparent" points="-4,4 -4,-460 230.5,-460 230.5,4 -4,4"/>
<!-- Node1 -->
<g id="node1" class="node">
<title>Node1</title>
<g id="a_node1"><a xlink:title="PhysPoint keep 2 numbers &#45; the number of the vertex associated with the point, and the number of phys...">
<polygon fill="#bfbfbf" stroke="black" points="0,-0.5 0,-79.5 102,-79.5 102,-0.5 0,-0.5"/>
<text text-anchor="middle" x="51" y="-67.5" font-family="Helvetica,sans-Serif" font-size="10.00">tethex::PhysPoint</text>
<polyline fill="none" stroke="black" points="0,-60.5 102,-60.5 "/>
<text text-anchor="middle" x="51" y="-48.5" font-family="Helvetica,sans-Serif" font-size="10.00"> </text>
<polyline fill="none" stroke="black" points="0,-41.5 102,-41.5 "/>
<text text-anchor="start" x="8" y="-29.5" font-family="Helvetica,sans-Serif" font-size="10.00">+ PhysPoint()</text>
<text text-anchor="start" x="8" y="-18.5" font-family="Helvetica,sans-Serif" font-size="10.00">+ PhysPoint()</text>
<text text-anchor="start" x="8" y="-7.5" font-family="Helvetica,sans-Serif" font-size="10.00">+ PhysPoint()</text>
</a>
</g>
</g>
<!-- Node2 -->
<g id="node2" class="node">
<title>Node2</title>
<g id="a_node2"><a xlink:href="classtethex_1_1MeshElement.html" target="_top" xlink:title="This class implements the most part of functionality of all elements of mesh: triangles,...">
<polygon fill="white" stroke="black" points="101.5,-117.5 101.5,-317.5 226.5,-317.5 226.5,-117.5 101.5,-117.5"/>
<text text-anchor="middle" x="164" y="-305.5" font-family="Helvetica,sans-Serif" font-size="10.00">tethex::MeshElement</text>
<polyline fill="none" stroke="black" points="101.5,-298.5 226.5,-298.5 "/>
<text text-anchor="middle" x="164" y="-286.5" font-family="Helvetica,sans-Serif" font-size="10.00"> </text>
<polyline fill="none" stroke="black" points="101.5,-279.5 226.5,-279.5 "/>
<text text-anchor="start" x="109.5" y="-267.5" font-family="Helvetica,sans-Serif" font-size="10.00">+ ~MeshElement()</text>
<text text-anchor="start" x="109.5" y="-256.5" font-family="Helvetica,sans-Serif" font-size="10.00">+ get_n_vertices()</text>
<text text-anchor="start" x="109.5" y="-245.5" font-family="Helvetica,sans-Serif" font-size="10.00">+ get_n_edges()</text>
<text text-anchor="start" x="109.5" y="-234.5" font-family="Helvetica,sans-Serif" font-size="10.00">+ get_gmsh_el_type()</text>
<text text-anchor="start" x="109.5" y="-223.5" font-family="Helvetica,sans-Serif" font-size="10.00">+ get_material_id()</text>
<text text-anchor="start" x="109.5" y="-212.5" font-family="Helvetica,sans-Serif" font-size="10.00">+ get_vertex()</text>
<text text-anchor="start" x="109.5" y="-201.5" font-family="Helvetica,sans-Serif" font-size="10.00">+ get_edge()</text>
<text text-anchor="start" x="109.5" y="-190.5" font-family="Helvetica,sans-Serif" font-size="10.00">+ set_vertex()</text>
<text text-anchor="start" x="109.5" y="-179.5" font-family="Helvetica,sans-Serif" font-size="10.00">+ set_edge()</text>
<text text-anchor="start" x="109.5" y="-168.5" font-family="Helvetica,sans-Serif" font-size="10.00">+ contains()</text>
<text text-anchor="start" x="109.5" y="-157.5" font-family="Helvetica,sans-Serif" font-size="10.00">and 6 more...</text>
<text text-anchor="start" x="109.5" y="-146.5" font-family="Helvetica,sans-Serif" font-size="10.00"># MeshElement()</text>
<text text-anchor="start" x="109.5" y="-135.5" font-family="Helvetica,sans-Serif" font-size="10.00"># MeshElement()</text>
<text text-anchor="start" x="109.5" y="-124.5" font-family="Helvetica,sans-Serif" font-size="10.00"># operator=()</text>
</a>
</g>
</g>
<!-- Node2&#45;&gt;Node1 -->
<g id="edge1" class="edge">
<title>Node2&#45;&gt;Node1</title>
<path fill="none" stroke="midnightblue" d="M95.96,-110.82C88.91,-99.88 82.12,-89.33 76.04,-79.89"/>
<polygon fill="none" stroke="midnightblue" points="93.03,-112.74 101.39,-119.25 98.92,-108.95 93.03,-112.74"/>
</g>
<!-- Node3 -->
<g id="node3" class="node">
<title>Node3</title>
<g id="a_node3"><a xlink:title=" ">
<polygon fill="white" stroke="#bfbfbf" points="8.5,-398.5 8.5,-455.5 37.5,-455.5 37.5,-398.5 8.5,-398.5"/>
<text text-anchor="middle" x="23" y="-443.5" font-family="Helvetica,sans-Serif" font-size="10.00">int</text>
<polyline fill="none" stroke="#bfbfbf" points="8.5,-436.5 37.5,-436.5 "/>
<text text-anchor="middle" x="23" y="-424.5" font-family="Helvetica,sans-Serif" font-size="10.00"> </text>
<polyline fill="none" stroke="#bfbfbf" points="8.5,-417.5 37.5,-417.5 "/>
<text text-anchor="middle" x="23" y="-405.5" font-family="Helvetica,sans-Serif" font-size="10.00"> </text>
</a>
</g>
</g>
<!-- Node3&#45;&gt;Node1 -->
<g id="edge4" class="edge">
<title>Node3&#45;&gt;Node1</title>
<path fill="none" stroke="#404040" d="M17.8,-398.28C8.53,-343.65 -7.84,-218.57 15,-117 16.98,-108.19 20.11,-99.19 23.71,-90.62"/>
<polygon fill="none" stroke="#404040" points="23.73,-90.58 22.55,-83.47 28.67,-79.65 29.84,-86.76 23.73,-90.58"/>
<text text-anchor="middle" x="53.5" y="-226" font-family="Helvetica,sans-Serif" font-size="10.00"> +n_vertices</text>
<text text-anchor="middle" x="53.5" y="-215" font-family="Helvetica,sans-Serif" font-size="10.00">+n_edges</text>
<text text-anchor="middle" x="53.5" y="-204" font-family="Helvetica,sans-Serif" font-size="10.00">+gmsh_el_type</text>
</g>
<!-- Node3&#45;&gt;Node2 -->
<g id="edge2" class="edge">
<title>Node3&#45;&gt;Node2</title>
<path fill="none" stroke="#404040" d="M37.64,-402.08C48.95,-383.81 65.12,-358.09 80,-336 84.56,-329.22 89.33,-322.27 94.16,-315.29"/>
<polygon fill="none" stroke="#404040" points="94.43,-314.91 94.58,-307.7 101.29,-305.06 101.14,-312.27 94.43,-314.91"/>
<text text-anchor="middle" x="120" y="-372" font-family="Helvetica,sans-Serif" font-size="10.00"> #gmsh_el_type</text>
<text text-anchor="middle" x="120" y="-361" font-family="Helvetica,sans-Serif" font-size="10.00">#n_vertices</text>
<text text-anchor="middle" x="120" y="-350" font-family="Helvetica,sans-Serif" font-size="10.00">#n_edges</text>
<text text-anchor="middle" x="120" y="-339" font-family="Helvetica,sans-Serif" font-size="10.00">#material_id</text>
</g>
<!-- Node4 -->
<g id="node4" class="node">
<title>Node4</title>
<g id="a_node4"><a xlink:title=" ">
<polygon fill="white" stroke="#bfbfbf" points="122.5,-398.5 122.5,-455.5 205.5,-455.5 205.5,-398.5 122.5,-398.5"/>
<text text-anchor="middle" x="164" y="-443.5" font-family="Helvetica,sans-Serif" font-size="10.00">vector&lt; int &gt;</text>
<polyline fill="none" stroke="#bfbfbf" points="122.5,-436.5 205.5,-436.5 "/>
<text text-anchor="middle" x="164" y="-424.5" font-family="Helvetica,sans-Serif" font-size="10.00"> </text>
<polyline fill="none" stroke="#bfbfbf" points="122.5,-417.5 205.5,-417.5 "/>
<text text-anchor="middle" x="164" y="-405.5" font-family="Helvetica,sans-Serif" font-size="10.00"> </text>
</a>
</g>
</g>
<!-- Node4&#45;&gt;Node2 -->
<g id="edge3" class="edge">
<title>Node4&#45;&gt;Node2</title>
<path fill="none" stroke="#404040" d="M164,-398.45C164,-380.36 164,-355.4 164,-329.82"/>
<polygon fill="none" stroke="#404040" points="164,-329.64 160,-323.64 164,-317.64 168,-323.64 164,-329.64"/>
<text text-anchor="middle" x="189.5" y="-361" font-family="Helvetica,sans-Serif" font-size="10.00"> #vertices</text>
<text text-anchor="middle" x="189.5" y="-350" font-family="Helvetica,sans-Serif" font-size="10.00">#edges</text>
</g>
</g>
</svg>
