<?xml version="1.0" encoding="UTF-8" standalone="no"?>
<!DOCTYPE svg PUBLIC "-//W3C//DTD SVG 1.1//EN"
 "http://www.w3.org/Graphics/SVG/1.1/DTD/svg11.dtd">
<!-- Generated by graphviz version 2.40.1 (20161225.0304)
 -->
<!-- Title: nlohmann::detail::output_stream_adapter&lt; CharType &gt; Pages: 1 -->
<svg width="332pt" height="237pt"
 viewBox="0.00 0.00 332.00 237.00" xmlns="http://www.w3.org/2000/svg" xmlns:xlink="http://www.w3.org/1999/xlink">
<g id="graph0" class="graph" transform="scale(1 1) rotate(0) translate(4 233)">
<title>nlohmann::detail::output_stream_adapter&lt; CharType &gt;</title>
<polygon fill="#ffffff" stroke="transparent" points="-4,4 -4,-233 328,-233 328,4 -4,4"/>
<!-- Node2 -->
<g id="node1" class="node">
<title>Node2</title>
<polygon fill="#bfbfbf" stroke="#000000" points="87.5,-.5 87.5,-90.5 237.5,-90.5 237.5,-.5 87.5,-.5"/>
<text text-anchor="start" x="95.5" y="-78.5" font-family="Helvetica,sans-Serif" font-size="10.00" fill="#000000">nlohmann::detail::output</text>
<text text-anchor="middle" x="162.5" y="-67.5" font-family="Helvetica,sans-Serif" font-size="10.00" fill="#000000">_stream_adapter&lt; CharType &gt;</text>
<polyline fill="none" stroke="#000000" points="87.5,-60.5 237.5,-60.5 "/>
<text text-anchor="middle" x="162.5" y="-48.5" font-family="Helvetica,sans-Serif" font-size="10.00" fill="#000000"> </text>
<polyline fill="none" stroke="#000000" points="87.5,-41.5 237.5,-41.5 "/>
<text text-anchor="start" x="95.5" y="-29.5" font-family="Helvetica,sans-Serif" font-size="10.00" fill="#000000">+ output_stream_adapter()</text>
<text text-anchor="start" x="95.5" y="-18.5" font-family="Helvetica,sans-Serif" font-size="10.00" fill="#000000">+ write_character()</text>
<text text-anchor="start" x="95.5" y="-7.5" font-family="Helvetica,sans-Serif" font-size="10.00" fill="#000000">+ write_characters()</text>
</g>
<!-- Node3 -->
<g id="node2" class="node">
<title>Node3</title>
<g id="a_node2"><a xlink:href="structnlohmann_1_1detail_1_1output__adapter__protocol.html" target="_top" xlink:title="abstract output adapter interface ">
<polygon fill="#ffffff" stroke="#000000" points="0,-138.5 0,-228.5 155,-228.5 155,-138.5 0,-138.5"/>
<text text-anchor="start" x="8" y="-216.5" font-family="Helvetica,sans-Serif" font-size="10.00" fill="#000000">nlohmann::detail::output</text>
<text text-anchor="middle" x="77.5" y="-205.5" font-family="Helvetica,sans-Serif" font-size="10.00" fill="#000000">_adapter_protocol&lt; CharType &gt;</text>
<polyline fill="none" stroke="#000000" points="0,-198.5 155,-198.5 "/>
<text text-anchor="middle" x="77.5" y="-186.5" font-family="Helvetica,sans-Serif" font-size="10.00" fill="#000000"> </text>
<polyline fill="none" stroke="#000000" points="0,-179.5 155,-179.5 "/>
<text text-anchor="start" x="8" y="-167.5" font-family="Helvetica,sans-Serif" font-size="10.00" fill="#000000">+ write_character()</text>
<text text-anchor="start" x="8" y="-156.5" font-family="Helvetica,sans-Serif" font-size="10.00" fill="#000000">+ write_characters()</text>
<text text-anchor="start" x="8" y="-145.5" font-family="Helvetica,sans-Serif" font-size="10.00" fill="#000000">+ ~output_adapter_protocol()</text>
</a>
</g>
</g>
<!-- Node3&#45;&gt;Node2 -->
<g id="edge1" class="edge">
<title>Node3&#45;&gt;Node2</title>
<path fill="none" stroke="#191970" d="M110.7163,-129.5724C118.6179,-116.7439 126.9696,-103.1846 134.6053,-90.7879"/>
<polygon fill="none" stroke="#191970" points="107.5966,-127.9636 105.3322,-138.3136 113.5567,-131.6347 107.5966,-127.9636"/>
</g>
<!-- Node4 -->
<g id="node3" class="node">
<title>Node4</title>
<polygon fill="#ffffff" stroke="#bfbfbf" points="173,-155 173,-212 324,-212 324,-155 173,-155"/>
<text text-anchor="middle" x="248.5" y="-200" font-family="Helvetica,sans-Serif" font-size="10.00" fill="#000000">basic_ostream&lt; CharType &gt; &amp;</text>
<polyline fill="none" stroke="#bfbfbf" points="173,-193 324,-193 "/>
<text text-anchor="middle" x="248.5" y="-181" font-family="Helvetica,sans-Serif" font-size="10.00" fill="#000000"> </text>
<polyline fill="none" stroke="#bfbfbf" points="173,-174 324,-174 "/>
<text text-anchor="middle" x="248.5" y="-162" font-family="Helvetica,sans-Serif" font-size="10.00" fill="#000000"> </text>
</g>
<!-- Node4&#45;&gt;Node2 -->
<g id="edge2" class="edge">
<title>Node4&#45;&gt;Node2</title>
<path fill="none" stroke="#404040" d="M230.6807,-154.9063C220.9707,-139.325 208.6155,-119.4993 197.0973,-101.0167"/>
<polygon fill="none" stroke="#404040" points="196.9701,-100.8124 190.402,-97.8359 190.6233,-90.6282 197.1915,-93.6047 196.9701,-100.8124"/>
<text text-anchor="middle" x="227" y="-112" font-family="Helvetica,sans-Serif" font-size="10.00" fill="#000000"> &#45;stream</text>
</g>
</g>
</svg>
