<?xml version="1.0" encoding="UTF-8" standalone="no"?>
<!DOCTYPE svg PUBLIC "-//W3C//DTD SVG 1.1//EN"
 "http://www.w3.org/Graphics/SVG/1.1/DTD/svg11.dtd">
<!-- Generated by graphviz version 2.40.1 (20161225.0304)
 -->
<!-- Title: River::Border::GetSourceNormalAngle Pages: 1 -->
<svg width="561pt" height="291pt"
 viewBox="0.00 0.00 561.00 290.50" xmlns="http://www.w3.org/2000/svg" xmlns:xlink="http://www.w3.org/1999/xlink">
<g id="graph0" class="graph" transform="scale(1 1) rotate(0) translate(4 286.5)">
<title>River::Border::GetSourceNormalAngle</title>
<polygon fill="#ffffff" stroke="transparent" points="-4,4 -4,-286.5 557,-286.5 557,4 -4,4"/>
<!-- Node41 -->
<g id="node1" class="node">
<title>Node41</title>
<polygon fill="#bfbfbf" stroke="#000000" points="0,-55 0,-85 127,-85 127,-55 0,-55"/>
<text text-anchor="start" x="8" y="-73" font-family="Helvetica,sans-Serif" font-size="10.00" fill="#000000">River::Border::GetSource</text>
<text text-anchor="middle" x="63.5" y="-62" font-family="Helvetica,sans-Serif" font-size="10.00" fill="#000000">NormalAngle</text>
</g>
<!-- Node42 -->
<g id="node2" class="node">
<title>Node42</title>
<g id="a_node2"><a xlink:href="classRiver_1_1Border.html#a005c8d2d2f708886034edfd28af50bb4" target="_top" xlink:title="Return source poinst indexes(each source consist of two points at distance eps) ">
<polygon fill="#ffffff" stroke="#000000" points="166.5,-159 166.5,-189 293.5,-189 293.5,-159 166.5,-159"/>
<text text-anchor="start" x="174.5" y="-177" font-family="Helvetica,sans-Serif" font-size="10.00" fill="#000000">River::Border::GetSource</text>
<text text-anchor="middle" x="230" y="-166" font-family="Helvetica,sans-Serif" font-size="10.00" fill="#000000">VerticesIndexById</text>
</a>
</g>
</g>
<!-- Node41&#45;&gt;Node42 -->
<g id="edge1" class="edge">
<title>Node41&#45;&gt;Node42</title>
<path fill="none" stroke="#191970" d="M87.7105,-85.1225C116.565,-103.1457 164.9149,-133.3462 197.1311,-153.4693"/>
<polygon fill="#191970" stroke="#191970" points="195.4246,-156.53 205.7602,-158.8593 199.133,-150.593 195.4246,-156.53"/>
</g>
<!-- Node48 -->
<g id="node8" class="node">
<title>Node48</title>
<g id="a_node8"><a xlink:href="classtethex_1_1Mesh.html#aea31733cbb3d4e47252da53a253ec9b8" target="_top" xlink:title="tethex::Mesh::get_vertex">
<polygon fill="#ffffff" stroke="#000000" points="167.5,-38.5 167.5,-57.5 292.5,-57.5 292.5,-38.5 167.5,-38.5"/>
<text text-anchor="middle" x="230" y="-45.5" font-family="Helvetica,sans-Serif" font-size="10.00" fill="#000000">tethex::Mesh::get_vertex</text>
</a>
</g>
</g>
<!-- Node41&#45;&gt;Node48 -->
<g id="edge8" class="edge">
<title>Node41&#45;&gt;Node48</title>
<path fill="none" stroke="#191970" d="M127.3971,-61.5571C137.2326,-60.2576 147.4497,-58.9075 157.4569,-57.5853"/>
<polygon fill="#191970" stroke="#191970" points="157.9169,-61.055 167.3723,-56.2751 156.9999,-54.1153 157.9169,-61.055"/>
</g>
<!-- Node49 -->
<g id="node9" class="node">
<title>Node49</title>
<g id="a_node9"><a xlink:href="classRiver_1_1Border.html#a322982fc82dda6c4972555e4cfbf828f" target="_top" xlink:title="Return source adjacent point(source has only one such points) ">
<polygon fill="#ffffff" stroke="#000000" points="163,-77 163,-107 297,-107 297,-77 163,-77"/>
<text text-anchor="start" x="171" y="-95" font-family="Helvetica,sans-Serif" font-size="10.00" fill="#000000">River::Border::GetAdjacent</text>
<text text-anchor="middle" x="230" y="-84" font-family="Helvetica,sans-Serif" font-size="10.00" fill="#000000">PointId</text>
</a>
</g>
</g>
<!-- Node41&#45;&gt;Node49 -->
<g id="edge10" class="edge">
<title>Node41&#45;&gt;Node49</title>
<path fill="none" stroke="#191970" d="M127.3971,-78.4429C135.7682,-79.5489 144.4157,-80.6916 152.9749,-81.8225"/>
<polygon fill="#191970" stroke="#191970" points="152.588,-85.3017 162.9603,-83.1419 153.505,-78.362 152.588,-85.3017"/>
</g>
<!-- Node51 -->
<g id="node11" class="node">
<title>Node51</title>
<g id="a_node11"><a xlink:href="classRiver_1_1Point.html#a24deaa21918d47a5d4fea7e0a7e4b61b" target="_top" xlink:title="River::Point::angle">
<polygon fill="#ffffff" stroke="#000000" points="181,-.5 181,-19.5 279,-19.5 279,-.5 181,-.5"/>
<text text-anchor="middle" x="230" y="-7.5" font-family="Helvetica,sans-Serif" font-size="10.00" fill="#000000">River::Point::angle</text>
</a>
</g>
</g>
<!-- Node41&#45;&gt;Node51 -->
<g id="edge13" class="edge">
<title>Node41&#45;&gt;Node51</title>
<path fill="none" stroke="#191970" d="M97.2081,-54.9829C116.3054,-46.7609 140.7567,-36.7083 163,-29 169.601,-26.7125 176.6354,-24.4896 183.5714,-22.4188"/>
<polygon fill="#191970" stroke="#191970" points="184.9752,-25.6557 193.6009,-19.5038 183.0214,-18.9339 184.9752,-25.6557"/>
</g>
<!-- Node43 -->
<g id="node3" class="node">
<title>Node43</title>
<g id="a_node3"><a xlink:href="classtethex_1_1Mesh.html#a77dc945a9f65b5b1d41e39ec8d06adb8" target="_top" xlink:title="tethex::Mesh::get_n\l_points">
<polygon fill="#ffffff" stroke="#000000" points="340.5,-203 340.5,-233 444.5,-233 444.5,-203 340.5,-203"/>
<text text-anchor="start" x="348.5" y="-221" font-family="Helvetica,sans-Serif" font-size="10.00" fill="#000000">tethex::Mesh::get_n</text>
<text text-anchor="middle" x="392.5" y="-210" font-family="Helvetica,sans-Serif" font-size="10.00" fill="#000000">_points</text>
</a>
</g>
</g>
<!-- Node42&#45;&gt;Node43 -->
<g id="edge2" class="edge">
<title>Node42&#45;&gt;Node43</title>
<path fill="none" stroke="#191970" d="M285.4688,-189.0192C299.8867,-192.9232 315.5128,-197.1542 330.2547,-201.1459"/>
<polygon fill="#191970" stroke="#191970" points="329.7264,-204.6288 340.2936,-203.8641 331.556,-197.8721 329.7264,-204.6288"/>
</g>
<!-- Node44 -->
<g id="node4" class="node">
<title>Node44</title>
<g id="a_node4"><a xlink:href="classtethex_1_1Mesh.html#a662e5df32c04d894bbc9598d3fe4d3f0" target="_top" xlink:title="tethex::Mesh::get_point">
<polygon fill="#ffffff" stroke="#000000" points="333,-164.5 333,-183.5 452,-183.5 452,-164.5 333,-164.5"/>
<text text-anchor="middle" x="392.5" y="-171.5" font-family="Helvetica,sans-Serif" font-size="10.00" fill="#000000">tethex::Mesh::get_point</text>
</a>
</g>
</g>
<!-- Node42&#45;&gt;Node44 -->
<g id="edge3" class="edge">
<title>Node42&#45;&gt;Node44</title>
<path fill="none" stroke="#191970" d="M293.7579,-174C303.2261,-174 313.0271,-174 322.6127,-174"/>
<polygon fill="#191970" stroke="#191970" points="322.9039,-177.5001 332.9038,-174 322.9038,-170.5001 322.9039,-177.5001"/>
</g>
<!-- Node46 -->
<g id="node6" class="node">
<title>Node46</title>
<g id="a_node6"><a xlink:href="classtethex_1_1MeshElement.html#a44ac13c3270bbf9d70c7e0ea85809979" target="_top" xlink:title="tethex::MeshElement\l::get_material_id">
<polygon fill="#ffffff" stroke="#000000" points="337.5,-252 337.5,-282 447.5,-282 447.5,-252 337.5,-252"/>
<text text-anchor="start" x="345.5" y="-270" font-family="Helvetica,sans-Serif" font-size="10.00" fill="#000000">tethex::MeshElement</text>
<text text-anchor="middle" x="392.5" y="-259" font-family="Helvetica,sans-Serif" font-size="10.00" fill="#000000">::get_material_id</text>
</a>
</g>
</g>
<!-- Node42&#45;&gt;Node46 -->
<g id="edge5" class="edge">
<title>Node42&#45;&gt;Node46</title>
<path fill="none" stroke="#191970" d="M249.7493,-189.0354C269.9379,-203.9639 302.5631,-226.8894 333,-243 336.0964,-244.639 339.3301,-246.2375 342.6207,-247.7807"/>
<polygon fill="#191970" stroke="#191970" points="341.4206,-251.0782 351.9778,-251.9714 344.2819,-244.6897 341.4206,-251.0782"/>
</g>
<!-- Node47 -->
<g id="node7" class="node">
<title>Node47</title>
<g id="a_node7"><a xlink:href="classtethex_1_1MeshElement.html#aed911a47266af4848f1e8bdd0c89e177" target="_top" xlink:title="tethex::MeshElement\l::get_vertex">
<polygon fill="#ffffff" stroke="#000000" points="337.5,-115 337.5,-145 447.5,-145 447.5,-115 337.5,-115"/>
<text text-anchor="start" x="345.5" y="-133" font-family="Helvetica,sans-Serif" font-size="10.00" fill="#000000">tethex::MeshElement</text>
<text text-anchor="middle" x="392.5" y="-122" font-family="Helvetica,sans-Serif" font-size="10.00" fill="#000000">::get_vertex</text>
</a>
</g>
</g>
<!-- Node42&#45;&gt;Node47 -->
<g id="edge6" class="edge">
<title>Node42&#45;&gt;Node47</title>
<path fill="none" stroke="#191970" d="M285.4688,-158.9808C298.9342,-155.3347 313.4535,-151.4034 327.3221,-147.6482"/>
<polygon fill="#191970" stroke="#191970" points="328.5436,-150.9435 337.2812,-144.9516 326.714,-144.1869 328.5436,-150.9435"/>
</g>
<!-- Node45 -->
<g id="node5" class="node">
<title>Node45</title>
<g id="a_node5"><a xlink:href="namespacetethex.html#a31a6ad16911dd58abefe17ab46534aa4" target="_top" xlink:title="tethex::d2s">
<polygon fill="#ffffff" stroke="#000000" points="488,-120.5 488,-139.5 553,-139.5 553,-120.5 488,-120.5"/>
<text text-anchor="middle" x="520.5" y="-127.5" font-family="Helvetica,sans-Serif" font-size="10.00" fill="#000000">tethex::d2s</text>
</a>
</g>
</g>
<!-- Node44&#45;&gt;Node45 -->
<g id="edge4" class="edge">
<title>Node44&#45;&gt;Node45</title>
<path fill="none" stroke="#191970" d="M423.1539,-164.475C432.4458,-161.5169 442.6631,-158.1931 452,-155 463.0053,-151.2363 474.934,-146.9542 485.7059,-143.0104"/>
<polygon fill="#191970" stroke="#191970" points="487.0397,-146.249 495.2136,-139.5083 484.6202,-139.6805 487.0397,-146.249"/>
</g>
<!-- Node47&#45;&gt;Node45 -->
<g id="edge7" class="edge">
<title>Node47&#45;&gt;Node45</title>
<path fill="none" stroke="#191970" d="M447.5264,-130C457.5779,-130 467.9308,-130 477.5665,-130"/>
<polygon fill="#191970" stroke="#191970" points="477.6927,-133.5001 487.6927,-130 477.6926,-126.5001 477.6927,-133.5001"/>
</g>
<!-- Node48&#45;&gt;Node45 -->
<g id="edge9" class="edge">
<title>Node48&#45;&gt;Node45</title>
<path fill="none" stroke="#191970" d="M292.9508,-42.7875C338.9166,-41.4525 401.722,-44.8788 452,-67 474.5002,-76.8996 494.4504,-97.2836 506.9345,-112.1938"/>
<polygon fill="#191970" stroke="#191970" points="504.3923,-114.6178 513.3851,-120.2196 509.8485,-110.2324 504.3923,-114.6178"/>
</g>
<!-- Node49&#45;&gt;Node47 -->
<g id="edge12" class="edge">
<title>Node49&#45;&gt;Node47</title>
<path fill="none" stroke="#191970" d="M294.2243,-107.0186C305.1597,-109.5758 316.5259,-112.2337 327.4816,-114.7957"/>
<polygon fill="#191970" stroke="#191970" points="326.8692,-118.2468 337.4034,-117.1159 328.4631,-111.4307 326.8692,-118.2468"/>
</g>
<!-- Node50 -->
<g id="node10" class="node">
<title>Node50</title>
<g id="a_node10"><a xlink:href="classtethex_1_1Mesh.html#a9927a3d84b3743cc37e09ea029b8fe26" target="_top" xlink:title="tethex::Mesh::get_lines">
<polygon fill="#ffffff" stroke="#000000" points="333,-76.5 333,-95.5 452,-95.5 452,-76.5 333,-76.5"/>
<text text-anchor="middle" x="392.5" y="-83.5" font-family="Helvetica,sans-Serif" font-size="10.00" fill="#000000">tethex::Mesh::get_lines</text>
</a>
</g>
</g>
<!-- Node49&#45;&gt;Node50 -->
<g id="edge11" class="edge">
<title>Node49&#45;&gt;Node50</title>
<path fill="none" stroke="#191970" d="M297.0332,-89.5249C305.4862,-89.2128 314.1512,-88.8929 322.6466,-88.5792"/>
<polygon fill="#191970" stroke="#191970" points="323.0353,-92.0673 332.8993,-88.2006 322.777,-85.0721 323.0353,-92.0673"/>
</g>
<!-- Node52 -->
<g id="node12" class="node">
<title>Node52</title>
<g id="a_node12"><a xlink:href="classRiver_1_1Point.html#a96d6c70f36acd051f5885163bc2de5b5" target="_top" xlink:title="River::Point::norm">
<polygon fill="#ffffff" stroke="#000000" points="344.5,-.5 344.5,-19.5 440.5,-19.5 440.5,-.5 344.5,-.5"/>
<text text-anchor="middle" x="392.5" y="-7.5" font-family="Helvetica,sans-Serif" font-size="10.00" fill="#000000">River::Point::norm</text>
</a>
</g>
</g>
<!-- Node51&#45;&gt;Node52 -->
<g id="edge14" class="edge">
<title>Node51&#45;&gt;Node52</title>
<path fill="none" stroke="#191970" d="M279.1963,-10C296.5345,-10 316.1918,-10 334.2083,-10"/>
<polygon fill="#191970" stroke="#191970" points="334.3091,-13.5001 344.309,-10 334.309,-6.5001 334.3091,-13.5001"/>
</g>
</g>
</svg>
