<?xml version="1.0" encoding="UTF-8" standalone="no"?>
<!DOCTYPE svg PUBLIC "-//W3C//DTD SVG 1.1//EN"
 "http://www.w3.org/Graphics/SVG/1.1/DTD/svg11.dtd">
<!-- Generated by graphviz version 2.40.1 (20161225.0304)
 -->
<!-- Title: nlohmann::basic_json::basic_json Pages: 1 -->
<svg width="418pt" height="39pt"
 viewBox="0.00 0.00 418.00 39.00" xmlns="http://www.w3.org/2000/svg" xmlns:xlink="http://www.w3.org/1999/xlink">
<g id="graph0" class="graph" transform="scale(1 1) rotate(0) translate(4 35)">
<title>nlohmann::basic_json::basic_json</title>
<polygon fill="#ffffff" stroke="transparent" points="-4,4 -4,-35 414,-35 414,4 -4,4"/>
<!-- Node4 -->
<g id="node1" class="node">
<title>Node4</title>
<polygon fill="#bfbfbf" stroke="#000000" points="0,-.5 0,-30.5 111,-30.5 111,-.5 0,-.5"/>
<text text-anchor="start" x="8" y="-18.5" font-family="Helvetica,sans-Serif" font-size="10.00" fill="#000000">nlohmann::basic_json</text>
<text text-anchor="middle" x="55.5" y="-7.5" font-family="Helvetica,sans-Serif" font-size="10.00" fill="#000000">::basic_json</text>
</g>
<!-- Node5 -->
<g id="node2" class="node">
<title>Node5</title>
<g id="a_node2"><a xlink:href="namespacenlohmann_1_1detail.html#aa7a47b08eee864c2c108c04954919648" target="_top" xlink:title="nlohmann::detail::to_json">
<polygon fill="#ffffff" stroke="#000000" points="147,-6 147,-25 272,-25 272,-6 147,-6"/>
<text text-anchor="middle" x="209.5" y="-13" font-family="Helvetica,sans-Serif" font-size="10.00" fill="#000000">nlohmann::detail::to_json</text>
</a>
</g>
</g>
<!-- Node4&#45;&gt;Node5 -->
<g id="edge1" class="edge">
<title>Node4&#45;&gt;Node5</title>
<path fill="none" stroke="#191970" d="M111.0975,-15.5C119.4573,-15.5 128.1826,-15.5 136.8348,-15.5"/>
<polygon fill="#191970" stroke="#191970" points="136.9317,-19.0001 146.9317,-15.5 136.9317,-12.0001 136.9317,-19.0001"/>
</g>
<!-- Node6 -->
<g id="node3" class="node">
<title>Node6</title>
<g id="a_node3"><a xlink:href="namespacenlohmann_1_1detail.html#a510dfa15b01e9a8afe31600a27b28199" target="_top" xlink:title="nlohmann::detail::to\l_json_tuple_impl">
<polygon fill="#ffffff" stroke="#000000" points="308,-.5 308,-30.5 410,-30.5 410,-.5 308,-.5"/>
<text text-anchor="start" x="316" y="-18.5" font-family="Helvetica,sans-Serif" font-size="10.00" fill="#000000">nlohmann::detail::to</text>
<text text-anchor="middle" x="359" y="-7.5" font-family="Helvetica,sans-Serif" font-size="10.00" fill="#000000">_json_tuple_impl</text>
</a>
</g>
</g>
<!-- Node5&#45;&gt;Node6 -->
<g id="edge2" class="edge">
<title>Node5&#45;&gt;Node6</title>
<path fill="none" stroke="#191970" d="M272.0352,-15.5C280.4541,-15.5 289.0855,-15.5 297.4865,-15.5"/>
<polygon fill="#191970" stroke="#191970" points="297.5898,-19.0001 307.5898,-15.5 297.5898,-12.0001 297.5898,-19.0001"/>
</g>
</g>
</svg>
