<?xml version="1.0" encoding="UTF-8" standalone="no"?>
<!DOCTYPE svg PUBLIC "-//W3C//DTD SVG 1.1//EN"
 "http://www.w3.org/Graphics/SVG/1.1/DTD/svg11.dtd">
<!-- Generated by graphviz version 2.40.1 (20161225.0304)
 -->
<!-- Title: River::Timing::Total Pages: 1 -->
<svg width="289pt" height="28pt"
 viewBox="0.00 0.00 289.00 28.00" xmlns="http://www.w3.org/2000/svg" xmlns:xlink="http://www.w3.org/1999/xlink">
<g id="graph0" class="graph" transform="scale(1 1) rotate(0) translate(4 24)">
<title>River::Timing::Total</title>
<polygon fill="#ffffff" stroke="transparent" points="-4,4 -4,-24 285,-24 285,4 -4,4"/>
<!-- Node14 -->
<g id="node1" class="node">
<title>Node14</title>
<polygon fill="#bfbfbf" stroke="#000000" points="0,-.5 0,-19.5 103,-19.5 103,-.5 0,-.5"/>
<text text-anchor="middle" x="51.5" y="-7.5" font-family="Helvetica,sans-Serif" font-size="10.00" fill="#000000">River::Timing::Total</text>
</g>
<!-- Node15 -->
<g id="node2" class="node">
<title>Node15</title>
<g id="a_node2"><a xlink:href="namespaceRiver.html#a656cc47cfdf989114a9fcad489904f75" target="_top" xlink:title="River::Save">
<polygon fill="#ffffff" stroke="#000000" points="139,-.5 139,-19.5 207,-19.5 207,-.5 139,-.5"/>
<text text-anchor="middle" x="173" y="-7.5" font-family="Helvetica,sans-Serif" font-size="10.00" fill="#000000">River::Save</text>
</a>
</g>
</g>
<!-- Node14&#45;&gt;Node15 -->
<g id="edge1" class="edge">
<title>Node14&#45;&gt;Node15</title>
<path fill="none" stroke="#191970" d="M113.2512,-10C121.9868,-10 130.6948,-10 138.6524,-10"/>
<polygon fill="#191970" stroke="#191970" points="113.027,-6.5001 103.0269,-10 113.0269,-13.5001 113.027,-6.5001"/>
</g>
<!-- Node16 -->
<g id="node3" class="node">
<title>Node16</title>
<g id="a_node3"><a xlink:href="main_8cpp.html#a0ddf1224851353fc92bfbff6f499fa97" target="_top" xlink:title="Entry point of RiverSim program. ">
<polygon fill="#ffffff" stroke="#000000" points="243,-.5 243,-19.5 281,-19.5 281,-.5 243,-.5"/>
<text text-anchor="middle" x="262" y="-7.5" font-family="Helvetica,sans-Serif" font-size="10.00" fill="#000000">main</text>
</a>
</g>
</g>
<!-- Node15&#45;&gt;Node16 -->
<g id="edge2" class="edge">
<title>Node15&#45;&gt;Node16</title>
<path fill="none" stroke="#191970" d="M217.2925,-10C226.3463,-10 235.4116,-10 242.9892,-10"/>
<polygon fill="#191970" stroke="#191970" points="217.1552,-6.5001 207.1552,-10 217.1552,-13.5001 217.1552,-6.5001"/>
</g>
</g>
</svg>
