<?xml version="1.0" encoding="UTF-8" standalone="no"?>
<!DOCTYPE svg PUBLIC "-//W3C//DTD SVG 1.1//EN"
 "http://www.w3.org/Graphics/SVG/1.1/DTD/svg11.dtd">
<!-- Generated by graphviz version 2.40.1 (20161225.0304)
 -->
<!-- Title: tethex::Mesh::get_vertex Pages: 1 -->
<svg width="763pt" height="367pt"
 viewBox="0.00 0.00 763.00 366.50" xmlns="http://www.w3.org/2000/svg" xmlns:xlink="http://www.w3.org/1999/xlink">
<g id="graph0" class="graph" transform="scale(1 1) rotate(0) translate(4 362.5)">
<title>tethex::Mesh::get_vertex</title>
<polygon fill="#ffffff" stroke="transparent" points="-4,4 -4,-362.5 759,-362.5 759,4 -4,4"/>
<!-- Node116 -->
<g id="node1" class="node">
<title>Node116</title>
<polygon fill="#bfbfbf" stroke="#000000" points="0,-164.5 0,-183.5 125,-183.5 125,-164.5 0,-164.5"/>
<text text-anchor="middle" x="62.5" y="-171.5" font-family="Helvetica,sans-Serif" font-size="10.00" fill="#000000">tethex::Mesh::get_vertex</text>
</g>
<!-- Node117 -->
<g id="node2" class="node">
<title>Node117</title>
<g id="a_node2"><a xlink:href="classRiver_1_1Border.html#a2f25dbd4abd2d3d684a4d01389e76a0d" target="_top" xlink:title="Returns vector of sources points(both source point is merged into one). ">
<polygon fill="#ffffff" stroke="#000000" points="161,-328 161,-358 293,-358 293,-328 161,-328"/>
<text text-anchor="start" x="169" y="-346" font-family="Helvetica,sans-Serif" font-size="10.00" fill="#000000">River::Border::GetSources</text>
<text text-anchor="middle" x="227" y="-335" font-family="Helvetica,sans-Serif" font-size="10.00" fill="#000000">Point</text>
</a>
</g>
</g>
<!-- Node116&#45;&gt;Node117 -->
<g id="edge1" class="edge">
<title>Node116&#45;&gt;Node117</title>
<path fill="none" stroke="#191970" d="M70.5526,-192.8079C84.583,-223.4564 116.3381,-284.2351 161,-319 165.3295,-322.3701 170.1763,-325.297 175.2247,-327.8323"/>
<polygon fill="#191970" stroke="#191970" points="73.7419,-191.3659 66.4809,-183.6503 67.3456,-194.2098 73.7419,-191.3659"/>
</g>
<!-- Node119 -->
<g id="node4" class="node">
<title>Node119</title>
<g id="a_node4"><a xlink:href="classRiver_1_1Border.html#ad884663725156885e8e5def07a2e49c1" target="_top" xlink:title="Return normal line angle to boundary at point where is located source with source_id ...">
<polygon fill="#ffffff" stroke="#000000" points="163.5,-279 163.5,-309 290.5,-309 290.5,-279 163.5,-279"/>
<text text-anchor="start" x="171.5" y="-297" font-family="Helvetica,sans-Serif" font-size="10.00" fill="#000000">River::Border::GetSource</text>
<text text-anchor="middle" x="227" y="-286" font-family="Helvetica,sans-Serif" font-size="10.00" fill="#000000">NormalAngle</text>
</a>
</g>
</g>
<!-- Node116&#45;&gt;Node119 -->
<g id="edge3" class="edge">
<title>Node116&#45;&gt;Node119</title>
<path fill="none" stroke="#191970" d="M76.6692,-191.4549C94.4475,-212.3766 126.7795,-247.3207 161,-269 166.8998,-272.7376 173.4444,-276.0502 180.0541,-278.9418"/>
<polygon fill="#191970" stroke="#191970" points="79.2755,-189.1153 70.1828,-183.6772 73.8997,-193.5987 79.2755,-189.1153"/>
</g>
<!-- Node120 -->
<g id="node5" class="node">
<title>Node120</title>
<g id="a_node5"><a xlink:href="classRiver_1_1Solver.html#a3d51dbec8b2d1d790c5f4e0385b408d7" target="_top" xlink:title="River::Solver::SetMesh">
<polygon fill="#ffffff" stroke="#000000" points="167.5,-240.5 167.5,-259.5 286.5,-259.5 286.5,-240.5 167.5,-240.5"/>
<text text-anchor="middle" x="227" y="-247.5" font-family="Helvetica,sans-Serif" font-size="10.00" fill="#000000">River::Solver::SetMesh</text>
</a>
</g>
</g>
<!-- Node116&#45;&gt;Node120 -->
<g id="edge4" class="edge">
<title>Node116&#45;&gt;Node120</title>
<path fill="none" stroke="#191970" d="M85.0704,-189.2014C104.519,-201.7685 133.6931,-219.376 161,-231 169.4477,-234.596 178.7846,-237.7477 187.7114,-240.3971"/>
<polygon fill="#191970" stroke="#191970" points="86.8899,-186.2092 76.6079,-183.6536 83.0521,-192.0633 86.8899,-186.2092"/>
</g>
<!-- Node121 -->
<g id="node6" class="node">
<title>Node121</title>
<g id="a_node6"><a xlink:href="classtethex_1_1Mesh.html#af7abffd9bc4bd64eb2f4cdd4aaf7fbe3" target="_top" xlink:title="tethex::Mesh::Mesh">
<polygon fill="#ffffff" stroke="#000000" points="175,-202.5 175,-221.5 279,-221.5 279,-202.5 175,-202.5"/>
<text text-anchor="middle" x="227" y="-209.5" font-family="Helvetica,sans-Serif" font-size="10.00" fill="#000000">tethex::Mesh::Mesh</text>
</a>
</g>
</g>
<!-- Node116&#45;&gt;Node121 -->
<g id="edge5" class="edge">
<title>Node116&#45;&gt;Node121</title>
<path fill="none" stroke="#191970" d="M113.9975,-185.8961C137.1197,-191.2374 164.0297,-197.4537 185.7882,-202.4799"/>
<polygon fill="#191970" stroke="#191970" points="114.5415,-182.4296 104.0103,-183.589 112.9659,-189.25 114.5415,-182.4296"/>
</g>
<!-- Node122 -->
<g id="node7" class="node">
<title>Node122</title>
<g id="a_node7"><a xlink:href="classtethex_1_1Mesh.html#af992d5d2e64047656766e4afcbc95b8b" target="_top" xlink:title="tethex::Mesh::operator=">
<polygon fill="#ffffff" stroke="#000000" points="166.5,-164.5 166.5,-183.5 287.5,-183.5 287.5,-164.5 166.5,-164.5"/>
<text text-anchor="middle" x="227" y="-171.5" font-family="Helvetica,sans-Serif" font-size="10.00" fill="#000000">tethex::Mesh::operator=</text>
</a>
</g>
</g>
<!-- Node116&#45;&gt;Node122 -->
<g id="edge6" class="edge">
<title>Node116&#45;&gt;Node122</title>
<path fill="none" stroke="#191970" d="M135.4222,-174C145.776,-174 156.3296,-174 166.4152,-174"/>
<polygon fill="#191970" stroke="#191970" points="135.1597,-170.5001 125.1597,-174 135.1596,-177.5001 135.1597,-170.5001"/>
</g>
<!-- Node123 -->
<g id="node8" class="node">
<title>Node123</title>
<g id="a_node8"><a xlink:href="classtethex_1_1Mesh.html#a3b6a5b6110e347f12f084408a9919720" target="_top" xlink:title="Convert quadrangles into quadrangles. ">
<polygon fill="#ffffff" stroke="#000000" points="486,-116 486,-146 598,-146 598,-116 486,-116"/>
<text text-anchor="start" x="494" y="-134" font-family="Helvetica,sans-Serif" font-size="10.00" fill="#000000">tethex::Mesh::convert</text>
<text text-anchor="middle" x="542" y="-123" font-family="Helvetica,sans-Serif" font-size="10.00" fill="#000000">_quadrangles</text>
</a>
</g>
</g>
<!-- Node116&#45;&gt;Node123 -->
<g id="edge7" class="edge">
<title>Node116&#45;&gt;Node123</title>
<path fill="none" stroke="#191970" d="M115.4006,-162.5088C130.1047,-159.6665 146.1208,-156.8958 161,-155 275.8901,-140.3614 411.4614,-134.5247 485.9443,-132.2944"/>
<polygon fill="#191970" stroke="#191970" points="114.5897,-159.1013 105.4606,-164.4781 115.9502,-165.9679 114.5897,-159.1013"/>
</g>
<!-- Node125 -->
<g id="node10" class="node">
<title>Node125</title>
<g id="a_node10"><a xlink:href="classtethex_1_1Mesh.html#a451d2cd1bc4968e4a6342369736a2796" target="_top" xlink:title="Print some statistics (detailed information). ">
<polygon fill="#ffffff" stroke="#000000" points="167.5,-88.5 167.5,-107.5 286.5,-107.5 286.5,-88.5 167.5,-88.5"/>
<text text-anchor="middle" x="227" y="-95.5" font-family="Helvetica,sans-Serif" font-size="10.00" fill="#000000">tethex::Mesh::statistics</text>
</a>
</g>
</g>
<!-- Node116&#45;&gt;Node125 -->
<g id="edge9" class="edge">
<title>Node116&#45;&gt;Node125</title>
<path fill="none" stroke="#191970" d="M87.7929,-159.4153C107.4135,-148.4054 135.4769,-133.3139 161,-122 172.9266,-116.7132 186.4134,-111.6531 198.0726,-107.5537"/>
<polygon fill="#191970" stroke="#191970" points="85.8647,-156.4849 78.8873,-164.4578 89.3137,-162.5762 85.8647,-156.4849"/>
</g>
<!-- Node126 -->
<g id="node11" class="node">
<title>Node126</title>
<g id="a_node11"><a xlink:href="classtethex_1_1Mesh.html#abc261df76b5f1090b366386fdcb495cb" target="_top" xlink:title="Find the global number of face basing on numbers of 2 edges defining that face. ">
<polygon fill="#ffffff" stroke="#000000" points="168,-39 168,-69 286,-69 286,-39 168,-39"/>
<text text-anchor="start" x="176" y="-57" font-family="Helvetica,sans-Serif" font-size="10.00" fill="#000000">tethex::Mesh::find</text>
<text text-anchor="middle" x="227" y="-46" font-family="Helvetica,sans-Serif" font-size="10.00" fill="#000000">_face_from_two_edges</text>
</a>
</g>
</g>
<!-- Node116&#45;&gt;Node126 -->
<g id="edge10" class="edge">
<title>Node116&#45;&gt;Node126</title>
<path fill="none" stroke="#191970" d="M76.6692,-156.5451C94.4475,-135.6234 126.7795,-100.6793 161,-79 166.8998,-75.2624 173.4444,-71.9498 180.0541,-69.0582"/>
<polygon fill="#191970" stroke="#191970" points="73.8997,-154.4013 70.1828,-164.3228 79.2755,-158.8847 73.8997,-154.4013"/>
</g>
<!-- Node129 -->
<g id="node14" class="node">
<title>Node129</title>
<g id="a_node14"><a xlink:href="namespacetethex.html#afd9ddbb6ed7cbe8a0e8505e7960b0e0a" target="_top" xlink:title="Since all mesh elements are derived from one base MeshElement class, we can use one procedure to trea...">
<polygon fill="#ffffff" stroke="#000000" points="169,-.5 169,-19.5 285,-19.5 285,-.5 169,-.5"/>
<text text-anchor="middle" x="227" y="-7.5" font-family="Helvetica,sans-Serif" font-size="10.00" fill="#000000">tethex::write_elements</text>
</a>
</g>
</g>
<!-- Node116&#45;&gt;Node129 -->
<g id="edge14" class="edge">
<title>Node116&#45;&gt;Node129</title>
<path fill="none" stroke="#191970" d="M70.2914,-154.8444C83.9463,-123.6962 115.1743,-62.2158 161,-29 166.3099,-25.1512 172.3846,-22.0793 178.6504,-19.6279"/>
<polygon fill="#191970" stroke="#191970" points="67.0227,-153.5875 66.3386,-164.1602 73.4666,-156.3217 67.0227,-153.5875"/>
</g>
<!-- Node118 -->
<g id="node3" class="node">
<title>Node118</title>
<g id="a_node3"><a xlink:href="main_8cpp.html#a0ddf1224851353fc92bfbff6f499fa97" target="_top" xlink:title="Entry point of RiverSim program. ">
<polygon fill="#ffffff" stroke="#000000" points="366,-333.5 366,-352.5 404,-352.5 404,-333.5 366,-333.5"/>
<text text-anchor="middle" x="385" y="-340.5" font-family="Helvetica,sans-Serif" font-size="10.00" fill="#000000">main</text>
</a>
</g>
</g>
<!-- Node117&#45;&gt;Node118 -->
<g id="edge2" class="edge">
<title>Node117&#45;&gt;Node118</title>
<path fill="none" stroke="#191970" d="M303.366,-343C326.6154,-343 350.1692,-343 365.9612,-343"/>
<polygon fill="#191970" stroke="#191970" points="303.0908,-339.5001 293.0907,-343 303.0907,-346.5001 303.0908,-339.5001"/>
</g>
<!-- Node124 -->
<g id="node9" class="node">
<title>Node124</title>
<g id="a_node9"><a xlink:href="classtethex_1_1Mesh.html#aaa882d21498571cbd84d4f7129fd6e32" target="_top" xlink:title="Conversion from simplices to bricks. ">
<polygon fill="#ffffff" stroke="#000000" points="643,-90.5 643,-109.5 755,-109.5 755,-90.5 643,-90.5"/>
<text text-anchor="middle" x="699" y="-97.5" font-family="Helvetica,sans-Serif" font-size="10.00" fill="#000000">tethex::Mesh::convert</text>
</a>
</g>
</g>
<!-- Node123&#45;&gt;Node124 -->
<g id="edge8" class="edge">
<title>Node123&#45;&gt;Node124</title>
<path fill="none" stroke="#191970" d="M608.4401,-117.8813C622.6202,-115.0814 637.3381,-112.1753 650.6832,-109.5403"/>
<polygon fill="#191970" stroke="#191970" points="607.3697,-114.5249 598.2372,-119.8958 608.7258,-121.3924 607.3697,-114.5249"/>
</g>
<!-- Node127 -->
<g id="node12" class="node">
<title>Node127</title>
<g id="a_node12"><a xlink:href="classtethex_1_1Mesh.html#ab739c5e4bbb1c3461a068c2104eab52e" target="_top" xlink:title="Conversion from triangles to quadrangles. ">
<polygon fill="#ffffff" stroke="#000000" points="329,-44 329,-74 441,-74 441,-44 329,-44"/>
<text text-anchor="start" x="337" y="-62" font-family="Helvetica,sans-Serif" font-size="10.00" fill="#000000">tethex::Mesh::convert</text>
<text text-anchor="middle" x="385" y="-51" font-family="Helvetica,sans-Serif" font-size="10.00" fill="#000000">_triangles</text>
</a>
</g>
</g>
<!-- Node126&#45;&gt;Node127 -->
<g id="edge11" class="edge">
<title>Node126&#45;&gt;Node127</title>
<path fill="none" stroke="#191970" d="M296.5255,-56.2002C307.313,-56.5415 318.3396,-56.8905 328.785,-57.221"/>
<polygon fill="#191970" stroke="#191970" points="296.3886,-52.6942 286.2829,-55.876 296.1672,-59.6907 296.3886,-52.6942"/>
</g>
<!-- Node128 -->
<g id="node13" class="node">
<title>Node128</title>
<g id="a_node13"><a xlink:href="classtethex_1_1Mesh.html#adb803e48ce7101318531730a512ecbc8" target="_top" xlink:title="Conversion of 2D meshes (triangles &#45;&gt; quadrangles) ">
<polygon fill="#ffffff" stroke="#000000" points="477,-68.5 477,-87.5 607,-87.5 607,-68.5 477,-68.5"/>
<text text-anchor="middle" x="542" y="-75.5" font-family="Helvetica,sans-Serif" font-size="10.00" fill="#000000">tethex::Mesh::convert_2D</text>
</a>
</g>
</g>
<!-- Node127&#45;&gt;Node128 -->
<g id="edge12" class="edge">
<title>Node127&#45;&gt;Node128</title>
<path fill="none" stroke="#191970" d="M451.3808,-67.0333C459.7962,-68.0518 468.402,-69.0932 476.7987,-70.1094"/>
<polygon fill="#191970" stroke="#191970" points="451.5852,-63.5326 441.2372,-65.8058 450.7442,-70.4819 451.5852,-63.5326"/>
</g>
<!-- Node128&#45;&gt;Node124 -->
<g id="edge13" class="edge">
<title>Node128&#45;&gt;Node124</title>
<path fill="none" stroke="#191970" d="M617.2433,-88.5436C625.8245,-89.7461 634.4576,-90.9558 642.7317,-92.1153"/>
<polygon fill="#191970" stroke="#191970" points="617.6072,-85.0605 607.2182,-87.1389 616.6357,-91.9928 617.6072,-85.0605"/>
</g>
<!-- Node130 -->
<g id="node15" class="node">
<title>Node130</title>
<g id="a_node15"><a xlink:href="classtethex_1_1Mesh.html#a209c3153eb17d86e8fe320369b2dfe09" target="_top" xlink:title="Write the resulting brick mesh into the file. ">
<polygon fill="#ffffff" stroke="#000000" points="334.5,-.5 334.5,-19.5 435.5,-19.5 435.5,-.5 334.5,-.5"/>
<text text-anchor="middle" x="385" y="-7.5" font-family="Helvetica,sans-Serif" font-size="10.00" fill="#000000">tethex::Mesh::write</text>
</a>
</g>
</g>
<!-- Node129&#45;&gt;Node130 -->
<g id="edge15" class="edge">
<title>Node129&#45;&gt;Node130</title>
<path fill="none" stroke="#191970" d="M295.7007,-10C308.6995,-10 322.0769,-10 334.3924,-10"/>
<polygon fill="#191970" stroke="#191970" points="295.3845,-6.5001 285.3845,-10 295.3844,-13.5001 295.3845,-6.5001"/>
</g>
</g>
</svg>
