<?xml version="1.0" encoding="UTF-8" standalone="no"?>
<!DOCTYPE svg PUBLIC "-//W3C//DTD SVG 1.1//EN"
 "http://www.w3.org/Graphics/SVG/1.1/DTD/svg11.dtd">
<!-- Generated by graphviz version 2.40.1 (20161225.0304)
 -->
<!-- Title: tethex::Mesh::get_point Pages: 1 -->
<svg width="284pt" height="66pt"
 viewBox="0.00 0.00 284.00 66.00" xmlns="http://www.w3.org/2000/svg" xmlns:xlink="http://www.w3.org/1999/xlink">
<g id="graph0" class="graph" transform="scale(1 1) rotate(0) translate(4 62)">
<title>tethex::Mesh::get_point</title>
<polygon fill="#ffffff" stroke="transparent" points="-4,4 -4,-62 280,-62 280,4 -4,4"/>
<!-- Node118 -->
<g id="node1" class="node">
<title>Node118</title>
<polygon fill="#bfbfbf" stroke="#000000" points="0,-19.5 0,-38.5 119,-38.5 119,-19.5 0,-19.5"/>
<text text-anchor="middle" x="59.5" y="-26.5" font-family="Helvetica,sans-Serif" font-size="10.00" fill="#000000">tethex::Mesh::get_point</text>
</g>
<!-- Node119 -->
<g id="node2" class="node">
<title>Node119</title>
<g id="a_node2"><a xlink:href="classtethex_1_1Mesh.html#af7abffd9bc4bd64eb2f4cdd4aaf7fbe3" target="_top" xlink:title="tethex::Mesh::Mesh">
<polygon fill="#ffffff" stroke="#000000" points="163.5,-38.5 163.5,-57.5 267.5,-57.5 267.5,-38.5 163.5,-38.5"/>
<text text-anchor="middle" x="215.5" y="-45.5" font-family="Helvetica,sans-Serif" font-size="10.00" fill="#000000">tethex::Mesh::Mesh</text>
</a>
</g>
</g>
<!-- Node118&#45;&gt;Node119 -->
<g id="edge1" class="edge">
<title>Node118&#45;&gt;Node119</title>
<path fill="none" stroke="#191970" d="M129.3488,-37.5072C140.8049,-38.9025 152.4982,-40.3267 163.4255,-41.6576"/>
<polygon fill="#191970" stroke="#191970" points="129.7174,-34.0263 119.3675,-36.2916 128.871,-40.975 129.7174,-34.0263"/>
</g>
<!-- Node120 -->
<g id="node3" class="node">
<title>Node120</title>
<g id="a_node3"><a xlink:href="classtethex_1_1Mesh.html#af992d5d2e64047656766e4afcbc95b8b" target="_top" xlink:title="tethex::Mesh::operator=">
<polygon fill="#ffffff" stroke="#000000" points="155,-.5 155,-19.5 276,-19.5 276,-.5 155,-.5"/>
<text text-anchor="middle" x="215.5" y="-7.5" font-family="Helvetica,sans-Serif" font-size="10.00" fill="#000000">tethex::Mesh::operator=</text>
</a>
</g>
</g>
<!-- Node118&#45;&gt;Node120 -->
<g id="edge2" class="edge">
<title>Node118&#45;&gt;Node120</title>
<path fill="none" stroke="#191970" d="M129.5419,-20.4693C137.9557,-19.4445 146.4943,-18.4045 154.7606,-17.3977"/>
<polygon fill="#191970" stroke="#191970" points="128.871,-17.025 119.3675,-21.7084 129.7174,-23.9737 128.871,-17.025"/>
</g>
</g>
</svg>
