<?xml version="1.0" encoding="UTF-8" standalone="no"?>
<!DOCTYPE svg PUBLIC "-//W3C//DTD SVG 1.1//EN"
 "http://www.w3.org/Graphics/SVG/1.1/DTD/svg11.dtd">
<!-- Generated by graphviz version 2.40.1 (20161225.0304)
 -->
<!-- Title: River::GeomPolar Pages: 1 -->
<svg width="209pt" height="320pt"
 viewBox="0.00 0.00 208.50 320.00" xmlns="http://www.w3.org/2000/svg" xmlns:xlink="http://www.w3.org/1999/xlink">
<g id="graph0" class="graph" transform="scale(1 1) rotate(0) translate(4 316)">
<title>River::GeomPolar</title>
<polygon fill="#ffffff" stroke="transparent" points="-4,4 -4,-316 204.5,-316 204.5,4 -4,4"/>
<!-- Node2 -->
<g id="node1" class="node">
<title>Node2</title>
<polygon fill="#bfbfbf" stroke="#000000" points="64,-.5 64,-68.5 159,-68.5 159,-.5 64,-.5"/>
<text text-anchor="middle" x="111.5" y="-56.5" font-family="Helvetica,sans-Serif" font-size="10.00" fill="#000000">River::GeomPolar</text>
<polyline fill="none" stroke="#000000" points="64,-49.5 159,-49.5 "/>
<text text-anchor="middle" x="111.5" y="-37.5" font-family="Helvetica,sans-Serif" font-size="10.00" fill="#000000"> </text>
<polyline fill="none" stroke="#000000" points="64,-30.5 159,-30.5 "/>
<text text-anchor="start" x="72" y="-18.5" font-family="Helvetica,sans-Serif" font-size="10.00" fill="#000000">+ GeomPolar()</text>
<text text-anchor="start" x="72" y="-7.5" font-family="Helvetica,sans-Serif" font-size="10.00" fill="#000000">+ GeomPolar()</text>
</g>
<!-- Node3 -->
<g id="node2" class="node">
<title>Node3</title>
<g id="a_node2"><a xlink:href="classRiver_1_1Polar.html" target="_top" xlink:title="{River::Polar\n||+ Polar()\l+ Polar()\l}">
<polygon fill="#ffffff" stroke="#000000" points="77.5,-127.5 77.5,-195.5 145.5,-195.5 145.5,-127.5 77.5,-127.5"/>
<text text-anchor="middle" x="111.5" y="-183.5" font-family="Helvetica,sans-Serif" font-size="10.00" fill="#000000">River::Polar</text>
<polyline fill="none" stroke="#000000" points="77.5,-176.5 145.5,-176.5 "/>
<text text-anchor="middle" x="111.5" y="-164.5" font-family="Helvetica,sans-Serif" font-size="10.00" fill="#000000"> </text>
<polyline fill="none" stroke="#000000" points="77.5,-157.5 145.5,-157.5 "/>
<text text-anchor="start" x="85.5" y="-145.5" font-family="Helvetica,sans-Serif" font-size="10.00" fill="#000000">+ Polar()</text>
<text text-anchor="start" x="85.5" y="-134.5" font-family="Helvetica,sans-Serif" font-size="10.00" fill="#000000">+ Polar()</text>
</a>
</g>
</g>
<!-- Node3&#45;&gt;Node2 -->
<g id="edge1" class="edge">
<title>Node3&#45;&gt;Node2</title>
<path fill="none" stroke="#191970" d="M111.5,-117.289C111.5,-101.3353 111.5,-83.5868 111.5,-68.6276"/>
<polygon fill="none" stroke="#191970" points="108.0001,-117.4663 111.5,-127.4663 115.0001,-117.4664 108.0001,-117.4663"/>
</g>
<!-- Node4 -->
<g id="node3" class="node">
<title>Node4</title>
<polygon fill="#ffffff" stroke="#bfbfbf" points="0,-254.5 0,-311.5 45,-311.5 45,-254.5 0,-254.5"/>
<text text-anchor="middle" x="22.5" y="-299.5" font-family="Helvetica,sans-Serif" font-size="10.00" fill="#000000">double</text>
<polyline fill="none" stroke="#bfbfbf" points="0,-292.5 45,-292.5 "/>
<text text-anchor="middle" x="22.5" y="-280.5" font-family="Helvetica,sans-Serif" font-size="10.00" fill="#000000"> </text>
<polyline fill="none" stroke="#bfbfbf" points="0,-273.5 45,-273.5 "/>
<text text-anchor="middle" x="22.5" y="-261.5" font-family="Helvetica,sans-Serif" font-size="10.00" fill="#000000"> </text>
</g>
<!-- Node4&#45;&gt;Node2 -->
<g id="edge3" class="edge">
<title>Node4&#45;&gt;Node2</title>
<path fill="none" stroke="#404040" d="M14.0558,-254.3624C6.1126,-222.0355 -2.1604,-168.541 15.5,-127 23.94,-107.1472 38.9601,-89.4889 54.6499,-75.0588"/>
<polygon fill="none" stroke="#404040" points="54.8914,-74.8475 56.7713,-67.8857 63.9206,-66.9434 62.0407,-73.9052 54.8914,-74.8475"/>
<text text-anchor="middle" x="42" y="-159" font-family="Helvetica,sans-Serif" font-size="10.00" fill="#000000"> +meshSize</text>
</g>
<!-- Node4&#45;&gt;Node3 -->
<g id="edge2" class="edge">
<title>Node4&#45;&gt;Node3</title>
<path fill="none" stroke="#404040" d="M43.5918,-254.2062C54.2339,-239.6779 67.3729,-221.741 79.2495,-205.5274"/>
<polygon fill="none" stroke="#404040" points="79.3564,-205.3814 79.6751,-198.1773 86.4476,-195.7007 86.1289,-202.9048 79.3564,-205.3814"/>
<text text-anchor="middle" x="83.5" y="-228" font-family="Helvetica,sans-Serif" font-size="10.00" fill="#000000"> +phi</text>
<text text-anchor="middle" x="83.5" y="-217" font-family="Helvetica,sans-Serif" font-size="10.00" fill="#000000">+r</text>
</g>
<!-- Node5 -->
<g id="node4" class="node">
<title>Node5</title>
<polygon fill="#ffffff" stroke="#bfbfbf" points="164,-133 164,-190 193,-190 193,-133 164,-133"/>
<text text-anchor="middle" x="178.5" y="-178" font-family="Helvetica,sans-Serif" font-size="10.00" fill="#000000">int</text>
<polyline fill="none" stroke="#bfbfbf" points="164,-171 193,-171 "/>
<text text-anchor="middle" x="178.5" y="-159" font-family="Helvetica,sans-Serif" font-size="10.00" fill="#000000"> </text>
<polyline fill="none" stroke="#bfbfbf" points="164,-152 193,-152 "/>
<text text-anchor="middle" x="178.5" y="-140" font-family="Helvetica,sans-Serif" font-size="10.00" fill="#000000"> </text>
</g>
<!-- Node5&#45;&gt;Node2 -->
<g id="edge4" class="edge">
<title>Node5&#45;&gt;Node2</title>
<path fill="none" stroke="#404040" d="M163.962,-133.9429C155.5722,-118.0398 144.8164,-97.652 135.2303,-79.4813"/>
<polygon fill="none" stroke="#404040" points="135.196,-79.4162 128.8585,-75.9759 129.5967,-68.8027 135.9342,-72.243 135.196,-79.4162"/>
<text text-anchor="middle" x="174.5" y="-101" font-family="Helvetica,sans-Serif" font-size="10.00" fill="#000000"> +regionTag</text>
<text text-anchor="middle" x="174.5" y="-90" font-family="Helvetica,sans-Serif" font-size="10.00" fill="#000000">+branchId</text>
</g>
</g>
</svg>
