<?xml version="1.0" encoding="UTF-8" standalone="no"?>
<!DOCTYPE svg PUBLIC "-//W3C//DTD SVG 1.1//EN"
 "http://www.w3.org/Graphics/SVG/1.1/DTD/svg11.dtd">
<!-- Generated by graphviz version 2.40.1 (20161225.0304)
 -->
<!-- Title: nlohmann::basic_json::from_msgpack Pages: 1 -->
<svg width="601pt" height="39pt"
 viewBox="0.00 0.00 601.00 39.00" xmlns="http://www.w3.org/2000/svg" xmlns:xlink="http://www.w3.org/1999/xlink">
<g id="graph0" class="graph" transform="scale(1 1) rotate(0) translate(4 35)">
<title>nlohmann::basic_json::from_msgpack</title>
<polygon fill="#ffffff" stroke="transparent" points="-4,4 -4,-35 597,-35 597,4 -4,4"/>
<!-- Node506 -->
<g id="node1" class="node">
<title>Node506</title>
<polygon fill="#bfbfbf" stroke="#000000" points="0,-.5 0,-30.5 111,-30.5 111,-.5 0,-.5"/>
<text text-anchor="start" x="8" y="-18.5" font-family="Helvetica,sans-Serif" font-size="10.00" fill="#000000">nlohmann::basic_json</text>
<text text-anchor="middle" x="55.5" y="-7.5" font-family="Helvetica,sans-Serif" font-size="10.00" fill="#000000">::from_msgpack</text>
</g>
<!-- Node507 -->
<g id="node2" class="node">
<title>Node507</title>
<g id="a_node2"><a xlink:href="classnlohmann_1_1detail_1_1binary__reader.html#ab94a54d6e595c2620b07589cf4116256" target="_top" xlink:title="nlohmann::detail::binary\l_reader::sax_parse">
<polygon fill="#ffffff" stroke="#000000" points="147,-.5 147,-30.5 267,-30.5 267,-.5 147,-.5"/>
<text text-anchor="start" x="155" y="-18.5" font-family="Helvetica,sans-Serif" font-size="10.00" fill="#000000">nlohmann::detail::binary</text>
<text text-anchor="middle" x="207" y="-7.5" font-family="Helvetica,sans-Serif" font-size="10.00" fill="#000000">_reader::sax_parse</text>
</a>
</g>
</g>
<!-- Node506&#45;&gt;Node507 -->
<g id="edge1" class="edge">
<title>Node506&#45;&gt;Node507</title>
<path fill="none" stroke="#191970" d="M111.0527,-15.5C119.4291,-15.5 128.1608,-15.5 136.796,-15.5"/>
<polygon fill="#191970" stroke="#191970" points="136.8614,-19.0001 146.8614,-15.5 136.8613,-12.0001 136.8614,-19.0001"/>
</g>
<!-- Node508 -->
<g id="node3" class="node">
<title>Node508</title>
<g id="a_node3"><a xlink:href="classnlohmann_1_1detail_1_1parse__error.html#a137ea4d27de45d8a844fd13451d40f3d" target="_top" xlink:title="create a parse error exception ">
<polygon fill="#ffffff" stroke="#000000" points="303,-.5 303,-30.5 421,-30.5 421,-.5 303,-.5"/>
<text text-anchor="start" x="311" y="-18.5" font-family="Helvetica,sans-Serif" font-size="10.00" fill="#000000">nlohmann::detail::parse</text>
<text text-anchor="middle" x="362" y="-7.5" font-family="Helvetica,sans-Serif" font-size="10.00" fill="#000000">_error::create</text>
</a>
</g>
</g>
<!-- Node507&#45;&gt;Node508 -->
<g id="edge2" class="edge">
<title>Node507&#45;&gt;Node508</title>
<path fill="none" stroke="#191970" d="M267.3709,-15.5C275.65,-15.5 284.2037,-15.5 292.6278,-15.5"/>
<polygon fill="#191970" stroke="#191970" points="292.8121,-19.0001 302.812,-15.5 292.812,-12.0001 292.8121,-19.0001"/>
</g>
<!-- Node509 -->
<g id="node4" class="node">
<title>Node509</title>
<g id="a_node4"><a xlink:href="classnlohmann_1_1detail_1_1exception.html#abf41a7e9178356314082284e6cfea278" target="_top" xlink:title="nlohmann::detail::exception\l::name">
<polygon fill="#ffffff" stroke="#000000" points="457,-.5 457,-30.5 593,-30.5 593,-.5 457,-.5"/>
<text text-anchor="start" x="465" y="-18.5" font-family="Helvetica,sans-Serif" font-size="10.00" fill="#000000">nlohmann::detail::exception</text>
<text text-anchor="middle" x="525" y="-7.5" font-family="Helvetica,sans-Serif" font-size="10.00" fill="#000000">::name</text>
</a>
</g>
</g>
<!-- Node508&#45;&gt;Node509 -->
<g id="edge3" class="edge">
<title>Node508&#45;&gt;Node509</title>
<path fill="none" stroke="#191970" d="M421.3078,-15.5C429.6169,-15.5 438.259,-15.5 446.8515,-15.5"/>
<polygon fill="#191970" stroke="#191970" points="446.8924,-19.0001 456.8924,-15.5 446.8924,-12.0001 446.8924,-19.0001"/>
</g>
</g>
</svg>
