<?xml version="1.0" encoding="UTF-8" standalone="no"?>
<!DOCTYPE svg PUBLIC "-//W3C//DTD SVG 1.1//EN"
 "http://www.w3.org/Graphics/SVG/1.1/DTD/svg11.dtd">
<!-- Generated by graphviz version 2.40.1 (20161225.0304)
 -->
<!-- Title: River::Border::CloseSources Pages: 1 -->
<svg width="588pt" height="253pt"
 viewBox="0.00 0.00 588.00 252.50" xmlns="http://www.w3.org/2000/svg" xmlns:xlink="http://www.w3.org/1999/xlink">
<g id="graph0" class="graph" transform="scale(1 1) rotate(0) translate(4 248.5)">
<title>River::Border::CloseSources</title>
<polygon fill="#ffffff" stroke="transparent" points="-4,4 -4,-248.5 584,-248.5 584,4 -4,4"/>
<!-- Node10 -->
<g id="node1" class="node">
<title>Node10</title>
<polygon fill="#bfbfbf" stroke="#000000" points="0,-99 0,-118 142,-118 142,-99 0,-99"/>
<text text-anchor="middle" x="71" y="-106" font-family="Helvetica,sans-Serif" font-size="10.00" fill="#000000">River::Border::CloseSources</text>
</g>
<!-- Node11 -->
<g id="node2" class="node">
<title>Node11</title>
<g id="a_node2"><a xlink:href="classRiver_1_1Border.html#ae11520725faf327360db442782a8b036" target="_top" xlink:title="Returns vector of sources ids. ">
<polygon fill="#ffffff" stroke="#000000" points="178,-187 178,-206 318,-206 318,-187 178,-187"/>
<text text-anchor="middle" x="248" y="-194" font-family="Helvetica,sans-Serif" font-size="10.00" fill="#000000">River::Border::GetSourcesId</text>
</a>
</g>
</g>
<!-- Node10&#45;&gt;Node11 -->
<g id="edge1" class="edge">
<title>Node10&#45;&gt;Node11</title>
<path fill="none" stroke="#191970" d="M90.279,-118.0851C121.5336,-133.624 183.4107,-164.3878 219.6762,-182.4181"/>
<polygon fill="#191970" stroke="#191970" points="218.2322,-185.6088 228.7447,-186.9268 221.3485,-179.3408 218.2322,-185.6088"/>
</g>
<!-- Node14 -->
<g id="node5" class="node">
<title>Node14</title>
<g id="a_node5"><a xlink:href="classRiver_1_1Border.html#acf71aa49ddf1244f1aba474fe0457eba" target="_top" xlink:title="Return source poinst indexes(each source consist of two points at distance eps) ">
<polygon fill="#ffffff" stroke="#000000" points="184.5,-93.5 184.5,-123.5 311.5,-123.5 311.5,-93.5 184.5,-93.5"/>
<text text-anchor="start" x="192.5" y="-111.5" font-family="Helvetica,sans-Serif" font-size="10.00" fill="#000000">River::Border::GetSource</text>
<text text-anchor="middle" x="248" y="-100.5" font-family="Helvetica,sans-Serif" font-size="10.00" fill="#000000">VerticesIndexById</text>
</a>
</g>
</g>
<!-- Node10&#45;&gt;Node14 -->
<g id="edge4" class="edge">
<title>Node10&#45;&gt;Node14</title>
<path fill="none" stroke="#191970" d="M142.2276,-108.5C152.7831,-108.5 163.6797,-108.5 174.2848,-108.5"/>
<polygon fill="#191970" stroke="#191970" points="174.3427,-112.0001 184.3427,-108.5 174.3426,-105.0001 174.3427,-112.0001"/>
</g>
<!-- Node20 -->
<g id="node11" class="node">
<title>Node20</title>
<g id="a_node11"><a xlink:href="classtethex_1_1Mesh.html#ad779a1d2d8c8d5c8ecfd91d0e19d87a7" target="_top" xlink:title="tethex::Mesh::append\l_lines">
<polygon fill="#ffffff" stroke="#000000" points="192.5,-44.5 192.5,-74.5 303.5,-74.5 303.5,-44.5 192.5,-44.5"/>
<text text-anchor="start" x="200.5" y="-62.5" font-family="Helvetica,sans-Serif" font-size="10.00" fill="#000000">tethex::Mesh::append</text>
<text text-anchor="middle" x="248" y="-51.5" font-family="Helvetica,sans-Serif" font-size="10.00" fill="#000000">_lines</text>
</a>
</g>
</g>
<!-- Node10&#45;&gt;Node20 -->
<g id="edge11" class="edge">
<title>Node10&#45;&gt;Node20</title>
<path fill="none" stroke="#191970" d="M105.5476,-98.936C127.7606,-92.7866 157.3067,-84.6072 183.7303,-77.2922"/>
<polygon fill="#191970" stroke="#191970" points="184.9791,-80.5782 193.6828,-74.537 183.1115,-73.8319 184.9791,-80.5782"/>
</g>
<!-- Node12 -->
<g id="node3" class="node">
<title>Node12</title>
<g id="a_node3"><a xlink:href="classtethex_1_1Mesh.html#a9fefc160a592f20226064d1b03b3a14d" target="_top" xlink:title="tethex::Mesh::get_points">
<polygon fill="#ffffff" stroke="#000000" points="354,-225 354,-244 479,-244 479,-225 354,-225"/>
<text text-anchor="middle" x="416.5" y="-232" font-family="Helvetica,sans-Serif" font-size="10.00" fill="#000000">tethex::Mesh::get_points</text>
</a>
</g>
</g>
<!-- Node11&#45;&gt;Node12 -->
<g id="edge2" class="edge">
<title>Node11&#45;&gt;Node12</title>
<path fill="none" stroke="#191970" d="M290.5197,-206.089C312.9554,-211.1487 340.6732,-217.3996 364.3925,-222.7488"/>
<polygon fill="#191970" stroke="#191970" points="363.7611,-226.1942 374.2861,-224.9799 365.3011,-219.3657 363.7611,-226.1942"/>
</g>
<!-- Node13 -->
<g id="node4" class="node">
<title>Node13</title>
<g id="a_node4"><a xlink:href="classRiver_1_1Border.html#a953fd3059a1d32edc34eefbc1ed1ae66" target="_top" xlink:title="Checks if point id value represents source. ">
<polygon fill="#ffffff" stroke="#000000" points="357,-187 357,-206 476,-206 476,-187 357,-187"/>
<text text-anchor="middle" x="416.5" y="-194" font-family="Helvetica,sans-Serif" font-size="10.00" fill="#000000">River::Border::IsSource</text>
</a>
</g>
</g>
<!-- Node11&#45;&gt;Node13 -->
<g id="edge3" class="edge">
<title>Node11&#45;&gt;Node13</title>
<path fill="none" stroke="#191970" d="M318.4829,-196.5C327.8872,-196.5 337.5267,-196.5 346.9156,-196.5"/>
<polygon fill="#191970" stroke="#191970" points="346.9821,-200.0001 356.9821,-196.5 346.982,-193.0001 346.9821,-200.0001"/>
</g>
<!-- Node15 -->
<g id="node6" class="node">
<title>Node15</title>
<g id="a_node6"><a xlink:href="classtethex_1_1Mesh.html#a77dc945a9f65b5b1d41e39ec8d06adb8" target="_top" xlink:title="tethex::Mesh::get_n\l_points">
<polygon fill="#ffffff" stroke="#000000" points="364.5,-137.5 364.5,-167.5 468.5,-167.5 468.5,-137.5 364.5,-137.5"/>
<text text-anchor="start" x="372.5" y="-155.5" font-family="Helvetica,sans-Serif" font-size="10.00" fill="#000000">tethex::Mesh::get_n</text>
<text text-anchor="middle" x="416.5" y="-144.5" font-family="Helvetica,sans-Serif" font-size="10.00" fill="#000000">_points</text>
</a>
</g>
</g>
<!-- Node14&#45;&gt;Node15 -->
<g id="edge5" class="edge">
<title>Node14&#45;&gt;Node15</title>
<path fill="none" stroke="#191970" d="M305.5169,-123.5192C321.3073,-127.6425 338.4953,-132.1308 354.5245,-136.3165"/>
<polygon fill="#191970" stroke="#191970" points="353.7724,-139.7374 364.3323,-138.8776 355.5411,-132.9645 353.7724,-139.7374"/>
</g>
<!-- Node16 -->
<g id="node7" class="node">
<title>Node16</title>
<g id="a_node7"><a xlink:href="classtethex_1_1Mesh.html#a662e5df32c04d894bbc9598d3fe4d3f0" target="_top" xlink:title="tethex::Mesh::get_point">
<polygon fill="#ffffff" stroke="#000000" points="357,-99 357,-118 476,-118 476,-99 357,-99"/>
<text text-anchor="middle" x="416.5" y="-106" font-family="Helvetica,sans-Serif" font-size="10.00" fill="#000000">tethex::Mesh::get_point</text>
</a>
</g>
</g>
<!-- Node14&#45;&gt;Node16 -->
<g id="edge6" class="edge">
<title>Node14&#45;&gt;Node16</title>
<path fill="none" stroke="#191970" d="M311.7026,-108.5C323.1635,-108.5 335.1647,-108.5 346.7854,-108.5"/>
<polygon fill="#191970" stroke="#191970" points="346.8765,-112.0001 356.8765,-108.5 346.8764,-105.0001 346.8765,-112.0001"/>
</g>
<!-- Node18 -->
<g id="node9" class="node">
<title>Node18</title>
<g id="a_node9"><a xlink:href="classtethex_1_1MeshElement.html#a44ac13c3270bbf9d70c7e0ea85809979" target="_top" xlink:title="tethex::MeshElement\l::get_material_id">
<polygon fill="#ffffff" stroke="#000000" points="361.5,-49.5 361.5,-79.5 471.5,-79.5 471.5,-49.5 361.5,-49.5"/>
<text text-anchor="start" x="369.5" y="-67.5" font-family="Helvetica,sans-Serif" font-size="10.00" fill="#000000">tethex::MeshElement</text>
<text text-anchor="middle" x="416.5" y="-56.5" font-family="Helvetica,sans-Serif" font-size="10.00" fill="#000000">::get_material_id</text>
</a>
</g>
</g>
<!-- Node14&#45;&gt;Node18 -->
<g id="edge8" class="edge">
<title>Node14&#45;&gt;Node18</title>
<path fill="none" stroke="#191970" d="M305.5169,-93.4808C320.298,-89.621 336.3039,-85.4414 351.4375,-81.4896"/>
<polygon fill="#191970" stroke="#191970" points="352.4435,-84.8444 361.2347,-78.9313 350.6749,-78.0715 352.4435,-84.8444"/>
</g>
<!-- Node19 -->
<g id="node10" class="node">
<title>Node19</title>
<g id="a_node10"><a xlink:href="classtethex_1_1MeshElement.html#aed911a47266af4848f1e8bdd0c89e177" target="_top" xlink:title="tethex::MeshElement\l::get_vertex">
<polygon fill="#ffffff" stroke="#000000" points="361.5,-.5 361.5,-30.5 471.5,-30.5 471.5,-.5 361.5,-.5"/>
<text text-anchor="start" x="369.5" y="-18.5" font-family="Helvetica,sans-Serif" font-size="10.00" fill="#000000">tethex::MeshElement</text>
<text text-anchor="middle" x="416.5" y="-7.5" font-family="Helvetica,sans-Serif" font-size="10.00" fill="#000000">::get_vertex</text>
</a>
</g>
</g>
<!-- Node14&#45;&gt;Node19 -->
<g id="edge9" class="edge">
<title>Node14&#45;&gt;Node19</title>
<path fill="none" stroke="#191970" d="M302.275,-93.4117C307.8105,-90.8544 313.1669,-87.9009 318,-84.5 338.9465,-69.7608 333.3247,-54.6173 354,-39.5 355.8677,-38.1344 357.8229,-36.836 359.8406,-35.6027"/>
<polygon fill="#191970" stroke="#191970" points="361.9048,-38.4638 369.0106,-30.6051 358.555,-32.3173 361.9048,-38.4638"/>
</g>
<!-- Node17 -->
<g id="node8" class="node">
<title>Node17</title>
<g id="a_node8"><a xlink:href="namespacetethex.html#a31a6ad16911dd58abefe17ab46534aa4" target="_top" xlink:title="tethex::d2s">
<polygon fill="#ffffff" stroke="#000000" points="515,-52 515,-71 580,-71 580,-52 515,-52"/>
<text text-anchor="middle" x="547.5" y="-59" font-family="Helvetica,sans-Serif" font-size="10.00" fill="#000000">tethex::d2s</text>
</a>
</g>
</g>
<!-- Node16&#45;&gt;Node17 -->
<g id="edge7" class="edge">
<title>Node16&#45;&gt;Node17</title>
<path fill="none" stroke="#191970" d="M450.0965,-98.9128C459.5072,-96.0581 469.7034,-92.8051 479,-89.5 491.2944,-85.1292 504.6152,-79.8194 516.2129,-75.0036"/>
<polygon fill="#191970" stroke="#191970" points="517.6258,-78.2064 525.4894,-71.106 514.9143,-71.7529 517.6258,-78.2064"/>
</g>
<!-- Node19&#45;&gt;Node17 -->
<g id="edge10" class="edge">
<title>Node19&#45;&gt;Node17</title>
<path fill="none" stroke="#191970" d="M459.3943,-30.5621C475.9551,-36.3774 494.7135,-42.9643 510.6526,-48.5612"/>
<polygon fill="#191970" stroke="#191970" points="509.5729,-51.8915 520.1677,-51.9024 511.8921,-45.2869 509.5729,-51.8915"/>
</g>
</g>
</svg>
