<?xml version="1.0" encoding="UTF-8" standalone="no"?>
<!DOCTYPE svg PUBLIC "-//W3C//DTD SVG 1.1//EN"
 "http://www.w3.org/Graphics/SVG/1.1/DTD/svg11.dtd">
<!-- Generated by graphviz version 2.40.1 (20161225.0304)
 -->
<!-- Title: nlohmann::detail::wide_string_input_adapter&lt; WideStringType &gt; Pages: 1 -->
<svg width="496pt" height="259pt"
 viewBox="0.00 0.00 496.00 259.00" xmlns="http://www.w3.org/2000/svg" xmlns:xlink="http://www.w3.org/1999/xlink">
<g id="graph0" class="graph" transform="scale(1 1) rotate(0) translate(4 255)">
<title>nlohmann::detail::wide_string_input_adapter&lt; WideStringType &gt;</title>
<polygon fill="#ffffff" stroke="transparent" points="-4,4 -4,-255 492,-255 492,4 -4,4"/>
<!-- Node2 -->
<g id="node1" class="node">
<title>Node2</title>
<polygon fill="#bfbfbf" stroke="#000000" points="211.5,-.5 211.5,-101.5 356.5,-101.5 356.5,-.5 211.5,-.5"/>
<text text-anchor="start" x="219.5" y="-89.5" font-family="Helvetica,sans-Serif" font-size="10.00" fill="#000000">nlohmann::detail::wide</text>
<text text-anchor="start" x="219.5" y="-78.5" font-family="Helvetica,sans-Serif" font-size="10.00" fill="#000000">_string_input_adapter</text>
<text text-anchor="middle" x="284" y="-67.5" font-family="Helvetica,sans-Serif" font-size="10.00" fill="#000000">&lt; WideStringType &gt;</text>
<polyline fill="none" stroke="#000000" points="211.5,-60.5 356.5,-60.5 "/>
<text text-anchor="middle" x="284" y="-48.5" font-family="Helvetica,sans-Serif" font-size="10.00" fill="#000000"> </text>
<polyline fill="none" stroke="#000000" points="211.5,-41.5 356.5,-41.5 "/>
<text text-anchor="start" x="219.5" y="-29.5" font-family="Helvetica,sans-Serif" font-size="10.00" fill="#000000">+ wide_string_input_adapter()</text>
<text text-anchor="start" x="219.5" y="-18.5" font-family="Helvetica,sans-Serif" font-size="10.00" fill="#000000">+ get_character()</text>
<text text-anchor="start" x="219.5" y="-7.5" font-family="Helvetica,sans-Serif" font-size="10.00" fill="#000000">&#45; fill_buffer()</text>
</g>
<!-- Node3 -->
<g id="node2" class="node">
<title>Node3</title>
<g id="a_node2"><a xlink:href="structnlohmann_1_1detail_1_1input__adapter__protocol.html" target="_top" xlink:title="abstract input adapter interface ">
<polygon fill="#ffffff" stroke="#000000" points="0,-171.5 0,-250.5 136,-250.5 136,-171.5 0,-171.5"/>
<text text-anchor="start" x="8" y="-238.5" font-family="Helvetica,sans-Serif" font-size="10.00" fill="#000000">nlohmann::detail::input</text>
<text text-anchor="middle" x="68" y="-227.5" font-family="Helvetica,sans-Serif" font-size="10.00" fill="#000000">_adapter_protocol</text>
<polyline fill="none" stroke="#000000" points="0,-220.5 136,-220.5 "/>
<text text-anchor="middle" x="68" y="-208.5" font-family="Helvetica,sans-Serif" font-size="10.00" fill="#000000"> </text>
<polyline fill="none" stroke="#000000" points="0,-201.5 136,-201.5 "/>
<text text-anchor="start" x="8" y="-189.5" font-family="Helvetica,sans-Serif" font-size="10.00" fill="#000000">+ get_character()</text>
<text text-anchor="start" x="8" y="-178.5" font-family="Helvetica,sans-Serif" font-size="10.00" fill="#000000">+ ~input_adapter_protocol()</text>
</a>
</g>
</g>
<!-- Node3&#45;&gt;Node2 -->
<g id="edge1" class="edge">
<title>Node3&#45;&gt;Node2</title>
<path fill="none" stroke="#191970" d="M129.576,-165.3882C156.4643,-145.4709 188.0941,-122.0414 215.7026,-101.5907"/>
<polygon fill="none" stroke="#191970" points="127.3456,-162.6847 121.3933,-171.4494 131.5122,-168.3096 127.3456,-162.6847"/>
</g>
<!-- Node4 -->
<g id="node3" class="node">
<title>Node4</title>
<polygon fill="#ffffff" stroke="#bfbfbf" points="154.5,-182.5 154.5,-239.5 277.5,-239.5 277.5,-182.5 154.5,-182.5"/>
<text text-anchor="middle" x="216" y="-227.5" font-family="Helvetica,sans-Serif" font-size="10.00" fill="#000000">const WideStringType &amp;</text>
<polyline fill="none" stroke="#bfbfbf" points="154.5,-220.5 277.5,-220.5 "/>
<text text-anchor="middle" x="216" y="-208.5" font-family="Helvetica,sans-Serif" font-size="10.00" fill="#000000"> </text>
<polyline fill="none" stroke="#bfbfbf" points="154.5,-201.5 277.5,-201.5 "/>
<text text-anchor="middle" x="216" y="-189.5" font-family="Helvetica,sans-Serif" font-size="10.00" fill="#000000"> </text>
</g>
<!-- Node4&#45;&gt;Node2 -->
<g id="edge2" class="edge">
<title>Node4&#45;&gt;Node2</title>
<path fill="none" stroke="#404040" d="M228.157,-182.3952C236.3687,-163.0736 247.5284,-136.8156 257.7132,-112.8513"/>
<polygon fill="none" stroke="#404040" points="257.7695,-112.7188 256.435,-105.6322 262.4632,-101.6748 263.7977,-108.7614 257.7695,-112.7188"/>
<text text-anchor="middle" x="264" y="-134" font-family="Helvetica,sans-Serif" font-size="10.00" fill="#000000"> &#45;str</text>
</g>
<!-- Node5 -->
<g id="node4" class="node">
<title>Node5</title>
<polygon fill="#ffffff" stroke="#bfbfbf" points="296,-177 296,-245 410,-245 410,-177 296,-177"/>
<text text-anchor="start" x="304" y="-233" font-family="Helvetica,sans-Serif" font-size="10.00" fill="#000000">array&lt; std::char_traits</text>
<text text-anchor="middle" x="353" y="-222" font-family="Helvetica,sans-Serif" font-size="10.00" fill="#000000">&lt; char &gt;::int_type, 4 &gt;</text>
<polyline fill="none" stroke="#bfbfbf" points="296,-215 410,-215 "/>
<text text-anchor="middle" x="353" y="-203" font-family="Helvetica,sans-Serif" font-size="10.00" fill="#000000"> </text>
<polyline fill="none" stroke="#bfbfbf" points="296,-196 410,-196 "/>
<text text-anchor="middle" x="353" y="-184" font-family="Helvetica,sans-Serif" font-size="10.00" fill="#000000"> </text>
</g>
<!-- Node5&#45;&gt;Node2 -->
<g id="edge3" class="edge">
<title>Node5&#45;&gt;Node2</title>
<path fill="none" stroke="#404040" d="M338.1978,-176.676C330.1723,-158.0661 320.0081,-134.497 310.6559,-112.8108"/>
<polygon fill="none" stroke="#404040" points="310.607,-112.6973 304.558,-108.7717 305.855,-101.6782 311.904,-105.6037 310.607,-112.6973"/>
<text text-anchor="middle" x="352" y="-134" font-family="Helvetica,sans-Serif" font-size="10.00" fill="#000000"> &#45;utf8_bytes</text>
</g>
<!-- Node6 -->
<g id="node5" class="node">
<title>Node6</title>
<polygon fill="#ffffff" stroke="#bfbfbf" points="428.5,-182.5 428.5,-239.5 471.5,-239.5 471.5,-182.5 428.5,-182.5"/>
<text text-anchor="middle" x="450" y="-227.5" font-family="Helvetica,sans-Serif" font-size="10.00" fill="#000000">size_t</text>
<polyline fill="none" stroke="#bfbfbf" points="428.5,-220.5 471.5,-220.5 "/>
<text text-anchor="middle" x="450" y="-208.5" font-family="Helvetica,sans-Serif" font-size="10.00" fill="#000000"> </text>
<polyline fill="none" stroke="#bfbfbf" points="428.5,-201.5 471.5,-201.5 "/>
<text text-anchor="middle" x="450" y="-189.5" font-family="Helvetica,sans-Serif" font-size="10.00" fill="#000000"> </text>
</g>
<!-- Node6&#45;&gt;Node2 -->
<g id="edge4" class="edge">
<title>Node6&#45;&gt;Node2</title>
<path fill="none" stroke="#404040" d="M432.1389,-182.4996C419.4863,-163.5711 401.3739,-138.8336 382,-120 377.0298,-115.1684 371.6936,-110.4258 366.1709,-105.831"/>
<polygon fill="none" stroke="#404040" points="366.0872,-105.7637 358.9045,-105.1241 356.7323,-98.2479 363.915,-98.8875 366.0872,-105.7637"/>
<text text-anchor="middle" x="449" y="-145" font-family="Helvetica,sans-Serif" font-size="10.00" fill="#000000"> &#45;utf8_bytes_filled</text>
<text text-anchor="middle" x="449" y="-134" font-family="Helvetica,sans-Serif" font-size="10.00" fill="#000000">&#45;utf8_bytes_index</text>
<text text-anchor="middle" x="449" y="-123" font-family="Helvetica,sans-Serif" font-size="10.00" fill="#000000">&#45;current_wchar</text>
</g>
</g>
</svg>
