<?xml version="1.0" encoding="UTF-8" standalone="no"?>
<!DOCTYPE svg PUBLIC "-//W3C//DTD SVG 1.1//EN"
 "http://www.w3.org/Graphics/SVG/1.1/DTD/svg11.dtd">
<!-- Generated by graphviz version 2.40.1 (20161225.0304)
 -->
<!-- Title: tethex::Mesh::convert_2D Pages: 1 -->
<svg width="754pt" height="423pt"
 viewBox="0.00 0.00 754.00 422.87" xmlns="http://www.w3.org/2000/svg" xmlns:xlink="http://www.w3.org/1999/xlink">
<g id="graph0" class="graph" transform="scale(1 1) rotate(0) translate(4 418.8713)">
<title>tethex::Mesh::convert_2D</title>
<polygon fill="#ffffff" stroke="transparent" points="-4,4 -4,-418.8713 750,-418.8713 750,4 -4,4"/>
<!-- Node185 -->
<g id="node1" class="node">
<title>Node185</title>
<polygon fill="#bfbfbf" stroke="#000000" points="0,-241.8713 0,-260.8713 130,-260.8713 130,-241.8713 0,-241.8713"/>
<text text-anchor="middle" x="65" y="-248.8713" font-family="Helvetica,sans-Serif" font-size="10.00" fill="#000000">tethex::Mesh::convert_2D</text>
</g>
<!-- Node186 -->
<g id="node2" class="node">
<title>Node186</title>
<g id="a_node2"><a xlink:href="classtethex_1_1Mesh.html#ad6757f5eeaca6b0cae07fb85b5f40cb2" target="_top" xlink:title="Numerate the edges of simplices. ">
<polygon fill="#ffffff" stroke="#000000" points="328,-307.3713 328,-337.3713 429,-337.3713 429,-307.3713 328,-307.3713"/>
<text text-anchor="start" x="336" y="-325.3713" font-family="Helvetica,sans-Serif" font-size="10.00" fill="#000000">tethex::Mesh::edge</text>
<text text-anchor="middle" x="378.5" y="-314.3713" font-family="Helvetica,sans-Serif" font-size="10.00" fill="#000000">_numeration</text>
</a>
</g>
</g>
<!-- Node185&#45;&gt;Node186 -->
<g id="edge1" class="edge">
<title>Node185&#45;&gt;Node186</title>
<path fill="none" stroke="#191970" d="M102.3496,-260.8948C121.3717,-265.6742 144.8839,-271.4735 166,-276.3713 217.0624,-288.2149 275.2558,-300.745 317.8185,-309.7318"/>
<polygon fill="#191970" stroke="#191970" points="317.2352,-313.1856 327.742,-311.8226 318.6785,-306.336 317.2352,-313.1856"/>
</g>
<!-- Node190 -->
<g id="node6" class="node">
<title>Node190</title>
<g id="a_node6"><a xlink:href="classtethex_1_1Mesh.html#a8e5d9c057c6f562d5036f262a23af29c" target="_top" xlink:title="During conversion we add new vertices &#45; at the centers of edges, triangles, tetrahedra. ">
<polygon fill="#ffffff" stroke="#000000" points="166,-52.3713 166,-82.3713 282,-82.3713 282,-52.3713 166,-52.3713"/>
<text text-anchor="start" x="174" y="-70.3713" font-family="Helvetica,sans-Serif" font-size="10.00" fill="#000000">tethex::Mesh::set_new</text>
<text text-anchor="middle" x="224" y="-59.3713" font-family="Helvetica,sans-Serif" font-size="10.00" fill="#000000">_vertices</text>
</a>
</g>
</g>
<!-- Node185&#45;&gt;Node190 -->
<g id="edge6" class="edge">
<title>Node185&#45;&gt;Node190</title>
<path fill="none" stroke="#191970" d="M73.3247,-241.7377C97.6547,-213.5822 169.1309,-130.8676 204.1731,-90.3156"/>
<polygon fill="#191970" stroke="#191970" points="206.9794,-92.4211 210.8695,-82.5663 201.6829,-87.8443 206.9794,-92.4211"/>
</g>
<!-- Node192 -->
<g id="node8" class="node">
<title>Node192</title>
<g id="a_node8"><a xlink:href="classtethex_1_1Mesh.html#ab739c5e4bbb1c3461a068c2104eab52e" target="_top" xlink:title="Conversion from triangles to quadrangles. ">
<polygon fill="#ffffff" stroke="#000000" points="168,-214.3713 168,-244.3713 280,-244.3713 280,-214.3713 168,-214.3713"/>
<text text-anchor="start" x="176" y="-232.3713" font-family="Helvetica,sans-Serif" font-size="10.00" fill="#000000">tethex::Mesh::convert</text>
<text text-anchor="middle" x="224" y="-221.3713" font-family="Helvetica,sans-Serif" font-size="10.00" fill="#000000">_triangles</text>
</a>
</g>
</g>
<!-- Node185&#45;&gt;Node192 -->
<g id="edge9" class="edge">
<title>Node185&#45;&gt;Node192</title>
<path fill="none" stroke="#191970" d="M130.1302,-242.3595C139.2276,-241.1008 148.5847,-239.8061 157.7034,-238.5444"/>
<polygon fill="#191970" stroke="#191970" points="158.445,-241.9752 167.8709,-237.1376 157.4855,-235.0413 158.445,-241.9752"/>
</g>
<!-- Node200 -->
<g id="node16" class="node">
<title>Node200</title>
<g id="a_node16"><a xlink:href="classtethex_1_1Mesh.html#ac4c7819413f5941593722fa1024e1f25" target="_top" xlink:title="During mesh conversion we add new vertices. ">
<polygon fill="#ffffff" stroke="#000000" points="321.5,-258.3713 321.5,-288.3713 435.5,-288.3713 435.5,-258.3713 321.5,-258.3713"/>
<text text-anchor="start" x="329.5" y="-276.3713" font-family="Helvetica,sans-Serif" font-size="10.00" fill="#000000">tethex::Mesh::redefine</text>
<text text-anchor="middle" x="378.5" y="-265.3713" font-family="Helvetica,sans-Serif" font-size="10.00" fill="#000000">_lines</text>
</a>
</g>
</g>
<!-- Node185&#45;&gt;Node200 -->
<g id="edge20" class="edge">
<title>Node185&#45;&gt;Node200</title>
<path fill="none" stroke="#191970" d="M130.3383,-255.9564C183.3579,-259.6771 257.8251,-264.9028 311.3307,-268.6576"/>
<polygon fill="#191970" stroke="#191970" points="311.1828,-272.1558 321.4033,-269.3645 311.6728,-265.1729 311.1828,-272.1558"/>
</g>
<!-- Node187 -->
<g id="node3" class="node">
<title>Node187</title>
<g id="a_node3"><a xlink:href="classtethex_1_1IncidenceMatrix.html#a35358d0c7bd51a6c7ce900237f3e7672" target="_top" xlink:title="Get the number of non zero elements in the matrix. ">
<polygon fill="#ffffff" stroke="#000000" points="478,-384.3713 478,-414.3713 597,-414.3713 597,-384.3713 478,-384.3713"/>
<text text-anchor="start" x="486" y="-402.3713" font-family="Helvetica,sans-Serif" font-size="10.00" fill="#000000">tethex::IncidenceMatrix</text>
<text text-anchor="middle" x="537.5" y="-391.3713" font-family="Helvetica,sans-Serif" font-size="10.00" fill="#000000">::get_n_nonzero</text>
</a>
</g>
</g>
<!-- Node186&#45;&gt;Node187 -->
<g id="edge2" class="edge">
<title>Node186&#45;&gt;Node187</title>
<path fill="none" stroke="#191970" d="M409.3345,-337.4446C428.2685,-346.6866 453.0225,-358.7447 475,-369.3713 482.0856,-372.7973 489.6292,-376.4304 496.9347,-379.9414"/>
<polygon fill="#191970" stroke="#191970" points="495.4787,-383.1248 506.0084,-384.2984 498.5088,-376.8146 495.4787,-383.1248"/>
</g>
<!-- Node188 -->
<g id="node4" class="node">
<title>Node188</title>
<g id="a_node4"><a xlink:href="classtethex_1_1IncidenceMatrix.html#a1d659ff5b0bba8be07196b23ded3d58d" target="_top" xlink:title="Find a serial number of the non zero element in the matrix. ">
<polygon fill="#ffffff" stroke="#000000" points="478,-296.3713 478,-326.3713 597,-326.3713 597,-296.3713 478,-296.3713"/>
<text text-anchor="start" x="486" y="-314.3713" font-family="Helvetica,sans-Serif" font-size="10.00" fill="#000000">tethex::IncidenceMatrix</text>
<text text-anchor="middle" x="537.5" y="-303.3713" font-family="Helvetica,sans-Serif" font-size="10.00" fill="#000000">::find</text>
</a>
</g>
</g>
<!-- Node186&#45;&gt;Node188 -->
<g id="edge3" class="edge">
<title>Node186&#45;&gt;Node188</title>
<path fill="none" stroke="#191970" d="M429.2458,-318.8605C441.4369,-318.0171 454.6707,-317.1016 467.564,-316.2096"/>
<polygon fill="#191970" stroke="#191970" points="468.0702,-319.683 477.8048,-315.5011 467.587,-312.6997 468.0702,-319.683"/>
</g>
<!-- Node189 -->
<g id="node5" class="node">
<title>Node189</title>
<g id="a_node5"><a xlink:href="namespacetethex.html#a31a6ad16911dd58abefe17ab46534aa4" target="_top" xlink:title="tethex::d2s">
<polygon fill="#ffffff" stroke="#000000" points="658.5,-257.8713 658.5,-276.8713 723.5,-276.8713 723.5,-257.8713 658.5,-257.8713"/>
<text text-anchor="middle" x="691" y="-264.8713" font-family="Helvetica,sans-Serif" font-size="10.00" fill="#000000">tethex::d2s</text>
</a>
</g>
</g>
<!-- Node186&#45;&gt;Node189 -->
<g id="edge5" class="edge">
<title>Node186&#45;&gt;Node189</title>
<path fill="none" stroke="#191970" d="M429.1592,-335.8287C474.9843,-345.5763 543.7053,-354.0811 600,-335.3713 630.0766,-325.3751 658.2523,-301.1326 675.0614,-284.4691"/>
<polygon fill="#191970" stroke="#191970" points="677.8781,-286.5941 682.3586,-276.9932 672.8689,-281.7045 677.8781,-286.5941"/>
</g>
<!-- Node188&#45;&gt;Node189 -->
<g id="edge4" class="edge">
<title>Node188&#45;&gt;Node189</title>
<path fill="none" stroke="#191970" d="M589.8967,-296.352C608.9496,-290.8906 630.2364,-284.7888 648.3449,-279.5981"/>
<polygon fill="#191970" stroke="#191970" points="649.3955,-282.938 658.0439,-276.818 647.4666,-276.209 649.3955,-282.938"/>
</g>
<!-- Node190&#45;&gt;Node189 -->
<g id="edge7" class="edge">
<title>Node190&#45;&gt;Node189</title>
<path fill="none" stroke="#191970" d="M255.8624,-52.2794C325.2524,-21.8478 492.4239,37.9886 600,-35.3713 604.702,-38.5777 663.1813,-193.3253 683.8344,-248.2696"/>
<polygon fill="#191970" stroke="#191970" points="680.6412,-249.7221 687.4335,-257.8532 687.1943,-247.2611 680.6412,-249.7221"/>
</g>
<!-- Node191 -->
<g id="node7" class="node">
<title>Node191</title>
<g id="a_node7"><a xlink:href="classtethex_1_1Mesh.html#ab88564c8b781ba5b0d329a85c7a1dfa9" target="_top" xlink:title="Get the number of vertices. ">
<polygon fill="#ffffff" stroke="#000000" points="326.5,-52.3713 326.5,-82.3713 430.5,-82.3713 430.5,-52.3713 326.5,-52.3713"/>
<text text-anchor="start" x="334.5" y="-70.3713" font-family="Helvetica,sans-Serif" font-size="10.00" fill="#000000">tethex::Mesh::get_n</text>
<text text-anchor="middle" x="378.5" y="-59.3713" font-family="Helvetica,sans-Serif" font-size="10.00" fill="#000000">_vertices</text>
</a>
</g>
</g>
<!-- Node190&#45;&gt;Node191 -->
<g id="edge8" class="edge">
<title>Node190&#45;&gt;Node191</title>
<path fill="none" stroke="#191970" d="M282.4098,-67.3713C293.4666,-67.3713 305.0717,-67.3713 316.242,-67.3713"/>
<polygon fill="#191970" stroke="#191970" points="316.3499,-70.8714 326.3499,-67.3713 316.3498,-63.8714 316.3499,-70.8714"/>
</g>
<!-- Node192&#45;&gt;Node186 -->
<g id="edge10" class="edge">
<title>Node192&#45;&gt;Node186</title>
<path fill="none" stroke="#191970" d="M242.2149,-244.5388C260.5467,-259.312 290.0351,-281.7634 318,-297.3713 321.4734,-299.3098 325.1278,-301.1856 328.849,-302.9795"/>
<polygon fill="#191970" stroke="#191970" points="327.6226,-306.2677 338.1709,-307.2593 330.5433,-299.9061 327.6226,-306.2677"/>
</g>
<!-- Node192&#45;&gt;Node189 -->
<g id="edge19" class="edge">
<title>Node192&#45;&gt;Node189</title>
<path fill="none" stroke="#191970" d="M280.3311,-233.9549C374.9969,-241.6579 563.9128,-257.0301 648.4224,-263.9067"/>
<polygon fill="#191970" stroke="#191970" points="648.1866,-267.399 658.4375,-264.7216 648.7544,-260.4221 648.1866,-267.399"/>
</g>
<!-- Node193 -->
<g id="node9" class="node">
<title>Node193</title>
<g id="a_node9"><a xlink:href="classtethex_1_1Mesh.html#abc261df76b5f1090b366386fdcb495cb" target="_top" xlink:title="Find the global number of face basing on numbers of 2 edges defining that face. ">
<polygon fill="#ffffff" stroke="#000000" points="319.5,-170.3713 319.5,-200.3713 437.5,-200.3713 437.5,-170.3713 319.5,-170.3713"/>
<text text-anchor="start" x="327.5" y="-188.3713" font-family="Helvetica,sans-Serif" font-size="10.00" fill="#000000">tethex::Mesh::find</text>
<text text-anchor="middle" x="378.5" y="-177.3713" font-family="Helvetica,sans-Serif" font-size="10.00" fill="#000000">_face_from_two_edges</text>
</a>
</g>
</g>
<!-- Node192&#45;&gt;Node193 -->
<g id="edge11" class="edge">
<title>Node192&#45;&gt;Node193</title>
<path fill="none" stroke="#191970" d="M276.738,-214.352C289.3465,-210.7612 302.927,-206.8937 315.9311,-203.1902"/>
<polygon fill="#191970" stroke="#191970" points="317.0786,-206.5027 325.7375,-200.3975 315.1613,-199.7704 317.0786,-206.5027"/>
</g>
<!-- Node198 -->
<g id="node14" class="node">
<title>Node198</title>
<g id="a_node14"><a xlink:href="namespacetethex.html#a7f8708334371c722c41cab50445d7987" target="_top" xlink:title="Change the order of vertices in such a way, that it will be good for deal.II. ">
<polygon fill="#ffffff" stroke="#000000" points="318,-114.3713 318,-144.3713 439,-144.3713 439,-114.3713 318,-114.3713"/>
<text text-anchor="start" x="326" y="-132.3713" font-family="Helvetica,sans-Serif" font-size="10.00" fill="#000000">tethex::change_vertices</text>
<text text-anchor="middle" x="378.5" y="-121.3713" font-family="Helvetica,sans-Serif" font-size="10.00" fill="#000000">_order</text>
</a>
</g>
</g>
<!-- Node192&#45;&gt;Node198 -->
<g id="edge17" class="edge">
<title>Node192&#45;&gt;Node198</title>
<path fill="none" stroke="#191970" d="M242.8156,-214.1684C261.3591,-199.525 290.7878,-177.1814 318,-160.3713 324.2127,-156.5334 330.9565,-152.7398 337.6118,-149.1932"/>
<polygon fill="#191970" stroke="#191970" points="339.3191,-152.2504 346.574,-144.5292 336.0876,-146.0409 339.3191,-152.2504"/>
</g>
<!-- Node193&#45;&gt;Node188 -->
<g id="edge16" class="edge">
<title>Node193&#45;&gt;Node188</title>
<path fill="none" stroke="#191970" d="M397.6791,-200.5698C425.7327,-222.801 478.0968,-264.297 510.1719,-289.715"/>
<polygon fill="#191970" stroke="#191970" points="508.2416,-292.6511 518.2529,-296.1188 512.5892,-287.1648 508.2416,-292.6511"/>
</g>
<!-- Node194 -->
<g id="node10" class="node">
<title>Node194</title>
<g id="a_node10"><a xlink:href="classtethex_1_1Mesh.html#aea31733cbb3d4e47252da53a253ec9b8" target="_top" xlink:title="Get the copy of vertex. ">
<polygon fill="#ffffff" stroke="#000000" points="475,-181.8713 475,-200.8713 600,-200.8713 600,-181.8713 475,-181.8713"/>
<text text-anchor="middle" x="537.5" y="-188.8713" font-family="Helvetica,sans-Serif" font-size="10.00" fill="#000000">tethex::Mesh::get_vertex</text>
</a>
</g>
</g>
<!-- Node193&#45;&gt;Node194 -->
<g id="edge12" class="edge">
<title>Node193&#45;&gt;Node194</title>
<path fill="none" stroke="#191970" d="M437.7057,-187.6054C446.4943,-187.9371 455.6375,-188.2821 464.6653,-188.6228"/>
<polygon fill="#191970" stroke="#191970" points="464.6589,-192.1249 474.7838,-189.0046 464.923,-185.1299 464.6589,-192.1249"/>
</g>
<!-- Node195 -->
<g id="node11" class="node">
<title>Node195</title>
<g id="a_node11"><a xlink:href="classtethex_1_1Line.html#a7ee8354de8290f9a914e480385fc16e7" target="_top" xlink:title="Find common vertex between two lines. ">
<polygon fill="#ffffff" stroke="#000000" points="482,-83.3713 482,-113.3713 593,-113.3713 593,-83.3713 482,-83.3713"/>
<text text-anchor="start" x="490" y="-101.3713" font-family="Helvetica,sans-Serif" font-size="10.00" fill="#000000">tethex::Line::common</text>
<text text-anchor="middle" x="537.5" y="-90.3713" font-family="Helvetica,sans-Serif" font-size="10.00" fill="#000000">_vertex</text>
</a>
</g>
</g>
<!-- Node193&#45;&gt;Node195 -->
<g id="edge13" class="edge">
<title>Node193&#45;&gt;Node195</title>
<path fill="none" stroke="#191970" d="M410.3692,-170.2216C419.8414,-165.2701 430.068,-159.4652 439,-153.3713 456.442,-141.4715 456.8765,-133.2048 475,-122.3713 477.6578,-120.7825 480.4393,-119.2645 483.29,-117.8197"/>
<polygon fill="#191970" stroke="#191970" points="485.0039,-120.8815 492.563,-113.4578 482.0243,-114.5473 485.0039,-120.8815"/>
</g>
<!-- Node197 -->
<g id="node13" class="node">
<title>Node197</title>
<g id="a_node13"><a xlink:href="classtethex_1_1Line.html#abdc04877eb0feb0200f4e9bb8a4e3735" target="_top" xlink:title="Get another vertex (different from that we have) ">
<polygon fill="#ffffff" stroke="#000000" points="484.5,-132.3713 484.5,-162.3713 590.5,-162.3713 590.5,-132.3713 484.5,-132.3713"/>
<text text-anchor="start" x="492.5" y="-150.3713" font-family="Helvetica,sans-Serif" font-size="10.00" fill="#000000">tethex::Line::another</text>
<text text-anchor="middle" x="537.5" y="-139.3713" font-family="Helvetica,sans-Serif" font-size="10.00" fill="#000000">_vertex</text>
</a>
</g>
</g>
<!-- Node193&#45;&gt;Node197 -->
<g id="edge15" class="edge">
<title>Node193&#45;&gt;Node197</title>
<path fill="none" stroke="#191970" d="M437.7057,-171.2215C449.6391,-168.3695 462.2262,-165.3612 474.2904,-162.478"/>
<polygon fill="#191970" stroke="#191970" points="475.363,-165.8203 484.2755,-160.0916 473.7358,-159.012 475.363,-165.8203"/>
</g>
<!-- Node196 -->
<g id="node12" class="node">
<title>Node196</title>
<g id="a_node12"><a xlink:href="classtethex_1_1MeshElement.html#aa7d8e4c101b47e1087917a42c0a3074a" target="_top" xlink:title="Check &#45; whether the element contains the vertex or not. ">
<polygon fill="#ffffff" stroke="#000000" points="636,-83.3713 636,-113.3713 746,-113.3713 746,-83.3713 636,-83.3713"/>
<text text-anchor="start" x="644" y="-101.3713" font-family="Helvetica,sans-Serif" font-size="10.00" fill="#000000">tethex::MeshElement</text>
<text text-anchor="middle" x="691" y="-90.3713" font-family="Helvetica,sans-Serif" font-size="10.00" fill="#000000">::contains</text>
</a>
</g>
</g>
<!-- Node195&#45;&gt;Node196 -->
<g id="edge14" class="edge">
<title>Node195&#45;&gt;Node196</title>
<path fill="none" stroke="#191970" d="M593.3512,-98.3713C603.8749,-98.3713 614.966,-98.3713 625.7474,-98.3713"/>
<polygon fill="#191970" stroke="#191970" points="625.9607,-101.8714 635.9607,-98.3713 625.9607,-94.8714 625.9607,-101.8714"/>
</g>
<!-- Node199 -->
<g id="node15" class="node">
<title>Node199</title>
<g id="a_node15"><a xlink:href="namespacetethex.html#a4829931502bfe6e2c614c95e59cda77b" target="_top" xlink:title="Since this project was originally designed to connect Gmsh&#39;s meshes with deal.II solvers, the main requirement for new meshes was to be properly read by deal.II. ">
<polygon fill="#ffffff" stroke="#000000" points="475,-44.8713 475,-63.8713 600,-63.8713 600,-44.8713 475,-44.8713"/>
<text text-anchor="middle" x="537.5" y="-51.8713" font-family="Helvetica,sans-Serif" font-size="10.00" fill="#000000">tethex::cell_measure_2D</text>
</a>
</g>
</g>
<!-- Node198&#45;&gt;Node199 -->
<g id="edge18" class="edge">
<title>Node198&#45;&gt;Node199</title>
<path fill="none" stroke="#191970" d="M401.1129,-114.236C420.1874,-101.9692 448.536,-84.8881 475,-73.3713 480.1345,-71.1368 485.6133,-69.0575 491.1127,-67.1566"/>
<polygon fill="#191970" stroke="#191970" points="492.5485,-70.3694 500.9638,-63.9326 490.3712,-63.7166 492.5485,-70.3694"/>
</g>
<!-- Node200&#45;&gt;Node188 -->
<g id="edge21" class="edge">
<title>Node200&#45;&gt;Node188</title>
<path fill="none" stroke="#191970" d="M435.9026,-287.0901C446.3226,-289.5804 457.2927,-292.2022 468.0158,-294.765"/>
<polygon fill="#191970" stroke="#191970" points="467.2315,-298.176 477.7712,-297.0964 468.8587,-291.3678 467.2315,-298.176"/>
</g>
<!-- Node200&#45;&gt;Node189 -->
<g id="edge22" class="edge">
<title>Node200&#45;&gt;Node189</title>
<path fill="none" stroke="#191970" d="M435.8173,-272.2708C497.2307,-271.0916 593.2836,-269.2474 648.3562,-268.19"/>
<polygon fill="#191970" stroke="#191970" points="648.5425,-271.6872 658.4734,-267.9958 648.4081,-264.6885 648.5425,-271.6872"/>
</g>
</g>
</svg>
