<?xml version="1.0" encoding="UTF-8" standalone="no"?>
<!DOCTYPE svg PUBLIC "-//W3C//DTD SVG 1.1//EN"
 "http://www.w3.org/Graphics/SVG/1.1/DTD/svg11.dtd">
<!-- Generated by graphviz version 2.40.1 (20161225.0304)
 -->
<!-- Title: tethex::Mesh::get_line Pages: 1 -->
<svg width="278pt" height="104pt"
 viewBox="0.00 0.00 278.00 104.00" xmlns="http://www.w3.org/2000/svg" xmlns:xlink="http://www.w3.org/1999/xlink">
<g id="graph0" class="graph" transform="scale(1 1) rotate(0) translate(4 100)">
<title>tethex::Mesh::get_line</title>
<polygon fill="#ffffff" stroke="transparent" points="-4,4 -4,-100 274,-100 274,4 -4,4"/>
<!-- Node124 -->
<g id="node1" class="node">
<title>Node124</title>
<polygon fill="#bfbfbf" stroke="#000000" points="0,-38.5 0,-57.5 113,-57.5 113,-38.5 0,-38.5"/>
<text text-anchor="middle" x="56.5" y="-45.5" font-family="Helvetica,sans-Serif" font-size="10.00" fill="#000000">tethex::Mesh::get_line</text>
</g>
<!-- Node125 -->
<g id="node2" class="node">
<title>Node125</title>
<g id="a_node2"><a xlink:href="classRiver_1_1Solver.html#a3d51dbec8b2d1d790c5f4e0385b408d7" target="_top" xlink:title="River::Solver::SetMesh">
<polygon fill="#ffffff" stroke="#000000" points="150,-76.5 150,-95.5 269,-95.5 269,-76.5 150,-76.5"/>
<text text-anchor="middle" x="209.5" y="-83.5" font-family="Helvetica,sans-Serif" font-size="10.00" fill="#000000">River::Solver::SetMesh</text>
</a>
</g>
</g>
<!-- Node124&#45;&gt;Node125 -->
<g id="edge1" class="edge">
<title>Node124&#45;&gt;Node125</title>
<path fill="none" stroke="#191970" d="M104.9768,-60.04C126.3517,-65.3488 151.1134,-71.4988 171.1693,-76.4799"/>
<polygon fill="#191970" stroke="#191970" points="105.6572,-56.6027 95.1084,-57.589 103.9698,-63.3963 105.6572,-56.6027"/>
</g>
<!-- Node126 -->
<g id="node3" class="node">
<title>Node126</title>
<g id="a_node3"><a xlink:href="classtethex_1_1Mesh.html#af7abffd9bc4bd64eb2f4cdd4aaf7fbe3" target="_top" xlink:title="tethex::Mesh::Mesh">
<polygon fill="#ffffff" stroke="#000000" points="157.5,-38.5 157.5,-57.5 261.5,-57.5 261.5,-38.5 157.5,-38.5"/>
<text text-anchor="middle" x="209.5" y="-45.5" font-family="Helvetica,sans-Serif" font-size="10.00" fill="#000000">tethex::Mesh::Mesh</text>
</a>
</g>
</g>
<!-- Node124&#45;&gt;Node126 -->
<g id="edge2" class="edge">
<title>Node124&#45;&gt;Node126</title>
<path fill="none" stroke="#191970" d="M123.3515,-48C134.7031,-48 146.3427,-48 157.249,-48"/>
<polygon fill="#191970" stroke="#191970" points="123.0369,-44.5001 113.0369,-48 123.0368,-51.5001 123.0369,-44.5001"/>
</g>
<!-- Node127 -->
<g id="node4" class="node">
<title>Node127</title>
<g id="a_node4"><a xlink:href="classtethex_1_1Mesh.html#af992d5d2e64047656766e4afcbc95b8b" target="_top" xlink:title="tethex::Mesh::operator=">
<polygon fill="#ffffff" stroke="#000000" points="149,-.5 149,-19.5 270,-19.5 270,-.5 149,-.5"/>
<text text-anchor="middle" x="209.5" y="-7.5" font-family="Helvetica,sans-Serif" font-size="10.00" fill="#000000">tethex::Mesh::operator=</text>
</a>
</g>
</g>
<!-- Node124&#45;&gt;Node127 -->
<g id="edge3" class="edge">
<title>Node124&#45;&gt;Node127</title>
<path fill="none" stroke="#191970" d="M104.9768,-35.96C126.3517,-30.6512 151.1134,-24.5012 171.1693,-19.5201"/>
<polygon fill="#191970" stroke="#191970" points="103.9698,-32.6037 95.1084,-38.411 105.6572,-39.3973 103.9698,-32.6037"/>
</g>
</g>
</svg>
