<?xml version="1.0" encoding="UTF-8" standalone="no"?>
<!DOCTYPE svg PUBLIC "-//W3C//DTD SVG 1.1//EN"
 "http://www.w3.org/Graphics/SVG/1.1/DTD/svg11.dtd">
<!-- Generated by graphviz version 2.40.1 (20161225.0304)
 -->
<!-- Title: River::Timing Pages: 1 -->
<svg width="234pt" height="215pt"
 viewBox="0.00 0.00 233.50 215.00" xmlns="http://www.w3.org/2000/svg" xmlns:xlink="http://www.w3.org/1999/xlink">
<g id="graph0" class="graph" transform="scale(1 1) rotate(0) translate(4 211)">
<title>River::Timing</title>
<polygon fill="#ffffff" stroke="transparent" points="-4,4 -4,-211 229.5,-211 229.5,4 -4,4"/>
<!-- Node1 -->
<g id="node1" class="node">
<title>Node1</title>
<polygon fill="#bfbfbf" stroke="#000000" points="38.5,-.5 38.5,-101.5 130.5,-101.5 130.5,-.5 38.5,-.5"/>
<text text-anchor="middle" x="84.5" y="-89.5" font-family="Helvetica,sans-Serif" font-size="10.00" fill="#000000">River::Timing</text>
<polyline fill="none" stroke="#000000" points="38.5,-82.5 130.5,-82.5 "/>
<text text-anchor="middle" x="84.5" y="-70.5" font-family="Helvetica,sans-Serif" font-size="10.00" fill="#000000"> </text>
<polyline fill="none" stroke="#000000" points="38.5,-63.5 130.5,-63.5 "/>
<text text-anchor="start" x="46.5" y="-51.5" font-family="Helvetica,sans-Serif" font-size="10.00" fill="#000000">+ Timing()</text>
<text text-anchor="start" x="46.5" y="-40.5" font-family="Helvetica,sans-Serif" font-size="10.00" fill="#000000">+ CurrentDate()</text>
<text text-anchor="start" x="46.5" y="-29.5" font-family="Helvetica,sans-Serif" font-size="10.00" fill="#000000">+ CreationtDate()</text>
<text text-anchor="start" x="46.5" y="-18.5" font-family="Helvetica,sans-Serif" font-size="10.00" fill="#000000">+ Record()</text>
<text text-anchor="start" x="46.5" y="-7.5" font-family="Helvetica,sans-Serif" font-size="10.00" fill="#000000">+ Total()</text>
</g>
<!-- Node2 -->
<g id="node2" class="node">
<title>Node2</title>
<polygon fill="#ffffff" stroke="#bfbfbf" points="0,-149.5 0,-206.5 35,-206.5 35,-149.5 0,-149.5"/>
<text text-anchor="middle" x="17.5" y="-194.5" font-family="Helvetica,sans-Serif" font-size="10.00" fill="#000000">bool</text>
<polyline fill="none" stroke="#bfbfbf" points="0,-187.5 35,-187.5 "/>
<text text-anchor="middle" x="17.5" y="-175.5" font-family="Helvetica,sans-Serif" font-size="10.00" fill="#000000"> </text>
<polyline fill="none" stroke="#bfbfbf" points="0,-168.5 35,-168.5 "/>
<text text-anchor="middle" x="17.5" y="-156.5" font-family="Helvetica,sans-Serif" font-size="10.00" fill="#000000"> </text>
</g>
<!-- Node2&#45;&gt;Node1 -->
<g id="edge1" class="edge">
<title>Node2&#45;&gt;Node1</title>
<path fill="none" stroke="#404040" d="M32.5361,-149.4987C38.3535,-138.4717 45.2512,-125.397 52.0884,-112.437"/>
<polygon fill="none" stroke="#404040" points="52.193,-112.2386 51.4548,-105.0654 57.7923,-101.625 58.5305,-108.7982 52.193,-112.2386"/>
<text text-anchor="middle" x="57.5" y="-123" font-family="Helvetica,sans-Serif" font-size="10.00" fill="#000000"> &#45;flag</text>
</g>
<!-- Node3 -->
<g id="node3" class="node">
<title>Node3</title>
<polygon fill="#ffffff" stroke="#bfbfbf" points="53.5,-149.5 53.5,-206.5 115.5,-206.5 115.5,-149.5 53.5,-149.5"/>
<text text-anchor="middle" x="84.5" y="-194.5" font-family="Helvetica,sans-Serif" font-size="10.00" fill="#000000">time_point</text>
<polyline fill="none" stroke="#bfbfbf" points="53.5,-187.5 115.5,-187.5 "/>
<text text-anchor="middle" x="84.5" y="-175.5" font-family="Helvetica,sans-Serif" font-size="10.00" fill="#000000"> </text>
<polyline fill="none" stroke="#bfbfbf" points="53.5,-168.5 115.5,-168.5 "/>
<text text-anchor="middle" x="84.5" y="-156.5" font-family="Helvetica,sans-Serif" font-size="10.00" fill="#000000"> </text>
</g>
<!-- Node3&#45;&gt;Node1 -->
<g id="edge2" class="edge">
<title>Node3&#45;&gt;Node1</title>
<path fill="none" stroke="#404040" d="M84.5,-149.4987C84.5,-138.9128 84.5,-126.4397 84.5,-113.9926"/>
<polygon fill="none" stroke="#404040" points="84.5001,-113.625 80.5,-107.625 84.5,-101.625 88.5,-107.625 84.5001,-113.625"/>
<text text-anchor="middle" x="121" y="-123" font-family="Helvetica,sans-Serif" font-size="10.00" fill="#000000"> &#45;last_time_point</text>
</g>
<!-- Node4 -->
<g id="node4" class="node">
<title>Node4</title>
<polygon fill="#ffffff" stroke="#bfbfbf" points="135.5,-149.5 135.5,-206.5 225.5,-206.5 225.5,-149.5 135.5,-149.5"/>
<text text-anchor="middle" x="180.5" y="-194.5" font-family="Helvetica,sans-Serif" font-size="10.00" fill="#000000">vector&lt; double &gt;</text>
<polyline fill="none" stroke="#bfbfbf" points="135.5,-187.5 225.5,-187.5 "/>
<text text-anchor="middle" x="180.5" y="-175.5" font-family="Helvetica,sans-Serif" font-size="10.00" fill="#000000"> </text>
<polyline fill="none" stroke="#bfbfbf" points="135.5,-168.5 225.5,-168.5 "/>
<text text-anchor="middle" x="180.5" y="-156.5" font-family="Helvetica,sans-Serif" font-size="10.00" fill="#000000"> </text>
</g>
<!-- Node4&#45;&gt;Node1 -->
<g id="edge3" class="edge">
<title>Node4&#45;&gt;Node1</title>
<path fill="none" stroke="#404040" d="M172.5332,-149.2998C169.0816,-139.53 164.4446,-128.8507 158.5,-120 153.0598,-111.9002 146.4964,-104.0669 139.5535,-96.7657"/>
<polygon fill="none" stroke="#404040" points="139.0964,-96.3085 132.0255,-94.8934 130.6121,-87.8222 137.683,-89.2372 139.0964,-96.3085"/>
<text text-anchor="middle" x="184.5" y="-123" font-family="Helvetica,sans-Serif" font-size="10.00" fill="#000000"> +records</text>
</g>
</g>
</svg>
