<?xml version="1.0" encoding="UTF-8" standalone="no"?>
<!DOCTYPE svg PUBLIC "-//W3C//DTD SVG 1.1//EN"
 "http://www.w3.org/Graphics/SVG/1.1/DTD/svg11.dtd">
<!-- Generated by graphviz version 2.40.1 (20161225.0304)
 -->
<!-- Title: River::ProgramOptions Pages: 1 -->
<svg width="187pt" height="171pt"
 viewBox="0.00 0.00 186.50 171.00" xmlns="http://www.w3.org/2000/svg" xmlns:xlink="http://www.w3.org/1999/xlink">
<g id="graph0" class="graph" transform="scale(1 1) rotate(0) translate(4 167)">
<title>River::ProgramOptions</title>
<polygon fill="#ffffff" stroke="transparent" points="-4,4 -4,-167 182.5,-167 182.5,4 -4,4"/>
<!-- Node1 -->
<g id="node1" class="node">
<title>Node1</title>
<polygon fill="#bfbfbf" stroke="#000000" points="0,-.5 0,-57.5 127,-57.5 127,-.5 0,-.5"/>
<text text-anchor="middle" x="63.5" y="-45.5" font-family="Helvetica,sans-Serif" font-size="10.00" fill="#000000">River::ProgramOptions</text>
<polyline fill="none" stroke="#000000" points="0,-38.5 127,-38.5 "/>
<text text-anchor="middle" x="63.5" y="-26.5" font-family="Helvetica,sans-Serif" font-size="10.00" fill="#000000"> </text>
<polyline fill="none" stroke="#000000" points="0,-19.5 127,-19.5 "/>
<text text-anchor="middle" x="63.5" y="-7.5" font-family="Helvetica,sans-Serif" font-size="10.00" fill="#000000"> </text>
</g>
<!-- Node2 -->
<g id="node2" class="node">
<title>Node2</title>
<polygon fill="#ffffff" stroke="#bfbfbf" points="7.5,-105.5 7.5,-162.5 45.5,-162.5 45.5,-105.5 7.5,-105.5"/>
<text text-anchor="middle" x="26.5" y="-150.5" font-family="Helvetica,sans-Serif" font-size="10.00" fill="#000000">bool</text>
<polyline fill="none" stroke="#bfbfbf" points="7.5,-143.5 45.5,-143.5 "/>
<text text-anchor="middle" x="26.5" y="-131.5" font-family="Helvetica,sans-Serif" font-size="10.00" fill="#000000"> </text>
<polyline fill="none" stroke="#bfbfbf" points="7.5,-124.5 45.5,-124.5 "/>
<text text-anchor="middle" x="26.5" y="-112.5" font-family="Helvetica,sans-Serif" font-size="10.00" fill="#000000"> </text>
</g>
<!-- Node2&#45;&gt;Node1 -->
<g id="edge1" class="edge">
<title>Node2&#45;&gt;Node1</title>
<path fill="none" stroke="#404040" d="M23.4566,-105.3459C23.3619,-95.7854 24.2843,-85.2244 27.5,-76 28.4421,-73.2976 29.6051,-70.6271 30.9298,-68.0135"/>
<polygon fill="none" stroke="#404040" points="30.9689,-67.9482 30.6203,-60.7455 37.1349,-57.6535 37.4835,-64.8562 30.9689,-67.9482"/>
<text text-anchor="middle" x="53" y="-79" font-family="Helvetica,sans-Serif" font-size="10.00" fill="#000000"> +verbose</text>
</g>
<!-- Node3 -->
<g id="node3" class="node">
<title>Node3</title>
<polygon fill="#ffffff" stroke="#bfbfbf" points="70,-105.5 70,-162.5 131,-162.5 131,-105.5 70,-105.5"/>
<text text-anchor="middle" x="100.5" y="-150.5" font-family="Helvetica,sans-Serif" font-size="10.00" fill="#000000">unsigned</text>
<polyline fill="none" stroke="#bfbfbf" points="70,-143.5 131,-143.5 "/>
<text text-anchor="middle" x="100.5" y="-131.5" font-family="Helvetica,sans-Serif" font-size="10.00" fill="#000000"> </text>
<polyline fill="none" stroke="#bfbfbf" points="70,-124.5 131,-124.5 "/>
<text text-anchor="middle" x="100.5" y="-112.5" font-family="Helvetica,sans-Serif" font-size="10.00" fill="#000000"> </text>
</g>
<!-- Node3&#45;&gt;Node1 -->
<g id="edge2" class="edge">
<title>Node3&#45;&gt;Node1</title>
<path fill="none" stroke="#404040" d="M90.3896,-105.3083C86.474,-94.1966 81.9223,-81.2796 77.6894,-69.2673"/>
<polygon fill="none" stroke="#404040" points="77.5865,-68.9749 71.8197,-64.6454 73.5982,-57.657 79.3649,-61.9865 77.5865,-68.9749"/>
<text text-anchor="middle" x="130.5" y="-79" font-family="Helvetica,sans-Serif" font-size="10.00" fill="#000000"> +number_of_steps</text>
</g>
</g>
</svg>
