<?xml version="1.0" encoding="UTF-8" standalone="no"?>
<!DOCTYPE svg PUBLIC "-//W3C//DTD SVG 1.1//EN"
 "http://www.w3.org/Graphics/SVG/1.1/DTD/svg11.dtd">
<!-- Generated by graphviz version 2.40.1 (20161225.0304)
 -->
<!-- Title: tethex::Line::common_vertex Pages: 1 -->
<svg width="265pt" height="39pt"
 viewBox="0.00 0.00 265.00 39.00" xmlns="http://www.w3.org/2000/svg" xmlns:xlink="http://www.w3.org/1999/xlink">
<g id="graph0" class="graph" transform="scale(1 1) rotate(0) translate(4 35)">
<title>tethex::Line::common_vertex</title>
<polygon fill="#ffffff" stroke="transparent" points="-4,4 -4,-35 261,-35 261,4 -4,4"/>
<!-- Node7 -->
<g id="node1" class="node">
<title>Node7</title>
<polygon fill="#bfbfbf" stroke="#000000" points="0,-.5 0,-30.5 111,-30.5 111,-.5 0,-.5"/>
<text text-anchor="start" x="8" y="-18.5" font-family="Helvetica,sans-Serif" font-size="10.00" fill="#000000">tethex::Line::common</text>
<text text-anchor="middle" x="55.5" y="-7.5" font-family="Helvetica,sans-Serif" font-size="10.00" fill="#000000">_vertex</text>
</g>
<!-- Node8 -->
<g id="node2" class="node">
<title>Node8</title>
<g id="a_node2"><a xlink:href="classtethex_1_1MeshElement.html#aa7d8e4c101b47e1087917a42c0a3074a" target="_top" xlink:title="Check &#45; whether the element contains the vertex or not. ">
<polygon fill="#ffffff" stroke="#000000" points="147,-.5 147,-30.5 257,-30.5 257,-.5 147,-.5"/>
<text text-anchor="start" x="155" y="-18.5" font-family="Helvetica,sans-Serif" font-size="10.00" fill="#000000">tethex::MeshElement</text>
<text text-anchor="middle" x="202" y="-7.5" font-family="Helvetica,sans-Serif" font-size="10.00" fill="#000000">::contains</text>
</a>
</g>
</g>
<!-- Node7&#45;&gt;Node8 -->
<g id="edge1" class="edge">
<title>Node7&#45;&gt;Node8</title>
<path fill="none" stroke="#191970" d="M111.3033,-15.5C119.5814,-15.5 128.1752,-15.5 136.6275,-15.5"/>
<polygon fill="#191970" stroke="#191970" points="136.8365,-19.0001 146.8364,-15.5 136.8364,-12.0001 136.8365,-19.0001"/>
</g>
</g>
</svg>
