<?xml version="1.0" encoding="UTF-8" standalone="no"?>
<!DOCTYPE svg PUBLIC "-//W3C//DTD SVG 1.1//EN"
 "http://www.w3.org/Graphics/SVG/1.1/DTD/svg11.dtd">
<!-- Generated by graphviz version 2.40.1 (20161225.0304)
 -->
<!-- Title: nlohmann::detail::input_buffer_adapter Pages: 1 -->
<svg width="343pt" height="270pt"
 viewBox="0.00 0.00 342.50 270.00" xmlns="http://www.w3.org/2000/svg" xmlns:xlink="http://www.w3.org/1999/xlink">
<g id="graph0" class="graph" transform="scale(1 1) rotate(0) translate(4 266)">
<title>nlohmann::detail::input_buffer_adapter</title>
<polygon fill="#ffffff" stroke="transparent" points="-4,4 -4,-266 338.5,-266 338.5,4 -4,4"/>
<!-- Node2 -->
<g id="node1" class="node">
<title>Node2</title>
<polygon fill="#bfbfbf" stroke="#000000" points="138,-.5 138,-134.5 264,-134.5 264,-.5 138,-.5"/>
<text text-anchor="start" x="146" y="-122.5" font-family="Helvetica,sans-Serif" font-size="10.00" fill="#000000">nlohmann::detail::input</text>
<text text-anchor="middle" x="201" y="-111.5" font-family="Helvetica,sans-Serif" font-size="10.00" fill="#000000">_buffer_adapter</text>
<polyline fill="none" stroke="#000000" points="138,-104.5 264,-104.5 "/>
<text text-anchor="middle" x="201" y="-92.5" font-family="Helvetica,sans-Serif" font-size="10.00" fill="#000000"> </text>
<polyline fill="none" stroke="#000000" points="138,-85.5 264,-85.5 "/>
<text text-anchor="start" x="146" y="-73.5" font-family="Helvetica,sans-Serif" font-size="10.00" fill="#000000">+ input_buffer_adapter()</text>
<text text-anchor="start" x="146" y="-62.5" font-family="Helvetica,sans-Serif" font-size="10.00" fill="#000000">+ input_buffer_adapter()</text>
<text text-anchor="start" x="146" y="-51.5" font-family="Helvetica,sans-Serif" font-size="10.00" fill="#000000">+ operator=()</text>
<text text-anchor="start" x="146" y="-40.5" font-family="Helvetica,sans-Serif" font-size="10.00" fill="#000000">+ input_buffer_adapter()</text>
<text text-anchor="start" x="146" y="-29.5" font-family="Helvetica,sans-Serif" font-size="10.00" fill="#000000">+ operator=()</text>
<text text-anchor="start" x="146" y="-18.5" font-family="Helvetica,sans-Serif" font-size="10.00" fill="#000000">+ ~input_buffer_adapter()</text>
<text text-anchor="start" x="146" y="-7.5" font-family="Helvetica,sans-Serif" font-size="10.00" fill="#000000">+ get_character()</text>
</g>
<!-- Node3 -->
<g id="node2" class="node">
<title>Node3</title>
<g id="a_node2"><a xlink:href="structnlohmann_1_1detail_1_1input__adapter__protocol.html" target="_top" xlink:title="abstract input adapter interface ">
<polygon fill="#ffffff" stroke="#000000" points="0,-182.5 0,-261.5 136,-261.5 136,-182.5 0,-182.5"/>
<text text-anchor="start" x="8" y="-249.5" font-family="Helvetica,sans-Serif" font-size="10.00" fill="#000000">nlohmann::detail::input</text>
<text text-anchor="middle" x="68" y="-238.5" font-family="Helvetica,sans-Serif" font-size="10.00" fill="#000000">_adapter_protocol</text>
<polyline fill="none" stroke="#000000" points="0,-231.5 136,-231.5 "/>
<text text-anchor="middle" x="68" y="-219.5" font-family="Helvetica,sans-Serif" font-size="10.00" fill="#000000"> </text>
<polyline fill="none" stroke="#000000" points="0,-212.5 136,-212.5 "/>
<text text-anchor="start" x="8" y="-200.5" font-family="Helvetica,sans-Serif" font-size="10.00" fill="#000000">+ get_character()</text>
<text text-anchor="start" x="8" y="-189.5" font-family="Helvetica,sans-Serif" font-size="10.00" fill="#000000">+ ~input_adapter_protocol()</text>
</a>
</g>
</g>
<!-- Node3&#45;&gt;Node2 -->
<g id="edge1" class="edge">
<title>Node3&#45;&gt;Node2</title>
<path fill="none" stroke="#191970" d="M108.8441,-174.5533C119.6763,-161.97 131.5813,-148.1406 143.1327,-134.7217"/>
<polygon fill="none" stroke="#191970" points="106.1223,-172.3503 102.2508,-182.2124 111.4274,-176.9171 106.1223,-172.3503"/>
</g>
<!-- Node4 -->
<g id="node3" class="node">
<title>Node4</title>
<polygon fill="#ffffff" stroke="#bfbfbf" points="154.5,-193.5 154.5,-250.5 247.5,-250.5 247.5,-193.5 154.5,-193.5"/>
<text text-anchor="middle" x="201" y="-238.5" font-family="Helvetica,sans-Serif" font-size="10.00" fill="#000000">const char *const</text>
<polyline fill="none" stroke="#bfbfbf" points="154.5,-231.5 247.5,-231.5 "/>
<text text-anchor="middle" x="201" y="-219.5" font-family="Helvetica,sans-Serif" font-size="10.00" fill="#000000"> </text>
<polyline fill="none" stroke="#bfbfbf" points="154.5,-212.5 247.5,-212.5 "/>
<text text-anchor="middle" x="201" y="-200.5" font-family="Helvetica,sans-Serif" font-size="10.00" fill="#000000"> </text>
</g>
<!-- Node4&#45;&gt;Node2 -->
<g id="edge2" class="edge">
<title>Node4&#45;&gt;Node2</title>
<path fill="none" stroke="#404040" d="M201,-193.3018C201,-179.9597 201,-163.368 201,-146.6572"/>
<polygon fill="none" stroke="#404040" points="201.0001,-146.513 197,-140.513 201,-134.513 205,-140.5129 201.0001,-146.513"/>
<text text-anchor="middle" x="213.5" y="-156" font-family="Helvetica,sans-Serif" font-size="10.00" fill="#000000"> &#45;limit</text>
</g>
<!-- Node5 -->
<g id="node4" class="node">
<title>Node5</title>
<polygon fill="#ffffff" stroke="#bfbfbf" points="265.5,-193.5 265.5,-250.5 334.5,-250.5 334.5,-193.5 265.5,-193.5"/>
<text text-anchor="middle" x="300" y="-238.5" font-family="Helvetica,sans-Serif" font-size="10.00" fill="#000000">const char *</text>
<polyline fill="none" stroke="#bfbfbf" points="265.5,-231.5 334.5,-231.5 "/>
<text text-anchor="middle" x="300" y="-219.5" font-family="Helvetica,sans-Serif" font-size="10.00" fill="#000000"> </text>
<polyline fill="none" stroke="#bfbfbf" points="265.5,-212.5 334.5,-212.5 "/>
<text text-anchor="middle" x="300" y="-200.5" font-family="Helvetica,sans-Serif" font-size="10.00" fill="#000000"> </text>
</g>
<!-- Node5&#45;&gt;Node2 -->
<g id="edge3" class="edge">
<title>Node5&#45;&gt;Node2</title>
<path fill="none" stroke="#404040" d="M281.6109,-193.3018C272.7295,-179.4415 261.6011,-162.0744 250.4744,-144.71"/>
<polygon fill="none" stroke="#404040" points="250.4146,-144.6167 243.8096,-141.7229 243.9403,-134.513 250.5454,-137.4067 250.4146,-144.6167"/>
<text text-anchor="middle" x="279" y="-156" font-family="Helvetica,sans-Serif" font-size="10.00" fill="#000000"> &#45;cursor</text>
</g>
</g>
</svg>
