<?xml version="1.0" encoding="UTF-8" standalone="no"?>
<!DOCTYPE svg PUBLIC "-//W3C//DTD SVG 1.1//EN"
 "http://www.w3.org/Graphics/SVG/1.1/DTD/svg11.dtd">
<!-- Generated by graphviz version 2.40.1 (20161225.0304)
 -->
<!-- Title: tethex::Mesh::set_triangles Pages: 1 -->
<svg width="688pt" height="39pt"
 viewBox="0.00 0.00 688.00 39.00" xmlns="http://www.w3.org/2000/svg" xmlns:xlink="http://www.w3.org/1999/xlink">
<g id="graph0" class="graph" transform="scale(1 1) rotate(0) translate(4 35)">
<title>tethex::Mesh::set_triangles</title>
<polygon fill="#ffffff" stroke="transparent" points="-4,4 -4,-35 684,-35 684,4 -4,4"/>
<!-- Node166 -->
<g id="node1" class="node">
<title>Node166</title>
<polygon fill="#bfbfbf" stroke="#000000" points="0,-6 0,-25 135,-25 135,-6 0,-6"/>
<text text-anchor="middle" x="67.5" y="-13" font-family="Helvetica,sans-Serif" font-size="10.00" fill="#000000">tethex::Mesh::set_triangles</text>
</g>
<!-- Node167 -->
<g id="node2" class="node">
<title>Node167</title>
<g id="a_node2"><a xlink:href="classRiver_1_1Triangle.html#ace837080fe12b6a062b3256288885d74" target="_top" xlink:title="Converts triangulateio to tethex::Mesh used by rest of program. ">
<polygon fill="#ffffff" stroke="#000000" points="171,-.5 171,-30.5 265,-30.5 265,-.5 171,-.5"/>
<text text-anchor="start" x="179" y="-18.5" font-family="Helvetica,sans-Serif" font-size="10.00" fill="#000000">River::Triangle::io</text>
<text text-anchor="middle" x="218" y="-7.5" font-family="Helvetica,sans-Serif" font-size="10.00" fill="#000000">_to_tethex</text>
</a>
</g>
</g>
<!-- Node166&#45;&gt;Node167 -->
<g id="edge1" class="edge">
<title>Node166&#45;&gt;Node167</title>
<path fill="none" stroke="#191970" d="M145.4366,-15.5C154.1059,-15.5 162.7275,-15.5 170.8405,-15.5"/>
<polygon fill="#191970" stroke="#191970" points="145.2654,-12.0001 135.2654,-15.5 145.2654,-19.0001 145.2654,-12.0001"/>
</g>
<!-- Node168 -->
<g id="node3" class="node">
<title>Node168</title>
<g id="a_node3"><a xlink:href="classRiver_1_1Triangle.html#a0dae20b40d446e6009a88543e2c14daf" target="_top" xlink:title="Generate mesh. ">
<polygon fill="#ffffff" stroke="#000000" points="301,-6 301,-25 425,-25 425,-6 301,-6"/>
<text text-anchor="middle" x="363" y="-13" font-family="Helvetica,sans-Serif" font-size="10.00" fill="#000000">River::Triangle::generate</text>
</a>
</g>
</g>
<!-- Node167&#45;&gt;Node168 -->
<g id="edge2" class="edge">
<title>Node167&#45;&gt;Node168</title>
<path fill="none" stroke="#191970" d="M275.1821,-15.5C283.6105,-15.5 292.3283,-15.5 300.8513,-15.5"/>
<polygon fill="#191970" stroke="#191970" points="275.0774,-12.0001 265.0773,-15.5 275.0773,-19.0001 275.0774,-12.0001"/>
</g>
<!-- Node169 -->
<g id="node4" class="node">
<title>Node169</title>
<g id="a_node4"><a xlink:href="namespaceRiver.html#af1a3f7c61809dd8032e4ff5920da83cc" target="_top" xlink:title="One step of forward river evolution. ">
<polygon fill="#ffffff" stroke="#000000" points="461,-6 461,-25 606,-25 606,-6 461,-6"/>
<text text-anchor="middle" x="533.5" y="-13" font-family="Helvetica,sans-Serif" font-size="10.00" fill="#000000">River::ForwardRiverEvolution</text>
</a>
</g>
</g>
<!-- Node168&#45;&gt;Node169 -->
<g id="edge3" class="edge">
<title>Node168&#45;&gt;Node169</title>
<path fill="none" stroke="#191970" d="M435.2431,-15.5C443.7006,-15.5 452.333,-15.5 460.7967,-15.5"/>
<polygon fill="#191970" stroke="#191970" points="435.0368,-12.0001 425.0367,-15.5 435.0367,-19.0001 435.0368,-12.0001"/>
</g>
<!-- Node170 -->
<g id="node5" class="node">
<title>Node170</title>
<g id="a_node5"><a xlink:href="main_8cpp.html#a0ddf1224851353fc92bfbff6f499fa97" target="_top" xlink:title="Entry point of RiverSim program. ">
<polygon fill="#ffffff" stroke="#000000" points="642,-6 642,-25 680,-25 680,-6 642,-6"/>
<text text-anchor="middle" x="661" y="-13" font-family="Helvetica,sans-Serif" font-size="10.00" fill="#000000">main</text>
</a>
</g>
</g>
<!-- Node169&#45;&gt;Node170 -->
<g id="edge4" class="edge">
<title>Node169&#45;&gt;Node170</title>
<path fill="none" stroke="#191970" d="M616.2526,-15.5C625.7338,-15.5 634.5978,-15.5 641.8947,-15.5"/>
<polygon fill="#191970" stroke="#191970" points="616.1886,-12.0001 606.1886,-15.5 616.1885,-19.0001 616.1886,-12.0001"/>
</g>
</g>
</svg>
