<?xml version="1.0" encoding="UTF-8" standalone="no"?>
<!DOCTYPE svg PUBLIC "-//W3C//DTD SVG 1.1//EN"
 "http://www.w3.org/Graphics/SVG/1.1/DTD/svg11.dtd">
<!-- Generated by graphviz version 2.40.1 (20161225.0304)
 -->
<!-- Title: River::ProgramOptions Pages: 1 -->
<svg width="362pt" height="193pt"
 viewBox="0.00 0.00 362.00 193.00" xmlns="http://www.w3.org/2000/svg" xmlns:xlink="http://www.w3.org/1999/xlink">
<g id="graph0" class="graph" transform="scale(1 1) rotate(0) translate(4 189)">
<title>River::ProgramOptions</title>
<polygon fill="#ffffff" stroke="transparent" points="-4,4 -4,-189 358,-189 358,4 -4,4"/>
<!-- Node1 -->
<g id="node1" class="node">
<title>Node1</title>
<polygon fill="#bfbfbf" stroke="#000000" points="103.5,-.5 103.5,-57.5 230.5,-57.5 230.5,-.5 103.5,-.5"/>
<text text-anchor="middle" x="167" y="-45.5" font-family="Helvetica,sans-Serif" font-size="10.00" fill="#000000">River::ProgramOptions</text>
<polyline fill="none" stroke="#000000" points="103.5,-38.5 230.5,-38.5 "/>
<text text-anchor="middle" x="167" y="-26.5" font-family="Helvetica,sans-Serif" font-size="10.00" fill="#000000"> </text>
<polyline fill="none" stroke="#000000" points="103.5,-19.5 230.5,-19.5 "/>
<text text-anchor="middle" x="167" y="-7.5" font-family="Helvetica,sans-Serif" font-size="10.00" fill="#000000"> </text>
</g>
<!-- Node2 -->
<g id="node2" class="node">
<title>Node2</title>
<polygon fill="#ffffff" stroke="#bfbfbf" points="0,-127.5 0,-184.5 50,-184.5 50,-127.5 0,-127.5"/>
<text text-anchor="middle" x="25" y="-172.5" font-family="Helvetica,sans-Serif" font-size="10.00" fill="#000000">double</text>
<polyline fill="none" stroke="#bfbfbf" points="0,-165.5 50,-165.5 "/>
<text text-anchor="middle" x="25" y="-153.5" font-family="Helvetica,sans-Serif" font-size="10.00" fill="#000000"> </text>
<polyline fill="none" stroke="#bfbfbf" points="0,-146.5 50,-146.5 "/>
<text text-anchor="middle" x="25" y="-134.5" font-family="Helvetica,sans-Serif" font-size="10.00" fill="#000000"> </text>
</g>
<!-- Node2&#45;&gt;Node1 -->
<g id="edge1" class="edge">
<title>Node2&#45;&gt;Node1</title>
<path fill="none" stroke="#404040" d="M25.3515,-127.4664C26.9899,-110.6843 31.6763,-90.0654 44,-76 56.603,-61.6158 74.1042,-51.6137 91.9565,-44.6656"/>
<polygon fill="none" stroke="#404040" points="92.0693,-44.6258 96.3919,-38.8539 103.3824,-40.624 99.0597,-46.396 92.0693,-44.6258"/>
<text text-anchor="middle" x="103.5" y="-90" font-family="Helvetica,sans-Serif" font-size="10.00" fill="#000000"> +maximal_river_height</text>
</g>
<!-- Node3 -->
<g id="node3" class="node">
<title>Node3</title>
<polygon fill="#ffffff" stroke="#bfbfbf" points="148,-127.5 148,-184.5 186,-184.5 186,-127.5 148,-127.5"/>
<text text-anchor="middle" x="167" y="-172.5" font-family="Helvetica,sans-Serif" font-size="10.00" fill="#000000">bool</text>
<polyline fill="none" stroke="#bfbfbf" points="148,-165.5 186,-165.5 "/>
<text text-anchor="middle" x="167" y="-153.5" font-family="Helvetica,sans-Serif" font-size="10.00" fill="#000000"> </text>
<polyline fill="none" stroke="#bfbfbf" points="148,-146.5 186,-146.5 "/>
<text text-anchor="middle" x="167" y="-134.5" font-family="Helvetica,sans-Serif" font-size="10.00" fill="#000000"> </text>
</g>
<!-- Node3&#45;&gt;Node1 -->
<g id="edge2" class="edge">
<title>Node3&#45;&gt;Node1</title>
<path fill="none" stroke="#404040" d="M167,-127.4987C167,-110.5423 167,-88.7438 167,-69.9661"/>
<polygon fill="none" stroke="#404040" points="167.0001,-69.8456 163,-63.8456 167,-57.8456 171,-63.8455 167.0001,-69.8456"/>
<text text-anchor="middle" x="195" y="-95.5" font-family="Helvetica,sans-Serif" font-size="10.00" fill="#000000"> +save_vtk</text>
<text text-anchor="middle" x="195" y="-84.5" font-family="Helvetica,sans-Serif" font-size="10.00" fill="#000000">+verbose</text>
</g>
<!-- Node4 -->
<g id="node4" class="node">
<title>Node4</title>
<polygon fill="#ffffff" stroke="#bfbfbf" points="215.5,-127.5 215.5,-184.5 276.5,-184.5 276.5,-127.5 215.5,-127.5"/>
<text text-anchor="middle" x="246" y="-172.5" font-family="Helvetica,sans-Serif" font-size="10.00" fill="#000000">unsigned</text>
<polyline fill="none" stroke="#bfbfbf" points="215.5,-165.5 276.5,-165.5 "/>
<text text-anchor="middle" x="246" y="-153.5" font-family="Helvetica,sans-Serif" font-size="10.00" fill="#000000"> </text>
<polyline fill="none" stroke="#bfbfbf" points="215.5,-146.5 276.5,-146.5 "/>
<text text-anchor="middle" x="246" y="-134.5" font-family="Helvetica,sans-Serif" font-size="10.00" fill="#000000"> </text>
</g>
<!-- Node4&#45;&gt;Node1 -->
<g id="edge3" class="edge">
<title>Node4&#45;&gt;Node1</title>
<path fill="none" stroke="#404040" d="M242.4475,-127.2272C239.438,-111.1625 233.9459,-91.3538 224,-76 221.8383,-72.6629 219.3643,-69.4448 216.6853,-66.3658"/>
<polygon fill="none" stroke="#404040" points="216.5006,-66.1755 209.451,-64.6575 208.1409,-57.5664 215.1904,-59.0844 216.5006,-66.1755"/>
<text text-anchor="start" x="237" y="-101" font-family="Helvetica,sans-Serif" font-size="10.00" fill="#000000"> +number_of_backward</text>
<text text-anchor="middle" x="295.5" y="-90" font-family="Helvetica,sans-Serif" font-size="10.00" fill="#000000">_steps</text>
<text text-anchor="middle" x="295.5" y="-79" font-family="Helvetica,sans-Serif" font-size="10.00" fill="#000000">+number_of_steps</text>
</g>
</g>
</svg>
