<?xml version="1.0" encoding="UTF-8" standalone="no"?>
<!DOCTYPE svg PUBLIC "-//W3C//DTD SVG 1.1//EN"
 "http://www.w3.org/Graphics/SVG/1.1/DTD/svg11.dtd">
<!-- Generated by graphviz version 2.40.1 (20161225.0304)
 -->
<!-- Title: River::Point::norm Pages: 1 -->
<svg width="680pt" height="180pt"
 viewBox="0.00 0.00 680.00 180.00" xmlns="http://www.w3.org/2000/svg" xmlns:xlink="http://www.w3.org/1999/xlink">
<g id="graph0" class="graph" transform="scale(1 1) rotate(0) translate(4 176)">
<title>River::Point::norm</title>
<polygon fill="#ffffff" stroke="transparent" points="-4,4 -4,-176 676,-176 676,4 -4,4"/>
<!-- Node11 -->
<g id="node1" class="node">
<title>Node11</title>
<polygon fill="#bfbfbf" stroke="#000000" points="0,-76.5 0,-95.5 96,-95.5 96,-76.5 0,-76.5"/>
<text text-anchor="middle" x="48" y="-83.5" font-family="Helvetica,sans-Serif" font-size="10.00" fill="#000000">River::Point::norm</text>
</g>
<!-- Node12 -->
<g id="node2" class="node">
<title>Node12</title>
<g id="a_node2"><a xlink:href="classRiver_1_1Point.html#af33df3fef6945d57925744ad1b128cf4" target="_top" xlink:title="Returns normalized vector of current Point. ">
<polygon fill="#ffffff" stroke="#000000" points="132,-152.5 132,-171.5 269,-171.5 269,-152.5 132,-152.5"/>
<text text-anchor="middle" x="200.5" y="-159.5" font-family="Helvetica,sans-Serif" font-size="10.00" fill="#000000">River::Point::getNormalized</text>
</a>
</g>
</g>
<!-- Node11&#45;&gt;Node12 -->
<g id="edge1" class="edge">
<title>Node11&#45;&gt;Node12</title>
<path fill="none" stroke="#191970" d="M67.7112,-102.1146C84.0648,-114.7874 108.3831,-132.0719 132,-143 140.0643,-146.7315 149.0109,-149.867 157.7056,-152.4465"/>
<polygon fill="#191970" stroke="#191970" points="69.5142,-99.0782 59.5002,-95.6183 65.1709,-104.5678 69.5142,-99.0782"/>
</g>
<!-- Node13 -->
<g id="node3" class="node">
<title>Node13</title>
<g id="a_node3"><a xlink:href="classRiver_1_1Point.html#a5a80f76067f92be8434cafff8cf55380" target="_top" xlink:title="Returns Polar representation of vector. ">
<polygon fill="#ffffff" stroke="#000000" points="313.5,-76.5 313.5,-95.5 423.5,-95.5 423.5,-76.5 313.5,-76.5"/>
<text text-anchor="middle" x="368.5" y="-83.5" font-family="Helvetica,sans-Serif" font-size="10.00" fill="#000000">River::Point::getPolar</text>
</a>
</g>
</g>
<!-- Node11&#45;&gt;Node13 -->
<g id="edge2" class="edge">
<title>Node11&#45;&gt;Node13</title>
<path fill="none" stroke="#191970" d="M106.5893,-86C165.5025,-86 255.6396,-86 313.3136,-86"/>
<polygon fill="#191970" stroke="#191970" points="106.3291,-82.5001 96.3291,-86 106.3291,-89.5001 106.3291,-82.5001"/>
</g>
<!-- Node14 -->
<g id="node4" class="node">
<title>Node14</title>
<g id="a_node4"><a xlink:href="classRiver_1_1Point.html#aa6005dcc4bb5ded97a0b9a5eb28bc528" target="_top" xlink:title="Normalizes current Point. ">
<polygon fill="#ffffff" stroke="#000000" points="142.5,-114.5 142.5,-133.5 258.5,-133.5 258.5,-114.5 142.5,-114.5"/>
<text text-anchor="middle" x="200.5" y="-121.5" font-family="Helvetica,sans-Serif" font-size="10.00" fill="#000000">River::Point::normalize</text>
</a>
</g>
</g>
<!-- Node11&#45;&gt;Node14 -->
<g id="edge3" class="edge">
<title>Node11&#45;&gt;Node14</title>
<path fill="none" stroke="#191970" d="M96.3184,-98.04C117.6234,-103.3488 142.3042,-109.4988 162.2945,-114.4799"/>
<polygon fill="#191970" stroke="#191970" points="97.0318,-94.6108 86.4822,-95.589 95.3392,-101.4031 97.0318,-94.6108"/>
</g>
<!-- Node18 -->
<g id="node8" class="node">
<title>Node18</title>
<g id="a_node8"><a xlink:href="classRiver_1_1Point.html#a24deaa21918d47a5d4fea7e0a7e4b61b" target="_top" xlink:title="Returns angle. ">
<polygon fill="#ffffff" stroke="#000000" points="151.5,-38.5 151.5,-57.5 249.5,-57.5 249.5,-38.5 151.5,-38.5"/>
<text text-anchor="middle" x="200.5" y="-45.5" font-family="Helvetica,sans-Serif" font-size="10.00" fill="#000000">River::Point::angle</text>
</a>
</g>
</g>
<!-- Node11&#45;&gt;Node18 -->
<g id="edge7" class="edge">
<title>Node11&#45;&gt;Node18</title>
<path fill="none" stroke="#191970" d="M96.3184,-73.96C117.6234,-68.6512 142.3042,-62.5012 162.2945,-57.5201"/>
<polygon fill="#191970" stroke="#191970" points="95.3392,-70.5969 86.4822,-76.411 97.0318,-77.3892 95.3392,-70.5969"/>
</g>
<!-- Node20 -->
<g id="node10" class="node">
<title>Node20</title>
<g id="a_node10"><a xlink:href="classRiver_1_1BranchNew.html#a3d751724e8b8c4349c7ce25eee3a2995" target="_top" xlink:title="Reduces lenght of branch by lenght. ">
<polygon fill="#ffffff" stroke="#000000" points="135,-.5 135,-19.5 266,-19.5 266,-.5 135,-.5"/>
<text text-anchor="middle" x="200.5" y="-7.5" font-family="Helvetica,sans-Serif" font-size="10.00" fill="#000000">River::BranchNew::Shrink</text>
</a>
</g>
</g>
<!-- Node11&#45;&gt;Node20 -->
<g id="edge10" class="edge">
<title>Node11&#45;&gt;Node20</title>
<path fill="none" stroke="#191970" d="M67.7112,-69.8854C84.0648,-57.2126 108.3831,-39.9281 132,-29 140.0643,-25.2685 149.0109,-22.133 157.7056,-19.5535"/>
<polygon fill="#191970" stroke="#191970" points="65.1709,-67.4322 59.5002,-76.3817 69.5142,-72.9218 65.1709,-67.4322"/>
</g>
<!-- Node15 -->
<g id="node5" class="node">
<title>Node15</title>
<g id="a_node5"><a xlink:href="namespaceRiver.html#aa5a21f7169be41bacdb7bab009a2e7be" target="_top" xlink:title="Generates trees boundary. ">
<polygon fill="#ffffff" stroke="#000000" points="321.5,-114.5 321.5,-133.5 415.5,-133.5 415.5,-114.5 321.5,-114.5"/>
<text text-anchor="middle" x="368.5" y="-121.5" font-family="Helvetica,sans-Serif" font-size="10.00" fill="#000000">River::TreeVector</text>
</a>
</g>
</g>
<!-- Node14&#45;&gt;Node15 -->
<g id="edge4" class="edge">
<title>Node14&#45;&gt;Node15</title>
<path fill="none" stroke="#191970" d="M269.0196,-124C286.6252,-124 305.1707,-124 321.4164,-124"/>
<polygon fill="#191970" stroke="#191970" points="268.7868,-120.5001 258.7868,-124 268.7867,-127.5001 268.7868,-120.5001"/>
</g>
<!-- Node16 -->
<g id="node6" class="node">
<title>Node16</title>
<g id="a_node6"><a xlink:href="namespaceRiver.html#aa226e8aa15b4b21c82a2ea177e1faee6" target="_top" xlink:title="Finnal Boudary Geneartor Class. ">
<polygon fill="#ffffff" stroke="#000000" points="468,-114.5 468,-133.5 598,-133.5 598,-114.5 468,-114.5"/>
<text text-anchor="middle" x="533" y="-121.5" font-family="Helvetica,sans-Serif" font-size="10.00" fill="#000000">River::BoundaryGenerator</text>
</a>
</g>
</g>
<!-- Node15&#45;&gt;Node16 -->
<g id="edge5" class="edge">
<title>Node15&#45;&gt;Node16</title>
<path fill="none" stroke="#191970" d="M425.7825,-124C439.3381,-124 453.8932,-124 467.7721,-124"/>
<polygon fill="#191970" stroke="#191970" points="425.6391,-120.5001 415.6391,-124 425.6391,-127.5001 425.6391,-120.5001"/>
</g>
<!-- Node17 -->
<g id="node7" class="node">
<title>Node17</title>
<g id="a_node7"><a xlink:href="main_8cpp.html#a0ddf1224851353fc92bfbff6f499fa97" target="_top" xlink:title="Entry point of RiverSim program. ">
<polygon fill="#ffffff" stroke="#000000" points="634,-114.5 634,-133.5 672,-133.5 672,-114.5 634,-114.5"/>
<text text-anchor="middle" x="653" y="-121.5" font-family="Helvetica,sans-Serif" font-size="10.00" fill="#000000">main</text>
</a>
</g>
</g>
<!-- Node16&#45;&gt;Node17 -->
<g id="edge6" class="edge">
<title>Node16&#45;&gt;Node17</title>
<path fill="none" stroke="#191970" d="M608.2762,-124C617.7335,-124 626.6483,-124 633.9929,-124"/>
<polygon fill="#191970" stroke="#191970" points="608.2674,-120.5001 598.2674,-124 608.2674,-127.5001 608.2674,-120.5001"/>
</g>
<!-- Node18&#45;&gt;Node13 -->
<g id="edge9" class="edge">
<title>Node18&#45;&gt;Node13</title>
<path fill="none" stroke="#191970" d="M252.7757,-59.8243C276.4607,-65.1816 304.0903,-71.4311 326.4114,-76.4799"/>
<polygon fill="#191970" stroke="#191970" points="253.4193,-56.3815 242.8935,-57.589 251.8749,-63.209 253.4193,-56.3815"/>
</g>
<!-- Node19 -->
<g id="node9" class="node">
<title>Node19</title>
<g id="a_node9"><a xlink:href="classRiver_1_1Border.html#ad884663725156885e8e5def07a2e49c1" target="_top" xlink:title="Return normal line angle to boundary at point where is located source with source_id ...">
<polygon fill="#ffffff" stroke="#000000" points="305,-27 305,-57 432,-57 432,-27 305,-27"/>
<text text-anchor="start" x="313" y="-45" font-family="Helvetica,sans-Serif" font-size="10.00" fill="#000000">River::Border::GetSource</text>
<text text-anchor="middle" x="368.5" y="-34" font-family="Helvetica,sans-Serif" font-size="10.00" fill="#000000">NormalAngle</text>
</a>
</g>
</g>
<!-- Node18&#45;&gt;Node19 -->
<g id="edge8" class="edge">
<title>Node18&#45;&gt;Node19</title>
<path fill="none" stroke="#191970" d="M259.9504,-45.8768C274.5437,-45.3556 290.2208,-44.7957 304.9967,-44.268"/>
<polygon fill="#191970" stroke="#191970" points="259.4129,-42.3936 249.5442,-46.2484 259.6628,-49.3892 259.4129,-42.3936"/>
</g>
</g>
</svg>
