<?xml version="1.0" encoding="UTF-8" standalone="no"?>
<!DOCTYPE svg PUBLIC "-//W3C//DTD SVG 1.1//EN"
 "http://www.w3.org/Graphics/SVG/1.1/DTD/svg11.dtd">
<!-- Generated by graphviz version 2.40.1 (20161225.0304)
 -->
<!-- Title: River::Triangle Pages: 1 -->
<svg width="743pt" height="815pt"
 viewBox="0.00 0.00 742.81 815.00" xmlns="http://www.w3.org/2000/svg" xmlns:xlink="http://www.w3.org/1999/xlink">
<g id="graph0" class="graph" transform="scale(1 1) rotate(0) translate(4 811)">
<title>River::Triangle</title>
<polygon fill="#ffffff" stroke="transparent" points="-4,4 -4,-811 738.8123,-811 738.8123,4 -4,4"/>
<!-- Node1 -->
<g id="node1" class="node">
<title>Node1</title>
<polygon fill="#bfbfbf" stroke="#000000" points="217.3123,-.5 217.3123,-321.5 368.3123,-321.5 368.3123,-.5 217.3123,-.5"/>
<text text-anchor="middle" x="292.8123" y="-309.5" font-family="Helvetica,sans-Serif" font-size="10.00" fill="#000000">River::Triangle</text>
<polyline fill="none" stroke="#000000" points="217.3123,-302.5 368.3123,-302.5 "/>
<text text-anchor="start" x="225.3123" y="-290.5" font-family="Helvetica,sans-Serif" font-size="10.00" fill="#000000">+ Refine</text>
<text text-anchor="start" x="225.3123" y="-279.5" font-family="Helvetica,sans-Serif" font-size="10.00" fill="#000000">+ EncloseConvexHull</text>
<text text-anchor="start" x="225.3123" y="-268.5" font-family="Helvetica,sans-Serif" font-size="10.00" fill="#000000">+ AssignRegionalAttributes</text>
<text text-anchor="start" x="225.3123" y="-257.5" font-family="Helvetica,sans-Serif" font-size="10.00" fill="#000000">+ Quite</text>
<text text-anchor="start" x="225.3123" y="-246.5" font-family="Helvetica,sans-Serif" font-size="10.00" fill="#000000">&#45; ReadPSLG</text>
<text text-anchor="start" x="225.3123" y="-235.5" font-family="Helvetica,sans-Serif" font-size="10.00" fill="#000000">&#45; SuppressNodeFile</text>
<text text-anchor="start" x="225.3123" y="-224.5" font-family="Helvetica,sans-Serif" font-size="10.00" fill="#000000">&#45; OutputEdges</text>
<text text-anchor="start" x="225.3123" y="-213.5" font-family="Helvetica,sans-Serif" font-size="10.00" fill="#000000">&#45; ComputeNeighbours</text>
<text text-anchor="start" x="225.3123" y="-202.5" font-family="Helvetica,sans-Serif" font-size="10.00" fill="#000000">&#45; SuppressMehsFileNumbering</text>
<text text-anchor="start" x="225.3123" y="-191.5" font-family="Helvetica,sans-Serif" font-size="10.00" fill="#000000">&#45; SuppressHoles</text>
<text text-anchor="start" x="225.3123" y="-180.5" font-family="Helvetica,sans-Serif" font-size="10.00" fill="#000000">&#45; SuppressExactArithmetics</text>
<text text-anchor="start" x="225.3123" y="-169.5" font-family="Helvetica,sans-Serif" font-size="10.00" fill="#000000">&#45; SteinerPointsOnBoundary</text>
<text text-anchor="start" x="225.3123" y="-158.5" font-family="Helvetica,sans-Serif" font-size="10.00" fill="#000000">&#45; VoronoiDiagram</text>
<polyline fill="none" stroke="#000000" points="217.3123,-151.5 368.3123,-151.5 "/>
<text text-anchor="start" x="225.3123" y="-139.5" font-family="Helvetica,sans-Serif" font-size="10.00" fill="#000000">+ print_geometry()</text>
<text text-anchor="start" x="225.3123" y="-128.5" font-family="Helvetica,sans-Serif" font-size="10.00" fill="#000000">+ Triangle()</text>
<text text-anchor="start" x="225.3123" y="-117.5" font-family="Helvetica,sans-Serif" font-size="10.00" fill="#000000">+ ~Triangle()</text>
<text text-anchor="start" x="225.3123" y="-106.5" font-family="Helvetica,sans-Serif" font-size="10.00" fill="#000000">+ generate()</text>
<text text-anchor="start" x="225.3123" y="-95.5" font-family="Helvetica,sans-Serif" font-size="10.00" fill="#000000">&#45; set_all_values_to_default()</text>
<text text-anchor="start" x="225.3123" y="-84.5" font-family="Helvetica,sans-Serif" font-size="10.00" fill="#000000">&#45; free_allocated_memory()</text>
<text text-anchor="start" x="225.3123" y="-73.5" font-family="Helvetica,sans-Serif" font-size="10.00" fill="#000000">&#45; update_options()</text>
<text text-anchor="start" x="225.3123" y="-62.5" font-family="Helvetica,sans-Serif" font-size="10.00" fill="#000000">&#45; print_options()</text>
<text text-anchor="start" x="225.3123" y="-51.5" font-family="Helvetica,sans-Serif" font-size="10.00" fill="#000000">&#45; set_geometry()</text>
<text text-anchor="start" x="225.3123" y="-40.5" font-family="Helvetica,sans-Serif" font-size="10.00" fill="#000000">&#45; get_geometry()</text>
<text text-anchor="start" x="225.3123" y="-29.5" font-family="Helvetica,sans-Serif" font-size="10.00" fill="#000000">&#45; get_voronoi()</text>
<text text-anchor="start" x="225.3123" y="-18.5" font-family="Helvetica,sans-Serif" font-size="10.00" fill="#000000">&#45; tethex_to_io()</text>
<text text-anchor="start" x="225.3123" y="-7.5" font-family="Helvetica,sans-Serif" font-size="10.00" fill="#000000">&#45; io_to_tethex()</text>
</g>
<!-- Node2 -->
<g id="node2" class="node">
<title>Node2</title>
<polygon fill="#ffffff" stroke="#bfbfbf" points="4.3123,-749.5 4.3123,-806.5 49.3123,-806.5 49.3123,-749.5 4.3123,-749.5"/>
<text text-anchor="middle" x="26.8123" y="-794.5" font-family="Helvetica,sans-Serif" font-size="10.00" fill="#000000">double</text>
<polyline fill="none" stroke="#bfbfbf" points="4.3123,-787.5 49.3123,-787.5 "/>
<text text-anchor="middle" x="26.8123" y="-775.5" font-family="Helvetica,sans-Serif" font-size="10.00" fill="#000000"> </text>
<polyline fill="none" stroke="#bfbfbf" points="4.3123,-768.5 49.3123,-768.5 "/>
<text text-anchor="middle" x="26.8123" y="-756.5" font-family="Helvetica,sans-Serif" font-size="10.00" fill="#000000"> </text>
</g>
<!-- Node2&#45;&gt;Node1 -->
<g id="edge1" class="edge">
<title>Node2&#45;&gt;Node1</title>
<path fill="none" stroke="#404040" d="M19.156,-749.2333C6.0705,-694.5525 -15.9902,-572.708 18.8123,-479 56.433,-377.7039 142.3941,-287.0685 208.0769,-228.7267"/>
<polygon fill="none" stroke="#404040" points="208.1871,-228.6299 210.0556,-221.6651 217.2033,-220.711 215.3348,-227.6759 208.1871,-228.6299"/>
<text text-anchor="middle" x="51.3123" y="-538.5" font-family="Helvetica,sans-Serif" font-size="10.00" fill="#000000"> +MaxTriaArea</text>
<text text-anchor="middle" x="51.3123" y="-527.5" font-family="Helvetica,sans-Serif" font-size="10.00" fill="#000000">+MinAngle</text>
</g>
<!-- Node7 -->
<g id="node7" class="node">
<title>Node7</title>
<g id="a_node7"><a xlink:href="classRiver_1_1MeshParams.html" target="_top" xlink:title="Adaptive mesh area constraint function. ">
<polygon fill="#ffffff" stroke="#000000" points="92.8123,-507 92.8123,-564 196.8123,-564 196.8123,-507 92.8123,-507"/>
<text text-anchor="middle" x="144.8123" y="-552" font-family="Helvetica,sans-Serif" font-size="10.00" fill="#000000">River::MeshParams</text>
<polyline fill="none" stroke="#000000" points="92.8123,-545 196.8123,-545 "/>
<text text-anchor="middle" x="144.8123" y="-533" font-family="Helvetica,sans-Serif" font-size="10.00" fill="#000000"> </text>
<polyline fill="none" stroke="#000000" points="92.8123,-526 196.8123,-526 "/>
<text text-anchor="start" x="100.8123" y="-514" font-family="Helvetica,sans-Serif" font-size="10.00" fill="#000000">+ operator()()</text>
</a>
</g>
</g>
<!-- Node2&#45;&gt;Node7 -->
<g id="edge8" class="edge">
<title>Node2&#45;&gt;Node7</title>
<path fill="none" stroke="#404040" d="M27.4191,-749.3384C29.3168,-714.2783 36.3943,-654.1521 61.8123,-610 64.6973,-604.9887 82.9614,-588.4333 101.6243,-572.1982"/>
<polygon fill="none" stroke="#404040" points="101.6749,-572.1544 103.5975,-565.2043 110.7524,-564.3059 108.8298,-571.256 101.6749,-572.1544"/>
<text text-anchor="middle" x="101.3123" y="-695.5" font-family="Helvetica,sans-Serif" font-size="10.00" fill="#000000"> +min_area</text>
<text text-anchor="middle" x="101.3123" y="-684.5" font-family="Helvetica,sans-Serif" font-size="10.00" fill="#000000">+refinment_radius</text>
<text text-anchor="middle" x="101.3123" y="-673.5" font-family="Helvetica,sans-Serif" font-size="10.00" fill="#000000">+max_area</text>
<text text-anchor="middle" x="101.3123" y="-662.5" font-family="Helvetica,sans-Serif" font-size="10.00" fill="#000000">+exponant</text>
<text text-anchor="middle" x="101.3123" y="-651.5" font-family="Helvetica,sans-Serif" font-size="10.00" fill="#000000">+eps</text>
<text text-anchor="middle" x="101.3123" y="-640.5" font-family="Helvetica,sans-Serif" font-size="10.00" fill="#000000">+min_angle</text>
</g>
<!-- Node3 -->
<g id="node3" class="node">
<title>Node3</title>
<polygon fill="#ffffff" stroke="#bfbfbf" points="215.3123,-507 215.3123,-564 256.3123,-564 256.3123,-507 215.3123,-507"/>
<text text-anchor="middle" x="235.8123" y="-552" font-family="Helvetica,sans-Serif" font-size="10.00" fill="#000000">string</text>
<polyline fill="none" stroke="#bfbfbf" points="215.3123,-545 256.3123,-545 "/>
<text text-anchor="middle" x="235.8123" y="-533" font-family="Helvetica,sans-Serif" font-size="10.00" fill="#000000"> </text>
<polyline fill="none" stroke="#bfbfbf" points="215.3123,-526 256.3123,-526 "/>
<text text-anchor="middle" x="235.8123" y="-514" font-family="Helvetica,sans-Serif" font-size="10.00" fill="#000000"> </text>
</g>
<!-- Node3&#45;&gt;Node1 -->
<g id="edge2" class="edge">
<title>Node3&#45;&gt;Node1</title>
<path fill="none" stroke="#404040" d="M234.2574,-506.8026C232.703,-468.5107 231.6898,-398.7116 240.8123,-340 241.1516,-337.8165 241.5098,-335.6222 241.8856,-333.4192"/>
<polygon fill="none" stroke="#404040" points="241.8945,-333.37 239.0409,-326.7476 244.0564,-321.5664 246.91,-328.1889 241.8945,-333.37"/>
<text text-anchor="middle" x="259.8123" y="-398" font-family="Helvetica,sans-Serif" font-size="10.00" fill="#000000"> &#45;options</text>
</g>
<!-- Node4 -->
<g id="node4" class="node">
<title>Node4</title>
<g id="a_node4"><a xlink:href="structtriangulateio.html" target="_top" xlink:title="Used to pass data into and out of the triangulate() procedure. ">
<polygon fill="#ffffff" stroke="#000000" points="422.8123,-479.5 422.8123,-591.5 560.8123,-591.5 560.8123,-479.5 422.8123,-479.5"/>
<text text-anchor="middle" x="491.8123" y="-579.5" font-family="Helvetica,sans-Serif" font-size="10.00" fill="#000000">triangulateio</text>
<polyline fill="none" stroke="#000000" points="422.8123,-572.5 560.8123,-572.5 "/>
<text text-anchor="start" x="430.8123" y="-560.5" font-family="Helvetica,sans-Serif" font-size="10.00" fill="#000000">+ numberofpoints</text>
<text text-anchor="start" x="430.8123" y="-549.5" font-family="Helvetica,sans-Serif" font-size="10.00" fill="#000000">+ numberoftriangles</text>
<text text-anchor="start" x="430.8123" y="-538.5" font-family="Helvetica,sans-Serif" font-size="10.00" fill="#000000">+ numberofcorners</text>
<text text-anchor="start" x="430.8123" y="-527.5" font-family="Helvetica,sans-Serif" font-size="10.00" fill="#000000">+ numberoftriangleattributes</text>
<text text-anchor="start" x="430.8123" y="-516.5" font-family="Helvetica,sans-Serif" font-size="10.00" fill="#000000">+ edgelist</text>
<text text-anchor="start" x="430.8123" y="-505.5" font-family="Helvetica,sans-Serif" font-size="10.00" fill="#000000">+ edgemarkerlist</text>
<polyline fill="none" stroke="#000000" points="422.8123,-498.5 560.8123,-498.5 "/>
<text text-anchor="middle" x="491.8123" y="-486.5" font-family="Helvetica,sans-Serif" font-size="10.00" fill="#000000"> </text>
</a>
</g>
</g>
<!-- Node4&#45;&gt;Node1 -->
<g id="edge3" class="edge">
<title>Node4&#45;&gt;Node1</title>
<path fill="none" stroke="#404040" d="M462.02,-479.4336C438.7473,-435.6364 405.2499,-372.5973 374.1907,-314.1466"/>
<polygon fill="none" stroke="#404040" points="374.0535,-313.8885 367.7058,-310.4671 368.4226,-303.2917 374.7704,-306.7131 374.0535,-313.8885"/>
<text text-anchor="middle" x="465.8123" y="-398" font-family="Helvetica,sans-Serif" font-size="10.00" fill="#000000"> &#45;vorout</text>
</g>
<!-- Node5 -->
<g id="node5" class="node">
<title>Node5</title>
<polygon fill="#ffffff" stroke="#bfbfbf" points="303.3123,-749.5 303.3123,-806.5 332.3123,-806.5 332.3123,-749.5 303.3123,-749.5"/>
<text text-anchor="middle" x="317.8123" y="-794.5" font-family="Helvetica,sans-Serif" font-size="10.00" fill="#000000">int</text>
<polyline fill="none" stroke="#bfbfbf" points="303.3123,-787.5 332.3123,-787.5 "/>
<text text-anchor="middle" x="317.8123" y="-775.5" font-family="Helvetica,sans-Serif" font-size="10.00" fill="#000000"> </text>
<polyline fill="none" stroke="#bfbfbf" points="303.3123,-768.5 332.3123,-768.5 "/>
<text text-anchor="middle" x="317.8123" y="-756.5" font-family="Helvetica,sans-Serif" font-size="10.00" fill="#000000"> </text>
</g>
<!-- Node5&#45;&gt;Node1 -->
<g id="edge6" class="edge">
<title>Node5&#45;&gt;Node1</title>
<path fill="none" stroke="#404040" d="M314.7676,-749.3629C311.0217,-712.8721 304.7933,-647.8293 301.8123,-592 297.2717,-506.9622 294.9895,-412.3726 293.855,-333.5216"/>
<polygon fill="none" stroke="#404040" points="293.8549,-333.5049 289.7725,-327.5607 293.6892,-321.5061 297.7717,-327.4503 293.8549,-333.5049"/>
<text text-anchor="middle" x="357.8123" y="-538.5" font-family="Helvetica,sans-Serif" font-size="10.00" fill="#000000"> &#45;dim</text>
<text text-anchor="middle" x="357.8123" y="-527.5" font-family="Helvetica,sans-Serif" font-size="10.00" fill="#000000">&#45;MaxNumOfSteinerPoints</text>
</g>
<!-- Node5&#45;&gt;Node4 -->
<g id="edge4" class="edge">
<title>Node5&#45;&gt;Node4</title>
<path fill="none" stroke="#404040" d="M322.1822,-749.2228C328.9072,-713.2243 344.7683,-651.3047 378.8123,-610 388.702,-598.0012 395.7134,-600.3783 408.8123,-592 409.9504,-591.2721 411.0956,-590.5364 412.2465,-589.7942"/>
<polygon fill="none" stroke="#404040" points="412.6658,-589.521 415.5075,-582.8934 422.7183,-582.9675 419.8765,-589.5951 412.6658,-589.521"/>
<text text-anchor="middle" x="433.3123" y="-723" font-family="Helvetica,sans-Serif" font-size="10.00" fill="#000000"> +numberofsegments</text>
<text text-anchor="middle" x="433.3123" y="-712" font-family="Helvetica,sans-Serif" font-size="10.00" fill="#000000">+segmentmarkerlist</text>
<text text-anchor="middle" x="433.3123" y="-701" font-family="Helvetica,sans-Serif" font-size="10.00" fill="#000000">+numberofedges</text>
<text text-anchor="middle" x="433.3123" y="-690" font-family="Helvetica,sans-Serif" font-size="10.00" fill="#000000">+segmentlist</text>
<text text-anchor="middle" x="433.3123" y="-679" font-family="Helvetica,sans-Serif" font-size="10.00" fill="#000000">+pointmarkerlist</text>
<text text-anchor="middle" x="433.3123" y="-668" font-family="Helvetica,sans-Serif" font-size="10.00" fill="#000000">+numberofpointattributes</text>
<text text-anchor="middle" x="433.3123" y="-657" font-family="Helvetica,sans-Serif" font-size="10.00" fill="#000000">+trianglelist</text>
<text text-anchor="middle" x="433.3123" y="-646" font-family="Helvetica,sans-Serif" font-size="10.00" fill="#000000">+numberofholes</text>
<text text-anchor="middle" x="433.3123" y="-635" font-family="Helvetica,sans-Serif" font-size="10.00" fill="#000000">+neighborlist</text>
<text text-anchor="middle" x="433.3123" y="-624" font-family="Helvetica,sans-Serif" font-size="10.00" fill="#000000">+numberofregions</text>
<text text-anchor="middle" x="433.3123" y="-613" font-family="Helvetica,sans-Serif" font-size="10.00" fill="#000000">...</text>
</g>
<!-- Node6 -->
<g id="node6" class="node">
<title>Node6</title>
<polygon fill="#ffffff" stroke="#bfbfbf" points="470.3123,-749.5 470.3123,-806.5 513.3123,-806.5 513.3123,-749.5 470.3123,-749.5"/>
<text text-anchor="middle" x="491.8123" y="-794.5" font-family="Helvetica,sans-Serif" font-size="10.00" fill="#000000">REAL</text>
<polyline fill="none" stroke="#bfbfbf" points="470.3123,-787.5 513.3123,-787.5 "/>
<text text-anchor="middle" x="491.8123" y="-775.5" font-family="Helvetica,sans-Serif" font-size="10.00" fill="#000000"> </text>
<polyline fill="none" stroke="#bfbfbf" points="470.3123,-768.5 513.3123,-768.5 "/>
<text text-anchor="middle" x="491.8123" y="-756.5" font-family="Helvetica,sans-Serif" font-size="10.00" fill="#000000"> </text>
</g>
<!-- Node6&#45;&gt;Node4 -->
<g id="edge5" class="edge">
<title>Node6&#45;&gt;Node4</title>
<path fill="none" stroke="#404040" d="M491.8123,-749.2298C491.8123,-713.6823 491.8123,-652.0253 491.8123,-604.0424"/>
<polygon fill="none" stroke="#404040" points="491.8124,-603.8489 487.8124,-597.8489 491.8123,-591.8489 495.8124,-597.8488 491.8124,-603.8489"/>
<text text-anchor="middle" x="534.8123" y="-701" font-family="Helvetica,sans-Serif" font-size="10.00" fill="#000000"> +regionlist</text>
<text text-anchor="middle" x="534.8123" y="-690" font-family="Helvetica,sans-Serif" font-size="10.00" fill="#000000">+pointattributelist</text>
<text text-anchor="middle" x="534.8123" y="-679" font-family="Helvetica,sans-Serif" font-size="10.00" fill="#000000">+pointlist</text>
<text text-anchor="middle" x="534.8123" y="-668" font-family="Helvetica,sans-Serif" font-size="10.00" fill="#000000">+trianglearealist</text>
<text text-anchor="middle" x="534.8123" y="-657" font-family="Helvetica,sans-Serif" font-size="10.00" fill="#000000">+normlist</text>
<text text-anchor="middle" x="534.8123" y="-646" font-family="Helvetica,sans-Serif" font-size="10.00" fill="#000000">+triangleattributelist</text>
<text text-anchor="middle" x="534.8123" y="-635" font-family="Helvetica,sans-Serif" font-size="10.00" fill="#000000">+holelist</text>
</g>
<!-- Node7&#45;&gt;Node1 -->
<g id="edge7" class="edge">
<title>Node7&#45;&gt;Node1</title>
<path fill="none" stroke="#404040" d="M152.9631,-506.947C164.2021,-468.5215 185.7058,-398.2623 208.8123,-340 210.0166,-336.9636 211.2474,-333.9055 212.501,-330.8317"/>
<polygon fill="none" stroke="#404040" points="212.5428,-330.7307 211.1426,-323.6568 217.1338,-319.6436 218.534,-326.7175 212.5428,-330.7307"/>
<text text-anchor="middle" x="219.3123" y="-398" font-family="Helvetica,sans-Serif" font-size="10.00" fill="#000000"> +ref</text>
</g>
<!-- Node8 -->
<g id="node8" class="node">
<title>Node8</title>
<polygon fill="#ffffff" stroke="#bfbfbf" points="88.3123,-749.5 88.3123,-806.5 201.3123,-806.5 201.3123,-749.5 88.3123,-749.5"/>
<text text-anchor="middle" x="144.8123" y="-794.5" font-family="Helvetica,sans-Serif" font-size="10.00" fill="#000000">vector&lt; River::Point &gt;</text>
<polyline fill="none" stroke="#bfbfbf" points="88.3123,-787.5 201.3123,-787.5 "/>
<text text-anchor="middle" x="144.8123" y="-775.5" font-family="Helvetica,sans-Serif" font-size="10.00" fill="#000000"> </text>
<polyline fill="none" stroke="#bfbfbf" points="88.3123,-768.5 201.3123,-768.5 "/>
<text text-anchor="middle" x="144.8123" y="-756.5" font-family="Helvetica,sans-Serif" font-size="10.00" fill="#000000"> </text>
</g>
<!-- Node8&#45;&gt;Node7 -->
<g id="edge9" class="edge">
<title>Node8&#45;&gt;Node7</title>
<path fill="none" stroke="#404040" d="M144.8123,-749.2298C144.8123,-706.2959 144.8123,-625.2742 144.8123,-576.2591"/>
<polygon fill="none" stroke="#404040" points="144.8124,-576.2328 140.8124,-570.2328 144.8123,-564.2328 148.8124,-570.2327 144.8124,-576.2328"/>
<text text-anchor="middle" x="170.8123" y="-668" font-family="Helvetica,sans-Serif" font-size="10.00" fill="#000000"> +tip_points</text>
</g>
<!-- Node9 -->
<g id="node9" class="node">
<title>Node9</title>
<polygon fill="#ffffff" stroke="#bfbfbf" points="579.3123,-507 579.3123,-564 614.3123,-564 614.3123,-507 579.3123,-507"/>
<text text-anchor="middle" x="596.8123" y="-552" font-family="Helvetica,sans-Serif" font-size="10.00" fill="#000000">bool</text>
<polyline fill="none" stroke="#bfbfbf" points="579.3123,-545 614.3123,-545 "/>
<text text-anchor="middle" x="596.8123" y="-533" font-family="Helvetica,sans-Serif" font-size="10.00" fill="#000000"> </text>
<polyline fill="none" stroke="#bfbfbf" points="579.3123,-526 614.3123,-526 "/>
<text text-anchor="middle" x="596.8123" y="-514" font-family="Helvetica,sans-Serif" font-size="10.00" fill="#000000"> </text>
</g>
<!-- Node9&#45;&gt;Node1 -->
<g id="edge10" class="edge">
<title>Node9&#45;&gt;Node1</title>
<path fill="none" stroke="#404040" d="M587.4403,-506.7682C583.2171,-497.0734 577.4307,-486.7556 569.8123,-479 557.2767,-466.2385 545.8588,-474.2243 533.8123,-461 494.9614,-418.3502 519.2945,-387.6792 486.8123,-340 457.1987,-296.5315 415.1441,-256.0602 377.7563,-224.636"/>
<polygon fill="none" stroke="#404040" points="377.5989,-224.5055 370.427,-223.7544 368.3619,-216.8453 375.5338,-217.5964 377.5989,-224.5055"/>
<text text-anchor="middle" x="594.3123" y="-453" font-family="Helvetica,sans-Serif" font-size="10.00" fill="#000000"> +Verbose</text>
<text text-anchor="middle" x="594.3123" y="-442" font-family="Helvetica,sans-Serif" font-size="10.00" fill="#000000">+DelaunayTriangles</text>
<text text-anchor="middle" x="594.3123" y="-431" font-family="Helvetica,sans-Serif" font-size="10.00" fill="#000000">+CustomConstraint</text>
<text text-anchor="middle" x="594.3123" y="-420" font-family="Helvetica,sans-Serif" font-size="10.00" fill="#000000">&#45;SteinerPointsOnSegments</text>
<text text-anchor="middle" x="594.3123" y="-409" font-family="Helvetica,sans-Serif" font-size="10.00" fill="#000000">+CheckFinalMesh</text>
<text text-anchor="middle" x="594.3123" y="-398" font-family="Helvetica,sans-Serif" font-size="10.00" fill="#000000">+AreaConstrain</text>
<text text-anchor="middle" x="594.3123" y="-387" font-family="Helvetica,sans-Serif" font-size="10.00" fill="#000000">&#45;SuppressBoundaryMarkers</text>
<text text-anchor="middle" x="594.3123" y="-376" font-family="Helvetica,sans-Serif" font-size="10.00" fill="#000000">&#45;SuppressEleFile</text>
<text text-anchor="middle" x="594.3123" y="-365" font-family="Helvetica,sans-Serif" font-size="10.00" fill="#000000">&#45;SuppressPolyFile</text>
<text text-anchor="middle" x="594.3123" y="-354" font-family="Helvetica,sans-Serif" font-size="10.00" fill="#000000">+ConstrainAngle</text>
<text text-anchor="middle" x="594.3123" y="-343" font-family="Helvetica,sans-Serif" font-size="10.00" fill="#000000">...</text>
</g>
<!-- Node10 -->
<g id="node10" class="node">
<title>Node10</title>
<polygon fill="#ffffff" stroke="#bfbfbf" points="648.8123,-507 648.8123,-564 704.8123,-564 704.8123,-507 648.8123,-507"/>
<text text-anchor="middle" x="676.8123" y="-552" font-family="Helvetica,sans-Serif" font-size="10.00" fill="#000000">algorithm</text>
<polyline fill="none" stroke="#bfbfbf" points="648.8123,-545 704.8123,-545 "/>
<text text-anchor="middle" x="676.8123" y="-533" font-family="Helvetica,sans-Serif" font-size="10.00" fill="#000000"> </text>
<polyline fill="none" stroke="#bfbfbf" points="648.8123,-526 704.8123,-526 "/>
<text text-anchor="middle" x="676.8123" y="-514" font-family="Helvetica,sans-Serif" font-size="10.00" fill="#000000"> </text>
</g>
<!-- Node10&#45;&gt;Node1 -->
<g id="edge11" class="edge">
<title>Node10&#45;&gt;Node1</title>
<path fill="none" stroke="#404040" d="M681.5692,-506.6628C686.6921,-465.6881 689.9273,-390.0477 654.8123,-340 590.3923,-248.1853 465.1219,-201.2209 380.2089,-178.9067"/>
<polygon fill="none" stroke="#404040" points="380.133,-178.8874 373.3301,-181.2792 368.5057,-175.9196 375.3086,-173.5277 380.133,-178.8874"/>
<text text-anchor="middle" x="709.3123" y="-398" font-family="Helvetica,sans-Serif" font-size="10.00" fill="#000000"> +Algorithm</text>
</g>
</g>
</svg>
