<?xml version="1.0" encoding="UTF-8" standalone="no"?>
<!DOCTYPE svg PUBLIC "-//W3C//DTD SVG 1.1//EN"
 "http://www.w3.org/Graphics/SVG/1.1/DTD/svg11.dtd">
<!-- Generated by graphviz version 2.40.1 (20161225.0304)
 -->
<!-- Title: nlohmann::detail::binary_reader::binary_reader Pages: 1 -->
<svg width="597pt" height="88pt"
 viewBox="0.00 0.00 597.00 88.00" xmlns="http://www.w3.org/2000/svg" xmlns:xlink="http://www.w3.org/1999/xlink">
<g id="graph0" class="graph" transform="scale(1 1) rotate(0) translate(4 84)">
<title>nlohmann::detail::binary_reader::binary_reader</title>
<polygon fill="#ffffff" stroke="transparent" points="-4,4 -4,-84 593,-84 593,4 -4,4"/>
<!-- Node0 -->
<g id="node1" class="node">
<title>Node0</title>
<polygon fill="#bfbfbf" stroke="#000000" points="0,-24.5 0,-54.5 120,-54.5 120,-24.5 0,-24.5"/>
<text text-anchor="start" x="8" y="-42.5" font-family="Helvetica,sans-Serif" font-size="10.00" fill="#000000">nlohmann::detail::binary</text>
<text text-anchor="middle" x="60" y="-31.5" font-family="Helvetica,sans-Serif" font-size="10.00" fill="#000000">_reader::binary_reader</text>
</g>
<!-- Node1 -->
<g id="node2" class="node">
<title>Node1</title>
<g id="a_node2"><a xlink:href="namespacenlohmann_1_1detail.html#a59fca69799f6b9e366710cb9043aa77d" target="_top" xlink:title="nlohmann::detail::void">
<polygon fill="#ffffff" stroke="#000000" points="156,-30 156,-49 268,-49 268,-30 156,-30"/>
<text text-anchor="middle" x="212" y="-37" font-family="Helvetica,sans-Serif" font-size="10.00" fill="#000000">nlohmann::detail::void</text>
</a>
</g>
</g>
<!-- Node0&#45;&gt;Node1 -->
<g id="edge1" class="edge">
<title>Node0&#45;&gt;Node1</title>
<path fill="none" stroke="#191970" d="M120.0744,-39.5C128.4517,-39.5 137.0992,-39.5 145.5848,-39.5"/>
<polygon fill="#191970" stroke="#191970" points="145.826,-43.0001 155.8259,-39.5 145.8259,-36.0001 145.826,-43.0001"/>
</g>
<!-- Node2 -->
<g id="node3" class="node">
<title>Node2</title>
<g id="a_node3"><a xlink:href="classnlohmann_1_1detail_1_1type__error.html#aecc083aea4b698c33d042670ba50c10f" target="_top" xlink:title="nlohmann::detail::type\l_error::create">
<polygon fill="#ffffff" stroke="#000000" points="304,-49.5 304,-79.5 417,-79.5 417,-49.5 304,-49.5"/>
<text text-anchor="start" x="312" y="-67.5" font-family="Helvetica,sans-Serif" font-size="10.00" fill="#000000">nlohmann::detail::type</text>
<text text-anchor="middle" x="360.5" y="-56.5" font-family="Helvetica,sans-Serif" font-size="10.00" fill="#000000">_error::create</text>
</a>
</g>
</g>
<!-- Node1&#45;&gt;Node2 -->
<g id="edge2" class="edge">
<title>Node1&#45;&gt;Node2</title>
<path fill="none" stroke="#191970" d="M268.1415,-48.9514C276.5243,-50.3627 285.235,-51.8291 293.8099,-53.2727"/>
<polygon fill="#191970" stroke="#191970" points="293.3435,-56.7434 303.7858,-54.9522 294.5057,-49.8405 293.3435,-56.7434"/>
</g>
<!-- Node4 -->
<g id="node5" class="node">
<title>Node4</title>
<g id="a_node5"><a xlink:href="namespacenlohmann_1_1detail.html#a40f7bb070a60e8ba14fffb9c117fcbd8" target="_top" xlink:title="nlohmann::detail::from\l_json_array_impl">
<polygon fill="#ffffff" stroke="#000000" points="304,-.5 304,-30.5 417,-30.5 417,-.5 304,-.5"/>
<text text-anchor="start" x="312" y="-18.5" font-family="Helvetica,sans-Serif" font-size="10.00" fill="#000000">nlohmann::detail::from</text>
<text text-anchor="middle" x="360.5" y="-7.5" font-family="Helvetica,sans-Serif" font-size="10.00" fill="#000000">_json_array_impl</text>
</a>
</g>
</g>
<!-- Node1&#45;&gt;Node4 -->
<g id="edge4" class="edge">
<title>Node1&#45;&gt;Node4</title>
<path fill="none" stroke="#191970" d="M268.1415,-30.4266C276.5243,-29.0718 285.235,-27.664 293.8099,-26.2782"/>
<polygon fill="#191970" stroke="#191970" points="294.4724,-29.7166 303.7858,-24.6659 293.3555,-22.8063 294.4724,-29.7166"/>
</g>
<!-- Node3 -->
<g id="node4" class="node">
<title>Node3</title>
<g id="a_node4"><a xlink:href="classnlohmann_1_1detail_1_1exception.html#abf41a7e9178356314082284e6cfea278" target="_top" xlink:title="nlohmann::detail::exception\l::name">
<polygon fill="#ffffff" stroke="#000000" points="453,-49.5 453,-79.5 589,-79.5 589,-49.5 453,-49.5"/>
<text text-anchor="start" x="461" y="-67.5" font-family="Helvetica,sans-Serif" font-size="10.00" fill="#000000">nlohmann::detail::exception</text>
<text text-anchor="middle" x="521" y="-56.5" font-family="Helvetica,sans-Serif" font-size="10.00" fill="#000000">::name</text>
</a>
</g>
</g>
<!-- Node2&#45;&gt;Node3 -->
<g id="edge3" class="edge">
<title>Node2&#45;&gt;Node3</title>
<path fill="none" stroke="#191970" d="M417.0863,-64.5C425.3895,-64.5 434.0638,-64.5 442.7078,-64.5"/>
<polygon fill="#191970" stroke="#191970" points="442.8172,-68.0001 452.8172,-64.5 442.8172,-61.0001 442.8172,-68.0001"/>
</g>
</g>
</svg>
