<?xml version="1.0" encoding="UTF-8" standalone="no"?>
<!DOCTYPE svg PUBLIC "-//W3C//DTD SVG 1.1//EN"
 "http://www.w3.org/Graphics/SVG/1.1/DTD/svg11.dtd">
<!-- Generated by graphviz version 2.40.1 (20161225.0304)
 -->
<!-- Title: River::Solver::integrate Pages: 1 -->
<svg width="391pt" height="66pt"
 viewBox="0.00 0.00 391.00 66.00" xmlns="http://www.w3.org/2000/svg" xmlns:xlink="http://www.w3.org/1999/xlink">
<g id="graph0" class="graph" transform="scale(1 1) rotate(0) translate(4 62)">
<title>River::Solver::integrate</title>
<polygon fill="#ffffff" stroke="transparent" points="-4,4 -4,-62 387,-62 387,4 -4,4"/>
<!-- Node33 -->
<g id="node1" class="node">
<title>Node33</title>
<polygon fill="#bfbfbf" stroke="#000000" points="0,-19.5 0,-38.5 117,-38.5 117,-19.5 0,-19.5"/>
<text text-anchor="middle" x="58.5" y="-26.5" font-family="Helvetica,sans-Serif" font-size="10.00" fill="#000000">River::Solver::integrate</text>
</g>
<!-- Node34 -->
<g id="node2" class="node">
<title>Node34</title>
<g id="a_node2"><a xlink:href="classRiver_1_1Point.html#a24deaa21918d47a5d4fea7e0a7e4b61b" target="_top" xlink:title="River::Point::angle">
<polygon fill="#ffffff" stroke="#000000" points="153,-38.5 153,-57.5 251,-57.5 251,-38.5 153,-38.5"/>
<text text-anchor="middle" x="202" y="-45.5" font-family="Helvetica,sans-Serif" font-size="10.00" fill="#000000">River::Point::angle</text>
</a>
</g>
</g>
<!-- Node33&#45;&gt;Node34 -->
<g id="edge1" class="edge">
<title>Node33&#45;&gt;Node34</title>
<path fill="none" stroke="#191970" d="M117.281,-36.7828C125.6452,-37.8903 134.2526,-39.03 142.6279,-40.1389"/>
<polygon fill="#191970" stroke="#191970" points="142.3241,-43.6291 152.697,-41.4721 143.243,-36.6897 142.3241,-43.6291"/>
</g>
<!-- Node36 -->
<g id="node4" class="node">
<title>Node36</title>
<g id="a_node4"><a xlink:href="classRiver_1_1Model.html#aab5fcb5b57e1306053e5db9d6b6f15c0" target="_top" xlink:title="River::Model::Gain">
<polygon fill="#ffffff" stroke="#000000" points="153,-.5 153,-19.5 251,-19.5 251,-.5 153,-.5"/>
<text text-anchor="middle" x="202" y="-7.5" font-family="Helvetica,sans-Serif" font-size="10.00" fill="#000000">River::Model::Gain</text>
</a>
</g>
</g>
<!-- Node33&#45;&gt;Node36 -->
<g id="edge3" class="edge">
<title>Node33&#45;&gt;Node36</title>
<path fill="none" stroke="#191970" d="M117.281,-21.2172C125.6452,-20.1097 134.2526,-18.97 142.6279,-17.8611"/>
<polygon fill="#191970" stroke="#191970" points="143.243,-21.3103 152.697,-16.5279 142.3241,-14.3709 143.243,-21.3103"/>
</g>
<!-- Node35 -->
<g id="node3" class="node">
<title>Node35</title>
<g id="a_node3"><a xlink:href="classRiver_1_1Point.html#a96d6c70f36acd051f5885163bc2de5b5" target="_top" xlink:title="River::Point::norm">
<polygon fill="#ffffff" stroke="#000000" points="287,-38.5 287,-57.5 383,-57.5 383,-38.5 287,-38.5"/>
<text text-anchor="middle" x="335" y="-45.5" font-family="Helvetica,sans-Serif" font-size="10.00" fill="#000000">River::Point::norm</text>
</a>
</g>
</g>
<!-- Node34&#45;&gt;Node35 -->
<g id="edge2" class="edge">
<title>Node34&#45;&gt;Node35</title>
<path fill="none" stroke="#191970" d="M251.1464,-48C259.4584,-48 268.1593,-48 276.6784,-48"/>
<polygon fill="#191970" stroke="#191970" points="276.9414,-51.5001 286.9414,-48 276.9413,-44.5001 276.9414,-51.5001"/>
</g>
</g>
</svg>
