<?xml version="1.0" encoding="UTF-8" standalone="no"?>
<!DOCTYPE svg PUBLIC "-//W3C//DTD SVG 1.1//EN"
 "http://www.w3.org/Graphics/SVG/1.1/DTD/svg11.dtd">
<!-- Generated by graphviz version 2.40.1 (20161225.0304)
 -->
<!-- Title: River::Triangle::io_to_tethex Pages: 1 -->
<svg width="517pt" height="53pt"
 viewBox="0.00 0.00 517.00 52.50" xmlns="http://www.w3.org/2000/svg" xmlns:xlink="http://www.w3.org/1999/xlink">
<g id="graph0" class="graph" transform="scale(1 1) rotate(0) translate(4 48.5)">
<title>River::Triangle::io_to_tethex</title>
<polygon fill="#ffffff" stroke="transparent" points="-4,4 -4,-48.5 513,-48.5 513,4 -4,4"/>
<!-- Node49 -->
<g id="node1" class="node">
<title>Node49</title>
<polygon fill="#bfbfbf" stroke="#000000" points="0,-14 0,-44 94,-44 94,-14 0,-14"/>
<text text-anchor="start" x="8" y="-32" font-family="Helvetica,sans-Serif" font-size="10.00" fill="#000000">River::Triangle::io</text>
<text text-anchor="middle" x="47" y="-21" font-family="Helvetica,sans-Serif" font-size="10.00" fill="#000000">_to_tethex</text>
</g>
<!-- Node50 -->
<g id="node2" class="node">
<title>Node50</title>
<g id="a_node2"><a xlink:href="classRiver_1_1Triangle.html#a0dae20b40d446e6009a88543e2c14daf" target="_top" xlink:title="River::Triangle::generate">
<polygon fill="#ffffff" stroke="#000000" points="130,-19.5 130,-38.5 254,-38.5 254,-19.5 130,-19.5"/>
<text text-anchor="middle" x="192" y="-26.5" font-family="Helvetica,sans-Serif" font-size="10.00" fill="#000000">River::Triangle::generate</text>
</a>
</g>
</g>
<!-- Node49&#45;&gt;Node50 -->
<g id="edge1" class="edge">
<title>Node49&#45;&gt;Node50</title>
<path fill="none" stroke="#191970" d="M104.1821,-29C112.6105,-29 121.3283,-29 129.8513,-29"/>
<polygon fill="#191970" stroke="#191970" points="104.0774,-25.5001 94.0773,-29 104.0773,-32.5001 104.0774,-25.5001"/>
</g>
<!-- Node51 -->
<g id="node3" class="node">
<title>Node51</title>
<g id="a_node3"><a xlink:href="main_8cpp.html#a0ddf1224851353fc92bfbff6f499fa97" target="_top" xlink:title="Entry point of RiverSim program. ">
<polygon fill="#ffffff" stroke="#000000" points="471,-19.5 471,-38.5 509,-38.5 509,-19.5 471,-19.5"/>
<text text-anchor="middle" x="490" y="-26.5" font-family="Helvetica,sans-Serif" font-size="10.00" fill="#000000">main</text>
</a>
</g>
</g>
<!-- Node50&#45;&gt;Node51 -->
<g id="edge2" class="edge">
<title>Node50&#45;&gt;Node51</title>
<path fill="none" stroke="#191970" d="M264.3582,-29C332.5013,-29 430.0323,-29 470.8698,-29"/>
<polygon fill="#191970" stroke="#191970" points="264.1079,-25.5001 254.1078,-29 264.1078,-32.5001 264.1079,-25.5001"/>
</g>
<!-- Node52 -->
<g id="node4" class="node">
<title>Node52</title>
<g id="a_node4"><a xlink:href="namespaceRiver.html#a494b68e2992de95500d6d81770de62ed" target="_top" xlink:title="River::ForwardRiverEvolution">
<polygon fill="#ffffff" stroke="#000000" points="290,-.5 290,-19.5 435,-19.5 435,-.5 290,-.5"/>
<text text-anchor="middle" x="362.5" y="-7.5" font-family="Helvetica,sans-Serif" font-size="10.00" fill="#000000">River::ForwardRiverEvolution</text>
</a>
</g>
</g>
<!-- Node50&#45;&gt;Node52 -->
<g id="edge3" class="edge">
<title>Node50&#45;&gt;Node52</title>
<path fill="none" stroke="#191970" d="M264.2431,-20.9494C272.7006,-20.007 281.333,-19.045 289.7967,-18.1018"/>
<polygon fill="#191970" stroke="#191970" points="263.5875,-17.5007 254.0367,-22.0868 264.3629,-24.4577 263.5875,-17.5007"/>
</g>
<!-- Node52&#45;&gt;Node51 -->
<g id="edge4" class="edge">
<title>Node52&#45;&gt;Node51</title>
<path fill="none" stroke="#191970" d="M436.7834,-21.0697C449.3501,-22.9424 461.3551,-24.7313 470.7718,-26.1346"/>
<polygon fill="#191970" stroke="#191970" points="437.0302,-17.5679 426.6235,-19.5557 435.9984,-24.4914 437.0302,-17.5679"/>
</g>
</g>
</svg>
