<?xml version="1.0" encoding="UTF-8" standalone="no"?>
<!DOCTYPE svg PUBLIC "-//W3C//DTD SVG 1.1//EN"
 "http://www.w3.org/Graphics/SVG/1.1/DTD/svg11.dtd">
<!-- Generated by graphviz version 2.40.1 (20161225.0304)
 -->
<!-- Title: tethex::MeshElement Pages: 1 -->
<svg width="167pt" height="336pt"
 viewBox="0.00 0.00 167.00 336.00" xmlns="http://www.w3.org/2000/svg" xmlns:xlink="http://www.w3.org/1999/xlink">
<g id="graph0" class="graph" transform="scale(1 1) rotate(0) translate(4 332)">
<title>tethex::MeshElement</title>
<polygon fill="#ffffff" stroke="transparent" points="-4,4 -4,-332 163,-332 163,4 -4,4"/>
<!-- Node5 -->
<g id="node1" class="node">
<title>Node5</title>
<polygon fill="#bfbfbf" stroke="#000000" points="3,-.5 3,-189.5 128,-189.5 128,-.5 3,-.5"/>
<text text-anchor="middle" x="65.5" y="-177.5" font-family="Helvetica,sans-Serif" font-size="10.00" fill="#000000">tethex::MeshElement</text>
<polyline fill="none" stroke="#000000" points="3,-170.5 128,-170.5 "/>
<text text-anchor="middle" x="65.5" y="-158.5" font-family="Helvetica,sans-Serif" font-size="10.00" fill="#000000"> </text>
<polyline fill="none" stroke="#000000" points="3,-151.5 128,-151.5 "/>
<text text-anchor="start" x="11" y="-139.5" font-family="Helvetica,sans-Serif" font-size="10.00" fill="#000000">+ ~MeshElement()</text>
<text text-anchor="start" x="11" y="-128.5" font-family="Helvetica,sans-Serif" font-size="10.00" fill="#000000">+ get_n_vertices()</text>
<text text-anchor="start" x="11" y="-117.5" font-family="Helvetica,sans-Serif" font-size="10.00" fill="#000000">+ get_n_edges()</text>
<text text-anchor="start" x="11" y="-106.5" font-family="Helvetica,sans-Serif" font-size="10.00" fill="#000000">+ get_gmsh_el_type()</text>
<text text-anchor="start" x="11" y="-95.5" font-family="Helvetica,sans-Serif" font-size="10.00" fill="#000000">+ get_material_id()</text>
<text text-anchor="start" x="11" y="-84.5" font-family="Helvetica,sans-Serif" font-size="10.00" fill="#000000">+ get_vertex()</text>
<text text-anchor="start" x="11" y="-73.5" font-family="Helvetica,sans-Serif" font-size="10.00" fill="#000000">+ get_edge()</text>
<text text-anchor="start" x="11" y="-62.5" font-family="Helvetica,sans-Serif" font-size="10.00" fill="#000000">+ set_vertex()</text>
<text text-anchor="start" x="11" y="-51.5" font-family="Helvetica,sans-Serif" font-size="10.00" fill="#000000">+ set_edge()</text>
<text text-anchor="start" x="11" y="-40.5" font-family="Helvetica,sans-Serif" font-size="10.00" fill="#000000">+ contains()</text>
<text text-anchor="start" x="11" y="-29.5" font-family="Helvetica,sans-Serif" font-size="10.00" fill="#000000"># MeshElement()</text>
<text text-anchor="start" x="11" y="-18.5" font-family="Helvetica,sans-Serif" font-size="10.00" fill="#000000"># MeshElement()</text>
<text text-anchor="start" x="11" y="-7.5" font-family="Helvetica,sans-Serif" font-size="10.00" fill="#000000"># operator=()</text>
</g>
<!-- Node6 -->
<g id="node2" class="node">
<title>Node6</title>
<polygon fill="#ffffff" stroke="#bfbfbf" points="0,-270.5 0,-327.5 29,-327.5 29,-270.5 0,-270.5"/>
<text text-anchor="middle" x="14.5" y="-315.5" font-family="Helvetica,sans-Serif" font-size="10.00" fill="#000000">int</text>
<polyline fill="none" stroke="#bfbfbf" points="0,-308.5 29,-308.5 "/>
<text text-anchor="middle" x="14.5" y="-296.5" font-family="Helvetica,sans-Serif" font-size="10.00" fill="#000000"> </text>
<polyline fill="none" stroke="#bfbfbf" points="0,-289.5 29,-289.5 "/>
<text text-anchor="middle" x="14.5" y="-277.5" font-family="Helvetica,sans-Serif" font-size="10.00" fill="#000000"> </text>
</g>
<!-- Node6&#45;&gt;Node5 -->
<g id="edge1" class="edge">
<title>Node6&#45;&gt;Node5</title>
<path fill="none" stroke="#404040" d="M11.8832,-270.3862C10.946,-252.295 11.0418,-228.535 15.5,-208 15.9743,-205.8151 16.4929,-203.6209 17.0514,-201.4216"/>
<polygon fill="none" stroke="#404040" points="17.1192,-201.1823 14.9078,-194.3186 20.3929,-189.6375 22.6043,-196.5012 17.1192,-201.1823"/>
<text text-anchor="middle" x="55.5" y="-244" font-family="Helvetica,sans-Serif" font-size="10.00" fill="#000000"> #gmsh_el_type</text>
<text text-anchor="middle" x="55.5" y="-233" font-family="Helvetica,sans-Serif" font-size="10.00" fill="#000000">#n_vertices</text>
<text text-anchor="middle" x="55.5" y="-222" font-family="Helvetica,sans-Serif" font-size="10.00" fill="#000000">#n_edges</text>
<text text-anchor="middle" x="55.5" y="-211" font-family="Helvetica,sans-Serif" font-size="10.00" fill="#000000">#material_id</text>
</g>
<!-- Node7 -->
<g id="node3" class="node">
<title>Node7</title>
<polygon fill="#ffffff" stroke="#bfbfbf" points="76,-270.5 76,-327.5 159,-327.5 159,-270.5 76,-270.5"/>
<text text-anchor="middle" x="117.5" y="-315.5" font-family="Helvetica,sans-Serif" font-size="10.00" fill="#000000">vector&lt; int &gt;</text>
<polyline fill="none" stroke="#bfbfbf" points="76,-308.5 159,-308.5 "/>
<text text-anchor="middle" x="117.5" y="-296.5" font-family="Helvetica,sans-Serif" font-size="10.00" fill="#000000"> </text>
<polyline fill="none" stroke="#bfbfbf" points="76,-289.5 159,-289.5 "/>
<text text-anchor="middle" x="117.5" y="-277.5" font-family="Helvetica,sans-Serif" font-size="10.00" fill="#000000"> </text>
</g>
<!-- Node7&#45;&gt;Node5 -->
<g id="edge2" class="edge">
<title>Node7&#45;&gt;Node5</title>
<path fill="none" stroke="#404040" d="M110.7275,-270.27C106.4581,-252.3409 100.7738,-228.7967 95.5,-208 94.9531,-205.8434 94.3981,-203.6644 93.8366,-201.4688"/>
<polygon fill="none" stroke="#404040" points="93.7734,-201.223 88.4038,-196.4096 90.7817,-189.6019 96.1513,-194.4152 93.7734,-201.223"/>
<text text-anchor="middle" x="131" y="-233" font-family="Helvetica,sans-Serif" font-size="10.00" fill="#000000"> #vertices</text>
<text text-anchor="middle" x="131" y="-222" font-family="Helvetica,sans-Serif" font-size="10.00" fill="#000000">#edges</text>
</g>
</g>
</svg>
