<?xml version="1.0" encoding="UTF-8" standalone="no"?>
<!DOCTYPE svg PUBLIC "-//W3C//DTD SVG 1.1//EN"
 "http://www.w3.org/Graphics/SVG/1.1/DTD/svg11.dtd">
<!-- Generated by graphviz version 2.40.1 (20161225.0304)
 -->
<!-- Title: River::Triangle::update_options Pages: 1 -->
<svg width="688pt" height="102pt"
 viewBox="0.00 0.00 688.00 101.50" xmlns="http://www.w3.org/2000/svg" xmlns:xlink="http://www.w3.org/1999/xlink">
<g id="graph0" class="graph" transform="scale(1 1) rotate(0) translate(4 97.5)">
<title>River::Triangle::update_options</title>
<polygon fill="#ffffff" stroke="transparent" points="-4,4 -4,-97.5 684,-97.5 684,4 -4,4"/>
<!-- Node22 -->
<g id="node1" class="node">
<title>Node22</title>
<polygon fill="#bfbfbf" stroke="#000000" points="0,-38 0,-68 116,-68 116,-38 0,-38"/>
<text text-anchor="start" x="8" y="-56" font-family="Helvetica,sans-Serif" font-size="10.00" fill="#000000">River::Triangle::update</text>
<text text-anchor="middle" x="58" y="-45" font-family="Helvetica,sans-Serif" font-size="10.00" fill="#000000">_options</text>
</g>
<!-- Node23 -->
<g id="node2" class="node">
<title>Node23</title>
<g id="a_node2"><a xlink:href="classRiver_1_1Triangle.html#af65f8816f88a34c015cd5ca66aca1aef" target="_top" xlink:title="River::Triangle::set\l_all_values_to_default">
<polygon fill="#ffffff" stroke="#000000" points="152,-14 152,-44 265,-44 265,-14 152,-14"/>
<text text-anchor="start" x="160" y="-32" font-family="Helvetica,sans-Serif" font-size="10.00" fill="#000000">River::Triangle::set</text>
<text text-anchor="middle" x="208.5" y="-21" font-family="Helvetica,sans-Serif" font-size="10.00" fill="#000000">_all_values_to_default</text>
</a>
</g>
</g>
<!-- Node22&#45;&gt;Node23 -->
<g id="edge1" class="edge">
<title>Node22&#45;&gt;Node23</title>
<path fill="none" stroke="#191970" d="M126.2093,-42.1228C134.8184,-40.7499 143.5515,-39.3572 151.9525,-38.0175"/>
<polygon fill="#191970" stroke="#191970" points="125.5113,-38.6898 116.1872,-43.721 126.6137,-45.6024 125.5113,-38.6898"/>
</g>
<!-- Node28 -->
<g id="node7" class="node">
<title>Node28</title>
<g id="a_node7"><a xlink:href="classRiver_1_1Triangle.html#aeb6108ef14cf1bd359ebc6b1a2ecdb1b" target="_top" xlink:title="River::Triangle::print\l_options">
<polygon fill="#ffffff" stroke="#000000" points="156,-63 156,-93 261,-93 261,-63 156,-63"/>
<text text-anchor="start" x="164" y="-81" font-family="Helvetica,sans-Serif" font-size="10.00" fill="#000000">River::Triangle::print</text>
<text text-anchor="middle" x="208.5" y="-70" font-family="Helvetica,sans-Serif" font-size="10.00" fill="#000000">_options</text>
</a>
</g>
</g>
<!-- Node22&#45;&gt;Node28 -->
<g id="edge7" class="edge">
<title>Node22&#45;&gt;Node28</title>
<path fill="none" stroke="#191970" d="M126.0986,-64.3121C136.0929,-65.9722 146.2571,-67.6606 155.8773,-69.2587"/>
<polygon fill="#191970" stroke="#191970" points="126.6256,-60.8517 116.1872,-62.6657 125.4785,-67.7571 126.6256,-60.8517"/>
</g>
<!-- Node24 -->
<g id="node3" class="node">
<title>Node24</title>
<g id="a_node3"><a xlink:href="classRiver_1_1Triangle.html#af0831b121aebb9accaafe9e291327938" target="_top" xlink:title="River::Triangle::Triangle">
<polygon fill="#ffffff" stroke="#000000" points="302.5,-62.5 302.5,-81.5 423.5,-81.5 423.5,-62.5 302.5,-62.5"/>
<text text-anchor="middle" x="363" y="-69.5" font-family="Helvetica,sans-Serif" font-size="10.00" fill="#000000">River::Triangle::Triangle</text>
</a>
</g>
</g>
<!-- Node23&#45;&gt;Node24 -->
<g id="edge2" class="edge">
<title>Node23&#45;&gt;Node24</title>
<path fill="none" stroke="#191970" d="M272.1929,-46.7268C291.4891,-52.0973 311.9504,-57.792 328.5555,-62.4135"/>
<polygon fill="#191970" stroke="#191970" points="273.1089,-43.3488 262.5366,-44.0393 271.232,-50.0925 273.1089,-43.3488"/>
</g>
<!-- Node25 -->
<g id="node4" class="node">
<title>Node25</title>
<g id="a_node4"><a xlink:href="classRiver_1_1Triangle.html#a0dae20b40d446e6009a88543e2c14daf" target="_top" xlink:title="River::Triangle::generate">
<polygon fill="#ffffff" stroke="#000000" points="301,-19.5 301,-38.5 425,-38.5 425,-19.5 301,-19.5"/>
<text text-anchor="middle" x="363" y="-26.5" font-family="Helvetica,sans-Serif" font-size="10.00" fill="#000000">River::Triangle::generate</text>
</a>
</g>
</g>
<!-- Node23&#45;&gt;Node25 -->
<g id="edge3" class="edge">
<title>Node23&#45;&gt;Node25</title>
<path fill="none" stroke="#191970" d="M275.3753,-29C283.8479,-29 292.4901,-29 300.8841,-29"/>
<polygon fill="#191970" stroke="#191970" points="275.1528,-25.5001 265.1528,-29 275.1528,-32.5001 275.1528,-25.5001"/>
</g>
<!-- Node26 -->
<g id="node5" class="node">
<title>Node26</title>
<g id="a_node5"><a xlink:href="main_8cpp.html#a0ddf1224851353fc92bfbff6f499fa97" target="_top" xlink:title="Entry point of RiverSim program. ">
<polygon fill="#ffffff" stroke="#000000" points="642,-19.5 642,-38.5 680,-38.5 680,-19.5 642,-19.5"/>
<text text-anchor="middle" x="661" y="-26.5" font-family="Helvetica,sans-Serif" font-size="10.00" fill="#000000">main</text>
</a>
</g>
</g>
<!-- Node25&#45;&gt;Node26 -->
<g id="edge4" class="edge">
<title>Node25&#45;&gt;Node26</title>
<path fill="none" stroke="#191970" d="M435.3582,-29C503.5013,-29 601.0323,-29 641.8698,-29"/>
<polygon fill="#191970" stroke="#191970" points="435.1079,-25.5001 425.1078,-29 435.1078,-32.5001 435.1079,-25.5001"/>
</g>
<!-- Node27 -->
<g id="node6" class="node">
<title>Node27</title>
<g id="a_node6"><a xlink:href="namespaceRiver.html#a494b68e2992de95500d6d81770de62ed" target="_top" xlink:title="River::ForwardRiverEvolution">
<polygon fill="#ffffff" stroke="#000000" points="461,-.5 461,-19.5 606,-19.5 606,-.5 461,-.5"/>
<text text-anchor="middle" x="533.5" y="-7.5" font-family="Helvetica,sans-Serif" font-size="10.00" fill="#000000">River::ForwardRiverEvolution</text>
</a>
</g>
</g>
<!-- Node25&#45;&gt;Node27 -->
<g id="edge5" class="edge">
<title>Node25&#45;&gt;Node27</title>
<path fill="none" stroke="#191970" d="M435.2431,-20.9494C443.7006,-20.007 452.333,-19.045 460.7967,-18.1018"/>
<polygon fill="#191970" stroke="#191970" points="434.5875,-17.5007 425.0367,-22.0868 435.3629,-24.4577 434.5875,-17.5007"/>
</g>
<!-- Node27&#45;&gt;Node26 -->
<g id="edge6" class="edge">
<title>Node27&#45;&gt;Node26</title>
<path fill="none" stroke="#191970" d="M607.7834,-21.0697C620.3501,-22.9424 632.3551,-24.7313 641.7718,-26.1346"/>
<polygon fill="#191970" stroke="#191970" points="608.0302,-17.5679 597.6235,-19.5557 606.9984,-24.4914 608.0302,-17.5679"/>
</g>
<!-- Node28&#45;&gt;Node24 -->
<g id="edge8" class="edge">
<title>Node28&#45;&gt;Node24</title>
<path fill="none" stroke="#191970" d="M271.31,-75.5608C281.5261,-75.164 292.0917,-74.7537 302.2571,-74.3589"/>
<polygon fill="#191970" stroke="#191970" points="271.0946,-72.0664 261.238,-75.9519 271.3663,-79.0611 271.0946,-72.0664"/>
</g>
</g>
</svg>
