<?xml version="1.0" encoding="UTF-8" standalone="no"?>
<!DOCTYPE svg PUBLIC "-//W3C//DTD SVG 1.1//EN"
 "http://www.w3.org/Graphics/SVG/1.1/DTD/svg11.dtd">
<!-- Generated by graphviz version 2.43.0 (0)
 -->
<!-- Title: River::Boundary Pages: 1 -->
<svg width="212pt" height="215pt"
 viewBox="0.00 0.00 211.50 215.00" xmlns="http://www.w3.org/2000/svg" xmlns:xlink="http://www.w3.org/1999/xlink">
<g id="graph0" class="graph" transform="scale(1 1) rotate(0) translate(4 211)">
<title>River::Boundary</title>
<polygon fill="white" stroke="transparent" points="-4,4 -4,-211 207.5,-211 207.5,4 -4,4"/>
<!-- Node1 -->
<g id="node1" class="node">
<title>Node1</title>
<g id="a_node1"><a xlink:title="Structure which defines simple boundary data structure.">
<polygon fill="#bfbfbf" stroke="black" points="21,-0.5 21,-101.5 184,-101.5 184,-0.5 21,-0.5"/>
<text text-anchor="middle" x="102.5" y="-89.5" font-family="Helvetica,sans-Serif" font-size="10.00">River::Boundary</text>
<polyline fill="none" stroke="black" points="21,-82.5 184,-82.5 "/>
<text text-anchor="middle" x="102.5" y="-70.5" font-family="Helvetica,sans-Serif" font-size="10.00"> </text>
<polyline fill="none" stroke="black" points="21,-63.5 184,-63.5 "/>
<text text-anchor="start" x="29" y="-51.5" font-family="Helvetica,sans-Serif" font-size="10.00">+ Append()</text>
<text text-anchor="start" x="29" y="-40.5" font-family="Helvetica,sans-Serif" font-size="10.00">+ ReplaceElement()</text>
<text text-anchor="start" x="29" y="-29.5" font-family="Helvetica,sans-Serif" font-size="10.00">+ FixLinesIndices()</text>
<text text-anchor="start" x="29" y="-18.5" font-family="Helvetica,sans-Serif" font-size="10.00">+ generateSmoothBoundary()</text>
<text text-anchor="start" x="29" y="-7.5" font-family="Helvetica,sans-Serif" font-size="10.00">+ operator==()</text>
</a>
</g>
</g>
<!-- Node2 -->
<g id="node2" class="node">
<title>Node2</title>
<g id="a_node2"><a xlink:title=" ">
<polygon fill="white" stroke="#bfbfbf" points="0,-149.5 0,-206.5 95,-206.5 95,-149.5 0,-149.5"/>
<text text-anchor="middle" x="47.5" y="-194.5" font-family="Helvetica,sans-Serif" font-size="10.00">vector&lt; Point &gt;</text>
<polyline fill="none" stroke="#bfbfbf" points="0,-187.5 95,-187.5 "/>
<text text-anchor="middle" x="47.5" y="-175.5" font-family="Helvetica,sans-Serif" font-size="10.00"> </text>
<polyline fill="none" stroke="#bfbfbf" points="0,-168.5 95,-168.5 "/>
<text text-anchor="middle" x="47.5" y="-156.5" font-family="Helvetica,sans-Serif" font-size="10.00"> </text>
</a>
</g>
</g>
<!-- Node2&#45;&gt;Node1 -->
<g id="edge1" class="edge">
<title>Node2&#45;&gt;Node1</title>
<path fill="none" stroke="#404040" d="M59.71,-149.26C64.45,-138.47 70.1,-125.65 75.7,-112.91"/>
<polygon fill="none" stroke="#404040" points="75.75,-112.79 74.51,-105.68 80.59,-101.8 81.83,-108.9 75.75,-112.79"/>
<text text-anchor="middle" x="98" y="-123" font-family="Helvetica,sans-Serif" font-size="10.00"> +vertices</text>
</g>
<!-- Node3 -->
<g id="node3" class="node">
<title>Node3</title>
<g id="a_node3"><a xlink:title=" ">
<polygon fill="white" stroke="#bfbfbf" points="113.5,-149.5 113.5,-206.5 203.5,-206.5 203.5,-149.5 113.5,-149.5"/>
<text text-anchor="middle" x="158.5" y="-194.5" font-family="Helvetica,sans-Serif" font-size="10.00">vector&lt; Line &gt;</text>
<polyline fill="none" stroke="#bfbfbf" points="113.5,-187.5 203.5,-187.5 "/>
<text text-anchor="middle" x="158.5" y="-175.5" font-family="Helvetica,sans-Serif" font-size="10.00"> </text>
<polyline fill="none" stroke="#bfbfbf" points="113.5,-168.5 203.5,-168.5 "/>
<text text-anchor="middle" x="158.5" y="-156.5" font-family="Helvetica,sans-Serif" font-size="10.00"> </text>
</a>
</g>
</g>
<!-- Node3&#45;&gt;Node1 -->
<g id="edge2" class="edge">
<title>Node3&#45;&gt;Node1</title>
<path fill="none" stroke="#404040" d="M146.07,-149.26C141.24,-138.47 135.49,-125.65 129.79,-112.91"/>
<polygon fill="none" stroke="#404040" points="129.72,-112.75 123.61,-108.91 124.81,-101.8 130.91,-105.64 129.72,-112.75"/>
<text text-anchor="middle" x="154" y="-123" font-family="Helvetica,sans-Serif" font-size="10.00"> +lines</text>
</g>
</g>
</svg>
