<?xml version="1.0" encoding="UTF-8" standalone="no"?>
<!DOCTYPE svg PUBLIC "-//W3C//DTD SVG 1.1//EN"
 "http://www.w3.org/Graphics/SVG/1.1/DTD/svg11.dtd">
<!-- Generated by graphviz version 2.40.1 (20161225.0304)
 -->
<!-- Title: tethex::Mesh::get_n_vertices Pages: 1 -->
<svg width="583pt" height="154pt"
 viewBox="0.00 0.00 583.00 153.50" xmlns="http://www.w3.org/2000/svg" xmlns:xlink="http://www.w3.org/1999/xlink">
<g id="graph0" class="graph" transform="scale(1 1) rotate(0) translate(4 149.5)">
<title>tethex::Mesh::get_n_vertices</title>
<polygon fill="#ffffff" stroke="transparent" points="-4,4 -4,-149.5 579,-149.5 579,4 -4,4"/>
<!-- Node75 -->
<g id="node1" class="node">
<title>Node75</title>
<polygon fill="#bfbfbf" stroke="#000000" points="0,-63.5 0,-93.5 104,-93.5 104,-63.5 0,-63.5"/>
<text text-anchor="start" x="8" y="-81.5" font-family="Helvetica,sans-Serif" font-size="10.00" fill="#000000">tethex::Mesh::get_n</text>
<text text-anchor="middle" x="52" y="-70.5" font-family="Helvetica,sans-Serif" font-size="10.00" fill="#000000">_vertices</text>
</g>
<!-- Node76 -->
<g id="node2" class="node">
<title>Node76</title>
<g id="a_node2"><a xlink:href="classRiver_1_1Solver.html#a3d51dbec8b2d1d790c5f4e0385b408d7" target="_top" xlink:title="River::Solver::SetMesh">
<polygon fill="#ffffff" stroke="#000000" points="141,-126 141,-145 260,-145 260,-126 141,-126"/>
<text text-anchor="middle" x="200.5" y="-133" font-family="Helvetica,sans-Serif" font-size="10.00" fill="#000000">River::Solver::SetMesh</text>
</a>
</g>
</g>
<!-- Node75&#45;&gt;Node76 -->
<g id="edge1" class="edge">
<title>Node75&#45;&gt;Node76</title>
<path fill="none" stroke="#191970" d="M93.8873,-97.6371C108.3639,-103.9697 124.7736,-110.8388 140,-116.5 148.9776,-119.8379 158.8406,-123.1014 167.9504,-125.9557"/>
<polygon fill="#191970" stroke="#191970" points="95.2466,-94.4113 84.6852,-93.5712 92.4176,-100.8142 95.2466,-94.4113"/>
</g>
<!-- Node77 -->
<g id="node3" class="node">
<title>Node77</title>
<g id="a_node3"><a xlink:href="classtethex_1_1Mesh.html#af7abffd9bc4bd64eb2f4cdd4aaf7fbe3" target="_top" xlink:title="tethex::Mesh::Mesh">
<polygon fill="#ffffff" stroke="#000000" points="148.5,-88 148.5,-107 252.5,-107 252.5,-88 148.5,-88"/>
<text text-anchor="middle" x="200.5" y="-95" font-family="Helvetica,sans-Serif" font-size="10.00" fill="#000000">tethex::Mesh::Mesh</text>
</a>
</g>
</g>
<!-- Node75&#45;&gt;Node77 -->
<g id="edge2" class="edge">
<title>Node75&#45;&gt;Node77</title>
<path fill="none" stroke="#191970" d="M114.5604,-86.5044C125.8184,-87.9448 137.4441,-89.4322 148.3671,-90.8298"/>
<polygon fill="#191970" stroke="#191970" points="114.7189,-82.9962 104.3555,-85.1987 113.8305,-89.9396 114.7189,-82.9962"/>
</g>
<!-- Node78 -->
<g id="node4" class="node">
<title>Node78</title>
<g id="a_node4"><a xlink:href="classtethex_1_1Mesh.html#af992d5d2e64047656766e4afcbc95b8b" target="_top" xlink:title="tethex::Mesh::operator=">
<polygon fill="#ffffff" stroke="#000000" points="140,-50 140,-69 261,-69 261,-50 140,-50"/>
<text text-anchor="middle" x="200.5" y="-57" font-family="Helvetica,sans-Serif" font-size="10.00" fill="#000000">tethex::Mesh::operator=</text>
</a>
</g>
</g>
<!-- Node75&#45;&gt;Node78 -->
<g id="edge3" class="edge">
<title>Node75&#45;&gt;Node78</title>
<path fill="none" stroke="#191970" d="M114.512,-70.5018C122.9477,-69.4225 131.5907,-68.3167 139.9906,-67.2419"/>
<polygon fill="#191970" stroke="#191970" points="113.8305,-67.0604 104.3555,-71.8013 114.7189,-74.0038 113.8305,-67.0604"/>
</g>
<!-- Node79 -->
<g id="node5" class="node">
<title>Node79</title>
<g id="a_node5"><a xlink:href="classtethex_1_1Mesh.html#a8e5d9c057c6f562d5036f262a23af29c" target="_top" xlink:title="During conversion we add new vertices &#45; at the centers of edges, triangles, tetrahedra. ">
<polygon fill="#ffffff" stroke="#000000" points="142.5,-.5 142.5,-30.5 258.5,-30.5 258.5,-.5 142.5,-.5"/>
<text text-anchor="start" x="150.5" y="-18.5" font-family="Helvetica,sans-Serif" font-size="10.00" fill="#000000">tethex::Mesh::set_new</text>
<text text-anchor="middle" x="200.5" y="-7.5" font-family="Helvetica,sans-Serif" font-size="10.00" fill="#000000">_vertices</text>
</a>
</g>
</g>
<!-- Node75&#45;&gt;Node79 -->
<g id="edge4" class="edge">
<title>Node75&#45;&gt;Node79</title>
<path fill="none" stroke="#191970" d="M96.061,-59.312C110.0859,-53.2478 125.6766,-46.5515 140,-40.5 147.6423,-37.2712 155.8456,-33.851 163.6685,-30.611"/>
<polygon fill="#191970" stroke="#191970" points="94.4219,-56.2077 86.6365,-63.3937 97.2039,-62.6312 94.4219,-56.2077"/>
</g>
<!-- Node80 -->
<g id="node6" class="node">
<title>Node80</title>
<g id="a_node6"><a xlink:href="classtethex_1_1Mesh.html#adb803e48ce7101318531730a512ecbc8" target="_top" xlink:title="Conversion of 2D meshes (triangles &#45;&gt; quadrangles) ">
<polygon fill="#ffffff" stroke="#000000" points="297,-6 297,-25 427,-25 427,-6 297,-6"/>
<text text-anchor="middle" x="362" y="-13" font-family="Helvetica,sans-Serif" font-size="10.00" fill="#000000">tethex::Mesh::convert_2D</text>
</a>
</g>
</g>
<!-- Node79&#45;&gt;Node80 -->
<g id="edge5" class="edge">
<title>Node79&#45;&gt;Node80</title>
<path fill="none" stroke="#191970" d="M268.8065,-15.5C278.1278,-15.5 287.6756,-15.5 296.9372,-15.5"/>
<polygon fill="#191970" stroke="#191970" points="268.8052,-12.0001 258.8052,-15.5 268.8052,-19.0001 268.8052,-12.0001"/>
</g>
<!-- Node81 -->
<g id="node7" class="node">
<title>Node81</title>
<g id="a_node7"><a xlink:href="classtethex_1_1Mesh.html#aaa882d21498571cbd84d4f7129fd6e32" target="_top" xlink:title="Conversion from simplices to bricks. ">
<polygon fill="#ffffff" stroke="#000000" points="463,-6 463,-25 575,-25 575,-6 463,-6"/>
<text text-anchor="middle" x="519" y="-13" font-family="Helvetica,sans-Serif" font-size="10.00" fill="#000000">tethex::Mesh::convert</text>
</a>
</g>
</g>
<!-- Node80&#45;&gt;Node81 -->
<g id="edge6" class="edge">
<title>Node80&#45;&gt;Node81</title>
<path fill="none" stroke="#191970" d="M437.2433,-15.5C445.8245,-15.5 454.4576,-15.5 462.7317,-15.5"/>
<polygon fill="#191970" stroke="#191970" points="437.2182,-12.0001 427.2182,-15.5 437.2182,-19.0001 437.2182,-12.0001"/>
</g>
</g>
</svg>
