<?xml version="1.0" encoding="UTF-8" standalone="no"?>
<!DOCTYPE svg PUBLIC "-//W3C//DTD SVG 1.1//EN"
 "http://www.w3.org/Graphics/SVG/1.1/DTD/svg11.dtd">
<!-- Generated by graphviz version 2.40.1 (20161225.0304)
 -->
<!-- Title: nlohmann::detail::parser::parse Pages: 1 -->
<svg width="486pt" height="259pt"
 viewBox="0.00 0.00 486.00 258.50" xmlns="http://www.w3.org/2000/svg" xmlns:xlink="http://www.w3.org/1999/xlink">
<g id="graph0" class="graph" transform="scale(1 1) rotate(0) translate(4 254.5)">
<title>nlohmann::detail::parser::parse</title>
<polygon fill="#ffffff" stroke="transparent" points="-4,4 -4,-254.5 482,-254.5 482,4 -4,4"/>
<!-- Node2 -->
<g id="node1" class="node">
<title>Node2</title>
<polygon fill="#bfbfbf" stroke="#000000" points="0,-104.5 0,-134.5 121,-134.5 121,-104.5 0,-104.5"/>
<text text-anchor="start" x="8" y="-122.5" font-family="Helvetica,sans-Serif" font-size="10.00" fill="#000000">nlohmann::detail::parser</text>
<text text-anchor="middle" x="60.5" y="-111.5" font-family="Helvetica,sans-Serif" font-size="10.00" fill="#000000">::parse</text>
</g>
<!-- Node3 -->
<g id="node2" class="node">
<title>Node3</title>
<g id="a_node2"><a xlink:href="classnlohmann_1_1detail_1_1json__sax__dom__callback__parser.html#aac6e64f0b59c9150cde974e182d5ecab" target="_top" xlink:title="nlohmann::detail::json\l_sax_dom_callback_parser\l::parse_error">
<polygon fill="#ffffff" stroke="#000000" points="164,-209 164,-250 299,-250 299,-209 164,-209"/>
<text text-anchor="start" x="172" y="-238" font-family="Helvetica,sans-Serif" font-size="10.00" fill="#000000">nlohmann::detail::json</text>
<text text-anchor="start" x="172" y="-227" font-family="Helvetica,sans-Serif" font-size="10.00" fill="#000000">_sax_dom_callback_parser</text>
<text text-anchor="middle" x="231.5" y="-216" font-family="Helvetica,sans-Serif" font-size="10.00" fill="#000000">::parse_error</text>
</a>
</g>
</g>
<!-- Node2&#45;&gt;Node3 -->
<g id="edge1" class="edge">
<title>Node2&#45;&gt;Node3</title>
<path fill="none" stroke="#191970" d="M75.7363,-134.7248C93.8502,-152.178 125.5953,-180.7816 157,-199.5 159.8146,-201.1776 162.7403,-202.8001 165.7329,-204.3633"/>
<polygon fill="#191970" stroke="#191970" points="164.351,-207.5843 174.8674,-208.8713 167.449,-201.3071 164.351,-207.5843"/>
</g>
<!-- Node4 -->
<g id="node3" class="node">
<title>Node4</title>
<g id="a_node3"><a xlink:href="classnlohmann_1_1detail_1_1parse__error.html#a137ea4d27de45d8a844fd13451d40f3d" target="_top" xlink:title="create a parse error exception ">
<polygon fill="#ffffff" stroke="#000000" points="172.5,-159.5 172.5,-189.5 290.5,-189.5 290.5,-159.5 172.5,-159.5"/>
<text text-anchor="start" x="180.5" y="-177.5" font-family="Helvetica,sans-Serif" font-size="10.00" fill="#000000">nlohmann::detail::parse</text>
<text text-anchor="middle" x="231.5" y="-166.5" font-family="Helvetica,sans-Serif" font-size="10.00" fill="#000000">_error::create</text>
</a>
</g>
</g>
<!-- Node2&#45;&gt;Node4 -->
<g id="edge2" class="edge">
<title>Node2&#45;&gt;Node4</title>
<path fill="none" stroke="#191970" d="M107.2265,-134.529C128.2445,-141.2892 153.2286,-149.325 175.2637,-156.4123"/>
<polygon fill="#191970" stroke="#191970" points="174.2386,-159.7591 184.83,-159.4892 176.382,-153.0953 174.2386,-159.7591"/>
</g>
<!-- Node6 -->
<g id="node5" class="node">
<title>Node6</title>
<g id="a_node5"><a xlink:href="classnlohmann_1_1detail_1_1json__sax__dom__callback__parser.html#a167fd9bf385d3d08bcbbba8a927c0eff" target="_top" xlink:title="nlohmann::detail::json\l_sax_dom_callback_parser\l::is_errored">
<polygon fill="#ffffff" stroke="#000000" points="164,-99 164,-140 299,-140 299,-99 164,-99"/>
<text text-anchor="start" x="172" y="-128" font-family="Helvetica,sans-Serif" font-size="10.00" fill="#000000">nlohmann::detail::json</text>
<text text-anchor="start" x="172" y="-117" font-family="Helvetica,sans-Serif" font-size="10.00" fill="#000000">_sax_dom_callback_parser</text>
<text text-anchor="middle" x="231.5" y="-106" font-family="Helvetica,sans-Serif" font-size="10.00" fill="#000000">::is_errored</text>
</a>
</g>
</g>
<!-- Node2&#45;&gt;Node6 -->
<g id="edge4" class="edge">
<title>Node2&#45;&gt;Node6</title>
<path fill="none" stroke="#191970" d="M121.2697,-119.5C131.7453,-119.5 142.7629,-119.5 153.6155,-119.5"/>
<polygon fill="#191970" stroke="#191970" points="153.947,-123.0001 163.947,-119.5 153.9469,-116.0001 153.947,-123.0001"/>
</g>
<!-- Node7 -->
<g id="node6" class="node">
<title>Node7</title>
<g id="a_node6"><a xlink:href="classnlohmann_1_1detail_1_1json__sax__dom__parser.html#a7d3bf1f361ebb817c694ba45b3814fa6" target="_top" xlink:title="nlohmann::detail::json\l_sax_dom_parser::parse_error">
<polygon fill="#ffffff" stroke="#000000" points="157,-49.5 157,-79.5 306,-79.5 306,-49.5 157,-49.5"/>
<text text-anchor="start" x="165" y="-67.5" font-family="Helvetica,sans-Serif" font-size="10.00" fill="#000000">nlohmann::detail::json</text>
<text text-anchor="middle" x="231.5" y="-56.5" font-family="Helvetica,sans-Serif" font-size="10.00" fill="#000000">_sax_dom_parser::parse_error</text>
</a>
</g>
</g>
<!-- Node2&#45;&gt;Node7 -->
<g id="edge5" class="edge">
<title>Node2&#45;&gt;Node7</title>
<path fill="none" stroke="#191970" d="M107.2265,-104.471C128.2445,-97.7108 153.2286,-89.675 175.2637,-82.5877"/>
<polygon fill="#191970" stroke="#191970" points="176.382,-85.9047 184.83,-79.5108 174.2386,-79.2409 176.382,-85.9047"/>
</g>
<!-- Node8 -->
<g id="node7" class="node">
<title>Node8</title>
<g id="a_node7"><a xlink:href="classnlohmann_1_1detail_1_1json__sax__dom__parser.html#ad1b9f3681fadbbb2e0127f5c8a99c662" target="_top" xlink:title="nlohmann::detail::json\l_sax_dom_parser::is_errored">
<polygon fill="#ffffff" stroke="#000000" points="160,-.5 160,-30.5 303,-30.5 303,-.5 160,-.5"/>
<text text-anchor="start" x="168" y="-18.5" font-family="Helvetica,sans-Serif" font-size="10.00" fill="#000000">nlohmann::detail::json</text>
<text text-anchor="middle" x="231.5" y="-7.5" font-family="Helvetica,sans-Serif" font-size="10.00" fill="#000000">_sax_dom_parser::is_errored</text>
</a>
</g>
</g>
<!-- Node2&#45;&gt;Node8 -->
<g id="edge6" class="edge">
<title>Node2&#45;&gt;Node8</title>
<path fill="none" stroke="#191970" d="M75.264,-104.462C93.1773,-86.9588 124.9745,-58.1994 157,-40.5 160.9348,-38.3254 165.091,-36.2964 169.3465,-34.4115"/>
<polygon fill="#191970" stroke="#191970" points="170.8689,-37.5695 178.7736,-30.5149 168.1949,-31.1003 170.8689,-37.5695"/>
</g>
<!-- Node5 -->
<g id="node4" class="node">
<title>Node5</title>
<g id="a_node4"><a xlink:href="classnlohmann_1_1detail_1_1exception.html#abf41a7e9178356314082284e6cfea278" target="_top" xlink:title="nlohmann::detail::exception\l::name">
<polygon fill="#ffffff" stroke="#000000" points="342,-159.5 342,-189.5 478,-189.5 478,-159.5 342,-159.5"/>
<text text-anchor="start" x="350" y="-177.5" font-family="Helvetica,sans-Serif" font-size="10.00" fill="#000000">nlohmann::detail::exception</text>
<text text-anchor="middle" x="410" y="-166.5" font-family="Helvetica,sans-Serif" font-size="10.00" fill="#000000">::name</text>
</a>
</g>
</g>
<!-- Node4&#45;&gt;Node5 -->
<g id="edge3" class="edge">
<title>Node4&#45;&gt;Node5</title>
<path fill="none" stroke="#191970" d="M290.9379,-174.5C303.9495,-174.5 317.9161,-174.5 331.5421,-174.5"/>
<polygon fill="#191970" stroke="#191970" points="331.8743,-178.0001 341.8742,-174.5 331.8742,-171.0001 331.8743,-178.0001"/>
</g>
</g>
</svg>
