<?xml version="1.0" encoding="UTF-8" standalone="no"?>
<!DOCTYPE svg PUBLIC "-//W3C//DTD SVG 1.1//EN"
 "http://www.w3.org/Graphics/SVG/1.1/DTD/svg11.dtd">
<!-- Generated by graphviz version 2.40.1 (20161225.0304)
 -->
<!-- Title: River::Triangle::io_to_tethex Pages: 1 -->
<svg width="336pt" height="39pt"
 viewBox="0.00 0.00 336.00 39.00" xmlns="http://www.w3.org/2000/svg" xmlns:xlink="http://www.w3.org/1999/xlink">
<g id="graph0" class="graph" transform="scale(1 1) rotate(0) translate(4 35)">
<title>River::Triangle::io_to_tethex</title>
<polygon fill="#ffffff" stroke="transparent" points="-4,4 -4,-35 332,-35 332,4 -4,4"/>
<!-- Node49 -->
<g id="node1" class="node">
<title>Node49</title>
<polygon fill="#bfbfbf" stroke="#000000" points="0,-.5 0,-30.5 94,-30.5 94,-.5 0,-.5"/>
<text text-anchor="start" x="8" y="-18.5" font-family="Helvetica,sans-Serif" font-size="10.00" fill="#000000">River::Triangle::io</text>
<text text-anchor="middle" x="47" y="-7.5" font-family="Helvetica,sans-Serif" font-size="10.00" fill="#000000">_to_tethex</text>
</g>
<!-- Node50 -->
<g id="node2" class="node">
<title>Node50</title>
<g id="a_node2"><a xlink:href="classRiver_1_1Triangle.html#a7bc9c5a5297dee136ab1489a923182dd" target="_top" xlink:title="Generate mesh. ">
<polygon fill="#ffffff" stroke="#000000" points="130,-6 130,-25 254,-25 254,-6 130,-6"/>
<text text-anchor="middle" x="192" y="-13" font-family="Helvetica,sans-Serif" font-size="10.00" fill="#000000">River::Triangle::generate</text>
</a>
</g>
</g>
<!-- Node49&#45;&gt;Node50 -->
<g id="edge1" class="edge">
<title>Node49&#45;&gt;Node50</title>
<path fill="none" stroke="#191970" d="M104.1821,-15.5C112.6105,-15.5 121.3283,-15.5 129.8513,-15.5"/>
<polygon fill="#191970" stroke="#191970" points="104.0774,-12.0001 94.0773,-15.5 104.0773,-19.0001 104.0774,-12.0001"/>
</g>
<!-- Node51 -->
<g id="node3" class="node">
<title>Node51</title>
<g id="a_node3"><a xlink:href="main_8cpp.html#a0ddf1224851353fc92bfbff6f499fa97" target="_top" xlink:title="Entry point of RiverSim program. ">
<polygon fill="#ffffff" stroke="#000000" points="290,-6 290,-25 328,-25 328,-6 290,-6"/>
<text text-anchor="middle" x="309" y="-13" font-family="Helvetica,sans-Serif" font-size="10.00" fill="#000000">main</text>
</a>
</g>
</g>
<!-- Node50&#45;&gt;Node51 -->
<g id="edge2" class="edge">
<title>Node50&#45;&gt;Node51</title>
<path fill="none" stroke="#191970" d="M264.5174,-15.5C273.8253,-15.5 282.6301,-15.5 289.912,-15.5"/>
<polygon fill="#191970" stroke="#191970" points="264.2682,-12.0001 254.2682,-15.5 264.2682,-19.0001 264.2682,-12.0001"/>
</g>
</g>
</svg>
