<?xml version="1.0" encoding="UTF-8" standalone="no"?>
<!DOCTYPE svg PUBLIC "-//W3C//DTD SVG 1.1//EN"
 "http://www.w3.org/Graphics/SVG/1.1/DTD/svg11.dtd">
<!-- Generated by graphviz version 2.40.1 (20161225.0304)
 -->
<!-- Title: River::Branch::splitPoint Pages: 1 -->
<svg width="1037pt" height="170pt"
 viewBox="0.00 0.00 1037.00 169.50" xmlns="http://www.w3.org/2000/svg" xmlns:xlink="http://www.w3.org/1999/xlink">
<g id="graph0" class="graph" transform="scale(1 1) rotate(0) translate(4 165.5)">
<title>River::Branch::splitPoint</title>
<polygon fill="#ffffff" stroke="transparent" points="-4,4 -4,-165.5 1033,-165.5 1033,4 -4,4"/>
<!-- Node82 -->
<g id="node1" class="node">
<title>Node82</title>
<polygon fill="#bfbfbf" stroke="#000000" points="0,-57.5 0,-76.5 123,-76.5 123,-57.5 0,-57.5"/>
<text text-anchor="middle" x="61.5" y="-64.5" font-family="Helvetica,sans-Serif" font-size="10.00" fill="#000000">River::Branch::splitPoint</text>
</g>
<!-- Node83 -->
<g id="node2" class="node">
<title>Node83</title>
<g id="a_node2"><a xlink:href="classRiver_1_1Branch.html#ac530394680fc8ab073033352f251fe17" target="_top" xlink:title="River::Branch::Branch">
<polygon fill="#ffffff" stroke="#000000" points="166.5,-114.5 166.5,-133.5 279.5,-133.5 279.5,-114.5 166.5,-114.5"/>
<text text-anchor="middle" x="223" y="-121.5" font-family="Helvetica,sans-Serif" font-size="10.00" fill="#000000">River::Branch::Branch</text>
</a>
</g>
</g>
<!-- Node82&#45;&gt;Node83 -->
<g id="edge1" class="edge">
<title>Node82&#45;&gt;Node83</title>
<path fill="none" stroke="#191970" d="M93.8687,-80.3941C112.7276,-88.0017 137.0471,-97.4779 159,-105 168.6489,-108.3062 179.2266,-111.5845 188.9545,-114.4634"/>
<polygon fill="#191970" stroke="#191970" points="95.1279,-77.1279 84.5459,-76.6064 92.493,-83.6131 95.1279,-77.1279"/>
</g>
<!-- Node90 -->
<g id="node8" class="node">
<title>Node90</title>
<g id="a_node8"><a xlink:href="classRiver_1_1Branch.html#ac61fc55a34a62822e8d633b5b683361c" target="_top" xlink:title="River::Branch::addPoint">
<polygon fill="#ffffff" stroke="#000000" points="162.5,-76.5 162.5,-95.5 283.5,-95.5 283.5,-76.5 162.5,-76.5"/>
<text text-anchor="middle" x="223" y="-83.5" font-family="Helvetica,sans-Serif" font-size="10.00" fill="#000000">River::Branch::addPoint</text>
</a>
</g>
</g>
<!-- Node82&#45;&gt;Node90 -->
<g id="edge7" class="edge">
<title>Node82&#45;&gt;Node90</title>
<path fill="none" stroke="#191970" d="M133.1285,-75.4269C142.9181,-76.5786 152.8887,-77.7516 162.4551,-78.8771"/>
<polygon fill="#191970" stroke="#191970" points="133.3574,-71.9298 123.0169,-74.2373 132.5395,-78.8818 133.3574,-71.9298"/>
</g>
<!-- Node91 -->
<g id="node9" class="node">
<title>Node91</title>
<g id="a_node9"><a xlink:href="classRiver_1_1Branch.html#ad1c529a3eae4a3a33cdc6de391218e0a" target="_top" xlink:title="River::Branch::addDPoint">
<polygon fill="#ffffff" stroke="#000000" points="159,-38.5 159,-57.5 287,-57.5 287,-38.5 159,-38.5"/>
<text text-anchor="middle" x="223" y="-45.5" font-family="Helvetica,sans-Serif" font-size="10.00" fill="#000000">River::Branch::addDPoint</text>
</a>
</g>
</g>
<!-- Node82&#45;&gt;Node91 -->
<g id="edge8" class="edge">
<title>Node82&#45;&gt;Node91</title>
<path fill="none" stroke="#191970" d="M133.0582,-58.5814C141.6878,-57.5661 150.4593,-56.5342 158.9716,-55.5328"/>
<polygon fill="#191970" stroke="#191970" points="132.5395,-55.1182 123.0169,-59.7627 133.3574,-62.0702 132.5395,-55.1182"/>
</g>
<!-- Node92 -->
<g id="node10" class="node">
<title>Node92</title>
<g id="a_node10"><a xlink:href="classRiver_1_1Branch.html#ae0516312626bf41418d5aa1d536e11ea" target="_top" xlink:title="River::Branch::addPolar">
<polygon fill="#ffffff" stroke="#000000" points="162.5,-.5 162.5,-19.5 283.5,-19.5 283.5,-.5 162.5,-.5"/>
<text text-anchor="middle" x="223" y="-7.5" font-family="Helvetica,sans-Serif" font-size="10.00" fill="#000000">River::Branch::addPolar</text>
</a>
</g>
</g>
<!-- Node82&#45;&gt;Node92 -->
<g id="edge9" class="edge">
<title>Node82&#45;&gt;Node92</title>
<path fill="none" stroke="#191970" d="M93.8687,-53.6059C112.7276,-45.9983 137.0471,-36.5221 159,-29 168.6489,-25.6938 179.2266,-22.4155 188.9545,-19.5366"/>
<polygon fill="#191970" stroke="#191970" points="92.493,-50.3869 84.5459,-57.3936 95.1279,-56.8721 92.493,-50.3869"/>
</g>
<!-- Node84 -->
<g id="node3" class="node">
<title>Node84</title>
<g id="a_node3"><a xlink:href="classRiver_1_1Geometry.html#a0c430d5eb103fe6016b805dc5278d247" target="_top" xlink:title="River::Geometry::initiate\lRootBranch">
<polygon fill="#ffffff" stroke="#000000" points="342,-131 342,-161 465,-161 465,-131 342,-131"/>
<text text-anchor="start" x="350" y="-149" font-family="Helvetica,sans-Serif" font-size="10.00" fill="#000000">River::Geometry::initiate</text>
<text text-anchor="middle" x="403.5" y="-138" font-family="Helvetica,sans-Serif" font-size="10.00" fill="#000000">RootBranch</text>
</a>
</g>
</g>
<!-- Node83&#45;&gt;Node84 -->
<g id="edge2" class="edge">
<title>Node83&#45;&gt;Node84</title>
<path fill="none" stroke="#191970" d="M289.9969,-132.1658C306.9507,-134.2322 325.0793,-136.4418 341.7599,-138.4749"/>
<polygon fill="#191970" stroke="#191970" points="289.9661,-128.6363 279.6161,-130.9006 289.1191,-135.5848 289.9661,-128.6363"/>
</g>
<!-- Node85 -->
<g id="node4" class="node">
<title>Node85</title>
<g id="a_node4"><a xlink:href="classRiver_1_1Geometry.html#a2e00a634a0e948570540a2ab47335478" target="_top" xlink:title="River::Geometry::AddBiffurcation">
<polygon fill="#ffffff" stroke="#000000" points="323,-92.5 323,-111.5 484,-111.5 484,-92.5 323,-92.5"/>
<text text-anchor="middle" x="403.5" y="-99.5" font-family="Helvetica,sans-Serif" font-size="10.00" fill="#000000">River::Geometry::AddBiffurcation</text>
</a>
</g>
</g>
<!-- Node83&#45;&gt;Node85 -->
<g id="edge3" class="edge">
<title>Node83&#45;&gt;Node85</title>
<path fill="none" stroke="#191970" d="M289.6404,-115.8776C301.2352,-114.4644 313.3893,-112.983 325.261,-111.5361"/>
<polygon fill="#191970" stroke="#191970" points="289.1191,-112.4152 279.6161,-117.0994 289.9661,-119.3637 289.1191,-112.4152"/>
</g>
<!-- Node86 -->
<g id="node5" class="node">
<title>Node86</title>
<g id="a_node5"><a xlink:href="namespaceRiver_1_1SimpleGeo.html#aaeaf0931007ed0bb3f04ffe517b90708" target="_top" xlink:title="River::SimpleGeo::AddBranches">
<polygon fill="#ffffff" stroke="#000000" points="520,-92.5 520,-111.5 678,-111.5 678,-92.5 520,-92.5"/>
<text text-anchor="middle" x="599" y="-99.5" font-family="Helvetica,sans-Serif" font-size="10.00" fill="#000000">River::SimpleGeo::AddBranches</text>
</a>
</g>
</g>
<!-- Node85&#45;&gt;Node86 -->
<g id="edge4" class="edge">
<title>Node85&#45;&gt;Node86</title>
<path fill="none" stroke="#191970" d="M494.151,-102C502.7158,-102 511.3536,-102 519.7997,-102"/>
<polygon fill="#191970" stroke="#191970" points="494.1461,-98.5001 484.146,-102 494.146,-105.5001 494.1461,-98.5001"/>
</g>
<!-- Node87 -->
<g id="node6" class="node">
<title>Node87</title>
<g id="a_node6"><a xlink:href="namespaceRiver_1_1SimpleGeo.html#ab6e4b434f7b71839df562edbc13ddb5b" target="_top" xlink:title="River::SimpleGeo::Custom\lRiverTree">
<polygon fill="#ffffff" stroke="#000000" points="714,-87 714,-117 848,-117 848,-87 714,-87"/>
<text text-anchor="start" x="722" y="-105" font-family="Helvetica,sans-Serif" font-size="10.00" fill="#000000">River::SimpleGeo::Custom</text>
<text text-anchor="middle" x="781" y="-94" font-family="Helvetica,sans-Serif" font-size="10.00" fill="#000000">RiverTree</text>
</a>
</g>
</g>
<!-- Node86&#45;&gt;Node87 -->
<g id="edge5" class="edge">
<title>Node86&#45;&gt;Node87</title>
<path fill="none" stroke="#191970" d="M688.118,-102C696.7327,-102 705.37,-102 713.7208,-102"/>
<polygon fill="#191970" stroke="#191970" points="688.0339,-98.5001 678.0338,-102 688.0338,-105.5001 688.0339,-98.5001"/>
</g>
<!-- Node88 -->
<g id="node7" class="node">
<title>Node88</title>
<g id="a_node7"><a xlink:href="namespaceRiver.html#a494b68e2992de95500d6d81770de62ed" target="_top" xlink:title="River::ForwardRiverEvolution">
<polygon fill="#ffffff" stroke="#ff0000" points="884,-92.5 884,-111.5 1029,-111.5 1029,-92.5 884,-92.5"/>
<text text-anchor="middle" x="956.5" y="-99.5" font-family="Helvetica,sans-Serif" font-size="10.00" fill="#000000">River::ForwardRiverEvolution</text>
</a>
</g>
</g>
<!-- Node87&#45;&gt;Node88 -->
<g id="edge6" class="edge">
<title>Node87&#45;&gt;Node88</title>
<path fill="none" stroke="#191970" d="M858.3625,-102C866.847,-102 875.4628,-102 883.8868,-102"/>
<polygon fill="#191970" stroke="#191970" points="858.1003,-98.5001 848.1002,-102 858.1002,-105.5001 858.1003,-98.5001"/>
</g>
</g>
</svg>
