<?xml version="1.0" encoding="UTF-8" standalone="no"?>
<!DOCTYPE svg PUBLIC "-//W3C//DTD SVG 1.1//EN"
 "http://www.w3.org/Graphics/SVG/1.1/DTD/svg11.dtd">
<!-- Generated by graphviz version 2.40.1 (20161225.0304)
 -->
<!-- Title: River::Solver::RightHandSide Pages: 1 -->
<svg width="165pt" height="171pt"
 viewBox="0.00 0.00 165.00 171.00" xmlns="http://www.w3.org/2000/svg" xmlns:xlink="http://www.w3.org/1999/xlink">
<g id="graph0" class="graph" transform="scale(1 1) rotate(0) translate(4 167)">
<title>River::Solver::RightHandSide</title>
<polygon fill="#ffffff" stroke="transparent" points="-4,4 -4,-167 161,-167 161,4 -4,4"/>
<!-- Node0 -->
<g id="node1" class="node">
<title>Node0</title>
<polygon fill="#bfbfbf" stroke="#000000" points="0,-.5 0,-68.5 157,-68.5 157,-.5 0,-.5"/>
<text text-anchor="middle" x="78.5" y="-56.5" font-family="Helvetica,sans-Serif" font-size="10.00" fill="#000000">River::Solver::RightHandSide</text>
<polyline fill="none" stroke="#000000" points="0,-49.5 157,-49.5 "/>
<text text-anchor="start" x="8" y="-37.5" font-family="Helvetica,sans-Serif" font-size="10.00" fill="#000000">+ fieldValue</text>
<polyline fill="none" stroke="#000000" points="0,-30.5 157,-30.5 "/>
<text text-anchor="start" x="8" y="-18.5" font-family="Helvetica,sans-Serif" font-size="10.00" fill="#000000">+ RightHandSide()</text>
<text text-anchor="start" x="8" y="-7.5" font-family="Helvetica,sans-Serif" font-size="10.00" fill="#000000">+ value()</text>
</g>
<!-- Node1 -->
<g id="node2" class="node">
<title>Node1</title>
<g id="a_node2"><a xlink:href="classFunction.html" target="_top" xlink:title="{Function\&lt; dim \&gt;\n||}">
<polygon fill="#ffffff" stroke="#000000" points="29.5,-105.5 29.5,-162.5 127.5,-162.5 127.5,-105.5 29.5,-105.5"/>
<text text-anchor="middle" x="78.5" y="-150.5" font-family="Helvetica,sans-Serif" font-size="10.00" fill="#000000">Function&lt; dim &gt;</text>
<polyline fill="none" stroke="#000000" points="29.5,-143.5 127.5,-143.5 "/>
<text text-anchor="middle" x="78.5" y="-131.5" font-family="Helvetica,sans-Serif" font-size="10.00" fill="#000000"> </text>
<polyline fill="none" stroke="#000000" points="29.5,-124.5 127.5,-124.5 "/>
<text text-anchor="middle" x="78.5" y="-112.5" font-family="Helvetica,sans-Serif" font-size="10.00" fill="#000000"> </text>
</a>
</g>
</g>
<!-- Node1&#45;&gt;Node0 -->
<g id="edge1" class="edge">
<title>Node1&#45;&gt;Node0</title>
<path fill="none" stroke="#191970" d="M78.5,-95.4268C78.5,-86.6025 78.5,-77.2834 78.5,-68.6596"/>
<polygon fill="none" stroke="#191970" points="75.0001,-95.4873 78.5,-105.4873 82.0001,-95.4873 75.0001,-95.4873"/>
</g>
</g>
</svg>
