<?xml version="1.0" encoding="UTF-8" standalone="no"?>
<!DOCTYPE svg PUBLIC "-//W3C//DTD SVG 1.1//EN"
 "http://www.w3.org/Graphics/SVG/1.1/DTD/svg11.dtd">
<!-- Generated by graphviz version 2.40.1 (20161225.0304)
 -->
<!-- Title: River::Tree::HasSubBranches Pages: 1 -->
<svg width="707pt" height="28pt"
 viewBox="0.00 0.00 707.00 28.00" xmlns="http://www.w3.org/2000/svg" xmlns:xlink="http://www.w3.org/1999/xlink">
<g id="graph0" class="graph" transform="scale(1 1) rotate(0) translate(4 24)">
<title>River::Tree::HasSubBranches</title>
<polygon fill="#ffffff" stroke="transparent" points="-4,4 -4,-24 703,-24 703,4 -4,4"/>
<!-- Node51 -->
<g id="node1" class="node">
<title>Node51</title>
<polygon fill="#bfbfbf" stroke="#000000" points="0,-.5 0,-19.5 148,-19.5 148,-.5 0,-.5"/>
<text text-anchor="middle" x="74" y="-7.5" font-family="Helvetica,sans-Serif" font-size="10.00" fill="#000000">River::Tree::HasSubBranches</text>
</g>
<!-- Node52 -->
<g id="node2" class="node">
<title>Node52</title>
<g id="a_node2"><a xlink:href="namespaceRiver.html#ace7057edc24ee07f8265dad28b73a41a" target="_top" xlink:title="Generates trees boundary. ">
<polygon fill="#ffffff" stroke="#000000" points="184,-.5 184,-19.5 278,-19.5 278,-.5 184,-.5"/>
<text text-anchor="middle" x="231" y="-7.5" font-family="Helvetica,sans-Serif" font-size="10.00" fill="#000000">River::TreeVector</text>
</a>
</g>
</g>
<!-- Node51&#45;&gt;Node52 -->
<g id="edge1" class="edge">
<title>Node51&#45;&gt;Node52</title>
<path fill="none" stroke="#191970" d="M158.5324,-10C167.1791,-10 175.7277,-10 183.7551,-10"/>
<polygon fill="#191970" stroke="#191970" points="158.3621,-6.5001 148.3621,-10 158.362,-13.5001 158.3621,-6.5001"/>
</g>
<!-- Node53 -->
<g id="node3" class="node">
<title>Node53</title>
<g id="a_node3"><a xlink:href="namespaceRiver.html#a43d55da8d0508b984518c4ebed6e0ad7" target="_top" xlink:title="Finnal Boudary Geneartor Class. ">
<polygon fill="#ffffff" stroke="#000000" points="314,-.5 314,-19.5 444,-19.5 444,-.5 314,-.5"/>
<text text-anchor="middle" x="379" y="-7.5" font-family="Helvetica,sans-Serif" font-size="10.00" fill="#000000">River::BoundaryGenerator</text>
</a>
</g>
</g>
<!-- Node52&#45;&gt;Node53 -->
<g id="edge2" class="edge">
<title>Node52&#45;&gt;Node53</title>
<path fill="none" stroke="#191970" d="M288.2771,-10C296.658,-10 305.3409,-10 313.8646,-10"/>
<polygon fill="#191970" stroke="#191970" points="288.2351,-6.5001 278.235,-10 288.235,-13.5001 288.2351,-6.5001"/>
</g>
<!-- Node54 -->
<g id="node4" class="node">
<title>Node54</title>
<g id="a_node4"><a xlink:href="namespaceRiver.html#af1a3f7c61809dd8032e4ff5920da83cc" target="_top" xlink:title="One step of forward river evolution. ">
<polygon fill="#ffffff" stroke="#000000" points="480,-.5 480,-19.5 625,-19.5 625,-.5 480,-.5"/>
<text text-anchor="middle" x="552.5" y="-7.5" font-family="Helvetica,sans-Serif" font-size="10.00" fill="#000000">River::ForwardRiverEvolution</text>
</a>
</g>
</g>
<!-- Node53&#45;&gt;Node54 -->
<g id="edge3" class="edge">
<title>Node53&#45;&gt;Node54</title>
<path fill="none" stroke="#191970" d="M454.3052,-10C462.7508,-10 471.3436,-10 479.7559,-10"/>
<polygon fill="#191970" stroke="#191970" points="454.0987,-6.5001 444.0986,-10 454.0986,-13.5001 454.0987,-6.5001"/>
</g>
<!-- Node55 -->
<g id="node5" class="node">
<title>Node55</title>
<g id="a_node5"><a xlink:href="main_8cpp.html#a0ddf1224851353fc92bfbff6f499fa97" target="_top" xlink:title="Entry point of RiverSim program. ">
<polygon fill="#ffffff" stroke="#000000" points="661,-.5 661,-19.5 699,-19.5 699,-.5 661,-.5"/>
<text text-anchor="middle" x="680" y="-7.5" font-family="Helvetica,sans-Serif" font-size="10.00" fill="#000000">main</text>
</a>
</g>
</g>
<!-- Node54&#45;&gt;Node55 -->
<g id="edge4" class="edge">
<title>Node54&#45;&gt;Node55</title>
<path fill="none" stroke="#191970" d="M635.2526,-10C644.7338,-10 653.5978,-10 660.8947,-10"/>
<polygon fill="#191970" stroke="#191970" points="635.1886,-6.5001 625.1886,-10 635.1885,-13.5001 635.1886,-6.5001"/>
</g>
</g>
</svg>
