<?xml version="1.0" encoding="UTF-8" standalone="no"?>
<!DOCTYPE svg PUBLIC "-//W3C//DTD SVG 1.1//EN"
 "http://www.w3.org/Graphics/SVG/1.1/DTD/svg11.dtd">
<!-- Generated by graphviz version 2.40.1 (20161225.0304)
 -->
<!-- Title: tethex::Mesh::operator= Pages: 1 -->
<svg width="412pt" height="577pt"
 viewBox="0.00 0.00 412.00 576.50" xmlns="http://www.w3.org/2000/svg" xmlns:xlink="http://www.w3.org/1999/xlink">
<g id="graph0" class="graph" transform="scale(1 1) rotate(0) translate(4 572.5)">
<title>tethex::Mesh::operator=</title>
<polygon fill="#ffffff" stroke="transparent" points="-4,4 -4,-572.5 408,-572.5 408,4 -4,4"/>
<!-- Node27 -->
<g id="node1" class="node">
<title>Node27</title>
<polygon fill="#bfbfbf" stroke="#000000" points="0,-269.5 0,-288.5 121,-288.5 121,-269.5 0,-269.5"/>
<text text-anchor="middle" x="60.5" y="-276.5" font-family="Helvetica,sans-Serif" font-size="10.00" fill="#000000">tethex::Mesh::operator=</text>
</g>
<!-- Node28 -->
<g id="node2" class="node">
<title>Node28</title>
<g id="a_node2"><a xlink:href="classtethex_1_1Mesh.html#a6e8f11687058c84b30c1501731a35508" target="_top" xlink:title="tethex::Mesh::get_n\l_converted_quadrangles">
<polygon fill="#ffffff" stroke="#000000" points="169,-538 169,-568 291,-568 291,-538 169,-538"/>
<text text-anchor="start" x="177" y="-556" font-family="Helvetica,sans-Serif" font-size="10.00" fill="#000000">tethex::Mesh::get_n</text>
<text text-anchor="middle" x="230" y="-545" font-family="Helvetica,sans-Serif" font-size="10.00" fill="#000000">_converted_quadrangles</text>
</a>
</g>
</g>
<!-- Node27&#45;&gt;Node28 -->
<g id="edge1" class="edge">
<title>Node27&#45;&gt;Node28</title>
<path fill="none" stroke="#191970" d="M61.3117,-288.5066C64.949,-325.1449 82.9815,-458.6453 157,-529 158.1181,-530.0627 159.2841,-531.0784 160.4914,-532.0491"/>
<polygon fill="#191970" stroke="#191970" points="158.7511,-535.0982 168.989,-537.8253 162.6863,-529.309 158.7511,-535.0982"/>
</g>
<!-- Node29 -->
<g id="node3" class="node">
<title>Node29</title>
<g id="a_node3"><a xlink:href="classtethex_1_1Mesh.html#a7aa9c2737b989945d2d233f7200cb3ac" target="_top" xlink:title="tethex::Mesh::get_n\l_vertices">
<polygon fill="#ffffff" stroke="#000000" points="178,-489 178,-519 282,-519 282,-489 178,-489"/>
<text text-anchor="start" x="186" y="-507" font-family="Helvetica,sans-Serif" font-size="10.00" fill="#000000">tethex::Mesh::get_n</text>
<text text-anchor="middle" x="230" y="-496" font-family="Helvetica,sans-Serif" font-size="10.00" fill="#000000">_vertices</text>
</a>
</g>
</g>
<!-- Node27&#45;&gt;Node29 -->
<g id="edge2" class="edge">
<title>Node27&#45;&gt;Node29</title>
<path fill="none" stroke="#191970" d="M62.3612,-288.5143C69.0727,-320.3143 94.9909,-423.9968 157,-479 160.5702,-482.1669 164.5605,-484.9365 168.7847,-487.3581"/>
<polygon fill="#191970" stroke="#191970" points="167.2184,-490.488 177.7246,-491.8557 170.3644,-484.2347 167.2184,-490.488"/>
</g>
<!-- Node30 -->
<g id="node4" class="node">
<title>Node30</title>
<g id="a_node4"><a xlink:href="classtethex_1_1Mesh.html#aea31733cbb3d4e47252da53a253ec9b8" target="_top" xlink:title="tethex::Mesh::get_vertex">
<polygon fill="#ffffff" stroke="#000000" points="167.5,-450.5 167.5,-469.5 292.5,-469.5 292.5,-450.5 167.5,-450.5"/>
<text text-anchor="middle" x="230" y="-457.5" font-family="Helvetica,sans-Serif" font-size="10.00" fill="#000000">tethex::Mesh::get_vertex</text>
</a>
</g>
</g>
<!-- Node27&#45;&gt;Node30 -->
<g id="edge3" class="edge">
<title>Node27&#45;&gt;Node30</title>
<path fill="none" stroke="#191970" d="M63.4027,-288.8135C72.3079,-317.1529 102.0267,-399.7192 157,-441 159.4855,-442.8664 162.1376,-444.55 164.904,-446.0688"/>
<polygon fill="#191970" stroke="#191970" points="163.526,-449.2884 174.0644,-450.3798 166.5067,-442.9547 163.526,-449.2884"/>
</g>
<!-- Node32 -->
<g id="node6" class="node">
<title>Node32</title>
<g id="a_node6"><a xlink:href="classtethex_1_1Mesh.html#a77dc945a9f65b5b1d41e39ec8d06adb8" target="_top" xlink:title="tethex::Mesh::get_n\l_points">
<polygon fill="#ffffff" stroke="#000000" points="178,-401 178,-431 282,-431 282,-401 178,-401"/>
<text text-anchor="start" x="186" y="-419" font-family="Helvetica,sans-Serif" font-size="10.00" fill="#000000">tethex::Mesh::get_n</text>
<text text-anchor="middle" x="230" y="-408" font-family="Helvetica,sans-Serif" font-size="10.00" fill="#000000">_points</text>
</a>
</g>
</g>
<!-- Node27&#45;&gt;Node32 -->
<g id="edge5" class="edge">
<title>Node27&#45;&gt;Node32</title>
<path fill="none" stroke="#191970" d="M66.2292,-288.6043C79.4996,-310.0568 114.4823,-362.2371 157,-391 160.5576,-393.4067 164.3691,-395.6027 168.3152,-397.603"/>
<polygon fill="#191970" stroke="#191970" points="167.1628,-400.9253 177.7106,-401.9223 170.0868,-394.5652 167.1628,-400.9253"/>
</g>
<!-- Node33 -->
<g id="node7" class="node">
<title>Node33</title>
<g id="a_node7"><a xlink:href="classtethex_1_1Mesh.html#a662e5df32c04d894bbc9598d3fe4d3f0" target="_top" xlink:title="tethex::Mesh::get_point">
<polygon fill="#ffffff" stroke="#000000" points="170.5,-362.5 170.5,-381.5 289.5,-381.5 289.5,-362.5 170.5,-362.5"/>
<text text-anchor="middle" x="230" y="-369.5" font-family="Helvetica,sans-Serif" font-size="10.00" fill="#000000">tethex::Mesh::get_point</text>
</a>
</g>
</g>
<!-- Node27&#45;&gt;Node33 -->
<g id="edge6" class="edge">
<title>Node27&#45;&gt;Node33</title>
<path fill="none" stroke="#191970" d="M70.2853,-288.7066C86.7624,-304.5098 121.7161,-335.7637 157,-353 161.8538,-355.3711 167.0388,-357.4714 172.3222,-359.3266"/>
<polygon fill="#191970" stroke="#191970" points="171.2968,-362.6733 181.8882,-362.4068 173.4423,-356.0102 171.2968,-362.6733"/>
</g>
<!-- Node34 -->
<g id="node8" class="node">
<title>Node34</title>
<g id="a_node8"><a xlink:href="classtethex_1_1MeshElement.html#aed911a47266af4848f1e8bdd0c89e177" target="_top" xlink:title="tethex::MeshElement\l::get_vertex">
<polygon fill="#ffffff" stroke="#000000" points="175,-313 175,-343 285,-343 285,-313 175,-313"/>
<text text-anchor="start" x="183" y="-331" font-family="Helvetica,sans-Serif" font-size="10.00" fill="#000000">tethex::MeshElement</text>
<text text-anchor="middle" x="230" y="-320" font-family="Helvetica,sans-Serif" font-size="10.00" fill="#000000">::get_vertex</text>
</a>
</g>
</g>
<!-- Node27&#45;&gt;Node34 -->
<g id="edge8" class="edge">
<title>Node27&#45;&gt;Node34</title>
<path fill="none" stroke="#191970" d="M93.5837,-288.564C114.7618,-294.6863 142.9005,-302.8208 168.1191,-310.1111"/>
<polygon fill="#191970" stroke="#191970" points="167.4057,-313.5482 177.9844,-312.963 169.3498,-306.8235 167.4057,-313.5482"/>
</g>
<!-- Node35 -->
<g id="node9" class="node">
<title>Node35</title>
<g id="a_node9"><a xlink:href="classtethex_1_1MeshElement.html#a44ac13c3270bbf9d70c7e0ea85809979" target="_top" xlink:title="tethex::MeshElement\l::get_material_id">
<polygon fill="#ffffff" stroke="#000000" points="175,-264 175,-294 285,-294 285,-264 175,-264"/>
<text text-anchor="start" x="183" y="-282" font-family="Helvetica,sans-Serif" font-size="10.00" fill="#000000">tethex::MeshElement</text>
<text text-anchor="middle" x="230" y="-271" font-family="Helvetica,sans-Serif" font-size="10.00" fill="#000000">::get_material_id</text>
</a>
</g>
</g>
<!-- Node27&#45;&gt;Node35 -->
<g id="edge10" class="edge">
<title>Node27&#45;&gt;Node35</title>
<path fill="none" stroke="#191970" d="M121.2146,-279C135.2795,-279 150.3071,-279 164.5645,-279"/>
<polygon fill="#191970" stroke="#191970" points="164.7852,-282.5001 174.7852,-279 164.7851,-275.5001 164.7852,-282.5001"/>
</g>
<!-- Node36 -->
<g id="node10" class="node">
<title>Node36</title>
<g id="a_node10"><a xlink:href="classtethex_1_1Mesh.html#a9d5bf2be83f6181124a1014602f5c4ca" target="_top" xlink:title="tethex::Mesh::get_n\l_lines">
<polygon fill="#ffffff" stroke="#000000" points="178,-215 178,-245 282,-245 282,-215 178,-215"/>
<text text-anchor="start" x="186" y="-233" font-family="Helvetica,sans-Serif" font-size="10.00" fill="#000000">tethex::Mesh::get_n</text>
<text text-anchor="middle" x="230" y="-222" font-family="Helvetica,sans-Serif" font-size="10.00" fill="#000000">_lines</text>
</a>
</g>
</g>
<!-- Node27&#45;&gt;Node36 -->
<g id="edge11" class="edge">
<title>Node27&#45;&gt;Node36</title>
<path fill="none" stroke="#191970" d="M93.5837,-269.436C114.7618,-263.3137 142.9005,-255.1792 168.1191,-247.8889"/>
<polygon fill="#191970" stroke="#191970" points="169.3498,-251.1765 177.9844,-245.037 167.4057,-244.4518 169.3498,-251.1765"/>
</g>
<!-- Node37 -->
<g id="node11" class="node">
<title>Node37</title>
<g id="a_node11"><a xlink:href="classtethex_1_1Mesh.html#a31af01d4cca474c530bcfa8dbda990c0" target="_top" xlink:title="tethex::Mesh::get_line">
<polygon fill="#ffffff" stroke="#000000" points="173.5,-176.5 173.5,-195.5 286.5,-195.5 286.5,-176.5 173.5,-176.5"/>
<text text-anchor="middle" x="230" y="-183.5" font-family="Helvetica,sans-Serif" font-size="10.00" fill="#000000">tethex::Mesh::get_line</text>
</a>
</g>
</g>
<!-- Node27&#45;&gt;Node37 -->
<g id="edge12" class="edge">
<title>Node27&#45;&gt;Node37</title>
<path fill="none" stroke="#191970" d="M70.3367,-269.4821C86.8879,-253.9751 121.9454,-223.2597 157,-206 162.6477,-203.2192 168.7381,-200.7789 174.9076,-198.6488"/>
<polygon fill="#191970" stroke="#191970" points="176.1518,-201.9258 184.6156,-195.5528 174.0249,-195.2567 176.1518,-201.9258"/>
</g>
<!-- Node38 -->
<g id="node12" class="node">
<title>Node38</title>
<g id="a_node12"><a xlink:href="classtethex_1_1Mesh.html#a2e2cf18a97625017e9fc39e770455f4a" target="_top" xlink:title="tethex::Mesh::get_n\l_triangles">
<polygon fill="#ffffff" stroke="#000000" points="178,-127 178,-157 282,-157 282,-127 178,-127"/>
<text text-anchor="start" x="186" y="-145" font-family="Helvetica,sans-Serif" font-size="10.00" fill="#000000">tethex::Mesh::get_n</text>
<text text-anchor="middle" x="230" y="-134" font-family="Helvetica,sans-Serif" font-size="10.00" fill="#000000">_triangles</text>
</a>
</g>
</g>
<!-- Node27&#45;&gt;Node38 -->
<g id="edge14" class="edge">
<title>Node27&#45;&gt;Node38</title>
<path fill="none" stroke="#191970" d="M66.2292,-269.3957C79.4996,-247.9432 114.4823,-195.7629 157,-167 160.5576,-164.5933 164.3691,-162.3973 168.3152,-160.397"/>
<polygon fill="#191970" stroke="#191970" points="170.0868,-163.4348 177.7106,-156.0777 167.1628,-157.0747 170.0868,-163.4348"/>
</g>
<!-- Node39 -->
<g id="node13" class="node">
<title>Node39</title>
<g id="a_node13"><a xlink:href="classtethex_1_1Mesh.html#a28ee91d1c112c5852cead4cbcdfc6dda" target="_top" xlink:title="tethex::Mesh::get_triangle">
<polygon fill="#ffffff" stroke="#000000" points="165,-88.5 165,-107.5 295,-107.5 295,-88.5 165,-88.5"/>
<text text-anchor="middle" x="230" y="-95.5" font-family="Helvetica,sans-Serif" font-size="10.00" fill="#000000">tethex::Mesh::get_triangle</text>
</a>
</g>
</g>
<!-- Node27&#45;&gt;Node39 -->
<g id="edge15" class="edge">
<title>Node27&#45;&gt;Node39</title>
<path fill="none" stroke="#191970" d="M63.447,-269.2802C72.4724,-241.2054 102.4843,-159.3676 157,-118 160.1486,-115.6108 163.565,-113.5069 167.1429,-111.6543"/>
<polygon fill="#191970" stroke="#191970" points="168.614,-114.8305 176.3086,-107.5474 165.7516,-108.4425 168.614,-114.8305"/>
</g>
<!-- Node40 -->
<g id="node14" class="node">
<title>Node40</title>
<g id="a_node14"><a xlink:href="classtethex_1_1Mesh.html#a1a776b3e42d2abc98be5d5ea89d46b1f" target="_top" xlink:title="tethex::Mesh::get_n\l_quadrangles">
<polygon fill="#ffffff" stroke="#000000" points="178,-39 178,-69 282,-69 282,-39 178,-39"/>
<text text-anchor="start" x="186" y="-57" font-family="Helvetica,sans-Serif" font-size="10.00" fill="#000000">tethex::Mesh::get_n</text>
<text text-anchor="middle" x="230" y="-46" font-family="Helvetica,sans-Serif" font-size="10.00" fill="#000000">_quadrangles</text>
</a>
</g>
</g>
<!-- Node27&#45;&gt;Node40 -->
<g id="edge17" class="edge">
<title>Node27&#45;&gt;Node40</title>
<path fill="none" stroke="#191970" d="M62.3612,-269.4857C69.0727,-237.6857 94.9909,-134.0032 157,-79 160.5702,-75.8331 164.5605,-73.0635 168.7847,-70.6419"/>
<polygon fill="#191970" stroke="#191970" points="170.3644,-73.7653 177.7246,-66.1443 167.2184,-67.512 170.3644,-73.7653"/>
</g>
<!-- Node41 -->
<g id="node15" class="node">
<title>Node41</title>
<g id="a_node15"><a xlink:href="classtethex_1_1Mesh.html#a5737e6675d86cce7410b4b690f25618f" target="_top" xlink:title="tethex::Mesh::get_quadrangle">
<polygon fill="#ffffff" stroke="#000000" points="157,-.5 157,-19.5 303,-19.5 303,-.5 157,-.5"/>
<text text-anchor="middle" x="230" y="-7.5" font-family="Helvetica,sans-Serif" font-size="10.00" fill="#000000">tethex::Mesh::get_quadrangle</text>
</a>
</g>
</g>
<!-- Node27&#45;&gt;Node41 -->
<g id="edge18" class="edge">
<title>Node27&#45;&gt;Node41</title>
<path fill="none" stroke="#191970" d="M61.2186,-269.4163C64.514,-232.5012 81.4559,-98.1847 157,-30 159.3152,-27.9103 161.8287,-26.0362 164.4836,-24.3556"/>
<polygon fill="#191970" stroke="#191970" points="166.1941,-27.4101 173.3751,-19.6201 162.9036,-21.2317 166.1941,-27.4101"/>
</g>
<!-- Node31 -->
<g id="node5" class="node">
<title>Node31</title>
<g id="a_node5"><a xlink:href="namespacetethex.html#a31a6ad16911dd58abefe17ab46534aa4" target="_top" xlink:title="tethex::d2s">
<polygon fill="#ffffff" stroke="#000000" points="339,-247.5 339,-266.5 404,-266.5 404,-247.5 339,-247.5"/>
<text text-anchor="middle" x="371.5" y="-254.5" font-family="Helvetica,sans-Serif" font-size="10.00" fill="#000000">tethex::d2s</text>
</a>
</g>
</g>
<!-- Node30&#45;&gt;Node31 -->
<g id="edge4" class="edge">
<title>Node30&#45;&gt;Node31</title>
<path fill="none" stroke="#191970" d="M288.4736,-450.4364C293.7607,-447.9577 298.7236,-444.862 303,-441 351.8317,-396.9008 365.9687,-314.6909 369.9689,-276.9164"/>
<polygon fill="#191970" stroke="#191970" points="373.4768,-276.9909 370.9121,-266.7112 366.5065,-276.3466 373.4768,-276.9909"/>
</g>
<!-- Node33&#45;&gt;Node31 -->
<g id="edge7" class="edge">
<title>Node33&#45;&gt;Node31</title>
<path fill="none" stroke="#191970" d="M284.5015,-362.3887C291.0479,-359.9374 297.3905,-356.861 303,-353 331.537,-333.3579 352.2755,-297.7426 363.0578,-275.8499"/>
<polygon fill="#191970" stroke="#191970" points="366.3209,-277.1362 367.4229,-266.5988 359.9902,-274.1491 366.3209,-277.1362"/>
</g>
<!-- Node34&#45;&gt;Node31 -->
<g id="edge9" class="edge">
<title>Node34&#45;&gt;Node31</title>
<path fill="none" stroke="#191970" d="M282.1767,-312.8657C289.3034,-310.2179 296.4235,-307.2542 303,-304 320.2246,-295.4769 338.0768,-283.0928 351.2365,-273.1763"/>
<polygon fill="#191970" stroke="#191970" points="353.7479,-275.6596 359.532,-266.783 349.4748,-270.1152 353.7479,-275.6596"/>
</g>
<!-- Node37&#45;&gt;Node31 -->
<g id="edge13" class="edge">
<title>Node37&#45;&gt;Node31</title>
<path fill="none" stroke="#191970" d="M275.3597,-195.6033C284.737,-198.3627 294.3778,-201.7956 303,-206 321.5842,-215.0622 340.2481,-229.3851 353.3901,-240.5481"/>
<polygon fill="#191970" stroke="#191970" points="351.337,-243.4018 361.1726,-247.3405 355.94,-238.128 351.337,-243.4018"/>
</g>
<!-- Node39&#45;&gt;Node31 -->
<g id="edge16" class="edge">
<title>Node39&#45;&gt;Node31</title>
<path fill="none" stroke="#191970" d="M285.1495,-107.572C291.5901,-110.2413 297.7307,-113.6496 303,-118 341.0626,-149.4251 359.7514,-207.2006 367.2859,-237.4165"/>
<polygon fill="#191970" stroke="#191970" points="363.8888,-238.2606 369.5724,-247.2019 370.7052,-236.6678 363.8888,-238.2606"/>
</g>
<!-- Node41&#45;&gt;Node31 -->
<g id="edge19" class="edge">
<title>Node41&#45;&gt;Node31</title>
<path fill="none" stroke="#191970" d="M287.678,-19.6055C293.3177,-22.2872 298.5772,-25.6892 303,-30 333.2888,-59.5213 359.0887,-187.9137 368.0901,-237.4263"/>
<polygon fill="#191970" stroke="#191970" points="364.681,-238.2464 369.8819,-247.4768 371.5723,-237.0177 364.681,-238.2464"/>
</g>
</g>
</svg>
