<?xml version="1.0" encoding="UTF-8" standalone="no"?>
<!DOCTYPE svg PUBLIC "-//W3C//DTD SVG 1.1//EN"
 "http://www.w3.org/Graphics/SVG/1.1/DTD/svg11.dtd">
<!-- Generated by graphviz version 2.40.1 (20161225.0304)
 -->
<!-- Title: River::Border::GetAdjacentPointId Pages: 1 -->
<svg width="398pt" height="78pt"
 viewBox="0.00 0.00 398.00 77.50" xmlns="http://www.w3.org/2000/svg" xmlns:xlink="http://www.w3.org/1999/xlink">
<g id="graph0" class="graph" transform="scale(1 1) rotate(0) translate(4 73.5)">
<title>River::Border::GetAdjacentPointId</title>
<polygon fill="#ffffff" stroke="transparent" points="-4,4 -4,-73.5 394,-73.5 394,4 -4,4"/>
<!-- Node57 -->
<g id="node1" class="node">
<title>Node57</title>
<polygon fill="#bfbfbf" stroke="#000000" points="0,-22.5 0,-52.5 134,-52.5 134,-22.5 0,-22.5"/>
<text text-anchor="start" x="8" y="-40.5" font-family="Helvetica,sans-Serif" font-size="10.00" fill="#000000">River::Border::GetAdjacent</text>
<text text-anchor="middle" x="67" y="-29.5" font-family="Helvetica,sans-Serif" font-size="10.00" fill="#000000">PointId</text>
</g>
<!-- Node58 -->
<g id="node2" class="node">
<title>Node58</title>
<g id="a_node2"><a xlink:href="classtethex_1_1Mesh.html#a9927a3d84b3743cc37e09ea029b8fe26" target="_top" xlink:title="Get reference to physical lines vector. ">
<polygon fill="#ffffff" stroke="#000000" points="170,-50 170,-69 289,-69 289,-50 170,-50"/>
<text text-anchor="middle" x="229.5" y="-57" font-family="Helvetica,sans-Serif" font-size="10.00" fill="#000000">tethex::Mesh::get_lines</text>
</a>
</g>
</g>
<!-- Node57&#45;&gt;Node58 -->
<g id="edge1" class="edge">
<title>Node57&#45;&gt;Node58</title>
<path fill="none" stroke="#191970" d="M134.0332,-46.5753C142.5791,-47.7322 151.3417,-48.9186 159.9266,-50.0808"/>
<polygon fill="#191970" stroke="#191970" points="159.5201,-53.5577 169.8993,-51.431 160.4593,-46.6209 159.5201,-53.5577"/>
</g>
<!-- Node59 -->
<g id="node3" class="node">
<title>Node59</title>
<g id="a_node3"><a xlink:href="classtethex_1_1MeshElement.html#aed911a47266af4848f1e8bdd0c89e177" target="_top" xlink:title="Get the number of vertex describing the element. ">
<polygon fill="#ffffff" stroke="#000000" points="174.5,-.5 174.5,-30.5 284.5,-30.5 284.5,-.5 174.5,-.5"/>
<text text-anchor="start" x="182.5" y="-18.5" font-family="Helvetica,sans-Serif" font-size="10.00" fill="#000000">tethex::MeshElement</text>
<text text-anchor="middle" x="229.5" y="-7.5" font-family="Helvetica,sans-Serif" font-size="10.00" fill="#000000">::get_vertex</text>
</a>
</g>
</g>
<!-- Node57&#45;&gt;Node59 -->
<g id="edge2" class="edge">
<title>Node57&#45;&gt;Node59</title>
<path fill="none" stroke="#191970" d="M134.0332,-28.4247C144.1309,-27.0577 154.5311,-25.6496 164.5833,-24.2887"/>
<polygon fill="#191970" stroke="#191970" points="165.0555,-27.7568 174.4955,-22.9468 164.1163,-20.8201 165.0555,-27.7568"/>
</g>
<!-- Node60 -->
<g id="node4" class="node">
<title>Node60</title>
<g id="a_node4"><a xlink:href="namespacetethex.html#a31a6ad16911dd58abefe17ab46534aa4" target="_top" xlink:title="tethex::d2s">
<polygon fill="#ffffff" stroke="#000000" points="325,-6 325,-25 390,-25 390,-6 325,-6"/>
<text text-anchor="middle" x="357.5" y="-13" font-family="Helvetica,sans-Serif" font-size="10.00" fill="#000000">tethex::d2s</text>
</a>
</g>
</g>
<!-- Node59&#45;&gt;Node60 -->
<g id="edge3" class="edge">
<title>Node59&#45;&gt;Node60</title>
<path fill="none" stroke="#191970" d="M284.5264,-15.5C294.5779,-15.5 304.9308,-15.5 314.5665,-15.5"/>
<polygon fill="#191970" stroke="#191970" points="314.6927,-19.0001 324.6927,-15.5 314.6926,-12.0001 314.6927,-19.0001"/>
</g>
</g>
</svg>
