<?xml version="1.0" encoding="UTF-8" standalone="no"?>
<!DOCTYPE svg PUBLIC "-//W3C//DTD SVG 1.1//EN"
 "http://www.w3.org/Graphics/SVG/1.1/DTD/svg11.dtd">
<!-- Generated by graphviz version 2.40.1 (20161225.0304)
 -->
<!-- Title: River::Gmsh::start_ui Pages: 1 -->
<svg width="373pt" height="47pt"
 viewBox="0.00 0.00 373.00 47.00" xmlns="http://www.w3.org/2000/svg" xmlns:xlink="http://www.w3.org/1999/xlink">
<g id="graph0" class="graph" transform="scale(1 1) rotate(0) translate(4 43)">
<title>River::Gmsh::start_ui</title>
<polygon fill="#ffffff" stroke="transparent" points="-4,4 -4,-43 369,-43 369,4 -4,4"/>
<!-- Node36 -->
<g id="node1" class="node">
<title>Node36</title>
<polygon fill="#bfbfbf" stroke="#000000" points="0,-19.5 0,-38.5 110,-38.5 110,-19.5 0,-19.5"/>
<text text-anchor="middle" x="55" y="-26.5" font-family="Helvetica,sans-Serif" font-size="10.00" fill="#000000">River::Gmsh::start_ui</text>
</g>
<!-- Node37 -->
<g id="node2" class="node">
<title>Node37</title>
<g id="a_node2"><a xlink:href="main_8cpp.html#a0ddf1224851353fc92bfbff6f499fa97" target="_top" xlink:title="Entry point of RiverSim program. ">
<polygon fill="#ffffff" stroke="#000000" points="327,-19.5 327,-38.5 365,-38.5 365,-19.5 327,-19.5"/>
<text text-anchor="middle" x="346" y="-26.5" font-family="Helvetica,sans-Serif" font-size="10.00" fill="#000000">main</text>
</a>
</g>
</g>
<!-- Node36&#45;&gt;Node37 -->
<g id="edge1" class="edge">
<title>Node36&#45;&gt;Node37</title>
<path fill="none" stroke="#191970" d="M120.4481,-29C186.8832,-29 285.6479,-29 326.8588,-29"/>
<polygon fill="#191970" stroke="#191970" points="120.077,-25.5001 110.077,-29 120.0769,-32.5001 120.077,-25.5001"/>
</g>
<!-- Node38 -->
<g id="node3" class="node">
<title>Node38</title>
<g id="a_node3"><a xlink:href="namespaceRiver.html#a494b68e2992de95500d6d81770de62ed" target="_top" xlink:title="River::ForwardRiverEvolution">
<polygon fill="#ffffff" stroke="#000000" points="146,-.5 146,-19.5 291,-19.5 291,-.5 146,-.5"/>
<text text-anchor="middle" x="218.5" y="-7.5" font-family="Helvetica,sans-Serif" font-size="10.00" fill="#000000">River::ForwardRiverEvolution</text>
</a>
</g>
</g>
<!-- Node36&#45;&gt;Node38 -->
<g id="edge2" class="edge">
<title>Node36&#45;&gt;Node38</title>
<path fill="none" stroke="#191970" d="M120.4026,-21.3997C128.7577,-20.4288 137.3504,-19.4302 145.812,-18.4469"/>
<polygon fill="#191970" stroke="#191970" points="119.8828,-17.9365 110.3536,-22.5675 120.6908,-24.8897 119.8828,-17.9365"/>
</g>
<!-- Node38&#45;&gt;Node37 -->
<g id="edge3" class="edge">
<title>Node38&#45;&gt;Node37</title>
<path fill="none" stroke="#191970" d="M292.7834,-21.0697C305.3501,-22.9424 317.3551,-24.7313 326.7718,-26.1346"/>
<polygon fill="#191970" stroke="#191970" points="293.0302,-17.5679 282.6235,-19.5557 291.9984,-24.4914 293.0302,-17.5679"/>
</g>
</g>
</svg>
