<?xml version="1.0" encoding="UTF-8" standalone="no"?>
<!DOCTYPE svg PUBLIC "-//W3C//DTD SVG 1.1//EN"
 "http://www.w3.org/Graphics/SVG/1.1/DTD/svg11.dtd">
<!-- Generated by graphviz version 2.40.1 (20161225.0304)
 -->
<!-- Title: River::MeshParams Pages: 1 -->
<svg width="189pt" height="226pt"
 viewBox="0.00 0.00 189.00 226.00" xmlns="http://www.w3.org/2000/svg" xmlns:xlink="http://www.w3.org/1999/xlink">
<g id="graph0" class="graph" transform="scale(1 1) rotate(0) translate(4 222)">
<title>River::MeshParams</title>
<polygon fill="#ffffff" stroke="transparent" points="-4,4 -4,-222 185,-222 185,4 -4,4"/>
<!-- Node1 -->
<g id="node1" class="node">
<title>Node1</title>
<polygon fill="#bfbfbf" stroke="#000000" points="21.5,-.5 21.5,-57.5 125.5,-57.5 125.5,-.5 21.5,-.5"/>
<text text-anchor="middle" x="73.5" y="-45.5" font-family="Helvetica,sans-Serif" font-size="10.00" fill="#000000">River::MeshParams</text>
<polyline fill="none" stroke="#000000" points="21.5,-38.5 125.5,-38.5 "/>
<text text-anchor="middle" x="73.5" y="-26.5" font-family="Helvetica,sans-Serif" font-size="10.00" fill="#000000"> </text>
<polyline fill="none" stroke="#000000" points="21.5,-19.5 125.5,-19.5 "/>
<text text-anchor="start" x="29.5" y="-7.5" font-family="Helvetica,sans-Serif" font-size="10.00" fill="#000000">+ operator()()</text>
</g>
<!-- Node2 -->
<g id="node2" class="node">
<title>Node2</title>
<polygon fill="#ffffff" stroke="#bfbfbf" points="0,-160.5 0,-217.5 45,-217.5 45,-160.5 0,-160.5"/>
<text text-anchor="middle" x="22.5" y="-205.5" font-family="Helvetica,sans-Serif" font-size="10.00" fill="#000000">double</text>
<polyline fill="none" stroke="#bfbfbf" points="0,-198.5 45,-198.5 "/>
<text text-anchor="middle" x="22.5" y="-186.5" font-family="Helvetica,sans-Serif" font-size="10.00" fill="#000000"> </text>
<polyline fill="none" stroke="#bfbfbf" points="0,-179.5 45,-179.5 "/>
<text text-anchor="middle" x="22.5" y="-167.5" font-family="Helvetica,sans-Serif" font-size="10.00" fill="#000000"> </text>
</g>
<!-- Node2&#45;&gt;Node1 -->
<g id="edge1" class="edge">
<title>Node2&#45;&gt;Node1</title>
<path fill="none" stroke="#404040" d="M16.735,-160.3143C13.3629,-136.6656 11.7786,-102.7791 23.5,-76 24.8204,-72.9833 26.4386,-70.0702 28.2748,-67.2734"/>
<polygon fill="none" stroke="#404040" points="28.37,-67.151 28.8953,-59.959 35.736,-57.6778 35.2107,-64.8697 28.37,-67.151"/>
<text text-anchor="middle" x="63" y="-134" font-family="Helvetica,sans-Serif" font-size="10.00" fill="#000000"> +min_area</text>
<text text-anchor="middle" x="63" y="-123" font-family="Helvetica,sans-Serif" font-size="10.00" fill="#000000">+refinment_radius</text>
<text text-anchor="middle" x="63" y="-112" font-family="Helvetica,sans-Serif" font-size="10.00" fill="#000000">+max_area</text>
<text text-anchor="middle" x="63" y="-101" font-family="Helvetica,sans-Serif" font-size="10.00" fill="#000000">+exponant</text>
<text text-anchor="middle" x="63" y="-90" font-family="Helvetica,sans-Serif" font-size="10.00" fill="#000000">+eps</text>
<text text-anchor="middle" x="63" y="-79" font-family="Helvetica,sans-Serif" font-size="10.00" fill="#000000">+min_angle</text>
</g>
<!-- Node3 -->
<g id="node3" class="node">
<title>Node3</title>
<polygon fill="#ffffff" stroke="#bfbfbf" points="68,-160.5 68,-217.5 181,-217.5 181,-160.5 68,-160.5"/>
<text text-anchor="middle" x="124.5" y="-205.5" font-family="Helvetica,sans-Serif" font-size="10.00" fill="#000000">vector&lt; River::Point &gt;</text>
<polyline fill="none" stroke="#bfbfbf" points="68,-198.5 181,-198.5 "/>
<text text-anchor="middle" x="124.5" y="-186.5" font-family="Helvetica,sans-Serif" font-size="10.00" fill="#000000"> </text>
<polyline fill="none" stroke="#bfbfbf" points="68,-179.5 181,-179.5 "/>
<text text-anchor="middle" x="124.5" y="-167.5" font-family="Helvetica,sans-Serif" font-size="10.00" fill="#000000"> </text>
</g>
<!-- Node3&#45;&gt;Node1 -->
<g id="edge2" class="edge">
<title>Node3&#45;&gt;Node1</title>
<path fill="none" stroke="#404040" d="M121.8061,-160.3447C118.9378,-137.0137 113.2672,-103.5506 102.5,-76 101.5217,-73.4967 100.4099,-70.9782 99.2057,-68.4777"/>
<polygon fill="none" stroke="#404040" points="99.1192,-68.3158 92.7625,-64.911 93.4605,-57.7337 99.8172,-61.1386 99.1192,-68.3158"/>
<text text-anchor="middle" x="144.5" y="-106.5" font-family="Helvetica,sans-Serif" font-size="10.00" fill="#000000"> +tip_points</text>
</g>
</g>
</svg>
