<?xml version="1.0" encoding="UTF-8" standalone="no"?>
<!DOCTYPE svg PUBLIC "-//W3C//DTD SVG 1.1//EN"
 "http://www.w3.org/Graphics/SVG/1.1/DTD/svg11.dtd">
<!-- Generated by graphviz version 2.40.1 (20161225.0304)
 -->
<!-- Title: River::BranchNew Pages: 1 -->
<svg width="184pt" height="281pt"
 viewBox="0.00 0.00 184.00 281.00" xmlns="http://www.w3.org/2000/svg" xmlns:xlink="http://www.w3.org/1999/xlink">
<g id="graph0" class="graph" transform="scale(1 1) rotate(0) translate(4 277)">
<title>River::BranchNew</title>
<polygon fill="#ffffff" stroke="transparent" points="-4,4 -4,-277 180,-277 180,4 -4,4"/>
<!-- Node1 -->
<g id="node1" class="node">
<title>Node1</title>
<polygon fill="#bfbfbf" stroke="#000000" points="15.5,-.5 15.5,-167.5 125.5,-167.5 125.5,-.5 15.5,-.5"/>
<text text-anchor="middle" x="70.5" y="-155.5" font-family="Helvetica,sans-Serif" font-size="10.00" fill="#000000">River::BranchNew</text>
<polyline fill="none" stroke="#000000" points="15.5,-148.5 125.5,-148.5 "/>
<text text-anchor="middle" x="70.5" y="-136.5" font-family="Helvetica,sans-Serif" font-size="10.00" fill="#000000"> </text>
<polyline fill="none" stroke="#000000" points="15.5,-129.5 125.5,-129.5 "/>
<text text-anchor="start" x="23.5" y="-117.5" font-family="Helvetica,sans-Serif" font-size="10.00" fill="#000000">+ BranchNew()</text>
<text text-anchor="start" x="23.5" y="-106.5" font-family="Helvetica,sans-Serif" font-size="10.00" fill="#000000">+ AddAbsolutePoint()</text>
<text text-anchor="start" x="23.5" y="-95.5" font-family="Helvetica,sans-Serif" font-size="10.00" fill="#000000">+ AddAbsolutePoint()</text>
<text text-anchor="start" x="23.5" y="-84.5" font-family="Helvetica,sans-Serif" font-size="10.00" fill="#000000">+ AddPoint()</text>
<text text-anchor="start" x="23.5" y="-73.5" font-family="Helvetica,sans-Serif" font-size="10.00" fill="#000000">+ AddPoint()</text>
<text text-anchor="start" x="23.5" y="-62.5" font-family="Helvetica,sans-Serif" font-size="10.00" fill="#000000">+ Shrink()</text>
<text text-anchor="start" x="23.5" y="-51.5" font-family="Helvetica,sans-Serif" font-size="10.00" fill="#000000">+ RemoveTipPoint()</text>
<text text-anchor="start" x="23.5" y="-40.5" font-family="Helvetica,sans-Serif" font-size="10.00" fill="#000000">+ TipPoint()</text>
<text text-anchor="start" x="23.5" y="-29.5" font-family="Helvetica,sans-Serif" font-size="10.00" fill="#000000">+ TipVector()</text>
<text text-anchor="start" x="23.5" y="-18.5" font-family="Helvetica,sans-Serif" font-size="10.00" fill="#000000">+ Vector()</text>
<text text-anchor="start" x="23.5" y="-7.5" font-family="Helvetica,sans-Serif" font-size="10.00" fill="#000000">and 9 more...</text>
</g>
<!-- Node2 -->
<g id="node2" class="node">
<title>Node2</title>
<polygon fill="#ffffff" stroke="#bfbfbf" points="0,-215.5 0,-272.5 45,-272.5 45,-215.5 0,-215.5"/>
<text text-anchor="middle" x="22.5" y="-260.5" font-family="Helvetica,sans-Serif" font-size="10.00" fill="#000000">double</text>
<polyline fill="none" stroke="#bfbfbf" points="0,-253.5 45,-253.5 "/>
<text text-anchor="middle" x="22.5" y="-241.5" font-family="Helvetica,sans-Serif" font-size="10.00" fill="#000000"> </text>
<polyline fill="none" stroke="#bfbfbf" points="0,-234.5 45,-234.5 "/>
<text text-anchor="middle" x="22.5" y="-222.5" font-family="Helvetica,sans-Serif" font-size="10.00" fill="#000000"> </text>
</g>
<!-- Node2&#45;&gt;Node1 -->
<g id="edge1" class="edge">
<title>Node2&#45;&gt;Node1</title>
<path fill="none" stroke="#404040" d="M26.9696,-215.4709C28.6999,-206.0169 30.8974,-195.4885 33.5,-186 34.1166,-183.7519 34.7601,-181.4828 35.4264,-179.2"/>
<polygon fill="none" stroke="#404040" points="35.4311,-179.1842 33.3539,-172.2787 38.9292,-167.7053 41.0064,-174.6108 35.4311,-179.1842"/>
<text text-anchor="middle" x="65.5" y="-189" font-family="Helvetica,sans-Serif" font-size="10.00" fill="#000000"> &#45;source_angle</text>
</g>
<!-- Node3 -->
<g id="node3" class="node">
<title>Node3</title>
<polygon fill="#ffffff" stroke="#bfbfbf" points="63,-215.5 63,-272.5 176,-272.5 176,-215.5 63,-215.5"/>
<text text-anchor="middle" x="119.5" y="-260.5" font-family="Helvetica,sans-Serif" font-size="10.00" fill="#000000">vector&lt; River::Point &gt;</text>
<polyline fill="none" stroke="#bfbfbf" points="63,-253.5 176,-253.5 "/>
<text text-anchor="middle" x="119.5" y="-241.5" font-family="Helvetica,sans-Serif" font-size="10.00" fill="#000000"> </text>
<polyline fill="none" stroke="#bfbfbf" points="63,-234.5 176,-234.5 "/>
<text text-anchor="middle" x="119.5" y="-222.5" font-family="Helvetica,sans-Serif" font-size="10.00" fill="#000000"> </text>
</g>
<!-- Node3&#45;&gt;Node1 -->
<g id="edge2" class="edge">
<title>Node3&#45;&gt;Node1</title>
<path fill="none" stroke="#404040" d="M110.7398,-215.3952C107.5249,-204.8975 103.6829,-192.3523 99.6672,-179.2398"/>
<polygon fill="none" stroke="#404040" points="99.6189,-179.0819 94.0373,-174.5162 96.1049,-167.6079 101.6866,-172.1736 99.6189,-179.0819"/>
<text text-anchor="middle" x="121" y="-189" font-family="Helvetica,sans-Serif" font-size="10.00" fill="#000000"> &#45;points</text>
</g>
</g>
</svg>
