<?xml version="1.0" encoding="UTF-8" standalone="no"?>
<!DOCTYPE svg PUBLIC "-//W3C//DTD SVG 1.1//EN"
 "http://www.w3.org/Graphics/SVG/1.1/DTD/svg11.dtd">
<!-- Generated by graphviz version 2.40.1 (20161225.0304)
 -->
<!-- Title: River::Solver::RightHandSide Pages: 1 -->
<svg width="170pt" height="182pt"
 viewBox="0.00 0.00 170.00 182.00" xmlns="http://www.w3.org/2000/svg" xmlns:xlink="http://www.w3.org/1999/xlink">
<g id="graph0" class="graph" transform="scale(1 1) rotate(0) translate(4 178)">
<title>River::Solver::RightHandSide</title>
<polygon fill="#ffffff" stroke="transparent" points="-4,4 -4,-178 166,-178 166,4 -4,4"/>
<!-- Node2 -->
<g id="node1" class="node">
<title>Node2</title>
<polygon fill="#bfbfbf" stroke="#000000" points="13,-.5 13,-68.5 159,-68.5 159,-.5 13,-.5"/>
<text text-anchor="middle" x="86" y="-56.5" font-family="Helvetica,sans-Serif" font-size="10.00" fill="#000000">River::Solver::RightHandSide</text>
<polyline fill="none" stroke="#000000" points="13,-49.5 159,-49.5 "/>
<text text-anchor="middle" x="86" y="-37.5" font-family="Helvetica,sans-Serif" font-size="10.00" fill="#000000"> </text>
<polyline fill="none" stroke="#000000" points="13,-30.5 159,-30.5 "/>
<text text-anchor="start" x="21" y="-18.5" font-family="Helvetica,sans-Serif" font-size="10.00" fill="#000000">+ RightHandSide()</text>
<text text-anchor="start" x="21" y="-7.5" font-family="Helvetica,sans-Serif" font-size="10.00" fill="#000000">+ value()</text>
</g>
<!-- Node3 -->
<g id="node2" class="node">
<title>Node3</title>
<g id="a_node2"><a xlink:href="classFunction.html" target="_top" xlink:title="{Function\&lt; dim \&gt;\n||}">
<polygon fill="#ffffff" stroke="#000000" points="0,-116.5 0,-173.5 88,-173.5 88,-116.5 0,-116.5"/>
<text text-anchor="middle" x="44" y="-161.5" font-family="Helvetica,sans-Serif" font-size="10.00" fill="#000000">Function&lt; dim &gt;</text>
<polyline fill="none" stroke="#000000" points="0,-154.5 88,-154.5 "/>
<text text-anchor="middle" x="44" y="-142.5" font-family="Helvetica,sans-Serif" font-size="10.00" fill="#000000"> </text>
<polyline fill="none" stroke="#000000" points="0,-135.5 88,-135.5 "/>
<text text-anchor="middle" x="44" y="-123.5" font-family="Helvetica,sans-Serif" font-size="10.00" fill="#000000"> </text>
</a>
</g>
</g>
<!-- Node3&#45;&gt;Node2 -->
<g id="edge1" class="edge">
<title>Node3&#45;&gt;Node2</title>
<path fill="none" stroke="#191970" d="M58.5754,-106.6529C63.2795,-94.2766 68.4595,-80.6482 73.0389,-68.6001"/>
<polygon fill="none" stroke="#191970" points="55.2067,-105.6648 54.9254,-116.2559 61.75,-108.1519 55.2067,-105.6648"/>
</g>
<!-- Node4 -->
<g id="node3" class="node">
<title>Node4</title>
<polygon fill="#ffffff" stroke="#bfbfbf" points="106.5,-116.5 106.5,-173.5 151.5,-173.5 151.5,-116.5 106.5,-116.5"/>
<text text-anchor="middle" x="129" y="-161.5" font-family="Helvetica,sans-Serif" font-size="10.00" fill="#000000">double</text>
<polyline fill="none" stroke="#bfbfbf" points="106.5,-154.5 151.5,-154.5 "/>
<text text-anchor="middle" x="129" y="-142.5" font-family="Helvetica,sans-Serif" font-size="10.00" fill="#000000"> </text>
<polyline fill="none" stroke="#bfbfbf" points="106.5,-135.5 151.5,-135.5 "/>
<text text-anchor="middle" x="129" y="-123.5" font-family="Helvetica,sans-Serif" font-size="10.00" fill="#000000"> </text>
</g>
<!-- Node4&#45;&gt;Node2 -->
<g id="edge2" class="edge">
<title>Node4&#45;&gt;Node2</title>
<path fill="none" stroke="#404040" d="M117.8145,-116.2559C113.515,-105.2071 108.4942,-92.305 103.7287,-80.0586"/>
<polygon fill="none" stroke="#404040" points="103.6216,-79.7832 97.7179,-75.6422 99.2697,-68.6001 105.1733,-72.741 103.6216,-79.7832"/>
<text text-anchor="middle" x="136" y="-90" font-family="Helvetica,sans-Serif" font-size="10.00" fill="#000000"> +fieldValue</text>
</g>
</g>
</svg>
