<?xml version="1.0" encoding="UTF-8" standalone="no"?>
<!DOCTYPE svg PUBLIC "-//W3C//DTD SVG 1.1//EN"
 "http://www.w3.org/Graphics/SVG/1.1/DTD/svg11.dtd">
<!-- Generated by graphviz version 2.40.1 (20161225.0304)
 -->
<!-- Title: nlohmann::detail::serializer&lt; BasicJsonType &gt; Pages: 1 -->
<svg width="781pt" height="347pt"
 viewBox="0.00 0.00 781.00 347.00" xmlns="http://www.w3.org/2000/svg" xmlns:xlink="http://www.w3.org/1999/xlink">
<g id="graph0" class="graph" transform="scale(1 1) rotate(0) translate(4 343)">
<title>nlohmann::detail::serializer&lt; BasicJsonType &gt;</title>
<polygon fill="#ffffff" stroke="transparent" points="-4,4 -4,-343 777,-343 777,4 -4,4"/>
<!-- Node1 -->
<g id="node1" class="node">
<title>Node1</title>
<polygon fill="#bfbfbf" stroke="#000000" points="295.5,-.5 295.5,-211.5 428.5,-211.5 428.5,-.5 295.5,-.5"/>
<text text-anchor="start" x="303.5" y="-199.5" font-family="Helvetica,sans-Serif" font-size="10.00" fill="#000000">nlohmann::detail::serializer</text>
<text text-anchor="middle" x="362" y="-188.5" font-family="Helvetica,sans-Serif" font-size="10.00" fill="#000000">&lt; BasicJsonType &gt;</text>
<polyline fill="none" stroke="#000000" points="295.5,-181.5 428.5,-181.5 "/>
<text text-anchor="middle" x="362" y="-169.5" font-family="Helvetica,sans-Serif" font-size="10.00" fill="#000000"> </text>
<polyline fill="none" stroke="#000000" points="295.5,-162.5 428.5,-162.5 "/>
<text text-anchor="start" x="303.5" y="-150.5" font-family="Helvetica,sans-Serif" font-size="10.00" fill="#000000">+ serializer()</text>
<text text-anchor="start" x="303.5" y="-139.5" font-family="Helvetica,sans-Serif" font-size="10.00" fill="#000000">+ serializer()</text>
<text text-anchor="start" x="303.5" y="-128.5" font-family="Helvetica,sans-Serif" font-size="10.00" fill="#000000">+ operator=()</text>
<text text-anchor="start" x="303.5" y="-117.5" font-family="Helvetica,sans-Serif" font-size="10.00" fill="#000000">+ serializer()</text>
<text text-anchor="start" x="303.5" y="-106.5" font-family="Helvetica,sans-Serif" font-size="10.00" fill="#000000">+ operator=()</text>
<text text-anchor="start" x="303.5" y="-95.5" font-family="Helvetica,sans-Serif" font-size="10.00" fill="#000000">+ ~serializer()</text>
<text text-anchor="start" x="303.5" y="-84.5" font-family="Helvetica,sans-Serif" font-size="10.00" fill="#000000">+ dump()</text>
<text text-anchor="start" x="303.5" y="-73.5" font-family="Helvetica,sans-Serif" font-size="10.00" fill="#000000">&#45; dump_escaped()</text>
<text text-anchor="start" x="303.5" y="-62.5" font-family="Helvetica,sans-Serif" font-size="10.00" fill="#000000">&#45; count_digits()</text>
<text text-anchor="start" x="303.5" y="-51.5" font-family="Helvetica,sans-Serif" font-size="10.00" fill="#000000">&#45; dump_integer()</text>
<text text-anchor="start" x="303.5" y="-40.5" font-family="Helvetica,sans-Serif" font-size="10.00" fill="#000000">&#45; dump_float()</text>
<text text-anchor="start" x="303.5" y="-29.5" font-family="Helvetica,sans-Serif" font-size="10.00" fill="#000000">&#45; dump_float()</text>
<text text-anchor="start" x="303.5" y="-18.5" font-family="Helvetica,sans-Serif" font-size="10.00" fill="#000000">&#45; dump_float()</text>
<text text-anchor="start" x="303.5" y="-7.5" font-family="Helvetica,sans-Serif" font-size="10.00" fill="#000000">&#45; decode()</text>
</g>
<!-- Node2 -->
<g id="node2" class="node">
<title>Node2</title>
<polygon fill="#ffffff" stroke="#bfbfbf" points="0,-281.5 0,-338.5 46,-338.5 46,-281.5 0,-281.5"/>
<text text-anchor="middle" x="23" y="-326.5" font-family="Helvetica,sans-Serif" font-size="10.00" fill="#000000">uint8_t</text>
<polyline fill="none" stroke="#bfbfbf" points="0,-319.5 46,-319.5 "/>
<text text-anchor="middle" x="23" y="-307.5" font-family="Helvetica,sans-Serif" font-size="10.00" fill="#000000"> </text>
<polyline fill="none" stroke="#bfbfbf" points="0,-300.5 46,-300.5 "/>
<text text-anchor="middle" x="23" y="-288.5" font-family="Helvetica,sans-Serif" font-size="10.00" fill="#000000"> </text>
</g>
<!-- Node2&#45;&gt;Node1 -->
<g id="edge1" class="edge">
<title>Node2&#45;&gt;Node1</title>
<path fill="none" stroke="#404040" d="M38.7131,-281.1227C48.9668,-264.4259 63.6524,-244.015 81,-230 141.2735,-181.3056 223.6595,-147.9389 283.6347,-128.1884"/>
<polygon fill="none" stroke="#404040" points="283.8973,-128.1037 288.3794,-122.4547 295.3177,-124.4193 290.8356,-130.0683 283.8973,-128.1037"/>
<text text-anchor="middle" x="120" y="-249.5" font-family="Helvetica,sans-Serif" font-size="10.00" fill="#000000"> &#45;UTF8_ACCEPT</text>
<text text-anchor="middle" x="120" y="-238.5" font-family="Helvetica,sans-Serif" font-size="10.00" fill="#000000">&#45;UTF8_REJECT</text>
</g>
<!-- Node3 -->
<g id="node3" class="node">
<title>Node3</title>
<polygon fill="#ffffff" stroke="#bfbfbf" points="82.5,-281.5 82.5,-338.5 129.5,-338.5 129.5,-281.5 82.5,-281.5"/>
<text text-anchor="middle" x="106" y="-326.5" font-family="Helvetica,sans-Serif" font-size="10.00" fill="#000000">lconv *</text>
<polyline fill="none" stroke="#bfbfbf" points="82.5,-319.5 129.5,-319.5 "/>
<text text-anchor="middle" x="106" y="-307.5" font-family="Helvetica,sans-Serif" font-size="10.00" fill="#000000"> </text>
<polyline fill="none" stroke="#bfbfbf" points="82.5,-300.5 129.5,-300.5 "/>
<text text-anchor="middle" x="106" y="-288.5" font-family="Helvetica,sans-Serif" font-size="10.00" fill="#000000"> </text>
</g>
<!-- Node3&#45;&gt;Node1 -->
<g id="edge2" class="edge">
<title>Node3&#45;&gt;Node1</title>
<path fill="none" stroke="#404040" d="M129.6566,-288.9313C132.7762,-286.2355 135.9492,-283.5342 139,-281 187.04,-241.0939 242.2499,-197.7488 285.7164,-164.1804"/>
<polygon fill="none" stroke="#404040" points="285.8658,-164.0652 288.1748,-157.2337 295.3688,-156.7375 293.0599,-163.569 285.8658,-164.0652"/>
<text text-anchor="middle" x="209.5" y="-244" font-family="Helvetica,sans-Serif" font-size="10.00" fill="#000000"> &#45;loc</text>
</g>
<!-- Node4 -->
<g id="node4" class="node">
<title>Node4</title>
<polygon fill="#ffffff" stroke="#bfbfbf" points="148,-281.5 148,-338.5 274,-338.5 274,-281.5 148,-281.5"/>
<text text-anchor="middle" x="211" y="-326.5" font-family="Helvetica,sans-Serif" font-size="10.00" fill="#000000">output_adapter_t&lt; char &gt;</text>
<polyline fill="none" stroke="#bfbfbf" points="148,-319.5 274,-319.5 "/>
<text text-anchor="middle" x="211" y="-307.5" font-family="Helvetica,sans-Serif" font-size="10.00" fill="#000000"> </text>
<polyline fill="none" stroke="#bfbfbf" points="148,-300.5 274,-300.5 "/>
<text text-anchor="middle" x="211" y="-288.5" font-family="Helvetica,sans-Serif" font-size="10.00" fill="#000000"> </text>
</g>
<!-- Node4&#45;&gt;Node1 -->
<g id="edge3" class="edge">
<title>Node4&#45;&gt;Node1</title>
<path fill="none" stroke="#404040" d="M232.3143,-281.2045C247.0768,-261.2605 267.6807,-233.4247 288.1257,-205.8037"/>
<polygon fill="none" stroke="#404040" points="288.2014,-205.7013 288.5561,-198.4989 295.3408,-196.0561 294.9862,-203.2585 288.2014,-205.7013"/>
<text text-anchor="middle" x="274" y="-244" font-family="Helvetica,sans-Serif" font-size="10.00" fill="#000000"> &#45;o</text>
</g>
<!-- Node5 -->
<g id="node5" class="node">
<title>Node5</title>
<polygon fill="#ffffff" stroke="#bfbfbf" points="292.5,-281.5 292.5,-338.5 341.5,-338.5 341.5,-281.5 292.5,-281.5"/>
<text text-anchor="middle" x="317" y="-326.5" font-family="Helvetica,sans-Serif" font-size="10.00" fill="#000000">string_t</text>
<polyline fill="none" stroke="#bfbfbf" points="292.5,-319.5 341.5,-319.5 "/>
<text text-anchor="middle" x="317" y="-307.5" font-family="Helvetica,sans-Serif" font-size="10.00" fill="#000000"> </text>
<polyline fill="none" stroke="#bfbfbf" points="292.5,-300.5 341.5,-300.5 "/>
<text text-anchor="middle" x="317" y="-288.5" font-family="Helvetica,sans-Serif" font-size="10.00" fill="#000000"> </text>
</g>
<!-- Node5&#45;&gt;Node1 -->
<g id="edge4" class="edge">
<title>Node5&#45;&gt;Node1</title>
<path fill="none" stroke="#404040" d="M318.0509,-281.2873C318.9783,-265.958 320.7222,-246.8324 324,-230 324.3994,-227.9488 324.8199,-225.8833 325.2592,-223.8073"/>
<polygon fill="none" stroke="#404040" points="325.3212,-223.5327 322.7433,-216.7981 327.9684,-211.8283 330.5463,-218.5629 325.3212,-223.5327"/>
<text text-anchor="middle" x="355" y="-244" font-family="Helvetica,sans-Serif" font-size="10.00" fill="#000000"> &#45;indent_string</text>
</g>
<!-- Node6 -->
<g id="node6" class="node">
<title>Node6</title>
<polygon fill="#ffffff" stroke="#bfbfbf" points="359.5,-281.5 359.5,-338.5 456.5,-338.5 456.5,-281.5 359.5,-281.5"/>
<text text-anchor="middle" x="408" y="-326.5" font-family="Helvetica,sans-Serif" font-size="10.00" fill="#000000">array&lt; char, 512 &gt;</text>
<polyline fill="none" stroke="#bfbfbf" points="359.5,-319.5 456.5,-319.5 "/>
<text text-anchor="middle" x="408" y="-307.5" font-family="Helvetica,sans-Serif" font-size="10.00" fill="#000000"> </text>
<polyline fill="none" stroke="#bfbfbf" points="359.5,-300.5 456.5,-300.5 "/>
<text text-anchor="middle" x="408" y="-288.5" font-family="Helvetica,sans-Serif" font-size="10.00" fill="#000000"> </text>
</g>
<!-- Node6&#45;&gt;Node1 -->
<g id="edge5" class="edge">
<title>Node6&#45;&gt;Node1</title>
<path fill="none" stroke="#404040" d="M401.5069,-281.2045C397.9755,-265.5434 393.3468,-245.0161 388.5059,-223.5478"/>
<polygon fill="none" stroke="#404040" points="388.44,-223.2552 383.2181,-218.2821 385.8003,-211.5491 391.0222,-216.5223 388.44,-223.2552"/>
<text text-anchor="middle" x="426.5" y="-244" font-family="Helvetica,sans-Serif" font-size="10.00" fill="#000000"> &#45;string_buffer</text>
</g>
<!-- Node7 -->
<g id="node7" class="node">
<title>Node7</title>
<polygon fill="#ffffff" stroke="#bfbfbf" points="475,-281.5 475,-338.5 537,-338.5 537,-281.5 475,-281.5"/>
<text text-anchor="middle" x="506" y="-326.5" font-family="Helvetica,sans-Serif" font-size="10.00" fill="#000000">const char</text>
<polyline fill="none" stroke="#bfbfbf" points="475,-319.5 537,-319.5 "/>
<text text-anchor="middle" x="506" y="-307.5" font-family="Helvetica,sans-Serif" font-size="10.00" fill="#000000"> </text>
<polyline fill="none" stroke="#bfbfbf" points="475,-300.5 537,-300.5 "/>
<text text-anchor="middle" x="506" y="-288.5" font-family="Helvetica,sans-Serif" font-size="10.00" fill="#000000"> </text>
</g>
<!-- Node7&#45;&gt;Node1 -->
<g id="edge6" class="edge">
<title>Node7&#45;&gt;Node1</title>
<path fill="none" stroke="#404040" d="M491.2545,-281.1947C482.947,-265.667 472.044,-246.3854 461,-230 453.2416,-218.4893 444.7017,-206.7056 435.9886,-195.2025"/>
<polygon fill="none" stroke="#404040" points="435.9423,-195.1421 429.1175,-192.8134 428.6422,-185.618 435.4669,-187.9467 435.9423,-195.1421"/>
<text text-anchor="middle" x="515" y="-255" font-family="Helvetica,sans-Serif" font-size="10.00" fill="#000000"> &#45;indent_char</text>
<text text-anchor="middle" x="515" y="-244" font-family="Helvetica,sans-Serif" font-size="10.00" fill="#000000">&#45;decimal_point</text>
<text text-anchor="middle" x="515" y="-233" font-family="Helvetica,sans-Serif" font-size="10.00" fill="#000000">&#45;thousands_sep</text>
</g>
<!-- Node8 -->
<g id="node8" class="node">
<title>Node8</title>
<polygon fill="#ffffff" stroke="#bfbfbf" points="555,-281.5 555,-338.5 663,-338.5 663,-281.5 555,-281.5"/>
<text text-anchor="middle" x="609" y="-326.5" font-family="Helvetica,sans-Serif" font-size="10.00" fill="#000000">const error_handler_t</text>
<polyline fill="none" stroke="#bfbfbf" points="555,-319.5 663,-319.5 "/>
<text text-anchor="middle" x="609" y="-307.5" font-family="Helvetica,sans-Serif" font-size="10.00" fill="#000000"> </text>
<polyline fill="none" stroke="#bfbfbf" points="555,-300.5 663,-300.5 "/>
<text text-anchor="middle" x="609" y="-288.5" font-family="Helvetica,sans-Serif" font-size="10.00" fill="#000000"> </text>
</g>
<!-- Node8&#45;&gt;Node1 -->
<g id="edge7" class="edge">
<title>Node8&#45;&gt;Node1</title>
<path fill="none" stroke="#404040" d="M593.1051,-281.2751C583.2235,-265.0334 569.4735,-245.0334 554,-230 520.3258,-197.2834 476.7645,-168.3206 439.649,-146.6305"/>
<polygon fill="none" stroke="#404040" points="439.2628,-146.4084 432.0673,-146.8828 428.8618,-140.4233 436.0573,-139.9488 439.2628,-146.4084"/>
<text text-anchor="middle" x="612.5" y="-244" font-family="Helvetica,sans-Serif" font-size="10.00" fill="#000000"> &#45;error_handler</text>
</g>
<!-- Node9 -->
<g id="node9" class="node">
<title>Node9</title>
<polygon fill="#ffffff" stroke="#bfbfbf" points="681,-281.5 681,-338.5 773,-338.5 773,-281.5 681,-281.5"/>
<text text-anchor="middle" x="727" y="-326.5" font-family="Helvetica,sans-Serif" font-size="10.00" fill="#000000">array&lt; char, 64 &gt;</text>
<polyline fill="none" stroke="#bfbfbf" points="681,-319.5 773,-319.5 "/>
<text text-anchor="middle" x="727" y="-307.5" font-family="Helvetica,sans-Serif" font-size="10.00" fill="#000000"> </text>
<polyline fill="none" stroke="#bfbfbf" points="681,-300.5 773,-300.5 "/>
<text text-anchor="middle" x="727" y="-288.5" font-family="Helvetica,sans-Serif" font-size="10.00" fill="#000000"> </text>
</g>
<!-- Node9&#45;&gt;Node1 -->
<g id="edge8" class="edge">
<title>Node9&#45;&gt;Node1</title>
<path fill="none" stroke="#404040" d="M703.6419,-281.3562C688.9823,-264.7422 668.9375,-244.3363 648,-230 583.3214,-185.7134 500.2768,-151.8456 440.3543,-130.7841"/>
<polygon fill="none" stroke="#404040" points="440.0292,-130.6716 433.0503,-132.487 428.6904,-126.7433 435.6692,-124.9278 440.0292,-130.6716"/>
<text text-anchor="middle" x="719.5" y="-244" font-family="Helvetica,sans-Serif" font-size="10.00" fill="#000000"> &#45;number_buffer</text>
</g>
</g>
</svg>
