<?xml version="1.0" encoding="UTF-8" standalone="no"?>
<!DOCTYPE svg PUBLIC "-//W3C//DTD SVG 1.1//EN"
 "http://www.w3.org/Graphics/SVG/1.1/DTD/svg11.dtd">
<!-- Generated by graphviz version 2.40.1 (20161225.0304)
 -->
<!-- Title: tethex::Mesh::convert_triangles Pages: 1 -->
<svg width="584pt" height="323pt"
 viewBox="0.00 0.00 584.00 323.04" xmlns="http://www.w3.org/2000/svg" xmlns:xlink="http://www.w3.org/1999/xlink">
<g id="graph0" class="graph" transform="scale(1 1) rotate(0) translate(4 319.0391)">
<title>tethex::Mesh::convert_triangles</title>
<polygon fill="#ffffff" stroke="transparent" points="-4,4 -4,-319.0391 580,-319.0391 580,4 -4,4"/>
<!-- Node220 -->
<g id="node1" class="node">
<title>Node220</title>
<polygon fill="#bfbfbf" stroke="#000000" points="0,-176 0,-206 112,-206 112,-176 0,-176"/>
<text text-anchor="start" x="8" y="-194" font-family="Helvetica,sans-Serif" font-size="10.00" fill="#000000">tethex::Mesh::convert</text>
<text text-anchor="middle" x="56" y="-183" font-family="Helvetica,sans-Serif" font-size="10.00" fill="#000000">_triangles</text>
</g>
<!-- Node221 -->
<g id="node2" class="node">
<title>Node221</title>
<g id="a_node2"><a xlink:href="classtethex_1_1Mesh.html#ad6757f5eeaca6b0cae07fb85b5f40cb2" target="_top" xlink:title="Numerate the edges of simplices. ">
<polygon fill="#ffffff" stroke="#000000" points="158,-201 158,-231 259,-231 259,-201 158,-201"/>
<text text-anchor="start" x="166" y="-219" font-family="Helvetica,sans-Serif" font-size="10.00" fill="#000000">tethex::Mesh::edge</text>
<text text-anchor="middle" x="208.5" y="-208" font-family="Helvetica,sans-Serif" font-size="10.00" fill="#000000">_numeration</text>
</a>
</g>
</g>
<!-- Node220&#45;&gt;Node221 -->
<g id="edge1" class="edge">
<title>Node220&#45;&gt;Node221</title>
<path fill="none" stroke="#191970" d="M112.3521,-200.238C123.9019,-202.1315 136.1065,-204.1322 147.8014,-206.0494"/>
<polygon fill="#191970" stroke="#191970" points="147.4838,-209.544 157.9183,-207.7079 148.6163,-202.6362 147.4838,-209.544"/>
</g>
<!-- Node224 -->
<g id="node5" class="node">
<title>Node224</title>
<g id="a_node5"><a xlink:href="namespacetethex.html#a31a6ad16911dd58abefe17ab46534aa4" target="_top" xlink:title="tethex::d2s">
<polygon fill="#ffffff" stroke="#000000" points="488.5,-225.5 488.5,-244.5 553.5,-244.5 553.5,-225.5 488.5,-225.5"/>
<text text-anchor="middle" x="521" y="-232.5" font-family="Helvetica,sans-Serif" font-size="10.00" fill="#000000">tethex::d2s</text>
</a>
</g>
</g>
<!-- Node220&#45;&gt;Node224 -->
<g id="edge14" class="edge">
<title>Node220&#45;&gt;Node224</title>
<path fill="none" stroke="#191970" d="M79.1219,-206.0386C121.68,-232.6505 216.2062,-286.8493 305,-304 359.5474,-314.5359 377.3417,-321.7066 430,-304 460.3619,-293.7907 488.6454,-268.9855 505.3809,-252.0738"/>
<polygon fill="#191970" stroke="#191970" points="508.2403,-254.1481 512.6274,-244.5043 503.1838,-249.3074 508.2403,-254.1481"/>
</g>
<!-- Node225 -->
<g id="node6" class="node">
<title>Node225</title>
<g id="a_node6"><a xlink:href="classtethex_1_1Mesh.html#abc261df76b5f1090b366386fdcb495cb" target="_top" xlink:title="Find the global number of face basing on numbers of 2 edges defining that face. ">
<polygon fill="#ffffff" stroke="#000000" points="149.5,-132 149.5,-162 267.5,-162 267.5,-132 149.5,-132"/>
<text text-anchor="start" x="157.5" y="-150" font-family="Helvetica,sans-Serif" font-size="10.00" fill="#000000">tethex::Mesh::find</text>
<text text-anchor="middle" x="208.5" y="-139" font-family="Helvetica,sans-Serif" font-size="10.00" fill="#000000">_face_from_two_edges</text>
</a>
</g>
</g>
<!-- Node220&#45;&gt;Node225 -->
<g id="edge6" class="edge">
<title>Node220&#45;&gt;Node225</title>
<path fill="none" stroke="#191970" d="M108.0553,-175.9808C120.5006,-172.39 133.9053,-168.5224 146.7411,-164.819"/>
<polygon fill="#191970" stroke="#191970" points="147.7827,-168.1613 156.4205,-162.0262 145.8422,-161.4356 147.7827,-168.1613"/>
</g>
<!-- Node230 -->
<g id="node11" class="node">
<title>Node230</title>
<g id="a_node11"><a xlink:href="namespacetethex.html#a7f8708334371c722c41cab50445d7987" target="_top" xlink:title="Change the order of vertices in such a way, that it will be good for deal.II. ">
<polygon fill="#ffffff" stroke="#000000" points="148,-39 148,-69 269,-69 269,-39 148,-39"/>
<text text-anchor="start" x="156" y="-57" font-family="Helvetica,sans-Serif" font-size="10.00" fill="#000000">tethex::change_vertices</text>
<text text-anchor="middle" x="208.5" y="-46" font-family="Helvetica,sans-Serif" font-size="10.00" fill="#000000">_order</text>
</a>
</g>
</g>
<!-- Node220&#45;&gt;Node230 -->
<g id="edge12" class="edge">
<title>Node220&#45;&gt;Node230</title>
<path fill="none" stroke="#191970" d="M72.9028,-175.8152C99.8118,-151.6412 152.5276,-104.2834 183.7112,-76.2693"/>
<polygon fill="#191970" stroke="#191970" points="186.4215,-78.5395 191.5215,-69.2529 181.7434,-73.3321 186.4215,-78.5395"/>
</g>
<!-- Node222 -->
<g id="node3" class="node">
<title>Node222</title>
<g id="a_node3"><a xlink:href="classtethex_1_1IncidenceMatrix.html#a35358d0c7bd51a6c7ce900237f3e7672" target="_top" xlink:title="Get the number of non zero elements in the matrix. ">
<polygon fill="#ffffff" stroke="#000000" points="308,-264 308,-294 427,-294 427,-264 308,-264"/>
<text text-anchor="start" x="316" y="-282" font-family="Helvetica,sans-Serif" font-size="10.00" fill="#000000">tethex::IncidenceMatrix</text>
<text text-anchor="middle" x="367.5" y="-271" font-family="Helvetica,sans-Serif" font-size="10.00" fill="#000000">::get_n_nonzero</text>
</a>
</g>
</g>
<!-- Node221&#45;&gt;Node222 -->
<g id="edge2" class="edge">
<title>Node221&#45;&gt;Node222</title>
<path fill="none" stroke="#191970" d="M246.5845,-231.0901C268.6285,-239.8245 296.5667,-250.8943 320.0333,-260.1924"/>
<polygon fill="#191970" stroke="#191970" points="318.865,-263.4942 329.4511,-263.924 321.4435,-256.9864 318.865,-263.4942"/>
</g>
<!-- Node223 -->
<g id="node4" class="node">
<title>Node223</title>
<g id="a_node4"><a xlink:href="classtethex_1_1IncidenceMatrix.html#a1d659ff5b0bba8be07196b23ded3d58d" target="_top" xlink:title="Find a serial number of the non zero element in the matrix. ">
<polygon fill="#ffffff" stroke="#000000" points="308,-176 308,-206 427,-206 427,-176 308,-176"/>
<text text-anchor="start" x="316" y="-194" font-family="Helvetica,sans-Serif" font-size="10.00" fill="#000000">tethex::IncidenceMatrix</text>
<text text-anchor="middle" x="367.5" y="-183" font-family="Helvetica,sans-Serif" font-size="10.00" fill="#000000">::find</text>
</a>
</g>
</g>
<!-- Node221&#45;&gt;Node223 -->
<g id="edge3" class="edge">
<title>Node221&#45;&gt;Node223</title>
<path fill="none" stroke="#191970" d="M259.2458,-208.0211C271.4369,-206.1043 284.6707,-204.0235 297.564,-201.9962"/>
<polygon fill="#191970" stroke="#191970" points="298.4698,-205.3969 307.8048,-200.386 297.3825,-198.4818 298.4698,-205.3969"/>
</g>
<!-- Node221&#45;&gt;Node224 -->
<g id="edge5" class="edge">
<title>Node221&#45;&gt;Node224</title>
<path fill="none" stroke="#191970" d="M259.0558,-219.0738C319.8761,-222.7717 420.9181,-228.915 478.1023,-232.3918"/>
<polygon fill="#191970" stroke="#191970" points="478.0559,-235.8954 488.2499,-233.0088 478.4808,-228.9083 478.0559,-235.8954"/>
</g>
<!-- Node223&#45;&gt;Node224 -->
<g id="edge4" class="edge">
<title>Node223&#45;&gt;Node224</title>
<path fill="none" stroke="#191970" d="M419.8967,-206.0192C438.9496,-211.4807 460.2364,-217.5824 478.3449,-222.7731"/>
<polygon fill="#191970" stroke="#191970" points="477.4666,-226.1623 488.0439,-225.5533 479.3955,-219.4332 477.4666,-226.1623"/>
</g>
<!-- Node225&#45;&gt;Node223 -->
<g id="edge11" class="edge">
<title>Node225&#45;&gt;Node223</title>
<path fill="none" stroke="#191970" d="M262.7741,-162.0192C275.877,-165.6452 290,-169.5534 303.5022,-173.2899"/>
<polygon fill="#191970" stroke="#191970" points="302.6295,-176.6799 313.2008,-175.9738 304.4965,-169.9334 302.6295,-176.6799"/>
</g>
<!-- Node226 -->
<g id="node7" class="node">
<title>Node226</title>
<g id="a_node7"><a xlink:href="classtethex_1_1Mesh.html#aea31733cbb3d4e47252da53a253ec9b8" target="_top" xlink:title="Get the copy of vertex. ">
<polygon fill="#ffffff" stroke="#000000" points="305,-137.5 305,-156.5 430,-156.5 430,-137.5 305,-137.5"/>
<text text-anchor="middle" x="367.5" y="-144.5" font-family="Helvetica,sans-Serif" font-size="10.00" fill="#000000">tethex::Mesh::get_vertex</text>
</a>
</g>
</g>
<!-- Node225&#45;&gt;Node226 -->
<g id="edge7" class="edge">
<title>Node225&#45;&gt;Node226</title>
<path fill="none" stroke="#191970" d="M267.7057,-147C276.4943,-147 285.6375,-147 294.6653,-147"/>
<polygon fill="#191970" stroke="#191970" points="294.7839,-150.5001 304.7838,-147 294.7838,-143.5001 294.7839,-150.5001"/>
</g>
<!-- Node227 -->
<g id="node8" class="node">
<title>Node227</title>
<g id="a_node8"><a xlink:href="classtethex_1_1Line.html#a7ee8354de8290f9a914e480385fc16e7" target="_top" xlink:title="Find common vertex between two lines. ">
<polygon fill="#ffffff" stroke="#000000" points="312,-88 312,-118 423,-118 423,-88 312,-88"/>
<text text-anchor="start" x="320" y="-106" font-family="Helvetica,sans-Serif" font-size="10.00" fill="#000000">tethex::Line::common</text>
<text text-anchor="middle" x="367.5" y="-95" font-family="Helvetica,sans-Serif" font-size="10.00" fill="#000000">_vertex</text>
</a>
</g>
</g>
<!-- Node225&#45;&gt;Node227 -->
<g id="edge8" class="edge">
<title>Node225&#45;&gt;Node227</title>
<path fill="none" stroke="#191970" d="M262.7741,-131.9808C275.877,-128.3548 290,-124.4466 303.5022,-120.7101"/>
<polygon fill="#191970" stroke="#191970" points="304.4965,-124.0666 313.2008,-118.0262 302.6295,-117.3201 304.4965,-124.0666"/>
</g>
<!-- Node229 -->
<g id="node10" class="node">
<title>Node229</title>
<g id="a_node10"><a xlink:href="classtethex_1_1Line.html#abdc04877eb0feb0200f4e9bb8a4e3735" target="_top" xlink:title="Get another vertex (different from that we have) ">
<polygon fill="#ffffff" stroke="#000000" points="314.5,-39 314.5,-69 420.5,-69 420.5,-39 314.5,-39"/>
<text text-anchor="start" x="322.5" y="-57" font-family="Helvetica,sans-Serif" font-size="10.00" fill="#000000">tethex::Line::another</text>
<text text-anchor="middle" x="367.5" y="-46" font-family="Helvetica,sans-Serif" font-size="10.00" fill="#000000">_vertex</text>
</a>
</g>
</g>
<!-- Node225&#45;&gt;Node229 -->
<g id="edge10" class="edge">
<title>Node225&#45;&gt;Node229</title>
<path fill="none" stroke="#191970" d="M226.7912,-131.7558C245.5411,-116.6649 275.9819,-93.6157 305,-78 308.061,-76.3528 311.2598,-74.7629 314.5223,-73.2394"/>
<polygon fill="#191970" stroke="#191970" points="316.0921,-76.3723 323.8245,-69.1293 313.263,-69.9694 316.0921,-76.3723"/>
</g>
<!-- Node228 -->
<g id="node9" class="node">
<title>Node228</title>
<g id="a_node9"><a xlink:href="classtethex_1_1MeshElement.html#aa7d8e4c101b47e1087917a42c0a3074a" target="_top" xlink:title="Check &#45; whether the element contains the vertex or not. ">
<polygon fill="#ffffff" stroke="#000000" points="466,-88 466,-118 576,-118 576,-88 466,-88"/>
<text text-anchor="start" x="474" y="-106" font-family="Helvetica,sans-Serif" font-size="10.00" fill="#000000">tethex::MeshElement</text>
<text text-anchor="middle" x="521" y="-95" font-family="Helvetica,sans-Serif" font-size="10.00" fill="#000000">::contains</text>
</a>
</g>
</g>
<!-- Node227&#45;&gt;Node228 -->
<g id="edge9" class="edge">
<title>Node227&#45;&gt;Node228</title>
<path fill="none" stroke="#191970" d="M423.3512,-103C433.8749,-103 444.966,-103 455.7474,-103"/>
<polygon fill="#191970" stroke="#191970" points="455.9607,-106.5001 465.9607,-103 455.9607,-99.5001 455.9607,-106.5001"/>
</g>
<!-- Node231 -->
<g id="node12" class="node">
<title>Node231</title>
<g id="a_node12"><a xlink:href="namespacetethex.html#a4829931502bfe6e2c614c95e59cda77b" target="_top" xlink:title="Since this project was originally designed to connect Gmsh&#39;s meshes with deal.II solvers, the main requirement for new meshes was to be properly read by deal.II. ">
<polygon fill="#ffffff" stroke="#000000" points="305,-.5 305,-19.5 430,-19.5 430,-.5 305,-.5"/>
<text text-anchor="middle" x="367.5" y="-7.5" font-family="Helvetica,sans-Serif" font-size="10.00" fill="#000000">tethex::cell_measure_2D</text>
</a>
</g>
</g>
<!-- Node230&#45;&gt;Node231 -->
<g id="edge13" class="edge">
<title>Node230&#45;&gt;Node231</title>
<path fill="none" stroke="#191970" d="M262.7741,-38.9808C282.4486,-33.5362 304.4226,-27.4554 323.1421,-22.2751"/>
<polygon fill="#191970" stroke="#191970" points="324.1833,-25.6186 332.8876,-19.5783 322.3163,-18.8722 324.1833,-25.6186"/>
</g>
</g>
</svg>
