<?xml version="1.0" encoding="UTF-8" standalone="no"?>
<!DOCTYPE svg PUBLIC "-//W3C//DTD SVG 1.1//EN"
 "http://www.w3.org/Graphics/SVG/1.1/DTD/svg11.dtd">
<!-- Generated by graphviz version 2.40.1 (20161225.0304)
 -->
<!-- Title: River::BranchNew::Vector Pages: 1 -->
<svg width="509pt" height="28pt"
 viewBox="0.00 0.00 509.00 28.00" xmlns="http://www.w3.org/2000/svg" xmlns:xlink="http://www.w3.org/1999/xlink">
<g id="graph0" class="graph" transform="scale(1 1) rotate(0) translate(4 24)">
<title>River::BranchNew::Vector</title>
<polygon fill="#ffffff" stroke="transparent" points="-4,4 -4,-24 505,-24 505,4 -4,4"/>
<!-- Node29 -->
<g id="node1" class="node">
<title>Node29</title>
<polygon fill="#bfbfbf" stroke="#000000" points="0,-.5 0,-19.5 131,-19.5 131,-.5 0,-.5"/>
<text text-anchor="middle" x="65.5" y="-7.5" font-family="Helvetica,sans-Serif" font-size="10.00" fill="#000000">River::BranchNew::Vector</text>
</g>
<!-- Node30 -->
<g id="node2" class="node">
<title>Node30</title>
<g id="a_node2"><a xlink:href="namespaceRiver.html#aa5a21f7169be41bacdb7bab009a2e7be" target="_top" xlink:title="Generates trees boundary. ">
<polygon fill="#ffffff" stroke="#000000" points="167,-.5 167,-19.5 261,-19.5 261,-.5 167,-.5"/>
<text text-anchor="middle" x="214" y="-7.5" font-family="Helvetica,sans-Serif" font-size="10.00" fill="#000000">River::TreeVector</text>
</a>
</g>
</g>
<!-- Node29&#45;&gt;Node30 -->
<g id="edge1" class="edge">
<title>Node29&#45;&gt;Node30</title>
<path fill="none" stroke="#191970" d="M141.2066,-10C149.858,-10 158.4831,-10 166.6118,-10"/>
<polygon fill="#191970" stroke="#191970" points="141.0666,-6.5001 131.0665,-10 141.0665,-13.5001 141.0666,-6.5001"/>
</g>
<!-- Node31 -->
<g id="node3" class="node">
<title>Node31</title>
<g id="a_node3"><a xlink:href="namespaceRiver.html#aa226e8aa15b4b21c82a2ea177e1faee6" target="_top" xlink:title="Finnal Boudary Geneartor Class. ">
<polygon fill="#ffffff" stroke="#000000" points="297,-.5 297,-19.5 427,-19.5 427,-.5 297,-.5"/>
<text text-anchor="middle" x="362" y="-7.5" font-family="Helvetica,sans-Serif" font-size="10.00" fill="#000000">River::BoundaryGenerator</text>
</a>
</g>
</g>
<!-- Node30&#45;&gt;Node31 -->
<g id="edge2" class="edge">
<title>Node30&#45;&gt;Node31</title>
<path fill="none" stroke="#191970" d="M271.2771,-10C279.658,-10 288.3409,-10 296.8646,-10"/>
<polygon fill="#191970" stroke="#191970" points="271.2351,-6.5001 261.235,-10 271.235,-13.5001 271.2351,-6.5001"/>
</g>
<!-- Node32 -->
<g id="node4" class="node">
<title>Node32</title>
<g id="a_node4"><a xlink:href="main_8cpp.html#a0ddf1224851353fc92bfbff6f499fa97" target="_top" xlink:title="Entry point of RiverSim program. ">
<polygon fill="#ffffff" stroke="#000000" points="463,-.5 463,-19.5 501,-19.5 501,-.5 463,-.5"/>
<text text-anchor="middle" x="482" y="-7.5" font-family="Helvetica,sans-Serif" font-size="10.00" fill="#000000">main</text>
</a>
</g>
</g>
<!-- Node31&#45;&gt;Node32 -->
<g id="edge3" class="edge">
<title>Node31&#45;&gt;Node32</title>
<path fill="none" stroke="#191970" d="M437.2762,-10C446.7335,-10 455.6483,-10 462.9929,-10"/>
<polygon fill="#191970" stroke="#191970" points="437.2674,-6.5001 427.2674,-10 437.2674,-13.5001 437.2674,-6.5001"/>
</g>
</g>
</svg>
