<?xml version="1.0" encoding="UTF-8" standalone="no"?>
<!DOCTYPE svg PUBLIC "-//W3C//DTD SVG 1.1//EN"
 "http://www.w3.org/Graphics/SVG/1.1/DTD/svg11.dtd">
<!-- Generated by graphviz version 2.40.1 (20161225.0304)
 -->
<!-- Title: tethex::Line Pages: 1 -->
<svg width="247pt" height="475pt"
 viewBox="0.00 0.00 247.00 475.00" xmlns="http://www.w3.org/2000/svg" xmlns:xlink="http://www.w3.org/1999/xlink">
<g id="graph0" class="graph" transform="scale(1 1) rotate(0) translate(4 471)">
<title>tethex::Line</title>
<polygon fill="#ffffff" stroke="transparent" points="-4,4 -4,-471 243,-471 243,4 -4,4"/>
<!-- Node2 -->
<g id="node1" class="node">
<title>Node2</title>
<polygon fill="#bfbfbf" stroke="#000000" points="90.5,-.5 90.5,-101.5 191.5,-101.5 191.5,-.5 90.5,-.5"/>
<text text-anchor="middle" x="141" y="-89.5" font-family="Helvetica,sans-Serif" font-size="10.00" fill="#000000">tethex::Line</text>
<polyline fill="none" stroke="#000000" points="90.5,-82.5 191.5,-82.5 "/>
<text text-anchor="middle" x="141" y="-70.5" font-family="Helvetica,sans-Serif" font-size="10.00" fill="#000000"> </text>
<polyline fill="none" stroke="#000000" points="90.5,-63.5 191.5,-63.5 "/>
<text text-anchor="start" x="98.5" y="-51.5" font-family="Helvetica,sans-Serif" font-size="10.00" fill="#000000">+ Line()</text>
<text text-anchor="start" x="98.5" y="-40.5" font-family="Helvetica,sans-Serif" font-size="10.00" fill="#000000">+ Line()</text>
<text text-anchor="start" x="98.5" y="-29.5" font-family="Helvetica,sans-Serif" font-size="10.00" fill="#000000">+ Line()</text>
<text text-anchor="start" x="98.5" y="-18.5" font-family="Helvetica,sans-Serif" font-size="10.00" fill="#000000">+ common_vertex()</text>
<text text-anchor="start" x="98.5" y="-7.5" font-family="Helvetica,sans-Serif" font-size="10.00" fill="#000000">+ another_vertex()</text>
</g>
<!-- Node3 -->
<g id="node2" class="node">
<title>Node3</title>
<g id="a_node2"><a xlink:href="classtethex_1_1MeshElement.html" target="_top" xlink:title="{tethex::MeshElement\n||+ ~MeshElement()\l+ get_n_vertices()\l+ get_n_edges()\l+ get_gmsh_el_type()\l+ get_material_id()\l+ get_vertex()\l+ get_edge()\l+ set_vertex()\l+ set_edge()\l+ contains()\l# MeshElement()\l# MeshElement()\l# operator=()\l}">
<polygon fill="#ffffff" stroke="#000000" points="39.5,-139.5 39.5,-328.5 150.5,-328.5 150.5,-139.5 39.5,-139.5"/>
<text text-anchor="middle" x="95" y="-316.5" font-family="Helvetica,sans-Serif" font-size="10.00" fill="#000000">tethex::MeshElement</text>
<polyline fill="none" stroke="#000000" points="39.5,-309.5 150.5,-309.5 "/>
<text text-anchor="middle" x="95" y="-297.5" font-family="Helvetica,sans-Serif" font-size="10.00" fill="#000000"> </text>
<polyline fill="none" stroke="#000000" points="39.5,-290.5 150.5,-290.5 "/>
<text text-anchor="start" x="47.5" y="-278.5" font-family="Helvetica,sans-Serif" font-size="10.00" fill="#000000">+ ~MeshElement()</text>
<text text-anchor="start" x="47.5" y="-267.5" font-family="Helvetica,sans-Serif" font-size="10.00" fill="#000000">+ get_n_vertices()</text>
<text text-anchor="start" x="47.5" y="-256.5" font-family="Helvetica,sans-Serif" font-size="10.00" fill="#000000">+ get_n_edges()</text>
<text text-anchor="start" x="47.5" y="-245.5" font-family="Helvetica,sans-Serif" font-size="10.00" fill="#000000">+ get_gmsh_el_type()</text>
<text text-anchor="start" x="47.5" y="-234.5" font-family="Helvetica,sans-Serif" font-size="10.00" fill="#000000">+ get_material_id()</text>
<text text-anchor="start" x="47.5" y="-223.5" font-family="Helvetica,sans-Serif" font-size="10.00" fill="#000000">+ get_vertex()</text>
<text text-anchor="start" x="47.5" y="-212.5" font-family="Helvetica,sans-Serif" font-size="10.00" fill="#000000">+ get_edge()</text>
<text text-anchor="start" x="47.5" y="-201.5" font-family="Helvetica,sans-Serif" font-size="10.00" fill="#000000">+ set_vertex()</text>
<text text-anchor="start" x="47.5" y="-190.5" font-family="Helvetica,sans-Serif" font-size="10.00" fill="#000000">+ set_edge()</text>
<text text-anchor="start" x="47.5" y="-179.5" font-family="Helvetica,sans-Serif" font-size="10.00" fill="#000000">+ contains()</text>
<text text-anchor="start" x="47.5" y="-168.5" font-family="Helvetica,sans-Serif" font-size="10.00" fill="#000000"># MeshElement()</text>
<text text-anchor="start" x="47.5" y="-157.5" font-family="Helvetica,sans-Serif" font-size="10.00" fill="#000000"># MeshElement()</text>
<text text-anchor="start" x="47.5" y="-146.5" font-family="Helvetica,sans-Serif" font-size="10.00" fill="#000000"># operator=()</text>
</a>
</g>
</g>
<!-- Node3&#45;&gt;Node2 -->
<g id="edge1" class="edge">
<title>Node3&#45;&gt;Node2</title>
<path fill="none" stroke="#191970" d="M121.3092,-129.3353C123.6962,-119.8389 126.0347,-110.5358 128.2189,-101.8466"/>
<polygon fill="none" stroke="#191970" points="117.8519,-128.7322 118.8084,-139.2838 124.6407,-130.4388 117.8519,-128.7322"/>
</g>
<!-- Node4 -->
<g id="node3" class="node">
<title>Node4</title>
<polygon fill="#ffffff" stroke="#bfbfbf" points="0,-409.5 0,-466.5 72,-466.5 72,-409.5 0,-409.5"/>
<text text-anchor="middle" x="36" y="-454.5" font-family="Helvetica,sans-Serif" font-size="10.00" fill="#000000">vector&lt; int &gt;</text>
<polyline fill="none" stroke="#bfbfbf" points="0,-447.5 72,-447.5 "/>
<text text-anchor="middle" x="36" y="-435.5" font-family="Helvetica,sans-Serif" font-size="10.00" fill="#000000"> </text>
<polyline fill="none" stroke="#bfbfbf" points="0,-428.5 72,-428.5 "/>
<text text-anchor="middle" x="36" y="-416.5" font-family="Helvetica,sans-Serif" font-size="10.00" fill="#000000"> </text>
</g>
<!-- Node4&#45;&gt;Node3 -->
<g id="edge2" class="edge">
<title>Node4&#45;&gt;Node3</title>
<path fill="none" stroke="#404040" d="M36.5114,-409.3052C37.4021,-391.1826 39.6212,-367.4181 45,-347 45.5695,-344.838 46.1756,-342.6647 46.8142,-340.4847"/>
<polygon fill="none" stroke="#404040" points="46.8955,-340.2278 44.8932,-333.3002 50.5178,-328.7876 52.5201,-335.7151 46.8955,-340.2278"/>
<text text-anchor="middle" x="66.5" y="-372" font-family="Helvetica,sans-Serif" font-size="10.00" fill="#000000"> #vertices</text>
<text text-anchor="middle" x="66.5" y="-361" font-family="Helvetica,sans-Serif" font-size="10.00" fill="#000000">#edges</text>
</g>
<!-- Node5 -->
<g id="node4" class="node">
<title>Node5</title>
<polygon fill="#ffffff" stroke="#bfbfbf" points="131.5,-409.5 131.5,-466.5 160.5,-466.5 160.5,-409.5 131.5,-409.5"/>
<text text-anchor="middle" x="146" y="-454.5" font-family="Helvetica,sans-Serif" font-size="10.00" fill="#000000">int</text>
<polyline fill="none" stroke="#bfbfbf" points="131.5,-447.5 160.5,-447.5 "/>
<text text-anchor="middle" x="146" y="-435.5" font-family="Helvetica,sans-Serif" font-size="10.00" fill="#000000"> </text>
<polyline fill="none" stroke="#bfbfbf" points="131.5,-428.5 160.5,-428.5 "/>
<text text-anchor="middle" x="146" y="-416.5" font-family="Helvetica,sans-Serif" font-size="10.00" fill="#000000"> </text>
</g>
<!-- Node5&#45;&gt;Node2 -->
<g id="edge4" class="edge">
<title>Node5&#45;&gt;Node2</title>
<path fill="none" stroke="#404040" d="M160.5843,-417.9689C165.5482,-409.9858 170.4772,-400.456 173,-391 178.0409,-372.1053 173.657,-366.5445 173,-347 169.8871,-254.3987 171.4229,-230.817 159,-139 157.8773,-130.7023 156.4337,-122.014 154.8532,-113.4639"/>
<polygon fill="none" stroke="#404040" points="154.8227,-113.3057 149.7573,-108.1732 152.5467,-101.5235 157.6121,-106.6559 154.8227,-113.3057"/>
<text text-anchor="middle" x="205.5" y="-242.5" font-family="Helvetica,sans-Serif" font-size="10.00" fill="#000000"> +n_vertices</text>
<text text-anchor="middle" x="205.5" y="-231.5" font-family="Helvetica,sans-Serif" font-size="10.00" fill="#000000">+n_edges</text>
<text text-anchor="middle" x="205.5" y="-220.5" font-family="Helvetica,sans-Serif" font-size="10.00" fill="#000000">+gmsh_el_type</text>
</g>
<!-- Node5&#45;&gt;Node3 -->
<g id="edge3" class="edge">
<title>Node5&#45;&gt;Node3</title>
<path fill="none" stroke="#404040" d="M131.1929,-426.5943C121.2719,-418.0025 108.9716,-405.2853 103,-391 96.5202,-375.4991 92.6942,-358.3748 90.6203,-341.3042"/>
<polygon fill="none" stroke="#404040" points="90.576,-340.8506 86.0105,-335.2688 89.4069,-328.9077 93.9724,-334.4894 90.576,-340.8506"/>
<text text-anchor="middle" x="138" y="-383" font-family="Helvetica,sans-Serif" font-size="10.00" fill="#000000"> #gmsh_el_type</text>
<text text-anchor="middle" x="138" y="-372" font-family="Helvetica,sans-Serif" font-size="10.00" fill="#000000">#n_vertices</text>
<text text-anchor="middle" x="138" y="-361" font-family="Helvetica,sans-Serif" font-size="10.00" fill="#000000">#n_edges</text>
<text text-anchor="middle" x="138" y="-350" font-family="Helvetica,sans-Serif" font-size="10.00" fill="#000000">#material_id</text>
</g>
</g>
</svg>
