<?xml version="1.0" encoding="UTF-8" standalone="no"?>
<!DOCTYPE svg PUBLIC "-//W3C//DTD SVG 1.1//EN"
 "http://www.w3.org/Graphics/SVG/1.1/DTD/svg11.dtd">
<!-- Generated by graphviz version 2.43.0 (0)
 -->
<!-- Title: River::Region Pages: 1 -->
<svg width="202pt" height="259pt"
 viewBox="0.00 0.00 202.00 259.00" xmlns="http://www.w3.org/2000/svg" xmlns:xlink="http://www.w3.org/1999/xlink">
<g id="graph0" class="graph" transform="scale(1 1) rotate(0) translate(4 255)">
<title>River::Region</title>
<polygon fill="white" stroke="transparent" points="-4,4 -4,-255 198,-255 198,4 -4,4"/>
<!-- Node1 -->
<g id="node1" class="node">
<title>Node1</title>
<g id="a_node1"><a xlink:title="Structure which defines Region of region.">
<polygon fill="#bfbfbf" stroke="black" points="0,-0.5 0,-145.5 187,-145.5 187,-0.5 0,-0.5"/>
<text text-anchor="middle" x="93.5" y="-133.5" font-family="Helvetica,sans-Serif" font-size="10.00">River::Region</text>
<polyline fill="none" stroke="black" points="0,-126.5 187,-126.5 "/>
<text text-anchor="middle" x="93.5" y="-114.5" font-family="Helvetica,sans-Serif" font-size="10.00"> </text>
<polyline fill="none" stroke="black" points="0,-107.5 187,-107.5 "/>
<text text-anchor="start" x="8" y="-95.5" font-family="Helvetica,sans-Serif" font-size="10.00">+ Region()</text>
<text text-anchor="start" x="8" y="-84.5" font-family="Helvetica,sans-Serif" font-size="10.00">+ MakeRectangular()</text>
<text text-anchor="start" x="8" y="-73.5" font-family="Helvetica,sans-Serif" font-size="10.00">+ MakeRectangularWithHole()</text>
<text text-anchor="start" x="8" y="-62.5" font-family="Helvetica,sans-Serif" font-size="10.00">+ Check()</text>
<text text-anchor="start" x="8" y="-51.5" font-family="Helvetica,sans-Serif" font-size="10.00">+ GetHolesList()</text>
<text text-anchor="start" x="8" y="-40.5" font-family="Helvetica,sans-Serif" font-size="10.00">+ GetSourcesIdsPointsAndAngles()</text>
<text text-anchor="start" x="8" y="-29.5" font-family="Helvetica,sans-Serif" font-size="10.00">+ NormalAngle()</text>
<text text-anchor="start" x="8" y="-18.5" font-family="Helvetica,sans-Serif" font-size="10.00">+ GetAdjacentVerticesPositions()</text>
<text text-anchor="start" x="8" y="-7.5" font-family="Helvetica,sans-Serif" font-size="10.00">+ GetVerticeNormalAngle()</text>
</a>
</g>
</g>
<!-- Node2 -->
<g id="node2" class="node">
<title>Node2</title>
<g id="a_node2"><a xlink:href="classt__Boundaries.html" target="_top" xlink:title=" ">
<polygon fill="white" stroke="black" points="0.5,-193.5 0.5,-250.5 80.5,-250.5 80.5,-193.5 0.5,-193.5"/>
<text text-anchor="middle" x="40.5" y="-238.5" font-family="Helvetica,sans-Serif" font-size="10.00">t_Boundaries</text>
<polyline fill="none" stroke="black" points="0.5,-231.5 80.5,-231.5 "/>
<text text-anchor="middle" x="40.5" y="-219.5" font-family="Helvetica,sans-Serif" font-size="10.00"> </text>
<polyline fill="none" stroke="black" points="0.5,-212.5 80.5,-212.5 "/>
<text text-anchor="middle" x="40.5" y="-200.5" font-family="Helvetica,sans-Serif" font-size="10.00"> </text>
</a>
</g>
</g>
<!-- Node2&#45;&gt;Node1 -->
<g id="edge1" class="edge">
<title>Node2&#45;&gt;Node1</title>
<path fill="none" stroke="midnightblue" d="M53.86,-183.93C58.09,-172.22 62.91,-158.84 67.7,-145.56"/>
<polygon fill="none" stroke="midnightblue" points="50.57,-182.76 50.47,-193.35 57.15,-185.13 50.57,-182.76"/>
</g>
<!-- Node3 -->
<g id="node3" class="node">
<title>Node3</title>
<g id="a_node3"><a xlink:title=" ">
<polygon fill="white" stroke="#bfbfbf" points="99,-193.5 99,-250.5 194,-250.5 194,-193.5 99,-193.5"/>
<text text-anchor="middle" x="146.5" y="-238.5" font-family="Helvetica,sans-Serif" font-size="10.00">vector&lt; Point &gt;</text>
<polyline fill="none" stroke="#bfbfbf" points="99,-231.5 194,-231.5 "/>
<text text-anchor="middle" x="146.5" y="-219.5" font-family="Helvetica,sans-Serif" font-size="10.00"> </text>
<polyline fill="none" stroke="#bfbfbf" points="99,-212.5 194,-212.5 "/>
<text text-anchor="middle" x="146.5" y="-200.5" font-family="Helvetica,sans-Serif" font-size="10.00"> </text>
</a>
</g>
</g>
<!-- Node3&#45;&gt;Node1 -->
<g id="edge2" class="edge">
<title>Node3&#45;&gt;Node1</title>
<path fill="none" stroke="#404040" d="M136.53,-193.35C132.73,-182.8 128.17,-170.15 123.46,-157.09"/>
<polygon fill="none" stroke="#404040" points="123.37,-156.84 117.57,-152.56 119.3,-145.56 125.1,-149.84 123.37,-156.84"/>
<text text-anchor="middle" x="147.5" y="-167" font-family="Helvetica,sans-Serif" font-size="10.00"> +holes</text>
</g>
</g>
</svg>
