<?xml version="1.0" encoding="UTF-8" standalone="no"?>
<!DOCTYPE svg PUBLIC "-//W3C//DTD SVG 1.1//EN"
 "http://www.w3.org/Graphics/SVG/1.1/DTD/svg11.dtd">
<!-- Generated by graphviz version 2.40.1 (20161225.0304)
 -->
<!-- Title: River::ProgramOptions Pages: 1 -->
<svg width="365pt" height="204pt"
 viewBox="0.00 0.00 365.00 204.00" xmlns="http://www.w3.org/2000/svg" xmlns:xlink="http://www.w3.org/1999/xlink">
<g id="graph0" class="graph" transform="scale(1 1) rotate(0) translate(4 200)">
<title>River::ProgramOptions</title>
<polygon fill="#ffffff" stroke="transparent" points="-4,4 -4,-200 361,-200 361,4 -4,4"/>
<!-- Node1 -->
<g id="node1" class="node">
<title>Node1</title>
<polygon fill="#bfbfbf" stroke="#000000" points="103.5,-.5 103.5,-57.5 230.5,-57.5 230.5,-.5 103.5,-.5"/>
<text text-anchor="middle" x="167" y="-45.5" font-family="Helvetica,sans-Serif" font-size="10.00" fill="#000000">River::ProgramOptions</text>
<polyline fill="none" stroke="#000000" points="103.5,-38.5 230.5,-38.5 "/>
<text text-anchor="middle" x="167" y="-26.5" font-family="Helvetica,sans-Serif" font-size="10.00" fill="#000000"> </text>
<polyline fill="none" stroke="#000000" points="103.5,-19.5 230.5,-19.5 "/>
<text text-anchor="middle" x="167" y="-7.5" font-family="Helvetica,sans-Serif" font-size="10.00" fill="#000000"> </text>
</g>
<!-- Node2 -->
<g id="node2" class="node">
<title>Node2</title>
<polygon fill="#ffffff" stroke="#bfbfbf" points="0,-138.5 0,-195.5 50,-195.5 50,-138.5 0,-138.5"/>
<text text-anchor="middle" x="25" y="-183.5" font-family="Helvetica,sans-Serif" font-size="10.00" fill="#000000">double</text>
<polyline fill="none" stroke="#bfbfbf" points="0,-176.5 50,-176.5 "/>
<text text-anchor="middle" x="25" y="-164.5" font-family="Helvetica,sans-Serif" font-size="10.00" fill="#000000"> </text>
<polyline fill="none" stroke="#bfbfbf" points="0,-157.5 50,-157.5 "/>
<text text-anchor="middle" x="25" y="-145.5" font-family="Helvetica,sans-Serif" font-size="10.00" fill="#000000"> </text>
</g>
<!-- Node2&#45;&gt;Node1 -->
<g id="edge1" class="edge">
<title>Node2&#45;&gt;Node1</title>
<path fill="none" stroke="#404040" d="M24.1401,-138.4722C25.0352,-118.8 29.3436,-93.1966 44,-76 56.4662,-61.3732 74.0097,-51.2844 91.9514,-44.3307"/>
<polygon fill="none" stroke="#404040" points="92.1175,-44.2724 96.453,-38.5101 103.4395,-40.2957 99.1041,-46.058 92.1175,-44.2724"/>
<text text-anchor="middle" x="103.5" y="-95.5" font-family="Helvetica,sans-Serif" font-size="10.00" fill="#000000"> +maximal_river_height</text>
</g>
<!-- Node3 -->
<g id="node3" class="node">
<title>Node3</title>
<polygon fill="#ffffff" stroke="#bfbfbf" points="148,-138.5 148,-195.5 186,-195.5 186,-138.5 148,-138.5"/>
<text text-anchor="middle" x="167" y="-183.5" font-family="Helvetica,sans-Serif" font-size="10.00" fill="#000000">bool</text>
<polyline fill="none" stroke="#bfbfbf" points="148,-176.5 186,-176.5 "/>
<text text-anchor="middle" x="167" y="-164.5" font-family="Helvetica,sans-Serif" font-size="10.00" fill="#000000"> </text>
<polyline fill="none" stroke="#bfbfbf" points="148,-157.5 186,-157.5 "/>
<text text-anchor="middle" x="167" y="-145.5" font-family="Helvetica,sans-Serif" font-size="10.00" fill="#000000"> </text>
</g>
<!-- Node3&#45;&gt;Node1 -->
<g id="edge2" class="edge">
<title>Node3&#45;&gt;Node1</title>
<path fill="none" stroke="#404040" d="M167,-138.4063C167,-118.5153 167,-91.7072 167,-69.6065"/>
<polygon fill="none" stroke="#404040" points="167.0001,-69.5571 163,-63.5571 167,-57.5571 171,-63.557 167.0001,-69.5571"/>
<text text-anchor="middle" x="195" y="-101" font-family="Helvetica,sans-Serif" font-size="10.00" fill="#000000"> +save_vtk</text>
<text text-anchor="middle" x="195" y="-90" font-family="Helvetica,sans-Serif" font-size="10.00" fill="#000000">+verbose</text>
</g>
<!-- Node4 -->
<g id="node4" class="node">
<title>Node4</title>
<polygon fill="#ffffff" stroke="#bfbfbf" points="215.5,-138.5 215.5,-195.5 276.5,-195.5 276.5,-138.5 215.5,-138.5"/>
<text text-anchor="middle" x="246" y="-183.5" font-family="Helvetica,sans-Serif" font-size="10.00" fill="#000000">unsigned</text>
<polyline fill="none" stroke="#bfbfbf" points="215.5,-176.5 276.5,-176.5 "/>
<text text-anchor="middle" x="246" y="-164.5" font-family="Helvetica,sans-Serif" font-size="10.00" fill="#000000"> </text>
<polyline fill="none" stroke="#bfbfbf" points="215.5,-157.5 276.5,-157.5 "/>
<text text-anchor="middle" x="246" y="-145.5" font-family="Helvetica,sans-Serif" font-size="10.00" fill="#000000"> </text>
</g>
<!-- Node4&#45;&gt;Node1 -->
<g id="edge3" class="edge">
<title>Node4&#45;&gt;Node1</title>
<path fill="none" stroke="#404040" d="M243.7605,-138.1116C241.2035,-119.2492 235.7275,-94.7377 224,-76 221.9246,-72.684 219.5346,-69.491 216.9345,-66.4387"/>
<polygon fill="none" stroke="#404040" points="216.8969,-66.3994 209.86,-64.8236 208.6081,-57.722 215.645,-59.2978 216.8969,-66.3994"/>
<text text-anchor="start" x="240" y="-112" font-family="Helvetica,sans-Serif" font-size="10.00" fill="#000000"> +number_of_backward</text>
<text text-anchor="middle" x="298.5" y="-101" font-family="Helvetica,sans-Serif" font-size="10.00" fill="#000000">_steps</text>
<text text-anchor="middle" x="298.5" y="-90" font-family="Helvetica,sans-Serif" font-size="10.00" fill="#000000">+number_of_steps</text>
<text text-anchor="middle" x="298.5" y="-79" font-family="Helvetica,sans-Serif" font-size="10.00" fill="#000000">+simulation_type</text>
</g>
</g>
</svg>
