<?xml version="1.0" encoding="UTF-8" standalone="no"?>
<!DOCTYPE svg PUBLIC "-//W3C//DTD SVG 1.1//EN"
 "http://www.w3.org/Graphics/SVG/1.1/DTD/svg11.dtd">
<!-- Generated by graphviz version 2.40.1 (20161225.0304)
 -->
<!-- Title: tethex::Mesh::get_n_vertices Pages: 1 -->
<svg width="596pt" height="192pt"
 viewBox="0.00 0.00 596.00 192.00" xmlns="http://www.w3.org/2000/svg" xmlns:xlink="http://www.w3.org/1999/xlink">
<g id="graph0" class="graph" transform="scale(1 1) rotate(0) translate(4 188)">
<title>tethex::Mesh::get_n_vertices</title>
<polygon fill="#ffffff" stroke="transparent" points="-4,4 -4,-188 592,-188 592,4 -4,4"/>
<!-- Node76 -->
<g id="node1" class="node">
<title>Node76</title>
<polygon fill="#bfbfbf" stroke="#000000" points="0,-83 0,-113 104,-113 104,-83 0,-83"/>
<text text-anchor="start" x="8" y="-101" font-family="Helvetica,sans-Serif" font-size="10.00" fill="#000000">tethex::Mesh::get_n</text>
<text text-anchor="middle" x="52" y="-90" font-family="Helvetica,sans-Serif" font-size="10.00" fill="#000000">_vertices</text>
</g>
<!-- Node77 -->
<g id="node2" class="node">
<title>Node77</title>
<g id="a_node2"><a xlink:href="classRiver_1_1Solver.html#a3d51dbec8b2d1d790c5f4e0385b408d7" target="_top" xlink:title="River::Solver::SetMesh">
<polygon fill="#ffffff" stroke="#000000" points="147.5,-164.5 147.5,-183.5 266.5,-183.5 266.5,-164.5 147.5,-164.5"/>
<text text-anchor="middle" x="207" y="-171.5" font-family="Helvetica,sans-Serif" font-size="10.00" fill="#000000">River::Solver::SetMesh</text>
</a>
</g>
</g>
<!-- Node76&#45;&gt;Node77 -->
<g id="edge1" class="edge">
<title>Node76&#45;&gt;Node77</title>
<path fill="none" stroke="#191970" d="M79.855,-119.1236C96.5772,-131.0009 118.6815,-145.3374 140,-155 148.1491,-158.6936 157.1853,-161.8394 165.9149,-164.4455"/>
<polygon fill="#191970" stroke="#191970" points="81.7869,-116.2013 71.6337,-113.1744 77.6833,-121.8723 81.7869,-116.2013"/>
</g>
<!-- Node78 -->
<g id="node3" class="node">
<title>Node78</title>
<g id="a_node3"><a xlink:href="classtethex_1_1Mesh.html#af7abffd9bc4bd64eb2f4cdd4aaf7fbe3" target="_top" xlink:title="tethex::Mesh::Mesh">
<polygon fill="#ffffff" stroke="#000000" points="155,-126.5 155,-145.5 259,-145.5 259,-126.5 155,-126.5"/>
<text text-anchor="middle" x="207" y="-133.5" font-family="Helvetica,sans-Serif" font-size="10.00" fill="#000000">tethex::Mesh::Mesh</text>
</a>
</g>
</g>
<!-- Node76&#45;&gt;Node78 -->
<g id="edge2" class="edge">
<title>Node76&#45;&gt;Node78</title>
<path fill="none" stroke="#191970" d="M113.7792,-113.1459C132.1018,-117.6378 151.6481,-122.4299 168.0855,-126.4597"/>
<polygon fill="#191970" stroke="#191970" points="114.5897,-109.741 104.0439,-110.7592 112.9229,-116.5397 114.5897,-109.741"/>
</g>
<!-- Node79 -->
<g id="node4" class="node">
<title>Node79</title>
<g id="a_node4"><a xlink:href="classtethex_1_1Mesh.html#af992d5d2e64047656766e4afcbc95b8b" target="_top" xlink:title="tethex::Mesh::operator=">
<polygon fill="#ffffff" stroke="#000000" points="146.5,-88.5 146.5,-107.5 267.5,-107.5 267.5,-88.5 146.5,-88.5"/>
<text text-anchor="middle" x="207" y="-95.5" font-family="Helvetica,sans-Serif" font-size="10.00" fill="#000000">tethex::Mesh::operator=</text>
</a>
</g>
</g>
<!-- Node76&#45;&gt;Node79 -->
<g id="edge3" class="edge">
<title>Node76&#45;&gt;Node79</title>
<path fill="none" stroke="#191970" d="M114.0624,-98C124.6688,-98 135.6772,-98 146.249,-98"/>
<polygon fill="#191970" stroke="#191970" points="114.044,-94.5001 104.0439,-98 114.0439,-101.5001 114.044,-94.5001"/>
</g>
<!-- Node80 -->
<g id="node5" class="node">
<title>Node80</title>
<g id="a_node5"><a xlink:href="classtethex_1_1Mesh.html#a8e5d9c057c6f562d5036f262a23af29c" target="_top" xlink:title="During conversion we add new vertices &#45; at the centers of edges, triangles, tetrahedra. ">
<polygon fill="#ffffff" stroke="#000000" points="149,-39 149,-69 265,-69 265,-39 149,-39"/>
<text text-anchor="start" x="157" y="-57" font-family="Helvetica,sans-Serif" font-size="10.00" fill="#000000">tethex::Mesh::set_new</text>
<text text-anchor="middle" x="207" y="-46" font-family="Helvetica,sans-Serif" font-size="10.00" fill="#000000">_vertices</text>
</a>
</g>
</g>
<!-- Node76&#45;&gt;Node80 -->
<g id="edge4" class="edge">
<title>Node76&#45;&gt;Node80</title>
<path fill="none" stroke="#191970" d="M114.0283,-80.392C127.2806,-76.63 141.1621,-72.6895 154.0363,-69.0349"/>
<polygon fill="#191970" stroke="#191970" points="112.7081,-77.1284 104.0439,-83.2262 114.6197,-83.8623 112.7081,-77.1284"/>
</g>
<!-- Node83 -->
<g id="node8" class="node">
<title>Node83</title>
<g id="a_node8"><a xlink:href="namespaceRiver.html#aad220f83cbabff9aa2d1635de9b079c3" target="_top" xlink:title="River::AppendTreeToMesh">
<polygon fill="#ffffff" stroke="#000000" points="140,-.5 140,-19.5 274,-19.5 274,-.5 140,-.5"/>
<text text-anchor="middle" x="207" y="-7.5" font-family="Helvetica,sans-Serif" font-size="10.00" fill="#000000">River::AppendTreeToMesh</text>
</a>
</g>
</g>
<!-- Node76&#45;&gt;Node83 -->
<g id="edge7" class="edge">
<title>Node76&#45;&gt;Node83</title>
<path fill="none" stroke="#191970" d="M74.8808,-75.9545C91.7011,-60.8273 115.7617,-41.3319 140,-29 147.4355,-25.217 155.7301,-22.093 163.8806,-19.5475"/>
<polygon fill="#191970" stroke="#191970" points="72.2314,-73.6357 67.2362,-82.9791 76.9677,-78.7901 72.2314,-73.6357"/>
</g>
<!-- Node81 -->
<g id="node6" class="node">
<title>Node81</title>
<g id="a_node6"><a xlink:href="classtethex_1_1Mesh.html#adb803e48ce7101318531730a512ecbc8" target="_top" xlink:title="Conversion of 2D meshes (triangles &#45;&gt; quadrangles) ">
<polygon fill="#ffffff" stroke="#000000" points="310,-44.5 310,-63.5 440,-63.5 440,-44.5 310,-44.5"/>
<text text-anchor="middle" x="375" y="-51.5" font-family="Helvetica,sans-Serif" font-size="10.00" fill="#000000">tethex::Mesh::convert_2D</text>
</a>
</g>
</g>
<!-- Node80&#45;&gt;Node81 -->
<g id="edge5" class="edge">
<title>Node80&#45;&gt;Node81</title>
<path fill="none" stroke="#191970" d="M275.5745,-54C286.9228,-54 298.6601,-54 309.9191,-54"/>
<polygon fill="#191970" stroke="#191970" points="275.2868,-50.5001 265.2868,-54 275.2867,-57.5001 275.2868,-50.5001"/>
</g>
<!-- Node82 -->
<g id="node7" class="node">
<title>Node82</title>
<g id="a_node7"><a xlink:href="classtethex_1_1Mesh.html#aaa882d21498571cbd84d4f7129fd6e32" target="_top" xlink:title="Conversion from simplices to bricks. ">
<polygon fill="#ffffff" stroke="#000000" points="476,-44.5 476,-63.5 588,-63.5 588,-44.5 476,-44.5"/>
<text text-anchor="middle" x="532" y="-51.5" font-family="Helvetica,sans-Serif" font-size="10.00" fill="#000000">tethex::Mesh::convert</text>
</a>
</g>
</g>
<!-- Node81&#45;&gt;Node82 -->
<g id="edge6" class="edge">
<title>Node81&#45;&gt;Node82</title>
<path fill="none" stroke="#191970" d="M450.2433,-54C458.8245,-54 467.4576,-54 475.7317,-54"/>
<polygon fill="#191970" stroke="#191970" points="450.2182,-50.5001 440.2182,-54 450.2182,-57.5001 450.2182,-50.5001"/>
</g>
<!-- Node84 -->
<g id="node9" class="node">
<title>Node84</title>
<g id="a_node9"><a xlink:href="namespaceRiver.html#aa226e8aa15b4b21c82a2ea177e1faee6" target="_top" xlink:title="Finnal Boudary Geneartor Class. ">
<polygon fill="#ffffff" stroke="#000000" points="310,-.5 310,-19.5 440,-19.5 440,-.5 310,-.5"/>
<text text-anchor="middle" x="375" y="-7.5" font-family="Helvetica,sans-Serif" font-size="10.00" fill="#000000">River::BoundaryGenerator</text>
</a>
</g>
</g>
<!-- Node83&#45;&gt;Node84 -->
<g id="edge8" class="edge">
<title>Node83&#45;&gt;Node84</title>
<path fill="none" stroke="#191970" d="M284.586,-10C293.0203,-10 301.5413,-10 309.8064,-10"/>
<polygon fill="#191970" stroke="#191970" points="284.3641,-6.5001 274.364,-10 284.364,-13.5001 284.3641,-6.5001"/>
</g>
<!-- Node85 -->
<g id="node10" class="node">
<title>Node85</title>
<g id="a_node10"><a xlink:href="main_8cpp.html#a0ddf1224851353fc92bfbff6f499fa97" target="_top" xlink:title="Entry point of RiverSim program. ">
<polygon fill="#ffffff" stroke="#000000" points="513,-.5 513,-19.5 551,-19.5 551,-.5 513,-.5"/>
<text text-anchor="middle" x="532" y="-7.5" font-family="Helvetica,sans-Serif" font-size="10.00" fill="#000000">main</text>
</a>
</g>
</g>
<!-- Node84&#45;&gt;Node85 -->
<g id="edge9" class="edge">
<title>Node84&#45;&gt;Node85</title>
<path fill="none" stroke="#191970" d="M450.4591,-10C473.6386,-10 497.1722,-10 512.9595,-10"/>
<polygon fill="#191970" stroke="#191970" points="450.2182,-6.5001 440.2182,-10 450.2182,-13.5001 450.2182,-6.5001"/>
</g>
</g>
</svg>
