<?xml version="1.0" encoding="UTF-8" standalone="no"?>
<!DOCTYPE svg PUBLIC "-//W3C//DTD SVG 1.1//EN"
 "http://www.w3.org/Graphics/SVG/1.1/DTD/svg11.dtd">
<!-- Generated by graphviz version 2.40.1 (20161225.0304)
 -->
<!-- Title: River::Line Pages: 1 -->
<svg width="90pt" height="193pt"
 viewBox="0.00 0.00 90.00 193.00" xmlns="http://www.w3.org/2000/svg" xmlns:xlink="http://www.w3.org/1999/xlink">
<g id="graph0" class="graph" transform="scale(1 1) rotate(0) translate(4 189)">
<title>River::Line</title>
<polygon fill="#ffffff" stroke="transparent" points="-4,4 -4,-189 86,-189 86,4 -4,4"/>
<!-- Node1 -->
<g id="node1" class="node">
<title>Node1</title>
<polygon fill="#bfbfbf" stroke="#000000" points="7.5,-.5 7.5,-68.5 71.5,-68.5 71.5,-.5 7.5,-.5"/>
<text text-anchor="middle" x="39.5" y="-56.5" font-family="Helvetica,sans-Serif" font-size="10.00" fill="#000000">River::Line</text>
<polyline fill="none" stroke="#000000" points="7.5,-49.5 71.5,-49.5 "/>
<text text-anchor="middle" x="39.5" y="-37.5" font-family="Helvetica,sans-Serif" font-size="10.00" fill="#000000"> </text>
<polyline fill="none" stroke="#000000" points="7.5,-30.5 71.5,-30.5 "/>
<text text-anchor="start" x="15.5" y="-18.5" font-family="Helvetica,sans-Serif" font-size="10.00" fill="#000000">+ Line()</text>
<text text-anchor="start" x="15.5" y="-7.5" font-family="Helvetica,sans-Serif" font-size="10.00" fill="#000000">+ Line()</text>
</g>
<!-- Node2 -->
<g id="node2" class="node">
<title>Node2</title>
<polygon fill="#ffffff" stroke="#bfbfbf" points="0,-127.5 0,-184.5 29,-184.5 29,-127.5 0,-127.5"/>
<text text-anchor="middle" x="14.5" y="-172.5" font-family="Helvetica,sans-Serif" font-size="10.00" fill="#000000">int</text>
<polyline fill="none" stroke="#bfbfbf" points="0,-165.5 29,-165.5 "/>
<text text-anchor="middle" x="14.5" y="-153.5" font-family="Helvetica,sans-Serif" font-size="10.00" fill="#000000"> </text>
<polyline fill="none" stroke="#bfbfbf" points="0,-146.5 29,-146.5 "/>
<text text-anchor="middle" x="14.5" y="-134.5" font-family="Helvetica,sans-Serif" font-size="10.00" fill="#000000"> </text>
</g>
<!-- Node2&#45;&gt;Node1 -->
<g id="edge1" class="edge">
<title>Node2&#45;&gt;Node1</title>
<path fill="none" stroke="#404040" d="M18.3961,-127.3436C20.2621,-114.8923 22.7017,-100.1708 25.5,-87 25.9579,-84.8446 26.4489,-82.6454 26.963,-80.4284"/>
<polygon fill="none" stroke="#404040" points="27.0181,-80.2035 24.5629,-73.4232 29.8773,-68.5491 32.3325,-75.3294 27.0181,-80.2035"/>
<text text-anchor="middle" x="34" y="-95.5" font-family="Helvetica,sans-Serif" font-size="10.00" fill="#000000"> +id</text>
</g>
<!-- Node3 -->
<g id="node3" class="node">
<title>Node3</title>
<polygon fill="#ffffff" stroke="#bfbfbf" points="47,-127.5 47,-184.5 82,-184.5 82,-127.5 47,-127.5"/>
<text text-anchor="middle" x="64.5" y="-172.5" font-family="Helvetica,sans-Serif" font-size="10.00" fill="#000000">long</text>
<polyline fill="none" stroke="#bfbfbf" points="47,-165.5 82,-165.5 "/>
<text text-anchor="middle" x="64.5" y="-153.5" font-family="Helvetica,sans-Serif" font-size="10.00" fill="#000000"> </text>
<polyline fill="none" stroke="#bfbfbf" points="47,-146.5 82,-146.5 "/>
<text text-anchor="middle" x="64.5" y="-134.5" font-family="Helvetica,sans-Serif" font-size="10.00" fill="#000000"> </text>
</g>
<!-- Node3&#45;&gt;Node1 -->
<g id="edge2" class="edge">
<title>Node3&#45;&gt;Node1</title>
<path fill="none" stroke="#404040" d="M58.5753,-127.2062C55.727,-113.3632 52.2419,-96.4255 49.0335,-80.8327"/>
<polygon fill="none" stroke="#404040" points="48.9557,-80.4545 43.8285,-75.3838 46.5372,-68.7007 51.6644,-73.7714 48.9557,-80.4545"/>
<text text-anchor="middle" x="63.5" y="-101" font-family="Helvetica,sans-Serif" font-size="10.00" fill="#000000"> +p1</text>
<text text-anchor="middle" x="63.5" y="-90" font-family="Helvetica,sans-Serif" font-size="10.00" fill="#000000">+p2</text>
</g>
</g>
</svg>
