<?xml version="1.0" encoding="UTF-8" standalone="no"?>
<!DOCTYPE svg PUBLIC "-//W3C//DTD SVG 1.1//EN"
 "http://www.w3.org/Graphics/SVG/1.1/DTD/svg11.dtd">
<!-- Generated by graphviz version 2.43.0 (0)
 -->
<!-- Title: River::Solver Pages: 1 -->
<svg width="1772pt" height="464pt"
 viewBox="0.00 0.00 1771.50 464.00" xmlns="http://www.w3.org/2000/svg" xmlns:xlink="http://www.w3.org/1999/xlink">
<g id="graph0" class="graph" transform="scale(1 1) rotate(0) translate(4 460)">
<title>River::Solver</title>
<polygon fill="white" stroke="transparent" points="-4,4 -4,-460 1767.5,-460 1767.5,4 -4,4"/>
<!-- Node1 -->
<g id="node1" class="node">
<title>Node1</title>
<g id="a_node1"><a xlink:title="Deal.II Solver Wrapper.">
<polygon fill="#bfbfbf" stroke="black" points="825,-0.5 825,-211.5 974,-211.5 974,-0.5 825,-0.5"/>
<text text-anchor="middle" x="899.5" y="-199.5" font-family="Helvetica,sans-Serif" font-size="10.00">River::Solver</text>
<polyline fill="none" stroke="black" points="825,-192.5 974,-192.5 "/>
<text text-anchor="middle" x="899.5" y="-180.5" font-family="Helvetica,sans-Serif" font-size="10.00"> </text>
<polyline fill="none" stroke="black" points="825,-173.5 974,-173.5 "/>
<text text-anchor="start" x="833" y="-161.5" font-family="Helvetica,sans-Serif" font-size="10.00">+ Solver()</text>
<text text-anchor="start" x="833" y="-150.5" font-family="Helvetica,sans-Serif" font-size="10.00">+ ~Solver()</text>
<text text-anchor="start" x="833" y="-139.5" font-family="Helvetica,sans-Serif" font-size="10.00">+ OpenMesh()</text>
<text text-anchor="start" x="833" y="-128.5" font-family="Helvetica,sans-Serif" font-size="10.00">+ OpenMesh()</text>
<text text-anchor="start" x="833" y="-117.5" font-family="Helvetica,sans-Serif" font-size="10.00">+ setBoundaryConditions()</text>
<text text-anchor="start" x="833" y="-106.5" font-family="Helvetica,sans-Serif" font-size="10.00">+ static_refine_grid()</text>
<text text-anchor="start" x="833" y="-95.5" font-family="Helvetica,sans-Serif" font-size="10.00">+ NumberOfRefinedCells()</text>
<text text-anchor="start" x="833" y="-84.5" font-family="Helvetica,sans-Serif" font-size="10.00">+ NumberOfDOFs()</text>
<text text-anchor="start" x="833" y="-73.5" font-family="Helvetica,sans-Serif" font-size="10.00">+ run()</text>
<text text-anchor="start" x="833" y="-62.5" font-family="Helvetica,sans-Serif" font-size="10.00">+ output_results()</text>
<text text-anchor="start" x="833" y="-51.5" font-family="Helvetica,sans-Serif" font-size="10.00">and 6 more...</text>
<text text-anchor="start" x="833" y="-40.5" font-family="Helvetica,sans-Serif" font-size="10.00">&#45; setup_system()</text>
<text text-anchor="start" x="833" y="-29.5" font-family="Helvetica,sans-Serif" font-size="10.00">&#45; assemble_system()</text>
<text text-anchor="start" x="833" y="-18.5" font-family="Helvetica,sans-Serif" font-size="10.00">&#45; solve()</text>
<text text-anchor="start" x="833" y="-7.5" font-family="Helvetica,sans-Serif" font-size="10.00">&#45; refine_grid()</text>
</a>
</g>
</g>
<!-- Node2 -->
<g id="node2" class="node">
<title>Node2</title>
<g id="a_node2"><a xlink:title=" ">
<polygon fill="white" stroke="#bfbfbf" points="0,-298 0,-355 95,-355 95,-298 0,-298"/>
<text text-anchor="middle" x="47.5" y="-343" font-family="Helvetica,sans-Serif" font-size="10.00">QGauss&lt; dim &gt;</text>
<polyline fill="none" stroke="#bfbfbf" points="0,-336 95,-336 "/>
<text text-anchor="middle" x="47.5" y="-324" font-family="Helvetica,sans-Serif" font-size="10.00"> </text>
<polyline fill="none" stroke="#bfbfbf" points="0,-317 95,-317 "/>
<text text-anchor="middle" x="47.5" y="-305" font-family="Helvetica,sans-Serif" font-size="10.00"> </text>
</a>
</g>
</g>
<!-- Node2&#45;&gt;Node1 -->
<g id="edge1" class="edge">
<title>Node2&#45;&gt;Node1</title>
<path fill="none" stroke="#404040" d="M44.78,-297.65C44.34,-276.12 47.62,-247.18 65.5,-230 171.09,-128.54 621.18,-110.54 812.69,-107.52"/>
<polygon fill="none" stroke="#404040" points="812.93,-107.52 818.87,-103.43 824.92,-107.34 818.98,-111.43 812.93,-107.52"/>
<text text-anchor="middle" x="117.5" y="-249.5" font-family="Helvetica,sans-Serif" font-size="10.00"> &#45;quadrature_formula</text>
</g>
<!-- Node3 -->
<g id="node3" class="node">
<title>Node3</title>
<g id="a_node3"><a xlink:title=" ">
<polygon fill="white" stroke="#bfbfbf" points="113.5,-298 113.5,-355 235.5,-355 235.5,-298 113.5,-298"/>
<text text-anchor="middle" x="174.5" y="-343" font-family="Helvetica,sans-Serif" font-size="10.00">Triangulation&lt; dim &gt;</text>
<polyline fill="none" stroke="#bfbfbf" points="113.5,-336 235.5,-336 "/>
<text text-anchor="middle" x="174.5" y="-324" font-family="Helvetica,sans-Serif" font-size="10.00"> </text>
<polyline fill="none" stroke="#bfbfbf" points="113.5,-317 235.5,-317 "/>
<text text-anchor="middle" x="174.5" y="-305" font-family="Helvetica,sans-Serif" font-size="10.00"> </text>
</a>
</g>
</g>
<!-- Node3&#45;&gt;Node1 -->
<g id="edge2" class="edge">
<title>Node3&#45;&gt;Node1</title>
<path fill="none" stroke="#404040" d="M172.23,-297.75C172.09,-276.27 175.72,-247.36 193.5,-230 280.23,-145.32 643.93,-118.29 812.74,-110.21"/>
<polygon fill="none" stroke="#404040" points="812.81,-110.2 818.61,-105.93 824.79,-109.65 818.99,-113.92 812.81,-110.2"/>
<text text-anchor="middle" x="228.5" y="-249.5" font-family="Helvetica,sans-Serif" font-size="10.00"> &#45;triangulation</text>
</g>
<!-- Node4 -->
<g id="node4" class="node">
<title>Node4</title>
<g id="a_node4"><a xlink:title=" ">
<polygon fill="white" stroke="#bfbfbf" points="253.5,-298 253.5,-355 303.5,-355 303.5,-298 253.5,-298"/>
<text text-anchor="middle" x="278.5" y="-343" font-family="Helvetica,sans-Serif" font-size="10.00">double</text>
<polyline fill="none" stroke="#bfbfbf" points="253.5,-336 303.5,-336 "/>
<text text-anchor="middle" x="278.5" y="-324" font-family="Helvetica,sans-Serif" font-size="10.00"> </text>
<polyline fill="none" stroke="#bfbfbf" points="253.5,-317 303.5,-317 "/>
<text text-anchor="middle" x="278.5" y="-305" font-family="Helvetica,sans-Serif" font-size="10.00"> </text>
</a>
</g>
</g>
<!-- Node4&#45;&gt;Node1 -->
<g id="edge3" class="edge">
<title>Node4&#45;&gt;Node1</title>
<path fill="none" stroke="#404040" d="M271.01,-297.99C267.07,-276.94 265.84,-248.48 281.5,-230 348.97,-150.36 659.26,-121.1 812.86,-111.37"/>
<polygon fill="none" stroke="#404040" points="813.01,-111.36 818.76,-107 824.99,-110.62 819.25,-114.98 813.01,-111.36"/>
<text text-anchor="middle" x="335.5" y="-266" font-family="Helvetica,sans-Serif" font-size="10.00"> +coarsening_fraction</text>
<text text-anchor="middle" x="335.5" y="-255" font-family="Helvetica,sans-Serif" font-size="10.00">+refinment_fraction</text>
<text text-anchor="middle" x="335.5" y="-244" font-family="Helvetica,sans-Serif" font-size="10.00">+field_value</text>
<text text-anchor="middle" x="335.5" y="-233" font-family="Helvetica,sans-Serif" font-size="10.00">+tollerance</text>
</g>
<!-- Node5 -->
<g id="node5" class="node">
<title>Node5</title>
<g id="a_node5"><a xlink:title=" ">
<polygon fill="white" stroke="#bfbfbf" points="338,-292.5 338,-360.5 447,-360.5 447,-292.5 338,-292.5"/>
<text text-anchor="start" x="346" y="-348.5" font-family="Helvetica,sans-Serif" font-size="10.00">AffineConstraints&lt;</text>
<text text-anchor="middle" x="392.5" y="-337.5" font-family="Helvetica,sans-Serif" font-size="10.00"> double &gt;</text>
<polyline fill="none" stroke="#bfbfbf" points="338,-330.5 447,-330.5 "/>
<text text-anchor="middle" x="392.5" y="-318.5" font-family="Helvetica,sans-Serif" font-size="10.00"> </text>
<polyline fill="none" stroke="#bfbfbf" points="338,-311.5 447,-311.5 "/>
<text text-anchor="middle" x="392.5" y="-299.5" font-family="Helvetica,sans-Serif" font-size="10.00"> </text>
</a>
</g>
</g>
<!-- Node5&#45;&gt;Node1 -->
<g id="edge4" class="edge">
<title>Node5&#45;&gt;Node1</title>
<path fill="none" stroke="#404040" d="M391.48,-292.24C392.66,-271.74 397.67,-246.34 413.5,-230 468.31,-173.44 688.5,-135.38 812.86,-117.93"/>
<polygon fill="none" stroke="#404040" points="813.07,-117.9 818.46,-113.11 824.96,-116.25 819.56,-121.04 813.07,-117.9"/>
<text text-anchor="middle" x="481" y="-249.5" font-family="Helvetica,sans-Serif" font-size="10.00"> &#45;hanging_node_constraints</text>
</g>
<!-- Node6 -->
<g id="node6" class="node">
<title>Node6</title>
<g id="a_node6"><a xlink:href="classRiver_1_1BoundaryConditions.html" target="_top" xlink:title="Map structure of boundary condition types.">
<polygon fill="white" stroke="black" points="465.5,-298 465.5,-355 611.5,-355 611.5,-298 465.5,-298"/>
<text text-anchor="middle" x="538.5" y="-343" font-family="Helvetica,sans-Serif" font-size="10.00">River::BoundaryConditions</text>
<polyline fill="none" stroke="black" points="465.5,-336 611.5,-336 "/>
<text text-anchor="middle" x="538.5" y="-324" font-family="Helvetica,sans-Serif" font-size="10.00"> </text>
<polyline fill="none" stroke="black" points="465.5,-317 611.5,-317 "/>
<text text-anchor="start" x="473.5" y="-305" font-family="Helvetica,sans-Serif" font-size="10.00">+ Get()</text>
</a>
</g>
</g>
<!-- Node6&#45;&gt;Node1 -->
<g id="edge5" class="edge">
<title>Node6&#45;&gt;Node1</title>
<path fill="none" stroke="#404040" d="M544.19,-297.87C549.85,-276.76 560.52,-248.26 579.5,-230 643.66,-168.27 742.11,-136.68 812.86,-121.09"/>
<polygon fill="none" stroke="#404040" points="813.11,-121.04 818.15,-115.88 824.85,-118.54 819.81,-123.7 813.11,-121.04"/>
<text text-anchor="middle" x="634" y="-249.5" font-family="Helvetica,sans-Serif" font-size="10.00"> &#45;boundary_conditions</text>
</g>
<!-- Node7 -->
<g id="node7" class="node">
<title>Node7</title>
<g id="a_node7"><a xlink:href="classt__BoundaryConditions.html" target="_top" xlink:title=" ">
<polygon fill="white" stroke="black" points="476.5,-398.5 476.5,-455.5 600.5,-455.5 600.5,-398.5 476.5,-398.5"/>
<text text-anchor="middle" x="538.5" y="-443.5" font-family="Helvetica,sans-Serif" font-size="10.00">t_BoundaryConditions</text>
<polyline fill="none" stroke="black" points="476.5,-436.5 600.5,-436.5 "/>
<text text-anchor="middle" x="538.5" y="-424.5" font-family="Helvetica,sans-Serif" font-size="10.00"> </text>
<polyline fill="none" stroke="black" points="476.5,-417.5 600.5,-417.5 "/>
<text text-anchor="middle" x="538.5" y="-405.5" font-family="Helvetica,sans-Serif" font-size="10.00"> </text>
</a>
</g>
</g>
<!-- Node7&#45;&gt;Node6 -->
<g id="edge6" class="edge">
<title>Node7&#45;&gt;Node6</title>
<path fill="none" stroke="midnightblue" d="M538.5,-388.15C538.5,-377.23 538.5,-365.52 538.5,-355.33"/>
<polygon fill="none" stroke="midnightblue" points="535,-388.3 538.5,-398.3 542,-388.3 535,-388.3"/>
</g>
<!-- Node8 -->
<g id="node8" class="node">
<title>Node8</title>
<g id="a_node8"><a xlink:title=" ">
<polygon fill="white" stroke="#bfbfbf" points="629.5,-298 629.5,-355 721.5,-355 721.5,-298 629.5,-298"/>
<text text-anchor="middle" x="675.5" y="-343" font-family="Helvetica,sans-Serif" font-size="10.00">SparsityPattern</text>
<polyline fill="none" stroke="#bfbfbf" points="629.5,-336 721.5,-336 "/>
<text text-anchor="middle" x="675.5" y="-324" font-family="Helvetica,sans-Serif" font-size="10.00"> </text>
<polyline fill="none" stroke="#bfbfbf" points="629.5,-317 721.5,-317 "/>
<text text-anchor="middle" x="675.5" y="-305" font-family="Helvetica,sans-Serif" font-size="10.00"> </text>
</a>
</g>
</g>
<!-- Node8&#45;&gt;Node1 -->
<g id="edge7" class="edge">
<title>Node8&#45;&gt;Node1</title>
<path fill="none" stroke="#404040" d="M683.46,-297.74C690.32,-277.38 701.78,-249.91 718.5,-230 744.84,-198.63 781.11,-171.86 814.26,-151.39"/>
<polygon fill="none" stroke="#404040" points="814.63,-151.17 817.7,-144.64 824.9,-144.96 821.83,-151.49 814.63,-151.17"/>
<text text-anchor="middle" x="762" y="-249.5" font-family="Helvetica,sans-Serif" font-size="10.00"> &#45;sparsity_pattern</text>
</g>
<!-- Node9 -->
<g id="node9" class="node">
<title>Node9</title>
<g id="a_node9"><a xlink:title=" ">
<polygon fill="white" stroke="#bfbfbf" points="740,-298 740,-355 823,-355 823,-298 740,-298"/>
<text text-anchor="middle" x="781.5" y="-343" font-family="Helvetica,sans-Serif" font-size="10.00">FE_Q&lt; dim &gt;</text>
<polyline fill="none" stroke="#bfbfbf" points="740,-336 823,-336 "/>
<text text-anchor="middle" x="781.5" y="-324" font-family="Helvetica,sans-Serif" font-size="10.00"> </text>
<polyline fill="none" stroke="#bfbfbf" points="740,-317 823,-317 "/>
<text text-anchor="middle" x="781.5" y="-305" font-family="Helvetica,sans-Serif" font-size="10.00"> </text>
</a>
</g>
</g>
<!-- Node9&#45;&gt;Node1 -->
<g id="edge8" class="edge">
<title>Node9&#45;&gt;Node1</title>
<path fill="none" stroke="#404040" d="M796.44,-297.83C807,-278.28 821.93,-250.63 837.16,-222.43"/>
<polygon fill="none" stroke="#404040" points="837.3,-222.17 836.64,-214.99 843.01,-211.61 843.67,-218.79 837.3,-222.17"/>
<text text-anchor="middle" x="838" y="-249.5" font-family="Helvetica,sans-Serif" font-size="10.00"> &#45;fe</text>
</g>
<!-- Node10 -->
<g id="node10" class="node">
<title>Node10</title>
<g id="a_node10"><a xlink:title=" ">
<polygon fill="white" stroke="#bfbfbf" points="841.5,-298 841.5,-355 957.5,-355 957.5,-298 841.5,-298"/>
<text text-anchor="middle" x="899.5" y="-343" font-family="Helvetica,sans-Serif" font-size="10.00">DoFHandler&lt; dim &gt;</text>
<polyline fill="none" stroke="#bfbfbf" points="841.5,-336 957.5,-336 "/>
<text text-anchor="middle" x="899.5" y="-324" font-family="Helvetica,sans-Serif" font-size="10.00"> </text>
<polyline fill="none" stroke="#bfbfbf" points="841.5,-317 957.5,-317 "/>
<text text-anchor="middle" x="899.5" y="-305" font-family="Helvetica,sans-Serif" font-size="10.00"> </text>
</a>
</g>
</g>
<!-- Node10&#45;&gt;Node1 -->
<g id="edge9" class="edge">
<title>Node10&#45;&gt;Node1</title>
<path fill="none" stroke="#404040" d="M899.5,-297.83C899.5,-278.62 899.5,-251.6 899.5,-223.92"/>
<polygon fill="none" stroke="#404040" points="899.5,-223.61 895.5,-217.61 899.5,-211.61 903.5,-217.61 899.5,-223.61"/>
<text text-anchor="middle" x="932" y="-249.5" font-family="Helvetica,sans-Serif" font-size="10.00"> &#45;dof_handler</text>
</g>
<!-- Node11 -->
<g id="node11" class="node">
<title>Node11</title>
<g id="a_node11"><a xlink:title=" ">
<polygon fill="white" stroke="#bfbfbf" points="976,-298 976,-355 1005,-355 1005,-298 976,-298"/>
<text text-anchor="middle" x="990.5" y="-343" font-family="Helvetica,sans-Serif" font-size="10.00">int</text>
<polyline fill="none" stroke="#bfbfbf" points="976,-336 1005,-336 "/>
<text text-anchor="middle" x="990.5" y="-324" font-family="Helvetica,sans-Serif" font-size="10.00"> </text>
<polyline fill="none" stroke="#bfbfbf" points="976,-317 1005,-317 "/>
<text text-anchor="middle" x="990.5" y="-305" font-family="Helvetica,sans-Serif" font-size="10.00"> </text>
</a>
</g>
</g>
<!-- Node11&#45;&gt;Node1 -->
<g id="edge10" class="edge">
<title>Node11&#45;&gt;Node1</title>
<path fill="none" stroke="#404040" d="M986.26,-297.71C982.78,-278.32 977.03,-252.06 968.5,-230 967.59,-227.64 966.63,-225.26 965.65,-222.88"/>
<polygon fill="none" stroke="#404040" points="965.58,-222.73 959.52,-218.82 960.8,-211.73 966.86,-215.63 965.58,-222.73"/>
<text text-anchor="middle" x="993.5" y="-249.5" font-family="Helvetica,sans-Serif" font-size="10.00"> &#45;dim</text>
</g>
<!-- Node12 -->
<g id="node12" class="node">
<title>Node12</title>
<g id="a_node12"><a xlink:title=" ">
<polygon fill="white" stroke="#bfbfbf" points="1023.5,-298 1023.5,-355 1061.5,-355 1061.5,-298 1023.5,-298"/>
<text text-anchor="middle" x="1042.5" y="-343" font-family="Helvetica,sans-Serif" font-size="10.00">bool</text>
<polyline fill="none" stroke="#bfbfbf" points="1023.5,-336 1061.5,-336 "/>
<text text-anchor="middle" x="1042.5" y="-324" font-family="Helvetica,sans-Serif" font-size="10.00"> </text>
<polyline fill="none" stroke="#bfbfbf" points="1023.5,-317 1061.5,-317 "/>
<text text-anchor="middle" x="1042.5" y="-305" font-family="Helvetica,sans-Serif" font-size="10.00"> </text>
</a>
</g>
</g>
<!-- Node12&#45;&gt;Node1 -->
<g id="edge11" class="edge">
<title>Node12&#45;&gt;Node1</title>
<path fill="none" stroke="#404040" d="M1036.46,-297.89C1031.38,-278.1 1022.94,-251.29 1010.5,-230 1002.33,-216.01 992.38,-202.22 981.83,-189.22"/>
<polygon fill="none" stroke="#404040" points="981.74,-189.12 974.83,-187.08 974.06,-179.91 980.97,-181.95 981.74,-189.12"/>
<text text-anchor="middle" x="1051.5" y="-249.5" font-family="Helvetica,sans-Serif" font-size="10.00"> &#45;verbose</text>
</g>
<!-- Node13 -->
<g id="node13" class="node">
<title>Node13</title>
<g id="a_node13"><a xlink:title=" ">
<polygon fill="white" stroke="#bfbfbf" points="1079.5,-298 1079.5,-355 1185.5,-355 1185.5,-298 1079.5,-298"/>
<text text-anchor="middle" x="1132.5" y="-343" font-family="Helvetica,sans-Serif" font-size="10.00">ConvergenceTable</text>
<polyline fill="none" stroke="#bfbfbf" points="1079.5,-336 1185.5,-336 "/>
<text text-anchor="middle" x="1132.5" y="-324" font-family="Helvetica,sans-Serif" font-size="10.00"> </text>
<polyline fill="none" stroke="#bfbfbf" points="1079.5,-317 1185.5,-317 "/>
<text text-anchor="middle" x="1132.5" y="-305" font-family="Helvetica,sans-Serif" font-size="10.00"> </text>
</a>
</g>
</g>
<!-- Node13&#45;&gt;Node1 -->
<g id="edge12" class="edge">
<title>Node13&#45;&gt;Node1</title>
<path fill="none" stroke="#404040" d="M1120.98,-297.84C1111.59,-277.53 1096.9,-250.08 1078.5,-230 1051.61,-200.65 1016.45,-174.59 984.43,-154.09"/>
<polygon fill="none" stroke="#404040" points="984.31,-154.02 977.1,-154.22 974.15,-147.64 981.36,-147.44 984.31,-154.02"/>
<text text-anchor="middle" x="1157.5" y="-249.5" font-family="Helvetica,sans-Serif" font-size="10.00"> &#45;convergence_table</text>
</g>
<!-- Node14 -->
<g id="node14" class="node">
<title>Node14</title>
<g id="a_node14"><a xlink:title=" ">
<polygon fill="white" stroke="#bfbfbf" points="1203.5,-298 1203.5,-355 1307.5,-355 1307.5,-298 1203.5,-298"/>
<text text-anchor="middle" x="1255.5" y="-343" font-family="Helvetica,sans-Serif" font-size="10.00">Vector&lt; double &gt;</text>
<polyline fill="none" stroke="#bfbfbf" points="1203.5,-336 1307.5,-336 "/>
<text text-anchor="middle" x="1255.5" y="-324" font-family="Helvetica,sans-Serif" font-size="10.00"> </text>
<polyline fill="none" stroke="#bfbfbf" points="1203.5,-317 1307.5,-317 "/>
<text text-anchor="middle" x="1255.5" y="-305" font-family="Helvetica,sans-Serif" font-size="10.00"> </text>
</a>
</g>
</g>
<!-- Node14&#45;&gt;Node1 -->
<g id="edge13" class="edge">
<title>Node14&#45;&gt;Node1</title>
<path fill="none" stroke="#404040" d="M1248.84,-297.9C1242.46,-276.8 1230.87,-248.31 1211.5,-230 1149.03,-170.95 1054.85,-139.1 986.31,-122.72"/>
<polygon fill="none" stroke="#404040" points="985.94,-122.63 979.2,-125.18 974.25,-119.93 981,-117.39 985.94,-122.63"/>
<text text-anchor="middle" x="1270" y="-255" font-family="Helvetica,sans-Serif" font-size="10.00"> &#45;solution</text>
<text text-anchor="middle" x="1270" y="-244" font-family="Helvetica,sans-Serif" font-size="10.00">&#45;system_rhs</text>
</g>
<!-- Node15 -->
<g id="node15" class="node">
<title>Node15</title>
<g id="a_node15"><a xlink:title=" ">
<polygon fill="white" stroke="#bfbfbf" points="1326,-298 1326,-355 1387,-355 1387,-298 1326,-298"/>
<text text-anchor="middle" x="1356.5" y="-343" font-family="Helvetica,sans-Serif" font-size="10.00">unsigned</text>
<polyline fill="none" stroke="#bfbfbf" points="1326,-336 1387,-336 "/>
<text text-anchor="middle" x="1356.5" y="-324" font-family="Helvetica,sans-Serif" font-size="10.00"> </text>
<polyline fill="none" stroke="#bfbfbf" points="1326,-317 1387,-317 "/>
<text text-anchor="middle" x="1356.5" y="-305" font-family="Helvetica,sans-Serif" font-size="10.00"> </text>
</a>
</g>
</g>
<!-- Node15&#45;&gt;Node1 -->
<g id="edge14" class="edge">
<title>Node15&#45;&gt;Node1</title>
<path fill="none" stroke="#404040" d="M1347.95,-297.84C1339.97,-276.41 1326.02,-247.53 1304.5,-230 1212.4,-154.98 1075.13,-125.66 986.46,-114.24"/>
<polygon fill="none" stroke="#404040" points="986.19,-114.21 979.75,-117.44 974.28,-112.74 980.72,-109.5 986.19,-114.21"/>
<text text-anchor="middle" x="1411.5" y="-260.5" font-family="Helvetica,sans-Serif" font-size="10.00"> +num_of_static_refinments</text>
<text text-anchor="middle" x="1411.5" y="-249.5" font-family="Helvetica,sans-Serif" font-size="10.00">+number_of_iterations</text>
<text text-anchor="middle" x="1411.5" y="-238.5" font-family="Helvetica,sans-Serif" font-size="10.00">+num_of_adaptive_refinments</text>
</g>
<!-- Node16 -->
<g id="node16" class="node">
<title>Node16</title>
<g id="a_node16"><a xlink:title=" ">
<polygon fill="white" stroke="#bfbfbf" points="1446,-298 1446,-355 1583,-355 1583,-298 1446,-298"/>
<text text-anchor="middle" x="1514.5" y="-343" font-family="Helvetica,sans-Serif" font-size="10.00">SparseMatrix&lt; double &gt;</text>
<polyline fill="none" stroke="#bfbfbf" points="1446,-336 1583,-336 "/>
<text text-anchor="middle" x="1514.5" y="-324" font-family="Helvetica,sans-Serif" font-size="10.00"> </text>
<polyline fill="none" stroke="#bfbfbf" points="1446,-317 1583,-317 "/>
<text text-anchor="middle" x="1514.5" y="-305" font-family="Helvetica,sans-Serif" font-size="10.00"> </text>
</a>
</g>
</g>
<!-- Node16&#45;&gt;Node1 -->
<g id="edge15" class="edge">
<title>Node16&#45;&gt;Node1</title>
<path fill="none" stroke="#404040" d="M1515.33,-297.79C1514.41,-276.34 1509.5,-247.45 1491.5,-230 1420.42,-161.12 1132.84,-126.98 986.28,-113.77"/>
<polygon fill="none" stroke="#404040" points="986.21,-113.76 979.88,-117.22 974.26,-112.7 980.59,-109.25 986.21,-113.76"/>
<text text-anchor="middle" x="1552" y="-249.5" font-family="Helvetica,sans-Serif" font-size="10.00"> &#45;system_matrix</text>
</g>
<!-- Node17 -->
<g id="node17" class="node">
<title>Node17</title>
<g id="a_node17"><a xlink:title=" ">
<polygon fill="white" stroke="#bfbfbf" points="1601,-298 1601,-355 1712,-355 1712,-298 1601,-298"/>
<text text-anchor="middle" x="1656.5" y="-343" font-family="Helvetica,sans-Serif" font-size="10.00">QGauss&lt; dim &#45; 1 &gt;</text>
<polyline fill="none" stroke="#bfbfbf" points="1601,-336 1712,-336 "/>
<text text-anchor="middle" x="1656.5" y="-324" font-family="Helvetica,sans-Serif" font-size="10.00"> </text>
<polyline fill="none" stroke="#bfbfbf" points="1601,-317 1712,-317 "/>
<text text-anchor="middle" x="1656.5" y="-305" font-family="Helvetica,sans-Serif" font-size="10.00"> </text>
</a>
</g>
</g>
<!-- Node17&#45;&gt;Node1 -->
<g id="edge16" class="edge">
<title>Node17&#45;&gt;Node1</title>
<path fill="none" stroke="#404040" d="M1646.5,-297.93C1637.06,-275.97 1620.71,-246.29 1596.5,-230 1497.95,-163.69 1150.71,-127.38 986.62,-113.58"/>
<polygon fill="none" stroke="#404040" points="986.14,-113.54 979.83,-117.03 974.18,-112.55 980.49,-109.06 986.14,-113.54"/>
<text text-anchor="middle" x="1698.5" y="-249.5" font-family="Helvetica,sans-Serif" font-size="10.00"> &#45;face_quadrature_formula</text>
</g>
</g>
</svg>
