<?xml version="1.0" encoding="UTF-8" standalone="no"?>
<!DOCTYPE svg PUBLIC "-//W3C//DTD SVG 1.1//EN"
 "http://www.w3.org/Graphics/SVG/1.1/DTD/svg11.dtd">
<!-- Generated by graphviz version 2.40.1 (20161225.0304)
 -->
<!-- Title: River::AreaConstraint Pages: 1 -->
<svg width="184pt" height="193pt"
 viewBox="0.00 0.00 184.00 193.00" xmlns="http://www.w3.org/2000/svg" xmlns:xlink="http://www.w3.org/1999/xlink">
<g id="graph0" class="graph" transform="scale(1 1) rotate(0) translate(4 189)">
<title>River::AreaConstraint</title>
<polygon fill="#ffffff" stroke="transparent" points="-4,4 -4,-189 180,-189 180,4 -4,4"/>
<!-- Node1 -->
<g id="node1" class="node">
<title>Node1</title>
<polygon fill="#bfbfbf" stroke="#000000" points="15,-.5 15,-57.5 126,-57.5 126,-.5 15,-.5"/>
<text text-anchor="middle" x="70.5" y="-45.5" font-family="Helvetica,sans-Serif" font-size="10.00" fill="#000000">River::AreaConstraint</text>
<polyline fill="none" stroke="#000000" points="15,-38.5 126,-38.5 "/>
<text text-anchor="middle" x="70.5" y="-26.5" font-family="Helvetica,sans-Serif" font-size="10.00" fill="#000000"> </text>
<polyline fill="none" stroke="#000000" points="15,-19.5 126,-19.5 "/>
<text text-anchor="start" x="23" y="-7.5" font-family="Helvetica,sans-Serif" font-size="10.00" fill="#000000">+ operator()()</text>
</g>
<!-- Node2 -->
<g id="node2" class="node">
<title>Node2</title>
<polygon fill="#ffffff" stroke="#bfbfbf" points="0,-127.5 0,-184.5 45,-184.5 45,-127.5 0,-127.5"/>
<text text-anchor="middle" x="22.5" y="-172.5" font-family="Helvetica,sans-Serif" font-size="10.00" fill="#000000">double</text>
<polyline fill="none" stroke="#bfbfbf" points="0,-165.5 45,-165.5 "/>
<text text-anchor="middle" x="22.5" y="-153.5" font-family="Helvetica,sans-Serif" font-size="10.00" fill="#000000"> </text>
<polyline fill="none" stroke="#bfbfbf" points="0,-146.5 45,-146.5 "/>
<text text-anchor="middle" x="22.5" y="-134.5" font-family="Helvetica,sans-Serif" font-size="10.00" fill="#000000"> </text>
</g>
<!-- Node2&#45;&gt;Node1 -->
<g id="edge1" class="edge">
<title>Node2&#45;&gt;Node1</title>
<path fill="none" stroke="#404040" d="M30.9201,-127.1865C35.644,-111.8286 41.9038,-92.708 48.5,-76 49.4305,-73.6431 50.422,-71.2368 51.45,-68.8204"/>
<polygon fill="none" stroke="#404040" points="51.5673,-68.5561 50.344,-61.4495 56.4335,-57.5871 57.6567,-64.6937 51.5673,-68.5561"/>
<text text-anchor="middle" x="73" y="-101" font-family="Helvetica,sans-Serif" font-size="10.00" fill="#000000"> +min_area</text>
<text text-anchor="middle" x="73" y="-90" font-family="Helvetica,sans-Serif" font-size="10.00" fill="#000000">+exponant</text>
<text text-anchor="middle" x="73" y="-79" font-family="Helvetica,sans-Serif" font-size="10.00" fill="#000000">+r0</text>
</g>
<!-- Node3 -->
<g id="node3" class="node">
<title>Node3</title>
<polygon fill="#ffffff" stroke="#bfbfbf" points="63,-127.5 63,-184.5 176,-184.5 176,-127.5 63,-127.5"/>
<text text-anchor="middle" x="119.5" y="-172.5" font-family="Helvetica,sans-Serif" font-size="10.00" fill="#000000">vector&lt; River::Point &gt;</text>
<polyline fill="none" stroke="#bfbfbf" points="63,-165.5 176,-165.5 "/>
<text text-anchor="middle" x="119.5" y="-153.5" font-family="Helvetica,sans-Serif" font-size="10.00" fill="#000000"> </text>
<polyline fill="none" stroke="#bfbfbf" points="63,-146.5 176,-146.5 "/>
<text text-anchor="middle" x="119.5" y="-134.5" font-family="Helvetica,sans-Serif" font-size="10.00" fill="#000000"> </text>
</g>
<!-- Node3&#45;&gt;Node1 -->
<g id="edge2" class="edge">
<title>Node3&#45;&gt;Node1</title>
<path fill="none" stroke="#404040" d="M113.4654,-127.2756C109.748,-111.7716 104.3716,-92.4869 97.5,-76 96.4705,-73.5299 95.3365,-71.0286 94.134,-68.5336"/>
<polygon fill="none" stroke="#404040" points="94.0647,-68.4001 87.7497,-64.9186 88.5344,-57.7504 94.8495,-61.2318 94.0647,-68.4001"/>
<text text-anchor="middle" x="134.5" y="-90" font-family="Helvetica,sans-Serif" font-size="10.00" fill="#000000"> +tip_points</text>
</g>
</g>
</svg>
