<?xml version="1.0" encoding="UTF-8" standalone="no"?>
<!DOCTYPE svg PUBLIC "-//W3C//DTD SVG 1.1//EN"
 "http://www.w3.org/Graphics/SVG/1.1/DTD/svg11.dtd">
<!-- Generated by graphviz version 2.40.1 (20161225.0304)
 -->
<!-- Title: tethex::Mesh::get_n_points Pages: 1 -->
<svg width="527pt" height="154pt"
 viewBox="0.00 0.00 527.00 154.00" xmlns="http://www.w3.org/2000/svg" xmlns:xlink="http://www.w3.org/1999/xlink">
<g id="graph0" class="graph" transform="scale(1 1) rotate(0) translate(4 150)">
<title>tethex::Mesh::get_n_points</title>
<polygon fill="#ffffff" stroke="transparent" points="-4,4 -4,-150 523,-150 523,4 -4,4"/>
<!-- Node87 -->
<g id="node1" class="node">
<title>Node87</title>
<polygon fill="#bfbfbf" stroke="#000000" points="0,-33 0,-63 104,-63 104,-33 0,-33"/>
<text text-anchor="start" x="8" y="-51" font-family="Helvetica,sans-Serif" font-size="10.00" fill="#000000">tethex::Mesh::get_n</text>
<text text-anchor="middle" x="52" y="-40" font-family="Helvetica,sans-Serif" font-size="10.00" fill="#000000">_points</text>
</g>
<!-- Node88 -->
<g id="node2" class="node">
<title>Node88</title>
<g id="a_node2"><a xlink:href="classRiver_1_1Border.html#acf71aa49ddf1244f1aba474fe0457eba" target="_top" xlink:title="Return source poinst indexes(each source consist of two points at distance eps). ">
<polygon fill="#ffffff" stroke="#000000" points="140,-77 140,-107 267,-107 267,-77 140,-77"/>
<text text-anchor="start" x="148" y="-95" font-family="Helvetica,sans-Serif" font-size="10.00" fill="#000000">River::Border::GetSource</text>
<text text-anchor="middle" x="203.5" y="-84" font-family="Helvetica,sans-Serif" font-size="10.00" fill="#000000">VerticesIndexById</text>
</a>
</g>
</g>
<!-- Node87&#45;&gt;Node88 -->
<g id="edge1" class="edge">
<title>Node87&#45;&gt;Node88</title>
<path fill="none" stroke="#191970" d="M113.3292,-65.8118C126.0801,-69.515 139.3971,-73.3827 151.762,-76.9738"/>
<polygon fill="#191970" stroke="#191970" points="114.2934,-62.4472 103.714,-63.0192 112.341,-69.1695 114.2934,-62.4472"/>
</g>
<!-- Node93 -->
<g id="node7" class="node">
<title>Node93</title>
<g id="a_node7"><a xlink:href="classtethex_1_1Mesh.html#af7abffd9bc4bd64eb2f4cdd4aaf7fbe3" target="_top" xlink:title="tethex::Mesh::Mesh">
<polygon fill="#ffffff" stroke="#000000" points="151.5,-38.5 151.5,-57.5 255.5,-57.5 255.5,-38.5 151.5,-38.5"/>
<text text-anchor="middle" x="203.5" y="-45.5" font-family="Helvetica,sans-Serif" font-size="10.00" fill="#000000">tethex::Mesh::Mesh</text>
</a>
</g>
</g>
<!-- Node87&#45;&gt;Node93 -->
<g id="edge6" class="edge">
<title>Node87&#45;&gt;Node93</title>
<path fill="none" stroke="#191970" d="M114.3097,-48C126.5908,-48 139.3588,-48 151.2662,-48"/>
<polygon fill="#191970" stroke="#191970" points="114.1377,-44.5001 104.1377,-48 114.1377,-51.5001 114.1377,-44.5001"/>
</g>
<!-- Node94 -->
<g id="node8" class="node">
<title>Node94</title>
<g id="a_node8"><a xlink:href="classtethex_1_1Mesh.html#af992d5d2e64047656766e4afcbc95b8b" target="_top" xlink:title="tethex::Mesh::operator=">
<polygon fill="#ffffff" stroke="#000000" points="143,-.5 143,-19.5 264,-19.5 264,-.5 143,-.5"/>
<text text-anchor="middle" x="203.5" y="-7.5" font-family="Helvetica,sans-Serif" font-size="10.00" fill="#000000">tethex::Mesh::operator=</text>
</a>
</g>
</g>
<!-- Node87&#45;&gt;Node94 -->
<g id="edge7" class="edge">
<title>Node87&#45;&gt;Node94</title>
<path fill="none" stroke="#191970" d="M114.2518,-32.3857C131.6722,-28.0162 150.0768,-23.3999 165.6183,-19.5017"/>
<polygon fill="#191970" stroke="#191970" points="112.9857,-29.0948 104.1377,-34.9226 114.6888,-35.8844 112.9857,-29.0948"/>
</g>
<!-- Node89 -->
<g id="node3" class="node">
<title>Node89</title>
<g id="a_node3"><a xlink:href="classRiver_1_1Border.html#a08df0eb89a5692e84d6b3fe5fe5bec37" target="_top" xlink:title="Add border line to each source points. ">
<polygon fill="#ffffff" stroke="#000000" points="303,-126.5 303,-145.5 445,-145.5 445,-126.5 303,-126.5"/>
<text text-anchor="middle" x="374" y="-133.5" font-family="Helvetica,sans-Serif" font-size="10.00" fill="#000000">River::Border::CloseSources</text>
</a>
</g>
</g>
<!-- Node88&#45;&gt;Node89 -->
<g id="edge2" class="edge">
<title>Node88&#45;&gt;Node89</title>
<path fill="none" stroke="#191970" d="M271.5132,-109.5518C293.9116,-115.332 317.9666,-121.5398 337.1394,-126.4876"/>
<polygon fill="#191970" stroke="#191970" points="272.2569,-106.1291 261.6996,-107.0192 270.5077,-112.9071 272.2569,-106.1291"/>
</g>
<!-- Node90 -->
<g id="node4" class="node">
<title>Node90</title>
<g id="a_node4"><a xlink:href="classRiver_1_1Border.html#ad884663725156885e8e5def07a2e49c1" target="_top" xlink:title="Return normal line angle to boundary at point where is located source with source_id ...">
<polygon fill="#ffffff" stroke="#000000" points="310.5,-77 310.5,-107 437.5,-107 437.5,-77 310.5,-77"/>
<text text-anchor="start" x="318.5" y="-95" font-family="Helvetica,sans-Serif" font-size="10.00" fill="#000000">River::Border::GetSource</text>
<text text-anchor="middle" x="374" y="-84" font-family="Helvetica,sans-Serif" font-size="10.00" fill="#000000">NormalAngle</text>
</a>
</g>
</g>
<!-- Node88&#45;&gt;Node90 -->
<g id="edge3" class="edge">
<title>Node88&#45;&gt;Node90</title>
<path fill="none" stroke="#191970" d="M277.7542,-92C288.5787,-92 299.6438,-92 310.2355,-92"/>
<polygon fill="#191970" stroke="#191970" points="277.473,-88.5001 267.473,-92 277.473,-95.5001 277.473,-88.5001"/>
</g>
<!-- Node91 -->
<g id="node5" class="node">
<title>Node91</title>
<g id="a_node5"><a xlink:href="namespaceRiver.html#aa226e8aa15b4b21c82a2ea177e1faee6" target="_top" xlink:title="Finnal Boudary Geneartor Class. ">
<polygon fill="#ffffff" stroke="#000000" points="309,-38.5 309,-57.5 439,-57.5 439,-38.5 309,-38.5"/>
<text text-anchor="middle" x="374" y="-45.5" font-family="Helvetica,sans-Serif" font-size="10.00" fill="#000000">River::BoundaryGenerator</text>
</a>
</g>
</g>
<!-- Node88&#45;&gt;Node91 -->
<g id="edge4" class="edge">
<title>Node88&#45;&gt;Node91</title>
<path fill="none" stroke="#191970" d="M271.5132,-74.4482C293.9116,-68.668 317.9666,-62.4602 337.1394,-57.5124"/>
<polygon fill="#191970" stroke="#191970" points="270.5077,-71.0929 261.6996,-76.9808 272.2569,-77.8709 270.5077,-71.0929"/>
</g>
<!-- Node92 -->
<g id="node6" class="node">
<title>Node92</title>
<g id="a_node6"><a xlink:href="main_8cpp.html#a0ddf1224851353fc92bfbff6f499fa97" target="_top" xlink:title="Entry point of RiverSim program. ">
<polygon fill="#ffffff" stroke="#000000" points="481,-38.5 481,-57.5 519,-57.5 519,-38.5 481,-38.5"/>
<text text-anchor="middle" x="500" y="-45.5" font-family="Helvetica,sans-Serif" font-size="10.00" fill="#000000">main</text>
</a>
</g>
</g>
<!-- Node91&#45;&gt;Node92 -->
<g id="edge5" class="edge">
<title>Node91&#45;&gt;Node92</title>
<path fill="none" stroke="#191970" d="M449.5129,-48C461.1067,-48 472.1114,-48 480.8697,-48"/>
<polygon fill="#191970" stroke="#191970" points="449.2145,-44.5001 439.2144,-48 449.2144,-51.5001 449.2145,-44.5001"/>
</g>
</g>
</svg>
