<?xml version="1.0" encoding="UTF-8" standalone="no"?>
<!DOCTYPE svg PUBLIC "-//W3C//DTD SVG 1.1//EN"
 "http://www.w3.org/Graphics/SVG/1.1/DTD/svg11.dtd">
<!-- Generated by graphviz version 2.40.1 (20161225.0304)
 -->
<!-- Title: River::Triangle Pages: 1 -->
<svg width="615pt" height="826pt"
 viewBox="0.00 0.00 614.50 826.00" xmlns="http://www.w3.org/2000/svg" xmlns:xlink="http://www.w3.org/1999/xlink">
<g id="graph0" class="graph" transform="scale(1 1) rotate(0) translate(4 822)">
<title>River::Triangle</title>
<polygon fill="#ffffff" stroke="transparent" points="-4,4 -4,-822 610.5,-822 610.5,4 -4,4"/>
<!-- Node1 -->
<g id="node1" class="node">
<title>Node1</title>
<polygon fill="#bfbfbf" stroke="#000000" points="144,-.5 144,-332.5 295,-332.5 295,-.5 144,-.5"/>
<text text-anchor="middle" x="219.5" y="-320.5" font-family="Helvetica,sans-Serif" font-size="10.00" fill="#000000">River::Triangle</text>
<polyline fill="none" stroke="#000000" points="144,-313.5 295,-313.5 "/>
<text text-anchor="start" x="152" y="-301.5" font-family="Helvetica,sans-Serif" font-size="10.00" fill="#000000">+ Refine</text>
<text text-anchor="start" x="152" y="-290.5" font-family="Helvetica,sans-Serif" font-size="10.00" fill="#000000">+ EncloseConvexHull</text>
<text text-anchor="start" x="152" y="-279.5" font-family="Helvetica,sans-Serif" font-size="10.00" fill="#000000">+ AssignRegionalAttributes</text>
<text text-anchor="start" x="152" y="-268.5" font-family="Helvetica,sans-Serif" font-size="10.00" fill="#000000">+ Quite</text>
<text text-anchor="start" x="152" y="-257.5" font-family="Helvetica,sans-Serif" font-size="10.00" fill="#000000">&#45; ReadPSLG</text>
<text text-anchor="start" x="152" y="-246.5" font-family="Helvetica,sans-Serif" font-size="10.00" fill="#000000">&#45; SuppressNodeFile</text>
<text text-anchor="start" x="152" y="-235.5" font-family="Helvetica,sans-Serif" font-size="10.00" fill="#000000">&#45; OutputEdges</text>
<text text-anchor="start" x="152" y="-224.5" font-family="Helvetica,sans-Serif" font-size="10.00" fill="#000000">&#45; ComputeNeighbours</text>
<text text-anchor="start" x="152" y="-213.5" font-family="Helvetica,sans-Serif" font-size="10.00" fill="#000000">&#45; SuppressMehsFileNumbering</text>
<text text-anchor="start" x="152" y="-202.5" font-family="Helvetica,sans-Serif" font-size="10.00" fill="#000000">&#45; SuppressHoles</text>
<text text-anchor="start" x="152" y="-191.5" font-family="Helvetica,sans-Serif" font-size="10.00" fill="#000000">&#45; SuppressExactArithmetics</text>
<text text-anchor="start" x="152" y="-180.5" font-family="Helvetica,sans-Serif" font-size="10.00" fill="#000000">&#45; SteinerPointsOnBoundary</text>
<text text-anchor="start" x="152" y="-169.5" font-family="Helvetica,sans-Serif" font-size="10.00" fill="#000000">&#45; VoronoiDiagram</text>
<polyline fill="none" stroke="#000000" points="144,-162.5 295,-162.5 "/>
<text text-anchor="start" x="152" y="-150.5" font-family="Helvetica,sans-Serif" font-size="10.00" fill="#000000">+ print_geometry()</text>
<text text-anchor="start" x="152" y="-139.5" font-family="Helvetica,sans-Serif" font-size="10.00" fill="#000000">+ Triangle()</text>
<text text-anchor="start" x="152" y="-128.5" font-family="Helvetica,sans-Serif" font-size="10.00" fill="#000000">+ ~Triangle()</text>
<text text-anchor="start" x="152" y="-117.5" font-family="Helvetica,sans-Serif" font-size="10.00" fill="#000000">+ generate()</text>
<text text-anchor="start" x="152" y="-106.5" font-family="Helvetica,sans-Serif" font-size="10.00" fill="#000000">&#45; set_all_values_to_default()</text>
<text text-anchor="start" x="152" y="-95.5" font-family="Helvetica,sans-Serif" font-size="10.00" fill="#000000">&#45; free_allocated_memory()</text>
<text text-anchor="start" x="152" y="-84.5" font-family="Helvetica,sans-Serif" font-size="10.00" fill="#000000">&#45; allocate_memory()</text>
<text text-anchor="start" x="152" y="-73.5" font-family="Helvetica,sans-Serif" font-size="10.00" fill="#000000">&#45; update_options()</text>
<text text-anchor="start" x="152" y="-62.5" font-family="Helvetica,sans-Serif" font-size="10.00" fill="#000000">&#45; print_options()</text>
<text text-anchor="start" x="152" y="-51.5" font-family="Helvetica,sans-Serif" font-size="10.00" fill="#000000">&#45; set_geometry()</text>
<text text-anchor="start" x="152" y="-40.5" font-family="Helvetica,sans-Serif" font-size="10.00" fill="#000000">&#45; get_geometry()</text>
<text text-anchor="start" x="152" y="-29.5" font-family="Helvetica,sans-Serif" font-size="10.00" fill="#000000">&#45; get_voronoi()</text>
<text text-anchor="start" x="152" y="-18.5" font-family="Helvetica,sans-Serif" font-size="10.00" fill="#000000">&#45; tethex_to_io()</text>
<text text-anchor="start" x="152" y="-7.5" font-family="Helvetica,sans-Serif" font-size="10.00" fill="#000000">&#45; io_to_tethex()</text>
</g>
<!-- Node2 -->
<g id="node2" class="node">
<title>Node2</title>
<polygon fill="#ffffff" stroke="#bfbfbf" points="0,-518 0,-575 45,-575 45,-518 0,-518"/>
<text text-anchor="middle" x="22.5" y="-563" font-family="Helvetica,sans-Serif" font-size="10.00" fill="#000000">double</text>
<polyline fill="none" stroke="#bfbfbf" points="0,-556 45,-556 "/>
<text text-anchor="middle" x="22.5" y="-544" font-family="Helvetica,sans-Serif" font-size="10.00" fill="#000000"> </text>
<polyline fill="none" stroke="#bfbfbf" points="0,-537 45,-537 "/>
<text text-anchor="middle" x="22.5" y="-525" font-family="Helvetica,sans-Serif" font-size="10.00" fill="#000000"> </text>
</g>
<!-- Node2&#45;&gt;Node1 -->
<g id="edge1" class="edge">
<title>Node2&#45;&gt;Node1</title>
<path fill="none" stroke="#404040" d="M17.9423,-517.8143C13.0029,-478.3233 8.8096,-405.8715 33.5,-351 55.4372,-302.2472 96.44,-259.369 134.3766,-227.2483"/>
<polygon fill="none" stroke="#404040" points="134.7045,-226.9764 136.77,-220.0675 143.942,-219.3168 141.8764,-226.2258 134.7045,-226.9764"/>
<text text-anchor="middle" x="66" y="-414.5" font-family="Helvetica,sans-Serif" font-size="10.00" fill="#000000"> +MaxTriaArea</text>
<text text-anchor="middle" x="66" y="-403.5" font-family="Helvetica,sans-Serif" font-size="10.00" fill="#000000">+MinAngle</text>
</g>
<!-- Node3 -->
<g id="node3" class="node">
<title>Node3</title>
<polygon fill="#ffffff" stroke="#bfbfbf" points="88,-518 88,-575 129,-575 129,-518 88,-518"/>
<text text-anchor="middle" x="108.5" y="-563" font-family="Helvetica,sans-Serif" font-size="10.00" fill="#000000">string</text>
<polyline fill="none" stroke="#bfbfbf" points="88,-556 129,-556 "/>
<text text-anchor="middle" x="108.5" y="-544" font-family="Helvetica,sans-Serif" font-size="10.00" fill="#000000"> </text>
<polyline fill="none" stroke="#bfbfbf" points="88,-537 129,-537 "/>
<text text-anchor="middle" x="108.5" y="-525" font-family="Helvetica,sans-Serif" font-size="10.00" fill="#000000"> </text>
</g>
<!-- Node3&#45;&gt;Node1 -->
<g id="edge2" class="edge">
<title>Node3&#45;&gt;Node1</title>
<path fill="none" stroke="#404040" d="M104.8976,-517.6825C101.0274,-478.9609 97.4043,-408.3708 113.5,-351 119.3999,-329.9707 128.2285,-308.8139 138.3185,-288.7101"/>
<polygon fill="none" stroke="#404040" points="138.3561,-288.6373 137.5611,-281.4701 143.8712,-277.9797 144.6662,-285.1468 138.3561,-288.6373"/>
<text text-anchor="middle" x="132.5" y="-409" font-family="Helvetica,sans-Serif" font-size="10.00" fill="#000000"> &#45;options</text>
</g>
<!-- Node4 -->
<g id="node4" class="node">
<title>Node4</title>
<g id="a_node4"><a xlink:href="structtriangulateio.html" target="_top" xlink:title="Used to pass data into and out of the triangulate() procedure. ">
<polygon fill="#ffffff" stroke="#000000" points="295.5,-490.5 295.5,-602.5 433.5,-602.5 433.5,-490.5 295.5,-490.5"/>
<text text-anchor="middle" x="364.5" y="-590.5" font-family="Helvetica,sans-Serif" font-size="10.00" fill="#000000">triangulateio</text>
<polyline fill="none" stroke="#000000" points="295.5,-583.5 433.5,-583.5 "/>
<text text-anchor="start" x="303.5" y="-571.5" font-family="Helvetica,sans-Serif" font-size="10.00" fill="#000000">+ numberofpoints</text>
<text text-anchor="start" x="303.5" y="-560.5" font-family="Helvetica,sans-Serif" font-size="10.00" fill="#000000">+ numberoftriangles</text>
<text text-anchor="start" x="303.5" y="-549.5" font-family="Helvetica,sans-Serif" font-size="10.00" fill="#000000">+ numberofcorners</text>
<text text-anchor="start" x="303.5" y="-538.5" font-family="Helvetica,sans-Serif" font-size="10.00" fill="#000000">+ numberoftriangleattributes</text>
<text text-anchor="start" x="303.5" y="-527.5" font-family="Helvetica,sans-Serif" font-size="10.00" fill="#000000">+ edgelist</text>
<text text-anchor="start" x="303.5" y="-516.5" font-family="Helvetica,sans-Serif" font-size="10.00" fill="#000000">+ edgemarkerlist</text>
<polyline fill="none" stroke="#000000" points="295.5,-509.5 433.5,-509.5 "/>
<text text-anchor="middle" x="364.5" y="-497.5" font-family="Helvetica,sans-Serif" font-size="10.00" fill="#000000"> </text>
</a>
</g>
</g>
<!-- Node4&#45;&gt;Node1 -->
<g id="edge3" class="edge">
<title>Node4&#45;&gt;Node1</title>
<path fill="none" stroke="#404040" d="M343.1048,-490.4297C328.2116,-451.3994 307.4645,-397.0276 287.217,-343.9653"/>
<polygon fill="none" stroke="#404040" points="287.1844,-343.8797 281.3082,-339.7 282.9063,-332.6682 288.7825,-336.8479 287.1844,-343.8797"/>
<text text-anchor="middle" x="349.5" y="-409" font-family="Helvetica,sans-Serif" font-size="10.00" fill="#000000"> &#45;vorout</text>
</g>
<!-- Node5 -->
<g id="node5" class="node">
<title>Node5</title>
<polygon fill="#ffffff" stroke="#bfbfbf" points="168,-760.5 168,-817.5 197,-817.5 197,-760.5 168,-760.5"/>
<text text-anchor="middle" x="182.5" y="-805.5" font-family="Helvetica,sans-Serif" font-size="10.00" fill="#000000">int</text>
<polyline fill="none" stroke="#bfbfbf" points="168,-798.5 197,-798.5 "/>
<text text-anchor="middle" x="182.5" y="-786.5" font-family="Helvetica,sans-Serif" font-size="10.00" fill="#000000"> </text>
<polyline fill="none" stroke="#bfbfbf" points="168,-779.5 197,-779.5 "/>
<text text-anchor="middle" x="182.5" y="-767.5" font-family="Helvetica,sans-Serif" font-size="10.00" fill="#000000"> </text>
</g>
<!-- Node5&#45;&gt;Node1 -->
<g id="edge6" class="edge">
<title>Node5&#45;&gt;Node1</title>
<path fill="none" stroke="#404040" d="M180.8843,-760.3349C178.914,-723.815 175.6982,-658.7417 174.5,-603 173.4207,-552.7894 171.032,-540.1023 174.5,-490 177.7758,-442.6746 183.7164,-391.7322 190.2302,-344.5909"/>
<polygon fill="none" stroke="#404040" points="190.2322,-344.5762 187.1035,-338.0792 191.8974,-332.6923 195.0261,-339.1893 190.2322,-344.5762"/>
<text text-anchor="middle" x="230.5" y="-549.5" font-family="Helvetica,sans-Serif" font-size="10.00" fill="#000000"> &#45;dim</text>
<text text-anchor="middle" x="230.5" y="-538.5" font-family="Helvetica,sans-Serif" font-size="10.00" fill="#000000">&#45;MaxNumOfSteinerPoints</text>
</g>
<!-- Node5&#45;&gt;Node4 -->
<g id="edge4" class="edge">
<title>Node5&#45;&gt;Node4</title>
<path fill="none" stroke="#404040" d="M188.4175,-760.2042C197.0418,-724.1862 216.0445,-662.2463 251.5,-621 261.636,-609.2085 268.4011,-611.3783 281.5,-603 282.6381,-602.2721 283.7833,-601.5364 284.9342,-600.7942"/>
<polygon fill="none" stroke="#404040" points="285.3534,-600.521 288.1952,-593.8934 295.4059,-593.9675 292.5642,-600.5951 285.3534,-600.521"/>
<text text-anchor="middle" x="306" y="-734" font-family="Helvetica,sans-Serif" font-size="10.00" fill="#000000"> +numberofsegments</text>
<text text-anchor="middle" x="306" y="-723" font-family="Helvetica,sans-Serif" font-size="10.00" fill="#000000">+segmentmarkerlist</text>
<text text-anchor="middle" x="306" y="-712" font-family="Helvetica,sans-Serif" font-size="10.00" fill="#000000">+numberofedges</text>
<text text-anchor="middle" x="306" y="-701" font-family="Helvetica,sans-Serif" font-size="10.00" fill="#000000">+segmentlist</text>
<text text-anchor="middle" x="306" y="-690" font-family="Helvetica,sans-Serif" font-size="10.00" fill="#000000">+pointmarkerlist</text>
<text text-anchor="middle" x="306" y="-679" font-family="Helvetica,sans-Serif" font-size="10.00" fill="#000000">+numberofpointattributes</text>
<text text-anchor="middle" x="306" y="-668" font-family="Helvetica,sans-Serif" font-size="10.00" fill="#000000">+trianglelist</text>
<text text-anchor="middle" x="306" y="-657" font-family="Helvetica,sans-Serif" font-size="10.00" fill="#000000">+numberofholes</text>
<text text-anchor="middle" x="306" y="-646" font-family="Helvetica,sans-Serif" font-size="10.00" fill="#000000">+neighborlist</text>
<text text-anchor="middle" x="306" y="-635" font-family="Helvetica,sans-Serif" font-size="10.00" fill="#000000">+numberofregions</text>
<text text-anchor="middle" x="306" y="-624" font-family="Helvetica,sans-Serif" font-size="10.00" fill="#000000">...</text>
</g>
<!-- Node6 -->
<g id="node6" class="node">
<title>Node6</title>
<polygon fill="#ffffff" stroke="#bfbfbf" points="343,-760.5 343,-817.5 386,-817.5 386,-760.5 343,-760.5"/>
<text text-anchor="middle" x="364.5" y="-805.5" font-family="Helvetica,sans-Serif" font-size="10.00" fill="#000000">REAL</text>
<polyline fill="none" stroke="#bfbfbf" points="343,-798.5 386,-798.5 "/>
<text text-anchor="middle" x="364.5" y="-786.5" font-family="Helvetica,sans-Serif" font-size="10.00" fill="#000000"> </text>
<polyline fill="none" stroke="#bfbfbf" points="343,-779.5 386,-779.5 "/>
<text text-anchor="middle" x="364.5" y="-767.5" font-family="Helvetica,sans-Serif" font-size="10.00" fill="#000000"> </text>
</g>
<!-- Node6&#45;&gt;Node4 -->
<g id="edge5" class="edge">
<title>Node6&#45;&gt;Node4</title>
<path fill="none" stroke="#404040" d="M364.5,-760.2298C364.5,-724.6823 364.5,-663.0253 364.5,-615.0424"/>
<polygon fill="none" stroke="#404040" points="364.5001,-614.8489 360.5,-608.8489 364.5,-602.8489 368.5,-608.8488 364.5001,-614.8489"/>
<text text-anchor="middle" x="407.5" y="-712" font-family="Helvetica,sans-Serif" font-size="10.00" fill="#000000"> +regionlist</text>
<text text-anchor="middle" x="407.5" y="-701" font-family="Helvetica,sans-Serif" font-size="10.00" fill="#000000">+pointattributelist</text>
<text text-anchor="middle" x="407.5" y="-690" font-family="Helvetica,sans-Serif" font-size="10.00" fill="#000000">+pointlist</text>
<text text-anchor="middle" x="407.5" y="-679" font-family="Helvetica,sans-Serif" font-size="10.00" fill="#000000">+trianglearealist</text>
<text text-anchor="middle" x="407.5" y="-668" font-family="Helvetica,sans-Serif" font-size="10.00" fill="#000000">+normlist</text>
<text text-anchor="middle" x="407.5" y="-657" font-family="Helvetica,sans-Serif" font-size="10.00" fill="#000000">+triangleattributelist</text>
<text text-anchor="middle" x="407.5" y="-646" font-family="Helvetica,sans-Serif" font-size="10.00" fill="#000000">+holelist</text>
</g>
<!-- Node7 -->
<g id="node7" class="node">
<title>Node7</title>
<polygon fill="#ffffff" stroke="#bfbfbf" points="452,-518 452,-575 487,-575 487,-518 452,-518"/>
<text text-anchor="middle" x="469.5" y="-563" font-family="Helvetica,sans-Serif" font-size="10.00" fill="#000000">bool</text>
<polyline fill="none" stroke="#bfbfbf" points="452,-556 487,-556 "/>
<text text-anchor="middle" x="469.5" y="-544" font-family="Helvetica,sans-Serif" font-size="10.00" fill="#000000"> </text>
<polyline fill="none" stroke="#bfbfbf" points="452,-537 487,-537 "/>
<text text-anchor="middle" x="469.5" y="-525" font-family="Helvetica,sans-Serif" font-size="10.00" fill="#000000"> </text>
</g>
<!-- Node7&#45;&gt;Node1 -->
<g id="edge7" class="edge">
<title>Node7&#45;&gt;Node1</title>
<path fill="none" stroke="#404040" d="M460.128,-517.7682C455.9048,-508.0734 450.1184,-497.7556 442.5,-490 429.9643,-477.2385 417.999,-485.703 406.5,-472 370.4334,-429.0204 396.7832,-400.5706 370.5,-351 352.3916,-316.8473 327.3991,-283.0584 302.9553,-253.9131"/>
<polygon fill="none" stroke="#404040" points="302.8239,-253.7586 295.8893,-251.7809 295.0478,-244.619 301.9824,-246.5968 302.8239,-253.7586"/>
<text text-anchor="middle" x="467" y="-464" font-family="Helvetica,sans-Serif" font-size="10.00" fill="#000000"> +Verbose</text>
<text text-anchor="middle" x="467" y="-453" font-family="Helvetica,sans-Serif" font-size="10.00" fill="#000000">+DelaunayTriangles</text>
<text text-anchor="middle" x="467" y="-442" font-family="Helvetica,sans-Serif" font-size="10.00" fill="#000000">+CustomConstraint</text>
<text text-anchor="middle" x="467" y="-431" font-family="Helvetica,sans-Serif" font-size="10.00" fill="#000000">&#45;SteinerPointsOnSegments</text>
<text text-anchor="middle" x="467" y="-420" font-family="Helvetica,sans-Serif" font-size="10.00" fill="#000000">+CheckFinalMesh</text>
<text text-anchor="middle" x="467" y="-409" font-family="Helvetica,sans-Serif" font-size="10.00" fill="#000000">+AreaConstrain</text>
<text text-anchor="middle" x="467" y="-398" font-family="Helvetica,sans-Serif" font-size="10.00" fill="#000000">&#45;SuppressBoundaryMarkers</text>
<text text-anchor="middle" x="467" y="-387" font-family="Helvetica,sans-Serif" font-size="10.00" fill="#000000">&#45;SuppressEleFile</text>
<text text-anchor="middle" x="467" y="-376" font-family="Helvetica,sans-Serif" font-size="10.00" fill="#000000">&#45;SuppressPolyFile</text>
<text text-anchor="middle" x="467" y="-365" font-family="Helvetica,sans-Serif" font-size="10.00" fill="#000000">+ConstrainAngle</text>
<text text-anchor="middle" x="467" y="-354" font-family="Helvetica,sans-Serif" font-size="10.00" fill="#000000">...</text>
</g>
<!-- Node8 -->
<g id="node8" class="node">
<title>Node8</title>
<polygon fill="#ffffff" stroke="#bfbfbf" points="521.5,-518 521.5,-575 577.5,-575 577.5,-518 521.5,-518"/>
<text text-anchor="middle" x="549.5" y="-563" font-family="Helvetica,sans-Serif" font-size="10.00" fill="#000000">algorithm</text>
<polyline fill="none" stroke="#bfbfbf" points="521.5,-556 577.5,-556 "/>
<text text-anchor="middle" x="549.5" y="-544" font-family="Helvetica,sans-Serif" font-size="10.00" fill="#000000"> </text>
<polyline fill="none" stroke="#bfbfbf" points="521.5,-537 577.5,-537 "/>
<text text-anchor="middle" x="549.5" y="-525" font-family="Helvetica,sans-Serif" font-size="10.00" fill="#000000"> </text>
</g>
<!-- Node8&#45;&gt;Node1 -->
<g id="edge8" class="edge">
<title>Node8&#45;&gt;Node1</title>
<path fill="none" stroke="#404040" d="M553.7399,-517.6948C558.1647,-477.0942 560.4807,-402.2763 527.5,-351 476.5292,-271.7539 378.3634,-221.7652 306.5099,-194.1126"/>
<polygon fill="none" stroke="#404040" points="306.4471,-194.0891 299.4231,-195.7212 295.215,-189.8653 302.239,-188.2331 306.4471,-194.0891"/>
<text text-anchor="middle" x="581" y="-409" font-family="Helvetica,sans-Serif" font-size="10.00" fill="#000000"> +Algorithm</text>
</g>
</g>
</svg>
