<?xml version="1.0" encoding="UTF-8" standalone="no"?>
<!DOCTYPE svg PUBLIC "-//W3C//DTD SVG 1.1//EN"
 "http://www.w3.org/Graphics/SVG/1.1/DTD/svg11.dtd">
<!-- Generated by graphviz version 2.40.1 (20161225.0304)
 -->
<!-- Title: River::Border Pages: 1 -->
<svg width="627pt" height="617pt"
 viewBox="0.00 0.00 626.50 617.00" xmlns="http://www.w3.org/2000/svg" xmlns:xlink="http://www.w3.org/1999/xlink">
<g id="graph0" class="graph" transform="scale(1 1) rotate(0) translate(4 613)">
<title>River::Border</title>
<polygon fill="#ffffff" stroke="transparent" points="-4,4 -4,-613 622.5,-613 622.5,4 -4,4"/>
<!-- Node1 -->
<g id="node1" class="node">
<title>Node1</title>
<polygon fill="#bfbfbf" stroke="#000000" points="269.5,-.5 269.5,-244.5 425.5,-244.5 425.5,-.5 269.5,-.5"/>
<text text-anchor="middle" x="347.5" y="-232.5" font-family="Helvetica,sans-Serif" font-size="10.00" fill="#000000">River::Border</text>
<polyline fill="none" stroke="#000000" points="269.5,-225.5 425.5,-225.5 "/>
<text text-anchor="middle" x="347.5" y="-213.5" font-family="Helvetica,sans-Serif" font-size="10.00" fill="#000000"> </text>
<polyline fill="none" stroke="#000000" points="269.5,-206.5 425.5,-206.5 "/>
<text text-anchor="start" x="277.5" y="-194.5" font-family="Helvetica,sans-Serif" font-size="10.00" fill="#000000">+ Border()</text>
<text text-anchor="start" x="277.5" y="-183.5" font-family="Helvetica,sans-Serif" font-size="10.00" fill="#000000">+ MakeRectangular()</text>
<text text-anchor="start" x="277.5" y="-172.5" font-family="Helvetica,sans-Serif" font-size="10.00" fill="#000000">+ ReadFromFile()</text>
<text text-anchor="start" x="277.5" y="-161.5" font-family="Helvetica,sans-Serif" font-size="10.00" fill="#000000">+ CloseSources()</text>
<text text-anchor="start" x="277.5" y="-150.5" font-family="Helvetica,sans-Serif" font-size="10.00" fill="#000000">+ GetSourcesId()</text>
<text text-anchor="start" x="277.5" y="-139.5" font-family="Helvetica,sans-Serif" font-size="10.00" fill="#000000">+ GetSourcesPoint()</text>
<text text-anchor="start" x="277.5" y="-128.5" font-family="Helvetica,sans-Serif" font-size="10.00" fill="#000000">+ GetHolesId()</text>
<text text-anchor="start" x="277.5" y="-117.5" font-family="Helvetica,sans-Serif" font-size="10.00" fill="#000000">+ GetSourceNormalAngle()</text>
<text text-anchor="start" x="277.5" y="-106.5" font-family="Helvetica,sans-Serif" font-size="10.00" fill="#000000">+ GetSourcesNormalAngle()</text>
<text text-anchor="start" x="277.5" y="-95.5" font-family="Helvetica,sans-Serif" font-size="10.00" fill="#000000">* GetAdjacentPointId()</text>
<text text-anchor="start" x="277.5" y="-84.5" font-family="Helvetica,sans-Serif" font-size="10.00" fill="#000000">* GetSourceVerticesIndexById()</text>
<text text-anchor="start" x="277.5" y="-73.5" font-family="Helvetica,sans-Serif" font-size="10.00" fill="#000000">* IsHole()</text>
<text text-anchor="start" x="277.5" y="-62.5" font-family="Helvetica,sans-Serif" font-size="10.00" fill="#000000">* IsSource()</text>
<text text-anchor="start" x="277.5" y="-51.5" font-family="Helvetica,sans-Serif" font-size="10.00" fill="#000000">* GetSourcesId()</text>
<text text-anchor="start" x="277.5" y="-40.5" font-family="Helvetica,sans-Serif" font-size="10.00" fill="#000000">* GetSourcesPoint()</text>
<text text-anchor="start" x="277.5" y="-29.5" font-family="Helvetica,sans-Serif" font-size="10.00" fill="#000000">* GetHolesId()</text>
<text text-anchor="start" x="277.5" y="-18.5" font-family="Helvetica,sans-Serif" font-size="10.00" fill="#000000">* GetSourceNormalAngle()</text>
<text text-anchor="start" x="277.5" y="-7.5" font-family="Helvetica,sans-Serif" font-size="10.00" fill="#000000">* GetSourcesNormalAngle()</text>
</g>
<!-- Node2 -->
<g id="node2" class="node">
<title>Node2</title>
<polygon fill="#ffffff" stroke="#bfbfbf" points="244,-347.5 244,-404.5 289,-404.5 289,-347.5 244,-347.5"/>
<text text-anchor="middle" x="266.5" y="-392.5" font-family="Helvetica,sans-Serif" font-size="10.00" fill="#000000">double</text>
<polyline fill="none" stroke="#bfbfbf" points="244,-385.5 289,-385.5 "/>
<text text-anchor="middle" x="266.5" y="-373.5" font-family="Helvetica,sans-Serif" font-size="10.00" fill="#000000"> </text>
<polyline fill="none" stroke="#bfbfbf" points="244,-366.5 289,-366.5 "/>
<text text-anchor="middle" x="266.5" y="-354.5" font-family="Helvetica,sans-Serif" font-size="10.00" fill="#000000"> </text>
</g>
<!-- Node2&#45;&gt;Node1 -->
<g id="edge1" class="edge">
<title>Node2&#45;&gt;Node1</title>
<path fill="none" stroke="#404040" d="M275.6343,-347.4131C282.92,-324.6115 293.6951,-290.8893 304.6976,-256.4558"/>
<polygon fill="none" stroke="#404040" points="304.7804,-256.1964 302.7964,-249.2636 308.4328,-244.7658 310.4168,-251.6986 304.7804,-256.1964"/>
<text text-anchor="middle" x="315" y="-266" font-family="Helvetica,sans-Serif" font-size="10.00" fill="#000000"> +eps</text>
</g>
<!-- Node3 -->
<g id="node3" class="node">
<title>Node3</title>
<g id="a_node3"><a xlink:href="classtethex_1_1Mesh.html" target="_top" xlink:title="{tethex::Mesh\n||+ Mesh()\l+ Mesh()\l+ Mesh()\l+ operator=()\l+ Mesh()\l+ Mesh()\l+ ~Mesh()\l+ read()\l+ convert()\l+ write()\land 34 more...\l}">
<polygon fill="#ffffff" stroke="#000000" points="307.5,-292.5 307.5,-459.5 387.5,-459.5 387.5,-292.5 307.5,-292.5"/>
<text text-anchor="middle" x="347.5" y="-447.5" font-family="Helvetica,sans-Serif" font-size="10.00" fill="#000000">tethex::Mesh</text>
<polyline fill="none" stroke="#000000" points="307.5,-440.5 387.5,-440.5 "/>
<text text-anchor="middle" x="347.5" y="-428.5" font-family="Helvetica,sans-Serif" font-size="10.00" fill="#000000"> </text>
<polyline fill="none" stroke="#000000" points="307.5,-421.5 387.5,-421.5 "/>
<text text-anchor="start" x="315.5" y="-409.5" font-family="Helvetica,sans-Serif" font-size="10.00" fill="#000000">+ Mesh()</text>
<text text-anchor="start" x="315.5" y="-398.5" font-family="Helvetica,sans-Serif" font-size="10.00" fill="#000000">+ Mesh()</text>
<text text-anchor="start" x="315.5" y="-387.5" font-family="Helvetica,sans-Serif" font-size="10.00" fill="#000000">+ Mesh()</text>
<text text-anchor="start" x="315.5" y="-376.5" font-family="Helvetica,sans-Serif" font-size="10.00" fill="#000000">+ operator=()</text>
<text text-anchor="start" x="315.5" y="-365.5" font-family="Helvetica,sans-Serif" font-size="10.00" fill="#000000">+ Mesh()</text>
<text text-anchor="start" x="315.5" y="-354.5" font-family="Helvetica,sans-Serif" font-size="10.00" fill="#000000">+ Mesh()</text>
<text text-anchor="start" x="315.5" y="-343.5" font-family="Helvetica,sans-Serif" font-size="10.00" fill="#000000">+ ~Mesh()</text>
<text text-anchor="start" x="315.5" y="-332.5" font-family="Helvetica,sans-Serif" font-size="10.00" fill="#000000">+ read()</text>
<text text-anchor="start" x="315.5" y="-321.5" font-family="Helvetica,sans-Serif" font-size="10.00" fill="#000000">+ convert()</text>
<text text-anchor="start" x="315.5" y="-310.5" font-family="Helvetica,sans-Serif" font-size="10.00" fill="#000000">+ write()</text>
<text text-anchor="start" x="315.5" y="-299.5" font-family="Helvetica,sans-Serif" font-size="10.00" fill="#000000">and 34 more...</text>
</a>
</g>
</g>
<!-- Node3&#45;&gt;Node1 -->
<g id="edge2" class="edge">
<title>Node3&#45;&gt;Node1</title>
<path fill="none" stroke="#404040" d="M347.5,-292.2921C347.5,-280.8268 347.5,-268.8284 347.5,-256.7389"/>
<polygon fill="none" stroke="#404040" points="347.5001,-256.6353 343.5,-250.6353 347.5,-244.6353 351.5,-250.6353 347.5001,-256.6353"/>
<text text-anchor="middle" x="378" y="-266" font-family="Helvetica,sans-Serif" font-size="10.00" fill="#000000"> +borderMesh</text>
</g>
<!-- Node4 -->
<g id="node4" class="node">
<title>Node4</title>
<polygon fill="#ffffff" stroke="#bfbfbf" points="0,-551.5 0,-608.5 161,-608.5 161,-551.5 0,-551.5"/>
<text text-anchor="middle" x="80.5" y="-596.5" font-family="Helvetica,sans-Serif" font-size="10.00" fill="#000000">vector&lt; tethex::MeshElement * &gt;</text>
<polyline fill="none" stroke="#bfbfbf" points="0,-589.5 161,-589.5 "/>
<text text-anchor="middle" x="80.5" y="-577.5" font-family="Helvetica,sans-Serif" font-size="10.00" fill="#000000"> </text>
<polyline fill="none" stroke="#bfbfbf" points="0,-570.5 161,-570.5 "/>
<text text-anchor="middle" x="80.5" y="-558.5" font-family="Helvetica,sans-Serif" font-size="10.00" fill="#000000"> </text>
</g>
<!-- Node4&#45;&gt;Node3 -->
<g id="edge3" class="edge">
<title>Node4&#45;&gt;Node3</title>
<path fill="none" stroke="#404040" d="M98.7395,-551.1661C115.4176,-527.4137 142.3435,-494.9768 174.5,-478 223.358,-452.2058 251.5791,-490.7199 297.5,-460 297.6102,-459.9263 297.7202,-459.8522 297.83,-459.7778"/>
<polygon fill="none" stroke="#404040" points="298.1237,-459.5401 300.2711,-452.6561 307.4514,-451.9906 305.3041,-458.8746 298.1237,-459.5401"/>
<text text-anchor="middle" x="204" y="-525" font-family="Helvetica,sans-Serif" font-size="10.00" fill="#000000"> +points</text>
<text text-anchor="middle" x="204" y="-514" font-family="Helvetica,sans-Serif" font-size="10.00" fill="#000000">+triangles</text>
<text text-anchor="middle" x="204" y="-503" font-family="Helvetica,sans-Serif" font-size="10.00" fill="#000000">+edges</text>
<text text-anchor="middle" x="204" y="-492" font-family="Helvetica,sans-Serif" font-size="10.00" fill="#000000">+quadrangles</text>
<text text-anchor="middle" x="204" y="-481" font-family="Helvetica,sans-Serif" font-size="10.00" fill="#000000">+lines</text>
</g>
<!-- Node5 -->
<g id="node5" class="node">
<title>Node5</title>
<polygon fill="#ffffff" stroke="#bfbfbf" points="179,-551.5 179,-608.5 284,-608.5 284,-551.5 179,-551.5"/>
<text text-anchor="middle" x="231.5" y="-596.5" font-family="Helvetica,sans-Serif" font-size="10.00" fill="#000000">vector&lt; std::string &gt;</text>
<polyline fill="none" stroke="#bfbfbf" points="179,-589.5 284,-589.5 "/>
<text text-anchor="middle" x="231.5" y="-577.5" font-family="Helvetica,sans-Serif" font-size="10.00" fill="#000000"> </text>
<polyline fill="none" stroke="#bfbfbf" points="179,-570.5 284,-570.5 "/>
<text text-anchor="middle" x="231.5" y="-558.5" font-family="Helvetica,sans-Serif" font-size="10.00" fill="#000000"> </text>
</g>
<!-- Node5&#45;&gt;Node3 -->
<g id="edge4" class="edge">
<title>Node5&#45;&gt;Node3</title>
<path fill="none" stroke="#404040" d="M233.7794,-551.1363C236.8829,-528.9401 244.209,-498.6708 261.5,-478 272.9775,-464.279 284.3961,-472.1774 297.5,-460 298.0439,-459.4946 298.5838,-458.9819 299.1197,-458.4623"/>
<polygon fill="none" stroke="#404040" points="299.2752,-458.2951 300.4319,-451.1773 307.447,-449.5074 306.2903,-456.6252 299.2752,-458.2951"/>
<text text-anchor="middle" x="301.5" y="-503" font-family="Helvetica,sans-Serif" font-size="10.00" fill="#000000"> +physical_names</text>
</g>
<!-- Node6 -->
<g id="node6" class="node">
<title>Node6</title>
<polygon fill="#ffffff" stroke="#bfbfbf" points="302,-551.5 302,-608.5 419,-608.5 419,-551.5 302,-551.5"/>
<text text-anchor="middle" x="360.5" y="-596.5" font-family="Helvetica,sans-Serif" font-size="10.00" fill="#000000">vector&lt; tethex::Point &gt;</text>
<polyline fill="none" stroke="#bfbfbf" points="302,-589.5 419,-589.5 "/>
<text text-anchor="middle" x="360.5" y="-577.5" font-family="Helvetica,sans-Serif" font-size="10.00" fill="#000000"> </text>
<polyline fill="none" stroke="#bfbfbf" points="302,-570.5 419,-570.5 "/>
<text text-anchor="middle" x="360.5" y="-558.5" font-family="Helvetica,sans-Serif" font-size="10.00" fill="#000000"> </text>
</g>
<!-- Node6&#45;&gt;Node3 -->
<g id="edge5" class="edge">
<title>Node6&#45;&gt;Node3</title>
<path fill="none" stroke="#404040" d="M352.0149,-551.3822C350.5634,-545.3625 349.2751,-539.0137 348.5,-533 345.9634,-513.3186 344.7887,-492.134 344.4064,-471.8929"/>
<polygon fill="none" stroke="#404040" points="344.4051,-471.7689 340.3364,-465.8153 344.2671,-459.7697 348.3358,-465.7233 344.4051,-471.7689"/>
<text text-anchor="middle" x="370.5" y="-503" font-family="Helvetica,sans-Serif" font-size="10.00" fill="#000000"> +vertices</text>
</g>
<!-- Node7 -->
<g id="node7" class="node">
<title>Node7</title>
<polygon fill="#ffffff" stroke="#bfbfbf" points="480,-551.5 480,-608.5 509,-608.5 509,-551.5 480,-551.5"/>
<text text-anchor="middle" x="494.5" y="-596.5" font-family="Helvetica,sans-Serif" font-size="10.00" fill="#000000">int</text>
<polyline fill="none" stroke="#bfbfbf" points="480,-589.5 509,-589.5 "/>
<text text-anchor="middle" x="494.5" y="-577.5" font-family="Helvetica,sans-Serif" font-size="10.00" fill="#000000"> </text>
<polyline fill="none" stroke="#bfbfbf" points="480,-570.5 509,-570.5 "/>
<text text-anchor="middle" x="494.5" y="-558.5" font-family="Helvetica,sans-Serif" font-size="10.00" fill="#000000"> </text>
</g>
<!-- Node7&#45;&gt;Node1 -->
<g id="edge7" class="edge">
<title>Node7&#45;&gt;Node1</title>
<path fill="none" stroke="#404040" d="M509.1903,-568.6113C518.9878,-560.0275 531.0366,-547.313 536.5,-533 545.2172,-510.1627 542.4131,-501.7185 536.5,-478 515.9162,-395.434 472.1696,-311.0034 431.9444,-245.1525"/>
<polygon fill="none" stroke="#404040" points="431.8248,-244.9586 425.2698,-241.9532 425.5228,-234.7465 432.0778,-237.7519 431.8248,-244.9586"/>
<text text-anchor="middle" x="574" y="-379" font-family="Helvetica,sans-Serif" font-size="10.00" fill="#000000"> +first_source_index</text>
<text text-anchor="middle" x="574" y="-368" font-family="Helvetica,sans-Serif" font-size="10.00" fill="#000000">+hole_point_index</text>
</g>
<!-- Node7&#45;&gt;Node3 -->
<g id="edge6" class="edge">
<title>Node7&#45;&gt;Node3</title>
<path fill="none" stroke="#404040" d="M479.7664,-574.5865C462.2894,-567.4889 433.289,-553.4842 415.5,-533 398.127,-512.9949 402.959,-502.3441 392.5,-478 391.5002,-475.6729 390.485,-473.3172 389.4587,-470.9418"/>
<polygon fill="none" stroke="#404040" points="389.3648,-470.7253 383.3075,-466.8126 384.5896,-459.7164 390.6468,-463.6291 389.3648,-470.7253"/>
<text text-anchor="middle" x="476" y="-503" font-family="Helvetica,sans-Serif" font-size="10.00" fill="#000000"> +n_converted_quadrangles</text>
</g>
</g>
</svg>
