<?xml version="1.0" encoding="UTF-8" standalone="no"?>
<!DOCTYPE svg PUBLIC "-//W3C//DTD SVG 1.1//EN"
 "http://www.w3.org/Graphics/SVG/1.1/DTD/svg11.dtd">
<!-- Generated by graphviz version 2.40.1 (20161225.0304)
 -->
<!-- Title: River::Border::GetSourceNormalAngle Pages: 1 -->
<svg width="305pt" height="88pt"
 viewBox="0.00 0.00 305.00 88.00" xmlns="http://www.w3.org/2000/svg" xmlns:xlink="http://www.w3.org/1999/xlink">
<g id="graph0" class="graph" transform="scale(1 1) rotate(0) translate(4 84)">
<title>River::Border::GetSourceNormalAngle</title>
<polygon fill="#ffffff" stroke="transparent" points="-4,4 -4,-84 301,-84 301,4 -4,4"/>
<!-- Node19 -->
<g id="node1" class="node">
<title>Node19</title>
<polygon fill="#bfbfbf" stroke="#000000" points="0,-24.5 0,-54.5 127,-54.5 127,-24.5 0,-24.5"/>
<text text-anchor="start" x="8" y="-42.5" font-family="Helvetica,sans-Serif" font-size="10.00" fill="#000000">River::Border::GetSource</text>
<text text-anchor="middle" x="63.5" y="-31.5" font-family="Helvetica,sans-Serif" font-size="10.00" fill="#000000">NormalAngle</text>
</g>
<!-- Node20 -->
<g id="node2" class="node">
<title>Node20</title>
<g id="a_node2"><a xlink:href="classRiver_1_1Border.html#ab52507226595b8d3747388cabd0edd76" target="_top" xlink:title="Return source adjacent points. ">
<polygon fill="#ffffff" stroke="#000000" points="163,-49.5 163,-79.5 297,-79.5 297,-49.5 163,-49.5"/>
<text text-anchor="start" x="171" y="-67.5" font-family="Helvetica,sans-Serif" font-size="10.00" fill="#000000">River::Border::GetAdjacent</text>
<text text-anchor="middle" x="230" y="-56.5" font-family="Helvetica,sans-Serif" font-size="10.00" fill="#000000">Points</text>
</a>
</g>
</g>
<!-- Node19&#45;&gt;Node20 -->
<g id="edge1" class="edge">
<title>Node19&#45;&gt;Node20</title>
<path fill="none" stroke="#191970" d="M127.3971,-49.0942C135.7682,-50.3511 144.4157,-51.6495 152.9749,-52.9347"/>
<polygon fill="#191970" stroke="#191970" points="152.5515,-56.4102 162.9603,-54.434 153.5909,-49.4878 152.5515,-56.4102"/>
</g>
<!-- Node21 -->
<g id="node3" class="node">
<title>Node21</title>
<g id="a_node3"><a xlink:href="classRiver_1_1Border.html#a512637f837781f78588d1dec4ebe8917" target="_top" xlink:title="Return Source Point. ">
<polygon fill="#ffffff" stroke="#000000" points="166.5,-.5 166.5,-30.5 293.5,-30.5 293.5,-.5 166.5,-.5"/>
<text text-anchor="start" x="174.5" y="-18.5" font-family="Helvetica,sans-Serif" font-size="10.00" fill="#000000">River::Border::GetSource</text>
<text text-anchor="middle" x="230" y="-7.5" font-family="Helvetica,sans-Serif" font-size="10.00" fill="#000000">Point</text>
</a>
</g>
</g>
<!-- Node19&#45;&gt;Node21 -->
<g id="edge2" class="edge">
<title>Node19&#45;&gt;Node21</title>
<path fill="none" stroke="#191970" d="M127.3971,-30.2896C136.8579,-28.9259 146.6718,-27.5113 156.3123,-26.1217"/>
<polygon fill="#191970" stroke="#191970" points="156.8756,-29.5767 166.2739,-24.6857 155.8768,-22.6483 156.8756,-29.5767"/>
</g>
</g>
</svg>
