<?xml version="1.0" encoding="UTF-8" standalone="no"?>
<!DOCTYPE svg PUBLIC "-//W3C//DTD SVG 1.1//EN"
 "http://www.w3.org/Graphics/SVG/1.1/DTD/svg11.dtd">
<!-- Generated by graphviz version 2.40.1 (20161225.0304)
 -->
<!-- Title: tethex::Mesh::find_face_from_two_edges Pages: 1 -->
<svg width="588pt" height="39pt"
 viewBox="0.00 0.00 588.00 39.00" xmlns="http://www.w3.org/2000/svg" xmlns:xlink="http://www.w3.org/1999/xlink">
<g id="graph0" class="graph" transform="scale(1 1) rotate(0) translate(4 35)">
<title>tethex::Mesh::find_face_from_two_edges</title>
<polygon fill="#ffffff" stroke="transparent" points="-4,4 -4,-35 584,-35 584,4 -4,4"/>
<!-- Node253 -->
<g id="node1" class="node">
<title>Node253</title>
<polygon fill="#bfbfbf" stroke="#000000" points="0,-.5 0,-30.5 118,-30.5 118,-.5 0,-.5"/>
<text text-anchor="start" x="8" y="-18.5" font-family="Helvetica,sans-Serif" font-size="10.00" fill="#000000">tethex::Mesh::find</text>
<text text-anchor="middle" x="59" y="-7.5" font-family="Helvetica,sans-Serif" font-size="10.00" fill="#000000">_face_from_two_edges</text>
</g>
<!-- Node254 -->
<g id="node2" class="node">
<title>Node254</title>
<g id="a_node2"><a xlink:href="classtethex_1_1Mesh.html#ab739c5e4bbb1c3461a068c2104eab52e" target="_top" xlink:title="tethex::Mesh::convert\l_triangles">
<polygon fill="#ffffff" stroke="#000000" points="154,-.5 154,-30.5 266,-30.5 266,-.5 154,-.5"/>
<text text-anchor="start" x="162" y="-18.5" font-family="Helvetica,sans-Serif" font-size="10.00" fill="#000000">tethex::Mesh::convert</text>
<text text-anchor="middle" x="210" y="-7.5" font-family="Helvetica,sans-Serif" font-size="10.00" fill="#000000">_triangles</text>
</a>
</g>
</g>
<!-- Node253&#45;&gt;Node254 -->
<g id="edge1" class="edge">
<title>Node253&#45;&gt;Node254</title>
<path fill="none" stroke="#191970" d="M128.2488,-15.5C136.8352,-15.5 145.5302,-15.5 153.8855,-15.5"/>
<polygon fill="#191970" stroke="#191970" points="128.2458,-12.0001 118.2458,-15.5 128.2458,-19.0001 128.2458,-12.0001"/>
</g>
<!-- Node255 -->
<g id="node3" class="node">
<title>Node255</title>
<g id="a_node3"><a xlink:href="classtethex_1_1Mesh.html#adb803e48ce7101318531730a512ecbc8" target="_top" xlink:title="tethex::Mesh::convert_2D">
<polygon fill="#ffffff" stroke="#000000" points="302,-6 302,-25 432,-25 432,-6 302,-6"/>
<text text-anchor="middle" x="367" y="-13" font-family="Helvetica,sans-Serif" font-size="10.00" fill="#000000">tethex::Mesh::convert_2D</text>
</a>
</g>
</g>
<!-- Node254&#45;&gt;Node255 -->
<g id="edge2" class="edge">
<title>Node254&#45;&gt;Node255</title>
<path fill="none" stroke="#191970" d="M276.3808,-15.5C284.7962,-15.5 293.402,-15.5 301.7987,-15.5"/>
<polygon fill="#191970" stroke="#191970" points="276.2372,-12.0001 266.2372,-15.5 276.2371,-19.0001 276.2372,-12.0001"/>
</g>
<!-- Node256 -->
<g id="node4" class="node">
<title>Node256</title>
<g id="a_node4"><a xlink:href="classtethex_1_1Mesh.html#aaa882d21498571cbd84d4f7129fd6e32" target="_top" xlink:title="tethex::Mesh::convert">
<polygon fill="#ffffff" stroke="#000000" points="468,-6 468,-25 580,-25 580,-6 468,-6"/>
<text text-anchor="middle" x="524" y="-13" font-family="Helvetica,sans-Serif" font-size="10.00" fill="#000000">tethex::Mesh::convert</text>
</a>
</g>
</g>
<!-- Node255&#45;&gt;Node256 -->
<g id="edge3" class="edge">
<title>Node255&#45;&gt;Node256</title>
<path fill="none" stroke="#191970" d="M442.2433,-15.5C450.8245,-15.5 459.4576,-15.5 467.7317,-15.5"/>
<polygon fill="#191970" stroke="#191970" points="442.2182,-12.0001 432.2182,-15.5 442.2182,-19.0001 442.2182,-12.0001"/>
</g>
</g>
</svg>
