<?xml version="1.0" encoding="UTF-8" standalone="no"?>
<!DOCTYPE svg PUBLIC "-//W3C//DTD SVG 1.1//EN"
 "http://www.w3.org/Graphics/SVG/1.1/DTD/svg11.dtd">
<!-- Generated by graphviz version 2.40.1 (20161225.0304)
 -->
<!-- Title: River::Model Pages: 1 -->
<svg width="1197pt" height="548pt"
 viewBox="0.00 0.00 1196.50 548.00" xmlns="http://www.w3.org/2000/svg" xmlns:xlink="http://www.w3.org/1999/xlink">
<g id="graph0" class="graph" transform="scale(1 1) rotate(0) translate(4 544)">
<title>River::Model</title>
<polygon fill="#ffffff" stroke="transparent" points="-4,4 -4,-544 1192.5,-544 1192.5,4 -4,4"/>
<!-- Node1 -->
<g id="node1" class="node">
<title>Node1</title>
<polygon fill="#bfbfbf" stroke="#000000" points="655.5,-.5 655.5,-134.5 835.5,-134.5 835.5,-.5 655.5,-.5"/>
<text text-anchor="middle" x="745.5" y="-122.5" font-family="Helvetica,sans-Serif" font-size="10.00" fill="#000000">River::Model</text>
<polyline fill="none" stroke="#000000" points="655.5,-115.5 835.5,-115.5 "/>
<text text-anchor="start" x="663.5" y="-103.5" font-family="Helvetica,sans-Serif" font-size="10.00" fill="#000000">+ biffurcation_threshold</text>
<text text-anchor="start" x="663.5" y="-92.5" font-family="Helvetica,sans-Serif" font-size="10.00" fill="#000000">+ biffurcation_min_dist</text>
<polyline fill="none" stroke="#000000" points="655.5,-85.5 835.5,-85.5 "/>
<text text-anchor="start" x="663.5" y="-73.5" font-family="Helvetica,sans-Serif" font-size="10.00" fill="#000000">+ q_biffurcate()</text>
<text text-anchor="start" x="663.5" y="-62.5" font-family="Helvetica,sans-Serif" font-size="10.00" fill="#000000">+ q_growth()</text>
<text text-anchor="start" x="663.5" y="-51.5" font-family="Helvetica,sans-Serif" font-size="10.00" fill="#000000">+ next_point()</text>
<text text-anchor="start" x="663.5" y="-40.5" font-family="Helvetica,sans-Serif" font-size="10.00" fill="#000000">+ GetZeroIndices()</text>
<text text-anchor="start" x="663.5" y="-29.5" font-family="Helvetica,sans-Serif" font-size="10.00" fill="#000000">+ GetNonZeroIndices()</text>
<text text-anchor="start" x="663.5" y="-18.5" font-family="Helvetica,sans-Serif" font-size="10.00" fill="#000000">+ CheckParametersConsistency()</text>
<text text-anchor="start" x="663.5" y="-7.5" font-family="Helvetica,sans-Serif" font-size="10.00" fill="#000000">+ print()</text>
</g>
<!-- Node2 -->
<g id="node2" class="node">
<title>Node2</title>
<g id="a_node2"><a xlink:href="classRiver_1_1ProgramOptions.html" target="_top" xlink:title="Global program options. ">
<polygon fill="#ffffff" stroke="#000000" points="617,-225 617,-282 744,-282 744,-225 617,-225"/>
<text text-anchor="middle" x="680.5" y="-270" font-family="Helvetica,sans-Serif" font-size="10.00" fill="#000000">River::ProgramOptions</text>
<polyline fill="none" stroke="#000000" points="617,-263 744,-263 "/>
<text text-anchor="middle" x="680.5" y="-251" font-family="Helvetica,sans-Serif" font-size="10.00" fill="#000000"> </text>
<polyline fill="none" stroke="#000000" points="617,-244 744,-244 "/>
<text text-anchor="middle" x="680.5" y="-232" font-family="Helvetica,sans-Serif" font-size="10.00" fill="#000000"> </text>
</a>
</g>
</g>
<!-- Node2&#45;&gt;Node1 -->
<g id="edge1" class="edge">
<title>Node2&#45;&gt;Node1</title>
<path fill="none" stroke="#404040" d="M689.1492,-224.7568C695.3446,-204.5753 704.0527,-177.0097 712.5,-153 713.3251,-150.6548 714.1724,-148.2774 715.0362,-145.8804"/>
<polygon fill="none" stroke="#404040" points="715.0521,-145.8368 713.3579,-138.8275 719.1765,-134.5678 720.8706,-141.5771 715.0521,-145.8368"/>
<text text-anchor="middle" x="740" y="-156" font-family="Helvetica,sans-Serif" font-size="10.00" fill="#000000"> +prog_opt</text>
</g>
<!-- Node3 -->
<g id="node3" class="node">
<title>Node3</title>
<polygon fill="#ffffff" stroke="#bfbfbf" points="187.5,-482.5 187.5,-539.5 237.5,-539.5 237.5,-482.5 187.5,-482.5"/>
<text text-anchor="middle" x="212.5" y="-527.5" font-family="Helvetica,sans-Serif" font-size="10.00" fill="#000000">double</text>
<polyline fill="none" stroke="#bfbfbf" points="187.5,-520.5 237.5,-520.5 "/>
<text text-anchor="middle" x="212.5" y="-508.5" font-family="Helvetica,sans-Serif" font-size="10.00" fill="#000000"> </text>
<polyline fill="none" stroke="#bfbfbf" points="187.5,-501.5 237.5,-501.5 "/>
<text text-anchor="middle" x="212.5" y="-489.5" font-family="Helvetica,sans-Serif" font-size="10.00" fill="#000000"> </text>
</g>
<!-- Node3&#45;&gt;Node1 -->
<g id="edge8" class="edge">
<title>Node3&#45;&gt;Node1</title>
<path fill="none" stroke="#404040" d="M198.9427,-482.4504C196.6857,-476.4807 194.6929,-470.134 193.5,-464 183.2335,-411.2113 171.478,-392.062 193.5,-343 237.5883,-244.7772 280.7039,-234.8565 374.5,-182 459.0897,-134.3315 565.9453,-104.0558 643.229,-86.6919"/>
<polygon fill="none" stroke="#404040" points="643.6521,-86.5987 648.6503,-81.4007 655.3707,-84.0152 650.3726,-89.2132 643.6521,-86.5987"/>
<text text-anchor="middle" x="424.5" y="-317" font-family="Helvetica,sans-Serif" font-size="10.00" fill="#000000"> +biffurcation_angle</text>
<text text-anchor="middle" x="424.5" y="-306" font-family="Helvetica,sans-Serif" font-size="10.00" fill="#000000">+eta</text>
<text text-anchor="middle" x="424.5" y="-295" font-family="Helvetica,sans-Serif" font-size="10.00" fill="#000000">+height</text>
<text text-anchor="middle" x="424.5" y="-284" font-family="Helvetica,sans-Serif" font-size="10.00" fill="#000000">+field_value</text>
<text text-anchor="middle" x="424.5" y="-273" font-family="Helvetica,sans-Serif" font-size="10.00" fill="#000000">+ds</text>
<text text-anchor="start" x="374.5" y="-262" font-family="Helvetica,sans-Serif" font-size="10.00" fill="#000000">+biffurcation</text>
<text text-anchor="middle" x="424.5" y="-251" font-family="Helvetica,sans-Serif" font-size="10.00" fill="#000000">_threshold_2</text>
<text text-anchor="middle" x="424.5" y="-240" font-family="Helvetica,sans-Serif" font-size="10.00" fill="#000000">+width</text>
<text text-anchor="middle" x="424.5" y="-229" font-family="Helvetica,sans-Serif" font-size="10.00" fill="#000000">+dx</text>
<text text-anchor="start" x="374.5" y="-218" font-family="Helvetica,sans-Serif" font-size="10.00" fill="#000000">+growth_min</text>
<text text-anchor="middle" x="424.5" y="-207" font-family="Helvetica,sans-Serif" font-size="10.00" fill="#000000">_distance</text>
<text text-anchor="middle" x="424.5" y="-196" font-family="Helvetica,sans-Serif" font-size="10.00" fill="#000000">+growth_threshold</text>
<text text-anchor="middle" x="424.5" y="-185" font-family="Helvetica,sans-Serif" font-size="10.00" fill="#000000">...</text>
</g>
<!-- Node3&#45;&gt;Node2 -->
<g id="edge2" class="edge">
<title>Node3&#45;&gt;Node2</title>
<path fill="none" stroke="#404040" d="M237.9279,-506.4527C261.814,-500.7849 296.6249,-488.6618 315.5,-464 348.6283,-420.7152 295.1208,-379.614 335.5,-343 380.3753,-302.3092 552.2017,-349.7311 607.5,-325 624.1801,-317.5402 639.2552,-304.5087 651.3166,-291.5966"/>
<polygon fill="none" stroke="#404040" points="651.5937,-291.2835 652.5746,-284.1394 659.5465,-282.2971 658.5655,-289.4412 651.5937,-291.2835"/>
<text text-anchor="middle" x="395" y="-401" font-family="Helvetica,sans-Serif" font-size="10.00" fill="#000000"> +maximal_river_height</text>
</g>
<!-- Node6 -->
<g id="node6" class="node">
<title>Node6</title>
<g id="a_node6"><a xlink:href="classRiver_1_1SolverParams.html" target="_top" xlink:title="Holds All parameters used in Deal.II solver. ">
<polygon fill="#ffffff" stroke="#000000" points="484,-225 484,-282 599,-282 599,-225 484,-225"/>
<text text-anchor="middle" x="541.5" y="-270" font-family="Helvetica,sans-Serif" font-size="10.00" fill="#000000">River::SolverParams</text>
<polyline fill="none" stroke="#000000" points="484,-263 599,-263 "/>
<text text-anchor="middle" x="541.5" y="-251" font-family="Helvetica,sans-Serif" font-size="10.00" fill="#000000"> </text>
<polyline fill="none" stroke="#000000" points="484,-244 599,-244 "/>
<text text-anchor="middle" x="541.5" y="-232" font-family="Helvetica,sans-Serif" font-size="10.00" fill="#000000"> </text>
</a>
</g>
</g>
<!-- Node3&#45;&gt;Node6 -->
<g id="edge6" class="edge">
<title>Node3&#45;&gt;Node6</title>
<path fill="none" stroke="#404040" d="M203.0463,-482.3337C192.9778,-445.8826 182.3722,-382.899 213.5,-343 233.2594,-317.6728 252.4649,-333.2899 283.5,-325 347.5528,-307.8907 420.3244,-287.65 472.2134,-273.0791"/>
<polygon fill="none" stroke="#404040" points="472.3926,-273.0287 477.0863,-267.5543 483.9449,-269.7814 479.2512,-275.2558 472.3926,-273.0287"/>
<text text-anchor="middle" x="264.5" y="-406.5" font-family="Helvetica,sans-Serif" font-size="10.00" fill="#000000"> +refinment_fraction</text>
<text text-anchor="middle" x="264.5" y="-395.5" font-family="Helvetica,sans-Serif" font-size="10.00" fill="#000000">+tollerance</text>
</g>
<!-- Node8 -->
<g id="node8" class="node">
<title>Node8</title>
<g id="a_node8"><a xlink:href="classRiver_1_1MeshParams.html" target="_top" xlink:title="Adaptive mesh area constraint function. ">
<polygon fill="#ffffff" stroke="#000000" points="904.5,-225 904.5,-282 1014.5,-282 1014.5,-225 904.5,-225"/>
<text text-anchor="middle" x="959.5" y="-270" font-family="Helvetica,sans-Serif" font-size="10.00" fill="#000000">River::MeshParams</text>
<polyline fill="none" stroke="#000000" points="904.5,-263 1014.5,-263 "/>
<text text-anchor="middle" x="959.5" y="-251" font-family="Helvetica,sans-Serif" font-size="10.00" fill="#000000"> </text>
<polyline fill="none" stroke="#000000" points="904.5,-244 1014.5,-244 "/>
<text text-anchor="start" x="912.5" y="-232" font-family="Helvetica,sans-Serif" font-size="10.00" fill="#000000">+ operator()()</text>
</a>
</g>
</g>
<!-- Node3&#45;&gt;Node8 -->
<g id="edge11" class="edge">
<title>Node3&#45;&gt;Node8</title>
<path fill="none" stroke="#404040" d="M237.5597,-507.382C281.0159,-501.2375 373.2133,-488.772 451.5,-482 489.9638,-478.6728 767.4624,-486.9609 798.5,-464 844.5031,-429.9679 802.2401,-383.6646 842.5,-343 858.53,-326.8089 871.4543,-337.5049 890.5,-325 904.5193,-315.7954 917.8416,-303.2703 928.9746,-291.2741"/>
<polygon fill="none" stroke="#404040" points="929.0331,-291.2087 930.0544,-284.0703 937.0366,-282.2674 936.0153,-289.4059 929.0331,-291.2087"/>
<text text-anchor="middle" x="888" y="-456" font-family="Helvetica,sans-Serif" font-size="10.00" fill="#000000"> +min_area</text>
<text text-anchor="middle" x="888" y="-445" font-family="Helvetica,sans-Serif" font-size="10.00" fill="#000000">+refinment_radius</text>
<text text-anchor="middle" x="888" y="-434" font-family="Helvetica,sans-Serif" font-size="10.00" fill="#000000">+sigma</text>
<text text-anchor="middle" x="888" y="-423" font-family="Helvetica,sans-Serif" font-size="10.00" fill="#000000">+max_edge</text>
<text text-anchor="middle" x="888" y="-412" font-family="Helvetica,sans-Serif" font-size="10.00" fill="#000000">+max_area</text>
<text text-anchor="middle" x="888" y="-401" font-family="Helvetica,sans-Serif" font-size="10.00" fill="#000000">+exponant</text>
<text text-anchor="middle" x="888" y="-390" font-family="Helvetica,sans-Serif" font-size="10.00" fill="#000000">+eps</text>
<text text-anchor="middle" x="888" y="-379" font-family="Helvetica,sans-Serif" font-size="10.00" fill="#000000">+ratio</text>
<text text-anchor="middle" x="888" y="-368" font-family="Helvetica,sans-Serif" font-size="10.00" fill="#000000">+min_angle</text>
<text text-anchor="middle" x="888" y="-357" font-family="Helvetica,sans-Serif" font-size="10.00" fill="#000000">+min_edge</text>
<text text-anchor="middle" x="888" y="-346" font-family="Helvetica,sans-Serif" font-size="10.00" fill="#000000">...</text>
</g>
<!-- Node11 -->
<g id="node11" class="node">
<title>Node11</title>
<g id="a_node11"><a xlink:href="classRiver_1_1IntegrationParams.html" target="_top" xlink:title="Holds parameters used by integration of series paramets functionality(see River::Solver::integrate())...">
<polygon fill="#ffffff" stroke="#000000" points="0,-214 0,-293 137,-293 137,-214 0,-214"/>
<text text-anchor="middle" x="68.5" y="-281" font-family="Helvetica,sans-Serif" font-size="10.00" fill="#000000">River::IntegrationParams</text>
<polyline fill="none" stroke="#000000" points="0,-274 137,-274 "/>
<text text-anchor="middle" x="68.5" y="-262" font-family="Helvetica,sans-Serif" font-size="10.00" fill="#000000"> </text>
<polyline fill="none" stroke="#000000" points="0,-255 137,-255 "/>
<text text-anchor="start" x="8" y="-243" font-family="Helvetica,sans-Serif" font-size="10.00" fill="#000000">+ WeightFunction()</text>
<text text-anchor="start" x="8" y="-232" font-family="Helvetica,sans-Serif" font-size="10.00" fill="#000000">+ BaseVector()</text>
<text text-anchor="start" x="8" y="-221" font-family="Helvetica,sans-Serif" font-size="10.00" fill="#000000">+ BaseVectorFinal()</text>
</a>
</g>
</g>
<!-- Node3&#45;&gt;Node11 -->
<g id="edge16" class="edge">
<title>Node3&#45;&gt;Node11</title>
<path fill="none" stroke="#404040" d="M187.421,-506.7971C148.7375,-499.7457 77.4044,-484.289 62.5,-464 28.9493,-418.3284 38.228,-350.7902 50.7705,-304.61"/>
<polygon fill="none" stroke="#404040" points="50.7745,-304.5959 48.5904,-297.7235 54.0941,-293.0642 56.2782,-299.9366 50.7745,-304.5959"/>
<text text-anchor="middle" x="114" y="-412" font-family="Helvetica,sans-Serif" font-size="10.00" fill="#000000"> +integration_radius</text>
<text text-anchor="middle" x="114" y="-401" font-family="Helvetica,sans-Serif" font-size="10.00" fill="#000000">+weigth_func_radius</text>
<text text-anchor="middle" x="114" y="-390" font-family="Helvetica,sans-Serif" font-size="10.00" fill="#000000">+exponant</text>
</g>
<!-- Node4 -->
<g id="node4" class="node">
<title>Node4</title>
<polygon fill="#ffffff" stroke="#bfbfbf" points="460.5,-482.5 460.5,-539.5 498.5,-539.5 498.5,-482.5 460.5,-482.5"/>
<text text-anchor="middle" x="479.5" y="-527.5" font-family="Helvetica,sans-Serif" font-size="10.00" fill="#000000">bool</text>
<polyline fill="none" stroke="#bfbfbf" points="460.5,-520.5 498.5,-520.5 "/>
<text text-anchor="middle" x="479.5" y="-508.5" font-family="Helvetica,sans-Serif" font-size="10.00" fill="#000000"> </text>
<polyline fill="none" stroke="#bfbfbf" points="460.5,-501.5 498.5,-501.5 "/>
<text text-anchor="middle" x="479.5" y="-489.5" font-family="Helvetica,sans-Serif" font-size="10.00" fill="#000000"> </text>
</g>
<!-- Node4&#45;&gt;Node2 -->
<g id="edge3" class="edge">
<title>Node4&#45;&gt;Node2</title>
<path fill="none" stroke="#404040" d="M469.5587,-482.4151C458.7161,-445.4654 447.0169,-381.3323 480.5,-343 499.2519,-321.5323 581.9322,-337.6009 607.5,-325 623.7618,-316.9855 638.6735,-303.9755 650.7215,-291.2355"/>
<polygon fill="none" stroke="#404040" points="650.9353,-290.9982 651.9789,-283.863 658.9666,-282.0819 657.923,-289.2172 650.9353,-290.9982"/>
<text text-anchor="middle" x="506" y="-401" font-family="Helvetica,sans-Serif" font-size="10.00" fill="#000000"> +verbose</text>
</g>
<!-- Node5 -->
<g id="node5" class="node">
<title>Node5</title>
<polygon fill="#ffffff" stroke="#bfbfbf" points="773,-482.5 773,-539.5 834,-539.5 834,-482.5 773,-482.5"/>
<text text-anchor="middle" x="803.5" y="-527.5" font-family="Helvetica,sans-Serif" font-size="10.00" fill="#000000">unsigned</text>
<polyline fill="none" stroke="#bfbfbf" points="773,-520.5 834,-520.5 "/>
<text text-anchor="middle" x="803.5" y="-508.5" font-family="Helvetica,sans-Serif" font-size="10.00" fill="#000000"> </text>
<polyline fill="none" stroke="#bfbfbf" points="773,-501.5 834,-501.5 "/>
<text text-anchor="middle" x="803.5" y="-489.5" font-family="Helvetica,sans-Serif" font-size="10.00" fill="#000000"> </text>
</g>
<!-- Node5&#45;&gt;Node1 -->
<g id="edge17" class="edge">
<title>Node5&#45;&gt;Node1</title>
<path fill="none" stroke="#404040" d="M834.0744,-507.0396C859.8546,-501.9087 895.2288,-490.2557 912.5,-464 942.0545,-419.0714 947.642,-383.7073 912.5,-343 876.684,-301.5119 828.9925,-364.0177 790.5,-325 736.3353,-270.0962 782.2467,-228.7019 767.5,-153 767.0787,-150.8374 766.6354,-148.648 766.1738,-146.4417"/>
<polygon fill="none" stroke="#404040" points="766.1332,-146.257 760.9366,-141.2574 763.5529,-134.5377 768.7495,-139.5372 766.1332,-146.257"/>
<text text-anchor="middle" x="843" y="-262" font-family="Helvetica,sans-Serif" font-size="10.00" fill="#000000"> +biffurcation_type</text>
<text text-anchor="middle" x="843" y="-251" font-family="Helvetica,sans-Serif" font-size="10.00" fill="#000000">+growth_type</text>
<text text-anchor="middle" x="843" y="-240" font-family="Helvetica,sans-Serif" font-size="10.00" fill="#000000">+boundary_condition</text>
</g>
<!-- Node5&#45;&gt;Node2 -->
<g id="edge4" class="edge">
<title>Node5&#45;&gt;Node2</title>
<path fill="none" stroke="#404040" d="M772.8328,-503.4072C740.3197,-494.6655 692.1982,-479.507 681.5,-464 663.1999,-437.474 669.6395,-347.5931 675.4171,-294.2383"/>
<polygon fill="none" stroke="#404040" points="675.4342,-294.086 672.1327,-287.6751 676.7808,-282.1618 680.0822,-288.5728 675.4342,-294.086"/>
<text text-anchor="start" x="681.5" y="-412" font-family="Helvetica,sans-Serif" font-size="10.00" fill="#000000"> +number_of_backward</text>
<text text-anchor="middle" x="740" y="-401" font-family="Helvetica,sans-Serif" font-size="10.00" fill="#000000">_steps</text>
<text text-anchor="middle" x="740" y="-390" font-family="Helvetica,sans-Serif" font-size="10.00" fill="#000000">+number_of_steps</text>
</g>
<!-- Node5&#45;&gt;Node6 -->
<g id="edge7" class="edge">
<title>Node5&#45;&gt;Node6</title>
<path fill="none" stroke="#404040" d="M772.5621,-509.5064C713.5866,-505.9695 588.4465,-494.9231 560.5,-464 538.7479,-439.9311 537.9803,-348.6837 539.5861,-294.544"/>
<polygon fill="none" stroke="#404040" points="539.5949,-294.2851 535.8041,-288.1508 540.0085,-282.2922 543.7993,-288.4265 539.5949,-294.2851"/>
<text text-anchor="middle" x="612.5" y="-417.5" font-family="Helvetica,sans-Serif" font-size="10.00" fill="#000000"> +num_of_iterrations</text>
<text text-anchor="start" x="560.5" y="-406.5" font-family="Helvetica,sans-Serif" font-size="10.00" fill="#000000">+adaptive_refinment</text>
<text text-anchor="middle" x="612.5" y="-395.5" font-family="Helvetica,sans-Serif" font-size="10.00" fill="#000000">_steps</text>
<text text-anchor="middle" x="612.5" y="-384.5" font-family="Helvetica,sans-Serif" font-size="10.00" fill="#000000">+quadrature_degree</text>
</g>
<!-- Node5&#45;&gt;Node8 -->
<g id="edge13" class="edge">
<title>Node5&#45;&gt;Node8</title>
<path fill="none" stroke="#404040" d="M834.3079,-504.2176C869.679,-495.7723 924.5068,-480.4409 937.5,-464 947.7728,-451.0013 954.4906,-351.8346 957.5635,-294.3676"/>
<polygon fill="none" stroke="#404040" points="957.5781,-294.0837 953.8935,-287.885 958.1982,-282.0997 961.8828,-288.2984 957.5781,-294.0837"/>
<text text-anchor="middle" x="1015" y="-401" font-family="Helvetica,sans-Serif" font-size="10.00" fill="#000000"> +static_refinment_steps</text>
</g>
<!-- Node6&#45;&gt;Node1 -->
<g id="edge5" class="edge">
<title>Node6&#45;&gt;Node1</title>
<path fill="none" stroke="#404040" d="M560.5438,-224.7179C575.3932,-203.5025 597.3278,-174.685 620.5,-153 628.3244,-145.6778 636.8258,-138.5198 645.5904,-131.6595"/>
<polygon fill="none" stroke="#404040" points="645.6448,-131.618 647.9881,-124.7983 655.1846,-124.3384 652.8412,-131.1581 645.6448,-131.618"/>
<text text-anchor="middle" x="662.5" y="-156" font-family="Helvetica,sans-Serif" font-size="10.00" fill="#000000"> +solver_params</text>
</g>
<!-- Node7 -->
<g id="node7" class="node">
<title>Node7</title>
<polygon fill="#ffffff" stroke="#bfbfbf" points="1033,-225 1033,-282 1062,-282 1062,-225 1033,-225"/>
<text text-anchor="middle" x="1047.5" y="-270" font-family="Helvetica,sans-Serif" font-size="10.00" fill="#000000">int</text>
<polyline fill="none" stroke="#bfbfbf" points="1033,-263 1062,-263 "/>
<text text-anchor="middle" x="1047.5" y="-251" font-family="Helvetica,sans-Serif" font-size="10.00" fill="#000000"> </text>
<polyline fill="none" stroke="#bfbfbf" points="1033,-244 1062,-244 "/>
<text text-anchor="middle" x="1047.5" y="-232" font-family="Helvetica,sans-Serif" font-size="10.00" fill="#000000"> </text>
</g>
<!-- Node7&#45;&gt;Node1 -->
<g id="edge9" class="edge">
<title>Node7&#45;&gt;Node1</title>
<path fill="none" stroke="#404040" d="M1043.626,-224.8279C1040.374,-210.4522 1034.4119,-193.6668 1023.5,-182 977.1339,-132.4259 906.1392,-103.6712 847.5012,-87.3765"/>
<polygon fill="none" stroke="#404040" points="847.162,-87.2858 840.3319,-89.5986 835.57,-84.1834 842.4001,-81.8706 847.162,-87.2858"/>
<text text-anchor="middle" x="1049.5" y="-156" font-family="Helvetica,sans-Serif" font-size="10.00" fill="#000000"> +river_boundary_id</text>
</g>
<!-- Node8&#45;&gt;Node1 -->
<g id="edge10" class="edge">
<title>Node8&#45;&gt;Node1</title>
<path fill="none" stroke="#404040" d="M933.472,-224.7877C920.8919,-211.3705 905.334,-195.4308 890.5,-182 875.9287,-168.807 860.0246,-155.3691 844.2609,-142.5596"/>
<polygon fill="none" stroke="#404040" points="843.8196,-142.2039 836.638,-141.5526 834.477,-134.6728 841.6587,-135.3242 843.8196,-142.2039"/>
<text text-anchor="middle" x="887" y="-156" font-family="Helvetica,sans-Serif" font-size="10.00" fill="#000000"> +mesh</text>
</g>
<!-- Node9 -->
<g id="node9" class="node">
<title>Node9</title>
<polygon fill="#ffffff" stroke="#bfbfbf" points="1042.5,-482.5 1042.5,-539.5 1168.5,-539.5 1168.5,-482.5 1042.5,-482.5"/>
<text text-anchor="middle" x="1105.5" y="-527.5" font-family="Helvetica,sans-Serif" font-size="10.00" fill="#000000">vector&lt; River::Point &gt;</text>
<polyline fill="none" stroke="#bfbfbf" points="1042.5,-520.5 1168.5,-520.5 "/>
<text text-anchor="middle" x="1105.5" y="-508.5" font-family="Helvetica,sans-Serif" font-size="10.00" fill="#000000"> </text>
<polyline fill="none" stroke="#bfbfbf" points="1042.5,-501.5 1168.5,-501.5 "/>
<text text-anchor="middle" x="1105.5" y="-489.5" font-family="Helvetica,sans-Serif" font-size="10.00" fill="#000000"> </text>
</g>
<!-- Node9&#45;&gt;Node8 -->
<g id="edge12" class="edge">
<title>Node9&#45;&gt;Node8</title>
<path fill="none" stroke="#404040" d="M1110.353,-482.3565C1114.8482,-445.6387 1116.5689,-382.0664 1083.5,-343 1065.7873,-322.0748 1047.6614,-339.6682 1024.5,-325 1010.6328,-316.2178 997.8706,-303.7042 987.3945,-291.5943"/>
<polygon fill="none" stroke="#404040" points="987.1498,-291.2982 980.2443,-289.2212 979.5055,-282.048 986.4111,-284.125 987.1498,-291.2982"/>
<text text-anchor="middle" x="1142.5" y="-401" font-family="Helvetica,sans-Serif" font-size="10.00" fill="#000000"> +tip_points</text>
</g>
<!-- Node10 -->
<g id="node10" class="node">
<title>Node10</title>
<polygon fill="#ffffff" stroke="#bfbfbf" points="1091,-225 1091,-282 1174,-282 1174,-225 1091,-225"/>
<text text-anchor="middle" x="1132.5" y="-270" font-family="Helvetica,sans-Serif" font-size="10.00" fill="#000000">vector&lt; int &gt;</text>
<polyline fill="none" stroke="#bfbfbf" points="1091,-263 1174,-263 "/>
<text text-anchor="middle" x="1132.5" y="-251" font-family="Helvetica,sans-Serif" font-size="10.00" fill="#000000"> </text>
<polyline fill="none" stroke="#bfbfbf" points="1091,-244 1174,-244 "/>
<text text-anchor="middle" x="1132.5" y="-232" font-family="Helvetica,sans-Serif" font-size="10.00" fill="#000000"> </text>
</g>
<!-- Node10&#45;&gt;Node1 -->
<g id="edge14" class="edge">
<title>Node10&#45;&gt;Node1</title>
<path fill="none" stroke="#404040" d="M1131.7511,-224.8401C1129.5961,-202.248 1122.9411,-171.5577 1103.5,-153 1067.1337,-118.2862 940.2186,-93.9443 847.8074,-80.339"/>
<polygon fill="none" stroke="#404040" points="847.7413,-80.3296 841.2306,-83.4295 835.8649,-78.6119 842.3757,-75.5119 847.7413,-80.3296"/>
<text text-anchor="middle" x="1150" y="-156" font-family="Helvetica,sans-Serif" font-size="10.00" fill="#000000"> +boundary_ids</text>
</g>
<!-- Node11&#45;&gt;Node1 -->
<g id="edge15" class="edge">
<title>Node11&#45;&gt;Node1</title>
<path fill="none" stroke="#404040" d="M81.1681,-213.8063C90.1122,-192.3404 104.3338,-167.3552 125.5,-153 207.802,-97.1816 489.38,-77.4736 643.1885,-70.7741"/>
<polygon fill="none" stroke="#404040" points="643.4076,-70.7649 649.2332,-66.515 655.3969,-70.2579 649.5712,-74.5078 643.4076,-70.7649"/>
<text text-anchor="middle" x="145.5" y="-156" font-family="Helvetica,sans-Serif" font-size="10.00" fill="#000000"> +integr</text>
</g>
</g>
</svg>
