<?xml version="1.0" encoding="UTF-8" standalone="no"?>
<!DOCTYPE svg PUBLIC "-//W3C//DTD SVG 1.1//EN"
 "http://www.w3.org/Graphics/SVG/1.1/DTD/svg11.dtd">
<!-- Generated by graphviz version 2.40.1 (20161225.0304)
 -->
<!-- Title: River::Solver Pages: 1 -->
<svg width="1111pt" height="358pt"
 viewBox="0.00 0.00 1111.00 358.00" xmlns="http://www.w3.org/2000/svg" xmlns:xlink="http://www.w3.org/1999/xlink">
<g id="graph0" class="graph" transform="scale(1 1) rotate(0) translate(4 354)">
<title>River::Solver</title>
<polygon fill="#ffffff" stroke="transparent" points="-4,4 -4,-354 1107,-354 1107,4 -4,4"/>
<!-- Node1 -->
<g id="node1" class="node">
<title>Node1</title>
<polygon fill="#bfbfbf" stroke="#000000" points="511,-.5 511,-222.5 654,-222.5 654,-.5 511,-.5"/>
<text text-anchor="middle" x="582.5" y="-210.5" font-family="Helvetica,sans-Serif" font-size="10.00" fill="#000000">River::Solver</text>
<polyline fill="none" stroke="#000000" points="511,-203.5 654,-203.5 "/>
<text text-anchor="middle" x="582.5" y="-191.5" font-family="Helvetica,sans-Serif" font-size="10.00" fill="#000000"> </text>
<polyline fill="none" stroke="#000000" points="511,-184.5 654,-184.5 "/>
<text text-anchor="start" x="519" y="-172.5" font-family="Helvetica,sans-Serif" font-size="10.00" fill="#000000">+ Solver()</text>
<text text-anchor="start" x="519" y="-161.5" font-family="Helvetica,sans-Serif" font-size="10.00" fill="#000000">+ ~Solver()</text>
<text text-anchor="start" x="519" y="-150.5" font-family="Helvetica,sans-Serif" font-size="10.00" fill="#000000">+ SetBoundaryRegionValue()</text>
<text text-anchor="start" x="519" y="-139.5" font-family="Helvetica,sans-Serif" font-size="10.00" fill="#000000">+ SetMesh()</text>
<text text-anchor="start" x="519" y="-128.5" font-family="Helvetica,sans-Serif" font-size="10.00" fill="#000000">+ OpenMesh()</text>
<text text-anchor="start" x="519" y="-117.5" font-family="Helvetica,sans-Serif" font-size="10.00" fill="#000000">+ run()</text>
<text text-anchor="start" x="519" y="-106.5" font-family="Helvetica,sans-Serif" font-size="10.00" fill="#000000">+ integrate()</text>
<text text-anchor="start" x="519" y="-95.5" font-family="Helvetica,sans-Serif" font-size="10.00" fill="#000000">+ integration_test()</text>
<text text-anchor="start" x="519" y="-84.5" font-family="Helvetica,sans-Serif" font-size="10.00" fill="#000000">+ max_value()</text>
<text text-anchor="start" x="519" y="-73.5" font-family="Helvetica,sans-Serif" font-size="10.00" fill="#000000">+ clear()</text>
<text text-anchor="start" x="519" y="-62.5" font-family="Helvetica,sans-Serif" font-size="10.00" fill="#000000">&#45; setup_system()</text>
<text text-anchor="start" x="519" y="-51.5" font-family="Helvetica,sans-Serif" font-size="10.00" fill="#000000">&#45; assemble_system()</text>
<text text-anchor="start" x="519" y="-40.5" font-family="Helvetica,sans-Serif" font-size="10.00" fill="#000000">&#45; solve()</text>
<text text-anchor="start" x="519" y="-29.5" font-family="Helvetica,sans-Serif" font-size="10.00" fill="#000000">&#45; refine_grid()</text>
<text text-anchor="start" x="519" y="-18.5" font-family="Helvetica,sans-Serif" font-size="10.00" fill="#000000">&#45; output_results()</text>
<text text-anchor="start" x="519" y="-7.5" font-family="Helvetica,sans-Serif" font-size="10.00" fill="#000000">&#45; TryInsertCellBoundary()</text>
</g>
<!-- Node2 -->
<g id="node2" class="node">
<title>Node2</title>
<polygon fill="#ffffff" stroke="#bfbfbf" points="0,-281.5 0,-349.5 125,-349.5 125,-281.5 0,-281.5"/>
<text text-anchor="start" x="8" y="-337.5" font-family="Helvetica,sans-Serif" font-size="10.00" fill="#000000">map&lt; double, std::vector</text>
<text text-anchor="middle" x="62.5" y="-326.5" font-family="Helvetica,sans-Serif" font-size="10.00" fill="#000000">&lt; int &gt; &gt;</text>
<polyline fill="none" stroke="#bfbfbf" points="0,-319.5 125,-319.5 "/>
<text text-anchor="middle" x="62.5" y="-307.5" font-family="Helvetica,sans-Serif" font-size="10.00" fill="#000000"> </text>
<polyline fill="none" stroke="#bfbfbf" points="0,-300.5 125,-300.5 "/>
<text text-anchor="middle" x="62.5" y="-288.5" font-family="Helvetica,sans-Serif" font-size="10.00" fill="#000000"> </text>
</g>
<!-- Node2&#45;&gt;Node1 -->
<g id="edge1" class="edge">
<title>Node2&#45;&gt;Node1</title>
<path fill="none" stroke="#404040" d="M101.3335,-281.3162C118.7944,-267.2984 140.2315,-251.8509 161.5,-241 271.9343,-184.6577 411.3422,-147.7402 498.7341,-128.2411"/>
<polygon fill="none" stroke="#404040" points="498.9923,-128.1844 503.9923,-122.9882 510.7119,-125.6051 505.7119,-130.8013 498.9923,-128.1844"/>
<text text-anchor="middle" x="212.5" y="-249.5" font-family="Helvetica,sans-Serif" font-size="10.00" fill="#000000"> &#45;boundaryRegionValue</text>
</g>
<!-- Node3 -->
<g id="node3" class="node">
<title>Node3</title>
<polygon fill="#ffffff" stroke="#bfbfbf" points="143.5,-287 143.5,-344 249.5,-344 249.5,-287 143.5,-287"/>
<text text-anchor="middle" x="196.5" y="-332" font-family="Helvetica,sans-Serif" font-size="10.00" fill="#000000">Triangulation&lt; dim &gt;</text>
<polyline fill="none" stroke="#bfbfbf" points="143.5,-325 249.5,-325 "/>
<text text-anchor="middle" x="196.5" y="-313" font-family="Helvetica,sans-Serif" font-size="10.00" fill="#000000"> </text>
<polyline fill="none" stroke="#bfbfbf" points="143.5,-306 249.5,-306 "/>
<text text-anchor="middle" x="196.5" y="-294" font-family="Helvetica,sans-Serif" font-size="10.00" fill="#000000"> </text>
</g>
<!-- Node3&#45;&gt;Node1 -->
<g id="edge2" class="edge">
<title>Node3&#45;&gt;Node1</title>
<path fill="none" stroke="#404040" d="M232.8927,-286.8162C252.3491,-272.1634 277.0671,-254.6058 300.5,-241 365.0342,-203.5296 442.2919,-168.695 499.6111,-144.6138"/>
<polygon fill="none" stroke="#404040" points="499.7255,-144.5661 503.7215,-138.5635 510.7994,-139.9434 506.8034,-145.9461 499.7255,-144.5661"/>
<text text-anchor="middle" x="330" y="-249.5" font-family="Helvetica,sans-Serif" font-size="10.00" fill="#000000"> &#45;triangulation</text>
</g>
<!-- Node4 -->
<g id="node4" class="node">
<title>Node4</title>
<polygon fill="#ffffff" stroke="#bfbfbf" points="268,-287 268,-344 357,-344 357,-287 268,-287"/>
<text text-anchor="middle" x="312.5" y="-332" font-family="Helvetica,sans-Serif" font-size="10.00" fill="#000000">ConstraintMatrix</text>
<polyline fill="none" stroke="#bfbfbf" points="268,-325 357,-325 "/>
<text text-anchor="middle" x="312.5" y="-313" font-family="Helvetica,sans-Serif" font-size="10.00" fill="#000000"> </text>
<polyline fill="none" stroke="#bfbfbf" points="268,-306 357,-306 "/>
<text text-anchor="middle" x="312.5" y="-294" font-family="Helvetica,sans-Serif" font-size="10.00" fill="#000000"> </text>
</g>
<!-- Node4&#45;&gt;Node1 -->
<g id="edge3" class="edge">
<title>Node4&#45;&gt;Node1</title>
<path fill="none" stroke="#404040" d="M338.7155,-286.9064C352.5939,-272.4462 370.2903,-255.035 387.5,-241 422.7575,-212.2464 464.469,-183.8762 500.2475,-161.0527"/>
<polygon fill="none" stroke="#404040" points="500.5191,-160.8807 503.4484,-154.2913 510.6575,-154.4609 507.7283,-161.0502 500.5191,-160.8807"/>
<text text-anchor="middle" x="415" y="-249.5" font-family="Helvetica,sans-Serif" font-size="10.00" fill="#000000"> &#45;constraints</text>
</g>
<!-- Node5 -->
<g id="node5" class="node">
<title>Node5</title>
<polygon fill="#ffffff" stroke="#bfbfbf" points="374.5,-287 374.5,-344 458.5,-344 458.5,-287 374.5,-287"/>
<text text-anchor="middle" x="416.5" y="-332" font-family="Helvetica,sans-Serif" font-size="10.00" fill="#000000">SparsityPattern</text>
<polyline fill="none" stroke="#bfbfbf" points="374.5,-325 458.5,-325 "/>
<text text-anchor="middle" x="416.5" y="-313" font-family="Helvetica,sans-Serif" font-size="10.00" fill="#000000"> </text>
<polyline fill="none" stroke="#bfbfbf" points="374.5,-306 458.5,-306 "/>
<text text-anchor="middle" x="416.5" y="-294" font-family="Helvetica,sans-Serif" font-size="10.00" fill="#000000"> </text>
</g>
<!-- Node5&#45;&gt;Node1 -->
<g id="edge4" class="edge">
<title>Node5&#45;&gt;Node1</title>
<path fill="none" stroke="#404040" d="M432.5131,-286.6979C440.8396,-272.508 451.5492,-255.3977 462.5,-241 474.754,-224.8889 488.6713,-208.4722 502.5783,-192.9799"/>
<polygon fill="none" stroke="#404040" points="502.6874,-192.8597 503.7582,-185.7286 510.7527,-183.9743 509.6819,-191.1055 502.6874,-192.8597"/>
<text text-anchor="middle" x="500.5" y="-249.5" font-family="Helvetica,sans-Serif" font-size="10.00" fill="#000000"> &#45;sparsity_pattern</text>
</g>
<!-- Node6 -->
<g id="node6" class="node">
<title>Node6</title>
<polygon fill="#ffffff" stroke="#bfbfbf" points="477,-287 477,-344 580,-344 580,-287 477,-287"/>
<text text-anchor="middle" x="528.5" y="-332" font-family="Helvetica,sans-Serif" font-size="10.00" fill="#000000">DoFHandler&lt; dim &gt;</text>
<polyline fill="none" stroke="#bfbfbf" points="477,-325 580,-325 "/>
<text text-anchor="middle" x="528.5" y="-313" font-family="Helvetica,sans-Serif" font-size="10.00" fill="#000000"> </text>
<polyline fill="none" stroke="#bfbfbf" points="477,-306 580,-306 "/>
<text text-anchor="middle" x="528.5" y="-294" font-family="Helvetica,sans-Serif" font-size="10.00" fill="#000000"> </text>
</g>
<!-- Node6&#45;&gt;Node1 -->
<g id="edge5" class="edge">
<title>Node6&#45;&gt;Node1</title>
<path fill="none" stroke="#404040" d="M536.1224,-286.7045C539.9379,-272.2902 544.8446,-253.7536 550.0325,-234.1551"/>
<polygon fill="none" stroke="#404040" points="550.0426,-234.1167 547.7111,-227.2929 553.1133,-222.5162 555.4448,-229.3401 550.0426,-234.1167"/>
<text text-anchor="middle" x="576" y="-249.5" font-family="Helvetica,sans-Serif" font-size="10.00" fill="#000000"> &#45;dof_handler</text>
</g>
<!-- Node7 -->
<g id="node7" class="node">
<title>Node7</title>
<polygon fill="#ffffff" stroke="#bfbfbf" points="598.5,-287 598.5,-344 674.5,-344 674.5,-287 598.5,-287"/>
<text text-anchor="middle" x="636.5" y="-332" font-family="Helvetica,sans-Serif" font-size="10.00" fill="#000000">FE_Q&lt; dim &gt;</text>
<polyline fill="none" stroke="#bfbfbf" points="598.5,-325 674.5,-325 "/>
<text text-anchor="middle" x="636.5" y="-313" font-family="Helvetica,sans-Serif" font-size="10.00" fill="#000000"> </text>
<polyline fill="none" stroke="#bfbfbf" points="598.5,-306 674.5,-306 "/>
<text text-anchor="middle" x="636.5" y="-294" font-family="Helvetica,sans-Serif" font-size="10.00" fill="#000000"> </text>
</g>
<!-- Node7&#45;&gt;Node1 -->
<g id="edge6" class="edge">
<title>Node7&#45;&gt;Node1</title>
<path fill="none" stroke="#404040" d="M628.8776,-286.7045C625.0621,-272.2902 620.1554,-253.7536 614.9675,-234.1551"/>
<polygon fill="none" stroke="#404040" points="614.9574,-234.1167 609.5552,-229.3401 611.8867,-222.5162 617.2889,-227.2929 614.9574,-234.1167"/>
<text text-anchor="middle" x="629" y="-249.5" font-family="Helvetica,sans-Serif" font-size="10.00" fill="#000000"> &#45;fe</text>
</g>
<!-- Node8 -->
<g id="node8" class="node">
<title>Node8</title>
<polygon fill="#ffffff" stroke="#bfbfbf" points="693,-287 693,-344 722,-344 722,-287 693,-287"/>
<text text-anchor="middle" x="707.5" y="-332" font-family="Helvetica,sans-Serif" font-size="10.00" fill="#000000">int</text>
<polyline fill="none" stroke="#bfbfbf" points="693,-325 722,-325 "/>
<text text-anchor="middle" x="707.5" y="-313" font-family="Helvetica,sans-Serif" font-size="10.00" fill="#000000"> </text>
<polyline fill="none" stroke="#bfbfbf" points="693,-306 722,-306 "/>
<text text-anchor="middle" x="707.5" y="-294" font-family="Helvetica,sans-Serif" font-size="10.00" fill="#000000"> </text>
</g>
<!-- Node8&#45;&gt;Node1 -->
<g id="edge7" class="edge">
<title>Node8&#45;&gt;Node1</title>
<path fill="none" stroke="#404040" d="M692.9163,-291.6994C683.5896,-276.4782 670.7052,-255.4509 657.0218,-233.1196"/>
<polygon fill="none" stroke="#404040" points="656.9582,-233.0157 650.4127,-229.9896 650.6886,-222.7838 657.234,-225.8099 656.9582,-233.0157"/>
<text text-anchor="middle" x="718" y="-255" font-family="Helvetica,sans-Serif" font-size="10.00" fill="#000000"> +numOfRefinments</text>
<text text-anchor="middle" x="718" y="-244" font-family="Helvetica,sans-Serif" font-size="10.00" fill="#000000">&#45;dim</text>
</g>
<!-- Node9 -->
<g id="node9" class="node">
<title>Node9</title>
<polygon fill="#ffffff" stroke="#bfbfbf" points="740.5,-287 740.5,-344 832.5,-344 832.5,-287 740.5,-287"/>
<text text-anchor="middle" x="786.5" y="-332" font-family="Helvetica,sans-Serif" font-size="10.00" fill="#000000">Vector&lt; double &gt;</text>
<polyline fill="none" stroke="#bfbfbf" points="740.5,-325 832.5,-325 "/>
<text text-anchor="middle" x="786.5" y="-313" font-family="Helvetica,sans-Serif" font-size="10.00" fill="#000000"> </text>
<polyline fill="none" stroke="#bfbfbf" points="740.5,-306 832.5,-306 "/>
<text text-anchor="middle" x="786.5" y="-294" font-family="Helvetica,sans-Serif" font-size="10.00" fill="#000000"> </text>
</g>
<!-- Node9&#45;&gt;Node1 -->
<g id="edge8" class="edge">
<title>Node9&#45;&gt;Node1</title>
<path fill="none" stroke="#404040" d="M782.5823,-286.6415C779.501,-271.9408 774.0566,-254.3932 764.5,-241 738.7714,-204.9423 699.769,-175.2802 664.4602,-153.485"/>
<polygon fill="none" stroke="#404040" points="664.4076,-153.4534 657.2041,-153.7842 654.1282,-147.262 661.3317,-146.9312 664.4076,-153.4534"/>
<text text-anchor="middle" x="802" y="-255" font-family="Helvetica,sans-Serif" font-size="10.00" fill="#000000"> &#45;solution</text>
<text text-anchor="middle" x="802" y="-244" font-family="Helvetica,sans-Serif" font-size="10.00" fill="#000000">&#45;system_rhs</text>
</g>
<!-- Node10 -->
<g id="node10" class="node">
<title>Node10</title>
<polygon fill="#ffffff" stroke="#bfbfbf" points="851,-287 851,-344 964,-344 964,-287 851,-287"/>
<text text-anchor="middle" x="907.5" y="-332" font-family="Helvetica,sans-Serif" font-size="10.00" fill="#000000">const QGauss&lt; dim &gt;</text>
<polyline fill="none" stroke="#bfbfbf" points="851,-325 964,-325 "/>
<text text-anchor="middle" x="907.5" y="-313" font-family="Helvetica,sans-Serif" font-size="10.00" fill="#000000"> </text>
<polyline fill="none" stroke="#bfbfbf" points="851,-306 964,-306 "/>
<text text-anchor="middle" x="907.5" y="-294" font-family="Helvetica,sans-Serif" font-size="10.00" fill="#000000"> </text>
</g>
<!-- Node10&#45;&gt;Node1 -->
<g id="edge9" class="edge">
<title>Node10&#45;&gt;Node1</title>
<path fill="none" stroke="#404040" d="M882.9772,-286.8028C869.3743,-271.9726 851.5849,-254.2565 833.5,-241 781.1813,-202.6497 715.9063,-169.3529 665.0376,-146.128"/>
<polygon fill="none" stroke="#404040" points="665.0197,-146.12 657.9051,-147.2956 654.0835,-141.1803 661.1982,-140.0048 665.0197,-146.12"/>
<text text-anchor="middle" x="902.5" y="-249.5" font-family="Helvetica,sans-Serif" font-size="10.00" fill="#000000"> &#45;quadrature_formula</text>
</g>
<!-- Node11 -->
<g id="node11" class="node">
<title>Node11</title>
<polygon fill="#ffffff" stroke="#bfbfbf" points="982,-287 982,-344 1103,-344 1103,-287 982,-287"/>
<text text-anchor="middle" x="1042.5" y="-332" font-family="Helvetica,sans-Serif" font-size="10.00" fill="#000000">SparseMatrix&lt; double &gt;</text>
<polyline fill="none" stroke="#bfbfbf" points="982,-325 1103,-325 "/>
<text text-anchor="middle" x="1042.5" y="-313" font-family="Helvetica,sans-Serif" font-size="10.00" fill="#000000"> </text>
<polyline fill="none" stroke="#bfbfbf" points="982,-306 1103,-306 "/>
<text text-anchor="middle" x="1042.5" y="-294" font-family="Helvetica,sans-Serif" font-size="10.00" fill="#000000"> </text>
</g>
<!-- Node11&#45;&gt;Node1 -->
<g id="edge10" class="edge">
<title>Node11&#45;&gt;Node1</title>
<path fill="none" stroke="#404040" d="M1012.8813,-286.7594C995.9699,-271.554 973.7522,-253.4989 951.5,-241 859.6319,-189.3986 743.5347,-152.7681 666.3497,-131.9216"/>
<polygon fill="none" stroke="#404040" points="665.901,-131.802 659.0732,-134.1218 654.3058,-128.7115 661.1335,-126.3917 665.901,-131.802"/>
<text text-anchor="middle" x="1019" y="-249.5" font-family="Helvetica,sans-Serif" font-size="10.00" fill="#000000"> &#45;system_matrix</text>
</g>
</g>
</svg>
