<?xml version="1.0" encoding="UTF-8" standalone="no"?>
<!DOCTYPE svg PUBLIC "-//W3C//DTD SVG 1.1//EN"
 "http://www.w3.org/Graphics/SVG/1.1/DTD/svg11.dtd">
<!-- Generated by graphviz version 2.40.1 (20161225.0304)
 -->
<!-- Title: River::Border::GetSourcesId Pages: 1 -->
<svg width="309pt" height="66pt"
 viewBox="0.00 0.00 309.00 66.00" xmlns="http://www.w3.org/2000/svg" xmlns:xlink="http://www.w3.org/1999/xlink">
<g id="graph0" class="graph" transform="scale(1 1) rotate(0) translate(4 62)">
<title>River::Border::GetSourcesId</title>
<polygon fill="#ffffff" stroke="transparent" points="-4,4 -4,-62 305,-62 305,4 -4,4"/>
<!-- Node22 -->
<g id="node1" class="node">
<title>Node22</title>
<polygon fill="#bfbfbf" stroke="#000000" points="0,-19.5 0,-38.5 140,-38.5 140,-19.5 0,-19.5"/>
<text text-anchor="middle" x="70" y="-26.5" font-family="Helvetica,sans-Serif" font-size="10.00" fill="#000000">River::Border::GetSourcesId</text>
</g>
<!-- Node23 -->
<g id="node2" class="node">
<title>Node23</title>
<g id="a_node2"><a xlink:href="classtethex_1_1Mesh.html#a9fefc160a592f20226064d1b03b3a14d" target="_top" xlink:title="Get reference to physical points vector. ">
<polygon fill="#ffffff" stroke="#000000" points="176,-38.5 176,-57.5 301,-57.5 301,-38.5 176,-38.5"/>
<text text-anchor="middle" x="238.5" y="-45.5" font-family="Helvetica,sans-Serif" font-size="10.00" fill="#000000">tethex::Mesh::get_points</text>
</a>
</g>
</g>
<!-- Node22&#45;&gt;Node23 -->
<g id="edge1" class="edge">
<title>Node22&#45;&gt;Node23</title>
<path fill="none" stroke="#191970" d="M140.4829,-36.9476C148.8177,-37.8875 157.3373,-38.8481 165.7033,-39.7915"/>
<polygon fill="#191970" stroke="#191970" points="165.48,-43.2884 175.8092,-40.931 166.2644,-36.3325 165.48,-43.2884"/>
</g>
<!-- Node24 -->
<g id="node3" class="node">
<title>Node24</title>
<g id="a_node3"><a xlink:href="classRiver_1_1Border.html#a953fd3059a1d32edc34eefbc1ed1ae66" target="_top" xlink:title="Checks if point id value represents source. ">
<polygon fill="#ffffff" stroke="#000000" points="179,-.5 179,-19.5 298,-19.5 298,-.5 179,-.5"/>
<text text-anchor="middle" x="238.5" y="-7.5" font-family="Helvetica,sans-Serif" font-size="10.00" fill="#000000">River::Border::IsSource</text>
</a>
</g>
</g>
<!-- Node22&#45;&gt;Node24 -->
<g id="edge2" class="edge">
<title>Node22&#45;&gt;Node24</title>
<path fill="none" stroke="#191970" d="M140.4829,-21.0524C149.8872,-19.9919 159.5267,-18.905 168.9156,-17.8463"/>
<polygon fill="#191970" stroke="#191970" points="169.4373,-21.3098 178.9821,-16.7112 168.6528,-14.3538 169.4373,-21.3098"/>
</g>
</g>
</svg>
