<?xml version="1.0" encoding="UTF-8" standalone="no"?>
<!DOCTYPE svg PUBLIC "-//W3C//DTD SVG 1.1//EN"
 "http://www.w3.org/Graphics/SVG/1.1/DTD/svg11.dtd">
<!-- Generated by graphviz version 2.40.1 (20161225.0304)
 -->
<!-- Title: tethex::Mesh::set_lines Pages: 1 -->
<svg width="524pt" height="76pt"
 viewBox="0.00 0.00 524.00 75.50" xmlns="http://www.w3.org/2000/svg" xmlns:xlink="http://www.w3.org/1999/xlink">
<g id="graph0" class="graph" transform="scale(1 1) rotate(0) translate(4 71.5)">
<title>tethex::Mesh::set_lines</title>
<polygon fill="#ffffff" stroke="transparent" points="-4,4 -4,-71.5 520,-71.5 520,4 -4,4"/>
<!-- Node195 -->
<g id="node1" class="node">
<title>Node195</title>
<polygon fill="#bfbfbf" stroke="#000000" points="0,-28 0,-47 119,-47 119,-28 0,-28"/>
<text text-anchor="middle" x="59.5" y="-35" font-family="Helvetica,sans-Serif" font-size="10.00" fill="#000000">tethex::Mesh::set_lines</text>
</g>
<!-- Node196 -->
<g id="node2" class="node">
<title>Node196</title>
<g id="a_node2"><a xlink:href="classRiver_1_1Border.html#a15c063e3c9acabf547dfa4b2d815c42d" target="_top" xlink:title="Initializes Border::borderMesh object of type tethex::Mesh by setting lines and vertices to rectangul...">
<polygon fill="#ffffff" stroke="#000000" points="285,-48 285,-67 442,-67 442,-48 285,-48"/>
<text text-anchor="middle" x="363.5" y="-55" font-family="Helvetica,sans-Serif" font-size="10.00" fill="#000000">River::Border::MakeRectangular</text>
</a>
</g>
</g>
<!-- Node195&#45;&gt;Node196 -->
<g id="edge1" class="edge">
<title>Node195&#45;&gt;Node196</title>
<path fill="none" stroke="#191970" d="M129.4656,-42.103C175.8736,-45.1562 236.8477,-49.1676 284.9237,-52.3305"/>
<polygon fill="#191970" stroke="#191970" points="129.4061,-38.5916 119.1979,-41.4275 128.9465,-45.5765 129.4061,-38.5916"/>
</g>
<!-- Node198 -->
<g id="node4" class="node">
<title>Node198</title>
<g id="a_node4"><a xlink:href="classRiver_1_1Triangle.html#ace837080fe12b6a062b3256288885d74" target="_top" xlink:title="Converts triangulateio to tethex::Mesh used by rest of program. ">
<polygon fill="#ffffff" stroke="#000000" points="155,-.5 155,-30.5 249,-30.5 249,-.5 155,-.5"/>
<text text-anchor="start" x="163" y="-18.5" font-family="Helvetica,sans-Serif" font-size="10.00" fill="#000000">River::Triangle::io</text>
<text text-anchor="middle" x="202" y="-7.5" font-family="Helvetica,sans-Serif" font-size="10.00" fill="#000000">_to_tethex</text>
</a>
</g>
</g>
<!-- Node195&#45;&gt;Node198 -->
<g id="edge3" class="edge">
<title>Node195&#45;&gt;Node198</title>
<path fill="none" stroke="#191970" d="M129.2208,-26.7361C137.874,-25.4001 146.5573,-24.0596 154.7599,-22.7932"/>
<polygon fill="#191970" stroke="#191970" points="128.456,-23.3126 119.1072,-28.2975 129.5241,-30.2306 128.456,-23.3126"/>
</g>
<!-- Node197 -->
<g id="node3" class="node">
<title>Node197</title>
<g id="a_node3"><a xlink:href="main_8cpp.html#a0ddf1224851353fc92bfbff6f499fa97" target="_top" xlink:title="Entry point of RiverSim program. ">
<polygon fill="#ffffff" stroke="#000000" points="478,-28 478,-47 516,-47 516,-28 478,-28"/>
<text text-anchor="middle" x="497" y="-35" font-family="Helvetica,sans-Serif" font-size="10.00" fill="#000000">main</text>
</a>
</g>
</g>
<!-- Node196&#45;&gt;Node197 -->
<g id="edge2" class="edge">
<title>Node196&#45;&gt;Node197</title>
<path fill="none" stroke="#191970" d="M437.1118,-46.472C452.2597,-44.2027 466.9312,-42.0047 477.9614,-40.3522"/>
<polygon fill="#191970" stroke="#191970" points="436.4932,-43.0255 427.1221,-47.9686 437.5303,-49.9483 436.4932,-43.0255"/>
</g>
<!-- Node199 -->
<g id="node5" class="node">
<title>Node199</title>
<g id="a_node5"><a xlink:href="classRiver_1_1Triangle.html#a7bc9c5a5297dee136ab1489a923182dd" target="_top" xlink:title="Generate mesh. ">
<polygon fill="#ffffff" stroke="#000000" points="301.5,-9 301.5,-28 425.5,-28 425.5,-9 301.5,-9"/>
<text text-anchor="middle" x="363.5" y="-16" font-family="Helvetica,sans-Serif" font-size="10.00" fill="#000000">River::Triangle::generate</text>
</a>
</g>
</g>
<!-- Node198&#45;&gt;Node199 -->
<g id="edge4" class="edge">
<title>Node198&#45;&gt;Node199</title>
<path fill="none" stroke="#191970" d="M259.3215,-16.5648C272.9117,-16.8172 287.4712,-17.0877 301.2683,-17.344"/>
<polygon fill="#191970" stroke="#191970" points="259.2099,-13.0622 249.1466,-16.3758 259.0799,-20.061 259.2099,-13.0622"/>
</g>
<!-- Node199&#45;&gt;Node197 -->
<g id="edge5" class="edge">
<title>Node199&#45;&gt;Node197</title>
<path fill="none" stroke="#191970" d="M435.7776,-28.7867C451.2922,-30.9948 466.4059,-33.1458 477.735,-34.7582"/>
<polygon fill="#191970" stroke="#191970" points="435.9535,-25.2765 425.5601,-27.3325 434.9671,-32.2067 435.9535,-25.2765"/>
</g>
</g>
</svg>
