<?xml version="1.0" encoding="UTF-8" standalone="no"?>
<!DOCTYPE svg PUBLIC "-//W3C//DTD SVG 1.1//EN"
 "http://www.w3.org/Graphics/SVG/1.1/DTD/svg11.dtd">
<!-- Generated by graphviz version 2.40.1 (20161225.0304)
 -->
<!-- Title: River::GeomPoint::rotate Pages: 1 -->
<svg width="1017pt" height="170pt"
 viewBox="0.00 0.00 1017.00 169.50" xmlns="http://www.w3.org/2000/svg" xmlns:xlink="http://www.w3.org/1999/xlink">
<g id="graph0" class="graph" transform="scale(1 1) rotate(0) translate(4 165.5)">
<title>River::GeomPoint::rotate</title>
<polygon fill="#ffffff" stroke="transparent" points="-4,4 -4,-165.5 1013,-165.5 1013,4 -4,4"/>
<!-- Node17 -->
<g id="node1" class="node">
<title>Node17</title>
<polygon fill="#bfbfbf" stroke="#000000" points="0,-57.5 0,-76.5 125,-76.5 125,-57.5 0,-57.5"/>
<text text-anchor="middle" x="62.5" y="-64.5" font-family="Helvetica,sans-Serif" font-size="10.00" fill="#000000">River::GeomPoint::rotate</text>
</g>
<!-- Node18 -->
<g id="node2" class="node">
<title>Node18</title>
<g id="a_node2"><a xlink:href="classRiver_1_1Branch.html#a67e24ea2b1f521a1af4193fb7a9c0bed" target="_top" xlink:title="River::Branch::splitPoint">
<polygon fill="#ffffff" stroke="#000000" points="161,-57.5 161,-76.5 284,-76.5 284,-57.5 161,-57.5"/>
<text text-anchor="middle" x="222.5" y="-64.5" font-family="Helvetica,sans-Serif" font-size="10.00" fill="#000000">River::Branch::splitPoint</text>
</a>
</g>
</g>
<!-- Node17&#45;&gt;Node18 -->
<g id="edge1" class="edge">
<title>Node17&#45;&gt;Node18</title>
<path fill="none" stroke="#191970" d="M135.5545,-67C144.0442,-67 152.6391,-67 160.9527,-67"/>
<polygon fill="#191970" stroke="#191970" points="135.2771,-63.5001 125.277,-67 135.277,-70.5001 135.2771,-63.5001"/>
</g>
<!-- Node19 -->
<g id="node3" class="node">
<title>Node19</title>
<g id="a_node3"><a xlink:href="classRiver_1_1Branch.html#ac530394680fc8ab073033352f251fe17" target="_top" xlink:title="River::Branch::Branch">
<polygon fill="#ffffff" stroke="#000000" points="327.5,-114.5 327.5,-133.5 440.5,-133.5 440.5,-114.5 327.5,-114.5"/>
<text text-anchor="middle" x="384" y="-121.5" font-family="Helvetica,sans-Serif" font-size="10.00" fill="#000000">River::Branch::Branch</text>
</a>
</g>
</g>
<!-- Node18&#45;&gt;Node19 -->
<g id="edge2" class="edge">
<title>Node18&#45;&gt;Node19</title>
<path fill="none" stroke="#191970" d="M254.8687,-80.3941C273.7276,-88.0017 298.0471,-97.4779 320,-105 329.6489,-108.3062 340.2266,-111.5845 349.9545,-114.4634"/>
<polygon fill="#191970" stroke="#191970" points="256.1279,-77.1279 245.5459,-76.6064 253.493,-83.6131 256.1279,-77.1279"/>
</g>
<!-- Node26 -->
<g id="node8" class="node">
<title>Node26</title>
<g id="a_node8"><a xlink:href="classRiver_1_1Branch.html#ac61fc55a34a62822e8d633b5b683361c" target="_top" xlink:title="River::Branch::addPoint">
<polygon fill="#ffffff" stroke="#000000" points="323.5,-76.5 323.5,-95.5 444.5,-95.5 444.5,-76.5 323.5,-76.5"/>
<text text-anchor="middle" x="384" y="-83.5" font-family="Helvetica,sans-Serif" font-size="10.00" fill="#000000">River::Branch::addPoint</text>
</a>
</g>
</g>
<!-- Node18&#45;&gt;Node26 -->
<g id="edge7" class="edge">
<title>Node18&#45;&gt;Node26</title>
<path fill="none" stroke="#191970" d="M294.1285,-75.4269C303.9181,-76.5786 313.8887,-77.7516 323.4551,-78.8771"/>
<polygon fill="#191970" stroke="#191970" points="294.3574,-71.9298 284.0169,-74.2373 293.5395,-78.8818 294.3574,-71.9298"/>
</g>
<!-- Node27 -->
<g id="node9" class="node">
<title>Node27</title>
<g id="a_node9"><a xlink:href="classRiver_1_1Branch.html#ad1c529a3eae4a3a33cdc6de391218e0a" target="_top" xlink:title="River::Branch::addDPoint">
<polygon fill="#ffffff" stroke="#000000" points="320,-38.5 320,-57.5 448,-57.5 448,-38.5 320,-38.5"/>
<text text-anchor="middle" x="384" y="-45.5" font-family="Helvetica,sans-Serif" font-size="10.00" fill="#000000">River::Branch::addDPoint</text>
</a>
</g>
</g>
<!-- Node18&#45;&gt;Node27 -->
<g id="edge8" class="edge">
<title>Node18&#45;&gt;Node27</title>
<path fill="none" stroke="#191970" d="M294.0582,-58.5814C302.6878,-57.5661 311.4593,-56.5342 319.9716,-55.5328"/>
<polygon fill="#191970" stroke="#191970" points="293.5395,-55.1182 284.0169,-59.7627 294.3574,-62.0702 293.5395,-55.1182"/>
</g>
<!-- Node28 -->
<g id="node10" class="node">
<title>Node28</title>
<g id="a_node10"><a xlink:href="classRiver_1_1Branch.html#ae0516312626bf41418d5aa1d536e11ea" target="_top" xlink:title="River::Branch::addPolar">
<polygon fill="#ffffff" stroke="#000000" points="323.5,-.5 323.5,-19.5 444.5,-19.5 444.5,-.5 323.5,-.5"/>
<text text-anchor="middle" x="384" y="-7.5" font-family="Helvetica,sans-Serif" font-size="10.00" fill="#000000">River::Branch::addPolar</text>
</a>
</g>
</g>
<!-- Node18&#45;&gt;Node28 -->
<g id="edge9" class="edge">
<title>Node18&#45;&gt;Node28</title>
<path fill="none" stroke="#191970" d="M254.8687,-53.6059C273.7276,-45.9983 298.0471,-36.5221 320,-29 329.6489,-25.6938 340.2266,-22.4155 349.9545,-19.5366"/>
<polygon fill="#191970" stroke="#191970" points="253.493,-50.3869 245.5459,-57.3936 256.1279,-56.8721 253.493,-50.3869"/>
</g>
<!-- Node20 -->
<g id="node4" class="node">
<title>Node20</title>
<g id="a_node4"><a xlink:href="classRiver_1_1Geometry.html#a0c430d5eb103fe6016b805dc5278d247" target="_top" xlink:title="River::Geometry::initiate\lRootBranch">
<polygon fill="#ffffff" stroke="#000000" points="503,-131 503,-161 626,-161 626,-131 503,-131"/>
<text text-anchor="start" x="511" y="-149" font-family="Helvetica,sans-Serif" font-size="10.00" fill="#000000">River::Geometry::initiate</text>
<text text-anchor="middle" x="564.5" y="-138" font-family="Helvetica,sans-Serif" font-size="10.00" fill="#000000">RootBranch</text>
</a>
</g>
</g>
<!-- Node19&#45;&gt;Node20 -->
<g id="edge3" class="edge">
<title>Node19&#45;&gt;Node20</title>
<path fill="none" stroke="#191970" d="M450.9969,-132.1658C467.9507,-134.2322 486.0793,-136.4418 502.7599,-138.4749"/>
<polygon fill="#191970" stroke="#191970" points="450.9661,-128.6363 440.6161,-130.9006 450.1191,-135.5848 450.9661,-128.6363"/>
</g>
<!-- Node21 -->
<g id="node5" class="node">
<title>Node21</title>
<g id="a_node5"><a xlink:href="classRiver_1_1Geometry.html#a2e00a634a0e948570540a2ab47335478" target="_top" xlink:title="River::Geometry::AddBiffurcation">
<polygon fill="#ffffff" stroke="#000000" points="484,-92.5 484,-111.5 645,-111.5 645,-92.5 484,-92.5"/>
<text text-anchor="middle" x="564.5" y="-99.5" font-family="Helvetica,sans-Serif" font-size="10.00" fill="#000000">River::Geometry::AddBiffurcation</text>
</a>
</g>
</g>
<!-- Node19&#45;&gt;Node21 -->
<g id="edge4" class="edge">
<title>Node19&#45;&gt;Node21</title>
<path fill="none" stroke="#191970" d="M450.6404,-115.8776C462.2352,-114.4644 474.3893,-112.983 486.261,-111.5361"/>
<polygon fill="#191970" stroke="#191970" points="450.1191,-112.4152 440.6161,-117.0994 450.9661,-119.3637 450.1191,-112.4152"/>
</g>
<!-- Node22 -->
<g id="node6" class="node">
<title>Node22</title>
<g id="a_node6"><a xlink:href="namespaceRiver_1_1SimpleGeo.html#aaeaf0931007ed0bb3f04ffe517b90708" target="_top" xlink:title="River::SimpleGeo::AddBranches">
<polygon fill="#ffffff" stroke="#000000" points="681,-92.5 681,-111.5 839,-111.5 839,-92.5 681,-92.5"/>
<text text-anchor="middle" x="760" y="-99.5" font-family="Helvetica,sans-Serif" font-size="10.00" fill="#000000">River::SimpleGeo::AddBranches</text>
</a>
</g>
</g>
<!-- Node21&#45;&gt;Node22 -->
<g id="edge5" class="edge">
<title>Node21&#45;&gt;Node22</title>
<path fill="none" stroke="#191970" d="M655.151,-102C663.7158,-102 672.3536,-102 680.7997,-102"/>
<polygon fill="#191970" stroke="#191970" points="655.1461,-98.5001 645.146,-102 655.146,-105.5001 655.1461,-98.5001"/>
</g>
<!-- Node23 -->
<g id="node7" class="node">
<title>Node23</title>
<g id="a_node7"><a xlink:href="namespaceRiver_1_1SimpleGeo.html#ab6e4b434f7b71839df562edbc13ddb5b" target="_top" xlink:title="River::SimpleGeo::Custom\lRiverTree">
<polygon fill="#ffffff" stroke="#ff0000" points="875,-87 875,-117 1009,-117 1009,-87 875,-87"/>
<text text-anchor="start" x="883" y="-105" font-family="Helvetica,sans-Serif" font-size="10.00" fill="#000000">River::SimpleGeo::Custom</text>
<text text-anchor="middle" x="942" y="-94" font-family="Helvetica,sans-Serif" font-size="10.00" fill="#000000">RiverTree</text>
</a>
</g>
</g>
<!-- Node22&#45;&gt;Node23 -->
<g id="edge6" class="edge">
<title>Node22&#45;&gt;Node23</title>
<path fill="none" stroke="#191970" d="M849.118,-102C857.7327,-102 866.37,-102 874.7208,-102"/>
<polygon fill="#191970" stroke="#191970" points="849.0339,-98.5001 839.0338,-102 849.0338,-105.5001 849.0339,-98.5001"/>
</g>
</g>
</svg>
