<?xml version="1.0" encoding="UTF-8" standalone="no"?>
<!DOCTYPE svg PUBLIC "-//W3C//DTD SVG 1.1//EN"
 "http://www.w3.org/Graphics/SVG/1.1/DTD/svg11.dtd">
<!-- Generated by graphviz version 2.40.1 (20161225.0304)
 -->
<!-- Title: nlohmann::detail::binary_reader::unexpect_eof Pages: 1 -->
<svg width="454pt" height="39pt"
 viewBox="0.00 0.00 454.00 39.00" xmlns="http://www.w3.org/2000/svg" xmlns:xlink="http://www.w3.org/1999/xlink">
<g id="graph0" class="graph" transform="scale(1 1) rotate(0) translate(4 35)">
<title>nlohmann::detail::binary_reader::unexpect_eof</title>
<polygon fill="#ffffff" stroke="transparent" points="-4,4 -4,-35 450,-35 450,4 -4,4"/>
<!-- Node96 -->
<g id="node1" class="node">
<title>Node96</title>
<polygon fill="#bfbfbf" stroke="#000000" points="0,-.5 0,-30.5 120,-30.5 120,-.5 0,-.5"/>
<text text-anchor="start" x="8" y="-18.5" font-family="Helvetica,sans-Serif" font-size="10.00" fill="#000000">nlohmann::detail::binary</text>
<text text-anchor="middle" x="60" y="-7.5" font-family="Helvetica,sans-Serif" font-size="10.00" fill="#000000">_reader::unexpect_eof</text>
</g>
<!-- Node97 -->
<g id="node2" class="node">
<title>Node97</title>
<g id="a_node2"><a xlink:href="classnlohmann_1_1detail_1_1parse__error.html#a137ea4d27de45d8a844fd13451d40f3d" target="_top" xlink:title="create a parse error exception ">
<polygon fill="#ffffff" stroke="#000000" points="156,-.5 156,-30.5 274,-30.5 274,-.5 156,-.5"/>
<text text-anchor="start" x="164" y="-18.5" font-family="Helvetica,sans-Serif" font-size="10.00" fill="#000000">nlohmann::detail::parse</text>
<text text-anchor="middle" x="215" y="-7.5" font-family="Helvetica,sans-Serif" font-size="10.00" fill="#000000">_error::create</text>
</a>
</g>
</g>
<!-- Node96&#45;&gt;Node97 -->
<g id="edge1" class="edge">
<title>Node96&#45;&gt;Node97</title>
<path fill="none" stroke="#191970" d="M120.3709,-15.5C128.65,-15.5 137.2037,-15.5 145.6278,-15.5"/>
<polygon fill="#191970" stroke="#191970" points="145.8121,-19.0001 155.812,-15.5 145.812,-12.0001 145.8121,-19.0001"/>
</g>
<!-- Node98 -->
<g id="node3" class="node">
<title>Node98</title>
<g id="a_node3"><a xlink:href="classnlohmann_1_1detail_1_1exception.html#abf41a7e9178356314082284e6cfea278" target="_top" xlink:title="nlohmann::detail::exception\l::name">
<polygon fill="#ffffff" stroke="#000000" points="310,-.5 310,-30.5 446,-30.5 446,-.5 310,-.5"/>
<text text-anchor="start" x="318" y="-18.5" font-family="Helvetica,sans-Serif" font-size="10.00" fill="#000000">nlohmann::detail::exception</text>
<text text-anchor="middle" x="378" y="-7.5" font-family="Helvetica,sans-Serif" font-size="10.00" fill="#000000">::name</text>
</a>
</g>
</g>
<!-- Node97&#45;&gt;Node98 -->
<g id="edge2" class="edge">
<title>Node97&#45;&gt;Node98</title>
<path fill="none" stroke="#191970" d="M274.3078,-15.5C282.6169,-15.5 291.259,-15.5 299.8515,-15.5"/>
<polygon fill="#191970" stroke="#191970" points="299.8924,-19.0001 309.8924,-15.5 299.8924,-12.0001 299.8924,-19.0001"/>
</g>
</g>
</svg>
