<?xml version="1.0" encoding="UTF-8" standalone="no"?>
<!DOCTYPE svg PUBLIC "-//W3C//DTD SVG 1.1//EN"
 "http://www.w3.org/Graphics/SVG/1.1/DTD/svg11.dtd">
<!-- Generated by graphviz version 2.40.1 (20161225.0304)
 -->
<!-- Title: River::Model Pages: 1 -->
<svg width="199pt" height="281pt"
 viewBox="0.00 0.00 198.50 281.00" xmlns="http://www.w3.org/2000/svg" xmlns:xlink="http://www.w3.org/1999/xlink">
<g id="graph0" class="graph" transform="scale(1 1) rotate(0) translate(4 277)">
<title>River::Model</title>
<polygon fill="#ffffff" stroke="transparent" points="-4,4 -4,-277 194.5,-277 194.5,4 -4,4"/>
<!-- Node1 -->
<g id="node1" class="node">
<title>Node1</title>
<polygon fill="#bfbfbf" stroke="#000000" points="33.5,-.5 33.5,-90.5 133.5,-90.5 133.5,-.5 33.5,-.5"/>
<text text-anchor="middle" x="83.5" y="-78.5" font-family="Helvetica,sans-Serif" font-size="10.00" fill="#000000">River::Model</text>
<polyline fill="none" stroke="#000000" points="33.5,-71.5 133.5,-71.5 "/>
<text text-anchor="middle" x="83.5" y="-59.5" font-family="Helvetica,sans-Serif" font-size="10.00" fill="#000000"> </text>
<polyline fill="none" stroke="#000000" points="33.5,-52.5 133.5,-52.5 "/>
<text text-anchor="start" x="41.5" y="-40.5" font-family="Helvetica,sans-Serif" font-size="10.00" fill="#000000">+ q_biffurcate()</text>
<text text-anchor="start" x="41.5" y="-29.5" font-family="Helvetica,sans-Serif" font-size="10.00" fill="#000000">+ next_point()</text>
<text text-anchor="start" x="41.5" y="-18.5" font-family="Helvetica,sans-Serif" font-size="10.00" fill="#000000">+ WeightFunction()</text>
<text text-anchor="start" x="41.5" y="-7.5" font-family="Helvetica,sans-Serif" font-size="10.00" fill="#000000">+ BaseVector()</text>
</g>
<!-- Node2 -->
<g id="node2" class="node">
<title>Node2</title>
<polygon fill="#ffffff" stroke="#bfbfbf" points="0,-215.5 0,-272.5 45,-272.5 45,-215.5 0,-215.5"/>
<text text-anchor="middle" x="22.5" y="-260.5" font-family="Helvetica,sans-Serif" font-size="10.00" fill="#000000">double</text>
<polyline fill="none" stroke="#bfbfbf" points="0,-253.5 45,-253.5 "/>
<text text-anchor="middle" x="22.5" y="-241.5" font-family="Helvetica,sans-Serif" font-size="10.00" fill="#000000"> </text>
<polyline fill="none" stroke="#bfbfbf" points="0,-234.5 45,-234.5 "/>
<text text-anchor="middle" x="22.5" y="-222.5" font-family="Helvetica,sans-Serif" font-size="10.00" fill="#000000"> </text>
</g>
<!-- Node2&#45;&gt;Node1 -->
<g id="edge1" class="edge">
<title>Node2&#45;&gt;Node1</title>
<path fill="none" stroke="#404040" d="M16.8349,-215.4348C12.5804,-187.2803 9.5997,-143.5772 23.5,-109 24.6385,-106.1679 25.9689,-103.3886 27.4538,-100.6714"/>
<polygon fill="none" stroke="#404040" points="27.4593,-100.6627 27.2826,-93.4537 33.869,-90.518 34.0457,-97.7269 27.4593,-100.6627"/>
<text text-anchor="middle" x="73.5" y="-189" font-family="Helvetica,sans-Serif" font-size="10.00" fill="#000000"> +biffurcationThreshold</text>
<text text-anchor="middle" x="73.5" y="-178" font-family="Helvetica,sans-Serif" font-size="10.00" fill="#000000">+height</text>
<text text-anchor="middle" x="73.5" y="-167" font-family="Helvetica,sans-Serif" font-size="10.00" fill="#000000">+ds</text>
<text text-anchor="middle" x="73.5" y="-156" font-family="Helvetica,sans-Serif" font-size="10.00" fill="#000000">+Rmax</text>
<text text-anchor="middle" x="73.5" y="-145" font-family="Helvetica,sans-Serif" font-size="10.00" fill="#000000">+width</text>
<text text-anchor="middle" x="73.5" y="-134" font-family="Helvetica,sans-Serif" font-size="10.00" fill="#000000">+eps</text>
<text text-anchor="middle" x="73.5" y="-123" font-family="Helvetica,sans-Serif" font-size="10.00" fill="#000000">+biff_angle</text>
<text text-anchor="middle" x="73.5" y="-112" font-family="Helvetica,sans-Serif" font-size="10.00" fill="#000000">+dx</text>
</g>
<!-- Node3 -->
<g id="node3" class="node">
<title>Node3</title>
<polygon fill="#ffffff" stroke="#bfbfbf" points="131,-215.5 131,-272.5 160,-272.5 160,-215.5 131,-215.5"/>
<text text-anchor="middle" x="145.5" y="-260.5" font-family="Helvetica,sans-Serif" font-size="10.00" fill="#000000">int</text>
<polyline fill="none" stroke="#bfbfbf" points="131,-253.5 160,-253.5 "/>
<text text-anchor="middle" x="145.5" y="-241.5" font-family="Helvetica,sans-Serif" font-size="10.00" fill="#000000"> </text>
<polyline fill="none" stroke="#bfbfbf" points="131,-234.5 160,-234.5 "/>
<text text-anchor="middle" x="145.5" y="-222.5" font-family="Helvetica,sans-Serif" font-size="10.00" fill="#000000"> </text>
</g>
<!-- Node3&#45;&gt;Node1 -->
<g id="edge2" class="edge">
<title>Node3&#45;&gt;Node1</title>
<path fill="none" stroke="#404040" d="M144.1552,-215.4876C142.0823,-187.5637 136.8237,-144.2013 123.5,-109 122.5992,-106.62 121.603,-104.2336 120.5312,-101.8555"/>
<polygon fill="none" stroke="#404040" points="120.3948,-101.5819 114.1373,-97.9982 115.0386,-90.8436 121.2962,-94.4274 120.3948,-101.5819"/>
<text text-anchor="middle" x="166" y="-150.5" font-family="Helvetica,sans-Serif" font-size="10.00" fill="#000000"> +exponant</text>
</g>
</g>
</svg>
