<?xml version="1.0" encoding="UTF-8" standalone="no"?>
<!DOCTYPE svg PUBLIC "-//W3C//DTD SVG 1.1//EN"
 "http://www.w3.org/Graphics/SVG/1.1/DTD/svg11.dtd">
<!-- Generated by graphviz version 2.40.1 (20161225.0304)
 -->
<!-- Title: River::Solver::SetMesh Pages: 1 -->
<svg width="410pt" height="303pt"
 viewBox="0.00 0.00 410.00 302.50" xmlns="http://www.w3.org/2000/svg" xmlns:xlink="http://www.w3.org/1999/xlink">
<g id="graph0" class="graph" transform="scale(1 1) rotate(0) translate(4 298.5)">
<title>River::Solver::SetMesh</title>
<polygon fill="#ffffff" stroke="transparent" points="-4,4 -4,-298.5 406,-298.5 406,4 -4,4"/>
<!-- Node7 -->
<g id="node1" class="node">
<title>Node7</title>
<polygon fill="#bfbfbf" stroke="#000000" points="0,-137.5 0,-156.5 119,-156.5 119,-137.5 0,-137.5"/>
<text text-anchor="middle" x="59.5" y="-144.5" font-family="Helvetica,sans-Serif" font-size="10.00" fill="#000000">River::Solver::SetMesh</text>
</g>
<!-- Node8 -->
<g id="node2" class="node">
<title>Node8</title>
<g id="a_node2"><a xlink:href="classtethex_1_1Mesh.html#a7aa9c2737b989945d2d233f7200cb3ac" target="_top" xlink:title="Get the number of vertices. ">
<polygon fill="#ffffff" stroke="#000000" points="176,-264 176,-294 280,-294 280,-264 176,-264"/>
<text text-anchor="start" x="184" y="-282" font-family="Helvetica,sans-Serif" font-size="10.00" fill="#000000">tethex::Mesh::get_n</text>
<text text-anchor="middle" x="228" y="-271" font-family="Helvetica,sans-Serif" font-size="10.00" fill="#000000">_vertices</text>
</a>
</g>
</g>
<!-- Node7&#45;&gt;Node8 -->
<g id="edge1" class="edge">
<title>Node7&#45;&gt;Node8</title>
<path fill="none" stroke="#191970" d="M65.6599,-156.7896C79.2596,-177.6369 113.9258,-226.7336 155,-254 158.5785,-256.3755 162.4057,-258.5481 166.3631,-260.5314"/>
<polygon fill="#191970" stroke="#191970" points="165.2269,-263.8599 175.778,-264.8219 168.1297,-257.4901 165.2269,-263.8599"/>
</g>
<!-- Node9 -->
<g id="node3" class="node">
<title>Node9</title>
<g id="a_node3"><a xlink:href="classtethex_1_1Mesh.html#aea31733cbb3d4e47252da53a253ec9b8" target="_top" xlink:title="Get the copy of vertex. ">
<polygon fill="#ffffff" stroke="#000000" points="165.5,-225.5 165.5,-244.5 290.5,-244.5 290.5,-225.5 165.5,-225.5"/>
<text text-anchor="middle" x="228" y="-232.5" font-family="Helvetica,sans-Serif" font-size="10.00" fill="#000000">tethex::Mesh::get_vertex</text>
</a>
</g>
</g>
<!-- Node7&#45;&gt;Node9 -->
<g id="edge2" class="edge">
<title>Node7&#45;&gt;Node9</title>
<path fill="none" stroke="#191970" d="M70.1068,-156.7416C86.8861,-171.6451 121.1357,-200.0511 155,-216 160.0353,-218.3714 165.4106,-220.4791 170.8744,-222.3453"/>
<polygon fill="#191970" stroke="#191970" points="170.1609,-225.7898 180.7502,-225.4484 172.2593,-219.1117 170.1609,-225.7898"/>
</g>
<!-- Node11 -->
<g id="node5" class="node">
<title>Node11</title>
<g id="a_node5"><a xlink:href="classtethex_1_1Mesh.html#a1a776b3e42d2abc98be5d5ea89d46b1f" target="_top" xlink:title="Get the number of tetrahedra. ">
<polygon fill="#ffffff" stroke="#000000" points="176,-176 176,-206 280,-206 280,-176 176,-176"/>
<text text-anchor="start" x="184" y="-194" font-family="Helvetica,sans-Serif" font-size="10.00" fill="#000000">tethex::Mesh::get_n</text>
<text text-anchor="middle" x="228" y="-183" font-family="Helvetica,sans-Serif" font-size="10.00" fill="#000000">_quadrangles</text>
</a>
</g>
</g>
<!-- Node7&#45;&gt;Node11 -->
<g id="edge4" class="edge">
<title>Node7&#45;&gt;Node11</title>
<path fill="none" stroke="#191970" d="M96.062,-156.5473C116.4729,-161.8772 142.4517,-168.661 165.9497,-174.797"/>
<polygon fill="#191970" stroke="#191970" points="165.285,-178.2407 175.8449,-177.3809 167.0536,-171.4678 165.285,-178.2407"/>
</g>
<!-- Node12 -->
<g id="node6" class="node">
<title>Node12</title>
<g id="a_node6"><a xlink:href="classtethex_1_1Mesh.html#a5737e6675d86cce7410b4b690f25618f" target="_top" xlink:title="Get the mesh quadrangle. ">
<polygon fill="#ffffff" stroke="#000000" points="155,-137.5 155,-156.5 301,-156.5 301,-137.5 155,-137.5"/>
<text text-anchor="middle" x="228" y="-144.5" font-family="Helvetica,sans-Serif" font-size="10.00" fill="#000000">tethex::Mesh::get_quadrangle</text>
</a>
</g>
</g>
<!-- Node7&#45;&gt;Node12 -->
<g id="edge5" class="edge">
<title>Node7&#45;&gt;Node12</title>
<path fill="none" stroke="#191970" d="M119.3812,-147C127.6079,-147 136.1737,-147 144.7261,-147"/>
<polygon fill="#191970" stroke="#191970" points="144.7387,-150.5001 154.7386,-147 144.7386,-143.5001 144.7387,-150.5001"/>
</g>
<!-- Node13 -->
<g id="node7" class="node">
<title>Node13</title>
<g id="a_node7"><a xlink:href="classtethex_1_1MeshElement.html#a44ac13c3270bbf9d70c7e0ea85809979" target="_top" xlink:title="Get the material ID of the element. ">
<polygon fill="#ffffff" stroke="#000000" points="173,-88 173,-118 283,-118 283,-88 173,-88"/>
<text text-anchor="start" x="181" y="-106" font-family="Helvetica,sans-Serif" font-size="10.00" fill="#000000">tethex::MeshElement</text>
<text text-anchor="middle" x="228" y="-95" font-family="Helvetica,sans-Serif" font-size="10.00" fill="#000000">::get_material_id</text>
</a>
</g>
</g>
<!-- Node7&#45;&gt;Node13 -->
<g id="edge7" class="edge">
<title>Node7&#45;&gt;Node13</title>
<path fill="none" stroke="#191970" d="M96.062,-137.4527C115.6229,-132.3448 140.2978,-125.9015 163.0019,-119.9728"/>
<polygon fill="#191970" stroke="#191970" points="164.1376,-123.2937 172.9288,-117.3806 162.3689,-116.5208 164.1376,-123.2937"/>
</g>
<!-- Node14 -->
<g id="node8" class="node">
<title>Node14</title>
<g id="a_node8"><a xlink:href="classtethex_1_1MeshElement.html#aed911a47266af4848f1e8bdd0c89e177" target="_top" xlink:title="Get the number of vertex describing the element. ">
<polygon fill="#ffffff" stroke="#000000" points="173,-39 173,-69 283,-69 283,-39 173,-39"/>
<text text-anchor="start" x="181" y="-57" font-family="Helvetica,sans-Serif" font-size="10.00" fill="#000000">tethex::MeshElement</text>
<text text-anchor="middle" x="228" y="-46" font-family="Helvetica,sans-Serif" font-size="10.00" fill="#000000">::get_vertex</text>
</a>
</g>
</g>
<!-- Node7&#45;&gt;Node14 -->
<g id="edge8" class="edge">
<title>Node7&#45;&gt;Node14</title>
<path fill="none" stroke="#191970" d="M70.5654,-137.4806C87.6801,-123.1513 122.0468,-95.9201 155,-79 159.2455,-76.8201 163.723,-74.7628 168.2858,-72.8362"/>
<polygon fill="#191970" stroke="#191970" points="169.7352,-76.0263 177.7244,-69.0676 167.1394,-69.5253 169.7352,-76.0263"/>
</g>
<!-- Node15 -->
<g id="node9" class="node">
<title>Node15</title>
<g id="a_node9"><a xlink:href="classtethex_1_1Mesh.html#a31af01d4cca474c530bcfa8dbda990c0" target="_top" xlink:title="Get the physical line. ">
<polygon fill="#ffffff" stroke="#000000" points="171.5,-.5 171.5,-19.5 284.5,-19.5 284.5,-.5 171.5,-.5"/>
<text text-anchor="middle" x="228" y="-7.5" font-family="Helvetica,sans-Serif" font-size="10.00" fill="#000000">tethex::Mesh::get_line</text>
</a>
</g>
</g>
<!-- Node7&#45;&gt;Node15 -->
<g id="edge10" class="edge">
<title>Node7&#45;&gt;Node15</title>
<path fill="none" stroke="#191970" d="M64.5291,-137.4343C76.8108,-115.0323 110.6052,-58.8848 155,-30 158.9893,-27.4044 163.311,-25.1429 167.7912,-23.173"/>
<polygon fill="#191970" stroke="#191970" points="169.107,-26.4167 177.1543,-19.5252 166.5658,-19.8942 169.107,-26.4167"/>
</g>
<!-- Node10 -->
<g id="node4" class="node">
<title>Node10</title>
<g id="a_node4"><a xlink:href="namespacetethex.html#a31a6ad16911dd58abefe17ab46534aa4" target="_top" xlink:title="tethex::d2s">
<polygon fill="#ffffff" stroke="#000000" points="337,-90.5 337,-109.5 402,-109.5 402,-90.5 337,-90.5"/>
<text text-anchor="middle" x="369.5" y="-97.5" font-family="Helvetica,sans-Serif" font-size="10.00" fill="#000000">tethex::d2s</text>
</a>
</g>
</g>
<!-- Node9&#45;&gt;Node10 -->
<g id="edge3" class="edge">
<title>Node9&#45;&gt;Node10</title>
<path fill="none" stroke="#191970" d="M283.95,-225.399C290.0392,-222.9433 295.8761,-219.863 301,-216 334.0086,-191.1143 354.0905,-145.2958 363.3606,-119.3127"/>
<polygon fill="#191970" stroke="#191970" points="366.7876,-120.1046 366.6777,-109.5103 360.1569,-117.8607 366.7876,-120.1046"/>
</g>
<!-- Node12&#45;&gt;Node10 -->
<g id="edge6" class="edge">
<title>Node12&#45;&gt;Node10</title>
<path fill="none" stroke="#191970" d="M268.4441,-137.4995C279.115,-134.7142 290.5625,-131.4743 301,-128 313.5709,-123.8156 327.1296,-118.4587 338.8404,-113.5531"/>
<polygon fill="#191970" stroke="#191970" points="340.3523,-116.7134 348.1805,-109.5741 337.6088,-110.2734 340.3523,-116.7134"/>
</g>
<!-- Node14&#45;&gt;Node10 -->
<g id="edge9" class="edge">
<title>Node14&#45;&gt;Node10</title>
<path fill="none" stroke="#191970" d="M274.3324,-69.0621C292.3894,-74.9322 312.8651,-81.5886 330.1856,-87.2193"/>
<polygon fill="#191970" stroke="#191970" points="329.3847,-90.6392 339.9769,-90.4024 331.5489,-83.9822 329.3847,-90.6392"/>
</g>
<!-- Node15&#45;&gt;Node10 -->
<g id="edge11" class="edge">
<title>Node15&#45;&gt;Node10</title>
<path fill="none" stroke="#191970" d="M276.9774,-19.5534C285.3087,-22.2474 293.6383,-25.6686 301,-30 323.752,-43.3864 344.1009,-66.2809 356.5939,-82.228"/>
<polygon fill="#191970" stroke="#191970" points="353.86,-84.4154 362.6915,-90.2682 359.4375,-80.1855 353.86,-84.4154"/>
</g>
</g>
</svg>
