<?xml version="1.0" encoding="UTF-8" standalone="no"?>
<!DOCTYPE svg PUBLIC "-//W3C//DTD SVG 1.1//EN"
 "http://www.w3.org/Graphics/SVG/1.1/DTD/svg11.dtd">
<!-- Generated by graphviz version 2.40.1 (20161225.0304)
 -->
<!-- Title: River::ProgramOptions Pages: 1 -->
<svg width="135pt" height="171pt"
 viewBox="0.00 0.00 135.00 171.00" xmlns="http://www.w3.org/2000/svg" xmlns:xlink="http://www.w3.org/1999/xlink">
<g id="graph0" class="graph" transform="scale(1 1) rotate(0) translate(4 167)">
<title>River::ProgramOptions</title>
<polygon fill="#ffffff" stroke="transparent" points="-4,4 -4,-167 131,-167 131,4 -4,4"/>
<!-- Node1 -->
<g id="node1" class="node">
<title>Node1</title>
<polygon fill="#bfbfbf" stroke="#000000" points="0,-.5 0,-57.5 127,-57.5 127,-.5 0,-.5"/>
<text text-anchor="middle" x="63.5" y="-45.5" font-family="Helvetica,sans-Serif" font-size="10.00" fill="#000000">River::ProgramOptions</text>
<polyline fill="none" stroke="#000000" points="0,-38.5 127,-38.5 "/>
<text text-anchor="middle" x="63.5" y="-26.5" font-family="Helvetica,sans-Serif" font-size="10.00" fill="#000000"> </text>
<polyline fill="none" stroke="#000000" points="0,-19.5 127,-19.5 "/>
<text text-anchor="middle" x="63.5" y="-7.5" font-family="Helvetica,sans-Serif" font-size="10.00" fill="#000000"> </text>
</g>
<!-- Node2 -->
<g id="node2" class="node">
<title>Node2</title>
<polygon fill="#ffffff" stroke="#bfbfbf" points="44.5,-105.5 44.5,-162.5 82.5,-162.5 82.5,-105.5 44.5,-105.5"/>
<text text-anchor="middle" x="63.5" y="-150.5" font-family="Helvetica,sans-Serif" font-size="10.00" fill="#000000">bool</text>
<polyline fill="none" stroke="#bfbfbf" points="44.5,-143.5 82.5,-143.5 "/>
<text text-anchor="middle" x="63.5" y="-131.5" font-family="Helvetica,sans-Serif" font-size="10.00" fill="#000000"> </text>
<polyline fill="none" stroke="#bfbfbf" points="44.5,-124.5 82.5,-124.5 "/>
<text text-anchor="middle" x="63.5" y="-112.5" font-family="Helvetica,sans-Serif" font-size="10.00" fill="#000000"> </text>
</g>
<!-- Node2&#45;&gt;Node1 -->
<g id="edge1" class="edge">
<title>Node2&#45;&gt;Node1</title>
<path fill="none" stroke="#404040" d="M63.5,-105.3083C63.5,-94.4281 63.5,-81.817 63.5,-70.0192"/>
<polygon fill="none" stroke="#404040" points="63.5001,-69.657 59.5,-63.6571 63.5,-57.657 67.5,-63.657 63.5001,-69.657"/>
<text text-anchor="middle" x="89" y="-79" font-family="Helvetica,sans-Serif" font-size="10.00" fill="#000000"> +verbose</text>
</g>
</g>
</svg>
