<?xml version="1.0" encoding="UTF-8" standalone="no"?>
<!DOCTYPE svg PUBLIC "-//W3C//DTD SVG 1.1//EN"
 "http://www.w3.org/Graphics/SVG/1.1/DTD/svg11.dtd">
<!-- Generated by graphviz version 2.40.1 (20161225.0304)
 -->
<!-- Title: River::Solver::integrate Pages: 1 -->
<svg width="307pt" height="66pt"
 viewBox="0.00 0.00 307.00 66.00" xmlns="http://www.w3.org/2000/svg" xmlns:xlink="http://www.w3.org/1999/xlink">
<g id="graph0" class="graph" transform="scale(1 1) rotate(0) translate(4 62)">
<title>River::Solver::integrate</title>
<polygon fill="#ffffff" stroke="transparent" points="-4,4 -4,-62 303,-62 303,4 -4,4"/>
<!-- Node30 -->
<g id="node1" class="node">
<title>Node30</title>
<polygon fill="#bfbfbf" stroke="#000000" points="0,-19.5 0,-38.5 117,-38.5 117,-19.5 0,-19.5"/>
<text text-anchor="middle" x="58.5" y="-26.5" font-family="Helvetica,sans-Serif" font-size="10.00" fill="#000000">River::Solver::integrate</text>
</g>
<!-- Node31 -->
<g id="node2" class="node">
<title>Node31</title>
<g id="a_node2"><a xlink:href="classRiver_1_1Model.html#ae92c4c74d374723ca5c70f62f8d2d60e" target="_top" xlink:title="Weight function used in computation of series parameters. ">
<polygon fill="#ffffff" stroke="#000000" points="153,-38.5 153,-57.5 299,-57.5 299,-38.5 153,-38.5"/>
<text text-anchor="middle" x="226" y="-45.5" font-family="Helvetica,sans-Serif" font-size="10.00" fill="#000000">River::Model::WeightFunction</text>
</a>
</g>
</g>
<!-- Node30&#45;&gt;Node31 -->
<g id="edge1" class="edge">
<title>Node30&#45;&gt;Node31</title>
<path fill="none" stroke="#191970" d="M117.0834,-35.6453C125.3558,-36.5836 133.9894,-37.563 142.6178,-38.5417"/>
<polygon fill="#191970" stroke="#191970" points="142.3916,-42.0384 152.7224,-39.6879 143.1807,-35.083 142.3916,-42.0384"/>
</g>
<!-- Node32 -->
<g id="node3" class="node">
<title>Node32</title>
<g id="a_node3"><a xlink:href="classRiver_1_1Model.html#a052c757dc08a7cf9b48e131f1de82293" target="_top" xlink:title="Base Vector function used in computation of series parameters. ">
<polygon fill="#ffffff" stroke="#000000" points="161.5,-.5 161.5,-19.5 290.5,-19.5 290.5,-.5 161.5,-.5"/>
<text text-anchor="middle" x="226" y="-7.5" font-family="Helvetica,sans-Serif" font-size="10.00" fill="#000000">River::Model::BaseVector</text>
</a>
</g>
</g>
<!-- Node30&#45;&gt;Node32 -->
<g id="edge2" class="edge">
<title>Node30&#45;&gt;Node32</title>
<path fill="none" stroke="#191970" d="M117.0834,-22.3547C128.1742,-21.0967 139.9142,-19.765 151.4205,-18.4598"/>
<polygon fill="#191970" stroke="#191970" points="151.908,-21.927 161.4498,-17.3221 151.119,-14.9716 151.908,-21.927"/>
</g>
</g>
</svg>
