<?xml version="1.0" encoding="UTF-8" standalone="no"?>
<!DOCTYPE svg PUBLIC "-//W3C//DTD SVG 1.1//EN"
 "http://www.w3.org/Graphics/SVG/1.1/DTD/svg11.dtd">
<!-- Generated by graphviz version 2.43.0 (0)
 -->
<!-- Title: tethex::Line Pages: 1 -->
<svg width="241pt" height="497pt"
 viewBox="0.00 0.00 241.00 497.00" xmlns="http://www.w3.org/2000/svg" xmlns:xlink="http://www.w3.org/1999/xlink">
<g id="graph0" class="graph" transform="scale(1 1) rotate(0) translate(4 493)">
<title>tethex::Line</title>
<polygon fill="white" stroke="transparent" points="-4,4 -4,-493 237,-493 237,4 -4,4"/>
<!-- Node1 -->
<g id="node1" class="node">
<title>Node1</title>
<g id="a_node1"><a xlink:title="Line keeps 3 numbers &#45; the number of beginning vertex, the number of the ending one,...">
<polygon fill="#bfbfbf" stroke="black" points="0,-0.5 0,-112.5 115,-112.5 115,-0.5 0,-0.5"/>
<text text-anchor="middle" x="57.5" y="-100.5" font-family="Helvetica,sans-Serif" font-size="10.00">tethex::Line</text>
<polyline fill="none" stroke="black" points="0,-93.5 115,-93.5 "/>
<text text-anchor="middle" x="57.5" y="-81.5" font-family="Helvetica,sans-Serif" font-size="10.00"> </text>
<polyline fill="none" stroke="black" points="0,-74.5 115,-74.5 "/>
<text text-anchor="start" x="8" y="-62.5" font-family="Helvetica,sans-Serif" font-size="10.00">+ Line()</text>
<text text-anchor="start" x="8" y="-51.5" font-family="Helvetica,sans-Serif" font-size="10.00">+ Line()</text>
<text text-anchor="start" x="8" y="-40.5" font-family="Helvetica,sans-Serif" font-size="10.00">+ Line()</text>
<text text-anchor="start" x="8" y="-29.5" font-family="Helvetica,sans-Serif" font-size="10.00">+ Line()</text>
<text text-anchor="start" x="8" y="-18.5" font-family="Helvetica,sans-Serif" font-size="10.00">+ common_vertex()</text>
<text text-anchor="start" x="8" y="-7.5" font-family="Helvetica,sans-Serif" font-size="10.00">+ another_vertex()</text>
</a>
</g>
</g>
<!-- Node2 -->
<g id="node2" class="node">
<title>Node2</title>
<g id="a_node2"><a xlink:href="classtethex_1_1MeshElement.html" target="_top" xlink:title="This class implements the most part of functionality of all elements of mesh: triangles,...">
<polygon fill="white" stroke="black" points="108,-150.5 108,-350.5 233,-350.5 233,-150.5 108,-150.5"/>
<text text-anchor="middle" x="170.5" y="-338.5" font-family="Helvetica,sans-Serif" font-size="10.00">tethex::MeshElement</text>
<polyline fill="none" stroke="black" points="108,-331.5 233,-331.5 "/>
<text text-anchor="middle" x="170.5" y="-319.5" font-family="Helvetica,sans-Serif" font-size="10.00"> </text>
<polyline fill="none" stroke="black" points="108,-312.5 233,-312.5 "/>
<text text-anchor="start" x="116" y="-300.5" font-family="Helvetica,sans-Serif" font-size="10.00">+ ~MeshElement()</text>
<text text-anchor="start" x="116" y="-289.5" font-family="Helvetica,sans-Serif" font-size="10.00">+ get_n_vertices()</text>
<text text-anchor="start" x="116" y="-278.5" font-family="Helvetica,sans-Serif" font-size="10.00">+ get_n_edges()</text>
<text text-anchor="start" x="116" y="-267.5" font-family="Helvetica,sans-Serif" font-size="10.00">+ get_gmsh_el_type()</text>
<text text-anchor="start" x="116" y="-256.5" font-family="Helvetica,sans-Serif" font-size="10.00">+ get_material_id()</text>
<text text-anchor="start" x="116" y="-245.5" font-family="Helvetica,sans-Serif" font-size="10.00">+ get_vertex()</text>
<text text-anchor="start" x="116" y="-234.5" font-family="Helvetica,sans-Serif" font-size="10.00">+ get_edge()</text>
<text text-anchor="start" x="116" y="-223.5" font-family="Helvetica,sans-Serif" font-size="10.00">+ set_vertex()</text>
<text text-anchor="start" x="116" y="-212.5" font-family="Helvetica,sans-Serif" font-size="10.00">+ set_edge()</text>
<text text-anchor="start" x="116" y="-201.5" font-family="Helvetica,sans-Serif" font-size="10.00">+ contains()</text>
<text text-anchor="start" x="116" y="-190.5" font-family="Helvetica,sans-Serif" font-size="10.00">and 6 more...</text>
<text text-anchor="start" x="116" y="-179.5" font-family="Helvetica,sans-Serif" font-size="10.00"># MeshElement()</text>
<text text-anchor="start" x="116" y="-168.5" font-family="Helvetica,sans-Serif" font-size="10.00"># MeshElement()</text>
<text text-anchor="start" x="116" y="-157.5" font-family="Helvetica,sans-Serif" font-size="10.00"># operator=()</text>
</a>
</g>
</g>
<!-- Node2&#45;&gt;Node1 -->
<g id="edge1" class="edge">
<title>Node2&#45;&gt;Node1</title>
<path fill="none" stroke="midnightblue" d="M106.98,-141.58C101.1,-131.57 95.31,-121.74 89.89,-112.53"/>
<polygon fill="none" stroke="midnightblue" points="104.09,-143.56 112.18,-150.41 110.12,-140.01 104.09,-143.56"/>
</g>
<!-- Node3 -->
<g id="node3" class="node">
<title>Node3</title>
<g id="a_node3"><a xlink:title=" ">
<polygon fill="white" stroke="#bfbfbf" points="15,-431.5 15,-488.5 44,-488.5 44,-431.5 15,-431.5"/>
<text text-anchor="middle" x="29.5" y="-476.5" font-family="Helvetica,sans-Serif" font-size="10.00">int</text>
<polyline fill="none" stroke="#bfbfbf" points="15,-469.5 44,-469.5 "/>
<text text-anchor="middle" x="29.5" y="-457.5" font-family="Helvetica,sans-Serif" font-size="10.00"> </text>
<polyline fill="none" stroke="#bfbfbf" points="15,-450.5 44,-450.5 "/>
<text text-anchor="middle" x="29.5" y="-438.5" font-family="Helvetica,sans-Serif" font-size="10.00"> </text>
</a>
</g>
</g>
<!-- Node3&#45;&gt;Node1 -->
<g id="edge4" class="edge">
<title>Node3&#45;&gt;Node1</title>
<path fill="none" stroke="#404040" d="M24.94,-431.41C16.79,-377.01 2.29,-252.32 21.5,-150 23.1,-141.5 25.45,-132.78 28.2,-124.25"/>
<polygon fill="none" stroke="#404040" points="28.25,-124.11 26.43,-117.13 32.17,-112.77 33.99,-119.75 28.25,-124.11"/>
<text text-anchor="middle" x="60" y="-259" font-family="Helvetica,sans-Serif" font-size="10.00"> +n_vertices</text>
<text text-anchor="middle" x="60" y="-248" font-family="Helvetica,sans-Serif" font-size="10.00">+n_edges</text>
<text text-anchor="middle" x="60" y="-237" font-family="Helvetica,sans-Serif" font-size="10.00">+gmsh_el_type</text>
</g>
<!-- Node3&#45;&gt;Node2 -->
<g id="edge2" class="edge">
<title>Node3&#45;&gt;Node2</title>
<path fill="none" stroke="#404040" d="M44.14,-435.08C55.45,-416.81 71.62,-391.09 86.5,-369 91.06,-362.22 95.83,-355.27 100.66,-348.29"/>
<polygon fill="none" stroke="#404040" points="100.93,-347.91 101.08,-340.7 107.79,-338.06 107.64,-345.27 100.93,-347.91"/>
<text text-anchor="middle" x="126.5" y="-405" font-family="Helvetica,sans-Serif" font-size="10.00"> #gmsh_el_type</text>
<text text-anchor="middle" x="126.5" y="-394" font-family="Helvetica,sans-Serif" font-size="10.00">#n_vertices</text>
<text text-anchor="middle" x="126.5" y="-383" font-family="Helvetica,sans-Serif" font-size="10.00">#n_edges</text>
<text text-anchor="middle" x="126.5" y="-372" font-family="Helvetica,sans-Serif" font-size="10.00">#material_id</text>
</g>
<!-- Node4 -->
<g id="node4" class="node">
<title>Node4</title>
<g id="a_node4"><a xlink:title=" ">
<polygon fill="white" stroke="#bfbfbf" points="129,-431.5 129,-488.5 212,-488.5 212,-431.5 129,-431.5"/>
<text text-anchor="middle" x="170.5" y="-476.5" font-family="Helvetica,sans-Serif" font-size="10.00">vector&lt; int &gt;</text>
<polyline fill="none" stroke="#bfbfbf" points="129,-469.5 212,-469.5 "/>
<text text-anchor="middle" x="170.5" y="-457.5" font-family="Helvetica,sans-Serif" font-size="10.00"> </text>
<polyline fill="none" stroke="#bfbfbf" points="129,-450.5 212,-450.5 "/>
<text text-anchor="middle" x="170.5" y="-438.5" font-family="Helvetica,sans-Serif" font-size="10.00"> </text>
</a>
</g>
</g>
<!-- Node4&#45;&gt;Node2 -->
<g id="edge3" class="edge">
<title>Node4&#45;&gt;Node2</title>
<path fill="none" stroke="#404040" d="M170.5,-431.45C170.5,-413.36 170.5,-388.4 170.5,-362.82"/>
<polygon fill="none" stroke="#404040" points="170.5,-362.64 166.5,-356.64 170.5,-350.64 174.5,-356.64 170.5,-362.64"/>
<text text-anchor="middle" x="196" y="-394" font-family="Helvetica,sans-Serif" font-size="10.00"> #vertices</text>
<text text-anchor="middle" x="196" y="-383" font-family="Helvetica,sans-Serif" font-size="10.00">#edges</text>
</g>
</g>
</svg>
