<?xml version="1.0" encoding="UTF-8" standalone="no"?>
<!DOCTYPE svg PUBLIC "-//W3C//DTD SVG 1.1//EN"
 "http://www.w3.org/Graphics/SVG/1.1/DTD/svg11.dtd">
<!-- Generated by graphviz version 2.40.1 (20161225.0304)
 -->
<!-- Title: River::Triangle::set_all_values_to_default Pages: 1 -->
<svg width="536pt" height="85pt"
 viewBox="0.00 0.00 536.00 85.00" xmlns="http://www.w3.org/2000/svg" xmlns:xlink="http://www.w3.org/1999/xlink">
<g id="graph0" class="graph" transform="scale(1 1) rotate(0) translate(4 81)">
<title>River::Triangle::set_all_values_to_default</title>
<polygon fill="#ffffff" stroke="transparent" points="-4,4 -4,-81 532,-81 532,4 -4,4"/>
<!-- Node9 -->
<g id="node1" class="node">
<title>Node9</title>
<polygon fill="#bfbfbf" stroke="#000000" points="0,-33 0,-63 113,-63 113,-33 0,-33"/>
<text text-anchor="start" x="8" y="-51" font-family="Helvetica,sans-Serif" font-size="10.00" fill="#000000">River::Triangle::set</text>
<text text-anchor="middle" x="56.5" y="-40" font-family="Helvetica,sans-Serif" font-size="10.00" fill="#000000">_all_values_to_default</text>
</g>
<!-- Node10 -->
<g id="node2" class="node">
<title>Node10</title>
<g id="a_node2"><a xlink:href="classRiver_1_1Triangle.html#af0831b121aebb9accaafe9e291327938" target="_top" xlink:title="River::Triangle::Triangle">
<polygon fill="#ffffff" stroke="#000000" points="150.5,-57.5 150.5,-76.5 271.5,-76.5 271.5,-57.5 150.5,-57.5"/>
<text text-anchor="middle" x="211" y="-64.5" font-family="Helvetica,sans-Serif" font-size="10.00" fill="#000000">River::Triangle::Triangle</text>
</a>
</g>
</g>
<!-- Node9&#45;&gt;Node10 -->
<g id="edge1" class="edge">
<title>Node9&#45;&gt;Node10</title>
<path fill="none" stroke="#191970" d="M123.2512,-56.2089C132.2931,-57.3208 141.5304,-58.4568 150.4554,-59.5544"/>
<polygon fill="#191970" stroke="#191970" points="123.5053,-52.7138 113.1528,-54.967 122.6508,-59.6615 123.5053,-52.7138"/>
</g>
<!-- Node11 -->
<g id="node3" class="node">
<title>Node11</title>
<g id="a_node3"><a xlink:href="classRiver_1_1Triangle.html#a0dae20b40d446e6009a88543e2c14daf" target="_top" xlink:title="River::Triangle::generate">
<polygon fill="#ffffff" stroke="#000000" points="149,-19.5 149,-38.5 273,-38.5 273,-19.5 149,-19.5"/>
<text text-anchor="middle" x="211" y="-26.5" font-family="Helvetica,sans-Serif" font-size="10.00" fill="#000000">River::Triangle::generate</text>
</a>
</g>
</g>
<!-- Node9&#45;&gt;Node11 -->
<g id="edge2" class="edge">
<title>Node9&#45;&gt;Node11</title>
<path fill="none" stroke="#191970" d="M123.0961,-39.8102C131.658,-38.7573 140.3978,-37.6825 148.8841,-36.6388"/>
<polygon fill="#191970" stroke="#191970" points="122.6508,-36.3385 113.1528,-41.033 123.5053,-43.2862 122.6508,-36.3385"/>
</g>
<!-- Node12 -->
<g id="node4" class="node">
<title>Node12</title>
<g id="a_node4"><a xlink:href="main_8cpp.html#a0ddf1224851353fc92bfbff6f499fa97" target="_top" xlink:title="Entry point of RiverSim program. ">
<polygon fill="#ffffff" stroke="#000000" points="490,-19.5 490,-38.5 528,-38.5 528,-19.5 490,-19.5"/>
<text text-anchor="middle" x="509" y="-26.5" font-family="Helvetica,sans-Serif" font-size="10.00" fill="#000000">main</text>
</a>
</g>
</g>
<!-- Node11&#45;&gt;Node12 -->
<g id="edge3" class="edge">
<title>Node11&#45;&gt;Node12</title>
<path fill="none" stroke="#191970" d="M283.3582,-29C351.5013,-29 449.0323,-29 489.8698,-29"/>
<polygon fill="#191970" stroke="#191970" points="283.1079,-25.5001 273.1078,-29 283.1078,-32.5001 283.1079,-25.5001"/>
</g>
<!-- Node13 -->
<g id="node5" class="node">
<title>Node13</title>
<g id="a_node5"><a xlink:href="namespaceRiver.html#a494b68e2992de95500d6d81770de62ed" target="_top" xlink:title="River::ForwardRiverEvolution">
<polygon fill="#ffffff" stroke="#000000" points="309,-.5 309,-19.5 454,-19.5 454,-.5 309,-.5"/>
<text text-anchor="middle" x="381.5" y="-7.5" font-family="Helvetica,sans-Serif" font-size="10.00" fill="#000000">River::ForwardRiverEvolution</text>
</a>
</g>
</g>
<!-- Node11&#45;&gt;Node13 -->
<g id="edge4" class="edge">
<title>Node11&#45;&gt;Node13</title>
<path fill="none" stroke="#191970" d="M283.2431,-20.9494C291.7006,-20.007 300.333,-19.045 308.7967,-18.1018"/>
<polygon fill="#191970" stroke="#191970" points="282.5875,-17.5007 273.0367,-22.0868 283.3629,-24.4577 282.5875,-17.5007"/>
</g>
<!-- Node13&#45;&gt;Node12 -->
<g id="edge5" class="edge">
<title>Node13&#45;&gt;Node12</title>
<path fill="none" stroke="#191970" d="M455.7834,-21.0697C468.3501,-22.9424 480.3551,-24.7313 489.7718,-26.1346"/>
<polygon fill="#191970" stroke="#191970" points="456.0302,-17.5679 445.6235,-19.5557 454.9984,-24.4914 456.0302,-17.5679"/>
</g>
</g>
</svg>
