<?xml version="1.0" encoding="UTF-8" standalone="no"?>
<!DOCTYPE svg PUBLIC "-//W3C//DTD SVG 1.1//EN"
 "http://www.w3.org/Graphics/SVG/1.1/DTD/svg11.dtd">
<!-- Generated by graphviz version 2.40.1 (20161225.0304)
 -->
<!-- Title: River::Solver::solve Pages: 1 -->
<svg width="495pt" height="47pt"
 viewBox="0.00 0.00 495.00 47.00" xmlns="http://www.w3.org/2000/svg" xmlns:xlink="http://www.w3.org/1999/xlink">
<g id="graph0" class="graph" transform="scale(1 1) rotate(0) translate(4 43)">
<title>River::Solver::solve</title>
<polygon fill="#ffffff" stroke="transparent" points="-4,4 -4,-43 491,-43 491,4 -4,4"/>
<!-- Node60 -->
<g id="node1" class="node">
<title>Node60</title>
<polygon fill="#bfbfbf" stroke="#000000" points="0,-19.5 0,-38.5 103,-38.5 103,-19.5 0,-19.5"/>
<text text-anchor="middle" x="51.5" y="-26.5" font-family="Helvetica,sans-Serif" font-size="10.00" fill="#000000">River::Solver::solve</text>
</g>
<!-- Node61 -->
<g id="node2" class="node">
<title>Node61</title>
<g id="a_node2"><a xlink:href="classRiver_1_1Solver.html#a4222fe744d607f870a5d7d22b11e8334" target="_top" xlink:title="River::Solver::run">
<polygon fill="#ffffff" stroke="#000000" points="139,-19.5 139,-38.5 232,-38.5 232,-19.5 139,-19.5"/>
<text text-anchor="middle" x="185.5" y="-26.5" font-family="Helvetica,sans-Serif" font-size="10.00" fill="#000000">River::Solver::run</text>
</a>
</g>
</g>
<!-- Node60&#45;&gt;Node61 -->
<g id="edge1" class="edge">
<title>Node60&#45;&gt;Node61</title>
<path fill="none" stroke="#191970" d="M113.5242,-29C121.9726,-29 130.5272,-29 138.6465,-29"/>
<polygon fill="#191970" stroke="#191970" points="113.3079,-25.5001 103.3079,-29 113.3079,-32.5001 113.3079,-25.5001"/>
</g>
<!-- Node62 -->
<g id="node3" class="node">
<title>Node62</title>
<g id="a_node3"><a xlink:href="main_8cpp.html#a0ddf1224851353fc92bfbff6f499fa97" target="_top" xlink:title="Entry point of RiverSim program. ">
<polygon fill="#ffffff" stroke="#000000" points="449,-19.5 449,-38.5 487,-38.5 487,-19.5 449,-19.5"/>
<text text-anchor="middle" x="468" y="-26.5" font-family="Helvetica,sans-Serif" font-size="10.00" fill="#000000">main</text>
</a>
</g>
</g>
<!-- Node61&#45;&gt;Node62 -->
<g id="edge2" class="edge">
<title>Node61&#45;&gt;Node62</title>
<path fill="none" stroke="#191970" d="M242.4871,-29C306.512,-29 406.9413,-29 448.7424,-29"/>
<polygon fill="#191970" stroke="#191970" points="242.1492,-25.5001 232.1491,-29 242.1491,-32.5001 242.1492,-25.5001"/>
</g>
<!-- Node63 -->
<g id="node4" class="node">
<title>Node63</title>
<g id="a_node4"><a xlink:href="namespaceRiver.html#a494b68e2992de95500d6d81770de62ed" target="_top" xlink:title="River::ForwardRiverEvolution">
<polygon fill="#ffffff" stroke="#000000" points="268,-.5 268,-19.5 413,-19.5 413,-.5 268,-.5"/>
<text text-anchor="middle" x="340.5" y="-7.5" font-family="Helvetica,sans-Serif" font-size="10.00" fill="#000000">River::ForwardRiverEvolution</text>
</a>
</g>
</g>
<!-- Node61&#45;&gt;Node63 -->
<g id="edge3" class="edge">
<title>Node61&#45;&gt;Node63</title>
<path fill="none" stroke="#191970" d="M242.0614,-22.0667C250.4747,-21.0354 259.2438,-19.9604 267.9301,-18.8957"/>
<polygon fill="#191970" stroke="#191970" points="241.5049,-18.6086 232.0051,-23.2994 242.3567,-25.5566 241.5049,-18.6086"/>
</g>
<!-- Node63&#45;&gt;Node62 -->
<g id="edge4" class="edge">
<title>Node63&#45;&gt;Node62</title>
<path fill="none" stroke="#191970" d="M414.7834,-21.0697C427.3501,-22.9424 439.3551,-24.7313 448.7718,-26.1346"/>
<polygon fill="#191970" stroke="#191970" points="415.0302,-17.5679 404.6235,-19.5557 413.9984,-24.4914 415.0302,-17.5679"/>
</g>
</g>
</svg>
