<?xml version="1.0" encoding="UTF-8" standalone="no"?>
<!DOCTYPE svg PUBLIC "-//W3C//DTD SVG 1.1//EN"
 "http://www.w3.org/Graphics/SVG/1.1/DTD/svg11.dtd">
<!-- Generated by graphviz version 2.40.1 (20161225.0304)
 -->
<!-- Title: nlohmann::detail::exception Pages: 1 -->
<svg width="658pt" height="331pt"
 viewBox="0.00 0.00 657.50 331.00" xmlns="http://www.w3.org/2000/svg" xmlns:xlink="http://www.w3.org/1999/xlink">
<g id="graph0" class="graph" transform="scale(1 1) rotate(0) translate(4 327)">
<title>nlohmann::detail::exception</title>
<polygon fill="#ffffff" stroke="transparent" points="-4,4 -4,-327 653.5,-327 653.5,4 -4,4"/>
<!-- Node0 -->
<g id="node1" class="node">
<title>Node0</title>
<polygon fill="#bfbfbf" stroke="#000000" points="260,-138.5 260,-228.5 396,-228.5 396,-138.5 260,-138.5"/>
<text text-anchor="middle" x="328" y="-216.5" font-family="Helvetica,sans-Serif" font-size="10.00" fill="#000000">nlohmann::detail::exception</text>
<polyline fill="none" stroke="#000000" points="260,-209.5 396,-209.5 "/>
<text text-anchor="start" x="268" y="-197.5" font-family="Helvetica,sans-Serif" font-size="10.00" fill="#000000">+ id</text>
<text text-anchor="start" x="268" y="-186.5" font-family="Helvetica,sans-Serif" font-size="10.00" fill="#000000">&#45; m</text>
<polyline fill="none" stroke="#000000" points="260,-179.5 396,-179.5 "/>
<text text-anchor="start" x="268" y="-167.5" font-family="Helvetica,sans-Serif" font-size="10.00" fill="#000000">+ what()</text>
<text text-anchor="start" x="268" y="-156.5" font-family="Helvetica,sans-Serif" font-size="10.00" fill="#000000"># exception()</text>
<text text-anchor="start" x="268" y="-145.5" font-family="Helvetica,sans-Serif" font-size="10.00" fill="#000000"># name()</text>
</g>
<!-- Node2 -->
<g id="node3" class="node">
<title>Node2</title>
<g id="a_node3"><a xlink:href="classnlohmann_1_1detail_1_1invalid__iterator.html" target="_top" xlink:title="exception indicating errors with iterators ">
<polygon fill="#ffffff" stroke="#000000" points="0,-11.5 0,-90.5 122,-90.5 122,-11.5 0,-11.5"/>
<text text-anchor="start" x="8" y="-78.5" font-family="Helvetica,sans-Serif" font-size="10.00" fill="#000000">nlohmann::detail::invalid</text>
<text text-anchor="middle" x="61" y="-67.5" font-family="Helvetica,sans-Serif" font-size="10.00" fill="#000000">_iterator</text>
<polyline fill="none" stroke="#000000" points="0,-60.5 122,-60.5 "/>
<text text-anchor="middle" x="61" y="-48.5" font-family="Helvetica,sans-Serif" font-size="10.00" fill="#000000"> </text>
<polyline fill="none" stroke="#000000" points="0,-41.5 122,-41.5 "/>
<text text-anchor="start" x="8" y="-29.5" font-family="Helvetica,sans-Serif" font-size="10.00" fill="#000000">+ create()</text>
<text text-anchor="start" x="8" y="-18.5" font-family="Helvetica,sans-Serif" font-size="10.00" fill="#000000">&#45; invalid_iterator()</text>
</a>
</g>
</g>
<!-- Node0&#45;&gt;Node2 -->
<g id="edge2" class="edge">
<title>Node0&#45;&gt;Node2</title>
<path fill="none" stroke="#191970" d="M249.8453,-156.0869C212.8518,-141.8852 168.6389,-123.1009 131,-102 124.8356,-98.5442 118.5752,-94.6382 112.4619,-90.5639"/>
<polygon fill="none" stroke="#191970" points="248.9887,-159.5054 259.5799,-159.7828 251.4733,-152.9612 248.9887,-159.5054"/>
</g>
<!-- Node3 -->
<g id="node4" class="node">
<title>Node3</title>
<g id="a_node4"><a xlink:href="classnlohmann_1_1detail_1_1other__error.html" target="_top" xlink:title="exception indicating other library errors ">
<polygon fill="#ffffff" stroke="#000000" points="140,-11.5 140,-90.5 256,-90.5 256,-11.5 140,-11.5"/>
<text text-anchor="start" x="148" y="-78.5" font-family="Helvetica,sans-Serif" font-size="10.00" fill="#000000">nlohmann::detail::other</text>
<text text-anchor="middle" x="198" y="-67.5" font-family="Helvetica,sans-Serif" font-size="10.00" fill="#000000">_error</text>
<polyline fill="none" stroke="#000000" points="140,-60.5 256,-60.5 "/>
<text text-anchor="middle" x="198" y="-48.5" font-family="Helvetica,sans-Serif" font-size="10.00" fill="#000000"> </text>
<polyline fill="none" stroke="#000000" points="140,-41.5 256,-41.5 "/>
<text text-anchor="start" x="148" y="-29.5" font-family="Helvetica,sans-Serif" font-size="10.00" fill="#000000">+ create()</text>
<text text-anchor="start" x="148" y="-18.5" font-family="Helvetica,sans-Serif" font-size="10.00" fill="#000000">&#45; other_error()</text>
</a>
</g>
</g>
<!-- Node0&#45;&gt;Node3 -->
<g id="edge3" class="edge">
<title>Node0&#45;&gt;Node3</title>
<path fill="none" stroke="#191970" d="M276.4146,-130.9226C263.2682,-117.5234 249.3564,-103.344 236.9589,-90.7081"/>
<polygon fill="none" stroke="#191970" points="274.1232,-133.5847 283.625,-138.2716 279.1199,-128.6823 274.1232,-133.5847"/>
</g>
<!-- Node4 -->
<g id="node5" class="node">
<title>Node4</title>
<g id="a_node5"><a xlink:href="classnlohmann_1_1detail_1_1out__of__range.html" target="_top" xlink:title="exception indicating access out of the defined range ">
<polygon fill="#ffffff" stroke="#000000" points="274.5,-11.5 274.5,-90.5 381.5,-90.5 381.5,-11.5 274.5,-11.5"/>
<text text-anchor="start" x="282.5" y="-78.5" font-family="Helvetica,sans-Serif" font-size="10.00" fill="#000000">nlohmann::detail::out</text>
<text text-anchor="middle" x="328" y="-67.5" font-family="Helvetica,sans-Serif" font-size="10.00" fill="#000000">_of_range</text>
<polyline fill="none" stroke="#000000" points="274.5,-60.5 381.5,-60.5 "/>
<text text-anchor="middle" x="328" y="-48.5" font-family="Helvetica,sans-Serif" font-size="10.00" fill="#000000"> </text>
<polyline fill="none" stroke="#000000" points="274.5,-41.5 381.5,-41.5 "/>
<text text-anchor="start" x="282.5" y="-29.5" font-family="Helvetica,sans-Serif" font-size="10.00" fill="#000000">+ create()</text>
<text text-anchor="start" x="282.5" y="-18.5" font-family="Helvetica,sans-Serif" font-size="10.00" fill="#000000">&#45; out_of_range()</text>
</a>
</g>
</g>
<!-- Node0&#45;&gt;Node4 -->
<g id="edge4" class="edge">
<title>Node0&#45;&gt;Node4</title>
<path fill="none" stroke="#191970" d="M328,-127.9331C328,-115.4312 328,-102.408 328,-90.7081"/>
<polygon fill="none" stroke="#191970" points="324.5001,-128.2716 328,-138.2716 331.5001,-128.2716 324.5001,-128.2716"/>
</g>
<!-- Node5 -->
<g id="node6" class="node">
<title>Node5</title>
<g id="a_node6"><a xlink:href="classnlohmann_1_1detail_1_1parse__error.html" target="_top" xlink:title="exception indicating a parse error ">
<polygon fill="#ffffff" stroke="#000000" points="400,-.5 400,-101.5 518,-101.5 518,-.5 400,-.5"/>
<text text-anchor="start" x="408" y="-89.5" font-family="Helvetica,sans-Serif" font-size="10.00" fill="#000000">nlohmann::detail::parse</text>
<text text-anchor="middle" x="459" y="-78.5" font-family="Helvetica,sans-Serif" font-size="10.00" fill="#000000">_error</text>
<polyline fill="none" stroke="#000000" points="400,-71.5 518,-71.5 "/>
<text text-anchor="start" x="408" y="-59.5" font-family="Helvetica,sans-Serif" font-size="10.00" fill="#000000">+ byte</text>
<polyline fill="none" stroke="#000000" points="400,-52.5 518,-52.5 "/>
<text text-anchor="start" x="408" y="-40.5" font-family="Helvetica,sans-Serif" font-size="10.00" fill="#000000">+ create()</text>
<text text-anchor="start" x="408" y="-29.5" font-family="Helvetica,sans-Serif" font-size="10.00" fill="#000000">+ create()</text>
<text text-anchor="start" x="408" y="-18.5" font-family="Helvetica,sans-Serif" font-size="10.00" fill="#000000">&#45; parse_error()</text>
<text text-anchor="start" x="408" y="-7.5" font-family="Helvetica,sans-Serif" font-size="10.00" fill="#000000">&#45; position_string()</text>
</a>
</g>
</g>
<!-- Node0&#45;&gt;Node5 -->
<g id="edge5" class="edge">
<title>Node0&#45;&gt;Node5</title>
<path fill="none" stroke="#191970" d="M379.8679,-131.0382C389.3394,-121.4582 399.2089,-111.4757 408.6359,-101.9407"/>
<polygon fill="none" stroke="#191970" points="377.2582,-128.6996 372.7164,-138.2716 382.236,-133.6211 377.2582,-128.6996"/>
</g>
<!-- Node6 -->
<g id="node7" class="node">
<title>Node6</title>
<g id="a_node7"><a xlink:href="classnlohmann_1_1detail_1_1type__error.html" target="_top" xlink:title="exception indicating executing a member function with a wrong type ">
<polygon fill="#ffffff" stroke="#000000" points="536.5,-11.5 536.5,-90.5 649.5,-90.5 649.5,-11.5 536.5,-11.5"/>
<text text-anchor="start" x="544.5" y="-78.5" font-family="Helvetica,sans-Serif" font-size="10.00" fill="#000000">nlohmann::detail::type</text>
<text text-anchor="middle" x="593" y="-67.5" font-family="Helvetica,sans-Serif" font-size="10.00" fill="#000000">_error</text>
<polyline fill="none" stroke="#000000" points="536.5,-60.5 649.5,-60.5 "/>
<text text-anchor="middle" x="593" y="-48.5" font-family="Helvetica,sans-Serif" font-size="10.00" fill="#000000"> </text>
<polyline fill="none" stroke="#000000" points="536.5,-41.5 649.5,-41.5 "/>
<text text-anchor="start" x="544.5" y="-29.5" font-family="Helvetica,sans-Serif" font-size="10.00" fill="#000000">+ create()</text>
<text text-anchor="start" x="544.5" y="-18.5" font-family="Helvetica,sans-Serif" font-size="10.00" fill="#000000">&#45; type_error()</text>
</a>
</g>
</g>
<!-- Node0&#45;&gt;Node6 -->
<g id="edge6" class="edge">
<title>Node0&#45;&gt;Node6</title>
<path fill="none" stroke="#191970" d="M405.8713,-157.1767C443.5803,-143.0512 488.8417,-124.0155 527,-102 532.8951,-98.5988 538.8503,-94.7275 544.6447,-90.6732"/>
<polygon fill="none" stroke="#191970" points="404.6197,-153.9078 396.4559,-160.6609 407.0491,-160.4727 404.6197,-153.9078"/>
</g>
<!-- Node1 -->
<g id="node2" class="node">
<title>Node1</title>
<polygon fill="#ffffff" stroke="#bfbfbf" points="289,-265.5 289,-322.5 367,-322.5 367,-265.5 289,-265.5"/>
<text text-anchor="middle" x="328" y="-310.5" font-family="Helvetica,sans-Serif" font-size="10.00" fill="#000000">std::exception</text>
<polyline fill="none" stroke="#bfbfbf" points="289,-303.5 367,-303.5 "/>
<text text-anchor="middle" x="328" y="-291.5" font-family="Helvetica,sans-Serif" font-size="10.00" fill="#000000"> </text>
<polyline fill="none" stroke="#bfbfbf" points="289,-284.5 367,-284.5 "/>
<text text-anchor="middle" x="328" y="-272.5" font-family="Helvetica,sans-Serif" font-size="10.00" fill="#000000"> </text>
</g>
<!-- Node1&#45;&gt;Node0 -->
<g id="edge1" class="edge">
<title>Node1&#45;&gt;Node0</title>
<path fill="none" stroke="#191970" d="M328,-255.1977C328,-246.667 328,-237.5607 328,-228.7995"/>
<polygon fill="none" stroke="#191970" points="324.5001,-255.2559 328,-265.2559 331.5001,-255.2559 324.5001,-255.2559"/>
</g>
</g>
</svg>
