<?xml version="1.0" encoding="UTF-8" standalone="no"?>
<!DOCTYPE svg PUBLIC "-//W3C//DTD SVG 1.1//EN"
 "http://www.w3.org/Graphics/SVG/1.1/DTD/svg11.dtd">
<!-- Generated by graphviz version 2.40.1 (20161225.0304)
 -->
<!-- Title: nlohmann::json_pointer::get_and_create Pages: 1 -->
<svg width="425pt" height="39pt"
 viewBox="0.00 0.00 425.00 39.00" xmlns="http://www.w3.org/2000/svg" xmlns:xlink="http://www.w3.org/1999/xlink">
<g id="graph0" class="graph" transform="scale(1 1) rotate(0) translate(4 35)">
<title>nlohmann::json_pointer::get_and_create</title>
<polygon fill="#ffffff" stroke="transparent" points="-4,4 -4,-35 421,-35 421,4 -4,4"/>
<!-- Node49 -->
<g id="node1" class="node">
<title>Node49</title>
<polygon fill="#bfbfbf" stroke="#000000" points="0,-.5 0,-30.5 117,-30.5 117,-.5 0,-.5"/>
<text text-anchor="start" x="8" y="-18.5" font-family="Helvetica,sans-Serif" font-size="10.00" fill="#000000">nlohmann::json_pointer</text>
<text text-anchor="middle" x="58.5" y="-7.5" font-family="Helvetica,sans-Serif" font-size="10.00" fill="#000000">::get_and_create</text>
</g>
<!-- Node50 -->
<g id="node2" class="node">
<title>Node50</title>
<g id="a_node2"><a xlink:href="classnlohmann_1_1json__pointer.html#a920065221e3c81676c3211c100d024a7" target="_top" xlink:title="nlohmann::json_pointer\l::unflatten">
<polygon fill="#ffffff" stroke="#000000" points="153,-.5 153,-30.5 270,-30.5 270,-.5 153,-.5"/>
<text text-anchor="start" x="161" y="-18.5" font-family="Helvetica,sans-Serif" font-size="10.00" fill="#000000">nlohmann::json_pointer</text>
<text text-anchor="middle" x="211.5" y="-7.5" font-family="Helvetica,sans-Serif" font-size="10.00" fill="#000000">::unflatten</text>
</a>
</g>
</g>
<!-- Node49&#45;&gt;Node50 -->
<g id="edge1" class="edge">
<title>Node49&#45;&gt;Node50</title>
<path fill="none" stroke="#191970" d="M127.4932,-15.5C135.9927,-15.5 144.617,-15.5 152.9409,-15.5"/>
<polygon fill="#191970" stroke="#191970" points="127.2163,-12.0001 117.2162,-15.5 127.2162,-19.0001 127.2163,-12.0001"/>
</g>
<!-- Node51 -->
<g id="node3" class="node">
<title>Node51</title>
<g id="a_node3"><a xlink:href="classnlohmann_1_1basic__json.html#a74fa3ab2003f2f6f2b69deaafed9126d" target="_top" xlink:title="unflatten a previously flattened JSON value ">
<polygon fill="#ffffff" stroke="#000000" points="306,-.5 306,-30.5 417,-30.5 417,-.5 306,-.5"/>
<text text-anchor="start" x="314" y="-18.5" font-family="Helvetica,sans-Serif" font-size="10.00" fill="#000000">nlohmann::basic_json</text>
<text text-anchor="middle" x="361.5" y="-7.5" font-family="Helvetica,sans-Serif" font-size="10.00" fill="#000000">::unflatten</text>
</a>
</g>
</g>
<!-- Node50&#45;&gt;Node51 -->
<g id="edge2" class="edge">
<title>Node50&#45;&gt;Node51</title>
<path fill="none" stroke="#191970" d="M280.5684,-15.5C289.0075,-15.5 297.5474,-15.5 305.7571,-15.5"/>
<polygon fill="#191970" stroke="#191970" points="280.3535,-12.0001 270.3535,-15.5 280.3534,-19.0001 280.3535,-12.0001"/>
</g>
</g>
</svg>
