<?xml version="1.0" encoding="UTF-8" standalone="no"?>
<!DOCTYPE svg PUBLIC "-//W3C//DTD SVG 1.1//EN"
 "http://www.w3.org/Graphics/SVG/1.1/DTD/svg11.dtd">
<!-- Generated by graphviz version 2.40.1 (20161225.0304)
 -->
<!-- Title: nlohmann::basic_json::operator[] Pages: 1 -->
<svg width="440pt" height="137pt"
 viewBox="0.00 0.00 440.00 137.00" xmlns="http://www.w3.org/2000/svg" xmlns:xlink="http://www.w3.org/1999/xlink">
<g id="graph0" class="graph" transform="scale(1 1) rotate(0) translate(4 133)">
<title>nlohmann::basic_json::operator[]</title>
<polygon fill="#ffffff" stroke="transparent" points="-4,4 -4,-133 436,-133 436,4 -4,4"/>
<!-- Node200 -->
<g id="node1" class="node">
<title>Node200</title>
<polygon fill="#bfbfbf" stroke="#000000" points="0,-49.5 0,-79.5 111,-79.5 111,-49.5 0,-49.5"/>
<text text-anchor="start" x="8" y="-67.5" font-family="Helvetica,sans-Serif" font-size="10.00" fill="#000000">nlohmann::basic_json</text>
<text text-anchor="middle" x="55.5" y="-56.5" font-family="Helvetica,sans-Serif" font-size="10.00" fill="#000000">::operator[]</text>
</g>
<!-- Node201 -->
<g id="node2" class="node">
<title>Node201</title>
<g id="a_node2"><a xlink:href="classnlohmann_1_1basic__json.html#aaf509a7c029100d292187068f61c99b8" target="_top" xlink:title="explicitly create an object from an initializer list ">
<polygon fill="#ffffff" stroke="#000000" points="148,-98.5 148,-128.5 259,-128.5 259,-98.5 148,-98.5"/>
<text text-anchor="start" x="156" y="-116.5" font-family="Helvetica,sans-Serif" font-size="10.00" fill="#000000">nlohmann::basic_json</text>
<text text-anchor="middle" x="203.5" y="-105.5" font-family="Helvetica,sans-Serif" font-size="10.00" fill="#000000">::object</text>
</a>
</g>
</g>
<!-- Node200&#45;&gt;Node201 -->
<g id="edge1" class="edge">
<title>Node200&#45;&gt;Node201</title>
<path fill="none" stroke="#191970" d="M101.1125,-79.6014C116.094,-84.5615 132.9051,-90.1274 148.5071,-95.2929"/>
<polygon fill="#191970" stroke="#191970" points="147.4448,-98.628 158.0381,-98.4484 149.6449,-91.9827 147.4448,-98.628"/>
</g>
<!-- Node202 -->
<g id="node3" class="node">
<title>Node202</title>
<g id="a_node3"><a xlink:href="classnlohmann_1_1basic__json.html#a89eb3928f57903677051c80534be9cb1" target="_top" xlink:title="find an element in a JSON object ">
<polygon fill="#ffffff" stroke="#000000" points="148,-49.5 148,-79.5 259,-79.5 259,-49.5 148,-49.5"/>
<text text-anchor="start" x="156" y="-67.5" font-family="Helvetica,sans-Serif" font-size="10.00" fill="#000000">nlohmann::basic_json</text>
<text text-anchor="middle" x="203.5" y="-56.5" font-family="Helvetica,sans-Serif" font-size="10.00" fill="#000000">::find</text>
</a>
</g>
</g>
<!-- Node200&#45;&gt;Node202 -->
<g id="edge2" class="edge">
<title>Node200&#45;&gt;Node202</title>
<path fill="none" stroke="#191970" d="M111.0308,-64.5C119.6381,-64.5 128.6015,-64.5 137.4134,-64.5"/>
<polygon fill="#191970" stroke="#191970" points="137.658,-68.0001 147.658,-64.5 137.6579,-61.0001 137.658,-68.0001"/>
</g>
<!-- Node203 -->
<g id="node4" class="node">
<title>Node203</title>
<g id="a_node4"><a xlink:href="classnlohmann_1_1detail_1_1type__error.html#aecc083aea4b698c33d042670ba50c10f" target="_top" xlink:title="nlohmann::detail::type\l_error::create">
<polygon fill="#ffffff" stroke="#000000" points="147,-.5 147,-30.5 260,-30.5 260,-.5 147,-.5"/>
<text text-anchor="start" x="155" y="-18.5" font-family="Helvetica,sans-Serif" font-size="10.00" fill="#000000">nlohmann::detail::type</text>
<text text-anchor="middle" x="203.5" y="-7.5" font-family="Helvetica,sans-Serif" font-size="10.00" fill="#000000">_error::create</text>
</a>
</g>
</g>
<!-- Node200&#45;&gt;Node203 -->
<g id="edge3" class="edge">
<title>Node200&#45;&gt;Node203</title>
<path fill="none" stroke="#191970" d="M101.1125,-49.3986C116.094,-44.4385 132.9051,-38.8726 148.5071,-33.7071"/>
<polygon fill="#191970" stroke="#191970" points="149.6449,-37.0173 158.0381,-30.5516 147.4448,-30.372 149.6449,-37.0173"/>
</g>
<!-- Node204 -->
<g id="node5" class="node">
<title>Node204</title>
<g id="a_node5"><a xlink:href="classnlohmann_1_1detail_1_1exception.html#abf41a7e9178356314082284e6cfea278" target="_top" xlink:title="nlohmann::detail::exception\l::name">
<polygon fill="#ffffff" stroke="#000000" points="296,-.5 296,-30.5 432,-30.5 432,-.5 296,-.5"/>
<text text-anchor="start" x="304" y="-18.5" font-family="Helvetica,sans-Serif" font-size="10.00" fill="#000000">nlohmann::detail::exception</text>
<text text-anchor="middle" x="364" y="-7.5" font-family="Helvetica,sans-Serif" font-size="10.00" fill="#000000">::name</text>
</a>
</g>
</g>
<!-- Node203&#45;&gt;Node204 -->
<g id="edge4" class="edge">
<title>Node203&#45;&gt;Node204</title>
<path fill="none" stroke="#191970" d="M260.0863,-15.5C268.3895,-15.5 277.0638,-15.5 285.7078,-15.5"/>
<polygon fill="#191970" stroke="#191970" points="285.8172,-19.0001 295.8172,-15.5 285.8172,-12.0001 285.8172,-19.0001"/>
</g>
</g>
</svg>
