<?xml version="1.0" encoding="UTF-8" standalone="no"?>
<!DOCTYPE svg PUBLIC "-//W3C//DTD SVG 1.1//EN"
 "http://www.w3.org/Graphics/SVG/1.1/DTD/svg11.dtd">
<!-- Generated by graphviz version 2.40.1 (20161225.0304)
 -->
<!-- Title: nlohmann::detail::output_string_adapter&lt; CharType, StringType &gt; Pages: 1 -->
<svg width="163pt" height="237pt"
 viewBox="0.00 0.00 163.00 237.00" xmlns="http://www.w3.org/2000/svg" xmlns:xlink="http://www.w3.org/1999/xlink">
<g id="graph0" class="graph" transform="scale(1 1) rotate(0) translate(4 233)">
<title>nlohmann::detail::output_string_adapter&lt; CharType, StringType &gt;</title>
<polygon fill="#ffffff" stroke="transparent" points="-4,4 -4,-233 159,-233 159,4 -4,4"/>
<!-- Node0 -->
<g id="node1" class="node">
<title>Node0</title>
<polygon fill="#bfbfbf" stroke="#000000" points="8.5,-.5 8.5,-101.5 146.5,-101.5 146.5,-.5 8.5,-.5"/>
<text text-anchor="start" x="16.5" y="-89.5" font-family="Helvetica,sans-Serif" font-size="10.00" fill="#000000">nlohmann::detail::output</text>
<text text-anchor="start" x="16.5" y="-78.5" font-family="Helvetica,sans-Serif" font-size="10.00" fill="#000000">_string_adapter&lt; CharType,</text>
<text text-anchor="middle" x="77.5" y="-67.5" font-family="Helvetica,sans-Serif" font-size="10.00" fill="#000000"> StringType &gt;</text>
<polyline fill="none" stroke="#000000" points="8.5,-60.5 146.5,-60.5 "/>
<text text-anchor="start" x="16.5" y="-48.5" font-family="Helvetica,sans-Serif" font-size="10.00" fill="#000000">&#45; str</text>
<polyline fill="none" stroke="#000000" points="8.5,-41.5 146.5,-41.5 "/>
<text text-anchor="start" x="16.5" y="-29.5" font-family="Helvetica,sans-Serif" font-size="10.00" fill="#000000">+ output_string_adapter()</text>
<text text-anchor="start" x="16.5" y="-18.5" font-family="Helvetica,sans-Serif" font-size="10.00" fill="#000000">+ write_character()</text>
<text text-anchor="start" x="16.5" y="-7.5" font-family="Helvetica,sans-Serif" font-size="10.00" fill="#000000">+ write_characters()</text>
</g>
<!-- Node1 -->
<g id="node2" class="node">
<title>Node1</title>
<g id="a_node2"><a xlink:href="structnlohmann_1_1detail_1_1output__adapter__protocol.html" target="_top" xlink:title="abstract output adapter interface ">
<polygon fill="#ffffff" stroke="#000000" points="0,-138.5 0,-228.5 155,-228.5 155,-138.5 0,-138.5"/>
<text text-anchor="start" x="8" y="-216.5" font-family="Helvetica,sans-Serif" font-size="10.00" fill="#000000">nlohmann::detail::output</text>
<text text-anchor="middle" x="77.5" y="-205.5" font-family="Helvetica,sans-Serif" font-size="10.00" fill="#000000">_adapter_protocol&lt; CharType &gt;</text>
<polyline fill="none" stroke="#000000" points="0,-198.5 155,-198.5 "/>
<text text-anchor="middle" x="77.5" y="-186.5" font-family="Helvetica,sans-Serif" font-size="10.00" fill="#000000"> </text>
<polyline fill="none" stroke="#000000" points="0,-179.5 155,-179.5 "/>
<text text-anchor="start" x="8" y="-167.5" font-family="Helvetica,sans-Serif" font-size="10.00" fill="#000000">+ write_character()</text>
<text text-anchor="start" x="8" y="-156.5" font-family="Helvetica,sans-Serif" font-size="10.00" fill="#000000">+ write_characters()</text>
<text text-anchor="start" x="8" y="-145.5" font-family="Helvetica,sans-Serif" font-size="10.00" fill="#000000">+ ~output_adapter_protocol()</text>
</a>
</g>
</g>
<!-- Node1&#45;&gt;Node0 -->
<g id="edge1" class="edge">
<title>Node1&#45;&gt;Node0</title>
<path fill="none" stroke="#191970" d="M77.5,-128.2098C77.5,-119.5051 77.5,-110.5409 77.5,-101.9407"/>
<polygon fill="none" stroke="#191970" points="74.0001,-128.2716 77.5,-138.2716 81.0001,-128.2716 74.0001,-128.2716"/>
</g>
</g>
</svg>
