<?xml version="1.0" encoding="UTF-8" standalone="no"?>
<!DOCTYPE svg PUBLIC "-//W3C//DTD SVG 1.1//EN"
 "http://www.w3.org/Graphics/SVG/1.1/DTD/svg11.dtd">
<!-- Generated by graphviz version 2.40.1 (20161225.0304)
 -->
<!-- Title: nlohmann::detail::iteration_proxy_value&lt; IteratorType &gt; Pages: 1 -->
<svg width="312pt" height="259pt"
 viewBox="0.00 0.00 311.98 259.00" xmlns="http://www.w3.org/2000/svg" xmlns:xlink="http://www.w3.org/1999/xlink">
<g id="graph0" class="graph" transform="scale(1 1) rotate(0) translate(4 255)">
<title>nlohmann::detail::iteration_proxy_value&lt; IteratorType &gt;</title>
<polygon fill="#ffffff" stroke="transparent" points="-4,4 -4,-255 307.9822,-255 307.9822,4 -4,4"/>
<!-- Node1 -->
<g id="node1" class="node">
<title>Node1</title>
<polygon fill="#bfbfbf" stroke="#000000" points="61.9822,-.5 61.9822,-134.5 206.9822,-134.5 206.9822,-.5 61.9822,-.5"/>
<text text-anchor="start" x="69.9822" y="-122.5" font-family="Helvetica,sans-Serif" font-size="10.00" fill="#000000">nlohmann::detail::iteration</text>
<text text-anchor="middle" x="134.4822" y="-111.5" font-family="Helvetica,sans-Serif" font-size="10.00" fill="#000000">_proxy_value&lt; IteratorType &gt;</text>
<polyline fill="none" stroke="#000000" points="61.9822,-104.5 206.9822,-104.5 "/>
<text text-anchor="middle" x="134.4822" y="-92.5" font-family="Helvetica,sans-Serif" font-size="10.00" fill="#000000"> </text>
<polyline fill="none" stroke="#000000" points="61.9822,-85.5 206.9822,-85.5 "/>
<text text-anchor="start" x="69.9822" y="-73.5" font-family="Helvetica,sans-Serif" font-size="10.00" fill="#000000">+ iteration_proxy_value()</text>
<text text-anchor="start" x="69.9822" y="-62.5" font-family="Helvetica,sans-Serif" font-size="10.00" fill="#000000">+ operator*()</text>
<text text-anchor="start" x="69.9822" y="-51.5" font-family="Helvetica,sans-Serif" font-size="10.00" fill="#000000">+ operator++()</text>
<text text-anchor="start" x="69.9822" y="-40.5" font-family="Helvetica,sans-Serif" font-size="10.00" fill="#000000">+ operator==()</text>
<text text-anchor="start" x="69.9822" y="-29.5" font-family="Helvetica,sans-Serif" font-size="10.00" fill="#000000">+ operator!=()</text>
<text text-anchor="start" x="69.9822" y="-18.5" font-family="Helvetica,sans-Serif" font-size="10.00" fill="#000000">+ key()</text>
<text text-anchor="start" x="69.9822" y="-7.5" font-family="Helvetica,sans-Serif" font-size="10.00" fill="#000000">+ value()</text>
</g>
<!-- Node2 -->
<g id="node2" class="node">
<title>Node2</title>
<polygon fill="#ffffff" stroke="#bfbfbf" points="29.9822,-193.5 29.9822,-250.5 70.9822,-250.5 70.9822,-193.5 29.9822,-193.5"/>
<text text-anchor="middle" x="50.4822" y="-238.5" font-family="Helvetica,sans-Serif" font-size="10.00" fill="#000000">string</text>
<polyline fill="none" stroke="#bfbfbf" points="29.9822,-231.5 70.9822,-231.5 "/>
<text text-anchor="middle" x="50.4822" y="-219.5" font-family="Helvetica,sans-Serif" font-size="10.00" fill="#000000"> </text>
<polyline fill="none" stroke="#bfbfbf" points="29.9822,-212.5 70.9822,-212.5 "/>
<text text-anchor="middle" x="50.4822" y="-200.5" font-family="Helvetica,sans-Serif" font-size="10.00" fill="#000000"> </text>
</g>
<!-- Node2&#45;&gt;Node1 -->
<g id="edge1" class="edge">
<title>Node2&#45;&gt;Node1</title>
<path fill="none" stroke="#404040" d="M29.9706,-208.0019C12.7791,-194.4289 -7.3531,-173.0107 3.4822,-153 14.3888,-132.8573 32.3282,-116.7066 51.4823,-104.1037"/>
<polygon fill="none" stroke="#404040" points="51.6943,-103.9724 54.6864,-97.4113 61.8936,-97.6499 58.9014,-104.2109 51.6943,-103.9724"/>
<text text-anchor="middle" x="39.9822" y="-161.5" font-family="Helvetica,sans-Serif" font-size="10.00" fill="#000000"> &#45;array_index_str</text>
</g>
<!-- Node2&#45;&gt;Node1 -->
<g id="edge2" class="edge">
<title>Node2&#45;&gt;Node1</title>
<path fill="none" stroke="#404040" d="M66.4802,-193.1935C69.7981,-187.1875 73.2631,-180.892 76.4822,-175 81.7089,-165.4333 87.1752,-155.374 92.5741,-145.4057"/>
<polygon fill="none" stroke="#404040" points="92.6817,-145.2068 92.0185,-138.0262 98.3916,-134.6523 99.0548,-141.8328 92.6817,-145.2068"/>
<text text-anchor="middle" x="113.4822" y="-161.5" font-family="Helvetica,sans-Serif" font-size="10.00" fill="#000000"> &#45;empty_str</text>
</g>
<!-- Node3 -->
<g id="node3" class="node">
<title>Node3</title>
<polygon fill="#ffffff" stroke="#bfbfbf" points="149.9822,-193.5 149.9822,-250.5 192.9822,-250.5 192.9822,-193.5 149.9822,-193.5"/>
<text text-anchor="middle" x="171.4822" y="-238.5" font-family="Helvetica,sans-Serif" font-size="10.00" fill="#000000">size_t</text>
<polyline fill="none" stroke="#bfbfbf" points="149.9822,-231.5 192.9822,-231.5 "/>
<text text-anchor="middle" x="171.4822" y="-219.5" font-family="Helvetica,sans-Serif" font-size="10.00" fill="#000000"> </text>
<polyline fill="none" stroke="#bfbfbf" points="149.9822,-212.5 192.9822,-212.5 "/>
<text text-anchor="middle" x="171.4822" y="-200.5" font-family="Helvetica,sans-Serif" font-size="10.00" fill="#000000"> </text>
</g>
<!-- Node3&#45;&gt;Node1 -->
<g id="edge3" class="edge">
<title>Node3&#45;&gt;Node1</title>
<path fill="none" stroke="#404040" d="M164.6094,-193.3018C161.4142,-179.9597 157.4408,-163.368 153.4389,-146.6572"/>
<polygon fill="none" stroke="#404040" points="153.3254,-146.183 148.038,-141.2796 150.5306,-134.513 155.818,-139.4164 153.3254,-146.183"/>
<text text-anchor="middle" x="196.9822" y="-167" font-family="Helvetica,sans-Serif" font-size="10.00" fill="#000000"> &#45;array_index</text>
<text text-anchor="middle" x="196.9822" y="-156" font-family="Helvetica,sans-Serif" font-size="10.00" fill="#000000">&#45;array_index_last</text>
</g>
<!-- Node4 -->
<g id="node4" class="node">
<title>Node4</title>
<polygon fill="#ffffff" stroke="#bfbfbf" points="234.9822,-193.5 234.9822,-250.5 303.9822,-250.5 303.9822,-193.5 234.9822,-193.5"/>
<text text-anchor="middle" x="269.4822" y="-238.5" font-family="Helvetica,sans-Serif" font-size="10.00" fill="#000000">IteratorType</text>
<polyline fill="none" stroke="#bfbfbf" points="234.9822,-231.5 303.9822,-231.5 "/>
<text text-anchor="middle" x="269.4822" y="-219.5" font-family="Helvetica,sans-Serif" font-size="10.00" fill="#000000"> </text>
<polyline fill="none" stroke="#bfbfbf" points="234.9822,-212.5 303.9822,-212.5 "/>
<text text-anchor="middle" x="269.4822" y="-200.5" font-family="Helvetica,sans-Serif" font-size="10.00" fill="#000000"> </text>
</g>
<!-- Node4&#45;&gt;Node1 -->
<g id="edge4" class="edge">
<title>Node4&#45;&gt;Node1</title>
<path fill="none" stroke="#404040" d="M259.9741,-193.1833C254.8388,-180.1429 247.6518,-165.0001 238.4822,-153 231.8641,-144.3392 224.2063,-135.9966 216.107,-128.1436"/>
<polygon fill="none" stroke="#404040" points="215.9545,-128.0016 208.8376,-126.8392 207.1734,-119.8227 214.2902,-120.9851 215.9545,-128.0016"/>
<text text-anchor="middle" x="268.4822" y="-161.5" font-family="Helvetica,sans-Serif" font-size="10.00" fill="#000000"> &#45;anchor</text>
</g>
</g>
</svg>
