<?xml version="1.0" encoding="UTF-8" standalone="no"?>
<!DOCTYPE svg PUBLIC "-//W3C//DTD SVG 1.1//EN"
 "http://www.w3.org/Graphics/SVG/1.1/DTD/svg11.dtd">
<!-- Generated by graphviz version 2.40.1 (20161225.0304)
 -->
<!-- Title: nlohmann::basic_json::at Pages: 1 -->
<svg width="612pt" height="88pt"
 viewBox="0.00 0.00 612.00 88.00" xmlns="http://www.w3.org/2000/svg" xmlns:xlink="http://www.w3.org/1999/xlink">
<g id="graph0" class="graph" transform="scale(1 1) rotate(0) translate(4 84)">
<title>nlohmann::basic_json::at</title>
<polygon fill="#ffffff" stroke="transparent" points="-4,4 -4,-84 608,-84 608,4 -4,4"/>
<!-- Node543 -->
<g id="node1" class="node">
<title>Node543</title>
<polygon fill="#bfbfbf" stroke="#000000" points="0,-30 0,-49 125,-49 125,-30 0,-30"/>
<text text-anchor="middle" x="62.5" y="-37" font-family="Helvetica,sans-Serif" font-size="10.00" fill="#000000">nlohmann::basic_json::at</text>
</g>
<!-- Node544 -->
<g id="node2" class="node">
<title>Node544</title>
<g id="a_node2"><a xlink:href="classnlohmann_1_1json__pointer.html#a366d68a67e40d86676d3bdb52e167294" target="_top" xlink:title="nlohmann::json_pointer\l::get_checked">
<polygon fill="#ffffff" stroke="#000000" points="161,-24.5 161,-54.5 278,-54.5 278,-24.5 161,-24.5"/>
<text text-anchor="start" x="169" y="-42.5" font-family="Helvetica,sans-Serif" font-size="10.00" fill="#000000">nlohmann::json_pointer</text>
<text text-anchor="middle" x="219.5" y="-31.5" font-family="Helvetica,sans-Serif" font-size="10.00" fill="#000000">::get_checked</text>
</a>
</g>
</g>
<!-- Node543&#45;&gt;Node544 -->
<g id="edge1" class="edge">
<title>Node543&#45;&gt;Node544</title>
<path fill="none" stroke="#191970" d="M125.0017,-39.5C133.3912,-39.5 142.0354,-39.5 150.5285,-39.5"/>
<polygon fill="#191970" stroke="#191970" points="150.7861,-43.0001 160.7861,-39.5 150.786,-36.0001 150.7861,-43.0001"/>
</g>
<!-- Node545 -->
<g id="node3" class="node">
<title>Node545</title>
<g id="a_node3"><a xlink:href="classnlohmann_1_1detail_1_1out__of__range.html#a3f6d82a6f967c4728a1ec735a7867073" target="_top" xlink:title="nlohmann::detail::out\l_of_range::create">
<polygon fill="#ffffff" stroke="#000000" points="319.5,-49.5 319.5,-79.5 426.5,-79.5 426.5,-49.5 319.5,-49.5"/>
<text text-anchor="start" x="327.5" y="-67.5" font-family="Helvetica,sans-Serif" font-size="10.00" fill="#000000">nlohmann::detail::out</text>
<text text-anchor="middle" x="373" y="-56.5" font-family="Helvetica,sans-Serif" font-size="10.00" fill="#000000">_of_range::create</text>
</a>
</g>
</g>
<!-- Node544&#45;&gt;Node545 -->
<g id="edge2" class="edge">
<title>Node544&#45;&gt;Node545</title>
<path fill="none" stroke="#191970" d="M278.4081,-49.0942C288.4269,-50.7259 298.875,-52.4275 309.0172,-54.0793"/>
<polygon fill="#191970" stroke="#191970" points="308.5974,-57.557 319.0301,-55.7101 309.7227,-50.6481 308.5974,-57.557"/>
</g>
<!-- Node547 -->
<g id="node5" class="node">
<title>Node547</title>
<g id="a_node5"><a xlink:href="classnlohmann_1_1detail_1_1parse__error.html#a137ea4d27de45d8a844fd13451d40f3d" target="_top" xlink:title="create a parse error exception ">
<polygon fill="#ffffff" stroke="#000000" points="314,-.5 314,-30.5 432,-30.5 432,-.5 314,-.5"/>
<text text-anchor="start" x="322" y="-18.5" font-family="Helvetica,sans-Serif" font-size="10.00" fill="#000000">nlohmann::detail::parse</text>
<text text-anchor="middle" x="373" y="-7.5" font-family="Helvetica,sans-Serif" font-size="10.00" fill="#000000">_error::create</text>
</a>
</g>
</g>
<!-- Node544&#45;&gt;Node547 -->
<g id="edge4" class="edge">
<title>Node544&#45;&gt;Node547</title>
<path fill="none" stroke="#191970" d="M278.4081,-30.2896C286.7941,-28.9785 295.4809,-27.6203 304.0372,-26.2825"/>
<polygon fill="#191970" stroke="#191970" points="304.6566,-29.7282 313.9959,-24.7254 303.5752,-22.8122 304.6566,-29.7282"/>
</g>
<!-- Node546 -->
<g id="node4" class="node">
<title>Node546</title>
<g id="a_node4"><a xlink:href="classnlohmann_1_1detail_1_1exception.html#abf41a7e9178356314082284e6cfea278" target="_top" xlink:title="nlohmann::detail::exception\l::name">
<polygon fill="#ffffff" stroke="#000000" points="468,-24.5 468,-54.5 604,-54.5 604,-24.5 468,-24.5"/>
<text text-anchor="start" x="476" y="-42.5" font-family="Helvetica,sans-Serif" font-size="10.00" fill="#000000">nlohmann::detail::exception</text>
<text text-anchor="middle" x="536" y="-31.5" font-family="Helvetica,sans-Serif" font-size="10.00" fill="#000000">::name</text>
</a>
</g>
</g>
<!-- Node545&#45;&gt;Node546 -->
<g id="edge3" class="edge">
<title>Node545&#45;&gt;Node546</title>
<path fill="none" stroke="#191970" d="M426.824,-56.2448C436.8028,-54.7143 447.4096,-53.0875 457.9398,-51.4724"/>
<polygon fill="#191970" stroke="#191970" points="458.6354,-54.9068 467.9892,-49.9311 457.5741,-47.9877 458.6354,-54.9068"/>
</g>
<!-- Node547&#45;&gt;Node546 -->
<g id="edge5" class="edge">
<title>Node547&#45;&gt;Node546</title>
<path fill="none" stroke="#191970" d="M432.3078,-24.2324C440.6169,-25.4559 449.259,-26.7283 457.8515,-27.9935"/>
<polygon fill="#191970" stroke="#191970" points="457.4892,-31.4778 467.8924,-29.4719 458.5089,-24.5525 457.4892,-31.4778"/>
</g>
</g>
</svg>
