<?xml version="1.0" encoding="UTF-8" standalone="no"?>
<!DOCTYPE svg PUBLIC "-//W3C//DTD SVG 1.1//EN"
 "http://www.w3.org/Graphics/SVG/1.1/DTD/svg11.dtd">
<!-- Generated by graphviz version 2.40.1 (20161225.0304)
 -->
<!-- Title: River::Point::angle Pages: 1 -->
<svg width="640pt" height="39pt"
 viewBox="0.00 0.00 640.00 39.00" xmlns="http://www.w3.org/2000/svg" xmlns:xlink="http://www.w3.org/1999/xlink">
<g id="graph0" class="graph" transform="scale(1 1) rotate(0) translate(4 35)">
<title>River::Point::angle</title>
<polygon fill="#ffffff" stroke="transparent" points="-4,4 -4,-35 636,-35 636,4 -4,4"/>
<!-- Node49 -->
<g id="node1" class="node">
<title>Node49</title>
<polygon fill="#bfbfbf" stroke="#000000" points="0,-6 0,-25 98,-25 98,-6 0,-6"/>
<text text-anchor="middle" x="49" y="-13" font-family="Helvetica,sans-Serif" font-size="10.00" fill="#000000">River::Point::angle</text>
</g>
<!-- Node50 -->
<g id="node2" class="node">
<title>Node50</title>
<g id="a_node2"><a xlink:href="classRiver_1_1Point.html#a5a80f76067f92be8434cafff8cf55380" target="_top" xlink:title="Returns Polar representation of vector. ">
<polygon fill="#ffffff" stroke="#000000" points="134,-6 134,-25 244,-25 244,-6 134,-6"/>
<text text-anchor="middle" x="189" y="-13" font-family="Helvetica,sans-Serif" font-size="10.00" fill="#000000">River::Point::getPolar</text>
</a>
</g>
</g>
<!-- Node49&#45;&gt;Node50 -->
<g id="edge1" class="edge">
<title>Node49&#45;&gt;Node50</title>
<path fill="none" stroke="#191970" d="M108.4966,-15.5C116.9199,-15.5 125.5509,-15.5 133.8865,-15.5"/>
<polygon fill="#191970" stroke="#191970" points="108.3588,-12.0001 98.3588,-15.5 108.3587,-19.0001 108.3588,-12.0001"/>
</g>
<!-- Node51 -->
<g id="node3" class="node">
<title>Node51</title>
<g id="a_node3"><a xlink:href="classRiver_1_1Model.html#ad22bc4fecfe36e2cde033df2a5220c07" target="_top" xlink:title="Evaluate next point of simualtion based on series parameters around tip. ">
<polygon fill="#ffffff" stroke="#000000" points="280,-.5 280,-30.5 377,-30.5 377,-.5 280,-.5"/>
<text text-anchor="start" x="288" y="-18.5" font-family="Helvetica,sans-Serif" font-size="10.00" fill="#000000">River::Model::next</text>
<text text-anchor="middle" x="328.5" y="-7.5" font-family="Helvetica,sans-Serif" font-size="10.00" fill="#000000">_point</text>
</a>
</g>
</g>
<!-- Node50&#45;&gt;Node51 -->
<g id="edge2" class="edge">
<title>Node50&#45;&gt;Node51</title>
<path fill="none" stroke="#191970" d="M254.1355,-15.5C262.7185,-15.5 271.395,-15.5 279.6423,-15.5"/>
<polygon fill="#191970" stroke="#191970" points="254.1341,-12.0001 244.1341,-15.5 254.1341,-19.0001 254.1341,-12.0001"/>
</g>
<!-- Node52 -->
<g id="node4" class="node">
<title>Node52</title>
<g id="a_node4"><a xlink:href="namespaceRiver.html#af1a3f7c61809dd8032e4ff5920da83cc" target="_top" xlink:title="One step of forward river evolution. ">
<polygon fill="#ffffff" stroke="#000000" points="413,-6 413,-25 558,-25 558,-6 413,-6"/>
<text text-anchor="middle" x="485.5" y="-13" font-family="Helvetica,sans-Serif" font-size="10.00" fill="#000000">River::ForwardRiverEvolution</text>
</a>
</g>
</g>
<!-- Node51&#45;&gt;Node52 -->
<g id="edge3" class="edge">
<title>Node51&#45;&gt;Node52</title>
<path fill="none" stroke="#191970" d="M387.5589,-15.5C395.7984,-15.5 404.3427,-15.5 412.7969,-15.5"/>
<polygon fill="#191970" stroke="#191970" points="387.3152,-12.0001 377.3152,-15.5 387.3151,-19.0001 387.3152,-12.0001"/>
</g>
<!-- Node53 -->
<g id="node5" class="node">
<title>Node53</title>
<g id="a_node5"><a xlink:href="main_8cpp.html#a0ddf1224851353fc92bfbff6f499fa97" target="_top" xlink:title="Entry point of RiverSim program. ">
<polygon fill="#ffffff" stroke="#000000" points="594,-6 594,-25 632,-25 632,-6 594,-6"/>
<text text-anchor="middle" x="613" y="-13" font-family="Helvetica,sans-Serif" font-size="10.00" fill="#000000">main</text>
</a>
</g>
</g>
<!-- Node52&#45;&gt;Node53 -->
<g id="edge4" class="edge">
<title>Node52&#45;&gt;Node53</title>
<path fill="none" stroke="#191970" d="M568.2526,-15.5C577.7338,-15.5 586.5978,-15.5 593.8947,-15.5"/>
<polygon fill="#191970" stroke="#191970" points="568.1886,-12.0001 558.1886,-15.5 568.1885,-19.0001 568.1886,-12.0001"/>
</g>
</g>
</svg>
