<?xml version="1.0" encoding="UTF-8" standalone="no"?>
<!DOCTYPE svg PUBLIC "-//W3C//DTD SVG 1.1//EN"
 "http://www.w3.org/Graphics/SVG/1.1/DTD/svg11.dtd">
<!-- Generated by graphviz version 2.40.1 (20161225.0304)
 -->
<!-- Title: tethex::Mesh::get_n_vertices Pages: 1 -->
<svg width="596pt" height="192pt"
 viewBox="0.00 0.00 596.00 191.50" xmlns="http://www.w3.org/2000/svg" xmlns:xlink="http://www.w3.org/1999/xlink">
<g id="graph0" class="graph" transform="scale(1 1) rotate(0) translate(4 187.5)">
<title>tethex::Mesh::get_n_vertices</title>
<polygon fill="#ffffff" stroke="transparent" points="-4,4 -4,-187.5 592,-187.5 592,4 -4,4"/>
<!-- Node76 -->
<g id="node1" class="node">
<title>Node76</title>
<polygon fill="#bfbfbf" stroke="#000000" points="0,-82.5 0,-112.5 104,-112.5 104,-82.5 0,-82.5"/>
<text text-anchor="start" x="8" y="-100.5" font-family="Helvetica,sans-Serif" font-size="10.00" fill="#000000">tethex::Mesh::get_n</text>
<text text-anchor="middle" x="52" y="-89.5" font-family="Helvetica,sans-Serif" font-size="10.00" fill="#000000">_vertices</text>
</g>
<!-- Node77 -->
<g id="node2" class="node">
<title>Node77</title>
<g id="a_node2"><a xlink:href="namespaceRiver.html#aad220f83cbabff9aa2d1635de9b079c3" target="_top" xlink:title="River::AppendTreeToMesh">
<polygon fill="#ffffff" stroke="#000000" points="140,-164 140,-183 274,-183 274,-164 140,-164"/>
<text text-anchor="middle" x="207" y="-171" font-family="Helvetica,sans-Serif" font-size="10.00" fill="#000000">River::AppendTreeToMesh</text>
</a>
</g>
</g>
<!-- Node76&#45;&gt;Node77 -->
<g id="edge1" class="edge">
<title>Node76&#45;&gt;Node77</title>
<path fill="none" stroke="#191970" d="M79.855,-118.6236C96.5772,-130.5009 118.6815,-144.8374 140,-154.5 148.1491,-158.1936 157.1853,-161.3394 165.9149,-163.9455"/>
<polygon fill="#191970" stroke="#191970" points="81.7869,-115.7013 71.6337,-112.6744 77.6833,-121.3723 81.7869,-115.7013"/>
</g>
<!-- Node80 -->
<g id="node5" class="node">
<title>Node80</title>
<g id="a_node5"><a xlink:href="classRiver_1_1Solver.html#a3d51dbec8b2d1d790c5f4e0385b408d7" target="_top" xlink:title="River::Solver::SetMesh">
<polygon fill="#ffffff" stroke="#000000" points="147.5,-126 147.5,-145 266.5,-145 266.5,-126 147.5,-126"/>
<text text-anchor="middle" x="207" y="-133" font-family="Helvetica,sans-Serif" font-size="10.00" fill="#000000">River::Solver::SetMesh</text>
</a>
</g>
</g>
<!-- Node76&#45;&gt;Node80 -->
<g id="edge4" class="edge">
<title>Node76&#45;&gt;Node80</title>
<path fill="none" stroke="#191970" d="M113.7792,-112.6459C132.1018,-117.1378 151.6481,-121.9299 168.0855,-125.9597"/>
<polygon fill="#191970" stroke="#191970" points="114.5897,-109.241 104.0439,-110.2592 112.9229,-116.0397 114.5897,-109.241"/>
</g>
<!-- Node81 -->
<g id="node6" class="node">
<title>Node81</title>
<g id="a_node6"><a xlink:href="classtethex_1_1Mesh.html#af7abffd9bc4bd64eb2f4cdd4aaf7fbe3" target="_top" xlink:title="tethex::Mesh::Mesh">
<polygon fill="#ffffff" stroke="#000000" points="155,-88 155,-107 259,-107 259,-88 155,-88"/>
<text text-anchor="middle" x="207" y="-95" font-family="Helvetica,sans-Serif" font-size="10.00" fill="#000000">tethex::Mesh::Mesh</text>
</a>
</g>
</g>
<!-- Node76&#45;&gt;Node81 -->
<g id="edge5" class="edge">
<title>Node76&#45;&gt;Node81</title>
<path fill="none" stroke="#191970" d="M114.1945,-97.5C127.6694,-97.5 141.7871,-97.5 154.8296,-97.5"/>
<polygon fill="#191970" stroke="#191970" points="114.044,-94.0001 104.0439,-97.5 114.0439,-101.0001 114.044,-94.0001"/>
</g>
<!-- Node82 -->
<g id="node7" class="node">
<title>Node82</title>
<g id="a_node7"><a xlink:href="classtethex_1_1Mesh.html#af992d5d2e64047656766e4afcbc95b8b" target="_top" xlink:title="tethex::Mesh::operator=">
<polygon fill="#ffffff" stroke="#000000" points="146.5,-50 146.5,-69 267.5,-69 267.5,-50 146.5,-50"/>
<text text-anchor="middle" x="207" y="-57" font-family="Helvetica,sans-Serif" font-size="10.00" fill="#000000">tethex::Mesh::operator=</text>
</a>
</g>
</g>
<!-- Node76&#45;&gt;Node82 -->
<g id="edge6" class="edge">
<title>Node76&#45;&gt;Node82</title>
<path fill="none" stroke="#191970" d="M113.7792,-82.3541C132.1018,-77.8622 151.6481,-73.0701 168.0855,-69.0403"/>
<polygon fill="#191970" stroke="#191970" points="112.9229,-78.9603 104.0439,-84.7408 114.5897,-85.759 112.9229,-78.9603"/>
</g>
<!-- Node83 -->
<g id="node8" class="node">
<title>Node83</title>
<g id="a_node8"><a xlink:href="classtethex_1_1Mesh.html#a8e5d9c057c6f562d5036f262a23af29c" target="_top" xlink:title="tethex::Mesh::set_new\l_vertices">
<polygon fill="#ffffff" stroke="#000000" points="149,-.5 149,-30.5 265,-30.5 265,-.5 149,-.5"/>
<text text-anchor="start" x="157" y="-18.5" font-family="Helvetica,sans-Serif" font-size="10.00" fill="#000000">tethex::Mesh::set_new</text>
<text text-anchor="middle" x="207" y="-7.5" font-family="Helvetica,sans-Serif" font-size="10.00" fill="#000000">_vertices</text>
</a>
</g>
</g>
<!-- Node76&#45;&gt;Node83 -->
<g id="edge7" class="edge">
<title>Node76&#45;&gt;Node83</title>
<path fill="none" stroke="#191970" d="M80.8293,-76.5457C97.5684,-64.9694 119.3661,-50.8765 140,-40.5 147.0987,-36.9301 154.8356,-33.5827 162.4478,-30.5696"/>
<polygon fill="#191970" stroke="#191970" points="78.7484,-73.7301 72.5699,-82.337 82.7671,-79.4616 78.7484,-73.7301"/>
</g>
<!-- Node78 -->
<g id="node3" class="node">
<title>Node78</title>
<g id="a_node3"><a xlink:href="namespaceRiver.html#aa226e8aa15b4b21c82a2ea177e1faee6" target="_top" xlink:title="River::BoundaryGenerator">
<polygon fill="#ffffff" stroke="#000000" points="310,-164 310,-183 440,-183 440,-164 310,-164"/>
<text text-anchor="middle" x="375" y="-171" font-family="Helvetica,sans-Serif" font-size="10.00" fill="#000000">River::BoundaryGenerator</text>
</a>
</g>
</g>
<!-- Node77&#45;&gt;Node78 -->
<g id="edge2" class="edge">
<title>Node77&#45;&gt;Node78</title>
<path fill="none" stroke="#191970" d="M284.586,-173.5C293.0203,-173.5 301.5413,-173.5 309.8064,-173.5"/>
<polygon fill="#191970" stroke="#191970" points="284.3641,-170.0001 274.364,-173.5 284.364,-177.0001 284.3641,-170.0001"/>
</g>
<!-- Node79 -->
<g id="node4" class="node">
<title>Node79</title>
<g id="a_node4"><a xlink:href="main_8cpp.html#a0ddf1224851353fc92bfbff6f499fa97" target="_top" xlink:title="Entry point of RiverSim program. ">
<polygon fill="#ffffff" stroke="#000000" points="513,-164 513,-183 551,-183 551,-164 513,-164"/>
<text text-anchor="middle" x="532" y="-171" font-family="Helvetica,sans-Serif" font-size="10.00" fill="#000000">main</text>
</a>
</g>
</g>
<!-- Node78&#45;&gt;Node79 -->
<g id="edge3" class="edge">
<title>Node78&#45;&gt;Node79</title>
<path fill="none" stroke="#191970" d="M450.4591,-173.5C473.6386,-173.5 497.1722,-173.5 512.9595,-173.5"/>
<polygon fill="#191970" stroke="#191970" points="450.2182,-170.0001 440.2182,-173.5 450.2182,-177.0001 450.2182,-170.0001"/>
</g>
<!-- Node84 -->
<g id="node9" class="node">
<title>Node84</title>
<g id="a_node9"><a xlink:href="classtethex_1_1Mesh.html#adb803e48ce7101318531730a512ecbc8" target="_top" xlink:title="tethex::Mesh::convert_2D">
<polygon fill="#ffffff" stroke="#000000" points="310,-6 310,-25 440,-25 440,-6 310,-6"/>
<text text-anchor="middle" x="375" y="-13" font-family="Helvetica,sans-Serif" font-size="10.00" fill="#000000">tethex::Mesh::convert_2D</text>
</a>
</g>
</g>
<!-- Node83&#45;&gt;Node84 -->
<g id="edge8" class="edge">
<title>Node83&#45;&gt;Node84</title>
<path fill="none" stroke="#191970" d="M275.5745,-15.5C286.9228,-15.5 298.6601,-15.5 309.9191,-15.5"/>
<polygon fill="#191970" stroke="#191970" points="275.2868,-12.0001 265.2868,-15.5 275.2867,-19.0001 275.2868,-12.0001"/>
</g>
<!-- Node85 -->
<g id="node10" class="node">
<title>Node85</title>
<g id="a_node10"><a xlink:href="classtethex_1_1Mesh.html#aaa882d21498571cbd84d4f7129fd6e32" target="_top" xlink:title="tethex::Mesh::convert">
<polygon fill="#ffffff" stroke="#000000" points="476,-6 476,-25 588,-25 588,-6 476,-6"/>
<text text-anchor="middle" x="532" y="-13" font-family="Helvetica,sans-Serif" font-size="10.00" fill="#000000">tethex::Mesh::convert</text>
</a>
</g>
</g>
<!-- Node84&#45;&gt;Node85 -->
<g id="edge9" class="edge">
<title>Node84&#45;&gt;Node85</title>
<path fill="none" stroke="#191970" d="M450.2433,-15.5C458.8245,-15.5 467.4576,-15.5 475.7317,-15.5"/>
<polygon fill="#191970" stroke="#191970" points="450.2182,-12.0001 440.2182,-15.5 450.2182,-19.0001 450.2182,-12.0001"/>
</g>
</g>
</svg>
