<?xml version="1.0" encoding="UTF-8" standalone="no"?>
<!DOCTYPE svg PUBLIC "-//W3C//DTD SVG 1.1//EN"
 "http://www.w3.org/Graphics/SVG/1.1/DTD/svg11.dtd">
<!-- Generated by graphviz version 2.40.1 (20161225.0304)
 -->
<!-- Title: River::Solver::OpenMesh Pages: 1 -->
<svg width="390pt" height="47pt"
 viewBox="0.00 0.00 390.00 47.00" xmlns="http://www.w3.org/2000/svg" xmlns:xlink="http://www.w3.org/1999/xlink">
<g id="graph0" class="graph" transform="scale(1 1) rotate(0) translate(4 43)">
<title>River::Solver::OpenMesh</title>
<polygon fill="#ffffff" stroke="transparent" points="-4,4 -4,-43 386,-43 386,4 -4,4"/>
<!-- Node20 -->
<g id="node1" class="node">
<title>Node20</title>
<polygon fill="#bfbfbf" stroke="#000000" points="0,-19.5 0,-38.5 127,-38.5 127,-19.5 0,-19.5"/>
<text text-anchor="middle" x="63.5" y="-26.5" font-family="Helvetica,sans-Serif" font-size="10.00" fill="#000000">River::Solver::OpenMesh</text>
</g>
<!-- Node21 -->
<g id="node2" class="node">
<title>Node21</title>
<g id="a_node2"><a xlink:href="main_8cpp.html#a0ddf1224851353fc92bfbff6f499fa97" target="_top" xlink:title="Entry point of RiverSim program. ">
<polygon fill="#ffffff" stroke="#000000" points="344,-19.5 344,-38.5 382,-38.5 382,-19.5 344,-19.5"/>
<text text-anchor="middle" x="363" y="-26.5" font-family="Helvetica,sans-Serif" font-size="10.00" fill="#000000">main</text>
</a>
</g>
</g>
<!-- Node20&#45;&gt;Node21 -->
<g id="edge1" class="edge">
<title>Node20&#45;&gt;Node21</title>
<path fill="none" stroke="#191970" d="M137.3284,-29C205.8439,-29 303.1896,-29 343.9237,-29"/>
<polygon fill="#191970" stroke="#191970" points="137.0163,-25.5001 127.0162,-29 137.0162,-32.5001 137.0163,-25.5001"/>
</g>
<!-- Node22 -->
<g id="node3" class="node">
<title>Node22</title>
<g id="a_node3"><a xlink:href="namespaceRiver.html#a494b68e2992de95500d6d81770de62ed" target="_top" xlink:title="River::ForwardRiverEvolution">
<polygon fill="#ffffff" stroke="#000000" points="163,-.5 163,-19.5 308,-19.5 308,-.5 163,-.5"/>
<text text-anchor="middle" x="235.5" y="-7.5" font-family="Helvetica,sans-Serif" font-size="10.00" fill="#000000">River::ForwardRiverEvolution</text>
</a>
</g>
</g>
<!-- Node20&#45;&gt;Node22 -->
<g id="edge2" class="edge">
<title>Node20&#45;&gt;Node22</title>
<path fill="none" stroke="#191970" d="M137.0282,-20.8777C145.6057,-19.9302 154.3523,-18.964 162.9168,-18.0179"/>
<polygon fill="#191970" stroke="#191970" points="136.613,-17.4022 127.0578,-21.9791 137.3816,-24.3599 136.613,-17.4022"/>
</g>
<!-- Node22&#45;&gt;Node21 -->
<g id="edge3" class="edge">
<title>Node22&#45;&gt;Node21</title>
<path fill="none" stroke="#191970" d="M309.7834,-21.0697C322.3501,-22.9424 334.3551,-24.7313 343.7718,-26.1346"/>
<polygon fill="#191970" stroke="#191970" points="310.0302,-17.5679 299.6235,-19.5557 308.9984,-24.4914 310.0302,-17.5679"/>
</g>
</g>
</svg>
