<?xml version="1.0" encoding="UTF-8" standalone="no"?>
<!DOCTYPE svg PUBLIC "-//W3C//DTD SVG 1.1//EN"
 "http://www.w3.org/Graphics/SVG/1.1/DTD/svg11.dtd">
<!-- Generated by graphviz version 2.40.1 (20161225.0304)
 -->
<!-- Title: River::Solver::output_results Pages: 1 -->
<svg width="499pt" height="53pt"
 viewBox="0.00 0.00 499.00 52.50" xmlns="http://www.w3.org/2000/svg" xmlns:xlink="http://www.w3.org/1999/xlink">
<g id="graph0" class="graph" transform="scale(1 1) rotate(0) translate(4 48.5)">
<title>River::Solver::output_results</title>
<polygon fill="#ffffff" stroke="transparent" points="-4,4 -4,-48.5 495,-48.5 495,4 -4,4"/>
<!-- Node70 -->
<g id="node1" class="node">
<title>Node70</title>
<polygon fill="#bfbfbf" stroke="#000000" points="0,-14 0,-44 107,-44 107,-14 0,-14"/>
<text text-anchor="start" x="8" y="-32" font-family="Helvetica,sans-Serif" font-size="10.00" fill="#000000">River::Solver::output</text>
<text text-anchor="middle" x="53.5" y="-21" font-family="Helvetica,sans-Serif" font-size="10.00" fill="#000000">_results</text>
</g>
<!-- Node71 -->
<g id="node2" class="node">
<title>Node71</title>
<g id="a_node2"><a xlink:href="classRiver_1_1Solver.html#a4222fe744d607f870a5d7d22b11e8334" target="_top" xlink:title="River::Solver::run">
<polygon fill="#ffffff" stroke="#000000" points="143,-19.5 143,-38.5 236,-38.5 236,-19.5 143,-19.5"/>
<text text-anchor="middle" x="189.5" y="-26.5" font-family="Helvetica,sans-Serif" font-size="10.00" fill="#000000">River::Solver::run</text>
</a>
</g>
</g>
<!-- Node70&#45;&gt;Node71 -->
<g id="edge1" class="edge">
<title>Node70&#45;&gt;Node71</title>
<path fill="none" stroke="#191970" d="M117.2564,-29C125.8433,-29 134.5207,-29 142.7382,-29"/>
<polygon fill="#191970" stroke="#191970" points="117.2508,-25.5001 107.2508,-29 117.2508,-32.5001 117.2508,-25.5001"/>
</g>
<!-- Node72 -->
<g id="node3" class="node">
<title>Node72</title>
<g id="a_node3"><a xlink:href="main_8cpp.html#a0ddf1224851353fc92bfbff6f499fa97" target="_top" xlink:title="Entry point of RiverSim program. ">
<polygon fill="#ffffff" stroke="#000000" points="453,-19.5 453,-38.5 491,-38.5 491,-19.5 453,-19.5"/>
<text text-anchor="middle" x="472" y="-26.5" font-family="Helvetica,sans-Serif" font-size="10.00" fill="#000000">main</text>
</a>
</g>
</g>
<!-- Node71&#45;&gt;Node72 -->
<g id="edge2" class="edge">
<title>Node71&#45;&gt;Node72</title>
<path fill="none" stroke="#191970" d="M246.4871,-29C310.512,-29 410.9413,-29 452.7424,-29"/>
<polygon fill="#191970" stroke="#191970" points="246.1492,-25.5001 236.1491,-29 246.1491,-32.5001 246.1492,-25.5001"/>
</g>
<!-- Node73 -->
<g id="node4" class="node">
<title>Node73</title>
<g id="a_node4"><a xlink:href="namespaceRiver.html#a494b68e2992de95500d6d81770de62ed" target="_top" xlink:title="River::ForwardRiverEvolution">
<polygon fill="#ffffff" stroke="#000000" points="272,-.5 272,-19.5 417,-19.5 417,-.5 272,-.5"/>
<text text-anchor="middle" x="344.5" y="-7.5" font-family="Helvetica,sans-Serif" font-size="10.00" fill="#000000">River::ForwardRiverEvolution</text>
</a>
</g>
</g>
<!-- Node71&#45;&gt;Node73 -->
<g id="edge3" class="edge">
<title>Node71&#45;&gt;Node73</title>
<path fill="none" stroke="#191970" d="M246.0614,-22.0667C254.4747,-21.0354 263.2438,-19.9604 271.9301,-18.8957"/>
<polygon fill="#191970" stroke="#191970" points="245.5049,-18.6086 236.0051,-23.2994 246.3567,-25.5566 245.5049,-18.6086"/>
</g>
<!-- Node73&#45;&gt;Node72 -->
<g id="edge4" class="edge">
<title>Node73&#45;&gt;Node72</title>
<path fill="none" stroke="#191970" d="M418.7834,-21.0697C431.3501,-22.9424 443.3551,-24.7313 452.7718,-26.1346"/>
<polygon fill="#191970" stroke="#191970" points="419.0302,-17.5679 408.6235,-19.5557 417.9984,-24.4914 419.0302,-17.5679"/>
</g>
</g>
</svg>
