<?xml version="1.0" encoding="UTF-8" standalone="no"?>
<!DOCTYPE svg PUBLIC "-//W3C//DTD SVG 1.1//EN"
 "http://www.w3.org/Graphics/SVG/1.1/DTD/svg11.dtd">
<!-- Generated by graphviz version 2.40.1 (20161225.0304)
 -->
<!-- Title: River::Border::GetHolesId Pages: 1 -->
<svg width="299pt" height="66pt"
 viewBox="0.00 0.00 299.00 66.00" xmlns="http://www.w3.org/2000/svg" xmlns:xlink="http://www.w3.org/1999/xlink">
<g id="graph0" class="graph" transform="scale(1 1) rotate(0) translate(4 62)">
<title>River::Border::GetHolesId</title>
<polygon fill="#ffffff" stroke="transparent" points="-4,4 -4,-62 295,-62 295,4 -4,4"/>
<!-- Node37 -->
<g id="node1" class="node">
<title>Node37</title>
<polygon fill="#bfbfbf" stroke="#000000" points="0,-19.5 0,-38.5 130,-38.5 130,-19.5 0,-19.5"/>
<text text-anchor="middle" x="65" y="-26.5" font-family="Helvetica,sans-Serif" font-size="10.00" fill="#000000">River::Border::GetHolesId</text>
</g>
<!-- Node38 -->
<g id="node2" class="node">
<title>Node38</title>
<g id="a_node2"><a xlink:href="classtethex_1_1Mesh.html#a9fefc160a592f20226064d1b03b3a14d" target="_top" xlink:title="tethex::Mesh::get_points">
<polygon fill="#ffffff" stroke="#000000" points="166,-38.5 166,-57.5 291,-57.5 291,-38.5 166,-38.5"/>
<text text-anchor="middle" x="228.5" y="-45.5" font-family="Helvetica,sans-Serif" font-size="10.00" fill="#000000">tethex::Mesh::get_points</text>
</a>
</g>
</g>
<!-- Node37&#45;&gt;Node38 -->
<g id="edge1" class="edge">
<title>Node37&#45;&gt;Node38</title>
<path fill="none" stroke="#191970" d="M130.0893,-36.5639C138.5382,-37.5457 147.235,-38.5564 155.7977,-39.5514"/>
<polygon fill="#191970" stroke="#191970" points="155.428,-43.0319 165.7652,-40.7097 156.2361,-36.0787 155.428,-43.0319"/>
</g>
<!-- Node39 -->
<g id="node3" class="node">
<title>Node39</title>
<g id="a_node3"><a xlink:href="classRiver_1_1Border.html#a7797586b16b2b07205738b1b5509a8dd" target="_top" xlink:title="Checks if point id value represents hole. ">
<polygon fill="#ffffff" stroke="#000000" points="174,-.5 174,-19.5 283,-19.5 283,-.5 174,-.5"/>
<text text-anchor="middle" x="228.5" y="-7.5" font-family="Helvetica,sans-Serif" font-size="10.00" fill="#000000">River::Border::IsHole</text>
</a>
</g>
</g>
<!-- Node37&#45;&gt;Node39 -->
<g id="edge2" class="edge">
<title>Node37&#45;&gt;Node39</title>
<path fill="none" stroke="#191970" d="M130.0893,-21.4361C141.2028,-20.1446 152.7453,-18.8033 163.8474,-17.5132"/>
<polygon fill="#191970" stroke="#191970" points="164.3653,-20.9766 173.8944,-16.3456 163.5572,-14.0234 164.3653,-20.9766"/>
</g>
</g>
</svg>
