<?xml version="1.0" encoding="UTF-8" standalone="no"?>
<!DOCTYPE svg PUBLIC "-//W3C//DTD SVG 1.1//EN"
 "http://www.w3.org/Graphics/SVG/1.1/DTD/svg11.dtd">
<!-- Generated by graphviz version 2.40.1 (20161225.0304)
 -->
<!-- Title: River::Solver Pages: 1 -->
<svg width="1254pt" height="358pt"
 viewBox="0.00 0.00 1254.00 358.00" xmlns="http://www.w3.org/2000/svg" xmlns:xlink="http://www.w3.org/1999/xlink">
<g id="graph0" class="graph" transform="scale(1 1) rotate(0) translate(4 354)">
<title>River::Solver</title>
<polygon fill="#ffffff" stroke="transparent" points="-4,4 -4,-354 1250,-354 1250,4 -4,4"/>
<!-- Node1 -->
<g id="node1" class="node">
<title>Node1</title>
<polygon fill="#bfbfbf" stroke="#000000" points="574,-.5 574,-222.5 717,-222.5 717,-.5 574,-.5"/>
<text text-anchor="middle" x="645.5" y="-210.5" font-family="Helvetica,sans-Serif" font-size="10.00" fill="#000000">River::Solver</text>
<polyline fill="none" stroke="#000000" points="574,-203.5 717,-203.5 "/>
<text text-anchor="middle" x="645.5" y="-191.5" font-family="Helvetica,sans-Serif" font-size="10.00" fill="#000000"> </text>
<polyline fill="none" stroke="#000000" points="574,-184.5 717,-184.5 "/>
<text text-anchor="start" x="582" y="-172.5" font-family="Helvetica,sans-Serif" font-size="10.00" fill="#000000">+ Solver()</text>
<text text-anchor="start" x="582" y="-161.5" font-family="Helvetica,sans-Serif" font-size="10.00" fill="#000000">+ ~Solver()</text>
<text text-anchor="start" x="582" y="-150.5" font-family="Helvetica,sans-Serif" font-size="10.00" fill="#000000">+ SetBoundaryRegionValue()</text>
<text text-anchor="start" x="582" y="-139.5" font-family="Helvetica,sans-Serif" font-size="10.00" fill="#000000">+ SetMesh()</text>
<text text-anchor="start" x="582" y="-128.5" font-family="Helvetica,sans-Serif" font-size="10.00" fill="#000000">+ OpenMesh()</text>
<text text-anchor="start" x="582" y="-117.5" font-family="Helvetica,sans-Serif" font-size="10.00" fill="#000000">+ run()</text>
<text text-anchor="start" x="582" y="-106.5" font-family="Helvetica,sans-Serif" font-size="10.00" fill="#000000">+ integrate()</text>
<text text-anchor="start" x="582" y="-95.5" font-family="Helvetica,sans-Serif" font-size="10.00" fill="#000000">+ integration_test()</text>
<text text-anchor="start" x="582" y="-84.5" font-family="Helvetica,sans-Serif" font-size="10.00" fill="#000000">+ max_value()</text>
<text text-anchor="start" x="582" y="-73.5" font-family="Helvetica,sans-Serif" font-size="10.00" fill="#000000">+ clear()</text>
<text text-anchor="start" x="582" y="-62.5" font-family="Helvetica,sans-Serif" font-size="10.00" fill="#000000">&#45; setup_system()</text>
<text text-anchor="start" x="582" y="-51.5" font-family="Helvetica,sans-Serif" font-size="10.00" fill="#000000">&#45; assemble_system()</text>
<text text-anchor="start" x="582" y="-40.5" font-family="Helvetica,sans-Serif" font-size="10.00" fill="#000000">&#45; solve()</text>
<text text-anchor="start" x="582" y="-29.5" font-family="Helvetica,sans-Serif" font-size="10.00" fill="#000000">&#45; refine_grid()</text>
<text text-anchor="start" x="582" y="-18.5" font-family="Helvetica,sans-Serif" font-size="10.00" fill="#000000">&#45; output_results()</text>
<text text-anchor="start" x="582" y="-7.5" font-family="Helvetica,sans-Serif" font-size="10.00" fill="#000000">&#45; TryInsertCellBoundary()</text>
</g>
<!-- Node2 -->
<g id="node2" class="node">
<title>Node2</title>
<polygon fill="#ffffff" stroke="#bfbfbf" points="0,-281.5 0,-349.5 125,-349.5 125,-281.5 0,-281.5"/>
<text text-anchor="start" x="8" y="-337.5" font-family="Helvetica,sans-Serif" font-size="10.00" fill="#000000">map&lt; double, std::vector</text>
<text text-anchor="middle" x="62.5" y="-326.5" font-family="Helvetica,sans-Serif" font-size="10.00" fill="#000000">&lt; int &gt; &gt;</text>
<polyline fill="none" stroke="#bfbfbf" points="0,-319.5 125,-319.5 "/>
<text text-anchor="middle" x="62.5" y="-307.5" font-family="Helvetica,sans-Serif" font-size="10.00" fill="#000000"> </text>
<polyline fill="none" stroke="#bfbfbf" points="0,-300.5 125,-300.5 "/>
<text text-anchor="middle" x="62.5" y="-288.5" font-family="Helvetica,sans-Serif" font-size="10.00" fill="#000000"> </text>
</g>
<!-- Node2&#45;&gt;Node1 -->
<g id="edge1" class="edge">
<title>Node2&#45;&gt;Node1</title>
<path fill="none" stroke="#404040" d="M91.448,-281.3588C105.2654,-267.0047 122.844,-251.284 141.5,-241 277.3465,-166.1156 457.691,-133.4268 561.7323,-120.0185"/>
<polygon fill="none" stroke="#404040" points="561.8173,-120.0079 567.2731,-115.2926 573.7241,-118.5151 568.2683,-123.2304 561.8173,-120.0079"/>
<text text-anchor="middle" x="192.5" y="-249.5" font-family="Helvetica,sans-Serif" font-size="10.00" fill="#000000"> &#45;boundaryRegionValue</text>
</g>
<!-- Node3 -->
<g id="node3" class="node">
<title>Node3</title>
<polygon fill="#ffffff" stroke="#bfbfbf" points="143.5,-287 143.5,-344 249.5,-344 249.5,-287 143.5,-287"/>
<text text-anchor="middle" x="196.5" y="-332" font-family="Helvetica,sans-Serif" font-size="10.00" fill="#000000">Triangulation&lt; dim &gt;</text>
<polyline fill="none" stroke="#bfbfbf" points="143.5,-325 249.5,-325 "/>
<text text-anchor="middle" x="196.5" y="-313" font-family="Helvetica,sans-Serif" font-size="10.00" fill="#000000"> </text>
<polyline fill="none" stroke="#bfbfbf" points="143.5,-306 249.5,-306 "/>
<text text-anchor="middle" x="196.5" y="-294" font-family="Helvetica,sans-Serif" font-size="10.00" fill="#000000"> </text>
</g>
<!-- Node3&#45;&gt;Node1 -->
<g id="edge2" class="edge">
<title>Node3&#45;&gt;Node1</title>
<path fill="none" stroke="#404040" d="M221.2249,-286.9253C235.75,-271.5827 255.2048,-253.3423 275.5,-241 366.3454,-185.7534 484.1102,-149.7077 562.1041,-130.003"/>
<polygon fill="none" stroke="#404040" points="562.1465,-129.9925 567.0042,-124.663 573.792,-127.0972 568.9344,-132.4267 562.1465,-129.9925"/>
<text text-anchor="middle" x="305" y="-249.5" font-family="Helvetica,sans-Serif" font-size="10.00" fill="#000000"> &#45;triangulation</text>
</g>
<!-- Node4 -->
<g id="node4" class="node">
<title>Node4</title>
<polygon fill="#ffffff" stroke="#bfbfbf" points="268,-287 268,-344 313,-344 313,-287 268,-287"/>
<text text-anchor="middle" x="290.5" y="-332" font-family="Helvetica,sans-Serif" font-size="10.00" fill="#000000">double</text>
<polyline fill="none" stroke="#bfbfbf" points="268,-325 313,-325 "/>
<text text-anchor="middle" x="290.5" y="-313" font-family="Helvetica,sans-Serif" font-size="10.00" fill="#000000"> </text>
<polyline fill="none" stroke="#bfbfbf" points="268,-306 313,-306 "/>
<text text-anchor="middle" x="290.5" y="-294" font-family="Helvetica,sans-Serif" font-size="10.00" fill="#000000"> </text>
</g>
<!-- Node4&#45;&gt;Node1 -->
<g id="edge3" class="edge">
<title>Node4&#45;&gt;Node1</title>
<path fill="none" stroke="#404040" d="M313.0676,-288.7795C327.2047,-273.2913 346.4905,-254.2874 366.5,-241 428.3284,-199.9427 505.2575,-165.2961 562.6669,-142.2009"/>
<polygon fill="none" stroke="#404040" points="562.7293,-142.1761 566.8242,-136.2405 573.8782,-137.7374 569.7833,-143.6731 562.7293,-142.1761"/>
<text text-anchor="middle" x="394.5" y="-249.5" font-family="Helvetica,sans-Serif" font-size="10.00" fill="#000000"> +field_value</text>
</g>
<!-- Node5 -->
<g id="node5" class="node">
<title>Node5</title>
<polygon fill="#ffffff" stroke="#bfbfbf" points="331,-287 331,-344 420,-344 420,-287 331,-287"/>
<text text-anchor="middle" x="375.5" y="-332" font-family="Helvetica,sans-Serif" font-size="10.00" fill="#000000">ConstraintMatrix</text>
<polyline fill="none" stroke="#bfbfbf" points="331,-325 420,-325 "/>
<text text-anchor="middle" x="375.5" y="-313" font-family="Helvetica,sans-Serif" font-size="10.00" fill="#000000"> </text>
<polyline fill="none" stroke="#bfbfbf" points="331,-306 420,-306 "/>
<text text-anchor="middle" x="375.5" y="-294" font-family="Helvetica,sans-Serif" font-size="10.00" fill="#000000"> </text>
</g>
<!-- Node5&#45;&gt;Node1 -->
<g id="edge4" class="edge">
<title>Node5&#45;&gt;Node1</title>
<path fill="none" stroke="#404040" d="M401.7155,-286.9064C415.5939,-272.4462 433.2903,-255.035 450.5,-241 485.7575,-212.2464 527.469,-183.8762 563.2475,-161.0527"/>
<polygon fill="none" stroke="#404040" points="563.5191,-160.8807 566.4484,-154.2913 573.6575,-154.4609 570.7283,-161.0502 563.5191,-160.8807"/>
<text text-anchor="middle" x="478" y="-249.5" font-family="Helvetica,sans-Serif" font-size="10.00" fill="#000000"> &#45;constraints</text>
</g>
<!-- Node6 -->
<g id="node6" class="node">
<title>Node6</title>
<polygon fill="#ffffff" stroke="#bfbfbf" points="437.5,-287 437.5,-344 521.5,-344 521.5,-287 437.5,-287"/>
<text text-anchor="middle" x="479.5" y="-332" font-family="Helvetica,sans-Serif" font-size="10.00" fill="#000000">SparsityPattern</text>
<polyline fill="none" stroke="#bfbfbf" points="437.5,-325 521.5,-325 "/>
<text text-anchor="middle" x="479.5" y="-313" font-family="Helvetica,sans-Serif" font-size="10.00" fill="#000000"> </text>
<polyline fill="none" stroke="#bfbfbf" points="437.5,-306 521.5,-306 "/>
<text text-anchor="middle" x="479.5" y="-294" font-family="Helvetica,sans-Serif" font-size="10.00" fill="#000000"> </text>
</g>
<!-- Node6&#45;&gt;Node1 -->
<g id="edge5" class="edge">
<title>Node6&#45;&gt;Node1</title>
<path fill="none" stroke="#404040" d="M495.5131,-286.6979C503.8396,-272.508 514.5492,-255.3977 525.5,-241 537.754,-224.8889 551.6713,-208.4722 565.5783,-192.9799"/>
<polygon fill="none" stroke="#404040" points="565.6874,-192.8597 566.7582,-185.7286 573.7527,-183.9743 572.6819,-191.1055 565.6874,-192.8597"/>
<text text-anchor="middle" x="563.5" y="-249.5" font-family="Helvetica,sans-Serif" font-size="10.00" fill="#000000"> &#45;sparsity_pattern</text>
</g>
<!-- Node7 -->
<g id="node7" class="node">
<title>Node7</title>
<polygon fill="#ffffff" stroke="#bfbfbf" points="540,-287 540,-344 643,-344 643,-287 540,-287"/>
<text text-anchor="middle" x="591.5" y="-332" font-family="Helvetica,sans-Serif" font-size="10.00" fill="#000000">DoFHandler&lt; dim &gt;</text>
<polyline fill="none" stroke="#bfbfbf" points="540,-325 643,-325 "/>
<text text-anchor="middle" x="591.5" y="-313" font-family="Helvetica,sans-Serif" font-size="10.00" fill="#000000"> </text>
<polyline fill="none" stroke="#bfbfbf" points="540,-306 643,-306 "/>
<text text-anchor="middle" x="591.5" y="-294" font-family="Helvetica,sans-Serif" font-size="10.00" fill="#000000"> </text>
</g>
<!-- Node7&#45;&gt;Node1 -->
<g id="edge6" class="edge">
<title>Node7&#45;&gt;Node1</title>
<path fill="none" stroke="#404040" d="M599.1224,-286.7045C602.9379,-272.2902 607.8446,-253.7536 613.0325,-234.1551"/>
<polygon fill="none" stroke="#404040" points="613.0426,-234.1167 610.7111,-227.2929 616.1133,-222.5162 618.4448,-229.3401 613.0426,-234.1167"/>
<text text-anchor="middle" x="639" y="-249.5" font-family="Helvetica,sans-Serif" font-size="10.00" fill="#000000"> &#45;dof_handler</text>
</g>
<!-- Node8 -->
<g id="node8" class="node">
<title>Node8</title>
<polygon fill="#ffffff" stroke="#bfbfbf" points="661.5,-287 661.5,-344 737.5,-344 737.5,-287 661.5,-287"/>
<text text-anchor="middle" x="699.5" y="-332" font-family="Helvetica,sans-Serif" font-size="10.00" fill="#000000">FE_Q&lt; dim &gt;</text>
<polyline fill="none" stroke="#bfbfbf" points="661.5,-325 737.5,-325 "/>
<text text-anchor="middle" x="699.5" y="-313" font-family="Helvetica,sans-Serif" font-size="10.00" fill="#000000"> </text>
<polyline fill="none" stroke="#bfbfbf" points="661.5,-306 737.5,-306 "/>
<text text-anchor="middle" x="699.5" y="-294" font-family="Helvetica,sans-Serif" font-size="10.00" fill="#000000"> </text>
</g>
<!-- Node8&#45;&gt;Node1 -->
<g id="edge7" class="edge">
<title>Node8&#45;&gt;Node1</title>
<path fill="none" stroke="#404040" d="M691.8776,-286.7045C688.0621,-272.2902 683.1554,-253.7536 677.9675,-234.1551"/>
<polygon fill="none" stroke="#404040" points="677.9574,-234.1167 672.5552,-229.3401 674.8867,-222.5162 680.2889,-227.2929 677.9574,-234.1167"/>
<text text-anchor="middle" x="692" y="-249.5" font-family="Helvetica,sans-Serif" font-size="10.00" fill="#000000"> &#45;fe</text>
</g>
<!-- Node9 -->
<g id="node9" class="node">
<title>Node9</title>
<polygon fill="#ffffff" stroke="#bfbfbf" points="756,-287 756,-344 785,-344 785,-287 756,-287"/>
<text text-anchor="middle" x="770.5" y="-332" font-family="Helvetica,sans-Serif" font-size="10.00" fill="#000000">int</text>
<polyline fill="none" stroke="#bfbfbf" points="756,-325 785,-325 "/>
<text text-anchor="middle" x="770.5" y="-313" font-family="Helvetica,sans-Serif" font-size="10.00" fill="#000000"> </text>
<polyline fill="none" stroke="#bfbfbf" points="756,-306 785,-306 "/>
<text text-anchor="middle" x="770.5" y="-294" font-family="Helvetica,sans-Serif" font-size="10.00" fill="#000000"> </text>
</g>
<!-- Node9&#45;&gt;Node1 -->
<g id="edge8" class="edge">
<title>Node9&#45;&gt;Node1</title>
<path fill="none" stroke="#404040" d="M755.9163,-291.6994C746.5896,-276.4782 733.7052,-255.4509 720.0218,-233.1196"/>
<polygon fill="none" stroke="#404040" points="719.9582,-233.0157 713.4127,-229.9896 713.6886,-222.7838 720.234,-225.8099 719.9582,-233.0157"/>
<text text-anchor="middle" x="747.5" y="-249.5" font-family="Helvetica,sans-Serif" font-size="10.00" fill="#000000"> &#45;dim</text>
</g>
<!-- Node10 -->
<g id="node10" class="node">
<title>Node10</title>
<polygon fill="#ffffff" stroke="#bfbfbf" points="803.5,-287 803.5,-344 895.5,-344 895.5,-287 803.5,-287"/>
<text text-anchor="middle" x="849.5" y="-332" font-family="Helvetica,sans-Serif" font-size="10.00" fill="#000000">Vector&lt; double &gt;</text>
<polyline fill="none" stroke="#bfbfbf" points="803.5,-325 895.5,-325 "/>
<text text-anchor="middle" x="849.5" y="-313" font-family="Helvetica,sans-Serif" font-size="10.00" fill="#000000"> </text>
<polyline fill="none" stroke="#bfbfbf" points="803.5,-306 895.5,-306 "/>
<text text-anchor="middle" x="849.5" y="-294" font-family="Helvetica,sans-Serif" font-size="10.00" fill="#000000"> </text>
</g>
<!-- Node10&#45;&gt;Node1 -->
<g id="edge9" class="edge">
<title>Node10&#45;&gt;Node1</title>
<path fill="none" stroke="#404040" d="M820.7045,-286.7045C796.1044,-262.1044 759.4973,-225.4973 726.0966,-192.0966"/>
<polygon fill="none" stroke="#404040" points="725.7153,-191.7153 718.6442,-190.3011 717.23,-183.23 724.3011,-184.6442 725.7153,-191.7153"/>
<text text-anchor="middle" x="822" y="-255" font-family="Helvetica,sans-Serif" font-size="10.00" fill="#000000"> &#45;solution</text>
<text text-anchor="middle" x="822" y="-244" font-family="Helvetica,sans-Serif" font-size="10.00" fill="#000000">&#45;system_rhs</text>
</g>
<!-- Node11 -->
<g id="node11" class="node">
<title>Node11</title>
<polygon fill="#ffffff" stroke="#bfbfbf" points="914,-287 914,-344 1027,-344 1027,-287 914,-287"/>
<text text-anchor="middle" x="970.5" y="-332" font-family="Helvetica,sans-Serif" font-size="10.00" fill="#000000">const QGauss&lt; dim &gt;</text>
<polyline fill="none" stroke="#bfbfbf" points="914,-325 1027,-325 "/>
<text text-anchor="middle" x="970.5" y="-313" font-family="Helvetica,sans-Serif" font-size="10.00" fill="#000000"> </text>
<polyline fill="none" stroke="#bfbfbf" points="914,-306 1027,-306 "/>
<text text-anchor="middle" x="970.5" y="-294" font-family="Helvetica,sans-Serif" font-size="10.00" fill="#000000"> </text>
</g>
<!-- Node11&#45;&gt;Node1 -->
<g id="edge10" class="edge">
<title>Node11&#45;&gt;Node1</title>
<path fill="none" stroke="#404040" d="M925.8429,-286.9152C904.0561,-273.0077 877.4439,-256.0763 853.5,-241 812.2064,-214.9994 766.1546,-186.2975 727.9006,-162.536"/>
<polygon fill="none" stroke="#404040" points="727.5228,-162.3015 720.3155,-162.5347 717.3282,-155.9715 724.5355,-155.7383 727.5228,-162.3015"/>
<text text-anchor="middle" x="930.5" y="-249.5" font-family="Helvetica,sans-Serif" font-size="10.00" fill="#000000"> &#45;quadrature_formula</text>
</g>
<!-- Node12 -->
<g id="node12" class="node">
<title>Node12</title>
<polygon fill="#ffffff" stroke="#bfbfbf" points="1045.5,-287 1045.5,-344 1101.5,-344 1101.5,-287 1045.5,-287"/>
<text text-anchor="middle" x="1073.5" y="-332" font-family="Helvetica,sans-Serif" font-size="10.00" fill="#000000">unsigned</text>
<polyline fill="none" stroke="#bfbfbf" points="1045.5,-325 1101.5,-325 "/>
<text text-anchor="middle" x="1073.5" y="-313" font-family="Helvetica,sans-Serif" font-size="10.00" fill="#000000"> </text>
<polyline fill="none" stroke="#bfbfbf" points="1045.5,-306 1101.5,-306 "/>
<text text-anchor="middle" x="1073.5" y="-294" font-family="Helvetica,sans-Serif" font-size="10.00" fill="#000000"> </text>
</g>
<!-- Node12&#45;&gt;Node1 -->
<g id="edge11" class="edge">
<title>Node12&#45;&gt;Node1</title>
<path fill="none" stroke="#404040" d="M1045.1683,-288.3507C1042.2868,-285.8121 1039.3656,-283.3228 1036.5,-281 1012.458,-261.5114 1006.7941,-255.5896 979.5,-241 897.7089,-197.28 797.8735,-160.5529 728.7691,-137.5068"/>
<polygon fill="none" stroke="#404040" points="728.487,-137.4136 721.5345,-139.3274 717.0938,-133.6458 724.0463,-131.732 728.487,-137.4136"/>
<text text-anchor="middle" x="1058" y="-249.5" font-family="Helvetica,sans-Serif" font-size="10.00" fill="#000000"> +numOfRefinments</text>
</g>
<!-- Node13 -->
<g id="node13" class="node">
<title>Node13</title>
<polygon fill="#ffffff" stroke="#bfbfbf" points="1125,-287 1125,-344 1246,-344 1246,-287 1125,-287"/>
<text text-anchor="middle" x="1185.5" y="-332" font-family="Helvetica,sans-Serif" font-size="10.00" fill="#000000">SparseMatrix&lt; double &gt;</text>
<polyline fill="none" stroke="#bfbfbf" points="1125,-325 1246,-325 "/>
<text text-anchor="middle" x="1185.5" y="-313" font-family="Helvetica,sans-Serif" font-size="10.00" fill="#000000"> </text>
<polyline fill="none" stroke="#bfbfbf" points="1125,-306 1246,-306 "/>
<text text-anchor="middle" x="1185.5" y="-294" font-family="Helvetica,sans-Serif" font-size="10.00" fill="#000000"> </text>
</g>
<!-- Node13&#45;&gt;Node1 -->
<g id="edge12" class="edge">
<title>Node13&#45;&gt;Node1</title>
<path fill="none" stroke="#404040" d="M1161.4099,-286.796C1146.9423,-271.2189 1127.3369,-252.7917 1106.5,-241 985.2527,-172.3856 825.1964,-138.1096 729.099,-122.618"/>
<polygon fill="none" stroke="#404040" points="728.9816,-122.5996 722.4322,-125.6171 717.1278,-120.7321 723.6772,-117.7146 728.9816,-122.5996"/>
<text text-anchor="middle" x="1170" y="-249.5" font-family="Helvetica,sans-Serif" font-size="10.00" fill="#000000"> &#45;system_matrix</text>
</g>
</g>
</svg>
