<?xml version="1.0" encoding="UTF-8" standalone="no"?>
<!DOCTYPE svg PUBLIC "-//W3C//DTD SVG 1.1//EN"
 "http://www.w3.org/Graphics/SVG/1.1/DTD/svg11.dtd">
<!-- Generated by graphviz version 2.40.1 (20161225.0304)
 -->
<!-- Title: River::Branch::averageSpeed Pages: 1 -->
<svg width="298pt" height="66pt"
 viewBox="0.00 0.00 298.00 66.00" xmlns="http://www.w3.org/2000/svg" xmlns:xlink="http://www.w3.org/1999/xlink">
<g id="graph0" class="graph" transform="scale(1 1) rotate(0) translate(4 62)">
<title>River::Branch::averageSpeed</title>
<polygon fill="#ffffff" stroke="transparent" points="-4,4 -4,-62 294,-62 294,4 -4,4"/>
<!-- Node74 -->
<g id="node1" class="node">
<title>Node74</title>
<polygon fill="#bfbfbf" stroke="#000000" points="0,-19.5 0,-38.5 145,-38.5 145,-19.5 0,-19.5"/>
<text text-anchor="middle" x="72.5" y="-26.5" font-family="Helvetica,sans-Serif" font-size="10.00" fill="#000000">River::Branch::averageSpeed</text>
</g>
<!-- Node75 -->
<g id="node2" class="node">
<title>Node75</title>
<g id="a_node2"><a xlink:href="classRiver_1_1Branch.html#a72b27d18fabedc8f5f573dfe61aa2f02" target="_top" xlink:title="River::Branch::length">
<polygon fill="#ffffff" stroke="#000000" points="181,-38.5 181,-57.5 290,-57.5 290,-38.5 181,-38.5"/>
<text text-anchor="middle" x="235.5" y="-45.5" font-family="Helvetica,sans-Serif" font-size="10.00" fill="#000000">River::Branch::length</text>
</a>
</g>
</g>
<!-- Node74&#45;&gt;Node75 -->
<g id="edge1" class="edge">
<title>Node74&#45;&gt;Node75</title>
<path fill="none" stroke="#191970" d="M145.4185,-37.4997C153.8552,-38.4831 162.416,-39.481 170.7338,-40.4506"/>
<polygon fill="#191970" stroke="#191970" points="170.3964,-43.9349 180.7345,-41.6163 171.207,-36.9819 170.3964,-43.9349"/>
</g>
<!-- Node76 -->
<g id="node3" class="node">
<title>Node76</title>
<g id="a_node3"><a xlink:href="classRiver_1_1Branch.html#a28a8c207ba296169ca20b47e99a9e091" target="_top" xlink:title="River::Branch::size">
<polygon fill="#ffffff" stroke="#000000" points="185,-.5 185,-19.5 286,-19.5 286,-.5 185,-.5"/>
<text text-anchor="middle" x="235.5" y="-7.5" font-family="Helvetica,sans-Serif" font-size="10.00" fill="#000000">River::Branch::size</text>
</a>
</g>
</g>
<!-- Node74&#45;&gt;Node76 -->
<g id="edge2" class="edge">
<title>Node74&#45;&gt;Node76</title>
<path fill="none" stroke="#191970" d="M145.4185,-20.5003C155.1293,-19.3684 165.0045,-18.2173 174.4844,-17.1123"/>
<polygon fill="#191970" stroke="#191970" points="175.0618,-20.5687 184.5893,-15.9344 174.2513,-13.6158 175.0618,-20.5687"/>
</g>
</g>
</svg>
