<?xml version="1.0" encoding="UTF-8" standalone="no"?>
<!DOCTYPE svg PUBLIC "-//W3C//DTD SVG 1.1//EN"
 "http://www.w3.org/Graphics/SVG/1.1/DTD/svg11.dtd">
<!-- Generated by graphviz version 2.40.1 (20161225.0304)
 -->
<!-- Title: River::Solver::SetBoundaryRegionValue Pages: 1 -->
<svg width="399pt" height="53pt"
 viewBox="0.00 0.00 399.00 52.50" xmlns="http://www.w3.org/2000/svg" xmlns:xlink="http://www.w3.org/1999/xlink">
<g id="graph0" class="graph" transform="scale(1 1) rotate(0) translate(4 48.5)">
<title>River::Solver::SetBoundaryRegionValue</title>
<polygon fill="#ffffff" stroke="transparent" points="-4,4 -4,-48.5 395,-48.5 395,4 -4,4"/>
<!-- Node6 -->
<g id="node1" class="node">
<title>Node6</title>
<polygon fill="#bfbfbf" stroke="#000000" points="0,-14 0,-44 136,-44 136,-14 0,-14"/>
<text text-anchor="start" x="8" y="-32" font-family="Helvetica,sans-Serif" font-size="10.00" fill="#000000">River::Solver::SetBoundary</text>
<text text-anchor="middle" x="68" y="-21" font-family="Helvetica,sans-Serif" font-size="10.00" fill="#000000">RegionValue</text>
</g>
<!-- Node7 -->
<g id="node2" class="node">
<title>Node7</title>
<g id="a_node2"><a xlink:href="main_8cpp.html#a0ddf1224851353fc92bfbff6f499fa97" target="_top" xlink:title="Entry point of RiverSim program. ">
<polygon fill="#ffffff" stroke="#000000" points="353,-19.5 353,-38.5 391,-38.5 391,-19.5 353,-19.5"/>
<text text-anchor="middle" x="372" y="-26.5" font-family="Helvetica,sans-Serif" font-size="10.00" fill="#000000">main</text>
</a>
</g>
</g>
<!-- Node6&#45;&gt;Node7 -->
<g id="edge1" class="edge">
<title>Node6&#45;&gt;Node7</title>
<path fill="none" stroke="#191970" d="M146.2623,-29C215.7021,-29 312.2386,-29 352.8223,-29"/>
<polygon fill="#191970" stroke="#191970" points="146.2236,-25.5001 136.2235,-29 146.2235,-32.5001 146.2236,-25.5001"/>
</g>
<!-- Node8 -->
<g id="node3" class="node">
<title>Node8</title>
<g id="a_node3"><a xlink:href="namespaceRiver.html#a494b68e2992de95500d6d81770de62ed" target="_top" xlink:title="River::ForwardRiverEvolution">
<polygon fill="#ffffff" stroke="#000000" points="172,-.5 172,-19.5 317,-19.5 317,-.5 172,-.5"/>
<text text-anchor="middle" x="244.5" y="-7.5" font-family="Helvetica,sans-Serif" font-size="10.00" fill="#000000">River::ForwardRiverEvolution</text>
</a>
</g>
</g>
<!-- Node6&#45;&gt;Node8 -->
<g id="edge2" class="edge">
<title>Node6&#45;&gt;Node8</title>
<path fill="none" stroke="#191970" d="M146.4361,-20.5565C154.8618,-19.6494 163.4084,-18.7294 171.7634,-17.83"/>
<polygon fill="#191970" stroke="#191970" points="145.8074,-17.1038 136.2395,-21.6541 146.5567,-24.0636 145.8074,-17.1038"/>
</g>
<!-- Node8&#45;&gt;Node7 -->
<g id="edge3" class="edge">
<title>Node8&#45;&gt;Node7</title>
<path fill="none" stroke="#191970" d="M318.7834,-21.0697C331.3501,-22.9424 343.3551,-24.7313 352.7718,-26.1346"/>
<polygon fill="#191970" stroke="#191970" points="319.0302,-17.5679 308.6235,-19.5557 317.9984,-24.4914 319.0302,-17.5679"/>
</g>
</g>
</svg>
