<?xml version="1.0" encoding="UTF-8" standalone="no"?>
<!DOCTYPE svg PUBLIC "-//W3C//DTD SVG 1.1//EN"
 "http://www.w3.org/Graphics/SVG/1.1/DTD/svg11.dtd">
<!-- Generated by graphviz version 2.40.1 (20161225.0304)
 -->
<!-- Title: River::Branch::getHead Pages: 1 -->
<svg width="570pt" height="104pt"
 viewBox="0.00 0.00 570.00 104.00" xmlns="http://www.w3.org/2000/svg" xmlns:xlink="http://www.w3.org/1999/xlink">
<g id="graph0" class="graph" transform="scale(1 1) rotate(0) translate(4 100)">
<title>River::Branch::getHead</title>
<polygon fill="#ffffff" stroke="transparent" points="-4,4 -4,-100 566,-100 566,4 -4,4"/>
<!-- Node41 -->
<g id="node1" class="node">
<title>Node41</title>
<polygon fill="#bfbfbf" stroke="#000000" points="0,-38.5 0,-57.5 119,-57.5 119,-38.5 0,-38.5"/>
<text text-anchor="middle" x="59.5" y="-45.5" font-family="Helvetica,sans-Serif" font-size="10.00" fill="#000000">River::Branch::getHead</text>
</g>
<!-- Node42 -->
<g id="node2" class="node">
<title>Node42</title>
<g id="a_node2"><a xlink:href="classRiver_1_1Branch.html#ac61fc55a34a62822e8d633b5b683361c" target="_top" xlink:title="River::Branch::addPoint">
<polygon fill="#ffffff" stroke="#000000" points="170.5,-76.5 170.5,-95.5 291.5,-95.5 291.5,-76.5 170.5,-76.5"/>
<text text-anchor="middle" x="231" y="-83.5" font-family="Helvetica,sans-Serif" font-size="10.00" fill="#000000">River::Branch::addPoint</text>
</a>
</g>
</g>
<!-- Node41&#45;&gt;Node42 -->
<g id="edge1" class="edge">
<title>Node41&#45;&gt;Node42</title>
<path fill="none" stroke="#191970" d="M112.5412,-59.7526C136.7913,-65.1258 165.1467,-71.4086 188.0345,-76.4799"/>
<polygon fill="#191970" stroke="#191970" points="113.2971,-56.3352 102.7767,-57.589 111.7827,-63.1695 113.2971,-56.3352"/>
</g>
<!-- Node43 -->
<g id="node3" class="node">
<title>Node43</title>
<g id="a_node3"><a xlink:href="classRiver_1_1Branch.html#ae0516312626bf41418d5aa1d536e11ea" target="_top" xlink:title="River::Branch::addPolar">
<polygon fill="#ffffff" stroke="#000000" points="170.5,-38.5 170.5,-57.5 291.5,-57.5 291.5,-38.5 170.5,-38.5"/>
<text text-anchor="middle" x="231" y="-45.5" font-family="Helvetica,sans-Serif" font-size="10.00" fill="#000000">River::Branch::addPolar</text>
</a>
</g>
</g>
<!-- Node41&#45;&gt;Node43 -->
<g id="edge2" class="edge">
<title>Node41&#45;&gt;Node43</title>
<path fill="none" stroke="#191970" d="M129.2978,-48C142.9364,-48 157.133,-48 170.4413,-48"/>
<polygon fill="#191970" stroke="#191970" points="129.0011,-44.5001 119.0011,-48 129.001,-51.5001 129.0011,-44.5001"/>
</g>
<!-- Node44 -->
<g id="node4" class="node">
<title>Node44</title>
<g id="a_node4"><a xlink:href="classRiver_1_1Geometry.html#a37d40329645be4c1dee1794aa239be5b" target="_top" xlink:title="River::Geometry::GetTipPoints">
<polygon fill="#ffffff" stroke="#000000" points="155,-.5 155,-19.5 307,-19.5 307,-.5 155,-.5"/>
<text text-anchor="middle" x="231" y="-7.5" font-family="Helvetica,sans-Serif" font-size="10.00" fill="#000000">River::Geometry::GetTipPoints</text>
</a>
</g>
</g>
<!-- Node41&#45;&gt;Node44 -->
<g id="edge3" class="edge">
<title>Node41&#45;&gt;Node44</title>
<path fill="none" stroke="#191970" d="M112.5412,-36.2474C136.7913,-30.8742 165.1467,-24.5914 188.0345,-19.5201"/>
<polygon fill="#191970" stroke="#191970" points="111.7827,-32.8305 102.7767,-38.411 113.2971,-39.6648 111.7827,-32.8305"/>
</g>
<!-- Node45 -->
<g id="node5" class="node">
<title>Node45</title>
<g id="a_node5"><a xlink:href="namespaceRiver.html#a494b68e2992de95500d6d81770de62ed" target="_top" xlink:title="River::ForwardRiverEvolution">
<polygon fill="#ffffff" stroke="#000000" points="343,-.5 343,-19.5 488,-19.5 488,-.5 343,-.5"/>
<text text-anchor="middle" x="415.5" y="-7.5" font-family="Helvetica,sans-Serif" font-size="10.00" fill="#000000">River::ForwardRiverEvolution</text>
</a>
</g>
</g>
<!-- Node44&#45;&gt;Node45 -->
<g id="edge4" class="edge">
<title>Node44&#45;&gt;Node45</title>
<path fill="none" stroke="#191970" d="M317.1435,-10C325.7351,-10 334.3975,-10 342.8311,-10"/>
<polygon fill="#191970" stroke="#191970" points="317.1084,-6.5001 307.1084,-10 317.1084,-13.5001 317.1084,-6.5001"/>
</g>
<!-- Node46 -->
<g id="node6" class="node">
<title>Node46</title>
<g id="a_node6"><a xlink:href="main_8cpp.html#a0ddf1224851353fc92bfbff6f499fa97" target="_top" xlink:title="Entry point of RiverSim program. ">
<polygon fill="#ffffff" stroke="#000000" points="524,-.5 524,-19.5 562,-19.5 562,-.5 524,-.5"/>
<text text-anchor="middle" x="543" y="-7.5" font-family="Helvetica,sans-Serif" font-size="10.00" fill="#000000">main</text>
</a>
</g>
</g>
<!-- Node45&#45;&gt;Node46 -->
<g id="edge5" class="edge">
<title>Node45&#45;&gt;Node46</title>
<path fill="none" stroke="#191970" d="M498.2526,-10C507.7338,-10 516.5978,-10 523.8947,-10"/>
<polygon fill="#191970" stroke="#191970" points="498.1886,-6.5001 488.1886,-10 498.1885,-13.5001 498.1886,-6.5001"/>
</g>
</g>
</svg>
