<?xml version="1.0" encoding="UTF-8" standalone="no"?>
<!DOCTYPE svg PUBLIC "-//W3C//DTD SVG 1.1//EN"
 "http://www.w3.org/Graphics/SVG/1.1/DTD/svg11.dtd">
<!-- Generated by graphviz version 2.40.1 (20161225.0304)
 -->
<!-- Title: River::Gmsh Pages: 1 -->
<svg width="217pt" height="336pt"
 viewBox="0.00 0.00 216.50 336.00" xmlns="http://www.w3.org/2000/svg" xmlns:xlink="http://www.w3.org/1999/xlink">
<g id="graph0" class="graph" transform="scale(1 1) rotate(0) translate(4 332)">
<title>River::Gmsh</title>
<polygon fill="#ffffff" stroke="transparent" points="-4,4 -4,-332 212.5,-332 212.5,4 -4,4"/>
<!-- Node1 -->
<g id="node1" class="node">
<title>Node1</title>
<polygon fill="#bfbfbf" stroke="#000000" points="57,-.5 57,-200.5 148,-200.5 148,-.5 57,-.5"/>
<text text-anchor="middle" x="102.5" y="-188.5" font-family="Helvetica,sans-Serif" font-size="10.00" fill="#000000">River::Gmsh</text>
<polyline fill="none" stroke="#000000" points="57,-181.5 148,-181.5 "/>
<text text-anchor="middle" x="102.5" y="-169.5" font-family="Helvetica,sans-Serif" font-size="10.00" fill="#000000"> </text>
<polyline fill="none" stroke="#000000" points="57,-162.5 148,-162.5 "/>
<text text-anchor="start" x="65" y="-150.5" font-family="Helvetica,sans-Serif" font-size="10.00" fill="#000000">+ Gmsh()</text>
<text text-anchor="start" x="65" y="-139.5" font-family="Helvetica,sans-Serif" font-size="10.00" fill="#000000">+ ~Gmsh()</text>
<text text-anchor="start" x="65" y="-128.5" font-family="Helvetica,sans-Serif" font-size="10.00" fill="#000000">+ init()</text>
<text text-anchor="start" x="65" y="-117.5" font-family="Helvetica,sans-Serif" font-size="10.00" fill="#000000">+ open()</text>
<text text-anchor="start" x="65" y="-106.5" font-family="Helvetica,sans-Serif" font-size="10.00" fill="#000000">+ write()</text>
<text text-anchor="start" x="65" y="-95.5" font-family="Helvetica,sans-Serif" font-size="10.00" fill="#000000">+ clear()</text>
<text text-anchor="start" x="65" y="-84.5" font-family="Helvetica,sans-Serif" font-size="10.00" fill="#000000">+ set_nodes()</text>
<text text-anchor="start" x="65" y="-73.5" font-family="Helvetica,sans-Serif" font-size="10.00" fill="#000000">+ set_elements()</text>
<text text-anchor="start" x="65" y="-62.5" font-family="Helvetica,sans-Serif" font-size="10.00" fill="#000000">+ set_geometry()</text>
<text text-anchor="start" x="65" y="-51.5" font-family="Helvetica,sans-Serif" font-size="10.00" fill="#000000">+ generate()</text>
<text text-anchor="start" x="65" y="-40.5" font-family="Helvetica,sans-Serif" font-size="10.00" fill="#000000">+ generate()</text>
<text text-anchor="start" x="65" y="-29.5" font-family="Helvetica,sans-Serif" font-size="10.00" fill="#000000">+ test_mesh()</text>
<text text-anchor="start" x="65" y="-18.5" font-family="Helvetica,sans-Serif" font-size="10.00" fill="#000000">+ start_ui()</text>
<text text-anchor="start" x="65" y="-7.5" font-family="Helvetica,sans-Serif" font-size="10.00" fill="#000000">&#45; evaluate_tags()</text>
</g>
<!-- Node2 -->
<g id="node2" class="node">
<title>Node2</title>
<polygon fill="#ffffff" stroke="#bfbfbf" points="0,-270.5 0,-327.5 41,-327.5 41,-270.5 0,-270.5"/>
<text text-anchor="middle" x="20.5" y="-315.5" font-family="Helvetica,sans-Serif" font-size="10.00" fill="#000000">string</text>
<polyline fill="none" stroke="#bfbfbf" points="0,-308.5 41,-308.5 "/>
<text text-anchor="middle" x="20.5" y="-296.5" font-family="Helvetica,sans-Serif" font-size="10.00" fill="#000000"> </text>
<polyline fill="none" stroke="#bfbfbf" points="0,-289.5 41,-289.5 "/>
<text text-anchor="middle" x="20.5" y="-277.5" font-family="Helvetica,sans-Serif" font-size="10.00" fill="#000000"> </text>
</g>
<!-- Node2&#45;&gt;Node1 -->
<g id="edge1" class="edge">
<title>Node2&#45;&gt;Node1</title>
<path fill="none" stroke="#404040" d="M25.4595,-270.3347C28.5961,-254.8479 33.2492,-235.5609 39.5,-219 43.0482,-209.5994 47.1888,-200.0032 51.6214,-190.5441"/>
<polygon fill="none" stroke="#404040" points="51.7248,-190.3298 50.7307,-183.1875 56.9412,-179.5228 57.9353,-186.6651 51.7248,-190.3298"/>
<text text-anchor="middle" x="69" y="-233" font-family="Helvetica,sans-Serif" font-size="10.00" fill="#000000"> &#45;modelName</text>
</g>
<!-- Node3 -->
<g id="node3" class="node">
<title>Node3</title>
<polygon fill="#ffffff" stroke="#bfbfbf" points="88,-270.5 88,-327.5 117,-327.5 117,-270.5 88,-270.5"/>
<text text-anchor="middle" x="102.5" y="-315.5" font-family="Helvetica,sans-Serif" font-size="10.00" fill="#000000">int</text>
<polyline fill="none" stroke="#bfbfbf" points="88,-308.5 117,-308.5 "/>
<text text-anchor="middle" x="102.5" y="-296.5" font-family="Helvetica,sans-Serif" font-size="10.00" fill="#000000"> </text>
<polyline fill="none" stroke="#bfbfbf" points="88,-289.5 117,-289.5 "/>
<text text-anchor="middle" x="102.5" y="-277.5" font-family="Helvetica,sans-Serif" font-size="10.00" fill="#000000"> </text>
</g>
<!-- Node3&#45;&gt;Node1 -->
<g id="edge2" class="edge">
<title>Node3&#45;&gt;Node1</title>
<path fill="none" stroke="#404040" d="M102.5,-270.1364C102.5,-254.5136 102.5,-234.0969 102.5,-212.8653"/>
<polygon fill="none" stroke="#404040" points="102.5001,-212.6575 98.5,-206.6575 102.5,-200.6575 106.5,-206.6575 102.5001,-212.6575"/>
<text text-anchor="middle" x="113.5" y="-233" font-family="Helvetica,sans-Serif" font-size="10.00" fill="#000000"> &#45;dim</text>
</g>
<!-- Node4 -->
<g id="node4" class="node">
<title>Node4</title>
<polygon fill="#ffffff" stroke="#bfbfbf" points="135,-270.5 135,-327.5 170,-327.5 170,-270.5 135,-270.5"/>
<text text-anchor="middle" x="152.5" y="-315.5" font-family="Helvetica,sans-Serif" font-size="10.00" fill="#000000">bool</text>
<polyline fill="none" stroke="#bfbfbf" points="135,-308.5 170,-308.5 "/>
<text text-anchor="middle" x="152.5" y="-296.5" font-family="Helvetica,sans-Serif" font-size="10.00" fill="#000000"> </text>
<polyline fill="none" stroke="#bfbfbf" points="135,-289.5 170,-289.5 "/>
<text text-anchor="middle" x="152.5" y="-277.5" font-family="Helvetica,sans-Serif" font-size="10.00" fill="#000000"> </text>
</g>
<!-- Node4&#45;&gt;Node1 -->
<g id="edge3" class="edge">
<title>Node4&#45;&gt;Node1</title>
<path fill="none" stroke="#404040" d="M145.2296,-270.1364C141.276,-254.4409 136.1038,-233.9069 130.729,-212.569"/>
<polygon fill="none" stroke="#404040" points="130.6598,-212.294 125.3153,-207.4528 127.7286,-200.6575 133.073,-205.4987 130.6598,-212.294"/>
<text text-anchor="middle" x="174" y="-244" font-family="Helvetica,sans-Serif" font-size="10.00" fill="#000000"> +Verbose</text>
<text text-anchor="middle" x="174" y="-233" font-family="Helvetica,sans-Serif" font-size="10.00" fill="#000000">+recombine</text>
<text text-anchor="middle" x="174" y="-222" font-family="Helvetica,sans-Serif" font-size="10.00" fill="#000000">+mesh24format</text>
</g>
</g>
</svg>
