<?xml version="1.0" encoding="UTF-8" standalone="no"?>
<!DOCTYPE svg PUBLIC "-//W3C//DTD SVG 1.1//EN"
 "http://www.w3.org/Graphics/SVG/1.1/DTD/svg11.dtd">
<!-- Generated by graphviz version 2.40.1 (20161225.0304)
 -->
<!-- Title: nlohmann::basic_json::count Pages: 1 -->
<svg width="298pt" height="39pt"
 viewBox="0.00 0.00 298.00 39.00" xmlns="http://www.w3.org/2000/svg" xmlns:xlink="http://www.w3.org/1999/xlink">
<g id="graph0" class="graph" transform="scale(1 1) rotate(0) translate(4 35)">
<title>nlohmann::basic_json::count</title>
<polygon fill="#ffffff" stroke="transparent" points="-4,4 -4,-35 294,-35 294,4 -4,4"/>
<!-- Node267 -->
<g id="node1" class="node">
<title>Node267</title>
<polygon fill="#bfbfbf" stroke="#000000" points="0,-.5 0,-30.5 111,-30.5 111,-.5 0,-.5"/>
<text text-anchor="start" x="8" y="-18.5" font-family="Helvetica,sans-Serif" font-size="10.00" fill="#000000">nlohmann::basic_json</text>
<text text-anchor="middle" x="55.5" y="-7.5" font-family="Helvetica,sans-Serif" font-size="10.00" fill="#000000">::count</text>
</g>
<!-- Node268 -->
<g id="node2" class="node">
<title>Node268</title>
<g id="a_node2"><a xlink:href="namespaceRiver.html#ab2e6cbc1f3bbe0e9879ff60bb4a6df3c" target="_top" xlink:title="River::Open">
<polygon fill="#ffffff" stroke="#000000" points="147,-6 147,-25 216,-25 216,-6 147,-6"/>
<text text-anchor="middle" x="181.5" y="-13" font-family="Helvetica,sans-Serif" font-size="10.00" fill="#000000">River::Open</text>
</a>
</g>
</g>
<!-- Node267&#45;&gt;Node268 -->
<g id="edge1" class="edge">
<title>Node267&#45;&gt;Node268</title>
<path fill="none" stroke="#191970" d="M121.414,-15.5C130.1778,-15.5 138.8662,-15.5 146.799,-15.5"/>
<polygon fill="#191970" stroke="#191970" points="121.1322,-12.0001 111.1322,-15.5 121.1322,-19.0001 121.1322,-12.0001"/>
</g>
<!-- Node269 -->
<g id="node3" class="node">
<title>Node269</title>
<g id="a_node3"><a xlink:href="main_8cpp.html#a0ddf1224851353fc92bfbff6f499fa97" target="_top" xlink:title="Entry point of RiverSim program. ">
<polygon fill="#ffffff" stroke="#000000" points="252,-6 252,-25 290,-25 290,-6 252,-6"/>
<text text-anchor="middle" x="271" y="-13" font-family="Helvetica,sans-Serif" font-size="10.00" fill="#000000">main</text>
</a>
</g>
</g>
<!-- Node268&#45;&gt;Node269 -->
<g id="edge2" class="edge">
<title>Node268&#45;&gt;Node269</title>
<path fill="none" stroke="#191970" d="M226.2688,-15.5C235.3428,-15.5 244.4158,-15.5 251.9954,-15.5"/>
<polygon fill="#191970" stroke="#191970" points="226.1031,-12.0001 216.103,-15.5 226.103,-19.0001 226.1031,-12.0001"/>
</g>
</g>
</svg>
