<?xml version="1.0" encoding="UTF-8" standalone="no"?>
<!DOCTYPE svg PUBLIC "-//W3C//DTD SVG 1.1//EN"
 "http://www.w3.org/Graphics/SVG/1.1/DTD/svg11.dtd">
<!-- Generated by graphviz version 2.40.1 (20161225.0304)
 -->
<!-- Title: River::GeomPoint::getPolar Pages: 1 -->
<svg width="463pt" height="47pt"
 viewBox="0.00 0.00 463.00 47.00" xmlns="http://www.w3.org/2000/svg" xmlns:xlink="http://www.w3.org/1999/xlink">
<g id="graph0" class="graph" transform="scale(1 1) rotate(0) translate(4 43)">
<title>River::GeomPoint::getPolar</title>
<polygon fill="#ffffff" stroke="transparent" points="-4,4 -4,-43 459,-43 459,4 -4,4"/>
<!-- Node29 -->
<g id="node1" class="node">
<title>Node29</title>
<polygon fill="#bfbfbf" stroke="#000000" points="0,-19.5 0,-38.5 137,-38.5 137,-19.5 0,-19.5"/>
<text text-anchor="middle" x="68.5" y="-26.5" font-family="Helvetica,sans-Serif" font-size="10.00" fill="#000000">River::GeomPoint::getPolar</text>
</g>
<!-- Node30 -->
<g id="node2" class="node">
<title>Node30</title>
<g id="a_node2"><a xlink:href="classRiver_1_1GeomPoint.html#a1c091dc0abfbad1ac8d5cc659db422f6" target="_top" xlink:title="River::GeomPoint::norm">
<polygon fill="#ffffff" stroke="#000000" points="333,-19.5 333,-38.5 455,-38.5 455,-19.5 333,-19.5"/>
<text text-anchor="middle" x="394" y="-26.5" font-family="Helvetica,sans-Serif" font-size="10.00" fill="#000000">River::GeomPoint::norm</text>
</a>
</g>
</g>
<!-- Node29&#45;&gt;Node30 -->
<g id="edge1" class="edge">
<title>Node29&#45;&gt;Node30</title>
<path fill="none" stroke="#191970" d="M137.1324,-29C191.6533,-29 267.6444,-29 322.82,-29"/>
<polygon fill="#191970" stroke="#191970" points="322.8704,-32.5001 332.8704,-29 322.8703,-25.5001 322.8704,-32.5001"/>
</g>
<!-- Node31 -->
<g id="node3" class="node">
<title>Node31</title>
<g id="a_node3"><a xlink:href="classRiver_1_1GeomPoint.html#ac7b5a6f51601c28b1c169efd99faa80e" target="_top" xlink:title="River::GeomPoint::angle">
<polygon fill="#ffffff" stroke="#000000" points="173,-.5 173,-19.5 297,-19.5 297,-.5 173,-.5"/>
<text text-anchor="middle" x="235" y="-7.5" font-family="Helvetica,sans-Serif" font-size="10.00" fill="#000000">River::GeomPoint::angle</text>
</a>
</g>
</g>
<!-- Node29&#45;&gt;Node31 -->
<g id="edge2" class="edge">
<title>Node29&#45;&gt;Node31</title>
<path fill="none" stroke="#191970" d="M137.1832,-21.1623C145.682,-20.1924 154.3898,-19.1988 162.9374,-18.2234"/>
<polygon fill="#191970" stroke="#191970" points="163.3371,-21.7006 172.8758,-17.0893 162.5434,-14.7457 163.3371,-21.7006"/>
</g>
<!-- Node31&#45;&gt;Node30 -->
<g id="edge3" class="edge">
<title>Node31&#45;&gt;Node30</title>
<path fill="none" stroke="#191970" d="M297.3847,-17.4548C305.6729,-18.4452 314.2217,-19.4667 322.6472,-20.4736"/>
<polygon fill="#191970" stroke="#191970" points="322.4927,-23.9799 332.8374,-21.6913 323.3233,-17.0294 322.4927,-23.9799"/>
</g>
</g>
</svg>
