<?xml version="1.0" encoding="UTF-8" standalone="no"?>
<!DOCTYPE svg PUBLIC "-//W3C//DTD SVG 1.1//EN"
 "http://www.w3.org/Graphics/SVG/1.1/DTD/svg11.dtd">
<!-- Generated by graphviz version 2.40.1 (20161225.0304)
 -->
<!-- Title: tethex::MeshElement::get_vertex Pages: 1 -->
<svg width="540pt" height="203pt"
 viewBox="0.00 0.00 540.00 202.50" xmlns="http://www.w3.org/2000/svg" xmlns:xlink="http://www.w3.org/1999/xlink">
<g id="graph0" class="graph" transform="scale(1 1) rotate(0) translate(4 198.5)">
<title>tethex::MeshElement::get_vertex</title>
<polygon fill="#ffffff" stroke="transparent" points="-4,4 -4,-198.5 536,-198.5 536,4 -4,4"/>
<!-- Node28 -->
<g id="node1" class="node">
<title>Node28</title>
<polygon fill="#bfbfbf" stroke="#000000" points="0,-71 0,-101 110,-101 110,-71 0,-71"/>
<text text-anchor="start" x="8" y="-89" font-family="Helvetica,sans-Serif" font-size="10.00" fill="#000000">tethex::MeshElement</text>
<text text-anchor="middle" x="55" y="-78" font-family="Helvetica,sans-Serif" font-size="10.00" fill="#000000">::get_vertex</text>
</g>
<!-- Node29 -->
<g id="node2" class="node">
<title>Node29</title>
<g id="a_node2"><a xlink:href="classRiver_1_1Border.html#a9f0bb13fcc42d824d94903b6ae7eabd0" target="_top" xlink:title="Return source adjacent point(source has only one such points). ">
<polygon fill="#ffffff" stroke="#000000" points="146,-164 146,-194 280,-194 280,-164 146,-164"/>
<text text-anchor="start" x="154" y="-182" font-family="Helvetica,sans-Serif" font-size="10.00" fill="#000000">River::Border::GetAdjacent</text>
<text text-anchor="middle" x="213" y="-171" font-family="Helvetica,sans-Serif" font-size="10.00" fill="#000000">PointId</text>
</a>
</g>
</g>
<!-- Node28&#45;&gt;Node29 -->
<g id="edge1" class="edge">
<title>Node28&#45;&gt;Node29</title>
<path fill="none" stroke="#191970" d="M79.7071,-108.0447C97.2492,-122.8382 121.8784,-141.936 146,-155 152.0842,-158.2951 158.7126,-161.2971 165.356,-163.9764"/>
<polygon fill="#191970" stroke="#191970" points="81.5667,-105.0285 71.6981,-101.1735 77.0087,-110.3413 81.5667,-105.0285"/>
</g>
<!-- Node31 -->
<g id="node4" class="node">
<title>Node31</title>
<g id="a_node4"><a xlink:href="classRiver_1_1Border.html#acf71aa49ddf1244f1aba474fe0457eba" target="_top" xlink:title="Return source poinst indexes(each source consist of two points at distance eps). ">
<polygon fill="#ffffff" stroke="#000000" points="149.5,-115 149.5,-145 276.5,-145 276.5,-115 149.5,-115"/>
<text text-anchor="start" x="157.5" y="-133" font-family="Helvetica,sans-Serif" font-size="10.00" fill="#000000">River::Border::GetSource</text>
<text text-anchor="middle" x="213" y="-122" font-family="Helvetica,sans-Serif" font-size="10.00" fill="#000000">VerticesIndexById</text>
</a>
</g>
</g>
<!-- Node28&#45;&gt;Node31 -->
<g id="edge3" class="edge">
<title>Node28&#45;&gt;Node31</title>
<path fill="none" stroke="#191970" d="M118.5695,-103.7029C131.9861,-107.4392 146.0204,-111.3475 159.0423,-114.9738"/>
<polygon fill="#191970" stroke="#191970" points="119.5051,-100.3303 108.9327,-101.0192 117.6272,-107.0737 119.5051,-100.3303"/>
</g>
<!-- Node35 -->
<g id="node8" class="node">
<title>Node35</title>
<g id="a_node8"><a xlink:href="classRiver_1_1Solver.html#a3d51dbec8b2d1d790c5f4e0385b408d7" target="_top" xlink:title="River::Solver::SetMesh">
<polygon fill="#ffffff" stroke="#000000" points="153.5,-76.5 153.5,-95.5 272.5,-95.5 272.5,-76.5 153.5,-76.5"/>
<text text-anchor="middle" x="213" y="-83.5" font-family="Helvetica,sans-Serif" font-size="10.00" fill="#000000">River::Solver::SetMesh</text>
</a>
</g>
</g>
<!-- Node28&#45;&gt;Node35 -->
<g id="edge8" class="edge">
<title>Node28&#45;&gt;Node35</title>
<path fill="none" stroke="#191970" d="M120.5758,-86C131.4761,-86 142.7278,-86 153.4675,-86"/>
<polygon fill="#191970" stroke="#191970" points="120.2608,-82.5001 110.2607,-86 120.2607,-89.5001 120.2608,-82.5001"/>
</g>
<!-- Node36 -->
<g id="node9" class="node">
<title>Node36</title>
<g id="a_node9"><a xlink:href="classtethex_1_1Mesh.html#af7abffd9bc4bd64eb2f4cdd4aaf7fbe3" target="_top" xlink:title="tethex::Mesh::Mesh">
<polygon fill="#ffffff" stroke="#000000" points="161,-38.5 161,-57.5 265,-57.5 265,-38.5 161,-38.5"/>
<text text-anchor="middle" x="213" y="-45.5" font-family="Helvetica,sans-Serif" font-size="10.00" fill="#000000">tethex::Mesh::Mesh</text>
</a>
</g>
</g>
<!-- Node28&#45;&gt;Node36 -->
<g id="edge9" class="edge">
<title>Node28&#45;&gt;Node36</title>
<path fill="none" stroke="#191970" d="M120.1744,-70.3251C138.2486,-65.9782 157.3194,-61.3915 173.4421,-57.5139"/>
<polygon fill="#191970" stroke="#191970" points="119.165,-66.968 110.2607,-72.7094 120.802,-73.7739 119.165,-66.968"/>
</g>
<!-- Node37 -->
<g id="node10" class="node">
<title>Node37</title>
<g id="a_node10"><a xlink:href="classtethex_1_1Mesh.html#af992d5d2e64047656766e4afcbc95b8b" target="_top" xlink:title="tethex::Mesh::operator=">
<polygon fill="#ffffff" stroke="#000000" points="152.5,-.5 152.5,-19.5 273.5,-19.5 273.5,-.5 152.5,-.5"/>
<text text-anchor="middle" x="213" y="-7.5" font-family="Helvetica,sans-Serif" font-size="10.00" fill="#000000">tethex::Mesh::operator=</text>
</a>
</g>
</g>
<!-- Node28&#45;&gt;Node37 -->
<g id="edge10" class="edge">
<title>Node28&#45;&gt;Node37</title>
<path fill="none" stroke="#191970" d="M83.907,-64.9263C101.234,-53.0659 124.0924,-38.7297 146,-29 154.2874,-25.3194 163.4695,-22.1646 172.3109,-19.5434"/>
<polygon fill="#191970" stroke="#191970" points="81.5879,-62.2763 75.3847,-70.8653 85.5901,-68.0194 81.5879,-62.2763"/>
</g>
<!-- Node30 -->
<g id="node3" class="node">
<title>Node30</title>
<g id="a_node3"><a xlink:href="classRiver_1_1Border.html#ad884663725156885e8e5def07a2e49c1" target="_top" xlink:title="Return normal line angle to boundary at point where is located source with source_id ...">
<polygon fill="#ffffff" stroke="#000000" points="323.5,-162 323.5,-192 450.5,-192 450.5,-162 323.5,-162"/>
<text text-anchor="start" x="331.5" y="-180" font-family="Helvetica,sans-Serif" font-size="10.00" fill="#000000">River::Border::GetSource</text>
<text text-anchor="middle" x="387" y="-169" font-family="Helvetica,sans-Serif" font-size="10.00" fill="#000000">NormalAngle</text>
</a>
</g>
</g>
<!-- Node29&#45;&gt;Node30 -->
<g id="edge2" class="edge">
<title>Node29&#45;&gt;Node30</title>
<path fill="none" stroke="#191970" d="M290.3251,-178.1112C301.3577,-177.9844 312.6004,-177.8552 323.3317,-177.7318"/>
<polygon fill="#191970" stroke="#191970" points="290.232,-174.6119 280.2729,-178.2267 290.3125,-181.6115 290.232,-174.6119"/>
</g>
<!-- Node31&#45;&gt;Node30 -->
<g id="edge5" class="edge">
<title>Node31&#45;&gt;Node30</title>
<path fill="none" stroke="#191970" d="M278.6075,-147.7216C295.9952,-152.4182 314.5984,-157.4432 331.3977,-161.981"/>
<polygon fill="#191970" stroke="#191970" points="279.0998,-144.2292 268.5331,-145.0003 277.2744,-150.987 279.0998,-144.2292"/>
</g>
<!-- Node32 -->
<g id="node5" class="node">
<title>Node32</title>
<g id="a_node5"><a xlink:href="classRiver_1_1Border.html#a08df0eb89a5692e84d6b3fe5fe5bec37" target="_top" xlink:title="Add border line to each source points. ">
<polygon fill="#ffffff" stroke="#000000" points="316,-121.5 316,-140.5 458,-140.5 458,-121.5 316,-121.5"/>
<text text-anchor="middle" x="387" y="-128.5" font-family="Helvetica,sans-Serif" font-size="10.00" fill="#000000">River::Border::CloseSources</text>
</a>
</g>
</g>
<!-- Node31&#45;&gt;Node32 -->
<g id="edge4" class="edge">
<title>Node31&#45;&gt;Node32</title>
<path fill="none" stroke="#191970" d="M287.0564,-130.4256C296.6031,-130.4805 306.3625,-130.5366 315.8609,-130.5912"/>
<polygon fill="#191970" stroke="#191970" points="286.8231,-126.9243 276.8032,-130.3667 286.7828,-133.9242 286.8231,-126.9243"/>
</g>
<!-- Node33 -->
<g id="node6" class="node">
<title>Node33</title>
<g id="a_node6"><a xlink:href="namespaceRiver.html#aa226e8aa15b4b21c82a2ea177e1faee6" target="_top" xlink:title="Finnal Boudary Geneartor Class. ">
<polygon fill="#ffffff" stroke="#000000" points="322,-83.5 322,-102.5 452,-102.5 452,-83.5 322,-83.5"/>
<text text-anchor="middle" x="387" y="-90.5" font-family="Helvetica,sans-Serif" font-size="10.00" fill="#000000">River::BoundaryGenerator</text>
</a>
</g>
</g>
<!-- Node31&#45;&gt;Node33 -->
<g id="edge6" class="edge">
<title>Node31&#45;&gt;Node33</title>
<path fill="none" stroke="#191970" d="M286.5961,-114.3503C305.5113,-110.328 325.2927,-106.1217 342.2472,-102.5164"/>
<polygon fill="#191970" stroke="#191970" points="285.8565,-110.9292 276.8032,-116.4327 287.3125,-117.7761 285.8565,-110.9292"/>
</g>
<!-- Node34 -->
<g id="node7" class="node">
<title>Node34</title>
<g id="a_node7"><a xlink:href="main_8cpp.html#a0ddf1224851353fc92bfbff6f499fa97" target="_top" xlink:title="Entry point of RiverSim program. ">
<polygon fill="#ffffff" stroke="#000000" points="494,-83.5 494,-102.5 532,-102.5 532,-83.5 494,-83.5"/>
<text text-anchor="middle" x="513" y="-90.5" font-family="Helvetica,sans-Serif" font-size="10.00" fill="#000000">main</text>
</a>
</g>
</g>
<!-- Node33&#45;&gt;Node34 -->
<g id="edge7" class="edge">
<title>Node33&#45;&gt;Node34</title>
<path fill="none" stroke="#191970" d="M462.5129,-93C474.1067,-93 485.1114,-93 493.8697,-93"/>
<polygon fill="#191970" stroke="#191970" points="462.2145,-89.5001 452.2144,-93 462.2144,-96.5001 462.2145,-89.5001"/>
</g>
</g>
</svg>
