<?xml version="1.0" encoding="UTF-8" standalone="no"?>
<!DOCTYPE svg PUBLIC "-//W3C//DTD SVG 1.1//EN"
 "http://www.w3.org/Graphics/SVG/1.1/DTD/svg11.dtd">
<!-- Generated by graphviz version 2.40.1 (20161225.0304)
 -->
<!-- Title: tethex::PhysPoint Pages: 1 -->
<svg width="235pt" height="453pt"
 viewBox="0.00 0.00 234.50 453.00" xmlns="http://www.w3.org/2000/svg" xmlns:xlink="http://www.w3.org/1999/xlink">
<g id="graph0" class="graph" transform="scale(1 1) rotate(0) translate(4 449)">
<title>tethex::PhysPoint</title>
<polygon fill="#ffffff" stroke="transparent" points="-4,4 -4,-449 230.5,-449 230.5,4 -4,4"/>
<!-- Node2 -->
<g id="node1" class="node">
<title>Node2</title>
<polygon fill="#bfbfbf" stroke="#000000" points="0,-.5 0,-79.5 102,-79.5 102,-.5 0,-.5"/>
<text text-anchor="middle" x="51" y="-67.5" font-family="Helvetica,sans-Serif" font-size="10.00" fill="#000000">tethex::PhysPoint</text>
<polyline fill="none" stroke="#000000" points="0,-60.5 102,-60.5 "/>
<text text-anchor="middle" x="51" y="-48.5" font-family="Helvetica,sans-Serif" font-size="10.00" fill="#000000"> </text>
<polyline fill="none" stroke="#000000" points="0,-41.5 102,-41.5 "/>
<text text-anchor="start" x="8" y="-29.5" font-family="Helvetica,sans-Serif" font-size="10.00" fill="#000000">+ PhysPoint()</text>
<text text-anchor="start" x="8" y="-18.5" font-family="Helvetica,sans-Serif" font-size="10.00" fill="#000000">+ PhysPoint()</text>
<text text-anchor="start" x="8" y="-7.5" font-family="Helvetica,sans-Serif" font-size="10.00" fill="#000000">+ PhysPoint()</text>
</g>
<!-- Node3 -->
<g id="node2" class="node">
<title>Node3</title>
<g id="a_node2"><a xlink:href="classtethex_1_1MeshElement.html" target="_top" xlink:title="This class implements the most part of functionality of all elements of mesh: triangles, tetrahedra, quadrangles, hexahedra, etc. ">
<polygon fill="#ffffff" stroke="#000000" points="101.5,-117.5 101.5,-306.5 226.5,-306.5 226.5,-117.5 101.5,-117.5"/>
<text text-anchor="middle" x="164" y="-294.5" font-family="Helvetica,sans-Serif" font-size="10.00" fill="#000000">tethex::MeshElement</text>
<polyline fill="none" stroke="#000000" points="101.5,-287.5 226.5,-287.5 "/>
<text text-anchor="middle" x="164" y="-275.5" font-family="Helvetica,sans-Serif" font-size="10.00" fill="#000000"> </text>
<polyline fill="none" stroke="#000000" points="101.5,-268.5 226.5,-268.5 "/>
<text text-anchor="start" x="109.5" y="-256.5" font-family="Helvetica,sans-Serif" font-size="10.00" fill="#000000">+ ~MeshElement()</text>
<text text-anchor="start" x="109.5" y="-245.5" font-family="Helvetica,sans-Serif" font-size="10.00" fill="#000000">+ get_n_vertices()</text>
<text text-anchor="start" x="109.5" y="-234.5" font-family="Helvetica,sans-Serif" font-size="10.00" fill="#000000">+ get_n_edges()</text>
<text text-anchor="start" x="109.5" y="-223.5" font-family="Helvetica,sans-Serif" font-size="10.00" fill="#000000">+ get_gmsh_el_type()</text>
<text text-anchor="start" x="109.5" y="-212.5" font-family="Helvetica,sans-Serif" font-size="10.00" fill="#000000">+ get_material_id()</text>
<text text-anchor="start" x="109.5" y="-201.5" font-family="Helvetica,sans-Serif" font-size="10.00" fill="#000000">+ get_vertex()</text>
<text text-anchor="start" x="109.5" y="-190.5" font-family="Helvetica,sans-Serif" font-size="10.00" fill="#000000">+ get_edge()</text>
<text text-anchor="start" x="109.5" y="-179.5" font-family="Helvetica,sans-Serif" font-size="10.00" fill="#000000">+ set_vertex()</text>
<text text-anchor="start" x="109.5" y="-168.5" font-family="Helvetica,sans-Serif" font-size="10.00" fill="#000000">+ set_edge()</text>
<text text-anchor="start" x="109.5" y="-157.5" font-family="Helvetica,sans-Serif" font-size="10.00" fill="#000000">+ contains()</text>
<text text-anchor="start" x="109.5" y="-146.5" font-family="Helvetica,sans-Serif" font-size="10.00" fill="#000000"># MeshElement()</text>
<text text-anchor="start" x="109.5" y="-135.5" font-family="Helvetica,sans-Serif" font-size="10.00" fill="#000000"># MeshElement()</text>
<text text-anchor="start" x="109.5" y="-124.5" font-family="Helvetica,sans-Serif" font-size="10.00" fill="#000000"># operator=()</text>
</a>
</g>
</g>
<!-- Node3&#45;&gt;Node2 -->
<g id="edge1" class="edge">
<title>Node3&#45;&gt;Node2</title>
<path fill="none" stroke="#191970" d="M96.1936,-108.7902C89.4754,-98.5644 82.9796,-88.6769 77.1074,-79.7387"/>
<polygon fill="none" stroke="#191970" points="93.4643,-111.0103 101.8803,-117.4462 99.3147,-107.1667 93.4643,-111.0103"/>
</g>
<!-- Node4 -->
<g id="node3" class="node">
<title>Node4</title>
<polygon fill="#ffffff" stroke="#bfbfbf" points="8.5,-387.5 8.5,-444.5 37.5,-444.5 37.5,-387.5 8.5,-387.5"/>
<text text-anchor="middle" x="23" y="-432.5" font-family="Helvetica,sans-Serif" font-size="10.00" fill="#000000">int</text>
<polyline fill="none" stroke="#bfbfbf" points="8.5,-425.5 37.5,-425.5 "/>
<text text-anchor="middle" x="23" y="-413.5" font-family="Helvetica,sans-Serif" font-size="10.00" fill="#000000"> </text>
<polyline fill="none" stroke="#bfbfbf" points="8.5,-406.5 37.5,-406.5 "/>
<text text-anchor="middle" x="23" y="-394.5" font-family="Helvetica,sans-Serif" font-size="10.00" fill="#000000"> </text>
</g>
<!-- Node4&#45;&gt;Node2 -->
<g id="edge4" class="edge">
<title>Node4&#45;&gt;Node2</title>
<path fill="none" stroke="#404040" d="M17.6242,-387.1096C8.6063,-333.2292 -6.5721,-214.0747 15,-117 16.9588,-108.1856 20.0378,-99.1859 23.5896,-90.5931"/>
<polygon fill="none" stroke="#404040" points="23.609,-90.5493 22.3868,-83.4425 28.4768,-79.581 29.699,-86.6878 23.609,-90.5493"/>
<text text-anchor="middle" x="53.5" y="-220.5" font-family="Helvetica,sans-Serif" font-size="10.00" fill="#000000"> +n_vertices</text>
<text text-anchor="middle" x="53.5" y="-209.5" font-family="Helvetica,sans-Serif" font-size="10.00" fill="#000000">+n_edges</text>
<text text-anchor="middle" x="53.5" y="-198.5" font-family="Helvetica,sans-Serif" font-size="10.00" fill="#000000">+gmsh_el_type</text>
</g>
<!-- Node4&#45;&gt;Node3 -->
<g id="edge2" class="edge">
<title>Node4&#45;&gt;Node3</title>
<path fill="none" stroke="#404040" d="M37.7224,-391.3271C48.9375,-372.8257 64.9607,-347.0107 80,-325 84.5401,-318.3553 89.3018,-311.5509 94.1528,-304.7376"/>
<polygon fill="none" stroke="#404040" points="94.312,-304.5158 94.5607,-297.3089 101.3088,-294.7666 101.0601,-301.9735 94.312,-304.5158"/>
<text text-anchor="middle" x="120" y="-361" font-family="Helvetica,sans-Serif" font-size="10.00" fill="#000000"> #gmsh_el_type</text>
<text text-anchor="middle" x="120" y="-350" font-family="Helvetica,sans-Serif" font-size="10.00" fill="#000000">#n_vertices</text>
<text text-anchor="middle" x="120" y="-339" font-family="Helvetica,sans-Serif" font-size="10.00" fill="#000000">#n_edges</text>
<text text-anchor="middle" x="120" y="-328" font-family="Helvetica,sans-Serif" font-size="10.00" fill="#000000">#material_id</text>
</g>
<!-- Node5 -->
<g id="node4" class="node">
<title>Node5</title>
<polygon fill="#ffffff" stroke="#bfbfbf" points="122.5,-387.5 122.5,-444.5 205.5,-444.5 205.5,-387.5 122.5,-387.5"/>
<text text-anchor="middle" x="164" y="-432.5" font-family="Helvetica,sans-Serif" font-size="10.00" fill="#000000">vector&lt; int &gt;</text>
<polyline fill="none" stroke="#bfbfbf" points="122.5,-425.5 205.5,-425.5 "/>
<text text-anchor="middle" x="164" y="-413.5" font-family="Helvetica,sans-Serif" font-size="10.00" fill="#000000"> </text>
<polyline fill="none" stroke="#bfbfbf" points="122.5,-406.5 205.5,-406.5 "/>
<text text-anchor="middle" x="164" y="-394.5" font-family="Helvetica,sans-Serif" font-size="10.00" fill="#000000"> </text>
</g>
<!-- Node5&#45;&gt;Node3 -->
<g id="edge3" class="edge">
<title>Node5&#45;&gt;Node3</title>
<path fill="none" stroke="#404040" d="M164,-387.2045C164,-368.9054 164,-343.9625 164,-318.6377"/>
<polygon fill="none" stroke="#404040" points="164.0001,-318.6016 160,-312.6016 164,-306.6016 168,-312.6016 164.0001,-318.6016"/>
<text text-anchor="middle" x="189.5" y="-350" font-family="Helvetica,sans-Serif" font-size="10.00" fill="#000000"> #vertices</text>
<text text-anchor="middle" x="189.5" y="-339" font-family="Helvetica,sans-Serif" font-size="10.00" fill="#000000">#edges</text>
</g>
</g>
</svg>
