<?xml version="1.0" encoding="UTF-8" standalone="no"?>
<!DOCTYPE svg PUBLIC "-//W3C//DTD SVG 1.1//EN"
 "http://www.w3.org/Graphics/SVG/1.1/DTD/svg11.dtd">
<!-- Generated by graphviz version 2.40.1 (20161225.0304)
 -->
<!-- Title: nlohmann::basic_json::unflatten Pages: 1 -->
<svg width="751pt" height="88pt"
 viewBox="0.00 0.00 751.00 88.00" xmlns="http://www.w3.org/2000/svg" xmlns:xlink="http://www.w3.org/1999/xlink">
<g id="graph0" class="graph" transform="scale(1 1) rotate(0) translate(4 84)">
<title>nlohmann::basic_json::unflatten</title>
<polygon fill="#ffffff" stroke="transparent" points="-4,4 -4,-84 747,-84 747,4 -4,4"/>
<!-- Node558 -->
<g id="node1" class="node">
<title>Node558</title>
<polygon fill="#bfbfbf" stroke="#000000" points="0,-27.5 0,-57.5 111,-57.5 111,-27.5 0,-27.5"/>
<text text-anchor="start" x="8" y="-45.5" font-family="Helvetica,sans-Serif" font-size="10.00" fill="#000000">nlohmann::basic_json</text>
<text text-anchor="middle" x="55.5" y="-34.5" font-family="Helvetica,sans-Serif" font-size="10.00" fill="#000000">::unflatten</text>
</g>
<!-- Node559 -->
<g id="node2" class="node">
<title>Node559</title>
<g id="a_node2"><a xlink:href="classnlohmann_1_1json__pointer.html#a920065221e3c81676c3211c100d024a7" target="_top" xlink:title="nlohmann::json_pointer\l::unflatten">
<polygon fill="#ffffff" stroke="#000000" points="147,-27.5 147,-57.5 264,-57.5 264,-27.5 147,-27.5"/>
<text text-anchor="start" x="155" y="-45.5" font-family="Helvetica,sans-Serif" font-size="10.00" fill="#000000">nlohmann::json_pointer</text>
<text text-anchor="middle" x="205.5" y="-34.5" font-family="Helvetica,sans-Serif" font-size="10.00" fill="#000000">::unflatten</text>
</a>
</g>
</g>
<!-- Node558&#45;&gt;Node559 -->
<g id="edge1" class="edge">
<title>Node558&#45;&gt;Node559</title>
<path fill="none" stroke="#191970" d="M111.3545,-42.5C119.5857,-42.5 128.1467,-42.5 136.6035,-42.5"/>
<polygon fill="#191970" stroke="#191970" points="136.8381,-46.0001 146.8381,-42.5 136.8381,-39.0001 136.8381,-46.0001"/>
</g>
<!-- Node560 -->
<g id="node3" class="node">
<title>Node560</title>
<g id="a_node3"><a xlink:href="classnlohmann_1_1detail_1_1type__error.html#aecc083aea4b698c33d042670ba50c10f" target="_top" xlink:title="nlohmann::detail::type\l_error::create">
<polygon fill="#ffffff" stroke="#000000" points="455.5,-49.5 455.5,-79.5 568.5,-79.5 568.5,-49.5 455.5,-49.5"/>
<text text-anchor="start" x="463.5" y="-67.5" font-family="Helvetica,sans-Serif" font-size="10.00" fill="#000000">nlohmann::detail::type</text>
<text text-anchor="middle" x="512" y="-56.5" font-family="Helvetica,sans-Serif" font-size="10.00" fill="#000000">_error::create</text>
</a>
</g>
</g>
<!-- Node559&#45;&gt;Node560 -->
<g id="edge2" class="edge">
<title>Node559&#45;&gt;Node560</title>
<path fill="none" stroke="#191970" d="M264.2336,-46.7158C315.9177,-50.4256 391.1324,-55.8244 445.117,-59.6993"/>
<polygon fill="#191970" stroke="#191970" points="445.0533,-63.2036 455.2782,-60.4286 445.5545,-56.2216 445.0533,-63.2036"/>
</g>
<!-- Node562 -->
<g id="node5" class="node">
<title>Node562</title>
<g id="a_node5"><a xlink:href="classnlohmann_1_1json__pointer.html#a583c726016f440ffe65553935c101ff5" target="_top" xlink:title="create and return a reference to the pointed to value ">
<polygon fill="#ffffff" stroke="#000000" points="300,-5.5 300,-35.5 417,-35.5 417,-5.5 300,-5.5"/>
<text text-anchor="start" x="308" y="-23.5" font-family="Helvetica,sans-Serif" font-size="10.00" fill="#000000">nlohmann::json_pointer</text>
<text text-anchor="middle" x="358.5" y="-12.5" font-family="Helvetica,sans-Serif" font-size="10.00" fill="#000000">::get_and_create</text>
</a>
</g>
</g>
<!-- Node559&#45;&gt;Node562 -->
<g id="edge4" class="edge">
<title>Node559&#45;&gt;Node562</title>
<path fill="none" stroke="#191970" d="M264.2162,-34.0571C272.6354,-32.8465 281.3589,-31.5922 289.9473,-30.3573"/>
<polygon fill="#191970" stroke="#191970" points="290.5409,-33.808 299.9409,-28.9203 289.5445,-26.8792 290.5409,-33.808"/>
</g>
<!-- Node561 -->
<g id="node4" class="node">
<title>Node561</title>
<g id="a_node4"><a xlink:href="classnlohmann_1_1detail_1_1exception.html#abf41a7e9178356314082284e6cfea278" target="_top" xlink:title="nlohmann::detail::exception\l::name">
<polygon fill="#ffffff" stroke="#000000" points="607,-24.5 607,-54.5 743,-54.5 743,-24.5 607,-24.5"/>
<text text-anchor="start" x="615" y="-42.5" font-family="Helvetica,sans-Serif" font-size="10.00" fill="#000000">nlohmann::detail::exception</text>
<text text-anchor="middle" x="675" y="-31.5" font-family="Helvetica,sans-Serif" font-size="10.00" fill="#000000">::name</text>
</a>
</g>
</g>
<!-- Node560&#45;&gt;Node561 -->
<g id="edge3" class="edge">
<title>Node560&#45;&gt;Node561</title>
<path fill="none" stroke="#191970" d="M568.552,-55.8264C577.6967,-54.4238 587.3052,-52.9501 596.8522,-51.4859"/>
<polygon fill="#191970" stroke="#191970" points="597.4032,-54.9424 606.757,-49.9667 596.3419,-48.0233 597.4032,-54.9424"/>
</g>
<!-- Node562&#45;&gt;Node560 -->
<g id="edge7" class="edge">
<title>Node562&#45;&gt;Node560</title>
<path fill="none" stroke="#191970" d="M410.8967,-35.5192C423.4236,-39.11 436.9161,-42.9776 449.8361,-46.681"/>
<polygon fill="#191970" stroke="#191970" points="449.0017,-50.0827 459.579,-49.4738 450.9306,-43.3537 449.0017,-50.0827"/>
</g>
<!-- Node563 -->
<g id="node6" class="node">
<title>Node563</title>
<g id="a_node6"><a xlink:href="classnlohmann_1_1detail_1_1parse__error.html#a137ea4d27de45d8a844fd13451d40f3d" target="_top" xlink:title="create a parse error exception ">
<polygon fill="#ffffff" stroke="#000000" points="453,-.5 453,-30.5 571,-30.5 571,-.5 453,-.5"/>
<text text-anchor="start" x="461" y="-18.5" font-family="Helvetica,sans-Serif" font-size="10.00" fill="#000000">nlohmann::detail::parse</text>
<text text-anchor="middle" x="512" y="-7.5" font-family="Helvetica,sans-Serif" font-size="10.00" fill="#000000">_error::create</text>
</a>
</g>
</g>
<!-- Node562&#45;&gt;Node563 -->
<g id="edge5" class="edge">
<title>Node562&#45;&gt;Node563</title>
<path fill="none" stroke="#191970" d="M417.4081,-18.5812C425.7029,-18.311 434.2921,-18.0312 442.7582,-17.7554"/>
<polygon fill="#191970" stroke="#191970" points="443.1152,-21.2458 452.9959,-17.422 442.8872,-14.2495 443.1152,-21.2458"/>
</g>
<!-- Node563&#45;&gt;Node561 -->
<g id="edge6" class="edge">
<title>Node563&#45;&gt;Node561</title>
<path fill="none" stroke="#191970" d="M571.3078,-24.2324C579.6169,-25.4559 588.259,-26.7283 596.8515,-27.9935"/>
<polygon fill="#191970" stroke="#191970" points="596.4892,-31.4778 606.8924,-29.4719 597.5089,-24.5525 596.4892,-31.4778"/>
</g>
</g>
</svg>
