<?xml version="1.0" encoding="UTF-8" standalone="no"?>
<!DOCTYPE svg PUBLIC "-//W3C//DTD SVG 1.1//EN"
 "http://www.w3.org/Graphics/SVG/1.1/DTD/svg11.dtd">
<!-- Generated by graphviz version 2.40.1 (20161225.0304)
 -->
<!-- Title: River::Geometry::AddBiffurcation Pages: 1 -->
<svg width="638pt" height="28pt"
 viewBox="0.00 0.00 638.00 28.00" xmlns="http://www.w3.org/2000/svg" xmlns:xlink="http://www.w3.org/1999/xlink">
<g id="graph0" class="graph" transform="scale(1 1) rotate(0) translate(4 24)">
<title>River::Geometry::AddBiffurcation</title>
<polygon fill="#ffffff" stroke="transparent" points="-4,4 -4,-24 634,-24 634,4 -4,4"/>
<!-- Node21 -->
<g id="node1" class="node">
<title>Node21</title>
<polygon fill="#bfbfbf" stroke="#000000" points="0,-.5 0,-19.5 161,-19.5 161,-.5 0,-.5"/>
<text text-anchor="middle" x="80.5" y="-7.5" font-family="Helvetica,sans-Serif" font-size="10.00" fill="#000000">River::Geometry::AddBiffurcation</text>
</g>
<!-- Node22 -->
<g id="node2" class="node">
<title>Node22</title>
<g id="a_node2"><a xlink:href="classRiver_1_1Branch.html#ac530394680fc8ab073033352f251fe17" target="_top" xlink:title="River::Branch::Branch">
<polygon fill="#ffffff" stroke="#000000" points="197,-.5 197,-19.5 310,-19.5 310,-.5 197,-.5"/>
<text text-anchor="middle" x="253.5" y="-7.5" font-family="Helvetica,sans-Serif" font-size="10.00" fill="#000000">River::Branch::Branch</text>
</a>
</g>
</g>
<!-- Node21&#45;&gt;Node22 -->
<g id="edge1" class="edge">
<title>Node21&#45;&gt;Node22</title>
<path fill="none" stroke="#191970" d="M161.1753,-10C169.6924,-10 178.2852,-10 186.6213,-10"/>
<polygon fill="#191970" stroke="#191970" points="186.64,-13.5001 196.6399,-10 186.6399,-6.5001 186.64,-13.5001"/>
</g>
<!-- Node23 -->
<g id="node3" class="node">
<title>Node23</title>
<g id="a_node3"><a xlink:href="classRiver_1_1Branch.html#a67e24ea2b1f521a1af4193fb7a9c0bed" target="_top" xlink:title="River::Branch::splitPoint">
<polygon fill="#ffffff" stroke="#000000" points="346,-.5 346,-19.5 469,-19.5 469,-.5 346,-.5"/>
<text text-anchor="middle" x="407.5" y="-7.5" font-family="Helvetica,sans-Serif" font-size="10.00" fill="#000000">River::Branch::splitPoint</text>
</a>
</g>
</g>
<!-- Node22&#45;&gt;Node23 -->
<g id="edge2" class="edge">
<title>Node22&#45;&gt;Node23</title>
<path fill="none" stroke="#191970" d="M310.4064,-10C318.6298,-10 327.1819,-10 335.6506,-10"/>
<polygon fill="#191970" stroke="#191970" points="335.9115,-13.5001 345.9115,-10 335.9115,-6.5001 335.9115,-13.5001"/>
</g>
<!-- Node24 -->
<g id="node4" class="node">
<title>Node24</title>
<g id="a_node4"><a xlink:href="classRiver_1_1GeomPoint.html#a8a4dd9e43fc222c4276c67bc258812ec" target="_top" xlink:title="River::GeomPoint::rotate">
<polygon fill="#ffffff" stroke="#000000" points="505,-.5 505,-19.5 630,-19.5 630,-.5 505,-.5"/>
<text text-anchor="middle" x="567.5" y="-7.5" font-family="Helvetica,sans-Serif" font-size="10.00" fill="#000000">River::GeomPoint::rotate</text>
</a>
</g>
</g>
<!-- Node23&#45;&gt;Node24 -->
<g id="edge3" class="edge">
<title>Node23&#45;&gt;Node24</title>
<path fill="none" stroke="#191970" d="M469.3602,-10C477.6126,-10 486.1368,-10 494.556,-10"/>
<polygon fill="#191970" stroke="#191970" points="494.7481,-13.5001 504.7481,-10 494.748,-6.5001 494.7481,-13.5001"/>
</g>
</g>
</svg>
