<?xml version="1.0" encoding="UTF-8" standalone="no"?>
<!DOCTYPE svg PUBLIC "-//W3C//DTD SVG 1.1//EN"
 "http://www.w3.org/Graphics/SVG/1.1/DTD/svg11.dtd">
<!-- Generated by graphviz version 2.40.1 (20161225.0304)
 -->
<!-- Title: nlohmann::basic_json::insert Pages: 1 -->
<svg width="449pt" height="88pt"
 viewBox="0.00 0.00 449.00 88.00" xmlns="http://www.w3.org/2000/svg" xmlns:xlink="http://www.w3.org/1999/xlink">
<g id="graph0" class="graph" transform="scale(1 1) rotate(0) translate(4 84)">
<title>nlohmann::basic_json::insert</title>
<polygon fill="#ffffff" stroke="transparent" points="-4,4 -4,-84 445,-84 445,4 -4,4"/>
<!-- Node365 -->
<g id="node1" class="node">
<title>Node365</title>
<polygon fill="#bfbfbf" stroke="#000000" points="0,-24.5 0,-54.5 111,-54.5 111,-24.5 0,-24.5"/>
<text text-anchor="start" x="8" y="-42.5" font-family="Helvetica,sans-Serif" font-size="10.00" fill="#000000">nlohmann::basic_json</text>
<text text-anchor="middle" x="55.5" y="-31.5" font-family="Helvetica,sans-Serif" font-size="10.00" fill="#000000">::insert</text>
</g>
<!-- Node366 -->
<g id="node2" class="node">
<title>Node366</title>
<g id="a_node2"><a xlink:href="classnlohmann_1_1detail_1_1invalid__iterator.html#a4e849260a3caa1b288c7e619130c6c09" target="_top" xlink:title="nlohmann::detail::invalid\l_iterator::create">
<polygon fill="#ffffff" stroke="#000000" points="147,-49.5 147,-79.5 269,-79.5 269,-49.5 147,-49.5"/>
<text text-anchor="start" x="155" y="-67.5" font-family="Helvetica,sans-Serif" font-size="10.00" fill="#000000">nlohmann::detail::invalid</text>
<text text-anchor="middle" x="208" y="-56.5" font-family="Helvetica,sans-Serif" font-size="10.00" fill="#000000">_iterator::create</text>
</a>
</g>
</g>
<!-- Node365&#45;&gt;Node366 -->
<g id="edge1" class="edge">
<title>Node365&#45;&gt;Node366</title>
<path fill="none" stroke="#191970" d="M111.4194,-48.6671C119.7288,-50.0293 128.3857,-51.4485 136.9546,-52.8532"/>
<polygon fill="#191970" stroke="#191970" points="136.5126,-56.3274 146.9471,-54.4913 137.6451,-49.4196 136.5126,-56.3274"/>
</g>
<!-- Node368 -->
<g id="node4" class="node">
<title>Node368</title>
<g id="a_node4"><a xlink:href="classnlohmann_1_1detail_1_1type__error.html#aecc083aea4b698c33d042670ba50c10f" target="_top" xlink:title="nlohmann::detail::type\l_error::create">
<polygon fill="#ffffff" stroke="#000000" points="151.5,-.5 151.5,-30.5 264.5,-30.5 264.5,-.5 151.5,-.5"/>
<text text-anchor="start" x="159.5" y="-18.5" font-family="Helvetica,sans-Serif" font-size="10.00" fill="#000000">nlohmann::detail::type</text>
<text text-anchor="middle" x="208" y="-7.5" font-family="Helvetica,sans-Serif" font-size="10.00" fill="#000000">_error::create</text>
</a>
</g>
</g>
<!-- Node365&#45;&gt;Node368 -->
<g id="edge3" class="edge">
<title>Node365&#45;&gt;Node368</title>
<path fill="none" stroke="#191970" d="M111.4194,-30.6996C121.174,-29.1644 131.4074,-27.5539 141.415,-25.979"/>
<polygon fill="#191970" stroke="#191970" points="141.987,-29.4321 151.3213,-24.4199 140.8987,-22.5172 141.987,-29.4321"/>
</g>
<!-- Node367 -->
<g id="node3" class="node">
<title>Node367</title>
<g id="a_node3"><a xlink:href="classnlohmann_1_1detail_1_1exception.html#abf41a7e9178356314082284e6cfea278" target="_top" xlink:title="nlohmann::detail::exception\l::name">
<polygon fill="#ffffff" stroke="#000000" points="305,-24.5 305,-54.5 441,-54.5 441,-24.5 305,-24.5"/>
<text text-anchor="start" x="313" y="-42.5" font-family="Helvetica,sans-Serif" font-size="10.00" fill="#000000">nlohmann::detail::exception</text>
<text text-anchor="middle" x="373" y="-31.5" font-family="Helvetica,sans-Serif" font-size="10.00" fill="#000000">::name</text>
</a>
</g>
</g>
<!-- Node366&#45;&gt;Node367 -->
<g id="edge2" class="edge">
<title>Node366&#45;&gt;Node367</title>
<path fill="none" stroke="#191970" d="M269.4399,-55.1909C277.7377,-53.9337 286.34,-52.6303 294.8797,-51.3364"/>
<polygon fill="#191970" stroke="#191970" points="295.4908,-54.7839 304.8536,-49.8252 294.4421,-47.8628 295.4908,-54.7839"/>
</g>
<!-- Node368&#45;&gt;Node367 -->
<g id="edge4" class="edge">
<title>Node368&#45;&gt;Node367</title>
<path fill="none" stroke="#191970" d="M264.7836,-23.7594C274.4319,-25.1628 284.6016,-26.642 294.6875,-28.1091"/>
<polygon fill="#191970" stroke="#191970" points="294.3235,-31.5929 304.7232,-29.5688 295.3312,-24.6658 294.3235,-31.5929"/>
</g>
</g>
</svg>
