<?xml version="1.0" encoding="UTF-8" standalone="no"?>
<!DOCTYPE svg PUBLIC "-//W3C//DTD SVG 1.1//EN"
 "http://www.w3.org/Graphics/SVG/1.1/DTD/svg11.dtd">
<!-- Generated by graphviz version 2.40.1 (20161225.0304)
 -->
<!-- Title: tethex::Mesh::append_lines Pages: 1 -->
<svg width="537pt" height="66pt"
 viewBox="0.00 0.00 537.00 66.00" xmlns="http://www.w3.org/2000/svg" xmlns:xlink="http://www.w3.org/1999/xlink">
<g id="graph0" class="graph" transform="scale(1 1) rotate(0) translate(4 62)">
<title>tethex::Mesh::append_lines</title>
<polygon fill="#ffffff" stroke="transparent" points="-4,4 -4,-62 533,-62 533,4 -4,4"/>
<!-- Node203 -->
<g id="node1" class="node">
<title>Node203</title>
<polygon fill="#bfbfbf" stroke="#000000" points="0,-14 0,-44 111,-44 111,-14 0,-14"/>
<text text-anchor="start" x="8" y="-32" font-family="Helvetica,sans-Serif" font-size="10.00" fill="#000000">tethex::Mesh::append</text>
<text text-anchor="middle" x="55.5" y="-21" font-family="Helvetica,sans-Serif" font-size="10.00" fill="#000000">_lines</text>
</g>
<!-- Node204 -->
<g id="node2" class="node">
<title>Node204</title>
<g id="a_node2"><a xlink:href="classRiver_1_1Border.html#a08df0eb89a5692e84d6b3fe5fe5bec37" target="_top" xlink:title="Add border line to each source points. ">
<polygon fill="#ffffff" stroke="#000000" points="147,-38.5 147,-57.5 289,-57.5 289,-38.5 147,-38.5"/>
<text text-anchor="middle" x="218" y="-45.5" font-family="Helvetica,sans-Serif" font-size="10.00" fill="#000000">River::Border::CloseSources</text>
</a>
</g>
</g>
<!-- Node203&#45;&gt;Node204 -->
<g id="edge1" class="edge">
<title>Node203&#45;&gt;Node204</title>
<path fill="none" stroke="#191970" d="M121.4555,-36.7117C129.7909,-37.6863 138.3492,-38.687 146.7621,-39.6706"/>
<polygon fill="#191970" stroke="#191970" points="121.7621,-33.2238 111.4233,-35.5387 120.9491,-40.1764 121.7621,-33.2238"/>
</g>
<!-- Node205 -->
<g id="node3" class="node">
<title>Node205</title>
<g id="a_node3"><a xlink:href="namespaceRiver.html#aad220f83cbabff9aa2d1635de9b079c3" target="_top" xlink:title="River::AppendTreeToMesh">
<polygon fill="#ffffff" stroke="#000000" points="151,-.5 151,-19.5 285,-19.5 285,-.5 151,-.5"/>
<text text-anchor="middle" x="218" y="-7.5" font-family="Helvetica,sans-Serif" font-size="10.00" fill="#000000">River::AppendTreeToMesh</text>
</a>
</g>
</g>
<!-- Node203&#45;&gt;Node205 -->
<g id="edge2" class="edge">
<title>Node203&#45;&gt;Node205</title>
<path fill="none" stroke="#191970" d="M121.3801,-21.2971C131.0629,-20.165 141.0479,-18.9975 150.7577,-17.8622"/>
<polygon fill="#191970" stroke="#191970" points="120.9491,-17.8236 111.4233,-22.4613 121.7621,-24.7762 120.9491,-17.8236"/>
</g>
<!-- Node206 -->
<g id="node4" class="node">
<title>Node206</title>
<g id="a_node4"><a xlink:href="namespaceRiver.html#aa226e8aa15b4b21c82a2ea177e1faee6" target="_top" xlink:title="River::BoundaryGenerator">
<polygon fill="#ffffff" stroke="#000000" points="325,-.5 325,-19.5 455,-19.5 455,-.5 325,-.5"/>
<text text-anchor="middle" x="390" y="-7.5" font-family="Helvetica,sans-Serif" font-size="10.00" fill="#000000">River::BoundaryGenerator</text>
</a>
</g>
</g>
<!-- Node205&#45;&gt;Node206 -->
<g id="edge3" class="edge">
<title>Node205&#45;&gt;Node206</title>
<path fill="none" stroke="#191970" d="M295.6269,-10C305.4304,-10 315.3803,-10 324.9608,-10"/>
<polygon fill="#191970" stroke="#191970" points="295.4853,-6.5001 285.4853,-10 295.4853,-13.5001 295.4853,-6.5001"/>
</g>
<!-- Node207 -->
<g id="node5" class="node">
<title>Node207</title>
<g id="a_node5"><a xlink:href="main_8cpp.html#a0ddf1224851353fc92bfbff6f499fa97" target="_top" xlink:title="Entry point of RiverSim program. ">
<polygon fill="#ffffff" stroke="#000000" points="491,-.5 491,-19.5 529,-19.5 529,-.5 491,-.5"/>
<text text-anchor="middle" x="510" y="-7.5" font-family="Helvetica,sans-Serif" font-size="10.00" fill="#000000">main</text>
</a>
</g>
</g>
<!-- Node206&#45;&gt;Node207 -->
<g id="edge4" class="edge">
<title>Node206&#45;&gt;Node207</title>
<path fill="none" stroke="#191970" d="M465.2762,-10C474.7335,-10 483.6483,-10 490.9929,-10"/>
<polygon fill="#191970" stroke="#191970" points="465.2674,-6.5001 455.2674,-10 465.2674,-13.5001 465.2674,-6.5001"/>
</g>
</g>
</svg>
