<?xml version="1.0" encoding="UTF-8" standalone="no"?>
<!DOCTYPE svg PUBLIC "-//W3C//DTD SVG 1.1//EN"
 "http://www.w3.org/Graphics/SVG/1.1/DTD/svg11.dtd">
<!-- Generated by graphviz version 2.43.0 (0)
 -->
<!-- Title: River::Branch Pages: 1 -->
<svg width="289pt" height="672pt"
 viewBox="0.00 0.00 288.50 672.00" xmlns="http://www.w3.org/2000/svg" xmlns:xlink="http://www.w3.org/1999/xlink">
<g id="graph0" class="graph" transform="scale(1 1) rotate(0) translate(4 668)">
<title>River::Branch</title>
<polygon fill="white" stroke="transparent" points="-4,4 -4,-668 284.5,-668 284.5,4 -4,4"/>
<!-- Node1 -->
<g id="node1" class="node">
<title>Node1</title>
<g id="a_node1"><a xlink:title="Holds all functionality that you need to work with single branch.">
<polygon fill="#bfbfbf" stroke="black" points="83,-0.5 83,-398.5 246,-398.5 246,-0.5 83,-0.5"/>
<text text-anchor="middle" x="164.5" y="-386.5" font-family="Helvetica,sans-Serif" font-size="10.00">River::Branch</text>
<polyline fill="none" stroke="black" points="83,-379.5 246,-379.5 "/>
<text text-anchor="middle" x="164.5" y="-367.5" font-family="Helvetica,sans-Serif" font-size="10.00"> </text>
<polyline fill="none" stroke="black" points="83,-360.5 246,-360.5 "/>
<text text-anchor="start" x="91" y="-348.5" font-family="Helvetica,sans-Serif" font-size="10.00">+ Branch()</text>
<text text-anchor="start" x="91" y="-337.5" font-family="Helvetica,sans-Serif" font-size="10.00">+ Branch()</text>
<text text-anchor="start" x="91" y="-326.5" font-family="Helvetica,sans-Serif" font-size="10.00">+ generateSmoothBoundary()</text>
<text text-anchor="start" x="91" y="-315.5" font-family="Helvetica,sans-Serif" font-size="10.00">+ operator==()</text>
<text text-anchor="start" x="91" y="-304.5" font-family="Helvetica,sans-Serif" font-size="10.00">+ AddAbsolutePoint()</text>
<text text-anchor="start" x="91" y="-293.5" font-family="Helvetica,sans-Serif" font-size="10.00">+ AddAbsolutePoint()</text>
<text text-anchor="start" x="91" y="-282.5" font-family="Helvetica,sans-Serif" font-size="10.00">+ AddPoint()</text>
<text text-anchor="start" x="91" y="-271.5" font-family="Helvetica,sans-Serif" font-size="10.00">+ AddPoint()</text>
<text text-anchor="start" x="91" y="-260.5" font-family="Helvetica,sans-Serif" font-size="10.00">+ Shrink()</text>
<text text-anchor="start" x="91" y="-249.5" font-family="Helvetica,sans-Serif" font-size="10.00">+ RemoveTipPoint()</text>
<text text-anchor="start" x="91" y="-238.5" font-family="Helvetica,sans-Serif" font-size="10.00">+ TipPoint()</text>
<text text-anchor="start" x="91" y="-227.5" font-family="Helvetica,sans-Serif" font-size="10.00">+ TipVector()</text>
<text text-anchor="start" x="91" y="-216.5" font-family="Helvetica,sans-Serif" font-size="10.00">+ Vector()</text>
<text text-anchor="start" x="91" y="-205.5" font-family="Helvetica,sans-Serif" font-size="10.00">+ TipAngle()</text>
<text text-anchor="start" x="91" y="-194.5" font-family="Helvetica,sans-Serif" font-size="10.00">+ SourcePoint()</text>
<text text-anchor="start" x="91" y="-183.5" font-family="Helvetica,sans-Serif" font-size="10.00">+ SourceAngle()</text>
<text text-anchor="start" x="91" y="-172.5" font-family="Helvetica,sans-Serif" font-size="10.00">+ SetSourceAngle()</text>
<text text-anchor="start" x="91" y="-161.5" font-family="Helvetica,sans-Serif" font-size="10.00">+ Lenght()</text>
<text text-anchor="start" x="91" y="-150.5" font-family="Helvetica,sans-Serif" font-size="10.00">* AddAbsolutePoint()</text>
<text text-anchor="start" x="91" y="-139.5" font-family="Helvetica,sans-Serif" font-size="10.00">* AddAbsolutePoint()</text>
<text text-anchor="start" x="91" y="-128.5" font-family="Helvetica,sans-Serif" font-size="10.00">* AddPoint()</text>
<text text-anchor="start" x="91" y="-117.5" font-family="Helvetica,sans-Serif" font-size="10.00">* AddPoint()</text>
<text text-anchor="start" x="91" y="-106.5" font-family="Helvetica,sans-Serif" font-size="10.00">* Shrink()</text>
<text text-anchor="start" x="91" y="-95.5" font-family="Helvetica,sans-Serif" font-size="10.00">* RemoveTipPoint()</text>
<text text-anchor="start" x="91" y="-84.5" font-family="Helvetica,sans-Serif" font-size="10.00">* TipPoint()</text>
<text text-anchor="start" x="91" y="-73.5" font-family="Helvetica,sans-Serif" font-size="10.00">* TipVector()</text>
<text text-anchor="start" x="91" y="-62.5" font-family="Helvetica,sans-Serif" font-size="10.00">* Vector()</text>
<text text-anchor="start" x="91" y="-51.5" font-family="Helvetica,sans-Serif" font-size="10.00">* TipAngle()</text>
<text text-anchor="start" x="91" y="-40.5" font-family="Helvetica,sans-Serif" font-size="10.00">* SourcePoint()</text>
<text text-anchor="start" x="91" y="-29.5" font-family="Helvetica,sans-Serif" font-size="10.00">* SourceAngle()</text>
<text text-anchor="start" x="91" y="-18.5" font-family="Helvetica,sans-Serif" font-size="10.00">* SetSourceAngle()</text>
<text text-anchor="start" x="91" y="-7.5" font-family="Helvetica,sans-Serif" font-size="10.00">* Lenght()</text>
</a>
</g>
</g>
<!-- Node2 -->
<g id="node2" class="node">
<title>Node2</title>
<g id="a_node2"><a xlink:href="classRiver_1_1Boundary.html" target="_top" xlink:title="Structure which defines simple boundary data structure.">
<polygon fill="white" stroke="black" points="21,-457.5 21,-558.5 184,-558.5 184,-457.5 21,-457.5"/>
<text text-anchor="middle" x="102.5" y="-546.5" font-family="Helvetica,sans-Serif" font-size="10.00">River::Boundary</text>
<polyline fill="none" stroke="black" points="21,-539.5 184,-539.5 "/>
<text text-anchor="middle" x="102.5" y="-527.5" font-family="Helvetica,sans-Serif" font-size="10.00"> </text>
<polyline fill="none" stroke="black" points="21,-520.5 184,-520.5 "/>
<text text-anchor="start" x="29" y="-508.5" font-family="Helvetica,sans-Serif" font-size="10.00">+ Append()</text>
<text text-anchor="start" x="29" y="-497.5" font-family="Helvetica,sans-Serif" font-size="10.00">+ ReplaceElement()</text>
<text text-anchor="start" x="29" y="-486.5" font-family="Helvetica,sans-Serif" font-size="10.00">+ FixLinesIndices()</text>
<text text-anchor="start" x="29" y="-475.5" font-family="Helvetica,sans-Serif" font-size="10.00">+ generateSmoothBoundary()</text>
<text text-anchor="start" x="29" y="-464.5" font-family="Helvetica,sans-Serif" font-size="10.00">+ operator==()</text>
</a>
</g>
</g>
<!-- Node2&#45;&gt;Node1 -->
<g id="edge1" class="edge">
<title>Node2&#45;&gt;Node1</title>
<path fill="none" stroke="midnightblue" d="M114.53,-447.51C117.52,-432.75 120.89,-416.11 124.43,-398.61"/>
<polygon fill="none" stroke="midnightblue" points="111.08,-446.92 112.53,-457.41 117.94,-448.31 111.08,-446.92"/>
</g>
<!-- Node3 -->
<g id="node3" class="node">
<title>Node3</title>
<g id="a_node3"><a xlink:title=" ">
<polygon fill="white" stroke="#bfbfbf" points="0,-606.5 0,-663.5 95,-663.5 95,-606.5 0,-606.5"/>
<text text-anchor="middle" x="47.5" y="-651.5" font-family="Helvetica,sans-Serif" font-size="10.00">vector&lt; Point &gt;</text>
<polyline fill="none" stroke="#bfbfbf" points="0,-644.5 95,-644.5 "/>
<text text-anchor="middle" x="47.5" y="-632.5" font-family="Helvetica,sans-Serif" font-size="10.00"> </text>
<polyline fill="none" stroke="#bfbfbf" points="0,-625.5 95,-625.5 "/>
<text text-anchor="middle" x="47.5" y="-613.5" font-family="Helvetica,sans-Serif" font-size="10.00"> </text>
</a>
</g>
</g>
<!-- Node3&#45;&gt;Node2 -->
<g id="edge2" class="edge">
<title>Node3&#45;&gt;Node2</title>
<path fill="none" stroke="#404040" d="M59.71,-606.26C64.45,-595.47 70.1,-582.65 75.7,-569.91"/>
<polygon fill="none" stroke="#404040" points="75.75,-569.79 74.51,-562.68 80.59,-558.8 81.83,-565.9 75.75,-569.79"/>
<text text-anchor="middle" x="98" y="-580" font-family="Helvetica,sans-Serif" font-size="10.00"> +vertices</text>
</g>
<!-- Node4 -->
<g id="node4" class="node">
<title>Node4</title>
<g id="a_node4"><a xlink:title=" ">
<polygon fill="white" stroke="#bfbfbf" points="113.5,-606.5 113.5,-663.5 203.5,-663.5 203.5,-606.5 113.5,-606.5"/>
<text text-anchor="middle" x="158.5" y="-651.5" font-family="Helvetica,sans-Serif" font-size="10.00">vector&lt; Line &gt;</text>
<polyline fill="none" stroke="#bfbfbf" points="113.5,-644.5 203.5,-644.5 "/>
<text text-anchor="middle" x="158.5" y="-632.5" font-family="Helvetica,sans-Serif" font-size="10.00"> </text>
<polyline fill="none" stroke="#bfbfbf" points="113.5,-625.5 203.5,-625.5 "/>
<text text-anchor="middle" x="158.5" y="-613.5" font-family="Helvetica,sans-Serif" font-size="10.00"> </text>
</a>
</g>
</g>
<!-- Node4&#45;&gt;Node2 -->
<g id="edge3" class="edge">
<title>Node4&#45;&gt;Node2</title>
<path fill="none" stroke="#404040" d="M146.07,-606.26C141.24,-595.47 135.49,-582.65 129.79,-569.91"/>
<polygon fill="none" stroke="#404040" points="129.72,-569.75 123.61,-565.91 124.81,-558.8 130.91,-562.64 129.72,-569.75"/>
<text text-anchor="middle" x="155" y="-580" font-family="Helvetica,sans-Serif" font-size="10.00"> +lines</text>
</g>
<!-- Node5 -->
<g id="node5" class="node">
<title>Node5</title>
<g id="a_node5"><a xlink:title=" ">
<polygon fill="white" stroke="#bfbfbf" points="202.5,-479.5 202.5,-536.5 252.5,-536.5 252.5,-479.5 202.5,-479.5"/>
<text text-anchor="middle" x="227.5" y="-524.5" font-family="Helvetica,sans-Serif" font-size="10.00">double</text>
<polyline fill="none" stroke="#bfbfbf" points="202.5,-517.5 252.5,-517.5 "/>
<text text-anchor="middle" x="227.5" y="-505.5" font-family="Helvetica,sans-Serif" font-size="10.00"> </text>
<polyline fill="none" stroke="#bfbfbf" points="202.5,-498.5 252.5,-498.5 "/>
<text text-anchor="middle" x="227.5" y="-486.5" font-family="Helvetica,sans-Serif" font-size="10.00"> </text>
</a>
</g>
</g>
<!-- Node5&#45;&gt;Node1 -->
<g id="edge4" class="edge">
<title>Node5&#45;&gt;Node1</title>
<path fill="none" stroke="#404040" d="M221.8,-479.26C218.21,-461.79 213.21,-437.46 207.64,-410.39"/>
<polygon fill="none" stroke="#404040" points="207.64,-410.38 202.51,-405.31 205.23,-398.63 210.35,-403.7 207.64,-410.38"/>
<text text-anchor="middle" x="246" y="-431" font-family="Helvetica,sans-Serif" font-size="10.00"> &#45;eps</text>
<text text-anchor="middle" x="246" y="-420" font-family="Helvetica,sans-Serif" font-size="10.00">&#45;source_angle</text>
</g>
</g>
</svg>
