<?xml version="1.0" encoding="UTF-8" standalone="no"?>
<!DOCTYPE svg PUBLIC "-//W3C//DTD SVG 1.1//EN"
 "http://www.w3.org/Graphics/SVG/1.1/DTD/svg11.dtd">
<!-- Generated by graphviz version 2.43.0 (0)
 -->
<!-- Title: River::Rivers Pages: 1 -->
<svg width="222pt" height="292pt"
 viewBox="0.00 0.00 222.00 292.00" xmlns="http://www.w3.org/2000/svg" xmlns:xlink="http://www.w3.org/1999/xlink">
<g id="graph0" class="graph" transform="scale(1 1) rotate(0) translate(4 288)">
<title>River::Rivers</title>
<polygon fill="white" stroke="transparent" points="-4,4 -4,-288 218,-288 218,4 -4,4"/>
<!-- Node1 -->
<g id="node1" class="node">
<title>Node1</title>
<g id="a_node1"><a xlink:title="Combines BranchNew into river like structure.">
<polygon fill="#bfbfbf" stroke="black" points="14.5,-0.5 14.5,-167.5 145.5,-167.5 145.5,-0.5 14.5,-0.5"/>
<text text-anchor="middle" x="80" y="-155.5" font-family="Helvetica,sans-Serif" font-size="10.00">River::Rivers</text>
<polyline fill="none" stroke="black" points="14.5,-148.5 145.5,-148.5 "/>
<text text-anchor="middle" x="80" y="-136.5" font-family="Helvetica,sans-Serif" font-size="10.00"> </text>
<polyline fill="none" stroke="black" points="14.5,-129.5 145.5,-129.5 "/>
<text text-anchor="start" x="22.5" y="-117.5" font-family="Helvetica,sans-Serif" font-size="10.00">+ Rivers()</text>
<text text-anchor="start" x="22.5" y="-106.5" font-family="Helvetica,sans-Serif" font-size="10.00">+ Rivers()</text>
<text text-anchor="start" x="22.5" y="-95.5" font-family="Helvetica,sans-Serif" font-size="10.00">+ operator=()</text>
<text text-anchor="start" x="22.5" y="-84.5" font-family="Helvetica,sans-Serif" font-size="10.00">+ operator==()</text>
<text text-anchor="start" x="22.5" y="-73.5" font-family="Helvetica,sans-Serif" font-size="10.00">+ Initialize()</text>
<text text-anchor="start" x="22.5" y="-62.5" font-family="Helvetica,sans-Serif" font-size="10.00">+ AddBranch()</text>
<text text-anchor="start" x="22.5" y="-51.5" font-family="Helvetica,sans-Serif" font-size="10.00">+ AddSubBranches()</text>
<text text-anchor="start" x="22.5" y="-40.5" font-family="Helvetica,sans-Serif" font-size="10.00">+ DeleteBranch()</text>
<text text-anchor="start" x="22.5" y="-29.5" font-family="Helvetica,sans-Serif" font-size="10.00">+ DeleteSubBranches()</text>
<text text-anchor="start" x="22.5" y="-18.5" font-family="Helvetica,sans-Serif" font-size="10.00">+ Clear()</text>
<text text-anchor="start" x="22.5" y="-7.5" font-family="Helvetica,sans-Serif" font-size="10.00">and 23 more...</text>
</a>
</g>
</g>
<!-- Node2 -->
<g id="node2" class="node">
<title>Node2</title>
<g id="a_node2"><a xlink:href="classt__Rivers.html" target="_top" xlink:title=" ">
<polygon fill="white" stroke="black" points="0,-221 0,-278 56,-278 56,-221 0,-221"/>
<text text-anchor="middle" x="28" y="-266" font-family="Helvetica,sans-Serif" font-size="10.00">t_Rivers</text>
<polyline fill="none" stroke="black" points="0,-259 56,-259 "/>
<text text-anchor="middle" x="28" y="-247" font-family="Helvetica,sans-Serif" font-size="10.00"> </text>
<polyline fill="none" stroke="black" points="0,-240 56,-240 "/>
<text text-anchor="middle" x="28" y="-228" font-family="Helvetica,sans-Serif" font-size="10.00"> </text>
</a>
</g>
</g>
<!-- Node2&#45;&gt;Node1 -->
<g id="edge1" class="edge">
<title>Node2&#45;&gt;Node1</title>
<path fill="none" stroke="midnightblue" d="M39.86,-211.22C44.02,-198.13 48.88,-182.86 53.75,-167.55"/>
<polygon fill="none" stroke="midnightblue" points="36.52,-210.17 36.82,-220.76 43.19,-212.3 36.52,-210.17"/>
</g>
<!-- Node3 -->
<g id="node3" class="node">
<title>Node3</title>
<g id="a_node3"><a xlink:title=" ">
<polygon fill="white" stroke="#bfbfbf" points="74,-215.5 74,-283.5 190,-283.5 190,-215.5 74,-215.5"/>
<text text-anchor="start" x="82" y="-271.5" font-family="Helvetica,sans-Serif" font-size="10.00">map&lt; t_branch_id, t</text>
<text text-anchor="middle" x="132" y="-260.5" font-family="Helvetica,sans-Serif" font-size="10.00">_branch_id_pair &gt;</text>
<polyline fill="none" stroke="#bfbfbf" points="74,-253.5 190,-253.5 "/>
<text text-anchor="middle" x="132" y="-241.5" font-family="Helvetica,sans-Serif" font-size="10.00"> </text>
<polyline fill="none" stroke="#bfbfbf" points="74,-234.5 190,-234.5 "/>
<text text-anchor="middle" x="132" y="-222.5" font-family="Helvetica,sans-Serif" font-size="10.00"> </text>
</a>
</g>
</g>
<!-- Node3&#45;&gt;Node1 -->
<g id="edge2" class="edge">
<title>Node3&#45;&gt;Node1</title>
<path fill="none" stroke="#404040" d="M121.48,-215.41C118.06,-204.66 114.08,-192.14 109.96,-179.19"/>
<polygon fill="none" stroke="#404040" points="109.95,-179.18 104.32,-174.67 106.32,-167.74 111.95,-172.25 109.95,-179.18"/>
<text text-anchor="middle" x="164.5" y="-189" font-family="Helvetica,sans-Serif" font-size="10.00"> +branches_relation</text>
</g>
</g>
</svg>
