<?xml version="1.0" encoding="UTF-8" standalone="no"?>
<!DOCTYPE svg PUBLIC "-//W3C//DTD SVG 1.1//EN"
 "http://www.w3.org/Graphics/SVG/1.1/DTD/svg11.dtd">
<!-- Generated by graphviz version 2.40.1 (20161225.0304)
 -->
<!-- Title: nlohmann::detail::type_error::create Pages: 1 -->
<svg width="614pt" height="946pt"
 viewBox="0.00 0.00 614.00 946.00" xmlns="http://www.w3.org/2000/svg" xmlns:xlink="http://www.w3.org/1999/xlink">
<g id="graph0" class="graph" transform="scale(1 1) rotate(0) translate(4 942)">
<title>nlohmann::detail::type_error::create</title>
<polygon fill="#ffffff" stroke="transparent" points="-4,4 -4,-942 610,-942 610,4 -4,4"/>
<!-- Node4 -->
<g id="node1" class="node">
<title>Node4</title>
<polygon fill="#bfbfbf" stroke="#000000" points="0,-458.5 0,-488.5 113,-488.5 113,-458.5 0,-458.5"/>
<text text-anchor="start" x="8" y="-476.5" font-family="Helvetica,sans-Serif" font-size="10.00" fill="#000000">nlohmann::detail::type</text>
<text text-anchor="middle" x="56.5" y="-465.5" font-family="Helvetica,sans-Serif" font-size="10.00" fill="#000000">_error::create</text>
</g>
<!-- Node5 -->
<g id="node2" class="node">
<title>Node5</title>
<g id="a_node2"><a xlink:href="namespacenlohmann_1_1detail.html#a1f0395aad0fe853a4539288749d3a603" target="_top" xlink:title="nlohmann::detail::from_json">
<polygon fill="#ffffff" stroke="#000000" points="149,-913 149,-932 286,-932 286,-913 149,-913"/>
<text text-anchor="middle" x="217.5" y="-920" font-family="Helvetica,sans-Serif" font-size="10.00" fill="#000000">nlohmann::detail::from_json</text>
</a>
</g>
</g>
<!-- Node4&#45;&gt;Node5 -->
<g id="edge1" class="edge">
<title>Node4&#45;&gt;Node5</title>
<path fill="none" stroke="#191970" d="M58.749,-498.8322C66.5362,-581.1186 94.8822,-839.0687 149,-899.5 154.1887,-905.2941 160.882,-909.6307 168.0468,-912.876"/>
<polygon fill="#191970" stroke="#191970" points="62.2314,-498.4793 57.8239,-488.8448 55.2612,-499.125 62.2314,-498.4793"/>
</g>
<!-- Node7 -->
<g id="node4" class="node">
<title>Node7</title>
<g id="a_node4"><a xlink:href="namespacenlohmann_1_1detail.html#a85955b9c6dd31846e4b8e891f78614b6" target="_top" xlink:title="nlohmann::detail::get\l_arithmetic_value">
<polygon fill="#ffffff" stroke="#000000" points="164,-859.5 164,-889.5 271,-889.5 271,-859.5 164,-859.5"/>
<text text-anchor="start" x="172" y="-877.5" font-family="Helvetica,sans-Serif" font-size="10.00" fill="#000000">nlohmann::detail::get</text>
<text text-anchor="middle" x="217.5" y="-866.5" font-family="Helvetica,sans-Serif" font-size="10.00" fill="#000000">_arithmetic_value</text>
</a>
</g>
</g>
<!-- Node4&#45;&gt;Node7 -->
<g id="edge3" class="edge">
<title>Node4&#45;&gt;Node7</title>
<path fill="none" stroke="#191970" d="M60.0467,-498.9546C70.8236,-573.2105 105.1461,-787.7173 149,-841.5 155.0896,-848.9683 163.2762,-854.8607 171.8688,-859.4687"/>
<polygon fill="#191970" stroke="#191970" points="63.4561,-498.0719 58.575,-488.6684 56.5267,-499.0633 63.4561,-498.0719"/>
</g>
<!-- Node9 -->
<g id="node6" class="node">
<title>Node9</title>
<g id="a_node6"><a xlink:href="namespacenlohmann_1_1detail.html#a59fca69799f6b9e366710cb9043aa77d" target="_top" xlink:title="nlohmann::detail::void">
<polygon fill="#ffffff" stroke="#000000" points="161.5,-813 161.5,-832 273.5,-832 273.5,-813 161.5,-813"/>
<text text-anchor="middle" x="217.5" y="-820" font-family="Helvetica,sans-Serif" font-size="10.00" fill="#000000">nlohmann::detail::void</text>
</a>
</g>
</g>
<!-- Node4&#45;&gt;Node9 -->
<g id="edge5" class="edge">
<title>Node4&#45;&gt;Node9</title>
<path fill="none" stroke="#191970" d="M60.5651,-498.4606C72.1291,-566.6601 107.0948,-754.0145 149,-798.5 154.9619,-804.829 162.6862,-809.4897 170.7899,-812.9218"/>
<polygon fill="#191970" stroke="#191970" points="64.014,-497.864 58.9126,-488.5782 57.1099,-499.0186 64.014,-497.864"/>
</g>
<!-- Node13 -->
<g id="node10" class="node">
<title>Node13</title>
<g id="a_node10"><a xlink:href="classnlohmann_1_1json__pointer.html#a583c726016f440ffe65553935c101ff5" target="_top" xlink:title="create and return a reference to the pointed to value ">
<polygon fill="#ffffff" stroke="#000000" points="159,-725.5 159,-755.5 276,-755.5 276,-725.5 159,-725.5"/>
<text text-anchor="start" x="167" y="-743.5" font-family="Helvetica,sans-Serif" font-size="10.00" fill="#000000">nlohmann::json_pointer</text>
<text text-anchor="middle" x="217.5" y="-732.5" font-family="Helvetica,sans-Serif" font-size="10.00" fill="#000000">::get_and_create</text>
</a>
</g>
</g>
<!-- Node4&#45;&gt;Node13 -->
<g id="edge9" class="edge">
<title>Node4&#45;&gt;Node13</title>
<path fill="none" stroke="#191970" d="M59.1236,-498.7266C65.5212,-547.5377 86.3066,-655.46 149,-716.5 152.5212,-719.9283 156.5593,-722.8691 160.8751,-725.3912"/>
<polygon fill="#191970" stroke="#191970" points="62.5875,-498.2169 57.907,-488.712 55.6386,-499.0611 62.5875,-498.2169"/>
</g>
<!-- Node14 -->
<g id="node11" class="node">
<title>Node14</title>
<g id="a_node11"><a xlink:href="classnlohmann_1_1json__pointer.html#a920065221e3c81676c3211c100d024a7" target="_top" xlink:title="nlohmann::json_pointer\l::unflatten">
<polygon fill="#ffffff" stroke="#000000" points="332,-721.5 332,-751.5 449,-751.5 449,-721.5 332,-721.5"/>
<text text-anchor="start" x="340" y="-739.5" font-family="Helvetica,sans-Serif" font-size="10.00" fill="#000000">nlohmann::json_pointer</text>
<text text-anchor="middle" x="390.5" y="-728.5" font-family="Helvetica,sans-Serif" font-size="10.00" fill="#000000">::unflatten</text>
</a>
</g>
</g>
<!-- Node4&#45;&gt;Node14 -->
<g id="edge12" class="edge">
<title>Node4&#45;&gt;Node14</title>
<path fill="none" stroke="#191970" d="M60.6372,-498.7887C71.8164,-563.6554 104.7904,-733.13 149,-765.5 198.1278,-801.4711 225.668,-773.7162 286,-765.5 306.2415,-762.7435 328.0966,-757.1142 346.5614,-751.5425"/>
<polygon fill="#191970" stroke="#191970" points="64.0373,-497.9039 58.9179,-488.628 57.1355,-499.0718 64.0373,-497.9039"/>
</g>
<!-- Node16 -->
<g id="node13" class="node">
<title>Node16</title>
<g id="a_node13"><a xlink:href="classnlohmann_1_1detail_1_1binary__writer.html#a9ffc566db5219b473762462234b47db9" target="_top" xlink:title="nlohmann::detail::binary\l_writer::write_bson">
<polygon fill="#ffffff" stroke="#000000" points="157.5,-676.5 157.5,-706.5 277.5,-706.5 277.5,-676.5 157.5,-676.5"/>
<text text-anchor="start" x="165.5" y="-694.5" font-family="Helvetica,sans-Serif" font-size="10.00" fill="#000000">nlohmann::detail::binary</text>
<text text-anchor="middle" x="217.5" y="-683.5" font-family="Helvetica,sans-Serif" font-size="10.00" fill="#000000">_writer::write_bson</text>
</a>
</g>
</g>
<!-- Node4&#45;&gt;Node16 -->
<g id="edge13" class="edge">
<title>Node4&#45;&gt;Node16</title>
<path fill="none" stroke="#191970" d="M61.8986,-498.7583C71.9541,-539.8348 97.3806,-621.171 149,-667.5 152.845,-670.9509 157.2154,-673.912 161.8443,-676.4518"/>
<polygon fill="#191970" stroke="#191970" points="65.247,-497.7058 59.5634,-488.7645 58.4306,-499.2986 65.247,-497.7058"/>
</g>
<!-- Node17 -->
<g id="node14" class="node">
<title>Node17</title>
<g id="a_node14"><a xlink:href="classnlohmann_1_1detail_1_1serializer.html#ac1f8d1165b44149bd8be397dce68ea05" target="_top" xlink:title="dump escaped string ">
<polygon fill="#ffffff" stroke="#000000" points="151,-627.5 151,-657.5 284,-657.5 284,-627.5 151,-627.5"/>
<text text-anchor="start" x="159" y="-645.5" font-family="Helvetica,sans-Serif" font-size="10.00" fill="#000000">nlohmann::detail::serializer</text>
<text text-anchor="middle" x="217.5" y="-634.5" font-family="Helvetica,sans-Serif" font-size="10.00" fill="#000000">::dump_escaped</text>
</a>
</g>
</g>
<!-- Node4&#45;&gt;Node17 -->
<g id="edge14" class="edge">
<title>Node4&#45;&gt;Node17</title>
<path fill="none" stroke="#191970" d="M66.1068,-498.0874C79.8377,-530.1728 108.0282,-586.0415 149,-618.5 153.346,-621.943 158.2216,-624.9114 163.3164,-627.4667"/>
<polygon fill="#191970" stroke="#191970" points="69.222,-496.4625 62.1589,-488.5656 62.7558,-499.1436 69.222,-496.4625"/>
</g>
<!-- Node18 -->
<g id="node15" class="node">
<title>Node18</title>
<g id="a_node15"><a xlink:href="classnlohmann_1_1basic__json.html#ab5dfd9a2b2663b219641cb7fe59b6da2" target="_top" xlink:title="create a container (array or object) from an initializer list ">
<polygon fill="#ffffff" stroke="#000000" points="162,-578.5 162,-608.5 273,-608.5 273,-578.5 162,-578.5"/>
<text text-anchor="start" x="170" y="-596.5" font-family="Helvetica,sans-Serif" font-size="10.00" fill="#000000">nlohmann::basic_json</text>
<text text-anchor="middle" x="217.5" y="-585.5" font-family="Helvetica,sans-Serif" font-size="10.00" fill="#000000">::basic_json</text>
</a>
</g>
</g>
<!-- Node4&#45;&gt;Node18 -->
<g id="edge15" class="edge">
<title>Node4&#45;&gt;Node18</title>
<path fill="none" stroke="#191970" d="M73.5345,-496.6046C90.5058,-518.1589 118.39,-549.8591 149,-569.5 154.3028,-572.9026 160.1473,-575.8915 166.1196,-578.4986"/>
<polygon fill="#191970" stroke="#191970" points="76.249,-494.3931 67.3721,-488.6093 70.7047,-498.6664 76.249,-494.3931"/>
</g>
<!-- Node19 -->
<g id="node16" class="node">
<title>Node19</title>
<g id="a_node16"><a xlink:href="classnlohmann_1_1basic__json.html#ac686d87a2261f85f1df97035b14a6e3a" target="_top" xlink:title="get a boolean (explicit) ">
<polygon fill="#ffffff" stroke="#000000" points="162,-529.5 162,-559.5 273,-559.5 273,-529.5 162,-529.5"/>
<text text-anchor="start" x="170" y="-547.5" font-family="Helvetica,sans-Serif" font-size="10.00" fill="#000000">nlohmann::basic_json</text>
<text text-anchor="middle" x="217.5" y="-536.5" font-family="Helvetica,sans-Serif" font-size="10.00" fill="#000000">::get_impl</text>
</a>
</g>
</g>
<!-- Node4&#45;&gt;Node19 -->
<g id="edge16" class="edge">
<title>Node4&#45;&gt;Node19</title>
<path fill="none" stroke="#191970" d="M92.9173,-493.4186C109.7395,-502.2506 130.1301,-512.4427 149,-520.5 156.301,-523.6175 164.1571,-526.6541 171.8528,-529.4608"/>
<polygon fill="#191970" stroke="#191970" points="94.4454,-490.2673 83.971,-488.6741 91.1657,-496.4515 94.4454,-490.2673"/>
</g>
<!-- Node20 -->
<g id="node17" class="node">
<title>Node20</title>
<g id="a_node17"><a xlink:href="classnlohmann_1_1basic__json.html#a040a5feb1eb48da9134924217b25bcf6" target="_top" xlink:title="helper function to implement get_ref() ">
<polygon fill="#ffffff" stroke="#000000" points="162,-480.5 162,-510.5 273,-510.5 273,-480.5 162,-480.5"/>
<text text-anchor="start" x="170" y="-498.5" font-family="Helvetica,sans-Serif" font-size="10.00" fill="#000000">nlohmann::basic_json</text>
<text text-anchor="middle" x="217.5" y="-487.5" font-family="Helvetica,sans-Serif" font-size="10.00" fill="#000000">::get_ref_impl</text>
</a>
</g>
</g>
<!-- Node4&#45;&gt;Node20 -->
<g id="edge17" class="edge">
<title>Node4&#45;&gt;Node20</title>
<path fill="none" stroke="#191970" d="M123.3833,-482.6393C136.1609,-484.3853 149.4099,-486.1958 161.7917,-487.8877"/>
<polygon fill="#191970" stroke="#191970" points="123.6444,-479.1426 113.2626,-481.2564 122.6966,-486.0781 123.6444,-479.1426"/>
</g>
<!-- Node21 -->
<g id="node18" class="node">
<title>Node21</title>
<g id="a_node18"><a xlink:href="classnlohmann_1_1basic__json.html#a73ae333487310e3302135189ce8ff5d8" target="_top" xlink:title="access specified array element with bounds checking ">
<polygon fill="#ffffff" stroke="#000000" points="155,-442 155,-461 280,-461 280,-442 155,-442"/>
<text text-anchor="middle" x="217.5" y="-449" font-family="Helvetica,sans-Serif" font-size="10.00" fill="#000000">nlohmann::basic_json::at</text>
</a>
</g>
</g>
<!-- Node4&#45;&gt;Node21 -->
<g id="edge18" class="edge">
<title>Node4&#45;&gt;Node21</title>
<path fill="none" stroke="#191970" d="M123.211,-464.3842C133.7159,-462.9488 144.5437,-461.4692 154.9498,-460.0472"/>
<polygon fill="#191970" stroke="#191970" points="122.6966,-460.9219 113.2626,-465.7436 123.6444,-467.8574 122.6966,-460.9219"/>
</g>
<!-- Node25 -->
<g id="node22" class="node">
<title>Node25</title>
<g id="a_node22"><a xlink:href="classnlohmann_1_1basic__json.html#ac871e3b03fb2eeca9a8de4db2bea760f" target="_top" xlink:title="access specified array element ">
<polygon fill="#ffffff" stroke="#000000" points="162,-245.5 162,-275.5 273,-275.5 273,-245.5 162,-245.5"/>
<text text-anchor="start" x="170" y="-263.5" font-family="Helvetica,sans-Serif" font-size="10.00" fill="#000000">nlohmann::basic_json</text>
<text text-anchor="middle" x="217.5" y="-252.5" font-family="Helvetica,sans-Serif" font-size="10.00" fill="#000000">::operator[]</text>
</a>
</g>
</g>
<!-- Node4&#45;&gt;Node25 -->
<g id="edge22" class="edge">
<title>Node4&#45;&gt;Node25</title>
<path fill="none" stroke="#191970" d="M62.1667,-448.5874C72.5473,-408.4642 98.356,-329.4881 149,-284.5 152.8626,-281.0688 157.2449,-278.1211 161.8815,-275.5899"/>
<polygon fill="#191970" stroke="#191970" points="58.7528,-447.813 59.7467,-458.3611 65.5476,-449.4955 58.7528,-447.813"/>
</g>
<!-- Node26 -->
<g id="node23" class="node">
<title>Node26</title>
<g id="a_node23"><a xlink:href="classnlohmann_1_1basic__json.html#adcf8ca5079f5db993820bf50036bf45d" target="_top" xlink:title="access specified object element with default value ">
<polygon fill="#ffffff" stroke="#000000" points="162,-196.5 162,-226.5 273,-226.5 273,-196.5 162,-196.5"/>
<text text-anchor="start" x="170" y="-214.5" font-family="Helvetica,sans-Serif" font-size="10.00" fill="#000000">nlohmann::basic_json</text>
<text text-anchor="middle" x="217.5" y="-203.5" font-family="Helvetica,sans-Serif" font-size="10.00" fill="#000000">::value</text>
</a>
</g>
</g>
<!-- Node4&#45;&gt;Node26 -->
<g id="edge23" class="edge">
<title>Node4&#45;&gt;Node26</title>
<path fill="none" stroke="#191970" d="M59.3767,-448.1346C66.1583,-400.01 87.5011,-294.9613 149,-235.5 152.8049,-231.8212 157.205,-228.7035 161.9028,-226.0619"/>
<polygon fill="#191970" stroke="#191970" points="55.8742,-447.9259 58.0449,-458.2959 62.8149,-448.8356 55.8742,-447.9259"/>
</g>
<!-- Node27 -->
<g id="node24" class="node">
<title>Node27</title>
<g id="a_node24"><a xlink:href="classnlohmann_1_1basic__json.html#a068a16e76be178e83da6a192916923ed" target="_top" xlink:title="remove element given an iterator ">
<polygon fill="#ffffff" stroke="#000000" points="162,-392.5 162,-422.5 273,-422.5 273,-392.5 162,-392.5"/>
<text text-anchor="start" x="170" y="-410.5" font-family="Helvetica,sans-Serif" font-size="10.00" fill="#000000">nlohmann::basic_json</text>
<text text-anchor="middle" x="217.5" y="-399.5" font-family="Helvetica,sans-Serif" font-size="10.00" fill="#000000">::erase</text>
</a>
</g>
</g>
<!-- Node4&#45;&gt;Node27 -->
<g id="edge24" class="edge">
<title>Node4&#45;&gt;Node27</title>
<path fill="none" stroke="#191970" d="M98.6751,-454.0903C114.3751,-447.0546 132.4078,-439.1962 149,-432.5 157.3352,-429.1362 166.3159,-425.7152 174.943,-422.5276"/>
<polygon fill="#191970" stroke="#191970" points="96.9122,-451.0457 89.2348,-458.3469 99.7896,-457.427 96.9122,-451.0457"/>
</g>
<!-- Node28 -->
<g id="node25" class="node">
<title>Node28</title>
<g id="a_node25"><a xlink:href="classnlohmann_1_1basic__json.html#ac8e523ddc8c2dd7e5d2daf0d49a9c0d7" target="_top" xlink:title="add an object to an array ">
<polygon fill="#ffffff" stroke="#000000" points="162,-294.5 162,-324.5 273,-324.5 273,-294.5 162,-294.5"/>
<text text-anchor="start" x="170" y="-312.5" font-family="Helvetica,sans-Serif" font-size="10.00" fill="#000000">nlohmann::basic_json</text>
<text text-anchor="middle" x="217.5" y="-301.5" font-family="Helvetica,sans-Serif" font-size="10.00" fill="#000000">::push_back</text>
</a>
</g>
</g>
<!-- Node4&#45;&gt;Node28 -->
<g id="edge26" class="edge">
<title>Node4&#45;&gt;Node28</title>
<path fill="none" stroke="#191970" d="M66.7676,-448.7971C80.898,-417.6758 109.1895,-364.5226 149,-333.5 153.3734,-330.092 158.2671,-327.1465 163.3729,-324.6052"/>
<polygon fill="#191970" stroke="#191970" points="63.5106,-447.5089 62.6808,-458.0712 69.9162,-450.3317 63.5106,-447.5089"/>
</g>
<!-- Node31 -->
<g id="node28" class="node">
<title>Node31</title>
<g id="a_node28"><a xlink:href="classnlohmann_1_1basic__json.html#aacf5eed15a8b66fb1e88910707a5e229" target="_top" xlink:title="add an object to an array ">
<polygon fill="#ffffff" stroke="#000000" points="162,-147.5 162,-177.5 273,-177.5 273,-147.5 162,-147.5"/>
<text text-anchor="start" x="170" y="-165.5" font-family="Helvetica,sans-Serif" font-size="10.00" fill="#000000">nlohmann::basic_json</text>
<text text-anchor="middle" x="217.5" y="-154.5" font-family="Helvetica,sans-Serif" font-size="10.00" fill="#000000">::emplace_back</text>
</a>
</g>
</g>
<!-- Node4&#45;&gt;Node31 -->
<g id="edge31" class="edge">
<title>Node4&#45;&gt;Node31</title>
<path fill="none" stroke="#191970" d="M61.5648,-448.5627C74.7106,-386.0547 111.5143,-224.9429 149,-186.5 152.6949,-182.7108 157.0212,-179.5189 161.6722,-176.8303"/>
<polygon fill="#191970" stroke="#191970" points="58.133,-447.8754 59.5253,-458.3783 64.9866,-449.2995 58.133,-447.8754"/>
</g>
<!-- Node32 -->
<g id="node29" class="node">
<title>Node32</title>
<g id="a_node29"><a xlink:href="classnlohmann_1_1basic__json.html#a5338e282d1d02bed389d852dd670d98d" target="_top" xlink:title="add an object to an object if key does not exist ">
<polygon fill="#ffffff" stroke="#000000" points="162,-98.5 162,-128.5 273,-128.5 273,-98.5 162,-98.5"/>
<text text-anchor="start" x="170" y="-116.5" font-family="Helvetica,sans-Serif" font-size="10.00" fill="#000000">nlohmann::basic_json</text>
<text text-anchor="middle" x="217.5" y="-105.5" font-family="Helvetica,sans-Serif" font-size="10.00" fill="#000000">::emplace</text>
</a>
</g>
</g>
<!-- Node4&#45;&gt;Node32 -->
<g id="edge32" class="edge">
<title>Node4&#45;&gt;Node32</title>
<path fill="none" stroke="#191970" d="M60.3726,-448.1821C71.5579,-378.0978 105.8817,-183.6713 149,-137.5 152.6983,-133.5399 157.0868,-130.2329 161.8294,-127.4716"/>
<polygon fill="#191970" stroke="#191970" points="56.8743,-447.8986 58.7783,-458.3209 63.7893,-448.986 56.8743,-447.8986"/>
</g>
<!-- Node33 -->
<g id="node30" class="node">
<title>Node33</title>
<g id="a_node30"><a xlink:href="classnlohmann_1_1basic__json.html#a0136728f5db69d4051c77b94307abd6c" target="_top" xlink:title="inserts element ">
<polygon fill="#ffffff" stroke="#000000" points="162,-343.5 162,-373.5 273,-373.5 273,-343.5 162,-343.5"/>
<text text-anchor="start" x="170" y="-361.5" font-family="Helvetica,sans-Serif" font-size="10.00" fill="#000000">nlohmann::basic_json</text>
<text text-anchor="middle" x="217.5" y="-350.5" font-family="Helvetica,sans-Serif" font-size="10.00" fill="#000000">::insert</text>
</a>
</g>
</g>
<!-- Node4&#45;&gt;Node33 -->
<g id="edge33" class="edge">
<title>Node4&#45;&gt;Node33</title>
<path fill="none" stroke="#191970" d="M75.0004,-450.6881C92.3103,-430.6222 119.8165,-401.83 149,-383.5 155.0034,-379.7293 161.6582,-376.412 168.3921,-373.5301"/>
<polygon fill="#191970" stroke="#191970" points="72.2339,-448.5393 68.4487,-458.435 77.5787,-453.0597 72.2339,-448.5393"/>
</g>
<!-- Node34 -->
<g id="node31" class="node">
<title>Node34</title>
<g id="a_node31"><a xlink:href="classnlohmann_1_1basic__json.html#a1cfa9ae5e7c2434cab4cfe69bffffe11" target="_top" xlink:title="updates a JSON object from another object, overwriting existing keys ">
<polygon fill="#ffffff" stroke="#000000" points="162,-49.5 162,-79.5 273,-79.5 273,-49.5 162,-49.5"/>
<text text-anchor="start" x="170" y="-67.5" font-family="Helvetica,sans-Serif" font-size="10.00" fill="#000000">nlohmann::basic_json</text>
<text text-anchor="middle" x="217.5" y="-56.5" font-family="Helvetica,sans-Serif" font-size="10.00" fill="#000000">::update</text>
</a>
</g>
</g>
<!-- Node4&#45;&gt;Node34 -->
<g id="edge36" class="edge">
<title>Node4&#45;&gt;Node34</title>
<path fill="none" stroke="#191970" d="M59.4196,-448.1576C68.7505,-371.266 100.1313,-142.5829 149,-88.5 152.6327,-84.4796 156.9777,-81.1327 161.6932,-78.3465"/>
<polygon fill="#191970" stroke="#191970" points="55.9115,-448.0181 58.2034,-458.3621 62.8623,-448.8466 55.9115,-448.0181"/>
</g>
<!-- Node35 -->
<g id="node32" class="node">
<title>Node35</title>
<g id="a_node32"><a xlink:href="classnlohmann_1_1basic__json.html#a65b0a24e1361a030ad0a661de22f6c8e" target="_top" xlink:title="exchanges the values ">
<polygon fill="#ffffff" stroke="#000000" points="162,-.5 162,-30.5 273,-30.5 273,-.5 162,-.5"/>
<text text-anchor="start" x="170" y="-18.5" font-family="Helvetica,sans-Serif" font-size="10.00" fill="#000000">nlohmann::basic_json</text>
<text text-anchor="middle" x="217.5" y="-7.5" font-family="Helvetica,sans-Serif" font-size="10.00" fill="#000000">::swap</text>
</a>
</g>
</g>
<!-- Node4&#45;&gt;Node35 -->
<g id="edge37" class="edge">
<title>Node4&#45;&gt;Node35</title>
<path fill="none" stroke="#191970" d="M58.6622,-448.2828C66.2649,-365.1674 94.3108,-101.6168 149,-39.5 152.6639,-35.3385 157.0918,-31.8986 161.913,-29.0551"/>
<polygon fill="#191970" stroke="#191970" points="55.1665,-448.0801 57.7612,-458.3522 62.1386,-448.704 55.1665,-448.0801"/>
</g>
<!-- Node6 -->
<g id="node3" class="node">
<title>Node6</title>
<g id="a_node3"><a xlink:href="structnlohmann_1_1detail_1_1from__json__fn.html#a6d14a74e1043072c77892534572d2973" target="_top" xlink:title="nlohmann::detail::from\l_json_fn::operator()">
<polygon fill="#ffffff" stroke="#000000" points="334,-907.5 334,-937.5 447,-937.5 447,-907.5 334,-907.5"/>
<text text-anchor="start" x="342" y="-925.5" font-family="Helvetica,sans-Serif" font-size="10.00" fill="#000000">nlohmann::detail::from</text>
<text text-anchor="middle" x="390.5" y="-914.5" font-family="Helvetica,sans-Serif" font-size="10.00" fill="#000000">_json_fn::operator()</text>
</a>
</g>
</g>
<!-- Node5&#45;&gt;Node6 -->
<g id="edge2" class="edge">
<title>Node5&#45;&gt;Node6</title>
<path fill="none" stroke="#191970" d="M296.4169,-922.5C309.0267,-922.5 321.8531,-922.5 333.8131,-922.5"/>
<polygon fill="#191970" stroke="#191970" points="296.3713,-919.0001 286.3713,-922.5 296.3712,-926.0001 296.3713,-919.0001"/>
</g>
<!-- Node8 -->
<g id="node5" class="node">
<title>Node8</title>
<g id="a_node5"><a xlink:href="namespacenlohmann_1_1detail.html#a7cb5dd7d46a60e65f9a8e0873b3f7dd8" target="_top" xlink:title="nlohmann::detail::from_json">
<polygon fill="#ffffff" stroke="#000000" points="322,-869 322,-888 459,-888 459,-869 322,-869"/>
<text text-anchor="middle" x="390.5" y="-876" font-family="Helvetica,sans-Serif" font-size="10.00" fill="#000000">nlohmann::detail::from_json</text>
</a>
</g>
</g>
<!-- Node7&#45;&gt;Node8 -->
<g id="edge4" class="edge">
<title>Node7&#45;&gt;Node8</title>
<path fill="none" stroke="#191970" d="M281.6033,-875.9822C294.6908,-876.2848 308.513,-876.6043 321.755,-876.9105"/>
<polygon fill="#191970" stroke="#191970" points="281.3682,-872.4759 271.29,-875.7437 281.2064,-879.474 281.3682,-872.4759"/>
</g>
<!-- Node10 -->
<g id="node7" class="node">
<title>Node10</title>
<g id="a_node7"><a xlink:href="classnlohmann_1_1detail_1_1binary__reader.html#aed84f0302eb232d3b69f7653bef2337a" target="_top" xlink:title="create a binary reader ">
<polygon fill="#ffffff" stroke="#000000" points="330.5,-770.5 330.5,-800.5 450.5,-800.5 450.5,-770.5 330.5,-770.5"/>
<text text-anchor="start" x="338.5" y="-788.5" font-family="Helvetica,sans-Serif" font-size="10.00" fill="#000000">nlohmann::detail::binary</text>
<text text-anchor="middle" x="390.5" y="-777.5" font-family="Helvetica,sans-Serif" font-size="10.00" fill="#000000">_reader::binary_reader</text>
</a>
</g>
</g>
<!-- Node9&#45;&gt;Node10 -->
<g id="edge6" class="edge">
<title>Node9&#45;&gt;Node10</title>
<path fill="none" stroke="#191970" d="M271.8425,-810.8776C290.4632,-806.8952 311.4021,-802.4169 330.4482,-798.3434"/>
<polygon fill="#191970" stroke="#191970" points="271.0986,-807.4575 262.0518,-812.9716 272.5627,-814.3027 271.0986,-807.4575"/>
</g>
<!-- Node11 -->
<g id="node8" class="node">
<title>Node11</title>
<g id="a_node8"><a xlink:href="classnlohmann_1_1detail_1_1parser.html#a14e34931965064b26e118eb72cbd5e25" target="_top" xlink:title="nlohmann::detail::parser\l::sax_parse">
<polygon fill="#ffffff" stroke="#000000" points="330,-819.5 330,-849.5 451,-849.5 451,-819.5 330,-819.5"/>
<text text-anchor="start" x="338" y="-837.5" font-family="Helvetica,sans-Serif" font-size="10.00" fill="#000000">nlohmann::detail::parser</text>
<text text-anchor="middle" x="390.5" y="-826.5" font-family="Helvetica,sans-Serif" font-size="10.00" fill="#000000">::sax_parse</text>
</a>
</g>
</g>
<!-- Node9&#45;&gt;Node11 -->
<g id="edge7" class="edge">
<title>Node9&#45;&gt;Node11</title>
<path fill="none" stroke="#191970" d="M283.9549,-827.1096C299.0476,-828.1565 315.0018,-829.2631 329.8392,-830.2923"/>
<polygon fill="#191970" stroke="#191970" points="283.8864,-823.5965 273.6681,-826.3961 283.4019,-830.5797 283.8864,-823.5965"/>
</g>
<!-- Node12 -->
<g id="node9" class="node">
<title>Node12</title>
<g id="a_node9"><a xlink:href="classnlohmann_1_1basic__json.html#a8a3dd150c2d1f0df3502d937de0871db" target="_top" xlink:title="generate SAX events ">
<polygon fill="#ffffff" stroke="#000000" points="495,-819.5 495,-849.5 606,-849.5 606,-819.5 495,-819.5"/>
<text text-anchor="start" x="503" y="-837.5" font-family="Helvetica,sans-Serif" font-size="10.00" fill="#000000">nlohmann::basic_json</text>
<text text-anchor="middle" x="550.5" y="-826.5" font-family="Helvetica,sans-Serif" font-size="10.00" fill="#000000">::sax_parse</text>
</a>
</g>
</g>
<!-- Node11&#45;&gt;Node12 -->
<g id="edge8" class="edge">
<title>Node11&#45;&gt;Node12</title>
<path fill="none" stroke="#191970" d="M461.6217,-834.5C472.8018,-834.5 484.216,-834.5 494.9765,-834.5"/>
<polygon fill="#191970" stroke="#191970" points="461.4456,-831.0001 451.4456,-834.5 461.4455,-838.0001 461.4456,-831.0001"/>
</g>
<!-- Node13&#45;&gt;Node14 -->
<g id="edge10" class="edge">
<title>Node13&#45;&gt;Node14</title>
<path fill="none" stroke="#191970" d="M286.3829,-738.9073C301.4868,-738.5581 317.339,-738.1916 331.9904,-737.8528"/>
<polygon fill="#191970" stroke="#191970" points="285.9863,-735.4155 276.0699,-739.1458 286.1482,-742.4136 285.9863,-735.4155"/>
</g>
<!-- Node15 -->
<g id="node12" class="node">
<title>Node15</title>
<g id="a_node12"><a xlink:href="classnlohmann_1_1basic__json.html#a74fa3ab2003f2f6f2b69deaafed9126d" target="_top" xlink:title="unflatten a previously flattened JSON value ">
<polygon fill="#ffffff" stroke="#000000" points="495,-721.5 495,-751.5 606,-751.5 606,-721.5 495,-721.5"/>
<text text-anchor="start" x="503" y="-739.5" font-family="Helvetica,sans-Serif" font-size="10.00" fill="#000000">nlohmann::basic_json</text>
<text text-anchor="middle" x="550.5" y="-728.5" font-family="Helvetica,sans-Serif" font-size="10.00" fill="#000000">::unflatten</text>
</a>
</g>
</g>
<!-- Node14&#45;&gt;Node15 -->
<g id="edge11" class="edge">
<title>Node14&#45;&gt;Node15</title>
<path fill="none" stroke="#191970" d="M459.4304,-736.5C471.2327,-736.5 483.3627,-736.5 494.7661,-736.5"/>
<polygon fill="#191970" stroke="#191970" points="459.1696,-733.0001 449.1696,-736.5 459.1695,-740.0001 459.1696,-733.0001"/>
</g>
<!-- Node22 -->
<g id="node19" class="node">
<title>Node22</title>
<g id="a_node19"><a xlink:href="namespaceRiver.html#ab2e6cbc1f3bbe0e9879ff60bb4a6df3c" target="_top" xlink:title="River::Open">
<polygon fill="#ffffff" stroke="#000000" points="356,-441 356,-460 425,-460 425,-441 356,-441"/>
<text text-anchor="middle" x="390.5" y="-448" font-family="Helvetica,sans-Serif" font-size="10.00" fill="#000000">River::Open</text>
</a>
</g>
</g>
<!-- Node21&#45;&gt;Node22 -->
<g id="edge19" class="edge">
<title>Node21&#45;&gt;Node22</title>
<path fill="none" stroke="#191970" d="M290.6633,-451.0771C313.1376,-450.9472 336.8427,-450.8102 355.512,-450.7022"/>
<polygon fill="#191970" stroke="#191970" points="290.4259,-447.5783 280.4464,-451.1361 290.4665,-454.5782 290.4259,-447.5783"/>
</g>
<!-- Node24 -->
<g id="node21" class="node">
<title>Node24</title>
<g id="a_node21"><a xlink:href="classnlohmann_1_1basic__json.html#a81e0c41a4a9dff4df2f6973f7f8b2a83" target="_top" xlink:title="applies a JSON patch ">
<polygon fill="#ffffff" stroke="#000000" points="335,-391.5 335,-421.5 446,-421.5 446,-391.5 335,-391.5"/>
<text text-anchor="start" x="343" y="-409.5" font-family="Helvetica,sans-Serif" font-size="10.00" fill="#000000">nlohmann::basic_json</text>
<text text-anchor="middle" x="390.5" y="-398.5" font-family="Helvetica,sans-Serif" font-size="10.00" fill="#000000">::patch</text>
</a>
</g>
</g>
<!-- Node21&#45;&gt;Node24 -->
<g id="edge21" class="edge">
<title>Node21&#45;&gt;Node24</title>
<path fill="none" stroke="#191970" d="M263.8784,-439.4363C285.6975,-433.7608 311.8917,-426.9473 334.7796,-420.9937"/>
<polygon fill="#191970" stroke="#191970" points="262.9857,-436.0519 254.1889,-441.9567 264.7479,-442.8265 262.9857,-436.0519"/>
</g>
<!-- Node23 -->
<g id="node20" class="node">
<title>Node23</title>
<g id="a_node20"><a xlink:href="main_8cpp.html#a0ddf1224851353fc92bfbff6f499fa97" target="_top" xlink:title="Entry point of RiverSim program. ">
<polygon fill="#ffffff" stroke="#000000" points="531.5,-372 531.5,-391 569.5,-391 569.5,-372 531.5,-372"/>
<text text-anchor="middle" x="550.5" y="-379" font-family="Helvetica,sans-Serif" font-size="10.00" fill="#000000">main</text>
</a>
</g>
</g>
<!-- Node22&#45;&gt;Node23 -->
<g id="edge20" class="edge">
<title>Node22&#45;&gt;Node23</title>
<path fill="none" stroke="#191970" d="M434.9133,-439.7866C443.0368,-437.3763 451.3573,-434.6 459,-431.5 487.182,-420.0688 517.7809,-402.1079 535.4875,-391.1105"/>
<polygon fill="#191970" stroke="#191970" points="433.8322,-436.455 425.1607,-442.5424 435.7357,-443.1912 433.8322,-436.455"/>
</g>
<!-- Node27&#45;&gt;Node24 -->
<g id="edge25" class="edge">
<title>Node27&#45;&gt;Node24</title>
<path fill="none" stroke="#191970" d="M283.5703,-407.1181C300.5113,-407.0202 318.5612,-406.9158 334.9138,-406.8213"/>
<polygon fill="#191970" stroke="#191970" points="283.1701,-403.6202 273.1906,-407.1781 283.2107,-410.6201 283.1701,-403.6202"/>
</g>
<!-- Node28&#45;&gt;Node24 -->
<g id="edge29" class="edge">
<title>Node28&#45;&gt;Node24</title>
<path fill="none" stroke="#191970" d="M279.5859,-329.262C281.8065,-330.5904 283.9541,-332.0015 286,-333.5 307.5136,-349.2568 300.5888,-365.6043 322,-381.5 327.184,-385.3486 333.0211,-388.656 339.0454,-391.485"/>
<polygon fill="#191970" stroke="#191970" points="281.1908,-326.1514 270.7193,-324.5395 277.9001,-332.3297 281.1908,-326.1514"/>
</g>
<!-- Node29 -->
<g id="node26" class="node">
<title>Node29</title>
<g id="a_node26"><a xlink:href="namespaceRiver.html#a656cc47cfdf989114a9fcad489904f75" target="_top" xlink:title="River::Save">
<polygon fill="#ffffff" stroke="#000000" points="356.5,-302 356.5,-321 424.5,-321 424.5,-302 356.5,-302"/>
<text text-anchor="middle" x="390.5" y="-309" font-family="Helvetica,sans-Serif" font-size="10.00" fill="#000000">River::Save</text>
</a>
</g>
</g>
<!-- Node28&#45;&gt;Node29 -->
<g id="edge27" class="edge">
<title>Node28&#45;&gt;Node29</title>
<path fill="none" stroke="#191970" d="M283.3151,-310.2609C308.2007,-310.5486 335.5127,-310.8643 356.3385,-311.1051"/>
<polygon fill="#191970" stroke="#191970" points="283.2304,-306.7598 273.1906,-310.1438 283.1494,-313.7593 283.2304,-306.7598"/>
</g>
<!-- Node30 -->
<g id="node27" class="node">
<title>Node30</title>
<g id="a_node27"><a xlink:href="classnlohmann_1_1basic__json.html#a4336103c941d9f60bd51320f4880e3dd" target="_top" xlink:title="creates a diff as a JSON patch ">
<polygon fill="#ffffff" stroke="#000000" points="335,-341.5 335,-371.5 446,-371.5 446,-341.5 335,-341.5"/>
<text text-anchor="start" x="343" y="-359.5" font-family="Helvetica,sans-Serif" font-size="10.00" fill="#000000">nlohmann::basic_json</text>
<text text-anchor="middle" x="390.5" y="-348.5" font-family="Helvetica,sans-Serif" font-size="10.00" fill="#000000">::diff</text>
</a>
</g>
</g>
<!-- Node28&#45;&gt;Node30 -->
<g id="edge30" class="edge">
<title>Node28&#45;&gt;Node30</title>
<path fill="none" stroke="#191970" d="M282.7304,-327.2216C300.0182,-331.9182 318.5145,-336.9432 335.2172,-341.481"/>
<polygon fill="#191970" stroke="#191970" points="283.2818,-323.7445 272.7139,-324.5003 281.4465,-330.4997 283.2818,-323.7445"/>
</g>
<!-- Node29&#45;&gt;Node23 -->
<g id="edge28" class="edge">
<title>Node29&#45;&gt;Node23</title>
<path fill="none" stroke="#191970" d="M434.6405,-322.8599C442.8474,-325.4003 451.2676,-328.3026 459,-331.5 487.1042,-343.1212 517.7274,-361.0228 535.4599,-371.9569"/>
<polygon fill="#191970" stroke="#191970" points="435.3784,-319.4282 424.7962,-319.9451 433.391,-326.1402 435.3784,-319.4282"/>
</g>
<!-- Node33&#45;&gt;Node24 -->
<g id="edge34" class="edge">
<title>Node33&#45;&gt;Node24</title>
<path fill="none" stroke="#191970" d="M281.612,-376.2883C299.6363,-381.2893 319.0533,-386.6766 336.4289,-391.4976"/>
<polygon fill="#191970" stroke="#191970" points="282.3354,-372.8568 271.7636,-373.5558 280.4638,-379.602 282.3354,-372.8568"/>
</g>
<!-- Node33&#45;&gt;Node30 -->
<g id="edge35" class="edge">
<title>Node33&#45;&gt;Node30</title>
<path fill="none" stroke="#191970" d="M283.5703,-357.7362C300.5113,-357.5403 318.5612,-357.3317 334.9138,-357.1426"/>
<polygon fill="#191970" stroke="#191970" points="283.1494,-354.2407 273.1906,-357.8562 283.2304,-361.2403 283.1494,-354.2407"/>
</g>
</g>
</svg>
