<?xml version="1.0" encoding="UTF-8" standalone="no"?>
<!DOCTYPE svg PUBLIC "-//W3C//DTD SVG 1.1//EN"
 "http://www.w3.org/Graphics/SVG/1.1/DTD/svg11.dtd">
<!-- Generated by graphviz version 2.40.1 (20161225.0304)
 -->
<!-- Title: nlohmann::detail::parser&lt; BasicJsonType &gt; Pages: 1 -->
<svg width="430pt" height="248pt"
 viewBox="0.00 0.00 429.50 248.00" xmlns="http://www.w3.org/2000/svg" xmlns:xlink="http://www.w3.org/1999/xlink">
<g id="graph0" class="graph" transform="scale(1 1) rotate(0) translate(4 244)">
<title>nlohmann::detail::parser&lt; BasicJsonType &gt;</title>
<polygon fill="#ffffff" stroke="transparent" points="-4,4 -4,-244 425.5,-244 425.5,4 -4,4"/>
<!-- Node1 -->
<g id="node1" class="node">
<title>Node1</title>
<polygon fill="#bfbfbf" stroke="#000000" points="181,-.5 181,-134.5 302,-134.5 302,-.5 181,-.5"/>
<text text-anchor="start" x="189" y="-122.5" font-family="Helvetica,sans-Serif" font-size="10.00" fill="#000000">nlohmann::detail::parser</text>
<text text-anchor="middle" x="241.5" y="-111.5" font-family="Helvetica,sans-Serif" font-size="10.00" fill="#000000">&lt; BasicJsonType &gt;</text>
<polyline fill="none" stroke="#000000" points="181,-104.5 302,-104.5 "/>
<text text-anchor="middle" x="241.5" y="-92.5" font-family="Helvetica,sans-Serif" font-size="10.00" fill="#000000"> </text>
<polyline fill="none" stroke="#000000" points="181,-85.5 302,-85.5 "/>
<text text-anchor="start" x="189" y="-73.5" font-family="Helvetica,sans-Serif" font-size="10.00" fill="#000000">+ parser()</text>
<text text-anchor="start" x="189" y="-62.5" font-family="Helvetica,sans-Serif" font-size="10.00" fill="#000000">+ parse()</text>
<text text-anchor="start" x="189" y="-51.5" font-family="Helvetica,sans-Serif" font-size="10.00" fill="#000000">+ accept()</text>
<text text-anchor="start" x="189" y="-40.5" font-family="Helvetica,sans-Serif" font-size="10.00" fill="#000000">+ sax_parse()</text>
<text text-anchor="start" x="189" y="-29.5" font-family="Helvetica,sans-Serif" font-size="10.00" fill="#000000">&#45; sax_parse_internal()</text>
<text text-anchor="start" x="189" y="-18.5" font-family="Helvetica,sans-Serif" font-size="10.00" fill="#000000">&#45; get_token()</text>
<text text-anchor="start" x="189" y="-7.5" font-family="Helvetica,sans-Serif" font-size="10.00" fill="#000000">&#45; exception_message()</text>
</g>
<!-- Node2 -->
<g id="node2" class="node">
<title>Node2</title>
<polygon fill="#ffffff" stroke="#bfbfbf" points="0,-182.5 0,-239.5 123,-239.5 123,-182.5 0,-182.5"/>
<text text-anchor="middle" x="61.5" y="-227.5" font-family="Helvetica,sans-Serif" font-size="10.00" fill="#000000">lexer&lt; BasicJsonType &gt;</text>
<polyline fill="none" stroke="#bfbfbf" points="0,-220.5 123,-220.5 "/>
<text text-anchor="middle" x="61.5" y="-208.5" font-family="Helvetica,sans-Serif" font-size="10.00" fill="#000000"> </text>
<polyline fill="none" stroke="#bfbfbf" points="0,-201.5 123,-201.5 "/>
<text text-anchor="middle" x="61.5" y="-189.5" font-family="Helvetica,sans-Serif" font-size="10.00" fill="#000000"> </text>
</g>
<!-- Node2&#45;&gt;Node1 -->
<g id="edge1" class="edge">
<title>Node2&#45;&gt;Node1</title>
<path fill="none" stroke="#404040" d="M97.4931,-182.3055C118.5988,-165.4796 145.9925,-143.6407 171.2139,-123.5336"/>
<polygon fill="none" stroke="#404040" points="171.3731,-123.4067 173.5712,-116.5388 180.7563,-115.9262 178.5582,-122.7942 171.3731,-123.4067"/>
<text text-anchor="middle" x="151" y="-156" font-family="Helvetica,sans-Serif" font-size="10.00" fill="#000000"> &#45;m_lexer</text>
</g>
<!-- Node3 -->
<g id="node3" class="node">
<title>Node3</title>
<polygon fill="#ffffff" stroke="#bfbfbf" points="141.5,-182.5 141.5,-239.5 261.5,-239.5 261.5,-182.5 141.5,-182.5"/>
<text text-anchor="middle" x="201.5" y="-227.5" font-family="Helvetica,sans-Serif" font-size="10.00" fill="#000000">const parser_callback_t</text>
<polyline fill="none" stroke="#bfbfbf" points="141.5,-220.5 261.5,-220.5 "/>
<text text-anchor="middle" x="201.5" y="-208.5" font-family="Helvetica,sans-Serif" font-size="10.00" fill="#000000"> </text>
<polyline fill="none" stroke="#bfbfbf" points="141.5,-201.5 261.5,-201.5 "/>
<text text-anchor="middle" x="201.5" y="-189.5" font-family="Helvetica,sans-Serif" font-size="10.00" fill="#000000"> </text>
</g>
<!-- Node3&#45;&gt;Node1 -->
<g id="edge2" class="edge">
<title>Node3&#45;&gt;Node1</title>
<path fill="none" stroke="#404040" d="M209.3685,-182.3773C211.9504,-173.0119 214.8396,-162.56 217.5,-153 218.0942,-150.8649 218.6973,-148.6999 219.3065,-146.5153"/>
<polygon fill="none" stroke="#404040" points="219.378,-146.2589 217.1393,-139.4041 222.6058,-134.7012 224.8445,-141.556 219.378,-146.2589"/>
<text text-anchor="middle" x="239" y="-156" font-family="Helvetica,sans-Serif" font-size="10.00" fill="#000000"> &#45;callback</text>
</g>
<!-- Node4 -->
<g id="node4" class="node">
<title>Node4</title>
<polygon fill="#ffffff" stroke="#bfbfbf" points="280,-182.5 280,-239.5 315,-239.5 315,-182.5 280,-182.5"/>
<text text-anchor="middle" x="297.5" y="-227.5" font-family="Helvetica,sans-Serif" font-size="10.00" fill="#000000">bool</text>
<polyline fill="none" stroke="#bfbfbf" points="280,-220.5 315,-220.5 "/>
<text text-anchor="middle" x="297.5" y="-208.5" font-family="Helvetica,sans-Serif" font-size="10.00" fill="#000000"> </text>
<polyline fill="none" stroke="#bfbfbf" points="280,-201.5 315,-201.5 "/>
<text text-anchor="middle" x="297.5" y="-189.5" font-family="Helvetica,sans-Serif" font-size="10.00" fill="#000000"> </text>
</g>
<!-- Node4&#45;&gt;Node1 -->
<g id="edge3" class="edge">
<title>Node4&#45;&gt;Node1</title>
<path fill="none" stroke="#404040" d="M286.3022,-182.3055C282.1548,-171.6778 277.2269,-159.0502 272.1818,-146.1222"/>
<polygon fill="none" stroke="#404040" points="272.0974,-145.9056 266.1898,-141.7703 267.7348,-134.7267 273.6424,-138.862 272.0974,-145.9056"/>
<text text-anchor="middle" x="318.5" y="-156" font-family="Helvetica,sans-Serif" font-size="10.00" fill="#000000"> &#45;allow_exceptions</text>
</g>
<!-- Node5 -->
<g id="node5" class="node">
<title>Node5</title>
<polygon fill="#ffffff" stroke="#bfbfbf" points="355,-182.5 355,-239.5 420,-239.5 420,-182.5 355,-182.5"/>
<text text-anchor="middle" x="387.5" y="-227.5" font-family="Helvetica,sans-Serif" font-size="10.00" fill="#000000">token_type</text>
<polyline fill="none" stroke="#bfbfbf" points="355,-220.5 420,-220.5 "/>
<text text-anchor="middle" x="387.5" y="-208.5" font-family="Helvetica,sans-Serif" font-size="10.00" fill="#000000"> </text>
<polyline fill="none" stroke="#bfbfbf" points="355,-201.5 420,-201.5 "/>
<text text-anchor="middle" x="387.5" y="-189.5" font-family="Helvetica,sans-Serif" font-size="10.00" fill="#000000"> </text>
</g>
<!-- Node5&#45;&gt;Node1 -->
<g id="edge4" class="edge">
<title>Node5&#45;&gt;Node1</title>
<path fill="none" stroke="#404040" d="M379.3324,-182.4034C375.5741,-172.4256 370.3859,-161.5864 363.5,-153 349.4375,-135.4647 330.863,-119.9816 312.4604,-107.1783"/>
<polygon fill="none" stroke="#404040" points="312.2466,-107.0347 305.0355,-107.0106 302.2842,-100.345 309.4953,-100.3691 312.2466,-107.0347"/>
<text text-anchor="middle" x="395.5" y="-156" font-family="Helvetica,sans-Serif" font-size="10.00" fill="#000000"> &#45;last_token</text>
</g>
</g>
</svg>
