<?xml version="1.0" encoding="UTF-8" standalone="no"?>
<!DOCTYPE svg PUBLIC "-//W3C//DTD SVG 1.1//EN"
 "http://www.w3.org/Graphics/SVG/1.1/DTD/svg11.dtd">
<!-- Generated by graphviz version 2.40.1 (20161225.0304)
 -->
<!-- Title: tethex::Mesh::set_points Pages: 1 -->
<svg width="400pt" height="28pt"
 viewBox="0.00 0.00 400.00 28.00" xmlns="http://www.w3.org/2000/svg" xmlns:xlink="http://www.w3.org/1999/xlink">
<g id="graph0" class="graph" transform="scale(1 1) rotate(0) translate(4 24)">
<title>tethex::Mesh::set_points</title>
<polygon fill="#ffffff" stroke="transparent" points="-4,4 -4,-24 396,-24 396,4 -4,4"/>
<!-- Node191 -->
<g id="node1" class="node">
<title>Node191</title>
<polygon fill="#bfbfbf" stroke="#000000" points="0,-.5 0,-19.5 125,-19.5 125,-.5 0,-.5"/>
<text text-anchor="middle" x="62.5" y="-7.5" font-family="Helvetica,sans-Serif" font-size="10.00" fill="#000000">tethex::Mesh::set_points</text>
</g>
<!-- Node192 -->
<g id="node2" class="node">
<title>Node192</title>
<g id="a_node2"><a xlink:href="classRiver_1_1Border.html#a15c063e3c9acabf547dfa4b2d815c42d" target="_top" xlink:title="Initializes Border::borderMesh object of type tethex::Mesh by setting lines and vertices to rectangul...">
<polygon fill="#ffffff" stroke="#000000" points="161,-.5 161,-19.5 318,-19.5 318,-.5 161,-.5"/>
<text text-anchor="middle" x="239.5" y="-7.5" font-family="Helvetica,sans-Serif" font-size="10.00" fill="#000000">River::Border::MakeRectangular</text>
</a>
</g>
</g>
<!-- Node191&#45;&gt;Node192 -->
<g id="edge1" class="edge">
<title>Node191&#45;&gt;Node192</title>
<path fill="none" stroke="#191970" d="M135.4468,-10C143.7758,-10 152.2946,-10 160.6954,-10"/>
<polygon fill="#191970" stroke="#191970" points="135.402,-6.5001 125.402,-10 135.4019,-13.5001 135.402,-6.5001"/>
</g>
<!-- Node193 -->
<g id="node3" class="node">
<title>Node193</title>
<g id="a_node3"><a xlink:href="main_8cpp.html#a0ddf1224851353fc92bfbff6f499fa97" target="_top" xlink:title="Entry point of RiverSim program. ">
<polygon fill="#ffffff" stroke="#000000" points="354,-.5 354,-19.5 392,-19.5 392,-.5 354,-.5"/>
<text text-anchor="middle" x="373" y="-7.5" font-family="Helvetica,sans-Serif" font-size="10.00" fill="#000000">main</text>
</a>
</g>
</g>
<!-- Node192&#45;&gt;Node193 -->
<g id="edge2" class="edge">
<title>Node192&#45;&gt;Node193</title>
<path fill="none" stroke="#191970" d="M328.5766,-10C337.8353,-10 346.4462,-10 353.5746,-10"/>
<polygon fill="#191970" stroke="#191970" points="328.3153,-6.5001 318.3152,-10 328.3152,-13.5001 328.3153,-6.5001"/>
</g>
</g>
</svg>
