<?xml version="1.0" encoding="UTF-8" standalone="no"?>
<!DOCTYPE svg PUBLIC "-//W3C//DTD SVG 1.1//EN"
 "http://www.w3.org/Graphics/SVG/1.1/DTD/svg11.dtd">
<!-- Generated by graphviz version 2.43.0 (0)
 -->
<!-- Title: River::ProgramOptions Pages: 1 -->
<svg width="229pt" height="204pt"
 viewBox="0.00 0.00 229.00 204.00" xmlns="http://www.w3.org/2000/svg" xmlns:xlink="http://www.w3.org/1999/xlink">
<g id="graph0" class="graph" transform="scale(1 1) rotate(0) translate(4 200)">
<title>River::ProgramOptions</title>
<polygon fill="white" stroke="transparent" points="-4,4 -4,-200 225,-200 225,4 -4,4"/>
<!-- Node1 -->
<g id="node1" class="node">
<title>Node1</title>
<g id="a_node1"><a xlink:title="Global program options.">
<polygon fill="#bfbfbf" stroke="black" points="16.5,-0.5 16.5,-57.5 143.5,-57.5 143.5,-0.5 16.5,-0.5"/>
<text text-anchor="middle" x="80" y="-45.5" font-family="Helvetica,sans-Serif" font-size="10.00">River::ProgramOptions</text>
<polyline fill="none" stroke="black" points="16.5,-38.5 143.5,-38.5 "/>
<text text-anchor="middle" x="80" y="-26.5" font-family="Helvetica,sans-Serif" font-size="10.00"> </text>
<polyline fill="none" stroke="black" points="16.5,-19.5 143.5,-19.5 "/>
<text text-anchor="start" x="24.5" y="-7.5" font-family="Helvetica,sans-Serif" font-size="10.00">+ operator==()</text>
</a>
</g>
</g>
<!-- Node2 -->
<g id="node2" class="node">
<title>Node2</title>
<g id="a_node2"><a xlink:title=" ">
<polygon fill="white" stroke="#bfbfbf" points="0,-138.5 0,-195.5 44,-195.5 44,-138.5 0,-138.5"/>
<text text-anchor="middle" x="22" y="-183.5" font-family="Helvetica,sans-Serif" font-size="10.00">string</text>
<polyline fill="none" stroke="#bfbfbf" points="0,-176.5 44,-176.5 "/>
<text text-anchor="middle" x="22" y="-164.5" font-family="Helvetica,sans-Serif" font-size="10.00"> </text>
<polyline fill="none" stroke="#bfbfbf" points="0,-157.5 44,-157.5 "/>
<text text-anchor="middle" x="22" y="-145.5" font-family="Helvetica,sans-Serif" font-size="10.00"> </text>
</a>
</g>
</g>
<!-- Node2&#45;&gt;Node1 -->
<g id="edge1" class="edge">
<title>Node2&#45;&gt;Node1</title>
<path fill="none" stroke="#404040" d="M16.39,-138.23C14.03,-119.68 13.66,-95.26 23,-76 24.56,-72.78 26.47,-69.72 28.62,-66.81"/>
<polygon fill="none" stroke="#404040" points="28.85,-66.54 29.81,-59.39 36.78,-57.53 35.82,-64.68 28.85,-66.54"/>
<text text-anchor="middle" x="70" y="-101" font-family="Helvetica,sans-Serif" font-size="10.00"> +input_file_name</text>
<text text-anchor="middle" x="70" y="-90" font-family="Helvetica,sans-Serif" font-size="10.00">+output_file_name</text>
</g>
<!-- Node3 -->
<g id="node3" class="node">
<title>Node3</title>
<g id="a_node3"><a xlink:title=" ">
<polygon fill="white" stroke="#bfbfbf" points="120,-138.5 120,-195.5 158,-195.5 158,-138.5 120,-138.5"/>
<text text-anchor="middle" x="139" y="-183.5" font-family="Helvetica,sans-Serif" font-size="10.00">bool</text>
<polyline fill="none" stroke="#bfbfbf" points="120,-176.5 158,-176.5 "/>
<text text-anchor="middle" x="139" y="-164.5" font-family="Helvetica,sans-Serif" font-size="10.00"> </text>
<polyline fill="none" stroke="#bfbfbf" points="120,-157.5 158,-157.5 "/>
<text text-anchor="middle" x="139" y="-145.5" font-family="Helvetica,sans-Serif" font-size="10.00"> </text>
</a>
</g>
</g>
<!-- Node3&#45;&gt;Node1 -->
<g id="edge2" class="edge">
<title>Node3&#45;&gt;Node1</title>
<path fill="none" stroke="#404040" d="M135.41,-138.14C132.29,-119.79 126.68,-95.62 117,-76 115.63,-73.23 114.07,-70.47 112.38,-67.76"/>
<polygon fill="none" stroke="#404040" points="112.2,-67.49 105.5,-64.84 105.37,-57.63 112.08,-60.28 112.2,-67.49"/>
<text text-anchor="middle" x="176" y="-112" font-family="Helvetica,sans-Serif" font-size="10.00"> +save_each_step</text>
<text text-anchor="middle" x="176" y="-101" font-family="Helvetica,sans-Serif" font-size="10.00">+debug</text>
<text text-anchor="middle" x="176" y="-90" font-family="Helvetica,sans-Serif" font-size="10.00">+save_vtk</text>
<text text-anchor="middle" x="176" y="-79" font-family="Helvetica,sans-Serif" font-size="10.00">+verbose</text>
</g>
</g>
</svg>
