<?xml version="1.0" encoding="UTF-8" standalone="no"?>
<!DOCTYPE svg PUBLIC "-//W3C//DTD SVG 1.1//EN"
 "http://www.w3.org/Graphics/SVG/1.1/DTD/svg11.dtd">
<!-- Generated by graphviz version 2.40.1 (20161225.0304)
 -->
<!-- Title: nlohmann::basic_json::value Pages: 1 -->
<svg width="440pt" height="39pt"
 viewBox="0.00 0.00 440.00 39.00" xmlns="http://www.w3.org/2000/svg" xmlns:xlink="http://www.w3.org/1999/xlink">
<g id="graph0" class="graph" transform="scale(1 1) rotate(0) translate(4 35)">
<title>nlohmann::basic_json::value</title>
<polygon fill="#ffffff" stroke="transparent" points="-4,4 -4,-35 436,-35 436,4 -4,4"/>
<!-- Node216 -->
<g id="node1" class="node">
<title>Node216</title>
<polygon fill="#bfbfbf" stroke="#000000" points="0,-.5 0,-30.5 111,-30.5 111,-.5 0,-.5"/>
<text text-anchor="start" x="8" y="-18.5" font-family="Helvetica,sans-Serif" font-size="10.00" fill="#000000">nlohmann::basic_json</text>
<text text-anchor="middle" x="55.5" y="-7.5" font-family="Helvetica,sans-Serif" font-size="10.00" fill="#000000">::value</text>
</g>
<!-- Node217 -->
<g id="node2" class="node">
<title>Node217</title>
<g id="a_node2"><a xlink:href="classnlohmann_1_1detail_1_1type__error.html#aecc083aea4b698c33d042670ba50c10f" target="_top" xlink:title="nlohmann::detail::type\l_error::create">
<polygon fill="#ffffff" stroke="#000000" points="147,-.5 147,-30.5 260,-30.5 260,-.5 147,-.5"/>
<text text-anchor="start" x="155" y="-18.5" font-family="Helvetica,sans-Serif" font-size="10.00" fill="#000000">nlohmann::detail::type</text>
<text text-anchor="middle" x="203.5" y="-7.5" font-family="Helvetica,sans-Serif" font-size="10.00" fill="#000000">_error::create</text>
</a>
</g>
</g>
<!-- Node216&#45;&gt;Node217 -->
<g id="edge1" class="edge">
<title>Node216&#45;&gt;Node217</title>
<path fill="none" stroke="#191970" d="M111.0308,-15.5C119.3113,-15.5 127.9213,-15.5 136.4091,-15.5"/>
<polygon fill="#191970" stroke="#191970" points="136.6712,-19.0001 146.6712,-15.5 136.6712,-12.0001 136.6712,-19.0001"/>
</g>
<!-- Node218 -->
<g id="node3" class="node">
<title>Node218</title>
<g id="a_node3"><a xlink:href="classnlohmann_1_1detail_1_1exception.html#abf41a7e9178356314082284e6cfea278" target="_top" xlink:title="nlohmann::detail::exception\l::name">
<polygon fill="#ffffff" stroke="#000000" points="296,-.5 296,-30.5 432,-30.5 432,-.5 296,-.5"/>
<text text-anchor="start" x="304" y="-18.5" font-family="Helvetica,sans-Serif" font-size="10.00" fill="#000000">nlohmann::detail::exception</text>
<text text-anchor="middle" x="364" y="-7.5" font-family="Helvetica,sans-Serif" font-size="10.00" fill="#000000">::name</text>
</a>
</g>
</g>
<!-- Node217&#45;&gt;Node218 -->
<g id="edge2" class="edge">
<title>Node217&#45;&gt;Node218</title>
<path fill="none" stroke="#191970" d="M260.0863,-15.5C268.3895,-15.5 277.0638,-15.5 285.7078,-15.5"/>
<polygon fill="#191970" stroke="#191970" points="285.8172,-19.0001 295.8172,-15.5 285.8172,-12.0001 285.8172,-19.0001"/>
</g>
</g>
</svg>
