<?xml version="1.0" encoding="UTF-8" standalone="no"?>
<!DOCTYPE svg PUBLIC "-//W3C//DTD SVG 1.1//EN"
 "http://www.w3.org/Graphics/SVG/1.1/DTD/svg11.dtd">
<!-- Generated by graphviz version 2.40.1 (20161225.0304)
 -->
<!-- Title: River::Solver::assemble_system Pages: 1 -->
<svg width="514pt" height="53pt"
 viewBox="0.00 0.00 514.00 52.50" xmlns="http://www.w3.org/2000/svg" xmlns:xlink="http://www.w3.org/1999/xlink">
<g id="graph0" class="graph" transform="scale(1 1) rotate(0) translate(4 48.5)">
<title>River::Solver::assemble_system</title>
<polygon fill="#ffffff" stroke="transparent" points="-4,4 -4,-48.5 510,-48.5 510,4 -4,4"/>
<!-- Node55 -->
<g id="node1" class="node">
<title>Node55</title>
<polygon fill="#bfbfbf" stroke="#000000" points="0,-14 0,-44 122,-44 122,-14 0,-14"/>
<text text-anchor="start" x="8" y="-32" font-family="Helvetica,sans-Serif" font-size="10.00" fill="#000000">River::Solver::assemble</text>
<text text-anchor="middle" x="61" y="-21" font-family="Helvetica,sans-Serif" font-size="10.00" fill="#000000">_system</text>
</g>
<!-- Node56 -->
<g id="node2" class="node">
<title>Node56</title>
<g id="a_node2"><a xlink:href="classRiver_1_1Solver.html#a4222fe744d607f870a5d7d22b11e8334" target="_top" xlink:title="River::Solver::run">
<polygon fill="#ffffff" stroke="#000000" points="158,-19.5 158,-38.5 251,-38.5 251,-19.5 158,-19.5"/>
<text text-anchor="middle" x="204.5" y="-26.5" font-family="Helvetica,sans-Serif" font-size="10.00" fill="#000000">River::Solver::run</text>
</a>
</g>
</g>
<!-- Node55&#45;&gt;Node56 -->
<g id="edge1" class="edge">
<title>Node55&#45;&gt;Node56</title>
<path fill="none" stroke="#191970" d="M132.3632,-29C140.9867,-29 149.6177,-29 157.7578,-29"/>
<polygon fill="#191970" stroke="#191970" points="132.2732,-25.5001 122.2732,-29 132.2731,-32.5001 132.2732,-25.5001"/>
</g>
<!-- Node57 -->
<g id="node3" class="node">
<title>Node57</title>
<g id="a_node3"><a xlink:href="main_8cpp.html#a0ddf1224851353fc92bfbff6f499fa97" target="_top" xlink:title="Entry point of RiverSim program. ">
<polygon fill="#ffffff" stroke="#000000" points="468,-19.5 468,-38.5 506,-38.5 506,-19.5 468,-19.5"/>
<text text-anchor="middle" x="487" y="-26.5" font-family="Helvetica,sans-Serif" font-size="10.00" fill="#000000">main</text>
</a>
</g>
</g>
<!-- Node56&#45;&gt;Node57 -->
<g id="edge2" class="edge">
<title>Node56&#45;&gt;Node57</title>
<path fill="none" stroke="#191970" d="M261.4871,-29C325.512,-29 425.9413,-29 467.7424,-29"/>
<polygon fill="#191970" stroke="#191970" points="261.1492,-25.5001 251.1491,-29 261.1491,-32.5001 261.1492,-25.5001"/>
</g>
<!-- Node58 -->
<g id="node4" class="node">
<title>Node58</title>
<g id="a_node4"><a xlink:href="namespaceRiver.html#a494b68e2992de95500d6d81770de62ed" target="_top" xlink:title="River::ForwardRiverEvolution">
<polygon fill="#ffffff" stroke="#000000" points="287,-.5 287,-19.5 432,-19.5 432,-.5 287,-.5"/>
<text text-anchor="middle" x="359.5" y="-7.5" font-family="Helvetica,sans-Serif" font-size="10.00" fill="#000000">River::ForwardRiverEvolution</text>
</a>
</g>
</g>
<!-- Node56&#45;&gt;Node58 -->
<g id="edge3" class="edge">
<title>Node56&#45;&gt;Node58</title>
<path fill="none" stroke="#191970" d="M261.0614,-22.0667C269.4747,-21.0354 278.2438,-19.9604 286.9301,-18.8957"/>
<polygon fill="#191970" stroke="#191970" points="260.5049,-18.6086 251.0051,-23.2994 261.3567,-25.5566 260.5049,-18.6086"/>
</g>
<!-- Node58&#45;&gt;Node57 -->
<g id="edge4" class="edge">
<title>Node58&#45;&gt;Node57</title>
<path fill="none" stroke="#191970" d="M433.7834,-21.0697C446.3501,-22.9424 458.3551,-24.7313 467.7718,-26.1346"/>
<polygon fill="#191970" stroke="#191970" points="434.0302,-17.5679 423.6235,-19.5557 432.9984,-24.4914 434.0302,-17.5679"/>
</g>
</g>
</svg>
