<?xml version="1.0" encoding="UTF-8" standalone="no"?>
<!DOCTYPE svg PUBLIC "-//W3C//DTD SVG 1.1//EN"
 "http://www.w3.org/Graphics/SVG/1.1/DTD/svg11.dtd">
<!-- Generated by graphviz version 2.40.1 (20161225.0304)
 -->
<!-- Title: tethex::Mesh::get_n_triangles Pages: 1 -->
<svg width="269pt" height="66pt"
 viewBox="0.00 0.00 269.00 66.00" xmlns="http://www.w3.org/2000/svg" xmlns:xlink="http://www.w3.org/1999/xlink">
<g id="graph0" class="graph" transform="scale(1 1) rotate(0) translate(4 62)">
<title>tethex::Mesh::get_n_triangles</title>
<polygon fill="#ffffff" stroke="transparent" points="-4,4 -4,-62 265,-62 265,4 -4,4"/>
<!-- Node91 -->
<g id="node1" class="node">
<title>Node91</title>
<polygon fill="#bfbfbf" stroke="#000000" points="0,-14 0,-44 104,-44 104,-14 0,-14"/>
<text text-anchor="start" x="8" y="-32" font-family="Helvetica,sans-Serif" font-size="10.00" fill="#000000">tethex::Mesh::get_n</text>
<text text-anchor="middle" x="52" y="-21" font-family="Helvetica,sans-Serif" font-size="10.00" fill="#000000">_triangles</text>
</g>
<!-- Node92 -->
<g id="node2" class="node">
<title>Node92</title>
<g id="a_node2"><a xlink:href="classtethex_1_1Mesh.html#af7abffd9bc4bd64eb2f4cdd4aaf7fbe3" target="_top" xlink:title="tethex::Mesh::Mesh">
<polygon fill="#ffffff" stroke="#000000" points="148.5,-38.5 148.5,-57.5 252.5,-57.5 252.5,-38.5 148.5,-38.5"/>
<text text-anchor="middle" x="200.5" y="-45.5" font-family="Helvetica,sans-Serif" font-size="10.00" fill="#000000">tethex::Mesh::Mesh</text>
</a>
</g>
</g>
<!-- Node91&#45;&gt;Node92 -->
<g id="edge1" class="edge">
<title>Node91&#45;&gt;Node92</title>
<path fill="none" stroke="#191970" d="M114.5604,-37.0044C125.8184,-38.4448 137.4441,-39.9322 148.3671,-41.3298"/>
<polygon fill="#191970" stroke="#191970" points="114.7189,-33.4962 104.3555,-35.6987 113.8305,-40.4396 114.7189,-33.4962"/>
</g>
<!-- Node93 -->
<g id="node3" class="node">
<title>Node93</title>
<g id="a_node3"><a xlink:href="classtethex_1_1Mesh.html#af992d5d2e64047656766e4afcbc95b8b" target="_top" xlink:title="tethex::Mesh::operator=">
<polygon fill="#ffffff" stroke="#000000" points="140,-.5 140,-19.5 261,-19.5 261,-.5 140,-.5"/>
<text text-anchor="middle" x="200.5" y="-7.5" font-family="Helvetica,sans-Serif" font-size="10.00" fill="#000000">tethex::Mesh::operator=</text>
</a>
</g>
</g>
<!-- Node91&#45;&gt;Node93 -->
<g id="edge2" class="edge">
<title>Node91&#45;&gt;Node93</title>
<path fill="none" stroke="#191970" d="M114.512,-21.0018C122.9477,-19.9225 131.5907,-18.8167 139.9906,-17.7419"/>
<polygon fill="#191970" stroke="#191970" points="113.8305,-17.5604 104.3555,-22.3013 114.7189,-24.5038 113.8305,-17.5604"/>
</g>
</g>
</svg>
