<?xml version="1.0" encoding="UTF-8" standalone="no"?>
<!DOCTYPE svg PUBLIC "-//W3C//DTD SVG 1.1//EN"
 "http://www.w3.org/Graphics/SVG/1.1/DTD/svg11.dtd">
<!-- Generated by graphviz version 2.40.1 (20161225.0304)
 -->
<!-- Title: River::Branch::getHeadAngle Pages: 1 -->
<svg width="595pt" height="66pt"
 viewBox="0.00 0.00 595.00 66.00" xmlns="http://www.w3.org/2000/svg" xmlns:xlink="http://www.w3.org/1999/xlink">
<g id="graph0" class="graph" transform="scale(1 1) rotate(0) translate(4 62)">
<title>River::Branch::getHeadAngle</title>
<polygon fill="#ffffff" stroke="transparent" points="-4,4 -4,-62 591,-62 591,4 -4,4"/>
<!-- Node49 -->
<g id="node1" class="node">
<title>Node49</title>
<polygon fill="#bfbfbf" stroke="#000000" points="0,-19.5 0,-38.5 144,-38.5 144,-19.5 0,-19.5"/>
<text text-anchor="middle" x="72" y="-26.5" font-family="Helvetica,sans-Serif" font-size="10.00" fill="#000000">River::Branch::getHeadAngle</text>
</g>
<!-- Node50 -->
<g id="node2" class="node">
<title>Node50</title>
<g id="a_node2"><a xlink:href="classRiver_1_1Branch.html#ae0516312626bf41418d5aa1d536e11ea" target="_top" xlink:title="River::Branch::addPolar">
<polygon fill="#ffffff" stroke="#000000" points="195.5,-38.5 195.5,-57.5 316.5,-57.5 316.5,-38.5 195.5,-38.5"/>
<text text-anchor="middle" x="256" y="-45.5" font-family="Helvetica,sans-Serif" font-size="10.00" fill="#000000">River::Branch::addPolar</text>
</a>
</g>
</g>
<!-- Node49&#45;&gt;Node50 -->
<g id="edge1" class="edge">
<title>Node49&#45;&gt;Node50</title>
<path fill="none" stroke="#191970" d="M154.1935,-37.4874C168.0243,-38.9155 182.1541,-40.3746 195.3133,-41.7334"/>
<polygon fill="#191970" stroke="#191970" points="154.5002,-34.0005 144.1936,-36.4548 153.7811,-40.9635 154.5002,-34.0005"/>
</g>
<!-- Node51 -->
<g id="node3" class="node">
<title>Node51</title>
<g id="a_node3"><a xlink:href="classRiver_1_1Geometry.html#a37d40329645be4c1dee1794aa239be5b" target="_top" xlink:title="River::Geometry::GetTipPoints">
<polygon fill="#ffffff" stroke="#000000" points="180,-.5 180,-19.5 332,-19.5 332,-.5 180,-.5"/>
<text text-anchor="middle" x="256" y="-7.5" font-family="Helvetica,sans-Serif" font-size="10.00" fill="#000000">River::Geometry::GetTipPoints</text>
</a>
</g>
</g>
<!-- Node49&#45;&gt;Node51 -->
<g id="edge2" class="edge">
<title>Node49&#45;&gt;Node51</title>
<path fill="none" stroke="#191970" d="M154.4141,-20.4898C162.8533,-19.6184 171.4012,-18.7358 179.7696,-17.8716"/>
<polygon fill="#191970" stroke="#191970" points="153.7811,-17.0365 144.1936,-21.5452 154.5002,-23.9995 153.7811,-17.0365"/>
</g>
<!-- Node52 -->
<g id="node4" class="node">
<title>Node52</title>
<g id="a_node4"><a xlink:href="namespaceRiver.html#a494b68e2992de95500d6d81770de62ed" target="_top" xlink:title="River::ForwardRiverEvolution">
<polygon fill="#ffffff" stroke="#000000" points="368,-.5 368,-19.5 513,-19.5 513,-.5 368,-.5"/>
<text text-anchor="middle" x="440.5" y="-7.5" font-family="Helvetica,sans-Serif" font-size="10.00" fill="#000000">River::ForwardRiverEvolution</text>
</a>
</g>
</g>
<!-- Node51&#45;&gt;Node52 -->
<g id="edge3" class="edge">
<title>Node51&#45;&gt;Node52</title>
<path fill="none" stroke="#191970" d="M342.1435,-10C350.7351,-10 359.3975,-10 367.8311,-10"/>
<polygon fill="#191970" stroke="#191970" points="342.1084,-6.5001 332.1084,-10 342.1084,-13.5001 342.1084,-6.5001"/>
</g>
<!-- Node53 -->
<g id="node5" class="node">
<title>Node53</title>
<g id="a_node5"><a xlink:href="main_8cpp.html#a0ddf1224851353fc92bfbff6f499fa97" target="_top" xlink:title="Entry point of RiverSim program. ">
<polygon fill="#ffffff" stroke="#000000" points="549,-.5 549,-19.5 587,-19.5 587,-.5 549,-.5"/>
<text text-anchor="middle" x="568" y="-7.5" font-family="Helvetica,sans-Serif" font-size="10.00" fill="#000000">main</text>
</a>
</g>
</g>
<!-- Node52&#45;&gt;Node53 -->
<g id="edge4" class="edge">
<title>Node52&#45;&gt;Node53</title>
<path fill="none" stroke="#191970" d="M523.2526,-10C532.7338,-10 541.5978,-10 548.8947,-10"/>
<polygon fill="#191970" stroke="#191970" points="523.1886,-6.5001 513.1886,-10 523.1885,-13.5001 523.1886,-6.5001"/>
</g>
</g>
</svg>
