<?xml version="1.0" encoding="UTF-8" standalone="no"?>
<!DOCTYPE svg PUBLIC "-//W3C//DTD SVG 1.1//EN"
 "http://www.w3.org/Graphics/SVG/1.1/DTD/svg11.dtd">
<!-- Generated by graphviz version 2.40.1 (20161225.0304)
 -->
<!-- Title: River::Solver Pages: 1 -->
<svg width="1461pt" height="402pt"
 viewBox="0.00 0.00 1460.50 402.00" xmlns="http://www.w3.org/2000/svg" xmlns:xlink="http://www.w3.org/1999/xlink">
<g id="graph0" class="graph" transform="scale(1 1) rotate(0) translate(4 398)">
<title>River::Solver</title>
<polygon fill="#ffffff" stroke="transparent" points="-4,4 -4,-398 1456.5,-398 1456.5,4 -4,4"/>
<!-- Node1 -->
<g id="node1" class="node">
<title>Node1</title>
<polygon fill="#bfbfbf" stroke="#000000" points="608.5,-.5 608.5,-244.5 766.5,-244.5 766.5,-.5 608.5,-.5"/>
<text text-anchor="middle" x="687.5" y="-232.5" font-family="Helvetica,sans-Serif" font-size="10.00" fill="#000000">River::Solver</text>
<polyline fill="none" stroke="#000000" points="608.5,-225.5 766.5,-225.5 "/>
<text text-anchor="middle" x="687.5" y="-213.5" font-family="Helvetica,sans-Serif" font-size="10.00" fill="#000000"> </text>
<polyline fill="none" stroke="#000000" points="608.5,-206.5 766.5,-206.5 "/>
<text text-anchor="start" x="616.5" y="-194.5" font-family="Helvetica,sans-Serif" font-size="10.00" fill="#000000">+ Solver()</text>
<text text-anchor="start" x="616.5" y="-183.5" font-family="Helvetica,sans-Serif" font-size="10.00" fill="#000000">+ ~Solver()</text>
<text text-anchor="start" x="616.5" y="-172.5" font-family="Helvetica,sans-Serif" font-size="10.00" fill="#000000">+ SetBoundaryRegionValue()</text>
<text text-anchor="start" x="616.5" y="-161.5" font-family="Helvetica,sans-Serif" font-size="10.00" fill="#000000">+ SetMesh()</text>
<text text-anchor="start" x="616.5" y="-150.5" font-family="Helvetica,sans-Serif" font-size="10.00" fill="#000000">+ OpenMesh()</text>
<text text-anchor="start" x="616.5" y="-139.5" font-family="Helvetica,sans-Serif" font-size="10.00" fill="#000000">+ static_refine_grid()</text>
<text text-anchor="start" x="616.5" y="-128.5" font-family="Helvetica,sans-Serif" font-size="10.00" fill="#000000">+ NumberOfRefinedCells()</text>
<text text-anchor="start" x="616.5" y="-117.5" font-family="Helvetica,sans-Serif" font-size="10.00" fill="#000000">+ run()</text>
<text text-anchor="start" x="616.5" y="-106.5" font-family="Helvetica,sans-Serif" font-size="10.00" fill="#000000">+ output_results()</text>
<text text-anchor="start" x="616.5" y="-95.5" font-family="Helvetica,sans-Serif" font-size="10.00" fill="#000000">+ integrate()</text>
<text text-anchor="start" x="616.5" y="-84.5" font-family="Helvetica,sans-Serif" font-size="10.00" fill="#000000">+ integration_test()</text>
<text text-anchor="start" x="616.5" y="-73.5" font-family="Helvetica,sans-Serif" font-size="10.00" fill="#000000">+ max_value()</text>
<text text-anchor="start" x="616.5" y="-62.5" font-family="Helvetica,sans-Serif" font-size="10.00" fill="#000000">+ clear()</text>
<text text-anchor="start" x="616.5" y="-51.5" font-family="Helvetica,sans-Serif" font-size="10.00" fill="#000000">&#45; setup_system()</text>
<text text-anchor="start" x="616.5" y="-40.5" font-family="Helvetica,sans-Serif" font-size="10.00" fill="#000000">&#45; assemble_system()</text>
<text text-anchor="start" x="616.5" y="-29.5" font-family="Helvetica,sans-Serif" font-size="10.00" fill="#000000">&#45; solve()</text>
<text text-anchor="start" x="616.5" y="-18.5" font-family="Helvetica,sans-Serif" font-size="10.00" fill="#000000">&#45; refine_grid()</text>
<text text-anchor="start" x="616.5" y="-7.5" font-family="Helvetica,sans-Serif" font-size="10.00" fill="#000000">&#45; TryInsertCellBoundary()</text>
</g>
<!-- Node2 -->
<g id="node2" class="node">
<title>Node2</title>
<polygon fill="#ffffff" stroke="#bfbfbf" points="0,-331 0,-388 121,-388 121,-331 0,-331"/>
<text text-anchor="middle" x="60.5" y="-376" font-family="Helvetica,sans-Serif" font-size="10.00" fill="#000000">Triangulation&lt; dim &gt;</text>
<polyline fill="none" stroke="#bfbfbf" points="0,-369 121,-369 "/>
<text text-anchor="middle" x="60.5" y="-357" font-family="Helvetica,sans-Serif" font-size="10.00" fill="#000000"> </text>
<polyline fill="none" stroke="#bfbfbf" points="0,-350 121,-350 "/>
<text text-anchor="middle" x="60.5" y="-338" font-family="Helvetica,sans-Serif" font-size="10.00" fill="#000000"> </text>
</g>
<!-- Node2&#45;&gt;Node1 -->
<g id="edge1" class="edge">
<title>Node2&#45;&gt;Node1</title>
<path fill="none" stroke="#404040" d="M62.3589,-330.5702C65.3009,-308.9719 72.7568,-280.3125 91.5,-263 164.4192,-195.6469 448.1171,-151.7926 596.2663,-132.9953"/>
<polygon fill="none" stroke="#404040" points="596.525,-132.9629 601.9805,-128.2472 608.4317,-131.4694 602.9762,-136.1851 596.525,-132.9629"/>
<text text-anchor="middle" x="126.5" y="-282.5" font-family="Helvetica,sans-Serif" font-size="10.00" fill="#000000"> &#45;triangulation</text>
</g>
<!-- Node3 -->
<g id="node3" class="node">
<title>Node3</title>
<polygon fill="#ffffff" stroke="#bfbfbf" points="139.5,-331 139.5,-388 189.5,-388 189.5,-331 139.5,-331"/>
<text text-anchor="middle" x="164.5" y="-376" font-family="Helvetica,sans-Serif" font-size="10.00" fill="#000000">double</text>
<polyline fill="none" stroke="#bfbfbf" points="139.5,-369 189.5,-369 "/>
<text text-anchor="middle" x="164.5" y="-357" font-family="Helvetica,sans-Serif" font-size="10.00" fill="#000000"> </text>
<polyline fill="none" stroke="#bfbfbf" points="139.5,-350 189.5,-350 "/>
<text text-anchor="middle" x="164.5" y="-338" font-family="Helvetica,sans-Serif" font-size="10.00" fill="#000000"> </text>
</g>
<!-- Node3&#45;&gt;Node1 -->
<g id="edge2" class="edge">
<title>Node3&#45;&gt;Node1</title>
<path fill="none" stroke="#404040" d="M162.977,-330.5879C163.4552,-309.2865 167.681,-281.0038 184.5,-263 240.3015,-203.2676 467.0265,-157.9785 596.2197,-136.4191"/>
<polygon fill="none" stroke="#404040" points="596.569,-136.3615 601.8375,-131.4377 608.4088,-134.4071 603.1404,-139.3309 596.569,-136.3615"/>
<text text-anchor="middle" x="238.5" y="-299" font-family="Helvetica,sans-Serif" font-size="10.00" fill="#000000"> +coarsening_fraction</text>
<text text-anchor="middle" x="238.5" y="-288" font-family="Helvetica,sans-Serif" font-size="10.00" fill="#000000">+refinment_fraction</text>
<text text-anchor="middle" x="238.5" y="-277" font-family="Helvetica,sans-Serif" font-size="10.00" fill="#000000">+field_value</text>
<text text-anchor="middle" x="238.5" y="-266" font-family="Helvetica,sans-Serif" font-size="10.00" fill="#000000">+tollerance</text>
</g>
<!-- Node4 -->
<g id="node4" class="node">
<title>Node4</title>
<polygon fill="#ffffff" stroke="#bfbfbf" points="212.5,-331 212.5,-388 310.5,-388 310.5,-331 212.5,-331"/>
<text text-anchor="middle" x="261.5" y="-376" font-family="Helvetica,sans-Serif" font-size="10.00" fill="#000000">ConstraintMatrix</text>
<polyline fill="none" stroke="#bfbfbf" points="212.5,-369 310.5,-369 "/>
<text text-anchor="middle" x="261.5" y="-357" font-family="Helvetica,sans-Serif" font-size="10.00" fill="#000000"> </text>
<polyline fill="none" stroke="#bfbfbf" points="212.5,-350 310.5,-350 "/>
<text text-anchor="middle" x="261.5" y="-338" font-family="Helvetica,sans-Serif" font-size="10.00" fill="#000000"> </text>
</g>
<!-- Node4&#45;&gt;Node1 -->
<g id="edge3" class="edge">
<title>Node4&#45;&gt;Node1</title>
<path fill="none" stroke="#404040" d="M278.9103,-330.8497C293.0066,-309.6855 314.5701,-281.4598 339.5,-263 417.4103,-205.3101 522.3125,-167.2184 596.5121,-145.4316"/>
<polygon fill="none" stroke="#404040" points="596.6185,-145.4009 601.2745,-139.8944 608.1482,-142.0744 603.4922,-147.5809 596.6185,-145.4009"/>
<text text-anchor="middle" x="370" y="-282.5" font-family="Helvetica,sans-Serif" font-size="10.00" fill="#000000"> &#45;constraints</text>
</g>
<!-- Node5 -->
<g id="node5" class="node">
<title>Node5</title>
<polygon fill="#ffffff" stroke="#bfbfbf" points="329,-331 329,-388 420,-388 420,-331 329,-331"/>
<text text-anchor="middle" x="374.5" y="-376" font-family="Helvetica,sans-Serif" font-size="10.00" fill="#000000">SparsityPattern</text>
<polyline fill="none" stroke="#bfbfbf" points="329,-369 420,-369 "/>
<text text-anchor="middle" x="374.5" y="-357" font-family="Helvetica,sans-Serif" font-size="10.00" fill="#000000"> </text>
<polyline fill="none" stroke="#bfbfbf" points="329,-350 420,-350 "/>
<text text-anchor="middle" x="374.5" y="-338" font-family="Helvetica,sans-Serif" font-size="10.00" fill="#000000"> </text>
</g>
<!-- Node5&#45;&gt;Node1 -->
<g id="edge4" class="edge">
<title>Node5&#45;&gt;Node1</title>
<path fill="none" stroke="#404040" d="M389.1658,-330.7252C400.7523,-310.0431 418.449,-282.4831 439.5,-263 485.6846,-220.2552 547.182,-185.3073 597.3821,-160.9579"/>
<polygon fill="none" stroke="#404040" points="597.4119,-160.9438 601.1012,-154.7478 608.2395,-155.7703 604.5502,-161.9662 597.4119,-160.9438"/>
<text text-anchor="middle" x="483" y="-282.5" font-family="Helvetica,sans-Serif" font-size="10.00" fill="#000000"> &#45;sparsity_pattern</text>
</g>
<!-- Node6 -->
<g id="node6" class="node">
<title>Node6</title>
<polygon fill="#ffffff" stroke="#bfbfbf" points="438,-331 438,-388 553,-388 553,-331 438,-331"/>
<text text-anchor="middle" x="495.5" y="-376" font-family="Helvetica,sans-Serif" font-size="10.00" fill="#000000">DoFHandler&lt; dim &gt;</text>
<polyline fill="none" stroke="#bfbfbf" points="438,-369 553,-369 "/>
<text text-anchor="middle" x="495.5" y="-357" font-family="Helvetica,sans-Serif" font-size="10.00" fill="#000000"> </text>
<polyline fill="none" stroke="#bfbfbf" points="438,-350 553,-350 "/>
<text text-anchor="middle" x="495.5" y="-338" font-family="Helvetica,sans-Serif" font-size="10.00" fill="#000000"> </text>
</g>
<!-- Node6&#45;&gt;Node1 -->
<g id="edge5" class="edge">
<title>Node6&#45;&gt;Node1</title>
<path fill="none" stroke="#404040" d="M513.6178,-330.9369C526.3784,-311.3541 544.2062,-285.0337 561.5,-263 573.5617,-247.6325 586.8399,-231.8017 600.1137,-216.5572"/>
<polygon fill="none" stroke="#404040" points="600.4528,-216.1707 601.4032,-209.0225 608.3671,-207.1504 607.4167,-214.2986 600.4528,-216.1707"/>
<text text-anchor="middle" x="594" y="-282.5" font-family="Helvetica,sans-Serif" font-size="10.00" fill="#000000"> &#45;dof_handler</text>
</g>
<!-- Node7 -->
<g id="node7" class="node">
<title>Node7</title>
<polygon fill="#ffffff" stroke="#bfbfbf" points="571.5,-331 571.5,-388 653.5,-388 653.5,-331 571.5,-331"/>
<text text-anchor="middle" x="612.5" y="-376" font-family="Helvetica,sans-Serif" font-size="10.00" fill="#000000">FE_Q&lt; dim &gt;</text>
<polyline fill="none" stroke="#bfbfbf" points="571.5,-369 653.5,-369 "/>
<text text-anchor="middle" x="612.5" y="-357" font-family="Helvetica,sans-Serif" font-size="10.00" fill="#000000"> </text>
<polyline fill="none" stroke="#bfbfbf" points="571.5,-350 653.5,-350 "/>
<text text-anchor="middle" x="612.5" y="-338" font-family="Helvetica,sans-Serif" font-size="10.00" fill="#000000"> </text>
</g>
<!-- Node7&#45;&gt;Node1 -->
<g id="edge6" class="edge">
<title>Node7&#45;&gt;Node1</title>
<path fill="none" stroke="#404040" d="M621.5468,-330.9123C627.659,-311.5974 636.2179,-284.5514 645.1501,-256.3256"/>
<polygon fill="none" stroke="#404040" points="645.2374,-256.0496 643.2341,-249.1224 648.858,-244.6088 650.8613,-251.5361 645.2374,-256.0496"/>
<text text-anchor="middle" x="649" y="-282.5" font-family="Helvetica,sans-Serif" font-size="10.00" fill="#000000"> &#45;fe</text>
</g>
<!-- Node8 -->
<g id="node8" class="node">
<title>Node8</title>
<polygon fill="#ffffff" stroke="#bfbfbf" points="672,-325.5 672,-393.5 791,-393.5 791,-325.5 672,-325.5"/>
<text text-anchor="start" x="680" y="-381.5" font-family="Helvetica,sans-Serif" font-size="10.00" fill="#000000">map&lt; double, vector</text>
<text text-anchor="middle" x="731.5" y="-370.5" font-family="Helvetica,sans-Serif" font-size="10.00" fill="#000000">&lt; int &gt; &gt;</text>
<polyline fill="none" stroke="#bfbfbf" points="672,-363.5 791,-363.5 "/>
<text text-anchor="middle" x="731.5" y="-351.5" font-family="Helvetica,sans-Serif" font-size="10.00" fill="#000000"> </text>
<polyline fill="none" stroke="#bfbfbf" points="672,-344.5 791,-344.5 "/>
<text text-anchor="middle" x="731.5" y="-332.5" font-family="Helvetica,sans-Serif" font-size="10.00" fill="#000000"> </text>
</g>
<!-- Node8&#45;&gt;Node1 -->
<g id="edge7" class="edge">
<title>Node8&#45;&gt;Node1</title>
<path fill="none" stroke="#404040" d="M698.2785,-325.4006C694.2903,-319.6393 690.8164,-313.4287 688.5,-307 682.7655,-291.0848 679.3545,-273.8841 677.5524,-256.6054"/>
<polygon fill="none" stroke="#404040" points="677.5524,-256.6041 673.0666,-250.958 676.553,-244.6457 681.0388,-250.2918 677.5524,-256.6041"/>
<text text-anchor="middle" x="745" y="-282.5" font-family="Helvetica,sans-Serif" font-size="10.00" fill="#000000"> &#45;boundaryRegionValue</text>
</g>
<!-- Node9 -->
<g id="node9" class="node">
<title>Node9</title>
<polygon fill="#ffffff" stroke="#bfbfbf" points="809,-331 809,-388 838,-388 838,-331 809,-331"/>
<text text-anchor="middle" x="823.5" y="-376" font-family="Helvetica,sans-Serif" font-size="10.00" fill="#000000">int</text>
<polyline fill="none" stroke="#bfbfbf" points="809,-369 838,-369 "/>
<text text-anchor="middle" x="823.5" y="-357" font-family="Helvetica,sans-Serif" font-size="10.00" fill="#000000"> </text>
<polyline fill="none" stroke="#bfbfbf" points="809,-350 838,-350 "/>
<text text-anchor="middle" x="823.5" y="-338" font-family="Helvetica,sans-Serif" font-size="10.00" fill="#000000"> </text>
</g>
<!-- Node9&#45;&gt;Node1 -->
<g id="edge8" class="edge">
<title>Node9&#45;&gt;Node1</title>
<path fill="none" stroke="#404040" d="M820.4636,-330.9125C817.5391,-311.0808 811.9513,-284.4768 801.5,-263 793.9059,-247.3947 784.2798,-231.981 773.8525,-217.4031"/>
<polygon fill="none" stroke="#404040" points="773.6389,-217.1131 766.8595,-214.6553 766.5208,-207.4521 773.3001,-209.9099 773.6389,-217.1131"/>
<text text-anchor="middle" x="828.5" y="-282.5" font-family="Helvetica,sans-Serif" font-size="10.00" fill="#000000"> &#45;dim</text>
</g>
<!-- Node10 -->
<g id="node10" class="node">
<title>Node10</title>
<polygon fill="#ffffff" stroke="#bfbfbf" points="856.5,-331 856.5,-388 894.5,-388 894.5,-331 856.5,-331"/>
<text text-anchor="middle" x="875.5" y="-376" font-family="Helvetica,sans-Serif" font-size="10.00" fill="#000000">bool</text>
<polyline fill="none" stroke="#bfbfbf" points="856.5,-369 894.5,-369 "/>
<text text-anchor="middle" x="875.5" y="-357" font-family="Helvetica,sans-Serif" font-size="10.00" fill="#000000"> </text>
<polyline fill="none" stroke="#bfbfbf" points="856.5,-350 894.5,-350 "/>
<text text-anchor="middle" x="875.5" y="-338" font-family="Helvetica,sans-Serif" font-size="10.00" fill="#000000"> </text>
</g>
<!-- Node10&#45;&gt;Node1 -->
<g id="edge9" class="edge">
<title>Node10&#45;&gt;Node1</title>
<path fill="none" stroke="#404040" d="M870.8017,-330.7308C866.5343,-310.5684 858.81,-283.6433 845.5,-263 827.0757,-234.4246 801.2999,-208.1343 775.9043,-186.2164"/>
<polygon fill="none" stroke="#404040" points="775.7483,-186.0847 768.5834,-185.2701 766.5795,-178.343 773.7445,-179.1576 775.7483,-186.0847"/>
<text text-anchor="middle" x="889" y="-282.5" font-family="Helvetica,sans-Serif" font-size="10.00" fill="#000000"> +verbose</text>
</g>
<!-- Node11 -->
<g id="node11" class="node">
<title>Node11</title>
<polygon fill="#ffffff" stroke="#bfbfbf" points="913,-331 913,-388 1016,-388 1016,-331 913,-331"/>
<text text-anchor="middle" x="964.5" y="-376" font-family="Helvetica,sans-Serif" font-size="10.00" fill="#000000">Vector&lt; double &gt;</text>
<polyline fill="none" stroke="#bfbfbf" points="913,-369 1016,-369 "/>
<text text-anchor="middle" x="964.5" y="-357" font-family="Helvetica,sans-Serif" font-size="10.00" fill="#000000"> </text>
<polyline fill="none" stroke="#bfbfbf" points="913,-350 1016,-350 "/>
<text text-anchor="middle" x="964.5" y="-338" font-family="Helvetica,sans-Serif" font-size="10.00" fill="#000000"> </text>
</g>
<!-- Node11&#45;&gt;Node1 -->
<g id="edge10" class="edge">
<title>Node11&#45;&gt;Node1</title>
<path fill="none" stroke="#404040" d="M955.7674,-330.7697C948.386,-310.1097 936.1649,-282.5579 918.5,-263 879.5326,-219.8568 824.2018,-185.5733 777.4615,-161.6749"/>
<polygon fill="none" stroke="#404040" points="777.4333,-161.6608 770.2767,-162.5458 766.7072,-156.28 773.8639,-155.3951 777.4333,-161.6608"/>
<text text-anchor="middle" x="975" y="-288" font-family="Helvetica,sans-Serif" font-size="10.00" fill="#000000"> &#45;solution</text>
<text text-anchor="middle" x="975" y="-277" font-family="Helvetica,sans-Serif" font-size="10.00" fill="#000000">&#45;system_rhs</text>
</g>
<!-- Node12 -->
<g id="node12" class="node">
<title>Node12</title>
<polygon fill="#ffffff" stroke="#bfbfbf" points="1034,-331 1034,-388 1159,-388 1159,-331 1034,-331"/>
<text text-anchor="middle" x="1096.5" y="-376" font-family="Helvetica,sans-Serif" font-size="10.00" fill="#000000">const QGauss&lt; dim &gt;</text>
<polyline fill="none" stroke="#bfbfbf" points="1034,-369 1159,-369 "/>
<text text-anchor="middle" x="1096.5" y="-357" font-family="Helvetica,sans-Serif" font-size="10.00" fill="#000000"> </text>
<polyline fill="none" stroke="#bfbfbf" points="1034,-350 1159,-350 "/>
<text text-anchor="middle" x="1096.5" y="-338" font-family="Helvetica,sans-Serif" font-size="10.00" fill="#000000"> </text>
</g>
<!-- Node12&#45;&gt;Node1 -->
<g id="edge11" class="edge">
<title>Node12&#45;&gt;Node1</title>
<path fill="none" stroke="#404040" d="M1075.9097,-330.7133C1059.7516,-309.7554 1035.6724,-281.8542 1009.5,-263 938.3911,-211.7741 845.665,-173.7899 777.9901,-150.3208"/>
<polygon fill="none" stroke="#404040" points="777.8599,-150.2763 770.8884,-152.1198 766.5054,-146.3936 773.4769,-144.5501 777.8599,-150.2763"/>
<text text-anchor="middle" x="1107.5" y="-282.5" font-family="Helvetica,sans-Serif" font-size="10.00" fill="#000000"> &#45;quadrature_formula</text>
</g>
<!-- Node13 -->
<g id="node13" class="node">
<title>Node13</title>
<polygon fill="#ffffff" stroke="#bfbfbf" points="1177,-331 1177,-388 1238,-388 1238,-331 1177,-331"/>
<text text-anchor="middle" x="1207.5" y="-376" font-family="Helvetica,sans-Serif" font-size="10.00" fill="#000000">unsigned</text>
<polyline fill="none" stroke="#bfbfbf" points="1177,-369 1238,-369 "/>
<text text-anchor="middle" x="1207.5" y="-357" font-family="Helvetica,sans-Serif" font-size="10.00" fill="#000000"> </text>
<polyline fill="none" stroke="#bfbfbf" points="1177,-350 1238,-350 "/>
<text text-anchor="middle" x="1207.5" y="-338" font-family="Helvetica,sans-Serif" font-size="10.00" fill="#000000"> </text>
</g>
<!-- Node13&#45;&gt;Node1 -->
<g id="edge12" class="edge">
<title>Node13&#45;&gt;Node1</title>
<path fill="none" stroke="#404040" d="M1201.2274,-330.6783C1195.0982,-309.1382 1183.6598,-280.5042 1163.5,-263 1105.8088,-212.9082 899.6141,-164.7921 778.3544,-139.9537"/>
<polygon fill="none" stroke="#404040" points="778.2914,-139.941 771.6148,-142.6656 766.5318,-137.5506 773.2084,-134.8259 778.2914,-139.941"/>
<text text-anchor="middle" x="1267" y="-293.5" font-family="Helvetica,sans-Serif" font-size="10.00" fill="#000000"> +num_of_static_refinments</text>
<text text-anchor="middle" x="1267" y="-282.5" font-family="Helvetica,sans-Serif" font-size="10.00" fill="#000000">+number_of_iterations</text>
<text text-anchor="middle" x="1267" y="-271.5" font-family="Helvetica,sans-Serif" font-size="10.00" fill="#000000">+num_of_adaptive_refinments</text>
</g>
<!-- Node14 -->
<g id="node14" class="node">
<title>Node14</title>
<polygon fill="#ffffff" stroke="#bfbfbf" points="1313.5,-331 1313.5,-388 1449.5,-388 1449.5,-331 1313.5,-331"/>
<text text-anchor="middle" x="1381.5" y="-376" font-family="Helvetica,sans-Serif" font-size="10.00" fill="#000000">SparseMatrix&lt; double &gt;</text>
<polyline fill="none" stroke="#bfbfbf" points="1313.5,-369 1449.5,-369 "/>
<text text-anchor="middle" x="1381.5" y="-357" font-family="Helvetica,sans-Serif" font-size="10.00" fill="#000000"> </text>
<polyline fill="none" stroke="#bfbfbf" points="1313.5,-350 1449.5,-350 "/>
<text text-anchor="middle" x="1381.5" y="-338" font-family="Helvetica,sans-Serif" font-size="10.00" fill="#000000"> </text>
</g>
<!-- Node14&#45;&gt;Node1 -->
<g id="edge13" class="edge">
<title>Node14&#45;&gt;Node1</title>
<path fill="none" stroke="#404040" d="M1378.5356,-330.8252C1374.7467,-309.0716 1366.122,-280.0873 1346.5,-263 1262.5622,-189.9054 939.2879,-147.8458 778.868,-131.0704"/>
<polygon fill="none" stroke="#404040" points="778.6054,-131.0434 772.2262,-134.4058 766.6688,-129.8107 773.048,-126.4482 778.6054,-131.0434"/>
<text text-anchor="middle" x="1412" y="-282.5" font-family="Helvetica,sans-Serif" font-size="10.00" fill="#000000"> &#45;system_matrix</text>
</g>
</g>
</svg>
