<?xml version="1.0" encoding="UTF-8" standalone="no"?>
<!DOCTYPE svg PUBLIC "-//W3C//DTD SVG 1.1//EN"
 "http://www.w3.org/Graphics/SVG/1.1/DTD/svg11.dtd">
<!-- Generated by graphviz version 2.40.1 (20161225.0304)
 -->
<!-- Title: River::BranchNew::AddPoint Pages: 1 -->
<svg width="318pt" height="104pt"
 viewBox="0.00 0.00 318.00 104.00" xmlns="http://www.w3.org/2000/svg" xmlns:xlink="http://www.w3.org/1999/xlink">
<g id="graph0" class="graph" transform="scale(1 1) rotate(0) translate(4 100)">
<title>River::BranchNew::AddPoint</title>
<polygon fill="#ffffff" stroke="transparent" points="-4,4 -4,-100 314,-100 314,4 -4,4"/>
<!-- Node8 -->
<g id="node1" class="node">
<title>Node8</title>
<polygon fill="#bfbfbf" stroke="#000000" points="0,-38.5 0,-57.5 143,-57.5 143,-38.5 0,-38.5"/>
<text text-anchor="middle" x="71.5" y="-45.5" font-family="Helvetica,sans-Serif" font-size="10.00" fill="#000000">River::BranchNew::AddPoint</text>
</g>
<!-- Node9 -->
<g id="node2" class="node">
<title>Node9</title>
<g id="a_node2"><a xlink:href="classRiver_1_1BranchNew.html#a3d751724e8b8c4349c7ce25eee3a2995" target="_top" xlink:title="Reduces lenght of branch by lenght. ">
<polygon fill="#ffffff" stroke="#000000" points="179,-76.5 179,-95.5 310,-95.5 310,-76.5 179,-76.5"/>
<text text-anchor="middle" x="244.5" y="-83.5" font-family="Helvetica,sans-Serif" font-size="10.00" fill="#000000">River::BranchNew::Shrink</text>
</a>
</g>
</g>
<!-- Node8&#45;&gt;Node9 -->
<g id="edge1" class="edge">
<title>Node8&#45;&gt;Node9</title>
<path fill="none" stroke="#191970" d="M125.0051,-59.7526C149.4673,-65.1258 178.0707,-71.4086 201.1587,-76.4799"/>
<polygon fill="#191970" stroke="#191970" points="125.6733,-56.316 115.1552,-57.589 124.1714,-63.153 125.6733,-56.316"/>
</g>
<!-- Node10 -->
<g id="node3" class="node">
<title>Node10</title>
<g id="a_node3"><a xlink:href="classRiver_1_1Tree.html#a962912e5e983212d60e1c1ad1e7f71ea" target="_top" xlink:title="Adds relatively points to Branches tips_id. ">
<polygon fill="#ffffff" stroke="#000000" points="186.5,-38.5 186.5,-57.5 302.5,-57.5 302.5,-38.5 186.5,-38.5"/>
<text text-anchor="middle" x="244.5" y="-45.5" font-family="Helvetica,sans-Serif" font-size="10.00" fill="#000000">River::Tree::AddPoints</text>
</a>
</g>
</g>
<!-- Node8&#45;&gt;Node10 -->
<g id="edge2" class="edge">
<title>Node8&#45;&gt;Node10</title>
<path fill="none" stroke="#191970" d="M153.3174,-48C164.4826,-48 175.752,-48 186.3788,-48"/>
<polygon fill="#191970" stroke="#191970" points="153.1146,-44.5001 143.1145,-48 153.1145,-51.5001 153.1146,-44.5001"/>
</g>
<!-- Node11 -->
<g id="node4" class="node">
<title>Node11</title>
<g id="a_node4"><a xlink:href="classRiver_1_1Tree.html#aacb2b48d2d93ab153d751521da994f4b" target="_top" xlink:title="Adds relatively points to Branches tips_id. ">
<polygon fill="#ffffff" stroke="#000000" points="186.5,-.5 186.5,-19.5 302.5,-19.5 302.5,-.5 186.5,-.5"/>
<text text-anchor="middle" x="244.5" y="-7.5" font-family="Helvetica,sans-Serif" font-size="10.00" fill="#000000">River::Tree::AddPolars</text>
</a>
</g>
</g>
<!-- Node8&#45;&gt;Node11 -->
<g id="edge3" class="edge">
<title>Node8&#45;&gt;Node11</title>
<path fill="none" stroke="#191970" d="M125.0051,-36.2474C149.4673,-30.8742 178.0707,-24.5914 201.1587,-19.5201"/>
<polygon fill="#191970" stroke="#191970" points="124.1714,-32.847 115.1552,-38.411 125.6733,-39.684 124.1714,-32.847"/>
</g>
</g>
</svg>
