<?xml version="1.0" encoding="UTF-8" standalone="no"?>
<!DOCTYPE svg PUBLIC "-//W3C//DTD SVG 1.1//EN"
 "http://www.w3.org/Graphics/SVG/1.1/DTD/svg11.dtd">
<!-- Generated by graphviz version 2.40.1 (20161225.0304)
 -->
<!-- Title: River::Model Pages: 1 -->
<svg width="1201pt" height="548pt"
 viewBox="0.00 0.00 1200.50 548.00" xmlns="http://www.w3.org/2000/svg" xmlns:xlink="http://www.w3.org/1999/xlink">
<g id="graph0" class="graph" transform="scale(1 1) rotate(0) translate(4 544)">
<title>River::Model</title>
<polygon fill="#ffffff" stroke="transparent" points="-4,4 -4,-544 1196.5,-544 1196.5,4 -4,4"/>
<!-- Node1 -->
<g id="node1" class="node">
<title>Node1</title>
<polygon fill="#bfbfbf" stroke="#000000" points="660.5,-.5 660.5,-123.5 840.5,-123.5 840.5,-.5 660.5,-.5"/>
<text text-anchor="middle" x="750.5" y="-111.5" font-family="Helvetica,sans-Serif" font-size="10.00" fill="#000000">River::Model</text>
<polyline fill="none" stroke="#000000" points="660.5,-104.5 840.5,-104.5 "/>
<text text-anchor="start" x="668.5" y="-92.5" font-family="Helvetica,sans-Serif" font-size="10.00" fill="#000000">+ bifurcation_threshold</text>
<text text-anchor="start" x="668.5" y="-81.5" font-family="Helvetica,sans-Serif" font-size="10.00" fill="#000000">+ bifurcation_angle</text>
<polyline fill="none" stroke="#000000" points="660.5,-74.5 840.5,-74.5 "/>
<text text-anchor="start" x="668.5" y="-62.5" font-family="Helvetica,sans-Serif" font-size="10.00" fill="#000000">+ q_bifurcate()</text>
<text text-anchor="start" x="668.5" y="-51.5" font-family="Helvetica,sans-Serif" font-size="10.00" fill="#000000">+ q_growth()</text>
<text text-anchor="start" x="668.5" y="-40.5" font-family="Helvetica,sans-Serif" font-size="10.00" fill="#000000">+ next_point()</text>
<text text-anchor="start" x="668.5" y="-29.5" font-family="Helvetica,sans-Serif" font-size="10.00" fill="#000000">+ GetZeroIndices()</text>
<text text-anchor="start" x="668.5" y="-18.5" font-family="Helvetica,sans-Serif" font-size="10.00" fill="#000000">+ GetNonZeroIndices()</text>
<text text-anchor="start" x="668.5" y="-7.5" font-family="Helvetica,sans-Serif" font-size="10.00" fill="#000000">+ CheckParametersConsistency()</text>
</g>
<!-- Node2 -->
<g id="node2" class="node">
<title>Node2</title>
<g id="a_node2"><a xlink:href="classRiver_1_1ProgramOptions.html" target="_top" xlink:title="Global program options. ">
<polygon fill="#ffffff" stroke="#000000" points="622,-219.5 622,-276.5 749,-276.5 749,-219.5 622,-219.5"/>
<text text-anchor="middle" x="685.5" y="-264.5" font-family="Helvetica,sans-Serif" font-size="10.00" fill="#000000">River::ProgramOptions</text>
<polyline fill="none" stroke="#000000" points="622,-257.5 749,-257.5 "/>
<text text-anchor="middle" x="685.5" y="-245.5" font-family="Helvetica,sans-Serif" font-size="10.00" fill="#000000"> </text>
<polyline fill="none" stroke="#000000" points="622,-238.5 749,-238.5 "/>
<text text-anchor="middle" x="685.5" y="-226.5" font-family="Helvetica,sans-Serif" font-size="10.00" fill="#000000"> </text>
</a>
</g>
</g>
<!-- Node2&#45;&gt;Node1 -->
<g id="edge1" class="edge">
<title>Node2&#45;&gt;Node1</title>
<path fill="none" stroke="#404040" d="M693.3085,-219.4099C699.3716,-197.9353 708.2755,-167.895 717.5,-142 718.2941,-139.7709 719.1153,-137.5133 719.9574,-135.2391"/>
<polygon fill="none" stroke="#404040" points="720.0476,-135.0019 718.4411,-127.972 724.3123,-123.7852 725.9188,-130.8151 720.0476,-135.0019"/>
<text text-anchor="middle" x="745" y="-145" font-family="Helvetica,sans-Serif" font-size="10.00" fill="#000000"> +prog_opt</text>
</g>
<!-- Node3 -->
<g id="node3" class="node">
<title>Node3</title>
<polygon fill="#ffffff" stroke="#bfbfbf" points="187.5,-482.5 187.5,-539.5 237.5,-539.5 237.5,-482.5 187.5,-482.5"/>
<text text-anchor="middle" x="212.5" y="-527.5" font-family="Helvetica,sans-Serif" font-size="10.00" fill="#000000">double</text>
<polyline fill="none" stroke="#bfbfbf" points="187.5,-520.5 237.5,-520.5 "/>
<text text-anchor="middle" x="212.5" y="-508.5" font-family="Helvetica,sans-Serif" font-size="10.00" fill="#000000"> </text>
<polyline fill="none" stroke="#bfbfbf" points="187.5,-501.5 237.5,-501.5 "/>
<text text-anchor="middle" x="212.5" y="-489.5" font-family="Helvetica,sans-Serif" font-size="10.00" fill="#000000"> </text>
</g>
<!-- Node3&#45;&gt;Node1 -->
<g id="edge8" class="edge">
<title>Node3&#45;&gt;Node1</title>
<path fill="none" stroke="#404040" d="M198.9427,-482.4504C196.6857,-476.4807 194.6929,-470.134 193.5,-464 183.2335,-411.2113 171.5645,-392.1007 193.5,-343 240.2308,-238.3971 285.5323,-226.9642 385.5,-171 468.0743,-124.773 572.3773,-96.1684 648.3183,-79.9288"/>
<polygon fill="none" stroke="#404040" points="648.5102,-79.8887 653.5624,-74.7433 660.2552,-77.4279 655.203,-82.5733 648.5102,-79.8887"/>
<text text-anchor="middle" x="432.5" y="-317" font-family="Helvetica,sans-Serif" font-size="10.00" fill="#000000"> +eta</text>
<text text-anchor="middle" x="432.5" y="-306" font-family="Helvetica,sans-Serif" font-size="10.00" fill="#000000">+height</text>
<text text-anchor="middle" x="432.5" y="-295" font-family="Helvetica,sans-Serif" font-size="10.00" fill="#000000">+field_value</text>
<text text-anchor="middle" x="432.5" y="-284" font-family="Helvetica,sans-Serif" font-size="10.00" fill="#000000">+ds</text>
<text text-anchor="start" x="385.5" y="-273" font-family="Helvetica,sans-Serif" font-size="10.00" fill="#000000">+bifurcation</text>
<text text-anchor="middle" x="432.5" y="-262" font-family="Helvetica,sans-Serif" font-size="10.00" fill="#000000">_threshold_2</text>
<text text-anchor="middle" x="432.5" y="-251" font-family="Helvetica,sans-Serif" font-size="10.00" fill="#000000">+width</text>
<text text-anchor="middle" x="432.5" y="-240" font-family="Helvetica,sans-Serif" font-size="10.00" fill="#000000">+dx</text>
<text text-anchor="start" x="385.5" y="-229" font-family="Helvetica,sans-Serif" font-size="10.00" fill="#000000">+bifurcation</text>
<text text-anchor="middle" x="432.5" y="-218" font-family="Helvetica,sans-Serif" font-size="10.00" fill="#000000">_min_dist</text>
<text text-anchor="start" x="385.5" y="-207" font-family="Helvetica,sans-Serif" font-size="10.00" fill="#000000">+growth_min</text>
<text text-anchor="middle" x="432.5" y="-196" font-family="Helvetica,sans-Serif" font-size="10.00" fill="#000000">_distance</text>
<text text-anchor="middle" x="432.5" y="-185" font-family="Helvetica,sans-Serif" font-size="10.00" fill="#000000">+growth_threshold</text>
<text text-anchor="middle" x="432.5" y="-174" font-family="Helvetica,sans-Serif" font-size="10.00" fill="#000000">...</text>
</g>
<!-- Node3&#45;&gt;Node2 -->
<g id="edge2" class="edge">
<title>Node3&#45;&gt;Node2</title>
<path fill="none" stroke="#404040" d="M237.9279,-506.4527C261.814,-500.7849 296.6249,-488.6618 315.5,-464 348.6283,-420.7152 295.0991,-379.59 335.5,-343 381.2212,-301.5916 556.65,-351.1891 612.5,-325 630.833,-316.4033 646.8812,-300.9928 659.2267,-286.2048"/>
<polygon fill="none" stroke="#404040" points="659.3404,-286.0612 659.9305,-278.8742 666.7915,-276.6547 666.2014,-283.8417 659.3404,-286.0612"/>
<text text-anchor="middle" x="395" y="-401" font-family="Helvetica,sans-Serif" font-size="10.00" fill="#000000"> +maximal_river_height</text>
</g>
<!-- Node6 -->
<g id="node6" class="node">
<title>Node6</title>
<g id="a_node6"><a xlink:href="classRiver_1_1SolverParams.html" target="_top" xlink:title="Holds All parameters used in Deal.II solver. ">
<polygon fill="#ffffff" stroke="#000000" points="489,-219.5 489,-276.5 604,-276.5 604,-219.5 489,-219.5"/>
<text text-anchor="middle" x="546.5" y="-264.5" font-family="Helvetica,sans-Serif" font-size="10.00" fill="#000000">River::SolverParams</text>
<polyline fill="none" stroke="#000000" points="489,-257.5 604,-257.5 "/>
<text text-anchor="middle" x="546.5" y="-245.5" font-family="Helvetica,sans-Serif" font-size="10.00" fill="#000000"> </text>
<polyline fill="none" stroke="#000000" points="489,-238.5 604,-238.5 "/>
<text text-anchor="middle" x="546.5" y="-226.5" font-family="Helvetica,sans-Serif" font-size="10.00" fill="#000000"> </text>
</a>
</g>
</g>
<!-- Node3&#45;&gt;Node6 -->
<g id="edge6" class="edge">
<title>Node3&#45;&gt;Node6</title>
<path fill="none" stroke="#404040" d="M203.1866,-482.4419C193.2681,-446.1064 182.8225,-383.2463 213.5,-343 231.4124,-319.5004 249.0741,-333.0657 277.5,-325 345.4186,-305.7284 422.9198,-283.521 477.2327,-267.9226"/>
<polygon fill="none" stroke="#404040" points="477.2673,-267.9127 481.9297,-262.4116 488.8008,-264.5995 484.1385,-270.1007 477.2673,-267.9127"/>
<text text-anchor="middle" x="264.5" y="-406.5" font-family="Helvetica,sans-Serif" font-size="10.00" fill="#000000"> +refinment_fraction</text>
<text text-anchor="middle" x="264.5" y="-395.5" font-family="Helvetica,sans-Serif" font-size="10.00" fill="#000000">+tollerance</text>
</g>
<!-- Node8 -->
<g id="node8" class="node">
<title>Node8</title>
<g id="a_node8"><a xlink:href="classRiver_1_1MeshParams.html" target="_top" xlink:title="Adaptive mesh area constraint function. ">
<polygon fill="#ffffff" stroke="#000000" points="909.5,-219.5 909.5,-276.5 1019.5,-276.5 1019.5,-219.5 909.5,-219.5"/>
<text text-anchor="middle" x="964.5" y="-264.5" font-family="Helvetica,sans-Serif" font-size="10.00" fill="#000000">River::MeshParams</text>
<polyline fill="none" stroke="#000000" points="909.5,-257.5 1019.5,-257.5 "/>
<text text-anchor="middle" x="964.5" y="-245.5" font-family="Helvetica,sans-Serif" font-size="10.00" fill="#000000"> </text>
<polyline fill="none" stroke="#000000" points="909.5,-238.5 1019.5,-238.5 "/>
<text text-anchor="start" x="917.5" y="-226.5" font-family="Helvetica,sans-Serif" font-size="10.00" fill="#000000">+ operator()()</text>
</a>
</g>
</g>
<!-- Node3&#45;&gt;Node8 -->
<g id="edge11" class="edge">
<title>Node3&#45;&gt;Node8</title>
<path fill="none" stroke="#404040" d="M237.5591,-507.3759C281.0146,-501.2222 373.2108,-488.7432 451.5,-482 490.5177,-478.6393 772.0079,-487.2793 803.5,-464 849.5156,-429.9849 807.2401,-383.6646 847.5,-343 863.53,-326.8089 876.6885,-337.8546 895.5,-325 910.765,-314.5689 924.9162,-300.0668 936.3787,-286.4581"/>
<polygon fill="none" stroke="#404040" points="936.6699,-286.0989 937.3417,-278.9192 944.2276,-276.7778 943.5558,-283.9576 936.6699,-286.0989"/>
<text text-anchor="middle" x="893" y="-456" font-family="Helvetica,sans-Serif" font-size="10.00" fill="#000000"> +min_area</text>
<text text-anchor="middle" x="893" y="-445" font-family="Helvetica,sans-Serif" font-size="10.00" fill="#000000">+refinment_radius</text>
<text text-anchor="middle" x="893" y="-434" font-family="Helvetica,sans-Serif" font-size="10.00" fill="#000000">+sigma</text>
<text text-anchor="middle" x="893" y="-423" font-family="Helvetica,sans-Serif" font-size="10.00" fill="#000000">+max_edge</text>
<text text-anchor="middle" x="893" y="-412" font-family="Helvetica,sans-Serif" font-size="10.00" fill="#000000">+max_area</text>
<text text-anchor="middle" x="893" y="-401" font-family="Helvetica,sans-Serif" font-size="10.00" fill="#000000">+exponant</text>
<text text-anchor="middle" x="893" y="-390" font-family="Helvetica,sans-Serif" font-size="10.00" fill="#000000">+eps</text>
<text text-anchor="middle" x="893" y="-379" font-family="Helvetica,sans-Serif" font-size="10.00" fill="#000000">+ratio</text>
<text text-anchor="middle" x="893" y="-368" font-family="Helvetica,sans-Serif" font-size="10.00" fill="#000000">+min_angle</text>
<text text-anchor="middle" x="893" y="-357" font-family="Helvetica,sans-Serif" font-size="10.00" fill="#000000">+min_edge</text>
<text text-anchor="middle" x="893" y="-346" font-family="Helvetica,sans-Serif" font-size="10.00" fill="#000000">...</text>
</g>
<!-- Node11 -->
<g id="node11" class="node">
<title>Node11</title>
<g id="a_node11"><a xlink:href="classRiver_1_1IntegrationParams.html" target="_top" xlink:title="Holds parameters used by integration of series paramets functionality(see River::Solver::integrate())...">
<polygon fill="#ffffff" stroke="#000000" points="0,-208.5 0,-287.5 137,-287.5 137,-208.5 0,-208.5"/>
<text text-anchor="middle" x="68.5" y="-275.5" font-family="Helvetica,sans-Serif" font-size="10.00" fill="#000000">River::IntegrationParams</text>
<polyline fill="none" stroke="#000000" points="0,-268.5 137,-268.5 "/>
<text text-anchor="middle" x="68.5" y="-256.5" font-family="Helvetica,sans-Serif" font-size="10.00" fill="#000000"> </text>
<polyline fill="none" stroke="#000000" points="0,-249.5 137,-249.5 "/>
<text text-anchor="start" x="8" y="-237.5" font-family="Helvetica,sans-Serif" font-size="10.00" fill="#000000">+ WeightFunction()</text>
<text text-anchor="start" x="8" y="-226.5" font-family="Helvetica,sans-Serif" font-size="10.00" fill="#000000">+ BaseVector()</text>
<text text-anchor="start" x="8" y="-215.5" font-family="Helvetica,sans-Serif" font-size="10.00" fill="#000000">+ BaseVectorFinal()</text>
</a>
</g>
</g>
<!-- Node3&#45;&gt;Node11 -->
<g id="edge16" class="edge">
<title>Node3&#45;&gt;Node11</title>
<path fill="none" stroke="#404040" d="M187.421,-506.7971C148.7375,-499.7457 77.4044,-484.289 62.5,-464 27.7956,-416.7578 37.6925,-346.7129 50.6727,-299.3028"/>
<polygon fill="none" stroke="#404040" points="50.676,-299.2912 48.5028,-292.4153 54.0139,-287.7647 56.1871,-294.6406 50.676,-299.2912"/>
<text text-anchor="middle" x="114" y="-412" font-family="Helvetica,sans-Serif" font-size="10.00" fill="#000000"> +integration_radius</text>
<text text-anchor="middle" x="114" y="-401" font-family="Helvetica,sans-Serif" font-size="10.00" fill="#000000">+weigth_func_radius</text>
<text text-anchor="middle" x="114" y="-390" font-family="Helvetica,sans-Serif" font-size="10.00" fill="#000000">+exponant</text>
</g>
<!-- Node4 -->
<g id="node4" class="node">
<title>Node4</title>
<polygon fill="#ffffff" stroke="#bfbfbf" points="460.5,-482.5 460.5,-539.5 498.5,-539.5 498.5,-482.5 460.5,-482.5"/>
<text text-anchor="middle" x="479.5" y="-527.5" font-family="Helvetica,sans-Serif" font-size="10.00" fill="#000000">bool</text>
<polyline fill="none" stroke="#bfbfbf" points="460.5,-520.5 498.5,-520.5 "/>
<text text-anchor="middle" x="479.5" y="-508.5" font-family="Helvetica,sans-Serif" font-size="10.00" fill="#000000"> </text>
<polyline fill="none" stroke="#bfbfbf" points="460.5,-501.5 498.5,-501.5 "/>
<text text-anchor="middle" x="479.5" y="-489.5" font-family="Helvetica,sans-Serif" font-size="10.00" fill="#000000"> </text>
</g>
<!-- Node4&#45;&gt;Node2 -->
<g id="edge3" class="edge">
<title>Node4&#45;&gt;Node2</title>
<path fill="none" stroke="#404040" d="M469.5281,-482.3882C458.6519,-445.4092 446.9161,-381.244 480.5,-343 500.0345,-320.7549 586.1563,-338.5076 612.5,-325 630.3835,-315.8303 646.2827,-300.4911 658.6408,-285.9065"/>
<polygon fill="none" stroke="#404040" points="658.6955,-285.8389 659.3539,-278.6578 666.2358,-276.5037 665.5773,-283.6847 658.6955,-285.8389"/>
<text text-anchor="middle" x="508.5" y="-406.5" font-family="Helvetica,sans-Serif" font-size="10.00" fill="#000000"> +save_vtk</text>
<text text-anchor="middle" x="508.5" y="-395.5" font-family="Helvetica,sans-Serif" font-size="10.00" fill="#000000">+verbose</text>
</g>
<!-- Node5 -->
<g id="node5" class="node">
<title>Node5</title>
<polygon fill="#ffffff" stroke="#bfbfbf" points="778,-482.5 778,-539.5 839,-539.5 839,-482.5 778,-482.5"/>
<text text-anchor="middle" x="808.5" y="-527.5" font-family="Helvetica,sans-Serif" font-size="10.00" fill="#000000">unsigned</text>
<polyline fill="none" stroke="#bfbfbf" points="778,-520.5 839,-520.5 "/>
<text text-anchor="middle" x="808.5" y="-508.5" font-family="Helvetica,sans-Serif" font-size="10.00" fill="#000000"> </text>
<polyline fill="none" stroke="#bfbfbf" points="778,-501.5 839,-501.5 "/>
<text text-anchor="middle" x="808.5" y="-489.5" font-family="Helvetica,sans-Serif" font-size="10.00" fill="#000000"> </text>
</g>
<!-- Node5&#45;&gt;Node1 -->
<g id="edge17" class="edge">
<title>Node5&#45;&gt;Node1</title>
<path fill="none" stroke="#404040" d="M839.0744,-507.0396C864.8546,-501.9087 900.2288,-490.2557 917.5,-464 947.0545,-419.0714 952.642,-383.7073 917.5,-343 881.684,-301.5119 833.838,-364.1695 795.5,-325 738.1614,-266.4177 788.5201,-222.3925 772.5,-142 772.0751,-139.8677 771.6238,-137.7088 771.1508,-135.5338"/>
<polygon fill="none" stroke="#404040" points="771.143,-135.4998 765.8939,-130.5553 768.4392,-123.8083 773.6882,-128.7528 771.143,-135.4998"/>
<text text-anchor="middle" x="848" y="-256.5" font-family="Helvetica,sans-Serif" font-size="10.00" fill="#000000"> +growth_type</text>
<text text-anchor="middle" x="848" y="-245.5" font-family="Helvetica,sans-Serif" font-size="10.00" fill="#000000">+bifurcation_type</text>
<text text-anchor="middle" x="848" y="-234.5" font-family="Helvetica,sans-Serif" font-size="10.00" fill="#000000">+boundary_condition</text>
</g>
<!-- Node5&#45;&gt;Node2 -->
<g id="edge4" class="edge">
<title>Node5&#45;&gt;Node2</title>
<path fill="none" stroke="#404040" d="M777.8325,-503.4075C745.319,-494.666 697.1973,-479.5077 686.5,-464 667.585,-436.5792 674.442,-343.1878 680.4098,-288.598"/>
<polygon fill="none" stroke="#404040" points="680.4186,-288.5201 677.1228,-282.1062 681.7757,-276.597 685.0715,-283.0109 680.4186,-288.5201"/>
<text text-anchor="start" x="686.5" y="-417.5" font-family="Helvetica,sans-Serif" font-size="10.00" fill="#000000"> +number_of_backward</text>
<text text-anchor="middle" x="745" y="-406.5" font-family="Helvetica,sans-Serif" font-size="10.00" fill="#000000">_steps</text>
<text text-anchor="middle" x="745" y="-395.5" font-family="Helvetica,sans-Serif" font-size="10.00" fill="#000000">+number_of_steps</text>
<text text-anchor="middle" x="745" y="-384.5" font-family="Helvetica,sans-Serif" font-size="10.00" fill="#000000">+simulation_type</text>
</g>
<!-- Node5&#45;&gt;Node6 -->
<g id="edge7" class="edge">
<title>Node5&#45;&gt;Node6</title>
<path fill="none" stroke="#404040" d="M777.5559,-509.512C718.5695,-505.985 593.4112,-494.955 565.5,-464 543.0484,-439.1 542.6418,-344.2769 544.4721,-288.8909"/>
<polygon fill="none" stroke="#404040" points="544.4789,-288.7091 540.7078,-282.5626 544.9312,-276.7176 548.7022,-282.8641 544.4789,-288.7091"/>
<text text-anchor="middle" x="617.5" y="-417.5" font-family="Helvetica,sans-Serif" font-size="10.00" fill="#000000"> +num_of_iterrations</text>
<text text-anchor="start" x="565.5" y="-406.5" font-family="Helvetica,sans-Serif" font-size="10.00" fill="#000000">+adaptive_refinment</text>
<text text-anchor="middle" x="617.5" y="-395.5" font-family="Helvetica,sans-Serif" font-size="10.00" fill="#000000">_steps</text>
<text text-anchor="middle" x="617.5" y="-384.5" font-family="Helvetica,sans-Serif" font-size="10.00" fill="#000000">+quadrature_degree</text>
</g>
<!-- Node5&#45;&gt;Node8 -->
<g id="edge13" class="edge">
<title>Node5&#45;&gt;Node8</title>
<path fill="none" stroke="#404040" d="M839.0036,-504.2977C874.3706,-495.8739 929.4903,-480.5064 942.5,-464 953.07,-450.589 959.699,-347.9428 962.6703,-289.107"/>
<polygon fill="none" stroke="#404040" points="962.6802,-288.9017 958.9775,-282.7137 963.2654,-276.9159 966.968,-283.1038 962.6802,-288.9017"/>
<text text-anchor="start" x="958.5" y="-417.5" font-family="Helvetica,sans-Serif" font-size="10.00" fill="#000000"> +number_of_refined</text>
<text text-anchor="middle" x="1022" y="-406.5" font-family="Helvetica,sans-Serif" font-size="10.00" fill="#000000">_quadrangles</text>
<text text-anchor="middle" x="1022" y="-395.5" font-family="Helvetica,sans-Serif" font-size="10.00" fill="#000000">+number_of_quadrangles</text>
<text text-anchor="middle" x="1022" y="-384.5" font-family="Helvetica,sans-Serif" font-size="10.00" fill="#000000">+static_refinment_steps</text>
</g>
<!-- Node6&#45;&gt;Node1 -->
<g id="edge5" class="edge">
<title>Node6&#45;&gt;Node1</title>
<path fill="none" stroke="#404040" d="M564.1549,-219.26C578.9775,-196.5948 601.67,-165.0679 626.5,-142 633.9197,-135.1068 642.0048,-128.4349 650.3728,-122.0803"/>
<polygon fill="none" stroke="#404040" points="650.6383,-121.8849 653.0997,-115.1069 660.3031,-114.772 657.8416,-121.55 650.6383,-121.8849"/>
<text text-anchor="middle" x="668.5" y="-145" font-family="Helvetica,sans-Serif" font-size="10.00" fill="#000000"> +solver_params</text>
</g>
<!-- Node7 -->
<g id="node7" class="node">
<title>Node7</title>
<polygon fill="#ffffff" stroke="#bfbfbf" points="1038,-219.5 1038,-276.5 1067,-276.5 1067,-219.5 1038,-219.5"/>
<text text-anchor="middle" x="1052.5" y="-264.5" font-family="Helvetica,sans-Serif" font-size="10.00" fill="#000000">int</text>
<polyline fill="none" stroke="#bfbfbf" points="1038,-257.5 1067,-257.5 "/>
<text text-anchor="middle" x="1052.5" y="-245.5" font-family="Helvetica,sans-Serif" font-size="10.00" fill="#000000"> </text>
<polyline fill="none" stroke="#bfbfbf" points="1038,-238.5 1067,-238.5 "/>
<text text-anchor="middle" x="1052.5" y="-226.5" font-family="Helvetica,sans-Serif" font-size="10.00" fill="#000000"> </text>
</g>
<!-- Node7&#45;&gt;Node1 -->
<g id="edge9" class="edge">
<title>Node7&#45;&gt;Node1</title>
<path fill="none" stroke="#404040" d="M1049.6592,-219.3389C1046.7123,-203.3685 1040.7123,-184.1185 1028.5,-171 982.4827,-121.568 911.3082,-94.2193 852.4977,-79.2793"/>
<polygon fill="none" stroke="#404040" points="852.1903,-79.2045 845.4142,-81.6712 840.531,-76.365 847.3071,-73.8984 852.1903,-79.2045"/>
<text text-anchor="middle" x="1054.5" y="-145" font-family="Helvetica,sans-Serif" font-size="10.00" fill="#000000"> +river_boundary_id</text>
</g>
<!-- Node8&#45;&gt;Node1 -->
<g id="edge10" class="edge">
<title>Node8&#45;&gt;Node1</title>
<path fill="none" stroke="#404040" d="M941.1532,-219.3314C928.3332,-204.2845 911.769,-185.9259 895.5,-171 880.6598,-157.3849 864.1857,-143.7703 847.82,-131.0054"/>
<polygon fill="none" stroke="#404040" points="847.7124,-130.9225 840.5184,-130.4259 838.2098,-123.5943 845.4038,-124.0909 847.7124,-130.9225"/>
<text text-anchor="middle" x="892" y="-145" font-family="Helvetica,sans-Serif" font-size="10.00" fill="#000000"> +mesh</text>
</g>
<!-- Node9 -->
<g id="node9" class="node">
<title>Node9</title>
<polygon fill="#ffffff" stroke="#bfbfbf" points="1051.5,-482.5 1051.5,-539.5 1177.5,-539.5 1177.5,-482.5 1051.5,-482.5"/>
<text text-anchor="middle" x="1114.5" y="-527.5" font-family="Helvetica,sans-Serif" font-size="10.00" fill="#000000">vector&lt; River::Point &gt;</text>
<polyline fill="none" stroke="#bfbfbf" points="1051.5,-520.5 1177.5,-520.5 "/>
<text text-anchor="middle" x="1114.5" y="-508.5" font-family="Helvetica,sans-Serif" font-size="10.00" fill="#000000"> </text>
<polyline fill="none" stroke="#bfbfbf" points="1051.5,-501.5 1177.5,-501.5 "/>
<text text-anchor="middle" x="1114.5" y="-489.5" font-family="Helvetica,sans-Serif" font-size="10.00" fill="#000000"> </text>
</g>
<!-- Node9&#45;&gt;Node8 -->
<g id="edge12" class="edge">
<title>Node9&#45;&gt;Node8</title>
<path fill="none" stroke="#404040" d="M1119.4597,-482.2654C1124.0703,-445.449 1125.9155,-381.7702 1092.5,-343 1073.4884,-320.9419 1053.9534,-340.8123 1029.5,-325 1014.1323,-315.0628 1000.4704,-300.3895 989.6863,-286.5101"/>
<polygon fill="none" stroke="#404040" points="989.5041,-286.2642 982.7179,-283.8252 982.3592,-276.623 989.1453,-279.062 989.5041,-286.2642"/>
<text text-anchor="middle" x="1151.5" y="-401" font-family="Helvetica,sans-Serif" font-size="10.00" fill="#000000"> +tip_points</text>
</g>
<!-- Node10 -->
<g id="node10" class="node">
<title>Node10</title>
<polygon fill="#ffffff" stroke="#bfbfbf" points="1096,-219.5 1096,-276.5 1179,-276.5 1179,-219.5 1096,-219.5"/>
<text text-anchor="middle" x="1137.5" y="-264.5" font-family="Helvetica,sans-Serif" font-size="10.00" fill="#000000">vector&lt; int &gt;</text>
<polyline fill="none" stroke="#bfbfbf" points="1096,-257.5 1179,-257.5 "/>
<text text-anchor="middle" x="1137.5" y="-245.5" font-family="Helvetica,sans-Serif" font-size="10.00" fill="#000000"> </text>
<polyline fill="none" stroke="#bfbfbf" points="1096,-238.5 1179,-238.5 "/>
<text text-anchor="middle" x="1137.5" y="-226.5" font-family="Helvetica,sans-Serif" font-size="10.00" fill="#000000"> </text>
</g>
<!-- Node10&#45;&gt;Node1 -->
<g id="edge14" class="edge">
<title>Node10&#45;&gt;Node1</title>
<path fill="none" stroke="#404040" d="M1137.387,-219.167C1135.6901,-195.1909 1129.3463,-161.8849 1108.5,-142 1072.2438,-107.4159 945.3035,-85.1222 852.8565,-73.0761"/>
<polygon fill="none" stroke="#404040" points="852.8126,-73.0706 846.3544,-76.2786 840.9092,-71.551 847.3674,-68.343 852.8126,-73.0706"/>
<text text-anchor="middle" x="1154" y="-145" font-family="Helvetica,sans-Serif" font-size="10.00" fill="#000000"> +boundary_ids</text>
</g>
<!-- Node11&#45;&gt;Node1 -->
<g id="edge15" class="edge">
<title>Node11&#45;&gt;Node1</title>
<path fill="none" stroke="#404040" d="M79.6681,-208.4829C88.3289,-185.3209 102.7732,-157.6272 125.5,-142 208.1612,-85.1612 493.1811,-68.7027 648.1763,-63.9389"/>
<polygon fill="none" stroke="#404040" points="648.4812,-63.9301 654.361,-59.7553 660.476,-63.5771 654.5963,-67.7518 648.4812,-63.9301"/>
<text text-anchor="middle" x="145.5" y="-145" font-family="Helvetica,sans-Serif" font-size="10.00" fill="#000000"> +integr</text>
</g>
</g>
</svg>
