<?xml version="1.0" encoding="UTF-8" standalone="no"?>
<!DOCTYPE svg PUBLIC "-//W3C//DTD SVG 1.1//EN"
 "http://www.w3.org/Graphics/SVG/1.1/DTD/svg11.dtd">
<!-- Generated by graphviz version 2.43.0 (0)
 -->
<!-- Title: River::Region Pages: 1 -->
<svg width="195pt" height="248pt"
 viewBox="0.00 0.00 195.00 248.00" xmlns="http://www.w3.org/2000/svg" xmlns:xlink="http://www.w3.org/1999/xlink">
<g id="graph0" class="graph" transform="scale(1 1) rotate(0) translate(4 244)">
<title>River::Region</title>
<polygon fill="white" stroke="transparent" points="-4,4 -4,-244 191,-244 191,4 -4,4"/>
<!-- Node1 -->
<g id="node1" class="node">
<title>Node1</title>
<g id="a_node1"><a xlink:title="Structure which defines Region of region.">
<polygon fill="#bfbfbf" stroke="black" points="0,-0.5 0,-145.5 187,-145.5 187,-0.5 0,-0.5"/>
<text text-anchor="middle" x="93.5" y="-133.5" font-family="Helvetica,sans-Serif" font-size="10.00">River::Region</text>
<polyline fill="none" stroke="black" points="0,-126.5 187,-126.5 "/>
<text text-anchor="start" x="8" y="-114.5" font-family="Helvetica,sans-Serif" font-size="10.00">+ holes</text>
<polyline fill="none" stroke="black" points="0,-107.5 187,-107.5 "/>
<text text-anchor="start" x="8" y="-95.5" font-family="Helvetica,sans-Serif" font-size="10.00">+ Region()</text>
<text text-anchor="start" x="8" y="-84.5" font-family="Helvetica,sans-Serif" font-size="10.00">+ MakeRectangular()</text>
<text text-anchor="start" x="8" y="-73.5" font-family="Helvetica,sans-Serif" font-size="10.00">+ MakeRectangularWithHole()</text>
<text text-anchor="start" x="8" y="-62.5" font-family="Helvetica,sans-Serif" font-size="10.00">+ Check()</text>
<text text-anchor="start" x="8" y="-51.5" font-family="Helvetica,sans-Serif" font-size="10.00">+ GetHolesList()</text>
<text text-anchor="start" x="8" y="-40.5" font-family="Helvetica,sans-Serif" font-size="10.00">+ GetSourcesIdsPointsAndAngles()</text>
<text text-anchor="start" x="8" y="-29.5" font-family="Helvetica,sans-Serif" font-size="10.00">+ NormalAngle()</text>
<text text-anchor="start" x="8" y="-18.5" font-family="Helvetica,sans-Serif" font-size="10.00">+ GetAdjacentVerticesPositions()</text>
<text text-anchor="start" x="8" y="-7.5" font-family="Helvetica,sans-Serif" font-size="10.00">+ GetVerticeNormalAngle()</text>
</a>
</g>
</g>
<!-- Node2 -->
<g id="node2" class="node">
<title>Node2</title>
<g id="a_node2"><a xlink:href="classt__Boundaries.html" target="_top" xlink:title=" ">
<polygon fill="white" stroke="black" points="53.5,-182.5 53.5,-239.5 133.5,-239.5 133.5,-182.5 53.5,-182.5"/>
<text text-anchor="middle" x="93.5" y="-227.5" font-family="Helvetica,sans-Serif" font-size="10.00">t_Boundaries</text>
<polyline fill="none" stroke="black" points="53.5,-220.5 133.5,-220.5 "/>
<text text-anchor="middle" x="93.5" y="-208.5" font-family="Helvetica,sans-Serif" font-size="10.00"> </text>
<polyline fill="none" stroke="black" points="53.5,-201.5 133.5,-201.5 "/>
<text text-anchor="middle" x="93.5" y="-189.5" font-family="Helvetica,sans-Serif" font-size="10.00"> </text>
</a>
</g>
</g>
<!-- Node2&#45;&gt;Node1 -->
<g id="edge1" class="edge">
<title>Node2&#45;&gt;Node1</title>
<path fill="none" stroke="midnightblue" d="M93.5,-172.36C93.5,-164 93.5,-154.87 93.5,-145.66"/>
<polygon fill="none" stroke="midnightblue" points="90,-172.48 93.5,-182.48 97,-172.48 90,-172.48"/>
</g>
</g>
</svg>
