<?xml version="1.0" encoding="UTF-8" standalone="no"?>
<!DOCTYPE svg PUBLIC "-//W3C//DTD SVG 1.1//EN"
 "http://www.w3.org/Graphics/SVG/1.1/DTD/svg11.dtd">
<!-- Generated by graphviz version 2.40.1 (20161225.0304)
 -->
<!-- Title: tethex::Mesh Pages: 1 -->
<svg width="558pt" height="413pt"
 viewBox="0.00 0.00 558.00 413.00" xmlns="http://www.w3.org/2000/svg" xmlns:xlink="http://www.w3.org/1999/xlink">
<g id="graph0" class="graph" transform="scale(1 1) rotate(0) translate(4 409)">
<title>tethex::Mesh</title>
<polygon fill="#ffffff" stroke="transparent" points="-4,4 -4,-409 554,-409 554,4 -4,4"/>
<!-- Node1 -->
<g id="node1" class="node">
<title>Node1</title>
<polygon fill="#bfbfbf" stroke="#000000" points="196.5,-.5 196.5,-255.5 333.5,-255.5 333.5,-.5 196.5,-.5"/>
<text text-anchor="middle" x="265" y="-243.5" font-family="Helvetica,sans-Serif" font-size="10.00" fill="#000000">tethex::Mesh</text>
<polyline fill="none" stroke="#000000" points="196.5,-236.5 333.5,-236.5 "/>
<text text-anchor="middle" x="265" y="-224.5" font-family="Helvetica,sans-Serif" font-size="10.00" fill="#000000"> </text>
<polyline fill="none" stroke="#000000" points="196.5,-217.5 333.5,-217.5 "/>
<text text-anchor="start" x="204.5" y="-205.5" font-family="Helvetica,sans-Serif" font-size="10.00" fill="#000000">+ Mesh()</text>
<text text-anchor="start" x="204.5" y="-194.5" font-family="Helvetica,sans-Serif" font-size="10.00" fill="#000000">+ Mesh()</text>
<text text-anchor="start" x="204.5" y="-183.5" font-family="Helvetica,sans-Serif" font-size="10.00" fill="#000000">+ Mesh()</text>
<text text-anchor="start" x="204.5" y="-172.5" font-family="Helvetica,sans-Serif" font-size="10.00" fill="#000000">+ operator=()</text>
<text text-anchor="start" x="204.5" y="-161.5" font-family="Helvetica,sans-Serif" font-size="10.00" fill="#000000">+ Mesh()</text>
<text text-anchor="start" x="204.5" y="-150.5" font-family="Helvetica,sans-Serif" font-size="10.00" fill="#000000">+ Mesh()</text>
<text text-anchor="start" x="204.5" y="-139.5" font-family="Helvetica,sans-Serif" font-size="10.00" fill="#000000">+ ~Mesh()</text>
<text text-anchor="start" x="204.5" y="-128.5" font-family="Helvetica,sans-Serif" font-size="10.00" fill="#000000">+ read()</text>
<text text-anchor="start" x="204.5" y="-117.5" font-family="Helvetica,sans-Serif" font-size="10.00" fill="#000000">+ convert()</text>
<text text-anchor="start" x="204.5" y="-106.5" font-family="Helvetica,sans-Serif" font-size="10.00" fill="#000000">+ write()</text>
<text text-anchor="start" x="204.5" y="-95.5" font-family="Helvetica,sans-Serif" font-size="10.00" fill="#000000">and 27 more...</text>
<text text-anchor="start" x="204.5" y="-84.5" font-family="Helvetica,sans-Serif" font-size="10.00" fill="#000000"># edge_numeration()</text>
<text text-anchor="start" x="204.5" y="-73.5" font-family="Helvetica,sans-Serif" font-size="10.00" fill="#000000"># convert_2D()</text>
<text text-anchor="start" x="204.5" y="-62.5" font-family="Helvetica,sans-Serif" font-size="10.00" fill="#000000"># find_face_from_two</text>
<text text-anchor="start" x="204.5" y="-51.5" font-family="Helvetica,sans-Serif" font-size="10.00" fill="#000000">_edges()</text>
<text text-anchor="start" x="204.5" y="-40.5" font-family="Helvetica,sans-Serif" font-size="10.00" fill="#000000"># set_new_vertices()</text>
<text text-anchor="start" x="204.5" y="-29.5" font-family="Helvetica,sans-Serif" font-size="10.00" fill="#000000"># convert_triangles()</text>
<text text-anchor="start" x="204.5" y="-18.5" font-family="Helvetica,sans-Serif" font-size="10.00" fill="#000000"># redefine_lines()</text>
<text text-anchor="start" x="204.5" y="-7.5" font-family="Helvetica,sans-Serif" font-size="10.00" fill="#000000"># convert_quadrangles()</text>
</g>
<!-- Node2 -->
<g id="node2" class="node">
<title>Node2</title>
<polygon fill="#ffffff" stroke="#bfbfbf" points="0,-347.5 0,-404.5 98,-404.5 98,-347.5 0,-347.5"/>
<text text-anchor="middle" x="49" y="-392.5" font-family="Helvetica,sans-Serif" font-size="10.00" fill="#000000">vector&lt; string &gt;</text>
<polyline fill="none" stroke="#bfbfbf" points="0,-385.5 98,-385.5 "/>
<text text-anchor="middle" x="49" y="-373.5" font-family="Helvetica,sans-Serif" font-size="10.00" fill="#000000"> </text>
<polyline fill="none" stroke="#bfbfbf" points="0,-366.5 98,-366.5 "/>
<text text-anchor="middle" x="49" y="-354.5" font-family="Helvetica,sans-Serif" font-size="10.00" fill="#000000"> </text>
</g>
<!-- Node2&#45;&gt;Node1 -->
<g id="edge1" class="edge">
<title>Node2&#45;&gt;Node1</title>
<path fill="none" stroke="#404040" d="M67.7114,-347.4264C81.8377,-326.4808 102.1244,-297.6885 122,-274 142.2334,-249.8851 165.6182,-224.9489 187.5397,-202.6572"/>
<polygon fill="none" stroke="#404040" points="187.739,-202.4559 189.1176,-195.3777 196.1814,-193.9278 194.8029,-201.006 187.739,-202.4559"/>
<text text-anchor="middle" x="167.5" y="-299" font-family="Helvetica,sans-Serif" font-size="10.00" fill="#000000"> #physical_names</text>
</g>
<!-- Node3 -->
<g id="node3" class="node">
<title>Node3</title>
<polygon fill="#ffffff" stroke="#bfbfbf" points="116,-347.5 116,-404.5 298,-404.5 298,-347.5 116,-347.5"/>
<text text-anchor="middle" x="207" y="-392.5" font-family="Helvetica,sans-Serif" font-size="10.00" fill="#000000">vector&lt; tethex::MeshElement * &gt;</text>
<polyline fill="none" stroke="#bfbfbf" points="116,-385.5 298,-385.5 "/>
<text text-anchor="middle" x="207" y="-373.5" font-family="Helvetica,sans-Serif" font-size="10.00" fill="#000000"> </text>
<polyline fill="none" stroke="#bfbfbf" points="116,-366.5 298,-366.5 "/>
<text text-anchor="middle" x="207" y="-354.5" font-family="Helvetica,sans-Serif" font-size="10.00" fill="#000000"> </text>
</g>
<!-- Node3&#45;&gt;Node1 -->
<g id="edge2" class="edge">
<title>Node3&#45;&gt;Node1</title>
<path fill="none" stroke="#404040" d="M213.3411,-347.3981C217.9036,-326.9381 224.2424,-298.7534 230,-274 230.4987,-271.8559 231.0026,-269.6944 231.5108,-267.519"/>
<polygon fill="none" stroke="#404040" points="231.5257,-267.4552 229.0007,-260.7006 234.2645,-255.7719 236.7895,-262.5265 231.5257,-267.4552"/>
<text text-anchor="middle" x="266" y="-321" font-family="Helvetica,sans-Serif" font-size="10.00" fill="#000000"> #quadrangles</text>
<text text-anchor="middle" x="266" y="-310" font-family="Helvetica,sans-Serif" font-size="10.00" fill="#000000">#lines</text>
<text text-anchor="middle" x="266" y="-299" font-family="Helvetica,sans-Serif" font-size="10.00" fill="#000000">#points</text>
<text text-anchor="middle" x="266" y="-288" font-family="Helvetica,sans-Serif" font-size="10.00" fill="#000000">#triangles</text>
<text text-anchor="middle" x="266" y="-277" font-family="Helvetica,sans-Serif" font-size="10.00" fill="#000000">#edges</text>
</g>
<!-- Node4 -->
<g id="node4" class="node">
<title>Node4</title>
<polygon fill="#ffffff" stroke="#bfbfbf" points="316.5,-347.5 316.5,-404.5 377.5,-404.5 377.5,-347.5 316.5,-347.5"/>
<text text-anchor="middle" x="347" y="-392.5" font-family="Helvetica,sans-Serif" font-size="10.00" fill="#000000">unsigned</text>
<polyline fill="none" stroke="#bfbfbf" points="316.5,-385.5 377.5,-385.5 "/>
<text text-anchor="middle" x="347" y="-373.5" font-family="Helvetica,sans-Serif" font-size="10.00" fill="#000000"> </text>
<polyline fill="none" stroke="#bfbfbf" points="316.5,-366.5 377.5,-366.5 "/>
<text text-anchor="middle" x="347" y="-354.5" font-family="Helvetica,sans-Serif" font-size="10.00" fill="#000000"> </text>
</g>
<!-- Node4&#45;&gt;Node1 -->
<g id="edge3" class="edge">
<title>Node4&#45;&gt;Node1</title>
<path fill="none" stroke="#404040" d="M332.8203,-347.4568C330.0594,-341.4317 327.309,-335.0619 325,-329 317.4804,-309.2587 310.2879,-288.1437 303.6604,-267.2911"/>
<polygon fill="none" stroke="#404040" points="303.6299,-267.1935 298.0174,-262.6659 300.0381,-255.7437 305.6506,-260.2713 303.6299,-267.1935"/>
<text text-anchor="middle" x="393.5" y="-299" font-family="Helvetica,sans-Serif" font-size="10.00" fill="#000000"> #n_converted_quadrangles</text>
</g>
<!-- Node5 -->
<g id="node5" class="node">
<title>Node5</title>
<polygon fill="#ffffff" stroke="#bfbfbf" points="418,-347.5 418,-404.5 550,-404.5 550,-347.5 418,-347.5"/>
<text text-anchor="middle" x="484" y="-392.5" font-family="Helvetica,sans-Serif" font-size="10.00" fill="#000000">vector&lt; tethex::Point &gt;</text>
<polyline fill="none" stroke="#bfbfbf" points="418,-385.5 550,-385.5 "/>
<text text-anchor="middle" x="484" y="-373.5" font-family="Helvetica,sans-Serif" font-size="10.00" fill="#000000"> </text>
<polyline fill="none" stroke="#bfbfbf" points="418,-366.5 550,-366.5 "/>
<text text-anchor="middle" x="484" y="-354.5" font-family="Helvetica,sans-Serif" font-size="10.00" fill="#000000"> </text>
</g>
<!-- Node5&#45;&gt;Node1 -->
<g id="edge4" class="edge">
<title>Node5&#45;&gt;Node1</title>
<path fill="none" stroke="#404040" d="M483.1693,-347.1018C481.3306,-325.4568 476.1367,-295.9238 462,-274 433.0765,-229.1443 385.2327,-193.2061 343.9382,-168.2095"/>
<polygon fill="none" stroke="#404040" points="343.9243,-168.2013 336.7236,-168.5891 333.5962,-162.0914 340.7968,-161.7037 343.9243,-168.2013"/>
<text text-anchor="middle" x="505.5" y="-299" font-family="Helvetica,sans-Serif" font-size="10.00" fill="#000000"> #vertices</text>
</g>
</g>
</svg>
