<?xml version="1.0" encoding="UTF-8" standalone="no"?>
<!DOCTYPE svg PUBLIC "-//W3C//DTD SVG 1.1//EN"
 "http://www.w3.org/Graphics/SVG/1.1/DTD/svg11.dtd">
<!-- Generated by graphviz version 2.40.1 (20161225.0304)
 -->
<!-- Title: tethex::Mesh::clean Pages: 1 -->
<svg width="257pt" height="66pt"
 viewBox="0.00 0.00 257.00 66.00" xmlns="http://www.w3.org/2000/svg" xmlns:xlink="http://www.w3.org/1999/xlink">
<g id="graph0" class="graph" transform="scale(1 1) rotate(0) translate(4 62)">
<title>tethex::Mesh::clean</title>
<polygon fill="#ffffff" stroke="transparent" points="-4,4 -4,-62 253,-62 253,4 -4,4"/>
<!-- Node174 -->
<g id="node1" class="node">
<title>Node174</title>
<polygon fill="#bfbfbf" stroke="#000000" points="0,-19.5 0,-38.5 103,-38.5 103,-19.5 0,-19.5"/>
<text text-anchor="middle" x="51.5" y="-26.5" font-family="Helvetica,sans-Serif" font-size="10.00" fill="#000000">tethex::Mesh::clean</text>
</g>
<!-- Node175 -->
<g id="node2" class="node">
<title>Node175</title>
<g id="a_node2"><a xlink:href="classtethex_1_1Mesh.html#a299486a7d463657cb8b1209aac66e969" target="_top" xlink:title="Destructor &#45; to clean the memory. ">
<polygon fill="#ffffff" stroke="#000000" points="139,-38.5 139,-57.5 249,-57.5 249,-38.5 139,-38.5"/>
<text text-anchor="middle" x="194" y="-45.5" font-family="Helvetica,sans-Serif" font-size="10.00" fill="#000000">tethex::Mesh::~Mesh</text>
</a>
</g>
</g>
<!-- Node174&#45;&gt;Node175 -->
<g id="edge1" class="edge">
<title>Node174&#45;&gt;Node175</title>
<path fill="none" stroke="#191970" d="M113.4362,-37.2582C121.8029,-38.3737 130.3439,-39.5125 138.587,-40.6116"/>
<polygon fill="#191970" stroke="#191970" points="113.7238,-33.7656 103.3489,-35.9132 112.7986,-40.7042 113.7238,-33.7656"/>
</g>
<!-- Node176 -->
<g id="node3" class="node">
<title>Node176</title>
<g id="a_node3"><a xlink:href="classtethex_1_1Mesh.html#ae0f570a1892c8cf29a68bae0267f8f9b" target="_top" xlink:title="Read the mesh from file. ">
<polygon fill="#ffffff" stroke="#000000" points="145,-.5 145,-19.5 243,-19.5 243,-.5 145,-.5"/>
<text text-anchor="middle" x="194" y="-7.5" font-family="Helvetica,sans-Serif" font-size="10.00" fill="#000000">tethex::Mesh::read</text>
</a>
</g>
</g>
<!-- Node174&#45;&gt;Node176 -->
<g id="edge2" class="edge">
<title>Node174&#45;&gt;Node176</title>
<path fill="none" stroke="#191970" d="M113.3251,-20.7567C123.8518,-19.3531 134.6578,-17.9123 144.8021,-16.5597"/>
<polygon fill="#191970" stroke="#191970" points="112.7986,-17.2958 103.3489,-22.0868 113.7238,-24.2344 112.7986,-17.2958"/>
</g>
</g>
</svg>
