<?xml version="1.0" encoding="UTF-8" standalone="no"?>
<!DOCTYPE svg PUBLIC "-//W3C//DTD SVG 1.1//EN"
 "http://www.w3.org/Graphics/SVG/1.1/DTD/svg11.dtd">
<!-- Generated by graphviz version 2.40.1 (20161225.0304)
 -->
<!-- Title: tethex::Mesh::convert_quadrangles Pages: 1 -->
<svg width="442pt" height="78pt"
 viewBox="0.00 0.00 442.00 77.50" xmlns="http://www.w3.org/2000/svg" xmlns:xlink="http://www.w3.org/1999/xlink">
<g id="graph0" class="graph" transform="scale(1 1) rotate(0) translate(4 73.5)">
<title>tethex::Mesh::convert_quadrangles</title>
<polygon fill="#ffffff" stroke="transparent" points="-4,4 -4,-73.5 438,-73.5 438,4 -4,4"/>
<!-- Node241 -->
<g id="node1" class="node">
<title>Node241</title>
<polygon fill="#bfbfbf" stroke="#000000" points="0,-22.5 0,-52.5 112,-52.5 112,-22.5 0,-22.5"/>
<text text-anchor="start" x="8" y="-40.5" font-family="Helvetica,sans-Serif" font-size="10.00" fill="#000000">tethex::Mesh::convert</text>
<text text-anchor="middle" x="56" y="-29.5" font-family="Helvetica,sans-Serif" font-size="10.00" fill="#000000">_quadrangles</text>
</g>
<!-- Node242 -->
<g id="node2" class="node">
<title>Node242</title>
<g id="a_node2"><a xlink:href="classtethex_1_1Mesh.html#aea31733cbb3d4e47252da53a253ec9b8" target="_top" xlink:title="Get the copy of vertex. ">
<polygon fill="#ffffff" stroke="#000000" points="148,-50 148,-69 273,-69 273,-50 148,-50"/>
<text text-anchor="middle" x="210.5" y="-57" font-family="Helvetica,sans-Serif" font-size="10.00" fill="#000000">tethex::Mesh::get_vertex</text>
</a>
</g>
</g>
<!-- Node241&#45;&gt;Node242 -->
<g id="edge1" class="edge">
<title>Node241&#45;&gt;Node242</title>
<path fill="none" stroke="#191970" d="M112.2151,-45.5047C120.5249,-46.688 129.1863,-47.9214 137.7729,-49.144"/>
<polygon fill="#191970" stroke="#191970" points="137.3994,-52.6261 147.7929,-50.5708 138.3862,-45.696 137.3994,-52.6261"/>
</g>
<!-- Node243 -->
<g id="node3" class="node">
<title>Node243</title>
<g id="a_node3"><a xlink:href="namespacetethex.html#a7f8708334371c722c41cab50445d7987" target="_top" xlink:title="Change the order of vertices in such a way, that it will be good for deal.II. ">
<polygon fill="#ffffff" stroke="#000000" points="150,-.5 150,-30.5 271,-30.5 271,-.5 150,-.5"/>
<text text-anchor="start" x="158" y="-18.5" font-family="Helvetica,sans-Serif" font-size="10.00" fill="#000000">tethex::change_vertices</text>
<text text-anchor="middle" x="210.5" y="-7.5" font-family="Helvetica,sans-Serif" font-size="10.00" fill="#000000">_order</text>
</a>
</g>
</g>
<!-- Node241&#45;&gt;Node243 -->
<g id="edge2" class="edge">
<title>Node241&#45;&gt;Node243</title>
<path fill="none" stroke="#191970" d="M112.2151,-29.4953C121.2125,-28.2141 130.622,-26.8742 139.9025,-25.5527"/>
<polygon fill="#191970" stroke="#191970" points="140.4898,-29.0045 149.8965,-24.1296 139.503,-22.0744 140.4898,-29.0045"/>
</g>
<!-- Node244 -->
<g id="node4" class="node">
<title>Node244</title>
<g id="a_node4"><a xlink:href="namespacetethex.html#a4829931502bfe6e2c614c95e59cda77b" target="_top" xlink:title="Since this project was originally designed to connect Gmsh&#39;s meshes with deal.II solvers, the main requirement for new meshes was to be properly read by deal.II. ">
<polygon fill="#ffffff" stroke="#000000" points="309,-6 309,-25 434,-25 434,-6 309,-6"/>
<text text-anchor="middle" x="371.5" y="-13" font-family="Helvetica,sans-Serif" font-size="10.00" fill="#000000">tethex::cell_measure_2D</text>
</a>
</g>
</g>
<!-- Node243&#45;&gt;Node244 -->
<g id="edge3" class="edge">
<title>Node243&#45;&gt;Node244</title>
<path fill="none" stroke="#191970" d="M271.3672,-15.5C280.2956,-15.5 289.5672,-15.5 298.7051,-15.5"/>
<polygon fill="#191970" stroke="#191970" points="298.9399,-19.0001 308.9399,-15.5 298.9399,-12.0001 298.9399,-19.0001"/>
</g>
</g>
</svg>
