<?xml version="1.0" encoding="UTF-8" standalone="no"?>
<!DOCTYPE svg PUBLIC "-//W3C//DTD SVG 1.1//EN"
 "http://www.w3.org/Graphics/SVG/1.1/DTD/svg11.dtd">
<!-- Generated by graphviz version 2.40.1 (20161225.0304)
 -->
<!-- Title: tethex::IncidenceMatrix::find Pages: 1 -->
<svg width="745pt" height="132pt"
 viewBox="0.00 0.00 745.00 132.00" xmlns="http://www.w3.org/2000/svg" xmlns:xlink="http://www.w3.org/1999/xlink">
<g id="graph0" class="graph" transform="scale(1 1) rotate(0) translate(4 128)">
<title>tethex::IncidenceMatrix::find</title>
<polygon fill="#ffffff" stroke="transparent" points="-4,4 -4,-128 741,-128 741,4 -4,4"/>
<!-- Node8 -->
<g id="node1" class="node">
<title>Node8</title>
<polygon fill="#bfbfbf" stroke="#000000" points="0,-49.5 0,-79.5 119,-79.5 119,-49.5 0,-49.5"/>
<text text-anchor="start" x="8" y="-67.5" font-family="Helvetica,sans-Serif" font-size="10.00" fill="#000000">tethex::IncidenceMatrix</text>
<text text-anchor="middle" x="59.5" y="-56.5" font-family="Helvetica,sans-Serif" font-size="10.00" fill="#000000">::find</text>
</g>
<!-- Node9 -->
<g id="node2" class="node">
<title>Node9</title>
<g id="a_node2"><a xlink:href="classtethex_1_1Mesh.html#ac4c7819413f5941593722fa1024e1f25" target="_top" xlink:title="During mesh conversion we add new vertices. ">
<polygon fill="#ffffff" stroke="#000000" points="309,-93.5 309,-123.5 423,-123.5 423,-93.5 309,-93.5"/>
<text text-anchor="start" x="317" y="-111.5" font-family="Helvetica,sans-Serif" font-size="10.00" fill="#000000">tethex::Mesh::redefine</text>
<text text-anchor="middle" x="366" y="-100.5" font-family="Helvetica,sans-Serif" font-size="10.00" fill="#000000">_lines</text>
</a>
</g>
</g>
<!-- Node8&#45;&gt;Node9 -->
<g id="edge1" class="edge">
<title>Node8&#45;&gt;Node9</title>
<path fill="none" stroke="#191970" d="M120.5518,-82.09C131.9288,-84.9086 143.7702,-87.5386 155,-89.5 206.6301,-98.5179 266.1595,-103.3835 308.7965,-105.9253"/>
<polygon fill="#191970" stroke="#191970" points="121.2552,-78.6575 110.7003,-79.5766 119.5246,-85.4402 121.2552,-78.6575"/>
</g>
<!-- Node12 -->
<g id="node5" class="node">
<title>Node12</title>
<g id="a_node5"><a xlink:href="classtethex_1_1Mesh.html#ad6757f5eeaca6b0cae07fb85b5f40cb2" target="_top" xlink:title="Numerate the edges of simplices. ">
<polygon fill="#ffffff" stroke="#000000" points="163.5,-49.5 163.5,-79.5 264.5,-79.5 264.5,-49.5 163.5,-49.5"/>
<text text-anchor="start" x="171.5" y="-67.5" font-family="Helvetica,sans-Serif" font-size="10.00" fill="#000000">tethex::Mesh::edge</text>
<text text-anchor="middle" x="214" y="-56.5" font-family="Helvetica,sans-Serif" font-size="10.00" fill="#000000">_numeration</text>
</a>
</g>
</g>
<!-- Node8&#45;&gt;Node12 -->
<g id="edge4" class="edge">
<title>Node8&#45;&gt;Node12</title>
<path fill="none" stroke="#191970" d="M129.2705,-64.5C140.7869,-64.5 152.5271,-64.5 163.4544,-64.5"/>
<polygon fill="#191970" stroke="#191970" points="129.2338,-61.0001 119.2337,-64.5 129.2337,-68.0001 129.2338,-61.0001"/>
</g>
<!-- Node14 -->
<g id="node7" class="node">
<title>Node14</title>
<g id="a_node7"><a xlink:href="classtethex_1_1Mesh.html#abc261df76b5f1090b366386fdcb495cb" target="_top" xlink:title="Find the global number of face basing on numbers of 2 edges defining that face. ">
<polygon fill="#ffffff" stroke="#000000" points="155,-.5 155,-30.5 273,-30.5 273,-.5 155,-.5"/>
<text text-anchor="start" x="163" y="-18.5" font-family="Helvetica,sans-Serif" font-size="10.00" fill="#000000">tethex::Mesh::find</text>
<text text-anchor="middle" x="214" y="-7.5" font-family="Helvetica,sans-Serif" font-size="10.00" fill="#000000">_face_from_two_edges</text>
</a>
</g>
</g>
<!-- Node8&#45;&gt;Node14 -->
<g id="edge8" class="edge">
<title>Node8&#45;&gt;Node14</title>
<path fill="none" stroke="#191970" d="M117.072,-46.2409C133.3676,-41.0727 150.9149,-35.5076 166.5415,-30.5516"/>
<polygon fill="#191970" stroke="#191970" points="115.5897,-43.0391 107.1158,-49.3986 117.706,-49.7116 115.5897,-43.0391"/>
</g>
<!-- Node10 -->
<g id="node3" class="node">
<title>Node10</title>
<g id="a_node3"><a xlink:href="classtethex_1_1Mesh.html#adb803e48ce7101318531730a512ecbc8" target="_top" xlink:title="Conversion of 2D meshes (triangles &#45;&gt; quadrangles) ">
<polygon fill="#ffffff" stroke="#000000" points="459,-55 459,-74 589,-74 589,-55 459,-55"/>
<text text-anchor="middle" x="524" y="-62" font-family="Helvetica,sans-Serif" font-size="10.00" fill="#000000">tethex::Mesh::convert_2D</text>
</a>
</g>
</g>
<!-- Node9&#45;&gt;Node10 -->
<g id="edge2" class="edge">
<title>Node9&#45;&gt;Node10</title>
<path fill="none" stroke="#191970" d="M429.8265,-90.7255C450.2622,-85.0346 472.1055,-78.9516 489.6053,-74.0783"/>
<polygon fill="#191970" stroke="#191970" points="428.6272,-87.4263 419.9327,-93.4808 430.5051,-94.1697 428.6272,-87.4263"/>
</g>
<!-- Node11 -->
<g id="node4" class="node">
<title>Node11</title>
<g id="a_node4"><a xlink:href="classtethex_1_1Mesh.html#aaa882d21498571cbd84d4f7129fd6e32" target="_top" xlink:title="Conversion from simplices to bricks. ">
<polygon fill="#ffffff" stroke="#000000" points="625,-55 625,-74 737,-74 737,-55 625,-55"/>
<text text-anchor="middle" x="681" y="-62" font-family="Helvetica,sans-Serif" font-size="10.00" fill="#000000">tethex::Mesh::convert</text>
</a>
</g>
</g>
<!-- Node10&#45;&gt;Node11 -->
<g id="edge3" class="edge">
<title>Node10&#45;&gt;Node11</title>
<path fill="none" stroke="#191970" d="M599.2433,-64.5C607.8245,-64.5 616.4576,-64.5 624.7317,-64.5"/>
<polygon fill="#191970" stroke="#191970" points="599.2182,-61.0001 589.2182,-64.5 599.2182,-68.0001 599.2182,-61.0001"/>
</g>
<!-- Node12&#45;&gt;Node10 -->
<g id="edge5" class="edge">
<title>Node12&#45;&gt;Node10</title>
<path fill="none" stroke="#191970" d="M275.1195,-64.5C328.1373,-64.5 404.666,-64.5 458.8371,-64.5"/>
<polygon fill="#191970" stroke="#191970" points="274.8431,-61.0001 264.8431,-64.5 274.843,-68.0001 274.8431,-61.0001"/>
</g>
<!-- Node13 -->
<g id="node6" class="node">
<title>Node13</title>
<g id="a_node6"><a xlink:href="classtethex_1_1Mesh.html#ab739c5e4bbb1c3461a068c2104eab52e" target="_top" xlink:title="Conversion from triangles to quadrangles. ">
<polygon fill="#ffffff" stroke="#000000" points="310,-5.5 310,-35.5 422,-35.5 422,-5.5 310,-5.5"/>
<text text-anchor="start" x="318" y="-23.5" font-family="Helvetica,sans-Serif" font-size="10.00" fill="#000000">tethex::Mesh::convert</text>
<text text-anchor="middle" x="366" y="-12.5" font-family="Helvetica,sans-Serif" font-size="10.00" fill="#000000">_triangles</text>
</a>
</g>
</g>
<!-- Node12&#45;&gt;Node13 -->
<g id="edge6" class="edge">
<title>Node12&#45;&gt;Node13</title>
<path fill="none" stroke="#191970" d="M274.4768,-46.9936C287.5741,-43.2022 301.3137,-39.225 314.049,-35.5385"/>
<polygon fill="#191970" stroke="#191970" points="273.2462,-43.706 264.6138,-49.8486 275.1927,-50.43 273.2462,-43.706"/>
</g>
<!-- Node13&#45;&gt;Node10 -->
<g id="edge7" class="edge">
<title>Node13&#45;&gt;Node10</title>
<path fill="none" stroke="#191970" d="M429.8265,-38.2745C450.2622,-43.9654 472.1055,-50.0484 489.6053,-54.9217"/>
<polygon fill="#191970" stroke="#191970" points="430.5051,-34.8303 419.9327,-35.5192 428.6272,-41.5737 430.5051,-34.8303"/>
</g>
<!-- Node14&#45;&gt;Node13 -->
<g id="edge9" class="edge">
<title>Node14&#45;&gt;Node13</title>
<path fill="none" stroke="#191970" d="M283.4415,-17.7843C292.2341,-18.0735 301.1447,-18.3666 309.6978,-18.648"/>
<polygon fill="#191970" stroke="#191970" points="283.3121,-14.2782 273.2024,-17.4474 283.0819,-21.2744 283.3121,-14.2782"/>
</g>
</g>
</svg>
