<?xml version="1.0" encoding="UTF-8" standalone="no"?>
<!DOCTYPE svg PUBLIC "-//W3C//DTD SVG 1.1//EN"
 "http://www.w3.org/Graphics/SVG/1.1/DTD/svg11.dtd">
<!-- Generated by graphviz version 2.40.1 (20161225.0304)
 -->
<!-- Title: tethex::MeshElement Pages: 1 -->
<svg width="174pt" height="336pt"
 viewBox="0.00 0.00 174.00 336.00" xmlns="http://www.w3.org/2000/svg" xmlns:xlink="http://www.w3.org/1999/xlink">
<g id="graph0" class="graph" transform="scale(1 1) rotate(0) translate(4 332)">
<title>tethex::MeshElement</title>
<polygon fill="#ffffff" stroke="transparent" points="-4,4 -4,-332 170,-332 170,4 -4,4"/>
<!-- Node5 -->
<g id="node1" class="node">
<title>Node5</title>
<polygon fill="#bfbfbf" stroke="#000000" points="14.5,-.5 14.5,-189.5 125.5,-189.5 125.5,-.5 14.5,-.5"/>
<text text-anchor="middle" x="70" y="-177.5" font-family="Helvetica,sans-Serif" font-size="10.00" fill="#000000">tethex::MeshElement</text>
<polyline fill="none" stroke="#000000" points="14.5,-170.5 125.5,-170.5 "/>
<text text-anchor="middle" x="70" y="-158.5" font-family="Helvetica,sans-Serif" font-size="10.00" fill="#000000"> </text>
<polyline fill="none" stroke="#000000" points="14.5,-151.5 125.5,-151.5 "/>
<text text-anchor="start" x="22.5" y="-139.5" font-family="Helvetica,sans-Serif" font-size="10.00" fill="#000000">+ ~MeshElement()</text>
<text text-anchor="start" x="22.5" y="-128.5" font-family="Helvetica,sans-Serif" font-size="10.00" fill="#000000">+ get_n_vertices()</text>
<text text-anchor="start" x="22.5" y="-117.5" font-family="Helvetica,sans-Serif" font-size="10.00" fill="#000000">+ get_n_edges()</text>
<text text-anchor="start" x="22.5" y="-106.5" font-family="Helvetica,sans-Serif" font-size="10.00" fill="#000000">+ get_gmsh_el_type()</text>
<text text-anchor="start" x="22.5" y="-95.5" font-family="Helvetica,sans-Serif" font-size="10.00" fill="#000000">+ get_material_id()</text>
<text text-anchor="start" x="22.5" y="-84.5" font-family="Helvetica,sans-Serif" font-size="10.00" fill="#000000">+ get_vertex()</text>
<text text-anchor="start" x="22.5" y="-73.5" font-family="Helvetica,sans-Serif" font-size="10.00" fill="#000000">+ get_edge()</text>
<text text-anchor="start" x="22.5" y="-62.5" font-family="Helvetica,sans-Serif" font-size="10.00" fill="#000000">+ set_vertex()</text>
<text text-anchor="start" x="22.5" y="-51.5" font-family="Helvetica,sans-Serif" font-size="10.00" fill="#000000">+ set_edge()</text>
<text text-anchor="start" x="22.5" y="-40.5" font-family="Helvetica,sans-Serif" font-size="10.00" fill="#000000">+ contains()</text>
<text text-anchor="start" x="22.5" y="-29.5" font-family="Helvetica,sans-Serif" font-size="10.00" fill="#000000"># MeshElement()</text>
<text text-anchor="start" x="22.5" y="-18.5" font-family="Helvetica,sans-Serif" font-size="10.00" fill="#000000"># MeshElement()</text>
<text text-anchor="start" x="22.5" y="-7.5" font-family="Helvetica,sans-Serif" font-size="10.00" fill="#000000"># operator=()</text>
</g>
<!-- Node6 -->
<g id="node2" class="node">
<title>Node6</title>
<polygon fill="#ffffff" stroke="#bfbfbf" points="0,-270.5 0,-327.5 72,-327.5 72,-270.5 0,-270.5"/>
<text text-anchor="middle" x="36" y="-315.5" font-family="Helvetica,sans-Serif" font-size="10.00" fill="#000000">vector&lt; int &gt;</text>
<polyline fill="none" stroke="#bfbfbf" points="0,-308.5 72,-308.5 "/>
<text text-anchor="middle" x="36" y="-296.5" font-family="Helvetica,sans-Serif" font-size="10.00" fill="#000000"> </text>
<polyline fill="none" stroke="#bfbfbf" points="0,-289.5 72,-289.5 "/>
<text text-anchor="middle" x="36" y="-277.5" font-family="Helvetica,sans-Serif" font-size="10.00" fill="#000000"> </text>
</g>
<!-- Node6&#45;&gt;Node5 -->
<g id="edge1" class="edge">
<title>Node6&#45;&gt;Node5</title>
<path fill="none" stroke="#404040" d="M35.6858,-270.1559C35.8803,-252.1838 36.8452,-228.6345 40,-208 40.3307,-205.8368 40.6868,-203.6554 41.0655,-201.4611"/>
<polygon fill="none" stroke="#404040" points="41.0718,-201.4276 38.2504,-194.7913 43.2911,-189.6346 46.1124,-196.2708 41.0718,-201.4276"/>
<text text-anchor="middle" x="61.5" y="-233" font-family="Helvetica,sans-Serif" font-size="10.00" fill="#000000"> #vertices</text>
<text text-anchor="middle" x="61.5" y="-222" font-family="Helvetica,sans-Serif" font-size="10.00" fill="#000000">#edges</text>
</g>
<!-- Node7 -->
<g id="node3" class="node">
<title>Node7</title>
<polygon fill="#ffffff" stroke="#bfbfbf" points="90.5,-270.5 90.5,-327.5 119.5,-327.5 119.5,-270.5 90.5,-270.5"/>
<text text-anchor="middle" x="105" y="-315.5" font-family="Helvetica,sans-Serif" font-size="10.00" fill="#000000">int</text>
<polyline fill="none" stroke="#bfbfbf" points="90.5,-308.5 119.5,-308.5 "/>
<text text-anchor="middle" x="105" y="-296.5" font-family="Helvetica,sans-Serif" font-size="10.00" fill="#000000"> </text>
<polyline fill="none" stroke="#bfbfbf" points="90.5,-289.5 119.5,-289.5 "/>
<text text-anchor="middle" x="105" y="-277.5" font-family="Helvetica,sans-Serif" font-size="10.00" fill="#000000"> </text>
</g>
<!-- Node7&#45;&gt;Node5 -->
<g id="edge2" class="edge">
<title>Node7&#45;&gt;Node5</title>
<path fill="none" stroke="#404040" d="M100.0596,-270.2045C96.92,-251.9054 92.6406,-226.9625 88.2957,-201.6377"/>
<polygon fill="none" stroke="#404040" points="88.2599,-201.4288 83.3029,-196.1916 86.2307,-189.6016 91.1877,-194.8388 88.2599,-201.4288"/>
<text text-anchor="middle" x="131" y="-244" font-family="Helvetica,sans-Serif" font-size="10.00" fill="#000000"> #gmsh_el_type</text>
<text text-anchor="middle" x="131" y="-233" font-family="Helvetica,sans-Serif" font-size="10.00" fill="#000000">#n_vertices</text>
<text text-anchor="middle" x="131" y="-222" font-family="Helvetica,sans-Serif" font-size="10.00" fill="#000000">#n_edges</text>
<text text-anchor="middle" x="131" y="-211" font-family="Helvetica,sans-Serif" font-size="10.00" fill="#000000">#material_id</text>
</g>
</g>
</svg>
