<?xml version="1.0" encoding="UTF-8" standalone="no"?>
<!DOCTYPE svg PUBLIC "-//W3C//DTD SVG 1.1//EN"
 "http://www.w3.org/Graphics/SVG/1.1/DTD/svg11.dtd">
<!-- Generated by graphviz version 2.40.1 (20161225.0304)
 -->
<!-- Title: nlohmann::json_pointer::get_checked Pages: 1 -->
<svg width="286pt" height="78pt"
 viewBox="0.00 0.00 286.00 77.50" xmlns="http://www.w3.org/2000/svg" xmlns:xlink="http://www.w3.org/1999/xlink">
<g id="graph0" class="graph" transform="scale(1 1) rotate(0) translate(4 73.5)">
<title>nlohmann::json_pointer::get_checked</title>
<polygon fill="#ffffff" stroke="transparent" points="-4,4 -4,-73.5 282,-73.5 282,4 -4,4"/>
<!-- Node62 -->
<g id="node1" class="node">
<title>Node62</title>
<polygon fill="#bfbfbf" stroke="#000000" points="0,-17 0,-47 117,-47 117,-17 0,-17"/>
<text text-anchor="start" x="8" y="-35" font-family="Helvetica,sans-Serif" font-size="10.00" fill="#000000">nlohmann::json_pointer</text>
<text text-anchor="middle" x="58.5" y="-24" font-family="Helvetica,sans-Serif" font-size="10.00" fill="#000000">::get_checked</text>
</g>
<!-- Node63 -->
<g id="node2" class="node">
<title>Node63</title>
<g id="a_node2"><a xlink:href="classnlohmann_1_1basic__json.html#a671aea68432ecb28770bbc482918f023" target="_top" xlink:title="access specified object element via JSON Pointer with default value ">
<polygon fill="#ffffff" stroke="#000000" points="160,-39 160,-69 271,-69 271,-39 160,-39"/>
<text text-anchor="start" x="168" y="-57" font-family="Helvetica,sans-Serif" font-size="10.00" fill="#000000">nlohmann::basic_json</text>
<text text-anchor="middle" x="215.5" y="-46" font-family="Helvetica,sans-Serif" font-size="10.00" fill="#000000">::value</text>
</a>
</g>
</g>
<!-- Node62&#45;&gt;Node63 -->
<g id="edge1" class="edge">
<title>Node62&#45;&gt;Node63</title>
<path fill="none" stroke="#191970" d="M127.3165,-41.6431C138.2103,-43.1696 149.3566,-44.7315 159.8991,-46.2088"/>
<polygon fill="#191970" stroke="#191970" points="127.7967,-38.1762 117.4077,-40.2546 126.8252,-45.1085 127.7967,-38.1762"/>
</g>
<!-- Node64 -->
<g id="node3" class="node">
<title>Node64</title>
<g id="a_node3"><a xlink:href="classnlohmann_1_1basic__json.html#a8ab61397c10f18b305520da7073b2b45" target="_top" xlink:title="access specified element via JSON Pointer ">
<polygon fill="#ffffff" stroke="#000000" points="153,-.5 153,-19.5 278,-19.5 278,-.5 153,-.5"/>
<text text-anchor="middle" x="215.5" y="-7.5" font-family="Helvetica,sans-Serif" font-size="10.00" fill="#000000">nlohmann::basic_json::at</text>
</a>
</g>
</g>
<!-- Node62&#45;&gt;Node64 -->
<g id="edge2" class="edge">
<title>Node62&#45;&gt;Node64</title>
<path fill="none" stroke="#191970" d="M127.5688,-22.3216C135.9803,-21.1429 144.5385,-19.9437 152.8493,-18.7791"/>
<polygon fill="#191970" stroke="#191970" points="126.8252,-18.8915 117.4077,-23.7454 127.7967,-25.8238 126.8252,-18.8915"/>
</g>
</g>
</svg>
