<?xml version="1.0" encoding="UTF-8" standalone="no"?>
<!DOCTYPE svg PUBLIC "-//W3C//DTD SVG 1.1//EN"
 "http://www.w3.org/Graphics/SVG/1.1/DTD/svg11.dtd">
<!-- Generated by graphviz version 2.40.1 (20161225.0304)
 -->
<!-- Title: tethex::Mesh::convert Pages: 1 -->
<svg width="902pt" height="467pt"
 viewBox="0.00 0.00 902.00 466.50" xmlns="http://www.w3.org/2000/svg" xmlns:xlink="http://www.w3.org/1999/xlink">
<g id="graph0" class="graph" transform="scale(1 1) rotate(0) translate(4 462.5)">
<title>tethex::Mesh::convert</title>
<polygon fill="#ffffff" stroke="transparent" points="-4,4 -4,-462.5 898,-462.5 898,4 -4,4"/>
<!-- Node47 -->
<g id="node1" class="node">
<title>Node47</title>
<polygon fill="#bfbfbf" stroke="#000000" points="0,-151.5 0,-170.5 112,-170.5 112,-151.5 0,-151.5"/>
<text text-anchor="middle" x="56" y="-158.5" font-family="Helvetica,sans-Serif" font-size="10.00" fill="#000000">tethex::Mesh::convert</text>
</g>
<!-- Node48 -->
<g id="node2" class="node">
<title>Node48</title>
<g id="a_node2"><a xlink:href="classtethex_1_1Mesh.html#adb803e48ce7101318531730a512ecbc8" target="_top" xlink:title="Conversion of 2D meshes (triangles &#45;&gt; quadrangles) ">
<polygon fill="#ffffff" stroke="#000000" points="148,-219.5 148,-238.5 278,-238.5 278,-219.5 148,-219.5"/>
<text text-anchor="middle" x="213" y="-226.5" font-family="Helvetica,sans-Serif" font-size="10.00" fill="#000000">tethex::Mesh::convert_2D</text>
</a>
</g>
</g>
<!-- Node47&#45;&gt;Node48 -->
<g id="edge1" class="edge">
<title>Node47&#45;&gt;Node48</title>
<path fill="none" stroke="#191970" d="M78.1613,-170.5985C105.1613,-182.2928 150.9552,-202.1271 181.5832,-215.3927"/>
<polygon fill="#191970" stroke="#191970" points="180.3841,-218.6875 190.9515,-219.4503 183.1663,-212.2641 180.3841,-218.6875"/>
</g>
<!-- Node64 -->
<g id="node18" class="node">
<title>Node64</title>
<g id="a_node18"><a xlink:href="classtethex_1_1Mesh.html#a3b6a5b6110e347f12f084408a9919720" target="_top" xlink:title="Convert quadrangles into quadrangles. ">
<polygon fill="#ffffff" stroke="#000000" points="316,-77 316,-107 428,-107 428,-77 316,-77"/>
<text text-anchor="start" x="324" y="-95" font-family="Helvetica,sans-Serif" font-size="10.00" fill="#000000">tethex::Mesh::convert</text>
<text text-anchor="middle" x="372" y="-84" font-family="Helvetica,sans-Serif" font-size="10.00" fill="#000000">_quadrangles</text>
</a>
</g>
</g>
<!-- Node47&#45;&gt;Node64 -->
<g id="edge25" class="edge">
<title>Node47&#45;&gt;Node64</title>
<path fill="none" stroke="#191970" d="M99.6067,-151.4783C152.9338,-139.8341 243.7328,-120.0077 305.7201,-106.4725"/>
<polygon fill="#191970" stroke="#191970" points="306.7701,-109.8258 315.7933,-104.273 305.2768,-102.9869 306.7701,-109.8258"/>
</g>
<!-- Node49 -->
<g id="node3" class="node">
<title>Node49</title>
<g id="a_node3"><a xlink:href="classtethex_1_1Mesh.html#ad6757f5eeaca6b0cae07fb85b5f40cb2" target="_top" xlink:title="Numerate the edges of simplices. ">
<polygon fill="#ffffff" stroke="#000000" points="476,-263 476,-293 577,-293 577,-263 476,-263"/>
<text text-anchor="start" x="484" y="-281" font-family="Helvetica,sans-Serif" font-size="10.00" fill="#000000">tethex::Mesh::edge</text>
<text text-anchor="middle" x="526.5" y="-270" font-family="Helvetica,sans-Serif" font-size="10.00" fill="#000000">_numeration</text>
</a>
</g>
</g>
<!-- Node48&#45;&gt;Node49 -->
<g id="edge2" class="edge">
<title>Node48&#45;&gt;Node49</title>
<path fill="none" stroke="#191970" d="M273.8177,-238.5058C329.2188,-247.165 410.5979,-259.8845 465.9235,-268.5319"/>
<polygon fill="#191970" stroke="#191970" points="465.5181,-272.011 475.9387,-270.0973 466.5991,-265.0949 465.5181,-272.011"/>
</g>
<!-- Node53 -->
<g id="node7" class="node">
<title>Node53</title>
<g id="a_node7"><a xlink:href="classtethex_1_1Mesh.html#a8e5d9c057c6f562d5036f262a23af29c" target="_top" xlink:title="During conversion we add new vertices &#45; at the centers of edges, triangles, tetrahedra. ">
<polygon fill="#ffffff" stroke="#000000" points="314,-384 314,-414 430,-414 430,-384 314,-384"/>
<text text-anchor="start" x="322" y="-402" font-family="Helvetica,sans-Serif" font-size="10.00" fill="#000000">tethex::Mesh::set_new</text>
<text text-anchor="middle" x="372" y="-391" font-family="Helvetica,sans-Serif" font-size="10.00" fill="#000000">_vertices</text>
</a>
</g>
</g>
<!-- Node48&#45;&gt;Node53 -->
<g id="edge7" class="edge">
<title>Node48&#45;&gt;Node53</title>
<path fill="none" stroke="#191970" d="M222.0041,-238.627C246.6594,-264.9881 315.7641,-338.8736 350.9062,-376.4469"/>
<polygon fill="#191970" stroke="#191970" points="348.4744,-378.9707 357.8614,-383.8833 353.5868,-374.1891 348.4744,-378.9707"/>
</g>
<!-- Node55 -->
<g id="node9" class="node">
<title>Node55</title>
<g id="a_node9"><a xlink:href="classtethex_1_1Mesh.html#ab739c5e4bbb1c3461a068c2104eab52e" target="_top" xlink:title="Conversion from triangles to quadrangles. ">
<polygon fill="#ffffff" stroke="#000000" points="316,-170 316,-200 428,-200 428,-170 316,-170"/>
<text text-anchor="start" x="324" y="-188" font-family="Helvetica,sans-Serif" font-size="10.00" fill="#000000">tethex::Mesh::convert</text>
<text text-anchor="middle" x="372" y="-177" font-family="Helvetica,sans-Serif" font-size="10.00" fill="#000000">_triangles</text>
</a>
</g>
</g>
<!-- Node48&#45;&gt;Node55 -->
<g id="edge10" class="edge">
<title>Node48&#45;&gt;Node55</title>
<path fill="none" stroke="#191970" d="M247.5006,-219.4527C265.1624,-214.5651 287.2424,-208.4549 307.8838,-202.7429"/>
<polygon fill="#191970" stroke="#191970" points="308.855,-206.1057 317.5593,-200.0654 306.988,-199.3593 308.855,-206.1057"/>
</g>
<!-- Node63 -->
<g id="node17" class="node">
<title>Node63</title>
<g id="a_node17"><a xlink:href="classtethex_1_1Mesh.html#ac4c7819413f5941593722fa1024e1f25" target="_top" xlink:title="During mesh conversion we add new vertices. ">
<polygon fill="#ffffff" stroke="#000000" points="469.5,-214 469.5,-244 583.5,-244 583.5,-214 469.5,-214"/>
<text text-anchor="start" x="477.5" y="-232" font-family="Helvetica,sans-Serif" font-size="10.00" fill="#000000">tethex::Mesh::redefine</text>
<text text-anchor="middle" x="526.5" y="-221" font-family="Helvetica,sans-Serif" font-size="10.00" fill="#000000">_lines</text>
</a>
</g>
</g>
<!-- Node48&#45;&gt;Node63 -->
<g id="edge22" class="edge">
<title>Node48&#45;&gt;Node63</title>
<path fill="none" stroke="#191970" d="M278.3383,-229C331.3579,-229 405.8251,-229 459.3307,-229"/>
<polygon fill="#191970" stroke="#191970" points="459.4033,-232.5001 469.4033,-229 459.4032,-225.5001 459.4033,-232.5001"/>
</g>
<!-- Node50 -->
<g id="node4" class="node">
<title>Node50</title>
<g id="a_node4"><a xlink:href="classtethex_1_1IncidenceMatrix.html#a35358d0c7bd51a6c7ce900237f3e7672" target="_top" xlink:title="Get the number of non zero elements in the matrix. ">
<polygon fill="#ffffff" stroke="#000000" points="626,-340 626,-370 745,-370 745,-340 626,-340"/>
<text text-anchor="start" x="634" y="-358" font-family="Helvetica,sans-Serif" font-size="10.00" fill="#000000">tethex::IncidenceMatrix</text>
<text text-anchor="middle" x="685.5" y="-347" font-family="Helvetica,sans-Serif" font-size="10.00" fill="#000000">::get_n_nonzero</text>
</a>
</g>
</g>
<!-- Node49&#45;&gt;Node50 -->
<g id="edge3" class="edge">
<title>Node49&#45;&gt;Node50</title>
<path fill="none" stroke="#191970" d="M557.3345,-293.0733C576.2685,-302.3153 601.0225,-314.3735 623,-325 630.0856,-328.426 637.6292,-332.0592 644.9347,-335.5701"/>
<polygon fill="#191970" stroke="#191970" points="643.4787,-338.7535 654.0084,-339.9271 646.5088,-332.4433 643.4787,-338.7535"/>
</g>
<!-- Node51 -->
<g id="node5" class="node">
<title>Node51</title>
<g id="a_node5"><a xlink:href="classtethex_1_1IncidenceMatrix.html#a1d659ff5b0bba8be07196b23ded3d58d" target="_top" xlink:title="Find a serial number of the non zero element in the matrix. ">
<polygon fill="#ffffff" stroke="#000000" points="626,-214 626,-244 745,-244 745,-214 626,-214"/>
<text text-anchor="start" x="634" y="-232" font-family="Helvetica,sans-Serif" font-size="10.00" fill="#000000">tethex::IncidenceMatrix</text>
<text text-anchor="middle" x="685.5" y="-221" font-family="Helvetica,sans-Serif" font-size="10.00" fill="#000000">::find</text>
</a>
</g>
</g>
<!-- Node49&#45;&gt;Node51 -->
<g id="edge4" class="edge">
<title>Node49&#45;&gt;Node51</title>
<path fill="none" stroke="#191970" d="M575.5026,-262.8986C591.7494,-257.8917 609.9991,-252.2676 626.8938,-247.061"/>
<polygon fill="#191970" stroke="#191970" points="628.1335,-250.3415 636.6592,-244.0516 626.0719,-243.652 628.1335,-250.3415"/>
</g>
<!-- Node52 -->
<g id="node6" class="node">
<title>Node52</title>
<g id="a_node6"><a xlink:href="namespacetethex.html#a31a6ad16911dd58abefe17ab46534aa4" target="_top" xlink:title="tethex::d2s">
<polygon fill="#ffffff" stroke="#000000" points="806.5,-241.5 806.5,-260.5 871.5,-260.5 871.5,-241.5 806.5,-241.5"/>
<text text-anchor="middle" x="839" y="-248.5" font-family="Helvetica,sans-Serif" font-size="10.00" fill="#000000">tethex::d2s</text>
</a>
</g>
</g>
<!-- Node49&#45;&gt;Node52 -->
<g id="edge6" class="edge">
<title>Node49&#45;&gt;Node52</title>
<path fill="none" stroke="#191970" d="M577.2755,-278.6069C622.295,-278.5648 689.7469,-277.0813 748,-270 763.8812,-268.0695 781.1073,-264.7853 796.2558,-261.4852"/>
<polygon fill="#191970" stroke="#191970" points="797.3789,-264.8203 806.3692,-259.2145 795.8453,-257.9903 797.3789,-264.8203"/>
</g>
<!-- Node51&#45;&gt;Node52 -->
<g id="edge5" class="edge">
<title>Node51&#45;&gt;Node52</title>
<path fill="none" stroke="#191970" d="M745.2866,-237.5688C762.2739,-240.0034 780.4283,-242.6054 796.1909,-244.8645"/>
<polygon fill="#191970" stroke="#191970" points="795.7721,-248.3402 806.1675,-246.2944 796.7653,-241.411 795.7721,-248.3402"/>
</g>
<!-- Node53&#45;&gt;Node52 -->
<g id="edge8" class="edge">
<title>Node53&#45;&gt;Node52</title>
<path fill="none" stroke="#191970" d="M430.1309,-402.1413C521.799,-406.0938 694.9714,-409.2086 748,-380 792.0447,-355.7398 819.6976,-299.9956 831.8316,-270.3556"/>
<polygon fill="#191970" stroke="#191970" points="835.216,-271.3111 835.6014,-260.7233 828.6975,-268.7599 835.216,-271.3111"/>
</g>
<!-- Node54 -->
<g id="node8" class="node">
<title>Node54</title>
<g id="a_node8"><a xlink:href="classtethex_1_1Mesh.html#a7aa9c2737b989945d2d233f7200cb3ac" target="_top" xlink:title="Get the number of vertices. ">
<polygon fill="#ffffff" stroke="#000000" points="474.5,-428 474.5,-458 578.5,-458 578.5,-428 474.5,-428"/>
<text text-anchor="start" x="482.5" y="-446" font-family="Helvetica,sans-Serif" font-size="10.00" fill="#000000">tethex::Mesh::get_n</text>
<text text-anchor="middle" x="526.5" y="-435" font-family="Helvetica,sans-Serif" font-size="10.00" fill="#000000">_vertices</text>
</a>
</g>
</g>
<!-- Node53&#45;&gt;Node54 -->
<g id="edge9" class="edge">
<title>Node53&#45;&gt;Node54</title>
<path fill="none" stroke="#191970" d="M424.738,-414.0192C437.4859,-417.6497 451.2272,-421.5631 464.362,-425.3037"/>
<polygon fill="#191970" stroke="#191970" points="463.6853,-428.7501 474.2615,-428.123 465.6026,-422.0178 463.6853,-428.7501"/>
</g>
<!-- Node55&#45;&gt;Node49 -->
<g id="edge11" class="edge">
<title>Node55&#45;&gt;Node49</title>
<path fill="none" stroke="#191970" d="M390.2149,-200.1675C408.5467,-214.9407 438.0351,-237.3922 466,-253 469.4734,-254.9386 473.1278,-256.8143 476.849,-258.6083"/>
<polygon fill="#191970" stroke="#191970" points="475.6226,-261.8964 486.1709,-262.8881 478.5433,-255.5348 475.6226,-261.8964"/>
</g>
<!-- Node55&#45;&gt;Node52 -->
<g id="edge21" class="edge">
<title>Node55&#45;&gt;Node52</title>
<path fill="none" stroke="#191970" d="M428.2598,-180.5327C502.7994,-176.2544 637.7274,-174.2375 748,-204 772.852,-210.7076 798.6968,-224.8586 816.4644,-235.8898"/>
<polygon fill="#191970" stroke="#191970" points="814.6587,-238.8894 824.9714,-241.3181 818.4241,-232.9884 814.6587,-238.8894"/>
</g>
<!-- Node56 -->
<g id="node10" class="node">
<title>Node56</title>
<g id="a_node10"><a xlink:href="classtethex_1_1Mesh.html#abc261df76b5f1090b366386fdcb495cb" target="_top" xlink:title="Find the global number of face basing on numbers of 2 edges defining that face. ">
<polygon fill="#ffffff" stroke="#000000" points="467.5,-126 467.5,-156 585.5,-156 585.5,-126 467.5,-126"/>
<text text-anchor="start" x="475.5" y="-144" font-family="Helvetica,sans-Serif" font-size="10.00" fill="#000000">tethex::Mesh::find</text>
<text text-anchor="middle" x="526.5" y="-133" font-family="Helvetica,sans-Serif" font-size="10.00" fill="#000000">_face_from_two_edges</text>
</a>
</g>
</g>
<!-- Node55&#45;&gt;Node56 -->
<g id="edge12" class="edge">
<title>Node55&#45;&gt;Node56</title>
<path fill="none" stroke="#191970" d="M424.738,-169.9808C437.3465,-166.39 450.927,-162.5224 463.9311,-158.819"/>
<polygon fill="#191970" stroke="#191970" points="465.0786,-162.1314 473.7375,-156.0262 463.1613,-155.3991 465.0786,-162.1314"/>
</g>
<!-- Node61 -->
<g id="node15" class="node">
<title>Node61</title>
<g id="a_node15"><a xlink:href="namespacetethex.html#a7f8708334371c722c41cab50445d7987" target="_top" xlink:title="Change the order of vertices in such a way, that it will be good for deal.II. ">
<polygon fill="#ffffff" stroke="#000000" points="466,-77 466,-107 587,-107 587,-77 466,-77"/>
<text text-anchor="start" x="474" y="-95" font-family="Helvetica,sans-Serif" font-size="10.00" fill="#000000">tethex::change_vertices</text>
<text text-anchor="middle" x="526.5" y="-84" font-family="Helvetica,sans-Serif" font-size="10.00" fill="#000000">_order</text>
</a>
</g>
</g>
<!-- Node55&#45;&gt;Node61 -->
<g id="edge19" class="edge">
<title>Node55&#45;&gt;Node61</title>
<path fill="none" stroke="#191970" d="M389.786,-169.7843C408.0258,-154.7154 437.6593,-131.683 466,-116 469.0078,-114.3356 472.1551,-112.7278 475.3662,-111.1867"/>
<polygon fill="#191970" stroke="#191970" points="476.8645,-114.3504 484.5223,-107.0286 473.97,-107.9769 476.8645,-114.3504"/>
</g>
<!-- Node56&#45;&gt;Node51 -->
<g id="edge18" class="edge">
<title>Node56&#45;&gt;Node51</title>
<path fill="none" stroke="#191970" d="M553.8331,-156.1277C580.1922,-170.7165 620.2502,-192.8869 649.2591,-208.9422"/>
<polygon fill="#191970" stroke="#191970" points="647.8138,-212.1425 658.258,-213.9227 651.2035,-206.0179 647.8138,-212.1425"/>
</g>
<!-- Node57 -->
<g id="node11" class="node">
<title>Node57</title>
<g id="a_node11"><a xlink:href="classtethex_1_1Mesh.html#aea31733cbb3d4e47252da53a253ec9b8" target="_top" xlink:title="Get the copy of vertex. ">
<polygon fill="#ffffff" stroke="#000000" points="623,-38.5 623,-57.5 748,-57.5 748,-38.5 623,-38.5"/>
<text text-anchor="middle" x="685.5" y="-45.5" font-family="Helvetica,sans-Serif" font-size="10.00" fill="#000000">tethex::Mesh::get_vertex</text>
</a>
</g>
</g>
<!-- Node56&#45;&gt;Node57 -->
<g id="edge13" class="edge">
<title>Node56&#45;&gt;Node57</title>
<path fill="none" stroke="#191970" d="M571.0359,-125.9368C576.6838,-123.0849 582.1688,-119.7845 587,-116 608.2735,-99.3353 600.9457,-82.6167 623,-67 625.7304,-65.0666 628.6614,-63.3265 631.7107,-61.7608"/>
<polygon fill="#191970" stroke="#191970" points="633.4177,-64.8321 641.1303,-57.5681 630.5711,-58.437 633.4177,-64.8321"/>
</g>
<!-- Node58 -->
<g id="node12" class="node">
<title>Node58</title>
<g id="a_node12"><a xlink:href="classtethex_1_1Line.html#a7ee8354de8290f9a914e480385fc16e7" target="_top" xlink:title="Find common vertex between two lines. ">
<polygon fill="#ffffff" stroke="#000000" points="630,-77 630,-107 741,-107 741,-77 630,-77"/>
<text text-anchor="start" x="638" y="-95" font-family="Helvetica,sans-Serif" font-size="10.00" fill="#000000">tethex::Line::common</text>
<text text-anchor="middle" x="685.5" y="-84" font-family="Helvetica,sans-Serif" font-size="10.00" fill="#000000">_vertex</text>
</a>
</g>
</g>
<!-- Node56&#45;&gt;Node58 -->
<g id="edge15" class="edge">
<title>Node56&#45;&gt;Node58</title>
<path fill="none" stroke="#191970" d="M575.5026,-125.8986C591.7494,-120.8917 609.9991,-115.2676 626.8938,-110.061"/>
<polygon fill="#191970" stroke="#191970" points="628.1335,-113.3415 636.6592,-107.0516 626.0719,-106.652 628.1335,-113.3415"/>
</g>
<!-- Node60 -->
<g id="node14" class="node">
<title>Node60</title>
<g id="a_node14"><a xlink:href="classtethex_1_1Line.html#abdc04877eb0feb0200f4e9bb8a4e3735" target="_top" xlink:title="Get another vertex (different from that we have) ">
<polygon fill="#ffffff" stroke="#000000" points="632.5,-126 632.5,-156 738.5,-156 738.5,-126 632.5,-126"/>
<text text-anchor="start" x="640.5" y="-144" font-family="Helvetica,sans-Serif" font-size="10.00" fill="#000000">tethex::Line::another</text>
<text text-anchor="middle" x="685.5" y="-133" font-family="Helvetica,sans-Serif" font-size="10.00" fill="#000000">_vertex</text>
</a>
</g>
</g>
<!-- Node56&#45;&gt;Node60 -->
<g id="edge17" class="edge">
<title>Node56&#45;&gt;Node60</title>
<path fill="none" stroke="#191970" d="M585.7057,-141C597.5197,-141 609.9745,-141 621.9283,-141"/>
<polygon fill="#191970" stroke="#191970" points="622.2755,-144.5001 632.2755,-141 622.2755,-137.5001 622.2755,-144.5001"/>
</g>
<!-- Node57&#45;&gt;Node52 -->
<g id="edge14" class="edge">
<title>Node57&#45;&gt;Node52</title>
<path fill="none" stroke="#191970" d="M732.4246,-57.5608C738.0506,-60.0204 743.4156,-63.1126 748,-67 775.1873,-90.054 815.4525,-189.435 831.755,-231.7765"/>
<polygon fill="#191970" stroke="#191970" points="828.5271,-233.1349 835.3609,-241.2312 835.0676,-230.6404 828.5271,-233.1349"/>
</g>
<!-- Node59 -->
<g id="node13" class="node">
<title>Node59</title>
<g id="a_node13"><a xlink:href="classtethex_1_1MeshElement.html#aa7d8e4c101b47e1087917a42c0a3074a" target="_top" xlink:title="Check &#45; whether the element contains the vertex or not. ">
<polygon fill="#ffffff" stroke="#000000" points="784,-77 784,-107 894,-107 894,-77 784,-77"/>
<text text-anchor="start" x="792" y="-95" font-family="Helvetica,sans-Serif" font-size="10.00" fill="#000000">tethex::MeshElement</text>
<text text-anchor="middle" x="839" y="-84" font-family="Helvetica,sans-Serif" font-size="10.00" fill="#000000">::contains</text>
</a>
</g>
</g>
<!-- Node58&#45;&gt;Node59 -->
<g id="edge16" class="edge">
<title>Node58&#45;&gt;Node59</title>
<path fill="none" stroke="#191970" d="M741.3512,-92C751.8749,-92 762.966,-92 773.7474,-92"/>
<polygon fill="#191970" stroke="#191970" points="773.9607,-95.5001 783.9607,-92 773.9607,-88.5001 773.9607,-95.5001"/>
</g>
<!-- Node62 -->
<g id="node16" class="node">
<title>Node62</title>
<g id="a_node16"><a xlink:href="namespacetethex.html#a4829931502bfe6e2c614c95e59cda77b" target="_top" xlink:title="Since this project was originally designed to connect Gmsh&#39;s meshes with deal.II solvers, the main requirement for new meshes was to be properly read by deal.II. ">
<polygon fill="#ffffff" stroke="#000000" points="623,-.5 623,-19.5 748,-19.5 748,-.5 623,-.5"/>
<text text-anchor="middle" x="685.5" y="-7.5" font-family="Helvetica,sans-Serif" font-size="10.00" fill="#000000">tethex::cell_measure_2D</text>
</a>
</g>
</g>
<!-- Node61&#45;&gt;Node62 -->
<g id="edge20" class="edge">
<title>Node61&#45;&gt;Node62</title>
<path fill="none" stroke="#191970" d="M545.8628,-76.9833C564.6903,-62.972 594.5365,-42.2872 623,-29 627.7593,-26.7783 632.8421,-24.7386 637.9755,-22.8878"/>
<polygon fill="#191970" stroke="#191970" points="639.4801,-26.0742 647.8382,-19.5632 637.2441,-19.4409 639.4801,-26.0742"/>
</g>
<!-- Node63&#45;&gt;Node51 -->
<g id="edge23" class="edge">
<title>Node63&#45;&gt;Node51</title>
<path fill="none" stroke="#191970" d="M583.9026,-229C594.2163,-229 605.0689,-229 615.6874,-229"/>
<polygon fill="#191970" stroke="#191970" points="615.7712,-232.5001 625.7712,-229 615.7711,-225.5001 615.7712,-232.5001"/>
</g>
<!-- Node63&#45;&gt;Node52 -->
<g id="edge24" class="edge">
<title>Node63&#45;&gt;Node52</title>
<path fill="none" stroke="#191970" d="M577.1484,-244.0555C591.8054,-247.7398 607.9205,-251.153 623,-253 682.7894,-260.3234 752.5844,-257.6696 796.2918,-254.6756"/>
<polygon fill="#191970" stroke="#191970" points="796.5604,-258.1654 806.2822,-253.9539 796.056,-251.1836 796.5604,-258.1654"/>
</g>
<!-- Node64&#45;&gt;Node57 -->
<g id="edge26" class="edge">
<title>Node64&#45;&gt;Node57</title>
<path fill="none" stroke="#191970" d="M422.3774,-76.8784C436.3923,-73.1442 451.6945,-69.5019 466,-67 514.4857,-58.5202 569.6895,-53.7646 612.6061,-51.1318"/>
<polygon fill="#191970" stroke="#191970" points="612.9041,-54.6204 622.6811,-50.5387 612.4927,-47.6325 612.9041,-54.6204"/>
</g>
<!-- Node64&#45;&gt;Node61 -->
<g id="edge27" class="edge">
<title>Node64&#45;&gt;Node61</title>
<path fill="none" stroke="#191970" d="M428.2151,-92C437.1168,-92 446.4218,-92 455.6062,-92"/>
<polygon fill="#191970" stroke="#191970" points="455.8966,-95.5001 465.8965,-92 455.8965,-88.5001 455.8966,-95.5001"/>
</g>
</g>
</svg>
