<?xml version="1.0" encoding="UTF-8" standalone="no"?>
<!DOCTYPE svg PUBLIC "-//W3C//DTD SVG 1.1//EN"
 "http://www.w3.org/Graphics/SVG/1.1/DTD/svg11.dtd">
<!-- Generated by graphviz version 2.40.1 (20161225.0304)
 -->
<!-- Title: River::Triangle Pages: 1 -->
<svg width="1005pt" height="804pt"
 viewBox="0.00 0.00 1005.00 804.00" xmlns="http://www.w3.org/2000/svg" xmlns:xlink="http://www.w3.org/1999/xlink">
<g id="graph0" class="graph" transform="scale(1 1) rotate(0) translate(4 800)">
<title>River::Triangle</title>
<polygon fill="#ffffff" stroke="transparent" points="-4,4 -4,-800 1001,-800 1001,4 -4,4"/>
<!-- Node1 -->
<g id="node1" class="node">
<title>Node1</title>
<polygon fill="#bfbfbf" stroke="#000000" points="430,-.5 430,-310.5 594,-310.5 594,-.5 430,-.5"/>
<text text-anchor="middle" x="512" y="-298.5" font-family="Helvetica,sans-Serif" font-size="10.00" fill="#000000">River::Triangle</text>
<polyline fill="none" stroke="#000000" points="430,-291.5 594,-291.5 "/>
<text text-anchor="start" x="438" y="-279.5" font-family="Helvetica,sans-Serif" font-size="10.00" fill="#000000">+ Refine</text>
<text text-anchor="start" x="438" y="-268.5" font-family="Helvetica,sans-Serif" font-size="10.00" fill="#000000">+ EncloseConvexHull</text>
<text text-anchor="start" x="438" y="-257.5" font-family="Helvetica,sans-Serif" font-size="10.00" fill="#000000">+ AssignRegionalAttributes</text>
<text text-anchor="start" x="438" y="-246.5" font-family="Helvetica,sans-Serif" font-size="10.00" fill="#000000">+ Quite</text>
<text text-anchor="start" x="438" y="-235.5" font-family="Helvetica,sans-Serif" font-size="10.00" fill="#000000">&#45; ReadPSLG</text>
<text text-anchor="start" x="438" y="-224.5" font-family="Helvetica,sans-Serif" font-size="10.00" fill="#000000">&#45; SuppressNodeFile</text>
<text text-anchor="start" x="438" y="-213.5" font-family="Helvetica,sans-Serif" font-size="10.00" fill="#000000">&#45; OutputEdges</text>
<text text-anchor="start" x="438" y="-202.5" font-family="Helvetica,sans-Serif" font-size="10.00" fill="#000000">&#45; ComputeNeighbours</text>
<text text-anchor="start" x="438" y="-191.5" font-family="Helvetica,sans-Serif" font-size="10.00" fill="#000000">&#45; SuppressMehsFileNumbering</text>
<text text-anchor="start" x="438" y="-180.5" font-family="Helvetica,sans-Serif" font-size="10.00" fill="#000000">&#45; SuppressHoles</text>
<text text-anchor="start" x="438" y="-169.5" font-family="Helvetica,sans-Serif" font-size="10.00" fill="#000000">&#45; SuppressExactArithmetics</text>
<text text-anchor="start" x="438" y="-158.5" font-family="Helvetica,sans-Serif" font-size="10.00" fill="#000000">&#45; SteinerPointsOnBoundary</text>
<text text-anchor="start" x="438" y="-147.5" font-family="Helvetica,sans-Serif" font-size="10.00" fill="#000000">&#45; VoronoiDiagram</text>
<polyline fill="none" stroke="#000000" points="430,-140.5 594,-140.5 "/>
<text text-anchor="start" x="438" y="-128.5" font-family="Helvetica,sans-Serif" font-size="10.00" fill="#000000">+ print_geometry()</text>
<text text-anchor="start" x="438" y="-117.5" font-family="Helvetica,sans-Serif" font-size="10.00" fill="#000000">+ Triangle()</text>
<text text-anchor="start" x="438" y="-106.5" font-family="Helvetica,sans-Serif" font-size="10.00" fill="#000000">+ ~Triangle()</text>
<text text-anchor="start" x="438" y="-95.5" font-family="Helvetica,sans-Serif" font-size="10.00" fill="#000000">+ generate()</text>
<text text-anchor="start" x="438" y="-84.5" font-family="Helvetica,sans-Serif" font-size="10.00" fill="#000000">&#45; set_all_values_to_default()</text>
<text text-anchor="start" x="438" y="-73.5" font-family="Helvetica,sans-Serif" font-size="10.00" fill="#000000">&#45; free_allocated_memory()</text>
<text text-anchor="start" x="438" y="-62.5" font-family="Helvetica,sans-Serif" font-size="10.00" fill="#000000">&#45; update_options()</text>
<text text-anchor="start" x="438" y="-51.5" font-family="Helvetica,sans-Serif" font-size="10.00" fill="#000000">&#45; print_options()</text>
<text text-anchor="start" x="438" y="-40.5" font-family="Helvetica,sans-Serif" font-size="10.00" fill="#000000">&#45; get_geometry()</text>
<text text-anchor="start" x="438" y="-29.5" font-family="Helvetica,sans-Serif" font-size="10.00" fill="#000000">&#45; get_voronoi()</text>
<text text-anchor="start" x="438" y="-18.5" font-family="Helvetica,sans-Serif" font-size="10.00" fill="#000000">&#45; tethex_to_io()</text>
<text text-anchor="start" x="438" y="-7.5" font-family="Helvetica,sans-Serif" font-size="10.00" fill="#000000">&#45; io_to_tethex()</text>
</g>
<!-- Node2 -->
<g id="node2" class="node">
<title>Node2</title>
<polygon fill="#ffffff" stroke="#bfbfbf" points="0,-738.5 0,-795.5 50,-795.5 50,-738.5 0,-738.5"/>
<text text-anchor="middle" x="25" y="-783.5" font-family="Helvetica,sans-Serif" font-size="10.00" fill="#000000">double</text>
<polyline fill="none" stroke="#bfbfbf" points="0,-776.5 50,-776.5 "/>
<text text-anchor="middle" x="25" y="-764.5" font-family="Helvetica,sans-Serif" font-size="10.00" fill="#000000"> </text>
<polyline fill="none" stroke="#bfbfbf" points="0,-757.5 50,-757.5 "/>
<text text-anchor="middle" x="25" y="-745.5" font-family="Helvetica,sans-Serif" font-size="10.00" fill="#000000"> </text>
</g>
<!-- Node2&#45;&gt;Node1 -->
<g id="edge1" class="edge">
<title>Node2&#45;&gt;Node1</title>
<path fill="none" stroke="#404040" d="M19.6822,-738.2072C10.7652,-680.7841 -.819,-550.4649 59,-468 152.3715,-339.2804 315.8084,-245.8444 418.7399,-196.2207"/>
<polygon fill="none" stroke="#404040" points="418.9135,-196.138 422.6066,-189.9444 429.7442,-190.9712 426.0511,-197.1649 418.9135,-196.138"/>
<text text-anchor="middle" x="95" y="-527.5" font-family="Helvetica,sans-Serif" font-size="10.00" fill="#000000"> +MaxTriaArea</text>
<text text-anchor="middle" x="95" y="-516.5" font-family="Helvetica,sans-Serif" font-size="10.00" fill="#000000">+MinAngle</text>
</g>
<!-- Node7 -->
<g id="node7" class="node">
<title>Node7</title>
<g id="a_node7"><a xlink:href="classRiver_1_1MeshParams.html" target="_top" xlink:title="Adaptive mesh area constraint function. ">
<polygon fill="#ffffff" stroke="#000000" points="140,-496 140,-553 250,-553 250,-496 140,-496"/>
<text text-anchor="middle" x="195" y="-541" font-family="Helvetica,sans-Serif" font-size="10.00" fill="#000000">River::MeshParams</text>
<polyline fill="none" stroke="#000000" points="140,-534 250,-534 "/>
<text text-anchor="middle" x="195" y="-522" font-family="Helvetica,sans-Serif" font-size="10.00" fill="#000000"> </text>
<polyline fill="none" stroke="#000000" points="140,-515 250,-515 "/>
<text text-anchor="start" x="148" y="-503" font-family="Helvetica,sans-Serif" font-size="10.00" fill="#000000">+ operator()()</text>
</a>
</g>
</g>
<!-- Node2&#45;&gt;Node7 -->
<g id="edge8" class="edge">
<title>Node2&#45;&gt;Node7</title>
<path fill="none" stroke="#404040" d="M24.1138,-738.41C23.3739,-696.3835 24.3553,-620.5713 40,-599 51.9233,-582.5599 63.5764,-589.5449 82,-581 97.2909,-573.9081 113.5842,-565.9826 128.9002,-558.3632"/>
<polygon fill="none" stroke="#404040" points="129.1193,-558.2536 132.696,-551.9921 139.8516,-552.8854 136.2749,-559.1469 129.1193,-558.2536"/>
<text text-anchor="middle" x="85.5" y="-712" font-family="Helvetica,sans-Serif" font-size="10.00" fill="#000000"> +min_area</text>
<text text-anchor="middle" x="85.5" y="-701" font-family="Helvetica,sans-Serif" font-size="10.00" fill="#000000">+refinment_radius</text>
<text text-anchor="middle" x="85.5" y="-690" font-family="Helvetica,sans-Serif" font-size="10.00" fill="#000000">+sigma</text>
<text text-anchor="middle" x="85.5" y="-679" font-family="Helvetica,sans-Serif" font-size="10.00" fill="#000000">+max_edge</text>
<text text-anchor="middle" x="85.5" y="-668" font-family="Helvetica,sans-Serif" font-size="10.00" fill="#000000">+max_area</text>
<text text-anchor="middle" x="85.5" y="-657" font-family="Helvetica,sans-Serif" font-size="10.00" fill="#000000">+exponant</text>
<text text-anchor="middle" x="85.5" y="-646" font-family="Helvetica,sans-Serif" font-size="10.00" fill="#000000">+eps</text>
<text text-anchor="middle" x="85.5" y="-635" font-family="Helvetica,sans-Serif" font-size="10.00" fill="#000000">+ratio</text>
<text text-anchor="middle" x="85.5" y="-624" font-family="Helvetica,sans-Serif" font-size="10.00" fill="#000000">+min_angle</text>
<text text-anchor="middle" x="85.5" y="-613" font-family="Helvetica,sans-Serif" font-size="10.00" fill="#000000">+min_edge</text>
<text text-anchor="middle" x="85.5" y="-602" font-family="Helvetica,sans-Serif" font-size="10.00" fill="#000000">...</text>
</g>
<!-- Node3 -->
<g id="node3" class="node">
<title>Node3</title>
<polygon fill="#ffffff" stroke="#bfbfbf" points="370,-496 370,-553 414,-553 414,-496 370,-496"/>
<text text-anchor="middle" x="392" y="-541" font-family="Helvetica,sans-Serif" font-size="10.00" fill="#000000">string</text>
<polyline fill="none" stroke="#bfbfbf" points="370,-534 414,-534 "/>
<text text-anchor="middle" x="392" y="-522" font-family="Helvetica,sans-Serif" font-size="10.00" fill="#000000"> </text>
<polyline fill="none" stroke="#bfbfbf" points="370,-515 414,-515 "/>
<text text-anchor="middle" x="392" y="-503" font-family="Helvetica,sans-Serif" font-size="10.00" fill="#000000"> </text>
</g>
<!-- Node3&#45;&gt;Node1 -->
<g id="edge2" class="edge">
<title>Node3&#45;&gt;Node1</title>
<path fill="none" stroke="#404040" d="M401.3163,-495.8522C413.6015,-458.0752 436.1952,-388.5999 457.7813,-322.2224"/>
<polygon fill="none" stroke="#404040" points="457.8042,-322.1519 455.8559,-315.209 461.5154,-310.7402 463.4637,-317.6831 457.8042,-322.1519"/>
<text text-anchor="middle" x="473.5" y="-387" font-family="Helvetica,sans-Serif" font-size="10.00" fill="#000000"> &#45;options</text>
</g>
<!-- Node4 -->
<g id="node4" class="node">
<title>Node4</title>
<g id="a_node4"><a xlink:href="structtriangulateio.html" target="_top" xlink:title="Used to pass data into and out of the triangulate() procedure. ">
<polygon fill="#ffffff" stroke="#000000" points="432,-468.5 432,-580.5 592,-580.5 592,-468.5 432,-468.5"/>
<text text-anchor="middle" x="512" y="-568.5" font-family="Helvetica,sans-Serif" font-size="10.00" fill="#000000">triangulateio</text>
<polyline fill="none" stroke="#000000" points="432,-561.5 592,-561.5 "/>
<text text-anchor="start" x="440" y="-549.5" font-family="Helvetica,sans-Serif" font-size="10.00" fill="#000000">+ numberofpoints</text>
<text text-anchor="start" x="440" y="-538.5" font-family="Helvetica,sans-Serif" font-size="10.00" fill="#000000">+ numberoftriangles</text>
<text text-anchor="start" x="440" y="-527.5" font-family="Helvetica,sans-Serif" font-size="10.00" fill="#000000">+ numberofcorners</text>
<text text-anchor="start" x="440" y="-516.5" font-family="Helvetica,sans-Serif" font-size="10.00" fill="#000000">+ numberoftriangleattributes</text>
<text text-anchor="start" x="440" y="-505.5" font-family="Helvetica,sans-Serif" font-size="10.00" fill="#000000">+ edgelist</text>
<text text-anchor="start" x="440" y="-494.5" font-family="Helvetica,sans-Serif" font-size="10.00" fill="#000000">+ edgemarkerlist</text>
<polyline fill="none" stroke="#000000" points="432,-487.5 592,-487.5 "/>
<text text-anchor="middle" x="512" y="-475.5" font-family="Helvetica,sans-Serif" font-size="10.00" fill="#000000"> </text>
</a>
</g>
</g>
<!-- Node4&#45;&gt;Node1 -->
<g id="edge3" class="edge">
<title>Node4&#45;&gt;Node1</title>
<path fill="none" stroke="#404040" d="M512,-468.4568C512,-429.458 512,-375.2578 512,-322.9087"/>
<polygon fill="none" stroke="#404040" points="512.0001,-322.7172 508,-316.7173 512,-310.7172 516,-316.7172 512.0001,-322.7172"/>
<text text-anchor="middle" x="531.5" y="-387" font-family="Helvetica,sans-Serif" font-size="10.00" fill="#000000"> &#45;vorout</text>
</g>
<!-- Node5 -->
<g id="node5" class="node">
<title>Node5</title>
<polygon fill="#ffffff" stroke="#bfbfbf" points="361,-738.5 361,-795.5 411,-795.5 411,-738.5 361,-738.5"/>
<text text-anchor="middle" x="386" y="-783.5" font-family="Helvetica,sans-Serif" font-size="10.00" fill="#000000">REAL *</text>
<polyline fill="none" stroke="#bfbfbf" points="361,-776.5 411,-776.5 "/>
<text text-anchor="middle" x="386" y="-764.5" font-family="Helvetica,sans-Serif" font-size="10.00" fill="#000000"> </text>
<polyline fill="none" stroke="#bfbfbf" points="361,-757.5 411,-757.5 "/>
<text text-anchor="middle" x="386" y="-745.5" font-family="Helvetica,sans-Serif" font-size="10.00" fill="#000000"> </text>
</g>
<!-- Node5&#45;&gt;Node4 -->
<g id="edge4" class="edge">
<title>Node5&#45;&gt;Node4</title>
<path fill="none" stroke="#404040" d="M377.9815,-738.3889C369.7803,-702.8402 361.6124,-641.6702 388,-599 395.6189,-586.6798 404.2133,-588.3846 420.4857,-581.5303"/>
<polygon fill="none" stroke="#404040" points="420.9304,-581.3086 424.5154,-575.0518 431.6698,-575.9545 428.0848,-582.2113 420.9304,-581.3086"/>
<text text-anchor="middle" x="439.5" y="-690" font-family="Helvetica,sans-Serif" font-size="10.00" fill="#000000"> +regionlist</text>
<text text-anchor="middle" x="439.5" y="-679" font-family="Helvetica,sans-Serif" font-size="10.00" fill="#000000">+pointattributelist</text>
<text text-anchor="middle" x="439.5" y="-668" font-family="Helvetica,sans-Serif" font-size="10.00" fill="#000000">+pointlist</text>
<text text-anchor="middle" x="439.5" y="-657" font-family="Helvetica,sans-Serif" font-size="10.00" fill="#000000">+trianglearealist</text>
<text text-anchor="middle" x="439.5" y="-646" font-family="Helvetica,sans-Serif" font-size="10.00" fill="#000000">+normlist</text>
<text text-anchor="middle" x="439.5" y="-635" font-family="Helvetica,sans-Serif" font-size="10.00" fill="#000000">+triangleattributelist</text>
<text text-anchor="middle" x="439.5" y="-624" font-family="Helvetica,sans-Serif" font-size="10.00" fill="#000000">+holelist</text>
</g>
<!-- Node6 -->
<g id="node6" class="node">
<title>Node6</title>
<polygon fill="#ffffff" stroke="#bfbfbf" points="568.5,-738.5 568.5,-795.5 597.5,-795.5 597.5,-738.5 568.5,-738.5"/>
<text text-anchor="middle" x="583" y="-783.5" font-family="Helvetica,sans-Serif" font-size="10.00" fill="#000000">int</text>
<polyline fill="none" stroke="#bfbfbf" points="568.5,-776.5 597.5,-776.5 "/>
<text text-anchor="middle" x="583" y="-764.5" font-family="Helvetica,sans-Serif" font-size="10.00" fill="#000000"> </text>
<polyline fill="none" stroke="#bfbfbf" points="568.5,-757.5 597.5,-757.5 "/>
<text text-anchor="middle" x="583" y="-745.5" font-family="Helvetica,sans-Serif" font-size="10.00" fill="#000000"> </text>
</g>
<!-- Node6&#45;&gt;Node1 -->
<g id="edge6" class="edge">
<title>Node6&#45;&gt;Node1</title>
<path fill="none" stroke="#404040" d="M597.5866,-760.0257C611.6506,-752.3981 632.0757,-738.7183 641,-720 664.1437,-671.4571 648.5857,-652.2401 641,-599 627.6854,-505.5523 599.3406,-404.2722 572.6031,-322.1204"/>
<polygon fill="none" stroke="#404040" points="572.5834,-322.0603 566.9123,-317.6062 568.8427,-310.6582 574.5137,-315.1124 572.5834,-322.0603"/>
<text text-anchor="middle" x="699" y="-527.5" font-family="Helvetica,sans-Serif" font-size="10.00" fill="#000000"> &#45;dim</text>
<text text-anchor="middle" x="699" y="-516.5" font-family="Helvetica,sans-Serif" font-size="10.00" fill="#000000">&#45;MaxNumOfSteinerPoints</text>
</g>
<!-- Node6&#45;&gt;Node4 -->
<g id="edge5" class="edge">
<title>Node6&#45;&gt;Node4</title>
<path fill="none" stroke="#404040" d="M568.2926,-761.9583C551.4539,-755.3004 524.6928,-741.8004 513,-720 492.2822,-681.3732 492.2123,-631.9675 497.2306,-592.4873"/>
<polygon fill="none" stroke="#404040" points="497.2351,-592.4556 494.1249,-585.9497 498.9342,-580.5765 502.0444,-587.0824 497.2351,-592.4556"/>
<text text-anchor="middle" x="577" y="-712" font-family="Helvetica,sans-Serif" font-size="10.00" fill="#000000"> +numberofsegments</text>
<text text-anchor="middle" x="577" y="-701" font-family="Helvetica,sans-Serif" font-size="10.00" fill="#000000">+segmentmarkerlist</text>
<text text-anchor="middle" x="577" y="-690" font-family="Helvetica,sans-Serif" font-size="10.00" fill="#000000">+numberofedges</text>
<text text-anchor="middle" x="577" y="-679" font-family="Helvetica,sans-Serif" font-size="10.00" fill="#000000">+segmentlist</text>
<text text-anchor="middle" x="577" y="-668" font-family="Helvetica,sans-Serif" font-size="10.00" fill="#000000">+pointmarkerlist</text>
<text text-anchor="middle" x="577" y="-657" font-family="Helvetica,sans-Serif" font-size="10.00" fill="#000000">+numberofpointattributes</text>
<text text-anchor="middle" x="577" y="-646" font-family="Helvetica,sans-Serif" font-size="10.00" fill="#000000">+trianglelist</text>
<text text-anchor="middle" x="577" y="-635" font-family="Helvetica,sans-Serif" font-size="10.00" fill="#000000">+numberofholes</text>
<text text-anchor="middle" x="577" y="-624" font-family="Helvetica,sans-Serif" font-size="10.00" fill="#000000">+neighborlist</text>
<text text-anchor="middle" x="577" y="-613" font-family="Helvetica,sans-Serif" font-size="10.00" fill="#000000">+numberofregions</text>
<text text-anchor="middle" x="577" y="-602" font-family="Helvetica,sans-Serif" font-size="10.00" fill="#000000">...</text>
</g>
<!-- Node7&#45;&gt;Node1 -->
<g id="edge7" class="edge">
<title>Node7&#45;&gt;Node1</title>
<path fill="none" stroke="#404040" d="M219.6107,-495.8522C262.4726,-445.9594 352.8342,-340.775 421.8308,-260.4604"/>
<polygon fill="none" stroke="#404040" points="421.8892,-260.3923 422.7649,-253.2346 429.7089,-251.2899 428.8332,-258.4477 421.8892,-260.3923"/>
<text text-anchor="middle" x="366.5" y="-387" font-family="Helvetica,sans-Serif" font-size="10.00" fill="#000000"> +ref</text>
</g>
<!-- Node8 -->
<g id="node8" class="node">
<title>Node8</title>
<polygon fill="#ffffff" stroke="#bfbfbf" points="74,-738.5 74,-795.5 200,-795.5 200,-738.5 74,-738.5"/>
<text text-anchor="middle" x="137" y="-783.5" font-family="Helvetica,sans-Serif" font-size="10.00" fill="#000000">vector&lt; River::Point &gt;</text>
<polyline fill="none" stroke="#bfbfbf" points="74,-776.5 200,-776.5 "/>
<text text-anchor="middle" x="137" y="-764.5" font-family="Helvetica,sans-Serif" font-size="10.00" fill="#000000"> </text>
<polyline fill="none" stroke="#bfbfbf" points="74,-757.5 200,-757.5 "/>
<text text-anchor="middle" x="137" y="-745.5" font-family="Helvetica,sans-Serif" font-size="10.00" fill="#000000"> </text>
</g>
<!-- Node8&#45;&gt;Node7 -->
<g id="edge9" class="edge">
<title>Node8&#45;&gt;Node7</title>
<path fill="none" stroke="#404040" d="M135.2533,-738.2907C134.074,-704.2137 134.904,-646.0779 150,-599 153.951,-586.6785 160.2939,-574.2642 166.9865,-563.1978"/>
<polygon fill="none" stroke="#404040" points="167.0024,-563.1727 166.848,-555.9633 173.4435,-553.0479 173.5979,-560.2573 167.0024,-563.1727"/>
<text text-anchor="middle" x="180" y="-657" font-family="Helvetica,sans-Serif" font-size="10.00" fill="#000000"> +tip_points</text>
</g>
<!-- Node9 -->
<g id="node9" class="node">
<title>Node9</title>
<polygon fill="#ffffff" stroke="#bfbfbf" points="218.5,-738.5 218.5,-795.5 279.5,-795.5 279.5,-738.5 218.5,-738.5"/>
<text text-anchor="middle" x="249" y="-783.5" font-family="Helvetica,sans-Serif" font-size="10.00" fill="#000000">unsigned</text>
<polyline fill="none" stroke="#bfbfbf" points="218.5,-776.5 279.5,-776.5 "/>
<text text-anchor="middle" x="249" y="-764.5" font-family="Helvetica,sans-Serif" font-size="10.00" fill="#000000"> </text>
<polyline fill="none" stroke="#bfbfbf" points="218.5,-757.5 279.5,-757.5 "/>
<text text-anchor="middle" x="249" y="-745.5" font-family="Helvetica,sans-Serif" font-size="10.00" fill="#000000"> </text>
</g>
<!-- Node9&#45;&gt;Node7 -->
<g id="edge10" class="edge">
<title>Node9&#45;&gt;Node7</title>
<path fill="none" stroke="#404040" d="M241.3545,-738.235C239.8421,-732.226 238.3168,-725.9188 237,-720 225.1122,-666.5657 225.8806,-652.4359 214,-599 211.5373,-587.9236 208.6151,-575.9886 205.8102,-564.9864"/>
<polygon fill="none" stroke="#404040" points="205.7294,-564.6741 200.3541,-559.8673 202.7238,-553.0566 208.0991,-557.8635 205.7294,-564.6741"/>
<text text-anchor="start" x="237" y="-673.5" font-family="Helvetica,sans-Serif" font-size="10.00" fill="#000000"> +number_of_refined</text>
<text text-anchor="middle" x="300.5" y="-662.5" font-family="Helvetica,sans-Serif" font-size="10.00" fill="#000000">_quadrangles</text>
<text text-anchor="middle" x="300.5" y="-651.5" font-family="Helvetica,sans-Serif" font-size="10.00" fill="#000000">+number_of_quadrangles</text>
<text text-anchor="middle" x="300.5" y="-640.5" font-family="Helvetica,sans-Serif" font-size="10.00" fill="#000000">+static_refinment_steps</text>
</g>
<!-- Node10 -->
<g id="node10" class="node">
<title>Node10</title>
<polygon fill="#ffffff" stroke="#bfbfbf" points="797,-496 797,-553 835,-553 835,-496 797,-496"/>
<text text-anchor="middle" x="816" y="-541" font-family="Helvetica,sans-Serif" font-size="10.00" fill="#000000">bool</text>
<polyline fill="none" stroke="#bfbfbf" points="797,-534 835,-534 "/>
<text text-anchor="middle" x="816" y="-522" font-family="Helvetica,sans-Serif" font-size="10.00" fill="#000000"> </text>
<polyline fill="none" stroke="#bfbfbf" points="797,-515 835,-515 "/>
<text text-anchor="middle" x="816" y="-503" font-family="Helvetica,sans-Serif" font-size="10.00" fill="#000000"> </text>
</g>
<!-- Node10&#45;&gt;Node1 -->
<g id="edge11" class="edge">
<title>Node10&#45;&gt;Node1</title>
<path fill="none" stroke="#404040" d="M800.4057,-495.7898C795.1664,-486.712 789.0975,-476.7659 783,-468 728.6856,-389.9168 658.0308,-308.9794 602.4835,-249.0432"/>
<polygon fill="none" stroke="#404040" points="602.2269,-248.7674 595.2113,-247.0994 594.0526,-239.982 601.0682,-241.6499 602.2269,-248.7674"/>
<text text-anchor="middle" x="837" y="-442" font-family="Helvetica,sans-Serif" font-size="10.00" fill="#000000"> +Verbose</text>
<text text-anchor="middle" x="837" y="-431" font-family="Helvetica,sans-Serif" font-size="10.00" fill="#000000">+DelaunayTriangles</text>
<text text-anchor="middle" x="837" y="-420" font-family="Helvetica,sans-Serif" font-size="10.00" fill="#000000">+CustomConstraint</text>
<text text-anchor="middle" x="837" y="-409" font-family="Helvetica,sans-Serif" font-size="10.00" fill="#000000">&#45;SteinerPointsOnSegments</text>
<text text-anchor="middle" x="837" y="-398" font-family="Helvetica,sans-Serif" font-size="10.00" fill="#000000">+CheckFinalMesh</text>
<text text-anchor="middle" x="837" y="-387" font-family="Helvetica,sans-Serif" font-size="10.00" fill="#000000">+AreaConstrain</text>
<text text-anchor="middle" x="837" y="-376" font-family="Helvetica,sans-Serif" font-size="10.00" fill="#000000">&#45;SuppressBoundaryMarkers</text>
<text text-anchor="middle" x="837" y="-365" font-family="Helvetica,sans-Serif" font-size="10.00" fill="#000000">&#45;SuppressEleFile</text>
<text text-anchor="middle" x="837" y="-354" font-family="Helvetica,sans-Serif" font-size="10.00" fill="#000000">&#45;SuppressPolyFile</text>
<text text-anchor="middle" x="837" y="-343" font-family="Helvetica,sans-Serif" font-size="10.00" fill="#000000">+ConstrainAngle</text>
<text text-anchor="middle" x="837" y="-332" font-family="Helvetica,sans-Serif" font-size="10.00" fill="#000000">...</text>
</g>
<!-- Node11 -->
<g id="node11" class="node">
<title>Node11</title>
<polygon fill="#ffffff" stroke="#bfbfbf" points="897,-496 897,-553 961,-553 961,-496 897,-496"/>
<text text-anchor="middle" x="929" y="-541" font-family="Helvetica,sans-Serif" font-size="10.00" fill="#000000">algorithm</text>
<polyline fill="none" stroke="#bfbfbf" points="897,-534 961,-534 "/>
<text text-anchor="middle" x="929" y="-522" font-family="Helvetica,sans-Serif" font-size="10.00" fill="#000000"> </text>
<polyline fill="none" stroke="#bfbfbf" points="897,-515 961,-515 "/>
<text text-anchor="middle" x="929" y="-503" font-family="Helvetica,sans-Serif" font-size="10.00" fill="#000000"> </text>
</g>
<!-- Node11&#45;&gt;Node1 -->
<g id="edge12" class="edge">
<title>Node11&#45;&gt;Node1</title>
<path fill="none" stroke="#404040" d="M934.0162,-495.788C939.5361,-454.626 943.3419,-378.3762 907,-329 835.7554,-232.2028 698.6285,-188.5856 606.2046,-169.5119"/>
<polygon fill="none" stroke="#404040" points="606.0865,-169.4885 599.4204,-172.2385 594.318,-167.1428 600.9841,-164.3928 606.0865,-169.4885"/>
<text text-anchor="middle" x="967" y="-387" font-family="Helvetica,sans-Serif" font-size="10.00" fill="#000000"> +Algorithm</text>
</g>
</g>
</svg>
