<?xml version="1.0" encoding="UTF-8" standalone="no"?>
<!DOCTYPE svg PUBLIC "-//W3C//DTD SVG 1.1//EN"
 "http://www.w3.org/Graphics/SVG/1.1/DTD/svg11.dtd">
<!-- Generated by graphviz version 2.40.1 (20161225.0304)
 -->
<!-- Title: tethex::MeshElement::contains Pages: 1 -->
<svg width="881pt" height="39pt"
 viewBox="0.00 0.00 881.00 39.00" xmlns="http://www.w3.org/2000/svg" xmlns:xlink="http://www.w3.org/1999/xlink">
<g id="graph0" class="graph" transform="scale(1 1) rotate(0) translate(4 35)">
<title>tethex::MeshElement::contains</title>
<polygon fill="#ffffff" stroke="transparent" points="-4,4 -4,-35 877,-35 877,4 -4,4"/>
<!-- Node39 -->
<g id="node1" class="node">
<title>Node39</title>
<polygon fill="#bfbfbf" stroke="#000000" points="0,-.5 0,-30.5 110,-30.5 110,-.5 0,-.5"/>
<text text-anchor="start" x="8" y="-18.5" font-family="Helvetica,sans-Serif" font-size="10.00" fill="#000000">tethex::MeshElement</text>
<text text-anchor="middle" x="55" y="-7.5" font-family="Helvetica,sans-Serif" font-size="10.00" fill="#000000">::contains</text>
</g>
<!-- Node40 -->
<g id="node2" class="node">
<title>Node40</title>
<g id="a_node2"><a xlink:href="classtethex_1_1Line.html#a7ee8354de8290f9a914e480385fc16e7" target="_top" xlink:title="Find common vertex between two lines. ">
<polygon fill="#ffffff" stroke="#000000" points="146,-.5 146,-30.5 257,-30.5 257,-.5 146,-.5"/>
<text text-anchor="start" x="154" y="-18.5" font-family="Helvetica,sans-Serif" font-size="10.00" fill="#000000">tethex::Line::common</text>
<text text-anchor="middle" x="201.5" y="-7.5" font-family="Helvetica,sans-Serif" font-size="10.00" fill="#000000">_vertex</text>
</a>
</g>
</g>
<!-- Node39&#45;&gt;Node40 -->
<g id="edge1" class="edge">
<title>Node39&#45;&gt;Node40</title>
<path fill="none" stroke="#191970" d="M120.4904,-15.5C128.8546,-15.5 137.3553,-15.5 145.5497,-15.5"/>
<polygon fill="#191970" stroke="#191970" points="120.3854,-12.0001 110.3854,-15.5 120.3853,-19.0001 120.3854,-12.0001"/>
</g>
<!-- Node41 -->
<g id="node3" class="node">
<title>Node41</title>
<g id="a_node3"><a xlink:href="classtethex_1_1Mesh.html#abc261df76b5f1090b366386fdcb495cb" target="_top" xlink:title="Find the global number of face basing on numbers of 2 edges defining that face. ">
<polygon fill="#ffffff" stroke="#000000" points="293,-.5 293,-30.5 411,-30.5 411,-.5 293,-.5"/>
<text text-anchor="start" x="301" y="-18.5" font-family="Helvetica,sans-Serif" font-size="10.00" fill="#000000">tethex::Mesh::find</text>
<text text-anchor="middle" x="352" y="-7.5" font-family="Helvetica,sans-Serif" font-size="10.00" fill="#000000">_face_from_two_edges</text>
</a>
</g>
</g>
<!-- Node40&#45;&gt;Node41 -->
<g id="edge2" class="edge">
<title>Node40&#45;&gt;Node41</title>
<path fill="none" stroke="#191970" d="M267.3456,-15.5C275.8246,-15.5 284.4653,-15.5 292.8281,-15.5"/>
<polygon fill="#191970" stroke="#191970" points="267.1131,-12.0001 257.1131,-15.5 267.113,-19.0001 267.1131,-12.0001"/>
</g>
<!-- Node42 -->
<g id="node4" class="node">
<title>Node42</title>
<g id="a_node4"><a xlink:href="classtethex_1_1Mesh.html#ab739c5e4bbb1c3461a068c2104eab52e" target="_top" xlink:title="Conversion from triangles to quadrangles. ">
<polygon fill="#ffffff" stroke="#000000" points="447,-.5 447,-30.5 559,-30.5 559,-.5 447,-.5"/>
<text text-anchor="start" x="455" y="-18.5" font-family="Helvetica,sans-Serif" font-size="10.00" fill="#000000">tethex::Mesh::convert</text>
<text text-anchor="middle" x="503" y="-7.5" font-family="Helvetica,sans-Serif" font-size="10.00" fill="#000000">_triangles</text>
</a>
</g>
</g>
<!-- Node41&#45;&gt;Node42 -->
<g id="edge3" class="edge">
<title>Node41&#45;&gt;Node42</title>
<path fill="none" stroke="#191970" d="M421.2488,-15.5C429.8352,-15.5 438.5302,-15.5 446.8855,-15.5"/>
<polygon fill="#191970" stroke="#191970" points="421.2458,-12.0001 411.2458,-15.5 421.2458,-19.0001 421.2458,-12.0001"/>
</g>
<!-- Node43 -->
<g id="node5" class="node">
<title>Node43</title>
<g id="a_node5"><a xlink:href="classtethex_1_1Mesh.html#adb803e48ce7101318531730a512ecbc8" target="_top" xlink:title="Conversion of 2D meshes (triangles &#45;&gt; quadrangles) ">
<polygon fill="#ffffff" stroke="#000000" points="595,-6 595,-25 725,-25 725,-6 595,-6"/>
<text text-anchor="middle" x="660" y="-13" font-family="Helvetica,sans-Serif" font-size="10.00" fill="#000000">tethex::Mesh::convert_2D</text>
</a>
</g>
</g>
<!-- Node42&#45;&gt;Node43 -->
<g id="edge4" class="edge">
<title>Node42&#45;&gt;Node43</title>
<path fill="none" stroke="#191970" d="M569.3808,-15.5C577.7962,-15.5 586.402,-15.5 594.7987,-15.5"/>
<polygon fill="#191970" stroke="#191970" points="569.2372,-12.0001 559.2372,-15.5 569.2371,-19.0001 569.2372,-12.0001"/>
</g>
<!-- Node44 -->
<g id="node6" class="node">
<title>Node44</title>
<g id="a_node6"><a xlink:href="classtethex_1_1Mesh.html#aaa882d21498571cbd84d4f7129fd6e32" target="_top" xlink:title="Conversion from simplices to bricks. ">
<polygon fill="#ffffff" stroke="#000000" points="761,-6 761,-25 873,-25 873,-6 761,-6"/>
<text text-anchor="middle" x="817" y="-13" font-family="Helvetica,sans-Serif" font-size="10.00" fill="#000000">tethex::Mesh::convert</text>
</a>
</g>
</g>
<!-- Node43&#45;&gt;Node44 -->
<g id="edge5" class="edge">
<title>Node43&#45;&gt;Node44</title>
<path fill="none" stroke="#191970" d="M735.2433,-15.5C743.8245,-15.5 752.4576,-15.5 760.7317,-15.5"/>
<polygon fill="#191970" stroke="#191970" points="735.2182,-12.0001 725.2182,-15.5 735.2182,-19.0001 735.2182,-12.0001"/>
</g>
</g>
</svg>
