<?xml version="1.0" encoding="UTF-8" standalone="no"?>
<!DOCTYPE svg PUBLIC "-//W3C//DTD SVG 1.1//EN"
 "http://www.w3.org/Graphics/SVG/1.1/DTD/svg11.dtd">
<!-- Generated by graphviz version 2.40.1 (20161225.0304)
 -->
<!-- Title: nlohmann::json_pointer::unflatten Pages: 1 -->
<svg width="604pt" height="88pt"
 viewBox="0.00 0.00 604.00 88.00" xmlns="http://www.w3.org/2000/svg" xmlns:xlink="http://www.w3.org/1999/xlink">
<g id="graph0" class="graph" transform="scale(1 1) rotate(0) translate(4 84)">
<title>nlohmann::json_pointer::unflatten</title>
<polygon fill="#ffffff" stroke="transparent" points="-4,4 -4,-84 600,-84 600,4 -4,4"/>
<!-- Node89 -->
<g id="node1" class="node">
<title>Node89</title>
<polygon fill="#bfbfbf" stroke="#000000" points="0,-27.5 0,-57.5 117,-57.5 117,-27.5 0,-27.5"/>
<text text-anchor="start" x="8" y="-45.5" font-family="Helvetica,sans-Serif" font-size="10.00" fill="#000000">nlohmann::json_pointer</text>
<text text-anchor="middle" x="58.5" y="-34.5" font-family="Helvetica,sans-Serif" font-size="10.00" fill="#000000">::unflatten</text>
</g>
<!-- Node90 -->
<g id="node2" class="node">
<title>Node90</title>
<g id="a_node2"><a xlink:href="classnlohmann_1_1detail_1_1type__error.html#aecc083aea4b698c33d042670ba50c10f" target="_top" xlink:title="nlohmann::detail::type\l_error::create">
<polygon fill="#ffffff" stroke="#000000" points="308.5,-49.5 308.5,-79.5 421.5,-79.5 421.5,-49.5 308.5,-49.5"/>
<text text-anchor="start" x="316.5" y="-67.5" font-family="Helvetica,sans-Serif" font-size="10.00" fill="#000000">nlohmann::detail::type</text>
<text text-anchor="middle" x="365" y="-56.5" font-family="Helvetica,sans-Serif" font-size="10.00" fill="#000000">_error::create</text>
</a>
</g>
</g>
<!-- Node89&#45;&gt;Node90 -->
<g id="edge1" class="edge">
<title>Node89&#45;&gt;Node90</title>
<path fill="none" stroke="#191970" d="M117.2336,-46.7158C168.9177,-50.4256 244.1324,-55.8244 298.117,-59.6993"/>
<polygon fill="#191970" stroke="#191970" points="298.0533,-63.2036 308.2782,-60.4286 298.5545,-56.2216 298.0533,-63.2036"/>
</g>
<!-- Node92 -->
<g id="node4" class="node">
<title>Node92</title>
<g id="a_node4"><a xlink:href="classnlohmann_1_1json__pointer.html#a583c726016f440ffe65553935c101ff5" target="_top" xlink:title="create and return a reference to the pointed to value ">
<polygon fill="#ffffff" stroke="#000000" points="153,-5.5 153,-35.5 270,-35.5 270,-5.5 153,-5.5"/>
<text text-anchor="start" x="161" y="-23.5" font-family="Helvetica,sans-Serif" font-size="10.00" fill="#000000">nlohmann::json_pointer</text>
<text text-anchor="middle" x="211.5" y="-12.5" font-family="Helvetica,sans-Serif" font-size="10.00" fill="#000000">::get_and_create</text>
</a>
</g>
</g>
<!-- Node89&#45;&gt;Node92 -->
<g id="edge3" class="edge">
<title>Node89&#45;&gt;Node92</title>
<path fill="none" stroke="#191970" d="M117.2162,-34.0571C125.6354,-32.8465 134.3589,-31.5922 142.9473,-30.3573"/>
<polygon fill="#191970" stroke="#191970" points="143.5409,-33.808 152.9409,-28.9203 142.5445,-26.8792 143.5409,-33.808"/>
</g>
<!-- Node91 -->
<g id="node3" class="node">
<title>Node91</title>
<g id="a_node3"><a xlink:href="classnlohmann_1_1detail_1_1exception.html#abf41a7e9178356314082284e6cfea278" target="_top" xlink:title="nlohmann::detail::exception\l::name">
<polygon fill="#ffffff" stroke="#000000" points="460,-24.5 460,-54.5 596,-54.5 596,-24.5 460,-24.5"/>
<text text-anchor="start" x="468" y="-42.5" font-family="Helvetica,sans-Serif" font-size="10.00" fill="#000000">nlohmann::detail::exception</text>
<text text-anchor="middle" x="528" y="-31.5" font-family="Helvetica,sans-Serif" font-size="10.00" fill="#000000">::name</text>
</a>
</g>
</g>
<!-- Node90&#45;&gt;Node91 -->
<g id="edge2" class="edge">
<title>Node90&#45;&gt;Node91</title>
<path fill="none" stroke="#191970" d="M421.552,-55.8264C430.6967,-54.4238 440.3052,-52.9501 449.8522,-51.4859"/>
<polygon fill="#191970" stroke="#191970" points="450.4032,-54.9424 459.757,-49.9667 449.3419,-48.0233 450.4032,-54.9424"/>
</g>
<!-- Node92&#45;&gt;Node90 -->
<g id="edge6" class="edge">
<title>Node92&#45;&gt;Node90</title>
<path fill="none" stroke="#191970" d="M263.8967,-35.5192C276.4236,-39.11 289.9161,-42.9776 302.8361,-46.681"/>
<polygon fill="#191970" stroke="#191970" points="302.0017,-50.0827 312.579,-49.4738 303.9306,-43.3537 302.0017,-50.0827"/>
</g>
<!-- Node93 -->
<g id="node5" class="node">
<title>Node93</title>
<g id="a_node5"><a xlink:href="classnlohmann_1_1detail_1_1parse__error.html#a137ea4d27de45d8a844fd13451d40f3d" target="_top" xlink:title="create a parse error exception ">
<polygon fill="#ffffff" stroke="#000000" points="306,-.5 306,-30.5 424,-30.5 424,-.5 306,-.5"/>
<text text-anchor="start" x="314" y="-18.5" font-family="Helvetica,sans-Serif" font-size="10.00" fill="#000000">nlohmann::detail::parse</text>
<text text-anchor="middle" x="365" y="-7.5" font-family="Helvetica,sans-Serif" font-size="10.00" fill="#000000">_error::create</text>
</a>
</g>
</g>
<!-- Node92&#45;&gt;Node93 -->
<g id="edge4" class="edge">
<title>Node92&#45;&gt;Node93</title>
<path fill="none" stroke="#191970" d="M270.4081,-18.5812C278.7029,-18.311 287.2921,-18.0312 295.7582,-17.7554"/>
<polygon fill="#191970" stroke="#191970" points="296.1152,-21.2458 305.9959,-17.422 295.8872,-14.2495 296.1152,-21.2458"/>
</g>
<!-- Node93&#45;&gt;Node91 -->
<g id="edge5" class="edge">
<title>Node93&#45;&gt;Node91</title>
<path fill="none" stroke="#191970" d="M424.3078,-24.2324C432.6169,-25.4559 441.259,-26.7283 449.8515,-27.9935"/>
<polygon fill="#191970" stroke="#191970" points="449.4892,-31.4778 459.8924,-29.4719 450.5089,-24.5525 449.4892,-31.4778"/>
</g>
</g>
</svg>
