<?xml version="1.0" encoding="UTF-8" standalone="no"?>
<!DOCTYPE svg PUBLIC "-//W3C//DTD SVG 1.1//EN"
 "http://www.w3.org/Graphics/SVG/1.1/DTD/svg11.dtd">
<!-- Generated by graphviz version 2.40.1 (20161225.0304)
 -->
<!-- Title: River::IntegrationParams Pages: 1 -->
<svg width="157pt" height="193pt"
 viewBox="0.00 0.00 156.50 193.00" xmlns="http://www.w3.org/2000/svg" xmlns:xlink="http://www.w3.org/1999/xlink">
<g id="graph0" class="graph" transform="scale(1 1) rotate(0) translate(4 189)">
<title>River::IntegrationParams</title>
<polygon fill="#ffffff" stroke="transparent" points="-4,4 -4,-189 152.5,-189 152.5,4 -4,4"/>
<!-- Node1 -->
<g id="node1" class="node">
<title>Node1</title>
<polygon fill="#bfbfbf" stroke="#000000" points="0,-.5 0,-68.5 125,-68.5 125,-.5 0,-.5"/>
<text text-anchor="middle" x="62.5" y="-56.5" font-family="Helvetica,sans-Serif" font-size="10.00" fill="#000000">River::IntegrationParams</text>
<polyline fill="none" stroke="#000000" points="0,-49.5 125,-49.5 "/>
<text text-anchor="middle" x="62.5" y="-37.5" font-family="Helvetica,sans-Serif" font-size="10.00" fill="#000000"> </text>
<polyline fill="none" stroke="#000000" points="0,-30.5 125,-30.5 "/>
<text text-anchor="start" x="8" y="-18.5" font-family="Helvetica,sans-Serif" font-size="10.00" fill="#000000">+ WeightFunction()</text>
<text text-anchor="start" x="8" y="-7.5" font-family="Helvetica,sans-Serif" font-size="10.00" fill="#000000">+ BaseVector()</text>
</g>
<!-- Node2 -->
<g id="node2" class="node">
<title>Node2</title>
<polygon fill="#ffffff" stroke="#bfbfbf" points="40,-127.5 40,-184.5 85,-184.5 85,-127.5 40,-127.5"/>
<text text-anchor="middle" x="62.5" y="-172.5" font-family="Helvetica,sans-Serif" font-size="10.00" fill="#000000">double</text>
<polyline fill="none" stroke="#bfbfbf" points="40,-165.5 85,-165.5 "/>
<text text-anchor="middle" x="62.5" y="-153.5" font-family="Helvetica,sans-Serif" font-size="10.00" fill="#000000"> </text>
<polyline fill="none" stroke="#bfbfbf" points="40,-146.5 85,-146.5 "/>
<text text-anchor="middle" x="62.5" y="-134.5" font-family="Helvetica,sans-Serif" font-size="10.00" fill="#000000"> </text>
</g>
<!-- Node2&#45;&gt;Node1 -->
<g id="edge1" class="edge">
<title>Node2&#45;&gt;Node1</title>
<path fill="none" stroke="#404040" d="M62.5,-127.2062C62.5,-113.3632 62.5,-96.4255 62.5,-80.8327"/>
<polygon fill="none" stroke="#404040" points="62.5001,-80.7007 58.5,-74.7008 62.5,-68.7007 66.5,-74.7007 62.5001,-80.7007"/>
<text text-anchor="middle" x="105.5" y="-101" font-family="Helvetica,sans-Serif" font-size="10.00" fill="#000000"> +integration_radius</text>
<text text-anchor="middle" x="105.5" y="-90" font-family="Helvetica,sans-Serif" font-size="10.00" fill="#000000">+exponant</text>
</g>
</g>
</svg>
