<?xml version="1.0" encoding="UTF-8" standalone="no"?>
<!DOCTYPE svg PUBLIC "-//W3C//DTD SVG 1.1//EN"
 "http://www.w3.org/Graphics/SVG/1.1/DTD/svg11.dtd">
<!-- Generated by graphviz version 2.40.1 (20161225.0304)
 -->
<!-- Title: River::Model Pages: 1 -->
<svg width="517pt" height="471pt"
 viewBox="0.00 0.00 516.50 471.00" xmlns="http://www.w3.org/2000/svg" xmlns:xlink="http://www.w3.org/1999/xlink">
<g id="graph0" class="graph" transform="scale(1 1) rotate(0) translate(4 467)">
<title>River::Model</title>
<polygon fill="#ffffff" stroke="transparent" points="-4,4 -4,-467 512.5,-467 512.5,4 -4,4"/>
<!-- Node1 -->
<g id="node1" class="node">
<title>Node1</title>
<polygon fill="#bfbfbf" stroke="#000000" points="159,-.5 159,-112.5 324,-112.5 324,-.5 159,-.5"/>
<text text-anchor="middle" x="241.5" y="-100.5" font-family="Helvetica,sans-Serif" font-size="10.00" fill="#000000">River::Model</text>
<polyline fill="none" stroke="#000000" points="159,-93.5 324,-93.5 "/>
<text text-anchor="middle" x="241.5" y="-81.5" font-family="Helvetica,sans-Serif" font-size="10.00" fill="#000000"> </text>
<polyline fill="none" stroke="#000000" points="159,-74.5 324,-74.5 "/>
<text text-anchor="start" x="167" y="-62.5" font-family="Helvetica,sans-Serif" font-size="10.00" fill="#000000">+ q_biffurcate()</text>
<text text-anchor="start" x="167" y="-51.5" font-family="Helvetica,sans-Serif" font-size="10.00" fill="#000000">+ q_growth()</text>
<text text-anchor="start" x="167" y="-40.5" font-family="Helvetica,sans-Serif" font-size="10.00" fill="#000000">+ next_point()</text>
<text text-anchor="start" x="167" y="-29.5" font-family="Helvetica,sans-Serif" font-size="10.00" fill="#000000">+ GetZeroIndices()</text>
<text text-anchor="start" x="167" y="-18.5" font-family="Helvetica,sans-Serif" font-size="10.00" fill="#000000">+ GetNonZeroIndices()</text>
<text text-anchor="start" x="167" y="-7.5" font-family="Helvetica,sans-Serif" font-size="10.00" fill="#000000">+ CheckParametersConsistency()</text>
</g>
<!-- Node2 -->
<g id="node2" class="node">
<title>Node2</title>
<polygon fill="#ffffff" stroke="#bfbfbf" points="312,-405.5 312,-462.5 357,-462.5 357,-405.5 312,-405.5"/>
<text text-anchor="middle" x="334.5" y="-450.5" font-family="Helvetica,sans-Serif" font-size="10.00" fill="#000000">double</text>
<polyline fill="none" stroke="#bfbfbf" points="312,-443.5 357,-443.5 "/>
<text text-anchor="middle" x="334.5" y="-431.5" font-family="Helvetica,sans-Serif" font-size="10.00" fill="#000000"> </text>
<polyline fill="none" stroke="#bfbfbf" points="312,-424.5 357,-424.5 "/>
<text text-anchor="middle" x="334.5" y="-412.5" font-family="Helvetica,sans-Serif" font-size="10.00" fill="#000000"> </text>
</g>
<!-- Node2&#45;&gt;Node1 -->
<g id="edge1" class="edge">
<title>Node2&#45;&gt;Node1</title>
<path fill="none" stroke="#404040" d="M357.276,-428.7355C378.1007,-422.5815 407.6949,-410.1488 421.5,-387 435.8876,-362.8744 413.5897,-226.0947 408.5,-204 400.7688,-170.4381 405.0393,-157.0414 382.5,-131 369.446,-115.9177 352.5719,-103.424 335.0617,-93.2564"/>
<polygon fill="none" stroke="#404040" points="334.6173,-93.0118 327.4321,-93.6219 324.1054,-87.2239 331.2907,-86.6139 334.6173,-93.0118"/>
<text text-anchor="middle" x="465.5" y="-295" font-family="Helvetica,sans-Serif" font-size="10.00" fill="#000000"> +biffurcation_angle</text>
<text text-anchor="middle" x="465.5" y="-284" font-family="Helvetica,sans-Serif" font-size="10.00" fill="#000000">+eta</text>
<text text-anchor="middle" x="465.5" y="-273" font-family="Helvetica,sans-Serif" font-size="10.00" fill="#000000">+height</text>
<text text-anchor="middle" x="465.5" y="-262" font-family="Helvetica,sans-Serif" font-size="10.00" fill="#000000">+field_value</text>
<text text-anchor="middle" x="465.5" y="-251" font-family="Helvetica,sans-Serif" font-size="10.00" fill="#000000">+ds</text>
<text text-anchor="middle" x="465.5" y="-240" font-family="Helvetica,sans-Serif" font-size="10.00" fill="#000000">+width</text>
<text text-anchor="middle" x="465.5" y="-229" font-family="Helvetica,sans-Serif" font-size="10.00" fill="#000000">+dx</text>
<text text-anchor="start" x="422.5" y="-218" font-family="Helvetica,sans-Serif" font-size="10.00" fill="#000000">+biffurcation</text>
<text text-anchor="middle" x="465.5" y="-207" font-family="Helvetica,sans-Serif" font-size="10.00" fill="#000000">_threshold</text>
</g>
<!-- Node5 -->
<g id="node5" class="node">
<title>Node5</title>
<g id="a_node5"><a xlink:href="classRiver_1_1MeshParams.html" target="_top" xlink:title="Adaptive mesh area constraint function. ">
<polygon fill="#ffffff" stroke="#000000" points="4.5,-225 4.5,-282 108.5,-282 108.5,-225 4.5,-225"/>
<text text-anchor="middle" x="56.5" y="-270" font-family="Helvetica,sans-Serif" font-size="10.00" fill="#000000">River::MeshParams</text>
<polyline fill="none" stroke="#000000" points="4.5,-263 108.5,-263 "/>
<text text-anchor="middle" x="56.5" y="-251" font-family="Helvetica,sans-Serif" font-size="10.00" fill="#000000"> </text>
<polyline fill="none" stroke="#000000" points="4.5,-244 108.5,-244 "/>
<text text-anchor="start" x="12.5" y="-232" font-family="Helvetica,sans-Serif" font-size="10.00" fill="#000000">+ operator()()</text>
</a>
</g>
</g>
<!-- Node2&#45;&gt;Node5 -->
<g id="edge5" class="edge">
<title>Node2&#45;&gt;Node5</title>
<path fill="none" stroke="#404040" d="M311.9104,-421.8935C271.6448,-399.9831 185.3311,-351.5092 117.5,-303 111.6724,-298.8324 105.668,-294.2909 99.8046,-289.7045"/>
<polygon fill="none" stroke="#404040" points="99.5154,-289.4743 92.3298,-288.8675 90.1263,-282.0013 97.3118,-282.6081 99.5154,-289.4743"/>
<text text-anchor="middle" x="283" y="-379" font-family="Helvetica,sans-Serif" font-size="10.00" fill="#000000"> +min_area</text>
<text text-anchor="middle" x="283" y="-368" font-family="Helvetica,sans-Serif" font-size="10.00" fill="#000000">+refinment_radius</text>
<text text-anchor="middle" x="283" y="-357" font-family="Helvetica,sans-Serif" font-size="10.00" fill="#000000">+max_area</text>
<text text-anchor="middle" x="283" y="-346" font-family="Helvetica,sans-Serif" font-size="10.00" fill="#000000">+exponant</text>
<text text-anchor="middle" x="283" y="-335" font-family="Helvetica,sans-Serif" font-size="10.00" fill="#000000">+eps</text>
<text text-anchor="middle" x="283" y="-324" font-family="Helvetica,sans-Serif" font-size="10.00" fill="#000000">+min_angle</text>
</g>
<!-- Node7 -->
<g id="node7" class="node">
<title>Node7</title>
<g id="a_node7"><a xlink:href="classRiver_1_1IntegrationParams.html" target="_top" xlink:title="{River::IntegrationParams\n||+ WeightFunction()\l+ BaseVector()\l}">
<polygon fill="#ffffff" stroke="#000000" points="274,-219.5 274,-287.5 399,-287.5 399,-219.5 274,-219.5"/>
<text text-anchor="middle" x="336.5" y="-275.5" font-family="Helvetica,sans-Serif" font-size="10.00" fill="#000000">River::IntegrationParams</text>
<polyline fill="none" stroke="#000000" points="274,-268.5 399,-268.5 "/>
<text text-anchor="middle" x="336.5" y="-256.5" font-family="Helvetica,sans-Serif" font-size="10.00" fill="#000000"> </text>
<polyline fill="none" stroke="#000000" points="274,-249.5 399,-249.5 "/>
<text text-anchor="start" x="282" y="-237.5" font-family="Helvetica,sans-Serif" font-size="10.00" fill="#000000">+ WeightFunction()</text>
<text text-anchor="start" x="282" y="-226.5" font-family="Helvetica,sans-Serif" font-size="10.00" fill="#000000">+ BaseVector()</text>
</a>
</g>
</g>
<!-- Node2&#45;&gt;Node7 -->
<g id="edge8" class="edge">
<title>Node2&#45;&gt;Node7</title>
<path fill="none" stroke="#404040" d="M334.7075,-405.2038C334.8835,-382.3677 335.1611,-349.6415 335.5,-321 335.5807,-314.1772 335.6765,-306.9667 335.7762,-299.8976"/>
<polygon fill="none" stroke="#404040" points="335.777,-299.8372 331.8648,-293.7796 335.9517,-287.8384 339.8639,-293.896 335.777,-299.8372"/>
<text text-anchor="middle" x="378.5" y="-357" font-family="Helvetica,sans-Serif" font-size="10.00" fill="#000000"> +integration_radius</text>
<text text-anchor="middle" x="378.5" y="-346" font-family="Helvetica,sans-Serif" font-size="10.00" fill="#000000">+exponant</text>
</g>
<!-- Node3 -->
<g id="node3" class="node">
<title>Node3</title>
<polygon fill="#ffffff" stroke="#bfbfbf" points="126.5,-225 126.5,-282 198.5,-282 198.5,-225 126.5,-225"/>
<text text-anchor="middle" x="162.5" y="-270" font-family="Helvetica,sans-Serif" font-size="10.00" fill="#000000">vector&lt; int &gt;</text>
<polyline fill="none" stroke="#bfbfbf" points="126.5,-263 198.5,-263 "/>
<text text-anchor="middle" x="162.5" y="-251" font-family="Helvetica,sans-Serif" font-size="10.00" fill="#000000"> </text>
<polyline fill="none" stroke="#bfbfbf" points="126.5,-244 198.5,-244 "/>
<text text-anchor="middle" x="162.5" y="-232" font-family="Helvetica,sans-Serif" font-size="10.00" fill="#000000"> </text>
</g>
<!-- Node3&#45;&gt;Node1 -->
<g id="edge2" class="edge">
<title>Node3&#45;&gt;Node1</title>
<path fill="none" stroke="#404040" d="M159.0202,-224.9709C157.1009,-199.2826 157.3184,-161.0582 170.5,-131 171.7243,-128.2081 173.1009,-125.4574 174.6039,-122.7549"/>
<polygon fill="none" stroke="#404040" points="174.6043,-122.7542 174.399,-115.546 180.9737,-112.584 181.1791,-119.7922 174.6043,-122.7542"/>
<text text-anchor="middle" x="204" y="-156" font-family="Helvetica,sans-Serif" font-size="10.00" fill="#000000"> +boundary_ids</text>
</g>
<!-- Node4 -->
<g id="node4" class="node">
<title>Node4</title>
<polygon fill="#ffffff" stroke="#bfbfbf" points="227,-225 227,-282 256,-282 256,-225 227,-225"/>
<text text-anchor="middle" x="241.5" y="-270" font-family="Helvetica,sans-Serif" font-size="10.00" fill="#000000">int</text>
<polyline fill="none" stroke="#bfbfbf" points="227,-263 256,-263 "/>
<text text-anchor="middle" x="241.5" y="-251" font-family="Helvetica,sans-Serif" font-size="10.00" fill="#000000"> </text>
<polyline fill="none" stroke="#bfbfbf" points="227,-244 256,-244 "/>
<text text-anchor="middle" x="241.5" y="-232" font-family="Helvetica,sans-Serif" font-size="10.00" fill="#000000"> </text>
</g>
<!-- Node4&#45;&gt;Node1 -->
<g id="edge3" class="edge">
<title>Node4&#45;&gt;Node1</title>
<path fill="none" stroke="#404040" d="M241.5,-224.8545C241.5,-198.813 241.5,-159.3504 241.5,-125.1762"/>
<polygon fill="none" stroke="#404040" points="241.5001,-124.8596 237.5,-118.8596 241.5,-112.8596 245.5,-118.8595 241.5001,-124.8596"/>
<text text-anchor="middle" x="287" y="-178" font-family="Helvetica,sans-Serif" font-size="10.00" fill="#000000"> +biffurcation_type</text>
<text text-anchor="middle" x="287" y="-167" font-family="Helvetica,sans-Serif" font-size="10.00" fill="#000000">+growth_type</text>
<text text-anchor="middle" x="287" y="-156" font-family="Helvetica,sans-Serif" font-size="10.00" fill="#000000">+river_boundary_id</text>
<text text-anchor="middle" x="287" y="-145" font-family="Helvetica,sans-Serif" font-size="10.00" fill="#000000">+growth_threshold</text>
<text text-anchor="middle" x="287" y="-134" font-family="Helvetica,sans-Serif" font-size="10.00" fill="#000000">+boundary_condition</text>
</g>
<!-- Node5&#45;&gt;Node1 -->
<g id="edge4" class="edge">
<title>Node5&#45;&gt;Node1</title>
<path fill="none" stroke="#404040" d="M66.3864,-224.8187C76.6803,-198.1361 94.8982,-158.4719 120.5,-131 128.9121,-121.9735 138.6558,-113.6304 148.8898,-106.0481"/>
<polygon fill="none" stroke="#404040" points="149.0307,-105.9483 151.6162,-99.2167 158.8245,-99.0142 156.239,-105.7459 149.0307,-105.9483"/>
<text text-anchor="middle" x="137.5" y="-156" font-family="Helvetica,sans-Serif" font-size="10.00" fill="#000000"> +mesh</text>
</g>
<!-- Node6 -->
<g id="node6" class="node">
<title>Node6</title>
<polygon fill="#ffffff" stroke="#bfbfbf" points="0,-405.5 0,-462.5 113,-462.5 113,-405.5 0,-405.5"/>
<text text-anchor="middle" x="56.5" y="-450.5" font-family="Helvetica,sans-Serif" font-size="10.00" fill="#000000">vector&lt; River::Point &gt;</text>
<polyline fill="none" stroke="#bfbfbf" points="0,-443.5 113,-443.5 "/>
<text text-anchor="middle" x="56.5" y="-431.5" font-family="Helvetica,sans-Serif" font-size="10.00" fill="#000000"> </text>
<polyline fill="none" stroke="#bfbfbf" points="0,-424.5 113,-424.5 "/>
<text text-anchor="middle" x="56.5" y="-412.5" font-family="Helvetica,sans-Serif" font-size="10.00" fill="#000000"> </text>
</g>
<!-- Node6&#45;&gt;Node5 -->
<g id="edge6" class="edge">
<title>Node6&#45;&gt;Node5</title>
<path fill="none" stroke="#404040" d="M56.5,-405.3992C56.5,-375.5179 56.5,-328.365 56.5,-294.5209"/>
<polygon fill="none" stroke="#404040" points="56.5001,-294.2652 52.5,-288.2653 56.5,-282.2652 60.5,-288.2652 56.5001,-294.2652"/>
<text text-anchor="middle" x="82.5" y="-351.5" font-family="Helvetica,sans-Serif" font-size="10.00" fill="#000000"> +tip_points</text>
</g>
<!-- Node7&#45;&gt;Node1 -->
<g id="edge7" class="edge">
<title>Node7&#45;&gt;Node1</title>
<path fill="none" stroke="#404040" d="M343.0466,-219.4578C346.2844,-193.8104 347.0259,-158.4864 333.5,-131 332.1105,-128.1763 330.558,-125.4238 328.8671,-122.7442"/>
<polygon fill="none" stroke="#404040" points="328.7075,-122.5219 321.9593,-119.9799 321.7103,-112.773 328.4585,-115.315 328.7075,-122.5219"/>
<text text-anchor="middle" x="361.5" y="-156" font-family="Helvetica,sans-Serif" font-size="10.00" fill="#000000"> +integr</text>
</g>
</g>
</svg>
