<?xml version="1.0" encoding="UTF-8" standalone="no"?>
<!DOCTYPE svg PUBLIC "-//W3C//DTD SVG 1.1//EN"
 "http://www.w3.org/Graphics/SVG/1.1/DTD/svg11.dtd">
<!-- Generated by graphviz version 2.40.1 (20161225.0304)
 -->
<!-- Title: River::Tree Pages: 1 -->
<svg width="592pt" height="336pt"
 viewBox="0.00 0.00 592.00 336.00" xmlns="http://www.w3.org/2000/svg" xmlns:xlink="http://www.w3.org/1999/xlink">
<g id="graph0" class="graph" transform="scale(1 1) rotate(0) translate(4 332)">
<title>River::Tree</title>
<polygon fill="#ffffff" stroke="transparent" points="-4,4 -4,-332 588,-332 588,4 -4,4"/>
<!-- Node1 -->
<g id="node1" class="node">
<title>Node1</title>
<polygon fill="#bfbfbf" stroke="#000000" points="244.5,-.5 244.5,-211.5 393.5,-211.5 393.5,-.5 244.5,-.5"/>
<text text-anchor="middle" x="319" y="-199.5" font-family="Helvetica,sans-Serif" font-size="10.00" fill="#000000">River::Tree</text>
<polyline fill="none" stroke="#000000" points="244.5,-192.5 393.5,-192.5 "/>
<text text-anchor="middle" x="319" y="-180.5" font-family="Helvetica,sans-Serif" font-size="10.00" fill="#000000"> </text>
<polyline fill="none" stroke="#000000" points="244.5,-173.5 393.5,-173.5 "/>
<text text-anchor="start" x="252.5" y="-161.5" font-family="Helvetica,sans-Serif" font-size="10.00" fill="#000000">+ Tree()</text>
<text text-anchor="start" x="252.5" y="-150.5" font-family="Helvetica,sans-Serif" font-size="10.00" fill="#000000">+ AddPoints()</text>
<text text-anchor="start" x="252.5" y="-139.5" font-family="Helvetica,sans-Serif" font-size="10.00" fill="#000000">+ AddSubBranches()</text>
<text text-anchor="start" x="252.5" y="-128.5" font-family="Helvetica,sans-Serif" font-size="10.00" fill="#000000">+ TipBranchesId()</text>
<text text-anchor="start" x="252.5" y="-117.5" font-family="Helvetica,sans-Serif" font-size="10.00" fill="#000000">+ NumberOfSourceBranches()</text>
<text text-anchor="start" x="252.5" y="-106.5" font-family="Helvetica,sans-Serif" font-size="10.00" fill="#000000">+ AddSourceBranch()</text>
<text text-anchor="start" x="252.5" y="-95.5" font-family="Helvetica,sans-Serif" font-size="10.00" fill="#000000">+ AddBranch()</text>
<text text-anchor="start" x="252.5" y="-84.5" font-family="Helvetica,sans-Serif" font-size="10.00" fill="#000000">+ DoesExistBranch()</text>
<text text-anchor="start" x="252.5" y="-73.5" font-family="Helvetica,sans-Serif" font-size="10.00" fill="#000000">+ GetBranch()</text>
<text text-anchor="start" x="252.5" y="-62.5" font-family="Helvetica,sans-Serif" font-size="10.00" fill="#000000">+ HasSubBranches()</text>
<text text-anchor="start" x="252.5" y="-51.5" font-family="Helvetica,sans-Serif" font-size="10.00" fill="#000000">+ IsSubBranch()</text>
<text text-anchor="start" x="252.5" y="-40.5" font-family="Helvetica,sans-Serif" font-size="10.00" fill="#000000">+ GetSourceBranch()</text>
<text text-anchor="start" x="252.5" y="-29.5" font-family="Helvetica,sans-Serif" font-size="10.00" fill="#000000">+ GetSubBranches()</text>
<text text-anchor="start" x="252.5" y="-18.5" font-family="Helvetica,sans-Serif" font-size="10.00" fill="#000000">+ IsValidBranchId()</text>
<text text-anchor="start" x="252.5" y="-7.5" font-family="Helvetica,sans-Serif" font-size="10.00" fill="#000000">+ GenerateNewID()</text>
</g>
<!-- Node2 -->
<g id="node2" class="node">
<title>Node2</title>
<polygon fill="#ffffff" stroke="#bfbfbf" points="0,-265 0,-322 142,-322 142,-265 0,-265"/>
<text text-anchor="middle" x="71" y="-310" font-family="Helvetica,sans-Serif" font-size="10.00" fill="#000000">vector&lt; River::BranchNew &gt;</text>
<polyline fill="none" stroke="#bfbfbf" points="0,-303 142,-303 "/>
<text text-anchor="middle" x="71" y="-291" font-family="Helvetica,sans-Serif" font-size="10.00" fill="#000000"> </text>
<polyline fill="none" stroke="#bfbfbf" points="0,-284 142,-284 "/>
<text text-anchor="middle" x="71" y="-272" font-family="Helvetica,sans-Serif" font-size="10.00" fill="#000000"> </text>
</g>
<!-- Node2&#45;&gt;Node1 -->
<g id="edge1" class="edge">
<title>Node2&#45;&gt;Node1</title>
<path fill="none" stroke="#404040" d="M108.9358,-264.8187C142.2317,-239.6454 191.8637,-202.1212 234.525,-169.8672"/>
<polygon fill="none" stroke="#404040" points="234.7842,-169.6712 237.158,-162.862 244.3564,-162.4342 241.9826,-169.2434 234.7842,-169.6712"/>
<text text-anchor="middle" x="175.5" y="-233" font-family="Helvetica,sans-Serif" font-size="10.00" fill="#000000"> +branches</text>
</g>
<!-- Node3 -->
<g id="node3" class="node">
<title>Node3</title>
<polygon fill="#ffffff" stroke="#bfbfbf" points="160.5,-259.5 160.5,-327.5 259.5,-327.5 259.5,-259.5 160.5,-259.5"/>
<text text-anchor="start" x="168.5" y="-315.5" font-family="Helvetica,sans-Serif" font-size="10.00" fill="#000000">map&lt; int, pair&lt; int,</text>
<text text-anchor="middle" x="210" y="-304.5" font-family="Helvetica,sans-Serif" font-size="10.00" fill="#000000"> int &gt; &gt;</text>
<polyline fill="none" stroke="#bfbfbf" points="160.5,-297.5 259.5,-297.5 "/>
<text text-anchor="middle" x="210" y="-285.5" font-family="Helvetica,sans-Serif" font-size="10.00" fill="#000000"> </text>
<polyline fill="none" stroke="#bfbfbf" points="160.5,-278.5 259.5,-278.5 "/>
<text text-anchor="middle" x="210" y="-266.5" font-family="Helvetica,sans-Serif" font-size="10.00" fill="#000000"> </text>
</g>
<!-- Node3&#45;&gt;Node1 -->
<g id="edge2" class="edge">
<title>Node3&#45;&gt;Node1</title>
<path fill="none" stroke="#404040" d="M217.9113,-259.4081C220.7802,-249.6521 224.4599,-239.1801 229,-230 231.7666,-224.406 234.7819,-218.7959 237.9772,-213.2196"/>
<polygon fill="none" stroke="#404040" points="238.1893,-212.8631 237.8201,-205.6615 244.3258,-202.5508 244.695,-209.7524 238.1893,-212.8631"/>
<text text-anchor="middle" x="272" y="-233" font-family="Helvetica,sans-Serif" font-size="10.00" fill="#000000"> +branches_relation</text>
</g>
<!-- Node4 -->
<g id="node4" class="node">
<title>Node4</title>
<polygon fill="#ffffff" stroke="#bfbfbf" points="304.5,-265 304.5,-322 333.5,-322 333.5,-265 304.5,-265"/>
<text text-anchor="middle" x="319" y="-310" font-family="Helvetica,sans-Serif" font-size="10.00" fill="#000000">int</text>
<polyline fill="none" stroke="#bfbfbf" points="304.5,-303 333.5,-303 "/>
<text text-anchor="middle" x="319" y="-291" font-family="Helvetica,sans-Serif" font-size="10.00" fill="#000000"> </text>
<polyline fill="none" stroke="#bfbfbf" points="304.5,-284 333.5,-284 "/>
<text text-anchor="middle" x="319" y="-272" font-family="Helvetica,sans-Serif" font-size="10.00" fill="#000000"> </text>
</g>
<!-- Node4&#45;&gt;Node1 -->
<g id="edge3" class="edge">
<title>Node4&#45;&gt;Node1</title>
<path fill="none" stroke="#404040" d="M319,-264.614C319,-253.023 319,-238.8372 319,-223.7633"/>
<polygon fill="none" stroke="#404040" points="319.0001,-223.5166 315,-217.5166 319,-211.5166 323,-217.5165 319.0001,-223.5166"/>
<text text-anchor="middle" x="355" y="-233" font-family="Helvetica,sans-Serif" font-size="10.00" fill="#000000"> +invalid_branch</text>
</g>
<!-- Node5 -->
<g id="node5" class="node">
<title>Node5</title>
<polygon fill="#ffffff" stroke="#bfbfbf" points="378,-265 378,-322 450,-322 450,-265 378,-265"/>
<text text-anchor="middle" x="414" y="-310" font-family="Helvetica,sans-Serif" font-size="10.00" fill="#000000">vector&lt; int &gt;</text>
<polyline fill="none" stroke="#bfbfbf" points="378,-303 450,-303 "/>
<text text-anchor="middle" x="414" y="-291" font-family="Helvetica,sans-Serif" font-size="10.00" fill="#000000"> </text>
<polyline fill="none" stroke="#bfbfbf" points="378,-284 450,-284 "/>
<text text-anchor="middle" x="414" y="-272" font-family="Helvetica,sans-Serif" font-size="10.00" fill="#000000"> </text>
</g>
<!-- Node5&#45;&gt;Node1 -->
<g id="edge4" class="edge">
<title>Node5&#45;&gt;Node1</title>
<path fill="none" stroke="#404040" d="M405.4298,-264.892C401.7623,-253.8018 397.138,-241.121 392,-230 390.872,-227.5586 389.7099,-225.1032 388.5183,-222.6394"/>
<polygon fill="none" stroke="#404040" points="388.4696,-222.5414 382.2146,-218.9533 383.1209,-211.7993 389.376,-215.3875 388.4696,-222.5414"/>
<text text-anchor="middle" x="444.5" y="-233" font-family="Helvetica,sans-Serif" font-size="10.00" fill="#000000"> +source_branches_id</text>
</g>
<!-- Node6 -->
<g id="node6" class="node">
<title>Node6</title>
<polygon fill="#ffffff" stroke="#bfbfbf" points="484,-259.5 484,-327.5 584,-327.5 584,-259.5 484,-259.5"/>
<text text-anchor="start" x="492" y="-315.5" font-family="Helvetica,sans-Serif" font-size="10.00" fill="#000000">map&lt; int, unsigned</text>
<text text-anchor="middle" x="534" y="-304.5" font-family="Helvetica,sans-Serif" font-size="10.00" fill="#000000"> int &gt;</text>
<polyline fill="none" stroke="#bfbfbf" points="484,-297.5 584,-297.5 "/>
<text text-anchor="middle" x="534" y="-285.5" font-family="Helvetica,sans-Serif" font-size="10.00" fill="#000000"> </text>
<polyline fill="none" stroke="#bfbfbf" points="484,-278.5 584,-278.5 "/>
<text text-anchor="middle" x="534" y="-266.5" font-family="Helvetica,sans-Serif" font-size="10.00" fill="#000000"> </text>
</g>
<!-- Node6&#45;&gt;Node1 -->
<g id="edge5" class="edge">
<title>Node6&#45;&gt;Node1</title>
<path fill="none" stroke="#404040" d="M517.699,-259.3329C511.9748,-249.2571 504.958,-238.6291 497,-230 470.2745,-201.0207 435.646,-175.009 404.0451,-154.383"/>
<polygon fill="none" stroke="#404040" points="404.0058,-154.3578 396.7957,-154.485 393.9053,-147.8785 401.1153,-147.7513 404.0058,-154.3578"/>
<text text-anchor="middle" x="544" y="-233" font-family="Helvetica,sans-Serif" font-size="10.00" fill="#000000"> +branches_index</text>
</g>
</g>
</svg>
