<?xml version="1.0" encoding="UTF-8" standalone="no"?>
<!DOCTYPE svg PUBLIC "-//W3C//DTD SVG 1.1//EN"
 "http://www.w3.org/Graphics/SVG/1.1/DTD/svg11.dtd">
<!-- Generated by graphviz version 2.40.1 (20161225.0304)
 -->
<!-- Title: nlohmann::detail::wide_string_input_adapter::fill_buffer Pages: 1 -->
<svg width="272pt" height="50pt"
 viewBox="0.00 0.00 272.00 50.00" xmlns="http://www.w3.org/2000/svg" xmlns:xlink="http://www.w3.org/1999/xlink">
<g id="graph0" class="graph" transform="scale(1 1) rotate(0) translate(4 46)">
<title>nlohmann::detail::wide_string_input_adapter::fill_buffer</title>
<polygon fill="#ffffff" stroke="transparent" points="-4,4 -4,-46 268,-46 268,4 -4,4"/>
<!-- Node4 -->
<g id="node1" class="node">
<title>Node4</title>
<polygon fill="#bfbfbf" stroke="#000000" points="0,-.5 0,-41.5 114,-41.5 114,-.5 0,-.5"/>
<text text-anchor="start" x="8" y="-29.5" font-family="Helvetica,sans-Serif" font-size="10.00" fill="#000000">nlohmann::detail::wide</text>
<text text-anchor="start" x="8" y="-18.5" font-family="Helvetica,sans-Serif" font-size="10.00" fill="#000000">_string_input_adapter</text>
<text text-anchor="middle" x="57" y="-7.5" font-family="Helvetica,sans-Serif" font-size="10.00" fill="#000000">::fill_buffer</text>
</g>
<!-- Node5 -->
<g id="node2" class="node">
<title>Node5</title>
<g id="a_node2"><a xlink:href="structnlohmann_1_1detail_1_1wide__string__input__helper.html#ae82d79118fa319a97e4a40568186a922" target="_top" xlink:title="nlohmann::detail::wide\l_string_input_helper::\lfill_buffer">
<polygon fill="#ffffff" stroke="#000000" points="150,-.5 150,-41.5 264,-41.5 264,-.5 150,-.5"/>
<text text-anchor="start" x="158" y="-29.5" font-family="Helvetica,sans-Serif" font-size="10.00" fill="#000000">nlohmann::detail::wide</text>
<text text-anchor="start" x="158" y="-18.5" font-family="Helvetica,sans-Serif" font-size="10.00" fill="#000000">_string_input_helper::</text>
<text text-anchor="middle" x="207" y="-7.5" font-family="Helvetica,sans-Serif" font-size="10.00" fill="#000000">fill_buffer</text>
</a>
</g>
</g>
<!-- Node4&#45;&gt;Node5 -->
<g id="edge1" class="edge">
<title>Node4&#45;&gt;Node5</title>
<path fill="none" stroke="#191970" d="M114.1365,-21C122.3769,-21 130.9229,-21 139.3442,-21"/>
<polygon fill="#191970" stroke="#191970" points="139.5255,-24.5001 149.5255,-21 139.5255,-17.5001 139.5255,-24.5001"/>
</g>
</g>
</svg>
