<?xml version="1.0" encoding="UTF-8" standalone="no"?>
<!DOCTYPE svg PUBLIC "-//W3C//DTD SVG 1.1//EN"
 "http://www.w3.org/Graphics/SVG/1.1/DTD/svg11.dtd">
<!-- Generated by graphviz version 2.40.1 (20161225.0304)
 -->
<!-- Title: River::Triangle::print_geometry Pages: 1 -->
<svg width="528pt" height="53pt"
 viewBox="0.00 0.00 528.00 52.50" xmlns="http://www.w3.org/2000/svg" xmlns:xlink="http://www.w3.org/1999/xlink">
<g id="graph0" class="graph" transform="scale(1 1) rotate(0) translate(4 48.5)">
<title>River::Triangle::print_geometry</title>
<polygon fill="#ffffff" stroke="transparent" points="-4,4 -4,-48.5 524,-48.5 524,4 -4,4"/>
<!-- Node54 -->
<g id="node1" class="node">
<title>Node54</title>
<polygon fill="#bfbfbf" stroke="#000000" points="0,-14 0,-44 105,-44 105,-14 0,-14"/>
<text text-anchor="start" x="8" y="-32" font-family="Helvetica,sans-Serif" font-size="10.00" fill="#000000">River::Triangle::print</text>
<text text-anchor="middle" x="52.5" y="-21" font-family="Helvetica,sans-Serif" font-size="10.00" fill="#000000">_geometry</text>
</g>
<!-- Node55 -->
<g id="node2" class="node">
<title>Node55</title>
<g id="a_node2"><a xlink:href="classRiver_1_1Triangle.html#a0dae20b40d446e6009a88543e2c14daf" target="_top" xlink:title="River::Triangle::generate">
<polygon fill="#ffffff" stroke="#000000" points="141,-19.5 141,-38.5 265,-38.5 265,-19.5 141,-19.5"/>
<text text-anchor="middle" x="203" y="-26.5" font-family="Helvetica,sans-Serif" font-size="10.00" fill="#000000">River::Triangle::generate</text>
</a>
</g>
</g>
<!-- Node54&#45;&gt;Node55 -->
<g id="edge1" class="edge">
<title>Node54&#45;&gt;Node55</title>
<path fill="none" stroke="#191970" d="M115.3006,-29C123.7442,-29 132.4029,-29 140.8354,-29"/>
<polygon fill="#191970" stroke="#191970" points="115.1376,-25.5001 105.1376,-29 115.1376,-32.5001 115.1376,-25.5001"/>
</g>
<!-- Node56 -->
<g id="node3" class="node">
<title>Node56</title>
<g id="a_node3"><a xlink:href="main_8cpp.html#a0ddf1224851353fc92bfbff6f499fa97" target="_top" xlink:title="Entry point of RiverSim program. ">
<polygon fill="#ffffff" stroke="#000000" points="482,-19.5 482,-38.5 520,-38.5 520,-19.5 482,-19.5"/>
<text text-anchor="middle" x="501" y="-26.5" font-family="Helvetica,sans-Serif" font-size="10.00" fill="#000000">main</text>
</a>
</g>
</g>
<!-- Node55&#45;&gt;Node56 -->
<g id="edge2" class="edge">
<title>Node55&#45;&gt;Node56</title>
<path fill="none" stroke="#191970" d="M275.3582,-29C343.5013,-29 441.0323,-29 481.8698,-29"/>
<polygon fill="#191970" stroke="#191970" points="275.1079,-25.5001 265.1078,-29 275.1078,-32.5001 275.1079,-25.5001"/>
</g>
<!-- Node57 -->
<g id="node4" class="node">
<title>Node57</title>
<g id="a_node4"><a xlink:href="namespaceRiver.html#a494b68e2992de95500d6d81770de62ed" target="_top" xlink:title="River::ForwardRiverEvolution">
<polygon fill="#ffffff" stroke="#000000" points="301,-.5 301,-19.5 446,-19.5 446,-.5 301,-.5"/>
<text text-anchor="middle" x="373.5" y="-7.5" font-family="Helvetica,sans-Serif" font-size="10.00" fill="#000000">River::ForwardRiverEvolution</text>
</a>
</g>
</g>
<!-- Node55&#45;&gt;Node57 -->
<g id="edge3" class="edge">
<title>Node55&#45;&gt;Node57</title>
<path fill="none" stroke="#191970" d="M275.2431,-20.9494C283.7006,-20.007 292.333,-19.045 300.7967,-18.1018"/>
<polygon fill="#191970" stroke="#191970" points="274.5875,-17.5007 265.0367,-22.0868 275.3629,-24.4577 274.5875,-17.5007"/>
</g>
<!-- Node57&#45;&gt;Node56 -->
<g id="edge4" class="edge">
<title>Node57&#45;&gt;Node56</title>
<path fill="none" stroke="#191970" d="M447.7834,-21.0697C460.3501,-22.9424 472.3551,-24.7313 481.7718,-26.1346"/>
<polygon fill="#191970" stroke="#191970" points="448.0302,-17.5679 437.6235,-19.5557 446.9984,-24.4914 448.0302,-17.5679"/>
</g>
</g>
</svg>
