<?xml version="1.0" encoding="UTF-8" standalone="no"?>
<!DOCTYPE svg PUBLIC "-//W3C//DTD SVG 1.1//EN"
 "http://www.w3.org/Graphics/SVG/1.1/DTD/svg11.dtd">
<!-- Generated by graphviz version 2.40.1 (20161225.0304)
 -->
<!-- Title: River::Triangle::Triangle Pages: 1 -->
<svg width="430pt" height="88pt"
 viewBox="0.00 0.00 430.00 88.00" xmlns="http://www.w3.org/2000/svg" xmlns:xlink="http://www.w3.org/1999/xlink">
<g id="graph0" class="graph" transform="scale(1 1) rotate(0) translate(4 84)">
<title>River::Triangle::Triangle</title>
<polygon fill="#ffffff" stroke="transparent" points="-4,4 -4,-84 426,-84 426,4 -4,4"/>
<!-- Node0 -->
<g id="node1" class="node">
<title>Node0</title>
<polygon fill="#bfbfbf" stroke="#000000" points="0,-30 0,-49 121,-49 121,-30 0,-30"/>
<text text-anchor="middle" x="60.5" y="-37" font-family="Helvetica,sans-Serif" font-size="10.00" fill="#000000">River::Triangle::Triangle</text>
</g>
<!-- Node1 -->
<g id="node2" class="node">
<title>Node1</title>
<g id="a_node2"><a xlink:href="classRiver_1_1Triangle.html#af65f8816f88a34c015cd5ca66aca1aef" target="_top" xlink:title="River::Triangle::set\l_all_values_to_default">
<polygon fill="#ffffff" stroke="#000000" points="157,-49.5 157,-79.5 270,-79.5 270,-49.5 157,-49.5"/>
<text text-anchor="start" x="165" y="-67.5" font-family="Helvetica,sans-Serif" font-size="10.00" fill="#000000">River::Triangle::set</text>
<text text-anchor="middle" x="213.5" y="-56.5" font-family="Helvetica,sans-Serif" font-size="10.00" fill="#000000">_all_values_to_default</text>
</a>
</g>
</g>
<!-- Node0&#45;&gt;Node1 -->
<g id="edge1" class="edge">
<title>Node0&#45;&gt;Node1</title>
<path fill="none" stroke="#191970" d="M118.7792,-49.0227C127.9577,-50.5225 137.5078,-52.083 146.8581,-53.6108"/>
<polygon fill="#191970" stroke="#191970" points="146.4651,-57.0929 156.8987,-55.2514 147.594,-50.1845 146.4651,-57.0929"/>
</g>
<!-- Node3 -->
<g id="node4" class="node">
<title>Node3</title>
<g id="a_node4"><a xlink:href="classRiver_1_1Triangle.html#aeb6108ef14cf1bd359ebc6b1a2ecdb1b" target="_top" xlink:title="River::Triangle::print\l_options">
<polygon fill="#ffffff" stroke="#000000" points="161,-.5 161,-30.5 266,-30.5 266,-.5 161,-.5"/>
<text text-anchor="start" x="169" y="-18.5" font-family="Helvetica,sans-Serif" font-size="10.00" fill="#000000">River::Triangle::print</text>
<text text-anchor="middle" x="213.5" y="-7.5" font-family="Helvetica,sans-Serif" font-size="10.00" fill="#000000">_options</text>
</a>
</g>
</g>
<!-- Node0&#45;&gt;Node3 -->
<g id="edge3" class="edge">
<title>Node0&#45;&gt;Node3</title>
<path fill="none" stroke="#191970" d="M121.4093,-29.9456C131.0577,-28.4321 141.0517,-26.8644 150.7416,-25.3445"/>
<polygon fill="#191970" stroke="#191970" points="151.3654,-28.7895 160.7022,-23.782 150.2805,-21.8741 151.3654,-28.7895"/>
</g>
<!-- Node2 -->
<g id="node3" class="node">
<title>Node2</title>
<g id="a_node3"><a xlink:href="classRiver_1_1Triangle.html#a98666335bc441895b9c13ba84d8f7981" target="_top" xlink:title="River::Triangle::update\l_options">
<polygon fill="#ffffff" stroke="#000000" points="306,-24.5 306,-54.5 422,-54.5 422,-24.5 306,-24.5"/>
<text text-anchor="start" x="314" y="-42.5" font-family="Helvetica,sans-Serif" font-size="10.00" fill="#000000">River::Triangle::update</text>
<text text-anchor="middle" x="364" y="-31.5" font-family="Helvetica,sans-Serif" font-size="10.00" fill="#000000">_options</text>
</a>
</g>
</g>
<!-- Node1&#45;&gt;Node2 -->
<g id="edge2" class="edge">
<title>Node1&#45;&gt;Node2</title>
<path fill="none" stroke="#191970" d="M270.3976,-55.0486C278.7138,-53.6671 287.3485,-52.2328 295.8607,-50.8188"/>
<polygon fill="#191970" stroke="#191970" points="296.4794,-54.2641 305.7707,-49.1726 295.3323,-47.3587 296.4794,-54.2641"/>
</g>
<!-- Node3&#45;&gt;Node2 -->
<g id="edge4" class="edge">
<title>Node3&#45;&gt;Node2</title>
<path fill="none" stroke="#191970" d="M266.1376,-23.894C275.7373,-25.4249 285.8782,-27.042 295.8513,-28.6324"/>
<polygon fill="#191970" stroke="#191970" points="295.3157,-32.0912 305.7421,-30.2097 296.4181,-25.1785 295.3157,-32.0912"/>
</g>
</g>
</svg>
