<?xml version="1.0" encoding="UTF-8" standalone="no"?>
<!DOCTYPE svg PUBLIC "-//W3C//DTD SVG 1.1//EN"
 "http://www.w3.org/Graphics/SVG/1.1/DTD/svg11.dtd">
<!-- Generated by graphviz version 2.40.1 (20161225.0304)
 -->
<!-- Title: tethex::Mesh::get_lines Pages: 1 -->
<svg width="460pt" height="39pt"
 viewBox="0.00 0.00 460.00 39.00" xmlns="http://www.w3.org/2000/svg" xmlns:xlink="http://www.w3.org/1999/xlink">
<g id="graph0" class="graph" transform="scale(1 1) rotate(0) translate(4 35)">
<title>tethex::Mesh::get_lines</title>
<polygon fill="#ffffff" stroke="transparent" points="-4,4 -4,-35 456,-35 456,4 -4,4"/>
<!-- Node172 -->
<g id="node1" class="node">
<title>Node172</title>
<polygon fill="#bfbfbf" stroke="#000000" points="0,-6 0,-25 119,-25 119,-6 0,-6"/>
<text text-anchor="middle" x="59.5" y="-13" font-family="Helvetica,sans-Serif" font-size="10.00" fill="#000000">tethex::Mesh::get_lines</text>
</g>
<!-- Node173 -->
<g id="node2" class="node">
<title>Node173</title>
<g id="a_node2"><a xlink:href="classRiver_1_1Border.html#a9f0bb13fcc42d824d94903b6ae7eabd0" target="_top" xlink:title="Return source adjacent point(source has only one such points). ">
<polygon fill="#ffffff" stroke="#000000" points="155,-.5 155,-30.5 289,-30.5 289,-.5 155,-.5"/>
<text text-anchor="start" x="163" y="-18.5" font-family="Helvetica,sans-Serif" font-size="10.00" fill="#000000">River::Border::GetAdjacent</text>
<text text-anchor="middle" x="222" y="-7.5" font-family="Helvetica,sans-Serif" font-size="10.00" fill="#000000">PointId</text>
</a>
</g>
</g>
<!-- Node172&#45;&gt;Node173 -->
<g id="edge1" class="edge">
<title>Node172&#45;&gt;Node173</title>
<path fill="none" stroke="#191970" d="M129.2747,-15.5C137.7167,-15.5 146.3272,-15.5 154.732,-15.5"/>
<polygon fill="#191970" stroke="#191970" points="129.0863,-12.0001 119.0863,-15.5 129.0862,-19.0001 129.0863,-12.0001"/>
</g>
<!-- Node174 -->
<g id="node3" class="node">
<title>Node174</title>
<g id="a_node3"><a xlink:href="classRiver_1_1Border.html#ad884663725156885e8e5def07a2e49c1" target="_top" xlink:title="Return normal line angle to boundary at point where is located source with source_id ...">
<polygon fill="#ffffff" stroke="#000000" points="325,-.5 325,-30.5 452,-30.5 452,-.5 325,-.5"/>
<text text-anchor="start" x="333" y="-18.5" font-family="Helvetica,sans-Serif" font-size="10.00" fill="#000000">River::Border::GetSource</text>
<text text-anchor="middle" x="388.5" y="-7.5" font-family="Helvetica,sans-Serif" font-size="10.00" fill="#000000">NormalAngle</text>
</a>
</g>
</g>
<!-- Node173&#45;&gt;Node174 -->
<g id="edge2" class="edge">
<title>Node173&#45;&gt;Node174</title>
<path fill="none" stroke="#191970" d="M299.5035,-15.5C307.9679,-15.5 316.5119,-15.5 324.7832,-15.5"/>
<polygon fill="#191970" stroke="#191970" points="299.242,-12.0001 289.242,-15.5 299.242,-19.0001 299.242,-12.0001"/>
</g>
</g>
</svg>
