<?xml version="1.0" encoding="UTF-8" standalone="no"?>
<!DOCTYPE svg PUBLIC "-//W3C//DTD SVG 1.1//EN"
 "http://www.w3.org/Graphics/SVG/1.1/DTD/svg11.dtd">
<!-- Generated by graphviz version 2.40.1 (20161225.0304)
 -->
<!-- Title: nlohmann::basic_json::begin Pages: 1 -->
<svg width="262pt" height="39pt"
 viewBox="0.00 0.00 262.00 39.00" xmlns="http://www.w3.org/2000/svg" xmlns:xlink="http://www.w3.org/1999/xlink">
<g id="graph0" class="graph" transform="scale(1 1) rotate(0) translate(4 35)">
<title>nlohmann::basic_json::begin</title>
<polygon fill="#ffffff" stroke="transparent" points="-4,4 -4,-35 258,-35 258,4 -4,4"/>
<!-- Node272 -->
<g id="node1" class="node">
<title>Node272</title>
<polygon fill="#bfbfbf" stroke="#000000" points="0,-.5 0,-30.5 111,-30.5 111,-.5 0,-.5"/>
<text text-anchor="start" x="8" y="-18.5" font-family="Helvetica,sans-Serif" font-size="10.00" fill="#000000">nlohmann::basic_json</text>
<text text-anchor="middle" x="55.5" y="-7.5" font-family="Helvetica,sans-Serif" font-size="10.00" fill="#000000">::begin</text>
</g>
<!-- Node273 -->
<g id="node2" class="node">
<title>Node273</title>
<g id="a_node2"><a xlink:href="classnlohmann_1_1detail_1_1iter__impl.html#a5d5f92c7f6848814bc82cf7e4e541820" target="_top" xlink:title="set the iterator to the first value ">
<polygon fill="#ffffff" stroke="#000000" points="147,-.5 147,-30.5 254,-30.5 254,-.5 147,-.5"/>
<text text-anchor="start" x="155" y="-18.5" font-family="Helvetica,sans-Serif" font-size="10.00" fill="#000000">nlohmann::detail::iter</text>
<text text-anchor="middle" x="200.5" y="-7.5" font-family="Helvetica,sans-Serif" font-size="10.00" fill="#000000">_impl::set_begin</text>
</a>
</g>
</g>
<!-- Node272&#45;&gt;Node273 -->
<g id="edge1" class="edge">
<title>Node272&#45;&gt;Node273</title>
<path fill="none" stroke="#191970" d="M111.1461,-15.5C119.4358,-15.5 128.0367,-15.5 136.482,-15.5"/>
<polygon fill="#191970" stroke="#191970" points="136.6748,-19.0001 146.6748,-15.5 136.6747,-12.0001 136.6748,-19.0001"/>
</g>
</g>
</svg>
