<?xml version="1.0" encoding="UTF-8" standalone="no"?>
<!DOCTYPE svg PUBLIC "-//W3C//DTD SVG 1.1//EN"
 "http://www.w3.org/Graphics/SVG/1.1/DTD/svg11.dtd">
<!-- Generated by graphviz version 2.40.1 (20161225.0304)
 -->
<!-- Title: River::Triangle::print_geometry Pages: 1 -->
<svg width="528pt" height="39pt"
 viewBox="0.00 0.00 528.00 39.00" xmlns="http://www.w3.org/2000/svg" xmlns:xlink="http://www.w3.org/1999/xlink">
<g id="graph0" class="graph" transform="scale(1 1) rotate(0) translate(4 35)">
<title>River::Triangle::print_geometry</title>
<polygon fill="#ffffff" stroke="transparent" points="-4,4 -4,-35 524,-35 524,4 -4,4"/>
<!-- Node55 -->
<g id="node1" class="node">
<title>Node55</title>
<polygon fill="#bfbfbf" stroke="#000000" points="0,-.5 0,-30.5 105,-30.5 105,-.5 0,-.5"/>
<text text-anchor="start" x="8" y="-18.5" font-family="Helvetica,sans-Serif" font-size="10.00" fill="#000000">River::Triangle::print</text>
<text text-anchor="middle" x="52.5" y="-7.5" font-family="Helvetica,sans-Serif" font-size="10.00" fill="#000000">_geometry</text>
</g>
<!-- Node56 -->
<g id="node2" class="node">
<title>Node56</title>
<g id="a_node2"><a xlink:href="classRiver_1_1Triangle.html#a0dae20b40d446e6009a88543e2c14daf" target="_top" xlink:title="Generate mesh. ">
<polygon fill="#ffffff" stroke="#000000" points="141,-6 141,-25 265,-25 265,-6 141,-6"/>
<text text-anchor="middle" x="203" y="-13" font-family="Helvetica,sans-Serif" font-size="10.00" fill="#000000">River::Triangle::generate</text>
</a>
</g>
</g>
<!-- Node55&#45;&gt;Node56 -->
<g id="edge1" class="edge">
<title>Node55&#45;&gt;Node56</title>
<path fill="none" stroke="#191970" d="M115.3006,-15.5C123.7442,-15.5 132.4029,-15.5 140.8354,-15.5"/>
<polygon fill="#191970" stroke="#191970" points="115.1376,-12.0001 105.1376,-15.5 115.1376,-19.0001 115.1376,-12.0001"/>
</g>
<!-- Node57 -->
<g id="node3" class="node">
<title>Node57</title>
<g id="a_node3"><a xlink:href="namespaceRiver.html#af1a3f7c61809dd8032e4ff5920da83cc" target="_top" xlink:title="One step of forward river evolution. ">
<polygon fill="#ffffff" stroke="#000000" points="301,-6 301,-25 446,-25 446,-6 301,-6"/>
<text text-anchor="middle" x="373.5" y="-13" font-family="Helvetica,sans-Serif" font-size="10.00" fill="#000000">River::ForwardRiverEvolution</text>
</a>
</g>
</g>
<!-- Node56&#45;&gt;Node57 -->
<g id="edge2" class="edge">
<title>Node56&#45;&gt;Node57</title>
<path fill="none" stroke="#191970" d="M275.2431,-15.5C283.7006,-15.5 292.333,-15.5 300.7967,-15.5"/>
<polygon fill="#191970" stroke="#191970" points="275.0368,-12.0001 265.0367,-15.5 275.0367,-19.0001 275.0368,-12.0001"/>
</g>
<!-- Node58 -->
<g id="node4" class="node">
<title>Node58</title>
<g id="a_node4"><a xlink:href="main_8cpp.html#a0ddf1224851353fc92bfbff6f499fa97" target="_top" xlink:title="Entry point of RiverSim program. ">
<polygon fill="#ffffff" stroke="#000000" points="482,-6 482,-25 520,-25 520,-6 482,-6"/>
<text text-anchor="middle" x="501" y="-13" font-family="Helvetica,sans-Serif" font-size="10.00" fill="#000000">main</text>
</a>
</g>
</g>
<!-- Node57&#45;&gt;Node58 -->
<g id="edge3" class="edge">
<title>Node57&#45;&gt;Node58</title>
<path fill="none" stroke="#191970" d="M456.2526,-15.5C465.7338,-15.5 474.5978,-15.5 481.8947,-15.5"/>
<polygon fill="#191970" stroke="#191970" points="456.1886,-12.0001 446.1886,-15.5 456.1885,-19.0001 456.1886,-12.0001"/>
</g>
</g>
</svg>
