<?xml version="1.0" encoding="UTF-8" standalone="no"?>
<!DOCTYPE svg PUBLIC "-//W3C//DTD SVG 1.1//EN"
 "http://www.w3.org/Graphics/SVG/1.1/DTD/svg11.dtd">
<!-- Generated by graphviz version 2.40.1 (20161225.0304)
 -->
<!-- Title: tethex::Triangle Pages: 1 -->
<svg width="231pt" height="453pt"
 viewBox="0.00 0.00 230.93 453.00" xmlns="http://www.w3.org/2000/svg" xmlns:xlink="http://www.w3.org/1999/xlink">
<g id="graph0" class="graph" transform="scale(1 1) rotate(0) translate(4 449)">
<title>tethex::Triangle</title>
<polygon fill="#ffffff" stroke="transparent" points="-4,4 -4,-449 226.9286,-449 226.9286,4 -4,4"/>
<!-- Node2 -->
<g id="node1" class="node">
<title>Node2</title>
<polygon fill="#bfbfbf" stroke="#000000" points="1.4286,-.5 1.4286,-79.5 93.4286,-79.5 93.4286,-.5 1.4286,-.5"/>
<text text-anchor="middle" x="47.4286" y="-67.5" font-family="Helvetica,sans-Serif" font-size="10.00" fill="#000000">tethex::Triangle</text>
<polyline fill="none" stroke="#000000" points="1.4286,-60.5 93.4286,-60.5 "/>
<text text-anchor="middle" x="47.4286" y="-48.5" font-family="Helvetica,sans-Serif" font-size="10.00" fill="#000000"> </text>
<polyline fill="none" stroke="#000000" points="1.4286,-41.5 93.4286,-41.5 "/>
<text text-anchor="start" x="9.4286" y="-29.5" font-family="Helvetica,sans-Serif" font-size="10.00" fill="#000000">+ Triangle()</text>
<text text-anchor="start" x="9.4286" y="-18.5" font-family="Helvetica,sans-Serif" font-size="10.00" fill="#000000">+ Triangle()</text>
<text text-anchor="start" x="9.4286" y="-7.5" font-family="Helvetica,sans-Serif" font-size="10.00" fill="#000000">+ Triangle()</text>
</g>
<!-- Node3 -->
<g id="node2" class="node">
<title>Node3</title>
<g id="a_node2"><a xlink:href="classtethex_1_1MeshElement.html" target="_top" xlink:title="This class implements the most part of functionality of all elements of mesh: triangles, tetrahedra, quadrangles, hexahedra, etc. ">
<polygon fill="#ffffff" stroke="#000000" points="97.9286,-117.5 97.9286,-306.5 222.9286,-306.5 222.9286,-117.5 97.9286,-117.5"/>
<text text-anchor="middle" x="160.4286" y="-294.5" font-family="Helvetica,sans-Serif" font-size="10.00" fill="#000000">tethex::MeshElement</text>
<polyline fill="none" stroke="#000000" points="97.9286,-287.5 222.9286,-287.5 "/>
<text text-anchor="middle" x="160.4286" y="-275.5" font-family="Helvetica,sans-Serif" font-size="10.00" fill="#000000"> </text>
<polyline fill="none" stroke="#000000" points="97.9286,-268.5 222.9286,-268.5 "/>
<text text-anchor="start" x="105.9286" y="-256.5" font-family="Helvetica,sans-Serif" font-size="10.00" fill="#000000">+ ~MeshElement()</text>
<text text-anchor="start" x="105.9286" y="-245.5" font-family="Helvetica,sans-Serif" font-size="10.00" fill="#000000">+ get_n_vertices()</text>
<text text-anchor="start" x="105.9286" y="-234.5" font-family="Helvetica,sans-Serif" font-size="10.00" fill="#000000">+ get_n_edges()</text>
<text text-anchor="start" x="105.9286" y="-223.5" font-family="Helvetica,sans-Serif" font-size="10.00" fill="#000000">+ get_gmsh_el_type()</text>
<text text-anchor="start" x="105.9286" y="-212.5" font-family="Helvetica,sans-Serif" font-size="10.00" fill="#000000">+ get_material_id()</text>
<text text-anchor="start" x="105.9286" y="-201.5" font-family="Helvetica,sans-Serif" font-size="10.00" fill="#000000">+ get_vertex()</text>
<text text-anchor="start" x="105.9286" y="-190.5" font-family="Helvetica,sans-Serif" font-size="10.00" fill="#000000">+ get_edge()</text>
<text text-anchor="start" x="105.9286" y="-179.5" font-family="Helvetica,sans-Serif" font-size="10.00" fill="#000000">+ set_vertex()</text>
<text text-anchor="start" x="105.9286" y="-168.5" font-family="Helvetica,sans-Serif" font-size="10.00" fill="#000000">+ set_edge()</text>
<text text-anchor="start" x="105.9286" y="-157.5" font-family="Helvetica,sans-Serif" font-size="10.00" fill="#000000">+ contains()</text>
<text text-anchor="start" x="105.9286" y="-146.5" font-family="Helvetica,sans-Serif" font-size="10.00" fill="#000000"># MeshElement()</text>
<text text-anchor="start" x="105.9286" y="-135.5" font-family="Helvetica,sans-Serif" font-size="10.00" fill="#000000"># MeshElement()</text>
<text text-anchor="start" x="105.9286" y="-124.5" font-family="Helvetica,sans-Serif" font-size="10.00" fill="#000000"># operator=()</text>
</a>
</g>
</g>
<!-- Node3&#45;&gt;Node2 -->
<g id="edge1" class="edge">
<title>Node3&#45;&gt;Node2</title>
<path fill="none" stroke="#191970" d="M92.6222,-108.7902C85.904,-98.5644 79.4082,-88.6769 73.536,-79.7387"/>
<polygon fill="none" stroke="#191970" points="89.8929,-111.0103 98.3089,-117.4462 95.7433,-107.1667 89.8929,-111.0103"/>
</g>
<!-- Node4 -->
<g id="node3" class="node">
<title>Node4</title>
<polygon fill="#ffffff" stroke="#bfbfbf" points="4.9286,-387.5 4.9286,-444.5 33.9286,-444.5 33.9286,-387.5 4.9286,-387.5"/>
<text text-anchor="middle" x="19.4286" y="-432.5" font-family="Helvetica,sans-Serif" font-size="10.00" fill="#000000">int</text>
<polyline fill="none" stroke="#bfbfbf" points="4.9286,-425.5 33.9286,-425.5 "/>
<text text-anchor="middle" x="19.4286" y="-413.5" font-family="Helvetica,sans-Serif" font-size="10.00" fill="#000000"> </text>
<polyline fill="none" stroke="#bfbfbf" points="4.9286,-406.5 33.9286,-406.5 "/>
<text text-anchor="middle" x="19.4286" y="-394.5" font-family="Helvetica,sans-Serif" font-size="10.00" fill="#000000"> </text>
</g>
<!-- Node4&#45;&gt;Node2 -->
<g id="edge4" class="edge">
<title>Node4&#45;&gt;Node2</title>
<path fill="none" stroke="#404040" d="M14.0527,-387.1096C5.0348,-333.2292 -10.1436,-214.0747 11.4286,-117 13.3873,-108.1856 16.4663,-99.1859 20.0182,-90.5931"/>
<polygon fill="none" stroke="#404040" points="20.0375,-90.5493 18.8153,-83.4425 24.9054,-79.581 26.1276,-86.6878 20.0375,-90.5493"/>
<text text-anchor="middle" x="49.9286" y="-220.5" font-family="Helvetica,sans-Serif" font-size="10.00" fill="#000000"> +n_vertices</text>
<text text-anchor="middle" x="49.9286" y="-209.5" font-family="Helvetica,sans-Serif" font-size="10.00" fill="#000000">+n_edges</text>
<text text-anchor="middle" x="49.9286" y="-198.5" font-family="Helvetica,sans-Serif" font-size="10.00" fill="#000000">+gmsh_el_type</text>
</g>
<!-- Node4&#45;&gt;Node3 -->
<g id="edge2" class="edge">
<title>Node4&#45;&gt;Node3</title>
<path fill="none" stroke="#404040" d="M34.151,-391.3271C45.3661,-372.8257 61.3892,-347.0107 76.4286,-325 80.9687,-318.3553 85.7303,-311.5509 90.5814,-304.7376"/>
<polygon fill="none" stroke="#404040" points="90.7405,-304.5158 90.9892,-297.3089 97.7373,-294.7666 97.4887,-301.9735 90.7405,-304.5158"/>
<text text-anchor="middle" x="116.4286" y="-361" font-family="Helvetica,sans-Serif" font-size="10.00" fill="#000000"> #gmsh_el_type</text>
<text text-anchor="middle" x="116.4286" y="-350" font-family="Helvetica,sans-Serif" font-size="10.00" fill="#000000">#n_vertices</text>
<text text-anchor="middle" x="116.4286" y="-339" font-family="Helvetica,sans-Serif" font-size="10.00" fill="#000000">#n_edges</text>
<text text-anchor="middle" x="116.4286" y="-328" font-family="Helvetica,sans-Serif" font-size="10.00" fill="#000000">#material_id</text>
</g>
<!-- Node5 -->
<g id="node4" class="node">
<title>Node5</title>
<polygon fill="#ffffff" stroke="#bfbfbf" points="118.9286,-387.5 118.9286,-444.5 201.9286,-444.5 201.9286,-387.5 118.9286,-387.5"/>
<text text-anchor="middle" x="160.4286" y="-432.5" font-family="Helvetica,sans-Serif" font-size="10.00" fill="#000000">vector&lt; int &gt;</text>
<polyline fill="none" stroke="#bfbfbf" points="118.9286,-425.5 201.9286,-425.5 "/>
<text text-anchor="middle" x="160.4286" y="-413.5" font-family="Helvetica,sans-Serif" font-size="10.00" fill="#000000"> </text>
<polyline fill="none" stroke="#bfbfbf" points="118.9286,-406.5 201.9286,-406.5 "/>
<text text-anchor="middle" x="160.4286" y="-394.5" font-family="Helvetica,sans-Serif" font-size="10.00" fill="#000000"> </text>
</g>
<!-- Node5&#45;&gt;Node3 -->
<g id="edge3" class="edge">
<title>Node5&#45;&gt;Node3</title>
<path fill="none" stroke="#404040" d="M160.4286,-387.2045C160.4286,-368.9054 160.4286,-343.9625 160.4286,-318.6377"/>
<polygon fill="none" stroke="#404040" points="160.4287,-318.6016 156.4286,-312.6016 160.4286,-306.6016 164.4286,-312.6016 160.4287,-318.6016"/>
<text text-anchor="middle" x="185.9286" y="-350" font-family="Helvetica,sans-Serif" font-size="10.00" fill="#000000"> #vertices</text>
<text text-anchor="middle" x="185.9286" y="-339" font-family="Helvetica,sans-Serif" font-size="10.00" fill="#000000">#edges</text>
</g>
</g>
</svg>
