<?xml version="1.0" encoding="UTF-8" standalone="no"?>
<!DOCTYPE svg PUBLIC "-//W3C//DTD SVG 1.1//EN"
 "http://www.w3.org/Graphics/SVG/1.1/DTD/svg11.dtd">
<!-- Generated by graphviz version 2.40.1 (20161225.0304)
 -->
<!-- Title: nlohmann::detail::json_ref&lt; BasicJsonType &gt; Pages: 1 -->
<svg width="171pt" height="314pt"
 viewBox="0.00 0.00 171.00 314.00" xmlns="http://www.w3.org/2000/svg" xmlns:xlink="http://www.w3.org/1999/xlink">
<g id="graph0" class="graph" transform="scale(1 1) rotate(0) translate(4 310)">
<title>nlohmann::detail::json_ref&lt; BasicJsonType &gt;</title>
<polygon fill="#ffffff" stroke="transparent" points="-4,4 -4,-310 167,-310 167,4 -4,4"/>
<!-- Node1 -->
<g id="node1" class="node">
<title>Node1</title>
<polygon fill="#bfbfbf" stroke="#000000" points="25.5,-.5 25.5,-189.5 144.5,-189.5 144.5,-.5 25.5,-.5"/>
<text text-anchor="start" x="33.5" y="-177.5" font-family="Helvetica,sans-Serif" font-size="10.00" fill="#000000">nlohmann::detail::json</text>
<text text-anchor="middle" x="85" y="-166.5" font-family="Helvetica,sans-Serif" font-size="10.00" fill="#000000">_ref&lt; BasicJsonType &gt;</text>
<polyline fill="none" stroke="#000000" points="25.5,-159.5 144.5,-159.5 "/>
<text text-anchor="middle" x="85" y="-147.5" font-family="Helvetica,sans-Serif" font-size="10.00" fill="#000000"> </text>
<polyline fill="none" stroke="#000000" points="25.5,-140.5 144.5,-140.5 "/>
<text text-anchor="start" x="33.5" y="-128.5" font-family="Helvetica,sans-Serif" font-size="10.00" fill="#000000">+ json_ref()</text>
<text text-anchor="start" x="33.5" y="-117.5" font-family="Helvetica,sans-Serif" font-size="10.00" fill="#000000">+ json_ref()</text>
<text text-anchor="start" x="33.5" y="-106.5" font-family="Helvetica,sans-Serif" font-size="10.00" fill="#000000">+ json_ref()</text>
<text text-anchor="start" x="33.5" y="-95.5" font-family="Helvetica,sans-Serif" font-size="10.00" fill="#000000">+ json_ref()</text>
<text text-anchor="start" x="33.5" y="-84.5" font-family="Helvetica,sans-Serif" font-size="10.00" fill="#000000">+ json_ref()</text>
<text text-anchor="start" x="33.5" y="-73.5" font-family="Helvetica,sans-Serif" font-size="10.00" fill="#000000">+ json_ref()</text>
<text text-anchor="start" x="33.5" y="-62.5" font-family="Helvetica,sans-Serif" font-size="10.00" fill="#000000">+ operator=()</text>
<text text-anchor="start" x="33.5" y="-51.5" font-family="Helvetica,sans-Serif" font-size="10.00" fill="#000000">+ operator=()</text>
<text text-anchor="start" x="33.5" y="-40.5" font-family="Helvetica,sans-Serif" font-size="10.00" fill="#000000">+ ~json_ref()</text>
<text text-anchor="start" x="33.5" y="-29.5" font-family="Helvetica,sans-Serif" font-size="10.00" fill="#000000">+ moved_or_copied()</text>
<text text-anchor="start" x="33.5" y="-18.5" font-family="Helvetica,sans-Serif" font-size="10.00" fill="#000000">+ operator*()</text>
<text text-anchor="start" x="33.5" y="-7.5" font-family="Helvetica,sans-Serif" font-size="10.00" fill="#000000">+ operator&#45;&gt;()</text>
</g>
<!-- Node2 -->
<g id="node2" class="node">
<title>Node2</title>
<polygon fill="#ffffff" stroke="#bfbfbf" points="0,-248.5 0,-305.5 84,-305.5 84,-248.5 0,-248.5"/>
<text text-anchor="middle" x="42" y="-293.5" font-family="Helvetica,sans-Serif" font-size="10.00" fill="#000000">BasicJsonType</text>
<polyline fill="none" stroke="#bfbfbf" points="0,-286.5 84,-286.5 "/>
<text text-anchor="middle" x="42" y="-274.5" font-family="Helvetica,sans-Serif" font-size="10.00" fill="#000000"> </text>
<polyline fill="none" stroke="#bfbfbf" points="0,-267.5 84,-267.5 "/>
<text text-anchor="middle" x="42" y="-255.5" font-family="Helvetica,sans-Serif" font-size="10.00" fill="#000000"> </text>
</g>
<!-- Node2&#45;&gt;Node1 -->
<g id="edge1" class="edge">
<title>Node2&#45;&gt;Node1</title>
<path fill="none" stroke="#404040" d="M40.2425,-248.2475C40.0384,-235.7792 40.5515,-221.0709 43,-208 43.4085,-205.8191 43.8552,-203.625 44.3363,-201.4226"/>
<polygon fill="none" stroke="#404040" points="44.3776,-201.2525 41.9093,-194.477 47.2142,-189.5926 49.6826,-196.3681 44.3776,-201.2525"/>
<text text-anchor="middle" x="75" y="-222" font-family="Helvetica,sans-Serif" font-size="10.00" fill="#000000"> &#45;owned_value</text>
<text text-anchor="middle" x="75" y="-211" font-family="Helvetica,sans-Serif" font-size="10.00" fill="#000000">&#45;value_ref</text>
</g>
<!-- Node3 -->
<g id="node3" class="node">
<title>Node3</title>
<polygon fill="#ffffff" stroke="#bfbfbf" points="111.5,-248.5 111.5,-305.5 146.5,-305.5 146.5,-248.5 111.5,-248.5"/>
<text text-anchor="middle" x="129" y="-293.5" font-family="Helvetica,sans-Serif" font-size="10.00" fill="#000000">bool</text>
<polyline fill="none" stroke="#bfbfbf" points="111.5,-286.5 146.5,-286.5 "/>
<text text-anchor="middle" x="129" y="-274.5" font-family="Helvetica,sans-Serif" font-size="10.00" fill="#000000"> </text>
<polyline fill="none" stroke="#bfbfbf" points="111.5,-267.5 146.5,-267.5 "/>
<text text-anchor="middle" x="129" y="-255.5" font-family="Helvetica,sans-Serif" font-size="10.00" fill="#000000"> </text>
</g>
<!-- Node3&#45;&gt;Node1 -->
<g id="edge2" class="edge">
<title>Node3&#45;&gt;Node1</title>
<path fill="none" stroke="#404040" d="M122.0281,-248.1616C118.8779,-235.1313 114.9403,-218.8439 110.8182,-201.7934"/>
<polygon fill="none" stroke="#404040" points="110.7623,-201.562 105.4643,-196.67 107.9424,-189.898 113.2403,-194.79 110.7623,-201.562"/>
<text text-anchor="middle" x="140" y="-216.5" font-family="Helvetica,sans-Serif" font-size="10.00" fill="#000000"> &#45;is_rvalue</text>
</g>
</g>
</svg>
