<?xml version="1.0" encoding="UTF-8" standalone="no"?>
<!DOCTYPE svg PUBLIC "-//W3C//DTD SVG 1.1//EN"
 "http://www.w3.org/Graphics/SVG/1.1/DTD/svg11.dtd">
<!-- Generated by graphviz version 2.40.1 (20161225.0304)
 -->
<!-- Title: River::Border::GetSourcePoint Pages: 1 -->
<svg width="377pt" height="88pt"
 viewBox="0.00 0.00 377.00 88.00" xmlns="http://www.w3.org/2000/svg" xmlns:xlink="http://www.w3.org/1999/xlink">
<g id="graph0" class="graph" transform="scale(1 1) rotate(0) translate(4 84)">
<title>River::Border::GetSourcePoint</title>
<polygon fill="#ffffff" stroke="transparent" points="-4,4 -4,-84 373,-84 373,4 -4,4"/>
<!-- Node13 -->
<g id="node1" class="node">
<title>Node13</title>
<polygon fill="#bfbfbf" stroke="#000000" points="0,-24.5 0,-54.5 127,-54.5 127,-24.5 0,-24.5"/>
<text text-anchor="start" x="8" y="-42.5" font-family="Helvetica,sans-Serif" font-size="10.00" fill="#000000">River::Border::GetSource</text>
<text text-anchor="middle" x="63.5" y="-31.5" font-family="Helvetica,sans-Serif" font-size="10.00" fill="#000000">Point</text>
</g>
<!-- Node14 -->
<g id="node2" class="node">
<title>Node14</title>
<g id="a_node2"><a xlink:href="classRiver_1_1Border.html#a2f25dbd4abd2d3d684a4d01389e76a0d" target="_top" xlink:title="Returns vector of sources points(both source point is merged into one). ">
<polygon fill="#ffffff" stroke="#000000" points="163,-49.5 163,-79.5 295,-79.5 295,-49.5 163,-49.5"/>
<text text-anchor="start" x="171" y="-67.5" font-family="Helvetica,sans-Serif" font-size="10.00" fill="#000000">River::Border::GetSources</text>
<text text-anchor="middle" x="229" y="-56.5" font-family="Helvetica,sans-Serif" font-size="10.00" fill="#000000">Point</text>
</a>
</g>
</g>
<!-- Node13&#45;&gt;Node14 -->
<g id="edge1" class="edge">
<title>Node13&#45;&gt;Node14</title>
<path fill="none" stroke="#191970" d="M137.0425,-50.6091C145.658,-51.9106 154.4084,-53.2324 162.9137,-54.5172"/>
<polygon fill="#191970" stroke="#191970" points="137.4239,-47.1271 127.0133,-49.0942 136.3783,-54.0486 137.4239,-47.1271"/>
</g>
<!-- Node16 -->
<g id="node4" class="node">
<title>Node16</title>
<g id="a_node4"><a xlink:href="classRiver_1_1Border.html#ad884663725156885e8e5def07a2e49c1" target="_top" xlink:title="Return normal line angle to boundary at point where is located source with source_id ...">
<polygon fill="#ffffff" stroke="#000000" points="165.5,-.5 165.5,-30.5 292.5,-30.5 292.5,-.5 165.5,-.5"/>
<text text-anchor="start" x="173.5" y="-18.5" font-family="Helvetica,sans-Serif" font-size="10.00" fill="#000000">River::Border::GetSource</text>
<text text-anchor="middle" x="229" y="-7.5" font-family="Helvetica,sans-Serif" font-size="10.00" fill="#000000">NormalAngle</text>
</a>
</g>
</g>
<!-- Node13&#45;&gt;Node16 -->
<g id="edge3" class="edge">
<title>Node13&#45;&gt;Node16</title>
<path fill="none" stroke="#191970" d="M137.147,-28.8201C146.5652,-27.4543 156.1426,-26.0654 165.3832,-24.7254"/>
<polygon fill="#191970" stroke="#191970" points="136.4075,-25.3906 127.0133,-30.2896 137.4121,-32.3182 136.4075,-25.3906"/>
</g>
<!-- Node15 -->
<g id="node3" class="node">
<title>Node15</title>
<g id="a_node3"><a xlink:href="main_8cpp.html#a0ddf1224851353fc92bfbff6f499fa97" target="_top" xlink:title="Entry point of RiverSim program. ">
<polygon fill="#ffffff" stroke="#000000" points="331,-55 331,-74 369,-74 369,-55 331,-55"/>
<text text-anchor="middle" x="350" y="-62" font-family="Helvetica,sans-Serif" font-size="10.00" fill="#000000">main</text>
</a>
</g>
</g>
<!-- Node14&#45;&gt;Node15 -->
<g id="edge2" class="edge">
<title>Node14&#45;&gt;Node15</title>
<path fill="none" stroke="#191970" d="M305.2061,-64.5C314.691,-64.5 323.6226,-64.5 330.9773,-64.5"/>
<polygon fill="#191970" stroke="#191970" points="305.1645,-61.0001 295.1645,-64.5 305.1645,-68.0001 305.1645,-61.0001"/>
</g>
</g>
</svg>
