<?xml version="1.0" encoding="UTF-8" standalone="no"?>
<!DOCTYPE svg PUBLIC "-//W3C//DTD SVG 1.1//EN"
 "http://www.w3.org/Graphics/SVG/1.1/DTD/svg11.dtd">
<!-- Generated by graphviz version 2.40.1 (20161225.0304)
 -->
<!-- Title: nlohmann::basic_json::merge_patch Pages: 1 -->
<svg width="431pt" height="135pt"
 viewBox="0.00 0.00 431.00 135.00" xmlns="http://www.w3.org/2000/svg" xmlns:xlink="http://www.w3.org/1999/xlink">
<g id="graph0" class="graph" transform="scale(1 1) rotate(0) translate(4 131)">
<title>nlohmann::basic_json::merge_patch</title>
<polygon fill="#ffffff" stroke="transparent" points="-4,4 -4,-131 427,-131 427,4 -4,4"/>
<!-- Node607 -->
<g id="node1" class="node">
<title>Node607</title>
<polygon fill="#bfbfbf" stroke="#000000" points="0,-47.5 0,-77.5 111,-77.5 111,-47.5 0,-47.5"/>
<text text-anchor="start" x="8" y="-65.5" font-family="Helvetica,sans-Serif" font-size="10.00" fill="#000000">nlohmann::basic_json</text>
<text text-anchor="middle" x="55.5" y="-54.5" font-family="Helvetica,sans-Serif" font-size="10.00" fill="#000000">::merge_patch</text>
</g>
<!-- Node608 -->
<g id="node2" class="node">
<title>Node608</title>
<g id="a_node2"><a xlink:href="classnlohmann_1_1basic__json.html#af8f511af124e82e4579f444b4175787c" target="_top" xlink:title="return whether value is an object ">
<polygon fill="#ffffff" stroke="#000000" points="158,-96.5 158,-126.5 269,-126.5 269,-96.5 158,-96.5"/>
<text text-anchor="start" x="166" y="-114.5" font-family="Helvetica,sans-Serif" font-size="10.00" fill="#000000">nlohmann::basic_json</text>
<text text-anchor="middle" x="213.5" y="-103.5" font-family="Helvetica,sans-Serif" font-size="10.00" fill="#000000">::is_object</text>
</a>
</g>
</g>
<!-- Node607&#45;&gt;Node608 -->
<g id="edge1" class="edge">
<title>Node607&#45;&gt;Node608</title>
<path fill="none" stroke="#191970" d="M104.1944,-77.6014C120.339,-82.6083 138.474,-88.2324 155.2624,-93.439"/>
<polygon fill="#191970" stroke="#191970" points="154.3784,-96.8292 164.9663,-96.4484 156.4519,-90.1433 154.3784,-96.8292"/>
</g>
<!-- Node609 -->
<g id="node3" class="node">
<title>Node609</title>
<g id="a_node3"><a xlink:href="classnlohmann_1_1basic__json.html#a0ff28dac23f2bdecee9564d07f51dcdc" target="_top" xlink:title="returns an iterator to the first element ">
<polygon fill="#ffffff" stroke="#000000" points="158,-47.5 158,-77.5 269,-77.5 269,-47.5 158,-47.5"/>
<text text-anchor="start" x="166" y="-65.5" font-family="Helvetica,sans-Serif" font-size="10.00" fill="#000000">nlohmann::basic_json</text>
<text text-anchor="middle" x="213.5" y="-54.5" font-family="Helvetica,sans-Serif" font-size="10.00" fill="#000000">::begin</text>
</a>
</g>
</g>
<!-- Node607&#45;&gt;Node609 -->
<g id="edge2" class="edge">
<title>Node607&#45;&gt;Node609</title>
<path fill="none" stroke="#191970" d="M111.2049,-62.5C123.0047,-62.5 135.5661,-62.5 147.6999,-62.5"/>
<polygon fill="#191970" stroke="#191970" points="147.7656,-66.0001 157.7656,-62.5 147.7656,-59.0001 147.7656,-66.0001"/>
</g>
<!-- Node611 -->
<g id="node5" class="node">
<title>Node611</title>
<g id="a_node5"><a xlink:href="classnlohmann_1_1basic__json.html#a13e032a02a7fd8a93fdddc2fcbc4763c" target="_top" xlink:title="returns an iterator to one past the last element ">
<polygon fill="#ffffff" stroke="#000000" points="147,-8 147,-27 280,-27 280,-8 147,-8"/>
<text text-anchor="middle" x="213.5" y="-15" font-family="Helvetica,sans-Serif" font-size="10.00" fill="#000000">nlohmann::basic_json::end</text>
</a>
</g>
</g>
<!-- Node607&#45;&gt;Node611 -->
<g id="edge4" class="edge">
<title>Node607&#45;&gt;Node611</title>
<path fill="none" stroke="#191970" d="M108.5512,-47.3905C128.7056,-41.6503 151.3948,-35.1882 170.5071,-29.7448"/>
<polygon fill="#191970" stroke="#191970" points="171.4843,-33.1058 180.1431,-27.0004 169.5669,-26.3735 171.4843,-33.1058"/>
</g>
<!-- Node610 -->
<g id="node4" class="node">
<title>Node610</title>
<g id="a_node4"><a xlink:href="classnlohmann_1_1detail_1_1iter__impl.html#a5d5f92c7f6848814bc82cf7e4e541820" target="_top" xlink:title="set the iterator to the first value ">
<polygon fill="#ffffff" stroke="#000000" points="316,-49.5 316,-79.5 423,-79.5 423,-49.5 316,-49.5"/>
<text text-anchor="start" x="324" y="-67.5" font-family="Helvetica,sans-Serif" font-size="10.00" fill="#000000">nlohmann::detail::iter</text>
<text text-anchor="middle" x="369.5" y="-56.5" font-family="Helvetica,sans-Serif" font-size="10.00" fill="#000000">_impl::set_begin</text>
</a>
</g>
</g>
<!-- Node609&#45;&gt;Node610 -->
<g id="edge3" class="edge">
<title>Node609&#45;&gt;Node610</title>
<path fill="none" stroke="#191970" d="M269.379,-63.2164C281.1952,-63.3679 293.7499,-63.5288 305.8297,-63.6837"/>
<polygon fill="#191970" stroke="#191970" points="305.7943,-67.1834 315.8384,-63.812 305.8841,-60.184 305.7943,-67.1834"/>
</g>
<!-- Node612 -->
<g id="node6" class="node">
<title>Node612</title>
<g id="a_node6"><a xlink:href="classnlohmann_1_1detail_1_1iter__impl.html#a23e50ad4c13aa62d9ac7f60a123823ee" target="_top" xlink:title="set the iterator past the last value ">
<polygon fill="#ffffff" stroke="#000000" points="316,-.5 316,-30.5 423,-30.5 423,-.5 316,-.5"/>
<text text-anchor="start" x="324" y="-18.5" font-family="Helvetica,sans-Serif" font-size="10.00" fill="#000000">nlohmann::detail::iter</text>
<text text-anchor="middle" x="369.5" y="-7.5" font-family="Helvetica,sans-Serif" font-size="10.00" fill="#000000">_impl::set_end</text>
</a>
</g>
</g>
<!-- Node611&#45;&gt;Node612 -->
<g id="edge5" class="edge">
<title>Node611&#45;&gt;Node612</title>
<path fill="none" stroke="#191970" d="M280.1105,-16.646C288.5885,-16.5373 297.25,-16.4263 305.6826,-16.3182"/>
<polygon fill="#191970" stroke="#191970" points="305.873,-19.8161 315.8273,-16.1881 305.7832,-12.8167 305.873,-19.8161"/>
</g>
</g>
</svg>
