<?xml version="1.0" encoding="UTF-8" standalone="no"?>
<!DOCTYPE svg PUBLIC "-//W3C//DTD SVG 1.1//EN"
 "http://www.w3.org/Graphics/SVG/1.1/DTD/svg11.dtd">
<!-- Generated by graphviz version 2.40.1 (20161225.0304)
 -->
<!-- Title: tethex::Mesh::get_quadrangle Pages: 1 -->
<svg width="311pt" height="104pt"
 viewBox="0.00 0.00 311.00 104.00" xmlns="http://www.w3.org/2000/svg" xmlns:xlink="http://www.w3.org/1999/xlink">
<g id="graph0" class="graph" transform="scale(1 1) rotate(0) translate(4 100)">
<title>tethex::Mesh::get_quadrangle</title>
<polygon fill="#ffffff" stroke="transparent" points="-4,4 -4,-100 307,-100 307,4 -4,4"/>
<!-- Node157 -->
<g id="node1" class="node">
<title>Node157</title>
<polygon fill="#bfbfbf" stroke="#000000" points="0,-38.5 0,-57.5 146,-57.5 146,-38.5 0,-38.5"/>
<text text-anchor="middle" x="73" y="-45.5" font-family="Helvetica,sans-Serif" font-size="10.00" fill="#000000">tethex::Mesh::get_quadrangle</text>
</g>
<!-- Node158 -->
<g id="node2" class="node">
<title>Node158</title>
<g id="a_node2"><a xlink:href="classRiver_1_1Solver.html#a3d51dbec8b2d1d790c5f4e0385b408d7" target="_top" xlink:title="River::Solver::SetMesh">
<polygon fill="#ffffff" stroke="#000000" points="183,-76.5 183,-95.5 302,-95.5 302,-76.5 183,-76.5"/>
<text text-anchor="middle" x="242.5" y="-83.5" font-family="Helvetica,sans-Serif" font-size="10.00" fill="#000000">River::Solver::SetMesh</text>
</a>
</g>
</g>
<!-- Node157&#45;&gt;Node158 -->
<g id="edge1" class="edge">
<title>Node157&#45;&gt;Node158</title>
<path fill="none" stroke="#191970" d="M125.7425,-59.8243C149.639,-65.1816 177.5152,-71.4311 200.0356,-76.4799"/>
<polygon fill="#191970" stroke="#191970" points="126.2955,-56.3614 115.772,-57.589 124.7641,-63.1919 126.2955,-56.3614"/>
</g>
<!-- Node159 -->
<g id="node3" class="node">
<title>Node159</title>
<g id="a_node3"><a xlink:href="classtethex_1_1Mesh.html#af7abffd9bc4bd64eb2f4cdd4aaf7fbe3" target="_top" xlink:title="tethex::Mesh::Mesh">
<polygon fill="#ffffff" stroke="#000000" points="190.5,-38.5 190.5,-57.5 294.5,-57.5 294.5,-38.5 190.5,-38.5"/>
<text text-anchor="middle" x="242.5" y="-45.5" font-family="Helvetica,sans-Serif" font-size="10.00" fill="#000000">tethex::Mesh::Mesh</text>
</a>
</g>
</g>
<!-- Node157&#45;&gt;Node159 -->
<g id="edge2" class="edge">
<title>Node157&#45;&gt;Node159</title>
<path fill="none" stroke="#191970" d="M156.5057,-48C168.0853,-48 179.696,-48 190.4726,-48"/>
<polygon fill="#191970" stroke="#191970" points="156.3594,-44.5001 146.3593,-48 156.3593,-51.5001 156.3594,-44.5001"/>
</g>
<!-- Node160 -->
<g id="node4" class="node">
<title>Node160</title>
<g id="a_node4"><a xlink:href="classtethex_1_1Mesh.html#af992d5d2e64047656766e4afcbc95b8b" target="_top" xlink:title="tethex::Mesh::operator=">
<polygon fill="#ffffff" stroke="#000000" points="182,-.5 182,-19.5 303,-19.5 303,-.5 182,-.5"/>
<text text-anchor="middle" x="242.5" y="-7.5" font-family="Helvetica,sans-Serif" font-size="10.00" fill="#000000">tethex::Mesh::operator=</text>
</a>
</g>
</g>
<!-- Node157&#45;&gt;Node160 -->
<g id="edge3" class="edge">
<title>Node157&#45;&gt;Node160</title>
<path fill="none" stroke="#191970" d="M125.7425,-36.1757C149.639,-30.8184 177.5152,-24.5689 200.0356,-19.5201"/>
<polygon fill="#191970" stroke="#191970" points="124.7641,-32.8081 115.772,-38.411 126.2955,-39.6386 124.7641,-32.8081"/>
</g>
</g>
</svg>
