<?xml version="1.0" encoding="UTF-8" standalone="no"?>
<!DOCTYPE svg PUBLIC "-//W3C//DTD SVG 1.1//EN"
 "http://www.w3.org/Graphics/SVG/1.1/DTD/svg11.dtd">
<!-- Generated by graphviz version 2.40.1 (20161225.0304)
 -->
<!-- Title: River::Rivers Pages: 1 -->
<svg width="643pt" height="556pt"
 viewBox="0.00 0.00 642.50 556.00" xmlns="http://www.w3.org/2000/svg" xmlns:xlink="http://www.w3.org/1999/xlink">
<g id="graph0" class="graph" transform="scale(1 1) rotate(0) translate(4 552)">
<title>River::Rivers</title>
<polygon fill="#ffffff" stroke="transparent" points="-4,4 -4,-552 638.5,-552 638.5,4 -4,4"/>
<!-- Node1 -->
<g id="node1" class="node">
<title>Node1</title>
<polygon fill="#bfbfbf" stroke="#000000" points="212,-.5 212,-431.5 376,-431.5 376,-.5 212,-.5"/>
<text text-anchor="middle" x="294" y="-419.5" font-family="Helvetica,sans-Serif" font-size="10.00" fill="#000000">River::Rivers</text>
<polyline fill="none" stroke="#000000" points="212,-412.5 376,-412.5 "/>
<text text-anchor="middle" x="294" y="-400.5" font-family="Helvetica,sans-Serif" font-size="10.00" fill="#000000"> </text>
<polyline fill="none" stroke="#000000" points="212,-393.5 376,-393.5 "/>
<text text-anchor="start" x="220" y="-381.5" font-family="Helvetica,sans-Serif" font-size="10.00" fill="#000000">+ Rivers()</text>
<text text-anchor="start" x="220" y="-370.5" font-family="Helvetica,sans-Serif" font-size="10.00" fill="#000000">+ Rivers()</text>
<text text-anchor="start" x="220" y="-359.5" font-family="Helvetica,sans-Serif" font-size="10.00" fill="#000000">+ ~Rivers()</text>
<text text-anchor="start" x="220" y="-348.5" font-family="Helvetica,sans-Serif" font-size="10.00" fill="#000000">+ operator=()</text>
<text text-anchor="start" x="220" y="-337.5" font-family="Helvetica,sans-Serif" font-size="10.00" fill="#000000">+ NumberOfSourceBranches()</text>
<text text-anchor="start" x="220" y="-326.5" font-family="Helvetica,sans-Serif" font-size="10.00" fill="#000000">+ SourceBranchesID()</text>
<text text-anchor="start" x="220" y="-315.5" font-family="Helvetica,sans-Serif" font-size="10.00" fill="#000000">+ Initialize()</text>
<text text-anchor="start" x="220" y="-304.5" font-family="Helvetica,sans-Serif" font-size="10.00" fill="#000000">+ AddBranch()</text>
<text text-anchor="start" x="220" y="-293.5" font-family="Helvetica,sans-Serif" font-size="10.00" fill="#000000">+ AddSourceBranch()</text>
<text text-anchor="start" x="220" y="-282.5" font-family="Helvetica,sans-Serif" font-size="10.00" fill="#000000">+ AddSubBranches()</text>
<text text-anchor="start" x="220" y="-271.5" font-family="Helvetica,sans-Serif" font-size="10.00" fill="#000000">+ GetParentBranchId()</text>
<text text-anchor="start" x="220" y="-260.5" font-family="Helvetica,sans-Serif" font-size="10.00" fill="#000000">+ GetSubBranchesId()</text>
<text text-anchor="start" x="220" y="-249.5" font-family="Helvetica,sans-Serif" font-size="10.00" fill="#000000">+ GetAdjacentBranchId()</text>
<text text-anchor="start" x="220" y="-238.5" font-family="Helvetica,sans-Serif" font-size="10.00" fill="#000000">+ GenerateNewID()</text>
<text text-anchor="start" x="220" y="-227.5" font-family="Helvetica,sans-Serif" font-size="10.00" fill="#000000">+ GetBranch()</text>
<text text-anchor="start" x="220" y="-216.5" font-family="Helvetica,sans-Serif" font-size="10.00" fill="#000000">+ GetBranch()</text>
<text text-anchor="start" x="220" y="-205.5" font-family="Helvetica,sans-Serif" font-size="10.00" fill="#000000">and 15 more...</text>
<text text-anchor="start" x="220" y="-194.5" font-family="Helvetica,sans-Serif" font-size="10.00" fill="#000000">+ TipBranchesId()</text>
<text text-anchor="start" x="220" y="-183.5" font-family="Helvetica,sans-Serif" font-size="10.00" fill="#000000">+ TipPoints()</text>
<text text-anchor="start" x="220" y="-172.5" font-family="Helvetica,sans-Serif" font-size="10.00" fill="#000000">+ TipIdsAndPoints()</text>
<text text-anchor="start" x="220" y="-161.5" font-family="Helvetica,sans-Serif" font-size="10.00" fill="#000000">* operator&lt;&lt;</text>
<text text-anchor="start" x="220" y="-150.5" font-family="Helvetica,sans-Serif" font-size="10.00" fill="#000000">* Initialize()</text>
<text text-anchor="start" x="220" y="-139.5" font-family="Helvetica,sans-Serif" font-size="10.00" fill="#000000">* AddBranch()</text>
<text text-anchor="start" x="220" y="-128.5" font-family="Helvetica,sans-Serif" font-size="10.00" fill="#000000">* AddSourceBranch()</text>
<text text-anchor="start" x="220" y="-117.5" font-family="Helvetica,sans-Serif" font-size="10.00" fill="#000000">* AddSubBranches()</text>
<text text-anchor="start" x="220" y="-106.5" font-family="Helvetica,sans-Serif" font-size="10.00" fill="#000000">* GetParentBranchId()</text>
<text text-anchor="start" x="220" y="-95.5" font-family="Helvetica,sans-Serif" font-size="10.00" fill="#000000">* GetSubBranchesId()</text>
<text text-anchor="start" x="220" y="-84.5" font-family="Helvetica,sans-Serif" font-size="10.00" fill="#000000">* GetAdjacentBranchId()</text>
<text text-anchor="start" x="220" y="-73.5" font-family="Helvetica,sans-Serif" font-size="10.00" fill="#000000">* GenerateNewID()</text>
<text text-anchor="start" x="220" y="-62.5" font-family="Helvetica,sans-Serif" font-size="10.00" fill="#000000">* GetBranch()</text>
<text text-anchor="start" x="220" y="-51.5" font-family="Helvetica,sans-Serif" font-size="10.00" fill="#000000">* GetBranch()</text>
<text text-anchor="start" x="220" y="-40.5" font-family="Helvetica,sans-Serif" font-size="10.00" fill="#000000">and 15 more...</text>
<text text-anchor="start" x="220" y="-29.5" font-family="Helvetica,sans-Serif" font-size="10.00" fill="#000000">* TipBranchesId()</text>
<text text-anchor="start" x="220" y="-18.5" font-family="Helvetica,sans-Serif" font-size="10.00" fill="#000000">* TipPoints()</text>
<text text-anchor="start" x="220" y="-7.5" font-family="Helvetica,sans-Serif" font-size="10.00" fill="#000000">* TipIdsAndPoints()</text>
</g>
<!-- Node2 -->
<g id="node2" class="node">
<title>Node2</title>
<polygon fill="#ffffff" stroke="#bfbfbf" points="0,-479.5 0,-547.5 114,-547.5 114,-479.5 0,-479.5"/>
<text text-anchor="start" x="8" y="-535.5" font-family="Helvetica,sans-Serif" font-size="10.00" fill="#000000">map&lt; int, pair&lt; int,</text>
<text text-anchor="middle" x="57" y="-524.5" font-family="Helvetica,sans-Serif" font-size="10.00" fill="#000000"> int &gt; &gt;</text>
<polyline fill="none" stroke="#bfbfbf" points="0,-517.5 114,-517.5 "/>
<text text-anchor="middle" x="57" y="-505.5" font-family="Helvetica,sans-Serif" font-size="10.00" fill="#000000"> </text>
<polyline fill="none" stroke="#bfbfbf" points="0,-498.5 114,-498.5 "/>
<text text-anchor="middle" x="57" y="-486.5" font-family="Helvetica,sans-Serif" font-size="10.00" fill="#000000"> </text>
</g>
<!-- Node2&#45;&gt;Node1 -->
<g id="edge1" class="edge">
<title>Node2&#45;&gt;Node1</title>
<path fill="none" stroke="#404040" d="M84.1869,-479.373C113.4353,-442.6582 161.5154,-382.3046 204.2749,-328.6296"/>
<polygon fill="none" stroke="#404040" points="204.4371,-328.426 205.047,-321.2407 211.9142,-319.0402 211.3042,-326.2255 204.4371,-328.426"/>
<text text-anchor="middle" x="152.5" y="-453" font-family="Helvetica,sans-Serif" font-size="10.00" fill="#000000"> +branches_relation</text>
</g>
<!-- Node3 -->
<g id="node3" class="node">
<title>Node3</title>
<polygon fill="#ffffff" stroke="#bfbfbf" points="132.5,-485 132.5,-542 273.5,-542 273.5,-485 132.5,-485"/>
<text text-anchor="middle" x="203" y="-530" font-family="Helvetica,sans-Serif" font-size="10.00" fill="#000000">list&lt; River::BranchNew &gt;</text>
<polyline fill="none" stroke="#bfbfbf" points="132.5,-523 273.5,-523 "/>
<text text-anchor="middle" x="203" y="-511" font-family="Helvetica,sans-Serif" font-size="10.00" fill="#000000"> </text>
<polyline fill="none" stroke="#bfbfbf" points="132.5,-504 273.5,-504 "/>
<text text-anchor="middle" x="203" y="-492" font-family="Helvetica,sans-Serif" font-size="10.00" fill="#000000"> </text>
</g>
<!-- Node3&#45;&gt;Node1 -->
<g id="edge2" class="edge">
<title>Node3&#45;&gt;Node1</title>
<path fill="none" stroke="#404040" d="M211.7255,-484.9744C215.2157,-473.5642 219.5681,-459.335 224.4367,-443.4186"/>
<polygon fill="none" stroke="#404040" points="224.5578,-443.0223 222.4878,-436.1146 228.0679,-431.5471 230.1379,-438.4547 224.5578,-443.0223"/>
<text text-anchor="middle" x="248" y="-453" font-family="Helvetica,sans-Serif" font-size="10.00" fill="#000000"> +branches</text>
</g>
<!-- Node4 -->
<g id="node4" class="node">
<title>Node4</title>
<polygon fill="#ffffff" stroke="#bfbfbf" points="291.5,-485 291.5,-542 320.5,-542 320.5,-485 291.5,-485"/>
<text text-anchor="middle" x="306" y="-530" font-family="Helvetica,sans-Serif" font-size="10.00" fill="#000000">int</text>
<polyline fill="none" stroke="#bfbfbf" points="291.5,-523 320.5,-523 "/>
<text text-anchor="middle" x="306" y="-511" font-family="Helvetica,sans-Serif" font-size="10.00" fill="#000000"> </text>
<polyline fill="none" stroke="#bfbfbf" points="291.5,-504 320.5,-504 "/>
<text text-anchor="middle" x="306" y="-492" font-family="Helvetica,sans-Serif" font-size="10.00" fill="#000000"> </text>
</g>
<!-- Node4&#45;&gt;Node1 -->
<g id="edge3" class="edge">
<title>Node4&#45;&gt;Node1</title>
<path fill="none" stroke="#404040" d="M298.8893,-484.7829C297.2892,-477.1057 295.8223,-468.7792 295,-461 294.3961,-455.2863 293.8531,-449.4934 293.3663,-443.6456"/>
<polygon fill="none" stroke="#404040" points="293.3582,-443.5382 288.9129,-437.8602 292.4445,-431.573 296.8897,-437.2511 293.3582,-443.5382"/>
<text text-anchor="middle" x="336.5" y="-453" font-family="Helvetica,sans-Serif" font-size="10.00" fill="#000000"> +invalid_branch</text>
</g>
<!-- Node5 -->
<g id="node5" class="node">
<title>Node5</title>
<polygon fill="#ffffff" stroke="#bfbfbf" points="358.5,-485 358.5,-542 441.5,-542 441.5,-485 358.5,-485"/>
<text text-anchor="middle" x="400" y="-530" font-family="Helvetica,sans-Serif" font-size="10.00" fill="#000000">vector&lt; int &gt;</text>
<polyline fill="none" stroke="#bfbfbf" points="358.5,-523 441.5,-523 "/>
<text text-anchor="middle" x="400" y="-511" font-family="Helvetica,sans-Serif" font-size="10.00" fill="#000000"> </text>
<polyline fill="none" stroke="#bfbfbf" points="358.5,-504 441.5,-504 "/>
<text text-anchor="middle" x="400" y="-492" font-family="Helvetica,sans-Serif" font-size="10.00" fill="#000000"> </text>
</g>
<!-- Node5&#45;&gt;Node1 -->
<g id="edge4" class="edge">
<title>Node5&#45;&gt;Node1</title>
<path fill="none" stroke="#404040" d="M390.1016,-484.7107C386.3392,-473.8258 381.9972,-461.333 378,-450 377.2059,-447.7485 376.4069,-445.485 375.6035,-443.2112"/>
<polygon fill="none" stroke="#404040" points="375.5557,-443.0757 369.7836,-438.7532 371.5536,-431.7627 377.3256,-436.0852 375.5557,-443.0757"/>
<text text-anchor="middle" x="435" y="-453" font-family="Helvetica,sans-Serif" font-size="10.00" fill="#000000"> +source_branches_id</text>
</g>
<!-- Node6 -->
<g id="node6" class="node">
<title>Node6</title>
<polygon fill="#ffffff" stroke="#bfbfbf" points="459.5,-485 459.5,-542 634.5,-542 634.5,-485 459.5,-485"/>
<text text-anchor="middle" x="547" y="-530" font-family="Helvetica,sans-Serif" font-size="10.00" fill="#000000">map&lt; int, River::BranchNew * &gt;</text>
<polyline fill="none" stroke="#bfbfbf" points="459.5,-523 634.5,-523 "/>
<text text-anchor="middle" x="547" y="-511" font-family="Helvetica,sans-Serif" font-size="10.00" fill="#000000"> </text>
<polyline fill="none" stroke="#bfbfbf" points="459.5,-504 634.5,-504 "/>
<text text-anchor="middle" x="547" y="-492" font-family="Helvetica,sans-Serif" font-size="10.00" fill="#000000"> </text>
</g>
<!-- Node6&#45;&gt;Node1 -->
<g id="edge5" class="edge">
<title>Node6&#45;&gt;Node1</title>
<path fill="none" stroke="#404040" d="M522.7413,-484.9744C490.9262,-447.5634 433.3402,-379.8487 383.9098,-321.724"/>
<polygon fill="none" stroke="#404040" points="383.8258,-321.6252 376.8916,-319.6458 376.0517,-312.4838 382.9859,-314.4631 383.8258,-321.6252"/>
<text text-anchor="middle" x="542" y="-453" font-family="Helvetica,sans-Serif" font-size="10.00" fill="#000000"> +branches_index</text>
</g>
</g>
</svg>
