<?xml version="1.0" encoding="UTF-8" standalone="no"?>
<!DOCTYPE svg PUBLIC "-//W3C//DTD SVG 1.1//EN"
 "http://www.w3.org/Graphics/SVG/1.1/DTD/svg11.dtd">
<!-- Generated by graphviz version 2.40.1 (20161225.0304)
 -->
<!-- Title: River::Branch::AverageSpeed Pages: 1 -->
<svg width="335pt" height="66pt"
 viewBox="0.00 0.00 335.00 66.00" xmlns="http://www.w3.org/2000/svg" xmlns:xlink="http://www.w3.org/1999/xlink">
<g id="graph0" class="graph" transform="scale(1 1) rotate(0) translate(4 62)">
<title>River::Branch::AverageSpeed</title>
<polygon fill="#ffffff" stroke="transparent" points="-4,4 -4,-62 331,-62 331,4 -4,4"/>
<!-- Node14 -->
<g id="node1" class="node">
<title>Node14</title>
<polygon fill="#bfbfbf" stroke="#000000" points="0,-14 0,-44 149,-44 149,-14 0,-14"/>
<text text-anchor="start" x="8" y="-32" font-family="Helvetica,sans-Serif" font-size="10.00" fill="#000000">River::Branch::Average</text>
<text text-anchor="middle" x="74.5" y="-21" font-family="Helvetica,sans-Serif" font-size="10.00" fill="#000000">Speed</text>
</g>
<!-- Node15 -->
<g id="node2" class="node">
<title>Node15</title>
<g id="a_node2"><a xlink:href="classRiver_1_1BranchNew.html#a748a3596e4e852ca785d7c529f960ed5" target="_top" xlink:title="Returns Lenght of whole branch. ">
<polygon fill="#ffffff" stroke="#000000" points="185,-38.5 185,-57.5 327,-57.5 327,-38.5 185,-38.5"/>
<text text-anchor="middle" x="256" y="-45.5" font-family="Helvetica,sans-Serif" font-size="10.00" fill="#000000">River::Branch::Lenght</text>
</a>
</g>
</g>
<!-- Node14&#45;&gt;Node15 -->
<g id="edge1" class="edge">
<title>Node14&#45;&gt;Node15</title>
<path fill="none" stroke="#191970" d="M149.1087,-36.8103C157.612,-37.7004 166.3106,-38.611 174.8929,-39.5094"/>
<polygon fill="#191970" stroke="#191970" points="174.5855,-42.9963 184.8956,-40.5566 175.3144,-36.0344 174.5855,-42.9963"/>
</g>
<!-- Node16 -->
<g id="node3" class="node">
<title>Node16</title>
<g id="a_node3"><a xlink:href="classRiver_1_1BranchNew.html#ad31e9de44351f77a06bce668094cf2f4" target="_top" xlink:title="Returns number of points in branch. ">
<polygon fill="#ffffff" stroke="#000000" points="191.5,-.5 191.5,-19.5 320.5,-19.5 320.5,-.5 191.5,-.5"/>
<text text-anchor="middle" x="256" y="-7.5" font-family="Helvetica,sans-Serif" font-size="10.00" fill="#000000">River::Branch::Size</text>
</a>
</g>
</g>
<!-- Node14&#45;&gt;Node16 -->
<g id="edge2" class="edge">
<title>Node14&#45;&gt;Node16</title>
<path fill="none" stroke="#191970" d="M149.1087,-21.1897C159.7042,-20.0806 170.603,-18.9396 181.202,-17.8301"/>
<polygon fill="#191970" stroke="#191970" points="181.6713,-21.3002 191.2525,-16.778 180.9424,-14.3382 181.6713,-21.3002"/>
</g>
</g>
</svg>
