<?xml version="1.0" encoding="UTF-8" standalone="no"?>
<!DOCTYPE svg PUBLIC "-//W3C//DTD SVG 1.1//EN"
 "http://www.w3.org/Graphics/SVG/1.1/DTD/svg11.dtd">
<!-- Generated by graphviz version 2.40.1 (20161225.0304)
 -->
<!-- Title: River::Solver::integrate Pages: 1 -->
<svg width="286pt" height="88pt"
 viewBox="0.00 0.00 286.00 88.00" xmlns="http://www.w3.org/2000/svg" xmlns:xlink="http://www.w3.org/1999/xlink">
<g id="graph0" class="graph" transform="scale(1 1) rotate(0) translate(4 84)">
<title>River::Solver::integrate</title>
<polygon fill="#ffffff" stroke="transparent" points="-4,4 -4,-84 282,-84 282,4 -4,4"/>
<!-- Node33 -->
<g id="node1" class="node">
<title>Node33</title>
<polygon fill="#bfbfbf" stroke="#000000" points="0,-30 0,-49 117,-49 117,-30 0,-30"/>
<text text-anchor="middle" x="58.5" y="-37" font-family="Helvetica,sans-Serif" font-size="10.00" fill="#000000">River::Solver::integrate</text>
</g>
<!-- Node34 -->
<g id="node2" class="node">
<title>Node34</title>
<g id="a_node2"><a xlink:href="classRiver_1_1IntegrationParams.html#aa249fc71c13c39e0698b21d461eb7e09" target="_top" xlink:title="Weight function used in computation of series parameters. ">
<polygon fill="#ffffff" stroke="#000000" points="153,-49.5 153,-79.5 278,-79.5 278,-49.5 153,-49.5"/>
<text text-anchor="start" x="161" y="-67.5" font-family="Helvetica,sans-Serif" font-size="10.00" fill="#000000">River::IntegrationParams</text>
<text text-anchor="middle" x="215.5" y="-56.5" font-family="Helvetica,sans-Serif" font-size="10.00" fill="#000000">::WeightFunction</text>
</a>
</g>
</g>
<!-- Node33&#45;&gt;Node34 -->
<g id="edge1" class="edge">
<title>Node33&#45;&gt;Node34</title>
<path fill="none" stroke="#191970" d="M117.4077,-48.8802C125.7253,-50.2047 134.3565,-51.5791 142.8942,-52.9386"/>
<polygon fill="#191970" stroke="#191970" points="142.4233,-56.4076 152.8493,-54.5238 143.5242,-49.4947 142.4233,-56.4076"/>
</g>
<!-- Node35 -->
<g id="node3" class="node">
<title>Node35</title>
<g id="a_node3"><a xlink:href="classRiver_1_1IntegrationParams.html#aac7570ed475400eed41c4499d95fe072" target="_top" xlink:title="Base Vector function used in computation of series parameters. ">
<polygon fill="#ffffff" stroke="#000000" points="153,-.5 153,-30.5 278,-30.5 278,-.5 153,-.5"/>
<text text-anchor="start" x="161" y="-18.5" font-family="Helvetica,sans-Serif" font-size="10.00" fill="#000000">River::IntegrationParams</text>
<text text-anchor="middle" x="215.5" y="-7.5" font-family="Helvetica,sans-Serif" font-size="10.00" fill="#000000">::BaseVector</text>
</a>
</g>
</g>
<!-- Node33&#45;&gt;Node35 -->
<g id="edge2" class="edge">
<title>Node33&#45;&gt;Node35</title>
<path fill="none" stroke="#191970" d="M117.4077,-30.495C125.7253,-29.2235 134.3565,-27.9041 142.8942,-26.599"/>
<polygon fill="#191970" stroke="#191970" points="143.4931,-30.0482 152.8493,-25.0772 142.4352,-23.1286 143.4931,-30.0482"/>
</g>
</g>
</svg>
