<?xml version="1.0" encoding="UTF-8" standalone="no"?>
<!DOCTYPE svg PUBLIC "-//W3C//DTD SVG 1.1//EN"
 "http://www.w3.org/Graphics/SVG/1.1/DTD/svg11.dtd">
<!-- Generated by graphviz version 2.40.1 (20161225.0304)
 -->
<!-- Title: River::Model Pages: 1 -->
<svg width="1076pt" height="548pt"
 viewBox="0.00 0.00 1076.00 548.00" xmlns="http://www.w3.org/2000/svg" xmlns:xlink="http://www.w3.org/1999/xlink">
<g id="graph0" class="graph" transform="scale(1 1) rotate(0) translate(4 544)">
<title>River::Model</title>
<polygon fill="#ffffff" stroke="transparent" points="-4,4 -4,-544 1072,-544 1072,4 -4,4"/>
<!-- Node1 -->
<g id="node1" class="node">
<title>Node1</title>
<polygon fill="#bfbfbf" stroke="#000000" points="471,-.5 471,-134.5 651,-134.5 651,-.5 471,-.5"/>
<text text-anchor="middle" x="561" y="-122.5" font-family="Helvetica,sans-Serif" font-size="10.00" fill="#000000">River::Model</text>
<polyline fill="none" stroke="#000000" points="471,-115.5 651,-115.5 "/>
<text text-anchor="start" x="479" y="-103.5" font-family="Helvetica,sans-Serif" font-size="10.00" fill="#000000">+ biffurcation_threshold</text>
<text text-anchor="start" x="479" y="-92.5" font-family="Helvetica,sans-Serif" font-size="10.00" fill="#000000">+ biffurcation_min_dist</text>
<polyline fill="none" stroke="#000000" points="471,-85.5 651,-85.5 "/>
<text text-anchor="start" x="479" y="-73.5" font-family="Helvetica,sans-Serif" font-size="10.00" fill="#000000">+ q_biffurcate()</text>
<text text-anchor="start" x="479" y="-62.5" font-family="Helvetica,sans-Serif" font-size="10.00" fill="#000000">+ q_growth()</text>
<text text-anchor="start" x="479" y="-51.5" font-family="Helvetica,sans-Serif" font-size="10.00" fill="#000000">+ next_point()</text>
<text text-anchor="start" x="479" y="-40.5" font-family="Helvetica,sans-Serif" font-size="10.00" fill="#000000">+ GetZeroIndices()</text>
<text text-anchor="start" x="479" y="-29.5" font-family="Helvetica,sans-Serif" font-size="10.00" fill="#000000">+ GetNonZeroIndices()</text>
<text text-anchor="start" x="479" y="-18.5" font-family="Helvetica,sans-Serif" font-size="10.00" fill="#000000">+ CheckParametersConsistency()</text>
<text text-anchor="start" x="479" y="-7.5" font-family="Helvetica,sans-Serif" font-size="10.00" fill="#000000">+ print()</text>
</g>
<!-- Node2 -->
<g id="node2" class="node">
<title>Node2</title>
<g id="a_node2"><a xlink:href="classRiver_1_1ProgramOptions.html" target="_top" xlink:title="Global program options. ">
<polygon fill="#ffffff" stroke="#000000" points="29.5,-225 29.5,-282 156.5,-282 156.5,-225 29.5,-225"/>
<text text-anchor="middle" x="93" y="-270" font-family="Helvetica,sans-Serif" font-size="10.00" fill="#000000">River::ProgramOptions</text>
<polyline fill="none" stroke="#000000" points="29.5,-263 156.5,-263 "/>
<text text-anchor="middle" x="93" y="-251" font-family="Helvetica,sans-Serif" font-size="10.00" fill="#000000"> </text>
<polyline fill="none" stroke="#000000" points="29.5,-244 156.5,-244 "/>
<text text-anchor="middle" x="93" y="-232" font-family="Helvetica,sans-Serif" font-size="10.00" fill="#000000"> </text>
</a>
</g>
</g>
<!-- Node2&#45;&gt;Node1 -->
<g id="edge1" class="edge">
<title>Node2&#45;&gt;Node1</title>
<path fill="none" stroke="#404040" d="M97.4567,-224.8652C102.5542,-201.9747 113.2067,-170.8593 135,-153 183.5041,-113.2516 348.7008,-89.0688 458.5507,-76.9993"/>
<polygon fill="none" stroke="#404040" points="458.7314,-76.9799 464.2678,-72.3595 470.6622,-75.6929 465.1258,-80.3133 458.7314,-76.9799"/>
<text text-anchor="middle" x="162.5" y="-156" font-family="Helvetica,sans-Serif" font-size="10.00" fill="#000000"> +prog_opt</text>
</g>
<!-- Node3 -->
<g id="node3" class="node">
<title>Node3</title>
<polygon fill="#ffffff" stroke="#bfbfbf" points="0,-482.5 0,-539.5 38,-539.5 38,-482.5 0,-482.5"/>
<text text-anchor="middle" x="19" y="-527.5" font-family="Helvetica,sans-Serif" font-size="10.00" fill="#000000">bool</text>
<polyline fill="none" stroke="#bfbfbf" points="0,-520.5 38,-520.5 "/>
<text text-anchor="middle" x="19" y="-508.5" font-family="Helvetica,sans-Serif" font-size="10.00" fill="#000000"> </text>
<polyline fill="none" stroke="#bfbfbf" points="0,-501.5 38,-501.5 "/>
<text text-anchor="middle" x="19" y="-489.5" font-family="Helvetica,sans-Serif" font-size="10.00" fill="#000000"> </text>
</g>
<!-- Node3&#45;&gt;Node2 -->
<g id="edge2" class="edge">
<title>Node3&#45;&gt;Node2</title>
<path fill="none" stroke="#404040" d="M13.5374,-482.3551C8.2601,-448.0893 3.2764,-389.5239 20,-343 26.8437,-323.9612 39.6327,-306.027 52.6174,-291.2842"/>
<polygon fill="none" stroke="#404040" points="52.9775,-290.8941 54.1088,-283.7723 61.1179,-282.0774 59.9866,-289.1992 52.9775,-290.8941"/>
<text text-anchor="middle" x="45.5" y="-401" font-family="Helvetica,sans-Serif" font-size="10.00" fill="#000000"> +verbose</text>
</g>
<!-- Node4 -->
<g id="node4" class="node">
<title>Node4</title>
<polygon fill="#ffffff" stroke="#bfbfbf" points="189.5,-482.5 189.5,-539.5 250.5,-539.5 250.5,-482.5 189.5,-482.5"/>
<text text-anchor="middle" x="220" y="-527.5" font-family="Helvetica,sans-Serif" font-size="10.00" fill="#000000">unsigned</text>
<polyline fill="none" stroke="#bfbfbf" points="189.5,-520.5 250.5,-520.5 "/>
<text text-anchor="middle" x="220" y="-508.5" font-family="Helvetica,sans-Serif" font-size="10.00" fill="#000000"> </text>
<polyline fill="none" stroke="#bfbfbf" points="189.5,-501.5 250.5,-501.5 "/>
<text text-anchor="middle" x="220" y="-489.5" font-family="Helvetica,sans-Serif" font-size="10.00" fill="#000000"> </text>
</g>
<!-- Node4&#45;&gt;Node1 -->
<g id="edge16" class="edge">
<title>Node4&#45;&gt;Node1</title>
<path fill="none" stroke="#404040" d="M215.1478,-482.4192C203.7482,-411.4282 178.7095,-229.3813 213,-182 242.338,-141.462 367.0867,-107.4993 458.872,-87.3443"/>
<polygon fill="none" stroke="#404040" points="459.0126,-87.3139 464.0301,-82.1346 470.7408,-84.7741 465.7233,-89.9534 459.0126,-87.3139"/>
<text text-anchor="middle" x="265.5" y="-262" font-family="Helvetica,sans-Serif" font-size="10.00" fill="#000000"> +biffurcation_type</text>
<text text-anchor="middle" x="265.5" y="-251" font-family="Helvetica,sans-Serif" font-size="10.00" fill="#000000">+growth_type</text>
<text text-anchor="middle" x="265.5" y="-240" font-family="Helvetica,sans-Serif" font-size="10.00" fill="#000000">+boundary_condition</text>
</g>
<!-- Node4&#45;&gt;Node2 -->
<g id="edge3" class="edge">
<title>Node4&#45;&gt;Node2</title>
<path fill="none" stroke="#404040" d="M189.2482,-503.7818C155.6777,-495.2077 105.1896,-480.0352 94,-464 75.5583,-437.5722 82.0514,-347.6542 87.876,-294.2668"/>
<polygon fill="none" stroke="#404040" points="87.8942,-294.1058 84.5981,-287.692 89.2507,-282.1827 92.5468,-288.5964 87.8942,-294.1058"/>
<text text-anchor="middle" x="142" y="-401" font-family="Helvetica,sans-Serif" font-size="10.00" fill="#000000"> +number_of_steps</text>
</g>
<!-- Node5 -->
<g id="node5" class="node">
<title>Node5</title>
<g id="a_node5"><a xlink:href="classRiver_1_1SolverParams.html" target="_top" xlink:title="Holds All parameters used in Deal.II solver. ">
<polygon fill="#ffffff" stroke="#000000" points="327.5,-225 327.5,-282 442.5,-282 442.5,-225 327.5,-225"/>
<text text-anchor="middle" x="385" y="-270" font-family="Helvetica,sans-Serif" font-size="10.00" fill="#000000">River::SolverParams</text>
<polyline fill="none" stroke="#000000" points="327.5,-263 442.5,-263 "/>
<text text-anchor="middle" x="385" y="-251" font-family="Helvetica,sans-Serif" font-size="10.00" fill="#000000"> </text>
<polyline fill="none" stroke="#000000" points="327.5,-244 442.5,-244 "/>
<text text-anchor="middle" x="385" y="-232" font-family="Helvetica,sans-Serif" font-size="10.00" fill="#000000"> </text>
</a>
</g>
</g>
<!-- Node4&#45;&gt;Node5 -->
<g id="edge6" class="edge">
<title>Node4&#45;&gt;Node5</title>
<path fill="none" stroke="#404040" d="M219.2297,-482.3786C218.7059,-439.925 220.3303,-363.106 238,-343 260.6292,-317.2506 283.0612,-341.6966 313,-325 328.4757,-316.3693 342.9056,-303.4826 354.7224,-291.0168"/>
<polygon fill="none" stroke="#404040" points="354.7722,-290.9619 355.8471,-283.8314 362.8426,-282.081 361.7677,-289.2116 354.7722,-290.9619"/>
<text text-anchor="middle" x="290" y="-417.5" font-family="Helvetica,sans-Serif" font-size="10.00" fill="#000000"> +num_of_iterrations</text>
<text text-anchor="start" x="238" y="-406.5" font-family="Helvetica,sans-Serif" font-size="10.00" fill="#000000">+adaptive_refinment</text>
<text text-anchor="middle" x="290" y="-395.5" font-family="Helvetica,sans-Serif" font-size="10.00" fill="#000000">_steps</text>
<text text-anchor="middle" x="290" y="-384.5" font-family="Helvetica,sans-Serif" font-size="10.00" fill="#000000">+quadrature_degree</text>
</g>
<!-- Node8 -->
<g id="node8" class="node">
<title>Node8</title>
<g id="a_node8"><a xlink:href="classRiver_1_1MeshParams.html" target="_top" xlink:title="Adaptive mesh area constraint function. ">
<polygon fill="#ffffff" stroke="#000000" points="461,-225 461,-282 571,-282 571,-225 461,-225"/>
<text text-anchor="middle" x="516" y="-270" font-family="Helvetica,sans-Serif" font-size="10.00" fill="#000000">River::MeshParams</text>
<polyline fill="none" stroke="#000000" points="461,-263 571,-263 "/>
<text text-anchor="middle" x="516" y="-251" font-family="Helvetica,sans-Serif" font-size="10.00" fill="#000000"> </text>
<polyline fill="none" stroke="#000000" points="461,-244 571,-244 "/>
<text text-anchor="start" x="469" y="-232" font-family="Helvetica,sans-Serif" font-size="10.00" fill="#000000">+ operator()()</text>
</a>
</g>
</g>
<!-- Node4&#45;&gt;Node8 -->
<g id="edge12" class="edge">
<title>Node4&#45;&gt;Node8</title>
<path fill="none" stroke="#404040" d="M250.6535,-506.7201C278.1273,-501.3294 317.7326,-489.4726 342,-464 381.0686,-422.991 340.6192,-381.6747 382,-343 405.4689,-321.0658 424.5504,-341.686 452,-325 466.0412,-316.4647 478.7631,-303.8927 489.098,-291.6615"/>
<polygon fill="none" stroke="#404040" points="489.3376,-291.3633 489.9778,-284.1807 496.8542,-282.0091 496.214,-289.1917 489.3376,-291.3633"/>
<text text-anchor="middle" x="443.5" y="-401" font-family="Helvetica,sans-Serif" font-size="10.00" fill="#000000"> +static_refinment_steps</text>
</g>
<!-- Node5&#45;&gt;Node1 -->
<g id="edge4" class="edge">
<title>Node5&#45;&gt;Node1</title>
<path fill="none" stroke="#404040" d="M399.0208,-224.6966C410.2026,-203.4704 427.2316,-174.6487 447,-153 451.6488,-147.909 456.6364,-142.9132 461.834,-138.0522"/>
<polygon fill="none" stroke="#404040" points="461.8449,-138.0423 463.6218,-131.0536 470.7564,-130.0058 468.9795,-136.9946 461.8449,-138.0423"/>
<text text-anchor="middle" x="489" y="-156" font-family="Helvetica,sans-Serif" font-size="10.00" fill="#000000"> +solver_params</text>
</g>
<!-- Node6 -->
<g id="node6" class="node">
<title>Node6</title>
<polygon fill="#ffffff" stroke="#bfbfbf" points="750,-482.5 750,-539.5 800,-539.5 800,-482.5 750,-482.5"/>
<text text-anchor="middle" x="775" y="-527.5" font-family="Helvetica,sans-Serif" font-size="10.00" fill="#000000">double</text>
<polyline fill="none" stroke="#bfbfbf" points="750,-520.5 800,-520.5 "/>
<text text-anchor="middle" x="775" y="-508.5" font-family="Helvetica,sans-Serif" font-size="10.00" fill="#000000"> </text>
<polyline fill="none" stroke="#bfbfbf" points="750,-501.5 800,-501.5 "/>
<text text-anchor="middle" x="775" y="-489.5" font-family="Helvetica,sans-Serif" font-size="10.00" fill="#000000"> </text>
</g>
<!-- Node6&#45;&gt;Node1 -->
<g id="edge7" class="edge">
<title>Node6&#45;&gt;Node1</title>
<path fill="none" stroke="#404040" d="M800.0934,-507.1155C840.068,-500.3578 915.3097,-485.1142 931,-464 1006.3629,-362.5856 968.7891,-284.5652 895,-182 867.2773,-143.4661 750.8456,-109.6482 663.1906,-88.9444"/>
<polygon fill="none" stroke="#404040" points="662.9842,-88.8963 656.233,-91.4305 651.2972,-86.1733 658.0483,-83.6392 662.9842,-88.8963"/>
<text text-anchor="middle" x="1018" y="-317" font-family="Helvetica,sans-Serif" font-size="10.00" fill="#000000"> +biffurcation_angle</text>
<text text-anchor="middle" x="1018" y="-306" font-family="Helvetica,sans-Serif" font-size="10.00" fill="#000000">+eta</text>
<text text-anchor="middle" x="1018" y="-295" font-family="Helvetica,sans-Serif" font-size="10.00" fill="#000000">+height</text>
<text text-anchor="middle" x="1018" y="-284" font-family="Helvetica,sans-Serif" font-size="10.00" fill="#000000">+field_value</text>
<text text-anchor="middle" x="1018" y="-273" font-family="Helvetica,sans-Serif" font-size="10.00" fill="#000000">+ds</text>
<text text-anchor="start" x="968" y="-262" font-family="Helvetica,sans-Serif" font-size="10.00" fill="#000000">+biffurcation</text>
<text text-anchor="middle" x="1018" y="-251" font-family="Helvetica,sans-Serif" font-size="10.00" fill="#000000">_threshold_2</text>
<text text-anchor="middle" x="1018" y="-240" font-family="Helvetica,sans-Serif" font-size="10.00" fill="#000000">+width</text>
<text text-anchor="middle" x="1018" y="-229" font-family="Helvetica,sans-Serif" font-size="10.00" fill="#000000">+dx</text>
<text text-anchor="start" x="968" y="-218" font-family="Helvetica,sans-Serif" font-size="10.00" fill="#000000">+growth_min</text>
<text text-anchor="middle" x="1018" y="-207" font-family="Helvetica,sans-Serif" font-size="10.00" fill="#000000">_distance</text>
<text text-anchor="middle" x="1018" y="-196" font-family="Helvetica,sans-Serif" font-size="10.00" fill="#000000">+growth_threshold</text>
<text text-anchor="middle" x="1018" y="-185" font-family="Helvetica,sans-Serif" font-size="10.00" fill="#000000">...</text>
</g>
<!-- Node6&#45;&gt;Node5 -->
<g id="edge5" class="edge">
<title>Node6&#45;&gt;Node5</title>
<path fill="none" stroke="#404040" d="M749.7557,-508.0196C704.2891,-502.1194 611.3689,-487.4556 590,-464 553.339,-423.7591 609.6008,-381.3841 571,-343 533.0702,-305.2831 499.3466,-349.8904 452,-325 436.7613,-316.9889 423.1002,-304.1377 412.1509,-291.5251"/>
<polygon fill="none" stroke="#404040" points="411.9482,-291.2786 405.0475,-289.1857 404.3253,-282.0108 411.226,-284.1038 411.9482,-291.2786"/>
<text text-anchor="middle" x="641" y="-406.5" font-family="Helvetica,sans-Serif" font-size="10.00" fill="#000000"> +refinment_fraction</text>
<text text-anchor="middle" x="641" y="-395.5" font-family="Helvetica,sans-Serif" font-size="10.00" fill="#000000">+tollerance</text>
</g>
<!-- Node6&#45;&gt;Node8 -->
<g id="edge10" class="edge">
<title>Node6&#45;&gt;Node8</title>
<path fill="none" stroke="#404040" d="M749.9171,-497.4877C737.4152,-489.4323 723.2422,-478.0341 715,-464 687.4322,-417.0599 734.502,-381.4831 696,-343 659.41,-306.4279 626.5454,-349.535 581,-325 566.1707,-317.0115 552.9749,-304.2906 542.4124,-291.7782"/>
<polygon fill="none" stroke="#404040" points="542.3559,-291.7074 535.4855,-289.5169 534.8651,-282.3325 541.7355,-284.523 542.3559,-291.7074"/>
<text text-anchor="middle" x="760.5" y="-456" font-family="Helvetica,sans-Serif" font-size="10.00" fill="#000000"> +min_area</text>
<text text-anchor="middle" x="760.5" y="-445" font-family="Helvetica,sans-Serif" font-size="10.00" fill="#000000">+refinment_radius</text>
<text text-anchor="middle" x="760.5" y="-434" font-family="Helvetica,sans-Serif" font-size="10.00" fill="#000000">+sigma</text>
<text text-anchor="middle" x="760.5" y="-423" font-family="Helvetica,sans-Serif" font-size="10.00" fill="#000000">+max_edge</text>
<text text-anchor="middle" x="760.5" y="-412" font-family="Helvetica,sans-Serif" font-size="10.00" fill="#000000">+max_area</text>
<text text-anchor="middle" x="760.5" y="-401" font-family="Helvetica,sans-Serif" font-size="10.00" fill="#000000">+exponant</text>
<text text-anchor="middle" x="760.5" y="-390" font-family="Helvetica,sans-Serif" font-size="10.00" fill="#000000">+eps</text>
<text text-anchor="middle" x="760.5" y="-379" font-family="Helvetica,sans-Serif" font-size="10.00" fill="#000000">+ratio</text>
<text text-anchor="middle" x="760.5" y="-368" font-family="Helvetica,sans-Serif" font-size="10.00" fill="#000000">+min_angle</text>
<text text-anchor="middle" x="760.5" y="-357" font-family="Helvetica,sans-Serif" font-size="10.00" fill="#000000">+min_edge</text>
<text text-anchor="middle" x="760.5" y="-346" font-family="Helvetica,sans-Serif" font-size="10.00" fill="#000000">...</text>
</g>
<!-- Node11 -->
<g id="node11" class="node">
<title>Node11</title>
<g id="a_node11"><a xlink:href="classRiver_1_1IntegrationParams.html" target="_top" xlink:title="Holds parameters used by integration of series paramets functionality(see River::Solver::integrate())...">
<polygon fill="#ffffff" stroke="#000000" points="647.5,-214 647.5,-293 784.5,-293 784.5,-214 647.5,-214"/>
<text text-anchor="middle" x="716" y="-281" font-family="Helvetica,sans-Serif" font-size="10.00" fill="#000000">River::IntegrationParams</text>
<polyline fill="none" stroke="#000000" points="647.5,-274 784.5,-274 "/>
<text text-anchor="middle" x="716" y="-262" font-family="Helvetica,sans-Serif" font-size="10.00" fill="#000000"> </text>
<polyline fill="none" stroke="#000000" points="647.5,-255 784.5,-255 "/>
<text text-anchor="start" x="655.5" y="-243" font-family="Helvetica,sans-Serif" font-size="10.00" fill="#000000">+ WeightFunction()</text>
<text text-anchor="start" x="655.5" y="-232" font-family="Helvetica,sans-Serif" font-size="10.00" fill="#000000">+ BaseVector()</text>
<text text-anchor="start" x="655.5" y="-221" font-family="Helvetica,sans-Serif" font-size="10.00" fill="#000000">+ BaseVectorFinal()</text>
</a>
</g>
</g>
<!-- Node6&#45;&gt;Node11 -->
<g id="edge15" class="edge">
<title>Node6&#45;&gt;Node11</title>
<path fill="none" stroke="#404040" d="M800.0322,-483.3261C804.1274,-477.3371 807.7595,-470.7599 810,-464 826.9189,-412.953 831.1874,-392.4282 810,-343 808.7086,-339.9872 789.166,-321.2182 768.2327,-301.6409"/>
<polygon fill="none" stroke="#404040" points="768.0032,-301.427 760.8869,-300.2618 759.2253,-293.2447 766.3417,-294.4099 768.0032,-301.427"/>
<text text-anchor="middle" x="875.5" y="-412" font-family="Helvetica,sans-Serif" font-size="10.00" fill="#000000"> +integration_radius</text>
<text text-anchor="middle" x="875.5" y="-401" font-family="Helvetica,sans-Serif" font-size="10.00" fill="#000000">+weigth_func_radius</text>
<text text-anchor="middle" x="875.5" y="-390" font-family="Helvetica,sans-Serif" font-size="10.00" fill="#000000">+exponant</text>
</g>
<!-- Node7 -->
<g id="node7" class="node">
<title>Node7</title>
<polygon fill="#ffffff" stroke="#bfbfbf" points="589.5,-225 589.5,-282 618.5,-282 618.5,-225 589.5,-225"/>
<text text-anchor="middle" x="604" y="-270" font-family="Helvetica,sans-Serif" font-size="10.00" fill="#000000">int</text>
<polyline fill="none" stroke="#bfbfbf" points="589.5,-263 618.5,-263 "/>
<text text-anchor="middle" x="604" y="-251" font-family="Helvetica,sans-Serif" font-size="10.00" fill="#000000"> </text>
<polyline fill="none" stroke="#bfbfbf" points="589.5,-244 618.5,-244 "/>
<text text-anchor="middle" x="604" y="-232" font-family="Helvetica,sans-Serif" font-size="10.00" fill="#000000"> </text>
</g>
<!-- Node7&#45;&gt;Node1 -->
<g id="edge8" class="edge">
<title>Node7&#45;&gt;Node1</title>
<path fill="none" stroke="#404040" d="M597.3755,-224.8451C592.5313,-203.8913 585.711,-174.3896 579.2832,-146.5855"/>
<polygon fill="none" stroke="#404040" points="579.2623,-146.4949 574.0136,-141.5501 576.5594,-134.8033 581.8081,-139.7481 579.2623,-146.4949"/>
<text text-anchor="middle" x="632" y="-156" font-family="Helvetica,sans-Serif" font-size="10.00" fill="#000000"> +river_boundary_id</text>
</g>
<!-- Node8&#45;&gt;Node1 -->
<g id="edge9" class="edge">
<title>Node8&#45;&gt;Node1</title>
<path fill="none" stroke="#404040" d="M521.9004,-224.8262C526.1386,-204.6764 532.1192,-177.1203 538,-153 538.5234,-150.8532 539.0605,-148.678 539.6082,-146.4842"/>
<polygon fill="none" stroke="#404040" points="539.6645,-146.2625 537.2653,-139.4622 542.6197,-134.632 545.0189,-141.4323 539.6645,-146.2625"/>
<text text-anchor="middle" x="557.5" y="-156" font-family="Helvetica,sans-Serif" font-size="10.00" fill="#000000"> +mesh</text>
</g>
<!-- Node9 -->
<g id="node9" class="node">
<title>Node9</title>
<polygon fill="#ffffff" stroke="#bfbfbf" points="447,-482.5 447,-539.5 573,-539.5 573,-482.5 447,-482.5"/>
<text text-anchor="middle" x="510" y="-527.5" font-family="Helvetica,sans-Serif" font-size="10.00" fill="#000000">vector&lt; River::Point &gt;</text>
<polyline fill="none" stroke="#bfbfbf" points="447,-520.5 573,-520.5 "/>
<text text-anchor="middle" x="510" y="-508.5" font-family="Helvetica,sans-Serif" font-size="10.00" fill="#000000"> </text>
<polyline fill="none" stroke="#bfbfbf" points="447,-501.5 573,-501.5 "/>
<text text-anchor="middle" x="510" y="-489.5" font-family="Helvetica,sans-Serif" font-size="10.00" fill="#000000"> </text>
</g>
<!-- Node9&#45;&gt;Node8 -->
<g id="edge11" class="edge">
<title>Node9&#45;&gt;Node8</title>
<path fill="none" stroke="#404040" d="M509.7369,-482.4554C509.5292,-449.0236 509.4871,-391.9775 511,-343 511.4918,-327.0804 512.3894,-309.5852 513.2899,-294.3186"/>
<polygon fill="none" stroke="#404040" points="513.3044,-294.0798 509.6787,-287.8465 514.0381,-282.1022 517.6638,-288.3356 513.3044,-294.0798"/>
<text text-anchor="middle" x="541" y="-401" font-family="Helvetica,sans-Serif" font-size="10.00" fill="#000000"> +tip_points</text>
</g>
<!-- Node10 -->
<g id="node10" class="node">
<title>Node10</title>
<polygon fill="#ffffff" stroke="#bfbfbf" points="802.5,-225 802.5,-282 885.5,-282 885.5,-225 802.5,-225"/>
<text text-anchor="middle" x="844" y="-270" font-family="Helvetica,sans-Serif" font-size="10.00" fill="#000000">vector&lt; int &gt;</text>
<polyline fill="none" stroke="#bfbfbf" points="802.5,-263 885.5,-263 "/>
<text text-anchor="middle" x="844" y="-251" font-family="Helvetica,sans-Serif" font-size="10.00" fill="#000000"> </text>
<polyline fill="none" stroke="#bfbfbf" points="802.5,-244 885.5,-244 "/>
<text text-anchor="middle" x="844" y="-232" font-family="Helvetica,sans-Serif" font-size="10.00" fill="#000000"> </text>
</g>
<!-- Node10&#45;&gt;Node1 -->
<g id="edge13" class="edge">
<title>Node10&#45;&gt;Node1</title>
<path fill="none" stroke="#404040" d="M828.5263,-224.8116C819.8033,-210.6043 807.8744,-193.976 794,-182 755.6294,-148.8795 706.006,-122.762 662.4214,-103.8863"/>
<polygon fill="none" stroke="#404040" points="662.2355,-103.8075 655.1499,-105.1471 651.1881,-99.1218 658.2737,-97.7822 662.2355,-103.8075"/>
<text text-anchor="middle" x="804.5" y="-156" font-family="Helvetica,sans-Serif" font-size="10.00" fill="#000000"> +boundary_ids</text>
</g>
<!-- Node11&#45;&gt;Node1 -->
<g id="edge14" class="edge">
<title>Node11&#45;&gt;Node1</title>
<path fill="none" stroke="#404040" d="M710.6072,-213.9792C706.4015,-194.2219 698.989,-170.7965 686,-153 678.776,-143.1022 670.0394,-133.9745 660.5803,-125.6646"/>
<polygon fill="none" stroke="#404040" points="660.5371,-125.6286 653.3667,-124.8628 651.3158,-117.9495 658.4862,-118.7153 660.5371,-125.6286"/>
<text text-anchor="middle" x="712" y="-156" font-family="Helvetica,sans-Serif" font-size="10.00" fill="#000000"> +integr</text>
</g>
</g>
</svg>
