<?xml version="1.0" encoding="UTF-8" standalone="no"?>
<!DOCTYPE svg PUBLIC "-//W3C//DTD SVG 1.1//EN"
 "http://www.w3.org/Graphics/SVG/1.1/DTD/svg11.dtd">
<!-- Generated by graphviz version 2.40.1 (20161225.0304)
 -->
<!-- Title: tethex::Line Pages: 1 -->
<svg width="241pt" height="475pt"
 viewBox="0.00 0.00 241.00 475.00" xmlns="http://www.w3.org/2000/svg" xmlns:xlink="http://www.w3.org/1999/xlink">
<g id="graph0" class="graph" transform="scale(1 1) rotate(0) translate(4 471)">
<title>tethex::Line</title>
<polygon fill="#ffffff" stroke="transparent" points="-4,4 -4,-471 237,-471 237,4 -4,4"/>
<!-- Node2 -->
<g id="node1" class="node">
<title>Node2</title>
<polygon fill="#bfbfbf" stroke="#000000" points="0,-.5 0,-101.5 115,-101.5 115,-.5 0,-.5"/>
<text text-anchor="middle" x="57.5" y="-89.5" font-family="Helvetica,sans-Serif" font-size="10.00" fill="#000000">tethex::Line</text>
<polyline fill="none" stroke="#000000" points="0,-82.5 115,-82.5 "/>
<text text-anchor="middle" x="57.5" y="-70.5" font-family="Helvetica,sans-Serif" font-size="10.00" fill="#000000"> </text>
<polyline fill="none" stroke="#000000" points="0,-63.5 115,-63.5 "/>
<text text-anchor="start" x="8" y="-51.5" font-family="Helvetica,sans-Serif" font-size="10.00" fill="#000000">+ Line()</text>
<text text-anchor="start" x="8" y="-40.5" font-family="Helvetica,sans-Serif" font-size="10.00" fill="#000000">+ Line()</text>
<text text-anchor="start" x="8" y="-29.5" font-family="Helvetica,sans-Serif" font-size="10.00" fill="#000000">+ Line()</text>
<text text-anchor="start" x="8" y="-18.5" font-family="Helvetica,sans-Serif" font-size="10.00" fill="#000000">+ common_vertex()</text>
<text text-anchor="start" x="8" y="-7.5" font-family="Helvetica,sans-Serif" font-size="10.00" fill="#000000">+ another_vertex()</text>
</g>
<!-- Node3 -->
<g id="node2" class="node">
<title>Node3</title>
<g id="a_node2"><a xlink:href="classtethex_1_1MeshElement.html" target="_top" xlink:title="This class implements the most part of functionality of all elements of mesh: triangles, tetrahedra, quadrangles, hexahedra, etc. ">
<polygon fill="#ffffff" stroke="#000000" points="108,-139.5 108,-328.5 233,-328.5 233,-139.5 108,-139.5"/>
<text text-anchor="middle" x="170.5" y="-316.5" font-family="Helvetica,sans-Serif" font-size="10.00" fill="#000000">tethex::MeshElement</text>
<polyline fill="none" stroke="#000000" points="108,-309.5 233,-309.5 "/>
<text text-anchor="middle" x="170.5" y="-297.5" font-family="Helvetica,sans-Serif" font-size="10.00" fill="#000000"> </text>
<polyline fill="none" stroke="#000000" points="108,-290.5 233,-290.5 "/>
<text text-anchor="start" x="116" y="-278.5" font-family="Helvetica,sans-Serif" font-size="10.00" fill="#000000">+ ~MeshElement()</text>
<text text-anchor="start" x="116" y="-267.5" font-family="Helvetica,sans-Serif" font-size="10.00" fill="#000000">+ get_n_vertices()</text>
<text text-anchor="start" x="116" y="-256.5" font-family="Helvetica,sans-Serif" font-size="10.00" fill="#000000">+ get_n_edges()</text>
<text text-anchor="start" x="116" y="-245.5" font-family="Helvetica,sans-Serif" font-size="10.00" fill="#000000">+ get_gmsh_el_type()</text>
<text text-anchor="start" x="116" y="-234.5" font-family="Helvetica,sans-Serif" font-size="10.00" fill="#000000">+ get_material_id()</text>
<text text-anchor="start" x="116" y="-223.5" font-family="Helvetica,sans-Serif" font-size="10.00" fill="#000000">+ get_vertex()</text>
<text text-anchor="start" x="116" y="-212.5" font-family="Helvetica,sans-Serif" font-size="10.00" fill="#000000">+ get_edge()</text>
<text text-anchor="start" x="116" y="-201.5" font-family="Helvetica,sans-Serif" font-size="10.00" fill="#000000">+ set_vertex()</text>
<text text-anchor="start" x="116" y="-190.5" font-family="Helvetica,sans-Serif" font-size="10.00" fill="#000000">+ set_edge()</text>
<text text-anchor="start" x="116" y="-179.5" font-family="Helvetica,sans-Serif" font-size="10.00" fill="#000000">+ contains()</text>
<text text-anchor="start" x="116" y="-168.5" font-family="Helvetica,sans-Serif" font-size="10.00" fill="#000000"># MeshElement()</text>
<text text-anchor="start" x="116" y="-157.5" font-family="Helvetica,sans-Serif" font-size="10.00" fill="#000000"># MeshElement()</text>
<text text-anchor="start" x="116" y="-146.5" font-family="Helvetica,sans-Serif" font-size="10.00" fill="#000000"># operator=()</text>
</a>
</g>
</g>
<!-- Node3&#45;&gt;Node2 -->
<g id="edge1" class="edge">
<title>Node3&#45;&gt;Node2</title>
<path fill="none" stroke="#191970" d="M106.6123,-130.5358C100.4915,-120.6234 94.4884,-110.9016 88.8971,-101.8466"/>
<polygon fill="none" stroke="#191970" points="103.782,-132.6141 112.014,-139.2838 109.7381,-128.9363 103.782,-132.6141"/>
</g>
<!-- Node4 -->
<g id="node3" class="node">
<title>Node4</title>
<polygon fill="#ffffff" stroke="#bfbfbf" points="15,-409.5 15,-466.5 44,-466.5 44,-409.5 15,-409.5"/>
<text text-anchor="middle" x="29.5" y="-454.5" font-family="Helvetica,sans-Serif" font-size="10.00" fill="#000000">int</text>
<polyline fill="none" stroke="#bfbfbf" points="15,-447.5 44,-447.5 "/>
<text text-anchor="middle" x="29.5" y="-435.5" font-family="Helvetica,sans-Serif" font-size="10.00" fill="#000000"> </text>
<polyline fill="none" stroke="#bfbfbf" points="15,-428.5 44,-428.5 "/>
<text text-anchor="middle" x="29.5" y="-416.5" font-family="Helvetica,sans-Serif" font-size="10.00" fill="#000000"> </text>
</g>
<!-- Node4&#45;&gt;Node2 -->
<g id="edge4" class="edge">
<title>Node4&#45;&gt;Node2</title>
<path fill="none" stroke="#404040" d="M24.5784,-409.2047C16.3083,-355.4809 2.3134,-236.5742 21.5,-139 23.186,-130.4259 25.7141,-121.6349 28.6639,-113.0833"/>
<polygon fill="none" stroke="#404040" points="28.7437,-112.8675 27.0746,-105.8522 32.9083,-101.6133 34.5774,-108.6286 28.7437,-112.8675"/>
<text text-anchor="middle" x="60" y="-242.5" font-family="Helvetica,sans-Serif" font-size="10.00" fill="#000000"> +n_vertices</text>
<text text-anchor="middle" x="60" y="-231.5" font-family="Helvetica,sans-Serif" font-size="10.00" fill="#000000">+n_edges</text>
<text text-anchor="middle" x="60" y="-220.5" font-family="Helvetica,sans-Serif" font-size="10.00" fill="#000000">+gmsh_el_type</text>
</g>
<!-- Node4&#45;&gt;Node3 -->
<g id="edge2" class="edge">
<title>Node4&#45;&gt;Node3</title>
<path fill="none" stroke="#404040" d="M44.2224,-413.3271C55.4375,-394.8257 71.4607,-369.0107 86.5,-347 91.0401,-340.3553 95.8018,-333.5509 100.6528,-326.7376"/>
<polygon fill="none" stroke="#404040" points="100.812,-326.5158 101.0607,-319.3089 107.8088,-316.7666 107.5601,-323.9735 100.812,-326.5158"/>
<text text-anchor="middle" x="126.5" y="-383" font-family="Helvetica,sans-Serif" font-size="10.00" fill="#000000"> #gmsh_el_type</text>
<text text-anchor="middle" x="126.5" y="-372" font-family="Helvetica,sans-Serif" font-size="10.00" fill="#000000">#n_vertices</text>
<text text-anchor="middle" x="126.5" y="-361" font-family="Helvetica,sans-Serif" font-size="10.00" fill="#000000">#n_edges</text>
<text text-anchor="middle" x="126.5" y="-350" font-family="Helvetica,sans-Serif" font-size="10.00" fill="#000000">#material_id</text>
</g>
<!-- Node5 -->
<g id="node4" class="node">
<title>Node5</title>
<polygon fill="#ffffff" stroke="#bfbfbf" points="129,-409.5 129,-466.5 212,-466.5 212,-409.5 129,-409.5"/>
<text text-anchor="middle" x="170.5" y="-454.5" font-family="Helvetica,sans-Serif" font-size="10.00" fill="#000000">vector&lt; int &gt;</text>
<polyline fill="none" stroke="#bfbfbf" points="129,-447.5 212,-447.5 "/>
<text text-anchor="middle" x="170.5" y="-435.5" font-family="Helvetica,sans-Serif" font-size="10.00" fill="#000000"> </text>
<polyline fill="none" stroke="#bfbfbf" points="129,-428.5 212,-428.5 "/>
<text text-anchor="middle" x="170.5" y="-416.5" font-family="Helvetica,sans-Serif" font-size="10.00" fill="#000000"> </text>
</g>
<!-- Node5&#45;&gt;Node3 -->
<g id="edge3" class="edge">
<title>Node5&#45;&gt;Node3</title>
<path fill="none" stroke="#404040" d="M170.5,-409.2045C170.5,-390.9054 170.5,-365.9625 170.5,-340.6377"/>
<polygon fill="none" stroke="#404040" points="170.5001,-340.6016 166.5,-334.6016 170.5,-328.6016 174.5,-334.6016 170.5001,-340.6016"/>
<text text-anchor="middle" x="196" y="-372" font-family="Helvetica,sans-Serif" font-size="10.00" fill="#000000"> #vertices</text>
<text text-anchor="middle" x="196" y="-361" font-family="Helvetica,sans-Serif" font-size="10.00" fill="#000000">#edges</text>
</g>
</g>
</svg>
