<?xml version="1.0" encoding="UTF-8" standalone="no"?>
<!DOCTYPE svg PUBLIC "-//W3C//DTD SVG 1.1//EN"
 "http://www.w3.org/Graphics/SVG/1.1/DTD/svg11.dtd">
<!-- Generated by graphviz version 2.40.1 (20161225.0304)
 -->
<!-- Title: River::Border::GetSourcesPoint Pages: 1 -->
<svg width="402pt" height="154pt"
 viewBox="0.00 0.00 402.00 153.50" xmlns="http://www.w3.org/2000/svg" xmlns:xlink="http://www.w3.org/1999/xlink">
<g id="graph0" class="graph" transform="scale(1 1) rotate(0) translate(4 149.5)">
<title>River::Border::GetSourcesPoint</title>
<polygon fill="#ffffff" stroke="transparent" points="-4,4 -4,-149.5 398,-149.5 398,4 -4,4"/>
<!-- Node29 -->
<g id="node1" class="node">
<title>Node29</title>
<polygon fill="#bfbfbf" stroke="#000000" points="0,-63.5 0,-93.5 132,-93.5 132,-63.5 0,-63.5"/>
<text text-anchor="start" x="8" y="-81.5" font-family="Helvetica,sans-Serif" font-size="10.00" fill="#000000">River::Border::GetSources</text>
<text text-anchor="middle" x="66" y="-70.5" font-family="Helvetica,sans-Serif" font-size="10.00" fill="#000000">Point</text>
</g>
<!-- Node30 -->
<g id="node2" class="node">
<title>Node30</title>
<g id="a_node2"><a xlink:href="classtethex_1_1Mesh.html#a9fefc160a592f20226064d1b03b3a14d" target="_top" xlink:title="tethex::Mesh::get_points">
<polygon fill="#ffffff" stroke="#000000" points="168,-126 168,-145 293,-145 293,-126 168,-126"/>
<text text-anchor="middle" x="230.5" y="-133" font-family="Helvetica,sans-Serif" font-size="10.00" fill="#000000">tethex::Mesh::get_points</text>
</a>
</g>
</g>
<!-- Node29&#45;&gt;Node30 -->
<g id="edge1" class="edge">
<title>Node29&#45;&gt;Node30</title>
<path fill="none" stroke="#191970" d="M105.0322,-93.683C123.9482,-100.8763 147.0537,-109.4219 168,-116.5 174.4247,-118.671 181.258,-120.8645 187.9585,-122.9514"/>
<polygon fill="#191970" stroke="#191970" points="187.0306,-126.3277 197.6175,-125.9178 189.0857,-119.6362 187.0306,-126.3277"/>
</g>
<!-- Node31 -->
<g id="node3" class="node">
<title>Node31</title>
<g id="a_node3"><a xlink:href="classRiver_1_1Border.html#a953fd3059a1d32edc34eefbc1ed1ae66" target="_top" xlink:title="Checks if point id value represents source. ">
<polygon fill="#ffffff" stroke="#000000" points="171,-88 171,-107 290,-107 290,-88 171,-88"/>
<text text-anchor="middle" x="230.5" y="-95" font-family="Helvetica,sans-Serif" font-size="10.00" fill="#000000">River::Border::IsSource</text>
</a>
</g>
</g>
<!-- Node29&#45;&gt;Node31 -->
<g id="edge2" class="edge">
<title>Node29&#45;&gt;Node31</title>
<path fill="none" stroke="#191970" d="M132.4343,-86.1733C141.7985,-87.2548 151.4469,-88.3692 160.869,-89.4575"/>
<polygon fill="#191970" stroke="#191970" points="160.6444,-92.9548 170.98,-90.6254 161.4477,-86.001 160.6444,-92.9548"/>
</g>
<!-- Node32 -->
<g id="node4" class="node">
<title>Node32</title>
<g id="a_node4"><a xlink:href="classtethex_1_1Mesh.html#aea31733cbb3d4e47252da53a253ec9b8" target="_top" xlink:title="tethex::Mesh::get_vertex">
<polygon fill="#ffffff" stroke="#000000" points="168,-50 168,-69 293,-69 293,-50 168,-50"/>
<text text-anchor="middle" x="230.5" y="-57" font-family="Helvetica,sans-Serif" font-size="10.00" fill="#000000">tethex::Mesh::get_vertex</text>
</a>
</g>
</g>
<!-- Node29&#45;&gt;Node32 -->
<g id="edge3" class="edge">
<title>Node29&#45;&gt;Node32</title>
<path fill="none" stroke="#191970" d="M132.4343,-70.8267C140.7389,-69.8675 149.267,-68.8825 157.6626,-67.9128"/>
<polygon fill="#191970" stroke="#191970" points="158.2814,-71.3647 167.8137,-66.7404 157.4782,-64.4109 158.2814,-71.3647"/>
</g>
<!-- Node34 -->
<g id="node6" class="node">
<title>Node34</title>
<g id="a_node6"><a xlink:href="classtethex_1_1Point.html#afd64f338ed62a8735cde178689773f89" target="_top" xlink:title="tethex::Point::get\l_coord">
<polygon fill="#ffffff" stroke="#000000" points="184.5,-.5 184.5,-30.5 276.5,-30.5 276.5,-.5 184.5,-.5"/>
<text text-anchor="start" x="192.5" y="-18.5" font-family="Helvetica,sans-Serif" font-size="10.00" fill="#000000">tethex::Point::get</text>
<text text-anchor="middle" x="230.5" y="-7.5" font-family="Helvetica,sans-Serif" font-size="10.00" fill="#000000">_coord</text>
</a>
</g>
</g>
<!-- Node29&#45;&gt;Node34 -->
<g id="edge5" class="edge">
<title>Node29&#45;&gt;Node34</title>
<path fill="none" stroke="#191970" d="M105.4018,-63.4099C128.3098,-54.6367 157.3701,-43.5072 181.7148,-34.1837"/>
<polygon fill="#191970" stroke="#191970" points="183.0481,-37.421 191.1349,-30.576 180.5446,-30.884 183.0481,-37.421"/>
</g>
<!-- Node33 -->
<g id="node5" class="node">
<title>Node33</title>
<g id="a_node5"><a xlink:href="namespacetethex.html#a31a6ad16911dd58abefe17ab46534aa4" target="_top" xlink:title="tethex::d2s">
<polygon fill="#ffffff" stroke="#000000" points="329,-28 329,-47 394,-47 394,-28 329,-28"/>
<text text-anchor="middle" x="361.5" y="-35" font-family="Helvetica,sans-Serif" font-size="10.00" fill="#000000">tethex::d2s</text>
</a>
</g>
</g>
<!-- Node32&#45;&gt;Node33 -->
<g id="edge4" class="edge">
<title>Node32&#45;&gt;Node33</title>
<path fill="none" stroke="#191970" d="M287.1966,-49.9784C297.7688,-48.2029 308.6527,-46.3751 318.7194,-44.6845"/>
<polygon fill="#191970" stroke="#191970" points="319.5845,-48.0883 328.8667,-42.9804 318.4251,-41.185 319.5845,-48.0883"/>
</g>
<!-- Node34&#45;&gt;Node33 -->
<g id="edge6" class="edge">
<title>Node34&#45;&gt;Node33</title>
<path fill="none" stroke="#191970" d="M276.6857,-23.2564C290.4216,-25.5632 305.4021,-28.079 318.8987,-30.3456"/>
<polygon fill="#191970" stroke="#191970" points="318.4436,-33.8181 328.8852,-32.0227 319.603,-26.9148 318.4436,-33.8181"/>
</g>
</g>
</svg>
