<?xml version="1.0" encoding="UTF-8" standalone="no"?>
<!DOCTYPE svg PUBLIC "-//W3C//DTD SVG 1.1//EN"
 "http://www.w3.org/Graphics/SVG/1.1/DTD/svg11.dtd">
<!-- Generated by graphviz version 2.40.1 (20161225.0304)
 -->
<!-- Title: tethex::Mesh::set_triangles Pages: 1 -->
<svg width="688pt" height="53pt"
 viewBox="0.00 0.00 688.00 52.50" xmlns="http://www.w3.org/2000/svg" xmlns:xlink="http://www.w3.org/1999/xlink">
<g id="graph0" class="graph" transform="scale(1 1) rotate(0) translate(4 48.5)">
<title>tethex::Mesh::set_triangles</title>
<polygon fill="#ffffff" stroke="transparent" points="-4,4 -4,-48.5 684,-48.5 684,4 -4,4"/>
<!-- Node209 -->
<g id="node1" class="node">
<title>Node209</title>
<polygon fill="#bfbfbf" stroke="#000000" points="0,-19.5 0,-38.5 135,-38.5 135,-19.5 0,-19.5"/>
<text text-anchor="middle" x="67.5" y="-26.5" font-family="Helvetica,sans-Serif" font-size="10.00" fill="#000000">tethex::Mesh::set_triangles</text>
</g>
<!-- Node210 -->
<g id="node2" class="node">
<title>Node210</title>
<g id="a_node2"><a xlink:href="classRiver_1_1Triangle.html#ace837080fe12b6a062b3256288885d74" target="_top" xlink:title="River::Triangle::io\l_to_tethex">
<polygon fill="#ffffff" stroke="#000000" points="171,-14 171,-44 265,-44 265,-14 171,-14"/>
<text text-anchor="start" x="179" y="-32" font-family="Helvetica,sans-Serif" font-size="10.00" fill="#000000">River::Triangle::io</text>
<text text-anchor="middle" x="218" y="-21" font-family="Helvetica,sans-Serif" font-size="10.00" fill="#000000">_to_tethex</text>
</a>
</g>
</g>
<!-- Node209&#45;&gt;Node210 -->
<g id="edge1" class="edge">
<title>Node209&#45;&gt;Node210</title>
<path fill="none" stroke="#191970" d="M145.4366,-29C154.1059,-29 162.7275,-29 170.8405,-29"/>
<polygon fill="#191970" stroke="#191970" points="145.2654,-25.5001 135.2654,-29 145.2654,-32.5001 145.2654,-25.5001"/>
</g>
<!-- Node211 -->
<g id="node3" class="node">
<title>Node211</title>
<g id="a_node3"><a xlink:href="classRiver_1_1Triangle.html#a0dae20b40d446e6009a88543e2c14daf" target="_top" xlink:title="River::Triangle::generate">
<polygon fill="#ffffff" stroke="#000000" points="301,-19.5 301,-38.5 425,-38.5 425,-19.5 301,-19.5"/>
<text text-anchor="middle" x="363" y="-26.5" font-family="Helvetica,sans-Serif" font-size="10.00" fill="#000000">River::Triangle::generate</text>
</a>
</g>
</g>
<!-- Node210&#45;&gt;Node211 -->
<g id="edge2" class="edge">
<title>Node210&#45;&gt;Node211</title>
<path fill="none" stroke="#191970" d="M275.1821,-29C283.6105,-29 292.3283,-29 300.8513,-29"/>
<polygon fill="#191970" stroke="#191970" points="275.0774,-25.5001 265.0773,-29 275.0773,-32.5001 275.0774,-25.5001"/>
</g>
<!-- Node212 -->
<g id="node4" class="node">
<title>Node212</title>
<g id="a_node4"><a xlink:href="main_8cpp.html#a0ddf1224851353fc92bfbff6f499fa97" target="_top" xlink:title="Entry point of RiverSim program. ">
<polygon fill="#ffffff" stroke="#000000" points="642,-19.5 642,-38.5 680,-38.5 680,-19.5 642,-19.5"/>
<text text-anchor="middle" x="661" y="-26.5" font-family="Helvetica,sans-Serif" font-size="10.00" fill="#000000">main</text>
</a>
</g>
</g>
<!-- Node211&#45;&gt;Node212 -->
<g id="edge3" class="edge">
<title>Node211&#45;&gt;Node212</title>
<path fill="none" stroke="#191970" d="M435.3582,-29C503.5013,-29 601.0323,-29 641.8698,-29"/>
<polygon fill="#191970" stroke="#191970" points="435.1079,-25.5001 425.1078,-29 435.1078,-32.5001 435.1079,-25.5001"/>
</g>
<!-- Node213 -->
<g id="node5" class="node">
<title>Node213</title>
<g id="a_node5"><a xlink:href="namespaceRiver.html#a494b68e2992de95500d6d81770de62ed" target="_top" xlink:title="River::ForwardRiverEvolution">
<polygon fill="#ffffff" stroke="#000000" points="461,-.5 461,-19.5 606,-19.5 606,-.5 461,-.5"/>
<text text-anchor="middle" x="533.5" y="-7.5" font-family="Helvetica,sans-Serif" font-size="10.00" fill="#000000">River::ForwardRiverEvolution</text>
</a>
</g>
</g>
<!-- Node211&#45;&gt;Node213 -->
<g id="edge4" class="edge">
<title>Node211&#45;&gt;Node213</title>
<path fill="none" stroke="#191970" d="M435.2431,-20.9494C443.7006,-20.007 452.333,-19.045 460.7967,-18.1018"/>
<polygon fill="#191970" stroke="#191970" points="434.5875,-17.5007 425.0367,-22.0868 435.3629,-24.4577 434.5875,-17.5007"/>
</g>
<!-- Node213&#45;&gt;Node212 -->
<g id="edge5" class="edge">
<title>Node213&#45;&gt;Node212</title>
<path fill="none" stroke="#191970" d="M607.7834,-21.0697C620.3501,-22.9424 632.3551,-24.7313 641.7718,-26.1346"/>
<polygon fill="#191970" stroke="#191970" points="608.0302,-17.5679 597.6235,-19.5557 606.9984,-24.4914 608.0302,-17.5679"/>
</g>
</g>
</svg>
