<?xml version="1.0" encoding="UTF-8" standalone="no"?>
<!DOCTYPE svg PUBLIC "-//W3C//DTD SVG 1.1//EN"
 "http://www.w3.org/Graphics/SVG/1.1/DTD/svg11.dtd">
<!-- Generated by graphviz version 2.40.1 (20161225.0304)
 -->
<!-- Title: tethex::Mesh::get_vertex Pages: 1 -->
<svg width="752pt" height="268pt"
 viewBox="0.00 0.00 752.00 268.00" xmlns="http://www.w3.org/2000/svg" xmlns:xlink="http://www.w3.org/1999/xlink">
<g id="graph0" class="graph" transform="scale(1 1) rotate(0) translate(4 264)">
<title>tethex::Mesh::get_vertex</title>
<polygon fill="#ffffff" stroke="transparent" points="-4,4 -4,-264 748,-264 748,4 -4,4"/>
<!-- Node105 -->
<g id="node1" class="node">
<title>Node105</title>
<polygon fill="#bfbfbf" stroke="#000000" points="0,-126.5 0,-145.5 125,-145.5 125,-126.5 0,-126.5"/>
<text text-anchor="middle" x="62.5" y="-133.5" font-family="Helvetica,sans-Serif" font-size="10.00" fill="#000000">tethex::Mesh::get_vertex</text>
</g>
<!-- Node106 -->
<g id="node2" class="node">
<title>Node106</title>
<g id="a_node2"><a xlink:href="classRiver_1_1Solver.html#a3d51dbec8b2d1d790c5f4e0385b408d7" target="_top" xlink:title="River::Solver::SetMesh">
<polygon fill="#ffffff" stroke="#000000" points="162,-240.5 162,-259.5 281,-259.5 281,-240.5 162,-240.5"/>
<text text-anchor="middle" x="221.5" y="-247.5" font-family="Helvetica,sans-Serif" font-size="10.00" fill="#000000">River::Solver::SetMesh</text>
</a>
</g>
</g>
<!-- Node105&#45;&gt;Node106 -->
<g id="edge1" class="edge">
<title>Node105&#45;&gt;Node106</title>
<path fill="none" stroke="#191970" d="M76.1938,-153.4612C93.7076,-174.6789 125.9879,-210.2119 161,-231 167.4372,-234.822 174.7232,-237.9541 181.9531,-240.4932"/>
<polygon fill="#191970" stroke="#191970" points="78.8347,-151.1606 69.8272,-145.5824 73.3901,-155.5602 78.8347,-151.1606"/>
</g>
<!-- Node107 -->
<g id="node3" class="node">
<title>Node107</title>
<g id="a_node3"><a xlink:href="classtethex_1_1Mesh.html#af7abffd9bc4bd64eb2f4cdd4aaf7fbe3" target="_top" xlink:title="tethex::Mesh::Mesh">
<polygon fill="#ffffff" stroke="#000000" points="169.5,-202.5 169.5,-221.5 273.5,-221.5 273.5,-202.5 169.5,-202.5"/>
<text text-anchor="middle" x="221.5" y="-209.5" font-family="Helvetica,sans-Serif" font-size="10.00" fill="#000000">tethex::Mesh::Mesh</text>
</a>
</g>
</g>
<!-- Node105&#45;&gt;Node107 -->
<g id="edge2" class="edge">
<title>Node105&#45;&gt;Node107</title>
<path fill="none" stroke="#191970" d="M85.1428,-151.034C104.6359,-163.4984 133.8345,-181.0492 161,-193 169.0618,-196.5466 177.9931,-199.732 186.4633,-202.4357"/>
<polygon fill="#191970" stroke="#191970" points="86.954,-148.037 76.6583,-145.5371 83.1479,-153.9119 86.954,-148.037"/>
</g>
<!-- Node108 -->
<g id="node4" class="node">
<title>Node108</title>
<g id="a_node4"><a xlink:href="classtethex_1_1Mesh.html#af992d5d2e64047656766e4afcbc95b8b" target="_top" xlink:title="tethex::Mesh::operator=">
<polygon fill="#ffffff" stroke="#000000" points="161,-164.5 161,-183.5 282,-183.5 282,-164.5 161,-164.5"/>
<text text-anchor="middle" x="221.5" y="-171.5" font-family="Helvetica,sans-Serif" font-size="10.00" fill="#000000">tethex::Mesh::operator=</text>
</a>
</g>
</g>
<!-- Node105&#45;&gt;Node108 -->
<g id="edge3" class="edge">
<title>Node105&#45;&gt;Node108</title>
<path fill="none" stroke="#191970" d="M112.5766,-147.968C134.858,-153.2931 160.7294,-159.4762 181.6661,-164.4799"/>
<polygon fill="#191970" stroke="#191970" points="113.1621,-144.5094 102.6224,-145.589 111.5349,-151.3177 113.1621,-144.5094"/>
</g>
<!-- Node109 -->
<g id="node5" class="node">
<title>Node109</title>
<g id="a_node5"><a xlink:href="classtethex_1_1Mesh.html#a3b6a5b6110e347f12f084408a9919720" target="_top" xlink:title="Convert quadrangles into quadrangles. ">
<polygon fill="#ffffff" stroke="#000000" points="475,-116 475,-146 587,-146 587,-116 475,-116"/>
<text text-anchor="start" x="483" y="-134" font-family="Helvetica,sans-Serif" font-size="10.00" fill="#000000">tethex::Mesh::convert</text>
<text text-anchor="middle" x="531" y="-123" font-family="Helvetica,sans-Serif" font-size="10.00" fill="#000000">_quadrangles</text>
</a>
</g>
</g>
<!-- Node105&#45;&gt;Node109 -->
<g id="edge4" class="edge">
<title>Node105&#45;&gt;Node109</title>
<path fill="none" stroke="#191970" d="M135.4555,-135.2214C229.2456,-134.2204 390.0889,-132.5039 474.8902,-131.5988"/>
<polygon fill="#191970" stroke="#191970" points="135.1599,-131.7243 125.1979,-135.3309 135.2347,-138.7239 135.1599,-131.7243"/>
</g>
<!-- Node111 -->
<g id="node7" class="node">
<title>Node111</title>
<g id="a_node7"><a xlink:href="classtethex_1_1Mesh.html#a451d2cd1bc4968e4a6342369736a2796" target="_top" xlink:title="Print some statistics (detailed information). ">
<polygon fill="#ffffff" stroke="#000000" points="162,-88.5 162,-107.5 281,-107.5 281,-88.5 162,-88.5"/>
<text text-anchor="middle" x="221.5" y="-95.5" font-family="Helvetica,sans-Serif" font-size="10.00" fill="#000000">tethex::Mesh::statistics</text>
</a>
</g>
</g>
<!-- Node105&#45;&gt;Node111 -->
<g id="edge6" class="edge">
<title>Node105&#45;&gt;Node111</title>
<path fill="none" stroke="#191970" d="M112.5766,-124.032C134.858,-118.7069 160.7294,-112.5238 181.6661,-107.5201"/>
<polygon fill="#191970" stroke="#191970" points="111.5349,-120.6823 102.6224,-126.411 113.1621,-127.4906 111.5349,-120.6823"/>
</g>
<!-- Node112 -->
<g id="node8" class="node">
<title>Node112</title>
<g id="a_node8"><a xlink:href="classtethex_1_1Mesh.html#abc261df76b5f1090b366386fdcb495cb" target="_top" xlink:title="Find the global number of face basing on numbers of 2 edges defining that face. ">
<polygon fill="#ffffff" stroke="#000000" points="162.5,-39 162.5,-69 280.5,-69 280.5,-39 162.5,-39"/>
<text text-anchor="start" x="170.5" y="-57" font-family="Helvetica,sans-Serif" font-size="10.00" fill="#000000">tethex::Mesh::find</text>
<text text-anchor="middle" x="221.5" y="-46" font-family="Helvetica,sans-Serif" font-size="10.00" fill="#000000">_face_from_two_edges</text>
</a>
</g>
</g>
<!-- Node105&#45;&gt;Node112 -->
<g id="edge7" class="edge">
<title>Node105&#45;&gt;Node112</title>
<path fill="none" stroke="#191970" d="M86.106,-121.1501C105.7627,-109.0765 134.6895,-91.9774 161,-79 167.9309,-75.5814 175.4484,-72.215 182.7519,-69.1143"/>
<polygon fill="#191970" stroke="#191970" points="84.171,-118.2316 77.5116,-126.472 87.8562,-124.183 84.171,-118.2316"/>
</g>
<!-- Node115 -->
<g id="node11" class="node">
<title>Node115</title>
<g id="a_node11"><a xlink:href="namespacetethex.html#afd9ddbb6ed7cbe8a0e8505e7960b0e0a" target="_top" xlink:title="Since all mesh elements are derived from one base MeshElement class, we can use one procedure to trea...">
<polygon fill="#ffffff" stroke="#000000" points="163.5,-.5 163.5,-19.5 279.5,-19.5 279.5,-.5 163.5,-.5"/>
<text text-anchor="middle" x="221.5" y="-7.5" font-family="Helvetica,sans-Serif" font-size="10.00" fill="#000000">tethex::write_elements</text>
</a>
</g>
</g>
<!-- Node105&#45;&gt;Node115 -->
<g id="edge11" class="edge">
<title>Node105&#45;&gt;Node115</title>
<path fill="none" stroke="#191970" d="M74.4443,-118.0298C91.1117,-94.3054 123.5484,-52.7691 161,-29 167.0419,-25.1654 173.916,-22.0532 180.8102,-19.5437"/>
<polygon fill="#191970" stroke="#191970" points="71.4368,-116.2267 68.6656,-126.4527 77.209,-120.1869 71.4368,-116.2267"/>
</g>
<!-- Node110 -->
<g id="node6" class="node">
<title>Node110</title>
<g id="a_node6"><a xlink:href="classtethex_1_1Mesh.html#aaa882d21498571cbd84d4f7129fd6e32" target="_top" xlink:title="Conversion from simplices to bricks. ">
<polygon fill="#ffffff" stroke="#000000" points="632,-90.5 632,-109.5 744,-109.5 744,-90.5 632,-90.5"/>
<text text-anchor="middle" x="688" y="-97.5" font-family="Helvetica,sans-Serif" font-size="10.00" fill="#000000">tethex::Mesh::convert</text>
</a>
</g>
</g>
<!-- Node109&#45;&gt;Node110 -->
<g id="edge5" class="edge">
<title>Node109&#45;&gt;Node110</title>
<path fill="none" stroke="#191970" d="M597.4401,-117.8813C611.6202,-115.0814 626.3381,-112.1753 639.6832,-109.5403"/>
<polygon fill="#191970" stroke="#191970" points="596.3697,-114.5249 587.2372,-119.8958 597.7258,-121.3924 596.3697,-114.5249"/>
</g>
<!-- Node113 -->
<g id="node9" class="node">
<title>Node113</title>
<g id="a_node9"><a xlink:href="classtethex_1_1Mesh.html#ab739c5e4bbb1c3461a068c2104eab52e" target="_top" xlink:title="Conversion from triangles to quadrangles. ">
<polygon fill="#ffffff" stroke="#000000" points="318,-44 318,-74 430,-74 430,-44 318,-44"/>
<text text-anchor="start" x="326" y="-62" font-family="Helvetica,sans-Serif" font-size="10.00" fill="#000000">tethex::Mesh::convert</text>
<text text-anchor="middle" x="374" y="-51" font-family="Helvetica,sans-Serif" font-size="10.00" fill="#000000">_triangles</text>
</a>
</g>
</g>
<!-- Node112&#45;&gt;Node113 -->
<g id="edge8" class="edge">
<title>Node112&#45;&gt;Node113</title>
<path fill="none" stroke="#191970" d="M291.1699,-56.2843C299.9915,-56.5735 308.9314,-56.8666 317.5126,-57.148"/>
<polygon fill="#191970" stroke="#191970" points="291.0065,-52.7771 280.8972,-55.9474 290.7771,-59.7734 291.0065,-52.7771"/>
</g>
<!-- Node114 -->
<g id="node10" class="node">
<title>Node114</title>
<g id="a_node10"><a xlink:href="classtethex_1_1Mesh.html#adb803e48ce7101318531730a512ecbc8" target="_top" xlink:title="Conversion of 2D meshes (triangles &#45;&gt; quadrangles) ">
<polygon fill="#ffffff" stroke="#000000" points="466,-68.5 466,-87.5 596,-87.5 596,-68.5 466,-68.5"/>
<text text-anchor="middle" x="531" y="-75.5" font-family="Helvetica,sans-Serif" font-size="10.00" fill="#000000">tethex::Mesh::convert_2D</text>
</a>
</g>
</g>
<!-- Node113&#45;&gt;Node114 -->
<g id="edge9" class="edge">
<title>Node113&#45;&gt;Node114</title>
<path fill="none" stroke="#191970" d="M440.3808,-67.0333C448.7962,-68.0518 457.402,-69.0932 465.7987,-70.1094"/>
<polygon fill="#191970" stroke="#191970" points="440.5852,-63.5326 430.2372,-65.8058 439.7442,-70.4819 440.5852,-63.5326"/>
</g>
<!-- Node114&#45;&gt;Node110 -->
<g id="edge10" class="edge">
<title>Node114&#45;&gt;Node110</title>
<path fill="none" stroke="#191970" d="M606.2433,-88.5436C614.8245,-89.7461 623.4576,-90.9558 631.7317,-92.1153"/>
<polygon fill="#191970" stroke="#191970" points="606.6072,-85.0605 596.2182,-87.1389 605.6357,-91.9928 606.6072,-85.0605"/>
</g>
<!-- Node116 -->
<g id="node12" class="node">
<title>Node116</title>
<g id="a_node12"><a xlink:href="classtethex_1_1Mesh.html#a209c3153eb17d86e8fe320369b2dfe09" target="_top" xlink:title="Write the resulting brick mesh into the file. ">
<polygon fill="#ffffff" stroke="#000000" points="323.5,-.5 323.5,-19.5 424.5,-19.5 424.5,-.5 323.5,-.5"/>
<text text-anchor="middle" x="374" y="-7.5" font-family="Helvetica,sans-Serif" font-size="10.00" fill="#000000">tethex::Mesh::write</text>
</a>
</g>
</g>
<!-- Node115&#45;&gt;Node116 -->
<g id="edge12" class="edge">
<title>Node115&#45;&gt;Node116</title>
<path fill="none" stroke="#191970" d="M289.7713,-10C300.9604,-10 312.3812,-10 323.0557,-10"/>
<polygon fill="#191970" stroke="#191970" points="289.5888,-6.5001 279.5887,-10 289.5887,-13.5001 289.5888,-6.5001"/>
</g>
</g>
</svg>
