<?xml version="1.0" encoding="UTF-8" standalone="no"?>
<!DOCTYPE svg PUBLIC "-//W3C//DTD SVG 1.1//EN"
 "http://www.w3.org/Graphics/SVG/1.1/DTD/svg11.dtd">
<!-- Generated by graphviz version 2.40.1 (20161225.0304)
 -->
<!-- Title: nlohmann::basic_json::push_back Pages: 1 -->
<svg width="340pt" height="127pt"
 viewBox="0.00 0.00 340.00 126.50" xmlns="http://www.w3.org/2000/svg" xmlns:xlink="http://www.w3.org/1999/xlink">
<g id="graph0" class="graph" transform="scale(1 1) rotate(0) translate(4 122.5)">
<title>nlohmann::basic_json::push_back</title>
<polygon fill="#ffffff" stroke="transparent" points="-4,4 -4,-122.5 336,-122.5 336,4 -4,4"/>
<!-- Node331 -->
<g id="node1" class="node">
<title>Node331</title>
<polygon fill="#bfbfbf" stroke="#000000" points="0,-49.5 0,-79.5 111,-79.5 111,-49.5 0,-49.5"/>
<text text-anchor="start" x="8" y="-67.5" font-family="Helvetica,sans-Serif" font-size="10.00" fill="#000000">nlohmann::basic_json</text>
<text text-anchor="middle" x="55.5" y="-56.5" font-family="Helvetica,sans-Serif" font-size="10.00" fill="#000000">::push_back</text>
</g>
<!-- Node332 -->
<g id="node2" class="node">
<title>Node332</title>
<g id="a_node2"><a xlink:href="namespaceRiver.html#a656cc47cfdf989114a9fcad489904f75" target="_top" xlink:title="River::Save">
<polygon fill="#ffffff" stroke="#000000" points="168.5,-99 168.5,-118 236.5,-118 236.5,-99 168.5,-99"/>
<text text-anchor="middle" x="202.5" y="-106" font-family="Helvetica,sans-Serif" font-size="10.00" fill="#000000">River::Save</text>
</a>
</g>
</g>
<!-- Node331&#45;&gt;Node332 -->
<g id="edge1" class="edge">
<title>Node331&#45;&gt;Node332</title>
<path fill="none" stroke="#191970" d="M115.4018,-82.4298C134.265,-88.0759 154.3664,-94.0927 170.4998,-98.9217"/>
<polygon fill="#191970" stroke="#191970" points="116.2616,-79.0338 105.6779,-79.5192 114.2543,-85.7398 116.2616,-79.0338"/>
</g>
<!-- Node334 -->
<g id="node4" class="node">
<title>Node334</title>
<g id="a_node4"><a xlink:href="classnlohmann_1_1basic__json.html#a81e0c41a4a9dff4df2f6973f7f8b2a83" target="_top" xlink:title="applies a JSON patch ">
<polygon fill="#ffffff" stroke="#000000" points="147,-49.5 147,-79.5 258,-79.5 258,-49.5 147,-49.5"/>
<text text-anchor="start" x="155" y="-67.5" font-family="Helvetica,sans-Serif" font-size="10.00" fill="#000000">nlohmann::basic_json</text>
<text text-anchor="middle" x="202.5" y="-56.5" font-family="Helvetica,sans-Serif" font-size="10.00" fill="#000000">::patch</text>
</a>
</g>
</g>
<!-- Node331&#45;&gt;Node334 -->
<g id="edge3" class="edge">
<title>Node331&#45;&gt;Node334</title>
<path fill="none" stroke="#191970" d="M121.0775,-64.5C129.6805,-64.5 138.4299,-64.5 146.847,-64.5"/>
<polygon fill="#191970" stroke="#191970" points="121.0744,-61.0001 111.0744,-64.5 121.0744,-68.0001 121.0744,-61.0001"/>
</g>
<!-- Node335 -->
<g id="node5" class="node">
<title>Node335</title>
<g id="a_node5"><a xlink:href="classnlohmann_1_1basic__json.html#a4336103c941d9f60bd51320f4880e3dd" target="_top" xlink:title="creates a diff as a JSON patch ">
<polygon fill="#ffffff" stroke="#000000" points="147,-.5 147,-30.5 258,-30.5 258,-.5 147,-.5"/>
<text text-anchor="start" x="155" y="-18.5" font-family="Helvetica,sans-Serif" font-size="10.00" fill="#000000">nlohmann::basic_json</text>
<text text-anchor="middle" x="202.5" y="-7.5" font-family="Helvetica,sans-Serif" font-size="10.00" fill="#000000">::diff</text>
</a>
</g>
</g>
<!-- Node331&#45;&gt;Node335 -->
<g id="edge4" class="edge">
<title>Node331&#45;&gt;Node335</title>
<path fill="none" stroke="#191970" d="M110.7164,-46.0945C126.0967,-40.9678 142.6175,-35.4608 157.3453,-30.5516"/>
<polygon fill="#191970" stroke="#191970" points="109.1843,-42.9158 100.8043,-49.3986 111.398,-49.5566 109.1843,-42.9158"/>
</g>
<!-- Node333 -->
<g id="node3" class="node">
<title>Node333</title>
<g id="a_node3"><a xlink:href="main_8cpp.html#a0ddf1224851353fc92bfbff6f499fa97" target="_top" xlink:title="Entry point of RiverSim program. ">
<polygon fill="#ffffff" stroke="#000000" points="294,-99 294,-118 332,-118 332,-99 294,-99"/>
<text text-anchor="middle" x="313" y="-106" font-family="Helvetica,sans-Serif" font-size="10.00" fill="#000000">main</text>
</a>
</g>
</g>
<!-- Node332&#45;&gt;Node333 -->
<g id="edge2" class="edge">
<title>Node332&#45;&gt;Node333</title>
<path fill="none" stroke="#191970" d="M246.9841,-108.5C263.2316,-108.5 280.7715,-108.5 293.6852,-108.5"/>
<polygon fill="#191970" stroke="#191970" points="246.5553,-105.0001 236.5553,-108.5 246.5553,-112.0001 246.5553,-105.0001"/>
</g>
</g>
</svg>
