<?xml version="1.0" encoding="UTF-8" standalone="no"?>
<!DOCTYPE svg PUBLIC "-//W3C//DTD SVG 1.1//EN"
 "http://www.w3.org/Graphics/SVG/1.1/DTD/svg11.dtd">
<!-- Generated by graphviz version 2.40.1 (20161225.0304)
 -->
<!-- Title: River::GeomPoint::angle Pages: 1 -->
<svg width="305pt" height="66pt"
 viewBox="0.00 0.00 305.00 66.00" xmlns="http://www.w3.org/2000/svg" xmlns:xlink="http://www.w3.org/1999/xlink">
<g id="graph0" class="graph" transform="scale(1 1) rotate(0) translate(4 62)">
<title>River::GeomPoint::angle</title>
<polygon fill="#ffffff" stroke="transparent" points="-4,4 -4,-62 301,-62 301,4 -4,4"/>
<!-- Node38 -->
<g id="node1" class="node">
<title>Node38</title>
<polygon fill="#bfbfbf" stroke="#000000" points="0,-19.5 0,-38.5 124,-38.5 124,-19.5 0,-19.5"/>
<text text-anchor="middle" x="62" y="-26.5" font-family="Helvetica,sans-Serif" font-size="10.00" fill="#000000">River::GeomPoint::angle</text>
</g>
<!-- Node39 -->
<g id="node2" class="node">
<title>Node39</title>
<g id="a_node2"><a xlink:href="classRiver_1_1GeomPoint.html#ad859db1c8c4a3ba2d4ad9e6b9f774e92" target="_top" xlink:title="River::GeomPoint::getPolar">
<polygon fill="#ffffff" stroke="#000000" points="160,-38.5 160,-57.5 297,-57.5 297,-38.5 160,-38.5"/>
<text text-anchor="middle" x="228.5" y="-45.5" font-family="Helvetica,sans-Serif" font-size="10.00" fill="#000000">River::GeomPoint::getPolar</text>
</a>
</g>
</g>
<!-- Node38&#45;&gt;Node39 -->
<g id="edge1" class="edge">
<title>Node38&#45;&gt;Node39</title>
<path fill="none" stroke="#191970" d="M134.5939,-37.284C142.9705,-38.2399 151.4934,-39.2125 159.8159,-40.1622"/>
<polygon fill="#191970" stroke="#191970" points="134.8045,-33.7854 124.4722,-36.129 134.0108,-40.7403 134.8045,-33.7854"/>
</g>
<!-- Node40 -->
<g id="node3" class="node">
<title>Node40</title>
<g id="a_node3"><a xlink:href="classRiver_1_1Branch.html#ad1c529a3eae4a3a33cdc6de391218e0a" target="_top" xlink:title="River::Branch::addDPoint">
<polygon fill="#ffffff" stroke="#000000" points="164.5,-.5 164.5,-19.5 292.5,-19.5 292.5,-.5 164.5,-.5"/>
<text text-anchor="middle" x="228.5" y="-7.5" font-family="Helvetica,sans-Serif" font-size="10.00" fill="#000000">River::Branch::addDPoint</text>
</a>
</g>
</g>
<!-- Node38&#45;&gt;Node40 -->
<g id="edge2" class="edge">
<title>Node38&#45;&gt;Node40</title>
<path fill="none" stroke="#191970" d="M134.6557,-20.709C144.5207,-19.5832 154.5874,-18.4345 164.2896,-17.3273"/>
<polygon fill="#191970" stroke="#191970" points="134.0108,-17.2597 124.4722,-21.871 134.8045,-24.2146 134.0108,-17.2597"/>
</g>
</g>
</svg>
