<?xml version="1.0" encoding="UTF-8" standalone="no"?>
<!DOCTYPE svg PUBLIC "-//W3C//DTD SVG 1.1//EN"
 "http://www.w3.org/Graphics/SVG/1.1/DTD/svg11.dtd">
<!-- Generated by graphviz version 2.40.1 (20161225.0304)
 -->
<!-- Title: River::Solver Pages: 1 -->
<svg width="980pt" height="358pt"
 viewBox="0.00 0.00 980.00 358.00" xmlns="http://www.w3.org/2000/svg" xmlns:xlink="http://www.w3.org/1999/xlink">
<g id="graph0" class="graph" transform="scale(1 1) rotate(0) translate(4 354)">
<title>River::Solver</title>
<polygon fill="#ffffff" stroke="transparent" points="-4,4 -4,-354 976,-354 976,4 -4,4"/>
<!-- Node1 -->
<g id="node1" class="node">
<title>Node1</title>
<polygon fill="#bfbfbf" stroke="#000000" points="457,-.5 457,-222.5 600,-222.5 600,-.5 457,-.5"/>
<text text-anchor="middle" x="528.5" y="-210.5" font-family="Helvetica,sans-Serif" font-size="10.00" fill="#000000">River::Solver</text>
<polyline fill="none" stroke="#000000" points="457,-203.5 600,-203.5 "/>
<text text-anchor="middle" x="528.5" y="-191.5" font-family="Helvetica,sans-Serif" font-size="10.00" fill="#000000"> </text>
<polyline fill="none" stroke="#000000" points="457,-184.5 600,-184.5 "/>
<text text-anchor="start" x="465" y="-172.5" font-family="Helvetica,sans-Serif" font-size="10.00" fill="#000000">+ Solver()</text>
<text text-anchor="start" x="465" y="-161.5" font-family="Helvetica,sans-Serif" font-size="10.00" fill="#000000">+ ~Solver()</text>
<text text-anchor="start" x="465" y="-150.5" font-family="Helvetica,sans-Serif" font-size="10.00" fill="#000000">+ SetBoundaryRegionValue()</text>
<text text-anchor="start" x="465" y="-139.5" font-family="Helvetica,sans-Serif" font-size="10.00" fill="#000000">+ SetMesh()</text>
<text text-anchor="start" x="465" y="-128.5" font-family="Helvetica,sans-Serif" font-size="10.00" fill="#000000">+ OpenMesh()</text>
<text text-anchor="start" x="465" y="-117.5" font-family="Helvetica,sans-Serif" font-size="10.00" fill="#000000">+ run()</text>
<text text-anchor="start" x="465" y="-106.5" font-family="Helvetica,sans-Serif" font-size="10.00" fill="#000000">+ integrate()</text>
<text text-anchor="start" x="465" y="-95.5" font-family="Helvetica,sans-Serif" font-size="10.00" fill="#000000">+ integration_test()</text>
<text text-anchor="start" x="465" y="-84.5" font-family="Helvetica,sans-Serif" font-size="10.00" fill="#000000">+ max_value()</text>
<text text-anchor="start" x="465" y="-73.5" font-family="Helvetica,sans-Serif" font-size="10.00" fill="#000000">+ clear()</text>
<text text-anchor="start" x="465" y="-62.5" font-family="Helvetica,sans-Serif" font-size="10.00" fill="#000000">&#45; setup_system()</text>
<text text-anchor="start" x="465" y="-51.5" font-family="Helvetica,sans-Serif" font-size="10.00" fill="#000000">&#45; assemble_system()</text>
<text text-anchor="start" x="465" y="-40.5" font-family="Helvetica,sans-Serif" font-size="10.00" fill="#000000">&#45; solve()</text>
<text text-anchor="start" x="465" y="-29.5" font-family="Helvetica,sans-Serif" font-size="10.00" fill="#000000">&#45; refine_grid()</text>
<text text-anchor="start" x="465" y="-18.5" font-family="Helvetica,sans-Serif" font-size="10.00" fill="#000000">&#45; output_results()</text>
<text text-anchor="start" x="465" y="-7.5" font-family="Helvetica,sans-Serif" font-size="10.00" fill="#000000">&#45; TryInsertCellBoundary()</text>
</g>
<!-- Node2 -->
<g id="node2" class="node">
<title>Node2</title>
<polygon fill="#ffffff" stroke="#bfbfbf" points="0,-281.5 0,-349.5 125,-349.5 125,-281.5 0,-281.5"/>
<text text-anchor="start" x="8" y="-337.5" font-family="Helvetica,sans-Serif" font-size="10.00" fill="#000000">map&lt; double, std::vector</text>
<text text-anchor="middle" x="62.5" y="-326.5" font-family="Helvetica,sans-Serif" font-size="10.00" fill="#000000">&lt; int &gt; &gt;</text>
<polyline fill="none" stroke="#bfbfbf" points="0,-319.5 125,-319.5 "/>
<text text-anchor="middle" x="62.5" y="-307.5" font-family="Helvetica,sans-Serif" font-size="10.00" fill="#000000"> </text>
<polyline fill="none" stroke="#bfbfbf" points="0,-300.5 125,-300.5 "/>
<text text-anchor="middle" x="62.5" y="-288.5" font-family="Helvetica,sans-Serif" font-size="10.00" fill="#000000"> </text>
</g>
<!-- Node2&#45;&gt;Node1 -->
<g id="edge1" class="edge">
<title>Node2&#45;&gt;Node1</title>
<path fill="none" stroke="#404040" d="M100.2152,-281.2386C116.8869,-267.373 137.2716,-252.0623 157.5,-241 250.727,-190.017 367.8454,-153.1348 445.2736,-132.0674"/>
<polygon fill="none" stroke="#404040" points="445.2869,-132.0639 450.0426,-126.6432 456.8754,-128.9482 452.1198,-134.3688 445.2869,-132.0639"/>
<text text-anchor="middle" x="208.5" y="-249.5" font-family="Helvetica,sans-Serif" font-size="10.00" fill="#000000"> &#45;boundaryRegionValue</text>
</g>
<!-- Node3 -->
<g id="node3" class="node">
<title>Node3</title>
<polygon fill="#ffffff" stroke="#bfbfbf" points="143.5,-287 143.5,-344 249.5,-344 249.5,-287 143.5,-287"/>
<text text-anchor="middle" x="196.5" y="-332" font-family="Helvetica,sans-Serif" font-size="10.00" fill="#000000">Triangulation&lt; dim &gt;</text>
<polyline fill="none" stroke="#bfbfbf" points="143.5,-325 249.5,-325 "/>
<text text-anchor="middle" x="196.5" y="-313" font-family="Helvetica,sans-Serif" font-size="10.00" fill="#000000"> </text>
<polyline fill="none" stroke="#bfbfbf" points="143.5,-306 249.5,-306 "/>
<text text-anchor="middle" x="196.5" y="-294" font-family="Helvetica,sans-Serif" font-size="10.00" fill="#000000"> </text>
</g>
<!-- Node3&#45;&gt;Node1 -->
<g id="edge2" class="edge">
<title>Node3&#45;&gt;Node1</title>
<path fill="none" stroke="#404040" d="M231.4426,-286.9797C249.7586,-272.5388 272.8369,-255.1229 294.5,-241 343.292,-209.191 400.4529,-177.461 446.0655,-153.3704"/>
<polygon fill="none" stroke="#404040" points="446.1802,-153.3101 449.6306,-146.9781 456.8027,-147.7276 453.3523,-154.0597 446.1802,-153.3101"/>
<text text-anchor="middle" x="324" y="-249.5" font-family="Helvetica,sans-Serif" font-size="10.00" fill="#000000"> &#45;triangulation</text>
</g>
<!-- Node4 -->
<g id="node4" class="node">
<title>Node4</title>
<polygon fill="#ffffff" stroke="#bfbfbf" points="268,-287 268,-344 357,-344 357,-287 268,-287"/>
<text text-anchor="middle" x="312.5" y="-332" font-family="Helvetica,sans-Serif" font-size="10.00" fill="#000000">ConstraintMatrix</text>
<polyline fill="none" stroke="#bfbfbf" points="268,-325 357,-325 "/>
<text text-anchor="middle" x="312.5" y="-313" font-family="Helvetica,sans-Serif" font-size="10.00" fill="#000000"> </text>
<polyline fill="none" stroke="#bfbfbf" points="268,-306 357,-306 "/>
<text text-anchor="middle" x="312.5" y="-294" font-family="Helvetica,sans-Serif" font-size="10.00" fill="#000000"> </text>
</g>
<!-- Node4&#45;&gt;Node1 -->
<g id="edge3" class="edge">
<title>Node4&#45;&gt;Node1</title>
<path fill="none" stroke="#404040" d="M336.8453,-286.7967C349.224,-272.6311 364.7392,-255.5127 379.5,-241 400.8722,-219.987 425.0302,-198.2184 447.5767,-178.6625"/>
<polygon fill="none" stroke="#404040" points="447.7059,-178.551 449.6366,-171.6032 456.7926,-170.7131 454.8619,-177.661 447.7059,-178.551"/>
<text text-anchor="middle" x="407" y="-249.5" font-family="Helvetica,sans-Serif" font-size="10.00" fill="#000000"> &#45;constraints</text>
</g>
<!-- Node5 -->
<g id="node5" class="node">
<title>Node5</title>
<polygon fill="#ffffff" stroke="#bfbfbf" points="374.5,-287 374.5,-344 458.5,-344 458.5,-287 374.5,-287"/>
<text text-anchor="middle" x="416.5" y="-332" font-family="Helvetica,sans-Serif" font-size="10.00" fill="#000000">SparsityPattern</text>
<polyline fill="none" stroke="#bfbfbf" points="374.5,-325 458.5,-325 "/>
<text text-anchor="middle" x="416.5" y="-313" font-family="Helvetica,sans-Serif" font-size="10.00" fill="#000000"> </text>
<polyline fill="none" stroke="#bfbfbf" points="374.5,-306 458.5,-306 "/>
<text text-anchor="middle" x="416.5" y="-294" font-family="Helvetica,sans-Serif" font-size="10.00" fill="#000000"> </text>
</g>
<!-- Node5&#45;&gt;Node1 -->
<g id="edge4" class="edge">
<title>Node5&#45;&gt;Node1</title>
<path fill="none" stroke="#404040" d="M427.6903,-286.7408C433.4389,-272.7168 440.8364,-255.737 448.5,-241 449.8374,-238.4283 451.207,-235.8392 452.6037,-233.2389"/>
<polygon fill="none" stroke="#404040" points="452.7198,-233.0269 452.0939,-225.843 458.4845,-222.5022 459.1103,-229.6861 452.7198,-233.0269"/>
<text text-anchor="middle" x="486.5" y="-249.5" font-family="Helvetica,sans-Serif" font-size="10.00" fill="#000000"> &#45;sparsity_pattern</text>
</g>
<!-- Node6 -->
<g id="node6" class="node">
<title>Node6</title>
<polygon fill="#ffffff" stroke="#bfbfbf" points="477,-287 477,-344 580,-344 580,-287 477,-287"/>
<text text-anchor="middle" x="528.5" y="-332" font-family="Helvetica,sans-Serif" font-size="10.00" fill="#000000">DoFHandler&lt; dim &gt;</text>
<polyline fill="none" stroke="#bfbfbf" points="477,-325 580,-325 "/>
<text text-anchor="middle" x="528.5" y="-313" font-family="Helvetica,sans-Serif" font-size="10.00" fill="#000000"> </text>
<polyline fill="none" stroke="#bfbfbf" points="477,-306 580,-306 "/>
<text text-anchor="middle" x="528.5" y="-294" font-family="Helvetica,sans-Serif" font-size="10.00" fill="#000000"> </text>
</g>
<!-- Node6&#45;&gt;Node1 -->
<g id="edge5" class="edge">
<title>Node6&#45;&gt;Node1</title>
<path fill="none" stroke="#404040" d="M528.5,-286.7045C528.5,-272.4249 528.5,-254.0997 528.5,-234.7043"/>
<polygon fill="none" stroke="#404040" points="528.5001,-234.5162 524.5,-228.5163 528.5,-222.5162 532.5,-228.5162 528.5001,-234.5162"/>
<text text-anchor="middle" x="557" y="-249.5" font-family="Helvetica,sans-Serif" font-size="10.00" fill="#000000"> &#45;dof_handler</text>
</g>
<!-- Node7 -->
<g id="node7" class="node">
<title>Node7</title>
<polygon fill="#ffffff" stroke="#bfbfbf" points="598.5,-287 598.5,-344 674.5,-344 674.5,-287 598.5,-287"/>
<text text-anchor="middle" x="636.5" y="-332" font-family="Helvetica,sans-Serif" font-size="10.00" fill="#000000">FE_Q&lt; dim &gt;</text>
<polyline fill="none" stroke="#bfbfbf" points="598.5,-325 674.5,-325 "/>
<text text-anchor="middle" x="636.5" y="-313" font-family="Helvetica,sans-Serif" font-size="10.00" fill="#000000"> </text>
<polyline fill="none" stroke="#bfbfbf" points="598.5,-306 674.5,-306 "/>
<text text-anchor="middle" x="636.5" y="-294" font-family="Helvetica,sans-Serif" font-size="10.00" fill="#000000"> </text>
</g>
<!-- Node7&#45;&gt;Node1 -->
<g id="edge6" class="edge">
<title>Node7&#45;&gt;Node1</title>
<path fill="none" stroke="#404040" d="M621.2553,-286.7045C613.5172,-272.0881 603.5351,-253.233 592.9984,-233.3302"/>
<polygon fill="none" stroke="#404040" points="592.888,-233.1217 586.5455,-229.6905 587.2733,-222.5162 593.6158,-225.9474 592.888,-233.1217"/>
<text text-anchor="middle" x="615" y="-249.5" font-family="Helvetica,sans-Serif" font-size="10.00" fill="#000000"> &#45;fe</text>
</g>
<!-- Node8 -->
<g id="node8" class="node">
<title>Node8</title>
<polygon fill="#ffffff" stroke="#bfbfbf" points="693,-287 693,-344 722,-344 722,-287 693,-287"/>
<text text-anchor="middle" x="707.5" y="-332" font-family="Helvetica,sans-Serif" font-size="10.00" fill="#000000">int</text>
<polyline fill="none" stroke="#bfbfbf" points="693,-325 722,-325 "/>
<text text-anchor="middle" x="707.5" y="-313" font-family="Helvetica,sans-Serif" font-size="10.00" fill="#000000"> </text>
<polyline fill="none" stroke="#bfbfbf" points="693,-306 722,-306 "/>
<text text-anchor="middle" x="707.5" y="-294" font-family="Helvetica,sans-Serif" font-size="10.00" fill="#000000"> </text>
</g>
<!-- Node8&#45;&gt;Node1 -->
<g id="edge7" class="edge">
<title>Node8&#45;&gt;Node1</title>
<path fill="none" stroke="#404040" d="M692.9519,-293.6463C689.928,-289.3771 686.6887,-284.9897 683.5,-281 660.2381,-251.8947 633.3081,-221.4553 608.4867,-194.5329"/>
<polygon fill="none" stroke="#404040" points="608.3142,-194.3468 601.3021,-192.6644 600.1581,-185.5446 607.1702,-187.227 608.3142,-194.3468"/>
<text text-anchor="middle" x="712" y="-255" font-family="Helvetica,sans-Serif" font-size="10.00" fill="#000000"> +numOfRefinments</text>
<text text-anchor="middle" x="712" y="-244" font-family="Helvetica,sans-Serif" font-size="10.00" fill="#000000">&#45;dim</text>
</g>
<!-- Node9 -->
<g id="node9" class="node">
<title>Node9</title>
<polygon fill="#ffffff" stroke="#bfbfbf" points="740.5,-287 740.5,-344 832.5,-344 832.5,-287 740.5,-287"/>
<text text-anchor="middle" x="786.5" y="-332" font-family="Helvetica,sans-Serif" font-size="10.00" fill="#000000">Vector&lt; double &gt;</text>
<polyline fill="none" stroke="#bfbfbf" points="740.5,-325 832.5,-325 "/>
<text text-anchor="middle" x="786.5" y="-313" font-family="Helvetica,sans-Serif" font-size="10.00" fill="#000000"> </text>
<polyline fill="none" stroke="#bfbfbf" points="740.5,-306 832.5,-306 "/>
<text text-anchor="middle" x="786.5" y="-294" font-family="Helvetica,sans-Serif" font-size="10.00" fill="#000000"> </text>
</g>
<!-- Node9&#45;&gt;Node1 -->
<g id="edge8" class="edge">
<title>Node9&#45;&gt;Node1</title>
<path fill="none" stroke="#404040" d="M781.6061,-286.8782C777.8683,-271.8917 771.4267,-254.0061 760.5,-241 721.3424,-194.3907 660.9031,-161.4218 611.5301,-140.4163"/>
<polygon fill="none" stroke="#404040" points="611.2949,-140.3189 604.2206,-141.717 600.2091,-135.7246 607.2834,-134.3265 611.2949,-140.3189"/>
<text text-anchor="middle" x="801" y="-255" font-family="Helvetica,sans-Serif" font-size="10.00" fill="#000000"> &#45;solution</text>
<text text-anchor="middle" x="801" y="-244" font-family="Helvetica,sans-Serif" font-size="10.00" fill="#000000">&#45;system_rhs</text>
</g>
<!-- Node10 -->
<g id="node10" class="node">
<title>Node10</title>
<polygon fill="#ffffff" stroke="#bfbfbf" points="851,-287 851,-344 972,-344 972,-287 851,-287"/>
<text text-anchor="middle" x="911.5" y="-332" font-family="Helvetica,sans-Serif" font-size="10.00" fill="#000000">SparseMatrix&lt; double &gt;</text>
<polyline fill="none" stroke="#bfbfbf" points="851,-325 972,-325 "/>
<text text-anchor="middle" x="911.5" y="-313" font-family="Helvetica,sans-Serif" font-size="10.00" fill="#000000"> </text>
<polyline fill="none" stroke="#bfbfbf" points="851,-306 972,-306 "/>
<text text-anchor="middle" x="911.5" y="-294" font-family="Helvetica,sans-Serif" font-size="10.00" fill="#000000"> </text>
</g>
<!-- Node10&#45;&gt;Node1 -->
<g id="edge9" class="edge">
<title>Node10&#45;&gt;Node1</title>
<path fill="none" stroke="#404040" d="M885.7512,-286.7131C871.2075,-271.6782 852.0613,-253.7991 832.5,-241 763.1311,-195.6113 675.2119,-160.2013 611.788,-137.9668"/>
<polygon fill="none" stroke="#404040" points="611.5801,-137.8949 604.6016,-139.7119 600.2404,-133.9691 607.2189,-132.1521 611.5801,-137.8949"/>
<text text-anchor="middle" x="896" y="-249.5" font-family="Helvetica,sans-Serif" font-size="10.00" fill="#000000"> &#45;system_matrix</text>
</g>
</g>
</svg>
