<?xml version="1.0" encoding="UTF-8" standalone="no"?>
<!DOCTYPE svg PUBLIC "-//W3C//DTD SVG 1.1//EN"
 "http://www.w3.org/Graphics/SVG/1.1/DTD/svg11.dtd">
<!-- Generated by graphviz version 2.40.1 (20161225.0304)
 -->
<!-- Title: River::Border::MakeRectangular Pages: 1 -->
<svg width="337pt" height="104pt"
 viewBox="0.00 0.00 337.00 104.00" xmlns="http://www.w3.org/2000/svg" xmlns:xlink="http://www.w3.org/1999/xlink">
<g id="graph0" class="graph" transform="scale(1 1) rotate(0) translate(4 100)">
<title>River::Border::MakeRectangular</title>
<polygon fill="#ffffff" stroke="transparent" points="-4,4 -4,-100 333,-100 333,4 -4,4"/>
<!-- Node2 -->
<g id="node1" class="node">
<title>Node2</title>
<polygon fill="#bfbfbf" stroke="#000000" points="0,-38.5 0,-57.5 157,-57.5 157,-38.5 0,-38.5"/>
<text text-anchor="middle" x="78.5" y="-45.5" font-family="Helvetica,sans-Serif" font-size="10.00" fill="#000000">River::Border::MakeRectangular</text>
</g>
<!-- Node3 -->
<g id="node2" class="node">
<title>Node3</title>
<g id="a_node2"><a xlink:href="classtethex_1_1Mesh.html#a58afefb6ba6371c3ba47ba6e8305ab05" target="_top" xlink:title="Set the copy of vertex. ">
<polygon fill="#ffffff" stroke="#000000" points="193,-76.5 193,-95.5 329,-95.5 329,-76.5 193,-76.5"/>
<text text-anchor="middle" x="261" y="-83.5" font-family="Helvetica,sans-Serif" font-size="10.00" fill="#000000">tethex::Mesh::set_vertexes</text>
</a>
</g>
</g>
<!-- Node2&#45;&gt;Node3 -->
<g id="edge1" class="edge">
<title>Node2&#45;&gt;Node3</title>
<path fill="none" stroke="#191970" d="M124.5525,-57.589C149.0692,-62.6939 179.4096,-69.0113 205.2502,-74.3918"/>
<polygon fill="#191970" stroke="#191970" points="204.7752,-77.8679 215.2787,-76.4799 206.2022,-71.0149 204.7752,-77.8679"/>
</g>
<!-- Node4 -->
<g id="node3" class="node">
<title>Node4</title>
<g id="a_node3"><a xlink:href="classtethex_1_1Mesh.html#a34d1d49f40a18e445d3e1afb7b6fafd0" target="_top" xlink:title="Set the physical points. ">
<polygon fill="#ffffff" stroke="#000000" points="198.5,-38.5 198.5,-57.5 323.5,-57.5 323.5,-38.5 198.5,-38.5"/>
<text text-anchor="middle" x="261" y="-45.5" font-family="Helvetica,sans-Serif" font-size="10.00" fill="#000000">tethex::Mesh::set_points</text>
</a>
</g>
</g>
<!-- Node2&#45;&gt;Node4 -->
<g id="edge2" class="edge">
<title>Node2&#45;&gt;Node4</title>
<path fill="none" stroke="#191970" d="M157.2206,-48C167.5672,-48 178.1328,-48 188.3718,-48"/>
<polygon fill="#191970" stroke="#191970" points="188.4816,-51.5001 198.4816,-48 188.4815,-44.5001 188.4816,-51.5001"/>
</g>
<!-- Node5 -->
<g id="node4" class="node">
<title>Node5</title>
<g id="a_node4"><a xlink:href="classtethex_1_1Mesh.html#a893878b71e351600cbdee7db451bca9d" target="_top" xlink:title="Set the physical lines. ">
<polygon fill="#ffffff" stroke="#000000" points="201.5,-.5 201.5,-19.5 320.5,-19.5 320.5,-.5 201.5,-.5"/>
<text text-anchor="middle" x="261" y="-7.5" font-family="Helvetica,sans-Serif" font-size="10.00" fill="#000000">tethex::Mesh::set_lines</text>
</a>
</g>
</g>
<!-- Node2&#45;&gt;Node5 -->
<g id="edge3" class="edge">
<title>Node2&#45;&gt;Node5</title>
<path fill="none" stroke="#191970" d="M124.5525,-38.411C149.0692,-33.3061 179.4096,-26.9887 205.2502,-21.6082"/>
<polygon fill="#191970" stroke="#191970" points="206.2022,-24.9851 215.2787,-19.5201 204.7752,-18.1321 206.2022,-24.9851"/>
</g>
</g>
</svg>
