<?xml version="1.0" encoding="UTF-8" standalone="no"?>
<!DOCTYPE svg PUBLIC "-//W3C//DTD SVG 1.1//EN"
 "http://www.w3.org/Graphics/SVG/1.1/DTD/svg11.dtd">
<!-- Generated by graphviz version 2.40.1 (20161225.0304)
 -->
<!-- Title: common.hpp Pages: 1 -->
<svg width="417pt" height="252pt"
 viewBox="0.00 0.00 416.50 252.00" xmlns="http://www.w3.org/2000/svg" xmlns:xlink="http://www.w3.org/1999/xlink">
<g id="graph0" class="graph" transform="scale(1 1) rotate(0) translate(4 248)">
<title>common.hpp</title>
<polygon fill="#ffffff" stroke="transparent" points="-4,4 -4,-248 412.5,-248 412.5,4 -4,4"/>
<!-- Node1 -->
<g id="node1" class="node">
<title>Node1</title>
<polygon fill="#bfbfbf" stroke="#000000" points="101,-224.5 101,-243.5 181,-243.5 181,-224.5 101,-224.5"/>
<text text-anchor="middle" x="141" y="-231.5" font-family="Helvetica,sans-Serif" font-size="10.00" fill="#000000">common.hpp</text>
</g>
<!-- Node2 -->
<g id="node2" class="node">
<title>Node2</title>
<g id="a_node2"><a xlink:href="border_8hpp.html" target="_top" xlink:title="Generate initial predefinide border geometry and its source positions. ">
<polygon fill="#ffffff" stroke="#000000" points="0,-168.5 0,-187.5 68,-187.5 68,-168.5 0,-168.5"/>
<text text-anchor="middle" x="34" y="-175.5" font-family="Helvetica,sans-Serif" font-size="10.00" fill="#000000">border.hpp</text>
</a>
</g>
</g>
<!-- Node1&#45;&gt;Node2 -->
<g id="edge1" class="edge">
<title>Node1&#45;&gt;Node2</title>
<path fill="none" stroke="#191970" d="M113.4801,-219.5971C94.2983,-209.558 69.2322,-196.4393 52.4244,-187.6427"/>
<polygon fill="#191970" stroke="#191970" points="111.8791,-222.7095 122.362,-224.2455 115.125,-216.5075 111.8791,-222.7095"/>
</g>
<!-- Node5 -->
<g id="node5" class="node">
<title>Node5</title>
<g id="a_node5"><a xlink:href="tree_8hpp.html" target="_top" xlink:title="Holds all functionality that you need to work with tree(network) of river, its separate branches and ...">
<polygon fill="#ffffff" stroke="#000000" points="58.5,-112.5 58.5,-131.5 115.5,-131.5 115.5,-112.5 58.5,-112.5"/>
<text text-anchor="middle" x="87" y="-119.5" font-family="Helvetica,sans-Serif" font-size="10.00" fill="#000000">tree.hpp</text>
</a>
</g>
</g>
<!-- Node1&#45;&gt;Node5 -->
<g id="edge18" class="edge">
<title>Node1&#45;&gt;Node5</title>
<path fill="none" stroke="#191970" d="M131.9597,-215.2498C120.3135,-191.0946 100.5097,-150.0202 91.5924,-131.5249"/>
<polygon fill="#191970" stroke="#191970" points="128.9002,-216.9633 136.396,-224.4509 135.2056,-213.9232 128.9002,-216.9633"/>
</g>
<!-- Node6 -->
<g id="node6" class="node">
<title>Node6</title>
<g id="a_node6"><a xlink:href="physmodel_8hpp.html" target="_top" xlink:title="Contains all RiverSim program parameters. ">
<polygon fill="#ffffff" stroke="#000000" points="136,-168.5 136,-187.5 228,-187.5 228,-168.5 136,-168.5"/>
<text text-anchor="middle" x="182" y="-175.5" font-family="Helvetica,sans-Serif" font-size="10.00" fill="#000000">physmodel.hpp</text>
</a>
</g>
</g>
<!-- Node1&#45;&gt;Node6 -->
<g id="edge8" class="edge">
<title>Node1&#45;&gt;Node6</title>
<path fill="none" stroke="#191970" d="M154.2364,-215.9209C161.1211,-206.5176 169.2609,-195.3997 174.9402,-187.6427"/>
<polygon fill="#191970" stroke="#191970" points="151.2251,-214.1093 148.1417,-224.2455 156.8731,-218.2445 151.2251,-214.1093"/>
</g>
<!-- Node9 -->
<g id="node9" class="node">
<title>Node9</title>
<g id="a_node9"><a xlink:href="solver_8hpp.html" target="_top" xlink:title="PDE Solver and Integration tool. ">
<polygon fill="#ffffff" stroke="#000000" points="341.5,-112.5 341.5,-131.5 408.5,-131.5 408.5,-112.5 341.5,-112.5"/>
<text text-anchor="middle" x="375" y="-119.5" font-family="Helvetica,sans-Serif" font-size="10.00" fill="#000000">solver.hpp</text>
</a>
</g>
</g>
<!-- Node1&#45;&gt;Node9 -->
<g id="edge19" class="edge">
<title>Node1&#45;&gt;Node9</title>
<path fill="none" stroke="#191970" d="M170.2333,-220.008C218.5393,-196.8872 313.7839,-151.3 355.0998,-131.5249"/>
<polygon fill="#191970" stroke="#191970" points="168.4597,-216.9766 160.9507,-224.4509 171.4818,-223.2906 168.4597,-216.9766"/>
</g>
<!-- Node3 -->
<g id="node3" class="node">
<title>Node3</title>
<g id="a_node3"><a xlink:href="io_8hpp.html" target="_top" xlink:title="Contains functionality to read and write state of program(simulation data) and program options...">
<polygon fill="#ffffff" stroke="#000000" points="106.5,-56.5 106.5,-75.5 153.5,-75.5 153.5,-56.5 106.5,-56.5"/>
<text text-anchor="middle" x="130" y="-63.5" font-family="Helvetica,sans-Serif" font-size="10.00" fill="#000000">io.hpp</text>
</a>
</g>
</g>
<!-- Node2&#45;&gt;Node3 -->
<g id="edge2" class="edge">
<title>Node2&#45;&gt;Node3</title>
<path fill="none" stroke="#191970" d="M34.3544,-158.3704C35.5217,-144.2446 39.0479,-125.3975 49,-112 63.1759,-92.9163 87.7796,-80.5816 106.1612,-73.5375"/>
<polygon fill="#191970" stroke="#191970" points="30.8521,-158.3295 33.8463,-168.4924 37.8433,-158.6805 30.8521,-158.3295"/>
</g>
<!-- Node4 -->
<g id="node4" class="node">
<title>Node4</title>
<g id="a_node4"><a xlink:href="riversim_8hpp.html" target="_top" xlink:title="Some general routines like backward, forward simulation etc. ">
<polygon fill="#ffffff" stroke="#000000" points="117,-.5 117,-19.5 195,-19.5 195,-.5 117,-.5"/>
<text text-anchor="middle" x="156" y="-7.5" font-family="Helvetica,sans-Serif" font-size="10.00" fill="#000000">riversim.hpp</text>
</a>
</g>
</g>
<!-- Node2&#45;&gt;Node4 -->
<g id="edge7" class="edge">
<title>Node2&#45;&gt;Node4</title>
<path fill="none" stroke="#191970" d="M31.1347,-158.078C30.0161,-144.594 30.1596,-126.6405 36,-112 54.236,-66.2866 106.1538,-34.4304 135.3728,-19.5448"/>
<polygon fill="#191970" stroke="#191970" points="27.6755,-158.6376 32.2737,-168.1826 34.6314,-157.8534 27.6755,-158.6376"/>
</g>
<!-- Node2&#45;&gt;Node5 -->
<g id="edge4" class="edge">
<title>Node2&#45;&gt;Node5</title>
<path fill="none" stroke="#191970" d="M50.2896,-160.7884C59.3562,-151.2085 70.3054,-139.6396 77.8739,-131.6427"/>
<polygon fill="#191970" stroke="#191970" points="47.5637,-158.5767 43.2319,-168.2455 52.6478,-163.3884 47.5637,-158.5767"/>
</g>
<!-- Node3&#45;&gt;Node4 -->
<g id="edge3" class="edge">
<title>Node3&#45;&gt;Node4</title>
<path fill="none" stroke="#191970" d="M138.8011,-47.0437C143.0775,-37.8331 148.033,-27.1598 151.523,-19.6427"/>
<polygon fill="#191970" stroke="#191970" points="135.5655,-45.7015 134.5289,-56.2455 141.9146,-48.6494 135.5655,-45.7015"/>
</g>
<!-- Node5&#45;&gt;Node3 -->
<g id="edge5" class="edge">
<title>Node5&#45;&gt;Node3</title>
<path fill="none" stroke="#191970" d="M100.6592,-104.2112C107.9263,-94.7472 116.5781,-83.4797 122.5958,-75.6427"/>
<polygon fill="#191970" stroke="#191970" points="97.8043,-102.1824 94.49,-112.2455 103.3564,-106.4456 97.8043,-102.1824"/>
</g>
<!-- Node5&#45;&gt;Node4 -->
<g id="edge6" class="edge">
<title>Node5&#45;&gt;Node4</title>
<path fill="none" stroke="#191970" d="M86.2581,-101.9742C86.6128,-88.1825 88.8601,-69.9094 97,-56 106.3811,-39.9698 123.6913,-27.4951 137.1452,-19.6056"/>
<polygon fill="#191970" stroke="#191970" points="82.76,-102.3313 86.3176,-112.3109 89.7599,-102.2909 82.76,-102.3313"/>
</g>
<!-- Node6&#45;&gt;Node3 -->
<g id="edge9" class="edge">
<title>Node6&#45;&gt;Node3</title>
<path fill="none" stroke="#191970" d="M173.2945,-159.2498C162.0797,-135.0946 143.0094,-94.0202 134.4223,-75.5249"/>
<polygon fill="#191970" stroke="#191970" points="170.1808,-160.8548 177.5665,-168.4509 176.5299,-157.9069 170.1808,-160.8548"/>
</g>
<!-- Node6&#45;&gt;Node4 -->
<g id="edge17" class="edge">
<title>Node6&#45;&gt;Node4</title>
<path fill="none" stroke="#191970" d="M178.945,-158.2601C173.3592,-122.1669 161.6899,-46.7656 157.521,-19.8279"/>
<polygon fill="#191970" stroke="#191970" points="175.5393,-159.1392 180.5276,-168.4862 182.457,-158.0686 175.5393,-159.1392"/>
</g>
<!-- Node6&#45;&gt;Node5 -->
<g id="edge10" class="edge">
<title>Node6&#45;&gt;Node5</title>
<path fill="none" stroke="#191970" d="M156.6324,-163.0465C139.729,-153.0824 118.0096,-140.2794 103.3581,-131.6427"/>
<polygon fill="#191970" stroke="#191970" points="155.0602,-166.1825 165.4523,-168.2455 158.6149,-160.1522 155.0602,-166.1825"/>
</g>
<!-- Node7 -->
<g id="node7" class="node">
<title>Node7</title>
<g id="a_node7"><a xlink:href="triangle_8hpp.html" target="_top" xlink:title="Piece of Art Mesh Generation Tool, Winner of the 2003 James Hardy Wilkinson Prize in Numerical Softwa...">
<polygon fill="#ffffff" stroke="#000000" points="248.5,-112.5 248.5,-131.5 323.5,-131.5 323.5,-112.5 248.5,-112.5"/>
<text text-anchor="middle" x="286" y="-119.5" font-family="Helvetica,sans-Serif" font-size="10.00" fill="#000000">triangle.hpp</text>
</a>
</g>
</g>
<!-- Node6&#45;&gt;Node7 -->
<g id="edge11" class="edge">
<title>Node6&#45;&gt;Node7</title>
<path fill="none" stroke="#191970" d="M209.0029,-163.46C227.6136,-153.4388 251.8299,-140.3993 268.0922,-131.6427"/>
<polygon fill="#191970" stroke="#191970" points="207.2608,-160.4228 200.1154,-168.2455 210.5795,-166.5861 207.2608,-160.4228"/>
</g>
<!-- Node8 -->
<g id="node8" class="node">
<title>Node8</title>
<g id="a_node8"><a xlink:href="mesh_8hpp.html" target="_top" xlink:title="Mesh generation functionality. ">
<polygon fill="#ffffff" stroke="#000000" points="210.5,-56.5 210.5,-75.5 275.5,-75.5 275.5,-56.5 210.5,-56.5"/>
<text text-anchor="middle" x="243" y="-63.5" font-family="Helvetica,sans-Serif" font-size="10.00" fill="#000000">mesh.hpp</text>
</a>
</g>
</g>
<!-- Node6&#45;&gt;Node8 -->
<g id="edge14" class="edge">
<title>Node6&#45;&gt;Node8</title>
<path fill="none" stroke="#191970" d="M192.0365,-159.5723C205.1681,-135.4618 227.694,-94.1028 237.8123,-75.5249"/>
<polygon fill="#191970" stroke="#191970" points="188.9102,-157.9949 187.2008,-168.4509 195.0576,-161.3431 188.9102,-157.9949"/>
</g>
<!-- Node6&#45;&gt;Node9 -->
<g id="edge15" class="edge">
<title>Node6&#45;&gt;Node9</title>
<path fill="none" stroke="#191970" d="M225.2317,-165.4561C260.6596,-155.1765 310.037,-140.8494 342.2551,-131.5011"/>
<polygon fill="#191970" stroke="#191970" points="223.8064,-162.2252 215.1779,-168.3733 225.7571,-168.9479 223.8064,-162.2252"/>
</g>
<!-- Node7&#45;&gt;Node8 -->
<g id="edge12" class="edge">
<title>Node7&#45;&gt;Node8</title>
<path fill="none" stroke="#191970" d="M272.3408,-104.2112C265.0737,-94.7472 256.4219,-83.4797 250.4042,-75.6427"/>
<polygon fill="#191970" stroke="#191970" points="269.6436,-106.4456 278.51,-112.2455 275.1957,-102.1824 269.6436,-106.4456"/>
</g>
<!-- Node8&#45;&gt;Node4 -->
<g id="edge13" class="edge">
<title>Node8&#45;&gt;Node4</title>
<path fill="none" stroke="#191970" d="M219.3375,-50.769C203.9209,-40.8456 184.274,-28.1994 170.9806,-19.6427"/>
<polygon fill="#191970" stroke="#191970" points="217.5427,-53.7761 227.8458,-56.2455 221.3315,-47.89 217.5427,-53.7761"/>
</g>
<!-- Node9&#45;&gt;Node4 -->
<g id="edge16" class="edge">
<title>Node9&#45;&gt;Node4</title>
<path fill="none" stroke="#191970" d="M356.3109,-105.7694C338.8185,-91.213 311.4789,-70.0434 285,-56 254.8569,-40.0132 217.9736,-27.4953 191.3778,-19.5806"/>
<polygon fill="#191970" stroke="#191970" points="354.1646,-108.5382 364.0601,-112.3238 358.6852,-103.1936 354.1646,-108.5382"/>
</g>
</g>
</svg>
