<?xml version="1.0" encoding="UTF-8" standalone="no"?>
<!DOCTYPE svg PUBLIC "-//W3C//DTD SVG 1.1//EN"
 "http://www.w3.org/Graphics/SVG/1.1/DTD/svg11.dtd">
<!-- Generated by graphviz version 2.40.1 (20161225.0304)
 -->
<!-- Title: /home/oleg/Dev/riversim/source/river/common.hpp Pages: 1 -->
<svg width="138pt" height="95pt"
 viewBox="0.00 0.00 138.00 95.00" xmlns="http://www.w3.org/2000/svg" xmlns:xlink="http://www.w3.org/1999/xlink">
<g id="graph0" class="graph" transform="scale(1 1) rotate(0) translate(4 91)">
<title>/home/oleg/Dev/riversim/source/river/common.hpp</title>
<polygon fill="#ffffff" stroke="transparent" points="-4,4 -4,-91 134,-91 134,4 -4,4"/>
<!-- Node0 -->
<g id="node1" class="node">
<title>Node0</title>
<polygon fill="#bfbfbf" stroke="#000000" points="0,-56.5 0,-86.5 130,-86.5 130,-56.5 0,-56.5"/>
<text text-anchor="start" x="8" y="-74.5" font-family="Helvetica,sans-Serif" font-size="10.00" fill="#000000">/home/oleg/Dev/riversim</text>
<text text-anchor="middle" x="65" y="-63.5" font-family="Helvetica,sans-Serif" font-size="10.00" fill="#000000">/source/river/common.hpp</text>
</g>
<!-- Node1 -->
<g id="node2" class="node">
<title>Node1</title>
<polygon fill="#ffffff" stroke="#bfbfbf" points="10,-.5 10,-19.5 54,-19.5 54,-.5 10,-.5"/>
<text text-anchor="middle" x="32" y="-7.5" font-family="Helvetica,sans-Serif" font-size="10.00" fill="#000000">vector</text>
</g>
<!-- Node0&#45;&gt;Node1 -->
<g id="edge1" class="edge">
<title>Node0&#45;&gt;Node1</title>
<path fill="none" stroke="#191970" d="M56.8427,-56.2977C52.4051,-48.0277 46.875,-37.7215 42.1596,-28.9339"/>
<polygon fill="#191970" stroke="#191970" points="45.096,-27.0037 37.2837,-19.8469 38.9279,-30.3134 45.096,-27.0037"/>
</g>
<!-- Node2 -->
<g id="node3" class="node">
<title>Node2</title>
<polygon fill="#ffffff" stroke="#bfbfbf" points="72,-.5 72,-19.5 126,-19.5 126,-.5 72,-.5"/>
<text text-anchor="middle" x="99" y="-7.5" font-family="Helvetica,sans-Serif" font-size="10.00" fill="#000000">iostream</text>
</g>
<!-- Node0&#45;&gt;Node2 -->
<g id="edge2" class="edge">
<title>Node0&#45;&gt;Node2</title>
<path fill="none" stroke="#191970" d="M73.4045,-56.2977C78.0257,-47.9388 83.7969,-37.4997 88.6889,-28.6509"/>
<polygon fill="#191970" stroke="#191970" points="91.7809,-30.292 93.5562,-19.8469 85.6548,-26.9051 91.7809,-30.292"/>
</g>
</g>
</svg>
