<?xml version="1.0" encoding="UTF-8" standalone="no"?>
<!DOCTYPE svg PUBLIC "-//W3C//DTD SVG 1.1//EN"
 "http://www.w3.org/Graphics/SVG/1.1/DTD/svg11.dtd">
<!-- Generated by graphviz version 2.40.1 (20161225.0304)
 -->
<!-- Title: common.hpp Pages: 1 -->
<svg width="417pt" height="308pt"
 viewBox="0.00 0.00 416.50 308.00" xmlns="http://www.w3.org/2000/svg" xmlns:xlink="http://www.w3.org/1999/xlink">
<g id="graph0" class="graph" transform="scale(1 1) rotate(0) translate(4 304)">
<title>common.hpp</title>
<polygon fill="#ffffff" stroke="transparent" points="-4,4 -4,-304 412.5,-304 412.5,4 -4,4"/>
<!-- Node1 -->
<g id="node1" class="node">
<title>Node1</title>
<polygon fill="#bfbfbf" stroke="#000000" points="101,-280.5 101,-299.5 181,-299.5 181,-280.5 101,-280.5"/>
<text text-anchor="middle" x="141" y="-287.5" font-family="Helvetica,sans-Serif" font-size="10.00" fill="#000000">common.hpp</text>
</g>
<!-- Node2 -->
<g id="node2" class="node">
<title>Node2</title>
<g id="a_node2"><a xlink:href="border_8hpp.html" target="_top" xlink:title="Generate initial predefinide border geometry and its source positions. ">
<polygon fill="#ffffff" stroke="#000000" points="0,-224.5 0,-243.5 68,-243.5 68,-224.5 0,-224.5"/>
<text text-anchor="middle" x="34" y="-231.5" font-family="Helvetica,sans-Serif" font-size="10.00" fill="#000000">border.hpp</text>
</a>
</g>
</g>
<!-- Node1&#45;&gt;Node2 -->
<g id="edge1" class="edge">
<title>Node1&#45;&gt;Node2</title>
<path fill="none" stroke="#191970" d="M113.4801,-275.5971C94.2983,-265.558 69.2322,-252.4393 52.4244,-243.6427"/>
<polygon fill="#191970" stroke="#191970" points="111.8791,-278.7095 122.362,-280.2455 115.125,-272.5075 111.8791,-278.7095"/>
</g>
<!-- Node6 -->
<g id="node6" class="node">
<title>Node6</title>
<g id="a_node6"><a xlink:href="tree_8hpp.html" target="_top" xlink:title="Holds all functionality that you need to work with tree(network) of river, its separate branches and ...">
<polygon fill="#ffffff" stroke="#000000" points="58.5,-168.5 58.5,-187.5 115.5,-187.5 115.5,-168.5 58.5,-168.5"/>
<text text-anchor="middle" x="87" y="-175.5" font-family="Helvetica,sans-Serif" font-size="10.00" fill="#000000">tree.hpp</text>
</a>
</g>
</g>
<!-- Node1&#45;&gt;Node6 -->
<g id="edge19" class="edge">
<title>Node1&#45;&gt;Node6</title>
<path fill="none" stroke="#191970" d="M131.9597,-271.2498C120.3135,-247.0946 100.5097,-206.0202 91.5924,-187.5249"/>
<polygon fill="#191970" stroke="#191970" points="128.9002,-272.9633 136.396,-280.4509 135.2056,-269.9232 128.9002,-272.9633"/>
</g>
<!-- Node7 -->
<g id="node7" class="node">
<title>Node7</title>
<g id="a_node7"><a xlink:href="physmodel_8hpp.html" target="_top" xlink:title="Contains all RiverSim program parameters. ">
<polygon fill="#ffffff" stroke="#000000" points="136,-224.5 136,-243.5 228,-243.5 228,-224.5 136,-224.5"/>
<text text-anchor="middle" x="182" y="-231.5" font-family="Helvetica,sans-Serif" font-size="10.00" fill="#000000">physmodel.hpp</text>
</a>
</g>
</g>
<!-- Node1&#45;&gt;Node7 -->
<g id="edge9" class="edge">
<title>Node1&#45;&gt;Node7</title>
<path fill="none" stroke="#191970" d="M154.2364,-271.9209C161.1211,-262.5176 169.2609,-251.3997 174.9402,-243.6427"/>
<polygon fill="#191970" stroke="#191970" points="151.2251,-270.1093 148.1417,-280.2455 156.8731,-274.2445 151.2251,-270.1093"/>
</g>
<!-- Node10 -->
<g id="node10" class="node">
<title>Node10</title>
<g id="a_node10"><a xlink:href="solver_8hpp.html" target="_top" xlink:title="PDE Solver and Integration tool. ">
<polygon fill="#ffffff" stroke="#000000" points="341.5,-168.5 341.5,-187.5 408.5,-187.5 408.5,-168.5 341.5,-168.5"/>
<text text-anchor="middle" x="375" y="-175.5" font-family="Helvetica,sans-Serif" font-size="10.00" fill="#000000">solver.hpp</text>
</a>
</g>
</g>
<!-- Node1&#45;&gt;Node10 -->
<g id="edge20" class="edge">
<title>Node1&#45;&gt;Node10</title>
<path fill="none" stroke="#191970" d="M170.2333,-276.008C218.5393,-252.8872 313.7839,-207.3 355.0998,-187.5249"/>
<polygon fill="#191970" stroke="#191970" points="168.4597,-272.9766 160.9507,-280.4509 171.4818,-279.2906 168.4597,-272.9766"/>
</g>
<!-- Node3 -->
<g id="node3" class="node">
<title>Node3</title>
<g id="a_node3"><a xlink:href="io_8hpp.html" target="_top" xlink:title="Contains functionality to read and write state of program(simulation data) and program options...">
<polygon fill="#ffffff" stroke="#000000" points="106.5,-112.5 106.5,-131.5 153.5,-131.5 153.5,-112.5 106.5,-112.5"/>
<text text-anchor="middle" x="130" y="-119.5" font-family="Helvetica,sans-Serif" font-size="10.00" fill="#000000">io.hpp</text>
</a>
</g>
</g>
<!-- Node2&#45;&gt;Node3 -->
<g id="edge2" class="edge">
<title>Node2&#45;&gt;Node3</title>
<path fill="none" stroke="#191970" d="M34.3544,-214.3704C35.5217,-200.2446 39.0479,-181.3975 49,-168 63.1759,-148.9163 87.7796,-136.5816 106.1612,-129.5375"/>
<polygon fill="#191970" stroke="#191970" points="30.8521,-214.3295 33.8463,-224.4924 37.8433,-214.6805 30.8521,-214.3295"/>
</g>
<!-- Node4 -->
<g id="node4" class="node">
<title>Node4</title>
<g id="a_node4"><a xlink:href="riversim_8hpp.html" target="_top" xlink:title="Some general routines like backward, forward simulation etc. ">
<polygon fill="#ffffff" stroke="#000000" points="117,-56.5 117,-75.5 195,-75.5 195,-56.5 117,-56.5"/>
<text text-anchor="middle" x="156" y="-63.5" font-family="Helvetica,sans-Serif" font-size="10.00" fill="#000000">riversim.hpp</text>
</a>
</g>
</g>
<!-- Node2&#45;&gt;Node4 -->
<g id="edge8" class="edge">
<title>Node2&#45;&gt;Node4</title>
<path fill="none" stroke="#191970" d="M31.1347,-214.078C30.0161,-200.594 30.1596,-182.6405 36,-168 54.236,-122.2866 106.1538,-90.4304 135.3728,-75.5448"/>
<polygon fill="#191970" stroke="#191970" points="27.6755,-214.6376 32.2737,-224.1826 34.6314,-213.8534 27.6755,-214.6376"/>
</g>
<!-- Node2&#45;&gt;Node6 -->
<g id="edge5" class="edge">
<title>Node2&#45;&gt;Node6</title>
<path fill="none" stroke="#191970" d="M50.2896,-216.7884C59.3562,-207.2085 70.3054,-195.6396 77.8739,-187.6427"/>
<polygon fill="#191970" stroke="#191970" points="47.5637,-214.5767 43.2319,-224.2455 52.6478,-219.3884 47.5637,-214.5767"/>
</g>
<!-- Node3&#45;&gt;Node4 -->
<g id="edge3" class="edge">
<title>Node3&#45;&gt;Node4</title>
<path fill="none" stroke="#191970" d="M138.8011,-103.0437C143.0775,-93.8331 148.033,-83.1598 151.523,-75.6427"/>
<polygon fill="#191970" stroke="#191970" points="135.5655,-101.7015 134.5289,-112.2455 141.9146,-104.6494 135.5655,-101.7015"/>
</g>
<!-- Node5 -->
<g id="node5" class="node">
<title>Node5</title>
<g id="a_node5"><a xlink:href="main_8cpp.html" target="_top" xlink:title="Entry point of program and main loop handler. ">
<polygon fill="#ffffff" stroke="#000000" points="125,-.5 125,-19.5 187,-19.5 187,-.5 125,-.5"/>
<text text-anchor="middle" x="156" y="-7.5" font-family="Helvetica,sans-Serif" font-size="10.00" fill="#000000">main.cpp</text>
</a>
</g>
</g>
<!-- Node4&#45;&gt;Node5 -->
<g id="edge4" class="edge">
<title>Node4&#45;&gt;Node5</title>
<path fill="none" stroke="#191970" d="M156,-46.1575C156,-37.155 156,-26.9199 156,-19.6427"/>
<polygon fill="#191970" stroke="#191970" points="152.5001,-46.2455 156,-56.2455 159.5001,-46.2456 152.5001,-46.2455"/>
</g>
<!-- Node6&#45;&gt;Node3 -->
<g id="edge6" class="edge">
<title>Node6&#45;&gt;Node3</title>
<path fill="none" stroke="#191970" d="M100.6592,-160.2112C107.9263,-150.7472 116.5781,-139.4797 122.5958,-131.6427"/>
<polygon fill="#191970" stroke="#191970" points="97.8043,-158.1824 94.49,-168.2455 103.3564,-162.4456 97.8043,-158.1824"/>
</g>
<!-- Node6&#45;&gt;Node4 -->
<g id="edge7" class="edge">
<title>Node6&#45;&gt;Node4</title>
<path fill="none" stroke="#191970" d="M86.2581,-157.9742C86.6128,-144.1825 88.8601,-125.9094 97,-112 106.3811,-95.9698 123.6913,-83.4951 137.1452,-75.6056"/>
<polygon fill="#191970" stroke="#191970" points="82.76,-158.3313 86.3176,-168.3109 89.7599,-158.2909 82.76,-158.3313"/>
</g>
<!-- Node7&#45;&gt;Node3 -->
<g id="edge10" class="edge">
<title>Node7&#45;&gt;Node3</title>
<path fill="none" stroke="#191970" d="M173.2945,-215.2498C162.0797,-191.0946 143.0094,-150.0202 134.4223,-131.5249"/>
<polygon fill="#191970" stroke="#191970" points="170.1808,-216.8548 177.5665,-224.4509 176.5299,-213.9069 170.1808,-216.8548"/>
</g>
<!-- Node7&#45;&gt;Node4 -->
<g id="edge18" class="edge">
<title>Node7&#45;&gt;Node4</title>
<path fill="none" stroke="#191970" d="M178.945,-214.2601C173.3592,-178.1669 161.6899,-102.7656 157.521,-75.8279"/>
<polygon fill="#191970" stroke="#191970" points="175.5393,-215.1392 180.5276,-224.4862 182.457,-214.0686 175.5393,-215.1392"/>
</g>
<!-- Node7&#45;&gt;Node6 -->
<g id="edge11" class="edge">
<title>Node7&#45;&gt;Node6</title>
<path fill="none" stroke="#191970" d="M156.6324,-219.0465C139.729,-209.0824 118.0096,-196.2794 103.3581,-187.6427"/>
<polygon fill="#191970" stroke="#191970" points="155.0602,-222.1825 165.4523,-224.2455 158.6149,-216.1522 155.0602,-222.1825"/>
</g>
<!-- Node8 -->
<g id="node8" class="node">
<title>Node8</title>
<g id="a_node8"><a xlink:href="triangle_8hpp.html" target="_top" xlink:title="Piece of Art Mesh Generation Tool, Winner of the 2003 James Hardy Wilkinson Prize in Numerical Softwa...">
<polygon fill="#ffffff" stroke="#000000" points="248.5,-168.5 248.5,-187.5 323.5,-187.5 323.5,-168.5 248.5,-168.5"/>
<text text-anchor="middle" x="286" y="-175.5" font-family="Helvetica,sans-Serif" font-size="10.00" fill="#000000">triangle.hpp</text>
</a>
</g>
</g>
<!-- Node7&#45;&gt;Node8 -->
<g id="edge12" class="edge">
<title>Node7&#45;&gt;Node8</title>
<path fill="none" stroke="#191970" d="M209.0029,-219.46C227.6136,-209.4388 251.8299,-196.3993 268.0922,-187.6427"/>
<polygon fill="#191970" stroke="#191970" points="207.2608,-216.4228 200.1154,-224.2455 210.5795,-222.5861 207.2608,-216.4228"/>
</g>
<!-- Node9 -->
<g id="node9" class="node">
<title>Node9</title>
<g id="a_node9"><a xlink:href="mesh_8hpp.html" target="_top" xlink:title="Mesh generation functionality. ">
<polygon fill="#ffffff" stroke="#000000" points="210.5,-112.5 210.5,-131.5 275.5,-131.5 275.5,-112.5 210.5,-112.5"/>
<text text-anchor="middle" x="243" y="-119.5" font-family="Helvetica,sans-Serif" font-size="10.00" fill="#000000">mesh.hpp</text>
</a>
</g>
</g>
<!-- Node7&#45;&gt;Node9 -->
<g id="edge15" class="edge">
<title>Node7&#45;&gt;Node9</title>
<path fill="none" stroke="#191970" d="M192.0365,-215.5723C205.1681,-191.4618 227.694,-150.1028 237.8123,-131.5249"/>
<polygon fill="#191970" stroke="#191970" points="188.9102,-213.9949 187.2008,-224.4509 195.0576,-217.3431 188.9102,-213.9949"/>
</g>
<!-- Node7&#45;&gt;Node10 -->
<g id="edge16" class="edge">
<title>Node7&#45;&gt;Node10</title>
<path fill="none" stroke="#191970" d="M225.2317,-221.4561C260.6596,-211.1765 310.037,-196.8494 342.2551,-187.5011"/>
<polygon fill="#191970" stroke="#191970" points="223.8064,-218.2252 215.1779,-224.3733 225.7571,-224.9479 223.8064,-218.2252"/>
</g>
<!-- Node8&#45;&gt;Node9 -->
<g id="edge13" class="edge">
<title>Node8&#45;&gt;Node9</title>
<path fill="none" stroke="#191970" d="M272.3408,-160.2112C265.0737,-150.7472 256.4219,-139.4797 250.4042,-131.6427"/>
<polygon fill="#191970" stroke="#191970" points="269.6436,-162.4456 278.51,-168.2455 275.1957,-158.1824 269.6436,-162.4456"/>
</g>
<!-- Node9&#45;&gt;Node4 -->
<g id="edge14" class="edge">
<title>Node9&#45;&gt;Node4</title>
<path fill="none" stroke="#191970" d="M219.3375,-106.769C203.9209,-96.8456 184.274,-84.1994 170.9806,-75.6427"/>
<polygon fill="#191970" stroke="#191970" points="217.5427,-109.7761 227.8458,-112.2455 221.3315,-103.89 217.5427,-109.7761"/>
</g>
<!-- Node10&#45;&gt;Node4 -->
<g id="edge17" class="edge">
<title>Node10&#45;&gt;Node4</title>
<path fill="none" stroke="#191970" d="M356.3109,-161.7694C338.8185,-147.213 311.4789,-126.0434 285,-112 254.8569,-96.0132 217.9736,-83.4953 191.3778,-75.5806"/>
<polygon fill="#191970" stroke="#191970" points="354.1646,-164.5382 364.0601,-168.3238 358.6852,-159.1936 354.1646,-164.5382"/>
</g>
</g>
</svg>
