<?xml version="1.0" encoding="UTF-8" standalone="no"?>
<!DOCTYPE svg PUBLIC "-//W3C//DTD SVG 1.1//EN"
 "http://www.w3.org/Graphics/SVG/1.1/DTD/svg11.dtd">
<!-- Generated by graphviz version 2.40.1 (20161225.0304)
 -->
<!-- Title: /home/oleg/Dev/riversim/source/river/common.hpp Pages: 1 -->
<svg width="883pt" height="374pt"
 viewBox="0.00 0.00 882.97 374.00" xmlns="http://www.w3.org/2000/svg" xmlns:xlink="http://www.w3.org/1999/xlink">
<g id="graph0" class="graph" transform="scale(1 1) rotate(0) translate(4 370)">
<title>/home/oleg/Dev/riversim/source/river/common.hpp</title>
<polygon fill="#ffffff" stroke="transparent" points="-4,4 -4,-370 878.9687,-370 878.9687,4 -4,4"/>
<!-- Node3 -->
<g id="node1" class="node">
<title>Node3</title>
<polygon fill="#bfbfbf" stroke="#000000" points="386.5,-335.5 386.5,-365.5 516.5,-365.5 516.5,-335.5 386.5,-335.5"/>
<text text-anchor="start" x="394.5" y="-353.5" font-family="Helvetica,sans-Serif" font-size="10.00" fill="#000000">/home/oleg/Dev/riversim</text>
<text text-anchor="middle" x="451.5" y="-342.5" font-family="Helvetica,sans-Serif" font-size="10.00" fill="#000000">/source/river/common.hpp</text>
</g>
<!-- Node4 -->
<g id="node2" class="node">
<title>Node4</title>
<g id="a_node2"><a xlink:href="border_8hpp.html" target="_top" xlink:title="Generate initial predefinide border geometry and its source positions. ">
<polygon fill="#ffffff" stroke="#000000" points="154,-268.5 154,-298.5 277,-298.5 277,-268.5 154,-268.5"/>
<text text-anchor="start" x="162" y="-286.5" font-family="Helvetica,sans-Serif" font-size="10.00" fill="#000000">/home/oleg/Dev/riversim</text>
<text text-anchor="middle" x="215.5" y="-275.5" font-family="Helvetica,sans-Serif" font-size="10.00" fill="#000000">/source/river/border.hpp</text>
</a>
</g>
</g>
<!-- Node3&#45;&gt;Node4 -->
<g id="edge1" class="edge">
<title>Node3&#45;&gt;Node4</title>
<path fill="none" stroke="#191970" d="M388.746,-332.6842C351.3119,-322.0568 304.2977,-308.7095 268.694,-298.6017"/>
<polygon fill="#191970" stroke="#191970" points="387.9613,-336.0997 398.537,-335.4639 389.873,-329.3658 387.9613,-336.0997"/>
</g>
<!-- Node6 -->
<g id="node4" class="node">
<title>Node6</title>
<g id="a_node4"><a xlink:href="tree_8hpp.html" target="_top" xlink:title="Holds all functionality that you need to work with tree of river, its separate branches and generatio...">
<polygon fill="#ffffff" stroke="#000000" points="218,-201.5 218,-231.5 341,-231.5 341,-201.5 218,-201.5"/>
<text text-anchor="start" x="226" y="-219.5" font-family="Helvetica,sans-Serif" font-size="10.00" fill="#000000">/home/oleg/Dev/riversim</text>
<text text-anchor="middle" x="279.5" y="-208.5" font-family="Helvetica,sans-Serif" font-size="10.00" fill="#000000">/source/river/tree.hpp</text>
</a>
</g>
</g>
<!-- Node3&#45;&gt;Node6 -->
<g id="edge23" class="edge">
<title>Node3&#45;&gt;Node6</title>
<path fill="none" stroke="#191970" d="M424.1956,-329.2279C389.2116,-301.973 329.444,-255.4098 298.8254,-231.5558"/>
<polygon fill="#191970" stroke="#191970" points="422.0641,-332.0042 432.1038,-335.389 426.3662,-326.4822 422.0641,-332.0042"/>
</g>
<!-- Node11 -->
<g id="node9" class="node">
<title>Node11</title>
<g id="a_node9"><a xlink:href="common_8cpp.html" target="_top" xlink:title="/home/oleg/Dev/riversim\l/source/river/common.cpp">
<polygon fill="#ffffff" stroke="#000000" points="637.5,-268.5 637.5,-298.5 767.5,-298.5 767.5,-268.5 637.5,-268.5"/>
<text text-anchor="start" x="645.5" y="-286.5" font-family="Helvetica,sans-Serif" font-size="10.00" fill="#000000">/home/oleg/Dev/riversim</text>
<text text-anchor="middle" x="702.5" y="-275.5" font-family="Helvetica,sans-Serif" font-size="10.00" fill="#000000">/source/river/common.cpp</text>
</a>
</g>
</g>
<!-- Node3&#45;&gt;Node11 -->
<g id="edge9" class="edge">
<title>Node3&#45;&gt;Node11</title>
<path fill="none" stroke="#191970" d="M517.7349,-332.8198C557.6302,-322.1704 607.8972,-308.7525 645.925,-298.6017"/>
<polygon fill="#191970" stroke="#191970" points="516.5883,-329.5032 507.8293,-335.4639 518.3937,-336.2664 516.5883,-329.5032"/>
</g>
<!-- Node12 -->
<g id="node10" class="node">
<title>Node12</title>
<g id="a_node10"><a xlink:href="physmodel_8hpp.html" target="_top" xlink:title="Physical model incapsulation. ">
<polygon fill="#ffffff" stroke="#000000" points="479.5,-268.5 479.5,-298.5 619.5,-298.5 619.5,-268.5 479.5,-268.5"/>
<text text-anchor="start" x="487.5" y="-286.5" font-family="Helvetica,sans-Serif" font-size="10.00" fill="#000000">/home/oleg/Dev/riversim</text>
<text text-anchor="middle" x="549.5" y="-275.5" font-family="Helvetica,sans-Serif" font-size="10.00" fill="#000000">/source/river/physmodel.hpp</text>
</a>
</g>
</g>
<!-- Node3&#45;&gt;Node12 -->
<g id="edge10" class="edge">
<title>Node3&#45;&gt;Node12</title>
<path fill="none" stroke="#191970" d="M482.0283,-329.6286C496.7001,-319.5979 513.9602,-307.7976 527.3503,-298.6432"/>
<polygon fill="#191970" stroke="#191970" points="480.0175,-326.7635 473.7377,-335.2967 483.9682,-332.5421 480.0175,-326.7635"/>
</g>
<!-- Node18 -->
<g id="node16" class="node">
<title>Node18</title>
<g id="a_node16"><a xlink:href="solver_8hpp.html" target="_top" xlink:title="PDE Solver and Integration tool. ">
<polygon fill="#ffffff" stroke="#000000" points="394,-201.5 394,-231.5 517,-231.5 517,-201.5 394,-201.5"/>
<text text-anchor="start" x="402" y="-219.5" font-family="Helvetica,sans-Serif" font-size="10.00" fill="#000000">/home/oleg/Dev/riversim</text>
<text text-anchor="middle" x="455.5" y="-208.5" font-family="Helvetica,sans-Serif" font-size="10.00" fill="#000000">/source/river/solver.hpp</text>
</a>
</g>
</g>
<!-- Node3&#45;&gt;Node18 -->
<g id="edge24" class="edge">
<title>Node3&#45;&gt;Node18</title>
<path fill="none" stroke="#191970" d="M452.251,-325.3415C453.0727,-297.8131 454.3635,-254.5714 455.0444,-231.7614"/>
<polygon fill="#191970" stroke="#191970" points="448.7511,-325.289 451.9511,-335.389 455.748,-325.4979 448.7511,-325.289"/>
</g>
<!-- Node5 -->
<g id="node3" class="node">
<title>Node5</title>
<g id="a_node3"><a xlink:href="border_8cpp.html" target="_top" xlink:title="/home/oleg/Dev/riversim\l/source/river/border.cpp">
<polygon fill="#ffffff" stroke="#000000" points="0,-201.5 0,-231.5 123,-231.5 123,-201.5 0,-201.5"/>
<text text-anchor="start" x="8" y="-219.5" font-family="Helvetica,sans-Serif" font-size="10.00" fill="#000000">/home/oleg/Dev/riversim</text>
<text text-anchor="middle" x="61.5" y="-208.5" font-family="Helvetica,sans-Serif" font-size="10.00" fill="#000000">/source/river/border.cpp</text>
</a>
</g>
</g>
<!-- Node4&#45;&gt;Node5 -->
<g id="edge2" class="edge">
<title>Node4&#45;&gt;Node5</title>
<path fill="none" stroke="#191970" d="M171.7171,-264.4516C147.7841,-254.0392 118.5545,-241.3224 96.2113,-231.6017"/>
<polygon fill="#191970" stroke="#191970" points="170.3733,-267.6838 180.9394,-268.4639 173.166,-261.265 170.3733,-267.6838"/>
</g>
<!-- Node4&#45;&gt;Node6 -->
<g id="edge3" class="edge">
<title>Node4&#45;&gt;Node6</title>
<path fill="none" stroke="#191970" d="M237.0639,-260.9253C246.2746,-251.2828 256.7807,-240.2843 265.0349,-231.6432"/>
<polygon fill="#191970" stroke="#191970" points="234.399,-258.648 230.0226,-268.2967 239.4608,-263.4831 234.399,-258.648"/>
</g>
<!-- Node7 -->
<g id="node5" class="node">
<title>Node7</title>
<g id="a_node5"><a xlink:href="riversim_8hpp.html" target="_top" xlink:title="Rivers Simulation. ">
<polygon fill="#ffffff" stroke="#000000" points="306,-67.5 306,-97.5 433,-97.5 433,-67.5 306,-67.5"/>
<text text-anchor="start" x="314" y="-85.5" font-family="Helvetica,sans-Serif" font-size="10.00" fill="#000000">/home/oleg/Dev/riversim</text>
<text text-anchor="middle" x="369.5" y="-74.5" font-family="Helvetica,sans-Serif" font-size="10.00" fill="#000000">/source/river/riversim.hpp</text>
</a>
</g>
</g>
<!-- Node4&#45;&gt;Node7 -->
<g id="edge8" class="edge">
<title>Node4&#45;&gt;Node7</title>
<path fill="none" stroke="#191970" d="M203.3329,-258.6219C189.5843,-226.5308 172.4132,-170.5081 199.5,-134 212.5003,-116.4779 263.0668,-102.5919 305.6994,-93.6756"/>
<polygon fill="#191970" stroke="#191970" points="200.3222,-260.4607 207.616,-268.1451 206.7062,-257.5893 200.3222,-260.4607"/>
</g>
<!-- Node6&#45;&gt;Node7 -->
<g id="edge4" class="edge">
<title>Node6&#45;&gt;Node7</title>
<path fill="none" stroke="#191970" d="M241.8747,-195.8724C217.2381,-179.6306 192.3535,-156.1173 208.5,-134 220.3963,-117.7046 265.9597,-104.057 305.5924,-94.9138"/>
<polygon fill="#191970" stroke="#191970" points="240.1817,-198.9422 250.5109,-201.2998 243.9064,-193.0154 240.1817,-198.9422"/>
</g>
<!-- Node10 -->
<g id="node8" class="node">
<title>Node10</title>
<g id="a_node8"><a xlink:href="tree_8cpp.html" target="_top" xlink:title="/home/oleg/Dev/riversim\l/source/river/tree.cpp">
<polygon fill="#ffffff" stroke="#000000" points="218,-134.5 218,-164.5 341,-164.5 341,-134.5 218,-134.5"/>
<text text-anchor="start" x="226" y="-152.5" font-family="Helvetica,sans-Serif" font-size="10.00" fill="#000000">/home/oleg/Dev/riversim</text>
<text text-anchor="middle" x="279.5" y="-141.5" font-family="Helvetica,sans-Serif" font-size="10.00" fill="#000000">/source/river/tree.cpp</text>
</a>
</g>
</g>
<!-- Node6&#45;&gt;Node10 -->
<g id="edge7" class="edge">
<title>Node6&#45;&gt;Node10</title>
<path fill="none" stroke="#191970" d="M279.5,-191.0249C279.5,-182.128 279.5,-172.4287 279.5,-164.6432"/>
<polygon fill="#191970" stroke="#191970" points="276.0001,-191.2966 279.5,-201.2967 283.0001,-191.2967 276.0001,-191.2966"/>
</g>
<!-- Node8 -->
<g id="node6" class="node">
<title>Node8</title>
<g id="a_node6"><a xlink:href="main_8cpp.html" target="_top" xlink:title="Entry point of program and main loop handler. ">
<polygon fill="#ffffff" stroke="#000000" points="237,-.5 237,-30.5 360,-30.5 360,-.5 237,-.5"/>
<text text-anchor="start" x="245" y="-18.5" font-family="Helvetica,sans-Serif" font-size="10.00" fill="#000000">/home/oleg/Dev/riversim</text>
<text text-anchor="middle" x="298.5" y="-7.5" font-family="Helvetica,sans-Serif" font-size="10.00" fill="#000000">/source/main.cpp</text>
</a>
</g>
</g>
<!-- Node7&#45;&gt;Node8 -->
<g id="edge5" class="edge">
<title>Node7&#45;&gt;Node8</title>
<path fill="none" stroke="#191970" d="M345.8806,-60.2113C335.5905,-50.5009 323.7949,-39.3698 314.5472,-30.6432"/>
<polygon fill="#191970" stroke="#191970" points="343.7139,-62.979 353.389,-67.2967 348.5181,-57.8879 343.7139,-62.979"/>
</g>
<!-- Node9 -->
<g id="node7" class="node">
<title>Node9</title>
<g id="a_node7"><a xlink:href="riversim_8cpp.html" target="_top" xlink:title="/home/oleg/Dev/riversim\l/source/river/riversim.cpp">
<polygon fill="#ffffff" stroke="#000000" points="378,-.5 378,-30.5 505,-30.5 505,-.5 378,-.5"/>
<text text-anchor="start" x="386" y="-18.5" font-family="Helvetica,sans-Serif" font-size="10.00" fill="#000000">/home/oleg/Dev/riversim</text>
<text text-anchor="middle" x="441.5" y="-7.5" font-family="Helvetica,sans-Serif" font-size="10.00" fill="#000000">/source/river/riversim.cpp</text>
</a>
</g>
</g>
<!-- Node7&#45;&gt;Node9 -->
<g id="edge6" class="edge">
<title>Node7&#45;&gt;Node9</title>
<path fill="none" stroke="#191970" d="M393.452,-60.2113C403.8871,-50.5009 415.8488,-39.3698 425.2267,-30.6432"/>
<polygon fill="#191970" stroke="#191970" points="390.7743,-57.9221 385.8379,-67.2967 395.5429,-63.0466 390.7743,-57.9221"/>
</g>
<!-- Node12&#45;&gt;Node6 -->
<g id="edge18" class="edge">
<title>Node12&#45;&gt;Node6</title>
<path fill="none" stroke="#191970" d="M479.0682,-266.0225C436.0239,-255.3411 381.5239,-241.8171 340.3575,-231.6017"/>
<polygon fill="#191970" stroke="#191970" points="478.3581,-269.4524 488.9067,-268.4639 480.0441,-262.6584 478.3581,-269.4524"/>
</g>
<!-- Node12&#45;&gt;Node7 -->
<g id="edge22" class="edge">
<title>Node12&#45;&gt;Node7</title>
<path fill="none" stroke="#191970" d="M553.8404,-258.2499C557.9214,-225.68 559.6614,-169.0598 530.5,-134 517.6451,-118.545 472.4398,-104.8824 433.1907,-95.5201"/>
<polygon fill="#191970" stroke="#191970" points="550.353,-257.9138 552.4079,-268.3074 557.2831,-258.9009 550.353,-257.9138"/>
</g>
<!-- Node13 -->
<g id="node11" class="node">
<title>Node13</title>
<g id="a_node11"><a xlink:href="triangle_8hpp.html" target="_top" xlink:title="Piece of Art Mesh Generation Tool, Winner of the 2003 James Hardy Wilkinson Prize in Numerical Softwa...">
<polygon fill="#ffffff" stroke="#000000" points="577.5,-201.5 577.5,-231.5 701.5,-231.5 701.5,-201.5 577.5,-201.5"/>
<text text-anchor="start" x="585.5" y="-219.5" font-family="Helvetica,sans-Serif" font-size="10.00" fill="#000000">/home/oleg/Dev/riversim</text>
<text text-anchor="middle" x="639.5" y="-208.5" font-family="Helvetica,sans-Serif" font-size="10.00" fill="#000000">/source/river/triangle.hpp</text>
</a>
</g>
</g>
<!-- Node12&#45;&gt;Node13 -->
<g id="edge11" class="edge">
<title>Node12&#45;&gt;Node13</title>
<path fill="none" stroke="#191970" d="M578.2942,-262.0643C591.6016,-252.1577 607.0913,-240.6265 619.1584,-231.6432"/>
<polygon fill="#191970" stroke="#191970" points="575.8537,-259.5177 569.9224,-268.2967 580.0338,-265.1327 575.8537,-259.5177"/>
</g>
<!-- Node14 -->
<g id="node12" class="node">
<title>Node14</title>
<g id="a_node12"><a xlink:href="mesh_8hpp.html" target="_top" xlink:title="Wrappers classes to Triangle and Gmsh. ">
<polygon fill="#ffffff" stroke="#000000" points="720,-134.5 720,-164.5 843,-164.5 843,-134.5 720,-134.5"/>
<text text-anchor="start" x="728" y="-152.5" font-family="Helvetica,sans-Serif" font-size="10.00" fill="#000000">/home/oleg/Dev/riversim</text>
<text text-anchor="middle" x="781.5" y="-141.5" font-family="Helvetica,sans-Serif" font-size="10.00" fill="#000000">/source/river/mesh.hpp</text>
</a>
</g>
</g>
<!-- Node12&#45;&gt;Node14 -->
<g id="edge16" class="edge">
<title>Node12&#45;&gt;Node14</title>
<path fill="none" stroke="#191970" d="M629.7872,-268.1039C696.7439,-260.0923 835.0948,-270.7898 868.5,-232 890.4369,-206.5271 850.0711,-180.3602 817.2805,-164.5127"/>
<polygon fill="#191970" stroke="#191970" points="629.0793,-264.6696 619.681,-269.5607 630.0781,-271.598 629.0793,-264.6696"/>
</g>
<!-- Node17 -->
<g id="node15" class="node">
<title>Node17</title>
<g id="a_node15"><a xlink:href="physmodel_8cpp.html" target="_top" xlink:title="/home/oleg/Dev/riversim\l/source/river/physmodel.cpp">
<polygon fill="#ffffff" stroke="#000000" points="719.5,-201.5 719.5,-231.5 859.5,-231.5 859.5,-201.5 719.5,-201.5"/>
<text text-anchor="start" x="727.5" y="-219.5" font-family="Helvetica,sans-Serif" font-size="10.00" fill="#000000">/home/oleg/Dev/riversim</text>
<text text-anchor="middle" x="789.5" y="-208.5" font-family="Helvetica,sans-Serif" font-size="10.00" fill="#000000">/source/river/physmodel.cpp</text>
</a>
</g>
</g>
<!-- Node12&#45;&gt;Node17 -->
<g id="edge17" class="edge">
<title>Node12&#45;&gt;Node17</title>
<path fill="none" stroke="#191970" d="M613.3177,-265.6842C651.3862,-255.0568 699.1972,-241.7095 735.4044,-231.6017"/>
<polygon fill="#191970" stroke="#191970" points="612.0513,-262.4039 603.3607,-268.4639 613.9335,-269.1461 612.0513,-262.4039"/>
</g>
<!-- Node12&#45;&gt;Node18 -->
<g id="edge19" class="edge">
<title>Node12&#45;&gt;Node18</title>
<path fill="none" stroke="#191970" d="M519.8225,-262.3469C505.8357,-252.3776 489.4692,-240.7121 476.7456,-231.6432"/>
<polygon fill="#191970" stroke="#191970" points="517.9953,-265.3426 528.1699,-268.2967 522.0582,-259.6423 517.9953,-265.3426"/>
</g>
<!-- Node13&#45;&gt;Node14 -->
<g id="edge12" class="edge">
<title>Node13&#45;&gt;Node14</title>
<path fill="none" stroke="#191970" d="M680.4253,-197.1902C702.3011,-186.8685 728.8496,-174.3421 749.2475,-164.7177"/>
<polygon fill="#191970" stroke="#191970" points="678.9179,-194.0313 671.3676,-201.4639 681.905,-200.362 678.9179,-194.0313"/>
</g>
<!-- Node16 -->
<g id="node14" class="node">
<title>Node16</title>
<g id="a_node14"><a xlink:href="triangle_8cpp.html" target="_top" xlink:title="/home/oleg/Dev/riversim\l/source/river/triangle.cpp">
<polygon fill="#ffffff" stroke="#000000" points="577.5,-134.5 577.5,-164.5 701.5,-164.5 701.5,-134.5 577.5,-134.5"/>
<text text-anchor="start" x="585.5" y="-152.5" font-family="Helvetica,sans-Serif" font-size="10.00" fill="#000000">/home/oleg/Dev/riversim</text>
<text text-anchor="middle" x="639.5" y="-141.5" font-family="Helvetica,sans-Serif" font-size="10.00" fill="#000000">/source/river/triangle.cpp</text>
</a>
</g>
</g>
<!-- Node13&#45;&gt;Node16 -->
<g id="edge15" class="edge">
<title>Node13&#45;&gt;Node16</title>
<path fill="none" stroke="#191970" d="M639.5,-191.0249C639.5,-182.128 639.5,-172.4287 639.5,-164.6432"/>
<polygon fill="#191970" stroke="#191970" points="636.0001,-191.2966 639.5,-201.2967 643.0001,-191.2967 636.0001,-191.2966"/>
</g>
<!-- Node14&#45;&gt;Node7 -->
<g id="edge14" class="edge">
<title>Node14&#45;&gt;Node7</title>
<path fill="none" stroke="#191970" d="M710.0445,-133.9878C607.2503,-115.2434 499.6916,-99.8693 433.1824,-90.8569"/>
<polygon fill="#191970" stroke="#191970" points="709.508,-137.4478 719.9759,-135.8122 710.7728,-130.563 709.508,-137.4478"/>
</g>
<!-- Node15 -->
<g id="node13" class="node">
<title>Node15</title>
<g id="a_node13"><a xlink:href="mesh_8cpp.html" target="_top" xlink:title="/home/oleg/Dev/riversim\l/source/river/mesh.cpp">
<polygon fill="#ffffff" stroke="#000000" points="720,-67.5 720,-97.5 843,-97.5 843,-67.5 720,-67.5"/>
<text text-anchor="start" x="728" y="-85.5" font-family="Helvetica,sans-Serif" font-size="10.00" fill="#000000">/home/oleg/Dev/riversim</text>
<text text-anchor="middle" x="781.5" y="-74.5" font-family="Helvetica,sans-Serif" font-size="10.00" fill="#000000">/source/river/mesh.cpp</text>
</a>
</g>
</g>
<!-- Node14&#45;&gt;Node15 -->
<g id="edge13" class="edge">
<title>Node14&#45;&gt;Node15</title>
<path fill="none" stroke="#191970" d="M781.5,-124.0249C781.5,-115.128 781.5,-105.4287 781.5,-97.6432"/>
<polygon fill="#191970" stroke="#191970" points="778.0001,-124.2966 781.5,-134.2967 785.0001,-124.2967 778.0001,-124.2966"/>
</g>
<!-- Node18&#45;&gt;Node7 -->
<g id="edge20" class="edge">
<title>Node18&#45;&gt;Node7</title>
<path fill="none" stroke="#191970" d="M419.9408,-195.5438C408.7077,-187.3236 397.2234,-176.9701 389.5,-165 376.0763,-144.1953 371.6579,-115.167 370.2065,-97.6684"/>
<polygon fill="#191970" stroke="#191970" points="418.2,-198.5953 428.4154,-201.4053 422.182,-192.8382 418.2,-198.5953"/>
</g>
<!-- Node19 -->
<g id="node17" class="node">
<title>Node19</title>
<g id="a_node17"><a xlink:href="solver_8cpp.html" target="_top" xlink:title="/home/oleg/Dev/riversim\l/source/river/solver.cpp">
<polygon fill="#ffffff" stroke="#000000" points="398,-134.5 398,-164.5 521,-164.5 521,-134.5 398,-134.5"/>
<text text-anchor="start" x="406" y="-152.5" font-family="Helvetica,sans-Serif" font-size="10.00" fill="#000000">/home/oleg/Dev/riversim</text>
<text text-anchor="middle" x="459.5" y="-141.5" font-family="Helvetica,sans-Serif" font-size="10.00" fill="#000000">/source/river/solver.cpp</text>
</a>
</g>
</g>
<!-- Node18&#45;&gt;Node19 -->
<g id="edge21" class="edge">
<title>Node18&#45;&gt;Node19</title>
<path fill="none" stroke="#191970" d="M457.0209,-191.0249C457.5521,-182.128 458.1311,-172.4287 458.5959,-164.6432"/>
<polygon fill="#191970" stroke="#191970" points="453.5099,-191.1058 456.4077,-201.2967 460.4975,-191.5231 453.5099,-191.1058"/>
</g>
</g>
</svg>
