<?xml version="1.0" encoding="UTF-8" standalone="no"?>
<!DOCTYPE svg PUBLIC "-//W3C//DTD SVG 1.1//EN"
 "http://www.w3.org/Graphics/SVG/1.1/DTD/svg11.dtd">
<!-- Generated by graphviz version 2.40.1 (20161225.0304)
 -->
<!-- Title: /home/oleg/Dev/riversim/source/river/common.hpp Pages: 1 -->
<svg width="1007pt" height="307pt"
 viewBox="0.00 0.00 1007.00 307.00" xmlns="http://www.w3.org/2000/svg" xmlns:xlink="http://www.w3.org/1999/xlink">
<g id="graph0" class="graph" transform="scale(1 1) rotate(0) translate(4 303)">
<title>/home/oleg/Dev/riversim/source/river/common.hpp</title>
<polygon fill="#ffffff" stroke="transparent" points="-4,4 -4,-303 1003,-303 1003,4 -4,4"/>
<!-- Node4 -->
<g id="node1" class="node">
<title>Node4</title>
<polygon fill="#bfbfbf" stroke="#000000" points="440.5,-268.5 440.5,-298.5 570.5,-298.5 570.5,-268.5 440.5,-268.5"/>
<text text-anchor="start" x="448.5" y="-286.5" font-family="Helvetica,sans-Serif" font-size="10.00" fill="#000000">/home/oleg/Dev/riversim</text>
<text text-anchor="middle" x="505.5" y="-275.5" font-family="Helvetica,sans-Serif" font-size="10.00" fill="#000000">/source/river/common.hpp</text>
</g>
<!-- Node5 -->
<g id="node2" class="node">
<title>Node5</title>
<g id="a_node2"><a xlink:href="border_8hpp.html" target="_top" xlink:title="Generate some initial predefinide border geometry and its source positions. ">
<polygon fill="#ffffff" stroke="#000000" points="134,-201.5 134,-231.5 257,-231.5 257,-201.5 134,-201.5"/>
<text text-anchor="start" x="142" y="-219.5" font-family="Helvetica,sans-Serif" font-size="10.00" fill="#000000">/home/oleg/Dev/riversim</text>
<text text-anchor="middle" x="195.5" y="-208.5" font-family="Helvetica,sans-Serif" font-size="10.00" fill="#000000">/source/river/border.hpp</text>
</a>
</g>
</g>
<!-- Node4&#45;&gt;Node5 -->
<g id="edge1" class="edge">
<title>Node4&#45;&gt;Node5</title>
<path fill="none" stroke="#191970" d="M430.0937,-267.2025C377.0015,-255.7277 306.8106,-240.5575 257.0819,-229.8096"/>
<polygon fill="#191970" stroke="#191970" points="429.622,-270.6813 440.1358,-269.3729 431.1009,-263.8393 429.622,-270.6813"/>
</g>
<!-- Node7 -->
<g id="node4" class="node">
<title>Node7</title>
<g id="a_node4"><a xlink:href="geometrynew_8hpp.html" target="_top" xlink:title="Holds all functionality that you need to work with tree of river, its separate branches and generatio...">
<polygon fill="#ffffff" stroke="#000000" points="180,-134.5 180,-164.5 331,-164.5 331,-134.5 180,-134.5"/>
<text text-anchor="start" x="188" y="-152.5" font-family="Helvetica,sans-Serif" font-size="10.00" fill="#000000">/home/oleg/Dev/riversim</text>
<text text-anchor="middle" x="255.5" y="-141.5" font-family="Helvetica,sans-Serif" font-size="10.00" fill="#000000">/source/river/geometrynew.hpp</text>
</a>
</g>
</g>
<!-- Node4&#45;&gt;Node7 -->
<g id="edge16" class="edge">
<title>Node4&#45;&gt;Node7</title>
<path fill="none" stroke="#191970" d="M431.1054,-265.5816C404.3719,-257.4525 374.6359,-246.3784 349.5,-232 317.2706,-213.5638 286.1565,-182.9472 269.048,-164.6483"/>
<polygon fill="#191970" stroke="#191970" points="430.2229,-268.9703 440.8047,-268.4439 432.2043,-262.2565 430.2229,-268.9703"/>
</g>
<!-- Node12 -->
<g id="node9" class="node">
<title>Node12</title>
<g id="a_node9"><a xlink:href="common_8cpp.html" target="_top" xlink:title="/home/oleg/Dev/riversim\l/source/river/common.cpp">
<polygon fill="#ffffff" stroke="#000000" points="706.5,-201.5 706.5,-231.5 836.5,-231.5 836.5,-201.5 706.5,-201.5"/>
<text text-anchor="start" x="714.5" y="-219.5" font-family="Helvetica,sans-Serif" font-size="10.00" fill="#000000">/home/oleg/Dev/riversim</text>
<text text-anchor="middle" x="771.5" y="-208.5" font-family="Helvetica,sans-Serif" font-size="10.00" fill="#000000">/source/river/common.cpp</text>
</a>
</g>
</g>
<!-- Node4&#45;&gt;Node12 -->
<g id="edge9" class="edge">
<title>Node4&#45;&gt;Node12</title>
<path fill="none" stroke="#191970" d="M575.1563,-265.955C617.521,-255.2842 671.0729,-241.7955 711.544,-231.6017"/>
<polygon fill="#191970" stroke="#191970" points="574.0378,-262.6273 565.1956,-268.4639 575.7476,-269.4153 574.0378,-262.6273"/>
</g>
<!-- Node13 -->
<g id="node10" class="node">
<title>Node13</title>
<g id="a_node10"><a xlink:href="geometry_8hpp.html" target="_top" xlink:title="/home/oleg/Dev/riversim\l/source/river/geometry.hpp">
<polygon fill="#ffffff" stroke="#000000" points="517,-201.5 517,-231.5 650,-231.5 650,-201.5 517,-201.5"/>
<text text-anchor="start" x="525" y="-219.5" font-family="Helvetica,sans-Serif" font-size="10.00" fill="#000000">/home/oleg/Dev/riversim</text>
<text text-anchor="middle" x="583.5" y="-208.5" font-family="Helvetica,sans-Serif" font-size="10.00" fill="#000000">/source/river/geometry.hpp</text>
</a>
</g>
</g>
<!-- Node4&#45;&gt;Node13 -->
<g id="edge10" class="edge">
<title>Node4&#45;&gt;Node13</title>
<path fill="none" stroke="#191970" d="M531.116,-261.4965C542.4984,-251.7193 555.6116,-240.4554 565.8706,-231.6432"/>
<polygon fill="#191970" stroke="#191970" points="528.5045,-259.1257 523.1994,-268.2967 533.0657,-264.4357 528.5045,-259.1257"/>
</g>
<!-- Node17 -->
<g id="node14" class="node">
<title>Node17</title>
<g id="a_node14"><a xlink:href="physmodel_8hpp.html" target="_top" xlink:title="/home/oleg/Dev/riversim\l/source/river/physmodel.hpp">
<polygon fill="#ffffff" stroke="#000000" points="358.5,-201.5 358.5,-231.5 498.5,-231.5 498.5,-201.5 358.5,-201.5"/>
<text text-anchor="start" x="366.5" y="-219.5" font-family="Helvetica,sans-Serif" font-size="10.00" fill="#000000">/home/oleg/Dev/riversim</text>
<text text-anchor="middle" x="428.5" y="-208.5" font-family="Helvetica,sans-Serif" font-size="10.00" fill="#000000">/source/river/physmodel.hpp</text>
</a>
</g>
</g>
<!-- Node4&#45;&gt;Node17 -->
<g id="edge17" class="edge">
<title>Node4&#45;&gt;Node17</title>
<path fill="none" stroke="#191970" d="M480.2124,-261.4965C468.976,-251.7193 456.0308,-240.4554 445.9033,-231.6432"/>
<polygon fill="#191970" stroke="#191970" points="478.1861,-264.3728 488.0275,-268.2967 482.781,-259.092 478.1861,-264.3728"/>
</g>
<!-- Node19 -->
<g id="node16" class="node">
<title>Node19</title>
<g id="a_node16"><a xlink:href="solver_8hpp.html" target="_top" xlink:title="/home/oleg/Dev/riversim\l/source/river/solver.hpp">
<polygon fill="#ffffff" stroke="#000000" points="876,-134.5 876,-164.5 999,-164.5 999,-134.5 876,-134.5"/>
<text text-anchor="start" x="884" y="-152.5" font-family="Helvetica,sans-Serif" font-size="10.00" fill="#000000">/home/oleg/Dev/riversim</text>
<text text-anchor="middle" x="937.5" y="-141.5" font-family="Helvetica,sans-Serif" font-size="10.00" fill="#000000">/source/river/solver.hpp</text>
</a>
</g>
</g>
<!-- Node4&#45;&gt;Node19 -->
<g id="edge24" class="edge">
<title>Node4&#45;&gt;Node19</title>
<path fill="none" stroke="#191970" d="M576.9299,-265.4966C603.7292,-257.2466 633.8793,-246.1136 659.5,-232 678.5909,-221.4834 677.8408,-210.4115 697.5,-201 767.1601,-167.6516 792.0191,-181.3485 867.5,-165 870.1763,-164.4203 872.9096,-163.8258 875.6703,-163.2233"/>
<polygon fill="#191970" stroke="#191970" points="575.797,-262.1823 567.2227,-268.4058 577.8066,-268.8876 575.797,-262.1823"/>
</g>
<!-- Node6 -->
<g id="node3" class="node">
<title>Node6</title>
<g id="a_node3"><a xlink:href="border_8cpp.html" target="_top" xlink:title="/home/oleg/Dev/riversim\l/source/river/border.cpp">
<polygon fill="#ffffff" stroke="#000000" points="0,-134.5 0,-164.5 123,-164.5 123,-134.5 0,-134.5"/>
<text text-anchor="start" x="8" y="-152.5" font-family="Helvetica,sans-Serif" font-size="10.00" fill="#000000">/home/oleg/Dev/riversim</text>
<text text-anchor="middle" x="61.5" y="-141.5" font-family="Helvetica,sans-Serif" font-size="10.00" fill="#000000">/source/river/border.cpp</text>
</a>
</g>
</g>
<!-- Node5&#45;&gt;Node6 -->
<g id="edge2" class="edge">
<title>Node5&#45;&gt;Node6</title>
<path fill="none" stroke="#191970" d="M156.3264,-196.9132C135.7901,-186.645 111.0123,-174.2561 91.9355,-164.7177"/>
<polygon fill="#191970" stroke="#191970" points="154.9182,-200.1222 165.4278,-201.4639 158.0488,-193.8612 154.9182,-200.1222"/>
</g>
<!-- Node5&#45;&gt;Node7 -->
<g id="edge3" class="edge">
<title>Node5&#45;&gt;Node7</title>
<path fill="none" stroke="#191970" d="M215.973,-193.6385C224.546,-184.0653 234.2773,-173.1987 241.939,-164.6432"/>
<polygon fill="#191970" stroke="#191970" points="213.1788,-191.5122 209.1149,-201.2967 218.3935,-196.1821 213.1788,-191.5122"/>
</g>
<!-- Node9 -->
<g id="node6" class="node">
<title>Node9</title>
<g id="a_node6"><a xlink:href="riversim_8hpp.html" target="_top" xlink:title="/home/oleg/Dev/riversim\l/source/river/riversim.hpp">
<polygon fill="#ffffff" stroke="#000000" points="394,-67.5 394,-97.5 521,-97.5 521,-67.5 394,-67.5"/>
<text text-anchor="start" x="402" y="-85.5" font-family="Helvetica,sans-Serif" font-size="10.00" fill="#000000">/home/oleg/Dev/riversim</text>
<text text-anchor="middle" x="457.5" y="-74.5" font-family="Helvetica,sans-Serif" font-size="10.00" fill="#000000">/source/river/riversim.hpp</text>
</a>
</g>
</g>
<!-- Node5&#45;&gt;Node9 -->
<g id="edge8" class="edge">
<title>Node5&#45;&gt;Node9</title>
<path fill="none" stroke="#191970" d="M177.5682,-192.7204C166.4139,-174.8231 156.5986,-150.6179 170.5,-134 177.6661,-125.4336 311.375,-104.1992 393.7297,-91.8367"/>
<polygon fill="#191970" stroke="#191970" points="174.9306,-195.0717 183.4047,-201.431 180.7458,-191.1752 174.9306,-195.0717"/>
</g>
<!-- Node8 -->
<g id="node5" class="node">
<title>Node8</title>
<g id="a_node5"><a xlink:href="geometrynew_8cpp.html" target="_top" xlink:title="/home/oleg/Dev/riversim\l/source/river/geometrynew.cpp">
<polygon fill="#ffffff" stroke="#000000" points="180,-67.5 180,-97.5 331,-97.5 331,-67.5 180,-67.5"/>
<text text-anchor="start" x="188" y="-85.5" font-family="Helvetica,sans-Serif" font-size="10.00" fill="#000000">/home/oleg/Dev/riversim</text>
<text text-anchor="middle" x="255.5" y="-74.5" font-family="Helvetica,sans-Serif" font-size="10.00" fill="#000000">/source/river/geometrynew.cpp</text>
</a>
</g>
</g>
<!-- Node7&#45;&gt;Node8 -->
<g id="edge4" class="edge">
<title>Node7&#45;&gt;Node8</title>
<path fill="none" stroke="#191970" d="M255.5,-124.0249C255.5,-115.128 255.5,-105.4287 255.5,-97.6432"/>
<polygon fill="#191970" stroke="#191970" points="252.0001,-124.2966 255.5,-134.2967 259.0001,-124.2967 252.0001,-124.2966"/>
</g>
<!-- Node7&#45;&gt;Node9 -->
<g id="edge5" class="edge">
<title>Node7&#45;&gt;Node9</title>
<path fill="none" stroke="#191970" d="M310.4443,-131.2759C342.28,-120.7165 381.8842,-107.5805 411.9695,-97.6017"/>
<polygon fill="#191970" stroke="#191970" points="309.2224,-127.9936 300.8327,-134.4639 311.4262,-134.6377 309.2224,-127.9936"/>
</g>
<!-- Node10 -->
<g id="node7" class="node">
<title>Node10</title>
<g id="a_node7"><a xlink:href="main_8cpp.html" target="_top" xlink:title="Entry point of program and main loop handler. ">
<polygon fill="#ffffff" stroke="#000000" points="324,-.5 324,-30.5 447,-30.5 447,-.5 324,-.5"/>
<text text-anchor="start" x="332" y="-18.5" font-family="Helvetica,sans-Serif" font-size="10.00" fill="#000000">/home/oleg/Dev/riversim</text>
<text text-anchor="middle" x="385.5" y="-7.5" font-family="Helvetica,sans-Serif" font-size="10.00" fill="#000000">/source/main.cpp</text>
</a>
</g>
</g>
<!-- Node9&#45;&gt;Node10 -->
<g id="edge6" class="edge">
<title>Node9&#45;&gt;Node10</title>
<path fill="none" stroke="#191970" d="M433.548,-60.2113C423.1129,-50.5009 411.1512,-39.3698 401.7733,-30.6432"/>
<polygon fill="#191970" stroke="#191970" points="431.4571,-63.0466 441.1621,-67.2967 436.2257,-57.9221 431.4571,-63.0466"/>
</g>
<!-- Node11 -->
<g id="node8" class="node">
<title>Node11</title>
<g id="a_node8"><a xlink:href="riversim_8cpp.html" target="_top" xlink:title="/home/oleg/Dev/riversim\l/source/river/riversim.cpp">
<polygon fill="#ffffff" stroke="#000000" points="465,-.5 465,-30.5 592,-30.5 592,-.5 465,-.5"/>
<text text-anchor="start" x="473" y="-18.5" font-family="Helvetica,sans-Serif" font-size="10.00" fill="#000000">/home/oleg/Dev/riversim</text>
<text text-anchor="middle" x="528.5" y="-7.5" font-family="Helvetica,sans-Serif" font-size="10.00" fill="#000000">/source/river/riversim.cpp</text>
</a>
</g>
</g>
<!-- Node9&#45;&gt;Node11 -->
<g id="edge7" class="edge">
<title>Node9&#45;&gt;Node11</title>
<path fill="none" stroke="#191970" d="M481.1194,-60.2113C491.4095,-50.5009 503.2051,-39.3698 512.4528,-30.6432"/>
<polygon fill="#191970" stroke="#191970" points="478.4819,-57.8879 473.611,-67.2967 483.2861,-62.979 478.4819,-57.8879"/>
</g>
<!-- Node13&#45;&gt;Node9 -->
<g id="edge15" class="edge">
<title>Node13&#45;&gt;Node9</title>
<path fill="none" stroke="#191970" d="M573.2625,-191.8575C565.1242,-174.3188 552.4667,-150.9524 536.5,-134 522.5807,-119.2214 503.6108,-106.6767 487.7488,-97.6691"/>
<polygon fill="#191970" stroke="#191970" points="570.2555,-193.7084 577.5228,-201.418 576.6494,-190.8592 570.2555,-193.7084"/>
</g>
<!-- Node14 -->
<g id="node11" class="node">
<title>Node14</title>
<g id="a_node11"><a xlink:href="geometry_8cpp.html" target="_top" xlink:title="/home/oleg/Dev/riversim\l/source/river/geometry.cpp">
<polygon fill="#ffffff" stroke="#000000" points="725,-134.5 725,-164.5 858,-164.5 858,-134.5 725,-134.5"/>
<text text-anchor="start" x="733" y="-152.5" font-family="Helvetica,sans-Serif" font-size="10.00" fill="#000000">/home/oleg/Dev/riversim</text>
<text text-anchor="middle" x="791.5" y="-141.5" font-family="Helvetica,sans-Serif" font-size="10.00" fill="#000000">/source/river/geometry.cpp</text>
</a>
</g>
</g>
<!-- Node13&#45;&gt;Node14 -->
<g id="edge11" class="edge">
<title>Node13&#45;&gt;Node14</title>
<path fill="none" stroke="#191970" d="M640.0763,-198.2759C672.8577,-187.7165 713.6382,-174.5805 744.6171,-164.6017"/>
<polygon fill="#191970" stroke="#191970" points="638.6245,-195.0664 630.1793,-201.4639 640.7708,-201.7292 638.6245,-195.0664"/>
</g>
<!-- Node15 -->
<g id="node12" class="node">
<title>Node15</title>
<g id="a_node12"><a xlink:href="mesh_8hpp.html" target="_top" xlink:title="/home/oleg/Dev/riversim\l/source/river/mesh.hpp">
<polygon fill="#ffffff" stroke="#000000" points="584,-134.5 584,-164.5 707,-164.5 707,-134.5 584,-134.5"/>
<text text-anchor="start" x="592" y="-152.5" font-family="Helvetica,sans-Serif" font-size="10.00" fill="#000000">/home/oleg/Dev/riversim</text>
<text text-anchor="middle" x="645.5" y="-141.5" font-family="Helvetica,sans-Serif" font-size="10.00" fill="#000000">/source/river/mesh.hpp</text>
</a>
</g>
</g>
<!-- Node13&#45;&gt;Node15 -->
<g id="edge12" class="edge">
<title>Node13&#45;&gt;Node15</title>
<path fill="none" stroke="#191970" d="M604.39,-193.9253C613.3129,-184.2828 623.4907,-173.2843 631.4869,-164.6432"/>
<polygon fill="#191970" stroke="#191970" points="601.7918,-191.5798 597.5688,-201.2967 606.9296,-196.3342 601.7918,-191.5798"/>
</g>
<!-- Node15&#45;&gt;Node9 -->
<g id="edge14" class="edge">
<title>Node15&#45;&gt;Node9</title>
<path fill="none" stroke="#191970" d="M593.5959,-131.0023C564.0996,-120.4903 527.6337,-107.4945 499.8749,-97.6017"/>
<polygon fill="#191970" stroke="#191970" points="592.7145,-134.4037 603.3091,-134.4639 595.0644,-127.8099 592.7145,-134.4037"/>
</g>
<!-- Node16 -->
<g id="node13" class="node">
<title>Node16</title>
<g id="a_node13"><a xlink:href="mesh_8cpp.html" target="_top" xlink:title="/home/oleg/Dev/riversim\l/source/river/mesh.cpp">
<polygon fill="#ffffff" stroke="#000000" points="584,-67.5 584,-97.5 707,-97.5 707,-67.5 584,-67.5"/>
<text text-anchor="start" x="592" y="-85.5" font-family="Helvetica,sans-Serif" font-size="10.00" fill="#000000">/home/oleg/Dev/riversim</text>
<text text-anchor="middle" x="645.5" y="-74.5" font-family="Helvetica,sans-Serif" font-size="10.00" fill="#000000">/source/river/mesh.cpp</text>
</a>
</g>
</g>
<!-- Node15&#45;&gt;Node16 -->
<g id="edge13" class="edge">
<title>Node15&#45;&gt;Node16</title>
<path fill="none" stroke="#191970" d="M645.5,-124.0249C645.5,-115.128 645.5,-105.4287 645.5,-97.6432"/>
<polygon fill="#191970" stroke="#191970" points="642.0001,-124.2966 645.5,-134.2967 649.0001,-124.2967 642.0001,-124.2966"/>
</g>
<!-- Node17&#45;&gt;Node7 -->
<g id="edge18" class="edge">
<title>Node17&#45;&gt;Node7</title>
<path fill="none" stroke="#191970" d="M380.0276,-197.7275C353.0113,-187.2645 319.8158,-174.4084 294.4939,-164.6017"/>
<polygon fill="#191970" stroke="#191970" points="379.0863,-201.1162 389.6754,-201.4639 381.6144,-194.5886 379.0863,-201.1162"/>
</g>
<!-- Node17&#45;&gt;Node9 -->
<g id="edge23" class="edge">
<title>Node17&#45;&gt;Node9</title>
<path fill="none" stroke="#191970" d="M399.9728,-194.6569C391.3994,-186.4027 383.0644,-176.2539 378.5,-165 373.3217,-152.2324 371.9364,-146.1139 378.5,-134 387.3135,-117.7336 403.7387,-105.7932 419.3386,-97.529"/>
<polygon fill="#191970" stroke="#191970" points="397.7022,-197.3221 407.4796,-201.4031 402.3812,-192.1156 397.7022,-197.3221"/>
</g>
<!-- Node18 -->
<g id="node15" class="node">
<title>Node18</title>
<g id="a_node15"><a xlink:href="physmodel_8cpp.html" target="_top" xlink:title="/home/oleg/Dev/riversim\l/source/river/physmodel.cpp">
<polygon fill="#ffffff" stroke="#000000" points="387.5,-134.5 387.5,-164.5 527.5,-164.5 527.5,-134.5 387.5,-134.5"/>
<text text-anchor="start" x="395.5" y="-152.5" font-family="Helvetica,sans-Serif" font-size="10.00" fill="#000000">/home/oleg/Dev/riversim</text>
<text text-anchor="middle" x="457.5" y="-141.5" font-family="Helvetica,sans-Serif" font-size="10.00" fill="#000000">/source/river/physmodel.cpp</text>
</a>
</g>
</g>
<!-- Node17&#45;&gt;Node18 -->
<g id="edge19" class="edge">
<title>Node17&#45;&gt;Node18</title>
<path fill="none" stroke="#191970" d="M439.1468,-191.9021C443.0997,-182.7696 447.4645,-172.6854 450.9455,-164.6432"/>
<polygon fill="#191970" stroke="#191970" points="435.8408,-190.7291 435.0805,-201.2967 442.2649,-193.5097 435.8408,-190.7291"/>
</g>
<!-- Node17&#45;&gt;Node19 -->
<g id="edge20" class="edge">
<title>Node17&#45;&gt;Node19</title>
<path fill="none" stroke="#191970" d="M508.8265,-200.8964C668.3488,-178.0089 711.9811,-189.9046 867.5,-165 870.2039,-164.567 872.9601,-164.0939 875.7395,-163.5909"/>
<polygon fill="#191970" stroke="#191970" points="508.0422,-197.4737 498.6521,-202.3804 509.0526,-204.4004 508.0422,-197.4737"/>
</g>
<!-- Node19&#45;&gt;Node9 -->
<g id="edge21" class="edge">
<title>Node19&#45;&gt;Node9</title>
<path fill="none" stroke="#191970" d="M865.8365,-133.7969C736.4961,-111.9185 701.4677,-114.21 574.5,-98 557.2238,-95.7943 538.5214,-93.3446 521.2445,-91.056"/>
<polygon fill="#191970" stroke="#191970" points="865.2804,-137.2526 875.7268,-135.4855 866.4585,-130.3524 865.2804,-137.2526"/>
</g>
<!-- Node20 -->
<g id="node17" class="node">
<title>Node20</title>
<g id="a_node17"><a xlink:href="solver_8cpp.html" target="_top" xlink:title="/home/oleg/Dev/riversim\l/source/river/solver.cpp">
<polygon fill="#ffffff" stroke="#000000" points="876,-67.5 876,-97.5 999,-97.5 999,-67.5 876,-67.5"/>
<text text-anchor="start" x="884" y="-85.5" font-family="Helvetica,sans-Serif" font-size="10.00" fill="#000000">/home/oleg/Dev/riversim</text>
<text text-anchor="middle" x="937.5" y="-74.5" font-family="Helvetica,sans-Serif" font-size="10.00" fill="#000000">/source/river/solver.cpp</text>
</a>
</g>
</g>
<!-- Node19&#45;&gt;Node20 -->
<g id="edge22" class="edge">
<title>Node19&#45;&gt;Node20</title>
<path fill="none" stroke="#191970" d="M937.5,-124.0249C937.5,-115.128 937.5,-105.4287 937.5,-97.6432"/>
<polygon fill="#191970" stroke="#191970" points="934.0001,-124.2966 937.5,-134.2967 941.0001,-124.2967 934.0001,-124.2966"/>
</g>
</g>
</svg>
