<?xml version="1.0" encoding="UTF-8" standalone="no"?>
<!DOCTYPE svg PUBLIC "-//W3C//DTD SVG 1.1//EN"
 "http://www.w3.org/Graphics/SVG/1.1/DTD/svg11.dtd">
<!-- Generated by graphviz version 2.40.1 (20161225.0304)
 -->
<!-- Title: /home/oleg/Dev/riversim/source/river/common.hpp Pages: 1 -->
<svg width="1005pt" height="374pt"
 viewBox="0.00 0.00 1005.00 374.00" xmlns="http://www.w3.org/2000/svg" xmlns:xlink="http://www.w3.org/1999/xlink">
<g id="graph0" class="graph" transform="scale(1 1) rotate(0) translate(4 370)">
<title>/home/oleg/Dev/riversim/source/river/common.hpp</title>
<polygon fill="#ffffff" stroke="transparent" points="-4,4 -4,-370 1001,-370 1001,4 -4,4"/>
<!-- Node3 -->
<g id="node1" class="node">
<title>Node3</title>
<polygon fill="#bfbfbf" stroke="#000000" points="461.5,-335.5 461.5,-365.5 591.5,-365.5 591.5,-335.5 461.5,-335.5"/>
<text text-anchor="start" x="469.5" y="-353.5" font-family="Helvetica,sans-Serif" font-size="10.00" fill="#000000">/home/oleg/Dev/riversim</text>
<text text-anchor="middle" x="526.5" y="-342.5" font-family="Helvetica,sans-Serif" font-size="10.00" fill="#000000">/source/river/common.hpp</text>
</g>
<!-- Node4 -->
<g id="node2" class="node">
<title>Node4</title>
<g id="a_node2"><a xlink:href="border_8hpp.html" target="_top" xlink:title="Generate initial predefinide border geometry and its source positions. ">
<polygon fill="#ffffff" stroke="#000000" points="180,-268.5 180,-298.5 303,-298.5 303,-268.5 180,-268.5"/>
<text text-anchor="start" x="188" y="-286.5" font-family="Helvetica,sans-Serif" font-size="10.00" fill="#000000">/home/oleg/Dev/riversim</text>
<text text-anchor="middle" x="241.5" y="-275.5" font-family="Helvetica,sans-Serif" font-size="10.00" fill="#000000">/source/river/border.hpp</text>
</a>
</g>
</g>
<!-- Node3&#45;&gt;Node4 -->
<g id="edge1" class="edge">
<title>Node3&#45;&gt;Node4</title>
<path fill="none" stroke="#191970" d="M452.5527,-333.1159C406.1977,-322.2184 347.1371,-308.334 303.2886,-298.0257"/>
<polygon fill="#191970" stroke="#191970" points="452.0048,-336.5824 462.5404,-335.4639 453.6068,-329.7682 452.0048,-336.5824"/>
</g>
<!-- Node11 -->
<g id="node9" class="node">
<title>Node11</title>
<g id="a_node9"><a xlink:href="tree_8hpp.html" target="_top" xlink:title="Holds all functionality that you need to work with tree of river, its separate branches and generatio...">
<polygon fill="#ffffff" stroke="#000000" points="282,-201.5 282,-231.5 405,-231.5 405,-201.5 282,-201.5"/>
<text text-anchor="start" x="290" y="-219.5" font-family="Helvetica,sans-Serif" font-size="10.00" fill="#000000">/home/oleg/Dev/riversim</text>
<text text-anchor="middle" x="343.5" y="-208.5" font-family="Helvetica,sans-Serif" font-size="10.00" fill="#000000">/source/river/tree.hpp</text>
</a>
</g>
</g>
<!-- Node3&#45;&gt;Node11 -->
<g id="edge28" class="edge">
<title>Node3&#45;&gt;Node11</title>
<path fill="none" stroke="#191970" d="M493.3579,-329.8645C479.048,-320.7073 462.2425,-309.6178 447.5,-299 416.4559,-276.6415 381.9431,-248.5903 361.5133,-231.6303"/>
<polygon fill="#191970" stroke="#191970" points="491.5872,-332.8861 501.9046,-335.295 495.3413,-326.9779 491.5872,-332.8861"/>
</g>
<!-- Node13 -->
<g id="node11" class="node">
<title>Node13</title>
<g id="a_node11"><a xlink:href="common_8cpp.html" target="_top" xlink:title="/home/oleg/Dev/riversim\l/source/river/common.cpp">
<polygon fill="#ffffff" stroke="#000000" points="652.5,-268.5 652.5,-298.5 782.5,-298.5 782.5,-268.5 652.5,-268.5"/>
<text text-anchor="start" x="660.5" y="-286.5" font-family="Helvetica,sans-Serif" font-size="10.00" fill="#000000">/home/oleg/Dev/riversim</text>
<text text-anchor="middle" x="717.5" y="-275.5" font-family="Helvetica,sans-Serif" font-size="10.00" fill="#000000">/source/river/common.cpp</text>
</a>
</g>
</g>
<!-- Node3&#45;&gt;Node13 -->
<g id="edge13" class="edge">
<title>Node3&#45;&gt;Node13</title>
<path fill="none" stroke="#191970" d="M578.8419,-332.1392C608.8771,-321.6033 646.1245,-308.5375 674.4489,-298.6017"/>
<polygon fill="#191970" stroke="#191970" points="577.6418,-328.851 569.3641,-335.4639 579.959,-335.4564 577.6418,-328.851"/>
</g>
<!-- Node14 -->
<g id="node12" class="node">
<title>Node14</title>
<g id="a_node12"><a xlink:href="physmodel_8hpp.html" target="_top" xlink:title="Physical model incapsulation. ">
<polygon fill="#ffffff" stroke="#000000" points="456.5,-268.5 456.5,-298.5 596.5,-298.5 596.5,-268.5 456.5,-268.5"/>
<text text-anchor="start" x="464.5" y="-286.5" font-family="Helvetica,sans-Serif" font-size="10.00" fill="#000000">/home/oleg/Dev/riversim</text>
<text text-anchor="middle" x="526.5" y="-275.5" font-family="Helvetica,sans-Serif" font-size="10.00" fill="#000000">/source/river/physmodel.hpp</text>
</a>
</g>
</g>
<!-- Node3&#45;&gt;Node14 -->
<g id="edge14" class="edge">
<title>Node3&#45;&gt;Node14</title>
<path fill="none" stroke="#191970" d="M526.5,-325.0249C526.5,-316.128 526.5,-306.4287 526.5,-298.6432"/>
<polygon fill="#191970" stroke="#191970" points="523.0001,-325.2966 526.5,-335.2967 530.0001,-325.2967 523.0001,-325.2966"/>
</g>
<!-- Node20 -->
<g id="node18" class="node">
<title>Node20</title>
<g id="a_node18"><a xlink:href="solver_8hpp.html" target="_top" xlink:title="PDE Solver and Integration tool. ">
<polygon fill="#ffffff" stroke="#000000" points="874,-201.5 874,-231.5 997,-231.5 997,-201.5 874,-201.5"/>
<text text-anchor="start" x="882" y="-219.5" font-family="Helvetica,sans-Serif" font-size="10.00" fill="#000000">/home/oleg/Dev/riversim</text>
<text text-anchor="middle" x="935.5" y="-208.5" font-family="Helvetica,sans-Serif" font-size="10.00" fill="#000000">/source/river/solver.hpp</text>
</a>
</g>
</g>
<!-- Node3&#45;&gt;Node20 -->
<g id="edge29" class="edge">
<title>Node3&#45;&gt;Node20</title>
<path fill="none" stroke="#191970" d="M559.7123,-329.9613C574.0346,-320.8212 590.8304,-309.7183 605.5,-299 623.0988,-286.1414 623.6241,-276.9449 643.5,-268 734.2502,-227.1589 766.7405,-250.6195 864.5,-232 867.5985,-231.4099 870.7689,-230.7872 873.9676,-230.1439"/>
<polygon fill="#191970" stroke="#191970" points="557.733,-327.0719 551.1554,-335.3777 561.4769,-332.9866 557.733,-327.0719"/>
</g>
<!-- Node5 -->
<g id="node3" class="node">
<title>Node5</title>
<g id="a_node3"><a xlink:href="border_8cpp.html" target="_top" xlink:title="/home/oleg/Dev/riversim\l/source/river/border.cpp">
<polygon fill="#ffffff" stroke="#000000" points="0,-201.5 0,-231.5 123,-231.5 123,-201.5 0,-201.5"/>
<text text-anchor="start" x="8" y="-219.5" font-family="Helvetica,sans-Serif" font-size="10.00" fill="#000000">/home/oleg/Dev/riversim</text>
<text text-anchor="middle" x="61.5" y="-208.5" font-family="Helvetica,sans-Serif" font-size="10.00" fill="#000000">/source/river/border.cpp</text>
</a>
</g>
</g>
<!-- Node4&#45;&gt;Node5 -->
<g id="edge2" class="edge">
<title>Node4&#45;&gt;Node5</title>
<path fill="none" stroke="#191970" d="M191.4358,-264.865C163.26,-254.3773 128.5337,-241.4515 102.0717,-231.6017"/>
<polygon fill="#191970" stroke="#191970" points="190.5117,-268.2556 201.1045,-268.4639 192.9536,-261.6953 190.5117,-268.2556"/>
</g>
<!-- Node6 -->
<g id="node4" class="node">
<title>Node6</title>
<g id="a_node4"><a xlink:href="io_8hpp.html" target="_top" xlink:title="Contains functionality to read and write state of program(simulation data). ">
<polygon fill="#ffffff" stroke="#000000" points="180,-134.5 180,-164.5 303,-164.5 303,-134.5 180,-134.5"/>
<text text-anchor="start" x="188" y="-152.5" font-family="Helvetica,sans-Serif" font-size="10.00" fill="#000000">/home/oleg/Dev/riversim</text>
<text text-anchor="middle" x="241.5" y="-141.5" font-family="Helvetica,sans-Serif" font-size="10.00" fill="#000000">/source/river/io.hpp</text>
</a>
</g>
</g>
<!-- Node4&#45;&gt;Node6 -->
<g id="edge3" class="edge">
<title>Node4&#45;&gt;Node6</title>
<path fill="none" stroke="#191970" d="M241.5,-258.3415C241.5,-230.8131 241.5,-187.5714 241.5,-164.7614"/>
<polygon fill="#191970" stroke="#191970" points="238.0001,-258.3889 241.5,-268.389 245.0001,-258.389 238.0001,-258.3889"/>
</g>
<!-- Node8 -->
<g id="node6" class="node">
<title>Node8</title>
<g id="a_node6"><a xlink:href="riversim_8hpp.html" target="_top" xlink:title="Rivers Simulation. ">
<polygon fill="#ffffff" stroke="#000000" points="358,-67.5 358,-97.5 485,-97.5 485,-67.5 358,-67.5"/>
<text text-anchor="start" x="366" y="-85.5" font-family="Helvetica,sans-Serif" font-size="10.00" fill="#000000">/home/oleg/Dev/riversim</text>
<text text-anchor="middle" x="421.5" y="-74.5" font-family="Helvetica,sans-Serif" font-size="10.00" fill="#000000">/source/river/riversim.hpp</text>
</a>
</g>
</g>
<!-- Node4&#45;&gt;Node8 -->
<g id="edge12" class="edge">
<title>Node4&#45;&gt;Node8</title>
<path fill="none" stroke="#191970" d="M216.6064,-261.2286C184.9947,-230.2691 138.2185,-173.5775 170.5,-134 182.3442,-119.4789 287.3377,-101.762 357.7269,-91.3473"/>
<polygon fill="#191970" stroke="#191970" points="214.2167,-263.7861 223.8682,-268.1563 219.0486,-258.7212 214.2167,-263.7861"/>
</g>
<!-- Node4&#45;&gt;Node11 -->
<g id="edge8" class="edge">
<title>Node4&#45;&gt;Node11</title>
<path fill="none" stroke="#191970" d="M273.0209,-262.7951C288.3045,-252.7558 306.3348,-240.9124 320.3327,-231.7177"/>
<polygon fill="#191970" stroke="#191970" points="270.8274,-260.0484 264.3908,-268.4639 274.6705,-265.8991 270.8274,-260.0484"/>
</g>
<!-- Node7 -->
<g id="node5" class="node">
<title>Node7</title>
<g id="a_node5"><a xlink:href="io_8cpp.html" target="_top" xlink:title="/home/oleg/Dev/riversim\l/source/river/io.cpp">
<polygon fill="#ffffff" stroke="#000000" points="180,-67.5 180,-97.5 303,-97.5 303,-67.5 180,-67.5"/>
<text text-anchor="start" x="188" y="-85.5" font-family="Helvetica,sans-Serif" font-size="10.00" fill="#000000">/home/oleg/Dev/riversim</text>
<text text-anchor="middle" x="241.5" y="-74.5" font-family="Helvetica,sans-Serif" font-size="10.00" fill="#000000">/source/river/io.cpp</text>
</a>
</g>
</g>
<!-- Node6&#45;&gt;Node7 -->
<g id="edge4" class="edge">
<title>Node6&#45;&gt;Node7</title>
<path fill="none" stroke="#191970" d="M241.5,-124.0249C241.5,-115.128 241.5,-105.4287 241.5,-97.6432"/>
<polygon fill="#191970" stroke="#191970" points="238.0001,-124.2966 241.5,-134.2967 245.0001,-124.2967 238.0001,-124.2966"/>
</g>
<!-- Node6&#45;&gt;Node8 -->
<g id="edge5" class="edge">
<title>Node6&#45;&gt;Node8</title>
<path fill="none" stroke="#191970" d="M291.5642,-130.865C319.74,-120.3773 354.4663,-107.4515 380.9283,-97.6017"/>
<polygon fill="#191970" stroke="#191970" points="290.0464,-127.6953 281.8955,-134.4639 292.4883,-134.2556 290.0464,-127.6953"/>
</g>
<!-- Node9 -->
<g id="node7" class="node">
<title>Node9</title>
<g id="a_node7"><a xlink:href="main_8cpp.html" target="_top" xlink:title="Entry point of program and main loop handler. ">
<polygon fill="#ffffff" stroke="#000000" points="288,-.5 288,-30.5 411,-30.5 411,-.5 288,-.5"/>
<text text-anchor="start" x="296" y="-18.5" font-family="Helvetica,sans-Serif" font-size="10.00" fill="#000000">/home/oleg/Dev/riversim</text>
<text text-anchor="middle" x="349.5" y="-7.5" font-family="Helvetica,sans-Serif" font-size="10.00" fill="#000000">/source/main.cpp</text>
</a>
</g>
</g>
<!-- Node8&#45;&gt;Node9 -->
<g id="edge6" class="edge">
<title>Node8&#45;&gt;Node9</title>
<path fill="none" stroke="#191970" d="M397.548,-60.2113C387.1129,-50.5009 375.1512,-39.3698 365.7733,-30.6432"/>
<polygon fill="#191970" stroke="#191970" points="395.4571,-63.0466 405.1621,-67.2967 400.2257,-57.9221 395.4571,-63.0466"/>
</g>
<!-- Node10 -->
<g id="node8" class="node">
<title>Node10</title>
<g id="a_node8"><a xlink:href="riversim_8cpp.html" target="_top" xlink:title="/home/oleg/Dev/riversim\l/source/river/riversim.cpp">
<polygon fill="#ffffff" stroke="#000000" points="429,-.5 429,-30.5 556,-30.5 556,-.5 429,-.5"/>
<text text-anchor="start" x="437" y="-18.5" font-family="Helvetica,sans-Serif" font-size="10.00" fill="#000000">/home/oleg/Dev/riversim</text>
<text text-anchor="middle" x="492.5" y="-7.5" font-family="Helvetica,sans-Serif" font-size="10.00" fill="#000000">/source/river/riversim.cpp</text>
</a>
</g>
</g>
<!-- Node8&#45;&gt;Node10 -->
<g id="edge7" class="edge">
<title>Node8&#45;&gt;Node10</title>
<path fill="none" stroke="#191970" d="M445.1194,-60.2113C455.4095,-50.5009 467.2051,-39.3698 476.4528,-30.6432"/>
<polygon fill="#191970" stroke="#191970" points="442.4819,-57.8879 437.611,-67.2967 447.2861,-62.979 442.4819,-57.8879"/>
</g>
<!-- Node11&#45;&gt;Node6 -->
<g id="edge9" class="edge">
<title>Node11&#45;&gt;Node6</title>
<path fill="none" stroke="#191970" d="M311.9791,-195.7951C296.6955,-185.7558 278.6652,-173.9124 264.6673,-164.7177"/>
<polygon fill="#191970" stroke="#191970" points="310.3295,-198.8991 320.6092,-201.4639 314.1726,-193.0484 310.3295,-198.8991"/>
</g>
<!-- Node11&#45;&gt;Node8 -->
<g id="edge10" class="edge">
<title>Node11&#45;&gt;Node8</title>
<path fill="none" stroke="#191970" d="M340.3711,-191.0143C339.4791,-173.8365 340.7611,-151.2505 350.5,-134 359.3338,-118.3528 375.1088,-106.1885 389.5493,-97.6207"/>
<polygon fill="#191970" stroke="#191970" points="336.9166,-191.7227 341.2042,-201.4112 343.8942,-191.1635 336.9166,-191.7227"/>
</g>
<!-- Node12 -->
<g id="node10" class="node">
<title>Node12</title>
<g id="a_node10"><a xlink:href="tree_8cpp.html" target="_top" xlink:title="/home/oleg/Dev/riversim\l/source/river/tree.cpp">
<polygon fill="#ffffff" stroke="#000000" points="360,-134.5 360,-164.5 483,-164.5 483,-134.5 360,-134.5"/>
<text text-anchor="start" x="368" y="-152.5" font-family="Helvetica,sans-Serif" font-size="10.00" fill="#000000">/home/oleg/Dev/riversim</text>
<text text-anchor="middle" x="421.5" y="-141.5" font-family="Helvetica,sans-Serif" font-size="10.00" fill="#000000">/source/river/tree.cpp</text>
</a>
</g>
</g>
<!-- Node11&#45;&gt;Node12 -->
<g id="edge11" class="edge">
<title>Node11&#45;&gt;Node12</title>
<path fill="none" stroke="#191970" d="M369.116,-194.4965C380.4984,-184.7193 393.6116,-173.4554 403.8706,-164.6432"/>
<polygon fill="#191970" stroke="#191970" points="366.5045,-192.1257 361.1994,-201.2967 371.0657,-197.4357 366.5045,-192.1257"/>
</g>
<!-- Node14&#45;&gt;Node6 -->
<g id="edge15" class="edge">
<title>Node14&#45;&gt;Node6</title>
<path fill="none" stroke="#191970" d="M501.9178,-261.7088C480.0424,-243.2962 446.4897,-217.3768 413.5,-201 378.6,-183.6749 336.774,-170.9903 303.1066,-162.5451"/>
<polygon fill="#191970" stroke="#191970" points="499.8282,-264.527 509.7044,-268.3625 504.3756,-259.2053 499.8282,-264.527"/>
</g>
<!-- Node14&#45;&gt;Node8 -->
<g id="edge27" class="edge">
<title>Node14&#45;&gt;Node8</title>
<path fill="none" stroke="#191970" d="M525.8154,-257.9983C523.8495,-226.4434 516.7139,-172.2142 491.5,-134 481.446,-118.7622 465.2579,-106.4235 450.9804,-97.6477"/>
<polygon fill="#191970" stroke="#191970" points="522.3276,-258.3352 526.3163,-268.1506 529.3191,-257.9902 522.3276,-258.3352"/>
</g>
<!-- Node14&#45;&gt;Node11 -->
<g id="edge16" class="edge">
<title>Node14&#45;&gt;Node11</title>
<path fill="none" stroke="#191970" d="M475.9763,-265.0023C447.2645,-254.4903 411.7685,-241.4945 384.7479,-231.6017"/>
<polygon fill="#191970" stroke="#191970" points="474.8375,-268.3125 485.4312,-268.4639 477.2441,-261.7392 474.8375,-268.3125"/>
</g>
<!-- Node15 -->
<g id="node13" class="node">
<title>Node15</title>
<g id="a_node13"><a xlink:href="triangle_8hpp.html" target="_top" xlink:title="Piece of Art Mesh Generation Tool, Winner of the 2003 James Hardy Wilkinson Prize in Numerical Softwa...">
<polygon fill="#ffffff" stroke="#000000" points="573.5,-201.5 573.5,-231.5 697.5,-231.5 697.5,-201.5 573.5,-201.5"/>
<text text-anchor="start" x="581.5" y="-219.5" font-family="Helvetica,sans-Serif" font-size="10.00" fill="#000000">/home/oleg/Dev/riversim</text>
<text text-anchor="middle" x="635.5" y="-208.5" font-family="Helvetica,sans-Serif" font-size="10.00" fill="#000000">/source/river/triangle.hpp</text>
</a>
</g>
</g>
<!-- Node14&#45;&gt;Node15 -->
<g id="edge17" class="edge">
<title>Node14&#45;&gt;Node15</title>
<path fill="none" stroke="#191970" d="M559.727,-263.0761C576.1561,-252.9774 595.6445,-240.9983 610.7428,-231.7177"/>
<polygon fill="#191970" stroke="#191970" points="557.6482,-260.2455 550.9617,-268.4639 561.3138,-266.209 557.6482,-260.2455"/>
</g>
<!-- Node16 -->
<g id="node14" class="node">
<title>Node16</title>
<g id="a_node14"><a xlink:href="mesh_8hpp.html" target="_top" xlink:title="Wrappers class of Triangle. ">
<polygon fill="#ffffff" stroke="#000000" points="540,-134.5 540,-164.5 663,-164.5 663,-134.5 540,-134.5"/>
<text text-anchor="start" x="548" y="-152.5" font-family="Helvetica,sans-Serif" font-size="10.00" fill="#000000">/home/oleg/Dev/riversim</text>
<text text-anchor="middle" x="601.5" y="-141.5" font-family="Helvetica,sans-Serif" font-size="10.00" fill="#000000">/source/river/mesh.hpp</text>
</a>
</g>
</g>
<!-- Node14&#45;&gt;Node16 -->
<g id="edge22" class="edge">
<title>Node14&#45;&gt;Node16</title>
<path fill="none" stroke="#191970" d="M536.3797,-258.8669C543.4408,-242.1366 553.5913,-219.7331 564.5,-201 571.9237,-188.2516 581.7132,-174.7388 589.3578,-164.7548"/>
<polygon fill="#191970" stroke="#191970" points="532.9965,-257.8889 532.4033,-268.4671 539.4637,-260.5676 532.9965,-257.8889"/>
</g>
<!-- Node19 -->
<g id="node17" class="node">
<title>Node19</title>
<g id="a_node17"><a xlink:href="physmodel_8cpp.html" target="_top" xlink:title="/home/oleg/Dev/riversim\l/source/river/physmodel.cpp">
<polygon fill="#ffffff" stroke="#000000" points="715.5,-201.5 715.5,-231.5 855.5,-231.5 855.5,-201.5 715.5,-201.5"/>
<text text-anchor="start" x="723.5" y="-219.5" font-family="Helvetica,sans-Serif" font-size="10.00" fill="#000000">/home/oleg/Dev/riversim</text>
<text text-anchor="middle" x="785.5" y="-208.5" font-family="Helvetica,sans-Serif" font-size="10.00" fill="#000000">/source/river/physmodel.cpp</text>
</a>
</g>
</g>
<!-- Node14&#45;&gt;Node19 -->
<g id="edge23" class="edge">
<title>Node14&#45;&gt;Node19</title>
<path fill="none" stroke="#191970" d="M594.3233,-265.955C635.573,-255.2842 687.7157,-241.7955 727.1218,-231.6017"/>
<polygon fill="#191970" stroke="#191970" points="593.4294,-262.5709 584.6247,-268.4639 595.1825,-269.3478 593.4294,-262.5709"/>
</g>
<!-- Node14&#45;&gt;Node20 -->
<g id="edge24" class="edge">
<title>Node14&#45;&gt;Node20</title>
<path fill="none" stroke="#191970" d="M606.6424,-268.6351C607.9373,-268.42 609.2239,-268.2081 610.5,-268 723.031,-249.6512 752.2817,-252.173 864.5,-232 867.6044,-231.4419 870.7796,-230.845 873.9821,-230.2222"/>
<polygon fill="#191970" stroke="#191970" points="605.8618,-265.2175 596.5883,-270.3413 607.033,-272.1188 605.8618,-265.2175"/>
</g>
<!-- Node15&#45;&gt;Node16 -->
<g id="edge18" class="edge">
<title>Node15&#45;&gt;Node16</title>
<path fill="none" stroke="#191970" d="M623.1652,-192.1932C618.4921,-182.9844 613.3091,-172.771 609.1846,-164.6432"/>
<polygon fill="#191970" stroke="#191970" points="620.1384,-193.963 627.7849,-201.2967 626.3807,-190.7953 620.1384,-193.963"/>
</g>
<!-- Node18 -->
<g id="node16" class="node">
<title>Node18</title>
<g id="a_node16"><a xlink:href="triangle_8cpp.html" target="_top" xlink:title="/home/oleg/Dev/riversim\l/source/river/triangle.cpp">
<polygon fill="#ffffff" stroke="#000000" points="681.5,-134.5 681.5,-164.5 805.5,-164.5 805.5,-134.5 681.5,-134.5"/>
<text text-anchor="start" x="689.5" y="-152.5" font-family="Helvetica,sans-Serif" font-size="10.00" fill="#000000">/home/oleg/Dev/riversim</text>
<text text-anchor="middle" x="743.5" y="-141.5" font-family="Helvetica,sans-Serif" font-size="10.00" fill="#000000">/source/river/triangle.cpp</text>
</a>
</g>
</g>
<!-- Node15&#45;&gt;Node18 -->
<g id="edge21" class="edge">
<title>Node15&#45;&gt;Node18</title>
<path fill="none" stroke="#191970" d="M668.4221,-196.0761C684.7005,-185.9774 704.0101,-173.9983 718.9699,-164.7177"/>
<polygon fill="#191970" stroke="#191970" points="666.3898,-193.218 659.7373,-201.4639 670.08,-199.1663 666.3898,-193.218"/>
</g>
<!-- Node16&#45;&gt;Node8 -->
<g id="edge20" class="edge">
<title>Node16&#45;&gt;Node8</title>
<path fill="none" stroke="#191970" d="M551.4358,-130.865C523.26,-120.3773 488.5337,-107.4515 462.0717,-97.6017"/>
<polygon fill="#191970" stroke="#191970" points="550.5117,-134.2556 561.1045,-134.4639 552.9536,-127.6953 550.5117,-134.2556"/>
</g>
<!-- Node17 -->
<g id="node15" class="node">
<title>Node17</title>
<g id="a_node15"><a xlink:href="mesh_8cpp.html" target="_top" xlink:title="/home/oleg/Dev/riversim\l/source/river/mesh.cpp">
<polygon fill="#ffffff" stroke="#000000" points="540,-67.5 540,-97.5 663,-97.5 663,-67.5 540,-67.5"/>
<text text-anchor="start" x="548" y="-85.5" font-family="Helvetica,sans-Serif" font-size="10.00" fill="#000000">/home/oleg/Dev/riversim</text>
<text text-anchor="middle" x="601.5" y="-74.5" font-family="Helvetica,sans-Serif" font-size="10.00" fill="#000000">/source/river/mesh.cpp</text>
</a>
</g>
</g>
<!-- Node16&#45;&gt;Node17 -->
<g id="edge19" class="edge">
<title>Node16&#45;&gt;Node17</title>
<path fill="none" stroke="#191970" d="M601.5,-124.0249C601.5,-115.128 601.5,-105.4287 601.5,-97.6432"/>
<polygon fill="#191970" stroke="#191970" points="598.0001,-124.2966 601.5,-134.2967 605.0001,-124.2967 598.0001,-124.2966"/>
</g>
<!-- Node20&#45;&gt;Node8 -->
<g id="edge25" class="edge">
<title>Node20&#45;&gt;Node8</title>
<path fill="none" stroke="#191970" d="M906.2352,-195.4828C873.7365,-172.3146 824.5121,-137.7944 814.5,-134 695.525,-88.9111 656.5973,-114.9567 530.5,-98 515.8188,-96.0258 500.037,-93.8263 485.1664,-91.719"/>
<polygon fill="#191970" stroke="#191970" points="904.3355,-198.427 914.507,-201.3919 908.4045,-192.7311 904.3355,-198.427"/>
</g>
<!-- Node21 -->
<g id="node19" class="node">
<title>Node21</title>
<g id="a_node19"><a xlink:href="solver_8cpp.html" target="_top" xlink:title="/home/oleg/Dev/riversim\l/source/river/solver.cpp">
<polygon fill="#ffffff" stroke="#000000" points="874,-134.5 874,-164.5 997,-164.5 997,-134.5 874,-134.5"/>
<text text-anchor="start" x="882" y="-152.5" font-family="Helvetica,sans-Serif" font-size="10.00" fill="#000000">/home/oleg/Dev/riversim</text>
<text text-anchor="middle" x="935.5" y="-141.5" font-family="Helvetica,sans-Serif" font-size="10.00" fill="#000000">/source/river/solver.cpp</text>
</a>
</g>
</g>
<!-- Node20&#45;&gt;Node21 -->
<g id="edge26" class="edge">
<title>Node20&#45;&gt;Node21</title>
<path fill="none" stroke="#191970" d="M935.5,-191.0249C935.5,-182.128 935.5,-172.4287 935.5,-164.6432"/>
<polygon fill="#191970" stroke="#191970" points="932.0001,-191.2966 935.5,-201.2967 939.0001,-191.2967 932.0001,-191.2966"/>
</g>
</g>
</svg>
