<?xml version="1.0" encoding="UTF-8" standalone="no"?>
<!DOCTYPE svg PUBLIC "-//W3C//DTD SVG 1.1//EN"
 "http://www.w3.org/Graphics/SVG/1.1/DTD/svg11.dtd">
<!-- Generated by graphviz version 2.40.1 (20161225.0304)
 -->
<!-- Title: /home/oleg/Dev/riversim/source/river/common.cpp Pages: 1 -->
<svg width="190pt" height="151pt"
 viewBox="0.00 0.00 190.00 151.00" xmlns="http://www.w3.org/2000/svg" xmlns:xlink="http://www.w3.org/1999/xlink">
<g id="graph0" class="graph" transform="scale(1 1) rotate(0) translate(4 147)">
<title>/home/oleg/Dev/riversim/source/river/common.cpp</title>
<polygon fill="#ffffff" stroke="transparent" points="-4,4 -4,-147 186,-147 186,4 -4,4"/>
<!-- Node0 -->
<g id="node1" class="node">
<title>Node0</title>
<polygon fill="#bfbfbf" stroke="#000000" points="21,-112.5 21,-142.5 151,-142.5 151,-112.5 21,-112.5"/>
<text text-anchor="start" x="29" y="-130.5" font-family="Helvetica,sans-Serif" font-size="10.00" fill="#000000">/home/oleg/Dev/riversim</text>
<text text-anchor="middle" x="86" y="-119.5" font-family="Helvetica,sans-Serif" font-size="10.00" fill="#000000">/source/river/common.cpp</text>
</g>
<!-- Node1 -->
<g id="node2" class="node">
<title>Node1</title>
<g id="a_node2"><a xlink:href="common_8hpp.html" target="_top" xlink:title="common.hpp">
<polygon fill="#ffffff" stroke="#000000" points="49.5,-56.5 49.5,-75.5 122.5,-75.5 122.5,-56.5 49.5,-56.5"/>
<text text-anchor="middle" x="86" y="-63.5" font-family="Helvetica,sans-Serif" font-size="10.00" fill="#000000">common.hpp</text>
</a>
</g>
</g>
<!-- Node0&#45;&gt;Node1 -->
<g id="edge1" class="edge">
<title>Node0&#45;&gt;Node1</title>
<path fill="none" stroke="#191970" d="M86,-112.2977C86,-104.3834 86,-94.6043 86,-86.0759"/>
<polygon fill="#191970" stroke="#191970" points="89.5001,-85.8469 86,-75.8469 82.5001,-85.847 89.5001,-85.8469"/>
</g>
<!-- Node2 -->
<g id="node3" class="node">
<title>Node2</title>
<polygon fill="#ffffff" stroke="#bfbfbf" points="0,-.5 0,-19.5 44,-19.5 44,-.5 0,-.5"/>
<text text-anchor="middle" x="22" y="-7.5" font-family="Helvetica,sans-Serif" font-size="10.00" fill="#000000">vector</text>
</g>
<!-- Node1&#45;&gt;Node2 -->
<g id="edge2" class="edge">
<title>Node1&#45;&gt;Node2</title>
<path fill="none" stroke="#191970" d="M74.8521,-56.2455C65.4913,-48.0549 51.9142,-36.1749 40.8651,-26.5069"/>
<polygon fill="#191970" stroke="#191970" points="42.8508,-23.5937 33.0202,-19.6427 38.2412,-28.8618 42.8508,-23.5937"/>
</g>
<!-- Node3 -->
<g id="node4" class="node">
<title>Node3</title>
<polygon fill="#ffffff" stroke="#bfbfbf" points="62.5,-.5 62.5,-19.5 109.5,-19.5 109.5,-.5 62.5,-.5"/>
<text text-anchor="middle" x="86" y="-7.5" font-family="Helvetica,sans-Serif" font-size="10.00" fill="#000000">math.h</text>
</g>
<!-- Node1&#45;&gt;Node3 -->
<g id="edge3" class="edge">
<title>Node1&#45;&gt;Node3</title>
<path fill="none" stroke="#191970" d="M86,-56.2455C86,-48.9382 86,-38.6944 86,-29.7046"/>
<polygon fill="#191970" stroke="#191970" points="89.5001,-29.6426 86,-19.6427 82.5001,-29.6427 89.5001,-29.6426"/>
</g>
<!-- Node4 -->
<g id="node5" class="node">
<title>Node4</title>
<polygon fill="#ffffff" stroke="#bfbfbf" points="128,-.5 128,-19.5 182,-19.5 182,-.5 128,-.5"/>
<text text-anchor="middle" x="155" y="-7.5" font-family="Helvetica,sans-Serif" font-size="10.00" fill="#000000">iostream</text>
</g>
<!-- Node1&#45;&gt;Node4 -->
<g id="edge4" class="edge">
<title>Node1&#45;&gt;Node4</title>
<path fill="none" stroke="#191970" d="M98.0189,-56.2455C108.2098,-47.9746 123.0362,-35.9416 135.0107,-26.2232"/>
<polygon fill="#191970" stroke="#191970" points="137.5598,-28.662 143.1188,-19.6427 133.1486,-23.2268 137.5598,-28.662"/>
</g>
</g>
</svg>
