<?xml version="1.0" encoding="UTF-8" standalone="no"?>
<!DOCTYPE svg PUBLIC "-//W3C//DTD SVG 1.1//EN"
 "http://www.w3.org/Graphics/SVG/1.1/DTD/svg11.dtd">
<!-- Generated by graphviz version 2.40.1 (20161225.0304)
 -->
<!-- Title: /home/oleg/Dev/riversim/source/river Pages: 1 -->
<svg width="182pt" height="183pt"
 viewBox="0.00 0.00 182.00 183.00" xmlns="http://www.w3.org/2000/svg" xmlns:xlink="http://www.w3.org/1999/xlink">
<g id="graph0" class="graph" transform="scale(1 1) rotate(0) translate(4 179)">
<title>/home/oleg/Dev/riversim/source/river</title>
<polygon fill="#ffffff" stroke="transparent" points="-4,4 -4,-179 178,-179 178,4 -4,4"/>
<g id="clust1" class="cluster">
<title>clusterdir_b2f33c71d4aa5e7af42a1ca61ff5af1b</title>
<g id="a_clust1"><a xlink:href="dir_b2f33c71d4aa5e7af42a1ca61ff5af1b.html" target="_top" xlink:title="source">
<polygon fill="#ddddee" stroke="#000000" points="8,-8 8,-167 166,-167 166,-8 8,-8"/>
<text text-anchor="middle" x="87" y="-155" font-family="Helvetica,sans-Serif" font-size="10.00" fill="#000000">source</text>
</a>
</g>
</g>
<g id="clust2" class="cluster">
<title>clusterdir_a07bdcd05b157d48c3e72e1e762adea9</title>
<g id="a_clust2"><a xlink:href="dir_a07bdcd05b157d48c3e72e1e762adea9.html" target="_top">
<polygon fill="#eeeeff" stroke="#000000" points="16,-16 16,-140 158,-140 158,-16 16,-16"/>
</a>
</g>
</g>
<!-- dir_a07bdcd05b157d48c3e72e1e762adea9 -->
<g id="node1" class="node">
<title>dir_a07bdcd05b157d48c3e72e1e762adea9</title>
<text text-anchor="middle" x="123" y="-111.5" font-family="Helvetica,sans-Serif" font-size="10.00" fill="#000000">river</text>
</g>
<!-- dir_6c74b1ca143d3b981b9c079bd84b5b8c -->
<g id="node2" class="node">
<title>dir_6c74b1ca143d3b981b9c079bd84b5b8c</title>
<g id="a_node2"><a xlink:href="dir_6c74b1ca143d3b981b9c079bd84b5b8c.html" target="_top" xlink:title="tethex">
<polygon fill="#ffffff" stroke="#000000" points="150,-60 96,-60 96,-24 150,-24 150,-60"/>
<text text-anchor="middle" x="123" y="-39.5" font-family="Helvetica,sans-Serif" font-size="10.00" fill="#000000">tethex</text>
</a>
</g>
</g>
<!-- dir_a07bdcd05b157d48c3e72e1e762adea9&#45;&gt;dir_6c74b1ca143d3b981b9c079bd84b5b8c -->
<g id="edge1" class="edge">
<title>dir_a07bdcd05b157d48c3e72e1e762adea9&#45;&gt;dir_6c74b1ca143d3b981b9c079bd84b5b8c</title>
<path fill="none" stroke="#000000" d="M123,-95.8314C123,-88.131 123,-78.9743 123,-70.4166"/>
<polygon fill="#000000" stroke="#000000" points="126.5001,-70.4132 123,-60.4133 119.5001,-70.4133 126.5001,-70.4132"/>
<g id="a_edge1&#45;headlabel"><a xlink:href="dir_000001_000002.html" target="_top" xlink:title="5">
<text text-anchor="middle" x="129.3393" y="-71.5079" font-family="Helvetica,sans-Serif" font-size="10.00" fill="#000000">5</text>
</a>
</g>
</g>
<!-- dir_ad639954af4bd64cce1222d649fa2eda -->
<g id="node3" class="node">
<title>dir_ad639954af4bd64cce1222d649fa2eda</title>
<g id="a_node3"><a xlink:href="dir_ad639954af4bd64cce1222d649fa2eda.html" target="_top" xlink:title="triangle">
<polygon fill="#ffffff" stroke="#000000" points="78,-132 24,-132 24,-96 78,-96 78,-132"/>
<text text-anchor="middle" x="51" y="-111.5" font-family="Helvetica,sans-Serif" font-size="10.00" fill="#000000">triangle</text>
</a>
</g>
</g>
</g>
</svg>
