<?xml version="1.0" encoding="UTF-8" standalone="no"?>
<!DOCTYPE svg PUBLIC "-//W3C//DTD SVG 1.1//EN"
 "http://www.w3.org/Graphics/SVG/1.1/DTD/svg11.dtd">
<!-- Generated by graphviz version 2.40.1 (20161225.0304)
 -->
<!-- Title: riversim Pages: 1 -->
<svg width="263pt" height="111pt"
 viewBox="0.00 0.00 263.00 111.00" xmlns="http://www.w3.org/2000/svg" xmlns:xlink="http://www.w3.org/1999/xlink">
<g id="graph0" class="graph" transform="scale(1 1) rotate(0) translate(4 107)">
<title>riversim</title>
<polygon fill="#ffffff" stroke="transparent" points="-4,4 -4,-107 259,-107 259,4 -4,4"/>
<g id="clust1" class="cluster">
<title>clusterdir_5fc0168d11760b9445bd29fa15d9290f</title>
<g id="a_clust1"><a xlink:href="dir_5fc0168d11760b9445bd29fa15d9290f.html" target="_top" xlink:title="dev">
<polygon fill="#ddddee" stroke="#000000" points="8,-8 8,-95 247,-95 247,-8 8,-8"/>
<text text-anchor="middle" x="127.5" y="-83" font-family="Helvetica,sans-Serif" font-size="10.00" fill="#000000">dev</text>
</a>
</g>
</g>
<g id="clust2" class="cluster">
<title>clusterdir_f0a4ec96a82b60bf0c8435c1c452efce</title>
<g id="a_clust2"><a xlink:href="dir_f0a4ec96a82b60bf0c8435c1c452efce.html" target="_top">
<polygon fill="#eeeeff" stroke="#000000" points="16,-16 16,-68 239,-68 239,-16 16,-16"/>
</a>
</g>
</g>
<!-- dir_f0a4ec96a82b60bf0c8435c1c452efce -->
<g id="node1" class="node">
<title>dir_f0a4ec96a82b60bf0c8435c1c452efce</title>
<text text-anchor="middle" x="202" y="-39.5" font-family="Helvetica,sans-Serif" font-size="10.00" fill="#000000">riversim</text>
</g>
<!-- dir_77f412f26b44edccf3ca9adb0a1f23a2 -->
<g id="node2" class="node">
<title>dir_77f412f26b44edccf3ca9adb0a1f23a2</title>
<g id="a_node2"><a xlink:href="dir_77f412f26b44edccf3ca9adb0a1f23a2.html" target="_top" xlink:title="research">
<polygon fill="#ffffff" stroke="#ff0000" points="155.5,-60 96.5,-60 96.5,-24 155.5,-24 155.5,-60"/>
<text text-anchor="middle" x="126" y="-39.5" font-family="Helvetica,sans-Serif" font-size="10.00" fill="#000000">research</text>
</a>
</g>
</g>
<!-- dir_ea10287745709d215d39b27087a55ef8 -->
<g id="node3" class="node">
<title>dir_ea10287745709d215d39b27087a55ef8</title>
<g id="a_node3"><a xlink:href="dir_ea10287745709d215d39b27087a55ef8.html" target="_top" xlink:title="source">
<polygon fill="#ffffff" stroke="#ff0000" points="78,-60 24,-60 24,-24 78,-24 78,-60"/>
<text text-anchor="middle" x="51" y="-39.5" font-family="Helvetica,sans-Serif" font-size="10.00" fill="#000000">source</text>
</a>
</g>
</g>
</g>
</svg>
