<?xml version="1.0" encoding="UTF-8" standalone="no"?>
<!DOCTYPE svg PUBLIC "-//W3C//DTD SVG 1.1//EN"
 "http://www.w3.org/Graphics/SVG/1.1/DTD/svg11.dtd">
<!-- Generated by graphviz version 2.40.1 (20161225.0304)
 -->
<!-- Title: /home/oleg/Dev/riversim/source/river Pages: 1 -->
<svg width="110pt" height="183pt"
 viewBox="0.00 0.00 110.00 183.00" xmlns="http://www.w3.org/2000/svg" xmlns:xlink="http://www.w3.org/1999/xlink">
<g id="graph0" class="graph" transform="scale(1 1) rotate(0) translate(4 179)">
<title>/home/oleg/Dev/riversim/source/river</title>
<polygon fill="#ffffff" stroke="transparent" points="-4,4 -4,-179 106,-179 106,4 -4,4"/>
<g id="clust1" class="cluster">
<title>clusterdir_b2f33c71d4aa5e7af42a1ca61ff5af1b</title>
<g id="a_clust1"><a xlink:href="dir_b2f33c71d4aa5e7af42a1ca61ff5af1b.html" target="_top" xlink:title="source">
<polygon fill="#ddddee" stroke="#000000" points="8,-8 8,-167 94,-167 94,-8 8,-8"/>
<text text-anchor="middle" x="51" y="-155" font-family="Helvetica,sans-Serif" font-size="10.00" fill="#000000">source</text>
</a>
</g>
</g>
<g id="clust2" class="cluster">
<title>clusterdir_a07bdcd05b157d48c3e72e1e762adea9</title>
<g id="a_clust2"><a xlink:href="dir_a07bdcd05b157d48c3e72e1e762adea9.html" target="_top">
<polygon fill="#eeeeff" stroke="#000000" points="16,-16 16,-140 86,-140 86,-16 16,-16"/>
</a>
</g>
</g>
<!-- dir_a07bdcd05b157d48c3e72e1e762adea9 -->
<g id="node1" class="node">
<title>dir_a07bdcd05b157d48c3e72e1e762adea9</title>
<text text-anchor="middle" x="51" y="-111.5" font-family="Helvetica,sans-Serif" font-size="10.00" fill="#000000">river</text>
</g>
<!-- dir_6c74b1ca143d3b981b9c079bd84b5b8c -->
<g id="node2" class="node">
<title>dir_6c74b1ca143d3b981b9c079bd84b5b8c</title>
<g id="a_node2"><a xlink:href="dir_6c74b1ca143d3b981b9c079bd84b5b8c.html" target="_top" xlink:title="tethex">
<polygon fill="#ffffff" stroke="#000000" points="78,-60 24,-60 24,-24 78,-24 78,-60"/>
<text text-anchor="middle" x="51" y="-39.5" font-family="Helvetica,sans-Serif" font-size="10.00" fill="#000000">tethex</text>
</a>
</g>
</g>
<!-- dir_a07bdcd05b157d48c3e72e1e762adea9&#45;&gt;dir_6c74b1ca143d3b981b9c079bd84b5b8c -->
<g id="edge1" class="edge">
<title>dir_a07bdcd05b157d48c3e72e1e762adea9&#45;&gt;dir_6c74b1ca143d3b981b9c079bd84b5b8c</title>
<path fill="none" stroke="#000000" d="M51,-95.8314C51,-88.131 51,-78.9743 51,-70.4166"/>
<polygon fill="#000000" stroke="#000000" points="54.5001,-70.4132 51,-60.4133 47.5001,-70.4133 54.5001,-70.4132"/>
<g id="a_edge1&#45;headlabel"><a xlink:href="dir_000003_000004.html" target="_top" xlink:title="4">
<text text-anchor="middle" x="57.3393" y="-71.5079" font-family="Helvetica,sans-Serif" font-size="10.00" fill="#000000">4</text>
</a>
</g>
</g>
</g>
</svg>
