<?xml version="1.0" encoding="UTF-8" standalone="no"?>
<!DOCTYPE svg PUBLIC "-//W3C//DTD SVG 1.1//EN"
 "http://www.w3.org/Graphics/SVG/1.1/DTD/svg11.dtd">
<!-- Generated by graphviz version 2.40.1 (20161225.0304)
 -->
<!-- Title: /home/oleg/Dev/riversim/source/river/geometrynew.hpp Pages: 1 -->
<svg width="561pt" height="207pt"
 viewBox="0.00 0.00 561.31 207.00" xmlns="http://www.w3.org/2000/svg" xmlns:xlink="http://www.w3.org/1999/xlink">
<g id="graph0" class="graph" transform="scale(1 1) rotate(0) translate(4 203)">
<title>/home/oleg/Dev/riversim/source/river/geometrynew.hpp</title>
<polygon fill="#ffffff" stroke="transparent" points="-4,4 -4,-203 557.3125,-203 557.3125,4 -4,4"/>
<!-- Node0 -->
<g id="node1" class="node">
<title>Node0</title>
<polygon fill="#bfbfbf" stroke="#000000" points="221.3125,-168.5 221.3125,-198.5 372.3125,-198.5 372.3125,-168.5 221.3125,-168.5"/>
<text text-anchor="start" x="229.3125" y="-186.5" font-family="Helvetica,sans-Serif" font-size="10.00" fill="#000000">/home/oleg/Dev/riversim</text>
<text text-anchor="middle" x="296.8125" y="-175.5" font-family="Helvetica,sans-Serif" font-size="10.00" fill="#000000">/source/river/geometrynew.hpp</text>
</g>
<!-- Node1 -->
<g id="node2" class="node">
<title>Node1</title>
<polygon fill="#ffffff" stroke="#bfbfbf" points="31.8125,-.5 31.8125,-19.5 85.8125,-19.5 85.8125,-.5 31.8125,-.5"/>
<text text-anchor="middle" x="58.8125" y="-7.5" font-family="Helvetica,sans-Serif" font-size="10.00" fill="#000000">iostream</text>
</g>
<!-- Node0&#45;&gt;Node1 -->
<g id="edge1" class="edge">
<title>Node0&#45;&gt;Node1</title>
<path fill="none" stroke="#191970" d="M221.1043,-175.6734C175.191,-168.7162 116.4697,-155.783 68.8125,-132 34.3912,-114.8223 18.9748,-110.9096 2.8125,-76 -6.3984,-56.105 13.0774,-37.4504 31.5343,-25.0841"/>
<polygon fill="#191970" stroke="#191970" points="33.4998,-27.9827 40.1087,-19.7018 29.7783,-22.0539 33.4998,-27.9827"/>
</g>
<!-- Node2 -->
<g id="node3" class="node">
<title>Node2</title>
<polygon fill="#ffffff" stroke="#bfbfbf" points="241.8125,-.5 241.8125,-19.5 285.8125,-19.5 285.8125,-.5 241.8125,-.5"/>
<text text-anchor="middle" x="263.8125" y="-7.5" font-family="Helvetica,sans-Serif" font-size="10.00" fill="#000000">vector</text>
</g>
<!-- Node0&#45;&gt;Node2 -->
<g id="edge2" class="edge">
<title>Node0&#45;&gt;Node2</title>
<path fill="none" stroke="#191970" d="M292.603,-168.2549C289.8734,-158.0461 286.364,-144.2789 283.8125,-132 276.3487,-96.0801 269.9357,-53.7378 266.4977,-29.563"/>
<polygon fill="#191970" stroke="#191970" points="269.9476,-28.9606 265.0958,-19.542 263.0151,-29.9305 269.9476,-28.9606"/>
</g>
<!-- Node3 -->
<g id="node4" class="node">
<title>Node3</title>
<polygon fill="#ffffff" stroke="#bfbfbf" points="518.3125,-.5 518.3125,-19.5 553.3125,-19.5 553.3125,-.5 518.3125,-.5"/>
<text text-anchor="middle" x="535.8125" y="-7.5" font-family="Helvetica,sans-Serif" font-size="10.00" fill="#000000">map</text>
</g>
<!-- Node0&#45;&gt;Node3 -->
<g id="edge3" class="edge">
<title>Node0&#45;&gt;Node3</title>
<path fill="none" stroke="#191970" d="M352.2649,-168.4805C400.1883,-152.8127 468.1291,-123.7383 509.8125,-76 521.4311,-62.6937 528.1922,-43.5786 531.8917,-29.3413"/>
<polygon fill="#191970" stroke="#191970" points="535.3054,-30.1139 534.1537,-19.5819 528.4861,-28.5334 535.3054,-30.1139"/>
</g>
<!-- Node4 -->
<g id="node5" class="node">
<title>Node4</title>
<polygon fill="#ffffff" stroke="#bfbfbf" points="364.8125,-56.5 364.8125,-75.5 420.8125,-75.5 420.8125,-56.5 364.8125,-56.5"/>
<text text-anchor="middle" x="392.8125" y="-63.5" font-family="Helvetica,sans-Serif" font-size="10.00" fill="#000000">algorithm</text>
</g>
<!-- Node0&#45;&gt;Node4 -->
<g id="edge4" class="edge">
<title>Node0&#45;&gt;Node4</title>
<path fill="none" stroke="#191970" d="M322.2762,-168.4025C336.0009,-159.2529 352.4097,-146.5498 363.8125,-132 374.7632,-118.0272 382.4819,-99.2763 387.1883,-85.3319"/>
<polygon fill="#191970" stroke="#191970" points="390.5358,-86.3537 390.2037,-75.7641 383.8596,-84.2495 390.5358,-86.3537"/>
</g>
<!-- Node5 -->
<g id="node6" class="node">
<title>Node5</title>
<g id="a_node6"><a xlink:href="common_8hpp.html" target="_top" xlink:title="common.hpp">
<polygon fill="#ffffff" stroke="#000000" points="159.3125,-56.5 159.3125,-75.5 232.3125,-75.5 232.3125,-56.5 159.3125,-56.5"/>
<text text-anchor="middle" x="195.8125" y="-63.5" font-family="Helvetica,sans-Serif" font-size="10.00" fill="#000000">common.hpp</text>
</a>
</g>
</g>
<!-- Node0&#45;&gt;Node5 -->
<g id="edge5" class="edge">
<title>Node0&#45;&gt;Node5</title>
<path fill="none" stroke="#191970" d="M281.0219,-168.1558C270.9376,-158.1361 257.751,-144.6172 246.8125,-132 233.2481,-116.3539 218.9243,-97.5937 208.922,-84.0803"/>
<polygon fill="#191970" stroke="#191970" points="211.4868,-81.6594 202.7501,-75.666 205.8424,-85.7995 211.4868,-81.6594"/>
</g>
<!-- Node7 -->
<g id="node8" class="node">
<title>Node7</title>
<g id="a_node8"><a xlink:href="tethex_8hpp.html" target="_top" xlink:title="tethex.hpp">
<polygon fill="#ffffff" stroke="#000000" points="438.8125,-56.5 438.8125,-75.5 500.8125,-75.5 500.8125,-56.5 438.8125,-56.5"/>
<text text-anchor="middle" x="469.8125" y="-63.5" font-family="Helvetica,sans-Serif" font-size="10.00" fill="#000000">tethex.hpp</text>
</a>
</g>
</g>
<!-- Node0&#45;&gt;Node7 -->
<g id="edge9" class="edge">
<title>Node0&#45;&gt;Node7</title>
<path fill="none" stroke="#191970" d="M323.6267,-168.4555C340.8336,-158.5554 363.4907,-145.0571 382.8125,-132 406.489,-116.0001 432.4443,-95.9616 449.7875,-82.1866"/>
<polygon fill="#191970" stroke="#191970" points="452.3896,-84.5873 458.0141,-75.6086 448.018,-79.1201 452.3896,-84.5873"/>
</g>
<!-- Node11 -->
<g id="node12" class="node">
<title>Node11</title>
<g id="a_node12"><a xlink:href="physmodel_8hpp.html" target="_top" xlink:title="physmodel.hpp">
<polygon fill="#ffffff" stroke="#000000" points="77.3125,-112.5 77.3125,-131.5 160.3125,-131.5 160.3125,-112.5 77.3125,-112.5"/>
<text text-anchor="middle" x="118.8125" y="-119.5" font-family="Helvetica,sans-Serif" font-size="10.00" fill="#000000">physmodel.hpp</text>
</a>
</g>
</g>
<!-- Node0&#45;&gt;Node11 -->
<g id="edge16" class="edge">
<title>Node0&#45;&gt;Node11</title>
<path fill="none" stroke="#191970" d="M253.2688,-168.4554C223.4388,-158.149 184.296,-144.6249 155.9423,-134.8286"/>
<polygon fill="#191970" stroke="#191970" points="156.991,-131.4879 146.3962,-131.5303 154.705,-138.1041 156.991,-131.4879"/>
</g>
<!-- Node14 -->
<g id="node15" class="node">
<title>Node14</title>
<g id="a_node15"><a xlink:href="border_8hpp.html" target="_top" xlink:title="Generate some initial predefinide border geometry and its source positions. ">
<polygon fill="#ffffff" stroke="#000000" points="292.8125,-112.5 292.8125,-131.5 354.8125,-131.5 354.8125,-112.5 292.8125,-112.5"/>
<text text-anchor="middle" x="323.8125" y="-119.5" font-family="Helvetica,sans-Serif" font-size="10.00" fill="#000000">border.hpp</text>
</a>
</g>
</g>
<!-- Node0&#45;&gt;Node14 -->
<g id="edge21" class="edge">
<title>Node0&#45;&gt;Node14</title>
<path fill="none" stroke="#191970" d="M303.4867,-168.2977C307.0784,-160.1166 311.5449,-149.943 315.3754,-141.2179"/>
<polygon fill="#191970" stroke="#191970" points="318.6743,-142.4104 319.4895,-131.8469 312.2648,-139.5964 318.6743,-142.4104"/>
</g>
<!-- Node5&#45;&gt;Node1 -->
<g id="edge8" class="edge">
<title>Node5&#45;&gt;Node1</title>
<path fill="none" stroke="#191970" d="M172.2614,-56.3733C149.9735,-47.2629 116.3189,-33.5062 91.4488,-23.3404"/>
<polygon fill="#191970" stroke="#191970" points="92.6372,-20.0451 82.0563,-19.5011 89.9886,-26.5247 92.6372,-20.0451"/>
</g>
<!-- Node5&#45;&gt;Node2 -->
<g id="edge6" class="edge">
<title>Node5&#45;&gt;Node2</title>
<path fill="none" stroke="#191970" d="M207.6572,-56.2455C217.7005,-47.9746 232.312,-35.9416 244.1129,-26.2232"/>
<polygon fill="#191970" stroke="#191970" points="246.6092,-28.7015 252.1036,-19.6427 242.1593,-23.298 246.6092,-28.7015"/>
</g>
<!-- Node6 -->
<g id="node7" class="node">
<title>Node6</title>
<polygon fill="#ffffff" stroke="#bfbfbf" points="172.3125,-.5 172.3125,-19.5 219.3125,-19.5 219.3125,-.5 172.3125,-.5"/>
<text text-anchor="middle" x="195.8125" y="-7.5" font-family="Helvetica,sans-Serif" font-size="10.00" fill="#000000">math.h</text>
</g>
<!-- Node5&#45;&gt;Node6 -->
<g id="edge7" class="edge">
<title>Node5&#45;&gt;Node6</title>
<path fill="none" stroke="#191970" d="M195.8125,-56.2455C195.8125,-48.9382 195.8125,-38.6944 195.8125,-29.7046"/>
<polygon fill="#191970" stroke="#191970" points="199.3126,-29.6426 195.8125,-19.6427 192.3126,-29.6427 199.3126,-29.6426"/>
</g>
<!-- Node7&#45;&gt;Node1 -->
<g id="edge10" class="edge">
<title>Node7&#45;&gt;Node1</title>
<path fill="none" stroke="#191970" d="M438.4488,-57.776C435.5391,-57.129 432.6274,-56.5243 429.8125,-56 366.3063,-44.1701 177.2409,-22.9242 96.2815,-14.0587"/>
<polygon fill="#191970" stroke="#191970" points="96.3726,-10.5479 86.0517,-12.9414 95.6125,-17.5065 96.3726,-10.5479"/>
</g>
<!-- Node7&#45;&gt;Node2 -->
<g id="edge15" class="edge">
<title>Node7&#45;&gt;Node2</title>
<path fill="none" stroke="#191970" d="M438.5256,-57.4948C399.8833,-46.9901 334.5071,-29.2179 295.6246,-18.6479"/>
<polygon fill="#191970" stroke="#191970" points="296.4414,-15.243 285.8734,-15.9971 294.605,-21.9979 296.4414,-15.243"/>
</g>
<!-- Node7&#45;&gt;Node3 -->
<g id="edge11" class="edge">
<title>Node7&#45;&gt;Node3</title>
<path fill="none" stroke="#191970" d="M481.3089,-56.2455C491.0567,-47.9746 505.2385,-35.9416 516.6923,-26.2232"/>
<polygon fill="#191970" stroke="#191970" points="519.0873,-28.7813 524.448,-19.6427 514.5584,-23.4437 519.0873,-28.7813"/>
</g>
<!-- Node8 -->
<g id="node9" class="node">
<title>Node8</title>
<polygon fill="#ffffff" stroke="#bfbfbf" points="447.8125,-.5 447.8125,-19.5 499.8125,-19.5 499.8125,-.5 447.8125,-.5"/>
<text text-anchor="middle" x="473.8125" y="-7.5" font-family="Helvetica,sans-Serif" font-size="10.00" fill="#000000">sstream</text>
</g>
<!-- Node7&#45;&gt;Node8 -->
<g id="edge12" class="edge">
<title>Node7&#45;&gt;Node8</title>
<path fill="none" stroke="#191970" d="M470.5093,-56.2455C471.0312,-48.9382 471.7629,-38.6944 472.4051,-29.7046"/>
<polygon fill="#191970" stroke="#191970" points="475.9023,-29.8667 473.1238,-19.6427 468.9201,-29.3679 475.9023,-29.8667"/>
</g>
<!-- Node9 -->
<g id="node10" class="node">
<title>Node9</title>
<polygon fill="#ffffff" stroke="#bfbfbf" points="370.3125,-.5 370.3125,-19.5 429.3125,-19.5 429.3125,-.5 370.3125,-.5"/>
<text text-anchor="middle" x="399.8125" y="-7.5" font-family="Helvetica,sans-Serif" font-size="10.00" fill="#000000">stdexcept</text>
</g>
<!-- Node7&#45;&gt;Node9 -->
<g id="edge13" class="edge">
<title>Node7&#45;&gt;Node9</title>
<path fill="none" stroke="#191970" d="M457.6195,-56.2455C447.1804,-47.8943 431.9471,-35.7076 419.7386,-25.9408"/>
<polygon fill="#191970" stroke="#191970" points="421.861,-23.1566 411.8659,-19.6427 417.4881,-28.6227 421.861,-23.1566"/>
</g>
<!-- Node10 -->
<g id="node11" class="node">
<title>Node10</title>
<polygon fill="#ffffff" stroke="#bfbfbf" points="311.3125,-.5 311.3125,-19.5 352.3125,-19.5 352.3125,-.5 311.3125,-.5"/>
<text text-anchor="middle" x="331.8125" y="-7.5" font-family="Helvetica,sans-Serif" font-size="10.00" fill="#000000">string</text>
</g>
<!-- Node7&#45;&gt;Node10 -->
<g id="edge14" class="edge">
<title>Node7&#45;&gt;Node10</title>
<path fill="none" stroke="#191970" d="M446.0895,-56.3733C422.8225,-46.9316 387.258,-32.4996 361.9902,-22.246"/>
<polygon fill="#191970" stroke="#191970" points="363.1072,-18.9221 352.525,-18.4051 360.4751,-25.4084 363.1072,-18.9221"/>
</g>
<!-- Node11&#45;&gt;Node1 -->
<g id="edge17" class="edge">
<title>Node11&#45;&gt;Node1</title>
<path fill="none" stroke="#191970" d="M77.1416,-115.9132C53.096,-110.0296 24.7437,-98.5075 9.8125,-76 -1.9841,-58.2175 16.7181,-38.6908 34.3147,-25.5246"/>
<polygon fill="#191970" stroke="#191970" points="36.5607,-28.224 42.7258,-19.6076 32.5331,-22.4987 36.5607,-28.224"/>
</g>
<!-- Node11&#45;&gt;Node5 -->
<g id="edge20" class="edge">
<title>Node11&#45;&gt;Node5</title>
<path fill="none" stroke="#191970" d="M132.2249,-112.2455C143.8182,-103.814 160.7873,-91.4729 174.2804,-81.6598"/>
<polygon fill="#191970" stroke="#191970" points="176.5251,-84.355 182.5539,-75.6427 172.4079,-78.6938 176.5251,-84.355"/>
</g>
<!-- Node12 -->
<g id="node13" class="node">
<title>Node12</title>
<polygon fill="#ffffff" stroke="#bfbfbf" points="96.8125,-56.5 96.8125,-75.5 140.8125,-75.5 140.8125,-56.5 96.8125,-56.5"/>
<text text-anchor="middle" x="118.8125" y="-63.5" font-family="Helvetica,sans-Serif" font-size="10.00" fill="#000000">cmath</text>
</g>
<!-- Node11&#45;&gt;Node12 -->
<g id="edge18" class="edge">
<title>Node11&#45;&gt;Node12</title>
<path fill="none" stroke="#191970" d="M118.8125,-112.2455C118.8125,-104.9382 118.8125,-94.6944 118.8125,-85.7046"/>
<polygon fill="#191970" stroke="#191970" points="122.3126,-85.6426 118.8125,-75.6427 115.3126,-85.6427 122.3126,-85.6426"/>
</g>
<!-- Node13 -->
<g id="node14" class="node">
<title>Node13</title>
<polygon fill="#ffffff" stroke="#bfbfbf" points="19.3125,-56.5 19.3125,-75.5 78.3125,-75.5 78.3125,-56.5 19.3125,-56.5"/>
<text text-anchor="middle" x="48.8125" y="-63.5" font-family="Helvetica,sans-Serif" font-size="10.00" fill="#000000">functional</text>
</g>
<!-- Node11&#45;&gt;Node13 -->
<g id="edge19" class="edge">
<title>Node11&#45;&gt;Node13</title>
<path fill="none" stroke="#191970" d="M106.6195,-112.2455C96.1804,-103.8943 80.9471,-91.7076 68.7386,-81.9408"/>
<polygon fill="#191970" stroke="#191970" points="70.861,-79.1566 60.8659,-75.6427 66.4881,-84.6227 70.861,-79.1566"/>
</g>
<!-- Node14&#45;&gt;Node2 -->
<g id="edge22" class="edge">
<title>Node14&#45;&gt;Node2</title>
<path fill="none" stroke="#191970" d="M318.697,-112.4509C308.734,-93.8533 286.576,-52.4919 273.6677,-28.3964"/>
<polygon fill="#191970" stroke="#191970" points="276.7226,-26.6869 268.9151,-19.5249 270.5522,-29.9925 276.7226,-26.6869"/>
</g>
<!-- Node14&#45;&gt;Node4 -->
<g id="edge23" class="edge">
<title>Node14&#45;&gt;Node4</title>
<path fill="none" stroke="#191970" d="M335.8314,-112.2455C346.0224,-103.9746 360.8487,-91.9416 372.8232,-82.2232"/>
<polygon fill="#191970" stroke="#191970" points="375.3724,-84.662 380.9314,-75.6427 370.9612,-79.2268 375.3724,-84.662"/>
</g>
<!-- Node14&#45;&gt;Node5 -->
<g id="edge26" class="edge">
<title>Node14&#45;&gt;Node5</title>
<path fill="none" stroke="#191970" d="M301.8085,-112.3733C281.1691,-103.3435 250.0968,-89.7494 226.9237,-79.6111"/>
<polygon fill="#191970" stroke="#191970" points="228.0939,-76.3028 217.5294,-75.5011 225.2881,-82.7159 228.0939,-76.3028"/>
</g>
<!-- Node14&#45;&gt;Node7 -->
<g id="edge25" class="edge">
<title>Node14&#45;&gt;Node7</title>
<path fill="none" stroke="#191970" d="M348.9108,-112.3733C372.768,-103.2226 408.846,-89.3844 435.3835,-79.2057"/>
<polygon fill="#191970" stroke="#191970" points="436.9584,-82.3503 445.0417,-75.5011 434.4515,-75.8145 436.9584,-82.3503"/>
</g>
<!-- Node14&#45;&gt;Node10 -->
<g id="edge24" class="edge">
<title>Node14&#45;&gt;Node10</title>
<path fill="none" stroke="#191970" d="M324.4946,-112.4509C325.7994,-94.184 328.6729,-53.9553 330.4056,-29.6976"/>
<polygon fill="#191970" stroke="#191970" points="333.9107,-29.7489 331.1322,-19.5249 326.9285,-29.2501 333.9107,-29.7489"/>
</g>
</g>
</svg>
