<?xml version="1.0" encoding="UTF-8" standalone="no"?>
<!DOCTYPE svg PUBLIC "-//W3C//DTD SVG 1.1//EN"
 "http://www.w3.org/Graphics/SVG/1.1/DTD/svg11.dtd">
<!-- Generated by graphviz version 2.40.1 (20161225.0304)
 -->
<!-- Title: /home/oleg/Dev/riversim/source/river/geometry.hpp Pages: 1 -->
<svg width="450pt" height="151pt"
 viewBox="0.00 0.00 450.00 151.00" xmlns="http://www.w3.org/2000/svg" xmlns:xlink="http://www.w3.org/1999/xlink">
<g id="graph0" class="graph" transform="scale(1 1) rotate(0) translate(4 147)">
<title>/home/oleg/Dev/riversim/source/river/geometry.hpp</title>
<polygon fill="#ffffff" stroke="transparent" points="-4,4 -4,-147 446,-147 446,4 -4,4"/>
<!-- Node0 -->
<g id="node1" class="node">
<title>Node0</title>
<polygon fill="#bfbfbf" stroke="#000000" points="154,-112.5 154,-142.5 287,-142.5 287,-112.5 154,-112.5"/>
<text text-anchor="start" x="162" y="-130.5" font-family="Helvetica,sans-Serif" font-size="10.00" fill="#000000">/home/oleg/Dev/riversim</text>
<text text-anchor="middle" x="220.5" y="-119.5" font-family="Helvetica,sans-Serif" font-size="10.00" fill="#000000">/source/river/geometry.hpp</text>
</g>
<!-- Node1 -->
<g id="node2" class="node">
<title>Node1</title>
<polygon fill="#ffffff" stroke="#bfbfbf" points="26.5,-56.5 26.5,-75.5 66.5,-75.5 66.5,-56.5 26.5,-56.5"/>
<text text-anchor="middle" x="46.5" y="-63.5" font-family="Helvetica,sans-Serif" font-size="10.00" fill="#000000">utility</text>
</g>
<!-- Node0&#45;&gt;Node1 -->
<g id="edge1" class="edge">
<title>Node0&#45;&gt;Node1</title>
<path fill="none" stroke="#191970" d="M177.9348,-112.4554C146.3935,-101.3072 104.2008,-86.3943 76.2259,-76.5066"/>
<polygon fill="#191970" stroke="#191970" points="77.2035,-73.14 66.6087,-73.1074 74.8707,-79.7399 77.2035,-73.14"/>
</g>
<!-- Node2 -->
<g id="node3" class="node">
<title>Node2</title>
<polygon fill="#ffffff" stroke="#bfbfbf" points="0,-.5 0,-19.5 41,-19.5 41,-.5 0,-.5"/>
<text text-anchor="middle" x="20.5" y="-7.5" font-family="Helvetica,sans-Serif" font-size="10.00" fill="#000000">string</text>
</g>
<!-- Node0&#45;&gt;Node2 -->
<g id="edge2" class="edge">
<title>Node0&#45;&gt;Node2</title>
<path fill="none" stroke="#191970" d="M191.2077,-112.4955C172.0352,-102.5015 146.5439,-88.8844 124.5,-76 96.0343,-59.3622 64.1322,-38.8247 43.2587,-25.1202"/>
<polygon fill="#191970" stroke="#191970" points="45.0389,-22.1016 34.7634,-19.5198 41.186,-27.9459 45.0389,-22.1016"/>
</g>
<!-- Node3 -->
<g id="node4" class="node">
<title>Node3</title>
<polygon fill="#ffffff" stroke="#bfbfbf" points="332.5,-.5 332.5,-19.5 376.5,-19.5 376.5,-.5 332.5,-.5"/>
<text text-anchor="middle" x="354.5" y="-7.5" font-family="Helvetica,sans-Serif" font-size="10.00" fill="#000000">vector</text>
</g>
<!-- Node0&#45;&gt;Node3 -->
<g id="edge3" class="edge">
<title>Node0&#45;&gt;Node3</title>
<path fill="none" stroke="#191970" d="M237.7438,-112.3795C263.002,-90.2315 309.8733,-49.1316 335.8873,-26.3209"/>
<polygon fill="#191970" stroke="#191970" points="338.3354,-28.8292 343.5467,-19.6046 333.7203,-23.566 338.3354,-28.8292"/>
</g>
<!-- Node4 -->
<g id="node5" class="node">
<title>Node4</title>
<polygon fill="#ffffff" stroke="#bfbfbf" points="59,-.5 59,-19.5 94,-19.5 94,-.5 59,-.5"/>
<text text-anchor="middle" x="76.5" y="-7.5" font-family="Helvetica,sans-Serif" font-size="10.00" fill="#000000">map</text>
</g>
<!-- Node0&#45;&gt;Node4 -->
<g id="edge4" class="edge">
<title>Node0&#45;&gt;Node4</title>
<path fill="none" stroke="#191970" d="M199.3316,-112.3793C185.5044,-102.3377 167.1732,-88.7111 151.5,-76 131.4952,-59.776 109.4623,-40.166 94.4856,-26.5575"/>
<polygon fill="#191970" stroke="#191970" points="96.6932,-23.8336 86.9489,-19.6743 91.9726,-29.0024 96.6932,-23.8336"/>
</g>
<!-- Node5 -->
<g id="node6" class="node">
<title>Node5</title>
<polygon fill="#ffffff" stroke="#bfbfbf" points="260.5,-.5 260.5,-19.5 314.5,-19.5 314.5,-.5 260.5,-.5"/>
<text text-anchor="middle" x="287.5" y="-7.5" font-family="Helvetica,sans-Serif" font-size="10.00" fill="#000000">iostream</text>
</g>
<!-- Node0&#45;&gt;Node5 -->
<g id="edge5" class="edge">
<title>Node0&#45;&gt;Node5</title>
<path fill="none" stroke="#191970" d="M229.2591,-112.1389C241.5498,-90.5843 263.8792,-51.4245 277.0307,-28.3604"/>
<polygon fill="#191970" stroke="#191970" points="280.136,-29.9802 282.0491,-19.5595 274.0551,-26.5128 280.136,-29.9802"/>
</g>
<!-- Node6 -->
<g id="node7" class="node">
<title>Node6</title>
<polygon fill="#ffffff" stroke="#bfbfbf" points="395,-.5 395,-19.5 442,-19.5 442,-.5 395,-.5"/>
<text text-anchor="middle" x="418.5" y="-7.5" font-family="Helvetica,sans-Serif" font-size="10.00" fill="#000000">math.h</text>
</g>
<!-- Node0&#45;&gt;Node6 -->
<g id="edge6" class="edge">
<title>Node0&#45;&gt;Node6</title>
<path fill="none" stroke="#191970" d="M287.1213,-115.3185C331.0874,-106.0058 383.4356,-92.0619 399.5,-76 411.729,-63.7729 416.2,-44.2168 417.7783,-29.5602"/>
<polygon fill="#191970" stroke="#191970" points="421.2746,-29.7354 418.5019,-19.5098 414.2927,-29.2326 421.2746,-29.7354"/>
</g>
<!-- Node7 -->
<g id="node8" class="node">
<title>Node7</title>
<g id="a_node8"><a xlink:href="common_8hpp.html" target="_top" xlink:title="common.hpp">
<polygon fill="#ffffff" stroke="#000000" points="317,-56.5 317,-75.5 390,-75.5 390,-56.5 317,-56.5"/>
<text text-anchor="middle" x="353.5" y="-63.5" font-family="Helvetica,sans-Serif" font-size="10.00" fill="#000000">common.hpp</text>
</a>
</g>
</g>
<!-- Node0&#45;&gt;Node7 -->
<g id="edge7" class="edge">
<title>Node0&#45;&gt;Node7</title>
<path fill="none" stroke="#191970" d="M253.0355,-112.4554C274.6429,-102.464 302.7898,-89.4487 323.792,-79.7372"/>
<polygon fill="#191970" stroke="#191970" points="325.2821,-82.9043 332.8897,-75.5303 322.3441,-76.5506 325.2821,-82.9043"/>
</g>
<!-- Node8 -->
<g id="node9" class="node">
<title>Node8</title>
<g id="a_node9"><a xlink:href="tethex_8hpp.html" target="_top" xlink:title="tethex.hpp">
<polygon fill="#ffffff" stroke="#000000" points="160.5,-56.5 160.5,-75.5 222.5,-75.5 222.5,-56.5 160.5,-56.5"/>
<text text-anchor="middle" x="191.5" y="-63.5" font-family="Helvetica,sans-Serif" font-size="10.00" fill="#000000">tethex.hpp</text>
</a>
</g>
</g>
<!-- Node0&#45;&gt;Node8 -->
<g id="edge11" class="edge">
<title>Node0&#45;&gt;Node8</title>
<path fill="none" stroke="#191970" d="M213.3315,-112.2977C209.4318,-104.0277 204.572,-93.7215 200.4282,-84.9339"/>
<polygon fill="#191970" stroke="#191970" points="203.5741,-83.399 196.1433,-75.8469 197.2427,-86.3846 203.5741,-83.399"/>
</g>
<!-- Node7&#45;&gt;Node3 -->
<g id="edge8" class="edge">
<title>Node7&#45;&gt;Node3</title>
<path fill="none" stroke="#191970" d="M353.6742,-56.2455C353.8047,-48.9382 353.9876,-38.6944 354.1481,-29.7046"/>
<polygon fill="#191970" stroke="#191970" points="357.6486,-29.7036 354.3278,-19.6427 350.6497,-29.5786 357.6486,-29.7036"/>
</g>
<!-- Node7&#45;&gt;Node5 -->
<g id="edge10" class="edge">
<title>Node7&#45;&gt;Node5</title>
<path fill="none" stroke="#191970" d="M342.0037,-56.2455C332.2558,-47.9746 318.0741,-35.9416 306.6202,-26.2232"/>
<polygon fill="#191970" stroke="#191970" points="308.7541,-23.4437 298.8646,-19.6427 304.2253,-28.7813 308.7541,-23.4437"/>
</g>
<!-- Node7&#45;&gt;Node6 -->
<g id="edge9" class="edge">
<title>Node7&#45;&gt;Node6</title>
<path fill="none" stroke="#191970" d="M364.8221,-56.2455C374.4223,-47.9746 388.3892,-35.9416 399.6695,-26.2232"/>
<polygon fill="#191970" stroke="#191970" points="402.016,-28.8214 407.3076,-19.6427 397.447,-23.5182 402.016,-28.8214"/>
</g>
<!-- Node8&#45;&gt;Node2 -->
<g id="edge16" class="edge">
<title>Node8&#45;&gt;Node2</title>
<path fill="none" stroke="#191970" d="M161.5276,-56.4708C134.7187,-47.9078 94.1178,-34.8427 50.6817,-20.3594"/>
<polygon fill="#191970" stroke="#191970" points="51.6727,-17.0003 41.0789,-17.1495 49.4535,-23.6392 51.6727,-17.0003"/>
</g>
<!-- Node8&#45;&gt;Node3 -->
<g id="edge17" class="edge">
<title>Node8&#45;&gt;Node3</title>
<path fill="none" stroke="#191970" d="M219.5207,-56.3733C248.2251,-46.5116 292.7758,-31.2059 322.7634,-20.9034"/>
<polygon fill="#191970" stroke="#191970" points="324.0107,-24.1757 332.3309,-17.6164 321.7362,-17.5555 324.0107,-24.1757"/>
</g>
<!-- Node8&#45;&gt;Node4 -->
<g id="edge13" class="edge">
<title>Node8&#45;&gt;Node4</title>
<path fill="none" stroke="#191970" d="M171.7308,-56.3733C152.7962,-47.1529 124.0885,-33.1735 103.1429,-22.9739"/>
<polygon fill="#191970" stroke="#191970" points="104.6515,-19.8157 94.1284,-18.5843 101.5868,-26.1092 104.6515,-19.8157"/>
</g>
<!-- Node8&#45;&gt;Node5 -->
<g id="edge12" class="edge">
<title>Node8&#45;&gt;Node5</title>
<path fill="none" stroke="#191970" d="M208.2219,-56.2455C223.0889,-47.5731 245.0466,-34.7645 262.0858,-24.825"/>
<polygon fill="#191970" stroke="#191970" points="264.0955,-27.7047 270.9697,-19.6427 260.5683,-21.6582 264.0955,-27.7047"/>
</g>
<!-- Node9 -->
<g id="node10" class="node">
<title>Node9</title>
<polygon fill="#ffffff" stroke="#bfbfbf" points="112.5,-.5 112.5,-19.5 164.5,-19.5 164.5,-.5 112.5,-.5"/>
<text text-anchor="middle" x="138.5" y="-7.5" font-family="Helvetica,sans-Serif" font-size="10.00" fill="#000000">sstream</text>
</g>
<!-- Node8&#45;&gt;Node9 -->
<g id="edge14" class="edge">
<title>Node8&#45;&gt;Node9</title>
<path fill="none" stroke="#191970" d="M182.2681,-56.2455C174.6683,-48.2155 163.7123,-36.6394 154.6632,-27.0781"/>
<polygon fill="#191970" stroke="#191970" points="157.042,-24.4998 147.6261,-19.6427 151.9579,-29.3115 157.042,-24.4998"/>
</g>
<!-- Node10 -->
<g id="node11" class="node">
<title>Node10</title>
<polygon fill="#ffffff" stroke="#bfbfbf" points="183,-.5 183,-19.5 242,-19.5 242,-.5 183,-.5"/>
<text text-anchor="middle" x="212.5" y="-7.5" font-family="Helvetica,sans-Serif" font-size="10.00" fill="#000000">stdexcept</text>
</g>
<!-- Node8&#45;&gt;Node10 -->
<g id="edge15" class="edge">
<title>Node8&#45;&gt;Node10</title>
<path fill="none" stroke="#191970" d="M195.1579,-56.2455C197.9584,-48.7776 201.909,-38.2427 205.3324,-29.1137"/>
<polygon fill="#191970" stroke="#191970" points="208.6499,-30.2349 208.884,-19.6427 202.0955,-27.777 208.6499,-30.2349"/>
</g>
</g>
</svg>
