<?xml version="1.0" encoding="UTF-8" standalone="no"?>
<!DOCTYPE svg PUBLIC "-//W3C//DTD SVG 1.1//EN"
 "http://www.w3.org/Graphics/SVG/1.1/DTD/svg11.dtd">
<!-- Generated by graphviz version 2.40.1 (20161225.0304)
 -->
<!-- Title: /home/oleg/Dev/riversim/source/river/geometry.cpp Pages: 1 -->
<svg width="450pt" height="207pt"
 viewBox="0.00 0.00 450.00 207.00" xmlns="http://www.w3.org/2000/svg" xmlns:xlink="http://www.w3.org/1999/xlink">
<g id="graph0" class="graph" transform="scale(1 1) rotate(0) translate(4 203)">
<title>/home/oleg/Dev/riversim/source/river/geometry.cpp</title>
<polygon fill="#ffffff" stroke="transparent" points="-4,4 -4,-203 446,-203 446,4 -4,4"/>
<!-- Node0 -->
<g id="node1" class="node">
<title>Node0</title>
<polygon fill="#bfbfbf" stroke="#000000" points="154,-168.5 154,-198.5 287,-198.5 287,-168.5 154,-168.5"/>
<text text-anchor="start" x="162" y="-186.5" font-family="Helvetica,sans-Serif" font-size="10.00" fill="#000000">/home/oleg/Dev/riversim</text>
<text text-anchor="middle" x="220.5" y="-175.5" font-family="Helvetica,sans-Serif" font-size="10.00" fill="#000000">/source/river/geometry.cpp</text>
</g>
<!-- Node1 -->
<g id="node2" class="node">
<title>Node1</title>
<g id="a_node2"><a xlink:href="geometry_8hpp.html" target="_top" xlink:title="geometry.hpp">
<polygon fill="#ffffff" stroke="#000000" points="182.5,-112.5 182.5,-131.5 258.5,-131.5 258.5,-112.5 182.5,-112.5"/>
<text text-anchor="middle" x="220.5" y="-119.5" font-family="Helvetica,sans-Serif" font-size="10.00" fill="#000000">geometry.hpp</text>
</a>
</g>
</g>
<!-- Node0&#45;&gt;Node1 -->
<g id="edge1" class="edge">
<title>Node0&#45;&gt;Node1</title>
<path fill="none" stroke="#191970" d="M220.5,-168.2977C220.5,-160.3834 220.5,-150.6043 220.5,-142.0759"/>
<polygon fill="#191970" stroke="#191970" points="224.0001,-141.8469 220.5,-131.8469 217.0001,-141.847 224.0001,-141.8469"/>
</g>
<!-- Node2 -->
<g id="node3" class="node">
<title>Node2</title>
<polygon fill="#ffffff" stroke="#bfbfbf" points="26.5,-56.5 26.5,-75.5 66.5,-75.5 66.5,-56.5 26.5,-56.5"/>
<text text-anchor="middle" x="46.5" y="-63.5" font-family="Helvetica,sans-Serif" font-size="10.00" fill="#000000">utility</text>
</g>
<!-- Node1&#45;&gt;Node2 -->
<g id="edge2" class="edge">
<title>Node1&#45;&gt;Node2</title>
<path fill="none" stroke="#191970" d="M190.5883,-112.3733C158.5861,-102.0737 108.1325,-85.8357 76.2086,-75.5614"/>
<polygon fill="#191970" stroke="#191970" points="77.1331,-72.1822 66.5416,-72.4502 74.9885,-78.8456 77.1331,-72.1822"/>
</g>
<!-- Node3 -->
<g id="node4" class="node">
<title>Node3</title>
<polygon fill="#ffffff" stroke="#bfbfbf" points="0,-.5 0,-19.5 41,-19.5 41,-.5 0,-.5"/>
<text text-anchor="middle" x="20.5" y="-7.5" font-family="Helvetica,sans-Serif" font-size="10.00" fill="#000000">string</text>
</g>
<!-- Node1&#45;&gt;Node3 -->
<g id="edge3" class="edge">
<title>Node1&#45;&gt;Node3</title>
<path fill="none" stroke="#191970" d="M198.779,-112.4831C179.0764,-103.6422 149.3924,-89.7987 124.5,-76 95.4999,-59.9243 63.477,-39.11 42.7317,-25.1946"/>
<polygon fill="#191970" stroke="#191970" points="44.5555,-22.2029 34.3092,-19.5079 40.6385,-28.0044 44.5555,-22.2029"/>
</g>
<!-- Node4 -->
<g id="node5" class="node">
<title>Node4</title>
<polygon fill="#ffffff" stroke="#bfbfbf" points="332.5,-.5 332.5,-19.5 376.5,-19.5 376.5,-.5 332.5,-.5"/>
<text text-anchor="middle" x="354.5" y="-7.5" font-family="Helvetica,sans-Serif" font-size="10.00" fill="#000000">vector</text>
</g>
<!-- Node1&#45;&gt;Node4 -->
<g id="edge4" class="edge">
<title>Node1&#45;&gt;Node4</title>
<path fill="none" stroke="#191970" d="M231.9248,-112.4509C254.8677,-93.2747 306.767,-49.8962 335.1193,-26.1988"/>
<polygon fill="#191970" stroke="#191970" points="337.6759,-28.6235 343.1042,-19.5249 333.1867,-23.2525 337.6759,-28.6235"/>
</g>
<!-- Node5 -->
<g id="node6" class="node">
<title>Node5</title>
<polygon fill="#ffffff" stroke="#bfbfbf" points="59,-.5 59,-19.5 94,-19.5 94,-.5 59,-.5"/>
<text text-anchor="middle" x="76.5" y="-7.5" font-family="Helvetica,sans-Serif" font-size="10.00" fill="#000000">map</text>
</g>
<!-- Node1&#45;&gt;Node5 -->
<g id="edge5" class="edge">
<title>Node1&#45;&gt;Node5</title>
<path fill="none" stroke="#191970" d="M204.7424,-112.3424C190.483,-103.4066 169.0855,-89.503 151.5,-76 131.071,-60.3135 109.106,-40.6174 94.2612,-26.8419"/>
<polygon fill="#191970" stroke="#191970" points="96.4946,-24.1384 86.8016,-19.8609 91.7116,-29.2494 96.4946,-24.1384"/>
</g>
<!-- Node6 -->
<g id="node7" class="node">
<title>Node6</title>
<polygon fill="#ffffff" stroke="#bfbfbf" points="260.5,-.5 260.5,-19.5 314.5,-19.5 314.5,-.5 260.5,-.5"/>
<text text-anchor="middle" x="287.5" y="-7.5" font-family="Helvetica,sans-Serif" font-size="10.00" fill="#000000">iostream</text>
</g>
<!-- Node1&#45;&gt;Node6 -->
<g id="edge6" class="edge">
<title>Node1&#45;&gt;Node6</title>
<path fill="none" stroke="#191970" d="M226.2124,-112.4509C237.3377,-93.8533 262.0808,-52.4919 276.495,-28.3964"/>
<polygon fill="#191970" stroke="#191970" points="279.6719,-29.9034 281.8021,-19.5249 273.6648,-26.3098 279.6719,-29.9034"/>
</g>
<!-- Node7 -->
<g id="node8" class="node">
<title>Node7</title>
<polygon fill="#ffffff" stroke="#bfbfbf" points="395,-.5 395,-19.5 442,-19.5 442,-.5 395,-.5"/>
<text text-anchor="middle" x="418.5" y="-7.5" font-family="Helvetica,sans-Serif" font-size="10.00" fill="#000000">math.h</text>
</g>
<!-- Node1&#45;&gt;Node7 -->
<g id="edge7" class="edge">
<title>Node1&#45;&gt;Node7</title>
<path fill="none" stroke="#191970" d="M258.8727,-116.6661C305.2783,-109.4667 379.652,-95.2853 399.5,-76 411.9026,-63.949 416.3505,-44.3695 417.8761,-29.6595"/>
<polygon fill="#191970" stroke="#191970" points="421.376,-29.778 418.5565,-19.5652 414.3918,-29.3072 421.376,-29.778"/>
</g>
<!-- Node8 -->
<g id="node9" class="node">
<title>Node8</title>
<g id="a_node9"><a xlink:href="common_8hpp.html" target="_top" xlink:title="common.hpp">
<polygon fill="#ffffff" stroke="#000000" points="317,-56.5 317,-75.5 390,-75.5 390,-56.5 317,-56.5"/>
<text text-anchor="middle" x="353.5" y="-63.5" font-family="Helvetica,sans-Serif" font-size="10.00" fill="#000000">common.hpp</text>
</a>
</g>
</g>
<!-- Node1&#45;&gt;Node8 -->
<g id="edge8" class="edge">
<title>Node1&#45;&gt;Node8</title>
<path fill="none" stroke="#191970" d="M243.3635,-112.3733C264.905,-103.3032 297.3838,-89.6279 321.4956,-79.4755"/>
<polygon fill="#191970" stroke="#191970" points="323.0767,-82.6075 330.9348,-75.5011 320.3603,-76.156 323.0767,-82.6075"/>
</g>
<!-- Node9 -->
<g id="node10" class="node">
<title>Node9</title>
<g id="a_node10"><a xlink:href="tethex_8hpp.html" target="_top" xlink:title="tethex.hpp">
<polygon fill="#ffffff" stroke="#000000" points="160.5,-56.5 160.5,-75.5 222.5,-75.5 222.5,-56.5 160.5,-56.5"/>
<text text-anchor="middle" x="191.5" y="-63.5" font-family="Helvetica,sans-Serif" font-size="10.00" fill="#000000">tethex.hpp</text>
</a>
</g>
</g>
<!-- Node1&#45;&gt;Node9 -->
<g id="edge12" class="edge">
<title>Node1&#45;&gt;Node9</title>
<path fill="none" stroke="#191970" d="M215.4486,-112.2455C211.4981,-104.617 205.8903,-93.7881 201.0942,-84.5267"/>
<polygon fill="#191970" stroke="#191970" points="204.2001,-82.9131 196.4935,-75.6427 197.9841,-86.1321 204.2001,-82.9131"/>
</g>
<!-- Node8&#45;&gt;Node4 -->
<g id="edge9" class="edge">
<title>Node8&#45;&gt;Node4</title>
<path fill="none" stroke="#191970" d="M353.6742,-56.2455C353.8047,-48.9382 353.9876,-38.6944 354.1481,-29.7046"/>
<polygon fill="#191970" stroke="#191970" points="357.6486,-29.7036 354.3278,-19.6427 350.6497,-29.5786 357.6486,-29.7036"/>
</g>
<!-- Node8&#45;&gt;Node6 -->
<g id="edge11" class="edge">
<title>Node8&#45;&gt;Node6</title>
<path fill="none" stroke="#191970" d="M342.0037,-56.2455C332.2558,-47.9746 318.0741,-35.9416 306.6202,-26.2232"/>
<polygon fill="#191970" stroke="#191970" points="308.7541,-23.4437 298.8646,-19.6427 304.2253,-28.7813 308.7541,-23.4437"/>
</g>
<!-- Node8&#45;&gt;Node7 -->
<g id="edge10" class="edge">
<title>Node8&#45;&gt;Node7</title>
<path fill="none" stroke="#191970" d="M364.8221,-56.2455C374.4223,-47.9746 388.3892,-35.9416 399.6695,-26.2232"/>
<polygon fill="#191970" stroke="#191970" points="402.016,-28.8214 407.3076,-19.6427 397.447,-23.5182 402.016,-28.8214"/>
</g>
<!-- Node9&#45;&gt;Node3 -->
<g id="edge17" class="edge">
<title>Node9&#45;&gt;Node3</title>
<path fill="none" stroke="#191970" d="M161.5276,-56.4708C134.7187,-47.9078 94.1178,-34.8427 50.6817,-20.3594"/>
<polygon fill="#191970" stroke="#191970" points="51.6727,-17.0003 41.0789,-17.1495 49.4535,-23.6392 51.6727,-17.0003"/>
</g>
<!-- Node9&#45;&gt;Node4 -->
<g id="edge18" class="edge">
<title>Node9&#45;&gt;Node4</title>
<path fill="none" stroke="#191970" d="M219.5207,-56.3733C248.2251,-46.5116 292.7758,-31.2059 322.7634,-20.9034"/>
<polygon fill="#191970" stroke="#191970" points="324.0107,-24.1757 332.3309,-17.6164 321.7362,-17.5555 324.0107,-24.1757"/>
</g>
<!-- Node9&#45;&gt;Node5 -->
<g id="edge14" class="edge">
<title>Node9&#45;&gt;Node5</title>
<path fill="none" stroke="#191970" d="M171.7308,-56.3733C152.7962,-47.1529 124.0885,-33.1735 103.1429,-22.9739"/>
<polygon fill="#191970" stroke="#191970" points="104.6515,-19.8157 94.1284,-18.5843 101.5868,-26.1092 104.6515,-19.8157"/>
</g>
<!-- Node9&#45;&gt;Node6 -->
<g id="edge13" class="edge">
<title>Node9&#45;&gt;Node6</title>
<path fill="none" stroke="#191970" d="M208.2219,-56.2455C223.0889,-47.5731 245.0466,-34.7645 262.0858,-24.825"/>
<polygon fill="#191970" stroke="#191970" points="264.0955,-27.7047 270.9697,-19.6427 260.5683,-21.6582 264.0955,-27.7047"/>
</g>
<!-- Node10 -->
<g id="node11" class="node">
<title>Node10</title>
<polygon fill="#ffffff" stroke="#bfbfbf" points="112.5,-.5 112.5,-19.5 164.5,-19.5 164.5,-.5 112.5,-.5"/>
<text text-anchor="middle" x="138.5" y="-7.5" font-family="Helvetica,sans-Serif" font-size="10.00" fill="#000000">sstream</text>
</g>
<!-- Node9&#45;&gt;Node10 -->
<g id="edge15" class="edge">
<title>Node9&#45;&gt;Node10</title>
<path fill="none" stroke="#191970" d="M182.2681,-56.2455C174.6683,-48.2155 163.7123,-36.6394 154.6632,-27.0781"/>
<polygon fill="#191970" stroke="#191970" points="157.042,-24.4998 147.6261,-19.6427 151.9579,-29.3115 157.042,-24.4998"/>
</g>
<!-- Node11 -->
<g id="node12" class="node">
<title>Node11</title>
<polygon fill="#ffffff" stroke="#bfbfbf" points="183,-.5 183,-19.5 242,-19.5 242,-.5 183,-.5"/>
<text text-anchor="middle" x="212.5" y="-7.5" font-family="Helvetica,sans-Serif" font-size="10.00" fill="#000000">stdexcept</text>
</g>
<!-- Node9&#45;&gt;Node11 -->
<g id="edge16" class="edge">
<title>Node9&#45;&gt;Node11</title>
<path fill="none" stroke="#191970" d="M195.1579,-56.2455C197.9584,-48.7776 201.909,-38.2427 205.3324,-29.1137"/>
<polygon fill="#191970" stroke="#191970" points="208.6499,-30.2349 208.884,-19.6427 202.0955,-27.777 208.6499,-30.2349"/>
</g>
</g>
</svg>
