<?xml version="1.0" encoding="UTF-8" standalone="no"?>
<!DOCTYPE svg PUBLIC "-//W3C//DTD SVG 1.1//EN"
 "http://www.w3.org/Graphics/SVG/1.1/DTD/svg11.dtd">
<!-- Generated by graphviz version 2.40.1 (20161225.0304)
 -->
<!-- Title: /home/oleg/Dev/riversim/source/river/geometrynew.cpp Pages: 1 -->
<svg width="561pt" height="263pt"
 viewBox="0.00 0.00 561.31 263.00" xmlns="http://www.w3.org/2000/svg" xmlns:xlink="http://www.w3.org/1999/xlink">
<g id="graph0" class="graph" transform="scale(1 1) rotate(0) translate(4 259)">
<title>/home/oleg/Dev/riversim/source/river/geometrynew.cpp</title>
<polygon fill="#ffffff" stroke="transparent" points="-4,4 -4,-259 557.3125,-259 557.3125,4 -4,4"/>
<!-- Node0 -->
<g id="node1" class="node">
<title>Node0</title>
<polygon fill="#bfbfbf" stroke="#000000" points="221.3125,-224.5 221.3125,-254.5 372.3125,-254.5 372.3125,-224.5 221.3125,-224.5"/>
<text text-anchor="start" x="229.3125" y="-242.5" font-family="Helvetica,sans-Serif" font-size="10.00" fill="#000000">/home/oleg/Dev/riversim</text>
<text text-anchor="middle" x="296.8125" y="-231.5" font-family="Helvetica,sans-Serif" font-size="10.00" fill="#000000">/source/river/geometrynew.cpp</text>
</g>
<!-- Node1 -->
<g id="node2" class="node">
<title>Node1</title>
<g id="a_node2"><a xlink:href="geometrynew_8hpp.html" target="_top" xlink:title="Holds all functionality that you need to work with tree of river, its separate branches and generatio...">
<polygon fill="#ffffff" stroke="#000000" points="249.8125,-168.5 249.8125,-187.5 343.8125,-187.5 343.8125,-168.5 249.8125,-168.5"/>
<text text-anchor="middle" x="296.8125" y="-175.5" font-family="Helvetica,sans-Serif" font-size="10.00" fill="#000000">geometrynew.hpp</text>
</a>
</g>
</g>
<!-- Node0&#45;&gt;Node1 -->
<g id="edge1" class="edge">
<title>Node0&#45;&gt;Node1</title>
<path fill="none" stroke="#191970" d="M296.8125,-224.2977C296.8125,-216.3834 296.8125,-206.6043 296.8125,-198.0759"/>
<polygon fill="#191970" stroke="#191970" points="300.3126,-197.8469 296.8125,-187.8469 293.3126,-197.847 300.3126,-197.8469"/>
</g>
<!-- Node2 -->
<g id="node3" class="node">
<title>Node2</title>
<polygon fill="#ffffff" stroke="#bfbfbf" points="31.8125,-.5 31.8125,-19.5 85.8125,-19.5 85.8125,-.5 31.8125,-.5"/>
<text text-anchor="middle" x="58.8125" y="-7.5" font-family="Helvetica,sans-Serif" font-size="10.00" fill="#000000">iostream</text>
</g>
<!-- Node1&#45;&gt;Node2 -->
<g id="edge2" class="edge">
<title>Node1&#45;&gt;Node2</title>
<path fill="none" stroke="#191970" d="M249.6461,-175.3737C201.9456,-171.1728 127.1337,-160.2693 68.8125,-132 34.1954,-115.2204 18.9748,-110.9096 2.8125,-76 -6.3984,-56.105 13.0774,-37.4504 31.5343,-25.0841"/>
<polygon fill="#191970" stroke="#191970" points="33.4998,-27.9827 40.1087,-19.7018 29.7783,-22.0539 33.4998,-27.9827"/>
</g>
<!-- Node3 -->
<g id="node4" class="node">
<title>Node3</title>
<polygon fill="#ffffff" stroke="#bfbfbf" points="241.8125,-.5 241.8125,-19.5 285.8125,-19.5 285.8125,-.5 241.8125,-.5"/>
<text text-anchor="middle" x="263.8125" y="-7.5" font-family="Helvetica,sans-Serif" font-size="10.00" fill="#000000">vector</text>
</g>
<!-- Node1&#45;&gt;Node3 -->
<g id="edge3" class="edge">
<title>Node1&#45;&gt;Node3</title>
<path fill="none" stroke="#191970" d="M293.6986,-168.2113C290.8369,-158.9543 286.6246,-144.6372 283.8125,-132 275.8436,-96.1888 269.6,-53.81 266.3304,-29.599"/>
<polygon fill="#191970" stroke="#191970" points="269.7841,-29.0175 265.0057,-19.5614 262.8443,-29.9334 269.7841,-29.0175"/>
</g>
<!-- Node4 -->
<g id="node5" class="node">
<title>Node4</title>
<polygon fill="#ffffff" stroke="#bfbfbf" points="518.3125,-.5 518.3125,-19.5 553.3125,-19.5 553.3125,-.5 518.3125,-.5"/>
<text text-anchor="middle" x="535.8125" y="-7.5" font-family="Helvetica,sans-Serif" font-size="10.00" fill="#000000">map</text>
</g>
<!-- Node1&#45;&gt;Node4 -->
<g id="edge4" class="edge">
<title>Node1&#45;&gt;Node4</title>
<path fill="none" stroke="#191970" d="M339.4247,-168.44C387.4727,-155.5007 464.7542,-127.8278 509.8125,-76 521.4025,-62.6688 528.1671,-43.5566 531.8751,-29.3269"/>
<polygon fill="#191970" stroke="#191970" points="535.2871,-30.1066 534.1442,-19.5736 528.4692,-28.5204 535.2871,-30.1066"/>
</g>
<!-- Node5 -->
<g id="node6" class="node">
<title>Node5</title>
<polygon fill="#ffffff" stroke="#bfbfbf" points="364.8125,-56.5 364.8125,-75.5 420.8125,-75.5 420.8125,-56.5 364.8125,-56.5"/>
<text text-anchor="middle" x="392.8125" y="-63.5" font-family="Helvetica,sans-Serif" font-size="10.00" fill="#000000">algorithm</text>
</g>
<!-- Node1&#45;&gt;Node5 -->
<g id="edge5" class="edge">
<title>Node1&#45;&gt;Node5</title>
<path fill="none" stroke="#191970" d="M316.319,-168.443C331.0031,-160.423 350.7649,-147.7584 363.8125,-132 375.1343,-118.3261 382.8128,-99.5429 387.4096,-85.5102"/>
<polygon fill="#191970" stroke="#191970" points="390.7807,-86.454 390.3334,-75.8686 384.082,-84.4225 390.7807,-86.454"/>
</g>
<!-- Node6 -->
<g id="node7" class="node">
<title>Node6</title>
<g id="a_node7"><a xlink:href="common_8hpp.html" target="_top" xlink:title="common.hpp">
<polygon fill="#ffffff" stroke="#000000" points="159.3125,-56.5 159.3125,-75.5 232.3125,-75.5 232.3125,-56.5 159.3125,-56.5"/>
<text text-anchor="middle" x="195.8125" y="-63.5" font-family="Helvetica,sans-Serif" font-size="10.00" fill="#000000">common.hpp</text>
</a>
</g>
</g>
<!-- Node1&#45;&gt;Node6 -->
<g id="edge6" class="edge">
<title>Node1&#45;&gt;Node6</title>
<path fill="none" stroke="#191970" d="M285.174,-168.2856C274.6931,-159.3117 259.0939,-145.3839 246.8125,-132 232.8122,-116.7427 218.5395,-97.9369 208.6672,-84.3076"/>
<polygon fill="#191970" stroke="#191970" points="211.2543,-81.908 202.5929,-75.8062 205.5587,-85.9775 211.2543,-81.908"/>
</g>
<!-- Node8 -->
<g id="node9" class="node">
<title>Node8</title>
<g id="a_node9"><a xlink:href="tethex_8hpp.html" target="_top" xlink:title="tethex.hpp">
<polygon fill="#ffffff" stroke="#000000" points="438.8125,-56.5 438.8125,-75.5 500.8125,-75.5 500.8125,-56.5 438.8125,-56.5"/>
<text text-anchor="middle" x="469.8125" y="-63.5" font-family="Helvetica,sans-Serif" font-size="10.00" fill="#000000">tethex.hpp</text>
</a>
</g>
</g>
<!-- Node1&#45;&gt;Node8 -->
<g id="edge10" class="edge">
<title>Node1&#45;&gt;Node8</title>
<path fill="none" stroke="#191970" d="M317.3995,-168.3367C335.3824,-159.6117 361.955,-146.0245 383.8125,-132 407.823,-116.5941 433.5504,-96.2933 450.5439,-82.2953"/>
<polygon fill="#191970" stroke="#191970" points="453.131,-84.6959 458.5789,-75.609 448.6534,-79.3151 453.131,-84.6959"/>
</g>
<!-- Node12 -->
<g id="node13" class="node">
<title>Node12</title>
<g id="a_node13"><a xlink:href="physmodel_8hpp.html" target="_top" xlink:title="physmodel.hpp">
<polygon fill="#ffffff" stroke="#000000" points="77.3125,-112.5 77.3125,-131.5 160.3125,-131.5 160.3125,-112.5 77.3125,-112.5"/>
<text text-anchor="middle" x="118.8125" y="-119.5" font-family="Helvetica,sans-Serif" font-size="10.00" fill="#000000">physmodel.hpp</text>
</a>
</g>
</g>
<!-- Node1&#45;&gt;Node12 -->
<g id="edge17" class="edge">
<title>Node1&#45;&gt;Node12</title>
<path fill="none" stroke="#191970" d="M266.2132,-168.3733C236.4864,-159.021 191.1966,-144.7725 158.6669,-134.5385"/>
<polygon fill="#191970" stroke="#191970" points="159.602,-131.1636 149.0125,-131.5011 157.5012,-137.8409 159.602,-131.1636"/>
</g>
<!-- Node15 -->
<g id="node16" class="node">
<title>Node15</title>
<g id="a_node16"><a xlink:href="border_8hpp.html" target="_top" xlink:title="Generate some initial predefinide border geometry and its source positions. ">
<polygon fill="#ffffff" stroke="#000000" points="292.8125,-112.5 292.8125,-131.5 354.8125,-131.5 354.8125,-112.5 292.8125,-112.5"/>
<text text-anchor="middle" x="323.8125" y="-119.5" font-family="Helvetica,sans-Serif" font-size="10.00" fill="#000000">border.hpp</text>
</a>
</g>
</g>
<!-- Node1&#45;&gt;Node15 -->
<g id="edge22" class="edge">
<title>Node1&#45;&gt;Node15</title>
<path fill="none" stroke="#191970" d="M301.5156,-168.2455C305.1549,-160.6973 310.3049,-150.0158 314.7387,-140.8197"/>
<polygon fill="#191970" stroke="#191970" points="317.973,-142.1704 319.1634,-131.6427 311.6676,-139.1303 317.973,-142.1704"/>
</g>
<!-- Node6&#45;&gt;Node2 -->
<g id="edge9" class="edge">
<title>Node6&#45;&gt;Node2</title>
<path fill="none" stroke="#191970" d="M172.2614,-56.3733C149.9735,-47.2629 116.3189,-33.5062 91.4488,-23.3404"/>
<polygon fill="#191970" stroke="#191970" points="92.6372,-20.0451 82.0563,-19.5011 89.9886,-26.5247 92.6372,-20.0451"/>
</g>
<!-- Node6&#45;&gt;Node3 -->
<g id="edge7" class="edge">
<title>Node6&#45;&gt;Node3</title>
<path fill="none" stroke="#191970" d="M207.6572,-56.2455C217.7005,-47.9746 232.312,-35.9416 244.1129,-26.2232"/>
<polygon fill="#191970" stroke="#191970" points="246.6092,-28.7015 252.1036,-19.6427 242.1593,-23.298 246.6092,-28.7015"/>
</g>
<!-- Node7 -->
<g id="node8" class="node">
<title>Node7</title>
<polygon fill="#ffffff" stroke="#bfbfbf" points="172.3125,-.5 172.3125,-19.5 219.3125,-19.5 219.3125,-.5 172.3125,-.5"/>
<text text-anchor="middle" x="195.8125" y="-7.5" font-family="Helvetica,sans-Serif" font-size="10.00" fill="#000000">math.h</text>
</g>
<!-- Node6&#45;&gt;Node7 -->
<g id="edge8" class="edge">
<title>Node6&#45;&gt;Node7</title>
<path fill="none" stroke="#191970" d="M195.8125,-56.2455C195.8125,-48.9382 195.8125,-38.6944 195.8125,-29.7046"/>
<polygon fill="#191970" stroke="#191970" points="199.3126,-29.6426 195.8125,-19.6427 192.3126,-29.6427 199.3126,-29.6426"/>
</g>
<!-- Node8&#45;&gt;Node2 -->
<g id="edge11" class="edge">
<title>Node8&#45;&gt;Node2</title>
<path fill="none" stroke="#191970" d="M438.4488,-57.776C435.5391,-57.129 432.6274,-56.5243 429.8125,-56 366.3063,-44.1701 177.2409,-22.9242 96.2815,-14.0587"/>
<polygon fill="#191970" stroke="#191970" points="96.3726,-10.5479 86.0517,-12.9414 95.6125,-17.5065 96.3726,-10.5479"/>
</g>
<!-- Node8&#45;&gt;Node3 -->
<g id="edge16" class="edge">
<title>Node8&#45;&gt;Node3</title>
<path fill="none" stroke="#191970" d="M438.5256,-57.4948C399.8833,-46.9901 334.5071,-29.2179 295.6246,-18.6479"/>
<polygon fill="#191970" stroke="#191970" points="296.4414,-15.243 285.8734,-15.9971 294.605,-21.9979 296.4414,-15.243"/>
</g>
<!-- Node8&#45;&gt;Node4 -->
<g id="edge12" class="edge">
<title>Node8&#45;&gt;Node4</title>
<path fill="none" stroke="#191970" d="M481.3089,-56.2455C491.0567,-47.9746 505.2385,-35.9416 516.6923,-26.2232"/>
<polygon fill="#191970" stroke="#191970" points="519.0873,-28.7813 524.448,-19.6427 514.5584,-23.4437 519.0873,-28.7813"/>
</g>
<!-- Node9 -->
<g id="node10" class="node">
<title>Node9</title>
<polygon fill="#ffffff" stroke="#bfbfbf" points="447.8125,-.5 447.8125,-19.5 499.8125,-19.5 499.8125,-.5 447.8125,-.5"/>
<text text-anchor="middle" x="473.8125" y="-7.5" font-family="Helvetica,sans-Serif" font-size="10.00" fill="#000000">sstream</text>
</g>
<!-- Node8&#45;&gt;Node9 -->
<g id="edge13" class="edge">
<title>Node8&#45;&gt;Node9</title>
<path fill="none" stroke="#191970" d="M470.5093,-56.2455C471.0312,-48.9382 471.7629,-38.6944 472.4051,-29.7046"/>
<polygon fill="#191970" stroke="#191970" points="475.9023,-29.8667 473.1238,-19.6427 468.9201,-29.3679 475.9023,-29.8667"/>
</g>
<!-- Node10 -->
<g id="node11" class="node">
<title>Node10</title>
<polygon fill="#ffffff" stroke="#bfbfbf" points="370.3125,-.5 370.3125,-19.5 429.3125,-19.5 429.3125,-.5 370.3125,-.5"/>
<text text-anchor="middle" x="399.8125" y="-7.5" font-family="Helvetica,sans-Serif" font-size="10.00" fill="#000000">stdexcept</text>
</g>
<!-- Node8&#45;&gt;Node10 -->
<g id="edge14" class="edge">
<title>Node8&#45;&gt;Node10</title>
<path fill="none" stroke="#191970" d="M457.6195,-56.2455C447.1804,-47.8943 431.9471,-35.7076 419.7386,-25.9408"/>
<polygon fill="#191970" stroke="#191970" points="421.861,-23.1566 411.8659,-19.6427 417.4881,-28.6227 421.861,-23.1566"/>
</g>
<!-- Node11 -->
<g id="node12" class="node">
<title>Node11</title>
<polygon fill="#ffffff" stroke="#bfbfbf" points="311.3125,-.5 311.3125,-19.5 352.3125,-19.5 352.3125,-.5 311.3125,-.5"/>
<text text-anchor="middle" x="331.8125" y="-7.5" font-family="Helvetica,sans-Serif" font-size="10.00" fill="#000000">string</text>
</g>
<!-- Node8&#45;&gt;Node11 -->
<g id="edge15" class="edge">
<title>Node8&#45;&gt;Node11</title>
<path fill="none" stroke="#191970" d="M446.0895,-56.3733C422.8225,-46.9316 387.258,-32.4996 361.9902,-22.246"/>
<polygon fill="#191970" stroke="#191970" points="363.1072,-18.9221 352.525,-18.4051 360.4751,-25.4084 363.1072,-18.9221"/>
</g>
<!-- Node12&#45;&gt;Node2 -->
<g id="edge18" class="edge">
<title>Node12&#45;&gt;Node2</title>
<path fill="none" stroke="#191970" d="M77.1416,-115.9132C53.096,-110.0296 24.7437,-98.5075 9.8125,-76 -1.9841,-58.2175 16.7181,-38.6908 34.3147,-25.5246"/>
<polygon fill="#191970" stroke="#191970" points="36.5607,-28.224 42.7258,-19.6076 32.5331,-22.4987 36.5607,-28.224"/>
</g>
<!-- Node12&#45;&gt;Node6 -->
<g id="edge21" class="edge">
<title>Node12&#45;&gt;Node6</title>
<path fill="none" stroke="#191970" d="M132.2249,-112.2455C143.8182,-103.814 160.7873,-91.4729 174.2804,-81.6598"/>
<polygon fill="#191970" stroke="#191970" points="176.5251,-84.355 182.5539,-75.6427 172.4079,-78.6938 176.5251,-84.355"/>
</g>
<!-- Node13 -->
<g id="node14" class="node">
<title>Node13</title>
<polygon fill="#ffffff" stroke="#bfbfbf" points="96.8125,-56.5 96.8125,-75.5 140.8125,-75.5 140.8125,-56.5 96.8125,-56.5"/>
<text text-anchor="middle" x="118.8125" y="-63.5" font-family="Helvetica,sans-Serif" font-size="10.00" fill="#000000">cmath</text>
</g>
<!-- Node12&#45;&gt;Node13 -->
<g id="edge19" class="edge">
<title>Node12&#45;&gt;Node13</title>
<path fill="none" stroke="#191970" d="M118.8125,-112.2455C118.8125,-104.9382 118.8125,-94.6944 118.8125,-85.7046"/>
<polygon fill="#191970" stroke="#191970" points="122.3126,-85.6426 118.8125,-75.6427 115.3126,-85.6427 122.3126,-85.6426"/>
</g>
<!-- Node14 -->
<g id="node15" class="node">
<title>Node14</title>
<polygon fill="#ffffff" stroke="#bfbfbf" points="19.3125,-56.5 19.3125,-75.5 78.3125,-75.5 78.3125,-56.5 19.3125,-56.5"/>
<text text-anchor="middle" x="48.8125" y="-63.5" font-family="Helvetica,sans-Serif" font-size="10.00" fill="#000000">functional</text>
</g>
<!-- Node12&#45;&gt;Node14 -->
<g id="edge20" class="edge">
<title>Node12&#45;&gt;Node14</title>
<path fill="none" stroke="#191970" d="M106.6195,-112.2455C96.1804,-103.8943 80.9471,-91.7076 68.7386,-81.9408"/>
<polygon fill="#191970" stroke="#191970" points="70.861,-79.1566 60.8659,-75.6427 66.4881,-84.6227 70.861,-79.1566"/>
</g>
<!-- Node15&#45;&gt;Node3 -->
<g id="edge23" class="edge">
<title>Node15&#45;&gt;Node3</title>
<path fill="none" stroke="#191970" d="M318.697,-112.4509C308.734,-93.8533 286.576,-52.4919 273.6677,-28.3964"/>
<polygon fill="#191970" stroke="#191970" points="276.7226,-26.6869 268.9151,-19.5249 270.5522,-29.9925 276.7226,-26.6869"/>
</g>
<!-- Node15&#45;&gt;Node5 -->
<g id="edge24" class="edge">
<title>Node15&#45;&gt;Node5</title>
<path fill="none" stroke="#191970" d="M335.8314,-112.2455C346.0224,-103.9746 360.8487,-91.9416 372.8232,-82.2232"/>
<polygon fill="#191970" stroke="#191970" points="375.3724,-84.662 380.9314,-75.6427 370.9612,-79.2268 375.3724,-84.662"/>
</g>
<!-- Node15&#45;&gt;Node6 -->
<g id="edge27" class="edge">
<title>Node15&#45;&gt;Node6</title>
<path fill="none" stroke="#191970" d="M301.8085,-112.3733C281.1691,-103.3435 250.0968,-89.7494 226.9237,-79.6111"/>
<polygon fill="#191970" stroke="#191970" points="228.0939,-76.3028 217.5294,-75.5011 225.2881,-82.7159 228.0939,-76.3028"/>
</g>
<!-- Node15&#45;&gt;Node8 -->
<g id="edge26" class="edge">
<title>Node15&#45;&gt;Node8</title>
<path fill="none" stroke="#191970" d="M348.9108,-112.3733C372.768,-103.2226 408.846,-89.3844 435.3835,-79.2057"/>
<polygon fill="#191970" stroke="#191970" points="436.9584,-82.3503 445.0417,-75.5011 434.4515,-75.8145 436.9584,-82.3503"/>
</g>
<!-- Node15&#45;&gt;Node11 -->
<g id="edge25" class="edge">
<title>Node15&#45;&gt;Node11</title>
<path fill="none" stroke="#191970" d="M324.4946,-112.4509C325.7994,-94.184 328.6729,-53.9553 330.4056,-29.6976"/>
<polygon fill="#191970" stroke="#191970" points="333.9107,-29.7489 331.1322,-19.5249 326.9285,-29.2501 333.9107,-29.7489"/>
</g>
</g>
</svg>
