<?xml version="1.0" encoding="UTF-8" standalone="no"?>
<!DOCTYPE svg PUBLIC "-//W3C//DTD SVG 1.1//EN"
 "http://www.w3.org/Graphics/SVG/1.1/DTD/svg11.dtd">
<!-- Generated by graphviz version 2.40.1 (20161225.0304)
 -->
<!-- Title: Graphical Class Hierarchy Pages: 1 -->
<svg width="298pt" height="214pt"
 viewBox="0.00 0.00 298.00 214.00" xmlns="http://www.w3.org/2000/svg" xmlns:xlink="http://www.w3.org/1999/xlink">
<g id="graph0" class="graph" transform="scale(1 1) rotate(0) translate(4 210)">
<title>Graphical Class Hierarchy</title>
<polygon fill="#ffffff" stroke="transparent" points="-4,4 -4,-210 294,-210 294,4 -4,4"/>
<!-- Node3 -->
<g id="node1" class="node">
<title>Node3</title>
<polygon fill="#ffffff" stroke="#bfbfbf" points="0,-115.5 0,-134.5 57,-134.5 57,-115.5 0,-115.5"/>
<text text-anchor="middle" x="28.5" y="-122.5" font-family="Helvetica,sans-Serif" font-size="10.00" fill="#000000">true_type</text>
</g>
<!-- Node0 -->
<g id="node2" class="node">
<title>Node0</title>
<g id="a_node2"><a xlink:href="structnlohmann_1_1detail_1_1is__basic__json_3_01NLOHMANN__BASIC__JSON__TPL_01_4.html" target="_top" xlink:title="nlohmann::detail::is\l_basic_json\&lt; NLOHMANN\l_BASIC_JSON_TPL \&gt;">
<polygon fill="#ffffff" stroke="#000000" points="124,-164.5 124,-205.5 259,-205.5 259,-164.5 124,-164.5"/>
<text text-anchor="start" x="132" y="-193.5" font-family="Helvetica,sans-Serif" font-size="10.00" fill="#000000">nlohmann::detail::is</text>
<text text-anchor="start" x="132" y="-182.5" font-family="Helvetica,sans-Serif" font-size="10.00" fill="#000000">_basic_json&lt; NLOHMANN</text>
<text text-anchor="middle" x="191.5" y="-171.5" font-family="Helvetica,sans-Serif" font-size="10.00" fill="#000000">_BASIC_JSON_TPL &gt;</text>
</a>
</g>
</g>
<!-- Node3&#45;&gt;Node0 -->
<g id="edge1" class="edge">
<title>Node3&#45;&gt;Node0</title>
<path fill="none" stroke="#191970" d="M56.4024,-139.0159C67.6238,-144.3779 80.7783,-150.3228 93,-155 102.8503,-158.7696 113.3922,-162.3952 123.7836,-165.7428"/>
<polygon fill="#191970" stroke="#191970" points="57.6349,-135.7235 47.1109,-134.5005 54.5752,-142.0195 57.6349,-135.7235"/>
</g>
<!-- Node5 -->
<g id="node3" class="node">
<title>Node5</title>
<g id="a_node3"><a xlink:href="structnlohmann_1_1detail_1_1is__complete__type_3_01T_00_01decltype_07void_07sizeof_07T_08_08_08_4.html" target="_top" xlink:title="nlohmann::detail::is\l_complete_type\&lt; T, decltype\l(void(sizeof(T)))\&gt;">
<polygon fill="#ffffff" stroke="#000000" points="120,-104.5 120,-145.5 263,-145.5 263,-104.5 120,-104.5"/>
<text text-anchor="start" x="128" y="-133.5" font-family="Helvetica,sans-Serif" font-size="10.00" fill="#000000">nlohmann::detail::is</text>
<text text-anchor="start" x="128" y="-122.5" font-family="Helvetica,sans-Serif" font-size="10.00" fill="#000000">_complete_type&lt; T, decltype</text>
<text text-anchor="middle" x="191.5" y="-111.5" font-family="Helvetica,sans-Serif" font-size="10.00" fill="#000000">(void(sizeof(T)))&gt;</text>
</a>
</g>
</g>
<!-- Node3&#45;&gt;Node5 -->
<g id="edge2" class="edge">
<title>Node3&#45;&gt;Node5</title>
<path fill="none" stroke="#191970" d="M67.6379,-125C83.3547,-125 101.9826,-125 119.9549,-125"/>
<polygon fill="#191970" stroke="#191970" points="67.2659,-121.5001 57.2659,-125 67.2659,-128.5001 67.2659,-121.5001"/>
</g>
<!-- Node6 -->
<g id="node4" class="node">
<title>Node6</title>
<g id="a_node4"><a xlink:href="structnlohmann_1_1detail_1_1is__constructible__array__type__impl_3_01BasicJsonType_00_01Construce6fa33688da703b95649da4749cdeb98.html" target="_top" xlink:title="nlohmann::detail::is\l_constructible_array\l_type_impl\&lt; BasicJsonType,\l ConstructibleArrayType,\l enable_if_t\&lt; std::is_same\l\&lt; ConstructibleArrayType, typename\l BasicJsonType::value_type \&gt;::value \&gt; \&gt;">
<polygon fill="#ffffff" stroke="#000000" points="93,-.5 93,-85.5 290,-85.5 290,-.5 93,-.5"/>
<text text-anchor="start" x="101" y="-73.5" font-family="Helvetica,sans-Serif" font-size="10.00" fill="#000000">nlohmann::detail::is</text>
<text text-anchor="start" x="101" y="-62.5" font-family="Helvetica,sans-Serif" font-size="10.00" fill="#000000">_constructible_array</text>
<text text-anchor="start" x="101" y="-51.5" font-family="Helvetica,sans-Serif" font-size="10.00" fill="#000000">_type_impl&lt; BasicJsonType,</text>
<text text-anchor="start" x="101" y="-40.5" font-family="Helvetica,sans-Serif" font-size="10.00" fill="#000000"> ConstructibleArrayType,</text>
<text text-anchor="start" x="101" y="-29.5" font-family="Helvetica,sans-Serif" font-size="10.00" fill="#000000"> enable_if_t&lt; std::is_same</text>
<text text-anchor="start" x="101" y="-18.5" font-family="Helvetica,sans-Serif" font-size="10.00" fill="#000000">&lt; ConstructibleArrayType, typename</text>
<text text-anchor="middle" x="191.5" y="-7.5" font-family="Helvetica,sans-Serif" font-size="10.00" fill="#000000"> BasicJsonType::value_type &gt;::value &gt; &gt;</text>
</a>
</g>
</g>
<!-- Node3&#45;&gt;Node6 -->
<g id="edge3" class="edge">
<title>Node3&#45;&gt;Node6</title>
<path fill="none" stroke="#191970" d="M56.6208,-110.8533C70.711,-103.765 88.6012,-94.765 106.7084,-85.6559"/>
<polygon fill="#191970" stroke="#191970" points="54.8775,-107.8123 47.5172,-115.4331 58.0234,-114.0656 54.8775,-107.8123"/>
</g>
</g>
</svg>
