<?xml version="1.0" encoding="UTF-8" standalone="no"?>
<!DOCTYPE svg PUBLIC "-//W3C//DTD SVG 1.1//EN"
 "http://www.w3.org/Graphics/SVG/1.1/DTD/svg11.dtd">
<!-- Generated by graphviz version 2.43.0 (0)
 -->
<!-- Title: Graphical Class Hierarchy Pages: 1 -->
<svg width="275pt" height="142pt"
 viewBox="0.00 0.00 275.00 142.00" xmlns="http://www.w3.org/2000/svg" xmlns:xlink="http://www.w3.org/1999/xlink">
<g id="graph0" class="graph" transform="scale(1 1) rotate(0) translate(4 138)">
<title>Graphical Class Hierarchy</title>
<polygon fill="white" stroke="transparent" points="-4,4 -4,-138 271,-138 271,4 -4,4"/>
<!-- Node0 -->
<g id="node1" class="node">
<title>Node0</title>
<g id="a_node1"><a xlink:href="classtethex_1_1MeshElement.html" target="_top" xlink:title="This class implements the most part of functionality of all elements of mesh: triangles,...">
<polygon fill="white" stroke="black" points="0,-57.5 0,-76.5 121,-76.5 121,-57.5 0,-57.5"/>
<text text-anchor="middle" x="60.5" y="-64.5" font-family="Helvetica,sans-Serif" font-size="10.00">tethex::MeshElement</text>
</a>
</g>
</g>
<!-- Node1 -->
<g id="node2" class="node">
<title>Node1</title>
<g id="a_node2"><a xlink:href="classtethex_1_1Line.html" target="_top" xlink:title="Line keeps 3 numbers &#45; the number of beginning vertex, the number of the ending one,...">
<polygon fill="white" stroke="black" points="175,-114.5 175,-133.5 249,-133.5 249,-114.5 175,-114.5"/>
<text text-anchor="middle" x="212" y="-121.5" font-family="Helvetica,sans-Serif" font-size="10.00">tethex::Line</text>
</a>
</g>
</g>
<!-- Node0&#45;&gt;Node1 -->
<g id="edge1" class="edge">
<title>Node0&#45;&gt;Node1</title>
<path fill="none" stroke="midnightblue" d="M94.32,-80.44C112.69,-87.86 136.04,-97.15 157,-105 165.47,-108.17 174.74,-111.49 183.17,-114.45"/>
<polygon fill="midnightblue" stroke="midnightblue" points="95.53,-77.15 84.95,-76.64 92.9,-83.64 95.53,-77.15"/>
</g>
<!-- Node2 -->
<g id="node3" class="node">
<title>Node2</title>
<g id="a_node3"><a xlink:href="classtethex_1_1PhysPoint.html" target="_top" xlink:title="PhysPoint keep 2 numbers &#45; the number of the vertex associated with the point, and the number of phys...">
<polygon fill="white" stroke="black" points="161,-76.5 161,-95.5 263,-95.5 263,-76.5 161,-76.5"/>
<text text-anchor="middle" x="212" y="-83.5" font-family="Helvetica,sans-Serif" font-size="10.00">tethex::PhysPoint</text>
</a>
</g>
</g>
<!-- Node0&#45;&gt;Node2 -->
<g id="edge2" class="edge">
<title>Node0&#45;&gt;Node2</title>
<path fill="none" stroke="midnightblue" d="M131.01,-75.83C141.07,-77.11 151.25,-78.41 160.83,-79.62"/>
<polygon fill="midnightblue" stroke="midnightblue" points="131.38,-72.35 121.02,-74.56 130.49,-79.3 131.38,-72.35"/>
</g>
<!-- Node3 -->
<g id="node4" class="node">
<title>Node3</title>
<g id="a_node4"><a xlink:href="classtethex_1_1Quadrangle.html" target="_top" xlink:title="Quadrangle &#45; 2&#45;dimensional shape with 4 straight edges.">
<polygon fill="white" stroke="black" points="157,-38.5 157,-57.5 267,-57.5 267,-38.5 157,-38.5"/>
<text text-anchor="middle" x="212" y="-45.5" font-family="Helvetica,sans-Serif" font-size="10.00">tethex::Quadrangle</text>
</a>
</g>
</g>
<!-- Node0&#45;&gt;Node3 -->
<g id="edge3" class="edge">
<title>Node0&#45;&gt;Node3</title>
<path fill="none" stroke="midnightblue" d="M131.01,-58.17C139.58,-57.08 148.24,-55.98 156.54,-54.92"/>
<polygon fill="midnightblue" stroke="midnightblue" points="130.49,-54.7 121.02,-59.44 131.38,-61.65 130.49,-54.7"/>
</g>
<!-- Node4 -->
<g id="node5" class="node">
<title>Node4</title>
<g id="a_node5"><a xlink:href="classtethex_1_1Triangle.html" target="_top" xlink:title="Triangle &#45; 2&#45;dimensional simplex.">
<polygon fill="white" stroke="black" points="165.5,-0.5 165.5,-19.5 258.5,-19.5 258.5,-0.5 165.5,-0.5"/>
<text text-anchor="middle" x="212" y="-7.5" font-family="Helvetica,sans-Serif" font-size="10.00">tethex::Triangle</text>
</a>
</g>
</g>
<!-- Node0&#45;&gt;Node4 -->
<g id="edge4" class="edge">
<title>Node0&#45;&gt;Node4</title>
<path fill="none" stroke="midnightblue" d="M94.32,-53.56C112.69,-46.14 136.04,-36.85 157,-29 165.47,-25.83 174.74,-22.51 183.17,-19.55"/>
<polygon fill="midnightblue" stroke="midnightblue" points="92.9,-50.36 84.95,-57.36 95.53,-56.85 92.9,-50.36"/>
</g>
</g>
</svg>
