<?xml version="1.0" encoding="UTF-8" standalone="no"?>
<!DOCTYPE svg PUBLIC "-//W3C//DTD SVG 1.1//EN"
 "http://www.w3.org/Graphics/SVG/1.1/DTD/svg11.dtd">
<!-- Generated by graphviz version 2.40.1 (20161225.0304)
 -->
<!-- Title: Graphical Class Hierarchy Pages: 1 -->
<svg width="510pt" height="1501pt"
 viewBox="0.00 0.00 510.00 1500.50" xmlns="http://www.w3.org/2000/svg" xmlns:xlink="http://www.w3.org/1999/xlink">
<g id="graph0" class="graph" transform="scale(1 1) rotate(0) translate(4 1496.5)">
<title>Graphical Class Hierarchy</title>
<polygon fill="#ffffff" stroke="transparent" points="-4,4 -4,-1496.5 506,-1496.5 506,4 -4,4"/>
<!-- Node107 -->
<g id="node1" class="node">
<title>Node107</title>
<polygon fill="#ffffff" stroke="#bfbfbf" points="0,-755.5 0,-774.5 62,-774.5 62,-755.5 0,-755.5"/>
<text text-anchor="middle" x="31" y="-762.5" font-family="Helvetica,sans-Serif" font-size="10.00" fill="#000000">false_type</text>
</g>
<!-- Node0 -->
<g id="node2" class="node">
<title>Node0</title>
<g id="a_node2"><a xlink:href="structnlohmann_1_1detail_1_1is__compatible__array__type__impl.html" target="_top" xlink:title="nlohmann::detail::is\l_compatible_array_type\l_impl\&lt; BasicJsonType, Compatible\lArrayType \&gt;">
<polygon fill="#ffffff" stroke="#000000" points="102,-1440 102,-1492 274,-1492 274,-1440 102,-1440"/>
<text text-anchor="start" x="110" y="-1480" font-family="Helvetica,sans-Serif" font-size="10.00" fill="#000000">nlohmann::detail::is</text>
<text text-anchor="start" x="110" y="-1469" font-family="Helvetica,sans-Serif" font-size="10.00" fill="#000000">_compatible_array_type</text>
<text text-anchor="start" x="110" y="-1458" font-family="Helvetica,sans-Serif" font-size="10.00" fill="#000000">_impl&lt; BasicJsonType, Compatible</text>
<text text-anchor="middle" x="188" y="-1447" font-family="Helvetica,sans-Serif" font-size="10.00" fill="#000000">ArrayType &gt;</text>
</a>
</g>
</g>
<!-- Node107&#45;&gt;Node0 -->
<g id="edge1" class="edge">
<title>Node107&#45;&gt;Node0</title>
<path fill="none" stroke="#191970" d="M31.7659,-784.6625C36.0013,-889.3192 57.8319,-1378.1707 98,-1431 100.4353,-1434.2029 103.205,-1437.1129 106.225,-1439.7567"/>
<polygon fill="#191970" stroke="#191970" points="35.2587,-784.4084 31.3637,-774.5555 28.2642,-784.6868 35.2587,-784.4084"/>
</g>
<!-- Node110 -->
<g id="node4" class="node">
<title>Node110</title>
<g id="a_node4"><a xlink:href="structnlohmann_1_1detail_1_1is__compatible__integer__type__impl.html" target="_top" xlink:title="nlohmann::detail::is\l_compatible_integer_type\l_impl\&lt; RealIntegerType,\l CompatibleNumberIntegerType \&gt;">
<polygon fill="#ffffff" stroke="#000000" points="106,-1369 106,-1421 270,-1421 270,-1369 106,-1369"/>
<text text-anchor="start" x="114" y="-1409" font-family="Helvetica,sans-Serif" font-size="10.00" fill="#000000">nlohmann::detail::is</text>
<text text-anchor="start" x="114" y="-1398" font-family="Helvetica,sans-Serif" font-size="10.00" fill="#000000">_compatible_integer_type</text>
<text text-anchor="start" x="114" y="-1387" font-family="Helvetica,sans-Serif" font-size="10.00" fill="#000000">_impl&lt; RealIntegerType,</text>
<text text-anchor="middle" x="188" y="-1376" font-family="Helvetica,sans-Serif" font-size="10.00" fill="#000000"> CompatibleNumberIntegerType &gt;</text>
</a>
</g>
</g>
<!-- Node107&#45;&gt;Node110 -->
<g id="edge3" class="edge">
<title>Node107&#45;&gt;Node110</title>
<path fill="none" stroke="#191970" d="M32.0316,-784.9838C37.2702,-883.3611 62.0909,-1313.3494 98,-1360 100.4543,-1363.1884 103.2394,-1366.0866 106.2717,-1368.721"/>
<polygon fill="#191970" stroke="#191970" points="35.5218,-784.7049 31.502,-774.9023 28.5315,-785.0722 35.5218,-784.7049"/>
</g>
<!-- Node112 -->
<g id="node6" class="node">
<title>Node112</title>
<g id="a_node6"><a xlink:href="structnlohmann_1_1detail_1_1is__compatible__object__type__impl.html" target="_top" xlink:title="nlohmann::detail::is\l_compatible_object_type\l_impl\&lt; BasicJsonType, Compatible\lObjectType \&gt;">
<polygon fill="#ffffff" stroke="#000000" points="102,-1298 102,-1350 274,-1350 274,-1298 102,-1298"/>
<text text-anchor="start" x="110" y="-1338" font-family="Helvetica,sans-Serif" font-size="10.00" fill="#000000">nlohmann::detail::is</text>
<text text-anchor="start" x="110" y="-1327" font-family="Helvetica,sans-Serif" font-size="10.00" fill="#000000">_compatible_object_type</text>
<text text-anchor="start" x="110" y="-1316" font-family="Helvetica,sans-Serif" font-size="10.00" fill="#000000">_impl&lt; BasicJsonType, Compatible</text>
<text text-anchor="middle" x="188" y="-1305" font-family="Helvetica,sans-Serif" font-size="10.00" fill="#000000">ObjectType &gt;</text>
</a>
</g>
</g>
<!-- Node107&#45;&gt;Node112 -->
<g id="edge5" class="edge">
<title>Node107&#45;&gt;Node112</title>
<path fill="none" stroke="#191970" d="M32.3407,-784.821C38.6343,-875.5327 66.2752,-1248.4204 98,-1289 100.4782,-1292.1699 103.2827,-1295.053 106.3306,-1297.6753"/>
<polygon fill="#191970" stroke="#191970" points="35.8138,-784.3078 31.6376,-774.5708 28.8302,-784.7869 35.8138,-784.3078"/>
</g>
<!-- Node114 -->
<g id="node8" class="node">
<title>Node114</title>
<g id="a_node8"><a xlink:href="structnlohmann_1_1detail_1_1is__compatible__string__type__impl.html" target="_top" xlink:title="nlohmann::detail::is\l_compatible_string_type\l_impl\&lt; BasicJsonType, Constructible\lStringType \&gt;">
<polygon fill="#ffffff" stroke="#000000" points="98,-1227 98,-1279 278,-1279 278,-1227 98,-1227"/>
<text text-anchor="start" x="106" y="-1267" font-family="Helvetica,sans-Serif" font-size="10.00" fill="#000000">nlohmann::detail::is</text>
<text text-anchor="start" x="106" y="-1256" font-family="Helvetica,sans-Serif" font-size="10.00" fill="#000000">_compatible_string_type</text>
<text text-anchor="start" x="106" y="-1245" font-family="Helvetica,sans-Serif" font-size="10.00" fill="#000000">_impl&lt; BasicJsonType, Constructible</text>
<text text-anchor="middle" x="188" y="-1234" font-family="Helvetica,sans-Serif" font-size="10.00" fill="#000000">StringType &gt;</text>
</a>
</g>
</g>
<!-- Node107&#45;&gt;Node114 -->
<g id="edge7" class="edge">
<title>Node107&#45;&gt;Node114</title>
<path fill="none" stroke="#191970" d="M31.3875,-785.0294C33.2839,-863.422 43.8502,-1148.4715 98,-1217 100.9214,-1220.6971 104.2804,-1224.0161 107.9463,-1226.9956"/>
<polygon fill="#191970" stroke="#191970" points="34.8783,-784.5683 31.1592,-774.6477 27.88,-784.7222 34.8783,-784.5683"/>
</g>
<!-- Node116 -->
<g id="node10" class="node">
<title>Node116</title>
<g id="a_node10"><a xlink:href="structnlohmann_1_1detail_1_1is__compatible__type__impl.html" target="_top" xlink:title="nlohmann::detail::is\l_compatible_type_impl\l\&lt; BasicJsonType, CompatibleType \&gt;">
<polygon fill="#ffffff" stroke="#000000" points="98.5,-1166.5 98.5,-1207.5 277.5,-1207.5 277.5,-1166.5 98.5,-1166.5"/>
<text text-anchor="start" x="106.5" y="-1195.5" font-family="Helvetica,sans-Serif" font-size="10.00" fill="#000000">nlohmann::detail::is</text>
<text text-anchor="start" x="106.5" y="-1184.5" font-family="Helvetica,sans-Serif" font-size="10.00" fill="#000000">_compatible_type_impl</text>
<text text-anchor="middle" x="188" y="-1173.5" font-family="Helvetica,sans-Serif" font-size="10.00" fill="#000000">&lt; BasicJsonType, CompatibleType &gt;</text>
</a>
</g>
</g>
<!-- Node107&#45;&gt;Node116 -->
<g id="edge9" class="edge">
<title>Node107&#45;&gt;Node116</title>
<path fill="none" stroke="#191970" d="M31.7772,-785.1667C34.9438,-857.1305 49.1286,-1100.0454 98,-1157 101.0031,-1160.4998 104.4259,-1163.5929 108.1408,-1166.3264"/>
<polygon fill="#191970" stroke="#191970" points="35.2586,-784.6451 31.3467,-774.799 28.2647,-784.9356 35.2586,-784.6451"/>
</g>
<!-- Node118 -->
<g id="node12" class="node">
<title>Node118</title>
<g id="a_node12"><a xlink:href="structnlohmann_1_1detail_1_1is__constructible__array__type__impl.html" target="_top" xlink:title="nlohmann::detail::is\l_constructible_array\l_type_impl\&lt; BasicJsonType,\l ConstructibleArrayType \&gt;">
<polygon fill="#ffffff" stroke="#000000" points="116.5,-1095 116.5,-1147 259.5,-1147 259.5,-1095 116.5,-1095"/>
<text text-anchor="start" x="124.5" y="-1135" font-family="Helvetica,sans-Serif" font-size="10.00" fill="#000000">nlohmann::detail::is</text>
<text text-anchor="start" x="124.5" y="-1124" font-family="Helvetica,sans-Serif" font-size="10.00" fill="#000000">_constructible_array</text>
<text text-anchor="start" x="124.5" y="-1113" font-family="Helvetica,sans-Serif" font-size="10.00" fill="#000000">_type_impl&lt; BasicJsonType,</text>
<text text-anchor="middle" x="188" y="-1102" font-family="Helvetica,sans-Serif" font-size="10.00" fill="#000000"> ConstructibleArrayType &gt;</text>
</a>
</g>
</g>
<!-- Node107&#45;&gt;Node118 -->
<g id="edge11" class="edge">
<title>Node107&#45;&gt;Node118</title>
<path fill="none" stroke="#191970" d="M32.6628,-784.595C38.3184,-846.9795 58.6806,-1039.5863 98,-1086 103.0932,-1092.0122 109.3498,-1096.9965 116.1711,-1101.1277"/>
<polygon fill="#191970" stroke="#191970" points="36.14,-784.1811 31.7766,-774.5265 29.1669,-784.7949 36.14,-784.1811"/>
</g>
<!-- Node120 -->
<g id="node14" class="node">
<title>Node120</title>
<g id="a_node14"><a xlink:href="structnlohmann_1_1detail_1_1is__constructible__object__type__impl.html" target="_top" xlink:title="nlohmann::detail::is\l_constructible_object\l_type_impl\&lt; BasicJsonType,\l ConstructibleObjectType \&gt;">
<polygon fill="#ffffff" stroke="#000000" points="116.5,-1024 116.5,-1076 259.5,-1076 259.5,-1024 116.5,-1024"/>
<text text-anchor="start" x="124.5" y="-1064" font-family="Helvetica,sans-Serif" font-size="10.00" fill="#000000">nlohmann::detail::is</text>
<text text-anchor="start" x="124.5" y="-1053" font-family="Helvetica,sans-Serif" font-size="10.00" fill="#000000">_constructible_object</text>
<text text-anchor="start" x="124.5" y="-1042" font-family="Helvetica,sans-Serif" font-size="10.00" fill="#000000">_type_impl&lt; BasicJsonType,</text>
<text text-anchor="middle" x="188" y="-1031" font-family="Helvetica,sans-Serif" font-size="10.00" fill="#000000"> ConstructibleObjectType &gt;</text>
</a>
</g>
</g>
<!-- Node107&#45;&gt;Node120 -->
<g id="edge13" class="edge">
<title>Node107&#45;&gt;Node120</title>
<path fill="none" stroke="#191970" d="M34.0062,-784.847C42.3414,-837.5436 67.177,-979.3191 98,-1014 103.2543,-1019.912 109.6129,-1024.8666 116.4932,-1029.0161"/>
<polygon fill="#191970" stroke="#191970" points="37.4336,-784.1087 32.442,-774.7634 30.5163,-785.1818 37.4336,-784.1087"/>
</g>
<!-- Node122 -->
<g id="node16" class="node">
<title>Node122</title>
<g id="a_node16"><a xlink:href="structnlohmann_1_1detail_1_1is__constructible__string__type__impl.html" target="_top" xlink:title="nlohmann::detail::is\l_constructible_string\l_type_impl\&lt; BasicJsonType,\l ConstructibleStringType \&gt;">
<polygon fill="#ffffff" stroke="#000000" points="116.5,-953 116.5,-1005 259.5,-1005 259.5,-953 116.5,-953"/>
<text text-anchor="start" x="124.5" y="-993" font-family="Helvetica,sans-Serif" font-size="10.00" fill="#000000">nlohmann::detail::is</text>
<text text-anchor="start" x="124.5" y="-982" font-family="Helvetica,sans-Serif" font-size="10.00" fill="#000000">_constructible_string</text>
<text text-anchor="start" x="124.5" y="-971" font-family="Helvetica,sans-Serif" font-size="10.00" fill="#000000">_type_impl&lt; BasicJsonType,</text>
<text text-anchor="middle" x="188" y="-960" font-family="Helvetica,sans-Serif" font-size="10.00" fill="#000000"> ConstructibleStringType &gt;</text>
</a>
</g>
</g>
<!-- Node107&#45;&gt;Node122 -->
<g id="edge15" class="edge">
<title>Node107&#45;&gt;Node122</title>
<path fill="none" stroke="#191970" d="M33.2051,-784.7176C38.2431,-820.7991 53.7957,-897.8799 98,-943 103.2997,-948.4095 109.5171,-953.0295 116.1658,-956.9706"/>
<polygon fill="#191970" stroke="#191970" points="36.6444,-784.017 31.9159,-774.5359 29.6999,-784.8964 36.6444,-784.017"/>
</g>
<!-- Node124 -->
<g id="node18" class="node">
<title>Node124</title>
<g id="a_node18"><a xlink:href="structnlohmann_1_1detail_1_1has__from__json.html" target="_top" xlink:title="nlohmann::detail::has\l_from_json\&lt; BasicJsonType,\l T, typename \&gt;">
<polygon fill="#ffffff" stroke="#000000" points="116,-892.5 116,-933.5 260,-933.5 260,-892.5 116,-892.5"/>
<text text-anchor="start" x="124" y="-921.5" font-family="Helvetica,sans-Serif" font-size="10.00" fill="#000000">nlohmann::detail::has</text>
<text text-anchor="start" x="124" y="-910.5" font-family="Helvetica,sans-Serif" font-size="10.00" fill="#000000">_from_json&lt; BasicJsonType,</text>
<text text-anchor="middle" x="188" y="-899.5" font-family="Helvetica,sans-Serif" font-size="10.00" fill="#000000"> T, typename &gt;</text>
</a>
</g>
</g>
<!-- Node107&#45;&gt;Node124 -->
<g id="edge17" class="edge">
<title>Node107&#45;&gt;Node124</title>
<path fill="none" stroke="#191970" d="M37.0397,-784.3214C46.147,-810.3784 65.8351,-856.5573 98,-883 103.3436,-887.3929 109.3563,-891.1519 115.6747,-894.3668"/>
<polygon fill="#191970" stroke="#191970" points="40.2522,-782.8895 33.7789,-774.5022 33.609,-785.0957 40.2522,-782.8895"/>
</g>
<!-- Node125 -->
<g id="node19" class="node">
<title>Node125</title>
<g id="a_node19"><a xlink:href="structnlohmann_1_1detail_1_1has__non__default__from__json.html" target="_top" xlink:title="nlohmann::detail::has\l_non_default_from_json\l\&lt; BasicJsonType, T, typename \&gt;">
<polygon fill="#ffffff" stroke="#000000" points="106.5,-832.5 106.5,-873.5 269.5,-873.5 269.5,-832.5 106.5,-832.5"/>
<text text-anchor="start" x="114.5" y="-861.5" font-family="Helvetica,sans-Serif" font-size="10.00" fill="#000000">nlohmann::detail::has</text>
<text text-anchor="start" x="114.5" y="-850.5" font-family="Helvetica,sans-Serif" font-size="10.00" fill="#000000">_non_default_from_json</text>
<text text-anchor="middle" x="188" y="-839.5" font-family="Helvetica,sans-Serif" font-size="10.00" fill="#000000">&lt; BasicJsonType, T, typename &gt;</text>
</a>
</g>
</g>
<!-- Node107&#45;&gt;Node125 -->
<g id="edge18" class="edge">
<title>Node107&#45;&gt;Node125</title>
<path fill="none" stroke="#191970" d="M46.7342,-781.8326C59.4987,-794.6426 78.5142,-811.9042 98,-823 104.0112,-826.423 110.4725,-829.5303 117.0744,-832.3333"/>
<polygon fill="#191970" stroke="#191970" points="49.1214,-779.2667 39.646,-774.5268 44.0974,-784.1411 49.1214,-779.2667"/>
</g>
<!-- Node126 -->
<g id="node20" class="node">
<title>Node126</title>
<g id="a_node20"><a xlink:href="structnlohmann_1_1detail_1_1has__to__json.html" target="_top" xlink:title="nlohmann::detail::has\l_to_json\&lt; BasicJsonType,\l T, typename \&gt;">
<polygon fill="#ffffff" stroke="#000000" points="121.5,-772.5 121.5,-813.5 254.5,-813.5 254.5,-772.5 121.5,-772.5"/>
<text text-anchor="start" x="129.5" y="-801.5" font-family="Helvetica,sans-Serif" font-size="10.00" fill="#000000">nlohmann::detail::has</text>
<text text-anchor="start" x="129.5" y="-790.5" font-family="Helvetica,sans-Serif" font-size="10.00" fill="#000000">_to_json&lt; BasicJsonType,</text>
<text text-anchor="middle" x="188" y="-779.5" font-family="Helvetica,sans-Serif" font-size="10.00" fill="#000000"> T, typename &gt;</text>
</a>
</g>
</g>
<!-- Node107&#45;&gt;Node126 -->
<g id="edge19" class="edge">
<title>Node107&#45;&gt;Node126</title>
<path fill="none" stroke="#191970" d="M72.031,-772.3176C87.1057,-775.0061 104.5887,-778.1241 121.3361,-781.1109"/>
<polygon fill="#191970" stroke="#191970" points="72.4773,-768.8421 62.0181,-770.5319 71.2483,-775.7333 72.4773,-768.8421"/>
</g>
<!-- Node127 -->
<g id="node21" class="node">
<title>Node127</title>
<g id="a_node21"><a xlink:href="structnlohmann_1_1detail_1_1is__basic__json.html" target="_top" xlink:title="nlohmann::detail::is\l_basic_json\&lt; typename \&gt;">
<polygon fill="#ffffff" stroke="#000000" points="123.5,-723 123.5,-753 252.5,-753 252.5,-723 123.5,-723"/>
<text text-anchor="start" x="131.5" y="-741" font-family="Helvetica,sans-Serif" font-size="10.00" fill="#000000">nlohmann::detail::is</text>
<text text-anchor="middle" x="188" y="-730" font-family="Helvetica,sans-Serif" font-size="10.00" fill="#000000">_basic_json&lt; typename &gt;</text>
</a>
</g>
</g>
<!-- Node107&#45;&gt;Node127 -->
<g id="edge20" class="edge">
<title>Node107&#45;&gt;Node127</title>
<path fill="none" stroke="#191970" d="M71.9121,-757.9642C87.599,-755.2664 105.9074,-752.1178 123.2853,-749.1293"/>
<polygon fill="#191970" stroke="#191970" points="71.2802,-754.5214 62.0181,-759.6657 72.4667,-761.4201 71.2802,-754.5214"/>
</g>
<!-- Node128 -->
<g id="node22" class="node">
<title>Node128</title>
<g id="a_node22"><a xlink:href="structnlohmann_1_1detail_1_1is__compatible__array__type__impl.html" target="_top" xlink:title="nlohmann::detail::is\l_compatible_array_type\l_impl\&lt; BasicJsonType, Compatible\lArrayType, typename \&gt;">
<polygon fill="#ffffff" stroke="#000000" points="102,-652 102,-704 274,-704 274,-652 102,-652"/>
<text text-anchor="start" x="110" y="-692" font-family="Helvetica,sans-Serif" font-size="10.00" fill="#000000">nlohmann::detail::is</text>
<text text-anchor="start" x="110" y="-681" font-family="Helvetica,sans-Serif" font-size="10.00" fill="#000000">_compatible_array_type</text>
<text text-anchor="start" x="110" y="-670" font-family="Helvetica,sans-Serif" font-size="10.00" fill="#000000">_impl&lt; BasicJsonType, Compatible</text>
<text text-anchor="middle" x="188" y="-659" font-family="Helvetica,sans-Serif" font-size="10.00" fill="#000000">ArrayType, typename &gt;</text>
</a>
</g>
</g>
<!-- Node107&#45;&gt;Node128 -->
<g id="edge21" class="edge">
<title>Node107&#45;&gt;Node128</title>
<path fill="none" stroke="#191970" d="M49.3662,-748.3796C62.2816,-737.3052 80.3447,-723.0024 98,-713 103.5429,-709.8597 109.4234,-706.8805 115.4189,-704.0838"/>
<polygon fill="#191970" stroke="#191970" points="46.8948,-745.8915 41.6784,-755.1132 51.507,-751.1573 46.8948,-745.8915"/>
</g>
<!-- Node129 -->
<g id="node23" class="node">
<title>Node129</title>
<g id="a_node23"><a xlink:href="structnlohmann_1_1detail_1_1is__compatible__integer__type__impl.html" target="_top" xlink:title="nlohmann::detail::is\l_compatible_integer_type\l_impl\&lt; RealIntegerType,\l CompatibleNumberIntegerType,\l typename \&gt;">
<polygon fill="#ffffff" stroke="#000000" points="109,-569.5 109,-632.5 267,-632.5 267,-569.5 109,-569.5"/>
<text text-anchor="start" x="117" y="-620.5" font-family="Helvetica,sans-Serif" font-size="10.00" fill="#000000">nlohmann::detail::is</text>
<text text-anchor="start" x="117" y="-609.5" font-family="Helvetica,sans-Serif" font-size="10.00" fill="#000000">_compatible_integer_type</text>
<text text-anchor="start" x="117" y="-598.5" font-family="Helvetica,sans-Serif" font-size="10.00" fill="#000000">_impl&lt; RealIntegerType,</text>
<text text-anchor="start" x="117" y="-587.5" font-family="Helvetica,sans-Serif" font-size="10.00" fill="#000000"> CompatibleNumberIntegerType,</text>
<text text-anchor="middle" x="188" y="-576.5" font-family="Helvetica,sans-Serif" font-size="10.00" fill="#000000"> typename &gt;</text>
</a>
</g>
</g>
<!-- Node107&#45;&gt;Node129 -->
<g id="edge22" class="edge">
<title>Node107&#45;&gt;Node129</title>
<path fill="none" stroke="#191970" d="M37.1192,-745.7108C46.4083,-719.1913 66.4042,-671.4193 98,-642 101.6442,-638.6069 105.6176,-635.4564 109.799,-632.537"/>
<polygon fill="#191970" stroke="#191970" points="33.7451,-744.7645 33.8871,-755.3584 40.3825,-746.9882 33.7451,-744.7645"/>
</g>
<!-- Node130 -->
<g id="node24" class="node">
<title>Node130</title>
<g id="a_node24"><a xlink:href="structnlohmann_1_1detail_1_1is__compatible__object__type__impl.html" target="_top" xlink:title="nlohmann::detail::is\l_compatible_object_type\l_impl\&lt; BasicJsonType, Compatible\lObjectType, typename \&gt;">
<polygon fill="#ffffff" stroke="#000000" points="102,-498 102,-550 274,-550 274,-498 102,-498"/>
<text text-anchor="start" x="110" y="-538" font-family="Helvetica,sans-Serif" font-size="10.00" fill="#000000">nlohmann::detail::is</text>
<text text-anchor="start" x="110" y="-527" font-family="Helvetica,sans-Serif" font-size="10.00" fill="#000000">_compatible_object_type</text>
<text text-anchor="start" x="110" y="-516" font-family="Helvetica,sans-Serif" font-size="10.00" fill="#000000">_impl&lt; BasicJsonType, Compatible</text>
<text text-anchor="middle" x="188" y="-505" font-family="Helvetica,sans-Serif" font-size="10.00" fill="#000000">ObjectType, typename &gt;</text>
</a>
</g>
</g>
<!-- Node107&#45;&gt;Node130 -->
<g id="edge23" class="edge">
<title>Node107&#45;&gt;Node130</title>
<path fill="none" stroke="#191970" d="M32.0401,-745.3826C35.1861,-705.3622 47.7838,-613.5708 98,-560 101.4527,-556.3166 105.3321,-553.0022 109.4909,-550.0208"/>
<polygon fill="#191970" stroke="#191970" points="28.5434,-745.2179 31.3687,-755.429 35.5278,-745.6847 28.5434,-745.2179"/>
</g>
<!-- Node131 -->
<g id="node25" class="node">
<title>Node131</title>
<g id="a_node25"><a xlink:href="structnlohmann_1_1detail_1_1is__compatible__string__type__impl.html" target="_top" xlink:title="nlohmann::detail::is\l_compatible_string_type\l_impl\&lt; BasicJsonType, Compatible\lStringType, typename \&gt;">
<polygon fill="#ffffff" stroke="#000000" points="102,-427 102,-479 274,-479 274,-427 102,-427"/>
<text text-anchor="start" x="110" y="-467" font-family="Helvetica,sans-Serif" font-size="10.00" fill="#000000">nlohmann::detail::is</text>
<text text-anchor="start" x="110" y="-456" font-family="Helvetica,sans-Serif" font-size="10.00" fill="#000000">_compatible_string_type</text>
<text text-anchor="start" x="110" y="-445" font-family="Helvetica,sans-Serif" font-size="10.00" fill="#000000">_impl&lt; BasicJsonType, Compatible</text>
<text text-anchor="middle" x="188" y="-434" font-family="Helvetica,sans-Serif" font-size="10.00" fill="#000000">StringType, typename &gt;</text>
</a>
</g>
</g>
<!-- Node107&#45;&gt;Node131 -->
<g id="edge24" class="edge">
<title>Node107&#45;&gt;Node131</title>
<path fill="none" stroke="#191970" d="M33.3964,-745.1954C40.6171,-688.4965 63.7937,-527.1101 98,-488 100.8696,-484.719 104.0847,-481.7434 107.5455,-479.045"/>
<polygon fill="#191970" stroke="#191970" points="29.8946,-744.9934 32.1329,-755.3491 36.8411,-745.8579 29.8946,-744.9934"/>
</g>
<!-- Node132 -->
<g id="node26" class="node">
<title>Node132</title>
<g id="a_node26"><a xlink:href="structnlohmann_1_1detail_1_1is__compatible__type__impl.html" target="_top" xlink:title="nlohmann::detail::is\l_compatible_type_impl\l\&lt; BasicJsonType, CompatibleType,\l typename \&gt;">
<polygon fill="#ffffff" stroke="#000000" points="101.5,-356 101.5,-408 274.5,-408 274.5,-356 101.5,-356"/>
<text text-anchor="start" x="109.5" y="-396" font-family="Helvetica,sans-Serif" font-size="10.00" fill="#000000">nlohmann::detail::is</text>
<text text-anchor="start" x="109.5" y="-385" font-family="Helvetica,sans-Serif" font-size="10.00" fill="#000000">_compatible_type_impl</text>
<text text-anchor="start" x="109.5" y="-374" font-family="Helvetica,sans-Serif" font-size="10.00" fill="#000000">&lt; BasicJsonType, CompatibleType,</text>
<text text-anchor="middle" x="188" y="-363" font-family="Helvetica,sans-Serif" font-size="10.00" fill="#000000"> typename &gt;</text>
</a>
</g>
</g>
<!-- Node107&#45;&gt;Node132 -->
<g id="edge25" class="edge">
<title>Node107&#45;&gt;Node132</title>
<path fill="none" stroke="#191970" d="M32.3399,-745.0688C37.1598,-678.8971 55.6248,-467.8176 98,-417 100.6842,-413.781 103.7024,-410.857 106.9638,-408.201"/>
<polygon fill="#191970" stroke="#191970" points="28.8268,-745.1339 31.6171,-755.3547 35.8096,-745.6247 28.8268,-745.1339"/>
</g>
<!-- Node133 -->
<g id="node27" class="node">
<title>Node133</title>
<g id="a_node27"><a xlink:href="structnlohmann_1_1detail_1_1is__complete__type.html" target="_top" xlink:title="nlohmann::detail::is\l_complete_type\&lt; T, typename \&gt;">
<polygon fill="#ffffff" stroke="#000000" points="109,-307 109,-337 267,-337 267,-307 109,-307"/>
<text text-anchor="start" x="117" y="-325" font-family="Helvetica,sans-Serif" font-size="10.00" fill="#000000">nlohmann::detail::is</text>
<text text-anchor="middle" x="188" y="-314" font-family="Helvetica,sans-Serif" font-size="10.00" fill="#000000">_complete_type&lt; T, typename &gt;</text>
</a>
</g>
</g>
<!-- Node107&#45;&gt;Node133 -->
<g id="edge26" class="edge">
<title>Node107&#45;&gt;Node133</title>
<path fill="none" stroke="#191970" d="M31.4121,-744.813C33.3619,-669.4483 43.9946,-405.8178 98,-346 101.1426,-342.5192 104.7282,-339.519 108.616,-336.9352"/>
<polygon fill="#191970" stroke="#191970" points="27.9032,-745.1529 31.1684,-755.232 34.9013,-745.3166 27.9032,-745.1529"/>
</g>
<!-- Node134 -->
<g id="node28" class="node">
<title>Node134</title>
<g id="a_node28"><a xlink:href="structnlohmann_1_1detail_1_1is__constructible__array__type__impl.html" target="_top" xlink:title="nlohmann::detail::is\l_constructible_array\l_type_impl\&lt; BasicJsonType,\l ConstructibleArrayType,\l typename \&gt;">
<polygon fill="#ffffff" stroke="#000000" points="116.5,-224.5 116.5,-287.5 259.5,-287.5 259.5,-224.5 116.5,-224.5"/>
<text text-anchor="start" x="124.5" y="-275.5" font-family="Helvetica,sans-Serif" font-size="10.00" fill="#000000">nlohmann::detail::is</text>
<text text-anchor="start" x="124.5" y="-264.5" font-family="Helvetica,sans-Serif" font-size="10.00" fill="#000000">_constructible_array</text>
<text text-anchor="start" x="124.5" y="-253.5" font-family="Helvetica,sans-Serif" font-size="10.00" fill="#000000">_type_impl&lt; BasicJsonType,</text>
<text text-anchor="start" x="124.5" y="-242.5" font-family="Helvetica,sans-Serif" font-size="10.00" fill="#000000"> ConstructibleArrayType,</text>
<text text-anchor="middle" x="188" y="-231.5" font-family="Helvetica,sans-Serif" font-size="10.00" fill="#000000"> typename &gt;</text>
</a>
</g>
</g>
<!-- Node107&#45;&gt;Node134 -->
<g id="edge27" class="edge">
<title>Node107&#45;&gt;Node134</title>
<path fill="none" stroke="#191970" d="M31.363,-745.3542C33.1909,-665.9649 43.6048,-369.6385 98,-297 102.9401,-290.4031 109.1917,-284.8386 116.0894,-280.1513"/>
<polygon fill="#191970" stroke="#191970" points="27.862,-745.3696 31.1514,-755.4409 34.8605,-745.5165 27.862,-745.3696"/>
</g>
<!-- Node135 -->
<g id="node29" class="node">
<title>Node135</title>
<g id="a_node29"><a xlink:href="structnlohmann_1_1detail_1_1is__constructible__object__type__impl.html" target="_top" xlink:title="nlohmann::detail::is\l_constructible_object\l_type_impl\&lt; BasicJsonType,\l ConstructibleObjectType,\l typename \&gt;">
<polygon fill="#ffffff" stroke="#000000" points="116.5,-142.5 116.5,-205.5 259.5,-205.5 259.5,-142.5 116.5,-142.5"/>
<text text-anchor="start" x="124.5" y="-193.5" font-family="Helvetica,sans-Serif" font-size="10.00" fill="#000000">nlohmann::detail::is</text>
<text text-anchor="start" x="124.5" y="-182.5" font-family="Helvetica,sans-Serif" font-size="10.00" fill="#000000">_constructible_object</text>
<text text-anchor="start" x="124.5" y="-171.5" font-family="Helvetica,sans-Serif" font-size="10.00" fill="#000000">_type_impl&lt; BasicJsonType,</text>
<text text-anchor="start" x="124.5" y="-160.5" font-family="Helvetica,sans-Serif" font-size="10.00" fill="#000000"> ConstructibleObjectType,</text>
<text text-anchor="middle" x="188" y="-149.5" font-family="Helvetica,sans-Serif" font-size="10.00" fill="#000000"> typename &gt;</text>
</a>
</g>
</g>
<!-- Node107&#45;&gt;Node135 -->
<g id="edge28" class="edge">
<title>Node107&#45;&gt;Node135</title>
<path fill="none" stroke="#191970" d="M32.2544,-745.4145C38.3552,-652.4929 65.9391,-258.7627 98,-215 102.9721,-208.2131 109.3381,-202.5223 116.3822,-197.7565"/>
<polygon fill="#191970" stroke="#191970" points="28.7598,-745.2186 31.6044,-755.4244 35.7451,-745.6723 28.7598,-745.2186"/>
</g>
<!-- Node136 -->
<g id="node30" class="node">
<title>Node136</title>
<g id="a_node30"><a xlink:href="structnlohmann_1_1detail_1_1is__constructible__string__type__impl.html" target="_top" xlink:title="nlohmann::detail::is\l_constructible_string\l_type_impl\&lt; BasicJsonType,\l ConstructibleStringType,\l typename \&gt;">
<polygon fill="#ffffff" stroke="#000000" points="116.5,-60.5 116.5,-123.5 259.5,-123.5 259.5,-60.5 116.5,-60.5"/>
<text text-anchor="start" x="124.5" y="-111.5" font-family="Helvetica,sans-Serif" font-size="10.00" fill="#000000">nlohmann::detail::is</text>
<text text-anchor="start" x="124.5" y="-100.5" font-family="Helvetica,sans-Serif" font-size="10.00" fill="#000000">_constructible_string</text>
<text text-anchor="start" x="124.5" y="-89.5" font-family="Helvetica,sans-Serif" font-size="10.00" fill="#000000">_type_impl&lt; BasicJsonType,</text>
<text text-anchor="start" x="124.5" y="-78.5" font-family="Helvetica,sans-Serif" font-size="10.00" fill="#000000"> ConstructibleStringType,</text>
<text text-anchor="middle" x="188" y="-67.5" font-family="Helvetica,sans-Serif" font-size="10.00" fill="#000000"> typename &gt;</text>
</a>
</g>
</g>
<!-- Node107&#45;&gt;Node136 -->
<g id="edge29" class="edge">
<title>Node107&#45;&gt;Node136</title>
<path fill="none" stroke="#191970" d="M31.9274,-745.4369C36.8702,-644.3536 61.2733,-183.9607 98,-133 102.919,-126.1746 109.2522,-120.4599 116.2781,-115.6808"/>
<polygon fill="#191970" stroke="#191970" points="28.429,-745.3219 31.4431,-755.479 35.4209,-745.6592 28.429,-745.3219"/>
</g>
<!-- Node137 -->
<g id="node31" class="node">
<title>Node137</title>
<g id="a_node31"><a xlink:href="structnlohmann_1_1detail_1_1is__iterator__traits.html" target="_top" xlink:title="nlohmann::detail::is\l_iterator_traits\&lt; T,\l typename \&gt;">
<polygon fill="#ffffff" stroke="#000000" points="137.5,-.5 137.5,-41.5 238.5,-41.5 238.5,-.5 137.5,-.5"/>
<text text-anchor="start" x="145.5" y="-29.5" font-family="Helvetica,sans-Serif" font-size="10.00" fill="#000000">nlohmann::detail::is</text>
<text text-anchor="start" x="145.5" y="-18.5" font-family="Helvetica,sans-Serif" font-size="10.00" fill="#000000">_iterator_traits&lt; T,</text>
<text text-anchor="middle" x="188" y="-7.5" font-family="Helvetica,sans-Serif" font-size="10.00" fill="#000000"> typename &gt;</text>
</a>
</g>
</g>
<!-- Node107&#45;&gt;Node137 -->
<g id="edge30" class="edge">
<title>Node107&#45;&gt;Node137</title>
<path fill="none" stroke="#191970" d="M31.582,-745.2614C34.9734,-635.8676 53.5905,-106.9046 98,-51 107.6299,-38.8774 122.3223,-31.6126 137.061,-27.2725"/>
<polygon fill="#191970" stroke="#191970" points="28.0837,-745.158 31.2787,-755.2596 35.0805,-745.3703 28.0837,-745.158"/>
</g>
<!-- Node1 -->
<g id="node3" class="node">
<title>Node1</title>
<g id="a_node3"><a xlink:href="structnlohmann_1_1detail_1_1is__compatible__array__type.html" target="_top" xlink:title="nlohmann::detail::is\l_compatible_array_type\l\&lt; BasicJsonType, CompatibleArray\lType \&gt;">
<polygon fill="#ffffff" stroke="#000000" points="322,-1440 322,-1492 494,-1492 494,-1440 322,-1440"/>
<text text-anchor="start" x="330" y="-1480" font-family="Helvetica,sans-Serif" font-size="10.00" fill="#000000">nlohmann::detail::is</text>
<text text-anchor="start" x="330" y="-1469" font-family="Helvetica,sans-Serif" font-size="10.00" fill="#000000">_compatible_array_type</text>
<text text-anchor="start" x="330" y="-1458" font-family="Helvetica,sans-Serif" font-size="10.00" fill="#000000">&lt; BasicJsonType, CompatibleArray</text>
<text text-anchor="middle" x="408" y="-1447" font-family="Helvetica,sans-Serif" font-size="10.00" fill="#000000">Type &gt;</text>
</a>
</g>
</g>
<!-- Node0&#45;&gt;Node1 -->
<g id="edge2" class="edge">
<title>Node0&#45;&gt;Node1</title>
<path fill="none" stroke="#191970" d="M284.3682,-1466C296.7906,-1466 309.4486,-1466 321.6952,-1466"/>
<polygon fill="#191970" stroke="#191970" points="284.003,-1462.5001 274.003,-1466 284.0029,-1469.5001 284.003,-1462.5001"/>
</g>
<!-- Node111 -->
<g id="node5" class="node">
<title>Node111</title>
<g id="a_node5"><a xlink:href="structnlohmann_1_1detail_1_1is__compatible__integer__type.html" target="_top" xlink:title="nlohmann::detail::is\l_compatible_integer_type\l\&lt; RealIntegerType, CompatibleNumber\lIntegerType \&gt;">
<polygon fill="#ffffff" stroke="#000000" points="314,-1369 314,-1421 502,-1421 502,-1369 314,-1369"/>
<text text-anchor="start" x="322" y="-1409" font-family="Helvetica,sans-Serif" font-size="10.00" fill="#000000">nlohmann::detail::is</text>
<text text-anchor="start" x="322" y="-1398" font-family="Helvetica,sans-Serif" font-size="10.00" fill="#000000">_compatible_integer_type</text>
<text text-anchor="start" x="322" y="-1387" font-family="Helvetica,sans-Serif" font-size="10.00" fill="#000000">&lt; RealIntegerType, CompatibleNumber</text>
<text text-anchor="middle" x="408" y="-1376" font-family="Helvetica,sans-Serif" font-size="10.00" fill="#000000">IntegerType &gt;</text>
</a>
</g>
</g>
<!-- Node110&#45;&gt;Node111 -->
<g id="edge4" class="edge">
<title>Node110&#45;&gt;Node111</title>
<path fill="none" stroke="#191970" d="M280.2822,-1395C291.314,-1395 302.59,-1395 313.6505,-1395"/>
<polygon fill="#191970" stroke="#191970" points="280.2328,-1391.5001 270.2327,-1395 280.2327,-1398.5001 280.2328,-1391.5001"/>
</g>
<!-- Node113 -->
<g id="node7" class="node">
<title>Node113</title>
<g id="a_node7"><a xlink:href="structnlohmann_1_1detail_1_1is__compatible__object__type.html" target="_top" xlink:title="nlohmann::detail::is\l_compatible_object_type\l\&lt; BasicJsonType, CompatibleObject\lType \&gt;">
<polygon fill="#ffffff" stroke="#000000" points="319.5,-1298 319.5,-1350 496.5,-1350 496.5,-1298 319.5,-1298"/>
<text text-anchor="start" x="327.5" y="-1338" font-family="Helvetica,sans-Serif" font-size="10.00" fill="#000000">nlohmann::detail::is</text>
<text text-anchor="start" x="327.5" y="-1327" font-family="Helvetica,sans-Serif" font-size="10.00" fill="#000000">_compatible_object_type</text>
<text text-anchor="start" x="327.5" y="-1316" font-family="Helvetica,sans-Serif" font-size="10.00" fill="#000000">&lt; BasicJsonType, CompatibleObject</text>
<text text-anchor="middle" x="408" y="-1305" font-family="Helvetica,sans-Serif" font-size="10.00" fill="#000000">Type &gt;</text>
</a>
</g>
</g>
<!-- Node112&#45;&gt;Node113 -->
<g id="edge6" class="edge">
<title>Node112&#45;&gt;Node113</title>
<path fill="none" stroke="#191970" d="M284.1589,-1324C295.7924,-1324 307.6358,-1324 319.1573,-1324"/>
<polygon fill="#191970" stroke="#191970" points="284.003,-1320.5001 274.003,-1324 284.0029,-1327.5001 284.003,-1320.5001"/>
</g>
<!-- Node115 -->
<g id="node9" class="node">
<title>Node115</title>
<g id="a_node9"><a xlink:href="structnlohmann_1_1detail_1_1is__compatible__string__type.html" target="_top" xlink:title="nlohmann::detail::is\l_compatible_string_type\l\&lt; BasicJsonType, Constructible\lStringType \&gt;">
<polygon fill="#ffffff" stroke="#000000" points="329.5,-1227 329.5,-1279 486.5,-1279 486.5,-1227 329.5,-1227"/>
<text text-anchor="start" x="337.5" y="-1267" font-family="Helvetica,sans-Serif" font-size="10.00" fill="#000000">nlohmann::detail::is</text>
<text text-anchor="start" x="337.5" y="-1256" font-family="Helvetica,sans-Serif" font-size="10.00" fill="#000000">_compatible_string_type</text>
<text text-anchor="start" x="337.5" y="-1245" font-family="Helvetica,sans-Serif" font-size="10.00" fill="#000000">&lt; BasicJsonType, Constructible</text>
<text text-anchor="middle" x="408" y="-1234" font-family="Helvetica,sans-Serif" font-size="10.00" fill="#000000">StringType &gt;</text>
</a>
</g>
</g>
<!-- Node114&#45;&gt;Node115 -->
<g id="edge8" class="edge">
<title>Node114&#45;&gt;Node115</title>
<path fill="none" stroke="#191970" d="M288.1221,-1253C301.9302,-1253 315.9476,-1253 329.2946,-1253"/>
<polygon fill="#191970" stroke="#191970" points="288.1172,-1249.5001 278.1172,-1253 288.1172,-1256.5001 288.1172,-1249.5001"/>
</g>
<!-- Node117 -->
<g id="node11" class="node">
<title>Node117</title>
<g id="a_node11"><a xlink:href="structnlohmann_1_1detail_1_1is__compatible__type.html" target="_top" xlink:title="nlohmann::detail::is\l_compatible_type\&lt; BasicJson\lType, CompatibleType \&gt;">
<polygon fill="#ffffff" stroke="#000000" points="334,-1166.5 334,-1207.5 482,-1207.5 482,-1166.5 334,-1166.5"/>
<text text-anchor="start" x="342" y="-1195.5" font-family="Helvetica,sans-Serif" font-size="10.00" fill="#000000">nlohmann::detail::is</text>
<text text-anchor="start" x="342" y="-1184.5" font-family="Helvetica,sans-Serif" font-size="10.00" fill="#000000">_compatible_type&lt; BasicJson</text>
<text text-anchor="middle" x="408" y="-1173.5" font-family="Helvetica,sans-Serif" font-size="10.00" fill="#000000">Type, CompatibleType &gt;</text>
</a>
</g>
</g>
<!-- Node116&#45;&gt;Node117 -->
<g id="edge10" class="edge">
<title>Node116&#45;&gt;Node117</title>
<path fill="none" stroke="#191970" d="M287.9199,-1187C303.3989,-1187 319.1463,-1187 333.9223,-1187"/>
<polygon fill="#191970" stroke="#191970" points="287.7998,-1183.5001 277.7997,-1187 287.7997,-1190.5001 287.7998,-1183.5001"/>
</g>
<!-- Node119 -->
<g id="node13" class="node">
<title>Node119</title>
<g id="a_node13"><a xlink:href="structnlohmann_1_1detail_1_1is__constructible__array__type.html" target="_top" xlink:title="nlohmann::detail::is\l_constructible_array\l_type\&lt; BasicJsonType,\l ConstructibleArrayType \&gt;">
<polygon fill="#ffffff" stroke="#000000" points="342.5,-1095 342.5,-1147 473.5,-1147 473.5,-1095 342.5,-1095"/>
<text text-anchor="start" x="350.5" y="-1135" font-family="Helvetica,sans-Serif" font-size="10.00" fill="#000000">nlohmann::detail::is</text>
<text text-anchor="start" x="350.5" y="-1124" font-family="Helvetica,sans-Serif" font-size="10.00" fill="#000000">_constructible_array</text>
<text text-anchor="start" x="350.5" y="-1113" font-family="Helvetica,sans-Serif" font-size="10.00" fill="#000000">_type&lt; BasicJsonType,</text>
<text text-anchor="middle" x="408" y="-1102" font-family="Helvetica,sans-Serif" font-size="10.00" fill="#000000"> ConstructibleArrayType &gt;</text>
</a>
</g>
</g>
<!-- Node118&#45;&gt;Node119 -->
<g id="edge12" class="edge">
<title>Node118&#45;&gt;Node119</title>
<path fill="none" stroke="#191970" d="M269.8457,-1121C293.75,-1121 319.5561,-1121 342.321,-1121"/>
<polygon fill="#191970" stroke="#191970" points="269.7318,-1117.5001 259.7318,-1121 269.7318,-1124.5001 269.7318,-1117.5001"/>
</g>
<!-- Node121 -->
<g id="node15" class="node">
<title>Node121</title>
<g id="a_node15"><a xlink:href="structnlohmann_1_1detail_1_1is__constructible__object__type.html" target="_top" xlink:title="nlohmann::detail::is\l_constructible_object\l_type\&lt; BasicJsonType,\l ConstructibleObjectType \&gt;">
<polygon fill="#ffffff" stroke="#000000" points="339.5,-1024 339.5,-1076 476.5,-1076 476.5,-1024 339.5,-1024"/>
<text text-anchor="start" x="347.5" y="-1064" font-family="Helvetica,sans-Serif" font-size="10.00" fill="#000000">nlohmann::detail::is</text>
<text text-anchor="start" x="347.5" y="-1053" font-family="Helvetica,sans-Serif" font-size="10.00" fill="#000000">_constructible_object</text>
<text text-anchor="start" x="347.5" y="-1042" font-family="Helvetica,sans-Serif" font-size="10.00" fill="#000000">_type&lt; BasicJsonType,</text>
<text text-anchor="middle" x="408" y="-1031" font-family="Helvetica,sans-Serif" font-size="10.00" fill="#000000"> ConstructibleObjectType &gt;</text>
</a>
</g>
</g>
<!-- Node120&#45;&gt;Node121 -->
<g id="edge14" class="edge">
<title>Node120&#45;&gt;Node121</title>
<path fill="none" stroke="#191970" d="M269.7672,-1050C292.6627,-1050 317.3085,-1050 339.3591,-1050"/>
<polygon fill="#191970" stroke="#191970" points="269.7318,-1046.5001 259.7318,-1050 269.7318,-1053.5001 269.7318,-1046.5001"/>
</g>
<!-- Node123 -->
<g id="node17" class="node">
<title>Node123</title>
<g id="a_node17"><a xlink:href="structnlohmann_1_1detail_1_1is__constructible__string__type.html" target="_top" xlink:title="nlohmann::detail::is\l_constructible_string\l_type\&lt; BasicJsonType,\l ConstructibleStringType \&gt;">
<polygon fill="#ffffff" stroke="#000000" points="341,-953 341,-1005 475,-1005 475,-953 341,-953"/>
<text text-anchor="start" x="349" y="-993" font-family="Helvetica,sans-Serif" font-size="10.00" fill="#000000">nlohmann::detail::is</text>
<text text-anchor="start" x="349" y="-982" font-family="Helvetica,sans-Serif" font-size="10.00" fill="#000000">_constructible_string</text>
<text text-anchor="start" x="349" y="-971" font-family="Helvetica,sans-Serif" font-size="10.00" fill="#000000">_type&lt; BasicJsonType,</text>
<text text-anchor="middle" x="408" y="-960" font-family="Helvetica,sans-Serif" font-size="10.00" fill="#000000"> ConstructibleStringType &gt;</text>
</a>
</g>
</g>
<!-- Node122&#45;&gt;Node123 -->
<g id="edge16" class="edge">
<title>Node122&#45;&gt;Node123</title>
<path fill="none" stroke="#191970" d="M269.9665,-979C293.3213,-979 318.4826,-979 340.8441,-979"/>
<polygon fill="#191970" stroke="#191970" points="269.7318,-975.5001 259.7318,-979 269.7318,-982.5001 269.7318,-975.5001"/>
</g>
</g>
</svg>
