<?xml version="1.0" encoding="UTF-8" standalone="no"?>
<!DOCTYPE svg PUBLIC "-//W3C//DTD SVG 1.1//EN"
 "http://www.w3.org/Graphics/SVG/1.1/DTD/svg11.dtd">
<!-- Generated by graphviz version 2.40.1 (20161225.0304)
 -->
<!-- Title: Graphical Class Hierarchy Pages: 1 -->
<svg width="265pt" height="66pt"
 viewBox="0.00 0.00 265.00 66.00" xmlns="http://www.w3.org/2000/svg" xmlns:xlink="http://www.w3.org/1999/xlink">
<g id="graph0" class="graph" transform="scale(1 1) rotate(0) translate(4 62)">
<title>Graphical Class Hierarchy</title>
<polygon fill="#ffffff" stroke="transparent" points="-4,4 -4,-62 261,-62 261,4 -4,4"/>
<!-- Node0 -->
<g id="node1" class="node">
<title>Node0</title>
<g id="a_node1"><a xlink:href="classFunction.html" target="_top" xlink:title="Function">
<polygon fill="#ffffff" stroke="#000000" points="0,-19.5 0,-38.5 57,-38.5 57,-19.5 0,-19.5"/>
<text text-anchor="middle" x="28.5" y="-26.5" font-family="Helvetica,sans-Serif" font-size="10.00" fill="#000000">Function</text>
</a>
</g>
</g>
<!-- Node1 -->
<g id="node2" class="node">
<title>Node1</title>
<g id="a_node2"><a xlink:href="classRiver_1_1Solver_1_1BoundaryValues.html" target="_top" xlink:title="See Deal.II step&#45;6 for more details. ">
<polygon fill="#ffffff" stroke="#000000" points="93,-38.5 93,-57.5 257,-57.5 257,-38.5 93,-38.5"/>
<text text-anchor="middle" x="175" y="-45.5" font-family="Helvetica,sans-Serif" font-size="10.00" fill="#000000">River::Solver::BoundaryValues</text>
</a>
</g>
</g>
<!-- Node0&#45;&gt;Node1 -->
<g id="edge1" class="edge">
<title>Node0&#45;&gt;Node1</title>
<path fill="none" stroke="#191970" d="M67.2199,-34.0217C77.8071,-35.3948 89.6424,-36.9297 101.4868,-38.4659"/>
<polygon fill="#191970" stroke="#191970" points="67.4616,-30.5238 57.0945,-32.7085 66.5612,-37.4657 67.4616,-30.5238"/>
</g>
<!-- Node2 -->
<g id="node3" class="node">
<title>Node2</title>
<g id="a_node3"><a xlink:href="classRiver_1_1Solver_1_1RightHandSide.html" target="_top" xlink:title="See Deal.II step&#45;6 for more details. ">
<polygon fill="#ffffff" stroke="#000000" points="96.5,-.5 96.5,-19.5 253.5,-19.5 253.5,-.5 96.5,-.5"/>
<text text-anchor="middle" x="175" y="-7.5" font-family="Helvetica,sans-Serif" font-size="10.00" fill="#000000">River::Solver::RightHandSide</text>
</a>
</g>
</g>
<!-- Node0&#45;&gt;Node2 -->
<g id="edge2" class="edge">
<title>Node0&#45;&gt;Node2</title>
<path fill="none" stroke="#191970" d="M67.2199,-23.9783C77.8071,-22.6052 89.6424,-21.0703 101.4868,-19.5341"/>
<polygon fill="#191970" stroke="#191970" points="66.5612,-20.5343 57.0945,-25.2915 67.4616,-27.4762 66.5612,-20.5343"/>
</g>
</g>
</svg>
