<?xml version="1.0" encoding="UTF-8" standalone="no"?>
<!DOCTYPE svg PUBLIC "-//W3C//DTD SVG 1.1//EN"
 "http://www.w3.org/Graphics/SVG/1.1/DTD/svg11.dtd">
<!-- Generated by graphviz version 2.40.1 (20161225.0304)
 -->
<!-- Title: Graphical Class Hierarchy Pages: 1 -->
<svg width="279pt" height="39pt"
 viewBox="0.00 0.00 279.00 39.00" xmlns="http://www.w3.org/2000/svg" xmlns:xlink="http://www.w3.org/1999/xlink">
<g id="graph0" class="graph" transform="scale(1 1) rotate(0) translate(4 35)">
<title>Graphical Class Hierarchy</title>
<polygon fill="#ffffff" stroke="transparent" points="-4,4 -4,-35 275,-35 275,4 -4,4"/>
<!-- Node0 -->
<g id="node1" class="node">
<title>Node0</title>
<g id="a_node1"><a xlink:href="structnlohmann_1_1detail_1_1index__sequence.html" target="_top" xlink:title="nlohmann::detail::index\l_sequence\&lt;\&gt;">
<polygon fill="#ffffff" stroke="#000000" points="0,-.5 0,-30.5 117,-30.5 117,-.5 0,-.5"/>
<text text-anchor="start" x="8" y="-18.5" font-family="Helvetica,sans-Serif" font-size="10.00" fill="#000000">nlohmann::detail::index</text>
<text text-anchor="middle" x="58.5" y="-7.5" font-family="Helvetica,sans-Serif" font-size="10.00" fill="#000000">_sequence&lt;&gt;</text>
</a>
</g>
</g>
<!-- Node1 -->
<g id="node2" class="node">
<title>Node1</title>
<g id="a_node2"><a xlink:href="structnlohmann_1_1detail_1_1make__index__sequence_3_010_01_4.html" target="_top" xlink:title="nlohmann::detail::make\l_index_sequence\&lt; 0 \&gt;">
<polygon fill="#ffffff" stroke="#000000" points="153,-.5 153,-30.5 271,-30.5 271,-.5 153,-.5"/>
<text text-anchor="start" x="161" y="-18.5" font-family="Helvetica,sans-Serif" font-size="10.00" fill="#000000">nlohmann::detail::make</text>
<text text-anchor="middle" x="212" y="-7.5" font-family="Helvetica,sans-Serif" font-size="10.00" fill="#000000">_index_sequence&lt; 0 &gt;</text>
</a>
</g>
</g>
<!-- Node0&#45;&gt;Node1 -->
<g id="edge1" class="edge">
<title>Node0&#45;&gt;Node1</title>
<path fill="none" stroke="#191970" d="M127.6439,-15.5C136.109,-15.5 144.6988,-15.5 152.9959,-15.5"/>
<polygon fill="#191970" stroke="#191970" points="127.4081,-12.0001 117.4081,-15.5 127.4081,-19.0001 127.4081,-12.0001"/>
</g>
</g>
</svg>
