<?xml version="1.0" encoding="UTF-8" standalone="no"?>
<!DOCTYPE svg PUBLIC "-//W3C//DTD SVG 1.1//EN"
 "http://www.w3.org/Graphics/SVG/1.1/DTD/svg11.dtd">
<!-- Generated by graphviz version 2.40.1 (20161225.0304)
 -->
<!-- Title: Graphical Class Hierarchy Pages: 1 -->
<svg width="249pt" height="66pt"
 viewBox="0.00 0.00 249.00 66.00" xmlns="http://www.w3.org/2000/svg" xmlns:xlink="http://www.w3.org/1999/xlink">
<g id="graph0" class="graph" transform="scale(1 1) rotate(0) translate(4 62)">
<title>Graphical Class Hierarchy</title>
<polygon fill="#ffffff" stroke="transparent" points="-4,4 -4,-62 245,-62 245,4 -4,4"/>
<!-- Node0 -->
<g id="node1" class="node">
<title>Node0</title>
<g id="a_node1"><a xlink:href="classFunction.html" target="_top" xlink:title="Function">
<polygon fill="#ffffff" stroke="#000000" points="0,-19.5 0,-38.5 54,-38.5 54,-19.5 0,-19.5"/>
<text text-anchor="middle" x="27" y="-26.5" font-family="Helvetica,sans-Serif" font-size="10.00" fill="#000000">Function</text>
</a>
</g>
</g>
<!-- Node1 -->
<g id="node2" class="node">
<title>Node1</title>
<g id="a_node2"><a xlink:href="classRiver_1_1Solver_1_1BoundaryValues.html" target="_top" xlink:title="River::Solver::BoundaryValues">
<polygon fill="#ffffff" stroke="#000000" points="90,-38.5 90,-57.5 241,-57.5 241,-38.5 90,-38.5"/>
<text text-anchor="middle" x="165.5" y="-45.5" font-family="Helvetica,sans-Serif" font-size="10.00" fill="#000000">River::Solver::BoundaryValues</text>
</a>
</g>
</g>
<!-- Node0&#45;&gt;Node1 -->
<g id="edge1" class="edge">
<title>Node0&#45;&gt;Node1</title>
<path fill="none" stroke="#191970" d="M64.2326,-34.1077C74.0808,-35.4587 85.0368,-36.9617 96.0012,-38.4659"/>
<polygon fill="#191970" stroke="#191970" points="64.4159,-30.6002 54.033,-32.7085 63.4645,-37.5352 64.4159,-30.6002"/>
</g>
<!-- Node2 -->
<g id="node3" class="node">
<title>Node2</title>
<g id="a_node3"><a xlink:href="classRiver_1_1Solver_1_1RightHandSide.html" target="_top" xlink:title="River::Solver::RightHandSide">
<polygon fill="#ffffff" stroke="#000000" points="92.5,-.5 92.5,-19.5 238.5,-19.5 238.5,-.5 92.5,-.5"/>
<text text-anchor="middle" x="165.5" y="-7.5" font-family="Helvetica,sans-Serif" font-size="10.00" fill="#000000">River::Solver::RightHandSide</text>
</a>
</g>
</g>
<!-- Node0&#45;&gt;Node2 -->
<g id="edge2" class="edge">
<title>Node0&#45;&gt;Node2</title>
<path fill="none" stroke="#191970" d="M64.2326,-23.8923C74.0808,-22.5413 85.0368,-21.0383 96.0012,-19.5341"/>
<polygon fill="#191970" stroke="#191970" points="63.4645,-20.4648 54.033,-25.2915 64.4159,-27.3998 63.4645,-20.4648"/>
</g>
</g>
</svg>
