<?xml version="1.0" encoding="UTF-8" standalone="no"?>
<!DOCTYPE svg PUBLIC "-//W3C//DTD SVG 1.1//EN"
 "http://www.w3.org/Graphics/SVG/1.1/DTD/svg11.dtd">
<!-- Generated by graphviz version 2.40.1 (20161225.0304)
 -->
<!-- Title: Graphical Class Hierarchy Pages: 1 -->
<svg width="274pt" height="198pt"
 viewBox="0.00 0.00 274.00 197.50" xmlns="http://www.w3.org/2000/svg" xmlns:xlink="http://www.w3.org/1999/xlink">
<g id="graph0" class="graph" transform="scale(1 1) rotate(0) translate(4 193.5)">
<title>Graphical Class Hierarchy</title>
<polygon fill="#ffffff" stroke="transparent" points="-4,4 -4,-193.5 270,-193.5 270,4 -4,4"/>
<!-- Node0 -->
<g id="node1" class="node">
<title>Node0</title>
<g id="a_node1"><a xlink:href="structnlohmann_1_1detail_1_1input__adapter__protocol.html" target="_top" xlink:title="abstract input adapter interface ">
<polygon fill="#ffffff" stroke="#000000" points="0,-85 0,-115 115,-115 115,-85 0,-85"/>
<text text-anchor="start" x="8" y="-103" font-family="Helvetica,sans-Serif" font-size="10.00" fill="#000000">nlohmann::detail::input</text>
<text text-anchor="middle" x="57.5" y="-92" font-family="Helvetica,sans-Serif" font-size="10.00" fill="#000000">_adapter_protocol</text>
</a>
</g>
</g>
<!-- Node1 -->
<g id="node2" class="node">
<title>Node1</title>
<g id="a_node2"><a xlink:href="classnlohmann_1_1detail_1_1file__input__adapter.html" target="_top" xlink:title="nlohmann::detail::file\l_input_adapter">
<polygon fill="#ffffff" stroke="#000000" points="155,-159 155,-189 262,-189 262,-159 155,-159"/>
<text text-anchor="start" x="163" y="-177" font-family="Helvetica,sans-Serif" font-size="10.00" fill="#000000">nlohmann::detail::file</text>
<text text-anchor="middle" x="208.5" y="-166" font-family="Helvetica,sans-Serif" font-size="10.00" fill="#000000">_input_adapter</text>
</a>
</g>
</g>
<!-- Node0&#45;&gt;Node1 -->
<g id="edge1" class="edge">
<title>Node0&#45;&gt;Node1</title>
<path fill="none" stroke="#191970" d="M93.3033,-120.1823C110.5457,-129.6338 131.6375,-140.8078 151,-150 157.3518,-153.0155 164.185,-156.0469 170.8457,-158.8917"/>
<polygon fill="#191970" stroke="#191970" points="94.6018,-116.9013 84.1557,-115.1323 91.2187,-123.0294 94.6018,-116.9013"/>
</g>
<!-- Node2 -->
<g id="node3" class="node">
<title>Node2</title>
<g id="a_node3"><a xlink:href="classnlohmann_1_1detail_1_1input__buffer__adapter.html" target="_top" xlink:title="input adapter for buffer input ">
<polygon fill="#ffffff" stroke="#000000" points="151,-110 151,-140 266,-140 266,-110 151,-110"/>
<text text-anchor="start" x="159" y="-128" font-family="Helvetica,sans-Serif" font-size="10.00" fill="#000000">nlohmann::detail::input</text>
<text text-anchor="middle" x="208.5" y="-117" font-family="Helvetica,sans-Serif" font-size="10.00" fill="#000000">_buffer_adapter</text>
</a>
</g>
</g>
<!-- Node0&#45;&gt;Node2 -->
<g id="edge2" class="edge">
<title>Node0&#45;&gt;Node2</title>
<path fill="none" stroke="#191970" d="M125.0519,-111.1841C133.6779,-112.6122 142.4438,-114.0635 150.8925,-115.4623"/>
<polygon fill="#191970" stroke="#191970" points="125.4548,-107.7032 115.0174,-109.5227 124.3114,-114.6092 125.4548,-107.7032"/>
</g>
<!-- Node3 -->
<g id="node4" class="node">
<title>Node3</title>
<g id="a_node4"><a xlink:href="classnlohmann_1_1detail_1_1input__stream__adapter.html" target="_top" xlink:title="nlohmann::detail::input\l_stream_adapter">
<polygon fill="#ffffff" stroke="#000000" points="151,-61 151,-91 266,-91 266,-61 151,-61"/>
<text text-anchor="start" x="159" y="-79" font-family="Helvetica,sans-Serif" font-size="10.00" fill="#000000">nlohmann::detail::input</text>
<text text-anchor="middle" x="208.5" y="-68" font-family="Helvetica,sans-Serif" font-size="10.00" fill="#000000">_stream_adapter</text>
</a>
</g>
</g>
<!-- Node0&#45;&gt;Node3 -->
<g id="edge3" class="edge">
<title>Node0&#45;&gt;Node3</title>
<path fill="none" stroke="#191970" d="M125.0519,-89.2633C133.6779,-87.8923 142.4438,-86.499 150.8925,-85.1562"/>
<polygon fill="#191970" stroke="#191970" points="124.344,-85.8318 115.0174,-90.8582 125.4428,-92.745 124.344,-85.8318"/>
</g>
<!-- Node4 -->
<g id="node5" class="node">
<title>Node4</title>
<g id="a_node5"><a xlink:href="classnlohmann_1_1detail_1_1wide__string__input__adapter.html" target="_top" xlink:title="nlohmann::detail::wide\l_string_input_adapter\l\&lt; WideStringType \&gt;">
<polygon fill="#ffffff" stroke="#000000" points="151.5,-.5 151.5,-41.5 265.5,-41.5 265.5,-.5 151.5,-.5"/>
<text text-anchor="start" x="159.5" y="-29.5" font-family="Helvetica,sans-Serif" font-size="10.00" fill="#000000">nlohmann::detail::wide</text>
<text text-anchor="start" x="159.5" y="-18.5" font-family="Helvetica,sans-Serif" font-size="10.00" fill="#000000">_string_input_adapter</text>
<text text-anchor="middle" x="208.5" y="-7.5" font-family="Helvetica,sans-Serif" font-size="10.00" fill="#000000">&lt; WideStringType &gt;</text>
</a>
</g>
</g>
<!-- Node0&#45;&gt;Node4 -->
<g id="edge4" class="edge">
<title>Node0&#45;&gt;Node4</title>
<path fill="none" stroke="#191970" d="M95.2142,-80.2688C117.7963,-68.4543 146.4548,-53.4607 169.2968,-41.5103"/>
<polygon fill="#191970" stroke="#191970" points="93.4955,-77.2178 86.2574,-84.9548 96.7405,-83.4202 93.4955,-77.2178"/>
</g>
</g>
</svg>
