<?xml version="1.0" encoding="UTF-8" standalone="no"?>
<!DOCTYPE svg PUBLIC "-//W3C//DTD SVG 1.1//EN"
 "http://www.w3.org/Graphics/SVG/1.1/DTD/svg11.dtd">
<!-- Generated by graphviz version 2.40.1 (20161225.0304)
 -->
<!-- Title: Graphical Class Hierarchy Pages: 1 -->
<svg width="269pt" height="50pt"
 viewBox="0.00 0.00 269.00 50.00" xmlns="http://www.w3.org/2000/svg" xmlns:xlink="http://www.w3.org/1999/xlink">
<g id="graph0" class="graph" transform="scale(1 1) rotate(0) translate(4 46)">
<title>Graphical Class Hierarchy</title>
<polygon fill="#ffffff" stroke="transparent" points="-4,4 -4,-46 265,-46 265,4 -4,4"/>
<!-- Node81 -->
<g id="node1" class="node">
<title>Node81</title>
<polygon fill="#ffffff" stroke="#bfbfbf" points="0,-11.5 0,-30.5 91,-30.5 91,-11.5 0,-11.5"/>
<text text-anchor="middle" x="45.5" y="-18.5" font-family="Helvetica,sans-Serif" font-size="10.00" fill="#000000">integral_constant</text>
</g>
<!-- Node0 -->
<g id="node2" class="node">
<title>Node0</title>
<g id="a_node2"><a xlink:href="classstd_1_1tuple__size_3_1_1nlohmann_1_1detail_1_1iteration__proxy__value_3_01IteratorType_01_4_01_4.html" target="_top" xlink:title="std::tuple_size\&lt;::nlohmann\l::detail::iteration_proxy\l_value\&lt; IteratorType \&gt; \&gt;">
<polygon fill="#ffffff" stroke="#000000" points="127,-.5 127,-41.5 261,-41.5 261,-.5 127,-.5"/>
<text text-anchor="start" x="135" y="-29.5" font-family="Helvetica,sans-Serif" font-size="10.00" fill="#000000">std::tuple_size&lt;::nlohmann</text>
<text text-anchor="start" x="135" y="-18.5" font-family="Helvetica,sans-Serif" font-size="10.00" fill="#000000">::detail::iteration_proxy</text>
<text text-anchor="middle" x="194" y="-7.5" font-family="Helvetica,sans-Serif" font-size="10.00" fill="#000000">_value&lt; IteratorType &gt; &gt;</text>
</a>
</g>
</g>
<!-- Node81&#45;&gt;Node0 -->
<g id="edge1" class="edge">
<title>Node81&#45;&gt;Node0</title>
<path fill="none" stroke="#191970" d="M101.5237,-21C109.7833,-21 118.3635,-21 126.8204,-21"/>
<polygon fill="#191970" stroke="#191970" points="101.2666,-17.5001 91.2666,-21 101.2666,-24.5001 101.2666,-17.5001"/>
</g>
</g>
</svg>
