<?xml version="1.0" encoding="UTF-8" standalone="no"?>
<!DOCTYPE svg PUBLIC "-//W3C//DTD SVG 1.1//EN"
 "http://www.w3.org/Graphics/SVG/1.1/DTD/svg11.dtd">
<!-- Generated by graphviz version 2.40.1 (20161225.0304)
 -->
<!-- Title: io.hpp Pages: 1 -->
<svg width="412pt" height="196pt"
 viewBox="0.00 0.00 412.00 196.00" xmlns="http://www.w3.org/2000/svg" xmlns:xlink="http://www.w3.org/1999/xlink">
<g id="graph0" class="graph" transform="scale(1 1) rotate(0) translate(4 192)">
<title>io.hpp</title>
<polygon fill="#ffffff" stroke="transparent" points="-4,4 -4,-192 408,-192 408,4 -4,4"/>
<!-- Node0 -->
<g id="node1" class="node">
<title>Node0</title>
<polygon fill="#bfbfbf" stroke="#000000" points="184.5,-168.5 184.5,-187.5 231.5,-187.5 231.5,-168.5 184.5,-168.5"/>
<text text-anchor="middle" x="208" y="-175.5" font-family="Helvetica,sans-Serif" font-size="10.00" fill="#000000">io.hpp</text>
</g>
<!-- Node1 -->
<g id="node2" class="node">
<title>Node1</title>
<g id="a_node2"><a xlink:href="border_8hpp.html" target="_top" xlink:title="Generate initial predefinide border geometry and its source positions. ">
<polygon fill="#ffffff" stroke="#000000" points="0,-56.5 0,-75.5 68,-75.5 68,-56.5 0,-56.5"/>
<text text-anchor="middle" x="34" y="-63.5" font-family="Helvetica,sans-Serif" font-size="10.00" fill="#000000">border.hpp</text>
</a>
</g>
</g>
<!-- Node0&#45;&gt;Node1 -->
<g id="edge1" class="edge">
<title>Node0&#45;&gt;Node1</title>
<path fill="none" stroke="#191970" d="M184.7806,-168.4645C165.2433,-160.0183 136.9083,-146.7628 114,-132 91.0588,-117.216 67.2379,-96.8006 51.6218,-82.6057"/>
<polygon fill="#191970" stroke="#191970" points="53.9768,-80.0163 44.2517,-75.8124 49.2326,-85.1634 53.9768,-80.0163"/>
</g>
<!-- Node3 -->
<g id="node4" class="node">
<title>Node3</title>
<g id="a_node4"><a xlink:href="physmodel_8hpp.html" target="_top" xlink:title="Contains all RiverSim program parameters. ">
<polygon fill="#ffffff" stroke="#000000" points="212,-56.5 212,-75.5 304,-75.5 304,-56.5 212,-56.5"/>
<text text-anchor="middle" x="258" y="-63.5" font-family="Helvetica,sans-Serif" font-size="10.00" fill="#000000">physmodel.hpp</text>
</a>
</g>
</g>
<!-- Node0&#45;&gt;Node3 -->
<g id="edge3" class="edge">
<title>Node0&#45;&gt;Node3</title>
<path fill="none" stroke="#191970" d="M209.8066,-168.2637C212.4727,-155.0807 218.125,-131.0167 227,-112 231.606,-102.1306 238.1925,-92.0038 244.1106,-83.7731"/>
<polygon fill="#191970" stroke="#191970" points="246.9685,-85.7956 250.1448,-75.6881 241.3586,-81.6087 246.9685,-85.7956"/>
</g>
<!-- Node4 -->
<g id="node5" class="node">
<title>Node4</title>
<g id="a_node5"><a xlink:href="tree_8hpp.html" target="_top" xlink:title="Holds all functionality that you need to work with tree(network) of river, its separate branches and ...">
<polygon fill="#ffffff" stroke="#000000" points="122.5,-112.5 122.5,-131.5 179.5,-131.5 179.5,-112.5 122.5,-112.5"/>
<text text-anchor="middle" x="151" y="-119.5" font-family="Helvetica,sans-Serif" font-size="10.00" fill="#000000">tree.hpp</text>
</a>
</g>
</g>
<!-- Node0&#45;&gt;Node4 -->
<g id="edge5" class="edge">
<title>Node0&#45;&gt;Node4</title>
<path fill="none" stroke="#191970" d="M198.0714,-168.2455C189.8162,-160.1352 177.8791,-148.4075 168.0918,-138.7919"/>
<polygon fill="#191970" stroke="#191970" points="170.4011,-136.1542 160.8149,-131.6427 165.4954,-141.1476 170.4011,-136.1542"/>
</g>
<!-- Node6 -->
<g id="node7" class="node">
<title>Node6</title>
<polygon fill="#ffffff" stroke="#bfbfbf" points="236,-112.5 236,-131.5 312,-131.5 312,-112.5 236,-112.5"/>
<text text-anchor="middle" x="274" y="-119.5" font-family="Helvetica,sans-Serif" font-size="10.00" fill="#000000">cxxopts.hpp</text>
</g>
<!-- Node0&#45;&gt;Node6 -->
<g id="edge10" class="edge">
<title>Node0&#45;&gt;Node6</title>
<path fill="none" stroke="#191970" d="M219.4963,-168.2455C229.2442,-159.9746 243.4259,-147.9416 254.8798,-138.2232"/>
<polygon fill="#191970" stroke="#191970" points="257.2747,-140.7813 262.6354,-131.6427 252.7459,-135.4437 257.2747,-140.7813"/>
</g>
<!-- Node7 -->
<g id="node8" class="node">
<title>Node7</title>
<g id="a_node8"><a xlink:href="utilities_8hpp.html" target="_top" xlink:title="Console printouts, version, title and timing of program execution. ">
<polygon fill="#ffffff" stroke="#000000" points="330,-112.5 330,-131.5 404,-131.5 404,-112.5 330,-112.5"/>
<text text-anchor="middle" x="367" y="-119.5" font-family="Helvetica,sans-Serif" font-size="10.00" fill="#000000">utilities.hpp</text>
</a>
</g>
</g>
<!-- Node0&#45;&gt;Node7 -->
<g id="edge11" class="edge">
<title>Node0&#45;&gt;Node7</title>
<path fill="none" stroke="#191970" d="M231.8039,-169.6162C257.8003,-160.4603 299.7643,-145.6805 330.0492,-135.0141"/>
<polygon fill="#191970" stroke="#191970" points="331.5627,-138.1919 339.8321,-131.5686 329.2373,-131.5894 331.5627,-138.1919"/>
</g>
<!-- Node2 -->
<g id="node3" class="node">
<title>Node2</title>
<g id="a_node3"><a xlink:href="common_8hpp.html" target="_top" xlink:title="Common geometric entities like Vectors, Lines etc., to whole program. ">
<polygon fill="#ffffff" stroke="#000000" points="56,-.5 56,-19.5 136,-19.5 136,-.5 56,-.5"/>
<text text-anchor="middle" x="96" y="-7.5" font-family="Helvetica,sans-Serif" font-size="10.00" fill="#000000">GeometryPrimitives.hpp</text>
</a>
</g>
</g>
<!-- Node1&#45;&gt;Node2 -->
<g id="edge2" class="edge">
<title>Node1&#45;&gt;Node2</title>
<path fill="none" stroke="#191970" d="M44.7996,-56.2455C53.8678,-48.0549 67.0206,-36.1749 77.7245,-26.5069"/>
<polygon fill="#191970" stroke="#191970" points="80.2491,-28.9429 85.3242,-19.6427 75.5571,-23.7482 80.2491,-28.9429"/>
</g>
<!-- Node3&#45;&gt;Node2 -->
<g id="edge4" class="edge">
<title>Node3&#45;&gt;Node2</title>
<path fill="none" stroke="#191970" d="M230.1512,-56.3733C203.3297,-47.1016 162.5873,-33.0178 133.0402,-22.804"/>
<polygon fill="#191970" stroke="#191970" points="134.0802,-19.4603 123.4854,-19.5011 131.7931,-26.0762 134.0802,-19.4603"/>
</g>
<!-- Node4&#45;&gt;Node1 -->
<g id="edge9" class="edge">
<title>Node4&#45;&gt;Node1</title>
<path fill="none" stroke="#191970" d="M130.887,-112.3733C112.1897,-103.4241 84.1256,-89.9917 63.0066,-79.8835"/>
<polygon fill="#191970" stroke="#191970" points="64.3817,-76.6614 53.8506,-75.5011 61.3595,-82.9755 64.3817,-76.6614"/>
</g>
<!-- Node4&#45;&gt;Node2 -->
<g id="edge6" class="edge">
<title>Node4&#45;&gt;Node2</title>
<path fill="none" stroke="#191970" d="M142.1072,-112.4656C134.2685,-103.6128 123.0309,-89.7618 116,-76 108.5101,-61.3398 103.2963,-43.3877 100.0742,-29.9093"/>
<polygon fill="#191970" stroke="#191970" points="103.416,-28.8126 97.83,-19.81 96.5827,-30.3312 103.416,-28.8126"/>
</g>
<!-- Node4&#45;&gt;Node3 -->
<g id="edge8" class="edge">
<title>Node4&#45;&gt;Node3</title>
<path fill="none" stroke="#191970" d="M169.638,-112.2455C186.4386,-103.4527 211.3634,-90.4079 230.4618,-80.4125"/>
<polygon fill="#191970" stroke="#191970" points="232.3386,-83.3807 239.5756,-75.6427 229.0927,-77.1787 232.3386,-83.3807"/>
</g>
<!-- Node5 -->
<g id="node6" class="node">
<title>Node5</title>
<g id="a_node6"><a xlink:href="tethex_8hpp.html" target="_top" xlink:title="Classes for holding mesh and converting by splitting triangles to quadrangles. ">
<polygon fill="#ffffff" stroke="#000000" points="124.5,-56.5 124.5,-75.5 193.5,-75.5 193.5,-56.5 124.5,-56.5"/>
<text text-anchor="middle" x="159" y="-63.5" font-family="Helvetica,sans-Serif" font-size="10.00" fill="#000000">tethex.hpp</text>
</a>
</g>
</g>
<!-- Node4&#45;&gt;Node5 -->
<g id="edge7" class="edge">
<title>Node4&#45;&gt;Node5</title>
<path fill="none" stroke="#191970" d="M152.3935,-112.2455C153.4374,-104.9382 154.9008,-94.6944 156.1851,-85.7046"/>
<polygon fill="#191970" stroke="#191970" points="159.673,-86.0372 157.6225,-75.6427 152.7434,-85.0472 159.673,-86.0372"/>
</g>
<!-- Node8 -->
<g id="node9" class="node">
<title>Node8</title>
<g id="a_node9"><a xlink:href="version_8hpp.html" target="_top" xlink:title="Holds macros values of current version(MAJOR.MINOR.PATCH). ">
<polygon fill="#ffffff" stroke="#000000" points="330,-56.5 330,-75.5 404,-75.5 404,-56.5 330,-56.5"/>
<text text-anchor="middle" x="367" y="-63.5" font-family="Helvetica,sans-Serif" font-size="10.00" fill="#000000">version.hpp</text>
</a>
</g>
</g>
<!-- Node7&#45;&gt;Node8 -->
<g id="edge12" class="edge">
<title>Node7&#45;&gt;Node8</title>
<path fill="none" stroke="#191970" d="M367,-112.2455C367,-104.9382 367,-94.6944 367,-85.7046"/>
<polygon fill="#191970" stroke="#191970" points="370.5001,-85.6426 367,-75.6427 363.5001,-85.6427 370.5001,-85.6426"/>
</g>
</g>
</svg>
