<?xml version="1.0" encoding="UTF-8" standalone="no"?>
<!DOCTYPE svg PUBLIC "-//W3C//DTD SVG 1.1//EN"
 "http://www.w3.org/Graphics/SVG/1.1/DTD/svg11.dtd">
<!-- Generated by graphviz version 2.40.1 (20161225.0304)
 -->
<!-- Title: /home/oleg/Dev/riversim/source/river/io.cpp Pages: 1 -->
<svg width="885pt" height="319pt"
 viewBox="0.00 0.00 885.00 319.00" xmlns="http://www.w3.org/2000/svg" xmlns:xlink="http://www.w3.org/1999/xlink">
<g id="graph0" class="graph" transform="scale(1 1) rotate(0) translate(4 315)">
<title>/home/oleg/Dev/riversim/source/river/io.cpp</title>
<polygon fill="#ffffff" stroke="transparent" points="-4,4 -4,-315 881,-315 881,4 -4,4"/>
<!-- Node0 -->
<g id="node1" class="node">
<title>Node0</title>
<polygon fill="#bfbfbf" stroke="#000000" points="352,-280.5 352,-310.5 475,-310.5 475,-280.5 352,-280.5"/>
<text text-anchor="start" x="360" y="-298.5" font-family="Helvetica,sans-Serif" font-size="10.00" fill="#000000">/home/oleg/Dev/riversim</text>
<text text-anchor="middle" x="413.5" y="-287.5" font-family="Helvetica,sans-Serif" font-size="10.00" fill="#000000">/source/river/io.cpp</text>
</g>
<!-- Node1 -->
<g id="node2" class="node">
<title>Node1</title>
<g id="a_node2"><a xlink:href="io_8hpp.html" target="_top" xlink:title="Contains functionality to read and write state of program(simulation data). ">
<polygon fill="#ffffff" stroke="#000000" points="326,-224.5 326,-243.5 369,-243.5 369,-224.5 326,-224.5"/>
<text text-anchor="middle" x="347.5" y="-231.5" font-family="Helvetica,sans-Serif" font-size="10.00" fill="#000000">io.hpp</text>
</a>
</g>
</g>
<!-- Node0&#45;&gt;Node1 -->
<g id="edge1" class="edge">
<title>Node0&#45;&gt;Node1</title>
<path fill="none" stroke="#191970" d="M397.1854,-280.2977C387.5467,-271.3163 375.3309,-259.9334 365.4241,-250.702"/>
<polygon fill="#191970" stroke="#191970" points="367.7696,-248.1036 358.0674,-243.8469 362.9975,-253.2249 367.7696,-248.1036"/>
</g>
<!-- Node4 -->
<g id="node5" class="node">
<title>Node4</title>
<polygon fill="#ffffff" stroke="#bfbfbf" points="0,-56.5 0,-75.5 41,-75.5 41,-56.5 0,-56.5"/>
<text text-anchor="middle" x="20.5" y="-63.5" font-family="Helvetica,sans-Serif" font-size="10.00" fill="#000000">string</text>
</g>
<!-- Node0&#45;&gt;Node4 -->
<g id="edge38" class="edge">
<title>Node0&#45;&gt;Node4</title>
<path fill="none" stroke="#191970" d="M351.8483,-282.0519C272.7697,-261.9188 135.6867,-216.895 50.5,-132 37.7122,-119.256 29.8363,-100.073 25.3826,-85.6674"/>
<polygon fill="#191970" stroke="#191970" points="28.6792,-84.4591 22.6192,-75.7684 21.9369,-86.3413 28.6792,-84.4591"/>
</g>
<!-- Node21 -->
<g id="node22" class="node">
<title>Node21</title>
<polygon fill="#ffffff" stroke="#bfbfbf" points="387,-224.5 387,-243.5 440,-243.5 440,-224.5 387,-224.5"/>
<text text-anchor="middle" x="413.5" y="-231.5" font-family="Helvetica,sans-Serif" font-size="10.00" fill="#000000">json.hpp</text>
</g>
<!-- Node0&#45;&gt;Node21 -->
<g id="edge36" class="edge">
<title>Node0&#45;&gt;Node21</title>
<path fill="none" stroke="#191970" d="M413.5,-280.2977C413.5,-272.3834 413.5,-262.6043 413.5,-254.0759"/>
<polygon fill="#191970" stroke="#191970" points="417.0001,-253.8469 413.5,-243.8469 410.0001,-253.847 417.0001,-253.8469"/>
</g>
<!-- Node22 -->
<g id="node23" class="node">
<title>Node22</title>
<polygon fill="#ffffff" stroke="#bfbfbf" points="458.5,-224.5 458.5,-243.5 508.5,-243.5 508.5,-224.5 458.5,-224.5"/>
<text text-anchor="middle" x="483.5" y="-231.5" font-family="Helvetica,sans-Serif" font-size="10.00" fill="#000000">fstream</text>
</g>
<!-- Node0&#45;&gt;Node22 -->
<g id="edge37" class="edge">
<title>Node0&#45;&gt;Node22</title>
<path fill="none" stroke="#191970" d="M430.8034,-280.2977C441.0262,-271.3163 453.9823,-259.9334 464.4896,-250.702"/>
<polygon fill="#191970" stroke="#191970" points="467.0897,-253.0766 472.2921,-243.8469 462.4695,-247.8178 467.0897,-253.0766"/>
</g>
<!-- Node23 -->
<g id="node24" class="node">
<title>Node23</title>
<polygon fill="#ffffff" stroke="#bfbfbf" points="526.5,-224.5 526.5,-243.5 576.5,-243.5 576.5,-224.5 526.5,-224.5"/>
<text text-anchor="middle" x="551.5" y="-231.5" font-family="Helvetica,sans-Serif" font-size="10.00" fill="#000000">iomanip</text>
</g>
<!-- Node0&#45;&gt;Node23 -->
<g id="edge39" class="edge">
<title>Node0&#45;&gt;Node23</title>
<path fill="none" stroke="#191970" d="M447.2586,-280.4554C469.7793,-270.419 499.1467,-257.3314 520.9692,-247.6061"/>
<polygon fill="#191970" stroke="#191970" points="522.4056,-250.7979 530.1149,-243.5303 519.5561,-244.4041 522.4056,-250.7979"/>
</g>
<!-- Node2 -->
<g id="node3" class="node">
<title>Node2</title>
<g id="a_node3"><a xlink:href="border_8hpp.html" target="_top" xlink:title="Generate initial predefinide border geometry and its source positions. ">
<polygon fill="#ffffff" stroke="#000000" points="86.5,-112.5 86.5,-131.5 148.5,-131.5 148.5,-112.5 86.5,-112.5"/>
<text text-anchor="middle" x="117.5" y="-119.5" font-family="Helvetica,sans-Serif" font-size="10.00" fill="#000000">border.hpp</text>
</a>
</g>
</g>
<!-- Node1&#45;&gt;Node2 -->
<g id="edge2" class="edge">
<title>Node1&#45;&gt;Node2</title>
<path fill="none" stroke="#191970" d="M327.8903,-224.4509C287.2376,-204.6548 193.6183,-159.0663 146.1756,-135.9638"/>
<polygon fill="#191970" stroke="#191970" points="147.5831,-132.7563 137.06,-131.5249 144.5184,-139.0498 147.5831,-132.7563"/>
</g>
<!-- Node8 -->
<g id="node9" class="node">
<title>Node8</title>
<g id="a_node9"><a xlink:href="physmodel_8hpp.html" target="_top" xlink:title="Physical model incapsulation. ">
<polygon fill="#ffffff" stroke="#000000" points="582,-112.5 582,-131.5 665,-131.5 665,-112.5 582,-112.5"/>
<text text-anchor="middle" x="623.5" y="-119.5" font-family="Helvetica,sans-Serif" font-size="10.00" fill="#000000">physmodel.hpp</text>
</a>
</g>
</g>
<!-- Node1&#45;&gt;Node8 -->
<g id="edge9" class="edge">
<title>Node1&#45;&gt;Node8</title>
<path fill="none" stroke="#191970" d="M369.1573,-225.2115C417.3291,-205.6635 533.5889,-158.4857 590.7104,-135.3059"/>
<polygon fill="#191970" stroke="#191970" points="592.0556,-138.5373 600.0056,-131.5339 589.4234,-132.051 592.0556,-138.5373"/>
</g>
<!-- Node13 -->
<g id="node14" class="node">
<title>Node13</title>
<g id="a_node14"><a xlink:href="tree_8hpp.html" target="_top" xlink:title="Holds all functionality that you need to work with tree of river, its separate branches and generatio...">
<polygon fill="#ffffff" stroke="#000000" points="321.5,-168.5 321.5,-187.5 373.5,-187.5 373.5,-168.5 321.5,-168.5"/>
<text text-anchor="middle" x="347.5" y="-175.5" font-family="Helvetica,sans-Serif" font-size="10.00" fill="#000000">tree.hpp</text>
</a>
</g>
</g>
<!-- Node1&#45;&gt;Node13 -->
<g id="edge16" class="edge">
<title>Node1&#45;&gt;Node13</title>
<path fill="none" stroke="#191970" d="M347.5,-224.2455C347.5,-216.9382 347.5,-206.6944 347.5,-197.7046"/>
<polygon fill="#191970" stroke="#191970" points="351.0001,-197.6426 347.5,-187.6427 344.0001,-197.6427 351.0001,-197.6426"/>
</g>
<!-- Node17 -->
<g id="node18" class="node">
<title>Node17</title>
<g id="a_node18"><a xlink:href="utilities_8hpp.html" target="_top" xlink:title="Console printouts, version, title and program options processing. ">
<polygon fill="#ffffff" stroke="#000000" points="723.5,-168.5 723.5,-187.5 789.5,-187.5 789.5,-168.5 723.5,-168.5"/>
<text text-anchor="middle" x="756.5" y="-175.5" font-family="Helvetica,sans-Serif" font-size="10.00" fill="#000000">utilities.hpp</text>
</a>
</g>
</g>
<!-- Node1&#45;&gt;Node17 -->
<g id="edge32" class="edge">
<title>Node1&#45;&gt;Node17</title>
<path fill="none" stroke="#191970" d="M369.3114,-226.1657C372.0455,-225.351 374.8219,-224.6024 377.5,-224 497.287,-197.054 642.1604,-185.0189 713.0959,-180.4244"/>
<polygon fill="#191970" stroke="#191970" points="713.6619,-183.8958 723.4223,-179.7746 713.2222,-176.9096 713.6619,-183.8958"/>
</g>
<!-- Node3 -->
<g id="node4" class="node">
<title>Node3</title>
<polygon fill="#ffffff" stroke="#bfbfbf" points="232.5,-.5 232.5,-19.5 276.5,-19.5 276.5,-.5 232.5,-.5"/>
<text text-anchor="middle" x="254.5" y="-7.5" font-family="Helvetica,sans-Serif" font-size="10.00" fill="#000000">vector</text>
</g>
<!-- Node2&#45;&gt;Node3 -->
<g id="edge3" class="edge">
<title>Node2&#45;&gt;Node3</title>
<path fill="none" stroke="#191970" d="M107.3079,-112.2909C94.302,-98.7137 75.0136,-73.7319 88.5,-56 104.6396,-34.7798 178.8214,-20.8046 222.3658,-14.276"/>
<polygon fill="#191970" stroke="#191970" points="223.0676,-17.711 232.4623,-12.8131 222.0637,-10.7833 223.0676,-17.711"/>
</g>
<!-- Node2&#45;&gt;Node4 -->
<g id="edge4" class="edge">
<title>Node2&#45;&gt;Node4</title>
<path fill="none" stroke="#191970" d="M100.6039,-112.2455C85.582,-103.5731 63.3957,-90.7645 46.179,-80.825"/>
<polygon fill="#191970" stroke="#191970" points="47.6128,-77.6114 37.2025,-75.6427 44.1129,-83.6737 47.6128,-77.6114"/>
</g>
<!-- Node5 -->
<g id="node6" class="node">
<title>Node5</title>
<polygon fill="#ffffff" stroke="#bfbfbf" points="98,-56.5 98,-75.5 133,-75.5 133,-56.5 98,-56.5"/>
<text text-anchor="middle" x="115.5" y="-63.5" font-family="Helvetica,sans-Serif" font-size="10.00" fill="#000000">map</text>
</g>
<!-- Node2&#45;&gt;Node5 -->
<g id="edge5" class="edge">
<title>Node2&#45;&gt;Node5</title>
<path fill="none" stroke="#191970" d="M117.1516,-112.2455C116.8907,-104.9382 116.5248,-94.6944 116.2037,-85.7046"/>
<polygon fill="#191970" stroke="#191970" points="119.6992,-85.5113 115.8444,-75.6427 112.7036,-85.7613 119.6992,-85.5113"/>
</g>
<!-- Node6 -->
<g id="node7" class="node">
<title>Node6</title>
<g id="a_node7"><a xlink:href="common_8hpp.html" target="_top" xlink:title="Common geometric entities to whole program. ">
<polygon fill="#ffffff" stroke="#000000" points="414,-56.5 414,-75.5 487,-75.5 487,-56.5 414,-56.5"/>
<text text-anchor="middle" x="450.5" y="-63.5" font-family="Helvetica,sans-Serif" font-size="10.00" fill="#000000">common.hpp</text>
</a>
</g>
</g>
<!-- Node2&#45;&gt;Node6 -->
<g id="edge6" class="edge">
<title>Node2&#45;&gt;Node6</title>
<path fill="none" stroke="#191970" d="M148.5288,-116.7819C207.1948,-106.9162 334.6739,-85.4783 403.7524,-73.8615"/>
<polygon fill="#191970" stroke="#191970" points="404.6308,-77.263 413.9119,-72.153 403.4699,-70.3599 404.6308,-77.263"/>
</g>
<!-- Node6&#45;&gt;Node3 -->
<g id="edge7" class="edge">
<title>Node6&#45;&gt;Node3</title>
<path fill="none" stroke="#191970" d="M416.8064,-56.3733C380.2465,-45.9276 322.3086,-29.3739 286.4472,-19.1278"/>
<polygon fill="#191970" stroke="#191970" points="287.0913,-15.6718 276.5145,-16.2899 285.1682,-22.4025 287.0913,-15.6718"/>
</g>
<!-- Node7 -->
<g id="node8" class="node">
<title>Node7</title>
<polygon fill="#ffffff" stroke="#bfbfbf" points="455.5,-.5 455.5,-19.5 509.5,-19.5 509.5,-.5 455.5,-.5"/>
<text text-anchor="middle" x="482.5" y="-7.5" font-family="Helvetica,sans-Serif" font-size="10.00" fill="#000000">iostream</text>
</g>
<!-- Node6&#45;&gt;Node7 -->
<g id="edge8" class="edge">
<title>Node6&#45;&gt;Node7</title>
<path fill="none" stroke="#191970" d="M456.074,-56.2455C460.4331,-48.617 466.6211,-37.7881 471.9133,-28.5267"/>
<polygon fill="#191970" stroke="#191970" points="475.0673,-30.0616 476.9899,-19.6427 468.9896,-26.5886 475.0673,-30.0616"/>
</g>
<!-- Node8&#45;&gt;Node6 -->
<g id="edge15" class="edge">
<title>Node8&#45;&gt;Node6</title>
<path fill="none" stroke="#191970" d="M593.7602,-112.3733C564.993,-103.0613 521.23,-88.8953 489.6444,-78.671"/>
<polygon fill="#191970" stroke="#191970" points="490.4436,-75.251 479.8517,-75.5011 488.2878,-81.9107 490.4436,-75.251"/>
</g>
<!-- Node8&#45;&gt;Node7 -->
<g id="edge10" class="edge">
<title>Node8&#45;&gt;Node7</title>
<path fill="none" stroke="#191970" d="M640.0247,-112.294C659.9861,-99.3471 689.0672,-75.7614 673.5,-56 654.7312,-32.1743 569.8559,-19.2517 519.7844,-13.5821"/>
<polygon fill="#191970" stroke="#191970" points="519.9842,-10.0833 509.6643,-12.4811 519.2271,-17.0422 519.9842,-10.0833"/>
</g>
<!-- Node9 -->
<g id="node10" class="node">
<title>Node9</title>
<polygon fill="#ffffff" stroke="#bfbfbf" points="721.5,-56.5 721.5,-75.5 765.5,-75.5 765.5,-56.5 721.5,-56.5"/>
<text text-anchor="middle" x="743.5" y="-63.5" font-family="Helvetica,sans-Serif" font-size="10.00" fill="#000000">cmath</text>
</g>
<!-- Node8&#45;&gt;Node9 -->
<g id="edge11" class="edge">
<title>Node8&#45;&gt;Node9</title>
<path fill="none" stroke="#191970" d="M644.1287,-112.3733C663.3919,-103.3838 692.3486,-89.8706 714.0419,-79.7471"/>
<polygon fill="#191970" stroke="#191970" points="715.5587,-82.9017 723.1405,-75.5011 712.5985,-76.5584 715.5587,-82.9017"/>
</g>
<!-- Node10 -->
<g id="node11" class="node">
<title>Node10</title>
<polygon fill="#ffffff" stroke="#bfbfbf" points="784,-56.5 784,-75.5 837,-75.5 837,-56.5 784,-56.5"/>
<text text-anchor="middle" x="810.5" y="-63.5" font-family="Helvetica,sans-Serif" font-size="10.00" fill="#000000">complex</text>
</g>
<!-- Node8&#45;&gt;Node10 -->
<g id="edge12" class="edge">
<title>Node8&#45;&gt;Node10</title>
<path fill="none" stroke="#191970" d="M655.6464,-112.3733C688.6267,-102.4968 739.8409,-87.16 774.2451,-76.8571"/>
<polygon fill="#191970" stroke="#191970" points="775.3328,-80.185 783.9084,-73.9633 773.3246,-73.4792 775.3328,-80.185"/>
</g>
<!-- Node11 -->
<g id="node12" class="node">
<title>Node11</title>
<polygon fill="#ffffff" stroke="#bfbfbf" points="618,-56.5 618,-75.5 665,-75.5 665,-56.5 618,-56.5"/>
<text text-anchor="middle" x="641.5" y="-63.5" font-family="Helvetica,sans-Serif" font-size="10.00" fill="#000000">math.h</text>
</g>
<!-- Node8&#45;&gt;Node11 -->
<g id="edge13" class="edge">
<title>Node8&#45;&gt;Node11</title>
<path fill="none" stroke="#191970" d="M626.6354,-112.2455C629.01,-104.8579 632.3493,-94.4689 635.2615,-85.4087"/>
<polygon fill="#191970" stroke="#191970" points="638.6725,-86.234 638.4006,-75.6427 632.0083,-84.0919 638.6725,-86.234"/>
</g>
<!-- Node12 -->
<g id="node13" class="node">
<title>Node12</title>
<polygon fill="#ffffff" stroke="#bfbfbf" points="543.5,-56.5 543.5,-75.5 599.5,-75.5 599.5,-56.5 543.5,-56.5"/>
<text text-anchor="middle" x="571.5" y="-63.5" font-family="Helvetica,sans-Serif" font-size="10.00" fill="#000000">algorithm</text>
</g>
<!-- Node8&#45;&gt;Node12 -->
<g id="edge14" class="edge">
<title>Node8&#45;&gt;Node12</title>
<path fill="none" stroke="#191970" d="M614.4423,-112.2455C606.9858,-104.2155 596.2366,-92.6394 587.3583,-83.0781"/>
<polygon fill="#191970" stroke="#191970" points="589.8232,-80.589 580.4539,-75.6427 584.6937,-85.3522 589.8232,-80.589"/>
</g>
<!-- Node13&#45;&gt;Node2 -->
<g id="edge31" class="edge">
<title>Node13&#45;&gt;Node2</title>
<path fill="none" stroke="#191970" d="M321.1161,-171.5761C281.3217,-161.887 205.6065,-143.452 158.5587,-131.9969"/>
<polygon fill="#191970" stroke="#191970" points="159.235,-128.5594 148.6908,-129.5943 157.5789,-135.3607 159.235,-128.5594"/>
</g>
<!-- Node13&#45;&gt;Node3 -->
<g id="edge18" class="edge">
<title>Node13&#45;&gt;Node3</title>
<path fill="none" stroke="#191970" d="M348.453,-168.1763C350.0854,-146.1151 351.2219,-91.7765 327.5,-56 317.5856,-41.0475 300.9704,-30.0176 286.094,-22.5127"/>
<polygon fill="#191970" stroke="#191970" points="287.1968,-19.164 276.6571,-18.0841 284.2229,-25.5009 287.1968,-19.164"/>
</g>
<!-- Node13&#45;&gt;Node4 -->
<g id="edge21" class="edge">
<title>Node13&#45;&gt;Node4</title>
<path fill="none" stroke="#191970" d="M321.2308,-175.7938C261.8318,-170.4462 119.1228,-155.4789 77.5,-132 57.6251,-120.7888 41.3953,-99.9017 31.4076,-84.618"/>
<polygon fill="#191970" stroke="#191970" points="34.2753,-82.6018 26.0187,-75.9625 28.3329,-86.3015 34.2753,-82.6018"/>
</g>
<!-- Node13&#45;&gt;Node5 -->
<g id="edge19" class="edge">
<title>Node13&#45;&gt;Node5</title>
<path fill="none" stroke="#191970" d="M321.275,-173.3525C289.9727,-167.0798 236.6933,-154.0692 195.5,-132 171.1724,-118.9666 147.2968,-97.8793 132.0535,-83.0553"/>
<polygon fill="#191970" stroke="#191970" points="134.4699,-80.5223 124.9124,-75.9501 129.5326,-85.4845 134.4699,-80.5223"/>
</g>
<!-- Node13&#45;&gt;Node6 -->
<g id="edge22" class="edge">
<title>Node13&#45;&gt;Node6</title>
<path fill="none" stroke="#191970" d="M356.2817,-168.4509C373.6889,-149.5227 412.7817,-107.014 434.7485,-83.1279"/>
<polygon fill="#191970" stroke="#191970" points="437.5476,-85.2547 441.7405,-75.5249 432.3951,-80.5163 437.5476,-85.2547"/>
</g>
<!-- Node13&#45;&gt;Node7 -->
<g id="edge17" class="edge">
<title>Node13&#45;&gt;Node7</title>
<path fill="none" stroke="#191970" d="M373.7452,-168.8243C408.8966,-154.9396 469.8139,-124.898 495.5,-76 503.2035,-61.335 498.3793,-42.659 492.5451,-28.919"/>
<polygon fill="#191970" stroke="#191970" points="495.5323,-27.0506 488.0775,-19.5222 489.2104,-30.0563 495.5323,-27.0506"/>
</g>
<!-- Node13&#45;&gt;Node8 -->
<g id="edge30" class="edge">
<title>Node13&#45;&gt;Node8</title>
<path fill="none" stroke="#191970" d="M373.964,-172.6305C419.4974,-163.3918 513.4184,-144.3354 572.1568,-132.4175"/>
<polygon fill="#191970" stroke="#191970" points="572.8773,-135.8427 581.9817,-130.424 571.4854,-128.9825 572.8773,-135.8427"/>
</g>
<!-- Node13&#45;&gt;Node12 -->
<g id="edge20" class="edge">
<title>Node13&#45;&gt;Node12</title>
<path fill="none" stroke="#191970" d="M373.5945,-173.845C417.6949,-166.4285 504.6044,-149.9926 529.5,-132 545.7777,-120.2357 557.2641,-100.0405 564.0632,-85.0798"/>
<polygon fill="#191970" stroke="#191970" points="567.3473,-86.2999 568.0227,-75.7266 560.9011,-83.571 567.3473,-86.2999"/>
</g>
<!-- Node14 -->
<g id="node15" class="node">
<title>Node14</title>
<g id="a_node15"><a xlink:href="tethex_8hpp.html" target="_top" xlink:title="tethex &#45; tetrahedra to hexahedra conversion Copyright (c) 2013 Mikhail Artemyev Report issues: github...">
<polygon fill="#ffffff" stroke="#000000" points="204.5,-112.5 204.5,-131.5 266.5,-131.5 266.5,-112.5 204.5,-112.5"/>
<text text-anchor="middle" x="235.5" y="-119.5" font-family="Helvetica,sans-Serif" font-size="10.00" fill="#000000">tethex.hpp</text>
</a>
</g>
</g>
<!-- Node13&#45;&gt;Node14 -->
<g id="edge23" class="edge">
<title>Node13&#45;&gt;Node14</title>
<path fill="none" stroke="#191970" d="M328.2465,-168.3733C310.4288,-159.4644 283.7253,-146.1127 263.5406,-136.0203"/>
<polygon fill="#191970" stroke="#191970" points="265.0118,-132.8428 254.5022,-131.5011 261.8813,-139.1038 265.0118,-132.8428"/>
</g>
<!-- Node14&#45;&gt;Node3 -->
<g id="edge29" class="edge">
<title>Node14&#45;&gt;Node3</title>
<path fill="none" stroke="#191970" d="M217.2379,-112.3764C196.8114,-100.252 168.1087,-78.293 180.5,-56 189.5683,-39.6855 207.0864,-28.4113 222.8021,-21.1088"/>
<polygon fill="#191970" stroke="#191970" points="224.4428,-24.2139 232.2628,-17.0657 221.6919,-17.7771 224.4428,-24.2139"/>
</g>
<!-- Node14&#45;&gt;Node4 -->
<g id="edge28" class="edge">
<title>Node14&#45;&gt;Node4</title>
<path fill="none" stroke="#191970" d="M204.2372,-113.8571C163.2033,-103.1692 91.6364,-84.5286 50.9901,-73.9416"/>
<polygon fill="#191970" stroke="#191970" points="51.6783,-70.5041 41.1189,-71.3705 49.9138,-77.2781 51.6783,-70.5041"/>
</g>
<!-- Node14&#45;&gt;Node5 -->
<g id="edge25" class="edge">
<title>Node14&#45;&gt;Node5</title>
<path fill="none" stroke="#191970" d="M214.8713,-112.3733C194.7909,-103.0024 164.177,-88.7159 142.2376,-78.4776"/>
<polygon fill="#191970" stroke="#191970" points="143.6718,-75.2845 133.1299,-74.2273 140.7116,-81.6278 143.6718,-75.2845"/>
</g>
<!-- Node14&#45;&gt;Node7 -->
<g id="edge24" class="edge">
<title>Node14&#45;&gt;Node7</title>
<path fill="none" stroke="#191970" d="M256.5591,-112.4509C300.3989,-92.5722 401.5961,-46.6852 452.3405,-23.6756"/>
<polygon fill="#191970" stroke="#191970" points="453.8322,-26.8422 461.4942,-19.5249 450.9414,-20.467 453.8322,-26.8422"/>
</g>
<!-- Node15 -->
<g id="node16" class="node">
<title>Node15</title>
<polygon fill="#ffffff" stroke="#bfbfbf" points="189.5,-56.5 189.5,-75.5 241.5,-75.5 241.5,-56.5 189.5,-56.5"/>
<text text-anchor="middle" x="215.5" y="-63.5" font-family="Helvetica,sans-Serif" font-size="10.00" fill="#000000">sstream</text>
</g>
<!-- Node14&#45;&gt;Node15 -->
<g id="edge26" class="edge">
<title>Node14&#45;&gt;Node15</title>
<path fill="none" stroke="#191970" d="M232.0163,-112.2455C229.3492,-104.7776 225.5867,-94.2427 222.3263,-85.1137"/>
<polygon fill="#191970" stroke="#191970" points="225.6033,-83.8829 218.9438,-75.6427 219.0111,-86.2373 225.6033,-83.8829"/>
</g>
<!-- Node16 -->
<g id="node17" class="node">
<title>Node16</title>
<polygon fill="#ffffff" stroke="#bfbfbf" points="260,-56.5 260,-75.5 319,-75.5 319,-56.5 260,-56.5"/>
<text text-anchor="middle" x="289.5" y="-63.5" font-family="Helvetica,sans-Serif" font-size="10.00" fill="#000000">stdexcept</text>
</g>
<!-- Node14&#45;&gt;Node16 -->
<g id="edge27" class="edge">
<title>Node14&#45;&gt;Node16</title>
<path fill="none" stroke="#191970" d="M244.9061,-112.2455C252.6493,-104.2155 263.812,-92.6394 273.0318,-83.0781"/>
<polygon fill="#191970" stroke="#191970" points="275.7798,-85.2706 280.2017,-75.6427 270.7409,-80.4117 275.7798,-85.2706"/>
</g>
<!-- Node18 -->
<g id="node19" class="node">
<title>Node18</title>
<polygon fill="#ffffff" stroke="#bfbfbf" points="683.5,-112.5 683.5,-131.5 753.5,-131.5 753.5,-112.5 683.5,-112.5"/>
<text text-anchor="middle" x="718.5" y="-119.5" font-family="Helvetica,sans-Serif" font-size="10.00" fill="#000000">cxxopts.hpp</text>
</g>
<!-- Node17&#45;&gt;Node18 -->
<g id="edge33" class="edge">
<title>Node17&#45;&gt;Node18</title>
<path fill="none" stroke="#191970" d="M749.8809,-168.2455C744.5954,-160.4564 737.0459,-149.3308 730.6762,-139.9439"/>
<polygon fill="#191970" stroke="#191970" points="733.5545,-137.9522 725.0432,-131.6427 727.7621,-141.8827 733.5545,-137.9522"/>
</g>
<!-- Node19 -->
<g id="node20" class="node">
<title>Node19</title>
<polygon fill="#ffffff" stroke="#bfbfbf" points="771.5,-112.5 771.5,-131.5 817.5,-131.5 817.5,-112.5 771.5,-112.5"/>
<text text-anchor="middle" x="794.5" y="-119.5" font-family="Helvetica,sans-Serif" font-size="10.00" fill="#000000">chrono</text>
</g>
<!-- Node17&#45;&gt;Node19 -->
<g id="edge34" class="edge">
<title>Node17&#45;&gt;Node19</title>
<path fill="none" stroke="#191970" d="M763.1191,-168.2455C768.4046,-160.4564 775.9541,-149.3308 782.3238,-139.9439"/>
<polygon fill="#191970" stroke="#191970" points="785.2379,-141.8827 787.9568,-131.6427 779.4455,-137.9522 785.2379,-141.8827"/>
</g>
<!-- Node20 -->
<g id="node21" class="node">
<title>Node20</title>
<polygon fill="#ffffff" stroke="#bfbfbf" points="836,-112.5 836,-131.5 877,-131.5 877,-112.5 836,-112.5"/>
<text text-anchor="middle" x="856.5" y="-119.5" font-family="Helvetica,sans-Serif" font-size="10.00" fill="#000000">ctime</text>
</g>
<!-- Node17&#45;&gt;Node20 -->
<g id="edge35" class="edge">
<title>Node17&#45;&gt;Node20</title>
<path fill="none" stroke="#191970" d="M773.9187,-168.2455C789.5485,-159.4928 812.7019,-146.527 830.5185,-136.5496"/>
<polygon fill="#191970" stroke="#191970" points="832.266,-139.5825 839.2809,-131.6427 828.8457,-133.475 832.266,-139.5825"/>
</g>
</g>
</svg>
