<?xml version="1.0" encoding="UTF-8" standalone="no"?>
<!DOCTYPE svg PUBLIC "-//W3C//DTD SVG 1.1//EN"
 "http://www.w3.org/Graphics/SVG/1.1/DTD/svg11.dtd">
<!-- Generated by graphviz version 2.43.0 (0)
 -->
<!-- Title: io.hpp Pages: 1 -->
<svg width="307pt" height="308pt"
 viewBox="0.00 0.00 306.50 308.00" xmlns="http://www.w3.org/2000/svg" xmlns:xlink="http://www.w3.org/1999/xlink">
<g id="graph0" class="graph" transform="scale(1 1) rotate(0) translate(4 304)">
<title>io.hpp</title>
<polygon fill="white" stroke="transparent" points="-4,4 -4,-304 302.5,-304 302.5,4 -4,4"/>
<!-- Node1 -->
<g id="node1" class="node">
<title>Node1</title>
<g id="a_node1"><a xlink:title="Contains functionality to read and write state of program(simulation data) and program options.">
<polygon fill="#bfbfbf" stroke="black" points="161,-280.5 161,-299.5 208,-299.5 208,-280.5 161,-280.5"/>
<text text-anchor="middle" x="184.5" y="-287.5" font-family="Helvetica,sans-Serif" font-size="10.00">io.hpp</text>
</a>
</g>
</g>
<!-- Node2 -->
<g id="node2" class="node">
<title>Node2</title>
<g id="a_node2"><a xlink:href="model_8hpp.html" target="_top" xlink:title="Contains all RiverSim program parameters.">
<polygon fill="white" stroke="black" points="60.5,-224.5 60.5,-243.5 128.5,-243.5 128.5,-224.5 60.5,-224.5"/>
<text text-anchor="middle" x="94.5" y="-231.5" font-family="Helvetica,sans-Serif" font-size="10.00">model.hpp</text>
</a>
</g>
</g>
<!-- Node1&#45;&gt;Node2 -->
<g id="edge1" class="edge">
<title>Node1&#45;&gt;Node2</title>
<path fill="none" stroke="midnightblue" d="M170.04,-280.32C156,-271.9 134.45,-258.97 117.96,-249.07"/>
<polygon fill="midnightblue" stroke="midnightblue" points="119.3,-245.8 108.92,-243.65 115.7,-251.8 119.3,-245.8"/>
</g>
<!-- Node11 -->
<g id="node11" class="node">
<title>Node11</title>
<g id="a_node11"><a xlink:title=" ">
<polygon fill="white" stroke="#bfbfbf" points="146.5,-224.5 146.5,-243.5 222.5,-243.5 222.5,-224.5 146.5,-224.5"/>
<text text-anchor="middle" x="184.5" y="-231.5" font-family="Helvetica,sans-Serif" font-size="10.00">cxxopts.hpp</text>
</a>
</g>
</g>
<!-- Node1&#45;&gt;Node11 -->
<g id="edge15" class="edge">
<title>Node1&#45;&gt;Node11</title>
<path fill="none" stroke="midnightblue" d="M184.5,-280.08C184.5,-273.01 184.5,-262.86 184.5,-253.99"/>
<polygon fill="midnightblue" stroke="midnightblue" points="188,-253.75 184.5,-243.75 181,-253.75 188,-253.75"/>
</g>
<!-- Node12 -->
<g id="node12" class="node">
<title>Node12</title>
<g id="a_node12"><a xlink:title=" ">
<polygon fill="white" stroke="#bfbfbf" points="240.5,-224.5 240.5,-243.5 298.5,-243.5 298.5,-224.5 240.5,-224.5"/>
<text text-anchor="middle" x="269.5" y="-231.5" font-family="Helvetica,sans-Serif" font-size="10.00">json.hpp</text>
</a>
</g>
</g>
<!-- Node1&#45;&gt;Node12 -->
<g id="edge16" class="edge">
<title>Node1&#45;&gt;Node12</title>
<path fill="none" stroke="midnightblue" d="M198.16,-280.32C211.42,-271.9 231.77,-258.97 247.35,-249.07"/>
<polygon fill="midnightblue" stroke="midnightblue" points="249.31,-251.97 255.88,-243.65 245.56,-246.06 249.31,-251.97"/>
</g>
<!-- Node3 -->
<g id="node3" class="node">
<title>Node3</title>
<g id="a_node3"><a xlink:href="rivers_8hpp.html" target="_top" xlink:title="Holds all functionality that you need to work with tree(network) of river, its separate branches and ...">
<polygon fill="white" stroke="black" points="0,-112.5 0,-131.5 65,-131.5 65,-112.5 0,-112.5"/>
<text text-anchor="middle" x="32.5" y="-119.5" font-family="Helvetica,sans-Serif" font-size="10.00">rivers.hpp</text>
</a>
</g>
</g>
<!-- Node2&#45;&gt;Node3 -->
<g id="edge2" class="edge">
<title>Node2&#45;&gt;Node3</title>
<path fill="none" stroke="midnightblue" d="M60.32,-224.49C41.51,-217.88 19.76,-206.6 8.5,-188 -0.7,-172.81 8.7,-153.51 18.3,-139.91"/>
<polygon fill="midnightblue" stroke="midnightblue" points="21.14,-141.95 24.45,-131.89 15.58,-137.7 21.14,-141.95"/>
</g>
<!-- Node6 -->
<g id="node6" class="node">
<title>Node6</title>
<g id="a_node6"><a xlink:href="solver_8hpp.html" target="_top" xlink:title="PDE Solver and Integration tool.">
<polygon fill="white" stroke="black" points="103.5,-168.5 103.5,-187.5 171.5,-187.5 171.5,-168.5 103.5,-168.5"/>
<text text-anchor="middle" x="137.5" y="-175.5" font-family="Helvetica,sans-Serif" font-size="10.00">solver.hpp</text>
</a>
</g>
</g>
<!-- Node2&#45;&gt;Node6 -->
<g id="edge5" class="edge">
<title>Node2&#45;&gt;Node6</title>
<path fill="none" stroke="midnightblue" d="M101.6,-224.08C107.74,-216.38 116.77,-205.03 124.24,-195.65"/>
<polygon fill="midnightblue" stroke="midnightblue" points="127.04,-197.75 130.53,-187.75 121.56,-193.39 127.04,-197.75"/>
</g>
<!-- Node8 -->
<g id="node8" class="node">
<title>Node8</title>
<g id="a_node8"><a xlink:href="triangle_8hpp.html" target="_top" xlink:title="Mesh generation functionality.">
<polygon fill="white" stroke="black" points="190,-168.5 190,-187.5 265,-187.5 265,-168.5 190,-168.5"/>
<text text-anchor="middle" x="227.5" y="-175.5" font-family="Helvetica,sans-Serif" font-size="10.00">triangle.hpp</text>
</a>
</g>
</g>
<!-- Node2&#45;&gt;Node8 -->
<g id="edge9" class="edge">
<title>Node2&#45;&gt;Node8</title>
<path fill="none" stroke="midnightblue" d="M115.57,-224.44C137.56,-215.52 172.23,-201.44 197.16,-191.32"/>
<polygon fill="midnightblue" stroke="midnightblue" points="198.58,-194.52 206.52,-187.52 195.94,-188.04 198.58,-194.52"/>
</g>
<!-- Node10 -->
<g id="node10" class="node">
<title>Node10</title>
<g id="a_node10"><a xlink:href="region_8hpp_source.html" target="_top" xlink:title=" ">
<polygon fill="white" stroke="black" points="17.5,-168.5 17.5,-187.5 85.5,-187.5 85.5,-168.5 17.5,-168.5"/>
<text text-anchor="middle" x="51.5" y="-175.5" font-family="Helvetica,sans-Serif" font-size="10.00">region.hpp</text>
</a>
</g>
</g>
<!-- Node2&#45;&gt;Node10 -->
<g id="edge13" class="edge">
<title>Node2&#45;&gt;Node10</title>
<path fill="none" stroke="midnightblue" d="M87.4,-224.08C81.26,-216.38 72.23,-205.03 64.76,-195.65"/>
<polygon fill="midnightblue" stroke="midnightblue" points="67.44,-193.39 58.47,-187.75 61.96,-197.75 67.44,-193.39"/>
</g>
<!-- Node4 -->
<g id="node4" class="node">
<title>Node4</title>
<g id="a_node4"><a xlink:href="boundary_8hpp.html" target="_top" xlink:title="Generate initial predefinide boundary geometry and its source positions.">
<polygon fill="white" stroke="black" points="83.5,-56.5 83.5,-75.5 165.5,-75.5 165.5,-56.5 83.5,-56.5"/>
<text text-anchor="middle" x="124.5" y="-63.5" font-family="Helvetica,sans-Serif" font-size="10.00">boundary.hpp</text>
</a>
</g>
</g>
<!-- Node3&#45;&gt;Node4 -->
<g id="edge3" class="edge">
<title>Node3&#45;&gt;Node4</title>
<path fill="none" stroke="midnightblue" d="M47.28,-112.32C61.77,-103.82 84.07,-90.73 100.99,-80.8"/>
<polygon fill="midnightblue" stroke="midnightblue" points="102.9,-83.74 109.76,-75.65 99.36,-77.7 102.9,-83.74"/>
</g>
<!-- Node5 -->
<g id="node5" class="node">
<title>Node5</title>
<g id="a_node5"><a xlink:href="point_8hpp.html" target="_top" xlink:title="Common geometric entities like Vectors, Lines etc., to whole program.">
<polygon fill="white" stroke="black" points="93.5,-0.5 93.5,-19.5 155.5,-19.5 155.5,-0.5 93.5,-0.5"/>
<text text-anchor="middle" x="124.5" y="-7.5" font-family="Helvetica,sans-Serif" font-size="10.00">point.hpp</text>
</a>
</g>
</g>
<!-- Node4&#45;&gt;Node5 -->
<g id="edge4" class="edge">
<title>Node4&#45;&gt;Node5</title>
<path fill="none" stroke="midnightblue" d="M124.5,-56.08C124.5,-49.01 124.5,-38.86 124.5,-29.99"/>
<polygon fill="midnightblue" stroke="midnightblue" points="128,-29.75 124.5,-19.75 121,-29.75 128,-29.75"/>
</g>
<!-- Node6&#45;&gt;Node4 -->
<g id="edge6" class="edge">
<title>Node6&#45;&gt;Node4</title>
<path fill="none" stroke="midnightblue" d="M130.87,-168.27C124.73,-159.61 116.04,-145.67 112.5,-132 108.5,-116.55 112.38,-98.71 116.77,-85.63"/>
<polygon fill="midnightblue" stroke="midnightblue" points="120.18,-86.51 120.41,-75.92 113.62,-84.05 120.18,-86.51"/>
</g>
<!-- Node7 -->
<g id="node7" class="node">
<title>Node7</title>
<g id="a_node7"><a xlink:href="tethex_8hpp.html" target="_top" xlink:title="Classes for holding mesh and converting by splitting triangles to quadrangles.">
<polygon fill="white" stroke="black" points="122,-112.5 122,-131.5 191,-131.5 191,-112.5 122,-112.5"/>
<text text-anchor="middle" x="156.5" y="-119.5" font-family="Helvetica,sans-Serif" font-size="10.00">tethex.hpp</text>
</a>
</g>
</g>
<!-- Node6&#45;&gt;Node7 -->
<g id="edge7" class="edge">
<title>Node6&#45;&gt;Node7</title>
<path fill="none" stroke="midnightblue" d="M140.64,-168.08C143.18,-160.85 146.86,-150.41 150.03,-141.4"/>
<polygon fill="midnightblue" stroke="midnightblue" points="153.4,-142.35 153.42,-131.75 146.8,-140.02 153.4,-142.35"/>
</g>
<!-- Node7&#45;&gt;Node4 -->
<g id="edge8" class="edge">
<title>Node7&#45;&gt;Node4</title>
<path fill="none" stroke="midnightblue" d="M151.22,-112.08C146.79,-104.61 140.34,-93.72 134.88,-84.52"/>
<polygon fill="midnightblue" stroke="midnightblue" points="137.79,-82.57 129.69,-75.75 131.77,-86.14 137.79,-82.57"/>
</g>
<!-- Node8&#45;&gt;Node7 -->
<g id="edge12" class="edge">
<title>Node8&#45;&gt;Node7</title>
<path fill="none" stroke="midnightblue" d="M216.09,-168.32C205.39,-160.18 189.16,-147.84 176.34,-138.09"/>
<polygon fill="midnightblue" stroke="midnightblue" points="178.19,-135.1 168.11,-131.83 173.96,-140.67 178.19,-135.1"/>
</g>
<!-- Node9 -->
<g id="node9" class="node">
<title>Node9</title>
<g id="a_node9"><a xlink:href="triangle__c_8hpp_source.html" target="_top" xlink:title=" ">
<polygon fill="white" stroke="black" points="209.5,-112.5 209.5,-131.5 295.5,-131.5 295.5,-112.5 209.5,-112.5"/>
<text text-anchor="middle" x="252.5" y="-119.5" font-family="Helvetica,sans-Serif" font-size="10.00">triangle_c.hpp</text>
</a>
</g>
</g>
<!-- Node8&#45;&gt;Node9 -->
<g id="edge10" class="edge">
<title>Node8&#45;&gt;Node9</title>
<path fill="none" stroke="midnightblue" d="M231.63,-168.08C235.01,-160.77 239.92,-150.18 244.12,-141.1"/>
<polygon fill="midnightblue" stroke="midnightblue" points="247.42,-142.3 248.45,-131.75 241.07,-139.36 247.42,-142.3"/>
</g>
<!-- Node9&#45;&gt;Node4 -->
<g id="edge11" class="edge">
<title>Node9&#45;&gt;Node4</title>
<path fill="none" stroke="midnightblue" d="M232.22,-112.44C211.15,-103.56 177.98,-89.56 154.01,-79.45"/>
<polygon fill="midnightblue" stroke="midnightblue" points="155.26,-76.18 144.69,-75.52 152.54,-82.63 155.26,-76.18"/>
</g>
<!-- Node10&#45;&gt;Node3 -->
<g id="edge14" class="edge">
<title>Node10&#45;&gt;Node3</title>
<path fill="none" stroke="midnightblue" d="M48.36,-168.08C45.82,-160.85 42.14,-150.41 38.97,-141.4"/>
<polygon fill="midnightblue" stroke="midnightblue" points="42.2,-140.02 35.58,-131.75 35.6,-142.35 42.2,-140.02"/>
</g>
</g>
</svg>
