<?xml version="1.0" encoding="UTF-8" standalone="no"?>
<!DOCTYPE svg PUBLIC "-//W3C//DTD SVG 1.1//EN"
 "http://www.w3.org/Graphics/SVG/1.1/DTD/svg11.dtd">
<!-- Generated by graphviz version 2.40.1 (20161225.0304)
 -->
<!-- Title: main Pages: 1 -->
<svg width="790pt" height="1255pt"
 viewBox="0.00 0.00 790.00 1255.00" xmlns="http://www.w3.org/2000/svg" xmlns:xlink="http://www.w3.org/1999/xlink">
<g id="graph0" class="graph" transform="scale(1 1) rotate(0) translate(4 1251)">
<title>main</title>
<polygon fill="#ffffff" stroke="transparent" points="-4,4 -4,-1251 786,-1251 786,4 -4,4"/>
<!-- Node0 -->
<g id="node1" class="node">
<title>Node0</title>
<polygon fill="#bfbfbf" stroke="#000000" points="0,-949 0,-968 38,-968 38,-949 0,-949"/>
<text text-anchor="middle" x="19" y="-956" font-family="Helvetica,sans-Serif" font-size="10.00" fill="#000000">main</text>
</g>
<!-- Node1 -->
<g id="node2" class="node">
<title>Node1</title>
<g id="a_node2"><a xlink:href="namespaceRiver.html#affa8f88114842f27d0a7b829d69120cf" target="_top" xlink:title="Processing of program options. ">
<polygon fill="#ffffff" stroke="#000000" points="92,-1216.5 92,-1246.5 213,-1246.5 213,-1216.5 92,-1216.5"/>
<text text-anchor="start" x="100" y="-1234.5" font-family="Helvetica,sans-Serif" font-size="10.00" fill="#000000">River::process_program</text>
<text text-anchor="middle" x="152.5" y="-1223.5" font-family="Helvetica,sans-Serif" font-size="10.00" fill="#000000">_options</text>
</a>
</g>
</g>
<!-- Node0&#45;&gt;Node1 -->
<g id="edge1" class="edge">
<title>Node0&#45;&gt;Node1</title>
<path fill="none" stroke="#191970" d="M19.8365,-968.0384C23.6308,-1009.2092 40.5068,-1171.2391 74,-1207.5 76.7498,-1210.477 79.8574,-1213.0888 83.2092,-1215.3798"/>
<polygon fill="#191970" stroke="#191970" points="81.5687,-1218.474 91.9798,-1220.4389 85.0664,-1212.4104 81.5687,-1218.474"/>
</g>
<!-- Node3 -->
<g id="node4" class="node">
<title>Node3</title>
<g id="a_node4"><a xlink:href="namespaceRiver.html#a02a7bd977ae572b7b678c2b9585a2320" target="_top" xlink:title="Prints to console program logo. ">
<polygon fill="#ffffff" stroke="#000000" points="107.5,-1167.5 107.5,-1197.5 197.5,-1197.5 197.5,-1167.5 107.5,-1167.5"/>
<text text-anchor="start" x="115.5" y="-1185.5" font-family="Helvetica,sans-Serif" font-size="10.00" fill="#000000">River::print_ascii</text>
<text text-anchor="middle" x="152.5" y="-1174.5" font-family="Helvetica,sans-Serif" font-size="10.00" fill="#000000">_signature</text>
</a>
</g>
</g>
<!-- Node0&#45;&gt;Node3 -->
<g id="edge3" class="edge">
<title>Node0&#45;&gt;Node3</title>
<path fill="none" stroke="#191970" d="M20.3922,-968.054C25.8047,-1003.9614 46.5151,-1130.2248 74,-1158.5 80.4923,-1165.179 88.7865,-1170.012 97.5391,-1173.5062"/>
<polygon fill="#191970" stroke="#191970" points="96.5585,-1176.8698 107.1531,-1176.7963 98.8251,-1170.2469 96.5585,-1176.8698"/>
</g>
<!-- Node4 -->
<g id="node5" class="node">
<title>Node4</title>
<g id="a_node5"><a xlink:href="namespaceRiver.html#a76ca79e3b672b6aad648f80305e7fc1b" target="_top" xlink:title="River::SetupModelParamsFrom\lProgramOptions">
<polygon fill="#ffffff" stroke="#000000" points="75.5,-1118.5 75.5,-1148.5 229.5,-1148.5 229.5,-1118.5 75.5,-1118.5"/>
<text text-anchor="start" x="83.5" y="-1136.5" font-family="Helvetica,sans-Serif" font-size="10.00" fill="#000000">River::SetupModelParamsFrom</text>
<text text-anchor="middle" x="152.5" y="-1125.5" font-family="Helvetica,sans-Serif" font-size="10.00" fill="#000000">ProgramOptions</text>
</a>
</g>
</g>
<!-- Node0&#45;&gt;Node4 -->
<g id="edge4" class="edge">
<title>Node0&#45;&gt;Node4</title>
<path fill="none" stroke="#191970" d="M19.6813,-968.1339C22.0669,-994.5118 32.3347,-1068.594 74,-1108.5 75.6366,-1110.0675 77.3712,-1111.5367 79.1856,-1112.9138"/>
<polygon fill="#191970" stroke="#191970" points="77.3025,-1115.8642 87.5942,-1118.3808 81.1182,-1109.9955 77.3025,-1115.8642"/>
</g>
<!-- Node5 -->
<g id="node6" class="node">
<title>Node5</title>
<g id="a_node6"><a xlink:href="classRiver_1_1Border.html#a15c063e3c9acabf547dfa4b2d815c42d" target="_top" xlink:title="Initializes Border::borderMesh object of type tethex::Mesh by setting lines and vertices to rectangul...">
<polygon fill="#ffffff" stroke="#000000" points="74,-1080 74,-1099 231,-1099 231,-1080 74,-1080"/>
<text text-anchor="middle" x="152.5" y="-1087" font-family="Helvetica,sans-Serif" font-size="10.00" fill="#000000">River::Border::MakeRectangular</text>
</a>
</g>
</g>
<!-- Node0&#45;&gt;Node5 -->
<g id="edge5" class="edge">
<title>Node0&#45;&gt;Node5</title>
<path fill="none" stroke="#191970" d="M20.8214,-968.0158C25.4981,-989.7509 40.0311,-1043.2606 74,-1070.5 76.181,-1072.2489 78.4984,-1073.8407 80.9178,-1075.2892"/>
<polygon fill="#191970" stroke="#191970" points="79.5613,-1078.5257 90.0624,-1079.9318 82.7302,-1072.284 79.5613,-1078.5257"/>
</g>
<!-- Node6 -->
<g id="node7" class="node">
<title>Node6</title>
<g id="a_node7"><a xlink:href="classRiver_1_1Tree.html#ac64a5af7aa738e977d9f866c77de9151" target="_top" xlink:title="Constructor of Tree. ">
<polygon fill="#ffffff" stroke="#000000" points="99,-1042 99,-1061 206,-1061 206,-1042 99,-1042"/>
<text text-anchor="middle" x="152.5" y="-1049" font-family="Helvetica,sans-Serif" font-size="10.00" fill="#000000">River::Tree::Initialize</text>
</a>
</g>
</g>
<!-- Node0&#45;&gt;Node6 -->
<g id="edge6" class="edge">
<title>Node0&#45;&gt;Node6</title>
<path fill="none" stroke="#191970" d="M23.3924,-968.1298C31.1962,-984.1105 49.0369,-1015.982 74,-1032.5 78.6775,-1035.5951 83.8098,-1038.1868 89.1405,-1040.3569"/>
<polygon fill="#191970" stroke="#191970" points="88.3002,-1043.7727 98.8949,-1043.8255 90.6455,-1037.1773 88.3002,-1043.7727"/>
</g>
<!-- Node7 -->
<g id="node8" class="node">
<title>Node7</title>
<g id="a_node8"><a xlink:href="classRiver_1_1Border.html#a2f25dbd4abd2d3d684a4d01389e76a0d" target="_top" xlink:title="Returns vector of sources points(both source point is merged into one). ">
<polygon fill="#ffffff" stroke="#000000" points="86.5,-992.5 86.5,-1022.5 218.5,-1022.5 218.5,-992.5 86.5,-992.5"/>
<text text-anchor="start" x="94.5" y="-1010.5" font-family="Helvetica,sans-Serif" font-size="10.00" fill="#000000">River::Border::GetSources</text>
<text text-anchor="middle" x="152.5" y="-999.5" font-family="Helvetica,sans-Serif" font-size="10.00" fill="#000000">Point</text>
</a>
</g>
</g>
<!-- Node0&#45;&gt;Node7 -->
<g id="edge7" class="edge">
<title>Node0&#45;&gt;Node7</title>
<path fill="none" stroke="#191970" d="M38.086,-967.9152C48.5511,-972.8887 61.8353,-978.898 74,-983.5 79.1651,-985.454 84.5651,-987.3663 90.0106,-989.2049"/>
<polygon fill="#191970" stroke="#191970" points="89.2279,-992.6317 99.8207,-992.4275 91.4126,-985.9813 89.2279,-992.6317"/>
</g>
<!-- Node9 -->
<g id="node10" class="node">
<title>Node9</title>
<g id="a_node10"><a xlink:href="classRiver_1_1Border.html#a3ce119f75991242a2c45ab8b612f2c7d" target="_top" xlink:title="Returns vector of all nolrmall angles. ">
<polygon fill="#ffffff" stroke="#000000" points="86.5,-943.5 86.5,-973.5 218.5,-973.5 218.5,-943.5 86.5,-943.5"/>
<text text-anchor="start" x="94.5" y="-961.5" font-family="Helvetica,sans-Serif" font-size="10.00" fill="#000000">River::Border::GetSources</text>
<text text-anchor="middle" x="152.5" y="-950.5" font-family="Helvetica,sans-Serif" font-size="10.00" fill="#000000">NormalAngle</text>
</a>
</g>
</g>
<!-- Node0&#45;&gt;Node9 -->
<g id="edge9" class="edge">
<title>Node0&#45;&gt;Node9</title>
<path fill="none" stroke="#191970" d="M38.1273,-958.5C48.4541,-958.5 61.9541,-958.5 76.0437,-958.5"/>
<polygon fill="#191970" stroke="#191970" points="76.3703,-962.0001 86.3703,-958.5 76.3702,-955.0001 76.3703,-962.0001"/>
</g>
<!-- Node10 -->
<g id="node11" class="node">
<title>Node10</title>
<g id="a_node11"><a xlink:href="classRiver_1_1Border.html#ae11520725faf327360db442782a8b036" target="_top" xlink:title="Returns vector of sources ids. ">
<polygon fill="#ffffff" stroke="#000000" points="82.5,-905 82.5,-924 222.5,-924 222.5,-905 82.5,-905"/>
<text text-anchor="middle" x="152.5" y="-912" font-family="Helvetica,sans-Serif" font-size="10.00" fill="#000000">River::Border::GetSourcesId</text>
</a>
</g>
</g>
<!-- Node0&#45;&gt;Node10 -->
<g id="edge10" class="edge">
<title>Node0&#45;&gt;Node10</title>
<path fill="none" stroke="#191970" d="M38.0423,-949.2811C48.4946,-944.4536 61.7805,-938.6918 74,-934.5 82.3122,-931.6486 91.2434,-928.9976 99.9961,-926.6191"/>
<polygon fill="#191970" stroke="#191970" points="100.9779,-929.98 109.76,-924.0533 99.1988,-923.2098 100.9779,-929.98"/>
</g>
<!-- Node11 -->
<g id="node12" class="node">
<title>Node11</title>
<g id="a_node12"><a xlink:href="classRiver_1_1Tree.html#a0d660912cdeb4242e6e841efa946f3aa" target="_top" xlink:title="Return vector of source branches ids. ">
<polygon fill="#ffffff" stroke="#000000" points="75.5,-867 75.5,-886 229.5,-886 229.5,-867 75.5,-867"/>
<text text-anchor="middle" x="152.5" y="-874" font-family="Helvetica,sans-Serif" font-size="10.00" fill="#000000">River::Tree::SourceBranchesID</text>
</a>
</g>
</g>
<!-- Node0&#45;&gt;Node11 -->
<g id="edge11" class="edge">
<title>Node0&#45;&gt;Node11</title>
<path fill="none" stroke="#191970" d="M24.7561,-948.7233C33.5418,-934.6944 51.6556,-909.0548 74,-895.5 77.5741,-893.3318 81.3803,-891.411 85.3162,-889.7093"/>
<polygon fill="#191970" stroke="#191970" points="86.5985,-892.9662 94.6868,-886.123 84.0964,-886.4286 86.5985,-892.9662"/>
</g>
<!-- Node12 -->
<g id="node13" class="node">
<title>Node12</title>
<g id="a_node13"><a xlink:href="namespaceRiver.html#ab2e6cbc1f3bbe0e9879ff60bb4a6df3c" target="_top" xlink:title="River::Open">
<polygon fill="#ffffff" stroke="#000000" points="118,-829 118,-848 187,-848 187,-829 118,-829"/>
<text text-anchor="middle" x="152.5" y="-836" font-family="Helvetica,sans-Serif" font-size="10.00" fill="#000000">River::Open</text>
</a>
</g>
</g>
<!-- Node0&#45;&gt;Node12 -->
<g id="edge12" class="edge">
<title>Node0&#45;&gt;Node12</title>
<path fill="none" stroke="#191970" d="M21.4463,-948.6957C27.05,-928.3514 42.8024,-881.4541 74,-857.5 83.7315,-850.028 95.9814,-845.4441 107.8912,-842.647"/>
<polygon fill="#191970" stroke="#191970" points="108.6235,-846.07 117.7528,-840.6934 107.2632,-839.2034 108.6235,-846.07"/>
</g>
<!-- Node14 -->
<g id="node15" class="node">
<title>Node14</title>
<g id="a_node15"><a xlink:href="namespaceRiver.html#af1a3f7c61809dd8032e4ff5920da83cc" target="_top" xlink:title="One step of forward river evolution. ">
<polygon fill="#ffffff" stroke="#000000" points="80,-449 80,-468 225,-468 225,-449 80,-449"/>
<text text-anchor="middle" x="152.5" y="-456" font-family="Helvetica,sans-Serif" font-size="10.00" fill="#000000">River::ForwardRiverEvolution</text>
</a>
</g>
</g>
<!-- Node0&#45;&gt;Node14 -->
<g id="edge14" class="edge">
<title>Node0&#45;&gt;Node14</title>
<path fill="none" stroke="#191970" d="M21.5476,-948.9583C37.624,-888.7471 125.0506,-561.3068 147.3309,-477.8599"/>
<polygon fill="#191970" stroke="#191970" points="150.7274,-478.7063 149.9256,-468.1419 143.9644,-476.9006 150.7274,-478.7063"/>
</g>
<!-- Node162 -->
<g id="node46" class="node">
<title>Node162</title>
<g id="a_node46"><a xlink:href="classRiver_1_1Timing.html#a76bca6a0cc2ad229073240917e0a9e7d" target="_top" xlink:title="Returns elapsed time, and save it into vector. ">
<polygon fill="#ffffff" stroke="#000000" points="96,-411 96,-430 209,-430 209,-411 96,-411"/>
<text text-anchor="middle" x="152.5" y="-418" font-family="Helvetica,sans-Serif" font-size="10.00" fill="#000000">River::Timing::Record</text>
</a>
</g>
</g>
<!-- Node0&#45;&gt;Node162 -->
<g id="edge46" class="edge">
<title>Node0&#45;&gt;Node162</title>
<path fill="none" stroke="#191970" d="M19.358,-948.9782C21.9707,-881.696 38.9958,-479.4546 74,-439.5 77.5473,-435.451 81.7961,-432.1891 86.4562,-429.5693"/>
<polygon fill="#191970" stroke="#191970" points="88.2031,-432.6194 95.8484,-425.2846 85.2977,-426.2508 88.2031,-432.6194"/>
</g>
<!-- Node163 -->
<g id="node47" class="node">
<title>Node163</title>
<g id="a_node47"><a xlink:href="namespaceRiver.html#a656cc47cfdf989114a9fcad489904f75" target="_top" xlink:title="River::Save">
<polygon fill="#ffffff" stroke="#000000" points="493,-753 493,-772 561,-772 561,-753 493,-753"/>
<text text-anchor="middle" x="527" y="-760" font-family="Helvetica,sans-Serif" font-size="10.00" fill="#000000">River::Save</text>
</a>
</g>
</g>
<!-- Node0&#45;&gt;Node163 -->
<g id="edge47" class="edge">
<title>Node0&#45;&gt;Node163</title>
<path fill="none" stroke="#191970" d="M19.5827,-948.7579C21.7012,-922.8708 31.3198,-852.1251 74,-819.5 134.4005,-773.3293 338.7067,-792.0293 414,-781.5 436.8571,-778.3036 462.2048,-774.1021 483.0914,-770.463"/>
<polygon fill="#191970" stroke="#191970" points="483.7132,-773.9075 492.956,-768.7286 482.501,-767.0133 483.7132,-773.9075"/>
</g>
<!-- Node2 -->
<g id="node3" class="node">
<title>Node2</title>
<g id="a_node3"><a xlink:href="namespaceRiver.html#ab5576a99dc50334ad837bfa492dfc4ec" target="_top" xlink:title="Prints to console program Version. ">
<polygon fill="#ffffff" stroke="#000000" points="290,-1222 290,-1241 391,-1241 391,-1222 290,-1222"/>
<text text-anchor="middle" x="340.5" y="-1229" font-family="Helvetica,sans-Serif" font-size="10.00" fill="#000000">River::print_version</text>
</a>
</g>
</g>
<!-- Node1&#45;&gt;Node2 -->
<g id="edge2" class="edge">
<title>Node1&#45;&gt;Node2</title>
<path fill="none" stroke="#191970" d="M213.0192,-1231.5C234.328,-1231.5 258.2772,-1231.5 279.6159,-1231.5"/>
<polygon fill="#191970" stroke="#191970" points="279.8586,-1235.0001 289.8586,-1231.5 279.8586,-1228.0001 279.8586,-1235.0001"/>
</g>
<!-- Node8 -->
<g id="node9" class="node">
<title>Node8</title>
<g id="a_node9"><a xlink:href="classRiver_1_1Border.html#a512637f837781f78588d1dec4ebe8917" target="_top" xlink:title="Return Source Point. ">
<polygon fill="#ffffff" stroke="#000000" points="277,-992.5 277,-1022.5 404,-1022.5 404,-992.5 277,-992.5"/>
<text text-anchor="start" x="285" y="-1010.5" font-family="Helvetica,sans-Serif" font-size="10.00" fill="#000000">River::Border::GetSource</text>
<text text-anchor="middle" x="340.5" y="-999.5" font-family="Helvetica,sans-Serif" font-size="10.00" fill="#000000">Point</text>
</a>
</g>
</g>
<!-- Node7&#45;&gt;Node8 -->
<g id="edge8" class="edge">
<title>Node7&#45;&gt;Node8</title>
<path fill="none" stroke="#191970" d="M218.5174,-1007.5C234.0529,-1007.5 250.7103,-1007.5 266.5685,-1007.5"/>
<polygon fill="#191970" stroke="#191970" points="266.8544,-1011.0001 276.8543,-1007.5 266.8543,-1004.0001 266.8544,-1011.0001"/>
</g>
<!-- Node13 -->
<g id="node14" class="node">
<title>Node13</title>
<g id="a_node14"><a xlink:href="classRiver_1_1Tree.html#a80d05a0a827037bff3fab40c231e3ee3" target="_top" xlink:title="Adds new branch with id(id should be unique). ">
<polygon fill="#ffffff" stroke="#000000" points="281,-829 281,-848 400,-848 400,-829 281,-829"/>
<text text-anchor="middle" x="340.5" y="-836" font-family="Helvetica,sans-Serif" font-size="10.00" fill="#000000">River::Tree::AddBranch</text>
</a>
</g>
</g>
<!-- Node12&#45;&gt;Node13 -->
<g id="edge13" class="edge">
<title>Node12&#45;&gt;Node13</title>
<path fill="none" stroke="#191970" d="M187.4208,-838.5C210.6859,-838.5 242.0707,-838.5 270.366,-838.5"/>
<polygon fill="#191970" stroke="#191970" points="270.6301,-842.0001 280.6301,-838.5 270.63,-835.0001 270.6301,-842.0001"/>
</g>
<!-- Node15 -->
<g id="node16" class="node">
<title>Node15</title>
<g id="a_node16"><a xlink:href="namespaceRiver.html#a43d55da8d0508b984518c4ebed6e0ad7" target="_top" xlink:title="Finnal Boudary Geneartor Class. ">
<polygon fill="#ffffff" stroke="#000000" points="275.5,-323 275.5,-342 405.5,-342 405.5,-323 275.5,-323"/>
<text text-anchor="middle" x="340.5" y="-330" font-family="Helvetica,sans-Serif" font-size="10.00" fill="#000000">River::BoundaryGenerator</text>
</a>
</g>
</g>
<!-- Node14&#45;&gt;Node15 -->
<g id="edge15" class="edge">
<title>Node14&#45;&gt;Node15</title>
<path fill="none" stroke="#191970" d="M215.9915,-448.9138C221.42,-446.4292 226.5337,-443.3387 231,-439.5 263.047,-411.9561 235.1673,-379.2914 267,-351.5 268.7747,-349.9506 270.6599,-348.5249 272.6316,-347.2133"/>
<polygon fill="#191970" stroke="#191970" points="274.7015,-350.068 281.7551,-342.1624 271.3111,-343.9438 274.7015,-350.068"/>
</g>
<!-- Node18 -->
<g id="node19" class="node">
<title>Node18</title>
<g id="a_node19"><a xlink:href="classRiver_1_1Tree.html#a47f13208e26100fb6f1301ebd6a1daf0" target="_top" xlink:title="Returns link to branch with id. ">
<polygon fill="#ffffff" stroke="#000000" points="652,-500 652,-519 770,-519 770,-500 652,-500"/>
<text text-anchor="middle" x="711" y="-507" font-family="Helvetica,sans-Serif" font-size="10.00" fill="#000000">River::Tree::GetBranch</text>
</a>
</g>
</g>
<!-- Node14&#45;&gt;Node18 -->
<g id="edge36" class="edge">
<title>Node14&#45;&gt;Node18</title>
<path fill="none" stroke="#191970" d="M217.5858,-448.8519C222.4901,-446.3613 227.055,-443.2871 231,-439.5 273.0146,-399.1667 220.5035,-348.5724 267,-313.5 326.7874,-268.4022 539.5963,-275.2834 604,-313.5 669.9668,-352.6441 697.8808,-448.362 707.1574,-489.8203"/>
<polygon fill="#191970" stroke="#191970" points="703.7672,-490.7063 709.254,-499.7698 710.6168,-489.2629 703.7672,-490.7063"/>
</g>
<!-- Node28 -->
<g id="node21" class="node">
<title>Node28</title>
<g id="a_node21"><a xlink:href="classRiver_1_1Tree.html#a4563499cba0aa908a7c4c849bacaad41" target="_top" xlink:title="Returns vector of tip branches Points. ">
<polygon fill="#ffffff" stroke="#000000" points="284,-209 284,-228 397,-228 397,-209 284,-209"/>
<text text-anchor="middle" x="340.5" y="-216" font-family="Helvetica,sans-Serif" font-size="10.00" fill="#000000">River::Tree::TipPoints</text>
</a>
</g>
</g>
<!-- Node14&#45;&gt;Node28 -->
<g id="edge20" class="edge">
<title>Node14&#45;&gt;Node28</title>
<path fill="none" stroke="#191970" d="M218.7501,-448.8725C223.2782,-446.3624 227.4452,-443.2789 231,-439.5 293.4828,-373.0775 205.0336,-304.4045 267,-237.5 269.3285,-234.9859 271.9422,-232.7865 274.7591,-230.8638"/>
<polygon fill="#191970" stroke="#191970" points="276.6877,-233.7966 283.7376,-225.8878 273.2944,-227.674 276.6877,-233.7966"/>
</g>
<!-- Node29 -->
<g id="node22" class="node">
<title>Node29</title>
<g id="a_node22"><a xlink:href="classRiver_1_1Triangle.html#a0dae20b40d446e6009a88543e2c14daf" target="_top" xlink:title="Generate mesh. ">
<polygon fill="#ffffff" stroke="#000000" points="278.5,-171 278.5,-190 402.5,-190 402.5,-171 278.5,-171"/>
<text text-anchor="middle" x="340.5" y="-178" font-family="Helvetica,sans-Serif" font-size="10.00" fill="#000000">River::Triangle::generate</text>
</a>
</g>
</g>
<!-- Node14&#45;&gt;Node29 -->
<g id="edge21" class="edge">
<title>Node14&#45;&gt;Node29</title>
<path fill="none" stroke="#191970" d="M218.8648,-448.9789C223.3676,-446.4453 227.4975,-443.3274 231,-439.5 303.8169,-359.9294 194.8018,-279.6324 267,-199.5 268.1827,-198.1873 269.4431,-196.96 270.7699,-195.8127"/>
<polygon fill="#191970" stroke="#191970" points="272.8023,-198.6625 279.0143,-190.0799 268.8059,-192.9154 272.8023,-198.6625"/>
</g>
<!-- Node137 -->
<g id="node29" class="node">
<title>Node137</title>
<g id="a_node29"><a xlink:href="classRiver_1_1Solver.html#a8d0a93ada5df466e04ef2eca9a5efe49" target="_top" xlink:title="River::Solver::SetBoundary\lRegionValue">
<polygon fill="#ffffff" stroke="#000000" points="272.5,-121.5 272.5,-151.5 408.5,-151.5 408.5,-121.5 272.5,-121.5"/>
<text text-anchor="start" x="280.5" y="-139.5" font-family="Helvetica,sans-Serif" font-size="10.00" fill="#000000">River::Solver::SetBoundary</text>
<text text-anchor="middle" x="340.5" y="-128.5" font-family="Helvetica,sans-Serif" font-size="10.00" fill="#000000">RegionValue</text>
</a>
</g>
</g>
<!-- Node14&#45;&gt;Node137 -->
<g id="edge28" class="edge">
<title>Node14&#45;&gt;Node137</title>
<path fill="none" stroke="#191970" d="M219.3124,-448.8477C223.655,-446.3349 227.6297,-443.258 231,-439.5 314.1811,-346.7483 188.0943,-257.9151 267,-161.5 267.987,-160.294 269.0348,-159.1459 270.1359,-158.053"/>
<polygon fill="#191970" stroke="#191970" points="272.5245,-160.6225 278.0966,-151.6112 268.1212,-155.1809 272.5245,-160.6225"/>
</g>
<!-- Node138 -->
<g id="node30" class="node">
<title>Node138</title>
<g id="a_node30"><a xlink:href="classRiver_1_1Model.html#a2dce19c362748f76f810de451ec4cb09" target="_top" xlink:title="River::Model::GetZeroIndices">
<polygon fill="#ffffff" stroke="#000000" points="268,-83 268,-102 413,-102 413,-83 268,-83"/>
<text text-anchor="middle" x="340.5" y="-90" font-family="Helvetica,sans-Serif" font-size="10.00" fill="#000000">River::Model::GetZeroIndices</text>
</a>
</g>
</g>
<!-- Node14&#45;&gt;Node138 -->
<g id="edge29" class="edge">
<title>Node14&#45;&gt;Node138</title>
<path fill="none" stroke="#191970" d="M219.3938,-448.92C223.7181,-446.3909 227.6665,-443.2906 231,-439.5 327.8465,-329.3732 171.0096,-222.3738 267,-111.5 268.0244,-110.3167 269.112,-109.2024 270.2546,-108.153"/>
<polygon fill="#191970" stroke="#191970" points="272.4933,-110.8522 278.5092,-102.131 268.3677,-105.1972 272.4933,-110.8522"/>
</g>
<!-- Node139 -->
<g id="node31" class="node">
<title>Node139</title>
<g id="a_node31"><a xlink:href="classRiver_1_1Model.html#ab8e5c29a609f7b5a32f3907c56b2644a" target="_top" xlink:title="River::Model::GetNonZero\lIndices">
<polygon fill="#ffffff" stroke="#000000" points="275,-33.5 275,-63.5 406,-63.5 406,-33.5 275,-33.5"/>
<text text-anchor="start" x="283" y="-51.5" font-family="Helvetica,sans-Serif" font-size="10.00" fill="#000000">River::Model::GetNonZero</text>
<text text-anchor="middle" x="340.5" y="-40.5" font-family="Helvetica,sans-Serif" font-size="10.00" fill="#000000">Indices</text>
</a>
</g>
</g>
<!-- Node14&#45;&gt;Node139 -->
<g id="edge30" class="edge">
<title>Node14&#45;&gt;Node139</title>
<path fill="none" stroke="#191970" d="M219.4413,-448.9615C223.7549,-446.4231 227.6879,-443.3094 231,-439.5 284.6231,-377.8261 216.218,-137.5336 267,-73.5 267.9684,-72.2789 268.9992,-71.1172 270.0849,-70.0119"/>
<polygon fill="#191970" stroke="#191970" points="272.4823,-72.5713 277.9656,-63.5057 268.0257,-67.1732 272.4823,-72.5713"/>
</g>
<!-- Node140 -->
<g id="node32" class="node">
<title>Node140</title>
<g id="a_node32"><a xlink:href="classRiver_1_1Solver.html#ab82147ca4342c3c4d038a17824437a53" target="_top" xlink:title="River::Solver::OpenMesh">
<polygon fill="#ffffff" stroke="#000000" points="277,-753 277,-772 404,-772 404,-753 277,-753"/>
<text text-anchor="middle" x="340.5" y="-760" font-family="Helvetica,sans-Serif" font-size="10.00" fill="#000000">River::Solver::OpenMesh</text>
</a>
</g>
</g>
<!-- Node14&#45;&gt;Node140 -->
<g id="edge31" class="edge">
<title>Node14&#45;&gt;Node140</title>
<path fill="none" stroke="#191970" d="M153.3167,-468.1115C157.2728,-508.4217 178.0716,-665.3664 267,-743.5 268.7698,-745.055 270.6508,-746.4855 272.6189,-747.8012"/>
<polygon fill="#191970" stroke="#191970" points="271.2894,-751.0666 281.7304,-752.8658 274.6903,-744.9482 271.2894,-751.0666"/>
</g>
<!-- Node141 -->
<g id="node33" class="node">
<title>Node141</title>
<g id="a_node33"><a xlink:href="classRiver_1_1Solver.html#a4222fe744d607f870a5d7d22b11e8334" target="_top" xlink:title="River::Solver::run">
<polygon fill="#ffffff" stroke="#ff0000" points="294,-715 294,-734 387,-734 387,-715 294,-715"/>
<text text-anchor="middle" x="340.5" y="-722" font-family="Helvetica,sans-Serif" font-size="10.00" fill="#000000">River::Solver::run</text>
</a>
</g>
</g>
<!-- Node14&#45;&gt;Node141 -->
<g id="edge32" class="edge">
<title>Node14&#45;&gt;Node141</title>
<path fill="none" stroke="#191970" d="M153.9589,-468.0806C160.0975,-504.9707 187.306,-639.0741 267,-705.5 272.1697,-709.809 278.2012,-713.1549 284.5452,-715.7505"/>
<polygon fill="#191970" stroke="#191970" points="283.4046,-719.0594 293.9994,-719.0414 285.7058,-712.4485 283.4046,-719.0594"/>
</g>
<!-- Node148 -->
<g id="node36" class="node">
<title>Node148</title>
<g id="a_node36"><a xlink:href="classRiver_1_1Tree.html#a52cafbadef53e2fe40b26dd1ca5aa350" target="_top" xlink:title="Returns vector of tip branches ids. ">
<polygon fill="#ffffff" stroke="#000000" points="273.5,-677 273.5,-696 407.5,-696 407.5,-677 273.5,-677"/>
<text text-anchor="middle" x="340.5" y="-684" font-family="Helvetica,sans-Serif" font-size="10.00" fill="#000000">River::Tree::TipBranchesId</text>
</a>
</g>
</g>
<!-- Node14&#45;&gt;Node148 -->
<g id="edge35" class="edge">
<title>Node14&#45;&gt;Node148</title>
<path fill="none" stroke="#191970" d="M154.8471,-468.1934C163.4459,-501.5592 196.4722,-612.6174 267,-667.5 269.3404,-669.3212 271.8371,-670.969 274.4446,-672.4599"/>
<polygon fill="#191970" stroke="#191970" points="273.1474,-675.721 283.671,-676.948 276.2095,-669.4262 273.1474,-675.721"/>
</g>
<!-- Node149 -->
<g id="node37" class="node">
<title>Node149</title>
<g id="a_node37"><a xlink:href="classRiver_1_1BranchNew.html#a413cf341c51f3c40648394d78b6bafbc" target="_top" xlink:title="Return TipPoint of branch(last point in branch) ">
<polygon fill="#ffffff" stroke="#000000" points="271,-639 271,-658 410,-658 410,-639 271,-639"/>
<text text-anchor="middle" x="340.5" y="-646" font-family="Helvetica,sans-Serif" font-size="10.00" fill="#000000">River::BranchNew::TipPoint</text>
</a>
</g>
</g>
<!-- Node14&#45;&gt;Node149 -->
<g id="edge37" class="edge">
<title>Node14&#45;&gt;Node149</title>
<path fill="none" stroke="#191970" d="M156.0092,-468.0349C167.2388,-497.1678 205.2163,-585.6835 267,-629.5 269.7414,-631.4442 272.666,-633.1896 275.71,-634.7565"/>
<polygon fill="#191970" stroke="#191970" points="274.5767,-638.0828 285.1367,-638.9421 277.4174,-631.6851 274.5767,-638.0828"/>
</g>
<!-- Node150 -->
<g id="node38" class="node">
<title>Node150</title>
<g id="a_node38"><a xlink:href="classRiver_1_1BranchNew.html#a93139b44ba252c1ea9dfc86edf9c8067" target="_top" xlink:title="Returns angle of tip of branch. ">
<polygon fill="#ffffff" stroke="#000000" points="270,-601 270,-620 411,-620 411,-601 270,-601"/>
<text text-anchor="middle" x="340.5" y="-608" font-family="Helvetica,sans-Serif" font-size="10.00" fill="#000000">River::BranchNew::TipAngle</text>
</a>
</g>
</g>
<!-- Node14&#45;&gt;Node150 -->
<g id="edge38" class="edge">
<title>Node14&#45;&gt;Node150</title>
<path fill="none" stroke="#191970" d="M158.0076,-468.3043C172.4454,-493.0685 213.9643,-558.5083 267,-591.5 270.4273,-593.632 274.0865,-595.5258 277.873,-597.208"/>
<polygon fill="#191970" stroke="#191970" points="276.9,-600.5855 287.4879,-600.9682 279.4496,-594.0663 276.9,-600.5855"/>
</g>
<!-- Node151 -->
<g id="node39" class="node">
<title>Node151</title>
<g id="a_node39"><a xlink:href="classRiver_1_1Solver.html#a66fbdd0a7309f3c278de7e3e46a0fda8" target="_top" xlink:title="River::Solver::integrate">
<polygon fill="#ffffff" stroke="#ff0000" points="282,-563 282,-582 399,-582 399,-563 282,-563"/>
<text text-anchor="middle" x="340.5" y="-570" font-family="Helvetica,sans-Serif" font-size="10.00" fill="#000000">River::Solver::integrate</text>
</a>
</g>
</g>
<!-- Node14&#45;&gt;Node151 -->
<g id="edge39" class="edge">
<title>Node14&#45;&gt;Node151</title>
<path fill="none" stroke="#191970" d="M161.2668,-468.2045C179.1949,-487.4493 222.157,-530.5645 267,-553.5 271.5763,-555.8406 276.4641,-557.909 281.4623,-559.7339"/>
<polygon fill="#191970" stroke="#191970" points="280.5638,-563.1233 291.1572,-562.9505 282.7682,-556.4795 280.5638,-563.1233"/>
</g>
<!-- Node154 -->
<g id="node40" class="node">
<title>Node154</title>
<g id="a_node40"><a xlink:href="classRiver_1_1Model.html#a1dbc3e6176af5470bf3fded3ee725f7b" target="_top" xlink:title="Checks by evaluating series param for growth condition. ">
<polygon fill="#ffffff" stroke="#000000" points="281.5,-525 281.5,-544 399.5,-544 399.5,-525 281.5,-525"/>
<text text-anchor="middle" x="340.5" y="-532" font-family="Helvetica,sans-Serif" font-size="10.00" fill="#000000">River::Model::q_growth</text>
</a>
</g>
</g>
<!-- Node14&#45;&gt;Node154 -->
<g id="edge40" class="edge">
<title>Node14&#45;&gt;Node154</title>
<path fill="none" stroke="#191970" d="M169.0763,-468.1372C190.9161,-480.5074 230.8045,-501.9819 267,-515.5 273.4705,-517.9166 280.372,-520.14 287.2569,-522.148"/>
<polygon fill="#191970" stroke="#191970" points="286.708,-525.6281 297.28,-524.9334 288.5822,-518.8836 286.708,-525.6281"/>
</g>
<!-- Node155 -->
<g id="node41" class="node">
<title>Node155</title>
<g id="a_node41"><a xlink:href="classRiver_1_1Model.html#a13d66be4045b141c13b6e16e472afe44" target="_top" xlink:title="Checks by evaluating series params for biffuraction condition. ">
<polygon fill="#ffffff" stroke="#000000" points="276,-487 276,-506 405,-506 405,-487 276,-487"/>
<text text-anchor="middle" x="340.5" y="-494" font-family="Helvetica,sans-Serif" font-size="10.00" fill="#000000">River::Model::q_biffurcate</text>
</a>
</g>
</g>
<!-- Node14&#45;&gt;Node155 -->
<g id="edge41" class="edge">
<title>Node14&#45;&gt;Node155</title>
<path fill="none" stroke="#191970" d="M199.9403,-468.089C225.3077,-473.2165 256.7274,-479.5672 283.4232,-484.9632"/>
<polygon fill="#191970" stroke="#191970" points="282.9056,-488.4293 293.4008,-486.9799 284.2925,-481.568 282.9056,-488.4293"/>
</g>
<!-- Node156 -->
<g id="node42" class="node">
<title>Node156</title>
<g id="a_node42"><a xlink:href="classRiver_1_1Tree.html#ae42603046cab7443cf549cbfb94c3351" target="_top" xlink:title="Adds Sub Branches left_bracnhs, right_branch to root_branch_id. ">
<polygon fill="#ffffff" stroke="#000000" points="267,-449 267,-468 414,-468 414,-449 267,-449"/>
<text text-anchor="middle" x="340.5" y="-456" font-family="Helvetica,sans-Serif" font-size="10.00" fill="#000000">River::Tree::AddSubBranches</text>
</a>
</g>
</g>
<!-- Node14&#45;&gt;Node156 -->
<g id="edge42" class="edge">
<title>Node14&#45;&gt;Node156</title>
<path fill="none" stroke="#191970" d="M225.1857,-458.5C235.5216,-458.5 246.2204,-458.5 256.7458,-458.5"/>
<polygon fill="#191970" stroke="#191970" points="256.7665,-462.0001 266.7665,-458.5 256.7665,-455.0001 256.7665,-462.0001"/>
</g>
<!-- Node157 -->
<g id="node43" class="node">
<title>Node157</title>
<g id="a_node43"><a xlink:href="classRiver_1_1BranchNew.html#a81a7a1477541ef4310d9e49197643146" target="_top" xlink:title="Adds point p to branch in tip relative coord system. ">
<polygon fill="#ffffff" stroke="#000000" points="269,-411 269,-430 412,-430 412,-411 269,-411"/>
<text text-anchor="middle" x="340.5" y="-418" font-family="Helvetica,sans-Serif" font-size="10.00" fill="#000000">River::BranchNew::AddPoint</text>
</a>
</g>
</g>
<!-- Node14&#45;&gt;Node157 -->
<g id="edge43" class="edge">
<title>Node14&#45;&gt;Node157</title>
<path fill="none" stroke="#191970" d="M199.9403,-448.911C225.3077,-443.7835 256.7274,-437.4328 283.4232,-432.0368"/>
<polygon fill="#191970" stroke="#191970" points="284.2925,-435.432 293.4008,-430.0201 282.9056,-428.5707 284.2925,-435.432"/>
</g>
<!-- Node158 -->
<g id="node44" class="node">
<title>Node158</title>
<g id="a_node44"><a xlink:href="classRiver_1_1Model.html#ad22bc4fecfe36e2cde033df2a5220c07" target="_top" xlink:title="Evaluate next point of simualtion based on series parameters around tip. ">
<polygon fill="#ffffff" stroke="#ff0000" points="292,-361.5 292,-391.5 389,-391.5 389,-361.5 292,-361.5"/>
<text text-anchor="start" x="300" y="-379.5" font-family="Helvetica,sans-Serif" font-size="10.00" fill="#000000">River::Model::next</text>
<text text-anchor="middle" x="340.5" y="-368.5" font-family="Helvetica,sans-Serif" font-size="10.00" fill="#000000">_point</text>
</a>
</g>
</g>
<!-- Node14&#45;&gt;Node158 -->
<g id="edge44" class="edge">
<title>Node14&#45;&gt;Node158</title>
<path fill="none" stroke="#191970" d="M209.3444,-448.9022C216.8969,-446.4463 224.3263,-443.365 231,-439.5 251.1319,-427.8407 247.4154,-414.057 267,-401.5 271.8701,-398.3775 277.1733,-395.5992 282.6274,-393.1376"/>
<polygon fill="#191970" stroke="#191970" points="284.0051,-396.3554 291.8991,-389.2889 281.3213,-389.8903 284.0051,-396.3554"/>
</g>
<!-- Node161 -->
<g id="node45" class="node">
<title>Node161</title>
<g id="a_node45"><a xlink:href="classRiver_1_1Solver.html#aa3edfad041ae11e84fb29720e2eb7b80" target="_top" xlink:title="River::Solver::clear">
<polygon fill="#ffffff" stroke="#000000" points="290,-247 290,-266 391,-266 391,-247 290,-247"/>
<text text-anchor="middle" x="340.5" y="-254" font-family="Helvetica,sans-Serif" font-size="10.00" fill="#000000">River::Solver::clear</text>
</a>
</g>
</g>
<!-- Node14&#45;&gt;Node161 -->
<g id="edge45" class="edge">
<title>Node14&#45;&gt;Node161</title>
<path fill="none" stroke="#191970" d="M218.1889,-448.8887C222.9012,-446.3829 227.2603,-443.2955 231,-439.5 281.8529,-387.8883 218.202,-334.0587 267,-280.5 270.8422,-276.2829 275.4345,-272.8046 280.4218,-269.9359"/>
<polygon fill="#191970" stroke="#191970" points="282.2849,-272.922 289.749,-265.4029 279.225,-266.6261 282.2849,-272.922"/>
</g>
<!-- Node16 -->
<g id="node17" class="node">
<title>Node16</title>
<g id="a_node17"><a xlink:href="classRiver_1_1Border.html#a666af04bf7a9be4fce8dac5fabcd8b31" target="_top" xlink:title="River::Border::SourceByVertice\lIdMap">
<polygon fill="#ffffff" stroke="#000000" points="450,-323.5 450,-353.5 604,-353.5 604,-323.5 450,-323.5"/>
<text text-anchor="start" x="458" y="-341.5" font-family="Helvetica,sans-Serif" font-size="10.00" fill="#000000">River::Border::SourceByVertice</text>
<text text-anchor="middle" x="527" y="-330.5" font-family="Helvetica,sans-Serif" font-size="10.00" fill="#000000">IdMap</text>
</a>
</g>
</g>
<!-- Node15&#45;&gt;Node16 -->
<g id="edge16" class="edge">
<title>Node15&#45;&gt;Node16</title>
<path fill="none" stroke="#191970" d="M405.7286,-334.5985C416.7777,-334.954 428.4054,-335.3281 439.9075,-335.6981"/>
<polygon fill="#191970" stroke="#191970" points="439.8581,-339.1982 449.9655,-336.0217 440.0833,-332.2018 439.8581,-339.1982"/>
</g>
<!-- Node17 -->
<g id="node18" class="node">
<title>Node17</title>
<g id="a_node18"><a xlink:href="namespaceRiver.html#ace7057edc24ee07f8265dad28b73a41a" target="_top" xlink:title="Generates trees boundary. ">
<polygon fill="#ffffff" stroke="#ff0000" points="480,-500 480,-519 574,-519 574,-500 480,-500"/>
<text text-anchor="middle" x="527" y="-507" font-family="Helvetica,sans-Serif" font-size="10.00" fill="#000000">River::TreeVector</text>
</a>
</g>
</g>
<!-- Node15&#45;&gt;Node17 -->
<g id="edge17" class="edge">
<title>Node15&#45;&gt;Node17</title>
<path fill="none" stroke="#191970" d="M395.3692,-342.0789C401.9614,-344.5354 408.3492,-347.622 414,-351.5 466.6898,-387.6598 503.2901,-456.8569 518.7511,-490.3705"/>
<polygon fill="#191970" stroke="#191970" points="515.7413,-492.2134 523.0217,-499.9106 522.1304,-489.3533 515.7413,-492.2134"/>
</g>
<!-- Node17&#45;&gt;Node18 -->
<g id="edge18" class="edge">
<title>Node17&#45;&gt;Node18</title>
<path fill="none" stroke="#191970" d="M574.3846,-509.5C594.8837,-509.5 619.282,-509.5 641.7492,-509.5"/>
<polygon fill="#191970" stroke="#191970" points="641.9151,-513.0001 651.9151,-509.5 641.915,-506.0001 641.9151,-513.0001"/>
</g>
<!-- Node20 -->
<g id="node20" class="node">
<title>Node20</title>
<g id="a_node20"><a xlink:href="classRiver_1_1BranchNew.html#a1e3a5b41f9e8e0a0336ad298cf4de281" target="_top" xlink:title="Returns i&#45;th point vector. ">
<polygon fill="#ffffff" stroke="#000000" points="640.5,-671 640.5,-690 781.5,-690 781.5,-671 640.5,-671"/>
<text text-anchor="middle" x="711" y="-678" font-family="Helvetica,sans-Serif" font-size="10.00" fill="#000000">River::BranchNew::GetPoint</text>
</a>
</g>
</g>
<!-- Node17&#45;&gt;Node20 -->
<g id="edge19" class="edge">
<title>Node17&#45;&gt;Node20</title>
<path fill="none" stroke="#191970" d="M537.4198,-519.1837C567.5287,-547.1653 654.9186,-628.3809 692.9569,-663.7317"/>
<polygon fill="#191970" stroke="#191970" points="690.9867,-666.6788 700.6944,-670.9226 695.752,-661.5512 690.9867,-666.6788"/>
</g>
<!-- Node30 -->
<g id="node23" class="node">
<title>Node30</title>
<g id="a_node23"><a xlink:href="classRiver_1_1Triangle.html#af65f8816f88a34c015cd5ca66aca1aef" target="_top" xlink:title="o2 &#45; generates second order mesh ">
<polygon fill="#ffffff" stroke="#ff0000" points="470.5,-49.5 470.5,-79.5 583.5,-79.5 583.5,-49.5 470.5,-49.5"/>
<text text-anchor="start" x="478.5" y="-67.5" font-family="Helvetica,sans-Serif" font-size="10.00" fill="#000000">River::Triangle::set</text>
<text text-anchor="middle" x="527" y="-56.5" font-family="Helvetica,sans-Serif" font-size="10.00" fill="#000000">_all_values_to_default</text>
</a>
</g>
</g>
<!-- Node29&#45;&gt;Node30 -->
<g id="edge22" class="edge">
<title>Node29&#45;&gt;Node30</title>
<path fill="none" stroke="#191970" d="M396.0008,-170.9429C402.4898,-168.2711 408.6807,-164.8582 414,-160.5 441.6745,-137.8257 422.7436,-111.6751 450,-88.5 453.4536,-85.5635 457.2652,-82.9859 461.289,-80.7234"/>
<polygon fill="#191970" stroke="#191970" points="462.9484,-83.8078 470.3801,-76.2566 459.8615,-77.5251 462.9484,-83.8078"/>
</g>
<!-- Node33 -->
<g id="node24" class="node">
<title>Node33</title>
<g id="a_node24"><a xlink:href="classRiver_1_1Triangle.html#aef5e3aa8a5f87ca8557c1a0886b925c3" target="_top" xlink:title="Converts tethex::Mesh to triangulateio used by Triangle. ">
<polygon fill="#ffffff" stroke="#ff0000" points="470.5,-.5 470.5,-30.5 583.5,-30.5 583.5,-.5 470.5,-.5"/>
<text text-anchor="start" x="478.5" y="-18.5" font-family="Helvetica,sans-Serif" font-size="10.00" fill="#000000">River::Triangle::tethex</text>
<text text-anchor="middle" x="527" y="-7.5" font-family="Helvetica,sans-Serif" font-size="10.00" fill="#000000">_to_io</text>
</a>
</g>
</g>
<!-- Node29&#45;&gt;Node33 -->
<g id="edge23" class="edge">
<title>Node29&#45;&gt;Node33</title>
<path fill="none" stroke="#191970" d="M398.5866,-170.959C404.2625,-168.2655 409.5537,-164.843 414,-160.5 454.1375,-121.295 410.584,-79.4303 450,-39.5 453.3875,-36.0683 457.2571,-33.1255 461.4176,-30.6023"/>
<polygon fill="#191970" stroke="#191970" points="463.0415,-33.7028 470.3053,-25.9899 459.8171,-27.4897 463.0415,-33.7028"/>
</g>
<!-- Node34 -->
<g id="node25" class="node">
<title>Node34</title>
<g id="a_node25"><a xlink:href="classRiver_1_1Triangle.html#ab4a007be4739f8e3781b190f5c6c0b09" target="_top" xlink:title="Outputs to consloe geometry. ">
<polygon fill="#ffffff" stroke="#000000" points="474.5,-235.5 474.5,-265.5 579.5,-265.5 579.5,-235.5 474.5,-235.5"/>
<text text-anchor="start" x="482.5" y="-253.5" font-family="Helvetica,sans-Serif" font-size="10.00" fill="#000000">River::Triangle::print</text>
<text text-anchor="middle" x="527" y="-242.5" font-family="Helvetica,sans-Serif" font-size="10.00" fill="#000000">_geometry</text>
</a>
</g>
</g>
<!-- Node29&#45;&gt;Node34 -->
<g id="edge24" class="edge">
<title>Node29&#45;&gt;Node34</title>
<path fill="none" stroke="#191970" d="M388.0733,-190.0244C396.9001,-192.5618 405.8884,-195.6889 414,-199.5 431.8632,-207.8927 432.401,-216.5667 450,-225.5 454.7781,-227.9254 459.8409,-230.1829 464.9975,-232.2686"/>
<polygon fill="#191970" stroke="#191970" points="463.7489,-235.5383 474.3395,-235.8367 466.2465,-228.999 463.7489,-235.5383"/>
</g>
<!-- Node35 -->
<g id="node26" class="node">
<title>Node35</title>
<g id="a_node26"><a xlink:href="triangle_8cpp.html#a2437307f91cae6cb54bd21bdfc561597" target="_top" xlink:title="Call Triangle. ">
<polygon fill="#ffffff" stroke="#ff0000" points="496,-197 496,-216 558,-216 558,-197 496,-197"/>
<text text-anchor="middle" x="527" y="-204" font-family="Helvetica,sans-Serif" font-size="10.00" fill="#000000">triangulate</text>
</a>
</g>
</g>
<!-- Node29&#45;&gt;Node35 -->
<g id="edge25" class="edge">
<title>Node29&#45;&gt;Node35</title>
<path fill="none" stroke="#191970" d="M402.6018,-189.1576C429.9535,-192.9707 461.3444,-197.3469 485.7499,-200.7493"/>
<polygon fill="#191970" stroke="#191970" points="485.3621,-204.229 495.7496,-202.1434 486.3287,-197.2961 485.3621,-204.229"/>
</g>
<!-- Node131 -->
<g id="node27" class="node">
<title>Node131</title>
<g id="a_node27"><a xlink:href="classRiver_1_1Triangle.html#ace837080fe12b6a062b3256288885d74" target="_top" xlink:title="Converts triangulateio to tethex::Mesh used by rest of program. ">
<polygon fill="#ffffff" stroke="#ff0000" points="480,-147.5 480,-177.5 574,-177.5 574,-147.5 480,-147.5"/>
<text text-anchor="start" x="488" y="-165.5" font-family="Helvetica,sans-Serif" font-size="10.00" fill="#000000">River::Triangle::io</text>
<text text-anchor="middle" x="527" y="-154.5" font-family="Helvetica,sans-Serif" font-size="10.00" fill="#000000">_to_tethex</text>
</a>
</g>
</g>
<!-- Node29&#45;&gt;Node131 -->
<g id="edge26" class="edge">
<title>Node29&#45;&gt;Node131</title>
<path fill="none" stroke="#191970" d="M402.6018,-174.5063C424.2745,-172.4145 448.4833,-170.078 469.7435,-168.0261"/>
<polygon fill="#191970" stroke="#191970" points="470.3019,-171.4886 479.9194,-167.044 469.6293,-164.5209 470.3019,-171.4886"/>
</g>
<!-- Node135 -->
<g id="node28" class="node">
<title>Node135</title>
<g id="a_node28"><a xlink:href="classRiver_1_1Triangle.html#a3f7788026746dcc85d607cfe375b7d20" target="_top" xlink:title="Freeups allocated memory for interface variables(in, out, vorout). ">
<polygon fill="#ffffff" stroke="#ff0000" points="475.5,-98.5 475.5,-128.5 578.5,-128.5 578.5,-98.5 475.5,-98.5"/>
<text text-anchor="start" x="483.5" y="-116.5" font-family="Helvetica,sans-Serif" font-size="10.00" fill="#000000">River::Triangle::free</text>
<text text-anchor="middle" x="527" y="-105.5" font-family="Helvetica,sans-Serif" font-size="10.00" fill="#000000">_allocated_memory</text>
</a>
</g>
</g>
<!-- Node29&#45;&gt;Node135 -->
<g id="edge27" class="edge">
<title>Node29&#45;&gt;Node135</title>
<path fill="none" stroke="#191970" d="M384.0099,-170.9994C394.0621,-168.1677 404.5693,-164.6787 414,-160.5 431.3589,-152.8083 432.7842,-145.5069 450,-137.5 454.9992,-135.1749 460.2821,-132.9973 465.6433,-130.9768"/>
<polygon fill="#191970" stroke="#191970" points="467.0959,-134.1745 475.3334,-127.5116 464.7388,-127.5832 467.0959,-134.1745"/>
</g>
<!-- Node142 -->
<g id="node34" class="node">
<title>Node142</title>
<g id="a_node34"><a xlink:href="classRiver_1_1Solver.html#a01eb2f2d7229b100f6da98420be1449f" target="_top" xlink:title="River::Solver::refine_grid">
<polygon fill="#ffffff" stroke="#ff0000" points="464.5,-715 464.5,-734 589.5,-734 589.5,-715 464.5,-715"/>
<text text-anchor="middle" x="527" y="-722" font-family="Helvetica,sans-Serif" font-size="10.00" fill="#000000">River::Solver::refine_grid</text>
</a>
</g>
</g>
<!-- Node141&#45;&gt;Node142 -->
<g id="edge33" class="edge">
<title>Node141&#45;&gt;Node142</title>
<path fill="none" stroke="#191970" d="M387.0807,-724.5C407.3836,-724.5 431.6632,-724.5 454.2537,-724.5"/>
<polygon fill="#191970" stroke="#191970" points="454.494,-728.0001 464.494,-724.5 454.4939,-721.0001 454.494,-728.0001"/>
</g>
<!-- Node143 -->
<g id="node35" class="node">
<title>Node143</title>
<g id="a_node35"><a xlink:href="classRiver_1_1Solver.html#adba0a10f694b0193b449efc4c68d7418" target="_top" xlink:title="River::Solver::setup\l_system">
<polygon fill="#ffffff" stroke="#000000" points="475,-665.5 475,-695.5 579,-695.5 579,-665.5 475,-665.5"/>
<text text-anchor="start" x="483" y="-683.5" font-family="Helvetica,sans-Serif" font-size="10.00" fill="#000000">River::Solver::setup</text>
<text text-anchor="middle" x="527" y="-672.5" font-family="Helvetica,sans-Serif" font-size="10.00" fill="#000000">_system</text>
</a>
</g>
</g>
<!-- Node141&#45;&gt;Node143 -->
<g id="edge34" class="edge">
<title>Node141&#45;&gt;Node143</title>
<path fill="none" stroke="#191970" d="M380.9677,-714.9527C405.489,-709.1675 437.2711,-701.6693 464.9213,-695.1459"/>
<polygon fill="#191970" stroke="#191970" points="465.9711,-698.4944 474.9002,-692.7916 464.3637,-691.6814 465.9711,-698.4944"/>
</g>
<!-- Node163&#45;&gt;Node18 -->
<g id="edge48" class="edge">
<title>Node163&#45;&gt;Node18</title>
<path fill="none" stroke="#191970" d="M561.0925,-760.715C575.6972,-758.3935 592.095,-753.5176 604,-743.5 634.4547,-717.8737 623.5766,-697.7556 640,-661.5 661.8355,-613.2971 688.4395,-556.9529 702.0449,-528.3032"/>
<polygon fill="#191970" stroke="#191970" points="705.3031,-529.6015 706.4365,-519.0674 698.9814,-526.5955 705.3031,-529.6015"/>
</g>
<!-- Node163&#45;&gt;Node20 -->
<g id="edge49" class="edge">
<title>Node163&#45;&gt;Node20</title>
<path fill="none" stroke="#191970" d="M561.179,-758.3691C575.1447,-755.6158 591.0294,-751.0505 604,-743.5 624.1059,-731.7959 620.4828,-718.1615 640,-705.5 647.2495,-700.797 655.4909,-696.8556 663.7282,-693.5961"/>
<polygon fill="#191970" stroke="#191970" points="665.1494,-696.8031 673.3365,-690.0783 662.7427,-690.2298 665.1494,-696.8031"/>
</g>
<!-- Node164 -->
<g id="node48" class="node">
<title>Node164</title>
<g id="a_node48"><a xlink:href="classRiver_1_1Timing.html#ac94f6acea587dab9bf4e67c99c50f055" target="_top" xlink:title="Return date of object creation string. ">
<polygon fill="#ffffff" stroke="#000000" points="640,-791 640,-810 782,-810 782,-791 640,-791"/>
<text text-anchor="middle" x="711" y="-798" font-family="Helvetica,sans-Serif" font-size="10.00" fill="#000000">River::Timing::CreationtDate</text>
</a>
</g>
</g>
<!-- Node163&#45;&gt;Node164 -->
<g id="edge50" class="edge">
<title>Node163&#45;&gt;Node164</title>
<path fill="none" stroke="#191970" d="M561.1778,-769.5585C587.4157,-774.9771 624.2055,-782.575 654.7618,-788.8856"/>
<polygon fill="#191970" stroke="#191970" points="654.36,-792.3764 664.8612,-790.9713 655.7758,-785.5211 654.36,-792.3764"/>
</g>
<!-- Node165 -->
<g id="node49" class="node">
<title>Node165</title>
<g id="a_node49"><a xlink:href="classRiver_1_1Timing.html#a61d2ccfb0de1fb6a620de06dc54083ce" target="_top" xlink:title="Return current date string. ">
<polygon fill="#ffffff" stroke="#000000" points="644,-753 644,-772 778,-772 778,-753 644,-753"/>
<text text-anchor="middle" x="711" y="-760" font-family="Helvetica,sans-Serif" font-size="10.00" fill="#000000">River::Timing::CurrentDate</text>
</a>
</g>
</g>
<!-- Node163&#45;&gt;Node165 -->
<g id="edge51" class="edge">
<title>Node163&#45;&gt;Node165</title>
<path fill="none" stroke="#191970" d="M561.1778,-762.5C581.5474,-762.5 608.2767,-762.5 633.5117,-762.5"/>
<polygon fill="#191970" stroke="#191970" points="633.8366,-766.0001 643.8365,-762.5 633.8365,-759.0001 633.8366,-766.0001"/>
</g>
<!-- Node166 -->
<g id="node50" class="node">
<title>Node166</title>
<g id="a_node50"><a xlink:href="classRiver_1_1Timing.html#a2c916dfa64e1c281447643d01c78e673" target="_top" xlink:title="Return total time of simmulation. ">
<polygon fill="#ffffff" stroke="#000000" points="659.5,-715 659.5,-734 762.5,-734 762.5,-715 659.5,-715"/>
<text text-anchor="middle" x="711" y="-722" font-family="Helvetica,sans-Serif" font-size="10.00" fill="#000000">River::Timing::Total</text>
</a>
</g>
</g>
<!-- Node163&#45;&gt;Node166 -->
<g id="edge52" class="edge">
<title>Node163&#45;&gt;Node166</title>
<path fill="none" stroke="#191970" d="M561.1778,-755.4415C587.4157,-750.0229 624.2055,-742.425 654.7618,-736.1144"/>
<polygon fill="#191970" stroke="#191970" points="655.7758,-739.4789 664.8612,-734.0287 654.36,-732.6236 655.7758,-739.4789"/>
</g>
</g>
</svg>
