<?xml version="1.0" encoding="UTF-8" standalone="no"?>
<!DOCTYPE svg PUBLIC "-//W3C//DTD SVG 1.1//EN"
 "http://www.w3.org/Graphics/SVG/1.1/DTD/svg11.dtd">
<!-- Generated by graphviz version 2.40.1 (20161225.0304)
 -->
<!-- Title: main Pages: 1 -->
<svg width="431pt" height="843pt"
 viewBox="0.00 0.00 431.00 842.50" xmlns="http://www.w3.org/2000/svg" xmlns:xlink="http://www.w3.org/1999/xlink">
<g id="graph0" class="graph" transform="scale(1 1) rotate(0) translate(4 838.5)">
<title>main</title>
<polygon fill="#ffffff" stroke="transparent" points="-4,4 -4,-838.5 427,-838.5 427,4 -4,4"/>
<!-- Node0 -->
<g id="node1" class="node">
<title>Node0</title>
<polygon fill="#bfbfbf" stroke="#000000" points="0,-396.5 0,-415.5 41,-415.5 41,-396.5 0,-396.5"/>
<text text-anchor="middle" x="20.5" y="-403.5" font-family="Helvetica,sans-Serif" font-size="10.00" fill="#000000">main</text>
</g>
<!-- Node1 -->
<g id="node2" class="node">
<title>Node1</title>
<g id="a_node2"><a xlink:href="namespaceRiver.html#affa8f88114842f27d0a7b829d69120cf" target="_top" xlink:title="Processing of program options. ">
<polygon fill="#ffffff" stroke="#000000" points="96,-804 96,-834 228,-834 228,-804 96,-804"/>
<text text-anchor="start" x="104" y="-822" font-family="Helvetica,sans-Serif" font-size="10.00" fill="#000000">River::process_program</text>
<text text-anchor="middle" x="162" y="-811" font-family="Helvetica,sans-Serif" font-size="10.00" fill="#000000">_options</text>
</a>
</g>
</g>
<!-- Node0&#45;&gt;Node1 -->
<g id="edge1" class="edge">
<title>Node0&#45;&gt;Node1</title>
<path fill="none" stroke="#191970" d="M21.2678,-415.5571C25.9213,-472.4794 51.0156,-765.3689 77,-795 79.9003,-798.3074 83.218,-801.1748 86.8231,-803.6595"/>
<polygon fill="#191970" stroke="#191970" points="85.2864,-806.8139 95.6954,-808.7892 88.7901,-800.7538 85.2864,-806.8139"/>
</g>
<!-- Node2 -->
<g id="node3" class="node">
<title>Node2</title>
<g id="a_node3"><a xlink:href="namespaceRiver.html#a02a7bd977ae572b7b678c2b9585a2320" target="_top" xlink:title="Prints to console program logo. ">
<polygon fill="#ffffff" stroke="#000000" points="113,-755 113,-785 211,-785 211,-755 113,-755"/>
<text text-anchor="start" x="121" y="-773" font-family="Helvetica,sans-Serif" font-size="10.00" fill="#000000">River::print_ascii</text>
<text text-anchor="middle" x="162" y="-762" font-family="Helvetica,sans-Serif" font-size="10.00" fill="#000000">_signature</text>
</a>
</g>
</g>
<!-- Node0&#45;&gt;Node2 -->
<g id="edge2" class="edge">
<title>Node0&#45;&gt;Node2</title>
<path fill="none" stroke="#191970" d="M20.7715,-415.7802C22.3593,-465.9673 31.9957,-694.1969 77,-745 83.9565,-752.8529 93.2396,-758.2959 103.1157,-762.0558"/>
<polygon fill="#191970" stroke="#191970" points="102.1176,-765.4115 112.7097,-765.1686 104.278,-758.7532 102.1176,-765.4115"/>
</g>
<!-- Node3 -->
<g id="node4" class="node">
<title>Node3</title>
<g id="a_node4"><a xlink:href="namespaceRiver.html#adc14507125d8c05e31b884f0ed16408a" target="_top" xlink:title="Opens state of program from json file which includes Geometry(Tree, Border) and current model paramet...">
<polygon fill="#ffffff" stroke="#000000" points="125,-716.5 125,-735.5 199,-735.5 199,-716.5 125,-716.5"/>
<text text-anchor="middle" x="162" y="-723.5" font-family="Helvetica,sans-Serif" font-size="10.00" fill="#000000">River::Open</text>
</a>
</g>
</g>
<!-- Node0&#45;&gt;Node3 -->
<g id="edge3" class="edge">
<title>Node0&#45;&gt;Node3</title>
<path fill="none" stroke="#191970" d="M20.9259,-415.6519C23.1816,-462.2864 35.2521,-663.7922 77,-707 86.8921,-717.2381 101.0047,-722.5155 114.8956,-725.0962"/>
<polygon fill="#191970" stroke="#191970" points="114.5121,-728.577 124.9076,-726.5312 115.5053,-721.6478 114.5121,-728.577"/>
</g>
<!-- Node4 -->
<g id="node5" class="node">
<title>Node4</title>
<g id="a_node5"><a xlink:href="namespaceRiver.html#a258a7b67f297e975438b5b805cc0a932" target="_top" xlink:title="Initializes River::Model object by Program Options values. ">
<polygon fill="#ffffff" stroke="#000000" points="79.5,-667 79.5,-697 244.5,-697 244.5,-667 79.5,-667"/>
<text text-anchor="start" x="87.5" y="-685" font-family="Helvetica,sans-Serif" font-size="10.00" fill="#000000">River::SetupModelParamsFrom</text>
<text text-anchor="middle" x="162" y="-674" font-family="Helvetica,sans-Serif" font-size="10.00" fill="#000000">ProgramOptions</text>
</a>
</g>
</g>
<!-- Node0&#45;&gt;Node4 -->
<g id="edge4" class="edge">
<title>Node0&#45;&gt;Node4</title>
<path fill="none" stroke="#191970" d="M21.3766,-415.6258C25.3465,-457.1722 42.9401,-620.664 77,-657 78.2295,-658.3116 79.5238,-659.5556 80.8746,-660.7354"/>
<polygon fill="#191970" stroke="#191970" points="79.034,-663.7257 89.1688,-666.8141 83.172,-658.0797 79.034,-663.7257"/>
</g>
<!-- Node5 -->
<g id="node6" class="node">
<title>Node5</title>
<g id="a_node6"><a xlink:href="classRiver_1_1Border.html#a2991738514d55e3cc4c29de1c8de2875" target="_top" xlink:title="Initializes Border::borderMesh object of type tethex::Mesh by setting lines and vertices to rectangul...">
<polygon fill="#ffffff" stroke="#000000" points="77,-628.5 77,-647.5 247,-647.5 247,-628.5 77,-628.5"/>
<text text-anchor="middle" x="162" y="-635.5" font-family="Helvetica,sans-Serif" font-size="10.00" fill="#000000">River::Border::MakeRectangular</text>
</a>
</g>
</g>
<!-- Node0&#45;&gt;Node5 -->
<g id="edge5" class="edge">
<title>Node0&#45;&gt;Node5</title>
<path fill="none" stroke="#191970" d="M21.7379,-415.7215C26.7408,-453.4911 46.6622,-589.8338 77,-619 78.4716,-620.4148 80.0243,-621.7331 81.6456,-622.9614"/>
<polygon fill="#191970" stroke="#191970" points="79.9357,-626.0206 90.2644,-628.3802 83.6615,-620.0945 79.9357,-626.0206"/>
</g>
<!-- Node6 -->
<g id="node7" class="node">
<title>Node6</title>
<g id="a_node7"><a xlink:href="classRiver_1_1Tree.html#ac64a5af7aa738e977d9f866c77de9151" target="_top" xlink:title="Initialize tree with source points vector source_point and source angle vector source_angle. ">
<polygon fill="#ffffff" stroke="#000000" points="104,-590.5 104,-609.5 220,-609.5 220,-590.5 104,-590.5"/>
<text text-anchor="middle" x="162" y="-597.5" font-family="Helvetica,sans-Serif" font-size="10.00" fill="#000000">River::Tree::Initialize</text>
</a>
</g>
</g>
<!-- Node0&#45;&gt;Node6 -->
<g id="edge6" class="edge">
<title>Node0&#45;&gt;Node6</title>
<path fill="none" stroke="#191970" d="M22.3408,-415.7809C28.8141,-449.1558 51.519,-557.7705 77,-581 82.0303,-585.5858 87.9197,-589.1464 94.2107,-591.9004"/>
<polygon fill="#191970" stroke="#191970" points="93.0682,-595.2094 103.6616,-595.3838 95.4891,-588.6413 93.0682,-595.2094"/>
</g>
<!-- Node7 -->
<g id="node8" class="node">
<title>Node7</title>
<g id="a_node8"><a xlink:href="classRiver_1_1Border.html#abae9be0f9977226e62349b1ce48af3d4" target="_top" xlink:title="Returns vector of sources points(both source point is merged into one). ">
<polygon fill="#ffffff" stroke="#000000" points="91,-541 91,-571 233,-571 233,-541 91,-541"/>
<text text-anchor="start" x="99" y="-559" font-family="Helvetica,sans-Serif" font-size="10.00" fill="#000000">River::Border::GetSources</text>
<text text-anchor="middle" x="162" y="-548" font-family="Helvetica,sans-Serif" font-size="10.00" fill="#000000">Point</text>
</a>
</g>
</g>
<!-- Node0&#45;&gt;Node7 -->
<g id="edge7" class="edge">
<title>Node0&#45;&gt;Node7</title>
<path fill="none" stroke="#191970" d="M21.9645,-415.5281C26.0836,-439.0046 39.9825,-500.0389 77,-532 78.5669,-533.3528 80.2048,-534.6297 81.9021,-535.8349"/>
<polygon fill="#191970" stroke="#191970" points="80.4683,-539.0602 90.8273,-541.2832 84.1155,-533.0855 80.4683,-539.0602"/>
</g>
<!-- Node8 -->
<g id="node9" class="node">
<title>Node8</title>
<g id="a_node9"><a xlink:href="classRiver_1_1Border.html#a3ce119f75991242a2c45ab8b612f2c7d" target="_top" xlink:title="Returns vector of all nolrmall angles. ">
<polygon fill="#ffffff" stroke="#000000" points="91,-492 91,-522 233,-522 233,-492 91,-492"/>
<text text-anchor="start" x="99" y="-510" font-family="Helvetica,sans-Serif" font-size="10.00" fill="#000000">River::Border::GetSources</text>
<text text-anchor="middle" x="162" y="-499" font-family="Helvetica,sans-Serif" font-size="10.00" fill="#000000">NormalAngle</text>
</a>
</g>
</g>
<!-- Node0&#45;&gt;Node8 -->
<g id="edge8" class="edge">
<title>Node0&#45;&gt;Node8</title>
<path fill="none" stroke="#191970" d="M25.1043,-415.7554C33.2566,-431.9697 51.7786,-464.4179 77,-482 79.8628,-483.9957 82.8858,-485.834 86.0181,-487.5272"/>
<polygon fill="#191970" stroke="#191970" points="84.5673,-490.7134 95.0926,-491.9247 87.6199,-484.4141 84.5673,-490.7134"/>
</g>
<!-- Node9 -->
<g id="node10" class="node">
<title>Node9</title>
<g id="a_node10"><a xlink:href="classRiver_1_1Border.html#a0a82c0c07921c917f79bccb0e0d6ab73" target="_top" xlink:title="Returns vector of sources ids. ">
<polygon fill="#ffffff" stroke="#000000" points="86.5,-453.5 86.5,-472.5 237.5,-472.5 237.5,-453.5 86.5,-453.5"/>
<text text-anchor="middle" x="162" y="-460.5" font-family="Helvetica,sans-Serif" font-size="10.00" fill="#000000">River::Border::GetSourcesId</text>
</a>
</g>
</g>
<!-- Node0&#45;&gt;Node9 -->
<g id="edge9" class="edge">
<title>Node0&#45;&gt;Node9</title>
<path fill="none" stroke="#191970" d="M31.8729,-415.5312C42.7835,-424.1993 60.058,-436.717 77,-444 82.8346,-446.5082 89.0426,-448.7048 95.3445,-450.6245"/>
<polygon fill="#191970" stroke="#191970" points="94.7105,-454.0819 105.2845,-453.4183 96.6046,-447.343 94.7105,-454.0819"/>
</g>
<!-- Node10 -->
<g id="node11" class="node">
<title>Node10</title>
<g id="a_node11"><a xlink:href="classRiver_1_1Tree.html#a63aa7ffb3b7d1200e86296b1adf1f683" target="_top" xlink:title="Return vector of source branches ids. ">
<polygon fill="#ffffff" stroke="#000000" points="80.5,-415.5 80.5,-434.5 243.5,-434.5 243.5,-415.5 80.5,-415.5"/>
<text text-anchor="middle" x="162" y="-422.5" font-family="Helvetica,sans-Serif" font-size="10.00" fill="#000000">River::Tree::SourceBranchesID</text>
</a>
</g>
</g>
<!-- Node0&#45;&gt;Node10 -->
<g id="edge10" class="edge">
<title>Node0&#45;&gt;Node10</title>
<path fill="none" stroke="#191970" d="M41.0753,-408.7628C51.974,-410.2262 66.1453,-412.1291 80.9312,-414.1144"/>
<polygon fill="#191970" stroke="#191970" points="80.8561,-417.6357 91.233,-415.4977 81.7878,-410.698 80.8561,-417.6357"/>
</g>
<!-- Node11 -->
<g id="node12" class="node">
<title>Node11</title>
<g id="a_node12"><a xlink:href="namespaceRiver.html#ae8ae64b84b5c3a881b66a7c3249c443e" target="_top" xlink:title="Prints logs depending of log configuration(quiet or verbose) ">
<polygon fill="#ffffff" stroke="#000000" points="126.5,-377.5 126.5,-396.5 197.5,-396.5 197.5,-377.5 126.5,-377.5"/>
<text text-anchor="middle" x="162" y="-384.5" font-family="Helvetica,sans-Serif" font-size="10.00" fill="#000000">River::print</text>
</a>
</g>
</g>
<!-- Node0&#45;&gt;Node11 -->
<g id="edge11" class="edge">
<title>Node0&#45;&gt;Node11</title>
<path fill="none" stroke="#191970" d="M41.0753,-403.2372C60.6794,-400.6049 90.8726,-396.5507 116.1837,-393.152"/>
<polygon fill="#191970" stroke="#191970" points="116.8819,-396.5898 126.3271,-391.79 115.9503,-389.652 116.8819,-396.5898"/>
</g>
<!-- Node12 -->
<g id="node13" class="node">
<title>Node12</title>
<g id="a_node13"><a xlink:href="namespaceRiver.html#a9bf171a0fdf0f067f322d323d8bf0689" target="_top" xlink:title="River::StopConditionOfRiver\lGrowth">
<polygon fill="#ffffff" stroke="#000000" points="85.5,-328 85.5,-358 238.5,-358 238.5,-328 85.5,-328"/>
<text text-anchor="start" x="93.5" y="-346" font-family="Helvetica,sans-Serif" font-size="10.00" fill="#000000">River::StopConditionOfRiver</text>
<text text-anchor="middle" x="162" y="-335" font-family="Helvetica,sans-Serif" font-size="10.00" fill="#000000">Growth</text>
</a>
</g>
</g>
<!-- Node0&#45;&gt;Node12 -->
<g id="edge12" class="edge">
<title>Node0&#45;&gt;Node12</title>
<path fill="none" stroke="#191970" d="M32.4132,-396.395C43.4231,-387.9181 60.5221,-375.7386 77,-368 81.9601,-365.6706 87.1857,-363.5053 92.507,-361.5037"/>
<polygon fill="#191970" stroke="#191970" points="93.9005,-364.723 102.1518,-358.0773 91.5571,-358.1269 93.9005,-364.723"/>
</g>
<!-- Node13 -->
<g id="node14" class="node">
<title>Node13</title>
<g id="a_node14"><a xlink:href="namespaceRiver.html#ad8226306180d0a1ef887903a5256ff62" target="_top" xlink:title="River::ForwardRiverEvolution">
<polygon fill="#ffffff" stroke="#000000" points="83,-289.5 83,-308.5 241,-308.5 241,-289.5 83,-289.5"/>
<text text-anchor="middle" x="162" y="-296.5" font-family="Helvetica,sans-Serif" font-size="10.00" fill="#000000">River::ForwardRiverEvolution</text>
</a>
</g>
</g>
<!-- Node0&#45;&gt;Node13 -->
<g id="edge13" class="edge">
<title>Node0&#45;&gt;Node13</title>
<path fill="none" stroke="#191970" d="M23.9156,-396.4197C30.8934,-378.2906 48.5689,-338.9964 77,-319 80.4875,-316.5471 84.2347,-314.3918 88.1423,-312.4983"/>
<polygon fill="#191970" stroke="#191970" points="89.6582,-315.6574 97.5049,-308.5383 86.9313,-309.2103 89.6582,-315.6574"/>
</g>
<!-- Node14 -->
<g id="node15" class="node">
<title>Node14</title>
<g id="a_node15"><a xlink:href="classRiver_1_1Timing.html#a76bca6a0cc2ad229073240917e0a9e7d" target="_top" xlink:title="Returns elapsed time from last Record() call and saves it into vector. ">
<polygon fill="#ffffff" stroke="#000000" points="101.5,-251.5 101.5,-270.5 222.5,-270.5 222.5,-251.5 101.5,-251.5"/>
<text text-anchor="middle" x="162" y="-258.5" font-family="Helvetica,sans-Serif" font-size="10.00" fill="#000000">River::Timing::Record</text>
</a>
</g>
</g>
<!-- Node0&#45;&gt;Node14 -->
<g id="edge14" class="edge">
<title>Node0&#45;&gt;Node14</title>
<path fill="none" stroke="#191970" d="M21.8569,-396.3438C25.7305,-372.5749 39.1135,-310.926 77,-280 81.3928,-276.4143 86.3225,-273.4714 91.5376,-271.0599"/>
<polygon fill="#191970" stroke="#191970" points="93.1529,-274.1856 101.1787,-267.2691 90.5914,-267.6711 93.1529,-274.1856"/>
</g>
<!-- Node15 -->
<g id="node16" class="node">
<title>Node15</title>
<g id="a_node16"><a xlink:href="namespaceRiver.html#a4eed247d78b015bf1e1565effc34eb49" target="_top" xlink:title="Save current state of program which includes Geometry(Tree, Border), current model parameters(Model) ...">
<polygon fill="#ffffff" stroke="#000000" points="126,-213.5 126,-232.5 198,-232.5 198,-213.5 126,-213.5"/>
<text text-anchor="middle" x="162" y="-220.5" font-family="Helvetica,sans-Serif" font-size="10.00" fill="#000000">River::Save</text>
</a>
</g>
</g>
<!-- Node0&#45;&gt;Node15 -->
<g id="edge15" class="edge">
<title>Node0&#45;&gt;Node15</title>
<path fill="none" stroke="#191970" d="M22.5263,-396.3879C29.4176,-364.5863 52.8649,-263.5758 77,-242 87.6136,-232.5119 101.917,-227.4328 115.7607,-224.8031"/>
<polygon fill="#191970" stroke="#191970" points="116.3397,-228.2554 125.7005,-223.2931 115.2883,-221.3348 116.3397,-228.2554"/>
</g>
<!-- Node16 -->
<g id="node17" class="node">
<title>Node16</title>
<g id="a_node17"><a xlink:href="classRiver_1_1Tree.html#a29e2a140f15398b9976e5ca63f1489ea" target="_top" xlink:title="Checks if tree has non zero sized branches. ">
<polygon fill="#ffffff" stroke="#000000" points="83,-164 83,-194 241,-194 241,-164 83,-164"/>
<text text-anchor="start" x="91" y="-182" font-family="Helvetica,sans-Serif" font-size="10.00" fill="#000000">River::Tree::HasEmptySource</text>
<text text-anchor="middle" x="162" y="-171" font-family="Helvetica,sans-Serif" font-size="10.00" fill="#000000">Branch</text>
</a>
</g>
</g>
<!-- Node0&#45;&gt;Node16 -->
<g id="edge16" class="edge">
<title>Node0&#45;&gt;Node16</title>
<path fill="none" stroke="#191970" d="M21.9444,-396.3395C27.5559,-360.0335 48.9926,-232.3829 77,-204 78.418,-202.563 79.9141,-201.2076 81.4764,-199.9292"/>
<polygon fill="#191970" stroke="#191970" points="83.5692,-202.7371 89.7864,-194.1582 79.5763,-196.9876 83.5692,-202.7371"/>
</g>
<!-- Node18 -->
<g id="node19" class="node">
<title>Node18</title>
<g id="a_node19"><a xlink:href="namespaceRiver.html#a7c6d73dce07d3b452acb0987a0e68dc6" target="_top" xlink:title="One step of backward river evolution and its data. ">
<polygon fill="#ffffff" stroke="#000000" points="81.5,-115 81.5,-145 242.5,-145 242.5,-115 81.5,-115"/>
<text text-anchor="start" x="89.5" y="-133" font-family="Helvetica,sans-Serif" font-size="10.00" fill="#000000">River::BackwardForwardRiver</text>
<text text-anchor="middle" x="162" y="-122" font-family="Helvetica,sans-Serif" font-size="10.00" fill="#000000">Evolution</text>
</a>
</g>
</g>
<!-- Node0&#45;&gt;Node18 -->
<g id="edge18" class="edge">
<title>Node0&#45;&gt;Node18</title>
<path fill="none" stroke="#191970" d="M21.3766,-396.3742C25.3465,-354.8278 42.9401,-191.336 77,-155 78.2295,-153.6884 79.5238,-152.4444 80.8746,-151.2646"/>
<polygon fill="#191970" stroke="#191970" points="83.172,-153.9203 89.1688,-145.1859 79.034,-148.2743 83.172,-153.9203"/>
</g>
<!-- Node19 -->
<g id="node20" class="node">
<title>Node19</title>
<g id="a_node20"><a xlink:href="classRiver_1_1Tree.html#a2b44fafee44da5af9bebfeb00f49fe49" target="_top" xlink:title="Returns link to branch with id. ">
<polygon fill="#ffffff" stroke="#000000" points="99.5,-76.5 99.5,-95.5 224.5,-95.5 224.5,-76.5 99.5,-76.5"/>
<text text-anchor="middle" x="162" y="-83.5" font-family="Helvetica,sans-Serif" font-size="10.00" fill="#000000">River::Tree::GetBranch</text>
</a>
</g>
</g>
<!-- Node0&#45;&gt;Node19 -->
<g id="edge19" class="edge">
<title>Node0&#45;&gt;Node19</title>
<path fill="none" stroke="#191970" d="M20.9408,-396.3894C23.2665,-349.9531 35.6143,-149.2885 77,-106 80.8631,-101.9593 85.3769,-98.6677 90.2738,-95.9932"/>
<polygon fill="#191970" stroke="#191970" points="91.7939,-99.1469 99.4441,-91.8172 88.8928,-92.7763 91.7939,-99.1469"/>
</g>
<!-- Node20 -->
<g id="node21" class="node">
<title>Node20</title>
<g id="a_node21"><a xlink:href="classRiver_1_1Branch.html#a81a7a1477541ef4310d9e49197643146" target="_top" xlink:title="Adds point p to branch in tip relative coord system. ">
<polygon fill="#ffffff" stroke="#000000" points="86,-38.5 86,-57.5 238,-57.5 238,-38.5 86,-38.5"/>
<text text-anchor="middle" x="162" y="-45.5" font-family="Helvetica,sans-Serif" font-size="10.00" fill="#000000">River::Branch::AddPoint</text>
</a>
</g>
</g>
<!-- Node0&#45;&gt;Node20 -->
<g id="edge20" class="edge">
<title>Node0&#45;&gt;Node20</title>
<path fill="none" stroke="#191970" d="M20.7016,-396.4936C21.9543,-346.7045 30.238,-116.3957 77,-67 78.215,-65.7166 79.4962,-64.5108 80.835,-63.3781"/>
<polygon fill="#191970" stroke="#191970" points="82.8537,-66.2375 89.0736,-57.6606 78.8627,-60.4867 82.8537,-66.2375"/>
</g>
<!-- Node21 -->
<g id="node22" class="node">
<title>Node21</title>
<g id="a_node22"><a xlink:href="namespaceRiver.html#a1e1c04daa35decf9aafdada0fc881449" target="_top" xlink:title="Evaluate series parameters near tip in predefined geometry. Used fot testing purposes. ">
<polygon fill="#ffffff" stroke="#000000" points="83.5,-.5 83.5,-19.5 240.5,-19.5 240.5,-.5 83.5,-.5"/>
<text text-anchor="middle" x="162" y="-7.5" font-family="Helvetica,sans-Serif" font-size="10.00" fill="#000000">River::EvaluateSeriesParams</text>
</a>
</g>
</g>
<!-- Node0&#45;&gt;Node21 -->
<g id="edge21" class="edge">
<title>Node0&#45;&gt;Node21</title>
<path fill="none" stroke="#191970" d="M21.2965,-396.3541C26.0174,-340.1952 51.0089,-56.9095 77,-29 78.2044,-27.7067 79.476,-26.4919 80.8062,-25.3511"/>
<polygon fill="#191970" stroke="#191970" points="82.831,-28.206 89.0043,-19.5955 78.8088,-22.4769 82.831,-28.206"/>
</g>
<!-- Node17 -->
<g id="node18" class="node">
<title>Node17</title>
<g id="a_node18"><a xlink:href="classRiver_1_1Branch.html#a44a9acda7bceb1f22c70f0532f4e890e" target="_top" xlink:title="Checks if branch is empyt &#45; but it never should. ">
<polygon fill="#ffffff" stroke="#000000" points="283,-169.5 283,-188.5 423,-188.5 423,-169.5 283,-169.5"/>
<text text-anchor="middle" x="353" y="-176.5" font-family="Helvetica,sans-Serif" font-size="10.00" fill="#000000">River::Branch::Empty</text>
</a>
</g>
</g>
<!-- Node16&#45;&gt;Node17 -->
<g id="edge17" class="edge">
<title>Node16&#45;&gt;Node17</title>
<path fill="none" stroke="#191970" d="M241.0657,-179C251.4568,-179 262.1155,-179 272.5295,-179"/>
<polygon fill="#191970" stroke="#191970" points="272.8432,-182.5001 282.8431,-179 272.8431,-175.5001 272.8432,-182.5001"/>
</g>
</g>
</svg>
