<?xml version="1.0" encoding="UTF-8" standalone="no"?>
<!DOCTYPE svg PUBLIC "-//W3C//DTD SVG 1.1//EN"
 "http://www.w3.org/Graphics/SVG/1.1/DTD/svg11.dtd">
<!-- Generated by graphviz version 2.40.1 (20161225.0304)
 -->
<!-- Title: main Pages: 1 -->
<svg width="431pt" height="832pt"
 viewBox="0.00 0.00 431.00 831.50" xmlns="http://www.w3.org/2000/svg" xmlns:xlink="http://www.w3.org/1999/xlink">
<g id="graph0" class="graph" transform="scale(1 1) rotate(0) translate(4 827.5)">
<title>main</title>
<polygon fill="#ffffff" stroke="transparent" points="-4,4 -4,-827.5 427,-827.5 427,4 -4,4"/>
<!-- Node0 -->
<g id="node1" class="node">
<title>Node0</title>
<polygon fill="#bfbfbf" stroke="#000000" points="0,-385.5 0,-404.5 41,-404.5 41,-385.5 0,-385.5"/>
<text text-anchor="middle" x="20.5" y="-392.5" font-family="Helvetica,sans-Serif" font-size="10.00" fill="#000000">main</text>
</g>
<!-- Node1 -->
<g id="node2" class="node">
<title>Node1</title>
<g id="a_node2"><a xlink:href="namespaceRiver.html#affa8f88114842f27d0a7b829d69120cf" target="_top" xlink:title="Processing of program options. ">
<polygon fill="#ffffff" stroke="#000000" points="96,-793 96,-823 228,-823 228,-793 96,-793"/>
<text text-anchor="start" x="104" y="-811" font-family="Helvetica,sans-Serif" font-size="10.00" fill="#000000">River::process_program</text>
<text text-anchor="middle" x="162" y="-800" font-family="Helvetica,sans-Serif" font-size="10.00" fill="#000000">_options</text>
</a>
</g>
</g>
<!-- Node0&#45;&gt;Node1 -->
<g id="edge1" class="edge">
<title>Node0&#45;&gt;Node1</title>
<path fill="none" stroke="#191970" d="M21.2678,-404.5571C25.9213,-461.4794 51.0156,-754.3689 77,-784 79.9003,-787.3074 83.218,-790.1748 86.8231,-792.6595"/>
<polygon fill="#191970" stroke="#191970" points="85.2864,-795.8139 95.6954,-797.7892 88.7901,-789.7538 85.2864,-795.8139"/>
</g>
<!-- Node2 -->
<g id="node3" class="node">
<title>Node2</title>
<g id="a_node3"><a xlink:href="namespaceRiver.html#a02a7bd977ae572b7b678c2b9585a2320" target="_top" xlink:title="Prints to console program logo. ">
<polygon fill="#ffffff" stroke="#000000" points="113,-744 113,-774 211,-774 211,-744 113,-744"/>
<text text-anchor="start" x="121" y="-762" font-family="Helvetica,sans-Serif" font-size="10.00" fill="#000000">River::print_ascii</text>
<text text-anchor="middle" x="162" y="-751" font-family="Helvetica,sans-Serif" font-size="10.00" fill="#000000">_signature</text>
</a>
</g>
</g>
<!-- Node0&#45;&gt;Node2 -->
<g id="edge2" class="edge">
<title>Node0&#45;&gt;Node2</title>
<path fill="none" stroke="#191970" d="M20.7715,-404.7802C22.3593,-454.9673 31.9957,-683.1969 77,-734 83.9565,-741.8529 93.2396,-747.2959 103.1157,-751.0558"/>
<polygon fill="#191970" stroke="#191970" points="102.1176,-754.4115 112.7097,-754.1686 104.278,-747.7532 102.1176,-754.4115"/>
</g>
<!-- Node3 -->
<g id="node4" class="node">
<title>Node3</title>
<g id="a_node4"><a xlink:href="namespaceRiver.html#adc14507125d8c05e31b884f0ed16408a" target="_top" xlink:title="Opens state of program from json file which includes Geometry(Tree, Border) and current model paramet...">
<polygon fill="#ffffff" stroke="#000000" points="125,-705.5 125,-724.5 199,-724.5 199,-705.5 125,-705.5"/>
<text text-anchor="middle" x="162" y="-712.5" font-family="Helvetica,sans-Serif" font-size="10.00" fill="#000000">River::Open</text>
</a>
</g>
</g>
<!-- Node0&#45;&gt;Node3 -->
<g id="edge3" class="edge">
<title>Node0&#45;&gt;Node3</title>
<path fill="none" stroke="#191970" d="M20.9259,-404.6519C23.1816,-451.2864 35.2521,-652.7922 77,-696 86.8921,-706.2381 101.0047,-711.5155 114.8956,-714.0962"/>
<polygon fill="#191970" stroke="#191970" points="114.5121,-717.577 124.9076,-715.5312 115.5053,-710.6478 114.5121,-717.577"/>
</g>
<!-- Node4 -->
<g id="node5" class="node">
<title>Node4</title>
<g id="a_node5"><a xlink:href="namespaceRiver.html#a258a7b67f297e975438b5b805cc0a932" target="_top" xlink:title="Initializes River::Model object by Program Options values. ">
<polygon fill="#ffffff" stroke="#000000" points="79.5,-656 79.5,-686 244.5,-686 244.5,-656 79.5,-656"/>
<text text-anchor="start" x="87.5" y="-674" font-family="Helvetica,sans-Serif" font-size="10.00" fill="#000000">River::SetupModelParamsFrom</text>
<text text-anchor="middle" x="162" y="-663" font-family="Helvetica,sans-Serif" font-size="10.00" fill="#000000">ProgramOptions</text>
</a>
</g>
</g>
<!-- Node0&#45;&gt;Node4 -->
<g id="edge4" class="edge">
<title>Node0&#45;&gt;Node4</title>
<path fill="none" stroke="#191970" d="M21.3766,-404.6258C25.3465,-446.1722 42.9401,-609.664 77,-646 78.2295,-647.3116 79.5238,-648.5556 80.8746,-649.7354"/>
<polygon fill="#191970" stroke="#191970" points="79.034,-652.7257 89.1688,-655.8141 83.172,-647.0797 79.034,-652.7257"/>
</g>
<!-- Node5 -->
<g id="node6" class="node">
<title>Node5</title>
<g id="a_node6"><a xlink:href="classRiver_1_1Border.html#a2991738514d55e3cc4c29de1c8de2875" target="_top" xlink:title="Initializes Border::borderMesh object of type tethex::Mesh by setting lines and vertices to rectangul...">
<polygon fill="#ffffff" stroke="#000000" points="77,-617.5 77,-636.5 247,-636.5 247,-617.5 77,-617.5"/>
<text text-anchor="middle" x="162" y="-624.5" font-family="Helvetica,sans-Serif" font-size="10.00" fill="#000000">River::Border::MakeRectangular</text>
</a>
</g>
</g>
<!-- Node0&#45;&gt;Node5 -->
<g id="edge5" class="edge">
<title>Node0&#45;&gt;Node5</title>
<path fill="none" stroke="#191970" d="M21.7379,-404.7215C26.7408,-442.4911 46.6622,-578.8338 77,-608 78.4716,-609.4148 80.0243,-610.7331 81.6456,-611.9614"/>
<polygon fill="#191970" stroke="#191970" points="79.9357,-615.0206 90.2644,-617.3802 83.6615,-609.0945 79.9357,-615.0206"/>
</g>
<!-- Node6 -->
<g id="node7" class="node">
<title>Node6</title>
<g id="a_node7"><a xlink:href="classRiver_1_1Tree.html#ac64a5af7aa738e977d9f866c77de9151" target="_top" xlink:title="Initialize tree with source points vector source_point and source angle vector source_angle. ">
<polygon fill="#ffffff" stroke="#000000" points="104,-579.5 104,-598.5 220,-598.5 220,-579.5 104,-579.5"/>
<text text-anchor="middle" x="162" y="-586.5" font-family="Helvetica,sans-Serif" font-size="10.00" fill="#000000">River::Tree::Initialize</text>
</a>
</g>
</g>
<!-- Node0&#45;&gt;Node6 -->
<g id="edge6" class="edge">
<title>Node0&#45;&gt;Node6</title>
<path fill="none" stroke="#191970" d="M22.3408,-404.7809C28.8141,-438.1558 51.519,-546.7705 77,-570 82.0303,-574.5858 87.9197,-578.1464 94.2107,-580.9004"/>
<polygon fill="#191970" stroke="#191970" points="93.0682,-584.2094 103.6616,-584.3838 95.4891,-577.6413 93.0682,-584.2094"/>
</g>
<!-- Node7 -->
<g id="node8" class="node">
<title>Node7</title>
<g id="a_node8"><a xlink:href="classRiver_1_1Border.html#abae9be0f9977226e62349b1ce48af3d4" target="_top" xlink:title="Returns vector of sources points(both source point is merged into one). ">
<polygon fill="#ffffff" stroke="#000000" points="91,-530 91,-560 233,-560 233,-530 91,-530"/>
<text text-anchor="start" x="99" y="-548" font-family="Helvetica,sans-Serif" font-size="10.00" fill="#000000">River::Border::GetSources</text>
<text text-anchor="middle" x="162" y="-537" font-family="Helvetica,sans-Serif" font-size="10.00" fill="#000000">Point</text>
</a>
</g>
</g>
<!-- Node0&#45;&gt;Node7 -->
<g id="edge7" class="edge">
<title>Node0&#45;&gt;Node7</title>
<path fill="none" stroke="#191970" d="M21.9645,-404.5281C26.0836,-428.0046 39.9825,-489.0389 77,-521 78.5669,-522.3528 80.2048,-523.6297 81.9021,-524.8349"/>
<polygon fill="#191970" stroke="#191970" points="80.4683,-528.0602 90.8273,-530.2832 84.1155,-522.0855 80.4683,-528.0602"/>
</g>
<!-- Node8 -->
<g id="node9" class="node">
<title>Node8</title>
<g id="a_node9"><a xlink:href="classRiver_1_1Border.html#a3ce119f75991242a2c45ab8b612f2c7d" target="_top" xlink:title="Returns vector of all nolrmall angles. ">
<polygon fill="#ffffff" stroke="#000000" points="91,-481 91,-511 233,-511 233,-481 91,-481"/>
<text text-anchor="start" x="99" y="-499" font-family="Helvetica,sans-Serif" font-size="10.00" fill="#000000">River::Border::GetSources</text>
<text text-anchor="middle" x="162" y="-488" font-family="Helvetica,sans-Serif" font-size="10.00" fill="#000000">NormalAngle</text>
</a>
</g>
</g>
<!-- Node0&#45;&gt;Node8 -->
<g id="edge8" class="edge">
<title>Node0&#45;&gt;Node8</title>
<path fill="none" stroke="#191970" d="M25.1043,-404.7554C33.2566,-420.9697 51.7786,-453.4179 77,-471 79.8628,-472.9957 82.8858,-474.834 86.0181,-476.5272"/>
<polygon fill="#191970" stroke="#191970" points="84.5673,-479.7134 95.0926,-480.9247 87.6199,-473.4141 84.5673,-479.7134"/>
</g>
<!-- Node9 -->
<g id="node10" class="node">
<title>Node9</title>
<g id="a_node10"><a xlink:href="classRiver_1_1Border.html#a0a82c0c07921c917f79bccb0e0d6ab73" target="_top" xlink:title="Returns vector of sources ids. ">
<polygon fill="#ffffff" stroke="#000000" points="86.5,-442.5 86.5,-461.5 237.5,-461.5 237.5,-442.5 86.5,-442.5"/>
<text text-anchor="middle" x="162" y="-449.5" font-family="Helvetica,sans-Serif" font-size="10.00" fill="#000000">River::Border::GetSourcesId</text>
</a>
</g>
</g>
<!-- Node0&#45;&gt;Node9 -->
<g id="edge9" class="edge">
<title>Node0&#45;&gt;Node9</title>
<path fill="none" stroke="#191970" d="M31.8729,-404.5312C42.7835,-413.1993 60.058,-425.717 77,-433 82.8346,-435.5082 89.0426,-437.7048 95.3445,-439.6245"/>
<polygon fill="#191970" stroke="#191970" points="94.7105,-443.0819 105.2845,-442.4183 96.6046,-436.343 94.7105,-443.0819"/>
</g>
<!-- Node10 -->
<g id="node11" class="node">
<title>Node10</title>
<g id="a_node11"><a xlink:href="classRiver_1_1Tree.html#a63aa7ffb3b7d1200e86296b1adf1f683" target="_top" xlink:title="Return vector of source branches ids. ">
<polygon fill="#ffffff" stroke="#000000" points="80.5,-404.5 80.5,-423.5 243.5,-423.5 243.5,-404.5 80.5,-404.5"/>
<text text-anchor="middle" x="162" y="-411.5" font-family="Helvetica,sans-Serif" font-size="10.00" fill="#000000">River::Tree::SourceBranchesID</text>
</a>
</g>
</g>
<!-- Node0&#45;&gt;Node10 -->
<g id="edge10" class="edge">
<title>Node0&#45;&gt;Node10</title>
<path fill="none" stroke="#191970" d="M41.0753,-397.7628C51.974,-399.2262 66.1453,-401.1291 80.9312,-403.1144"/>
<polygon fill="#191970" stroke="#191970" points="80.8561,-406.6357 91.233,-404.4977 81.7878,-399.698 80.8561,-406.6357"/>
</g>
<!-- Node11 -->
<g id="node12" class="node">
<title>Node11</title>
<g id="a_node12"><a xlink:href="namespaceRiver.html#ae8ae64b84b5c3a881b66a7c3249c443e" target="_top" xlink:title="Prints logs depending of log configuration(quiet or verbose) ">
<polygon fill="#ffffff" stroke="#000000" points="126.5,-366.5 126.5,-385.5 197.5,-385.5 197.5,-366.5 126.5,-366.5"/>
<text text-anchor="middle" x="162" y="-373.5" font-family="Helvetica,sans-Serif" font-size="10.00" fill="#000000">River::print</text>
</a>
</g>
</g>
<!-- Node0&#45;&gt;Node11 -->
<g id="edge11" class="edge">
<title>Node0&#45;&gt;Node11</title>
<path fill="none" stroke="#191970" d="M41.0753,-392.2372C60.6794,-389.6049 90.8726,-385.5507 116.1837,-382.152"/>
<polygon fill="#191970" stroke="#191970" points="116.8819,-385.5898 126.3271,-380.79 115.9503,-378.652 116.8819,-385.5898"/>
</g>
<!-- Node12 -->
<g id="node13" class="node">
<title>Node12</title>
<g id="a_node13"><a xlink:href="namespaceRiver.html#a1fcca8a68f29561ee4ee16fe4f9ee800" target="_top" xlink:title="River::StopConditionOfRiver\lGrowth">
<polygon fill="#ffffff" stroke="#000000" points="85.5,-317 85.5,-347 238.5,-347 238.5,-317 85.5,-317"/>
<text text-anchor="start" x="93.5" y="-335" font-family="Helvetica,sans-Serif" font-size="10.00" fill="#000000">River::StopConditionOfRiver</text>
<text text-anchor="middle" x="162" y="-324" font-family="Helvetica,sans-Serif" font-size="10.00" fill="#000000">Growth</text>
</a>
</g>
</g>
<!-- Node0&#45;&gt;Node12 -->
<g id="edge12" class="edge">
<title>Node0&#45;&gt;Node12</title>
<path fill="none" stroke="#191970" d="M32.4132,-385.395C43.4231,-376.9181 60.5221,-364.7386 77,-357 81.9601,-354.6706 87.1857,-352.5053 92.507,-350.5037"/>
<polygon fill="#191970" stroke="#191970" points="93.9005,-353.723 102.1518,-347.0773 91.5571,-347.1269 93.9005,-353.723"/>
</g>
<!-- Node13 -->
<g id="node14" class="node">
<title>Node13</title>
<g id="a_node14"><a xlink:href="namespaceRiver.html#a628abeeaf9de09e675031bd19c00a9a8" target="_top" xlink:title="River::ForwardRiverEvolution">
<polygon fill="#ffffff" stroke="#000000" points="83,-278.5 83,-297.5 241,-297.5 241,-278.5 83,-278.5"/>
<text text-anchor="middle" x="162" y="-285.5" font-family="Helvetica,sans-Serif" font-size="10.00" fill="#000000">River::ForwardRiverEvolution</text>
</a>
</g>
</g>
<!-- Node0&#45;&gt;Node13 -->
<g id="edge13" class="edge">
<title>Node0&#45;&gt;Node13</title>
<path fill="none" stroke="#191970" d="M23.9156,-385.4197C30.8934,-367.2906 48.5689,-327.9964 77,-308 80.4875,-305.5471 84.2347,-303.3918 88.1423,-301.4983"/>
<polygon fill="#191970" stroke="#191970" points="89.6582,-304.6574 97.5049,-297.5383 86.9313,-298.2103 89.6582,-304.6574"/>
</g>
<!-- Node14 -->
<g id="node15" class="node">
<title>Node14</title>
<g id="a_node15"><a xlink:href="classRiver_1_1Timing.html#a76bca6a0cc2ad229073240917e0a9e7d" target="_top" xlink:title="Returns elapsed time from last Record() call and saves it into vector. ">
<polygon fill="#ffffff" stroke="#000000" points="101.5,-240.5 101.5,-259.5 222.5,-259.5 222.5,-240.5 101.5,-240.5"/>
<text text-anchor="middle" x="162" y="-247.5" font-family="Helvetica,sans-Serif" font-size="10.00" fill="#000000">River::Timing::Record</text>
</a>
</g>
</g>
<!-- Node0&#45;&gt;Node14 -->
<g id="edge14" class="edge">
<title>Node0&#45;&gt;Node14</title>
<path fill="none" stroke="#191970" d="M21.8569,-385.3438C25.7305,-361.5749 39.1135,-299.926 77,-269 81.3928,-265.4143 86.3225,-262.4714 91.5376,-260.0599"/>
<polygon fill="#191970" stroke="#191970" points="93.1529,-263.1856 101.1787,-256.2691 90.5914,-256.6711 93.1529,-263.1856"/>
</g>
<!-- Node15 -->
<g id="node16" class="node">
<title>Node15</title>
<g id="a_node16"><a xlink:href="namespaceRiver.html#a4eed247d78b015bf1e1565effc34eb49" target="_top" xlink:title="Save current state of program which includes Geometry(Tree, Border), current model parameters(Model) ...">
<polygon fill="#ffffff" stroke="#000000" points="126,-202.5 126,-221.5 198,-221.5 198,-202.5 126,-202.5"/>
<text text-anchor="middle" x="162" y="-209.5" font-family="Helvetica,sans-Serif" font-size="10.00" fill="#000000">River::Save</text>
</a>
</g>
</g>
<!-- Node0&#45;&gt;Node15 -->
<g id="edge15" class="edge">
<title>Node0&#45;&gt;Node15</title>
<path fill="none" stroke="#191970" d="M22.5263,-385.3879C29.4176,-353.5863 52.8649,-252.5758 77,-231 87.6136,-221.5119 101.917,-216.4328 115.7607,-213.8031"/>
<polygon fill="#191970" stroke="#191970" points="116.3397,-217.2554 125.7005,-212.2931 115.2883,-210.3348 116.3397,-217.2554"/>
</g>
<!-- Node16 -->
<g id="node17" class="node">
<title>Node16</title>
<g id="a_node17"><a xlink:href="classRiver_1_1Tree.html#a29e2a140f15398b9976e5ca63f1489ea" target="_top" xlink:title="Checks if tree has non zero sized branches. ">
<polygon fill="#ffffff" stroke="#000000" points="83,-153 83,-183 241,-183 241,-153 83,-153"/>
<text text-anchor="start" x="91" y="-171" font-family="Helvetica,sans-Serif" font-size="10.00" fill="#000000">River::Tree::HasEmptySource</text>
<text text-anchor="middle" x="162" y="-160" font-family="Helvetica,sans-Serif" font-size="10.00" fill="#000000">Branch</text>
</a>
</g>
</g>
<!-- Node0&#45;&gt;Node16 -->
<g id="edge16" class="edge">
<title>Node0&#45;&gt;Node16</title>
<path fill="none" stroke="#191970" d="M21.9444,-385.3395C27.5559,-349.0335 48.9926,-221.3829 77,-193 78.418,-191.563 79.9141,-190.2076 81.4764,-188.9292"/>
<polygon fill="#191970" stroke="#191970" points="83.5692,-191.7371 89.7864,-183.1582 79.5763,-185.9876 83.5692,-191.7371"/>
</g>
<!-- Node18 -->
<g id="node19" class="node">
<title>Node18</title>
<g id="a_node19"><a xlink:href="namespaceRiver.html#a63fe11502bc46f6a4dae0ea79be90eec" target="_top" xlink:title="One step of backward river evolution and its data. ">
<polygon fill="#ffffff" stroke="#000000" points="78.5,-114.5 78.5,-133.5 245.5,-133.5 245.5,-114.5 78.5,-114.5"/>
<text text-anchor="middle" x="162" y="-121.5" font-family="Helvetica,sans-Serif" font-size="10.00" fill="#000000">River::BackwardRiverEvolution</text>
</a>
</g>
</g>
<!-- Node0&#45;&gt;Node18 -->
<g id="edge18" class="edge">
<title>Node0&#45;&gt;Node18</title>
<path fill="none" stroke="#191970" d="M21.3275,-385.3269C25.0924,-343.5829 41.9545,-179.3864 77,-144 78.6902,-142.2934 80.4967,-140.7214 82.3987,-139.274"/>
<polygon fill="#191970" stroke="#191970" points="84.6777,-141.9758 91.2851,-133.6937 80.9551,-136.0477 84.6777,-141.9758"/>
</g>
<!-- Node19 -->
<g id="node20" class="node">
<title>Node19</title>
<g id="a_node20"><a xlink:href="classRiver_1_1Tree.html#a2b44fafee44da5af9bebfeb00f49fe49" target="_top" xlink:title="Returns link to branch with id. ">
<polygon fill="#ffffff" stroke="#000000" points="99.5,-76.5 99.5,-95.5 224.5,-95.5 224.5,-76.5 99.5,-76.5"/>
<text text-anchor="middle" x="162" y="-83.5" font-family="Helvetica,sans-Serif" font-size="10.00" fill="#000000">River::Tree::GetBranch</text>
</a>
</g>
</g>
<!-- Node0&#45;&gt;Node19 -->
<g id="edge19" class="edge">
<title>Node0&#45;&gt;Node19</title>
<path fill="none" stroke="#191970" d="M20.9975,-385.3969C23.5514,-339.8923 36.6714,-146.453 77,-105 80.7267,-101.1694 85.0446,-98.0343 89.7194,-95.4757"/>
<polygon fill="#191970" stroke="#191970" points="91.421,-98.5474 99.0875,-91.2348 88.5341,-92.1704 91.421,-98.5474"/>
</g>
<!-- Node20 -->
<g id="node21" class="node">
<title>Node20</title>
<g id="a_node21"><a xlink:href="classRiver_1_1BranchNew.html#a81a7a1477541ef4310d9e49197643146" target="_top" xlink:title="Adds point p to branch in tip relative coord system. ">
<polygon fill="#ffffff" stroke="#000000" points="86,-38.5 86,-57.5 238,-57.5 238,-38.5 86,-38.5"/>
<text text-anchor="middle" x="162" y="-45.5" font-family="Helvetica,sans-Serif" font-size="10.00" fill="#000000">River::BranchNew::AddPoint</text>
</a>
</g>
</g>
<!-- Node0&#45;&gt;Node20 -->
<g id="edge20" class="edge">
<title>Node0&#45;&gt;Node20</title>
<path fill="none" stroke="#191970" d="M20.7599,-385.4797C22.2898,-336.6344 31.6835,-114.6091 77,-67 78.2185,-65.7199 79.5028,-64.5171 80.8445,-63.3872"/>
<polygon fill="#191970" stroke="#191970" points="82.8612,-66.248 89.0965,-57.6823 78.8805,-60.49 82.8612,-66.248"/>
</g>
<!-- Node21 -->
<g id="node22" class="node">
<title>Node21</title>
<g id="a_node22"><a xlink:href="namespaceRiver.html#a1e1c04daa35decf9aafdada0fc881449" target="_top" xlink:title="Evaluate series parameters near tip in predefined geometry. Used fot testing purposes. ">
<polygon fill="#ffffff" stroke="#000000" points="83.5,-.5 83.5,-19.5 240.5,-19.5 240.5,-.5 83.5,-.5"/>
<text text-anchor="middle" x="162" y="-7.5" font-family="Helvetica,sans-Serif" font-size="10.00" fill="#000000">River::EvaluateSeriesParams</text>
</a>
</g>
</g>
<!-- Node0&#45;&gt;Node21 -->
<g id="edge21" class="edge">
<title>Node0&#45;&gt;Node21</title>
<path fill="none" stroke="#191970" d="M20.5747,-385.4391C21.1816,-333.2088 26.711,-82.7632 77,-29 78.2073,-27.7093 79.4815,-26.4969 80.814,-25.3583"/>
<polygon fill="#191970" stroke="#191970" points="82.8371,-28.2144 89.023,-19.6129 78.8233,-22.4795 82.8371,-28.2144"/>
</g>
<!-- Node17 -->
<g id="node18" class="node">
<title>Node17</title>
<g id="a_node18"><a xlink:href="classRiver_1_1BranchNew.html#a44a9acda7bceb1f22c70f0532f4e890e" target="_top" xlink:title="Checks if branch is empyt &#45; but it never should. ">
<polygon fill="#ffffff" stroke="#000000" points="283,-158.5 283,-177.5 423,-177.5 423,-158.5 283,-158.5"/>
<text text-anchor="middle" x="353" y="-165.5" font-family="Helvetica,sans-Serif" font-size="10.00" fill="#000000">River::BranchNew::Empty</text>
</a>
</g>
</g>
<!-- Node16&#45;&gt;Node17 -->
<g id="edge17" class="edge">
<title>Node16&#45;&gt;Node17</title>
<path fill="none" stroke="#191970" d="M241.0657,-168C251.4568,-168 262.1155,-168 272.5295,-168"/>
<polygon fill="#191970" stroke="#191970" points="272.8432,-171.5001 282.8431,-168 272.8431,-164.5001 272.8432,-171.5001"/>
</g>
</g>
</svg>
