<?xml version="1.0" encoding="UTF-8" standalone="no"?>
<!DOCTYPE svg PUBLIC "-//W3C//DTD SVG 1.1//EN"
 "http://www.w3.org/Graphics/SVG/1.1/DTD/svg11.dtd">
<!-- Generated by graphviz version 2.40.1 (20161225.0304)
 -->
<!-- Title: /home/oleg/Dev/riversim/source/river/mesh.cpp Pages: 1 -->
<svg width="637pt" height="319pt"
 viewBox="0.00 0.00 637.12 319.00" xmlns="http://www.w3.org/2000/svg" xmlns:xlink="http://www.w3.org/1999/xlink">
<g id="graph0" class="graph" transform="scale(1 1) rotate(0) translate(4 315)">
<title>/home/oleg/Dev/riversim/source/river/mesh.cpp</title>
<polygon fill="#ffffff" stroke="transparent" points="-4,4 -4,-315 633.1189,-315 633.1189,4 -4,4"/>
<!-- Node0 -->
<g id="node1" class="node">
<title>Node0</title>
<polygon fill="#bfbfbf" stroke="#000000" points="371.6189,-280.5 371.6189,-310.5 494.6189,-310.5 494.6189,-280.5 371.6189,-280.5"/>
<text text-anchor="start" x="379.6189" y="-298.5" font-family="Helvetica,sans-Serif" font-size="10.00" fill="#000000">/home/oleg/Dev/riversim</text>
<text text-anchor="middle" x="433.1189" y="-287.5" font-family="Helvetica,sans-Serif" font-size="10.00" fill="#000000">/source/river/mesh.cpp</text>
</g>
<!-- Node1 -->
<g id="node2" class="node">
<title>Node1</title>
<g id="a_node2"><a xlink:href="mesh_8hpp.html" target="_top" xlink:title="Wrappers class of Triangle. ">
<polygon fill="#ffffff" stroke="#000000" points="403.6189,-224.5 403.6189,-243.5 462.6189,-243.5 462.6189,-224.5 403.6189,-224.5"/>
<text text-anchor="middle" x="433.1189" y="-231.5" font-family="Helvetica,sans-Serif" font-size="10.00" fill="#000000">mesh.hpp</text>
</a>
</g>
</g>
<!-- Node0&#45;&gt;Node1 -->
<g id="edge1" class="edge">
<title>Node0&#45;&gt;Node1</title>
<path fill="none" stroke="#191970" d="M433.1189,-280.2977C433.1189,-272.3834 433.1189,-262.6043 433.1189,-254.0759"/>
<polygon fill="#191970" stroke="#191970" points="436.619,-253.8469 433.1189,-243.8469 429.619,-253.847 436.619,-253.8469"/>
</g>
<!-- Node2 -->
<g id="node3" class="node">
<title>Node2</title>
<polygon fill="#ffffff" stroke="#bfbfbf" points="230.1189,-.5 230.1189,-19.5 284.1189,-19.5 284.1189,-.5 230.1189,-.5"/>
<text text-anchor="middle" x="257.1189" y="-7.5" font-family="Helvetica,sans-Serif" font-size="10.00" fill="#000000">iostream</text>
</g>
<!-- Node1&#45;&gt;Node2 -->
<g id="edge2" class="edge">
<title>Node1&#45;&gt;Node2</title>
<path fill="none" stroke="#191970" d="M403.4059,-227.6481C314.247,-207.9281 52.1867,-144.9276 4.1189,-76 -.9656,-68.7089 -1.5766,-62.8245 4.1189,-56 31.148,-23.6134 156.1413,-13.9751 219.735,-11.1483"/>
<polygon fill="#191970" stroke="#191970" points="219.9095,-14.6442 229.7575,-10.7368 219.6223,-7.6501 219.9095,-14.6442"/>
</g>
<!-- Node3 -->
<g id="node4" class="node">
<title>Node3</title>
<polygon fill="#ffffff" stroke="#bfbfbf" points="492.6189,-168.5 492.6189,-187.5 543.6189,-187.5 543.6189,-168.5 492.6189,-168.5"/>
<text text-anchor="middle" x="518.1189" y="-175.5" font-family="Helvetica,sans-Serif" font-size="10.00" fill="#000000">numeric</text>
</g>
<!-- Node1&#45;&gt;Node3 -->
<g id="edge3" class="edge">
<title>Node1&#45;&gt;Node3</title>
<path fill="none" stroke="#191970" d="M447.9248,-224.2455C460.8445,-215.7337 479.812,-203.2375 494.7741,-193.3801"/>
<polygon fill="#191970" stroke="#191970" points="497.0576,-196.067 503.4827,-187.6427 493.2065,-190.2216 497.0576,-196.067"/>
</g>
<!-- Node4 -->
<g id="node5" class="node">
<title>Node4</title>
<polygon fill="#ffffff" stroke="#bfbfbf" points="561.6189,-168.5 561.6189,-187.5 608.6189,-187.5 608.6189,-168.5 561.6189,-168.5"/>
<text text-anchor="middle" x="585.1189" y="-175.5" font-family="Helvetica,sans-Serif" font-size="10.00" fill="#000000">iterator</text>
</g>
<!-- Node1&#45;&gt;Node4 -->
<g id="edge4" class="edge">
<title>Node1&#45;&gt;Node4</title>
<path fill="none" stroke="#191970" d="M459.2486,-224.3733C484.8005,-214.9594 523.8175,-200.5847 551.6331,-190.3369"/>
<polygon fill="#191970" stroke="#191970" points="553.155,-193.5062 561.3284,-186.7649 550.735,-186.9378 553.155,-193.5062"/>
</g>
<!-- Node5 -->
<g id="node6" class="node">
<title>Node5</title>
<g id="a_node6"><a xlink:href="triangle_8hpp.html" target="_top" xlink:title="Piece of Art Mesh Generation Tool, Winner of the 2003 James Hardy Wilkinson Prize in Numerical Softwa...">
<polygon fill="#ffffff" stroke="#000000" points="368.6189,-168.5 368.6189,-187.5 435.6189,-187.5 435.6189,-168.5 368.6189,-168.5"/>
<text text-anchor="middle" x="402.1189" y="-175.5" font-family="Helvetica,sans-Serif" font-size="10.00" fill="#000000">triangle.hpp</text>
</a>
</g>
</g>
<!-- Node1&#45;&gt;Node5 -->
<g id="edge5" class="edge">
<title>Node1&#45;&gt;Node5</title>
<path fill="none" stroke="#191970" d="M427.7191,-224.2455C423.4962,-216.617 417.5016,-205.7881 412.3748,-196.5267"/>
<polygon fill="#191970" stroke="#191970" points="415.3622,-194.6965 407.4568,-187.6427 409.2379,-198.0867 415.3622,-194.6965"/>
</g>
<!-- Node7 -->
<g id="node8" class="node">
<title>Node7</title>
<g id="a_node8"><a xlink:href="physmodel_8hpp.html" target="_top" xlink:title="Physical model incapsulation. ">
<polygon fill="#ffffff" stroke="#000000" points="218.6189,-112.5 218.6189,-131.5 301.6189,-131.5 301.6189,-112.5 218.6189,-112.5"/>
<text text-anchor="middle" x="260.1189" y="-119.5" font-family="Helvetica,sans-Serif" font-size="10.00" fill="#000000">physmodel.hpp</text>
</a>
</g>
</g>
<!-- Node1&#45;&gt;Node7 -->
<g id="edge23" class="edge">
<title>Node1&#45;&gt;Node7</title>
<path fill="none" stroke="#191970" d="M417.4367,-224.4513C402.3953,-215.2458 379.0869,-200.8577 359.1189,-188 332.6114,-170.9315 302.522,-150.7559 282.5437,-137.2449"/>
<polygon fill="#191970" stroke="#191970" points="284.3671,-134.2527 274.1251,-131.5412 280.4408,-140.0479 284.3671,-134.2527"/>
</g>
<!-- Node13 -->
<g id="node14" class="node">
<title>Node13</title>
<g id="a_node14"><a xlink:href="tethex_8hpp.html" target="_top" xlink:title="tethex &#45; tetrahedra to hexahedra conversion Copyright (c) 2013 Mikhail Artemyev Report issues: github...">
<polygon fill="#ffffff" stroke="#000000" points="454.1189,-56.5 454.1189,-75.5 516.1189,-75.5 516.1189,-56.5 454.1189,-56.5"/>
<text text-anchor="middle" x="485.1189" y="-63.5" font-family="Helvetica,sans-Serif" font-size="10.00" fill="#000000">tethex.hpp</text>
</a>
</g>
</g>
<!-- Node1&#45;&gt;Node13 -->
<g id="edge16" class="edge">
<title>Node1&#45;&gt;Node13</title>
<path fill="none" stroke="#191970" d="M436.0636,-224.4862C444.3192,-197.8144 467.8129,-121.9117 479.0228,-85.695"/>
<polygon fill="#191970" stroke="#191970" points="482.4635,-86.4157 482.0769,-75.8279 475.7765,-84.3458 482.4635,-86.4157"/>
</g>
<!-- Node6 -->
<g id="node7" class="node">
<title>Node6</title>
<polygon fill="#ffffff" stroke="#bfbfbf" points="325.1189,-.5 325.1189,-19.5 369.1189,-19.5 369.1189,-.5 325.1189,-.5"/>
<text text-anchor="middle" x="347.1189" y="-7.5" font-family="Helvetica,sans-Serif" font-size="10.00" fill="#000000">vector</text>
</g>
<!-- Node5&#45;&gt;Node6 -->
<g id="edge6" class="edge">
<title>Node5&#45;&gt;Node6</title>
<path fill="none" stroke="#191970" d="M405.425,-168.4984C412.2744,-147.0969 425.8784,-94.0205 407.1189,-56 400.6396,-42.8681 388.4127,-32.4457 376.6782,-24.8651"/>
<polygon fill="#191970" stroke="#191970" points="378.2841,-21.7475 367.9041,-19.6244 374.6945,-27.7572 378.2841,-21.7475"/>
</g>
<!-- Node5&#45;&gt;Node7 -->
<g id="edge7" class="edge">
<title>Node5&#45;&gt;Node7</title>
<path fill="none" stroke="#191970" d="M377.7082,-168.3733C354.5047,-159.2226 319.4151,-145.3844 293.6047,-135.2057"/>
<polygon fill="#191970" stroke="#191970" points="294.7978,-131.9139 284.211,-131.5011 292.2297,-138.4258 294.7978,-131.9139"/>
</g>
<!-- Node7&#45;&gt;Node2 -->
<g id="edge8" class="edge">
<title>Node7&#45;&gt;Node2</title>
<path fill="none" stroke="#191970" d="M258.1842,-112.1787C256.4609,-102.8986 254.0695,-88.5658 253.1189,-76 251.9535,-60.5953 253.1188,-43.1475 254.4864,-30.0618"/>
<polygon fill="#191970" stroke="#191970" points="257.9958,-30.1864 255.6868,-19.8462 251.0436,-29.3694 257.9958,-30.1864"/>
</g>
<!-- Node8 -->
<g id="node9" class="node">
<title>Node8</title>
<polygon fill="#ffffff" stroke="#bfbfbf" points="354.1189,-56.5 354.1189,-75.5 398.1189,-75.5 398.1189,-56.5 354.1189,-56.5"/>
<text text-anchor="middle" x="376.1189" y="-63.5" font-family="Helvetica,sans-Serif" font-size="10.00" fill="#000000">cmath</text>
</g>
<!-- Node7&#45;&gt;Node8 -->
<g id="edge9" class="edge">
<title>Node7&#45;&gt;Node8</title>
<path fill="none" stroke="#191970" d="M280.06,-112.3733C298.5975,-103.4241 326.4217,-89.9917 347.3602,-79.8835"/>
<polygon fill="#191970" stroke="#191970" points="348.9541,-83.0006 356.438,-75.5011 345.9108,-76.6967 348.9541,-83.0006"/>
</g>
<!-- Node9 -->
<g id="node10" class="node">
<title>Node9</title>
<polygon fill="#ffffff" stroke="#bfbfbf" points="13.6189,-56.5 13.6189,-75.5 66.6189,-75.5 66.6189,-56.5 13.6189,-56.5"/>
<text text-anchor="middle" x="40.1189" y="-63.5" font-family="Helvetica,sans-Serif" font-size="10.00" fill="#000000">complex</text>
</g>
<!-- Node7&#45;&gt;Node9 -->
<g id="edge10" class="edge">
<title>Node7&#45;&gt;Node9</title>
<path fill="none" stroke="#191970" d="M219.9586,-112.4383C184.5422,-103.9113 131.2982,-90.8635 76.6925,-76.3655"/>
<polygon fill="#191970" stroke="#191970" points="77.4098,-72.9346 66.8455,-73.7391 75.6057,-79.6981 77.4098,-72.9346"/>
</g>
<!-- Node10 -->
<g id="node11" class="node">
<title>Node10</title>
<polygon fill="#ffffff" stroke="#bfbfbf" points="84.6189,-56.5 84.6189,-75.5 131.6189,-75.5 131.6189,-56.5 84.6189,-56.5"/>
<text text-anchor="middle" x="108.1189" y="-63.5" font-family="Helvetica,sans-Serif" font-size="10.00" fill="#000000">math.h</text>
</g>
<!-- Node7&#45;&gt;Node10 -->
<g id="edge11" class="edge">
<title>Node7&#45;&gt;Node10</title>
<path fill="none" stroke="#191970" d="M233.9892,-112.3733C208.4374,-102.9594 169.4203,-88.5847 141.6047,-78.3369"/>
<polygon fill="#191970" stroke="#191970" points="142.5028,-74.9378 131.9094,-74.7649 140.0828,-81.5062 142.5028,-74.9378"/>
</g>
<!-- Node11 -->
<g id="node12" class="node">
<title>Node11</title>
<polygon fill="#ffffff" stroke="#bfbfbf" points="150.1189,-56.5 150.1189,-75.5 206.1189,-75.5 206.1189,-56.5 150.1189,-56.5"/>
<text text-anchor="middle" x="178.1189" y="-63.5" font-family="Helvetica,sans-Serif" font-size="10.00" fill="#000000">algorithm</text>
</g>
<!-- Node7&#45;&gt;Node11 -->
<g id="edge12" class="edge">
<title>Node7&#45;&gt;Node11</title>
<path fill="none" stroke="#191970" d="M245.8356,-112.2455C233.3719,-103.7337 215.0738,-91.2375 200.6397,-81.3801"/>
<polygon fill="#191970" stroke="#191970" points="202.4704,-78.392 192.2385,-75.6427 198.5227,-84.1726 202.4704,-78.392"/>
</g>
<!-- Node12 -->
<g id="node13" class="node">
<title>Node12</title>
<g id="a_node13"><a xlink:href="common_8hpp.html" target="_top" xlink:title="Common geometric entities to whole program. ">
<polygon fill="#ffffff" stroke="#000000" points="262.6189,-56.5 262.6189,-75.5 335.6189,-75.5 335.6189,-56.5 262.6189,-56.5"/>
<text text-anchor="middle" x="299.1189" y="-63.5" font-family="Helvetica,sans-Serif" font-size="10.00" fill="#000000">common.hpp</text>
</a>
</g>
</g>
<!-- Node7&#45;&gt;Node12 -->
<g id="edge13" class="edge">
<title>Node7&#45;&gt;Node12</title>
<path fill="none" stroke="#191970" d="M266.9122,-112.2455C272.3368,-104.4564 280.085,-93.3308 286.6222,-83.9439"/>
<polygon fill="#191970" stroke="#191970" points="289.5606,-85.849 292.4035,-75.6427 283.8164,-81.8485 289.5606,-85.849"/>
</g>
<!-- Node12&#45;&gt;Node2 -->
<g id="edge15" class="edge">
<title>Node12&#45;&gt;Node2</title>
<path fill="none" stroke="#191970" d="M291.8031,-56.2455C285.901,-48.3761 277.4447,-37.101 270.3595,-27.6542"/>
<polygon fill="#191970" stroke="#191970" points="273.151,-25.5427 264.3509,-19.6427 267.5509,-29.7427 273.151,-25.5427"/>
</g>
<!-- Node12&#45;&gt;Node6 -->
<g id="edge14" class="edge">
<title>Node12&#45;&gt;Node6</title>
<path fill="none" stroke="#191970" d="M307.4799,-56.2455C314.2939,-48.2958 324.087,-36.8706 332.2341,-27.3656"/>
<polygon fill="#191970" stroke="#191970" points="335.0032,-29.513 338.8538,-19.6427 329.6884,-24.9575 335.0032,-29.513"/>
</g>
<!-- Node13&#45;&gt;Node2 -->
<g id="edge17" class="edge">
<title>Node13&#45;&gt;Node2</title>
<path fill="none" stroke="#191970" d="M453.8945,-58.3309C412.2567,-48.104 338.6546,-30.0263 294.23,-19.115"/>
<polygon fill="#191970" stroke="#191970" points="294.9549,-15.6891 284.4087,-16.7028 293.2852,-22.4871 294.9549,-15.6891"/>
</g>
<!-- Node13&#45;&gt;Node6 -->
<g id="edge22" class="edge">
<title>Node13&#45;&gt;Node6</title>
<path fill="none" stroke="#191970" d="M461.3959,-56.3733C438.5371,-47.0972 403.8085,-33.0045 378.6359,-22.7895"/>
<polygon fill="#191970" stroke="#191970" points="379.7489,-19.464 369.1667,-18.9469 377.1167,-25.9503 379.7489,-19.464"/>
</g>
<!-- Node14 -->
<g id="node15" class="node">
<title>Node14</title>
<polygon fill="#ffffff" stroke="#bfbfbf" points="523.6189,-.5 523.6189,-19.5 558.6189,-19.5 558.6189,-.5 523.6189,-.5"/>
<text text-anchor="middle" x="541.1189" y="-7.5" font-family="Helvetica,sans-Serif" font-size="10.00" fill="#000000">map</text>
</g>
<!-- Node13&#45;&gt;Node14 -->
<g id="edge18" class="edge">
<title>Node13&#45;&gt;Node14</title>
<path fill="none" stroke="#191970" d="M494.8734,-56.2455C502.9837,-48.1352 514.7114,-36.4075 524.327,-26.7919"/>
<polygon fill="#191970" stroke="#191970" points="526.88,-29.1887 531.4762,-19.6427 521.9302,-24.2389 526.88,-29.1887"/>
</g>
<!-- Node15 -->
<g id="node16" class="node">
<title>Node15</title>
<polygon fill="#ffffff" stroke="#bfbfbf" points="577.1189,-.5 577.1189,-19.5 629.1189,-19.5 629.1189,-.5 577.1189,-.5"/>
<text text-anchor="middle" x="603.1189" y="-7.5" font-family="Helvetica,sans-Serif" font-size="10.00" fill="#000000">sstream</text>
</g>
<!-- Node13&#45;&gt;Node15 -->
<g id="edge19" class="edge">
<title>Node13&#45;&gt;Node15</title>
<path fill="none" stroke="#191970" d="M505.4038,-56.3733C524.261,-47.4241 552.5649,-33.9917 573.8644,-23.8835"/>
<polygon fill="#191970" stroke="#191970" points="575.565,-26.9506 583.0987,-19.5011 572.5638,-20.6266 575.565,-26.9506"/>
</g>
<!-- Node16 -->
<g id="node17" class="node">
<title>Node16</title>
<polygon fill="#ffffff" stroke="#bfbfbf" points="387.6189,-.5 387.6189,-19.5 446.6189,-19.5 446.6189,-.5 387.6189,-.5"/>
<text text-anchor="middle" x="417.1189" y="-7.5" font-family="Helvetica,sans-Serif" font-size="10.00" fill="#000000">stdexcept</text>
</g>
<!-- Node13&#45;&gt;Node16 -->
<g id="edge20" class="edge">
<title>Node13&#45;&gt;Node16</title>
<path fill="none" stroke="#191970" d="M473.2742,-56.2455C463.2309,-47.9746 448.6195,-35.9416 436.8185,-26.2232"/>
<polygon fill="#191970" stroke="#191970" points="438.7722,-23.298 428.8279,-19.6427 434.3222,-28.7015 438.7722,-23.298"/>
</g>
<!-- Node17 -->
<g id="node18" class="node">
<title>Node17</title>
<polygon fill="#ffffff" stroke="#bfbfbf" points="464.6189,-.5 464.6189,-19.5 505.6189,-19.5 505.6189,-.5 464.6189,-.5"/>
<text text-anchor="middle" x="485.1189" y="-7.5" font-family="Helvetica,sans-Serif" font-size="10.00" fill="#000000">string</text>
</g>
<!-- Node13&#45;&gt;Node17 -->
<g id="edge21" class="edge">
<title>Node13&#45;&gt;Node17</title>
<path fill="none" stroke="#191970" d="M485.1189,-56.2455C485.1189,-48.9382 485.1189,-38.6944 485.1189,-29.7046"/>
<polygon fill="#191970" stroke="#191970" points="488.619,-29.6426 485.1189,-19.6427 481.619,-29.6427 488.619,-29.6426"/>
</g>
</g>
</svg>
