<?xml version="1.0" encoding="UTF-8" standalone="no"?>
<!DOCTYPE svg PUBLIC "-//W3C//DTD SVG 1.1//EN"
 "http://www.w3.org/Graphics/SVG/1.1/DTD/svg11.dtd">
<!-- Generated by graphviz version 2.40.1 (20161225.0304)
 -->
<!-- Title: /home/oleg/Dev/riversim/source/river/mesh.cpp Pages: 1 -->
<svg width="520pt" height="263pt"
 viewBox="0.00 0.00 519.95 263.00" xmlns="http://www.w3.org/2000/svg" xmlns:xlink="http://www.w3.org/1999/xlink">
<g id="graph0" class="graph" transform="scale(1 1) rotate(0) translate(4 259)">
<title>/home/oleg/Dev/riversim/source/river/mesh.cpp</title>
<polygon fill="#ffffff" stroke="transparent" points="-4,4 -4,-259 515.9521,-259 515.9521,4 -4,4"/>
<!-- Node0 -->
<g id="node1" class="node">
<title>Node0</title>
<polygon fill="#bfbfbf" stroke="#000000" points="112.9521,-224.5 112.9521,-254.5 235.9521,-254.5 235.9521,-224.5 112.9521,-224.5"/>
<text text-anchor="start" x="120.9521" y="-242.5" font-family="Helvetica,sans-Serif" font-size="10.00" fill="#000000">/home/oleg/Dev/riversim</text>
<text text-anchor="middle" x="174.4521" y="-231.5" font-family="Helvetica,sans-Serif" font-size="10.00" fill="#000000">/source/river/mesh.cpp</text>
</g>
<!-- Node1 -->
<g id="node2" class="node">
<title>Node1</title>
<g id="a_node2"><a xlink:href="mesh_8hpp.html" target="_top" xlink:title="mesh.hpp">
<polygon fill="#ffffff" stroke="#000000" points="144.9521,-168.5 144.9521,-187.5 203.9521,-187.5 203.9521,-168.5 144.9521,-168.5"/>
<text text-anchor="middle" x="174.4521" y="-175.5" font-family="Helvetica,sans-Serif" font-size="10.00" fill="#000000">mesh.hpp</text>
</a>
</g>
</g>
<!-- Node0&#45;&gt;Node1 -->
<g id="edge1" class="edge">
<title>Node0&#45;&gt;Node1</title>
<path fill="none" stroke="#191970" d="M174.4521,-224.2977C174.4521,-216.3834 174.4521,-206.6043 174.4521,-198.0759"/>
<polygon fill="#191970" stroke="#191970" points="177.9522,-197.8469 174.4521,-187.8469 170.9522,-197.847 177.9522,-197.8469"/>
</g>
<!-- Node2 -->
<g id="node3" class="node">
<title>Node2</title>
<polygon fill="#ffffff" stroke="#bfbfbf" points="379.4521,-.5 379.4521,-19.5 433.4521,-19.5 433.4521,-.5 379.4521,-.5"/>
<text text-anchor="middle" x="406.4521" y="-7.5" font-family="Helvetica,sans-Serif" font-size="10.00" fill="#000000">iostream</text>
</g>
<!-- Node1&#45;&gt;Node2 -->
<g id="edge2" class="edge">
<title>Node1&#45;&gt;Node2</title>
<path fill="none" stroke="#191970" d="M204.3106,-173.596C253.1964,-165.993 347.7512,-149.5269 376.4521,-132 404.1833,-115.0653 412.3372,-106.5329 423.4521,-76 429.1287,-60.4063 423.4831,-42.0893 417.2172,-28.7133"/>
<polygon fill="#191970" stroke="#191970" points="420.1902,-26.8433 412.482,-19.5746 413.975,-30.0637 420.1902,-26.8433"/>
</g>
<!-- Node3 -->
<g id="node4" class="node">
<title>Node3</title>
<polygon fill="#ffffff" stroke="#bfbfbf" points="15.9521,-112.5 15.9521,-131.5 66.9521,-131.5 66.9521,-112.5 15.9521,-112.5"/>
<text text-anchor="middle" x="41.4521" y="-119.5" font-family="Helvetica,sans-Serif" font-size="10.00" fill="#000000">numeric</text>
</g>
<!-- Node1&#45;&gt;Node3 -->
<g id="edge3" class="edge">
<title>Node1&#45;&gt;Node3</title>
<path fill="none" stroke="#191970" d="M151.5886,-168.3733C130.0472,-159.3032 97.5684,-145.6279 73.4565,-135.4755"/>
<polygon fill="#191970" stroke="#191970" points="74.5919,-132.156 64.0173,-131.5011 71.8754,-138.6075 74.5919,-132.156"/>
</g>
<!-- Node4 -->
<g id="node5" class="node">
<title>Node4</title>
<polygon fill="#ffffff" stroke="#bfbfbf" points="84.9521,-112.5 84.9521,-131.5 131.9521,-131.5 131.9521,-112.5 84.9521,-112.5"/>
<text text-anchor="middle" x="108.4521" y="-119.5" font-family="Helvetica,sans-Serif" font-size="10.00" fill="#000000">iterator</text>
</g>
<!-- Node1&#45;&gt;Node4 -->
<g id="edge4" class="edge">
<title>Node1&#45;&gt;Node4</title>
<path fill="none" stroke="#191970" d="M162.9558,-168.2455C153.2079,-159.9746 139.0262,-147.9416 127.5723,-138.2232"/>
<polygon fill="#191970" stroke="#191970" points="129.7063,-135.4437 119.8167,-131.6427 125.1774,-140.7813 129.7063,-135.4437"/>
</g>
<!-- Node5 -->
<g id="node6" class="node">
<title>Node5</title>
<polygon fill="#ffffff" stroke="#bfbfbf" points="149.9521,-112.5 149.9521,-131.5 198.9521,-131.5 198.9521,-112.5 149.9521,-112.5"/>
<text text-anchor="middle" x="174.4521" y="-119.5" font-family="Helvetica,sans-Serif" font-size="10.00" fill="#000000">gmsh.h</text>
</g>
<!-- Node1&#45;&gt;Node5 -->
<g id="edge5" class="edge">
<title>Node1&#45;&gt;Node5</title>
<path fill="none" stroke="#191970" d="M174.4521,-168.2455C174.4521,-160.9382 174.4521,-150.6944 174.4521,-141.7046"/>
<polygon fill="#191970" stroke="#191970" points="177.9522,-141.6426 174.4521,-131.6427 170.9522,-141.6427 177.9522,-141.6426"/>
</g>
<!-- Node6 -->
<g id="node7" class="node">
<title>Node6</title>
<polygon fill="#ffffff" stroke="#bfbfbf" points="217.4521,-112.5 217.4521,-131.5 273.4521,-131.5 273.4521,-112.5 217.4521,-112.5"/>
<text text-anchor="middle" x="245.4521" y="-119.5" font-family="Helvetica,sans-Serif" font-size="10.00" fill="#000000">triangle.h</text>
</g>
<!-- Node1&#45;&gt;Node6 -->
<g id="edge6" class="edge">
<title>Node1&#45;&gt;Node6</title>
<path fill="none" stroke="#191970" d="M186.8194,-168.2455C197.4075,-159.8943 212.8585,-147.7076 225.2414,-137.9408"/>
<polygon fill="#191970" stroke="#191970" points="227.5424,-140.5837 233.2266,-131.6427 223.2074,-135.0875 227.5424,-140.5837"/>
</g>
<!-- Node7 -->
<g id="node8" class="node">
<title>Node7</title>
<g id="a_node8"><a xlink:href="tethex_8hpp.html" target="_top" xlink:title="tethex.hpp">
<polygon fill="#ffffff" stroke="#000000" points="110.4521,-56.5 110.4521,-75.5 172.4521,-75.5 172.4521,-56.5 110.4521,-56.5"/>
<text text-anchor="middle" x="141.4521" y="-63.5" font-family="Helvetica,sans-Serif" font-size="10.00" fill="#000000">tethex.hpp</text>
</a>
</g>
</g>
<!-- Node1&#45;&gt;Node7 -->
<g id="edge7" class="edge">
<title>Node1&#45;&gt;Node7</title>
<path fill="none" stroke="#191970" d="M144.6392,-174.1753C101.0151,-167.8979 23.1447,-153.8776 6.4521,-132 -21.0279,-95.9841 50.8871,-78.4611 99.9989,-70.9143"/>
<polygon fill="#191970" stroke="#191970" points="100.694,-74.3503 110.0887,-69.4523 99.6901,-67.4226 100.694,-74.3503"/>
</g>
<!-- Node13 -->
<g id="node14" class="node">
<title>Node13</title>
<g id="a_node14"><a xlink:href="geometry_8hpp.html" target="_top" xlink:title="geometry.hpp">
<polygon fill="#ffffff" stroke="#000000" points="291.4521,-112.5 291.4521,-131.5 367.4521,-131.5 367.4521,-112.5 291.4521,-112.5"/>
<text text-anchor="middle" x="329.4521" y="-119.5" font-family="Helvetica,sans-Serif" font-size="10.00" fill="#000000">geometry.hpp</text>
</a>
</g>
</g>
<!-- Node1&#45;&gt;Node13 -->
<g id="edge14" class="edge">
<title>Node1&#45;&gt;Node13</title>
<path fill="none" stroke="#191970" d="M201.0976,-168.3733C226.6486,-159.1419 265.4034,-145.1402 293.6431,-134.9375"/>
<polygon fill="#191970" stroke="#191970" points="294.9387,-138.1909 303.1544,-131.5011 292.5601,-131.6074 294.9387,-138.1909"/>
</g>
<!-- Node7&#45;&gt;Node2 -->
<g id="edge8" class="edge">
<title>Node7&#45;&gt;Node2</title>
<path fill="none" stroke="#191970" d="M172.8643,-58.0105C175.7638,-57.3142 178.66,-56.6341 181.4521,-56 247.3225,-41.0402 324.5503,-25.7345 369.2543,-17.0926"/>
<polygon fill="#191970" stroke="#191970" points="370.1989,-20.475 379.3561,-15.1462 368.8745,-13.6014 370.1989,-20.475"/>
</g>
<!-- Node8 -->
<g id="node9" class="node">
<title>Node8</title>
<polygon fill="#ffffff" stroke="#bfbfbf" points="36.9521,-.5 36.9521,-19.5 71.9521,-19.5 71.9521,-.5 36.9521,-.5"/>
<text text-anchor="middle" x="54.4521" y="-7.5" font-family="Helvetica,sans-Serif" font-size="10.00" fill="#000000">map</text>
</g>
<!-- Node7&#45;&gt;Node8 -->
<g id="edge9" class="edge">
<title>Node7&#45;&gt;Node8</title>
<path fill="none" stroke="#191970" d="M126.2979,-56.2455C112.9494,-47.6534 93.2935,-35.0014 77.9139,-25.1018"/>
<polygon fill="#191970" stroke="#191970" points="79.7357,-22.1121 69.4327,-19.6427 75.947,-27.9982 79.7357,-22.1121"/>
</g>
<!-- Node9 -->
<g id="node10" class="node">
<title>Node9</title>
<polygon fill="#ffffff" stroke="#bfbfbf" points="167.4521,-.5 167.4521,-19.5 219.4521,-19.5 219.4521,-.5 167.4521,-.5"/>
<text text-anchor="middle" x="193.4521" y="-7.5" font-family="Helvetica,sans-Serif" font-size="10.00" fill="#000000">sstream</text>
</g>
<!-- Node7&#45;&gt;Node9 -->
<g id="edge10" class="edge">
<title>Node7&#45;&gt;Node9</title>
<path fill="none" stroke="#191970" d="M150.5098,-56.2455C157.9663,-48.2155 168.7156,-36.6394 177.5938,-27.0781"/>
<polygon fill="#191970" stroke="#191970" points="180.2585,-29.3522 184.4982,-19.6427 175.1289,-24.589 180.2585,-29.3522"/>
</g>
<!-- Node10 -->
<g id="node11" class="node">
<title>Node10</title>
<polygon fill="#ffffff" stroke="#bfbfbf" points="89.9521,-.5 89.9521,-19.5 148.9521,-19.5 148.9521,-.5 89.9521,-.5"/>
<text text-anchor="middle" x="119.4521" y="-7.5" font-family="Helvetica,sans-Serif" font-size="10.00" fill="#000000">stdexcept</text>
</g>
<!-- Node7&#45;&gt;Node10 -->
<g id="edge11" class="edge">
<title>Node7&#45;&gt;Node10</title>
<path fill="none" stroke="#191970" d="M137.62,-56.2455C134.6862,-48.7776 130.5475,-38.2427 126.9611,-29.1137"/>
<polygon fill="#191970" stroke="#191970" points="130.1545,-27.6704 123.2403,-19.6427 123.6393,-30.23 130.1545,-27.6704"/>
</g>
<!-- Node11 -->
<g id="node12" class="node">
<title>Node11</title>
<polygon fill="#ffffff" stroke="#bfbfbf" points="237.9521,-.5 237.9521,-19.5 278.9521,-19.5 278.9521,-.5 237.9521,-.5"/>
<text text-anchor="middle" x="258.4521" y="-7.5" font-family="Helvetica,sans-Serif" font-size="10.00" fill="#000000">string</text>
</g>
<!-- Node7&#45;&gt;Node11 -->
<g id="edge12" class="edge">
<title>Node7&#45;&gt;Node11</title>
<path fill="none" stroke="#191970" d="M161.5651,-56.3733C180.2625,-47.4241 208.3265,-33.9917 229.4455,-23.8835"/>
<polygon fill="#191970" stroke="#191970" points="231.0926,-26.9755 238.6016,-19.5011 228.0704,-20.6614 231.0926,-26.9755"/>
</g>
<!-- Node12 -->
<g id="node13" class="node">
<title>Node12</title>
<polygon fill="#ffffff" stroke="#bfbfbf" points="297.4521,-.5 297.4521,-19.5 341.4521,-19.5 341.4521,-.5 297.4521,-.5"/>
<text text-anchor="middle" x="319.4521" y="-7.5" font-family="Helvetica,sans-Serif" font-size="10.00" fill="#000000">vector</text>
</g>
<!-- Node7&#45;&gt;Node12 -->
<g id="edge13" class="edge">
<title>Node7&#45;&gt;Node12</title>
<path fill="none" stroke="#191970" d="M172.0514,-56.3733C204.2512,-46.243 254.711,-30.368 287.4349,-20.0728"/>
<polygon fill="#191970" stroke="#191970" points="288.902,-23.2805 297.3907,-16.9407 286.8012,-16.6031 288.902,-23.2805"/>
</g>
<!-- Node13&#45;&gt;Node2 -->
<g id="edge19" class="edge">
<title>Node13&#45;&gt;Node2</title>
<path fill="none" stroke="#191970" d="M360.1712,-112.4362C377.3596,-105.3313 397.3153,-93.7464 407.4521,-76 415.4353,-62.0239 414.3576,-43.5169 411.7584,-29.6576"/>
<polygon fill="#191970" stroke="#191970" points="415.1269,-28.6865 409.4918,-19.7146 408.302,-30.2424 415.1269,-28.6865"/>
</g>
<!-- Node13&#45;&gt;Node7 -->
<g id="edge25" class="edge">
<title>Node13&#45;&gt;Node7</title>
<path fill="none" stroke="#191970" d="M297.1338,-112.3733C265.4105,-102.9238 216.9063,-88.4757 182.4783,-78.2206"/>
<polygon fill="#191970" stroke="#191970" points="183.3071,-74.8155 172.724,-75.315 181.3087,-81.5242 183.3071,-74.8155"/>
</g>
<!-- Node13&#45;&gt;Node8 -->
<g id="edge18" class="edge">
<title>Node13&#45;&gt;Node8</title>
<path fill="none" stroke="#191970" d="M291.2415,-113.8257C288.2684,-113.2032 285.312,-112.5886 282.4521,-112 202.1159,-95.4651 170.3204,-120.5474 101.4521,-76 83.8184,-64.5936 70.7671,-44.0441 62.9508,-28.8952"/>
<polygon fill="#191970" stroke="#191970" points="66.0872,-27.3414 58.5748,-19.8705 59.7886,-30.3956 66.0872,-27.3414"/>
</g>
<!-- Node13&#45;&gt;Node11 -->
<g id="edge16" class="edge">
<title>Node13&#45;&gt;Node11</title>
<path fill="none" stroke="#191970" d="M323.3987,-112.4509C311.5568,-93.7707 285.1556,-52.1238 269.9111,-28.0761"/>
<polygon fill="#191970" stroke="#191970" points="272.8005,-26.0969 264.4902,-19.5249 266.8883,-29.8448 272.8005,-26.0969"/>
</g>
<!-- Node13&#45;&gt;Node12 -->
<g id="edge17" class="edge">
<title>Node13&#45;&gt;Node12</title>
<path fill="none" stroke="#191970" d="M325.5898,-112.3228C322.1483,-103.1446 317.3688,-88.8807 315.4521,-76 313.1783,-60.7195 314.4006,-43.2653 316.0716,-30.1457"/>
<polygon fill="#191970" stroke="#191970" points="319.5867,-30.2985 317.5789,-19.8957 312.6612,-29.28 319.5867,-30.2985"/>
</g>
<!-- Node14 -->
<g id="node15" class="node">
<title>Node14</title>
<polygon fill="#ffffff" stroke="#bfbfbf" points="190.4521,-56.5 190.4521,-75.5 230.4521,-75.5 230.4521,-56.5 190.4521,-56.5"/>
<text text-anchor="middle" x="210.4521" y="-63.5" font-family="Helvetica,sans-Serif" font-size="10.00" fill="#000000">utility</text>
</g>
<!-- Node13&#45;&gt;Node14 -->
<g id="edge15" class="edge">
<title>Node13&#45;&gt;Node14</title>
<path fill="none" stroke="#191970" d="M308.9953,-112.3733C289.9784,-103.4241 261.4346,-89.9917 239.9546,-79.8835"/>
<polygon fill="#191970" stroke="#191970" points="241.1805,-76.5923 230.642,-75.5011 238.1999,-82.926 241.1805,-76.5923"/>
</g>
<!-- Node15 -->
<g id="node16" class="node">
<title>Node15</title>
<polygon fill="#ffffff" stroke="#bfbfbf" points="464.9521,-.5 464.9521,-19.5 511.9521,-19.5 511.9521,-.5 464.9521,-.5"/>
<text text-anchor="middle" x="488.4521" y="-7.5" font-family="Helvetica,sans-Serif" font-size="10.00" fill="#000000">math.h</text>
</g>
<!-- Node13&#45;&gt;Node15 -->
<g id="edge20" class="edge">
<title>Node13&#45;&gt;Node15</title>
<path fill="none" stroke="#191970" d="M354.6801,-112.4052C374.3788,-104.2824 401.9258,-91.5004 423.4521,-76 443.0896,-61.8597 462.0982,-41.5407 474.4329,-27.1914"/>
<polygon fill="#191970" stroke="#191970" points="477.1225,-29.4311 480.8786,-19.5244 471.7644,-24.9265 477.1225,-29.4311"/>
</g>
<!-- Node16 -->
<g id="node17" class="node">
<title>Node16</title>
<g id="a_node17"><a xlink:href="common_8hpp.html" target="_top" xlink:title="common.hpp">
<polygon fill="#ffffff" stroke="#000000" points="324.9521,-56.5 324.9521,-75.5 397.9521,-75.5 397.9521,-56.5 324.9521,-56.5"/>
<text text-anchor="middle" x="361.4521" y="-63.5" font-family="Helvetica,sans-Serif" font-size="10.00" fill="#000000">common.hpp</text>
</a>
</g>
</g>
<!-- Node13&#45;&gt;Node16 -->
<g id="edge21" class="edge">
<title>Node13&#45;&gt;Node16</title>
<path fill="none" stroke="#191970" d="M335.0261,-112.2455C339.3853,-104.617 345.5732,-93.7881 350.8654,-84.5267"/>
<polygon fill="#191970" stroke="#191970" points="354.0194,-86.0616 355.942,-75.6427 347.9417,-82.5886 354.0194,-86.0616"/>
</g>
<!-- Node16&#45;&gt;Node2 -->
<g id="edge24" class="edge">
<title>Node16&#45;&gt;Node2</title>
<path fill="none" stroke="#191970" d="M369.2905,-56.2455C375.6142,-48.3761 384.6745,-37.101 392.2657,-27.6542"/>
<polygon fill="#191970" stroke="#191970" points="395.1679,-29.6302 398.7035,-19.6427 389.7113,-25.2454 395.1679,-29.6302"/>
</g>
<!-- Node16&#45;&gt;Node12 -->
<g id="edge22" class="edge">
<title>Node16&#45;&gt;Node12</title>
<path fill="none" stroke="#191970" d="M354.1363,-56.2455C348.2342,-48.3761 339.7779,-37.101 332.6928,-27.6542"/>
<polygon fill="#191970" stroke="#191970" points="335.4842,-25.5427 326.6841,-19.6427 329.8842,-29.7427 335.4842,-25.5427"/>
</g>
<!-- Node16&#45;&gt;Node15 -->
<g id="edge23" class="edge">
<title>Node16&#45;&gt;Node15</title>
<path fill="none" stroke="#191970" d="M383.2842,-56.3733C403.7624,-47.3435 434.592,-33.7494 457.5841,-23.6111"/>
<polygon fill="#191970" stroke="#191970" points="459.1671,-26.7383 466.9049,-19.5011 456.3428,-20.3333 459.1671,-26.7383"/>
</g>
</g>
</svg>
