<?xml version="1.0" encoding="UTF-8" standalone="no"?>
<!DOCTYPE svg PUBLIC "-//W3C//DTD SVG 1.1//EN"
 "http://www.w3.org/Graphics/SVG/1.1/DTD/svg11.dtd">
<!-- Generated by graphviz version 2.40.1 (20161225.0304)
 -->
<!-- Title: /home/oleg/Dev/riversim/source/river/mesh.hpp Pages: 1 -->
<svg width="347pt" height="173pt"
 viewBox="0.00 0.00 347.00 173.00" xmlns="http://www.w3.org/2000/svg" xmlns:xlink="http://www.w3.org/1999/xlink">
<g id="graph0" class="graph" transform="scale(1 1) rotate(0) translate(4 169)">
<title>/home/oleg/Dev/riversim/source/river/mesh.hpp</title>
<polygon fill="#ffffff" stroke="transparent" points="-4,4 -4,-169 343,-169 343,4 -4,4"/>
<!-- Node18 -->
<g id="node1" class="node">
<title>Node18</title>
<polygon fill="#bfbfbf" stroke="#000000" points="71,-134.5 71,-164.5 194,-164.5 194,-134.5 71,-134.5"/>
<text text-anchor="start" x="79" y="-152.5" font-family="Helvetica,sans-Serif" font-size="10.00" fill="#000000">/home/oleg/Dev/riversim</text>
<text text-anchor="middle" x="132.5" y="-141.5" font-family="Helvetica,sans-Serif" font-size="10.00" fill="#000000">/source/river/mesh.hpp</text>
</g>
<!-- Node19 -->
<g id="node2" class="node">
<title>Node19</title>
<g id="a_node2"><a xlink:href="mesh_8cpp.html" target="_top" xlink:title="/home/oleg/Dev/riversim\l/source/river/mesh.cpp">
<polygon fill="#ffffff" stroke="#000000" points="0,-67.5 0,-97.5 123,-97.5 123,-67.5 0,-67.5"/>
<text text-anchor="start" x="8" y="-85.5" font-family="Helvetica,sans-Serif" font-size="10.00" fill="#000000">/home/oleg/Dev/riversim</text>
<text text-anchor="middle" x="61.5" y="-74.5" font-family="Helvetica,sans-Serif" font-size="10.00" fill="#000000">/source/river/mesh.cpp</text>
</a>
</g>
</g>
<!-- Node18&#45;&gt;Node19 -->
<g id="edge1" class="edge">
<title>Node18&#45;&gt;Node19</title>
<path fill="none" stroke="#191970" d="M108.8806,-127.2113C98.5905,-117.5009 86.7949,-106.3698 77.5472,-97.6432"/>
<polygon fill="#191970" stroke="#191970" points="106.7139,-129.979 116.389,-134.2967 111.5181,-124.8879 106.7139,-129.979"/>
</g>
<!-- Node20 -->
<g id="node3" class="node">
<title>Node20</title>
<g id="a_node3"><a xlink:href="riversim_8hpp.html" target="_top" xlink:title="Rivers Simulation. ">
<polygon fill="#ffffff" stroke="#000000" points="141,-67.5 141,-97.5 268,-97.5 268,-67.5 141,-67.5"/>
<text text-anchor="start" x="149" y="-85.5" font-family="Helvetica,sans-Serif" font-size="10.00" fill="#000000">/home/oleg/Dev/riversim</text>
<text text-anchor="middle" x="204.5" y="-74.5" font-family="Helvetica,sans-Serif" font-size="10.00" fill="#000000">/source/river/riversim.hpp</text>
</a>
</g>
</g>
<!-- Node18&#45;&gt;Node20 -->
<g id="edge2" class="edge">
<title>Node18&#45;&gt;Node20</title>
<path fill="none" stroke="#191970" d="M156.452,-127.2113C166.8871,-117.5009 178.8488,-106.3698 188.2267,-97.6432"/>
<polygon fill="#191970" stroke="#191970" points="153.7743,-124.9221 148.8379,-134.2967 158.5429,-130.0466 153.7743,-124.9221"/>
</g>
<!-- Node21 -->
<g id="node4" class="node">
<title>Node21</title>
<g id="a_node4"><a xlink:href="main_8cpp.html" target="_top" xlink:title="Entry point of program and main loop handler. ">
<polygon fill="#ffffff" stroke="#000000" points="71,-.5 71,-30.5 194,-30.5 194,-.5 71,-.5"/>
<text text-anchor="start" x="79" y="-18.5" font-family="Helvetica,sans-Serif" font-size="10.00" fill="#000000">/home/oleg/Dev/riversim</text>
<text text-anchor="middle" x="132.5" y="-7.5" font-family="Helvetica,sans-Serif" font-size="10.00" fill="#000000">/source/main.cpp</text>
</a>
</g>
</g>
<!-- Node20&#45;&gt;Node21 -->
<g id="edge3" class="edge">
<title>Node20&#45;&gt;Node21</title>
<path fill="none" stroke="#191970" d="M180.548,-60.2113C170.1129,-50.5009 158.1512,-39.3698 148.7733,-30.6432"/>
<polygon fill="#191970" stroke="#191970" points="178.4571,-63.0466 188.1621,-67.2967 183.2257,-57.9221 178.4571,-63.0466"/>
</g>
<!-- Node22 -->
<g id="node5" class="node">
<title>Node22</title>
<g id="a_node5"><a xlink:href="riversim_8cpp.html" target="_top" xlink:title="/home/oleg/Dev/riversim\l/source/river/riversim.cpp">
<polygon fill="#ffffff" stroke="#000000" points="212,-.5 212,-30.5 339,-30.5 339,-.5 212,-.5"/>
<text text-anchor="start" x="220" y="-18.5" font-family="Helvetica,sans-Serif" font-size="10.00" fill="#000000">/home/oleg/Dev/riversim</text>
<text text-anchor="middle" x="275.5" y="-7.5" font-family="Helvetica,sans-Serif" font-size="10.00" fill="#000000">/source/river/riversim.cpp</text>
</a>
</g>
</g>
<!-- Node20&#45;&gt;Node22 -->
<g id="edge4" class="edge">
<title>Node20&#45;&gt;Node22</title>
<path fill="none" stroke="#191970" d="M228.1194,-60.2113C238.4095,-50.5009 250.2051,-39.3698 259.4528,-30.6432"/>
<polygon fill="#191970" stroke="#191970" points="225.4819,-57.8879 220.611,-67.2967 230.2861,-62.979 225.4819,-57.8879"/>
</g>
</g>
</svg>
