<?xml version="1.0" encoding="UTF-8" standalone="no"?>
<!DOCTYPE svg PUBLIC "-//W3C//DTD SVG 1.1//EN"
 "http://www.w3.org/Graphics/SVG/1.1/DTD/svg11.dtd">
<!-- Generated by graphviz version 2.40.1 (20161225.0304)
 -->
<!-- Title: /home/oleg/Dev/riversim/source/river/mesh.cpp Pages: 1 -->
<svg width="684pt" height="319pt"
 viewBox="0.00 0.00 683.63 319.00" xmlns="http://www.w3.org/2000/svg" xmlns:xlink="http://www.w3.org/1999/xlink">
<g id="graph0" class="graph" transform="scale(1 1) rotate(0) translate(4 315)">
<title>/home/oleg/Dev/riversim/source/river/mesh.cpp</title>
<polygon fill="#ffffff" stroke="transparent" points="-4,4 -4,-315 679.6345,-315 679.6345,4 -4,4"/>
<!-- Node0 -->
<g id="node1" class="node">
<title>Node0</title>
<polygon fill="#bfbfbf" stroke="#000000" points="402.6345,-280.5 402.6345,-310.5 525.6345,-310.5 525.6345,-280.5 402.6345,-280.5"/>
<text text-anchor="start" x="410.6345" y="-298.5" font-family="Helvetica,sans-Serif" font-size="10.00" fill="#000000">/home/oleg/Dev/riversim</text>
<text text-anchor="middle" x="464.1345" y="-287.5" font-family="Helvetica,sans-Serif" font-size="10.00" fill="#000000">/source/river/mesh.cpp</text>
</g>
<!-- Node1 -->
<g id="node2" class="node">
<title>Node1</title>
<g id="a_node2"><a xlink:href="mesh_8hpp.html" target="_top" xlink:title="Wrappers classes to Triangle and Gmsh. ">
<polygon fill="#ffffff" stroke="#000000" points="434.6345,-224.5 434.6345,-243.5 493.6345,-243.5 493.6345,-224.5 434.6345,-224.5"/>
<text text-anchor="middle" x="464.1345" y="-231.5" font-family="Helvetica,sans-Serif" font-size="10.00" fill="#000000">mesh.hpp</text>
</a>
</g>
</g>
<!-- Node0&#45;&gt;Node1 -->
<g id="edge1" class="edge">
<title>Node0&#45;&gt;Node1</title>
<path fill="none" stroke="#191970" d="M464.1345,-280.2977C464.1345,-272.3834 464.1345,-262.6043 464.1345,-254.0759"/>
<polygon fill="#191970" stroke="#191970" points="467.6346,-253.8469 464.1345,-243.8469 460.6346,-253.847 467.6346,-253.8469"/>
</g>
<!-- Node2 -->
<g id="node3" class="node">
<title>Node2</title>
<polygon fill="#ffffff" stroke="#bfbfbf" points="230.1345,-.5 230.1345,-19.5 284.1345,-19.5 284.1345,-.5 230.1345,-.5"/>
<text text-anchor="middle" x="257.1345" y="-7.5" font-family="Helvetica,sans-Serif" font-size="10.00" fill="#000000">iostream</text>
</g>
<!-- Node1&#45;&gt;Node2 -->
<g id="edge2" class="edge">
<title>Node1&#45;&gt;Node2</title>
<path fill="none" stroke="#191970" d="M434.6253,-228.4584C341.4085,-210.2953 56.3291,-149.4916 4.1345,-76 -1.0125,-68.7529 -1.561,-62.8245 4.1345,-56 31.1636,-23.6134 156.157,-13.9751 219.7506,-11.1483"/>
<polygon fill="#191970" stroke="#191970" points="219.9251,-14.6442 229.7731,-10.7368 219.6379,-7.6501 219.9251,-14.6442"/>
</g>
<!-- Node3 -->
<g id="node4" class="node">
<title>Node3</title>
<polygon fill="#ffffff" stroke="#bfbfbf" points="492.6345,-168.5 492.6345,-187.5 543.6345,-187.5 543.6345,-168.5 492.6345,-168.5"/>
<text text-anchor="middle" x="518.1345" y="-175.5" font-family="Helvetica,sans-Serif" font-size="10.00" fill="#000000">numeric</text>
</g>
<!-- Node1&#45;&gt;Node3 -->
<g id="edge3" class="edge">
<title>Node1&#45;&gt;Node3</title>
<path fill="none" stroke="#191970" d="M473.5406,-224.2455C481.2838,-216.2155 492.4465,-204.6394 501.6663,-195.0781"/>
<polygon fill="#191970" stroke="#191970" points="504.4143,-197.2706 508.8362,-187.6427 499.3754,-192.4117 504.4143,-197.2706"/>
</g>
<!-- Node4 -->
<g id="node5" class="node">
<title>Node4</title>
<polygon fill="#ffffff" stroke="#bfbfbf" points="561.6345,-168.5 561.6345,-187.5 608.6345,-187.5 608.6345,-168.5 561.6345,-168.5"/>
<text text-anchor="middle" x="585.1345" y="-175.5" font-family="Helvetica,sans-Serif" font-size="10.00" fill="#000000">iterator</text>
</g>
<!-- Node1&#45;&gt;Node4 -->
<g id="edge4" class="edge">
<title>Node1&#45;&gt;Node4</title>
<path fill="none" stroke="#191970" d="M484.9352,-224.3733C504.3588,-215.3838 533.5569,-201.8706 555.431,-191.7471"/>
<polygon fill="#191970" stroke="#191970" points="557.0001,-194.8776 564.6053,-187.5011 554.06,-188.5249 557.0001,-194.8776"/>
</g>
<!-- Node5 -->
<g id="node6" class="node">
<title>Node5</title>
<polygon fill="#ffffff" stroke="#bfbfbf" points="626.6345,-168.5 626.6345,-187.5 675.6345,-187.5 675.6345,-168.5 626.6345,-168.5"/>
<text text-anchor="middle" x="651.1345" y="-175.5" font-family="Helvetica,sans-Serif" font-size="10.00" fill="#000000">gmsh.h</text>
</g>
<!-- Node1&#45;&gt;Node5 -->
<g id="edge5" class="edge">
<title>Node1&#45;&gt;Node5</title>
<path fill="none" stroke="#191970" d="M493.6678,-225.2163C522.7382,-216.5618 568.6512,-202.8712 616.9436,-188.3514"/>
<polygon fill="#191970" stroke="#191970" points="618.0617,-191.67 626.6295,-185.4376 616.0451,-184.9668 618.0617,-191.67"/>
</g>
<!-- Node6 -->
<g id="node7" class="node">
<title>Node6</title>
<g id="a_node7"><a xlink:href="triangle_8hpp.html" target="_top" xlink:title="Piece of Art Mesh Generation Tool, Winner of the 2003 James Hardy Wilkinson Prize in Numerical Softwa...">
<polygon fill="#ffffff" stroke="#000000" points="368.6345,-168.5 368.6345,-187.5 435.6345,-187.5 435.6345,-168.5 368.6345,-168.5"/>
<text text-anchor="middle" x="402.1345" y="-175.5" font-family="Helvetica,sans-Serif" font-size="10.00" fill="#000000">triangle.hpp</text>
</a>
</g>
</g>
<!-- Node1&#45;&gt;Node6 -->
<g id="edge6" class="edge">
<title>Node1&#45;&gt;Node6</title>
<path fill="none" stroke="#191970" d="M453.3349,-224.2455C444.2668,-216.0549 431.1139,-204.1749 420.41,-194.5069"/>
<polygon fill="#191970" stroke="#191970" points="422.5774,-191.7482 412.8103,-187.6427 417.8854,-196.9429 422.5774,-191.7482"/>
</g>
<!-- Node8 -->
<g id="node9" class="node">
<title>Node8</title>
<g id="a_node9"><a xlink:href="physmodel_8hpp.html" target="_top" xlink:title="Physical model incapsulation. ">
<polygon fill="#ffffff" stroke="#000000" points="218.6345,-112.5 218.6345,-131.5 301.6345,-131.5 301.6345,-112.5 218.6345,-112.5"/>
<text text-anchor="middle" x="260.1345" y="-119.5" font-family="Helvetica,sans-Serif" font-size="10.00" fill="#000000">physmodel.hpp</text>
</a>
</g>
</g>
<!-- Node1&#45;&gt;Node8 -->
<g id="edge24" class="edge">
<title>Node1&#45;&gt;Node8</title>
<path fill="none" stroke="#191970" d="M438.9392,-224.4098C417.2942,-215.8327 385.5008,-202.4196 359.1345,-188 331.002,-172.6145 300.5872,-151.6212 281.0011,-137.4775"/>
<polygon fill="#191970" stroke="#191970" points="282.9535,-134.5694 272.8113,-131.5057 278.8293,-140.2255 282.9535,-134.5694"/>
</g>
<!-- Node14 -->
<g id="node15" class="node">
<title>Node14</title>
<g id="a_node15"><a xlink:href="tethex_8hpp.html" target="_top" xlink:title="tethex &#45; tetrahedra to hexahedra conversion Copyright (c) 2013 Mikhail Artemyev Report issues: github...">
<polygon fill="#ffffff" stroke="#000000" points="454.1345,-56.5 454.1345,-75.5 516.1345,-75.5 516.1345,-56.5 454.1345,-56.5"/>
<text text-anchor="middle" x="485.1345" y="-63.5" font-family="Helvetica,sans-Serif" font-size="10.00" fill="#000000">tethex.hpp</text>
</a>
</g>
</g>
<!-- Node1&#45;&gt;Node14 -->
<g id="edge17" class="edge">
<title>Node1&#45;&gt;Node14</title>
<path fill="none" stroke="#191970" d="M465.3237,-224.4862C468.6433,-197.9293 478.0639,-122.5651 482.6138,-86.1655"/>
<polygon fill="#191970" stroke="#191970" points="486.1386,-86.1848 483.906,-75.8279 479.1926,-85.3165 486.1386,-86.1848"/>
</g>
<!-- Node7 -->
<g id="node8" class="node">
<title>Node7</title>
<polygon fill="#ffffff" stroke="#bfbfbf" points="325.1345,-.5 325.1345,-19.5 369.1345,-19.5 369.1345,-.5 325.1345,-.5"/>
<text text-anchor="middle" x="347.1345" y="-7.5" font-family="Helvetica,sans-Serif" font-size="10.00" fill="#000000">vector</text>
</g>
<!-- Node6&#45;&gt;Node7 -->
<g id="edge7" class="edge">
<title>Node6&#45;&gt;Node7</title>
<path fill="none" stroke="#191970" d="M405.4406,-168.4984C412.29,-147.0969 425.894,-94.0205 407.1345,-56 400.6552,-42.8681 388.4283,-32.4457 376.6938,-24.8651"/>
<polygon fill="#191970" stroke="#191970" points="378.2997,-21.7475 367.9197,-19.6244 374.7101,-27.7572 378.2997,-21.7475"/>
</g>
<!-- Node6&#45;&gt;Node8 -->
<g id="edge8" class="edge">
<title>Node6&#45;&gt;Node8</title>
<path fill="none" stroke="#191970" d="M377.7238,-168.3733C354.5203,-159.2226 319.4307,-145.3844 293.6203,-135.2057"/>
<polygon fill="#191970" stroke="#191970" points="294.8134,-131.9139 284.2266,-131.5011 292.2453,-138.4258 294.8134,-131.9139"/>
</g>
<!-- Node8&#45;&gt;Node2 -->
<g id="edge9" class="edge">
<title>Node8&#45;&gt;Node2</title>
<path fill="none" stroke="#191970" d="M258.1998,-112.1787C256.4766,-102.8986 254.0851,-88.5658 253.1345,-76 251.9691,-60.5953 253.1344,-43.1475 254.502,-30.0618"/>
<polygon fill="#191970" stroke="#191970" points="258.0114,-30.1864 255.7024,-19.8462 251.0592,-29.3694 258.0114,-30.1864"/>
</g>
<!-- Node9 -->
<g id="node10" class="node">
<title>Node9</title>
<polygon fill="#ffffff" stroke="#bfbfbf" points="354.1345,-56.5 354.1345,-75.5 398.1345,-75.5 398.1345,-56.5 354.1345,-56.5"/>
<text text-anchor="middle" x="376.1345" y="-63.5" font-family="Helvetica,sans-Serif" font-size="10.00" fill="#000000">cmath</text>
</g>
<!-- Node8&#45;&gt;Node9 -->
<g id="edge10" class="edge">
<title>Node8&#45;&gt;Node9</title>
<path fill="none" stroke="#191970" d="M280.0756,-112.3733C298.6131,-103.4241 326.4373,-89.9917 347.3758,-79.8835"/>
<polygon fill="#191970" stroke="#191970" points="348.9697,-83.0006 356.4536,-75.5011 345.9264,-76.6967 348.9697,-83.0006"/>
</g>
<!-- Node10 -->
<g id="node11" class="node">
<title>Node10</title>
<polygon fill="#ffffff" stroke="#bfbfbf" points="13.6345,-56.5 13.6345,-75.5 66.6345,-75.5 66.6345,-56.5 13.6345,-56.5"/>
<text text-anchor="middle" x="40.1345" y="-63.5" font-family="Helvetica,sans-Serif" font-size="10.00" fill="#000000">complex</text>
</g>
<!-- Node8&#45;&gt;Node10 -->
<g id="edge11" class="edge">
<title>Node8&#45;&gt;Node10</title>
<path fill="none" stroke="#191970" d="M219.9742,-112.4383C184.5578,-103.9113 131.3138,-90.8635 76.7081,-76.3655"/>
<polygon fill="#191970" stroke="#191970" points="77.4254,-72.9346 66.8611,-73.7391 75.6213,-79.6981 77.4254,-72.9346"/>
</g>
<!-- Node11 -->
<g id="node12" class="node">
<title>Node11</title>
<polygon fill="#ffffff" stroke="#bfbfbf" points="84.6345,-56.5 84.6345,-75.5 131.6345,-75.5 131.6345,-56.5 84.6345,-56.5"/>
<text text-anchor="middle" x="108.1345" y="-63.5" font-family="Helvetica,sans-Serif" font-size="10.00" fill="#000000">math.h</text>
</g>
<!-- Node8&#45;&gt;Node11 -->
<g id="edge12" class="edge">
<title>Node8&#45;&gt;Node11</title>
<path fill="none" stroke="#191970" d="M234.0048,-112.3733C208.453,-102.9594 169.4359,-88.5847 141.6203,-78.3369"/>
<polygon fill="#191970" stroke="#191970" points="142.5184,-74.9378 131.925,-74.7649 140.0984,-81.5062 142.5184,-74.9378"/>
</g>
<!-- Node12 -->
<g id="node13" class="node">
<title>Node12</title>
<polygon fill="#ffffff" stroke="#bfbfbf" points="150.1345,-56.5 150.1345,-75.5 206.1345,-75.5 206.1345,-56.5 150.1345,-56.5"/>
<text text-anchor="middle" x="178.1345" y="-63.5" font-family="Helvetica,sans-Serif" font-size="10.00" fill="#000000">algorithm</text>
</g>
<!-- Node8&#45;&gt;Node12 -->
<g id="edge13" class="edge">
<title>Node8&#45;&gt;Node12</title>
<path fill="none" stroke="#191970" d="M245.8512,-112.2455C233.3875,-103.7337 215.0894,-91.2375 200.6553,-81.3801"/>
<polygon fill="#191970" stroke="#191970" points="202.4861,-78.392 192.2541,-75.6427 198.5383,-84.1726 202.4861,-78.392"/>
</g>
<!-- Node13 -->
<g id="node14" class="node">
<title>Node13</title>
<g id="a_node14"><a xlink:href="common_8hpp.html" target="_top" xlink:title="Common geometric entities to whole program. ">
<polygon fill="#ffffff" stroke="#000000" points="262.6345,-56.5 262.6345,-75.5 335.6345,-75.5 335.6345,-56.5 262.6345,-56.5"/>
<text text-anchor="middle" x="299.1345" y="-63.5" font-family="Helvetica,sans-Serif" font-size="10.00" fill="#000000">common.hpp</text>
</a>
</g>
</g>
<!-- Node8&#45;&gt;Node13 -->
<g id="edge14" class="edge">
<title>Node8&#45;&gt;Node13</title>
<path fill="none" stroke="#191970" d="M266.9278,-112.2455C272.3524,-104.4564 280.1006,-93.3308 286.6378,-83.9439"/>
<polygon fill="#191970" stroke="#191970" points="289.5762,-85.849 292.4191,-75.6427 283.832,-81.8485 289.5762,-85.849"/>
</g>
<!-- Node13&#45;&gt;Node2 -->
<g id="edge16" class="edge">
<title>Node13&#45;&gt;Node2</title>
<path fill="none" stroke="#191970" d="M291.8187,-56.2455C285.9166,-48.3761 277.4603,-37.101 270.3752,-27.6542"/>
<polygon fill="#191970" stroke="#191970" points="273.1666,-25.5427 264.3665,-19.6427 267.5666,-29.7427 273.1666,-25.5427"/>
</g>
<!-- Node13&#45;&gt;Node7 -->
<g id="edge15" class="edge">
<title>Node13&#45;&gt;Node7</title>
<path fill="none" stroke="#191970" d="M307.4955,-56.2455C314.3095,-48.2958 324.1026,-36.8706 332.2497,-27.3656"/>
<polygon fill="#191970" stroke="#191970" points="335.0188,-29.513 338.8694,-19.6427 329.704,-24.9575 335.0188,-29.513"/>
</g>
<!-- Node14&#45;&gt;Node2 -->
<g id="edge18" class="edge">
<title>Node14&#45;&gt;Node2</title>
<path fill="none" stroke="#191970" d="M453.9102,-58.3309C412.2723,-48.104 338.6702,-30.0263 294.2456,-19.115"/>
<polygon fill="#191970" stroke="#191970" points="294.9705,-15.6891 284.4243,-16.7028 293.3008,-22.4871 294.9705,-15.6891"/>
</g>
<!-- Node14&#45;&gt;Node7 -->
<g id="edge23" class="edge">
<title>Node14&#45;&gt;Node7</title>
<path fill="none" stroke="#191970" d="M461.4115,-56.3733C438.5527,-47.0972 403.8241,-33.0045 378.6515,-22.7895"/>
<polygon fill="#191970" stroke="#191970" points="379.7645,-19.464 369.1823,-18.9469 377.1323,-25.9503 379.7645,-19.464"/>
</g>
<!-- Node15 -->
<g id="node16" class="node">
<title>Node15</title>
<polygon fill="#ffffff" stroke="#bfbfbf" points="523.6345,-.5 523.6345,-19.5 558.6345,-19.5 558.6345,-.5 523.6345,-.5"/>
<text text-anchor="middle" x="541.1345" y="-7.5" font-family="Helvetica,sans-Serif" font-size="10.00" fill="#000000">map</text>
</g>
<!-- Node14&#45;&gt;Node15 -->
<g id="edge19" class="edge">
<title>Node14&#45;&gt;Node15</title>
<path fill="none" stroke="#191970" d="M494.889,-56.2455C502.9993,-48.1352 514.727,-36.4075 524.3426,-26.7919"/>
<polygon fill="#191970" stroke="#191970" points="526.8956,-29.1887 531.4918,-19.6427 521.9459,-24.2389 526.8956,-29.1887"/>
</g>
<!-- Node16 -->
<g id="node17" class="node">
<title>Node16</title>
<polygon fill="#ffffff" stroke="#bfbfbf" points="577.1345,-.5 577.1345,-19.5 629.1345,-19.5 629.1345,-.5 577.1345,-.5"/>
<text text-anchor="middle" x="603.1345" y="-7.5" font-family="Helvetica,sans-Serif" font-size="10.00" fill="#000000">sstream</text>
</g>
<!-- Node14&#45;&gt;Node16 -->
<g id="edge20" class="edge">
<title>Node14&#45;&gt;Node16</title>
<path fill="none" stroke="#191970" d="M505.4194,-56.3733C524.2766,-47.4241 552.5805,-33.9917 573.88,-23.8835"/>
<polygon fill="#191970" stroke="#191970" points="575.5806,-26.9506 583.1143,-19.5011 572.5794,-20.6266 575.5806,-26.9506"/>
</g>
<!-- Node17 -->
<g id="node18" class="node">
<title>Node17</title>
<polygon fill="#ffffff" stroke="#bfbfbf" points="387.6345,-.5 387.6345,-19.5 446.6345,-19.5 446.6345,-.5 387.6345,-.5"/>
<text text-anchor="middle" x="417.1345" y="-7.5" font-family="Helvetica,sans-Serif" font-size="10.00" fill="#000000">stdexcept</text>
</g>
<!-- Node14&#45;&gt;Node17 -->
<g id="edge21" class="edge">
<title>Node14&#45;&gt;Node17</title>
<path fill="none" stroke="#191970" d="M473.2898,-56.2455C463.2466,-47.9746 448.6351,-35.9416 436.8341,-26.2232"/>
<polygon fill="#191970" stroke="#191970" points="438.7878,-23.298 428.8435,-19.6427 434.3378,-28.7015 438.7878,-23.298"/>
</g>
<!-- Node18 -->
<g id="node19" class="node">
<title>Node18</title>
<polygon fill="#ffffff" stroke="#bfbfbf" points="464.6345,-.5 464.6345,-19.5 505.6345,-19.5 505.6345,-.5 464.6345,-.5"/>
<text text-anchor="middle" x="485.1345" y="-7.5" font-family="Helvetica,sans-Serif" font-size="10.00" fill="#000000">string</text>
</g>
<!-- Node14&#45;&gt;Node18 -->
<g id="edge22" class="edge">
<title>Node14&#45;&gt;Node18</title>
<path fill="none" stroke="#191970" d="M485.1345,-56.2455C485.1345,-48.9382 485.1345,-38.6944 485.1345,-29.7046"/>
<polygon fill="#191970" stroke="#191970" points="488.6346,-29.6426 485.1345,-19.6427 481.6346,-29.6427 488.6346,-29.6426"/>
</g>
</g>
</svg>
