<?xml version="1.0" encoding="UTF-8" standalone="no"?>
<!DOCTYPE svg PUBLIC "-//W3C//DTD SVG 1.1//EN"
 "http://www.w3.org/Graphics/SVG/1.1/DTD/svg11.dtd">
<!-- Generated by graphviz version 2.40.1 (20161225.0304)
 -->
<!-- Title: /home/oleg/Dev/riversim/source/river/mesh.hpp Pages: 1 -->
<svg width="684pt" height="263pt"
 viewBox="0.00 0.00 683.63 263.00" xmlns="http://www.w3.org/2000/svg" xmlns:xlink="http://www.w3.org/1999/xlink">
<g id="graph0" class="graph" transform="scale(1 1) rotate(0) translate(4 259)">
<title>/home/oleg/Dev/riversim/source/river/mesh.hpp</title>
<polygon fill="#ffffff" stroke="transparent" points="-4,4 -4,-259 679.6293,-259 679.6293,4 -4,4"/>
<!-- Node0 -->
<g id="node1" class="node">
<title>Node0</title>
<polygon fill="#bfbfbf" stroke="#000000" points="402.6293,-224.5 402.6293,-254.5 525.6293,-254.5 525.6293,-224.5 402.6293,-224.5"/>
<text text-anchor="start" x="410.6293" y="-242.5" font-family="Helvetica,sans-Serif" font-size="10.00" fill="#000000">/home/oleg/Dev/riversim</text>
<text text-anchor="middle" x="464.1293" y="-231.5" font-family="Helvetica,sans-Serif" font-size="10.00" fill="#000000">/source/river/mesh.hpp</text>
</g>
<!-- Node1 -->
<g id="node2" class="node">
<title>Node1</title>
<polygon fill="#ffffff" stroke="#bfbfbf" points="230.1293,-.5 230.1293,-19.5 284.1293,-19.5 284.1293,-.5 230.1293,-.5"/>
<text text-anchor="middle" x="257.1293" y="-7.5" font-family="Helvetica,sans-Serif" font-size="10.00" fill="#000000">iostream</text>
</g>
<!-- Node0&#45;&gt;Node1 -->
<g id="edge1" class="edge">
<title>Node0&#45;&gt;Node1</title>
<path fill="none" stroke="#191970" d="M402.3907,-226.7109C288.1807,-201.6644 51.2334,-142.7335 4.1293,-76 -.9967,-68.738 -1.5663,-62.8245 4.1293,-56 31.1584,-23.6134 156.1517,-13.9751 219.7454,-11.1483"/>
<polygon fill="#191970" stroke="#191970" points="219.9199,-14.6442 229.7678,-10.7368 219.6326,-7.6501 219.9199,-14.6442"/>
</g>
<!-- Node2 -->
<g id="node3" class="node">
<title>Node2</title>
<polygon fill="#ffffff" stroke="#bfbfbf" points="492.6293,-168.5 492.6293,-187.5 543.6293,-187.5 543.6293,-168.5 492.6293,-168.5"/>
<text text-anchor="middle" x="518.1293" y="-175.5" font-family="Helvetica,sans-Serif" font-size="10.00" fill="#000000">numeric</text>
</g>
<!-- Node0&#45;&gt;Node2 -->
<g id="edge2" class="edge">
<title>Node0&#45;&gt;Node2</title>
<path fill="none" stroke="#191970" d="M477.4776,-224.2977C485.1295,-215.5831 494.7666,-204.6075 502.7369,-195.5302"/>
<polygon fill="#191970" stroke="#191970" points="505.5152,-197.6707 509.4832,-187.8469 500.2551,-193.052 505.5152,-197.6707"/>
</g>
<!-- Node3 -->
<g id="node4" class="node">
<title>Node3</title>
<polygon fill="#ffffff" stroke="#bfbfbf" points="561.6293,-168.5 561.6293,-187.5 608.6293,-187.5 608.6293,-168.5 561.6293,-168.5"/>
<text text-anchor="middle" x="585.1293" y="-175.5" font-family="Helvetica,sans-Serif" font-size="10.00" fill="#000000">iterator</text>
</g>
<!-- Node0&#45;&gt;Node3 -->
<g id="edge3" class="edge">
<title>Node0&#45;&gt;Node3</title>
<path fill="none" stroke="#191970" d="M493.7292,-224.4554C513.1214,-214.599 538.3034,-201.7999 557.3235,-192.1327"/>
<polygon fill="#191970" stroke="#191970" points="559.0498,-195.1815 566.3785,-187.5303 555.8781,-188.9412 559.0498,-195.1815"/>
</g>
<!-- Node4 -->
<g id="node5" class="node">
<title>Node4</title>
<polygon fill="#ffffff" stroke="#bfbfbf" points="626.6293,-168.5 626.6293,-187.5 675.6293,-187.5 675.6293,-168.5 626.6293,-168.5"/>
<text text-anchor="middle" x="651.1293" y="-175.5" font-family="Helvetica,sans-Serif" font-size="10.00" fill="#000000">gmsh.h</text>
</g>
<!-- Node0&#45;&gt;Node4 -->
<g id="edge4" class="edge">
<title>Node0&#45;&gt;Node4</title>
<path fill="none" stroke="#191970" d="M509.8746,-224.4554C542.9041,-213.5928 586.8017,-199.1559 616.8422,-189.2762"/>
<polygon fill="#191970" stroke="#191970" points="618.0569,-192.5612 626.4629,-186.1122 615.8699,-185.9116 618.0569,-192.5612"/>
</g>
<!-- Node5 -->
<g id="node6" class="node">
<title>Node5</title>
<g id="a_node6"><a xlink:href="triangle_8hpp.html" target="_top" xlink:title="Piece of Art Mesh Generation Tool, Winner of the 2003 James Hardy Wilkinson Prize in Numerical Softwa...">
<polygon fill="#ffffff" stroke="#000000" points="368.6293,-168.5 368.6293,-187.5 435.6293,-187.5 435.6293,-168.5 368.6293,-168.5"/>
<text text-anchor="middle" x="402.1293" y="-175.5" font-family="Helvetica,sans-Serif" font-size="10.00" fill="#000000">triangle.hpp</text>
</a>
</g>
</g>
<!-- Node0&#45;&gt;Node5 -->
<g id="edge5" class="edge">
<title>Node0&#45;&gt;Node5</title>
<path fill="none" stroke="#191970" d="M448.8034,-224.2977C439.8386,-215.4052 428.5005,-204.1586 419.2441,-194.9769"/>
<polygon fill="#191970" stroke="#191970" points="421.6207,-192.4045 412.0562,-187.8469 416.6911,-197.3742 421.6207,-192.4045"/>
</g>
<!-- Node7 -->
<g id="node8" class="node">
<title>Node7</title>
<g id="a_node8"><a xlink:href="physmodel_8hpp.html" target="_top" xlink:title="Physical model incapsulation. ">
<polygon fill="#ffffff" stroke="#000000" points="218.6293,-112.5 218.6293,-131.5 301.6293,-131.5 301.6293,-112.5 218.6293,-112.5"/>
<text text-anchor="middle" x="260.1293" y="-119.5" font-family="Helvetica,sans-Serif" font-size="10.00" fill="#000000">physmodel.hpp</text>
</a>
</g>
</g>
<!-- Node0&#45;&gt;Node7 -->
<g id="edge23" class="edge">
<title>Node0&#45;&gt;Node7</title>
<path fill="none" stroke="#191970" d="M430.4412,-224.3626C409.5512,-214.638 382.361,-201.3634 359.1293,-188 331.49,-172.1013 301.1885,-151.3798 281.4841,-137.4318"/>
<polygon fill="#191970" stroke="#191970" points="283.398,-134.4979 273.224,-131.5416 279.3338,-140.1973 283.398,-134.4979"/>
</g>
<!-- Node13 -->
<g id="node14" class="node">
<title>Node13</title>
<g id="a_node14"><a xlink:href="tethex_8hpp.html" target="_top" xlink:title="tethex &#45; tetrahedra to hexahedra conversion Copyright (c) 2013 Mikhail Artemyev Report issues: github...">
<polygon fill="#ffffff" stroke="#000000" points="454.1293,-56.5 454.1293,-75.5 516.1293,-75.5 516.1293,-56.5 454.1293,-56.5"/>
<text text-anchor="middle" x="485.1293" y="-63.5" font-family="Helvetica,sans-Serif" font-size="10.00" fill="#000000">tethex.hpp</text>
</a>
</g>
</g>
<!-- Node0&#45;&gt;Node13 -->
<g id="edge16" class="edge">
<title>Node0&#45;&gt;Node13</title>
<path fill="none" stroke="#191970" d="M465.9561,-224.4065C469.756,-193.0126 478.509,-120.6961 482.7457,-85.6925"/>
<polygon fill="#191970" stroke="#191970" points="486.2235,-86.0861 483.9506,-75.738 479.2743,-85.245 486.2235,-86.0861"/>
</g>
<!-- Node6 -->
<g id="node7" class="node">
<title>Node6</title>
<polygon fill="#ffffff" stroke="#bfbfbf" points="325.1293,-.5 325.1293,-19.5 369.1293,-19.5 369.1293,-.5 325.1293,-.5"/>
<text text-anchor="middle" x="347.1293" y="-7.5" font-family="Helvetica,sans-Serif" font-size="10.00" fill="#000000">vector</text>
</g>
<!-- Node5&#45;&gt;Node6 -->
<g id="edge6" class="edge">
<title>Node5&#45;&gt;Node6</title>
<path fill="none" stroke="#191970" d="M405.4354,-168.4984C412.2848,-147.0969 425.8887,-94.0205 407.1293,-56 400.6499,-42.8681 388.423,-32.4457 376.6886,-24.8651"/>
<polygon fill="#191970" stroke="#191970" points="378.2944,-21.7475 367.9145,-19.6244 374.7049,-27.7572 378.2944,-21.7475"/>
</g>
<!-- Node5&#45;&gt;Node7 -->
<g id="edge7" class="edge">
<title>Node5&#45;&gt;Node7</title>
<path fill="none" stroke="#191970" d="M377.7186,-168.3733C354.515,-159.2226 319.4254,-145.3844 293.615,-135.2057"/>
<polygon fill="#191970" stroke="#191970" points="294.8082,-131.9139 284.2214,-131.5011 292.2401,-138.4258 294.8082,-131.9139"/>
</g>
<!-- Node7&#45;&gt;Node1 -->
<g id="edge8" class="edge">
<title>Node7&#45;&gt;Node1</title>
<path fill="none" stroke="#191970" d="M258.1945,-112.1787C256.4713,-102.8986 254.0799,-88.5658 253.1293,-76 251.9639,-60.5953 253.1292,-43.1475 254.4968,-30.0618"/>
<polygon fill="#191970" stroke="#191970" points="258.0061,-30.1864 255.6972,-19.8462 251.054,-29.3694 258.0061,-30.1864"/>
</g>
<!-- Node8 -->
<g id="node9" class="node">
<title>Node8</title>
<polygon fill="#ffffff" stroke="#bfbfbf" points="354.1293,-56.5 354.1293,-75.5 398.1293,-75.5 398.1293,-56.5 354.1293,-56.5"/>
<text text-anchor="middle" x="376.1293" y="-63.5" font-family="Helvetica,sans-Serif" font-size="10.00" fill="#000000">cmath</text>
</g>
<!-- Node7&#45;&gt;Node8 -->
<g id="edge9" class="edge">
<title>Node7&#45;&gt;Node8</title>
<path fill="none" stroke="#191970" d="M280.0704,-112.3733C298.6079,-103.4241 326.4321,-89.9917 347.3706,-79.8835"/>
<polygon fill="#191970" stroke="#191970" points="348.9645,-83.0006 356.4484,-75.5011 345.9212,-76.6967 348.9645,-83.0006"/>
</g>
<!-- Node9 -->
<g id="node10" class="node">
<title>Node9</title>
<polygon fill="#ffffff" stroke="#bfbfbf" points="13.6293,-56.5 13.6293,-75.5 66.6293,-75.5 66.6293,-56.5 13.6293,-56.5"/>
<text text-anchor="middle" x="40.1293" y="-63.5" font-family="Helvetica,sans-Serif" font-size="10.00" fill="#000000">complex</text>
</g>
<!-- Node7&#45;&gt;Node9 -->
<g id="edge10" class="edge">
<title>Node7&#45;&gt;Node9</title>
<path fill="none" stroke="#191970" d="M219.969,-112.4383C184.5526,-103.9113 131.3085,-90.8635 76.7029,-76.3655"/>
<polygon fill="#191970" stroke="#191970" points="77.4201,-72.9346 66.8559,-73.7391 75.6161,-79.6981 77.4201,-72.9346"/>
</g>
<!-- Node10 -->
<g id="node11" class="node">
<title>Node10</title>
<polygon fill="#ffffff" stroke="#bfbfbf" points="84.6293,-56.5 84.6293,-75.5 131.6293,-75.5 131.6293,-56.5 84.6293,-56.5"/>
<text text-anchor="middle" x="108.1293" y="-63.5" font-family="Helvetica,sans-Serif" font-size="10.00" fill="#000000">math.h</text>
</g>
<!-- Node7&#45;&gt;Node10 -->
<g id="edge11" class="edge">
<title>Node7&#45;&gt;Node10</title>
<path fill="none" stroke="#191970" d="M233.9995,-112.3733C208.4477,-102.9594 169.4306,-88.5847 141.6151,-78.3369"/>
<polygon fill="#191970" stroke="#191970" points="142.5131,-74.9378 131.9197,-74.7649 140.0932,-81.5062 142.5131,-74.9378"/>
</g>
<!-- Node11 -->
<g id="node12" class="node">
<title>Node11</title>
<polygon fill="#ffffff" stroke="#bfbfbf" points="150.1293,-56.5 150.1293,-75.5 206.1293,-75.5 206.1293,-56.5 150.1293,-56.5"/>
<text text-anchor="middle" x="178.1293" y="-63.5" font-family="Helvetica,sans-Serif" font-size="10.00" fill="#000000">algorithm</text>
</g>
<!-- Node7&#45;&gt;Node11 -->
<g id="edge12" class="edge">
<title>Node7&#45;&gt;Node11</title>
<path fill="none" stroke="#191970" d="M245.8459,-112.2455C233.3822,-103.7337 215.0841,-91.2375 200.6501,-81.3801"/>
<polygon fill="#191970" stroke="#191970" points="202.4808,-78.392 192.2489,-75.6427 198.533,-84.1726 202.4808,-78.392"/>
</g>
<!-- Node12 -->
<g id="node13" class="node">
<title>Node12</title>
<g id="a_node13"><a xlink:href="common_8hpp.html" target="_top" xlink:title="Common geometric entities to whole program. ">
<polygon fill="#ffffff" stroke="#000000" points="262.6293,-56.5 262.6293,-75.5 335.6293,-75.5 335.6293,-56.5 262.6293,-56.5"/>
<text text-anchor="middle" x="299.1293" y="-63.5" font-family="Helvetica,sans-Serif" font-size="10.00" fill="#000000">common.hpp</text>
</a>
</g>
</g>
<!-- Node7&#45;&gt;Node12 -->
<g id="edge13" class="edge">
<title>Node7&#45;&gt;Node12</title>
<path fill="none" stroke="#191970" d="M266.9225,-112.2455C272.3471,-104.4564 280.0953,-93.3308 286.6326,-83.9439"/>
<polygon fill="#191970" stroke="#191970" points="289.571,-85.849 292.4138,-75.6427 283.8267,-81.8485 289.571,-85.849"/>
</g>
<!-- Node12&#45;&gt;Node1 -->
<g id="edge15" class="edge">
<title>Node12&#45;&gt;Node1</title>
<path fill="none" stroke="#191970" d="M291.8134,-56.2455C285.9113,-48.3761 277.455,-37.101 270.3699,-27.6542"/>
<polygon fill="#191970" stroke="#191970" points="273.1613,-25.5427 264.3613,-19.6427 267.5613,-29.7427 273.1613,-25.5427"/>
</g>
<!-- Node12&#45;&gt;Node6 -->
<g id="edge14" class="edge">
<title>Node12&#45;&gt;Node6</title>
<path fill="none" stroke="#191970" d="M307.4902,-56.2455C314.3043,-48.2958 324.0973,-36.8706 332.2445,-27.3656"/>
<polygon fill="#191970" stroke="#191970" points="335.0136,-29.513 338.8641,-19.6427 329.6987,-24.9575 335.0136,-29.513"/>
</g>
<!-- Node13&#45;&gt;Node1 -->
<g id="edge17" class="edge">
<title>Node13&#45;&gt;Node1</title>
<path fill="none" stroke="#191970" d="M453.9049,-58.3309C412.267,-48.104 338.665,-30.0263 294.2404,-19.115"/>
<polygon fill="#191970" stroke="#191970" points="294.9653,-15.6891 284.419,-16.7028 293.2955,-22.4871 294.9653,-15.6891"/>
</g>
<!-- Node13&#45;&gt;Node6 -->
<g id="edge22" class="edge">
<title>Node13&#45;&gt;Node6</title>
<path fill="none" stroke="#191970" d="M461.4062,-56.3733C438.5474,-47.0972 403.8188,-33.0045 378.6462,-22.7895"/>
<polygon fill="#191970" stroke="#191970" points="379.7592,-19.464 369.177,-18.9469 377.1271,-25.9503 379.7592,-19.464"/>
</g>
<!-- Node14 -->
<g id="node15" class="node">
<title>Node14</title>
<polygon fill="#ffffff" stroke="#bfbfbf" points="523.6293,-.5 523.6293,-19.5 558.6293,-19.5 558.6293,-.5 523.6293,-.5"/>
<text text-anchor="middle" x="541.1293" y="-7.5" font-family="Helvetica,sans-Serif" font-size="10.00" fill="#000000">map</text>
</g>
<!-- Node13&#45;&gt;Node14 -->
<g id="edge18" class="edge">
<title>Node13&#45;&gt;Node14</title>
<path fill="none" stroke="#191970" d="M494.8837,-56.2455C502.994,-48.1352 514.7217,-36.4075 524.3373,-26.7919"/>
<polygon fill="#191970" stroke="#191970" points="526.8904,-29.1887 531.4866,-19.6427 521.9406,-24.2389 526.8904,-29.1887"/>
</g>
<!-- Node15 -->
<g id="node16" class="node">
<title>Node15</title>
<polygon fill="#ffffff" stroke="#bfbfbf" points="577.1293,-.5 577.1293,-19.5 629.1293,-19.5 629.1293,-.5 577.1293,-.5"/>
<text text-anchor="middle" x="603.1293" y="-7.5" font-family="Helvetica,sans-Serif" font-size="10.00" fill="#000000">sstream</text>
</g>
<!-- Node13&#45;&gt;Node15 -->
<g id="edge19" class="edge">
<title>Node13&#45;&gt;Node15</title>
<path fill="none" stroke="#191970" d="M505.4142,-56.3733C524.2713,-47.4241 552.5752,-33.9917 573.8747,-23.8835"/>
<polygon fill="#191970" stroke="#191970" points="575.5754,-26.9506 583.109,-19.5011 572.5741,-20.6266 575.5754,-26.9506"/>
</g>
<!-- Node16 -->
<g id="node17" class="node">
<title>Node16</title>
<polygon fill="#ffffff" stroke="#bfbfbf" points="387.6293,-.5 387.6293,-19.5 446.6293,-19.5 446.6293,-.5 387.6293,-.5"/>
<text text-anchor="middle" x="417.1293" y="-7.5" font-family="Helvetica,sans-Serif" font-size="10.00" fill="#000000">stdexcept</text>
</g>
<!-- Node13&#45;&gt;Node16 -->
<g id="edge20" class="edge">
<title>Node13&#45;&gt;Node16</title>
<path fill="none" stroke="#191970" d="M473.2846,-56.2455C463.2413,-47.9746 448.6298,-35.9416 436.8289,-26.2232"/>
<polygon fill="#191970" stroke="#191970" points="438.7825,-23.298 428.8382,-19.6427 434.3325,-28.7015 438.7825,-23.298"/>
</g>
<!-- Node17 -->
<g id="node18" class="node">
<title>Node17</title>
<polygon fill="#ffffff" stroke="#bfbfbf" points="464.6293,-.5 464.6293,-19.5 505.6293,-19.5 505.6293,-.5 464.6293,-.5"/>
<text text-anchor="middle" x="485.1293" y="-7.5" font-family="Helvetica,sans-Serif" font-size="10.00" fill="#000000">string</text>
</g>
<!-- Node13&#45;&gt;Node17 -->
<g id="edge21" class="edge">
<title>Node13&#45;&gt;Node17</title>
<path fill="none" stroke="#191970" d="M485.1293,-56.2455C485.1293,-48.9382 485.1293,-38.6944 485.1293,-29.7046"/>
<polygon fill="#191970" stroke="#191970" points="488.6293,-29.6426 485.1293,-19.6427 481.6293,-29.6427 488.6293,-29.6426"/>
</g>
</g>
</svg>
