<?xml version="1.0" encoding="UTF-8" standalone="no"?>
<!DOCTYPE svg PUBLIC "-//W3C//DTD SVG 1.1//EN"
 "http://www.w3.org/Graphics/SVG/1.1/DTD/svg11.dtd">
<!-- Generated by graphviz version 2.40.1 (20161225.0304)
 -->
<!-- Title: /home/oleg/Dev/riversim/source/river/mesh.hpp Pages: 1 -->
<svg width="637pt" height="263pt"
 viewBox="0.00 0.00 637.11 263.00" xmlns="http://www.w3.org/2000/svg" xmlns:xlink="http://www.w3.org/1999/xlink">
<g id="graph0" class="graph" transform="scale(1 1) rotate(0) translate(4 259)">
<title>/home/oleg/Dev/riversim/source/river/mesh.hpp</title>
<polygon fill="#ffffff" stroke="transparent" points="-4,4 -4,-259 633.1086,-259 633.1086,4 -4,4"/>
<!-- Node0 -->
<g id="node1" class="node">
<title>Node0</title>
<polygon fill="#bfbfbf" stroke="#000000" points="371.6086,-224.5 371.6086,-254.5 494.6086,-254.5 494.6086,-224.5 371.6086,-224.5"/>
<text text-anchor="start" x="379.6086" y="-242.5" font-family="Helvetica,sans-Serif" font-size="10.00" fill="#000000">/home/oleg/Dev/riversim</text>
<text text-anchor="middle" x="433.1086" y="-231.5" font-family="Helvetica,sans-Serif" font-size="10.00" fill="#000000">/source/river/mesh.hpp</text>
</g>
<!-- Node1 -->
<g id="node2" class="node">
<title>Node1</title>
<polygon fill="#ffffff" stroke="#bfbfbf" points="230.1086,-.5 230.1086,-19.5 284.1086,-19.5 284.1086,-.5 230.1086,-.5"/>
<text text-anchor="middle" x="257.1086" y="-7.5" font-family="Helvetica,sans-Serif" font-size="10.00" fill="#000000">iostream</text>
</g>
<!-- Node0&#45;&gt;Node1 -->
<g id="edge1" class="edge">
<title>Node0&#45;&gt;Node1</title>
<path fill="none" stroke="#191970" d="M371.2617,-225.0396C263.1401,-198.3701 47.128,-138.4332 4.1086,-76 -.9349,-68.6805 -1.5869,-62.8245 4.1086,-56 31.1378,-23.6134 156.1311,-13.9751 219.7248,-11.1483"/>
<polygon fill="#191970" stroke="#191970" points="219.8992,-14.6442 229.7472,-10.7368 219.612,-7.6501 219.8992,-14.6442"/>
</g>
<!-- Node2 -->
<g id="node3" class="node">
<title>Node2</title>
<polygon fill="#ffffff" stroke="#bfbfbf" points="492.6086,-168.5 492.6086,-187.5 543.6086,-187.5 543.6086,-168.5 492.6086,-168.5"/>
<text text-anchor="middle" x="518.1086" y="-175.5" font-family="Helvetica,sans-Serif" font-size="10.00" fill="#000000">numeric</text>
</g>
<!-- Node0&#45;&gt;Node2 -->
<g id="edge2" class="edge">
<title>Node0&#45;&gt;Node2</title>
<path fill="none" stroke="#191970" d="M454.1199,-224.2977C466.902,-215.0495 483.2033,-203.2551 496.1534,-193.8853"/>
<polygon fill="#191970" stroke="#191970" points="498.4489,-196.5445 504.4991,-187.8469 494.3456,-190.8732 498.4489,-196.5445"/>
</g>
<!-- Node3 -->
<g id="node4" class="node">
<title>Node3</title>
<polygon fill="#ffffff" stroke="#bfbfbf" points="561.6086,-168.5 561.6086,-187.5 608.6086,-187.5 608.6086,-168.5 561.6086,-168.5"/>
<text text-anchor="middle" x="585.1086" y="-175.5" font-family="Helvetica,sans-Serif" font-size="10.00" fill="#000000">iterator</text>
</g>
<!-- Node0&#45;&gt;Node3 -->
<g id="edge3" class="edge">
<title>Node0&#45;&gt;Node3</title>
<path fill="none" stroke="#191970" d="M470.292,-224.4554C495.3199,-214.329 528.0249,-201.0964 552.1252,-191.3453"/>
<polygon fill="#191970" stroke="#191970" points="553.5968,-194.5256 561.554,-187.5303 550.9713,-188.0366 553.5968,-194.5256"/>
</g>
<!-- Node4 -->
<g id="node5" class="node">
<title>Node4</title>
<g id="a_node5"><a xlink:href="triangle_8hpp.html" target="_top" xlink:title="Piece of Art Mesh Generation Tool, Winner of the 2003 James Hardy Wilkinson Prize in Numerical Softwa...">
<polygon fill="#ffffff" stroke="#000000" points="368.6086,-168.5 368.6086,-187.5 435.6086,-187.5 435.6086,-168.5 368.6086,-168.5"/>
<text text-anchor="middle" x="402.1086" y="-175.5" font-family="Helvetica,sans-Serif" font-size="10.00" fill="#000000">triangle.hpp</text>
</a>
</g>
</g>
<!-- Node0&#45;&gt;Node4 -->
<g id="edge4" class="edge">
<title>Node0&#45;&gt;Node4</title>
<path fill="none" stroke="#191970" d="M425.4457,-224.2977C421.2771,-216.0277 416.0821,-205.7215 411.6525,-196.9339"/>
<polygon fill="#191970" stroke="#191970" points="414.6987,-195.2012 407.0721,-187.8469 408.4479,-198.3521 414.6987,-195.2012"/>
</g>
<!-- Node6 -->
<g id="node7" class="node">
<title>Node6</title>
<g id="a_node7"><a xlink:href="physmodel_8hpp.html" target="_top" xlink:title="Physical model incapsulation. ">
<polygon fill="#ffffff" stroke="#000000" points="218.6086,-112.5 218.6086,-131.5 301.6086,-131.5 301.6086,-112.5 218.6086,-112.5"/>
<text text-anchor="middle" x="260.1086" y="-119.5" font-family="Helvetica,sans-Serif" font-size="10.00" fill="#000000">physmodel.hpp</text>
</a>
</g>
</g>
<!-- Node0&#45;&gt;Node6 -->
<g id="edge22" class="edge">
<title>Node0&#45;&gt;Node6</title>
<path fill="none" stroke="#191970" d="M410.8461,-224.3795C377.8132,-201.9439 316.1472,-160.0609 282.8437,-137.4415"/>
<polygon fill="#191970" stroke="#191970" points="284.4888,-134.3278 274.2499,-131.6046 280.5558,-140.1185 284.4888,-134.3278"/>
</g>
<!-- Node12 -->
<g id="node13" class="node">
<title>Node12</title>
<g id="a_node13"><a xlink:href="tethex_8hpp.html" target="_top" xlink:title="tethex &#45; tetrahedra to hexahedra conversion Copyright (c) 2013 Mikhail Artemyev Report issues: github...">
<polygon fill="#ffffff" stroke="#000000" points="454.1086,-56.5 454.1086,-75.5 516.1086,-75.5 516.1086,-56.5 454.1086,-56.5"/>
<text text-anchor="middle" x="485.1086" y="-63.5" font-family="Helvetica,sans-Serif" font-size="10.00" fill="#000000">tethex.hpp</text>
</a>
</g>
</g>
<!-- Node0&#45;&gt;Node12 -->
<g id="edge15" class="edge">
<title>Node0&#45;&gt;Node12</title>
<path fill="none" stroke="#191970" d="M437.6323,-224.4065C447.0415,-193.0126 468.7156,-120.6961 479.2066,-85.6925"/>
<polygon fill="#191970" stroke="#191970" points="482.6717,-86.3219 482.19,-75.738 475.9664,-84.3122 482.6717,-86.3219"/>
</g>
<!-- Node5 -->
<g id="node6" class="node">
<title>Node5</title>
<polygon fill="#ffffff" stroke="#bfbfbf" points="325.1086,-.5 325.1086,-19.5 369.1086,-19.5 369.1086,-.5 325.1086,-.5"/>
<text text-anchor="middle" x="347.1086" y="-7.5" font-family="Helvetica,sans-Serif" font-size="10.00" fill="#000000">vector</text>
</g>
<!-- Node4&#45;&gt;Node5 -->
<g id="edge5" class="edge">
<title>Node4&#45;&gt;Node5</title>
<path fill="none" stroke="#191970" d="M405.4147,-168.4984C412.2642,-147.0969 425.8681,-94.0205 407.1086,-56 400.6293,-42.8681 388.4024,-32.4457 376.6679,-24.8651"/>
<polygon fill="#191970" stroke="#191970" points="378.2738,-21.7475 367.8939,-19.6244 374.6843,-27.7572 378.2738,-21.7475"/>
</g>
<!-- Node4&#45;&gt;Node6 -->
<g id="edge6" class="edge">
<title>Node4&#45;&gt;Node6</title>
<path fill="none" stroke="#191970" d="M377.698,-168.3733C354.4944,-159.2226 319.4048,-145.3844 293.5944,-135.2057"/>
<polygon fill="#191970" stroke="#191970" points="294.7876,-131.9139 284.2008,-131.5011 292.2194,-138.4258 294.7876,-131.9139"/>
</g>
<!-- Node6&#45;&gt;Node1 -->
<g id="edge7" class="edge">
<title>Node6&#45;&gt;Node1</title>
<path fill="none" stroke="#191970" d="M258.1739,-112.1787C256.4507,-102.8986 254.0593,-88.5658 253.1086,-76 251.9433,-60.5953 253.1086,-43.1475 254.4762,-30.0618"/>
<polygon fill="#191970" stroke="#191970" points="257.9855,-30.1864 255.6766,-19.8462 251.0334,-29.3694 257.9855,-30.1864"/>
</g>
<!-- Node7 -->
<g id="node8" class="node">
<title>Node7</title>
<polygon fill="#ffffff" stroke="#bfbfbf" points="354.1086,-56.5 354.1086,-75.5 398.1086,-75.5 398.1086,-56.5 354.1086,-56.5"/>
<text text-anchor="middle" x="376.1086" y="-63.5" font-family="Helvetica,sans-Serif" font-size="10.00" fill="#000000">cmath</text>
</g>
<!-- Node6&#45;&gt;Node7 -->
<g id="edge8" class="edge">
<title>Node6&#45;&gt;Node7</title>
<path fill="none" stroke="#191970" d="M280.0497,-112.3733C298.5873,-103.4241 326.4115,-89.9917 347.35,-79.8835"/>
<polygon fill="#191970" stroke="#191970" points="348.9439,-83.0006 356.4277,-75.5011 345.9006,-76.6967 348.9439,-83.0006"/>
</g>
<!-- Node8 -->
<g id="node9" class="node">
<title>Node8</title>
<polygon fill="#ffffff" stroke="#bfbfbf" points="13.6086,-56.5 13.6086,-75.5 66.6086,-75.5 66.6086,-56.5 13.6086,-56.5"/>
<text text-anchor="middle" x="40.1086" y="-63.5" font-family="Helvetica,sans-Serif" font-size="10.00" fill="#000000">complex</text>
</g>
<!-- Node6&#45;&gt;Node8 -->
<g id="edge9" class="edge">
<title>Node6&#45;&gt;Node8</title>
<path fill="none" stroke="#191970" d="M219.9483,-112.4383C184.5319,-103.9113 131.2879,-90.8635 76.6822,-76.3655"/>
<polygon fill="#191970" stroke="#191970" points="77.3995,-72.9346 66.8353,-73.7391 75.5954,-79.6981 77.3995,-72.9346"/>
</g>
<!-- Node9 -->
<g id="node10" class="node">
<title>Node9</title>
<polygon fill="#ffffff" stroke="#bfbfbf" points="84.6086,-56.5 84.6086,-75.5 131.6086,-75.5 131.6086,-56.5 84.6086,-56.5"/>
<text text-anchor="middle" x="108.1086" y="-63.5" font-family="Helvetica,sans-Serif" font-size="10.00" fill="#000000">math.h</text>
</g>
<!-- Node6&#45;&gt;Node9 -->
<g id="edge10" class="edge">
<title>Node6&#45;&gt;Node9</title>
<path fill="none" stroke="#191970" d="M233.9789,-112.3733C208.4271,-102.9594 169.41,-88.5847 141.5944,-78.3369"/>
<polygon fill="#191970" stroke="#191970" points="142.4925,-74.9378 131.8991,-74.7649 140.0725,-81.5062 142.4925,-74.9378"/>
</g>
<!-- Node10 -->
<g id="node11" class="node">
<title>Node10</title>
<polygon fill="#ffffff" stroke="#bfbfbf" points="150.1086,-56.5 150.1086,-75.5 206.1086,-75.5 206.1086,-56.5 150.1086,-56.5"/>
<text text-anchor="middle" x="178.1086" y="-63.5" font-family="Helvetica,sans-Serif" font-size="10.00" fill="#000000">algorithm</text>
</g>
<!-- Node6&#45;&gt;Node10 -->
<g id="edge11" class="edge">
<title>Node6&#45;&gt;Node10</title>
<path fill="none" stroke="#191970" d="M245.8253,-112.2455C233.3616,-103.7337 215.0635,-91.2375 200.6295,-81.3801"/>
<polygon fill="#191970" stroke="#191970" points="202.4602,-78.392 192.2283,-75.6427 198.5124,-84.1726 202.4602,-78.392"/>
</g>
<!-- Node11 -->
<g id="node12" class="node">
<title>Node11</title>
<g id="a_node12"><a xlink:href="common_8hpp.html" target="_top" xlink:title="Common geometric entities to whole program. ">
<polygon fill="#ffffff" stroke="#000000" points="262.6086,-56.5 262.6086,-75.5 335.6086,-75.5 335.6086,-56.5 262.6086,-56.5"/>
<text text-anchor="middle" x="299.1086" y="-63.5" font-family="Helvetica,sans-Serif" font-size="10.00" fill="#000000">common.hpp</text>
</a>
</g>
</g>
<!-- Node6&#45;&gt;Node11 -->
<g id="edge12" class="edge">
<title>Node6&#45;&gt;Node11</title>
<path fill="none" stroke="#191970" d="M266.9019,-112.2455C272.3265,-104.4564 280.0747,-93.3308 286.612,-83.9439"/>
<polygon fill="#191970" stroke="#191970" points="289.5504,-85.849 292.3932,-75.6427 283.8061,-81.8485 289.5504,-85.849"/>
</g>
<!-- Node11&#45;&gt;Node1 -->
<g id="edge14" class="edge">
<title>Node11&#45;&gt;Node1</title>
<path fill="none" stroke="#191970" d="M291.7928,-56.2455C285.8907,-48.3761 277.4344,-37.101 270.3493,-27.6542"/>
<polygon fill="#191970" stroke="#191970" points="273.1407,-25.5427 264.3406,-19.6427 267.5407,-29.7427 273.1407,-25.5427"/>
</g>
<!-- Node11&#45;&gt;Node5 -->
<g id="edge13" class="edge">
<title>Node11&#45;&gt;Node5</title>
<path fill="none" stroke="#191970" d="M307.4696,-56.2455C314.2836,-48.2958 324.0767,-36.8706 332.2239,-27.3656"/>
<polygon fill="#191970" stroke="#191970" points="334.9929,-29.513 338.8435,-19.6427 329.6781,-24.9575 334.9929,-29.513"/>
</g>
<!-- Node12&#45;&gt;Node1 -->
<g id="edge16" class="edge">
<title>Node12&#45;&gt;Node1</title>
<path fill="none" stroke="#191970" d="M453.8843,-58.3309C412.2464,-48.104 338.6443,-30.0263 294.2198,-19.115"/>
<polygon fill="#191970" stroke="#191970" points="294.9447,-15.6891 284.3984,-16.7028 293.2749,-22.4871 294.9447,-15.6891"/>
</g>
<!-- Node12&#45;&gt;Node5 -->
<g id="edge21" class="edge">
<title>Node12&#45;&gt;Node5</title>
<path fill="none" stroke="#191970" d="M461.3856,-56.3733C438.5268,-47.0972 403.7982,-33.0045 378.6256,-22.7895"/>
<polygon fill="#191970" stroke="#191970" points="379.7386,-19.464 369.1564,-18.9469 377.1065,-25.9503 379.7386,-19.464"/>
</g>
<!-- Node13 -->
<g id="node14" class="node">
<title>Node13</title>
<polygon fill="#ffffff" stroke="#bfbfbf" points="523.6086,-.5 523.6086,-19.5 558.6086,-19.5 558.6086,-.5 523.6086,-.5"/>
<text text-anchor="middle" x="541.1086" y="-7.5" font-family="Helvetica,sans-Serif" font-size="10.00" fill="#000000">map</text>
</g>
<!-- Node12&#45;&gt;Node13 -->
<g id="edge17" class="edge">
<title>Node12&#45;&gt;Node13</title>
<path fill="none" stroke="#191970" d="M494.8631,-56.2455C502.9734,-48.1352 514.7011,-36.4075 524.3167,-26.7919"/>
<polygon fill="#191970" stroke="#191970" points="526.8698,-29.1887 531.466,-19.6427 521.92,-24.2389 526.8698,-29.1887"/>
</g>
<!-- Node14 -->
<g id="node15" class="node">
<title>Node14</title>
<polygon fill="#ffffff" stroke="#bfbfbf" points="577.1086,-.5 577.1086,-19.5 629.1086,-19.5 629.1086,-.5 577.1086,-.5"/>
<text text-anchor="middle" x="603.1086" y="-7.5" font-family="Helvetica,sans-Serif" font-size="10.00" fill="#000000">sstream</text>
</g>
<!-- Node12&#45;&gt;Node14 -->
<g id="edge18" class="edge">
<title>Node12&#45;&gt;Node14</title>
<path fill="none" stroke="#191970" d="M505.3936,-56.3733C524.2507,-47.4241 552.5546,-33.9917 573.8541,-23.8835"/>
<polygon fill="#191970" stroke="#191970" points="575.5548,-26.9506 583.0884,-19.5011 572.5535,-20.6266 575.5548,-26.9506"/>
</g>
<!-- Node15 -->
<g id="node16" class="node">
<title>Node15</title>
<polygon fill="#ffffff" stroke="#bfbfbf" points="387.6086,-.5 387.6086,-19.5 446.6086,-19.5 446.6086,-.5 387.6086,-.5"/>
<text text-anchor="middle" x="417.1086" y="-7.5" font-family="Helvetica,sans-Serif" font-size="10.00" fill="#000000">stdexcept</text>
</g>
<!-- Node12&#45;&gt;Node15 -->
<g id="edge19" class="edge">
<title>Node12&#45;&gt;Node15</title>
<path fill="none" stroke="#191970" d="M473.2639,-56.2455C463.2207,-47.9746 448.6092,-35.9416 436.8083,-26.2232"/>
<polygon fill="#191970" stroke="#191970" points="438.7619,-23.298 428.8176,-19.6427 434.3119,-28.7015 438.7619,-23.298"/>
</g>
<!-- Node16 -->
<g id="node17" class="node">
<title>Node16</title>
<polygon fill="#ffffff" stroke="#bfbfbf" points="464.6086,-.5 464.6086,-19.5 505.6086,-19.5 505.6086,-.5 464.6086,-.5"/>
<text text-anchor="middle" x="485.1086" y="-7.5" font-family="Helvetica,sans-Serif" font-size="10.00" fill="#000000">string</text>
</g>
<!-- Node12&#45;&gt;Node16 -->
<g id="edge20" class="edge">
<title>Node12&#45;&gt;Node16</title>
<path fill="none" stroke="#191970" d="M485.1086,-56.2455C485.1086,-48.9382 485.1086,-38.6944 485.1086,-29.7046"/>
<polygon fill="#191970" stroke="#191970" points="488.6087,-29.6426 485.1086,-19.6427 481.6087,-29.6427 488.6087,-29.6426"/>
</g>
</g>
</svg>
