<?xml version="1.0" encoding="UTF-8" standalone="no"?>
<!DOCTYPE svg PUBLIC "-//W3C//DTD SVG 1.1//EN"
 "http://www.w3.org/Graphics/SVG/1.1/DTD/svg11.dtd">
<!-- Generated by graphviz version 2.40.1 (20161225.0304)
 -->
<!-- Title: River::TreeVector Pages: 1 -->
<svg width="418pt" height="344pt"
 viewBox="0.00 0.00 418.00 344.00" xmlns="http://www.w3.org/2000/svg" xmlns:xlink="http://www.w3.org/1999/xlink">
<g id="graph0" class="graph" transform="scale(1 1) rotate(0) translate(4 340)">
<title>River::TreeVector</title>
<polygon fill="#ffffff" stroke="transparent" points="-4,4 -4,-340 414,-340 414,4 -4,4"/>
<!-- Node4 -->
<g id="node1" class="node">
<title>Node4</title>
<polygon fill="#bfbfbf" stroke="#000000" points="0,-152.5 0,-171.5 94,-171.5 94,-152.5 0,-152.5"/>
<text text-anchor="middle" x="47" y="-159.5" font-family="Helvetica,sans-Serif" font-size="10.00" fill="#000000">River::TreeVector</text>
</g>
<!-- Node5 -->
<g id="node2" class="node">
<title>Node5</title>
<g id="a_node2"><a xlink:href="classRiver_1_1Tree.html#a7e4887a6f4c0c6a0e164128e0fe5f19a" target="_top" xlink:title="Returns link to branch with . ">
<polygon fill="#ffffff" stroke="#000000" points="145,-316.5 145,-335.5 263,-335.5 263,-316.5 145,-316.5"/>
<text text-anchor="middle" x="204" y="-323.5" font-family="Helvetica,sans-Serif" font-size="10.00" fill="#000000">River::Tree::GetBranch</text>
</a>
</g>
</g>
<!-- Node4&#45;&gt;Node5 -->
<g id="edge1" class="edge">
<title>Node4&#45;&gt;Node5</title>
<path fill="none" stroke="#191970" d="M49.5983,-171.5248C57.2112,-197.565 82.0111,-270.4339 130,-307 132.4529,-308.8691 135.0707,-310.5553 137.8031,-312.0766"/>
<polygon fill="#191970" stroke="#191970" points="136.3257,-315.2497 146.8584,-316.3954 139.3391,-308.9315 136.3257,-315.2497"/>
</g>
<!-- Node6 -->
<g id="node3" class="node">
<title>Node6</title>
<g id="a_node3"><a xlink:href="classRiver_1_1BranchNew.html#ad31e9de44351f77a06bce668094cf2f4" target="_top" xlink:title="Returns number of points in branch. ">
<polygon fill="#ffffff" stroke="#000000" points="143,-278.5 143,-297.5 265,-297.5 265,-278.5 143,-278.5"/>
<text text-anchor="middle" x="204" y="-285.5" font-family="Helvetica,sans-Serif" font-size="10.00" fill="#000000">River::BranchNew::Size</text>
</a>
</g>
</g>
<!-- Node4&#45;&gt;Node6 -->
<g id="edge2" class="edge">
<title>Node4&#45;&gt;Node6</title>
<path fill="none" stroke="#191970" d="M51.6963,-171.7314C62.4329,-192.9056 90.8966,-243.3142 130,-269 133.1214,-271.0504 136.4514,-272.8796 139.9063,-274.5114"/>
<polygon fill="#191970" stroke="#191970" points="138.7071,-277.8029 149.2859,-278.3865 141.38,-271.3333 138.7071,-277.8029"/>
</g>
<!-- Node7 -->
<g id="node4" class="node">
<title>Node7</title>
<g id="a_node4"><a xlink:href="classRiver_1_1BranchNew.html#aada65e4898e1bd299aa7fa9fe36e05bb" target="_top" xlink:title="River::BranchNew::GetPoint">
<polygon fill="#ffffff" stroke="#000000" points="133.5,-240.5 133.5,-259.5 274.5,-259.5 274.5,-240.5 133.5,-240.5"/>
<text text-anchor="middle" x="204" y="-247.5" font-family="Helvetica,sans-Serif" font-size="10.00" fill="#000000">River::BranchNew::GetPoint</text>
</a>
</g>
</g>
<!-- Node4&#45;&gt;Node7 -->
<g id="edge3" class="edge">
<title>Node4&#45;&gt;Node7</title>
<path fill="none" stroke="#191970" d="M55.7174,-171.5805C69.8519,-186.5288 99.2976,-215.3098 130,-231 134.6063,-233.354 139.5265,-235.4317 144.5582,-237.2627"/>
<polygon fill="#191970" stroke="#191970" points="143.7252,-240.6735 154.3184,-240.4875 145.9213,-234.0269 143.7252,-240.6735"/>
</g>
<!-- Node8 -->
<g id="node5" class="node">
<title>Node8</title>
<g id="a_node5"><a xlink:href="classRiver_1_1BranchNew.html#a5d3d81efc31f625bbddcbd5b17f405b9" target="_top" xlink:title="Returns SourceAngle of branch &#45; initial . ">
<polygon fill="#ffffff" stroke="#000000" points="137,-191 137,-221 271,-221 271,-191 137,-191"/>
<text text-anchor="start" x="145" y="-209" font-family="Helvetica,sans-Serif" font-size="10.00" fill="#000000">River::BranchNew::Source</text>
<text text-anchor="middle" x="204" y="-198" font-family="Helvetica,sans-Serif" font-size="10.00" fill="#000000">Angle</text>
</a>
</g>
</g>
<!-- Node4&#45;&gt;Node8 -->
<g id="edge4" class="edge">
<title>Node4&#45;&gt;Node8</title>
<path fill="none" stroke="#191970" d="M81.0667,-171.5473C98.4274,-176.4128 120.1113,-182.4898 140.4135,-188.1796"/>
<polygon fill="#191970" stroke="#191970" points="139.6705,-191.6061 150.244,-190.9346 141.5596,-184.8658 139.6705,-191.6061"/>
</g>
<!-- Node9 -->
<g id="node6" class="node">
<title>Node9</title>
<g id="a_node6"><a xlink:href="classRiver_1_1BranchNew.html#a4e49c832969fde3d72bf9049a819cc04" target="_top" xlink:title="Returns vector of i&#45;th segment of branch. ">
<polygon fill="#ffffff" stroke="#000000" points="138.5,-152.5 138.5,-171.5 269.5,-171.5 269.5,-152.5 138.5,-152.5"/>
<text text-anchor="middle" x="204" y="-159.5" font-family="Helvetica,sans-Serif" font-size="10.00" fill="#000000">River::BranchNew::Vector</text>
</a>
</g>
</g>
<!-- Node4&#45;&gt;Node9 -->
<g id="edge5" class="edge">
<title>Node4&#45;&gt;Node9</title>
<path fill="none" stroke="#191970" d="M94.1052,-162C104.8635,-162 116.5637,-162 128.1853,-162"/>
<polygon fill="#191970" stroke="#191970" points="128.3524,-165.5001 138.3524,-162 128.3524,-158.5001 128.3524,-165.5001"/>
</g>
<!-- Node10 -->
<g id="node7" class="node">
<title>Node10</title>
<g id="a_node7"><a xlink:href="classRiver_1_1Point.html#aa6005dcc4bb5ded97a0b9a5eb28bc528" target="_top" xlink:title="River::Point::normalize">
<polygon fill="#ffffff" stroke="#000000" points="146,-114.5 146,-133.5 262,-133.5 262,-114.5 146,-114.5"/>
<text text-anchor="middle" x="204" y="-121.5" font-family="Helvetica,sans-Serif" font-size="10.00" fill="#000000">River::Point::normalize</text>
</a>
</g>
</g>
<!-- Node4&#45;&gt;Node10 -->
<g id="edge6" class="edge">
<title>Node4&#45;&gt;Node10</title>
<path fill="none" stroke="#191970" d="M86.6177,-152.411C107.3356,-147.3965 132.8875,-141.2119 154.856,-135.8947"/>
<polygon fill="#191970" stroke="#191970" points="155.7712,-139.2744 164.6672,-133.5201 154.1244,-132.4708 155.7712,-139.2744"/>
</g>
<!-- Node12 -->
<g id="node9" class="node">
<title>Node12</title>
<g id="a_node9"><a xlink:href="classRiver_1_1Point.html#a99648a8a3af61babbcbcdbe0de12db71" target="_top" xlink:title="River::Point::rotate">
<polygon fill="#ffffff" stroke="#000000" points="154.5,-76.5 154.5,-95.5 253.5,-95.5 253.5,-76.5 154.5,-76.5"/>
<text text-anchor="middle" x="204" y="-83.5" font-family="Helvetica,sans-Serif" font-size="10.00" fill="#000000">River::Point::rotate</text>
</a>
</g>
</g>
<!-- Node4&#45;&gt;Node12 -->
<g id="edge8" class="edge">
<title>Node4&#45;&gt;Node12</title>
<path fill="none" stroke="#191970" d="M58.3055,-152.293C73.5903,-139.6453 102.1501,-117.6565 130,-105 135.3377,-102.5742 141.0384,-100.4197 146.8176,-98.5151"/>
<polygon fill="#191970" stroke="#191970" points="148.0231,-101.8066 156.5673,-95.5419 145.9812,-95.1111 148.0231,-101.8066"/>
</g>
<!-- Node13 -->
<g id="node10" class="node">
<title>Node13</title>
<g id="a_node10"><a xlink:href="classRiver_1_1Tree.html#a0df36a9d86f78e51104c0e028f3a2983" target="_top" xlink:title="Checks if Branch &#160;has subbranches. ">
<polygon fill="#ffffff" stroke="#000000" points="130,-38.5 130,-57.5 278,-57.5 278,-38.5 130,-38.5"/>
<text text-anchor="middle" x="204" y="-45.5" font-family="Helvetica,sans-Serif" font-size="10.00" fill="#000000">River::Tree::HasSubBranches</text>
</a>
</g>
</g>
<!-- Node4&#45;&gt;Node13 -->
<g id="edge9" class="edge">
<title>Node4&#45;&gt;Node13</title>
<path fill="none" stroke="#191970" d="M52.6979,-152.2036C64.5125,-132.7936 93.6362,-89.396 130,-67 133.5575,-64.8089 137.36,-62.8694 141.2932,-61.1527"/>
<polygon fill="#191970" stroke="#191970" points="142.5866,-64.4053 150.6544,-57.5379 140.0649,-57.8752 142.5866,-64.4053"/>
</g>
<!-- Node14 -->
<g id="node11" class="node">
<title>Node14</title>
<g id="a_node11"><a xlink:href="classRiver_1_1Tree.html#a87e5469392220bb6dcdfca99add6b1f8" target="_top" xlink:title="River::Tree::GetSubBranches">
<polygon fill="#ffffff" stroke="#000000" points="131,-.5 131,-19.5 277,-19.5 277,-.5 131,-.5"/>
<text text-anchor="middle" x="204" y="-7.5" font-family="Helvetica,sans-Serif" font-size="10.00" fill="#000000">River::Tree::GetSubBranches</text>
</a>
</g>
</g>
<!-- Node4&#45;&gt;Node14 -->
<g id="edge10" class="edge">
<title>Node4&#45;&gt;Node14</title>
<path fill="none" stroke="#191970" d="M50.2101,-152.1928C58.8402,-127.4215 84.9843,-61.9667 130,-29 132.5399,-27.14 135.2448,-25.4615 138.0625,-23.947"/>
<polygon fill="#191970" stroke="#191970" points="139.7679,-27.0147 147.3806,-19.646 136.8343,-20.6591 139.7679,-27.0147"/>
</g>
<!-- Node11 -->
<g id="node8" class="node">
<title>Node11</title>
<g id="a_node8"><a xlink:href="classRiver_1_1Point.html#a96d6c70f36acd051f5885163bc2de5b5" target="_top" xlink:title="River::Point::norm">
<polygon fill="#ffffff" stroke="#000000" points="314,-114.5 314,-133.5 410,-133.5 410,-114.5 314,-114.5"/>
<text text-anchor="middle" x="362" y="-121.5" font-family="Helvetica,sans-Serif" font-size="10.00" fill="#000000">River::Point::norm</text>
</a>
</g>
</g>
<!-- Node10&#45;&gt;Node11 -->
<g id="edge7" class="edge">
<title>Node10&#45;&gt;Node11</title>
<path fill="none" stroke="#191970" d="M262.3845,-124C275.9043,-124 290.2902,-124 303.802,-124"/>
<polygon fill="#191970" stroke="#191970" points="303.9354,-127.5001 313.9353,-124 303.9353,-120.5001 303.9354,-127.5001"/>
</g>
</g>
</svg>
