<?xml version="1.0" encoding="UTF-8" standalone="no"?>
<!DOCTYPE svg PUBLIC "-//W3C//DTD SVG 1.1//EN"
 "http://www.w3.org/Graphics/SVG/1.1/DTD/svg11.dtd">
<!-- Generated by graphviz version 2.40.1 (20161225.0304)
 -->
<!-- Title: River::coefficient Pages: 1 -->
<svg width="641pt" height="53pt"
 viewBox="0.00 0.00 641.00 52.50" xmlns="http://www.w3.org/2000/svg" xmlns:xlink="http://www.w3.org/1999/xlink">
<g id="graph0" class="graph" transform="scale(1 1) rotate(0) translate(4 48.5)">
<title>River::coefficient</title>
<polygon fill="#ffffff" stroke="transparent" points="-4,4 -4,-48.5 637,-48.5 637,4 -4,4"/>
<!-- Node97 -->
<g id="node1" class="node">
<title>Node97</title>
<polygon fill="#bfbfbf" stroke="#000000" points="0,-19.5 0,-38.5 91,-38.5 91,-19.5 0,-19.5"/>
<text text-anchor="middle" x="45.5" y="-26.5" font-family="Helvetica,sans-Serif" font-size="10.00" fill="#000000">River::coefficient</text>
</g>
<!-- Node98 -->
<g id="node2" class="node">
<title>Node98</title>
<g id="a_node2"><a xlink:href="classRiver_1_1Solver.html#af16fb58ac78609220538d62c2c491249" target="_top" xlink:title="River::Solver::assemble\l_system">
<polygon fill="#ffffff" stroke="#000000" points="127,-14 127,-44 249,-44 249,-14 127,-14"/>
<text text-anchor="start" x="135" y="-32" font-family="Helvetica,sans-Serif" font-size="10.00" fill="#000000">River::Solver::assemble</text>
<text text-anchor="middle" x="188" y="-21" font-family="Helvetica,sans-Serif" font-size="10.00" fill="#000000">_system</text>
</a>
</g>
</g>
<!-- Node97&#45;&gt;Node98 -->
<g id="edge1" class="edge">
<title>Node97&#45;&gt;Node98</title>
<path fill="none" stroke="#191970" d="M101.3925,-29C109.7549,-29 118.4135,-29 126.8776,-29"/>
<polygon fill="#191970" stroke="#191970" points="101.3723,-25.5001 91.3723,-29 101.3722,-32.5001 101.3723,-25.5001"/>
</g>
<!-- Node99 -->
<g id="node3" class="node">
<title>Node99</title>
<g id="a_node3"><a xlink:href="classRiver_1_1Solver.html#a4222fe744d607f870a5d7d22b11e8334" target="_top" xlink:title="River::Solver::run">
<polygon fill="#ffffff" stroke="#000000" points="285,-19.5 285,-38.5 378,-38.5 378,-19.5 285,-19.5"/>
<text text-anchor="middle" x="331.5" y="-26.5" font-family="Helvetica,sans-Serif" font-size="10.00" fill="#000000">River::Solver::run</text>
</a>
</g>
</g>
<!-- Node98&#45;&gt;Node99 -->
<g id="edge2" class="edge">
<title>Node98&#45;&gt;Node99</title>
<path fill="none" stroke="#191970" d="M259.3632,-29C267.9867,-29 276.6177,-29 284.7578,-29"/>
<polygon fill="#191970" stroke="#191970" points="259.2732,-25.5001 249.2732,-29 259.2731,-32.5001 259.2732,-25.5001"/>
</g>
<!-- Node100 -->
<g id="node4" class="node">
<title>Node100</title>
<g id="a_node4"><a xlink:href="main_8cpp.html#a0ddf1224851353fc92bfbff6f499fa97" target="_top" xlink:title="Entry point of RiverSim program. ">
<polygon fill="#ffffff" stroke="#000000" points="595,-19.5 595,-38.5 633,-38.5 633,-19.5 595,-19.5"/>
<text text-anchor="middle" x="614" y="-26.5" font-family="Helvetica,sans-Serif" font-size="10.00" fill="#000000">main</text>
</a>
</g>
</g>
<!-- Node99&#45;&gt;Node100 -->
<g id="edge3" class="edge">
<title>Node99&#45;&gt;Node100</title>
<path fill="none" stroke="#191970" d="M388.4871,-29C452.512,-29 552.9413,-29 594.7424,-29"/>
<polygon fill="#191970" stroke="#191970" points="388.1492,-25.5001 378.1491,-29 388.1491,-32.5001 388.1492,-25.5001"/>
</g>
<!-- Node101 -->
<g id="node5" class="node">
<title>Node101</title>
<g id="a_node5"><a xlink:href="namespaceRiver.html#a494b68e2992de95500d6d81770de62ed" target="_top" xlink:title="River::ForwardRiverEvolution">
<polygon fill="#ffffff" stroke="#000000" points="414,-.5 414,-19.5 559,-19.5 559,-.5 414,-.5"/>
<text text-anchor="middle" x="486.5" y="-7.5" font-family="Helvetica,sans-Serif" font-size="10.00" fill="#000000">River::ForwardRiverEvolution</text>
</a>
</g>
</g>
<!-- Node99&#45;&gt;Node101 -->
<g id="edge4" class="edge">
<title>Node99&#45;&gt;Node101</title>
<path fill="none" stroke="#191970" d="M388.0614,-22.0667C396.4747,-21.0354 405.2438,-19.9604 413.9301,-18.8957"/>
<polygon fill="#191970" stroke="#191970" points="387.5049,-18.6086 378.0051,-23.2994 388.3567,-25.5566 387.5049,-18.6086"/>
</g>
<!-- Node101&#45;&gt;Node100 -->
<g id="edge5" class="edge">
<title>Node101&#45;&gt;Node100</title>
<path fill="none" stroke="#191970" d="M560.7834,-21.0697C573.3501,-22.9424 585.3551,-24.7313 594.7718,-26.1346"/>
<polygon fill="#191970" stroke="#191970" points="561.0302,-17.5679 550.6235,-19.5557 559.9984,-24.4914 561.0302,-17.5679"/>
</g>
</g>
</svg>
