<?xml version="1.0" encoding="UTF-8" standalone="no"?>
<!DOCTYPE svg PUBLIC "-//W3C//DTD SVG 1.1//EN"
 "http://www.w3.org/Graphics/SVG/1.1/DTD/svg11.dtd">
<!-- Generated by graphviz version 2.40.1 (20161225.0304)
 -->
<!-- Title: tethex::d2s Pages: 1 -->
<svg width="857pt" height="839pt"
 viewBox="0.00 0.00 857.00 838.50" xmlns="http://www.w3.org/2000/svg" xmlns:xlink="http://www.w3.org/1999/xlink">
<g id="graph0" class="graph" transform="scale(1 1) rotate(0) translate(4 834.5)">
<title>tethex::d2s</title>
<polygon fill="#ffffff" stroke="transparent" points="-4,4 -4,-834.5 853,-834.5 853,4 -4,4"/>
<!-- Node26 -->
<g id="node1" class="node">
<title>Node26</title>
<polygon fill="#bfbfbf" stroke="#000000" points="0,-384.5 0,-403.5 65,-403.5 65,-384.5 0,-384.5"/>
<text text-anchor="middle" x="32.5" y="-391.5" font-family="Helvetica,sans-Serif" font-size="10.00" fill="#000000">tethex::d2s</text>
</g>
<!-- Node27 -->
<g id="node2" class="node">
<title>Node27</title>
<g id="a_node2"><a xlink:href="namespacetethex.html#a7132a071af39d1f1e9fbbfb34f3aab2f" target="_top" xlink:title="Throw an informative exception, if requirement or expectation fails. ">
<polygon fill="#ffffff" stroke="#000000" points="113,-800 113,-830 214,-830 214,-800 113,-800"/>
<text text-anchor="start" x="121" y="-818" font-family="Helvetica,sans-Serif" font-size="10.00" fill="#000000">tethex::requirement</text>
<text text-anchor="middle" x="163.5" y="-807" font-family="Helvetica,sans-Serif" font-size="10.00" fill="#000000">_fails</text>
</a>
</g>
</g>
<!-- Node26&#45;&gt;Node27 -->
<g id="edge1" class="edge">
<title>Node26&#45;&gt;Node27</title>
<path fill="none" stroke="#191970" d="M33.3882,-413.8784C36.982,-485.9121 52.6476,-732.1168 101,-791 104.3193,-795.0422 108.4029,-798.4049 112.8794,-801.2021"/>
<polygon fill="#191970" stroke="#191970" points="36.8672,-413.3524 32.8966,-403.5297 29.8751,-413.6845 36.8672,-413.3524"/>
</g>
<!-- Node28 -->
<g id="node3" class="node">
<title>Node28</title>
<g id="a_node3"><a xlink:href="classtethex_1_1Point.html#afd64f338ed62a8735cde178689773f89" target="_top" xlink:title="Get the coordinate of the point. ">
<polygon fill="#ffffff" stroke="#000000" points="117.5,-751 117.5,-781 209.5,-781 209.5,-751 117.5,-751"/>
<text text-anchor="start" x="125.5" y="-769" font-family="Helvetica,sans-Serif" font-size="10.00" fill="#000000">tethex::Point::get</text>
<text text-anchor="middle" x="163.5" y="-758" font-family="Helvetica,sans-Serif" font-size="10.00" fill="#000000">_coord</text>
</a>
</g>
</g>
<!-- Node26&#45;&gt;Node28 -->
<g id="edge2" class="edge">
<title>Node26&#45;&gt;Node28</title>
<path fill="none" stroke="#191970" d="M33.9236,-413.9417C39.0217,-480.1469 58.3772,-691.32 101,-742 105.4139,-747.2483 111.1131,-751.3523 117.2705,-754.5606"/>
<polygon fill="#191970" stroke="#191970" points="37.3903,-413.3631 33.1576,-403.6505 30.4097,-413.8828 37.3903,-413.3631"/>
</g>
<!-- Node29 -->
<g id="node4" class="node">
<title>Node29</title>
<g id="a_node4"><a xlink:href="classtethex_1_1Point.html#a67f61f4c0363e42205a4dd1056ccf189" target="_top" xlink:title="Set the value of specific coordinate. ">
<polygon fill="#ffffff" stroke="#000000" points="117.5,-702 117.5,-732 209.5,-732 209.5,-702 117.5,-702"/>
<text text-anchor="start" x="125.5" y="-720" font-family="Helvetica,sans-Serif" font-size="10.00" fill="#000000">tethex::Point::set</text>
<text text-anchor="middle" x="163.5" y="-709" font-family="Helvetica,sans-Serif" font-size="10.00" fill="#000000">_coord</text>
</a>
</g>
</g>
<!-- Node26&#45;&gt;Node29 -->
<g id="edge3" class="edge">
<title>Node26&#45;&gt;Node29</title>
<path fill="none" stroke="#191970" d="M34.611,-413.813C41.3388,-473.5482 64.0307,-650.3943 101,-693 105.4944,-698.1796 111.2369,-702.2465 117.4135,-705.4385"/>
<polygon fill="#191970" stroke="#191970" points="38.081,-413.3477 33.5095,-403.7899 31.1229,-414.1124 38.081,-413.3477"/>
</g>
<!-- Node30 -->
<g id="node5" class="node">
<title>Node30</title>
<g id="a_node5"><a xlink:href="classtethex_1_1MeshElement.html#adfcce5cfca86923678a212405ce784a4" target="_top" xlink:title="Get the number of vertices. ">
<polygon fill="#ffffff" stroke="#000000" points="108.5,-653 108.5,-683 218.5,-683 218.5,-653 108.5,-653"/>
<text text-anchor="start" x="116.5" y="-671" font-family="Helvetica,sans-Serif" font-size="10.00" fill="#000000">tethex::MeshElement</text>
<text text-anchor="middle" x="163.5" y="-660" font-family="Helvetica,sans-Serif" font-size="10.00" fill="#000000">::get_n_vertices</text>
</a>
</g>
</g>
<!-- Node26&#45;&gt;Node30 -->
<g id="edge4" class="edge">
<title>Node26&#45;&gt;Node30</title>
<path fill="none" stroke="#191970" d="M35.8687,-413.6709C45.0401,-465.3093 71.7364,-603.15 101,-638 106.0309,-643.9913 112.5363,-648.8742 119.4431,-652.8253"/>
<polygon fill="#191970" stroke="#191970" points="39.2634,-412.7643 34.095,-403.5156 32.3678,-413.9687 39.2634,-412.7643"/>
</g>
<!-- Node31 -->
<g id="node6" class="node">
<title>Node31</title>
<g id="a_node6"><a xlink:href="classtethex_1_1MeshElement.html#a1292194d3034289522ad23b8e7366320" target="_top" xlink:title="Set the number of vertex. ">
<polygon fill="#ffffff" stroke="#000000" points="267.5,-611 267.5,-641 377.5,-641 377.5,-611 267.5,-611"/>
<text text-anchor="start" x="275.5" y="-629" font-family="Helvetica,sans-Serif" font-size="10.00" fill="#000000">tethex::MeshElement</text>
<text text-anchor="middle" x="322.5" y="-618" font-family="Helvetica,sans-Serif" font-size="10.00" fill="#000000">::set_vertex</text>
</a>
</g>
</g>
<!-- Node26&#45;&gt;Node31 -->
<g id="edge13" class="edge">
<title>Node26&#45;&gt;Node31</title>
<path fill="none" stroke="#191970" d="M36.0802,-413.7691C45.1308,-461.4151 70.3971,-580.4692 101,-605 147.4149,-642.2054 218.1427,-642.2475 267.1355,-636.3746"/>
<polygon fill="#191970" stroke="#191970" points="39.4906,-412.9641 34.2218,-403.7723 32.6085,-414.2436 39.4906,-412.9641"/>
</g>
<!-- Node32 -->
<g id="node7" class="node">
<title>Node32</title>
<g id="a_node7"><a xlink:href="classtethex_1_1MeshElement.html#afe3e591c355947a7f1fe9499147d9804" target="_top" xlink:title="Get the number of edges. ">
<polygon fill="#ffffff" stroke="#000000" points="108.5,-565 108.5,-595 218.5,-595 218.5,-565 108.5,-565"/>
<text text-anchor="start" x="116.5" y="-583" font-family="Helvetica,sans-Serif" font-size="10.00" fill="#000000">tethex::MeshElement</text>
<text text-anchor="middle" x="163.5" y="-572" font-family="Helvetica,sans-Serif" font-size="10.00" fill="#000000">::get_n_edges</text>
</a>
</g>
</g>
<!-- Node26&#45;&gt;Node32 -->
<g id="edge6" class="edge">
<title>Node26&#45;&gt;Node32</title>
<path fill="none" stroke="#191970" d="M36.4789,-413.708C43.9137,-445.974 62.7462,-510.4322 101,-550 106.7724,-555.9707 113.9736,-560.9022 121.414,-564.921"/>
<polygon fill="#191970" stroke="#191970" points="39.8547,-412.7602 34.3113,-403.7313 33.0142,-414.2464 39.8547,-412.7602"/>
</g>
<!-- Node33 -->
<g id="node8" class="node">
<title>Node33</title>
<g id="a_node8"><a xlink:href="classtethex_1_1MeshElement.html#ac9fa106da52049721770a0eb4f46bcc1" target="_top" xlink:title="Set the number of edge. ">
<polygon fill="#ffffff" stroke="#000000" points="267.5,-562 267.5,-592 377.5,-592 377.5,-562 267.5,-562"/>
<text text-anchor="start" x="275.5" y="-580" font-family="Helvetica,sans-Serif" font-size="10.00" fill="#000000">tethex::MeshElement</text>
<text text-anchor="middle" x="322.5" y="-569" font-family="Helvetica,sans-Serif" font-size="10.00" fill="#000000">::set_edge</text>
</a>
</g>
</g>
<!-- Node26&#45;&gt;Node33 -->
<g id="edge14" class="edge">
<title>Node26&#45;&gt;Node33</title>
<path fill="none" stroke="#191970" d="M37.9779,-413.2786C46.7294,-440.5364 66.4925,-490.0191 101,-517 114.2409,-527.3529 206.2712,-550.128 267.4648,-564.4499"/>
<polygon fill="#191970" stroke="#191970" points="41.3242,-412.2524 35.0662,-403.7032 34.627,-414.2889 41.3242,-412.2524"/>
</g>
<!-- Node34 -->
<g id="node9" class="node">
<title>Node34</title>
<g id="a_node9"><a xlink:href="classtethex_1_1MeshElement.html#aed911a47266af4848f1e8bdd0c89e177" target="_top" xlink:title="Get the number of vertex describing the element. ">
<polygon fill="#ffffff" stroke="#000000" points="108.5,-477 108.5,-507 218.5,-507 218.5,-477 108.5,-477"/>
<text text-anchor="start" x="116.5" y="-495" font-family="Helvetica,sans-Serif" font-size="10.00" fill="#000000">tethex::MeshElement</text>
<text text-anchor="middle" x="163.5" y="-484" font-family="Helvetica,sans-Serif" font-size="10.00" fill="#000000">::get_vertex</text>
</a>
</g>
</g>
<!-- Node26&#45;&gt;Node34 -->
<g id="edge8" class="edge">
<title>Node26&#45;&gt;Node34</title>
<path fill="none" stroke="#191970" d="M45.5216,-412.2813C58.0946,-428.7883 78.4965,-452.7591 101,-468 105.9081,-471.3241 111.3411,-474.2763 116.8952,-476.8728"/>
<polygon fill="#191970" stroke="#191970" points="48.1409,-409.937 39.3784,-403.9814 42.5144,-414.1015 48.1409,-409.937"/>
</g>
<!-- Node38 -->
<g id="node13" class="node">
<title>Node38</title>
<g id="a_node13"><a xlink:href="classtethex_1_1MeshElement.html#a81336e6acfc114735bac5f2d0bb63079" target="_top" xlink:title="Get the number of edge describing the element. ">
<polygon fill="#ffffff" stroke="#000000" points="108.5,-428 108.5,-458 218.5,-458 218.5,-428 108.5,-428"/>
<text text-anchor="start" x="116.5" y="-446" font-family="Helvetica,sans-Serif" font-size="10.00" fill="#000000">tethex::MeshElement</text>
<text text-anchor="middle" x="163.5" y="-435" font-family="Helvetica,sans-Serif" font-size="10.00" fill="#000000">::get_edge</text>
</a>
</g>
</g>
<!-- Node26&#45;&gt;Node38 -->
<g id="edge12" class="edge">
<title>Node26&#45;&gt;Node38</title>
<path fill="none" stroke="#191970" d="M67.7029,-407.1675C84.8451,-413.5795 105.5383,-421.3197 123.2991,-427.963"/>
<polygon fill="#191970" stroke="#191970" points="68.6615,-403.7893 58.0691,-403.564 66.2091,-410.3457 68.6615,-403.7893"/>
</g>
<!-- Node39 -->
<g id="node14" class="node">
<title>Node39</title>
<g id="a_node14"><a xlink:href="classtethex_1_1PhysPoint.html#a7869b6e9d79b512aaa102a08cb54e674" target="_top" xlink:title="Constructor with parameters. ">
<polygon fill="#ffffff" stroke="#000000" points="113,-379 113,-409 214,-409 214,-379 113,-379"/>
<text text-anchor="start" x="121" y="-397" font-family="Helvetica,sans-Serif" font-size="10.00" fill="#000000">tethex::PhysPoint::</text>
<text text-anchor="middle" x="163.5" y="-386" font-family="Helvetica,sans-Serif" font-size="10.00" fill="#000000">PhysPoint</text>
</a>
</g>
</g>
<!-- Node26&#45;&gt;Node39 -->
<g id="edge15" class="edge">
<title>Node26&#45;&gt;Node39</title>
<path fill="none" stroke="#191970" d="M75.3965,-394C87.3686,-394 100.4889,-394 112.8622,-394"/>
<polygon fill="#191970" stroke="#191970" points="75.2189,-390.5001 65.2189,-394 75.2189,-397.5001 75.2189,-390.5001"/>
</g>
<!-- Node40 -->
<g id="node15" class="node">
<title>Node40</title>
<g id="a_node15"><a xlink:href="classtethex_1_1Line.html#a93a11c2ccbd126bc87fb3f490267fad4" target="_top" xlink:title="Constructor with parameters. ">
<polygon fill="#ffffff" stroke="#000000" points="117.5,-340.5 117.5,-359.5 209.5,-359.5 209.5,-340.5 117.5,-340.5"/>
<text text-anchor="middle" x="163.5" y="-347.5" font-family="Helvetica,sans-Serif" font-size="10.00" fill="#000000">tethex::Line::Line</text>
</a>
</g>
</g>
<!-- Node26&#45;&gt;Node40 -->
<g id="edge16" class="edge">
<title>Node26&#45;&gt;Node40</title>
<path fill="none" stroke="#191970" d="M68.7309,-381.0988C79.1299,-377.4521 90.4969,-373.5197 101,-370 111.3702,-366.5248 122.7518,-362.8435 132.928,-359.5994"/>
<polygon fill="#191970" stroke="#191970" points="67.3865,-377.8615 59.117,-384.4847 69.7119,-384.464 67.3865,-377.8615"/>
</g>
<!-- Node41 -->
<g id="node16" class="node">
<title>Node41</title>
<g id="a_node16"><a xlink:href="classtethex_1_1Triangle.html#ada5ab0c05b12d70f881ee58708cae514" target="_top" xlink:title="Constructor with parameters. ">
<polygon fill="#ffffff" stroke="#000000" points="101,-302.5 101,-321.5 226,-321.5 226,-302.5 101,-302.5"/>
<text text-anchor="middle" x="163.5" y="-309.5" font-family="Helvetica,sans-Serif" font-size="10.00" fill="#000000">tethex::Triangle::Triangle</text>
</a>
</g>
</g>
<!-- Node26&#45;&gt;Node41 -->
<g id="edge17" class="edge">
<title>Node26&#45;&gt;Node41</title>
<path fill="none" stroke="#191970" d="M47.0646,-376.8605C59.9342,-362.7131 79.8942,-343.0665 101,-331 107.5965,-327.2287 115.0212,-324.13 122.3887,-321.6101"/>
<polygon fill="#191970" stroke="#191970" points="44.3514,-374.6452 40.3514,-384.4559 49.5964,-379.2809 44.3514,-374.6452"/>
</g>
<!-- Node42 -->
<g id="node17" class="node">
<title>Node42</title>
<g id="a_node17"><a xlink:href="classtethex_1_1Quadrangle.html#a0b5b803f8c4264e899c8e7d07e90fe53" target="_top" xlink:title="Constructor with parameters. ">
<polygon fill="#ffffff" stroke="#000000" points="114,-253 114,-283 213,-283 213,-253 114,-253"/>
<text text-anchor="start" x="122" y="-271" font-family="Helvetica,sans-Serif" font-size="10.00" fill="#000000">tethex::Quadrangle</text>
<text text-anchor="middle" x="163.5" y="-260" font-family="Helvetica,sans-Serif" font-size="10.00" fill="#000000">::Quadrangle</text>
</a>
</g>
</g>
<!-- Node26&#45;&gt;Node42 -->
<g id="edge18" class="edge">
<title>Node26&#45;&gt;Node42</title>
<path fill="none" stroke="#191970" d="M41.0038,-375.0967C51.9483,-352.698 72.9458,-315.5786 101,-293 105.7342,-289.1898 111.1239,-285.896 116.7074,-283.0661"/>
<polygon fill="#191970" stroke="#191970" points="37.7886,-373.709 36.6934,-384.2471 44.1212,-376.6921 37.7886,-373.709"/>
</g>
<!-- Node43 -->
<g id="node18" class="node">
<title>Node43</title>
<g id="a_node18"><a xlink:href="classtethex_1_1IncidenceMatrix.html#a1d659ff5b0bba8be07196b23ded3d58d" target="_top" xlink:title="Find a serial number of the non zero element in the matrix. ">
<polygon fill="#ffffff" stroke="#000000" points="104,-165 104,-195 223,-195 223,-165 104,-165"/>
<text text-anchor="start" x="112" y="-183" font-family="Helvetica,sans-Serif" font-size="10.00" fill="#000000">tethex::IncidenceMatrix</text>
<text text-anchor="middle" x="163.5" y="-172" font-family="Helvetica,sans-Serif" font-size="10.00" fill="#000000">::find</text>
</a>
</g>
</g>
<!-- Node26&#45;&gt;Node43 -->
<g id="edge19" class="edge">
<title>Node26&#45;&gt;Node43</title>
<path fill="none" stroke="#191970" d="M34.9197,-374.3847C40.3868,-337.7718 56.8502,-258.3685 101,-210 106.4365,-204.044 113.3084,-199.1507 120.4919,-195.1718"/>
<polygon fill="#191970" stroke="#191970" points="31.4524,-373.9083 33.5576,-384.2918 38.3872,-374.8618 31.4524,-373.9083"/>
</g>
<!-- Node44 -->
<g id="node19" class="node">
<title>Node44</title>
<g id="a_node19"><a xlink:href="classtethex_1_1Mesh.html#ac4c7819413f5941593722fa1024e1f25" target="_top" xlink:title="During mesh conversion we add new vertices. ">
<polygon fill="#ffffff" stroke="#000000" points="265.5,-214 265.5,-244 379.5,-244 379.5,-214 265.5,-214"/>
<text text-anchor="start" x="273.5" y="-232" font-family="Helvetica,sans-Serif" font-size="10.00" fill="#000000">tethex::Mesh::redefine</text>
<text text-anchor="middle" x="322.5" y="-221" font-family="Helvetica,sans-Serif" font-size="10.00" fill="#000000">_lines</text>
</a>
</g>
</g>
<!-- Node26&#45;&gt;Node44 -->
<g id="edge33" class="edge">
<title>Node26&#45;&gt;Node44</title>
<path fill="none" stroke="#191970" d="M35.0814,-374.2316C40.5792,-340.9985 56.7853,-274.5755 101,-244 148.869,-210.8974 217.3309,-211.6268 265.4381,-217.7939"/>
<polygon fill="#191970" stroke="#191970" points="31.6187,-373.7224 33.6025,-384.1298 38.5419,-374.7568 31.6187,-373.7224"/>
</g>
<!-- Node47 -->
<g id="node22" class="node">
<title>Node47</title>
<g id="a_node22"><a xlink:href="classtethex_1_1Mesh.html#ad6757f5eeaca6b0cae07fb85b5f40cb2" target="_top" xlink:title="Numerate the edges of simplices. ">
<polygon fill="#ffffff" stroke="#000000" points="272,-77 272,-107 373,-107 373,-77 272,-77"/>
<text text-anchor="start" x="280" y="-95" font-family="Helvetica,sans-Serif" font-size="10.00" fill="#000000">tethex::Mesh::edge</text>
<text text-anchor="middle" x="322.5" y="-84" font-family="Helvetica,sans-Serif" font-size="10.00" fill="#000000">_numeration</text>
</a>
</g>
</g>
<!-- Node26&#45;&gt;Node47 -->
<g id="edge34" class="edge">
<title>Node26&#45;&gt;Node47</title>
<path fill="none" stroke="#191970" d="M34.6446,-374.1345C41.1985,-317.3239 62.8706,-156.0784 101,-122 147.2943,-80.6242 222.2441,-79.2494 271.9464,-84.0368"/>
<polygon fill="#191970" stroke="#191970" points="31.1395,-373.9859 33.5049,-384.3133 38.096,-374.7649 31.1395,-373.9859"/>
</g>
<!-- Node48 -->
<g id="node23" class="node">
<title>Node48</title>
<g id="a_node23"><a xlink:href="classtethex_1_1Mesh.html#ab739c5e4bbb1c3461a068c2104eab52e" target="_top" xlink:title="Conversion from triangles to quadrangles. ">
<polygon fill="#ffffff" stroke="#000000" points="421,-121 421,-151 533,-151 533,-121 421,-121"/>
<text text-anchor="start" x="429" y="-139" font-family="Helvetica,sans-Serif" font-size="10.00" fill="#000000">tethex::Mesh::convert</text>
<text text-anchor="middle" x="477" y="-128" font-family="Helvetica,sans-Serif" font-size="10.00" fill="#000000">_triangles</text>
</a>
</g>
</g>
<!-- Node26&#45;&gt;Node48 -->
<g id="edge32" class="edge">
<title>Node26&#45;&gt;Node48</title>
<path fill="none" stroke="#191970" d="M35.2079,-374.4421C42.8144,-322.6021 66.121,-183.7382 101,-156 148.9656,-117.8545 328.3712,-124.8574 420.947,-131.3361"/>
<polygon fill="#191970" stroke="#191970" points="31.7392,-373.9748 33.7887,-384.3695 38.6687,-374.9655 31.7392,-373.9748"/>
</g>
<!-- Node50 -->
<g id="node25" class="node">
<title>Node50</title>
<g id="a_node25"><a xlink:href="classtethex_1_1Mesh.html#ae0f570a1892c8cf29a68bae0267f8f9b" target="_top" xlink:title="Read the mesh from file. ">
<polygon fill="#ffffff" stroke="#000000" points="114.5,-.5 114.5,-19.5 212.5,-19.5 212.5,-.5 114.5,-.5"/>
<text text-anchor="middle" x="163.5" y="-7.5" font-family="Helvetica,sans-Serif" font-size="10.00" fill="#000000">tethex::Mesh::read</text>
</a>
</g>
</g>
<!-- Node26&#45;&gt;Node50 -->
<g id="edge29" class="edge">
<title>Node26&#45;&gt;Node50</title>
<path fill="none" stroke="#191970" d="M33.7672,-374.2448C38.4647,-306.7738 56.9399,-86.7266 101,-34 106.2917,-27.6674 113.4556,-23.0014 121.0462,-19.5646"/>
<polygon fill="#191970" stroke="#191970" points="30.2659,-374.1488 33.088,-384.3608 37.2502,-374.6178 30.2659,-374.1488"/>
</g>
<!-- Node51 -->
<g id="node26" class="node">
<title>Node51</title>
<g id="a_node26"><a xlink:href="classtethex_1_1Mesh.html#a8e5d9c057c6f562d5036f262a23af29c" target="_top" xlink:title="During conversion we add new vertices &#45; at the centers of edges, triangles, tetrahedra. ">
<polygon fill="#ffffff" stroke="#000000" points="419,-33 419,-63 535,-63 535,-33 419,-33"/>
<text text-anchor="start" x="427" y="-51" font-family="Helvetica,sans-Serif" font-size="10.00" fill="#000000">tethex::Mesh::set_new</text>
<text text-anchor="middle" x="477" y="-40" font-family="Helvetica,sans-Serif" font-size="10.00" fill="#000000">_vertices</text>
</a>
</g>
</g>
<!-- Node26&#45;&gt;Node51 -->
<g id="edge30" class="edge">
<title>Node26&#45;&gt;Node51</title>
<path fill="none" stroke="#191970" d="M33.7942,-374.2016C38.345,-311.2454 55.8461,-117.4812 101,-78 146.9088,-37.8587 325.0384,-40.2468 418.6971,-44.5279"/>
<polygon fill="#191970" stroke="#191970" points="30.2895,-374.1503 33.0914,-384.3679 37.2728,-374.6331 30.2895,-374.1503"/>
</g>
<!-- Node30&#45;&gt;Node31 -->
<g id="edge5" class="edge">
<title>Node30&#45;&gt;Node31</title>
<path fill="none" stroke="#191970" d="M228.4354,-650.8472C241.3802,-647.4279 254.8584,-643.8676 267.4333,-640.5459"/>
<polygon fill="#191970" stroke="#191970" points="227.4387,-647.4904 218.6643,-653.4283 229.2265,-654.2583 227.4387,-647.4904"/>
</g>
<!-- Node32&#45;&gt;Node33 -->
<g id="edge7" class="edge">
<title>Node32&#45;&gt;Node33</title>
<path fill="none" stroke="#191970" d="M228.8163,-578.7676C241.6444,-578.5256 254.9817,-578.2739 267.4333,-578.039"/>
<polygon fill="#191970" stroke="#191970" points="228.5964,-575.271 218.6643,-578.9592 228.7285,-582.2698 228.5964,-575.271"/>
</g>
<!-- Node35 -->
<g id="node10" class="node">
<title>Node35</title>
<g id="a_node10"><a xlink:href="classRiver_1_1Solver.html#a3d51dbec8b2d1d790c5f4e0385b408d7" target="_top" xlink:title="River::Solver::SetMesh">
<polygon fill="#ffffff" stroke="#000000" points="263,-520.5 263,-539.5 382,-539.5 382,-520.5 263,-520.5"/>
<text text-anchor="middle" x="322.5" y="-527.5" font-family="Helvetica,sans-Serif" font-size="10.00" fill="#000000">River::Solver::SetMesh</text>
</a>
</g>
</g>
<!-- Node34&#45;&gt;Node35 -->
<g id="edge9" class="edge">
<title>Node34&#45;&gt;Node35</title>
<path fill="none" stroke="#191970" d="M228.4073,-507.5124C246.7137,-511.8875 266.089,-516.5181 282.469,-520.4328"/>
<polygon fill="#191970" stroke="#191970" points="229.2039,-504.1043 218.6643,-505.1839 227.5768,-510.9126 229.2039,-504.1043"/>
</g>
<!-- Node36 -->
<g id="node11" class="node">
<title>Node36</title>
<g id="a_node11"><a xlink:href="classtethex_1_1Mesh.html#af7abffd9bc4bd64eb2f4cdd4aaf7fbe3" target="_top" xlink:title="tethex::Mesh::Mesh">
<polygon fill="#ffffff" stroke="#000000" points="270.5,-482.5 270.5,-501.5 374.5,-501.5 374.5,-482.5 270.5,-482.5"/>
<text text-anchor="middle" x="322.5" y="-489.5" font-family="Helvetica,sans-Serif" font-size="10.00" fill="#000000">tethex::Mesh::Mesh</text>
</a>
</g>
</g>
<!-- Node34&#45;&gt;Node36 -->
<g id="edge10" class="edge">
<title>Node34&#45;&gt;Node36</title>
<path fill="none" stroke="#191970" d="M229.0545,-492C242.826,-492 257.1739,-492 270.3747,-492"/>
<polygon fill="#191970" stroke="#191970" points="228.6643,-488.5001 218.6643,-492 228.6642,-495.5001 228.6643,-488.5001"/>
</g>
<!-- Node37 -->
<g id="node12" class="node">
<title>Node37</title>
<g id="a_node12"><a xlink:href="classtethex_1_1Mesh.html#af992d5d2e64047656766e4afcbc95b8b" target="_top" xlink:title="tethex::Mesh::operator=">
<polygon fill="#ffffff" stroke="#000000" points="262,-444.5 262,-463.5 383,-463.5 383,-444.5 262,-444.5"/>
<text text-anchor="middle" x="322.5" y="-451.5" font-family="Helvetica,sans-Serif" font-size="10.00" fill="#000000">tethex::Mesh::operator=</text>
</a>
</g>
</g>
<!-- Node34&#45;&gt;Node37 -->
<g id="edge11" class="edge">
<title>Node34&#45;&gt;Node37</title>
<path fill="none" stroke="#191970" d="M228.4073,-476.4876C246.7137,-472.1125 266.089,-467.4819 282.469,-463.5672"/>
<polygon fill="#191970" stroke="#191970" points="227.5768,-473.0874 218.6643,-478.8161 229.2039,-479.8957 227.5768,-473.0874"/>
</g>
<!-- Node43&#45;&gt;Node44 -->
<g id="edge20" class="edge">
<title>Node43&#45;&gt;Node44</title>
<path fill="none" stroke="#191970" d="M222.2746,-198.1129C239.1782,-203.3222 257.4257,-208.9457 273.6592,-213.9484"/>
<polygon fill="#191970" stroke="#191970" points="223.0899,-194.7018 212.5026,-195.1014 221.0283,-201.3914 223.0899,-194.7018"/>
</g>
<!-- Node43&#45;&gt;Node47 -->
<g id="edge23" class="edge">
<title>Node43&#45;&gt;Node47</title>
<path fill="none" stroke="#191970" d="M199.8412,-159.8866C228.8756,-143.8173 268.9305,-121.6485 295.258,-107.0773"/>
<polygon fill="#191970" stroke="#191970" points="197.8876,-156.9675 190.8331,-164.8723 201.2773,-163.0921 197.8876,-156.9675"/>
</g>
<!-- Node49 -->
<g id="node24" class="node">
<title>Node49</title>
<g id="a_node24"><a xlink:href="classtethex_1_1Mesh.html#abc261df76b5f1090b366386fdcb495cb" target="_top" xlink:title="Find the global number of face basing on numbers of 2 edges defining that face. ">
<polygon fill="#ffffff" stroke="#000000" points="263.5,-165 263.5,-195 381.5,-195 381.5,-165 263.5,-165"/>
<text text-anchor="start" x="271.5" y="-183" font-family="Helvetica,sans-Serif" font-size="10.00" fill="#000000">tethex::Mesh::find</text>
<text text-anchor="middle" x="322.5" y="-172" font-family="Helvetica,sans-Serif" font-size="10.00" fill="#000000">_face_from_two_edges</text>
</a>
</g>
</g>
<!-- Node43&#45;&gt;Node49 -->
<g id="edge27" class="edge">
<title>Node43&#45;&gt;Node49</title>
<path fill="none" stroke="#191970" d="M233.4402,-180C243.4031,-180 253.5692,-180 263.3004,-180"/>
<polygon fill="#191970" stroke="#191970" points="233.1581,-176.5001 223.1581,-180 233.1581,-183.5001 233.1581,-176.5001"/>
</g>
<!-- Node45 -->
<g id="node20" class="node">
<title>Node45</title>
<g id="a_node20"><a xlink:href="classtethex_1_1Mesh.html#adb803e48ce7101318531730a512ecbc8" target="_top" xlink:title="Conversion of 2D meshes (triangles &#45;&gt; quadrangles) ">
<polygon fill="#ffffff" stroke="#000000" points="571,-104.5 571,-123.5 701,-123.5 701,-104.5 571,-104.5"/>
<text text-anchor="middle" x="636" y="-111.5" font-family="Helvetica,sans-Serif" font-size="10.00" fill="#000000">tethex::Mesh::convert_2D</text>
</a>
</g>
</g>
<!-- Node44&#45;&gt;Node45 -->
<g id="edge21" class="edge">
<title>Node44&#45;&gt;Node45</title>
<path fill="none" stroke="#191970" d="M385.6716,-211.0596C428.3247,-198.3938 485.6319,-180.2972 535,-161 564.3613,-149.5231 597.2793,-133.607 617.3214,-123.5576"/>
<polygon fill="#191970" stroke="#191970" points="384.5825,-207.7317 375.9817,-213.9185 386.5634,-214.4456 384.5825,-207.7317"/>
</g>
<!-- Node46 -->
<g id="node21" class="node">
<title>Node46</title>
<g id="a_node21"><a xlink:href="classtethex_1_1Mesh.html#aaa882d21498571cbd84d4f7129fd6e32" target="_top" xlink:title="Conversion from simplices to bricks. ">
<polygon fill="#ffffff" stroke="#000000" points="737,-104.5 737,-123.5 849,-123.5 849,-104.5 737,-104.5"/>
<text text-anchor="middle" x="793" y="-111.5" font-family="Helvetica,sans-Serif" font-size="10.00" fill="#000000">tethex::Mesh::convert</text>
</a>
</g>
</g>
<!-- Node45&#45;&gt;Node46 -->
<g id="edge22" class="edge">
<title>Node45&#45;&gt;Node46</title>
<path fill="none" stroke="#191970" d="M711.2433,-114C719.8245,-114 728.4576,-114 736.7317,-114"/>
<polygon fill="#191970" stroke="#191970" points="711.2182,-110.5001 701.2182,-114 711.2182,-117.5001 711.2182,-110.5001"/>
</g>
<!-- Node47&#45;&gt;Node45 -->
<g id="edge24" class="edge">
<title>Node47&#45;&gt;Node45</title>
<path fill="none" stroke="#191970" d="M383.3237,-96.2683C437.2448,-100.0523 515.7709,-105.5629 570.9352,-109.434"/>
<polygon fill="#191970" stroke="#191970" points="383.4381,-92.7678 373.2176,-95.5591 382.948,-99.7507 383.4381,-92.7678"/>
</g>
<!-- Node47&#45;&gt;Node48 -->
<g id="edge25" class="edge">
<title>Node47&#45;&gt;Node48</title>
<path fill="none" stroke="#191970" d="M382.8627,-109.1907C396.4999,-113.0744 410.8753,-117.1684 424.1743,-120.9558"/>
<polygon fill="#191970" stroke="#191970" points="383.6653,-105.7801 373.0891,-106.4072 381.748,-112.5125 383.6653,-105.7801"/>
</g>
<!-- Node48&#45;&gt;Node45 -->
<g id="edge26" class="edge">
<title>Node48&#45;&gt;Node45</title>
<path fill="none" stroke="#191970" d="M542.9663,-126.8726C552.2117,-125.5934 561.7087,-124.2793 570.9371,-123.0024"/>
<polygon fill="#191970" stroke="#191970" points="542.4833,-123.406 533.0575,-128.2436 543.4428,-130.3399 542.4833,-123.406"/>
</g>
<!-- Node49&#45;&gt;Node48 -->
<g id="edge28" class="edge">
<title>Node49&#45;&gt;Node48</title>
<path fill="none" stroke="#191970" d="M385.0436,-162.1882C398.0471,-158.485 411.6278,-154.6173 424.2375,-151.0262"/>
<polygon fill="#191970" stroke="#191970" points="383.8969,-158.8755 375.238,-164.9808 385.8143,-165.6079 383.8969,-158.8755"/>
</g>
<!-- Node51&#45;&gt;Node45 -->
<g id="edge31" class="edge">
<title>Node51&#45;&gt;Node45</title>
<path fill="none" stroke="#191970" d="M522.771,-66.9993C552.3018,-79.2573 589.455,-94.6794 612.9743,-104.4422"/>
<polygon fill="#191970" stroke="#191970" points="524.0556,-63.743 513.4778,-63.1417 521.3719,-70.2081 524.0556,-63.743"/>
</g>
</g>
</svg>
