<?xml version="1.0" encoding="UTF-8" standalone="no"?>
<!DOCTYPE svg PUBLIC "-//W3C//DTD SVG 1.1//EN"
 "http://www.w3.org/Graphics/SVG/1.1/DTD/svg11.dtd">
<!-- Generated by graphviz version 2.40.1 (20161225.0304)
 -->
<!-- Title: River::BoundaryGenerator Pages: 1 -->
<svg width="630pt" height="755pt"
 viewBox="0.00 0.00 630.00 754.50" xmlns="http://www.w3.org/2000/svg" xmlns:xlink="http://www.w3.org/1999/xlink">
<g id="graph0" class="graph" transform="scale(1 1) rotate(0) translate(4 750.5)">
<title>River::BoundaryGenerator</title>
<polygon fill="#ffffff" stroke="transparent" points="-4,4 -4,-750.5 626,-750.5 626,4 -4,4"/>
<!-- Node25 -->
<g id="node1" class="node">
<title>Node25</title>
<polygon fill="#bfbfbf" stroke="#000000" points="0,-450 0,-469 130,-469 130,-450 0,-450"/>
<text text-anchor="middle" x="65" y="-457" font-family="Helvetica,sans-Serif" font-size="10.00" fill="#000000">River::BoundaryGenerator</text>
</g>
<!-- Node26 -->
<g id="node2" class="node">
<title>Node26</title>
<g id="a_node2"><a xlink:href="classRiver_1_1Border.html#ae11520725faf327360db442782a8b036" target="_top" xlink:title="Returns vector of sources ids. ">
<polygon fill="#ffffff" stroke="#000000" points="166,-689 166,-708 306,-708 306,-689 166,-689"/>
<text text-anchor="middle" x="236" y="-696" font-family="Helvetica,sans-Serif" font-size="10.00" fill="#000000">River::Border::GetSourcesId</text>
</a>
</g>
</g>
<!-- Node25&#45;&gt;Node26 -->
<g id="edge1" class="edge">
<title>Node25&#45;&gt;Node26</title>
<path fill="none" stroke="#191970" d="M71.9152,-469.1651C97.8067,-505.3526 189.2658,-633.1815 223.2023,-680.6131"/>
<polygon fill="#191970" stroke="#191970" points="220.5208,-682.8803 229.1861,-688.9765 226.2137,-678.8071 220.5208,-682.8803"/>
</g>
<!-- Node29 -->
<g id="node5" class="node">
<title>Node29</title>
<g id="a_node5"><a xlink:href="classRiver_1_1Border.html#acf71aa49ddf1244f1aba474fe0457eba" target="_top" xlink:title="Return source poinst indexes(each source consist of two points at distance eps) ">
<polygon fill="#ffffff" stroke="#000000" points="172.5,-551.5 172.5,-581.5 299.5,-581.5 299.5,-551.5 172.5,-551.5"/>
<text text-anchor="start" x="180.5" y="-569.5" font-family="Helvetica,sans-Serif" font-size="10.00" fill="#000000">River::Border::GetSource</text>
<text text-anchor="middle" x="236" y="-558.5" font-family="Helvetica,sans-Serif" font-size="10.00" fill="#000000">VerticesIndexById</text>
</a>
</g>
</g>
<!-- Node25&#45;&gt;Node29 -->
<g id="edge4" class="edge">
<title>Node25&#45;&gt;Node29</title>
<path fill="none" stroke="#191970" d="M80.4767,-469.1843C107.9886,-486.3993 165.9747,-522.683 202.8467,-545.7549"/>
<polygon fill="#191970" stroke="#191970" points="201.4008,-548.9789 211.7346,-551.3164 205.1139,-543.0449 201.4008,-548.9789"/>
</g>
<!-- Node35 -->
<g id="node11" class="node">
<title>Node35</title>
<g id="a_node11"><a xlink:href="namespaceRiver.html#aa5a21f7169be41bacdb7bab009a2e7be" target="_top" xlink:title="River::TreeVector">
<polygon fill="#ffffff" stroke="#000000" points="189,-322 189,-341 283,-341 283,-322 189,-322"/>
<text text-anchor="middle" x="236" y="-329" font-family="Helvetica,sans-Serif" font-size="10.00" fill="#000000">River::TreeVector</text>
</a>
</g>
</g>
<!-- Node25&#45;&gt;Node35 -->
<g id="edge11" class="edge">
<title>Node25&#45;&gt;Node35</title>
<path fill="none" stroke="#191970" d="M77.8528,-449.8792C107.0671,-428.0112 178.7052,-374.3873 214.6705,-347.466"/>
<polygon fill="#191970" stroke="#191970" points="217.0898,-350.027 222.9981,-341.2324 212.895,-344.423 217.0898,-350.027"/>
</g>
<!-- Node46 -->
<g id="node22" class="node">
<title>Node46</title>
<g id="a_node22"><a xlink:href="namespaceRiver.html#aad220f83cbabff9aa2d1635de9b079c3" target="_top" xlink:title="River::AppendTreeToMesh">
<polygon fill="#ffffff" stroke="#000000" points="169,-80 169,-99 303,-99 303,-80 169,-80"/>
<text text-anchor="middle" x="236" y="-87" font-family="Helvetica,sans-Serif" font-size="10.00" fill="#000000">River::AppendTreeToMesh</text>
</a>
</g>
</g>
<!-- Node25&#45;&gt;Node46 -->
<g id="edge22" class="edge">
<title>Node25&#45;&gt;Node46</title>
<path fill="none" stroke="#191970" d="M69.3988,-449.9821C92.0759,-400.9147 195.9189,-176.2253 227.1134,-108.7283"/>
<polygon fill="#191970" stroke="#191970" points="230.4544,-109.8419 231.4726,-99.2961 224.1002,-106.9052 230.4544,-109.8419"/>
</g>
<!-- Node27 -->
<g id="node3" class="node">
<title>Node27</title>
<g id="a_node3"><a xlink:href="classtethex_1_1Mesh.html#a9fefc160a592f20226064d1b03b3a14d" target="_top" xlink:title="tethex::Mesh::get_points">
<polygon fill="#ffffff" stroke="#000000" points="353.5,-727 353.5,-746 478.5,-746 478.5,-727 353.5,-727"/>
<text text-anchor="middle" x="416" y="-734" font-family="Helvetica,sans-Serif" font-size="10.00" fill="#000000">tethex::Mesh::get_points</text>
</a>
</g>
</g>
<!-- Node26&#45;&gt;Node27 -->
<g id="edge2" class="edge">
<title>Node26&#45;&gt;Node27</title>
<path fill="none" stroke="#191970" d="M281.4216,-708.089C305.6025,-713.1939 335.5273,-719.5113 361.0139,-724.8918"/>
<polygon fill="#191970" stroke="#191970" points="360.3977,-728.3388 370.905,-726.9799 361.8437,-721.4898 360.3977,-728.3388"/>
</g>
<!-- Node28 -->
<g id="node4" class="node">
<title>Node28</title>
<g id="a_node4"><a xlink:href="classRiver_1_1Border.html#a953fd3059a1d32edc34eefbc1ed1ae66" target="_top" xlink:title="Checks if point id value represents source. ">
<polygon fill="#ffffff" stroke="#000000" points="356.5,-689 356.5,-708 475.5,-708 475.5,-689 356.5,-689"/>
<text text-anchor="middle" x="416" y="-696" font-family="Helvetica,sans-Serif" font-size="10.00" fill="#000000">River::Border::IsSource</text>
</a>
</g>
</g>
<!-- Node26&#45;&gt;Node28 -->
<g id="edge3" class="edge">
<title>Node26&#45;&gt;Node28</title>
<path fill="none" stroke="#191970" d="M306.1081,-698.5C319.1937,-698.5 332.8699,-698.5 345.9537,-698.5"/>
<polygon fill="#191970" stroke="#191970" points="346.297,-702.0001 356.297,-698.5 346.297,-695.0001 346.297,-702.0001"/>
</g>
<!-- Node30 -->
<g id="node6" class="node">
<title>Node30</title>
<g id="a_node6"><a xlink:href="classtethex_1_1Mesh.html#a77dc945a9f65b5b1d41e39ec8d06adb8" target="_top" xlink:title="tethex::Mesh::get_n\l_points">
<polygon fill="#ffffff" stroke="#000000" points="364,-639.5 364,-669.5 468,-669.5 468,-639.5 364,-639.5"/>
<text text-anchor="start" x="372" y="-657.5" font-family="Helvetica,sans-Serif" font-size="10.00" fill="#000000">tethex::Mesh::get_n</text>
<text text-anchor="middle" x="416" y="-646.5" font-family="Helvetica,sans-Serif" font-size="10.00" fill="#000000">_points</text>
</a>
</g>
</g>
<!-- Node29&#45;&gt;Node30 -->
<g id="edge5" class="edge">
<title>Node29&#45;&gt;Node30</title>
<path fill="none" stroke="#191970" d="M258.4015,-581.7073C279.3532,-595.4655 311.8529,-615.6365 342,-629.5 346.7298,-631.6751 351.7053,-633.76 356.7462,-635.7329"/>
<polygon fill="#191970" stroke="#191970" points="355.8816,-639.1467 366.4738,-639.3831 358.3409,-632.5929 355.8816,-639.1467"/>
</g>
<!-- Node31 -->
<g id="node7" class="node">
<title>Node31</title>
<g id="a_node7"><a xlink:href="classtethex_1_1Mesh.html#a662e5df32c04d894bbc9598d3fe4d3f0" target="_top" xlink:title="tethex::Mesh::get_point">
<polygon fill="#ffffff" stroke="#000000" points="356.5,-601 356.5,-620 475.5,-620 475.5,-601 356.5,-601"/>
<text text-anchor="middle" x="416" y="-608" font-family="Helvetica,sans-Serif" font-size="10.00" fill="#000000">tethex::Mesh::get_point</text>
</a>
</g>
</g>
<!-- Node29&#45;&gt;Node31 -->
<g id="edge6" class="edge">
<title>Node29&#45;&gt;Node31</title>
<path fill="none" stroke="#191970" d="M297.4423,-581.5192C320.2138,-587.0856 345.7064,-593.3171 367.2008,-598.5713"/>
<polygon fill="#191970" stroke="#191970" points="366.5405,-602.0129 377.0856,-600.9876 368.2027,-595.2131 366.5405,-602.0129"/>
</g>
<!-- Node33 -->
<g id="node9" class="node">
<title>Node33</title>
<g id="a_node9"><a xlink:href="classtethex_1_1MeshElement.html#a44ac13c3270bbf9d70c7e0ea85809979" target="_top" xlink:title="tethex::MeshElement\l::get_material_id">
<polygon fill="#ffffff" stroke="#000000" points="361,-551.5 361,-581.5 471,-581.5 471,-551.5 361,-551.5"/>
<text text-anchor="start" x="369" y="-569.5" font-family="Helvetica,sans-Serif" font-size="10.00" fill="#000000">tethex::MeshElement</text>
<text text-anchor="middle" x="416" y="-558.5" font-family="Helvetica,sans-Serif" font-size="10.00" fill="#000000">::get_material_id</text>
</a>
</g>
</g>
<!-- Node29&#45;&gt;Node33 -->
<g id="edge8" class="edge">
<title>Node29&#45;&gt;Node33</title>
<path fill="none" stroke="#191970" d="M299.7146,-566.5C316.2136,-566.5 334.0045,-566.5 350.5889,-566.5"/>
<polygon fill="#191970" stroke="#191970" points="350.7368,-570.0001 360.7368,-566.5 350.7367,-563.0001 350.7368,-570.0001"/>
</g>
<!-- Node34 -->
<g id="node10" class="node">
<title>Node34</title>
<g id="a_node10"><a xlink:href="classtethex_1_1MeshElement.html#aed911a47266af4848f1e8bdd0c89e177" target="_top" xlink:title="tethex::MeshElement\l::get_vertex">
<polygon fill="#ffffff" stroke="#000000" points="361,-502.5 361,-532.5 471,-532.5 471,-502.5 361,-502.5"/>
<text text-anchor="start" x="369" y="-520.5" font-family="Helvetica,sans-Serif" font-size="10.00" fill="#000000">tethex::MeshElement</text>
<text text-anchor="middle" x="416" y="-509.5" font-family="Helvetica,sans-Serif" font-size="10.00" fill="#000000">::get_vertex</text>
</a>
</g>
</g>
<!-- Node29&#45;&gt;Node34 -->
<g id="edge9" class="edge">
<title>Node29&#45;&gt;Node34</title>
<path fill="none" stroke="#191970" d="M291.4747,-551.3986C310.297,-546.2747 331.494,-540.5044 350.9914,-535.1968"/>
<polygon fill="#191970" stroke="#191970" points="351.979,-538.5554 360.7085,-532.5516 350.1403,-531.8012 351.979,-538.5554"/>
</g>
<!-- Node32 -->
<g id="node8" class="node">
<title>Node32</title>
<g id="a_node8"><a xlink:href="namespacetethex.html#a31a6ad16911dd58abefe17ab46534aa4" target="_top" xlink:title="tethex::d2s">
<polygon fill="#ffffff" stroke="#000000" points="541.5,-554 541.5,-573 606.5,-573 606.5,-554 541.5,-554"/>
<text text-anchor="middle" x="574" y="-561" font-family="Helvetica,sans-Serif" font-size="10.00" fill="#000000">tethex::d2s</text>
</a>
</g>
</g>
<!-- Node31&#45;&gt;Node32 -->
<g id="edge7" class="edge">
<title>Node31&#45;&gt;Node32</title>
<path fill="none" stroke="#191970" d="M455.3136,-600.9541C466.5606,-598.075 478.8036,-594.799 490,-591.5 505.5749,-586.9109 522.5973,-581.3421 537.2214,-576.3832"/>
<polygon fill="#191970" stroke="#191970" points="538.5864,-579.6155 546.9153,-573.0672 536.3207,-572.9923 538.5864,-579.6155"/>
</g>
<!-- Node34&#45;&gt;Node32 -->
<g id="edge10" class="edge">
<title>Node34&#45;&gt;Node32</title>
<path fill="none" stroke="#191970" d="M467.7351,-532.5621C488.2746,-538.542 511.6166,-545.3378 531.182,-551.034"/>
<polygon fill="#191970" stroke="#191970" points="530.4546,-554.4675 541.0343,-553.9024 532.4113,-547.7465 530.4546,-554.4675"/>
</g>
<!-- Node36 -->
<g id="node12" class="node">
<title>Node36</title>
<g id="a_node12"><a xlink:href="classRiver_1_1Tree.html#a7e4887a6f4c0c6a0e164128e0fe5f19a" target="_top" xlink:title="Returns link to branch with . ">
<polygon fill="#ffffff" stroke="#000000" points="357,-464 357,-483 475,-483 475,-464 357,-464"/>
<text text-anchor="middle" x="416" y="-471" font-family="Helvetica,sans-Serif" font-size="10.00" fill="#000000">River::Tree::GetBranch</text>
</a>
</g>
</g>
<!-- Node35&#45;&gt;Node36 -->
<g id="edge12" class="edge">
<title>Node35&#45;&gt;Node36</title>
<path fill="none" stroke="#191970" d="M241.4966,-341.2531C255.2142,-364.6635 293.3767,-424.3255 342,-454.5 345.3898,-456.6037 349.0047,-458.4753 352.7448,-460.1403"/>
<polygon fill="#191970" stroke="#191970" points="351.6556,-463.4727 362.2431,-463.8683 354.2131,-456.9567 351.6556,-463.4727"/>
</g>
<!-- Node37 -->
<g id="node13" class="node">
<title>Node37</title>
<g id="a_node13"><a xlink:href="classRiver_1_1BranchNew.html#ad31e9de44351f77a06bce668094cf2f4" target="_top" xlink:title="Returns number of points in branch. ">
<polygon fill="#ffffff" stroke="#000000" points="355,-426 355,-445 477,-445 477,-426 355,-426"/>
<text text-anchor="middle" x="416" y="-433" font-family="Helvetica,sans-Serif" font-size="10.00" fill="#000000">River::BranchNew::Size</text>
</a>
</g>
</g>
<!-- Node35&#45;&gt;Node37 -->
<g id="edge13" class="edge">
<title>Node35&#45;&gt;Node37</title>
<path fill="none" stroke="#191970" d="M245.2367,-341.2601C262.5303,-358.9531 301.7012,-396.3526 342,-416.5 346.8197,-418.9096 351.9732,-421.0329 357.2333,-422.9001"/>
<polygon fill="#191970" stroke="#191970" points="356.1753,-426.2364 366.7673,-425.991 358.3342,-419.5776 356.1753,-426.2364"/>
</g>
<!-- Node38 -->
<g id="node14" class="node">
<title>Node38</title>
<g id="a_node14"><a xlink:href="classRiver_1_1BranchNew.html#aada65e4898e1bd299aa7fa9fe36e05bb" target="_top" xlink:title="River::BranchNew::GetPoint">
<polygon fill="#ffffff" stroke="#000000" points="345.5,-388 345.5,-407 486.5,-407 486.5,-388 345.5,-388"/>
<text text-anchor="middle" x="416" y="-395" font-family="Helvetica,sans-Serif" font-size="10.00" fill="#000000">River::BranchNew::GetPoint</text>
</a>
</g>
</g>
<!-- Node35&#45;&gt;Node38 -->
<g id="edge14" class="edge">
<title>Node35&#45;&gt;Node38</title>
<path fill="none" stroke="#191970" d="M255.147,-341.1499C276.0825,-351.4246 310.8138,-367.6666 342,-378.5 349.0566,-380.9513 356.59,-383.2437 364.0487,-385.3284"/>
<polygon fill="#191970" stroke="#191970" points="363.1985,-388.724 373.7647,-387.9452 365.019,-381.9649 363.1985,-388.724"/>
</g>
<!-- Node39 -->
<g id="node15" class="node">
<title>Node39</title>
<g id="a_node15"><a xlink:href="classRiver_1_1BranchNew.html#a5d3d81efc31f625bbddcbd5b17f405b9" target="_top" xlink:title="Returns SourceAngle of branch &#45; initial . ">
<polygon fill="#ffffff" stroke="#000000" points="349,-338.5 349,-368.5 483,-368.5 483,-338.5 349,-338.5"/>
<text text-anchor="start" x="357" y="-356.5" font-family="Helvetica,sans-Serif" font-size="10.00" fill="#000000">River::BranchNew::Source</text>
<text text-anchor="middle" x="416" y="-345.5" font-family="Helvetica,sans-Serif" font-size="10.00" fill="#000000">Angle</text>
</a>
</g>
</g>
<!-- Node35&#45;&gt;Node39 -->
<g id="edge15" class="edge">
<title>Node35&#45;&gt;Node39</title>
<path fill="none" stroke="#191970" d="M283.2929,-337.2802C300.2452,-339.3522 319.8293,-341.7458 338.659,-344.0472"/>
<polygon fill="#191970" stroke="#191970" points="338.3679,-347.5376 348.7187,-345.2767 339.2172,-340.5893 338.3679,-347.5376"/>
</g>
<!-- Node40 -->
<g id="node16" class="node">
<title>Node40</title>
<g id="a_node16"><a xlink:href="classRiver_1_1BranchNew.html#a4e49c832969fde3d72bf9049a819cc04" target="_top" xlink:title="Returns vector of i&#45;th segment of branch. ">
<polygon fill="#ffffff" stroke="#000000" points="350.5,-300 350.5,-319 481.5,-319 481.5,-300 350.5,-300"/>
<text text-anchor="middle" x="416" y="-307" font-family="Helvetica,sans-Serif" font-size="10.00" fill="#000000">River::BranchNew::Vector</text>
</a>
</g>
</g>
<!-- Node35&#45;&gt;Node40 -->
<g id="edge16" class="edge">
<title>Node35&#45;&gt;Node40</title>
<path fill="none" stroke="#191970" d="M283.2929,-325.7198C300.7669,-323.5841 321.0369,-321.1066 340.3949,-318.7406"/>
<polygon fill="#191970" stroke="#191970" points="340.9136,-322.2034 350.4151,-317.5159 340.0643,-315.2551 340.9136,-322.2034"/>
</g>
<!-- Node41 -->
<g id="node17" class="node">
<title>Node41</title>
<g id="a_node17"><a xlink:href="classRiver_1_1Point.html#aa6005dcc4bb5ded97a0b9a5eb28bc528" target="_top" xlink:title="River::Point::normalize">
<polygon fill="#ffffff" stroke="#000000" points="358,-262 358,-281 474,-281 474,-262 358,-262"/>
<text text-anchor="middle" x="416" y="-269" font-family="Helvetica,sans-Serif" font-size="10.00" fill="#000000">River::Point::normalize</text>
</a>
</g>
</g>
<!-- Node35&#45;&gt;Node41 -->
<g id="edge17" class="edge">
<title>Node35&#45;&gt;Node41</title>
<path fill="none" stroke="#191970" d="M258.4688,-321.9203C279.7382,-313.0653 312.6881,-299.8958 342,-290.5 349.5489,-288.0802 357.6064,-285.7547 365.5234,-283.6114"/>
<polygon fill="#191970" stroke="#191970" points="366.6503,-286.9339 375.4278,-281.0005 364.866,-280.1652 366.6503,-286.9339"/>
</g>
<!-- Node43 -->
<g id="node19" class="node">
<title>Node43</title>
<g id="a_node19"><a xlink:href="classRiver_1_1Point.html#a99648a8a3af61babbcbcdbe0de12db71" target="_top" xlink:title="River::Point::rotate">
<polygon fill="#ffffff" stroke="#000000" points="366.5,-224 366.5,-243 465.5,-243 465.5,-224 366.5,-224"/>
<text text-anchor="middle" x="416" y="-231" font-family="Helvetica,sans-Serif" font-size="10.00" fill="#000000">River::Point::rotate</text>
</a>
</g>
</g>
<!-- Node35&#45;&gt;Node43 -->
<g id="edge19" class="edge">
<title>Node35&#45;&gt;Node43</title>
<path fill="none" stroke="#191970" d="M245.9392,-321.943C263.738,-305.3521 302.8631,-271.2078 342,-252.5 347.0112,-250.1046 352.363,-247.9845 357.8098,-246.1137"/>
<polygon fill="#191970" stroke="#191970" points="359.1773,-249.3525 367.6638,-243.0099 357.0742,-242.6759 359.1773,-249.3525"/>
</g>
<!-- Node44 -->
<g id="node20" class="node">
<title>Node44</title>
<g id="a_node20"><a xlink:href="classRiver_1_1Tree.html#a0df36a9d86f78e51104c0e028f3a2983" target="_top" xlink:title="Checks if Branch &#160;has subbranches. ">
<polygon fill="#ffffff" stroke="#000000" points="342,-186 342,-205 490,-205 490,-186 342,-186"/>
<text text-anchor="middle" x="416" y="-193" font-family="Helvetica,sans-Serif" font-size="10.00" fill="#000000">River::Tree::HasSubBranches</text>
</a>
</g>
</g>
<!-- Node35&#45;&gt;Node44 -->
<g id="edge20" class="edge">
<title>Node35&#45;&gt;Node44</title>
<path fill="none" stroke="#191970" d="M241.8321,-321.8974C256.0044,-299.4157 294.5975,-243.1085 342,-214.5 345.641,-212.3026 349.5308,-210.3575 353.5499,-208.6361"/>
<polygon fill="#191970" stroke="#191970" points="354.9972,-211.8305 363.1062,-205.0118 352.5149,-205.2854 354.9972,-211.8305"/>
</g>
<!-- Node45 -->
<g id="node21" class="node">
<title>Node45</title>
<g id="a_node21"><a xlink:href="classRiver_1_1Tree.html#a87e5469392220bb6dcdfca99add6b1f8" target="_top" xlink:title="River::Tree::GetSubBranches">
<polygon fill="#ffffff" stroke="#000000" points="343,-148 343,-167 489,-167 489,-148 343,-148"/>
<text text-anchor="middle" x="416" y="-155" font-family="Helvetica,sans-Serif" font-size="10.00" fill="#000000">River::Tree::GetSubBranches</text>
</a>
</g>
</g>
<!-- Node35&#45;&gt;Node45 -->
<g id="edge21" class="edge">
<title>Node35&#45;&gt;Node45</title>
<path fill="none" stroke="#191970" d="M239.7641,-321.6982C250.8592,-294.1663 286.1982,-215.5967 342,-176.5 344.8566,-174.4985 347.9072,-172.7078 351.0818,-171.1056"/>
<polygon fill="#191970" stroke="#191970" points="352.5412,-174.2874 360.2984,-167.071 349.7341,-167.8749 352.5412,-174.2874"/>
</g>
<!-- Node42 -->
<g id="node18" class="node">
<title>Node42</title>
<g id="a_node18"><a xlink:href="classRiver_1_1Point.html#a96d6c70f36acd051f5885163bc2de5b5" target="_top" xlink:title="River::Point::norm">
<polygon fill="#ffffff" stroke="#000000" points="526,-262 526,-281 622,-281 622,-262 526,-262"/>
<text text-anchor="middle" x="574" y="-269" font-family="Helvetica,sans-Serif" font-size="10.00" fill="#000000">River::Point::norm</text>
</a>
</g>
</g>
<!-- Node41&#45;&gt;Node42 -->
<g id="edge18" class="edge">
<title>Node41&#45;&gt;Node42</title>
<path fill="none" stroke="#191970" d="M474.3845,-271.5C487.9043,-271.5 502.2902,-271.5 515.802,-271.5"/>
<polygon fill="#191970" stroke="#191970" points="515.9354,-275.0001 525.9353,-271.5 515.9353,-268.0001 515.9354,-275.0001"/>
</g>
<!-- Node47 -->
<g id="node23" class="node">
<title>Node47</title>
<g id="a_node23"><a xlink:href="classtethex_1_1Mesh.html#a7aa9c2737b989945d2d233f7200cb3ac" target="_top" xlink:title="tethex::Mesh::get_n\l_vertices">
<polygon fill="#ffffff" stroke="#000000" points="364,-98.5 364,-128.5 468,-128.5 468,-98.5 364,-98.5"/>
<text text-anchor="start" x="372" y="-116.5" font-family="Helvetica,sans-Serif" font-size="10.00" fill="#000000">tethex::Mesh::get_n</text>
<text text-anchor="middle" x="416" y="-105.5" font-family="Helvetica,sans-Serif" font-size="10.00" fill="#000000">_vertices</text>
</a>
</g>
</g>
<!-- Node46&#45;&gt;Node47 -->
<g id="edge23" class="edge">
<title>Node46&#45;&gt;Node47</title>
<path fill="none" stroke="#191970" d="M303.0254,-98.4367C319.663,-100.6551 337.4234,-103.0231 353.8179,-105.209"/>
<polygon fill="#191970" stroke="#191970" points="353.4521,-108.6912 363.827,-106.5436 354.3773,-101.7526 353.4521,-108.6912"/>
</g>
<!-- Node48 -->
<g id="node24" class="node">
<title>Node48</title>
<g id="a_node24"><a xlink:href="classtethex_1_1Mesh.html#ae31ba46c6160f8445cc418c6af5206c7" target="_top" xlink:title="tethex::Mesh::append\l_vertexes">
<polygon fill="#ffffff" stroke="#000000" points="360.5,-49.5 360.5,-79.5 471.5,-79.5 471.5,-49.5 360.5,-49.5"/>
<text text-anchor="start" x="368.5" y="-67.5" font-family="Helvetica,sans-Serif" font-size="10.00" fill="#000000">tethex::Mesh::append</text>
<text text-anchor="middle" x="416" y="-56.5" font-family="Helvetica,sans-Serif" font-size="10.00" fill="#000000">_vertexes</text>
</a>
</g>
</g>
<!-- Node46&#45;&gt;Node48 -->
<g id="edge24" class="edge">
<title>Node46&#45;&gt;Node48</title>
<path fill="none" stroke="#191970" d="M303.0254,-80.1909C318.5222,-78.0386 334.9929,-75.751 350.4268,-73.6074"/>
<polygon fill="#191970" stroke="#191970" points="350.9752,-77.0649 360.3986,-72.2224 350.0122,-70.1315 350.9752,-77.0649"/>
</g>
<!-- Node49 -->
<g id="node25" class="node">
<title>Node49</title>
<g id="a_node25"><a xlink:href="classtethex_1_1Mesh.html#ad779a1d2d8c8d5c8ecfd91d0e19d87a7" target="_top" xlink:title="tethex::Mesh::append\l_lines">
<polygon fill="#ffffff" stroke="#000000" points="360.5,-.5 360.5,-30.5 471.5,-30.5 471.5,-.5 360.5,-.5"/>
<text text-anchor="start" x="368.5" y="-18.5" font-family="Helvetica,sans-Serif" font-size="10.00" fill="#000000">tethex::Mesh::append</text>
<text text-anchor="middle" x="416" y="-7.5" font-family="Helvetica,sans-Serif" font-size="10.00" fill="#000000">_lines</text>
</a>
</g>
</g>
<!-- Node46&#45;&gt;Node49 -->
<g id="edge25" class="edge">
<title>Node46&#45;&gt;Node49</title>
<path fill="none" stroke="#191970" d="M254.4482,-79.9184C275.3503,-69.2705 310.5977,-51.9401 342,-39.5 346.8206,-37.5903 351.8595,-35.7137 356.9429,-33.9031"/>
<polygon fill="#191970" stroke="#191970" points="358.4255,-37.0935 366.7277,-30.5113 356.1329,-30.4796 358.4255,-37.0935"/>
</g>
</g>
</svg>
