<?xml version="1.0" encoding="UTF-8" standalone="no"?>
<!DOCTYPE svg PUBLIC "-//W3C//DTD SVG 1.1//EN"
 "http://www.w3.org/Graphics/SVG/1.1/DTD/svg11.dtd">
<!-- Generated by graphviz version 2.40.1 (20161225.0304)
 -->
<!-- Title: nlohmann::detail::void Pages: 1 -->
<svg width="424pt" height="88pt"
 viewBox="0.00 0.00 424.00 88.00" xmlns="http://www.w3.org/2000/svg" xmlns:xlink="http://www.w3.org/1999/xlink">
<g id="graph0" class="graph" transform="scale(1 1) rotate(0) translate(4 84)">
<title>nlohmann::detail::void</title>
<polygon fill="#ffffff" stroke="transparent" points="-4,4 -4,-84 420,-84 420,4 -4,4"/>
<!-- Node76 -->
<g id="node1" class="node">
<title>Node76</title>
<polygon fill="#bfbfbf" stroke="#000000" points="0,-30 0,-49 112,-49 112,-30 0,-30"/>
<text text-anchor="middle" x="56" y="-37" font-family="Helvetica,sans-Serif" font-size="10.00" fill="#000000">nlohmann::detail::void</text>
</g>
<!-- Node77 -->
<g id="node2" class="node">
<title>Node77</title>
<g id="a_node2"><a xlink:href="classnlohmann_1_1detail_1_1binary__reader.html#aed84f0302eb232d3b69f7653bef2337a" target="_top" xlink:title="create a binary reader ">
<polygon fill="#ffffff" stroke="#000000" points="148.5,-49.5 148.5,-79.5 268.5,-79.5 268.5,-49.5 148.5,-49.5"/>
<text text-anchor="start" x="156.5" y="-67.5" font-family="Helvetica,sans-Serif" font-size="10.00" fill="#000000">nlohmann::detail::binary</text>
<text text-anchor="middle" x="208.5" y="-56.5" font-family="Helvetica,sans-Serif" font-size="10.00" fill="#000000">_reader::binary_reader</text>
</a>
</g>
</g>
<!-- Node76&#45;&gt;Node77 -->
<g id="edge1" class="edge">
<title>Node76&#45;&gt;Node77</title>
<path fill="none" stroke="#191970" d="M122.3642,-50.3794C130.983,-51.7923 139.7733,-53.2333 148.2844,-54.6286"/>
<polygon fill="#191970" stroke="#191970" points="122.7866,-46.902 112.3521,-48.738 121.6541,-53.8098 122.7866,-46.902"/>
</g>
<!-- Node78 -->
<g id="node3" class="node">
<title>Node78</title>
<g id="a_node3"><a xlink:href="classnlohmann_1_1detail_1_1parser.html#a14e34931965064b26e118eb72cbd5e25" target="_top" xlink:title="nlohmann::detail::parser\l::sax_parse">
<polygon fill="#ffffff" stroke="#000000" points="148,-.5 148,-30.5 269,-30.5 269,-.5 148,-.5"/>
<text text-anchor="start" x="156" y="-18.5" font-family="Helvetica,sans-Serif" font-size="10.00" fill="#000000">nlohmann::detail::parser</text>
<text text-anchor="middle" x="208.5" y="-7.5" font-family="Helvetica,sans-Serif" font-size="10.00" fill="#000000">::sax_parse</text>
</a>
</g>
</g>
<!-- Node76&#45;&gt;Node78 -->
<g id="edge2" class="edge">
<title>Node76&#45;&gt;Node78</title>
<path fill="none" stroke="#191970" d="M122.4945,-29.0353C130.8978,-27.7128 139.4618,-26.365 147.7692,-25.0576"/>
<polygon fill="#191970" stroke="#191970" points="121.6864,-25.6193 112.3521,-30.6315 122.7747,-32.5342 121.6864,-25.6193"/>
</g>
<!-- Node79 -->
<g id="node4" class="node">
<title>Node79</title>
<g id="a_node4"><a xlink:href="classnlohmann_1_1basic__json.html#a8a3dd150c2d1f0df3502d937de0871db" target="_top" xlink:title="generate SAX events ">
<polygon fill="#ffffff" stroke="#000000" points="305,-.5 305,-30.5 416,-30.5 416,-.5 305,-.5"/>
<text text-anchor="start" x="313" y="-18.5" font-family="Helvetica,sans-Serif" font-size="10.00" fill="#000000">nlohmann::basic_json</text>
<text text-anchor="middle" x="360.5" y="-7.5" font-family="Helvetica,sans-Serif" font-size="10.00" fill="#000000">::sax_parse</text>
</a>
</g>
</g>
<!-- Node78&#45;&gt;Node79 -->
<g id="edge3" class="edge">
<title>Node78&#45;&gt;Node79</title>
<path fill="none" stroke="#191970" d="M279.0264,-15.5C287.6171,-15.5 296.3015,-15.5 304.6376,-15.5"/>
<polygon fill="#191970" stroke="#191970" points="279.0112,-12.0001 269.0112,-15.5 279.0111,-19.0001 279.0112,-12.0001"/>
</g>
</g>
</svg>
