<?xml version="1.0" encoding="UTF-8" standalone="no"?>
<!DOCTYPE svg PUBLIC "-//W3C//DTD SVG 1.1//EN"
 "http://www.w3.org/Graphics/SVG/1.1/DTD/svg11.dtd">
<!-- Generated by graphviz version 2.40.1 (20161225.0304)
 -->
<!-- Title: nlohmann::detail::from_json Pages: 1 -->
<svg width="491pt" height="127pt"
 viewBox="0.00 0.00 491.00 127.00" xmlns="http://www.w3.org/2000/svg" xmlns:xlink="http://www.w3.org/1999/xlink">
<g id="graph0" class="graph" transform="scale(1 1) rotate(0) translate(4 123)">
<title>nlohmann::detail::from_json</title>
<polygon fill="#ffffff" stroke="transparent" points="-4,4 -4,-123 487,-123 487,4 -4,4"/>
<!-- Node103 -->
<g id="node1" class="node">
<title>Node103</title>
<polygon fill="#bfbfbf" stroke="#000000" points="0,-50 0,-69 137,-69 137,-50 0,-50"/>
<text text-anchor="middle" x="68.5" y="-57" font-family="Helvetica,sans-Serif" font-size="10.00" fill="#000000">nlohmann::detail::from_json</text>
</g>
<!-- Node104 -->
<g id="node2" class="node">
<title>Node104</title>
<g id="a_node2"><a xlink:href="structnlohmann_1_1adl__serializer.html#a2c544585b8b1828a0f1eecd831d0496e" target="_top" xlink:title="convert a JSON value to any value type ">
<polygon fill="#ffffff" stroke="#000000" points="177.5,-88.5 177.5,-118.5 299.5,-118.5 299.5,-88.5 177.5,-88.5"/>
<text text-anchor="start" x="185.5" y="-106.5" font-family="Helvetica,sans-Serif" font-size="10.00" fill="#000000">nlohmann::adl_serializer</text>
<text text-anchor="middle" x="238.5" y="-95.5" font-family="Helvetica,sans-Serif" font-size="10.00" fill="#000000">::from_json</text>
</a>
</g>
</g>
<!-- Node103&#45;&gt;Node104 -->
<g id="edge1" class="edge">
<title>Node103&#45;&gt;Node104</title>
<path fill="none" stroke="#191970" d="M115.2399,-71.5974C135.3461,-76.8013 159.0616,-82.9395 180.2929,-88.4346"/>
<polygon fill="#191970" stroke="#191970" points="115.9455,-68.1647 105.3875,-69.0473 114.1915,-74.9414 115.9455,-68.1647"/>
</g>
<!-- Node105 -->
<g id="node3" class="node">
<title>Node105</title>
<g id="a_node3"><a xlink:href="classnlohmann_1_1basic__json.html#a16f9445f7629f634221a42b967cdcd43" target="_top" xlink:title="get a value (explicit) ">
<polygon fill="#ffffff" stroke="#000000" points="173,-50 173,-69 304,-69 304,-50 173,-50"/>
<text text-anchor="middle" x="238.5" y="-57" font-family="Helvetica,sans-Serif" font-size="10.00" fill="#000000">nlohmann::basic_json::get</text>
</a>
</g>
</g>
<!-- Node103&#45;&gt;Node105 -->
<g id="edge2" class="edge">
<title>Node103&#45;&gt;Node105</title>
<path fill="none" stroke="#191970" d="M147.1901,-59.5C155.7901,-59.5 164.4767,-59.5 172.8952,-59.5"/>
<polygon fill="#191970" stroke="#191970" points="147.1555,-56.0001 137.1555,-59.5 147.1555,-63.0001 147.1555,-56.0001"/>
</g>
<!-- Node106 -->
<g id="node4" class="node">
<title>Node106</title>
<g id="a_node4"><a xlink:href="classnlohmann_1_1basic__json.html#a8a3db7d78f74232d3a6fb8f1abf69709" target="_top" xlink:title="get a value (explicit) ">
<polygon fill="#ffffff" stroke="#000000" points="183,-.5 183,-30.5 294,-30.5 294,-.5 183,-.5"/>
<text text-anchor="start" x="191" y="-18.5" font-family="Helvetica,sans-Serif" font-size="10.00" fill="#000000">nlohmann::basic_json</text>
<text text-anchor="middle" x="238.5" y="-7.5" font-family="Helvetica,sans-Serif" font-size="10.00" fill="#000000">::get_to</text>
</a>
</g>
</g>
<!-- Node103&#45;&gt;Node106 -->
<g id="edge3" class="edge">
<title>Node103&#45;&gt;Node106</title>
<path fill="none" stroke="#191970" d="M115.3186,-47.3823C136.2478,-41.9653 161.0755,-35.5393 182.9386,-29.8806"/>
<polygon fill="#191970" stroke="#191970" points="114.1915,-44.0586 105.3875,-49.9527 115.9455,-50.8353 114.1915,-44.0586"/>
</g>
<!-- Node107 -->
<g id="node5" class="node">
<title>Node107</title>
<g id="a_node5"><a xlink:href="namespaceRiver.html#ab2e6cbc1f3bbe0e9879ff60bb4a6df3c" target="_top" xlink:title="River::Open">
<polygon fill="#ffffff" stroke="#000000" points="340,-6 340,-25 409,-25 409,-6 340,-6"/>
<text text-anchor="middle" x="374.5" y="-13" font-family="Helvetica,sans-Serif" font-size="10.00" fill="#000000">River::Open</text>
</a>
</g>
</g>
<!-- Node106&#45;&gt;Node107 -->
<g id="edge4" class="edge">
<title>Node106&#45;&gt;Node107</title>
<path fill="none" stroke="#191970" d="M304.4085,-15.5C316.6175,-15.5 328.9164,-15.5 339.729,-15.5"/>
<polygon fill="#191970" stroke="#191970" points="304.2088,-12.0001 294.2088,-15.5 304.2088,-19.0001 304.2088,-12.0001"/>
</g>
<!-- Node108 -->
<g id="node6" class="node">
<title>Node108</title>
<g id="a_node6"><a xlink:href="main_8cpp.html#a0ddf1224851353fc92bfbff6f499fa97" target="_top" xlink:title="Entry point of RiverSim program. ">
<polygon fill="#ffffff" stroke="#000000" points="445,-6 445,-25 483,-25 483,-6 445,-6"/>
<text text-anchor="middle" x="464" y="-13" font-family="Helvetica,sans-Serif" font-size="10.00" fill="#000000">main</text>
</a>
</g>
</g>
<!-- Node107&#45;&gt;Node108 -->
<g id="edge5" class="edge">
<title>Node107&#45;&gt;Node108</title>
<path fill="none" stroke="#191970" d="M419.2688,-15.5C428.3428,-15.5 437.4158,-15.5 444.9954,-15.5"/>
<polygon fill="#191970" stroke="#191970" points="419.1031,-12.0001 409.103,-15.5 419.103,-19.0001 419.1031,-12.0001"/>
</g>
</g>
</svg>
