<?xml version="1.0" encoding="UTF-8" standalone="no"?>
<!DOCTYPE svg PUBLIC "-//W3C//DTD SVG 1.1//EN"
 "http://www.w3.org/Graphics/SVG/1.1/DTD/svg11.dtd">
<!-- Generated by graphviz version 2.40.1 (20161225.0304)
 -->
<!-- Title: nlohmann::detail::dtoa_impl::grisu2 Pages: 1 -->
<svg width="428pt" height="39pt"
 viewBox="0.00 0.00 428.00 39.00" xmlns="http://www.w3.org/2000/svg" xmlns:xlink="http://www.w3.org/1999/xlink">
<g id="graph0" class="graph" transform="scale(1 1) rotate(0) translate(4 35)">
<title>nlohmann::detail::dtoa_impl::grisu2</title>
<polygon fill="#ffffff" stroke="transparent" points="-4,4 -4,-35 424,-35 424,4 -4,4"/>
<!-- Node34 -->
<g id="node1" class="node">
<title>Node34</title>
<polygon fill="#bfbfbf" stroke="#000000" points="0,-.5 0,-30.5 113,-30.5 113,-.5 0,-.5"/>
<text text-anchor="start" x="8" y="-18.5" font-family="Helvetica,sans-Serif" font-size="10.00" fill="#000000">nlohmann::detail::dtoa</text>
<text text-anchor="middle" x="56.5" y="-7.5" font-family="Helvetica,sans-Serif" font-size="10.00" fill="#000000">_impl::grisu2</text>
</g>
<!-- Node35 -->
<g id="node2" class="node">
<title>Node35</title>
<g id="a_node2"><a xlink:href="namespacenlohmann_1_1detail.html#a18759c536d89c4dd3a118bd3ecb790da" target="_top" xlink:title="generates a decimal representation of the floating&#45;point number value in [first, last). ">
<polygon fill="#ffffff" stroke="#000000" points="149,-.5 149,-30.5 251,-30.5 251,-.5 149,-.5"/>
<text text-anchor="start" x="157" y="-18.5" font-family="Helvetica,sans-Serif" font-size="10.00" fill="#000000">nlohmann::detail::to</text>
<text text-anchor="middle" x="200" y="-7.5" font-family="Helvetica,sans-Serif" font-size="10.00" fill="#000000">_chars</text>
</a>
</g>
</g>
<!-- Node34&#45;&gt;Node35 -->
<g id="edge1" class="edge">
<title>Node34&#45;&gt;Node35</title>
<path fill="none" stroke="#191970" d="M123.234,-15.5C131.8318,-15.5 140.5261,-15.5 148.8199,-15.5"/>
<polygon fill="#191970" stroke="#191970" points="123.215,-12.0001 113.215,-15.5 123.215,-19.0001 123.215,-12.0001"/>
</g>
<!-- Node36 -->
<g id="node3" class="node">
<title>Node36</title>
<g id="a_node3"><a xlink:href="classnlohmann_1_1detail_1_1serializer.html#a24b0fe45dc774441237bde198a133d8a" target="_top" xlink:title="nlohmann::detail::serializer\l::dump_float">
<polygon fill="#ffffff" stroke="#000000" points="287,-.5 287,-30.5 420,-30.5 420,-.5 287,-.5"/>
<text text-anchor="start" x="295" y="-18.5" font-family="Helvetica,sans-Serif" font-size="10.00" fill="#000000">nlohmann::detail::serializer</text>
<text text-anchor="middle" x="353.5" y="-7.5" font-family="Helvetica,sans-Serif" font-size="10.00" fill="#000000">::dump_float</text>
</a>
</g>
</g>
<!-- Node35&#45;&gt;Node36 -->
<g id="edge2" class="edge">
<title>Node35&#45;&gt;Node36</title>
<path fill="none" stroke="#191970" d="M261.2068,-15.5C269.6108,-15.5 278.2742,-15.5 286.7709,-15.5"/>
<polygon fill="#191970" stroke="#191970" points="261.1133,-12.0001 251.1133,-15.5 261.1132,-19.0001 261.1133,-12.0001"/>
</g>
</g>
</svg>
