<?xml version="1.0" encoding="UTF-8" standalone="no"?>
<!DOCTYPE svg PUBLIC "-//W3C//DTD SVG 1.1//EN"
 "http://www.w3.org/Graphics/SVG/1.1/DTD/svg11.dtd">
<!-- Generated by graphviz version 2.40.1 (20161225.0304)
 -->
<!-- Title: nlohmann::detail::dtoa_impl::get_cached_power_for_binary_exponent Pages: 1 -->
<svg width="592pt" height="50pt"
 viewBox="0.00 0.00 592.00 50.00" xmlns="http://www.w3.org/2000/svg" xmlns:xlink="http://www.w3.org/1999/xlink">
<g id="graph0" class="graph" transform="scale(1 1) rotate(0) translate(4 46)">
<title>nlohmann::detail::dtoa_impl::get_cached_power_for_binary_exponent</title>
<polygon fill="#ffffff" stroke="transparent" points="-4,4 -4,-46 588,-46 588,4 -4,4"/>
<!-- Node6 -->
<g id="node1" class="node">
<title>Node6</title>
<polygon fill="#bfbfbf" stroke="#000000" points="0,-.5 0,-41.5 128,-41.5 128,-.5 0,-.5"/>
<text text-anchor="start" x="8" y="-29.5" font-family="Helvetica,sans-Serif" font-size="10.00" fill="#000000">nlohmann::detail::dtoa</text>
<text text-anchor="start" x="8" y="-18.5" font-family="Helvetica,sans-Serif" font-size="10.00" fill="#000000">_impl::get_cached_power</text>
<text text-anchor="middle" x="64" y="-7.5" font-family="Helvetica,sans-Serif" font-size="10.00" fill="#000000">_for_binary_exponent</text>
</g>
<!-- Node7 -->
<g id="node2" class="node">
<title>Node7</title>
<g id="a_node2"><a xlink:href="namespacenlohmann_1_1detail_1_1dtoa__impl.html#a05b681dcb8569b9784c6dccfadb01633" target="_top" xlink:title="nlohmann::detail::dtoa\l_impl::grisu2">
<polygon fill="#ffffff" stroke="#000000" points="164,-6 164,-36 277,-36 277,-6 164,-6"/>
<text text-anchor="start" x="172" y="-24" font-family="Helvetica,sans-Serif" font-size="10.00" fill="#000000">nlohmann::detail::dtoa</text>
<text text-anchor="middle" x="220.5" y="-13" font-family="Helvetica,sans-Serif" font-size="10.00" fill="#000000">_impl::grisu2</text>
</a>
</g>
</g>
<!-- Node6&#45;&gt;Node7 -->
<g id="edge1" class="edge">
<title>Node6&#45;&gt;Node7</title>
<path fill="none" stroke="#191970" d="M138.158,-21C146.768,-21 155.4443,-21 163.7683,-21"/>
<polygon fill="#191970" stroke="#191970" points="138.1061,-17.5001 128.1061,-21 138.1061,-24.5001 138.1061,-17.5001"/>
</g>
<!-- Node8 -->
<g id="node3" class="node">
<title>Node8</title>
<g id="a_node3"><a xlink:href="namespacenlohmann_1_1detail.html#a18759c536d89c4dd3a118bd3ecb790da" target="_top" xlink:title="generates a decimal representation of the floating&#45;point number value in [first, last). ">
<polygon fill="#ffffff" stroke="#000000" points="313,-6 313,-36 415,-36 415,-6 313,-6"/>
<text text-anchor="start" x="321" y="-24" font-family="Helvetica,sans-Serif" font-size="10.00" fill="#000000">nlohmann::detail::to</text>
<text text-anchor="middle" x="364" y="-13" font-family="Helvetica,sans-Serif" font-size="10.00" fill="#000000">_chars</text>
</a>
</g>
</g>
<!-- Node7&#45;&gt;Node8 -->
<g id="edge2" class="edge">
<title>Node7&#45;&gt;Node8</title>
<path fill="none" stroke="#191970" d="M287.234,-21C295.8318,-21 304.5261,-21 312.8199,-21"/>
<polygon fill="#191970" stroke="#191970" points="287.215,-17.5001 277.215,-21 287.215,-24.5001 287.215,-17.5001"/>
</g>
<!-- Node9 -->
<g id="node4" class="node">
<title>Node9</title>
<g id="a_node4"><a xlink:href="classnlohmann_1_1detail_1_1serializer.html#a24b0fe45dc774441237bde198a133d8a" target="_top" xlink:title="nlohmann::detail::serializer\l::dump_float">
<polygon fill="#ffffff" stroke="#000000" points="451,-6 451,-36 584,-36 584,-6 451,-6"/>
<text text-anchor="start" x="459" y="-24" font-family="Helvetica,sans-Serif" font-size="10.00" fill="#000000">nlohmann::detail::serializer</text>
<text text-anchor="middle" x="517.5" y="-13" font-family="Helvetica,sans-Serif" font-size="10.00" fill="#000000">::dump_float</text>
</a>
</g>
</g>
<!-- Node8&#45;&gt;Node9 -->
<g id="edge3" class="edge">
<title>Node8&#45;&gt;Node9</title>
<path fill="none" stroke="#191970" d="M425.2068,-21C433.6108,-21 442.2742,-21 450.7709,-21"/>
<polygon fill="#191970" stroke="#191970" points="425.1133,-17.5001 415.1133,-21 425.1132,-24.5001 425.1133,-17.5001"/>
</g>
</g>
</svg>
