<?xml version="1.0" encoding="UTF-8" standalone="no"?>
<!DOCTYPE svg PUBLIC "-//W3C//DTD SVG 1.1//EN"
 "http://www.w3.org/Graphics/SVG/1.1/DTD/svg11.dtd">
<!-- Generated by graphviz version 2.40.1 (20161225.0304)
 -->
<!-- Title: nlohmann::detail::to_chars Pages: 1 -->
<svg width="589pt" height="149pt"
 viewBox="0.00 0.00 589.00 148.50" xmlns="http://www.w3.org/2000/svg" xmlns:xlink="http://www.w3.org/1999/xlink">
<g id="graph0" class="graph" transform="scale(1 1) rotate(0) translate(4 144.5)">
<title>nlohmann::detail::to_chars</title>
<polygon fill="#ffffff" stroke="transparent" points="-4,4 -4,-144.5 585,-144.5 585,4 -4,4"/>
<!-- Node155 -->
<g id="node1" class="node">
<title>Node155</title>
<polygon fill="#bfbfbf" stroke="#000000" points="0,-24.5 0,-54.5 102,-54.5 102,-24.5 0,-24.5"/>
<text text-anchor="start" x="8" y="-42.5" font-family="Helvetica,sans-Serif" font-size="10.00" fill="#000000">nlohmann::detail::to</text>
<text text-anchor="middle" x="51" y="-31.5" font-family="Helvetica,sans-Serif" font-size="10.00" fill="#000000">_chars</text>
</g>
<!-- Node156 -->
<g id="node2" class="node">
<title>Node156</title>
<g id="a_node2"><a xlink:href="namespacenlohmann_1_1detail_1_1dtoa__impl.html#a05b681dcb8569b9784c6dccfadb01633" target="_top" xlink:title="nlohmann::detail::dtoa\l_impl::grisu2">
<polygon fill="#ffffff" stroke="#000000" points="138,-49.5 138,-79.5 251,-79.5 251,-49.5 138,-49.5"/>
<text text-anchor="start" x="146" y="-67.5" font-family="Helvetica,sans-Serif" font-size="10.00" fill="#000000">nlohmann::detail::dtoa</text>
<text text-anchor="middle" x="194.5" y="-56.5" font-family="Helvetica,sans-Serif" font-size="10.00" fill="#000000">_impl::grisu2</text>
</a>
</g>
</g>
<!-- Node155&#45;&gt;Node156 -->
<g id="edge1" class="edge">
<title>Node155&#45;&gt;Node156</title>
<path fill="none" stroke="#191970" d="M102.4015,-48.455C110.6095,-49.8849 119.2048,-51.3824 127.7069,-52.8636"/>
<polygon fill="#191970" stroke="#191970" points="127.1636,-56.3216 137.6159,-54.5899 128.3651,-49.4254 127.1636,-56.3216"/>
</g>
<!-- Node161 -->
<g id="node7" class="node">
<title>Node161</title>
<g id="a_node7"><a xlink:href="namespacenlohmann_1_1detail_1_1dtoa__impl.html#a12c1c5d8b46ba9702186445e73f86afe" target="_top" xlink:title="prettify v = buf * 10^decimal_exponent ">
<polygon fill="#ffffff" stroke="#000000" points="138,-.5 138,-30.5 251,-30.5 251,-.5 138,-.5"/>
<text text-anchor="start" x="146" y="-18.5" font-family="Helvetica,sans-Serif" font-size="10.00" fill="#000000">nlohmann::detail::dtoa</text>
<text text-anchor="middle" x="194.5" y="-7.5" font-family="Helvetica,sans-Serif" font-size="10.00" fill="#000000">_impl::format_buffer</text>
</a>
</g>
</g>
<!-- Node155&#45;&gt;Node161 -->
<g id="edge6" class="edge">
<title>Node155&#45;&gt;Node161</title>
<path fill="none" stroke="#191970" d="M102.4015,-30.9032C110.6095,-29.5305 119.2048,-28.0929 127.7069,-26.671"/>
<polygon fill="#191970" stroke="#191970" points="128.3303,-30.1154 137.6159,-25.0137 127.1756,-23.2113 128.3303,-30.1154"/>
</g>
<!-- Node157 -->
<g id="node3" class="node">
<title>Node157</title>
<g id="a_node3"><a xlink:href="namespacenlohmann_1_1detail_1_1dtoa__impl.html#adbf329a18c5cf854a3477327afd2200b" target="_top" xlink:title="nlohmann::detail::dtoa\l_impl::get_cached_power\l_for_binary_exponent">
<polygon fill="#ffffff" stroke="#000000" points="287,-99 287,-140 415,-140 415,-99 287,-99"/>
<text text-anchor="start" x="295" y="-128" font-family="Helvetica,sans-Serif" font-size="10.00" fill="#000000">nlohmann::detail::dtoa</text>
<text text-anchor="start" x="295" y="-117" font-family="Helvetica,sans-Serif" font-size="10.00" fill="#000000">_impl::get_cached_power</text>
<text text-anchor="middle" x="351" y="-106" font-family="Helvetica,sans-Serif" font-size="10.00" fill="#000000">_for_binary_exponent</text>
</a>
</g>
</g>
<!-- Node156&#45;&gt;Node157 -->
<g id="edge2" class="edge">
<title>Node156&#45;&gt;Node157</title>
<path fill="none" stroke="#191970" d="M237.2643,-79.529C251.3543,-84.4807 267.3917,-90.1169 282.8894,-95.5634"/>
<polygon fill="#191970" stroke="#191970" points="281.8521,-98.9086 292.447,-98.9223 284.1731,-92.3046 281.8521,-98.9086"/>
</g>
<!-- Node158 -->
<g id="node4" class="node">
<title>Node158</title>
<g id="a_node4"><a xlink:href="namespacenlohmann_1_1detail_1_1dtoa__impl.html#a9b899c72b0e1e3dd46d75c2b4e6bcdfb" target="_top" xlink:title="nlohmann::detail::dtoa\l_impl::grisu2_digit_gen">
<polygon fill="#ffffff" stroke="#000000" points="293,-49.5 293,-79.5 409,-79.5 409,-49.5 293,-49.5"/>
<text text-anchor="start" x="301" y="-67.5" font-family="Helvetica,sans-Serif" font-size="10.00" fill="#000000">nlohmann::detail::dtoa</text>
<text text-anchor="middle" x="351" y="-56.5" font-family="Helvetica,sans-Serif" font-size="10.00" fill="#000000">_impl::grisu2_digit_gen</text>
</a>
</g>
</g>
<!-- Node156&#45;&gt;Node158 -->
<g id="edge3" class="edge">
<title>Node156&#45;&gt;Node158</title>
<path fill="none" stroke="#191970" d="M251.0001,-64.5C261.2842,-64.5 272.1129,-64.5 282.6949,-64.5"/>
<polygon fill="#191970" stroke="#191970" points="282.7391,-68.0001 292.7391,-64.5 282.739,-61.0001 282.7391,-68.0001"/>
</g>
<!-- Node159 -->
<g id="node5" class="node">
<title>Node159</title>
<g id="a_node5"><a xlink:href="namespacenlohmann_1_1detail_1_1dtoa__impl.html#a36ded358763b5dbcea9867660fbe4e28" target="_top" xlink:title="nlohmann::detail::dtoa\l_impl::find_largest_pow10">
<polygon fill="#ffffff" stroke="#000000" points="451,-73.5 451,-103.5 581,-103.5 581,-73.5 451,-73.5"/>
<text text-anchor="start" x="459" y="-91.5" font-family="Helvetica,sans-Serif" font-size="10.00" fill="#000000">nlohmann::detail::dtoa</text>
<text text-anchor="middle" x="516" y="-80.5" font-family="Helvetica,sans-Serif" font-size="10.00" fill="#000000">_impl::find_largest_pow10</text>
</a>
</g>
</g>
<!-- Node158&#45;&gt;Node159 -->
<g id="edge4" class="edge">
<title>Node158&#45;&gt;Node159</title>
<path fill="none" stroke="#191970" d="M409.1728,-72.9615C419.368,-74.4444 430.1075,-76.0065 440.6881,-77.5455"/>
<polygon fill="#191970" stroke="#191970" points="440.3611,-81.0347 450.7608,-79.0107 441.3687,-74.1076 440.3611,-81.0347"/>
</g>
<!-- Node160 -->
<g id="node6" class="node">
<title>Node160</title>
<g id="a_node6"><a xlink:href="namespacenlohmann_1_1detail_1_1dtoa__impl.html#a5bc841e0bee12fd6489d49cf7bd07bb4" target="_top" xlink:title="nlohmann::detail::dtoa\l_impl::grisu2_round">
<polygon fill="#ffffff" stroke="#000000" points="459.5,-24.5 459.5,-54.5 572.5,-54.5 572.5,-24.5 459.5,-24.5"/>
<text text-anchor="start" x="467.5" y="-42.5" font-family="Helvetica,sans-Serif" font-size="10.00" fill="#000000">nlohmann::detail::dtoa</text>
<text text-anchor="middle" x="516" y="-31.5" font-family="Helvetica,sans-Serif" font-size="10.00" fill="#000000">_impl::grisu2_round</text>
</a>
</g>
</g>
<!-- Node158&#45;&gt;Node160 -->
<g id="edge5" class="edge">
<title>Node158&#45;&gt;Node160</title>
<path fill="none" stroke="#191970" d="M409.1728,-55.6859C422.1855,-53.7143 436.085,-51.6083 449.4091,-49.5895"/>
<polygon fill="#191970" stroke="#191970" points="450.0988,-53.0251 459.4616,-48.0664 449.0501,-46.1041 450.0988,-53.0251"/>
</g>
<!-- Node162 -->
<g id="node8" class="node">
<title>Node162</title>
<g id="a_node8"><a xlink:href="namespacenlohmann_1_1detail_1_1dtoa__impl.html#a84733638b826eda624488f5fa4521e0b" target="_top" xlink:title="appends a decimal representation of e to buf ">
<polygon fill="#ffffff" stroke="#000000" points="290,-.5 290,-30.5 412,-30.5 412,-.5 290,-.5"/>
<text text-anchor="start" x="298" y="-18.5" font-family="Helvetica,sans-Serif" font-size="10.00" fill="#000000">nlohmann::detail::dtoa</text>
<text text-anchor="middle" x="351" y="-7.5" font-family="Helvetica,sans-Serif" font-size="10.00" fill="#000000">_impl::append_exponent</text>
</a>
</g>
</g>
<!-- Node161&#45;&gt;Node162 -->
<g id="edge7" class="edge">
<title>Node161&#45;&gt;Node162</title>
<path fill="none" stroke="#191970" d="M251.0001,-15.5C260.2589,-15.5 269.959,-15.5 279.5232,-15.5"/>
<polygon fill="#191970" stroke="#191970" points="279.8207,-19.0001 289.8206,-15.5 279.8206,-12.0001 279.8207,-19.0001"/>
</g>
</g>
</svg>
