<?xml version="1.0" encoding="UTF-8" standalone="no"?>
<!DOCTYPE svg PUBLIC "-//W3C//DTD SVG 1.1//EN"
 "http://www.w3.org/Graphics/SVG/1.1/DTD/svg11.dtd">
<!-- Generated by graphviz version 2.40.1 (20161225.0304)
 -->
<!-- Title: River::BoundaryGenerator Pages: 1 -->
<svg width="644pt" height="344pt"
 viewBox="0.00 0.00 644.00 344.00" xmlns="http://www.w3.org/2000/svg" xmlns:xlink="http://www.w3.org/1999/xlink">
<g id="graph0" class="graph" transform="scale(1 1) rotate(0) translate(4 340)">
<title>River::BoundaryGenerator</title>
<polygon fill="#ffffff" stroke="transparent" points="-4,4 -4,-340 640,-340 640,4 -4,4"/>
<!-- Node189 -->
<g id="node1" class="node">
<title>Node189</title>
<polygon fill="#bfbfbf" stroke="#000000" points="0,-174.5 0,-193.5 130,-193.5 130,-174.5 0,-174.5"/>
<text text-anchor="middle" x="65" y="-181.5" font-family="Helvetica,sans-Serif" font-size="10.00" fill="#000000">River::BoundaryGenerator</text>
</g>
<!-- Node190 -->
<g id="node2" class="node">
<title>Node190</title>
<g id="a_node2"><a xlink:href="classRiver_1_1Border.html#a666af04bf7a9be4fce8dac5fabcd8b31" target="_top" xlink:title="River::Border::SourceByVertice\lIdMap">
<polygon fill="#ffffff" stroke="#000000" points="166,-191 166,-221 320,-221 320,-191 166,-191"/>
<text text-anchor="start" x="174" y="-209" font-family="Helvetica,sans-Serif" font-size="10.00" fill="#000000">River::Border::SourceByVertice</text>
<text text-anchor="middle" x="243" y="-198" font-family="Helvetica,sans-Serif" font-size="10.00" fill="#000000">IdMap</text>
</a>
</g>
</g>
<!-- Node189&#45;&gt;Node190 -->
<g id="edge1" class="edge">
<title>Node189&#45;&gt;Node190</title>
<path fill="none" stroke="#191970" d="M130.0177,-192.0359C138.3692,-193.0681 147.0253,-194.138 155.6605,-195.2052"/>
<polygon fill="#191970" stroke="#191970" points="155.4145,-198.7014 165.7684,-196.4545 156.2732,-191.7542 155.4145,-198.7014"/>
</g>
<!-- Node191 -->
<g id="node3" class="node">
<title>Node191</title>
<g id="a_node3"><a xlink:href="namespaceRiver.html#ace7057edc24ee07f8265dad28b73a41a" target="_top" xlink:title="Generates trees boundary. ">
<polygon fill="#ffffff" stroke="#000000" points="196,-152.5 196,-171.5 290,-171.5 290,-152.5 196,-152.5"/>
<text text-anchor="middle" x="243" y="-159.5" font-family="Helvetica,sans-Serif" font-size="10.00" fill="#000000">River::TreeVector</text>
</a>
</g>
</g>
<!-- Node189&#45;&gt;Node191 -->
<g id="edge2" class="edge">
<title>Node189&#45;&gt;Node191</title>
<path fill="none" stroke="#191970" d="M130.0177,-175.9641C148.2819,-173.7067 168.0022,-171.2694 185.7762,-169.0726"/>
<polygon fill="#191970" stroke="#191970" points="186.4955,-172.5104 195.9907,-167.8101 185.6368,-165.5633 186.4955,-172.5104"/>
</g>
<!-- Node192 -->
<g id="node4" class="node">
<title>Node192</title>
<g id="a_node4"><a xlink:href="classRiver_1_1Tree.html#a47f13208e26100fb6f1301ebd6a1daf0" target="_top" xlink:title="Returns link to branch with id. ">
<polygon fill="#ffffff" stroke="#000000" points="371,-316.5 371,-335.5 489,-335.5 489,-316.5 371,-316.5"/>
<text text-anchor="middle" x="430" y="-323.5" font-family="Helvetica,sans-Serif" font-size="10.00" fill="#000000">River::Tree::GetBranch</text>
</a>
</g>
</g>
<!-- Node191&#45;&gt;Node192 -->
<g id="edge3" class="edge">
<title>Node191&#45;&gt;Node192</title>
<path fill="none" stroke="#191970" d="M290.1165,-166.2064C301.0713,-169.2056 311.8871,-174.0976 320,-182 361.4142,-222.3396 314.5294,-266.7183 356,-307 357.8731,-308.8194 359.8958,-310.4714 362.034,-311.9709"/>
<polygon fill="#191970" stroke="#191970" points="360.3727,-315.0533 370.7814,-317.0304 363.8775,-308.9938 360.3727,-315.0533"/>
</g>
<!-- Node193 -->
<g id="node5" class="node">
<title>Node193</title>
<g id="a_node5"><a xlink:href="classRiver_1_1BranchNew.html#ad31e9de44351f77a06bce668094cf2f4" target="_top" xlink:title="Returns number of points in branch. ">
<polygon fill="#ffffff" stroke="#000000" points="369,-278.5 369,-297.5 491,-297.5 491,-278.5 369,-278.5"/>
<text text-anchor="middle" x="430" y="-285.5" font-family="Helvetica,sans-Serif" font-size="10.00" fill="#000000">River::BranchNew::Size</text>
</a>
</g>
</g>
<!-- Node191&#45;&gt;Node193 -->
<g id="edge4" class="edge">
<title>Node191&#45;&gt;Node193</title>
<path fill="none" stroke="#191970" d="M290.3239,-167.0741C301.0214,-170.0714 311.6661,-174.7451 320,-182 351.5624,-209.4759 324.3992,-241.5683 356,-269 357.7904,-270.5542 359.6916,-271.984 361.6794,-273.2992"/>
<polygon fill="#191970" stroke="#191970" points="360.4259,-276.6045 370.874,-278.362 363.8023,-270.4726 360.4259,-276.6045"/>
</g>
<!-- Node194 -->
<g id="node6" class="node">
<title>Node194</title>
<g id="a_node6"><a xlink:href="classRiver_1_1BranchNew.html#a1e3a5b41f9e8e0a0336ad298cf4de281" target="_top" xlink:title="Returns i&#45;th point vector. ">
<polygon fill="#ffffff" stroke="#000000" points="359.5,-240.5 359.5,-259.5 500.5,-259.5 500.5,-240.5 359.5,-240.5"/>
<text text-anchor="middle" x="430" y="-247.5" font-family="Helvetica,sans-Serif" font-size="10.00" fill="#000000">River::BranchNew::GetPoint</text>
</a>
</g>
</g>
<!-- Node191&#45;&gt;Node194 -->
<g id="edge5" class="edge">
<title>Node191&#45;&gt;Node194</title>
<path fill="none" stroke="#191970" d="M290.3799,-168.9089C300.7227,-171.8466 311.1965,-176.0333 320,-182 342.3697,-197.1613 333.6091,-215.87 356,-231 358.9467,-232.9912 362.0879,-234.7737 365.3506,-236.3694"/>
<polygon fill="#191970" stroke="#191970" points="364.2341,-239.6978 374.8063,-240.3899 366.9732,-233.256 364.2341,-239.6978"/>
</g>
<!-- Node195 -->
<g id="node7" class="node">
<title>Node195</title>
<g id="a_node7"><a xlink:href="classRiver_1_1BranchNew.html#a5d3d81efc31f625bbddcbd5b17f405b9" target="_top" xlink:title="Returns SourceAngle of branch &#45; initial source_angle ">
<polygon fill="#ffffff" stroke="#000000" points="363,-191 363,-221 497,-221 497,-191 363,-191"/>
<text text-anchor="start" x="371" y="-209" font-family="Helvetica,sans-Serif" font-size="10.00" fill="#000000">River::BranchNew::Source</text>
<text text-anchor="middle" x="430" y="-198" font-family="Helvetica,sans-Serif" font-size="10.00" fill="#000000">Angle</text>
</a>
</g>
</g>
<!-- Node191&#45;&gt;Node195 -->
<g id="edge6" class="edge">
<title>Node191&#45;&gt;Node195</title>
<path fill="none" stroke="#191970" d="M283.5762,-171.5473C304.8182,-176.5455 331.4942,-182.8222 356.2379,-188.6442"/>
<polygon fill="#191970" stroke="#191970" points="355.4364,-192.0511 365.9722,-190.9346 357.0397,-185.2372 355.4364,-192.0511"/>
</g>
<!-- Node196 -->
<g id="node8" class="node">
<title>Node196</title>
<g id="a_node8"><a xlink:href="classRiver_1_1BranchNew.html#a4e49c832969fde3d72bf9049a819cc04" target="_top" xlink:title="Returns vector of i&#45;th segment of branch. ">
<polygon fill="#ffffff" stroke="#000000" points="364.5,-152.5 364.5,-171.5 495.5,-171.5 495.5,-152.5 364.5,-152.5"/>
<text text-anchor="middle" x="430" y="-159.5" font-family="Helvetica,sans-Serif" font-size="10.00" fill="#000000">River::BranchNew::Vector</text>
</a>
</g>
</g>
<!-- Node191&#45;&gt;Node196 -->
<g id="edge7" class="edge">
<title>Node191&#45;&gt;Node196</title>
<path fill="none" stroke="#191970" d="M290.188,-162C309.6162,-162 332.6135,-162 354.2869,-162"/>
<polygon fill="#191970" stroke="#191970" points="354.4652,-165.5001 364.4651,-162 354.4651,-158.5001 354.4652,-165.5001"/>
</g>
<!-- Node197 -->
<g id="node9" class="node">
<title>Node197</title>
<g id="a_node9"><a xlink:href="classRiver_1_1Point.html#aa6005dcc4bb5ded97a0b9a5eb28bc528" target="_top" xlink:title="Normalizes current Point. ">
<polygon fill="#ffffff" stroke="#000000" points="372,-114.5 372,-133.5 488,-133.5 488,-114.5 372,-114.5"/>
<text text-anchor="middle" x="430" y="-121.5" font-family="Helvetica,sans-Serif" font-size="10.00" fill="#000000">River::Point::normalize</text>
</a>
</g>
</g>
<!-- Node191&#45;&gt;Node197 -->
<g id="edge8" class="edge">
<title>Node191&#45;&gt;Node197</title>
<path fill="none" stroke="#191970" d="M290.188,-152.411C315.4205,-147.2835 346.673,-140.9328 373.2268,-135.5368"/>
<polygon fill="#191970" stroke="#191970" points="374.0486,-138.9414 383.1513,-133.5201 372.6546,-132.0816 374.0486,-138.9414"/>
</g>
<!-- Node199 -->
<g id="node11" class="node">
<title>Node199</title>
<g id="a_node11"><a xlink:href="classRiver_1_1Point.html#a99648a8a3af61babbcbcdbe0de12db71" target="_top" xlink:title="Rotates point on phi angle(counterclockwise) ">
<polygon fill="#ffffff" stroke="#000000" points="380.5,-76.5 380.5,-95.5 479.5,-95.5 479.5,-76.5 380.5,-76.5"/>
<text text-anchor="middle" x="430" y="-83.5" font-family="Helvetica,sans-Serif" font-size="10.00" fill="#000000">River::Point::rotate</text>
</a>
</g>
</g>
<!-- Node191&#45;&gt;Node199 -->
<g id="edge10" class="edge">
<title>Node191&#45;&gt;Node199</title>
<path fill="none" stroke="#191970" d="M259.3375,-152.3392C280.8678,-139.9436 320.2084,-118.4416 356,-105 362.5074,-102.5561 369.4516,-100.3166 376.3811,-98.3002"/>
<polygon fill="#191970" stroke="#191970" points="377.7664,-101.5484 386.4705,-95.5077 375.8992,-94.8021 377.7664,-101.5484"/>
</g>
<!-- Node200 -->
<g id="node12" class="node">
<title>Node200</title>
<g id="a_node12"><a xlink:href="classRiver_1_1Tree.html#a69137f4816bba370246bb6c6bc40432e" target="_top" xlink:title="Checks if Branch branch_id has subbranches. ">
<polygon fill="#ffffff" stroke="#000000" points="356,-38.5 356,-57.5 504,-57.5 504,-38.5 356,-38.5"/>
<text text-anchor="middle" x="430" y="-45.5" font-family="Helvetica,sans-Serif" font-size="10.00" fill="#000000">River::Tree::HasSubBranches</text>
</a>
</g>
</g>
<!-- Node191&#45;&gt;Node200 -->
<g id="edge11" class="edge">
<title>Node191&#45;&gt;Node200</title>
<path fill="none" stroke="#191970" d="M251.6204,-152.2837C269.2569,-133.0175 311.5594,-89.8659 356,-67 360.5279,-64.6703 365.362,-62.612 370.3085,-60.7962"/>
<polygon fill="#191970" stroke="#191970" points="371.5292,-64.0787 379.9088,-57.5954 369.3151,-57.438 371.5292,-64.0787"/>
</g>
<!-- Node201 -->
<g id="node13" class="node">
<title>Node201</title>
<g id="a_node13"><a xlink:href="classRiver_1_1Tree.html#ae31f3d283572b952d587b171a26a07ee" target="_top" xlink:title="Returns pair of ids of subranches. ">
<polygon fill="#ffffff" stroke="#000000" points="357,-.5 357,-19.5 503,-19.5 503,-.5 357,-.5"/>
<text text-anchor="middle" x="430" y="-7.5" font-family="Helvetica,sans-Serif" font-size="10.00" fill="#000000">River::Tree::GetSubBranches</text>
</a>
</g>
</g>
<!-- Node191&#45;&gt;Node201 -->
<g id="edge12" class="edge">
<title>Node191&#45;&gt;Node201</title>
<path fill="none" stroke="#191970" d="M248.3973,-152.1892C262.5566,-127.4096 303.339,-61.9369 356,-29 359.3824,-26.8844 362.9916,-25.0037 366.7275,-23.3319"/>
<polygon fill="#191970" stroke="#191970" points="368.1979,-26.5145 376.218,-19.5915 365.6311,-20.002 368.1979,-26.5145"/>
</g>
<!-- Node198 -->
<g id="node10" class="node">
<title>Node198</title>
<g id="a_node10"><a xlink:href="classRiver_1_1Point.html#a96d6c70f36acd051f5885163bc2de5b5" target="_top" xlink:title="Returns norm of vector. ">
<polygon fill="#ffffff" stroke="#000000" points="540,-114.5 540,-133.5 636,-133.5 636,-114.5 540,-114.5"/>
<text text-anchor="middle" x="588" y="-121.5" font-family="Helvetica,sans-Serif" font-size="10.00" fill="#000000">River::Point::norm</text>
</a>
</g>
</g>
<!-- Node197&#45;&gt;Node198 -->
<g id="edge9" class="edge">
<title>Node197&#45;&gt;Node198</title>
<path fill="none" stroke="#191970" d="M488.3845,-124C501.9043,-124 516.2902,-124 529.802,-124"/>
<polygon fill="#191970" stroke="#191970" points="529.9354,-127.5001 539.9353,-124 529.9353,-120.5001 529.9354,-127.5001"/>
</g>
</g>
</svg>
