<?xml version="1.0" encoding="UTF-8" standalone="no"?>
<!DOCTYPE svg PUBLIC "-//W3C//DTD SVG 1.1//EN"
 "http://www.w3.org/Graphics/SVG/1.1/DTD/svg11.dtd">
<!-- Generated by graphviz version 2.40.1 (20161225.0304)
 -->
<!-- Title: River::Save Pages: 1 -->
<svg width="254pt" height="180pt"
 viewBox="0.00 0.00 254.00 180.00" xmlns="http://www.w3.org/2000/svg" xmlns:xlink="http://www.w3.org/1999/xlink">
<g id="graph0" class="graph" transform="scale(1 1) rotate(0) translate(4 176)">
<title>River::Save</title>
<polygon fill="#ffffff" stroke="transparent" points="-4,4 -4,-176 250,-176 250,4 -4,4"/>
<!-- Node6 -->
<g id="node1" class="node">
<title>Node6</title>
<polygon fill="#bfbfbf" stroke="#000000" points="0,-76.5 0,-95.5 68,-95.5 68,-76.5 0,-76.5"/>
<text text-anchor="middle" x="34" y="-83.5" font-family="Helvetica,sans-Serif" font-size="10.00" fill="#000000">River::Save</text>
</g>
<!-- Node7 -->
<g id="node2" class="node">
<title>Node7</title>
<g id="a_node2"><a xlink:href="classRiver_1_1Tree.html#a47f13208e26100fb6f1301ebd6a1daf0" target="_top" xlink:title="Returns link to branch with id. ">
<polygon fill="#ffffff" stroke="#000000" points="116,-152.5 116,-171.5 234,-171.5 234,-152.5 116,-152.5"/>
<text text-anchor="middle" x="175" y="-159.5" font-family="Helvetica,sans-Serif" font-size="10.00" fill="#000000">River::Tree::GetBranch</text>
</a>
</g>
</g>
<!-- Node6&#45;&gt;Node7 -->
<g id="edge1" class="edge">
<title>Node6&#45;&gt;Node7</title>
<path fill="none" stroke="#191970" d="M43.0395,-95.5429C55.563,-108.2137 79.4383,-130.4482 104,-143 108.5698,-145.3353 113.4562,-147.4058 118.4468,-149.2371"/>
<polygon fill="#191970" stroke="#191970" points="117.523,-152.6186 128.1168,-152.4705 119.7429,-145.9799 117.523,-152.6186"/>
</g>
<!-- Node8 -->
<g id="node3" class="node">
<title>Node8</title>
<g id="a_node3"><a xlink:href="classRiver_1_1BranchNew.html#a1e3a5b41f9e8e0a0336ad298cf4de281" target="_top" xlink:title="Returns i&#45;th point vector. ">
<polygon fill="#ffffff" stroke="#000000" points="104.5,-114.5 104.5,-133.5 245.5,-133.5 245.5,-114.5 104.5,-114.5"/>
<text text-anchor="middle" x="175" y="-121.5" font-family="Helvetica,sans-Serif" font-size="10.00" fill="#000000">River::BranchNew::GetPoint</text>
</a>
</g>
</g>
<!-- Node6&#45;&gt;Node8 -->
<g id="edge2" class="edge">
<title>Node6&#45;&gt;Node8</title>
<path fill="none" stroke="#191970" d="M68.1731,-95.3017C79.5659,-98.3958 92.3277,-101.8541 104,-105 112.2355,-107.2196 121.0109,-109.5755 129.4827,-111.8451"/>
<polygon fill="#191970" stroke="#191970" points="128.673,-115.2515 139.238,-114.4565 130.4832,-108.4896 128.673,-115.2515"/>
</g>
<!-- Node9 -->
<g id="node4" class="node">
<title>Node9</title>
<g id="a_node4"><a xlink:href="classRiver_1_1Timing.html#ac94f6acea587dab9bf4e67c99c50f055" target="_top" xlink:title="Return date of object creation string. ">
<polygon fill="#ffffff" stroke="#000000" points="104,-76.5 104,-95.5 246,-95.5 246,-76.5 104,-76.5"/>
<text text-anchor="middle" x="175" y="-83.5" font-family="Helvetica,sans-Serif" font-size="10.00" fill="#000000">River::Timing::CreationtDate</text>
</a>
</g>
</g>
<!-- Node6&#45;&gt;Node9 -->
<g id="edge3" class="edge">
<title>Node6&#45;&gt;Node9</title>
<path fill="none" stroke="#191970" d="M68.1322,-86C76.008,-86 84.7177,-86 93.6659,-86"/>
<polygon fill="#191970" stroke="#191970" points="93.8385,-89.5001 103.8384,-86 93.8384,-82.5001 93.8385,-89.5001"/>
</g>
<!-- Node10 -->
<g id="node5" class="node">
<title>Node10</title>
<g id="a_node5"><a xlink:href="classRiver_1_1Timing.html#a61d2ccfb0de1fb6a620de06dc54083ce" target="_top" xlink:title="Return current date string. ">
<polygon fill="#ffffff" stroke="#000000" points="108,-38.5 108,-57.5 242,-57.5 242,-38.5 108,-38.5"/>
<text text-anchor="middle" x="175" y="-45.5" font-family="Helvetica,sans-Serif" font-size="10.00" fill="#000000">River::Timing::CurrentDate</text>
</a>
</g>
</g>
<!-- Node6&#45;&gt;Node10 -->
<g id="edge4" class="edge">
<title>Node6&#45;&gt;Node10</title>
<path fill="none" stroke="#191970" d="M68.1731,-76.6983C79.5659,-73.6042 92.3277,-70.1459 104,-67 112.2355,-64.7804 121.0109,-62.4245 129.4827,-60.1549"/>
<polygon fill="#191970" stroke="#191970" points="130.4832,-63.5104 139.238,-57.5435 128.673,-56.7485 130.4832,-63.5104"/>
</g>
<!-- Node11 -->
<g id="node6" class="node">
<title>Node11</title>
<g id="a_node6"><a xlink:href="classRiver_1_1Timing.html#a2c916dfa64e1c281447643d01c78e673" target="_top" xlink:title="Return total time of simmulation. ">
<polygon fill="#ffffff" stroke="#000000" points="123.5,-.5 123.5,-19.5 226.5,-19.5 226.5,-.5 123.5,-.5"/>
<text text-anchor="middle" x="175" y="-7.5" font-family="Helvetica,sans-Serif" font-size="10.00" fill="#000000">River::Timing::Total</text>
</a>
</g>
</g>
<!-- Node6&#45;&gt;Node11 -->
<g id="edge5" class="edge">
<title>Node6&#45;&gt;Node11</title>
<path fill="none" stroke="#191970" d="M43.0395,-76.4571C55.563,-63.7863 79.4383,-41.5518 104,-29 108.5698,-26.6647 113.4562,-24.5942 118.4468,-22.7629"/>
<polygon fill="#191970" stroke="#191970" points="119.7429,-26.0201 128.1168,-19.5295 117.523,-19.3814 119.7429,-26.0201"/>
</g>
</g>
</svg>
