<?xml version="1.0" encoding="UTF-8" standalone="no"?>
<!DOCTYPE svg PUBLIC "-//W3C//DTD SVG 1.1//EN"
 "http://www.w3.org/Graphics/SVG/1.1/DTD/svg11.dtd">
<!-- Generated by graphviz version 2.40.1 (20161225.0304)
 -->
<!-- Title: River::ForwardRiverEvolution Pages: 1 -->
<svg width="710pt" height="1149pt"
 viewBox="0.00 0.00 710.00 1149.00" xmlns="http://www.w3.org/2000/svg" xmlns:xlink="http://www.w3.org/1999/xlink">
<g id="graph0" class="graph" transform="scale(1 1) rotate(0) translate(4 1145)">
<title>River::ForwardRiverEvolution</title>
<polygon fill="#ffffff" stroke="transparent" points="-4,4 -4,-1145 706,-1145 706,4 -4,4"/>
<!-- Node18 -->
<g id="node1" class="node">
<title>Node18</title>
<polygon fill="#bfbfbf" stroke="#000000" points="0,-354.5 0,-373.5 145,-373.5 145,-354.5 0,-354.5"/>
<text text-anchor="middle" x="72.5" y="-361.5" font-family="Helvetica,sans-Serif" font-size="10.00" fill="#000000">River::ForwardRiverEvolution</text>
</g>
<!-- Node19 -->
<g id="node2" class="node">
<title>Node19</title>
<g id="a_node2"><a xlink:href="namespaceRiver.html#a43d55da8d0508b984518c4ebed6e0ad7" target="_top" xlink:title="Finnal Boudary Geneartor Class. ">
<polygon fill="#ffffff" stroke="#000000" points="189.5,-881.5 189.5,-900.5 319.5,-900.5 319.5,-881.5 189.5,-881.5"/>
<text text-anchor="middle" x="254.5" y="-888.5" font-family="Helvetica,sans-Serif" font-size="10.00" fill="#000000">River::BoundaryGenerator</text>
</a>
</g>
</g>
<!-- Node18&#45;&gt;Node19 -->
<g id="edge1" class="edge">
<title>Node18&#45;&gt;Node19</title>
<path fill="none" stroke="#191970" d="M73.9138,-373.7135C82.6795,-433.0839 130.8748,-747.1792 181,-829 192.9202,-848.4576 213.065,-864.8124 229.2534,-875.8307"/>
<polygon fill="#191970" stroke="#191970" points="227.4763,-878.8503 237.7625,-881.3887 231.3043,-872.9898 227.4763,-878.8503"/>
</g>
<!-- Node22 -->
<g id="node5" class="node">
<title>Node22</title>
<g id="a_node5"><a xlink:href="classRiver_1_1Tree.html#a47f13208e26100fb6f1301ebd6a1daf0" target="_top" xlink:title="Returns link to branch with id. ">
<polygon fill="#ffffff" stroke="#000000" points="569,-805.5 569,-824.5 687,-824.5 687,-805.5 569,-805.5"/>
<text text-anchor="middle" x="628" y="-812.5" font-family="Helvetica,sans-Serif" font-size="10.00" fill="#000000">River::Tree::GetBranch</text>
</a>
</g>
</g>
<!-- Node18&#45;&gt;Node22 -->
<g id="edge39" class="edge">
<title>Node18&#45;&gt;Node22</title>
<path fill="none" stroke="#191970" d="M73.4216,-373.5012C77.8144,-414.1681 99.905,-575.9048 181,-673 275.2409,-785.8348 458.892,-810.1432 558.9604,-814.6706"/>
<polygon fill="#191970" stroke="#191970" points="558.8361,-818.1683 568.9677,-815.0698 559.1152,-811.1739 558.8361,-818.1683"/>
</g>
<!-- Node32 -->
<g id="node14" class="node">
<title>Node32</title>
<g id="a_node14"><a xlink:href="classRiver_1_1Tree.html#a4563499cba0aa908a7c4c849bacaad41" target="_top" xlink:title="Returns vector of tip branches Points. ">
<polygon fill="#ffffff" stroke="#000000" points="198,-644.5 198,-663.5 311,-663.5 311,-644.5 198,-644.5"/>
<text text-anchor="middle" x="254.5" y="-651.5" font-family="Helvetica,sans-Serif" font-size="10.00" fill="#000000">River::Tree::TipPoints</text>
</a>
</g>
</g>
<!-- Node18&#45;&gt;Node32 -->
<g id="edge13" class="edge">
<title>Node18&#45;&gt;Node32</title>
<path fill="none" stroke="#191970" d="M73.314,-373.6632C77.1452,-412.8083 96.9053,-561.0244 181,-635 183.3967,-637.1083 185.9977,-638.9877 188.743,-640.6627"/>
<polygon fill="#191970" stroke="#191970" points="187.4293,-643.9216 197.9279,-645.3464 190.6093,-637.6856 187.4293,-643.9216"/>
</g>
<!-- Node33 -->
<g id="node15" class="node">
<title>Node33</title>
<g id="a_node15"><a xlink:href="classRiver_1_1Triangle.html#a0dae20b40d446e6009a88543e2c14daf" target="_top" xlink:title="Generate mesh. ">
<polygon fill="#ffffff" stroke="#000000" points="192.5,-606.5 192.5,-625.5 316.5,-625.5 316.5,-606.5 192.5,-606.5"/>
<text text-anchor="middle" x="254.5" y="-613.5" font-family="Helvetica,sans-Serif" font-size="10.00" fill="#000000">River::Triangle::generate</text>
</a>
</g>
</g>
<!-- Node18&#45;&gt;Node33 -->
<g id="edge14" class="edge">
<title>Node18&#45;&gt;Node33</title>
<path fill="none" stroke="#191970" d="M74.0194,-373.7648C80.1208,-409.567 106.2229,-534.782 181,-597 183.039,-598.6965 185.2116,-600.2437 187.4842,-601.6546"/>
<polygon fill="#191970" stroke="#191970" points="186.1898,-604.9269 196.6748,-606.4481 189.4269,-598.7203 186.1898,-604.9269"/>
</g>
<!-- Node141 -->
<g id="node28" class="node">
<title>Node141</title>
<g id="a_node28"><a xlink:href="classRiver_1_1Solver.html#a8d0a93ada5df466e04ef2eca9a5efe49" target="_top" xlink:title="River::Solver::SetBoundary\lRegionValue">
<polygon fill="#ffffff" stroke="#000000" points="186.5,-557 186.5,-587 322.5,-587 322.5,-557 186.5,-557"/>
<text text-anchor="start" x="194.5" y="-575" font-family="Helvetica,sans-Serif" font-size="10.00" fill="#000000">River::Solver::SetBoundary</text>
<text text-anchor="middle" x="254.5" y="-564" font-family="Helvetica,sans-Serif" font-size="10.00" fill="#000000">RegionValue</text>
</a>
</g>
</g>
<!-- Node18&#45;&gt;Node141 -->
<g id="edge28" class="edge">
<title>Node18&#45;&gt;Node141</title>
<path fill="none" stroke="#191970" d="M75.4847,-373.5587C85.3666,-403.6595 119.9129,-497.4253 181,-547 183.0604,-548.6721 185.2386,-550.2349 187.5043,-551.6953"/>
<polygon fill="#191970" stroke="#191970" points="186.1837,-554.9689 196.6129,-556.8351 189.6238,-548.8725 186.1837,-554.9689"/>
</g>
<!-- Node142 -->
<g id="node29" class="node">
<title>Node142</title>
<g id="a_node29"><a xlink:href="classRiver_1_1Model.html#a2dce19c362748f76f810de451ec4cb09" target="_top" xlink:title="River::Model::GetZeroIndices">
<polygon fill="#ffffff" stroke="#000000" points="182,-518.5 182,-537.5 327,-537.5 327,-518.5 182,-518.5"/>
<text text-anchor="middle" x="254.5" y="-525.5" font-family="Helvetica,sans-Serif" font-size="10.00" fill="#000000">River::Model::GetZeroIndices</text>
</a>
</g>
</g>
<!-- Node18&#45;&gt;Node142 -->
<g id="edge29" class="edge">
<title>Node18&#45;&gt;Node142</title>
<path fill="none" stroke="#191970" d="M76.7843,-373.54C89.0044,-399.6193 126.6836,-472.5784 181,-509 184.0822,-511.0667 187.3755,-512.9087 190.7962,-514.5503"/>
<polygon fill="#191970" stroke="#191970" points="189.5153,-517.8084 200.091,-518.4446 192.2204,-511.3522 189.5153,-517.8084"/>
</g>
<!-- Node143 -->
<g id="node30" class="node">
<title>Node143</title>
<g id="a_node30"><a xlink:href="classRiver_1_1Model.html#ab8e5c29a609f7b5a32f3907c56b2644a" target="_top" xlink:title="River::Model::GetNonZero\lIndices">
<polygon fill="#ffffff" stroke="#000000" points="189,-469 189,-499 320,-499 320,-469 189,-469"/>
<text text-anchor="start" x="197" y="-487" font-family="Helvetica,sans-Serif" font-size="10.00" fill="#000000">River::Model::GetNonZero</text>
<text text-anchor="middle" x="254.5" y="-476" font-family="Helvetica,sans-Serif" font-size="10.00" fill="#000000">Indices</text>
</a>
</g>
</g>
<!-- Node18&#45;&gt;Node143 -->
<g id="edge30" class="edge">
<title>Node18&#45;&gt;Node143</title>
<path fill="none" stroke="#191970" d="M81.1074,-373.7448C98.3147,-392.6818 138.9336,-434.718 181,-459 184.6771,-461.1225 188.5621,-463.1012 192.5481,-464.9393"/>
<polygon fill="#191970" stroke="#191970" points="191.4115,-468.2598 201.9821,-468.9747 194.1644,-461.8239 191.4115,-468.2598"/>
</g>
<!-- Node144 -->
<g id="node31" class="node">
<title>Node144</title>
<g id="a_node31"><a xlink:href="classRiver_1_1Solver.html#ab82147ca4342c3c4d038a17824437a53" target="_top" xlink:title="River::Solver::OpenMesh">
<polygon fill="#ffffff" stroke="#000000" points="191,-430.5 191,-449.5 318,-449.5 318,-430.5 191,-430.5"/>
<text text-anchor="middle" x="254.5" y="-437.5" font-family="Helvetica,sans-Serif" font-size="10.00" fill="#000000">River::Solver::OpenMesh</text>
</a>
</g>
</g>
<!-- Node18&#45;&gt;Node144 -->
<g id="edge31" class="edge">
<title>Node18&#45;&gt;Node144</title>
<path fill="none" stroke="#191970" d="M88.1333,-373.6948C108.7483,-386.1272 146.4596,-407.6689 181,-421 187.3612,-423.4551 194.153,-425.6939 200.9417,-427.7035"/>
<polygon fill="#191970" stroke="#191970" points="200.2611,-431.1477 210.835,-430.4823 202.154,-424.4085 200.2611,-431.1477"/>
</g>
<!-- Node145 -->
<g id="node32" class="node">
<title>Node145</title>
<g id="a_node32"><a xlink:href="classRiver_1_1Solver.html#a4222fe744d607f870a5d7d22b11e8334" target="_top" xlink:title="River::Solver::run">
<polygon fill="#ffffff" stroke="#000000" points="208,-392.5 208,-411.5 301,-411.5 301,-392.5 208,-392.5"/>
<text text-anchor="middle" x="254.5" y="-399.5" font-family="Helvetica,sans-Serif" font-size="10.00" fill="#000000">River::Solver::run</text>
</a>
</g>
</g>
<!-- Node18&#45;&gt;Node145 -->
<g id="edge32" class="edge">
<title>Node18&#45;&gt;Node145</title>
<path fill="none" stroke="#191970" d="M118.4263,-373.589C142.8759,-378.6939 173.1331,-385.0113 198.903,-390.3918"/>
<polygon fill="#191970" stroke="#191970" points="198.3997,-393.8622 208.904,-392.4799 199.8304,-387.0099 198.3997,-393.8622"/>
</g>
<!-- Node152 -->
<g id="node38" class="node">
<title>Node152</title>
<g id="a_node38"><a xlink:href="classRiver_1_1Tree.html#a52cafbadef53e2fe40b26dd1ca5aa350" target="_top" xlink:title="Returns vector of tip branches ids. ">
<polygon fill="#ffffff" stroke="#000000" points="187.5,-354.5 187.5,-373.5 321.5,-373.5 321.5,-354.5 187.5,-354.5"/>
<text text-anchor="middle" x="254.5" y="-361.5" font-family="Helvetica,sans-Serif" font-size="10.00" fill="#000000">River::Tree::TipBranchesId</text>
</a>
</g>
</g>
<!-- Node18&#45;&gt;Node152 -->
<g id="edge38" class="edge">
<title>Node18&#45;&gt;Node152</title>
<path fill="none" stroke="#191970" d="M145.2159,-364C155.7204,-364 166.564,-364 177.1551,-364"/>
<polygon fill="#191970" stroke="#191970" points="177.2127,-367.5001 187.2127,-364 177.2127,-360.5001 177.2127,-367.5001"/>
</g>
<!-- Node153 -->
<g id="node39" class="node">
<title>Node153</title>
<g id="a_node39"><a xlink:href="classRiver_1_1BranchNew.html#a413cf341c51f3c40648394d78b6bafbc" target="_top" xlink:title="Return TipPoint of branch(last point in branch) ">
<polygon fill="#ffffff" stroke="#000000" points="185,-316.5 185,-335.5 324,-335.5 324,-316.5 185,-316.5"/>
<text text-anchor="middle" x="254.5" y="-323.5" font-family="Helvetica,sans-Serif" font-size="10.00" fill="#000000">River::BranchNew::TipPoint</text>
</a>
</g>
</g>
<!-- Node18&#45;&gt;Node153 -->
<g id="edge40" class="edge">
<title>Node18&#45;&gt;Node153</title>
<path fill="none" stroke="#191970" d="M118.4263,-354.411C142.8759,-349.3061 173.1331,-342.9887 198.903,-337.6082"/>
<polygon fill="#191970" stroke="#191970" points="199.8304,-340.9901 208.904,-335.5201 198.3997,-334.1378 199.8304,-340.9901"/>
</g>
<!-- Node154 -->
<g id="node40" class="node">
<title>Node154</title>
<g id="a_node40"><a xlink:href="classRiver_1_1BranchNew.html#a93139b44ba252c1ea9dfc86edf9c8067" target="_top" xlink:title="Returns angle of tip of branch. ">
<polygon fill="#ffffff" stroke="#000000" points="184,-278.5 184,-297.5 325,-297.5 325,-278.5 184,-278.5"/>
<text text-anchor="middle" x="254.5" y="-285.5" font-family="Helvetica,sans-Serif" font-size="10.00" fill="#000000">River::BranchNew::TipAngle</text>
</a>
</g>
</g>
<!-- Node18&#45;&gt;Node154 -->
<g id="edge41" class="edge">
<title>Node18&#45;&gt;Node154</title>
<path fill="none" stroke="#191970" d="M88.1333,-354.3052C108.7483,-341.8728 146.4596,-320.3311 181,-307 187.3612,-304.5449 194.153,-302.3061 200.9417,-300.2965"/>
<polygon fill="#191970" stroke="#191970" points="202.154,-303.5915 210.835,-297.5177 200.2611,-296.8523 202.154,-303.5915"/>
</g>
<!-- Node155 -->
<g id="node41" class="node">
<title>Node155</title>
<g id="a_node41"><a xlink:href="classRiver_1_1Solver.html#a66fbdd0a7309f3c278de7e3e46a0fda8" target="_top" xlink:title="River::Solver::integrate">
<polygon fill="#ffffff" stroke="#000000" points="196,-240.5 196,-259.5 313,-259.5 313,-240.5 196,-240.5"/>
<text text-anchor="middle" x="254.5" y="-247.5" font-family="Helvetica,sans-Serif" font-size="10.00" fill="#000000">River::Solver::integrate</text>
</a>
</g>
</g>
<!-- Node18&#45;&gt;Node155 -->
<g id="edge42" class="edge">
<title>Node18&#45;&gt;Node155</title>
<path fill="none" stroke="#191970" d="M80.6925,-354.2736C97.4747,-334.9894 137.8326,-291.807 181,-269 185.4738,-266.6363 190.2587,-264.5543 195.1609,-262.7226"/>
<polygon fill="#191970" stroke="#191970" points="196.3313,-266.0215 204.6815,-259.5004 194.0872,-259.391 196.3313,-266.0215"/>
</g>
<!-- Node158 -->
<g id="node44" class="node">
<title>Node158</title>
<g id="a_node44"><a xlink:href="classRiver_1_1Model.html#a1dbc3e6176af5470bf3fded3ee725f7b" target="_top" xlink:title="Checks by evaluating series param for growth condition. ">
<polygon fill="#ffffff" stroke="#000000" points="195.5,-202.5 195.5,-221.5 313.5,-221.5 313.5,-202.5 195.5,-202.5"/>
<text text-anchor="middle" x="254.5" y="-209.5" font-family="Helvetica,sans-Serif" font-size="10.00" fill="#000000">River::Model::q_growth</text>
</a>
</g>
</g>
<!-- Node18&#45;&gt;Node158 -->
<g id="edge45" class="edge">
<title>Node18&#45;&gt;Node158</title>
<path fill="none" stroke="#191970" d="M77.5782,-354.1909C90.9291,-329.4154 129.561,-263.9514 181,-231 184.3381,-228.8616 187.9064,-226.9635 191.6048,-225.2786"/>
<polygon fill="#191970" stroke="#191970" points="193.0255,-228.48 201.0087,-221.5144 190.4242,-221.9812 193.0255,-228.48"/>
</g>
<!-- Node159 -->
<g id="node45" class="node">
<title>Node159</title>
<g id="a_node45"><a xlink:href="classRiver_1_1Model.html#a13d66be4045b141c13b6e16e472afe44" target="_top" xlink:title="Checks by evaluating series params for biffuraction condition. ">
<polygon fill="#ffffff" stroke="#000000" points="190,-164.5 190,-183.5 319,-183.5 319,-164.5 190,-164.5"/>
<text text-anchor="middle" x="254.5" y="-171.5" font-family="Helvetica,sans-Serif" font-size="10.00" fill="#000000">River::Model::q_biffurcate</text>
</a>
</g>
</g>
<!-- Node18&#45;&gt;Node159 -->
<g id="edge46" class="edge">
<title>Node18&#45;&gt;Node159</title>
<path fill="none" stroke="#191970" d="M75.673,-354.4693C85.8758,-325.3485 120.7355,-236.864 181,-193 183.664,-191.061 186.5087,-189.3195 189.4733,-187.7554"/>
<polygon fill="#191970" stroke="#191970" points="191.0118,-190.9007 198.6662,-183.5754 188.1143,-184.5285 191.0118,-190.9007"/>
</g>
<!-- Node160 -->
<g id="node46" class="node">
<title>Node160</title>
<g id="a_node46"><a xlink:href="classRiver_1_1Tree.html#ae42603046cab7443cf549cbfb94c3351" target="_top" xlink:title="Adds Sub Branches left_bracnhs, right_branch to root_branch_id. ">
<polygon fill="#ffffff" stroke="#000000" points="181,-126.5 181,-145.5 328,-145.5 328,-126.5 181,-126.5"/>
<text text-anchor="middle" x="254.5" y="-133.5" font-family="Helvetica,sans-Serif" font-size="10.00" fill="#000000">River::Tree::AddSubBranches</text>
</a>
</g>
</g>
<!-- Node18&#45;&gt;Node160 -->
<g id="edge47" class="edge">
<title>Node18&#45;&gt;Node160</title>
<path fill="none" stroke="#191970" d="M74.5593,-354.3158C82.1693,-320.9799 111.9183,-210.0075 181,-155 183.2715,-153.1913 185.6964,-151.5531 188.2315,-150.0696"/>
<polygon fill="#191970" stroke="#191970" points="189.8204,-153.1884 197.2124,-145.5983 186.7005,-146.9221 189.8204,-153.1884"/>
</g>
<!-- Node161 -->
<g id="node47" class="node">
<title>Node161</title>
<g id="a_node47"><a xlink:href="classRiver_1_1BranchNew.html#a81a7a1477541ef4310d9e49197643146" target="_top" xlink:title="Adds point p to branch in tip relative coord system. ">
<polygon fill="#ffffff" stroke="#000000" points="183,-88.5 183,-107.5 326,-107.5 326,-88.5 183,-88.5"/>
<text text-anchor="middle" x="254.5" y="-95.5" font-family="Helvetica,sans-Serif" font-size="10.00" fill="#000000">River::BranchNew::AddPoint</text>
</a>
</g>
</g>
<!-- Node18&#45;&gt;Node161 -->
<g id="edge48" class="edge">
<title>Node18&#45;&gt;Node161</title>
<path fill="none" stroke="#191970" d="M73.7126,-354.4311C78.9051,-317.5838 102.6967,-183.617 181,-117 182.9763,-115.3186 185.0834,-113.7835 187.2894,-112.382"/>
<polygon fill="#191970" stroke="#191970" points="189.0485,-115.4105 196.2212,-107.6128 185.7514,-109.2356 189.0485,-115.4105"/>
</g>
<!-- Node162 -->
<g id="node48" class="node">
<title>Node162</title>
<g id="a_node48"><a xlink:href="classRiver_1_1Model.html#ad22bc4fecfe36e2cde033df2a5220c07" target="_top" xlink:title="Evaluate next point of simualtion based on series parameters around tip. ">
<polygon fill="#ffffff" stroke="#000000" points="206,-39 206,-69 303,-69 303,-39 206,-39"/>
<text text-anchor="start" x="214" y="-57" font-family="Helvetica,sans-Serif" font-size="10.00" fill="#000000">River::Model::next</text>
<text text-anchor="middle" x="254.5" y="-46" font-family="Helvetica,sans-Serif" font-size="10.00" fill="#000000">_point</text>
</a>
</g>
</g>
<!-- Node18&#45;&gt;Node162 -->
<g id="edge49" class="edge">
<title>Node18&#45;&gt;Node162</title>
<path fill="none" stroke="#191970" d="M73.2821,-354.303C77.0259,-314.3051 96.6027,-160.4206 181,-79 185.5833,-74.5783 190.9786,-70.9372 196.73,-67.9392"/>
<polygon fill="#191970" stroke="#191970" points="198.3337,-71.0551 205.9956,-63.7375 195.4427,-64.6799 198.3337,-71.0551"/>
</g>
<!-- Node165 -->
<g id="node50" class="node">
<title>Node165</title>
<g id="a_node50"><a xlink:href="classRiver_1_1Solver.html#aa3edfad041ae11e84fb29720e2eb7b80" target="_top" xlink:title="River::Solver::clear">
<polygon fill="#ffffff" stroke="#000000" points="204,-.5 204,-19.5 305,-19.5 305,-.5 204,-.5"/>
<text text-anchor="middle" x="254.5" y="-7.5" font-family="Helvetica,sans-Serif" font-size="10.00" fill="#000000">River::Solver::clear</text>
</a>
</g>
</g>
<!-- Node18&#45;&gt;Node165 -->
<g id="edge51" class="edge">
<title>Node18&#45;&gt;Node165</title>
<path fill="none" stroke="#191970" d="M74.3523,-354.241C84.0401,-304.1759 130.3689,-76.6687 181,-29 185.0184,-25.2168 189.6887,-22.1628 194.6903,-19.7008"/>
<polygon fill="#191970" stroke="#191970" points="196.0648,-22.92 203.9814,-15.8789 193.4018,-16.4463 196.0648,-22.92"/>
</g>
<!-- Node20 -->
<g id="node3" class="node">
<title>Node20</title>
<g id="a_node3"><a xlink:href="classRiver_1_1Border.html#a666af04bf7a9be4fce8dac5fabcd8b31" target="_top" xlink:title="River::Border::SourceByVertice\lIdMap">
<polygon fill="#ffffff" stroke="#000000" points="364,-876 364,-906 518,-906 518,-876 364,-876"/>
<text text-anchor="start" x="372" y="-894" font-family="Helvetica,sans-Serif" font-size="10.00" fill="#000000">River::Border::SourceByVertice</text>
<text text-anchor="middle" x="441" y="-883" font-family="Helvetica,sans-Serif" font-size="10.00" fill="#000000">IdMap</text>
</a>
</g>
</g>
<!-- Node19&#45;&gt;Node20 -->
<g id="edge2" class="edge">
<title>Node19&#45;&gt;Node20</title>
<path fill="none" stroke="#191970" d="M319.7286,-891C330.7777,-891 342.4054,-891 353.9075,-891"/>
<polygon fill="#191970" stroke="#191970" points="353.9656,-894.5001 363.9655,-891 353.9655,-887.5001 353.9656,-894.5001"/>
</g>
<!-- Node21 -->
<g id="node4" class="node">
<title>Node21</title>
<g id="a_node4"><a xlink:href="namespaceRiver.html#ace7057edc24ee07f8265dad28b73a41a" target="_top" xlink:title="Generates trees boundary. ">
<polygon fill="#ffffff" stroke="#000000" points="394,-941.5 394,-960.5 488,-960.5 488,-941.5 394,-941.5"/>
<text text-anchor="middle" x="441" y="-948.5" font-family="Helvetica,sans-Serif" font-size="10.00" fill="#000000">River::TreeVector</text>
</a>
</g>
</g>
<!-- Node19&#45;&gt;Node21 -->
<g id="edge3" class="edge">
<title>Node19&#45;&gt;Node21</title>
<path fill="none" stroke="#191970" d="M284.0515,-900.5072C315.7422,-910.7026 366.2344,-926.9467 401.359,-938.2469"/>
<polygon fill="#191970" stroke="#191970" points="400.6872,-941.7073 411.2786,-941.4382 402.831,-935.0437 400.6872,-941.7073"/>
</g>
<!-- Node21&#45;&gt;Node22 -->
<g id="edge4" class="edge">
<title>Node21&#45;&gt;Node22</title>
<path fill="none" stroke="#191970" d="M475.3247,-941.4919C489.9743,-936.0121 506.343,-927.8088 518,-916 545.9616,-887.6743 523.6662,-859.7693 554,-834 555.9901,-832.3093 558.1119,-830.7663 560.3331,-829.3583"/>
<polygon fill="#191970" stroke="#191970" points="562.1448,-832.3589 569.3265,-824.5695 558.8548,-826.1802 562.1448,-832.3589"/>
</g>
<!-- Node23 -->
<g id="node6" class="node">
<title>Node23</title>
<g id="a_node6"><a xlink:href="classRiver_1_1BranchNew.html#ad31e9de44351f77a06bce668094cf2f4" target="_top" xlink:title="Returns number of points in branch. ">
<polygon fill="#ffffff" stroke="#000000" points="567,-843.5 567,-862.5 689,-862.5 689,-843.5 567,-843.5"/>
<text text-anchor="middle" x="628" y="-850.5" font-family="Helvetica,sans-Serif" font-size="10.00" fill="#000000">River::BranchNew::Size</text>
</a>
</g>
</g>
<!-- Node21&#45;&gt;Node23 -->
<g id="edge5" class="edge">
<title>Node21&#45;&gt;Node23</title>
<path fill="none" stroke="#191970" d="M470.1638,-941.394C485.351,-935.5246 503.6856,-927.0145 518,-916 538.0249,-900.5914 532.7032,-885.5965 554,-872 557.3015,-869.8922 560.8261,-868.0179 564.4783,-866.3512"/>
<polygon fill="#191970" stroke="#191970" points="565.7901,-869.5961 573.7652,-862.6213 563.1812,-863.1004 565.7901,-869.5961"/>
</g>
<!-- Node24 -->
<g id="node7" class="node">
<title>Node24</title>
<g id="a_node7"><a xlink:href="classRiver_1_1BranchNew.html#a1e3a5b41f9e8e0a0336ad298cf4de281" target="_top" xlink:title="Returns i&#45;th point vector. ">
<polygon fill="#ffffff" stroke="#000000" points="557.5,-1121.5 557.5,-1140.5 698.5,-1140.5 698.5,-1121.5 557.5,-1121.5"/>
<text text-anchor="middle" x="628" y="-1128.5" font-family="Helvetica,sans-Serif" font-size="10.00" fill="#000000">River::BranchNew::GetPoint</text>
</a>
</g>
</g>
<!-- Node21&#45;&gt;Node24 -->
<g id="edge6" class="edge">
<title>Node21&#45;&gt;Node24</title>
<path fill="none" stroke="#191970" d="M444.9213,-960.7756C456.7646,-989.0015 495.0192,-1071.2081 554,-1112 556.8687,-1113.9841 559.929,-1115.761 563.111,-1117.3524"/>
<polygon fill="#191970" stroke="#191970" points="561.7772,-1120.5889 572.3436,-1121.3641 564.5668,-1114.1688 561.7772,-1120.5889"/>
</g>
<!-- Node25 -->
<g id="node8" class="node">
<title>Node25</title>
<g id="a_node8"><a xlink:href="classRiver_1_1BranchNew.html#a5d3d81efc31f625bbddcbd5b17f405b9" target="_top" xlink:title="Returns SourceAngle of branch &#45; initial source_angle ">
<polygon fill="#ffffff" stroke="#000000" points="561,-1072 561,-1102 695,-1102 695,-1072 561,-1072"/>
<text text-anchor="start" x="569" y="-1090" font-family="Helvetica,sans-Serif" font-size="10.00" fill="#000000">River::BranchNew::Source</text>
<text text-anchor="middle" x="628" y="-1079" font-family="Helvetica,sans-Serif" font-size="10.00" fill="#000000">Angle</text>
</a>
</g>
</g>
<!-- Node21&#45;&gt;Node25 -->
<g id="edge7" class="edge">
<title>Node21&#45;&gt;Node25</title>
<path fill="none" stroke="#191970" d="M448.3776,-960.7962C464.9572,-982.1656 507.3786,-1033.3434 554,-1062 557.3485,-1064.0582 560.8873,-1065.9708 564.5305,-1067.7444"/>
<polygon fill="#191970" stroke="#191970" points="563.1948,-1070.9811 573.7523,-1071.8705 566.0538,-1064.5915 563.1948,-1070.9811"/>
</g>
<!-- Node26 -->
<g id="node9" class="node">
<title>Node26</title>
<g id="a_node9"><a xlink:href="classRiver_1_1BranchNew.html#a4e49c832969fde3d72bf9049a819cc04" target="_top" xlink:title="Returns vector of i&#45;th segment of branch. ">
<polygon fill="#ffffff" stroke="#000000" points="562.5,-1033.5 562.5,-1052.5 693.5,-1052.5 693.5,-1033.5 562.5,-1033.5"/>
<text text-anchor="middle" x="628" y="-1040.5" font-family="Helvetica,sans-Serif" font-size="10.00" fill="#000000">River::BranchNew::Vector</text>
</a>
</g>
</g>
<!-- Node21&#45;&gt;Node26 -->
<g id="edge8" class="edge">
<title>Node21&#45;&gt;Node26</title>
<path fill="none" stroke="#191970" d="M453.1199,-960.734C473.0306,-976.2698 514.4153,-1006.6799 554,-1024 559.6619,-1026.4773 565.7142,-1028.6823 571.8271,-1030.632"/>
<polygon fill="#191970" stroke="#191970" points="570.853,-1033.9937 581.4358,-1033.488 572.8475,-1027.2838 570.853,-1033.9937"/>
</g>
<!-- Node27 -->
<g id="node10" class="node">
<title>Node27</title>
<g id="a_node10"><a xlink:href="classRiver_1_1Point.html#aa6005dcc4bb5ded97a0b9a5eb28bc528" target="_top" xlink:title="Normalizes current Point. ">
<polygon fill="#ffffff" stroke="#ff0000" points="570,-995.5 570,-1014.5 686,-1014.5 686,-995.5 570,-995.5"/>
<text text-anchor="middle" x="628" y="-1002.5" font-family="Helvetica,sans-Serif" font-size="10.00" fill="#000000">River::Point::normalize</text>
</a>
</g>
</g>
<!-- Node21&#45;&gt;Node27 -->
<g id="edge9" class="edge">
<title>Node21&#45;&gt;Node27</title>
<path fill="none" stroke="#191970" d="M470.6214,-960.6106C493.3471,-967.8778 525.544,-977.9452 554,-986 562.2557,-988.3369 571.0642,-990.7059 579.6188,-992.9417"/>
<polygon fill="#191970" stroke="#191970" points="578.9387,-996.3808 589.4964,-995.4951 580.6907,-989.6036 578.9387,-996.3808"/>
</g>
<!-- Node29 -->
<g id="node11" class="node">
<title>Node29</title>
<g id="a_node11"><a xlink:href="classRiver_1_1Point.html#a99648a8a3af61babbcbcdbe0de12db71" target="_top" xlink:title="Rotates point on phi angle(counterclockwise) ">
<polygon fill="#ffffff" stroke="#000000" points="578.5,-957.5 578.5,-976.5 677.5,-976.5 677.5,-957.5 578.5,-957.5"/>
<text text-anchor="middle" x="628" y="-964.5" font-family="Helvetica,sans-Serif" font-size="10.00" fill="#000000">River::Point::rotate</text>
</a>
</g>
</g>
<!-- Node21&#45;&gt;Node29 -->
<g id="edge10" class="edge">
<title>Node21&#45;&gt;Node29</title>
<path fill="none" stroke="#191970" d="M488.188,-955.0375C512.4496,-957.1133 542.277,-959.6654 568.1415,-961.8784"/>
<polygon fill="#191970" stroke="#191970" points="567.9478,-965.3745 578.2098,-962.7399 568.5446,-958.4 567.9478,-965.3745"/>
</g>
<!-- Node30 -->
<g id="node12" class="node">
<title>Node30</title>
<g id="a_node12"><a xlink:href="classRiver_1_1Tree.html#a69137f4816bba370246bb6c6bc40432e" target="_top" xlink:title="Checks if Branch branch_id has subbranches. ">
<polygon fill="#ffffff" stroke="#000000" points="554,-919.5 554,-938.5 702,-938.5 702,-919.5 554,-919.5"/>
<text text-anchor="middle" x="628" y="-926.5" font-family="Helvetica,sans-Serif" font-size="10.00" fill="#000000">River::Tree::HasSubBranches</text>
</a>
</g>
</g>
<!-- Node21&#45;&gt;Node30 -->
<g id="edge11" class="edge">
<title>Node21&#45;&gt;Node30</title>
<path fill="none" stroke="#191970" d="M488.188,-945.4485C505.1412,-943.454 524.8121,-941.1398 543.9495,-938.8883"/>
<polygon fill="#191970" stroke="#191970" points="544.3687,-942.3632 553.8912,-937.7187 543.5507,-935.4112 544.3687,-942.3632"/>
</g>
<!-- Node31 -->
<g id="node13" class="node">
<title>Node31</title>
<g id="a_node13"><a xlink:href="classRiver_1_1Tree.html#ae31f3d283572b952d587b171a26a07ee" target="_top" xlink:title="Returns pair of ids of subranches. ">
<polygon fill="#ffffff" stroke="#000000" points="555,-881.5 555,-900.5 701,-900.5 701,-881.5 555,-881.5"/>
<text text-anchor="middle" x="628" y="-888.5" font-family="Helvetica,sans-Serif" font-size="10.00" fill="#000000">River::Tree::GetSubBranches</text>
</a>
</g>
</g>
<!-- Node21&#45;&gt;Node31 -->
<g id="edge12" class="edge">
<title>Node21&#45;&gt;Node31</title>
<path fill="none" stroke="#191970" d="M465.4563,-941.3496C488.1884,-932.5658 523.0942,-919.5499 554,-910 561.7482,-907.6058 570.0163,-905.2715 578.1141,-903.1049"/>
<polygon fill="#191970" stroke="#191970" points="579.0735,-906.4718 587.8607,-900.5528 577.3002,-899.7001 579.0735,-906.4718"/>
</g>
<!-- Node34 -->
<g id="node16" class="node">
<title>Node34</title>
<g id="a_node16"><a xlink:href="classRiver_1_1Triangle.html#af65f8816f88a34c015cd5ca66aca1aef" target="_top" xlink:title="o2 &#45; generates second order mesh ">
<polygon fill="#ffffff" stroke="#000000" points="384.5,-503 384.5,-533 497.5,-533 497.5,-503 384.5,-503"/>
<text text-anchor="start" x="392.5" y="-521" font-family="Helvetica,sans-Serif" font-size="10.00" fill="#000000">River::Triangle::set</text>
<text text-anchor="middle" x="441" y="-510" font-family="Helvetica,sans-Serif" font-size="10.00" fill="#000000">_all_values_to_default</text>
</a>
</g>
</g>
<!-- Node33&#45;&gt;Node34 -->
<g id="edge15" class="edge">
<title>Node33&#45;&gt;Node34</title>
<path fill="none" stroke="#191970" d="M309.8709,-606.4528C316.3081,-603.9905 322.5211,-600.894 328,-597 351.5113,-580.2902 341.0089,-560.4187 364,-543 367.4029,-540.4219 371.0822,-538.1036 374.9246,-536.0198"/>
<polygon fill="#191970" stroke="#191970" points="376.6509,-539.0729 384.1326,-531.5712 373.6057,-532.77 376.6509,-539.0729"/>
</g>
<!-- Node37 -->
<g id="node19" class="node">
<title>Node37</title>
<g id="a_node19"><a xlink:href="classRiver_1_1Triangle.html#aef5e3aa8a5f87ca8557c1a0886b925c3" target="_top" xlink:title="Converts tethex::Mesh to triangulateio used by Triangle. ">
<polygon fill="#ffffff" stroke="#000000" points="384.5,-650 384.5,-680 497.5,-680 497.5,-650 384.5,-650"/>
<text text-anchor="start" x="392.5" y="-668" font-family="Helvetica,sans-Serif" font-size="10.00" fill="#000000">River::Triangle::tethex</text>
<text text-anchor="middle" x="441" y="-657" font-family="Helvetica,sans-Serif" font-size="10.00" fill="#000000">_to_io</text>
</a>
</g>
</g>
<!-- Node33&#45;&gt;Node37 -->
<g id="edge18" class="edge">
<title>Node33&#45;&gt;Node37</title>
<path fill="none" stroke="#191970" d="M291.5266,-625.5212C303.2007,-628.5366 316.1429,-631.8935 328,-635 343.1404,-638.9667 359.4121,-643.2655 374.7599,-647.3366"/>
<polygon fill="#191970" stroke="#191970" points="374.1277,-650.79 384.691,-649.9732 375.9239,-644.0243 374.1277,-650.79"/>
</g>
<!-- Node38 -->
<g id="node20" class="node">
<title>Node38</title>
<g id="a_node20"><a xlink:href="classRiver_1_1Triangle.html#ab4a007be4739f8e3781b190f5c6c0b09" target="_top" xlink:title="Outputs to consloe geometry. ">
<polygon fill="#ffffff" stroke="#000000" points="388.5,-699 388.5,-729 493.5,-729 493.5,-699 388.5,-699"/>
<text text-anchor="start" x="396.5" y="-717" font-family="Helvetica,sans-Serif" font-size="10.00" fill="#000000">River::Triangle::print</text>
<text text-anchor="middle" x="441" y="-706" font-family="Helvetica,sans-Serif" font-size="10.00" fill="#000000">_geometry</text>
</a>
</g>
</g>
<!-- Node33&#45;&gt;Node38 -->
<g id="edge20" class="edge">
<title>Node33&#45;&gt;Node38</title>
<path fill="none" stroke="#191970" d="M309.9026,-625.5028C316.3344,-627.9725 322.5375,-631.083 328,-635 351.742,-652.025 340.6838,-672.3964 364,-690 368.47,-693.3748 373.423,-696.281 378.599,-698.7825"/>
<polygon fill="#191970" stroke="#191970" points="377.5306,-702.1327 388.1003,-702.862 380.2924,-695.7005 377.5306,-702.1327"/>
</g>
<!-- Node39 -->
<g id="node21" class="node">
<title>Node39</title>
<g id="a_node21"><a xlink:href="triangle_8cpp.html#a2437307f91cae6cb54bd21bdfc561597" target="_top" xlink:title="Call Triangle. ">
<polygon fill="#ffffff" stroke="#ff0000" points="410,-748.5 410,-767.5 472,-767.5 472,-748.5 410,-748.5"/>
<text text-anchor="middle" x="441" y="-755.5" font-family="Helvetica,sans-Serif" font-size="10.00" fill="#000000">triangulate</text>
</a>
</g>
</g>
<!-- Node33&#45;&gt;Node39 -->
<g id="edge21" class="edge">
<title>Node33&#45;&gt;Node39</title>
<path fill="none" stroke="#191970" d="M313.8256,-625.5899C318.9955,-628.0683 323.835,-631.1566 328,-635 363.9469,-668.171 327.8705,-706.028 364,-739 373.7906,-747.935 387.1061,-752.8369 399.911,-755.4754"/>
<polygon fill="#191970" stroke="#191970" points="399.5572,-758.9643 409.9938,-757.14 400.6975,-752.0578 399.5572,-758.9643"/>
</g>
<!-- Node135 -->
<g id="node26" class="node">
<title>Node135</title>
<g id="a_node26"><a xlink:href="classRiver_1_1Triangle.html#ace837080fe12b6a062b3256288885d74" target="_top" xlink:title="Converts triangulateio to tethex::Mesh used by rest of program. ">
<polygon fill="#ffffff" stroke="#ff0000" points="394,-601 394,-631 488,-631 488,-601 394,-601"/>
<text text-anchor="start" x="402" y="-619" font-family="Helvetica,sans-Serif" font-size="10.00" fill="#000000">River::Triangle::io</text>
<text text-anchor="middle" x="441" y="-608" font-family="Helvetica,sans-Serif" font-size="10.00" fill="#000000">_to_tethex</text>
</a>
</g>
</g>
<!-- Node33&#45;&gt;Node135 -->
<g id="edge26" class="edge">
<title>Node33&#45;&gt;Node135</title>
<path fill="none" stroke="#191970" d="M316.6018,-616C338.2745,-616 362.4833,-616 383.7435,-616"/>
<polygon fill="#191970" stroke="#191970" points="383.9194,-619.5001 393.9194,-616 383.9193,-612.5001 383.9194,-619.5001"/>
</g>
<!-- Node139 -->
<g id="node27" class="node">
<title>Node139</title>
<g id="a_node27"><a xlink:href="classRiver_1_1Triangle.html#a3f7788026746dcc85d607cfe375b7d20" target="_top" xlink:title="Freeups allocated memory for interface variables(in, out, vorout). ">
<polygon fill="#ffffff" stroke="#ff0000" points="389.5,-552 389.5,-582 492.5,-582 492.5,-552 389.5,-552"/>
<text text-anchor="start" x="397.5" y="-570" font-family="Helvetica,sans-Serif" font-size="10.00" fill="#000000">River::Triangle::free</text>
<text text-anchor="middle" x="441" y="-559" font-family="Helvetica,sans-Serif" font-size="10.00" fill="#000000">_allocated_memory</text>
</a>
</g>
</g>
<!-- Node33&#45;&gt;Node139 -->
<g id="edge27" class="edge">
<title>Node33&#45;&gt;Node139</title>
<path fill="none" stroke="#191970" d="M291.5266,-606.4788C303.2007,-603.4634 316.1429,-600.1065 328,-597 344.7419,-592.6138 362.867,-587.8213 379.5967,-583.3798"/>
<polygon fill="#191970" stroke="#191970" points="380.4987,-586.7617 389.2646,-580.811 378.7011,-579.9964 380.4987,-586.7617"/>
</g>
<!-- Node35 -->
<g id="node17" class="node">
<title>Node35</title>
<g id="a_node17"><a xlink:href="classRiver_1_1Triangle.html#a98666335bc441895b9c13ba84d8f7981" target="_top" xlink:title="Updates options bassing on interface flags. ">
<polygon fill="#ffffff" stroke="#000000" points="570,-503 570,-533 686,-533 686,-503 570,-503"/>
<text text-anchor="start" x="578" y="-521" font-family="Helvetica,sans-Serif" font-size="10.00" fill="#000000">River::Triangle::update</text>
<text text-anchor="middle" x="628" y="-510" font-family="Helvetica,sans-Serif" font-size="10.00" fill="#000000">_options</text>
</a>
</g>
</g>
<!-- Node34&#45;&gt;Node35 -->
<g id="edge16" class="edge">
<title>Node34&#45;&gt;Node35</title>
<path fill="none" stroke="#191970" d="M497.6136,-518C517.2014,-518 539.3613,-518 559.7817,-518"/>
<polygon fill="#191970" stroke="#191970" points="559.962,-521.5001 569.962,-518 559.9619,-514.5001 559.962,-521.5001"/>
</g>
<!-- Node36 -->
<g id="node18" class="node">
<title>Node36</title>
<g id="a_node18"><a xlink:href="triangle_8cpp.html#a2a3ed65e621942ea855e7b2b59a16b96" target="_top" xlink:title="Set the triangulateio structure to default values. ">
<polygon fill="#ffffff" stroke="#000000" points="579.5,-593.5 579.5,-612.5 676.5,-612.5 676.5,-593.5 579.5,-593.5"/>
<text text-anchor="middle" x="628" y="-600.5" font-family="Helvetica,sans-Serif" font-size="10.00" fill="#000000">set_tria_to_default</text>
</a>
</g>
</g>
<!-- Node34&#45;&gt;Node36 -->
<g id="edge17" class="edge">
<title>Node34&#45;&gt;Node36</title>
<path fill="none" stroke="#191970" d="M492.0272,-533.0899C500.795,-536.1007 509.7383,-539.4421 518,-543 548.5936,-556.175 581.9439,-575.0555 603.8074,-588.1024"/>
<polygon fill="#191970" stroke="#191970" points="602.0616,-591.1367 612.4326,-593.3031 605.6762,-585.1421 602.0616,-591.1367"/>
</g>
<!-- Node37&#45;&gt;Node36 -->
<g id="edge19" class="edge">
<title>Node37&#45;&gt;Node36</title>
<path fill="none" stroke="#191970" d="M489.9518,-649.9881C499.2807,-647.0578 508.9539,-643.9715 518,-641 542.5253,-632.9438 569.9696,-623.4638 591.3103,-615.9879"/>
<polygon fill="#191970" stroke="#191970" points="592.6795,-619.2166 600.9545,-612.6004 590.3597,-612.6122 592.6795,-619.2166"/>
</g>
<!-- Node40 -->
<g id="node22" class="node">
<title>Node40</title>
<g id="a_node22"><a xlink:href="triangle_8cpp.html#affc45e9bc533a0e18b0d5ba8dc1409e9" target="_top" xlink:title="triangleinit">
<polygon fill="#ffffff" stroke="#ff0000" points="597.5,-653.5 597.5,-672.5 658.5,-672.5 658.5,-653.5 597.5,-653.5"/>
<text text-anchor="middle" x="628" y="-660.5" font-family="Helvetica,sans-Serif" font-size="10.00" fill="#000000">triangleinit</text>
</a>
</g>
</g>
<!-- Node39&#45;&gt;Node40 -->
<g id="edge22" class="edge">
<title>Node39&#45;&gt;Node40</title>
<path fill="none" stroke="#191970" d="M472.1349,-755.7331C487.1368,-753.3622 504.7094,-748.5829 518,-739 542.3041,-721.476 529.7786,-699.6381 554,-682 563.7028,-674.9344 575.7925,-670.4899 587.3691,-667.6963"/>
<polygon fill="#191970" stroke="#191970" points="588.2499,-671.0884 597.3376,-665.6419 586.837,-664.2325 588.2499,-671.0884"/>
</g>
<!-- Node43 -->
<g id="node23" class="node">
<title>Node43</title>
<g id="a_node23"><a xlink:href="triangle_8cpp.html#af155f553f3ca55deda271a63bff8117a" target="_top" xlink:title="parsecommandline">
<polygon fill="#ffffff" stroke="#ff0000" points="579,-767.5 579,-786.5 677,-786.5 677,-767.5 579,-767.5"/>
<text text-anchor="middle" x="628" y="-774.5" font-family="Helvetica,sans-Serif" font-size="10.00" fill="#000000">parsecommandline</text>
</a>
</g>
</g>
<!-- Node39&#45;&gt;Node43 -->
<g id="edge23" class="edge">
<title>Node39&#45;&gt;Node43</title>
<path fill="none" stroke="#191970" d="M472.2996,-761.1802C498.5691,-763.8493 536.8271,-767.7364 568.8448,-770.9896"/>
<polygon fill="#191970" stroke="#191970" points="568.6952,-774.4923 578.9978,-772.0212 569.4028,-767.5282 568.6952,-774.4923"/>
</g>
<!-- Node45 -->
<g id="node24" class="node">
<title>Node45</title>
<g id="a_node24"><a xlink:href="triangle_8cpp.html#aa2533f1e76d587a6bed1eb2e56d3713c" target="_top" xlink:title="transfernodes">
<polygon fill="#ffffff" stroke="#ff0000" points="590,-729.5 590,-748.5 666,-748.5 666,-729.5 590,-729.5"/>
<text text-anchor="middle" x="628" y="-736.5" font-family="Helvetica,sans-Serif" font-size="10.00" fill="#000000">transfernodes</text>
</a>
</g>
</g>
<!-- Node39&#45;&gt;Node45 -->
<g id="edge24" class="edge">
<title>Node39&#45;&gt;Node45</title>
<path fill="none" stroke="#191970" d="M472.2996,-754.8198C501.6038,-751.8424 545.8264,-747.3492 579.6631,-743.9112"/>
<polygon fill="#191970" stroke="#191970" points="580.2078,-747.374 589.8027,-742.881 579.5001,-740.4099 580.2078,-747.374"/>
</g>
<!-- Node51 -->
<g id="node25" class="node">
<title>Node51</title>
<g id="a_node25"><a xlink:href="triangle_8cpp.html#a711adeeb3c28e4f2e3e173d729912c13" target="_top" xlink:title="reconstruct">
<polygon fill="#ffffff" stroke="#ff0000" points="595.5,-691.5 595.5,-710.5 660.5,-710.5 660.5,-691.5 595.5,-691.5"/>
<text text-anchor="middle" x="628" y="-698.5" font-family="Helvetica,sans-Serif" font-size="10.00" fill="#000000">reconstruct</text>
</a>
</g>
</g>
<!-- Node39&#45;&gt;Node51 -->
<g id="edge25" class="edge">
<title>Node39&#45;&gt;Node51</title>
<path fill="none" stroke="#191970" d="M472.2508,-752.1027C486.4567,-748.9635 503.3305,-744.5849 518,-739 534.9078,-732.563 537.1227,-726.5165 554,-720 564.0333,-716.1261 575.1347,-712.8 585.6211,-710.0634"/>
<polygon fill="#191970" stroke="#191970" points="586.573,-713.4334 595.4316,-707.6217 584.8823,-706.6406 586.573,-713.4334"/>
</g>
<!-- Node146 -->
<g id="node33" class="node">
<title>Node146</title>
<g id="a_node33"><a xlink:href="classRiver_1_1Solver.html#a01eb2f2d7229b100f6da98420be1449f" target="_top" xlink:title="River::Solver::refine_grid">
<polygon fill="#ffffff" stroke="#ff0000" points="378.5,-376.5 378.5,-395.5 503.5,-395.5 503.5,-376.5 378.5,-376.5"/>
<text text-anchor="middle" x="441" y="-383.5" font-family="Helvetica,sans-Serif" font-size="10.00" fill="#000000">River::Solver::refine_grid</text>
</a>
</g>
</g>
<!-- Node145&#45;&gt;Node146 -->
<g id="edge33" class="edge">
<title>Node145&#45;&gt;Node146</title>
<path fill="none" stroke="#191970" d="M301.0807,-398.0038C321.3836,-396.262 345.6632,-394.179 368.2537,-392.241"/>
<polygon fill="#191970" stroke="#191970" points="368.8298,-395.7045 378.494,-391.3624 368.2314,-388.7301 368.8298,-395.7045"/>
</g>
<!-- Node147 -->
<g id="node34" class="node">
<title>Node147</title>
<g id="a_node34"><a xlink:href="classRiver_1_1Solver.html#adba0a10f694b0193b449efc4c68d7418" target="_top" xlink:title="River::Solver::setup\l_system">
<polygon fill="#ffffff" stroke="#000000" points="389,-327 389,-357 493,-357 493,-327 389,-327"/>
<text text-anchor="start" x="397" y="-345" font-family="Helvetica,sans-Serif" font-size="10.00" fill="#000000">River::Solver::setup</text>
<text text-anchor="middle" x="441" y="-334" font-family="Helvetica,sans-Serif" font-size="10.00" fill="#000000">_system</text>
</a>
</g>
</g>
<!-- Node145&#45;&gt;Node147 -->
<g id="edge34" class="edge">
<title>Node145&#45;&gt;Node147</title>
<path fill="none" stroke="#191970" d="M296.4502,-392.4316C306.8602,-389.709 317.9199,-386.5158 328,-383 344.5323,-377.2337 347.6511,-373.2675 364,-367 369.8564,-364.7549 376.0109,-362.5328 382.1814,-360.394"/>
<polygon fill="#191970" stroke="#191970" points="383.5075,-363.64 391.8509,-357.1102 381.2565,-357.0118 383.5075,-363.64"/>
</g>
<!-- Node148 -->
<g id="node35" class="node">
<title>Node148</title>
<g id="a_node35"><a xlink:href="classRiver_1_1Solver.html#af16fb58ac78609220538d62c2c491249" target="_top" xlink:title="River::Solver::assemble\l_system">
<polygon fill="#ffffff" stroke="#ff0000" points="380,-278 380,-308 502,-308 502,-278 380,-278"/>
<text text-anchor="start" x="388" y="-296" font-family="Helvetica,sans-Serif" font-size="10.00" fill="#000000">River::Solver::assemble</text>
<text text-anchor="middle" x="441" y="-285" font-family="Helvetica,sans-Serif" font-size="10.00" fill="#000000">_system</text>
</a>
</g>
</g>
<!-- Node145&#45;&gt;Node148 -->
<g id="edge35" class="edge">
<title>Node145&#45;&gt;Node148</title>
<path fill="none" stroke="#191970" d="M301.0505,-396.0139C310.6403,-393.1896 320.1849,-389.0527 328,-383 354.109,-362.7791 338.5195,-339.0074 364,-318 366.2367,-316.156 368.6128,-314.4468 371.0913,-312.8627"/>
<polygon fill="#191970" stroke="#191970" points="372.8497,-315.8895 379.8591,-307.9447 369.4251,-309.7843 372.8497,-315.8895"/>
</g>
<!-- Node150 -->
<g id="node36" class="node">
<title>Node150</title>
<g id="a_node36"><a xlink:href="classRiver_1_1Solver.html#acc631ad7d750f35bd33430a2b0410efe" target="_top" xlink:title="River::Solver::solve">
<polygon fill="#ffffff" stroke="#000000" points="389.5,-464.5 389.5,-483.5 492.5,-483.5 492.5,-464.5 389.5,-464.5"/>
<text text-anchor="middle" x="441" y="-471.5" font-family="Helvetica,sans-Serif" font-size="10.00" fill="#000000">River::Solver::solve</text>
</a>
</g>
</g>
<!-- Node145&#45;&gt;Node150 -->
<g id="edge36" class="edge">
<title>Node145&#45;&gt;Node150</title>
<path fill="none" stroke="#191970" d="M301.3438,-410.3346C310.5092,-412.9963 319.8099,-416.4735 328,-421 347.2618,-431.6456 344.6797,-444.4609 364,-455 368.9106,-457.6787 374.2017,-459.9857 379.6289,-461.9715"/>
<polygon fill="#191970" stroke="#191970" points="378.8993,-465.4157 389.4922,-465.21 381.0831,-458.765 378.8993,-465.4157"/>
</g>
<!-- Node151 -->
<g id="node37" class="node">
<title>Node151</title>
<g id="a_node37"><a xlink:href="classRiver_1_1Solver.html#a328be2cd9739561d1d97ac6e59ebe261" target="_top" xlink:title="River::Solver::output\l_results">
<polygon fill="#ffffff" stroke="#000000" points="387.5,-415 387.5,-445 494.5,-445 494.5,-415 387.5,-415"/>
<text text-anchor="start" x="395.5" y="-433" font-family="Helvetica,sans-Serif" font-size="10.00" fill="#000000">River::Solver::output</text>
<text text-anchor="middle" x="441" y="-422" font-family="Helvetica,sans-Serif" font-size="10.00" fill="#000000">_results</text>
</a>
</g>
</g>
<!-- Node145&#45;&gt;Node151 -->
<g id="edge37" class="edge">
<title>Node145&#45;&gt;Node151</title>
<path fill="none" stroke="#191970" d="M301.0807,-408.9934C324.1234,-412.4528 352.2886,-416.6814 377.2932,-420.4354"/>
<polygon fill="#191970" stroke="#191970" points="377.0179,-423.9333 387.4268,-421.9568 378.0573,-417.0108 377.0179,-423.9333"/>
</g>
<!-- Node156 -->
<g id="node42" class="node">
<title>Node156</title>
<g id="a_node42"><a xlink:href="classRiver_1_1IntegrationParams.html#aa249fc71c13c39e0698b21d461eb7e09" target="_top" xlink:title="Weight function used in computation of series parameters. ">
<polygon fill="#ffffff" stroke="#000000" points="378.5,-180 378.5,-210 503.5,-210 503.5,-180 378.5,-180"/>
<text text-anchor="start" x="386.5" y="-198" font-family="Helvetica,sans-Serif" font-size="10.00" fill="#000000">River::IntegrationParams</text>
<text text-anchor="middle" x="441" y="-187" font-family="Helvetica,sans-Serif" font-size="10.00" fill="#000000">::WeightFunction</text>
</a>
</g>
</g>
<!-- Node155&#45;&gt;Node156 -->
<g id="edge43" class="edge">
<title>Node155&#45;&gt;Node156</title>
<path fill="none" stroke="#191970" d="M293.1369,-240.441C304.4113,-237.536 316.729,-234.2495 328,-231 339.1655,-227.781 362.453,-220.4019 385.0023,-213.157"/>
<polygon fill="#191970" stroke="#191970" points="386.137,-216.4687 394.5835,-210.0728 383.9921,-209.8054 386.137,-216.4687"/>
</g>
<!-- Node157 -->
<g id="node43" class="node">
<title>Node157</title>
<g id="a_node43"><a xlink:href="classRiver_1_1IntegrationParams.html#aac7570ed475400eed41c4499d95fe072" target="_top" xlink:title="Base Vector function used in computation of series parameters. ">
<polygon fill="#ffffff" stroke="#000000" points="378.5,-229 378.5,-259 503.5,-259 503.5,-229 378.5,-229"/>
<text text-anchor="start" x="386.5" y="-247" font-family="Helvetica,sans-Serif" font-size="10.00" fill="#000000">River::IntegrationParams</text>
<text text-anchor="middle" x="441" y="-236" font-family="Helvetica,sans-Serif" font-size="10.00" fill="#000000">::BaseVector</text>
</a>
</g>
</g>
<!-- Node155&#45;&gt;Node157 -->
<g id="edge44" class="edge">
<title>Node155&#45;&gt;Node157</title>
<path fill="none" stroke="#191970" d="M313.2538,-248.1098C330.7309,-247.5475 350.0899,-246.9247 368.3413,-246.3375"/>
<polygon fill="#191970" stroke="#191970" points="368.4657,-249.8355 378.3479,-246.0156 368.2405,-242.8391 368.4657,-249.8355"/>
</g>
<!-- Node163 -->
<g id="node49" class="node">
<title>Node163</title>
<g id="a_node49"><a xlink:href="classRiver_1_1Point.html#a5a80f76067f92be8434cafff8cf55380" target="_top" xlink:title="Returns Polar representation of vector. ">
<polygon fill="#ffffff" stroke="#ff0000" points="386,-44.5 386,-63.5 496,-63.5 496,-44.5 386,-44.5"/>
<text text-anchor="middle" x="441" y="-51.5" font-family="Helvetica,sans-Serif" font-size="10.00" fill="#000000">River::Point::getPolar</text>
</a>
</g>
</g>
<!-- Node162&#45;&gt;Node163 -->
<g id="edge50" class="edge">
<title>Node162&#45;&gt;Node163</title>
<path fill="none" stroke="#191970" d="M303.0138,-54C325.2065,-54 351.8295,-54 375.7449,-54"/>
<polygon fill="#191970" stroke="#191970" points="375.8078,-57.5001 385.8077,-54 375.8077,-50.5001 375.8078,-57.5001"/>
</g>
</g>
</svg>
