<?xml version="1.0" encoding="UTF-8" standalone="no"?>
<!DOCTYPE svg PUBLIC "-//W3C//DTD SVG 1.1//EN"
 "http://www.w3.org/Graphics/SVG/1.1/DTD/svg11.dtd">
<!-- Generated by graphviz version 2.40.1 (20161225.0304)
 -->
<!-- Title: nlohmann::detail::to_chars Pages: 1 -->
<svg width="279pt" height="39pt"
 viewBox="0.00 0.00 279.00 39.00" xmlns="http://www.w3.org/2000/svg" xmlns:xlink="http://www.w3.org/1999/xlink">
<g id="graph0" class="graph" transform="scale(1 1) rotate(0) translate(4 35)">
<title>nlohmann::detail::to_chars</title>
<polygon fill="#ffffff" stroke="transparent" points="-4,4 -4,-35 275,-35 275,4 -4,4"/>
<!-- Node163 -->
<g id="node1" class="node">
<title>Node163</title>
<polygon fill="#bfbfbf" stroke="#000000" points="0,-.5 0,-30.5 102,-30.5 102,-.5 0,-.5"/>
<text text-anchor="start" x="8" y="-18.5" font-family="Helvetica,sans-Serif" font-size="10.00" fill="#000000">nlohmann::detail::to</text>
<text text-anchor="middle" x="51" y="-7.5" font-family="Helvetica,sans-Serif" font-size="10.00" fill="#000000">_chars</text>
</g>
<!-- Node164 -->
<g id="node2" class="node">
<title>Node164</title>
<g id="a_node2"><a xlink:href="classnlohmann_1_1detail_1_1serializer.html#a24b0fe45dc774441237bde198a133d8a" target="_top" xlink:title="nlohmann::detail::serializer\l::dump_float">
<polygon fill="#ffffff" stroke="#000000" points="138,-.5 138,-30.5 271,-30.5 271,-.5 138,-.5"/>
<text text-anchor="start" x="146" y="-18.5" font-family="Helvetica,sans-Serif" font-size="10.00" fill="#000000">nlohmann::detail::serializer</text>
<text text-anchor="middle" x="204.5" y="-7.5" font-family="Helvetica,sans-Serif" font-size="10.00" fill="#000000">::dump_float</text>
</a>
</g>
</g>
<!-- Node163&#45;&gt;Node164 -->
<g id="edge1" class="edge">
<title>Node163&#45;&gt;Node164</title>
<path fill="none" stroke="#191970" d="M112.2068,-15.5C120.6108,-15.5 129.2742,-15.5 137.7709,-15.5"/>
<polygon fill="#191970" stroke="#191970" points="112.1133,-12.0001 102.1133,-15.5 112.1132,-19.0001 112.1133,-12.0001"/>
</g>
</g>
</svg>
