<?xml version="1.0" encoding="UTF-8" standalone="no"?>
<!DOCTYPE svg PUBLIC "-//W3C//DTD SVG 1.1//EN"
 "http://www.w3.org/Graphics/SVG/1.1/DTD/svg11.dtd">
<!-- Generated by graphviz version 2.40.1 (20161225.0304)
 -->
<!-- Title: tethex::change_vertices_order Pages: 1 -->
<svg width="591pt" height="83pt"
 viewBox="0.00 0.00 591.00 83.00" xmlns="http://www.w3.org/2000/svg" xmlns:xlink="http://www.w3.org/1999/xlink">
<g id="graph0" class="graph" transform="scale(1 1) rotate(0) translate(4 79)">
<title>tethex::change_vertices_order</title>
<polygon fill="#ffffff" stroke="transparent" points="-4,4 -4,-79 587,-79 587,4 -4,4"/>
<!-- Node14 -->
<g id="node1" class="node">
<title>Node14</title>
<polygon fill="#bfbfbf" stroke="#000000" points="0,-22.5 0,-52.5 121,-52.5 121,-22.5 0,-22.5"/>
<text text-anchor="start" x="8" y="-40.5" font-family="Helvetica,sans-Serif" font-size="10.00" fill="#000000">tethex::change_vertices</text>
<text text-anchor="middle" x="60.5" y="-29.5" font-family="Helvetica,sans-Serif" font-size="10.00" fill="#000000">_order</text>
</g>
<!-- Node15 -->
<g id="node2" class="node">
<title>Node15</title>
<g id="a_node2"><a xlink:href="classtethex_1_1Mesh.html#ab739c5e4bbb1c3461a068c2104eab52e" target="_top" xlink:title="Conversion from triangles to quadrangles. ">
<polygon fill="#ffffff" stroke="#000000" points="157,-44.5 157,-74.5 269,-74.5 269,-44.5 157,-44.5"/>
<text text-anchor="start" x="165" y="-62.5" font-family="Helvetica,sans-Serif" font-size="10.00" fill="#000000">tethex::Mesh::convert</text>
<text text-anchor="middle" x="213" y="-51.5" font-family="Helvetica,sans-Serif" font-size="10.00" fill="#000000">_triangles</text>
</a>
</g>
</g>
<!-- Node14&#45;&gt;Node15 -->
<g id="edge1" class="edge">
<title>Node14&#45;&gt;Node15</title>
<path fill="none" stroke="#191970" d="M131.2584,-47.7078C139.8773,-48.9512 148.5904,-50.2081 156.9539,-51.4147"/>
<polygon fill="#191970" stroke="#191970" points="131.6075,-44.222 121.2102,-46.2582 130.608,-51.1503 131.6075,-44.222"/>
</g>
<!-- Node18 -->
<g id="node5" class="node">
<title>Node18</title>
<g id="a_node5"><a xlink:href="classtethex_1_1Mesh.html#a3b6a5b6110e347f12f084408a9919720" target="_top" xlink:title="Convert quadrangles into quadrangles. ">
<polygon fill="#ffffff" stroke="#000000" points="314,-.5 314,-30.5 426,-30.5 426,-.5 314,-.5"/>
<text text-anchor="start" x="322" y="-18.5" font-family="Helvetica,sans-Serif" font-size="10.00" fill="#000000">tethex::Mesh::convert</text>
<text text-anchor="middle" x="370" y="-7.5" font-family="Helvetica,sans-Serif" font-size="10.00" fill="#000000">_quadrangles</text>
</a>
</g>
</g>
<!-- Node14&#45;&gt;Node18 -->
<g id="edge4" class="edge">
<title>Node14&#45;&gt;Node18</title>
<path fill="none" stroke="#191970" d="M131.3633,-32.4629C186.7113,-28.5286 262.5767,-23.1359 313.7889,-19.4956"/>
<polygon fill="#191970" stroke="#191970" points="131.0046,-28.9794 121.278,-33.1798 131.501,-35.9618 131.0046,-28.9794"/>
</g>
<!-- Node16 -->
<g id="node3" class="node">
<title>Node16</title>
<g id="a_node3"><a xlink:href="classtethex_1_1Mesh.html#adb803e48ce7101318531730a512ecbc8" target="_top" xlink:title="Conversion of 2D meshes (triangles &#45;&gt; quadrangles) ">
<polygon fill="#ffffff" stroke="#000000" points="305,-50 305,-69 435,-69 435,-50 305,-50"/>
<text text-anchor="middle" x="370" y="-57" font-family="Helvetica,sans-Serif" font-size="10.00" fill="#000000">tethex::Mesh::convert_2D</text>
</a>
</g>
</g>
<!-- Node15&#45;&gt;Node16 -->
<g id="edge2" class="edge">
<title>Node15&#45;&gt;Node16</title>
<path fill="none" stroke="#191970" d="M279.3808,-59.5C287.7962,-59.5 296.402,-59.5 304.7987,-59.5"/>
<polygon fill="#191970" stroke="#191970" points="279.2372,-56.0001 269.2372,-59.5 279.2371,-63.0001 279.2372,-56.0001"/>
</g>
<!-- Node17 -->
<g id="node4" class="node">
<title>Node17</title>
<g id="a_node4"><a xlink:href="classtethex_1_1Mesh.html#aaa882d21498571cbd84d4f7129fd6e32" target="_top" xlink:title="Conversion from simplices to bricks. ">
<polygon fill="#ffffff" stroke="#000000" points="471,-28 471,-47 583,-47 583,-28 471,-28"/>
<text text-anchor="middle" x="527" y="-35" font-family="Helvetica,sans-Serif" font-size="10.00" fill="#000000">tethex::Mesh::convert</text>
</a>
</g>
</g>
<!-- Node16&#45;&gt;Node17 -->
<g id="edge3" class="edge">
<title>Node16&#45;&gt;Node17</title>
<path fill="none" stroke="#191970" d="M445.2433,-48.9564C453.8245,-47.7539 462.4576,-46.5442 470.7317,-45.3847"/>
<polygon fill="#191970" stroke="#191970" points="444.6357,-45.5072 435.2182,-50.3611 445.6072,-52.4395 444.6357,-45.5072"/>
</g>
<!-- Node18&#45;&gt;Node17 -->
<g id="edge5" class="edge">
<title>Node18&#45;&gt;Node17</title>
<path fill="none" stroke="#191970" d="M436.2495,-24.7834C447.7781,-26.3988 459.6682,-28.065 470.8918,-29.6377"/>
<polygon fill="#191970" stroke="#191970" points="436.6261,-21.302 426.2372,-23.3804 435.6547,-28.2343 436.6261,-21.302"/>
</g>
</g>
</svg>
