<?xml version="1.0" encoding="UTF-8" standalone="no"?>
<!DOCTYPE svg PUBLIC "-//W3C//DTD SVG 1.1//EN"
 "http://www.w3.org/Graphics/SVG/1.1/DTD/svg11.dtd">
<!-- Generated by graphviz version 2.40.1 (20161225.0304)
 -->
<!-- Title: nlohmann::detail::dtoa_impl::append_exponent Pages: 1 -->
<svg width="586pt" height="39pt"
 viewBox="0.00 0.00 586.00 39.00" xmlns="http://www.w3.org/2000/svg" xmlns:xlink="http://www.w3.org/1999/xlink">
<g id="graph0" class="graph" transform="scale(1 1) rotate(0) translate(4 35)">
<title>nlohmann::detail::dtoa_impl::append_exponent</title>
<polygon fill="#ffffff" stroke="transparent" points="-4,4 -4,-35 582,-35 582,4 -4,4"/>
<!-- Node41 -->
<g id="node1" class="node">
<title>Node41</title>
<polygon fill="#bfbfbf" stroke="#000000" points="0,-.5 0,-30.5 122,-30.5 122,-.5 0,-.5"/>
<text text-anchor="start" x="8" y="-18.5" font-family="Helvetica,sans-Serif" font-size="10.00" fill="#000000">nlohmann::detail::dtoa</text>
<text text-anchor="middle" x="61" y="-7.5" font-family="Helvetica,sans-Serif" font-size="10.00" fill="#000000">_impl::append_exponent</text>
</g>
<!-- Node42 -->
<g id="node2" class="node">
<title>Node42</title>
<g id="a_node2"><a xlink:href="namespacenlohmann_1_1detail_1_1dtoa__impl.html#a12c1c5d8b46ba9702186445e73f86afe" target="_top" xlink:title="prettify v = buf * 10^decimal_exponent ">
<polygon fill="#ffffff" stroke="#000000" points="158,-.5 158,-30.5 271,-30.5 271,-.5 158,-.5"/>
<text text-anchor="start" x="166" y="-18.5" font-family="Helvetica,sans-Serif" font-size="10.00" fill="#000000">nlohmann::detail::dtoa</text>
<text text-anchor="middle" x="214.5" y="-7.5" font-family="Helvetica,sans-Serif" font-size="10.00" fill="#000000">_impl::format_buffer</text>
</a>
</g>
</g>
<!-- Node41&#45;&gt;Node42 -->
<g id="edge1" class="edge">
<title>Node41&#45;&gt;Node42</title>
<path fill="none" stroke="#191970" d="M132.3578,-15.5C140.8191,-15.5 149.3682,-15.5 157.5911,-15.5"/>
<polygon fill="#191970" stroke="#191970" points="132.1084,-12.0001 122.1083,-15.5 132.1083,-19.0001 132.1084,-12.0001"/>
</g>
<!-- Node43 -->
<g id="node3" class="node">
<title>Node43</title>
<g id="a_node3"><a xlink:href="namespacenlohmann_1_1detail.html#a18759c536d89c4dd3a118bd3ecb790da" target="_top" xlink:title="generates a decimal representation of the floating&#45;point number value in [first, last). ">
<polygon fill="#ffffff" stroke="#000000" points="307,-.5 307,-30.5 409,-30.5 409,-.5 307,-.5"/>
<text text-anchor="start" x="315" y="-18.5" font-family="Helvetica,sans-Serif" font-size="10.00" fill="#000000">nlohmann::detail::to</text>
<text text-anchor="middle" x="358" y="-7.5" font-family="Helvetica,sans-Serif" font-size="10.00" fill="#000000">_chars</text>
</a>
</g>
</g>
<!-- Node42&#45;&gt;Node43 -->
<g id="edge2" class="edge">
<title>Node42&#45;&gt;Node43</title>
<path fill="none" stroke="#191970" d="M281.234,-15.5C289.8318,-15.5 298.5261,-15.5 306.8199,-15.5"/>
<polygon fill="#191970" stroke="#191970" points="281.215,-12.0001 271.215,-15.5 281.215,-19.0001 281.215,-12.0001"/>
</g>
<!-- Node44 -->
<g id="node4" class="node">
<title>Node44</title>
<g id="a_node4"><a xlink:href="classnlohmann_1_1detail_1_1serializer.html#a24b0fe45dc774441237bde198a133d8a" target="_top" xlink:title="nlohmann::detail::serializer\l::dump_float">
<polygon fill="#ffffff" stroke="#000000" points="445,-.5 445,-30.5 578,-30.5 578,-.5 445,-.5"/>
<text text-anchor="start" x="453" y="-18.5" font-family="Helvetica,sans-Serif" font-size="10.00" fill="#000000">nlohmann::detail::serializer</text>
<text text-anchor="middle" x="511.5" y="-7.5" font-family="Helvetica,sans-Serif" font-size="10.00" fill="#000000">::dump_float</text>
</a>
</g>
</g>
<!-- Node43&#45;&gt;Node44 -->
<g id="edge3" class="edge">
<title>Node43&#45;&gt;Node44</title>
<path fill="none" stroke="#191970" d="M419.2068,-15.5C427.6108,-15.5 436.2742,-15.5 444.7709,-15.5"/>
<polygon fill="#191970" stroke="#191970" points="419.1133,-12.0001 409.1133,-15.5 419.1132,-19.0001 419.1133,-12.0001"/>
</g>
</g>
</svg>
