<?xml version="1.0" encoding="UTF-8" standalone="no"?>
<!DOCTYPE svg PUBLIC "-//W3C//DTD SVG 1.1//EN"
 "http://www.w3.org/Graphics/SVG/1.1/DTD/svg11.dtd">
<!-- Generated by graphviz version 2.40.1 (20161225.0304)
 -->
<!-- Title: River::SimpleGeo::AddBranches Pages: 1 -->
<svg width="832pt" height="66pt"
 viewBox="0.00 0.00 832.00 66.00" xmlns="http://www.w3.org/2000/svg" xmlns:xlink="http://www.w3.org/1999/xlink">
<g id="graph0" class="graph" transform="scale(1 1) rotate(0) translate(4 62)">
<title>River::SimpleGeo::AddBranches</title>
<polygon fill="#ffffff" stroke="transparent" points="-4,4 -4,-62 828,-62 828,4 -4,4"/>
<!-- Node0 -->
<g id="node1" class="node">
<title>Node0</title>
<polygon fill="#bfbfbf" stroke="#000000" points="0,-19.5 0,-38.5 158,-38.5 158,-19.5 0,-19.5"/>
<text text-anchor="middle" x="79" y="-26.5" font-family="Helvetica,sans-Serif" font-size="10.00" fill="#000000">River::SimpleGeo::AddBranches</text>
</g>
<!-- Node1 -->
<g id="node2" class="node">
<title>Node1</title>
<g id="a_node2"><a xlink:href="classRiver_1_1Geometry.html#a19cefb054be17b7c1df84fd7ce69442a" target="_top" xlink:title="River::Geometry::addPolar">
<polygon fill="#ffffff" stroke="#000000" points="208,-38.5 208,-57.5 341,-57.5 341,-38.5 208,-38.5"/>
<text text-anchor="middle" x="274.5" y="-45.5" font-family="Helvetica,sans-Serif" font-size="10.00" fill="#000000">River::Geometry::addPolar</text>
</a>
</g>
</g>
<!-- Node0&#45;&gt;Node1 -->
<g id="edge1" class="edge">
<title>Node0&#45;&gt;Node1</title>
<path fill="none" stroke="#191970" d="M158.2355,-36.7006C171.2642,-37.9669 184.7484,-39.2773 197.7161,-40.5376"/>
<polygon fill="#191970" stroke="#191970" points="197.6948,-44.052 207.9865,-41.5358 198.372,-37.0848 197.6948,-44.052"/>
</g>
<!-- Node2 -->
<g id="node3" class="node">
<title>Node2</title>
<g id="a_node3"><a xlink:href="classRiver_1_1Geometry.html#a2e00a634a0e948570540a2ab47335478" target="_top" xlink:title="River::Geometry::AddBiffurcation">
<polygon fill="#ffffff" stroke="#000000" points="194,-.5 194,-19.5 355,-19.5 355,-.5 194,-.5"/>
<text text-anchor="middle" x="274.5" y="-7.5" font-family="Helvetica,sans-Serif" font-size="10.00" fill="#000000">River::Geometry::AddBiffurcation</text>
</a>
</g>
</g>
<!-- Node0&#45;&gt;Node2 -->
<g id="edge2" class="edge">
<title>Node0&#45;&gt;Node2</title>
<path fill="none" stroke="#191970" d="M158.2355,-21.2994C166.6799,-20.4787 175.3156,-19.6394 183.8779,-18.8073"/>
<polygon fill="#191970" stroke="#191970" points="184.2654,-22.2862 193.8799,-17.8352 183.5882,-15.319 184.2654,-22.2862"/>
</g>
<!-- Node3 -->
<g id="node4" class="node">
<title>Node3</title>
<g id="a_node4"><a xlink:href="classRiver_1_1Branch.html#ac530394680fc8ab073033352f251fe17" target="_top" xlink:title="River::Branch::Branch">
<polygon fill="#ffffff" stroke="#000000" points="391,-.5 391,-19.5 504,-19.5 504,-.5 391,-.5"/>
<text text-anchor="middle" x="447.5" y="-7.5" font-family="Helvetica,sans-Serif" font-size="10.00" fill="#000000">River::Branch::Branch</text>
</a>
</g>
</g>
<!-- Node2&#45;&gt;Node3 -->
<g id="edge3" class="edge">
<title>Node2&#45;&gt;Node3</title>
<path fill="none" stroke="#191970" d="M355.1753,-10C363.6924,-10 372.2852,-10 380.6213,-10"/>
<polygon fill="#191970" stroke="#191970" points="380.64,-13.5001 390.6399,-10 380.6399,-6.5001 380.64,-13.5001"/>
</g>
<!-- Node4 -->
<g id="node5" class="node">
<title>Node4</title>
<g id="a_node5"><a xlink:href="classRiver_1_1Branch.html#a67e24ea2b1f521a1af4193fb7a9c0bed" target="_top" xlink:title="River::Branch::splitPoint">
<polygon fill="#ffffff" stroke="#000000" points="540,-.5 540,-19.5 663,-19.5 663,-.5 540,-.5"/>
<text text-anchor="middle" x="601.5" y="-7.5" font-family="Helvetica,sans-Serif" font-size="10.00" fill="#000000">River::Branch::splitPoint</text>
</a>
</g>
</g>
<!-- Node3&#45;&gt;Node4 -->
<g id="edge4" class="edge">
<title>Node3&#45;&gt;Node4</title>
<path fill="none" stroke="#191970" d="M504.4064,-10C512.6298,-10 521.1819,-10 529.6506,-10"/>
<polygon fill="#191970" stroke="#191970" points="529.9115,-13.5001 539.9115,-10 529.9115,-6.5001 529.9115,-13.5001"/>
</g>
<!-- Node5 -->
<g id="node6" class="node">
<title>Node5</title>
<g id="a_node6"><a xlink:href="classRiver_1_1GeomPoint.html#a8a4dd9e43fc222c4276c67bc258812ec" target="_top" xlink:title="River::GeomPoint::rotate">
<polygon fill="#ffffff" stroke="#000000" points="699,-.5 699,-19.5 824,-19.5 824,-.5 699,-.5"/>
<text text-anchor="middle" x="761.5" y="-7.5" font-family="Helvetica,sans-Serif" font-size="10.00" fill="#000000">River::GeomPoint::rotate</text>
</a>
</g>
</g>
<!-- Node4&#45;&gt;Node5 -->
<g id="edge5" class="edge">
<title>Node4&#45;&gt;Node5</title>
<path fill="none" stroke="#191970" d="M663.3602,-10C671.6126,-10 680.1368,-10 688.556,-10"/>
<polygon fill="#191970" stroke="#191970" points="688.7481,-13.5001 698.7481,-10 688.748,-6.5001 688.7481,-13.5001"/>
</g>
</g>
</svg>
