<?xml version="1.0" encoding="UTF-8" standalone="no"?>
<!DOCTYPE svg PUBLIC "-//W3C//DTD SVG 1.1//EN"
 "http://www.w3.org/Graphics/SVG/1.1/DTD/svg11.dtd">
<!-- Generated by graphviz version 2.40.1 (20161225.0304)
 -->
<!-- Title: tethex::cell_measure_2D Pages: 1 -->
<svg width="752pt" height="83pt"
 viewBox="0.00 0.00 752.00 83.00" xmlns="http://www.w3.org/2000/svg" xmlns:xlink="http://www.w3.org/1999/xlink">
<g id="graph0" class="graph" transform="scale(1 1) rotate(0) translate(4 79)">
<title>tethex::cell_measure_2D</title>
<polygon fill="#ffffff" stroke="transparent" points="-4,4 -4,-79 748,-79 748,4 -4,4"/>
<!-- Node19 -->
<g id="node1" class="node">
<title>Node19</title>
<polygon fill="#bfbfbf" stroke="#000000" points="0,-28 0,-47 125,-47 125,-28 0,-28"/>
<text text-anchor="middle" x="62.5" y="-35" font-family="Helvetica,sans-Serif" font-size="10.00" fill="#000000">tethex::cell_measure_2D</text>
</g>
<!-- Node20 -->
<g id="node2" class="node">
<title>Node20</title>
<g id="a_node2"><a xlink:href="namespacetethex.html#a7f8708334371c722c41cab50445d7987" target="_top" xlink:title="Change the order of vertices in such a way, that it will be good for deal.II. ">
<polygon fill="#ffffff" stroke="#000000" points="161,-22.5 161,-52.5 282,-52.5 282,-22.5 161,-22.5"/>
<text text-anchor="start" x="169" y="-40.5" font-family="Helvetica,sans-Serif" font-size="10.00" fill="#000000">tethex::change_vertices</text>
<text text-anchor="middle" x="221.5" y="-29.5" font-family="Helvetica,sans-Serif" font-size="10.00" fill="#000000">_order</text>
</a>
</g>
</g>
<!-- Node19&#45;&gt;Node20 -->
<g id="edge1" class="edge">
<title>Node19&#45;&gt;Node20</title>
<path fill="none" stroke="#191970" d="M135.6037,-37.5C144.0784,-37.5 152.6506,-37.5 160.9318,-37.5"/>
<polygon fill="#191970" stroke="#191970" points="135.341,-34.0001 125.341,-37.5 135.341,-41.0001 135.341,-34.0001"/>
</g>
<!-- Node21 -->
<g id="node3" class="node">
<title>Node21</title>
<g id="a_node3"><a xlink:href="classtethex_1_1Mesh.html#ab739c5e4bbb1c3461a068c2104eab52e" target="_top" xlink:title="Conversion from triangles to quadrangles. ">
<polygon fill="#ffffff" stroke="#000000" points="318,-44.5 318,-74.5 430,-74.5 430,-44.5 318,-44.5"/>
<text text-anchor="start" x="326" y="-62.5" font-family="Helvetica,sans-Serif" font-size="10.00" fill="#000000">tethex::Mesh::convert</text>
<text text-anchor="middle" x="374" y="-51.5" font-family="Helvetica,sans-Serif" font-size="10.00" fill="#000000">_triangles</text>
</a>
</g>
</g>
<!-- Node20&#45;&gt;Node21 -->
<g id="edge2" class="edge">
<title>Node20&#45;&gt;Node21</title>
<path fill="none" stroke="#191970" d="M292.2584,-47.7078C300.8773,-48.9512 309.5904,-50.2081 317.9539,-51.4147"/>
<polygon fill="#191970" stroke="#191970" points="292.6075,-44.222 282.2102,-46.2582 291.608,-51.1503 292.6075,-44.222"/>
</g>
<!-- Node24 -->
<g id="node6" class="node">
<title>Node24</title>
<g id="a_node6"><a xlink:href="classtethex_1_1Mesh.html#a3b6a5b6110e347f12f084408a9919720" target="_top" xlink:title="Convert quadrangles into quadrangles. ">
<polygon fill="#ffffff" stroke="#000000" points="475,-.5 475,-30.5 587,-30.5 587,-.5 475,-.5"/>
<text text-anchor="start" x="483" y="-18.5" font-family="Helvetica,sans-Serif" font-size="10.00" fill="#000000">tethex::Mesh::convert</text>
<text text-anchor="middle" x="531" y="-7.5" font-family="Helvetica,sans-Serif" font-size="10.00" fill="#000000">_quadrangles</text>
</a>
</g>
</g>
<!-- Node20&#45;&gt;Node24 -->
<g id="edge5" class="edge">
<title>Node20&#45;&gt;Node24</title>
<path fill="none" stroke="#191970" d="M292.3633,-32.4629C347.7113,-28.5286 423.5767,-23.1359 474.7889,-19.4956"/>
<polygon fill="#191970" stroke="#191970" points="292.0046,-28.9794 282.278,-33.1798 292.501,-35.9618 292.0046,-28.9794"/>
</g>
<!-- Node22 -->
<g id="node4" class="node">
<title>Node22</title>
<g id="a_node4"><a xlink:href="classtethex_1_1Mesh.html#adb803e48ce7101318531730a512ecbc8" target="_top" xlink:title="Conversion of 2D meshes (triangles &#45;&gt; quadrangles) ">
<polygon fill="#ffffff" stroke="#000000" points="466,-50 466,-69 596,-69 596,-50 466,-50"/>
<text text-anchor="middle" x="531" y="-57" font-family="Helvetica,sans-Serif" font-size="10.00" fill="#000000">tethex::Mesh::convert_2D</text>
</a>
</g>
</g>
<!-- Node21&#45;&gt;Node22 -->
<g id="edge3" class="edge">
<title>Node21&#45;&gt;Node22</title>
<path fill="none" stroke="#191970" d="M440.3808,-59.5C448.7962,-59.5 457.402,-59.5 465.7987,-59.5"/>
<polygon fill="#191970" stroke="#191970" points="440.2372,-56.0001 430.2372,-59.5 440.2371,-63.0001 440.2372,-56.0001"/>
</g>
<!-- Node23 -->
<g id="node5" class="node">
<title>Node23</title>
<g id="a_node5"><a xlink:href="classtethex_1_1Mesh.html#aaa882d21498571cbd84d4f7129fd6e32" target="_top" xlink:title="Conversion from simplices to bricks. ">
<polygon fill="#ffffff" stroke="#000000" points="632,-28 632,-47 744,-47 744,-28 632,-28"/>
<text text-anchor="middle" x="688" y="-35" font-family="Helvetica,sans-Serif" font-size="10.00" fill="#000000">tethex::Mesh::convert</text>
</a>
</g>
</g>
<!-- Node22&#45;&gt;Node23 -->
<g id="edge4" class="edge">
<title>Node22&#45;&gt;Node23</title>
<path fill="none" stroke="#191970" d="M606.2433,-48.9564C614.8245,-47.7539 623.4576,-46.5442 631.7317,-45.3847"/>
<polygon fill="#191970" stroke="#191970" points="605.6357,-45.5072 596.2182,-50.3611 606.6072,-52.4395 605.6357,-45.5072"/>
</g>
<!-- Node24&#45;&gt;Node23 -->
<g id="edge6" class="edge">
<title>Node24&#45;&gt;Node23</title>
<path fill="none" stroke="#191970" d="M597.2495,-24.7834C608.7781,-26.3988 620.6682,-28.065 631.8918,-29.6377"/>
<polygon fill="#191970" stroke="#191970" points="597.6261,-21.302 587.2372,-23.3804 596.6547,-28.2343 597.6261,-21.302"/>
</g>
</g>
</svg>
