<?xml version="1.0" encoding="UTF-8" standalone="no"?>
<!DOCTYPE svg PUBLIC "-//W3C//DTD SVG 1.1//EN"
 "http://www.w3.org/Graphics/SVG/1.1/DTD/svg11.dtd">
<!-- Generated by graphviz version 2.40.1 (20161225.0304)
 -->
<!-- Title: nlohmann::detail::dtoa_impl::grisu2_digit_gen Pages: 1 -->
<svg width="290pt" height="88pt"
 viewBox="0.00 0.00 290.00 88.00" xmlns="http://www.w3.org/2000/svg" xmlns:xlink="http://www.w3.org/1999/xlink">
<g id="graph0" class="graph" transform="scale(1 1) rotate(0) translate(4 84)">
<title>nlohmann::detail::dtoa_impl::grisu2_digit_gen</title>
<polygon fill="#ffffff" stroke="transparent" points="-4,4 -4,-84 286,-84 286,4 -4,4"/>
<!-- Node22 -->
<g id="node1" class="node">
<title>Node22</title>
<polygon fill="#bfbfbf" stroke="#000000" points="0,-24.5 0,-54.5 116,-54.5 116,-24.5 0,-24.5"/>
<text text-anchor="start" x="8" y="-42.5" font-family="Helvetica,sans-Serif" font-size="10.00" fill="#000000">nlohmann::detail::dtoa</text>
<text text-anchor="middle" x="58" y="-31.5" font-family="Helvetica,sans-Serif" font-size="10.00" fill="#000000">_impl::grisu2_digit_gen</text>
</g>
<!-- Node23 -->
<g id="node2" class="node">
<title>Node23</title>
<g id="a_node2"><a xlink:href="namespacenlohmann_1_1detail_1_1dtoa__impl.html#a36ded358763b5dbcea9867660fbe4e28" target="_top" xlink:title="nlohmann::detail::dtoa\l_impl::find_largest_pow10">
<polygon fill="#ffffff" stroke="#000000" points="152,-49.5 152,-79.5 282,-79.5 282,-49.5 152,-49.5"/>
<text text-anchor="start" x="160" y="-67.5" font-family="Helvetica,sans-Serif" font-size="10.00" fill="#000000">nlohmann::detail::dtoa</text>
<text text-anchor="middle" x="217" y="-56.5" font-family="Helvetica,sans-Serif" font-size="10.00" fill="#000000">_impl::find_largest_pow10</text>
</a>
</g>
</g>
<!-- Node22&#45;&gt;Node23 -->
<g id="edge1" class="edge">
<title>Node22&#45;&gt;Node23</title>
<path fill="none" stroke="#191970" d="M116.3029,-48.6671C124.6479,-49.9792 133.3292,-51.3442 141.9407,-52.6982"/>
<polygon fill="#191970" stroke="#191970" points="141.5712,-56.1831 151.9935,-54.2789 142.6586,-49.268 141.5712,-56.1831"/>
</g>
<!-- Node24 -->
<g id="node3" class="node">
<title>Node24</title>
<g id="a_node3"><a xlink:href="namespacenlohmann_1_1detail_1_1dtoa__impl.html#a5bc841e0bee12fd6489d49cf7bd07bb4" target="_top" xlink:title="nlohmann::detail::dtoa\l_impl::grisu2_round">
<polygon fill="#ffffff" stroke="#000000" points="160.5,-.5 160.5,-30.5 273.5,-30.5 273.5,-.5 160.5,-.5"/>
<text text-anchor="start" x="168.5" y="-18.5" font-family="Helvetica,sans-Serif" font-size="10.00" fill="#000000">nlohmann::detail::dtoa</text>
<text text-anchor="middle" x="217" y="-7.5" font-family="Helvetica,sans-Serif" font-size="10.00" fill="#000000">_impl::grisu2_round</text>
</a>
</g>
</g>
<!-- Node22&#45;&gt;Node24 -->
<g id="edge2" class="edge">
<title>Node22&#45;&gt;Node24</title>
<path fill="none" stroke="#191970" d="M116.3029,-30.6996C127.2958,-29.0403 138.872,-27.2929 150.1038,-25.5975"/>
<polygon fill="#191970" stroke="#191970" points="150.9297,-29.0126 160.2953,-24.0592 149.8849,-22.091 150.9297,-29.0126"/>
</g>
</g>
</svg>
