<?xml version="1.0" encoding="UTF-8" standalone="no"?>
<!DOCTYPE svg PUBLIC "-//W3C//DTD SVG 1.1//EN"
 "http://www.w3.org/Graphics/SVG/1.1/DTD/svg11.dtd">
<!-- Generated by graphviz version 2.40.1 (20161225.0304)
 -->
<!-- Title: nlohmann::detail::operator&lt; Pages: 1 -->
<svg width="290pt" height="100pt"
 viewBox="0.00 0.00 290.00 99.50" xmlns="http://www.w3.org/2000/svg" xmlns:xlink="http://www.w3.org/1999/xlink">
<g id="graph0" class="graph" transform="scale(1 1) rotate(0) translate(4 95.5)">
<title>nlohmann::detail::operator&lt;</title>
<polygon fill="#ffffff" stroke="transparent" points="-4,4 -4,-95.5 286,-95.5 286,4 -4,4"/>
<!-- Node1 -->
<g id="node1" class="node">
<title>Node1</title>
<polygon fill="#bfbfbf" stroke="#000000" points="0,-38.5 0,-57.5 135,-57.5 135,-38.5 0,-38.5"/>
<text text-anchor="middle" x="67.5" y="-45.5" font-family="Helvetica,sans-Serif" font-size="10.00" fill="#000000">nlohmann::detail::operator&lt;</text>
</g>
<!-- Node2 -->
<g id="node2" class="node">
<title>Node2</title>
<g id="a_node2"><a xlink:href="classnlohmann_1_1detail_1_1iter__impl.html#a634f85da575cb60b012a687efa26e11a" target="_top" xlink:title="comparison: greater than or equal ">
<polygon fill="#ffffff" stroke="#000000" points="173,-61 173,-91 280,-91 280,-61 173,-61"/>
<text text-anchor="start" x="181" y="-79" font-family="Helvetica,sans-Serif" font-size="10.00" fill="#000000">nlohmann::detail::iter</text>
<text text-anchor="middle" x="226.5" y="-68" font-family="Helvetica,sans-Serif" font-size="10.00" fill="#000000">_impl::operator&gt;=</text>
</a>
</g>
</g>
<!-- Node1&#45;&gt;Node2 -->
<g id="edge1" class="edge">
<title>Node1&#45;&gt;Node2</title>
<path fill="none" stroke="#191970" d="M131.9784,-59.3547C145.5118,-61.7379 159.6479,-64.2273 172.74,-66.5328"/>
<polygon fill="#191970" stroke="#191970" points="132.2296,-55.8451 121.7741,-57.5577 131.0155,-62.7391 132.2296,-55.8451"/>
</g>
<!-- Node3 -->
<g id="node3" class="node">
<title>Node3</title>
<g id="a_node3"><a xlink:href="structstd_1_1less_3_01_1_1nlohmann_1_1detail_1_1value__t_01_4.html#a76d2a6c170cfd74f3b1882be1b5a6671" target="_top" xlink:title="compare two value_t enum values ">
<polygon fill="#ffffff" stroke="#000000" points="171,-.5 171,-41.5 282,-41.5 282,-.5 171,-.5"/>
<text text-anchor="start" x="179" y="-29.5" font-family="Helvetica,sans-Serif" font-size="10.00" fill="#000000">std::less&lt; ::nlohmann</text>
<text text-anchor="start" x="179" y="-18.5" font-family="Helvetica,sans-Serif" font-size="10.00" fill="#000000">::detail::value_t &gt;::</text>
<text text-anchor="middle" x="226.5" y="-7.5" font-family="Helvetica,sans-Serif" font-size="10.00" fill="#000000">operator()</text>
</a>
</g>
</g>
<!-- Node1&#45;&gt;Node3 -->
<g id="edge2" class="edge">
<title>Node1&#45;&gt;Node3</title>
<path fill="none" stroke="#191970" d="M133.4362,-36.8033C145.9071,-34.6856 158.837,-32.4899 170.9488,-30.4332"/>
<polygon fill="#191970" stroke="#191970" points="132.8303,-33.356 123.5575,-38.4808 134.0023,-40.2572 132.8303,-33.356"/>
</g>
</g>
</svg>
