<?xml version="1.0" encoding="UTF-8" standalone="no"?>
<!DOCTYPE svg PUBLIC "-//W3C//DTD SVG 1.1//EN"
 "http://www.w3.org/Graphics/SVG/1.1/DTD/svg11.dtd">
<!-- Generated by graphviz version 2.40.1 (20161225.0304)
 -->
<!-- Title: River::ForwardRiverEvolution Pages: 1 -->
<svg width="1040pt" height="660pt"
 viewBox="0.00 0.00 1040.00 660.00" xmlns="http://www.w3.org/2000/svg" xmlns:xlink="http://www.w3.org/1999/xlink">
<g id="graph0" class="graph" transform="scale(1 1) rotate(0) translate(4 656)">
<title>River::ForwardRiverEvolution</title>
<polygon fill="#ffffff" stroke="transparent" points="-4,4 -4,-656 1036,-656 1036,4 -4,4"/>
<!-- Node52 -->
<g id="node1" class="node">
<title>Node52</title>
<polygon fill="#bfbfbf" stroke="#000000" points="0,-310.5 0,-329.5 145,-329.5 145,-310.5 0,-310.5"/>
<text text-anchor="middle" x="72.5" y="-317.5" font-family="Helvetica,sans-Serif" font-size="10.00" fill="#000000">River::ForwardRiverEvolution</text>
</g>
<!-- Node53 -->
<g id="node2" class="node">
<title>Node53</title>
<g id="a_node2"><a xlink:href="namespaceRiver_1_1SimpleGeo.html#a848d013c49f95f3282daa122660cc94f" target="_top" xlink:title="River::SimpleGeo::Box">
<polygon fill="#ffffff" stroke="#000000" points="198.5,-632.5 198.5,-651.5 315.5,-651.5 315.5,-632.5 198.5,-632.5"/>
<text text-anchor="middle" x="257" y="-639.5" font-family="Helvetica,sans-Serif" font-size="10.00" fill="#000000">River::SimpleGeo::Box</text>
</a>
</g>
</g>
<!-- Node52&#45;&gt;Node53 -->
<g id="edge1" class="edge">
<title>Node52&#45;&gt;Node53</title>
<path fill="none" stroke="#191970" d="M72.8401,-329.6369C74.8599,-371.5177 88.6469,-539.3554 181,-623 183.5201,-625.2825 186.2729,-627.3004 189.1887,-629.0836"/>
<polygon fill="#191970" stroke="#191970" points="187.8576,-632.3336 198.3561,-633.7591 191.0379,-626.0978 187.8576,-632.3336"/>
</g>
<!-- Node54 -->
<g id="node3" class="node">
<title>Node54</title>
<g id="a_node3"><a xlink:href="namespaceRiver_1_1SimpleGeo.html#a4c8ce45dd01ee5cfca48eaf113578406" target="_top" xlink:title="River::SimpleGeo::SingleTip">
<polygon fill="#ffffff" stroke="#000000" points="187,-594.5 187,-613.5 327,-613.5 327,-594.5 187,-594.5"/>
<text text-anchor="middle" x="257" y="-601.5" font-family="Helvetica,sans-Serif" font-size="10.00" fill="#000000">River::SimpleGeo::SingleTip</text>
</a>
</g>
</g>
<!-- Node52&#45;&gt;Node54 -->
<g id="edge2" class="edge">
<title>Node52&#45;&gt;Node54</title>
<path fill="none" stroke="#191970" d="M73.3997,-329.7352C77.5206,-368.5006 98.1256,-513.2494 181,-585 182.7962,-586.5551 184.7011,-587.9864 186.6916,-589.3037"/>
<polygon fill="#191970" stroke="#191970" points="185.4478,-592.6146 195.8948,-594.378 188.8277,-586.4846 185.4478,-592.6146"/>
</g>
<!-- Node55 -->
<g id="node4" class="node">
<title>Node55</title>
<g id="a_node4"><a xlink:href="namespaceRiver_1_1SimpleGeo.html#ab6e4b434f7b71839df562edbc13ddb5b" target="_top" xlink:title="River::SimpleGeo::Custom\lRiverTree">
<polygon fill="#ffffff" stroke="#000000" points="190,-545 190,-575 324,-575 324,-545 190,-545"/>
<text text-anchor="start" x="198" y="-563" font-family="Helvetica,sans-Serif" font-size="10.00" fill="#000000">River::SimpleGeo::Custom</text>
<text text-anchor="middle" x="257" y="-552" font-family="Helvetica,sans-Serif" font-size="10.00" fill="#000000">RiverTree</text>
</a>
</g>
</g>
<!-- Node52&#45;&gt;Node55 -->
<g id="edge3" class="edge">
<title>Node52&#45;&gt;Node55</title>
<path fill="none" stroke="#191970" d="M74.6055,-329.7921C82.3663,-363.5294 112.5488,-476.0908 181,-535 182.9806,-536.7045 185.0805,-538.2935 187.2715,-539.7747"/>
<polygon fill="#191970" stroke="#191970" points="185.7193,-542.9221 196.1143,-544.9704 189.2654,-536.8868 185.7193,-542.9221"/>
</g>
<!-- Node62 -->
<g id="node10" class="node">
<title>Node62</title>
<g id="a_node10"><a xlink:href="classRiver_1_1Geometry.html#a585d9801784be7999921ddfc7bab9de8" target="_top" xlink:title="River::Geometry::InitiateMesh">
<polygon fill="#ffffff" stroke="#000000" points="183,-506.5 183,-525.5 331,-525.5 331,-506.5 183,-506.5"/>
<text text-anchor="middle" x="257" y="-513.5" font-family="Helvetica,sans-Serif" font-size="10.00" fill="#000000">River::Geometry::InitiateMesh</text>
</a>
</g>
</g>
<!-- Node52&#45;&gt;Node62 -->
<g id="edge9" class="edge">
<title>Node52&#45;&gt;Node62</title>
<path fill="none" stroke="#191970" d="M75.5537,-329.8833C85.4131,-360.0782 119.3895,-451.802 181,-497 183.5496,-498.8704 186.263,-500.5578 189.0893,-502.08"/>
<polygon fill="#191970" stroke="#191970" points="187.8925,-505.3826 198.4383,-506.401 190.8294,-499.0284 187.8925,-505.3826"/>
</g>
<!-- Node63 -->
<g id="node11" class="node">
<title>Node63</title>
<g id="a_node11"><a xlink:href="classRiver_1_1Gmsh.html#acee66ab4e60847ab1d2368d8bebb7902" target="_top" xlink:title="River::Gmsh::init">
<polygon fill="#ffffff" stroke="#000000" points="211.5,-468.5 211.5,-487.5 302.5,-487.5 302.5,-468.5 211.5,-468.5"/>
<text text-anchor="middle" x="257" y="-475.5" font-family="Helvetica,sans-Serif" font-size="10.00" fill="#000000">River::Gmsh::init</text>
</a>
</g>
</g>
<!-- Node52&#45;&gt;Node63 -->
<g id="edge10" class="edge">
<title>Node52&#45;&gt;Node63</title>
<path fill="none" stroke="#191970" d="M77.0642,-329.5314C89.7222,-354.8953 127.8723,-424.4579 181,-459 187.1929,-463.0265 194.1789,-466.1996 201.3427,-468.7004"/>
<polygon fill="#191970" stroke="#191970" points="200.5774,-472.1264 211.164,-471.7106 202.6287,-465.4337 200.5774,-472.1264"/>
</g>
<!-- Node64 -->
<g id="node12" class="node">
<title>Node64</title>
<g id="a_node12"><a xlink:href="classRiver_1_1Gmsh.html#aa3256e7135d824367732615a99f01f23" target="_top" xlink:title="River::Gmsh::generate">
<polygon fill="#ffffff" stroke="#000000" points="199,-430.5 199,-449.5 315,-449.5 315,-430.5 199,-430.5"/>
<text text-anchor="middle" x="257" y="-437.5" font-family="Helvetica,sans-Serif" font-size="10.00" fill="#000000">River::Gmsh::generate</text>
</a>
</g>
</g>
<!-- Node52&#45;&gt;Node64 -->
<g id="edge11" class="edge">
<title>Node52&#45;&gt;Node64</title>
<path fill="none" stroke="#191970" d="M80.0327,-329.7674C96.2105,-350.042 136.4428,-396.8145 181,-421 185.2583,-423.3114 189.8032,-425.3474 194.4725,-427.14"/>
<polygon fill="#191970" stroke="#191970" points="193.5849,-430.5361 204.1796,-430.4877 195.8671,-423.9186 193.5849,-430.5361"/>
</g>
<!-- Node65 -->
<g id="node13" class="node">
<title>Node65</title>
<g id="a_node13"><a xlink:href="classRiver_1_1Gmsh.html#a20263b039fb43d850938f041e9bd7201" target="_top" xlink:title="River::Gmsh::write">
<polygon fill="#ffffff" stroke="#000000" points="207.5,-392.5 207.5,-411.5 306.5,-411.5 306.5,-392.5 207.5,-392.5"/>
<text text-anchor="middle" x="257" y="-399.5" font-family="Helvetica,sans-Serif" font-size="10.00" fill="#000000">River::Gmsh::write</text>
</a>
</g>
</g>
<!-- Node52&#45;&gt;Node65 -->
<g id="edge12" class="edge">
<title>Node52&#45;&gt;Node65</title>
<path fill="none" stroke="#191970" d="M86.2375,-329.6907C106.2204,-343.3789 144.872,-368.3382 181,-383 187.181,-385.5084 193.7833,-387.7531 200.4185,-389.7431"/>
<polygon fill="#191970" stroke="#191970" points="199.5437,-393.1328 210.1183,-392.4773 201.443,-386.3953 199.5437,-393.1328"/>
</g>
<!-- Node66 -->
<g id="node14" class="node">
<title>Node66</title>
<g id="a_node14"><a xlink:href="classRiver_1_1Triangle.html#a0dae20b40d446e6009a88543e2c14daf" target="_top" xlink:title="River::Triangle::generate">
<polygon fill="#ffffff" stroke="#000000" points="195,-354.5 195,-373.5 319,-373.5 319,-354.5 195,-354.5"/>
<text text-anchor="middle" x="257" y="-361.5" font-family="Helvetica,sans-Serif" font-size="10.00" fill="#000000">River::Triangle::generate</text>
</a>
</g>
</g>
<!-- Node52&#45;&gt;Node66 -->
<g id="edge13" class="edge">
<title>Node52&#45;&gt;Node66</title>
<path fill="none" stroke="#191970" d="M112.5338,-329.5473C140.3375,-336.1781 177.5773,-345.0591 207.2834,-352.1435"/>
<polygon fill="#191970" stroke="#191970" points="206.5052,-355.556 217.0444,-354.4713 208.1291,-348.7469 206.5052,-355.556"/>
</g>
<!-- Node76 -->
<g id="node24" class="node">
<title>Node76</title>
<g id="a_node24"><a xlink:href="classRiver_1_1Solver.html#a8d0a93ada5df466e04ef2eca9a5efe49" target="_top" xlink:title="River::Solver::SetBoundary\lRegionValue">
<polygon fill="#ffffff" stroke="#000000" points="189,-305 189,-335 325,-335 325,-305 189,-305"/>
<text text-anchor="start" x="197" y="-323" font-family="Helvetica,sans-Serif" font-size="10.00" fill="#000000">River::Solver::SetBoundary</text>
<text text-anchor="middle" x="257" y="-312" font-family="Helvetica,sans-Serif" font-size="10.00" fill="#000000">RegionValue</text>
</a>
</g>
</g>
<!-- Node52&#45;&gt;Node76 -->
<g id="edge23" class="edge">
<title>Node52&#45;&gt;Node76</title>
<path fill="none" stroke="#191970" d="M145.1544,-320C156.1948,-320 167.6278,-320 178.7807,-320"/>
<polygon fill="#191970" stroke="#191970" points="178.925,-323.5001 188.925,-320 178.925,-316.5001 178.925,-323.5001"/>
</g>
<!-- Node77 -->
<g id="node25" class="node">
<title>Node77</title>
<g id="a_node25"><a xlink:href="classRiver_1_1Solver.html#ab82147ca4342c3c4d038a17824437a53" target="_top" xlink:title="River::Solver::OpenMesh">
<polygon fill="#ffffff" stroke="#000000" points="193.5,-266.5 193.5,-285.5 320.5,-285.5 320.5,-266.5 193.5,-266.5"/>
<text text-anchor="middle" x="257" y="-273.5" font-family="Helvetica,sans-Serif" font-size="10.00" fill="#000000">River::Solver::OpenMesh</text>
</a>
</g>
</g>
<!-- Node52&#45;&gt;Node77 -->
<g id="edge24" class="edge">
<title>Node52&#45;&gt;Node77</title>
<path fill="none" stroke="#191970" d="M112.5338,-310.4527C140.3375,-303.8219 177.5773,-294.9409 207.2834,-287.8565"/>
<polygon fill="#191970" stroke="#191970" points="208.1291,-291.2531 217.0444,-285.5287 206.5052,-284.444 208.1291,-291.2531"/>
</g>
<!-- Node78 -->
<g id="node26" class="node">
<title>Node78</title>
<g id="a_node26"><a xlink:href="classRiver_1_1Solver.html#a4222fe744d607f870a5d7d22b11e8334" target="_top" xlink:title="River::Solver::run">
<polygon fill="#ffffff" stroke="#000000" points="210.5,-228.5 210.5,-247.5 303.5,-247.5 303.5,-228.5 210.5,-228.5"/>
<text text-anchor="middle" x="257" y="-235.5" font-family="Helvetica,sans-Serif" font-size="10.00" fill="#000000">River::Solver::run</text>
</a>
</g>
</g>
<!-- Node52&#45;&gt;Node78 -->
<g id="edge25" class="edge">
<title>Node52&#45;&gt;Node78</title>
<path fill="none" stroke="#191970" d="M86.2375,-310.3093C106.2204,-296.6211 144.872,-271.6618 181,-257 187.181,-254.4916 193.7833,-252.2469 200.4185,-250.2569"/>
<polygon fill="#191970" stroke="#191970" points="201.443,-253.6047 210.1183,-247.5227 199.5437,-246.8672 201.443,-253.6047"/>
</g>
<!-- Node85 -->
<g id="node33" class="node">
<title>Node85</title>
<g id="a_node33"><a xlink:href="classRiver_1_1Geometry.html#a37d40329645be4c1dee1794aa239be5b" target="_top" xlink:title="River::Geometry::GetTipPoints">
<polygon fill="#ffffff" stroke="#000000" points="181,-190.5 181,-209.5 333,-209.5 333,-190.5 181,-190.5"/>
<text text-anchor="middle" x="257" y="-197.5" font-family="Helvetica,sans-Serif" font-size="10.00" fill="#000000">River::Geometry::GetTipPoints</text>
</a>
</g>
</g>
<!-- Node52&#45;&gt;Node85 -->
<g id="edge32" class="edge">
<title>Node52&#45;&gt;Node85</title>
<path fill="none" stroke="#191970" d="M80.0327,-310.2326C96.2105,-289.958 136.4428,-243.1855 181,-219 185.2583,-216.6886 189.8032,-214.6526 194.4725,-212.86"/>
<polygon fill="#191970" stroke="#191970" points="195.8671,-216.0814 204.1796,-209.5123 193.5849,-209.4639 195.8671,-216.0814"/>
</g>
<!-- Node89 -->
<g id="node37" class="node">
<title>Node89</title>
<g id="a_node37"><a xlink:href="classRiver_1_1Solver.html#aa3edfad041ae11e84fb29720e2eb7b80" target="_top" xlink:title="River::Solver::clear">
<polygon fill="#ffffff" stroke="#000000" points="206.5,-152.5 206.5,-171.5 307.5,-171.5 307.5,-152.5 206.5,-152.5"/>
<text text-anchor="middle" x="257" y="-159.5" font-family="Helvetica,sans-Serif" font-size="10.00" fill="#000000">River::Solver::clear</text>
</a>
</g>
</g>
<!-- Node52&#45;&gt;Node89 -->
<g id="edge37" class="edge">
<title>Node52&#45;&gt;Node89</title>
<path fill="none" stroke="#191970" d="M77.0642,-310.4686C89.7222,-285.1047 127.8723,-215.5421 181,-181 185.8941,-177.818 191.2835,-175.1689 196.8646,-172.9634"/>
<polygon fill="#191970" stroke="#191970" points="198.0876,-176.2438 206.3845,-169.6549 195.7896,-169.6317 198.0876,-176.2438"/>
</g>
<!-- Node90 -->
<g id="node38" class="node">
<title>Node90</title>
<g id="a_node38"><a xlink:href="classRiver_1_1Geometry.html#acd254c4e9e192ffe0bbe0da6dd166246" target="_top" xlink:title="River::Geometry::clear">
<polygon fill="#ffffff" stroke="#000000" points="199,-114.5 199,-133.5 315,-133.5 315,-114.5 199,-114.5"/>
<text text-anchor="middle" x="257" y="-121.5" font-family="Helvetica,sans-Serif" font-size="10.00" fill="#000000">River::Geometry::clear</text>
</a>
</g>
</g>
<!-- Node52&#45;&gt;Node90 -->
<g id="edge38" class="edge">
<title>Node52&#45;&gt;Node90</title>
<path fill="none" stroke="#191970" d="M75.5537,-310.1167C85.4131,-279.9218 119.3895,-188.198 181,-143 183.6867,-141.029 186.5552,-139.2613 189.5462,-137.6759"/>
<polygon fill="#191970" stroke="#191970" points="191.1789,-140.7782 198.8269,-133.4462 188.2759,-134.4085 191.1789,-140.7782"/>
</g>
<!-- Node91 -->
<g id="node39" class="node">
<title>Node91</title>
<g id="a_node39"><a xlink:href="classRiver_1_1Gmsh.html#a6c5233a64777a92c7e0a75256caa4b77" target="_top" xlink:title="River::Gmsh::clear">
<polygon fill="#ffffff" stroke="#000000" points="207.5,-76.5 207.5,-95.5 306.5,-95.5 306.5,-76.5 207.5,-76.5"/>
<text text-anchor="middle" x="257" y="-83.5" font-family="Helvetica,sans-Serif" font-size="10.00" fill="#000000">River::Gmsh::clear</text>
</a>
</g>
</g>
<!-- Node52&#45;&gt;Node91 -->
<g id="edge39" class="edge">
<title>Node52&#45;&gt;Node91</title>
<path fill="none" stroke="#191970" d="M74.3523,-310.4944C81.4452,-276.7394 110.1231,-161.6394 181,-105 185.9505,-101.044 191.6165,-97.8986 197.5737,-95.3998"/>
<polygon fill="#191970" stroke="#191970" points="198.88,-98.6497 207.1135,-91.9818 196.519,-92.0599 198.88,-98.6497"/>
</g>
<!-- Node92 -->
<g id="node40" class="node">
<title>Node92</title>
<g id="a_node40"><a xlink:href="classRiver_1_1Gmsh.html#a1fb9948bbf52b97b066880954919850c" target="_top" xlink:title="River::Gmsh::open">
<polygon fill="#ffffff" stroke="#000000" points="207.5,-38.5 207.5,-57.5 306.5,-57.5 306.5,-38.5 207.5,-38.5"/>
<text text-anchor="middle" x="257" y="-45.5" font-family="Helvetica,sans-Serif" font-size="10.00" fill="#000000">River::Gmsh::open</text>
</a>
</g>
</g>
<!-- Node52&#45;&gt;Node92 -->
<g id="edge40" class="edge">
<title>Node52&#45;&gt;Node92</title>
<path fill="none" stroke="#191970" d="M73.584,-310.4414C78.3542,-273.0175 100.9437,-135.1621 181,-67 185.893,-62.834 191.5688,-59.5586 197.5717,-56.9869"/>
<polygon fill="#191970" stroke="#191970" points="198.9974,-60.1932 207.2088,-53.4981 196.6146,-53.6112 198.9974,-60.1932"/>
</g>
<!-- Node93 -->
<g id="node41" class="node">
<title>Node93</title>
<g id="a_node41"><a xlink:href="classRiver_1_1Gmsh.html#a7021b8ecb83c2e5f2248c579ff2c1c6c" target="_top" xlink:title="River::Gmsh::start_ui">
<polygon fill="#ffffff" stroke="#000000" points="202,-.5 202,-19.5 312,-19.5 312,-.5 202,-.5"/>
<text text-anchor="middle" x="257" y="-7.5" font-family="Helvetica,sans-Serif" font-size="10.00" fill="#000000">River::Gmsh::start_ui</text>
</a>
</g>
</g>
<!-- Node52&#45;&gt;Node93 -->
<g id="edge41" class="edge">
<title>Node52&#45;&gt;Node93</title>
<path fill="none" stroke="#191970" d="M72.9928,-310.4622C75.63,-269.7483 91.5584,-108.9534 181,-29 184.4586,-25.9083 188.3448,-23.3031 192.4832,-21.1098"/>
<polygon fill="#191970" stroke="#191970" points="194.1595,-24.195 201.8778,-16.9369 191.318,-17.7977 194.1595,-24.195"/>
</g>
<!-- Node56 -->
<g id="node5" class="node">
<title>Node56</title>
<g id="a_node5"><a xlink:href="namespaceRiver_1_1SimpleGeo.html#aaeaf0931007ed0bb3f04ffe517b90708" target="_top" xlink:title="River::SimpleGeo::AddBranches">
<polygon fill="#ffffff" stroke="#000000" points="369,-556.5 369,-575.5 527,-575.5 527,-556.5 369,-556.5"/>
<text text-anchor="middle" x="448" y="-563.5" font-family="Helvetica,sans-Serif" font-size="10.00" fill="#000000">River::SimpleGeo::AddBranches</text>
</a>
</g>
</g>
<!-- Node55&#45;&gt;Node56 -->
<g id="edge4" class="edge">
<title>Node55&#45;&gt;Node56</title>
<path fill="none" stroke="#191970" d="M324.0709,-562.1069C335.2943,-562.4595 347.0942,-562.8302 358.7686,-563.1969"/>
<polygon fill="#191970" stroke="#191970" points="358.8729,-566.7018 368.9779,-563.5176 359.0928,-559.7053 358.8729,-566.7018"/>
</g>
<!-- Node57 -->
<g id="node6" class="node">
<title>Node57</title>
<g id="a_node6"><a xlink:href="classRiver_1_1Geometry.html#a19cefb054be17b7c1df84fd7ce69442a" target="_top" xlink:title="River::Geometry::addPolar">
<polygon fill="#ffffff" stroke="#000000" points="577,-594.5 577,-613.5 710,-613.5 710,-594.5 577,-594.5"/>
<text text-anchor="middle" x="643.5" y="-601.5" font-family="Helvetica,sans-Serif" font-size="10.00" fill="#000000">River::Geometry::addPolar</text>
</a>
</g>
</g>
<!-- Node56&#45;&gt;Node57 -->
<g id="edge5" class="edge">
<title>Node56&#45;&gt;Node57</title>
<path fill="none" stroke="#191970" d="M497.0806,-575.54C523.5741,-580.6896 556.4717,-587.084 584.3688,-592.5065"/>
<polygon fill="#191970" stroke="#191970" points="583.9151,-595.9837 594.3992,-594.4561 585.2508,-589.1123 583.9151,-595.9837"/>
</g>
<!-- Node58 -->
<g id="node7" class="node">
<title>Node58</title>
<g id="a_node7"><a xlink:href="classRiver_1_1Geometry.html#a2e00a634a0e948570540a2ab47335478" target="_top" xlink:title="River::Geometry::AddBiffurcation">
<polygon fill="#ffffff" stroke="#000000" points="563,-556.5 563,-575.5 724,-575.5 724,-556.5 563,-556.5"/>
<text text-anchor="middle" x="643.5" y="-563.5" font-family="Helvetica,sans-Serif" font-size="10.00" fill="#000000">River::Geometry::AddBiffurcation</text>
</a>
</g>
</g>
<!-- Node56&#45;&gt;Node58 -->
<g id="edge6" class="edge">
<title>Node56&#45;&gt;Node58</title>
<path fill="none" stroke="#191970" d="M527.2355,-566C535.6799,-566 544.3156,-566 552.8779,-566"/>
<polygon fill="#191970" stroke="#191970" points="552.8799,-569.5001 562.8799,-566 552.8799,-562.5001 552.8799,-569.5001"/>
</g>
<!-- Node59 -->
<g id="node8" class="node">
<title>Node59</title>
<g id="a_node8"><a xlink:href="classRiver_1_1Branch.html#ac530394680fc8ab073033352f251fe17" target="_top" xlink:title="River::Branch::Branch">
<polygon fill="#ffffff" stroke="#000000" points="760,-556.5 760,-575.5 873,-575.5 873,-556.5 760,-556.5"/>
<text text-anchor="middle" x="816.5" y="-563.5" font-family="Helvetica,sans-Serif" font-size="10.00" fill="#000000">River::Branch::Branch</text>
</a>
</g>
</g>
<!-- Node58&#45;&gt;Node59 -->
<g id="edge7" class="edge">
<title>Node58&#45;&gt;Node59</title>
<path fill="none" stroke="#191970" d="M724.1753,-566C732.6924,-566 741.2852,-566 749.6213,-566"/>
<polygon fill="#191970" stroke="#191970" points="749.64,-569.5001 759.6399,-566 749.6399,-562.5001 749.64,-569.5001"/>
</g>
<!-- Node60 -->
<g id="node9" class="node">
<title>Node60</title>
<g id="a_node9"><a xlink:href="classRiver_1_1Branch.html#a67e24ea2b1f521a1af4193fb7a9c0bed" target="_top" xlink:title="River::Branch::splitPoint">
<polygon fill="#ffffff" stroke="#ff0000" points="909,-556.5 909,-575.5 1032,-575.5 1032,-556.5 909,-556.5"/>
<text text-anchor="middle" x="970.5" y="-563.5" font-family="Helvetica,sans-Serif" font-size="10.00" fill="#000000">River::Branch::splitPoint</text>
</a>
</g>
</g>
<!-- Node59&#45;&gt;Node60 -->
<g id="edge8" class="edge">
<title>Node59&#45;&gt;Node60</title>
<path fill="none" stroke="#191970" d="M873.4064,-566C881.6298,-566 890.1819,-566 898.6506,-566"/>
<polygon fill="#191970" stroke="#191970" points="898.9115,-569.5001 908.9115,-566 898.9115,-562.5001 898.9115,-569.5001"/>
</g>
<!-- Node67 -->
<g id="node15" class="node">
<title>Node67</title>
<g id="a_node15"><a xlink:href="classRiver_1_1Triangle.html#af65f8816f88a34c015cd5ca66aca1aef" target="_top" xlink:title="River::Triangle::set\l_all_values_to_default">
<polygon fill="#ffffff" stroke="#000000" points="391.5,-507 391.5,-537 504.5,-537 504.5,-507 391.5,-507"/>
<text text-anchor="start" x="399.5" y="-525" font-family="Helvetica,sans-Serif" font-size="10.00" fill="#000000">River::Triangle::set</text>
<text text-anchor="middle" x="448" y="-514" font-family="Helvetica,sans-Serif" font-size="10.00" fill="#000000">_all_values_to_default</text>
</a>
</g>
</g>
<!-- Node66&#45;&gt;Node67 -->
<g id="edge14" class="edge">
<title>Node66&#45;&gt;Node67</title>
<path fill="none" stroke="#191970" d="M319.1928,-373.5978C324.2371,-376.0859 328.9436,-379.1738 333,-383 371.96,-419.7486 330.97,-460.2897 369,-498 372.7835,-501.7517 377.134,-504.92 381.8068,-507.595"/>
<polygon fill="#191970" stroke="#191970" points="380.6056,-510.9038 391.1263,-512.1552 383.6823,-504.6161 380.6056,-510.9038"/>
</g>
<!-- Node69 -->
<g id="node17" class="node">
<title>Node69</title>
<g id="a_node17"><a xlink:href="classRiver_1_1Triangle.html#aef5e3aa8a5f87ca8557c1a0886b925c3" target="_top" xlink:title="River::Triangle::tethex\l_to_io">
<polygon fill="#ffffff" stroke="#000000" points="391.5,-458 391.5,-488 504.5,-488 504.5,-458 391.5,-458"/>
<text text-anchor="start" x="399.5" y="-476" font-family="Helvetica,sans-Serif" font-size="10.00" fill="#000000">River::Triangle::tethex</text>
<text text-anchor="middle" x="448" y="-465" font-family="Helvetica,sans-Serif" font-size="10.00" fill="#000000">_to_io</text>
</a>
</g>
</g>
<!-- Node66&#45;&gt;Node69 -->
<g id="edge16" class="edge">
<title>Node66&#45;&gt;Node69</title>
<path fill="none" stroke="#191970" d="M316.5291,-373.6544C322.4263,-376.1079 328.0508,-379.173 333,-383 359.4327,-403.439 343.086,-427.9071 369,-449 372.9969,-452.2533 377.4294,-455.0662 382.0962,-457.4982"/>
<polygon fill="#191970" stroke="#191970" points="380.7579,-460.7349 391.3067,-461.7213 383.6754,-454.3719 380.7579,-460.7349"/>
</g>
<!-- Node70 -->
<g id="node18" class="node">
<title>Node70</title>
<g id="a_node18"><a xlink:href="classRiver_1_1Triangle.html#ab4a007be4739f8e3781b190f5c6c0b09" target="_top" xlink:title="River::Triangle::print\l_geometry">
<polygon fill="#ffffff" stroke="#000000" points="395.5,-409 395.5,-439 500.5,-439 500.5,-409 395.5,-409"/>
<text text-anchor="start" x="403.5" y="-427" font-family="Helvetica,sans-Serif" font-size="10.00" fill="#000000">River::Triangle::print</text>
<text text-anchor="middle" x="448" y="-416" font-family="Helvetica,sans-Serif" font-size="10.00" fill="#000000">_geometry</text>
</a>
</g>
</g>
<!-- Node66&#45;&gt;Node70 -->
<g id="edge17" class="edge">
<title>Node66&#45;&gt;Node70</title>
<path fill="none" stroke="#191970" d="M301.2435,-373.5052C311.7708,-376.1927 322.8817,-379.3857 333,-383 349.6631,-388.9521 352.4908,-393.6335 369,-400 374.3978,-402.0815 380.0571,-404.1033 385.7613,-406.0323"/>
<polygon fill="#191970" stroke="#191970" points="384.7725,-409.3914 395.3654,-409.1854 386.9561,-402.7407 384.7725,-409.3914"/>
</g>
<!-- Node71 -->
<g id="node19" class="node">
<title>Node71</title>
<g id="a_node19"><a xlink:href="classRiver_1_1Triangle.html#ace837080fe12b6a062b3256288885d74" target="_top" xlink:title="River::Triangle::io\l_to_tethex">
<polygon fill="#ffffff" stroke="#000000" points="401,-360 401,-390 495,-390 495,-360 401,-360"/>
<text text-anchor="start" x="409" y="-378" font-family="Helvetica,sans-Serif" font-size="10.00" fill="#000000">River::Triangle::io</text>
<text text-anchor="middle" x="448" y="-367" font-family="Helvetica,sans-Serif" font-size="10.00" fill="#000000">_to_tethex</text>
</a>
</g>
</g>
<!-- Node66&#45;&gt;Node71 -->
<g id="edge18" class="edge">
<title>Node66&#45;&gt;Node71</title>
<path fill="none" stroke="#191970" d="M319.0122,-367.5714C342.0606,-368.8988 368.0886,-370.3978 390.697,-371.6998"/>
<polygon fill="#191970" stroke="#191970" points="390.6363,-375.202 400.821,-372.2829 391.0388,-368.2136 390.6363,-375.202"/>
</g>
<!-- Node75 -->
<g id="node23" class="node">
<title>Node75</title>
<g id="a_node23"><a xlink:href="classRiver_1_1Triangle.html#a3f7788026746dcc85d607cfe375b7d20" target="_top" xlink:title="River::Triangle::free\l_allocated_memory">
<polygon fill="#ffffff" stroke="#000000" points="396.5,-311 396.5,-341 499.5,-341 499.5,-311 396.5,-311"/>
<text text-anchor="start" x="404.5" y="-329" font-family="Helvetica,sans-Serif" font-size="10.00" fill="#000000">River::Triangle::free</text>
<text text-anchor="middle" x="448" y="-318" font-family="Helvetica,sans-Serif" font-size="10.00" fill="#000000">_allocated_memory</text>
</a>
</g>
</g>
<!-- Node66&#45;&gt;Node75 -->
<g id="edge22" class="edge">
<title>Node66&#45;&gt;Node75</title>
<path fill="none" stroke="#191970" d="M305.1974,-354.411C329.8916,-349.498 360.2312,-343.4619 386.5849,-338.2187"/>
<polygon fill="#191970" stroke="#191970" points="387.3451,-341.6361 396.4699,-336.2521 385.9792,-334.7707 387.3451,-341.6361"/>
</g>
<!-- Node68 -->
<g id="node16" class="node">
<title>Node68</title>
<g id="a_node16"><a xlink:href="classRiver_1_1Triangle.html#a98666335bc441895b9c13ba84d8f7981" target="_top" xlink:title="River::Triangle::update\l_options">
<polygon fill="#ffffff" stroke="#000000" points="585.5,-507 585.5,-537 701.5,-537 701.5,-507 585.5,-507"/>
<text text-anchor="start" x="593.5" y="-525" font-family="Helvetica,sans-Serif" font-size="10.00" fill="#000000">River::Triangle::update</text>
<text text-anchor="middle" x="643.5" y="-514" font-family="Helvetica,sans-Serif" font-size="10.00" fill="#000000">_options</text>
</a>
</g>
</g>
<!-- Node67&#45;&gt;Node68 -->
<g id="edge15" class="edge">
<title>Node67&#45;&gt;Node68</title>
<path fill="none" stroke="#191970" d="M504.5467,-522C526.6493,-522 552.1921,-522 575.3023,-522"/>
<polygon fill="#191970" stroke="#191970" points="575.3832,-525.5001 585.3832,-522 575.3832,-518.5001 575.3832,-525.5001"/>
</g>
<!-- Node72 -->
<g id="node20" class="node">
<title>Node72</title>
<g id="a_node20"><a xlink:href="classtethex_1_1Mesh.html#a730ec5e40642f4048d86dbf9af191818" target="_top" xlink:title="tethex::Mesh::set_vertexes">
<polygon fill="#ffffff" stroke="#000000" points="575.5,-403.5 575.5,-422.5 711.5,-422.5 711.5,-403.5 575.5,-403.5"/>
<text text-anchor="middle" x="643.5" y="-410.5" font-family="Helvetica,sans-Serif" font-size="10.00" fill="#000000">tethex::Mesh::set_vertexes</text>
</a>
</g>
</g>
<!-- Node71&#45;&gt;Node72 -->
<g id="edge19" class="edge">
<title>Node71&#45;&gt;Node72</title>
<path fill="none" stroke="#191970" d="M495.3251,-384.1987C522.2142,-389.4253 556.1135,-396.0144 584.6996,-401.5708"/>
<polygon fill="#191970" stroke="#191970" points="584.085,-405.0167 594.5691,-403.4891 585.4206,-398.1453 584.085,-405.0167"/>
</g>
<!-- Node73 -->
<g id="node21" class="node">
<title>Node73</title>
<g id="a_node21"><a xlink:href="classtethex_1_1Mesh.html#aab33b9e41b9b7c5a2eb798771aa4b865" target="_top" xlink:title="tethex::Mesh::set_lines">
<polygon fill="#ffffff" stroke="#000000" points="584,-365.5 584,-384.5 703,-384.5 703,-365.5 584,-365.5"/>
<text text-anchor="middle" x="643.5" y="-372.5" font-family="Helvetica,sans-Serif" font-size="10.00" fill="#000000">tethex::Mesh::set_lines</text>
</a>
</g>
</g>
<!-- Node71&#45;&gt;Node73 -->
<g id="edge20" class="edge">
<title>Node71&#45;&gt;Node73</title>
<path fill="none" stroke="#191970" d="M495.3251,-375C518.8691,-375 547.7875,-375 573.8079,-375"/>
<polygon fill="#191970" stroke="#191970" points="573.9975,-378.5001 583.9974,-375 573.9974,-371.5001 573.9975,-378.5001"/>
</g>
<!-- Node74 -->
<g id="node22" class="node">
<title>Node74</title>
<g id="a_node22"><a xlink:href="classtethex_1_1Mesh.html#a84431286c718d5570b253b73d3ef446f" target="_top" xlink:title="tethex::Mesh::set_triangles">
<polygon fill="#ffffff" stroke="#000000" points="576,-327.5 576,-346.5 711,-346.5 711,-327.5 576,-327.5"/>
<text text-anchor="middle" x="643.5" y="-334.5" font-family="Helvetica,sans-Serif" font-size="10.00" fill="#000000">tethex::Mesh::set_triangles</text>
</a>
</g>
</g>
<!-- Node71&#45;&gt;Node74 -->
<g id="edge21" class="edge">
<title>Node71&#45;&gt;Node74</title>
<path fill="none" stroke="#191970" d="M495.3251,-365.8013C522.2142,-360.5747 556.1135,-353.9856 584.6996,-348.4292"/>
<polygon fill="#191970" stroke="#191970" points="585.4206,-351.8547 594.5691,-346.5109 584.085,-344.9833 585.4206,-351.8547"/>
</g>
<!-- Node79 -->
<g id="node27" class="node">
<title>Node79</title>
<g id="a_node27"><a xlink:href="classRiver_1_1Solver.html#a01eb2f2d7229b100f6da98420be1449f" target="_top" xlink:title="River::Solver::refine_grid">
<polygon fill="#ffffff" stroke="#000000" points="385.5,-272.5 385.5,-291.5 510.5,-291.5 510.5,-272.5 385.5,-272.5"/>
<text text-anchor="middle" x="448" y="-279.5" font-family="Helvetica,sans-Serif" font-size="10.00" fill="#000000">River::Solver::refine_grid</text>
</a>
</g>
</g>
<!-- Node78&#45;&gt;Node79 -->
<g id="edge26" class="edge">
<title>Node78&#45;&gt;Node79</title>
<path fill="none" stroke="#191970" d="M298.4442,-247.5473C327.2275,-254.1781 365.7792,-263.0591 396.5319,-270.1435"/>
<polygon fill="#191970" stroke="#191970" points="396.1062,-273.637 406.6367,-272.4713 397.6777,-266.8157 396.1062,-273.637"/>
</g>
<!-- Node80 -->
<g id="node28" class="node">
<title>Node80</title>
<g id="a_node28"><a xlink:href="classRiver_1_1Solver.html#adba0a10f694b0193b449efc4c68d7418" target="_top" xlink:title="River::Solver::setup\l_system">
<polygon fill="#ffffff" stroke="#000000" points="396,-223 396,-253 500,-253 500,-223 396,-223"/>
<text text-anchor="start" x="404" y="-241" font-family="Helvetica,sans-Serif" font-size="10.00" fill="#000000">River::Solver::setup</text>
<text text-anchor="middle" x="448" y="-230" font-family="Helvetica,sans-Serif" font-size="10.00" fill="#000000">_system</text>
</a>
</g>
</g>
<!-- Node78&#45;&gt;Node80 -->
<g id="edge27" class="edge">
<title>Node78&#45;&gt;Node80</title>
<path fill="none" stroke="#191970" d="M303.7239,-238C328.402,-238 359.0202,-238 385.693,-238"/>
<polygon fill="#191970" stroke="#191970" points="385.7019,-241.5001 395.7019,-238 385.7018,-234.5001 385.7019,-241.5001"/>
</g>
<!-- Node81 -->
<g id="node29" class="node">
<title>Node81</title>
<g id="a_node29"><a xlink:href="classRiver_1_1Solver.html#af16fb58ac78609220538d62c2c491249" target="_top" xlink:title="River::Solver::assemble\l_system">
<polygon fill="#ffffff" stroke="#000000" points="387,-174 387,-204 509,-204 509,-174 387,-174"/>
<text text-anchor="start" x="395" y="-192" font-family="Helvetica,sans-Serif" font-size="10.00" fill="#000000">River::Solver::assemble</text>
<text text-anchor="middle" x="448" y="-181" font-family="Helvetica,sans-Serif" font-size="10.00" fill="#000000">_system</text>
</a>
</g>
</g>
<!-- Node78&#45;&gt;Node81 -->
<g id="edge28" class="edge">
<title>Node78&#45;&gt;Node81</title>
<path fill="none" stroke="#191970" d="M295.6824,-228.4104C307.6517,-225.4214 320.8768,-222.0966 333,-219 348.4154,-215.0625 364.9778,-210.7752 380.5978,-206.7061"/>
<polygon fill="#191970" stroke="#191970" points="381.912,-209.9805 390.7046,-204.0695 380.145,-203.2071 381.912,-209.9805"/>
</g>
<!-- Node83 -->
<g id="node31" class="node">
<title>Node83</title>
<g id="a_node31"><a xlink:href="classRiver_1_1Solver.html#acc631ad7d750f35bd33430a2b0410efe" target="_top" xlink:title="River::Solver::solve">
<polygon fill="#ffffff" stroke="#000000" points="396.5,-135.5 396.5,-154.5 499.5,-154.5 499.5,-135.5 396.5,-135.5"/>
<text text-anchor="middle" x="448" y="-142.5" font-family="Helvetica,sans-Serif" font-size="10.00" fill="#000000">River::Solver::solve</text>
</a>
</g>
</g>
<!-- Node78&#45;&gt;Node83 -->
<g id="edge30" class="edge">
<title>Node78&#45;&gt;Node83</title>
<path fill="none" stroke="#191970" d="M303.5562,-232.0799C313.8858,-229.2619 324.3285,-225.111 333,-219 356.5779,-202.3842 345.4469,-181.6508 369,-165 374.307,-161.2482 380.2532,-158.1989 386.4382,-155.7208"/>
<polygon fill="#191970" stroke="#191970" points="388.0099,-158.8793 396.2968,-152.2778 385.7019,-152.2707 388.0099,-158.8793"/>
</g>
<!-- Node84 -->
<g id="node32" class="node">
<title>Node84</title>
<g id="a_node32"><a xlink:href="classRiver_1_1Solver.html#a328be2cd9739561d1d97ac6e59ebe261" target="_top" xlink:title="River::Solver::output\l_results">
<polygon fill="#ffffff" stroke="#000000" points="394.5,-86 394.5,-116 501.5,-116 501.5,-86 394.5,-86"/>
<text text-anchor="start" x="402.5" y="-104" font-family="Helvetica,sans-Serif" font-size="10.00" fill="#000000">River::Solver::output</text>
<text text-anchor="middle" x="448" y="-93" font-family="Helvetica,sans-Serif" font-size="10.00" fill="#000000">_results</text>
</a>
</g>
</g>
<!-- Node78&#45;&gt;Node84 -->
<g id="edge31" class="edge">
<title>Node78&#45;&gt;Node84</title>
<path fill="none" stroke="#191970" d="M303.8069,-233.6171C314.3625,-230.7564 324.8432,-226.2007 333,-219 366.2273,-189.6676 336.6904,-156.3403 369,-126 373.6797,-121.6055 379.1284,-117.9835 384.9359,-114.998"/>
<polygon fill="#191970" stroke="#191970" points="386.5983,-118.0887 394.2981,-110.8112 383.7405,-111.6986 386.5983,-118.0887"/>
</g>
<!-- Node82 -->
<g id="node30" class="node">
<title>Node82</title>
<g id="a_node30"><a xlink:href="namespaceRiver.html#aeb51a1c35cf6a02863958bcfdb0034e9" target="_top" xlink:title="River::coefficient">
<polygon fill="#ffffff" stroke="#000000" points="598,-179.5 598,-198.5 689,-198.5 689,-179.5 598,-179.5"/>
<text text-anchor="middle" x="643.5" y="-186.5" font-family="Helvetica,sans-Serif" font-size="10.00" fill="#000000">River::coefficient</text>
</a>
</g>
</g>
<!-- Node81&#45;&gt;Node82 -->
<g id="edge29" class="edge">
<title>Node81&#45;&gt;Node82</title>
<path fill="none" stroke="#191970" d="M509.0533,-189C534.1491,-189 563.02,-189 587.5593,-189"/>
<polygon fill="#191970" stroke="#191970" points="587.7874,-192.5001 597.7874,-189 587.7873,-185.5001 587.7874,-192.5001"/>
</g>
<!-- Node86 -->
<g id="node34" class="node">
<title>Node86</title>
<g id="a_node34"><a xlink:href="classRiver_1_1Branch.html#a2bf375682c5b397c9bf04ab9f215a926" target="_top" xlink:title="River::Branch::getHead">
<polygon fill="#ffffff" stroke="#000000" points="388.5,-47.5 388.5,-66.5 507.5,-66.5 507.5,-47.5 388.5,-47.5"/>
<text text-anchor="middle" x="448" y="-54.5" font-family="Helvetica,sans-Serif" font-size="10.00" fill="#000000">River::Branch::getHead</text>
</a>
</g>
</g>
<!-- Node85&#45;&gt;Node86 -->
<g id="edge33" class="edge">
<title>Node85&#45;&gt;Node86</title>
<path fill="none" stroke="#191970" d="M318.7014,-190.4522C323.91,-187.9599 328.7866,-184.857 333,-181 369.079,-147.9728 332.9701,-110.0809 369,-77 372.0206,-74.2266 375.3699,-71.8249 378.9348,-69.7461"/>
<polygon fill="#191970" stroke="#191970" points="380.7367,-72.7608 388.1756,-65.2167 377.6558,-66.4753 380.7367,-72.7608"/>
</g>
<!-- Node88 -->
<g id="node36" class="node">
<title>Node88</title>
<g id="a_node36"><a xlink:href="classRiver_1_1Branch.html#a769ba8d295c72c53343ff2e4b0d91f29" target="_top" xlink:title="River::Branch::getHeadAngle">
<polygon fill="#ffffff" stroke="#000000" points="376,-9.5 376,-28.5 520,-28.5 520,-9.5 376,-9.5"/>
<text text-anchor="middle" x="448" y="-16.5" font-family="Helvetica,sans-Serif" font-size="10.00" fill="#000000">River::Branch::getHeadAngle</text>
</a>
</g>
</g>
<!-- Node85&#45;&gt;Node88 -->
<g id="edge35" class="edge">
<title>Node85&#45;&gt;Node88</title>
<path fill="none" stroke="#191970" d="M319.7909,-190.4557C324.6477,-187.95 329.15,-184.8436 333,-181 379.3809,-134.6953 322.4123,-84.0965 369,-38 370.4289,-36.5862 371.9435,-35.2708 373.5299,-34.0475"/>
<polygon fill="#191970" stroke="#191970" points="375.4333,-36.9849 381.9947,-28.6663 371.6779,-31.0775 375.4333,-36.9849"/>
</g>
<!-- Node87 -->
<g id="node35" class="node">
<title>Node87</title>
<g id="a_node35"><a xlink:href="classRiver_1_1Branch.html#a28a8c207ba296169ca20b47e99a9e091" target="_top" xlink:title="River::Branch::size">
<polygon fill="#ffffff" stroke="#000000" points="593,-28.5 593,-47.5 694,-47.5 694,-28.5 593,-28.5"/>
<text text-anchor="middle" x="643.5" y="-35.5" font-family="Helvetica,sans-Serif" font-size="10.00" fill="#000000">River::Branch::size</text>
</a>
</g>
</g>
<!-- Node86&#45;&gt;Node87 -->
<g id="edge34" class="edge">
<title>Node86&#45;&gt;Node87</title>
<path fill="none" stroke="#191970" d="M507.7187,-51.1961C531.4963,-48.8853 558.8309,-46.2287 582.7132,-43.9077"/>
<polygon fill="#191970" stroke="#191970" points="583.1022,-47.3865 592.7167,-42.9355 582.425,-40.4193 583.1022,-47.3865"/>
</g>
<!-- Node88&#45;&gt;Node87 -->
<g id="edge36" class="edge">
<title>Node88&#45;&gt;Node87</title>
<path fill="none" stroke="#191970" d="M520.2415,-26.0209C540.8043,-28.0193 562.9863,-30.1751 582.7885,-32.0996"/>
<polygon fill="#191970" stroke="#191970" points="582.6139,-35.5991 592.9056,-33.0829 583.2911,-28.6319 582.6139,-35.5991"/>
</g>
</g>
</svg>
