<?xml version="1.0" encoding="UTF-8" standalone="no"?>
<!DOCTYPE svg PUBLIC "-//W3C//DTD SVG 1.1//EN"
 "http://www.w3.org/Graphics/SVG/1.1/DTD/svg11.dtd">
<!-- Generated by graphviz version 2.40.1 (20161225.0304)
 -->
<!-- Title: nlohmann::detail::dtoa_impl::grisu2_digit_gen Pages: 1 -->
<svg width="580pt" height="39pt"
 viewBox="0.00 0.00 580.00 39.00" xmlns="http://www.w3.org/2000/svg" xmlns:xlink="http://www.w3.org/1999/xlink">
<g id="graph0" class="graph" transform="scale(1 1) rotate(0) translate(4 35)">
<title>nlohmann::detail::dtoa_impl::grisu2_digit_gen</title>
<polygon fill="#ffffff" stroke="transparent" points="-4,4 -4,-35 576,-35 576,4 -4,4"/>
<!-- Node25 -->
<g id="node1" class="node">
<title>Node25</title>
<polygon fill="#bfbfbf" stroke="#000000" points="0,-.5 0,-30.5 116,-30.5 116,-.5 0,-.5"/>
<text text-anchor="start" x="8" y="-18.5" font-family="Helvetica,sans-Serif" font-size="10.00" fill="#000000">nlohmann::detail::dtoa</text>
<text text-anchor="middle" x="58" y="-7.5" font-family="Helvetica,sans-Serif" font-size="10.00" fill="#000000">_impl::grisu2_digit_gen</text>
</g>
<!-- Node26 -->
<g id="node2" class="node">
<title>Node26</title>
<g id="a_node2"><a xlink:href="namespacenlohmann_1_1detail_1_1dtoa__impl.html#a05b681dcb8569b9784c6dccfadb01633" target="_top" xlink:title="nlohmann::detail::dtoa\l_impl::grisu2">
<polygon fill="#ffffff" stroke="#000000" points="152,-.5 152,-30.5 265,-30.5 265,-.5 152,-.5"/>
<text text-anchor="start" x="160" y="-18.5" font-family="Helvetica,sans-Serif" font-size="10.00" fill="#000000">nlohmann::detail::dtoa</text>
<text text-anchor="middle" x="208.5" y="-7.5" font-family="Helvetica,sans-Serif" font-size="10.00" fill="#000000">_impl::grisu2</text>
</a>
</g>
</g>
<!-- Node25&#45;&gt;Node26 -->
<g id="edge1" class="edge">
<title>Node25&#45;&gt;Node26</title>
<path fill="none" stroke="#191970" d="M126.2093,-15.5C134.8184,-15.5 143.5515,-15.5 151.9525,-15.5"/>
<polygon fill="#191970" stroke="#191970" points="126.1873,-12.0001 116.1872,-15.5 126.1872,-19.0001 126.1873,-12.0001"/>
</g>
<!-- Node27 -->
<g id="node3" class="node">
<title>Node27</title>
<g id="a_node3"><a xlink:href="namespacenlohmann_1_1detail.html#a18759c536d89c4dd3a118bd3ecb790da" target="_top" xlink:title="generates a decimal representation of the floating&#45;point number value in [first, last). ">
<polygon fill="#ffffff" stroke="#000000" points="301,-.5 301,-30.5 403,-30.5 403,-.5 301,-.5"/>
<text text-anchor="start" x="309" y="-18.5" font-family="Helvetica,sans-Serif" font-size="10.00" fill="#000000">nlohmann::detail::to</text>
<text text-anchor="middle" x="352" y="-7.5" font-family="Helvetica,sans-Serif" font-size="10.00" fill="#000000">_chars</text>
</a>
</g>
</g>
<!-- Node26&#45;&gt;Node27 -->
<g id="edge2" class="edge">
<title>Node26&#45;&gt;Node27</title>
<path fill="none" stroke="#191970" d="M275.234,-15.5C283.8318,-15.5 292.5261,-15.5 300.8199,-15.5"/>
<polygon fill="#191970" stroke="#191970" points="275.215,-12.0001 265.215,-15.5 275.215,-19.0001 275.215,-12.0001"/>
</g>
<!-- Node28 -->
<g id="node4" class="node">
<title>Node28</title>
<g id="a_node4"><a xlink:href="classnlohmann_1_1detail_1_1serializer.html#a24b0fe45dc774441237bde198a133d8a" target="_top" xlink:title="nlohmann::detail::serializer\l::dump_float">
<polygon fill="#ffffff" stroke="#000000" points="439,-.5 439,-30.5 572,-30.5 572,-.5 439,-.5"/>
<text text-anchor="start" x="447" y="-18.5" font-family="Helvetica,sans-Serif" font-size="10.00" fill="#000000">nlohmann::detail::serializer</text>
<text text-anchor="middle" x="505.5" y="-7.5" font-family="Helvetica,sans-Serif" font-size="10.00" fill="#000000">::dump_float</text>
</a>
</g>
</g>
<!-- Node27&#45;&gt;Node28 -->
<g id="edge3" class="edge">
<title>Node27&#45;&gt;Node28</title>
<path fill="none" stroke="#191970" d="M413.2068,-15.5C421.6108,-15.5 430.2742,-15.5 438.7709,-15.5"/>
<polygon fill="#191970" stroke="#191970" points="413.1133,-12.0001 403.1133,-15.5 413.1132,-19.0001 413.1133,-12.0001"/>
</g>
</g>
</svg>
