<?xml version="1.0" encoding="UTF-8" standalone="no"?>
<!DOCTYPE svg PUBLIC "-//W3C//DTD SVG 1.1//EN"
 "http://www.w3.org/Graphics/SVG/1.1/DTD/svg11.dtd">
<!-- Generated by graphviz version 2.40.1 (20161225.0304)
 -->
<!-- Title: nlohmann::detail::dtoa_impl::grisu2_round Pages: 1 -->
<svg width="729pt" height="39pt"
 viewBox="0.00 0.00 729.00 39.00" xmlns="http://www.w3.org/2000/svg" xmlns:xlink="http://www.w3.org/1999/xlink">
<g id="graph0" class="graph" transform="scale(1 1) rotate(0) translate(4 35)">
<title>nlohmann::detail::dtoa_impl::grisu2_round</title>
<polygon fill="#ffffff" stroke="transparent" points="-4,4 -4,-35 725,-35 725,4 -4,4"/>
<!-- Node17 -->
<g id="node1" class="node">
<title>Node17</title>
<polygon fill="#bfbfbf" stroke="#000000" points="0,-.5 0,-30.5 113,-30.5 113,-.5 0,-.5"/>
<text text-anchor="start" x="8" y="-18.5" font-family="Helvetica,sans-Serif" font-size="10.00" fill="#000000">nlohmann::detail::dtoa</text>
<text text-anchor="middle" x="56.5" y="-7.5" font-family="Helvetica,sans-Serif" font-size="10.00" fill="#000000">_impl::grisu2_round</text>
</g>
<!-- Node18 -->
<g id="node2" class="node">
<title>Node18</title>
<g id="a_node2"><a xlink:href="namespacenlohmann_1_1detail_1_1dtoa__impl.html#a9b899c72b0e1e3dd46d75c2b4e6bcdfb" target="_top" xlink:title="nlohmann::detail::dtoa\l_impl::grisu2_digit_gen">
<polygon fill="#ffffff" stroke="#000000" points="149,-.5 149,-30.5 265,-30.5 265,-.5 149,-.5"/>
<text text-anchor="start" x="157" y="-18.5" font-family="Helvetica,sans-Serif" font-size="10.00" fill="#000000">nlohmann::detail::dtoa</text>
<text text-anchor="middle" x="207" y="-7.5" font-family="Helvetica,sans-Serif" font-size="10.00" fill="#000000">_impl::grisu2_digit_gen</text>
</a>
</g>
</g>
<!-- Node17&#45;&gt;Node18 -->
<g id="edge1" class="edge">
<title>Node17&#45;&gt;Node18</title>
<path fill="none" stroke="#191970" d="M123.5571,-15.5C131.9658,-15.5 140.5126,-15.5 148.7707,-15.5"/>
<polygon fill="#191970" stroke="#191970" points="123.3976,-12.0001 113.3976,-15.5 123.3976,-19.0001 123.3976,-12.0001"/>
</g>
<!-- Node19 -->
<g id="node3" class="node">
<title>Node19</title>
<g id="a_node3"><a xlink:href="namespacenlohmann_1_1detail_1_1dtoa__impl.html#a05b681dcb8569b9784c6dccfadb01633" target="_top" xlink:title="nlohmann::detail::dtoa\l_impl::grisu2">
<polygon fill="#ffffff" stroke="#000000" points="301,-.5 301,-30.5 414,-30.5 414,-.5 301,-.5"/>
<text text-anchor="start" x="309" y="-18.5" font-family="Helvetica,sans-Serif" font-size="10.00" fill="#000000">nlohmann::detail::dtoa</text>
<text text-anchor="middle" x="357.5" y="-7.5" font-family="Helvetica,sans-Serif" font-size="10.00" fill="#000000">_impl::grisu2</text>
</a>
</g>
</g>
<!-- Node18&#45;&gt;Node19 -->
<g id="edge2" class="edge">
<title>Node18&#45;&gt;Node19</title>
<path fill="none" stroke="#191970" d="M275.2093,-15.5C283.8184,-15.5 292.5515,-15.5 300.9525,-15.5"/>
<polygon fill="#191970" stroke="#191970" points="275.1873,-12.0001 265.1872,-15.5 275.1872,-19.0001 275.1873,-12.0001"/>
</g>
<!-- Node20 -->
<g id="node4" class="node">
<title>Node20</title>
<g id="a_node4"><a xlink:href="namespacenlohmann_1_1detail.html#a18759c536d89c4dd3a118bd3ecb790da" target="_top" xlink:title="generates a decimal representation of the floating&#45;point number value in [first, last). ">
<polygon fill="#ffffff" stroke="#000000" points="450,-.5 450,-30.5 552,-30.5 552,-.5 450,-.5"/>
<text text-anchor="start" x="458" y="-18.5" font-family="Helvetica,sans-Serif" font-size="10.00" fill="#000000">nlohmann::detail::to</text>
<text text-anchor="middle" x="501" y="-7.5" font-family="Helvetica,sans-Serif" font-size="10.00" fill="#000000">_chars</text>
</a>
</g>
</g>
<!-- Node19&#45;&gt;Node20 -->
<g id="edge3" class="edge">
<title>Node19&#45;&gt;Node20</title>
<path fill="none" stroke="#191970" d="M424.234,-15.5C432.8318,-15.5 441.5261,-15.5 449.8199,-15.5"/>
<polygon fill="#191970" stroke="#191970" points="424.215,-12.0001 414.215,-15.5 424.215,-19.0001 424.215,-12.0001"/>
</g>
<!-- Node21 -->
<g id="node5" class="node">
<title>Node21</title>
<g id="a_node5"><a xlink:href="classnlohmann_1_1detail_1_1serializer.html#a24b0fe45dc774441237bde198a133d8a" target="_top" xlink:title="nlohmann::detail::serializer\l::dump_float">
<polygon fill="#ffffff" stroke="#000000" points="588,-.5 588,-30.5 721,-30.5 721,-.5 588,-.5"/>
<text text-anchor="start" x="596" y="-18.5" font-family="Helvetica,sans-Serif" font-size="10.00" fill="#000000">nlohmann::detail::serializer</text>
<text text-anchor="middle" x="654.5" y="-7.5" font-family="Helvetica,sans-Serif" font-size="10.00" fill="#000000">::dump_float</text>
</a>
</g>
</g>
<!-- Node20&#45;&gt;Node21 -->
<g id="edge4" class="edge">
<title>Node20&#45;&gt;Node21</title>
<path fill="none" stroke="#191970" d="M562.2068,-15.5C570.6108,-15.5 579.2742,-15.5 587.7709,-15.5"/>
<polygon fill="#191970" stroke="#191970" points="562.1133,-12.0001 552.1133,-15.5 562.1132,-19.0001 562.1133,-12.0001"/>
</g>
</g>
</svg>
