<?xml version="1.0" encoding="UTF-8" standalone="no"?>
<!DOCTYPE svg PUBLIC "-//W3C//DTD SVG 1.1//EN"
 "http://www.w3.org/Graphics/SVG/1.1/DTD/svg11.dtd">
<!-- Generated by graphviz version 2.40.1 (20161225.0304)
 -->
<!-- Title: River::SimpleGeo::CustomRiverTree Pages: 1 -->
<svg width="1002pt" height="66pt"
 viewBox="0.00 0.00 1002.00 66.00" xmlns="http://www.w3.org/2000/svg" xmlns:xlink="http://www.w3.org/1999/xlink">
<g id="graph0" class="graph" transform="scale(1 1) rotate(0) translate(4 62)">
<title>River::SimpleGeo::CustomRiverTree</title>
<polygon fill="#ffffff" stroke="transparent" points="-4,4 -4,-62 998,-62 998,4 -4,4"/>
<!-- Node10 -->
<g id="node1" class="node">
<title>Node10</title>
<polygon fill="#bfbfbf" stroke="#000000" points="0,-14 0,-44 134,-44 134,-14 0,-14"/>
<text text-anchor="start" x="8" y="-32" font-family="Helvetica,sans-Serif" font-size="10.00" fill="#000000">River::SimpleGeo::Custom</text>
<text text-anchor="middle" x="67" y="-21" font-family="Helvetica,sans-Serif" font-size="10.00" fill="#000000">RiverTree</text>
</g>
<!-- Node11 -->
<g id="node2" class="node">
<title>Node11</title>
<g id="a_node2"><a xlink:href="namespaceRiver_1_1SimpleGeo.html#aaeaf0931007ed0bb3f04ffe517b90708" target="_top" xlink:title="River::SimpleGeo::AddBranches">
<polygon fill="#ffffff" stroke="#000000" points="170,-19.5 170,-38.5 328,-38.5 328,-19.5 170,-19.5"/>
<text text-anchor="middle" x="249" y="-26.5" font-family="Helvetica,sans-Serif" font-size="10.00" fill="#000000">River::SimpleGeo::AddBranches</text>
</a>
</g>
</g>
<!-- Node10&#45;&gt;Node11 -->
<g id="edge1" class="edge">
<title>Node10&#45;&gt;Node11</title>
<path fill="none" stroke="#191970" d="M134.253,-29C142.55,-29 151.1301,-29 159.6903,-29"/>
<polygon fill="#191970" stroke="#191970" points="159.712,-32.5001 169.7119,-29 159.7119,-25.5001 159.712,-32.5001"/>
</g>
<!-- Node12 -->
<g id="node3" class="node">
<title>Node12</title>
<g id="a_node3"><a xlink:href="classRiver_1_1Geometry.html#a19cefb054be17b7c1df84fd7ce69442a" target="_top" xlink:title="River::Geometry::addPolar">
<polygon fill="#ffffff" stroke="#000000" points="378,-38.5 378,-57.5 511,-57.5 511,-38.5 378,-38.5"/>
<text text-anchor="middle" x="444.5" y="-45.5" font-family="Helvetica,sans-Serif" font-size="10.00" fill="#000000">River::Geometry::addPolar</text>
</a>
</g>
</g>
<!-- Node11&#45;&gt;Node12 -->
<g id="edge2" class="edge">
<title>Node11&#45;&gt;Node12</title>
<path fill="none" stroke="#191970" d="M328.2355,-36.7006C341.2642,-37.9669 354.7484,-39.2773 367.7161,-40.5376"/>
<polygon fill="#191970" stroke="#191970" points="367.6948,-44.052 377.9865,-41.5358 368.372,-37.0848 367.6948,-44.052"/>
</g>
<!-- Node13 -->
<g id="node4" class="node">
<title>Node13</title>
<g id="a_node4"><a xlink:href="classRiver_1_1Geometry.html#a2e00a634a0e948570540a2ab47335478" target="_top" xlink:title="River::Geometry::AddBiffurcation">
<polygon fill="#ffffff" stroke="#000000" points="364,-.5 364,-19.5 525,-19.5 525,-.5 364,-.5"/>
<text text-anchor="middle" x="444.5" y="-7.5" font-family="Helvetica,sans-Serif" font-size="10.00" fill="#000000">River::Geometry::AddBiffurcation</text>
</a>
</g>
</g>
<!-- Node11&#45;&gt;Node13 -->
<g id="edge3" class="edge">
<title>Node11&#45;&gt;Node13</title>
<path fill="none" stroke="#191970" d="M328.2355,-21.2994C336.6799,-20.4787 345.3156,-19.6394 353.8779,-18.8073"/>
<polygon fill="#191970" stroke="#191970" points="354.2654,-22.2862 363.8799,-17.8352 353.5882,-15.319 354.2654,-22.2862"/>
</g>
<!-- Node14 -->
<g id="node5" class="node">
<title>Node14</title>
<g id="a_node5"><a xlink:href="classRiver_1_1Branch.html#ac530394680fc8ab073033352f251fe17" target="_top" xlink:title="River::Branch::Branch">
<polygon fill="#ffffff" stroke="#000000" points="561,-.5 561,-19.5 674,-19.5 674,-.5 561,-.5"/>
<text text-anchor="middle" x="617.5" y="-7.5" font-family="Helvetica,sans-Serif" font-size="10.00" fill="#000000">River::Branch::Branch</text>
</a>
</g>
</g>
<!-- Node13&#45;&gt;Node14 -->
<g id="edge4" class="edge">
<title>Node13&#45;&gt;Node14</title>
<path fill="none" stroke="#191970" d="M525.1753,-10C533.6924,-10 542.2852,-10 550.6213,-10"/>
<polygon fill="#191970" stroke="#191970" points="550.64,-13.5001 560.6399,-10 550.6399,-6.5001 550.64,-13.5001"/>
</g>
<!-- Node15 -->
<g id="node6" class="node">
<title>Node15</title>
<g id="a_node6"><a xlink:href="classRiver_1_1Branch.html#a67e24ea2b1f521a1af4193fb7a9c0bed" target="_top" xlink:title="River::Branch::splitPoint">
<polygon fill="#ffffff" stroke="#000000" points="710,-.5 710,-19.5 833,-19.5 833,-.5 710,-.5"/>
<text text-anchor="middle" x="771.5" y="-7.5" font-family="Helvetica,sans-Serif" font-size="10.00" fill="#000000">River::Branch::splitPoint</text>
</a>
</g>
</g>
<!-- Node14&#45;&gt;Node15 -->
<g id="edge5" class="edge">
<title>Node14&#45;&gt;Node15</title>
<path fill="none" stroke="#191970" d="M674.4064,-10C682.6298,-10 691.1819,-10 699.6506,-10"/>
<polygon fill="#191970" stroke="#191970" points="699.9115,-13.5001 709.9115,-10 699.9115,-6.5001 699.9115,-13.5001"/>
</g>
<!-- Node16 -->
<g id="node7" class="node">
<title>Node16</title>
<g id="a_node7"><a xlink:href="classRiver_1_1GeomPoint.html#a8a4dd9e43fc222c4276c67bc258812ec" target="_top" xlink:title="River::GeomPoint::rotate">
<polygon fill="#ffffff" stroke="#000000" points="869,-.5 869,-19.5 994,-19.5 994,-.5 869,-.5"/>
<text text-anchor="middle" x="931.5" y="-7.5" font-family="Helvetica,sans-Serif" font-size="10.00" fill="#000000">River::GeomPoint::rotate</text>
</a>
</g>
</g>
<!-- Node15&#45;&gt;Node16 -->
<g id="edge6" class="edge">
<title>Node15&#45;&gt;Node16</title>
<path fill="none" stroke="#191970" d="M833.3602,-10C841.6126,-10 850.1368,-10 858.556,-10"/>
<polygon fill="#191970" stroke="#191970" points="858.7481,-13.5001 868.7481,-10 858.748,-6.5001 858.7481,-13.5001"/>
</g>
</g>
</svg>
