<?xml version="1.0" encoding="UTF-8" standalone="no"?>
<!DOCTYPE svg PUBLIC "-//W3C//DTD SVG 1.1//EN"
 "http://www.w3.org/Graphics/SVG/1.1/DTD/svg11.dtd">
<!-- Generated by graphviz version 2.40.1 (20161225.0304)
 -->
<!-- Title: nlohmann::detail::to_json Pages: 1 -->
<svg width="291pt" height="88pt"
 viewBox="0.00 0.00 291.00 88.00" xmlns="http://www.w3.org/2000/svg" xmlns:xlink="http://www.w3.org/1999/xlink">
<g id="graph0" class="graph" transform="scale(1 1) rotate(0) translate(4 84)">
<title>nlohmann::detail::to_json</title>
<polygon fill="#ffffff" stroke="transparent" points="-4,4 -4,-84 287,-84 287,4 -4,4"/>
<!-- Node152 -->
<g id="node1" class="node">
<title>Node152</title>
<polygon fill="#bfbfbf" stroke="#000000" points="0,-30 0,-49 125,-49 125,-30 0,-30"/>
<text text-anchor="middle" x="62.5" y="-37" font-family="Helvetica,sans-Serif" font-size="10.00" fill="#000000">nlohmann::detail::to_json</text>
</g>
<!-- Node153 -->
<g id="node2" class="node">
<title>Node153</title>
<g id="a_node2"><a xlink:href="structnlohmann_1_1adl__serializer.html#a01b867bd5dce5249d4f7433b8f27def6" target="_top" xlink:title="convert any value type to a JSON value ">
<polygon fill="#ffffff" stroke="#000000" points="161,-49.5 161,-79.5 283,-79.5 283,-49.5 161,-49.5"/>
<text text-anchor="start" x="169" y="-67.5" font-family="Helvetica,sans-Serif" font-size="10.00" fill="#000000">nlohmann::adl_serializer</text>
<text text-anchor="middle" x="222" y="-56.5" font-family="Helvetica,sans-Serif" font-size="10.00" fill="#000000">::to_json</text>
</a>
</g>
</g>
<!-- Node152&#45;&gt;Node153 -->
<g id="edge1" class="edge">
<title>Node152&#45;&gt;Node153</title>
<path fill="none" stroke="#191970" d="M133.1889,-50.5798C142.4249,-52.0274 151.8251,-53.5008 160.8854,-54.9209"/>
<polygon fill="#191970" stroke="#191970" points="133.6765,-47.1135 123.2551,-49.0227 132.5925,-54.0291 133.6765,-47.1135"/>
</g>
<!-- Node154 -->
<g id="node3" class="node">
<title>Node154</title>
<g id="a_node3"><a xlink:href="classnlohmann_1_1basic__json.html#a5a6558bfd1be139a638f91f0e09fc737" target="_top" xlink:title="create a JSON value ">
<polygon fill="#ffffff" stroke="#000000" points="166.5,-.5 166.5,-30.5 277.5,-30.5 277.5,-.5 166.5,-.5"/>
<text text-anchor="start" x="174.5" y="-18.5" font-family="Helvetica,sans-Serif" font-size="10.00" fill="#000000">nlohmann::basic_json</text>
<text text-anchor="middle" x="222" y="-7.5" font-family="Helvetica,sans-Serif" font-size="10.00" fill="#000000">::basic_json</text>
</a>
</g>
</g>
<!-- Node152&#45;&gt;Node154 -->
<g id="edge2" class="edge">
<title>Node152&#45;&gt;Node154</title>
<path fill="none" stroke="#191970" d="M135.0722,-28.58C145.5719,-27.0002 156.2388,-25.3951 166.3371,-23.8756"/>
<polygon fill="#191970" stroke="#191970" points="134.4487,-25.1344 125.0808,-30.0834 135.4903,-32.0564 134.4487,-25.1344"/>
</g>
</g>
</svg>
