<?xml version="1.0" encoding="UTF-8" standalone="no"?>
<!DOCTYPE svg PUBLIC "-//W3C//DTD SVG 1.1//EN"
 "http://www.w3.org/Graphics/SVG/1.1/DTD/svg11.dtd">
<!-- Generated by graphviz version 2.40.1 (20161225.0304)
 -->
<!-- Title: River::AppendTreeToMesh Pages: 1 -->
<svg width="382pt" height="28pt"
 viewBox="0.00 0.00 382.00 28.00" xmlns="http://www.w3.org/2000/svg" xmlns:xlink="http://www.w3.org/1999/xlink">
<g id="graph0" class="graph" transform="scale(1 1) rotate(0) translate(4 24)">
<title>River::AppendTreeToMesh</title>
<polygon fill="#ffffff" stroke="transparent" points="-4,4 -4,-24 378,-24 378,4 -4,4"/>
<!-- Node26 -->
<g id="node1" class="node">
<title>Node26</title>
<polygon fill="#bfbfbf" stroke="#000000" points="0,-.5 0,-19.5 134,-19.5 134,-.5 0,-.5"/>
<text text-anchor="middle" x="67" y="-7.5" font-family="Helvetica,sans-Serif" font-size="10.00" fill="#000000">River::AppendTreeToMesh</text>
</g>
<!-- Node27 -->
<g id="node2" class="node">
<title>Node27</title>
<g id="a_node2"><a xlink:href="namespaceRiver.html#aa226e8aa15b4b21c82a2ea177e1faee6" target="_top" xlink:title="Finnal Boudary Geneartor Class. ">
<polygon fill="#ffffff" stroke="#000000" points="170,-.5 170,-19.5 300,-19.5 300,-.5 170,-.5"/>
<text text-anchor="middle" x="235" y="-7.5" font-family="Helvetica,sans-Serif" font-size="10.00" fill="#000000">River::BoundaryGenerator</text>
</a>
</g>
</g>
<!-- Node26&#45;&gt;Node27 -->
<g id="edge1" class="edge">
<title>Node26&#45;&gt;Node27</title>
<path fill="none" stroke="#191970" d="M144.586,-10C153.0203,-10 161.5413,-10 169.8064,-10"/>
<polygon fill="#191970" stroke="#191970" points="144.3641,-6.5001 134.364,-10 144.364,-13.5001 144.3641,-6.5001"/>
</g>
<!-- Node28 -->
<g id="node3" class="node">
<title>Node28</title>
<g id="a_node3"><a xlink:href="main_8cpp.html#a0ddf1224851353fc92bfbff6f499fa97" target="_top" xlink:title="Entry point of RiverSim program. ">
<polygon fill="#ffffff" stroke="#000000" points="336,-.5 336,-19.5 374,-19.5 374,-.5 336,-.5"/>
<text text-anchor="middle" x="355" y="-7.5" font-family="Helvetica,sans-Serif" font-size="10.00" fill="#000000">main</text>
</a>
</g>
</g>
<!-- Node27&#45;&gt;Node28 -->
<g id="edge2" class="edge">
<title>Node27&#45;&gt;Node28</title>
<path fill="none" stroke="#191970" d="M310.2762,-10C319.7335,-10 328.6483,-10 335.9929,-10"/>
<polygon fill="#191970" stroke="#191970" points="310.2674,-6.5001 300.2674,-10 310.2674,-13.5001 310.2674,-6.5001"/>
</g>
</g>
</svg>
