<?xml version="1.0" encoding="UTF-8" standalone="no"?>
<!DOCTYPE svg PUBLIC "-//W3C//DTD SVG 1.1//EN"
 "http://www.w3.org/Graphics/SVG/1.1/DTD/svg11.dtd">
<!-- Generated by graphviz version 2.40.1 (20161225.0304)
 -->
<!-- Title: nlohmann::detail::from_json_array_impl Pages: 1 -->
<svg width="573pt" height="88pt"
 viewBox="0.00 0.00 573.00 88.00" xmlns="http://www.w3.org/2000/svg" xmlns:xlink="http://www.w3.org/1999/xlink">
<g id="graph0" class="graph" transform="scale(1 1) rotate(0) translate(4 84)">
<title>nlohmann::detail::from_json_array_impl</title>
<polygon fill="#ffffff" stroke="transparent" points="-4,4 -4,-84 569,-84 569,4 -4,4"/>
<!-- Node57 -->
<g id="node1" class="node">
<title>Node57</title>
<polygon fill="#bfbfbf" stroke="#000000" points="0,-24.5 0,-54.5 113,-54.5 113,-24.5 0,-24.5"/>
<text text-anchor="start" x="8" y="-42.5" font-family="Helvetica,sans-Serif" font-size="10.00" fill="#000000">nlohmann::detail::from</text>
<text text-anchor="middle" x="56.5" y="-31.5" font-family="Helvetica,sans-Serif" font-size="10.00" fill="#000000">_json_array_impl</text>
</g>
<!-- Node58 -->
<g id="node2" class="node">
<title>Node58</title>
<g id="a_node2"><a xlink:href="namespacenlohmann_1_1detail.html#a59fca69799f6b9e366710cb9043aa77d" target="_top" xlink:title="nlohmann::detail::void">
<polygon fill="#ffffff" stroke="#000000" points="149,-30 149,-49 261,-49 261,-30 149,-30"/>
<text text-anchor="middle" x="205" y="-37" font-family="Helvetica,sans-Serif" font-size="10.00" fill="#000000">nlohmann::detail::void</text>
</a>
</g>
</g>
<!-- Node57&#45;&gt;Node58 -->
<g id="edge1" class="edge">
<title>Node57&#45;&gt;Node58</title>
<path fill="none" stroke="#191970" d="M123.2828,-39.5C131.7369,-39.5 140.3215,-39.5 148.5922,-39.5"/>
<polygon fill="#191970" stroke="#191970" points="123.0651,-36.0001 113.0651,-39.5 123.0651,-43.0001 123.0651,-36.0001"/>
</g>
<!-- Node59 -->
<g id="node3" class="node">
<title>Node59</title>
<g id="a_node3"><a xlink:href="classnlohmann_1_1detail_1_1binary__reader.html#aed84f0302eb232d3b69f7653bef2337a" target="_top" xlink:title="create a binary reader ">
<polygon fill="#ffffff" stroke="#000000" points="297.5,-49.5 297.5,-79.5 417.5,-79.5 417.5,-49.5 297.5,-49.5"/>
<text text-anchor="start" x="305.5" y="-67.5" font-family="Helvetica,sans-Serif" font-size="10.00" fill="#000000">nlohmann::detail::binary</text>
<text text-anchor="middle" x="357.5" y="-56.5" font-family="Helvetica,sans-Serif" font-size="10.00" fill="#000000">_reader::binary_reader</text>
</a>
</g>
</g>
<!-- Node58&#45;&gt;Node59 -->
<g id="edge2" class="edge">
<title>Node58&#45;&gt;Node59</title>
<path fill="none" stroke="#191970" d="M271.3642,-50.3794C279.983,-51.7923 288.7733,-53.2333 297.2844,-54.6286"/>
<polygon fill="#191970" stroke="#191970" points="271.7866,-46.902 261.3521,-48.738 270.6541,-53.8098 271.7866,-46.902"/>
</g>
<!-- Node60 -->
<g id="node4" class="node">
<title>Node60</title>
<g id="a_node4"><a xlink:href="classnlohmann_1_1detail_1_1parser.html#a14e34931965064b26e118eb72cbd5e25" target="_top" xlink:title="nlohmann::detail::parser\l::sax_parse">
<polygon fill="#ffffff" stroke="#000000" points="297,-.5 297,-30.5 418,-30.5 418,-.5 297,-.5"/>
<text text-anchor="start" x="305" y="-18.5" font-family="Helvetica,sans-Serif" font-size="10.00" fill="#000000">nlohmann::detail::parser</text>
<text text-anchor="middle" x="357.5" y="-7.5" font-family="Helvetica,sans-Serif" font-size="10.00" fill="#000000">::sax_parse</text>
</a>
</g>
</g>
<!-- Node58&#45;&gt;Node60 -->
<g id="edge3" class="edge">
<title>Node58&#45;&gt;Node60</title>
<path fill="none" stroke="#191970" d="M271.4945,-29.0353C279.8978,-27.7128 288.4618,-26.365 296.7692,-25.0576"/>
<polygon fill="#191970" stroke="#191970" points="270.6864,-25.6193 261.3521,-30.6315 271.7747,-32.5342 270.6864,-25.6193"/>
</g>
<!-- Node61 -->
<g id="node5" class="node">
<title>Node61</title>
<g id="a_node5"><a xlink:href="classnlohmann_1_1basic__json.html#a8a3dd150c2d1f0df3502d937de0871db" target="_top" xlink:title="generate SAX events ">
<polygon fill="#ffffff" stroke="#000000" points="454,-.5 454,-30.5 565,-30.5 565,-.5 454,-.5"/>
<text text-anchor="start" x="462" y="-18.5" font-family="Helvetica,sans-Serif" font-size="10.00" fill="#000000">nlohmann::basic_json</text>
<text text-anchor="middle" x="509.5" y="-7.5" font-family="Helvetica,sans-Serif" font-size="10.00" fill="#000000">::sax_parse</text>
</a>
</g>
</g>
<!-- Node60&#45;&gt;Node61 -->
<g id="edge4" class="edge">
<title>Node60&#45;&gt;Node61</title>
<path fill="none" stroke="#191970" d="M428.0264,-15.5C436.6171,-15.5 445.3015,-15.5 453.6376,-15.5"/>
<polygon fill="#191970" stroke="#191970" points="428.0112,-12.0001 418.0112,-15.5 428.0111,-19.0001 428.0112,-12.0001"/>
</g>
</g>
</svg>
