<?xml version="1.0" encoding="UTF-8" standalone="no"?>
<!DOCTYPE svg PUBLIC "-//W3C//DTD SVG 1.1//EN"
 "http://www.w3.org/Graphics/SVG/1.1/DTD/svg11.dtd">
<!-- Generated by graphviz version 2.40.1 (20161225.0304)
 -->
<!-- Title: nlohmann::detail::to_json_tuple_impl Pages: 1 -->
<svg width="429pt" height="88pt"
 viewBox="0.00 0.00 429.00 88.00" xmlns="http://www.w3.org/2000/svg" xmlns:xlink="http://www.w3.org/1999/xlink">
<g id="graph0" class="graph" transform="scale(1 1) rotate(0) translate(4 84)">
<title>nlohmann::detail::to_json_tuple_impl</title>
<polygon fill="#ffffff" stroke="transparent" points="-4,4 -4,-84 425,-84 425,4 -4,4"/>
<!-- Node146 -->
<g id="node1" class="node">
<title>Node146</title>
<polygon fill="#bfbfbf" stroke="#000000" points="0,-24.5 0,-54.5 102,-54.5 102,-24.5 0,-24.5"/>
<text text-anchor="start" x="8" y="-42.5" font-family="Helvetica,sans-Serif" font-size="10.00" fill="#000000">nlohmann::detail::to</text>
<text text-anchor="middle" x="51" y="-31.5" font-family="Helvetica,sans-Serif" font-size="10.00" fill="#000000">_json_tuple_impl</text>
</g>
<!-- Node147 -->
<g id="node2" class="node">
<title>Node147</title>
<g id="a_node2"><a xlink:href="namespacenlohmann_1_1detail.html#aa7a47b08eee864c2c108c04954919648" target="_top" xlink:title="nlohmann::detail::to_json">
<polygon fill="#ffffff" stroke="#000000" points="138,-30 138,-49 263,-49 263,-30 138,-30"/>
<text text-anchor="middle" x="200.5" y="-37" font-family="Helvetica,sans-Serif" font-size="10.00" fill="#000000">nlohmann::detail::to_json</text>
</a>
</g>
</g>
<!-- Node146&#45;&gt;Node147 -->
<g id="edge1" class="edge">
<title>Node146&#45;&gt;Node147</title>
<path fill="none" stroke="#191970" d="M112.1866,-39.5C120.6343,-39.5 129.3211,-39.5 137.7957,-39.5"/>
<polygon fill="#191970" stroke="#191970" points="112.0313,-36.0001 102.0313,-39.5 112.0312,-43.0001 112.0313,-36.0001"/>
</g>
<!-- Node148 -->
<g id="node3" class="node">
<title>Node148</title>
<g id="a_node3"><a xlink:href="structnlohmann_1_1adl__serializer.html#a01b867bd5dce5249d4f7433b8f27def6" target="_top" xlink:title="convert any value type to a JSON value ">
<polygon fill="#ffffff" stroke="#000000" points="299,-49.5 299,-79.5 421,-79.5 421,-49.5 299,-49.5"/>
<text text-anchor="start" x="307" y="-67.5" font-family="Helvetica,sans-Serif" font-size="10.00" fill="#000000">nlohmann::adl_serializer</text>
<text text-anchor="middle" x="360" y="-56.5" font-family="Helvetica,sans-Serif" font-size="10.00" fill="#000000">::to_json</text>
</a>
</g>
</g>
<!-- Node147&#45;&gt;Node148 -->
<g id="edge2" class="edge">
<title>Node147&#45;&gt;Node148</title>
<path fill="none" stroke="#191970" d="M271.1889,-50.5798C280.4249,-52.0274 289.8251,-53.5008 298.8854,-54.9209"/>
<polygon fill="#191970" stroke="#191970" points="271.6765,-47.1135 261.2551,-49.0227 270.5925,-54.0291 271.6765,-47.1135"/>
</g>
<!-- Node149 -->
<g id="node4" class="node">
<title>Node149</title>
<g id="a_node4"><a xlink:href="classnlohmann_1_1basic__json.html#a5a6558bfd1be139a638f91f0e09fc737" target="_top" xlink:title="create a JSON value ">
<polygon fill="#ffffff" stroke="#000000" points="304.5,-.5 304.5,-30.5 415.5,-30.5 415.5,-.5 304.5,-.5"/>
<text text-anchor="start" x="312.5" y="-18.5" font-family="Helvetica,sans-Serif" font-size="10.00" fill="#000000">nlohmann::basic_json</text>
<text text-anchor="middle" x="360" y="-7.5" font-family="Helvetica,sans-Serif" font-size="10.00" fill="#000000">::basic_json</text>
</a>
</g>
</g>
<!-- Node147&#45;&gt;Node149 -->
<g id="edge3" class="edge">
<title>Node147&#45;&gt;Node149</title>
<path fill="none" stroke="#191970" d="M273.0722,-28.58C283.5719,-27.0002 294.2388,-25.3951 304.3371,-23.8756"/>
<polygon fill="#191970" stroke="#191970" points="272.4487,-25.1344 263.0808,-30.0834 273.4903,-32.0564 272.4487,-25.1344"/>
</g>
</g>
</svg>
