<?xml version="1.0" encoding="UTF-8" standalone="no"?>
<!DOCTYPE svg PUBLIC "-//W3C//DTD SVG 1.1//EN"
 "http://www.w3.org/Graphics/SVG/1.1/DTD/svg11.dtd">
<!-- Generated by graphviz version 2.40.1 (20161225.0304)
 -->
<!-- Title: physmodel.hpp Pages: 1 -->
<svg width="290pt" height="196pt"
 viewBox="0.00 0.00 290.16 196.00" xmlns="http://www.w3.org/2000/svg" xmlns:xlink="http://www.w3.org/1999/xlink">
<g id="graph0" class="graph" transform="scale(1 1) rotate(0) translate(4 192)">
<title>physmodel.hpp</title>
<polygon fill="#ffffff" stroke="transparent" points="-4,4 -4,-192 286.162,-192 286.162,4 -4,4"/>
<!-- Node2 -->
<g id="node1" class="node">
<title>Node2</title>
<polygon fill="#bfbfbf" stroke="#000000" points="66.662,-168.5 66.662,-187.5 158.662,-187.5 158.662,-168.5 66.662,-168.5"/>
<text text-anchor="middle" x="112.662" y="-175.5" font-family="Helvetica,sans-Serif" font-size="10.00" fill="#000000">physmodel.hpp</text>
</g>
<!-- Node3 -->
<g id="node2" class="node">
<title>Node3</title>
<g id="a_node2"><a xlink:href="io_8hpp.html" target="_top" xlink:title="Contains functionality to read and write state of program(simulation data) and program options...">
<polygon fill="#ffffff" stroke="#000000" points="11.162,-56.5 11.162,-75.5 58.162,-75.5 58.162,-56.5 11.162,-56.5"/>
<text text-anchor="middle" x="34.662" y="-63.5" font-family="Helvetica,sans-Serif" font-size="10.00" fill="#000000">io.hpp</text>
</a>
</g>
</g>
<!-- Node2&#45;&gt;Node3 -->
<g id="edge1" class="edge">
<title>Node2&#45;&gt;Node3</title>
<path fill="none" stroke="#191970" d="M71.6401,-164.1141C56.9815,-156.9429 42.0325,-146.5601 33.662,-132 23.4956,-114.3159 27.9503,-89.3154 31.6087,-75.7225"/>
<polygon fill="#191970" stroke="#191970" points="70.6015,-167.4838 81.1588,-168.3744 73.4612,-161.0945 70.6015,-167.4838"/>
</g>
<!-- Node4 -->
<g id="node3" class="node">
<title>Node4</title>
<g id="a_node3"><a xlink:href="riversim_8hpp.html" target="_top" xlink:title="Some general routines like backward, forward simulation etc. ">
<polygon fill="#ffffff" stroke="#000000" points="47.662,-.5 47.662,-19.5 125.662,-19.5 125.662,-.5 47.662,-.5"/>
<text text-anchor="middle" x="86.662" y="-7.5" font-family="Helvetica,sans-Serif" font-size="10.00" fill="#000000">riversim.hpp</text>
</a>
</g>
</g>
<!-- Node2&#45;&gt;Node4 -->
<g id="edge12" class="edge">
<title>Node2&#45;&gt;Node4</title>
<path fill="none" stroke="#191970" d="M72.1484,-164.5381C55.256,-157.193 36.6004,-146.5668 23.662,-132 6.0099,-112.1262 7.4048,-102.1548 2.662,-76 1.076,-67.2537 -1.869,-63.6473 2.662,-56 13.3412,-37.9764 33.8569,-26.5513 51.9393,-19.5956"/>
<polygon fill="#191970" stroke="#191970" points="71.2529,-167.9528 81.8341,-168.4887 73.8966,-161.4712 71.2529,-167.9528"/>
</g>
<!-- Node5 -->
<g id="node4" class="node">
<title>Node5</title>
<g id="a_node4"><a xlink:href="tree_8hpp.html" target="_top" xlink:title="Holds all functionality that you need to work with tree(network) of river, its separate branches and ...">
<polygon fill="#ffffff" stroke="#000000" points="42.162,-112.5 42.162,-131.5 99.162,-131.5 99.162,-112.5 42.162,-112.5"/>
<text text-anchor="middle" x="70.662" y="-119.5" font-family="Helvetica,sans-Serif" font-size="10.00" fill="#000000">tree.hpp</text>
</a>
</g>
</g>
<!-- Node2&#45;&gt;Node5 -->
<g id="edge3" class="edge">
<title>Node2&#45;&gt;Node5</title>
<path fill="none" stroke="#191970" d="M99.3205,-160.2112C92.2224,-150.7472 83.7718,-139.4797 77.8941,-131.6427"/>
<polygon fill="#191970" stroke="#191970" points="96.5462,-162.3455 105.3462,-168.2455 102.1462,-158.1455 96.5462,-162.3455"/>
</g>
<!-- Node6 -->
<g id="node5" class="node">
<title>Node6</title>
<g id="a_node5"><a xlink:href="triangle_8hpp.html" target="_top" xlink:title="Piece of Art Mesh Generation Tool, Winner of the 2003 James Hardy Wilkinson Prize in Numerical Softwa...">
<polygon fill="#ffffff" stroke="#000000" points="117.162,-112.5 117.162,-131.5 192.162,-131.5 192.162,-112.5 117.162,-112.5"/>
<text text-anchor="middle" x="154.662" y="-119.5" font-family="Helvetica,sans-Serif" font-size="10.00" fill="#000000">triangle.hpp</text>
</a>
</g>
</g>
<!-- Node2&#45;&gt;Node6 -->
<g id="edge6" class="edge">
<title>Node2&#45;&gt;Node6</title>
<path fill="none" stroke="#191970" d="M126.0036,-160.2112C133.1017,-150.7472 141.5523,-139.4797 147.43,-131.6427"/>
<polygon fill="#191970" stroke="#191970" points="123.1779,-158.1455 119.9779,-168.2455 128.7779,-162.3455 123.1779,-158.1455"/>
</g>
<!-- Node7 -->
<g id="node6" class="node">
<title>Node7</title>
<g id="a_node6"><a xlink:href="mesh_8hpp.html" target="_top" xlink:title="Mesh generation functionality. ">
<polygon fill="#ffffff" stroke="#000000" points="122.162,-56.5 122.162,-75.5 187.162,-75.5 187.162,-56.5 122.162,-56.5"/>
<text text-anchor="middle" x="154.662" y="-63.5" font-family="Helvetica,sans-Serif" font-size="10.00" fill="#000000">mesh.hpp</text>
</a>
</g>
</g>
<!-- Node2&#45;&gt;Node7 -->
<g id="edge9" class="edge">
<title>Node2&#45;&gt;Node7</title>
<path fill="none" stroke="#191970" d="M160.1344,-164.7081C176.1755,-157.7009 192.3621,-147.2754 201.662,-132 214.3902,-111.0936 188.1032,-88.1165 169.9572,-75.5418"/>
<polygon fill="#191970" stroke="#191970" points="158.7499,-161.4922 150.7596,-168.4497 161.3447,-167.9935 158.7499,-161.4922"/>
</g>
<!-- Node8 -->
<g id="node7" class="node">
<title>Node8</title>
<g id="a_node7"><a xlink:href="solver_8hpp.html" target="_top" xlink:title="PDE Solver and Integration tool. ">
<polygon fill="#ffffff" stroke="#000000" points="215.162,-56.5 215.162,-75.5 282.162,-75.5 282.162,-56.5 215.162,-56.5"/>
<text text-anchor="middle" x="248.662" y="-63.5" font-family="Helvetica,sans-Serif" font-size="10.00" fill="#000000">solver.hpp</text>
</a>
</g>
</g>
<!-- Node2&#45;&gt;Node8 -->
<g id="edge10" class="edge">
<title>Node2&#45;&gt;Node8</title>
<path fill="none" stroke="#191970" d="M159.6767,-165.1366C179.1688,-157.9327 200.8672,-147.2512 216.662,-132 233.1512,-116.0783 242.2728,-89.9171 246.2355,-75.7871"/>
<polygon fill="#191970" stroke="#191970" points="158.3193,-161.903 150.0252,-168.4954 160.6201,-168.5142 158.3193,-161.903"/>
</g>
<!-- Node3&#45;&gt;Node4 -->
<g id="edge2" class="edge">
<title>Node3&#45;&gt;Node4</title>
<path fill="none" stroke="#191970" d="M50.6443,-48.7884C59.5399,-39.2085 70.2824,-27.6396 77.7081,-19.6427"/>
<polygon fill="#191970" stroke="#191970" points="47.9595,-46.536 43.7198,-56.2455 53.0891,-51.2992 47.9595,-46.536"/>
</g>
<!-- Node5&#45;&gt;Node3 -->
<g id="edge4" class="edge">
<title>Node5&#45;&gt;Node3</title>
<path fill="none" stroke="#191970" d="M58.8525,-103.6296C52.8476,-94.2887 45.7962,-83.3197 40.8609,-75.6427"/>
<polygon fill="#191970" stroke="#191970" points="56.0396,-105.7264 64.3913,-112.2455 61.9278,-101.9411 56.0396,-105.7264"/>
</g>
<!-- Node5&#45;&gt;Node4 -->
<g id="edge5" class="edge">
<title>Node5&#45;&gt;Node4</title>
<path fill="none" stroke="#191970" d="M73.4806,-102.2702C76.948,-77.9985 82.6945,-37.7725 85.3013,-19.5249"/>
<polygon fill="#191970" stroke="#191970" points="69.9757,-102.0564 72.0262,-112.4509 76.9053,-103.0465 69.9757,-102.0564"/>
</g>
<!-- Node6&#45;&gt;Node7 -->
<g id="edge7" class="edge">
<title>Node6&#45;&gt;Node7</title>
<path fill="none" stroke="#191970" d="M154.662,-102.1575C154.662,-93.155 154.662,-82.9199 154.662,-75.6427"/>
<polygon fill="#191970" stroke="#191970" points="151.1621,-102.2455 154.662,-112.2455 158.1621,-102.2456 151.1621,-102.2455"/>
</g>
<!-- Node7&#45;&gt;Node4 -->
<g id="edge8" class="edge">
<title>Node7&#45;&gt;Node4</title>
<path fill="none" stroke="#191970" d="M134.8024,-49.645C122.9763,-39.9058 108.3729,-27.8795 98.371,-19.6427"/>
<polygon fill="#191970" stroke="#191970" points="132.873,-52.5902 142.8173,-56.2455 137.323,-47.1867 132.873,-52.5902"/>
</g>
<!-- Node8&#45;&gt;Node4 -->
<g id="edge11" class="edge">
<title>Node8&#45;&gt;Node4</title>
<path fill="none" stroke="#191970" d="M211.2199,-53.057C181.572,-42.8084 140.8424,-28.729 114.1474,-19.5011"/>
<polygon fill="#191970" stroke="#191970" points="210.2185,-56.414 220.8133,-56.3733 212.5055,-49.7982 210.2185,-56.414"/>
</g>
</g>
</svg>
