<?xml version="1.0" encoding="UTF-8" standalone="no"?>
<!DOCTYPE svg PUBLIC "-//W3C//DTD SVG 1.1//EN"
 "http://www.w3.org/Graphics/SVG/1.1/DTD/svg11.dtd">
<!-- Generated by graphviz version 2.40.1 (20161225.0304)
 -->
<!-- Title: /home/oleg/Dev/riversim/source/river/physmodel.cpp Pages: 1 -->
<svg width="414pt" height="207pt"
 viewBox="0.00 0.00 413.50 207.00" xmlns="http://www.w3.org/2000/svg" xmlns:xlink="http://www.w3.org/1999/xlink">
<g id="graph0" class="graph" transform="scale(1 1) rotate(0) translate(4 203)">
<title>/home/oleg/Dev/riversim/source/river/physmodel.cpp</title>
<polygon fill="#ffffff" stroke="transparent" points="-4,4 -4,-203 409.5,-203 409.5,4 -4,4"/>
<!-- Node0 -->
<g id="node1" class="node">
<title>Node0</title>
<polygon fill="#bfbfbf" stroke="#000000" points="0,-168.5 0,-198.5 140,-198.5 140,-168.5 0,-168.5"/>
<text text-anchor="start" x="8" y="-186.5" font-family="Helvetica,sans-Serif" font-size="10.00" fill="#000000">/home/oleg/Dev/riversim</text>
<text text-anchor="middle" x="70" y="-175.5" font-family="Helvetica,sans-Serif" font-size="10.00" fill="#000000">/source/river/physmodel.cpp</text>
</g>
<!-- Node1 -->
<g id="node2" class="node">
<title>Node1</title>
<polygon fill="#ffffff" stroke="#bfbfbf" points="4,-.5 4,-19.5 58,-19.5 58,-.5 4,-.5"/>
<text text-anchor="middle" x="31" y="-7.5" font-family="Helvetica,sans-Serif" font-size="10.00" fill="#000000">iostream</text>
</g>
<!-- Node0&#45;&gt;Node1 -->
<g id="edge1" class="edge">
<title>Node0&#45;&gt;Node1</title>
<path fill="none" stroke="#191970" d="M64.03,-168.4767C56.1573,-147.951 42.5391,-109.8247 36,-76 33.0647,-60.8165 31.8337,-43.3573 31.3264,-30.2111"/>
<polygon fill="#191970" stroke="#191970" points="34.8174,-29.8337 31.0422,-19.9343 27.8201,-30.0273 34.8174,-29.8337"/>
</g>
<!-- Node2 -->
<g id="node3" class="node">
<title>Node2</title>
<g id="a_node3"><a xlink:href="physmodel_8hpp.html" target="_top" xlink:title="Physical model incapsulation. ">
<polygon fill="#ffffff" stroke="#000000" points="106.5,-112.5 106.5,-131.5 189.5,-131.5 189.5,-112.5 106.5,-112.5"/>
<text text-anchor="middle" x="148" y="-119.5" font-family="Helvetica,sans-Serif" font-size="10.00" fill="#000000">physmodel.hpp</text>
</a>
</g>
</g>
<!-- Node0&#45;&gt;Node2 -->
<g id="edge2" class="edge">
<title>Node0&#45;&gt;Node2</title>
<path fill="none" stroke="#191970" d="M89.2809,-168.2977C100.8976,-159.1384 115.6818,-147.4816 127.5092,-138.1562"/>
<polygon fill="#191970" stroke="#191970" points="129.8256,-140.787 135.5112,-131.8469 125.4914,-135.2901 129.8256,-140.787"/>
</g>
<!-- Node2&#45;&gt;Node1 -->
<g id="edge3" class="edge">
<title>Node2&#45;&gt;Node1</title>
<path fill="none" stroke="#191970" d="M109.7396,-112.4009C89.3471,-105.444 65.3667,-94.019 50,-76 39.0109,-63.1141 34.3671,-44.211 32.4102,-29.9339"/>
<polygon fill="#191970" stroke="#191970" points="35.8597,-29.2648 31.3471,-19.679 28.897,-29.9867 35.8597,-29.2648"/>
</g>
<!-- Node3 -->
<g id="node4" class="node">
<title>Node3</title>
<polygon fill="#ffffff" stroke="#bfbfbf" points="59,-56.5 59,-75.5 103,-75.5 103,-56.5 59,-56.5"/>
<text text-anchor="middle" x="81" y="-63.5" font-family="Helvetica,sans-Serif" font-size="10.00" fill="#000000">cmath</text>
</g>
<!-- Node2&#45;&gt;Node3 -->
<g id="edge4" class="edge">
<title>Node2&#45;&gt;Node3</title>
<path fill="none" stroke="#191970" d="M136.3295,-112.2455C126.4339,-103.9746 112.0373,-91.9416 100.4099,-82.2232"/>
<polygon fill="#191970" stroke="#191970" points="102.4542,-79.3703 92.5368,-75.6427 97.965,-84.7413 102.4542,-79.3703"/>
</g>
<!-- Node4 -->
<g id="node5" class="node">
<title>Node4</title>
<polygon fill="#ffffff" stroke="#bfbfbf" points="121.5,-56.5 121.5,-75.5 174.5,-75.5 174.5,-56.5 121.5,-56.5"/>
<text text-anchor="middle" x="148" y="-63.5" font-family="Helvetica,sans-Serif" font-size="10.00" fill="#000000">complex</text>
</g>
<!-- Node2&#45;&gt;Node4 -->
<g id="edge5" class="edge">
<title>Node2&#45;&gt;Node4</title>
<path fill="none" stroke="#191970" d="M148,-112.2455C148,-104.9382 148,-94.6944 148,-85.7046"/>
<polygon fill="#191970" stroke="#191970" points="151.5001,-85.6426 148,-75.6427 144.5001,-85.6427 151.5001,-85.6426"/>
</g>
<!-- Node5 -->
<g id="node6" class="node">
<title>Node5</title>
<polygon fill="#ffffff" stroke="#bfbfbf" points="192.5,-56.5 192.5,-75.5 239.5,-75.5 239.5,-56.5 192.5,-56.5"/>
<text text-anchor="middle" x="216" y="-63.5" font-family="Helvetica,sans-Serif" font-size="10.00" fill="#000000">math.h</text>
</g>
<!-- Node2&#45;&gt;Node5 -->
<g id="edge6" class="edge">
<title>Node2&#45;&gt;Node5</title>
<path fill="none" stroke="#191970" d="M159.8447,-112.2455C169.888,-103.9746 184.4995,-91.9416 196.3004,-82.2232"/>
<polygon fill="#191970" stroke="#191970" points="198.7967,-84.7015 204.291,-75.6427 194.3467,-79.298 198.7967,-84.7015"/>
</g>
<!-- Node6 -->
<g id="node7" class="node">
<title>Node6</title>
<polygon fill="#ffffff" stroke="#bfbfbf" points="258,-56.5 258,-75.5 314,-75.5 314,-56.5 258,-56.5"/>
<text text-anchor="middle" x="286" y="-63.5" font-family="Helvetica,sans-Serif" font-size="10.00" fill="#000000">algorithm</text>
</g>
<!-- Node2&#45;&gt;Node6 -->
<g id="edge7" class="edge">
<title>Node2&#45;&gt;Node6</title>
<path fill="none" stroke="#191970" d="M171.723,-112.3733C194.1737,-103.2629 228.0739,-89.5062 253.1255,-79.3404"/>
<polygon fill="#191970" stroke="#191970" points="254.6365,-82.5045 262.5865,-75.5011 252.0043,-76.0182 254.6365,-82.5045"/>
</g>
<!-- Node7 -->
<g id="node8" class="node">
<title>Node7</title>
<g id="a_node8"><a xlink:href="common_8hpp.html" target="_top" xlink:title="Common geometric entities to whole program. ">
<polygon fill="#ffffff" stroke="#000000" points="332.5,-56.5 332.5,-75.5 405.5,-75.5 405.5,-56.5 332.5,-56.5"/>
<text text-anchor="middle" x="369" y="-63.5" font-family="Helvetica,sans-Serif" font-size="10.00" fill="#000000">common.hpp</text>
</a>
</g>
</g>
<!-- Node2&#45;&gt;Node7 -->
<g id="edge8" class="edge">
<title>Node2&#45;&gt;Node7</title>
<path fill="none" stroke="#191970" d="M185.7401,-112.4369C223.4721,-102.8759 281.5792,-88.1519 322.2188,-77.8541"/>
<polygon fill="#191970" stroke="#191970" points="323.3176,-81.1863 332.1515,-75.3372 321.5981,-74.4008 323.3176,-81.1863"/>
</g>
<!-- Node7&#45;&gt;Node1 -->
<g id="edge10" class="edge">
<title>Node7&#45;&gt;Node1</title>
<path fill="none" stroke="#191970" d="M332.3804,-57.8394C329.2124,-57.1941 326.0525,-56.5717 323,-56 231.7775,-38.914 123.7202,-23.0123 68.1364,-15.1482"/>
<polygon fill="#191970" stroke="#191970" points="68.4522,-11.6582 58.0619,-13.7297 67.4762,-18.5898 68.4522,-11.6582"/>
</g>
<!-- Node8 -->
<g id="node9" class="node">
<title>Node8</title>
<polygon fill="#ffffff" stroke="#bfbfbf" points="347,-.5 347,-19.5 391,-19.5 391,-.5 347,-.5"/>
<text text-anchor="middle" x="369" y="-7.5" font-family="Helvetica,sans-Serif" font-size="10.00" fill="#000000">vector</text>
</g>
<!-- Node7&#45;&gt;Node8 -->
<g id="edge9" class="edge">
<title>Node7&#45;&gt;Node8</title>
<path fill="none" stroke="#191970" d="M369,-56.2455C369,-48.9382 369,-38.6944 369,-29.7046"/>
<polygon fill="#191970" stroke="#191970" points="372.5001,-29.6426 369,-19.6427 365.5001,-29.6427 372.5001,-29.6426"/>
</g>
</g>
</svg>
