<?xml version="1.0" encoding="UTF-8" standalone="no"?>
<!DOCTYPE svg PUBLIC "-//W3C//DTD SVG 1.1//EN"
 "http://www.w3.org/Graphics/SVG/1.1/DTD/svg11.dtd">
<!-- Generated by graphviz version 2.40.1 (20161225.0304)
 -->
<!-- Title: /home/oleg/Dev/riversim/source/river/physmodel.hpp Pages: 1 -->
<svg width="253pt" height="151pt"
 viewBox="0.00 0.00 252.50 151.00" xmlns="http://www.w3.org/2000/svg" xmlns:xlink="http://www.w3.org/1999/xlink">
<g id="graph0" class="graph" transform="scale(1 1) rotate(0) translate(4 147)">
<title>/home/oleg/Dev/riversim/source/river/physmodel.hpp</title>
<polygon fill="#ffffff" stroke="transparent" points="-4,4 -4,-147 248.5,-147 248.5,4 -4,4"/>
<!-- Node0 -->
<g id="node1" class="node">
<title>Node0</title>
<polygon fill="#bfbfbf" stroke="#000000" points="0,-112.5 0,-142.5 140,-142.5 140,-112.5 0,-112.5"/>
<text text-anchor="start" x="8" y="-130.5" font-family="Helvetica,sans-Serif" font-size="10.00" fill="#000000">/home/oleg/Dev/riversim</text>
<text text-anchor="middle" x="70" y="-119.5" font-family="Helvetica,sans-Serif" font-size="10.00" fill="#000000">/source/river/physmodel.hpp</text>
</g>
<!-- Node1 -->
<g id="node2" class="node">
<title>Node1</title>
<polygon fill="#ffffff" stroke="#bfbfbf" points="27,-.5 27,-19.5 81,-19.5 81,-.5 27,-.5"/>
<text text-anchor="middle" x="54" y="-7.5" font-family="Helvetica,sans-Serif" font-size="10.00" fill="#000000">iostream</text>
</g>
<!-- Node0&#45;&gt;Node1 -->
<g id="edge1" class="edge">
<title>Node0&#45;&gt;Node1</title>
<path fill="none" stroke="#191970" d="M40.0434,-112.3925C26.3812,-103.7636 11.5865,-91.5426 4,-76 -5.182,-57.1886 12.2594,-38.4232 29.0074,-25.738"/>
<polygon fill="#191970" stroke="#191970" points="31.4143,-28.3226 37.5576,-19.6906 27.3722,-22.6075 31.4143,-28.3226"/>
</g>
<!-- Node2 -->
<g id="node3" class="node">
<title>Node2</title>
<polygon fill="#ffffff" stroke="#bfbfbf" points="13,-56.5 13,-75.5 57,-75.5 57,-56.5 13,-56.5"/>
<text text-anchor="middle" x="35" y="-63.5" font-family="Helvetica,sans-Serif" font-size="10.00" fill="#000000">cmath</text>
</g>
<!-- Node0&#45;&gt;Node2 -->
<g id="edge2" class="edge">
<title>Node0&#45;&gt;Node2</title>
<path fill="none" stroke="#191970" d="M61.3483,-112.2977C56.5912,-103.9388 50.6502,-93.4997 45.6143,-84.6509"/>
<polygon fill="#191970" stroke="#191970" points="48.5921,-82.8069 40.6039,-75.8469 42.5083,-86.2692 48.5921,-82.8069"/>
</g>
<!-- Node3 -->
<g id="node4" class="node">
<title>Node3</title>
<polygon fill="#ffffff" stroke="#bfbfbf" points="75.5,-56.5 75.5,-75.5 134.5,-75.5 134.5,-56.5 75.5,-56.5"/>
<text text-anchor="middle" x="105" y="-63.5" font-family="Helvetica,sans-Serif" font-size="10.00" fill="#000000">functional</text>
</g>
<!-- Node0&#45;&gt;Node3 -->
<g id="edge3" class="edge">
<title>Node0&#45;&gt;Node3</title>
<path fill="none" stroke="#191970" d="M78.6517,-112.2977C83.4088,-103.9388 89.3498,-93.4997 94.3857,-84.6509"/>
<polygon fill="#191970" stroke="#191970" points="97.4917,-86.2692 99.3961,-75.8469 91.4079,-82.8069 97.4917,-86.2692"/>
</g>
<!-- Node4 -->
<g id="node5" class="node">
<title>Node4</title>
<g id="a_node5"><a xlink:href="common_8hpp.html" target="_top" xlink:title="common.hpp">
<polygon fill="#ffffff" stroke="#000000" points="152.5,-56.5 152.5,-75.5 225.5,-75.5 225.5,-56.5 152.5,-56.5"/>
<text text-anchor="middle" x="189" y="-63.5" font-family="Helvetica,sans-Serif" font-size="10.00" fill="#000000">common.hpp</text>
</a>
</g>
</g>
<!-- Node0&#45;&gt;Node4 -->
<g id="edge4" class="edge">
<title>Node0&#45;&gt;Node4</title>
<path fill="none" stroke="#191970" d="M99.1107,-112.4554C118.1824,-102.599 142.9482,-89.7999 161.6539,-80.1327"/>
<polygon fill="#191970" stroke="#191970" points="163.2824,-83.2309 170.5592,-75.5303 160.0685,-77.0122 163.2824,-83.2309"/>
</g>
<!-- Node4&#45;&gt;Node1 -->
<g id="edge7" class="edge">
<title>Node4&#45;&gt;Node1</title>
<path fill="none" stroke="#191970" d="M165.7927,-56.3733C143.8301,-47.2629 110.6668,-33.5062 86.1599,-23.3404"/>
<polygon fill="#191970" stroke="#191970" points="87.4824,-20.0999 76.9045,-19.5011 84.8003,-26.5657 87.4824,-20.0999"/>
</g>
<!-- Node5 -->
<g id="node6" class="node">
<title>Node5</title>
<polygon fill="#ffffff" stroke="#bfbfbf" points="135,-.5 135,-19.5 179,-19.5 179,-.5 135,-.5"/>
<text text-anchor="middle" x="157" y="-7.5" font-family="Helvetica,sans-Serif" font-size="10.00" fill="#000000">vector</text>
</g>
<!-- Node4&#45;&gt;Node5 -->
<g id="edge5" class="edge">
<title>Node4&#45;&gt;Node5</title>
<path fill="none" stroke="#191970" d="M183.426,-56.2455C179.0669,-48.617 172.8789,-37.7881 167.5867,-28.5267"/>
<polygon fill="#191970" stroke="#191970" points="170.5104,-26.5886 162.5101,-19.6427 164.4327,-30.0616 170.5104,-26.5886"/>
</g>
<!-- Node6 -->
<g id="node7" class="node">
<title>Node6</title>
<polygon fill="#ffffff" stroke="#bfbfbf" points="197.5,-.5 197.5,-19.5 244.5,-19.5 244.5,-.5 197.5,-.5"/>
<text text-anchor="middle" x="221" y="-7.5" font-family="Helvetica,sans-Serif" font-size="10.00" fill="#000000">math.h</text>
</g>
<!-- Node4&#45;&gt;Node6 -->
<g id="edge6" class="edge">
<title>Node4&#45;&gt;Node6</title>
<path fill="none" stroke="#191970" d="M194.574,-56.2455C198.9331,-48.617 205.1211,-37.7881 210.4133,-28.5267"/>
<polygon fill="#191970" stroke="#191970" points="213.5673,-30.0616 215.4899,-19.6427 207.4896,-26.5886 213.5673,-30.0616"/>
</g>
</g>
</svg>
