<?xml version="1.0" encoding="UTF-8" standalone="no"?>
<!DOCTYPE svg PUBLIC "-//W3C//DTD SVG 1.1//EN"
 "http://www.w3.org/Graphics/SVG/1.1/DTD/svg11.dtd">
<!-- Generated by graphviz version 2.40.1 (20161225.0304)
 -->
<!-- Title: /home/oleg/Dev/riversim/source/river/physmodel.hpp Pages: 1 -->
<svg width="369pt" height="151pt"
 viewBox="0.00 0.00 368.71 151.00" xmlns="http://www.w3.org/2000/svg" xmlns:xlink="http://www.w3.org/1999/xlink">
<g id="graph0" class="graph" transform="scale(1 1) rotate(0) translate(4 147)">
<title>/home/oleg/Dev/riversim/source/river/physmodel.hpp</title>
<polygon fill="#ffffff" stroke="transparent" points="-4,4 -4,-147 364.7117,-147 364.7117,4 -4,4"/>
<!-- Node0 -->
<g id="node1" class="node">
<title>Node0</title>
<polygon fill="#bfbfbf" stroke="#000000" points="67.2117,-112.5 67.2117,-142.5 207.2117,-142.5 207.2117,-112.5 67.2117,-112.5"/>
<text text-anchor="start" x="75.2117" y="-130.5" font-family="Helvetica,sans-Serif" font-size="10.00" fill="#000000">/home/oleg/Dev/riversim</text>
<text text-anchor="middle" x="137.2117" y="-119.5" font-family="Helvetica,sans-Serif" font-size="10.00" fill="#000000">/source/river/physmodel.hpp</text>
</g>
<!-- Node1 -->
<g id="node2" class="node">
<title>Node1</title>
<polygon fill="#ffffff" stroke="#bfbfbf" points="95.2117,-.5 95.2117,-19.5 149.2117,-19.5 149.2117,-.5 95.2117,-.5"/>
<text text-anchor="middle" x="122.2117" y="-7.5" font-family="Helvetica,sans-Serif" font-size="10.00" fill="#000000">iostream</text>
</g>
<!-- Node0&#45;&gt;Node1 -->
<g id="edge1" class="edge">
<title>Node0&#45;&gt;Node1</title>
<path fill="none" stroke="#191970" d="M80.7512,-112.3919C49.1794,-102.6785 14.3709,-89.4051 5.2117,-76 -17.3352,-43.0012 42.7339,-24.6065 84.9139,-16.0508"/>
<polygon fill="#191970" stroke="#191970" points="85.7635,-19.4518 94.9262,-14.1325 84.4462,-12.5768 85.7635,-19.4518"/>
</g>
<!-- Node2 -->
<g id="node3" class="node">
<title>Node2</title>
<polygon fill="#ffffff" stroke="#bfbfbf" points="14.2117,-56.5 14.2117,-75.5 58.2117,-75.5 58.2117,-56.5 14.2117,-56.5"/>
<text text-anchor="middle" x="36.2117" y="-63.5" font-family="Helvetica,sans-Serif" font-size="10.00" fill="#000000">cmath</text>
</g>
<!-- Node0&#45;&gt;Node2 -->
<g id="edge2" class="edge">
<title>Node0&#45;&gt;Node2</title>
<path fill="none" stroke="#191970" d="M112.5043,-112.4554C96.6869,-102.8241 76.255,-90.3828 60.5167,-80.7996"/>
<polygon fill="#191970" stroke="#191970" points="62.2246,-77.7418 51.8631,-75.5303 58.584,-83.7206 62.2246,-77.7418"/>
</g>
<!-- Node3 -->
<g id="node4" class="node">
<title>Node3</title>
<polygon fill="#ffffff" stroke="#bfbfbf" points="76.7117,-56.5 76.7117,-75.5 129.7117,-75.5 129.7117,-56.5 76.7117,-56.5"/>
<text text-anchor="middle" x="103.2117" y="-63.5" font-family="Helvetica,sans-Serif" font-size="10.00" fill="#000000">complex</text>
</g>
<!-- Node0&#45;&gt;Node3 -->
<g id="edge3" class="edge">
<title>Node0&#45;&gt;Node3</title>
<path fill="none" stroke="#191970" d="M128.8072,-112.2977C124.1859,-103.9388 118.4147,-93.4997 113.5227,-84.6509"/>
<polygon fill="#191970" stroke="#191970" points="116.5569,-82.9051 108.6555,-75.8469 110.4308,-86.292 116.5569,-82.9051"/>
</g>
<!-- Node4 -->
<g id="node5" class="node">
<title>Node4</title>
<polygon fill="#ffffff" stroke="#bfbfbf" points="147.7117,-56.5 147.7117,-75.5 194.7117,-75.5 194.7117,-56.5 147.7117,-56.5"/>
<text text-anchor="middle" x="171.2117" y="-63.5" font-family="Helvetica,sans-Serif" font-size="10.00" fill="#000000">math.h</text>
</g>
<!-- Node0&#45;&gt;Node4 -->
<g id="edge4" class="edge">
<title>Node0&#45;&gt;Node4</title>
<path fill="none" stroke="#191970" d="M145.6162,-112.2977C150.2374,-103.9388 156.0086,-93.4997 160.9006,-84.6509"/>
<polygon fill="#191970" stroke="#191970" points="163.9926,-86.292 165.7678,-75.8469 157.8664,-82.9051 163.9926,-86.292"/>
</g>
<!-- Node5 -->
<g id="node6" class="node">
<title>Node5</title>
<polygon fill="#ffffff" stroke="#bfbfbf" points="213.2117,-56.5 213.2117,-75.5 269.2117,-75.5 269.2117,-56.5 213.2117,-56.5"/>
<text text-anchor="middle" x="241.2117" y="-63.5" font-family="Helvetica,sans-Serif" font-size="10.00" fill="#000000">algorithm</text>
</g>
<!-- Node0&#45;&gt;Node5 -->
<g id="edge5" class="edge">
<title>Node0&#45;&gt;Node5</title>
<path fill="none" stroke="#191970" d="M162.6529,-112.4554C178.9401,-102.8241 199.979,-90.3828 216.1846,-80.7996"/>
<polygon fill="#191970" stroke="#191970" points="218.2693,-83.6331 225.0954,-75.5303 214.7062,-77.6078 218.2693,-83.6331"/>
</g>
<!-- Node6 -->
<g id="node7" class="node">
<title>Node6</title>
<g id="a_node7"><a xlink:href="common_8hpp.html" target="_top" xlink:title="Common geometric entities to whole program. ">
<polygon fill="#ffffff" stroke="#000000" points="287.7117,-56.5 287.7117,-75.5 360.7117,-75.5 360.7117,-56.5 287.7117,-56.5"/>
<text text-anchor="middle" x="324.2117" y="-63.5" font-family="Helvetica,sans-Serif" font-size="10.00" fill="#000000">common.hpp</text>
</a>
</g>
</g>
<!-- Node0&#45;&gt;Node6 -->
<g id="edge6" class="edge">
<title>Node0&#45;&gt;Node6</title>
<path fill="none" stroke="#191970" d="M182.957,-112.4554C214.4321,-102.104 255.7766,-88.5067 285.5941,-78.7004"/>
<polygon fill="#191970" stroke="#191970" points="286.8273,-81.9793 295.2333,-75.5303 284.6404,-75.3297 286.8273,-81.9793"/>
</g>
<!-- Node6&#45;&gt;Node1 -->
<g id="edge8" class="edge">
<title>Node6&#45;&gt;Node1</title>
<path fill="none" stroke="#191970" d="M289.4866,-56.3733C253.1925,-46.3115 196.4557,-30.5825 159.3022,-20.2825"/>
<polygon fill="#191970" stroke="#191970" points="159.9472,-16.8294 149.3756,-17.5306 158.0771,-23.575 159.9472,-16.8294"/>
</g>
<!-- Node7 -->
<g id="node8" class="node">
<title>Node7</title>
<polygon fill="#ffffff" stroke="#bfbfbf" points="302.2117,-.5 302.2117,-19.5 346.2117,-19.5 346.2117,-.5 302.2117,-.5"/>
<text text-anchor="middle" x="324.2117" y="-7.5" font-family="Helvetica,sans-Serif" font-size="10.00" fill="#000000">vector</text>
</g>
<!-- Node6&#45;&gt;Node7 -->
<g id="edge7" class="edge">
<title>Node6&#45;&gt;Node7</title>
<path fill="none" stroke="#191970" d="M324.2117,-56.2455C324.2117,-48.9382 324.2117,-38.6944 324.2117,-29.7046"/>
<polygon fill="#191970" stroke="#191970" points="327.7118,-29.6426 324.2117,-19.6427 320.7118,-29.6427 327.7118,-29.6426"/>
</g>
</g>
</svg>
