<?xml version="1.0" encoding="UTF-8" standalone="no"?>
<!DOCTYPE svg PUBLIC "-//W3C//DTD SVG 1.1//EN"
 "http://www.w3.org/Graphics/SVG/1.1/DTD/svg11.dtd">
<!-- Generated by graphviz version 2.40.1 (20161225.0304)
 -->
<!-- Title: physmodel.hpp Pages: 1 -->
<svg width="290pt" height="252pt"
 viewBox="0.00 0.00 290.16 252.00" xmlns="http://www.w3.org/2000/svg" xmlns:xlink="http://www.w3.org/1999/xlink">
<g id="graph0" class="graph" transform="scale(1 1) rotate(0) translate(4 248)">
<title>physmodel.hpp</title>
<polygon fill="#ffffff" stroke="transparent" points="-4,4 -4,-248 286.162,-248 286.162,4 -4,4"/>
<!-- Node2 -->
<g id="node1" class="node">
<title>Node2</title>
<polygon fill="#bfbfbf" stroke="#000000" points="66.662,-224.5 66.662,-243.5 158.662,-243.5 158.662,-224.5 66.662,-224.5"/>
<text text-anchor="middle" x="112.662" y="-231.5" font-family="Helvetica,sans-Serif" font-size="10.00" fill="#000000">physmodel.hpp</text>
</g>
<!-- Node3 -->
<g id="node2" class="node">
<title>Node3</title>
<g id="a_node2"><a xlink:href="io_8hpp.html" target="_top" xlink:title="Contains functionality to read and write state of program(simulation data) and program options...">
<polygon fill="#ffffff" stroke="#000000" points="11.162,-112.5 11.162,-131.5 58.162,-131.5 58.162,-112.5 11.162,-112.5"/>
<text text-anchor="middle" x="34.662" y="-119.5" font-family="Helvetica,sans-Serif" font-size="10.00" fill="#000000">io.hpp</text>
</a>
</g>
</g>
<!-- Node2&#45;&gt;Node3 -->
<g id="edge1" class="edge">
<title>Node2&#45;&gt;Node3</title>
<path fill="none" stroke="#191970" d="M71.6401,-220.1141C56.9815,-212.9429 42.0325,-202.5601 33.662,-188 23.4956,-170.3159 27.9503,-145.3154 31.6087,-131.7225"/>
<polygon fill="#191970" stroke="#191970" points="70.6015,-223.4838 81.1588,-224.3744 73.4612,-217.0945 70.6015,-223.4838"/>
</g>
<!-- Node4 -->
<g id="node3" class="node">
<title>Node4</title>
<g id="a_node3"><a xlink:href="riversim_8hpp.html" target="_top" xlink:title="Some general routines like backward, forward simulation etc. ">
<polygon fill="#ffffff" stroke="#000000" points="47.662,-56.5 47.662,-75.5 125.662,-75.5 125.662,-56.5 47.662,-56.5"/>
<text text-anchor="middle" x="86.662" y="-63.5" font-family="Helvetica,sans-Serif" font-size="10.00" fill="#000000">riversim.hpp</text>
</a>
</g>
</g>
<!-- Node2&#45;&gt;Node4 -->
<g id="edge13" class="edge">
<title>Node2&#45;&gt;Node4</title>
<path fill="none" stroke="#191970" d="M72.1484,-220.5381C55.256,-213.193 36.6004,-202.5668 23.662,-188 6.0099,-168.1262 7.4048,-158.1548 2.662,-132 1.076,-123.2537 -1.869,-119.6473 2.662,-112 13.3412,-93.9764 33.8569,-82.5513 51.9393,-75.5956"/>
<polygon fill="#191970" stroke="#191970" points="71.2529,-223.9528 81.8341,-224.4887 73.8966,-217.4712 71.2529,-223.9528"/>
</g>
<!-- Node6 -->
<g id="node5" class="node">
<title>Node6</title>
<g id="a_node5"><a xlink:href="tree_8hpp.html" target="_top" xlink:title="Holds all functionality that you need to work with tree(network) of river, its separate branches and ...">
<polygon fill="#ffffff" stroke="#000000" points="42.162,-168.5 42.162,-187.5 99.162,-187.5 99.162,-168.5 42.162,-168.5"/>
<text text-anchor="middle" x="70.662" y="-175.5" font-family="Helvetica,sans-Serif" font-size="10.00" fill="#000000">tree.hpp</text>
</a>
</g>
</g>
<!-- Node2&#45;&gt;Node6 -->
<g id="edge4" class="edge">
<title>Node2&#45;&gt;Node6</title>
<path fill="none" stroke="#191970" d="M99.3205,-216.2112C92.2224,-206.7472 83.7718,-195.4797 77.8941,-187.6427"/>
<polygon fill="#191970" stroke="#191970" points="96.5462,-218.3455 105.3462,-224.2455 102.1462,-214.1455 96.5462,-218.3455"/>
</g>
<!-- Node7 -->
<g id="node6" class="node">
<title>Node7</title>
<g id="a_node6"><a xlink:href="triangle_8hpp.html" target="_top" xlink:title="Piece of Art Mesh Generation Tool, Winner of the 2003 James Hardy Wilkinson Prize in Numerical Softwa...">
<polygon fill="#ffffff" stroke="#000000" points="117.162,-168.5 117.162,-187.5 192.162,-187.5 192.162,-168.5 117.162,-168.5"/>
<text text-anchor="middle" x="154.662" y="-175.5" font-family="Helvetica,sans-Serif" font-size="10.00" fill="#000000">triangle.hpp</text>
</a>
</g>
</g>
<!-- Node2&#45;&gt;Node7 -->
<g id="edge7" class="edge">
<title>Node2&#45;&gt;Node7</title>
<path fill="none" stroke="#191970" d="M126.0036,-216.2112C133.1017,-206.7472 141.5523,-195.4797 147.43,-187.6427"/>
<polygon fill="#191970" stroke="#191970" points="123.1779,-214.1455 119.9779,-224.2455 128.7779,-218.3455 123.1779,-214.1455"/>
</g>
<!-- Node8 -->
<g id="node7" class="node">
<title>Node8</title>
<g id="a_node7"><a xlink:href="mesh_8hpp.html" target="_top" xlink:title="Mesh generation functionality. ">
<polygon fill="#ffffff" stroke="#000000" points="122.162,-112.5 122.162,-131.5 187.162,-131.5 187.162,-112.5 122.162,-112.5"/>
<text text-anchor="middle" x="154.662" y="-119.5" font-family="Helvetica,sans-Serif" font-size="10.00" fill="#000000">mesh.hpp</text>
</a>
</g>
</g>
<!-- Node2&#45;&gt;Node8 -->
<g id="edge10" class="edge">
<title>Node2&#45;&gt;Node8</title>
<path fill="none" stroke="#191970" d="M160.1344,-220.7081C176.1755,-213.7009 192.3621,-203.2754 201.662,-188 214.3902,-167.0936 188.1032,-144.1165 169.9572,-131.5418"/>
<polygon fill="#191970" stroke="#191970" points="158.7499,-217.4922 150.7596,-224.4497 161.3447,-223.9935 158.7499,-217.4922"/>
</g>
<!-- Node9 -->
<g id="node8" class="node">
<title>Node9</title>
<g id="a_node8"><a xlink:href="solver_8hpp.html" target="_top" xlink:title="PDE Solver and Integration tool. ">
<polygon fill="#ffffff" stroke="#000000" points="215.162,-112.5 215.162,-131.5 282.162,-131.5 282.162,-112.5 215.162,-112.5"/>
<text text-anchor="middle" x="248.662" y="-119.5" font-family="Helvetica,sans-Serif" font-size="10.00" fill="#000000">solver.hpp</text>
</a>
</g>
</g>
<!-- Node2&#45;&gt;Node9 -->
<g id="edge11" class="edge">
<title>Node2&#45;&gt;Node9</title>
<path fill="none" stroke="#191970" d="M159.6767,-221.1366C179.1688,-213.9327 200.8672,-203.2512 216.662,-188 233.1512,-172.0783 242.2728,-145.9171 246.2355,-131.7871"/>
<polygon fill="#191970" stroke="#191970" points="158.3193,-217.903 150.0252,-224.4954 160.6201,-224.5142 158.3193,-217.903"/>
</g>
<!-- Node3&#45;&gt;Node4 -->
<g id="edge2" class="edge">
<title>Node3&#45;&gt;Node4</title>
<path fill="none" stroke="#191970" d="M50.6443,-104.7884C59.5399,-95.2085 70.2824,-83.6396 77.7081,-75.6427"/>
<polygon fill="#191970" stroke="#191970" points="47.9595,-102.536 43.7198,-112.2455 53.0891,-107.2992 47.9595,-102.536"/>
</g>
<!-- Node5 -->
<g id="node4" class="node">
<title>Node5</title>
<g id="a_node4"><a xlink:href="main_8cpp.html" target="_top" xlink:title="Entry point of program and main loop handler. ">
<polygon fill="#ffffff" stroke="#000000" points="55.662,-.5 55.662,-19.5 117.662,-19.5 117.662,-.5 55.662,-.5"/>
<text text-anchor="middle" x="86.662" y="-7.5" font-family="Helvetica,sans-Serif" font-size="10.00" fill="#000000">main.cpp</text>
</a>
</g>
</g>
<!-- Node4&#45;&gt;Node5 -->
<g id="edge3" class="edge">
<title>Node4&#45;&gt;Node5</title>
<path fill="none" stroke="#191970" d="M86.662,-46.1575C86.662,-37.155 86.662,-26.9199 86.662,-19.6427"/>
<polygon fill="#191970" stroke="#191970" points="83.1621,-46.2455 86.662,-56.2455 90.1621,-46.2456 83.1621,-46.2455"/>
</g>
<!-- Node6&#45;&gt;Node3 -->
<g id="edge5" class="edge">
<title>Node6&#45;&gt;Node3</title>
<path fill="none" stroke="#191970" d="M58.8525,-159.6296C52.8476,-150.2887 45.7962,-139.3197 40.8609,-131.6427"/>
<polygon fill="#191970" stroke="#191970" points="56.0396,-161.7264 64.3913,-168.2455 61.9278,-157.9411 56.0396,-161.7264"/>
</g>
<!-- Node6&#45;&gt;Node4 -->
<g id="edge6" class="edge">
<title>Node6&#45;&gt;Node4</title>
<path fill="none" stroke="#191970" d="M73.4806,-158.2702C76.948,-133.9985 82.6945,-93.7725 85.3013,-75.5249"/>
<polygon fill="#191970" stroke="#191970" points="69.9757,-158.0564 72.0262,-168.4509 76.9053,-159.0465 69.9757,-158.0564"/>
</g>
<!-- Node7&#45;&gt;Node8 -->
<g id="edge8" class="edge">
<title>Node7&#45;&gt;Node8</title>
<path fill="none" stroke="#191970" d="M154.662,-158.1575C154.662,-149.155 154.662,-138.9199 154.662,-131.6427"/>
<polygon fill="#191970" stroke="#191970" points="151.1621,-158.2455 154.662,-168.2455 158.1621,-158.2456 151.1621,-158.2455"/>
</g>
<!-- Node8&#45;&gt;Node4 -->
<g id="edge9" class="edge">
<title>Node8&#45;&gt;Node4</title>
<path fill="none" stroke="#191970" d="M134.8024,-105.645C122.9763,-95.9058 108.3729,-83.8795 98.371,-75.6427"/>
<polygon fill="#191970" stroke="#191970" points="132.873,-108.5902 142.8173,-112.2455 137.323,-103.1867 132.873,-108.5902"/>
</g>
<!-- Node9&#45;&gt;Node4 -->
<g id="edge12" class="edge">
<title>Node9&#45;&gt;Node4</title>
<path fill="none" stroke="#191970" d="M211.2199,-109.057C181.572,-98.8084 140.8424,-84.729 114.1474,-75.5011"/>
<polygon fill="#191970" stroke="#191970" points="210.2185,-112.414 220.8133,-112.3733 212.5055,-105.7982 210.2185,-112.414"/>
</g>
</g>
</svg>
