<?xml version="1.0" encoding="UTF-8" standalone="no"?>
<!DOCTYPE svg PUBLIC "-//W3C//DTD SVG 1.1//EN"
 "http://www.w3.org/Graphics/SVG/1.1/DTD/svg11.dtd">
<!-- Generated by graphviz version 2.40.1 (20161225.0304)
 -->
<!-- Title: /home/oleg/Dev/riversim/source/river/physmodel.hpp Pages: 1 -->
<svg width="771pt" height="307pt"
 viewBox="0.00 0.00 771.00 307.00" xmlns="http://www.w3.org/2000/svg" xmlns:xlink="http://www.w3.org/1999/xlink">
<g id="graph0" class="graph" transform="scale(1 1) rotate(0) translate(4 303)">
<title>/home/oleg/Dev/riversim/source/river/physmodel.hpp</title>
<polygon fill="#ffffff" stroke="transparent" points="-4,4 -4,-303 767,-303 767,4 -4,4"/>
<!-- Node8 -->
<g id="node1" class="node">
<title>Node8</title>
<polygon fill="#bfbfbf" stroke="#000000" points="272.5,-268.5 272.5,-298.5 412.5,-298.5 412.5,-268.5 272.5,-268.5"/>
<text text-anchor="start" x="280.5" y="-286.5" font-family="Helvetica,sans-Serif" font-size="10.00" fill="#000000">/home/oleg/Dev/riversim</text>
<text text-anchor="middle" x="342.5" y="-275.5" font-family="Helvetica,sans-Serif" font-size="10.00" fill="#000000">/source/river/physmodel.hpp</text>
</g>
<!-- Node9 -->
<g id="node2" class="node">
<title>Node9</title>
<g id="a_node2"><a xlink:href="triangle_8hpp.html" target="_top" xlink:title="Piece of Art Mesh Generation Tool, Winner of the 2003 James Hardy Wilkinson Prize in Numerical Softwa...">
<polygon fill="#ffffff" stroke="#000000" points="141.5,-201.5 141.5,-231.5 265.5,-231.5 265.5,-201.5 141.5,-201.5"/>
<text text-anchor="start" x="149.5" y="-219.5" font-family="Helvetica,sans-Serif" font-size="10.00" fill="#000000">/home/oleg/Dev/riversim</text>
<text text-anchor="middle" x="203.5" y="-208.5" font-family="Helvetica,sans-Serif" font-size="10.00" fill="#000000">/source/river/triangle.hpp</text>
</a>
</g>
</g>
<!-- Node8&#45;&gt;Node9 -->
<g id="edge1" class="edge">
<title>Node8&#45;&gt;Node9</title>
<path fill="none" stroke="#191970" d="M302.1523,-264.0518C280.7938,-253.7567 254.9489,-241.2991 235.0711,-231.7177"/>
<polygon fill="#191970" stroke="#191970" points="300.7778,-267.2746 311.3057,-268.4639 303.8173,-260.9689 300.7778,-267.2746"/>
</g>
<!-- Node10 -->
<g id="node3" class="node">
<title>Node10</title>
<g id="a_node3"><a xlink:href="mesh_8hpp.html" target="_top" xlink:title="Wrappers classes to Triangle and Gmsh. ">
<polygon fill="#ffffff" stroke="#000000" points="0,-134.5 0,-164.5 123,-164.5 123,-134.5 0,-134.5"/>
<text text-anchor="start" x="8" y="-152.5" font-family="Helvetica,sans-Serif" font-size="10.00" fill="#000000">/home/oleg/Dev/riversim</text>
<text text-anchor="middle" x="61.5" y="-141.5" font-family="Helvetica,sans-Serif" font-size="10.00" fill="#000000">/source/river/mesh.hpp</text>
</a>
</g>
</g>
<!-- Node8&#45;&gt;Node10 -->
<g id="edge8" class="edge">
<title>Node8&#45;&gt;Node10</title>
<path fill="none" stroke="#191970" d="M262.1526,-275.618C221.0141,-268.7581 171.5177,-255.9399 132.5,-232 104.6356,-214.9033 82.0074,-183.2378 70.2634,-164.5018"/>
<polygon fill="#191970" stroke="#191970" points="261.724,-279.0936 272.1476,-277.1963 262.8159,-272.1793 261.724,-279.0936"/>
</g>
<!-- Node12 -->
<g id="node5" class="node">
<title>Node12</title>
<g id="a_node5"><a xlink:href="riversim_8hpp.html" target="_top" xlink:title="Rivers Simulation. ">
<polygon fill="#ffffff" stroke="#000000" points="269,-67.5 269,-97.5 396,-97.5 396,-67.5 269,-67.5"/>
<text text-anchor="start" x="277" y="-85.5" font-family="Helvetica,sans-Serif" font-size="10.00" fill="#000000">/home/oleg/Dev/riversim</text>
<text text-anchor="middle" x="332.5" y="-74.5" font-family="Helvetica,sans-Serif" font-size="10.00" fill="#000000">/source/river/riversim.hpp</text>
</a>
</g>
</g>
<!-- Node8&#45;&gt;Node12 -->
<g id="edge16" class="edge">
<title>Node8&#45;&gt;Node12</title>
<path fill="none" stroke="#191970" d="M325.1754,-259.7761C320.0509,-251.418 315.1148,-241.6836 312.5,-232 299.5298,-183.9668 316.8291,-124.8819 326.6111,-97.609"/>
<polygon fill="#191970" stroke="#191970" points="322.3066,-261.7842 330.7091,-268.2379 328.1651,-257.953 322.3066,-261.7842"/>
</g>
<!-- Node16 -->
<g id="node9" class="node">
<title>Node16</title>
<g id="a_node9"><a xlink:href="physmodel_8cpp.html" target="_top" xlink:title="/home/oleg/Dev/riversim\l/source/river/physmodel.cpp">
<polygon fill="#ffffff" stroke="#000000" points="321.5,-201.5 321.5,-231.5 461.5,-231.5 461.5,-201.5 321.5,-201.5"/>
<text text-anchor="start" x="329.5" y="-219.5" font-family="Helvetica,sans-Serif" font-size="10.00" fill="#000000">/home/oleg/Dev/riversim</text>
<text text-anchor="middle" x="391.5" y="-208.5" font-family="Helvetica,sans-Serif" font-size="10.00" fill="#000000">/source/river/physmodel.cpp</text>
</a>
</g>
</g>
<!-- Node8&#45;&gt;Node16 -->
<g id="edge9" class="edge">
<title>Node8&#45;&gt;Node16</title>
<path fill="none" stroke="#191970" d="M359.6408,-260.0626C366.5381,-250.6315 374.2932,-240.0276 380.4251,-231.6432"/>
<polygon fill="#191970" stroke="#191970" points="356.697,-258.1588 353.6189,-268.2967 362.3472,-262.2911 356.697,-258.1588"/>
</g>
<!-- Node17 -->
<g id="node10" class="node">
<title>Node17</title>
<g id="a_node10"><a xlink:href="tree_8hpp.html" target="_top" xlink:title="Holds all functionality that you need to work with tree of river, its separate branches and generatio...">
<polygon fill="#ffffff" stroke="#000000" points="480,-201.5 480,-231.5 603,-231.5 603,-201.5 480,-201.5"/>
<text text-anchor="start" x="488" y="-219.5" font-family="Helvetica,sans-Serif" font-size="10.00" fill="#000000">/home/oleg/Dev/riversim</text>
<text text-anchor="middle" x="541.5" y="-208.5" font-family="Helvetica,sans-Serif" font-size="10.00" fill="#000000">/source/river/tree.hpp</text>
</a>
</g>
</g>
<!-- Node8&#45;&gt;Node17 -->
<g id="edge10" class="edge">
<title>Node8&#45;&gt;Node17</title>
<path fill="none" stroke="#191970" d="M397.0342,-265.1392C428.3274,-254.6033 467.135,-241.5375 496.6457,-231.6017"/>
<polygon fill="#191970" stroke="#191970" points="395.5199,-261.9559 387.1595,-268.4639 397.7536,-268.59 395.5199,-261.9559"/>
</g>
<!-- Node19 -->
<g id="node12" class="node">
<title>Node19</title>
<g id="a_node12"><a xlink:href="solver_8hpp.html" target="_top" xlink:title="PDE Solver and Integration tool. ">
<polygon fill="#ffffff" stroke="#000000" points="621,-201.5 621,-231.5 744,-231.5 744,-201.5 621,-201.5"/>
<text text-anchor="start" x="629" y="-219.5" font-family="Helvetica,sans-Serif" font-size="10.00" fill="#000000">/home/oleg/Dev/riversim</text>
<text text-anchor="middle" x="682.5" y="-208.5" font-family="Helvetica,sans-Serif" font-size="10.00" fill="#000000">/source/river/solver.hpp</text>
</a>
</g>
</g>
<!-- Node8&#45;&gt;Node19 -->
<g id="edge13" class="edge">
<title>Node8&#45;&gt;Node19</title>
<path fill="none" stroke="#191970" d="M422.6985,-268.8425C476.473,-258.8573 548.8327,-245.1179 612.5,-232 615.182,-231.4474 617.9201,-230.8753 620.6847,-230.2911"/>
<polygon fill="#191970" stroke="#191970" points="421.735,-265.4614 412.5403,-270.7252 423.0107,-272.3442 421.735,-265.4614"/>
</g>
<!-- Node9&#45;&gt;Node10 -->
<g id="edge2" class="edge">
<title>Node9&#45;&gt;Node10</title>
<path fill="none" stroke="#191970" d="M162.5747,-197.1902C140.6989,-186.8685 114.1504,-174.3421 93.7525,-164.7177"/>
<polygon fill="#191970" stroke="#191970" points="161.095,-200.362 171.6324,-201.4639 164.0821,-194.0313 161.095,-200.362"/>
</g>
<!-- Node15 -->
<g id="node8" class="node">
<title>Node15</title>
<g id="a_node8"><a xlink:href="triangle_8cpp.html" target="_top" xlink:title="/home/oleg/Dev/riversim\l/source/river/triangle.cpp">
<polygon fill="#ffffff" stroke="#000000" points="141.5,-134.5 141.5,-164.5 265.5,-164.5 265.5,-134.5 141.5,-134.5"/>
<text text-anchor="start" x="149.5" y="-152.5" font-family="Helvetica,sans-Serif" font-size="10.00" fill="#000000">/home/oleg/Dev/riversim</text>
<text text-anchor="middle" x="203.5" y="-141.5" font-family="Helvetica,sans-Serif" font-size="10.00" fill="#000000">/source/river/triangle.cpp</text>
</a>
</g>
</g>
<!-- Node9&#45;&gt;Node15 -->
<g id="edge7" class="edge">
<title>Node9&#45;&gt;Node15</title>
<path fill="none" stroke="#191970" d="M203.5,-191.0249C203.5,-182.128 203.5,-172.4287 203.5,-164.6432"/>
<polygon fill="#191970" stroke="#191970" points="200.0001,-191.2966 203.5,-201.2967 207.0001,-191.2967 200.0001,-191.2966"/>
</g>
<!-- Node11 -->
<g id="node4" class="node">
<title>Node11</title>
<g id="a_node4"><a xlink:href="mesh_8cpp.html" target="_top" xlink:title="/home/oleg/Dev/riversim\l/source/river/mesh.cpp">
<polygon fill="#ffffff" stroke="#000000" points="0,-67.5 0,-97.5 123,-97.5 123,-67.5 0,-67.5"/>
<text text-anchor="start" x="8" y="-85.5" font-family="Helvetica,sans-Serif" font-size="10.00" fill="#000000">/home/oleg/Dev/riversim</text>
<text text-anchor="middle" x="61.5" y="-74.5" font-family="Helvetica,sans-Serif" font-size="10.00" fill="#000000">/source/river/mesh.cpp</text>
</a>
</g>
</g>
<!-- Node10&#45;&gt;Node11 -->
<g id="edge3" class="edge">
<title>Node10&#45;&gt;Node11</title>
<path fill="none" stroke="#191970" d="M61.5,-124.0249C61.5,-115.128 61.5,-105.4287 61.5,-97.6432"/>
<polygon fill="#191970" stroke="#191970" points="58.0001,-124.2966 61.5,-134.2967 65.0001,-124.2967 58.0001,-124.2966"/>
</g>
<!-- Node10&#45;&gt;Node12 -->
<g id="edge4" class="edge">
<title>Node10&#45;&gt;Node12</title>
<path fill="none" stroke="#191970" d="M132.1927,-132.0225C175.3963,-121.3411 230.0982,-107.8171 271.4171,-97.6017"/>
<polygon fill="#191970" stroke="#191970" points="131.1854,-128.6661 122.3177,-134.4639 132.8655,-135.4615 131.1854,-128.6661"/>
</g>
<!-- Node13 -->
<g id="node6" class="node">
<title>Node13</title>
<g id="a_node6"><a xlink:href="main_8cpp.html" target="_top" xlink:title="Entry point of program and main loop handler. ">
<polygon fill="#ffffff" stroke="#000000" points="200,-.5 200,-30.5 323,-30.5 323,-.5 200,-.5"/>
<text text-anchor="start" x="208" y="-18.5" font-family="Helvetica,sans-Serif" font-size="10.00" fill="#000000">/home/oleg/Dev/riversim</text>
<text text-anchor="middle" x="261.5" y="-7.5" font-family="Helvetica,sans-Serif" font-size="10.00" fill="#000000">/source/main.cpp</text>
</a>
</g>
</g>
<!-- Node12&#45;&gt;Node13 -->
<g id="edge5" class="edge">
<title>Node12&#45;&gt;Node13</title>
<path fill="none" stroke="#191970" d="M308.8806,-60.2113C298.5905,-50.5009 286.7949,-39.3698 277.5472,-30.6432"/>
<polygon fill="#191970" stroke="#191970" points="306.7139,-62.979 316.389,-67.2967 311.5181,-57.8879 306.7139,-62.979"/>
</g>
<!-- Node14 -->
<g id="node7" class="node">
<title>Node14</title>
<g id="a_node7"><a xlink:href="riversim_8cpp.html" target="_top" xlink:title="/home/oleg/Dev/riversim\l/source/river/riversim.cpp">
<polygon fill="#ffffff" stroke="#000000" points="341,-.5 341,-30.5 468,-30.5 468,-.5 341,-.5"/>
<text text-anchor="start" x="349" y="-18.5" font-family="Helvetica,sans-Serif" font-size="10.00" fill="#000000">/home/oleg/Dev/riversim</text>
<text text-anchor="middle" x="404.5" y="-7.5" font-family="Helvetica,sans-Serif" font-size="10.00" fill="#000000">/source/river/riversim.cpp</text>
</a>
</g>
</g>
<!-- Node12&#45;&gt;Node14 -->
<g id="edge6" class="edge">
<title>Node12&#45;&gt;Node14</title>
<path fill="none" stroke="#191970" d="M356.452,-60.2113C366.8871,-50.5009 378.8488,-39.3698 388.2267,-30.6432"/>
<polygon fill="#191970" stroke="#191970" points="353.7743,-57.9221 348.8379,-67.2967 358.5429,-63.0466 353.7743,-57.9221"/>
</g>
<!-- Node17&#45;&gt;Node12 -->
<g id="edge11" class="edge">
<title>Node17&#45;&gt;Node12</title>
<path fill="none" stroke="#191970" d="M504.3088,-196.5013C487.6373,-187.2699 467.8613,-175.947 450.5,-165 415.4007,-142.8684 376.2052,-114.7498 352.984,-97.7144"/>
<polygon fill="#191970" stroke="#191970" points="502.7671,-199.6478 513.2163,-201.399 506.1399,-193.5139 502.7671,-199.6478"/>
</g>
<!-- Node18 -->
<g id="node11" class="node">
<title>Node18</title>
<g id="a_node11"><a xlink:href="tree_8cpp.html" target="_top" xlink:title="/home/oleg/Dev/riversim\l/source/river/tree.cpp">
<polygon fill="#ffffff" stroke="#000000" points="460,-134.5 460,-164.5 583,-164.5 583,-134.5 460,-134.5"/>
<text text-anchor="start" x="468" y="-152.5" font-family="Helvetica,sans-Serif" font-size="10.00" fill="#000000">/home/oleg/Dev/riversim</text>
<text text-anchor="middle" x="521.5" y="-141.5" font-family="Helvetica,sans-Serif" font-size="10.00" fill="#000000">/source/river/tree.cpp</text>
</a>
</g>
</g>
<!-- Node17&#45;&gt;Node18 -->
<g id="edge12" class="edge">
<title>Node17&#45;&gt;Node18</title>
<path fill="none" stroke="#191970" d="M534.0702,-191.6103C531.3672,-182.5553 528.3955,-172.5998 526.0203,-164.6432"/>
<polygon fill="#191970" stroke="#191970" points="530.7475,-192.7156 536.9617,-201.2967 537.455,-190.7133 530.7475,-192.7156"/>
</g>
<!-- Node19&#45;&gt;Node12 -->
<g id="edge14" class="edge">
<title>Node19&#45;&gt;Node12</title>
<path fill="none" stroke="#191970" d="M660.5468,-194.0439C638.8789,-172.3653 606.8346,-141.7195 591.5,-134 557.9724,-117.1222 461.3667,-100.7649 396.0963,-91.1678"/>
<polygon fill="#191970" stroke="#191970" points="658.2053,-196.6532 667.7338,-201.2856 663.1738,-191.7223 658.2053,-196.6532"/>
</g>
<!-- Node20 -->
<g id="node13" class="node">
<title>Node20</title>
<g id="a_node13"><a xlink:href="solver_8cpp.html" target="_top" xlink:title="/home/oleg/Dev/riversim\l/source/river/solver.cpp">
<polygon fill="#ffffff" stroke="#000000" points="640,-134.5 640,-164.5 763,-164.5 763,-134.5 640,-134.5"/>
<text text-anchor="start" x="648" y="-152.5" font-family="Helvetica,sans-Serif" font-size="10.00" fill="#000000">/home/oleg/Dev/riversim</text>
<text text-anchor="middle" x="701.5" y="-141.5" font-family="Helvetica,sans-Serif" font-size="10.00" fill="#000000">/source/river/solver.cpp</text>
</a>
</g>
</g>
<!-- Node19&#45;&gt;Node20 -->
<g id="edge15" class="edge">
<title>Node19&#45;&gt;Node20</title>
<path fill="none" stroke="#191970" d="M689.5583,-191.6103C692.1261,-182.5553 694.9493,-172.5998 697.2057,-164.6432"/>
<polygon fill="#191970" stroke="#191970" points="686.1725,-190.7211 686.8114,-201.2967 692.9069,-192.6309 686.1725,-190.7211"/>
</g>
</g>
</svg>
