<?xml version="1.0" encoding="UTF-8" standalone="no"?>
<!DOCTYPE svg PUBLIC "-//W3C//DTD SVG 1.1//EN"
 "http://www.w3.org/Graphics/SVG/1.1/DTD/svg11.dtd">
<!-- Generated by graphviz version 2.40.1 (20161225.0304)
 -->
<!-- Title: /home/oleg/Dev/riversim/source/river/physmodel.hpp Pages: 1 -->
<svg width="867pt" height="307pt"
 viewBox="0.00 0.00 866.50 307.00" xmlns="http://www.w3.org/2000/svg" xmlns:xlink="http://www.w3.org/1999/xlink">
<g id="graph0" class="graph" transform="scale(1 1) rotate(0) translate(4 303)">
<title>/home/oleg/Dev/riversim/source/river/physmodel.hpp</title>
<polygon fill="#ffffff" stroke="transparent" points="-4,4 -4,-303 862.5,-303 862.5,4 -4,4"/>
<!-- Node8 -->
<g id="node1" class="node">
<title>Node8</title>
<polygon fill="#bfbfbf" stroke="#000000" points="440.5,-268.5 440.5,-298.5 580.5,-298.5 580.5,-268.5 440.5,-268.5"/>
<text text-anchor="start" x="448.5" y="-286.5" font-family="Helvetica,sans-Serif" font-size="10.00" fill="#000000">/home/oleg/Dev/riversim</text>
<text text-anchor="middle" x="510.5" y="-275.5" font-family="Helvetica,sans-Serif" font-size="10.00" fill="#000000">/source/river/physmodel.hpp</text>
</g>
<!-- Node9 -->
<g id="node2" class="node">
<title>Node9</title>
<g id="a_node2"><a xlink:href="io_8hpp.html" target="_top" xlink:title="Contains functionality to read and write state of program(simulation data). ">
<polygon fill="#ffffff" stroke="#000000" points="0,-134.5 0,-164.5 123,-164.5 123,-134.5 0,-134.5"/>
<text text-anchor="start" x="8" y="-152.5" font-family="Helvetica,sans-Serif" font-size="10.00" fill="#000000">/home/oleg/Dev/riversim</text>
<text text-anchor="middle" x="61.5" y="-141.5" font-family="Helvetica,sans-Serif" font-size="10.00" fill="#000000">/source/river/io.hpp</text>
</a>
</g>
</g>
<!-- Node8&#45;&gt;Node9 -->
<g id="edge1" class="edge">
<title>Node8&#45;&gt;Node9</title>
<path fill="none" stroke="#191970" d="M430.2104,-275.4669C346.4398,-266.3165 221.1931,-250.2484 176.5,-232 137.1454,-215.9313 98.4628,-183.9043 77.5164,-164.826"/>
<polygon fill="#191970" stroke="#191970" points="429.8942,-278.953 440.2125,-276.5482 430.6466,-271.9935 429.8942,-278.953"/>
</g>
<!-- Node11 -->
<g id="node4" class="node">
<title>Node11</title>
<g id="a_node4"><a xlink:href="riversim_8hpp.html" target="_top" xlink:title="Rivers Simulation. ">
<polygon fill="#ffffff" stroke="#000000" points="267,-67.5 267,-97.5 394,-97.5 394,-67.5 267,-67.5"/>
<text text-anchor="start" x="275" y="-85.5" font-family="Helvetica,sans-Serif" font-size="10.00" fill="#000000">/home/oleg/Dev/riversim</text>
<text text-anchor="middle" x="330.5" y="-74.5" font-family="Helvetica,sans-Serif" font-size="10.00" fill="#000000">/source/river/riversim.hpp</text>
</a>
</g>
</g>
<!-- Node8&#45;&gt;Node11 -->
<g id="edge20" class="edge">
<title>Node8&#45;&gt;Node11</title>
<path fill="none" stroke="#191970" d="M514.8404,-258.2499C518.9214,-225.68 520.6614,-169.0598 491.5,-134 478.6451,-118.545 433.4398,-104.8824 394.1907,-95.5201"/>
<polygon fill="#191970" stroke="#191970" points="511.353,-257.9138 513.4079,-268.3074 518.2831,-258.9009 511.353,-257.9138"/>
</g>
<!-- Node14 -->
<g id="node7" class="node">
<title>Node14</title>
<g id="a_node7"><a xlink:href="tree_8hpp.html" target="_top" xlink:title="Holds all functionality that you need to work with tree of river, its separate branches and generatio...">
<polygon fill="#ffffff" stroke="#000000" points="186,-201.5 186,-231.5 309,-231.5 309,-201.5 186,-201.5"/>
<text text-anchor="start" x="194" y="-219.5" font-family="Helvetica,sans-Serif" font-size="10.00" fill="#000000">/home/oleg/Dev/riversim</text>
<text text-anchor="middle" x="247.5" y="-208.5" font-family="Helvetica,sans-Serif" font-size="10.00" fill="#000000">/source/river/tree.hpp</text>
</a>
</g>
</g>
<!-- Node8&#45;&gt;Node14 -->
<g id="edge6" class="edge">
<title>Node8&#45;&gt;Node14</title>
<path fill="none" stroke="#191970" d="M441.6293,-265.955C399.7424,-255.2842 346.7945,-241.7955 306.7798,-231.6017"/>
<polygon fill="#191970" stroke="#191970" points="440.9231,-269.3868 451.4777,-268.4639 442.6512,-262.6035 440.9231,-269.3868"/>
</g>
<!-- Node16 -->
<g id="node9" class="node">
<title>Node16</title>
<g id="a_node9"><a xlink:href="triangle_8hpp.html" target="_top" xlink:title="Piece of Art Mesh Generation Tool, Winner of the 2003 James Hardy Wilkinson Prize in Numerical Softwa...">
<polygon fill="#ffffff" stroke="#000000" points="538.5,-201.5 538.5,-231.5 662.5,-231.5 662.5,-201.5 538.5,-201.5"/>
<text text-anchor="start" x="546.5" y="-219.5" font-family="Helvetica,sans-Serif" font-size="10.00" fill="#000000">/home/oleg/Dev/riversim</text>
<text text-anchor="middle" x="600.5" y="-208.5" font-family="Helvetica,sans-Serif" font-size="10.00" fill="#000000">/source/river/triangle.hpp</text>
</a>
</g>
</g>
<!-- Node8&#45;&gt;Node16 -->
<g id="edge10" class="edge">
<title>Node8&#45;&gt;Node16</title>
<path fill="none" stroke="#191970" d="M539.2942,-262.0643C552.6016,-252.1577 568.0913,-240.6265 580.1584,-231.6432"/>
<polygon fill="#191970" stroke="#191970" points="536.8537,-259.5177 530.9224,-268.2967 541.0338,-265.1327 536.8537,-259.5177"/>
</g>
<!-- Node17 -->
<g id="node10" class="node">
<title>Node17</title>
<g id="a_node10"><a xlink:href="mesh_8hpp.html" target="_top" xlink:title="Wrappers class of Triangle. ">
<polygon fill="#ffffff" stroke="#000000" points="681,-134.5 681,-164.5 804,-164.5 804,-134.5 681,-134.5"/>
<text text-anchor="start" x="689" y="-152.5" font-family="Helvetica,sans-Serif" font-size="10.00" fill="#000000">/home/oleg/Dev/riversim</text>
<text text-anchor="middle" x="742.5" y="-141.5" font-family="Helvetica,sans-Serif" font-size="10.00" fill="#000000">/source/river/mesh.hpp</text>
</a>
</g>
</g>
<!-- Node8&#45;&gt;Node17 -->
<g id="edge15" class="edge">
<title>Node8&#45;&gt;Node17</title>
<path fill="none" stroke="#191970" d="M590.6723,-267.2141C617.7942,-259.3441 647.3106,-248.0175 671.5,-232 698.5997,-214.0554 721.3347,-182.982 733.3368,-164.5222"/>
<polygon fill="#191970" stroke="#191970" points="589.499,-263.9075 580.8027,-269.9595 591.3749,-270.6515 589.499,-263.9075"/>
</g>
<!-- Node20 -->
<g id="node13" class="node">
<title>Node20</title>
<g id="a_node13"><a xlink:href="physmodel_8cpp.html" target="_top" xlink:title="/home/oleg/Dev/riversim\l/source/river/physmodel.cpp">
<polygon fill="#ffffff" stroke="#000000" points="718.5,-201.5 718.5,-231.5 858.5,-231.5 858.5,-201.5 718.5,-201.5"/>
<text text-anchor="start" x="726.5" y="-219.5" font-family="Helvetica,sans-Serif" font-size="10.00" fill="#000000">/home/oleg/Dev/riversim</text>
<text text-anchor="middle" x="788.5" y="-208.5" font-family="Helvetica,sans-Serif" font-size="10.00" fill="#000000">/source/river/physmodel.cpp</text>
</a>
</g>
</g>
<!-- Node8&#45;&gt;Node20 -->
<g id="edge16" class="edge">
<title>Node8&#45;&gt;Node20</title>
<path fill="none" stroke="#191970" d="M582.7389,-266.0899C627.102,-255.3981 683.3639,-241.8386 725.8393,-231.6017"/>
<polygon fill="#191970" stroke="#191970" points="581.7902,-262.7183 572.8886,-268.4639 583.4303,-269.5234 581.7902,-262.7183"/>
</g>
<!-- Node21 -->
<g id="node14" class="node">
<title>Node21</title>
<g id="a_node14"><a xlink:href="solver_8hpp.html" target="_top" xlink:title="PDE Solver and Integration tool. ">
<polygon fill="#ffffff" stroke="#000000" points="359,-201.5 359,-231.5 482,-231.5 482,-201.5 359,-201.5"/>
<text text-anchor="start" x="367" y="-219.5" font-family="Helvetica,sans-Serif" font-size="10.00" fill="#000000">/home/oleg/Dev/riversim</text>
<text text-anchor="middle" x="420.5" y="-208.5" font-family="Helvetica,sans-Serif" font-size="10.00" fill="#000000">/source/river/solver.hpp</text>
</a>
</g>
</g>
<!-- Node8&#45;&gt;Node21 -->
<g id="edge17" class="edge">
<title>Node8&#45;&gt;Node21</title>
<path fill="none" stroke="#191970" d="M481.7058,-262.0643C468.3984,-252.1577 452.9087,-240.6265 440.8416,-231.6432"/>
<polygon fill="#191970" stroke="#191970" points="479.9662,-265.1327 490.0776,-268.2967 484.1463,-259.5177 479.9662,-265.1327"/>
</g>
<!-- Node10 -->
<g id="node3" class="node">
<title>Node10</title>
<g id="a_node3"><a xlink:href="io_8cpp.html" target="_top" xlink:title="/home/oleg/Dev/riversim\l/source/river/io.cpp">
<polygon fill="#ffffff" stroke="#000000" points="0,-67.5 0,-97.5 123,-97.5 123,-67.5 0,-67.5"/>
<text text-anchor="start" x="8" y="-85.5" font-family="Helvetica,sans-Serif" font-size="10.00" fill="#000000">/home/oleg/Dev/riversim</text>
<text text-anchor="middle" x="61.5" y="-74.5" font-family="Helvetica,sans-Serif" font-size="10.00" fill="#000000">/source/river/io.cpp</text>
</a>
</g>
</g>
<!-- Node9&#45;&gt;Node10 -->
<g id="edge2" class="edge">
<title>Node9&#45;&gt;Node10</title>
<path fill="none" stroke="#191970" d="M61.5,-124.0249C61.5,-115.128 61.5,-105.4287 61.5,-97.6432"/>
<polygon fill="#191970" stroke="#191970" points="58.0001,-124.2966 61.5,-134.2967 65.0001,-124.2967 58.0001,-124.2966"/>
</g>
<!-- Node9&#45;&gt;Node11 -->
<g id="edge3" class="edge">
<title>Node9&#45;&gt;Node11</title>
<path fill="none" stroke="#191970" d="M131.6709,-132.0225C174.5558,-121.3411 228.8539,-107.8171 269.8678,-97.6017"/>
<polygon fill="#191970" stroke="#191970" points="130.7265,-128.6507 121.8689,-134.4639 132.4183,-135.4432 130.7265,-128.6507"/>
</g>
<!-- Node12 -->
<g id="node5" class="node">
<title>Node12</title>
<g id="a_node5"><a xlink:href="main_8cpp.html" target="_top" xlink:title="Entry point of program and main loop handler. ">
<polygon fill="#ffffff" stroke="#000000" points="198,-.5 198,-30.5 321,-30.5 321,-.5 198,-.5"/>
<text text-anchor="start" x="206" y="-18.5" font-family="Helvetica,sans-Serif" font-size="10.00" fill="#000000">/home/oleg/Dev/riversim</text>
<text text-anchor="middle" x="259.5" y="-7.5" font-family="Helvetica,sans-Serif" font-size="10.00" fill="#000000">/source/main.cpp</text>
</a>
</g>
</g>
<!-- Node11&#45;&gt;Node12 -->
<g id="edge4" class="edge">
<title>Node11&#45;&gt;Node12</title>
<path fill="none" stroke="#191970" d="M306.8806,-60.2113C296.5905,-50.5009 284.7949,-39.3698 275.5472,-30.6432"/>
<polygon fill="#191970" stroke="#191970" points="304.7139,-62.979 314.389,-67.2967 309.5181,-57.8879 304.7139,-62.979"/>
</g>
<!-- Node13 -->
<g id="node6" class="node">
<title>Node13</title>
<g id="a_node6"><a xlink:href="riversim_8cpp.html" target="_top" xlink:title="/home/oleg/Dev/riversim\l/source/river/riversim.cpp">
<polygon fill="#ffffff" stroke="#000000" points="339,-.5 339,-30.5 466,-30.5 466,-.5 339,-.5"/>
<text text-anchor="start" x="347" y="-18.5" font-family="Helvetica,sans-Serif" font-size="10.00" fill="#000000">/home/oleg/Dev/riversim</text>
<text text-anchor="middle" x="402.5" y="-7.5" font-family="Helvetica,sans-Serif" font-size="10.00" fill="#000000">/source/river/riversim.cpp</text>
</a>
</g>
</g>
<!-- Node11&#45;&gt;Node13 -->
<g id="edge5" class="edge">
<title>Node11&#45;&gt;Node13</title>
<path fill="none" stroke="#191970" d="M354.452,-60.2113C364.8871,-50.5009 376.8488,-39.3698 386.2267,-30.6432"/>
<polygon fill="#191970" stroke="#191970" points="351.7743,-57.9221 346.8379,-67.2967 356.5429,-63.0466 351.7743,-57.9221"/>
</g>
<!-- Node14&#45;&gt;Node9 -->
<g id="edge7" class="edge">
<title>Node14&#45;&gt;Node9</title>
<path fill="none" stroke="#191970" d="M196.148,-198.0023C166.9655,-187.4903 130.8876,-174.4945 103.4241,-164.6017"/>
<polygon fill="#191970" stroke="#191970" points="195.1636,-201.3677 205.758,-201.4639 197.5359,-194.782 195.1636,-201.3677"/>
</g>
<!-- Node14&#45;&gt;Node11 -->
<g id="edge8" class="edge">
<title>Node14&#45;&gt;Node11</title>
<path fill="none" stroke="#191970" d="M262.1871,-192.7882C279.1823,-165.3502 306.6684,-120.9751 321.047,-97.7614"/>
<polygon fill="#191970" stroke="#191970" points="259.1501,-191.0446 256.8598,-201.389 265.1011,-194.7307 259.1501,-191.0446"/>
</g>
<!-- Node15 -->
<g id="node8" class="node">
<title>Node15</title>
<g id="a_node8"><a xlink:href="tree_8cpp.html" target="_top" xlink:title="/home/oleg/Dev/riversim\l/source/river/tree.cpp">
<polygon fill="#ffffff" stroke="#000000" points="141,-134.5 141,-164.5 264,-164.5 264,-134.5 141,-134.5"/>
<text text-anchor="start" x="149" y="-152.5" font-family="Helvetica,sans-Serif" font-size="10.00" fill="#000000">/home/oleg/Dev/riversim</text>
<text text-anchor="middle" x="202.5" y="-141.5" font-family="Helvetica,sans-Serif" font-size="10.00" fill="#000000">/source/river/tree.cpp</text>
</a>
</g>
</g>
<!-- Node14&#45;&gt;Node15 -->
<g id="edge9" class="edge">
<title>Node14&#45;&gt;Node15</title>
<path fill="none" stroke="#191970" d="M231.5643,-192.7735C225.279,-183.4154 218.2447,-172.9421 212.6708,-164.6432"/>
<polygon fill="#191970" stroke="#191970" points="228.8077,-194.9467 237.2888,-201.2967 234.6187,-191.0438 228.8077,-194.9467"/>
</g>
<!-- Node16&#45;&gt;Node17 -->
<g id="edge11" class="edge">
<title>Node16&#45;&gt;Node17</title>
<path fill="none" stroke="#191970" d="M641.4253,-197.1902C663.3011,-186.8685 689.8496,-174.3421 710.2475,-164.7177"/>
<polygon fill="#191970" stroke="#191970" points="639.9179,-194.0313 632.3676,-201.4639 642.905,-200.362 639.9179,-194.0313"/>
</g>
<!-- Node19 -->
<g id="node12" class="node">
<title>Node19</title>
<g id="a_node12"><a xlink:href="triangle_8cpp.html" target="_top" xlink:title="/home/oleg/Dev/riversim\l/source/river/triangle.cpp">
<polygon fill="#ffffff" stroke="#000000" points="538.5,-134.5 538.5,-164.5 662.5,-164.5 662.5,-134.5 538.5,-134.5"/>
<text text-anchor="start" x="546.5" y="-152.5" font-family="Helvetica,sans-Serif" font-size="10.00" fill="#000000">/home/oleg/Dev/riversim</text>
<text text-anchor="middle" x="600.5" y="-141.5" font-family="Helvetica,sans-Serif" font-size="10.00" fill="#000000">/source/river/triangle.cpp</text>
</a>
</g>
</g>
<!-- Node16&#45;&gt;Node19 -->
<g id="edge14" class="edge">
<title>Node16&#45;&gt;Node19</title>
<path fill="none" stroke="#191970" d="M600.5,-191.0249C600.5,-182.128 600.5,-172.4287 600.5,-164.6432"/>
<polygon fill="#191970" stroke="#191970" points="597.0001,-191.2966 600.5,-201.2967 604.0001,-191.2967 597.0001,-191.2966"/>
</g>
<!-- Node17&#45;&gt;Node11 -->
<g id="edge13" class="edge">
<title>Node17&#45;&gt;Node11</title>
<path fill="none" stroke="#191970" d="M671.0445,-133.9878C568.2503,-115.2434 460.6916,-99.8693 394.1824,-90.8569"/>
<polygon fill="#191970" stroke="#191970" points="670.508,-137.4478 680.9759,-135.8122 671.7728,-130.563 670.508,-137.4478"/>
</g>
<!-- Node18 -->
<g id="node11" class="node">
<title>Node18</title>
<g id="a_node11"><a xlink:href="mesh_8cpp.html" target="_top" xlink:title="/home/oleg/Dev/riversim\l/source/river/mesh.cpp">
<polygon fill="#ffffff" stroke="#000000" points="681,-67.5 681,-97.5 804,-97.5 804,-67.5 681,-67.5"/>
<text text-anchor="start" x="689" y="-85.5" font-family="Helvetica,sans-Serif" font-size="10.00" fill="#000000">/home/oleg/Dev/riversim</text>
<text text-anchor="middle" x="742.5" y="-74.5" font-family="Helvetica,sans-Serif" font-size="10.00" fill="#000000">/source/river/mesh.cpp</text>
</a>
</g>
</g>
<!-- Node17&#45;&gt;Node18 -->
<g id="edge12" class="edge">
<title>Node17&#45;&gt;Node18</title>
<path fill="none" stroke="#191970" d="M742.5,-124.0249C742.5,-115.128 742.5,-105.4287 742.5,-97.6432"/>
<polygon fill="#191970" stroke="#191970" points="739.0001,-124.2966 742.5,-134.2967 746.0001,-124.2967 739.0001,-124.2966"/>
</g>
<!-- Node21&#45;&gt;Node11 -->
<g id="edge18" class="edge">
<title>Node21&#45;&gt;Node11</title>
<path fill="none" stroke="#191970" d="M381.928,-195.9239C369.9145,-187.7714 357.6849,-177.3628 349.5,-165 335.8689,-144.411 331.946,-115.3153 330.8597,-97.7449"/>
<polygon fill="#191970" stroke="#191970" points="380.2668,-199.0161 390.5767,-201.4572 384.0394,-193.1196 380.2668,-199.0161"/>
</g>
<!-- Node22 -->
<g id="node15" class="node">
<title>Node22</title>
<g id="a_node15"><a xlink:href="solver_8cpp.html" target="_top" xlink:title="/home/oleg/Dev/riversim\l/source/river/solver.cpp">
<polygon fill="#ffffff" stroke="#000000" points="359,-134.5 359,-164.5 482,-164.5 482,-134.5 359,-134.5"/>
<text text-anchor="start" x="367" y="-152.5" font-family="Helvetica,sans-Serif" font-size="10.00" fill="#000000">/home/oleg/Dev/riversim</text>
<text text-anchor="middle" x="420.5" y="-141.5" font-family="Helvetica,sans-Serif" font-size="10.00" fill="#000000">/source/river/solver.cpp</text>
</a>
</g>
</g>
<!-- Node21&#45;&gt;Node22 -->
<g id="edge19" class="edge">
<title>Node21&#45;&gt;Node22</title>
<path fill="none" stroke="#191970" d="M420.5,-191.0249C420.5,-182.128 420.5,-172.4287 420.5,-164.6432"/>
<polygon fill="#191970" stroke="#191970" points="417.0001,-191.2966 420.5,-201.2967 424.0001,-191.2967 417.0001,-191.2966"/>
</g>
</g>
</svg>
