<?xml version="1.0" encoding="UTF-8" standalone="no"?>
<!DOCTYPE svg PUBLIC "-//W3C//DTD SVG 1.1//EN"
 "http://www.w3.org/Graphics/SVG/1.1/DTD/svg11.dtd">
<!-- Generated by graphviz version 2.40.1 (20161225.0304)
 -->
<!-- Title: /home/oleg/Dev/riversim/source/river/physmodel.cpp Pages: 1 -->
<svg width="332pt" height="207pt"
 viewBox="0.00 0.00 331.50 207.00" xmlns="http://www.w3.org/2000/svg" xmlns:xlink="http://www.w3.org/1999/xlink">
<g id="graph0" class="graph" transform="scale(1 1) rotate(0) translate(4 203)">
<title>/home/oleg/Dev/riversim/source/river/physmodel.cpp</title>
<polygon fill="#ffffff" stroke="transparent" points="-4,4 -4,-203 327.5,-203 327.5,4 -4,4"/>
<!-- Node0 -->
<g id="node1" class="node">
<title>Node0</title>
<polygon fill="#bfbfbf" stroke="#000000" points="0,-168.5 0,-198.5 140,-198.5 140,-168.5 0,-168.5"/>
<text text-anchor="start" x="8" y="-186.5" font-family="Helvetica,sans-Serif" font-size="10.00" fill="#000000">/home/oleg/Dev/riversim</text>
<text text-anchor="middle" x="70" y="-175.5" font-family="Helvetica,sans-Serif" font-size="10.00" fill="#000000">/source/river/physmodel.cpp</text>
</g>
<!-- Node1 -->
<g id="node2" class="node">
<title>Node1</title>
<polygon fill="#ffffff" stroke="#bfbfbf" points="37,-.5 37,-19.5 91,-19.5 91,-.5 37,-.5"/>
<text text-anchor="middle" x="64" y="-7.5" font-family="Helvetica,sans-Serif" font-size="10.00" fill="#000000">iostream</text>
</g>
<!-- Node0&#45;&gt;Node1 -->
<g id="edge1" class="edge">
<title>Node0&#45;&gt;Node1</title>
<path fill="none" stroke="#191970" d="M67.3737,-168.2316C65.7521,-158.013 63.8283,-144.2435 63,-132 60.5563,-95.8775 61.8217,-53.6031 62.9326,-29.4959"/>
<polygon fill="#191970" stroke="#191970" points="66.4282,-29.6686 63.4334,-19.5059 59.437,-29.318 66.4282,-29.6686"/>
</g>
<!-- Node2 -->
<g id="node3" class="node">
<title>Node2</title>
<g id="a_node3"><a xlink:href="physmodel_8hpp.html" target="_top" xlink:title="physmodel.hpp">
<polygon fill="#ffffff" stroke="#000000" points="72.5,-112.5 72.5,-131.5 155.5,-131.5 155.5,-112.5 72.5,-112.5"/>
<text text-anchor="middle" x="114" y="-119.5" font-family="Helvetica,sans-Serif" font-size="10.00" fill="#000000">physmodel.hpp</text>
</a>
</g>
</g>
<!-- Node0&#45;&gt;Node2 -->
<g id="edge2" class="edge">
<title>Node0&#45;&gt;Node2</title>
<path fill="none" stroke="#191970" d="M80.8764,-168.2977C86.9841,-159.7609 94.6439,-149.0545 101.0588,-140.0883"/>
<polygon fill="#191970" stroke="#191970" points="103.9829,-142.0163 106.955,-131.8469 98.2899,-137.9433 103.9829,-142.0163"/>
</g>
<!-- Node2&#45;&gt;Node1 -->
<g id="edge3" class="edge">
<title>Node2&#45;&gt;Node1</title>
<path fill="none" stroke="#191970" d="M106.1448,-112.3119C99.2162,-103.3557 89.272,-89.4392 83,-76 76.0664,-61.1432 71.0998,-43.2058 67.9874,-29.7829"/>
<polygon fill="#191970" stroke="#191970" points="71.3483,-28.7663 65.8066,-19.7363 64.5076,-30.2512 71.3483,-28.7663"/>
</g>
<!-- Node3 -->
<g id="node4" class="node">
<title>Node3</title>
<polygon fill="#ffffff" stroke="#bfbfbf" points="92,-56.5 92,-75.5 136,-75.5 136,-56.5 92,-56.5"/>
<text text-anchor="middle" x="114" y="-63.5" font-family="Helvetica,sans-Serif" font-size="10.00" fill="#000000">cmath</text>
</g>
<!-- Node2&#45;&gt;Node3 -->
<g id="edge4" class="edge">
<title>Node2&#45;&gt;Node3</title>
<path fill="none" stroke="#191970" d="M114,-112.2455C114,-104.9382 114,-94.6944 114,-85.7046"/>
<polygon fill="#191970" stroke="#191970" points="117.5001,-85.6426 114,-75.6427 110.5001,-85.6427 117.5001,-85.6426"/>
</g>
<!-- Node4 -->
<g id="node5" class="node">
<title>Node4</title>
<polygon fill="#ffffff" stroke="#bfbfbf" points="154.5,-56.5 154.5,-75.5 213.5,-75.5 213.5,-56.5 154.5,-56.5"/>
<text text-anchor="middle" x="184" y="-63.5" font-family="Helvetica,sans-Serif" font-size="10.00" fill="#000000">functional</text>
</g>
<!-- Node2&#45;&gt;Node4 -->
<g id="edge5" class="edge">
<title>Node2&#45;&gt;Node4</title>
<path fill="none" stroke="#191970" d="M126.1931,-112.2455C136.6321,-103.8943 151.8655,-91.7076 164.074,-81.9408"/>
<polygon fill="#191970" stroke="#191970" points="166.3244,-84.6227 171.9467,-75.6427 161.9515,-79.1566 166.3244,-84.6227"/>
</g>
<!-- Node5 -->
<g id="node6" class="node">
<title>Node5</title>
<g id="a_node6"><a xlink:href="common_8hpp.html" target="_top" xlink:title="common.hpp">
<polygon fill="#ffffff" stroke="#000000" points="231.5,-56.5 231.5,-75.5 304.5,-75.5 304.5,-56.5 231.5,-56.5"/>
<text text-anchor="middle" x="268" y="-63.5" font-family="Helvetica,sans-Serif" font-size="10.00" fill="#000000">common.hpp</text>
</a>
</g>
</g>
<!-- Node2&#45;&gt;Node5 -->
<g id="edge6" class="edge">
<title>Node2&#45;&gt;Node5</title>
<path fill="none" stroke="#191970" d="M140.4735,-112.3733C165.8597,-103.1419 204.3645,-89.1402 232.422,-78.9375"/>
<polygon fill="#191970" stroke="#191970" points="233.6701,-82.2079 241.8719,-75.5011 231.2778,-75.6293 233.6701,-82.2079"/>
</g>
<!-- Node5&#45;&gt;Node1 -->
<g id="edge9" class="edge">
<title>Node5&#45;&gt;Node1</title>
<path fill="none" stroke="#191970" d="M232.9311,-56.3733C196.1735,-46.2829 138.6534,-30.4931 101.1385,-20.1949"/>
<polygon fill="#191970" stroke="#191970" points="101.6915,-16.7173 91.1217,-17.4452 99.8385,-23.4676 101.6915,-16.7173"/>
</g>
<!-- Node6 -->
<g id="node7" class="node">
<title>Node6</title>
<polygon fill="#ffffff" stroke="#bfbfbf" points="214,-.5 214,-19.5 258,-19.5 258,-.5 214,-.5"/>
<text text-anchor="middle" x="236" y="-7.5" font-family="Helvetica,sans-Serif" font-size="10.00" fill="#000000">vector</text>
</g>
<!-- Node5&#45;&gt;Node6 -->
<g id="edge7" class="edge">
<title>Node5&#45;&gt;Node6</title>
<path fill="none" stroke="#191970" d="M262.426,-56.2455C258.0669,-48.617 251.8789,-37.7881 246.5867,-28.5267"/>
<polygon fill="#191970" stroke="#191970" points="249.5104,-26.5886 241.5101,-19.6427 243.4327,-30.0616 249.5104,-26.5886"/>
</g>
<!-- Node7 -->
<g id="node8" class="node">
<title>Node7</title>
<polygon fill="#ffffff" stroke="#bfbfbf" points="276.5,-.5 276.5,-19.5 323.5,-19.5 323.5,-.5 276.5,-.5"/>
<text text-anchor="middle" x="300" y="-7.5" font-family="Helvetica,sans-Serif" font-size="10.00" fill="#000000">math.h</text>
</g>
<!-- Node5&#45;&gt;Node7 -->
<g id="edge8" class="edge">
<title>Node5&#45;&gt;Node7</title>
<path fill="none" stroke="#191970" d="M273.574,-56.2455C277.9331,-48.617 284.1211,-37.7881 289.4133,-28.5267"/>
<polygon fill="#191970" stroke="#191970" points="292.5673,-30.0616 294.4899,-19.6427 286.4896,-26.5886 292.5673,-30.0616"/>
</g>
</g>
</svg>
