<?xml version="1.0" encoding="UTF-8" standalone="no"?>
<!DOCTYPE svg PUBLIC "-//W3C//DTD SVG 1.1//EN"
 "http://www.w3.org/Graphics/SVG/1.1/DTD/svg11.dtd">
<!-- Generated by graphviz version 2.40.1 (20161225.0304)
 -->
<!-- Title: riversim.hpp Pages: 1 -->
<svg width="634pt" height="252pt"
 viewBox="0.00 0.00 634.41 252.00" xmlns="http://www.w3.org/2000/svg" xmlns:xlink="http://www.w3.org/1999/xlink">
<g id="graph0" class="graph" transform="scale(1 1) rotate(0) translate(4 248)">
<title>riversim.hpp</title>
<polygon fill="#ffffff" stroke="transparent" points="-4,4 -4,-248 630.4131,-248 630.4131,4 -4,4"/>
<!-- Node0 -->
<g id="node1" class="node">
<title>Node0</title>
<polygon fill="#bfbfbf" stroke="#000000" points="226.9131,-224.5 226.9131,-243.5 304.9131,-243.5 304.9131,-224.5 226.9131,-224.5"/>
<text text-anchor="middle" x="265.9131" y="-231.5" font-family="Helvetica,sans-Serif" font-size="10.00" fill="#000000">riversim.hpp</text>
</g>
<!-- Node1 -->
<g id="node2" class="node">
<title>Node1</title>
<g id="a_node2"><a xlink:href="utilities_8hpp.html" target="_top" xlink:title="Console printouts, version, title and timing of program execution. ">
<polygon fill="#ffffff" stroke="#000000" points="12.9131,-112.5 12.9131,-131.5 86.9131,-131.5 86.9131,-112.5 12.9131,-112.5"/>
<text text-anchor="middle" x="49.9131" y="-119.5" font-family="Helvetica,sans-Serif" font-size="10.00" fill="#000000">utilities.hpp</text>
</a>
</g>
</g>
<!-- Node0&#45;&gt;Node1 -->
<g id="edge1" class="edge">
<title>Node0&#45;&gt;Node1</title>
<path fill="none" stroke="#191970" d="M242.9138,-224.4177C222.033,-215.5326 190.5275,-201.6612 163.9131,-188 132.2624,-171.7536 96.9812,-150.8802 74.1698,-137.0027"/>
<polygon fill="#191970" stroke="#191970" points="75.8504,-133.9278 65.4934,-131.6955 72.1977,-139.8993 75.8504,-133.9278"/>
</g>
<!-- Node3 -->
<g id="node4" class="node">
<title>Node3</title>
<g id="a_node4"><a xlink:href="tree_8hpp.html" target="_top" xlink:title="Holds all functionality that you need to work with tree(network) of river, its separate branches and ...">
<polygon fill="#ffffff" stroke="#000000" points="237.4131,-112.5 237.4131,-131.5 294.4131,-131.5 294.4131,-112.5 237.4131,-112.5"/>
<text text-anchor="middle" x="265.9131" y="-119.5" font-family="Helvetica,sans-Serif" font-size="10.00" fill="#000000">tree.hpp</text>
</a>
</g>
</g>
<!-- Node0&#45;&gt;Node3 -->
<g id="edge3" class="edge">
<title>Node0&#45;&gt;Node3</title>
<path fill="none" stroke="#191970" d="M265.9131,-224.4509C265.9131,-206.184 265.9131,-165.9553 265.9131,-141.6976"/>
<polygon fill="#191970" stroke="#191970" points="269.4132,-141.5249 265.9131,-131.5249 262.4132,-141.5249 269.4132,-141.5249"/>
</g>
<!-- Node6 -->
<g id="node7" class="node">
<title>Node6</title>
<g id="a_node7"><a xlink:href="physmodel_8hpp.html" target="_top" xlink:title="Contains all RiverSim program parameters. ">
<polygon fill="#ffffff" stroke="#000000" points="405.9131,-56.5 405.9131,-75.5 497.9131,-75.5 497.9131,-56.5 405.9131,-56.5"/>
<text text-anchor="middle" x="451.9131" y="-63.5" font-family="Helvetica,sans-Serif" font-size="10.00" fill="#000000">physmodel.hpp</text>
</a>
</g>
</g>
<!-- Node0&#45;&gt;Node6 -->
<g id="edge19" class="edge">
<title>Node0&#45;&gt;Node6</title>
<path fill="none" stroke="#191970" d="M305.0716,-229.5733C341.1444,-224.1196 395.0993,-212.3867 435.9131,-188 465.3303,-170.4229 476.236,-163.8373 488.9131,-132 495.8349,-114.6167 483.5998,-96.1453 471.3827,-83.1782"/>
<polygon fill="#191970" stroke="#191970" points="473.5355,-80.3867 463.9495,-75.8745 468.6294,-85.3797 473.5355,-80.3867"/>
</g>
<!-- Node7 -->
<g id="node8" class="node">
<title>Node7</title>
<g id="a_node8"><a xlink:href="border_8hpp.html" target="_top" xlink:title="Generate initial predefinide border geometry and its source positions. ">
<polygon fill="#ffffff" stroke="#000000" points="145.9131,-56.5 145.9131,-75.5 213.9131,-75.5 213.9131,-56.5 145.9131,-56.5"/>
<text text-anchor="middle" x="179.9131" y="-63.5" font-family="Helvetica,sans-Serif" font-size="10.00" fill="#000000">border.hpp</text>
</a>
</g>
</g>
<!-- Node0&#45;&gt;Node7 -->
<g id="edge20" class="edge">
<title>Node0&#45;&gt;Node7</title>
<path fill="none" stroke="#191970" d="M226.8377,-224.7503C160.0675,-208.0388 28.7859,-170.9188 3.9131,-132 -.8736,-124.5101 -1.5198,-119.0353 3.9131,-112 19.8848,-91.3175 88.7514,-78.1526 135.454,-71.4286"/>
<polygon fill="#191970" stroke="#191970" points="136.2147,-74.8566 145.6376,-70.0131 135.2509,-67.9233 136.2147,-74.8566"/>
</g>
<!-- Node8 -->
<g id="node9" class="node">
<title>Node8</title>
<g id="a_node9"><a xlink:href="mesh_8hpp.html" target="_top" xlink:title="Mesh generation functionality. ">
<polygon fill="#ffffff" stroke="#000000" points="361.4131,-168.5 361.4131,-187.5 426.4131,-187.5 426.4131,-168.5 361.4131,-168.5"/>
<text text-anchor="middle" x="393.9131" y="-175.5" font-family="Helvetica,sans-Serif" font-size="10.00" fill="#000000">mesh.hpp</text>
</a>
</g>
</g>
<!-- Node0&#45;&gt;Node8 -->
<g id="edge10" class="edge">
<title>Node0&#45;&gt;Node8</title>
<path fill="none" stroke="#191970" d="M287.9171,-224.3733C308.5566,-215.3435 339.6289,-201.7494 362.802,-191.6111"/>
<polygon fill="#191970" stroke="#191970" points="364.4376,-194.7159 372.1963,-187.5011 361.6318,-188.3028 364.4376,-194.7159"/>
</g>
<!-- Node10 -->
<g id="node11" class="node">
<title>Node10</title>
<g id="a_node11"><a xlink:href="solver_8hpp.html" target="_top" xlink:title="PDE Solver and Integration tool. ">
<polygon fill="#ffffff" stroke="#000000" points="559.4131,-112.5 559.4131,-131.5 626.4131,-131.5 626.4131,-112.5 559.4131,-112.5"/>
<text text-anchor="middle" x="592.9131" y="-119.5" font-family="Helvetica,sans-Serif" font-size="10.00" fill="#000000">solver.hpp</text>
</a>
</g>
</g>
<!-- Node0&#45;&gt;Node10 -->
<g id="edge15" class="edge">
<title>Node0&#45;&gt;Node10</title>
<path fill="none" stroke="#191970" d="M305.1281,-231.2014C372.1741,-225.821 505.429,-212.355 544.9131,-188 562.9164,-176.8951 576.2463,-156.2954 584.2307,-141.0523"/>
<polygon fill="#191970" stroke="#191970" points="587.4285,-142.4808 588.7011,-131.9626 581.1471,-139.3915 587.4285,-142.4808"/>
</g>
<!-- Node11 -->
<g id="node12" class="node">
<title>Node11</title>
<g id="a_node12"><a xlink:href="io_8hpp.html" target="_top" xlink:title="Contains functionality to read and write state of program(simulation data) and program options...">
<polygon fill="#ffffff" stroke="#000000" points="173.4131,-168.5 173.4131,-187.5 220.4131,-187.5 220.4131,-168.5 173.4131,-168.5"/>
<text text-anchor="middle" x="196.9131" y="-175.5" font-family="Helvetica,sans-Serif" font-size="10.00" fill="#000000">io.hpp</text>
</a>
</g>
</g>
<!-- Node0&#45;&gt;Node11 -->
<g id="edge21" class="edge">
<title>Node0&#45;&gt;Node11</title>
<path fill="none" stroke="#191970" d="M253.8943,-224.2455C243.7033,-215.9746 228.8769,-203.9416 216.9025,-194.2232"/>
<polygon fill="#191970" stroke="#191970" points="218.7645,-191.2268 208.7943,-187.6427 214.3533,-196.662 218.7645,-191.2268"/>
</g>
<!-- Node2 -->
<g id="node3" class="node">
<title>Node2</title>
<g id="a_node3"><a xlink:href="version_8hpp.html" target="_top" xlink:title="Holds macros values of current version(MAJOR.MINOR.PATCH). ">
<polygon fill="#ffffff" stroke="#000000" points="12.9131,-56.5 12.9131,-75.5 86.9131,-75.5 86.9131,-56.5 12.9131,-56.5"/>
<text text-anchor="middle" x="49.9131" y="-63.5" font-family="Helvetica,sans-Serif" font-size="10.00" fill="#000000">version.hpp</text>
</a>
</g>
</g>
<!-- Node1&#45;&gt;Node2 -->
<g id="edge2" class="edge">
<title>Node1&#45;&gt;Node2</title>
<path fill="none" stroke="#191970" d="M49.9131,-112.2455C49.9131,-104.9382 49.9131,-94.6944 49.9131,-85.7046"/>
<polygon fill="#191970" stroke="#191970" points="53.4132,-85.6426 49.9131,-75.6427 46.4132,-85.6427 53.4132,-85.6426"/>
</g>
<!-- Node4 -->
<g id="node5" class="node">
<title>Node4</title>
<g id="a_node5"><a xlink:href="GeometryPrimitives_8hpp.html" target="_top" xlink:title="Common geometric entities like Vectors, Lines etc., to whole program. ">
<polygon fill="#ffffff" stroke="#000000" points="286.9131,-.5 286.9131,-19.5 422.9131,-19.5 422.9131,-.5 286.9131,-.5"/>
<text text-anchor="middle" x="354.9131" y="-7.5" font-family="Helvetica,sans-Serif" font-size="10.00" fill="#000000">GeometryPrimitives.hpp</text>
</a>
</g>
</g>
<!-- Node3&#45;&gt;Node4 -->
<g id="edge4" class="edge">
<title>Node3&#45;&gt;Node4</title>
<path fill="none" stroke="#191970" d="M271.6466,-112.2084C279.5769,-98.9627 294.6502,-74.8279 309.9131,-56 318.2082,-45.7675 328.408,-35.2027 336.9984,-26.7824"/>
<polygon fill="#191970" stroke="#191970" points="339.5554,-29.1792 344.3343,-19.7234 334.7017,-24.1352 339.5554,-29.1792"/>
</g>
<!-- Node5 -->
<g id="node6" class="node">
<title>Node5</title>
<g id="a_node6"><a xlink:href="tethex_8hpp.html" target="_top" xlink:title="Classes for holding mesh and converting by splitting triangles to quadrangles. ">
<polygon fill="#ffffff" stroke="#000000" points="318.4131,-56.5 318.4131,-75.5 387.4131,-75.5 387.4131,-56.5 318.4131,-56.5"/>
<text text-anchor="middle" x="352.9131" y="-63.5" font-family="Helvetica,sans-Serif" font-size="10.00" fill="#000000">tethex.hpp</text>
</a>
</g>
</g>
<!-- Node3&#45;&gt;Node5 -->
<g id="edge5" class="edge">
<title>Node3&#45;&gt;Node5</title>
<path fill="none" stroke="#191970" d="M281.0674,-112.2455C294.4159,-103.6534 314.0718,-91.0014 329.4514,-81.1018"/>
<polygon fill="#191970" stroke="#191970" points="331.4183,-83.9982 337.9326,-75.6427 327.6295,-78.1121 331.4183,-83.9982"/>
</g>
<!-- Node3&#45;&gt;Node6 -->
<g id="edge6" class="edge">
<title>Node3&#45;&gt;Node6</title>
<path fill="none" stroke="#191970" d="M294.568,-113.3727C325.4531,-104.074 374.9087,-89.1841 410.1264,-78.581"/>
<polygon fill="#191970" stroke="#191970" points="411.5415,-81.8102 420.1079,-75.5758 409.5234,-75.1074 411.5415,-81.8102"/>
</g>
<!-- Node3&#45;&gt;Node7 -->
<g id="edge8" class="edge">
<title>Node3&#45;&gt;Node7</title>
<path fill="none" stroke="#191970" d="M250.9331,-112.2455C237.738,-103.6534 218.3081,-91.0014 203.1052,-81.1018"/>
<polygon fill="#191970" stroke="#191970" points="205.0114,-78.1665 194.7215,-75.6427 201.1917,-84.0325 205.0114,-78.1665"/>
</g>
<!-- Node6&#45;&gt;Node4 -->
<g id="edge7" class="edge">
<title>Node6&#45;&gt;Node4</title>
<path fill="none" stroke="#191970" d="M435.017,-56.2455C419.9952,-47.5731 397.8088,-34.7645 380.5921,-24.825"/>
<polygon fill="#191970" stroke="#191970" points="382.026,-21.6114 371.6156,-19.6427 378.5261,-27.6737 382.026,-21.6114"/>
</g>
<!-- Node7&#45;&gt;Node4 -->
<g id="edge9" class="edge">
<title>Node7&#45;&gt;Node4</title>
<path fill="none" stroke="#191970" d="M209.9967,-56.3733C239.0966,-47.0613 283.3654,-32.8953 315.3162,-22.671"/>
<polygon fill="#191970" stroke="#191970" points="316.7646,-25.8824 325.2221,-19.5011 314.6311,-19.2155 316.7646,-25.8824"/>
</g>
<!-- Node8&#45;&gt;Node5 -->
<g id="edge13" class="edge">
<title>Node8&#45;&gt;Node5</title>
<path fill="none" stroke="#191970" d="M390.4175,-168.4509C383.67,-150.0186 368.7367,-109.2254 359.8842,-85.043"/>
<polygon fill="#191970" stroke="#191970" points="363.1243,-83.7123 356.3999,-75.5249 356.5509,-86.1187 363.1243,-83.7123"/>
</g>
<!-- Node8&#45;&gt;Node6 -->
<g id="edge14" class="edge">
<title>Node8&#45;&gt;Node6</title>
<path fill="none" stroke="#191970" d="M425.8031,-168.4777C443.3308,-161.43 463.5637,-149.8893 473.9131,-132 482.5622,-117.0499 474.684,-98.208 466.0439,-84.4871"/>
<polygon fill="#191970" stroke="#191970" points="468.6925,-82.1626 460.1343,-75.9169 462.9297,-86.1364 468.6925,-82.1626"/>
</g>
<!-- Node9 -->
<g id="node10" class="node">
<title>Node9</title>
<g id="a_node10"><a xlink:href="triangle_8hpp.html" target="_top" xlink:title="Piece of Art Mesh Generation Tool, Winner of the 2003 James Hardy Wilkinson Prize in Numerical Softwa...">
<polygon fill="#ffffff" stroke="#000000" points="389.4131,-112.5 389.4131,-131.5 464.4131,-131.5 464.4131,-112.5 389.4131,-112.5"/>
<text text-anchor="middle" x="426.9131" y="-119.5" font-family="Helvetica,sans-Serif" font-size="10.00" fill="#000000">triangle.hpp</text>
</a>
</g>
</g>
<!-- Node8&#45;&gt;Node9 -->
<g id="edge11" class="edge">
<title>Node8&#45;&gt;Node9</title>
<path fill="none" stroke="#191970" d="M399.6613,-168.2455C404.1567,-160.617 410.538,-149.7881 415.9956,-140.5267"/>
<polygon fill="#191970" stroke="#191970" points="419.1693,-142.035 421.2308,-131.6427 413.1385,-138.4811 419.1693,-142.035"/>
</g>
<!-- Node9&#45;&gt;Node6 -->
<g id="edge12" class="edge">
<title>Node9&#45;&gt;Node6</title>
<path fill="none" stroke="#191970" d="M431.2678,-112.2455C434.6375,-104.6973 439.4061,-94.0158 443.5115,-84.8197"/>
<polygon fill="#191970" stroke="#191970" points="446.7278,-86.2009 447.6084,-75.6427 440.3358,-83.3473 446.7278,-86.2009"/>
</g>
<!-- Node10&#45;&gt;Node4 -->
<g id="edge16" class="edge">
<title>Node10&#45;&gt;Node4</title>
<path fill="none" stroke="#191970" d="M582.8975,-112.3302C567.6615,-98.1076 537.2193,-71.5557 506.9131,-56 476.9425,-40.6165 440.9544,-29.4386 411.5206,-21.9563"/>
<polygon fill="#191970" stroke="#191970" points="412.3554,-18.5574 401.8081,-19.5597 410.6784,-25.3536 412.3554,-18.5574"/>
</g>
<!-- Node10&#45;&gt;Node5 -->
<g id="edge17" class="edge">
<title>Node10&#45;&gt;Node5</title>
<path fill="none" stroke="#191970" d="M559.2895,-114.1545C516.9834,-104.2831 444.207,-87.3019 397.3487,-76.3683"/>
<polygon fill="#191970" stroke="#191970" points="398.0087,-72.9283 387.4749,-74.0644 396.418,-79.7452 398.0087,-72.9283"/>
</g>
<!-- Node10&#45;&gt;Node6 -->
<g id="edge18" class="edge">
<title>Node10&#45;&gt;Node6</title>
<path fill="none" stroke="#191970" d="M568.6744,-112.3733C545.6342,-103.2226 510.7917,-89.3844 485.1631,-79.2057"/>
<polygon fill="#191970" stroke="#191970" points="486.4214,-75.9395 475.8356,-75.5011 483.8375,-82.4452 486.4214,-75.9395"/>
</g>
<!-- Node11&#45;&gt;Node1 -->
<g id="edge26" class="edge">
<title>Node11&#45;&gt;Node1</title>
<path fill="none" stroke="#191970" d="M173.295,-169.0026C149.2973,-159.8606 111.8669,-145.6014 84.5228,-135.1846"/>
<polygon fill="#191970" stroke="#191970" points="85.5395,-131.8266 74.9486,-131.5373 83.0474,-138.368 85.5395,-131.8266"/>
</g>
<!-- Node11&#45;&gt;Node3 -->
<g id="edge24" class="edge">
<title>Node11&#45;&gt;Node3</title>
<path fill="none" stroke="#191970" d="M208.932,-168.2455C219.123,-159.9746 233.9493,-147.9416 245.9238,-138.2232"/>
<polygon fill="#191970" stroke="#191970" points="248.473,-140.662 254.032,-131.6427 244.0618,-135.2268 248.473,-140.662"/>
</g>
<!-- Node11&#45;&gt;Node6 -->
<g id="edge23" class="edge">
<title>Node11&#45;&gt;Node6</title>
<path fill="none" stroke="#191970" d="M219.4958,-168.3959C241.1775,-159.1503 274.8332,-144.7342 303.9131,-132 344.4319,-114.2567 391.0058,-93.4129 420.9134,-79.9698"/>
<polygon fill="#191970" stroke="#191970" points="422.7002,-83.0039 430.3842,-75.7097 419.8286,-76.62 422.7002,-83.0039"/>
</g>
<!-- Node11&#45;&gt;Node7 -->
<g id="edge22" class="edge">
<title>Node11&#45;&gt;Node7</title>
<path fill="none" stroke="#191970" d="M174.8066,-168.4742C160.2801,-160.902 142.4394,-148.7828 133.9131,-132 124.5935,-113.6557 141.2339,-94.5676 157.0421,-81.6669"/>
<polygon fill="#191970" stroke="#191970" points="159.267,-84.3717 165.0911,-75.5213 155.0189,-78.8081 159.267,-84.3717"/>
</g>
<!-- Node12 -->
<g id="node13" class="node">
<title>Node12</title>
<polygon fill="#ffffff" stroke="#bfbfbf" points="142.9131,-112.5 142.9131,-131.5 218.9131,-131.5 218.9131,-112.5 142.9131,-112.5"/>
<text text-anchor="middle" x="180.9131" y="-119.5" font-family="Helvetica,sans-Serif" font-size="10.00" fill="#000000">cxxopts.hpp</text>
</g>
<!-- Node11&#45;&gt;Node12 -->
<g id="edge25" class="edge">
<title>Node11&#45;&gt;Node12</title>
<path fill="none" stroke="#191970" d="M194.1262,-168.2455C192.0154,-160.8579 189.0471,-150.4689 186.4585,-141.4087"/>
<polygon fill="#191970" stroke="#191970" points="189.7808,-140.2964 183.6682,-131.6427 183.0501,-142.2195 189.7808,-140.2964"/>
</g>
</g>
</svg>
