<?xml version="1.0" encoding="UTF-8" standalone="no"?>
<!DOCTYPE svg PUBLIC "-//W3C//DTD SVG 1.1//EN"
 "http://www.w3.org/Graphics/SVG/1.1/DTD/svg11.dtd">
<!-- Generated by graphviz version 2.40.1 (20161225.0304)
 -->
<!-- Title: /home/oleg/Dev/riversim/source/river/riversim.cpp Pages: 1 -->
<svg width="4401pt" height="386pt"
 viewBox="0.00 0.00 4401.09 386.00" xmlns="http://www.w3.org/2000/svg" xmlns:xlink="http://www.w3.org/1999/xlink">
<g id="graph0" class="graph" transform="scale(1 1) rotate(0) translate(4 382)">
<title>/home/oleg/Dev/riversim/source/river/riversim.cpp</title>
<polygon fill="#ffffff" stroke="transparent" points="-4,4 -4,-382 4397.0932,-382 4397.0932,4 -4,4"/>
<!-- Node0 -->
<g id="node1" class="node">
<title>Node0</title>
<polygon fill="#bfbfbf" stroke="#000000" points="220.5932,-347.5 220.5932,-377.5 347.5932,-377.5 347.5932,-347.5 220.5932,-347.5"/>
<text text-anchor="start" x="228.5932" y="-365.5" font-family="Helvetica,sans-Serif" font-size="10.00" fill="#000000">/home/oleg/Dev/riversim</text>
<text text-anchor="middle" x="284.0932" y="-354.5" font-family="Helvetica,sans-Serif" font-size="10.00" fill="#000000">/source/river/riversim.cpp</text>
</g>
<!-- Node1 -->
<g id="node2" class="node">
<title>Node1</title>
<g id="a_node2"><a xlink:href="riversim_8hpp.html" target="_top" xlink:title="Rivers Simulation. ">
<polygon fill="#ffffff" stroke="#000000" points="249.0932,-291.5 249.0932,-310.5 319.0932,-310.5 319.0932,-291.5 249.0932,-291.5"/>
<text text-anchor="middle" x="284.0932" y="-298.5" font-family="Helvetica,sans-Serif" font-size="10.00" fill="#000000">riversim.hpp</text>
</a>
</g>
</g>
<!-- Node0&#45;&gt;Node1 -->
<g id="edge1" class="edge">
<title>Node0&#45;&gt;Node1</title>
<path fill="none" stroke="#191970" d="M284.0932,-347.2977C284.0932,-339.3834 284.0932,-329.6043 284.0932,-321.0759"/>
<polygon fill="#191970" stroke="#191970" points="287.5933,-320.8469 284.0932,-310.8469 280.5933,-320.847 287.5933,-320.8469"/>
</g>
<!-- Node2 -->
<g id="node3" class="node">
<title>Node2</title>
<g id="a_node3"><a xlink:href="utilities_8hpp.html" target="_top" xlink:title="Console printouts, version, title and program options processing. ">
<polygon fill="#ffffff" stroke="#000000" points="14.0932,-235.5 14.0932,-254.5 80.0932,-254.5 80.0932,-235.5 14.0932,-235.5"/>
<text text-anchor="middle" x="47.0932" y="-242.5" font-family="Helvetica,sans-Serif" font-size="10.00" fill="#000000">utilities.hpp</text>
</a>
</g>
</g>
<!-- Node1&#45;&gt;Node2 -->
<g id="edge2" class="edge">
<title>Node1&#45;&gt;Node2</title>
<path fill="none" stroke="#191970" d="M248.8678,-292.6767C206.55,-282.6776 135.5825,-265.9089 90.0791,-255.157"/>
<polygon fill="#191970" stroke="#191970" points="90.752,-251.7197 80.2151,-252.8263 89.1423,-258.5321 90.752,-251.7197"/>
</g>
<!-- Node4 -->
<g id="node5" class="node">
<title>Node4</title>
<g id="a_node5"><a xlink:href="tree_8hpp.html" target="_top" xlink:title="Holds all functionality that you need to work with tree of river, its separate branches and generatio...">
<polygon fill="#ffffff" stroke="#000000" points="223.0932,-179.5 223.0932,-198.5 275.0932,-198.5 275.0932,-179.5 223.0932,-179.5"/>
<text text-anchor="middle" x="249.0932" y="-186.5" font-family="Helvetica,sans-Serif" font-size="10.00" fill="#000000">tree.hpp</text>
</a>
</g>
</g>
<!-- Node1&#45;&gt;Node4 -->
<g id="edge4" class="edge">
<title>Node1&#45;&gt;Node4</title>
<path fill="none" stroke="#191970" d="M281.1091,-291.4509C275.3749,-273.1013 262.7153,-232.5908 255.1461,-208.3693"/>
<polygon fill="#191970" stroke="#191970" points="258.3932,-207.0257 252.0697,-198.5249 251.7119,-209.1137 258.3932,-207.0257"/>
</g>
<!-- Node14 -->
<g id="node13" class="node">
<title>Node14</title>
<g id="a_node13"><a xlink:href="physmodel_8hpp.html" target="_top" xlink:title="Physical model incapsulation. ">
<polygon fill="#ffffff" stroke="#ff0000" points="297.5932,-118 297.5932,-137 380.5932,-137 380.5932,-118 297.5932,-118"/>
<text text-anchor="middle" x="339.0932" y="-125" font-family="Helvetica,sans-Serif" font-size="10.00" fill="#000000">physmodel.hpp</text>
</a>
</g>
</g>
<!-- Node1&#45;&gt;Node14 -->
<g id="edge74" class="edge">
<title>Node1&#45;&gt;Node14</title>
<path fill="none" stroke="#191970" d="M286.9951,-291.4914C293.2822,-270.9334 308.6771,-220.8257 322.0932,-179 325.4781,-168.4472 329.3441,-156.7115 332.5333,-147.1113"/>
<polygon fill="#191970" stroke="#191970" points="335.9429,-147.9504 335.7847,-137.3568 329.3021,-145.7369 335.9429,-147.9504"/>
</g>
<!-- Node18 -->
<g id="node15" class="node">
<title>Node18</title>
<g id="a_node15"><a xlink:href="border_8hpp.html" target="_top" xlink:title="Generate initial predefinide border geometry and its source positions. ">
<polygon fill="#ffffff" stroke="#000000" points="103.0932,-118 103.0932,-137 165.0932,-137 165.0932,-118 103.0932,-118"/>
<text text-anchor="middle" x="134.0932" y="-125" font-family="Helvetica,sans-Serif" font-size="10.00" fill="#000000">border.hpp</text>
</a>
</g>
</g>
<!-- Node1&#45;&gt;Node18 -->
<g id="edge75" class="edge">
<title>Node1&#45;&gt;Node18</title>
<path fill="none" stroke="#191970" d="M254.2539,-291.4333C216.9645,-277.6784 154.8052,-248.3807 128.0932,-199 119.5086,-183.1302 122.559,-162.3296 126.8265,-147.2582"/>
<polygon fill="#191970" stroke="#191970" points="130.2519,-148.0406 130,-137.4488 123.5918,-145.8859 130.2519,-148.0406"/>
</g>
<!-- Node19 -->
<g id="node16" class="node">
<title>Node19</title>
<g id="a_node16"><a xlink:href="mesh_8hpp.html" target="_top" xlink:title="Wrappers classes to Triangle and Gmsh. ">
<polygon fill="#ffffff" stroke="#000000" points="398.5932,-235.5 398.5932,-254.5 457.5932,-254.5 457.5932,-235.5 398.5932,-235.5"/>
<text text-anchor="middle" x="428.0932" y="-242.5" font-family="Helvetica,sans-Serif" font-size="10.00" fill="#000000">mesh.hpp</text>
</a>
</g>
</g>
<!-- Node1&#45;&gt;Node19 -->
<g id="edge28" class="edge">
<title>Node1&#45;&gt;Node19</title>
<path fill="none" stroke="#191970" d="M308.8477,-291.3733C332.3781,-282.2226 367.9619,-268.3844 394.1358,-258.2057"/>
<polygon fill="#191970" stroke="#191970" points="395.6103,-261.3877 403.6618,-254.5011 393.0731,-254.8636 395.6103,-261.3877"/>
</g>
<!-- Node24 -->
<g id="node21" class="node">
<title>Node24</title>
<g id="a_node21"><a xlink:href="solver_8hpp.html" target="_top" xlink:title="PDE Solver and Integration tool. ">
<polygon fill="#ffffff" stroke="#000000" points="2276.0932,-179.5 2276.0932,-198.5 2338.0932,-198.5 2338.0932,-179.5 2276.0932,-179.5"/>
<text text-anchor="middle" x="2307.0932" y="-186.5" font-family="Helvetica,sans-Serif" font-size="10.00" fill="#000000">solver.hpp</text>
</a>
</g>
</g>
<!-- Node1&#45;&gt;Node24 -->
<g id="edge38" class="edge">
<title>Node1&#45;&gt;Node24</title>
<path fill="none" stroke="#191970" d="M319.2062,-299.056C563.0786,-285.5544 2002.4781,-205.8645 2265.7554,-191.2886"/>
<polygon fill="#191970" stroke="#191970" points="2266.2281,-194.7679 2276.0193,-190.7204 2265.8411,-187.7786 2266.2281,-194.7679"/>
</g>
<!-- Node3 -->
<g id="node4" class="node">
<title>Node3</title>
<polygon fill="#ffffff" stroke="#bfbfbf" points="11.0932,-179.5 11.0932,-198.5 81.0932,-198.5 81.0932,-179.5 11.0932,-179.5"/>
<text text-anchor="middle" x="46.0932" y="-186.5" font-family="Helvetica,sans-Serif" font-size="10.00" fill="#000000">cxxopts.hpp</text>
</g>
<!-- Node2&#45;&gt;Node3 -->
<g id="edge3" class="edge">
<title>Node2&#45;&gt;Node3</title>
<path fill="none" stroke="#191970" d="M46.919,-235.2455C46.7885,-227.9382 46.6056,-217.6944 46.4451,-208.7046"/>
<polygon fill="#191970" stroke="#191970" points="49.9435,-208.5786 46.2654,-198.6427 42.9446,-208.7036 49.9435,-208.5786"/>
</g>
<!-- Node5 -->
<g id="node6" class="node">
<title>Node5</title>
<polygon fill="#ffffff" stroke="#bfbfbf" points="366.0932,-.5 366.0932,-19.5 420.0932,-19.5 420.0932,-.5 366.0932,-.5"/>
<text text-anchor="middle" x="393.0932" y="-7.5" font-family="Helvetica,sans-Serif" font-size="10.00" fill="#000000">iostream</text>
</g>
<!-- Node4&#45;&gt;Node5 -->
<g id="edge5" class="edge">
<title>Node4&#45;&gt;Node5</title>
<path fill="none" stroke="#191970" d="M252.735,-179.4237C258.7539,-164.2704 271.7521,-134.2082 288.0932,-112 313.2022,-77.8759 350.1343,-44.9418 372.8443,-26.1179"/>
<polygon fill="#191970" stroke="#191970" points="375.267,-28.6581 380.7974,-19.6212 370.8386,-23.2369 375.267,-28.6581"/>
</g>
<!-- Node6 -->
<g id="node7" class="node">
<title>Node6</title>
<polygon fill="#ffffff" stroke="#bfbfbf" points="45.0932,-.5 45.0932,-19.5 89.0932,-19.5 89.0932,-.5 45.0932,-.5"/>
<text text-anchor="middle" x="67.0932" y="-7.5" font-family="Helvetica,sans-Serif" font-size="10.00" fill="#000000">vector</text>
</g>
<!-- Node4&#45;&gt;Node6 -->
<g id="edge6" class="edge">
<title>Node4&#45;&gt;Node6</title>
<path fill="none" stroke="#191970" d="M222.9221,-181.593C179.3303,-169.2063 96.3675,-145.4007 94.0932,-143 64.7681,-112.0445 63.4115,-58.3878 65.135,-29.5971"/>
<polygon fill="#191970" stroke="#191970" points="68.6296,-29.8015 65.9259,-19.5575 61.6513,-29.2517 68.6296,-29.8015"/>
</g>
<!-- Node7 -->
<g id="node8" class="node">
<title>Node7</title>
<polygon fill="#ffffff" stroke="#bfbfbf" points="619.5932,-.5 619.5932,-19.5 654.5932,-19.5 654.5932,-.5 619.5932,-.5"/>
<text text-anchor="middle" x="637.0932" y="-7.5" font-family="Helvetica,sans-Serif" font-size="10.00" fill="#000000">map</text>
</g>
<!-- Node4&#45;&gt;Node7 -->
<g id="edge7" class="edge">
<title>Node4&#45;&gt;Node7</title>
<path fill="none" stroke="#191970" d="M275.1248,-184.6344C310.7629,-178.1493 376.3345,-164.3872 429.0932,-143 484.6264,-120.4881 495.7668,-108.5265 546.0932,-76 571.0254,-59.8861 598.4566,-39.6201 616.6148,-25.8252"/>
<polygon fill="#191970" stroke="#191970" points="618.9136,-28.4735 624.7324,-19.6195 614.6622,-22.9123 618.9136,-28.4735"/>
</g>
<!-- Node8 -->
<g id="node9" class="node">
<title>Node8</title>
<polygon fill="#ffffff" stroke="#bfbfbf" points="133.0932,-56.5 133.0932,-75.5 189.0932,-75.5 189.0932,-56.5 133.0932,-56.5"/>
<text text-anchor="middle" x="161.0932" y="-63.5" font-family="Helvetica,sans-Serif" font-size="10.00" fill="#000000">algorithm</text>
</g>
<!-- Node4&#45;&gt;Node8 -->
<g id="edge8" class="edge">
<title>Node4&#45;&gt;Node8</title>
<path fill="none" stroke="#191970" d="M242.188,-179.3484C227.4727,-158.7804 192.8302,-110.3596 173.9347,-83.9489"/>
<polygon fill="#191970" stroke="#191970" points="176.6315,-81.7031 167.9663,-75.6068 170.9385,-85.7762 176.6315,-81.7031"/>
</g>
<!-- Node9 -->
<g id="node10" class="node">
<title>Node9</title>
<g id="a_node10"><a xlink:href="common_8hpp.html" target="_top" xlink:title="Common geometric entities to whole program. ">
<polygon fill="#ffffff" stroke="#000000" points="207.5932,-56.5 207.5932,-75.5 280.5932,-75.5 280.5932,-56.5 207.5932,-56.5"/>
<text text-anchor="middle" x="244.0932" y="-63.5" font-family="Helvetica,sans-Serif" font-size="10.00" fill="#000000">common.hpp</text>
</a>
</g>
</g>
<!-- Node4&#45;&gt;Node9 -->
<g id="edge9" class="edge">
<title>Node4&#45;&gt;Node9</title>
<path fill="none" stroke="#191970" d="M248.7009,-179.3484C247.883,-159.2295 245.9819,-112.4608 244.8944,-85.7098"/>
<polygon fill="#191970" stroke="#191970" points="248.3871,-85.4563 244.4837,-75.6068 241.3929,-85.7407 248.3871,-85.4563"/>
</g>
<!-- Node10 -->
<g id="node11" class="node">
<title>Node10</title>
<g id="a_node11"><a xlink:href="tethex_8hpp.html" target="_top" xlink:title="tethex &#45; tetrahedra to hexahedra conversion Copyright (c) 2013 Mikhail Artemyev Report issues: github...">
<polygon fill="#ffffff" stroke="#ff0000" points="475.0932,-56.5 475.0932,-75.5 537.0932,-75.5 537.0932,-56.5 475.0932,-56.5"/>
<text text-anchor="middle" x="506.0932" y="-63.5" font-family="Helvetica,sans-Serif" font-size="10.00" fill="#000000">tethex.hpp</text>
</a>
</g>
</g>
<!-- Node4&#45;&gt;Node10 -->
<g id="edge12" class="edge">
<title>Node4&#45;&gt;Node10</title>
<path fill="none" stroke="#191970" d="M275.1763,-182.6518C303.9077,-175.1567 351.0778,-161.3523 389.0932,-143 425.0511,-125.641 463.0168,-98.8716 485.6208,-81.9056"/>
<polygon fill="#191970" stroke="#191970" points="487.9259,-84.5499 493.7698,-75.7124 483.6903,-78.9767 487.9259,-84.5499"/>
</g>
<!-- Node4&#45;&gt;Node14 -->
<g id="edge17" class="edge">
<title>Node4&#45;&gt;Node14</title>
<path fill="none" stroke="#191970" d="M263.1557,-179.3906C277.4218,-169.6421 299.7282,-154.3994 316.4804,-142.9521"/>
<polygon fill="#191970" stroke="#191970" points="318.8477,-145.5736 325.1295,-137.0419 314.8983,-139.7941 318.8477,-145.5736"/>
</g>
<!-- Node4&#45;&gt;Node18 -->
<g id="edge22" class="edge">
<title>Node4&#45;&gt;Node18</title>
<path fill="none" stroke="#191970" d="M231.1245,-179.3906C212.3048,-169.3262 182.5347,-153.4057 160.9292,-141.8514"/>
<polygon fill="#191970" stroke="#191970" points="162.4046,-138.6714 151.9358,-137.0419 159.1035,-144.8442 162.4046,-138.6714"/>
</g>
<!-- Node9&#45;&gt;Node5 -->
<g id="edge11" class="edge">
<title>Node9&#45;&gt;Node5</title>
<path fill="none" stroke="#191970" d="M269.7072,-56.3733C294.1619,-47.1822 331.1986,-33.2624 358.3141,-23.0713"/>
<polygon fill="#191970" stroke="#191970" points="359.6841,-26.2956 367.8134,-19.5011 357.2214,-19.7431 359.6841,-26.2956"/>
</g>
<!-- Node9&#45;&gt;Node6 -->
<g id="edge10" class="edge">
<title>Node9&#45;&gt;Node6</title>
<path fill="none" stroke="#191970" d="M213.6658,-56.3733C181.7361,-46.2712 131.75,-30.4564 99.2029,-20.159"/>
<polygon fill="#191970" stroke="#191970" points="99.8834,-16.7034 89.2934,-17.0238 97.7718,-23.3773 99.8834,-16.7034"/>
</g>
<!-- Node10&#45;&gt;Node5 -->
<g id="edge13" class="edge">
<title>Node10&#45;&gt;Node5</title>
<path fill="none" stroke="#191970" d="M486.6678,-56.3733C468.6911,-47.4644 441.7491,-34.1127 421.3842,-24.0203"/>
<polygon fill="#191970" stroke="#191970" points="422.7794,-20.8055 412.2651,-19.5011 419.671,-27.0776 422.7794,-20.8055"/>
</g>
<!-- Node10&#45;&gt;Node6 -->
<g id="edge16" class="edge">
<title>Node10&#45;&gt;Node6</title>
<path fill="none" stroke="#191970" d="M474.9703,-62.0043C460.6877,-60.1721 443.5315,-57.9732 428.0932,-56 306.9408,-40.515 162.9064,-22.1857 99.6343,-14.138"/>
<polygon fill="#191970" stroke="#191970" points="99.8458,-10.6368 89.4841,-12.8471 98.9626,-17.5809 99.8458,-10.6368"/>
</g>
<!-- Node10&#45;&gt;Node7 -->
<g id="edge14" class="edge">
<title>Node10&#45;&gt;Node7</title>
<path fill="none" stroke="#191970" d="M528.6129,-56.3733C551.2449,-46.6985 586.1341,-31.784 610.2044,-21.4945"/>
<polygon fill="#191970" stroke="#191970" points="611.6577,-24.6797 619.477,-17.5306 608.9061,-18.2431 611.6577,-24.6797"/>
</g>
<!-- Node13 -->
<g id="node12" class="node">
<title>Node13</title>
<polygon fill="#ffffff" stroke="#bfbfbf" points="485.5932,-.5 485.5932,-19.5 526.5932,-19.5 526.5932,-.5 485.5932,-.5"/>
<text text-anchor="middle" x="506.0932" y="-7.5" font-family="Helvetica,sans-Serif" font-size="10.00" fill="#000000">string</text>
</g>
<!-- Node10&#45;&gt;Node13 -->
<g id="edge15" class="edge">
<title>Node10&#45;&gt;Node13</title>
<path fill="none" stroke="#191970" d="M506.0932,-56.2455C506.0932,-48.9382 506.0932,-38.6944 506.0932,-29.7046"/>
<polygon fill="#191970" stroke="#191970" points="509.5933,-29.6426 506.0932,-19.6427 502.5933,-29.6427 509.5933,-29.6426"/>
</g>
<!-- Node14&#45;&gt;Node5 -->
<g id="edge18" class="edge">
<title>Node14&#45;&gt;Node5</title>
<path fill="none" stroke="#191970" d="M342.2485,-117.5664C346.8325,-103.5524 355.9069,-77.3088 366.0932,-56 370.6199,-46.5305 376.431,-36.429 381.5017,-28.1114"/>
<polygon fill="#191970" stroke="#191970" points="384.4832,-29.9448 386.8043,-19.6074 378.5432,-26.2411 384.4832,-29.9448"/>
</g>
<!-- Node14&#45;&gt;Node8 -->
<g id="edge20" class="edge">
<title>Node14&#45;&gt;Node8</title>
<path fill="none" stroke="#191970" d="M311.2807,-117.8906C280.8449,-107.3749 231.9055,-90.466 198.2106,-78.8243"/>
<polygon fill="#191970" stroke="#191970" points="199.3052,-75.4995 188.7104,-75.5419 197.0192,-82.1157 199.3052,-75.4995"/>
</g>
<!-- Node14&#45;&gt;Node9 -->
<g id="edge21" class="edge">
<title>Node14&#45;&gt;Node9</title>
<path fill="none" stroke="#191970" d="M324.2495,-117.8906C309.0514,-108.0519 285.2084,-92.6167 267.4726,-81.1351"/>
<polygon fill="#191970" stroke="#191970" points="269.1293,-78.0382 258.8327,-75.5419 265.3252,-83.9144 269.1293,-78.0382"/>
</g>
<!-- Node15 -->
<g id="node14" class="node">
<title>Node15</title>
<polygon fill="#ffffff" stroke="#bfbfbf" points="375.0932,-56.5 375.0932,-75.5 419.0932,-75.5 419.0932,-56.5 375.0932,-56.5"/>
<text text-anchor="middle" x="397.0932" y="-63.5" font-family="Helvetica,sans-Serif" font-size="10.00" fill="#000000">cmath</text>
</g>
<!-- Node14&#45;&gt;Node15 -->
<g id="edge19" class="edge">
<title>Node14&#45;&gt;Node15</title>
<path fill="none" stroke="#191970" d="M348.1557,-117.8906C356.8725,-108.6478 370.2472,-94.466 380.8128,-83.2628"/>
<polygon fill="#191970" stroke="#191970" points="383.5882,-85.4213 387.9029,-75.7449 378.4956,-80.6186 383.5882,-85.4213"/>
</g>
<!-- Node18&#45;&gt;Node6 -->
<g id="edge23" class="edge">
<title>Node18&#45;&gt;Node6</title>
<path fill="none" stroke="#191970" d="M124.0492,-117.6494C114.5012,-107.8295 100.2732,-91.9505 91.0932,-76 82.6472,-61.3247 76.3019,-43.1487 72.2637,-29.5889"/>
<polygon fill="#191970" stroke="#191970" points="75.6034,-28.5358 69.5237,-19.8589 68.8654,-30.4332 75.6034,-28.5358"/>
</g>
<!-- Node18&#45;&gt;Node8 -->
<g id="edge24" class="edge">
<title>Node18&#45;&gt;Node8</title>
<path fill="none" stroke="#191970" d="M138.312,-117.8906C142.1728,-109.0965 147.9966,-95.8312 152.7893,-84.9145"/>
<polygon fill="#191970" stroke="#191970" points="155.9998,-86.3083 156.815,-75.7449 149.5903,-83.4943 155.9998,-86.3083"/>
</g>
<!-- Node18&#45;&gt;Node9 -->
<g id="edge27" class="edge">
<title>Node18&#45;&gt;Node9</title>
<path fill="none" stroke="#191970" d="M151.2807,-117.8906C169.2014,-107.8713 197.5027,-92.0483 218.1456,-80.5071"/>
<polygon fill="#191970" stroke="#191970" points="220.006,-83.4769 227.0264,-75.5419 216.5899,-77.367 220.006,-83.4769"/>
</g>
<!-- Node18&#45;&gt;Node10 -->
<g id="edge26" class="edge">
<title>Node18&#45;&gt;Node10</title>
<path fill="none" stroke="#191970" d="M165.1699,-122.3623C232.0477,-111.3059 389.6318,-85.2537 464.8016,-72.8264"/>
<polygon fill="#191970" stroke="#191970" points="465.5482,-76.2506 474.8434,-71.1663 464.4064,-69.3443 465.5482,-76.2506"/>
</g>
<!-- Node18&#45;&gt;Node13 -->
<g id="edge25" class="edge">
<title>Node18&#45;&gt;Node13</title>
<path fill="none" stroke="#191970" d="M128.5291,-117.8045C120.6405,-102.6328 108.7711,-73.237 124.0932,-56 169.4355,-4.9911 361.3632,-28.3949 429.0932,-20 444.3378,-18.1105 461.2676,-15.9217 475.3617,-14.0745"/>
<polygon fill="#191970" stroke="#191970" points="476.0539,-17.5137 485.5119,-12.7391 475.1408,-10.5735 476.0539,-17.5137"/>
</g>
<!-- Node19&#45;&gt;Node5 -->
<g id="edge29" class="edge">
<title>Node19&#45;&gt;Node5</title>
<path fill="none" stroke="#191970" d="M430.2258,-235.2106C436.0053,-206.6457 450.1093,-121.2944 428.0932,-56 424.5237,-45.4138 417.4397,-35.3356 410.573,-27.3256"/>
<polygon fill="#191970" stroke="#191970" points="412.9951,-24.7886 403.6522,-19.7924 407.8402,-29.5244 412.9951,-24.7886"/>
</g>
<!-- Node19&#45;&gt;Node10 -->
<g id="edge36" class="edge">
<title>Node19&#45;&gt;Node10</title>
<path fill="none" stroke="#191970" d="M457.6782,-241.4606C502.362,-235.4385 583.7131,-221.6053 601.0932,-199 630.8718,-160.2687 555.4866,-161.5107 539.0932,-143 524.3807,-126.3873 515.4833,-102.2248 510.6956,-85.4133"/>
<polygon fill="#191970" stroke="#191970" points="514.0402,-84.3689 508.123,-75.5804 507.2682,-86.1407 514.0402,-84.3689"/>
</g>
<!-- Node19&#45;&gt;Node14 -->
<g id="edge37" class="edge">
<title>Node19&#45;&gt;Node14</title>
<path fill="none" stroke="#191970" d="M423.2128,-235.1466C416.4121,-221.831 403.3097,-197.617 389.0932,-179 379.5448,-166.496 367.2537,-153.7997 357.2474,-144.1418"/>
<polygon fill="#191970" stroke="#191970" points="359.4798,-141.4358 349.8084,-137.1096 354.671,-146.5227 359.4798,-141.4358"/>
</g>
<!-- Node20 -->
<g id="node17" class="node">
<title>Node20</title>
<polygon fill="#ffffff" stroke="#bfbfbf" points="475.5932,-179.5 475.5932,-198.5 526.5932,-198.5 526.5932,-179.5 475.5932,-179.5"/>
<text text-anchor="middle" x="501.0932" y="-186.5" font-family="Helvetica,sans-Serif" font-size="10.00" fill="#000000">numeric</text>
</g>
<!-- Node19&#45;&gt;Node20 -->
<g id="edge30" class="edge">
<title>Node19&#45;&gt;Node20</title>
<path fill="none" stroke="#191970" d="M440.8088,-235.2455C451.6953,-226.8943 467.5815,-214.7076 480.3132,-204.9408"/>
<polygon fill="#191970" stroke="#191970" points="482.7193,-207.5063 488.5233,-198.6427 478.4586,-201.9523 482.7193,-207.5063"/>
</g>
<!-- Node21 -->
<g id="node18" class="node">
<title>Node21</title>
<polygon fill="#ffffff" stroke="#bfbfbf" points="544.5932,-179.5 544.5932,-198.5 591.5932,-198.5 591.5932,-179.5 544.5932,-179.5"/>
<text text-anchor="middle" x="568.0932" y="-186.5" font-family="Helvetica,sans-Serif" font-size="10.00" fill="#000000">iterator</text>
</g>
<!-- Node19&#45;&gt;Node21 -->
<g id="edge31" class="edge">
<title>Node19&#45;&gt;Node21</title>
<path fill="none" stroke="#191970" d="M452.1601,-235.3733C474.936,-226.2629 509.3276,-212.5062 534.7422,-202.3404"/>
<polygon fill="#191970" stroke="#191970" points="536.3555,-205.4648 544.3404,-198.5011 533.7557,-198.9654 536.3555,-205.4648"/>
</g>
<!-- Node22 -->
<g id="node19" class="node">
<title>Node22</title>
<polygon fill="#ffffff" stroke="#bfbfbf" points="331.5932,-179.5 331.5932,-198.5 380.5932,-198.5 380.5932,-179.5 331.5932,-179.5"/>
<text text-anchor="middle" x="356.0932" y="-186.5" font-family="Helvetica,sans-Serif" font-size="10.00" fill="#000000">gmsh.h</text>
</g>
<!-- Node19&#45;&gt;Node22 -->
<g id="edge32" class="edge">
<title>Node19&#45;&gt;Node22</title>
<path fill="none" stroke="#191970" d="M415.5518,-235.2455C404.8145,-226.8943 389.1459,-214.7076 376.5886,-204.9408"/>
<polygon fill="#191970" stroke="#191970" points="378.5333,-202.0194 368.4909,-198.6427 374.2357,-207.5449 378.5333,-202.0194"/>
</g>
<!-- Node23 -->
<g id="node20" class="node">
<title>Node23</title>
<g id="a_node20"><a xlink:href="triangle_8hpp.html" target="_top" xlink:title="Piece of Art Mesh Generation Tool, Winner of the 2003 James Hardy Wilkinson Prize in Numerical Softwa...">
<polygon fill="#ffffff" stroke="#000000" points="137.5932,-179.5 137.5932,-198.5 204.5932,-198.5 204.5932,-179.5 137.5932,-179.5"/>
<text text-anchor="middle" x="171.0932" y="-186.5" font-family="Helvetica,sans-Serif" font-size="10.00" fill="#000000">triangle.hpp</text>
</a>
</g>
</g>
<!-- Node19&#45;&gt;Node23 -->
<g id="edge33" class="edge">
<title>Node19&#45;&gt;Node23</title>
<path fill="none" stroke="#191970" d="M398.2859,-238.7576C358.7651,-230.445 286.5941,-215.1412 214.98,-199.1714"/>
<polygon fill="#191970" stroke="#191970" points="215.4048,-195.6801 204.8821,-196.9142 213.8777,-202.5115 215.4048,-195.6801"/>
</g>
<!-- Node23&#45;&gt;Node6 -->
<g id="edge34" class="edge">
<title>Node23&#45;&gt;Node6</title>
<path fill="none" stroke="#191970" d="M137.5014,-183.8593C96.2017,-176.7731 29.7612,-162.6176 15.0932,-143 -8.0611,-112.0325 -.789,-91.2543 15.0932,-56 20.6629,-43.6369 31.3795,-33.2563 41.6438,-25.5033"/>
<polygon fill="#191970" stroke="#191970" points="43.855,-28.2277 50.0365,-19.623 39.8383,-22.4948 43.855,-28.2277"/>
</g>
<!-- Node23&#45;&gt;Node14 -->
<g id="edge35" class="edge">
<title>Node23&#45;&gt;Node14</title>
<path fill="none" stroke="#191970" d="M197.3432,-179.3906C225.8226,-168.9652 271.4675,-152.2559 303.239,-140.6252"/>
<polygon fill="#191970" stroke="#191970" points="304.8402,-143.7663 313.0275,-137.0419 302.4338,-137.1929 304.8402,-143.7663"/>
</g>
<!-- Node24&#45;&gt;Node5 -->
<g id="edge66" class="edge">
<title>Node24&#45;&gt;Node5</title>
<path fill="none" stroke="#191970" d="M2275.7448,-188.6967C2054.3638,-186.4842 733.0585,-172.0907 654.0932,-143 596.2562,-121.693 600.6193,-84.7404 546.0932,-56 508.8964,-36.3938 462.1022,-23.8775 430.1204,-16.9294"/>
<polygon fill="#191970" stroke="#191970" points="430.7936,-13.4945 420.2881,-14.8673 429.3567,-20.3455 430.7936,-13.4945"/>
</g>
<!-- Node24&#45;&gt;Node7 -->
<g id="edge69" class="edge">
<title>Node24&#45;&gt;Node7</title>
<path fill="none" stroke="#191970" d="M2338.2389,-188.442C2528.9315,-184.954 3531.3472,-165.5636 3553.0932,-143 3562.6542,-133.0796 3562.6638,-121.9112 3553.0932,-112 3500.0592,-57.0785 959.4474,-15.1189 664.8587,-10.4355"/>
<polygon fill="#191970" stroke="#191970" points="664.6731,-6.9322 654.6189,-10.2733 664.5622,-13.9313 664.6731,-6.9322"/>
</g>
<!-- Node24&#45;&gt;Node9 -->
<g id="edge71" class="edge">
<title>Node24&#45;&gt;Node9</title>
<path fill="none" stroke="#191970" d="M2275.9038,-188.6196C2053.9555,-185.8558 717.4173,-168.251 539.0932,-143 444.8585,-129.6562 337.4669,-97.0705 281.8898,-78.8559"/>
<polygon fill="#191970" stroke="#191970" points="282.7234,-75.4453 272.1302,-75.63 280.5265,-82.0916 282.7234,-75.4453"/>
</g>
<!-- Node24&#45;&gt;Node10 -->
<g id="edge72" class="edge">
<title>Node24&#45;&gt;Node10</title>
<path fill="none" stroke="#191970" d="M2275.8653,-188.8122C2049.4423,-187.3706 666.021,-177.1816 585.0932,-143 556.1336,-130.7683 531.833,-102.5668 518.1224,-83.9029"/>
<polygon fill="#191970" stroke="#191970" points="520.8978,-81.7656 512.2685,-75.6186 515.181,-85.8052 520.8978,-81.7656"/>
</g>
<!-- Node24&#45;&gt;Node13 -->
<g id="edge67" class="edge">
<title>Node24&#45;&gt;Node13</title>
<path fill="none" stroke="#191970" d="M2275.7822,-188.787C2057.5247,-187.2181 769.8897,-176.5594 695.0932,-143 646.6144,-121.2488 656.6299,-86.4609 613.0932,-56 589.3871,-39.4138 558.754,-26.9981 536.3432,-19.2725"/>
<polygon fill="#191970" stroke="#191970" points="537.273,-15.8932 526.6794,-16.0548 535.0615,-22.5347 537.273,-15.8932"/>
</g>
<!-- Node24&#45;&gt;Node14 -->
<g id="edge73" class="edge">
<title>Node24&#45;&gt;Node14</title>
<path fill="none" stroke="#191970" d="M2275.9827,-188.6125C2065.1206,-185.9271 842.6123,-169.4107 471.0932,-143 444.5097,-141.1102 415.0442,-137.7705 390.7086,-134.674"/>
<polygon fill="#191970" stroke="#191970" points="390.9833,-131.1804 380.6165,-133.3667 390.084,-138.1224 390.9833,-131.1804"/>
</g>
<!-- Node25 -->
<g id="node22" class="node">
<title>Node25</title>
<polygon fill="#ffffff" stroke="#bfbfbf" points="3600.0932,-112.5 3600.0932,-142.5 3716.0932,-142.5 3716.0932,-112.5 3600.0932,-112.5"/>
<text text-anchor="start" x="3608.0932" y="-130.5" font-family="Helvetica,sans-Serif" font-size="10.00" fill="#000000">deal.II/base/quadrature</text>
<text text-anchor="middle" x="3658.0932" y="-119.5" font-family="Helvetica,sans-Serif" font-size="10.00" fill="#000000">_lib.h</text>
</g>
<!-- Node24&#45;&gt;Node25 -->
<g id="edge39" class="edge">
<title>Node24&#45;&gt;Node25</title>
<path fill="none" stroke="#191970" d="M2338.3489,-188.6229C2509.4025,-186.4457 3333.6364,-174.465 3586.0932,-143 3587.3779,-142.8399 3588.6736,-142.6682 3589.9774,-142.4861"/>
<polygon fill="#191970" stroke="#191970" points="3590.7454,-145.9086 3600.0844,-140.9053 3589.6637,-138.9927 3590.7454,-145.9086"/>
</g>
<!-- Node26 -->
<g id="node23" class="node">
<title>Node26</title>
<polygon fill="#ffffff" stroke="#bfbfbf" points="3734.5932,-118 3734.5932,-137 3847.5932,-137 3847.5932,-118 3734.5932,-118"/>
<text text-anchor="middle" x="3791.0932" y="-125" font-family="Helvetica,sans-Serif" font-size="10.00" fill="#000000">deal.II/base/function.h</text>
</g>
<!-- Node24&#45;&gt;Node26 -->
<g id="edge40" class="edge">
<title>Node24&#45;&gt;Node26</title>
<path fill="none" stroke="#191970" d="M2338.1219,-188.83C2519.4519,-187.7103 3443.6735,-180.2354 3725.0932,-143 3731.9921,-142.0872 3739.2249,-140.7692 3746.2692,-139.2819"/>
<polygon fill="#191970" stroke="#191970" points="3747.4037,-142.6145 3756.3944,-137.0092 3745.8706,-135.7844 3747.4037,-142.6145"/>
</g>
<!-- Node27 -->
<g id="node24" class="node">
<title>Node27</title>
<polygon fill="#ffffff" stroke="#bfbfbf" points="3866.0932,-112.5 3866.0932,-142.5 3992.0932,-142.5 3992.0932,-112.5 3866.0932,-112.5"/>
<text text-anchor="start" x="3874.0932" y="-130.5" font-family="Helvetica,sans-Serif" font-size="10.00" fill="#000000">deal.II/base/convergence</text>
<text text-anchor="middle" x="3929.0932" y="-119.5" font-family="Helvetica,sans-Serif" font-size="10.00" fill="#000000">_table.h</text>
</g>
<!-- Node24&#45;&gt;Node27 -->
<g id="edge41" class="edge">
<title>Node24&#45;&gt;Node27</title>
<path fill="none" stroke="#191970" d="M2338.1556,-188.8507C2527.3074,-187.826 3526.7855,-180.7368 3855.9737,-142.9503"/>
<polygon fill="#191970" stroke="#191970" points="3856.4678,-146.4164 3865.9875,-141.766 3855.6456,-139.4648 3856.4678,-146.4164"/>
</g>
<!-- Node28 -->
<g id="node25" class="node">
<title>Node28</title>
<polygon fill="#ffffff" stroke="#bfbfbf" points="4010.5932,-118 4010.5932,-137 4113.5932,-137 4113.5932,-118 4010.5932,-118"/>
<text text-anchor="middle" x="4062.0932" y="-125" font-family="Helvetica,sans-Serif" font-size="10.00" fill="#000000">deal.II/base/types.h</text>
</g>
<!-- Node24&#45;&gt;Node28 -->
<g id="edge42" class="edge">
<title>Node24&#45;&gt;Node28</title>
<path fill="none" stroke="#191970" d="M2338.3498,-188.5686C2555.077,-185.5226 3830.5279,-166.6869 4001.0932,-143 4007.3435,-142.132 4013.878,-140.8669 4020.2505,-139.4279"/>
<polygon fill="#191970" stroke="#191970" points="4021.1689,-142.8068 4030.0669,-137.0557 4019.5245,-136.0026 4021.1689,-142.8068"/>
</g>
<!-- Node29 -->
<g id="node26" class="node">
<title>Node29</title>
<polygon fill="#ffffff" stroke="#bfbfbf" points="4131.5932,-118 4131.5932,-137 4258.5932,-137 4258.5932,-118 4131.5932,-118"/>
<text text-anchor="middle" x="4195.0932" y="-125" font-family="Helvetica,sans-Serif" font-size="10.00" fill="#000000">deal.II/dofs/dof_handler.h</text>
</g>
<!-- Node24&#45;&gt;Node29 -->
<g id="edge43" class="edge">
<title>Node24&#45;&gt;Node29</title>
<path fill="none" stroke="#191970" d="M2338.3939,-188.5599C2564.0901,-185.3402 3939.2094,-164.927 4123.0932,-143 4130.9491,-142.0632 4139.2136,-140.6738 4147.2303,-139.1053"/>
<polygon fill="#191970" stroke="#191970" points="4148.1187,-142.4957 4157.2028,-137.0432 4146.7012,-135.6407 4148.1187,-142.4957"/>
</g>
<!-- Node30 -->
<g id="node27" class="node">
<title>Node30</title>
<polygon fill="#ffffff" stroke="#bfbfbf" points="4277.0932,-118 4277.0932,-137 4393.0932,-137 4393.0932,-118 4277.0932,-118"/>
<text text-anchor="middle" x="4335.0932" y="-125" font-family="Helvetica,sans-Serif" font-size="10.00" fill="#000000">deal.II/dofs/dof_tools.h</text>
</g>
<!-- Node24&#45;&gt;Node30 -->
<g id="edge44" class="edge">
<title>Node24&#45;&gt;Node30</title>
<path fill="none" stroke="#191970" d="M2338.2244,-188.6533C2573.556,-185.9818 4068.9605,-168.1027 4268.0932,-143 4275.2597,-142.0966 4282.7809,-140.7545 4290.0889,-139.2315"/>
<polygon fill="#191970" stroke="#191970" points="4290.8616,-142.6453 4299.8689,-137.0668 4289.3488,-135.8107 4290.8616,-142.6453"/>
</g>
<!-- Node31 -->
<g id="node28" class="node">
<title>Node31</title>
<polygon fill="#ffffff" stroke="#bfbfbf" points="703.5932,-118 703.5932,-137 838.5932,-137 838.5932,-118 703.5932,-118"/>
<text text-anchor="middle" x="771.0932" y="-125" font-family="Helvetica,sans-Serif" font-size="10.00" fill="#000000">deal.II/dofs/dof_accessor.h</text>
</g>
<!-- Node24&#45;&gt;Node31 -->
<g id="edge45" class="edge">
<title>Node24&#45;&gt;Node31</title>
<path fill="none" stroke="#191970" d="M2276.0888,-188.7284C2091.805,-187.0076 1138.705,-176.5923 848.0932,-143 839.6227,-142.0209 830.6961,-140.5953 822.0416,-138.9998"/>
<polygon fill="#191970" stroke="#191970" points="822.5337,-135.5301 812.0507,-137.0653 821.203,-142.4025 822.5337,-135.5301"/>
</g>
<!-- Node32 -->
<g id="node29" class="node">
<title>Node32</title>
<polygon fill="#ffffff" stroke="#bfbfbf" points="856.5932,-118 856.5932,-137 1005.5932,-137 1005.5932,-118 856.5932,-118"/>
<text text-anchor="middle" x="931.0932" y="-125" font-family="Helvetica,sans-Serif" font-size="10.00" fill="#000000">deal.II/dofs/dof_renumbering.h</text>
</g>
<!-- Node24&#45;&gt;Node32 -->
<g id="edge46" class="edge">
<title>Node24&#45;&gt;Node32</title>
<path fill="none" stroke="#191970" d="M2275.8169,-188.5106C2103.73,-185.7234 1270.6993,-170.9797 1015.0932,-143 1005.5746,-141.9581 995.5137,-140.4556 985.7897,-138.7913"/>
<polygon fill="#191970" stroke="#191970" points="986.2745,-135.3226 975.815,-137.0108 985.0443,-142.2137 986.2745,-135.3226"/>
</g>
<!-- Node33 -->
<g id="node30" class="node">
<title>Node33</title>
<polygon fill="#ffffff" stroke="#bfbfbf" points="1023.5932,-118 1023.5932,-137 1108.5932,-137 1108.5932,-118 1023.5932,-118"/>
<text text-anchor="middle" x="1066.0932" y="-125" font-family="Helvetica,sans-Serif" font-size="10.00" fill="#000000">deal.II/fe/fe_q.h</text>
</g>
<!-- Node24&#45;&gt;Node33 -->
<g id="edge47" class="edge">
<title>Node24&#45;&gt;Node33</title>
<path fill="none" stroke="#191970" d="M2275.8711,-188.8509C2112.046,-187.9077 1350.4253,-181.4908 1118.0932,-143 1113.2373,-142.1955 1108.1974,-141.0737 1103.2509,-139.7977"/>
<polygon fill="#191970" stroke="#191970" points="1103.8911,-136.3423 1093.3176,-137.014 1102.0021,-143.0827 1103.8911,-136.3423"/>
</g>
<!-- Node34 -->
<g id="node31" class="node">
<title>Node34</title>
<polygon fill="#ffffff" stroke="#bfbfbf" points="1127.0932,-118 1127.0932,-137 1235.0932,-137 1235.0932,-118 1127.0932,-118"/>
<text text-anchor="middle" x="1181.0932" y="-125" font-family="Helvetica,sans-Serif" font-size="10.00" fill="#000000">deal.II/fe/fe_values.h</text>
</g>
<!-- Node24&#45;&gt;Node34 -->
<g id="edge48" class="edge">
<title>Node24&#45;&gt;Node34</title>
<path fill="none" stroke="#191970" d="M2276.0281,-188.4693C2123.3897,-185.7374 1451.9215,-172.2415 1245.0932,-143 1238.6303,-142.0863 1231.8669,-140.8092 1225.2584,-139.3762"/>
<polygon fill="#191970" stroke="#191970" points="1225.5974,-135.8626 1215.0667,-137.0259 1224.0244,-142.6836 1225.5974,-135.8626"/>
</g>
<!-- Node35 -->
<g id="node32" class="node">
<title>Node35</title>
<polygon fill="#ffffff" stroke="#bfbfbf" points="1253.5932,-118 1253.5932,-137 1340.5932,-137 1340.5932,-118 1253.5932,-118"/>
<text text-anchor="middle" x="1297.0932" y="-125" font-family="Helvetica,sans-Serif" font-size="10.00" fill="#000000">deal.II/grid/tria.h</text>
</g>
<!-- Node24&#45;&gt;Node35 -->
<g id="edge49" class="edge">
<title>Node24&#45;&gt;Node35</title>
<path fill="none" stroke="#191970" d="M2276.0343,-188.494C2132.7169,-186.008 1534.4372,-173.9373 1350.0932,-143 1345.2093,-142.1804 1340.1384,-141.0604 1335.1549,-139.7947"/>
<polygon fill="#191970" stroke="#191970" points="1335.706,-136.3165 1325.136,-137.0415 1333.8511,-143.0662 1335.706,-136.3165"/>
</g>
<!-- Node36 -->
<g id="node33" class="node">
<title>Node36</title>
<polygon fill="#ffffff" stroke="#bfbfbf" points="1358.5932,-118 1358.5932,-137 1493.5932,-137 1493.5932,-118 1358.5932,-118"/>
<text text-anchor="middle" x="1426.0932" y="-125" font-family="Helvetica,sans-Serif" font-size="10.00" fill="#000000">deal.II/grid/grid_generator.h</text>
</g>
<!-- Node24&#45;&gt;Node36 -->
<g id="edge50" class="edge">
<title>Node24&#45;&gt;Node36</title>
<path fill="none" stroke="#191970" d="M2275.9052,-188.7995C2168.2259,-187.7707 1802.273,-181.4745 1503.0932,-143 1494.9202,-141.949 1486.3152,-140.5304 1477.9375,-138.9765"/>
<polygon fill="#191970" stroke="#191970" points="1478.3586,-135.4931 1467.8757,-137.0295 1477.0286,-142.3656 1478.3586,-135.4931"/>
</g>
<!-- Node37 -->
<g id="node34" class="node">
<title>Node37</title>
<polygon fill="#ffffff" stroke="#bfbfbf" points="1512.0932,-118 1512.0932,-137 1614.0932,-137 1614.0932,-118 1512.0932,-118"/>
<text text-anchor="middle" x="1563.0932" y="-125" font-family="Helvetica,sans-Serif" font-size="10.00" fill="#000000">deal.II/grid/grid_in.h</text>
</g>
<!-- Node24&#45;&gt;Node37 -->
<g id="edge51" class="edge">
<title>Node24&#45;&gt;Node37</title>
<path fill="none" stroke="#191970" d="M2276.0246,-187.6788C2159.9201,-182.6219 1751.6072,-163.7367 1623.0932,-143 1617.3096,-142.0668 1611.2718,-140.8293 1605.3495,-139.4591"/>
<polygon fill="#191970" stroke="#191970" points="1606.103,-136.0403 1595.5572,-137.0584 1604.4362,-142.839 1606.103,-136.0403"/>
</g>
<!-- Node38 -->
<g id="node35" class="node">
<title>Node38</title>
<polygon fill="#ffffff" stroke="#bfbfbf" points="1632.0932,-118 1632.0932,-137 1740.0932,-137 1740.0932,-118 1632.0932,-118"/>
<text text-anchor="middle" x="1686.0932" y="-125" font-family="Helvetica,sans-Serif" font-size="10.00" fill="#000000">deal.II/grid/grid_out.h</text>
</g>
<!-- Node24&#45;&gt;Node38 -->
<g id="edge52" class="edge">
<title>Node24&#45;&gt;Node38</title>
<path fill="none" stroke="#191970" d="M2276.0327,-188.17C2191.1185,-185.5289 1948.1581,-175.4817 1749.0932,-143 1743.1111,-142.0239 1736.8601,-140.7733 1730.7178,-139.4066"/>
<polygon fill="#191970" stroke="#191970" points="1731.0844,-135.8979 1720.5497,-137.0252 1729.4881,-142.7134 1731.0844,-135.8979"/>
</g>
<!-- Node39 -->
<g id="node36" class="node">
<title>Node39</title>
<polygon fill="#ffffff" stroke="#bfbfbf" points="1758.0932,-118 1758.0932,-137 1898.0932,-137 1898.0932,-118 1758.0932,-118"/>
<text text-anchor="middle" x="1828.0932" y="-125" font-family="Helvetica,sans-Serif" font-size="10.00" fill="#000000">deal.II/grid/grid_refinement.h</text>
</g>
<!-- Node24&#45;&gt;Node39 -->
<g id="edge53" class="edge">
<title>Node24&#45;&gt;Node39</title>
<path fill="none" stroke="#191970" d="M2275.9431,-186.2282C2208.6062,-180.0569 2044.5434,-164.0525 1908.0932,-143 1900.3268,-141.8017 1892.1643,-140.3937 1884.1432,-138.9234"/>
<polygon fill="#191970" stroke="#191970" points="1884.5732,-135.4431 1874.0992,-137.0388 1883.2822,-142.323 1884.5732,-135.4431"/>
</g>
<!-- Node40 -->
<g id="node37" class="node">
<title>Node40</title>
<polygon fill="#ffffff" stroke="#bfbfbf" points="1916.5932,-118 1916.5932,-137 2053.5932,-137 2053.5932,-118 1916.5932,-118"/>
<text text-anchor="middle" x="1985.0932" y="-125" font-family="Helvetica,sans-Serif" font-size="10.00" fill="#000000">deal.II/grid/grid_reordering.h</text>
</g>
<!-- Node24&#45;&gt;Node40 -->
<g id="edge54" class="edge">
<title>Node24&#45;&gt;Node40</title>
<path fill="none" stroke="#191970" d="M2275.8758,-183.2162C2229.4524,-174.5922 2139.4833,-157.7904 2063.0932,-143 2056.445,-141.7128 2049.4812,-140.3499 2042.5667,-138.9875"/>
<polygon fill="#191970" stroke="#191970" points="2043.0028,-135.5061 2032.5139,-137.0007 2041.6455,-142.3732 2043.0028,-135.5061"/>
</g>
<!-- Node41 -->
<g id="node38" class="node">
<title>Node41</title>
<polygon fill="#ffffff" stroke="#bfbfbf" points="2072.0932,-118 2072.0932,-137 2170.0932,-137 2170.0932,-118 2072.0932,-118"/>
<text text-anchor="middle" x="2121.0932" y="-125" font-family="Helvetica,sans-Serif" font-size="10.00" fill="#000000">deal.II/lac/vector.h</text>
</g>
<!-- Node24&#45;&gt;Node41 -->
<g id="edge55" class="edge">
<title>Node24&#45;&gt;Node41</title>
<path fill="none" stroke="#191970" d="M2278.0307,-179.3906C2246.227,-168.8749 2195.0881,-151.966 2159.8788,-140.3243"/>
<polygon fill="#191970" stroke="#191970" points="2160.5449,-136.8582 2149.9516,-137.0419 2158.3473,-143.5043 2160.5449,-136.8582"/>
</g>
<!-- Node42 -->
<g id="node39" class="node">
<title>Node42</title>
<polygon fill="#ffffff" stroke="#bfbfbf" points="2188.0932,-118 2188.0932,-137 2304.0932,-137 2304.0932,-118 2188.0932,-118"/>
<text text-anchor="middle" x="2246.0932" y="-125" font-family="Helvetica,sans-Serif" font-size="10.00" fill="#000000">deal.II/lac/full_matrix.h</text>
</g>
<!-- Node24&#45;&gt;Node42 -->
<g id="edge56" class="edge">
<title>Node24&#45;&gt;Node42</title>
<path fill="none" stroke="#191970" d="M2297.562,-179.3906C2288.3053,-170.0581 2274.0542,-155.6902 2262.8929,-144.4374"/>
<polygon fill="#191970" stroke="#191970" points="2265.286,-141.88 2255.7588,-137.2449 2260.3161,-146.8095 2265.286,-141.88"/>
</g>
<!-- Node43 -->
<g id="node40" class="node">
<title>Node43</title>
<polygon fill="#ffffff" stroke="#bfbfbf" points="2322.0932,-112.5 2322.0932,-142.5 2414.0932,-142.5 2414.0932,-112.5 2322.0932,-112.5"/>
<text text-anchor="start" x="2330.0932" y="-130.5" font-family="Helvetica,sans-Serif" font-size="10.00" fill="#000000">deal.II/lac/sparse</text>
<text text-anchor="middle" x="2368.0932" y="-119.5" font-family="Helvetica,sans-Serif" font-size="10.00" fill="#000000">_matrix.h</text>
</g>
<!-- Node24&#45;&gt;Node43 -->
<g id="edge57" class="edge">
<title>Node24&#45;&gt;Node43</title>
<path fill="none" stroke="#191970" d="M2316.6245,-179.3906C2324.4979,-171.4527 2335.9846,-159.8718 2346.1099,-149.6635"/>
<polygon fill="#191970" stroke="#191970" points="2348.6137,-152.1093 2353.1709,-142.5446 2343.6438,-147.1797 2348.6137,-152.1093"/>
</g>
<!-- Node44 -->
<g id="node41" class="node">
<title>Node44</title>
<polygon fill="#ffffff" stroke="#bfbfbf" points="2432.0932,-112.5 2432.0932,-142.5 2532.0932,-142.5 2532.0932,-112.5 2432.0932,-112.5"/>
<text text-anchor="start" x="2440.0932" y="-130.5" font-family="Helvetica,sans-Serif" font-size="10.00" fill="#000000">deal.II/lac/dynamic</text>
<text text-anchor="middle" x="2482.0932" y="-119.5" font-family="Helvetica,sans-Serif" font-size="10.00" fill="#000000">_sparsity_pattern.h</text>
</g>
<!-- Node24&#45;&gt;Node44 -->
<g id="edge58" class="edge">
<title>Node24&#45;&gt;Node44</title>
<path fill="none" stroke="#191970" d="M2334.437,-179.3906C2359.8755,-170.4508 2398.4617,-156.8905 2429.8097,-145.8739"/>
<polygon fill="#191970" stroke="#191970" points="2431.0095,-149.1622 2439.2834,-142.5446 2428.6886,-142.5581 2431.0095,-149.1622"/>
</g>
<!-- Node45 -->
<g id="node42" class="node">
<title>Node45</title>
<polygon fill="#ffffff" stroke="#bfbfbf" points="2550.5932,-118 2550.5932,-137 2663.5932,-137 2663.5932,-118 2550.5932,-118"/>
<text text-anchor="middle" x="2607.0932" y="-125" font-family="Helvetica,sans-Serif" font-size="10.00" fill="#000000">deal.II/lac/solver_cg.h</text>
</g>
<!-- Node24&#45;&gt;Node45 -->
<g id="edge59" class="edge">
<title>Node24&#45;&gt;Node45</title>
<path fill="none" stroke="#191970" d="M2338.2055,-183.2586C2383.1086,-174.8874 2468.6479,-158.6221 2541.0932,-143 2546.4146,-141.8525 2551.9674,-140.6137 2557.4943,-139.3541"/>
<polygon fill="#191970" stroke="#191970" points="2558.4014,-142.7369 2567.3593,-137.0794 2556.8285,-135.9158 2558.4014,-142.7369"/>
</g>
<!-- Node46 -->
<g id="node43" class="node">
<title>Node46</title>
<polygon fill="#ffffff" stroke="#bfbfbf" points="2681.5932,-118 2681.5932,-137 2804.5932,-137 2804.5932,-118 2681.5932,-118"/>
<text text-anchor="middle" x="2743.0932" y="-125" font-family="Helvetica,sans-Serif" font-size="10.00" fill="#000000">deal.II/lac/precondition.h</text>
</g>
<!-- Node24&#45;&gt;Node46 -->
<g id="edge60" class="edge">
<title>Node24&#45;&gt;Node46</title>
<path fill="none" stroke="#191970" d="M2338.5726,-186.0389C2402.0935,-179.8448 2550.0435,-164.3086 2673.0932,-143 2679.4516,-141.8989 2686.1056,-140.6081 2692.6745,-139.2496"/>
<polygon fill="#191970" stroke="#191970" points="2693.8216,-142.5838 2702.8726,-137.0766 2692.3627,-135.7375 2693.8216,-142.5838"/>
</g>
<!-- Node47 -->
<g id="node44" class="node">
<title>Node47</title>
<polygon fill="#ffffff" stroke="#bfbfbf" points="2822.5932,-112.5 2822.5932,-142.5 2927.5932,-142.5 2927.5932,-112.5 2822.5932,-112.5"/>
<text text-anchor="start" x="2830.5932" y="-130.5" font-family="Helvetica,sans-Serif" font-size="10.00" fill="#000000">deal.II/lac/constraint</text>
<text text-anchor="middle" x="2875.0932" y="-119.5" font-family="Helvetica,sans-Serif" font-size="10.00" fill="#000000">_matrix.h</text>
</g>
<!-- Node24&#45;&gt;Node47 -->
<g id="edge61" class="edge">
<title>Node24&#45;&gt;Node47</title>
<path fill="none" stroke="#191970" d="M2338.1787,-187.8929C2416.4251,-184.7428 2627.9003,-173.9795 2812.4236,-143.1339"/>
<polygon fill="#191970" stroke="#191970" points="2813.0276,-146.5815 2822.3017,-141.4588 2811.8572,-139.68 2813.0276,-146.5815"/>
</g>
<!-- Node48 -->
<g id="node45" class="node">
<title>Node48</title>
<polygon fill="#ffffff" stroke="#bfbfbf" points="2946.0932,-112.5 2946.0932,-142.5 3062.0932,-142.5 3062.0932,-112.5 2946.0932,-112.5"/>
<text text-anchor="start" x="2954.0932" y="-130.5" font-family="Helvetica,sans-Serif" font-size="10.00" fill="#000000">deal.II/numerics/vector</text>
<text text-anchor="middle" x="3004.0932" y="-119.5" font-family="Helvetica,sans-Serif" font-size="10.00" fill="#000000">_tools.h</text>
</g>
<!-- Node24&#45;&gt;Node48 -->
<g id="edge62" class="edge">
<title>Node24&#45;&gt;Node48</title>
<path fill="none" stroke="#191970" d="M2338.4203,-188.4216C2429.3571,-186.3819 2701.2647,-177.7325 2935.6539,-143.0708"/>
<polygon fill="#191970" stroke="#191970" points="2936.359,-146.5043 2945.73,-141.561 2935.3217,-139.5816 2936.359,-146.5043"/>
</g>
<!-- Node49 -->
<g id="node46" class="node">
<title>Node49</title>
<polygon fill="#ffffff" stroke="#bfbfbf" points="3080.0932,-112.5 3080.0932,-142.5 3188.0932,-142.5 3188.0932,-112.5 3080.0932,-112.5"/>
<text text-anchor="start" x="3088.0932" y="-130.5" font-family="Helvetica,sans-Serif" font-size="10.00" fill="#000000">deal.II/numerics/data</text>
<text text-anchor="middle" x="3134.0932" y="-119.5" font-family="Helvetica,sans-Serif" font-size="10.00" fill="#000000">_out.h</text>
</g>
<!-- Node24&#45;&gt;Node49 -->
<g id="edge63" class="edge">
<title>Node24&#45;&gt;Node49</title>
<path fill="none" stroke="#191970" d="M2338.3126,-187.876C2460.3933,-183.3665 2906.3508,-165.7951 3069.5854,-142.9974"/>
<polygon fill="#191970" stroke="#191970" points="3070.5326,-146.3963 3079.9221,-141.4882 3069.5213,-139.4697 3070.5326,-146.3963"/>
</g>
<!-- Node50 -->
<g id="node47" class="node">
<title>Node50</title>
<polygon fill="#ffffff" stroke="#bfbfbf" points="3206.5932,-112.5 3206.5932,-142.5 3315.5932,-142.5 3315.5932,-112.5 3206.5932,-112.5"/>
<text text-anchor="start" x="3214.5932" y="-130.5" font-family="Helvetica,sans-Serif" font-size="10.00" fill="#000000">deal.II/numerics/error</text>
<text text-anchor="middle" x="3261.0932" y="-119.5" font-family="Helvetica,sans-Serif" font-size="10.00" fill="#000000">_estimator.h</text>
</g>
<!-- Node24&#45;&gt;Node50 -->
<g id="edge64" class="edge">
<title>Node24&#45;&gt;Node50</title>
<path fill="none" stroke="#191970" d="M2338.2111,-188.1689C2472.8071,-184.457 3006.2347,-168.5097 3196.2751,-142.8759"/>
<polygon fill="#191970" stroke="#191970" points="3196.9958,-146.3091 3206.4113,-141.4512 3196.0214,-139.3772 3196.9958,-146.3091"/>
</g>
<!-- Node51 -->
<g id="node48" class="node">
<title>Node51</title>
<polygon fill="#ffffff" stroke="#bfbfbf" points="3334.0932,-118 3334.0932,-137 3384.0932,-137 3384.0932,-118 3334.0932,-118"/>
<text text-anchor="middle" x="3359.0932" y="-125" font-family="Helvetica,sans-Serif" font-size="10.00" fill="#000000">fstream</text>
</g>
<!-- Node24&#45;&gt;Node51 -->
<g id="edge65" class="edge">
<title>Node24&#45;&gt;Node51</title>
<path fill="none" stroke="#191970" d="M2338.2332,-188.2991C2498.5595,-184.5958 3227.2178,-166.5833 3325.0932,-143 3327.4346,-142.4358 3329.8119,-141.7093 3332.1655,-140.8794"/>
<polygon fill="#191970" stroke="#191970" points="3333.6252,-144.0639 3341.5543,-137.0368 3330.9737,-137.5855 3333.6252,-144.0639"/>
</g>
<!-- Node52 -->
<g id="node49" class="node">
<title>Node52</title>
<polygon fill="#ffffff" stroke="#bfbfbf" points="3402.5932,-118 3402.5932,-137 3485.5932,-137 3485.5932,-118 3402.5932,-118"/>
<text text-anchor="middle" x="3444.0932" y="-125" font-family="Helvetica,sans-Serif" font-size="10.00" fill="#000000">unordered_map</text>
</g>
<!-- Node24&#45;&gt;Node52 -->
<g id="edge68" class="edge">
<title>Node24&#45;&gt;Node52</title>
<path fill="none" stroke="#191970" d="M2338.1258,-188.7425C2492.8865,-187.2972 3182.1794,-178.9207 3393.0932,-143 3397.8057,-142.1974 3402.6928,-141.0876 3407.4924,-139.8273"/>
<polygon fill="#191970" stroke="#191970" points="3408.4789,-143.1856 3417.1369,-137.079 3406.5606,-136.4536 3408.4789,-143.1856"/>
</g>
<!-- Node53 -->
<g id="node50" class="node">
<title>Node53</title>
<polygon fill="#ffffff" stroke="#bfbfbf" points="3504.0932,-118 3504.0932,-137 3544.0932,-137 3544.0932,-118 3504.0932,-118"/>
<text text-anchor="middle" x="3524.0932" y="-125" font-family="Helvetica,sans-Serif" font-size="10.00" fill="#000000">utility</text>
</g>
<!-- Node24&#45;&gt;Node53 -->
<g id="edge70" class="edge">
<title>Node24&#45;&gt;Node53</title>
<path fill="none" stroke="#191970" d="M2338.108,-188.6304C2513.8272,-186.426 3380.6088,-174.0416 3495.0932,-143 3496.7599,-142.5481 3498.4377,-141.9865 3500.1006,-141.3476"/>
<polygon fill="#191970" stroke="#191970" points="3501.6982,-144.4645 3509.282,-137.066 3498.7397,-138.1204 3501.6982,-144.4645"/>
</g>
</g>
</svg>
