<?xml version="1.0" encoding="UTF-8" standalone="no"?>
<!DOCTYPE svg PUBLIC "-//W3C//DTD SVG 1.1//EN"
 "http://www.w3.org/Graphics/SVG/1.1/DTD/svg11.dtd">
<!-- Generated by graphviz version 2.43.0 (0)
 -->
<!-- Title: rivers.hpp Pages: 1 -->
<svg width="159pt" height="252pt"
 viewBox="0.00 0.00 159.00 252.00" xmlns="http://www.w3.org/2000/svg" xmlns:xlink="http://www.w3.org/1999/xlink">
<g id="graph0" class="graph" transform="scale(1 1) rotate(0) translate(4 248)">
<title>rivers.hpp</title>
<polygon fill="white" stroke="transparent" points="-4,4 -4,-248 155,-248 155,4 -4,4"/>
<!-- Node1 -->
<g id="node1" class="node">
<title>Node1</title>
<g id="a_node1"><a xlink:title="Holds all functionality that you need to work with tree(network) of river, its separate branches and ...">
<polygon fill="#bfbfbf" stroke="black" points="53.5,-224.5 53.5,-243.5 118.5,-243.5 118.5,-224.5 53.5,-224.5"/>
<text text-anchor="middle" x="86" y="-231.5" font-family="Helvetica,sans-Serif" font-size="10.00">rivers.hpp</text>
</a>
</g>
</g>
<!-- Node2 -->
<g id="node2" class="node">
<title>Node2</title>
<g id="a_node2"><a xlink:href="model_8hpp.html" target="_top" xlink:title="Contains all RiverSim program parameters.">
<polygon fill="white" stroke="black" points="21,-112.5 21,-131.5 89,-131.5 89,-112.5 21,-112.5"/>
<text text-anchor="middle" x="55" y="-119.5" font-family="Helvetica,sans-Serif" font-size="10.00">model.hpp</text>
</a>
</g>
</g>
<!-- Node1&#45;&gt;Node2 -->
<g id="edge1" class="edge">
<title>Node1&#45;&gt;Node2</title>
<path fill="none" stroke="midnightblue" d="M80.84,-214.67C74.06,-190.62 62.44,-149.39 57.42,-131.59"/>
<polygon fill="midnightblue" stroke="midnightblue" points="77.49,-215.69 83.57,-224.37 84.22,-213.79 77.49,-215.69"/>
</g>
<!-- Node6 -->
<g id="node6" class="node">
<title>Node6</title>
<g id="a_node6"><a xlink:href="region_8hpp_source.html" target="_top" xlink:title=" ">
<polygon fill="white" stroke="black" points="83,-168.5 83,-187.5 151,-187.5 151,-168.5 83,-168.5"/>
<text text-anchor="middle" x="117" y="-175.5" font-family="Helvetica,sans-Serif" font-size="10.00">region.hpp</text>
</a>
</g>
</g>
<!-- Node1&#45;&gt;Node6 -->
<g id="edge5" class="edge">
<title>Node1&#45;&gt;Node6</title>
<path fill="none" stroke="midnightblue" d="M96.18,-215.27C101.47,-206.05 107.72,-195.17 111.98,-187.75"/>
<polygon fill="midnightblue" stroke="midnightblue" points="93.06,-213.67 91.12,-224.08 99.13,-217.15 93.06,-213.67"/>
</g>
<!-- Node3 -->
<g id="node3" class="node">
<title>Node3</title>
<g id="a_node3"><a xlink:href="io_8hpp.html" target="_top" xlink:title="Contains functionality to read and write state of program(simulation data) and program options.">
<polygon fill="white" stroke="black" points="21.5,-56.5 21.5,-75.5 68.5,-75.5 68.5,-56.5 21.5,-56.5"/>
<text text-anchor="middle" x="45" y="-63.5" font-family="Helvetica,sans-Serif" font-size="10.00">io.hpp</text>
</a>
</g>
</g>
<!-- Node2&#45;&gt;Node3 -->
<g id="edge2" class="edge">
<title>Node2&#45;&gt;Node3</title>
<path fill="none" stroke="midnightblue" d="M51.5,-102.1C49.84,-93.14 47.94,-82.86 46.62,-75.75"/>
<polygon fill="midnightblue" stroke="midnightblue" points="48.09,-102.89 53.35,-112.08 54.97,-101.61 48.09,-102.89"/>
</g>
<!-- Node5 -->
<g id="node5" class="node">
<title>Node5</title>
<g id="a_node5"><a xlink:href="river_8hpp_source.html" target="_top" xlink:title=" ">
<polygon fill="white" stroke="black" points="87,-56.5 87,-75.5 147,-75.5 147,-56.5 87,-56.5"/>
<text text-anchor="middle" x="117" y="-63.5" font-family="Helvetica,sans-Serif" font-size="10.00">river.hpp</text>
</a>
</g>
</g>
<!-- Node2&#45;&gt;Node5 -->
<g id="edge4" class="edge">
<title>Node2&#45;&gt;Node5</title>
<path fill="none" stroke="midnightblue" d="M72.75,-105.54C83.81,-95.91 97.63,-83.87 106.86,-75.83"/>
<polygon fill="midnightblue" stroke="midnightblue" points="70.2,-103.12 64.96,-112.32 74.8,-108.4 70.2,-103.12"/>
</g>
<!-- Node4 -->
<g id="node4" class="node">
<title>Node4</title>
<g id="a_node4"><a xlink:href="riversolver_8hpp_source.html" target="_top" xlink:title=" ">
<polygon fill="white" stroke="black" points="0,-0.5 0,-19.5 90,-19.5 90,-0.5 0,-0.5"/>
<text text-anchor="middle" x="45" y="-7.5" font-family="Helvetica,sans-Serif" font-size="10.00">riversolver.hpp</text>
</a>
</g>
</g>
<!-- Node3&#45;&gt;Node4 -->
<g id="edge3" class="edge">
<title>Node3&#45;&gt;Node4</title>
<path fill="none" stroke="midnightblue" d="M45,-45.8C45,-36.91 45,-26.78 45,-19.75"/>
<polygon fill="midnightblue" stroke="midnightblue" points="41.5,-46.08 45,-56.08 48.5,-46.08 41.5,-46.08"/>
</g>
<!-- Node6&#45;&gt;Node2 -->
<g id="edge6" class="edge">
<title>Node6&#45;&gt;Node2</title>
<path fill="none" stroke="midnightblue" d="M99.25,-161.54C88.19,-151.91 74.37,-139.87 65.14,-131.83"/>
<polygon fill="midnightblue" stroke="midnightblue" points="97.2,-164.4 107.04,-168.32 101.8,-159.12 97.2,-164.4"/>
</g>
<!-- Node6&#45;&gt;Node5 -->
<g id="edge7" class="edge">
<title>Node6&#45;&gt;Node5</title>
<path fill="none" stroke="midnightblue" d="M117,-158.35C117,-134.25 117,-93.31 117,-75.59"/>
<polygon fill="midnightblue" stroke="midnightblue" points="113.5,-158.37 117,-168.37 120.5,-158.37 113.5,-158.37"/>
</g>
</g>
</svg>
