<?xml version="1.0" encoding="UTF-8" standalone="no"?>
<!DOCTYPE svg PUBLIC "-//W3C//DTD SVG 1.1//EN"
 "http://www.w3.org/Graphics/SVG/1.1/DTD/svg11.dtd">
<!-- Generated by graphviz version 2.40.1 (20161225.0304)
 -->
<!-- Title: /home/oleg/Dev/riversim/source/river/riversim.hpp Pages: 1 -->
<svg width="4471pt" height="330pt"
 viewBox="0.00 0.00 4471.04 330.00" xmlns="http://www.w3.org/2000/svg" xmlns:xlink="http://www.w3.org/1999/xlink">
<g id="graph0" class="graph" transform="scale(1 1) rotate(0) translate(4 326)">
<title>/home/oleg/Dev/riversim/source/river/riversim.hpp</title>
<polygon fill="#ffffff" stroke="transparent" points="-4,4 -4,-326 4467.0413,-326 4467.0413,4 -4,4"/>
<!-- Node0 -->
<g id="node1" class="node">
<title>Node0</title>
<polygon fill="#bfbfbf" stroke="#000000" points="312.5,-291.5 312.5,-321.5 439.5,-321.5 439.5,-291.5 312.5,-291.5"/>
<text text-anchor="start" x="320.5" y="-309.5" font-family="Helvetica,sans-Serif" font-size="10.00" fill="#000000">/home/oleg/Dev/riversim</text>
<text text-anchor="middle" x="376" y="-298.5" font-family="Helvetica,sans-Serif" font-size="10.00" fill="#000000">/source/river/riversim.hpp</text>
</g>
<!-- Node1 -->
<g id="node2" class="node">
<title>Node1</title>
<g id="a_node2"><a xlink:href="utilities_8hpp.html" target="_top" xlink:title="Console printouts, version, title and program options processing. ">
<polygon fill="#ffffff" stroke="#000000" points="22,-235.5 22,-254.5 88,-254.5 88,-235.5 22,-235.5"/>
<text text-anchor="middle" x="55" y="-242.5" font-family="Helvetica,sans-Serif" font-size="10.00" fill="#000000">utilities.hpp</text>
</a>
</g>
</g>
<!-- Node0&#45;&gt;Node1 -->
<g id="edge1" class="edge">
<title>Node0&#45;&gt;Node1</title>
<path fill="none" stroke="#191970" d="M312.1969,-294.276C248.8145,-282.1327 153.3563,-263.844 98.3129,-253.2983"/>
<polygon fill="#191970" stroke="#191970" points="98.6734,-249.8038 88.1934,-251.3595 97.3562,-256.6787 98.6734,-249.8038"/>
</g>
<!-- Node3 -->
<g id="node4" class="node">
<title>Node3</title>
<g id="a_node4"><a xlink:href="tree_8hpp.html" target="_top" xlink:title="Holds all functionality that you need to work with tree of river, its separate branches and generatio...">
<polygon fill="#ffffff" stroke="#000000" points="382,-179.5 382,-198.5 434,-198.5 434,-179.5 382,-179.5"/>
<text text-anchor="middle" x="408" y="-186.5" font-family="Helvetica,sans-Serif" font-size="10.00" fill="#000000">tree.hpp</text>
</a>
</g>
</g>
<!-- Node0&#45;&gt;Node3 -->
<g id="edge3" class="edge">
<title>Node0&#45;&gt;Node3</title>
<path fill="none" stroke="#191970" d="M380.1834,-291.1389C385.975,-269.873 396.4336,-231.4702 402.745,-208.2956"/>
<polygon fill="#191970" stroke="#191970" points="406.1458,-209.1278 405.3966,-198.5595 399.3918,-207.2883 406.1458,-209.1278"/>
</g>
<!-- Node13 -->
<g id="node12" class="node">
<title>Node13</title>
<g id="a_node12"><a xlink:href="physmodel_8hpp.html" target="_top" xlink:title="Physical model incapsulation. ">
<polygon fill="#ffffff" stroke="#ff0000" points="474.5,-118 474.5,-137 557.5,-137 557.5,-118 474.5,-118"/>
<text text-anchor="middle" x="516" y="-125" font-family="Helvetica,sans-Serif" font-size="10.00" fill="#000000">physmodel.hpp</text>
</a>
</g>
</g>
<!-- Node0&#45;&gt;Node13 -->
<g id="edge74" class="edge">
<title>Node0&#45;&gt;Node13</title>
<path fill="none" stroke="#191970" d="M425.2582,-291.4196C467.0618,-275.7116 524.3693,-246.6127 551,-199 561.1325,-180.8843 547.3298,-159.4154 534.1886,-144.763"/>
<polygon fill="#191970" stroke="#191970" points="536.5613,-142.1806 527.1121,-137.3886 531.5106,-147.0273 536.5613,-142.1806"/>
</g>
<!-- Node17 -->
<g id="node15" class="node">
<title>Node17</title>
<g id="a_node15"><a xlink:href="border_8hpp.html" target="_top" xlink:title="Generate initial predefinide border geometry and its source positions. ">
<polygon fill="#ffffff" stroke="#000000" points="204,-118 204,-137 266,-137 266,-118 204,-118"/>
<text text-anchor="middle" x="235" y="-125" font-family="Helvetica,sans-Serif" font-size="10.00" fill="#000000">border.hpp</text>
</a>
</g>
</g>
<!-- Node0&#45;&gt;Node17 -->
<g id="edge75" class="edge">
<title>Node0&#45;&gt;Node17</title>
<path fill="none" stroke="#191970" d="M312.4671,-294.7132C260.1535,-281.2965 189.2262,-253.709 155,-199 139.8663,-174.8094 171.4878,-153.9682 199.3291,-141.1295"/>
<polygon fill="#191970" stroke="#191970" points="200.7976,-144.3073 208.553,-137.089 197.9889,-137.8955 200.7976,-144.3073"/>
</g>
<!-- Node18 -->
<g id="node16" class="node">
<title>Node18</title>
<g id="a_node16"><a xlink:href="mesh_8hpp.html" target="_top" xlink:title="Wrappers classes to Triangle and Gmsh. ">
<polygon fill="#ffffff" stroke="#000000" points="312.5,-235.5 312.5,-254.5 371.5,-254.5 371.5,-235.5 312.5,-235.5"/>
<text text-anchor="middle" x="342" y="-242.5" font-family="Helvetica,sans-Serif" font-size="10.00" fill="#000000">mesh.hpp</text>
</a>
</g>
</g>
<!-- Node0&#45;&gt;Node18 -->
<g id="edge28" class="edge">
<title>Node0&#45;&gt;Node18</title>
<path fill="none" stroke="#191970" d="M367.5955,-291.2977C362.9743,-282.9388 357.2031,-272.4997 352.3111,-263.6509"/>
<polygon fill="#191970" stroke="#191970" points="355.3452,-261.9051 347.4438,-254.8469 349.2191,-265.292 355.3452,-261.9051"/>
</g>
<!-- Node23 -->
<g id="node21" class="node">
<title>Node23</title>
<g id="a_node21"><a xlink:href="solver_8hpp.html" target="_top" xlink:title="PDE Solver and Integration tool. ">
<polygon fill="#ffffff" stroke="#000000" points="2311,-179.5 2311,-198.5 2373,-198.5 2373,-179.5 2311,-179.5"/>
<text text-anchor="middle" x="2342" y="-186.5" font-family="Helvetica,sans-Serif" font-size="10.00" fill="#000000">solver.hpp</text>
</a>
</g>
</g>
<!-- Node0&#45;&gt;Node23 -->
<g id="edge38" class="edge">
<title>Node0&#45;&gt;Node23</title>
<path fill="none" stroke="#191970" d="M439.739,-302.6906C744.8331,-284.4563 2051.5348,-206.3599 2300.8205,-191.4611"/>
<polygon fill="#191970" stroke="#191970" points="2301.1285,-194.9491 2310.9019,-190.8586 2300.7108,-187.9615 2301.1285,-194.9491"/>
</g>
<!-- Node2 -->
<g id="node3" class="node">
<title>Node2</title>
<polygon fill="#ffffff" stroke="#bfbfbf" points="0,-179.5 0,-198.5 70,-198.5 70,-179.5 0,-179.5"/>
<text text-anchor="middle" x="35" y="-186.5" font-family="Helvetica,sans-Serif" font-size="10.00" fill="#000000">cxxopts.hpp</text>
</g>
<!-- Node1&#45;&gt;Node2 -->
<g id="edge2" class="edge">
<title>Node1&#45;&gt;Node2</title>
<path fill="none" stroke="#191970" d="M51.5163,-235.2455C48.8492,-227.7776 45.0867,-217.2427 41.8263,-208.1137"/>
<polygon fill="#191970" stroke="#191970" points="45.1033,-206.8829 38.4438,-198.6427 38.5111,-209.2373 45.1033,-206.8829"/>
</g>
<!-- Node4 -->
<g id="node5" class="node">
<title>Node4</title>
<polygon fill="#ffffff" stroke="#bfbfbf" points="645,-.5 645,-19.5 699,-19.5 699,-.5 645,-.5"/>
<text text-anchor="middle" x="672" y="-7.5" font-family="Helvetica,sans-Serif" font-size="10.00" fill="#000000">iostream</text>
</g>
<!-- Node3&#45;&gt;Node4 -->
<g id="edge4" class="edge">
<title>Node3&#45;&gt;Node4</title>
<path fill="none" stroke="#191970" d="M434.2327,-185.2627C467.0046,-179.756 523.9976,-167.367 567,-143 605.0306,-121.4503 612.808,-110.9956 639,-76 649.8882,-61.452 658.8417,-42.7634 664.6617,-28.9888"/>
<polygon fill="#191970" stroke="#191970" points="667.9693,-30.1456 668.4816,-19.5631 661.4818,-27.5163 667.9693,-30.1456"/>
</g>
<!-- Node5 -->
<g id="node6" class="node">
<title>Node5</title>
<polygon fill="#ffffff" stroke="#bfbfbf" points="118,-.5 118,-19.5 162,-19.5 162,-.5 118,-.5"/>
<text text-anchor="middle" x="140" y="-7.5" font-family="Helvetica,sans-Serif" font-size="10.00" fill="#000000">vector</text>
</g>
<!-- Node3&#45;&gt;Node5 -->
<g id="edge5" class="edge">
<title>Node3&#45;&gt;Node5</title>
<path fill="none" stroke="#191970" d="M381.6858,-181.2414C378.7639,-180.4516 375.8244,-179.688 373,-179 294.58,-159.8984 257.2949,-194.3217 195,-143 159.9443,-114.1193 146.9417,-59.195 142.3487,-29.7741"/>
<polygon fill="#191970" stroke="#191970" points="145.8135,-29.2782 140.9717,-19.8544 138.88,-30.2407 145.8135,-29.2782"/>
</g>
<!-- Node6 -->
<g id="node7" class="node">
<title>Node6</title>
<polygon fill="#ffffff" stroke="#bfbfbf" points="352.5,-.5 352.5,-19.5 387.5,-19.5 387.5,-.5 352.5,-.5"/>
<text text-anchor="middle" x="370" y="-7.5" font-family="Helvetica,sans-Serif" font-size="10.00" fill="#000000">map</text>
</g>
<!-- Node3&#45;&gt;Node6 -->
<g id="edge6" class="edge">
<title>Node3&#45;&gt;Node6</title>
<path fill="none" stroke="#191970" d="M405.957,-179.3762C399.9517,-151.0883 382.2701,-67.7987 374.1559,-29.5767"/>
<polygon fill="#191970" stroke="#191970" points="377.5536,-28.7266 372.0531,-19.6714 370.7061,-30.1803 377.5536,-28.7266"/>
</g>
<!-- Node7 -->
<g id="node8" class="node">
<title>Node7</title>
<polygon fill="#ffffff" stroke="#bfbfbf" points="286,-56.5 286,-75.5 342,-75.5 342,-56.5 286,-56.5"/>
<text text-anchor="middle" x="314" y="-63.5" font-family="Helvetica,sans-Serif" font-size="10.00" fill="#000000">algorithm</text>
</g>
<!-- Node3&#45;&gt;Node7 -->
<g id="edge7" class="edge">
<title>Node3&#45;&gt;Node7</title>
<path fill="none" stroke="#191970" d="M394.8807,-179.4863C383.6102,-170.8572 367.4192,-157.3267 356,-143 341.6743,-125.0269 329.6411,-101.4803 322.1771,-85.1805"/>
<polygon fill="#191970" stroke="#191970" points="325.2043,-83.3724 317.9538,-75.647 318.8041,-86.2077 325.2043,-83.3724"/>
</g>
<!-- Node8 -->
<g id="node9" class="node">
<title>Node8</title>
<g id="a_node9"><a xlink:href="common_8hpp.html" target="_top" xlink:title="Common geometric entities to whole program. ">
<polygon fill="#ffffff" stroke="#000000" points="398.5,-56.5 398.5,-75.5 471.5,-75.5 471.5,-56.5 398.5,-56.5"/>
<text text-anchor="middle" x="435" y="-63.5" font-family="Helvetica,sans-Serif" font-size="10.00" fill="#000000">common.hpp</text>
</a>
</g>
</g>
<!-- Node3&#45;&gt;Node8 -->
<g id="edge8" class="edge">
<title>Node3&#45;&gt;Node8</title>
<path fill="none" stroke="#191970" d="M410.1186,-179.3484C414.535,-159.2295 424.8013,-112.4608 430.6735,-85.7098"/>
<polygon fill="#191970" stroke="#191970" points="434.1657,-86.1247 432.8912,-75.6068 427.3284,-84.6238 434.1657,-86.1247"/>
</g>
<!-- Node9 -->
<g id="node10" class="node">
<title>Node9</title>
<g id="a_node10"><a xlink:href="tethex_8hpp.html" target="_top" xlink:title="tethex &#45; tetrahedra to hexahedra conversion Copyright (c) 2013 Mikhail Artemyev Report issues: github...">
<polygon fill="#ffffff" stroke="#ff0000" points="206,-56.5 206,-75.5 268,-75.5 268,-56.5 206,-56.5"/>
<text text-anchor="middle" x="237" y="-63.5" font-family="Helvetica,sans-Serif" font-size="10.00" fill="#000000">tethex.hpp</text>
</a>
</g>
</g>
<!-- Node3&#45;&gt;Node9 -->
<g id="edge11" class="edge">
<title>Node3&#45;&gt;Node9</title>
<path fill="none" stroke="#191970" d="M390.6731,-179.4167C374.9868,-170.5309 351.431,-156.6591 332,-143 304.2865,-123.5188 274.2134,-98.4086 255.4887,-82.2548"/>
<polygon fill="#191970" stroke="#191970" points="257.5772,-79.4328 247.7332,-75.5154 252.9857,-84.7166 257.5772,-79.4328"/>
</g>
<!-- Node3&#45;&gt;Node13 -->
<g id="edge16" class="edge">
<title>Node3&#45;&gt;Node13</title>
<path fill="none" stroke="#191970" d="M424.875,-179.3906C442.4698,-169.3713 470.2566,-153.5483 490.5241,-142.0071"/>
<polygon fill="#191970" stroke="#191970" points="492.2856,-145.0318 499.2435,-137.0419 488.8217,-138.9489 492.2856,-145.0318"/>
</g>
<!-- Node3&#45;&gt;Node17 -->
<g id="edge22" class="edge">
<title>Node3&#45;&gt;Node17</title>
<path fill="none" stroke="#191970" d="M381.725,-179.6595C352.3429,-169.2144 304.556,-152.2266 271.5421,-140.4904"/>
<polygon fill="#191970" stroke="#191970" points="272.4021,-137.0816 261.8074,-137.0298 270.0574,-143.6772 272.4021,-137.0816"/>
</g>
<!-- Node8&#45;&gt;Node4 -->
<g id="edge10" class="edge">
<title>Node8&#45;&gt;Node4</title>
<path fill="none" stroke="#191970" d="M471.5119,-57.3727C515.8416,-46.8982 590.1963,-29.3291 634.8236,-18.7843"/>
<polygon fill="#191970" stroke="#191970" points="635.7558,-22.1605 644.6829,-16.4547 634.1461,-15.3481 635.7558,-22.1605"/>
</g>
<!-- Node8&#45;&gt;Node5 -->
<g id="edge9" class="edge">
<title>Node8&#45;&gt;Node5</title>
<path fill="none" stroke="#191970" d="M398.2345,-59.0208C339.9038,-47.9478 227.1245,-26.5389 171.9576,-16.0665"/>
<polygon fill="#191970" stroke="#191970" points="172.5165,-12.6102 162.0391,-14.1837 171.2109,-19.4874 172.5165,-12.6102"/>
</g>
<!-- Node9&#45;&gt;Node4 -->
<g id="edge12" class="edge">
<title>Node9&#45;&gt;Node4</title>
<path fill="none" stroke="#191970" d="M268.3596,-57.7537C271.2701,-57.1113 274.1832,-56.5139 277,-56 407.1739,-32.251 563.8355,-18.2789 634.3587,-12.7559"/>
<polygon fill="#191970" stroke="#191970" points="634.8222,-16.2306 644.5234,-11.972 634.2838,-9.2514 634.8222,-16.2306"/>
</g>
<!-- Node9&#45;&gt;Node5 -->
<g id="edge15" class="edge">
<title>Node9&#45;&gt;Node5</title>
<path fill="none" stroke="#191970" d="M220.1039,-56.2455C205.082,-47.5731 182.8957,-34.7645 165.679,-24.825"/>
<polygon fill="#191970" stroke="#191970" points="167.1128,-21.6114 156.7025,-19.6427 163.6129,-27.6737 167.1128,-21.6114"/>
</g>
<!-- Node9&#45;&gt;Node6 -->
<g id="edge13" class="edge">
<title>Node9&#45;&gt;Node6</title>
<path fill="none" stroke="#191970" d="M259.8635,-56.3733C282.8411,-46.6985 318.2629,-31.784 342.7007,-21.4945"/>
<polygon fill="#191970" stroke="#191970" points="344.2567,-24.637 352.1148,-17.5306 341.5402,-18.1855 344.2567,-24.637"/>
</g>
<!-- Node12 -->
<g id="node11" class="node">
<title>Node12</title>
<polygon fill="#ffffff" stroke="#bfbfbf" points="216.5,-.5 216.5,-19.5 257.5,-19.5 257.5,-.5 216.5,-.5"/>
<text text-anchor="middle" x="237" y="-7.5" font-family="Helvetica,sans-Serif" font-size="10.00" fill="#000000">string</text>
</g>
<!-- Node9&#45;&gt;Node12 -->
<g id="edge14" class="edge">
<title>Node9&#45;&gt;Node12</title>
<path fill="none" stroke="#191970" d="M237,-56.2455C237,-48.9382 237,-38.6944 237,-29.7046"/>
<polygon fill="#191970" stroke="#191970" points="240.5001,-29.6426 237,-19.6427 233.5001,-29.6427 240.5001,-29.6426"/>
</g>
<!-- Node13&#45;&gt;Node4 -->
<g id="edge17" class="edge">
<title>Node13&#45;&gt;Node4</title>
<path fill="none" stroke="#191970" d="M540.3043,-117.9508C561.3303,-108.9963 591.9005,-94.2653 615,-76 632.5356,-62.1342 648.8054,-42.3068 659.4358,-28.0077"/>
<polygon fill="#191970" stroke="#191970" points="662.5435,-29.6829 665.5639,-19.5277 656.8699,-25.5828 662.5435,-29.6829"/>
</g>
<!-- Node13&#45;&gt;Node7 -->
<g id="edge20" class="edge">
<title>Node13&#45;&gt;Node7</title>
<path fill="none" stroke="#191970" d="M484.4375,-117.8906C448.5829,-106.9745 390.1004,-89.1692 351.8317,-77.5181"/>
<polygon fill="#191970" stroke="#191970" points="352.6731,-74.1157 342.0872,-74.5513 350.6343,-80.8122 352.6731,-74.1157"/>
</g>
<!-- Node13&#45;&gt;Node8 -->
<g id="edge21" class="edge">
<title>Node13&#45;&gt;Node8</title>
<path fill="none" stroke="#191970" d="M503.3438,-117.8906C490.6232,-108.2324 470.7996,-93.1812 455.7716,-81.771"/>
<polygon fill="#191970" stroke="#191970" points="457.6484,-78.8015 447.5674,-75.5419 453.4154,-84.3766 457.6484,-78.8015"/>
</g>
<!-- Node14 -->
<g id="node13" class="node">
<title>Node14</title>
<polygon fill="#ffffff" stroke="#bfbfbf" points="490,-56.5 490,-75.5 534,-75.5 534,-56.5 490,-56.5"/>
<text text-anchor="middle" x="512" y="-63.5" font-family="Helvetica,sans-Serif" font-size="10.00" fill="#000000">cmath</text>
</g>
<!-- Node13&#45;&gt;Node14 -->
<g id="edge18" class="edge">
<title>Node13&#45;&gt;Node14</title>
<path fill="none" stroke="#191970" d="M515.375,-117.8906C514.8205,-109.3657 513.9928,-96.6392 513.2958,-85.9235"/>
<polygon fill="#191970" stroke="#191970" points="516.7756,-85.4966 512.6338,-75.7449 509.7903,-85.951 516.7756,-85.4966"/>
</g>
<!-- Node15 -->
<g id="node14" class="node">
<title>Node15</title>
<polygon fill="#ffffff" stroke="#bfbfbf" points="552.5,-56.5 552.5,-75.5 605.5,-75.5 605.5,-56.5 552.5,-56.5"/>
<text text-anchor="middle" x="579" y="-63.5" font-family="Helvetica,sans-Serif" font-size="10.00" fill="#000000">complex</text>
</g>
<!-- Node13&#45;&gt;Node15 -->
<g id="edge19" class="edge">
<title>Node13&#45;&gt;Node15</title>
<path fill="none" stroke="#191970" d="M525.8438,-117.8906C535.4039,-108.5581 550.1223,-94.1902 561.6495,-82.9374"/>
<polygon fill="#191970" stroke="#191970" points="564.3066,-85.2348 569.0175,-75.7449 559.4168,-80.2257 564.3066,-85.2348"/>
</g>
<!-- Node17&#45;&gt;Node5 -->
<g id="edge23" class="edge">
<title>Node17&#45;&gt;Node5</title>
<path fill="none" stroke="#191970" d="M226.4195,-117.7483C217.4437,-107.4803 203.0154,-90.784 191,-76 177.9398,-59.9306 163.557,-41.2199 153.4042,-27.8329"/>
<polygon fill="#191970" stroke="#191970" points="155.9398,-25.3829 147.1194,-19.5134 150.3544,-29.6022 155.9398,-25.3829"/>
</g>
<!-- Node17&#45;&gt;Node7 -->
<g id="edge24" class="edge">
<title>Node17&#45;&gt;Node7</title>
<path fill="none" stroke="#191970" d="M247.3438,-117.8906C259.7503,-108.2324 279.0843,-93.1812 293.7413,-81.771"/>
<polygon fill="#191970" stroke="#191970" points="296.0021,-84.4466 301.7429,-75.5419 291.7021,-78.923 296.0021,-84.4466"/>
</g>
<!-- Node17&#45;&gt;Node8 -->
<g id="edge27" class="edge">
<title>Node17&#45;&gt;Node8</title>
<path fill="none" stroke="#191970" d="M266.25,-117.8906C300.7411,-107.2846 356.3812,-90.1753 394.2662,-78.5257"/>
<polygon fill="#191970" stroke="#191970" points="395.4399,-81.8266 403.9694,-75.5419 393.3824,-75.1357 395.4399,-81.8266"/>
</g>
<!-- Node17&#45;&gt;Node9 -->
<g id="edge26" class="edge">
<title>Node17&#45;&gt;Node9</title>
<path fill="none" stroke="#191970" d="M235.3125,-117.8906C235.5897,-109.3657 236.0036,-96.6392 236.3521,-85.9235"/>
<polygon fill="#191970" stroke="#191970" points="239.8561,-85.8534 236.6831,-75.7449 232.8598,-85.6258 239.8561,-85.8534"/>
</g>
<!-- Node17&#45;&gt;Node12 -->
<g id="edge25" class="edge">
<title>Node17&#45;&gt;Node12</title>
<path fill="none" stroke="#191970" d="M223.6476,-117.7059C209.5445,-104.2784 188.3337,-79.1736 197,-56 201.1149,-44.9969 209.1815,-34.8874 216.9994,-26.9652"/>
<polygon fill="#191970" stroke="#191970" points="219.7032,-29.2264 224.5788,-19.82 214.9015,-24.1329 219.7032,-29.2264"/>
</g>
<!-- Node18&#45;&gt;Node4 -->
<g id="edge29" class="edge">
<title>Node18&#45;&gt;Node4</title>
<path fill="none" stroke="#191970" d="M371.7415,-244.838C737.8249,-242.7767 4361.6555,-220.4257 4437,-143 4666.4567,92.7947 3287.8747,-65.5371 2959,-56 2045.5299,-29.5102 926.3801,-13.4752 709.3994,-10.5033"/>
<polygon fill="#191970" stroke="#191970" points="709.2338,-7.0008 699.187,-10.364 709.1382,-14.0002 709.2338,-7.0008"/>
</g>
<!-- Node18&#45;&gt;Node9 -->
<g id="edge36" class="edge">
<title>Node18&#45;&gt;Node9</title>
<path fill="none" stroke="#191970" d="M312.3883,-242.0952C264.6902,-236.7367 174.2327,-223.5371 155,-199 123.97,-159.4119 180.9144,-107.394 214.6676,-81.7233"/>
<polygon fill="#191970" stroke="#191970" points="217.1228,-84.2607 223.0814,-75.5002 212.9602,-78.6328 217.1228,-84.2607"/>
</g>
<!-- Node18&#45;&gt;Node13 -->
<g id="edge37" class="edge">
<title>Node18&#45;&gt;Node13</title>
<path fill="none" stroke="#191970" d="M369.5041,-235.4679C390.618,-227.4614 419.9605,-214.8026 443,-199 465.4654,-183.5911 487.2461,-160.941 501.0799,-145.2814"/>
<polygon fill="#191970" stroke="#191970" points="504.0089,-147.2451 507.9016,-137.3912 498.7136,-142.6668 504.0089,-147.2451"/>
</g>
<!-- Node19 -->
<g id="node17" class="node">
<title>Node19</title>
<polygon fill="#ffffff" stroke="#bfbfbf" points="490.5,-179.5 490.5,-198.5 541.5,-198.5 541.5,-179.5 490.5,-179.5"/>
<text text-anchor="middle" x="516" y="-186.5" font-family="Helvetica,sans-Serif" font-size="10.00" fill="#000000">numeric</text>
</g>
<!-- Node18&#45;&gt;Node19 -->
<g id="edge30" class="edge">
<title>Node18&#45;&gt;Node19</title>
<path fill="none" stroke="#191970" d="M371.5167,-235.5004C401.6134,-225.8141 448.3225,-210.7813 480.4389,-200.4449"/>
<polygon fill="#191970" stroke="#191970" points="481.8671,-203.6622 490.314,-197.2668 479.7226,-196.9988 481.8671,-203.6622"/>
</g>
<!-- Node20 -->
<g id="node18" class="node">
<title>Node20</title>
<polygon fill="#ffffff" stroke="#bfbfbf" points="249.5,-179.5 249.5,-198.5 296.5,-198.5 296.5,-179.5 249.5,-179.5"/>
<text text-anchor="middle" x="273" y="-186.5" font-family="Helvetica,sans-Serif" font-size="10.00" fill="#000000">iterator</text>
</g>
<!-- Node18&#45;&gt;Node20 -->
<g id="edge31" class="edge">
<title>Node18&#45;&gt;Node20</title>
<path fill="none" stroke="#191970" d="M329.9811,-235.2455C319.7902,-226.9746 304.9638,-214.9416 292.9893,-205.2232"/>
<polygon fill="#191970" stroke="#191970" points="294.8514,-202.2268 284.8812,-198.6427 290.4402,-207.662 294.8514,-202.2268"/>
</g>
<!-- Node21 -->
<g id="node19" class="node">
<title>Node21</title>
<polygon fill="#ffffff" stroke="#bfbfbf" points="314.5,-179.5 314.5,-198.5 363.5,-198.5 363.5,-179.5 314.5,-179.5"/>
<text text-anchor="middle" x="339" y="-186.5" font-family="Helvetica,sans-Serif" font-size="10.00" fill="#000000">gmsh.h</text>
</g>
<!-- Node18&#45;&gt;Node21 -->
<g id="edge32" class="edge">
<title>Node18&#45;&gt;Node21</title>
<path fill="none" stroke="#191970" d="M341.4774,-235.2455C341.086,-227.9382 340.5372,-217.6944 340.0556,-208.7046"/>
<polygon fill="#191970" stroke="#191970" points="343.5466,-208.4411 339.5166,-198.6427 336.5566,-208.8156 343.5466,-208.4411"/>
</g>
<!-- Node22 -->
<g id="node20" class="node">
<title>Node22</title>
<g id="a_node20"><a xlink:href="triangle_8hpp.html" target="_top" xlink:title="Piece of Art Mesh Generation Tool, Winner of the 2003 James Hardy Wilkinson Prize in Numerical Softwa...">
<polygon fill="#ffffff" stroke="#000000" points="164.5,-179.5 164.5,-198.5 231.5,-198.5 231.5,-179.5 164.5,-179.5"/>
<text text-anchor="middle" x="198" y="-186.5" font-family="Helvetica,sans-Serif" font-size="10.00" fill="#000000">triangle.hpp</text>
</a>
</g>
</g>
<!-- Node18&#45;&gt;Node22 -->
<g id="edge33" class="edge">
<title>Node18&#45;&gt;Node22</title>
<path fill="none" stroke="#191970" d="M317.2455,-235.3733C293.7151,-226.2226 258.1313,-212.3844 231.9574,-202.2057"/>
<polygon fill="#191970" stroke="#191970" points="233.0201,-198.8636 222.4315,-198.5011 230.4829,-205.3877 233.0201,-198.8636"/>
</g>
<!-- Node22&#45;&gt;Node5 -->
<g id="edge34" class="edge">
<title>Node22&#45;&gt;Node5</title>
<path fill="none" stroke="#191970" d="M175.4182,-179.4741C158.9582,-171.6253 137.0022,-159.1666 122,-143 99.2858,-118.5229 95.7687,-108.4763 88,-76 85.932,-67.355 84.3489,-64.1044 88,-56 93.5697,-43.6369 104.2863,-33.2563 114.5506,-25.5033"/>
<polygon fill="#191970" stroke="#191970" points="116.7618,-28.2277 122.9433,-19.623 112.7451,-22.4948 116.7618,-28.2277"/>
</g>
<!-- Node22&#45;&gt;Node13 -->
<g id="edge35" class="edge">
<title>Node22&#45;&gt;Node13</title>
<path fill="none" stroke="#191970" d="M231.8937,-180.7787C234.6326,-180.1605 237.3604,-179.5601 240,-179 317.8807,-162.4729 408.7344,-146.0709 464.3037,-136.362"/>
<polygon fill="#191970" stroke="#191970" points="465.0068,-139.7924 474.258,-134.6286 463.8058,-132.8962 465.0068,-139.7924"/>
</g>
<!-- Node23&#45;&gt;Node4 -->
<g id="edge66" class="edge">
<title>Node23&#45;&gt;Node4</title>
<path fill="none" stroke="#191970" d="M2373.1457,-188.442C2563.8382,-184.954 3566.254,-165.5636 3588,-143 3597.561,-133.0796 3597.5706,-121.9112 3588,-112 3535.5138,-57.6457 1046.5705,-15.987 709.6071,-10.5925"/>
<polygon fill="#191970" stroke="#191970" points="709.4518,-7.0897 699.3972,-10.4296 709.34,-14.0888 709.4518,-7.0897"/>
</g>
<!-- Node23&#45;&gt;Node6 -->
<g id="edge69" class="edge">
<title>Node23&#45;&gt;Node6</title>
<path fill="none" stroke="#191970" d="M2310.887,-188.5516C2089.8353,-185.313 764.6632,-165.0008 730,-143 693.4162,-119.7802 721.1759,-81.3018 686,-56 640.0634,-22.958 466.4567,-13.3624 397.9986,-10.8306"/>
<polygon fill="#191970" stroke="#191970" points="397.6981,-7.3182 387.5832,-10.4706 397.4563,-14.314 397.6981,-7.3182"/>
</g>
<!-- Node23&#45;&gt;Node8 -->
<g id="edge71" class="edge">
<title>Node23&#45;&gt;Node8</title>
<path fill="none" stroke="#191970" d="M2310.9031,-188.7207C2095.2863,-186.709 826.424,-173.6292 658,-143 655.6153,-142.5663 534.7352,-100.6406 471.9721,-78.8454"/>
<polygon fill="#191970" stroke="#191970" points="473.0199,-75.5042 462.4251,-75.5297 470.7233,-82.1168 473.0199,-75.5042"/>
</g>
<!-- Node23&#45;&gt;Node9 -->
<g id="edge72" class="edge">
<title>Node23&#45;&gt;Node9</title>
<path fill="none" stroke="#191970" d="M2310.742,-188.7978C2080.7977,-187.2361 654.6987,-176.255 466,-143 392.6123,-130.0667 310.794,-97.9997 267.5916,-79.5852"/>
<polygon fill="#191970" stroke="#191970" points="268.7897,-76.2903 258.221,-75.546 266.0188,-82.7186 268.7897,-76.2903"/>
</g>
<!-- Node23&#45;&gt;Node12 -->
<g id="edge67" class="edge">
<title>Node23&#45;&gt;Node12</title>
<path fill="none" stroke="#191970" d="M2310.9258,-188.7651C2091.4843,-187.0268 781.8167,-175.3212 705,-143 653.7206,-121.4238 665.221,-79.9366 615,-56 599.3354,-48.5338 355.0292,-22.3649 267.7213,-13.1998"/>
<polygon fill="#191970" stroke="#191970" points="267.9543,-9.7052 257.6441,-12.1444 267.2251,-16.6671 267.9543,-9.7052"/>
</g>
<!-- Node23&#45;&gt;Node13 -->
<g id="edge73" class="edge">
<title>Node23&#45;&gt;Node13</title>
<path fill="none" stroke="#191970" d="M2310.8652,-188.6067C2089.3053,-185.7528 755.102,-167.6344 577,-143 570.7493,-142.1354 564.2145,-140.8721 557.8418,-139.434"/>
<polygon fill="#191970" stroke="#191970" points="558.5677,-136.0088 548.0254,-137.0624 556.9237,-142.813 558.5677,-136.0088"/>
</g>
<!-- Node24 -->
<g id="node22" class="node">
<title>Node24</title>
<polygon fill="#ffffff" stroke="#bfbfbf" points="3635,-112.5 3635,-142.5 3751,-142.5 3751,-112.5 3635,-112.5"/>
<text text-anchor="start" x="3643" y="-130.5" font-family="Helvetica,sans-Serif" font-size="10.00" fill="#000000">deal.II/base/quadrature</text>
<text text-anchor="middle" x="3693" y="-119.5" font-family="Helvetica,sans-Serif" font-size="10.00" fill="#000000">_lib.h</text>
</g>
<!-- Node23&#45;&gt;Node24 -->
<g id="edge39" class="edge">
<title>Node23&#45;&gt;Node24</title>
<path fill="none" stroke="#191970" d="M2373.2557,-188.6229C2544.3093,-186.4457 3368.5432,-174.465 3621,-143 3622.2847,-142.8399 3623.5804,-142.6682 3624.8842,-142.4861"/>
<polygon fill="#191970" stroke="#191970" points="3625.6522,-145.9086 3634.9912,-140.9053 3624.5705,-138.9927 3625.6522,-145.9086"/>
</g>
<!-- Node25 -->
<g id="node23" class="node">
<title>Node25</title>
<polygon fill="#ffffff" stroke="#bfbfbf" points="3769.5,-118 3769.5,-137 3882.5,-137 3882.5,-118 3769.5,-118"/>
<text text-anchor="middle" x="3826" y="-125" font-family="Helvetica,sans-Serif" font-size="10.00" fill="#000000">deal.II/base/function.h</text>
</g>
<!-- Node23&#45;&gt;Node25 -->
<g id="edge40" class="edge">
<title>Node23&#45;&gt;Node25</title>
<path fill="none" stroke="#191970" d="M2373.0286,-188.83C2554.3587,-187.7103 3478.5803,-180.2354 3760,-143 3766.8989,-142.0872 3774.1317,-140.7692 3781.176,-139.2819"/>
<polygon fill="#191970" stroke="#191970" points="3782.3105,-142.6145 3791.3012,-137.0092 3780.7774,-135.7844 3782.3105,-142.6145"/>
</g>
<!-- Node26 -->
<g id="node24" class="node">
<title>Node26</title>
<polygon fill="#ffffff" stroke="#bfbfbf" points="3901,-112.5 3901,-142.5 4027,-142.5 4027,-112.5 3901,-112.5"/>
<text text-anchor="start" x="3909" y="-130.5" font-family="Helvetica,sans-Serif" font-size="10.00" fill="#000000">deal.II/base/convergence</text>
<text text-anchor="middle" x="3964" y="-119.5" font-family="Helvetica,sans-Serif" font-size="10.00" fill="#000000">_table.h</text>
</g>
<!-- Node23&#45;&gt;Node26 -->
<g id="edge41" class="edge">
<title>Node23&#45;&gt;Node26</title>
<path fill="none" stroke="#191970" d="M2373.0624,-188.8507C2562.2142,-187.826 3561.6923,-180.7368 3890.8805,-142.9503"/>
<polygon fill="#191970" stroke="#191970" points="3891.3746,-146.4164 3900.8943,-141.766 3890.5524,-139.4648 3891.3746,-146.4164"/>
</g>
<!-- Node27 -->
<g id="node25" class="node">
<title>Node27</title>
<polygon fill="#ffffff" stroke="#bfbfbf" points="4045.5,-118 4045.5,-137 4148.5,-137 4148.5,-118 4045.5,-118"/>
<text text-anchor="middle" x="4097" y="-125" font-family="Helvetica,sans-Serif" font-size="10.00" fill="#000000">deal.II/base/types.h</text>
</g>
<!-- Node23&#45;&gt;Node27 -->
<g id="edge42" class="edge">
<title>Node23&#45;&gt;Node27</title>
<path fill="none" stroke="#191970" d="M2373.2566,-188.5686C2589.9837,-185.5226 3865.4346,-166.6869 4036,-143 4042.2503,-142.132 4048.7848,-140.8669 4055.1573,-139.4279"/>
<polygon fill="#191970" stroke="#191970" points="4056.0757,-142.8068 4064.9737,-137.0557 4054.4313,-136.0026 4056.0757,-142.8068"/>
</g>
<!-- Node28 -->
<g id="node26" class="node">
<title>Node28</title>
<polygon fill="#ffffff" stroke="#bfbfbf" points="4166.5,-118 4166.5,-137 4293.5,-137 4293.5,-118 4166.5,-118"/>
<text text-anchor="middle" x="4230" y="-125" font-family="Helvetica,sans-Serif" font-size="10.00" fill="#000000">deal.II/dofs/dof_handler.h</text>
</g>
<!-- Node23&#45;&gt;Node28 -->
<g id="edge43" class="edge">
<title>Node23&#45;&gt;Node28</title>
<path fill="none" stroke="#191970" d="M2373.3007,-188.5599C2598.9969,-185.3402 3974.1162,-164.927 4158,-143 4165.8559,-142.0632 4174.1204,-140.6738 4182.1371,-139.1053"/>
<polygon fill="#191970" stroke="#191970" points="4183.0254,-142.4957 4192.1096,-137.0432 4181.608,-135.6407 4183.0254,-142.4957"/>
</g>
<!-- Node29 -->
<g id="node27" class="node">
<title>Node29</title>
<polygon fill="#ffffff" stroke="#bfbfbf" points="4312,-118 4312,-137 4428,-137 4428,-118 4312,-118"/>
<text text-anchor="middle" x="4370" y="-125" font-family="Helvetica,sans-Serif" font-size="10.00" fill="#000000">deal.II/dofs/dof_tools.h</text>
</g>
<!-- Node23&#45;&gt;Node29 -->
<g id="edge44" class="edge">
<title>Node23&#45;&gt;Node29</title>
<path fill="none" stroke="#191970" d="M2373.1311,-188.6533C2608.4628,-185.9818 4103.8672,-168.1027 4303,-143 4310.1665,-142.0966 4317.6877,-140.7545 4324.9957,-139.2315"/>
<polygon fill="#191970" stroke="#191970" points="4325.7684,-142.6453 4334.7757,-137.0668 4324.2556,-135.8107 4325.7684,-142.6453"/>
</g>
<!-- Node30 -->
<g id="node28" class="node">
<title>Node30</title>
<polygon fill="#ffffff" stroke="#bfbfbf" points="738.5,-118 738.5,-137 873.5,-137 873.5,-118 738.5,-118"/>
<text text-anchor="middle" x="806" y="-125" font-family="Helvetica,sans-Serif" font-size="10.00" fill="#000000">deal.II/dofs/dof_accessor.h</text>
</g>
<!-- Node23&#45;&gt;Node30 -->
<g id="edge45" class="edge">
<title>Node23&#45;&gt;Node30</title>
<path fill="none" stroke="#191970" d="M2310.9956,-188.7284C2126.7118,-187.0076 1173.6118,-176.5923 883,-143 874.5295,-142.0209 865.6029,-140.5953 856.9484,-138.9998"/>
<polygon fill="#191970" stroke="#191970" points="857.4405,-135.5301 846.9574,-137.0653 856.1097,-142.4025 857.4405,-135.5301"/>
</g>
<!-- Node31 -->
<g id="node29" class="node">
<title>Node31</title>
<polygon fill="#ffffff" stroke="#bfbfbf" points="891.5,-118 891.5,-137 1040.5,-137 1040.5,-118 891.5,-118"/>
<text text-anchor="middle" x="966" y="-125" font-family="Helvetica,sans-Serif" font-size="10.00" fill="#000000">deal.II/dofs/dof_renumbering.h</text>
</g>
<!-- Node23&#45;&gt;Node31 -->
<g id="edge46" class="edge">
<title>Node23&#45;&gt;Node31</title>
<path fill="none" stroke="#191970" d="M2310.7237,-188.5106C2138.6368,-185.7234 1305.606,-170.9797 1050,-143 1040.4814,-141.9581 1030.4205,-140.4556 1020.6965,-138.7913"/>
<polygon fill="#191970" stroke="#191970" points="1021.1812,-135.3226 1010.7218,-137.0108 1019.9511,-142.2137 1021.1812,-135.3226"/>
</g>
<!-- Node32 -->
<g id="node30" class="node">
<title>Node32</title>
<polygon fill="#ffffff" stroke="#bfbfbf" points="1058.5,-118 1058.5,-137 1143.5,-137 1143.5,-118 1058.5,-118"/>
<text text-anchor="middle" x="1101" y="-125" font-family="Helvetica,sans-Serif" font-size="10.00" fill="#000000">deal.II/fe/fe_q.h</text>
</g>
<!-- Node23&#45;&gt;Node32 -->
<g id="edge47" class="edge">
<title>Node23&#45;&gt;Node32</title>
<path fill="none" stroke="#191970" d="M2310.7779,-188.8509C2146.9528,-187.9077 1385.3321,-181.4908 1153,-143 1148.1441,-142.1955 1143.1042,-141.0737 1138.1577,-139.7977"/>
<polygon fill="#191970" stroke="#191970" points="1138.7979,-136.3423 1128.2244,-137.014 1136.9089,-143.0827 1138.7979,-136.3423"/>
</g>
<!-- Node33 -->
<g id="node31" class="node">
<title>Node33</title>
<polygon fill="#ffffff" stroke="#bfbfbf" points="1162,-118 1162,-137 1270,-137 1270,-118 1162,-118"/>
<text text-anchor="middle" x="1216" y="-125" font-family="Helvetica,sans-Serif" font-size="10.00" fill="#000000">deal.II/fe/fe_values.h</text>
</g>
<!-- Node23&#45;&gt;Node33 -->
<g id="edge48" class="edge">
<title>Node23&#45;&gt;Node33</title>
<path fill="none" stroke="#191970" d="M2310.9349,-188.4693C2158.2965,-185.7374 1486.8283,-172.2415 1280,-143 1273.5371,-142.0863 1266.7737,-140.8092 1260.1652,-139.3762"/>
<polygon fill="#191970" stroke="#191970" points="1260.5042,-135.8626 1249.9735,-137.0259 1258.9312,-142.6836 1260.5042,-135.8626"/>
</g>
<!-- Node34 -->
<g id="node32" class="node">
<title>Node34</title>
<polygon fill="#ffffff" stroke="#bfbfbf" points="1288.5,-118 1288.5,-137 1375.5,-137 1375.5,-118 1288.5,-118"/>
<text text-anchor="middle" x="1332" y="-125" font-family="Helvetica,sans-Serif" font-size="10.00" fill="#000000">deal.II/grid/tria.h</text>
</g>
<!-- Node23&#45;&gt;Node34 -->
<g id="edge49" class="edge">
<title>Node23&#45;&gt;Node34</title>
<path fill="none" stroke="#191970" d="M2310.9411,-188.494C2167.6237,-186.008 1569.344,-173.9373 1385,-143 1380.1161,-142.1804 1375.0452,-141.0604 1370.0617,-139.7947"/>
<polygon fill="#191970" stroke="#191970" points="1370.6128,-136.3165 1360.0428,-137.0415 1368.7579,-143.0662 1370.6128,-136.3165"/>
</g>
<!-- Node35 -->
<g id="node33" class="node">
<title>Node35</title>
<polygon fill="#ffffff" stroke="#bfbfbf" points="1393.5,-118 1393.5,-137 1528.5,-137 1528.5,-118 1393.5,-118"/>
<text text-anchor="middle" x="1461" y="-125" font-family="Helvetica,sans-Serif" font-size="10.00" fill="#000000">deal.II/grid/grid_generator.h</text>
</g>
<!-- Node23&#45;&gt;Node35 -->
<g id="edge50" class="edge">
<title>Node23&#45;&gt;Node35</title>
<path fill="none" stroke="#191970" d="M2310.812,-188.7995C2203.1327,-187.7707 1837.1798,-181.4745 1538,-143 1529.827,-141.949 1521.222,-140.5304 1512.8443,-138.9765"/>
<polygon fill="#191970" stroke="#191970" points="1513.2654,-135.4931 1502.7825,-137.0295 1511.9354,-142.3656 1513.2654,-135.4931"/>
</g>
<!-- Node36 -->
<g id="node34" class="node">
<title>Node36</title>
<polygon fill="#ffffff" stroke="#bfbfbf" points="1547,-118 1547,-137 1649,-137 1649,-118 1547,-118"/>
<text text-anchor="middle" x="1598" y="-125" font-family="Helvetica,sans-Serif" font-size="10.00" fill="#000000">deal.II/grid/grid_in.h</text>
</g>
<!-- Node23&#45;&gt;Node36 -->
<g id="edge51" class="edge">
<title>Node23&#45;&gt;Node36</title>
<path fill="none" stroke="#191970" d="M2310.9314,-187.6788C2194.8269,-182.6219 1786.5139,-163.7367 1658,-143 1652.2164,-142.0668 1646.1786,-140.8293 1640.2563,-139.4591"/>
<polygon fill="#191970" stroke="#191970" points="1641.0098,-136.0403 1630.464,-137.0584 1639.343,-142.839 1641.0098,-136.0403"/>
</g>
<!-- Node37 -->
<g id="node35" class="node">
<title>Node37</title>
<polygon fill="#ffffff" stroke="#bfbfbf" points="1667,-118 1667,-137 1775,-137 1775,-118 1667,-118"/>
<text text-anchor="middle" x="1721" y="-125" font-family="Helvetica,sans-Serif" font-size="10.00" fill="#000000">deal.II/grid/grid_out.h</text>
</g>
<!-- Node23&#45;&gt;Node37 -->
<g id="edge52" class="edge">
<title>Node23&#45;&gt;Node37</title>
<path fill="none" stroke="#191970" d="M2310.9395,-188.17C2226.0252,-185.5289 1983.0649,-175.4817 1784,-143 1778.0179,-142.0239 1771.7669,-140.7733 1765.6246,-139.4066"/>
<polygon fill="#191970" stroke="#191970" points="1765.9912,-135.8979 1755.4565,-137.0252 1764.3949,-142.7134 1765.9912,-135.8979"/>
</g>
<!-- Node38 -->
<g id="node36" class="node">
<title>Node38</title>
<polygon fill="#ffffff" stroke="#bfbfbf" points="1793,-118 1793,-137 1933,-137 1933,-118 1793,-118"/>
<text text-anchor="middle" x="1863" y="-125" font-family="Helvetica,sans-Serif" font-size="10.00" fill="#000000">deal.II/grid/grid_refinement.h</text>
</g>
<!-- Node23&#45;&gt;Node38 -->
<g id="edge53" class="edge">
<title>Node23&#45;&gt;Node38</title>
<path fill="none" stroke="#191970" d="M2310.8499,-186.2282C2243.513,-180.0569 2079.4502,-164.0525 1943,-143 1935.2336,-141.8017 1927.0711,-140.3937 1919.05,-138.9234"/>
<polygon fill="#191970" stroke="#191970" points="1919.48,-135.4431 1909.006,-137.0388 1918.189,-142.323 1919.48,-135.4431"/>
</g>
<!-- Node39 -->
<g id="node37" class="node">
<title>Node39</title>
<polygon fill="#ffffff" stroke="#bfbfbf" points="1951.5,-118 1951.5,-137 2088.5,-137 2088.5,-118 1951.5,-118"/>
<text text-anchor="middle" x="2020" y="-125" font-family="Helvetica,sans-Serif" font-size="10.00" fill="#000000">deal.II/grid/grid_reordering.h</text>
</g>
<!-- Node23&#45;&gt;Node39 -->
<g id="edge54" class="edge">
<title>Node23&#45;&gt;Node39</title>
<path fill="none" stroke="#191970" d="M2310.7826,-183.2162C2264.3592,-174.5922 2174.3901,-157.7904 2098,-143 2091.3518,-141.7128 2084.388,-140.3499 2077.4735,-138.9875"/>
<polygon fill="#191970" stroke="#191970" points="2077.9096,-135.5061 2067.4207,-137.0007 2076.5523,-142.3732 2077.9096,-135.5061"/>
</g>
<!-- Node40 -->
<g id="node38" class="node">
<title>Node40</title>
<polygon fill="#ffffff" stroke="#bfbfbf" points="2107,-118 2107,-137 2205,-137 2205,-118 2107,-118"/>
<text text-anchor="middle" x="2156" y="-125" font-family="Helvetica,sans-Serif" font-size="10.00" fill="#000000">deal.II/lac/vector.h</text>
</g>
<!-- Node23&#45;&gt;Node40 -->
<g id="edge55" class="edge">
<title>Node23&#45;&gt;Node40</title>
<path fill="none" stroke="#191970" d="M2312.9375,-179.3906C2281.1338,-168.8749 2229.9949,-151.966 2194.7856,-140.3243"/>
<polygon fill="#191970" stroke="#191970" points="2195.4517,-136.8582 2184.8584,-137.0419 2193.2541,-143.5043 2195.4517,-136.8582"/>
</g>
<!-- Node41 -->
<g id="node39" class="node">
<title>Node41</title>
<polygon fill="#ffffff" stroke="#bfbfbf" points="2223,-118 2223,-137 2339,-137 2339,-118 2223,-118"/>
<text text-anchor="middle" x="2281" y="-125" font-family="Helvetica,sans-Serif" font-size="10.00" fill="#000000">deal.II/lac/full_matrix.h</text>
</g>
<!-- Node23&#45;&gt;Node41 -->
<g id="edge56" class="edge">
<title>Node23&#45;&gt;Node41</title>
<path fill="none" stroke="#191970" d="M2332.4688,-179.3906C2323.2121,-170.0581 2308.961,-155.6902 2297.7997,-144.4374"/>
<polygon fill="#191970" stroke="#191970" points="2300.1928,-141.88 2290.6656,-137.2449 2295.2228,-146.8095 2300.1928,-141.88"/>
</g>
<!-- Node42 -->
<g id="node40" class="node">
<title>Node42</title>
<polygon fill="#ffffff" stroke="#bfbfbf" points="2357,-112.5 2357,-142.5 2449,-142.5 2449,-112.5 2357,-112.5"/>
<text text-anchor="start" x="2365" y="-130.5" font-family="Helvetica,sans-Serif" font-size="10.00" fill="#000000">deal.II/lac/sparse</text>
<text text-anchor="middle" x="2403" y="-119.5" font-family="Helvetica,sans-Serif" font-size="10.00" fill="#000000">_matrix.h</text>
</g>
<!-- Node23&#45;&gt;Node42 -->
<g id="edge57" class="edge">
<title>Node23&#45;&gt;Node42</title>
<path fill="none" stroke="#191970" d="M2351.5313,-179.3906C2359.4047,-171.4527 2370.8913,-159.8718 2381.0167,-149.6635"/>
<polygon fill="#191970" stroke="#191970" points="2383.5205,-152.1093 2388.0777,-142.5446 2378.5506,-147.1797 2383.5205,-152.1093"/>
</g>
<!-- Node43 -->
<g id="node41" class="node">
<title>Node43</title>
<polygon fill="#ffffff" stroke="#bfbfbf" points="2467,-112.5 2467,-142.5 2567,-142.5 2567,-112.5 2467,-112.5"/>
<text text-anchor="start" x="2475" y="-130.5" font-family="Helvetica,sans-Serif" font-size="10.00" fill="#000000">deal.II/lac/dynamic</text>
<text text-anchor="middle" x="2517" y="-119.5" font-family="Helvetica,sans-Serif" font-size="10.00" fill="#000000">_sparsity_pattern.h</text>
</g>
<!-- Node23&#45;&gt;Node43 -->
<g id="edge58" class="edge">
<title>Node23&#45;&gt;Node43</title>
<path fill="none" stroke="#191970" d="M2369.3438,-179.3906C2394.7822,-170.4508 2433.3685,-156.8905 2464.7165,-145.8739"/>
<polygon fill="#191970" stroke="#191970" points="2465.9163,-149.1622 2474.1902,-142.5446 2463.5954,-142.5581 2465.9163,-149.1622"/>
</g>
<!-- Node44 -->
<g id="node42" class="node">
<title>Node44</title>
<polygon fill="#ffffff" stroke="#bfbfbf" points="2585.5,-118 2585.5,-137 2698.5,-137 2698.5,-118 2585.5,-118"/>
<text text-anchor="middle" x="2642" y="-125" font-family="Helvetica,sans-Serif" font-size="10.00" fill="#000000">deal.II/lac/solver_cg.h</text>
</g>
<!-- Node23&#45;&gt;Node44 -->
<g id="edge59" class="edge">
<title>Node23&#45;&gt;Node44</title>
<path fill="none" stroke="#191970" d="M2373.1123,-183.2586C2418.0154,-174.8874 2503.5547,-158.6221 2576,-143 2581.3213,-141.8525 2586.8741,-140.6137 2592.4011,-139.3541"/>
<polygon fill="#191970" stroke="#191970" points="2593.3082,-142.7369 2602.2661,-137.0794 2591.7353,-135.9158 2593.3082,-142.7369"/>
</g>
<!-- Node45 -->
<g id="node43" class="node">
<title>Node45</title>
<polygon fill="#ffffff" stroke="#bfbfbf" points="2716.5,-118 2716.5,-137 2839.5,-137 2839.5,-118 2716.5,-118"/>
<text text-anchor="middle" x="2778" y="-125" font-family="Helvetica,sans-Serif" font-size="10.00" fill="#000000">deal.II/lac/precondition.h</text>
</g>
<!-- Node23&#45;&gt;Node45 -->
<g id="edge60" class="edge">
<title>Node23&#45;&gt;Node45</title>
<path fill="none" stroke="#191970" d="M2373.4794,-186.0389C2437.0003,-179.8448 2584.9503,-164.3086 2708,-143 2714.3584,-141.8989 2721.0124,-140.6081 2727.5813,-139.2496"/>
<polygon fill="#191970" stroke="#191970" points="2728.7284,-142.5838 2737.7794,-137.0766 2727.2695,-135.7375 2728.7284,-142.5838"/>
</g>
<!-- Node46 -->
<g id="node44" class="node">
<title>Node46</title>
<polygon fill="#ffffff" stroke="#bfbfbf" points="2857.5,-112.5 2857.5,-142.5 2962.5,-142.5 2962.5,-112.5 2857.5,-112.5"/>
<text text-anchor="start" x="2865.5" y="-130.5" font-family="Helvetica,sans-Serif" font-size="10.00" fill="#000000">deal.II/lac/constraint</text>
<text text-anchor="middle" x="2910" y="-119.5" font-family="Helvetica,sans-Serif" font-size="10.00" fill="#000000">_matrix.h</text>
</g>
<!-- Node23&#45;&gt;Node46 -->
<g id="edge61" class="edge">
<title>Node23&#45;&gt;Node46</title>
<path fill="none" stroke="#191970" d="M2373.0855,-187.8929C2451.3319,-184.7428 2662.8071,-173.9795 2847.3304,-143.1339"/>
<polygon fill="#191970" stroke="#191970" points="2847.9344,-146.5815 2857.2085,-141.4588 2846.764,-139.68 2847.9344,-146.5815"/>
</g>
<!-- Node47 -->
<g id="node45" class="node">
<title>Node47</title>
<polygon fill="#ffffff" stroke="#bfbfbf" points="2981,-112.5 2981,-142.5 3097,-142.5 3097,-112.5 2981,-112.5"/>
<text text-anchor="start" x="2989" y="-130.5" font-family="Helvetica,sans-Serif" font-size="10.00" fill="#000000">deal.II/numerics/vector</text>
<text text-anchor="middle" x="3039" y="-119.5" font-family="Helvetica,sans-Serif" font-size="10.00" fill="#000000">_tools.h</text>
</g>
<!-- Node23&#45;&gt;Node47 -->
<g id="edge62" class="edge">
<title>Node23&#45;&gt;Node47</title>
<path fill="none" stroke="#191970" d="M2373.3271,-188.4216C2464.2639,-186.3819 2736.1715,-177.7325 2970.5606,-143.0708"/>
<polygon fill="#191970" stroke="#191970" points="2971.2658,-146.5043 2980.6368,-141.561 2970.2285,-139.5816 2971.2658,-146.5043"/>
</g>
<!-- Node48 -->
<g id="node46" class="node">
<title>Node48</title>
<polygon fill="#ffffff" stroke="#bfbfbf" points="3115,-112.5 3115,-142.5 3223,-142.5 3223,-112.5 3115,-112.5"/>
<text text-anchor="start" x="3123" y="-130.5" font-family="Helvetica,sans-Serif" font-size="10.00" fill="#000000">deal.II/numerics/data</text>
<text text-anchor="middle" x="3169" y="-119.5" font-family="Helvetica,sans-Serif" font-size="10.00" fill="#000000">_out.h</text>
</g>
<!-- Node23&#45;&gt;Node48 -->
<g id="edge63" class="edge">
<title>Node23&#45;&gt;Node48</title>
<path fill="none" stroke="#191970" d="M2373.2194,-187.876C2495.3,-183.3665 2941.2576,-165.7951 3104.4922,-142.9974"/>
<polygon fill="#191970" stroke="#191970" points="3105.4394,-146.3963 3114.8289,-141.4882 3104.4281,-139.4697 3105.4394,-146.3963"/>
</g>
<!-- Node49 -->
<g id="node47" class="node">
<title>Node49</title>
<polygon fill="#ffffff" stroke="#bfbfbf" points="3241.5,-112.5 3241.5,-142.5 3350.5,-142.5 3350.5,-112.5 3241.5,-112.5"/>
<text text-anchor="start" x="3249.5" y="-130.5" font-family="Helvetica,sans-Serif" font-size="10.00" fill="#000000">deal.II/numerics/error</text>
<text text-anchor="middle" x="3296" y="-119.5" font-family="Helvetica,sans-Serif" font-size="10.00" fill="#000000">_estimator.h</text>
</g>
<!-- Node23&#45;&gt;Node49 -->
<g id="edge64" class="edge">
<title>Node23&#45;&gt;Node49</title>
<path fill="none" stroke="#191970" d="M2373.1179,-188.1689C2507.7139,-184.457 3041.1415,-168.5097 3231.1819,-142.8759"/>
<polygon fill="#191970" stroke="#191970" points="3231.9026,-146.3091 3241.3181,-141.4512 3230.9282,-139.3772 3231.9026,-146.3091"/>
</g>
<!-- Node50 -->
<g id="node48" class="node">
<title>Node50</title>
<polygon fill="#ffffff" stroke="#bfbfbf" points="3369,-118 3369,-137 3419,-137 3419,-118 3369,-118"/>
<text text-anchor="middle" x="3394" y="-125" font-family="Helvetica,sans-Serif" font-size="10.00" fill="#000000">fstream</text>
</g>
<!-- Node23&#45;&gt;Node50 -->
<g id="edge65" class="edge">
<title>Node23&#45;&gt;Node50</title>
<path fill="none" stroke="#191970" d="M2373.14,-188.2991C2533.4663,-184.5958 3262.1246,-166.5833 3360,-143 3362.3414,-142.4358 3364.7187,-141.7093 3367.0723,-140.8794"/>
<polygon fill="#191970" stroke="#191970" points="3368.532,-144.0639 3376.4611,-137.0368 3365.8805,-137.5855 3368.532,-144.0639"/>
</g>
<!-- Node51 -->
<g id="node49" class="node">
<title>Node51</title>
<polygon fill="#ffffff" stroke="#bfbfbf" points="3437.5,-118 3437.5,-137 3520.5,-137 3520.5,-118 3437.5,-118"/>
<text text-anchor="middle" x="3479" y="-125" font-family="Helvetica,sans-Serif" font-size="10.00" fill="#000000">unordered_map</text>
</g>
<!-- Node23&#45;&gt;Node51 -->
<g id="edge68" class="edge">
<title>Node23&#45;&gt;Node51</title>
<path fill="none" stroke="#191970" d="M2373.0326,-188.7425C2527.7933,-187.2972 3217.0862,-178.9207 3428,-143 3432.7124,-142.1974 3437.5996,-141.0876 3442.3992,-139.8273"/>
<polygon fill="#191970" stroke="#191970" points="3443.3857,-143.1856 3452.0437,-137.079 3441.4674,-136.4536 3443.3857,-143.1856"/>
</g>
<!-- Node52 -->
<g id="node50" class="node">
<title>Node52</title>
<polygon fill="#ffffff" stroke="#bfbfbf" points="3539,-118 3539,-137 3579,-137 3579,-118 3539,-118"/>
<text text-anchor="middle" x="3559" y="-125" font-family="Helvetica,sans-Serif" font-size="10.00" fill="#000000">utility</text>
</g>
<!-- Node23&#45;&gt;Node52 -->
<g id="edge70" class="edge">
<title>Node23&#45;&gt;Node52</title>
<path fill="none" stroke="#191970" d="M2373.0147,-188.6304C2548.7339,-186.426 3415.5156,-174.0416 3530,-143 3531.6667,-142.5481 3533.3445,-141.9865 3535.0073,-141.3476"/>
<polygon fill="#191970" stroke="#191970" points="3536.605,-144.4645 3544.1888,-137.066 3533.6465,-138.1204 3536.605,-144.4645"/>
</g>
</g>
</svg>
