<?xml version="1.0" encoding="UTF-8" standalone="no"?>
<!DOCTYPE svg PUBLIC "-//W3C//DTD SVG 1.1//EN"
 "http://www.w3.org/Graphics/SVG/1.1/DTD/svg11.dtd">
<!-- Generated by graphviz version 2.40.1 (20161225.0304)
 -->
<!-- Title: /home/oleg/Dev/riversim/source/river/riversim.hpp Pages: 1 -->
<svg width="4568pt" height="330pt"
 viewBox="0.00 0.00 4567.70 330.00" xmlns="http://www.w3.org/2000/svg" xmlns:xlink="http://www.w3.org/1999/xlink">
<g id="graph0" class="graph" transform="scale(1 1) rotate(0) translate(4 326)">
<title>/home/oleg/Dev/riversim/source/river/riversim.hpp</title>
<polygon fill="#ffffff" stroke="transparent" points="-4,4 -4,-326 4563.6983,-326 4563.6983,4 -4,4"/>
<!-- Node0 -->
<g id="node1" class="node">
<title>Node0</title>
<polygon fill="#bfbfbf" stroke="#000000" points="398,-291.5 398,-321.5 525,-321.5 525,-291.5 398,-291.5"/>
<text text-anchor="start" x="406" y="-309.5" font-family="Helvetica,sans-Serif" font-size="10.00" fill="#000000">/home/oleg/Dev/riversim</text>
<text text-anchor="middle" x="461.5" y="-298.5" font-family="Helvetica,sans-Serif" font-size="10.00" fill="#000000">/source/river/riversim.hpp</text>
</g>
<!-- Node1 -->
<g id="node2" class="node">
<title>Node1</title>
<g id="a_node2"><a xlink:href="utilities_8hpp.html" target="_top" xlink:title="Console printouts, version, title and program options processing. ">
<polygon fill="#ffffff" stroke="#000000" points="129.5,-179.5 129.5,-198.5 195.5,-198.5 195.5,-179.5 129.5,-179.5"/>
<text text-anchor="middle" x="162.5" y="-186.5" font-family="Helvetica,sans-Serif" font-size="10.00" fill="#000000">utilities.hpp</text>
</a>
</g>
</g>
<!-- Node0&#45;&gt;Node1 -->
<g id="edge1" class="edge">
<title>Node0&#45;&gt;Node1</title>
<path fill="none" stroke="#191970" d="M405.0116,-291.4053C372.5336,-282.1268 331.2176,-269.2963 295.5,-255 257.3484,-239.7294 215.1356,-217.8828 188.7153,-203.5726"/>
<polygon fill="#191970" stroke="#191970" points="190.1869,-200.3884 179.7327,-198.6675 186.832,-206.5321 190.1869,-200.3884"/>
</g>
<!-- Node5 -->
<g id="node6" class="node">
<title>Node5</title>
<g id="a_node6"><a xlink:href="tree_8hpp.html" target="_top" xlink:title="Holds all functionality that you need to work with tree of river, its separate branches and generatio...">
<polygon fill="#ffffff" stroke="#000000" points="489.5,-179.5 489.5,-198.5 541.5,-198.5 541.5,-179.5 489.5,-179.5"/>
<text text-anchor="middle" x="515.5" y="-186.5" font-family="Helvetica,sans-Serif" font-size="10.00" fill="#000000">tree.hpp</text>
</a>
</g>
</g>
<!-- Node0&#45;&gt;Node5 -->
<g id="edge5" class="edge">
<title>Node0&#45;&gt;Node5</title>
<path fill="none" stroke="#191970" d="M468.5596,-291.1389C478.4213,-269.6806 496.3018,-230.7738 506.9196,-207.6702"/>
<polygon fill="#191970" stroke="#191970" points="510.111,-209.1074 511.1067,-198.5595 503.7506,-206.1843 510.111,-209.1074"/>
</g>
<!-- Node15 -->
<g id="node14" class="node">
<title>Node15</title>
<g id="a_node14"><a xlink:href="physmodel_8hpp.html" target="_top" xlink:title="Physical model incapsulation. ">
<polygon fill="#ffffff" stroke="#ff0000" points="250,-118 250,-137 333,-137 333,-118 250,-118"/>
<text text-anchor="middle" x="291.5" y="-125" font-family="Helvetica,sans-Serif" font-size="10.00" fill="#000000">physmodel.hpp</text>
</a>
</g>
</g>
<!-- Node0&#45;&gt;Node15 -->
<g id="edge73" class="edge">
<title>Node0&#45;&gt;Node15</title>
<path fill="none" stroke="#191970" d="M413.8688,-291.4747C393.6446,-283.2362 370.9846,-271.3149 354.5,-255 323.19,-224.0123 304.9215,-174.2871 296.7244,-146.9942"/>
<polygon fill="#191970" stroke="#191970" points="300.0106,-145.7549 293.9021,-137.0983 293.279,-147.6748 300.0106,-145.7549"/>
</g>
<!-- Node19 -->
<g id="node15" class="node">
<title>Node19</title>
<g id="a_node15"><a xlink:href="border_8hpp.html" target="_top" xlink:title="Generate initial predefinide border geometry and its source positions. ">
<polygon fill="#ffffff" stroke="#000000" points="427.5,-118 427.5,-137 489.5,-137 489.5,-118 427.5,-118"/>
<text text-anchor="middle" x="458.5" y="-125" font-family="Helvetica,sans-Serif" font-size="10.00" fill="#000000">border.hpp</text>
</a>
</g>
</g>
<!-- Node0&#45;&gt;Node19 -->
<g id="edge74" class="edge">
<title>Node0&#45;&gt;Node19</title>
<path fill="none" stroke="#191970" d="M461.2442,-291.2386C460.7021,-258.892 459.4378,-183.458 458.8334,-147.393"/>
<polygon fill="#191970" stroke="#191970" points="462.3293,-147.1113 458.6621,-137.1714 455.3303,-147.2287 462.3293,-147.1113"/>
</g>
<!-- Node20 -->
<g id="node16" class="node">
<title>Node20</title>
<g id="a_node16"><a xlink:href="mesh_8hpp.html" target="_top" xlink:title="Wrappers class of Triangle. ">
<polygon fill="#ffffff" stroke="#000000" points="540,-235.5 540,-254.5 599,-254.5 599,-235.5 540,-235.5"/>
<text text-anchor="middle" x="569.5" y="-242.5" font-family="Helvetica,sans-Serif" font-size="10.00" fill="#000000">mesh.hpp</text>
</a>
</g>
</g>
<!-- Node0&#45;&gt;Node20 -->
<g id="edge28" class="edge">
<title>Node0&#45;&gt;Node20</title>
<path fill="none" stroke="#191970" d="M487.9198,-291.4554C504.9914,-281.734 527.0902,-269.15 543.9809,-259.5317"/>
<polygon fill="#191970" stroke="#191970" points="545.8059,-262.5202 552.7638,-254.5303 542.342,-256.4373 545.8059,-262.5202"/>
</g>
<!-- Node24 -->
<g id="node20" class="node">
<title>Node24</title>
<g id="a_node20"><a xlink:href="solver_8hpp.html" target="_top" xlink:title="PDE Solver and Integration tool. ">
<polygon fill="#ffffff" stroke="#000000" points="2378.5,-179.5 2378.5,-198.5 2440.5,-198.5 2440.5,-179.5 2378.5,-179.5"/>
<text text-anchor="middle" x="2409.5" y="-186.5" font-family="Helvetica,sans-Serif" font-size="10.00" fill="#000000">solver.hpp</text>
</a>
</g>
</g>
<!-- Node0&#45;&gt;Node24 -->
<g id="edge37" class="edge">
<title>Node0&#45;&gt;Node24</title>
<path fill="none" stroke="#191970" d="M525.2059,-302.6574C828.3806,-284.3704 2120.6172,-206.4249 2368.3456,-191.4824"/>
<polygon fill="#191970" stroke="#191970" points="2368.5968,-194.9737 2378.3679,-190.8778 2368.1752,-187.9864 2368.5968,-194.9737"/>
</g>
<!-- Node54 -->
<g id="node50" class="node">
<title>Node54</title>
<g id="a_node50"><a xlink:href="io_8hpp.html" target="_top" xlink:title="Contains functionality to read and write state of program(simulation data). ">
<polygon fill="#ffffff" stroke="#000000" points="364,-235.5 364,-254.5 407,-254.5 407,-235.5 364,-235.5"/>
<text text-anchor="middle" x="385.5" y="-242.5" font-family="Helvetica,sans-Serif" font-size="10.00" fill="#000000">io.hpp</text>
</a>
</g>
</g>
<!-- Node0&#45;&gt;Node54 -->
<g id="edge75" class="edge">
<title>Node0&#45;&gt;Node54</title>
<path fill="none" stroke="#191970" d="M442.7135,-291.2977C431.3947,-282.1384 416.9895,-270.4816 405.4654,-261.1562"/>
<polygon fill="#191970" stroke="#191970" points="407.6439,-258.4167 397.6686,-254.8469 403.2405,-263.8583 407.6439,-258.4167"/>
</g>
<!-- Node2 -->
<g id="node3" class="node">
<title>Node2</title>
<polygon fill="#ffffff" stroke="#bfbfbf" points="59.5,-118 59.5,-137 129.5,-137 129.5,-118 59.5,-118"/>
<text text-anchor="middle" x="94.5" y="-125" font-family="Helvetica,sans-Serif" font-size="10.00" fill="#000000">cxxopts.hpp</text>
</g>
<!-- Node1&#45;&gt;Node2 -->
<g id="edge2" class="edge">
<title>Node1&#45;&gt;Node2</title>
<path fill="none" stroke="#191970" d="M151.875,-179.3906C141.4569,-169.9683 125.3636,-155.4134 112.8696,-144.1137"/>
<polygon fill="#191970" stroke="#191970" points="115.0392,-141.3568 105.2748,-137.2449 110.3438,-146.5484 115.0392,-141.3568"/>
</g>
<!-- Node3 -->
<g id="node4" class="node">
<title>Node3</title>
<polygon fill="#ffffff" stroke="#bfbfbf" points="147.5,-118 147.5,-137 193.5,-137 193.5,-118 147.5,-118"/>
<text text-anchor="middle" x="170.5" y="-125" font-family="Helvetica,sans-Serif" font-size="10.00" fill="#000000">chrono</text>
</g>
<!-- Node1&#45;&gt;Node3 -->
<g id="edge3" class="edge">
<title>Node1&#45;&gt;Node3</title>
<path fill="none" stroke="#191970" d="M163.75,-179.3906C164.8589,-170.8657 166.5144,-158.1392 167.9083,-147.4235"/>
<polygon fill="#191970" stroke="#191970" points="171.4131,-147.6128 169.2324,-137.2449 164.4716,-146.7098 171.4131,-147.6128"/>
</g>
<!-- Node4 -->
<g id="node5" class="node">
<title>Node4</title>
<polygon fill="#ffffff" stroke="#bfbfbf" points="0,-118 0,-137 41,-137 41,-118 0,-118"/>
<text text-anchor="middle" x="20.5" y="-125" font-family="Helvetica,sans-Serif" font-size="10.00" fill="#000000">ctime</text>
</g>
<!-- Node1&#45;&gt;Node4 -->
<g id="edge4" class="edge">
<title>Node1&#45;&gt;Node4</title>
<path fill="none" stroke="#191970" d="M137.3203,-179.3846C114.4425,-170.4774 79.8801,-156.5918 50.5,-143 49.5157,-142.5446 48.517,-142.0741 47.511,-141.5931"/>
<polygon fill="#191970" stroke="#191970" points="48.9726,-138.4111 38.459,-137.1015 45.8611,-144.6816 48.9726,-138.4111"/>
</g>
<!-- Node6 -->
<g id="node7" class="node">
<title>Node6</title>
<polygon fill="#ffffff" stroke="#bfbfbf" points="773.5,-.5 773.5,-19.5 827.5,-19.5 827.5,-.5 773.5,-.5"/>
<text text-anchor="middle" x="800.5" y="-7.5" font-family="Helvetica,sans-Serif" font-size="10.00" fill="#000000">iostream</text>
</g>
<!-- Node5&#45;&gt;Node6 -->
<g id="edge6" class="edge">
<title>Node5&#45;&gt;Node6</title>
<path fill="none" stroke="#191970" d="M541.5514,-185.0452C604.4816,-175.3874 760.227,-150.8202 768.5,-143 799.7346,-113.475 802.7997,-59.2262 801.9136,-29.9656"/>
<polygon fill="#191970" stroke="#191970" points="805.3982,-29.5653 801.4086,-19.7504 798.4067,-29.9111 805.3982,-29.5653"/>
</g>
<!-- Node7 -->
<g id="node8" class="node">
<title>Node7</title>
<polygon fill="#ffffff" stroke="#bfbfbf" points="453.5,-.5 453.5,-19.5 497.5,-19.5 497.5,-.5 453.5,-.5"/>
<text text-anchor="middle" x="475.5" y="-7.5" font-family="Helvetica,sans-Serif" font-size="10.00" fill="#000000">vector</text>
</g>
<!-- Node5&#45;&gt;Node7 -->
<g id="edge7" class="edge">
<title>Node5&#45;&gt;Node7</title>
<path fill="none" stroke="#191970" d="M489.3294,-184.5702C466.2448,-179.128 433.9429,-167.4148 418.5,-143 393.9166,-104.1342 433.6387,-52.8437 458.269,-26.772"/>
<polygon fill="#191970" stroke="#191970" points="460.8569,-29.1316 465.3404,-19.5321 455.8492,-24.2404 460.8569,-29.1316"/>
</g>
<!-- Node8 -->
<g id="node9" class="node">
<title>Node8</title>
<polygon fill="#ffffff" stroke="#bfbfbf" points="600,-56.5 600,-75.5 635,-75.5 635,-56.5 600,-56.5"/>
<text text-anchor="middle" x="617.5" y="-63.5" font-family="Helvetica,sans-Serif" font-size="10.00" fill="#000000">map</text>
</g>
<!-- Node5&#45;&gt;Node8 -->
<g id="edge8" class="edge">
<title>Node5&#45;&gt;Node8</title>
<path fill="none" stroke="#191970" d="M523.5038,-179.3484C540.6346,-158.6906 581.0651,-109.9362 602.9014,-83.6042"/>
<polygon fill="#191970" stroke="#191970" points="605.8442,-85.5386 609.5334,-75.6068 600.4559,-81.0702 605.8442,-85.5386"/>
</g>
<!-- Node9 -->
<g id="node10" class="node">
<title>Node9</title>
<polygon fill="#ffffff" stroke="#bfbfbf" points="289.5,-56.5 289.5,-75.5 345.5,-75.5 345.5,-56.5 289.5,-56.5"/>
<text text-anchor="middle" x="317.5" y="-63.5" font-family="Helvetica,sans-Serif" font-size="10.00" fill="#000000">algorithm</text>
</g>
<!-- Node5&#45;&gt;Node9 -->
<g id="edge9" class="edge">
<title>Node5&#45;&gt;Node9</title>
<path fill="none" stroke="#191970" d="M489.3016,-183.8423C461.7038,-177.5114 417.8446,-164.8323 385.5,-143 362.1763,-127.2567 341.772,-101.6699 329.5484,-84.3537"/>
<polygon fill="#191970" stroke="#191970" points="332.1653,-81.9799 323.6325,-75.6996 326.3864,-85.9302 332.1653,-81.9799"/>
</g>
<!-- Node10 -->
<g id="node11" class="node">
<title>Node10</title>
<polygon fill="#ffffff" stroke="#bfbfbf" points="656,-56.5 656,-75.5 697,-75.5 697,-56.5 656,-56.5"/>
<text text-anchor="middle" x="676.5" y="-63.5" font-family="Helvetica,sans-Serif" font-size="10.00" fill="#000000">string</text>
</g>
<!-- Node5&#45;&gt;Node10 -->
<g id="edge10" class="edge">
<title>Node5&#45;&gt;Node10</title>
<path fill="none" stroke="#191970" d="M529.3713,-179.3173C542.429,-170.1352 562.4691,-155.8686 579.5,-143 606.6968,-122.4499 637.4099,-97.8215 656.8534,-82.0476"/>
<polygon fill="#191970" stroke="#191970" points="659.1472,-84.6935 664.6969,-75.6685 654.7304,-79.2628 659.1472,-84.6935"/>
</g>
<!-- Node11 -->
<g id="node12" class="node">
<title>Node11</title>
<g id="a_node12"><a xlink:href="common_8hpp.html" target="_top" xlink:title="Common geometric entities to whole program. ">
<polygon fill="#ffffff" stroke="#000000" points="504,-56.5 504,-75.5 577,-75.5 577,-56.5 504,-56.5"/>
<text text-anchor="middle" x="540.5" y="-63.5" font-family="Helvetica,sans-Serif" font-size="10.00" fill="#000000">common.hpp</text>
</a>
</g>
</g>
<!-- Node5&#45;&gt;Node11 -->
<g id="edge11" class="edge">
<title>Node5&#45;&gt;Node11</title>
<path fill="none" stroke="#191970" d="M517.4617,-179.3484C521.5509,-159.2295 531.0567,-112.4608 536.4939,-85.7098"/>
<polygon fill="#191970" stroke="#191970" points="539.9854,-86.1036 538.5474,-75.6068 533.1257,-84.7092 539.9854,-86.1036"/>
</g>
<!-- Node12 -->
<g id="node13" class="node">
<title>Node12</title>
<g id="a_node13"><a xlink:href="tethex_8hpp.html" target="_top" xlink:title="tethex &#45; tetrahedra to hexahedra conversion Copyright (c) 2013 Mikhail Artemyev Report issues: github...">
<polygon fill="#ffffff" stroke="#ff0000" points="697.5,-118 697.5,-137 759.5,-137 759.5,-118 697.5,-118"/>
<text text-anchor="middle" x="728.5" y="-125" font-family="Helvetica,sans-Serif" font-size="10.00" fill="#000000">tethex.hpp</text>
</a>
</g>
</g>
<!-- Node5&#45;&gt;Node12 -->
<g id="edge14" class="edge">
<title>Node5&#45;&gt;Node12</title>
<path fill="none" stroke="#191970" d="M541.618,-181.4589C578.0245,-170.9471 644.3927,-151.7845 687.4498,-139.3525"/>
<polygon fill="#191970" stroke="#191970" points="688.6918,-142.637 697.3284,-136.5002 686.7499,-135.9117 688.6918,-142.637"/>
</g>
<!-- Node5&#45;&gt;Node15 -->
<g id="edge19" class="edge">
<title>Node5&#45;&gt;Node15</title>
<path fill="none" stroke="#191970" d="M489.3041,-181.8514C456.2473,-172.825 397.6476,-156.8055 347.5,-143 343.6704,-141.9457 339.6941,-140.8491 335.7067,-139.748"/>
<polygon fill="#191970" stroke="#191970" points="336.4209,-136.3143 325.8499,-137.0237 334.5561,-143.0613 336.4209,-136.3143"/>
</g>
<!-- Node5&#45;&gt;Node19 -->
<g id="edge23" class="edge">
<title>Node5&#45;&gt;Node19</title>
<path fill="none" stroke="#191970" d="M506.5938,-179.3906C498.0272,-170.1478 484.8831,-155.966 474.4997,-144.7628"/>
<polygon fill="#191970" stroke="#191970" points="476.8965,-142.2 467.5318,-137.2449 471.7625,-146.9584 476.8965,-142.2"/>
</g>
<!-- Node11&#45;&gt;Node6 -->
<g id="edge13" class="edge">
<title>Node11&#45;&gt;Node6</title>
<path fill="none" stroke="#191970" d="M577.2002,-58.0953C626.5985,-47.4557 713.9843,-28.6342 763.5237,-17.9641"/>
<polygon fill="#191970" stroke="#191970" points="764.4543,-21.344 773.4931,-15.8169 762.9803,-14.501 764.4543,-21.344"/>
</g>
<!-- Node11&#45;&gt;Node7 -->
<g id="edge12" class="edge">
<title>Node11&#45;&gt;Node7</title>
<path fill="none" stroke="#191970" d="M529.1779,-56.2455C519.5777,-47.9746 505.6108,-35.9416 494.3305,-26.2232"/>
<polygon fill="#191970" stroke="#191970" points="496.553,-23.5182 486.6924,-19.6427 491.984,-28.8214 496.553,-23.5182"/>
</g>
<!-- Node12&#45;&gt;Node6 -->
<g id="edge15" class="edge">
<title>Node12&#45;&gt;Node6</title>
<path fill="none" stroke="#191970" d="M734.3921,-117.8845C746.3639,-98.3471 773.7092,-53.7211 789.2186,-28.4106"/>
<polygon fill="#191970" stroke="#191970" points="792.286,-30.1036 794.5265,-19.7484 786.3174,-26.4462 792.286,-30.1036"/>
</g>
<!-- Node12&#45;&gt;Node7 -->
<g id="edge18" class="edge">
<title>Node12&#45;&gt;Node7</title>
<path fill="none" stroke="#191970" d="M728.4672,-117.5145C727.8421,-101.9454 724.2367,-72.0149 706.5,-56 677.6309,-29.9333 564.1031,-17.2055 507.6825,-12.3865"/>
<polygon fill="#191970" stroke="#191970" points="507.7763,-8.8825 497.5233,-11.5519 507.2031,-15.859 507.7763,-8.8825"/>
</g>
<!-- Node12&#45;&gt;Node8 -->
<g id="edge16" class="edge">
<title>Node12&#45;&gt;Node8</title>
<path fill="none" stroke="#191970" d="M711.1563,-117.8906C693.0727,-107.8713 664.5141,-92.0483 643.6835,-80.5071"/>
<polygon fill="#191970" stroke="#191970" points="645.1654,-77.3268 634.722,-75.5419 641.7729,-83.4498 645.1654,-77.3268"/>
</g>
<!-- Node12&#45;&gt;Node10 -->
<g id="edge17" class="edge">
<title>Node12&#45;&gt;Node10</title>
<path fill="none" stroke="#191970" d="M720.375,-117.8906C712.6358,-108.7376 700.8013,-94.7409 691.3728,-83.59"/>
<polygon fill="#191970" stroke="#191970" points="693.8689,-81.1213 684.7396,-75.7449 688.5235,-85.6409 693.8689,-81.1213"/>
</g>
<!-- Node15&#45;&gt;Node6 -->
<g id="edge20" class="edge">
<title>Node15&#45;&gt;Node6</title>
<path fill="none" stroke="#191970" d="M314.2036,-117.9039C351.2788,-102.6001 427.4207,-72.695 494.5,-56 589.7093,-32.3038 704.8118,-19.006 762.9664,-13.3301"/>
<polygon fill="#191970" stroke="#191970" points="763.5228,-16.793 773.1448,-12.3583 762.8574,-9.8247 763.5228,-16.793"/>
</g>
<!-- Node15&#45;&gt;Node9 -->
<g id="edge21" class="edge">
<title>Node15&#45;&gt;Node9</title>
<path fill="none" stroke="#191970" d="M295.5625,-117.8906C299.2424,-109.1862 304.7742,-96.1015 309.362,-85.2494"/>
<polygon fill="#191970" stroke="#191970" points="312.71,-86.3185 313.3802,-75.7449 306.2625,-83.5927 312.71,-86.3185"/>
</g>
<!-- Node15&#45;&gt;Node11 -->
<g id="edge22" class="edge">
<title>Node15&#45;&gt;Node11</title>
<path fill="none" stroke="#191970" d="M330.133,-117.9581C374.2932,-107.0511 446.5549,-89.2033 493.8258,-77.528"/>
<polygon fill="#191970" stroke="#191970" points="494.9378,-80.8586 503.8068,-75.0628 493.2592,-74.0628 494.9378,-80.8586"/>
</g>
<!-- Node19&#45;&gt;Node7 -->
<g id="edge24" class="edge">
<title>Node19&#45;&gt;Node7</title>
<path fill="none" stroke="#191970" d="M459.8912,-117.8845C462.6681,-98.6913 468.948,-55.286 472.6402,-29.7663"/>
<polygon fill="#191970" stroke="#191970" points="476.1215,-30.1465 474.0896,-19.7484 469.1937,-29.1441 476.1215,-30.1465"/>
</g>
<!-- Node19&#45;&gt;Node8 -->
<g id="edge26" class="edge">
<title>Node19&#45;&gt;Node8</title>
<path fill="none" stroke="#191970" d="M483.3438,-117.8906C512.3779,-106.6604 560.2628,-88.1389 590.2813,-76.528"/>
<polygon fill="#191970" stroke="#191970" points="591.6595,-79.7477 599.7235,-72.8758 589.1342,-73.219 591.6595,-79.7477"/>
</g>
<!-- Node19&#45;&gt;Node10 -->
<g id="edge25" class="edge">
<title>Node19&#45;&gt;Node10</title>
<path fill="none" stroke="#191970" d="M489.5244,-119.2435C526.5208,-109.3206 590.182,-92.0024 644.5,-76 645.0758,-75.8304 645.6571,-75.6582 646.2426,-75.4839"/>
<polygon fill="#191970" stroke="#191970" points="647.3248,-78.8131 655.8736,-72.5547 645.2879,-72.116 647.3248,-78.8131"/>
</g>
<!-- Node19&#45;&gt;Node11 -->
<g id="edge27" class="edge">
<title>Node19&#45;&gt;Node11</title>
<path fill="none" stroke="#191970" d="M471.3125,-117.8906C484.1901,-108.2324 504.2584,-93.1812 519.472,-81.771"/>
<polygon fill="#191970" stroke="#191970" points="521.8775,-84.3419 527.7775,-75.5419 517.6774,-78.7419 521.8775,-84.3419"/>
</g>
<!-- Node20&#45;&gt;Node6 -->
<g id="edge29" class="edge">
<title>Node20&#45;&gt;Node6</title>
<path fill="none" stroke="#191970" d="M599.2575,-244.8164C959.9323,-242.523 4479.248,-218.2286 4552.5,-143 4562.1118,-133.1288 4562.0779,-121.9041 4552.5,-112 4423.2802,21.6202 3066.3101,-61.1661 2880.5,-56 2054.4618,-33.0335 1043.635,-14.3779 838.026,-10.6706"/>
<polygon fill="#191970" stroke="#191970" points="837.8298,-7.1666 827.7684,-10.486 837.7038,-14.1654 837.8298,-7.1666"/>
</g>
<!-- Node20&#45;&gt;Node12 -->
<g id="edge35" class="edge">
<title>Node20&#45;&gt;Node12</title>
<path fill="none" stroke="#191970" d="M569.6641,-235.158C570.4268,-220.9597 573.8812,-194.7142 588.5,-179 614.1741,-151.4021 655.9083,-138.5384 687.1419,-132.5757"/>
<polygon fill="#191970" stroke="#191970" points="688.0426,-135.9716 697.2933,-130.8068 686.8408,-129.0755 688.0426,-135.9716"/>
</g>
<!-- Node20&#45;&gt;Node15 -->
<g id="edge36" class="edge">
<title>Node20&#45;&gt;Node15</title>
<path fill="none" stroke="#191970" d="M546.7501,-235.3845C497.3483,-214.5042 380.1482,-164.9682 323.3928,-140.9799"/>
<polygon fill="#191970" stroke="#191970" points="324.748,-137.7529 314.1744,-137.0836 322.0228,-144.2007 324.748,-137.7529"/>
</g>
<!-- Node21 -->
<g id="node17" class="node">
<title>Node21</title>
<polygon fill="#ffffff" stroke="#bfbfbf" points="598,-179.5 598,-198.5 649,-198.5 649,-179.5 598,-179.5"/>
<text text-anchor="middle" x="623.5" y="-186.5" font-family="Helvetica,sans-Serif" font-size="10.00" fill="#000000">numeric</text>
</g>
<!-- Node20&#45;&gt;Node21 -->
<g id="edge30" class="edge">
<title>Node20&#45;&gt;Node21</title>
<path fill="none" stroke="#191970" d="M578.9061,-235.2455C586.6493,-227.2155 597.812,-215.6394 607.0318,-206.0781"/>
<polygon fill="#191970" stroke="#191970" points="609.7798,-208.2706 614.2017,-198.6427 604.7409,-203.4117 609.7798,-208.2706"/>
</g>
<!-- Node22 -->
<g id="node18" class="node">
<title>Node22</title>
<polygon fill="#ffffff" stroke="#bfbfbf" points="667,-179.5 667,-198.5 714,-198.5 714,-179.5 667,-179.5"/>
<text text-anchor="middle" x="690.5" y="-186.5" font-family="Helvetica,sans-Serif" font-size="10.00" fill="#000000">iterator</text>
</g>
<!-- Node20&#45;&gt;Node22 -->
<g id="edge31" class="edge">
<title>Node20&#45;&gt;Node22</title>
<path fill="none" stroke="#191970" d="M590.3006,-235.3733C609.7243,-226.3838 638.9224,-212.8706 660.7964,-202.7471"/>
<polygon fill="#191970" stroke="#191970" points="662.3656,-205.8776 669.9708,-198.5011 659.4255,-199.5249 662.3656,-205.8776"/>
</g>
<!-- Node23 -->
<g id="node19" class="node">
<title>Node23</title>
<g id="a_node19"><a xlink:href="triangle_8hpp.html" target="_top" xlink:title="Piece of Art Mesh Generation Tool, Winner of the 2003 James Hardy Wilkinson Prize in Numerical Softwa...">
<polygon fill="#ffffff" stroke="#000000" points="214,-179.5 214,-198.5 281,-198.5 281,-179.5 214,-179.5"/>
<text text-anchor="middle" x="247.5" y="-186.5" font-family="Helvetica,sans-Serif" font-size="10.00" fill="#000000">triangle.hpp</text>
</a>
</g>
</g>
<!-- Node20&#45;&gt;Node23 -->
<g id="edge32" class="edge">
<title>Node20&#45;&gt;Node23</title>
<path fill="none" stroke="#191970" d="M539.7842,-239.832C482.887,-229.9369 358.3041,-208.2703 291.6464,-196.6776"/>
<polygon fill="#191970" stroke="#191970" points="291.9167,-193.1722 281.4648,-194.9069 290.7172,-200.0687 291.9167,-193.1722"/>
</g>
<!-- Node23&#45;&gt;Node7 -->
<g id="edge33" class="edge">
<title>Node23&#45;&gt;Node7</title>
<path fill="none" stroke="#191970" d="M244.2146,-179.2497C239.7278,-164.3682 233.0445,-135.2648 240.5,-112 249.8342,-82.873 255.1036,-73.0449 280.5,-56 306.9363,-38.2571 395.2818,-22.3669 443.4741,-14.7531"/>
<polygon fill="#191970" stroke="#191970" points="444.0488,-18.2058 453.3936,-13.2133 442.975,-11.2887 444.0488,-18.2058"/>
</g>
<!-- Node23&#45;&gt;Node15 -->
<g id="edge34" class="edge">
<title>Node23&#45;&gt;Node15</title>
<path fill="none" stroke="#191970" d="M254.375,-179.3906C260.8593,-170.3273 270.7414,-156.5149 278.6801,-145.4188"/>
<polygon fill="#191970" stroke="#191970" points="281.5559,-147.4143 284.5281,-137.2449 275.8629,-143.3412 281.5559,-147.4143"/>
</g>
<!-- Node24&#45;&gt;Node6 -->
<g id="edge65" class="edge">
<title>Node24&#45;&gt;Node6</title>
<path fill="none" stroke="#191970" d="M2440.7668,-188.2494C2578.8994,-184.7846 3128.7083,-169.3718 3153.5,-143 3162.937,-132.9615 3163.0291,-121.9511 3153.5,-112 3069.8705,-24.6667 1131.3239,-11.6384 837.6372,-10.1642"/>
<polygon fill="#191970" stroke="#191970" points="837.5264,-6.6637 827.5094,-10.1147 837.4921,-13.6636 837.5264,-6.6637"/>
</g>
<!-- Node24&#45;&gt;Node8 -->
<g id="edge68" class="edge">
<title>Node24&#45;&gt;Node8</title>
<path fill="none" stroke="#191970" d="M2378.2713,-188.8551C2151.8445,-187.7193 768.4408,-179.307 688.5,-143 661.4482,-130.7138 640.0049,-102.7433 628.031,-84.1148"/>
<polygon fill="#191970" stroke="#191970" points="631.0109,-82.2789 622.7915,-75.5937 625.0479,-85.9455 631.0109,-82.2789"/>
</g>
<!-- Node24&#45;&gt;Node10 -->
<g id="edge66" class="edge">
<title>Node24&#45;&gt;Node10</title>
<path fill="none" stroke="#191970" d="M2378.2962,-188.8247C2171.2971,-187.5637 999.7872,-178.8749 845.5,-143 817.0079,-136.375 744.0008,-100.4569 703.8977,-80.1"/>
<polygon fill="#191970" stroke="#191970" points="705.4258,-76.9505 694.9269,-75.5272 702.2467,-83.187 705.4258,-76.9505"/>
</g>
<!-- Node24&#45;&gt;Node11 -->
<g id="edge70" class="edge">
<title>Node24&#45;&gt;Node11</title>
<path fill="none" stroke="#191970" d="M2378.3101,-188.7126C2149.1054,-186.5356 731.7606,-171.9336 646.5,-143 610.3418,-130.7295 576.0245,-101.4414 556.6819,-82.7305"/>
<polygon fill="#191970" stroke="#191970" points="559.1357,-80.2347 549.5741,-75.6712 554.2029,-85.2014 559.1357,-80.2347"/>
</g>
<!-- Node24&#45;&gt;Node12 -->
<g id="edge71" class="edge">
<title>Node24&#45;&gt;Node12</title>
<path fill="none" stroke="#191970" d="M2378.2751,-188.6913C2165.8729,-186.5163 936.8642,-172.7127 773.5,-143 769.5876,-142.2884 765.5559,-141.2966 761.5881,-140.1551"/>
<polygon fill="#191970" stroke="#191970" points="762.5513,-136.7887 751.9606,-137.0834 760.4236,-143.4575 762.5513,-136.7887"/>
</g>
<!-- Node24&#45;&gt;Node15 -->
<g id="edge72" class="edge">
<title>Node24&#45;&gt;Node15</title>
<path fill="none" stroke="#191970" d="M2378.2848,-188.7006C2157.0333,-186.515 822.8359,-172.2736 418.5,-143 393.7167,-141.2057 366.3421,-138.0198 343.3733,-135.0011"/>
<polygon fill="#191970" stroke="#191970" points="343.5316,-131.4911 333.1553,-133.6315 342.6016,-138.4291 343.5316,-131.4911"/>
</g>
<!-- Node25 -->
<g id="node21" class="node">
<title>Node25</title>
<polygon fill="#ffffff" stroke="#bfbfbf" points="3200.5,-112.5 3200.5,-142.5 3316.5,-142.5 3316.5,-112.5 3200.5,-112.5"/>
<text text-anchor="start" x="3208.5" y="-130.5" font-family="Helvetica,sans-Serif" font-size="10.00" fill="#000000">deal.II/base/quadrature</text>
<text text-anchor="middle" x="3258.5" y="-119.5" font-family="Helvetica,sans-Serif" font-size="10.00" fill="#000000">_lib.h</text>
</g>
<!-- Node24&#45;&gt;Node25 -->
<g id="edge38" class="edge">
<title>Node24&#45;&gt;Node25</title>
<path fill="none" stroke="#191970" d="M2440.8033,-187.7875C2566.982,-182.8008 3038.5496,-163.184 3186.5,-143 3187.7827,-142.825 3189.0766,-142.6396 3190.3788,-142.4449"/>
<polygon fill="#191970" stroke="#191970" points="3191.1747,-145.8612 3200.4759,-140.7881 3190.0411,-138.9536 3191.1747,-145.8612"/>
</g>
<!-- Node26 -->
<g id="node22" class="node">
<title>Node26</title>
<polygon fill="#ffffff" stroke="#bfbfbf" points="3335,-118 3335,-137 3448,-137 3448,-118 3335,-118"/>
<text text-anchor="middle" x="3391.5" y="-125" font-family="Helvetica,sans-Serif" font-size="10.00" fill="#000000">deal.II/base/function.h</text>
</g>
<!-- Node24&#45;&gt;Node26 -->
<g id="edge39" class="edge">
<title>Node24&#45;&gt;Node26</title>
<path fill="none" stroke="#191970" d="M2440.5822,-188.1934C2580.0425,-184.4588 3148.9198,-167.9601 3325.5,-143 3332.234,-142.0481 3339.2904,-140.7363 3346.1807,-139.2755"/>
<polygon fill="#191970" stroke="#191970" points="3347.1071,-142.6549 3356.1,-137.0533 3345.5767,-135.8242 3347.1071,-142.6549"/>
</g>
<!-- Node27 -->
<g id="node23" class="node">
<title>Node27</title>
<polygon fill="#ffffff" stroke="#bfbfbf" points="3466.5,-112.5 3466.5,-142.5 3592.5,-142.5 3592.5,-112.5 3466.5,-112.5"/>
<text text-anchor="start" x="3474.5" y="-130.5" font-family="Helvetica,sans-Serif" font-size="10.00" fill="#000000">deal.II/base/convergence</text>
<text text-anchor="middle" x="3529.5" y="-119.5" font-family="Helvetica,sans-Serif" font-size="10.00" fill="#000000">_table.h</text>
</g>
<!-- Node24&#45;&gt;Node27 -->
<g id="edge40" class="edge">
<title>Node24&#45;&gt;Node27</title>
<path fill="none" stroke="#191970" d="M2440.8939,-188.3348C2590.5932,-185.0556 3233.5083,-169.7342 3456.4112,-142.9573"/>
<polygon fill="#191970" stroke="#191970" points="3456.8972,-146.4239 3466.3879,-141.7145 3456.0319,-139.4776 3456.8972,-146.4239"/>
</g>
<!-- Node28 -->
<g id="node24" class="node">
<title>Node28</title>
<polygon fill="#ffffff" stroke="#bfbfbf" points="3611,-118 3611,-137 3714,-137 3714,-118 3611,-118"/>
<text text-anchor="middle" x="3662.5" y="-125" font-family="Helvetica,sans-Serif" font-size="10.00" fill="#000000">deal.II/base/types.h</text>
</g>
<!-- Node24&#45;&gt;Node28 -->
<g id="edge41" class="edge">
<title>Node24&#45;&gt;Node28</title>
<path fill="none" stroke="#191970" d="M2440.5049,-188.6859C2604.0406,-186.8948 3367.7131,-176.8288 3601.5,-143 3607.5272,-142.1279 3613.8214,-140.9008 3619.9805,-139.5147"/>
<polygon fill="#191970" stroke="#191970" points="3621.2449,-142.8104 3630.1475,-137.0664 3619.606,-136.0049 3621.2449,-142.8104"/>
</g>
<!-- Node29 -->
<g id="node25" class="node">
<title>Node29</title>
<polygon fill="#ffffff" stroke="#bfbfbf" points="3732,-118 3732,-137 3859,-137 3859,-118 3732,-118"/>
<text text-anchor="middle" x="3795.5" y="-125" font-family="Helvetica,sans-Serif" font-size="10.00" fill="#000000">deal.II/dofs/dof_handler.h</text>
</g>
<!-- Node24&#45;&gt;Node29 -->
<g id="edge42" class="edge">
<title>Node24&#45;&gt;Node29</title>
<path fill="none" stroke="#191970" d="M2440.7529,-188.6574C2614.5692,-186.6382 3463.7034,-175.2536 3723.5,-143 3731.2621,-142.0363 3739.4257,-140.6482 3747.3558,-139.0935"/>
<polygon fill="#191970" stroke="#191970" points="3748.1425,-142.5049 3757.2278,-137.0544 3746.7265,-135.6496 3748.1425,-142.5049"/>
</g>
<!-- Node30 -->
<g id="node26" class="node">
<title>Node30</title>
<polygon fill="#ffffff" stroke="#bfbfbf" points="3877.5,-118 3877.5,-137 3993.5,-137 3993.5,-118 3877.5,-118"/>
<text text-anchor="middle" x="3935.5" y="-125" font-family="Helvetica,sans-Serif" font-size="10.00" fill="#000000">deal.II/dofs/dof_tools.h</text>
</g>
<!-- Node24&#45;&gt;Node30 -->
<g id="edge43" class="edge">
<title>Node24&#45;&gt;Node30</title>
<path fill="none" stroke="#191970" d="M2440.5192,-188.8488C2624.8887,-187.8255 3578.4001,-180.759 3868.5,-143 3875.6628,-142.0677 3883.182,-140.7104 3890.4892,-139.181"/>
<polygon fill="#191970" stroke="#191970" points="3891.2636,-142.5944 3900.2688,-137.0125 3889.7482,-135.7604 3891.2636,-142.5944"/>
</g>
<!-- Node31 -->
<g id="node27" class="node">
<title>Node31</title>
<polygon fill="#ffffff" stroke="#bfbfbf" points="4012,-118 4012,-137 4147,-137 4147,-118 4012,-118"/>
<text text-anchor="middle" x="4079.5" y="-125" font-family="Helvetica,sans-Serif" font-size="10.00" fill="#000000">deal.II/dofs/dof_accessor.h</text>
</g>
<!-- Node24&#45;&gt;Node31 -->
<g id="edge44" class="edge">
<title>Node24&#45;&gt;Node31</title>
<path fill="none" stroke="#191970" d="M2440.7842,-188.8215C2635.5285,-187.6013 3683.7999,-179.4113 4002.5,-143 4011.0692,-142.021 4020.1043,-140.5796 4028.8521,-138.964"/>
<polygon fill="#191970" stroke="#191970" points="4029.7945,-142.3465 4038.9441,-137.0047 4028.4603,-135.4748 4029.7945,-142.3465"/>
</g>
<!-- Node32 -->
<g id="node28" class="node">
<title>Node32</title>
<polygon fill="#ffffff" stroke="#bfbfbf" points="4165,-118 4165,-137 4314,-137 4314,-118 4165,-118"/>
<text text-anchor="middle" x="4239.5" y="-125" font-family="Helvetica,sans-Serif" font-size="10.00" fill="#000000">deal.II/dofs/dof_renumbering.h</text>
</g>
<!-- Node24&#45;&gt;Node32 -->
<g id="edge45" class="edge">
<title>Node24&#45;&gt;Node32</title>
<path fill="none" stroke="#191970" d="M2440.7591,-188.8539C2646.1521,-187.7922 3804.9989,-180.2118 4156.5,-143 4166.0208,-141.9921 4176.0861,-140.4896 4185.7983,-138.8104"/>
<polygon fill="#191970" stroke="#191970" points="4186.5364,-142.2338 4195.7539,-137.01 4185.2906,-135.3455 4186.5364,-142.2338"/>
</g>
<!-- Node33 -->
<g id="node29" class="node">
<title>Node33</title>
<polygon fill="#ffffff" stroke="#bfbfbf" points="4332,-118 4332,-137 4417,-137 4417,-118 4332,-118"/>
<text text-anchor="middle" x="4374.5" y="-125" font-family="Helvetica,sans-Serif" font-size="10.00" fill="#000000">deal.II/fe/fe_q.h</text>
</g>
<!-- Node24&#45;&gt;Node33 -->
<g id="edge46" class="edge">
<title>Node24&#45;&gt;Node33</title>
<path fill="none" stroke="#191970" d="M2440.6381,-188.7604C2672.8221,-186.9068 4130.292,-174.0886 4323.5,-143 4328.3281,-142.2231 4333.336,-141.1065 4338.2438,-139.8236"/>
<polygon fill="#191970" stroke="#191970" points="4339.4333,-143.1239 4348.0875,-137.012 4337.5108,-136.393 4339.4333,-143.1239"/>
</g>
<!-- Node34 -->
<g id="node30" class="node">
<title>Node34</title>
<polygon fill="#ffffff" stroke="#bfbfbf" points="4435.5,-118 4435.5,-137 4543.5,-137 4543.5,-118 4435.5,-118"/>
<text text-anchor="middle" x="4489.5" y="-125" font-family="Helvetica,sans-Serif" font-size="10.00" fill="#000000">deal.II/fe/fe_values.h</text>
</g>
<!-- Node24&#45;&gt;Node34 -->
<g id="edge47" class="edge">
<title>Node24&#45;&gt;Node34</title>
<path fill="none" stroke="#191970" d="M2440.7578,-188.6997C2680.3364,-186.3439 4221.6422,-170.2038 4426.5,-143 4432.9482,-142.1437 4439.6931,-140.885 4446.2728,-139.449"/>
<polygon fill="#191970" stroke="#191970" points="4447.4694,-142.7637 4456.4098,-137.0788 4445.8756,-135.9475 4447.4694,-142.7637"/>
</g>
<!-- Node35 -->
<g id="node31" class="node">
<title>Node35</title>
<polygon fill="#ffffff" stroke="#bfbfbf" points="854,-118 854,-137 941,-137 941,-118 854,-118"/>
<text text-anchor="middle" x="897.5" y="-125" font-family="Helvetica,sans-Serif" font-size="10.00" fill="#000000">deal.II/grid/tria.h</text>
</g>
<!-- Node24&#45;&gt;Node35 -->
<g id="edge48" class="edge">
<title>Node24&#45;&gt;Node35</title>
<path fill="none" stroke="#191970" d="M2378.2311,-188.4889C2179.4722,-185.1775 1095.8895,-166.1673 950.5,-143 945.4231,-142.191 940.1476,-141.0408 934.9794,-139.7279"/>
<polygon fill="#191970" stroke="#191970" points="935.824,-136.3302 925.2536,-137.0494 933.9653,-143.079 935.824,-136.3302"/>
</g>
<!-- Node36 -->
<g id="node32" class="node">
<title>Node36</title>
<polygon fill="#ffffff" stroke="#bfbfbf" points="959,-118 959,-137 1094,-137 1094,-118 959,-118"/>
<text text-anchor="middle" x="1026.5" y="-125" font-family="Helvetica,sans-Serif" font-size="10.00" fill="#000000">deal.II/grid/grid_generator.h</text>
</g>
<!-- Node24&#45;&gt;Node36 -->
<g id="edge49" class="edge">
<title>Node24&#45;&gt;Node36</title>
<path fill="none" stroke="#191970" d="M2378.4441,-188.5958C2205.7225,-186.2432 1361.9226,-173.3547 1103.5,-143 1095.0313,-142.0053 1086.1057,-140.5717 1077.4516,-138.973"/>
<polygon fill="#191970" stroke="#191970" points="1077.944,-135.5034 1067.4608,-137.0368 1076.6122,-142.3755 1077.944,-135.5034"/>
</g>
<!-- Node37 -->
<g id="node33" class="node">
<title>Node37</title>
<polygon fill="#ffffff" stroke="#bfbfbf" points="1112.5,-118 1112.5,-137 1214.5,-137 1214.5,-118 1112.5,-118"/>
<text text-anchor="middle" x="1163.5" y="-125" font-family="Helvetica,sans-Serif" font-size="10.00" fill="#000000">deal.II/grid/grid_in.h</text>
</g>
<!-- Node24&#45;&gt;Node37 -->
<g id="edge50" class="edge">
<title>Node24&#45;&gt;Node37</title>
<path fill="none" stroke="#191970" d="M2378.3807,-188.6942C2215.091,-186.9526 1455.9138,-177.1249 1223.5,-143 1217.5673,-142.1289 1211.374,-140.9025 1205.3147,-139.5166"/>
<polygon fill="#191970" stroke="#191970" points="1205.8589,-136.0466 1195.3135,-137.0685 1204.1945,-142.8458 1205.8589,-136.0466"/>
</g>
<!-- Node38 -->
<g id="node34" class="node">
<title>Node38</title>
<polygon fill="#ffffff" stroke="#bfbfbf" points="1232.5,-118 1232.5,-137 1340.5,-137 1340.5,-118 1232.5,-118"/>
<text text-anchor="middle" x="1286.5" y="-125" font-family="Helvetica,sans-Serif" font-size="10.00" fill="#000000">deal.II/grid/grid_out.h</text>
</g>
<!-- Node24&#45;&gt;Node38 -->
<g id="edge51" class="edge">
<title>Node24&#45;&gt;Node38</title>
<path fill="none" stroke="#191970" d="M2378.4913,-188.4825C2226.13,-185.8132 1555.885,-172.5694 1349.5,-143 1343.1342,-142.0879 1336.4742,-140.8118 1329.968,-139.3792"/>
<polygon fill="#191970" stroke="#191970" points="1330.4694,-135.902 1319.9348,-137.0292 1328.8731,-142.7176 1330.4694,-135.902"/>
</g>
<!-- Node39 -->
<g id="node35" class="node">
<title>Node39</title>
<polygon fill="#ffffff" stroke="#bfbfbf" points="1358.5,-118 1358.5,-137 1498.5,-137 1498.5,-118 1358.5,-118"/>
<text text-anchor="middle" x="1428.5" y="-125" font-family="Helvetica,sans-Serif" font-size="10.00" fill="#000000">deal.II/grid/grid_refinement.h</text>
</g>
<!-- Node24&#45;&gt;Node39 -->
<g id="edge52" class="edge">
<title>Node24&#45;&gt;Node39</title>
<path fill="none" stroke="#191970" d="M2378.4872,-188.0025C2240.6143,-183.4777 1682.4415,-164.1846 1508.5,-143 1499.8271,-141.9437 1490.6829,-140.495 1481.7996,-138.9047"/>
<polygon fill="#191970" stroke="#191970" points="1482.3921,-135.4549 1471.9199,-137.0624 1481.1088,-142.3363 1482.3921,-135.4549"/>
</g>
<!-- Node40 -->
<g id="node36" class="node">
<title>Node40</title>
<polygon fill="#ffffff" stroke="#bfbfbf" points="1517,-118 1517,-137 1654,-137 1654,-118 1517,-118"/>
<text text-anchor="middle" x="1585.5" y="-125" font-family="Helvetica,sans-Serif" font-size="10.00" fill="#000000">deal.II/grid/grid_reordering.h</text>
</g>
<!-- Node24&#45;&gt;Node40 -->
<g id="edge53" class="edge">
<title>Node24&#45;&gt;Node40</title>
<path fill="none" stroke="#191970" d="M2378.4464,-188.5795C2275.9444,-186.8734 1939.2051,-178.7291 1663.5,-143 1655.3233,-141.9404 1646.7169,-140.5316 1638.3262,-138.9943"/>
<polygon fill="#191970" stroke="#191970" points="1638.7206,-135.5065 1628.2418,-137.0702 1637.4086,-142.3825 1638.7206,-135.5065"/>
</g>
<!-- Node41 -->
<g id="node37" class="node">
<title>Node41</title>
<polygon fill="#ffffff" stroke="#bfbfbf" points="1672.5,-118 1672.5,-137 1770.5,-137 1770.5,-118 1672.5,-118"/>
<text text-anchor="middle" x="1721.5" y="-125" font-family="Helvetica,sans-Serif" font-size="10.00" fill="#000000">deal.II/lac/vector.h</text>
</g>
<!-- Node24&#45;&gt;Node41 -->
<g id="edge54" class="edge">
<title>Node24&#45;&gt;Node41</title>
<path fill="none" stroke="#191970" d="M2378.26,-187.4997C2267.9179,-182.0788 1896.8322,-162.7802 1779.5,-143 1774.0399,-142.0795 1768.3483,-140.8736 1762.7563,-139.5403"/>
<polygon fill="#191970" stroke="#191970" points="1763.4231,-136.0987 1752.8699,-137.037 1761.7048,-142.8846 1763.4231,-136.0987"/>
</g>
<!-- Node42 -->
<g id="node38" class="node">
<title>Node42</title>
<polygon fill="#ffffff" stroke="#bfbfbf" points="1788.5,-118 1788.5,-137 1904.5,-137 1904.5,-118 1788.5,-118"/>
<text text-anchor="middle" x="1846.5" y="-125" font-family="Helvetica,sans-Serif" font-size="10.00" fill="#000000">deal.II/lac/full_matrix.h</text>
</g>
<!-- Node24&#45;&gt;Node42 -->
<g id="edge55" class="edge">
<title>Node24&#45;&gt;Node42</title>
<path fill="none" stroke="#191970" d="M2378.2669,-187.5687C2299.7398,-183.6533 2087.8831,-171.1259 1913.5,-143 1907.0799,-141.9645 1900.3586,-140.668 1893.755,-139.2683"/>
<polygon fill="#191970" stroke="#191970" points="1894.055,-135.7501 1883.535,-137.0068 1892.5426,-142.5848 1894.055,-135.7501"/>
</g>
<!-- Node43 -->
<g id="node39" class="node">
<title>Node43</title>
<polygon fill="#ffffff" stroke="#bfbfbf" points="1922.5,-112.5 1922.5,-142.5 2014.5,-142.5 2014.5,-112.5 1922.5,-112.5"/>
<text text-anchor="start" x="1930.5" y="-130.5" font-family="Helvetica,sans-Serif" font-size="10.00" fill="#000000">deal.II/lac/sparse</text>
<text text-anchor="middle" x="1968.5" y="-119.5" font-family="Helvetica,sans-Serif" font-size="10.00" fill="#000000">_matrix.h</text>
</g>
<!-- Node24&#45;&gt;Node43 -->
<g id="edge56" class="edge">
<title>Node24&#45;&gt;Node43</title>
<path fill="none" stroke="#191970" d="M2378.4705,-186.9536C2314.128,-182.3579 2161.4346,-169.6259 2024.423,-142.9933"/>
<polygon fill="#191970" stroke="#191970" points="2025.0752,-139.5546 2014.5867,-141.0517 2023.7196,-146.4221 2025.0752,-139.5546"/>
</g>
<!-- Node44 -->
<g id="node40" class="node">
<title>Node44</title>
<polygon fill="#ffffff" stroke="#bfbfbf" points="2032.5,-112.5 2032.5,-142.5 2132.5,-142.5 2132.5,-112.5 2032.5,-112.5"/>
<text text-anchor="start" x="2040.5" y="-130.5" font-family="Helvetica,sans-Serif" font-size="10.00" fill="#000000">deal.II/lac/dynamic</text>
<text text-anchor="middle" x="2082.5" y="-119.5" font-family="Helvetica,sans-Serif" font-size="10.00" fill="#000000">_sparsity_pattern.h</text>
</g>
<!-- Node24&#45;&gt;Node44 -->
<g id="edge57" class="edge">
<title>Node24&#45;&gt;Node44</title>
<path fill="none" stroke="#191970" d="M2378.0995,-184.4465C2328.0291,-176.9935 2227.1159,-161.1864 2142.5,-143 2142.3981,-142.9781 2142.2961,-142.9561 2142.194,-142.9341"/>
<polygon fill="#191970" stroke="#191970" points="2143.0425,-139.5377 2132.5171,-140.7491 2141.5006,-146.3658 2143.0425,-139.5377"/>
</g>
<!-- Node45 -->
<g id="node41" class="node">
<title>Node45</title>
<polygon fill="#ffffff" stroke="#bfbfbf" points="2151,-118 2151,-137 2264,-137 2264,-118 2151,-118"/>
<text text-anchor="middle" x="2207.5" y="-125" font-family="Helvetica,sans-Serif" font-size="10.00" fill="#000000">deal.II/lac/solver_cg.h</text>
</g>
<!-- Node24&#45;&gt;Node45 -->
<g id="edge58" class="edge">
<title>Node24&#45;&gt;Node45</title>
<path fill="none" stroke="#191970" d="M2378.3802,-179.5254C2343.6361,-168.9474 2287.2524,-151.781 2248.8299,-140.0831"/>
<polygon fill="#191970" stroke="#191970" points="2249.5739,-136.6511 2238.988,-137.0867 2247.535,-143.3476 2249.5739,-136.6511"/>
</g>
<!-- Node46 -->
<g id="node42" class="node">
<title>Node46</title>
<polygon fill="#ffffff" stroke="#bfbfbf" points="2282,-118 2282,-137 2405,-137 2405,-118 2282,-118"/>
<text text-anchor="middle" x="2343.5" y="-125" font-family="Helvetica,sans-Serif" font-size="10.00" fill="#000000">deal.II/lac/precondition.h</text>
</g>
<!-- Node24&#45;&gt;Node46 -->
<g id="edge59" class="edge">
<title>Node24&#45;&gt;Node46</title>
<path fill="none" stroke="#191970" d="M2399.1875,-179.3906C2389.0758,-169.9683 2373.4558,-155.4134 2361.3293,-144.1137"/>
<polygon fill="#191970" stroke="#191970" points="2363.6601,-141.5015 2353.9579,-137.2449 2358.888,-146.6228 2363.6601,-141.5015"/>
</g>
<!-- Node47 -->
<g id="node43" class="node">
<title>Node47</title>
<polygon fill="#ffffff" stroke="#bfbfbf" points="2423,-112.5 2423,-142.5 2528,-142.5 2528,-112.5 2423,-112.5"/>
<text text-anchor="start" x="2431" y="-130.5" font-family="Helvetica,sans-Serif" font-size="10.00" fill="#000000">deal.II/lac/constraint</text>
<text text-anchor="middle" x="2475.5" y="-119.5" font-family="Helvetica,sans-Serif" font-size="10.00" fill="#000000">_matrix.h</text>
</g>
<!-- Node24&#45;&gt;Node47 -->
<g id="edge60" class="edge">
<title>Node24&#45;&gt;Node47</title>
<path fill="none" stroke="#191970" d="M2419.8125,-179.3906C2428.414,-171.3756 2441.0012,-159.6466 2452.0334,-149.3666"/>
<polygon fill="#191970" stroke="#191970" points="2454.4245,-151.9225 2459.3546,-142.5446 2449.6524,-146.8012 2454.4245,-151.9225"/>
</g>
<!-- Node48 -->
<g id="node44" class="node">
<title>Node48</title>
<polygon fill="#ffffff" stroke="#bfbfbf" points="2546.5,-112.5 2546.5,-142.5 2662.5,-142.5 2662.5,-112.5 2546.5,-112.5"/>
<text text-anchor="start" x="2554.5" y="-130.5" font-family="Helvetica,sans-Serif" font-size="10.00" fill="#000000">deal.II/numerics/vector</text>
<text text-anchor="middle" x="2604.5" y="-119.5" font-family="Helvetica,sans-Serif" font-size="10.00" fill="#000000">_tools.h</text>
</g>
<!-- Node24&#45;&gt;Node48 -->
<g id="edge61" class="edge">
<title>Node24&#45;&gt;Node48</title>
<path fill="none" stroke="#191970" d="M2439.9688,-179.3906C2468.5589,-170.3737 2512.053,-156.6563 2547.1428,-145.5896"/>
<polygon fill="#191970" stroke="#191970" points="2548.3134,-148.8904 2556.7976,-142.5446 2546.2079,-142.2145 2548.3134,-148.8904"/>
</g>
<!-- Node49 -->
<g id="node45" class="node">
<title>Node49</title>
<polygon fill="#ffffff" stroke="#bfbfbf" points="2680.5,-112.5 2680.5,-142.5 2788.5,-142.5 2788.5,-112.5 2680.5,-112.5"/>
<text text-anchor="start" x="2688.5" y="-130.5" font-family="Helvetica,sans-Serif" font-size="10.00" fill="#000000">deal.II/numerics/data</text>
<text text-anchor="middle" x="2734.5" y="-119.5" font-family="Helvetica,sans-Serif" font-size="10.00" fill="#000000">_out.h</text>
</g>
<!-- Node24&#45;&gt;Node49 -->
<g id="edge62" class="edge">
<title>Node24&#45;&gt;Node49</title>
<path fill="none" stroke="#191970" d="M2440.6853,-184.2227C2488.1366,-176.8024 2581.5094,-161.6101 2670.2942,-143.178"/>
<polygon fill="#191970" stroke="#191970" points="2671.1868,-146.5671 2680.2571,-141.0917 2669.752,-139.7157 2671.1868,-146.5671"/>
</g>
<!-- Node50 -->
<g id="node46" class="node">
<title>Node50</title>
<polygon fill="#ffffff" stroke="#bfbfbf" points="2807,-112.5 2807,-142.5 2916,-142.5 2916,-112.5 2807,-112.5"/>
<text text-anchor="start" x="2815" y="-130.5" font-family="Helvetica,sans-Serif" font-size="10.00" fill="#000000">deal.II/numerics/error</text>
<text text-anchor="middle" x="2861.5" y="-119.5" font-family="Helvetica,sans-Serif" font-size="10.00" fill="#000000">_estimator.h</text>
</g>
<!-- Node24&#45;&gt;Node50 -->
<g id="edge63" class="edge">
<title>Node24&#45;&gt;Node50</title>
<path fill="none" stroke="#191970" d="M2440.6177,-186.5832C2505.1583,-181.2984 2658.4024,-167.3407 2796.8383,-142.9804"/>
<polygon fill="#191970" stroke="#191970" points="2797.5481,-146.4092 2806.7786,-141.2085 2796.3196,-139.5178 2797.5481,-146.4092"/>
</g>
<!-- Node51 -->
<g id="node47" class="node">
<title>Node51</title>
<polygon fill="#ffffff" stroke="#bfbfbf" points="2934.5,-118 2934.5,-137 2984.5,-137 2984.5,-118 2934.5,-118"/>
<text text-anchor="middle" x="2959.5" y="-125" font-family="Helvetica,sans-Serif" font-size="10.00" fill="#000000">fstream</text>
</g>
<!-- Node24&#45;&gt;Node51 -->
<g id="edge64" class="edge">
<title>Node24&#45;&gt;Node51</title>
<path fill="none" stroke="#191970" d="M2440.787,-187.5975C2537.8695,-183.0282 2833.0023,-167.4404 2925.5,-143 2927.6913,-142.421 2929.9177,-141.7114 2932.1289,-140.9175"/>
<polygon fill="#191970" stroke="#191970" points="2933.6473,-144.0777 2941.5689,-137.0421 2930.9889,-137.6021 2933.6473,-144.0777"/>
</g>
<!-- Node52 -->
<g id="node48" class="node">
<title>Node52</title>
<polygon fill="#ffffff" stroke="#bfbfbf" points="3003,-118 3003,-137 3086,-137 3086,-118 3003,-118"/>
<text text-anchor="middle" x="3044.5" y="-125" font-family="Helvetica,sans-Serif" font-size="10.00" fill="#000000">unordered_map</text>
</g>
<!-- Node24&#45;&gt;Node52 -->
<g id="edge67" class="edge">
<title>Node24&#45;&gt;Node52</title>
<path fill="none" stroke="#191970" d="M2440.6397,-187.4387C2545.5948,-182.0369 2885.8221,-163.3546 2993.5,-143 2997.9684,-142.1553 3002.6005,-141.0638 3007.1688,-139.8513"/>
<polygon fill="#191970" stroke="#191970" points="3008.3233,-143.1617 3016.9795,-137.0527 3006.403,-136.4303 3008.3233,-143.1617"/>
</g>
<!-- Node53 -->
<g id="node49" class="node">
<title>Node53</title>
<polygon fill="#ffffff" stroke="#bfbfbf" points="3104.5,-118 3104.5,-137 3144.5,-137 3144.5,-118 3104.5,-118"/>
<text text-anchor="middle" x="3124.5" y="-125" font-family="Helvetica,sans-Serif" font-size="10.00" fill="#000000">utility</text>
</g>
<!-- Node24&#45;&gt;Node53 -->
<g id="edge69" class="edge">
<title>Node24&#45;&gt;Node53</title>
<path fill="none" stroke="#191970" d="M2440.8741,-188.6446C2558.0869,-187.0469 2969.9898,-178.942 3095.5,-143 3096.9749,-142.5776 3098.4598,-142.0731 3099.9363,-141.5084"/>
<polygon fill="#191970" stroke="#191970" points="3101.7621,-144.5199 3109.3634,-137.1395 3098.8187,-138.1687 3101.7621,-144.5199"/>
</g>
<!-- Node54&#45;&gt;Node1 -->
<g id="edge79" class="edge">
<title>Node54&#45;&gt;Node1</title>
<path fill="none" stroke="#191970" d="M363.7118,-239.5285C327.1589,-230.3493 252.8446,-211.6874 205.4773,-199.7925"/>
<polygon fill="#191970" stroke="#191970" points="206.0626,-196.3309 195.5113,-197.2898 204.3577,-203.1201 206.0626,-196.3309"/>
</g>
<!-- Node54&#45;&gt;Node5 -->
<g id="edge78" class="edge">
<title>Node54&#45;&gt;Node5</title>
<path fill="none" stroke="#191970" d="M407.2591,-235.6269C428.2234,-226.5961 460.1706,-212.8342 483.93,-202.5994"/>
<polygon fill="#191970" stroke="#191970" points="485.4348,-205.7622 493.2342,-198.5914 482.6653,-199.3333 485.4348,-205.7622"/>
</g>
<!-- Node54&#45;&gt;Node15 -->
<g id="edge77" class="edge">
<title>Node54&#45;&gt;Node15</title>
<path fill="none" stroke="#191970" d="M377.8076,-235.3845C362.0399,-215.6749 325.8462,-170.4328 305.6969,-145.2461"/>
<polygon fill="#191970" stroke="#191970" points="308.2787,-142.8706 299.2987,-137.2484 302.8126,-147.2435 308.2787,-142.8706"/>
</g>
<!-- Node54&#45;&gt;Node19 -->
<g id="edge76" class="edge">
<title>Node54&#45;&gt;Node19</title>
<path fill="none" stroke="#191970" d="M391.4739,-235.3845C403.612,-215.8471 431.3371,-171.2211 447.0619,-145.9106"/>
<polygon fill="#191970" stroke="#191970" points="450.1392,-147.5896 452.4436,-137.2484 444.1933,-143.8955 450.1392,-147.5896"/>
</g>
</g>
</svg>
