<?xml version="1.0" encoding="UTF-8" standalone="no"?>
<!DOCTYPE svg PUBLIC "-//W3C//DTD SVG 1.1//EN"
 "http://www.w3.org/Graphics/SVG/1.1/DTD/svg11.dtd">
<!-- Generated by graphviz version 2.40.1 (20161225.0304)
 -->
<!-- Title: /home/oleg/Dev/riversim/source/river/riversim.hpp Pages: 1 -->
<svg width="4813pt" height="274pt"
 viewBox="0.00 0.00 4813.00 274.00" xmlns="http://www.w3.org/2000/svg" xmlns:xlink="http://www.w3.org/1999/xlink">
<g id="graph0" class="graph" transform="scale(1 1) rotate(0) translate(4 270)">
<title>/home/oleg/Dev/riversim/source/river/riversim.hpp</title>
<polygon fill="#ffffff" stroke="transparent" points="-4,4 -4,-270 4809,-270 4809,4 -4,4"/>
<!-- Node0 -->
<g id="node1" class="node">
<title>Node0</title>
<polygon fill="#bfbfbf" stroke="#000000" points="393.5,-235.5 393.5,-265.5 520.5,-265.5 520.5,-235.5 393.5,-235.5"/>
<text text-anchor="start" x="401.5" y="-253.5" font-family="Helvetica,sans-Serif" font-size="10.00" fill="#000000">/home/oleg/Dev/riversim</text>
<text text-anchor="middle" x="457" y="-242.5" font-family="Helvetica,sans-Serif" font-size="10.00" fill="#000000">/source/river/riversim.hpp</text>
</g>
<!-- Node1 -->
<g id="node2" class="node">
<title>Node1</title>
<g id="a_node2"><a xlink:href="utilities_8hpp.html" target="_top" xlink:title="utilities.hpp">
<polygon fill="#ffffff" stroke="#000000" points="65,-179.5 65,-198.5 131,-198.5 131,-179.5 65,-179.5"/>
<text text-anchor="middle" x="98" y="-186.5" font-family="Helvetica,sans-Serif" font-size="10.00" fill="#000000">utilities.hpp</text>
</a>
</g>
</g>
<!-- Node0&#45;&gt;Node1 -->
<g id="edge1" class="edge">
<title>Node0&#45;&gt;Node1</title>
<path fill="none" stroke="#191970" d="M393.2317,-239.5759C320.5127,-227.1185 203.6174,-207.0932 140.9582,-196.3591"/>
<polygon fill="#191970" stroke="#191970" points="141.4621,-192.8945 131.0147,-194.6557 140.2801,-199.794 141.4621,-192.8945"/>
</g>
<!-- Node4 -->
<g id="node5" class="node">
<title>Node4</title>
<g id="a_node5"><a xlink:href="geometry_8hpp.html" target="_top" xlink:title="geometry.hpp">
<polygon fill="#ffffff" stroke="#000000" points="964,-118 964,-137 1040,-137 1040,-118 964,-118"/>
<text text-anchor="middle" x="1002" y="-125" font-family="Helvetica,sans-Serif" font-size="10.00" fill="#000000">geometry.hpp</text>
</a>
</g>
</g>
<!-- Node0&#45;&gt;Node4 -->
<g id="edge4" class="edge">
<title>Node0&#45;&gt;Node4</title>
<path fill="none" stroke="#191970" d="M520.5782,-238.0346C571.1833,-227.9606 643.7594,-213.1732 707,-199 794.5604,-179.3763 896.1527,-154.2251 954.3726,-139.5814"/>
<polygon fill="#191970" stroke="#191970" points="955.5359,-142.8977 964.3779,-137.0608 953.8258,-136.1098 955.5359,-142.8977"/>
</g>
<!-- Node14 -->
<g id="node13" class="node">
<title>Node14</title>
<g id="a_node13"><a xlink:href="geometrynew_8hpp.html" target="_top" xlink:title="Holds all functionality that you need to work with tree of river, its separate branches and generatio...">
<polygon fill="#ffffff" stroke="#000000" points="335,-179.5 335,-198.5 429,-198.5 429,-179.5 335,-179.5"/>
<text text-anchor="middle" x="382" y="-186.5" font-family="Helvetica,sans-Serif" font-size="10.00" fill="#000000">geometrynew.hpp</text>
</a>
</g>
</g>
<!-- Node0&#45;&gt;Node14 -->
<g id="edge20" class="edge">
<title>Node0&#45;&gt;Node14</title>
<path fill="none" stroke="#191970" d="M438.4607,-235.2977C427.3992,-226.2274 413.3509,-214.7077 402.0347,-205.4285"/>
<polygon fill="#191970" stroke="#191970" points="403.9604,-202.4813 394.0084,-198.8469 399.5219,-207.8942 403.9604,-202.4813"/>
</g>
<!-- Node16 -->
<g id="node15" class="node">
<title>Node16</title>
<g id="a_node15"><a xlink:href="physmodel_8hpp.html" target="_top" xlink:title="physmodel.hpp">
<polygon fill="#ffffff" stroke="#ff0000" points="240.5,-118 240.5,-137 323.5,-137 323.5,-118 240.5,-118"/>
<text text-anchor="middle" x="282" y="-125" font-family="Helvetica,sans-Serif" font-size="10.00" fill="#000000">physmodel.hpp</text>
</a>
</g>
</g>
<!-- Node0&#45;&gt;Node16 -->
<g id="edge80" class="edge">
<title>Node0&#45;&gt;Node16</title>
<path fill="none" stroke="#191970" d="M395.5719,-235.4129C371.9827,-227.4224 345.9583,-215.7036 326,-199 309.1293,-184.8804 296.8569,-162.5553 289.6252,-146.6089"/>
<polygon fill="#191970" stroke="#191970" points="292.7526,-145.0203 285.6032,-137.2013 286.3161,-147.7722 292.7526,-145.0203"/>
</g>
<!-- Node19 -->
<g id="node16" class="node">
<title>Node19</title>
<g id="a_node16"><a xlink:href="border_8hpp.html" target="_top" xlink:title="Generate some initial predefinide border geometry and its source positions. ">
<polygon fill="#ffffff" stroke="#000000" points="418,-118 418,-137 480,-137 480,-118 418,-118"/>
<text text-anchor="middle" x="449" y="-125" font-family="Helvetica,sans-Serif" font-size="10.00" fill="#000000">border.hpp</text>
</a>
</g>
</g>
<!-- Node0&#45;&gt;Node19 -->
<g id="edge81" class="edge">
<title>Node0&#45;&gt;Node19</title>
<path fill="none" stroke="#191970" d="M456.019,-235.4178C454.5783,-213.2662 451.8882,-171.9061 450.2893,-147.3234"/>
<polygon fill="#191970" stroke="#191970" points="453.7628,-146.801 449.6211,-137.0493 446.7776,-147.2554 453.7628,-146.801"/>
</g>
<!-- Node20 -->
<g id="node17" class="node">
<title>Node20</title>
<g id="a_node17"><a xlink:href="mesh_8hpp.html" target="_top" xlink:title="mesh.hpp">
<polygon fill="#ffffff" stroke="#000000" points="639.5,-179.5 639.5,-198.5 698.5,-198.5 698.5,-179.5 639.5,-179.5"/>
<text text-anchor="middle" x="669" y="-186.5" font-family="Helvetica,sans-Serif" font-size="10.00" fill="#000000">mesh.hpp</text>
</a>
</g>
</g>
<!-- Node0&#45;&gt;Node20 -->
<g id="edge36" class="edge">
<title>Node0&#45;&gt;Node20</title>
<path fill="none" stroke="#191970" d="M508.861,-235.4554C545.9653,-224.6917 595.1673,-210.4185 629.195,-200.5472"/>
<polygon fill="#191970" stroke="#191970" points="630.609,-203.7814 639.2379,-197.6338 628.6587,-197.0585 630.609,-203.7814"/>
</g>
<!-- Node25 -->
<g id="node22" class="node">
<title>Node25</title>
<g id="a_node22"><a xlink:href="solver_8hpp.html" target="_top" xlink:title="solver.hpp">
<polygon fill="#ffffff" stroke="#000000" points="2633,-179.5 2633,-198.5 2695,-198.5 2695,-179.5 2633,-179.5"/>
<text text-anchor="middle" x="2664" y="-186.5" font-family="Helvetica,sans-Serif" font-size="10.00" fill="#000000">solver.hpp</text>
</a>
</g>
</g>
<!-- Node0&#45;&gt;Node25 -->
<g id="edge44" class="edge">
<title>Node0&#45;&gt;Node25</title>
<path fill="none" stroke="#191970" d="M520.6711,-248.7257C849.8635,-239.5525 2353.9131,-197.6408 2622.7972,-190.1482"/>
<polygon fill="#191970" stroke="#191970" points="2623.0081,-193.6437 2632.9067,-189.8664 2622.8131,-186.6464 2623.0081,-193.6437"/>
</g>
<!-- Node2 -->
<g id="node3" class="node">
<title>Node2</title>
<polygon fill="#ffffff" stroke="#bfbfbf" points="460,-.5 460,-19.5 514,-19.5 514,-.5 460,-.5"/>
<text text-anchor="middle" x="487" y="-7.5" font-family="Helvetica,sans-Serif" font-size="10.00" fill="#000000">iostream</text>
</g>
<!-- Node1&#45;&gt;Node2 -->
<g id="edge2" class="edge">
<title>Node1&#45;&gt;Node2</title>
<path fill="none" stroke="#191970" d="M102.7011,-179.258C115.766,-153.4444 155.3194,-83.3915 212,-56 253.3887,-35.9985 384.7296,-20.3561 449.7703,-13.6139"/>
<polygon fill="#191970" stroke="#191970" points="450.3962,-17.0683 459.9894,-12.5714 449.6858,-10.1044 450.3962,-17.0683"/>
</g>
<!-- Node3 -->
<g id="node4" class="node">
<title>Node3</title>
<polygon fill="#ffffff" stroke="#bfbfbf" points="0,-118 0,-137 70,-137 70,-118 0,-118"/>
<text text-anchor="middle" x="35" y="-125" font-family="Helvetica,sans-Serif" font-size="10.00" fill="#000000">cxxopts.hpp</text>
</g>
<!-- Node1&#45;&gt;Node3 -->
<g id="edge3" class="edge">
<title>Node1&#45;&gt;Node3</title>
<path fill="none" stroke="#191970" d="M88.1563,-179.3906C78.5961,-170.0581 63.8777,-155.6902 52.3505,-144.4374"/>
<polygon fill="#191970" stroke="#191970" points="54.5832,-141.7257 44.9825,-137.2449 49.6934,-146.7348 54.5832,-141.7257"/>
</g>
<!-- Node4&#45;&gt;Node2 -->
<g id="edge9" class="edge">
<title>Node4&#45;&gt;Node2</title>
<path fill="none" stroke="#191970" d="M980.3786,-117.8366C958.5464,-107.9066 923.9994,-91.7193 895,-76 879.9226,-67.8272 878.2053,-61.6135 862,-56 800.1001,-34.5581 606.4976,-18.5719 524.3993,-12.5814"/>
<polygon fill="#191970" stroke="#191970" points="524.4923,-9.0791 514.2667,-11.8517 523.9894,-16.0611 524.4923,-9.0791"/>
</g>
<!-- Node5 -->
<g id="node6" class="node">
<title>Node5</title>
<polygon fill="#ffffff" stroke="#bfbfbf" points="1099,-56.5 1099,-75.5 1139,-75.5 1139,-56.5 1099,-56.5"/>
<text text-anchor="middle" x="1119" y="-63.5" font-family="Helvetica,sans-Serif" font-size="10.00" fill="#000000">utility</text>
</g>
<!-- Node4&#45;&gt;Node5 -->
<g id="edge5" class="edge">
<title>Node4&#45;&gt;Node5</title>
<path fill="none" stroke="#191970" d="M1020.2813,-117.8906C1039.5141,-107.7811 1069.9879,-91.7628 1091.9925,-80.1962"/>
<polygon fill="#191970" stroke="#191970" points="1093.624,-83.2928 1100.8471,-75.5419 1090.367,-77.0967 1093.624,-83.2928"/>
</g>
<!-- Node6 -->
<g id="node7" class="node">
<title>Node6</title>
<polygon fill="#ffffff" stroke="#bfbfbf" points="902.5,-.5 902.5,-19.5 943.5,-19.5 943.5,-.5 902.5,-.5"/>
<text text-anchor="middle" x="923" y="-7.5" font-family="Helvetica,sans-Serif" font-size="10.00" fill="#000000">string</text>
</g>
<!-- Node4&#45;&gt;Node6 -->
<g id="edge6" class="edge">
<title>Node4&#45;&gt;Node6</title>
<path fill="none" stroke="#191970" d="M999.1033,-117.6223C994.5845,-103.218 984.9091,-75.9907 971,-56 963.3521,-45.0081 952.7779,-34.5316 943.5004,-26.3608"/>
<polygon fill="#191970" stroke="#191970" points="945.6777,-23.6182 935.7875,-19.819 941.1499,-28.9566 945.6777,-23.6182"/>
</g>
<!-- Node7 -->
<g id="node8" class="node">
<title>Node7</title>
<polygon fill="#ffffff" stroke="#bfbfbf" points="703,-.5 703,-19.5 747,-19.5 747,-.5 703,-.5"/>
<text text-anchor="middle" x="725" y="-7.5" font-family="Helvetica,sans-Serif" font-size="10.00" fill="#000000">vector</text>
</g>
<!-- Node4&#45;&gt;Node7 -->
<g id="edge7" class="edge">
<title>Node4&#45;&gt;Node7</title>
<path fill="none" stroke="#191970" d="M990.557,-117.9986C971.7503,-102.8277 932.6274,-73.1053 895,-56 849.3433,-35.2446 792.4007,-22.2015 757.3797,-15.5087"/>
<polygon fill="#191970" stroke="#191970" points="757.7217,-12.0126 747.2517,-13.634 756.4476,-18.8957 757.7217,-12.0126"/>
</g>
<!-- Node8 -->
<g id="node9" class="node">
<title>Node8</title>
<polygon fill="#ffffff" stroke="#bfbfbf" points="1101.5,-.5 1101.5,-19.5 1136.5,-19.5 1136.5,-.5 1101.5,-.5"/>
<text text-anchor="middle" x="1119" y="-7.5" font-family="Helvetica,sans-Serif" font-size="10.00" fill="#000000">map</text>
</g>
<!-- Node4&#45;&gt;Node8 -->
<g id="edge8" class="edge">
<title>Node4&#45;&gt;Node8</title>
<path fill="none" stroke="#191970" d="M1011.5746,-117.8845C1031.3717,-98.0028 1077.0387,-52.1406 1101.9819,-27.0908"/>
<polygon fill="#191970" stroke="#191970" points="1104.7173,-29.3041 1109.2931,-19.7484 1099.7569,-24.3649 1104.7173,-29.3041"/>
</g>
<!-- Node9 -->
<g id="node10" class="node">
<title>Node9</title>
<polygon fill="#ffffff" stroke="#bfbfbf" points="801.5,-.5 801.5,-19.5 848.5,-19.5 848.5,-.5 801.5,-.5"/>
<text text-anchor="middle" x="825" y="-7.5" font-family="Helvetica,sans-Serif" font-size="10.00" fill="#000000">math.h</text>
</g>
<!-- Node4&#45;&gt;Node9 -->
<g id="edge10" class="edge">
<title>Node4&#45;&gt;Node9</title>
<path fill="none" stroke="#191970" d="M994.9004,-117.9853C983.3519,-103.0614 959.1448,-73.999 933,-56 909.9998,-40.1658 880.6824,-28.1041 858.3985,-20.3124"/>
<polygon fill="#191970" stroke="#191970" points="859.2971,-16.9216 848.7029,-17.0347 857.0553,-23.553 859.2971,-16.9216"/>
</g>
<!-- Node10 -->
<g id="node11" class="node">
<title>Node10</title>
<g id="a_node11"><a xlink:href="common_8hpp.html" target="_top" xlink:title="common.hpp">
<polygon fill="#ffffff" stroke="#000000" points="540.5,-56.5 540.5,-75.5 613.5,-75.5 613.5,-56.5 540.5,-56.5"/>
<text text-anchor="middle" x="577" y="-63.5" font-family="Helvetica,sans-Serif" font-size="10.00" fill="#000000">common.hpp</text>
</a>
</g>
</g>
<!-- Node4&#45;&gt;Node10 -->
<g id="edge11" class="edge">
<title>Node4&#45;&gt;Node10</title>
<path fill="none" stroke="#191970" d="M963.9101,-121.9882C885.9691,-110.7096 708.5063,-85.0297 623.7486,-72.7648"/>
<polygon fill="#191970" stroke="#191970" points="624.0391,-69.2705 613.6409,-71.3022 623.0365,-76.1983 624.0391,-69.2705"/>
</g>
<!-- Node11 -->
<g id="node12" class="node">
<title>Node11</title>
<g id="a_node12"><a xlink:href="tethex_8hpp.html" target="_top" xlink:title="tethex.hpp">
<polygon fill="#ffffff" stroke="#ff0000" points="791,-56.5 791,-75.5 853,-75.5 853,-56.5 791,-56.5"/>
<text text-anchor="middle" x="822" y="-63.5" font-family="Helvetica,sans-Serif" font-size="10.00" fill="#000000">tethex.hpp</text>
</a>
</g>
</g>
<!-- Node4&#45;&gt;Node11 -->
<g id="edge15" class="edge">
<title>Node4&#45;&gt;Node11</title>
<path fill="none" stroke="#191970" d="M973.875,-117.8906C943.0972,-107.3749 893.6079,-90.466 859.5345,-78.8243"/>
<polygon fill="#191970" stroke="#191970" points="860.522,-75.4631 849.9275,-75.5419 858.2588,-82.0871 860.522,-75.4631"/>
</g>
<!-- Node10&#45;&gt;Node2 -->
<g id="edge14" class="edge">
<title>Node10&#45;&gt;Node2</title>
<path fill="none" stroke="#191970" d="M561.3232,-56.2455C547.5144,-47.6534 527.1807,-35.0014 511.2708,-25.1018"/>
<polygon fill="#191970" stroke="#191970" points="512.8368,-21.954 502.4972,-19.6427 509.1387,-27.8974 512.8368,-21.954"/>
</g>
<!-- Node10&#45;&gt;Node7 -->
<g id="edge12" class="edge">
<title>Node10&#45;&gt;Node7</title>
<path fill="none" stroke="#191970" d="M602.4421,-56.3733C627.6159,-46.848 666.2128,-32.2438 693.3523,-21.9748"/>
<polygon fill="#191970" stroke="#191970" points="694.6724,-25.2176 702.7866,-18.4051 692.1951,-18.6705 694.6724,-25.2176"/>
</g>
<!-- Node10&#45;&gt;Node9 -->
<g id="edge13" class="edge">
<title>Node10&#45;&gt;Node9</title>
<path fill="none" stroke="#191970" d="M613.5933,-57.737C661.5691,-46.9037 745.0623,-28.0504 791.4683,-17.5717"/>
<polygon fill="#191970" stroke="#191970" points="792.3461,-20.9617 801.3296,-15.3449 790.8042,-14.1336 792.3461,-20.9617"/>
</g>
<!-- Node11&#45;&gt;Node2 -->
<g id="edge16" class="edge">
<title>Node11&#45;&gt;Node2</title>
<path fill="none" stroke="#191970" d="M790.7848,-60.7819C728.9583,-50.4468 591.1605,-27.4119 524.5212,-16.2722"/>
<polygon fill="#191970" stroke="#191970" points="524.8997,-12.787 514.4595,-14.5902 523.7455,-19.6912 524.8997,-12.787"/>
</g>
<!-- Node11&#45;&gt;Node6 -->
<g id="edge18" class="edge">
<title>Node11&#45;&gt;Node6</title>
<path fill="none" stroke="#191970" d="M839.5929,-56.2455C855.379,-47.4928 878.7639,-34.527 896.7587,-24.5496"/>
<polygon fill="#191970" stroke="#191970" points="898.5603,-27.5528 905.6087,-19.6427 895.1659,-21.4308 898.5603,-27.5528"/>
</g>
<!-- Node11&#45;&gt;Node7 -->
<g id="edge19" class="edge">
<title>Node11&#45;&gt;Node7</title>
<path fill="none" stroke="#191970" d="M805.1039,-56.2455C790.082,-47.5731 767.8957,-34.7645 750.679,-24.825"/>
<polygon fill="#191970" stroke="#191970" points="752.1128,-21.6114 741.7025,-19.6427 748.6129,-27.6737 752.1128,-21.6114"/>
</g>
<!-- Node11&#45;&gt;Node8 -->
<g id="edge17" class="edge">
<title>Node11&#45;&gt;Node8</title>
<path fill="none" stroke="#191970" d="M853.2229,-60.1129C911.4463,-49.1347 1035.707,-25.7051 1091.2148,-15.239"/>
<polygon fill="#191970" stroke="#191970" points="1092.1814,-18.6185 1101.3597,-13.3261 1090.8843,-11.7397 1092.1814,-18.6185"/>
</g>
<!-- Node14&#45;&gt;Node2 -->
<g id="edge21" class="edge">
<title>Node14&#45;&gt;Node2</title>
<path fill="none" stroke="#191970" d="M334.9141,-186.0389C276.4077,-181.2639 181.6182,-169.5569 160,-143 151.302,-132.3149 152.1076,-123.2932 160,-112 193.7839,-63.6589 371.5123,-28.996 449.8532,-15.8347"/>
<polygon fill="#191970" stroke="#191970" points="450.4873,-19.2775 459.7822,-14.1927 449.3451,-12.3713 450.4873,-19.2775"/>
</g>
<!-- Node14&#45;&gt;Node7 -->
<g id="edge22" class="edge">
<title>Node14&#45;&gt;Node7</title>
<path fill="none" stroke="#191970" d="M334.9927,-184.1341C276.4444,-176.1129 187.7985,-156.3494 220,-112 276.1489,-34.6691 590.4215,-15.3683 692.7749,-11.1006"/>
<polygon fill="#191970" stroke="#191970" points="692.9711,-14.5957 702.8245,-10.7021 692.6937,-7.6012 692.9711,-14.5957"/>
</g>
<!-- Node14&#45;&gt;Node8 -->
<g id="edge23" class="edge">
<title>Node14&#45;&gt;Node8</title>
<path fill="none" stroke="#191970" d="M429.1839,-187.167C571.5844,-181.4372 990.8386,-163.0459 1049,-143 1099.2295,-125.6879 1123.0937,-122.9297 1148,-76 1156.5514,-59.887 1145.9654,-40.728 1135.2613,-27.2142"/>
<polygon fill="#191970" stroke="#191970" points="1137.9126,-24.9292 1128.7513,-19.6073 1132.5942,-29.4806 1137.9126,-24.9292"/>
</g>
<!-- Node14&#45;&gt;Node10 -->
<g id="edge25" class="edge">
<title>Node14&#45;&gt;Node10</title>
<path fill="none" stroke="#191970" d="M382.5799,-179.4318C384.0904,-163.1748 389.5208,-130.1614 409,-112 426.5587,-95.6292 486.9586,-81.8709 530.3055,-73.7816"/>
<polygon fill="#191970" stroke="#191970" points="531.1608,-77.1834 540.3711,-71.9469 529.9055,-70.2969 531.1608,-77.1834"/>
</g>
<!-- Node14&#45;&gt;Node11 -->
<g id="edge26" class="edge">
<title>Node14&#45;&gt;Node11</title>
<path fill="none" stroke="#191970" d="M409.8528,-179.4663C432.0765,-171.2929 463.5848,-158.4134 489,-143 507.6365,-131.6977 507.0424,-120.7611 527,-112 629.7891,-66.8772 666.5734,-96.1904 777,-76 778.2399,-75.7733 779.4976,-75.5366 780.7662,-75.2921"/>
<polygon fill="#191970" stroke="#191970" points="781.4865,-78.7173 790.5903,-73.2978 780.0939,-71.8572 781.4865,-78.7173"/>
</g>
<!-- Node15 -->
<g id="node14" class="node">
<title>Node15</title>
<polygon fill="#ffffff" stroke="#bfbfbf" points="401,-56.5 401,-75.5 457,-75.5 457,-56.5 401,-56.5"/>
<text text-anchor="middle" x="429" y="-63.5" font-family="Helvetica,sans-Serif" font-size="10.00" fill="#000000">algorithm</text>
</g>
<!-- Node14&#45;&gt;Node15 -->
<g id="edge24" class="edge">
<title>Node14&#45;&gt;Node15</title>
<path fill="none" stroke="#191970" d="M334.6888,-182.5373C279.4267,-173.0133 199.3361,-151.8634 231,-112 250.5596,-87.3753 338.8488,-74.7424 390.6917,-69.3392"/>
<polygon fill="#191970" stroke="#191970" points="391.2508,-72.8008 400.8532,-68.3238 390.5547,-65.8355 391.2508,-72.8008"/>
</g>
<!-- Node14&#45;&gt;Node16 -->
<g id="edge27" class="edge">
<title>Node14&#45;&gt;Node16</title>
<path fill="none" stroke="#191970" d="M366.375,-179.3906C350.2302,-169.4616 324.8178,-153.833 306.0977,-142.3201"/>
<polygon fill="#191970" stroke="#191970" points="307.8669,-139.2992 297.5153,-137.0419 304.1998,-145.2619 307.8669,-139.2992"/>
</g>
<!-- Node14&#45;&gt;Node19 -->
<g id="edge30" class="edge">
<title>Node14&#45;&gt;Node19</title>
<path fill="none" stroke="#191970" d="M392.4688,-179.3906C402.7337,-169.9683 418.5903,-155.4134 430.9006,-144.1137"/>
<polygon fill="#191970" stroke="#191970" points="433.3834,-146.5856 438.3837,-137.2449 428.6499,-141.4287 433.3834,-146.5856"/>
</g>
<!-- Node16&#45;&gt;Node2 -->
<g id="edge28" class="edge">
<title>Node16&#45;&gt;Node2</title>
<path fill="none" stroke="#191970" d="M287.1265,-117.618C295.6283,-102.1906 314.1032,-72.4509 338,-56 371.7586,-32.7601 417.6959,-20.9201 449.6027,-15.1241"/>
<polygon fill="#191970" stroke="#191970" points="450.5755,-18.509 459.8475,-13.3825 449.4023,-11.608 450.5755,-18.509"/>
</g>
<!-- Node16&#45;&gt;Node10 -->
<g id="edge29" class="edge">
<title>Node16&#45;&gt;Node10</title>
<path fill="none" stroke="#191970" d="M323.6406,-118.819C378.1774,-107.4495 473.5223,-87.5725 530.4073,-75.7134"/>
<polygon fill="#191970" stroke="#191970" points="531.1454,-79.1349 540.2206,-73.6676 529.7167,-72.2822 531.1454,-79.1349"/>
</g>
<!-- Node19&#45;&gt;Node6 -->
<g id="edge33" class="edge">
<title>Node19&#45;&gt;Node6</title>
<path fill="none" stroke="#191970" d="M469.2951,-117.9367C474.352,-115.7844 479.8128,-113.6515 485,-112 558.1772,-88.7026 579.1435,-93.1518 654,-76 740.8622,-56.0974 842.9297,-30.4237 892.6697,-17.7639"/>
<polygon fill="#191970" stroke="#191970" points="893.6397,-21.1287 902.4652,-15.2668 891.9105,-14.3456 893.6397,-21.1287"/>
</g>
<!-- Node19&#45;&gt;Node7 -->
<g id="edge31" class="edge">
<title>Node19&#45;&gt;Node7</title>
<path fill="none" stroke="#191970" d="M476.0442,-117.9026C481.9417,-115.8889 488.1639,-113.8242 494,-112 550.405,-94.3699 568.0887,-100.2058 622,-76 652.5478,-62.2843 684.5375,-40.4281 704.6055,-25.6614"/>
<polygon fill="#191970" stroke="#191970" points="706.7732,-28.4109 712.6882,-19.6209 702.5827,-22.8038 706.7732,-28.4109"/>
</g>
<!-- Node19&#45;&gt;Node10 -->
<g id="edge35" class="edge">
<title>Node19&#45;&gt;Node10</title>
<path fill="none" stroke="#191970" d="M469,-117.8906C490.2289,-107.6908 523.9762,-91.4763 548.096,-79.8875"/>
<polygon fill="#191970" stroke="#191970" points="549.6426,-83.0275 557.1404,-75.5419 546.6111,-76.7179 549.6426,-83.0275"/>
</g>
<!-- Node19&#45;&gt;Node11 -->
<g id="edge34" class="edge">
<title>Node19&#45;&gt;Node11</title>
<path fill="none" stroke="#191970" d="M473.9617,-117.8849C480.4131,-115.6822 487.4014,-113.5389 494,-112 617.4778,-83.2027 652.0925,-97.7756 777,-76 778.2418,-75.7835 779.501,-75.5558 780.771,-75.3191"/>
<polygon fill="#191970" stroke="#191970" points="781.4768,-78.7474 790.6022,-73.3644 780.1117,-71.8818 781.4768,-78.7474"/>
</g>
<!-- Node19&#45;&gt;Node15 -->
<g id="edge32" class="edge">
<title>Node19&#45;&gt;Node15</title>
<path fill="none" stroke="#191970" d="M445.875,-117.8906C443.0735,-109.276 438.8767,-96.3708 435.3694,-85.5858"/>
<polygon fill="#191970" stroke="#191970" points="438.5902,-84.1722 432.1691,-75.7449 431.9333,-86.3371 438.5902,-84.1722"/>
</g>
<!-- Node20&#45;&gt;Node2 -->
<g id="edge37" class="edge">
<title>Node20&#45;&gt;Node2</title>
<path fill="none" stroke="#191970" d="M639.206,-187.6938C578.2129,-184.4071 442.0771,-173.7349 409,-143 380.1383,-116.182 371.0747,-89.3816 392,-56 404.6298,-35.852 428.8653,-24.3104 449.6956,-17.8271"/>
<polygon fill="#191970" stroke="#191970" points="450.9097,-21.1212 459.5821,-15.0352 449.0072,-14.3847 450.9097,-21.1212"/>
</g>
<!-- Node20&#45;&gt;Node4 -->
<g id="edge43" class="edge">
<title>Node20&#45;&gt;Node4</title>
<path fill="none" stroke="#191970" d="M698.5515,-183.5423C756.2027,-172.895 884.1383,-149.2673 954.071,-136.3518"/>
<polygon fill="#191970" stroke="#191970" points="954.7547,-139.7848 963.9528,-134.5267 953.4834,-132.9012 954.7547,-139.7848"/>
</g>
<!-- Node20&#45;&gt;Node11 -->
<g id="edge42" class="edge">
<title>Node20&#45;&gt;Node11</title>
<path fill="none" stroke="#191970" d="M698.7617,-186.7064C729.0128,-182.7684 775.1375,-172.0691 802,-143 816.3791,-127.4397 820.7071,-102.88 821.8665,-85.693"/>
<polygon fill="#191970" stroke="#191970" points="825.3665,-85.7564 822.2447,-75.632 818.3714,-85.4934 825.3665,-85.7564"/>
</g>
<!-- Node21 -->
<g id="node18" class="node">
<title>Node21</title>
<polygon fill="#ffffff" stroke="#bfbfbf" points="610.5,-118 610.5,-137 661.5,-137 661.5,-118 610.5,-118"/>
<text text-anchor="middle" x="636" y="-125" font-family="Helvetica,sans-Serif" font-size="10.00" fill="#000000">numeric</text>
</g>
<!-- Node20&#45;&gt;Node21 -->
<g id="edge38" class="edge">
<title>Node20&#45;&gt;Node21</title>
<path fill="none" stroke="#191970" d="M663.8438,-179.3906C659.0768,-170.5068 651.8615,-157.0601 645.9703,-146.0811"/>
<polygon fill="#191970" stroke="#191970" points="649.0412,-144.4016 641.2289,-137.2449 642.8731,-147.7114 649.0412,-144.4016"/>
</g>
<!-- Node22 -->
<g id="node19" class="node">
<title>Node22</title>
<polygon fill="#ffffff" stroke="#bfbfbf" points="679.5,-118 679.5,-137 726.5,-137 726.5,-118 679.5,-118"/>
<text text-anchor="middle" x="703" y="-125" font-family="Helvetica,sans-Serif" font-size="10.00" fill="#000000">iterator</text>
</g>
<!-- Node20&#45;&gt;Node22 -->
<g id="edge39" class="edge">
<title>Node20&#45;&gt;Node22</title>
<path fill="none" stroke="#191970" d="M674.3125,-179.3906C679.2239,-170.5068 686.6579,-157.0601 692.7275,-146.0811"/>
<polygon fill="#191970" stroke="#191970" points="695.8373,-147.6899 697.6126,-137.2449 689.7112,-144.3031 695.8373,-147.6899"/>
</g>
<!-- Node23 -->
<g id="node20" class="node">
<title>Node23</title>
<polygon fill="#ffffff" stroke="#bfbfbf" points="744.5,-118 744.5,-137 793.5,-137 793.5,-118 744.5,-118"/>
<text text-anchor="middle" x="769" y="-125" font-family="Helvetica,sans-Serif" font-size="10.00" fill="#000000">gmsh.h</text>
</g>
<!-- Node20&#45;&gt;Node23 -->
<g id="edge40" class="edge">
<title>Node20&#45;&gt;Node23</title>
<path fill="none" stroke="#191970" d="M684.625,-179.3906C700.7698,-169.4616 726.1822,-153.833 744.9023,-142.3201"/>
<polygon fill="#191970" stroke="#191970" points="746.8002,-145.2619 753.4847,-137.0419 743.1331,-139.2992 746.8002,-145.2619"/>
</g>
<!-- Node24 -->
<g id="node21" class="node">
<title>Node24</title>
<polygon fill="#ffffff" stroke="#bfbfbf" points="536,-118 536,-137 592,-137 592,-118 536,-118"/>
<text text-anchor="middle" x="564" y="-125" font-family="Helvetica,sans-Serif" font-size="10.00" fill="#000000">triangle.h</text>
</g>
<!-- Node20&#45;&gt;Node24 -->
<g id="edge41" class="edge">
<title>Node20&#45;&gt;Node24</title>
<path fill="none" stroke="#191970" d="M652.5938,-179.3906C635.5647,-169.4165 608.7159,-153.6908 589.0349,-142.1633"/>
<polygon fill="#191970" stroke="#191970" points="590.6888,-139.0759 580.291,-137.0419 587.151,-145.1161 590.6888,-139.0759"/>
</g>
<!-- Node25&#45;&gt;Node2 -->
<g id="edge72" class="edge">
<title>Node25&#45;&gt;Node2</title>
<path fill="none" stroke="#191970" d="M2632.6707,-188.6077C2403.9799,-185.6905 998.1934,-166.8316 912,-143 884.9548,-135.5223 882.9409,-122.6972 857,-112 739.7633,-63.6553 592.3462,-30.8181 524.4183,-17.1506"/>
<polygon fill="#191970" stroke="#191970" points="524.7062,-13.6394 514.2156,-15.1222 523.3411,-20.505 524.7062,-13.6394"/>
</g>
<!-- Node25&#45;&gt;Node5 -->
<g id="edge76" class="edge">
<title>Node25&#45;&gt;Node5</title>
<path fill="none" stroke="#191970" d="M2695.1409,-187.2417C2777.2746,-182.2885 2994.934,-166.998 3016,-143 3025.0893,-132.6457 3025.6236,-121.8597 3016,-112 2981.9711,-77.1359 1390.2824,-67.4228 1149.4039,-66.1516"/>
<polygon fill="#191970" stroke="#191970" points="1149.2834,-62.6511 1139.2653,-66.0989 1149.247,-69.651 1149.2834,-62.6511"/>
</g>
<!-- Node25&#45;&gt;Node6 -->
<g id="edge73" class="edge">
<title>Node25&#45;&gt;Node6</title>
<path fill="none" stroke="#191970" d="M2632.8315,-188.5513C2421.0498,-185.4423 1199.4737,-166.5341 1125,-143 1119.9602,-141.4074 997.8184,-59.9976 945.9534,-25.3483"/>
<polygon fill="#191970" stroke="#191970" points="947.6709,-22.2865 937.4118,-19.6402 943.7815,-28.1065 947.6709,-22.2865"/>
</g>
<!-- Node25&#45;&gt;Node8 -->
<g id="edge75" class="edge">
<title>Node25&#45;&gt;Node8</title>
<path fill="none" stroke="#191970" d="M2695.0965,-187.4419C2779.9638,-182.8737 3010.7254,-168.2237 3033,-143 3042.1199,-132.6726 3042.4796,-121.9982 3033,-112 2965.069,-40.3524 1377.6508,-13.8788 1146.8762,-10.4039"/>
<polygon fill="#191970" stroke="#191970" points="1146.6931,-6.9009 1136.6421,-10.2516 1146.5889,-13.9001 1146.6931,-6.9009"/>
</g>
<!-- Node25&#45;&gt;Node10 -->
<g id="edge77" class="edge">
<title>Node25&#45;&gt;Node10</title>
<path fill="none" stroke="#191970" d="M2632.922,-188.8234C2410.3128,-187.476 1062.0306,-177.9111 884,-143 845.7663,-135.5025 839.4277,-122.8255 802,-112 741.2891,-94.4402 669.4977,-80.9899 623.6238,-73.2924"/>
<polygon fill="#191970" stroke="#191970" points="624.1136,-69.8259 613.6761,-71.6453 622.97,-76.7319 624.1136,-69.8259"/>
</g>
<!-- Node25&#45;&gt;Node11 -->
<g id="edge78" class="edge">
<title>Node25&#45;&gt;Node11</title>
<path fill="none" stroke="#191970" d="M2632.695,-188.6817C2407.2109,-186.3242 1037.5579,-170.8888 955,-143 932.6794,-135.4599 932.1029,-124.2856 912,-112 892.6709,-100.1873 869.9499,-88.5909 852.1731,-79.9965"/>
<polygon fill="#191970" stroke="#191970" points="853.3908,-76.6994 842.8587,-75.5483 850.3742,-83.0161 853.3908,-76.6994"/>
</g>
<!-- Node25&#45;&gt;Node16 -->
<g id="edge79" class="edge">
<title>Node25&#45;&gt;Node16</title>
<path fill="none" stroke="#191970" d="M2632.9236,-188.7986C2395.8169,-187.1971 869.6522,-175.725 409,-143 384.2143,-141.2392 356.8394,-138.0575 333.871,-135.033"/>
<polygon fill="#191970" stroke="#191970" points="334.0303,-131.523 323.6532,-133.66 333.098,-138.4606 334.0303,-131.523"/>
</g>
<!-- Node26 -->
<g id="node23" class="node">
<title>Node26</title>
<polygon fill="#ffffff" stroke="#bfbfbf" points="1558,-112.5 1558,-142.5 1674,-142.5 1674,-112.5 1558,-112.5"/>
<text text-anchor="start" x="1566" y="-130.5" font-family="Helvetica,sans-Serif" font-size="10.00" fill="#000000">deal.II/base/quadrature</text>
<text text-anchor="middle" x="1616" y="-119.5" font-family="Helvetica,sans-Serif" font-size="10.00" fill="#000000">_lib.h</text>
</g>
<!-- Node25&#45;&gt;Node26 -->
<g id="edge45" class="edge">
<title>Node25&#45;&gt;Node26</title>
<path fill="none" stroke="#191970" d="M2632.7212,-188.2785C2487.0085,-184.8032 1873.8604,-168.8863 1684,-143 1683.8988,-142.9862 1683.7975,-142.9723 1683.6961,-142.9584"/>
<polygon fill="#191970" stroke="#191970" points="1684.5351,-139.5471 1674.1142,-141.4589 1683.4528,-146.463 1684.5351,-139.5471"/>
</g>
<!-- Node27 -->
<g id="node24" class="node">
<title>Node27</title>
<polygon fill="#ffffff" stroke="#bfbfbf" points="1692.5,-118 1692.5,-137 1805.5,-137 1805.5,-118 1692.5,-118"/>
<text text-anchor="middle" x="1749" y="-125" font-family="Helvetica,sans-Serif" font-size="10.00" fill="#000000">deal.II/base/function.h</text>
</g>
<!-- Node25&#45;&gt;Node27 -->
<g id="edge46" class="edge">
<title>Node25&#45;&gt;Node27</title>
<path fill="none" stroke="#191970" d="M2632.9897,-188.0544C2500.0552,-183.8875 1977.7389,-166.3317 1815,-143 1808.2679,-142.0348 1801.2125,-140.7157 1794.3227,-139.2516"/>
<polygon fill="#191970" stroke="#191970" points="1794.9273,-135.8003 1784.4037,-137.0271 1793.3954,-142.6307 1794.9273,-135.8003"/>
</g>
<!-- Node28 -->
<g id="node25" class="node">
<title>Node28</title>
<polygon fill="#ffffff" stroke="#bfbfbf" points="1824,-112.5 1824,-142.5 1950,-142.5 1950,-112.5 1824,-112.5"/>
<text text-anchor="start" x="1832" y="-130.5" font-family="Helvetica,sans-Serif" font-size="10.00" fill="#000000">deal.II/base/convergence</text>
<text text-anchor="middle" x="1887" y="-119.5" font-family="Helvetica,sans-Serif" font-size="10.00" fill="#000000">_table.h</text>
</g>
<!-- Node25&#45;&gt;Node28 -->
<g id="edge47" class="edge">
<title>Node25&#45;&gt;Node28</title>
<path fill="none" stroke="#191970" d="M2632.9597,-188.5634C2535.4346,-186.8565 2226.4176,-178.8965 1960.448,-142.9054"/>
<polygon fill="#191970" stroke="#191970" points="1960.5924,-139.3925 1950.2099,-141.503 1959.6424,-146.3278 1960.5924,-139.3925"/>
</g>
<!-- Node29 -->
<g id="node26" class="node">
<title>Node29</title>
<polygon fill="#ffffff" stroke="#bfbfbf" points="1968.5,-118 1968.5,-137 2071.5,-137 2071.5,-118 1968.5,-118"/>
<text text-anchor="middle" x="2020" y="-125" font-family="Helvetica,sans-Serif" font-size="10.00" fill="#000000">deal.II/base/types.h</text>
</g>
<!-- Node25&#45;&gt;Node29 -->
<g id="edge48" class="edge">
<title>Node25&#45;&gt;Node29</title>
<path fill="none" stroke="#191970" d="M2632.8057,-188.4017C2545.2291,-186.3224 2289.8567,-177.5169 2081,-143 2075.1987,-142.0412 2069.141,-140.8007 2063.1909,-139.4391"/>
<polygon fill="#191970" stroke="#191970" points="2063.8856,-136.0063 2053.3435,-137.0619 2062.2429,-142.8109 2063.8856,-136.0063"/>
</g>
<!-- Node30 -->
<g id="node27" class="node">
<title>Node30</title>
<polygon fill="#ffffff" stroke="#bfbfbf" points="2089.5,-118 2089.5,-137 2216.5,-137 2216.5,-118 2089.5,-118"/>
<text text-anchor="middle" x="2153" y="-125" font-family="Helvetica,sans-Serif" font-size="10.00" fill="#000000">deal.II/dofs/dof_handler.h</text>
</g>
<!-- Node25&#45;&gt;Node30 -->
<g id="edge49" class="edge">
<title>Node25&#45;&gt;Node30</title>
<path fill="none" stroke="#191970" d="M2632.7869,-186.8491C2560.7825,-181.6418 2377.607,-166.989 2226,-143 2218.8737,-141.8724 2211.3935,-140.5019 2204.0505,-139.0476"/>
<polygon fill="#191970" stroke="#191970" points="2204.667,-135.6013 2194.1686,-137.0274 2203.2649,-142.4595 2204.667,-135.6013"/>
</g>
<!-- Node31 -->
<g id="node28" class="node">
<title>Node31</title>
<polygon fill="#ffffff" stroke="#bfbfbf" points="2235,-118 2235,-137 2351,-137 2351,-118 2235,-118"/>
<text text-anchor="middle" x="2293" y="-125" font-family="Helvetica,sans-Serif" font-size="10.00" fill="#000000">deal.II/dofs/dof_tools.h</text>
</g>
<!-- Node25&#45;&gt;Node31 -->
<g id="edge50" class="edge">
<title>Node25&#45;&gt;Node31</title>
<path fill="none" stroke="#191970" d="M2632.9027,-185.0464C2577.8689,-177.8787 2459.8007,-161.7339 2361,-143 2354.9105,-141.8454 2348.5376,-140.5328 2342.238,-139.1715"/>
<polygon fill="#191970" stroke="#191970" points="2342.97,-135.7489 2332.4503,-137.0082 2341.4592,-142.584 2342.97,-135.7489"/>
</g>
<!-- Node32 -->
<g id="node29" class="node">
<title>Node32</title>
<polygon fill="#ffffff" stroke="#bfbfbf" points="2369.5,-118 2369.5,-137 2504.5,-137 2504.5,-118 2369.5,-118"/>
<text text-anchor="middle" x="2437" y="-125" font-family="Helvetica,sans-Serif" font-size="10.00" fill="#000000">deal.II/dofs/dof_accessor.h</text>
</g>
<!-- Node25&#45;&gt;Node32 -->
<g id="edge51" class="edge">
<title>Node25&#45;&gt;Node32</title>
<path fill="none" stroke="#191970" d="M2632.9126,-180.5776C2593.8536,-169.9956 2526.5433,-151.7595 2481.8976,-139.6639"/>
<polygon fill="#191970" stroke="#191970" points="2482.7462,-136.2677 2472.1789,-137.0308 2480.9157,-143.0241 2482.7462,-136.2677"/>
</g>
<!-- Node33 -->
<g id="node30" class="node">
<title>Node33</title>
<polygon fill="#ffffff" stroke="#bfbfbf" points="2522.5,-118 2522.5,-137 2671.5,-137 2671.5,-118 2522.5,-118"/>
<text text-anchor="middle" x="2597" y="-125" font-family="Helvetica,sans-Serif" font-size="10.00" fill="#000000">deal.II/dofs/dof_renumbering.h</text>
</g>
<!-- Node25&#45;&gt;Node33 -->
<g id="edge52" class="edge">
<title>Node25&#45;&gt;Node33</title>
<path fill="none" stroke="#191970" d="M2653.5313,-179.3906C2643.2663,-169.9683 2627.4097,-155.4134 2615.0994,-144.1137"/>
<polygon fill="#191970" stroke="#191970" points="2617.3501,-141.4287 2607.6163,-137.2449 2612.6166,-146.5856 2617.3501,-141.4287"/>
</g>
<!-- Node34 -->
<g id="node31" class="node">
<title>Node34</title>
<polygon fill="#ffffff" stroke="#bfbfbf" points="2689.5,-118 2689.5,-137 2774.5,-137 2774.5,-118 2689.5,-118"/>
<text text-anchor="middle" x="2732" y="-125" font-family="Helvetica,sans-Serif" font-size="10.00" fill="#000000">deal.II/fe/fe_q.h</text>
</g>
<!-- Node25&#45;&gt;Node34 -->
<g id="edge53" class="edge">
<title>Node25&#45;&gt;Node34</title>
<path fill="none" stroke="#191970" d="M2674.625,-179.3906C2685.0431,-169.9683 2701.1364,-155.4134 2713.6304,-144.1137"/>
<polygon fill="#191970" stroke="#191970" points="2716.1562,-146.5484 2721.2252,-137.2449 2711.4608,-141.3568 2716.1562,-146.5484"/>
</g>
<!-- Node35 -->
<g id="node32" class="node">
<title>Node35</title>
<polygon fill="#ffffff" stroke="#bfbfbf" points="2793,-118 2793,-137 2901,-137 2901,-118 2793,-118"/>
<text text-anchor="middle" x="2847" y="-125" font-family="Helvetica,sans-Serif" font-size="10.00" fill="#000000">deal.II/fe/fe_values.h</text>
</g>
<!-- Node25&#45;&gt;Node35 -->
<g id="edge54" class="edge">
<title>Node25&#45;&gt;Node35</title>
<path fill="none" stroke="#191970" d="M2692.5938,-179.3906C2723.8845,-168.8749 2774.1986,-151.966 2808.84,-140.3243"/>
<polygon fill="#191970" stroke="#191970" points="2810.243,-143.5452 2818.607,-137.0419 2808.013,-136.9099 2810.243,-143.5452"/>
</g>
<!-- Node36 -->
<g id="node33" class="node">
<title>Node36</title>
<polygon fill="#ffffff" stroke="#bfbfbf" points="2919.5,-118 2919.5,-137 3006.5,-137 3006.5,-118 2919.5,-118"/>
<text text-anchor="middle" x="2963" y="-125" font-family="Helvetica,sans-Serif" font-size="10.00" fill="#000000">deal.II/grid/tria.h</text>
</g>
<!-- Node25&#45;&gt;Node36 -->
<g id="edge55" class="edge">
<title>Node25&#45;&gt;Node36</title>
<path fill="none" stroke="#191970" d="M2695.2768,-184.1776C2742.2102,-176.7103 2833.5139,-161.2873 2910,-143 2914.0909,-142.0219 2918.3364,-140.9238 2922.5632,-139.7755"/>
<polygon fill="#191970" stroke="#191970" points="2923.6294,-143.1115 2932.3106,-137.038 2921.7367,-136.3723 2923.6294,-143.1115"/>
</g>
<!-- Node37 -->
<g id="node34" class="node">
<title>Node37</title>
<polygon fill="#ffffff" stroke="#bfbfbf" points="3101.5,-118 3101.5,-137 3236.5,-137 3236.5,-118 3101.5,-118"/>
<text text-anchor="middle" x="3169" y="-125" font-family="Helvetica,sans-Serif" font-size="10.00" fill="#000000">deal.II/grid/grid_generator.h</text>
</g>
<!-- Node25&#45;&gt;Node37 -->
<g id="edge56" class="edge">
<title>Node25&#45;&gt;Node37</title>
<path fill="none" stroke="#191970" d="M2695.1527,-186.4558C2765.3271,-180.5404 2941.0475,-164.696 3087,-143 3095.0487,-141.8035 3103.5127,-140.386 3111.8222,-138.902"/>
<polygon fill="#191970" stroke="#191970" points="3112.6361,-142.3113 3121.8432,-137.0693 3111.3767,-135.4255 3112.6361,-142.3113"/>
</g>
<!-- Node38 -->
<g id="node35" class="node">
<title>Node38</title>
<polygon fill="#ffffff" stroke="#bfbfbf" points="3255,-118 3255,-137 3357,-137 3357,-118 3255,-118"/>
<text text-anchor="middle" x="3306" y="-125" font-family="Helvetica,sans-Serif" font-size="10.00" fill="#000000">deal.II/grid/grid_in.h</text>
</g>
<!-- Node25&#45;&gt;Node38 -->
<g id="edge57" class="edge">
<title>Node25&#45;&gt;Node38</title>
<path fill="none" stroke="#191970" d="M2695.1479,-188.4398C2782.5928,-186.4595 3037.5705,-177.8864 3246,-143 3251.5708,-142.0676 3257.3801,-140.8657 3263.0958,-139.5441"/>
<polygon fill="#191970" stroke="#191970" points="3264.3301,-142.8454 3273.2113,-137.0683 3262.6659,-136.0461 3264.3301,-142.8454"/>
</g>
<!-- Node39 -->
<g id="node36" class="node">
<title>Node39</title>
<polygon fill="#ffffff" stroke="#bfbfbf" points="3375,-118 3375,-137 3483,-137 3483,-118 3375,-118"/>
<text text-anchor="middle" x="3429" y="-125" font-family="Helvetica,sans-Serif" font-size="10.00" fill="#000000">deal.II/grid/grid_out.h</text>
</g>
<!-- Node25&#45;&gt;Node39 -->
<g id="edge58" class="edge">
<title>Node25&#45;&gt;Node39</title>
<path fill="none" stroke="#191970" d="M2695.0662,-187.6926C2813.0934,-182.6124 3233.679,-163.4502 3366,-143 3372.2093,-142.0404 3378.7038,-140.763 3385.0644,-139.3519"/>
<polygon fill="#191970" stroke="#191970" points="3385.9507,-142.7392 3394.8891,-137.051 3384.3544,-135.9236 3385.9507,-142.7392"/>
</g>
<!-- Node40 -->
<g id="node37" class="node">
<title>Node40</title>
<polygon fill="#ffffff" stroke="#bfbfbf" points="3501,-118 3501,-137 3641,-137 3641,-118 3501,-118"/>
<text text-anchor="middle" x="3571" y="-125" font-family="Helvetica,sans-Serif" font-size="10.00" fill="#000000">deal.II/grid/grid_refinement.h</text>
</g>
<!-- Node25&#45;&gt;Node40 -->
<g id="edge59" class="edge">
<title>Node25&#45;&gt;Node40</title>
<path fill="none" stroke="#191970" d="M2695.3451,-188.8163C2805.2344,-187.8417 3183.0757,-181.6987 3492,-143 3500.4727,-141.9386 3509.4007,-140.5011 3518.0841,-138.9273"/>
<polygon fill="#191970" stroke="#191970" points="3518.9465,-142.3265 3528.1234,-137.0317 3517.6476,-135.448 3518.9465,-142.3265"/>
</g>
<!-- Node41 -->
<g id="node38" class="node">
<title>Node41</title>
<polygon fill="#ffffff" stroke="#bfbfbf" points="3659.5,-118 3659.5,-137 3796.5,-137 3796.5,-118 3659.5,-118"/>
<text text-anchor="middle" x="3728" y="-125" font-family="Helvetica,sans-Serif" font-size="10.00" fill="#000000">deal.II/grid/grid_reordering.h</text>
</g>
<!-- Node25&#45;&gt;Node41 -->
<g id="edge60" class="edge">
<title>Node25&#45;&gt;Node41</title>
<path fill="none" stroke="#191970" d="M2695.455,-188.1668C2841.9913,-184.1878 3458.6311,-166.3452 3650,-143 3658.4713,-141.9666 3667.3992,-140.5285 3676.0693,-138.9415"/>
<polygon fill="#191970" stroke="#191970" points="3676.9217,-142.342 3686.0859,-137.0254 3675.6064,-135.4667 3676.9217,-142.342"/>
</g>
<!-- Node42 -->
<g id="node39" class="node">
<title>Node42</title>
<polygon fill="#ffffff" stroke="#bfbfbf" points="3815,-118 3815,-137 3913,-137 3913,-118 3815,-118"/>
<text text-anchor="middle" x="3864" y="-125" font-family="Helvetica,sans-Serif" font-size="10.00" fill="#000000">deal.II/lac/vector.h</text>
</g>
<!-- Node25&#45;&gt;Node42 -->
<g id="edge61" class="edge">
<title>Node25&#45;&gt;Node42</title>
<path fill="none" stroke="#191970" d="M2695.0131,-188.6765C2854.4338,-186.8727 3582.85,-176.8853 3806,-143 3811.6032,-142.1492 3817.4427,-140.9605 3823.1655,-139.6159"/>
<polygon fill="#191970" stroke="#191970" points="3824.425,-142.9078 3833.264,-137.0664 3822.7115,-136.1207 3824.425,-142.9078"/>
</g>
<!-- Node43 -->
<g id="node40" class="node">
<title>Node43</title>
<polygon fill="#ffffff" stroke="#bfbfbf" points="3931,-118 3931,-137 4047,-137 4047,-118 3931,-118"/>
<text text-anchor="middle" x="3989" y="-125" font-family="Helvetica,sans-Serif" font-size="10.00" fill="#000000">deal.II/lac/full_matrix.h</text>
</g>
<!-- Node25&#45;&gt;Node43 -->
<g id="edge62" class="edge">
<title>Node25&#45;&gt;Node43</title>
<path fill="none" stroke="#191970" d="M2695.027,-188.6684C2863.9251,-186.7413 3674.0723,-175.9044 3922,-143 3928.9181,-142.0818 3936.1701,-140.7749 3943.2428,-139.3045"/>
<polygon fill="#191970" stroke="#191970" points="3944.406,-142.6321 3953.417,-137.0596 3942.8977,-135.7965 3944.406,-142.6321"/>
</g>
<!-- Node44 -->
<g id="node41" class="node">
<title>Node44</title>
<polygon fill="#ffffff" stroke="#bfbfbf" points="4065,-112.5 4065,-142.5 4157,-142.5 4157,-112.5 4065,-112.5"/>
<text text-anchor="start" x="4073" y="-130.5" font-family="Helvetica,sans-Serif" font-size="10.00" fill="#000000">deal.II/lac/sparse</text>
<text text-anchor="middle" x="4111" y="-119.5" font-family="Helvetica,sans-Serif" font-size="10.00" fill="#000000">_matrix.h</text>
</g>
<!-- Node25&#45;&gt;Node44 -->
<g id="edge63" class="edge">
<title>Node25&#45;&gt;Node44</title>
<path fill="none" stroke="#191970" d="M2695.0662,-188.4238C2884.0308,-184.8602 3876.5995,-165.2881 4055.0611,-142.7309"/>
<polygon fill="#191970" stroke="#191970" points="4055.5468,-146.1971 4064.9652,-141.3449 4054.5766,-139.2647 4055.5468,-146.1971"/>
</g>
<!-- Node45 -->
<g id="node42" class="node">
<title>Node45</title>
<polygon fill="#ffffff" stroke="#bfbfbf" points="4175,-112.5 4175,-142.5 4275,-142.5 4275,-112.5 4175,-112.5"/>
<text text-anchor="start" x="4183" y="-130.5" font-family="Helvetica,sans-Serif" font-size="10.00" fill="#000000">deal.II/lac/dynamic</text>
<text text-anchor="middle" x="4225" y="-119.5" font-family="Helvetica,sans-Serif" font-size="10.00" fill="#000000">_sparsity_pattern.h</text>
</g>
<!-- Node25&#45;&gt;Node45 -->
<g id="edge64" class="edge">
<title>Node25&#45;&gt;Node45</title>
<path fill="none" stroke="#191970" d="M2695.199,-188.4688C2893.3004,-185.0409 3973.4917,-165.5126 4164.8219,-142.7996"/>
<polygon fill="#191970" stroke="#191970" points="4165.4861,-146.2426 4174.9468,-141.4733 4164.5769,-139.3019 4165.4861,-146.2426"/>
</g>
<!-- Node46 -->
<g id="node43" class="node">
<title>Node46</title>
<polygon fill="#ffffff" stroke="#bfbfbf" points="4293.5,-118 4293.5,-137 4406.5,-137 4406.5,-118 4293.5,-118"/>
<text text-anchor="middle" x="4350" y="-125" font-family="Helvetica,sans-Serif" font-size="10.00" fill="#000000">deal.II/lac/solver_cg.h</text>
</g>
<!-- Node25&#45;&gt;Node46 -->
<g id="edge65" class="edge">
<title>Node25&#45;&gt;Node46</title>
<path fill="none" stroke="#191970" d="M2695.2285,-188.4937C2906.3225,-185.0208 4121.0428,-164.2263 4284,-143 4290.9008,-142.1011 4298.1345,-140.7907 4305.1793,-139.3067"/>
<polygon fill="#191970" stroke="#191970" points="4306.3129,-142.6395 4315.3047,-137.0361 4304.7812,-135.8091 4306.3129,-142.6395"/>
</g>
<!-- Node47 -->
<g id="node44" class="node">
<title>Node47</title>
<polygon fill="#ffffff" stroke="#bfbfbf" points="4424.5,-118 4424.5,-137 4547.5,-137 4547.5,-118 4424.5,-118"/>
<text text-anchor="middle" x="4486" y="-125" font-family="Helvetica,sans-Serif" font-size="10.00" fill="#000000">deal.II/lac/precondition.h</text>
</g>
<!-- Node25&#45;&gt;Node47 -->
<g id="edge66" class="edge">
<title>Node25&#45;&gt;Node47</title>
<path fill="none" stroke="#191970" d="M2695.2504,-188.5408C2916.1846,-185.2466 4238.9485,-164.7227 4416,-143 4423.5594,-142.0725 4431.5041,-140.7029 4439.2182,-139.1556"/>
<polygon fill="#191970" stroke="#191970" points="4440.1195,-142.5423 4449.1743,-137.0412 4438.6653,-135.695 4440.1195,-142.5423"/>
</g>
<!-- Node48 -->
<g id="node45" class="node">
<title>Node48</title>
<polygon fill="#ffffff" stroke="#bfbfbf" points="4565.5,-112.5 4565.5,-142.5 4670.5,-142.5 4670.5,-112.5 4565.5,-112.5"/>
<text text-anchor="start" x="4573.5" y="-130.5" font-family="Helvetica,sans-Serif" font-size="10.00" fill="#000000">deal.II/lac/constraint</text>
<text text-anchor="middle" x="4618" y="-119.5" font-family="Helvetica,sans-Serif" font-size="10.00" fill="#000000">_matrix.h</text>
</g>
<!-- Node25&#45;&gt;Node48 -->
<g id="edge67" class="edge">
<title>Node25&#45;&gt;Node48</title>
<path fill="none" stroke="#191970" d="M2695.1503,-188.6652C2922.2522,-186.1696 4320.6672,-169.8568 4554.9739,-142.9655"/>
<polygon fill="#191970" stroke="#191970" points="4555.7558,-146.3949 4565.2421,-141.677 4554.8841,-139.4494 4555.7558,-146.3949"/>
</g>
<!-- Node49 -->
<g id="node46" class="node">
<title>Node49</title>
<polygon fill="#ffffff" stroke="#bfbfbf" points="4689,-112.5 4689,-142.5 4805,-142.5 4805,-112.5 4689,-112.5"/>
<text text-anchor="start" x="4697" y="-130.5" font-family="Helvetica,sans-Serif" font-size="10.00" fill="#000000">deal.II/numerics/vector</text>
<text text-anchor="middle" x="4747" y="-119.5" font-family="Helvetica,sans-Serif" font-size="10.00" fill="#000000">_tools.h</text>
</g>
<!-- Node25&#45;&gt;Node49 -->
<g id="edge68" class="edge">
<title>Node25&#45;&gt;Node49</title>
<path fill="none" stroke="#191970" d="M2695.2389,-188.6734C2931.1661,-186.1569 4430.2105,-169.2733 4678.4284,-142.9178"/>
<polygon fill="#191970" stroke="#191970" points="4679.1286,-146.3603 4688.661,-141.7361 4678.3255,-139.4065 4679.1286,-146.3603"/>
</g>
<!-- Node50 -->
<g id="node47" class="node">
<title>Node50</title>
<polygon fill="#ffffff" stroke="#bfbfbf" points="1134,-112.5 1134,-142.5 1242,-142.5 1242,-112.5 1134,-112.5"/>
<text text-anchor="start" x="1142" y="-130.5" font-family="Helvetica,sans-Serif" font-size="10.00" fill="#000000">deal.II/numerics/data</text>
<text text-anchor="middle" x="1188" y="-119.5" font-family="Helvetica,sans-Serif" font-size="10.00" fill="#000000">_out.h</text>
</g>
<!-- Node25&#45;&gt;Node50 -->
<g id="edge69" class="edge">
<title>Node25&#45;&gt;Node50</title>
<path fill="none" stroke="#191970" d="M2632.8043,-188.8533C2453.5515,-187.8803 1552.5065,-181.2018 1252.3169,-142.7799"/>
<polygon fill="#191970" stroke="#191970" points="1252.6952,-139.2995 1242.3227,-141.4584 1251.7775,-146.2391 1252.6952,-139.2995"/>
</g>
<!-- Node51 -->
<g id="node48" class="node">
<title>Node51</title>
<polygon fill="#ffffff" stroke="#bfbfbf" points="1260.5,-112.5 1260.5,-142.5 1369.5,-142.5 1369.5,-112.5 1260.5,-112.5"/>
<text text-anchor="start" x="1268.5" y="-130.5" font-family="Helvetica,sans-Serif" font-size="10.00" fill="#000000">deal.II/numerics/error</text>
<text text-anchor="middle" x="1315" y="-119.5" font-family="Helvetica,sans-Serif" font-size="10.00" fill="#000000">_estimator.h</text>
</g>
<!-- Node25&#45;&gt;Node51 -->
<g id="edge70" class="edge">
<title>Node25&#45;&gt;Node51</title>
<path fill="none" stroke="#191970" d="M2632.8645,-188.7378C2463.7317,-187.1859 1653.3037,-178.0857 1379.9496,-142.8804"/>
<polygon fill="#191970" stroke="#191970" points="1380.0488,-139.3627 1369.6737,-141.5094 1379.1229,-146.3012 1380.0488,-139.3627"/>
</g>
<!-- Node52 -->
<g id="node49" class="node">
<title>Node52</title>
<polygon fill="#ffffff" stroke="#bfbfbf" points="1388,-118 1388,-137 1438,-137 1438,-118 1388,-118"/>
<text text-anchor="middle" x="1413" y="-125" font-family="Helvetica,sans-Serif" font-size="10.00" fill="#000000">fstream</text>
</g>
<!-- Node25&#45;&gt;Node52 -->
<g id="edge71" class="edge">
<title>Node25&#45;&gt;Node52</title>
<path fill="none" stroke="#191970" d="M2632.8724,-188.5248C2454.5474,-185.7091 1566.414,-170.3956 1448,-143 1445.5073,-142.4233 1442.9727,-141.6695 1440.4653,-140.8049"/>
<polygon fill="#191970" stroke="#191970" points="1441.66,-137.5134 1431.0748,-137.0615 1439.0679,-144.0157 1441.66,-137.5134"/>
</g>
<!-- Node53 -->
<g id="node50" class="node">
<title>Node53</title>
<polygon fill="#ffffff" stroke="#bfbfbf" points="1456.5,-118 1456.5,-137 1539.5,-137 1539.5,-118 1456.5,-118"/>
<text text-anchor="middle" x="1498" y="-125" font-family="Helvetica,sans-Serif" font-size="10.00" fill="#000000">unordered_map</text>
</g>
<!-- Node25&#45;&gt;Node53 -->
<g id="edge74" class="edge">
<title>Node25&#45;&gt;Node53</title>
<path fill="none" stroke="#191970" d="M2632.923,-188.7816C2475.5898,-187.5143 1765.9144,-179.8199 1549,-143 1544.2329,-142.1908 1539.2873,-141.0663 1534.4345,-139.7888"/>
<polygon fill="#191970" stroke="#191970" points="1535.2678,-136.3868 1524.691,-137.0038 1533.344,-143.1173 1535.2678,-136.3868"/>
</g>
</g>
</svg>
