<?xml version="1.0" encoding="UTF-8" standalone="no"?>
<!DOCTYPE svg PUBLIC "-//W3C//DTD SVG 1.1//EN"
 "http://www.w3.org/Graphics/SVG/1.1/DTD/svg11.dtd">
<!-- Generated by graphviz version 2.40.1 (20161225.0304)
 -->
<!-- Title: /home/oleg/Dev/riversim/source/river/riversim.cpp Pages: 1 -->
<svg width="4711pt" height="330pt"
 viewBox="0.00 0.00 4710.50 330.00" xmlns="http://www.w3.org/2000/svg" xmlns:xlink="http://www.w3.org/1999/xlink">
<g id="graph0" class="graph" transform="scale(1 1) rotate(0) translate(4 326)">
<title>/home/oleg/Dev/riversim/source/river/riversim.cpp</title>
<polygon fill="#ffffff" stroke="transparent" points="-4,4 -4,-326 4706.5,-326 4706.5,4 -4,4"/>
<!-- Node0 -->
<g id="node1" class="node">
<title>Node0</title>
<polygon fill="#bfbfbf" stroke="#000000" points="393.5,-291.5 393.5,-321.5 520.5,-321.5 520.5,-291.5 393.5,-291.5"/>
<text text-anchor="start" x="401.5" y="-309.5" font-family="Helvetica,sans-Serif" font-size="10.00" fill="#000000">/home/oleg/Dev/riversim</text>
<text text-anchor="middle" x="457" y="-298.5" font-family="Helvetica,sans-Serif" font-size="10.00" fill="#000000">/source/river/riversim.cpp</text>
</g>
<!-- Node1 -->
<g id="node2" class="node">
<title>Node1</title>
<g id="a_node2"><a xlink:href="riversim_8hpp.html" target="_top" xlink:title="riversim.hpp">
<polygon fill="#ffffff" stroke="#000000" points="422,-235.5 422,-254.5 492,-254.5 492,-235.5 422,-235.5"/>
<text text-anchor="middle" x="457" y="-242.5" font-family="Helvetica,sans-Serif" font-size="10.00" fill="#000000">riversim.hpp</text>
</a>
</g>
</g>
<!-- Node0&#45;&gt;Node1 -->
<g id="edge1" class="edge">
<title>Node0&#45;&gt;Node1</title>
<path fill="none" stroke="#191970" d="M457,-291.2977C457,-283.3834 457,-273.6043 457,-265.0759"/>
<polygon fill="#191970" stroke="#191970" points="460.5001,-264.8469 457,-254.8469 453.5001,-264.847 460.5001,-264.8469"/>
</g>
<!-- Node2 -->
<g id="node3" class="node">
<title>Node2</title>
<g id="a_node3"><a xlink:href="utilities_8hpp.html" target="_top" xlink:title="utilities.hpp">
<polygon fill="#ffffff" stroke="#000000" points="65,-179.5 65,-198.5 131,-198.5 131,-179.5 65,-179.5"/>
<text text-anchor="middle" x="98" y="-186.5" font-family="Helvetica,sans-Serif" font-size="10.00" fill="#000000">utilities.hpp</text>
</a>
</g>
</g>
<!-- Node1&#45;&gt;Node2 -->
<g id="edge2" class="edge">
<title>Node1&#45;&gt;Node2</title>
<path fill="none" stroke="#191970" d="M421.9239,-239.5285C355.836,-229.2195 213.0721,-206.95 141.1967,-195.7382"/>
<polygon fill="#191970" stroke="#191970" points="141.5441,-192.2501 131.1241,-194.167 140.4652,-199.1665 141.5441,-192.2501"/>
</g>
<!-- Node5 -->
<g id="node6" class="node">
<title>Node5</title>
<g id="a_node6"><a xlink:href="geometry_8hpp.html" target="_top" xlink:title="geometry.hpp">
<polygon fill="#ffffff" stroke="#000000" points="964,-118 964,-137 1040,-137 1040,-118 964,-118"/>
<text text-anchor="middle" x="1002" y="-125" font-family="Helvetica,sans-Serif" font-size="10.00" fill="#000000">geometry.hpp</text>
</a>
</g>
</g>
<!-- Node1&#45;&gt;Node5 -->
<g id="edge5" class="edge">
<title>Node1&#45;&gt;Node5</title>
<path fill="none" stroke="#191970" d="M492.1096,-238.87C539.4446,-230.4877 626.298,-214.6921 700,-199 790.1684,-179.802 894.713,-154.3266 954.1374,-139.541"/>
<polygon fill="#191970" stroke="#191970" points="955.1299,-142.9008 963.9862,-137.0855 953.4365,-136.1087 955.1299,-142.9008"/>
</g>
<!-- Node15 -->
<g id="node14" class="node">
<title>Node15</title>
<g id="a_node14"><a xlink:href="geometrynew_8hpp.html" target="_top" xlink:title="Holds all functionality that you need to work with tree of river, its separate branches and generatio...">
<polygon fill="#ffffff" stroke="#000000" points="335,-179.5 335,-198.5 429,-198.5 429,-179.5 335,-179.5"/>
<text text-anchor="middle" x="382" y="-186.5" font-family="Helvetica,sans-Serif" font-size="10.00" fill="#000000">geometrynew.hpp</text>
</a>
</g>
</g>
<!-- Node1&#45;&gt;Node15 -->
<g id="edge21" class="edge">
<title>Node1&#45;&gt;Node15</title>
<path fill="none" stroke="#191970" d="M443.936,-235.2455C432.6438,-226.814 416.1155,-214.4729 402.9729,-204.6598"/>
<polygon fill="#191970" stroke="#191970" points="405.0211,-201.8211 394.9143,-198.6427 400.8331,-207.4301 405.0211,-201.8211"/>
</g>
<!-- Node17 -->
<g id="node16" class="node">
<title>Node17</title>
<g id="a_node16"><a xlink:href="physmodel_8hpp.html" target="_top" xlink:title="physmodel.hpp">
<polygon fill="#ffffff" stroke="#ff0000" points="202.5,-118 202.5,-137 285.5,-137 285.5,-118 202.5,-118"/>
<text text-anchor="middle" x="244" y="-125" font-family="Helvetica,sans-Serif" font-size="10.00" fill="#000000">physmodel.hpp</text>
</a>
</g>
</g>
<!-- Node1&#45;&gt;Node17 -->
<g id="edge80" class="edge">
<title>Node1&#45;&gt;Node17</title>
<path fill="none" stroke="#191970" d="M421.7884,-236.5534C394.4802,-229.0975 356.3064,-216.6512 326,-199 300.4263,-184.1052 275.4393,-160.6583 259.9011,-144.7079"/>
<polygon fill="#191970" stroke="#191970" points="262.1166,-141.9594 252.6838,-137.1352 257.0494,-146.7888 262.1166,-141.9594"/>
</g>
<!-- Node20 -->
<g id="node17" class="node">
<title>Node20</title>
<g id="a_node17"><a xlink:href="border_8hpp.html" target="_top" xlink:title="Generate some initial predefinide border geometry and its source positions. ">
<polygon fill="#ffffff" stroke="#000000" points="418,-118 418,-137 480,-137 480,-118 418,-118"/>
<text text-anchor="middle" x="449" y="-125" font-family="Helvetica,sans-Serif" font-size="10.00" fill="#000000">border.hpp</text>
</a>
</g>
</g>
<!-- Node1&#45;&gt;Node20 -->
<g id="edge81" class="edge">
<title>Node1&#45;&gt;Node20</title>
<path fill="none" stroke="#191970" d="M456.3453,-235.3845C455.0386,-216.1913 452.0833,-172.786 450.3458,-147.2663"/>
<polygon fill="#191970" stroke="#191970" points="453.835,-146.9875 449.6637,-137.2484 446.8512,-147.4631 453.835,-146.9875"/>
</g>
<!-- Node21 -->
<g id="node18" class="node">
<title>Node21</title>
<g id="a_node18"><a xlink:href="mesh_8hpp.html" target="_top" xlink:title="mesh.hpp">
<polygon fill="#ffffff" stroke="#000000" points="632.5,-179.5 632.5,-198.5 691.5,-198.5 691.5,-179.5 632.5,-179.5"/>
<text text-anchor="middle" x="662" y="-186.5" font-family="Helvetica,sans-Serif" font-size="10.00" fill="#000000">mesh.hpp</text>
</a>
</g>
</g>
<!-- Node1&#45;&gt;Node21 -->
<g id="edge37" class="edge">
<title>Node1&#45;&gt;Node21</title>
<path fill="none" stroke="#191970" d="M492.2408,-235.3733C528.3414,-225.5116 584.3714,-210.2059 622.0859,-199.9034"/>
<polygon fill="#191970" stroke="#191970" points="623.4816,-203.1504 632.2058,-197.1389 621.6369,-196.3978 623.4816,-203.1504"/>
</g>
<!-- Node26 -->
<g id="node23" class="node">
<title>Node26</title>
<g id="a_node23"><a xlink:href="solver_8hpp.html" target="_top" xlink:title="solver.hpp">
<polygon fill="#ffffff" stroke="#ff0000" points="2711,-179.5 2711,-198.5 2773,-198.5 2773,-179.5 2711,-179.5"/>
<text text-anchor="middle" x="2742" y="-186.5" font-family="Helvetica,sans-Serif" font-size="10.00" fill="#000000">solver.hpp</text>
</a>
</g>
</g>
<!-- Node1&#45;&gt;Node26 -->
<g id="edge45" class="edge">
<title>Node1&#45;&gt;Node26</title>
<path fill="none" stroke="#191970" d="M492.4333,-244.1316C756.5333,-237.6591 2415.5112,-197.0015 2700.3875,-190.0198"/>
<polygon fill="#191970" stroke="#191970" points="2700.7781,-193.5114 2710.6893,-189.7674 2700.6065,-186.5135 2700.7781,-193.5114"/>
</g>
<!-- Node3 -->
<g id="node4" class="node">
<title>Node3</title>
<polygon fill="#ffffff" stroke="#bfbfbf" points="374,-.5 374,-19.5 428,-19.5 428,-.5 374,-.5"/>
<text text-anchor="middle" x="401" y="-7.5" font-family="Helvetica,sans-Serif" font-size="10.00" fill="#000000">iostream</text>
</g>
<!-- Node2&#45;&gt;Node3 -->
<g id="edge3" class="edge">
<title>Node2&#45;&gt;Node3</title>
<path fill="none" stroke="#191970" d="M98.2172,-179.1433C99.3354,-154.256 105.9337,-88.5514 144,-56 176.4839,-28.2222 300.5803,-16.407 363.6822,-12.1107"/>
<polygon fill="#191970" stroke="#191970" points="364.2407,-15.5819 373.9919,-11.4389 363.7854,-8.5967 364.2407,-15.5819"/>
</g>
<!-- Node4 -->
<g id="node5" class="node">
<title>Node4</title>
<polygon fill="#ffffff" stroke="#bfbfbf" points="0,-118 0,-137 70,-137 70,-118 0,-118"/>
<text text-anchor="middle" x="35" y="-125" font-family="Helvetica,sans-Serif" font-size="10.00" fill="#000000">cxxopts.hpp</text>
</g>
<!-- Node2&#45;&gt;Node4 -->
<g id="edge4" class="edge">
<title>Node2&#45;&gt;Node4</title>
<path fill="none" stroke="#191970" d="M88.1563,-179.3906C78.5961,-170.0581 63.8777,-155.6902 52.3505,-144.4374"/>
<polygon fill="#191970" stroke="#191970" points="54.5832,-141.7257 44.9825,-137.2449 49.6934,-146.7348 54.5832,-141.7257"/>
</g>
<!-- Node5&#45;&gt;Node3 -->
<g id="edge10" class="edge">
<title>Node5&#45;&gt;Node3</title>
<path fill="none" stroke="#191970" d="M971.4411,-117.9346C943.0162,-108.6106 899.7885,-93.333 864,-76 848.5649,-68.5245 847.2579,-61.4595 831,-56 683.5969,-6.5014 637.5141,-37.4122 483,-20 468.4636,-18.3619 452.4932,-16.4416 438.5392,-14.7241"/>
<polygon fill="#191970" stroke="#191970" points="438.6731,-11.214 428.3187,-13.4582 437.8126,-18.1609 438.6731,-11.214"/>
</g>
<!-- Node6 -->
<g id="node7" class="node">
<title>Node6</title>
<polygon fill="#ffffff" stroke="#bfbfbf" points="1030,-56.5 1030,-75.5 1070,-75.5 1070,-56.5 1030,-56.5"/>
<text text-anchor="middle" x="1050" y="-63.5" font-family="Helvetica,sans-Serif" font-size="10.00" fill="#000000">utility</text>
</g>
<!-- Node5&#45;&gt;Node6 -->
<g id="edge6" class="edge">
<title>Node5&#45;&gt;Node6</title>
<path fill="none" stroke="#191970" d="M1009.5,-117.8906C1016.5738,-108.8273 1027.3542,-95.0149 1036.0146,-83.9188"/>
<polygon fill="#191970" stroke="#191970" points="1039.0006,-85.7815 1042.3943,-75.7449 1033.4824,-81.4746 1039.0006,-85.7815"/>
</g>
<!-- Node7 -->
<g id="node8" class="node">
<title>Node7</title>
<polygon fill="#ffffff" stroke="#bfbfbf" points="847.5,-.5 847.5,-19.5 888.5,-19.5 888.5,-.5 847.5,-.5"/>
<text text-anchor="middle" x="868" y="-7.5" font-family="Helvetica,sans-Serif" font-size="10.00" fill="#000000">string</text>
</g>
<!-- Node5&#45;&gt;Node7 -->
<g id="edge7" class="edge">
<title>Node5&#45;&gt;Node7</title>
<path fill="none" stroke="#191970" d="M995.1257,-117.931C984.419,-103.4395 962.6287,-75.5479 940,-56 926.188,-44.0684 909.0196,-32.9795 894.9123,-24.6797"/>
<polygon fill="#191970" stroke="#191970" points="896.5647,-21.5926 886.1499,-19.6475 893.0785,-27.6628 896.5647,-21.5926"/>
</g>
<!-- Node8 -->
<g id="node9" class="node">
<title>Node8</title>
<polygon fill="#ffffff" stroke="#bfbfbf" points="492,-.5 492,-19.5 536,-19.5 536,-.5 492,-.5"/>
<text text-anchor="middle" x="514" y="-7.5" font-family="Helvetica,sans-Serif" font-size="10.00" fill="#000000">vector</text>
</g>
<!-- Node5&#45;&gt;Node8 -->
<g id="edge8" class="edge">
<title>Node5&#45;&gt;Node8</title>
<path fill="none" stroke="#191970" d="M983.1749,-117.8682C963.0544,-107.5588 930.2335,-90.6996 902,-76 885.0717,-67.1864 882.1896,-61.7781 864,-56 805.1266,-37.2983 621.9479,-19.5265 546.7367,-12.8165"/>
<polygon fill="#191970" stroke="#191970" points="546.7203,-9.3015 536.4511,-11.908 546.1043,-16.2743 546.7203,-9.3015"/>
</g>
<!-- Node9 -->
<g id="node10" class="node">
<title>Node9</title>
<polygon fill="#ffffff" stroke="#bfbfbf" points="1032.5,-.5 1032.5,-19.5 1067.5,-19.5 1067.5,-.5 1032.5,-.5"/>
<text text-anchor="middle" x="1050" y="-7.5" font-family="Helvetica,sans-Serif" font-size="10.00" fill="#000000">map</text>
</g>
<!-- Node5&#45;&gt;Node9 -->
<g id="edge9" class="edge">
<title>Node5&#45;&gt;Node9</title>
<path fill="none" stroke="#191970" d="M1003.5865,-117.9402C1006.1209,-103.9317 1011.7608,-77.1928 1021,-56 1025.2214,-46.3169 1031.2926,-36.3108 1036.7902,-28.1137"/>
<polygon fill="#191970" stroke="#191970" points="1039.7787,-29.9469 1042.6243,-19.7414 1034.0355,-25.9449 1039.7787,-29.9469"/>
</g>
<!-- Node10 -->
<g id="node11" class="node">
<title>Node10</title>
<polygon fill="#ffffff" stroke="#bfbfbf" points="707.5,-.5 707.5,-19.5 754.5,-19.5 754.5,-.5 707.5,-.5"/>
<text text-anchor="middle" x="731" y="-7.5" font-family="Helvetica,sans-Serif" font-size="10.00" fill="#000000">math.h</text>
</g>
<!-- Node5&#45;&gt;Node10 -->
<g id="edge11" class="edge">
<title>Node5&#45;&gt;Node10</title>
<path fill="none" stroke="#191970" d="M991.4272,-117.9466C974.0217,-102.7028 937.6931,-72.8801 902,-56 856.9167,-34.679 800.3067,-21.9083 764.8807,-15.4129"/>
<polygon fill="#191970" stroke="#191970" points="765.0593,-11.8903 754.6027,-13.596 763.8407,-18.7834 765.0593,-11.8903"/>
</g>
<!-- Node11 -->
<g id="node12" class="node">
<title>Node11</title>
<g id="a_node12"><a xlink:href="common_8hpp.html" target="_top" xlink:title="common.hpp">
<polygon fill="#ffffff" stroke="#000000" points="412.5,-56.5 412.5,-75.5 485.5,-75.5 485.5,-56.5 412.5,-56.5"/>
<text text-anchor="middle" x="449" y="-63.5" font-family="Helvetica,sans-Serif" font-size="10.00" fill="#000000">common.hpp</text>
</a>
</g>
</g>
<!-- Node5&#45;&gt;Node11 -->
<g id="edge12" class="edge">
<title>Node5&#45;&gt;Node11</title>
<path fill="none" stroke="#191970" d="M963.9901,-123.2729C865.749,-112.3473 603.5904,-83.1922 496.0379,-71.2312"/>
<polygon fill="#191970" stroke="#191970" points="496.1452,-67.7216 485.8195,-70.0948 495.3714,-74.6787 496.1452,-67.7216"/>
</g>
<!-- Node12 -->
<g id="node13" class="node">
<title>Node12</title>
<g id="a_node13"><a xlink:href="tethex_8hpp.html" target="_top" xlink:title="tethex.hpp">
<polygon fill="#ffffff" stroke="#ff0000" points="760,-56.5 760,-75.5 822,-75.5 822,-56.5 760,-56.5"/>
<text text-anchor="middle" x="791" y="-63.5" font-family="Helvetica,sans-Serif" font-size="10.00" fill="#000000">tethex.hpp</text>
</a>
</g>
</g>
<!-- Node5&#45;&gt;Node12 -->
<g id="edge16" class="edge">
<title>Node5&#45;&gt;Node12</title>
<path fill="none" stroke="#191970" d="M970.1119,-117.9506C963.4682,-115.9735 956.5078,-113.9112 950,-112 909.9446,-100.2362 864.1461,-87.01 832.0225,-77.7697"/>
<polygon fill="#191970" stroke="#191970" points="832.6757,-74.3158 822.0979,-74.9166 830.7416,-81.0433 832.6757,-74.3158"/>
</g>
<!-- Node11&#45;&gt;Node3 -->
<g id="edge15" class="edge">
<title>Node11&#45;&gt;Node3</title>
<path fill="none" stroke="#191970" d="M440.639,-56.2455C433.825,-48.2958 424.0319,-36.8706 415.8848,-27.3656"/>
<polygon fill="#191970" stroke="#191970" points="418.4305,-24.9575 409.2651,-19.6427 413.1157,-29.513 418.4305,-24.9575"/>
</g>
<!-- Node11&#45;&gt;Node8 -->
<g id="edge13" class="edge">
<title>Node11&#45;&gt;Node8</title>
<path fill="none" stroke="#191970" d="M460.3221,-56.2455C469.9223,-47.9746 483.8892,-35.9416 495.1695,-26.2232"/>
<polygon fill="#191970" stroke="#191970" points="497.516,-28.8214 502.8076,-19.6427 492.947,-23.5182 497.516,-28.8214"/>
</g>
<!-- Node11&#45;&gt;Node10 -->
<g id="edge14" class="edge">
<title>Node11&#45;&gt;Node10</title>
<path fill="none" stroke="#191970" d="M485.5775,-58.7364C540.6247,-47.805 643.9807,-27.2804 697.2918,-16.6938"/>
<polygon fill="#191970" stroke="#191970" points="698.1309,-20.0956 707.2576,-14.7148 696.7674,-13.2297 698.1309,-20.0956"/>
</g>
<!-- Node12&#45;&gt;Node3 -->
<g id="edge17" class="edge">
<title>Node12&#45;&gt;Node3</title>
<path fill="none" stroke="#191970" d="M759.598,-58.6599C755.0483,-57.7019 750.4128,-56.783 746,-56 687.4004,-45.6022 514.7122,-23.97 438.2075,-14.5489"/>
<polygon fill="#191970" stroke="#191970" points="438.4249,-11.0494 428.0725,-13.3031 437.5708,-17.9971 438.4249,-11.0494"/>
</g>
<!-- Node12&#45;&gt;Node7 -->
<g id="edge19" class="edge">
<title>Node12&#45;&gt;Node7</title>
<path fill="none" stroke="#191970" d="M804.4124,-56.2455C816.0057,-47.814 832.9748,-35.4729 846.4678,-25.6598"/>
<polygon fill="#191970" stroke="#191970" points="848.7126,-28.355 854.7413,-19.6427 844.5953,-22.6938 848.7126,-28.355"/>
</g>
<!-- Node12&#45;&gt;Node8 -->
<g id="edge20" class="edge">
<title>Node12&#45;&gt;Node8</title>
<path fill="none" stroke="#191970" d="M759.5486,-58.9144C755.0062,-57.9191 750.3859,-56.922 746,-56 674.7597,-41.0239 590.9252,-24.7291 546.1066,-16.1246"/>
<polygon fill="#191970" stroke="#191970" points="546.5864,-12.653 536.1064,-14.2081 545.2688,-19.5279 546.5864,-12.653"/>
</g>
<!-- Node12&#45;&gt;Node9 -->
<g id="edge18" class="edge">
<title>Node12&#45;&gt;Node9</title>
<path fill="none" stroke="#191970" d="M822.2415,-59.2451C873.3826,-48.1876 974.1205,-26.4064 1022.6269,-15.9185"/>
<polygon fill="#191970" stroke="#191970" points="1023.3861,-19.3353 1032.4205,-13.801 1021.9067,-12.4934 1023.3861,-19.3353"/>
</g>
<!-- Node15&#45;&gt;Node3 -->
<g id="edge22" class="edge">
<title>Node15&#45;&gt;Node3</title>
<path fill="none" stroke="#191970" d="M334.9141,-186.0389C276.4077,-181.2639 181.6182,-169.5569 160,-143 135.5894,-113.0128 135.3545,-85.7945 160,-56 185.4083,-25.2833 302.4929,-14.893 363.615,-11.5263"/>
<polygon fill="#191970" stroke="#191970" points="363.8259,-15.0202 373.6325,-11.0099 363.4655,-8.0294 363.8259,-15.0202"/>
</g>
<!-- Node15&#45;&gt;Node8 -->
<g id="edge23" class="edge">
<title>Node15&#45;&gt;Node8</title>
<path fill="none" stroke="#191970" d="M334.7672,-184.1131C284.6461,-177.8379 210.3184,-165.0391 193,-143 184.4872,-132.1668 187.0316,-124.418 193,-112 210.259,-76.0906 226.7521,-72.5363 263,-56 282.67,-47.0265 418.2857,-24.9915 481.5864,-15.0321"/>
<polygon fill="#191970" stroke="#191970" points="482.4725,-18.436 491.81,-13.4297 481.3886,-11.5204 482.4725,-18.436"/>
</g>
<!-- Node15&#45;&gt;Node9 -->
<g id="edge24" class="edge">
<title>Node15&#45;&gt;Node9</title>
<path fill="none" stroke="#191970" d="M429.2055,-187.0725C577.1704,-180.8573 1023.6126,-160.7184 1049,-143 1082.5401,-119.5916 1090.3523,-95.2939 1079,-56 1076.1062,-45.9836 1070.3122,-36.0485 1064.6587,-27.9887"/>
<polygon fill="#191970" stroke="#191970" points="1067.3003,-25.6776 1058.4977,-19.7814 1061.7021,-29.88 1067.3003,-25.6776"/>
</g>
<!-- Node15&#45;&gt;Node11 -->
<g id="edge26" class="edge">
<title>Node15&#45;&gt;Node11</title>
<path fill="none" stroke="#191970" d="M384.1565,-179.2548C387.7735,-164.1296 395.973,-134.4131 409,-112 415.1258,-101.4605 423.8372,-91.0925 431.5673,-82.8755"/>
<polygon fill="#191970" stroke="#191970" points="434.0736,-85.3185 438.5614,-75.721 429.0681,-80.4251 434.0736,-85.3185"/>
</g>
<!-- Node15&#45;&gt;Node12 -->
<g id="edge27" class="edge">
<title>Node15&#45;&gt;Node12</title>
<path fill="none" stroke="#191970" d="M409.8528,-179.4663C432.0765,-171.2929 463.5848,-158.4134 489,-143 507.6365,-131.6977 507.1738,-121.0544 527,-112 565.9854,-94.1958 685.5988,-78.1924 749.591,-70.6198"/>
<polygon fill="#191970" stroke="#191970" points="750.2114,-74.0712 759.7377,-69.4346 749.3992,-67.1185 750.2114,-74.0712"/>
</g>
<!-- Node16 -->
<g id="node15" class="node">
<title>Node16</title>
<polygon fill="#ffffff" stroke="#bfbfbf" points="272,-56.5 272,-75.5 328,-75.5 328,-56.5 272,-56.5"/>
<text text-anchor="middle" x="300" y="-63.5" font-family="Helvetica,sans-Serif" font-size="10.00" fill="#000000">algorithm</text>
</g>
<!-- Node15&#45;&gt;Node16 -->
<g id="edge25" class="edge">
<title>Node15&#45;&gt;Node16</title>
<path fill="none" stroke="#191970" d="M370.885,-179.2061C361.3394,-170.3973 347.6341,-156.7606 338,-143 325.0951,-124.5678 314.1978,-101.1035 307.4268,-84.9485"/>
<polygon fill="#191970" stroke="#191970" points="310.6005,-83.4611 303.5936,-75.5142 304.1153,-86.0962 310.6005,-83.4611"/>
</g>
<!-- Node15&#45;&gt;Node17 -->
<g id="edge28" class="edge">
<title>Node15&#45;&gt;Node17</title>
<path fill="none" stroke="#191970" d="M360.4375,-179.3906C337.4488,-169.1457 300.844,-152.8326 274.8176,-141.2339"/>
<polygon fill="#191970" stroke="#191970" points="275.9698,-137.9156 265.4111,-137.0419 273.1204,-144.3095 275.9698,-137.9156"/>
</g>
<!-- Node15&#45;&gt;Node20 -->
<g id="edge31" class="edge">
<title>Node15&#45;&gt;Node20</title>
<path fill="none" stroke="#191970" d="M392.4688,-179.3906C402.7337,-169.9683 418.5903,-155.4134 430.9006,-144.1137"/>
<polygon fill="#191970" stroke="#191970" points="433.3834,-146.5856 438.3837,-137.2449 428.6499,-141.4287 433.3834,-146.5856"/>
</g>
<!-- Node17&#45;&gt;Node3 -->
<g id="edge29" class="edge">
<title>Node17&#45;&gt;Node3</title>
<path fill="none" stroke="#191970" d="M243.8226,-117.8007C244.0806,-102.6239 246.8151,-73.2211 263,-56 276.8918,-41.2188 327.6892,-26.875 363.6048,-18.2399"/>
<polygon fill="#191970" stroke="#191970" points="364.8216,-21.5494 373.7559,-15.8547 363.2204,-14.735 364.8216,-21.5494"/>
</g>
<!-- Node17&#45;&gt;Node11 -->
<g id="edge30" class="edge">
<title>Node17&#45;&gt;Node11</title>
<path fill="none" stroke="#191970" d="M276.0313,-117.8906C311.3846,-107.2846 368.4157,-90.1753 407.2478,-78.5257"/>
<polygon fill="#191970" stroke="#191970" points="408.6212,-81.7678 417.1937,-75.5419 406.6097,-75.0631 408.6212,-81.7678"/>
</g>
<!-- Node20&#45;&gt;Node7 -->
<g id="edge34" class="edge">
<title>Node20&#45;&gt;Node7</title>
<path fill="none" stroke="#191970" d="M469.7363,-117.9594C474.6835,-115.8546 479.9846,-113.7371 485,-112 613.4199,-67.5214 771.6554,-30.9614 837.263,-16.576"/>
<polygon fill="#191970" stroke="#191970" points="838.3115,-19.9298 847.3378,-14.3821 836.822,-13.09 838.3115,-19.9298"/>
</g>
<!-- Node20&#45;&gt;Node8 -->
<g id="edge32" class="edge">
<title>Node20&#45;&gt;Node8</title>
<path fill="none" stroke="#191970" d="M459.7359,-117.8502C469.8947,-108.1793 484.9043,-92.4074 494,-76 501.9819,-61.6017 507.1592,-43.6303 510.242,-30.0777"/>
<polygon fill="#191970" stroke="#191970" points="513.7474,-30.4111 512.3545,-19.9083 506.8937,-28.9874 513.7474,-30.4111"/>
</g>
<!-- Node20&#45;&gt;Node11 -->
<g id="edge36" class="edge">
<title>Node20&#45;&gt;Node11</title>
<path fill="none" stroke="#191970" d="M449,-117.8906C449,-109.3657 449,-96.6392 449,-85.9235"/>
<polygon fill="#191970" stroke="#191970" points="452.5001,-85.7448 449,-75.7449 445.5001,-85.7449 452.5001,-85.7448"/>
</g>
<!-- Node20&#45;&gt;Node12 -->
<g id="edge35" class="edge">
<title>Node20&#45;&gt;Node12</title>
<path fill="none" stroke="#191970" d="M474.4644,-117.8475C480.7826,-115.6979 487.5833,-113.5886 494,-112 583.8779,-89.749 691.8616,-76.2429 749.6632,-70.0497"/>
<polygon fill="#191970" stroke="#191970" points="750.2772,-73.5046 759.8563,-68.978 749.5451,-66.5429 750.2772,-73.5046"/>
</g>
<!-- Node20&#45;&gt;Node16 -->
<g id="edge33" class="edge">
<title>Node20&#45;&gt;Node16</title>
<path fill="none" stroke="#191970" d="M425.7188,-117.8906C400.679,-107.5554 360.6775,-91.0447 332.534,-79.4284"/>
<polygon fill="#191970" stroke="#191970" points="333.6967,-76.122 323.1178,-75.5419 331.026,-82.5925 333.6967,-76.122"/>
</g>
<!-- Node21&#45;&gt;Node3 -->
<g id="edge38" class="edge">
<title>Node21&#45;&gt;Node3</title>
<path fill="none" stroke="#191970" d="M632.1457,-187.949C571.8117,-185.1571 438.5801,-175.3872 409,-143 380.768,-112.0887 388.4545,-58.4137 395.3844,-29.6084"/>
<polygon fill="#191970" stroke="#191970" points="398.8675,-30.1242 398.0184,-19.5634 392.0964,-28.3487 398.8675,-30.1242"/>
</g>
<!-- Node21&#45;&gt;Node5 -->
<g id="edge44" class="edge">
<title>Node21&#45;&gt;Node5</title>
<path fill="none" stroke="#191970" d="M691.578,-183.6499C750.3248,-173.0236 882.1963,-149.1704 953.6975,-136.2371"/>
<polygon fill="#191970" stroke="#191970" points="954.5756,-139.6351 963.7929,-134.411 953.3296,-132.7469 954.5756,-139.6351"/>
</g>
<!-- Node21&#45;&gt;Node12 -->
<g id="edge43" class="edge">
<title>Node21&#45;&gt;Node12</title>
<path fill="none" stroke="#191970" d="M691.7612,-183.5106C729.0856,-175.9508 789.8057,-161.1832 803,-143 815.2391,-126.1331 808.4058,-101.6875 801.0203,-84.8893"/>
<polygon fill="#191970" stroke="#191970" points="804.0141,-83.0398 796.516,-75.5545 797.7096,-86.0819 804.0141,-83.0398"/>
</g>
<!-- Node22 -->
<g id="node19" class="node">
<title>Node22</title>
<polygon fill="#ffffff" stroke="#bfbfbf" points="536.5,-118 536.5,-137 587.5,-137 587.5,-118 536.5,-118"/>
<text text-anchor="middle" x="562" y="-125" font-family="Helvetica,sans-Serif" font-size="10.00" fill="#000000">numeric</text>
</g>
<!-- Node21&#45;&gt;Node22 -->
<g id="edge39" class="edge">
<title>Node21&#45;&gt;Node22</title>
<path fill="none" stroke="#191970" d="M646.375,-179.3906C630.2302,-169.4616 604.8178,-153.833 586.0977,-142.3201"/>
<polygon fill="#191970" stroke="#191970" points="587.8669,-139.2992 577.5153,-137.0419 584.1998,-145.2619 587.8669,-139.2992"/>
</g>
<!-- Node23 -->
<g id="node20" class="node">
<title>Node23</title>
<polygon fill="#ffffff" stroke="#bfbfbf" points="605.5,-118 605.5,-137 652.5,-137 652.5,-118 605.5,-118"/>
<text text-anchor="middle" x="629" y="-125" font-family="Helvetica,sans-Serif" font-size="10.00" fill="#000000">iterator</text>
</g>
<!-- Node21&#45;&gt;Node23 -->
<g id="edge40" class="edge">
<title>Node21&#45;&gt;Node23</title>
<path fill="none" stroke="#191970" d="M656.8438,-179.3906C652.0768,-170.5068 644.8615,-157.0601 638.9703,-146.0811"/>
<polygon fill="#191970" stroke="#191970" points="642.0412,-144.4016 634.2289,-137.2449 635.8731,-147.7114 642.0412,-144.4016"/>
</g>
<!-- Node24 -->
<g id="node21" class="node">
<title>Node24</title>
<polygon fill="#ffffff" stroke="#bfbfbf" points="670.5,-118 670.5,-137 719.5,-137 719.5,-118 670.5,-118"/>
<text text-anchor="middle" x="695" y="-125" font-family="Helvetica,sans-Serif" font-size="10.00" fill="#000000">gmsh.h</text>
</g>
<!-- Node21&#45;&gt;Node24 -->
<g id="edge41" class="edge">
<title>Node21&#45;&gt;Node24</title>
<path fill="none" stroke="#191970" d="M667.1563,-179.3906C671.9232,-170.5068 679.1385,-157.0601 685.0297,-146.0811"/>
<polygon fill="#191970" stroke="#191970" points="688.1269,-147.7114 689.7711,-137.2449 681.9588,-144.4016 688.1269,-147.7114"/>
</g>
<!-- Node25 -->
<g id="node22" class="node">
<title>Node25</title>
<polygon fill="#ffffff" stroke="#bfbfbf" points="738,-118 738,-137 794,-137 794,-118 738,-118"/>
<text text-anchor="middle" x="766" y="-125" font-family="Helvetica,sans-Serif" font-size="10.00" fill="#000000">triangle.h</text>
</g>
<!-- Node21&#45;&gt;Node25 -->
<g id="edge42" class="edge">
<title>Node21&#45;&gt;Node25</title>
<path fill="none" stroke="#191970" d="M678.25,-179.3906C695.1169,-169.4165 721.7099,-153.6908 741.2035,-142.1633"/>
<polygon fill="#191970" stroke="#191970" points="743.038,-145.1447 749.8641,-137.0419 739.4749,-139.1194 743.038,-145.1447"/>
</g>
<!-- Node26&#45;&gt;Node3 -->
<g id="edge73" class="edge">
<title>Node26&#45;&gt;Node3</title>
<path fill="none" stroke="#191970" d="M2710.7815,-188.6521C2476.641,-185.9884 1002.1347,-168.25 912,-143 885.3523,-135.535 883.7972,-122.0167 858,-112 708.2375,-53.8494 517.3516,-24.6938 438.0867,-14.4211"/>
<polygon fill="#191970" stroke="#191970" points="438.4608,-10.9405 428.0991,-13.1507 437.5775,-17.8846 438.4608,-10.9405"/>
</g>
<!-- Node26&#45;&gt;Node6 -->
<g id="edge76" class="edge">
<title>Node26&#45;&gt;Node6</title>
<path fill="none" stroke="#191970" d="M2773.183,-187.6483C2861.3004,-183.5116 3107.3112,-169.6551 3131,-143 3140.1525,-132.7015 3140.6341,-121.8494 3131,-112 3093.4961,-73.6579 1334.9291,-66.8676 1080.5418,-66.0855"/>
<polygon fill="#191970" stroke="#191970" points="1080.2148,-62.5846 1070.2044,-66.0545 1080.1938,-69.5845 1080.2148,-62.5846"/>
</g>
<!-- Node26&#45;&gt;Node7 -->
<g id="edge74" class="edge">
<title>Node26&#45;&gt;Node7</title>
<path fill="none" stroke="#191970" d="M2773.2366,-187.8093C2864.0414,-184.0301 3123.1039,-170.8761 3148,-143 3157.1776,-132.7239 3157.5293,-121.9508 3148,-112 3066.2709,-26.656 1140.9949,-26.3598 1023,-20 979.8849,-17.6761 930.0659,-14.3471 898.7965,-12.1795"/>
<polygon fill="#191970" stroke="#191970" points="898.7706,-8.6693 888.5512,-11.4648 898.2834,-15.6523 898.7706,-8.6693"/>
</g>
<!-- Node26&#45;&gt;Node9 -->
<g id="edge75" class="edge">
<title>Node26&#45;&gt;Node9</title>
<path fill="none" stroke="#191970" d="M2773.101,-188.2532C2871.8074,-185.5658 3173.2215,-174.7999 3202,-143 3227.9455,-114.3305 3229.0477,-83.6321 3202,-56 3163.0015,-16.159 1325.7358,-10.6223 1077.6163,-10.056"/>
<polygon fill="#191970" stroke="#191970" points="1077.623,-6.5561 1067.6153,-10.0339 1077.6075,-13.5561 1077.623,-6.5561"/>
</g>
<!-- Node26&#45;&gt;Node11 -->
<g id="edge77" class="edge">
<title>Node26&#45;&gt;Node11</title>
<path fill="none" stroke="#191970" d="M2710.6635,-188.8659C2481.6859,-187.8017 1070.0688,-179.7766 884,-143 846.1851,-135.5259 840.3731,-121.4382 803,-112 694.978,-84.72 564.101,-73.0698 495.7369,-68.5505"/>
<polygon fill="#191970" stroke="#191970" points="495.9173,-65.055 485.7143,-67.9097 495.4706,-72.0407 495.9173,-65.055"/>
</g>
<!-- Node26&#45;&gt;Node12 -->
<g id="edge78" class="edge">
<title>Node26&#45;&gt;Node12</title>
<path fill="none" stroke="#191970" d="M2710.7559,-188.7204C2479.5969,-186.587 1041.5242,-172.172 955,-143 932.675,-135.473 932.7434,-123.1701 912,-112 886.3481,-98.1867 855.647,-86.5672 831.5888,-78.4619"/>
<polygon fill="#191970" stroke="#191970" points="832.6467,-75.1255 822.0536,-75.3153 830.453,-81.7729 832.6467,-75.1255"/>
</g>
<!-- Node26&#45;&gt;Node17 -->
<g id="edge79" class="edge">
<title>Node26&#45;&gt;Node17</title>
<path fill="none" stroke="#191970" d="M2710.6319,-188.7013C2467.9551,-186.3425 886.5187,-170.0994 409,-143 371.0265,-140.845 328.2735,-136.7825 295.8027,-133.3572"/>
<polygon fill="#191970" stroke="#191970" points="295.956,-129.8537 285.6406,-132.2707 295.2118,-136.8141 295.956,-129.8537"/>
</g>
<!-- Node27 -->
<g id="node24" class="node">
<title>Node27</title>
<polygon fill="#ffffff" stroke="#bfbfbf" points="3254,-112.5 3254,-142.5 3370,-142.5 3370,-112.5 3254,-112.5"/>
<text text-anchor="start" x="3262" y="-130.5" font-family="Helvetica,sans-Serif" font-size="10.00" fill="#000000">deal.II/base/quadrature</text>
<text text-anchor="middle" x="3312" y="-119.5" font-family="Helvetica,sans-Serif" font-size="10.00" fill="#000000">_lib.h</text>
</g>
<!-- Node26&#45;&gt;Node27 -->
<g id="edge46" class="edge">
<title>Node26&#45;&gt;Node27</title>
<path fill="none" stroke="#191970" d="M2773.0447,-187.4299C2851.5974,-183.1762 3064.4893,-169.8985 3240,-143 3241.2797,-142.8039 3242.5708,-142.599 3243.8703,-142.3864"/>
<polygon fill="#191970" stroke="#191970" points="3244.7051,-145.7936 3253.9518,-140.6217 3243.4981,-138.8985 3244.7051,-145.7936"/>
</g>
<!-- Node28 -->
<g id="node25" class="node">
<title>Node28</title>
<polygon fill="#ffffff" stroke="#bfbfbf" points="3388.5,-118 3388.5,-137 3501.5,-137 3501.5,-118 3388.5,-118"/>
<text text-anchor="middle" x="3445" y="-125" font-family="Helvetica,sans-Serif" font-size="10.00" fill="#000000">deal.II/base/function.h</text>
</g>
<!-- Node26&#45;&gt;Node28 -->
<g id="edge47" class="edge">
<title>Node26&#45;&gt;Node28</title>
<path fill="none" stroke="#191970" d="M2773.0184,-188.4994C2865.6241,-186.6328 3147.9964,-178.2385 3379,-143 3385.4141,-142.0216 3392.1261,-140.7458 3398.7104,-139.3461"/>
<polygon fill="#191970" stroke="#191970" points="3399.8956,-142.6676 3408.8907,-137.0696 3398.3679,-135.8363 3399.8956,-142.6676"/>
</g>
<!-- Node29 -->
<g id="node26" class="node">
<title>Node29</title>
<polygon fill="#ffffff" stroke="#bfbfbf" points="3520,-112.5 3520,-142.5 3646,-142.5 3646,-112.5 3520,-112.5"/>
<text text-anchor="start" x="3528" y="-130.5" font-family="Helvetica,sans-Serif" font-size="10.00" fill="#000000">deal.II/base/convergence</text>
<text text-anchor="middle" x="3583" y="-119.5" font-family="Helvetica,sans-Serif" font-size="10.00" fill="#000000">_table.h</text>
</g>
<!-- Node26&#45;&gt;Node29 -->
<g id="edge48" class="edge">
<title>Node26&#45;&gt;Node29</title>
<path fill="none" stroke="#191970" d="M2773.4061,-187.7613C2896.3424,-182.8153 3345.7764,-163.8016 3509.949,-142.9679"/>
<polygon fill="#191970" stroke="#191970" points="3510.4243,-146.4356 3519.8802,-141.657 3509.5082,-139.4958 3510.4243,-146.4356"/>
</g>
<!-- Node30 -->
<g id="node27" class="node">
<title>Node30</title>
<polygon fill="#ffffff" stroke="#bfbfbf" points="3664.5,-118 3664.5,-137 3767.5,-137 3767.5,-118 3664.5,-118"/>
<text text-anchor="middle" x="3716" y="-125" font-family="Helvetica,sans-Serif" font-size="10.00" fill="#000000">deal.II/base/types.h</text>
</g>
<!-- Node26&#45;&gt;Node30 -->
<g id="edge49" class="edge">
<title>Node26&#45;&gt;Node30</title>
<path fill="none" stroke="#191970" d="M2773.4585,-188.2537C2913.3079,-184.8071 3479.4282,-169.4608 3655,-143 3660.9528,-142.1028 3667.1686,-140.874 3673.2585,-139.4977"/>
<polygon fill="#191970" stroke="#191970" points="3674.4172,-142.8188 3683.3199,-137.0749 3672.7784,-136.0133 3674.4172,-142.8188"/>
</g>
<!-- Node31 -->
<g id="node28" class="node">
<title>Node31</title>
<polygon fill="#ffffff" stroke="#bfbfbf" points="3785.5,-118 3785.5,-137 3912.5,-137 3912.5,-118 3785.5,-118"/>
<text text-anchor="middle" x="3849" y="-125" font-family="Helvetica,sans-Serif" font-size="10.00" fill="#000000">deal.II/dofs/dof_handler.h</text>
</g>
<!-- Node26&#45;&gt;Node31 -->
<g id="edge50" class="edge">
<title>Node26&#45;&gt;Node31</title>
<path fill="none" stroke="#191970" d="M2773.0046,-188.3237C2923.1196,-184.942 3575.4213,-168.9907 3777,-143 3784.5831,-142.0223 3792.552,-140.6556 3800.3127,-139.1351"/>
<polygon fill="#191970" stroke="#191970" points="3801.2575,-142.514 3810.3451,-137.0673 3799.8444,-135.6581 3801.2575,-142.514"/>
</g>
<!-- Node32 -->
<g id="node29" class="node">
<title>Node32</title>
<polygon fill="#ffffff" stroke="#bfbfbf" points="3931,-118 3931,-137 4047,-137 4047,-118 3931,-118"/>
<text text-anchor="middle" x="3989" y="-125" font-family="Helvetica,sans-Serif" font-size="10.00" fill="#000000">deal.II/dofs/dof_tools.h</text>
</g>
<!-- Node26&#45;&gt;Node32 -->
<g id="edge51" class="edge">
<title>Node26&#45;&gt;Node32</title>
<path fill="none" stroke="#191970" d="M2773.2147,-188.5793C2936.163,-186.2619 3690.4768,-174.0116 3922,-143 3928.917,-142.0735 3936.1684,-140.762 3943.2408,-139.2896"/>
<polygon fill="#191970" stroke="#191970" points="3944.4045,-142.617 3953.4148,-137.0434 3942.8954,-135.7816 3944.4045,-142.617"/>
</g>
<!-- Node33 -->
<g id="node30" class="node">
<title>Node33</title>
<polygon fill="#ffffff" stroke="#bfbfbf" points="4065.5,-118 4065.5,-137 4200.5,-137 4200.5,-118 4065.5,-118"/>
<text text-anchor="middle" x="4133" y="-125" font-family="Helvetica,sans-Serif" font-size="10.00" fill="#000000">deal.II/dofs/dof_accessor.h</text>
</g>
<!-- Node26&#45;&gt;Node33 -->
<g id="edge52" class="edge">
<title>Node26&#45;&gt;Node33</title>
<path fill="none" stroke="#191970" d="M2773.2461,-188.6009C2947.0255,-186.2761 3795.9931,-173.5126 4056,-143 4064.4688,-142.0062 4073.3945,-140.573 4082.0486,-138.9745"/>
<polygon fill="#191970" stroke="#191970" points="4082.888,-142.3771 4092.0394,-137.0385 4081.5562,-135.5049 4082.888,-142.3771"/>
</g>
<!-- Node34 -->
<g id="node31" class="node">
<title>Node34</title>
<polygon fill="#ffffff" stroke="#bfbfbf" points="4218.5,-118 4218.5,-137 4367.5,-137 4367.5,-118 4218.5,-118"/>
<text text-anchor="middle" x="4293" y="-125" font-family="Helvetica,sans-Serif" font-size="10.00" fill="#000000">deal.II/dofs/dof_renumbering.h</text>
</g>
<!-- Node26&#45;&gt;Node34 -->
<g id="edge53" class="edge">
<title>Node26&#45;&gt;Node34</title>
<path fill="none" stroke="#191970" d="M2773.189,-188.6743C2958.5709,-186.6401 3917.3644,-174.72 4210,-143 4219.4101,-141.98 4229.3536,-140.4884 4238.9628,-138.8281"/>
<polygon fill="#191970" stroke="#191970" points="4239.5997,-142.2698 4248.8191,-137.0495 4238.3565,-135.3811 4239.5997,-142.2698"/>
</g>
<!-- Node35 -->
<g id="node32" class="node">
<title>Node35</title>
<polygon fill="#ffffff" stroke="#bfbfbf" points="4385.5,-118 4385.5,-137 4470.5,-137 4470.5,-118 4385.5,-118"/>
<text text-anchor="middle" x="4428" y="-125" font-family="Helvetica,sans-Serif" font-size="10.00" fill="#000000">deal.II/fe/fe_q.h</text>
</g>
<!-- Node26&#45;&gt;Node35 -->
<g id="edge54" class="edge">
<title>Node26&#45;&gt;Node35</title>
<path fill="none" stroke="#191970" d="M2773.1941,-188.623C2985.3883,-185.9923 4213.2188,-169.698 4377,-143 4381.7723,-142.2221 4386.721,-141.116 4391.5754,-139.8482"/>
<polygon fill="#191970" stroke="#191970" points="4392.6621,-143.1779 4401.3203,-137.0718 4390.744,-136.4458 4392.6621,-143.1779"/>
</g>
<!-- Node36 -->
<g id="node33" class="node">
<title>Node36</title>
<polygon fill="#ffffff" stroke="#bfbfbf" points="4489,-118 4489,-137 4597,-137 4597,-118 4489,-118"/>
<text text-anchor="middle" x="4543" y="-125" font-family="Helvetica,sans-Serif" font-size="10.00" fill="#000000">deal.II/fe/fe_values.h</text>
</g>
<!-- Node26&#45;&gt;Node36 -->
<g id="edge55" class="edge">
<title>Node26&#45;&gt;Node36</title>
<path fill="none" stroke="#191970" d="M2773.0063,-188.5808C2992.2139,-185.5645 4304.6281,-166.6149 4480,-143 4486.4466,-142.1319 4493.1907,-140.8667 4499.7699,-139.4277"/>
<polygon fill="#191970" stroke="#191970" points="4500.9674,-142.7422 4509.9067,-137.0555 4499.3723,-135.9263 4500.9674,-142.7422"/>
</g>
<!-- Node37 -->
<g id="node34" class="node">
<title>Node37</title>
<polygon fill="#ffffff" stroke="#bfbfbf" points="4615.5,-118 4615.5,-137 4702.5,-137 4702.5,-118 4615.5,-118"/>
<text text-anchor="middle" x="4659" y="-125" font-family="Helvetica,sans-Serif" font-size="10.00" fill="#000000">deal.II/grid/tria.h</text>
</g>
<!-- Node26&#45;&gt;Node37 -->
<g id="edge56" class="edge">
<title>Node26&#45;&gt;Node37</title>
<path fill="none" stroke="#191970" d="M2773.0458,-188.7201C3001.4311,-186.5974 4417.8888,-172.3151 4606,-143 4611.1373,-142.1994 4616.4767,-141.0424 4621.7019,-139.7158"/>
<polygon fill="#191970" stroke="#191970" points="4622.8175,-143.0389 4631.5263,-137.0051 4620.9556,-136.291 4622.8175,-143.0389"/>
</g>
<!-- Node38 -->
<g id="node35" class="node">
<title>Node38</title>
<polygon fill="#ffffff" stroke="#bfbfbf" points="1096.5,-118 1096.5,-137 1231.5,-137 1231.5,-118 1096.5,-118"/>
<text text-anchor="middle" x="1164" y="-125" font-family="Helvetica,sans-Serif" font-size="10.00" fill="#000000">deal.II/grid/grid_generator.h</text>
</g>
<!-- Node26&#45;&gt;Node38 -->
<g id="edge57" class="edge">
<title>Node26&#45;&gt;Node38</title>
<path fill="none" stroke="#191970" d="M2710.7164,-188.7576C2522.64,-187.1924 1540.3084,-177.4639 1241,-143 1232.5291,-142.0246 1223.6023,-140.6009 1214.9477,-139.0062"/>
<polygon fill="#191970" stroke="#191970" points="1215.4396,-135.5365 1204.9567,-137.072 1214.1092,-142.4089 1215.4396,-135.5365"/>
</g>
<!-- Node39 -->
<g id="node36" class="node">
<title>Node39</title>
<polygon fill="#ffffff" stroke="#bfbfbf" points="1250,-118 1250,-137 1352,-137 1352,-118 1250,-118"/>
<text text-anchor="middle" x="1301" y="-125" font-family="Helvetica,sans-Serif" font-size="10.00" fill="#000000">deal.II/grid/grid_in.h</text>
</g>
<!-- Node26&#45;&gt;Node39 -->
<g id="edge58" class="edge">
<title>Node26&#45;&gt;Node39</title>
<path fill="none" stroke="#191970" d="M2710.9002,-188.8912C2532.169,-188.1259 1634.2039,-182.351 1361,-143 1354.9968,-142.1353 1348.7279,-140.8998 1342.6014,-139.4987"/>
<polygon fill="#191970" stroke="#191970" points="1343.0435,-136.0035 1332.4976,-137.0207 1341.3761,-142.802 1343.0435,-136.0035"/>
</g>
<!-- Node40 -->
<g id="node37" class="node">
<title>Node40</title>
<polygon fill="#ffffff" stroke="#bfbfbf" points="1370,-118 1370,-137 1478,-137 1478,-118 1370,-118"/>
<text text-anchor="middle" x="1424" y="-125" font-family="Helvetica,sans-Serif" font-size="10.00" fill="#000000">deal.II/grid/grid_out.h</text>
</g>
<!-- Node26&#45;&gt;Node40 -->
<g id="edge59" class="edge">
<title>Node26&#45;&gt;Node40</title>
<path fill="none" stroke="#191970" d="M2710.7624,-188.7213C2541.6191,-187.0806 1733.9668,-177.5357 1487,-143 1480.6311,-142.1094 1473.9695,-140.8451 1467.4625,-139.418"/>
<polygon fill="#191970" stroke="#191970" points="1467.963,-135.9407 1457.4287,-137.0719 1466.3692,-142.7569 1467.963,-135.9407"/>
</g>
<!-- Node41 -->
<g id="node38" class="node">
<title>Node41</title>
<polygon fill="#ffffff" stroke="#bfbfbf" points="1496,-118 1496,-137 1636,-137 1636,-118 1496,-118"/>
<text text-anchor="middle" x="1566" y="-125" font-family="Helvetica,sans-Serif" font-size="10.00" fill="#000000">deal.II/grid/grid_refinement.h</text>
</g>
<!-- Node26&#45;&gt;Node41 -->
<g id="edge60" class="edge">
<title>Node26&#45;&gt;Node41</title>
<path fill="none" stroke="#191970" d="M2710.7441,-188.32C2554.8601,-184.8319 1860.4497,-168.1324 1646,-143 1637.2203,-141.9711 1627.9605,-140.521 1618.978,-138.9167"/>
<polygon fill="#191970" stroke="#191970" points="1619.4671,-135.4476 1608.9947,-137.0541 1618.1831,-142.3289 1619.4671,-135.4476"/>
</g>
<!-- Node42 -->
<g id="node39" class="node">
<title>Node42</title>
<polygon fill="#ffffff" stroke="#bfbfbf" points="1654.5,-118 1654.5,-137 1791.5,-137 1791.5,-118 1654.5,-118"/>
<text text-anchor="middle" x="1723" y="-125" font-family="Helvetica,sans-Serif" font-size="10.00" fill="#000000">deal.II/grid/grid_reordering.h</text>
</g>
<!-- Node26&#45;&gt;Node42 -->
<g id="edge61" class="edge">
<title>Node26&#45;&gt;Node42</title>
<path fill="none" stroke="#191970" d="M2710.5669,-188.087C2568.2119,-183.8563 1983.0208,-165.4105 1801,-143 1792.5298,-141.9572 1783.6026,-140.5142 1774.9327,-138.9253"/>
<polygon fill="#191970" stroke="#191970" points="1775.3959,-135.4505 1764.9162,-137.0081 1774.0799,-142.3257 1775.3959,-135.4505"/>
</g>
<!-- Node43 -->
<g id="node40" class="node">
<title>Node43</title>
<polygon fill="#ffffff" stroke="#bfbfbf" points="1810,-118 1810,-137 1908,-137 1908,-118 1810,-118"/>
<text text-anchor="middle" x="1859" y="-125" font-family="Helvetica,sans-Serif" font-size="10.00" fill="#000000">deal.II/lac/vector.h</text>
</g>
<!-- Node26&#45;&gt;Node43 -->
<g id="edge62" class="edge">
<title>Node26&#45;&gt;Node43</title>
<path fill="none" stroke="#191970" d="M2710.9715,-188.1236C2580.3156,-184.3015 2074.4145,-168.1482 1917,-143 1911.4679,-142.1162 1905.702,-140.9202 1900.0443,-139.5821"/>
<polygon fill="#191970" stroke="#191970" points="1900.6041,-136.1136 1890.0514,-137.0568 1898.889,-142.9003 1900.6041,-136.1136"/>
</g>
<!-- Node44 -->
<g id="node41" class="node">
<title>Node44</title>
<polygon fill="#ffffff" stroke="#bfbfbf" points="1926,-118 1926,-137 2042,-137 2042,-118 1926,-118"/>
<text text-anchor="middle" x="1984" y="-125" font-family="Helvetica,sans-Serif" font-size="10.00" fill="#000000">deal.II/lac/full_matrix.h</text>
</g>
<!-- Node26&#45;&gt;Node44 -->
<g id="edge63" class="edge">
<title>Node26&#45;&gt;Node44</title>
<path fill="none" stroke="#191970" d="M2710.818,-188.7063C2613.0111,-187.4051 2303.7384,-180.3987 2051,-143 2044.2551,-142.0019 2037.1852,-140.6778 2030.2709,-139.2227"/>
<polygon fill="#191970" stroke="#191970" points="2030.828,-135.7614 2020.3082,-137.0199 2029.3168,-142.5964 2030.828,-135.7614"/>
</g>
<!-- Node45 -->
<g id="node42" class="node">
<title>Node45</title>
<polygon fill="#ffffff" stroke="#bfbfbf" points="2060,-112.5 2060,-142.5 2152,-142.5 2152,-112.5 2060,-112.5"/>
<text text-anchor="start" x="2068" y="-130.5" font-family="Helvetica,sans-Serif" font-size="10.00" fill="#000000">deal.II/lac/sparse</text>
<text text-anchor="middle" x="2106" y="-119.5" font-family="Helvetica,sans-Serif" font-size="10.00" fill="#000000">_matrix.h</text>
</g>
<!-- Node26&#45;&gt;Node45 -->
<g id="edge64" class="edge">
<title>Node26&#45;&gt;Node45</title>
<path fill="none" stroke="#191970" d="M2710.8649,-188.6701C2624.7877,-187.3077 2376.3524,-180.3316 2161.9232,-142.9331"/>
<polygon fill="#191970" stroke="#191970" points="2162.5182,-139.4841 2152.0611,-141.1871 2161.2978,-146.3769 2162.5182,-139.4841"/>
</g>
<!-- Node46 -->
<g id="node43" class="node">
<title>Node46</title>
<polygon fill="#ffffff" stroke="#bfbfbf" points="2170,-112.5 2170,-142.5 2270,-142.5 2270,-112.5 2170,-112.5"/>
<text text-anchor="start" x="2178" y="-130.5" font-family="Helvetica,sans-Serif" font-size="10.00" fill="#000000">deal.II/lac/dynamic</text>
<text text-anchor="middle" x="2220" y="-119.5" font-family="Helvetica,sans-Serif" font-size="10.00" fill="#000000">_sparsity_pattern.h</text>
</g>
<!-- Node26&#45;&gt;Node46 -->
<g id="edge65" class="edge">
<title>Node26&#45;&gt;Node46</title>
<path fill="none" stroke="#191970" d="M2710.9566,-187.5577C2637.704,-183.8041 2448.2951,-172.0545 2280.3042,-142.8556"/>
<polygon fill="#191970" stroke="#191970" points="2280.7474,-139.3799 2270.2915,-141.0898 2279.5316,-146.2735 2280.7474,-139.3799"/>
</g>
<!-- Node47 -->
<g id="node44" class="node">
<title>Node47</title>
<polygon fill="#ffffff" stroke="#bfbfbf" points="2288.5,-118 2288.5,-137 2401.5,-137 2401.5,-118 2288.5,-118"/>
<text text-anchor="middle" x="2345" y="-125" font-family="Helvetica,sans-Serif" font-size="10.00" fill="#000000">deal.II/lac/solver_cg.h</text>
</g>
<!-- Node26&#45;&gt;Node47 -->
<g id="edge66" class="edge">
<title>Node26&#45;&gt;Node47</title>
<path fill="none" stroke="#191970" d="M2710.8136,-185.6417C2651.9403,-179.0862 2520.5056,-163.4224 2411,-143 2405.1442,-141.9079 2399.0243,-140.6418 2392.9735,-139.3133"/>
<polygon fill="#191970" stroke="#191970" points="2393.4404,-135.8305 2382.9146,-137.038 2391.896,-142.658 2393.4404,-135.8305"/>
</g>
<!-- Node48 -->
<g id="node45" class="node">
<title>Node48</title>
<polygon fill="#ffffff" stroke="#bfbfbf" points="2419.5,-118 2419.5,-137 2542.5,-137 2542.5,-118 2419.5,-118"/>
<text text-anchor="middle" x="2481" y="-125" font-family="Helvetica,sans-Serif" font-size="10.00" fill="#000000">deal.II/lac/precondition.h</text>
</g>
<!-- Node26&#45;&gt;Node48 -->
<g id="edge67" class="edge">
<title>Node26&#45;&gt;Node48</title>
<path fill="none" stroke="#191970" d="M2710.7765,-181.6427C2666.4132,-171.1893 2584.6425,-151.9215 2531.5658,-139.4149"/>
<polygon fill="#191970" stroke="#191970" points="2532.215,-135.9721 2521.6788,-137.0852 2530.6095,-142.7855 2532.215,-135.9721"/>
</g>
<!-- Node49 -->
<g id="node46" class="node">
<title>Node49</title>
<polygon fill="#ffffff" stroke="#bfbfbf" points="2560.5,-112.5 2560.5,-142.5 2665.5,-142.5 2665.5,-112.5 2560.5,-112.5"/>
<text text-anchor="start" x="2568.5" y="-130.5" font-family="Helvetica,sans-Serif" font-size="10.00" fill="#000000">deal.II/lac/constraint</text>
<text text-anchor="middle" x="2613" y="-119.5" font-family="Helvetica,sans-Serif" font-size="10.00" fill="#000000">_matrix.h</text>
</g>
<!-- Node26&#45;&gt;Node49 -->
<g id="edge68" class="edge">
<title>Node26&#45;&gt;Node49</title>
<path fill="none" stroke="#191970" d="M2721.8438,-179.3906C2703.6577,-170.7205 2676.3559,-157.7046 2653.6463,-146.8779"/>
<polygon fill="#191970" stroke="#191970" points="2655.0898,-143.6887 2644.557,-142.5446 2652.0774,-150.0074 2655.0898,-143.6887"/>
</g>
<!-- Node50 -->
<g id="node47" class="node">
<title>Node50</title>
<polygon fill="#ffffff" stroke="#bfbfbf" points="2684,-112.5 2684,-142.5 2800,-142.5 2800,-112.5 2684,-112.5"/>
<text text-anchor="start" x="2692" y="-130.5" font-family="Helvetica,sans-Serif" font-size="10.00" fill="#000000">deal.II/numerics/vector</text>
<text text-anchor="middle" x="2742" y="-119.5" font-family="Helvetica,sans-Serif" font-size="10.00" fill="#000000">_tools.h</text>
</g>
<!-- Node26&#45;&gt;Node50 -->
<g id="edge69" class="edge">
<title>Node26&#45;&gt;Node50</title>
<path fill="none" stroke="#191970" d="M2742,-179.3906C2742,-172.2234 2742,-162.0862 2742,-152.671"/>
<polygon fill="#191970" stroke="#191970" points="2745.5001,-152.5446 2742,-142.5446 2738.5001,-152.5446 2745.5001,-152.5446"/>
</g>
<!-- Node51 -->
<g id="node48" class="node">
<title>Node51</title>
<polygon fill="#ffffff" stroke="#bfbfbf" points="2818,-112.5 2818,-142.5 2926,-142.5 2926,-112.5 2818,-112.5"/>
<text text-anchor="start" x="2826" y="-130.5" font-family="Helvetica,sans-Serif" font-size="10.00" fill="#000000">deal.II/numerics/data</text>
<text text-anchor="middle" x="2872" y="-119.5" font-family="Helvetica,sans-Serif" font-size="10.00" fill="#000000">_out.h</text>
</g>
<!-- Node26&#45;&gt;Node51 -->
<g id="edge70" class="edge">
<title>Node26&#45;&gt;Node51</title>
<path fill="none" stroke="#191970" d="M2762.3125,-179.3906C2780.6395,-170.7205 2808.1529,-157.7046 2831.0387,-146.8779"/>
<polygon fill="#191970" stroke="#191970" points="2832.6557,-149.9849 2840.1984,-142.5446 2829.6622,-143.6572 2832.6557,-149.9849"/>
</g>
<!-- Node52 -->
<g id="node49" class="node">
<title>Node52</title>
<polygon fill="#ffffff" stroke="#bfbfbf" points="2944.5,-112.5 2944.5,-142.5 3053.5,-142.5 3053.5,-112.5 2944.5,-112.5"/>
<text text-anchor="start" x="2952.5" y="-130.5" font-family="Helvetica,sans-Serif" font-size="10.00" fill="#000000">deal.II/numerics/error</text>
<text text-anchor="middle" x="2999" y="-119.5" font-family="Helvetica,sans-Serif" font-size="10.00" fill="#000000">_estimator.h</text>
</g>
<!-- Node26&#45;&gt;Node52 -->
<g id="edge71" class="edge">
<title>Node26&#45;&gt;Node52</title>
<path fill="none" stroke="#191970" d="M2773.0954,-181.6254C2809.3083,-173.029 2871.1999,-158.3123 2934.0918,-143.2137"/>
<polygon fill="#191970" stroke="#191970" points="2935.2844,-146.5269 2944.1904,-140.7881 2933.6495,-139.7205 2935.2844,-146.5269"/>
</g>
<!-- Node53 -->
<g id="node50" class="node">
<title>Node53</title>
<polygon fill="#ffffff" stroke="#bfbfbf" points="3072,-118 3072,-137 3122,-137 3122,-118 3072,-118"/>
<text text-anchor="middle" x="3097" y="-125" font-family="Helvetica,sans-Serif" font-size="10.00" fill="#000000">fstream</text>
</g>
<!-- Node26&#45;&gt;Node53 -->
<g id="edge72" class="edge">
<title>Node26&#45;&gt;Node53</title>
<path fill="none" stroke="#191970" d="M2773.1601,-187.4845C2831.2418,-184.0166 2959.5384,-173.3155 3063,-143 3064.961,-142.4254 3066.9542,-141.7575 3068.942,-141.028"/>
<polygon fill="#191970" stroke="#191970" points="3070.755,-144.0661 3078.6615,-137.0136 3068.0827,-137.5962 3070.755,-144.0661"/>
</g>
</g>
</svg>
