<?xml version="1.0" encoding="UTF-8" standalone="no"?>
<!DOCTYPE svg PUBLIC "-//W3C//DTD SVG 1.1//EN"
 "http://www.w3.org/Graphics/SVG/1.1/DTD/svg11.dtd">
<!-- Generated by graphviz version 2.40.1 (20161225.0304)
 -->
<!-- Title: /home/oleg/Dev/riversim/source/river/solver.cpp Pages: 1 -->
<svg width="4084pt" height="274pt"
 viewBox="0.00 0.00 4084.00 274.00" xmlns="http://www.w3.org/2000/svg" xmlns:xlink="http://www.w3.org/1999/xlink">
<g id="graph0" class="graph" transform="scale(1 1) rotate(0) translate(4 270)">
<title>/home/oleg/Dev/riversim/source/river/solver.cpp</title>
<polygon fill="#ffffff" stroke="transparent" points="-4,4 -4,-270 4080,-270 4080,4 -4,4"/>
<!-- Node0 -->
<g id="node1" class="node">
<title>Node0</title>
<polygon fill="#bfbfbf" stroke="#000000" points="2292.5,-235.5 2292.5,-265.5 2415.5,-265.5 2415.5,-235.5 2292.5,-235.5"/>
<text text-anchor="start" x="2300.5" y="-253.5" font-family="Helvetica,sans-Serif" font-size="10.00" fill="#000000">/home/oleg/Dev/riversim</text>
<text text-anchor="middle" x="2354" y="-242.5" font-family="Helvetica,sans-Serif" font-size="10.00" fill="#000000">/source/river/solver.cpp</text>
</g>
<!-- Node1 -->
<g id="node2" class="node">
<title>Node1</title>
<g id="a_node2"><a xlink:href="solver_8hpp.html" target="_top" xlink:title="solver.hpp">
<polygon fill="#ffffff" stroke="#000000" points="2323,-179.5 2323,-198.5 2385,-198.5 2385,-179.5 2323,-179.5"/>
<text text-anchor="middle" x="2354" y="-186.5" font-family="Helvetica,sans-Serif" font-size="10.00" fill="#000000">solver.hpp</text>
</a>
</g>
</g>
<!-- Node0&#45;&gt;Node1 -->
<g id="edge1" class="edge">
<title>Node0&#45;&gt;Node1</title>
<path fill="none" stroke="#191970" d="M2354,-235.2977C2354,-227.3834 2354,-217.6043 2354,-209.0759"/>
<polygon fill="#191970" stroke="#191970" points="2357.5001,-208.8469 2354,-198.8469 2350.5001,-208.847 2357.5001,-208.8469"/>
</g>
<!-- Node2 -->
<g id="node3" class="node">
<title>Node2</title>
<polygon fill="#ffffff" stroke="#bfbfbf" points="0,-112.5 0,-142.5 116,-142.5 116,-112.5 0,-112.5"/>
<text text-anchor="start" x="8" y="-130.5" font-family="Helvetica,sans-Serif" font-size="10.00" fill="#000000">deal.II/base/quadrature</text>
<text text-anchor="middle" x="58" y="-119.5" font-family="Helvetica,sans-Serif" font-size="10.00" fill="#000000">_lib.h</text>
</g>
<!-- Node1&#45;&gt;Node2 -->
<g id="edge2" class="edge">
<title>Node1&#45;&gt;Node2</title>
<path fill="none" stroke="#191970" d="M2322.9605,-188.5428C2067.4873,-184.7577 316.689,-158.3873 126.5714,-142.7574"/>
<polygon fill="#191970" stroke="#191970" points="126.6344,-139.2466 116.338,-141.7437 125.9443,-146.2125 126.6344,-139.2466"/>
</g>
<!-- Node3 -->
<g id="node4" class="node">
<title>Node3</title>
<polygon fill="#ffffff" stroke="#bfbfbf" points="134.5,-118 134.5,-137 247.5,-137 247.5,-118 134.5,-118"/>
<text text-anchor="middle" x="191" y="-125" font-family="Helvetica,sans-Serif" font-size="10.00" fill="#000000">deal.II/base/function.h</text>
</g>
<!-- Node1&#45;&gt;Node3 -->
<g id="edge3" class="edge">
<title>Node1&#45;&gt;Node3</title>
<path fill="none" stroke="#191970" d="M2322.6823,-188.7083C2077.5411,-186.3736 470.4759,-170.1064 257,-143 250.0964,-142.1234 242.8611,-140.8249 235.8157,-139.3462"/>
<polygon fill="#191970" stroke="#191970" points="236.2129,-135.8486 225.6898,-137.0789 234.6834,-142.6794 236.2129,-135.8486"/>
</g>
<!-- Node4 -->
<g id="node5" class="node">
<title>Node4</title>
<polygon fill="#ffffff" stroke="#bfbfbf" points="266,-112.5 266,-142.5 392,-142.5 392,-112.5 266,-112.5"/>
<text text-anchor="start" x="274" y="-130.5" font-family="Helvetica,sans-Serif" font-size="10.00" fill="#000000">deal.II/base/convergence</text>
<text text-anchor="middle" x="329" y="-119.5" font-family="Helvetica,sans-Serif" font-size="10.00" fill="#000000">_table.h</text>
</g>
<!-- Node1&#45;&gt;Node4 -->
<g id="edge4" class="edge">
<title>Node1&#45;&gt;Node4</title>
<path fill="none" stroke="#191970" d="M2322.9993,-188.623C2092.2007,-185.7708 644.2993,-167.0703 402.3934,-142.9062"/>
<polygon fill="#191970" stroke="#191970" points="402.4226,-139.3889 392.103,-141.7882 401.6665,-146.3479 402.4226,-139.3889"/>
</g>
<!-- Node5 -->
<g id="node6" class="node">
<title>Node5</title>
<polygon fill="#ffffff" stroke="#bfbfbf" points="410.5,-118 410.5,-137 513.5,-137 513.5,-118 410.5,-118"/>
<text text-anchor="middle" x="462" y="-125" font-family="Helvetica,sans-Serif" font-size="10.00" fill="#000000">deal.II/base/types.h</text>
</g>
<!-- Node1&#45;&gt;Node5 -->
<g id="edge5" class="edge">
<title>Node1&#45;&gt;Node5</title>
<path fill="none" stroke="#191970" d="M2322.7762,-188.6448C2096.1357,-186.0102 707.1149,-168.8895 522,-143 515.9933,-142.1599 509.7224,-140.9382 503.5951,-139.5436"/>
<polygon fill="#191970" stroke="#191970" points="504.036,-136.0483 493.4906,-137.0703 502.3717,-142.8475 504.036,-136.0483"/>
</g>
<!-- Node6 -->
<g id="node7" class="node">
<title>Node6</title>
<polygon fill="#ffffff" stroke="#bfbfbf" points="531.5,-118 531.5,-137 658.5,-137 658.5,-118 531.5,-118"/>
<text text-anchor="middle" x="595" y="-125" font-family="Helvetica,sans-Serif" font-size="10.00" fill="#000000">deal.II/dofs/dof_handler.h</text>
</g>
<!-- Node1&#45;&gt;Node6 -->
<g id="edge6" class="edge">
<title>Node1&#45;&gt;Node6</title>
<path fill="none" stroke="#191970" d="M2322.8562,-188.9245C2121.926,-188.3207 1006.2047,-183.1799 668,-143 659.9509,-142.0437 651.4761,-140.6292 643.2644,-139.0374"/>
<polygon fill="#191970" stroke="#191970" points="643.923,-135.5997 633.4248,-137.0267 642.5216,-142.458 643.923,-135.5997"/>
</g>
<!-- Node7 -->
<g id="node8" class="node">
<title>Node7</title>
<polygon fill="#ffffff" stroke="#bfbfbf" points="677,-118 677,-137 793,-137 793,-118 677,-118"/>
<text text-anchor="middle" x="735" y="-125" font-family="Helvetica,sans-Serif" font-size="10.00" fill="#000000">deal.II/dofs/dof_tools.h</text>
</g>
<!-- Node1&#45;&gt;Node7 -->
<g id="edge7" class="edge">
<title>Node1&#45;&gt;Node7</title>
<path fill="none" stroke="#191970" d="M2322.8895,-188.9163C2131.483,-188.2748 1111.614,-183.0018 802,-143 794.8364,-142.0745 787.3166,-140.7207 780.0092,-139.1928"/>
<polygon fill="#191970" stroke="#191970" points="780.7501,-135.7721 770.2296,-137.0252 779.2353,-142.6063 780.7501,-135.7721"/>
</g>
<!-- Node8 -->
<g id="node9" class="node">
<title>Node8</title>
<polygon fill="#ffffff" stroke="#bfbfbf" points="811.5,-118 811.5,-137 946.5,-137 946.5,-118 811.5,-118"/>
<text text-anchor="middle" x="879" y="-125" font-family="Helvetica,sans-Serif" font-size="10.00" fill="#000000">deal.II/dofs/dof_accessor.h</text>
</g>
<!-- Node1&#45;&gt;Node8 -->
<g id="edge8" class="edge">
<title>Node1&#45;&gt;Node8</title>
<path fill="none" stroke="#191970" d="M2322.8178,-188.6889C2142.6116,-186.783 1232.8553,-175.6663 955,-143 946.6371,-142.0168 937.8252,-140.5891 929.2826,-138.9928"/>
<polygon fill="#191970" stroke="#191970" points="929.9079,-135.5488 919.4211,-137.0578 928.5601,-142.4178 929.9079,-135.5488"/>
</g>
<!-- Node9 -->
<g id="node10" class="node">
<title>Node9</title>
<polygon fill="#ffffff" stroke="#bfbfbf" points="964.5,-118 964.5,-137 1113.5,-137 1113.5,-118 964.5,-118"/>
<text text-anchor="middle" x="1039" y="-125" font-family="Helvetica,sans-Serif" font-size="10.00" fill="#000000">deal.II/dofs/dof_renumbering.h</text>
</g>
<!-- Node1&#45;&gt;Node9 -->
<g id="edge9" class="edge">
<title>Node1&#45;&gt;Node9</title>
<path fill="none" stroke="#191970" d="M2322.818,-188.4591C2155.7435,-185.4662 1365.0342,-170.0808 1122,-143 1112.799,-141.9747 1103.0862,-140.512 1093.6742,-138.89"/>
<polygon fill="#191970" stroke="#191970" points="1094.0793,-135.4068 1083.6176,-137.0806 1092.8398,-142.2961 1094.0793,-135.4068"/>
</g>
<!-- Node10 -->
<g id="node11" class="node">
<title>Node10</title>
<polygon fill="#ffffff" stroke="#bfbfbf" points="1131.5,-118 1131.5,-137 1216.5,-137 1216.5,-118 1131.5,-118"/>
<text text-anchor="middle" x="1174" y="-125" font-family="Helvetica,sans-Serif" font-size="10.00" fill="#000000">deal.II/fe/fe_q.h</text>
</g>
<!-- Node1&#45;&gt;Node10 -->
<g id="edge10" class="edge">
<title>Node1&#45;&gt;Node10</title>
<path fill="none" stroke="#191970" d="M2322.8269,-188.7757C2164.2068,-187.4752 1445.6677,-179.6284 1226,-143 1221.1449,-142.1904 1216.1055,-141.0657 1211.1593,-139.788"/>
<polygon fill="#191970" stroke="#191970" points="1211.7998,-136.3327 1201.2262,-137.003 1209.9099,-143.0728 1211.7998,-136.3327"/>
</g>
<!-- Node11 -->
<g id="node12" class="node">
<title>Node11</title>
<polygon fill="#ffffff" stroke="#bfbfbf" points="1235,-118 1235,-137 1343,-137 1343,-118 1235,-118"/>
<text text-anchor="middle" x="1289" y="-125" font-family="Helvetica,sans-Serif" font-size="10.00" fill="#000000">deal.II/fe/fe_values.h</text>
</g>
<!-- Node1&#45;&gt;Node11 -->
<g id="edge11" class="edge">
<title>Node1&#45;&gt;Node11</title>
<path fill="none" stroke="#191970" d="M2322.9954,-188.3929C2175.769,-185.3854 1546.3248,-171.0902 1352,-143 1345.6353,-142.08 1338.976,-140.7994 1332.47,-139.3648"/>
<polygon fill="#191970" stroke="#191970" points="1332.9719,-135.8876 1322.437,-137.0133 1331.3745,-142.7029 1332.9719,-135.8876"/>
</g>
<!-- Node12 -->
<g id="node13" class="node">
<title>Node12</title>
<polygon fill="#ffffff" stroke="#bfbfbf" points="1361.5,-118 1361.5,-137 1448.5,-137 1448.5,-118 1361.5,-118"/>
<text text-anchor="middle" x="1405" y="-125" font-family="Helvetica,sans-Serif" font-size="10.00" fill="#000000">deal.II/grid/tria.h</text>
</g>
<!-- Node1&#45;&gt;Node12 -->
<g id="edge12" class="edge">
<title>Node1&#45;&gt;Node12</title>
<path fill="none" stroke="#191970" d="M2322.603,-188.3934C2184.3065,-185.5674 1628.7304,-172.5608 1457,-143 1452.2044,-142.1745 1447.2268,-141.051 1442.3361,-139.7835"/>
<polygon fill="#191970" stroke="#191970" points="1443.0786,-136.3568 1432.5051,-137.0286 1441.1897,-143.0972 1443.0786,-136.3568"/>
</g>
<!-- Node13 -->
<g id="node14" class="node">
<title>Node13</title>
<polygon fill="#ffffff" stroke="#bfbfbf" points="1466.5,-118 1466.5,-137 1601.5,-137 1601.5,-118 1466.5,-118"/>
<text text-anchor="middle" x="1534" y="-125" font-family="Helvetica,sans-Serif" font-size="10.00" fill="#000000">deal.II/grid/grid_generator.h</text>
</g>
<!-- Node1&#45;&gt;Node13 -->
<g id="edge13" class="edge">
<title>Node1&#45;&gt;Node13</title>
<path fill="none" stroke="#191970" d="M2322.7093,-188.5922C2220.1843,-186.9302 1885.2314,-178.9187 1611,-143 1602.9256,-141.9424 1594.4281,-140.5348 1586.1444,-138.9979"/>
<polygon fill="#191970" stroke="#191970" points="1586.6713,-135.5351 1576.1889,-137.0741 1585.3432,-142.408 1586.6713,-135.5351"/>
</g>
<!-- Node14 -->
<g id="node15" class="node">
<title>Node14</title>
<polygon fill="#ffffff" stroke="#bfbfbf" points="1620,-118 1620,-137 1722,-137 1722,-118 1620,-118"/>
<text text-anchor="middle" x="1671" y="-125" font-family="Helvetica,sans-Serif" font-size="10.00" fill="#000000">deal.II/grid/grid_in.h</text>
</g>
<!-- Node1&#45;&gt;Node14 -->
<g id="edge14" class="edge">
<title>Node1&#45;&gt;Node14</title>
<path fill="none" stroke="#191970" d="M2322.9775,-188.6686C2231.6407,-187.2741 1955.9929,-180.0609 1731,-143 1725.2195,-142.0478 1719.1834,-140.7994 1713.262,-139.4239"/>
<polygon fill="#191970" stroke="#191970" points="1714.0167,-136.0053 1703.4705,-137.0189 1712.3469,-142.8033 1714.0167,-136.0053"/>
</g>
<!-- Node15 -->
<g id="node16" class="node">
<title>Node15</title>
<polygon fill="#ffffff" stroke="#bfbfbf" points="1740,-118 1740,-137 1848,-137 1848,-118 1740,-118"/>
<text text-anchor="middle" x="1794" y="-125" font-family="Helvetica,sans-Serif" font-size="10.00" fill="#000000">deal.II/grid/grid_out.h</text>
</g>
<!-- Node1&#45;&gt;Node15 -->
<g id="edge15" class="edge">
<title>Node1&#45;&gt;Node15</title>
<path fill="none" stroke="#191970" d="M2322.9679,-187.7355C2244.4576,-184.1889 2031.748,-172.4153 1857,-143 1851.094,-142.0058 1844.9235,-140.756 1838.8532,-139.3995"/>
<polygon fill="#191970" stroke="#191970" points="1839.3312,-135.9168 1828.7964,-137.0424 1837.7338,-142.7321 1839.3312,-135.9168"/>
</g>
<!-- Node16 -->
<g id="node17" class="node">
<title>Node16</title>
<polygon fill="#ffffff" stroke="#bfbfbf" points="1866,-118 1866,-137 2006,-137 2006,-118 1866,-118"/>
<text text-anchor="middle" x="1936" y="-125" font-family="Helvetica,sans-Serif" font-size="10.00" fill="#000000">deal.II/grid/grid_refinement.h</text>
</g>
<!-- Node1&#45;&gt;Node16 -->
<g id="edge16" class="edge">
<title>Node1&#45;&gt;Node16</title>
<path fill="none" stroke="#191970" d="M2322.5937,-185.3652C2262.6377,-178.2874 2127.7927,-161.7011 2015,-143 2007.6177,-141.776 1999.868,-140.3861 1992.2273,-138.9531"/>
<polygon fill="#191970" stroke="#191970" points="1992.7648,-135.4925 1982.2858,-137.0548 1991.4518,-142.3683 1992.7648,-135.4925"/>
</g>
<!-- Node17 -->
<g id="node18" class="node">
<title>Node17</title>
<polygon fill="#ffffff" stroke="#bfbfbf" points="2024.5,-118 2024.5,-137 2161.5,-137 2161.5,-118 2024.5,-118"/>
<text text-anchor="middle" x="2093" y="-125" font-family="Helvetica,sans-Serif" font-size="10.00" fill="#000000">deal.II/grid/grid_reordering.h</text>
</g>
<!-- Node1&#45;&gt;Node17 -->
<g id="edge17" class="edge">
<title>Node1&#45;&gt;Node17</title>
<path fill="none" stroke="#191970" d="M2322.7765,-181.6427C2278.4132,-171.1893 2196.6425,-151.9215 2143.5658,-139.4149"/>
<polygon fill="#191970" stroke="#191970" points="2144.215,-135.9721 2133.6788,-137.0852 2142.6095,-142.7855 2144.215,-135.9721"/>
</g>
<!-- Node18 -->
<g id="node19" class="node">
<title>Node18</title>
<polygon fill="#ffffff" stroke="#bfbfbf" points="2180,-118 2180,-137 2278,-137 2278,-118 2180,-118"/>
<text text-anchor="middle" x="2229" y="-125" font-family="Helvetica,sans-Serif" font-size="10.00" fill="#000000">deal.II/lac/vector.h</text>
</g>
<!-- Node1&#45;&gt;Node18 -->
<g id="edge18" class="edge">
<title>Node1&#45;&gt;Node18</title>
<path fill="none" stroke="#191970" d="M2334.4688,-179.3906C2313.8292,-169.2359 2281.0724,-153.1196 2257.5398,-141.5416"/>
<polygon fill="#191970" stroke="#191970" points="2258.912,-138.3161 2248.3941,-137.0419 2255.8218,-144.5971 2258.912,-138.3161"/>
</g>
<!-- Node19 -->
<g id="node20" class="node">
<title>Node19</title>
<polygon fill="#ffffff" stroke="#bfbfbf" points="2296,-118 2296,-137 2412,-137 2412,-118 2296,-118"/>
<text text-anchor="middle" x="2354" y="-125" font-family="Helvetica,sans-Serif" font-size="10.00" fill="#000000">deal.II/lac/full_matrix.h</text>
</g>
<!-- Node1&#45;&gt;Node19 -->
<g id="edge19" class="edge">
<title>Node1&#45;&gt;Node19</title>
<path fill="none" stroke="#191970" d="M2354,-179.3906C2354,-170.8657 2354,-158.1392 2354,-147.4235"/>
<polygon fill="#191970" stroke="#191970" points="2357.5001,-147.2448 2354,-137.2449 2350.5001,-147.2449 2357.5001,-147.2448"/>
</g>
<!-- Node20 -->
<g id="node21" class="node">
<title>Node20</title>
<polygon fill="#ffffff" stroke="#bfbfbf" points="2430,-112.5 2430,-142.5 2522,-142.5 2522,-112.5 2430,-112.5"/>
<text text-anchor="start" x="2438" y="-130.5" font-family="Helvetica,sans-Serif" font-size="10.00" fill="#000000">deal.II/lac/sparse</text>
<text text-anchor="middle" x="2476" y="-119.5" font-family="Helvetica,sans-Serif" font-size="10.00" fill="#000000">_matrix.h</text>
</g>
<!-- Node1&#45;&gt;Node20 -->
<g id="edge20" class="edge">
<title>Node1&#45;&gt;Node20</title>
<path fill="none" stroke="#191970" d="M2373.0625,-179.3906C2390.1088,-170.7976 2415.6236,-157.9356 2436.9856,-147.1671"/>
<polygon fill="#191970" stroke="#191970" points="2438.8014,-150.1714 2446.1554,-142.5446 2435.6503,-143.9207 2438.8014,-150.1714"/>
</g>
<!-- Node21 -->
<g id="node22" class="node">
<title>Node21</title>
<polygon fill="#ffffff" stroke="#bfbfbf" points="2540,-112.5 2540,-142.5 2640,-142.5 2640,-112.5 2540,-112.5"/>
<text text-anchor="start" x="2548" y="-130.5" font-family="Helvetica,sans-Serif" font-size="10.00" fill="#000000">deal.II/lac/dynamic</text>
<text text-anchor="middle" x="2590" y="-119.5" font-family="Helvetica,sans-Serif" font-size="10.00" fill="#000000">_sparsity_pattern.h</text>
</g>
<!-- Node1&#45;&gt;Node21 -->
<g id="edge21" class="edge">
<title>Node1&#45;&gt;Node21</title>
<path fill="none" stroke="#191970" d="M2385.021,-180.9645C2418.4322,-172.3041 2473.4192,-158.0343 2529.9649,-143.2672"/>
<polygon fill="#191970" stroke="#191970" points="2530.9998,-146.6144 2539.7903,-140.7003 2529.2304,-139.8417 2530.9998,-146.6144"/>
</g>
<!-- Node22 -->
<g id="node23" class="node">
<title>Node22</title>
<polygon fill="#ffffff" stroke="#bfbfbf" points="2658.5,-118 2658.5,-137 2771.5,-137 2771.5,-118 2658.5,-118"/>
<text text-anchor="middle" x="2715" y="-125" font-family="Helvetica,sans-Serif" font-size="10.00" fill="#000000">deal.II/lac/solver_cg.h</text>
</g>
<!-- Node1&#45;&gt;Node22 -->
<g id="edge22" class="edge">
<title>Node1&#45;&gt;Node22</title>
<path fill="none" stroke="#191970" d="M2385.1399,-184.9372C2439.0931,-177.7213 2553.355,-161.6601 2649,-143 2654.7725,-141.8738 2660.8061,-140.5967 2666.7789,-139.2705"/>
<polygon fill="#191970" stroke="#191970" points="2667.7418,-142.641 2676.7166,-137.0103 2666.1893,-135.8153 2667.7418,-142.641"/>
</g>
<!-- Node23 -->
<g id="node24" class="node">
<title>Node23</title>
<polygon fill="#ffffff" stroke="#bfbfbf" points="2789.5,-118 2789.5,-137 2912.5,-137 2912.5,-118 2789.5,-118"/>
<text text-anchor="middle" x="2851" y="-125" font-family="Helvetica,sans-Serif" font-size="10.00" fill="#000000">deal.II/lac/precondition.h</text>
</g>
<!-- Node1&#45;&gt;Node23 -->
<g id="edge23" class="edge">
<title>Node1&#45;&gt;Node23</title>
<path fill="none" stroke="#191970" d="M2385.1555,-186.7885C2455.7449,-181.5265 2633.1535,-166.8865 2780,-143 2786.7772,-141.8976 2793.8816,-140.5634 2800.8678,-139.1458"/>
<polygon fill="#191970" stroke="#191970" points="2801.8989,-142.5058 2810.9669,-137.0265 2800.4612,-135.655 2801.8989,-142.5058"/>
</g>
<!-- Node24 -->
<g id="node25" class="node">
<title>Node24</title>
<polygon fill="#ffffff" stroke="#bfbfbf" points="2930.5,-112.5 2930.5,-142.5 3035.5,-142.5 3035.5,-112.5 2930.5,-112.5"/>
<text text-anchor="start" x="2938.5" y="-130.5" font-family="Helvetica,sans-Serif" font-size="10.00" fill="#000000">deal.II/lac/constraint</text>
<text text-anchor="middle" x="2983" y="-119.5" font-family="Helvetica,sans-Serif" font-size="10.00" fill="#000000">_matrix.h</text>
</g>
<!-- Node1&#45;&gt;Node24 -->
<g id="edge24" class="edge">
<title>Node1&#45;&gt;Node24</title>
<path fill="none" stroke="#191970" d="M2385.2569,-188.2613C2469.9297,-185.8803 2710.8549,-176.5855 2920.4036,-142.9071"/>
<polygon fill="#191970" stroke="#191970" points="2921.0508,-146.3479 2930.3576,-141.2849 2919.9248,-139.439 2921.0508,-146.3479"/>
</g>
<!-- Node25 -->
<g id="node26" class="node">
<title>Node25</title>
<polygon fill="#ffffff" stroke="#bfbfbf" points="3054,-112.5 3054,-142.5 3170,-142.5 3170,-112.5 3054,-112.5"/>
<text text-anchor="start" x="3062" y="-130.5" font-family="Helvetica,sans-Serif" font-size="10.00" fill="#000000">deal.II/numerics/vector</text>
<text text-anchor="middle" x="3112" y="-119.5" font-family="Helvetica,sans-Serif" font-size="10.00" fill="#000000">_tools.h</text>
</g>
<!-- Node1&#45;&gt;Node25 -->
<g id="edge25" class="edge">
<title>Node1&#45;&gt;Node25</title>
<path fill="none" stroke="#191970" d="M2385.1316,-188.6674C2482.7819,-187.2523 2791.5675,-179.9491 3044,-143 3044.1011,-142.9852 3044.2022,-142.9703 3044.3035,-142.9554"/>
<polygon fill="#191970" stroke="#191970" points="3044.5749,-146.4578 3053.875,-141.3825 3043.4397,-139.5505 3044.5749,-146.4578"/>
</g>
<!-- Node26 -->
<g id="node27" class="node">
<title>Node26</title>
<polygon fill="#ffffff" stroke="#bfbfbf" points="3188,-112.5 3188,-142.5 3296,-142.5 3296,-112.5 3188,-112.5"/>
<text text-anchor="start" x="3196" y="-130.5" font-family="Helvetica,sans-Serif" font-size="10.00" fill="#000000">deal.II/numerics/data</text>
<text text-anchor="middle" x="3242" y="-119.5" font-family="Helvetica,sans-Serif" font-size="10.00" fill="#000000">_out.h</text>
</g>
<!-- Node1&#45;&gt;Node26 -->
<g id="edge26" class="edge">
<title>Node1&#45;&gt;Node26</title>
<path fill="none" stroke="#191970" d="M2385.0159,-188.0418C2513.0696,-183.9693 3001.7314,-167.2519 3177.6931,-142.9642"/>
<polygon fill="#191970" stroke="#191970" points="3178.4324,-146.3939 3187.8312,-141.5038 3177.4343,-139.4655 3178.4324,-146.3939"/>
</g>
<!-- Node27 -->
<g id="node28" class="node">
<title>Node27</title>
<polygon fill="#ffffff" stroke="#bfbfbf" points="3314.5,-112.5 3314.5,-142.5 3423.5,-142.5 3423.5,-112.5 3314.5,-112.5"/>
<text text-anchor="start" x="3322.5" y="-130.5" font-family="Helvetica,sans-Serif" font-size="10.00" fill="#000000">deal.II/numerics/error</text>
<text text-anchor="middle" x="3369" y="-119.5" font-family="Helvetica,sans-Serif" font-size="10.00" fill="#000000">_estimator.h</text>
</g>
<!-- Node1&#45;&gt;Node27 -->
<g id="edge27" class="edge">
<title>Node1&#45;&gt;Node27</title>
<path fill="none" stroke="#191970" d="M2385.3107,-188.2828C2526.0645,-184.9388 3101.7847,-169.9472 3304.3821,-142.8462"/>
<polygon fill="#191970" stroke="#191970" points="3304.8977,-146.3083 3314.3198,-141.4633 3303.9329,-139.3751 3304.8977,-146.3083"/>
</g>
<!-- Node28 -->
<g id="node29" class="node">
<title>Node28</title>
<polygon fill="#ffffff" stroke="#bfbfbf" points="3442,-118 3442,-137 3492,-137 3492,-118 3442,-118"/>
<text text-anchor="middle" x="3467" y="-125" font-family="Helvetica,sans-Serif" font-size="10.00" fill="#000000">fstream</text>
</g>
<!-- Node1&#45;&gt;Node28 -->
<g id="edge28" class="edge">
<title>Node1&#45;&gt;Node28</title>
<path fill="none" stroke="#191970" d="M2385.039,-188.3653C2550.7762,-184.8841 3327.804,-167.3717 3432,-143 3434.4913,-142.4173 3437.0249,-141.6593 3439.5317,-140.7918"/>
<polygon fill="#191970" stroke="#191970" points="3440.9313,-144.0018 3448.921,-137.0437 3438.3361,-137.5006 3440.9313,-144.0018"/>
</g>
<!-- Node29 -->
<g id="node30" class="node">
<title>Node29</title>
<polygon fill="#ffffff" stroke="#bfbfbf" points="3618,-.5 3618,-19.5 3672,-19.5 3672,-.5 3618,-.5"/>
<text text-anchor="middle" x="3645" y="-7.5" font-family="Helvetica,sans-Serif" font-size="10.00" fill="#000000">iostream</text>
</g>
<!-- Node1&#45;&gt;Node29 -->
<g id="edge29" class="edge">
<title>Node1&#45;&gt;Node29</title>
<path fill="none" stroke="#191970" d="M2385.2737,-188.9529C2565.1452,-188.5327 3461.2622,-184.3634 3501,-143 3510.5452,-133.0644 3506.444,-124.6566 3501,-112 3489.1152,-84.3695 3444.5202,-79.7316 3463,-56 3480.5821,-33.4211 3559.6886,-20.1732 3607.6349,-14.0796"/>
<polygon fill="#191970" stroke="#191970" points="3608.149,-17.5428 3617.6492,-12.8529 3607.2979,-10.5948 3608.149,-17.5428"/>
</g>
<!-- Node30 -->
<g id="node31" class="node">
<title>Node30</title>
<polygon fill="#ffffff" stroke="#bfbfbf" points="3965.5,-56.5 3965.5,-75.5 4006.5,-75.5 4006.5,-56.5 3965.5,-56.5"/>
<text text-anchor="middle" x="3986" y="-63.5" font-family="Helvetica,sans-Serif" font-size="10.00" fill="#000000">string</text>
</g>
<!-- Node1&#45;&gt;Node30 -->
<g id="edge30" class="edge">
<title>Node1&#45;&gt;Node30</title>
<path fill="none" stroke="#191970" d="M2385.287,-188.5569C2593.8987,-185.5381 3777.28,-167.3815 3849,-143 3871.306,-135.417 3871.791,-124.1102 3892,-112 3912.7033,-99.5935 3937.2321,-87.6762 3956.0411,-79.0811"/>
<polygon fill="#191970" stroke="#191970" points="3957.6274,-82.2053 3965.3051,-74.9043 3954.7502,-75.8239 3957.6274,-82.2053"/>
</g>
<!-- Node31 -->
<g id="node32" class="node">
<title>Node31</title>
<polygon fill="#ffffff" stroke="#bfbfbf" points="3934.5,-118 3934.5,-137 4017.5,-137 4017.5,-118 3934.5,-118"/>
<text text-anchor="middle" x="3976" y="-125" font-family="Helvetica,sans-Serif" font-size="10.00" fill="#000000">unordered_map</text>
</g>
<!-- Node1&#45;&gt;Node31 -->
<g id="edge31" class="edge">
<title>Node1&#45;&gt;Node31</title>
<path fill="none" stroke="#191970" d="M2385.1881,-188.5351C2592.0903,-185.3916 3763.1683,-166.654 3920,-143 3925.4862,-142.1725 3931.1999,-140.9852 3936.7901,-139.6308"/>
<polygon fill="#191970" stroke="#191970" points="3937.8542,-142.9703 3946.6433,-137.0541 3936.0831,-136.198 3937.8542,-142.9703"/>
</g>
<!-- Node32 -->
<g id="node33" class="node">
<title>Node32</title>
<polygon fill="#ffffff" stroke="#bfbfbf" points="4024.5,-56.5 4024.5,-75.5 4059.5,-75.5 4059.5,-56.5 4024.5,-56.5"/>
<text text-anchor="middle" x="4042" y="-63.5" font-family="Helvetica,sans-Serif" font-size="10.00" fill="#000000">map</text>
</g>
<!-- Node1&#45;&gt;Node32 -->
<g id="edge32" class="edge">
<title>Node1&#45;&gt;Node32</title>
<path fill="none" stroke="#191970" d="M2385.001,-188.5931C2595.6433,-185.7627 3810.6168,-168.3775 3884,-143 3905.9266,-135.4173 3905.7143,-123.2588 3926,-112 3930.0986,-109.7252 3981.687,-89.4966 4014.6712,-76.6329"/>
<polygon fill="#191970" stroke="#191970" points="4016.1905,-79.7973 4024.2373,-72.9052 4013.6489,-73.275 4016.1905,-79.7973"/>
</g>
<!-- Node33 -->
<g id="node34" class="node">
<title>Node33</title>
<polygon fill="#ffffff" stroke="#bfbfbf" points="4036,-118 4036,-137 4076,-137 4076,-118 4036,-118"/>
<text text-anchor="middle" x="4056" y="-125" font-family="Helvetica,sans-Serif" font-size="10.00" fill="#000000">utility</text>
</g>
<!-- Node1&#45;&gt;Node33 -->
<g id="edge33" class="edge">
<title>Node1&#45;&gt;Node33</title>
<path fill="none" stroke="#191970" d="M2385.32,-188.5482C2607.9593,-185.286 3944.6298,-164.8391 4027,-143 4028.6692,-142.5574 4030.3489,-142.003 4032.0132,-141.3694"/>
<polygon fill="#191970" stroke="#191970" points="4033.6045,-144.4894 4041.1982,-137.1012 4030.6545,-138.1414 4033.6045,-144.4894"/>
</g>
<!-- Node34 -->
<g id="node35" class="node">
<title>Node34</title>
<g id="a_node35"><a xlink:href="common_8hpp.html" target="_top" xlink:title="common.hpp">
<polygon fill="#ffffff" stroke="#000000" points="3472.5,-56.5 3472.5,-75.5 3545.5,-75.5 3545.5,-56.5 3472.5,-56.5"/>
<text text-anchor="middle" x="3509" y="-63.5" font-family="Helvetica,sans-Serif" font-size="10.00" fill="#000000">common.hpp</text>
</a>
</g>
</g>
<!-- Node1&#45;&gt;Node34 -->
<g id="edge34" class="edge">
<title>Node1&#45;&gt;Node34</title>
<path fill="none" stroke="#191970" d="M2385.2749,-188.3739C2570.2296,-184.5991 3513.4929,-164.3221 3534,-143 3549.5148,-126.8686 3536.0546,-101.0121 3523.6634,-83.771"/>
<polygon fill="#191970" stroke="#191970" points="3526.2966,-81.4526 3517.4402,-75.6375 3520.7372,-85.7063 3526.2966,-81.4526"/>
</g>
<!-- Node37 -->
<g id="node38" class="node">
<title>Node37</title>
<g id="a_node38"><a xlink:href="tethex_8hpp.html" target="_top" xlink:title="tethex.hpp">
<polygon fill="#ffffff" stroke="#000000" points="3778,-118 3778,-137 3840,-137 3840,-118 3778,-118"/>
<text text-anchor="middle" x="3809" y="-125" font-family="Helvetica,sans-Serif" font-size="10.00" fill="#000000">tethex.hpp</text>
</a>
</g>
</g>
<!-- Node1&#45;&gt;Node37 -->
<g id="edge38" class="edge">
<title>Node1&#45;&gt;Node37</title>
<path fill="none" stroke="#191970" d="M2385.354,-188.8827C2531.816,-188.1308 3163.2059,-182.6323 3679,-143 3708.7777,-140.712 3742.2352,-136.6893 3767.7504,-133.3154"/>
<polygon fill="#191970" stroke="#191970" points="3768.3687,-136.7639 3777.8139,-131.9641 3767.437,-129.8262 3768.3687,-136.7639"/>
</g>
<!-- Node40 -->
<g id="node41" class="node">
<title>Node40</title>
<g id="a_node41"><a xlink:href="physmodel_8hpp.html" target="_top" xlink:title="physmodel.hpp">
<polygon fill="#ffffff" stroke="#000000" points="3586.5,-118 3586.5,-137 3669.5,-137 3669.5,-118 3586.5,-118"/>
<text text-anchor="middle" x="3628" y="-125" font-family="Helvetica,sans-Serif" font-size="10.00" fill="#000000">physmodel.hpp</text>
</a>
</g>
</g>
<!-- Node1&#45;&gt;Node40 -->
<g id="edge45" class="edge">
<title>Node1&#45;&gt;Node40</title>
<path fill="none" stroke="#191970" d="M2385.147,-188.8025C2551.1534,-187.6013 3333.2243,-180.0374 3572,-143 3577.4827,-142.1496 3583.1944,-140.9491 3588.7836,-139.5883"/>
<polygon fill="#191970" stroke="#191970" points="3589.8498,-142.9271 3598.636,-137.0065 3588.0754,-136.1557 3589.8498,-142.9271"/>
</g>
<!-- Node34&#45;&gt;Node29 -->
<g id="edge37" class="edge">
<title>Node34&#45;&gt;Node29</title>
<path fill="none" stroke="#191970" d="M3532.3792,-56.3733C3554.5045,-47.2629 3587.9134,-33.5062 3612.6019,-23.3404"/>
<polygon fill="#191970" stroke="#191970" points="3614.0117,-26.5451 3621.9258,-19.5011 3611.3464,-20.0723 3614.0117,-26.5451"/>
</g>
<!-- Node35 -->
<g id="node36" class="node">
<title>Node35</title>
<polygon fill="#ffffff" stroke="#bfbfbf" points="3767,-.5 3767,-19.5 3811,-19.5 3811,-.5 3767,-.5"/>
<text text-anchor="middle" x="3789" y="-7.5" font-family="Helvetica,sans-Serif" font-size="10.00" fill="#000000">vector</text>
</g>
<!-- Node34&#45;&gt;Node35 -->
<g id="edge35" class="edge">
<title>Node34&#45;&gt;Node35</title>
<path fill="none" stroke="#191970" d="M3545.8205,-57.7379C3548.5867,-57.1416 3551.3365,-56.5565 3554,-56 3626.3336,-40.886 3711.5137,-24.5837 3756.8284,-16.0297"/>
<polygon fill="#191970" stroke="#191970" points="3757.752,-19.4174 3766.9311,-14.1264 3756.456,-12.5384 3757.752,-19.4174"/>
</g>
<!-- Node36 -->
<g id="node37" class="node">
<title>Node36</title>
<polygon fill="#ffffff" stroke="#bfbfbf" points="3485.5,-.5 3485.5,-19.5 3532.5,-19.5 3532.5,-.5 3485.5,-.5"/>
<text text-anchor="middle" x="3509" y="-7.5" font-family="Helvetica,sans-Serif" font-size="10.00" fill="#000000">math.h</text>
</g>
<!-- Node34&#45;&gt;Node36 -->
<g id="edge36" class="edge">
<title>Node34&#45;&gt;Node36</title>
<path fill="none" stroke="#191970" d="M3509,-56.2455C3509,-48.9382 3509,-38.6944 3509,-29.7046"/>
<polygon fill="#191970" stroke="#191970" points="3512.5001,-29.6426 3509,-19.6427 3505.5001,-29.6427 3512.5001,-29.6426"/>
</g>
<!-- Node37&#45;&gt;Node29 -->
<g id="edge39" class="edge">
<title>Node37&#45;&gt;Node29</title>
<path fill="none" stroke="#191970" d="M3795.5792,-117.8845C3767.3489,-97.6585 3701.5898,-50.5445 3667.0646,-25.8085"/>
<polygon fill="#191970" stroke="#191970" points="3668.7737,-22.7274 3658.6062,-19.7484 3664.6968,-28.4177 3668.7737,-22.7274"/>
</g>
<!-- Node37&#45;&gt;Node30 -->
<g id="edge43" class="edge">
<title>Node37&#45;&gt;Node30</title>
<path fill="none" stroke="#191970" d="M3836.6563,-117.8906C3868.994,-106.6546 3922.3383,-88.1197 3955.7518,-76.51"/>
<polygon fill="#191970" stroke="#191970" points="3957.139,-79.7333 3965.4363,-73.145 3954.8415,-73.1211 3957.139,-79.7333"/>
</g>
<!-- Node37&#45;&gt;Node32 -->
<g id="edge40" class="edge">
<title>Node37&#45;&gt;Node32</title>
<path fill="none" stroke="#191970" d="M3840.1935,-120.9989C3879.0895,-112.62 3947.7235,-96.9412 4014.627,-76.1752"/>
<polygon fill="#191970" stroke="#191970" points="4015.9932,-79.4146 4024.4818,-73.0747 4013.8923,-72.7373 4015.9932,-79.4146"/>
</g>
<!-- Node37&#45;&gt;Node35 -->
<g id="edge44" class="edge">
<title>Node37&#45;&gt;Node35</title>
<path fill="none" stroke="#191970" d="M3820.7313,-117.9304C3835.8754,-104.3489 3859.0446,-78.6159 3848,-56 3841.5959,-42.8865 3829.4479,-32.4229 3817.8315,-24.8092"/>
<polygon fill="#191970" stroke="#191970" points="3819.5211,-21.7405 3809.1561,-19.5457 3815.8902,-27.7252 3819.5211,-21.7405"/>
</g>
<!-- Node38 -->
<g id="node39" class="node">
<title>Node38</title>
<polygon fill="#ffffff" stroke="#bfbfbf" points="3895,-56.5 3895,-75.5 3947,-75.5 3947,-56.5 3895,-56.5"/>
<text text-anchor="middle" x="3921" y="-63.5" font-family="Helvetica,sans-Serif" font-size="10.00" fill="#000000">sstream</text>
</g>
<!-- Node37&#45;&gt;Node38 -->
<g id="edge41" class="edge">
<title>Node37&#45;&gt;Node38</title>
<path fill="none" stroke="#191970" d="M3826.5,-117.8906C3844.7465,-107.8713 3873.5624,-92.0483 3894.5806,-80.5071"/>
<polygon fill="#191970" stroke="#191970" points="3896.542,-83.423 3903.6229,-75.5419 3893.1728,-77.2872 3896.542,-83.423"/>
</g>
<!-- Node39 -->
<g id="node40" class="node">
<title>Node39</title>
<polygon fill="#ffffff" stroke="#bfbfbf" points="3779.5,-56.5 3779.5,-75.5 3838.5,-75.5 3838.5,-56.5 3779.5,-56.5"/>
<text text-anchor="middle" x="3809" y="-63.5" font-family="Helvetica,sans-Serif" font-size="10.00" fill="#000000">stdexcept</text>
</g>
<!-- Node37&#45;&gt;Node39 -->
<g id="edge42" class="edge">
<title>Node37&#45;&gt;Node39</title>
<path fill="none" stroke="#191970" d="M3809,-117.8906C3809,-109.3657 3809,-96.6392 3809,-85.9235"/>
<polygon fill="#191970" stroke="#191970" points="3812.5001,-85.7448 3809,-75.7449 3805.5001,-85.7449 3812.5001,-85.7448"/>
</g>
<!-- Node40&#45;&gt;Node29 -->
<g id="edge46" class="edge">
<title>Node40&#45;&gt;Node29</title>
<path fill="none" stroke="#191970" d="M3648.6094,-117.8834C3664.2575,-109.3307 3684.6284,-95.1997 3694,-76 3703.1688,-57.2157 3685.8058,-38.3211 3669.2696,-25.5913"/>
<polygon fill="#191970" stroke="#191970" points="3671.0043,-22.5277 3660.8425,-19.5297 3666.9168,-28.2104 3671.0043,-22.5277"/>
</g>
<!-- Node40&#45;&gt;Node34 -->
<g id="edge49" class="edge">
<title>Node40&#45;&gt;Node34</title>
<path fill="none" stroke="#191970" d="M3609.4063,-117.8906C3589.8447,-107.7811 3558.8499,-91.7628 3536.4691,-80.1962"/>
<polygon fill="#191970" stroke="#191970" points="3537.9539,-77.0238 3527.4632,-75.5419 3534.74,-83.2425 3537.9539,-77.0238"/>
</g>
<!-- Node41 -->
<g id="node42" class="node">
<title>Node41</title>
<polygon fill="#ffffff" stroke="#bfbfbf" points="3641,-56.5 3641,-75.5 3685,-75.5 3685,-56.5 3641,-56.5"/>
<text text-anchor="middle" x="3663" y="-63.5" font-family="Helvetica,sans-Serif" font-size="10.00" fill="#000000">cmath</text>
</g>
<!-- Node40&#45;&gt;Node41 -->
<g id="edge47" class="edge">
<title>Node40&#45;&gt;Node41</title>
<path fill="none" stroke="#191970" d="M3633.4688,-117.8906C3638.5246,-109.0068 3646.1772,-95.5601 3652.4254,-84.5811"/>
<polygon fill="#191970" stroke="#191970" points="3655.5498,-86.1672 3657.4541,-75.7449 3649.466,-82.7048 3655.5498,-86.1672"/>
</g>
<!-- Node42 -->
<g id="node43" class="node">
<title>Node42</title>
<polygon fill="#ffffff" stroke="#bfbfbf" points="3563.5,-56.5 3563.5,-75.5 3622.5,-75.5 3622.5,-56.5 3563.5,-56.5"/>
<text text-anchor="middle" x="3593" y="-63.5" font-family="Helvetica,sans-Serif" font-size="10.00" fill="#000000">functional</text>
</g>
<!-- Node40&#45;&gt;Node42 -->
<g id="edge48" class="edge">
<title>Node40&#45;&gt;Node42</title>
<path fill="none" stroke="#191970" d="M3622.5313,-117.8906C3617.4754,-109.0068 3609.8228,-95.5601 3603.5746,-84.5811"/>
<polygon fill="#191970" stroke="#191970" points="3606.534,-82.7048 3598.5459,-75.7449 3600.4502,-86.1672 3606.534,-82.7048"/>
</g>
</g>
</svg>
