<?xml version="1.0" encoding="UTF-8" standalone="no"?>
<!DOCTYPE svg PUBLIC "-//W3C//DTD SVG 1.1//EN"
 "http://www.w3.org/Graphics/SVG/1.1/DTD/svg11.dtd">
<!-- Generated by graphviz version 2.40.1 (20161225.0304)
 -->
<!-- Title: solver.hpp Pages: 1 -->
<svg width="203pt" height="140pt"
 viewBox="0.00 0.00 203.00 140.00" xmlns="http://www.w3.org/2000/svg" xmlns:xlink="http://www.w3.org/1999/xlink">
<g id="graph0" class="graph" transform="scale(1 1) rotate(0) translate(4 136)">
<title>solver.hpp</title>
<polygon fill="#ffffff" stroke="transparent" points="-4,4 -4,-136 199,-136 199,4 -4,4"/>
<!-- Node0 -->
<g id="node1" class="node">
<title>Node0</title>
<polygon fill="#bfbfbf" stroke="#000000" points="16.5,-112.5 16.5,-131.5 83.5,-131.5 83.5,-112.5 16.5,-112.5"/>
<text text-anchor="middle" x="50" y="-119.5" font-family="Helvetica,sans-Serif" font-size="10.00" fill="#000000">solver.hpp</text>
</g>
<!-- Node1 -->
<g id="node2" class="node">
<title>Node1</title>
<g id="a_node2"><a xlink:href="GeometryPrimitives_8hpp.html" target="_top" xlink:title="Common geometric entities like Vectors, Lines etc., to whole program. ">
<polygon fill="#ffffff" stroke="#000000" points="0,-.5 0,-19.5 136,-19.5 136,-.5 0,-.5"/>
<text text-anchor="middle" x="68" y="-7.5" font-family="Helvetica,sans-Serif" font-size="10.00" fill="#000000">GeometryPrimitives.hpp</text>
</a>
</g>
</g>
<!-- Node0&#45;&gt;Node1 -->
<g id="edge1" class="edge">
<title>Node0&#45;&gt;Node1</title>
<path fill="none" stroke="#191970" d="M35.7463,-112.3965C19.1494,-99.9405 -4.7097,-77.2813 6,-56 12.6737,-42.7387 25.1793,-32.3415 37.2207,-24.8125"/>
<polygon fill="#191970" stroke="#191970" points="39.3201,-27.6422 46.2342,-19.6143 35.823,-21.5783 39.3201,-27.6422"/>
</g>
<!-- Node2 -->
<g id="node3" class="node">
<title>Node2</title>
<g id="a_node3"><a xlink:href="tethex_8hpp.html" target="_top" xlink:title="Classes for holding mesh and converting by splitting triangles to quadrangles. ">
<polygon fill="#ffffff" stroke="#000000" points="15.5,-56.5 15.5,-75.5 84.5,-75.5 84.5,-56.5 15.5,-56.5"/>
<text text-anchor="middle" x="50" y="-63.5" font-family="Helvetica,sans-Serif" font-size="10.00" fill="#000000">tethex.hpp</text>
</a>
</g>
</g>
<!-- Node0&#45;&gt;Node2 -->
<g id="edge2" class="edge">
<title>Node0&#45;&gt;Node2</title>
<path fill="none" stroke="#191970" d="M50,-112.2455C50,-104.9382 50,-94.6944 50,-85.7046"/>
<polygon fill="#191970" stroke="#191970" points="53.5001,-85.6426 50,-75.6427 46.5001,-85.6427 53.5001,-85.6426"/>
</g>
<!-- Node3 -->
<g id="node4" class="node">
<title>Node3</title>
<g id="a_node4"><a xlink:href="physmodel_8hpp.html" target="_top" xlink:title="Contains all RiverSim program parameters. ">
<polygon fill="#ffffff" stroke="#000000" points="103,-56.5 103,-75.5 195,-75.5 195,-56.5 103,-56.5"/>
<text text-anchor="middle" x="149" y="-63.5" font-family="Helvetica,sans-Serif" font-size="10.00" fill="#000000">physmodel.hpp</text>
</a>
</g>
</g>
<!-- Node0&#45;&gt;Node3 -->
<g id="edge3" class="edge">
<title>Node0&#45;&gt;Node3</title>
<path fill="none" stroke="#191970" d="M67.2445,-112.2455C82.5761,-103.5731 105.2199,-90.7645 122.7916,-80.825"/>
<polygon fill="#191970" stroke="#191970" points="124.9724,-83.6126 131.9531,-75.6427 121.5259,-77.5198 124.9724,-83.6126"/>
</g>
<!-- Node3&#45;&gt;Node1 -->
<g id="edge4" class="edge">
<title>Node3&#45;&gt;Node1</title>
<path fill="none" stroke="#191970" d="M134.8909,-56.2455C122.5791,-47.7337 104.5042,-35.2375 90.2462,-25.3801"/>
<polygon fill="#191970" stroke="#191970" points="92.1634,-22.4506 81.9474,-19.6427 88.1826,-28.2085 92.1634,-22.4506"/>
</g>
</g>
</svg>
