<?xml version="1.0" encoding="UTF-8" standalone="no"?>
<!DOCTYPE svg PUBLIC "-//W3C//DTD SVG 1.1//EN"
 "http://www.w3.org/Graphics/SVG/1.1/DTD/svg11.dtd">
<!-- Generated by graphviz version 2.40.1 (20161225.0304)
 -->
<!-- Title: solver.hpp Pages: 1 -->
<svg width="200pt" height="140pt"
 viewBox="0.00 0.00 200.19 140.00" xmlns="http://www.w3.org/2000/svg" xmlns:xlink="http://www.w3.org/1999/xlink">
<g id="graph0" class="graph" transform="scale(1 1) rotate(0) translate(4 136)">
<title>solver.hpp</title>
<polygon fill="#ffffff" stroke="transparent" points="-4,4 -4,-136 196.1943,-136 196.1943,4 -4,4"/>
<!-- Node0 -->
<g id="node1" class="node">
<title>Node0</title>
<polygon fill="#bfbfbf" stroke="#000000" points="13.6943,-112.5 13.6943,-131.5 80.6943,-131.5 80.6943,-112.5 13.6943,-112.5"/>
<text text-anchor="middle" x="47.1943" y="-119.5" font-family="Helvetica,sans-Serif" font-size="10.00" fill="#000000">solver.hpp</text>
</g>
<!-- Node1 -->
<g id="node2" class="node">
<title>Node1</title>
<g id="a_node2"><a xlink:href="common_8hpp.html" target="_top" xlink:title="Common geometric entities like Vectors, Lines etc., to whole program. ">
<polygon fill="#ffffff" stroke="#000000" points="25.1943,-.5 25.1943,-19.5 105.1943,-19.5 105.1943,-.5 25.1943,-.5"/>
<text text-anchor="middle" x="65.1943" y="-7.5" font-family="Helvetica,sans-Serif" font-size="10.00" fill="#000000">common.hpp</text>
</a>
</g>
</g>
<!-- Node0&#45;&gt;Node1 -->
<g id="edge1" class="edge">
<title>Node0&#45;&gt;Node1</title>
<path fill="none" stroke="#191970" d="M32.9406,-112.3965C16.3437,-99.9405 -7.5154,-77.2813 3.1943,-56 9.8679,-42.7387 22.3736,-32.3415 34.415,-24.8125"/>
<polygon fill="#191970" stroke="#191970" points="36.5144,-27.6422 43.4285,-19.6143 33.0172,-21.5783 36.5144,-27.6422"/>
</g>
<!-- Node2 -->
<g id="node3" class="node">
<title>Node2</title>
<g id="a_node3"><a xlink:href="tethex_8hpp.html" target="_top" xlink:title="Classes for holding mesh and converting by splitting triangles to quadrangles. ">
<polygon fill="#ffffff" stroke="#000000" points="12.6943,-56.5 12.6943,-75.5 81.6943,-75.5 81.6943,-56.5 12.6943,-56.5"/>
<text text-anchor="middle" x="47.1943" y="-63.5" font-family="Helvetica,sans-Serif" font-size="10.00" fill="#000000">tethex.hpp</text>
</a>
</g>
</g>
<!-- Node0&#45;&gt;Node2 -->
<g id="edge2" class="edge">
<title>Node0&#45;&gt;Node2</title>
<path fill="none" stroke="#191970" d="M47.1943,-112.2455C47.1943,-104.9382 47.1943,-94.6944 47.1943,-85.7046"/>
<polygon fill="#191970" stroke="#191970" points="50.6944,-85.6426 47.1943,-75.6427 43.6944,-85.6427 50.6944,-85.6426"/>
</g>
<!-- Node3 -->
<g id="node4" class="node">
<title>Node3</title>
<g id="a_node4"><a xlink:href="physmodel_8hpp.html" target="_top" xlink:title="Contains all RiverSim program parameters. ">
<polygon fill="#ffffff" stroke="#000000" points="100.1943,-56.5 100.1943,-75.5 192.1943,-75.5 192.1943,-56.5 100.1943,-56.5"/>
<text text-anchor="middle" x="146.1943" y="-63.5" font-family="Helvetica,sans-Serif" font-size="10.00" fill="#000000">physmodel.hpp</text>
</a>
</g>
</g>
<!-- Node0&#45;&gt;Node3 -->
<g id="edge3" class="edge">
<title>Node0&#45;&gt;Node3</title>
<path fill="none" stroke="#191970" d="M64.4388,-112.2455C79.7704,-103.5731 102.4142,-90.7645 119.9858,-80.825"/>
<polygon fill="#191970" stroke="#191970" points="122.1666,-83.6126 129.1474,-75.6427 118.7202,-77.5198 122.1666,-83.6126"/>
</g>
<!-- Node3&#45;&gt;Node1 -->
<g id="edge4" class="edge">
<title>Node3&#45;&gt;Node1</title>
<path fill="none" stroke="#191970" d="M132.0852,-56.2455C119.7734,-47.7337 101.6985,-35.2375 87.4405,-25.3801"/>
<polygon fill="#191970" stroke="#191970" points="89.3577,-22.4506 79.1417,-19.6427 85.3769,-28.2085 89.3577,-22.4506"/>
</g>
</g>
</svg>
