<?xml version="1.0" encoding="UTF-8" standalone="no"?>
<!DOCTYPE svg PUBLIC "-//W3C//DTD SVG 1.1//EN"
 "http://www.w3.org/Graphics/SVG/1.1/DTD/svg11.dtd">
<!-- Generated by graphviz version 2.43.0 (0)
 -->
<!-- Title: triangulateio Pages: 1 -->
<svg width="406pt" height="325pt"
 viewBox="0.00 0.00 406.00 325.00" xmlns="http://www.w3.org/2000/svg" xmlns:xlink="http://www.w3.org/1999/xlink">
<g id="graph0" class="graph" transform="scale(1 1) rotate(0) translate(4 321)">
<title>triangulateio</title>
<polygon fill="white" stroke="transparent" points="-4,4 -4,-321 402,-321 402,4 -4,4"/>
<!-- Node1 -->
<g id="node1" class="node">
<title>Node1</title>
<g id="a_node1"><a xlink:title="Used to pass data into and out of the triangulate() procedure.">
<polygon fill="#bfbfbf" stroke="black" points="69,-0.5 69,-101.5 187,-101.5 187,-0.5 69,-0.5"/>
<text text-anchor="middle" x="128" y="-89.5" font-family="Helvetica,sans-Serif" font-size="10.00">triangulateio</text>
<polyline fill="none" stroke="black" points="69,-82.5 187,-82.5 "/>
<text text-anchor="start" x="77" y="-70.5" font-family="Helvetica,sans-Serif" font-size="10.00">+ numberofpoints</text>
<text text-anchor="start" x="77" y="-59.5" font-family="Helvetica,sans-Serif" font-size="10.00">+ numberoftriangles</text>
<text text-anchor="start" x="77" y="-48.5" font-family="Helvetica,sans-Serif" font-size="10.00">+ numberofcorners</text>
<text text-anchor="start" x="77" y="-37.5" font-family="Helvetica,sans-Serif" font-size="10.00">+ edgelist</text>
<text text-anchor="start" x="77" y="-26.5" font-family="Helvetica,sans-Serif" font-size="10.00">+ edgemarkerlist</text>
<polyline fill="none" stroke="black" points="69,-19.5 187,-19.5 "/>
<text text-anchor="middle" x="128" y="-7.5" font-family="Helvetica,sans-Serif" font-size="10.00"> </text>
</a>
</g>
</g>
<!-- Node2 -->
<g id="node2" class="node">
<title>Node2</title>
<g id="a_node2"><a xlink:title=" ">
<polygon fill="white" stroke="#bfbfbf" points="0,-259.5 0,-316.5 38,-316.5 38,-259.5 0,-259.5"/>
<text text-anchor="middle" x="19" y="-304.5" font-family="Helvetica,sans-Serif" font-size="10.00">int *</text>
<polyline fill="none" stroke="#bfbfbf" points="0,-297.5 38,-297.5 "/>
<text text-anchor="middle" x="19" y="-285.5" font-family="Helvetica,sans-Serif" font-size="10.00"> </text>
<polyline fill="none" stroke="#bfbfbf" points="0,-278.5 38,-278.5 "/>
<text text-anchor="middle" x="19" y="-266.5" font-family="Helvetica,sans-Serif" font-size="10.00"> </text>
</a>
</g>
</g>
<!-- Node2&#45;&gt;Node1 -->
<g id="edge1" class="edge">
<title>Node2&#45;&gt;Node1</title>
<path fill="none" stroke="#404040" d="M15.78,-259.24C13.1,-224.35 13.05,-163.72 38,-120 43.62,-110.15 51.3,-101.28 59.82,-93.45"/>
<polygon fill="none" stroke="#404040" points="59.82,-93.45 61.79,-86.51 68.95,-85.67 66.98,-92.6 59.82,-93.45"/>
<text text-anchor="middle" x="81" y="-178" font-family="Helvetica,sans-Serif" font-size="10.00"> +pointmarkerlist</text>
</g>
<!-- Node3 -->
<g id="node3" class="node">
<title>Node3</title>
<g id="a_node3"><a xlink:title=" ">
<polygon fill="white" stroke="#bfbfbf" points="103,-259.5 103,-316.5 153,-316.5 153,-259.5 103,-259.5"/>
<text text-anchor="middle" x="128" y="-304.5" font-family="Helvetica,sans-Serif" font-size="10.00">REAL *</text>
<polyline fill="none" stroke="#bfbfbf" points="103,-297.5 153,-297.5 "/>
<text text-anchor="middle" x="128" y="-285.5" font-family="Helvetica,sans-Serif" font-size="10.00"> </text>
<polyline fill="none" stroke="#bfbfbf" points="103,-278.5 153,-278.5 "/>
<text text-anchor="middle" x="128" y="-266.5" font-family="Helvetica,sans-Serif" font-size="10.00"> </text>
</a>
</g>
</g>
<!-- Node3&#45;&gt;Node1 -->
<g id="edge2" class="edge">
<title>Node3&#45;&gt;Node1</title>
<path fill="none" stroke="#404040" d="M128,-259.12C128,-223.52 128,-160.89 128,-113.79"/>
<polygon fill="none" stroke="#404040" points="128,-113.57 124,-107.57 128,-101.57 132,-107.57 128,-113.57"/>
<text text-anchor="middle" x="179.5" y="-211" font-family="Helvetica,sans-Serif" font-size="10.00"> +regionlist</text>
<text text-anchor="middle" x="179.5" y="-200" font-family="Helvetica,sans-Serif" font-size="10.00">+pointattributelist</text>
<text text-anchor="middle" x="179.5" y="-189" font-family="Helvetica,sans-Serif" font-size="10.00">+pointlist</text>
<text text-anchor="middle" x="179.5" y="-178" font-family="Helvetica,sans-Serif" font-size="10.00">+trianglearealist</text>
<text text-anchor="middle" x="179.5" y="-167" font-family="Helvetica,sans-Serif" font-size="10.00">+normlist</text>
<text text-anchor="middle" x="179.5" y="-156" font-family="Helvetica,sans-Serif" font-size="10.00">+triangleattributelist</text>
<text text-anchor="middle" x="179.5" y="-145" font-family="Helvetica,sans-Serif" font-size="10.00">+holelist</text>
</g>
<!-- Node4 -->
<g id="node4" class="node">
<title>Node4</title>
<g id="a_node4"><a xlink:title=" ">
<polygon fill="white" stroke="#bfbfbf" points="239.5,-259.5 239.5,-316.5 268.5,-316.5 268.5,-259.5 239.5,-259.5"/>
<text text-anchor="middle" x="254" y="-304.5" font-family="Helvetica,sans-Serif" font-size="10.00">int</text>
<polyline fill="none" stroke="#bfbfbf" points="239.5,-297.5 268.5,-297.5 "/>
<text text-anchor="middle" x="254" y="-285.5" font-family="Helvetica,sans-Serif" font-size="10.00"> </text>
<polyline fill="none" stroke="#bfbfbf" points="239.5,-278.5 268.5,-278.5 "/>
<text text-anchor="middle" x="254" y="-266.5" font-family="Helvetica,sans-Serif" font-size="10.00"> </text>
</a>
</g>
</g>
<!-- Node4&#45;&gt;Node1 -->
<g id="edge3" class="edge">
<title>Node4&#45;&gt;Node1</title>
<path fill="none" stroke="#404040" d="M257.05,-259.22C259.51,-224.04 258.93,-162.83 232,-120 223.4,-106.32 210.93,-94.82 197.58,-85.41"/>
<polygon fill="none" stroke="#404040" points="197.28,-85.21 190.07,-85.25 187.26,-78.61 194.47,-78.57 197.28,-85.21"/>
<text text-anchor="middle" x="327.5" y="-233" font-family="Helvetica,sans-Serif" font-size="10.00"> +numberofsegments</text>
<text text-anchor="middle" x="327.5" y="-222" font-family="Helvetica,sans-Serif" font-size="10.00">+segmentmarkerlist</text>
<text text-anchor="middle" x="327.5" y="-211" font-family="Helvetica,sans-Serif" font-size="10.00">+numberofedges</text>
<text text-anchor="middle" x="327.5" y="-200" font-family="Helvetica,sans-Serif" font-size="10.00">+segmentlist</text>
<text text-anchor="middle" x="327.5" y="-189" font-family="Helvetica,sans-Serif" font-size="10.00">+numberofpointattributes</text>
<text text-anchor="middle" x="327.5" y="-178" font-family="Helvetica,sans-Serif" font-size="10.00">+trianglelist</text>
<text text-anchor="middle" x="327.5" y="-167" font-family="Helvetica,sans-Serif" font-size="10.00">+numberofholes</text>
<text text-anchor="middle" x="327.5" y="-156" font-family="Helvetica,sans-Serif" font-size="10.00">+neighborlist</text>
<text text-anchor="middle" x="327.5" y="-145" font-family="Helvetica,sans-Serif" font-size="10.00">+numberofregions</text>
<text text-anchor="middle" x="327.5" y="-134" font-family="Helvetica,sans-Serif" font-size="10.00">+numberoftriangleattributes</text>
<text text-anchor="middle" x="327.5" y="-123" font-family="Helvetica,sans-Serif" font-size="10.00">...</text>
</g>
</g>
</svg>
