<?xml version="1.0" encoding="UTF-8" standalone="no"?>
<!DOCTYPE svg PUBLIC "-//W3C//DTD SVG 1.1//EN"
 "http://www.w3.org/Graphics/SVG/1.1/DTD/svg11.dtd">
<!-- Generated by graphviz version 2.40.1 (20161225.0304)
 -->
<!-- Title: nlohmann::detail::is_constructible_array_type_impl&lt; BasicJsonType, ConstructibleArrayType, enable_if_t&lt; std::is_same&lt; ConstructibleArrayType, typename BasicJsonType::value_type &gt;::value &gt; &gt; Pages: 1 -->
<svg width="205pt" height="226pt"
 viewBox="0.00 0.00 205.00 226.00" xmlns="http://www.w3.org/2000/svg" xmlns:xlink="http://www.w3.org/1999/xlink">
<g id="graph0" class="graph" transform="scale(1 1) rotate(0) translate(4 222)">
<title>nlohmann::detail::is_constructible_array_type_impl&lt; BasicJsonType, ConstructibleArrayType, enable_if_t&lt; std::is_same&lt; ConstructibleArrayType, typename BasicJsonType::value_type &gt;::value &gt; &gt;</title>
<polygon fill="#ffffff" stroke="transparent" points="-4,4 -4,-222 201,-222 201,4 -4,4"/>
<!-- Node0 -->
<g id="node1" class="node">
<title>Node0</title>
<polygon fill="#bfbfbf" stroke="#000000" points="0,-.5 0,-123.5 197,-123.5 197,-.5 0,-.5"/>
<text text-anchor="start" x="8" y="-111.5" font-family="Helvetica,sans-Serif" font-size="10.00" fill="#000000">nlohmann::detail::is</text>
<text text-anchor="start" x="8" y="-100.5" font-family="Helvetica,sans-Serif" font-size="10.00" fill="#000000">_constructible_array</text>
<text text-anchor="start" x="8" y="-89.5" font-family="Helvetica,sans-Serif" font-size="10.00" fill="#000000">_type_impl&lt; BasicJsonType,</text>
<text text-anchor="start" x="8" y="-78.5" font-family="Helvetica,sans-Serif" font-size="10.00" fill="#000000"> ConstructibleArrayType,</text>
<text text-anchor="start" x="8" y="-67.5" font-family="Helvetica,sans-Serif" font-size="10.00" fill="#000000"> enable_if_t&lt; std::is_same</text>
<text text-anchor="start" x="8" y="-56.5" font-family="Helvetica,sans-Serif" font-size="10.00" fill="#000000">&lt; ConstructibleArrayType, typename</text>
<text text-anchor="middle" x="98.5" y="-45.5" font-family="Helvetica,sans-Serif" font-size="10.00" fill="#000000"> BasicJsonType::value_type &gt;::value &gt; &gt;</text>
<polyline fill="none" stroke="#000000" points="0,-38.5 197,-38.5 "/>
<text text-anchor="middle" x="98.5" y="-26.5" font-family="Helvetica,sans-Serif" font-size="10.00" fill="#000000"> </text>
<polyline fill="none" stroke="#000000" points="0,-19.5 197,-19.5 "/>
<text text-anchor="middle" x="98.5" y="-7.5" font-family="Helvetica,sans-Serif" font-size="10.00" fill="#000000"> </text>
</g>
<!-- Node1 -->
<g id="node2" class="node">
<title>Node1</title>
<polygon fill="#ffffff" stroke="#bfbfbf" points="70,-160.5 70,-217.5 127,-217.5 127,-160.5 70,-160.5"/>
<text text-anchor="middle" x="98.5" y="-205.5" font-family="Helvetica,sans-Serif" font-size="10.00" fill="#000000">true_type</text>
<polyline fill="none" stroke="#bfbfbf" points="70,-198.5 127,-198.5 "/>
<text text-anchor="middle" x="98.5" y="-186.5" font-family="Helvetica,sans-Serif" font-size="10.00" fill="#000000"> </text>
<polyline fill="none" stroke="#bfbfbf" points="70,-179.5 127,-179.5 "/>
<text text-anchor="middle" x="98.5" y="-167.5" font-family="Helvetica,sans-Serif" font-size="10.00" fill="#000000"> </text>
</g>
<!-- Node1&#45;&gt;Node0 -->
<g id="edge1" class="edge">
<title>Node1&#45;&gt;Node0</title>
<path fill="none" stroke="#191970" d="M98.5,-150.2486C98.5,-141.8213 98.5,-132.7045 98.5,-123.6384"/>
<polygon fill="none" stroke="#191970" points="95.0001,-150.4987 98.5,-160.4987 102.0001,-150.4988 95.0001,-150.4987"/>
</g>
</g>
</svg>
