<?xml version="1.0" encoding="UTF-8" standalone="no"?>
<!DOCTYPE svg PUBLIC "-//W3C//DTD SVG 1.1//EN"
 "http://www.w3.org/Graphics/SVG/1.1/DTD/svg11.dtd">
<!-- Generated by graphviz version 2.40.1 (20161225.0304)
 -->
<!-- Title: badsubseg Pages: 1 -->
<svg width="100pt" height="193pt"
 viewBox="0.00 0.00 100.00 193.00" xmlns="http://www.w3.org/2000/svg" xmlns:xlink="http://www.w3.org/1999/xlink">
<g id="graph0" class="graph" transform="scale(1 1) rotate(0) translate(4 189)">
<title>badsubseg</title>
<polygon fill="#ffffff" stroke="transparent" points="-4,4 -4,-189 96,-189 96,4 -4,4"/>
<!-- Node1 -->
<g id="node1" class="node">
<title>Node1</title>
<polygon fill="#bfbfbf" stroke="#000000" points="0,-.5 0,-57.5 64,-57.5 64,-.5 0,-.5"/>
<text text-anchor="middle" x="32" y="-45.5" font-family="Helvetica,sans-Serif" font-size="10.00" fill="#000000">badsubseg</text>
<polyline fill="none" stroke="#000000" points="0,-38.5 64,-38.5 "/>
<text text-anchor="middle" x="32" y="-26.5" font-family="Helvetica,sans-Serif" font-size="10.00" fill="#000000"> </text>
<polyline fill="none" stroke="#000000" points="0,-19.5 64,-19.5 "/>
<text text-anchor="middle" x="32" y="-7.5" font-family="Helvetica,sans-Serif" font-size="10.00" fill="#000000"> </text>
</g>
<!-- Node2 -->
<g id="node2" class="node">
<title>Node2</title>
<polygon fill="#ffffff" stroke="#bfbfbf" points="10.5,-127.5 10.5,-184.5 53.5,-184.5 53.5,-127.5 10.5,-127.5"/>
<text text-anchor="middle" x="32" y="-172.5" font-family="Helvetica,sans-Serif" font-size="10.00" fill="#000000">REAL</text>
<polyline fill="none" stroke="#bfbfbf" points="10.5,-165.5 53.5,-165.5 "/>
<text text-anchor="middle" x="32" y="-153.5" font-family="Helvetica,sans-Serif" font-size="10.00" fill="#000000"> </text>
<polyline fill="none" stroke="#bfbfbf" points="10.5,-146.5 53.5,-146.5 "/>
<text text-anchor="middle" x="32" y="-134.5" font-family="Helvetica,sans-Serif" font-size="10.00" fill="#000000"> </text>
</g>
<!-- Node2&#45;&gt;Node1 -->
<g id="edge1" class="edge">
<title>Node2&#45;&gt;Node1</title>
<path fill="none" stroke="#404040" d="M32,-127.4987C32,-110.5423 32,-88.7438 32,-69.9661"/>
<polygon fill="none" stroke="#404040" points="32.0001,-69.8456 28,-63.8456 32,-57.8456 36,-63.8455 32.0001,-69.8456"/>
<text text-anchor="middle" x="62" y="-101" font-family="Helvetica,sans-Serif" font-size="10.00" fill="#000000"> +subsegdest</text>
<text text-anchor="middle" x="62" y="-90" font-family="Helvetica,sans-Serif" font-size="10.00" fill="#000000">+subsegorg</text>
<text text-anchor="middle" x="62" y="-79" font-family="Helvetica,sans-Serif" font-size="10.00" fill="#000000">+encsubseg</text>
</g>
</g>
</svg>
