<?xml version="1.0" encoding="UTF-8" standalone="no"?>
<!DOCTYPE svg PUBLIC "-//W3C//DTD SVG 1.1//EN"
 "http://www.w3.org/Graphics/SVG/1.1/DTD/svg11.dtd">
<!-- Generated by graphviz version 2.40.1 (20161225.0304)
 -->
<!-- Title: nlohmann::detail::is_compatible_object_type&lt; BasicJsonType, CompatibleObjectType &gt; Pages: 1 -->
<svg width="287pt" height="471pt"
 viewBox="0.00 0.00 286.50 471.00" xmlns="http://www.w3.org/2000/svg" xmlns:xlink="http://www.w3.org/1999/xlink">
<g id="graph0" class="graph" transform="scale(1 1) rotate(0) translate(4 467)">
<title>nlohmann::detail::is_compatible_object_type&lt; BasicJsonType, CompatibleObjectType &gt;</title>
<polygon fill="#ffffff" stroke="transparent" points="-4,4 -4,-467 282.5,-467 282.5,4 -4,4"/>
<!-- Node4 -->
<g id="node1" class="node">
<title>Node4</title>
<polygon fill="#bfbfbf" stroke="#000000" points="0,-.5 0,-90.5 177,-90.5 177,-.5 0,-.5"/>
<text text-anchor="start" x="8" y="-78.5" font-family="Helvetica,sans-Serif" font-size="10.00" fill="#000000">nlohmann::detail::is</text>
<text text-anchor="start" x="8" y="-67.5" font-family="Helvetica,sans-Serif" font-size="10.00" fill="#000000">_compatible_object_type</text>
<text text-anchor="start" x="8" y="-56.5" font-family="Helvetica,sans-Serif" font-size="10.00" fill="#000000">&lt; BasicJsonType, CompatibleObject</text>
<text text-anchor="middle" x="88.5" y="-45.5" font-family="Helvetica,sans-Serif" font-size="10.00" fill="#000000">Type &gt;</text>
<polyline fill="none" stroke="#000000" points="0,-38.5 177,-38.5 "/>
<text text-anchor="middle" x="88.5" y="-26.5" font-family="Helvetica,sans-Serif" font-size="10.00" fill="#000000"> </text>
<polyline fill="none" stroke="#000000" points="0,-19.5 177,-19.5 "/>
<text text-anchor="middle" x="88.5" y="-7.5" font-family="Helvetica,sans-Serif" font-size="10.00" fill="#000000"> </text>
</g>
<!-- Node5 -->
<g id="node2" class="node">
<title>Node5</title>
<g id="a_node2"><a xlink:href="structnlohmann_1_1detail_1_1is__compatible__object__type__impl.html" target="_top" xlink:title="{nlohmann::detail::is\l_compatible_object_type\l_impl\&lt; BasicJsonType, Compatible\lObjectType \&gt;\n||}">
<polygon fill="#ffffff" stroke="#000000" points="2.5,-128.5 2.5,-218.5 174.5,-218.5 174.5,-128.5 2.5,-128.5"/>
<text text-anchor="start" x="10.5" y="-206.5" font-family="Helvetica,sans-Serif" font-size="10.00" fill="#000000">nlohmann::detail::is</text>
<text text-anchor="start" x="10.5" y="-195.5" font-family="Helvetica,sans-Serif" font-size="10.00" fill="#000000">_compatible_object_type</text>
<text text-anchor="start" x="10.5" y="-184.5" font-family="Helvetica,sans-Serif" font-size="10.00" fill="#000000">_impl&lt; BasicJsonType, Compatible</text>
<text text-anchor="middle" x="88.5" y="-173.5" font-family="Helvetica,sans-Serif" font-size="10.00" fill="#000000">ObjectType &gt;</text>
<polyline fill="none" stroke="#000000" points="2.5,-166.5 174.5,-166.5 "/>
<text text-anchor="middle" x="88.5" y="-154.5" font-family="Helvetica,sans-Serif" font-size="10.00" fill="#000000"> </text>
<polyline fill="none" stroke="#000000" points="2.5,-147.5 174.5,-147.5 "/>
<text text-anchor="middle" x="88.5" y="-135.5" font-family="Helvetica,sans-Serif" font-size="10.00" fill="#000000"> </text>
</a>
</g>
</g>
<!-- Node5&#45;&gt;Node4 -->
<g id="edge1" class="edge">
<title>Node5&#45;&gt;Node4</title>
<path fill="none" stroke="#191970" d="M88.5,-118.1492C88.5,-108.9671 88.5,-99.5431 88.5,-90.6519"/>
<polygon fill="none" stroke="#191970" points="85.0001,-118.372 88.5,-128.372 92.0001,-118.372 85.0001,-118.372"/>
</g>
<!-- Node6 -->
<g id="node3" class="node">
<title>Node6</title>
<polygon fill="#ffffff" stroke="#bfbfbf" points="53.5,-405.5 53.5,-462.5 115.5,-462.5 115.5,-405.5 53.5,-405.5"/>
<text text-anchor="middle" x="84.5" y="-450.5" font-family="Helvetica,sans-Serif" font-size="10.00" fill="#000000">false_type</text>
<polyline fill="none" stroke="#bfbfbf" points="53.5,-443.5 115.5,-443.5 "/>
<text text-anchor="middle" x="84.5" y="-431.5" font-family="Helvetica,sans-Serif" font-size="10.00" fill="#000000"> </text>
<polyline fill="none" stroke="#bfbfbf" points="53.5,-424.5 115.5,-424.5 "/>
<text text-anchor="middle" x="84.5" y="-412.5" font-family="Helvetica,sans-Serif" font-size="10.00" fill="#000000"> </text>
</g>
<!-- Node6&#45;&gt;Node5 -->
<g id="edge2" class="edge">
<title>Node6&#45;&gt;Node5</title>
<path fill="none" stroke="#191970" d="M85.0989,-394.9934C85.8239,-347.7842 87.0422,-268.4421 87.8069,-218.6363"/>
<polygon fill="none" stroke="#191970" points="81.5974,-395.074 84.9434,-405.1266 88.5966,-395.1816 81.5974,-395.074"/>
</g>
<!-- Node7 -->
<g id="node4" class="node">
<title>Node7</title>
<g id="a_node4"><a xlink:href="structnlohmann_1_1detail_1_1is__compatible__object__type__impl.html" target="_top" xlink:title="{nlohmann::detail::is\l_compatible_object_type\l_impl\&lt; BasicJsonType, Compatible\lObjectType, typename \&gt;\n||}">
<polygon fill="#ffffff" stroke="#000000" points="100.5,-277.5 100.5,-367.5 272.5,-367.5 272.5,-277.5 100.5,-277.5"/>
<text text-anchor="start" x="108.5" y="-355.5" font-family="Helvetica,sans-Serif" font-size="10.00" fill="#000000">nlohmann::detail::is</text>
<text text-anchor="start" x="108.5" y="-344.5" font-family="Helvetica,sans-Serif" font-size="10.00" fill="#000000">_compatible_object_type</text>
<text text-anchor="start" x="108.5" y="-333.5" font-family="Helvetica,sans-Serif" font-size="10.00" fill="#000000">_impl&lt; BasicJsonType, Compatible</text>
<text text-anchor="middle" x="186.5" y="-322.5" font-family="Helvetica,sans-Serif" font-size="10.00" fill="#000000">ObjectType, typename &gt;</text>
<polyline fill="none" stroke="#000000" points="100.5,-315.5 272.5,-315.5 "/>
<text text-anchor="middle" x="186.5" y="-303.5" font-family="Helvetica,sans-Serif" font-size="10.00" fill="#000000"> </text>
<polyline fill="none" stroke="#000000" points="100.5,-296.5 272.5,-296.5 "/>
<text text-anchor="middle" x="186.5" y="-284.5" font-family="Helvetica,sans-Serif" font-size="10.00" fill="#000000"> </text>
</a>
</g>
</g>
<!-- Node6&#45;&gt;Node7 -->
<g id="edge4" class="edge">
<title>Node6&#45;&gt;Node7</title>
<path fill="none" stroke="#191970" d="M117.6391,-397.7745C126.455,-388.1374 136.086,-377.6094 145.2769,-367.5626"/>
<polygon fill="none" stroke="#191970" points="114.9349,-395.5451 110.7675,-405.286 120.0998,-400.27 114.9349,-395.5451"/>
</g>
<!-- Node7&#45;&gt;Node5 -->
<g id="edge3" class="edge">
<title>Node7&#45;&gt;Node5</title>
<path fill="none" stroke="#ffa500" d="M151.273,-268.9406C140.4511,-252.4869 128.6536,-234.5499 118.2373,-218.7129"/>
<polygon fill="#ffa500" stroke="#ffa500" points="148.4114,-270.9592 156.8308,-277.3907 154.2598,-267.1126 148.4114,-270.9592"/>
<text text-anchor="start" x="142.5" y="-251" font-family="Helvetica,sans-Serif" font-size="10.00" fill="#000000"> &lt; BasicJsonType, Compatible</text>
<text text-anchor="middle" x="210.5" y="-240" font-family="Helvetica,sans-Serif" font-size="10.00" fill="#000000">ObjectType &gt;</text>
</g>
</g>
</svg>
