<?xml version="1.0" encoding="UTF-8" standalone="no"?>
<!DOCTYPE svg PUBLIC "-//W3C//DTD SVG 1.1//EN"
 "http://www.w3.org/Graphics/SVG/1.1/DTD/svg11.dtd">
<!-- Generated by graphviz version 2.40.1 (20161225.0304)
 -->
<!-- Title: nlohmann::detail::is_constructible_array_type&lt; BasicJsonType, ConstructibleArrayType &gt; Pages: 1 -->
<svg width="268pt" height="482pt"
 viewBox="0.00 0.00 267.50 482.00" xmlns="http://www.w3.org/2000/svg" xmlns:xlink="http://www.w3.org/1999/xlink">
<g id="graph0" class="graph" transform="scale(1 1) rotate(0) translate(4 478)">
<title>nlohmann::detail::is_constructible_array_type&lt; BasicJsonType, ConstructibleArrayType &gt;</title>
<polygon fill="#ffffff" stroke="transparent" points="-4,4 -4,-478 263.5,-478 263.5,4 -4,4"/>
<!-- Node4 -->
<g id="node1" class="node">
<title>Node4</title>
<polygon fill="#bfbfbf" stroke="#000000" points="6,-.5 6,-90.5 137,-90.5 137,-.5 6,-.5"/>
<text text-anchor="start" x="14" y="-78.5" font-family="Helvetica,sans-Serif" font-size="10.00" fill="#000000">nlohmann::detail::is</text>
<text text-anchor="start" x="14" y="-67.5" font-family="Helvetica,sans-Serif" font-size="10.00" fill="#000000">_constructible_array</text>
<text text-anchor="start" x="14" y="-56.5" font-family="Helvetica,sans-Serif" font-size="10.00" fill="#000000">_type&lt; BasicJsonType,</text>
<text text-anchor="middle" x="71.5" y="-45.5" font-family="Helvetica,sans-Serif" font-size="10.00" fill="#000000"> ConstructibleArrayType &gt;</text>
<polyline fill="none" stroke="#000000" points="6,-38.5 137,-38.5 "/>
<text text-anchor="middle" x="71.5" y="-26.5" font-family="Helvetica,sans-Serif" font-size="10.00" fill="#000000"> </text>
<polyline fill="none" stroke="#000000" points="6,-19.5 137,-19.5 "/>
<text text-anchor="middle" x="71.5" y="-7.5" font-family="Helvetica,sans-Serif" font-size="10.00" fill="#000000"> </text>
</g>
<!-- Node5 -->
<g id="node2" class="node">
<title>Node5</title>
<g id="a_node2"><a xlink:href="structnlohmann_1_1detail_1_1is__constructible__array__type__impl.html" target="_top" xlink:title="{nlohmann::detail::is\l_constructible_array\l_type_impl\&lt; BasicJsonType,\l ConstructibleArrayType \&gt;\n||}">
<polygon fill="#ffffff" stroke="#000000" points="0,-128.5 0,-218.5 143,-218.5 143,-128.5 0,-128.5"/>
<text text-anchor="start" x="8" y="-206.5" font-family="Helvetica,sans-Serif" font-size="10.00" fill="#000000">nlohmann::detail::is</text>
<text text-anchor="start" x="8" y="-195.5" font-family="Helvetica,sans-Serif" font-size="10.00" fill="#000000">_constructible_array</text>
<text text-anchor="start" x="8" y="-184.5" font-family="Helvetica,sans-Serif" font-size="10.00" fill="#000000">_type_impl&lt; BasicJsonType,</text>
<text text-anchor="middle" x="71.5" y="-173.5" font-family="Helvetica,sans-Serif" font-size="10.00" fill="#000000"> ConstructibleArrayType &gt;</text>
<polyline fill="none" stroke="#000000" points="0,-166.5 143,-166.5 "/>
<text text-anchor="middle" x="71.5" y="-154.5" font-family="Helvetica,sans-Serif" font-size="10.00" fill="#000000"> </text>
<polyline fill="none" stroke="#000000" points="0,-147.5 143,-147.5 "/>
<text text-anchor="middle" x="71.5" y="-135.5" font-family="Helvetica,sans-Serif" font-size="10.00" fill="#000000"> </text>
</a>
</g>
</g>
<!-- Node5&#45;&gt;Node4 -->
<g id="edge1" class="edge">
<title>Node5&#45;&gt;Node4</title>
<path fill="none" stroke="#191970" d="M71.5,-118.1492C71.5,-108.9671 71.5,-99.5431 71.5,-90.6519"/>
<polygon fill="none" stroke="#191970" points="68.0001,-118.372 71.5,-128.372 75.0001,-118.372 68.0001,-118.372"/>
</g>
<!-- Node6 -->
<g id="node3" class="node">
<title>Node6</title>
<polygon fill="#ffffff" stroke="#bfbfbf" points="36.5,-416.5 36.5,-473.5 98.5,-473.5 98.5,-416.5 36.5,-416.5"/>
<text text-anchor="middle" x="67.5" y="-461.5" font-family="Helvetica,sans-Serif" font-size="10.00" fill="#000000">false_type</text>
<polyline fill="none" stroke="#bfbfbf" points="36.5,-454.5 98.5,-454.5 "/>
<text text-anchor="middle" x="67.5" y="-442.5" font-family="Helvetica,sans-Serif" font-size="10.00" fill="#000000"> </text>
<polyline fill="none" stroke="#bfbfbf" points="36.5,-435.5 98.5,-435.5 "/>
<text text-anchor="middle" x="67.5" y="-423.5" font-family="Helvetica,sans-Serif" font-size="10.00" fill="#000000"> </text>
</g>
<!-- Node6&#45;&gt;Node5 -->
<g id="edge2" class="edge">
<title>Node6&#45;&gt;Node5</title>
<path fill="none" stroke="#191970" d="M68.0722,-406.1618C68.802,-356.6244 70.0619,-271.1126 70.834,-218.7019"/>
<polygon fill="none" stroke="#191970" points="64.5683,-406.4074 67.9205,-416.4579 71.5675,-406.5106 64.5683,-406.4074"/>
</g>
<!-- Node7 -->
<g id="node4" class="node">
<title>Node7</title>
<g id="a_node4"><a xlink:href="structnlohmann_1_1detail_1_1is__constructible__array__type__impl.html" target="_top" xlink:title="{nlohmann::detail::is\l_constructible_array\l_type_impl\&lt; BasicJsonType,\l ConstructibleArrayType,\l typename \&gt;\n||}">
<polygon fill="#ffffff" stroke="#000000" points="84,-277.5 84,-378.5 227,-378.5 227,-277.5 84,-277.5"/>
<text text-anchor="start" x="92" y="-366.5" font-family="Helvetica,sans-Serif" font-size="10.00" fill="#000000">nlohmann::detail::is</text>
<text text-anchor="start" x="92" y="-355.5" font-family="Helvetica,sans-Serif" font-size="10.00" fill="#000000">_constructible_array</text>
<text text-anchor="start" x="92" y="-344.5" font-family="Helvetica,sans-Serif" font-size="10.00" fill="#000000">_type_impl&lt; BasicJsonType,</text>
<text text-anchor="start" x="92" y="-333.5" font-family="Helvetica,sans-Serif" font-size="10.00" fill="#000000"> ConstructibleArrayType,</text>
<text text-anchor="middle" x="155.5" y="-322.5" font-family="Helvetica,sans-Serif" font-size="10.00" fill="#000000"> typename &gt;</text>
<polyline fill="none" stroke="#000000" points="84,-315.5 227,-315.5 "/>
<text text-anchor="middle" x="155.5" y="-303.5" font-family="Helvetica,sans-Serif" font-size="10.00" fill="#000000"> </text>
<polyline fill="none" stroke="#000000" points="84,-296.5 227,-296.5 "/>
<text text-anchor="middle" x="155.5" y="-284.5" font-family="Helvetica,sans-Serif" font-size="10.00" fill="#000000"> </text>
</a>
</g>
</g>
<!-- Node6&#45;&gt;Node7 -->
<g id="edge4" class="edge">
<title>Node6&#45;&gt;Node7</title>
<path fill="none" stroke="#191970" d="M95.0532,-408.3668C102.1301,-398.9576 109.8702,-388.6669 117.3778,-378.6852"/>
<polygon fill="none" stroke="#191970" points="92.241,-406.2829 89.0272,-416.3786 97.8353,-410.4906 92.241,-406.2829"/>
</g>
<!-- Node7&#45;&gt;Node5 -->
<g id="edge3" class="edge">
<title>Node7&#45;&gt;Node5</title>
<path fill="none" stroke="#ffa500" d="M123.0874,-268.384C114.1191,-251.8888 104.5348,-234.2604 96.091,-218.7299"/>
<polygon fill="#ffa500" stroke="#ffa500" points="120.1437,-270.2973 127.9953,-277.4109 126.2936,-266.9536 120.1437,-270.2973"/>
<text text-anchor="start" x="115.5" y="-251" font-family="Helvetica,sans-Serif" font-size="10.00" fill="#000000"> &lt; BasicJsonType, Constructible</text>
<text text-anchor="middle" x="187.5" y="-240" font-family="Helvetica,sans-Serif" font-size="10.00" fill="#000000">ArrayType &gt;</text>
</g>
</g>
</svg>
