<?xml version="1.0" encoding="UTF-8" standalone="no"?>
<!DOCTYPE svg PUBLIC "-//W3C//DTD SVG 1.1//EN"
 "http://www.w3.org/Graphics/SVG/1.1/DTD/svg11.dtd">
<!-- Generated by graphviz version 2.40.1 (20161225.0304)
 -->
<!-- Title: nlohmann::detail::make_index_sequence&lt; 0 &gt; Pages: 1 -->
<svg width="126pt" height="299pt"
 viewBox="0.00 0.00 126.00 299.00" xmlns="http://www.w3.org/2000/svg" xmlns:xlink="http://www.w3.org/1999/xlink">
<g id="graph0" class="graph" transform="scale(1 1) rotate(0) translate(4 295)">
<title>nlohmann::detail::make_index_sequence&lt; 0 &gt;</title>
<polygon fill="#ffffff" stroke="transparent" points="-4,4 -4,-295 122,-295 122,4 -4,4"/>
<!-- Node0 -->
<g id="node1" class="node">
<title>Node0</title>
<polygon fill="#bfbfbf" stroke="#000000" points="0,-.5 0,-68.5 118,-68.5 118,-.5 0,-.5"/>
<text text-anchor="start" x="8" y="-56.5" font-family="Helvetica,sans-Serif" font-size="10.00" fill="#000000">nlohmann::detail::make</text>
<text text-anchor="middle" x="59" y="-45.5" font-family="Helvetica,sans-Serif" font-size="10.00" fill="#000000">_index_sequence&lt; 0 &gt;</text>
<polyline fill="none" stroke="#000000" points="0,-38.5 118,-38.5 "/>
<text text-anchor="middle" x="59" y="-26.5" font-family="Helvetica,sans-Serif" font-size="10.00" fill="#000000"> </text>
<polyline fill="none" stroke="#000000" points="0,-19.5 118,-19.5 "/>
<text text-anchor="middle" x="59" y="-7.5" font-family="Helvetica,sans-Serif" font-size="10.00" fill="#000000"> </text>
</g>
<!-- Node1 -->
<g id="node2" class="node">
<title>Node1</title>
<g id="a_node2"><a xlink:href="structnlohmann_1_1detail_1_1index__sequence.html" target="_top" xlink:title="{nlohmann::detail::index\l_sequence\&lt;\&gt;\n||+ size()\l}">
<polygon fill="#ffffff" stroke="#000000" points=".5,-106.5 .5,-174.5 117.5,-174.5 117.5,-106.5 .5,-106.5"/>
<text text-anchor="start" x="8.5" y="-162.5" font-family="Helvetica,sans-Serif" font-size="10.00" fill="#000000">nlohmann::detail::index</text>
<text text-anchor="middle" x="59" y="-151.5" font-family="Helvetica,sans-Serif" font-size="10.00" fill="#000000">_sequence&lt;&gt;</text>
<polyline fill="none" stroke="#000000" points=".5,-144.5 117.5,-144.5 "/>
<text text-anchor="middle" x="59" y="-132.5" font-family="Helvetica,sans-Serif" font-size="10.00" fill="#000000"> </text>
<polyline fill="none" stroke="#000000" points=".5,-125.5 117.5,-125.5 "/>
<text text-anchor="start" x="8.5" y="-113.5" font-family="Helvetica,sans-Serif" font-size="10.00" fill="#000000">+ size()</text>
</a>
</g>
</g>
<!-- Node1&#45;&gt;Node0 -->
<g id="edge1" class="edge">
<title>Node1&#45;&gt;Node0</title>
<path fill="none" stroke="#191970" d="M59,-96.1711C59,-86.9405 59,-77.3493 59,-68.5586"/>
<polygon fill="none" stroke="#191970" points="55.5001,-96.3774 59,-106.3775 62.5001,-96.3775 55.5001,-96.3774"/>
</g>
<!-- Node2 -->
<g id="node3" class="node">
<title>Node2</title>
<g id="a_node3"><a xlink:href="structnlohmann_1_1detail_1_1index__sequence.html" target="_top" xlink:title="{nlohmann::detail::index\l_sequence\&lt; Ints \&gt;\n||+ size()\l}">
<polygon fill="#ffffff" stroke="#000000" points=".5,-222.5 .5,-290.5 117.5,-290.5 117.5,-222.5 .5,-222.5"/>
<text text-anchor="start" x="8.5" y="-278.5" font-family="Helvetica,sans-Serif" font-size="10.00" fill="#000000">nlohmann::detail::index</text>
<text text-anchor="middle" x="59" y="-267.5" font-family="Helvetica,sans-Serif" font-size="10.00" fill="#000000">_sequence&lt; Ints &gt;</text>
<polyline fill="none" stroke="#000000" points=".5,-260.5 117.5,-260.5 "/>
<text text-anchor="middle" x="59" y="-248.5" font-family="Helvetica,sans-Serif" font-size="10.00" fill="#000000"> </text>
<polyline fill="none" stroke="#000000" points=".5,-241.5 117.5,-241.5 "/>
<text text-anchor="start" x="8.5" y="-229.5" font-family="Helvetica,sans-Serif" font-size="10.00" fill="#000000">+ size()</text>
</a>
</g>
</g>
<!-- Node2&#45;&gt;Node1 -->
<g id="edge2" class="edge">
<title>Node2&#45;&gt;Node1</title>
<path fill="none" stroke="#ffa500" d="M59,-212.1851C59,-199.8048 59,-186.5422 59,-174.833"/>
<polygon fill="#ffa500" stroke="#ffa500" points="55.5001,-212.3235 59,-222.3236 62.5001,-212.3236 55.5001,-212.3235"/>
<text text-anchor="middle" x="67" y="-196" font-family="Helvetica,sans-Serif" font-size="10.00" fill="#000000"> &lt;&gt;</text>
</g>
</g>
</svg>
