<?xml version="1.0" encoding="UTF-8" standalone="no"?>
<!DOCTYPE svg PUBLIC "-//W3C//DTD SVG 1.1//EN"
 "http://www.w3.org/Graphics/SVG/1.1/DTD/svg11.dtd">
<!-- Generated by graphviz version 2.40.1 (20161225.0304)
 -->
<!-- Title: osub Pages: 1 -->
<svg width="117pt" height="171pt"
 viewBox="0.00 0.00 117.00 171.00" xmlns="http://www.w3.org/2000/svg" xmlns:xlink="http://www.w3.org/1999/xlink">
<g id="graph0" class="graph" transform="scale(1 1) rotate(0) translate(4 167)">
<title>osub</title>
<polygon fill="#ffffff" stroke="transparent" points="-4,4 -4,-167 113,-167 113,4 -4,4"/>
<!-- Node1 -->
<g id="node1" class="node">
<title>Node1</title>
<polygon fill="#bfbfbf" stroke="#000000" points="28.5,-.5 28.5,-57.5 66.5,-57.5 66.5,-.5 28.5,-.5"/>
<text text-anchor="middle" x="47.5" y="-45.5" font-family="Helvetica,sans-Serif" font-size="10.00" fill="#000000">osub</text>
<polyline fill="none" stroke="#000000" points="28.5,-38.5 66.5,-38.5 "/>
<text text-anchor="middle" x="47.5" y="-26.5" font-family="Helvetica,sans-Serif" font-size="10.00" fill="#000000"> </text>
<polyline fill="none" stroke="#000000" points="28.5,-19.5 66.5,-19.5 "/>
<text text-anchor="middle" x="47.5" y="-7.5" font-family="Helvetica,sans-Serif" font-size="10.00" fill="#000000"> </text>
</g>
<!-- Node2 -->
<g id="node2" class="node">
<title>Node2</title>
<polygon fill="#ffffff" stroke="#bfbfbf" points="0,-105.5 0,-162.5 29,-162.5 29,-105.5 0,-105.5"/>
<text text-anchor="middle" x="14.5" y="-150.5" font-family="Helvetica,sans-Serif" font-size="10.00" fill="#000000">int</text>
<polyline fill="none" stroke="#bfbfbf" points="0,-143.5 29,-143.5 "/>
<text text-anchor="middle" x="14.5" y="-131.5" font-family="Helvetica,sans-Serif" font-size="10.00" fill="#000000"> </text>
<polyline fill="none" stroke="#bfbfbf" points="0,-124.5 29,-124.5 "/>
<text text-anchor="middle" x="14.5" y="-112.5" font-family="Helvetica,sans-Serif" font-size="10.00" fill="#000000"> </text>
</g>
<!-- Node2&#45;&gt;Node1 -->
<g id="edge1" class="edge">
<title>Node2&#45;&gt;Node1</title>
<path fill="none" stroke="#404040" d="M11.7563,-105.4457C11.6835,-95.8926 12.5432,-85.3106 15.5,-76 17.0462,-71.1312 19.2749,-66.3102 21.8471,-61.7166"/>
<polygon fill="none" stroke="#404040" points="21.8973,-61.6371 21.7243,-54.4281 28.3123,-51.4957 28.4853,-58.7048 21.8973,-61.6371"/>
<text text-anchor="middle" x="37.5" y="-79" font-family="Helvetica,sans-Serif" font-size="10.00" fill="#000000"> +ssorient</text>
</g>
<!-- Node3 -->
<g id="node3" class="node">
<title>Node3</title>
<polygon fill="#ffffff" stroke="#bfbfbf" points="54,-105.5 54,-162.5 109,-162.5 109,-105.5 54,-105.5"/>
<text text-anchor="middle" x="81.5" y="-150.5" font-family="Helvetica,sans-Serif" font-size="10.00" fill="#000000">subseg *</text>
<polyline fill="none" stroke="#bfbfbf" points="54,-143.5 109,-143.5 "/>
<text text-anchor="middle" x="81.5" y="-131.5" font-family="Helvetica,sans-Serif" font-size="10.00" fill="#000000"> </text>
<polyline fill="none" stroke="#bfbfbf" points="54,-124.5 109,-124.5 "/>
<text text-anchor="middle" x="81.5" y="-112.5" font-family="Helvetica,sans-Serif" font-size="10.00" fill="#000000"> </text>
</g>
<!-- Node3&#45;&gt;Node1 -->
<g id="edge2" class="edge">
<title>Node3&#45;&gt;Node1</title>
<path fill="none" stroke="#404040" d="M72.2094,-105.3083C68.6113,-94.1966 64.4286,-81.2796 60.5389,-69.2673"/>
<polygon fill="none" stroke="#404040" points="60.4762,-69.0734 54.8224,-64.5975 56.7794,-57.657 62.4333,-62.133 60.4762,-69.0734"/>
<text text-anchor="middle" x="75.5" y="-79" font-family="Helvetica,sans-Serif" font-size="10.00" fill="#000000"> +ss</text>
</g>
</g>
</svg>
