<?xml version="1.0" encoding="UTF-8" standalone="no"?>
<!DOCTYPE svg PUBLIC "-//W3C//DTD SVG 1.1//EN"
 "http://www.w3.org/Graphics/SVG/1.1/DTD/svg11.dtd">
<!-- Generated by graphviz version 2.40.1 (20161225.0304)
 -->
<!-- Title: nlohmann::detail::has_from_json&lt; BasicJsonType, T, enable_if_t&lt; not is_basic_json&lt; T &gt;::value &gt; &gt; Pages: 1 -->
<svg width="152pt" height="204pt"
 viewBox="0.00 0.00 152.00 204.00" xmlns="http://www.w3.org/2000/svg" xmlns:xlink="http://www.w3.org/1999/xlink">
<g id="graph0" class="graph" transform="scale(1 1) rotate(0) translate(4 200)">
<title>nlohmann::detail::has_from_json&lt; BasicJsonType, T, enable_if_t&lt; not is_basic_json&lt; T &gt;::value &gt; &gt;</title>
<polygon fill="#ffffff" stroke="transparent" points="-4,4 -4,-200 148,-200 148,4 -4,4"/>
<!-- Node1 -->
<g id="node1" class="node">
<title>Node1</title>
<polygon fill="#bfbfbf" stroke="#000000" points="0,-.5 0,-90.5 144,-90.5 144,-.5 0,-.5"/>
<text text-anchor="start" x="8" y="-78.5" font-family="Helvetica,sans-Serif" font-size="10.00" fill="#000000">nlohmann::detail::has</text>
<text text-anchor="start" x="8" y="-67.5" font-family="Helvetica,sans-Serif" font-size="10.00" fill="#000000">_from_json&lt; BasicJsonType,</text>
<text text-anchor="start" x="8" y="-56.5" font-family="Helvetica,sans-Serif" font-size="10.00" fill="#000000"> T, enable_if_t&lt; not is</text>
<text text-anchor="middle" x="72" y="-45.5" font-family="Helvetica,sans-Serif" font-size="10.00" fill="#000000">_basic_json&lt; T &gt;::value &gt; &gt;</text>
<polyline fill="none" stroke="#000000" points="0,-38.5 144,-38.5 "/>
<text text-anchor="middle" x="72" y="-26.5" font-family="Helvetica,sans-Serif" font-size="10.00" fill="#000000"> </text>
<polyline fill="none" stroke="#000000" points="0,-19.5 144,-19.5 "/>
<text text-anchor="middle" x="72" y="-7.5" font-family="Helvetica,sans-Serif" font-size="10.00" fill="#000000"> </text>
</g>
<!-- Node2 -->
<g id="node2" class="node">
<title>Node2</title>
<polygon fill="#ffffff" stroke="#bfbfbf" points="54.5,-138.5 54.5,-195.5 89.5,-195.5 89.5,-138.5 54.5,-138.5"/>
<text text-anchor="middle" x="72" y="-183.5" font-family="Helvetica,sans-Serif" font-size="10.00" fill="#000000">bool</text>
<polyline fill="none" stroke="#bfbfbf" points="54.5,-176.5 89.5,-176.5 "/>
<text text-anchor="middle" x="72" y="-164.5" font-family="Helvetica,sans-Serif" font-size="10.00" fill="#000000"> </text>
<polyline fill="none" stroke="#bfbfbf" points="54.5,-157.5 89.5,-157.5 "/>
<text text-anchor="middle" x="72" y="-145.5" font-family="Helvetica,sans-Serif" font-size="10.00" fill="#000000"> </text>
</g>
<!-- Node2&#45;&gt;Node1 -->
<g id="edge1" class="edge">
<title>Node2&#45;&gt;Node1</title>
<path fill="none" stroke="#404040" d="M72,-138.2062C72,-127.5748 72,-115.1181 72,-102.847"/>
<polygon fill="none" stroke="#404040" points="72.0001,-102.7124 68,-96.7125 72,-90.7124 76,-96.7124 72.0001,-102.7124"/>
<text text-anchor="middle" x="88.5" y="-112" font-family="Helvetica,sans-Serif" font-size="10.00" fill="#000000"> +value</text>
</g>
</g>
</svg>
