<?xml version="1.0" encoding="UTF-8" standalone="no"?>
<!DOCTYPE svg PUBLIC "-//W3C//DTD SVG 1.1//EN"
 "http://www.w3.org/Graphics/SVG/1.1/DTD/svg11.dtd">
<!-- Generated by graphviz version 2.40.1 (20161225.0304)
 -->
<!-- Title: nlohmann::detail::has_non_default_from_json&lt; BasicJsonType, T, enable_if_t&lt; not is_basic_json&lt; T &gt;::value &gt; &gt; Pages: 1 -->
<svg width="148pt" height="215pt"
 viewBox="0.00 0.00 148.00 215.00" xmlns="http://www.w3.org/2000/svg" xmlns:xlink="http://www.w3.org/1999/xlink">
<g id="graph0" class="graph" transform="scale(1 1) rotate(0) translate(4 211)">
<title>nlohmann::detail::has_non_default_from_json&lt; BasicJsonType, T, enable_if_t&lt; not is_basic_json&lt; T &gt;::value &gt; &gt;</title>
<polygon fill="#ffffff" stroke="transparent" points="-4,4 -4,-211 144,-211 144,4 -4,4"/>
<!-- Node1 -->
<g id="node1" class="node">
<title>Node1</title>
<polygon fill="#bfbfbf" stroke="#000000" points="0,-.5 0,-101.5 140,-101.5 140,-.5 0,-.5"/>
<text text-anchor="start" x="8" y="-89.5" font-family="Helvetica,sans-Serif" font-size="10.00" fill="#000000">nlohmann::detail::has</text>
<text text-anchor="start" x="8" y="-78.5" font-family="Helvetica,sans-Serif" font-size="10.00" fill="#000000">_non_default_from_json</text>
<text text-anchor="start" x="8" y="-67.5" font-family="Helvetica,sans-Serif" font-size="10.00" fill="#000000">&lt; BasicJsonType, T, enable</text>
<text text-anchor="start" x="8" y="-56.5" font-family="Helvetica,sans-Serif" font-size="10.00" fill="#000000">_if_t&lt; not is_basic_json&lt;</text>
<text text-anchor="middle" x="70" y="-45.5" font-family="Helvetica,sans-Serif" font-size="10.00" fill="#000000"> T &gt;::value &gt; &gt;</text>
<polyline fill="none" stroke="#000000" points="0,-38.5 140,-38.5 "/>
<text text-anchor="middle" x="70" y="-26.5" font-family="Helvetica,sans-Serif" font-size="10.00" fill="#000000"> </text>
<polyline fill="none" stroke="#000000" points="0,-19.5 140,-19.5 "/>
<text text-anchor="middle" x="70" y="-7.5" font-family="Helvetica,sans-Serif" font-size="10.00" fill="#000000"> </text>
</g>
<!-- Node2 -->
<g id="node2" class="node">
<title>Node2</title>
<polygon fill="#ffffff" stroke="#bfbfbf" points="16.5,-149.5 16.5,-206.5 123.5,-206.5 123.5,-149.5 16.5,-149.5"/>
<text text-anchor="middle" x="70" y="-194.5" font-family="Helvetica,sans-Serif" font-size="10.00" fill="#000000">static constexpr bool</text>
<polyline fill="none" stroke="#bfbfbf" points="16.5,-187.5 123.5,-187.5 "/>
<text text-anchor="middle" x="70" y="-175.5" font-family="Helvetica,sans-Serif" font-size="10.00" fill="#000000"> </text>
<polyline fill="none" stroke="#bfbfbf" points="16.5,-168.5 123.5,-168.5 "/>
<text text-anchor="middle" x="70" y="-156.5" font-family="Helvetica,sans-Serif" font-size="10.00" fill="#000000"> </text>
</g>
<!-- Node2&#45;&gt;Node1 -->
<g id="edge1" class="edge">
<title>Node2&#45;&gt;Node1</title>
<path fill="none" stroke="#404040" d="M70,-149.4987C70,-138.9128 70,-126.4397 70,-113.9926"/>
<polygon fill="none" stroke="#404040" points="70.0001,-113.625 66,-107.625 70,-101.625 74,-107.625 70.0001,-113.625"/>
<text text-anchor="middle" x="86.5" y="-123" font-family="Helvetica,sans-Serif" font-size="10.00" fill="#000000"> +value</text>
</g>
</g>
</svg>
