<?xml version="1.0" encoding="UTF-8" standalone="no"?>
<!DOCTYPE svg PUBLIC "-//W3C//DTD SVG 1.1//EN"
 "http://www.w3.org/Graphics/SVG/1.1/DTD/svg11.dtd">
<!-- Generated by graphviz version 2.40.1 (20161225.0304)
 -->
<!-- Title: otri Pages: 1 -->
<svg width="115pt" height="171pt"
 viewBox="0.00 0.00 114.50 171.00" xmlns="http://www.w3.org/2000/svg" xmlns:xlink="http://www.w3.org/1999/xlink">
<g id="graph0" class="graph" transform="scale(1 1) rotate(0) translate(4 167)">
<title>otri</title>
<polygon fill="#ffffff" stroke="transparent" points="-4,4 -4,-167 110.5,-167 110.5,4 -4,4"/>
<!-- Node1 -->
<g id="node1" class="node">
<title>Node1</title>
<polygon fill="#bfbfbf" stroke="#000000" points="42.5,-.5 42.5,-57.5 72.5,-57.5 72.5,-.5 42.5,-.5"/>
<text text-anchor="middle" x="57.5" y="-45.5" font-family="Helvetica,sans-Serif" font-size="10.00" fill="#000000">otri</text>
<polyline fill="none" stroke="#000000" points="42.5,-38.5 72.5,-38.5 "/>
<text text-anchor="middle" x="57.5" y="-26.5" font-family="Helvetica,sans-Serif" font-size="10.00" fill="#000000"> </text>
<polyline fill="none" stroke="#000000" points="42.5,-19.5 72.5,-19.5 "/>
<text text-anchor="middle" x="57.5" y="-7.5" font-family="Helvetica,sans-Serif" font-size="10.00" fill="#000000"> </text>
</g>
<!-- Node2 -->
<g id="node2" class="node">
<title>Node2</title>
<polygon fill="#ffffff" stroke="#bfbfbf" points="0,-105.5 0,-162.5 55,-162.5 55,-105.5 0,-105.5"/>
<text text-anchor="middle" x="27.5" y="-150.5" font-family="Helvetica,sans-Serif" font-size="10.00" fill="#000000">triangle *</text>
<polyline fill="none" stroke="#bfbfbf" points="0,-143.5 55,-143.5 "/>
<text text-anchor="middle" x="27.5" y="-131.5" font-family="Helvetica,sans-Serif" font-size="10.00" fill="#000000"> </text>
<polyline fill="none" stroke="#bfbfbf" points="0,-124.5 55,-124.5 "/>
<text text-anchor="middle" x="27.5" y="-112.5" font-family="Helvetica,sans-Serif" font-size="10.00" fill="#000000"> </text>
</g>
<!-- Node2&#45;&gt;Node1 -->
<g id="edge1" class="edge">
<title>Node2&#45;&gt;Node1</title>
<path fill="none" stroke="#404040" d="M35.6976,-105.3083C38.8724,-94.1966 42.563,-81.2796 45.9951,-69.2673"/>
<polygon fill="none" stroke="#404040" points="46.0156,-69.1953 43.8178,-62.3273 49.3123,-57.657 51.51,-64.5251 46.0156,-69.1953"/>
<text text-anchor="middle" x="52.5" y="-79" font-family="Helvetica,sans-Serif" font-size="10.00" fill="#000000"> +tri</text>
</g>
<!-- Node3 -->
<g id="node3" class="node">
<title>Node3</title>
<polygon fill="#ffffff" stroke="#bfbfbf" points="73,-105.5 73,-162.5 102,-162.5 102,-105.5 73,-105.5"/>
<text text-anchor="middle" x="87.5" y="-150.5" font-family="Helvetica,sans-Serif" font-size="10.00" fill="#000000">int</text>
<polyline fill="none" stroke="#bfbfbf" points="73,-143.5 102,-143.5 "/>
<text text-anchor="middle" x="87.5" y="-131.5" font-family="Helvetica,sans-Serif" font-size="10.00" fill="#000000"> </text>
<polyline fill="none" stroke="#bfbfbf" points="73,-124.5 102,-124.5 "/>
<text text-anchor="middle" x="87.5" y="-112.5" font-family="Helvetica,sans-Serif" font-size="10.00" fill="#000000"> </text>
</g>
<!-- Node3&#45;&gt;Node1 -->
<g id="edge2" class="edge">
<title>Node3&#45;&gt;Node1</title>
<path fill="none" stroke="#404040" d="M79.3024,-105.3083C76.1276,-94.1966 72.437,-81.2796 69.0049,-69.2673"/>
<polygon fill="none" stroke="#404040" points="68.9844,-69.1953 63.49,-64.5251 65.6877,-57.657 71.1822,-62.3273 68.9844,-69.1953"/>
<text text-anchor="middle" x="89.5" y="-79" font-family="Helvetica,sans-Serif" font-size="10.00" fill="#000000"> +orient</text>
</g>
</g>
</svg>
