<?xml version="1.0" encoding="UTF-8" standalone="no"?>
<!DOCTYPE svg PUBLIC "-//W3C//DTD SVG 1.1//EN"
 "http://www.w3.org/Graphics/SVG/1.1/DTD/svg11.dtd">
<!-- Generated by graphviz version 2.40.1 (20161225.0304)
 -->
<!-- Title: mesh Pages: 1 -->
<svg width="1166pt" height="570pt"
 viewBox="0.00 0.00 1165.50 570.00" xmlns="http://www.w3.org/2000/svg" xmlns:xlink="http://www.w3.org/1999/xlink">
<g id="graph0" class="graph" transform="scale(1 1) rotate(0) translate(4 566)">
<title>mesh</title>
<polygon fill="#ffffff" stroke="transparent" points="-4,4 -4,-566 1161.5,-566 1161.5,4 -4,4"/>
<!-- Node1 -->
<g id="node1" class="node">
<title>Node1</title>
<polygon fill="#bfbfbf" stroke="#000000" points="525.5,-.5 525.5,-156.5 619.5,-156.5 619.5,-.5 525.5,-.5"/>
<text text-anchor="middle" x="572.5" y="-144.5" font-family="Helvetica,sans-Serif" font-size="10.00" fill="#000000">mesh</text>
<polyline fill="none" stroke="#000000" points="525.5,-137.5 619.5,-137.5 "/>
<text text-anchor="start" x="533.5" y="-125.5" font-family="Helvetica,sans-Serif" font-size="10.00" fill="#000000">+ firstnonemptyq</text>
<text text-anchor="start" x="533.5" y="-114.5" font-family="Helvetica,sans-Serif" font-size="10.00" fill="#000000">+ invertices</text>
<text text-anchor="start" x="533.5" y="-103.5" font-family="Helvetica,sans-Serif" font-size="10.00" fill="#000000">+ inelements</text>
<text text-anchor="start" x="533.5" y="-92.5" font-family="Helvetica,sans-Serif" font-size="10.00" fill="#000000">+ regions</text>
<text text-anchor="start" x="533.5" y="-81.5" font-family="Helvetica,sans-Serif" font-size="10.00" fill="#000000">+ eextras</text>
<text text-anchor="start" x="533.5" y="-70.5" font-family="Helvetica,sans-Serif" font-size="10.00" fill="#000000">+ vertex2triindex</text>
<text text-anchor="start" x="533.5" y="-59.5" font-family="Helvetica,sans-Serif" font-size="10.00" fill="#000000">+ elemattribindex</text>
<text text-anchor="start" x="533.5" y="-48.5" font-family="Helvetica,sans-Serif" font-size="10.00" fill="#000000">+ areaboundindex</text>
<text text-anchor="start" x="533.5" y="-37.5" font-family="Helvetica,sans-Serif" font-size="10.00" fill="#000000">+ checkquality</text>
<text text-anchor="start" x="533.5" y="-26.5" font-family="Helvetica,sans-Serif" font-size="10.00" fill="#000000">+ readnodefile</text>
<polyline fill="none" stroke="#000000" points="525.5,-19.5 619.5,-19.5 "/>
<text text-anchor="middle" x="572.5" y="-7.5" font-family="Helvetica,sans-Serif" font-size="10.00" fill="#000000"> </text>
</g>
<!-- Node2 -->
<g id="node2" class="node">
<title>Node2</title>
<polygon fill="#ffffff" stroke="#bfbfbf" points="0,-504.5 0,-561.5 55,-561.5 55,-504.5 0,-504.5"/>
<text text-anchor="middle" x="27.5" y="-549.5" font-family="Helvetica,sans-Serif" font-size="10.00" fill="#000000">triangle *</text>
<polyline fill="none" stroke="#bfbfbf" points="0,-542.5 55,-542.5 "/>
<text text-anchor="middle" x="27.5" y="-530.5" font-family="Helvetica,sans-Serif" font-size="10.00" fill="#000000"> </text>
<polyline fill="none" stroke="#bfbfbf" points="0,-523.5 55,-523.5 "/>
<text text-anchor="middle" x="27.5" y="-511.5" font-family="Helvetica,sans-Serif" font-size="10.00" fill="#000000"> </text>
</g>
<!-- Node2&#45;&gt;Node1 -->
<g id="edge1" class="edge">
<title>Node2&#45;&gt;Node1</title>
<path fill="none" stroke="#404040" d="M19.9551,-504.2473C3.1715,-432.8865 -27.9377,-248.1645 77.5,-175 147.5984,-126.3579 397.8694,-95.8479 513.3445,-84.0548"/>
<polygon fill="none" stroke="#404040" points="513.4754,-84.0417 519.0448,-79.4611 525.4152,-82.8403 519.8458,-87.4209 513.4754,-84.0417"/>
<text text-anchor="middle" x="47" y="-344.5" font-family="Helvetica,sans-Serif" font-size="10.00" fill="#000000"> +dummytribase</text>
<text text-anchor="middle" x="47" y="-333.5" font-family="Helvetica,sans-Serif" font-size="10.00" fill="#000000">+dummytri</text>
</g>
<!-- Node12 -->
<g id="node12" class="node">
<title>Node12</title>
<g id="a_node12"><a xlink:href="structotri.html" target="_top" xlink:title="{otri\n||}">
<polygon fill="#ffffff" stroke="#000000" points="92.5,-313 92.5,-370 122.5,-370 122.5,-313 92.5,-313"/>
<text text-anchor="middle" x="107.5" y="-358" font-family="Helvetica,sans-Serif" font-size="10.00" fill="#000000">otri</text>
<polyline fill="none" stroke="#000000" points="92.5,-351 122.5,-351 "/>
<text text-anchor="middle" x="107.5" y="-339" font-family="Helvetica,sans-Serif" font-size="10.00" fill="#000000"> </text>
<polyline fill="none" stroke="#000000" points="92.5,-332 122.5,-332 "/>
<text text-anchor="middle" x="107.5" y="-320" font-family="Helvetica,sans-Serif" font-size="10.00" fill="#000000"> </text>
</a>
</g>
</g>
<!-- Node2&#45;&gt;Node12 -->
<g id="edge16" class="edge">
<title>Node2&#45;&gt;Node12</title>
<path fill="none" stroke="#404040" d="M39.4768,-504.3305C53.125,-471.6603 75.5202,-418.0515 90.8597,-381.3326"/>
<polygon fill="none" stroke="#404040" points="90.9464,-381.1249 89.5684,-374.0467 95.5721,-370.0523 96.9502,-377.1305 90.9464,-381.1249"/>
<text text-anchor="middle" x="84.5" y="-450.5" font-family="Helvetica,sans-Serif" font-size="10.00" fill="#000000"> +tri</text>
</g>
<!-- Node3 -->
<g id="node3" class="node">
<title>Node3</title>
<g id="a_node3"><a xlink:href="structmemorypool.html" target="_top" xlink:title="{memorypool\n||}">
<polygon fill="#ffffff" stroke="#000000" points="351.5,-313 351.5,-370 421.5,-370 421.5,-313 351.5,-313"/>
<text text-anchor="middle" x="386.5" y="-358" font-family="Helvetica,sans-Serif" font-size="10.00" fill="#000000">memorypool</text>
<polyline fill="none" stroke="#000000" points="351.5,-351 421.5,-351 "/>
<text text-anchor="middle" x="386.5" y="-339" font-family="Helvetica,sans-Serif" font-size="10.00" fill="#000000"> </text>
<polyline fill="none" stroke="#000000" points="351.5,-332 421.5,-332 "/>
<text text-anchor="middle" x="386.5" y="-320" font-family="Helvetica,sans-Serif" font-size="10.00" fill="#000000"> </text>
</a>
</g>
</g>
<!-- Node3&#45;&gt;Node1 -->
<g id="edge2" class="edge">
<title>Node3&#45;&gt;Node1</title>
<path fill="none" stroke="#404040" d="M388.7053,-312.7619C392.6611,-277.4101 403.5896,-216.938 433.5,-175 454.2223,-145.9448 486.578,-122.7349 514.86,-106.3654"/>
<polygon fill="none" stroke="#404040" points="514.9957,-106.2895 518.2778,-99.8686 525.4671,-100.4286 522.185,-106.8495 514.9957,-106.2895"/>
<text text-anchor="middle" x="464.5" y="-255" font-family="Helvetica,sans-Serif" font-size="10.00" fill="#000000"> +badsubsegs</text>
<text text-anchor="middle" x="464.5" y="-244" font-family="Helvetica,sans-Serif" font-size="10.00" fill="#000000">+viri</text>
<text text-anchor="middle" x="464.5" y="-233" font-family="Helvetica,sans-Serif" font-size="10.00" fill="#000000">+splaynodes</text>
<text text-anchor="middle" x="464.5" y="-222" font-family="Helvetica,sans-Serif" font-size="10.00" fill="#000000">+triangles</text>
<text text-anchor="middle" x="464.5" y="-211" font-family="Helvetica,sans-Serif" font-size="10.00" fill="#000000">+flipstackers</text>
<text text-anchor="middle" x="464.5" y="-200" font-family="Helvetica,sans-Serif" font-size="10.00" fill="#000000">+vertices</text>
<text text-anchor="middle" x="464.5" y="-189" font-family="Helvetica,sans-Serif" font-size="10.00" fill="#000000">+subsegs</text>
<text text-anchor="middle" x="464.5" y="-178" font-family="Helvetica,sans-Serif" font-size="10.00" fill="#000000">+badtriangles</text>
</g>
<!-- Node4 -->
<g id="node4" class="node">
<title>Node4</title>
<polygon fill="#ffffff" stroke="#bfbfbf" points="360.5,-504.5 360.5,-561.5 412.5,-561.5 412.5,-504.5 360.5,-504.5"/>
<text text-anchor="middle" x="386.5" y="-549.5" font-family="Helvetica,sans-Serif" font-size="10.00" fill="#000000">VOID **</text>
<polyline fill="none" stroke="#bfbfbf" points="360.5,-542.5 412.5,-542.5 "/>
<text text-anchor="middle" x="386.5" y="-530.5" font-family="Helvetica,sans-Serif" font-size="10.00" fill="#000000"> </text>
<polyline fill="none" stroke="#bfbfbf" points="360.5,-523.5 412.5,-523.5 "/>
<text text-anchor="middle" x="386.5" y="-511.5" font-family="Helvetica,sans-Serif" font-size="10.00" fill="#000000"> </text>
</g>
<!-- Node4&#45;&gt;Node3 -->
<g id="edge3" class="edge">
<title>Node4&#45;&gt;Node3</title>
<path fill="none" stroke="#404040" d="M386.5,-504.3305C386.5,-471.9431 386.5,-418.9783 386.5,-382.2901"/>
<polygon fill="none" stroke="#404040" points="386.5001,-382.0523 382.5,-376.0523 386.5,-370.0523 390.5,-376.0523 386.5001,-382.0523"/>
<text text-anchor="middle" x="412.5" y="-461.5" font-family="Helvetica,sans-Serif" font-size="10.00" fill="#000000"> +pathblock</text>
<text text-anchor="middle" x="412.5" y="-450.5" font-family="Helvetica,sans-Serif" font-size="10.00" fill="#000000">+nowblock</text>
<text text-anchor="middle" x="412.5" y="-439.5" font-family="Helvetica,sans-Serif" font-size="10.00" fill="#000000">+firstblock</text>
</g>
<!-- Node5 -->
<g id="node5" class="node">
<title>Node5</title>
<polygon fill="#ffffff" stroke="#bfbfbf" points="143,-504.5 143,-561.5 172,-561.5 172,-504.5 143,-504.5"/>
<text text-anchor="middle" x="157.5" y="-549.5" font-family="Helvetica,sans-Serif" font-size="10.00" fill="#000000">int</text>
<polyline fill="none" stroke="#bfbfbf" points="143,-542.5 172,-542.5 "/>
<text text-anchor="middle" x="157.5" y="-530.5" font-family="Helvetica,sans-Serif" font-size="10.00" fill="#000000"> </text>
<polyline fill="none" stroke="#bfbfbf" points="143,-523.5 172,-523.5 "/>
<text text-anchor="middle" x="157.5" y="-511.5" font-family="Helvetica,sans-Serif" font-size="10.00" fill="#000000"> </text>
</g>
<!-- Node5&#45;&gt;Node1 -->
<g id="edge14" class="edge">
<title>Node5&#45;&gt;Node1</title>
<path fill="none" stroke="#404040" d="M157.458,-504.2872C158.2643,-480.9228 161.3589,-447.4429 171.5,-420 197.1792,-350.5092 213.6785,-335.829 263.5,-281 336.2293,-200.9608 447.2014,-138.5092 514.4885,-105.1993"/>
<polygon fill="none" stroke="#404040" points="514.5259,-105.1811 518.1586,-98.9518 525.3058,-99.9092 521.6732,-106.1385 514.5259,-105.1811"/>
<text text-anchor="middle" x="303" y="-394" font-family="Helvetica,sans-Serif" font-size="10.00" fill="#000000"> +nextras</text>
<text text-anchor="middle" x="303" y="-383" font-family="Helvetica,sans-Serif" font-size="10.00" fill="#000000">+highorderindex</text>
<text text-anchor="middle" x="303" y="-372" font-family="Helvetica,sans-Serif" font-size="10.00" fill="#000000">+steinerleft</text>
<text text-anchor="middle" x="303" y="-361" font-family="Helvetica,sans-Serif" font-size="10.00" fill="#000000">+mesh_dim</text>
<text text-anchor="middle" x="303" y="-350" font-family="Helvetica,sans-Serif" font-size="10.00" fill="#000000">+insegments</text>
<text text-anchor="middle" x="303" y="-339" font-family="Helvetica,sans-Serif" font-size="10.00" fill="#000000">+holes</text>
<text text-anchor="middle" x="303" y="-328" font-family="Helvetica,sans-Serif" font-size="10.00" fill="#000000">+vertexmarkindex</text>
<text text-anchor="middle" x="303" y="-317" font-family="Helvetica,sans-Serif" font-size="10.00" fill="#000000">+undeads</text>
<text text-anchor="middle" x="303" y="-306" font-family="Helvetica,sans-Serif" font-size="10.00" fill="#000000">+nextnonemptyq</text>
<text text-anchor="middle" x="303" y="-295" font-family="Helvetica,sans-Serif" font-size="10.00" fill="#000000">+checksegments</text>
<text text-anchor="middle" x="303" y="-284" font-family="Helvetica,sans-Serif" font-size="10.00" fill="#000000">...</text>
</g>
<!-- Node5&#45;&gt;Node3 -->
<g id="edge4" class="edge">
<title>Node5&#45;&gt;Node3</title>
<path fill="none" stroke="#404040" d="M165.1296,-504.1275C173.0558,-479.0619 187.6948,-443.2377 211.5,-420 221.3716,-410.3637 291.7929,-380.3093 340.2368,-360.309"/>
<polygon fill="none" stroke="#404040" points="340.3238,-360.2732 344.3511,-354.2915 351.4216,-355.7083 347.3944,-361.69 340.3238,-360.2732"/>
<text text-anchor="middle" x="251.5" y="-478" font-family="Helvetica,sans-Serif" font-size="10.00" fill="#000000"> +pathitemsleft</text>
<text text-anchor="middle" x="251.5" y="-467" font-family="Helvetica,sans-Serif" font-size="10.00" fill="#000000">+itemsperblock</text>
<text text-anchor="middle" x="251.5" y="-456" font-family="Helvetica,sans-Serif" font-size="10.00" fill="#000000">+itemsfirstblock</text>
<text text-anchor="middle" x="251.5" y="-445" font-family="Helvetica,sans-Serif" font-size="10.00" fill="#000000">+itembytes</text>
<text text-anchor="middle" x="251.5" y="-434" font-family="Helvetica,sans-Serif" font-size="10.00" fill="#000000">+unallocateditems</text>
<text text-anchor="middle" x="251.5" y="-423" font-family="Helvetica,sans-Serif" font-size="10.00" fill="#000000">+alignbytes</text>
</g>
<!-- Node5&#45;&gt;Node12 -->
<g id="edge17" class="edge">
<title>Node5&#45;&gt;Node12</title>
<path fill="none" stroke="#404040" d="M142.7097,-523.4342C131.2799,-515.0954 116.2994,-501.8656 109.5,-486 95.4478,-453.2105 96.3883,-412.2679 100.0021,-382.3443"/>
<polygon fill="none" stroke="#404040" points="100.0308,-382.1367 96.8926,-375.6443 101.6786,-370.2504 104.8168,-376.7428 100.0308,-382.1367"/>
<text text-anchor="middle" x="126.5" y="-450.5" font-family="Helvetica,sans-Serif" font-size="10.00" fill="#000000"> +orient</text>
</g>
<!-- Node6 -->
<g id="node6" class="node">
<title>Node6</title>
<polygon fill="#ffffff" stroke="#bfbfbf" points="476,-504.5 476,-561.5 511,-561.5 511,-504.5 476,-504.5"/>
<text text-anchor="middle" x="493.5" y="-549.5" font-family="Helvetica,sans-Serif" font-size="10.00" fill="#000000">long</text>
<polyline fill="none" stroke="#bfbfbf" points="476,-542.5 511,-542.5 "/>
<text text-anchor="middle" x="493.5" y="-530.5" font-family="Helvetica,sans-Serif" font-size="10.00" fill="#000000"> </text>
<polyline fill="none" stroke="#bfbfbf" points="476,-523.5 511,-523.5 "/>
<text text-anchor="middle" x="493.5" y="-511.5" font-family="Helvetica,sans-Serif" font-size="10.00" fill="#000000"> </text>
</g>
<!-- Node6&#45;&gt;Node1 -->
<g id="edge18" class="edge">
<title>Node6&#45;&gt;Node1</title>
<path fill="none" stroke="#404040" d="M506.0682,-504.3419C508.2278,-498.3806 510.194,-492.0647 511.5,-486 530.7137,-396.7783 510.0471,-371.2701 523.5,-281 529.0324,-243.8771 538.1304,-203.5786 546.9945,-168.7781"/>
<polygon fill="none" stroke="#404040" points="547.1102,-168.3302 544.7393,-161.52 550.1138,-156.7122 552.4847,-163.5224 547.1102,-168.3302"/>
<text text-anchor="middle" x="568.5" y="-383" font-family="Helvetica,sans-Serif" font-size="10.00" fill="#000000"> +circumcentercount</text>
<text text-anchor="middle" x="568.5" y="-372" font-family="Helvetica,sans-Serif" font-size="10.00" fill="#000000">+samples</text>
<text text-anchor="middle" x="568.5" y="-361" font-family="Helvetica,sans-Serif" font-size="10.00" fill="#000000">+edges</text>
<text text-anchor="middle" x="568.5" y="-350" font-family="Helvetica,sans-Serif" font-size="10.00" fill="#000000">+hullsize</text>
<text text-anchor="middle" x="568.5" y="-339" font-family="Helvetica,sans-Serif" font-size="10.00" fill="#000000">+orient3dcount</text>
<text text-anchor="middle" x="568.5" y="-328" font-family="Helvetica,sans-Serif" font-size="10.00" fill="#000000">+circletopcount</text>
<text text-anchor="middle" x="568.5" y="-317" font-family="Helvetica,sans-Serif" font-size="10.00" fill="#000000">+hyperbolacount</text>
<text text-anchor="middle" x="568.5" y="-306" font-family="Helvetica,sans-Serif" font-size="10.00" fill="#000000">+counterclockcount</text>
<text text-anchor="middle" x="568.5" y="-295" font-family="Helvetica,sans-Serif" font-size="10.00" fill="#000000">+incirclecount</text>
</g>
<!-- Node6&#45;&gt;Node3 -->
<g id="edge5" class="edge">
<title>Node6&#45;&gt;Node3</title>
<path fill="none" stroke="#404040" d="M475.8967,-508.8052C471.1671,-501.674 466.3126,-493.7107 462.5,-486 448.7317,-458.1545 453.4182,-447.7709 439.5,-420 432.7078,-406.4476 423.9346,-392.4762 415.4878,-380.145"/>
<polygon fill="none" stroke="#404040" points="415.414,-380.0398 408.693,-377.4267 408.52,-370.2177 415.2411,-372.8307 415.414,-380.0398"/>
<text text-anchor="middle" x="487" y="-456" font-family="Helvetica,sans-Serif" font-size="10.00" fill="#000000"> +items</text>
<text text-anchor="middle" x="487" y="-445" font-family="Helvetica,sans-Serif" font-size="10.00" fill="#000000">+maxitems</text>
</g>
<!-- Node7 -->
<g id="node7" class="node">
<title>Node7</title>
<polygon fill="#ffffff" stroke="#bfbfbf" points="269.5,-504.5 269.5,-561.5 317.5,-561.5 317.5,-504.5 269.5,-504.5"/>
<text text-anchor="middle" x="293.5" y="-549.5" font-family="Helvetica,sans-Serif" font-size="10.00" fill="#000000">VOID *</text>
<polyline fill="none" stroke="#bfbfbf" points="269.5,-542.5 317.5,-542.5 "/>
<text text-anchor="middle" x="293.5" y="-530.5" font-family="Helvetica,sans-Serif" font-size="10.00" fill="#000000"> </text>
<polyline fill="none" stroke="#bfbfbf" points="269.5,-523.5 317.5,-523.5 "/>
<text text-anchor="middle" x="293.5" y="-511.5" font-family="Helvetica,sans-Serif" font-size="10.00" fill="#000000"> </text>
</g>
<!-- Node7&#45;&gt;Node3 -->
<g id="edge6" class="edge">
<title>Node7&#45;&gt;Node3</title>
<path fill="none" stroke="#404040" d="M293.7692,-504.191C295.0358,-480.4688 299.3079,-446.5437 312.5,-420 319.9396,-405.0309 331.1861,-390.958 342.6809,-378.9758"/>
<polygon fill="none" stroke="#404040" points="342.9539,-378.7042 344.3859,-371.6366 351.4605,-370.2402 350.0285,-377.3077 342.9539,-378.7042"/>
<text text-anchor="middle" x="347.5" y="-461.5" font-family="Helvetica,sans-Serif" font-size="10.00" fill="#000000"> +pathitem</text>
<text text-anchor="middle" x="347.5" y="-450.5" font-family="Helvetica,sans-Serif" font-size="10.00" fill="#000000">+nextitem</text>
<text text-anchor="middle" x="347.5" y="-439.5" font-family="Helvetica,sans-Serif" font-size="10.00" fill="#000000">+deaditemstack</text>
</g>
<!-- Node8 -->
<g id="node8" class="node">
<title>Node8</title>
<g id="a_node8"><a xlink:href="structbadtriang.html" target="_top" xlink:title="{badtriang\n||}">
<polygon fill="#ffffff" stroke="#000000" points="716.5,-313 716.5,-370 772.5,-370 772.5,-313 716.5,-313"/>
<text text-anchor="middle" x="744.5" y="-358" font-family="Helvetica,sans-Serif" font-size="10.00" fill="#000000">badtriang</text>
<polyline fill="none" stroke="#000000" points="716.5,-351 772.5,-351 "/>
<text text-anchor="middle" x="744.5" y="-339" font-family="Helvetica,sans-Serif" font-size="10.00" fill="#000000"> </text>
<polyline fill="none" stroke="#000000" points="716.5,-332 772.5,-332 "/>
<text text-anchor="middle" x="744.5" y="-320" font-family="Helvetica,sans-Serif" font-size="10.00" fill="#000000"> </text>
</a>
</g>
</g>
<!-- Node8&#45;&gt;Node1 -->
<g id="edge7" class="edge">
<title>Node8&#45;&gt;Node1</title>
<path fill="none" stroke="#404040" d="M729.8238,-312.7081C712.175,-278.8583 680.9779,-221.4096 649.5,-175 642.5709,-164.784 634.8622,-154.2805 627.0755,-144.1358"/>
<polygon fill="none" stroke="#404040" points="626.9785,-144.0111 620.1369,-141.7323 619.6089,-134.5406 626.4505,-136.8193 626.9785,-144.0111"/>
<text text-anchor="middle" x="728" y="-222" font-family="Helvetica,sans-Serif" font-size="10.00" fill="#000000"> +queuefront</text>
<text text-anchor="middle" x="728" y="-211" font-family="Helvetica,sans-Serif" font-size="10.00" fill="#000000">+queuetail</text>
</g>
<!-- Node8&#45;&gt;Node8 -->
<g id="edge8" class="edge">
<title>Node8&#45;&gt;Node8</title>
<path fill="none" stroke="#404040" d="M772.7994,-362.12C782.5919,-362.3382 790.5,-355.4648 790.5,-341.5 790.5,-333.863 788.1349,-328.3468 784.3899,-324.9516"/>
<polygon fill="none" stroke="#404040" points="784.1212,-324.8572 777.1346,-326.6426 772.7994,-320.88 779.786,-319.0947 784.1212,-324.8572"/>
<text text-anchor="middle" x="816.5" y="-339" font-family="Helvetica,sans-Serif" font-size="10.00" fill="#000000"> +nexttriang</text>
</g>
<!-- Node9 -->
<g id="node9" class="node">
<title>Node9</title>
<polygon fill="#ffffff" stroke="#bfbfbf" points="723,-504.5 723,-561.5 766,-561.5 766,-504.5 723,-504.5"/>
<text text-anchor="middle" x="744.5" y="-549.5" font-family="Helvetica,sans-Serif" font-size="10.00" fill="#000000">REAL</text>
<polyline fill="none" stroke="#bfbfbf" points="723,-542.5 766,-542.5 "/>
<text text-anchor="middle" x="744.5" y="-530.5" font-family="Helvetica,sans-Serif" font-size="10.00" fill="#000000"> </text>
<polyline fill="none" stroke="#bfbfbf" points="723,-523.5 766,-523.5 "/>
<text text-anchor="middle" x="744.5" y="-511.5" font-family="Helvetica,sans-Serif" font-size="10.00" fill="#000000"> </text>
</g>
<!-- Node9&#45;&gt;Node1 -->
<g id="edge19" class="edge">
<title>Node9&#45;&gt;Node1</title>
<path fill="none" stroke="#404040" d="M722.7073,-510.888C699.7679,-486.341 664.2953,-444.5441 644.5,-402 634.6664,-380.8657 608.4316,-256.8598 590.5004,-168.6891"/>
<polygon fill="none" stroke="#404040" points="590.4685,-168.5318 585.3555,-163.4468 588.0827,-156.7713 593.1958,-161.8563 590.4685,-168.5318"/>
<text text-anchor="middle" x="676" y="-361" font-family="Helvetica,sans-Serif" font-size="10.00" fill="#000000"> +ymin</text>
<text text-anchor="middle" x="676" y="-350" font-family="Helvetica,sans-Serif" font-size="10.00" fill="#000000">+ymax</text>
<text text-anchor="middle" x="676" y="-339" font-family="Helvetica,sans-Serif" font-size="10.00" fill="#000000">+xmin</text>
<text text-anchor="middle" x="676" y="-328" font-family="Helvetica,sans-Serif" font-size="10.00" fill="#000000">+xminextreme</text>
<text text-anchor="middle" x="676" y="-317" font-family="Helvetica,sans-Serif" font-size="10.00" fill="#000000">+xmax</text>
</g>
<!-- Node9&#45;&gt;Node8 -->
<g id="edge9" class="edge">
<title>Node9&#45;&gt;Node8</title>
<path fill="none" stroke="#404040" d="M744.5,-504.3305C744.5,-471.9431 744.5,-418.9783 744.5,-382.2901"/>
<polygon fill="none" stroke="#404040" points="744.5001,-382.0523 740.5,-376.0523 744.5,-370.0523 748.5,-376.0523 744.5001,-382.0523"/>
<text text-anchor="middle" x="770.5" y="-472.5" font-family="Helvetica,sans-Serif" font-size="10.00" fill="#000000"> +triangdest</text>
<text text-anchor="middle" x="770.5" y="-461.5" font-family="Helvetica,sans-Serif" font-size="10.00" fill="#000000">+triangorg</text>
<text text-anchor="middle" x="770.5" y="-450.5" font-family="Helvetica,sans-Serif" font-size="10.00" fill="#000000">+poortri</text>
<text text-anchor="middle" x="770.5" y="-439.5" font-family="Helvetica,sans-Serif" font-size="10.00" fill="#000000">+triangapex</text>
<text text-anchor="middle" x="770.5" y="-428.5" font-family="Helvetica,sans-Serif" font-size="10.00" fill="#000000">+key</text>
</g>
<!-- Node10 -->
<g id="node10" class="node">
<title>Node10</title>
<g id="a_node10"><a xlink:href="structflipstacker.html" target="_top" xlink:title="{flipstacker\n||}">
<polygon fill="#ffffff" stroke="#000000" points="860.5,-313 860.5,-370 922.5,-370 922.5,-313 860.5,-313"/>
<text text-anchor="middle" x="891.5" y="-358" font-family="Helvetica,sans-Serif" font-size="10.00" fill="#000000">flipstacker</text>
<polyline fill="none" stroke="#000000" points="860.5,-351 922.5,-351 "/>
<text text-anchor="middle" x="891.5" y="-339" font-family="Helvetica,sans-Serif" font-size="10.00" fill="#000000"> </text>
<polyline fill="none" stroke="#000000" points="860.5,-332 922.5,-332 "/>
<text text-anchor="middle" x="891.5" y="-320" font-family="Helvetica,sans-Serif" font-size="10.00" fill="#000000"> </text>
</a>
</g>
</g>
<!-- Node9&#45;&gt;Node10 -->
<g id="edge12" class="edge">
<title>Node9&#45;&gt;Node10</title>
<path fill="none" stroke="#404040" d="M766.1006,-517.4406C777.1257,-508.8907 790.3211,-497.6694 800.5,-486 828.8781,-453.4665 854.4156,-411.1908 871.1623,-380.7823"/>
<polygon fill="none" stroke="#404040" points="871.2039,-380.7055 870.5472,-373.5243 876.9234,-370.1561 877.5801,-377.3373 871.2039,-380.7055"/>
<text text-anchor="middle" x="869.5" y="-450.5" font-family="Helvetica,sans-Serif" font-size="10.00" fill="#000000"> +flippedtri</text>
</g>
<!-- Node10&#45;&gt;Node1 -->
<g id="edge10" class="edge">
<title>Node10&#45;&gt;Node1</title>
<path fill="none" stroke="#404040" d="M874.6925,-312.7798C852.3148,-276.6107 809.6714,-214.4386 759.5,-175 720.1575,-144.0738 669.3786,-118.6149 630.6658,-101.6268"/>
<polygon fill="none" stroke="#404040" points="630.5965,-101.597 623.5032,-102.8949 619.5768,-96.8465 626.6702,-95.5485 630.5965,-101.597"/>
<text text-anchor="middle" x="856.5" y="-216.5" font-family="Helvetica,sans-Serif" font-size="10.00" fill="#000000"> +lastflip</text>
</g>
<!-- Node10&#45;&gt;Node10 -->
<g id="edge11" class="edge">
<title>Node10&#45;&gt;Node10</title>
<path fill="none" stroke="#404040" d="M922.602,-362.12C932.5865,-361.9085 940.5,-355.0352 940.5,-341.5 940.5,-333.8865 937.9961,-328.3808 934.0282,-324.983"/>
<polygon fill="none" stroke="#404040" points="933.896,-324.9355 926.8971,-326.6724 922.602,-320.88 929.6008,-319.1431 933.896,-324.9355"/>
<text text-anchor="middle" x="961" y="-339" font-family="Helvetica,sans-Serif" font-size="10.00" fill="#000000"> +prevflip</text>
</g>
<!-- Node11 -->
<g id="node11" class="node">
<title>Node11</title>
<polygon fill="#ffffff" stroke="#bfbfbf" points="999.5,-313 999.5,-370 1049.5,-370 1049.5,-313 999.5,-313"/>
<text text-anchor="middle" x="1024.5" y="-358" font-family="Helvetica,sans-Serif" font-size="10.00" fill="#000000">REAL *</text>
<polyline fill="none" stroke="#bfbfbf" points="999.5,-351 1049.5,-351 "/>
<text text-anchor="middle" x="1024.5" y="-339" font-family="Helvetica,sans-Serif" font-size="10.00" fill="#000000"> </text>
<polyline fill="none" stroke="#bfbfbf" points="999.5,-332 1049.5,-332 "/>
<text text-anchor="middle" x="1024.5" y="-320" font-family="Helvetica,sans-Serif" font-size="10.00" fill="#000000"> </text>
</g>
<!-- Node11&#45;&gt;Node1 -->
<g id="edge13" class="edge">
<title>Node11&#45;&gt;Node1</title>
<path fill="none" stroke="#404040" d="M1010.5739,-312.6981C1004.9655,-302.2832 998.037,-290.7069 990.5,-281 948.6648,-227.12 938.2365,-209.688 879.5,-175 800.2973,-128.2253 695.9917,-101.7013 631.6302,-88.727"/>
<polygon fill="none" stroke="#404040" points="631.4766,-88.6969 624.8185,-91.4663 619.7013,-86.3855 626.3594,-83.6161 631.4766,-88.6969"/>
<text text-anchor="middle" x="1000.5" y="-227.5" font-family="Helvetica,sans-Serif" font-size="10.00" fill="#000000"> +infvertex1</text>
<text text-anchor="middle" x="1000.5" y="-216.5" font-family="Helvetica,sans-Serif" font-size="10.00" fill="#000000">+infvertex2</text>
<text text-anchor="middle" x="1000.5" y="-205.5" font-family="Helvetica,sans-Serif" font-size="10.00" fill="#000000">+infvertex3</text>
</g>
<!-- Node12&#45;&gt;Node1 -->
<g id="edge15" class="edge">
<title>Node12&#45;&gt;Node1</title>
<path fill="none" stroke="#404040" d="M95.6484,-312.8866C82.7057,-276.5439 67.7423,-213.891 99.5,-175 151.1571,-111.7399 398.3149,-88.8699 513.3544,-81.5566"/>
<polygon fill="none" stroke="#404040" points="513.4101,-81.5532 519.1537,-77.1931 525.3875,-80.8179 519.6439,-85.1781 513.4101,-81.5532"/>
<text text-anchor="middle" x="122" y="-216.5" font-family="Helvetica,sans-Serif" font-size="10.00" fill="#000000"> +recenttri</text>
</g>
<!-- Node13 -->
<g id="node13" class="node">
<title>Node13</title>
<polygon fill="#ffffff" stroke="#bfbfbf" points="1070,-313 1070,-370 1125,-370 1125,-313 1070,-313"/>
<text text-anchor="middle" x="1097.5" y="-358" font-family="Helvetica,sans-Serif" font-size="10.00" fill="#000000">subseg *</text>
<polyline fill="none" stroke="#bfbfbf" points="1070,-351 1125,-351 "/>
<text text-anchor="middle" x="1097.5" y="-339" font-family="Helvetica,sans-Serif" font-size="10.00" fill="#000000"> </text>
<polyline fill="none" stroke="#bfbfbf" points="1070,-332 1125,-332 "/>
<text text-anchor="middle" x="1097.5" y="-320" font-family="Helvetica,sans-Serif" font-size="10.00" fill="#000000"> </text>
</g>
<!-- Node13&#45;&gt;Node1 -->
<g id="edge20" class="edge">
<title>Node13&#45;&gt;Node1</title>
<path fill="none" stroke="#404040" d="M1094.2199,-312.8878C1088.3375,-275.3518 1072.3969,-210.1421 1030.5,-175 970.5519,-124.717 741.6179,-95.477 631.8643,-84.0752"/>
<polygon fill="none" stroke="#404040" points="631.6603,-84.0545 625.2852,-87.4247 619.7223,-82.8362 626.0974,-79.466 631.6603,-84.0545"/>
<text text-anchor="middle" x="1119.5" y="-222" font-family="Helvetica,sans-Serif" font-size="10.00" fill="#000000"> +dummysub</text>
<text text-anchor="middle" x="1119.5" y="-211" font-family="Helvetica,sans-Serif" font-size="10.00" fill="#000000">+dummysubbase</text>
</g>
</g>
</svg>
