<?xml version="1.0" encoding="UTF-8" standalone="no"?>
<!DOCTYPE svg PUBLIC "-//W3C//DTD SVG 1.1//EN"
 "http://www.w3.org/Graphics/SVG/1.1/DTD/svg11.dtd">
<!-- Generated by graphviz version 2.40.1 (20161225.0304)
 -->
<!-- Title: nlohmann::detail::is_constructible_string_type_impl&lt; BasicJsonType, ConstructibleStringType, typename &gt; Pages: 1 -->
<svg width="224pt" height="482pt"
 viewBox="0.00 0.00 223.50 482.00" xmlns="http://www.w3.org/2000/svg" xmlns:xlink="http://www.w3.org/1999/xlink">
<g id="graph0" class="graph" transform="scale(1 1) rotate(0) translate(4 478)">
<title>nlohmann::detail::is_constructible_string_type_impl&lt; BasicJsonType, ConstructibleStringType, typename &gt;</title>
<polygon fill="#ffffff" stroke="transparent" points="-4,4 -4,-478 219.5,-478 219.5,4 -4,4"/>
<!-- Node0 -->
<g id="node1" class="node">
<title>Node0</title>
<polygon fill="#bfbfbf" stroke="#000000" points="0,-277.5 0,-378.5 143,-378.5 143,-277.5 0,-277.5"/>
<text text-anchor="start" x="8" y="-366.5" font-family="Helvetica,sans-Serif" font-size="10.00" fill="#000000">nlohmann::detail::is</text>
<text text-anchor="start" x="8" y="-355.5" font-family="Helvetica,sans-Serif" font-size="10.00" fill="#000000">_constructible_string</text>
<text text-anchor="start" x="8" y="-344.5" font-family="Helvetica,sans-Serif" font-size="10.00" fill="#000000">_type_impl&lt; BasicJsonType,</text>
<text text-anchor="start" x="8" y="-333.5" font-family="Helvetica,sans-Serif" font-size="10.00" fill="#000000"> ConstructibleStringType,</text>
<text text-anchor="middle" x="71.5" y="-322.5" font-family="Helvetica,sans-Serif" font-size="10.00" fill="#000000"> typename &gt;</text>
<polyline fill="none" stroke="#000000" points="0,-315.5 143,-315.5 "/>
<text text-anchor="middle" x="71.5" y="-303.5" font-family="Helvetica,sans-Serif" font-size="10.00" fill="#000000"> </text>
<polyline fill="none" stroke="#000000" points="0,-296.5 143,-296.5 "/>
<text text-anchor="middle" x="71.5" y="-284.5" font-family="Helvetica,sans-Serif" font-size="10.00" fill="#000000"> </text>
</g>
<!-- Node2 -->
<g id="node3" class="node">
<title>Node2</title>
<g id="a_node3"><a xlink:href="structnlohmann_1_1detail_1_1is__constructible__string__type__impl.html" target="_top" xlink:title="{nlohmann::detail::is\l_constructible_string\l_type_impl\&lt; BasicJsonType,\l ConstructibleStringType \&gt;\n||}">
<polygon fill="#ffffff" stroke="#000000" points="0,-128.5 0,-218.5 143,-218.5 143,-128.5 0,-128.5"/>
<text text-anchor="start" x="8" y="-206.5" font-family="Helvetica,sans-Serif" font-size="10.00" fill="#000000">nlohmann::detail::is</text>
<text text-anchor="start" x="8" y="-195.5" font-family="Helvetica,sans-Serif" font-size="10.00" fill="#000000">_constructible_string</text>
<text text-anchor="start" x="8" y="-184.5" font-family="Helvetica,sans-Serif" font-size="10.00" fill="#000000">_type_impl&lt; BasicJsonType,</text>
<text text-anchor="middle" x="71.5" y="-173.5" font-family="Helvetica,sans-Serif" font-size="10.00" fill="#000000"> ConstructibleStringType &gt;</text>
<polyline fill="none" stroke="#000000" points="0,-166.5 143,-166.5 "/>
<text text-anchor="middle" x="71.5" y="-154.5" font-family="Helvetica,sans-Serif" font-size="10.00" fill="#000000"> </text>
<polyline fill="none" stroke="#000000" points="0,-147.5 143,-147.5 "/>
<text text-anchor="middle" x="71.5" y="-135.5" font-family="Helvetica,sans-Serif" font-size="10.00" fill="#000000"> </text>
</a>
</g>
</g>
<!-- Node0&#45;&gt;Node2 -->
<g id="edge2" class="edge">
<title>Node0&#45;&gt;Node2</title>
<path fill="none" stroke="#ffa500" d="M71.5,-267.0069C71.5,-250.911 71.5,-233.829 71.5,-218.7299"/>
<polygon fill="#ffa500" stroke="#ffa500" points="68.0001,-267.4109 71.5,-277.4109 75.0001,-267.411 68.0001,-267.4109"/>
<text text-anchor="start" x="71.5" y="-251" font-family="Helvetica,sans-Serif" font-size="10.00" fill="#000000"> &lt; BasicJsonType, Constructible</text>
<text text-anchor="middle" x="143.5" y="-240" font-family="Helvetica,sans-Serif" font-size="10.00" fill="#000000">StringType &gt;</text>
</g>
<!-- Node1 -->
<g id="node2" class="node">
<title>Node1</title>
<polygon fill="#ffffff" stroke="#bfbfbf" points="40.5,-416.5 40.5,-473.5 102.5,-473.5 102.5,-416.5 40.5,-416.5"/>
<text text-anchor="middle" x="71.5" y="-461.5" font-family="Helvetica,sans-Serif" font-size="10.00" fill="#000000">false_type</text>
<polyline fill="none" stroke="#bfbfbf" points="40.5,-454.5 102.5,-454.5 "/>
<text text-anchor="middle" x="71.5" y="-442.5" font-family="Helvetica,sans-Serif" font-size="10.00" fill="#000000"> </text>
<polyline fill="none" stroke="#bfbfbf" points="40.5,-435.5 102.5,-435.5 "/>
<text text-anchor="middle" x="71.5" y="-423.5" font-family="Helvetica,sans-Serif" font-size="10.00" fill="#000000"> </text>
</g>
<!-- Node1&#45;&gt;Node0 -->
<g id="edge1" class="edge">
<title>Node1&#45;&gt;Node0</title>
<path fill="none" stroke="#191970" d="M71.5,-406.3581C71.5,-397.5039 71.5,-387.9611 71.5,-378.6852"/>
<polygon fill="none" stroke="#191970" points="68.0001,-406.3785 71.5,-416.3786 75.0001,-406.3786 68.0001,-406.3785"/>
</g>
<!-- Node3 -->
<g id="node4" class="node">
<title>Node3</title>
<g id="a_node4"><a xlink:href="structnlohmann_1_1detail_1_1is__constructible__string__type.html" target="_top" xlink:title="{nlohmann::detail::is\l_constructible_string\l_type\&lt; BasicJsonType,\l ConstructibleStringType \&gt;\n||}">
<polygon fill="#ffffff" stroke="#000000" points="4.5,-.5 4.5,-90.5 138.5,-90.5 138.5,-.5 4.5,-.5"/>
<text text-anchor="start" x="12.5" y="-78.5" font-family="Helvetica,sans-Serif" font-size="10.00" fill="#000000">nlohmann::detail::is</text>
<text text-anchor="start" x="12.5" y="-67.5" font-family="Helvetica,sans-Serif" font-size="10.00" fill="#000000">_constructible_string</text>
<text text-anchor="start" x="12.5" y="-56.5" font-family="Helvetica,sans-Serif" font-size="10.00" fill="#000000">_type&lt; BasicJsonType,</text>
<text text-anchor="middle" x="71.5" y="-45.5" font-family="Helvetica,sans-Serif" font-size="10.00" fill="#000000"> ConstructibleStringType &gt;</text>
<polyline fill="none" stroke="#000000" points="4.5,-38.5 138.5,-38.5 "/>
<text text-anchor="middle" x="71.5" y="-26.5" font-family="Helvetica,sans-Serif" font-size="10.00" fill="#000000"> </text>
<polyline fill="none" stroke="#000000" points="4.5,-19.5 138.5,-19.5 "/>
<text text-anchor="middle" x="71.5" y="-7.5" font-family="Helvetica,sans-Serif" font-size="10.00" fill="#000000"> </text>
</a>
</g>
</g>
<!-- Node2&#45;&gt;Node3 -->
<g id="edge3" class="edge">
<title>Node2&#45;&gt;Node3</title>
<path fill="none" stroke="#191970" d="M71.5,-118.1492C71.5,-108.9671 71.5,-99.5431 71.5,-90.6519"/>
<polygon fill="none" stroke="#191970" points="68.0001,-118.372 71.5,-128.372 75.0001,-118.372 68.0001,-118.372"/>
</g>
</g>
</svg>
