<?xml version="1.0" encoding="UTF-8" standalone="no"?>
<!DOCTYPE svg PUBLIC "-//W3C//DTD SVG 1.1//EN"
 "http://www.w3.org/Graphics/SVG/1.1/DTD/svg11.dtd">
<!-- Generated by graphviz version 2.40.1 (20161225.0304)
 -->
<!-- Title: nlohmann::detail::is_iterator_traits&lt; T, typename &gt; Pages: 1 -->
<svg width="109pt" height="182pt"
 viewBox="0.00 0.00 109.00 182.00" xmlns="http://www.w3.org/2000/svg" xmlns:xlink="http://www.w3.org/1999/xlink">
<g id="graph0" class="graph" transform="scale(1 1) rotate(0) translate(4 178)">
<title>nlohmann::detail::is_iterator_traits&lt; T, typename &gt;</title>
<polygon fill="#ffffff" stroke="transparent" points="-4,4 -4,-178 105,-178 105,4 -4,4"/>
<!-- Node2 -->
<g id="node1" class="node">
<title>Node2</title>
<polygon fill="#bfbfbf" stroke="#000000" points="0,-.5 0,-79.5 101,-79.5 101,-.5 0,-.5"/>
<text text-anchor="start" x="8" y="-67.5" font-family="Helvetica,sans-Serif" font-size="10.00" fill="#000000">nlohmann::detail::is</text>
<text text-anchor="start" x="8" y="-56.5" font-family="Helvetica,sans-Serif" font-size="10.00" fill="#000000">_iterator_traits&lt; T,</text>
<text text-anchor="middle" x="50.5" y="-45.5" font-family="Helvetica,sans-Serif" font-size="10.00" fill="#000000"> typename &gt;</text>
<polyline fill="none" stroke="#000000" points="0,-38.5 101,-38.5 "/>
<text text-anchor="middle" x="50.5" y="-26.5" font-family="Helvetica,sans-Serif" font-size="10.00" fill="#000000"> </text>
<polyline fill="none" stroke="#000000" points="0,-19.5 101,-19.5 "/>
<text text-anchor="middle" x="50.5" y="-7.5" font-family="Helvetica,sans-Serif" font-size="10.00" fill="#000000"> </text>
</g>
<!-- Node3 -->
<g id="node2" class="node">
<title>Node3</title>
<polygon fill="#ffffff" stroke="#bfbfbf" points="19.5,-116.5 19.5,-173.5 81.5,-173.5 81.5,-116.5 19.5,-116.5"/>
<text text-anchor="middle" x="50.5" y="-161.5" font-family="Helvetica,sans-Serif" font-size="10.00" fill="#000000">false_type</text>
<polyline fill="none" stroke="#bfbfbf" points="19.5,-154.5 81.5,-154.5 "/>
<text text-anchor="middle" x="50.5" y="-142.5" font-family="Helvetica,sans-Serif" font-size="10.00" fill="#000000"> </text>
<polyline fill="none" stroke="#bfbfbf" points="19.5,-135.5 81.5,-135.5 "/>
<text text-anchor="middle" x="50.5" y="-123.5" font-family="Helvetica,sans-Serif" font-size="10.00" fill="#000000"> </text>
</g>
<!-- Node3&#45;&gt;Node2 -->
<g id="edge1" class="edge">
<title>Node3&#45;&gt;Node2</title>
<path fill="none" stroke="#191970" d="M50.5,-106.1156C50.5,-97.4889 50.5,-88.3353 50.5,-79.6773"/>
<polygon fill="none" stroke="#191970" points="47.0001,-106.3083 50.5,-116.3083 54.0001,-106.3083 47.0001,-106.3083"/>
</g>
</g>
</svg>
