<?xml version="1.0" encoding="UTF-8" standalone="no"?>
<!DOCTYPE svg PUBLIC "-//W3C//DTD SVG 1.1//EN"
 "http://www.w3.org/Graphics/SVG/1.1/DTD/svg11.dtd">
<!-- Generated by graphviz version 2.40.1 (20161225.0304)
 -->
<!-- Title: badtriang Pages: 1 -->
<svg width="134pt" height="215pt"
 viewBox="0.00 0.00 134.00 215.00" xmlns="http://www.w3.org/2000/svg" xmlns:xlink="http://www.w3.org/1999/xlink">
<g id="graph0" class="graph" transform="scale(1 1) rotate(0) translate(4 211)">
<title>badtriang</title>
<polygon fill="#ffffff" stroke="transparent" points="-4,4 -4,-211 130,-211 130,4 -4,4"/>
<!-- Node1 -->
<g id="node1" class="node">
<title>Node1</title>
<polygon fill="#bfbfbf" stroke="#000000" points="0,-.5 0,-57.5 56,-57.5 56,-.5 0,-.5"/>
<text text-anchor="middle" x="28" y="-45.5" font-family="Helvetica,sans-Serif" font-size="10.00" fill="#000000">badtriang</text>
<polyline fill="none" stroke="#000000" points="0,-38.5 56,-38.5 "/>
<text text-anchor="middle" x="28" y="-26.5" font-family="Helvetica,sans-Serif" font-size="10.00" fill="#000000"> </text>
<polyline fill="none" stroke="#000000" points="0,-19.5 56,-19.5 "/>
<text text-anchor="middle" x="28" y="-7.5" font-family="Helvetica,sans-Serif" font-size="10.00" fill="#000000"> </text>
</g>
<!-- Node1&#45;&gt;Node1 -->
<g id="edge1" class="edge">
<title>Node1&#45;&gt;Node1</title>
<path fill="none" stroke="#404040" d="M56.2994,-42.8716C66.0919,-43.0184 74,-38.3945 74,-29 74,-24.0092 71.7681,-20.3647 68.2075,-18.0667"/>
<polygon fill="none" stroke="#404040" points="67.95,-18.0032 61.1664,-20.4493 56.2994,-15.1284 63.083,-12.6823 67.95,-18.0032"/>
<text text-anchor="middle" x="100" y="-26.5" font-family="Helvetica,sans-Serif" font-size="10.00" fill="#000000"> +nexttriang</text>
</g>
<!-- Node2 -->
<g id="node2" class="node">
<title>Node2</title>
<polygon fill="#ffffff" stroke="#bfbfbf" points="6.5,-149.5 6.5,-206.5 49.5,-206.5 49.5,-149.5 6.5,-149.5"/>
<text text-anchor="middle" x="28" y="-194.5" font-family="Helvetica,sans-Serif" font-size="10.00" fill="#000000">REAL</text>
<polyline fill="none" stroke="#bfbfbf" points="6.5,-187.5 49.5,-187.5 "/>
<text text-anchor="middle" x="28" y="-175.5" font-family="Helvetica,sans-Serif" font-size="10.00" fill="#000000"> </text>
<polyline fill="none" stroke="#bfbfbf" points="6.5,-168.5 49.5,-168.5 "/>
<text text-anchor="middle" x="28" y="-156.5" font-family="Helvetica,sans-Serif" font-size="10.00" fill="#000000"> </text>
</g>
<!-- Node2&#45;&gt;Node1 -->
<g id="edge2" class="edge">
<title>Node2&#45;&gt;Node1</title>
<path fill="none" stroke="#404040" d="M28,-149.2713C28,-126.7002 28,-94.9774 28,-69.7784"/>
<polygon fill="none" stroke="#404040" points="28.0001,-69.6405 24,-63.6405 28,-57.6405 32,-63.6405 28.0001,-69.6405"/>
<text text-anchor="middle" x="54" y="-123" font-family="Helvetica,sans-Serif" font-size="10.00" fill="#000000"> +triangdest</text>
<text text-anchor="middle" x="54" y="-112" font-family="Helvetica,sans-Serif" font-size="10.00" fill="#000000">+triangorg</text>
<text text-anchor="middle" x="54" y="-101" font-family="Helvetica,sans-Serif" font-size="10.00" fill="#000000">+poortri</text>
<text text-anchor="middle" x="54" y="-90" font-family="Helvetica,sans-Serif" font-size="10.00" fill="#000000">+triangapex</text>
<text text-anchor="middle" x="54" y="-79" font-family="Helvetica,sans-Serif" font-size="10.00" fill="#000000">+key</text>
</g>
</g>
</svg>
