<?xml version="1.0" encoding="UTF-8" standalone="no"?>
<!DOCTYPE svg PUBLIC "-//W3C//DTD SVG 1.1//EN"
 "http://www.w3.org/Graphics/SVG/1.1/DTD/svg11.dtd">
<!-- Generated by graphviz version 2.40.1 (20161225.0304)
 -->
<!-- Title: nlohmann::detail::dtoa_impl::boundaries Pages: 1 -->
<svg width="138pt" height="375pt"
 viewBox="0.00 0.00 137.50 375.00" xmlns="http://www.w3.org/2000/svg" xmlns:xlink="http://www.w3.org/1999/xlink">
<g id="graph0" class="graph" transform="scale(1 1) rotate(0) translate(4 371)">
<title>nlohmann::detail::dtoa_impl::boundaries</title>
<polygon fill="#ffffff" stroke="transparent" points="-4,4 -4,-371 133.5,-371 133.5,4 -4,4"/>
<!-- Node1 -->
<g id="node1" class="node">
<title>Node1</title>
<polygon fill="#bfbfbf" stroke="#000000" points="0,-.5 0,-68.5 113,-68.5 113,-.5 0,-.5"/>
<text text-anchor="start" x="8" y="-56.5" font-family="Helvetica,sans-Serif" font-size="10.00" fill="#000000">nlohmann::detail::dtoa</text>
<text text-anchor="middle" x="56.5" y="-45.5" font-family="Helvetica,sans-Serif" font-size="10.00" fill="#000000">_impl::boundaries</text>
<polyline fill="none" stroke="#000000" points="0,-38.5 113,-38.5 "/>
<text text-anchor="middle" x="56.5" y="-26.5" font-family="Helvetica,sans-Serif" font-size="10.00" fill="#000000"> </text>
<polyline fill="none" stroke="#000000" points="0,-19.5 113,-19.5 "/>
<text text-anchor="middle" x="56.5" y="-7.5" font-family="Helvetica,sans-Serif" font-size="10.00" fill="#000000"> </text>
</g>
<!-- Node2 -->
<g id="node2" class="node">
<title>Node2</title>
<g id="a_node2"><a xlink:href="structnlohmann_1_1detail_1_1dtoa__impl_1_1diyfp.html" target="_top" xlink:title="{nlohmann::detail::dtoa\l_impl::diyfp\n||+ diyfp()\l+ sub()\l+ mul()\l+ normalize()\l+ normalize_to()\l}">
<polygon fill="#ffffff" stroke="#000000" points="0,-138.5 0,-250.5 113,-250.5 113,-138.5 0,-138.5"/>
<text text-anchor="start" x="8" y="-238.5" font-family="Helvetica,sans-Serif" font-size="10.00" fill="#000000">nlohmann::detail::dtoa</text>
<text text-anchor="middle" x="56.5" y="-227.5" font-family="Helvetica,sans-Serif" font-size="10.00" fill="#000000">_impl::diyfp</text>
<polyline fill="none" stroke="#000000" points="0,-220.5 113,-220.5 "/>
<text text-anchor="middle" x="56.5" y="-208.5" font-family="Helvetica,sans-Serif" font-size="10.00" fill="#000000"> </text>
<polyline fill="none" stroke="#000000" points="0,-201.5 113,-201.5 "/>
<text text-anchor="start" x="8" y="-189.5" font-family="Helvetica,sans-Serif" font-size="10.00" fill="#000000">+ diyfp()</text>
<text text-anchor="start" x="8" y="-178.5" font-family="Helvetica,sans-Serif" font-size="10.00" fill="#000000">+ sub()</text>
<text text-anchor="start" x="8" y="-167.5" font-family="Helvetica,sans-Serif" font-size="10.00" fill="#000000">+ mul()</text>
<text text-anchor="start" x="8" y="-156.5" font-family="Helvetica,sans-Serif" font-size="10.00" fill="#000000">+ normalize()</text>
<text text-anchor="start" x="8" y="-145.5" font-family="Helvetica,sans-Serif" font-size="10.00" fill="#000000">+ normalize_to()</text>
</a>
</g>
</g>
<!-- Node2&#45;&gt;Node1 -->
<g id="edge1" class="edge">
<title>Node2&#45;&gt;Node1</title>
<path fill="none" stroke="#404040" d="M56.5,-138.09C56.5,-119.3206 56.5,-98.6485 56.5,-80.7405"/>
<polygon fill="none" stroke="#404040" points="56.5001,-80.5497 52.5,-74.5497 56.5,-68.5497 60.5,-74.5496 56.5001,-80.5497"/>
<text text-anchor="middle" x="74.5" y="-112" font-family="Helvetica,sans-Serif" font-size="10.00" fill="#000000"> +minus</text>
<text text-anchor="middle" x="74.5" y="-101" font-family="Helvetica,sans-Serif" font-size="10.00" fill="#000000">+plus</text>
<text text-anchor="middle" x="74.5" y="-90" font-family="Helvetica,sans-Serif" font-size="10.00" fill="#000000">+w</text>
</g>
<!-- Node3 -->
<g id="node3" class="node">
<title>Node3</title>
<polygon fill="#ffffff" stroke="#bfbfbf" points="2,-309.5 2,-366.5 53,-366.5 53,-309.5 2,-309.5"/>
<text text-anchor="middle" x="27.5" y="-354.5" font-family="Helvetica,sans-Serif" font-size="10.00" fill="#000000">uint64_t</text>
<polyline fill="none" stroke="#bfbfbf" points="2,-347.5 53,-347.5 "/>
<text text-anchor="middle" x="27.5" y="-335.5" font-family="Helvetica,sans-Serif" font-size="10.00" fill="#000000"> </text>
<polyline fill="none" stroke="#bfbfbf" points="2,-328.5 53,-328.5 "/>
<text text-anchor="middle" x="27.5" y="-316.5" font-family="Helvetica,sans-Serif" font-size="10.00" fill="#000000"> </text>
</g>
<!-- Node3&#45;&gt;Node2 -->
<g id="edge2" class="edge">
<title>Node3&#45;&gt;Node2</title>
<path fill="none" stroke="#404040" d="M33.2989,-309.3055C36.0256,-295.8132 39.4036,-279.0976 42.7303,-262.6362"/>
<polygon fill="none" stroke="#404040" points="42.7564,-262.5067 40.0242,-255.8332 45.1335,-250.7445 47.8657,-257.4179 42.7564,-262.5067"/>
<text text-anchor="middle" x="48" y="-277.5" font-family="Helvetica,sans-Serif" font-size="10.00" fill="#000000"> +f</text>
</g>
<!-- Node4 -->
<g id="node4" class="node">
<title>Node4</title>
<polygon fill="#ffffff" stroke="#bfbfbf" points="71,-309.5 71,-366.5 100,-366.5 100,-309.5 71,-309.5"/>
<text text-anchor="middle" x="85.5" y="-354.5" font-family="Helvetica,sans-Serif" font-size="10.00" fill="#000000">int</text>
<polyline fill="none" stroke="#bfbfbf" points="71,-347.5 100,-347.5 "/>
<text text-anchor="middle" x="85.5" y="-335.5" font-family="Helvetica,sans-Serif" font-size="10.00" fill="#000000"> </text>
<polyline fill="none" stroke="#bfbfbf" points="71,-328.5 100,-328.5 "/>
<text text-anchor="middle" x="85.5" y="-316.5" font-family="Helvetica,sans-Serif" font-size="10.00" fill="#000000"> </text>
</g>
<!-- Node4&#45;&gt;Node2 -->
<g id="edge3" class="edge">
<title>Node4&#45;&gt;Node2</title>
<path fill="none" stroke="#404040" d="M79.7011,-309.3055C76.9744,-295.8132 73.5964,-279.0976 70.2697,-262.6362"/>
<polygon fill="none" stroke="#404040" points="70.2436,-262.5067 65.1343,-257.4179 67.8665,-250.7445 72.9758,-255.8332 70.2436,-262.5067"/>
<text text-anchor="middle" x="102" y="-283" font-family="Helvetica,sans-Serif" font-size="10.00" fill="#000000"> +kPrecision</text>
<text text-anchor="middle" x="102" y="-272" font-family="Helvetica,sans-Serif" font-size="10.00" fill="#000000">+e</text>
</g>
</g>
</svg>
