<?xml version="1.0" encoding="UTF-8" standalone="no"?>
<!DOCTYPE svg PUBLIC "-//W3C//DTD SVG 1.1//EN"
 "http://www.w3.org/Graphics/SVG/1.1/DTD/svg11.dtd">
<!-- Generated by graphviz version 2.40.1 (20161225.0304)
 -->
<!-- Title: nlohmann::detail::is_compatible_type_impl&lt; BasicJsonType, CompatibleType, typename &gt; Pages: 1 -->
<svg width="181pt" height="193pt"
 viewBox="0.00 0.00 181.00 193.00" xmlns="http://www.w3.org/2000/svg" xmlns:xlink="http://www.w3.org/1999/xlink">
<g id="graph0" class="graph" transform="scale(1 1) rotate(0) translate(4 189)">
<title>nlohmann::detail::is_compatible_type_impl&lt; BasicJsonType, CompatibleType, typename &gt;</title>
<polygon fill="#ffffff" stroke="transparent" points="-4,4 -4,-189 177,-189 177,4 -4,4"/>
<!-- Node4 -->
<g id="node1" class="node">
<title>Node4</title>
<polygon fill="#bfbfbf" stroke="#000000" points="0,-.5 0,-90.5 173,-90.5 173,-.5 0,-.5"/>
<text text-anchor="start" x="8" y="-78.5" font-family="Helvetica,sans-Serif" font-size="10.00" fill="#000000">nlohmann::detail::is</text>
<text text-anchor="start" x="8" y="-67.5" font-family="Helvetica,sans-Serif" font-size="10.00" fill="#000000">_compatible_type_impl</text>
<text text-anchor="start" x="8" y="-56.5" font-family="Helvetica,sans-Serif" font-size="10.00" fill="#000000">&lt; BasicJsonType, CompatibleType,</text>
<text text-anchor="middle" x="86.5" y="-45.5" font-family="Helvetica,sans-Serif" font-size="10.00" fill="#000000"> typename &gt;</text>
<polyline fill="none" stroke="#000000" points="0,-38.5 173,-38.5 "/>
<text text-anchor="middle" x="86.5" y="-26.5" font-family="Helvetica,sans-Serif" font-size="10.00" fill="#000000"> </text>
<polyline fill="none" stroke="#000000" points="0,-19.5 173,-19.5 "/>
<text text-anchor="middle" x="86.5" y="-7.5" font-family="Helvetica,sans-Serif" font-size="10.00" fill="#000000"> </text>
</g>
<!-- Node5 -->
<g id="node2" class="node">
<title>Node5</title>
<polygon fill="#ffffff" stroke="#bfbfbf" points="55.5,-127.5 55.5,-184.5 117.5,-184.5 117.5,-127.5 55.5,-127.5"/>
<text text-anchor="middle" x="86.5" y="-172.5" font-family="Helvetica,sans-Serif" font-size="10.00" fill="#000000">false_type</text>
<polyline fill="none" stroke="#bfbfbf" points="55.5,-165.5 117.5,-165.5 "/>
<text text-anchor="middle" x="86.5" y="-153.5" font-family="Helvetica,sans-Serif" font-size="10.00" fill="#000000"> </text>
<polyline fill="none" stroke="#bfbfbf" points="55.5,-146.5 117.5,-146.5 "/>
<text text-anchor="middle" x="86.5" y="-134.5" font-family="Helvetica,sans-Serif" font-size="10.00" fill="#000000"> </text>
</g>
<!-- Node5&#45;&gt;Node4 -->
<g id="edge1" class="edge">
<title>Node5&#45;&gt;Node4</title>
<path fill="none" stroke="#191970" d="M86.5,-117.1977C86.5,-108.667 86.5,-99.5607 86.5,-90.7995"/>
<polygon fill="none" stroke="#191970" points="83.0001,-117.2559 86.5,-127.2559 90.0001,-117.2559 83.0001,-117.2559"/>
</g>
</g>
</svg>
