<?xml version="1.0" encoding="UTF-8" standalone="no"?>
<!DOCTYPE svg PUBLIC "-//W3C//DTD SVG 1.1//EN"
 "http://www.w3.org/Graphics/SVG/1.1/DTD/svg11.dtd">
<!-- Generated by graphviz version 2.40.1 (20161225.0304)
 -->
<!-- Title: triangulateio Pages: 1 -->
<svg width="285pt" height="336pt"
 viewBox="0.00 0.00 285.00 336.00" xmlns="http://www.w3.org/2000/svg" xmlns:xlink="http://www.w3.org/1999/xlink">
<g id="graph0" class="graph" transform="scale(1 1) rotate(0) translate(4 332)">
<title>triangulateio</title>
<polygon fill="#ffffff" stroke="transparent" points="-4,4 -4,-332 281,-332 281,4 -4,4"/>
<!-- Node1 -->
<g id="node1" class="node">
<title>Node1</title>
<polygon fill="#bfbfbf" stroke="#000000" points="8,-.5 8,-112.5 168,-112.5 168,-.5 8,-.5"/>
<text text-anchor="middle" x="88" y="-100.5" font-family="Helvetica,sans-Serif" font-size="10.00" fill="#000000">triangulateio</text>
<polyline fill="none" stroke="#000000" points="8,-93.5 168,-93.5 "/>
<text text-anchor="start" x="16" y="-81.5" font-family="Helvetica,sans-Serif" font-size="10.00" fill="#000000">+ numberofpoints</text>
<text text-anchor="start" x="16" y="-70.5" font-family="Helvetica,sans-Serif" font-size="10.00" fill="#000000">+ numberoftriangles</text>
<text text-anchor="start" x="16" y="-59.5" font-family="Helvetica,sans-Serif" font-size="10.00" fill="#000000">+ numberofcorners</text>
<text text-anchor="start" x="16" y="-48.5" font-family="Helvetica,sans-Serif" font-size="10.00" fill="#000000">+ numberoftriangleattributes</text>
<text text-anchor="start" x="16" y="-37.5" font-family="Helvetica,sans-Serif" font-size="10.00" fill="#000000">+ edgelist</text>
<text text-anchor="start" x="16" y="-26.5" font-family="Helvetica,sans-Serif" font-size="10.00" fill="#000000">+ edgemarkerlist</text>
<polyline fill="none" stroke="#000000" points="8,-19.5 168,-19.5 "/>
<text text-anchor="middle" x="88" y="-7.5" font-family="Helvetica,sans-Serif" font-size="10.00" fill="#000000"> </text>
</g>
<!-- Node2 -->
<g id="node2" class="node">
<title>Node2</title>
<polygon fill="#ffffff" stroke="#bfbfbf" points="0,-270.5 0,-327.5 50,-327.5 50,-270.5 0,-270.5"/>
<text text-anchor="middle" x="25" y="-315.5" font-family="Helvetica,sans-Serif" font-size="10.00" fill="#000000">REAL *</text>
<polyline fill="none" stroke="#bfbfbf" points="0,-308.5 50,-308.5 "/>
<text text-anchor="middle" x="25" y="-296.5" font-family="Helvetica,sans-Serif" font-size="10.00" fill="#000000"> </text>
<polyline fill="none" stroke="#bfbfbf" points="0,-289.5 50,-289.5 "/>
<text text-anchor="middle" x="25" y="-277.5" font-family="Helvetica,sans-Serif" font-size="10.00" fill="#000000"> </text>
</g>
<!-- Node2&#45;&gt;Node1 -->
<g id="edge1" class="edge">
<title>Node2&#45;&gt;Node1</title>
<path fill="none" stroke="#404040" d="M19.4588,-270.3266C14.1051,-236.0331 9.047,-177.4408 26,-131 26.9377,-128.4314 28.0061,-125.8887 29.1849,-123.379"/>
<polygon fill="none" stroke="#404040" points="29.2984,-123.1685 28.6278,-115.9887 34.9975,-112.6081 35.6681,-119.788 29.2984,-123.1685"/>
<text text-anchor="middle" x="77.5" y="-222" font-family="Helvetica,sans-Serif" font-size="10.00" fill="#000000"> +regionlist</text>
<text text-anchor="middle" x="77.5" y="-211" font-family="Helvetica,sans-Serif" font-size="10.00" fill="#000000">+pointattributelist</text>
<text text-anchor="middle" x="77.5" y="-200" font-family="Helvetica,sans-Serif" font-size="10.00" fill="#000000">+pointlist</text>
<text text-anchor="middle" x="77.5" y="-189" font-family="Helvetica,sans-Serif" font-size="10.00" fill="#000000">+trianglearealist</text>
<text text-anchor="middle" x="77.5" y="-178" font-family="Helvetica,sans-Serif" font-size="10.00" fill="#000000">+normlist</text>
<text text-anchor="middle" x="77.5" y="-167" font-family="Helvetica,sans-Serif" font-size="10.00" fill="#000000">+triangleattributelist</text>
<text text-anchor="middle" x="77.5" y="-156" font-family="Helvetica,sans-Serif" font-size="10.00" fill="#000000">+holelist</text>
</g>
<!-- Node3 -->
<g id="node3" class="node">
<title>Node3</title>
<polygon fill="#ffffff" stroke="#bfbfbf" points="136.5,-270.5 136.5,-327.5 165.5,-327.5 165.5,-270.5 136.5,-270.5"/>
<text text-anchor="middle" x="151" y="-315.5" font-family="Helvetica,sans-Serif" font-size="10.00" fill="#000000">int</text>
<polyline fill="none" stroke="#bfbfbf" points="136.5,-308.5 165.5,-308.5 "/>
<text text-anchor="middle" x="151" y="-296.5" font-family="Helvetica,sans-Serif" font-size="10.00" fill="#000000"> </text>
<polyline fill="none" stroke="#bfbfbf" points="136.5,-289.5 165.5,-289.5 "/>
<text text-anchor="middle" x="151" y="-277.5" font-family="Helvetica,sans-Serif" font-size="10.00" fill="#000000"> </text>
</g>
<!-- Node3&#45;&gt;Node1 -->
<g id="edge2" class="edge">
<title>Node3&#45;&gt;Node1</title>
<path fill="none" stroke="#404040" d="M150.4679,-270.3472C149.1093,-236.3245 144.48,-178.2409 129,-131 128.2587,-128.7378 127.4481,-126.465 126.5799,-124.1918"/>
<polygon fill="none" stroke="#404040" points="126.4702,-123.9311 120.4551,-119.9538 121.8129,-112.8717 127.828,-116.849 126.4702,-123.9311"/>
<text text-anchor="middle" x="213" y="-244" font-family="Helvetica,sans-Serif" font-size="10.00" fill="#000000"> +numberofsegments</text>
<text text-anchor="middle" x="213" y="-233" font-family="Helvetica,sans-Serif" font-size="10.00" fill="#000000">+segmentmarkerlist</text>
<text text-anchor="middle" x="213" y="-222" font-family="Helvetica,sans-Serif" font-size="10.00" fill="#000000">+numberofedges</text>
<text text-anchor="middle" x="213" y="-211" font-family="Helvetica,sans-Serif" font-size="10.00" fill="#000000">+segmentlist</text>
<text text-anchor="middle" x="213" y="-200" font-family="Helvetica,sans-Serif" font-size="10.00" fill="#000000">+pointmarkerlist</text>
<text text-anchor="middle" x="213" y="-189" font-family="Helvetica,sans-Serif" font-size="10.00" fill="#000000">+numberofpointattributes</text>
<text text-anchor="middle" x="213" y="-178" font-family="Helvetica,sans-Serif" font-size="10.00" fill="#000000">+trianglelist</text>
<text text-anchor="middle" x="213" y="-167" font-family="Helvetica,sans-Serif" font-size="10.00" fill="#000000">+numberofholes</text>
<text text-anchor="middle" x="213" y="-156" font-family="Helvetica,sans-Serif" font-size="10.00" fill="#000000">+neighborlist</text>
<text text-anchor="middle" x="213" y="-145" font-family="Helvetica,sans-Serif" font-size="10.00" fill="#000000">+numberofregions</text>
<text text-anchor="middle" x="213" y="-134" font-family="Helvetica,sans-Serif" font-size="10.00" fill="#000000">...</text>
</g>
</g>
</svg>
