<?xml version="1.0" encoding="UTF-8" standalone="no"?>
<!DOCTYPE svg PUBLIC "-//W3C//DTD SVG 1.1//EN"
 "http://www.w3.org/Graphics/SVG/1.1/DTD/svg11.dtd">
<!-- Generated by graphviz version 2.40.1 (20161225.0304)
 -->
<!-- Title: River::GeometryDifference Pages: 1 -->
<svg width="319pt" height="259pt"
 viewBox="0.00 0.00 318.50 259.00" xmlns="http://www.w3.org/2000/svg" xmlns:xlink="http://www.w3.org/1999/xlink">
<g id="graph0" class="graph" transform="scale(1 1) rotate(0) translate(4 255)">
<title>River::GeometryDifference</title>
<polygon fill="#ffffff" stroke="transparent" points="-4,4 -4,-255 314.5,-255 314.5,4 -4,4"/>
<!-- Node1 -->
<g id="node1" class="node">
<title>Node1</title>
<polygon fill="#bfbfbf" stroke="#000000" points="48,-.5 48,-101.5 209,-101.5 209,-.5 48,-.5"/>
<text text-anchor="middle" x="128.5" y="-89.5" font-family="Helvetica,sans-Serif" font-size="10.00" fill="#000000">River::GeometryDifference</text>
<polyline fill="none" stroke="#000000" points="48,-82.5 209,-82.5 "/>
<text text-anchor="middle" x="128.5" y="-70.5" font-family="Helvetica,sans-Serif" font-size="10.00" fill="#000000"> </text>
<polyline fill="none" stroke="#000000" points="48,-63.5 209,-63.5 "/>
<text text-anchor="start" x="56" y="-51.5" font-family="Helvetica,sans-Serif" font-size="10.00" fill="#000000">+ StartBiffurcationRecord()</text>
<text text-anchor="start" x="56" y="-40.5" font-family="Helvetica,sans-Serif" font-size="10.00" fill="#000000">+ EndBiffurcationRecord()</text>
<text text-anchor="start" x="56" y="-29.5" font-family="Helvetica,sans-Serif" font-size="10.00" fill="#000000">+ RecordBranchSeriesParams</text>
<text text-anchor="start" x="56" y="-18.5" font-family="Helvetica,sans-Serif" font-size="10.00" fill="#000000">AndGeomDiff()</text>
<text text-anchor="start" x="56" y="-7.5" font-family="Helvetica,sans-Serif" font-size="10.00" fill="#000000">&#45; RecordBiffurcationPoint()</text>
</g>
<!-- Node2 -->
<g id="node2" class="node">
<title>Node2</title>
<polygon fill="#ffffff" stroke="#bfbfbf" points="0,-188 0,-245 113,-245 113,-188 0,-188"/>
<text text-anchor="middle" x="56.5" y="-233" font-family="Helvetica,sans-Serif" font-size="10.00" fill="#000000">map&lt; int, double &gt;</text>
<polyline fill="none" stroke="#bfbfbf" points="0,-226 113,-226 "/>
<text text-anchor="middle" x="56.5" y="-214" font-family="Helvetica,sans-Serif" font-size="10.00" fill="#000000"> </text>
<polyline fill="none" stroke="#bfbfbf" points="0,-207 113,-207 "/>
<text text-anchor="middle" x="56.5" y="-195" font-family="Helvetica,sans-Serif" font-size="10.00" fill="#000000"> </text>
</g>
<!-- Node2&#45;&gt;Node1 -->
<g id="edge1" class="edge">
<title>Node2&#45;&gt;Node1</title>
<path fill="none" stroke="#404040" d="M69.0414,-187.6721C78.0261,-167.0198 90.4636,-138.4308 101.6419,-112.7364"/>
<polygon fill="none" stroke="#404040" points="101.7192,-112.5585 100.4449,-105.4609 106.5064,-101.5547 107.7807,-108.6524 101.7192,-112.5585"/>
<text text-anchor="middle" x="134.5" y="-139.5" font-family="Helvetica,sans-Serif" font-size="10.00" fill="#000000"> &#45;bif_difference</text>
</g>
<!-- Node3 -->
<g id="node3" class="node">
<title>Node3</title>
<polygon fill="#ffffff" stroke="#bfbfbf" points="131,-182.5 131,-250.5 272,-250.5 272,-182.5 131,-182.5"/>
<text text-anchor="start" x="139" y="-238.5" font-family="Helvetica,sans-Serif" font-size="10.00" fill="#000000">map&lt; int, vector&lt; vector</text>
<text text-anchor="middle" x="201.5" y="-227.5" font-family="Helvetica,sans-Serif" font-size="10.00" fill="#000000">&lt; double &gt; &gt; &gt;</text>
<polyline fill="none" stroke="#bfbfbf" points="131,-220.5 272,-220.5 "/>
<text text-anchor="middle" x="201.5" y="-208.5" font-family="Helvetica,sans-Serif" font-size="10.00" fill="#000000"> </text>
<polyline fill="none" stroke="#bfbfbf" points="131,-201.5 272,-201.5 "/>
<text text-anchor="middle" x="201.5" y="-189.5" font-family="Helvetica,sans-Serif" font-size="10.00" fill="#000000"> </text>
</g>
<!-- Node3&#45;&gt;Node1 -->
<g id="edge2" class="edge">
<title>Node3&#45;&gt;Node1</title>
<path fill="none" stroke="#404040" d="M195.2547,-182.4885C191.0662,-163.5541 184.6251,-139.8667 175.5,-120 174.3694,-117.5386 173.1535,-115.0689 171.8707,-112.6052"/>
<polygon fill="none" stroke="#404040" points="171.733,-112.359 165.3129,-109.0752 165.8749,-101.886 172.2949,-105.1698 171.733,-112.359"/>
<text text-anchor="start" x="190.5" y="-156" font-family="Helvetica,sans-Serif" font-size="10.00" fill="#000000"> +branches_biffuraction</text>
<text text-anchor="middle" x="250.5" y="-145" font-family="Helvetica,sans-Serif" font-size="10.00" fill="#000000">_info</text>
<text text-anchor="start" x="190.5" y="-134" font-family="Helvetica,sans-Serif" font-size="10.00" fill="#000000">+branches_series</text>
<text text-anchor="middle" x="250.5" y="-123" font-family="Helvetica,sans-Serif" font-size="10.00" fill="#000000">_params_and_geom_diff</text>
</g>
</g>
</svg>
