<?xml version="1.0" encoding="UTF-8" standalone="no"?>
<!DOCTYPE svg PUBLIC "-//W3C//DTD SVG 1.1//EN"
 "http://www.w3.org/Graphics/SVG/1.1/DTD/svg11.dtd">
<!-- Generated by graphviz version 2.40.1 (20161225.0304)
 -->
<!-- Title: nlohmann::detail::internal_iterator&lt; BasicJsonType &gt; Pages: 1 -->
<svg width="284pt" height="430pt"
 viewBox="0.00 0.00 283.60 430.00" xmlns="http://www.w3.org/2000/svg" xmlns:xlink="http://www.w3.org/1999/xlink">
<g id="graph0" class="graph" transform="scale(1 1) rotate(0) translate(4 426)">
<title>nlohmann::detail::internal_iterator&lt; BasicJsonType &gt;</title>
<polygon fill="#ffffff" stroke="transparent" points="-4,4 -4,-426 279.6026,-426 279.6026,4 -4,4"/>
<!-- Node2 -->
<g id="node1" class="node">
<title>Node2</title>
<polygon fill="#bfbfbf" stroke="#000000" points="28.1026,-.5 28.1026,-68.5 165.1026,-68.5 165.1026,-.5 28.1026,-.5"/>
<text text-anchor="start" x="36.1026" y="-56.5" font-family="Helvetica,sans-Serif" font-size="10.00" fill="#000000">nlohmann::detail::internal</text>
<text text-anchor="middle" x="96.6026" y="-45.5" font-family="Helvetica,sans-Serif" font-size="10.00" fill="#000000">_iterator&lt; BasicJsonType &gt;</text>
<polyline fill="none" stroke="#000000" points="28.1026,-38.5 165.1026,-38.5 "/>
<text text-anchor="middle" x="96.6026" y="-26.5" font-family="Helvetica,sans-Serif" font-size="10.00" fill="#000000"> </text>
<polyline fill="none" stroke="#000000" points="28.1026,-19.5 165.1026,-19.5 "/>
<text text-anchor="middle" x="96.6026" y="-7.5" font-family="Helvetica,sans-Serif" font-size="10.00" fill="#000000"> </text>
</g>
<!-- Node3 -->
<g id="node2" class="node">
<title>Node3</title>
<polygon fill="#ffffff" stroke="#bfbfbf" points="21.1026,-182.5 21.1026,-239.5 68.1026,-239.5 68.1026,-182.5 21.1026,-182.5"/>
<text text-anchor="middle" x="44.6026" y="-227.5" font-family="Helvetica,sans-Serif" font-size="10.00" fill="#000000">iterator</text>
<polyline fill="none" stroke="#bfbfbf" points="21.1026,-220.5 68.1026,-220.5 "/>
<text text-anchor="middle" x="44.6026" y="-208.5" font-family="Helvetica,sans-Serif" font-size="10.00" fill="#000000"> </text>
<polyline fill="none" stroke="#bfbfbf" points="21.1026,-201.5 68.1026,-201.5 "/>
<text text-anchor="middle" x="44.6026" y="-189.5" font-family="Helvetica,sans-Serif" font-size="10.00" fill="#000000"> </text>
</g>
<!-- Node3&#45;&gt;Node2 -->
<g id="edge1" class="edge">
<title>Node3&#45;&gt;Node2</title>
<path fill="none" stroke="#404040" d="M23.805,-182.4462C7.5397,-156.3169 -9.6671,-117.2377 7.6026,-87 10.6929,-81.5892 14.5831,-76.6802 18.9991,-72.2364"/>
<polygon fill="none" stroke="#404040" points="19.0598,-72.1829 20.9209,-65.2161 28.0677,-64.2545 26.2066,-71.2214 19.0598,-72.1829"/>
<text text-anchor="middle" x="41.1026" y="-90" font-family="Helvetica,sans-Serif" font-size="10.00" fill="#000000"> +array_iterator</text>
</g>
<!-- Node3&#45;&gt;Node2 -->
<g id="edge2" class="edge">
<title>Node3&#45;&gt;Node2</title>
<path fill="none" stroke="#404040" d="M53.0731,-182.2494C61.188,-154.7053 73.5675,-112.6864 83.053,-80.4907"/>
<polygon fill="none" stroke="#404040" points="83.1404,-80.1938 80.9991,-73.3079 86.5317,-68.683 88.673,-75.5689 83.1404,-80.1938"/>
<text text-anchor="middle" x="116.1026" y="-90" font-family="Helvetica,sans-Serif" font-size="10.00" fill="#000000"> +object_iterator</text>
</g>
<!-- Node4 -->
<g id="node3" class="node">
<title>Node4</title>
<g id="a_node3"><a xlink:href="classnlohmann_1_1detail_1_1primitive__iterator__t.html" target="_top" xlink:title="{nlohmann::detail::primitive\l_iterator_t\n||+ get_value()\l+ set_begin()\l+ set_end()\l+ is_begin()\l+ is_end()\l+ operator+()\l+ operator++()\l+ operator++()\l+ operator&#45;&#45;()\l+ operator&#45;&#45;()\l+ operator+=()\l+ operator&#45;=()\l}">
<polygon fill="#ffffff" stroke="#000000" points="125.1026,-116.5 125.1026,-305.5 256.1026,-305.5 256.1026,-116.5 125.1026,-116.5"/>
<text text-anchor="start" x="133.1026" y="-293.5" font-family="Helvetica,sans-Serif" font-size="10.00" fill="#000000">nlohmann::detail::primitive</text>
<text text-anchor="middle" x="190.6026" y="-282.5" font-family="Helvetica,sans-Serif" font-size="10.00" fill="#000000">_iterator_t</text>
<polyline fill="none" stroke="#000000" points="125.1026,-275.5 256.1026,-275.5 "/>
<text text-anchor="middle" x="190.6026" y="-263.5" font-family="Helvetica,sans-Serif" font-size="10.00" fill="#000000"> </text>
<polyline fill="none" stroke="#000000" points="125.1026,-256.5 256.1026,-256.5 "/>
<text text-anchor="start" x="133.1026" y="-244.5" font-family="Helvetica,sans-Serif" font-size="10.00" fill="#000000">+ get_value()</text>
<text text-anchor="start" x="133.1026" y="-233.5" font-family="Helvetica,sans-Serif" font-size="10.00" fill="#000000">+ set_begin()</text>
<text text-anchor="start" x="133.1026" y="-222.5" font-family="Helvetica,sans-Serif" font-size="10.00" fill="#000000">+ set_end()</text>
<text text-anchor="start" x="133.1026" y="-211.5" font-family="Helvetica,sans-Serif" font-size="10.00" fill="#000000">+ is_begin()</text>
<text text-anchor="start" x="133.1026" y="-200.5" font-family="Helvetica,sans-Serif" font-size="10.00" fill="#000000">+ is_end()</text>
<text text-anchor="start" x="133.1026" y="-189.5" font-family="Helvetica,sans-Serif" font-size="10.00" fill="#000000">+ operator+()</text>
<text text-anchor="start" x="133.1026" y="-178.5" font-family="Helvetica,sans-Serif" font-size="10.00" fill="#000000">+ operator++()</text>
<text text-anchor="start" x="133.1026" y="-167.5" font-family="Helvetica,sans-Serif" font-size="10.00" fill="#000000">+ operator++()</text>
<text text-anchor="start" x="133.1026" y="-156.5" font-family="Helvetica,sans-Serif" font-size="10.00" fill="#000000">+ operator&#45;&#45;()</text>
<text text-anchor="start" x="133.1026" y="-145.5" font-family="Helvetica,sans-Serif" font-size="10.00" fill="#000000">+ operator&#45;&#45;()</text>
<text text-anchor="start" x="133.1026" y="-134.5" font-family="Helvetica,sans-Serif" font-size="10.00" fill="#000000">+ operator+=()</text>
<text text-anchor="start" x="133.1026" y="-123.5" font-family="Helvetica,sans-Serif" font-size="10.00" fill="#000000">+ operator&#45;=()</text>
</a>
</g>
</g>
<!-- Node4&#45;&gt;Node2 -->
<g id="edge3" class="edge">
<title>Node4&#45;&gt;Node2</title>
<path fill="none" stroke="#404040" d="M170.1165,-116.4669C166.0917,-106.1479 161.3002,-96.1007 155.6026,-87 153.6291,-83.8477 151.4114,-80.774 149.0234,-77.7976"/>
<polygon fill="none" stroke="#404040" points="148.8695,-77.6241 141.8958,-75.789 140.9075,-68.6459 147.8813,-70.481 148.8695,-77.6241"/>
<text text-anchor="middle" x="201.6026" y="-90" font-family="Helvetica,sans-Serif" font-size="10.00" fill="#000000"> +primitive_iterator</text>
</g>
<!-- Node5 -->
<g id="node4" class="node">
<title>Node5</title>
<polygon fill="#ffffff" stroke="#bfbfbf" points="51.6026,-364.5 51.6026,-421.5 207.6026,-421.5 207.6026,-364.5 51.6026,-364.5"/>
<text text-anchor="middle" x="129.6026" y="-409.5" font-family="Helvetica,sans-Serif" font-size="10.00" fill="#000000">static constexpr difference_type</text>
<polyline fill="none" stroke="#bfbfbf" points="51.6026,-402.5 207.6026,-402.5 "/>
<text text-anchor="middle" x="129.6026" y="-390.5" font-family="Helvetica,sans-Serif" font-size="10.00" fill="#000000"> </text>
<polyline fill="none" stroke="#bfbfbf" points="51.6026,-383.5 207.6026,-383.5 "/>
<text text-anchor="middle" x="129.6026" y="-371.5" font-family="Helvetica,sans-Serif" font-size="10.00" fill="#000000"> </text>
</g>
<!-- Node5&#45;&gt;Node4 -->
<g id="edge4" class="edge">
<title>Node5&#45;&gt;Node4</title>
<path fill="none" stroke="#404040" d="M139.2683,-364.1616C143.6775,-351.006 149.1996,-334.5304 154.9741,-317.3014"/>
<polygon fill="none" stroke="#404040" points="154.9826,-317.2759 153.0967,-310.3158 158.7962,-305.898 160.682,-312.8581 154.9826,-317.2759"/>
<text text-anchor="middle" x="178.1026" y="-338" font-family="Helvetica,sans-Serif" font-size="10.00" fill="#000000"> &#45;end_value</text>
<text text-anchor="middle" x="178.1026" y="-327" font-family="Helvetica,sans-Serif" font-size="10.00" fill="#000000">&#45;begin_value</text>
</g>
<!-- Node6 -->
<g id="node5" class="node">
<title>Node6</title>
<polygon fill="#ffffff" stroke="#bfbfbf" points="225.6026,-364.5 225.6026,-421.5 275.6026,-421.5 275.6026,-364.5 225.6026,-364.5"/>
<text text-anchor="middle" x="250.6026" y="-409.5" font-family="Helvetica,sans-Serif" font-size="10.00" fill="#000000">ptrdiff_t</text>
<polyline fill="none" stroke="#bfbfbf" points="225.6026,-402.5 275.6026,-402.5 "/>
<text text-anchor="middle" x="250.6026" y="-390.5" font-family="Helvetica,sans-Serif" font-size="10.00" fill="#000000"> </text>
<polyline fill="none" stroke="#bfbfbf" points="225.6026,-383.5 275.6026,-383.5 "/>
<text text-anchor="middle" x="250.6026" y="-371.5" font-family="Helvetica,sans-Serif" font-size="10.00" fill="#000000"> </text>
</g>
<!-- Node6&#45;&gt;Node4 -->
<g id="edge5" class="edge">
<title>Node6&#45;&gt;Node4</title>
<path fill="none" stroke="#404040" d="M241.0955,-364.1616C236.7585,-351.006 231.3269,-334.5304 225.647,-317.3014"/>
<polygon fill="none" stroke="#404040" points="225.6449,-317.2947 219.9674,-312.8487 221.8877,-305.898 227.5652,-310.3439 225.6449,-317.2947"/>
<text text-anchor="middle" x="246.1026" y="-332.5" font-family="Helvetica,sans-Serif" font-size="10.00" fill="#000000"> &#45;m_it</text>
</g>
</g>
</svg>
