<?xml version="1.0" encoding="UTF-8" standalone="no"?>
<!DOCTYPE svg PUBLIC "-//W3C//DTD SVG 1.1//EN"
 "http://www.w3.org/Graphics/SVG/1.1/DTD/svg11.dtd">
<!-- Generated by graphviz version 2.40.1 (20161225.0304)
 -->
<!-- Title: nlohmann::detail::is_compatible_type_impl&lt; BasicJsonType, CompatibleType, typename &gt; Pages: 1 -->
<svg width="234pt" height="449pt"
 viewBox="0.00 0.00 233.50 449.00" xmlns="http://www.w3.org/2000/svg" xmlns:xlink="http://www.w3.org/1999/xlink">
<g id="graph0" class="graph" transform="scale(1 1) rotate(0) translate(4 445)">
<title>nlohmann::detail::is_compatible_type_impl&lt; BasicJsonType, CompatibleType, typename &gt;</title>
<polygon fill="#ffffff" stroke="transparent" points="-4,4 -4,-445 229.5,-445 229.5,4 -4,4"/>
<!-- Node0 -->
<g id="node1" class="node">
<title>Node0</title>
<polygon fill="#bfbfbf" stroke="#000000" points="3,-255.5 3,-345.5 176,-345.5 176,-255.5 3,-255.5"/>
<text text-anchor="start" x="11" y="-333.5" font-family="Helvetica,sans-Serif" font-size="10.00" fill="#000000">nlohmann::detail::is</text>
<text text-anchor="start" x="11" y="-322.5" font-family="Helvetica,sans-Serif" font-size="10.00" fill="#000000">_compatible_type_impl</text>
<text text-anchor="start" x="11" y="-311.5" font-family="Helvetica,sans-Serif" font-size="10.00" fill="#000000">&lt; BasicJsonType, CompatibleType,</text>
<text text-anchor="middle" x="89.5" y="-300.5" font-family="Helvetica,sans-Serif" font-size="10.00" fill="#000000"> typename &gt;</text>
<polyline fill="none" stroke="#000000" points="3,-293.5 176,-293.5 "/>
<text text-anchor="middle" x="89.5" y="-281.5" font-family="Helvetica,sans-Serif" font-size="10.00" fill="#000000"> </text>
<polyline fill="none" stroke="#000000" points="3,-274.5 176,-274.5 "/>
<text text-anchor="middle" x="89.5" y="-262.5" font-family="Helvetica,sans-Serif" font-size="10.00" fill="#000000"> </text>
</g>
<!-- Node2 -->
<g id="node3" class="node">
<title>Node2</title>
<g id="a_node3"><a xlink:href="structnlohmann_1_1detail_1_1is__compatible__type__impl.html" target="_top" xlink:title="{nlohmann::detail::is\l_compatible_type_impl\l\&lt; BasicJsonType, CompatibleType \&gt;\n||}">
<polygon fill="#ffffff" stroke="#000000" points="0,-117.5 0,-196.5 179,-196.5 179,-117.5 0,-117.5"/>
<text text-anchor="start" x="8" y="-184.5" font-family="Helvetica,sans-Serif" font-size="10.00" fill="#000000">nlohmann::detail::is</text>
<text text-anchor="start" x="8" y="-173.5" font-family="Helvetica,sans-Serif" font-size="10.00" fill="#000000">_compatible_type_impl</text>
<text text-anchor="middle" x="89.5" y="-162.5" font-family="Helvetica,sans-Serif" font-size="10.00" fill="#000000">&lt; BasicJsonType, CompatibleType &gt;</text>
<polyline fill="none" stroke="#000000" points="0,-155.5 179,-155.5 "/>
<text text-anchor="middle" x="89.5" y="-143.5" font-family="Helvetica,sans-Serif" font-size="10.00" fill="#000000"> </text>
<polyline fill="none" stroke="#000000" points="0,-136.5 179,-136.5 "/>
<text text-anchor="middle" x="89.5" y="-124.5" font-family="Helvetica,sans-Serif" font-size="10.00" fill="#000000"> </text>
</a>
</g>
</g>
<!-- Node0&#45;&gt;Node2 -->
<g id="edge2" class="edge">
<title>Node0&#45;&gt;Node2</title>
<path fill="none" stroke="#ffa500" d="M89.5,-245.0558C89.5,-228.8657 89.5,-211.5061 89.5,-196.5161"/>
<polygon fill="#ffa500" stroke="#ffa500" points="86.0001,-245.4894 89.5,-255.4894 93.0001,-245.4895 86.0001,-245.4894"/>
<text text-anchor="start" x="89.5" y="-229" font-family="Helvetica,sans-Serif" font-size="10.00" fill="#000000"> &lt; BasicJsonType, Compatible</text>
<text text-anchor="middle" x="157.5" y="-218" font-family="Helvetica,sans-Serif" font-size="10.00" fill="#000000">Type &gt;</text>
</g>
<!-- Node1 -->
<g id="node2" class="node">
<title>Node1</title>
<polygon fill="#ffffff" stroke="#bfbfbf" points="58.5,-383.5 58.5,-440.5 120.5,-440.5 120.5,-383.5 58.5,-383.5"/>
<text text-anchor="middle" x="89.5" y="-428.5" font-family="Helvetica,sans-Serif" font-size="10.00" fill="#000000">false_type</text>
<polyline fill="none" stroke="#bfbfbf" points="58.5,-421.5 120.5,-421.5 "/>
<text text-anchor="middle" x="89.5" y="-409.5" font-family="Helvetica,sans-Serif" font-size="10.00" fill="#000000"> </text>
<polyline fill="none" stroke="#bfbfbf" points="58.5,-402.5 120.5,-402.5 "/>
<text text-anchor="middle" x="89.5" y="-390.5" font-family="Helvetica,sans-Serif" font-size="10.00" fill="#000000"> </text>
</g>
<!-- Node1&#45;&gt;Node0 -->
<g id="edge1" class="edge">
<title>Node1&#45;&gt;Node0</title>
<path fill="none" stroke="#191970" d="M89.5,-373.178C89.5,-364.2649 89.5,-354.7141 89.5,-345.5626"/>
<polygon fill="none" stroke="#191970" points="86.0001,-373.2859 89.5,-383.286 93.0001,-373.286 86.0001,-373.2859"/>
</g>
<!-- Node3 -->
<g id="node4" class="node">
<title>Node3</title>
<g id="a_node4"><a xlink:href="structnlohmann_1_1detail_1_1is__compatible__type.html" target="_top" xlink:title="{nlohmann::detail::is\l_compatible_type\&lt; BasicJson\lType, CompatibleType \&gt;\n||}">
<polygon fill="#ffffff" stroke="#000000" points="15.5,-.5 15.5,-79.5 163.5,-79.5 163.5,-.5 15.5,-.5"/>
<text text-anchor="start" x="23.5" y="-67.5" font-family="Helvetica,sans-Serif" font-size="10.00" fill="#000000">nlohmann::detail::is</text>
<text text-anchor="start" x="23.5" y="-56.5" font-family="Helvetica,sans-Serif" font-size="10.00" fill="#000000">_compatible_type&lt; BasicJson</text>
<text text-anchor="middle" x="89.5" y="-45.5" font-family="Helvetica,sans-Serif" font-size="10.00" fill="#000000">Type, CompatibleType &gt;</text>
<polyline fill="none" stroke="#000000" points="15.5,-38.5 163.5,-38.5 "/>
<text text-anchor="middle" x="89.5" y="-26.5" font-family="Helvetica,sans-Serif" font-size="10.00" fill="#000000"> </text>
<polyline fill="none" stroke="#000000" points="15.5,-19.5 163.5,-19.5 "/>
<text text-anchor="middle" x="89.5" y="-7.5" font-family="Helvetica,sans-Serif" font-size="10.00" fill="#000000"> </text>
</a>
</g>
</g>
<!-- Node2&#45;&gt;Node3 -->
<g id="edge3" class="edge">
<title>Node2&#45;&gt;Node3</title>
<path fill="none" stroke="#191970" d="M89.5,-107.1578C89.5,-97.9409 89.5,-88.4308 89.5,-79.5701"/>
<polygon fill="none" stroke="#191970" points="86.0001,-107.3891 89.5,-117.3891 93.0001,-107.3892 86.0001,-107.3891"/>
</g>
</g>
</svg>
