<?xml version="1.0" encoding="UTF-8" standalone="no"?>
<!DOCTYPE svg PUBLIC "-//W3C//DTD SVG 1.1//EN"
 "http://www.w3.org/Graphics/SVG/1.1/DTD/svg11.dtd">
<!-- Generated by graphviz version 2.40.1 (20161225.0304)
 -->
<!-- Title: triangulateio Pages: 1 -->
<svg width="239pt" height="336pt"
 viewBox="0.00 0.00 238.50 336.00" xmlns="http://www.w3.org/2000/svg" xmlns:xlink="http://www.w3.org/1999/xlink">
<g id="graph0" class="graph" transform="scale(1 1) rotate(0) translate(4 332)">
<title>triangulateio</title>
<polygon fill="#ffffff" stroke="transparent" points="-4,4 -4,-332 234.5,-332 234.5,4 -4,4"/>
<!-- Node1 -->
<g id="node1" class="node">
<title>Node1</title>
<polygon fill="#bfbfbf" stroke="#000000" points="11.5,-.5 11.5,-112.5 149.5,-112.5 149.5,-.5 11.5,-.5"/>
<text text-anchor="middle" x="80.5" y="-100.5" font-family="Helvetica,sans-Serif" font-size="10.00" fill="#000000">triangulateio</text>
<polyline fill="none" stroke="#000000" points="11.5,-93.5 149.5,-93.5 "/>
<text text-anchor="start" x="19.5" y="-81.5" font-family="Helvetica,sans-Serif" font-size="10.00" fill="#000000">+ numberofpoints</text>
<text text-anchor="start" x="19.5" y="-70.5" font-family="Helvetica,sans-Serif" font-size="10.00" fill="#000000">+ numberoftriangles</text>
<text text-anchor="start" x="19.5" y="-59.5" font-family="Helvetica,sans-Serif" font-size="10.00" fill="#000000">+ numberofcorners</text>
<text text-anchor="start" x="19.5" y="-48.5" font-family="Helvetica,sans-Serif" font-size="10.00" fill="#000000">+ numberoftriangleattributes</text>
<text text-anchor="start" x="19.5" y="-37.5" font-family="Helvetica,sans-Serif" font-size="10.00" fill="#000000">+ edgelist</text>
<text text-anchor="start" x="19.5" y="-26.5" font-family="Helvetica,sans-Serif" font-size="10.00" fill="#000000">+ edgemarkerlist</text>
<polyline fill="none" stroke="#000000" points="11.5,-19.5 149.5,-19.5 "/>
<text text-anchor="middle" x="80.5" y="-7.5" font-family="Helvetica,sans-Serif" font-size="10.00" fill="#000000"> </text>
</g>
<!-- Node2 -->
<g id="node2" class="node">
<title>Node2</title>
<polygon fill="#ffffff" stroke="#bfbfbf" points="0,-270.5 0,-327.5 29,-327.5 29,-270.5 0,-270.5"/>
<text text-anchor="middle" x="14.5" y="-315.5" font-family="Helvetica,sans-Serif" font-size="10.00" fill="#000000">int</text>
<polyline fill="none" stroke="#bfbfbf" points="0,-308.5 29,-308.5 "/>
<text text-anchor="middle" x="14.5" y="-296.5" font-family="Helvetica,sans-Serif" font-size="10.00" fill="#000000"> </text>
<polyline fill="none" stroke="#bfbfbf" points="0,-289.5 29,-289.5 "/>
<text text-anchor="middle" x="14.5" y="-277.5" font-family="Helvetica,sans-Serif" font-size="10.00" fill="#000000"> </text>
</g>
<!-- Node2&#45;&gt;Node1 -->
<g id="edge1" class="edge">
<title>Node2&#45;&gt;Node1</title>
<path fill="none" stroke="#404040" d="M8.7737,-270.2578C3.2399,-235.8974 -1.9935,-177.2399 15.5,-131 16.4623,-128.4564 17.5545,-125.9422 18.7567,-123.4637"/>
<polygon fill="none" stroke="#404040" points="18.8329,-123.3268 18.2579,-116.1387 24.672,-112.8432 25.247,-120.0314 18.8329,-123.3268"/>
<text text-anchor="middle" x="70" y="-244" font-family="Helvetica,sans-Serif" font-size="10.00" fill="#000000"> +numberofsegments</text>
<text text-anchor="middle" x="70" y="-233" font-family="Helvetica,sans-Serif" font-size="10.00" fill="#000000">+segmentmarkerlist</text>
<text text-anchor="middle" x="70" y="-222" font-family="Helvetica,sans-Serif" font-size="10.00" fill="#000000">+numberofedges</text>
<text text-anchor="middle" x="70" y="-211" font-family="Helvetica,sans-Serif" font-size="10.00" fill="#000000">+segmentlist</text>
<text text-anchor="middle" x="70" y="-200" font-family="Helvetica,sans-Serif" font-size="10.00" fill="#000000">+pointmarkerlist</text>
<text text-anchor="middle" x="70" y="-189" font-family="Helvetica,sans-Serif" font-size="10.00" fill="#000000">+numberofpointattributes</text>
<text text-anchor="middle" x="70" y="-178" font-family="Helvetica,sans-Serif" font-size="10.00" fill="#000000">+trianglelist</text>
<text text-anchor="middle" x="70" y="-167" font-family="Helvetica,sans-Serif" font-size="10.00" fill="#000000">+numberofholes</text>
<text text-anchor="middle" x="70" y="-156" font-family="Helvetica,sans-Serif" font-size="10.00" fill="#000000">+neighborlist</text>
<text text-anchor="middle" x="70" y="-145" font-family="Helvetica,sans-Serif" font-size="10.00" fill="#000000">+numberofregions</text>
<text text-anchor="middle" x="70" y="-134" font-family="Helvetica,sans-Serif" font-size="10.00" fill="#000000">...</text>
</g>
<!-- Node3 -->
<g id="node3" class="node">
<title>Node3</title>
<polygon fill="#ffffff" stroke="#bfbfbf" points="125,-270.5 125,-327.5 168,-327.5 168,-270.5 125,-270.5"/>
<text text-anchor="middle" x="146.5" y="-315.5" font-family="Helvetica,sans-Serif" font-size="10.00" fill="#000000">REAL</text>
<polyline fill="none" stroke="#bfbfbf" points="125,-308.5 168,-308.5 "/>
<text text-anchor="middle" x="146.5" y="-296.5" font-family="Helvetica,sans-Serif" font-size="10.00" fill="#000000"> </text>
<polyline fill="none" stroke="#bfbfbf" points="125,-289.5 168,-289.5 "/>
<text text-anchor="middle" x="146.5" y="-277.5" font-family="Helvetica,sans-Serif" font-size="10.00" fill="#000000"> </text>
</g>
<!-- Node3&#45;&gt;Node1 -->
<g id="edge2" class="edge">
<title>Node3&#45;&gt;Node1</title>
<path fill="none" stroke="#404040" d="M146.216,-270.2638C145.0958,-236.161 140.6958,-178.0003 124.5,-131 123.678,-128.6145 122.7744,-126.2214 121.8036,-123.8318"/>
<polygon fill="none" stroke="#404040" points="121.7303,-123.6682 115.6262,-119.8288 116.8225,-112.7176 122.9266,-116.557 121.7303,-123.6682"/>
<text text-anchor="middle" x="187.5" y="-222" font-family="Helvetica,sans-Serif" font-size="10.00" fill="#000000"> +regionlist</text>
<text text-anchor="middle" x="187.5" y="-211" font-family="Helvetica,sans-Serif" font-size="10.00" fill="#000000">+pointattributelist</text>
<text text-anchor="middle" x="187.5" y="-200" font-family="Helvetica,sans-Serif" font-size="10.00" fill="#000000">+pointlist</text>
<text text-anchor="middle" x="187.5" y="-189" font-family="Helvetica,sans-Serif" font-size="10.00" fill="#000000">+trianglearealist</text>
<text text-anchor="middle" x="187.5" y="-178" font-family="Helvetica,sans-Serif" font-size="10.00" fill="#000000">+normlist</text>
<text text-anchor="middle" x="187.5" y="-167" font-family="Helvetica,sans-Serif" font-size="10.00" fill="#000000">+triangleattributelist</text>
<text text-anchor="middle" x="187.5" y="-156" font-family="Helvetica,sans-Serif" font-size="10.00" fill="#000000">+holelist</text>
</g>
</g>
</svg>
