<?xml version="1.0" encoding="UTF-8" standalone="no"?>
<!DOCTYPE svg PUBLIC "-//W3C//DTD SVG 1.1//EN"
 "http://www.w3.org/Graphics/SVG/1.1/DTD/svg11.dtd">
<!-- Generated by graphviz version 2.40.1 (20161225.0304)
 -->
<!-- Title: nlohmann::detail::is_compatible_string_type&lt; BasicJsonType, ConstructibleStringType &gt; Pages: 1 -->
<svg width="296pt" height="471pt"
 viewBox="0.00 0.00 296.00 471.00" xmlns="http://www.w3.org/2000/svg" xmlns:xlink="http://www.w3.org/1999/xlink">
<g id="graph0" class="graph" transform="scale(1 1) rotate(0) translate(4 467)">
<title>nlohmann::detail::is_compatible_string_type&lt; BasicJsonType, ConstructibleStringType &gt;</title>
<polygon fill="#ffffff" stroke="transparent" points="-4,4 -4,-467 292,-467 292,4 -4,4"/>
<!-- Node4 -->
<g id="node1" class="node">
<title>Node4</title>
<polygon fill="#bfbfbf" stroke="#000000" points="11.5,-.5 11.5,-90.5 168.5,-90.5 168.5,-.5 11.5,-.5"/>
<text text-anchor="start" x="19.5" y="-78.5" font-family="Helvetica,sans-Serif" font-size="10.00" fill="#000000">nlohmann::detail::is</text>
<text text-anchor="start" x="19.5" y="-67.5" font-family="Helvetica,sans-Serif" font-size="10.00" fill="#000000">_compatible_string_type</text>
<text text-anchor="start" x="19.5" y="-56.5" font-family="Helvetica,sans-Serif" font-size="10.00" fill="#000000">&lt; BasicJsonType, Constructible</text>
<text text-anchor="middle" x="90" y="-45.5" font-family="Helvetica,sans-Serif" font-size="10.00" fill="#000000">StringType &gt;</text>
<polyline fill="none" stroke="#000000" points="11.5,-38.5 168.5,-38.5 "/>
<text text-anchor="middle" x="90" y="-26.5" font-family="Helvetica,sans-Serif" font-size="10.00" fill="#000000"> </text>
<polyline fill="none" stroke="#000000" points="11.5,-19.5 168.5,-19.5 "/>
<text text-anchor="middle" x="90" y="-7.5" font-family="Helvetica,sans-Serif" font-size="10.00" fill="#000000"> </text>
</g>
<!-- Node5 -->
<g id="node2" class="node">
<title>Node5</title>
<g id="a_node2"><a xlink:href="structnlohmann_1_1detail_1_1is__compatible__string__type__impl.html" target="_top" xlink:title="{nlohmann::detail::is\l_compatible_string_type\l_impl\&lt; BasicJsonType, Constructible\lStringType \&gt;\n||}">
<polygon fill="#ffffff" stroke="#000000" points="0,-128.5 0,-218.5 180,-218.5 180,-128.5 0,-128.5"/>
<text text-anchor="start" x="8" y="-206.5" font-family="Helvetica,sans-Serif" font-size="10.00" fill="#000000">nlohmann::detail::is</text>
<text text-anchor="start" x="8" y="-195.5" font-family="Helvetica,sans-Serif" font-size="10.00" fill="#000000">_compatible_string_type</text>
<text text-anchor="start" x="8" y="-184.5" font-family="Helvetica,sans-Serif" font-size="10.00" fill="#000000">_impl&lt; BasicJsonType, Constructible</text>
<text text-anchor="middle" x="90" y="-173.5" font-family="Helvetica,sans-Serif" font-size="10.00" fill="#000000">StringType &gt;</text>
<polyline fill="none" stroke="#000000" points="0,-166.5 180,-166.5 "/>
<text text-anchor="middle" x="90" y="-154.5" font-family="Helvetica,sans-Serif" font-size="10.00" fill="#000000"> </text>
<polyline fill="none" stroke="#000000" points="0,-147.5 180,-147.5 "/>
<text text-anchor="middle" x="90" y="-135.5" font-family="Helvetica,sans-Serif" font-size="10.00" fill="#000000"> </text>
</a>
</g>
</g>
<!-- Node5&#45;&gt;Node4 -->
<g id="edge1" class="edge">
<title>Node5&#45;&gt;Node4</title>
<path fill="none" stroke="#191970" d="M90,-118.1492C90,-108.9671 90,-99.5431 90,-90.6519"/>
<polygon fill="none" stroke="#191970" points="86.5001,-118.372 90,-128.372 93.5001,-118.372 86.5001,-118.372"/>
</g>
<!-- Node6 -->
<g id="node3" class="node">
<title>Node6</title>
<polygon fill="#ffffff" stroke="#bfbfbf" points="55,-405.5 55,-462.5 117,-462.5 117,-405.5 55,-405.5"/>
<text text-anchor="middle" x="86" y="-450.5" font-family="Helvetica,sans-Serif" font-size="10.00" fill="#000000">false_type</text>
<polyline fill="none" stroke="#bfbfbf" points="55,-443.5 117,-443.5 "/>
<text text-anchor="middle" x="86" y="-431.5" font-family="Helvetica,sans-Serif" font-size="10.00" fill="#000000"> </text>
<polyline fill="none" stroke="#bfbfbf" points="55,-424.5 117,-424.5 "/>
<text text-anchor="middle" x="86" y="-412.5" font-family="Helvetica,sans-Serif" font-size="10.00" fill="#000000"> </text>
</g>
<!-- Node6&#45;&gt;Node5 -->
<g id="edge2" class="edge">
<title>Node6&#45;&gt;Node5</title>
<path fill="none" stroke="#191970" d="M86.5989,-394.9934C87.3239,-347.7842 88.5422,-268.4421 89.3069,-218.6363"/>
<polygon fill="none" stroke="#191970" points="83.0974,-395.074 86.4434,-405.1266 90.0966,-395.1816 83.0974,-395.074"/>
</g>
<!-- Node7 -->
<g id="node4" class="node">
<title>Node7</title>
<g id="a_node4"><a xlink:href="structnlohmann_1_1detail_1_1is__compatible__string__type__impl.html" target="_top" xlink:title="{nlohmann::detail::is\l_compatible_string_type\l_impl\&lt; BasicJsonType, Compatible\lStringType, typename \&gt;\n||}">
<polygon fill="#ffffff" stroke="#000000" points="102,-277.5 102,-367.5 274,-367.5 274,-277.5 102,-277.5"/>
<text text-anchor="start" x="110" y="-355.5" font-family="Helvetica,sans-Serif" font-size="10.00" fill="#000000">nlohmann::detail::is</text>
<text text-anchor="start" x="110" y="-344.5" font-family="Helvetica,sans-Serif" font-size="10.00" fill="#000000">_compatible_string_type</text>
<text text-anchor="start" x="110" y="-333.5" font-family="Helvetica,sans-Serif" font-size="10.00" fill="#000000">_impl&lt; BasicJsonType, Compatible</text>
<text text-anchor="middle" x="188" y="-322.5" font-family="Helvetica,sans-Serif" font-size="10.00" fill="#000000">StringType, typename &gt;</text>
<polyline fill="none" stroke="#000000" points="102,-315.5 274,-315.5 "/>
<text text-anchor="middle" x="188" y="-303.5" font-family="Helvetica,sans-Serif" font-size="10.00" fill="#000000"> </text>
<polyline fill="none" stroke="#000000" points="102,-296.5 274,-296.5 "/>
<text text-anchor="middle" x="188" y="-284.5" font-family="Helvetica,sans-Serif" font-size="10.00" fill="#000000"> </text>
</a>
</g>
</g>
<!-- Node6&#45;&gt;Node7 -->
<g id="edge4" class="edge">
<title>Node6&#45;&gt;Node7</title>
<path fill="none" stroke="#191970" d="M119.1391,-397.7745C127.955,-388.1374 137.586,-377.6094 146.7769,-367.5626"/>
<polygon fill="none" stroke="#191970" points="116.4349,-395.5451 112.2675,-405.286 121.5998,-400.27 116.4349,-395.5451"/>
</g>
<!-- Node7&#45;&gt;Node5 -->
<g id="edge3" class="edge">
<title>Node7&#45;&gt;Node5</title>
<path fill="none" stroke="#ffa500" d="M152.773,-268.9406C141.9511,-252.4869 130.1536,-234.5499 119.7373,-218.7129"/>
<polygon fill="#ffa500" stroke="#ffa500" points="149.9114,-270.9592 158.3308,-277.3907 155.7598,-267.1126 149.9114,-270.9592"/>
<text text-anchor="start" x="144" y="-251" font-family="Helvetica,sans-Serif" font-size="10.00" fill="#000000"> &lt; BasicJsonType, Constructible</text>
<text text-anchor="middle" x="216" y="-240" font-family="Helvetica,sans-Serif" font-size="10.00" fill="#000000">StringType &gt;</text>
</g>
</g>
</svg>
