<?xml version="1.0" encoding="UTF-8" standalone="no"?>
<!DOCTYPE svg PUBLIC "-//W3C//DTD SVG 1.1//EN"
 "http://www.w3.org/Graphics/SVG/1.1/DTD/svg11.dtd">
<!-- Generated by graphviz version 2.40.1 (20161225.0304)
 -->
<!-- Title: nlohmann::detail::index_sequence&lt; Ints &gt; Pages: 1 -->
<svg width="444pt" height="343pt"
 viewBox="0.00 0.00 443.50 343.00" xmlns="http://www.w3.org/2000/svg" xmlns:xlink="http://www.w3.org/1999/xlink">
<g id="graph0" class="graph" transform="scale(1 1) rotate(0) translate(4 339)">
<title>nlohmann::detail::index_sequence&lt; Ints &gt;</title>
<polygon fill="#ffffff" stroke="transparent" points="-4,4 -4,-339 439.5,-339 439.5,4 -4,4"/>
<!-- Node0 -->
<g id="node1" class="node">
<title>Node0</title>
<polygon fill="#bfbfbf" stroke="#000000" points="136.5,-266.5 136.5,-334.5 253.5,-334.5 253.5,-266.5 136.5,-266.5"/>
<text text-anchor="start" x="144.5" y="-322.5" font-family="Helvetica,sans-Serif" font-size="10.00" fill="#000000">nlohmann::detail::index</text>
<text text-anchor="middle" x="195" y="-311.5" font-family="Helvetica,sans-Serif" font-size="10.00" fill="#000000">_sequence&lt; Ints &gt;</text>
<polyline fill="none" stroke="#000000" points="136.5,-304.5 253.5,-304.5 "/>
<text text-anchor="middle" x="195" y="-292.5" font-family="Helvetica,sans-Serif" font-size="10.00" fill="#000000"> </text>
<polyline fill="none" stroke="#000000" points="136.5,-285.5 253.5,-285.5 "/>
<text text-anchor="start" x="144.5" y="-273.5" font-family="Helvetica,sans-Serif" font-size="10.00" fill="#000000">+ size()</text>
</g>
<!-- Node1 -->
<g id="node2" class="node">
<title>Node1</title>
<g id="a_node2"><a xlink:href="structnlohmann_1_1detail_1_1index__sequence.html" target="_top" xlink:title="{nlohmann::detail::index\l_sequence\&lt;\&gt;\n||+ size()\l}">
<polygon fill="#ffffff" stroke="#000000" points="1.5,-134 1.5,-202 118.5,-202 118.5,-134 1.5,-134"/>
<text text-anchor="start" x="9.5" y="-190" font-family="Helvetica,sans-Serif" font-size="10.00" fill="#000000">nlohmann::detail::index</text>
<text text-anchor="middle" x="60" y="-179" font-family="Helvetica,sans-Serif" font-size="10.00" fill="#000000">_sequence&lt;&gt;</text>
<polyline fill="none" stroke="#000000" points="1.5,-172 118.5,-172 "/>
<text text-anchor="middle" x="60" y="-160" font-family="Helvetica,sans-Serif" font-size="10.00" fill="#000000"> </text>
<polyline fill="none" stroke="#000000" points="1.5,-153 118.5,-153 "/>
<text text-anchor="start" x="9.5" y="-141" font-family="Helvetica,sans-Serif" font-size="10.00" fill="#000000">+ size()</text>
</a>
</g>
</g>
<!-- Node0&#45;&gt;Node1 -->
<g id="edge1" class="edge">
<title>Node0&#45;&gt;Node1</title>
<path fill="none" stroke="#ffa500" d="M152.9529,-259.2316C134.2207,-240.8462 112.4243,-219.4535 94.648,-202.0064"/>
<polygon fill="#ffa500" stroke="#ffa500" points="150.6456,-261.8712 160.2341,-266.378 155.5489,-256.8753 150.6456,-261.8712"/>
<text text-anchor="middle" x="148" y="-234.5" font-family="Helvetica,sans-Serif" font-size="10.00" fill="#000000"> &lt;&gt;</text>
</g>
<!-- Node3 -->
<g id="node4" class="node">
<title>Node3</title>
<g id="a_node4"><a xlink:href="structnlohmann_1_1detail_1_1index__sequence.html" target="_top" xlink:title="{nlohmann::detail::index\l_sequence\&lt; 0 \&gt;\n||+ size()\l}">
<polygon fill="#ffffff" stroke="#000000" points="136.5,-134 136.5,-202 253.5,-202 253.5,-134 136.5,-134"/>
<text text-anchor="start" x="144.5" y="-190" font-family="Helvetica,sans-Serif" font-size="10.00" fill="#000000">nlohmann::detail::index</text>
<text text-anchor="middle" x="195" y="-179" font-family="Helvetica,sans-Serif" font-size="10.00" fill="#000000">_sequence&lt; 0 &gt;</text>
<polyline fill="none" stroke="#000000" points="136.5,-172 253.5,-172 "/>
<text text-anchor="middle" x="195" y="-160" font-family="Helvetica,sans-Serif" font-size="10.00" fill="#000000"> </text>
<polyline fill="none" stroke="#000000" points="136.5,-153 253.5,-153 "/>
<text text-anchor="start" x="144.5" y="-141" font-family="Helvetica,sans-Serif" font-size="10.00" fill="#000000">+ size()</text>
</a>
</g>
</g>
<!-- Node0&#45;&gt;Node3 -->
<g id="edge3" class="edge">
<title>Node0&#45;&gt;Node3</title>
<path fill="none" stroke="#ffa500" d="M195,-256.2785C195,-238.5855 195,-218.5271 195,-202.0064"/>
<polygon fill="#ffa500" stroke="#ffa500" points="191.5001,-256.3779 195,-266.378 198.5001,-256.378 191.5001,-256.3779"/>
<text text-anchor="middle" x="208.5" y="-234.5" font-family="Helvetica,sans-Serif" font-size="10.00" fill="#000000"> &lt; 0 &gt;</text>
</g>
<!-- Node5 -->
<g id="node6" class="node">
<title>Node5</title>
<g id="a_node6"><a xlink:href="structnlohmann_1_1detail_1_1index__sequence.html" target="_top" xlink:title="{nlohmann::detail::index\l_sequence\&lt; I1...,(sizeof...\l(I1)+I2)... \&gt;\n||+ size()\l}">
<polygon fill="#ffffff" stroke="#000000" points="280.5,-128.5 280.5,-207.5 411.5,-207.5 411.5,-128.5 280.5,-128.5"/>
<text text-anchor="start" x="288.5" y="-195.5" font-family="Helvetica,sans-Serif" font-size="10.00" fill="#000000">nlohmann::detail::index</text>
<text text-anchor="start" x="288.5" y="-184.5" font-family="Helvetica,sans-Serif" font-size="10.00" fill="#000000">_sequence&lt; I1...,(sizeof...</text>
<text text-anchor="middle" x="346" y="-173.5" font-family="Helvetica,sans-Serif" font-size="10.00" fill="#000000">(I1)+I2)... &gt;</text>
<polyline fill="none" stroke="#000000" points="280.5,-166.5 411.5,-166.5 "/>
<text text-anchor="middle" x="346" y="-154.5" font-family="Helvetica,sans-Serif" font-size="10.00" fill="#000000"> </text>
<polyline fill="none" stroke="#000000" points="280.5,-147.5 411.5,-147.5 "/>
<text text-anchor="start" x="288.5" y="-135.5" font-family="Helvetica,sans-Serif" font-size="10.00" fill="#000000">+ size()</text>
</a>
</g>
</g>
<!-- Node0&#45;&gt;Node5 -->
<g id="edge5" class="edge">
<title>Node0&#45;&gt;Node5</title>
<path fill="none" stroke="#ffa500" d="M241.5072,-259.6907C260.3744,-243.135 282.0898,-224.0802 300.8197,-207.645"/>
<polygon fill="#ffa500" stroke="#ffa500" points="239.0943,-257.1515 233.8863,-266.378 243.7113,-262.4131 239.0943,-257.1515"/>
<text text-anchor="start" x="280" y="-240" font-family="Helvetica,sans-Serif" font-size="10.00" fill="#000000"> &lt; I1...,(sizeof...</text>
<text text-anchor="middle" x="315.5" y="-229" font-family="Helvetica,sans-Serif" font-size="10.00" fill="#000000">(I1)+I2)... &gt;</text>
</g>
<!-- Node2 -->
<g id="node3" class="node">
<title>Node2</title>
<g id="a_node3"><a xlink:href="structnlohmann_1_1detail_1_1make__index__sequence_3_010_01_4.html" target="_top" xlink:title="{nlohmann::detail::make\l_index_sequence\&lt; 0 \&gt;\n||}">
<polygon fill="#ffffff" stroke="#000000" points="0,-11.5 0,-79.5 118,-79.5 118,-11.5 0,-11.5"/>
<text text-anchor="start" x="8" y="-67.5" font-family="Helvetica,sans-Serif" font-size="10.00" fill="#000000">nlohmann::detail::make</text>
<text text-anchor="middle" x="59" y="-56.5" font-family="Helvetica,sans-Serif" font-size="10.00" fill="#000000">_index_sequence&lt; 0 &gt;</text>
<polyline fill="none" stroke="#000000" points="0,-49.5 118,-49.5 "/>
<text text-anchor="middle" x="59" y="-37.5" font-family="Helvetica,sans-Serif" font-size="10.00" fill="#000000"> </text>
<polyline fill="none" stroke="#000000" points="0,-30.5 118,-30.5 "/>
<text text-anchor="middle" x="59" y="-18.5" font-family="Helvetica,sans-Serif" font-size="10.00" fill="#000000"> </text>
</a>
</g>
</g>
<!-- Node1&#45;&gt;Node2 -->
<g id="edge2" class="edge">
<title>Node1&#45;&gt;Node2</title>
<path fill="none" stroke="#191970" d="M59.6381,-123.6625C59.5203,-109.2352 59.3914,-93.4495 59.2805,-79.8649"/>
<polygon fill="none" stroke="#191970" points="56.1398,-123.9059 59.7214,-133.8769 63.1396,-123.8486 56.1398,-123.9059"/>
</g>
<!-- Node4 -->
<g id="node5" class="node">
<title>Node4</title>
<g id="a_node5"><a xlink:href="structnlohmann_1_1detail_1_1make__index__sequence_3_011_01_4.html" target="_top" xlink:title="{nlohmann::detail::make\l_index_sequence\&lt; 1 \&gt;\n||}">
<polygon fill="#ffffff" stroke="#000000" points="136,-11.5 136,-79.5 254,-79.5 254,-11.5 136,-11.5"/>
<text text-anchor="start" x="144" y="-67.5" font-family="Helvetica,sans-Serif" font-size="10.00" fill="#000000">nlohmann::detail::make</text>
<text text-anchor="middle" x="195" y="-56.5" font-family="Helvetica,sans-Serif" font-size="10.00" fill="#000000">_index_sequence&lt; 1 &gt;</text>
<polyline fill="none" stroke="#000000" points="136,-49.5 254,-49.5 "/>
<text text-anchor="middle" x="195" y="-37.5" font-family="Helvetica,sans-Serif" font-size="10.00" fill="#000000"> </text>
<polyline fill="none" stroke="#000000" points="136,-30.5 254,-30.5 "/>
<text text-anchor="middle" x="195" y="-18.5" font-family="Helvetica,sans-Serif" font-size="10.00" fill="#000000"> </text>
</a>
</g>
</g>
<!-- Node3&#45;&gt;Node4 -->
<g id="edge4" class="edge">
<title>Node3&#45;&gt;Node4</title>
<path fill="none" stroke="#191970" d="M195,-123.6625C195,-109.2352 195,-93.4495 195,-79.8649"/>
<polygon fill="none" stroke="#191970" points="191.5001,-123.8769 195,-133.8769 198.5001,-123.877 191.5001,-123.8769"/>
</g>
<!-- Node6 -->
<g id="node7" class="node">
<title>Node6</title>
<g id="a_node7"><a xlink:href="structnlohmann_1_1detail_1_1merge__and__renumber_3_01index__sequence_3_01I1_8_8_8_01_4_00_01inde4885d6f1d93a04f25932afbd429c4793.html" target="_top" xlink:title="{nlohmann::detail::merge\l_and_renumber\&lt; index_sequence\l\&lt; I1... \&gt;, index_sequence\&lt;\l I2... \&gt; \&gt;\n||}">
<polygon fill="#ffffff" stroke="#000000" points="272.5,-.5 272.5,-90.5 435.5,-90.5 435.5,-.5 272.5,-.5"/>
<text text-anchor="start" x="280.5" y="-78.5" font-family="Helvetica,sans-Serif" font-size="10.00" fill="#000000">nlohmann::detail::merge</text>
<text text-anchor="start" x="280.5" y="-67.5" font-family="Helvetica,sans-Serif" font-size="10.00" fill="#000000">_and_renumber&lt; index_sequence</text>
<text text-anchor="start" x="280.5" y="-56.5" font-family="Helvetica,sans-Serif" font-size="10.00" fill="#000000">&lt; I1... &gt;, index_sequence&lt;</text>
<text text-anchor="middle" x="354" y="-45.5" font-family="Helvetica,sans-Serif" font-size="10.00" fill="#000000"> I2... &gt; &gt;</text>
<polyline fill="none" stroke="#000000" points="272.5,-38.5 435.5,-38.5 "/>
<text text-anchor="middle" x="354" y="-26.5" font-family="Helvetica,sans-Serif" font-size="10.00" fill="#000000"> </text>
<polyline fill="none" stroke="#000000" points="272.5,-19.5 435.5,-19.5 "/>
<text text-anchor="middle" x="354" y="-7.5" font-family="Helvetica,sans-Serif" font-size="10.00" fill="#000000"> </text>
</a>
</g>
</g>
<!-- Node5&#45;&gt;Node6 -->
<g id="edge6" class="edge">
<title>Node5&#45;&gt;Node6</title>
<path fill="none" stroke="#191970" d="M349.2567,-118.1325C349.8518,-109.02 350.4696,-99.5591 351.055,-90.5953"/>
<polygon fill="none" stroke="#191970" points="345.7566,-118.0209 348.5974,-128.2278 352.7417,-118.4771 345.7566,-118.0209"/>
</g>
</g>
</svg>
