<?xml version="1.0" encoding="UTF-8" standalone="no"?>
<!DOCTYPE svg PUBLIC "-//W3C//DTD SVG 1.1//EN"
 "http://www.w3.org/Graphics/SVG/1.1/DTD/svg11.dtd">
<!-- Generated by graphviz version 2.40.1 (20161225.0304)
 -->
<!-- Title: nlohmann::detail::is_compatible_array_type_impl&lt; BasicJsonType, CompatibleArrayType, typename &gt; Pages: 1 -->
<svg width="230pt" height="471pt"
 viewBox="0.00 0.00 230.00 471.00" xmlns="http://www.w3.org/2000/svg" xmlns:xlink="http://www.w3.org/1999/xlink">
<g id="graph0" class="graph" transform="scale(1 1) rotate(0) translate(4 467)">
<title>nlohmann::detail::is_compatible_array_type_impl&lt; BasicJsonType, CompatibleArrayType, typename &gt;</title>
<polygon fill="#ffffff" stroke="transparent" points="-4,4 -4,-467 226,-467 226,4 -4,4"/>
<!-- Node0 -->
<g id="node1" class="node">
<title>Node0</title>
<polygon fill="#bfbfbf" stroke="#000000" points="0,-277.5 0,-367.5 172,-367.5 172,-277.5 0,-277.5"/>
<text text-anchor="start" x="8" y="-355.5" font-family="Helvetica,sans-Serif" font-size="10.00" fill="#000000">nlohmann::detail::is</text>
<text text-anchor="start" x="8" y="-344.5" font-family="Helvetica,sans-Serif" font-size="10.00" fill="#000000">_compatible_array_type</text>
<text text-anchor="start" x="8" y="-333.5" font-family="Helvetica,sans-Serif" font-size="10.00" fill="#000000">_impl&lt; BasicJsonType, Compatible</text>
<text text-anchor="middle" x="86" y="-322.5" font-family="Helvetica,sans-Serif" font-size="10.00" fill="#000000">ArrayType, typename &gt;</text>
<polyline fill="none" stroke="#000000" points="0,-315.5 172,-315.5 "/>
<text text-anchor="middle" x="86" y="-303.5" font-family="Helvetica,sans-Serif" font-size="10.00" fill="#000000"> </text>
<polyline fill="none" stroke="#000000" points="0,-296.5 172,-296.5 "/>
<text text-anchor="middle" x="86" y="-284.5" font-family="Helvetica,sans-Serif" font-size="10.00" fill="#000000"> </text>
</g>
<!-- Node2 -->
<g id="node3" class="node">
<title>Node2</title>
<g id="a_node3"><a xlink:href="structnlohmann_1_1detail_1_1is__compatible__array__type__impl.html" target="_top" xlink:title="{nlohmann::detail::is\l_compatible_array_type\l_impl\&lt; BasicJsonType, Compatible\lArrayType \&gt;\n||}">
<polygon fill="#ffffff" stroke="#000000" points="0,-128.5 0,-218.5 172,-218.5 172,-128.5 0,-128.5"/>
<text text-anchor="start" x="8" y="-206.5" font-family="Helvetica,sans-Serif" font-size="10.00" fill="#000000">nlohmann::detail::is</text>
<text text-anchor="start" x="8" y="-195.5" font-family="Helvetica,sans-Serif" font-size="10.00" fill="#000000">_compatible_array_type</text>
<text text-anchor="start" x="8" y="-184.5" font-family="Helvetica,sans-Serif" font-size="10.00" fill="#000000">_impl&lt; BasicJsonType, Compatible</text>
<text text-anchor="middle" x="86" y="-173.5" font-family="Helvetica,sans-Serif" font-size="10.00" fill="#000000">ArrayType &gt;</text>
<polyline fill="none" stroke="#000000" points="0,-166.5 172,-166.5 "/>
<text text-anchor="middle" x="86" y="-154.5" font-family="Helvetica,sans-Serif" font-size="10.00" fill="#000000"> </text>
<polyline fill="none" stroke="#000000" points="0,-147.5 172,-147.5 "/>
<text text-anchor="middle" x="86" y="-135.5" font-family="Helvetica,sans-Serif" font-size="10.00" fill="#000000"> </text>
</a>
</g>
</g>
<!-- Node0&#45;&gt;Node2 -->
<g id="edge2" class="edge">
<title>Node0&#45;&gt;Node2</title>
<path fill="none" stroke="#ffa500" d="M86,-267.1234C86,-251.1732 86,-233.9687 86,-218.7129"/>
<polygon fill="#ffa500" stroke="#ffa500" points="82.5001,-267.3907 86,-277.3907 89.5001,-267.3908 82.5001,-267.3907"/>
<text text-anchor="start" x="86" y="-251" font-family="Helvetica,sans-Serif" font-size="10.00" fill="#000000"> &lt; BasicJsonType, Compatible</text>
<text text-anchor="middle" x="154" y="-240" font-family="Helvetica,sans-Serif" font-size="10.00" fill="#000000">ArrayType &gt;</text>
</g>
<!-- Node1 -->
<g id="node2" class="node">
<title>Node1</title>
<polygon fill="#ffffff" stroke="#bfbfbf" points="55,-405.5 55,-462.5 117,-462.5 117,-405.5 55,-405.5"/>
<text text-anchor="middle" x="86" y="-450.5" font-family="Helvetica,sans-Serif" font-size="10.00" fill="#000000">false_type</text>
<polyline fill="none" stroke="#bfbfbf" points="55,-443.5 117,-443.5 "/>
<text text-anchor="middle" x="86" y="-431.5" font-family="Helvetica,sans-Serif" font-size="10.00" fill="#000000"> </text>
<polyline fill="none" stroke="#bfbfbf" points="55,-424.5 117,-424.5 "/>
<text text-anchor="middle" x="86" y="-412.5" font-family="Helvetica,sans-Serif" font-size="10.00" fill="#000000"> </text>
</g>
<!-- Node1&#45;&gt;Node0 -->
<g id="edge1" class="edge">
<title>Node1&#45;&gt;Node0</title>
<path fill="none" stroke="#191970" d="M86,-395.178C86,-386.2649 86,-376.7141 86,-367.5626"/>
<polygon fill="none" stroke="#191970" points="82.5001,-395.2859 86,-405.286 89.5001,-395.286 82.5001,-395.2859"/>
</g>
<!-- Node3 -->
<g id="node4" class="node">
<title>Node3</title>
<g id="a_node4"><a xlink:href="structnlohmann_1_1detail_1_1is__compatible__array__type.html" target="_top" xlink:title="{nlohmann::detail::is\l_compatible_array_type\l\&lt; BasicJsonType, CompatibleArray\lType \&gt;\n||}">
<polygon fill="#ffffff" stroke="#000000" points="0,-.5 0,-90.5 172,-90.5 172,-.5 0,-.5"/>
<text text-anchor="start" x="8" y="-78.5" font-family="Helvetica,sans-Serif" font-size="10.00" fill="#000000">nlohmann::detail::is</text>
<text text-anchor="start" x="8" y="-67.5" font-family="Helvetica,sans-Serif" font-size="10.00" fill="#000000">_compatible_array_type</text>
<text text-anchor="start" x="8" y="-56.5" font-family="Helvetica,sans-Serif" font-size="10.00" fill="#000000">&lt; BasicJsonType, CompatibleArray</text>
<text text-anchor="middle" x="86" y="-45.5" font-family="Helvetica,sans-Serif" font-size="10.00" fill="#000000">Type &gt;</text>
<polyline fill="none" stroke="#000000" points="0,-38.5 172,-38.5 "/>
<text text-anchor="middle" x="86" y="-26.5" font-family="Helvetica,sans-Serif" font-size="10.00" fill="#000000"> </text>
<polyline fill="none" stroke="#000000" points="0,-19.5 172,-19.5 "/>
<text text-anchor="middle" x="86" y="-7.5" font-family="Helvetica,sans-Serif" font-size="10.00" fill="#000000"> </text>
</a>
</g>
</g>
<!-- Node2&#45;&gt;Node3 -->
<g id="edge3" class="edge">
<title>Node2&#45;&gt;Node3</title>
<path fill="none" stroke="#191970" d="M86,-118.1492C86,-108.9671 86,-99.5431 86,-90.6519"/>
<polygon fill="none" stroke="#191970" points="82.5001,-118.372 86,-128.372 89.5001,-118.372 82.5001,-118.372"/>
</g>
</g>
</svg>
