<?xml version="1.0" encoding="UTF-8" standalone="no"?>
<!DOCTYPE svg PUBLIC "-//W3C//DTD SVG 1.1//EN"
 "http://www.w3.org/Graphics/SVG/1.1/DTD/svg11.dtd">
<!-- Generated by graphviz version 2.40.1 (20161225.0304)
 -->
<!-- Title: nlohmann::detail::merge_and_renumber&lt; index_sequence&lt; I1... &gt;, index_sequence&lt; I2... &gt; &gt; Pages: 1 -->
<svg width="171pt" height="343pt"
 viewBox="0.00 0.00 171.00 343.00" xmlns="http://www.w3.org/2000/svg" xmlns:xlink="http://www.w3.org/1999/xlink">
<g id="graph0" class="graph" transform="scale(1 1) rotate(0) translate(4 339)">
<title>nlohmann::detail::merge_and_renumber&lt; index_sequence&lt; I1... &gt;, index_sequence&lt; I2... &gt; &gt;</title>
<polygon fill="#ffffff" stroke="transparent" points="-4,4 -4,-339 167,-339 167,4 -4,4"/>
<!-- Node0 -->
<g id="node1" class="node">
<title>Node0</title>
<polygon fill="#bfbfbf" stroke="#000000" points="0,-.5 0,-90.5 163,-90.5 163,-.5 0,-.5"/>
<text text-anchor="start" x="8" y="-78.5" font-family="Helvetica,sans-Serif" font-size="10.00" fill="#000000">nlohmann::detail::merge</text>
<text text-anchor="start" x="8" y="-67.5" font-family="Helvetica,sans-Serif" font-size="10.00" fill="#000000">_and_renumber&lt; index_sequence</text>
<text text-anchor="start" x="8" y="-56.5" font-family="Helvetica,sans-Serif" font-size="10.00" fill="#000000">&lt; I1... &gt;, index_sequence&lt;</text>
<text text-anchor="middle" x="81.5" y="-45.5" font-family="Helvetica,sans-Serif" font-size="10.00" fill="#000000"> I2... &gt; &gt;</text>
<polyline fill="none" stroke="#000000" points="0,-38.5 163,-38.5 "/>
<text text-anchor="middle" x="81.5" y="-26.5" font-family="Helvetica,sans-Serif" font-size="10.00" fill="#000000"> </text>
<polyline fill="none" stroke="#000000" points="0,-19.5 163,-19.5 "/>
<text text-anchor="middle" x="81.5" y="-7.5" font-family="Helvetica,sans-Serif" font-size="10.00" fill="#000000"> </text>
</g>
<!-- Node1 -->
<g id="node2" class="node">
<title>Node1</title>
<g id="a_node2"><a xlink:href="structnlohmann_1_1detail_1_1index__sequence.html" target="_top" xlink:title="{nlohmann::detail::index\l_sequence\&lt; I1...,(sizeof...\l(I1)+I2)... \&gt;\n||+ size()\l}">
<polygon fill="#ffffff" stroke="#000000" points="16,-128.5 16,-207.5 147,-207.5 147,-128.5 16,-128.5"/>
<text text-anchor="start" x="24" y="-195.5" font-family="Helvetica,sans-Serif" font-size="10.00" fill="#000000">nlohmann::detail::index</text>
<text text-anchor="start" x="24" y="-184.5" font-family="Helvetica,sans-Serif" font-size="10.00" fill="#000000">_sequence&lt; I1...,(sizeof...</text>
<text text-anchor="middle" x="81.5" y="-173.5" font-family="Helvetica,sans-Serif" font-size="10.00" fill="#000000">(I1)+I2)... &gt;</text>
<polyline fill="none" stroke="#000000" points="16,-166.5 147,-166.5 "/>
<text text-anchor="middle" x="81.5" y="-154.5" font-family="Helvetica,sans-Serif" font-size="10.00" fill="#000000"> </text>
<polyline fill="none" stroke="#000000" points="16,-147.5 147,-147.5 "/>
<text text-anchor="start" x="24" y="-135.5" font-family="Helvetica,sans-Serif" font-size="10.00" fill="#000000">+ size()</text>
</a>
</g>
</g>
<!-- Node1&#45;&gt;Node0 -->
<g id="edge1" class="edge">
<title>Node1&#45;&gt;Node0</title>
<path fill="none" stroke="#191970" d="M81.5,-118.1325C81.5,-109.02 81.5,-99.5591 81.5,-90.5953"/>
<polygon fill="none" stroke="#191970" points="78.0001,-118.2277 81.5,-128.2278 85.0001,-118.2278 78.0001,-118.2277"/>
</g>
<!-- Node2 -->
<g id="node3" class="node">
<title>Node2</title>
<g id="a_node3"><a xlink:href="structnlohmann_1_1detail_1_1index__sequence.html" target="_top" xlink:title="{nlohmann::detail::index\l_sequence\&lt; Ints \&gt;\n||+ size()\l}">
<polygon fill="#ffffff" stroke="#000000" points="23,-266.5 23,-334.5 140,-334.5 140,-266.5 23,-266.5"/>
<text text-anchor="start" x="31" y="-322.5" font-family="Helvetica,sans-Serif" font-size="10.00" fill="#000000">nlohmann::detail::index</text>
<text text-anchor="middle" x="81.5" y="-311.5" font-family="Helvetica,sans-Serif" font-size="10.00" fill="#000000">_sequence&lt; Ints &gt;</text>
<polyline fill="none" stroke="#000000" points="23,-304.5 140,-304.5 "/>
<text text-anchor="middle" x="81.5" y="-292.5" font-family="Helvetica,sans-Serif" font-size="10.00" fill="#000000"> </text>
<polyline fill="none" stroke="#000000" points="23,-285.5 140,-285.5 "/>
<text text-anchor="start" x="31" y="-273.5" font-family="Helvetica,sans-Serif" font-size="10.00" fill="#000000">+ size()</text>
</a>
</g>
</g>
<!-- Node2&#45;&gt;Node1 -->
<g id="edge2" class="edge">
<title>Node2&#45;&gt;Node1</title>
<path fill="none" stroke="#ffa500" d="M81.5,-256.3477C81.5,-240.606 81.5,-222.9845 81.5,-207.645"/>
<polygon fill="#ffa500" stroke="#ffa500" points="78.0001,-256.3779 81.5,-266.378 85.0001,-256.378 78.0001,-256.3779"/>
<text text-anchor="start" x="81.5" y="-240" font-family="Helvetica,sans-Serif" font-size="10.00" fill="#000000"> &lt; I1...,(sizeof...</text>
<text text-anchor="middle" x="117" y="-229" font-family="Helvetica,sans-Serif" font-size="10.00" fill="#000000">(I1)+I2)... &gt;</text>
</g>
</g>
</svg>
