<?xml version="1.0" encoding="UTF-8" standalone="no"?>
<!DOCTYPE svg PUBLIC "-//W3C//DTD SVG 1.1//EN"
 "http://www.w3.org/Graphics/SVG/1.1/DTD/svg11.dtd">
<!-- Generated by graphviz version 2.40.1 (20161225.0304)
 -->
<!-- Title: std::less&lt; ::nlohmann::detail::value_t &gt;::operator() Pages: 1 -->
<svg width="290pt" height="50pt"
 viewBox="0.00 0.00 290.00 50.00" xmlns="http://www.w3.org/2000/svg" xmlns:xlink="http://www.w3.org/1999/xlink">
<g id="graph0" class="graph" transform="scale(1 1) rotate(0) translate(4 46)">
<title>std::less&lt; ::nlohmann::detail::value_t &gt;::operator()</title>
<polygon fill="#ffffff" stroke="transparent" points="-4,4 -4,-46 286,-46 286,4 -4,4"/>
<!-- Node0 -->
<g id="node1" class="node">
<title>Node0</title>
<polygon fill="#bfbfbf" stroke="#000000" points="0,-.5 0,-41.5 111,-41.5 111,-.5 0,-.5"/>
<text text-anchor="start" x="8" y="-29.5" font-family="Helvetica,sans-Serif" font-size="10.00" fill="#000000">std::less&lt; ::nlohmann</text>
<text text-anchor="start" x="8" y="-18.5" font-family="Helvetica,sans-Serif" font-size="10.00" fill="#000000">::detail::value_t &gt;::</text>
<text text-anchor="middle" x="55.5" y="-7.5" font-family="Helvetica,sans-Serif" font-size="10.00" fill="#000000">operator()</text>
</g>
<!-- Node1 -->
<g id="node2" class="node">
<title>Node1</title>
<g id="a_node2"><a xlink:href="namespacenlohmann_1_1detail.html#a09169efff3bd1771fff29bd92cea19e0" target="_top" xlink:title="comparison operator for JSON types ">
<polygon fill="#ffffff" stroke="#000000" points="147,-11.5 147,-30.5 282,-30.5 282,-11.5 147,-11.5"/>
<text text-anchor="middle" x="214.5" y="-18.5" font-family="Helvetica,sans-Serif" font-size="10.00" fill="#000000">nlohmann::detail::operator&lt;</text>
</a>
</g>
</g>
<!-- Node0&#45;&gt;Node1 -->
<g id="edge1" class="edge">
<title>Node0&#45;&gt;Node1</title>
<path fill="none" stroke="#191970" d="M111.1105,-21C119.4137,-21 128.1002,-21 136.7589,-21"/>
<polygon fill="#191970" stroke="#191970" points="136.886,-24.5001 146.886,-21 136.8859,-17.5001 136.886,-24.5001"/>
</g>
</g>
</svg>
