<?xml version="1.0" encoding="UTF-8" standalone="no"?>
<!DOCTYPE svg PUBLIC "-//W3C//DTD SVG 1.1//EN"
 "http://www.w3.org/Graphics/SVG/1.1/DTD/svg11.dtd">
<!-- Generated by graphviz version 2.40.1 (20161225.0304)
 -->
<!-- Title: nlohmann::detail::position_t Pages: 1 -->
<svg width="166pt" height="204pt"
 viewBox="0.00 0.00 166.00 204.00" xmlns="http://www.w3.org/2000/svg" xmlns:xlink="http://www.w3.org/1999/xlink">
<g id="graph0" class="graph" transform="scale(1 1) rotate(0) translate(4 200)">
<title>nlohmann::detail::position_t</title>
<polygon fill="#ffffff" stroke="transparent" points="-4,4 -4,-200 162,-200 162,4 -4,4"/>
<!-- Node1 -->
<g id="node1" class="node">
<title>Node1</title>
<polygon fill="#bfbfbf" stroke="#000000" points="0,-.5 0,-57.5 136,-57.5 136,-.5 0,-.5"/>
<text text-anchor="middle" x="68" y="-45.5" font-family="Helvetica,sans-Serif" font-size="10.00" fill="#000000">nlohmann::detail::position_t</text>
<polyline fill="none" stroke="#000000" points="0,-38.5 136,-38.5 "/>
<text text-anchor="middle" x="68" y="-26.5" font-family="Helvetica,sans-Serif" font-size="10.00" fill="#000000"> </text>
<polyline fill="none" stroke="#000000" points="0,-19.5 136,-19.5 "/>
<text text-anchor="start" x="8" y="-7.5" font-family="Helvetica,sans-Serif" font-size="10.00" fill="#000000">+ operator size_t()</text>
</g>
<!-- Node2 -->
<g id="node2" class="node">
<title>Node2</title>
<polygon fill="#ffffff" stroke="#bfbfbf" points="46.5,-138.5 46.5,-195.5 89.5,-195.5 89.5,-138.5 46.5,-138.5"/>
<text text-anchor="middle" x="68" y="-183.5" font-family="Helvetica,sans-Serif" font-size="10.00" fill="#000000">size_t</text>
<polyline fill="none" stroke="#bfbfbf" points="46.5,-176.5 89.5,-176.5 "/>
<text text-anchor="middle" x="68" y="-164.5" font-family="Helvetica,sans-Serif" font-size="10.00" fill="#000000"> </text>
<polyline fill="none" stroke="#bfbfbf" points="46.5,-157.5 89.5,-157.5 "/>
<text text-anchor="middle" x="68" y="-145.5" font-family="Helvetica,sans-Serif" font-size="10.00" fill="#000000"> </text>
</g>
<!-- Node2&#45;&gt;Node1 -->
<g id="edge1" class="edge">
<title>Node2&#45;&gt;Node1</title>
<path fill="none" stroke="#404040" d="M68,-138.4063C68,-118.5153 68,-91.7072 68,-69.6065"/>
<polygon fill="none" stroke="#404040" points="68.0001,-69.5571 64,-63.5571 68,-57.5571 72,-63.557 68.0001,-69.5571"/>
<text text-anchor="middle" x="113" y="-112" font-family="Helvetica,sans-Serif" font-size="10.00" fill="#000000"> +chars_read_total</text>
<text text-anchor="start" x="68" y="-101" font-family="Helvetica,sans-Serif" font-size="10.00" fill="#000000">+chars_read_current</text>
<text text-anchor="middle" x="113" y="-90" font-family="Helvetica,sans-Serif" font-size="10.00" fill="#000000">_line</text>
<text text-anchor="middle" x="113" y="-79" font-family="Helvetica,sans-Serif" font-size="10.00" fill="#000000">+lines_read</text>
</g>
</g>
</svg>
