<?xml version="1.0" encoding="UTF-8" standalone="no"?>
<!DOCTYPE svg PUBLIC "-//W3C//DTD SVG 1.1//EN"
 "http://www.w3.org/Graphics/SVG/1.1/DTD/svg11.dtd">
<!-- Generated by graphviz version 2.43.0 (0)
 -->
<!-- Title: River::BackwardData Pages: 1 -->
<svg width="333pt" height="193pt"
 viewBox="0.00 0.00 332.50 193.00" xmlns="http://www.w3.org/2000/svg" xmlns:xlink="http://www.w3.org/1999/xlink">
<g id="graph0" class="graph" transform="scale(1 1) rotate(0) translate(4 189)">
<title>River::BackwardData</title>
<polygon fill="white" stroke="transparent" points="-4,4 -4,-189 328.5,-189 328.5,4 -4,4"/>
<!-- Node1 -->
<g id="node1" class="node">
<title>Node1</title>
<g id="a_node1"><a xlink:title="Data strucuture used for collection of backward data.">
<polygon fill="#bfbfbf" stroke="black" points="91.5,-0.5 91.5,-57.5 210.5,-57.5 210.5,-0.5 91.5,-0.5"/>
<text text-anchor="middle" x="151" y="-45.5" font-family="Helvetica,sans-Serif" font-size="10.00">River::BackwardData</text>
<polyline fill="none" stroke="black" points="91.5,-38.5 210.5,-38.5 "/>
<text text-anchor="middle" x="151" y="-26.5" font-family="Helvetica,sans-Serif" font-size="10.00"> </text>
<polyline fill="none" stroke="black" points="91.5,-19.5 210.5,-19.5 "/>
<text text-anchor="start" x="99.5" y="-7.5" font-family="Helvetica,sans-Serif" font-size="10.00">+ operator==()</text>
</a>
</g>
</g>
<!-- Node2 -->
<g id="node2" class="node">
<title>Node2</title>
<g id="a_node2"><a xlink:title=" ">
<polygon fill="white" stroke="#bfbfbf" points="0,-127.5 0,-184.5 50,-184.5 50,-127.5 0,-127.5"/>
<text text-anchor="middle" x="25" y="-172.5" font-family="Helvetica,sans-Serif" font-size="10.00">double</text>
<polyline fill="none" stroke="#bfbfbf" points="0,-165.5 50,-165.5 "/>
<text text-anchor="middle" x="25" y="-153.5" font-family="Helvetica,sans-Serif" font-size="10.00"> </text>
<polyline fill="none" stroke="#bfbfbf" points="0,-146.5 50,-146.5 "/>
<text text-anchor="middle" x="25" y="-134.5" font-family="Helvetica,sans-Serif" font-size="10.00"> </text>
</a>
</g>
</g>
<!-- Node2&#45;&gt;Node1 -->
<g id="edge1" class="edge">
<title>Node2&#45;&gt;Node1</title>
<path fill="none" stroke="#404040" d="M25.61,-127.37C27.32,-110.8 32,-90.24 44,-76 53.67,-64.53 66.71,-55.85 80.37,-49.3"/>
<polygon fill="none" stroke="#404040" points="80.4,-49.29 84.3,-43.22 91.4,-44.49 87.5,-50.55 80.4,-49.29"/>
<text text-anchor="middle" x="95.5" y="-90" font-family="Helvetica,sans-Serif" font-size="10.00"> +branch_lenght_diff</text>
</g>
<!-- Node3 -->
<g id="node3" class="node">
<title>Node3</title>
<g id="a_node3"><a xlink:title=" ">
<polygon fill="white" stroke="#bfbfbf" points="103.5,-127.5 103.5,-184.5 198.5,-184.5 198.5,-127.5 103.5,-127.5"/>
<text text-anchor="middle" x="151" y="-172.5" font-family="Helvetica,sans-Serif" font-size="10.00">vector&lt; Point &gt;</text>
<polyline fill="none" stroke="#bfbfbf" points="103.5,-165.5 198.5,-165.5 "/>
<text text-anchor="middle" x="151" y="-153.5" font-family="Helvetica,sans-Serif" font-size="10.00"> </text>
<polyline fill="none" stroke="#bfbfbf" points="103.5,-146.5 198.5,-146.5 "/>
<text text-anchor="middle" x="151" y="-134.5" font-family="Helvetica,sans-Serif" font-size="10.00"> </text>
</a>
</g>
</g>
<!-- Node3&#45;&gt;Node1 -->
<g id="edge2" class="edge">
<title>Node3&#45;&gt;Node1</title>
<path fill="none" stroke="#404040" d="M151,-127.26C151,-110.35 151,-88.46 151,-69.73"/>
<polygon fill="none" stroke="#404040" points="151,-69.66 147,-63.66 151,-57.66 155,-63.66 151,-69.66"/>
<text text-anchor="middle" x="200.5" y="-101" font-family="Helvetica,sans-Serif" font-size="10.00"> +init</text>
<text text-anchor="middle" x="200.5" y="-90" font-family="Helvetica,sans-Serif" font-size="10.00">+backward_forward</text>
<text text-anchor="middle" x="200.5" y="-79" font-family="Helvetica,sans-Serif" font-size="10.00">+backward</text>
</g>
<!-- Node4 -->
<g id="node4" class="node">
<title>Node4</title>
<g id="a_node4"><a xlink:title=" ">
<polygon fill="white" stroke="#bfbfbf" points="221.5,-127.5 221.5,-184.5 324.5,-184.5 324.5,-127.5 221.5,-127.5"/>
<text text-anchor="middle" x="273" y="-172.5" font-family="Helvetica,sans-Serif" font-size="10.00">vector&lt; double &gt;</text>
<polyline fill="none" stroke="#bfbfbf" points="221.5,-165.5 324.5,-165.5 "/>
<text text-anchor="middle" x="273" y="-153.5" font-family="Helvetica,sans-Serif" font-size="10.00"> </text>
<polyline fill="none" stroke="#bfbfbf" points="221.5,-146.5 324.5,-146.5 "/>
<text text-anchor="middle" x="273" y="-134.5" font-family="Helvetica,sans-Serif" font-size="10.00"> </text>
</a>
</g>
</g>
<!-- Node4&#45;&gt;Node1 -->
<g id="edge3" class="edge">
<title>Node4&#45;&gt;Node1</title>
<path fill="none" stroke="#404040" d="M271.09,-127.42C268.66,-110.86 263.19,-90.31 251,-76 242.92,-66.52 232.48,-58.89 221.39,-52.77"/>
<polygon fill="none" stroke="#404040" points="221.35,-52.75 214.19,-53.63 210.63,-47.36 217.78,-46.48 221.35,-52.75"/>
<text text-anchor="middle" x="278" y="-101" font-family="Helvetica,sans-Serif" font-size="10.00"> +a1</text>
<text text-anchor="middle" x="278" y="-90" font-family="Helvetica,sans-Serif" font-size="10.00">+a2</text>
<text text-anchor="middle" x="278" y="-79" font-family="Helvetica,sans-Serif" font-size="10.00">+a3</text>
</g>
</g>
</svg>
