<?xml version="1.0" encoding="UTF-8" standalone="no"?>
<!DOCTYPE svg PUBLIC "-//W3C//DTD SVG 1.1//EN"
 "http://www.w3.org/Graphics/SVG/1.1/DTD/svg11.dtd">
<!-- Generated by graphviz version 2.40.1 (20161225.0304)
 -->
<!-- Title: nlohmann::detail::dtoa_impl::diyfp Pages: 1 -->
<svg width="138pt" height="237pt"
 viewBox="0.00 0.00 137.50 237.00" xmlns="http://www.w3.org/2000/svg" xmlns:xlink="http://www.w3.org/1999/xlink">
<g id="graph0" class="graph" transform="scale(1 1) rotate(0) translate(4 233)">
<title>nlohmann::detail::dtoa_impl::diyfp</title>
<polygon fill="#ffffff" stroke="transparent" points="-4,4 -4,-233 133.5,-233 133.5,4 -4,4"/>
<!-- Node1 -->
<g id="node1" class="node">
<title>Node1</title>
<polygon fill="#bfbfbf" stroke="#000000" points="0,-.5 0,-112.5 113,-112.5 113,-.5 0,-.5"/>
<text text-anchor="start" x="8" y="-100.5" font-family="Helvetica,sans-Serif" font-size="10.00" fill="#000000">nlohmann::detail::dtoa</text>
<text text-anchor="middle" x="56.5" y="-89.5" font-family="Helvetica,sans-Serif" font-size="10.00" fill="#000000">_impl::diyfp</text>
<polyline fill="none" stroke="#000000" points="0,-82.5 113,-82.5 "/>
<text text-anchor="middle" x="56.5" y="-70.5" font-family="Helvetica,sans-Serif" font-size="10.00" fill="#000000"> </text>
<polyline fill="none" stroke="#000000" points="0,-63.5 113,-63.5 "/>
<text text-anchor="start" x="8" y="-51.5" font-family="Helvetica,sans-Serif" font-size="10.00" fill="#000000">+ diyfp()</text>
<text text-anchor="start" x="8" y="-40.5" font-family="Helvetica,sans-Serif" font-size="10.00" fill="#000000">+ sub()</text>
<text text-anchor="start" x="8" y="-29.5" font-family="Helvetica,sans-Serif" font-size="10.00" fill="#000000">+ mul()</text>
<text text-anchor="start" x="8" y="-18.5" font-family="Helvetica,sans-Serif" font-size="10.00" fill="#000000">+ normalize()</text>
<text text-anchor="start" x="8" y="-7.5" font-family="Helvetica,sans-Serif" font-size="10.00" fill="#000000">+ normalize_to()</text>
</g>
<!-- Node2 -->
<g id="node2" class="node">
<title>Node2</title>
<polygon fill="#ffffff" stroke="#bfbfbf" points="2,-171.5 2,-228.5 53,-228.5 53,-171.5 2,-171.5"/>
<text text-anchor="middle" x="27.5" y="-216.5" font-family="Helvetica,sans-Serif" font-size="10.00" fill="#000000">uint64_t</text>
<polyline fill="none" stroke="#bfbfbf" points="2,-209.5 53,-209.5 "/>
<text text-anchor="middle" x="27.5" y="-197.5" font-family="Helvetica,sans-Serif" font-size="10.00" fill="#000000"> </text>
<polyline fill="none" stroke="#bfbfbf" points="2,-190.5 53,-190.5 "/>
<text text-anchor="middle" x="27.5" y="-178.5" font-family="Helvetica,sans-Serif" font-size="10.00" fill="#000000"> </text>
</g>
<!-- Node2&#45;&gt;Node1 -->
<g id="edge1" class="edge">
<title>Node2&#45;&gt;Node1</title>
<path fill="none" stroke="#404040" d="M33.2989,-171.3055C36.0256,-157.8132 39.4036,-141.0976 42.7303,-124.6362"/>
<polygon fill="none" stroke="#404040" points="42.7564,-124.5067 40.0242,-117.8332 45.1335,-112.7445 47.8657,-119.4179 42.7564,-124.5067"/>
<text text-anchor="middle" x="48" y="-139.5" font-family="Helvetica,sans-Serif" font-size="10.00" fill="#000000"> +f</text>
</g>
<!-- Node3 -->
<g id="node3" class="node">
<title>Node3</title>
<polygon fill="#ffffff" stroke="#bfbfbf" points="71,-171.5 71,-228.5 100,-228.5 100,-171.5 71,-171.5"/>
<text text-anchor="middle" x="85.5" y="-216.5" font-family="Helvetica,sans-Serif" font-size="10.00" fill="#000000">int</text>
<polyline fill="none" stroke="#bfbfbf" points="71,-209.5 100,-209.5 "/>
<text text-anchor="middle" x="85.5" y="-197.5" font-family="Helvetica,sans-Serif" font-size="10.00" fill="#000000"> </text>
<polyline fill="none" stroke="#bfbfbf" points="71,-190.5 100,-190.5 "/>
<text text-anchor="middle" x="85.5" y="-178.5" font-family="Helvetica,sans-Serif" font-size="10.00" fill="#000000"> </text>
</g>
<!-- Node3&#45;&gt;Node1 -->
<g id="edge2" class="edge">
<title>Node3&#45;&gt;Node1</title>
<path fill="none" stroke="#404040" d="M79.7011,-171.3055C76.9744,-157.8132 73.5964,-141.0976 70.2697,-124.6362"/>
<polygon fill="none" stroke="#404040" points="70.2436,-124.5067 65.1343,-119.4179 67.8665,-112.7445 72.9758,-117.8332 70.2436,-124.5067"/>
<text text-anchor="middle" x="102" y="-145" font-family="Helvetica,sans-Serif" font-size="10.00" fill="#000000"> +kPrecision</text>
<text text-anchor="middle" x="102" y="-134" font-family="Helvetica,sans-Serif" font-size="10.00" fill="#000000">+e</text>
</g>
</g>
</svg>
