<?xml version="1.0" encoding="UTF-8" standalone="no"?>
<!DOCTYPE svg PUBLIC "-//W3C//DTD SVG 1.1//EN"
 "http://www.w3.org/Graphics/SVG/1.1/DTD/svg11.dtd">
<!-- Generated by graphviz version 2.40.1 (20161225.0304)
 -->
<!-- Title: nlohmann::detail::is_iterator_traits&lt; iterator_traits&lt; T &gt; &gt; Pages: 1 -->
<svg width="126pt" height="193pt"
 viewBox="0.00 0.00 126.00 193.00" xmlns="http://www.w3.org/2000/svg" xmlns:xlink="http://www.w3.org/1999/xlink">
<g id="graph0" class="graph" transform="scale(1 1) rotate(0) translate(4 189)">
<title>nlohmann::detail::is_iterator_traits&lt; iterator_traits&lt; T &gt; &gt;</title>
<polygon fill="#ffffff" stroke="transparent" points="-4,4 -4,-189 122,-189 122,4 -4,4"/>
<!-- Node1 -->
<g id="node1" class="node">
<title>Node1</title>
<polygon fill="#bfbfbf" stroke="#000000" points="0,-.5 0,-79.5 118,-79.5 118,-.5 0,-.5"/>
<text text-anchor="start" x="8" y="-67.5" font-family="Helvetica,sans-Serif" font-size="10.00" fill="#000000">nlohmann::detail::is</text>
<text text-anchor="start" x="8" y="-56.5" font-family="Helvetica,sans-Serif" font-size="10.00" fill="#000000">_iterator_traits&lt; iterator</text>
<text text-anchor="middle" x="59" y="-45.5" font-family="Helvetica,sans-Serif" font-size="10.00" fill="#000000">_traits&lt; T &gt; &gt;</text>
<polyline fill="none" stroke="#000000" points="0,-38.5 118,-38.5 "/>
<text text-anchor="middle" x="59" y="-26.5" font-family="Helvetica,sans-Serif" font-size="10.00" fill="#000000"> </text>
<polyline fill="none" stroke="#000000" points="0,-19.5 118,-19.5 "/>
<text text-anchor="middle" x="59" y="-7.5" font-family="Helvetica,sans-Serif" font-size="10.00" fill="#000000"> </text>
</g>
<!-- Node2 -->
<g id="node2" class="node">
<title>Node2</title>
<polygon fill="#ffffff" stroke="#bfbfbf" points="5,-127.5 5,-184.5 113,-184.5 113,-127.5 5,-127.5"/>
<text text-anchor="middle" x="59" y="-172.5" font-family="Helvetica,sans-Serif" font-size="10.00" fill="#000000">static constexpr auto</text>
<polyline fill="none" stroke="#bfbfbf" points="5,-165.5 113,-165.5 "/>
<text text-anchor="middle" x="59" y="-153.5" font-family="Helvetica,sans-Serif" font-size="10.00" fill="#000000"> </text>
<polyline fill="none" stroke="#bfbfbf" points="5,-146.5 113,-146.5 "/>
<text text-anchor="middle" x="59" y="-134.5" font-family="Helvetica,sans-Serif" font-size="10.00" fill="#000000"> </text>
</g>
<!-- Node2&#45;&gt;Node1 -->
<g id="edge1" class="edge">
<title>Node2&#45;&gt;Node1</title>
<path fill="none" stroke="#404040" d="M59,-127.3258C59,-116.5576 59,-103.9593 59,-91.7364"/>
<polygon fill="none" stroke="#404040" points="59.0001,-91.7203 55,-85.7203 59,-79.7203 63,-85.7203 59.0001,-91.7203"/>
<text text-anchor="middle" x="75.5" y="-101" font-family="Helvetica,sans-Serif" font-size="10.00" fill="#000000"> +value</text>
</g>
</g>
</svg>
