<?xml version="1.0" encoding="UTF-8" standalone="no"?>
<!DOCTYPE svg PUBLIC "-//W3C//DTD SVG 1.1//EN"
 "http://www.w3.org/Graphics/SVG/1.1/DTD/svg11.dtd">
<!-- Generated by graphviz version 2.40.1 (20161225.0304)
 -->
<!-- Title: flipstacker Pages: 1 -->
<svg width="129pt" height="171pt"
 viewBox="0.00 0.00 129.00 171.00" xmlns="http://www.w3.org/2000/svg" xmlns:xlink="http://www.w3.org/1999/xlink">
<g id="graph0" class="graph" transform="scale(1 1) rotate(0) translate(4 167)">
<title>flipstacker</title>
<polygon fill="#ffffff" stroke="transparent" points="-4,4 -4,-167 125,-167 125,4 -4,4"/>
<!-- Node1 -->
<g id="node1" class="node">
<title>Node1</title>
<polygon fill="#bfbfbf" stroke="#000000" points="0,-.5 0,-57.5 62,-57.5 62,-.5 0,-.5"/>
<text text-anchor="middle" x="31" y="-45.5" font-family="Helvetica,sans-Serif" font-size="10.00" fill="#000000">flipstacker</text>
<polyline fill="none" stroke="#000000" points="0,-38.5 62,-38.5 "/>
<text text-anchor="middle" x="31" y="-26.5" font-family="Helvetica,sans-Serif" font-size="10.00" fill="#000000"> </text>
<polyline fill="none" stroke="#000000" points="0,-19.5 62,-19.5 "/>
<text text-anchor="middle" x="31" y="-7.5" font-family="Helvetica,sans-Serif" font-size="10.00" fill="#000000"> </text>
</g>
<!-- Node1&#45;&gt;Node1 -->
<g id="edge1" class="edge">
<title>Node1&#45;&gt;Node1</title>
<path fill="none" stroke="#404040" d="M62.102,-38.7476C72.0865,-38.6476 80,-35.3984 80,-29 80,-25.6008 77.7666,-23.0905 74.1758,-21.4689"/>
<polygon fill="none" stroke="#404040" points="73.9048,-21.4192 67.2811,-24.27 62.102,-19.2524 68.7257,-16.4015 73.9048,-21.4192"/>
<text text-anchor="middle" x="100.5" y="-26.5" font-family="Helvetica,sans-Serif" font-size="10.00" fill="#000000"> +prevflip</text>
</g>
<!-- Node2 -->
<g id="node2" class="node">
<title>Node2</title>
<polygon fill="#ffffff" stroke="#bfbfbf" points="9.5,-105.5 9.5,-162.5 52.5,-162.5 52.5,-105.5 9.5,-105.5"/>
<text text-anchor="middle" x="31" y="-150.5" font-family="Helvetica,sans-Serif" font-size="10.00" fill="#000000">REAL</text>
<polyline fill="none" stroke="#bfbfbf" points="9.5,-143.5 52.5,-143.5 "/>
<text text-anchor="middle" x="31" y="-131.5" font-family="Helvetica,sans-Serif" font-size="10.00" fill="#000000"> </text>
<polyline fill="none" stroke="#bfbfbf" points="9.5,-124.5 52.5,-124.5 "/>
<text text-anchor="middle" x="31" y="-112.5" font-family="Helvetica,sans-Serif" font-size="10.00" fill="#000000"> </text>
</g>
<!-- Node2&#45;&gt;Node1 -->
<g id="edge2" class="edge">
<title>Node2&#45;&gt;Node1</title>
<path fill="none" stroke="#404040" d="M31,-105.3083C31,-94.4281 31,-81.817 31,-70.0192"/>
<polygon fill="none" stroke="#404040" points="31.0001,-69.657 27,-63.6571 31,-57.657 35,-63.657 31.0001,-69.657"/>
<text text-anchor="middle" x="54" y="-79" font-family="Helvetica,sans-Serif" font-size="10.00" fill="#000000"> +flippedtri</text>
</g>
</g>
</svg>
