<?xml version="1.0" encoding="UTF-8" standalone="no"?>
<!DOCTYPE svg PUBLIC "-//W3C//DTD SVG 1.1//EN"
 "http://www.w3.org/Graphics/SVG/1.1/DTD/svg11.dtd">
<!-- Generated by graphviz version 2.40.1 (20161225.0304)
 -->
<!-- Title: River::GeometryDifference Pages: 1 -->
<svg width="329pt" height="248pt"
 viewBox="0.00 0.00 328.50 248.00" xmlns="http://www.w3.org/2000/svg" xmlns:xlink="http://www.w3.org/1999/xlink">
<g id="graph0" class="graph" transform="scale(1 1) rotate(0) translate(4 244)">
<title>River::GeometryDifference</title>
<polygon fill="#ffffff" stroke="transparent" points="-4,4 -4,-244 324.5,-244 324.5,4 -4,4"/>
<!-- Node1 -->
<g id="node1" class="node">
<title>Node1</title>
<polygon fill="#bfbfbf" stroke="#000000" points="48,-.5 48,-101.5 209,-101.5 209,-.5 48,-.5"/>
<text text-anchor="middle" x="128.5" y="-89.5" font-family="Helvetica,sans-Serif" font-size="10.00" fill="#000000">River::GeometryDifference</text>
<polyline fill="none" stroke="#000000" points="48,-82.5 209,-82.5 "/>
<text text-anchor="middle" x="128.5" y="-70.5" font-family="Helvetica,sans-Serif" font-size="10.00" fill="#000000"> </text>
<polyline fill="none" stroke="#000000" points="48,-63.5 209,-63.5 "/>
<text text-anchor="start" x="56" y="-51.5" font-family="Helvetica,sans-Serif" font-size="10.00" fill="#000000">+ StartBifurcationRecord()</text>
<text text-anchor="start" x="56" y="-40.5" font-family="Helvetica,sans-Serif" font-size="10.00" fill="#000000">+ EndBifurcationRecord()</text>
<text text-anchor="start" x="56" y="-29.5" font-family="Helvetica,sans-Serif" font-size="10.00" fill="#000000">+ RecordBranchSeriesParams</text>
<text text-anchor="start" x="56" y="-18.5" font-family="Helvetica,sans-Serif" font-size="10.00" fill="#000000">AndGeomDiff()</text>
<text text-anchor="start" x="56" y="-7.5" font-family="Helvetica,sans-Serif" font-size="10.00" fill="#000000">&#45; RecordBifurcationPoint()</text>
</g>
<!-- Node2 -->
<g id="node2" class="node">
<title>Node2</title>
<polygon fill="#ffffff" stroke="#bfbfbf" points="0,-177 0,-234 113,-234 113,-177 0,-177"/>
<text text-anchor="middle" x="56.5" y="-222" font-family="Helvetica,sans-Serif" font-size="10.00" fill="#000000">map&lt; int, double &gt;</text>
<polyline fill="none" stroke="#bfbfbf" points="0,-215 113,-215 "/>
<text text-anchor="middle" x="56.5" y="-203" font-family="Helvetica,sans-Serif" font-size="10.00" fill="#000000"> </text>
<polyline fill="none" stroke="#bfbfbf" points="0,-196 113,-196 "/>
<text text-anchor="middle" x="56.5" y="-184" font-family="Helvetica,sans-Serif" font-size="10.00" fill="#000000"> </text>
</g>
<!-- Node2&#45;&gt;Node1 -->
<g id="edge1" class="edge">
<title>Node2&#45;&gt;Node1</title>
<path fill="none" stroke="#404040" d="M69.8739,-176.8018C78.2583,-158.8103 89.3963,-134.9101 99.7108,-112.7769"/>
<polygon fill="none" stroke="#404040" points="99.782,-112.6239 98.6908,-105.4959 104.8509,-101.747 105.9421,-108.8751 99.782,-112.6239"/>
<text text-anchor="middle" x="132.5" y="-134" font-family="Helvetica,sans-Serif" font-size="10.00" fill="#000000"> &#45;bif_difference</text>
</g>
<!-- Node3 -->
<g id="node3" class="node">
<title>Node3</title>
<polygon fill="#ffffff" stroke="#bfbfbf" points="131,-171.5 131,-239.5 272,-239.5 272,-171.5 131,-171.5"/>
<text text-anchor="start" x="139" y="-227.5" font-family="Helvetica,sans-Serif" font-size="10.00" fill="#000000">map&lt; int, vector&lt; vector</text>
<text text-anchor="middle" x="201.5" y="-216.5" font-family="Helvetica,sans-Serif" font-size="10.00" fill="#000000">&lt; double &gt; &gt; &gt;</text>
<polyline fill="none" stroke="#bfbfbf" points="131,-209.5 272,-209.5 "/>
<text text-anchor="middle" x="201.5" y="-197.5" font-family="Helvetica,sans-Serif" font-size="10.00" fill="#000000"> </text>
<polyline fill="none" stroke="#bfbfbf" points="131,-190.5 272,-190.5 "/>
<text text-anchor="middle" x="201.5" y="-178.5" font-family="Helvetica,sans-Serif" font-size="10.00" fill="#000000"> </text>
</g>
<!-- Node3&#45;&gt;Node1 -->
<g id="edge2" class="edge">
<title>Node3&#45;&gt;Node1</title>
<path fill="none" stroke="#404040" d="M192.5668,-171.4136C187.8186,-155.4235 181.3351,-136.3369 173.5,-120 172.2737,-117.4431 170.9675,-114.8684 169.6009,-112.2939"/>
<polygon fill="none" stroke="#404040" points="169.5625,-112.2252 163.1393,-108.9476 163.6944,-101.7578 170.1176,-105.0355 169.5625,-112.2252"/>
<text text-anchor="start" x="185.5" y="-145" font-family="Helvetica,sans-Serif" font-size="10.00" fill="#000000"> +branches_series_params</text>
<text text-anchor="middle" x="253" y="-134" font-family="Helvetica,sans-Serif" font-size="10.00" fill="#000000">_and_geom_diff</text>
<text text-anchor="middle" x="253" y="-123" font-family="Helvetica,sans-Serif" font-size="10.00" fill="#000000">+branches_bifuraction_info</text>
</g>
</g>
</svg>
