<?xml version="1.0" encoding="UTF-8" standalone="no"?>
<!DOCTYPE svg PUBLIC "-//W3C//DTD SVG 1.1//EN"
 "http://www.w3.org/Graphics/SVG/1.1/DTD/svg11.dtd">
<!-- Generated by graphviz version 2.40.1 (20161225.0304)
 -->
<!-- Title: nlohmann::detail::is_constructible_string_type&lt; BasicJsonType, ConstructibleStringType &gt; Pages: 1 -->
<svg width="280pt" height="482pt"
 viewBox="0.00 0.00 279.50 482.00" xmlns="http://www.w3.org/2000/svg" xmlns:xlink="http://www.w3.org/1999/xlink">
<g id="graph0" class="graph" transform="scale(1 1) rotate(0) translate(4 478)">
<title>nlohmann::detail::is_constructible_string_type&lt; BasicJsonType, ConstructibleStringType &gt;</title>
<polygon fill="#ffffff" stroke="transparent" points="-4,4 -4,-478 275.5,-478 275.5,4 -4,4"/>
<!-- Node0 -->
<g id="node1" class="node">
<title>Node0</title>
<polygon fill="#bfbfbf" stroke="#000000" points="13.5,-.5 13.5,-90.5 147.5,-90.5 147.5,-.5 13.5,-.5"/>
<text text-anchor="start" x="21.5" y="-78.5" font-family="Helvetica,sans-Serif" font-size="10.00" fill="#000000">nlohmann::detail::is</text>
<text text-anchor="start" x="21.5" y="-67.5" font-family="Helvetica,sans-Serif" font-size="10.00" fill="#000000">_constructible_string</text>
<text text-anchor="start" x="21.5" y="-56.5" font-family="Helvetica,sans-Serif" font-size="10.00" fill="#000000">_type&lt; BasicJsonType,</text>
<text text-anchor="middle" x="80.5" y="-45.5" font-family="Helvetica,sans-Serif" font-size="10.00" fill="#000000"> ConstructibleStringType &gt;</text>
<polyline fill="none" stroke="#000000" points="13.5,-38.5 147.5,-38.5 "/>
<text text-anchor="middle" x="80.5" y="-26.5" font-family="Helvetica,sans-Serif" font-size="10.00" fill="#000000"> </text>
<polyline fill="none" stroke="#000000" points="13.5,-19.5 147.5,-19.5 "/>
<text text-anchor="middle" x="80.5" y="-7.5" font-family="Helvetica,sans-Serif" font-size="10.00" fill="#000000"> </text>
</g>
<!-- Node1 -->
<g id="node2" class="node">
<title>Node1</title>
<g id="a_node2"><a xlink:href="structnlohmann_1_1detail_1_1is__constructible__string__type__impl.html" target="_top" xlink:title="{nlohmann::detail::is\l_constructible_string\l_type_impl\&lt; BasicJsonType,\l ConstructibleStringType \&gt;\n||}">
<polygon fill="#ffffff" stroke="#000000" points="9,-128.5 9,-218.5 152,-218.5 152,-128.5 9,-128.5"/>
<text text-anchor="start" x="17" y="-206.5" font-family="Helvetica,sans-Serif" font-size="10.00" fill="#000000">nlohmann::detail::is</text>
<text text-anchor="start" x="17" y="-195.5" font-family="Helvetica,sans-Serif" font-size="10.00" fill="#000000">_constructible_string</text>
<text text-anchor="start" x="17" y="-184.5" font-family="Helvetica,sans-Serif" font-size="10.00" fill="#000000">_type_impl&lt; BasicJsonType,</text>
<text text-anchor="middle" x="80.5" y="-173.5" font-family="Helvetica,sans-Serif" font-size="10.00" fill="#000000"> ConstructibleStringType &gt;</text>
<polyline fill="none" stroke="#000000" points="9,-166.5 152,-166.5 "/>
<text text-anchor="middle" x="80.5" y="-154.5" font-family="Helvetica,sans-Serif" font-size="10.00" fill="#000000"> </text>
<polyline fill="none" stroke="#000000" points="9,-147.5 152,-147.5 "/>
<text text-anchor="middle" x="80.5" y="-135.5" font-family="Helvetica,sans-Serif" font-size="10.00" fill="#000000"> </text>
</a>
</g>
</g>
<!-- Node1&#45;&gt;Node0 -->
<g id="edge1" class="edge">
<title>Node1&#45;&gt;Node0</title>
<path fill="none" stroke="#191970" d="M80.5,-118.1492C80.5,-108.9671 80.5,-99.5431 80.5,-90.6519"/>
<polygon fill="none" stroke="#191970" points="77.0001,-118.372 80.5,-128.372 84.0001,-118.372 77.0001,-118.372"/>
</g>
<!-- Node2 -->
<g id="node3" class="node">
<title>Node2</title>
<polygon fill="#ffffff" stroke="#bfbfbf" points="0,-299.5 0,-356.5 81,-356.5 81,-299.5 0,-299.5"/>
<text text-anchor="middle" x="40.5" y="-344.5" font-family="Helvetica,sans-Serif" font-size="10.00" fill="#000000">std::false_type</text>
<polyline fill="none" stroke="#bfbfbf" points="0,-337.5 81,-337.5 "/>
<text text-anchor="middle" x="40.5" y="-325.5" font-family="Helvetica,sans-Serif" font-size="10.00" fill="#000000"> </text>
<polyline fill="none" stroke="#bfbfbf" points="0,-318.5 81,-318.5 "/>
<text text-anchor="middle" x="40.5" y="-306.5" font-family="Helvetica,sans-Serif" font-size="10.00" fill="#000000"> </text>
</g>
<!-- Node2&#45;&gt;Node1 -->
<g id="edge2" class="edge">
<title>Node2&#45;&gt;Node1</title>
<path fill="none" stroke="#191970" d="M50.4553,-289.5475C56.0133,-268.08 62.969,-241.2135 68.7877,-218.7388"/>
<polygon fill="none" stroke="#191970" points="47.0481,-288.7438 47.9299,-299.3018 53.8247,-290.4983 47.0481,-288.7438"/>
</g>
<!-- Node3 -->
<g id="node4" class="node">
<title>Node3</title>
<g id="a_node4"><a xlink:href="structnlohmann_1_1detail_1_1is__constructible__string__type__impl.html" target="_top" xlink:title="{nlohmann::detail::is\l_constructible_string\l_type_impl\&lt; BasicJsonType,\l ConstructibleStringType,\l typename \&gt;\n||}">
<polygon fill="#ffffff" stroke="#000000" points="99,-277.5 99,-378.5 242,-378.5 242,-277.5 99,-277.5"/>
<text text-anchor="start" x="107" y="-366.5" font-family="Helvetica,sans-Serif" font-size="10.00" fill="#000000">nlohmann::detail::is</text>
<text text-anchor="start" x="107" y="-355.5" font-family="Helvetica,sans-Serif" font-size="10.00" fill="#000000">_constructible_string</text>
<text text-anchor="start" x="107" y="-344.5" font-family="Helvetica,sans-Serif" font-size="10.00" fill="#000000">_type_impl&lt; BasicJsonType,</text>
<text text-anchor="start" x="107" y="-333.5" font-family="Helvetica,sans-Serif" font-size="10.00" fill="#000000"> ConstructibleStringType,</text>
<text text-anchor="middle" x="170.5" y="-322.5" font-family="Helvetica,sans-Serif" font-size="10.00" fill="#000000"> typename &gt;</text>
<polyline fill="none" stroke="#000000" points="99,-315.5 242,-315.5 "/>
<text text-anchor="middle" x="170.5" y="-303.5" font-family="Helvetica,sans-Serif" font-size="10.00" fill="#000000"> </text>
<polyline fill="none" stroke="#000000" points="99,-296.5 242,-296.5 "/>
<text text-anchor="middle" x="170.5" y="-284.5" font-family="Helvetica,sans-Serif" font-size="10.00" fill="#000000"> </text>
</a>
</g>
</g>
<!-- Node3&#45;&gt;Node1 -->
<g id="edge3" class="edge">
<title>Node3&#45;&gt;Node1</title>
<path fill="none" stroke="#ffa500" d="M135.7722,-268.384C126.1634,-251.8888 115.8944,-234.2604 106.8475,-218.7299"/>
<polygon fill="#ffa500" stroke="#ffa500" points="132.9728,-270.5318 141.0306,-277.4109 139.0214,-267.0083 132.9728,-270.5318"/>
<text text-anchor="start" x="127.5" y="-251" font-family="Helvetica,sans-Serif" font-size="10.00" fill="#000000"> &lt; BasicJsonType, Constructible</text>
<text text-anchor="middle" x="199.5" y="-240" font-family="Helvetica,sans-Serif" font-size="10.00" fill="#000000">StringType &gt;</text>
</g>
<!-- Node4 -->
<g id="node5" class="node">
<title>Node4</title>
<polygon fill="#ffffff" stroke="#bfbfbf" points="139.5,-416.5 139.5,-473.5 201.5,-473.5 201.5,-416.5 139.5,-416.5"/>
<text text-anchor="middle" x="170.5" y="-461.5" font-family="Helvetica,sans-Serif" font-size="10.00" fill="#000000">false_type</text>
<polyline fill="none" stroke="#bfbfbf" points="139.5,-454.5 201.5,-454.5 "/>
<text text-anchor="middle" x="170.5" y="-442.5" font-family="Helvetica,sans-Serif" font-size="10.00" fill="#000000"> </text>
<polyline fill="none" stroke="#bfbfbf" points="139.5,-435.5 201.5,-435.5 "/>
<text text-anchor="middle" x="170.5" y="-423.5" font-family="Helvetica,sans-Serif" font-size="10.00" fill="#000000"> </text>
</g>
<!-- Node4&#45;&gt;Node3 -->
<g id="edge4" class="edge">
<title>Node4&#45;&gt;Node3</title>
<path fill="none" stroke="#191970" d="M170.5,-406.3581C170.5,-397.5039 170.5,-387.9611 170.5,-378.6852"/>
<polygon fill="none" stroke="#191970" points="167.0001,-406.3785 170.5,-416.3786 174.0001,-406.3786 167.0001,-406.3785"/>
</g>
</g>
</svg>
