<?xml version="1.0" encoding="UTF-8" standalone="no"?>
<!DOCTYPE svg PUBLIC "-//W3C//DTD SVG 1.1//EN"
 "http://www.w3.org/Graphics/SVG/1.1/DTD/svg11.dtd">
<!-- Generated by graphviz version 2.40.1 (20161225.0304)
 -->
<!-- Title: memorypool Pages: 1 -->
<svg width="352pt" height="226pt"
 viewBox="0.00 0.00 352.00 226.00" xmlns="http://www.w3.org/2000/svg" xmlns:xlink="http://www.w3.org/1999/xlink">
<g id="graph0" class="graph" transform="scale(1 1) rotate(0) translate(4 222)">
<title>memorypool</title>
<polygon fill="#ffffff" stroke="transparent" points="-4,4 -4,-222 348,-222 348,4 -4,4"/>
<!-- Node1 -->
<g id="node1" class="node">
<title>Node1</title>
<polygon fill="#bfbfbf" stroke="#000000" points="117,-.5 117,-57.5 187,-57.5 187,-.5 117,-.5"/>
<text text-anchor="middle" x="152" y="-45.5" font-family="Helvetica,sans-Serif" font-size="10.00" fill="#000000">memorypool</text>
<polyline fill="none" stroke="#000000" points="117,-38.5 187,-38.5 "/>
<text text-anchor="middle" x="152" y="-26.5" font-family="Helvetica,sans-Serif" font-size="10.00" fill="#000000"> </text>
<polyline fill="none" stroke="#000000" points="117,-19.5 187,-19.5 "/>
<text text-anchor="middle" x="152" y="-7.5" font-family="Helvetica,sans-Serif" font-size="10.00" fill="#000000"> </text>
</g>
<!-- Node2 -->
<g id="node2" class="node">
<title>Node2</title>
<polygon fill="#ffffff" stroke="#bfbfbf" points="0,-160.5 0,-217.5 52,-217.5 52,-160.5 0,-160.5"/>
<text text-anchor="middle" x="26" y="-205.5" font-family="Helvetica,sans-Serif" font-size="10.00" fill="#000000">VOID **</text>
<polyline fill="none" stroke="#bfbfbf" points="0,-198.5 52,-198.5 "/>
<text text-anchor="middle" x="26" y="-186.5" font-family="Helvetica,sans-Serif" font-size="10.00" fill="#000000"> </text>
<polyline fill="none" stroke="#bfbfbf" points="0,-179.5 52,-179.5 "/>
<text text-anchor="middle" x="26" y="-167.5" font-family="Helvetica,sans-Serif" font-size="10.00" fill="#000000"> </text>
</g>
<!-- Node2&#45;&gt;Node1 -->
<g id="edge1" class="edge">
<title>Node2&#45;&gt;Node1</title>
<path fill="none" stroke="#404040" d="M21.1134,-160.1033C18.5861,-135.3632 19.1095,-100.0324 37,-76 53.086,-54.3916 80.8494,-42.6805 105.0667,-36.3527"/>
<polygon fill="none" stroke="#404040" points="105.2764,-36.304 110.2139,-31.0484 116.9642,-33.5847 112.0267,-38.8403 105.2764,-36.304"/>
<text text-anchor="middle" x="63" y="-117.5" font-family="Helvetica,sans-Serif" font-size="10.00" fill="#000000"> +pathblock</text>
<text text-anchor="middle" x="63" y="-106.5" font-family="Helvetica,sans-Serif" font-size="10.00" fill="#000000">+nowblock</text>
<text text-anchor="middle" x="63" y="-95.5" font-family="Helvetica,sans-Serif" font-size="10.00" fill="#000000">+firstblock</text>
</g>
<!-- Node3 -->
<g id="node3" class="node">
<title>Node3</title>
<polygon fill="#ffffff" stroke="#bfbfbf" points="86.5,-160.5 86.5,-217.5 115.5,-217.5 115.5,-160.5 86.5,-160.5"/>
<text text-anchor="middle" x="101" y="-205.5" font-family="Helvetica,sans-Serif" font-size="10.00" fill="#000000">int</text>
<polyline fill="none" stroke="#bfbfbf" points="86.5,-198.5 115.5,-198.5 "/>
<text text-anchor="middle" x="101" y="-186.5" font-family="Helvetica,sans-Serif" font-size="10.00" fill="#000000"> </text>
<polyline fill="none" stroke="#bfbfbf" points="86.5,-179.5 115.5,-179.5 "/>
<text text-anchor="middle" x="101" y="-167.5" font-family="Helvetica,sans-Serif" font-size="10.00" fill="#000000"> </text>
</g>
<!-- Node3&#45;&gt;Node1 -->
<g id="edge2" class="edge">
<title>Node3&#45;&gt;Node1</title>
<path fill="none" stroke="#404040" d="M95.235,-160.3143C91.8629,-136.6656 90.2786,-102.7791 102,-76 103.8272,-71.8254 106.2247,-67.8491 108.9811,-64.1049"/>
<polygon fill="none" stroke="#404040" points="109.173,-63.8805 110.0317,-56.7207 116.971,-54.7596 116.1123,-61.9194 109.173,-63.8805"/>
<text text-anchor="middle" x="142" y="-134" font-family="Helvetica,sans-Serif" font-size="10.00" fill="#000000"> +pathitemsleft</text>
<text text-anchor="middle" x="142" y="-123" font-family="Helvetica,sans-Serif" font-size="10.00" fill="#000000">+itemsperblock</text>
<text text-anchor="middle" x="142" y="-112" font-family="Helvetica,sans-Serif" font-size="10.00" fill="#000000">+itemsfirstblock</text>
<text text-anchor="middle" x="142" y="-101" font-family="Helvetica,sans-Serif" font-size="10.00" fill="#000000">+itembytes</text>
<text text-anchor="middle" x="142" y="-90" font-family="Helvetica,sans-Serif" font-size="10.00" fill="#000000">+unallocateditems</text>
<text text-anchor="middle" x="142" y="-79" font-family="Helvetica,sans-Serif" font-size="10.00" fill="#000000">+alignbytes</text>
</g>
<!-- Node4 -->
<g id="node4" class="node">
<title>Node4</title>
<polygon fill="#ffffff" stroke="#bfbfbf" points="186.5,-160.5 186.5,-217.5 221.5,-217.5 221.5,-160.5 186.5,-160.5"/>
<text text-anchor="middle" x="204" y="-205.5" font-family="Helvetica,sans-Serif" font-size="10.00" fill="#000000">long</text>
<polyline fill="none" stroke="#bfbfbf" points="186.5,-198.5 221.5,-198.5 "/>
<text text-anchor="middle" x="204" y="-186.5" font-family="Helvetica,sans-Serif" font-size="10.00" fill="#000000"> </text>
<polyline fill="none" stroke="#bfbfbf" points="186.5,-179.5 221.5,-179.5 "/>
<text text-anchor="middle" x="204" y="-167.5" font-family="Helvetica,sans-Serif" font-size="10.00" fill="#000000"> </text>
</g>
<!-- Node4&#45;&gt;Node1 -->
<g id="edge3" class="edge">
<title>Node4&#45;&gt;Node1</title>
<path fill="none" stroke="#404040" d="M201.4182,-160.3004C198.615,-136.9436 192.9771,-103.4676 182,-76 180.993,-73.4803 179.8469,-70.9488 178.6041,-68.4384"/>
<polygon fill="none" stroke="#404040" points="178.4608,-68.1784 172.0616,-64.8543 172.6688,-57.6688 179.068,-60.9929 178.4608,-68.1784"/>
<text text-anchor="middle" x="222.5" y="-112" font-family="Helvetica,sans-Serif" font-size="10.00" fill="#000000"> +items</text>
<text text-anchor="middle" x="222.5" y="-101" font-family="Helvetica,sans-Serif" font-size="10.00" fill="#000000">+maxitems</text>
</g>
<!-- Node5 -->
<g id="node5" class="node">
<title>Node5</title>
<polygon fill="#ffffff" stroke="#bfbfbf" points="252,-160.5 252,-217.5 300,-217.5 300,-160.5 252,-160.5"/>
<text text-anchor="middle" x="276" y="-205.5" font-family="Helvetica,sans-Serif" font-size="10.00" fill="#000000">VOID *</text>
<polyline fill="none" stroke="#bfbfbf" points="252,-198.5 300,-198.5 "/>
<text text-anchor="middle" x="276" y="-186.5" font-family="Helvetica,sans-Serif" font-size="10.00" fill="#000000"> </text>
<polyline fill="none" stroke="#bfbfbf" points="252,-179.5 300,-179.5 "/>
<text text-anchor="middle" x="276" y="-167.5" font-family="Helvetica,sans-Serif" font-size="10.00" fill="#000000"> </text>
</g>
<!-- Node5&#45;&gt;Node1 -->
<g id="edge4" class="edge">
<title>Node5&#45;&gt;Node1</title>
<path fill="none" stroke="#404040" d="M276.3957,-160.0318C275.2741,-135.246 270.0284,-99.8881 251,-76 237.8454,-59.4859 217.4933,-48.4574 198.6551,-41.2617"/>
<polygon fill="none" stroke="#404040" points="198.5286,-41.2176 191.5453,-43.0162 187.1992,-37.262 194.1824,-35.4634 198.5286,-41.2176"/>
<text text-anchor="middle" x="309" y="-117.5" font-family="Helvetica,sans-Serif" font-size="10.00" fill="#000000"> +pathitem</text>
<text text-anchor="middle" x="309" y="-106.5" font-family="Helvetica,sans-Serif" font-size="10.00" fill="#000000">+nextitem</text>
<text text-anchor="middle" x="309" y="-95.5" font-family="Helvetica,sans-Serif" font-size="10.00" fill="#000000">+deaditemstack</text>
</g>
</g>
</svg>
