<?xml version="1.0" encoding="UTF-8" standalone="no"?>
<!DOCTYPE svg PUBLIC "-//W3C//DTD SVG 1.1//EN"
 "http://www.w3.org/Graphics/SVG/1.1/DTD/svg11.dtd">
<!-- Generated by graphviz version 2.40.1 (20161225.0304)
 -->
<!-- Title: nlohmann::detail::is_compatible_integer_type_impl&lt; RealIntegerType, CompatibleNumberIntegerType, typename &gt; Pages: 1 -->
<svg width="250pt" height="482pt"
 viewBox="0.00 0.00 250.00 482.00" xmlns="http://www.w3.org/2000/svg" xmlns:xlink="http://www.w3.org/1999/xlink">
<g id="graph0" class="graph" transform="scale(1 1) rotate(0) translate(4 478)">
<title>nlohmann::detail::is_compatible_integer_type_impl&lt; RealIntegerType, CompatibleNumberIntegerType, typename &gt;</title>
<polygon fill="#ffffff" stroke="transparent" points="-4,4 -4,-478 246,-478 246,4 -4,4"/>
<!-- Node0 -->
<g id="node1" class="node">
<title>Node0</title>
<polygon fill="#bfbfbf" stroke="#000000" points="15,-277.5 15,-378.5 173,-378.5 173,-277.5 15,-277.5"/>
<text text-anchor="start" x="23" y="-366.5" font-family="Helvetica,sans-Serif" font-size="10.00" fill="#000000">nlohmann::detail::is</text>
<text text-anchor="start" x="23" y="-355.5" font-family="Helvetica,sans-Serif" font-size="10.00" fill="#000000">_compatible_integer_type</text>
<text text-anchor="start" x="23" y="-344.5" font-family="Helvetica,sans-Serif" font-size="10.00" fill="#000000">_impl&lt; RealIntegerType,</text>
<text text-anchor="start" x="23" y="-333.5" font-family="Helvetica,sans-Serif" font-size="10.00" fill="#000000"> CompatibleNumberIntegerType,</text>
<text text-anchor="middle" x="94" y="-322.5" font-family="Helvetica,sans-Serif" font-size="10.00" fill="#000000"> typename &gt;</text>
<polyline fill="none" stroke="#000000" points="15,-315.5 173,-315.5 "/>
<text text-anchor="middle" x="94" y="-303.5" font-family="Helvetica,sans-Serif" font-size="10.00" fill="#000000"> </text>
<polyline fill="none" stroke="#000000" points="15,-296.5 173,-296.5 "/>
<text text-anchor="middle" x="94" y="-284.5" font-family="Helvetica,sans-Serif" font-size="10.00" fill="#000000"> </text>
</g>
<!-- Node2 -->
<g id="node3" class="node">
<title>Node2</title>
<g id="a_node3"><a xlink:href="structnlohmann_1_1detail_1_1is__compatible__integer__type__impl.html" target="_top" xlink:title="{nlohmann::detail::is\l_compatible_integer_type\l_impl\&lt; RealIntegerType,\l CompatibleNumberIntegerType \&gt;\n||}">
<polygon fill="#ffffff" stroke="#000000" points="12,-128.5 12,-218.5 176,-218.5 176,-128.5 12,-128.5"/>
<text text-anchor="start" x="20" y="-206.5" font-family="Helvetica,sans-Serif" font-size="10.00" fill="#000000">nlohmann::detail::is</text>
<text text-anchor="start" x="20" y="-195.5" font-family="Helvetica,sans-Serif" font-size="10.00" fill="#000000">_compatible_integer_type</text>
<text text-anchor="start" x="20" y="-184.5" font-family="Helvetica,sans-Serif" font-size="10.00" fill="#000000">_impl&lt; RealIntegerType,</text>
<text text-anchor="middle" x="94" y="-173.5" font-family="Helvetica,sans-Serif" font-size="10.00" fill="#000000"> CompatibleNumberIntegerType &gt;</text>
<polyline fill="none" stroke="#000000" points="12,-166.5 176,-166.5 "/>
<text text-anchor="middle" x="94" y="-154.5" font-family="Helvetica,sans-Serif" font-size="10.00" fill="#000000"> </text>
<polyline fill="none" stroke="#000000" points="12,-147.5 176,-147.5 "/>
<text text-anchor="middle" x="94" y="-135.5" font-family="Helvetica,sans-Serif" font-size="10.00" fill="#000000"> </text>
</a>
</g>
</g>
<!-- Node0&#45;&gt;Node2 -->
<g id="edge2" class="edge">
<title>Node0&#45;&gt;Node2</title>
<path fill="none" stroke="#ffa500" d="M94,-267.0069C94,-250.911 94,-233.829 94,-218.7299"/>
<polygon fill="#ffa500" stroke="#ffa500" points="90.5001,-267.4109 94,-277.4109 97.5001,-267.411 90.5001,-267.4109"/>
<text text-anchor="start" x="94" y="-251" font-family="Helvetica,sans-Serif" font-size="10.00" fill="#000000"> &lt; RealIntegerType,</text>
<text text-anchor="middle" x="168" y="-240" font-family="Helvetica,sans-Serif" font-size="10.00" fill="#000000"> CompatibleNumberIntegerType &gt;</text>
</g>
<!-- Node1 -->
<g id="node2" class="node">
<title>Node1</title>
<polygon fill="#ffffff" stroke="#bfbfbf" points="63,-416.5 63,-473.5 125,-473.5 125,-416.5 63,-416.5"/>
<text text-anchor="middle" x="94" y="-461.5" font-family="Helvetica,sans-Serif" font-size="10.00" fill="#000000">false_type</text>
<polyline fill="none" stroke="#bfbfbf" points="63,-454.5 125,-454.5 "/>
<text text-anchor="middle" x="94" y="-442.5" font-family="Helvetica,sans-Serif" font-size="10.00" fill="#000000"> </text>
<polyline fill="none" stroke="#bfbfbf" points="63,-435.5 125,-435.5 "/>
<text text-anchor="middle" x="94" y="-423.5" font-family="Helvetica,sans-Serif" font-size="10.00" fill="#000000"> </text>
</g>
<!-- Node1&#45;&gt;Node0 -->
<g id="edge1" class="edge">
<title>Node1&#45;&gt;Node0</title>
<path fill="none" stroke="#191970" d="M94,-406.3581C94,-397.5039 94,-387.9611 94,-378.6852"/>
<polygon fill="none" stroke="#191970" points="90.5001,-406.3785 94,-416.3786 97.5001,-406.3786 90.5001,-406.3785"/>
</g>
<!-- Node3 -->
<g id="node4" class="node">
<title>Node3</title>
<g id="a_node4"><a xlink:href="structnlohmann_1_1detail_1_1is__compatible__integer__type.html" target="_top" xlink:title="{nlohmann::detail::is\l_compatible_integer_type\l\&lt; RealIntegerType, CompatibleNumber\lIntegerType \&gt;\n||}">
<polygon fill="#ffffff" stroke="#000000" points="0,-.5 0,-90.5 188,-90.5 188,-.5 0,-.5"/>
<text text-anchor="start" x="8" y="-78.5" font-family="Helvetica,sans-Serif" font-size="10.00" fill="#000000">nlohmann::detail::is</text>
<text text-anchor="start" x="8" y="-67.5" font-family="Helvetica,sans-Serif" font-size="10.00" fill="#000000">_compatible_integer_type</text>
<text text-anchor="start" x="8" y="-56.5" font-family="Helvetica,sans-Serif" font-size="10.00" fill="#000000">&lt; RealIntegerType, CompatibleNumber</text>
<text text-anchor="middle" x="94" y="-45.5" font-family="Helvetica,sans-Serif" font-size="10.00" fill="#000000">IntegerType &gt;</text>
<polyline fill="none" stroke="#000000" points="0,-38.5 188,-38.5 "/>
<text text-anchor="middle" x="94" y="-26.5" font-family="Helvetica,sans-Serif" font-size="10.00" fill="#000000"> </text>
<polyline fill="none" stroke="#000000" points="0,-19.5 188,-19.5 "/>
<text text-anchor="middle" x="94" y="-7.5" font-family="Helvetica,sans-Serif" font-size="10.00" fill="#000000"> </text>
</a>
</g>
</g>
<!-- Node2&#45;&gt;Node3 -->
<g id="edge3" class="edge">
<title>Node2&#45;&gt;Node3</title>
<path fill="none" stroke="#191970" d="M94,-118.1492C94,-108.9671 94,-99.5431 94,-90.6519"/>
<polygon fill="none" stroke="#191970" points="90.5001,-118.372 94,-128.372 97.5001,-118.372 90.5001,-118.372"/>
</g>
</g>
</svg>
