<?xml version="1.0" encoding="UTF-8" standalone="no"?>
<!DOCTYPE svg PUBLIC "-//W3C//DTD SVG 1.1//EN"
 "http://www.w3.org/Graphics/SVG/1.1/DTD/svg11.dtd">
<!-- Generated by graphviz version 2.40.1 (20161225.0304)
 -->
<!-- Title: tethex.hpp Pages: 1 -->
<svg width="239pt" height="196pt"
 viewBox="0.00 0.00 239.00 196.00" xmlns="http://www.w3.org/2000/svg" xmlns:xlink="http://www.w3.org/1999/xlink">
<g id="graph0" class="graph" transform="scale(1 1) rotate(0) translate(4 192)">
<title>tethex.hpp</title>
<polygon fill="#ffffff" stroke="transparent" points="-4,4 -4,-192 235,-192 235,4 -4,4"/>
<!-- Node1 -->
<g id="node1" class="node">
<title>Node1</title>
<polygon fill="#bfbfbf" stroke="#000000" points="101,-168.5 101,-187.5 170,-187.5 170,-168.5 101,-168.5"/>
<text text-anchor="middle" x="135.5" y="-175.5" font-family="Helvetica,sans-Serif" font-size="10.00" fill="#000000">tethex.hpp</text>
</g>
<!-- Node2 -->
<g id="node2" class="node">
<title>Node2</title>
<g id="a_node2"><a xlink:href="tree_8hpp.html" target="_top" xlink:title="Holds all functionality that you need to work with tree(network) of river, its separate branches and ...">
<polygon fill="#ffffff" stroke="#000000" points="47,-112.5 47,-131.5 104,-131.5 104,-112.5 47,-112.5"/>
<text text-anchor="middle" x="75.5" y="-119.5" font-family="Helvetica,sans-Serif" font-size="10.00" fill="#000000">tree.hpp</text>
</a>
</g>
</g>
<!-- Node1&#45;&gt;Node2 -->
<g id="edge1" class="edge">
<title>Node1&#45;&gt;Node2</title>
<path fill="none" stroke="#191970" d="M117.6722,-161.3607C107.2922,-151.6727 94.5709,-139.7995 85.8314,-131.6427"/>
<polygon fill="#191970" stroke="#191970" points="115.3501,-163.981 125.0488,-168.2455 120.1263,-158.8636 115.3501,-163.981"/>
</g>
<!-- Node5 -->
<g id="node5" class="node">
<title>Node5</title>
<g id="a_node5"><a xlink:href="mesh_8hpp.html" target="_top" xlink:title="Mesh generation functionality. ">
<polygon fill="#ffffff" stroke="#000000" points="104,-56.5 104,-75.5 169,-75.5 169,-56.5 104,-56.5"/>
<text text-anchor="middle" x="136.5" y="-63.5" font-family="Helvetica,sans-Serif" font-size="10.00" fill="#000000">mesh.hpp</text>
</a>
</g>
</g>
<!-- Node1&#45;&gt;Node5 -->
<g id="edge5" class="edge">
<title>Node1&#45;&gt;Node5</title>
<path fill="none" stroke="#191970" d="M135.6762,-158.2702C135.8929,-133.9985 136.252,-93.7725 136.415,-75.5249"/>
<polygon fill="#191970" stroke="#191970" points="132.1748,-158.4201 135.5853,-168.4509 139.1745,-158.4826 132.1748,-158.4201"/>
</g>
<!-- Node6 -->
<g id="node6" class="node">
<title>Node6</title>
<g id="a_node6"><a xlink:href="solver_8hpp.html" target="_top" xlink:title="PDE Solver and Integration tool. ">
<polygon fill="#ffffff" stroke="#000000" points="164,-112.5 164,-131.5 231,-131.5 231,-112.5 164,-112.5"/>
<text text-anchor="middle" x="197.5" y="-119.5" font-family="Helvetica,sans-Serif" font-size="10.00" fill="#000000">solver.hpp</text>
</a>
</g>
</g>
<!-- Node1&#45;&gt;Node6 -->
<g id="edge7" class="edge">
<title>Node1&#45;&gt;Node6</title>
<path fill="none" stroke="#191970" d="M153.9221,-161.3607C164.6481,-151.6727 177.7934,-139.7995 186.8242,-131.6427"/>
<polygon fill="#191970" stroke="#191970" points="151.3746,-158.9453 146.2996,-168.2455 156.0666,-164.14 151.3746,-158.9453"/>
</g>
<!-- Node3 -->
<g id="node3" class="node">
<title>Node3</title>
<g id="a_node3"><a xlink:href="io_8hpp.html" target="_top" xlink:title="Contains functionality to read and write state of program(simulation data) and program options...">
<polygon fill="#ffffff" stroke="#000000" points="0,-56.5 0,-75.5 47,-75.5 47,-56.5 0,-56.5"/>
<text text-anchor="middle" x="23.5" y="-63.5" font-family="Helvetica,sans-Serif" font-size="10.00" fill="#000000">io.hpp</text>
</a>
</g>
</g>
<!-- Node2&#45;&gt;Node3 -->
<g id="edge2" class="edge">
<title>Node2&#45;&gt;Node3</title>
<path fill="none" stroke="#191970" d="M59.5178,-104.7884C50.6222,-95.2085 39.8796,-83.6396 32.4539,-75.6427"/>
<polygon fill="#191970" stroke="#191970" points="57.073,-107.2992 66.4423,-112.2455 62.2025,-102.536 57.073,-107.2992"/>
</g>
<!-- Node4 -->
<g id="node4" class="node">
<title>Node4</title>
<g id="a_node4"><a xlink:href="riversim_8hpp.html" target="_top" xlink:title="Some general routines like backward, forward simulation etc. ">
<polygon fill="#ffffff" stroke="#000000" points="66.5,-.5 66.5,-19.5 144.5,-19.5 144.5,-.5 66.5,-.5"/>
<text text-anchor="middle" x="105.5" y="-7.5" font-family="Helvetica,sans-Serif" font-size="10.00" fill="#000000">riversim.hpp</text>
</a>
</g>
</g>
<!-- Node2&#45;&gt;Node4 -->
<g id="edge4" class="edge">
<title>Node2&#45;&gt;Node4</title>
<path fill="none" stroke="#191970" d="M80.6968,-102.5987C87.1885,-78.363 98.0388,-37.8551 102.9487,-19.5249"/>
<polygon fill="#191970" stroke="#191970" points="77.2644,-101.8859 78.0578,-112.4509 84.026,-103.6971 77.2644,-101.8859"/>
</g>
<!-- Node3&#45;&gt;Node4 -->
<g id="edge3" class="edge">
<title>Node3&#45;&gt;Node4</title>
<path fill="none" stroke="#191970" d="M46.211,-50.49C60.6788,-40.6096 78.968,-28.1194 91.3804,-19.6427"/>
<polygon fill="#191970" stroke="#191970" points="44.0675,-47.7156 37.7833,-56.2455 48.0152,-53.4962 44.0675,-47.7156"/>
</g>
<!-- Node5&#45;&gt;Node4 -->
<g id="edge6" class="edge">
<title>Node5&#45;&gt;Node4</title>
<path fill="none" stroke="#191970" d="M126.1688,-47.3372C121.0335,-38.0605 115.0434,-27.2398 110.8379,-19.6427"/>
<polygon fill="#191970" stroke="#191970" points="123.1949,-49.1917 131.1002,-56.2455 129.3191,-45.8015 123.1949,-49.1917"/>
</g>
<!-- Node6&#45;&gt;Node4 -->
<g id="edge8" class="edge">
<title>Node6&#45;&gt;Node4</title>
<path fill="none" stroke="#191970" d="M195.5306,-101.9833C193.3009,-87.9528 188.5604,-69.3887 178.5,-56 171.076,-46.12 142.8963,-29.8666 123.8004,-19.5598"/>
<polygon fill="#191970" stroke="#191970" points="192.0822,-102.6087 196.8342,-112.0781 199.0245,-101.7121 192.0822,-102.6087"/>
</g>
</g>
</svg>
