<?xml version="1.0" encoding="UTF-8" standalone="no"?>
<!DOCTYPE svg PUBLIC "-//W3C//DTD SVG 1.1//EN"
 "http://www.w3.org/Graphics/SVG/1.1/DTD/svg11.dtd">
<!-- Generated by graphviz version 2.40.1 (20161225.0304)
 -->
<!-- Title: tethex.hpp Pages: 1 -->
<svg width="239pt" height="252pt"
 viewBox="0.00 0.00 239.00 252.00" xmlns="http://www.w3.org/2000/svg" xmlns:xlink="http://www.w3.org/1999/xlink">
<g id="graph0" class="graph" transform="scale(1 1) rotate(0) translate(4 248)">
<title>tethex.hpp</title>
<polygon fill="#ffffff" stroke="transparent" points="-4,4 -4,-248 235,-248 235,4 -4,4"/>
<!-- Node1 -->
<g id="node1" class="node">
<title>Node1</title>
<polygon fill="#bfbfbf" stroke="#000000" points="101,-224.5 101,-243.5 170,-243.5 170,-224.5 101,-224.5"/>
<text text-anchor="middle" x="135.5" y="-231.5" font-family="Helvetica,sans-Serif" font-size="10.00" fill="#000000">tethex.hpp</text>
</g>
<!-- Node2 -->
<g id="node2" class="node">
<title>Node2</title>
<g id="a_node2"><a xlink:href="tree_8hpp.html" target="_top" xlink:title="Holds all functionality that you need to work with tree(network) of river, its separate branches and ...">
<polygon fill="#ffffff" stroke="#000000" points="47,-168.5 47,-187.5 104,-187.5 104,-168.5 47,-168.5"/>
<text text-anchor="middle" x="75.5" y="-175.5" font-family="Helvetica,sans-Serif" font-size="10.00" fill="#000000">tree.hpp</text>
</a>
</g>
</g>
<!-- Node1&#45;&gt;Node2 -->
<g id="edge1" class="edge">
<title>Node1&#45;&gt;Node2</title>
<path fill="none" stroke="#191970" d="M117.6722,-217.3607C107.2922,-207.6727 94.5709,-195.7995 85.8314,-187.6427"/>
<polygon fill="#191970" stroke="#191970" points="115.3501,-219.981 125.0488,-224.2455 120.1263,-214.8636 115.3501,-219.981"/>
</g>
<!-- Node6 -->
<g id="node6" class="node">
<title>Node6</title>
<g id="a_node6"><a xlink:href="mesh_8hpp.html" target="_top" xlink:title="Mesh generation functionality. ">
<polygon fill="#ffffff" stroke="#000000" points="104,-112.5 104,-131.5 169,-131.5 169,-112.5 104,-112.5"/>
<text text-anchor="middle" x="136.5" y="-119.5" font-family="Helvetica,sans-Serif" font-size="10.00" fill="#000000">mesh.hpp</text>
</a>
</g>
</g>
<!-- Node1&#45;&gt;Node6 -->
<g id="edge6" class="edge">
<title>Node1&#45;&gt;Node6</title>
<path fill="none" stroke="#191970" d="M135.6762,-214.2702C135.8929,-189.9985 136.252,-149.7725 136.415,-131.5249"/>
<polygon fill="#191970" stroke="#191970" points="132.1748,-214.4201 135.5853,-224.4509 139.1745,-214.4826 132.1748,-214.4201"/>
</g>
<!-- Node7 -->
<g id="node7" class="node">
<title>Node7</title>
<g id="a_node7"><a xlink:href="solver_8hpp.html" target="_top" xlink:title="PDE Solver and Integration tool. ">
<polygon fill="#ffffff" stroke="#000000" points="164,-168.5 164,-187.5 231,-187.5 231,-168.5 164,-168.5"/>
<text text-anchor="middle" x="197.5" y="-175.5" font-family="Helvetica,sans-Serif" font-size="10.00" fill="#000000">solver.hpp</text>
</a>
</g>
</g>
<!-- Node1&#45;&gt;Node7 -->
<g id="edge8" class="edge">
<title>Node1&#45;&gt;Node7</title>
<path fill="none" stroke="#191970" d="M153.9221,-217.3607C164.6481,-207.6727 177.7934,-195.7995 186.8242,-187.6427"/>
<polygon fill="#191970" stroke="#191970" points="151.3746,-214.9453 146.2996,-224.2455 156.0666,-220.14 151.3746,-214.9453"/>
</g>
<!-- Node3 -->
<g id="node3" class="node">
<title>Node3</title>
<g id="a_node3"><a xlink:href="io_8hpp.html" target="_top" xlink:title="Contains functionality to read and write state of program(simulation data) and program options...">
<polygon fill="#ffffff" stroke="#000000" points="0,-112.5 0,-131.5 47,-131.5 47,-112.5 0,-112.5"/>
<text text-anchor="middle" x="23.5" y="-119.5" font-family="Helvetica,sans-Serif" font-size="10.00" fill="#000000">io.hpp</text>
</a>
</g>
</g>
<!-- Node2&#45;&gt;Node3 -->
<g id="edge2" class="edge">
<title>Node2&#45;&gt;Node3</title>
<path fill="none" stroke="#191970" d="M59.5178,-160.7884C50.6222,-151.2085 39.8796,-139.6396 32.4539,-131.6427"/>
<polygon fill="#191970" stroke="#191970" points="57.073,-163.2992 66.4423,-168.2455 62.2025,-158.536 57.073,-163.2992"/>
</g>
<!-- Node4 -->
<g id="node4" class="node">
<title>Node4</title>
<g id="a_node4"><a xlink:href="riversim_8hpp.html" target="_top" xlink:title="Some general routines like backward, forward simulation etc. ">
<polygon fill="#ffffff" stroke="#000000" points="66.5,-56.5 66.5,-75.5 144.5,-75.5 144.5,-56.5 66.5,-56.5"/>
<text text-anchor="middle" x="105.5" y="-63.5" font-family="Helvetica,sans-Serif" font-size="10.00" fill="#000000">riversim.hpp</text>
</a>
</g>
</g>
<!-- Node2&#45;&gt;Node4 -->
<g id="edge5" class="edge">
<title>Node2&#45;&gt;Node4</title>
<path fill="none" stroke="#191970" d="M80.6968,-158.5987C87.1885,-134.363 98.0388,-93.8551 102.9487,-75.5249"/>
<polygon fill="#191970" stroke="#191970" points="77.2644,-157.8859 78.0578,-168.4509 84.026,-159.6971 77.2644,-157.8859"/>
</g>
<!-- Node3&#45;&gt;Node4 -->
<g id="edge3" class="edge">
<title>Node3&#45;&gt;Node4</title>
<path fill="none" stroke="#191970" d="M46.211,-106.49C60.6788,-96.6096 78.968,-84.1194 91.3804,-75.6427"/>
<polygon fill="#191970" stroke="#191970" points="44.0675,-103.7156 37.7833,-112.2455 48.0152,-109.4962 44.0675,-103.7156"/>
</g>
<!-- Node5 -->
<g id="node5" class="node">
<title>Node5</title>
<g id="a_node5"><a xlink:href="main_8cpp.html" target="_top" xlink:title="Entry point of program and main loop handler. ">
<polygon fill="#ffffff" stroke="#000000" points="74.5,-.5 74.5,-19.5 136.5,-19.5 136.5,-.5 74.5,-.5"/>
<text text-anchor="middle" x="105.5" y="-7.5" font-family="Helvetica,sans-Serif" font-size="10.00" fill="#000000">main.cpp</text>
</a>
</g>
</g>
<!-- Node4&#45;&gt;Node5 -->
<g id="edge4" class="edge">
<title>Node4&#45;&gt;Node5</title>
<path fill="none" stroke="#191970" d="M105.5,-46.1575C105.5,-37.155 105.5,-26.9199 105.5,-19.6427"/>
<polygon fill="#191970" stroke="#191970" points="102.0001,-46.2455 105.5,-56.2455 109.0001,-46.2456 102.0001,-46.2455"/>
</g>
<!-- Node6&#45;&gt;Node4 -->
<g id="edge7" class="edge">
<title>Node6&#45;&gt;Node4</title>
<path fill="none" stroke="#191970" d="M126.1688,-103.3372C121.0335,-94.0605 115.0434,-83.2398 110.8379,-75.6427"/>
<polygon fill="#191970" stroke="#191970" points="123.1949,-105.1917 131.1002,-112.2455 129.3191,-101.8015 123.1949,-105.1917"/>
</g>
<!-- Node7&#45;&gt;Node4 -->
<g id="edge9" class="edge">
<title>Node7&#45;&gt;Node4</title>
<path fill="none" stroke="#191970" d="M195.5306,-157.9833C193.3009,-143.9528 188.5604,-125.3887 178.5,-112 171.076,-102.12 142.8963,-85.8666 123.8004,-75.5598"/>
<polygon fill="#191970" stroke="#191970" points="192.0822,-158.6087 196.8342,-168.0781 199.0245,-157.7121 192.0822,-158.6087"/>
</g>
</g>
</svg>
