<?xml version="1.0" encoding="UTF-8" standalone="no"?>
<!DOCTYPE svg PUBLIC "-//W3C//DTD SVG 1.1//EN"
 "http://www.w3.org/Graphics/SVG/1.1/DTD/svg11.dtd">
<!-- Generated by graphviz version 2.40.1 (20161225.0304)
 -->
<!-- Title: /home/oleg/Dev/riversim/source/river/tethex/tethex.hpp Pages: 1 -->
<svg width="874pt" height="307pt"
 viewBox="0.00 0.00 874.00 307.00" xmlns="http://www.w3.org/2000/svg" xmlns:xlink="http://www.w3.org/1999/xlink">
<g id="graph0" class="graph" transform="scale(1 1) rotate(0) translate(4 303)">
<title>/home/oleg/Dev/riversim/source/river/tethex/tethex.hpp</title>
<polygon fill="#ffffff" stroke="transparent" points="-4,4 -4,-303 870,-303 870,4 -4,4"/>
<!-- Node7 -->
<g id="node1" class="node">
<title>Node7</title>
<polygon fill="#bfbfbf" stroke="#000000" points="447,-268.5 447,-298.5 596,-298.5 596,-268.5 447,-268.5"/>
<text text-anchor="start" x="455" y="-286.5" font-family="Helvetica,sans-Serif" font-size="10.00" fill="#000000">/home/oleg/Dev/riversim</text>
<text text-anchor="middle" x="521.5" y="-275.5" font-family="Helvetica,sans-Serif" font-size="10.00" fill="#000000">/source/river/tethex/tethex.hpp</text>
</g>
<!-- Node8 -->
<g id="node2" class="node">
<title>Node8</title>
<g id="a_node2"><a xlink:href="border_8hpp.html" target="_top" xlink:title="Generate some initial predefinide border geometry and its source positions. ">
<polygon fill="#ffffff" stroke="#000000" points="207,-201.5 207,-231.5 330,-231.5 330,-201.5 207,-201.5"/>
<text text-anchor="start" x="215" y="-219.5" font-family="Helvetica,sans-Serif" font-size="10.00" fill="#000000">/home/oleg/Dev/riversim</text>
<text text-anchor="middle" x="268.5" y="-208.5" font-family="Helvetica,sans-Serif" font-size="10.00" fill="#000000">/source/river/border.hpp</text>
</a>
</g>
</g>
<!-- Node7&#45;&gt;Node8 -->
<g id="edge1" class="edge">
<title>Node7&#45;&gt;Node8</title>
<path fill="none" stroke="#191970" d="M454.9927,-265.8874C414.7389,-255.2273 363.9378,-241.774 325.5258,-231.6017"/>
<polygon fill="#191970" stroke="#191970" points="454.1591,-269.2872 464.7219,-268.4639 455.9511,-262.5205 454.1591,-269.2872"/>
</g>
<!-- Node10 -->
<g id="node4" class="node">
<title>Node10</title>
<g id="a_node4"><a xlink:href="geometrynew_8hpp.html" target="_top" xlink:title="Holds all functionality that you need to work with tree of river, its separate branches and generatio...">
<polygon fill="#ffffff" stroke="#000000" points="0,-134.5 0,-164.5 151,-164.5 151,-134.5 0,-134.5"/>
<text text-anchor="start" x="8" y="-152.5" font-family="Helvetica,sans-Serif" font-size="10.00" fill="#000000">/home/oleg/Dev/riversim</text>
<text text-anchor="middle" x="75.5" y="-141.5" font-family="Helvetica,sans-Serif" font-size="10.00" fill="#000000">/source/river/geometrynew.hpp</text>
</a>
</g>
</g>
<!-- Node7&#45;&gt;Node10 -->
<g id="edge15" class="edge">
<title>Node7&#45;&gt;Node10</title>
<path fill="none" stroke="#191970" d="M436.7276,-274.2496C355.7179,-264.6517 239.8562,-248.727 197.5,-232 156.358,-215.7525 115.107,-183.7884 92.683,-164.7696"/>
<polygon fill="#191970" stroke="#191970" points="436.5824,-277.7565 446.9222,-275.446 437.3983,-270.8042 436.5824,-277.7565"/>
</g>
<!-- Node15 -->
<g id="node9" class="node">
<title>Node15</title>
<g id="a_node9"><a xlink:href="geometry_8hpp.html" target="_top" xlink:title="/home/oleg/Dev/riversim\l/source/river/geometry.hpp">
<polygon fill="#ffffff" stroke="#000000" points="528,-201.5 528,-231.5 661,-231.5 661,-201.5 528,-201.5"/>
<text text-anchor="start" x="536" y="-219.5" font-family="Helvetica,sans-Serif" font-size="10.00" fill="#000000">/home/oleg/Dev/riversim</text>
<text text-anchor="middle" x="594.5" y="-208.5" font-family="Helvetica,sans-Serif" font-size="10.00" fill="#000000">/source/river/geometry.hpp</text>
</a>
</g>
</g>
<!-- Node7&#45;&gt;Node15 -->
<g id="edge9" class="edge">
<title>Node7&#45;&gt;Node15</title>
<path fill="none" stroke="#191970" d="M545.474,-261.4965C556.1267,-251.7193 568.3993,-240.4554 578.0007,-231.6432"/>
<polygon fill="#191970" stroke="#191970" points="543.0656,-258.9562 538.0648,-268.2967 547.7989,-264.1134 543.0656,-258.9562"/>
</g>
<!-- Node17 -->
<g id="node11" class="node">
<title>Node17</title>
<g id="a_node11"><a xlink:href="mesh_8hpp.html" target="_top" xlink:title="/home/oleg/Dev/riversim\l/source/river/mesh.hpp">
<polygon fill="#ffffff" stroke="#000000" points="718,-134.5 718,-164.5 841,-164.5 841,-134.5 718,-134.5"/>
<text text-anchor="start" x="726" y="-152.5" font-family="Helvetica,sans-Serif" font-size="10.00" fill="#000000">/home/oleg/Dev/riversim</text>
<text text-anchor="middle" x="779.5" y="-141.5" font-family="Helvetica,sans-Serif" font-size="10.00" fill="#000000">/source/river/mesh.hpp</text>
</a>
</g>
</g>
<!-- Node7&#45;&gt;Node17 -->
<g id="edge16" class="edge">
<title>Node7&#45;&gt;Node17</title>
<path fill="none" stroke="#191970" d="M589.9389,-265.4017C616.0289,-257.0925 645.4863,-245.9437 670.5,-232 689.5378,-221.3875 691.227,-214.293 708.5,-201 724.9121,-188.3695 743.9244,-174.6243 758.1423,-164.5133"/>
<polygon fill="#191970" stroke="#191970" points="588.6349,-262.1416 580.1208,-268.4471 590.7088,-268.8273 588.6349,-262.1416"/>
</g>
<!-- Node19 -->
<g id="node13" class="node">
<title>Node19</title>
<g id="a_node13"><a xlink:href="solver_8hpp.html" target="_top" xlink:title="/home/oleg/Dev/riversim\l/source/river/solver.hpp">
<polygon fill="#ffffff" stroke="#000000" points="387,-201.5 387,-231.5 510,-231.5 510,-201.5 387,-201.5"/>
<text text-anchor="start" x="395" y="-219.5" font-family="Helvetica,sans-Serif" font-size="10.00" fill="#000000">/home/oleg/Dev/riversim</text>
<text text-anchor="middle" x="448.5" y="-208.5" font-family="Helvetica,sans-Serif" font-size="10.00" fill="#000000">/source/river/solver.hpp</text>
</a>
</g>
</g>
<!-- Node7&#45;&gt;Node19 -->
<g id="edge17" class="edge">
<title>Node7&#45;&gt;Node19</title>
<path fill="none" stroke="#191970" d="M497.526,-261.4965C486.8733,-251.7193 474.6007,-240.4554 464.9993,-231.6432"/>
<polygon fill="#191970" stroke="#191970" points="495.2011,-264.1134 504.9352,-268.2967 499.9344,-258.9562 495.2011,-264.1134"/>
</g>
<!-- Node21 -->
<g id="node15" class="node">
<title>Node21</title>
<g id="a_node15"><a xlink:href="tethex_8cpp.html" target="_top" xlink:title="/home/oleg/Dev/riversim\l/source/river/tethex/tethex.cpp">
<polygon fill="#ffffff" stroke="#000000" points="717,-201.5 717,-231.5 866,-231.5 866,-201.5 717,-201.5"/>
<text text-anchor="start" x="725" y="-219.5" font-family="Helvetica,sans-Serif" font-size="10.00" fill="#000000">/home/oleg/Dev/riversim</text>
<text text-anchor="middle" x="791.5" y="-208.5" font-family="Helvetica,sans-Serif" font-size="10.00" fill="#000000">/source/river/tethex/tethex.cpp</text>
</a>
</g>
</g>
<!-- Node7&#45;&gt;Node21 -->
<g id="edge20" class="edge">
<title>Node7&#45;&gt;Node21</title>
<path fill="none" stroke="#191970" d="M591.9318,-266.0225C634.9761,-255.3411 689.4761,-241.8171 730.6425,-231.6017"/>
<polygon fill="#191970" stroke="#191970" points="590.9559,-262.6584 582.0933,-268.4639 592.6419,-269.4524 590.9559,-262.6584"/>
</g>
<!-- Node9 -->
<g id="node3" class="node">
<title>Node9</title>
<g id="a_node3"><a xlink:href="border_8cpp.html" target="_top" xlink:title="/home/oleg/Dev/riversim\l/source/river/border.cpp">
<polygon fill="#ffffff" stroke="#000000" points="169,-134.5 169,-164.5 292,-164.5 292,-134.5 169,-134.5"/>
<text text-anchor="start" x="177" y="-152.5" font-family="Helvetica,sans-Serif" font-size="10.00" fill="#000000">/home/oleg/Dev/riversim</text>
<text text-anchor="middle" x="230.5" y="-141.5" font-family="Helvetica,sans-Serif" font-size="10.00" fill="#000000">/source/river/border.cpp</text>
</a>
</g>
</g>
<!-- Node8&#45;&gt;Node9 -->
<g id="edge2" class="edge">
<title>Node8&#45;&gt;Node9</title>
<path fill="none" stroke="#191970" d="M254.8788,-192.4837C249.6132,-183.1996 243.747,-172.8565 239.0887,-164.6432"/>
<polygon fill="#191970" stroke="#191970" points="251.8993,-194.325 259.8772,-201.2967 257.9882,-190.8716 251.8993,-194.325"/>
</g>
<!-- Node8&#45;&gt;Node10 -->
<g id="edge3" class="edge">
<title>Node8&#45;&gt;Node10</title>
<path fill="none" stroke="#191970" d="M215.61,-198.1392C185.2604,-187.6033 147.6229,-174.5375 119.0019,-164.6017"/>
<polygon fill="#191970" stroke="#191970" points="214.5922,-201.4907 225.187,-201.4639 216.8879,-194.8779 214.5922,-201.4907"/>
</g>
<!-- Node12 -->
<g id="node6" class="node">
<title>Node12</title>
<g id="a_node6"><a xlink:href="riversim_8hpp.html" target="_top" xlink:title="/home/oleg/Dev/riversim\l/source/river/riversim.hpp">
<polygon fill="#ffffff" stroke="#000000" points="295,-67.5 295,-97.5 422,-97.5 422,-67.5 295,-67.5"/>
<text text-anchor="start" x="303" y="-85.5" font-family="Helvetica,sans-Serif" font-size="10.00" fill="#000000">/home/oleg/Dev/riversim</text>
<text text-anchor="middle" x="358.5" y="-74.5" font-family="Helvetica,sans-Serif" font-size="10.00" fill="#000000">/source/river/riversim.hpp</text>
</a>
</g>
</g>
<!-- Node8&#45;&gt;Node12 -->
<g id="edge8" class="edge">
<title>Node8&#45;&gt;Node12</title>
<path fill="none" stroke="#191970" d="M284.4258,-192.7882C302.8544,-165.3502 332.6585,-120.9751 348.2498,-97.7614"/>
<polygon fill="#191970" stroke="#191970" points="281.3193,-191.1361 278.6492,-201.389 287.1303,-195.039 281.3193,-191.1361"/>
</g>
<!-- Node11 -->
<g id="node5" class="node">
<title>Node11</title>
<g id="a_node5"><a xlink:href="geometrynew_8cpp.html" target="_top" xlink:title="/home/oleg/Dev/riversim\l/source/river/geometrynew.cpp">
<polygon fill="#ffffff" stroke="#000000" points="0,-67.5 0,-97.5 151,-97.5 151,-67.5 0,-67.5"/>
<text text-anchor="start" x="8" y="-85.5" font-family="Helvetica,sans-Serif" font-size="10.00" fill="#000000">/home/oleg/Dev/riversim</text>
<text text-anchor="middle" x="75.5" y="-74.5" font-family="Helvetica,sans-Serif" font-size="10.00" fill="#000000">/source/river/geometrynew.cpp</text>
</a>
</g>
</g>
<!-- Node10&#45;&gt;Node11 -->
<g id="edge4" class="edge">
<title>Node10&#45;&gt;Node11</title>
<path fill="none" stroke="#191970" d="M75.5,-124.0249C75.5,-115.128 75.5,-105.4287 75.5,-97.6432"/>
<polygon fill="#191970" stroke="#191970" points="72.0001,-124.2966 75.5,-134.2967 79.0001,-124.2967 72.0001,-124.2966"/>
</g>
<!-- Node10&#45;&gt;Node12 -->
<g id="edge5" class="edge">
<title>Node10&#45;&gt;Node12</title>
<path fill="none" stroke="#191970" d="M148.7537,-132.1573C193.9584,-121.4551 251.3821,-107.8601 294.7123,-97.6017"/>
<polygon fill="#191970" stroke="#191970" points="147.9354,-128.7542 139.0107,-134.4639 149.5481,-135.5659 147.9354,-128.7542"/>
</g>
<!-- Node13 -->
<g id="node7" class="node">
<title>Node13</title>
<g id="a_node7"><a xlink:href="main_8cpp.html" target="_top" xlink:title="Entry point of program and main loop handler. ">
<polygon fill="#ffffff" stroke="#000000" points="226,-.5 226,-30.5 349,-30.5 349,-.5 226,-.5"/>
<text text-anchor="start" x="234" y="-18.5" font-family="Helvetica,sans-Serif" font-size="10.00" fill="#000000">/home/oleg/Dev/riversim</text>
<text text-anchor="middle" x="287.5" y="-7.5" font-family="Helvetica,sans-Serif" font-size="10.00" fill="#000000">/source/main.cpp</text>
</a>
</g>
</g>
<!-- Node12&#45;&gt;Node13 -->
<g id="edge6" class="edge">
<title>Node12&#45;&gt;Node13</title>
<path fill="none" stroke="#191970" d="M334.8806,-60.2113C324.5905,-50.5009 312.7949,-39.3698 303.5472,-30.6432"/>
<polygon fill="#191970" stroke="#191970" points="332.7139,-62.979 342.389,-67.2967 337.5181,-57.8879 332.7139,-62.979"/>
</g>
<!-- Node14 -->
<g id="node8" class="node">
<title>Node14</title>
<g id="a_node8"><a xlink:href="riversim_8cpp.html" target="_top" xlink:title="/home/oleg/Dev/riversim\l/source/river/riversim.cpp">
<polygon fill="#ffffff" stroke="#000000" points="367,-.5 367,-30.5 494,-30.5 494,-.5 367,-.5"/>
<text text-anchor="start" x="375" y="-18.5" font-family="Helvetica,sans-Serif" font-size="10.00" fill="#000000">/home/oleg/Dev/riversim</text>
<text text-anchor="middle" x="430.5" y="-7.5" font-family="Helvetica,sans-Serif" font-size="10.00" fill="#000000">/source/river/riversim.cpp</text>
</a>
</g>
</g>
<!-- Node12&#45;&gt;Node14 -->
<g id="edge7" class="edge">
<title>Node12&#45;&gt;Node14</title>
<path fill="none" stroke="#191970" d="M382.452,-60.2113C392.8871,-50.5009 404.8488,-39.3698 414.2267,-30.6432"/>
<polygon fill="#191970" stroke="#191970" points="379.7743,-57.9221 374.8379,-67.2967 384.5429,-63.0466 379.7743,-57.9221"/>
</g>
<!-- Node15&#45;&gt;Node12 -->
<g id="edge14" class="edge">
<title>Node15&#45;&gt;Node12</title>
<path fill="none" stroke="#191970" d="M633.8799,-196.4176C661.0099,-179.9646 689.0879,-155.9076 670.5,-134 654.6277,-115.293 508.8077,-97.6016 422.2483,-88.628"/>
<polygon fill="#191970" stroke="#191970" points="632.054,-193.4305 625.1651,-201.4799 635.5701,-199.4834 632.054,-193.4305"/>
</g>
<!-- Node16 -->
<g id="node10" class="node">
<title>Node16</title>
<g id="a_node10"><a xlink:href="geometry_8cpp.html" target="_top" xlink:title="/home/oleg/Dev/riversim\l/source/river/geometry.cpp">
<polygon fill="#ffffff" stroke="#000000" points="528,-134.5 528,-164.5 661,-164.5 661,-134.5 528,-134.5"/>
<text text-anchor="start" x="536" y="-152.5" font-family="Helvetica,sans-Serif" font-size="10.00" fill="#000000">/home/oleg/Dev/riversim</text>
<text text-anchor="middle" x="594.5" y="-141.5" font-family="Helvetica,sans-Serif" font-size="10.00" fill="#000000">/source/river/geometry.cpp</text>
</a>
</g>
</g>
<!-- Node15&#45;&gt;Node16 -->
<g id="edge10" class="edge">
<title>Node15&#45;&gt;Node16</title>
<path fill="none" stroke="#191970" d="M594.5,-191.0249C594.5,-182.128 594.5,-172.4287 594.5,-164.6432"/>
<polygon fill="#191970" stroke="#191970" points="591.0001,-191.2966 594.5,-201.2967 598.0001,-191.2967 591.0001,-191.2966"/>
</g>
<!-- Node15&#45;&gt;Node17 -->
<g id="edge11" class="edge">
<title>Node15&#45;&gt;Node17</title>
<path fill="none" stroke="#191970" d="M645.5759,-198.0023C674.6015,-187.4903 710.4854,-174.4945 737.8013,-164.6017"/>
<polygon fill="#191970" stroke="#191970" points="644.2282,-194.7678 636.0176,-201.4639 646.6118,-201.3495 644.2282,-194.7678"/>
</g>
<!-- Node17&#45;&gt;Node12 -->
<g id="edge13" class="edge">
<title>Node17&#45;&gt;Node12</title>
<path fill="none" stroke="#191970" d="M707.8918,-134.7862C706.4157,-134.5184 704.9504,-134.256 703.5,-134 605.6939,-116.7388 491.6137,-100.4579 422.2503,-90.9853"/>
<polygon fill="#191970" stroke="#191970" points="707.2787,-138.2321 717.7504,-136.6213 708.5598,-131.3503 707.2787,-138.2321"/>
</g>
<!-- Node18 -->
<g id="node12" class="node">
<title>Node18</title>
<g id="a_node12"><a xlink:href="mesh_8cpp.html" target="_top" xlink:title="/home/oleg/Dev/riversim\l/source/river/mesh.cpp">
<polygon fill="#ffffff" stroke="#000000" points="718,-67.5 718,-97.5 841,-97.5 841,-67.5 718,-67.5"/>
<text text-anchor="start" x="726" y="-85.5" font-family="Helvetica,sans-Serif" font-size="10.00" fill="#000000">/home/oleg/Dev/riversim</text>
<text text-anchor="middle" x="779.5" y="-74.5" font-family="Helvetica,sans-Serif" font-size="10.00" fill="#000000">/source/river/mesh.cpp</text>
</a>
</g>
</g>
<!-- Node17&#45;&gt;Node18 -->
<g id="edge12" class="edge">
<title>Node17&#45;&gt;Node18</title>
<path fill="none" stroke="#191970" d="M779.5,-124.0249C779.5,-115.128 779.5,-105.4287 779.5,-97.6432"/>
<polygon fill="#191970" stroke="#191970" points="776.0001,-124.2966 779.5,-134.2967 783.0001,-124.2967 776.0001,-124.2966"/>
</g>
<!-- Node19&#45;&gt;Node12 -->
<g id="edge18" class="edge">
<title>Node19&#45;&gt;Node12</title>
<path fill="none" stroke="#191970" d="M410.5506,-195.7707C398.7123,-187.6066 386.6385,-177.2298 378.5,-165 364.7831,-144.3874 360.4564,-115.2991 359.1026,-97.7365"/>
<polygon fill="#191970" stroke="#191970" points="408.7799,-198.7943 419.0695,-201.3193 412.6003,-192.9287 408.7799,-198.7943"/>
</g>
<!-- Node20 -->
<g id="node14" class="node">
<title>Node20</title>
<g id="a_node14"><a xlink:href="solver_8cpp.html" target="_top" xlink:title="/home/oleg/Dev/riversim\l/source/river/solver.cpp">
<polygon fill="#ffffff" stroke="#000000" points="387,-134.5 387,-164.5 510,-164.5 510,-134.5 387,-134.5"/>
<text text-anchor="start" x="395" y="-152.5" font-family="Helvetica,sans-Serif" font-size="10.00" fill="#000000">/home/oleg/Dev/riversim</text>
<text text-anchor="middle" x="448.5" y="-141.5" font-family="Helvetica,sans-Serif" font-size="10.00" fill="#000000">/source/river/solver.cpp</text>
</a>
</g>
</g>
<!-- Node19&#45;&gt;Node20 -->
<g id="edge19" class="edge">
<title>Node19&#45;&gt;Node20</title>
<path fill="none" stroke="#191970" d="M448.5,-191.0249C448.5,-182.128 448.5,-172.4287 448.5,-164.6432"/>
<polygon fill="#191970" stroke="#191970" points="445.0001,-191.2966 448.5,-201.2967 452.0001,-191.2967 445.0001,-191.2966"/>
</g>
</g>
</svg>
