<?xml version="1.0" encoding="UTF-8" standalone="no"?>
<!DOCTYPE svg PUBLIC "-//W3C//DTD SVG 1.1//EN"
 "http://www.w3.org/Graphics/SVG/1.1/DTD/svg11.dtd">
<!-- Generated by graphviz version 2.40.1 (20161225.0304)
 -->
<!-- Title: /home/oleg/Dev/riversim/source/river/tethex/tethex.hpp Pages: 1 -->
<svg width="385pt" height="95pt"
 viewBox="0.00 0.00 385.00 95.00" xmlns="http://www.w3.org/2000/svg" xmlns:xlink="http://www.w3.org/1999/xlink">
<g id="graph0" class="graph" transform="scale(1 1) rotate(0) translate(4 91)">
<title>/home/oleg/Dev/riversim/source/river/tethex/tethex.hpp</title>
<polygon fill="#ffffff" stroke="transparent" points="-4,4 -4,-91 381,-91 381,4 -4,4"/>
<!-- Node0 -->
<g id="node1" class="node">
<title>Node0</title>
<polygon fill="#bfbfbf" stroke="#000000" points="114.5,-56.5 114.5,-86.5 263.5,-86.5 263.5,-56.5 114.5,-56.5"/>
<text text-anchor="start" x="122.5" y="-74.5" font-family="Helvetica,sans-Serif" font-size="10.00" fill="#000000">/home/oleg/Dev/riversim</text>
<text text-anchor="middle" x="189" y="-63.5" font-family="Helvetica,sans-Serif" font-size="10.00" fill="#000000">/source/river/tethex/tethex.hpp</text>
</g>
<!-- Node1 -->
<g id="node2" class="node">
<title>Node1</title>
<polygon fill="#ffffff" stroke="#bfbfbf" points="0,-.5 0,-19.5 54,-19.5 54,-.5 0,-.5"/>
<text text-anchor="middle" x="27" y="-7.5" font-family="Helvetica,sans-Serif" font-size="10.00" fill="#000000">iostream</text>
</g>
<!-- Node0&#45;&gt;Node1 -->
<g id="edge1" class="edge">
<title>Node0&#45;&gt;Node1</title>
<path fill="none" stroke="#191970" d="M149.3703,-56.4554C122.4588,-46.239 87.2189,-32.8609 61.4706,-23.0861"/>
<polygon fill="#191970" stroke="#191970" points="62.6955,-19.8074 52.1043,-19.5303 60.211,-26.3517 62.6955,-19.8074"/>
</g>
<!-- Node2 -->
<g id="node3" class="node">
<title>Node2</title>
<polygon fill="#ffffff" stroke="#bfbfbf" points="72.5,-.5 72.5,-19.5 107.5,-19.5 107.5,-.5 72.5,-.5"/>
<text text-anchor="middle" x="90" y="-7.5" font-family="Helvetica,sans-Serif" font-size="10.00" fill="#000000">map</text>
</g>
<!-- Node0&#45;&gt;Node2 -->
<g id="edge2" class="edge">
<title>Node0&#45;&gt;Node2</title>
<path fill="none" stroke="#191970" d="M164.7819,-56.4554C149.4227,-46.9141 129.6243,-34.6151 114.2575,-25.0691"/>
<polygon fill="#191970" stroke="#191970" points="115.6828,-21.8341 105.3415,-19.5303 111.989,-27.7802 115.6828,-21.8341"/>
</g>
<!-- Node3 -->
<g id="node4" class="node">
<title>Node3</title>
<polygon fill="#ffffff" stroke="#bfbfbf" points="126,-.5 126,-19.5 178,-19.5 178,-.5 126,-.5"/>
<text text-anchor="middle" x="152" y="-7.5" font-family="Helvetica,sans-Serif" font-size="10.00" fill="#000000">sstream</text>
</g>
<!-- Node0&#45;&gt;Node3 -->
<g id="edge3" class="edge">
<title>Node0&#45;&gt;Node3</title>
<path fill="none" stroke="#191970" d="M179.8539,-56.2977C174.8249,-47.9388 168.5445,-37.4997 163.2209,-28.6509"/>
<polygon fill="#191970" stroke="#191970" points="166.0785,-26.6114 157.9242,-19.8469 160.0803,-30.2201 166.0785,-26.6114"/>
</g>
<!-- Node4 -->
<g id="node5" class="node">
<title>Node4</title>
<polygon fill="#ffffff" stroke="#bfbfbf" points="196.5,-.5 196.5,-19.5 255.5,-19.5 255.5,-.5 196.5,-.5"/>
<text text-anchor="middle" x="226" y="-7.5" font-family="Helvetica,sans-Serif" font-size="10.00" fill="#000000">stdexcept</text>
</g>
<!-- Node0&#45;&gt;Node4 -->
<g id="edge4" class="edge">
<title>Node0&#45;&gt;Node4</title>
<path fill="none" stroke="#191970" d="M198.1461,-56.2977C203.1751,-47.9388 209.4555,-37.4997 214.7791,-28.6509"/>
<polygon fill="#191970" stroke="#191970" points="217.9197,-30.2201 220.0758,-19.8469 211.9215,-26.6114 217.9197,-30.2201"/>
</g>
<!-- Node5 -->
<g id="node6" class="node">
<title>Node5</title>
<polygon fill="#ffffff" stroke="#bfbfbf" points="273.5,-.5 273.5,-19.5 314.5,-19.5 314.5,-.5 273.5,-.5"/>
<text text-anchor="middle" x="294" y="-7.5" font-family="Helvetica,sans-Serif" font-size="10.00" fill="#000000">string</text>
</g>
<!-- Node0&#45;&gt;Node5 -->
<g id="edge5" class="edge">
<title>Node0&#45;&gt;Node5</title>
<path fill="none" stroke="#191970" d="M214.6859,-56.4554C231.1297,-46.8241 252.3708,-34.3828 268.7323,-24.7996"/>
<polygon fill="#191970" stroke="#191970" points="270.8688,-27.6045 277.7287,-19.5303 267.331,-21.5643 270.8688,-27.6045"/>
</g>
<!-- Node6 -->
<g id="node7" class="node">
<title>Node6</title>
<polygon fill="#ffffff" stroke="#bfbfbf" points="333,-.5 333,-19.5 377,-19.5 377,-.5 333,-.5"/>
<text text-anchor="middle" x="355" y="-7.5" font-family="Helvetica,sans-Serif" font-size="10.00" fill="#000000">vector</text>
</g>
<!-- Node0&#45;&gt;Node6 -->
<g id="edge6" class="edge">
<title>Node0&#45;&gt;Node6</title>
<path fill="none" stroke="#191970" d="M229.6082,-56.4554C258.3758,-45.7975 296.4308,-31.6988 323.0424,-21.8397"/>
<polygon fill="#191970" stroke="#191970" points="324.4769,-25.0408 332.6381,-18.2847 322.045,-18.4768 324.4769,-25.0408"/>
</g>
</g>
</svg>
