<?xml version="1.0" encoding="UTF-8" standalone="no"?>
<!DOCTYPE svg PUBLIC "-//W3C//DTD SVG 1.1//EN"
 "http://www.w3.org/Graphics/SVG/1.1/DTD/svg11.dtd">
<!-- Generated by graphviz version 2.40.1 (20161225.0304)
 -->
<!-- Title: /home/oleg/Dev/riversim/source/river/tethex/tethex.hpp Pages: 1 -->
<svg width="743pt" height="307pt"
 viewBox="0.00 0.00 743.00 307.00" xmlns="http://www.w3.org/2000/svg" xmlns:xlink="http://www.w3.org/1999/xlink">
<g id="graph0" class="graph" transform="scale(1 1) rotate(0) translate(4 303)">
<title>/home/oleg/Dev/riversim/source/river/tethex/tethex.hpp</title>
<polygon fill="#ffffff" stroke="transparent" points="-4,4 -4,-303 739,-303 739,4 -4,4"/>
<!-- Node7 -->
<g id="node1" class="node">
<title>Node7</title>
<polygon fill="#bfbfbf" stroke="#000000" points="285,-268.5 285,-298.5 434,-298.5 434,-268.5 285,-268.5"/>
<text text-anchor="start" x="293" y="-286.5" font-family="Helvetica,sans-Serif" font-size="10.00" fill="#000000">/home/oleg/Dev/riversim</text>
<text text-anchor="middle" x="359.5" y="-275.5" font-family="Helvetica,sans-Serif" font-size="10.00" fill="#000000">/source/river/tethex/tethex.hpp</text>
</g>
<!-- Node8 -->
<g id="node2" class="node">
<title>Node8</title>
<g id="a_node2"><a xlink:href="border_8hpp.html" target="_top" xlink:title="Generate initial predefinide border geometry and its source positions. ">
<polygon fill="#ffffff" stroke="#000000" points="144,-201.5 144,-231.5 267,-231.5 267,-201.5 144,-201.5"/>
<text text-anchor="start" x="152" y="-219.5" font-family="Helvetica,sans-Serif" font-size="10.00" fill="#000000">/home/oleg/Dev/riversim</text>
<text text-anchor="middle" x="205.5" y="-208.5" font-family="Helvetica,sans-Serif" font-size="10.00" fill="#000000">/source/river/border.hpp</text>
</a>
</g>
</g>
<!-- Node7&#45;&gt;Node8 -->
<g id="edge1" class="edge">
<title>Node7&#45;&gt;Node8</title>
<path fill="none" stroke="#191970" d="M315.7171,-264.4516C291.7841,-254.0392 262.5545,-241.3224 240.2113,-231.6017"/>
<polygon fill="#191970" stroke="#191970" points="314.3733,-267.6838 324.9394,-268.4639 317.166,-261.265 314.3733,-267.6838"/>
</g>
<!-- Node10 -->
<g id="node4" class="node">
<title>Node10</title>
<g id="a_node4"><a xlink:href="tree_8hpp.html" target="_top" xlink:title="Holds all functionality that you need to work with tree of river, its separate branches and generatio...">
<polygon fill="#ffffff" stroke="#000000" points="0,-134.5 0,-164.5 123,-164.5 123,-134.5 0,-134.5"/>
<text text-anchor="start" x="8" y="-152.5" font-family="Helvetica,sans-Serif" font-size="10.00" fill="#000000">/home/oleg/Dev/riversim</text>
<text text-anchor="middle" x="61.5" y="-141.5" font-family="Helvetica,sans-Serif" font-size="10.00" fill="#000000">/source/river/tree.hpp</text>
</a>
</g>
</g>
<!-- Node7&#45;&gt;Node10 -->
<g id="edge12" class="edge">
<title>Node7&#45;&gt;Node10</title>
<path fill="none" stroke="#191970" d="M274.94,-269.6897C221.5075,-259.9126 158.2215,-246.0815 134.5,-232 106.049,-215.1109 82.7136,-183.3724 70.5728,-164.5672"/>
<polygon fill="#191970" stroke="#191970" points="274.328,-273.1357 284.7906,-271.4673 275.5711,-266.247 274.328,-273.1357"/>
</g>
<!-- Node15 -->
<g id="node9" class="node">
<title>Node15</title>
<g id="a_node9"><a xlink:href="mesh_8hpp.html" target="_top" xlink:title="Wrappers classes to Triangle and Gmsh. ">
<polygon fill="#ffffff" stroke="#000000" points="298,-201.5 298,-231.5 421,-231.5 421,-201.5 298,-201.5"/>
<text text-anchor="start" x="306" y="-219.5" font-family="Helvetica,sans-Serif" font-size="10.00" fill="#000000">/home/oleg/Dev/riversim</text>
<text text-anchor="middle" x="359.5" y="-208.5" font-family="Helvetica,sans-Serif" font-size="10.00" fill="#000000">/source/river/mesh.hpp</text>
</a>
</g>
</g>
<!-- Node7&#45;&gt;Node15 -->
<g id="edge9" class="edge">
<title>Node7&#45;&gt;Node15</title>
<path fill="none" stroke="#191970" d="M359.5,-258.0249C359.5,-249.128 359.5,-239.4287 359.5,-231.6432"/>
<polygon fill="#191970" stroke="#191970" points="356.0001,-258.2966 359.5,-268.2967 363.0001,-258.2967 356.0001,-258.2966"/>
</g>
<!-- Node17 -->
<g id="node11" class="node">
<title>Node17</title>
<g id="a_node11"><a xlink:href="solver_8hpp.html" target="_top" xlink:title="PDE Solver and Integration tool. ">
<polygon fill="#ffffff" stroke="#000000" points="445,-201.5 445,-231.5 568,-231.5 568,-201.5 445,-201.5"/>
<text text-anchor="start" x="453" y="-219.5" font-family="Helvetica,sans-Serif" font-size="10.00" fill="#000000">/home/oleg/Dev/riversim</text>
<text text-anchor="middle" x="506.5" y="-208.5" font-family="Helvetica,sans-Serif" font-size="10.00" fill="#000000">/source/river/solver.hpp</text>
</a>
</g>
</g>
<!-- Node7&#45;&gt;Node17 -->
<g id="edge13" class="edge">
<title>Node7&#45;&gt;Node17</title>
<path fill="none" stroke="#191970" d="M401.5964,-264.3132C424.3847,-253.9267 452.1333,-241.2794 473.3664,-231.6017"/>
<polygon fill="#191970" stroke="#191970" points="400.1375,-261.1317 392.4897,-268.4639 403.0407,-267.5013 400.1375,-261.1317"/>
</g>
<!-- Node19 -->
<g id="node13" class="node">
<title>Node19</title>
<g id="a_node13"><a xlink:href="tethex_8cpp.html" target="_top" xlink:title="/home/oleg/Dev/riversim\l/source/river/tethex/tethex.cpp">
<polygon fill="#ffffff" stroke="#000000" points="586,-201.5 586,-231.5 735,-231.5 735,-201.5 586,-201.5"/>
<text text-anchor="start" x="594" y="-219.5" font-family="Helvetica,sans-Serif" font-size="10.00" fill="#000000">/home/oleg/Dev/riversim</text>
<text text-anchor="middle" x="660.5" y="-208.5" font-family="Helvetica,sans-Serif" font-size="10.00" fill="#000000">/source/river/tethex/tethex.cpp</text>
</a>
</g>
</g>
<!-- Node7&#45;&gt;Node19 -->
<g id="edge16" class="edge">
<title>Node7&#45;&gt;Node19</title>
<path fill="none" stroke="#191970" d="M436.8263,-266.2878C485.0856,-255.5457 546.6116,-241.8506 592.9153,-231.5438"/>
<polygon fill="#191970" stroke="#191970" points="436.0509,-262.8747 427.0503,-268.4639 437.5719,-269.7075 436.0509,-262.8747"/>
</g>
<!-- Node9 -->
<g id="node3" class="node">
<title>Node9</title>
<g id="a_node3"><a xlink:href="border_8cpp.html" target="_top" xlink:title="/home/oleg/Dev/riversim\l/source/river/border.cpp">
<polygon fill="#ffffff" stroke="#000000" points="141,-134.5 141,-164.5 264,-164.5 264,-134.5 141,-134.5"/>
<text text-anchor="start" x="149" y="-152.5" font-family="Helvetica,sans-Serif" font-size="10.00" fill="#000000">/home/oleg/Dev/riversim</text>
<text text-anchor="middle" x="202.5" y="-141.5" font-family="Helvetica,sans-Serif" font-size="10.00" fill="#000000">/source/river/border.cpp</text>
</a>
</g>
</g>
<!-- Node8&#45;&gt;Node9 -->
<g id="edge2" class="edge">
<title>Node8&#45;&gt;Node9</title>
<path fill="none" stroke="#191970" d="M204.3593,-191.0249C203.961,-182.128 203.5267,-172.4287 203.1781,-164.6432"/>
<polygon fill="#191970" stroke="#191970" points="200.8754,-191.4633 204.8193,-201.2967 207.8683,-191.1501 200.8754,-191.4633"/>
</g>
<!-- Node8&#45;&gt;Node10 -->
<g id="edge3" class="edge">
<title>Node8&#45;&gt;Node10</title>
<path fill="none" stroke="#191970" d="M163.9983,-197.1902C141.8144,-186.8685 114.8919,-174.3421 94.2068,-164.7177"/>
<polygon fill="#191970" stroke="#191970" points="162.6404,-200.4187 173.1836,-201.4639 165.5934,-194.072 162.6404,-200.4187"/>
</g>
<!-- Node11 -->
<g id="node5" class="node">
<title>Node11</title>
<g id="a_node5"><a xlink:href="riversim_8hpp.html" target="_top" xlink:title="Rivers Simulation. ">
<polygon fill="#ffffff" stroke="#000000" points="248,-67.5 248,-97.5 375,-97.5 375,-67.5 248,-67.5"/>
<text text-anchor="start" x="256" y="-85.5" font-family="Helvetica,sans-Serif" font-size="10.00" fill="#000000">/home/oleg/Dev/riversim</text>
<text text-anchor="middle" x="311.5" y="-74.5" font-family="Helvetica,sans-Serif" font-size="10.00" fill="#000000">/source/river/riversim.hpp</text>
</a>
</g>
</g>
<!-- Node8&#45;&gt;Node11 -->
<g id="edge8" class="edge">
<title>Node8&#45;&gt;Node11</title>
<path fill="none" stroke="#191970" d="M238.8027,-195.7083C250.5152,-187.2324 263.0895,-176.6722 272.5,-165 289.2053,-144.2797 300.7808,-115.225 306.765,-97.6983"/>
<polygon fill="#191970" stroke="#191970" points="236.6926,-192.9127 230.4841,-201.4979 240.6913,-198.6582 236.6926,-192.9127"/>
</g>
<!-- Node10&#45;&gt;Node11 -->
<g id="edge4" class="edge">
<title>Node10&#45;&gt;Node11</title>
<path fill="none" stroke="#191970" d="M127.4711,-131.8198C167.2074,-121.1704 217.2741,-107.7525 255.1504,-97.6017"/>
<polygon fill="#191970" stroke="#191970" points="126.358,-128.4945 117.6049,-134.4639 128.1701,-135.2559 126.358,-128.4945"/>
</g>
<!-- Node14 -->
<g id="node8" class="node">
<title>Node14</title>
<g id="a_node8"><a xlink:href="tree_8cpp.html" target="_top" xlink:title="/home/oleg/Dev/riversim\l/source/river/tree.cpp">
<polygon fill="#ffffff" stroke="#000000" points="0,-67.5 0,-97.5 123,-97.5 123,-67.5 0,-67.5"/>
<text text-anchor="start" x="8" y="-85.5" font-family="Helvetica,sans-Serif" font-size="10.00" fill="#000000">/home/oleg/Dev/riversim</text>
<text text-anchor="middle" x="61.5" y="-74.5" font-family="Helvetica,sans-Serif" font-size="10.00" fill="#000000">/source/river/tree.cpp</text>
</a>
</g>
</g>
<!-- Node10&#45;&gt;Node14 -->
<g id="edge7" class="edge">
<title>Node10&#45;&gt;Node14</title>
<path fill="none" stroke="#191970" d="M61.5,-124.0249C61.5,-115.128 61.5,-105.4287 61.5,-97.6432"/>
<polygon fill="#191970" stroke="#191970" points="58.0001,-124.2966 61.5,-134.2967 65.0001,-124.2967 58.0001,-124.2966"/>
</g>
<!-- Node12 -->
<g id="node6" class="node">
<title>Node12</title>
<g id="a_node6"><a xlink:href="main_8cpp.html" target="_top" xlink:title="Entry point of program and main loop handler. ">
<polygon fill="#ffffff" stroke="#000000" points="179,-.5 179,-30.5 302,-30.5 302,-.5 179,-.5"/>
<text text-anchor="start" x="187" y="-18.5" font-family="Helvetica,sans-Serif" font-size="10.00" fill="#000000">/home/oleg/Dev/riversim</text>
<text text-anchor="middle" x="240.5" y="-7.5" font-family="Helvetica,sans-Serif" font-size="10.00" fill="#000000">/source/main.cpp</text>
</a>
</g>
</g>
<!-- Node11&#45;&gt;Node12 -->
<g id="edge5" class="edge">
<title>Node11&#45;&gt;Node12</title>
<path fill="none" stroke="#191970" d="M287.8806,-60.2113C277.5905,-50.5009 265.7949,-39.3698 256.5472,-30.6432"/>
<polygon fill="#191970" stroke="#191970" points="285.7139,-62.979 295.389,-67.2967 290.5181,-57.8879 285.7139,-62.979"/>
</g>
<!-- Node13 -->
<g id="node7" class="node">
<title>Node13</title>
<g id="a_node7"><a xlink:href="riversim_8cpp.html" target="_top" xlink:title="/home/oleg/Dev/riversim\l/source/river/riversim.cpp">
<polygon fill="#ffffff" stroke="#000000" points="320,-.5 320,-30.5 447,-30.5 447,-.5 320,-.5"/>
<text text-anchor="start" x="328" y="-18.5" font-family="Helvetica,sans-Serif" font-size="10.00" fill="#000000">/home/oleg/Dev/riversim</text>
<text text-anchor="middle" x="383.5" y="-7.5" font-family="Helvetica,sans-Serif" font-size="10.00" fill="#000000">/source/river/riversim.cpp</text>
</a>
</g>
</g>
<!-- Node11&#45;&gt;Node13 -->
<g id="edge6" class="edge">
<title>Node11&#45;&gt;Node13</title>
<path fill="none" stroke="#191970" d="M335.452,-60.2113C345.8871,-50.5009 357.8488,-39.3698 367.2267,-30.6432"/>
<polygon fill="#191970" stroke="#191970" points="332.7743,-57.9221 327.8379,-67.2967 337.5429,-63.0466 332.7743,-57.9221"/>
</g>
<!-- Node15&#45;&gt;Node11 -->
<g id="edge11" class="edge">
<title>Node15&#45;&gt;Node11</title>
<path fill="none" stroke="#191970" d="M350.6186,-191.706C340.7643,-164.1962 325.1737,-120.6723 316.9668,-97.7614"/>
<polygon fill="#191970" stroke="#191970" points="347.4198,-193.155 354.0871,-201.389 354.0098,-190.7944 347.4198,-193.155"/>
</g>
<!-- Node16 -->
<g id="node10" class="node">
<title>Node16</title>
<g id="a_node10"><a xlink:href="mesh_8cpp.html" target="_top" xlink:title="/home/oleg/Dev/riversim\l/source/river/mesh.cpp">
<polygon fill="#ffffff" stroke="#000000" points="359,-134.5 359,-164.5 482,-164.5 482,-134.5 359,-134.5"/>
<text text-anchor="start" x="367" y="-152.5" font-family="Helvetica,sans-Serif" font-size="10.00" fill="#000000">/home/oleg/Dev/riversim</text>
<text text-anchor="middle" x="420.5" y="-141.5" font-family="Helvetica,sans-Serif" font-size="10.00" fill="#000000">/source/river/mesh.cpp</text>
</a>
</g>
</g>
<!-- Node15&#45;&gt;Node16 -->
<g id="edge10" class="edge">
<title>Node15&#45;&gt;Node16</title>
<path fill="none" stroke="#191970" d="M380.3142,-193.6385C389.0301,-184.0653 398.9235,-173.1987 406.7129,-164.6432"/>
<polygon fill="#191970" stroke="#191970" points="377.486,-191.5459 373.3418,-201.2967 382.6621,-196.2585 377.486,-191.5459"/>
</g>
<!-- Node17&#45;&gt;Node11 -->
<g id="edge14" class="edge">
<title>Node17&#45;&gt;Node11</title>
<path fill="none" stroke="#191970" d="M508.4815,-191.2113C508.4869,-173.1217 505.4047,-149.3513 491.5,-134 475.7346,-116.5944 420.4176,-102.4298 375.2219,-93.393"/>
<polygon fill="#191970" stroke="#191970" points="504.9786,-191.2518 508.1643,-201.3564 511.9752,-191.4707 504.9786,-191.2518"/>
</g>
<!-- Node18 -->
<g id="node12" class="node">
<title>Node18</title>
<g id="a_node12"><a xlink:href="solver_8cpp.html" target="_top" xlink:title="/home/oleg/Dev/riversim\l/source/river/solver.cpp">
<polygon fill="#ffffff" stroke="#000000" points="539,-134.5 539,-164.5 662,-164.5 662,-134.5 539,-134.5"/>
<text text-anchor="start" x="547" y="-152.5" font-family="Helvetica,sans-Serif" font-size="10.00" fill="#000000">/home/oleg/Dev/riversim</text>
<text text-anchor="middle" x="600.5" y="-141.5" font-family="Helvetica,sans-Serif" font-size="10.00" fill="#000000">/source/river/solver.cpp</text>
</a>
</g>
</g>
<!-- Node17&#45;&gt;Node18 -->
<g id="edge15" class="edge">
<title>Node17&#45;&gt;Node18</title>
<path fill="none" stroke="#191970" d="M536.1775,-195.3469C550.1643,-185.3776 566.5308,-173.7121 579.2544,-164.6432"/>
<polygon fill="#191970" stroke="#191970" points="533.9418,-192.6423 527.8301,-201.2967 538.0047,-198.3426 533.9418,-192.6423"/>
</g>
</g>
</svg>
