<?xml version="1.0" encoding="UTF-8" standalone="no"?>
<!DOCTYPE svg PUBLIC "-//W3C//DTD SVG 1.1//EN"
 "http://www.w3.org/Graphics/SVG/1.1/DTD/svg11.dtd">
<!-- Generated by graphviz version 2.40.1 (20161225.0304)
 -->
<!-- Title: /home/oleg/Dev/riversim/source/river/tree.hpp Pages: 1 -->
<svg width="787pt" height="207pt"
 viewBox="0.00 0.00 787.02 207.00" xmlns="http://www.w3.org/2000/svg" xmlns:xlink="http://www.w3.org/1999/xlink">
<g id="graph0" class="graph" transform="scale(1 1) rotate(0) translate(4 203)">
<title>/home/oleg/Dev/riversim/source/river/tree.hpp</title>
<polygon fill="#ffffff" stroke="transparent" points="-4,4 -4,-203 783.0168,-203 783.0168,4 -4,4"/>
<!-- Node0 -->
<g id="node1" class="node">
<title>Node0</title>
<polygon fill="#bfbfbf" stroke="#000000" points="150.5168,-168.5 150.5168,-198.5 273.5168,-198.5 273.5168,-168.5 150.5168,-168.5"/>
<text text-anchor="start" x="158.5168" y="-186.5" font-family="Helvetica,sans-Serif" font-size="10.00" fill="#000000">/home/oleg/Dev/riversim</text>
<text text-anchor="middle" x="212.0168" y="-175.5" font-family="Helvetica,sans-Serif" font-size="10.00" fill="#000000">/source/river/tree.hpp</text>
</g>
<!-- Node1 -->
<g id="node2" class="node">
<title>Node1</title>
<polygon fill="#ffffff" stroke="#bfbfbf" points="398.0168,-.5 398.0168,-19.5 452.0168,-19.5 452.0168,-.5 398.0168,-.5"/>
<text text-anchor="middle" x="425.0168" y="-7.5" font-family="Helvetica,sans-Serif" font-size="10.00" fill="#000000">iostream</text>
</g>
<!-- Node0&#45;&gt;Node1 -->
<g id="edge1" class="edge">
<title>Node0&#45;&gt;Node1</title>
<path fill="none" stroke="#191970" d="M273.5201,-173.112C327.5229,-160.3848 402.9294,-133.0192 439.0168,-76 447.9892,-61.8233 442.5386,-42.8492 435.9958,-28.8842"/>
<polygon fill="#191970" stroke="#191970" points="438.9556,-26.9903 431.2292,-19.741 432.7484,-30.2263 438.9556,-26.9903"/>
</g>
<!-- Node2 -->
<g id="node3" class="node">
<title>Node2</title>
<polygon fill="#ffffff" stroke="#bfbfbf" points="80.0168,-.5 80.0168,-19.5 124.0168,-19.5 124.0168,-.5 80.0168,-.5"/>
<text text-anchor="middle" x="102.0168" y="-7.5" font-family="Helvetica,sans-Serif" font-size="10.00" fill="#000000">vector</text>
</g>
<!-- Node0&#45;&gt;Node2 -->
<g id="edge2" class="edge">
<title>Node0&#45;&gt;Node2</title>
<path fill="none" stroke="#191970" d="M150.3919,-175.9813C115.0111,-169.1712 71.3351,-156.284 39.0168,-132 15.3622,-114.2259 11.3547,-104.389 3.0168,-76 .5119,-67.4713 -1.7643,-63.4936 3.0168,-56 17.6029,-33.1388 46.8116,-21.4627 69.7402,-15.6102"/>
<polygon fill="#191970" stroke="#191970" points="70.7939,-18.9595 79.7579,-13.3118 69.2284,-12.1368 70.7939,-18.9595"/>
</g>
<!-- Node3 -->
<g id="node4" class="node">
<title>Node3</title>
<polygon fill="#ffffff" stroke="#bfbfbf" points="19.5168,-56.5 19.5168,-75.5 54.5168,-75.5 54.5168,-56.5 19.5168,-56.5"/>
<text text-anchor="middle" x="37.0168" y="-63.5" font-family="Helvetica,sans-Serif" font-size="10.00" fill="#000000">map</text>
</g>
<!-- Node0&#45;&gt;Node3 -->
<g id="edge3" class="edge">
<title>Node0&#45;&gt;Node3</title>
<path fill="none" stroke="#191970" d="M150.1041,-169.8009C111.8431,-160.1438 67.5442,-146.4076 54.0168,-132 42.3996,-119.627 38.4638,-100.3993 37.2486,-85.8826"/>
<polygon fill="#191970" stroke="#191970" points="40.7445,-85.7116 36.7675,-75.8915 33.7526,-86.0483 40.7445,-85.7116"/>
</g>
<!-- Node4 -->
<g id="node5" class="node">
<title>Node4</title>
<polygon fill="#ffffff" stroke="#bfbfbf" points="486.0168,-56.5 486.0168,-75.5 542.0168,-75.5 542.0168,-56.5 486.0168,-56.5"/>
<text text-anchor="middle" x="514.0168" y="-63.5" font-family="Helvetica,sans-Serif" font-size="10.00" fill="#000000">algorithm</text>
</g>
<!-- Node0&#45;&gt;Node4 -->
<g id="edge4" class="edge">
<title>Node0&#45;&gt;Node4</title>
<path fill="none" stroke="#191970" d="M273.5383,-176.9465C339.9245,-168.905 440.3955,-153.6243 472.0168,-132 488.5949,-120.663 500.0347,-100.4015 506.7407,-85.3085"/>
<polygon fill="#191970" stroke="#191970" points="510.0608,-86.4378 510.6321,-75.8584 503.5881,-83.7724 510.0608,-86.4378"/>
</g>
<!-- Node5 -->
<g id="node6" class="node">
<title>Node5</title>
<polygon fill="#ffffff" stroke="#bfbfbf" points="72.5168,-56.5 72.5168,-75.5 113.5168,-75.5 113.5168,-56.5 72.5168,-56.5"/>
<text text-anchor="middle" x="93.0168" y="-63.5" font-family="Helvetica,sans-Serif" font-size="10.00" fill="#000000">string</text>
</g>
<!-- Node0&#45;&gt;Node5 -->
<g id="edge5" class="edge">
<title>Node0&#45;&gt;Node5</title>
<path fill="none" stroke="#191970" d="M196.4596,-168.1389C174.1426,-146.1032 133.1907,-105.6675 110.0721,-82.8403"/>
<polygon fill="#191970" stroke="#191970" points="112.2732,-80.0951 102.6983,-75.5595 107.355,-85.0761 112.2732,-80.0951"/>
</g>
<!-- Node6 -->
<g id="node7" class="node">
<title>Node6</title>
<g id="a_node7"><a xlink:href="common_8hpp.html" target="_top" xlink:title="Common geometric entities to whole program. ">
<polygon fill="#ffffff" stroke="#000000" points="356.5168,-56.5 356.5168,-75.5 429.5168,-75.5 429.5168,-56.5 356.5168,-56.5"/>
<text text-anchor="middle" x="393.0168" y="-63.5" font-family="Helvetica,sans-Serif" font-size="10.00" fill="#000000">common.hpp</text>
</a>
</g>
</g>
<!-- Node0&#45;&gt;Node6 -->
<g id="edge6" class="edge">
<title>Node0&#45;&gt;Node6</title>
<path fill="none" stroke="#191970" d="M235.3088,-168.3795C270.0169,-145.848 334.9388,-103.7026 369.6754,-81.1525"/>
<polygon fill="#191970" stroke="#191970" points="371.7397,-83.9853 378.2216,-75.6046 367.9282,-78.114 371.7397,-83.9853"/>
</g>
<!-- Node7 -->
<g id="node8" class="node">
<title>Node7</title>
<g id="a_node8"><a xlink:href="tethex_8hpp.html" target="_top" xlink:title="tethex &#45; tetrahedra to hexahedra conversion Copyright (c) 2013 Mikhail Artemyev Report issues: github...">
<polygon fill="#ffffff" stroke="#000000" points="181.0168,-112.5 181.0168,-131.5 243.0168,-131.5 243.0168,-112.5 181.0168,-112.5"/>
<text text-anchor="middle" x="212.0168" y="-119.5" font-family="Helvetica,sans-Serif" font-size="10.00" fill="#000000">tethex.hpp</text>
</a>
</g>
</g>
<!-- Node0&#45;&gt;Node7 -->
<g id="edge9" class="edge">
<title>Node0&#45;&gt;Node7</title>
<path fill="none" stroke="#191970" d="M212.0168,-168.2977C212.0168,-160.3834 212.0168,-150.6043 212.0168,-142.0759"/>
<polygon fill="#191970" stroke="#191970" points="215.5169,-141.8469 212.0168,-131.8469 208.5169,-141.847 215.5169,-141.8469"/>
</g>
<!-- Node10 -->
<g id="node11" class="node">
<title>Node10</title>
<g id="a_node11"><a xlink:href="physmodel_8hpp.html" target="_top" xlink:title="Physical model incapsulation. ">
<polygon fill="#ffffff" stroke="#000000" points="545.5168,-112.5 545.5168,-131.5 628.5168,-131.5 628.5168,-112.5 545.5168,-112.5"/>
<text text-anchor="middle" x="587.0168" y="-119.5" font-family="Helvetica,sans-Serif" font-size="10.00" fill="#000000">physmodel.hpp</text>
</a>
</g>
</g>
<!-- Node0&#45;&gt;Node10 -->
<g id="edge16" class="edge">
<title>Node0&#45;&gt;Node10</title>
<path fill="none" stroke="#191970" d="M273.5205,-173.4134C346.4498,-161.453 466.7117,-141.73 535.1405,-130.5077"/>
<polygon fill="#191970" stroke="#191970" points="535.954,-133.9211 545.2557,-128.8488 534.821,-127.0134 535.954,-133.9211"/>
</g>
<!-- Node14 -->
<g id="node15" class="node">
<title>Node14</title>
<g id="a_node15"><a xlink:href="border_8hpp.html" target="_top" xlink:title="Generate initial predefinide border geometry and its source positions. ">
<polygon fill="#ffffff" stroke="#000000" points="63.0168,-112.5 63.0168,-131.5 125.0168,-131.5 125.0168,-112.5 63.0168,-112.5"/>
<text text-anchor="middle" x="94.0168" y="-119.5" font-family="Helvetica,sans-Serif" font-size="10.00" fill="#000000">border.hpp</text>
</a>
</g>
</g>
<!-- Node0&#45;&gt;Node14 -->
<g id="edge23" class="edge">
<title>Node0&#45;&gt;Node14</title>
<path fill="none" stroke="#191970" d="M183.1507,-168.4554C164.3257,-158.644 139.9058,-145.9167 121.3876,-136.2653"/>
<polygon fill="#191970" stroke="#191970" points="122.7881,-133.0484 112.3026,-131.5303 119.5528,-139.2559 122.7881,-133.0484"/>
</g>
<!-- Node6&#45;&gt;Node1 -->
<g id="edge8" class="edge">
<title>Node6&#45;&gt;Node1</title>
<path fill="none" stroke="#191970" d="M398.5908,-56.2455C402.9499,-48.617 409.1378,-37.7881 414.4301,-28.5267"/>
<polygon fill="#191970" stroke="#191970" points="417.5841,-30.0616 419.5067,-19.6427 411.5064,-26.5886 417.5841,-30.0616"/>
</g>
<!-- Node6&#45;&gt;Node2 -->
<g id="edge7" class="edge">
<title>Node6&#45;&gt;Node2</title>
<path fill="none" stroke="#191970" d="M356.4561,-58.9643C299.0694,-47.9208 188.7802,-26.6967 134.2149,-16.1962"/>
<polygon fill="#191970" stroke="#191970" points="134.5582,-12.6981 124.077,-14.2453 133.2354,-19.572 134.5582,-12.6981"/>
</g>
<!-- Node7&#45;&gt;Node1 -->
<g id="edge10" class="edge">
<title>Node7&#45;&gt;Node1</title>
<path fill="none" stroke="#191970" d="M233.4334,-112.3995C253.2387,-103.3906 283.3932,-89.3416 309.0168,-76 340.988,-59.3533 376.9387,-38.5661 400.2261,-24.8179"/>
<polygon fill="#191970" stroke="#191970" points="402.2694,-27.6754 409.0869,-19.5654 398.6999,-21.6539 402.2694,-27.6754"/>
</g>
<!-- Node7&#45;&gt;Node2 -->
<g id="edge15" class="edge">
<title>Node7&#45;&gt;Node2</title>
<path fill="none" stroke="#191970" d="M211.6063,-112.3742C210.5368,-98.4453 206.7039,-72.532 193.0168,-56 177.8545,-37.6862 153.554,-25.9273 133.8774,-18.8862"/>
<polygon fill="#191970" stroke="#191970" points="134.9603,-15.5579 124.3666,-15.7126 132.7445,-22.198 134.9603,-15.5579"/>
</g>
<!-- Node7&#45;&gt;Node3 -->
<g id="edge11" class="edge">
<title>Node7&#45;&gt;Node3</title>
<path fill="none" stroke="#191970" d="M180.9991,-113.0905C152.7318,-104.825 109.6425,-91.8625 64.2877,-76.2997"/>
<polygon fill="#191970" stroke="#191970" points="65.1743,-72.9029 54.5796,-72.94 62.885,-79.518 65.1743,-72.9029"/>
</g>
<!-- Node7&#45;&gt;Node5 -->
<g id="edge14" class="edge">
<title>Node7&#45;&gt;Node5</title>
<path fill="none" stroke="#191970" d="M191.5599,-112.3733C172.543,-103.4241 143.9992,-89.9917 122.5192,-79.8835"/>
<polygon fill="#191970" stroke="#191970" points="123.7452,-76.5923 113.2067,-75.5011 120.7645,-82.926 123.7452,-76.5923"/>
</g>
<!-- Node8 -->
<g id="node9" class="node">
<title>Node8</title>
<polygon fill="#ffffff" stroke="#bfbfbf" points="132.0168,-56.5 132.0168,-75.5 184.0168,-75.5 184.0168,-56.5 132.0168,-56.5"/>
<text text-anchor="middle" x="158.0168" y="-63.5" font-family="Helvetica,sans-Serif" font-size="10.00" fill="#000000">sstream</text>
</g>
<!-- Node7&#45;&gt;Node8 -->
<g id="edge12" class="edge">
<title>Node7&#45;&gt;Node8</title>
<path fill="none" stroke="#191970" d="M202.6107,-112.2455C194.8675,-104.2155 183.7048,-92.6394 174.485,-83.0781"/>
<polygon fill="#191970" stroke="#191970" points="176.7759,-80.4117 167.3151,-75.6427 171.737,-85.2706 176.7759,-80.4117"/>
</g>
<!-- Node9 -->
<g id="node10" class="node">
<title>Node9</title>
<polygon fill="#ffffff" stroke="#bfbfbf" points="240.5168,-56.5 240.5168,-75.5 299.5168,-75.5 299.5168,-56.5 240.5168,-56.5"/>
<text text-anchor="middle" x="270.0168" y="-63.5" font-family="Helvetica,sans-Serif" font-size="10.00" fill="#000000">stdexcept</text>
</g>
<!-- Node7&#45;&gt;Node9 -->
<g id="edge13" class="edge">
<title>Node7&#45;&gt;Node9</title>
<path fill="none" stroke="#191970" d="M222.1196,-112.2455C230.5196,-104.1352 242.6661,-92.4075 252.6252,-82.7919"/>
<polygon fill="#191970" stroke="#191970" points="255.2668,-85.1066 260.0297,-75.6427 250.4046,-80.0707 255.2668,-85.1066"/>
</g>
<!-- Node10&#45;&gt;Node1 -->
<g id="edge17" class="edge">
<title>Node10&#45;&gt;Node1</title>
<path fill="none" stroke="#191970" d="M626.3573,-112.4475C663.3164,-101.629 709.9141,-82.0597 688.0168,-56 659.6285,-22.2155 527.9851,-13.2399 462.3824,-10.8583"/>
<polygon fill="#191970" stroke="#191970" points="462.1791,-7.3498 452.0693,-10.5188 461.9486,-14.346 462.1791,-7.3498"/>
</g>
<!-- Node10&#45;&gt;Node4 -->
<g id="edge21" class="edge">
<title>Node10&#45;&gt;Node4</title>
<path fill="none" stroke="#191970" d="M574.3011,-112.2455C563.4147,-103.8943 547.5285,-91.7076 534.7968,-81.9408"/>
<polygon fill="#191970" stroke="#191970" points="536.6513,-78.9523 526.5867,-75.6427 532.3907,-84.5063 536.6513,-78.9523"/>
</g>
<!-- Node10&#45;&gt;Node6 -->
<g id="edge22" class="edge">
<title>Node10&#45;&gt;Node6</title>
<path fill="none" stroke="#191970" d="M553.667,-112.3733C520.9888,-102.9404 471.055,-88.5265 435.5398,-78.2747"/>
<polygon fill="#191970" stroke="#191970" points="436.5098,-74.9119 425.9314,-75.5011 434.5684,-81.6373 436.5098,-74.9119"/>
</g>
<!-- Node11 -->
<g id="node12" class="node">
<title>Node11</title>
<polygon fill="#ffffff" stroke="#bfbfbf" points="735.0168,-56.5 735.0168,-75.5 779.0168,-75.5 779.0168,-56.5 735.0168,-56.5"/>
<text text-anchor="middle" x="757.0168" y="-63.5" font-family="Helvetica,sans-Serif" font-size="10.00" fill="#000000">cmath</text>
</g>
<!-- Node10&#45;&gt;Node11 -->
<g id="edge18" class="edge">
<title>Node10&#45;&gt;Node11</title>
<path fill="none" stroke="#191970" d="M616.2408,-112.3733C646.6508,-102.3559 694.1136,-86.721 725.3876,-76.419"/>
<polygon fill="#191970" stroke="#191970" points="726.5276,-79.7286 734.9305,-73.2755 724.3375,-73.08 726.5276,-79.7286"/>
</g>
<!-- Node12 -->
<g id="node13" class="node">
<title>Node12</title>
<polygon fill="#ffffff" stroke="#bfbfbf" points="560.5168,-56.5 560.5168,-75.5 613.5168,-75.5 613.5168,-56.5 560.5168,-56.5"/>
<text text-anchor="middle" x="587.0168" y="-63.5" font-family="Helvetica,sans-Serif" font-size="10.00" fill="#000000">complex</text>
</g>
<!-- Node10&#45;&gt;Node12 -->
<g id="edge19" class="edge">
<title>Node10&#45;&gt;Node12</title>
<path fill="none" stroke="#191970" d="M587.0168,-112.2455C587.0168,-104.9382 587.0168,-94.6944 587.0168,-85.7046"/>
<polygon fill="#191970" stroke="#191970" points="590.5169,-85.6426 587.0168,-75.6427 583.5169,-85.6427 590.5169,-85.6426"/>
</g>
<!-- Node13 -->
<g id="node14" class="node">
<title>Node13</title>
<polygon fill="#ffffff" stroke="#bfbfbf" points="631.5168,-56.5 631.5168,-75.5 678.5168,-75.5 678.5168,-56.5 631.5168,-56.5"/>
<text text-anchor="middle" x="655.0168" y="-63.5" font-family="Helvetica,sans-Serif" font-size="10.00" fill="#000000">math.h</text>
</g>
<!-- Node10&#45;&gt;Node13 -->
<g id="edge20" class="edge">
<title>Node10&#45;&gt;Node13</title>
<path fill="none" stroke="#191970" d="M598.8615,-112.2455C608.9047,-103.9746 623.5162,-91.9416 635.3172,-82.2232"/>
<polygon fill="#191970" stroke="#191970" points="637.8135,-84.7015 643.3078,-75.6427 633.3635,-79.298 637.8135,-84.7015"/>
</g>
<!-- Node14&#45;&gt;Node2 -->
<g id="edge24" class="edge">
<title>Node14&#45;&gt;Node2</title>
<path fill="none" stroke="#191970" d="M62.7974,-112.4796C32.76,-101.5621 -5.9251,-81.7945 10.0168,-56 23.0063,-34.9825 48.8286,-23.2468 69.818,-16.8991"/>
<polygon fill="#191970" stroke="#191970" points="70.9393,-20.2208 79.6562,-14.1987 69.0864,-13.4705 70.9393,-20.2208"/>
</g>
<!-- Node14&#45;&gt;Node3 -->
<g id="edge26" class="edge">
<title>Node14&#45;&gt;Node3</title>
<path fill="none" stroke="#191970" d="M84.0881,-112.2455C75.833,-104.1352 63.8959,-92.4075 54.1085,-82.7919"/>
<polygon fill="#191970" stroke="#191970" points="56.4179,-80.1542 46.8316,-75.6427 51.5121,-85.1476 56.4179,-80.1542"/>
</g>
<!-- Node14&#45;&gt;Node5 -->
<g id="edge25" class="edge">
<title>Node14&#45;&gt;Node5</title>
<path fill="none" stroke="#191970" d="M93.8426,-112.2455C93.7121,-104.9382 93.5292,-94.6944 93.3686,-85.7046"/>
<polygon fill="#191970" stroke="#191970" points="96.8671,-85.5786 93.189,-75.6427 89.8682,-85.7036 96.8671,-85.5786"/>
</g>
<!-- Node14&#45;&gt;Node6 -->
<g id="edge27" class="edge">
<title>Node14&#45;&gt;Node6</title>
<path fill="none" stroke="#191970" d="M125.1689,-116.1655C177.8758,-106.294 284.9074,-86.2479 346.5195,-74.7085"/>
<polygon fill="#191970" stroke="#191970" points="347.1851,-78.1448 356.3699,-72.8636 345.8964,-71.2644 347.1851,-78.1448"/>
</g>
</g>
</svg>
