<?xml version="1.0" encoding="UTF-8" standalone="no"?>
<!DOCTYPE svg PUBLIC "-//W3C//DTD SVG 1.1//EN"
 "http://www.w3.org/Graphics/SVG/1.1/DTD/svg11.dtd">
<!-- Generated by graphviz version 2.40.1 (20161225.0304)
 -->
<!-- Title: /home/oleg/Dev/riversim/source/river/tree.hpp Pages: 1 -->
<svg width="364pt" height="240pt"
 viewBox="0.00 0.00 364.00 240.00" xmlns="http://www.w3.org/2000/svg" xmlns:xlink="http://www.w3.org/1999/xlink">
<g id="graph0" class="graph" transform="scale(1 1) rotate(0) translate(4 236)">
<title>/home/oleg/Dev/riversim/source/river/tree.hpp</title>
<polygon fill="#ffffff" stroke="transparent" points="-4,4 -4,-236 360,-236 360,4 -4,4"/>
<!-- Node15 -->
<g id="node1" class="node">
<title>Node15</title>
<polygon fill="#bfbfbf" stroke="#000000" points="143,-201.5 143,-231.5 266,-231.5 266,-201.5 143,-201.5"/>
<text text-anchor="start" x="151" y="-219.5" font-family="Helvetica,sans-Serif" font-size="10.00" fill="#000000">/home/oleg/Dev/riversim</text>
<text text-anchor="middle" x="204.5" y="-208.5" font-family="Helvetica,sans-Serif" font-size="10.00" fill="#000000">/source/river/tree.hpp</text>
</g>
<!-- Node16 -->
<g id="node2" class="node">
<title>Node16</title>
<g id="a_node2"><a xlink:href="io_8hpp.html" target="_top" xlink:title="Contains functionality to read and write state of program(simulation data). ">
<polygon fill="#ffffff" stroke="#000000" points="53,-134.5 53,-164.5 176,-164.5 176,-134.5 53,-134.5"/>
<text text-anchor="start" x="61" y="-152.5" font-family="Helvetica,sans-Serif" font-size="10.00" fill="#000000">/home/oleg/Dev/riversim</text>
<text text-anchor="middle" x="114.5" y="-141.5" font-family="Helvetica,sans-Serif" font-size="10.00" fill="#000000">/source/river/io.hpp</text>
</a>
</g>
</g>
<!-- Node15&#45;&gt;Node16 -->
<g id="edge1" class="edge">
<title>Node15&#45;&gt;Node16</title>
<path fill="none" stroke="#191970" d="M175.7058,-195.0643C162.3984,-185.1577 146.9087,-173.6265 134.8416,-164.6432"/>
<polygon fill="#191970" stroke="#191970" points="173.9662,-198.1327 184.0776,-201.2967 178.1463,-192.5177 173.9662,-198.1327"/>
</g>
<!-- Node18 -->
<g id="node4" class="node">
<title>Node18</title>
<g id="a_node4"><a xlink:href="riversim_8hpp.html" target="_top" xlink:title="Rivers Simulation. ">
<polygon fill="#ffffff" stroke="#000000" points="141,-67.5 141,-97.5 268,-97.5 268,-67.5 141,-67.5"/>
<text text-anchor="start" x="149" y="-85.5" font-family="Helvetica,sans-Serif" font-size="10.00" fill="#000000">/home/oleg/Dev/riversim</text>
<text text-anchor="middle" x="204.5" y="-74.5" font-family="Helvetica,sans-Serif" font-size="10.00" fill="#000000">/source/river/riversim.hpp</text>
</a>
</g>
</g>
<!-- Node15&#45;&gt;Node18 -->
<g id="edge6" class="edge">
<title>Node15&#45;&gt;Node18</title>
<path fill="none" stroke="#191970" d="M204.5,-191.3415C204.5,-163.8131 204.5,-120.5714 204.5,-97.7614"/>
<polygon fill="#191970" stroke="#191970" points="201.0001,-191.3889 204.5,-201.389 208.0001,-191.389 201.0001,-191.3889"/>
</g>
<!-- Node21 -->
<g id="node7" class="node">
<title>Node21</title>
<g id="a_node7"><a xlink:href="tree_8cpp.html" target="_top" xlink:title="/home/oleg/Dev/riversim\l/source/river/tree.cpp">
<polygon fill="#ffffff" stroke="#000000" points="233,-134.5 233,-164.5 356,-164.5 356,-134.5 233,-134.5"/>
<text text-anchor="start" x="241" y="-152.5" font-family="Helvetica,sans-Serif" font-size="10.00" fill="#000000">/home/oleg/Dev/riversim</text>
<text text-anchor="middle" x="294.5" y="-141.5" font-family="Helvetica,sans-Serif" font-size="10.00" fill="#000000">/source/river/tree.cpp</text>
</a>
</g>
</g>
<!-- Node15&#45;&gt;Node21 -->
<g id="edge7" class="edge">
<title>Node15&#45;&gt;Node21</title>
<path fill="none" stroke="#191970" d="M233.2942,-195.0643C246.6016,-185.1577 262.0913,-173.6265 274.1584,-164.6432"/>
<polygon fill="#191970" stroke="#191970" points="230.8537,-192.5177 224.9224,-201.2967 235.0338,-198.1327 230.8537,-192.5177"/>
</g>
<!-- Node17 -->
<g id="node3" class="node">
<title>Node17</title>
<g id="a_node3"><a xlink:href="io_8cpp.html" target="_top" xlink:title="/home/oleg/Dev/riversim\l/source/river/io.cpp">
<polygon fill="#ffffff" stroke="#000000" points="0,-67.5 0,-97.5 123,-97.5 123,-67.5 0,-67.5"/>
<text text-anchor="start" x="8" y="-85.5" font-family="Helvetica,sans-Serif" font-size="10.00" fill="#000000">/home/oleg/Dev/riversim</text>
<text text-anchor="middle" x="61.5" y="-74.5" font-family="Helvetica,sans-Serif" font-size="10.00" fill="#000000">/source/river/io.cpp</text>
</a>
</g>
</g>
<!-- Node16&#45;&gt;Node17 -->
<g id="edge2" class="edge">
<title>Node16&#45;&gt;Node17</title>
<path fill="none" stroke="#191970" d="M96.188,-126.3509C88.6709,-116.8482 80.1791,-106.1132 73.4789,-97.6432"/>
<polygon fill="#191970" stroke="#191970" points="93.5244,-128.6252 102.4735,-134.2967 99.0144,-124.2824 93.5244,-128.6252"/>
</g>
<!-- Node16&#45;&gt;Node18 -->
<g id="edge3" class="edge">
<title>Node16&#45;&gt;Node18</title>
<path fill="none" stroke="#191970" d="M143.2942,-128.0643C156.6016,-118.1577 172.0913,-106.6265 184.1584,-97.6432"/>
<polygon fill="#191970" stroke="#191970" points="140.8537,-125.5177 134.9224,-134.2967 145.0338,-131.1327 140.8537,-125.5177"/>
</g>
<!-- Node19 -->
<g id="node5" class="node">
<title>Node19</title>
<g id="a_node5"><a xlink:href="main_8cpp.html" target="_top" xlink:title="Entry point of program and main loop handler. ">
<polygon fill="#ffffff" stroke="#000000" points="72,-.5 72,-30.5 195,-30.5 195,-.5 72,-.5"/>
<text text-anchor="start" x="80" y="-18.5" font-family="Helvetica,sans-Serif" font-size="10.00" fill="#000000">/home/oleg/Dev/riversim</text>
<text text-anchor="middle" x="133.5" y="-7.5" font-family="Helvetica,sans-Serif" font-size="10.00" fill="#000000">/source/main.cpp</text>
</a>
</g>
</g>
<!-- Node18&#45;&gt;Node19 -->
<g id="edge4" class="edge">
<title>Node18&#45;&gt;Node19</title>
<path fill="none" stroke="#191970" d="M180.8806,-60.2113C170.5905,-50.5009 158.7949,-39.3698 149.5472,-30.6432"/>
<polygon fill="#191970" stroke="#191970" points="178.7139,-62.979 188.389,-67.2967 183.5181,-57.8879 178.7139,-62.979"/>
</g>
<!-- Node20 -->
<g id="node6" class="node">
<title>Node20</title>
<g id="a_node6"><a xlink:href="riversim_8cpp.html" target="_top" xlink:title="/home/oleg/Dev/riversim\l/source/river/riversim.cpp">
<polygon fill="#ffffff" stroke="#000000" points="213,-.5 213,-30.5 340,-30.5 340,-.5 213,-.5"/>
<text text-anchor="start" x="221" y="-18.5" font-family="Helvetica,sans-Serif" font-size="10.00" fill="#000000">/home/oleg/Dev/riversim</text>
<text text-anchor="middle" x="276.5" y="-7.5" font-family="Helvetica,sans-Serif" font-size="10.00" fill="#000000">/source/river/riversim.cpp</text>
</a>
</g>
</g>
<!-- Node18&#45;&gt;Node20 -->
<g id="edge5" class="edge">
<title>Node18&#45;&gt;Node20</title>
<path fill="none" stroke="#191970" d="M228.452,-60.2113C238.8871,-50.5009 250.8488,-39.3698 260.2267,-30.6432"/>
<polygon fill="#191970" stroke="#191970" points="225.7743,-57.9221 220.8379,-67.2967 230.5429,-63.0466 225.7743,-57.9221"/>
</g>
</g>
</svg>
