<?xml version="1.0" encoding="UTF-8" standalone="no"?>
<!DOCTYPE svg PUBLIC "-//W3C//DTD SVG 1.1//EN"
 "http://www.w3.org/Graphics/SVG/1.1/DTD/svg11.dtd">
<!-- Generated by graphviz version 2.40.1 (20161225.0304)
 -->
<!-- Title: /home/oleg/Dev/riversim/source/river/tree.cpp Pages: 1 -->
<svg width="693pt" height="263pt"
 viewBox="0.00 0.00 692.52 263.00" xmlns="http://www.w3.org/2000/svg" xmlns:xlink="http://www.w3.org/1999/xlink">
<g id="graph0" class="graph" transform="scale(1 1) rotate(0) translate(4 259)">
<title>/home/oleg/Dev/riversim/source/river/tree.cpp</title>
<polygon fill="#ffffff" stroke="transparent" points="-4,4 -4,-259 688.5159,-259 688.5159,4 -4,4"/>
<!-- Node0 -->
<g id="node1" class="node">
<title>Node0</title>
<polygon fill="#bfbfbf" stroke="#000000" points="317.5159,-224.5 317.5159,-254.5 440.5159,-254.5 440.5159,-224.5 317.5159,-224.5"/>
<text text-anchor="start" x="325.5159" y="-242.5" font-family="Helvetica,sans-Serif" font-size="10.00" fill="#000000">/home/oleg/Dev/riversim</text>
<text text-anchor="middle" x="379.0159" y="-231.5" font-family="Helvetica,sans-Serif" font-size="10.00" fill="#000000">/source/river/tree.cpp</text>
</g>
<!-- Node1 -->
<g id="node2" class="node">
<title>Node1</title>
<g id="a_node2"><a xlink:href="tree_8hpp.html" target="_top" xlink:title="Holds all functionality that you need to work with tree of river, its separate branches and generatio...">
<polygon fill="#ffffff" stroke="#000000" points="353.0159,-168.5 353.0159,-187.5 405.0159,-187.5 405.0159,-168.5 353.0159,-168.5"/>
<text text-anchor="middle" x="379.0159" y="-175.5" font-family="Helvetica,sans-Serif" font-size="10.00" fill="#000000">tree.hpp</text>
</a>
</g>
</g>
<!-- Node0&#45;&gt;Node1 -->
<g id="edge1" class="edge">
<title>Node0&#45;&gt;Node1</title>
<path fill="none" stroke="#191970" d="M379.0159,-224.2977C379.0159,-216.3834 379.0159,-206.6043 379.0159,-198.0759"/>
<polygon fill="#191970" stroke="#191970" points="382.516,-197.8469 379.0159,-187.8469 375.516,-197.847 382.516,-197.8469"/>
</g>
<!-- Node2 -->
<g id="node3" class="node">
<title>Node2</title>
<polygon fill="#ffffff" stroke="#bfbfbf" points="100.0159,-.5 100.0159,-19.5 154.0159,-19.5 154.0159,-.5 100.0159,-.5"/>
<text text-anchor="middle" x="127.0159" y="-7.5" font-family="Helvetica,sans-Serif" font-size="10.00" fill="#000000">iostream</text>
</g>
<!-- Node1&#45;&gt;Node2 -->
<g id="edge2" class="edge">
<title>Node1&#45;&gt;Node2</title>
<path fill="none" stroke="#191970" d="M352.8365,-175.2663C274.3203,-166.4407 43.8443,-135.7476 5.0159,-76 -17.7014,-41.0434 46.0997,-23.1828 89.7914,-15.282"/>
<polygon fill="#191970" stroke="#191970" points="90.5852,-18.6974 99.8568,-13.5702 89.4115,-11.7965 90.5852,-18.6974"/>
</g>
<!-- Node3 -->
<g id="node4" class="node">
<title>Node3</title>
<polygon fill="#ffffff" stroke="#bfbfbf" points="377.0159,-.5 377.0159,-19.5 421.0159,-19.5 421.0159,-.5 377.0159,-.5"/>
<text text-anchor="middle" x="399.0159" y="-7.5" font-family="Helvetica,sans-Serif" font-size="10.00" fill="#000000">vector</text>
</g>
<!-- Node1&#45;&gt;Node3 -->
<g id="edge3" class="edge">
<title>Node1&#45;&gt;Node3</title>
<path fill="none" stroke="#191970" d="M380.1485,-168.4862C383.3101,-141.9293 392.282,-66.5651 396.6153,-30.1655"/>
<polygon fill="#191970" stroke="#191970" points="400.1392,-30.1715 397.846,-19.8279 393.1883,-29.344 400.1392,-30.1715"/>
</g>
<!-- Node4 -->
<g id="node5" class="node">
<title>Node4</title>
<polygon fill="#ffffff" stroke="#bfbfbf" points="649.5159,-.5 649.5159,-19.5 684.5159,-19.5 684.5159,-.5 649.5159,-.5"/>
<text text-anchor="middle" x="667.0159" y="-7.5" font-family="Helvetica,sans-Serif" font-size="10.00" fill="#000000">map</text>
</g>
<!-- Node1&#45;&gt;Node4 -->
<g id="edge4" class="edge">
<title>Node1&#45;&gt;Node4</title>
<path fill="none" stroke="#191970" d="M405.0278,-172.4192C433.86,-165.5594 481.1548,-152.2736 518.0159,-132 571.6434,-102.5049 624.7654,-52.8082 650.6824,-26.8841"/>
<polygon fill="#191970" stroke="#191970" points="653.2885,-29.2262 657.8227,-19.6505 648.3067,-24.3086 653.2885,-29.2262"/>
</g>
<!-- Node5 -->
<g id="node6" class="node">
<title>Node5</title>
<polygon fill="#ffffff" stroke="#bfbfbf" points="314.0159,-56.5 314.0159,-75.5 370.0159,-75.5 370.0159,-56.5 314.0159,-56.5"/>
<text text-anchor="middle" x="342.0159" y="-63.5" font-family="Helvetica,sans-Serif" font-size="10.00" fill="#000000">algorithm</text>
</g>
<!-- Node1&#45;&gt;Node5 -->
<g id="edge5" class="edge">
<title>Node1&#45;&gt;Node5</title>
<path fill="none" stroke="#191970" d="M375.8613,-168.4509C369.7721,-150.0186 356.2958,-109.2254 348.3069,-85.043"/>
<polygon fill="#191970" stroke="#191970" points="351.6228,-83.9223 345.1626,-75.5249 344.9761,-86.1181 351.6228,-83.9223"/>
</g>
<!-- Node6 -->
<g id="node7" class="node">
<title>Node6</title>
<g id="a_node7"><a xlink:href="common_8hpp.html" target="_top" xlink:title="Common geometric entities to whole program. ">
<polygon fill="#ffffff" stroke="#000000" points="222.5159,-56.5 222.5159,-75.5 295.5159,-75.5 295.5159,-56.5 222.5159,-56.5"/>
<text text-anchor="middle" x="259.0159" y="-63.5" font-family="Helvetica,sans-Serif" font-size="10.00" fill="#000000">common.hpp</text>
</a>
</g>
</g>
<!-- Node1&#45;&gt;Node6 -->
<g id="edge6" class="edge">
<title>Node1&#45;&gt;Node6</title>
<path fill="none" stroke="#191970" d="M368.7848,-168.4509C348.3274,-149.3574 302.1621,-106.2697 276.7013,-82.5063"/>
<polygon fill="#191970" stroke="#191970" points="278.9199,-79.7894 269.2212,-75.5249 274.1436,-84.9068 278.9199,-79.7894"/>
</g>
<!-- Node7 -->
<g id="node8" class="node">
<title>Node7</title>
<g id="a_node8"><a xlink:href="tethex_8hpp.html" target="_top" xlink:title="tethex &#45; tetrahedra to hexahedra conversion Copyright (c) 2013 Mikhail Artemyev Report issues: github...">
<polygon fill="#ffffff" stroke="#000000" points="502.0159,-56.5 502.0159,-75.5 564.0159,-75.5 564.0159,-56.5 502.0159,-56.5"/>
<text text-anchor="middle" x="533.0159" y="-63.5" font-family="Helvetica,sans-Serif" font-size="10.00" fill="#000000">tethex.hpp</text>
</a>
</g>
</g>
<!-- Node1&#45;&gt;Node7 -->
<g id="edge9" class="edge">
<title>Node1&#45;&gt;Node7</title>
<path fill="none" stroke="#191970" d="M405.2093,-173.2493C431.1131,-167.3981 470.6038,-155.2391 497.0159,-132 511.2092,-119.5119 520.866,-100.0269 526.5761,-85.4605"/>
<polygon fill="#191970" stroke="#191970" points="529.9266,-86.4877 530.0449,-75.8935 523.3458,-84.1016 529.9266,-86.4877"/>
</g>
<!-- Node11 -->
<g id="node12" class="node">
<title>Node11</title>
<g id="a_node12"><a xlink:href="physmodel_8hpp.html" target="_top" xlink:title="Physical model incapsulation. ">
<polygon fill="#ffffff" stroke="#000000" points="140.5159,-112.5 140.5159,-131.5 223.5159,-131.5 223.5159,-112.5 140.5159,-112.5"/>
<text text-anchor="middle" x="182.0159" y="-119.5" font-family="Helvetica,sans-Serif" font-size="10.00" fill="#000000">physmodel.hpp</text>
</a>
</g>
</g>
<!-- Node1&#45;&gt;Node11 -->
<g id="edge16" class="edge">
<title>Node1&#45;&gt;Node11</title>
<path fill="none" stroke="#191970" d="M352.8559,-170.5636C320.3815,-161.3323 264.5271,-145.4549 225.5552,-134.3767"/>
<polygon fill="#191970" stroke="#191970" points="226.1166,-130.8976 215.5407,-131.5299 224.2025,-137.6309 226.1166,-130.8976"/>
</g>
<!-- Node15 -->
<g id="node16" class="node">
<title>Node15</title>
<g id="a_node16"><a xlink:href="border_8hpp.html" target="_top" xlink:title="Generate initial predefinide border geometry and its source positions. ">
<polygon fill="#ffffff" stroke="#000000" points="426.0159,-112.5 426.0159,-131.5 488.0159,-131.5 488.0159,-112.5 426.0159,-112.5"/>
<text text-anchor="middle" x="457.0159" y="-119.5" font-family="Helvetica,sans-Serif" font-size="10.00" fill="#000000">border.hpp</text>
</a>
</g>
</g>
<!-- Node1&#45;&gt;Node15 -->
<g id="edge23" class="edge">
<title>Node1&#45;&gt;Node15</title>
<path fill="none" stroke="#191970" d="M392.6025,-168.2455C404.3464,-159.814 421.5358,-147.4729 435.2041,-137.6598"/>
<polygon fill="#191970" stroke="#191970" points="437.5031,-140.3179 443.5851,-131.6427 433.4206,-134.6316 437.5031,-140.3179"/>
</g>
<!-- Node6&#45;&gt;Node2 -->
<g id="edge8" class="edge">
<title>Node6&#45;&gt;Node2</title>
<path fill="none" stroke="#191970" d="M236.3243,-56.3733C214.9449,-47.3032 182.7102,-33.6279 158.7797,-23.4755"/>
<polygon fill="#191970" stroke="#191970" points="159.9842,-20.1846 149.4114,-19.5011 157.2503,-26.6287 159.9842,-20.1846"/>
</g>
<!-- Node6&#45;&gt;Node3 -->
<g id="edge7" class="edge">
<title>Node6&#45;&gt;Node3</title>
<path fill="none" stroke="#191970" d="M283.0828,-56.3733C306.2729,-47.0972 341.5048,-33.0045 367.0422,-22.7895"/>
<polygon fill="#191970" stroke="#191970" points="368.6638,-25.9106 376.6486,-18.9469 366.064,-19.4112 368.6638,-25.9106"/>
</g>
<!-- Node7&#45;&gt;Node2 -->
<g id="edge10" class="edge">
<title>Node7&#45;&gt;Node2</title>
<path fill="none" stroke="#191970" d="M501.8319,-61.6988C428.1733,-51.5389 243.6553,-26.0882 164.2786,-15.1397"/>
<polygon fill="#191970" stroke="#191970" points="164.627,-11.6547 154.2425,-13.7554 163.6704,-18.589 164.627,-11.6547"/>
</g>
<!-- Node7&#45;&gt;Node3 -->
<g id="edge15" class="edge">
<title>Node7&#45;&gt;Node3</title>
<path fill="none" stroke="#191970" d="M509.9805,-56.3733C488.1456,-47.2482 455.157,-33.462 430.8202,-23.2913"/>
<polygon fill="#191970" stroke="#191970" points="431.8818,-19.9417 421.3055,-19.315 429.1826,-26.4004 431.8818,-19.9417"/>
</g>
<!-- Node7&#45;&gt;Node4 -->
<g id="edge11" class="edge">
<title>Node7&#45;&gt;Node4</title>
<path fill="none" stroke="#191970" d="M556.0514,-56.3733C579.3332,-46.6435 615.2958,-31.6144 639.93,-21.3195"/>
<polygon fill="#191970" stroke="#191970" points="641.5271,-24.4455 649.4042,-17.3601 638.8279,-17.9868 641.5271,-24.4455"/>
</g>
<!-- Node8 -->
<g id="node9" class="node">
<title>Node8</title>
<polygon fill="#ffffff" stroke="#bfbfbf" points="579.0159,-.5 579.0159,-19.5 631.0159,-19.5 631.0159,-.5 579.0159,-.5"/>
<text text-anchor="middle" x="605.0159" y="-7.5" font-family="Helvetica,sans-Serif" font-size="10.00" fill="#000000">sstream</text>
</g>
<!-- Node7&#45;&gt;Node8 -->
<g id="edge12" class="edge">
<title>Node7&#45;&gt;Node8</title>
<path fill="none" stroke="#191970" d="M545.5574,-56.2455C556.2947,-47.8943 571.9633,-35.7076 584.5206,-25.9408"/>
<polygon fill="#191970" stroke="#191970" points="586.8735,-28.5449 592.6182,-19.6427 582.5759,-23.0194 586.8735,-28.5449"/>
</g>
<!-- Node9 -->
<g id="node10" class="node">
<title>Node9</title>
<polygon fill="#ffffff" stroke="#bfbfbf" points="501.5159,-.5 501.5159,-19.5 560.5159,-19.5 560.5159,-.5 501.5159,-.5"/>
<text text-anchor="middle" x="531.0159" y="-7.5" font-family="Helvetica,sans-Serif" font-size="10.00" fill="#000000">stdexcept</text>
</g>
<!-- Node7&#45;&gt;Node9 -->
<g id="edge13" class="edge">
<title>Node7&#45;&gt;Node9</title>
<path fill="none" stroke="#191970" d="M532.6676,-56.2455C532.4066,-48.9382 532.0407,-38.6944 531.7197,-29.7046"/>
<polygon fill="#191970" stroke="#191970" points="535.2151,-29.5113 531.3603,-19.6427 528.2196,-29.7613 535.2151,-29.5113"/>
</g>
<!-- Node10 -->
<g id="node11" class="node">
<title>Node10</title>
<polygon fill="#ffffff" stroke="#bfbfbf" points="442.5159,-.5 442.5159,-19.5 483.5159,-19.5 483.5159,-.5 442.5159,-.5"/>
<text text-anchor="middle" x="463.0159" y="-7.5" font-family="Helvetica,sans-Serif" font-size="10.00" fill="#000000">string</text>
</g>
<!-- Node7&#45;&gt;Node10 -->
<g id="edge14" class="edge">
<title>Node7&#45;&gt;Node10</title>
<path fill="none" stroke="#191970" d="M520.8229,-56.2455C510.3838,-47.8943 495.1505,-35.7076 482.942,-25.9408"/>
<polygon fill="#191970" stroke="#191970" points="485.0644,-23.1566 475.0693,-19.6427 480.6915,-28.6227 485.0644,-23.1566"/>
</g>
<!-- Node11&#45;&gt;Node2 -->
<g id="edge17" class="edge">
<title>Node11&#45;&gt;Node2</title>
<path fill="none" stroke="#191970" d="M140.3711,-116.4029C95.759,-109.4528 29.2869,-96.0144 14.0159,-76 -9.5375,-45.1305 48.7226,-26.0622 90.0549,-16.7965"/>
<polygon fill="#191970" stroke="#191970" points="90.8272,-20.2106 99.8782,-14.7033 89.3683,-13.3643 90.8272,-20.2106"/>
</g>
<!-- Node11&#45;&gt;Node5 -->
<g id="edge21" class="edge">
<title>Node11&#45;&gt;Node5</title>
<path fill="none" stroke="#191970" d="M209.5209,-112.3733C235.8961,-103.1419 275.9011,-89.1402 305.0517,-78.9375"/>
<polygon fill="#191970" stroke="#191970" points="306.5875,-82.1082 314.8699,-75.5011 304.275,-75.5012 306.5875,-82.1082"/>
</g>
<!-- Node11&#45;&gt;Node6 -->
<g id="edge22" class="edge">
<title>Node11&#45;&gt;Node6</title>
<path fill="none" stroke="#191970" d="M195.4283,-112.2455C207.0217,-103.814 223.9907,-91.4729 237.4838,-81.6598"/>
<polygon fill="#191970" stroke="#191970" points="239.7285,-84.355 245.7573,-75.6427 235.6113,-78.6938 239.7285,-84.355"/>
</g>
<!-- Node12 -->
<g id="node13" class="node">
<title>Node12</title>
<polygon fill="#ffffff" stroke="#bfbfbf" points="160.0159,-56.5 160.0159,-75.5 204.0159,-75.5 204.0159,-56.5 160.0159,-56.5"/>
<text text-anchor="middle" x="182.0159" y="-63.5" font-family="Helvetica,sans-Serif" font-size="10.00" fill="#000000">cmath</text>
</g>
<!-- Node11&#45;&gt;Node12 -->
<g id="edge18" class="edge">
<title>Node11&#45;&gt;Node12</title>
<path fill="none" stroke="#191970" d="M182.0159,-112.2455C182.0159,-104.9382 182.0159,-94.6944 182.0159,-85.7046"/>
<polygon fill="#191970" stroke="#191970" points="185.516,-85.6426 182.0159,-75.6427 178.516,-85.6427 185.516,-85.6426"/>
</g>
<!-- Node13 -->
<g id="node14" class="node">
<title>Node13</title>
<polygon fill="#ffffff" stroke="#bfbfbf" points="23.5159,-56.5 23.5159,-75.5 76.5159,-75.5 76.5159,-56.5 23.5159,-56.5"/>
<text text-anchor="middle" x="50.0159" y="-63.5" font-family="Helvetica,sans-Serif" font-size="10.00" fill="#000000">complex</text>
</g>
<!-- Node11&#45;&gt;Node13 -->
<g id="edge19" class="edge">
<title>Node11&#45;&gt;Node13</title>
<path fill="none" stroke="#191970" d="M159.3243,-112.3733C137.9449,-103.3032 105.7102,-89.6279 81.7797,-79.4755"/>
<polygon fill="#191970" stroke="#191970" points="82.9842,-76.1846 72.4114,-75.5011 80.2503,-82.6287 82.9842,-76.1846"/>
</g>
<!-- Node14 -->
<g id="node15" class="node">
<title>Node14</title>
<polygon fill="#ffffff" stroke="#bfbfbf" points="94.5159,-56.5 94.5159,-75.5 141.5159,-75.5 141.5159,-56.5 94.5159,-56.5"/>
<text text-anchor="middle" x="118.0159" y="-63.5" font-family="Helvetica,sans-Serif" font-size="10.00" fill="#000000">math.h</text>
</g>
<!-- Node11&#45;&gt;Node14 -->
<g id="edge20" class="edge">
<title>Node11&#45;&gt;Node14</title>
<path fill="none" stroke="#191970" d="M170.868,-112.2455C161.5073,-104.0549 147.9301,-92.1749 136.881,-82.5069"/>
<polygon fill="#191970" stroke="#191970" points="138.8667,-79.5937 129.0361,-75.6427 134.2571,-84.8618 138.8667,-79.5937"/>
</g>
<!-- Node15&#45;&gt;Node3 -->
<g id="edge24" class="edge">
<title>Node15&#45;&gt;Node3</title>
<path fill="none" stroke="#191970" d="M452.0709,-112.4509C442.4828,-93.936 421.2108,-52.8591 408.7095,-28.7187"/>
<polygon fill="#191970" stroke="#191970" points="411.655,-26.7953 403.9485,-19.5249 405.4391,-30.0144 411.655,-26.7953"/>
</g>
<!-- Node15&#45;&gt;Node5 -->
<g id="edge25" class="edge">
<title>Node15&#45;&gt;Node5</title>
<path fill="none" stroke="#191970" d="M437.2467,-112.3733C418.869,-103.4241 391.2847,-89.9917 370.5267,-79.8835"/>
<polygon fill="#191970" stroke="#191970" points="372.0502,-76.7325 361.5272,-75.5011 368.9855,-83.026 372.0502,-76.7325"/>
</g>
<!-- Node15&#45;&gt;Node6 -->
<g id="edge28" class="edge">
<title>Node15&#45;&gt;Node6</title>
<path fill="none" stroke="#191970" d="M425.6422,-113.1266C392.5507,-103.7674 340.1496,-88.9469 302.9542,-78.427"/>
<polygon fill="#191970" stroke="#191970" points="303.4702,-74.9357 292.8951,-75.582 301.5651,-81.6715 303.4702,-74.9357"/>
</g>
<!-- Node15&#45;&gt;Node7 -->
<g id="edge27" class="edge">
<title>Node15&#45;&gt;Node7</title>
<path fill="none" stroke="#191970" d="M470.2541,-112.2455C481.6969,-103.814 498.4456,-91.4729 511.7634,-81.6598"/>
<polygon fill="#191970" stroke="#191970" points="513.9551,-84.3924 519.9295,-75.6427 509.8027,-78.757 513.9551,-84.3924"/>
</g>
<!-- Node15&#45;&gt;Node10 -->
<g id="edge26" class="edge">
<title>Node15&#45;&gt;Node10</title>
<path fill="none" stroke="#191970" d="M457.5275,-112.4509C458.5061,-94.184 460.6612,-53.9553 461.9607,-29.6976"/>
<polygon fill="#191970" stroke="#191970" points="465.4656,-29.6978 462.5057,-19.5249 458.4756,-29.3233 465.4656,-29.6978"/>
</g>
</g>
</svg>
