<?xml version="1.0" encoding="UTF-8" standalone="no"?>
<!DOCTYPE svg PUBLIC "-//W3C//DTD SVG 1.1//EN"
 "http://www.w3.org/Graphics/SVG/1.1/DTD/svg11.dtd">
<!-- Generated by graphviz version 2.40.1 (20161225.0304)
 -->
<!-- Title: tree.hpp Pages: 1 -->
<svg width="97pt" height="196pt"
 viewBox="0.00 0.00 96.50 196.00" xmlns="http://www.w3.org/2000/svg" xmlns:xlink="http://www.w3.org/1999/xlink">
<g id="graph0" class="graph" transform="scale(1 1) rotate(0) translate(4 192)">
<title>tree.hpp</title>
<polygon fill="#ffffff" stroke="transparent" points="-4,4 -4,-192 92.5,-192 92.5,4 -4,4"/>
<!-- Node5 -->
<g id="node1" class="node">
<title>Node5</title>
<polygon fill="#bfbfbf" stroke="#000000" points="21,-168.5 21,-187.5 78,-187.5 78,-168.5 21,-168.5"/>
<text text-anchor="middle" x="49.5" y="-175.5" font-family="Helvetica,sans-Serif" font-size="10.00" fill="#000000">tree.hpp</text>
</g>
<!-- Node6 -->
<g id="node2" class="node">
<title>Node6</title>
<g id="a_node2"><a xlink:href="io_8hpp.html" target="_top" xlink:title="Contains functionality to read and write state of program(simulation data) and program options...">
<polygon fill="#ffffff" stroke="#000000" points="0,-112.5 0,-131.5 47,-131.5 47,-112.5 0,-112.5"/>
<text text-anchor="middle" x="23.5" y="-119.5" font-family="Helvetica,sans-Serif" font-size="10.00" fill="#000000">io.hpp</text>
</a>
</g>
</g>
<!-- Node5&#45;&gt;Node6 -->
<g id="edge1" class="edge">
<title>Node5&#45;&gt;Node6</title>
<path fill="none" stroke="#191970" d="M40.6989,-159.0437C36.4225,-149.8331 31.467,-139.1598 27.977,-131.6427"/>
<polygon fill="#191970" stroke="#191970" points="37.5854,-160.6494 44.9711,-168.2455 43.9345,-157.7015 37.5854,-160.6494"/>
</g>
<!-- Node7 -->
<g id="node3" class="node">
<title>Node7</title>
<g id="a_node3"><a xlink:href="riversim_8hpp.html" target="_top" xlink:title="Some general routines like backward, forward simulation etc. ">
<polygon fill="#ffffff" stroke="#000000" points="10.5,-56.5 10.5,-75.5 88.5,-75.5 88.5,-56.5 10.5,-56.5"/>
<text text-anchor="middle" x="49.5" y="-63.5" font-family="Helvetica,sans-Serif" font-size="10.00" fill="#000000">riversim.hpp</text>
</a>
</g>
</g>
<!-- Node5&#45;&gt;Node7 -->
<g id="edge4" class="edge">
<title>Node5&#45;&gt;Node7</title>
<path fill="none" stroke="#191970" d="M53.1817,-158.2065C54.5119,-150.1132 55.8464,-140.639 56.5,-132 58.0124,-112.0078 54.2351,-88.7021 51.66,-75.8232"/>
<polygon fill="#191970" stroke="#191970" points="49.7128,-157.7247 51.4347,-168.1787 56.6078,-158.9326 49.7128,-157.7247"/>
</g>
<!-- Node6&#45;&gt;Node7 -->
<g id="edge2" class="edge">
<title>Node6&#45;&gt;Node7</title>
<path fill="none" stroke="#191970" d="M32.3011,-103.0437C36.5775,-93.8331 41.533,-83.1598 45.023,-75.6427"/>
<polygon fill="#191970" stroke="#191970" points="29.0655,-101.7015 28.0289,-112.2455 35.4146,-104.6494 29.0655,-101.7015"/>
</g>
<!-- Node8 -->
<g id="node4" class="node">
<title>Node8</title>
<g id="a_node4"><a xlink:href="main_8cpp.html" target="_top" xlink:title="Entry point of program and main loop handler. ">
<polygon fill="#ffffff" stroke="#000000" points="18.5,-.5 18.5,-19.5 80.5,-19.5 80.5,-.5 18.5,-.5"/>
<text text-anchor="middle" x="49.5" y="-7.5" font-family="Helvetica,sans-Serif" font-size="10.00" fill="#000000">main.cpp</text>
</a>
</g>
</g>
<!-- Node7&#45;&gt;Node8 -->
<g id="edge3" class="edge">
<title>Node7&#45;&gt;Node8</title>
<path fill="none" stroke="#191970" d="M49.5,-46.1575C49.5,-37.155 49.5,-26.9199 49.5,-19.6427"/>
<polygon fill="#191970" stroke="#191970" points="46.0001,-46.2455 49.5,-56.2455 53.0001,-46.2456 46.0001,-46.2455"/>
</g>
</g>
</svg>
