<?xml version="1.0" encoding="UTF-8" standalone="no"?>
<!DOCTYPE svg PUBLIC "-//W3C//DTD SVG 1.1//EN"
 "http://www.w3.org/Graphics/SVG/1.1/DTD/svg11.dtd">
<!-- Generated by graphviz version 2.40.1 (20161225.0304)
 -->
<!-- Title: orient3d Pages: 1 -->
<svg width="337pt" height="116pt"
 viewBox="0.00 0.00 337.00 116.00" xmlns="http://www.w3.org/2000/svg" xmlns:xlink="http://www.w3.org/1999/xlink">
<g id="graph0" class="graph" transform="scale(1 1) rotate(0) translate(4 112)">
<title>orient3d</title>
<polygon fill="#ffffff" stroke="transparent" points="-4,4 -4,-112 333,-112 333,4 -4,4"/>
<!-- Node828 -->
<g id="node1" class="node">
<title>Node828</title>
<polygon fill="#bfbfbf" stroke="#000000" points="0,-44.5 0,-63.5 51,-63.5 51,-44.5 0,-44.5"/>
<text text-anchor="middle" x="25.5" y="-51.5" font-family="Helvetica,sans-Serif" font-size="10.00" fill="#000000">orient3d</text>
</g>
<!-- Node829 -->
<g id="node2" class="node">
<title>Node829</title>
<g id="a_node2"><a xlink:href="triangle_8cpp.html#a49551af03108d1d44d1ff70af93dbdfd" target="_top" xlink:title="orient3dadapt">
<polygon fill="#ffffff" stroke="#000000" points="87,-44.5 87,-63.5 162,-63.5 162,-44.5 87,-44.5"/>
<text text-anchor="middle" x="124.5" y="-51.5" font-family="Helvetica,sans-Serif" font-size="10.00" fill="#000000">orient3dadapt</text>
</a>
</g>
</g>
<!-- Node828&#45;&gt;Node829 -->
<g id="edge1" class="edge">
<title>Node828&#45;&gt;Node829</title>
<path fill="none" stroke="#191970" d="M51.2526,-54C59.0765,-54 67.9377,-54 76.7262,-54"/>
<polygon fill="#191970" stroke="#191970" points="76.9434,-57.5001 86.9433,-54 76.9433,-50.5001 76.9434,-57.5001"/>
</g>
<!-- Node830 -->
<g id="node3" class="node">
<title>Node830</title>
<g id="a_node3"><a xlink:href="triangle_8cpp.html#abdcdaa8948d9a2937154d9d67f67da8d" target="_top" xlink:title="scale_expansion_zeroelim">
<polygon fill="#ffffff" stroke="#000000" points="198,-88.5 198,-107.5 329,-107.5 329,-88.5 198,-88.5"/>
<text text-anchor="middle" x="263.5" y="-95.5" font-family="Helvetica,sans-Serif" font-size="10.00" fill="#000000">scale_expansion_zeroelim</text>
</a>
</g>
</g>
<!-- Node829&#45;&gt;Node830 -->
<g id="edge2" class="edge">
<title>Node829&#45;&gt;Node830</title>
<path fill="none" stroke="#191970" d="M151.629,-63.5568C165.4588,-68.3448 182.5729,-74.1416 198,-79 204.9878,-81.2007 212.4242,-83.4475 219.684,-85.5896"/>
<polygon fill="#191970" stroke="#191970" points="218.8354,-88.9879 229.4157,-88.4315 220.7978,-82.2686 218.8354,-88.9879"/>
</g>
<!-- Node831 -->
<g id="node4" class="node">
<title>Node831</title>
<g id="a_node4"><a xlink:href="triangle_8cpp.html#a37646a7e0014e10c612e946bc95aeeea" target="_top" xlink:title="fast_expansion_sum\l_zeroelim">
<polygon fill="#ffffff" stroke="#000000" points="210,-39 210,-69 317,-69 317,-39 210,-39"/>
<text text-anchor="start" x="218" y="-57" font-family="Helvetica,sans-Serif" font-size="10.00" fill="#000000">fast_expansion_sum</text>
<text text-anchor="middle" x="263.5" y="-46" font-family="Helvetica,sans-Serif" font-size="10.00" fill="#000000">_zeroelim</text>
</a>
</g>
</g>
<!-- Node829&#45;&gt;Node831 -->
<g id="edge3" class="edge">
<title>Node829&#45;&gt;Node831</title>
<path fill="none" stroke="#191970" d="M162.1154,-54C173.7252,-54 186.8506,-54 199.7132,-54"/>
<polygon fill="#191970" stroke="#191970" points="199.9384,-57.5001 209.9384,-54 199.9384,-50.5001 199.9384,-57.5001"/>
</g>
<!-- Node832 -->
<g id="node5" class="node">
<title>Node832</title>
<g id="a_node5"><a xlink:href="triangle_8cpp.html#a3487d9f90ea72da543d5d38b3dab1fbc" target="_top" xlink:title="estimate">
<polygon fill="#ffffff" stroke="#000000" points="236.5,-.5 236.5,-19.5 290.5,-19.5 290.5,-.5 236.5,-.5"/>
<text text-anchor="middle" x="263.5" y="-7.5" font-family="Helvetica,sans-Serif" font-size="10.00" fill="#000000">estimate</text>
</a>
</g>
</g>
<!-- Node829&#45;&gt;Node832 -->
<g id="edge4" class="edge">
<title>Node829&#45;&gt;Node832</title>
<path fill="none" stroke="#191970" d="M153.4331,-44.4101C166.9529,-39.9655 183.28,-34.6501 198,-30 207.2419,-27.0804 217.2393,-23.9924 226.5741,-21.1391"/>
<polygon fill="#191970" stroke="#191970" points="227.8294,-24.4156 236.3761,-18.1542 225.7902,-17.7192 227.8294,-24.4156"/>
</g>
</g>
</svg>
