<?xml version="1.0" encoding="UTF-8" standalone="no"?>
<!DOCTYPE svg PUBLIC "-//W3C//DTD SVG 1.1//EN"
 "http://www.w3.org/Graphics/SVG/1.1/DTD/svg11.dtd">
<!-- Generated by graphviz version 2.40.1 (20161225.0304)
 -->
<!-- Title: initializetrisubpools Pages: 1 -->
<svg width="540pt" height="66pt"
 viewBox="0.00 0.00 540.00 66.00" xmlns="http://www.w3.org/2000/svg" xmlns:xlink="http://www.w3.org/1999/xlink">
<g id="graph0" class="graph" transform="scale(1 1) rotate(0) translate(4 62)">
<title>initializetrisubpools</title>
<polygon fill="#ffffff" stroke="transparent" points="-4,4 -4,-62 536,-62 536,4 -4,4"/>
<!-- Node401 -->
<g id="node1" class="node">
<title>Node401</title>
<polygon fill="#bfbfbf" stroke="#000000" points="0,-19.5 0,-38.5 99,-38.5 99,-19.5 0,-19.5"/>
<text text-anchor="middle" x="49.5" y="-26.5" font-family="Helvetica,sans-Serif" font-size="10.00" fill="#000000">initializetrisubpools</text>
</g>
<!-- Node402 -->
<g id="node2" class="node">
<title>Node402</title>
<g id="a_node2"><a xlink:href="triangle_8cpp.html#ab67faa70960c7c39ee1150ab4d55f0a5" target="_top" xlink:title="delaunay">
<polygon fill="#ffffff" stroke="#000000" points="139.5,-38.5 139.5,-57.5 195.5,-57.5 195.5,-38.5 139.5,-38.5"/>
<text text-anchor="middle" x="167.5" y="-45.5" font-family="Helvetica,sans-Serif" font-size="10.00" fill="#000000">delaunay</text>
</a>
</g>
</g>
<!-- Node401&#45;&gt;Node402 -->
<g id="edge1" class="edge">
<title>Node401&#45;&gt;Node402</title>
<path fill="none" stroke="#191970" d="M109.2545,-38.6215C119.7762,-40.3157 130.2659,-42.0047 139.3848,-43.473"/>
<polygon fill="#191970" stroke="#191970" points="109.6299,-35.1369 99.2006,-37.0026 108.517,-42.0479 109.6299,-35.1369"/>
</g>
<!-- Node406 -->
<g id="node6" class="node">
<title>Node406</title>
<g id="a_node6"><a xlink:href="triangle_8cpp.html#a711adeeb3c28e4f2e3e173d729912c13" target="_top" xlink:title="reconstruct">
<polygon fill="#ffffff" stroke="#000000" points="135,-.5 135,-19.5 200,-19.5 200,-.5 135,-.5"/>
<text text-anchor="middle" x="167.5" y="-7.5" font-family="Helvetica,sans-Serif" font-size="10.00" fill="#000000">reconstruct</text>
</a>
</g>
</g>
<!-- Node401&#45;&gt;Node406 -->
<g id="edge5" class="edge">
<title>Node401&#45;&gt;Node406</title>
<path fill="none" stroke="#191970" d="M109.1978,-19.3876C118.0826,-17.957 126.9462,-16.5298 134.9827,-15.2358"/>
<polygon fill="#191970" stroke="#191970" points="108.517,-15.9521 99.2006,-20.9974 109.6299,-22.8631 108.517,-15.9521"/>
</g>
<!-- Node403 -->
<g id="node3" class="node">
<title>Node403</title>
<g id="a_node3"><a xlink:href="triangle_8hpp.html#a848df2990f66cdbdc9d1ac87f4646527" target="_top" xlink:title="Call Triangle. ">
<polygon fill="#ffffff" stroke="#000000" points="236,-19.5 236,-38.5 298,-38.5 298,-19.5 236,-19.5"/>
<text text-anchor="middle" x="267" y="-26.5" font-family="Helvetica,sans-Serif" font-size="10.00" fill="#000000">triangulate</text>
</a>
</g>
</g>
<!-- Node402&#45;&gt;Node403 -->
<g id="edge2" class="edge">
<title>Node402&#45;&gt;Node403</title>
<path fill="none" stroke="#191970" d="M205.8111,-40.6843C215.7621,-38.7841 226.3587,-36.7607 235.8885,-34.9409"/>
<polygon fill="#191970" stroke="#191970" points="204.9126,-37.2926 195.7466,-42.6062 206.2256,-44.1683 204.9126,-37.2926"/>
</g>
<!-- Node404 -->
<g id="node4" class="node">
<title>Node404</title>
<g id="a_node4"><a xlink:href="classRiver_1_1Triangle.html#a7bc9c5a5297dee136ab1489a923182dd" target="_top" xlink:title="Generate mesh. ">
<polygon fill="#ffffff" stroke="#000000" points="334,-19.5 334,-38.5 458,-38.5 458,-19.5 334,-19.5"/>
<text text-anchor="middle" x="396" y="-26.5" font-family="Helvetica,sans-Serif" font-size="10.00" fill="#000000">River::Triangle::generate</text>
</a>
</g>
</g>
<!-- Node403&#45;&gt;Node404 -->
<g id="edge3" class="edge">
<title>Node403&#45;&gt;Node404</title>
<path fill="none" stroke="#191970" d="M308.2629,-29C316.4682,-29 325.2527,-29 333.9767,-29"/>
<polygon fill="#191970" stroke="#191970" points="308.2273,-25.5001 298.2273,-29 308.2273,-32.5001 308.2273,-25.5001"/>
</g>
<!-- Node405 -->
<g id="node5" class="node">
<title>Node405</title>
<g id="a_node5"><a xlink:href="main_8cpp.html#a0ddf1224851353fc92bfbff6f499fa97" target="_top" xlink:title="Entry point of RiverSim program. ">
<polygon fill="#ffffff" stroke="#000000" points="494,-19.5 494,-38.5 532,-38.5 532,-19.5 494,-19.5"/>
<text text-anchor="middle" x="513" y="-26.5" font-family="Helvetica,sans-Serif" font-size="10.00" fill="#000000">main</text>
</a>
</g>
</g>
<!-- Node404&#45;&gt;Node405 -->
<g id="edge4" class="edge">
<title>Node404&#45;&gt;Node405</title>
<path fill="none" stroke="#191970" d="M468.5174,-29C477.8253,-29 486.6301,-29 493.912,-29"/>
<polygon fill="#191970" stroke="#191970" points="468.2682,-25.5001 458.2682,-29 468.2682,-32.5001 468.2682,-25.5001"/>
</g>
<!-- Node406&#45;&gt;Node403 -->
<g id="edge6" class="edge">
<title>Node406&#45;&gt;Node403</title>
<path fill="none" stroke="#191970" d="M210.004,-18.1163C218.6284,-19.7632 227.5497,-21.4668 235.7011,-23.0233"/>
<polygon fill="#191970" stroke="#191970" points="210.5591,-14.6592 200.08,-16.2213 209.246,-21.5349 210.5591,-14.6592"/>
</g>
</g>
</svg>
