<?xml version="1.0" encoding="UTF-8" standalone="no"?>
<!DOCTYPE svg PUBLIC "-//W3C//DTD SVG 1.1//EN"
 "http://www.w3.org/Graphics/SVG/1.1/DTD/svg11.dtd">
<!-- Generated by graphviz version 2.40.1 (20161225.0304)
 -->
<!-- Title: getvertex Pages: 1 -->
<svg width="687pt" height="66pt"
 viewBox="0.00 0.00 687.00 66.00" xmlns="http://www.w3.org/2000/svg" xmlns:xlink="http://www.w3.org/1999/xlink">
<g id="graph0" class="graph" transform="scale(1 1) rotate(0) translate(4 62)">
<title>getvertex</title>
<polygon fill="#ffffff" stroke="transparent" points="-4,4 -4,-62 683,-62 683,4 -4,4"/>
<!-- Node527 -->
<g id="node1" class="node">
<title>Node527</title>
<polygon fill="#bfbfbf" stroke="#000000" points="0,-19.5 0,-38.5 57,-38.5 57,-19.5 0,-19.5"/>
<text text-anchor="middle" x="28.5" y="-26.5" font-family="Helvetica,sans-Serif" font-size="10.00" fill="#000000">getvertex</text>
</g>
<!-- Node528 -->
<g id="node2" class="node">
<title>Node528</title>
<g id="a_node2"><a xlink:href="triangle_8cpp.html#a711adeeb3c28e4f2e3e173d729912c13" target="_top" xlink:title="reconstruct">
<polygon fill="#ffffff" stroke="#000000" points="97,-38.5 97,-57.5 162,-57.5 162,-38.5 97,-38.5"/>
<text text-anchor="middle" x="129.5" y="-45.5" font-family="Helvetica,sans-Serif" font-size="10.00" fill="#000000">reconstruct</text>
</a>
</g>
</g>
<!-- Node527&#45;&gt;Node528 -->
<g id="edge1" class="edge">
<title>Node527&#45;&gt;Node528</title>
<path fill="none" stroke="#191970" d="M67.0991,-36.2612C76.9098,-38.1068 87.3559,-40.0719 96.839,-41.8558"/>
<polygon fill="#191970" stroke="#191970" points="67.6471,-32.803 57.1724,-34.3938 66.3529,-39.6823 67.6471,-32.803"/>
</g>
<!-- Node533 -->
<g id="node7" class="node">
<title>Node533</title>
<g id="a_node7"><a xlink:href="triangle_8cpp.html#a77e7549672629c06d5926b7edcafc337" target="_top" xlink:title="formskeleton">
<polygon fill="#ffffff" stroke="#000000" points="93,-.5 93,-19.5 166,-19.5 166,-.5 93,-.5"/>
<text text-anchor="middle" x="129.5" y="-7.5" font-family="Helvetica,sans-Serif" font-size="10.00" fill="#000000">formskeleton</text>
</a>
</g>
</g>
<!-- Node527&#45;&gt;Node533 -->
<g id="edge6" class="edge">
<title>Node527&#45;&gt;Node533</title>
<path fill="none" stroke="#191970" d="M67.1488,-21.7294C75.573,-20.1447 84.4635,-18.4722 92.809,-16.9023"/>
<polygon fill="#191970" stroke="#191970" points="66.3529,-18.3177 57.1724,-23.6062 67.6471,-25.197 66.3529,-18.3177"/>
</g>
<!-- Node529 -->
<g id="node3" class="node">
<title>Node529</title>
<g id="a_node3"><a xlink:href="triangle_8hpp.html#a4ca59bf5fe569672944651426b662ba6" target="_top" xlink:title="Call Triangle. ">
<polygon fill="#ffffff" stroke="#000000" points="202,-19.5 202,-38.5 264,-38.5 264,-19.5 202,-19.5"/>
<text text-anchor="middle" x="233" y="-26.5" font-family="Helvetica,sans-Serif" font-size="10.00" fill="#000000">triangulate</text>
</a>
</g>
</g>
<!-- Node528&#45;&gt;Node529 -->
<g id="edge2" class="edge">
<title>Node528&#45;&gt;Node529</title>
<path fill="none" stroke="#191970" d="M172.3393,-40.1358C182.2393,-38.3184 192.5879,-36.4187 201.8764,-34.7135"/>
<polygon fill="#191970" stroke="#191970" points="171.4517,-36.7401 162.248,-41.9883 172.7157,-43.6251 171.4517,-36.7401"/>
</g>
<!-- Node530 -->
<g id="node4" class="node">
<title>Node530</title>
<g id="a_node4"><a xlink:href="classRiver_1_1Triangle.html#a0dae20b40d446e6009a88543e2c14daf" target="_top" xlink:title="Generate mesh. ">
<polygon fill="#ffffff" stroke="#000000" points="300,-19.5 300,-38.5 424,-38.5 424,-19.5 300,-19.5"/>
<text text-anchor="middle" x="362" y="-26.5" font-family="Helvetica,sans-Serif" font-size="10.00" fill="#000000">River::Triangle::generate</text>
</a>
</g>
</g>
<!-- Node529&#45;&gt;Node530 -->
<g id="edge3" class="edge">
<title>Node529&#45;&gt;Node530</title>
<path fill="none" stroke="#191970" d="M274.2629,-29C282.4682,-29 291.2527,-29 299.9767,-29"/>
<polygon fill="#191970" stroke="#191970" points="274.2273,-25.5001 264.2273,-29 274.2273,-32.5001 274.2273,-25.5001"/>
</g>
<!-- Node531 -->
<g id="node5" class="node">
<title>Node531</title>
<g id="a_node5"><a xlink:href="namespaceRiver.html#af1a3f7c61809dd8032e4ff5920da83cc" target="_top" xlink:title="One step of forward river evolution. ">
<polygon fill="#ffffff" stroke="#000000" points="460,-19.5 460,-38.5 605,-38.5 605,-19.5 460,-19.5"/>
<text text-anchor="middle" x="532.5" y="-26.5" font-family="Helvetica,sans-Serif" font-size="10.00" fill="#000000">River::ForwardRiverEvolution</text>
</a>
</g>
</g>
<!-- Node530&#45;&gt;Node531 -->
<g id="edge4" class="edge">
<title>Node530&#45;&gt;Node531</title>
<path fill="none" stroke="#191970" d="M434.2431,-29C442.7006,-29 451.333,-29 459.7967,-29"/>
<polygon fill="#191970" stroke="#191970" points="434.0368,-25.5001 424.0367,-29 434.0367,-32.5001 434.0368,-25.5001"/>
</g>
<!-- Node532 -->
<g id="node6" class="node">
<title>Node532</title>
<g id="a_node6"><a xlink:href="main_8cpp.html#a0ddf1224851353fc92bfbff6f499fa97" target="_top" xlink:title="Entry point of RiverSim program. ">
<polygon fill="#ffffff" stroke="#000000" points="641,-19.5 641,-38.5 679,-38.5 679,-19.5 641,-19.5"/>
<text text-anchor="middle" x="660" y="-26.5" font-family="Helvetica,sans-Serif" font-size="10.00" fill="#000000">main</text>
</a>
</g>
</g>
<!-- Node531&#45;&gt;Node532 -->
<g id="edge5" class="edge">
<title>Node531&#45;&gt;Node532</title>
<path fill="none" stroke="#191970" d="M615.2526,-29C624.7338,-29 633.5978,-29 640.8947,-29"/>
<polygon fill="#191970" stroke="#191970" points="615.1886,-25.5001 605.1886,-29 615.1885,-32.5001 615.1886,-25.5001"/>
</g>
<!-- Node533&#45;&gt;Node529 -->
<g id="edge7" class="edge">
<title>Node533&#45;&gt;Node529</title>
<path fill="none" stroke="#191970" d="M176.2894,-18.5894C184.9375,-20.1769 193.772,-21.7987 201.815,-23.2752"/>
<polygon fill="#191970" stroke="#191970" points="176.7493,-15.1154 166.2817,-16.7522 175.4853,-22.0003 176.7493,-15.1154"/>
</g>
</g>
</svg>
