<?xml version="1.0" encoding="UTF-8" standalone="no"?>
<!DOCTYPE svg PUBLIC "-//W3C//DTD SVG 1.1//EN"
 "http://www.w3.org/Graphics/SVG/1.1/DTD/svg11.dtd">
<!-- Generated by graphviz version 2.40.1 (20161225.0304)
 -->
<!-- Title: preciselocate Pages: 1 -->
<svg width="757pt" height="236pt"
 viewBox="0.00 0.00 757.00 236.00" xmlns="http://www.w3.org/2000/svg" xmlns:xlink="http://www.w3.org/1999/xlink">
<g id="graph0" class="graph" transform="scale(1 1) rotate(0) translate(4 232)">
<title>preciselocate</title>
<polygon fill="#ffffff" stroke="transparent" points="-4,4 -4,-232 753,-232 753,4 -4,4"/>
<!-- Node950 -->
<g id="node1" class="node">
<title>Node950</title>
<polygon fill="#bfbfbf" stroke="#000000" points="0,-85.5 0,-104.5 74,-104.5 74,-85.5 0,-85.5"/>
<text text-anchor="middle" x="37" y="-92.5" font-family="Helvetica,sans-Serif" font-size="10.00" fill="#000000">preciselocate</text>
</g>
<!-- Node951 -->
<g id="node2" class="node">
<title>Node951</title>
<g id="a_node2"><a xlink:href="triangle_8cpp.html#a51073193cbdba1daea4186d1458890e8" target="_top" xlink:title="locate">
<polygon fill="#ffffff" stroke="#000000" points="110,-104.5 110,-123.5 153,-123.5 153,-104.5 110,-104.5"/>
<text text-anchor="middle" x="131.5" y="-111.5" font-family="Helvetica,sans-Serif" font-size="10.00" fill="#000000">locate</text>
</a>
</g>
</g>
<!-- Node950&#45;&gt;Node951 -->
<g id="edge1" class="edge">
<title>Node950&#45;&gt;Node951</title>
<path fill="none" stroke="#191970" d="M84.1437,-104.4786C93.1225,-106.2839 102.1064,-108.0902 109.7985,-109.6367"/>
<polygon fill="#191970" stroke="#191970" points="84.5714,-100.9947 74.0777,-102.4548 83.1916,-107.8573 84.5714,-100.9947"/>
</g>
<!-- Node952 -->
<g id="node3" class="node">
<title>Node952</title>
<g id="a_node3"><a xlink:href="triangle_8cpp.html#a2ede94743503e369e9b1c6c2a0ac9f7f" target="_top" xlink:title="insertvertex">
<polygon fill="#ffffff" stroke="#000000" points="189,-66.5 189,-85.5 257,-85.5 257,-66.5 189,-66.5"/>
<text text-anchor="middle" x="223" y="-73.5" font-family="Helvetica,sans-Serif" font-size="10.00" fill="#000000">insertvertex</text>
</a>
</g>
</g>
<!-- Node950&#45;&gt;Node952 -->
<g id="edge19" class="edge">
<title>Node950&#45;&gt;Node952</title>
<path fill="none" stroke="#191970" d="M84.3831,-90.1598C116.9313,-86.835 159.3882,-82.498 188.6942,-79.5044"/>
<polygon fill="#191970" stroke="#191970" points="83.7854,-86.7025 74.1928,-91.2007 84.4968,-93.6663 83.7854,-86.7025"/>
</g>
<!-- Node951&#45;&gt;Node952 -->
<g id="edge2" class="edge">
<title>Node951&#45;&gt;Node952</title>
<path fill="none" stroke="#191970" d="M162.5686,-101.0972C174.7836,-96.0243 188.5605,-90.3028 199.8719,-85.6051"/>
<polygon fill="#191970" stroke="#191970" points="161.0771,-97.9267 153.1842,-104.9945 163.7619,-104.3914 161.0771,-97.9267"/>
</g>
<!-- Node962 -->
<g id="node11" class="node">
<title>Node962</title>
<g id="a_node11"><a xlink:href="triangle_8cpp.html#ae367b20189056436da2a1b633b392703" target="_top" xlink:title="insertsegment">
<polygon fill="#ffffff" stroke="#ff0000" points="671,-180.5 671,-199.5 749,-199.5 749,-180.5 671,-180.5"/>
<text text-anchor="middle" x="710" y="-187.5" font-family="Helvetica,sans-Serif" font-size="10.00" fill="#000000">insertsegment</text>
</a>
</g>
</g>
<!-- Node951&#45;&gt;Node962 -->
<g id="edge16" class="edge">
<title>Node951&#45;&gt;Node962</title>
<path fill="none" stroke="#191970" d="M148.4399,-130.6185C182.5626,-162.2523 263.3092,-228 345,-228 345,-228 345,-228 472,-228 544.9349,-228 563.2707,-222.2065 635,-209 648.6064,-206.4948 663.405,-202.9298 676.2337,-199.5633"/>
<polygon fill="#191970" stroke="#191970" points="150.823,-128.0549 141.1557,-123.7196 146.0095,-133.1372 150.823,-128.0549"/>
</g>
<!-- Node965 -->
<g id="node13" class="node">
<title>Node965</title>
<g id="a_node13"><a xlink:href="triangle_8cpp.html#aa0ba1198ac22df6403aeaa25b4ebbe37" target="_top" xlink:title="carveholes">
<polygon fill="#ffffff" stroke="#000000" points="191,-104.5 191,-123.5 255,-123.5 255,-104.5 191,-104.5"/>
<text text-anchor="middle" x="223" y="-111.5" font-family="Helvetica,sans-Serif" font-size="10.00" fill="#000000">carveholes</text>
</a>
</g>
</g>
<!-- Node951&#45;&gt;Node965 -->
<g id="edge17" class="edge">
<title>Node951&#45;&gt;Node965</title>
<path fill="none" stroke="#191970" d="M163.4744,-114C172.2993,-114 181.8783,-114 190.7204,-114"/>
<polygon fill="#191970" stroke="#191970" points="163.1843,-110.5001 153.1842,-114 163.1842,-117.5001 163.1843,-110.5001"/>
</g>
<!-- Node953 -->
<g id="node4" class="node">
<title>Node953</title>
<g id="a_node4"><a xlink:href="triangle_8cpp.html#a4e3735a2f4c1fa18deb1a2e66aeda7bd" target="_top" xlink:title="undovertex">
<polygon fill="#ffffff" stroke="#000000" points="312.5,-66.5 312.5,-85.5 377.5,-85.5 377.5,-66.5 312.5,-66.5"/>
<text text-anchor="middle" x="345" y="-73.5" font-family="Helvetica,sans-Serif" font-size="10.00" fill="#000000">undovertex</text>
</a>
</g>
</g>
<!-- Node952&#45;&gt;Node953 -->
<g id="edge3" class="edge">
<title>Node952&#45;&gt;Node953</title>
<path fill="none" stroke="#191970" d="M267.7339,-76C282.4568,-76 298.5436,-76 312.2085,-76"/>
<polygon fill="#191970" stroke="#191970" points="267.3085,-72.5001 257.3085,-76 267.3084,-79.5001 267.3085,-72.5001"/>
</g>
<!-- Node954 -->
<g id="node5" class="node">
<title>Node954</title>
<g id="a_node5"><a xlink:href="triangle_8cpp.html#a48fc63d369d988c08cbe8ab40f0b8af5" target="_top" xlink:title="splittriangle">
<polygon fill="#ffffff" stroke="#000000" points="439,-57.5 439,-76.5 505,-76.5 505,-57.5 439,-57.5"/>
<text text-anchor="middle" x="472" y="-64.5" font-family="Helvetica,sans-Serif" font-size="10.00" fill="#000000">splittriangle</text>
</a>
</g>
</g>
<!-- Node952&#45;&gt;Node954 -->
<g id="edge15" class="edge">
<title>Node952&#45;&gt;Node954</title>
<path fill="none" stroke="#191970" d="M261.1368,-63.6873C271.3742,-60.9238 282.5151,-58.3977 293,-57 343.5972,-50.2553 402.8284,-56.2562 438.8662,-61.4405"/>
<polygon fill="#191970" stroke="#191970" points="259.9193,-60.3947 251.2583,-66.497 261.8344,-67.1277 259.9193,-60.3947"/>
</g>
<!-- Node959 -->
<g id="node8" class="node">
<title>Node959</title>
<g id="a_node8"><a xlink:href="triangle_8cpp.html#a496c50bca0cf0c214a0204419c3b181a" target="_top" xlink:title="segmentintersection">
<polygon fill="#ffffff" stroke="#000000" points="293,-142.5 293,-161.5 397,-161.5 397,-142.5 293,-142.5"/>
<text text-anchor="middle" x="345" y="-149.5" font-family="Helvetica,sans-Serif" font-size="10.00" fill="#000000">segmentintersection</text>
</a>
</g>
</g>
<!-- Node952&#45;&gt;Node959 -->
<g id="edge7" class="edge">
<title>Node952&#45;&gt;Node959</title>
<path fill="none" stroke="#191970" d="M249.678,-90.69C252.1655,-92.1253 254.6379,-93.5771 257,-95 283.5066,-110.9677 313.6153,-130.8641 330.8532,-142.43"/>
<polygon fill="#191970" stroke="#191970" points="251.1983,-87.5287 240.7722,-85.645 247.748,-93.6193 251.1983,-87.5287"/>
</g>
<!-- Node964 -->
<g id="node12" class="node">
<title>Node964</title>
<g id="a_node12"><a xlink:href="triangle_8cpp.html#adca37fc9e90f78c9ae794662de5428bd" target="_top" xlink:title="splitencsegs">
<polygon fill="#ffffff" stroke="#000000" points="436.5,-.5 436.5,-19.5 507.5,-19.5 507.5,-.5 436.5,-.5"/>
<text text-anchor="middle" x="472" y="-7.5" font-family="Helvetica,sans-Serif" font-size="10.00" fill="#000000">splitencsegs</text>
</a>
</g>
</g>
<!-- Node952&#45;&gt;Node964 -->
<g id="edge13" class="edge">
<title>Node952&#45;&gt;Node964</title>
<path fill="none" stroke="#191970" d="M255.7278,-62.7966C267.3779,-58.3766 280.6661,-53.6503 293,-50 342.0066,-35.4961 399.9231,-23.456 436.3142,-16.4913"/>
<polygon fill="#191970" stroke="#191970" points="254.4503,-59.5379 246.3839,-66.4069 256.9733,-66.0675 254.4503,-59.5379"/>
</g>
<!-- Node953&#45;&gt;Node954 -->
<g id="edge4" class="edge">
<title>Node953&#45;&gt;Node954</title>
<path fill="none" stroke="#191970" d="M387.7806,-72.9683C404.4847,-71.7845 423.3371,-70.4486 438.9638,-69.3411"/>
<polygon fill="#191970" stroke="#191970" points="387.4332,-69.4841 377.7057,-73.6823 387.9281,-76.4665 387.4332,-69.4841"/>
</g>
<!-- Node955 -->
<g id="node6" class="node">
<title>Node955</title>
<g id="a_node6"><a xlink:href="triangle_8cpp.html#a5a654ff6b304f2166c64ffe9183b2995" target="_top" xlink:title="enforcequality">
<polygon fill="#ffffff" stroke="#000000" points="552.5,-57.5 552.5,-76.5 629.5,-76.5 629.5,-57.5 552.5,-57.5"/>
<text text-anchor="middle" x="591" y="-64.5" font-family="Helvetica,sans-Serif" font-size="10.00" fill="#000000">enforcequality</text>
</a>
</g>
</g>
<!-- Node954&#45;&gt;Node955 -->
<g id="edge5" class="edge">
<title>Node954&#45;&gt;Node955</title>
<path fill="none" stroke="#191970" d="M515.4105,-67C527.4278,-67 540.3919,-67 552.1327,-67"/>
<polygon fill="#191970" stroke="#191970" points="515.1482,-63.5001 505.1481,-67 515.1481,-70.5001 515.1482,-63.5001"/>
</g>
<!-- Node956 -->
<g id="node7" class="node">
<title>Node956</title>
<g id="a_node7"><a xlink:href="triangle_8hpp.html#a848df2990f66cdbdc9d1ac87f4646527" target="_top" xlink:title="Call Triangle. ">
<polygon fill="#ffffff" stroke="#ff0000" points="679,-85.5 679,-104.5 741,-104.5 741,-85.5 679,-85.5"/>
<text text-anchor="middle" x="710" y="-92.5" font-family="Helvetica,sans-Serif" font-size="10.00" fill="#000000">triangulate</text>
</a>
</g>
</g>
<!-- Node955&#45;&gt;Node956 -->
<g id="edge6" class="edge">
<title>Node955&#45;&gt;Node956</title>
<path fill="none" stroke="#191970" d="M639.549,-78.4233C652.7615,-81.5321 666.7202,-84.8165 678.6965,-87.6345"/>
<polygon fill="#191970" stroke="#191970" points="640.1717,-74.9743 629.6359,-76.0908 638.5684,-81.7882 640.1717,-74.9743"/>
</g>
<!-- Node960 -->
<g id="node9" class="node">
<title>Node960</title>
<g id="a_node9"><a xlink:href="triangle_8cpp.html#ae9d4ed09a0fd07959568ba5f86cc4d0c" target="_top" xlink:title="scoutsegment">
<polygon fill="#ffffff" stroke="#000000" points="433,-142.5 433,-161.5 511,-161.5 511,-142.5 433,-142.5"/>
<text text-anchor="middle" x="472" y="-149.5" font-family="Helvetica,sans-Serif" font-size="10.00" fill="#000000">scoutsegment</text>
</a>
</g>
</g>
<!-- Node959&#45;&gt;Node960 -->
<g id="edge8" class="edge">
<title>Node959&#45;&gt;Node960</title>
<path fill="none" stroke="#191970" d="M407.1725,-152C415.8652,-152 424.5912,-152 432.6983,-152"/>
<polygon fill="#191970" stroke="#191970" points="407.0222,-148.5001 397.0222,-152 407.0222,-155.5001 407.0222,-148.5001"/>
</g>
<!-- Node961 -->
<g id="node10" class="node">
<title>Node961</title>
<g id="a_node10"><a xlink:href="triangle_8cpp.html#aded205ef0849b44d2a587f53fd720618" target="_top" xlink:title="constrainededge">
<polygon fill="#ffffff" stroke="#000000" points="547,-180.5 547,-199.5 635,-199.5 635,-180.5 547,-180.5"/>
<text text-anchor="middle" x="591" y="-187.5" font-family="Helvetica,sans-Serif" font-size="10.00" fill="#000000">constrainededge</text>
</a>
</g>
</g>
<!-- Node959&#45;&gt;Node961 -->
<g id="edge12" class="edge">
<title>Node959&#45;&gt;Node961</title>
<path fill="none" stroke="#191970" d="M395.6108,-163.769C407.8115,-166.3727 420.837,-168.9602 433,-171 471.283,-177.4204 515.1359,-182.5164 546.9137,-185.8079"/>
<polygon fill="#191970" stroke="#191970" points="396.1088,-160.2956 385.5933,-161.5898 394.6207,-167.1356 396.1088,-160.2956"/>
</g>
<!-- Node960&#45;&gt;Node961 -->
<g id="edge9" class="edge">
<title>Node960&#45;&gt;Node961</title>
<path fill="none" stroke="#191970" d="M511.7098,-164.6804C527.7886,-169.8148 546.0433,-175.6441 560.9809,-180.4141"/>
<polygon fill="#191970" stroke="#191970" points="512.6195,-161.2969 502.0287,-161.589 510.4901,-167.9652 512.6195,-161.2969"/>
</g>
<!-- Node960&#45;&gt;Node962 -->
<g id="edge11" class="edge">
<title>Node960&#45;&gt;Node962</title>
<path fill="none" stroke="#191970" d="M521.2164,-156.0299C553.6884,-159.1072 597.0755,-164.0175 635,-171 648.6064,-173.5052 663.405,-177.0702 676.2337,-180.4367"/>
<polygon fill="#191970" stroke="#191970" points="521.3571,-152.5281 511.0779,-155.0948 520.7142,-159.4985 521.3571,-152.5281"/>
</g>
<!-- Node961&#45;&gt;Node962 -->
<g id="edge10" class="edge">
<title>Node961&#45;&gt;Node962</title>
<path fill="none" stroke="#191970" d="M645.5578,-190C654.0517,-190 662.6808,-190 670.7464,-190"/>
<polygon fill="#191970" stroke="#191970" points="645.3112,-186.5001 635.3112,-190 645.3112,-193.5001 645.3112,-186.5001"/>
</g>
<!-- Node964&#45;&gt;Node955 -->
<g id="edge14" class="edge">
<title>Node964&#45;&gt;Node955</title>
<path fill="none" stroke="#191970" d="M501.0132,-23.8971C522.7257,-34.2972 551.8594,-48.252 571.0171,-57.4284"/>
<polygon fill="#191970" stroke="#191970" points="502.4487,-20.7039 491.9179,-19.5405 499.4247,-27.0171 502.4487,-20.7039"/>
</g>
<!-- Node965&#45;&gt;Node956 -->
<g id="edge18" class="edge">
<title>Node965&#45;&gt;Node956</title>
<path fill="none" stroke="#191970" d="M265.5734,-112.339C361.9019,-108.5808 594.7304,-99.4972 678.9444,-96.2116"/>
<polygon fill="#191970" stroke="#191970" points="265.1865,-108.8514 255.3306,-112.7386 265.4595,-115.846 265.1865,-108.8514"/>
</g>
</g>
</svg>
