<?xml version="1.0" encoding="UTF-8" standalone="no"?>
<!DOCTYPE svg PUBLIC "-//W3C//DTD SVG 1.1//EN"
 "http://www.w3.org/Graphics/SVG/1.1/DTD/svg11.dtd">
<!-- Generated by graphviz version 2.40.1 (20161225.0304)
 -->
<!-- Title: triangulate Pages: 1 -->
<svg width="485pt" height="28pt"
 viewBox="0.00 0.00 485.00 28.00" xmlns="http://www.w3.org/2000/svg" xmlns:xlink="http://www.w3.org/1999/xlink">
<g id="graph0" class="graph" transform="scale(1 1) rotate(0) translate(4 24)">
<title>triangulate</title>
<polygon fill="#ffffff" stroke="transparent" points="-4,4 -4,-24 481,-24 481,4 -4,4"/>
<!-- Node2104 -->
<g id="node1" class="node">
<title>Node2104</title>
<polygon fill="#bfbfbf" stroke="#000000" points="0,-.5 0,-19.5 62,-19.5 62,-.5 0,-.5"/>
<text text-anchor="middle" x="31" y="-7.5" font-family="Helvetica,sans-Serif" font-size="10.00" fill="#000000">triangulate</text>
</g>
<!-- Node2105 -->
<g id="node2" class="node">
<title>Node2105</title>
<g id="a_node2"><a xlink:href="classRiver_1_1Triangle.html#a0dae20b40d446e6009a88543e2c14daf" target="_top" xlink:title="Generate mesh. ">
<polygon fill="#ffffff" stroke="#000000" points="98,-.5 98,-19.5 222,-19.5 222,-.5 98,-.5"/>
<text text-anchor="middle" x="160" y="-7.5" font-family="Helvetica,sans-Serif" font-size="10.00" fill="#000000">River::Triangle::generate</text>
</a>
</g>
</g>
<!-- Node2104&#45;&gt;Node2105 -->
<g id="edge1" class="edge">
<title>Node2104&#45;&gt;Node2105</title>
<path fill="none" stroke="#191970" d="M72.2629,-10C80.4682,-10 89.2527,-10 97.9767,-10"/>
<polygon fill="#191970" stroke="#191970" points="72.2273,-6.5001 62.2273,-10 72.2273,-13.5001 72.2273,-6.5001"/>
</g>
<!-- Node2106 -->
<g id="node3" class="node">
<title>Node2106</title>
<g id="a_node3"><a xlink:href="namespaceRiver.html#af1a3f7c61809dd8032e4ff5920da83cc" target="_top" xlink:title="One step of forward river evolution. ">
<polygon fill="#ffffff" stroke="#000000" points="258,-.5 258,-19.5 403,-19.5 403,-.5 258,-.5"/>
<text text-anchor="middle" x="330.5" y="-7.5" font-family="Helvetica,sans-Serif" font-size="10.00" fill="#000000">River::ForwardRiverEvolution</text>
</a>
</g>
</g>
<!-- Node2105&#45;&gt;Node2106 -->
<g id="edge2" class="edge">
<title>Node2105&#45;&gt;Node2106</title>
<path fill="none" stroke="#191970" d="M232.2431,-10C240.7006,-10 249.333,-10 257.7967,-10"/>
<polygon fill="#191970" stroke="#191970" points="232.0368,-6.5001 222.0367,-10 232.0367,-13.5001 232.0368,-6.5001"/>
</g>
<!-- Node2107 -->
<g id="node4" class="node">
<title>Node2107</title>
<g id="a_node4"><a xlink:href="main_8cpp.html#a0ddf1224851353fc92bfbff6f499fa97" target="_top" xlink:title="Entry point of RiverSim program. ">
<polygon fill="#ffffff" stroke="#000000" points="439,-.5 439,-19.5 477,-19.5 477,-.5 439,-.5"/>
<text text-anchor="middle" x="458" y="-7.5" font-family="Helvetica,sans-Serif" font-size="10.00" fill="#000000">main</text>
</a>
</g>
</g>
<!-- Node2106&#45;&gt;Node2107 -->
<g id="edge3" class="edge">
<title>Node2106&#45;&gt;Node2107</title>
<path fill="none" stroke="#191970" d="M413.2526,-10C422.7338,-10 431.5978,-10 438.8947,-10"/>
<polygon fill="#191970" stroke="#191970" points="413.1886,-6.5001 403.1886,-10 413.1885,-13.5001 413.1886,-6.5001"/>
</g>
</g>
</svg>
