<?xml version="1.0" encoding="UTF-8" standalone="no"?>
<!DOCTYPE svg PUBLIC "-//W3C//DTD SVG 1.1//EN"
 "http://www.w3.org/Graphics/SVG/1.1/DTD/svg11.dtd">
<!-- Generated by graphviz version 2.40.1 (20161225.0304)
 -->
<!-- Title: poolzero Pages: 1 -->
<svg width="671pt" height="28pt"
 viewBox="0.00 0.00 671.00 28.00" xmlns="http://www.w3.org/2000/svg" xmlns:xlink="http://www.w3.org/1999/xlink">
<g id="graph0" class="graph" transform="scale(1 1) rotate(0) translate(4 24)">
<title>poolzero</title>
<polygon fill="#ffffff" stroke="transparent" points="-4,4 -4,-24 667,-24 667,4 -4,4"/>
<!-- Node216 -->
<g id="node1" class="node">
<title>Node216</title>
<polygon fill="#bfbfbf" stroke="#000000" points="0,-.5 0,-19.5 53,-19.5 53,-.5 0,-.5"/>
<text text-anchor="middle" x="26.5" y="-7.5" font-family="Helvetica,sans-Serif" font-size="10.00" fill="#000000">poolzero</text>
</g>
<!-- Node217 -->
<g id="node2" class="node">
<title>Node217</title>
<g id="a_node2"><a xlink:href="triangle_8cpp.html#affc45e9bc533a0e18b0d5ba8dc1409e9" target="_top" xlink:title="triangleinit">
<polygon fill="#ffffff" stroke="#000000" points="89,-.5 89,-19.5 150,-19.5 150,-.5 89,-.5"/>
<text text-anchor="middle" x="119.5" y="-7.5" font-family="Helvetica,sans-Serif" font-size="10.00" fill="#000000">triangleinit</text>
</a>
</g>
</g>
<!-- Node216&#45;&gt;Node217 -->
<g id="edge1" class="edge">
<title>Node216&#45;&gt;Node217</title>
<path fill="none" stroke="#191970" d="M63.6348,-10C71.9588,-10 80.7004,-10 88.7321,-10"/>
<polygon fill="#191970" stroke="#191970" points="63.3995,-6.5001 53.3995,-10 63.3994,-13.5001 63.3995,-6.5001"/>
</g>
<!-- Node218 -->
<g id="node3" class="node">
<title>Node218</title>
<g id="a_node3"><a xlink:href="triangle_8hpp.html#a4ca59bf5fe569672944651426b662ba6" target="_top" xlink:title="Call Triangle. ">
<polygon fill="#ffffff" stroke="#000000" points="186,-.5 186,-19.5 248,-19.5 248,-.5 186,-.5"/>
<text text-anchor="middle" x="217" y="-7.5" font-family="Helvetica,sans-Serif" font-size="10.00" fill="#000000">triangulate</text>
</a>
</g>
</g>
<!-- Node217&#45;&gt;Node218 -->
<g id="edge2" class="edge">
<title>Node217&#45;&gt;Node218</title>
<path fill="none" stroke="#191970" d="M160.2756,-10C168.8294,-10 177.72,-10 185.8551,-10"/>
<polygon fill="#191970" stroke="#191970" points="160.0821,-6.5001 150.0821,-10 160.0821,-13.5001 160.0821,-6.5001"/>
</g>
<!-- Node219 -->
<g id="node4" class="node">
<title>Node219</title>
<g id="a_node4"><a xlink:href="classRiver_1_1Triangle.html#a0dae20b40d446e6009a88543e2c14daf" target="_top" xlink:title="Generate mesh. ">
<polygon fill="#ffffff" stroke="#000000" points="284,-.5 284,-19.5 408,-19.5 408,-.5 284,-.5"/>
<text text-anchor="middle" x="346" y="-7.5" font-family="Helvetica,sans-Serif" font-size="10.00" fill="#000000">River::Triangle::generate</text>
</a>
</g>
</g>
<!-- Node218&#45;&gt;Node219 -->
<g id="edge3" class="edge">
<title>Node218&#45;&gt;Node219</title>
<path fill="none" stroke="#191970" d="M258.2629,-10C266.4682,-10 275.2527,-10 283.9767,-10"/>
<polygon fill="#191970" stroke="#191970" points="258.2273,-6.5001 248.2273,-10 258.2273,-13.5001 258.2273,-6.5001"/>
</g>
<!-- Node220 -->
<g id="node5" class="node">
<title>Node220</title>
<g id="a_node5"><a xlink:href="namespaceRiver.html#af1a3f7c61809dd8032e4ff5920da83cc" target="_top" xlink:title="One step of forward river evolution. ">
<polygon fill="#ffffff" stroke="#000000" points="444,-.5 444,-19.5 589,-19.5 589,-.5 444,-.5"/>
<text text-anchor="middle" x="516.5" y="-7.5" font-family="Helvetica,sans-Serif" font-size="10.00" fill="#000000">River::ForwardRiverEvolution</text>
</a>
</g>
</g>
<!-- Node219&#45;&gt;Node220 -->
<g id="edge4" class="edge">
<title>Node219&#45;&gt;Node220</title>
<path fill="none" stroke="#191970" d="M418.2431,-10C426.7006,-10 435.333,-10 443.7967,-10"/>
<polygon fill="#191970" stroke="#191970" points="418.0368,-6.5001 408.0367,-10 418.0367,-13.5001 418.0368,-6.5001"/>
</g>
<!-- Node221 -->
<g id="node6" class="node">
<title>Node221</title>
<g id="a_node6"><a xlink:href="main_8cpp.html#a0ddf1224851353fc92bfbff6f499fa97" target="_top" xlink:title="Entry point of RiverSim program. ">
<polygon fill="#ffffff" stroke="#000000" points="625,-.5 625,-19.5 663,-19.5 663,-.5 625,-.5"/>
<text text-anchor="middle" x="644" y="-7.5" font-family="Helvetica,sans-Serif" font-size="10.00" fill="#000000">main</text>
</a>
</g>
</g>
<!-- Node220&#45;&gt;Node221 -->
<g id="edge5" class="edge">
<title>Node220&#45;&gt;Node221</title>
<path fill="none" stroke="#191970" d="M599.2526,-10C608.7338,-10 617.5978,-10 624.8947,-10"/>
<polygon fill="#191970" stroke="#191970" points="599.1886,-6.5001 589.1886,-10 599.1885,-13.5001 599.1886,-6.5001"/>
</g>
</g>
</svg>
