<?xml version="1.0" encoding="UTF-8" standalone="no"?>
<!DOCTYPE svg PUBLIC "-//W3C//DTD SVG 1.1//EN"
 "http://www.w3.org/Graphics/SVG/1.1/DTD/svg11.dtd">
<!-- Generated by graphviz version 2.40.1 (20161225.0304)
 -->
<!-- Title: initializevertexpool Pages: 1 -->
<svg width="549pt" height="28pt"
 viewBox="0.00 0.00 549.00 28.00" xmlns="http://www.w3.org/2000/svg" xmlns:xlink="http://www.w3.org/1999/xlink">
<g id="graph0" class="graph" transform="scale(1 1) rotate(0) translate(4 24)">
<title>initializevertexpool</title>
<polygon fill="#ffffff" stroke="transparent" points="-4,4 -4,-24 545,-24 545,4 -4,4"/>
<!-- Node390 -->
<g id="node1" class="node">
<title>Node390</title>
<polygon fill="#bfbfbf" stroke="#000000" points="0,-.5 0,-19.5 97,-19.5 97,-.5 0,-.5"/>
<text text-anchor="middle" x="48.5" y="-7.5" font-family="Helvetica,sans-Serif" font-size="10.00" fill="#000000">initializevertexpool</text>
</g>
<!-- Node391 -->
<g id="node2" class="node">
<title>Node391</title>
<g id="a_node2"><a xlink:href="triangle_8cpp.html#aa2533f1e76d587a6bed1eb2e56d3713c" target="_top" xlink:title="transfernodes">
<polygon fill="#ffffff" stroke="#000000" points="133,-.5 133,-19.5 209,-19.5 209,-.5 133,-.5"/>
<text text-anchor="middle" x="171" y="-7.5" font-family="Helvetica,sans-Serif" font-size="10.00" fill="#000000">transfernodes</text>
</a>
</g>
</g>
<!-- Node390&#45;&gt;Node391 -->
<g id="edge1" class="edge">
<title>Node390&#45;&gt;Node391</title>
<path fill="none" stroke="#191970" d="M107.4011,-10C116.0941,-10 124.8504,-10 132.968,-10"/>
<polygon fill="#191970" stroke="#191970" points="107.2673,-6.5001 97.2672,-10 107.2672,-13.5001 107.2673,-6.5001"/>
</g>
<!-- Node392 -->
<g id="node3" class="node">
<title>Node392</title>
<g id="a_node3"><a xlink:href="triangle_8hpp.html#a848df2990f66cdbdc9d1ac87f4646527" target="_top" xlink:title="Call Triangle. ">
<polygon fill="#ffffff" stroke="#000000" points="245,-.5 245,-19.5 307,-19.5 307,-.5 245,-.5"/>
<text text-anchor="middle" x="276" y="-7.5" font-family="Helvetica,sans-Serif" font-size="10.00" fill="#000000">triangulate</text>
</a>
</g>
</g>
<!-- Node391&#45;&gt;Node392 -->
<g id="edge2" class="edge">
<title>Node391&#45;&gt;Node392</title>
<path fill="none" stroke="#191970" d="M219.2862,-10C227.9842,-10 236.8375,-10 244.8828,-10"/>
<polygon fill="#191970" stroke="#191970" points="219.2045,-6.5001 209.2044,-10 219.2044,-13.5001 219.2045,-6.5001"/>
</g>
<!-- Node393 -->
<g id="node4" class="node">
<title>Node393</title>
<g id="a_node4"><a xlink:href="classRiver_1_1Triangle.html#a7bc9c5a5297dee136ab1489a923182dd" target="_top" xlink:title="Generate mesh. ">
<polygon fill="#ffffff" stroke="#000000" points="343,-.5 343,-19.5 467,-19.5 467,-.5 343,-.5"/>
<text text-anchor="middle" x="405" y="-7.5" font-family="Helvetica,sans-Serif" font-size="10.00" fill="#000000">River::Triangle::generate</text>
</a>
</g>
</g>
<!-- Node392&#45;&gt;Node393 -->
<g id="edge3" class="edge">
<title>Node392&#45;&gt;Node393</title>
<path fill="none" stroke="#191970" d="M317.2629,-10C325.4682,-10 334.2527,-10 342.9767,-10"/>
<polygon fill="#191970" stroke="#191970" points="317.2273,-6.5001 307.2273,-10 317.2273,-13.5001 317.2273,-6.5001"/>
</g>
<!-- Node394 -->
<g id="node5" class="node">
<title>Node394</title>
<g id="a_node5"><a xlink:href="main_8cpp.html#a0ddf1224851353fc92bfbff6f499fa97" target="_top" xlink:title="Entry point of RiverSim program. ">
<polygon fill="#ffffff" stroke="#000000" points="503,-.5 503,-19.5 541,-19.5 541,-.5 503,-.5"/>
<text text-anchor="middle" x="522" y="-7.5" font-family="Helvetica,sans-Serif" font-size="10.00" fill="#000000">main</text>
</a>
</g>
</g>
<!-- Node393&#45;&gt;Node394 -->
<g id="edge4" class="edge">
<title>Node393&#45;&gt;Node394</title>
<path fill="none" stroke="#191970" d="M477.5174,-10C486.8253,-10 495.6301,-10 502.912,-10"/>
<polygon fill="#191970" stroke="#191970" points="477.2682,-6.5001 467.2682,-10 477.2682,-13.5001 477.2682,-6.5001"/>
</g>
</g>
</svg>
