<?xml version="1.0" encoding="UTF-8" standalone="no"?>
<!DOCTYPE svg PUBLIC "-//W3C//DTD SVG 1.1//EN"
 "http://www.w3.org/Graphics/SVG/1.1/DTD/svg11.dtd">
<!-- Generated by graphviz version 2.40.1 (20161225.0304)
 -->
<!-- Title: enforcequality Pages: 1 -->
<svg width="598pt" height="28pt"
 viewBox="0.00 0.00 598.00 28.00" xmlns="http://www.w3.org/2000/svg" xmlns:xlink="http://www.w3.org/1999/xlink">
<g id="graph0" class="graph" transform="scale(1 1) rotate(0) translate(4 24)">
<title>enforcequality</title>
<polygon fill="#ffffff" stroke="transparent" points="-4,4 -4,-24 594,-24 594,4 -4,4"/>
<!-- Node1871 -->
<g id="node1" class="node">
<title>Node1871</title>
<polygon fill="#bfbfbf" stroke="#000000" points="0,-.5 0,-19.5 77,-19.5 77,-.5 0,-.5"/>
<text text-anchor="middle" x="38.5" y="-7.5" font-family="Helvetica,sans-Serif" font-size="10.00" fill="#000000">enforcequality</text>
</g>
<!-- Node1872 -->
<g id="node2" class="node">
<title>Node1872</title>
<g id="a_node2"><a xlink:href="triangle_8hpp.html#a4ca59bf5fe569672944651426b662ba6" target="_top" xlink:title="Call Triangle. ">
<polygon fill="#ffffff" stroke="#000000" points="113,-.5 113,-19.5 175,-19.5 175,-.5 113,-.5"/>
<text text-anchor="middle" x="144" y="-7.5" font-family="Helvetica,sans-Serif" font-size="10.00" fill="#000000">triangulate</text>
</a>
</g>
</g>
<!-- Node1871&#45;&gt;Node1872 -->
<g id="edge1" class="edge">
<title>Node1871&#45;&gt;Node1872</title>
<path fill="none" stroke="#191970" d="M87.2905,-10C96.0043,-10 104.863,-10 112.9082,-10"/>
<polygon fill="#191970" stroke="#191970" points="87.1853,-6.5001 77.1852,-10 87.1852,-13.5001 87.1853,-6.5001"/>
</g>
<!-- Node1873 -->
<g id="node3" class="node">
<title>Node1873</title>
<g id="a_node3"><a xlink:href="classRiver_1_1Triangle.html#a0dae20b40d446e6009a88543e2c14daf" target="_top" xlink:title="Generate mesh. ">
<polygon fill="#ffffff" stroke="#000000" points="211,-.5 211,-19.5 335,-19.5 335,-.5 211,-.5"/>
<text text-anchor="middle" x="273" y="-7.5" font-family="Helvetica,sans-Serif" font-size="10.00" fill="#000000">River::Triangle::generate</text>
</a>
</g>
</g>
<!-- Node1872&#45;&gt;Node1873 -->
<g id="edge2" class="edge">
<title>Node1872&#45;&gt;Node1873</title>
<path fill="none" stroke="#191970" d="M185.2629,-10C193.4682,-10 202.2527,-10 210.9767,-10"/>
<polygon fill="#191970" stroke="#191970" points="185.2273,-6.5001 175.2273,-10 185.2273,-13.5001 185.2273,-6.5001"/>
</g>
<!-- Node1874 -->
<g id="node4" class="node">
<title>Node1874</title>
<g id="a_node4"><a xlink:href="namespaceRiver.html#af1a3f7c61809dd8032e4ff5920da83cc" target="_top" xlink:title="One step of forward river evolution. ">
<polygon fill="#ffffff" stroke="#000000" points="371,-.5 371,-19.5 516,-19.5 516,-.5 371,-.5"/>
<text text-anchor="middle" x="443.5" y="-7.5" font-family="Helvetica,sans-Serif" font-size="10.00" fill="#000000">River::ForwardRiverEvolution</text>
</a>
</g>
</g>
<!-- Node1873&#45;&gt;Node1874 -->
<g id="edge3" class="edge">
<title>Node1873&#45;&gt;Node1874</title>
<path fill="none" stroke="#191970" d="M345.2431,-10C353.7006,-10 362.333,-10 370.7967,-10"/>
<polygon fill="#191970" stroke="#191970" points="345.0368,-6.5001 335.0367,-10 345.0367,-13.5001 345.0368,-6.5001"/>
</g>
<!-- Node1875 -->
<g id="node5" class="node">
<title>Node1875</title>
<g id="a_node5"><a xlink:href="main_8cpp.html#a0ddf1224851353fc92bfbff6f499fa97" target="_top" xlink:title="Entry point of RiverSim program. ">
<polygon fill="#ffffff" stroke="#000000" points="552,-.5 552,-19.5 590,-19.5 590,-.5 552,-.5"/>
<text text-anchor="middle" x="571" y="-7.5" font-family="Helvetica,sans-Serif" font-size="10.00" fill="#000000">main</text>
</a>
</g>
</g>
<!-- Node1874&#45;&gt;Node1875 -->
<g id="edge4" class="edge">
<title>Node1874&#45;&gt;Node1875</title>
<path fill="none" stroke="#191970" d="M526.2526,-10C535.7338,-10 544.5978,-10 551.8947,-10"/>
<polygon fill="#191970" stroke="#191970" points="526.1886,-6.5001 516.1886,-10 526.1885,-13.5001 526.1886,-6.5001"/>
</g>
</g>
</svg>
