<?xml version="1.0" encoding="UTF-8" standalone="no"?>
<!DOCTYPE svg PUBLIC "-//W3C//DTD SVG 1.1//EN"
 "http://www.w3.org/Graphics/SVG/1.1/DTD/svg11.dtd">
<!-- Generated by graphviz version 2.40.1 (20161225.0304)
 -->
<!-- Title: enqueuebadtri Pages: 1 -->
<svg width="380pt" height="66pt"
 viewBox="0.00 0.00 380.00 66.00" xmlns="http://www.w3.org/2000/svg" xmlns:xlink="http://www.w3.org/1999/xlink">
<g id="graph0" class="graph" transform="scale(1 1) rotate(0) translate(4 62)">
<title>enqueuebadtri</title>
<polygon fill="#ffffff" stroke="transparent" points="-4,4 -4,-62 376,-62 376,4 -4,4"/>
<!-- Node864 -->
<g id="node1" class="node">
<title>Node864</title>
<polygon fill="#bfbfbf" stroke="#000000" points="0,-19.5 0,-38.5 77,-38.5 77,-19.5 0,-19.5"/>
<text text-anchor="middle" x="38.5" y="-26.5" font-family="Helvetica,sans-Serif" font-size="10.00" fill="#000000">enqueuebadtri</text>
</g>
<!-- Node865 -->
<g id="node2" class="node">
<title>Node865</title>
<g id="a_node2"><a xlink:href="triangle_8cpp.html#ab1760445583959132ffd9998372c9aac" target="_top" xlink:title="poolalloc">
<polygon fill="#ffffff" stroke="#000000" points="132,-38.5 132,-57.5 187,-57.5 187,-38.5 132,-38.5"/>
<text text-anchor="middle" x="159.5" y="-45.5" font-family="Helvetica,sans-Serif" font-size="10.00" fill="#000000">poolalloc</text>
</a>
</g>
</g>
<!-- Node864&#45;&gt;Node865 -->
<g id="edge1" class="edge">
<title>Node864&#45;&gt;Node865</title>
<path fill="none" stroke="#191970" d="M77.1178,-35.064C91.4767,-37.3187 107.7362,-39.8718 121.994,-42.1106"/>
<polygon fill="#191970" stroke="#191970" points="121.5445,-45.5828 131.9664,-43.6765 122.6304,-38.6676 121.5445,-45.5828"/>
</g>
<!-- Node868 -->
<g id="node5" class="node">
<title>Node868</title>
<g id="a_node5"><a xlink:href="triangle_8cpp.html#a8b69474415bac9ddab3a5879974338b5" target="_top" xlink:title="enqueuebadtriang">
<polygon fill="#ffffff" stroke="#000000" points="113,-.5 113,-19.5 206,-19.5 206,-.5 113,-.5"/>
<text text-anchor="middle" x="159.5" y="-7.5" font-family="Helvetica,sans-Serif" font-size="10.00" fill="#000000">enqueuebadtriang</text>
</a>
</g>
</g>
<!-- Node864&#45;&gt;Node868 -->
<g id="edge4" class="edge">
<title>Node864&#45;&gt;Node868</title>
<path fill="none" stroke="#191970" d="M77.1178,-22.936C85.2704,-21.6559 94.0357,-20.2795 102.6994,-18.9191"/>
<polygon fill="#191970" stroke="#191970" points="103.4445,-22.3451 112.7805,-17.3361 102.3585,-15.4298 103.4445,-22.3451"/>
</g>
<!-- Node866 -->
<g id="node3" class="node">
<title>Node866</title>
<g id="a_node3"><a xlink:href="triangle_8cpp.html#a5f51f1d3957615b2c84a91fd9f5f09bf" target="_top" xlink:title="trimalloc">
<polygon fill="#ffffff" stroke="#000000" points="242,-38.5 242,-57.5 295,-57.5 295,-38.5 242,-38.5"/>
<text text-anchor="middle" x="268.5" y="-45.5" font-family="Helvetica,sans-Serif" font-size="10.00" fill="#000000">trimalloc</text>
</a>
</g>
</g>
<!-- Node865&#45;&gt;Node866 -->
<g id="edge2" class="edge">
<title>Node865&#45;&gt;Node866</title>
<path fill="none" stroke="#191970" d="M187.0053,-48C200.5046,-48 216.9601,-48 231.5406,-48"/>
<polygon fill="#191970" stroke="#191970" points="231.7571,-51.5001 241.7571,-48 231.7571,-44.5001 231.7571,-51.5001"/>
</g>
<!-- Node867 -->
<g id="node4" class="node">
<title>Node867</title>
<g id="a_node4"><a xlink:href="triangle_8cpp.html#a648abfc70d158485620dbcb9aa990178" target="_top" xlink:title="triexit">
<polygon fill="#ffffff" stroke="#000000" points="331,-38.5 331,-57.5 372,-57.5 372,-38.5 331,-38.5"/>
<text text-anchor="middle" x="351.5" y="-45.5" font-family="Helvetica,sans-Serif" font-size="10.00" fill="#000000">triexit</text>
</a>
</g>
</g>
<!-- Node866&#45;&gt;Node867 -->
<g id="edge3" class="edge">
<title>Node866&#45;&gt;Node867</title>
<path fill="none" stroke="#191970" d="M295.2186,-48C303.3489,-48 312.3499,-48 320.7251,-48"/>
<polygon fill="#191970" stroke="#191970" points="320.8865,-51.5001 330.8865,-48 320.8865,-44.5001 320.8865,-51.5001"/>
</g>
</g>
</svg>
