<?xml version="1.0" encoding="UTF-8" standalone="no"?>
<!DOCTYPE svg PUBLIC "-//W3C//DTD SVG 1.1//EN"
 "http://www.w3.org/Graphics/SVG/1.1/DTD/svg11.dtd">
<!-- Generated by graphviz version 2.40.1 (20161225.0304)
 -->
<!-- Title: segmentintersection Pages: 1 -->
<svg width="918pt" height="591pt"
 viewBox="0.00 0.00 918.00 591.16" xmlns="http://www.w3.org/2000/svg" xmlns:xlink="http://www.w3.org/1999/xlink">
<g id="graph0" class="graph" transform="scale(1 1) rotate(0) translate(4 587.1566)">
<title>segmentintersection</title>
<polygon fill="#ffffff" stroke="transparent" points="-4,4 -4,-587.1566 914,-587.1566 914,4 -4,4"/>
<!-- Node1334 -->
<g id="node1" class="node">
<title>Node1334</title>
<polygon fill="#bfbfbf" stroke="#000000" points="0,-506.6566 0,-525.6566 104,-525.6566 104,-506.6566 0,-506.6566"/>
<text text-anchor="middle" x="52" y="-513.6566" font-family="Helvetica,sans-Serif" font-size="10.00" fill="#000000">segmentintersection</text>
</g>
<!-- Node1335 -->
<g id="node2" class="node">
<title>Node1335</title>
<g id="a_node2"><a xlink:href="triangle_8cpp.html#acc5f6f0f74028ace8827250ac3e0e05e" target="_top" xlink:title="internalerror">
<polygon fill="#ffffff" stroke="#000000" points="263,-563.6566 263,-582.6566 331,-582.6566 331,-563.6566 263,-563.6566"/>
<text text-anchor="middle" x="297" y="-570.6566" font-family="Helvetica,sans-Serif" font-size="10.00" fill="#000000">internalerror</text>
</a>
</g>
</g>
<!-- Node1334&#45;&gt;Node1335 -->
<g id="edge1" class="edge">
<title>Node1334&#45;&gt;Node1335</title>
<path fill="none" stroke="#191970" d="M73.6527,-525.7163C91.2205,-533.1189 116.7915,-543.101 140,-549.1566 177.3941,-558.9136 220.902,-565.1807 252.6207,-568.8548"/>
<polygon fill="#191970" stroke="#191970" points="252.573,-572.3711 262.8997,-570.0026 253.3499,-565.4143 252.573,-572.3711"/>
</g>
<!-- Node1337 -->
<g id="node4" class="node">
<title>Node1337</title>
<g id="a_node4"><a xlink:href="triangle_8cpp.html#ab1760445583959132ffd9998372c9aac" target="_top" xlink:title="poolalloc">
<polygon fill="#ffffff" stroke="#000000" points="517,-449.6566 517,-468.6566 572,-468.6566 572,-449.6566 517,-449.6566"/>
<text text-anchor="middle" x="544.5" y="-456.6566" font-family="Helvetica,sans-Serif" font-size="10.00" fill="#000000">poolalloc</text>
</a>
</g>
</g>
<!-- Node1334&#45;&gt;Node1337 -->
<g id="edge3" class="edge">
<title>Node1334&#45;&gt;Node1337</title>
<path fill="none" stroke="#191970" d="M104.2136,-519.4447C163.666,-522.4266 263.618,-525.1237 349,-516.1566 400.0616,-510.794 412.8738,-507.0787 462,-492.1566 479.5567,-486.8238 498.6089,-479.3225 513.9767,-472.819"/>
<polygon fill="#191970" stroke="#191970" points="515.6903,-475.8919 523.4907,-468.7222 512.9218,-469.4626 515.6903,-475.8919"/>
</g>
<!-- Node1339 -->
<g id="node6" class="node">
<title>Node1339</title>
<g id="a_node6"><a xlink:href="triangle_8cpp.html#a2ede94743503e369e9b1c6c2a0ac9f7f" target="_top" xlink:title="insertvertex">
<polygon fill="#ffffff" stroke="#000000" points="140.5,-240.6566 140.5,-259.6566 208.5,-259.6566 208.5,-240.6566 140.5,-240.6566"/>
<text text-anchor="middle" x="174.5" y="-247.6566" font-family="Helvetica,sans-Serif" font-size="10.00" fill="#000000">insertvertex</text>
</a>
</g>
</g>
<!-- Node1334&#45;&gt;Node1339 -->
<g id="edge6" class="edge">
<title>Node1334&#45;&gt;Node1339</title>
<path fill="none" stroke="#191970" d="M56.5051,-506.3741C74.5536,-467.1831 141.8164,-321.1268 165.8748,-268.8855"/>
<polygon fill="#191970" stroke="#191970" points="169.0791,-270.2948 170.0831,-259.7476 162.721,-267.3667 169.0791,-270.2948"/>
</g>
<!-- Node1361 -->
<g id="node28" class="node">
<title>Node1361</title>
<g id="a_node28"><a xlink:href="triangle_8cpp.html#add01d18cf8d218a091d600fd0c97fb67" target="_top" xlink:title="finddirection">
<polygon fill="#ffffff" stroke="#000000" points="140,-487.6566 140,-506.6566 209,-506.6566 209,-487.6566 140,-487.6566"/>
<text text-anchor="middle" x="174.5" y="-494.6566" font-family="Helvetica,sans-Serif" font-size="10.00" fill="#000000">finddirection</text>
</a>
</g>
</g>
<!-- Node1334&#45;&gt;Node1361 -->
<g id="edge38" class="edge">
<title>Node1334&#45;&gt;Node1361</title>
<path fill="none" stroke="#191970" d="M104.3064,-508.0438C112.7196,-506.7389 121.3628,-505.3983 129.5827,-504.1234"/>
<polygon fill="#191970" stroke="#191970" points="130.3736,-507.5427 139.719,-502.5512 129.3007,-500.6254 130.3736,-507.5427"/>
</g>
<!-- Node1336 -->
<g id="node3" class="node">
<title>Node1336</title>
<g id="a_node3"><a xlink:href="triangle_8cpp.html#a648abfc70d158485620dbcb9aa990178" target="_top" xlink:title="triexit">
<polygon fill="#ffffff" stroke="#000000" points="824,-506.6566 824,-525.6566 865,-525.6566 865,-506.6566 824,-506.6566"/>
<text text-anchor="middle" x="844.5" y="-513.6566" font-family="Helvetica,sans-Serif" font-size="10.00" fill="#000000">triexit</text>
</a>
</g>
</g>
<!-- Node1335&#45;&gt;Node1336 -->
<g id="edge2" class="edge">
<title>Node1335&#45;&gt;Node1336</title>
<path fill="none" stroke="#191970" d="M331.2486,-569.591C430.7699,-559.2299 718.864,-529.2366 813.7743,-519.3555"/>
<polygon fill="#191970" stroke="#191970" points="814.2813,-522.8217 823.8651,-518.3049 813.5564,-515.8593 814.2813,-522.8217"/>
</g>
<!-- Node1338 -->
<g id="node5" class="node">
<title>Node1338</title>
<g id="a_node5"><a xlink:href="triangle_8cpp.html#a5f51f1d3957615b2c84a91fd9f5f09bf" target="_top" xlink:title="trimalloc">
<polygon fill="#ffffff" stroke="#000000" points="658.5,-477.6566 658.5,-496.6566 711.5,-496.6566 711.5,-477.6566 658.5,-477.6566"/>
<text text-anchor="middle" x="685" y="-484.6566" font-family="Helvetica,sans-Serif" font-size="10.00" fill="#000000">trimalloc</text>
</a>
</g>
</g>
<!-- Node1337&#45;&gt;Node1338 -->
<g id="edge4" class="edge">
<title>Node1337&#45;&gt;Node1338</title>
<path fill="none" stroke="#191970" d="M572.2583,-464.6885C593.9933,-469.0201 624.421,-475.084 648.1885,-479.8205"/>
<polygon fill="#191970" stroke="#191970" points="647.7614,-483.3042 658.2527,-481.8262 649.1296,-476.4392 647.7614,-483.3042"/>
</g>
<!-- Node1338&#45;&gt;Node1336 -->
<g id="edge5" class="edge">
<title>Node1338&#45;&gt;Node1336</title>
<path fill="none" stroke="#191970" d="M711.6967,-492.0106C739.8148,-497.123 784.0362,-505.1632 813.6336,-510.5446"/>
<polygon fill="#191970" stroke="#191970" points="813.3545,-514.0511 823.8193,-512.3965 814.6068,-507.164 813.3545,-514.0511"/>
</g>
<!-- Node1339&#45;&gt;Node1337 -->
<g id="edge16" class="edge">
<title>Node1339&#45;&gt;Node1337</title>
<path fill="none" stroke="#191970" d="M176.1979,-259.9094C181.3633,-286.5909 199.4116,-361.3771 245,-400.1566 320.1737,-464.1027 444.4669,-466.2355 506.6355,-462.648"/>
<polygon fill="#191970" stroke="#191970" points="507.0319,-466.1295 516.7798,-461.9788 506.5711,-459.1447 507.0319,-466.1295"/>
</g>
<!-- Node1340 -->
<g id="node7" class="node">
<title>Node1340</title>
<g id="a_node7"><a xlink:href="triangle_8cpp.html#a51073193cbdba1daea4186d1458890e8" target="_top" xlink:title="locate">
<polygon fill="#ffffff" stroke="#000000" points="275.5,-145.6566 275.5,-164.6566 318.5,-164.6566 318.5,-145.6566 275.5,-145.6566"/>
<text text-anchor="middle" x="297" y="-152.6566" font-family="Helvetica,sans-Serif" font-size="10.00" fill="#000000">locate</text>
</a>
</g>
</g>
<!-- Node1339&#45;&gt;Node1340 -->
<g id="edge7" class="edge">
<title>Node1339&#45;&gt;Node1340</title>
<path fill="none" stroke="#191970" d="M182.2741,-240.333C194.393,-225.5229 219.099,-197.2852 245,-179.1566 251.3843,-174.6881 258.7334,-170.7062 265.8582,-167.3318"/>
<polygon fill="#191970" stroke="#191970" points="267.6109,-170.3827 275.323,-163.1181 264.7639,-163.9878 267.6109,-170.3827"/>
</g>
<!-- Node1342 -->
<g id="node9" class="node">
<title>Node1342</title>
<g id="a_node9"><a xlink:href="triangle_8cpp.html#adbb7ef8fc2a92efceb7c1c152fbd22f1" target="_top" xlink:title="counterclockwise">
<polygon fill="#ffffff" stroke="#000000" points="498.5,-107.6566 498.5,-126.6566 590.5,-126.6566 590.5,-107.6566 498.5,-107.6566"/>
<text text-anchor="middle" x="544.5" y="-114.6566" font-family="Helvetica,sans-Serif" font-size="10.00" fill="#000000">counterclockwise</text>
</a>
</g>
</g>
<!-- Node1339&#45;&gt;Node1342 -->
<g id="edge27" class="edge">
<title>Node1339&#45;&gt;Node1342</title>
<path fill="none" stroke="#191970" d="M175.9417,-240.6042C182.1515,-200.8667 207.9872,-49.4537 245,-22.1566 336.0941,45.0256 476.2789,-59.1102 526.1299,-100.9828"/>
<polygon fill="#191970" stroke="#191970" points="523.9721,-103.7427 533.8478,-107.5795 528.5203,-98.4216 523.9721,-103.7427"/>
</g>
<!-- Node1346 -->
<g id="node13" class="node">
<title>Node1346</title>
<g id="a_node13"><a xlink:href="triangle_8cpp.html#a34a6e2c35be028da265a50ab3d9d6be6" target="_top" xlink:title="preciselocate">
<polygon fill="#ffffff" stroke="#000000" points="386.5,-69.6566 386.5,-88.6566 460.5,-88.6566 460.5,-69.6566 386.5,-69.6566"/>
<text text-anchor="middle" x="423.5" y="-76.6566" font-family="Helvetica,sans-Serif" font-size="10.00" fill="#000000">preciselocate</text>
</a>
</g>
</g>
<!-- Node1339&#45;&gt;Node1346 -->
<g id="edge15" class="edge">
<title>Node1339&#45;&gt;Node1346</title>
<path fill="none" stroke="#191970" d="M177.7594,-240.6182C185.6988,-218.8046 208.1358,-164.9458 245,-136.1566 255.824,-127.7037 330.0365,-105.6008 379.3015,-91.5339"/>
<polygon fill="#191970" stroke="#191970" points="380.438,-94.8496 389.0995,-88.7481 378.5235,-88.1164 380.438,-94.8496"/>
</g>
<!-- Node1347 -->
<g id="node14" class="node">
<title>Node1347</title>
<g id="a_node14"><a xlink:href="triangle_8cpp.html#a5f18f6286348f31f222aedb01e8516d4" target="_top" xlink:title="maketriangle">
<polygon fill="#ffffff" stroke="#000000" points="387.5,-411.6566 387.5,-430.6566 459.5,-430.6566 459.5,-411.6566 387.5,-411.6566"/>
<text text-anchor="middle" x="423.5" y="-418.6566" font-family="Helvetica,sans-Serif" font-size="10.00" fill="#000000">maketriangle</text>
</a>
</g>
</g>
<!-- Node1339&#45;&gt;Node1347 -->
<g id="edge17" class="edge">
<title>Node1339&#45;&gt;Node1347</title>
<path fill="none" stroke="#191970" d="M177.7594,-259.6951C185.6988,-281.5087 208.1358,-335.3675 245,-364.1566 283.5989,-394.3005 338.5306,-408.7031 377.2366,-415.4538"/>
<polygon fill="#191970" stroke="#191970" points="376.7669,-418.9234 387.2012,-417.086 377.8985,-412.0155 376.7669,-418.9234"/>
</g>
<!-- Node1348 -->
<g id="node15" class="node">
<title>Node1348</title>
<g id="a_node15"><a xlink:href="triangle_8cpp.html#a65e7d1a5e6cdb3f22124eca6e7744140" target="_top" xlink:title="insertsubseg">
<polygon fill="#ffffff" stroke="#000000" points="261,-335.6566 261,-354.6566 333,-354.6566 333,-335.6566 261,-335.6566"/>
<text text-anchor="middle" x="297" y="-342.6566" font-family="Helvetica,sans-Serif" font-size="10.00" fill="#000000">insertsubseg</text>
</a>
</g>
</g>
<!-- Node1339&#45;&gt;Node1348 -->
<g id="edge19" class="edge">
<title>Node1339&#45;&gt;Node1348</title>
<path fill="none" stroke="#191970" d="M187.1483,-259.9655C208.3479,-276.4061 251.2274,-309.6595 276.6915,-329.4072"/>
<polygon fill="#191970" stroke="#191970" points="274.5559,-332.1801 284.603,-335.5426 278.8457,-326.6486 274.5559,-332.1801"/>
</g>
<!-- Node1351 -->
<g id="node18" class="node">
<title>Node1351</title>
<g id="a_node18"><a xlink:href="triangle_8cpp.html#a2657afcbf1c107955b10ccf7dbf14c90" target="_top" xlink:title="poolrestart">
<polygon fill="#ffffff" stroke="#000000" points="266,-69.6566 266,-88.6566 328,-88.6566 328,-69.6566 266,-69.6566"/>
<text text-anchor="middle" x="297" y="-76.6566" font-family="Helvetica,sans-Serif" font-size="10.00" fill="#000000">poolrestart</text>
</a>
</g>
</g>
<!-- Node1339&#45;&gt;Node1351 -->
<g id="edge23" class="edge">
<title>Node1339&#45;&gt;Node1351</title>
<path fill="none" stroke="#191970" d="M176.6729,-240.5813C182.9291,-215.0106 203.266,-144.2783 245,-103.1566 248.798,-99.4144 253.2865,-96.1868 258.0096,-93.4226"/>
<polygon fill="#191970" stroke="#191970" points="259.9696,-96.3504 267.2617,-88.6642 256.7681,-90.1254 259.9696,-96.3504"/>
</g>
<!-- Node1352 -->
<g id="node19" class="node">
<title>Node1352</title>
<g id="a_node19"><a xlink:href="triangle_8cpp.html#a62ccb7c855c68af7a6918e23ccb158e6" target="_top" xlink:title="printtriangle">
<polygon fill="#ffffff" stroke="#000000" points="263.5,-31.6566 263.5,-50.6566 330.5,-50.6566 330.5,-31.6566 263.5,-31.6566"/>
<text text-anchor="middle" x="297" y="-38.6566" font-family="Helvetica,sans-Serif" font-size="10.00" fill="#000000">printtriangle</text>
</a>
</g>
</g>
<!-- Node1339&#45;&gt;Node1352 -->
<g id="edge24" class="edge">
<title>Node1339&#45;&gt;Node1352</title>
<path fill="none" stroke="#191970" d="M175.3026,-240.3498C178.3484,-209.4464 191.8765,-113.0157 245,-60.1566 247.7147,-57.4555 250.844,-55.1349 254.1931,-53.1418"/>
<polygon fill="#191970" stroke="#191970" points="256.0093,-56.149 263.4378,-48.5946 252.9197,-49.8677 256.0093,-56.149"/>
</g>
<!-- Node1353 -->
<g id="node20" class="node">
<title>Node1353</title>
<g id="a_node20"><a xlink:href="triangle_8cpp.html#a6f0c7fd3fa9fb9a02403f67c7651feac" target="_top" xlink:title="checkseg4encroach">
<polygon fill="#ffffff" stroke="#000000" points="245,-487.6566 245,-506.6566 349,-506.6566 349,-487.6566 245,-487.6566"/>
<text text-anchor="middle" x="297" y="-494.6566" font-family="Helvetica,sans-Serif" font-size="10.00" fill="#000000">checkseg4encroach</text>
</a>
</g>
</g>
<!-- Node1339&#45;&gt;Node1353 -->
<g id="edge25" class="edge">
<title>Node1339&#45;&gt;Node1353</title>
<path fill="none" stroke="#191970" d="M174.879,-259.9687C176.6906,-293.8361 187.0178,-407.3528 245,-473.1566 248.2394,-476.8331 252.1587,-479.9834 256.3759,-482.674"/>
<polygon fill="#191970" stroke="#191970" points="254.876,-485.8429 265.3287,-487.5723 258.2359,-479.702 254.876,-485.8429"/>
</g>
<!-- Node1354 -->
<g id="node21" class="node">
<title>Node1354</title>
<g id="a_node21"><a xlink:href="triangle_8cpp.html#abbd721e83ed16c99082c2152fa55e2ee" target="_top" xlink:title="incircle">
<polygon fill="#ffffff" stroke="#000000" points="521,-212.6566 521,-231.6566 568,-231.6566 568,-212.6566 521,-212.6566"/>
<text text-anchor="middle" x="544.5" y="-219.6566" font-family="Helvetica,sans-Serif" font-size="10.00" fill="#000000">incircle</text>
</a>
</g>
</g>
<!-- Node1339&#45;&gt;Node1354 -->
<g id="edge28" class="edge">
<title>Node1339&#45;&gt;Node1354</title>
<path fill="none" stroke="#191970" d="M208.6455,-247.5727C279.2637,-242.2286 440.6228,-230.0176 510.8309,-224.7046"/>
<polygon fill="#191970" stroke="#191970" points="511.1906,-228.1875 520.898,-223.9427 510.6623,-221.2074 511.1906,-228.1875"/>
</g>
<!-- Node1357 -->
<g id="node24" class="node">
<title>Node1357</title>
<g id="a_node24"><a xlink:href="triangle_8cpp.html#a816cae4d440df52b7bc162b05f92cc75" target="_top" xlink:title="testtriangle">
<polygon fill="#ffffff" stroke="#000000" points="264.5,-259.6566 264.5,-278.6566 329.5,-278.6566 329.5,-259.6566 264.5,-259.6566"/>
<text text-anchor="middle" x="297" y="-266.6566" font-family="Helvetica,sans-Serif" font-size="10.00" fill="#000000">testtriangle</text>
</a>
</g>
</g>
<!-- Node1339&#45;&gt;Node1357 -->
<g id="edge33" class="edge">
<title>Node1339&#45;&gt;Node1357</title>
<path fill="none" stroke="#191970" d="M208.6231,-255.4492C222.7731,-257.6439 239.3437,-260.214 254.2886,-262.532"/>
<polygon fill="#191970" stroke="#191970" points="253.9073,-266.0146 264.3256,-264.0888 254.9803,-259.0974 253.9073,-266.0146"/>
</g>
<!-- Node1341 -->
<g id="node8" class="node">
<title>Node1341</title>
<g id="a_node8"><a xlink:href="triangle_8cpp.html#abafde1fa8bfde5489dced6485939a19f" target="_top" xlink:title="randomnation">
<polygon fill="#ffffff" stroke="#000000" points="386,-145.6566 386,-164.6566 461,-164.6566 461,-145.6566 386,-145.6566"/>
<text text-anchor="middle" x="423.5" y="-152.6566" font-family="Helvetica,sans-Serif" font-size="10.00" fill="#000000">randomnation</text>
</a>
</g>
</g>
<!-- Node1340&#45;&gt;Node1341 -->
<g id="edge8" class="edge">
<title>Node1340&#45;&gt;Node1341</title>
<path fill="none" stroke="#191970" d="M318.7461,-155.1566C334.4467,-155.1566 356.2559,-155.1566 375.9118,-155.1566"/>
<polygon fill="#191970" stroke="#191970" points="375.9505,-158.6567 385.9505,-155.1566 375.9504,-151.6567 375.9505,-158.6567"/>
</g>
<!-- Node1340&#45;&gt;Node1342 -->
<g id="edge9" class="edge">
<title>Node1340&#45;&gt;Node1342</title>
<path fill="none" stroke="#191970" d="M318.5893,-149.9011C336.3372,-145.7245 362.1843,-139.9699 385,-136.1566 419.1022,-130.457 457.5844,-125.8215 488.2049,-122.5564"/>
<polygon fill="#191970" stroke="#191970" points="488.6893,-126.0249 498.2702,-121.502 487.96,-119.063 488.6893,-126.0249"/>
</g>
<!-- Node1340&#45;&gt;Node1346 -->
<g id="edge13" class="edge">
<title>Node1340&#45;&gt;Node1346</title>
<path fill="none" stroke="#191970" d="M318.5651,-146.5248C328.1459,-142.3586 339.4023,-136.9979 349,-131.1566 366.3151,-120.6185 368.3771,-114.7559 385,-103.1566 389.3297,-100.1354 394.0317,-97.0509 398.614,-94.1434"/>
<polygon fill="#191970" stroke="#191970" points="400.5071,-97.0877 407.1493,-88.8334 396.8095,-91.144 400.5071,-97.0877"/>
</g>
<!-- Node1343 -->
<g id="node10" class="node">
<title>Node1343</title>
<g id="a_node10"><a xlink:href="triangle_8cpp.html#abd5587da82afca7f6403c3ec3d17139a" target="_top" xlink:title="counterclockwiseadapt">
<polygon fill="#ffffff" stroke="#000000" points="627,-142.6566 627,-161.6566 743,-161.6566 743,-142.6566 627,-142.6566"/>
<text text-anchor="middle" x="685" y="-149.6566" font-family="Helvetica,sans-Serif" font-size="10.00" fill="#000000">counterclockwiseadapt</text>
</a>
</g>
</g>
<!-- Node1342&#45;&gt;Node1343 -->
<g id="edge10" class="edge">
<title>Node1342&#45;&gt;Node1343</title>
<path fill="none" stroke="#191970" d="M582.8922,-126.7205C599.4645,-130.8489 619.0376,-135.7247 636.5906,-140.0974"/>
<polygon fill="#191970" stroke="#191970" points="636.1047,-143.5832 646.6542,-142.6043 637.7968,-136.7908 636.1047,-143.5832"/>
</g>
<!-- Node1344 -->
<g id="node11" class="node">
<title>Node1344</title>
<g id="a_node11"><a xlink:href="triangle_8cpp.html#a3487d9f90ea72da543d5d38b3dab1fbc" target="_top" xlink:title="estimate">
<polygon fill="#ffffff" stroke="#000000" points="817.5,-186.6566 817.5,-205.6566 871.5,-205.6566 871.5,-186.6566 817.5,-186.6566"/>
<text text-anchor="middle" x="844.5" y="-193.6566" font-family="Helvetica,sans-Serif" font-size="10.00" fill="#000000">estimate</text>
</a>
</g>
</g>
<!-- Node1343&#45;&gt;Node1344 -->
<g id="edge11" class="edge">
<title>Node1343&#45;&gt;Node1344</title>
<path fill="none" stroke="#191970" d="M719.6091,-161.704C745.6067,-168.8757 781.1472,-178.68 807.6684,-185.9962"/>
<polygon fill="#191970" stroke="#191970" points="806.7819,-189.3823 817.3527,-188.6677 808.6435,-182.6344 806.7819,-189.3823"/>
</g>
<!-- Node1345 -->
<g id="node12" class="node">
<title>Node1345</title>
<g id="a_node12"><a xlink:href="triangle_8cpp.html#a37646a7e0014e10c612e946bc95aeeea" target="_top" xlink:title="fast_expansion_sum\l_zeroelim">
<polygon fill="#ffffff" stroke="#000000" points="791,-137.1566 791,-167.1566 898,-167.1566 898,-137.1566 791,-137.1566"/>
<text text-anchor="start" x="799" y="-155.1566" font-family="Helvetica,sans-Serif" font-size="10.00" fill="#000000">fast_expansion_sum</text>
<text text-anchor="middle" x="844.5" y="-144.1566" font-family="Helvetica,sans-Serif" font-size="10.00" fill="#000000">_zeroelim</text>
</a>
</g>
</g>
<!-- Node1343&#45;&gt;Node1345 -->
<g id="edge12" class="edge">
<title>Node1343&#45;&gt;Node1345</title>
<path fill="none" stroke="#191970" d="M743.0344,-152.1566C755.2122,-152.1566 768.1213,-152.1566 780.5028,-152.1566"/>
<polygon fill="#191970" stroke="#191970" points="780.7516,-155.6567 790.7516,-152.1566 780.7516,-148.6567 780.7516,-155.6567"/>
</g>
<!-- Node1346&#45;&gt;Node1342 -->
<g id="edge14" class="edge">
<title>Node1346&#45;&gt;Node1342</title>
<path fill="none" stroke="#191970" d="M454.0334,-88.7456C469.2234,-93.5161 487.7853,-99.3454 504.1334,-104.4795"/>
<polygon fill="#191970" stroke="#191970" points="503.3871,-107.9136 513.9764,-107.5707 505.4845,-101.2352 503.3871,-107.9136"/>
</g>
<!-- Node1347&#45;&gt;Node1337 -->
<g id="edge18" class="edge">
<title>Node1347&#45;&gt;Node1337</title>
<path fill="none" stroke="#191970" d="M454.0334,-430.7456C470.1861,-435.8184 490.1515,-442.0885 507.2134,-447.4468"/>
<polygon fill="#191970" stroke="#191970" points="506.2836,-450.8233 516.8729,-450.4804 508.381,-444.1449 506.2836,-450.8233"/>
</g>
<!-- Node1349 -->
<g id="node16" class="node">
<title>Node1349</title>
<g id="a_node16"><a xlink:href="triangle_8cpp.html#a38c1f489a079cd860973698d73d5128c" target="_top" xlink:title="makesubseg">
<polygon fill="#ffffff" stroke="#000000" points="387.5,-373.6566 387.5,-392.6566 459.5,-392.6566 459.5,-373.6566 387.5,-373.6566"/>
<text text-anchor="middle" x="423.5" y="-380.6566" font-family="Helvetica,sans-Serif" font-size="10.00" fill="#000000">makesubseg</text>
</a>
</g>
</g>
<!-- Node1348&#45;&gt;Node1349 -->
<g id="edge20" class="edge">
<title>Node1348&#45;&gt;Node1349</title>
<path fill="none" stroke="#191970" d="M328.9213,-354.7456C344.9516,-359.5611 364.5738,-365.4555 381.7816,-370.6246"/>
<polygon fill="#191970" stroke="#191970" points="381.0047,-374.0457 391.5889,-373.5707 383.0187,-367.3417 381.0047,-374.0457"/>
</g>
<!-- Node1350 -->
<g id="node17" class="node">
<title>Node1350</title>
<g id="a_node17"><a xlink:href="triangle_8cpp.html#ae5bee30bf48dcc4ac5ab46eb5fa3f059" target="_top" xlink:title="printsubseg">
<polygon fill="#ffffff" stroke="#000000" points="390,-335.6566 390,-354.6566 457,-354.6566 457,-335.6566 390,-335.6566"/>
<text text-anchor="middle" x="423.5" y="-342.6566" font-family="Helvetica,sans-Serif" font-size="10.00" fill="#000000">printsubseg</text>
</a>
</g>
</g>
<!-- Node1348&#45;&gt;Node1350 -->
<g id="edge22" class="edge">
<title>Node1348&#45;&gt;Node1350</title>
<path fill="none" stroke="#191970" d="M333.2498,-345.1566C347.7238,-345.1566 364.5201,-345.1566 379.6702,-345.1566"/>
<polygon fill="#191970" stroke="#191970" points="379.8469,-348.6567 389.8469,-345.1566 379.8469,-341.6567 379.8469,-348.6567"/>
</g>
<!-- Node1349&#45;&gt;Node1337 -->
<g id="edge21" class="edge">
<title>Node1349&#45;&gt;Node1337</title>
<path fill="none" stroke="#191970" d="M444.1744,-392.6696C450.0294,-395.5481 456.3457,-398.8321 462,-402.1566 483.6526,-414.8875 507.104,-431.3738 523.4489,-443.3386"/>
<polygon fill="#191970" stroke="#191970" points="521.6194,-446.3387 531.7416,-449.468 525.7802,-440.7094 521.6194,-446.3387"/>
</g>
<!-- Node1353&#45;&gt;Node1337 -->
<g id="edge26" class="edge">
<title>Node1353&#45;&gt;Node1337</title>
<path fill="none" stroke="#191970" d="M349.0671,-489.9047C381.5663,-485.2985 424.2552,-479.1035 462,-473.1566 476.5233,-470.8684 492.457,-468.2015 506.4163,-465.8128"/>
<polygon fill="#191970" stroke="#191970" points="507.3887,-469.197 516.65,-464.0513 506.2012,-462.2984 507.3887,-469.197"/>
</g>
<!-- Node1355 -->
<g id="node22" class="node">
<title>Node1355</title>
<g id="a_node22"><a xlink:href="triangle_8cpp.html#ade6dfff2bcdf2f287e419bc4e2a211dc" target="_top" xlink:title="incircleadapt">
<polygon fill="#ffffff" stroke="#000000" points="649.5,-203.6566 649.5,-222.6566 720.5,-222.6566 720.5,-203.6566 649.5,-203.6566"/>
<text text-anchor="middle" x="685" y="-210.6566" font-family="Helvetica,sans-Serif" font-size="10.00" fill="#000000">incircleadapt</text>
</a>
</g>
</g>
<!-- Node1354&#45;&gt;Node1355 -->
<g id="edge29" class="edge">
<title>Node1354&#45;&gt;Node1355</title>
<path fill="none" stroke="#191970" d="M568.0165,-220.6502C587.3424,-219.4123 615.3042,-217.6211 639.0445,-216.1004"/>
<polygon fill="#191970" stroke="#191970" points="639.5091,-219.5779 649.2648,-215.4457 639.0615,-212.5922 639.5091,-219.5779"/>
</g>
<!-- Node1355&#45;&gt;Node1344 -->
<g id="edge32" class="edge">
<title>Node1355&#45;&gt;Node1344</title>
<path fill="none" stroke="#191970" d="M720.7949,-209.3415C746.4656,-206.6055 780.9725,-202.9276 807.0191,-200.1515"/>
<polygon fill="#191970" stroke="#191970" points="807.6852,-203.6004 817.258,-199.0602 806.9433,-196.6398 807.6852,-203.6004"/>
</g>
<!-- Node1355&#45;&gt;Node1345 -->
<g id="edge31" class="edge">
<title>Node1355&#45;&gt;Node1345</title>
<path fill="none" stroke="#191970" d="M710.1323,-203.5226C729.063,-196.2681 755.6581,-186.0809 779,-177.1566 784.3896,-175.096 790.0293,-172.9413 795.6415,-170.7979"/>
<polygon fill="#191970" stroke="#191970" points="796.918,-174.0571 805.0117,-167.2202 794.421,-167.5176 796.918,-174.0571"/>
</g>
<!-- Node1356 -->
<g id="node23" class="node">
<title>Node1356</title>
<g id="a_node23"><a xlink:href="triangle_8cpp.html#abdcdaa8948d9a2937154d9d67f67da8d" target="_top" xlink:title="scale_expansion_zeroelim">
<polygon fill="#ffffff" stroke="#000000" points="779,-224.6566 779,-243.6566 910,-243.6566 910,-224.6566 779,-224.6566"/>
<text text-anchor="middle" x="844.5" y="-231.6566" font-family="Helvetica,sans-Serif" font-size="10.00" fill="#000000">scale_expansion_zeroelim</text>
</a>
</g>
</g>
<!-- Node1355&#45;&gt;Node1356 -->
<g id="edge30" class="edge">
<title>Node1355&#45;&gt;Node1356</title>
<path fill="none" stroke="#191970" d="M720.7949,-217.8695C734.9423,-219.7321 751.7735,-221.9481 768.3932,-224.1363"/>
<polygon fill="#191970" stroke="#191970" points="768.3168,-227.6564 778.6882,-225.4918 769.2306,-220.7163 768.3168,-227.6564"/>
</g>
<!-- Node1358 -->
<g id="node25" class="node">
<title>Node1358</title>
<g id="a_node25"><a xlink:href="triangle_8cpp.html#a6b67091e1472b3c8d48c8540148dc1a8" target="_top" xlink:title="enqueuebadtri">
<polygon fill="#ffffff" stroke="#000000" points="385,-259.6566 385,-278.6566 462,-278.6566 462,-259.6566 385,-259.6566"/>
<text text-anchor="middle" x="423.5" y="-266.6566" font-family="Helvetica,sans-Serif" font-size="10.00" fill="#000000">enqueuebadtri</text>
</a>
</g>
</g>
<!-- Node1357&#45;&gt;Node1358 -->
<g id="edge34" class="edge">
<title>Node1357&#45;&gt;Node1358</title>
<path fill="none" stroke="#191970" d="M329.5769,-269.1566C343.2571,-269.1566 359.4633,-269.1566 374.529,-269.1566"/>
<polygon fill="#191970" stroke="#191970" points="374.732,-272.6567 384.7319,-269.1566 374.7319,-265.6567 374.732,-272.6567"/>
</g>
<!-- Node1360 -->
<g id="node27" class="node">
<title>Node1360</title>
<g id="a_node27"><a xlink:href="triangle_8cpp.html#a435eb334f65dbd9268038e8881e24554" target="_top" xlink:title="triunsuitable">
<polygon fill="#ffffff" stroke="#000000" points="389,-297.6566 389,-316.6566 458,-316.6566 458,-297.6566 389,-297.6566"/>
<text text-anchor="middle" x="423.5" y="-304.6566" font-family="Helvetica,sans-Serif" font-size="10.00" fill="#000000">triunsuitable</text>
</a>
</g>
</g>
<!-- Node1357&#45;&gt;Node1360 -->
<g id="edge37" class="edge">
<title>Node1357&#45;&gt;Node1360</title>
<path fill="none" stroke="#191970" d="M328.9213,-278.7456C344.9516,-283.5611 364.5738,-289.4555 381.7816,-294.6246"/>
<polygon fill="#191970" stroke="#191970" points="381.0047,-298.0457 391.5889,-297.5707 383.0187,-291.3417 381.0047,-298.0457"/>
</g>
<!-- Node1358&#45;&gt;Node1337 -->
<g id="edge35" class="edge">
<title>Node1358&#45;&gt;Node1337</title>
<path fill="none" stroke="#191970" d="M449.1219,-278.8029C453.7843,-281.3511 458.3271,-284.4508 462,-288.1566 505.9687,-332.5195 530.0477,-404.8984 539.5913,-439.5117"/>
<polygon fill="#191970" stroke="#191970" points="536.2492,-440.5642 542.1859,-449.3394 543.0173,-438.7773 536.2492,-440.5642"/>
</g>
<!-- Node1359 -->
<g id="node26" class="node">
<title>Node1359</title>
<g id="a_node26"><a xlink:href="triangle_8cpp.html#a8b69474415bac9ddab3a5879974338b5" target="_top" xlink:title="enqueuebadtriang">
<polygon fill="#ffffff" stroke="#000000" points="498,-259.6566 498,-278.6566 591,-278.6566 591,-259.6566 498,-259.6566"/>
<text text-anchor="middle" x="544.5" y="-266.6566" font-family="Helvetica,sans-Serif" font-size="10.00" fill="#000000">enqueuebadtriang</text>
</a>
</g>
</g>
<!-- Node1358&#45;&gt;Node1359 -->
<g id="edge36" class="edge">
<title>Node1358&#45;&gt;Node1359</title>
<path fill="none" stroke="#191970" d="M462.1178,-269.1566C470.2704,-269.1566 479.0357,-269.1566 487.6994,-269.1566"/>
<polygon fill="#191970" stroke="#191970" points="487.7805,-272.6567 497.7805,-269.1566 487.7804,-265.6567 487.7805,-272.6567"/>
</g>
<!-- Node1361&#45;&gt;Node1335 -->
<g id="edge40" class="edge">
<title>Node1361&#45;&gt;Node1335</title>
<path fill="none" stroke="#191970" d="M190.0147,-506.7821C210.9088,-519.745 248.3,-542.9427 272.8794,-558.192"/>
<polygon fill="#191970" stroke="#191970" points="271.2686,-561.3115 281.6113,-563.6093 274.959,-555.3633 271.2686,-561.3115"/>
</g>
<!-- Node1361&#45;&gt;Node1342 -->
<g id="edge39" class="edge">
<title>Node1361&#45;&gt;Node1342</title>
<path fill="none" stroke="#191970" d="M176.0574,-487.429C182.8368,-446.1892 210.9667,-286.2541 245,-250.1566 315.101,-175.804 370.9263,-220.5037 462,-174.1566 484.7787,-162.5647 508.564,-145.5218 524.7097,-133.0926"/>
<polygon fill="#191970" stroke="#191970" points="527.124,-135.6475 532.8387,-126.726 522.8078,-130.1365 527.124,-135.6475"/>
</g>
</g>
</svg>
