<?xml version="1.0" encoding="UTF-8" standalone="no"?>
<!DOCTYPE svg PUBLIC "-//W3C//DTD SVG 1.1//EN"
 "http://www.w3.org/Graphics/SVG/1.1/DTD/svg11.dtd">
<!-- Generated by graphviz version 2.40.1 (20161225.0304)
 -->
<!-- Title: formskeleton Pages: 1 -->
<svg width="413pt" height="28pt"
 viewBox="0.00 0.00 413.00 28.00" xmlns="http://www.w3.org/2000/svg" xmlns:xlink="http://www.w3.org/1999/xlink">
<g id="graph0" class="graph" transform="scale(1 1) rotate(0) translate(4 24)">
<title>formskeleton</title>
<polygon fill="#ffffff" stroke="transparent" points="-4,4 -4,-24 409,-24 409,4 -4,4"/>
<!-- Node1551 -->
<g id="node1" class="node">
<title>Node1551</title>
<polygon fill="#bfbfbf" stroke="#000000" points="0,-.5 0,-19.5 73,-19.5 73,-.5 0,-.5"/>
<text text-anchor="middle" x="36.5" y="-7.5" font-family="Helvetica,sans-Serif" font-size="10.00" fill="#000000">formskeleton</text>
</g>
<!-- Node1552 -->
<g id="node2" class="node">
<title>Node1552</title>
<g id="a_node2"><a xlink:href="triangle_8hpp.html#a848df2990f66cdbdc9d1ac87f4646527" target="_top" xlink:title="Call Triangle. ">
<polygon fill="#ffffff" stroke="#000000" points="109,-.5 109,-19.5 171,-19.5 171,-.5 109,-.5"/>
<text text-anchor="middle" x="140" y="-7.5" font-family="Helvetica,sans-Serif" font-size="10.00" fill="#000000">triangulate</text>
</a>
</g>
</g>
<!-- Node1551&#45;&gt;Node1552 -->
<g id="edge1" class="edge">
<title>Node1551&#45;&gt;Node1552</title>
<path fill="none" stroke="#191970" d="M83.2894,-10C91.9375,-10 100.772,-10 108.815,-10"/>
<polygon fill="#191970" stroke="#191970" points="83.2817,-6.5001 73.2817,-10 83.2816,-13.5001 83.2817,-6.5001"/>
</g>
<!-- Node1553 -->
<g id="node3" class="node">
<title>Node1553</title>
<g id="a_node3"><a xlink:href="classRiver_1_1Triangle.html#a7bc9c5a5297dee136ab1489a923182dd" target="_top" xlink:title="Generate mesh. ">
<polygon fill="#ffffff" stroke="#000000" points="207,-.5 207,-19.5 331,-19.5 331,-.5 207,-.5"/>
<text text-anchor="middle" x="269" y="-7.5" font-family="Helvetica,sans-Serif" font-size="10.00" fill="#000000">River::Triangle::generate</text>
</a>
</g>
</g>
<!-- Node1552&#45;&gt;Node1553 -->
<g id="edge2" class="edge">
<title>Node1552&#45;&gt;Node1553</title>
<path fill="none" stroke="#191970" d="M181.2629,-10C189.4682,-10 198.2527,-10 206.9767,-10"/>
<polygon fill="#191970" stroke="#191970" points="181.2273,-6.5001 171.2273,-10 181.2273,-13.5001 181.2273,-6.5001"/>
</g>
<!-- Node1554 -->
<g id="node4" class="node">
<title>Node1554</title>
<g id="a_node4"><a xlink:href="main_8cpp.html#a0ddf1224851353fc92bfbff6f499fa97" target="_top" xlink:title="Entry point of RiverSim program. ">
<polygon fill="#ffffff" stroke="#000000" points="367,-.5 367,-19.5 405,-19.5 405,-.5 367,-.5"/>
<text text-anchor="middle" x="386" y="-7.5" font-family="Helvetica,sans-Serif" font-size="10.00" fill="#000000">main</text>
</a>
</g>
</g>
<!-- Node1553&#45;&gt;Node1554 -->
<g id="edge3" class="edge">
<title>Node1553&#45;&gt;Node1554</title>
<path fill="none" stroke="#191970" d="M341.5174,-10C350.8253,-10 359.6301,-10 366.912,-10"/>
<polygon fill="#191970" stroke="#191970" points="341.2682,-6.5001 331.2682,-10 341.2682,-13.5001 341.2682,-6.5001"/>
</g>
</g>
</svg>
