<?xml version="1.0" encoding="UTF-8" standalone="no"?>
<!DOCTYPE svg PUBLIC "-//W3C//DTD SVG 1.1//EN"
 "http://www.w3.org/Graphics/SVG/1.1/DTD/svg11.dtd">
<!-- Generated by graphviz version 2.40.1 (20161225.0304)
 -->
<!-- Title: triangulatepolygon Pages: 1 -->
<svg width="687pt" height="28pt"
 viewBox="0.00 0.00 687.00 28.00" xmlns="http://www.w3.org/2000/svg" xmlns:xlink="http://www.w3.org/1999/xlink">
<g id="graph0" class="graph" transform="scale(1 1) rotate(0) translate(4 24)">
<title>triangulatepolygon</title>
<polygon fill="#ffffff" stroke="transparent" points="-4,4 -4,-24 683,-24 683,4 -4,4"/>
<!-- Node1142 -->
<g id="node1" class="node">
<title>Node1142</title>
<polygon fill="#bfbfbf" stroke="#000000" points="0,-.5 0,-19.5 95,-19.5 95,-.5 0,-.5"/>
<text text-anchor="middle" x="47.5" y="-7.5" font-family="Helvetica,sans-Serif" font-size="10.00" fill="#000000">triangulatepolygon</text>
</g>
<!-- Node1143 -->
<g id="node2" class="node">
<title>Node1143</title>
<g id="a_node2"><a xlink:href="triangle_8cpp.html#a9a6911e4ef926cd4546bb41819b1c8c5" target="_top" xlink:title="deletevertex">
<polygon fill="#ffffff" stroke="#000000" points="131,-.5 131,-19.5 201,-19.5 201,-.5 131,-.5"/>
<text text-anchor="middle" x="166" y="-7.5" font-family="Helvetica,sans-Serif" font-size="10.00" fill="#000000">deletevertex</text>
</a>
</g>
</g>
<!-- Node1142&#45;&gt;Node1143 -->
<g id="edge1" class="edge">
<title>Node1142&#45;&gt;Node1143</title>
<path fill="none" stroke="#191970" d="M105.2331,-10C113.9932,-10 122.7976,-10 130.8795,-10"/>
<polygon fill="#191970" stroke="#191970" points="105.0157,-6.5001 95.0157,-10 105.0157,-13.5001 105.0157,-6.5001"/>
</g>
<!-- Node1144 -->
<g id="node3" class="node">
<title>Node1144</title>
<g id="a_node3"><a xlink:href="triangle_8cpp.html#adca37fc9e90f78c9ae794662de5428bd" target="_top" xlink:title="splitencsegs">
<polygon fill="#ffffff" stroke="#000000" points="237,-.5 237,-19.5 308,-19.5 308,-.5 237,-.5"/>
<text text-anchor="middle" x="272.5" y="-7.5" font-family="Helvetica,sans-Serif" font-size="10.00" fill="#000000">splitencsegs</text>
</a>
</g>
</g>
<!-- Node1143&#45;&gt;Node1144 -->
<g id="edge2" class="edge">
<title>Node1143&#45;&gt;Node1144</title>
<path fill="none" stroke="#191970" d="M211.2997,-10C219.7666,-10 228.5079,-10 236.6411,-10"/>
<polygon fill="#191970" stroke="#191970" points="211.1673,-6.5001 201.1672,-10 211.1672,-13.5001 211.1673,-6.5001"/>
</g>
<!-- Node1145 -->
<g id="node4" class="node">
<title>Node1145</title>
<g id="a_node4"><a xlink:href="triangle_8cpp.html#a5a654ff6b304f2166c64ffe9183b2995" target="_top" xlink:title="enforcequality">
<polygon fill="#ffffff" stroke="#000000" points="344,-.5 344,-19.5 421,-19.5 421,-.5 344,-.5"/>
<text text-anchor="middle" x="382.5" y="-7.5" font-family="Helvetica,sans-Serif" font-size="10.00" fill="#000000">enforcequality</text>
</a>
</g>
</g>
<!-- Node1144&#45;&gt;Node1145 -->
<g id="edge3" class="edge">
<title>Node1144&#45;&gt;Node1145</title>
<path fill="none" stroke="#191970" d="M318.3765,-10C326.876,-10 335.6746,-10 343.9296,-10"/>
<polygon fill="#191970" stroke="#191970" points="318.2139,-6.5001 308.2138,-10 318.2138,-13.5001 318.2139,-6.5001"/>
</g>
<!-- Node1146 -->
<g id="node5" class="node">
<title>Node1146</title>
<g id="a_node5"><a xlink:href="triangle_8hpp.html#a4ca59bf5fe569672944651426b662ba6" target="_top" xlink:title="Call Triangle. ">
<polygon fill="#ffffff" stroke="#000000" points="457,-.5 457,-19.5 519,-19.5 519,-.5 457,-.5"/>
<text text-anchor="middle" x="488" y="-7.5" font-family="Helvetica,sans-Serif" font-size="10.00" fill="#000000">triangulate</text>
</a>
</g>
</g>
<!-- Node1145&#45;&gt;Node1146 -->
<g id="edge4" class="edge">
<title>Node1145&#45;&gt;Node1146</title>
<path fill="none" stroke="#191970" d="M431.2905,-10C440.0043,-10 448.863,-10 456.9082,-10"/>
<polygon fill="#191970" stroke="#191970" points="431.1853,-6.5001 421.1852,-10 431.1852,-13.5001 431.1853,-6.5001"/>
</g>
<!-- Node1147 -->
<g id="node6" class="node">
<title>Node1147</title>
<g id="a_node6"><a xlink:href="classRiver_1_1Triangle.html#a0dae20b40d446e6009a88543e2c14daf" target="_top" xlink:title="Generate mesh. ">
<polygon fill="#ffffff" stroke="#ff0000" points="555,-.5 555,-19.5 679,-19.5 679,-.5 555,-.5"/>
<text text-anchor="middle" x="617" y="-7.5" font-family="Helvetica,sans-Serif" font-size="10.00" fill="#000000">River::Triangle::generate</text>
</a>
</g>
</g>
<!-- Node1146&#45;&gt;Node1147 -->
<g id="edge5" class="edge">
<title>Node1146&#45;&gt;Node1147</title>
<path fill="none" stroke="#191970" d="M529.2629,-10C537.4682,-10 546.2527,-10 554.9767,-10"/>
<polygon fill="#191970" stroke="#191970" points="529.2273,-6.5001 519.2273,-10 529.2273,-13.5001 529.2273,-6.5001"/>
</g>
</g>
</svg>
