<?xml version="1.0" encoding="UTF-8" standalone="no"?>
<!DOCTYPE svg PUBLIC "-//W3C//DTD SVG 1.1//EN"
 "http://www.w3.org/Graphics/SVG/1.1/DTD/svg11.dtd">
<!-- Generated by graphviz version 2.40.1 (20161225.0304)
 -->
<!-- Title: makevertexmap Pages: 1 -->
<svg width="301pt" height="66pt"
 viewBox="0.00 0.00 301.00 66.00" xmlns="http://www.w3.org/2000/svg" xmlns:xlink="http://www.w3.org/1999/xlink">
<g id="graph0" class="graph" transform="scale(1 1) rotate(0) translate(4 62)">
<title>makevertexmap</title>
<polygon fill="#ffffff" stroke="transparent" points="-4,4 -4,-62 297,-62 297,4 -4,4"/>
<!-- Node936 -->
<g id="node1" class="node">
<title>Node936</title>
<polygon fill="#bfbfbf" stroke="#000000" points="0,-19.5 0,-38.5 86,-38.5 86,-19.5 0,-19.5"/>
<text text-anchor="middle" x="43" y="-26.5" font-family="Helvetica,sans-Serif" font-size="10.00" fill="#000000">makevertexmap</text>
</g>
<!-- Node937 -->
<g id="node2" class="node">
<title>Node937</title>
<g id="a_node2"><a xlink:href="triangle_8cpp.html#ac497210bc9192d88ed80659833ba5f55" target="_top" xlink:title="traversalinit">
<polygon fill="#ffffff" stroke="#000000" points="130,-38.5 130,-57.5 197,-57.5 197,-38.5 130,-38.5"/>
<text text-anchor="middle" x="163.5" y="-45.5" font-family="Helvetica,sans-Serif" font-size="10.00" fill="#000000">traversalinit</text>
</a>
</g>
</g>
<!-- Node936&#45;&gt;Node937 -->
<g id="edge1" class="edge">
<title>Node936&#45;&gt;Node937</title>
<path fill="none" stroke="#191970" d="M86.1629,-35.8058C97.0123,-37.5165 108.6675,-39.3542 119.5547,-41.0709"/>
<polygon fill="#191970" stroke="#191970" points="119.283,-44.5712 129.7061,-42.6715 120.3733,-37.6566 119.283,-44.5712"/>
</g>
<!-- Node938 -->
<g id="node3" class="node">
<title>Node938</title>
<g id="a_node3"><a xlink:href="triangle_8cpp.html#ac5f43264b4c12a0300c268142b0b3ee6" target="_top" xlink:title="triangletraverse">
<polygon fill="#ffffff" stroke="#000000" points="122,-.5 122,-19.5 205,-19.5 205,-.5 122,-.5"/>
<text text-anchor="middle" x="163.5" y="-7.5" font-family="Helvetica,sans-Serif" font-size="10.00" fill="#000000">triangletraverse</text>
</a>
</g>
</g>
<!-- Node936&#45;&gt;Node938 -->
<g id="edge2" class="edge">
<title>Node936&#45;&gt;Node938</title>
<path fill="none" stroke="#191970" d="M86.1629,-22.1942C94.5115,-20.8779 103.3373,-19.4862 111.9231,-18.1325"/>
<polygon fill="#191970" stroke="#191970" points="112.516,-21.5823 121.8488,-16.5674 111.4257,-14.6677 112.516,-21.5823"/>
</g>
<!-- Node939 -->
<g id="node4" class="node">
<title>Node939</title>
<g id="a_node4"><a xlink:href="triangle_8cpp.html#a908560980328e10c897c5c34bb733e9d" target="_top" xlink:title="traverse">
<polygon fill="#ffffff" stroke="#000000" points="241,-.5 241,-19.5 293,-19.5 293,-.5 241,-.5"/>
<text text-anchor="middle" x="267" y="-7.5" font-family="Helvetica,sans-Serif" font-size="10.00" fill="#000000">traverse</text>
</a>
</g>
</g>
<!-- Node938&#45;&gt;Node939 -->
<g id="edge3" class="edge">
<title>Node938&#45;&gt;Node939</title>
<path fill="none" stroke="#191970" d="M205.001,-10C213.5424,-10 222.4717,-10 230.8074,-10"/>
<polygon fill="#191970" stroke="#191970" points="230.9745,-13.5001 240.9744,-10 230.9744,-6.5001 230.9745,-13.5001"/>
</g>
</g>
</svg>
