<?xml version="1.0" encoding="UTF-8" standalone="no"?>
<!DOCTYPE svg PUBLIC "-//W3C//DTD SVG 1.1//EN"
 "http://www.w3.org/Graphics/SVG/1.1/DTD/svg11.dtd">
<!-- Generated by graphviz version 2.40.1 (20161225.0304)
 -->
<!-- Title: poolalloc Pages: 1 -->
<svg width="1150pt" height="750pt"
 viewBox="0.00 0.00 1150.00 750.00" xmlns="http://www.w3.org/2000/svg" xmlns:xlink="http://www.w3.org/1999/xlink">
<g id="graph0" class="graph" transform="scale(1 1) rotate(0) translate(4 746)">
<title>poolalloc</title>
<polygon fill="#ffffff" stroke="transparent" points="-4,4 -4,-746 1146,-746 1146,4 -4,4"/>
<!-- Node261 -->
<g id="node1" class="node">
<title>Node261</title>
<polygon fill="#bfbfbf" stroke="#000000" points="0,-247.5 0,-266.5 55,-266.5 55,-247.5 0,-247.5"/>
<text text-anchor="middle" x="27.5" y="-254.5" font-family="Helvetica,sans-Serif" font-size="10.00" fill="#000000">poolalloc</text>
</g>
<!-- Node262 -->
<g id="node2" class="node">
<title>Node262</title>
<g id="a_node2"><a xlink:href="triangle_8cpp.html#a5f18f6286348f31f222aedb01e8516d4" target="_top" xlink:title="maketriangle">
<polygon fill="#ffffff" stroke="#000000" points="220,-646.5 220,-665.5 292,-665.5 292,-646.5 220,-646.5"/>
<text text-anchor="middle" x="256" y="-653.5" font-family="Helvetica,sans-Serif" font-size="10.00" fill="#000000">maketriangle</text>
</a>
</g>
</g>
<!-- Node261&#45;&gt;Node262 -->
<g id="edge1" class="edge">
<title>Node261&#45;&gt;Node262</title>
<path fill="none" stroke="#191970" d="M28.6002,-276.6433C32.6299,-341.8507 48.6234,-549.7855 91,-599 123.4315,-636.6647 182.0262,-649.4643 219.9526,-653.7996"/>
<polygon fill="#191970" stroke="#191970" points="32.0851,-276.2825 28.0006,-266.5067 25.0973,-276.6959 32.0851,-276.2825"/>
</g>
<!-- Node263 -->
<g id="node3" class="node">
<title>Node263</title>
<g id="a_node3"><a xlink:href="triangle_8cpp.html#a2ede94743503e369e9b1c6c2a0ac9f7f" target="_top" xlink:title="insertvertex">
<polygon fill="#ffffff" stroke="#000000" points="357.5,-418.5 357.5,-437.5 425.5,-437.5 425.5,-418.5 357.5,-418.5"/>
<text text-anchor="middle" x="391.5" y="-425.5" font-family="Helvetica,sans-Serif" font-size="10.00" fill="#000000">insertvertex</text>
</a>
</g>
</g>
<!-- Node261&#45;&gt;Node263 -->
<g id="edge49" class="edge">
<title>Node261&#45;&gt;Node263</title>
<path fill="none" stroke="#191970" d="M33.3164,-276.4448C41.7981,-301.2866 60.0216,-343.7257 91,-366 172.7418,-424.7743 297.577,-430.5583 357.3214,-429.5601"/>
<polygon fill="#191970" stroke="#191970" points="36.5744,-275.1432 30.1812,-266.6948 29.9105,-277.2862 36.5744,-275.1432"/>
</g>
<!-- Node265 -->
<g id="node5" class="node">
<title>Node265</title>
<g id="a_node5"><a xlink:href="triangle_8cpp.html#a48fc63d369d988c08cbe8ab40f0b8af5" target="_top" xlink:title="splittriangle">
<polygon fill="#ffffff" stroke="#000000" points="621,-380.5 621,-399.5 687,-399.5 687,-380.5 621,-380.5"/>
<text text-anchor="middle" x="654" y="-387.5" font-family="Helvetica,sans-Serif" font-size="10.00" fill="#000000">splittriangle</text>
</a>
</g>
</g>
<!-- Node261&#45;&gt;Node265 -->
<g id="edge60" class="edge">
<title>Node261&#45;&gt;Node265</title>
<path fill="none" stroke="#191970" d="M42.9246,-274.1726C54.8851,-286.4643 72.4951,-302.4644 91,-312 158.0757,-346.5642 180.5425,-352 256,-352 256,-352 256,-352 391.5,-352 474.6166,-352 571.0238,-370.8911 620.6596,-382.034"/>
<polygon fill="#191970" stroke="#191970" points="45.3296,-271.621 35.9281,-266.736 40.2312,-276.4176 45.3296,-271.621"/>
</g>
<!-- Node270 -->
<g id="node8" class="node">
<title>Node270</title>
<g id="a_node8"><a xlink:href="triangle_8cpp.html#a496c50bca0cf0c214a0204419c3b181a" target="_top" xlink:title="segmentintersection">
<polygon fill="#ffffff" stroke="#000000" points="475,-494.5 475,-513.5 579,-513.5 579,-494.5 475,-494.5"/>
<text text-anchor="middle" x="527" y="-501.5" font-family="Helvetica,sans-Serif" font-size="10.00" fill="#000000">segmentintersection</text>
</a>
</g>
</g>
<!-- Node261&#45;&gt;Node270 -->
<g id="edge50" class="edge">
<title>Node261&#45;&gt;Node270</title>
<path fill="none" stroke="#191970" d="M31.0807,-276.6136C37.6245,-306.9239 54.3628,-365.0779 91,-398 200.2217,-496.1463 384.9875,-507.2278 474.8291,-506.2482"/>
<polygon fill="#191970" stroke="#191970" points="34.5116,-275.9211 29.1131,-266.8048 27.6483,-277.2979 34.5116,-275.9211"/>
</g>
<!-- Node275 -->
<g id="node13" class="node">
<title>Node275</title>
<g id="a_node13"><a xlink:href="triangle_8cpp.html#adca37fc9e90f78c9ae794662de5428bd" target="_top" xlink:title="splitencsegs">
<polygon fill="#ffffff" stroke="#000000" points="618.5,-266.5 618.5,-285.5 689.5,-285.5 689.5,-266.5 618.5,-266.5"/>
<text text-anchor="middle" x="654" y="-273.5" font-family="Helvetica,sans-Serif" font-size="10.00" fill="#000000">splitencsegs</text>
</a>
</g>
</g>
<!-- Node261&#45;&gt;Node275 -->
<g id="edge59" class="edge">
<title>Node261&#45;&gt;Node275</title>
<path fill="none" stroke="#191970" d="M65.4193,-258.15C177.9233,-261.5619 508.7995,-271.5965 618.3317,-274.9183"/>
<polygon fill="#191970" stroke="#191970" points="65.3298,-254.6458 55.2283,-257.8409 65.1176,-261.6425 65.3298,-254.6458"/>
</g>
<!-- Node281 -->
<g id="node19" class="node">
<title>Node281</title>
<g id="a_node19"><a xlink:href="triangle_8cpp.html#a38c1f489a079cd860973698d73d5128c" target="_top" xlink:title="makesubseg">
<polygon fill="#ffffff" stroke="#000000" points="93.5,-570.5 93.5,-589.5 165.5,-589.5 165.5,-570.5 93.5,-570.5"/>
<text text-anchor="middle" x="129.5" y="-577.5" font-family="Helvetica,sans-Serif" font-size="10.00" fill="#000000">makesubseg</text>
</a>
</g>
</g>
<!-- Node261&#45;&gt;Node281 -->
<g id="edge26" class="edge">
<title>Node261&#45;&gt;Node281</title>
<path fill="none" stroke="#191970" d="M31.3937,-276.8654C39.8788,-318.7016 61.6544,-418.6462 91,-499 100.7211,-525.6182 116.0791,-555.3286 124.1457,-570.2809"/>
<polygon fill="#191970" stroke="#191970" points="34.7909,-276.004 29.3994,-266.8835 27.9265,-277.3755 34.7909,-276.004"/>
</g>
<!-- Node284 -->
<g id="node22" class="node">
<title>Node284</title>
<g id="a_node22"><a xlink:href="triangle_8cpp.html#a6b67091e1472b3c8d48c8540148dc1a8" target="_top" xlink:title="enqueuebadtri">
<polygon fill="#ffffff" stroke="#000000" points="91,-228.5 91,-247.5 168,-247.5 168,-228.5 91,-228.5"/>
<text text-anchor="middle" x="129.5" y="-235.5" font-family="Helvetica,sans-Serif" font-size="10.00" fill="#000000">enqueuebadtri</text>
</a>
</g>
</g>
<!-- Node261&#45;&gt;Node284 -->
<g id="edge35" class="edge">
<title>Node261&#45;&gt;Node284</title>
<path fill="none" stroke="#191970" d="M65.0143,-250.012C73.4088,-248.4484 82.3284,-246.7869 90.7711,-245.2142"/>
<polygon fill="#191970" stroke="#191970" points="64.2926,-246.5862 55.1027,-251.8583 65.5745,-253.4678 64.2926,-246.5862"/>
</g>
<!-- Node289 -->
<g id="node27" class="node">
<title>Node289</title>
<g id="a_node27"><a xlink:href="triangle_8cpp.html#a6f0c7fd3fa9fb9a02403f67c7651feac" target="_top" xlink:title="checkseg4encroach">
<polygon fill="#ffffff" stroke="#000000" points="204,-304.5 204,-323.5 308,-323.5 308,-304.5 204,-304.5"/>
<text text-anchor="middle" x="256" y="-311.5" font-family="Helvetica,sans-Serif" font-size="10.00" fill="#000000">checkseg4encroach</text>
</a>
</g>
</g>
<!-- Node261&#45;&gt;Node289 -->
<g id="edge44" class="edge">
<title>Node261&#45;&gt;Node289</title>
<path fill="none" stroke="#191970" d="M51.1615,-271.714C62.7663,-278.2909 77.1908,-285.5482 91,-290 127.6429,-301.8128 170.7471,-307.8292 203.7086,-310.8837"/>
<polygon fill="#191970" stroke="#191970" points="52.922,-268.689 42.5249,-266.6519 49.3824,-274.7281 52.922,-268.689"/>
</g>
<!-- Node291 -->
<g id="node29" class="node">
<title>Node291</title>
<g id="a_node29"><a xlink:href="triangle_8cpp.html#a9eec64a7b4f941f8e3d2df21477843bd" target="_top" xlink:title="infecthull">
<polygon fill="#ffffff" stroke="#000000" points="101.5,-190.5 101.5,-209.5 157.5,-209.5 157.5,-190.5 101.5,-190.5"/>
<text text-anchor="middle" x="129.5" y="-197.5" font-family="Helvetica,sans-Serif" font-size="10.00" fill="#000000">infecthull</text>
</a>
</g>
</g>
<!-- Node261&#45;&gt;Node291 -->
<g id="edge51" class="edge">
<title>Node261&#45;&gt;Node291</title>
<path fill="none" stroke="#191970" d="M51.4867,-242.0219C63.2618,-234.8301 77.7359,-226.2264 91,-219 96.8908,-215.7906 103.3981,-212.4895 109.3603,-209.5579"/>
<polygon fill="#191970" stroke="#191970" points="49.3773,-239.2104 42.6967,-247.4336 53.0472,-245.1713 49.3773,-239.2104"/>
</g>
<!-- Node292 -->
<g id="node30" class="node">
<title>Node292</title>
<g id="a_node30"><a xlink:href="triangle_8cpp.html#aa0ba1198ac22df6403aeaa25b4ebbe37" target="_top" xlink:title="carveholes">
<polygon fill="#ffffff" stroke="#000000" points="224,-114.5 224,-133.5 288,-133.5 288,-114.5 224,-114.5"/>
<text text-anchor="middle" x="256" y="-121.5" font-family="Helvetica,sans-Serif" font-size="10.00" fill="#000000">carveholes</text>
</a>
</g>
</g>
<!-- Node261&#45;&gt;Node292 -->
<g id="edge58" class="edge">
<title>Node261&#45;&gt;Node292</title>
<path fill="none" stroke="#191970" d="M38.5067,-238.8236C49.7412,-221.6872 68.6664,-196.4006 91,-181 132.1676,-152.612 188.812,-137.139 223.8807,-129.7256"/>
<polygon fill="#191970" stroke="#191970" points="35.475,-237.0692 33.0838,-247.3907 41.3896,-240.8132 35.475,-237.0692"/>
</g>
<!-- Node293 -->
<g id="node31" class="node">
<title>Node293</title>
<g id="a_node31"><a xlink:href="triangle_8cpp.html#ac95223fa1691114186a9782fe701999d" target="_top" xlink:title="plague">
<polygon fill="#ffffff" stroke="#000000" points="107,-114.5 107,-133.5 152,-133.5 152,-114.5 107,-114.5"/>
<text text-anchor="middle" x="129.5" y="-121.5" font-family="Helvetica,sans-Serif" font-size="10.00" fill="#000000">plague</text>
</a>
</g>
</g>
<!-- Node261&#45;&gt;Node293 -->
<g id="edge54" class="edge">
<title>Node261&#45;&gt;Node293</title>
<path fill="none" stroke="#191970" d="M35.2558,-237.7509C45.3849,-214.4042 64.943,-174.8487 91,-148 96.4855,-142.3478 103.5601,-137.4493 110.1452,-133.5781"/>
<polygon fill="#191970" stroke="#191970" points="31.9187,-236.658 31.2759,-247.2333 38.3733,-239.3671 31.9187,-236.658"/>
</g>
<!-- Node294 -->
<g id="node32" class="node">
<title>Node294</title>
<g id="a_node32"><a xlink:href="triangle_8cpp.html#a4bd82f31b72b81818c6ff7671446cb47" target="_top" xlink:title="regionplague">
<polygon fill="#ffffff" stroke="#000000" points="94,-76.5 94,-95.5 165,-95.5 165,-76.5 94,-76.5"/>
<text text-anchor="middle" x="129.5" y="-83.5" font-family="Helvetica,sans-Serif" font-size="10.00" fill="#000000">regionplague</text>
</a>
</g>
</g>
<!-- Node261&#45;&gt;Node294 -->
<g id="edge56" class="edge">
<title>Node261&#45;&gt;Node294</title>
<path fill="none" stroke="#191970" d="M31.1552,-236.9808C37.8654,-205.341 54.9049,-143.4328 91,-105 94.4698,-101.3054 98.8128,-98.233 103.3201,-95.7129"/>
<polygon fill="#191970" stroke="#191970" points="27.6471,-236.6785 29.1343,-247.1685 34.5133,-238.0407 27.6471,-236.6785"/>
</g>
<!-- Node295 -->
<g id="node33" class="node">
<title>Node295</title>
<g id="a_node33"><a xlink:href="triangle_8cpp.html#a0a88bbfa9e08844c589160c5b7c9d05e" target="_top" xlink:title="highorder">
<polygon fill="#ffffff" stroke="#000000" points="865,-38.5 865,-57.5 921,-57.5 921,-38.5 865,-38.5"/>
<text text-anchor="middle" x="893" y="-45.5" font-family="Helvetica,sans-Serif" font-size="10.00" fill="#000000">highorder</text>
</a>
</g>
</g>
<!-- Node261&#45;&gt;Node295 -->
<g id="edge61" class="edge">
<title>Node261&#45;&gt;Node295</title>
<path fill="none" stroke="#191970" d="M31.3356,-237.2068C40.2971,-193.1151 63.9148,-88.9679 91,-67 148.3314,-20.5005 182.1821,-48 256,-48 256,-48 256,-48 654,-48 730.1398,-48 819.9237,-48 864.6712,-48"/>
<polygon fill="#191970" stroke="#191970" points="27.8536,-236.7715 29.3358,-247.2621 34.7192,-238.1369 27.8536,-236.7715"/>
</g>
<!-- Node296 -->
<g id="node34" class="node">
<title>Node296</title>
<g id="a_node34"><a xlink:href="triangle_8cpp.html#aa2533f1e76d587a6bed1eb2e56d3713c" target="_top" xlink:title="transfernodes">
<polygon fill="#ffffff" stroke="#000000" points="968,-.5 968,-19.5 1044,-19.5 1044,-.5 968,-.5"/>
<text text-anchor="middle" x="1006" y="-7.5" font-family="Helvetica,sans-Serif" font-size="10.00" fill="#000000">transfernodes</text>
</a>
</g>
</g>
<!-- Node261&#45;&gt;Node296 -->
<g id="edge63" class="edge">
<title>Node261&#45;&gt;Node296</title>
<path fill="none" stroke="#191970" d="M30.4022,-237.4283C38.0565,-188.5471 60.3315,-63.0969 91,-36 146.6338,13.1547 181.7618,-10 256,-10 256,-10 256,-10 773.5,-10 841.918,-10 921.661,-10 967.7385,-10"/>
<polygon fill="#191970" stroke="#191970" points="26.9331,-236.9607 28.8825,-247.3746 33.8528,-238.0179 26.9331,-236.9607"/>
</g>
<!-- Node262&#45;&gt;Node263 -->
<g id="edge2" class="edge">
<title>Node262&#45;&gt;Node263</title>
<path fill="none" stroke="#191970" d="M273.794,-639.1211C284.5533,-628.3146 298.0639,-613.6206 308,-599 346.6256,-542.1642 377.6077,-464.7998 387.868,-437.7864"/>
<polygon fill="#191970" stroke="#191970" points="271.2204,-636.7429 266.5363,-646.2461 276.1243,-641.7381 271.2204,-636.7429"/>
</g>
<!-- Node276 -->
<g id="node14" class="node">
<title>Node276</title>
<g id="a_node14"><a xlink:href="triangle_8cpp.html#a8b98b5137610f709b12bc0f9de701534" target="_top" xlink:title="mergehulls">
<polygon fill="#ffffff" stroke="#000000" points="359.5,-722.5 359.5,-741.5 423.5,-741.5 423.5,-722.5 359.5,-722.5"/>
<text text-anchor="middle" x="391.5" y="-729.5" font-family="Helvetica,sans-Serif" font-size="10.00" fill="#000000">mergehulls</text>
</a>
</g>
</g>
<!-- Node262&#45;&gt;Node276 -->
<g id="edge18" class="edge">
<title>Node262&#45;&gt;Node276</title>
<path fill="none" stroke="#191970" d="M280.3831,-670.9931C297.9097,-681.6257 322.1969,-696.0668 344,-708 353.0775,-712.9682 363.3039,-718.183 371.9366,-722.4776"/>
<polygon fill="#191970" stroke="#191970" points="281.7609,-667.734 271.4004,-665.518 278.1177,-673.7112 281.7609,-667.734"/>
</g>
<!-- Node277 -->
<g id="node15" class="node">
<title>Node277</title>
<g id="a_node15"><a xlink:href="triangle_8cpp.html#ae64549179195e9fea8a3589a003e44ac" target="_top" xlink:title="divconqrecurse">
<polygon fill="#ffffff" stroke="#000000" points="485.5,-684.5 485.5,-703.5 568.5,-703.5 568.5,-684.5 485.5,-684.5"/>
<text text-anchor="middle" x="527" y="-691.5" font-family="Helvetica,sans-Serif" font-size="10.00" fill="#000000">divconqrecurse</text>
</a>
</g>
</g>
<!-- Node262&#45;&gt;Node277 -->
<g id="edge23" class="edge">
<title>Node262&#45;&gt;Node277</title>
<path fill="none" stroke="#191970" d="M302.1983,-666.9664C315.6233,-669.8835 330.3472,-672.824 344,-675 392.2616,-682.6919 448.2018,-687.9762 485.4036,-690.9833"/>
<polygon fill="#191970" stroke="#191970" points="302.7453,-663.5027 292.2246,-664.7534 301.229,-670.3365 302.7453,-663.5027"/>
</g>
<!-- Node280 -->
<g id="node18" class="node">
<title>Node280</title>
<g id="a_node18"><a xlink:href="triangle_8cpp.html#a711adeeb3c28e4f2e3e173d729912c13" target="_top" xlink:title="reconstruct">
<polygon fill="#ffffff" stroke="#000000" points="359,-646.5 359,-665.5 424,-665.5 424,-646.5 359,-646.5"/>
<text text-anchor="middle" x="391.5" y="-653.5" font-family="Helvetica,sans-Serif" font-size="10.00" fill="#000000">reconstruct</text>
</a>
</g>
</g>
<!-- Node262&#45;&gt;Node280 -->
<g id="edge24" class="edge">
<title>Node262&#45;&gt;Node280</title>
<path fill="none" stroke="#191970" d="M302.3401,-656C320.9077,-656 341.8666,-656 358.7964,-656"/>
<polygon fill="#191970" stroke="#191970" points="302.3115,-652.5001 292.3115,-656 302.3115,-659.5001 302.3115,-652.5001"/>
</g>
<!-- Node264 -->
<g id="node4" class="node">
<title>Node264</title>
<g id="a_node4"><a xlink:href="triangle_8cpp.html#a4e3735a2f4c1fa18deb1a2e66aeda7bd" target="_top" xlink:title="undovertex">
<polygon fill="#ffffff" stroke="#000000" points="494.5,-418.5 494.5,-437.5 559.5,-437.5 559.5,-418.5 494.5,-418.5"/>
<text text-anchor="middle" x="527" y="-425.5" font-family="Helvetica,sans-Serif" font-size="10.00" fill="#000000">undovertex</text>
</a>
</g>
</g>
<!-- Node263&#45;&gt;Node264 -->
<g id="edge3" class="edge">
<title>Node263&#45;&gt;Node264</title>
<path fill="none" stroke="#191970" d="M435.9183,-428C454.9227,-428 476.717,-428 494.2208,-428"/>
<polygon fill="#191970" stroke="#191970" points="435.6924,-424.5001 425.6924,-428 435.6923,-431.5001 435.6924,-424.5001"/>
</g>
<!-- Node263&#45;&gt;Node265 -->
<g id="edge17" class="edge">
<title>Node263&#45;&gt;Node265</title>
<path fill="none" stroke="#191970" d="M428.1151,-440.5489C466.6607,-451.7461 528.6202,-463.9717 579,-447 606.8976,-437.602 632.6431,-413.24 645.4707,-399.6034"/>
<polygon fill="#191970" stroke="#191970" points="428.9528,-437.1456 418.3675,-437.5933 426.9216,-443.8445 428.9528,-437.1456"/>
</g>
<!-- Node263&#45;&gt;Node270 -->
<g id="edge7" class="edge">
<title>Node263&#45;&gt;Node270</title>
<path fill="none" stroke="#191970" d="M414.1146,-443.1533C430.6598,-453.9736 453.8213,-468.5755 475,-480 484.5385,-485.1454 495.3814,-490.2601 504.6888,-494.4375"/>
<polygon fill="#191970" stroke="#191970" points="415.9328,-440.1599 405.658,-437.5753 412.0784,-446.0032 415.9328,-440.1599"/>
</g>
<!-- Node263&#45;&gt;Node275 -->
<g id="edge15" class="edge">
<title>Node263&#45;&gt;Node275</title>
<path fill="none" stroke="#191970" d="M423.08,-414.1328C461.1248,-396.9483 526.4747,-365.8882 579,-333 602.8417,-318.0717 628.5023,-297.4726 642.7752,-285.5617"/>
<polygon fill="#191970" stroke="#191970" points="421.257,-411.1143 413.5635,-418.3986 424.1204,-417.5019 421.257,-411.1143"/>
</g>
<!-- Node264&#45;&gt;Node265 -->
<g id="edge4" class="edge">
<title>Node264&#45;&gt;Node265</title>
<path fill="none" stroke="#191970" d="M568.8943,-415.4647C586.1712,-410.2952 605.8707,-404.4009 621.9628,-399.5859"/>
<polygon fill="#191970" stroke="#191970" points="567.6245,-412.1912 559.0475,-418.411 569.6311,-418.8975 567.6245,-412.1912"/>
</g>
<!-- Node266 -->
<g id="node6" class="node">
<title>Node266</title>
<g id="a_node6"><a xlink:href="triangle_8cpp.html#a5a654ff6b304f2166c64ffe9183b2995" target="_top" xlink:title="enforcequality">
<polygon fill="#ffffff" stroke="#000000" points="735,-285.5 735,-304.5 812,-304.5 812,-285.5 735,-285.5"/>
<text text-anchor="middle" x="773.5" y="-292.5" font-family="Helvetica,sans-Serif" font-size="10.00" fill="#000000">enforcequality</text>
</a>
</g>
</g>
<!-- Node265&#45;&gt;Node266 -->
<g id="edge5" class="edge">
<title>Node265&#45;&gt;Node266</title>
<path fill="none" stroke="#191970" d="M674.4343,-373.7552C699.4454,-353.8719 740.9836,-320.8498 761.4066,-304.614"/>
<polygon fill="#191970" stroke="#191970" points="671.9883,-371.2284 666.3385,-380.1911 676.3444,-376.7079 671.9883,-371.2284"/>
</g>
<!-- Node267 -->
<g id="node7" class="node">
<title>Node267</title>
<g id="a_node7"><a xlink:href="triangle_8hpp.html#a848df2990f66cdbdc9d1ac87f4646527" target="_top" xlink:title="Call Triangle. ">
<polygon fill="#ffffff" stroke="#ff0000" points="1080,-285.5 1080,-304.5 1142,-304.5 1142,-285.5 1080,-285.5"/>
<text text-anchor="middle" x="1111" y="-292.5" font-family="Helvetica,sans-Serif" font-size="10.00" fill="#000000">triangulate</text>
</a>
</g>
</g>
<!-- Node266&#45;&gt;Node267 -->
<g id="edge6" class="edge">
<title>Node266&#45;&gt;Node267</title>
<path fill="none" stroke="#191970" d="M822.5942,-295C893.0387,-295 1020.7799,-295 1079.6935,-295"/>
<polygon fill="#191970" stroke="#191970" points="822.2156,-291.5001 812.2155,-295 822.2155,-298.5001 822.2156,-291.5001"/>
</g>
<!-- Node271 -->
<g id="node9" class="node">
<title>Node271</title>
<g id="a_node9"><a xlink:href="triangle_8cpp.html#ae9d4ed09a0fd07959568ba5f86cc4d0c" target="_top" xlink:title="scoutsegment">
<polygon fill="#ffffff" stroke="#000000" points="615,-570.5 615,-589.5 693,-589.5 693,-570.5 615,-570.5"/>
<text text-anchor="middle" x="654" y="-577.5" font-family="Helvetica,sans-Serif" font-size="10.00" fill="#000000">scoutsegment</text>
</a>
</g>
</g>
<!-- Node270&#45;&gt;Node271 -->
<g id="edge8" class="edge">
<title>Node270&#45;&gt;Node271</title>
<path fill="none" stroke="#191970" d="M551.824,-518.8553C577.3546,-534.1335 616.3582,-557.4742 638.046,-570.4527"/>
<polygon fill="#191970" stroke="#191970" points="553.4628,-515.7572 543.0846,-513.6255 549.8683,-521.7638 553.4628,-515.7572"/>
</g>
<!-- Node272 -->
<g id="node10" class="node">
<title>Node272</title>
<g id="a_node10"><a xlink:href="triangle_8cpp.html#aded205ef0849b44d2a587f53fd720618" target="_top" xlink:title="constrainededge">
<polygon fill="#ffffff" stroke="#000000" points="729.5,-532.5 729.5,-551.5 817.5,-551.5 817.5,-532.5 729.5,-532.5"/>
<text text-anchor="middle" x="773.5" y="-539.5" font-family="Helvetica,sans-Serif" font-size="10.00" fill="#000000">constrainededge</text>
</a>
</g>
</g>
<!-- Node270&#45;&gt;Node272 -->
<g id="edge14" class="edge">
<title>Node270&#45;&gt;Node272</title>
<path fill="none" stroke="#191970" d="M589.3041,-512.5777C620.4763,-516.9786 658.7669,-522.5497 693,-528 704.7676,-529.8735 717.4798,-532.0249 729.2498,-534.07"/>
<polygon fill="#191970" stroke="#191970" points="589.4116,-509.0584 579.0217,-511.1319 588.4369,-515.9903 589.4116,-509.0584"/>
</g>
<!-- Node271&#45;&gt;Node272 -->
<g id="edge9" class="edge">
<title>Node271&#45;&gt;Node272</title>
<path fill="none" stroke="#191970" d="M693.8766,-567.3196C710.023,-562.1852 728.3544,-556.3559 743.3548,-551.5859"/>
<polygon fill="#191970" stroke="#191970" points="692.624,-564.0451 684.1549,-570.411 694.7453,-570.716 692.624,-564.0451"/>
</g>
<!-- Node273 -->
<g id="node11" class="node">
<title>Node273</title>
<g id="a_node11"><a xlink:href="triangle_8cpp.html#ae367b20189056436da2a1b633b392703" target="_top" xlink:title="insertsegment">
<polygon fill="#ffffff" stroke="#000000" points="854,-551.5 854,-570.5 932,-570.5 932,-551.5 854,-551.5"/>
<text text-anchor="middle" x="893" y="-558.5" font-family="Helvetica,sans-Serif" font-size="10.00" fill="#000000">insertsegment</text>
</a>
</g>
</g>
<!-- Node271&#45;&gt;Node273 -->
<g id="edge13" class="edge">
<title>Node271&#45;&gt;Node273</title>
<path fill="none" stroke="#191970" d="M703.2261,-576.0866C747.8025,-572.5429 812.6143,-567.3905 853.7802,-564.1179"/>
<polygon fill="#191970" stroke="#191970" points="702.8895,-572.6022 693.1984,-576.8838 703.4443,-579.5802 702.8895,-572.6022"/>
</g>
<!-- Node272&#45;&gt;Node273 -->
<g id="edge10" class="edge">
<title>Node272&#45;&gt;Node273</title>
<path fill="none" stroke="#191970" d="M827.8061,-550.6344C836.551,-552.0248 845.4527,-553.4402 853.7536,-554.76"/>
<polygon fill="#191970" stroke="#191970" points="828.0834,-547.1347 817.6579,-549.0209 826.9842,-554.0478 828.0834,-547.1347"/>
</g>
<!-- Node274 -->
<g id="node12" class="node">
<title>Node274</title>
<g id="a_node12"><a xlink:href="triangle_8cpp.html#a77e7549672629c06d5926b7edcafc337" target="_top" xlink:title="formskeleton">
<polygon fill="#ffffff" stroke="#000000" points="969.5,-551.5 969.5,-570.5 1042.5,-570.5 1042.5,-551.5 969.5,-551.5"/>
<text text-anchor="middle" x="1006" y="-558.5" font-family="Helvetica,sans-Serif" font-size="10.00" fill="#000000">formskeleton</text>
</a>
</g>
</g>
<!-- Node273&#45;&gt;Node274 -->
<g id="edge11" class="edge">
<title>Node273&#45;&gt;Node274</title>
<path fill="none" stroke="#191970" d="M942.2428,-561C951.2727,-561 960.5542,-561 969.1437,-561"/>
<polygon fill="#191970" stroke="#191970" points="942.2048,-557.5001 932.2048,-561 942.2048,-564.5001 942.2048,-557.5001"/>
</g>
<!-- Node274&#45;&gt;Node267 -->
<g id="edge12" class="edge">
<title>Node274&#45;&gt;Node267</title>
<path fill="none" stroke="#191970" d="M1013.6247,-541.6842C1034.4771,-488.858 1091.9142,-343.3507 1107.2141,-304.591"/>
<polygon fill="#191970" stroke="#191970" points="1010.2777,-540.6308 1009.8615,-551.2175 1016.7888,-543.201 1010.2777,-540.6308"/>
</g>
<!-- Node275&#45;&gt;Node266 -->
<g id="edge16" class="edge">
<title>Node275&#45;&gt;Node266</title>
<path fill="none" stroke="#191970" d="M699.552,-283.2426C711.2363,-285.1003 723.6895,-287.0803 734.9802,-288.8755"/>
<polygon fill="#191970" stroke="#191970" points="699.956,-279.7629 689.5304,-281.6492 698.8567,-286.6761 699.956,-279.7629"/>
</g>
<!-- Node276&#45;&gt;Node277 -->
<g id="edge19" class="edge">
<title>Node276&#45;&gt;Node277</title>
<path fill="none" stroke="#191970" d="M433.2569,-720.2896C452.3427,-714.9371 474.6726,-708.6748 492.7502,-703.6051"/>
<polygon fill="#191970" stroke="#191970" points="432.295,-716.9242 423.6116,-722.9945 434.1853,-723.6642 432.295,-716.9242"/>
</g>
<!-- Node278 -->
<g id="node16" class="node">
<title>Node278</title>
<g id="a_node16"><a xlink:href="triangle_8cpp.html#a4a13891380126c239a32b46c88f06223" target="_top" xlink:title="divconqdelaunay">
<polygon fill="#ffffff" stroke="#000000" points="729,-684.5 729,-703.5 818,-703.5 818,-684.5 729,-684.5"/>
<text text-anchor="middle" x="773.5" y="-691.5" font-family="Helvetica,sans-Serif" font-size="10.00" fill="#000000">divconqdelaunay</text>
</a>
</g>
</g>
<!-- Node277&#45;&gt;Node278 -->
<g id="edge20" class="edge">
<title>Node277&#45;&gt;Node278</title>
<path fill="none" stroke="#191970" d="M578.5598,-694C623.0194,-694 686.5576,-694 728.8719,-694"/>
<polygon fill="#191970" stroke="#191970" points="578.5367,-690.5001 568.5366,-694 578.5366,-697.5001 578.5367,-690.5001"/>
</g>
<!-- Node279 -->
<g id="node17" class="node">
<title>Node279</title>
<g id="a_node17"><a xlink:href="triangle_8cpp.html#ab67faa70960c7c39ee1150ab4d55f0a5" target="_top" xlink:title="delaunay">
<polygon fill="#ffffff" stroke="#000000" points="978,-684.5 978,-703.5 1034,-703.5 1034,-684.5 978,-684.5"/>
<text text-anchor="middle" x="1006" y="-691.5" font-family="Helvetica,sans-Serif" font-size="10.00" fill="#000000">delaunay</text>
</a>
</g>
</g>
<!-- Node278&#45;&gt;Node279 -->
<g id="edge21" class="edge">
<title>Node278&#45;&gt;Node279</title>
<path fill="none" stroke="#191970" d="M828.3438,-694C875.2006,-694 940.7262,-694 977.6966,-694"/>
<polygon fill="#191970" stroke="#191970" points="828.0533,-690.5001 818.0532,-694 828.0532,-697.5001 828.0533,-690.5001"/>
</g>
<!-- Node279&#45;&gt;Node267 -->
<g id="edge22" class="edge">
<title>Node279&#45;&gt;Node267</title>
<path fill="none" stroke="#191970" d="M1036.1935,-678.5047C1039.1706,-675.9952 1041.8715,-673.1644 1044,-670 1086.2649,-607.1676 1106.5277,-356.6765 1110.3318,-304.5374"/>
<polygon fill="#191970" stroke="#191970" points="1034.005,-675.7658 1027.8713,-684.4046 1038.0534,-681.4764 1034.005,-675.7658"/>
</g>
<!-- Node280&#45;&gt;Node267 -->
<g id="edge25" class="edge">
<title>Node280&#45;&gt;Node267</title>
<path fill="none" stroke="#191970" d="M434.4209,-656C486.4009,-656 576.6164,-656 654,-656 654,-656 654,-656 893,-656 968.1321,-656 997.4796,-638.9974 1044,-580 1079.4057,-535.0983 1104.3307,-348.9696 1109.8481,-304.55"/>
<polygon fill="#191970" stroke="#191970" points="434.2389,-652.5001 424.2388,-656 434.2388,-659.5001 434.2389,-652.5001"/>
</g>
<!-- Node281&#45;&gt;Node280 -->
<g id="edge34" class="edge">
<title>Node281&#45;&gt;Node280</title>
<path fill="none" stroke="#191970" d="M172.0581,-592.3451C224.2941,-607.4975 311.7302,-632.8607 358.923,-646.5502"/>
<polygon fill="#191970" stroke="#191970" points="172.9964,-588.9731 162.4172,-589.5485 171.0462,-595.6959 172.9964,-588.9731"/>
</g>
<!-- Node282 -->
<g id="node20" class="node">
<title>Node282</title>
<g id="a_node20"><a xlink:href="triangle_8cpp.html#a65e7d1a5e6cdb3f22124eca6e7744140" target="_top" xlink:title="insertsubseg">
<polygon fill="#ffffff" stroke="#000000" points="220,-570.5 220,-589.5 292,-589.5 292,-570.5 220,-570.5"/>
<text text-anchor="middle" x="256" y="-577.5" font-family="Helvetica,sans-Serif" font-size="10.00" fill="#000000">insertsubseg</text>
</a>
</g>
</g>
<!-- Node281&#45;&gt;Node282 -->
<g id="edge27" class="edge">
<title>Node281&#45;&gt;Node282</title>
<path fill="none" stroke="#191970" d="M175.991,-580C190.4253,-580 206.1145,-580 219.7449,-580"/>
<polygon fill="#191970" stroke="#191970" points="175.7499,-576.5001 165.7498,-580 175.7498,-583.5001 175.7499,-576.5001"/>
</g>
<!-- Node282&#45;&gt;Node263 -->
<g id="edge28" class="edge">
<title>Node282&#45;&gt;Node263</title>
<path fill="none" stroke="#191970" d="M271.3339,-562.7989C299.9694,-530.6764 360.6929,-462.5585 383.0271,-437.5047"/>
<polygon fill="#191970" stroke="#191970" points="268.5178,-560.6981 264.4761,-570.4917 273.7431,-565.3561 268.5178,-560.6981"/>
</g>
<!-- Node282&#45;&gt;Node271 -->
<g id="edge30" class="edge">
<title>Node282&#45;&gt;Node271</title>
<path fill="none" stroke="#191970" d="M302.1602,-580C381.1675,-580 540.9302,-580 614.8488,-580"/>
<polygon fill="#191970" stroke="#191970" points="302.0218,-576.5001 292.0218,-580 302.0218,-583.5001 302.0218,-576.5001"/>
</g>
<!-- Node282&#45;&gt;Node272 -->
<g id="edge31" class="edge">
<title>Node282&#45;&gt;Node272</title>
<path fill="none" stroke="#191970" d="M302.3918,-576.5935C401.3779,-569.3249 632.1556,-552.3789 729.228,-545.2509"/>
<polygon fill="#191970" stroke="#191970" points="302.1064,-573.1049 292.3896,-577.3279 302.6191,-580.0861 302.1064,-573.1049"/>
</g>
<!-- Node282&#45;&gt;Node280 -->
<g id="edge29" class="edge">
<title>Node282&#45;&gt;Node280</title>
<path fill="none" stroke="#191970" d="M288.8961,-593.7954C295.3696,-596.8938 302.0081,-600.3532 308,-604 325.3151,-614.5381 326.8744,-621.1567 344,-632 352.2746,-637.2391 361.8406,-642.2544 370.2098,-646.3329"/>
<polygon fill="#191970" stroke="#191970" points="290.172,-590.5299 279.624,-589.5344 287.2489,-596.8904 290.172,-590.5299"/>
</g>
<!-- Node283 -->
<g id="node21" class="node">
<title>Node283</title>
<g id="a_node21"><a xlink:href="triangle_8cpp.html#ab7ca7ba248dc47379e3c0f2bb9962bd4" target="_top" xlink:title="markhull">
<polygon fill="#ffffff" stroke="#000000" points="866.5,-599.5 866.5,-618.5 919.5,-618.5 919.5,-599.5 866.5,-599.5"/>
<text text-anchor="middle" x="893" y="-606.5" font-family="Helvetica,sans-Serif" font-size="10.00" fill="#000000">markhull</text>
</a>
</g>
</g>
<!-- Node282&#45;&gt;Node283 -->
<g id="edge32" class="edge">
<title>Node282&#45;&gt;Node283</title>
<path fill="none" stroke="#191970" d="M302.0533,-590.4455C355.7533,-601.6946 447.3312,-618 527,-618 527,-618 527,-618 654,-618 731.2318,-618 822.4026,-613.249 866.4871,-610.6507"/>
<polygon fill="#191970" stroke="#191970" points="302.6654,-586.9975 292.1559,-588.3393 301.2083,-593.8442 302.6654,-586.9975"/>
</g>
<!-- Node283&#45;&gt;Node274 -->
<g id="edge33" class="edge">
<title>Node283&#45;&gt;Node274</title>
<path fill="none" stroke="#191970" d="M924.8922,-595.4529C943.5553,-587.5252 966.6704,-577.7064 983.4435,-570.5815"/>
<polygon fill="#191970" stroke="#191970" points="923.4313,-592.2707 915.5956,-599.4018 926.1681,-598.7135 923.4313,-592.2707"/>
</g>
<!-- Node285 -->
<g id="node23" class="node">
<title>Node285</title>
<g id="a_node23"><a xlink:href="triangle_8cpp.html#a816cae4d440df52b7bc162b05f92cc75" target="_top" xlink:title="testtriangle">
<polygon fill="#ffffff" stroke="#000000" points="223.5,-190.5 223.5,-209.5 288.5,-209.5 288.5,-190.5 223.5,-190.5"/>
<text text-anchor="middle" x="256" y="-197.5" font-family="Helvetica,sans-Serif" font-size="10.00" fill="#000000">testtriangle</text>
</a>
</g>
</g>
<!-- Node284&#45;&gt;Node285 -->
<g id="edge36" class="edge">
<title>Node284&#45;&gt;Node285</title>
<path fill="none" stroke="#191970" d="M171.2294,-225.4647C188.4382,-220.2952 208.0601,-214.4009 224.0889,-209.5859"/>
<polygon fill="#191970" stroke="#191970" points="169.9916,-222.1819 161.4213,-228.411 172.0055,-228.886 169.9916,-222.1819"/>
</g>
<!-- Node285&#45;&gt;Node263 -->
<g id="edge37" class="edge">
<title>Node285&#45;&gt;Node263</title>
<path fill="none" stroke="#191970" d="M266.7738,-218.1285C294.0649,-264.0502 365.212,-383.7663 385.8261,-418.4528"/>
<polygon fill="#191970" stroke="#191970" points="269.7674,-216.315 261.6498,-209.5066 263.7499,-219.8912 269.7674,-216.315"/>
</g>
<!-- Node286 -->
<g id="node24" class="node">
<title>Node286</title>
<g id="a_node24"><a xlink:href="triangle_8cpp.html#a8ab6fa4f05809e4cb6838ba724de2f88" target="_top" xlink:title="triangulatepolygon">
<polygon fill="#ffffff" stroke="#000000" points="344,-190.5 344,-209.5 439,-209.5 439,-190.5 344,-190.5"/>
<text text-anchor="middle" x="391.5" y="-197.5" font-family="Helvetica,sans-Serif" font-size="10.00" fill="#000000">triangulatepolygon</text>
</a>
</g>
</g>
<!-- Node285&#45;&gt;Node286 -->
<g id="edge38" class="edge">
<title>Node285&#45;&gt;Node286</title>
<path fill="none" stroke="#191970" d="M298.877,-200C313.1936,-200 329.2308,-200 343.8856,-200"/>
<polygon fill="#191970" stroke="#191970" points="298.8008,-196.5001 288.8008,-200 298.8007,-203.5001 298.8008,-196.5001"/>
</g>
<!-- Node287 -->
<g id="node25" class="node">
<title>Node287</title>
<g id="a_node25"><a xlink:href="triangle_8cpp.html#a9a6911e4ef926cd4546bb41819b1c8c5" target="_top" xlink:title="deletevertex">
<polygon fill="#ffffff" stroke="#000000" points="492,-190.5 492,-209.5 562,-209.5 562,-190.5 492,-190.5"/>
<text text-anchor="middle" x="527" y="-197.5" font-family="Helvetica,sans-Serif" font-size="10.00" fill="#000000">deletevertex</text>
</a>
</g>
</g>
<!-- Node285&#45;&gt;Node287 -->
<g id="edge41" class="edge">
<title>Node285&#45;&gt;Node287</title>
<path fill="none" stroke="#191970" d="M298.7803,-188.8534C313.0564,-185.6468 329.1177,-182.5883 344,-181 385.9838,-176.5193 397.0162,-176.5193 439,-181 456.562,-182.8743 475.7659,-186.7959 491.7405,-190.5922"/>
<polygon fill="#191970" stroke="#191970" points="297.686,-185.5146 288.743,-191.1956 299.2767,-192.3315 297.686,-185.5146"/>
</g>
<!-- Node288 -->
<g id="node26" class="node">
<title>Node288</title>
<g id="a_node26"><a xlink:href="triangle_8cpp.html#aff72cd32f2fdfedbedd4270ab70f212d" target="_top" xlink:title="tallyfaces">
<polygon fill="#ffffff" stroke="#000000" points="624.5,-171.5 624.5,-190.5 683.5,-190.5 683.5,-171.5 624.5,-171.5"/>
<text text-anchor="middle" x="654" y="-178.5" font-family="Helvetica,sans-Serif" font-size="10.00" fill="#000000">tallyfaces</text>
</a>
</g>
</g>
<!-- Node285&#45;&gt;Node288 -->
<g id="edge42" class="edge">
<title>Node285&#45;&gt;Node288</title>
<path fill="none" stroke="#191970" d="M289.7471,-187.0648C305.9016,-181.5443 325.6772,-175.7477 344,-173 445.9585,-157.7104 568.8455,-169.7721 624.2967,-176.8206"/>
<polygon fill="#191970" stroke="#191970" points="288.4652,-183.8056 280.202,-190.4366 290.7968,-190.4059 288.4652,-183.8056"/>
</g>
<!-- Node286&#45;&gt;Node287 -->
<g id="edge39" class="edge">
<title>Node286&#45;&gt;Node287</title>
<path fill="none" stroke="#191970" d="M449.5409,-200C463.8377,-200 478.7234,-200 491.5801,-200"/>
<polygon fill="#191970" stroke="#191970" points="449.2723,-196.5001 439.2722,-200 449.2722,-203.5001 449.2723,-196.5001"/>
</g>
<!-- Node287&#45;&gt;Node275 -->
<g id="edge40" class="edge">
<title>Node287&#45;&gt;Node275</title>
<path fill="none" stroke="#191970" d="M559.3719,-213.8805C565.9733,-217.0047 572.7944,-220.4525 579,-224 602.109,-237.2105 627.1872,-255.4768 641.6979,-266.4738"/>
<polygon fill="#191970" stroke="#191970" points="560.5031,-210.5488 549.9544,-209.5606 557.5845,-216.9113 560.5031,-210.5488"/>
</g>
<!-- Node288&#45;&gt;Node266 -->
<g id="edge43" class="edge">
<title>Node288&#45;&gt;Node266</title>
<path fill="none" stroke="#191970" d="M671.6438,-197.8317C697.0159,-222.0361 742.9868,-265.8912 763.3373,-285.305"/>
<polygon fill="#191970" stroke="#191970" points="673.8401,-195.0897 664.1885,-190.7196 669.0082,-200.1547 673.8401,-195.0897"/>
</g>
<!-- Node289&#45;&gt;Node263 -->
<g id="edge45" class="edge">
<title>Node289&#45;&gt;Node263</title>
<path fill="none" stroke="#191970" d="M275.2642,-330.2075C303.8706,-354.2749 356.7015,-398.7231 379.9766,-418.305"/>
<polygon fill="#191970" stroke="#191970" points="277.458,-327.4793 267.5527,-323.7196 272.9514,-332.8357 277.458,-327.4793"/>
</g>
<!-- Node289&#45;&gt;Node275 -->
<g id="edge48" class="edge">
<title>Node289&#45;&gt;Node275</title>
<path fill="none" stroke="#191970" d="M317.9977,-308.0806C402.3967,-300.0224 550.6838,-285.8644 618.4286,-279.3963"/>
<polygon fill="#191970" stroke="#191970" points="317.6536,-304.5975 308.0315,-309.0322 318.319,-311.5658 317.6536,-304.5975"/>
</g>
<!-- Node290 -->
<g id="node28" class="node">
<title>Node290</title>
<g id="a_node28"><a xlink:href="triangle_8cpp.html#af8e72ce607fa7738b63bab87df6aef22" target="_top" xlink:title="tallyencs">
<polygon fill="#ffffff" stroke="#000000" points="499,-304.5 499,-323.5 555,-323.5 555,-304.5 499,-304.5"/>
<text text-anchor="middle" x="527" y="-311.5" font-family="Helvetica,sans-Serif" font-size="10.00" fill="#000000">tallyencs</text>
</a>
</g>
</g>
<!-- Node289&#45;&gt;Node290 -->
<g id="edge46" class="edge">
<title>Node289&#45;&gt;Node290</title>
<path fill="none" stroke="#191970" d="M318.5692,-314C375.4268,-314 456.6883,-314 498.9873,-314"/>
<polygon fill="#191970" stroke="#191970" points="318.2516,-310.5001 308.2515,-314 318.2515,-317.5001 318.2516,-310.5001"/>
</g>
<!-- Node290&#45;&gt;Node266 -->
<g id="edge47" class="edge">
<title>Node290&#45;&gt;Node266</title>
<path fill="none" stroke="#191970" d="M565.4619,-311.0354C611.5632,-307.4819 688.3764,-301.5613 734.6496,-297.9946"/>
<polygon fill="#191970" stroke="#191970" points="564.9781,-307.5622 555.2767,-311.8205 565.5161,-314.5415 564.9781,-307.5622"/>
</g>
<!-- Node291&#45;&gt;Node292 -->
<g id="edge52" class="edge">
<title>Node291&#45;&gt;Node292</title>
<path fill="none" stroke="#191970" d="M154.2263,-185.1447C179.6564,-169.8665 218.5063,-146.5258 240.1088,-133.5473"/>
<polygon fill="#191970" stroke="#191970" points="152.2908,-182.2244 145.5213,-190.3745 155.8958,-188.2247 152.2908,-182.2244"/>
</g>
<!-- Node292&#45;&gt;Node267 -->
<g id="edge53" class="edge">
<title>Node292&#45;&gt;Node267</title>
<path fill="none" stroke="#191970" d="M298.3965,-114.325C351.52,-103.0667 445.4926,-86 527,-86 527,-86 527,-86 893,-86 1009.9208,-86 1088.563,-244.5901 1106.8951,-285.4766"/>
<polygon fill="#191970" stroke="#191970" points="297.3712,-110.9655 288.3322,-116.4924 298.845,-117.8086 297.3712,-110.9655"/>
</g>
<!-- Node293&#45;&gt;Node292 -->
<g id="edge55" class="edge">
<title>Node293&#45;&gt;Node292</title>
<path fill="none" stroke="#191970" d="M162.326,-124C181.1934,-124 204.8019,-124 223.5976,-124"/>
<polygon fill="#191970" stroke="#191970" points="162.1157,-120.5001 152.1157,-124 162.1156,-127.5001 162.1157,-120.5001"/>
</g>
<!-- Node294&#45;&gt;Node292 -->
<g id="edge57" class="edge">
<title>Node294&#45;&gt;Node292</title>
<path fill="none" stroke="#191970" d="M171.2294,-98.5353C188.4382,-103.7048 208.0601,-109.5991 224.0889,-114.4141"/>
<polygon fill="#191970" stroke="#191970" points="172.0055,-95.114 161.4213,-95.589 169.9916,-101.8181 172.0055,-95.114"/>
</g>
<!-- Node295&#45;&gt;Node267 -->
<g id="edge62" class="edge">
<title>Node295&#45;&gt;Node267</title>
<path fill="none" stroke="#191970" d="M931.5491,-43.5623C965.2073,-41.9034 1013.3413,-45.2036 1044,-72 1077.6336,-101.3964 1103.1287,-246.2298 1109.4714,-285.2833"/>
<polygon fill="#191970" stroke="#191970" points="930.9162,-40.0965 921.1702,-44.2516 931.3802,-47.0811 930.9162,-40.0965"/>
</g>
<!-- Node296&#45;&gt;Node267 -->
<g id="edge64" class="edge">
<title>Node296&#45;&gt;Node267</title>
<path fill="none" stroke="#191970" d="M1035.4943,-25.2722C1038.6937,-27.8493 1041.6389,-30.7574 1044,-34 1074.7734,-76.2616 1102.8817,-243.6675 1109.5226,-285.4918"/>
<polygon fill="#191970" stroke="#191970" points="1037.4223,-22.3501 1027.2054,-19.5456 1033.4434,-28.1094 1037.4223,-22.3501"/>
</g>
</g>
</svg>
