<?xml version="1.0" encoding="UTF-8" standalone="no"?>
<!DOCTYPE svg PUBLIC "-//W3C//DTD SVG 1.1//EN"
 "http://www.w3.org/Graphics/SVG/1.1/DTD/svg11.dtd">
<!-- Generated by graphviz version 2.40.1 (20161225.0304)
 -->
<!-- Title: triangletraverse Pages: 1 -->
<svg width="769pt" height="370pt"
 viewBox="0.00 0.00 769.00 370.00" xmlns="http://www.w3.org/2000/svg" xmlns:xlink="http://www.w3.org/1999/xlink">
<g id="graph0" class="graph" transform="scale(1 1) rotate(0) translate(4 366)">
<title>triangletraverse</title>
<polygon fill="#ffffff" stroke="transparent" points="-4,4 -4,-366 765,-366 765,4 -4,4"/>
<!-- Node447 -->
<g id="node1" class="node">
<title>Node447</title>
<polygon fill="#bfbfbf" stroke="#000000" points="0,-171.5 0,-190.5 83,-190.5 83,-171.5 0,-171.5"/>
<text text-anchor="middle" x="41.5" y="-178.5" font-family="Helvetica,sans-Serif" font-size="10.00" fill="#000000">triangletraverse</text>
</g>
<!-- Node448 -->
<g id="node2" class="node">
<title>Node448</title>
<g id="a_node2"><a xlink:href="triangle_8cpp.html#a0b4e7c06798ba40d7b435a2814f529d7" target="_top" xlink:title="makevertexmap">
<polygon fill="#ffffff" stroke="#000000" points="121,-342.5 121,-361.5 207,-361.5 207,-342.5 121,-342.5"/>
<text text-anchor="middle" x="164" y="-349.5" font-family="Helvetica,sans-Serif" font-size="10.00" fill="#000000">makevertexmap</text>
</a>
</g>
</g>
<!-- Node447&#45;&gt;Node448 -->
<g id="edge1" class="edge">
<title>Node447&#45;&gt;Node448</title>
<path fill="none" stroke="#191970" d="M47.6464,-200.6789C58.0363,-231.2381 81.6613,-290.4825 119,-328 124.8711,-333.8992 132.4978,-338.7021 139.7993,-342.4183"/>
<polygon fill="#191970" stroke="#191970" points="50.8538,-199.2265 44.4165,-190.8115 44.2011,-201.4042 50.8538,-199.2265"/>
</g>
<!-- Node454 -->
<g id="node7" class="node">
<title>Node454</title>
<g id="a_node7"><a xlink:href="triangle_8cpp.html#a711adeeb3c28e4f2e3e173d729912c13" target="_top" xlink:title="reconstruct">
<polygon fill="#ffffff" stroke="#000000" points="251,-304.5 251,-323.5 316,-323.5 316,-304.5 251,-304.5"/>
<text text-anchor="middle" x="283.5" y="-311.5" font-family="Helvetica,sans-Serif" font-size="10.00" fill="#000000">reconstruct</text>
</a>
</g>
</g>
<!-- Node447&#45;&gt;Node454 -->
<g id="edge6" class="edge">
<title>Node447&#45;&gt;Node454</title>
<path fill="none" stroke="#191970" d="M50.5822,-199.6162C62.808,-222.5874 86.7973,-261.046 119,-281 159.6064,-306.1612 215.6967,-312.6278 250.7673,-314.0261"/>
<polygon fill="#191970" stroke="#191970" points="53.6113,-197.8524 45.939,-190.5458 47.3803,-201.0421 53.6113,-197.8524"/>
</g>
<!-- Node455 -->
<g id="node8" class="node">
<title>Node455</title>
<g id="a_node8"><a xlink:href="triangle_8cpp.html#aa0ba1198ac22df6403aeaa25b4ebbe37" target="_top" xlink:title="carveholes">
<polygon fill="#ffffff" stroke="#000000" points="251.5,-266.5 251.5,-285.5 315.5,-285.5 315.5,-266.5 251.5,-266.5"/>
<text text-anchor="middle" x="283.5" y="-273.5" font-family="Helvetica,sans-Serif" font-size="10.00" fill="#000000">carveholes</text>
</a>
</g>
</g>
<!-- Node447&#45;&gt;Node455 -->
<g id="edge8" class="edge">
<title>Node447&#45;&gt;Node455</title>
<path fill="none" stroke="#191970" d="M54.2986,-199.2496C68.0409,-217.259 91.628,-243.9358 119,-257 161.4205,-277.2466 216.7552,-279.3814 251.2049,-278.2809"/>
<polygon fill="#191970" stroke="#191970" points="56.7853,-196.7232 48.0417,-190.7399 51.1457,-200.8698 56.7853,-196.7232"/>
</g>
<!-- Node456 -->
<g id="node9" class="node">
<title>Node456</title>
<g id="a_node9"><a xlink:href="triangle_8cpp.html#aff72cd32f2fdfedbedd4270ab70f212d" target="_top" xlink:title="tallyfaces">
<polygon fill="#ffffff" stroke="#000000" points="134.5,-228.5 134.5,-247.5 193.5,-247.5 193.5,-228.5 134.5,-228.5"/>
<text text-anchor="middle" x="164" y="-235.5" font-family="Helvetica,sans-Serif" font-size="10.00" fill="#000000">tallyfaces</text>
</a>
</g>
</g>
<!-- Node447&#45;&gt;Node456 -->
<g id="edge10" class="edge">
<title>Node447&#45;&gt;Node456</title>
<path fill="none" stroke="#191970" d="M71.3665,-194.8971C93.7176,-205.2972 123.7082,-219.252 143.4294,-228.4284"/>
<polygon fill="#191970" stroke="#191970" points="72.5469,-191.586 62.0037,-190.5405 69.5937,-197.9326 72.5469,-191.586"/>
</g>
<!-- Node458 -->
<g id="node11" class="node">
<title>Node458</title>
<g id="a_node11"><a xlink:href="triangle_8cpp.html#a0a88bbfa9e08844c589160c5b7c9d05e" target="_top" xlink:title="highorder">
<polygon fill="#ffffff" stroke="#000000" points="255.5,-190.5 255.5,-209.5 311.5,-209.5 311.5,-190.5 255.5,-190.5"/>
<text text-anchor="middle" x="283.5" y="-197.5" font-family="Helvetica,sans-Serif" font-size="10.00" fill="#000000">highorder</text>
</a>
</g>
</g>
<!-- Node447&#45;&gt;Node458 -->
<g id="edge13" class="edge">
<title>Node447&#45;&gt;Node458</title>
<path fill="none" stroke="#191970" d="M93.2953,-185.0666C142.8202,-188.9549 215.6465,-194.6727 255.277,-197.7841"/>
<polygon fill="#191970" stroke="#191970" points="93.3446,-181.5598 83.1013,-184.2662 92.7966,-188.5383 93.3446,-181.5598"/>
</g>
<!-- Node459 -->
<g id="node12" class="node">
<title>Node459</title>
<g id="a_node12"><a xlink:href="triangle_8cpp.html#ae2aeed2f2751cc1e7087cc0f94d9f78f" target="_top" xlink:title="writeelements">
<polygon fill="#ffffff" stroke="#000000" points="245,-152.5 245,-171.5 322,-171.5 322,-152.5 245,-152.5"/>
<text text-anchor="middle" x="283.5" y="-159.5" font-family="Helvetica,sans-Serif" font-size="10.00" fill="#000000">writeelements</text>
</a>
</g>
</g>
<!-- Node447&#45;&gt;Node459 -->
<g id="edge15" class="edge">
<title>Node447&#45;&gt;Node459</title>
<path fill="none" stroke="#191970" d="M93.3432,-176.9297C138.7853,-173.3619 203.8181,-168.256 244.8365,-165.0356"/>
<polygon fill="#191970" stroke="#191970" points="92.7966,-173.4617 83.1013,-177.7338 93.3446,-180.4402 92.7966,-173.4617"/>
</g>
<!-- Node460 -->
<g id="node13" class="node">
<title>Node460</title>
<g id="a_node13"><a xlink:href="triangle_8cpp.html#ab285f09094d56a1431f965933235d7b3" target="_top" xlink:title="writeedges">
<polygon fill="#ffffff" stroke="#000000" points="132,-114.5 132,-133.5 196,-133.5 196,-114.5 132,-114.5"/>
<text text-anchor="middle" x="164" y="-121.5" font-family="Helvetica,sans-Serif" font-size="10.00" fill="#000000">writeedges</text>
</a>
</g>
</g>
<!-- Node447&#45;&gt;Node460 -->
<g id="edge17" class="edge">
<title>Node447&#45;&gt;Node460</title>
<path fill="none" stroke="#191970" d="M71.3665,-167.1029C93.7176,-156.7028 123.7082,-142.748 143.4294,-133.5716"/>
<polygon fill="#191970" stroke="#191970" points="69.5937,-164.0674 62.0037,-171.4595 72.5469,-170.414 69.5937,-164.0674"/>
</g>
<!-- Node461 -->
<g id="node14" class="node">
<title>Node461</title>
<g id="a_node14"><a xlink:href="triangle_8cpp.html#a63c072a0ec5fd1e7ab2f23ecc4dd576a" target="_top" xlink:title="writevoronoi">
<polygon fill="#ffffff" stroke="#000000" points="129.5,-76.5 129.5,-95.5 198.5,-95.5 198.5,-76.5 129.5,-76.5"/>
<text text-anchor="middle" x="164" y="-83.5" font-family="Helvetica,sans-Serif" font-size="10.00" fill="#000000">writevoronoi</text>
</a>
</g>
</g>
<!-- Node447&#45;&gt;Node461 -->
<g id="edge19" class="edge">
<title>Node447&#45;&gt;Node461</title>
<path fill="none" stroke="#191970" d="M55.8741,-163.4955C70.3883,-146.711 94.1575,-121.5462 119,-105 124.3641,-101.4272 130.5094,-98.3013 136.4992,-95.6716"/>
<polygon fill="#191970" stroke="#191970" points="52.9577,-161.5237 49.1711,-171.4187 58.3019,-166.0448 52.9577,-161.5237"/>
</g>
<!-- Node462 -->
<g id="node15" class="node">
<title>Node462</title>
<g id="a_node15"><a xlink:href="triangle_8cpp.html#a43c01b56c588d0fca5611eed8ee3404d" target="_top" xlink:title="writeneighbors">
<polygon fill="#ffffff" stroke="#000000" points="124,-38.5 124,-57.5 204,-57.5 204,-38.5 124,-38.5"/>
<text text-anchor="middle" x="164" y="-45.5" font-family="Helvetica,sans-Serif" font-size="10.00" fill="#000000">writeneighbors</text>
</a>
</g>
</g>
<!-- Node447&#45;&gt;Node462 -->
<g id="edge21" class="edge">
<title>Node447&#45;&gt;Node462</title>
<path fill="none" stroke="#191970" d="M49.9764,-162.2897C62.0702,-137.4622 86.465,-93.6683 119,-67 123.591,-63.2368 129.0359,-60.1111 134.5244,-57.5555"/>
<polygon fill="#191970" stroke="#191970" points="46.7905,-160.8398 45.689,-171.3772 53.1213,-163.8266 46.7905,-160.8398"/>
</g>
<!-- Node463 -->
<g id="node16" class="node">
<title>Node463</title>
<g id="a_node16"><a xlink:href="triangle_8cpp.html#ada18b75ad55debb3c033ba1db23ba2b4" target="_top" xlink:title="quality_statistics">
<polygon fill="#ffffff" stroke="#000000" points="119,-.5 119,-19.5 209,-19.5 209,-.5 119,-.5"/>
<text text-anchor="middle" x="164" y="-7.5" font-family="Helvetica,sans-Serif" font-size="10.00" fill="#000000">quality_statistics</text>
</a>
</g>
</g>
<!-- Node447&#45;&gt;Node463 -->
<g id="edge23" class="edge">
<title>Node447&#45;&gt;Node463</title>
<path fill="none" stroke="#191970" d="M46.6579,-161.5712C56.0149,-129.8069 78.6514,-66.5434 119,-29 123.0976,-25.1873 128.0733,-22.0777 133.2022,-19.562"/>
<polygon fill="#191970" stroke="#191970" points="43.2321,-160.8251 43.8948,-171.3992 49.9708,-162.7197 43.2321,-160.8251"/>
</g>
<!-- Node449 -->
<g id="node3" class="node">
<title>Node449</title>
<g id="a_node3"><a xlink:href="triangle_8cpp.html#a77e7549672629c06d5926b7edcafc337" target="_top" xlink:title="formskeleton">
<polygon fill="#ffffff" stroke="#000000" points="247,-342.5 247,-361.5 320,-361.5 320,-342.5 247,-342.5"/>
<text text-anchor="middle" x="283.5" y="-349.5" font-family="Helvetica,sans-Serif" font-size="10.00" fill="#000000">formskeleton</text>
</a>
</g>
</g>
<!-- Node448&#45;&gt;Node449 -->
<g id="edge2" class="edge">
<title>Node448&#45;&gt;Node449</title>
<path fill="none" stroke="#191970" d="M217.353,-352C227.2787,-352 237.4426,-352 246.7321,-352"/>
<polygon fill="#191970" stroke="#191970" points="217.1423,-348.5001 207.1422,-352 217.1422,-355.5001 217.1423,-348.5001"/>
</g>
<!-- Node450 -->
<g id="node4" class="node">
<title>Node450</title>
<g id="a_node4"><a xlink:href="triangle_8hpp.html#a4ca59bf5fe569672944651426b662ba6" target="_top" xlink:title="Call Triangle. ">
<polygon fill="#ffffff" stroke="#000000" points="358,-171.5 358,-190.5 420,-190.5 420,-171.5 358,-171.5"/>
<text text-anchor="middle" x="389" y="-178.5" font-family="Helvetica,sans-Serif" font-size="10.00" fill="#000000">triangulate</text>
</a>
</g>
</g>
<!-- Node449&#45;&gt;Node450 -->
<g id="edge3" class="edge">
<title>Node449&#45;&gt;Node450</title>
<path fill="none" stroke="#191970" d="M317.5987,-336.9729C319.1662,-335.7362 320.6467,-334.4131 322,-333 363.2886,-289.885 381.612,-217.1138 387.1137,-190.8357"/>
<polygon fill="#191970" stroke="#191970" points="315.6752,-334.0488 309.2235,-342.4527 319.5078,-339.9064 315.6752,-334.0488"/>
</g>
<!-- Node451 -->
<g id="node5" class="node">
<title>Node451</title>
<g id="a_node5"><a xlink:href="classRiver_1_1Triangle.html#a0dae20b40d446e6009a88543e2c14daf" target="_top" xlink:title="Generate mesh. ">
<polygon fill="#ffffff" stroke="#000000" points="456,-171.5 456,-190.5 580,-190.5 580,-171.5 456,-171.5"/>
<text text-anchor="middle" x="518" y="-178.5" font-family="Helvetica,sans-Serif" font-size="10.00" fill="#000000">River::Triangle::generate</text>
</a>
</g>
</g>
<!-- Node450&#45;&gt;Node451 -->
<g id="edge4" class="edge">
<title>Node450&#45;&gt;Node451</title>
<path fill="none" stroke="#191970" d="M430.2629,-181C438.4682,-181 447.2527,-181 455.9767,-181"/>
<polygon fill="#191970" stroke="#191970" points="430.2273,-177.5001 420.2273,-181 430.2273,-184.5001 430.2273,-177.5001"/>
</g>
<!-- Node452 -->
<g id="node6" class="node">
<title>Node452</title>
<g id="a_node6"><a xlink:href="namespaceRiver.html#af1a3f7c61809dd8032e4ff5920da83cc" target="_top" xlink:title="One step of forward river evolution. ">
<polygon fill="#ffffff" stroke="#ff0000" points="616,-171.5 616,-190.5 761,-190.5 761,-171.5 616,-171.5"/>
<text text-anchor="middle" x="688.5" y="-178.5" font-family="Helvetica,sans-Serif" font-size="10.00" fill="#000000">River::ForwardRiverEvolution</text>
</a>
</g>
</g>
<!-- Node451&#45;&gt;Node452 -->
<g id="edge5" class="edge">
<title>Node451&#45;&gt;Node452</title>
<path fill="none" stroke="#191970" d="M590.2431,-181C598.7006,-181 607.333,-181 615.7967,-181"/>
<polygon fill="#191970" stroke="#191970" points="590.0368,-177.5001 580.0367,-181 590.0367,-184.5001 590.0368,-177.5001"/>
</g>
<!-- Node454&#45;&gt;Node450 -->
<g id="edge7" class="edge">
<title>Node454&#45;&gt;Node450</title>
<path fill="none" stroke="#191970" d="M317.2672,-298.8788C318.9347,-297.6628 320.526,-296.3702 322,-295 355.4592,-263.8953 377.3854,-212.2627 385.4907,-190.8121"/>
<polygon fill="#191970" stroke="#191970" points="315.1381,-296.0808 308.4852,-304.3263 318.8281,-302.0293 315.1381,-296.0808"/>
</g>
<!-- Node455&#45;&gt;Node450 -->
<g id="edge9" class="edge">
<title>Node455&#45;&gt;Node450</title>
<path fill="none" stroke="#191970" d="M315.5786,-261.407C317.8149,-260.0176 319.9803,-258.5461 322,-257 347.6995,-237.3271 371.0683,-206.6723 382.1803,-190.9851"/>
<polygon fill="#191970" stroke="#191970" points="313.777,-258.4043 306.7599,-266.3423 317.1956,-264.5128 313.777,-258.4043"/>
</g>
<!-- Node457 -->
<g id="node10" class="node">
<title>Node457</title>
<g id="a_node10"><a xlink:href="triangle_8cpp.html#a5a654ff6b304f2166c64ffe9183b2995" target="_top" xlink:title="enforcequality">
<polygon fill="#ffffff" stroke="#000000" points="245,-228.5 245,-247.5 322,-247.5 322,-228.5 245,-228.5"/>
<text text-anchor="middle" x="283.5" y="-235.5" font-family="Helvetica,sans-Serif" font-size="10.00" fill="#000000">enforcequality</text>
</a>
</g>
</g>
<!-- Node456&#45;&gt;Node457 -->
<g id="edge11" class="edge">
<title>Node456&#45;&gt;Node457</title>
<path fill="none" stroke="#191970" d="M203.7687,-238C216.9906,-238 231.6877,-238 244.8256,-238"/>
<polygon fill="#191970" stroke="#191970" points="203.5394,-234.5001 193.5393,-238 203.5393,-241.5001 203.5394,-234.5001"/>
</g>
<!-- Node457&#45;&gt;Node450 -->
<g id="edge12" class="edge">
<title>Node457&#45;&gt;Node450</title>
<path fill="none" stroke="#191970" d="M312.8089,-223.7549C315.9246,-222.1755 319.0361,-220.5702 322,-219 339.4888,-209.7349 359.1495,-198.4819 372.6255,-190.6361"/>
<polygon fill="#191970" stroke="#191970" points="310.9771,-220.7574 303.593,-228.3552 314.1034,-227.0205 310.9771,-220.7574"/>
</g>
<!-- Node458&#45;&gt;Node450 -->
<g id="edge14" class="edge">
<title>Node458&#45;&gt;Node450</title>
<path fill="none" stroke="#191970" d="M321.7966,-193.103C333.5843,-190.9801 346.4153,-188.6693 357.6767,-186.6412"/>
<polygon fill="#191970" stroke="#191970" points="320.9934,-189.6912 311.7721,-194.9083 322.2341,-196.5804 320.9934,-189.6912"/>
</g>
<!-- Node459&#45;&gt;Node450 -->
<g id="edge16" class="edge">
<title>Node459&#45;&gt;Node450</title>
<path fill="none" stroke="#191970" d="M332.2905,-170.7869C341.0043,-172.3562 349.863,-173.9516 357.9082,-175.4005"/>
<polygon fill="#191970" stroke="#191970" points="332.6473,-167.2949 322.1852,-168.967 331.4065,-174.1841 332.6473,-167.2949"/>
</g>
<!-- Node460&#45;&gt;Node450 -->
<g id="edge18" class="edge">
<title>Node460&#45;&gt;Node450</title>
<path fill="none" stroke="#191970" d="M206.3109,-124.5776C238.7037,-126.0872 284.1092,-130.5358 322,-143 342.0706,-149.6023 362.8882,-162.5298 375.8855,-171.46"/>
<polygon fill="#191970" stroke="#191970" points="206.4065,-121.0788 196.277,-124.1843 206.1322,-128.0734 206.4065,-121.0788"/>
</g>
<!-- Node461&#45;&gt;Node450 -->
<g id="edge20" class="edge">
<title>Node461&#45;&gt;Node450</title>
<path fill="none" stroke="#191970" d="M208.8087,-90.6488C241.5743,-95.4076 286.335,-104.8036 322,-123 346.1196,-135.3059 368.7427,-158.1052 380.5267,-171.1531"/>
<polygon fill="#191970" stroke="#191970" points="208.9995,-87.1426 198.6187,-89.2615 208.0551,-94.0786 208.9995,-87.1426"/>
</g>
<!-- Node462&#45;&gt;Node450 -->
<g id="edge22" class="edge">
<title>Node462&#45;&gt;Node450</title>
<path fill="none" stroke="#191970" d="M214.1994,-53.9321C247.1249,-59.7388 289.8669,-71.0749 322,-93 352.6125,-113.8876 375.1482,-153.2976 384.386,-171.4297"/>
<polygon fill="#191970" stroke="#191970" points="214.7553,-50.4766 204.3189,-52.302 213.6157,-57.3832 214.7553,-50.4766"/>
</g>
<!-- Node464 -->
<g id="node17" class="node">
<title>Node464</title>
<g id="a_node17"><a xlink:href="triangle_8cpp.html#af5c7ca5685bbb13d38d7dbb7a686634d" target="_top" xlink:title="statistics">
<polygon fill="#ffffff" stroke="#000000" points="255.5,-.5 255.5,-19.5 311.5,-19.5 311.5,-.5 255.5,-.5"/>
<text text-anchor="middle" x="283.5" y="-7.5" font-family="Helvetica,sans-Serif" font-size="10.00" fill="#000000">statistics</text>
</a>
</g>
</g>
<!-- Node463&#45;&gt;Node464 -->
<g id="edge24" class="edge">
<title>Node463&#45;&gt;Node464</title>
<path fill="none" stroke="#191970" d="M219.4795,-10C231.8684,-10 244.5033,-10 255.2393,-10"/>
<polygon fill="#191970" stroke="#191970" points="219.1779,-6.5001 209.1778,-10 219.1778,-13.5001 219.1779,-6.5001"/>
</g>
<!-- Node464&#45;&gt;Node450 -->
<g id="edge25" class="edge">
<title>Node464&#45;&gt;Node450</title>
<path fill="none" stroke="#191970" d="M312.1221,-25.1141C315.7193,-27.7668 319.1354,-30.7372 322,-34 360.1188,-77.417 380.2741,-146.1455 386.6932,-171.3363"/>
<polygon fill="#191970" stroke="#191970" points="313.8566,-22.0662 303.574,-19.5129 310.02,-27.9212 313.8566,-22.0662"/>
</g>
</g>
</svg>
