<?xml version="1.0" encoding="UTF-8" standalone="no"?>
<!DOCTYPE svg PUBLIC "-//W3C//DTD SVG 1.1//EN"
 "http://www.w3.org/Graphics/SVG/1.1/DTD/svg11.dtd">
<!-- Generated by graphviz version 2.40.1 (20161225.0304)
 -->
<!-- Title: initializevertexpool Pages: 1 -->
<svg width="363pt" height="66pt"
 viewBox="0.00 0.00 363.00 66.00" xmlns="http://www.w3.org/2000/svg" xmlns:xlink="http://www.w3.org/1999/xlink">
<g id="graph0" class="graph" transform="scale(1 1) rotate(0) translate(4 62)">
<title>initializevertexpool</title>
<polygon fill="#ffffff" stroke="transparent" points="-4,4 -4,-62 359,-62 359,4 -4,4"/>
<!-- Node404 -->
<g id="node1" class="node">
<title>Node404</title>
<polygon fill="#bfbfbf" stroke="#000000" points="0,-19.5 0,-38.5 97,-38.5 97,-19.5 0,-19.5"/>
<text text-anchor="middle" x="48.5" y="-26.5" font-family="Helvetica,sans-Serif" font-size="10.00" fill="#000000">initializevertexpool</text>
</g>
<!-- Node405 -->
<g id="node2" class="node">
<title>Node405</title>
<g id="a_node2"><a xlink:href="triangle_8cpp.html#aea60f72bb0dc95698c995a1375b83743" target="_top" xlink:title="poolinit">
<polygon fill="#ffffff" stroke="#000000" points="133,-19.5 133,-38.5 180,-38.5 180,-19.5 133,-19.5"/>
<text text-anchor="middle" x="156.5" y="-26.5" font-family="Helvetica,sans-Serif" font-size="10.00" fill="#000000">poolinit</text>
</a>
</g>
</g>
<!-- Node404&#45;&gt;Node405 -->
<g id="edge1" class="edge">
<title>Node404&#45;&gt;Node405</title>
<path fill="none" stroke="#191970" d="M97.129,-29C105.7713,-29 114.599,-29 122.7147,-29"/>
<polygon fill="#191970" stroke="#191970" points="122.898,-32.5001 132.898,-29 122.898,-25.5001 122.898,-32.5001"/>
</g>
<!-- Node406 -->
<g id="node3" class="node">
<title>Node406</title>
<g id="a_node3"><a xlink:href="triangle_8cpp.html#a5f51f1d3957615b2c84a91fd9f5f09bf" target="_top" xlink:title="trimalloc">
<polygon fill="#ffffff" stroke="#000000" points="220.5,-38.5 220.5,-57.5 273.5,-57.5 273.5,-38.5 220.5,-38.5"/>
<text text-anchor="middle" x="247" y="-45.5" font-family="Helvetica,sans-Serif" font-size="10.00" fill="#000000">trimalloc</text>
</a>
</g>
</g>
<!-- Node405&#45;&gt;Node406 -->
<g id="edge2" class="edge">
<title>Node405&#45;&gt;Node406</title>
<path fill="none" stroke="#191970" d="M180.2778,-33.992C189.4688,-35.9216 200.1984,-38.1742 210.3319,-40.3017"/>
<polygon fill="#191970" stroke="#191970" points="209.6818,-43.7415 220.1876,-42.3709 211.1201,-36.8908 209.6818,-43.7415"/>
</g>
<!-- Node408 -->
<g id="node5" class="node">
<title>Node408</title>
<g id="a_node5"><a xlink:href="triangle_8cpp.html#a2657afcbf1c107955b10ccf7dbf14c90" target="_top" xlink:title="poolrestart">
<polygon fill="#ffffff" stroke="#000000" points="216,-.5 216,-19.5 278,-19.5 278,-.5 216,-.5"/>
<text text-anchor="middle" x="247" y="-7.5" font-family="Helvetica,sans-Serif" font-size="10.00" fill="#000000">poolrestart</text>
</a>
</g>
</g>
<!-- Node405&#45;&gt;Node408 -->
<g id="edge4" class="edge">
<title>Node405&#45;&gt;Node408</title>
<path fill="none" stroke="#191970" d="M180.2778,-24.008C188.1923,-22.3464 197.2476,-20.4453 206.0808,-18.5908"/>
<polygon fill="#191970" stroke="#191970" points="206.8192,-22.0121 215.8867,-16.5321 205.3809,-15.1615 206.8192,-22.0121"/>
</g>
<!-- Node407 -->
<g id="node4" class="node">
<title>Node407</title>
<g id="a_node4"><a xlink:href="triangle_8cpp.html#a648abfc70d158485620dbcb9aa990178" target="_top" xlink:title="triexit">
<polygon fill="#ffffff" stroke="#000000" points="314,-38.5 314,-57.5 355,-57.5 355,-38.5 314,-38.5"/>
<text text-anchor="middle" x="334.5" y="-45.5" font-family="Helvetica,sans-Serif" font-size="10.00" fill="#000000">triexit</text>
</a>
</g>
</g>
<!-- Node406&#45;&gt;Node407 -->
<g id="edge3" class="edge">
<title>Node406&#45;&gt;Node407</title>
<path fill="none" stroke="#191970" d="M273.7283,-48C283.1769,-48 293.8803,-48 303.6431,-48"/>
<polygon fill="#191970" stroke="#191970" points="303.7638,-51.5001 313.7637,-48 303.7637,-44.5001 303.7638,-51.5001"/>
</g>
</g>
</svg>
