<?xml version="1.0" encoding="UTF-8" standalone="no"?>
<!DOCTYPE svg PUBLIC "-//W3C//DTD SVG 1.1//EN"
 "http://www.w3.org/Graphics/SVG/1.1/DTD/svg11.dtd">
<!-- Generated by graphviz version 2.40.1 (20161225.0304)
 -->
<!-- Title: precisionerror Pages: 1 -->
<svg width="742pt" height="66pt"
 viewBox="0.00 0.00 742.00 66.00" xmlns="http://www.w3.org/2000/svg" xmlns:xlink="http://www.w3.org/1999/xlink">
<g id="graph0" class="graph" transform="scale(1 1) rotate(0) translate(4 62)">
<title>precisionerror</title>
<polygon fill="#ffffff" stroke="transparent" points="-4,4 -4,-62 738,-62 738,4 -4,4"/>
<!-- Node1714 -->
<g id="node1" class="node">
<title>Node1714</title>
<polygon fill="#bfbfbf" stroke="#000000" points="0,-19.5 0,-38.5 75,-38.5 75,-19.5 0,-19.5"/>
<text text-anchor="middle" x="37.5" y="-26.5" font-family="Helvetica,sans-Serif" font-size="10.00" fill="#000000">precisionerror</text>
</g>
<!-- Node1715 -->
<g id="node2" class="node">
<title>Node1715</title>
<g id="a_node2"><a xlink:href="triangle_8cpp.html#adca37fc9e90f78c9ae794662de5428bd" target="_top" xlink:title="splitencsegs">
<polygon fill="#ffffff" stroke="#000000" points="111,-38.5 111,-57.5 182,-57.5 182,-38.5 111,-38.5"/>
<text text-anchor="middle" x="146.5" y="-45.5" font-family="Helvetica,sans-Serif" font-size="10.00" fill="#000000">splitencsegs</text>
</a>
</g>
</g>
<!-- Node1714&#45;&gt;Node1715 -->
<g id="edge1" class="edge">
<title>Node1714&#45;&gt;Node1715</title>
<path fill="none" stroke="#191970" d="M84.9964,-37.2792C93.6409,-38.786 102.5244,-40.3345 110.7574,-41.7696"/>
<polygon fill="#191970" stroke="#191970" points="85.4641,-33.808 75.0116,-35.5387 84.262,-40.704 85.4641,-33.808"/>
</g>
<!-- Node1721 -->
<g id="node7" class="node">
<title>Node1721</title>
<g id="a_node7"><a xlink:href="triangle_8cpp.html#a48fc63d369d988c08cbe8ab40f0b8af5" target="_top" xlink:title="splittriangle">
<polygon fill="#ffffff" stroke="#000000" points="113.5,-.5 113.5,-19.5 179.5,-19.5 179.5,-.5 113.5,-.5"/>
<text text-anchor="middle" x="146.5" y="-7.5" font-family="Helvetica,sans-Serif" font-size="10.00" fill="#000000">splittriangle</text>
</a>
</g>
</g>
<!-- Node1714&#45;&gt;Node1721 -->
<g id="edge6" class="edge">
<title>Node1714&#45;&gt;Node1721</title>
<path fill="none" stroke="#191970" d="M85.1464,-20.6947C94.6395,-19.0399 104.4145,-17.336 113.2945,-15.7881"/>
<polygon fill="#191970" stroke="#191970" points="84.262,-17.296 75.0116,-22.4613 85.4641,-24.192 84.262,-17.296"/>
</g>
<!-- Node1716 -->
<g id="node3" class="node">
<title>Node1716</title>
<g id="a_node3"><a xlink:href="triangle_8cpp.html#a5a654ff6b304f2166c64ffe9183b2995" target="_top" xlink:title="enforcequality">
<polygon fill="#ffffff" stroke="#000000" points="218,-19.5 218,-38.5 295,-38.5 295,-19.5 218,-19.5"/>
<text text-anchor="middle" x="256.5" y="-26.5" font-family="Helvetica,sans-Serif" font-size="10.00" fill="#000000">enforcequality</text>
</a>
</g>
</g>
<!-- Node1715&#45;&gt;Node1716 -->
<g id="edge2" class="edge">
<title>Node1715&#45;&gt;Node1716</title>
<path fill="none" stroke="#191970" d="M192.0964,-40.1243C200.6826,-38.6412 209.5839,-37.1037 217.9296,-35.6622"/>
<polygon fill="#191970" stroke="#191970" points="191.4722,-36.6802 182.2138,-41.8312 192.6637,-43.578 191.4722,-36.6802"/>
</g>
<!-- Node1717 -->
<g id="node4" class="node">
<title>Node1717</title>
<g id="a_node4"><a xlink:href="triangle_8hpp.html#a4ca59bf5fe569672944651426b662ba6" target="_top" xlink:title="Call Triangle. ">
<polygon fill="#ffffff" stroke="#000000" points="331,-19.5 331,-38.5 393,-38.5 393,-19.5 331,-19.5"/>
<text text-anchor="middle" x="362" y="-26.5" font-family="Helvetica,sans-Serif" font-size="10.00" fill="#000000">triangulate</text>
</a>
</g>
</g>
<!-- Node1716&#45;&gt;Node1717 -->
<g id="edge3" class="edge">
<title>Node1716&#45;&gt;Node1717</title>
<path fill="none" stroke="#191970" d="M305.2905,-29C314.0043,-29 322.863,-29 330.9082,-29"/>
<polygon fill="#191970" stroke="#191970" points="305.1853,-25.5001 295.1852,-29 305.1852,-32.5001 305.1853,-25.5001"/>
</g>
<!-- Node1718 -->
<g id="node5" class="node">
<title>Node1718</title>
<g id="a_node5"><a xlink:href="classRiver_1_1Triangle.html#a0dae20b40d446e6009a88543e2c14daf" target="_top" xlink:title="Generate mesh. ">
<polygon fill="#ffffff" stroke="#000000" points="429,-19.5 429,-38.5 553,-38.5 553,-19.5 429,-19.5"/>
<text text-anchor="middle" x="491" y="-26.5" font-family="Helvetica,sans-Serif" font-size="10.00" fill="#000000">River::Triangle::generate</text>
</a>
</g>
</g>
<!-- Node1717&#45;&gt;Node1718 -->
<g id="edge4" class="edge">
<title>Node1717&#45;&gt;Node1718</title>
<path fill="none" stroke="#191970" d="M403.2629,-29C411.4682,-29 420.2527,-29 428.9767,-29"/>
<polygon fill="#191970" stroke="#191970" points="403.2273,-25.5001 393.2273,-29 403.2273,-32.5001 403.2273,-25.5001"/>
</g>
<!-- Node1719 -->
<g id="node6" class="node">
<title>Node1719</title>
<g id="a_node6"><a xlink:href="namespaceRiver.html#af1a3f7c61809dd8032e4ff5920da83cc" target="_top" xlink:title="One step of forward river evolution. ">
<polygon fill="#ffffff" stroke="#ff0000" points="589,-19.5 589,-38.5 734,-38.5 734,-19.5 589,-19.5"/>
<text text-anchor="middle" x="661.5" y="-26.5" font-family="Helvetica,sans-Serif" font-size="10.00" fill="#000000">River::ForwardRiverEvolution</text>
</a>
</g>
</g>
<!-- Node1718&#45;&gt;Node1719 -->
<g id="edge5" class="edge">
<title>Node1718&#45;&gt;Node1719</title>
<path fill="none" stroke="#191970" d="M563.2431,-29C571.7006,-29 580.333,-29 588.7967,-29"/>
<polygon fill="#191970" stroke="#191970" points="563.0368,-25.5001 553.0367,-29 563.0367,-32.5001 563.0368,-25.5001"/>
</g>
<!-- Node1721&#45;&gt;Node1716 -->
<g id="edge7" class="edge">
<title>Node1721&#45;&gt;Node1716</title>
<path fill="none" stroke="#191970" d="M189.3862,-17.4076C198.721,-19.02 208.5457,-20.717 217.7109,-22.3001"/>
<polygon fill="#191970" stroke="#191970" points="189.9535,-13.9538 179.5036,-15.7006 188.762,-20.8517 189.9535,-13.9538"/>
</g>
</g>
</svg>
