<?xml version="1.0" encoding="UTF-8" standalone="no"?>
<!DOCTYPE svg PUBLIC "-//W3C//DTD SVG 1.1//EN"
 "http://www.w3.org/Graphics/SVG/1.1/DTD/svg11.dtd">
<!-- Generated by graphviz version 2.40.1 (20161225.0304)
 -->
<!-- Title: poolrestart Pages: 1 -->
<svg width="850pt" height="313pt"
 viewBox="0.00 0.00 850.00 313.00" xmlns="http://www.w3.org/2000/svg" xmlns:xlink="http://www.w3.org/1999/xlink">
<g id="graph0" class="graph" transform="scale(1 1) rotate(0) translate(4 309)">
<title>poolrestart</title>
<polygon fill="#ffffff" stroke="transparent" points="-4,4 -4,-309 846,-309 846,4 -4,4"/>
<!-- Node212 -->
<g id="node1" class="node">
<title>Node212</title>
<polygon fill="#bfbfbf" stroke="#000000" points="0,-228.5 0,-247.5 62,-247.5 62,-228.5 0,-228.5"/>
<text text-anchor="middle" x="31" y="-235.5" font-family="Helvetica,sans-Serif" font-size="10.00" fill="#000000">poolrestart</text>
</g>
<!-- Node213 -->
<g id="node2" class="node">
<title>Node213</title>
<g id="a_node2"><a xlink:href="triangle_8cpp.html#a50d34a398ff84c3d02a81d8d73dd0ee9" target="_top" xlink:title="poolinit">
<polygon fill="#ffffff" stroke="#000000" points="233.5,-209.5 233.5,-228.5 280.5,-228.5 280.5,-209.5 233.5,-209.5"/>
<text text-anchor="middle" x="257" y="-216.5" font-family="Helvetica,sans-Serif" font-size="10.00" fill="#000000">poolinit</text>
</a>
</g>
</g>
<!-- Node212&#45;&gt;Node213 -->
<g id="edge1" class="edge">
<title>Node212&#45;&gt;Node213</title>
<path fill="none" stroke="#191970" d="M72.6356,-234.4997C119.8982,-230.5263 195.3556,-224.1825 233.4138,-220.9829"/>
<polygon fill="#191970" stroke="#191970" points="72.0959,-231.0326 62.4243,-235.3581 72.6824,-238.008 72.0959,-231.0326"/>
</g>
<!-- Node224 -->
<g id="node12" class="node">
<title>Node224</title>
<g id="a_node12"><a xlink:href="triangle_8cpp.html#a2ede94743503e369e9b1c6c2a0ac9f7f" target="_top" xlink:title="insertvertex">
<polygon fill="#ffffff" stroke="#000000" points="99.5,-105.5 99.5,-124.5 167.5,-124.5 167.5,-105.5 99.5,-105.5"/>
<text text-anchor="middle" x="133.5" y="-112.5" font-family="Helvetica,sans-Serif" font-size="10.00" fill="#000000">insertvertex</text>
</a>
</g>
</g>
<!-- Node212&#45;&gt;Node224 -->
<g id="edge15" class="edge">
<title>Node212&#45;&gt;Node224</title>
<path fill="none" stroke="#191970" d="M45.7179,-220.3386C67.6883,-193.9741 108.3135,-145.2238 125.4944,-124.6068"/>
<polygon fill="#191970" stroke="#191970" points="42.7561,-218.4255 39.043,-228.3484 48.1337,-222.9068 42.7561,-218.4255"/>
</g>
<!-- Node233 -->
<g id="node20" class="node">
<title>Node233</title>
<g id="a_node20"><a xlink:href="triangle_8cpp.html#ac95223fa1691114186a9782fe701999d" target="_top" xlink:title="plague">
<polygon fill="#ffffff" stroke="#000000" points="111,-247.5 111,-266.5 156,-266.5 156,-247.5 111,-247.5"/>
<text text-anchor="middle" x="133.5" y="-254.5" font-family="Helvetica,sans-Serif" font-size="10.00" fill="#000000">plague</text>
</a>
</g>
</g>
<!-- Node212&#45;&gt;Node233 -->
<g id="edge28" class="edge">
<title>Node212&#45;&gt;Node233</title>
<path fill="none" stroke="#191970" d="M71.8928,-245.5801C85.1135,-248.0308 99.2938,-250.6593 110.7132,-252.7761"/>
<polygon fill="#191970" stroke="#191970" points="72.502,-242.1335 62.0315,-243.7522 71.2261,-249.0163 72.502,-242.1335"/>
</g>
<!-- Node234 -->
<g id="node21" class="node">
<title>Node234</title>
<g id="a_node21"><a xlink:href="triangle_8cpp.html#a4bd82f31b72b81818c6ff7671446cb47" target="_top" xlink:title="regionplague">
<polygon fill="#ffffff" stroke="#000000" points="98,-285.5 98,-304.5 169,-304.5 169,-285.5 98,-285.5"/>
<text text-anchor="middle" x="133.5" y="-292.5" font-family="Helvetica,sans-Serif" font-size="10.00" fill="#000000">regionplague</text>
</a>
</g>
</g>
<!-- Node212&#45;&gt;Node234 -->
<g id="edge30" class="edge">
<title>Node212&#45;&gt;Node234</title>
<path fill="none" stroke="#191970" d="M56.6434,-252.7388C69.0882,-259.8417 84.2806,-268.4395 98,-276 103.6325,-279.104 109.8015,-282.4308 115.3939,-285.4195"/>
<polygon fill="#191970" stroke="#191970" points="58.1502,-249.5686 47.7323,-247.6406 54.674,-255.6445 58.1502,-249.5686"/>
</g>
<!-- Node214 -->
<g id="node3" class="node">
<title>Node214</title>
<g id="a_node3"><a xlink:href="triangle_8cpp.html#a81ce6b3946d7227521dc24feb1da895c" target="_top" xlink:title="initializevertexpool">
<polygon fill="#ffffff" stroke="#000000" points="346,-209.5 346,-228.5 443,-228.5 443,-209.5 346,-209.5"/>
<text text-anchor="middle" x="394.5" y="-216.5" font-family="Helvetica,sans-Serif" font-size="10.00" fill="#000000">initializevertexpool</text>
</a>
</g>
</g>
<!-- Node213&#45;&gt;Node214 -->
<g id="edge2" class="edge">
<title>Node213&#45;&gt;Node214</title>
<path fill="none" stroke="#191970" d="M290.9281,-219C307.4812,-219 327.6936,-219 345.8541,-219"/>
<polygon fill="#191970" stroke="#191970" points="290.6371,-215.5001 280.6371,-219 290.6371,-222.5001 290.6371,-215.5001"/>
</g>
<!-- Node219 -->
<g id="node7" class="node">
<title>Node219</title>
<g id="a_node7"><a xlink:href="triangle_8cpp.html#aabcda1f9b42d64b70f96964649ce167e" target="_top" xlink:title="initializetrisubpools">
<polygon fill="#ffffff" stroke="#000000" points="345,-247.5 345,-266.5 444,-266.5 444,-247.5 345,-247.5"/>
<text text-anchor="middle" x="394.5" y="-254.5" font-family="Helvetica,sans-Serif" font-size="10.00" fill="#000000">initializetrisubpools</text>
</a>
</g>
</g>
<!-- Node213&#45;&gt;Node219 -->
<g id="edge6" class="edge">
<title>Node213&#45;&gt;Node219</title>
<path fill="none" stroke="#191970" d="M290.4642,-228.2483C311.5873,-234.0859 338.807,-241.6085 360.1057,-247.4947"/>
<polygon fill="#191970" stroke="#191970" points="291.2081,-224.8227 280.6371,-225.5324 289.3434,-231.5698 291.2081,-224.8227"/>
</g>
<!-- Node222 -->
<g id="node10" class="node">
<title>Node222</title>
<g id="a_node10"><a xlink:href="triangle_8cpp.html#aa0ba1198ac22df6403aeaa25b4ebbe37" target="_top" xlink:title="carveholes">
<polygon fill="#ffffff" stroke="#000000" points="362.5,-285.5 362.5,-304.5 426.5,-304.5 426.5,-285.5 362.5,-285.5"/>
<text text-anchor="middle" x="394.5" y="-292.5" font-family="Helvetica,sans-Serif" font-size="10.00" fill="#000000">carveholes</text>
</a>
</g>
</g>
<!-- Node213&#45;&gt;Node222 -->
<g id="edge11" class="edge">
<title>Node213&#45;&gt;Node222</title>
<path fill="none" stroke="#191970" d="M289.9516,-232.3293C296.4652,-235.4791 303.1048,-239.0769 309,-243 327.0697,-255.0249 326.5439,-264.577 345,-276 350.9486,-279.6818 357.728,-282.8521 364.3204,-285.4901"/>
<polygon fill="#191970" stroke="#191970" points="291.1494,-229.0284 280.6,-228.0493 288.2363,-235.3935 291.1494,-229.0284"/>
</g>
<!-- Node223 -->
<g id="node11" class="node">
<title>Node223</title>
<g id="a_node11"><a xlink:href="triangle_8cpp.html#a5a654ff6b304f2166c64ffe9183b2995" target="_top" xlink:title="enforcequality">
<polygon fill="#ffffff" stroke="#000000" points="485.5,-133.5 485.5,-152.5 562.5,-152.5 562.5,-133.5 485.5,-133.5"/>
<text text-anchor="middle" x="524" y="-140.5" font-family="Helvetica,sans-Serif" font-size="10.00" fill="#000000">enforcequality</text>
</a>
</g>
</g>
<!-- Node213&#45;&gt;Node223 -->
<g id="edge13" class="edge">
<title>Node213&#45;&gt;Node223</title>
<path fill="none" stroke="#191970" d="M290.6141,-209.4319C341.922,-194.8274 439.2047,-167.1365 490.4652,-152.5455"/>
<polygon fill="#191970" stroke="#191970" points="289.3542,-206.1515 280.6945,-212.2555 291.2706,-212.884 289.3542,-206.1515"/>
</g>
<!-- Node215 -->
<g id="node4" class="node">
<title>Node215</title>
<g id="a_node4"><a xlink:href="triangle_8cpp.html#aa2533f1e76d587a6bed1eb2e56d3713c" target="_top" xlink:title="transfernodes">
<polygon fill="#ffffff" stroke="#000000" points="486,-171.5 486,-190.5 562,-190.5 562,-171.5 486,-171.5"/>
<text text-anchor="middle" x="524" y="-178.5" font-family="Helvetica,sans-Serif" font-size="10.00" fill="#000000">transfernodes</text>
</a>
</g>
</g>
<!-- Node214&#45;&gt;Node215 -->
<g id="edge3" class="edge">
<title>Node214&#45;&gt;Node215</title>
<path fill="none" stroke="#191970" d="M437.219,-206.4647C454.836,-201.2952 474.9232,-195.4009 491.3321,-190.5859"/>
<polygon fill="#191970" stroke="#191970" points="435.7882,-203.2369 427.1783,-209.411 437.7592,-209.9537 435.7882,-203.2369"/>
</g>
<!-- Node216 -->
<g id="node5" class="node">
<title>Node216</title>
<g id="a_node5"><a xlink:href="triangle_8hpp.html#a848df2990f66cdbdc9d1ac87f4646527" target="_top" xlink:title="Call Triangle. ">
<polygon fill="#ffffff" stroke="#000000" points="612,-209.5 612,-228.5 674,-228.5 674,-209.5 612,-209.5"/>
<text text-anchor="middle" x="643" y="-216.5" font-family="Helvetica,sans-Serif" font-size="10.00" fill="#000000">triangulate</text>
</a>
</g>
</g>
<!-- Node215&#45;&gt;Node216 -->
<g id="edge4" class="edge">
<title>Node215&#45;&gt;Node216</title>
<path fill="none" stroke="#191970" d="M563.7098,-193.6804C579.7886,-198.8148 598.0433,-204.6441 612.9809,-209.4141"/>
<polygon fill="#191970" stroke="#191970" points="564.6195,-190.2969 554.0287,-190.589 562.4901,-196.9652 564.6195,-190.2969"/>
</g>
<!-- Node217 -->
<g id="node6" class="node">
<title>Node217</title>
<g id="a_node6"><a xlink:href="classRiver_1_1Triangle.html#a7bc9c5a5297dee136ab1489a923182dd" target="_top" xlink:title="Generate mesh. ">
<polygon fill="#ffffff" stroke="#ff0000" points="718,-209.5 718,-228.5 842,-228.5 842,-209.5 718,-209.5"/>
<text text-anchor="middle" x="780" y="-216.5" font-family="Helvetica,sans-Serif" font-size="10.00" fill="#000000">River::Triangle::generate</text>
</a>
</g>
</g>
<!-- Node216&#45;&gt;Node217 -->
<g id="edge5" class="edge">
<title>Node216&#45;&gt;Node217</title>
<path fill="none" stroke="#191970" d="M684.2979,-219C694.9019,-219 706.5443,-219 717.9463,-219"/>
<polygon fill="#191970" stroke="#191970" points="684.0875,-215.5001 674.0874,-219 684.0874,-222.5001 684.0875,-215.5001"/>
</g>
<!-- Node220 -->
<g id="node8" class="node">
<title>Node220</title>
<g id="a_node8"><a xlink:href="triangle_8cpp.html#ab67faa70960c7c39ee1150ab4d55f0a5" target="_top" xlink:title="delaunay">
<polygon fill="#ffffff" stroke="#000000" points="496,-247.5 496,-266.5 552,-266.5 552,-247.5 496,-247.5"/>
<text text-anchor="middle" x="524" y="-254.5" font-family="Helvetica,sans-Serif" font-size="10.00" fill="#000000">delaunay</text>
</a>
</g>
</g>
<!-- Node219&#45;&gt;Node220 -->
<g id="edge7" class="edge">
<title>Node219&#45;&gt;Node220</title>
<path fill="none" stroke="#191970" d="M454.6162,-257C469.0561,-257 483.8048,-257 495.9702,-257"/>
<polygon fill="#191970" stroke="#191970" points="454.1978,-253.5001 444.1977,-257 454.1977,-260.5001 454.1978,-253.5001"/>
</g>
<!-- Node221 -->
<g id="node9" class="node">
<title>Node221</title>
<g id="a_node9"><a xlink:href="triangle_8cpp.html#a711adeeb3c28e4f2e3e173d729912c13" target="_top" xlink:title="reconstruct">
<polygon fill="#ffffff" stroke="#000000" points="491.5,-209.5 491.5,-228.5 556.5,-228.5 556.5,-209.5 491.5,-209.5"/>
<text text-anchor="middle" x="524" y="-216.5" font-family="Helvetica,sans-Serif" font-size="10.00" fill="#000000">reconstruct</text>
</a>
</g>
</g>
<!-- Node219&#45;&gt;Node221 -->
<g id="edge9" class="edge">
<title>Node219&#45;&gt;Node221</title>
<path fill="none" stroke="#191970" d="M437.219,-244.4647C454.836,-239.2952 474.9232,-233.4009 491.3321,-228.5859"/>
<polygon fill="#191970" stroke="#191970" points="435.7882,-241.2369 427.1783,-247.411 437.7592,-247.9537 435.7882,-241.2369"/>
</g>
<!-- Node220&#45;&gt;Node216 -->
<g id="edge8" class="edge">
<title>Node220&#45;&gt;Node216</title>
<path fill="none" stroke="#191970" d="M562.0624,-244.8456C578.5105,-239.5933 597.4815,-233.5353 612.9208,-228.6051"/>
<polygon fill="#191970" stroke="#191970" points="560.6627,-241.6184 552.2013,-247.9945 562.7921,-248.2867 560.6627,-241.6184"/>
</g>
<!-- Node221&#45;&gt;Node216 -->
<g id="edge10" class="edge">
<title>Node221&#45;&gt;Node216</title>
<path fill="none" stroke="#191970" d="M566.5456,-219C581.4635,-219 597.9329,-219 611.7536,-219"/>
<polygon fill="#191970" stroke="#191970" points="566.5173,-215.5001 556.5173,-219 566.5172,-222.5001 566.5173,-215.5001"/>
</g>
<!-- Node222&#45;&gt;Node216 -->
<g id="edge12" class="edge">
<title>Node222&#45;&gt;Node216</title>
<path fill="none" stroke="#191970" d="M436.9356,-296.5864C473.0308,-296.4965 525.6035,-292.9078 568,-276 595.0401,-265.2164 620.737,-241.8715 633.8858,-228.6469"/>
<polygon fill="#191970" stroke="#191970" points="436.7764,-293.0854 426.7538,-296.5202 436.7308,-300.0852 436.7764,-293.0854"/>
</g>
<!-- Node223&#45;&gt;Node216 -->
<g id="edge14" class="edge">
<title>Node223&#45;&gt;Node216</title>
<path fill="none" stroke="#191970" d="M558.4444,-156.9057C561.7279,-158.5185 564.9624,-160.2253 568,-162 592.2883,-176.1902 617.7954,-197.043 631.9194,-209.1999"/>
<polygon fill="#191970" stroke="#191970" points="559.7303,-153.6443 549.1841,-152.6305 556.7962,-159.9998 559.7303,-153.6443"/>
</g>
<!-- Node225 -->
<g id="node13" class="node">
<title>Node225</title>
<g id="a_node13"><a xlink:href="triangle_8cpp.html#a4e3735a2f4c1fa18deb1a2e66aeda7bd" target="_top" xlink:title="undovertex">
<polygon fill="#ffffff" stroke="#000000" points="224.5,-67.5 224.5,-86.5 289.5,-86.5 289.5,-67.5 224.5,-67.5"/>
<text text-anchor="middle" x="257" y="-74.5" font-family="Helvetica,sans-Serif" font-size="10.00" fill="#000000">undovertex</text>
</a>
</g>
</g>
<!-- Node224&#45;&gt;Node225 -->
<g id="edge16" class="edge">
<title>Node224&#45;&gt;Node225</title>
<path fill="none" stroke="#191970" d="M174.2397,-102.4647C191.0405,-97.2952 210.197,-91.4009 225.8457,-86.5859"/>
<polygon fill="#191970" stroke="#191970" points="173.1927,-99.1248 164.6643,-105.411 175.2514,-105.8153 173.1927,-99.1248"/>
</g>
<!-- Node226 -->
<g id="node14" class="node">
<title>Node226</title>
<g id="a_node14"><a xlink:href="triangle_8cpp.html#a48fc63d369d988c08cbe8ab40f0b8af5" target="_top" xlink:title="splittriangle">
<polygon fill="#ffffff" stroke="#000000" points="361.5,-95.5 361.5,-114.5 427.5,-114.5 427.5,-95.5 361.5,-95.5"/>
<text text-anchor="middle" x="394.5" y="-102.5" font-family="Helvetica,sans-Serif" font-size="10.00" fill="#000000">splittriangle</text>
</a>
</g>
</g>
<!-- Node224&#45;&gt;Node226 -->
<g id="edge27" class="edge">
<title>Node224&#45;&gt;Node226</title>
<path fill="none" stroke="#191970" d="M177.8612,-113.3003C229.7834,-111.311 314.5822,-108.062 361.1957,-106.276"/>
<polygon fill="#191970" stroke="#191970" points="177.4798,-109.8123 167.6212,-113.6927 177.7479,-116.8072 177.4798,-109.8123"/>
</g>
<!-- Node227 -->
<g id="node15" class="node">
<title>Node227</title>
<g id="a_node15"><a xlink:href="triangle_8cpp.html#a496c50bca0cf0c214a0204419c3b181a" target="_top" xlink:title="segmentintersection">
<polygon fill="#ffffff" stroke="#000000" points="205,-29.5 205,-48.5 309,-48.5 309,-29.5 205,-29.5"/>
<text text-anchor="middle" x="257" y="-36.5" font-family="Helvetica,sans-Serif" font-size="10.00" fill="#000000">segmentintersection</text>
</a>
</g>
</g>
<!-- Node224&#45;&gt;Node227 -->
<g id="edge19" class="edge">
<title>Node224&#45;&gt;Node227</title>
<path fill="none" stroke="#191970" d="M151.1094,-98.2674C164.9101,-85.8508 185.0548,-69.2004 205,-58 211.453,-54.3763 218.7286,-51.2135 225.748,-48.5623"/>
<polygon fill="#191970" stroke="#191970" points="148.3844,-96.0185 143.3949,-105.3649 153.1239,-101.17 148.3844,-96.0185"/>
</g>
<!-- Node232 -->
<g id="node19" class="node">
<title>Node232</title>
<g id="a_node19"><a xlink:href="triangle_8cpp.html#adca37fc9e90f78c9ae794662de5428bd" target="_top" xlink:title="splitencsegs">
<polygon fill="#ffffff" stroke="#000000" points="221.5,-143.5 221.5,-162.5 292.5,-162.5 292.5,-143.5 221.5,-143.5"/>
<text text-anchor="middle" x="257" y="-150.5" font-family="Helvetica,sans-Serif" font-size="10.00" fill="#000000">splitencsegs</text>
</a>
</g>
</g>
<!-- Node224&#45;&gt;Node232 -->
<g id="edge25" class="edge">
<title>Node224&#45;&gt;Node232</title>
<path fill="none" stroke="#191970" d="M174.2397,-127.5353C191.0405,-132.7048 210.197,-138.5991 225.8457,-143.4141"/>
<polygon fill="#191970" stroke="#191970" points="175.2514,-124.1847 164.6643,-124.589 173.1927,-130.8752 175.2514,-124.1847"/>
</g>
<!-- Node225&#45;&gt;Node226 -->
<g id="edge17" class="edge">
<title>Node225&#45;&gt;Node226</title>
<path fill="none" stroke="#191970" d="M299.6018,-85.6753C319.4326,-89.7135 342.6742,-94.4464 361.1932,-98.2175"/>
<polygon fill="#191970" stroke="#191970" points="300.0829,-82.2015 289.5856,-83.6356 298.6861,-89.0607 300.0829,-82.2015"/>
</g>
<!-- Node226&#45;&gt;Node223 -->
<g id="edge18" class="edge">
<title>Node226&#45;&gt;Node223</title>
<path fill="none" stroke="#191970" d="M437.219,-117.5353C454.836,-122.7048 474.9232,-128.5991 491.3321,-133.4141"/>
<polygon fill="#191970" stroke="#191970" points="437.7592,-114.0463 427.1783,-114.589 435.7882,-120.7631 437.7592,-114.0463"/>
</g>
<!-- Node228 -->
<g id="node16" class="node">
<title>Node228</title>
<g id="a_node16"><a xlink:href="triangle_8cpp.html#ae9d4ed09a0fd07959568ba5f86cc4d0c" target="_top" xlink:title="scoutsegment">
<polygon fill="#ffffff" stroke="#000000" points="355.5,-38.5 355.5,-57.5 433.5,-57.5 433.5,-38.5 355.5,-38.5"/>
<text text-anchor="middle" x="394.5" y="-45.5" font-family="Helvetica,sans-Serif" font-size="10.00" fill="#000000">scoutsegment</text>
</a>
</g>
</g>
<!-- Node227&#45;&gt;Node228 -->
<g id="edge20" class="edge">
<title>Node227&#45;&gt;Node228</title>
<path fill="none" stroke="#191970" d="M319.4649,-43.0886C331.5901,-43.8823 343.9783,-44.6931 355.1038,-45.4213"/>
<polygon fill="#191970" stroke="#191970" points="319.5824,-39.5889 309.3751,-42.4282 319.1251,-46.574 319.5824,-39.5889"/>
</g>
<!-- Node229 -->
<g id="node17" class="node">
<title>Node229</title>
<g id="a_node17"><a xlink:href="triangle_8cpp.html#aded205ef0849b44d2a587f53fd720618" target="_top" xlink:title="constrainededge">
<polygon fill="#ffffff" stroke="#000000" points="480,-.5 480,-19.5 568,-19.5 568,-.5 480,-.5"/>
<text text-anchor="middle" x="524" y="-7.5" font-family="Helvetica,sans-Serif" font-size="10.00" fill="#000000">constrainededge</text>
</a>
</g>
</g>
<!-- Node227&#45;&gt;Node229 -->
<g id="edge24" class="edge">
<title>Node227&#45;&gt;Node229</title>
<path fill="none" stroke="#191970" d="M319.1915,-31.8747C327.8584,-30.8987 336.6511,-29.9175 345,-29 390.9747,-23.9479 443.618,-18.3869 479.8534,-14.594"/>
<polygon fill="#191970" stroke="#191970" points="318.653,-28.4132 309.1093,-33.0139 319.439,-35.3689 318.653,-28.4132"/>
</g>
<!-- Node228&#45;&gt;Node229 -->
<g id="edge21" class="edge">
<title>Node228&#45;&gt;Node229</title>
<path fill="none" stroke="#191970" d="M437.219,-35.4647C454.836,-30.2952 474.9232,-24.4009 491.3321,-19.5859"/>
<polygon fill="#191970" stroke="#191970" points="435.7882,-32.2369 427.1783,-38.411 437.7592,-38.9537 435.7882,-32.2369"/>
</g>
<!-- Node230 -->
<g id="node18" class="node">
<title>Node230</title>
<g id="a_node18"><a xlink:href="triangle_8cpp.html#ae367b20189056436da2a1b633b392703" target="_top" xlink:title="insertsegment">
<polygon fill="#ffffff" stroke="#ff0000" points="604,-19.5 604,-38.5 682,-38.5 682,-19.5 604,-19.5"/>
<text text-anchor="middle" x="643" y="-26.5" font-family="Helvetica,sans-Serif" font-size="10.00" fill="#000000">insertsegment</text>
</a>
</g>
</g>
<!-- Node228&#45;&gt;Node230 -->
<g id="edge23" class="edge">
<title>Node228&#45;&gt;Node230</title>
<path fill="none" stroke="#191970" d="M443.837,-44.2278C490.7633,-40.6398 560.4382,-35.3126 603.7166,-32.0036"/>
<polygon fill="#191970" stroke="#191970" points="443.3055,-40.7581 433.6015,-45.0103 443.8392,-47.7377 443.3055,-40.7581"/>
</g>
<!-- Node229&#45;&gt;Node230 -->
<g id="edge22" class="edge">
<title>Node229&#45;&gt;Node230</title>
<path fill="none" stroke="#191970" d="M578.2778,-18.6662C586.862,-20.0368 595.5922,-21.4307 603.7464,-22.7326"/>
<polygon fill="#191970" stroke="#191970" points="578.738,-15.1954 568.3112,-17.0749 577.6343,-22.1079 578.738,-15.1954"/>
</g>
<!-- Node232&#45;&gt;Node223 -->
<g id="edge26" class="edge">
<title>Node232&#45;&gt;Node223</title>
<path fill="none" stroke="#191970" d="M302.9175,-151.2802C354.4507,-149.3502 437.147,-146.2529 485.4549,-144.4436"/>
<polygon fill="#191970" stroke="#191970" points="302.5937,-147.7898 292.7318,-151.6617 302.8558,-154.7849 302.5937,-147.7898"/>
</g>
<!-- Node233&#45;&gt;Node222 -->
<g id="edge29" class="edge">
<title>Node233&#45;&gt;Node222</title>
<path fill="none" stroke="#191970" d="M166.2278,-261.765C216.5879,-269.0971 312.4794,-283.0583 362.436,-290.3317"/>
<polygon fill="#191970" stroke="#191970" points="166.6054,-258.2831 156.2055,-260.3058 165.5968,-265.2101 166.6054,-258.2831"/>
</g>
<!-- Node234&#45;&gt;Node222 -->
<g id="edge31" class="edge">
<title>Node234&#45;&gt;Node222</title>
<path fill="none" stroke="#191970" d="M179.2963,-295C231.8129,-295 316.5524,-295 362.4616,-295"/>
<polygon fill="#191970" stroke="#191970" points="179.2437,-291.5001 169.2437,-295 179.2436,-298.5001 179.2437,-291.5001"/>
</g>
</g>
</svg>
