<?xml version="1.0" encoding="UTF-8" standalone="no"?>
<!DOCTYPE svg PUBLIC "-//W3C//DTD SVG 1.1//EN"
 "http://www.w3.org/Graphics/SVG/1.1/DTD/svg11.dtd">
<!-- Generated by graphviz version 2.40.1 (20161225.0304)
 -->
<!-- Title: triangulateiofree Pages: 1 -->
<svg width="648pt" height="39pt"
 viewBox="0.00 0.00 648.00 39.00" xmlns="http://www.w3.org/2000/svg" xmlns:xlink="http://www.w3.org/1999/xlink">
<g id="graph0" class="graph" transform="scale(1 1) rotate(0) translate(4 35)">
<title>triangulateiofree</title>
<polygon fill="#ffffff" stroke="transparent" points="-4,4 -4,-35 644,-35 644,4 -4,4"/>
<!-- Node103 -->
<g id="node1" class="node">
<title>Node103</title>
<polygon fill="#bfbfbf" stroke="#000000" points="0,-6 0,-25 86,-25 86,-6 0,-6"/>
<text text-anchor="middle" x="43" y="-13" font-family="Helvetica,sans-Serif" font-size="10.00" fill="#000000">triangulateiofree</text>
</g>
<!-- Node104 -->
<g id="node2" class="node">
<title>Node104</title>
<g id="a_node2"><a xlink:href="classRiver_1_1Triangle.html#a3f7788026746dcc85d607cfe375b7d20" target="_top" xlink:title="Freeups allocated memory for interface variables(in, out, vorout). ">
<polygon fill="#ffffff" stroke="#000000" points="122,-.5 122,-30.5 225,-30.5 225,-.5 122,-.5"/>
<text text-anchor="start" x="130" y="-18.5" font-family="Helvetica,sans-Serif" font-size="10.00" fill="#000000">River::Triangle::free</text>
<text text-anchor="middle" x="173.5" y="-7.5" font-family="Helvetica,sans-Serif" font-size="10.00" fill="#000000">_allocated_memory</text>
</a>
</g>
</g>
<!-- Node103&#45;&gt;Node104 -->
<g id="edge1" class="edge">
<title>Node103&#45;&gt;Node104</title>
<path fill="none" stroke="#191970" d="M96.2252,-15.5C104.6786,-15.5 113.4109,-15.5 121.8278,-15.5"/>
<polygon fill="#191970" stroke="#191970" points="96.0923,-12.0001 86.0923,-15.5 96.0922,-19.0001 96.0923,-12.0001"/>
</g>
<!-- Node105 -->
<g id="node3" class="node">
<title>Node105</title>
<g id="a_node3"><a xlink:href="classRiver_1_1Triangle.html#a0dae20b40d446e6009a88543e2c14daf" target="_top" xlink:title="Generate mesh. ">
<polygon fill="#ffffff" stroke="#000000" points="261,-6 261,-25 385,-25 385,-6 261,-6"/>
<text text-anchor="middle" x="323" y="-13" font-family="Helvetica,sans-Serif" font-size="10.00" fill="#000000">River::Triangle::generate</text>
</a>
</g>
</g>
<!-- Node104&#45;&gt;Node105 -->
<g id="edge2" class="edge">
<title>Node104&#45;&gt;Node105</title>
<path fill="none" stroke="#191970" d="M235.4841,-15.5C243.8919,-15.5 252.5218,-15.5 260.9311,-15.5"/>
<polygon fill="#191970" stroke="#191970" points="235.3683,-12.0001 225.3683,-15.5 235.3682,-19.0001 235.3683,-12.0001"/>
</g>
<!-- Node106 -->
<g id="node4" class="node">
<title>Node106</title>
<g id="a_node4"><a xlink:href="namespaceRiver.html#af1a3f7c61809dd8032e4ff5920da83cc" target="_top" xlink:title="One step of forward river evolution. ">
<polygon fill="#ffffff" stroke="#000000" points="421,-6 421,-25 566,-25 566,-6 421,-6"/>
<text text-anchor="middle" x="493.5" y="-13" font-family="Helvetica,sans-Serif" font-size="10.00" fill="#000000">River::ForwardRiverEvolution</text>
</a>
</g>
</g>
<!-- Node105&#45;&gt;Node106 -->
<g id="edge3" class="edge">
<title>Node105&#45;&gt;Node106</title>
<path fill="none" stroke="#191970" d="M395.2431,-15.5C403.7006,-15.5 412.333,-15.5 420.7967,-15.5"/>
<polygon fill="#191970" stroke="#191970" points="395.0368,-12.0001 385.0367,-15.5 395.0367,-19.0001 395.0368,-12.0001"/>
</g>
<!-- Node107 -->
<g id="node5" class="node">
<title>Node107</title>
<g id="a_node5"><a xlink:href="main_8cpp.html#a0ddf1224851353fc92bfbff6f499fa97" target="_top" xlink:title="Entry point of RiverSim program. ">
<polygon fill="#ffffff" stroke="#000000" points="602,-6 602,-25 640,-25 640,-6 602,-6"/>
<text text-anchor="middle" x="621" y="-13" font-family="Helvetica,sans-Serif" font-size="10.00" fill="#000000">main</text>
</a>
</g>
</g>
<!-- Node106&#45;&gt;Node107 -->
<g id="edge4" class="edge">
<title>Node106&#45;&gt;Node107</title>
<path fill="none" stroke="#191970" d="M576.2526,-15.5C585.7338,-15.5 594.5978,-15.5 601.8947,-15.5"/>
<polygon fill="#191970" stroke="#191970" points="576.1886,-12.0001 566.1886,-15.5 576.1885,-19.0001 576.1886,-12.0001"/>
</g>
</g>
</svg>
