<?xml version="1.0" encoding="UTF-8" standalone="no"?>
<!DOCTYPE svg PUBLIC "-//W3C//DTD SVG 1.1//EN"
 "http://www.w3.org/Graphics/SVG/1.1/DTD/svg11.dtd">
<!-- Generated by graphviz version 2.40.1 (20161225.0304)
 -->
<!-- Title: splittriangle Pages: 1 -->
<svg width="1011pt" height="633pt"
 viewBox="0.00 0.00 1011.00 633.50" xmlns="http://www.w3.org/2000/svg" xmlns:xlink="http://www.w3.org/1999/xlink">
<g id="graph0" class="graph" transform="scale(1 1) rotate(0) translate(4 629.4953)">
<title>splittriangle</title>
<polygon fill="#ffffff" stroke="transparent" points="-4,4 -4,-629.4953 1007,-629.4953 1007,4 -4,4"/>
<!-- Node1699 -->
<g id="node1" class="node">
<title>Node1699</title>
<polygon fill="#bfbfbf" stroke="#000000" points="0,-104.5 0,-123.5 66,-123.5 66,-104.5 0,-104.5"/>
<text text-anchor="middle" x="33" y="-111.5" font-family="Helvetica,sans-Serif" font-size="10.00" fill="#000000">splittriangle</text>
</g>
<!-- Node1700 -->
<g id="node2" class="node">
<title>Node1700</title>
<g id="a_node2"><a xlink:href="triangle_8cpp.html#ab1760445583959132ffd9998372c9aac" target="_top" xlink:title="poolalloc">
<polygon fill="#ffffff" stroke="#000000" points="610,-247.5 610,-266.5 665,-266.5 665,-247.5 610,-247.5"/>
<text text-anchor="middle" x="637.5" y="-254.5" font-family="Helvetica,sans-Serif" font-size="10.00" fill="#000000">poolalloc</text>
</a>
</g>
</g>
<!-- Node1699&#45;&gt;Node1700 -->
<g id="edge1" class="edge">
<title>Node1699&#45;&gt;Node1700</title>
<path fill="none" stroke="#191970" d="M66.3091,-107.222C110.0043,-98.9353 189.1569,-86 257.5,-86 257.5,-86 257.5,-86 390,-86 497.0052,-86 591.2624,-195.5306 624.6368,-239.2703"/>
<polygon fill="#191970" stroke="#191970" points="621.861,-241.4028 630.652,-247.3163 627.4675,-237.2114 621.861,-241.4028"/>
</g>
<!-- Node1703 -->
<g id="node5" class="node">
<title>Node1703</title>
<g id="a_node5"><a xlink:href="triangle_8cpp.html#aeb60f84186be632487f896e6e0634e4a" target="_top" xlink:title="findcircumcenter">
<polygon fill="#ffffff" stroke="#000000" points="213,-484.5 213,-503.5 302,-503.5 302,-484.5 213,-484.5"/>
<text text-anchor="middle" x="257.5" y="-491.5" font-family="Helvetica,sans-Serif" font-size="10.00" fill="#000000">findcircumcenter</text>
</a>
</g>
</g>
<!-- Node1699&#45;&gt;Node1703 -->
<g id="edge4" class="edge">
<title>Node1699&#45;&gt;Node1703</title>
<path fill="none" stroke="#191970" d="M38.7751,-123.7752C68.7349,-174.4868 206.6043,-407.8513 246.5972,-475.5454"/>
<polygon fill="#191970" stroke="#191970" points="243.6631,-477.46 251.7631,-484.2895 249.6899,-473.8994 243.6631,-477.46"/>
</g>
<!-- Node1708 -->
<g id="node10" class="node">
<title>Node1708</title>
<g id="a_node10"><a xlink:href="triangle_8cpp.html#a98df73a1a399900d056c423c18d5fd72" target="_top" xlink:title="vertexdealloc">
<polygon fill="#ffffff" stroke="#000000" points="102.5,-38.5 102.5,-57.5 176.5,-57.5 176.5,-38.5 102.5,-38.5"/>
<text text-anchor="middle" x="139.5" y="-45.5" font-family="Helvetica,sans-Serif" font-size="10.00" fill="#000000">vertexdealloc</text>
</a>
</g>
</g>
<!-- Node1699&#45;&gt;Node1708 -->
<g id="edge9" class="edge">
<title>Node1699&#45;&gt;Node1708</title>
<path fill="none" stroke="#191970" d="M48.7144,-104.2615C66.2761,-93.3782 94.9201,-75.627 115.3356,-62.9751"/>
<polygon fill="#191970" stroke="#191970" points="117.4109,-65.8067 124.0673,-57.5639 113.7235,-59.8566 117.4109,-65.8067"/>
</g>
<!-- Node1710 -->
<g id="node12" class="node">
<title>Node1710</title>
<g id="a_node12"><a xlink:href="triangle_8cpp.html#a2ede94743503e369e9b1c6c2a0ac9f7f" target="_top" xlink:title="insertvertex">
<polygon fill="#ffffff" stroke="#000000" points="223.5,-304.5 223.5,-323.5 291.5,-323.5 291.5,-304.5 223.5,-304.5"/>
<text text-anchor="middle" x="257.5" y="-311.5" font-family="Helvetica,sans-Serif" font-size="10.00" fill="#000000">insertvertex</text>
</a>
</g>
</g>
<!-- Node1699&#45;&gt;Node1710 -->
<g id="edge11" class="edge">
<title>Node1699&#45;&gt;Node1710</title>
<path fill="none" stroke="#191970" d="M43.8281,-123.6464C79.6137,-155.5267 194.3496,-257.7413 239.2451,-297.7373"/>
<polygon fill="#191970" stroke="#191970" points="236.9856,-300.4118 246.7805,-304.4504 241.6419,-295.1851 236.9856,-300.4118"/>
</g>
<!-- Node1728 -->
<g id="node30" class="node">
<title>Node1728</title>
<g id="a_node30"><a xlink:href="triangle_8cpp.html#a4e3735a2f4c1fa18deb1a2e66aeda7bd" target="_top" xlink:title="undovertex">
<polygon fill="#ffffff" stroke="#000000" points="107,-133.5 107,-152.5 172,-152.5 172,-133.5 107,-133.5"/>
<text text-anchor="middle" x="139.5" y="-140.5" font-family="Helvetica,sans-Serif" font-size="10.00" fill="#000000">undovertex</text>
</a>
</g>
</g>
<!-- Node1699&#45;&gt;Node1728 -->
<g id="edge40" class="edge">
<title>Node1699&#45;&gt;Node1728</title>
<path fill="none" stroke="#191970" d="M66.1135,-123.0168C75.9233,-125.688 86.8024,-128.6504 97.1139,-131.4582"/>
<polygon fill="#191970" stroke="#191970" points="96.2045,-134.838 106.7728,-134.0884 98.0437,-128.0839 96.2045,-134.838"/>
</g>
<!-- Node1731 -->
<g id="node33" class="node">
<title>Node1731</title>
<g id="a_node33"><a xlink:href="triangle_8cpp.html#a82ca659affb40214baeea87b1b0ce480" target="_top" xlink:title="precisionerror">
<polygon fill="#ffffff" stroke="#000000" points="102,-.5 102,-19.5 177,-19.5 177,-.5 102,-.5"/>
<text text-anchor="middle" x="139.5" y="-7.5" font-family="Helvetica,sans-Serif" font-size="10.00" fill="#000000">precisionerror</text>
</a>
</g>
</g>
<!-- Node1699&#45;&gt;Node1731 -->
<g id="edge46" class="edge">
<title>Node1699&#45;&gt;Node1731</title>
<path fill="none" stroke="#191970" d="M38.7898,-104.4861C49.5004,-87.515 73.8953,-51.6782 102,-29 103.7998,-27.5477 105.7286,-26.1638 107.7269,-24.8537"/>
<polygon fill="#191970" stroke="#191970" points="109.8692,-27.6564 116.7481,-19.5984 106.3455,-21.6078 109.8692,-27.6564"/>
</g>
<!-- Node1701 -->
<g id="node3" class="node">
<title>Node1701</title>
<g id="a_node3"><a xlink:href="triangle_8cpp.html#a5f51f1d3957615b2c84a91fd9f5f09bf" target="_top" xlink:title="trimalloc">
<polygon fill="#ffffff" stroke="#000000" points="751.5,-247.5 751.5,-266.5 804.5,-266.5 804.5,-247.5 751.5,-247.5"/>
<text text-anchor="middle" x="778" y="-254.5" font-family="Helvetica,sans-Serif" font-size="10.00" fill="#000000">trimalloc</text>
</a>
</g>
</g>
<!-- Node1700&#45;&gt;Node1701 -->
<g id="edge2" class="edge">
<title>Node1700&#45;&gt;Node1701</title>
<path fill="none" stroke="#191970" d="M665.2583,-257C686.9933,-257 717.421,-257 741.1885,-257"/>
<polygon fill="#191970" stroke="#191970" points="741.2527,-260.5001 751.2527,-257 741.2526,-253.5001 741.2527,-260.5001"/>
</g>
<!-- Node1702 -->
<g id="node4" class="node">
<title>Node1702</title>
<g id="a_node4"><a xlink:href="triangle_8cpp.html#a648abfc70d158485620dbcb9aa990178" target="_top" xlink:title="triexit">
<polygon fill="#ffffff" stroke="#000000" points="917,-247.5 917,-266.5 958,-266.5 958,-247.5 917,-247.5"/>
<text text-anchor="middle" x="937.5" y="-254.5" font-family="Helvetica,sans-Serif" font-size="10.00" fill="#000000">triexit</text>
</a>
</g>
</g>
<!-- Node1701&#45;&gt;Node1702 -->
<g id="edge3" class="edge">
<title>Node1701&#45;&gt;Node1702</title>
<path fill="none" stroke="#191970" d="M804.6967,-257C832.8148,-257 877.0362,-257 906.6336,-257"/>
<polygon fill="#191970" stroke="#191970" points="906.8194,-260.5001 916.8193,-257 906.8193,-253.5001 906.8194,-260.5001"/>
</g>
<!-- Node1704 -->
<g id="node6" class="node">
<title>Node1704</title>
<g id="a_node6"><a xlink:href="triangle_8cpp.html#adbb7ef8fc2a92efceb7c1c152fbd22f1" target="_top" xlink:title="counterclockwise">
<polygon fill="#ffffff" stroke="#000000" points="591.5,-513.5 591.5,-532.5 683.5,-532.5 683.5,-513.5 591.5,-513.5"/>
<text text-anchor="middle" x="637.5" y="-520.5" font-family="Helvetica,sans-Serif" font-size="10.00" fill="#000000">counterclockwise</text>
</a>
</g>
</g>
<!-- Node1703&#45;&gt;Node1704 -->
<g id="edge5" class="edge">
<title>Node1703&#45;&gt;Node1704</title>
<path fill="none" stroke="#191970" d="M262.9814,-503.5671C274.3594,-522.5081 302.4679,-564.7812 338,-586 392.7993,-618.7247 414.5755,-610.8438 478,-618 512.0064,-621.837 523.8626,-632.1994 555,-618 589.2799,-602.3675 614.817,-564.6769 627.8317,-541.7468"/>
<polygon fill="#191970" stroke="#191970" points="631.0725,-543.1133 632.7746,-532.6561 624.9228,-539.7695 631.0725,-543.1133"/>
</g>
<!-- Node1705 -->
<g id="node7" class="node">
<title>Node1705</title>
<g id="a_node7"><a xlink:href="triangle_8cpp.html#abd5587da82afca7f6403c3ec3d17139a" target="_top" xlink:title="counterclockwiseadapt">
<polygon fill="#ffffff" stroke="#000000" points="720,-509.5 720,-528.5 836,-528.5 836,-509.5 720,-509.5"/>
<text text-anchor="middle" x="778" y="-516.5" font-family="Helvetica,sans-Serif" font-size="10.00" fill="#000000">counterclockwiseadapt</text>
</a>
</g>
</g>
<!-- Node1704&#45;&gt;Node1705 -->
<g id="edge6" class="edge">
<title>Node1704&#45;&gt;Node1705</title>
<path fill="none" stroke="#191970" d="M683.505,-521.6903C691.9363,-521.4502 700.8988,-521.1951 709.8168,-520.9412"/>
<polygon fill="#191970" stroke="#191970" points="709.9396,-524.4392 719.8359,-520.6559 709.7403,-517.442 709.9396,-524.4392"/>
</g>
<!-- Node1706 -->
<g id="node8" class="node">
<title>Node1706</title>
<g id="a_node8"><a xlink:href="triangle_8cpp.html#a3487d9f90ea72da543d5d38b3dab1fbc" target="_top" xlink:title="estimate">
<polygon fill="#ffffff" stroke="#000000" points="910.5,-465.5 910.5,-484.5 964.5,-484.5 964.5,-465.5 910.5,-465.5"/>
<text text-anchor="middle" x="937.5" y="-472.5" font-family="Helvetica,sans-Serif" font-size="10.00" fill="#000000">estimate</text>
</a>
</g>
</g>
<!-- Node1705&#45;&gt;Node1706 -->
<g id="edge7" class="edge">
<title>Node1705&#45;&gt;Node1706</title>
<path fill="none" stroke="#191970" d="M812.6091,-509.4527C838.6067,-502.2809 874.1472,-492.4766 900.6684,-485.1604"/>
<polygon fill="#191970" stroke="#191970" points="901.6435,-488.5223 910.3527,-482.4889 899.7819,-481.7743 901.6435,-488.5223"/>
</g>
<!-- Node1707 -->
<g id="node9" class="node">
<title>Node1707</title>
<g id="a_node9"><a xlink:href="triangle_8cpp.html#a37646a7e0014e10c612e946bc95aeeea" target="_top" xlink:title="fast_expansion_sum\l_zeroelim">
<polygon fill="#ffffff" stroke="#000000" points="884,-504 884,-534 991,-534 991,-504 884,-504"/>
<text text-anchor="start" x="892" y="-522" font-family="Helvetica,sans-Serif" font-size="10.00" fill="#000000">fast_expansion_sum</text>
<text text-anchor="middle" x="937.5" y="-511" font-family="Helvetica,sans-Serif" font-size="10.00" fill="#000000">_zeroelim</text>
</a>
</g>
</g>
<!-- Node1705&#45;&gt;Node1707 -->
<g id="edge8" class="edge">
<title>Node1705&#45;&gt;Node1707</title>
<path fill="none" stroke="#191970" d="M836.0344,-519C848.2122,-519 861.1213,-519 873.5028,-519"/>
<polygon fill="#191970" stroke="#191970" points="873.7516,-522.5001 883.7516,-519 873.7516,-515.5001 873.7516,-522.5001"/>
</g>
<!-- Node1709 -->
<g id="node11" class="node">
<title>Node1709</title>
<g id="a_node11"><a xlink:href="triangle_8cpp.html#a3f4425b06c516b9f5d647a1384c74d51" target="_top" xlink:title="pooldealloc">
<polygon fill="#ffffff" stroke="#000000" points="357.5,-114.5 357.5,-133.5 422.5,-133.5 422.5,-114.5 357.5,-114.5"/>
<text text-anchor="middle" x="390" y="-121.5" font-family="Helvetica,sans-Serif" font-size="10.00" fill="#000000">pooldealloc</text>
</a>
</g>
</g>
<!-- Node1708&#45;&gt;Node1709 -->
<g id="edge10" class="edge">
<title>Node1708&#45;&gt;Node1709</title>
<path fill="none" stroke="#191970" d="M170.9724,-57.5485C215.9666,-71.1994 298.7401,-96.3124 348.6377,-111.451"/>
<polygon fill="#191970" stroke="#191970" points="347.8739,-114.8767 358.4594,-114.4308 349.9062,-108.1782 347.8739,-114.8767"/>
</g>
<!-- Node1710&#45;&gt;Node1700 -->
<g id="edge18" class="edge">
<title>Node1710&#45;&gt;Node1700</title>
<path fill="none" stroke="#191970" d="M290.0938,-323.5067C304.6199,-327.2711 322.025,-331.1403 338,-333 434.164,-344.1948 465.295,-350.4122 555,-314 578.9542,-304.2767 602.8783,-286.654 618.7468,-273.5682"/>
<polygon fill="#191970" stroke="#191970" points="621.3158,-275.9789 626.6829,-266.8441 616.7907,-270.6382 621.3158,-275.9789"/>
</g>
<!-- Node1710&#45;&gt;Node1704 -->
<g id="edge29" class="edge">
<title>Node1710&#45;&gt;Node1704</title>
<path fill="none" stroke="#191970" d="M260.843,-323.5892C269.5789,-347.2051 295.4085,-408.5325 338,-440 410.9117,-493.8686 517.122,-512.7799 581.5186,-519.416"/>
<polygon fill="#191970" stroke="#191970" points="581.193,-522.9007 591.4833,-520.3791 581.8665,-515.9332 581.193,-522.9007"/>
</g>
<!-- Node1711 -->
<g id="node13" class="node">
<title>Node1711</title>
<g id="a_node13"><a xlink:href="triangle_8cpp.html#a51073193cbdba1daea4186d1458890e8" target="_top" xlink:title="locate">
<polygon fill="#ffffff" stroke="#000000" points="368.5,-522.5 368.5,-541.5 411.5,-541.5 411.5,-522.5 368.5,-522.5"/>
<text text-anchor="middle" x="390" y="-529.5" font-family="Helvetica,sans-Serif" font-size="10.00" fill="#000000">locate</text>
</a>
</g>
</g>
<!-- Node1710&#45;&gt;Node1711 -->
<g id="edge12" class="edge">
<title>Node1710&#45;&gt;Node1711</title>
<path fill="none" stroke="#191970" d="M259.5377,-323.5168C266.1965,-352.7354 289.7168,-442.5831 338,-499 344.1625,-506.2007 352.2918,-512.3712 360.287,-517.3617"/>
<polygon fill="#191970" stroke="#191970" points="358.7364,-520.5082 369.1449,-522.4868 362.2421,-514.4493 358.7364,-520.5082"/>
</g>
<!-- Node1713 -->
<g id="node15" class="node">
<title>Node1713</title>
<g id="a_node15"><a xlink:href="triangle_8cpp.html#a34a6e2c35be028da265a50ab3d9d6be6" target="_top" xlink:title="preciselocate">
<polygon fill="#ffffff" stroke="#000000" points="479.5,-589.5 479.5,-608.5 553.5,-608.5 553.5,-589.5 479.5,-589.5"/>
<text text-anchor="middle" x="516.5" y="-596.5" font-family="Helvetica,sans-Serif" font-size="10.00" fill="#000000">preciselocate</text>
</a>
</g>
</g>
<!-- Node1710&#45;&gt;Node1713 -->
<g id="edge17" class="edge">
<title>Node1710&#45;&gt;Node1713</title>
<path fill="none" stroke="#191970" d="M260.2063,-323.6866C272.144,-366.1402 320.2846,-534.3959 338,-551 373.4316,-584.2089 429.3468,-594.9292 469.1483,-598.1439"/>
<polygon fill="#191970" stroke="#191970" points="468.9378,-601.6375 479.1518,-598.8226 469.4117,-594.6536 468.9378,-601.6375"/>
</g>
<!-- Node1714 -->
<g id="node16" class="node">
<title>Node1714</title>
<g id="a_node16"><a xlink:href="triangle_8cpp.html#a5f18f6286348f31f222aedb01e8516d4" target="_top" xlink:title="maketriangle">
<polygon fill="#ffffff" stroke="#000000" points="480.5,-209.5 480.5,-228.5 552.5,-228.5 552.5,-209.5 480.5,-209.5"/>
<text text-anchor="middle" x="516.5" y="-216.5" font-family="Helvetica,sans-Serif" font-size="10.00" fill="#000000">maketriangle</text>
</a>
</g>
</g>
<!-- Node1710&#45;&gt;Node1714 -->
<g id="edge19" class="edge">
<title>Node1710&#45;&gt;Node1714</title>
<path fill="none" stroke="#191970" d="M268.083,-304.3232C282.6976,-291.5007 310.3943,-269.0949 338,-257 380.7082,-238.2882 433.3017,-228.5321 470.3017,-223.6187"/>
<polygon fill="#191970" stroke="#191970" points="470.8193,-227.0813 480.3029,-222.3579 469.9437,-220.1363 470.8193,-227.0813"/>
</g>
<!-- Node1715 -->
<g id="node17" class="node">
<title>Node1715</title>
<g id="a_node17"><a xlink:href="triangle_8cpp.html#a65e7d1a5e6cdb3f22124eca6e7744140" target="_top" xlink:title="insertsubseg">
<polygon fill="#ffffff" stroke="#000000" points="354,-266.5 354,-285.5 426,-285.5 426,-266.5 354,-266.5"/>
<text text-anchor="middle" x="390" y="-273.5" font-family="Helvetica,sans-Serif" font-size="10.00" fill="#000000">insertsubseg</text>
</a>
</g>
</g>
<!-- Node1710&#45;&gt;Node1715 -->
<g id="edge21" class="edge">
<title>Node1710&#45;&gt;Node1715</title>
<path fill="none" stroke="#191970" d="M290.9353,-304.411C307.8829,-299.5506 328.6634,-293.5909 346.8075,-288.3873"/>
<polygon fill="#191970" stroke="#191970" points="347.9278,-291.7072 356.5754,-285.5859 345.9979,-284.9784 347.9278,-291.7072"/>
</g>
<!-- Node1718 -->
<g id="node20" class="node">
<title>Node1718</title>
<g id="a_node20"><a xlink:href="triangle_8cpp.html#a2657afcbf1c107955b10ccf7dbf14c90" target="_top" xlink:title="poolrestart">
<polygon fill="#ffffff" stroke="#000000" points="359,-304.5 359,-323.5 421,-323.5 421,-304.5 359,-304.5"/>
<text text-anchor="middle" x="390" y="-311.5" font-family="Helvetica,sans-Serif" font-size="10.00" fill="#000000">poolrestart</text>
</a>
</g>
</g>
<!-- Node1710&#45;&gt;Node1718 -->
<g id="edge25" class="edge">
<title>Node1710&#45;&gt;Node1718</title>
<path fill="none" stroke="#191970" d="M291.622,-314C309.0092,-314 330.292,-314 348.6093,-314"/>
<polygon fill="#191970" stroke="#191970" points="348.7174,-317.5001 358.7174,-314 348.7173,-310.5001 348.7174,-317.5001"/>
</g>
<!-- Node1719 -->
<g id="node21" class="node">
<title>Node1719</title>
<g id="a_node21"><a xlink:href="triangle_8cpp.html#a62ccb7c855c68af7a6918e23ccb158e6" target="_top" xlink:title="printtriangle">
<polygon fill="#ffffff" stroke="#000000" points="356.5,-152.5 356.5,-171.5 423.5,-171.5 423.5,-152.5 356.5,-152.5"/>
<text text-anchor="middle" x="390" y="-159.5" font-family="Helvetica,sans-Serif" font-size="10.00" fill="#000000">printtriangle</text>
</a>
</g>
</g>
<!-- Node1710&#45;&gt;Node1719 -->
<g id="edge26" class="edge">
<title>Node1710&#45;&gt;Node1719</title>
<path fill="none" stroke="#191970" d="M260.7242,-304.453C269.3545,-280.2922 295.271,-216.1521 338,-181 340.7556,-178.733 343.8056,-176.724 347.0066,-174.9457"/>
<polygon fill="#191970" stroke="#191970" points="348.7805,-177.9778 356.3086,-170.5228 345.7746,-171.6561 348.7805,-177.9778"/>
</g>
<!-- Node1720 -->
<g id="node22" class="node">
<title>Node1720</title>
<g id="a_node22"><a xlink:href="triangle_8cpp.html#a6f0c7fd3fa9fb9a02403f67c7651feac" target="_top" xlink:title="checkseg4encroach">
<polygon fill="#ffffff" stroke="#000000" points="338,-190.5 338,-209.5 442,-209.5 442,-190.5 338,-190.5"/>
<text text-anchor="middle" x="390" y="-197.5" font-family="Helvetica,sans-Serif" font-size="10.00" fill="#000000">checkseg4encroach</text>
</a>
</g>
</g>
<!-- Node1710&#45;&gt;Node1720 -->
<g id="edge27" class="edge">
<title>Node1710&#45;&gt;Node1720</title>
<path fill="none" stroke="#191970" d="M264.0102,-304.4246C276.5376,-286.5906 305.6376,-247.9313 338,-224 343.1415,-220.198 348.9815,-216.7916 354.8446,-213.8219"/>
<polygon fill="#191970" stroke="#191970" points="356.4234,-216.9472 363.9799,-209.5209 353.4416,-210.614 356.4234,-216.9472"/>
</g>
<!-- Node1721 -->
<g id="node23" class="node">
<title>Node1721</title>
<g id="a_node23"><a xlink:href="triangle_8cpp.html#abbd721e83ed16c99082c2152fa55e2ee" target="_top" xlink:title="incircle">
<polygon fill="#ffffff" stroke="#000000" points="614,-441.5 614,-460.5 661,-460.5 661,-441.5 614,-441.5"/>
<text text-anchor="middle" x="637.5" y="-448.5" font-family="Helvetica,sans-Serif" font-size="10.00" fill="#000000">incircle</text>
</a>
</g>
</g>
<!-- Node1710&#45;&gt;Node1721 -->
<g id="edge30" class="edge">
<title>Node1710&#45;&gt;Node1721</title>
<path fill="none" stroke="#191970" d="M262.4128,-323.5373C273.1363,-343.2702 300.6992,-388.4488 338,-409 424.5856,-456.705 545.8143,-456.9572 603.892,-453.7525"/>
<polygon fill="#191970" stroke="#191970" points="604.2157,-457.2392 613.9788,-453.1245 603.7806,-450.2527 604.2157,-457.2392"/>
</g>
<!-- Node1724 -->
<g id="node26" class="node">
<title>Node1724</title>
<g id="a_node26"><a xlink:href="triangle_8cpp.html#a816cae4d440df52b7bc162b05f92cc75" target="_top" xlink:title="testtriangle">
<polygon fill="#ffffff" stroke="#000000" points="357.5,-380.5 357.5,-399.5 422.5,-399.5 422.5,-380.5 357.5,-380.5"/>
<text text-anchor="middle" x="390" y="-387.5" font-family="Helvetica,sans-Serif" font-size="10.00" fill="#000000">testtriangle</text>
</a>
</g>
</g>
<!-- Node1710&#45;&gt;Node1724 -->
<g id="edge35" class="edge">
<title>Node1710&#45;&gt;Node1724</title>
<path fill="none" stroke="#191970" d="M271.0966,-323.6285C286.8162,-334.5587 313.6557,-352.6066 338,-366 344.3213,-369.4778 351.2369,-372.9122 357.902,-376.0485"/>
<polygon fill="#191970" stroke="#191970" points="356.8409,-379.4124 367.3896,-380.4005 359.7595,-373.0498 356.8409,-379.4124"/>
</g>
<!-- Node1711&#45;&gt;Node1704 -->
<g id="edge14" class="edge">
<title>Node1711&#45;&gt;Node1704</title>
<path fill="none" stroke="#191970" d="M411.531,-531.2171C448.9862,-529.855 527.2752,-527.0082 581.1072,-525.0506"/>
<polygon fill="#191970" stroke="#191970" points="581.3271,-528.5451 591.1933,-524.6839 581.0727,-521.5497 581.3271,-528.5451"/>
</g>
<!-- Node1712 -->
<g id="node14" class="node">
<title>Node1712</title>
<g id="a_node14"><a xlink:href="triangle_8cpp.html#abafde1fa8bfde5489dced6485939a19f" target="_top" xlink:title="randomnation">
<polygon fill="#ffffff" stroke="#000000" points="479,-551.5 479,-570.5 554,-570.5 554,-551.5 479,-551.5"/>
<text text-anchor="middle" x="516.5" y="-558.5" font-family="Helvetica,sans-Serif" font-size="10.00" fill="#000000">randomnation</text>
</a>
</g>
</g>
<!-- Node1711&#45;&gt;Node1712 -->
<g id="edge13" class="edge">
<title>Node1711&#45;&gt;Node1712</title>
<path fill="none" stroke="#191970" d="M411.7461,-536.9853C427.5187,-540.6011 449.4561,-545.6303 469.1821,-550.1524"/>
<polygon fill="#191970" stroke="#191970" points="468.4212,-553.5687 478.9505,-552.3918 469.9854,-546.7457 468.4212,-553.5687"/>
</g>
<!-- Node1711&#45;&gt;Node1713 -->
<g id="edge15" class="edge">
<title>Node1711&#45;&gt;Node1713</title>
<path fill="none" stroke="#191970" d="M407.0882,-541.5905C424.7384,-551.4327 453.1335,-567.0892 478,-580 481.1381,-581.6293 484.4351,-583.3072 487.7245,-584.9597"/>
<polygon fill="#191970" stroke="#191970" points="486.3233,-588.1717 496.8361,-589.4883 489.4389,-581.9032 486.3233,-588.1717"/>
</g>
<!-- Node1713&#45;&gt;Node1704 -->
<g id="edge16" class="edge">
<title>Node1713&#45;&gt;Node1704</title>
<path fill="none" stroke="#191970" d="M537.1744,-589.4871C543.0294,-586.6085 549.3457,-583.3245 555,-580 576.6526,-567.2691 600.104,-550.7828 616.4489,-538.818"/>
<polygon fill="#191970" stroke="#191970" points="618.7802,-541.4472 624.7416,-532.6887 614.6194,-535.8179 618.7802,-541.4472"/>
</g>
<!-- Node1714&#45;&gt;Node1700 -->
<g id="edge20" class="edge">
<title>Node1714&#45;&gt;Node1700</title>
<path fill="none" stroke="#191970" d="M547.0334,-228.589C563.1861,-233.6617 583.1515,-239.9319 600.2134,-245.2901"/>
<polygon fill="#191970" stroke="#191970" points="599.2836,-248.6666 609.8729,-248.3237 601.381,-241.9882 599.2836,-248.6666"/>
</g>
<!-- Node1716 -->
<g id="node18" class="node">
<title>Node1716</title>
<g id="a_node18"><a xlink:href="triangle_8cpp.html#a38c1f489a079cd860973698d73d5128c" target="_top" xlink:title="makesubseg">
<polygon fill="#ffffff" stroke="#000000" points="480.5,-285.5 480.5,-304.5 552.5,-304.5 552.5,-285.5 480.5,-285.5"/>
<text text-anchor="middle" x="516.5" y="-292.5" font-family="Helvetica,sans-Serif" font-size="10.00" fill="#000000">makesubseg</text>
</a>
</g>
</g>
<!-- Node1715&#45;&gt;Node1716 -->
<g id="edge22" class="edge">
<title>Node1715&#45;&gt;Node1716</title>
<path fill="none" stroke="#191970" d="M426.2498,-281.4446C439.8797,-283.4918 455.5688,-285.8483 470.0034,-288.0163"/>
<polygon fill="#191970" stroke="#191970" points="469.8359,-291.5303 480.2449,-289.5546 470.8757,-284.608 469.8359,-291.5303"/>
</g>
<!-- Node1717 -->
<g id="node19" class="node">
<title>Node1717</title>
<g id="a_node19"><a xlink:href="triangle_8cpp.html#ae5bee30bf48dcc4ac5ab46eb5fa3f059" target="_top" xlink:title="printsubseg">
<polygon fill="#ffffff" stroke="#000000" points="483,-247.5 483,-266.5 550,-266.5 550,-247.5 483,-247.5"/>
<text text-anchor="middle" x="516.5" y="-254.5" font-family="Helvetica,sans-Serif" font-size="10.00" fill="#000000">printsubseg</text>
</a>
</g>
</g>
<!-- Node1715&#45;&gt;Node1717 -->
<g id="edge24" class="edge">
<title>Node1715&#45;&gt;Node1717</title>
<path fill="none" stroke="#191970" d="M426.2498,-270.5554C440.7238,-268.3814 457.5201,-265.8586 472.6702,-263.5831"/>
<polygon fill="#191970" stroke="#191970" points="473.4777,-267.0012 482.8469,-262.0546 472.4379,-260.0788 473.4777,-267.0012"/>
</g>
<!-- Node1716&#45;&gt;Node1700 -->
<g id="edge23" class="edge">
<title>Node1716&#45;&gt;Node1700</title>
<path fill="none" stroke="#191970" d="M547.0334,-285.411C563.1861,-280.3383 583.1515,-274.0681 600.2134,-268.7099"/>
<polygon fill="#191970" stroke="#191970" points="601.381,-272.0118 609.8729,-265.6763 599.2836,-265.3334 601.381,-272.0118"/>
</g>
<!-- Node1720&#45;&gt;Node1700 -->
<g id="edge28" class="edge">
<title>Node1720&#45;&gt;Node1700</title>
<path fill="none" stroke="#191970" d="M442.1073,-192.1791C475.1895,-189.1039 518.4919,-188.6147 555,-200 580.241,-207.8716 604.5696,-226.465 620.1846,-240.2881"/>
<polygon fill="#191970" stroke="#191970" points="618.1786,-243.1975 627.9136,-247.3785 622.9106,-238.0392 618.1786,-243.1975"/>
</g>
<!-- Node1722 -->
<g id="node24" class="node">
<title>Node1722</title>
<g id="a_node24"><a xlink:href="triangle_8cpp.html#ade6dfff2bcdf2f287e419bc4e2a211dc" target="_top" xlink:title="incircleadapt">
<polygon fill="#ffffff" stroke="#000000" points="742.5,-449.5 742.5,-468.5 813.5,-468.5 813.5,-449.5 742.5,-449.5"/>
<text text-anchor="middle" x="778" y="-456.5" font-family="Helvetica,sans-Serif" font-size="10.00" fill="#000000">incircleadapt</text>
</a>
</g>
</g>
<!-- Node1721&#45;&gt;Node1722 -->
<g id="edge31" class="edge">
<title>Node1721&#45;&gt;Node1722</title>
<path fill="none" stroke="#191970" d="M661.0165,-452.339C680.3424,-453.4394 708.3042,-455.0316 732.0445,-456.3833"/>
<polygon fill="#191970" stroke="#191970" points="732.082,-459.891 742.2648,-456.9653 732.48,-452.9024 732.082,-459.891"/>
</g>
<!-- Node1722&#45;&gt;Node1706 -->
<g id="edge34" class="edge">
<title>Node1722&#45;&gt;Node1706</title>
<path fill="none" stroke="#191970" d="M813.7949,-462.5907C839.4656,-465.1658 873.9725,-468.6273 900.0191,-471.2402"/>
<polygon fill="#191970" stroke="#191970" points="899.9585,-474.7516 910.258,-472.2673 900.6573,-467.7865 899.9585,-474.7516"/>
</g>
<!-- Node1722&#45;&gt;Node1707 -->
<g id="edge33" class="edge">
<title>Node1722&#45;&gt;Node1707</title>
<path fill="none" stroke="#191970" d="M803.2732,-468.5072C825.9033,-477.0201 859.7437,-489.75 887.7834,-500.2978"/>
<polygon fill="#191970" stroke="#191970" points="886.8396,-503.6822 897.4316,-503.9272 889.3042,-497.1304 886.8396,-503.6822"/>
</g>
<!-- Node1723 -->
<g id="node25" class="node">
<title>Node1723</title>
<g id="a_node25"><a xlink:href="triangle_8cpp.html#abdcdaa8948d9a2937154d9d67f67da8d" target="_top" xlink:title="scale_expansion_zeroelim">
<polygon fill="#ffffff" stroke="#000000" points="872,-427.5 872,-446.5 1003,-446.5 1003,-427.5 872,-427.5"/>
<text text-anchor="middle" x="937.5" y="-434.5" font-family="Helvetica,sans-Serif" font-size="10.00" fill="#000000">scale_expansion_zeroelim</text>
</a>
</g>
</g>
<!-- Node1722&#45;&gt;Node1723 -->
<g id="edge32" class="edge">
<title>Node1722&#45;&gt;Node1723</title>
<path fill="none" stroke="#191970" d="M813.7949,-454.0628C827.9423,-452.1114 844.7735,-449.7899 861.3932,-447.4975"/>
<polygon fill="#191970" stroke="#191970" points="862.2602,-450.9111 871.6882,-446.0775 861.3037,-443.9768 862.2602,-450.9111"/>
</g>
<!-- Node1725 -->
<g id="node27" class="node">
<title>Node1725</title>
<g id="a_node27"><a xlink:href="triangle_8cpp.html#a6b67091e1472b3c8d48c8540148dc1a8" target="_top" xlink:title="enqueuebadtri">
<polygon fill="#ffffff" stroke="#000000" points="478,-399.5 478,-418.5 555,-418.5 555,-399.5 478,-399.5"/>
<text text-anchor="middle" x="516.5" y="-406.5" font-family="Helvetica,sans-Serif" font-size="10.00" fill="#000000">enqueuebadtri</text>
</a>
</g>
</g>
<!-- Node1724&#45;&gt;Node1725 -->
<g id="edge36" class="edge">
<title>Node1724&#45;&gt;Node1725</title>
<path fill="none" stroke="#191970" d="M422.5769,-394.893C436.2571,-396.9477 452.4633,-399.3818 467.529,-401.6447"/>
<polygon fill="#191970" stroke="#191970" points="467.323,-405.1529 477.7319,-403.1771 468.3627,-398.2306 467.323,-405.1529"/>
</g>
<!-- Node1727 -->
<g id="node29" class="node">
<title>Node1727</title>
<g id="a_node29"><a xlink:href="triangle_8cpp.html#a435eb334f65dbd9268038e8881e24554" target="_top" xlink:title="triunsuitable">
<polygon fill="#ffffff" stroke="#000000" points="482,-361.5 482,-380.5 551,-380.5 551,-361.5 482,-361.5"/>
<text text-anchor="middle" x="516.5" y="-368.5" font-family="Helvetica,sans-Serif" font-size="10.00" fill="#000000">triunsuitable</text>
</a>
</g>
</g>
<!-- Node1724&#45;&gt;Node1727 -->
<g id="edge39" class="edge">
<title>Node1724&#45;&gt;Node1727</title>
<path fill="none" stroke="#191970" d="M422.5769,-385.107C437.4696,-382.8702 455.3558,-380.1837 471.5054,-377.7581"/>
<polygon fill="#191970" stroke="#191970" points="472.4491,-381.1557 481.8183,-376.2091 471.4093,-374.2333 472.4491,-381.1557"/>
</g>
<!-- Node1725&#45;&gt;Node1700 -->
<g id="edge37" class="edge">
<title>Node1725&#45;&gt;Node1700</title>
<path fill="none" stroke="#191970" d="M541.016,-399.4658C545.9757,-396.8585 550.9157,-393.707 555,-390 591.3955,-356.9665 617.548,-304.2108 629.761,-276.0977"/>
<polygon fill="#191970" stroke="#191970" points="633.0959,-277.1966 633.7516,-266.6221 626.6446,-274.4797 633.0959,-277.1966"/>
</g>
<!-- Node1726 -->
<g id="node28" class="node">
<title>Node1726</title>
<g id="a_node28"><a xlink:href="triangle_8cpp.html#a8b69474415bac9ddab3a5879974338b5" target="_top" xlink:title="enqueuebadtriang">
<polygon fill="#ffffff" stroke="#000000" points="591,-399.5 591,-418.5 684,-418.5 684,-399.5 591,-399.5"/>
<text text-anchor="middle" x="637.5" y="-406.5" font-family="Helvetica,sans-Serif" font-size="10.00" fill="#000000">enqueuebadtriang</text>
</a>
</g>
</g>
<!-- Node1725&#45;&gt;Node1726 -->
<g id="edge38" class="edge">
<title>Node1725&#45;&gt;Node1726</title>
<path fill="none" stroke="#191970" d="M555.1178,-409C563.2704,-409 572.0357,-409 580.6994,-409"/>
<polygon fill="#191970" stroke="#191970" points="580.7805,-412.5001 590.7805,-409 580.7804,-405.5001 580.7805,-412.5001"/>
</g>
<!-- Node1728&#45;&gt;Node1710 -->
<g id="edge43" class="edge">
<title>Node1728&#45;&gt;Node1710</title>
<path fill="none" stroke="#191970" d="M146.1823,-152.6837C165.2478,-180.3126 220.1277,-259.8419 244.9915,-295.8732"/>
<polygon fill="#191970" stroke="#191970" points="242.3307,-298.1798 250.891,-304.4226 248.0921,-294.2041 242.3307,-298.1798"/>
</g>
<!-- Node1729 -->
<g id="node31" class="node">
<title>Node1729</title>
<g id="a_node31"><a xlink:href="triangle_8cpp.html#a3bd3bd17a942635e55f283dc27f32ddb" target="_top" xlink:title="triangledealloc">
<polygon fill="#ffffff" stroke="#000000" points="218,-114.5 218,-133.5 297,-133.5 297,-114.5 218,-114.5"/>
<text text-anchor="middle" x="257.5" y="-121.5" font-family="Helvetica,sans-Serif" font-size="10.00" fill="#000000">triangledealloc</text>
</a>
</g>
</g>
<!-- Node1728&#45;&gt;Node1729 -->
<g id="edge41" class="edge">
<title>Node1728&#45;&gt;Node1729</title>
<path fill="none" stroke="#191970" d="M172.0564,-137.7579C183.1417,-135.9729 195.7973,-133.9352 207.9099,-131.9849"/>
<polygon fill="#191970" stroke="#191970" points="208.5938,-135.4199 217.9102,-130.3746 207.481,-128.5089 208.5938,-135.4199"/>
</g>
<!-- Node1730 -->
<g id="node32" class="node">
<title>Node1730</title>
<g id="a_node32"><a xlink:href="triangle_8cpp.html#ad0519b3b99595506b2c45d5b0c5aa7cf" target="_top" xlink:title="unflip">
<polygon fill="#ffffff" stroke="#000000" points="237.5,-152.5 237.5,-171.5 277.5,-171.5 277.5,-152.5 237.5,-152.5"/>
<text text-anchor="middle" x="257.5" y="-159.5" font-family="Helvetica,sans-Serif" font-size="10.00" fill="#000000">unflip</text>
</a>
</g>
</g>
<!-- Node1728&#45;&gt;Node1730 -->
<g id="edge44" class="edge">
<title>Node1728&#45;&gt;Node1730</title>
<path fill="none" stroke="#191970" d="M172.0564,-148.2421C189.3431,-151.0256 210.4485,-154.4239 227.358,-157.1466"/>
<polygon fill="#191970" stroke="#191970" points="226.8435,-160.6088 237.2727,-158.7431 227.9563,-153.6978 226.8435,-160.6088"/>
</g>
<!-- Node1729&#45;&gt;Node1709 -->
<g id="edge42" class="edge">
<title>Node1729&#45;&gt;Node1709</title>
<path fill="none" stroke="#191970" d="M297.2544,-124C313.0121,-124 331.1642,-124 347.2085,-124"/>
<polygon fill="#191970" stroke="#191970" points="347.4013,-127.5001 357.4012,-124 347.4012,-120.5001 347.4013,-127.5001"/>
</g>
<!-- Node1730&#45;&gt;Node1719 -->
<g id="edge45" class="edge">
<title>Node1730&#45;&gt;Node1719</title>
<path fill="none" stroke="#191970" d="M277.6239,-162C295.7047,-162 322.8851,-162 345.9855,-162"/>
<polygon fill="#191970" stroke="#191970" points="346.2648,-165.5001 356.2647,-162 346.2647,-158.5001 346.2648,-165.5001"/>
</g>
</g>
</svg>
