<?xml version="1.0" encoding="UTF-8" standalone="no"?>
<!DOCTYPE svg PUBLIC "-//W3C//DTD SVG 1.1//EN"
 "http://www.w3.org/Graphics/SVG/1.1/DTD/svg11.dtd">
<!-- Generated by graphviz version 2.40.1 (20161225.0304)
 -->
<!-- Title: deletevertex Pages: 1 -->
<svg width="679pt" height="192pt"
 viewBox="0.00 0.00 679.00 192.00" xmlns="http://www.w3.org/2000/svg" xmlns:xlink="http://www.w3.org/1999/xlink">
<g id="graph0" class="graph" transform="scale(1 1) rotate(0) translate(4 188)">
<title>deletevertex</title>
<polygon fill="#ffffff" stroke="transparent" points="-4,4 -4,-188 675,-188 675,4 -4,4"/>
<!-- Node1093 -->
<g id="node1" class="node">
<title>Node1093</title>
<polygon fill="#bfbfbf" stroke="#000000" points="0,-95.5 0,-114.5 70,-114.5 70,-95.5 0,-95.5"/>
<text text-anchor="middle" x="35" y="-102.5" font-family="Helvetica,sans-Serif" font-size="10.00" fill="#000000">deletevertex</text>
</g>
<!-- Node1094 -->
<g id="node2" class="node">
<title>Node1094</title>
<g id="a_node2"><a xlink:href="triangle_8cpp.html#a98df73a1a399900d056c423c18d5fd72" target="_top" xlink:title="vertexdealloc">
<polygon fill="#ffffff" stroke="#000000" points="116.5,-152.5 116.5,-171.5 190.5,-171.5 190.5,-152.5 116.5,-152.5"/>
<text text-anchor="middle" x="153.5" y="-159.5" font-family="Helvetica,sans-Serif" font-size="10.00" fill="#000000">vertexdealloc</text>
</a>
</g>
</g>
<!-- Node1093&#45;&gt;Node1094 -->
<g id="edge1" class="edge">
<title>Node1093&#45;&gt;Node1094</title>
<path fill="none" stroke="#191970" d="M51.6603,-114.5949C65.8817,-122.62 86.9903,-134.1442 106,-143 110.096,-144.9081 114.4399,-146.8082 118.7715,-148.6281"/>
<polygon fill="#191970" stroke="#191970" points="117.5524,-151.9109 128.1332,-152.4561 120.2018,-145.4316 117.5524,-151.9109"/>
</g>
<!-- Node1096 -->
<g id="node4" class="node">
<title>Node1096</title>
<g id="a_node4"><a xlink:href="triangle_8cpp.html#a8ab6fa4f05809e4cb6838ba724de2f88" target="_top" xlink:title="triangulatepolygon">
<polygon fill="#ffffff" stroke="#000000" points="106,-76.5 106,-95.5 201,-95.5 201,-76.5 106,-76.5"/>
<text text-anchor="middle" x="153.5" y="-83.5" font-family="Helvetica,sans-Serif" font-size="10.00" fill="#000000">triangulatepolygon</text>
</a>
</g>
</g>
<!-- Node1093&#45;&gt;Node1096 -->
<g id="edge3" class="edge">
<title>Node1093&#45;&gt;Node1096</title>
<path fill="none" stroke="#191970" d="M70.2331,-99.3508C78.3624,-98.0474 87.2177,-96.6275 96.0209,-95.2161"/>
<polygon fill="#191970" stroke="#191970" points="96.5766,-98.6717 105.8964,-93.6326 95.4684,-91.76 96.5766,-98.6717"/>
</g>
<!-- Node1104 -->
<g id="node12" class="node">
<title>Node1104</title>
<g id="a_node12"><a xlink:href="triangle_8cpp.html#a816cae4d440df52b7bc162b05f92cc75" target="_top" xlink:title="testtriangle">
<polygon fill="#ffffff" stroke="#000000" points="237,-38.5 237,-57.5 302,-57.5 302,-38.5 237,-38.5"/>
<text text-anchor="middle" x="269.5" y="-45.5" font-family="Helvetica,sans-Serif" font-size="10.00" fill="#000000">testtriangle</text>
</a>
</g>
</g>
<!-- Node1093&#45;&gt;Node1104 -->
<g id="edge17" class="edge">
<title>Node1093&#45;&gt;Node1104</title>
<path fill="none" stroke="#191970" d="M48.9806,-95.4603C62.8155,-86.5303 84.9202,-73.6029 106,-67 145.617,-54.5906 192.9238,-50.1468 226.4342,-48.6241"/>
<polygon fill="#191970" stroke="#191970" points="226.9439,-52.1072 236.8022,-48.226 226.6752,-45.1124 226.9439,-52.1072"/>
</g>
<!-- Node1111 -->
<g id="node18" class="node">
<title>Node1111</title>
<g id="a_node18"><a xlink:href="triangle_8cpp.html#a3bd3bd17a942635e55f283dc27f32ddb" target="_top" xlink:title="triangledealloc">
<polygon fill="#ffffff" stroke="#000000" points="114,-114.5 114,-133.5 193,-133.5 193,-114.5 114,-114.5"/>
<text text-anchor="middle" x="153.5" y="-121.5" font-family="Helvetica,sans-Serif" font-size="10.00" fill="#000000">triangledealloc</text>
</a>
</g>
</g>
<!-- Node1093&#45;&gt;Node1111 -->
<g id="edge18" class="edge">
<title>Node1093&#45;&gt;Node1111</title>
<path fill="none" stroke="#191970" d="M70.2331,-110.6492C80.6798,-112.3242 92.3257,-114.1915 103.519,-115.9862"/>
<polygon fill="#191970" stroke="#191970" points="103.1959,-119.479 113.6239,-117.6064 104.3041,-112.5673 103.1959,-119.479"/>
</g>
<!-- Node1095 -->
<g id="node3" class="node">
<title>Node1095</title>
<g id="a_node3"><a xlink:href="triangle_8cpp.html#a3f4425b06c516b9f5d647a1384c74d51" target="_top" xlink:title="pooldealloc">
<polygon fill="#ffffff" stroke="#000000" points="237,-152.5 237,-171.5 302,-171.5 302,-152.5 237,-152.5"/>
<text text-anchor="middle" x="269.5" y="-159.5" font-family="Helvetica,sans-Serif" font-size="10.00" fill="#000000">pooldealloc</text>
</a>
</g>
</g>
<!-- Node1094&#45;&gt;Node1095 -->
<g id="edge2" class="edge">
<title>Node1094&#45;&gt;Node1095</title>
<path fill="none" stroke="#191970" d="M190.5221,-162C202.0094,-162 214.7656,-162 226.6166,-162"/>
<polygon fill="#191970" stroke="#191970" points="226.7436,-165.5001 236.7435,-162 226.7435,-158.5001 226.7436,-165.5001"/>
</g>
<!-- Node1097 -->
<g id="node5" class="node">
<title>Node1097</title>
<g id="a_node5"><a xlink:href="triangle_8cpp.html#abbd721e83ed16c99082c2152fa55e2ee" target="_top" xlink:title="incircle">
<polygon fill="#ffffff" stroke="#000000" points="246,-114.5 246,-133.5 293,-133.5 293,-114.5 246,-114.5"/>
<text text-anchor="middle" x="269.5" y="-121.5" font-family="Helvetica,sans-Serif" font-size="10.00" fill="#000000">incircle</text>
</a>
</g>
</g>
<!-- Node1096&#45;&gt;Node1097 -->
<g id="edge4" class="edge">
<title>Node1096&#45;&gt;Node1097</title>
<path fill="none" stroke="#191970" d="M182.7717,-95.589C198.8903,-100.8692 218.9692,-107.4468 235.7469,-112.943"/>
<polygon fill="#191970" stroke="#191970" points="235.1092,-116.417 245.7019,-116.2041 237.2884,-109.7648 235.1092,-116.417"/>
</g>
<!-- Node1102 -->
<g id="node10" class="node">
<title>Node1102</title>
<g id="a_node10"><a xlink:href="triangle_8cpp.html#adaf57083638c866f831ae08a5e993b12" target="_top" xlink:title="flip">
<polygon fill="#ffffff" stroke="#000000" points="255,-76.5 255,-95.5 284,-95.5 284,-76.5 255,-76.5"/>
<text text-anchor="middle" x="269.5" y="-83.5" font-family="Helvetica,sans-Serif" font-size="10.00" fill="#000000">flip</text>
</a>
</g>
</g>
<!-- Node1096&#45;&gt;Node1102 -->
<g id="edge9" class="edge">
<title>Node1096&#45;&gt;Node1102</title>
<path fill="none" stroke="#191970" d="M201.0163,-86C216.0181,-86 231.9877,-86 244.7289,-86"/>
<polygon fill="#191970" stroke="#191970" points="244.9892,-89.5001 254.9891,-86 244.9891,-82.5001 244.9892,-89.5001"/>
</g>
<!-- Node1096&#45;&gt;Node1104 -->
<g id="edge11" class="edge">
<title>Node1096&#45;&gt;Node1104</title>
<path fill="none" stroke="#191970" d="M182.7717,-76.411C197.1967,-71.6856 214.7934,-65.9211 230.3573,-60.8226"/>
<polygon fill="#191970" stroke="#191970" points="231.8242,-64.0252 240.2377,-57.5859 229.645,-57.373 231.8242,-64.0252"/>
</g>
<!-- Node1098 -->
<g id="node6" class="node">
<title>Node1098</title>
<g id="a_node6"><a xlink:href="triangle_8cpp.html#ade6dfff2bcdf2f287e419bc4e2a211dc" target="_top" xlink:title="incircleadapt">
<polygon fill="#ffffff" stroke="#000000" points="341,-117.5 341,-136.5 412,-136.5 412,-117.5 341,-117.5"/>
<text text-anchor="middle" x="376.5" y="-124.5" font-family="Helvetica,sans-Serif" font-size="10.00" fill="#000000">incircleadapt</text>
</a>
</g>
</g>
<!-- Node1097&#45;&gt;Node1098 -->
<g id="edge5" class="edge">
<title>Node1097&#45;&gt;Node1098</title>
<path fill="none" stroke="#191970" d="M293.2468,-124.6658C304.2262,-124.9736 317.6569,-125.3502 330.4995,-125.7103"/>
<polygon fill="#191970" stroke="#191970" points="330.5206,-129.2121 340.6148,-125.9939 330.7168,-122.2149 330.5206,-129.2121"/>
</g>
<!-- Node1099 -->
<g id="node7" class="node">
<title>Node1099</title>
<g id="a_node7"><a xlink:href="triangle_8cpp.html#abdcdaa8948d9a2937154d9d67f67da8d" target="_top" xlink:title="scale_expansion_zeroelim">
<polygon fill="#ffffff" stroke="#000000" points="451,-164.5 451,-183.5 582,-183.5 582,-164.5 451,-164.5"/>
<text text-anchor="middle" x="516.5" y="-171.5" font-family="Helvetica,sans-Serif" font-size="10.00" fill="#000000">scale_expansion_zeroelim</text>
</a>
</g>
</g>
<!-- Node1098&#45;&gt;Node1099 -->
<g id="edge6" class="edge">
<title>Node1098&#45;&gt;Node1099</title>
<path fill="none" stroke="#191970" d="M400.4893,-136.5541C415.0092,-142.202 433.9545,-149.3339 451,-155 457.6432,-157.2082 464.7116,-159.4099 471.6545,-161.4903"/>
<polygon fill="#191970" stroke="#191970" points="471.0914,-164.973 481.6727,-164.4382 473.0674,-158.2576 471.0914,-164.973"/>
</g>
<!-- Node1100 -->
<g id="node8" class="node">
<title>Node1100</title>
<g id="a_node8"><a xlink:href="triangle_8cpp.html#a37646a7e0014e10c612e946bc95aeeea" target="_top" xlink:title="fast_expansion_sum\l_zeroelim">
<polygon fill="#ffffff" stroke="#000000" points="463,-115 463,-145 570,-145 570,-115 463,-115"/>
<text text-anchor="start" x="471" y="-133" font-family="Helvetica,sans-Serif" font-size="10.00" fill="#000000">fast_expansion_sum</text>
<text text-anchor="middle" x="516.5" y="-122" font-family="Helvetica,sans-Serif" font-size="10.00" fill="#000000">_zeroelim</text>
</a>
</g>
</g>
<!-- Node1098&#45;&gt;Node1100 -->
<g id="edge7" class="edge">
<title>Node1098&#45;&gt;Node1100</title>
<path fill="none" stroke="#191970" d="M412.1902,-127.7648C424.5762,-128.0302 438.8664,-128.3364 452.8189,-128.6354"/>
<polygon fill="#191970" stroke="#191970" points="452.8141,-132.136 462.8868,-128.8511 452.9641,-125.1376 452.8141,-132.136"/>
</g>
<!-- Node1101 -->
<g id="node9" class="node">
<title>Node1101</title>
<g id="a_node9"><a xlink:href="triangle_8cpp.html#a3487d9f90ea72da543d5d38b3dab1fbc" target="_top" xlink:title="estimate">
<polygon fill="#ffffff" stroke="#000000" points="489.5,-76.5 489.5,-95.5 543.5,-95.5 543.5,-76.5 489.5,-76.5"/>
<text text-anchor="middle" x="516.5" y="-83.5" font-family="Helvetica,sans-Serif" font-size="10.00" fill="#000000">estimate</text>
</a>
</g>
</g>
<!-- Node1098&#45;&gt;Node1101 -->
<g id="edge8" class="edge">
<title>Node1098&#45;&gt;Node1101</title>
<path fill="none" stroke="#191970" d="M408.7601,-117.4367C421.8637,-113.5619 437.1508,-109.0535 451,-105 460.2631,-102.2888 470.2682,-99.3778 479.6036,-96.6691"/>
<polygon fill="#191970" stroke="#191970" points="480.7737,-99.9741 489.4038,-93.8283 478.8247,-93.2508 480.7737,-99.9741"/>
</g>
<!-- Node1103 -->
<g id="node11" class="node">
<title>Node1103</title>
<g id="a_node11"><a xlink:href="triangle_8cpp.html#a62ccb7c855c68af7a6918e23ccb158e6" target="_top" xlink:title="printtriangle">
<polygon fill="#ffffff" stroke="#000000" points="343,-76.5 343,-95.5 410,-95.5 410,-76.5 343,-76.5"/>
<text text-anchor="middle" x="376.5" y="-83.5" font-family="Helvetica,sans-Serif" font-size="10.00" fill="#000000">printtriangle</text>
</a>
</g>
</g>
<!-- Node1102&#45;&gt;Node1103 -->
<g id="edge10" class="edge">
<title>Node1102&#45;&gt;Node1103</title>
<path fill="none" stroke="#191970" d="M284.3779,-86C296.8369,-86 315.2797,-86 332.3973,-86"/>
<polygon fill="#191970" stroke="#191970" points="332.819,-89.5001 342.8189,-86 332.8189,-82.5001 332.819,-89.5001"/>
</g>
<!-- Node1105 -->
<g id="node13" class="node">
<title>Node1105</title>
<g id="a_node13"><a xlink:href="triangle_8cpp.html#a6b67091e1472b3c8d48c8540148dc1a8" target="_top" xlink:title="enqueuebadtri">
<polygon fill="#ffffff" stroke="#000000" points="338,-38.5 338,-57.5 415,-57.5 415,-38.5 338,-38.5"/>
<text text-anchor="middle" x="376.5" y="-45.5" font-family="Helvetica,sans-Serif" font-size="10.00" fill="#000000">enqueuebadtri</text>
</a>
</g>
</g>
<!-- Node1104&#45;&gt;Node1105 -->
<g id="edge12" class="edge">
<title>Node1104&#45;&gt;Node1105</title>
<path fill="none" stroke="#191970" d="M302.1849,-48C310.1371,-48 318.8161,-48 327.3468,-48"/>
<polygon fill="#191970" stroke="#191970" points="327.62,-51.5001 337.6199,-48 327.6199,-44.5001 327.62,-51.5001"/>
</g>
<!-- Node1110 -->
<g id="node17" class="node">
<title>Node1110</title>
<g id="a_node17"><a xlink:href="triangle_8cpp.html#a435eb334f65dbd9268038e8881e24554" target="_top" xlink:title="triunsuitable">
<polygon fill="#ffffff" stroke="#000000" points="342,-.5 342,-19.5 411,-19.5 411,-.5 342,-.5"/>
<text text-anchor="middle" x="376.5" y="-7.5" font-family="Helvetica,sans-Serif" font-size="10.00" fill="#000000">triunsuitable</text>
</a>
</g>
</g>
<!-- Node1104&#45;&gt;Node1110 -->
<g id="edge16" class="edge">
<title>Node1104&#45;&gt;Node1110</title>
<path fill="none" stroke="#191970" d="M296.5006,-38.411C309.6797,-33.7306 325.729,-28.0308 339.9835,-22.9685"/>
<polygon fill="#191970" stroke="#191970" points="341.256,-26.2308 349.508,-19.5859 338.9133,-19.6344 341.256,-26.2308"/>
</g>
<!-- Node1106 -->
<g id="node14" class="node">
<title>Node1106</title>
<g id="a_node14"><a xlink:href="triangle_8cpp.html#ab1760445583959132ffd9998372c9aac" target="_top" xlink:title="poolalloc">
<polygon fill="#ffffff" stroke="#000000" points="489,-38.5 489,-57.5 544,-57.5 544,-38.5 489,-38.5"/>
<text text-anchor="middle" x="516.5" y="-45.5" font-family="Helvetica,sans-Serif" font-size="10.00" fill="#000000">poolalloc</text>
</a>
</g>
</g>
<!-- Node1105&#45;&gt;Node1106 -->
<g id="edge13" class="edge">
<title>Node1105&#45;&gt;Node1106</title>
<path fill="none" stroke="#191970" d="M415.1262,-48C434.8847,-48 458.848,-48 478.5144,-48"/>
<polygon fill="#191970" stroke="#191970" points="478.6522,-51.5001 488.6522,-48 478.6521,-44.5001 478.6522,-51.5001"/>
</g>
<!-- Node1109 -->
<g id="node16" class="node">
<title>Node1109</title>
<g id="a_node16"><a xlink:href="triangle_8cpp.html#a8b69474415bac9ddab3a5879974338b5" target="_top" xlink:title="enqueuebadtriang">
<polygon fill="#ffffff" stroke="#000000" points="470,-.5 470,-19.5 563,-19.5 563,-.5 470,-.5"/>
<text text-anchor="middle" x="516.5" y="-7.5" font-family="Helvetica,sans-Serif" font-size="10.00" fill="#000000">enqueuebadtriang</text>
</a>
</g>
</g>
<!-- Node1105&#45;&gt;Node1109 -->
<g id="edge15" class="edge">
<title>Node1105&#45;&gt;Node1109</title>
<path fill="none" stroke="#191970" d="M411.8279,-38.411C429.9006,-33.5056 452.0984,-27.4804 471.3945,-22.2429"/>
<polygon fill="#191970" stroke="#191970" points="472.4494,-25.5833 481.1834,-19.5859 470.6157,-18.8277 472.4494,-25.5833"/>
</g>
<!-- Node1107 -->
<g id="node15" class="node">
<title>Node1107</title>
<g id="a_node15"><a xlink:href="triangle_8cpp.html#a5f51f1d3957615b2c84a91fd9f5f09bf" target="_top" xlink:title="trimalloc">
<polygon fill="#ffffff" stroke="#ff0000" points="618,-38.5 618,-57.5 671,-57.5 671,-38.5 618,-38.5"/>
<text text-anchor="middle" x="644.5" y="-45.5" font-family="Helvetica,sans-Serif" font-size="10.00" fill="#000000">trimalloc</text>
</a>
</g>
</g>
<!-- Node1106&#45;&gt;Node1107 -->
<g id="edge14" class="edge">
<title>Node1106&#45;&gt;Node1107</title>
<path fill="none" stroke="#191970" d="M544.2741,-48C562.8075,-48 587.3842,-48 607.5619,-48"/>
<polygon fill="#191970" stroke="#191970" points="607.6573,-51.5001 617.6573,-48 607.6572,-44.5001 607.6573,-51.5001"/>
</g>
<!-- Node1111&#45;&gt;Node1095 -->
<g id="edge19" class="edge">
<title>Node1111&#45;&gt;Node1095</title>
<path fill="none" stroke="#191970" d="M182.7717,-133.589C197.1967,-138.3144 214.7934,-144.0789 230.3573,-149.1774"/>
<polygon fill="#191970" stroke="#191970" points="229.645,-152.627 240.2377,-152.4141 231.8242,-145.9748 229.645,-152.627"/>
</g>
</g>
</svg>
