<?xml version="1.0" encoding="UTF-8" standalone="no"?>
<!DOCTYPE svg PUBLIC "-//W3C//DTD SVG 1.1//EN"
 "http://www.w3.org/Graphics/SVG/1.1/DTD/svg11.dtd">
<!-- Generated by graphviz version 2.40.1 (20161225.0304)
 -->
<!-- Title: writeelements Pages: 1 -->
<svg width="417pt" height="28pt"
 viewBox="0.00 0.00 417.00 28.00" xmlns="http://www.w3.org/2000/svg" xmlns:xlink="http://www.w3.org/1999/xlink">
<g id="graph0" class="graph" transform="scale(1 1) rotate(0) translate(4 24)">
<title>writeelements</title>
<polygon fill="#ffffff" stroke="transparent" points="-4,4 -4,-24 413,-24 413,4 -4,4"/>
<!-- Node1836 -->
<g id="node1" class="node">
<title>Node1836</title>
<polygon fill="#bfbfbf" stroke="#000000" points="0,-.5 0,-19.5 77,-19.5 77,-.5 0,-.5"/>
<text text-anchor="middle" x="38.5" y="-7.5" font-family="Helvetica,sans-Serif" font-size="10.00" fill="#000000">writeelements</text>
</g>
<!-- Node1837 -->
<g id="node2" class="node">
<title>Node1837</title>
<g id="a_node2"><a xlink:href="triangle_8hpp.html#a848df2990f66cdbdc9d1ac87f4646527" target="_top" xlink:title="Call Triangle. ">
<polygon fill="#ffffff" stroke="#000000" points="113,-.5 113,-19.5 175,-19.5 175,-.5 113,-.5"/>
<text text-anchor="middle" x="144" y="-7.5" font-family="Helvetica,sans-Serif" font-size="10.00" fill="#000000">triangulate</text>
</a>
</g>
</g>
<!-- Node1836&#45;&gt;Node1837 -->
<g id="edge1" class="edge">
<title>Node1836&#45;&gt;Node1837</title>
<path fill="none" stroke="#191970" d="M87.2905,-10C96.0043,-10 104.863,-10 112.9082,-10"/>
<polygon fill="#191970" stroke="#191970" points="87.1853,-6.5001 77.1852,-10 87.1852,-13.5001 87.1853,-6.5001"/>
</g>
<!-- Node1838 -->
<g id="node3" class="node">
<title>Node1838</title>
<g id="a_node3"><a xlink:href="classRiver_1_1Triangle.html#a7bc9c5a5297dee136ab1489a923182dd" target="_top" xlink:title="Generate mesh. ">
<polygon fill="#ffffff" stroke="#000000" points="211,-.5 211,-19.5 335,-19.5 335,-.5 211,-.5"/>
<text text-anchor="middle" x="273" y="-7.5" font-family="Helvetica,sans-Serif" font-size="10.00" fill="#000000">River::Triangle::generate</text>
</a>
</g>
</g>
<!-- Node1837&#45;&gt;Node1838 -->
<g id="edge2" class="edge">
<title>Node1837&#45;&gt;Node1838</title>
<path fill="none" stroke="#191970" d="M185.2629,-10C193.4682,-10 202.2527,-10 210.9767,-10"/>
<polygon fill="#191970" stroke="#191970" points="185.2273,-6.5001 175.2273,-10 185.2273,-13.5001 185.2273,-6.5001"/>
</g>
<!-- Node1839 -->
<g id="node4" class="node">
<title>Node1839</title>
<g id="a_node4"><a xlink:href="main_8cpp.html#a0ddf1224851353fc92bfbff6f499fa97" target="_top" xlink:title="Entry point of RiverSim program. ">
<polygon fill="#ffffff" stroke="#000000" points="371,-.5 371,-19.5 409,-19.5 409,-.5 371,-.5"/>
<text text-anchor="middle" x="390" y="-7.5" font-family="Helvetica,sans-Serif" font-size="10.00" fill="#000000">main</text>
</a>
</g>
</g>
<!-- Node1838&#45;&gt;Node1839 -->
<g id="edge3" class="edge">
<title>Node1838&#45;&gt;Node1839</title>
<path fill="none" stroke="#191970" d="M345.5174,-10C354.8253,-10 363.6301,-10 370.912,-10"/>
<polygon fill="#191970" stroke="#191970" points="345.2682,-6.5001 335.2682,-10 345.2682,-13.5001 345.2682,-6.5001"/>
</g>
</g>
</svg>
