<?xml version="1.0" encoding="UTF-8" standalone="no"?>
<!DOCTYPE svg PUBLIC "-//W3C//DTD SVG 1.1//EN"
 "http://www.w3.org/Graphics/SVG/1.1/DTD/svg11.dtd">
<!-- Generated by graphviz version 2.40.1 (20161225.0304)
 -->
<!-- Title: badsubsegdealloc Pages: 1 -->
<svg width="655pt" height="28pt"
 viewBox="0.00 0.00 655.00 28.00" xmlns="http://www.w3.org/2000/svg" xmlns:xlink="http://www.w3.org/1999/xlink">
<g id="graph0" class="graph" transform="scale(1 1) rotate(0) translate(4 24)">
<title>badsubsegdealloc</title>
<polygon fill="#ffffff" stroke="transparent" points="-4,4 -4,-24 651,-24 651,4 -4,4"/>
<!-- Node483 -->
<g id="node1" class="node">
<title>Node483</title>
<polygon fill="#bfbfbf" stroke="#000000" points="0,-.5 0,-19.5 95,-19.5 95,-.5 0,-.5"/>
<text text-anchor="middle" x="47.5" y="-7.5" font-family="Helvetica,sans-Serif" font-size="10.00" fill="#000000">badsubsegdealloc</text>
</g>
<!-- Node484 -->
<g id="node2" class="node">
<title>Node484</title>
<g id="a_node2"><a xlink:href="triangle_8cpp.html#adca37fc9e90f78c9ae794662de5428bd" target="_top" xlink:title="splitencsegs">
<polygon fill="#ffffff" stroke="#000000" points="131,-.5 131,-19.5 202,-19.5 202,-.5 131,-.5"/>
<text text-anchor="middle" x="166.5" y="-7.5" font-family="Helvetica,sans-Serif" font-size="10.00" fill="#000000">splitencsegs</text>
</a>
</g>
</g>
<!-- Node483&#45;&gt;Node484 -->
<g id="edge1" class="edge">
<title>Node483&#45;&gt;Node484</title>
<path fill="none" stroke="#191970" d="M105.3656,-10C114.0677,-10 122.8165,-10 130.8666,-10"/>
<polygon fill="#191970" stroke="#191970" points="105.2162,-6.5001 95.2162,-10 105.2161,-13.5001 105.2162,-6.5001"/>
</g>
<!-- Node485 -->
<g id="node3" class="node">
<title>Node485</title>
<g id="a_node3"><a xlink:href="triangle_8cpp.html#a5a654ff6b304f2166c64ffe9183b2995" target="_top" xlink:title="enforcequality">
<polygon fill="#ffffff" stroke="#000000" points="238,-.5 238,-19.5 315,-19.5 315,-.5 238,-.5"/>
<text text-anchor="middle" x="276.5" y="-7.5" font-family="Helvetica,sans-Serif" font-size="10.00" fill="#000000">enforcequality</text>
</a>
</g>
</g>
<!-- Node484&#45;&gt;Node485 -->
<g id="edge2" class="edge">
<title>Node484&#45;&gt;Node485</title>
<path fill="none" stroke="#191970" d="M212.3765,-10C220.876,-10 229.6746,-10 237.9296,-10"/>
<polygon fill="#191970" stroke="#191970" points="212.2139,-6.5001 202.2138,-10 212.2138,-13.5001 212.2139,-6.5001"/>
</g>
<!-- Node486 -->
<g id="node4" class="node">
<title>Node486</title>
<g id="a_node4"><a xlink:href="triangle_8hpp.html#a848df2990f66cdbdc9d1ac87f4646527" target="_top" xlink:title="Call Triangle. ">
<polygon fill="#ffffff" stroke="#000000" points="351,-.5 351,-19.5 413,-19.5 413,-.5 351,-.5"/>
<text text-anchor="middle" x="382" y="-7.5" font-family="Helvetica,sans-Serif" font-size="10.00" fill="#000000">triangulate</text>
</a>
</g>
</g>
<!-- Node485&#45;&gt;Node486 -->
<g id="edge3" class="edge">
<title>Node485&#45;&gt;Node486</title>
<path fill="none" stroke="#191970" d="M325.2905,-10C334.0043,-10 342.863,-10 350.9082,-10"/>
<polygon fill="#191970" stroke="#191970" points="325.1853,-6.5001 315.1852,-10 325.1852,-13.5001 325.1853,-6.5001"/>
</g>
<!-- Node487 -->
<g id="node5" class="node">
<title>Node487</title>
<g id="a_node5"><a xlink:href="classRiver_1_1Triangle.html#a7bc9c5a5297dee136ab1489a923182dd" target="_top" xlink:title="Generate mesh. ">
<polygon fill="#ffffff" stroke="#000000" points="449,-.5 449,-19.5 573,-19.5 573,-.5 449,-.5"/>
<text text-anchor="middle" x="511" y="-7.5" font-family="Helvetica,sans-Serif" font-size="10.00" fill="#000000">River::Triangle::generate</text>
</a>
</g>
</g>
<!-- Node486&#45;&gt;Node487 -->
<g id="edge4" class="edge">
<title>Node486&#45;&gt;Node487</title>
<path fill="none" stroke="#191970" d="M423.2629,-10C431.4682,-10 440.2527,-10 448.9767,-10"/>
<polygon fill="#191970" stroke="#191970" points="423.2273,-6.5001 413.2273,-10 423.2273,-13.5001 423.2273,-6.5001"/>
</g>
<!-- Node488 -->
<g id="node6" class="node">
<title>Node488</title>
<g id="a_node6"><a xlink:href="main_8cpp.html#a0ddf1224851353fc92bfbff6f499fa97" target="_top" xlink:title="Entry point of RiverSim program. ">
<polygon fill="#ffffff" stroke="#000000" points="609,-.5 609,-19.5 647,-19.5 647,-.5 609,-.5"/>
<text text-anchor="middle" x="628" y="-7.5" font-family="Helvetica,sans-Serif" font-size="10.00" fill="#000000">main</text>
</a>
</g>
</g>
<!-- Node487&#45;&gt;Node488 -->
<g id="edge5" class="edge">
<title>Node487&#45;&gt;Node488</title>
<path fill="none" stroke="#191970" d="M583.5174,-10C592.8253,-10 601.6301,-10 608.912,-10"/>
<polygon fill="#191970" stroke="#191970" points="583.2682,-6.5001 573.2682,-10 583.2682,-13.5001 583.2682,-6.5001"/>
</g>
</g>
</svg>
