<?xml version="1.0" encoding="UTF-8" standalone="no"?>
<!DOCTYPE svg PUBLIC "-//W3C//DTD SVG 1.1//EN"
 "http://www.w3.org/Graphics/SVG/1.1/DTD/svg11.dtd">
<!-- Generated by graphviz version 2.40.1 (20161225.0304)
 -->
<!-- Title: splitencsegs Pages: 1 -->
<svg width="705pt" height="28pt"
 viewBox="0.00 0.00 705.00 28.00" xmlns="http://www.w3.org/2000/svg" xmlns:xlink="http://www.w3.org/1999/xlink">
<g id="graph0" class="graph" transform="scale(1 1) rotate(0) translate(4 24)">
<title>splitencsegs</title>
<polygon fill="#ffffff" stroke="transparent" points="-4,4 -4,-24 701,-24 701,4 -4,4"/>
<!-- Node1760 -->
<g id="node1" class="node">
<title>Node1760</title>
<polygon fill="#bfbfbf" stroke="#000000" points="0,-.5 0,-19.5 71,-19.5 71,-.5 0,-.5"/>
<text text-anchor="middle" x="35.5" y="-7.5" font-family="Helvetica,sans-Serif" font-size="10.00" fill="#000000">splitencsegs</text>
</g>
<!-- Node1761 -->
<g id="node2" class="node">
<title>Node1761</title>
<g id="a_node2"><a xlink:href="triangle_8cpp.html#a5a654ff6b304f2166c64ffe9183b2995" target="_top" xlink:title="enforcequality">
<polygon fill="#ffffff" stroke="#000000" points="107,-.5 107,-19.5 184,-19.5 184,-.5 107,-.5"/>
<text text-anchor="middle" x="145.5" y="-7.5" font-family="Helvetica,sans-Serif" font-size="10.00" fill="#000000">enforcequality</text>
</a>
</g>
</g>
<!-- Node1760&#45;&gt;Node1761 -->
<g id="edge1" class="edge">
<title>Node1760&#45;&gt;Node1761</title>
<path fill="none" stroke="#191970" d="M81.3765,-10C89.876,-10 98.6746,-10 106.9296,-10"/>
<polygon fill="#191970" stroke="#191970" points="81.2139,-6.5001 71.2138,-10 81.2138,-13.5001 81.2139,-6.5001"/>
</g>
<!-- Node1762 -->
<g id="node3" class="node">
<title>Node1762</title>
<g id="a_node3"><a xlink:href="triangle_8hpp.html#a4ca59bf5fe569672944651426b662ba6" target="_top" xlink:title="Call Triangle. ">
<polygon fill="#ffffff" stroke="#000000" points="220,-.5 220,-19.5 282,-19.5 282,-.5 220,-.5"/>
<text text-anchor="middle" x="251" y="-7.5" font-family="Helvetica,sans-Serif" font-size="10.00" fill="#000000">triangulate</text>
</a>
</g>
</g>
<!-- Node1761&#45;&gt;Node1762 -->
<g id="edge2" class="edge">
<title>Node1761&#45;&gt;Node1762</title>
<path fill="none" stroke="#191970" d="M194.2905,-10C203.0043,-10 211.863,-10 219.9082,-10"/>
<polygon fill="#191970" stroke="#191970" points="194.1853,-6.5001 184.1852,-10 194.1852,-13.5001 194.1853,-6.5001"/>
</g>
<!-- Node1763 -->
<g id="node4" class="node">
<title>Node1763</title>
<g id="a_node4"><a xlink:href="classRiver_1_1Triangle.html#a0dae20b40d446e6009a88543e2c14daf" target="_top" xlink:title="Generate mesh. ">
<polygon fill="#ffffff" stroke="#000000" points="318,-.5 318,-19.5 442,-19.5 442,-.5 318,-.5"/>
<text text-anchor="middle" x="380" y="-7.5" font-family="Helvetica,sans-Serif" font-size="10.00" fill="#000000">River::Triangle::generate</text>
</a>
</g>
</g>
<!-- Node1762&#45;&gt;Node1763 -->
<g id="edge3" class="edge">
<title>Node1762&#45;&gt;Node1763</title>
<path fill="none" stroke="#191970" d="M292.2629,-10C300.4682,-10 309.2527,-10 317.9767,-10"/>
<polygon fill="#191970" stroke="#191970" points="292.2273,-6.5001 282.2273,-10 292.2273,-13.5001 292.2273,-6.5001"/>
</g>
<!-- Node1764 -->
<g id="node5" class="node">
<title>Node1764</title>
<g id="a_node5"><a xlink:href="namespaceRiver.html#af1a3f7c61809dd8032e4ff5920da83cc" target="_top" xlink:title="One step of forward river evolution. ">
<polygon fill="#ffffff" stroke="#000000" points="478,-.5 478,-19.5 623,-19.5 623,-.5 478,-.5"/>
<text text-anchor="middle" x="550.5" y="-7.5" font-family="Helvetica,sans-Serif" font-size="10.00" fill="#000000">River::ForwardRiverEvolution</text>
</a>
</g>
</g>
<!-- Node1763&#45;&gt;Node1764 -->
<g id="edge4" class="edge">
<title>Node1763&#45;&gt;Node1764</title>
<path fill="none" stroke="#191970" d="M452.2431,-10C460.7006,-10 469.333,-10 477.7967,-10"/>
<polygon fill="#191970" stroke="#191970" points="452.0368,-6.5001 442.0367,-10 452.0367,-13.5001 452.0368,-6.5001"/>
</g>
<!-- Node1765 -->
<g id="node6" class="node">
<title>Node1765</title>
<g id="a_node6"><a xlink:href="main_8cpp.html#a0ddf1224851353fc92bfbff6f499fa97" target="_top" xlink:title="Entry point of RiverSim program. ">
<polygon fill="#ffffff" stroke="#000000" points="659,-.5 659,-19.5 697,-19.5 697,-.5 659,-.5"/>
<text text-anchor="middle" x="678" y="-7.5" font-family="Helvetica,sans-Serif" font-size="10.00" fill="#000000">main</text>
</a>
</g>
</g>
<!-- Node1764&#45;&gt;Node1765 -->
<g id="edge5" class="edge">
<title>Node1764&#45;&gt;Node1765</title>
<path fill="none" stroke="#191970" d="M633.2526,-10C642.7338,-10 651.5978,-10 658.8947,-10"/>
<polygon fill="#191970" stroke="#191970" points="633.1886,-6.5001 623.1886,-10 633.1885,-13.5001 633.1886,-6.5001"/>
</g>
</g>
</svg>
