<?xml version="1.0" encoding="UTF-8" standalone="no"?>
<!DOCTYPE svg PUBLIC "-//W3C//DTD SVG 1.1//EN"
 "http://www.w3.org/Graphics/SVG/1.1/DTD/svg11.dtd">
<!-- Generated by graphviz version 2.40.1 (20161225.0304)
 -->
<!-- Title: writepoly Pages: 1 -->
<svg width="271pt" height="104pt"
 viewBox="0.00 0.00 271.00 104.00" xmlns="http://www.w3.org/2000/svg" xmlns:xlink="http://www.w3.org/1999/xlink">
<g id="graph0" class="graph" transform="scale(1 1) rotate(0) translate(4 100)">
<title>writepoly</title>
<polygon fill="#ffffff" stroke="transparent" points="-4,4 -4,-100 267,-100 267,4 -4,4"/>
<!-- Node1840 -->
<g id="node1" class="node">
<title>Node1840</title>
<polygon fill="#bfbfbf" stroke="#000000" points="0,-38.5 0,-57.5 56,-57.5 56,-38.5 0,-38.5"/>
<text text-anchor="middle" x="28" y="-45.5" font-family="Helvetica,sans-Serif" font-size="10.00" fill="#000000">writepoly</text>
</g>
<!-- Node1841 -->
<g id="node2" class="node">
<title>Node1841</title>
<g id="a_node2"><a xlink:href="triangle_8cpp.html#a5f51f1d3957615b2c84a91fd9f5f09bf" target="_top" xlink:title="trimalloc">
<polygon fill="#ffffff" stroke="#000000" points="107,-76.5 107,-95.5 160,-95.5 160,-76.5 107,-76.5"/>
<text text-anchor="middle" x="133.5" y="-83.5" font-family="Helvetica,sans-Serif" font-size="10.00" fill="#000000">trimalloc</text>
</a>
</g>
</g>
<!-- Node1840&#45;&gt;Node1841 -->
<g id="edge1" class="edge">
<title>Node1840&#45;&gt;Node1841</title>
<path fill="none" stroke="#191970" d="M54.6221,-57.589C67.4915,-62.2244 83.1367,-67.8596 97.0895,-72.8853"/>
<polygon fill="#191970" stroke="#191970" points="96.292,-76.3181 106.8864,-76.4141 98.6642,-69.7323 96.292,-76.3181"/>
</g>
<!-- Node1843 -->
<g id="node4" class="node">
<title>Node1843</title>
<g id="a_node4"><a xlink:href="triangle_8cpp.html#ac497210bc9192d88ed80659833ba5f55" target="_top" xlink:title="traversalinit">
<polygon fill="#ffffff" stroke="#000000" points="100,-38.5 100,-57.5 167,-57.5 167,-38.5 100,-38.5"/>
<text text-anchor="middle" x="133.5" y="-45.5" font-family="Helvetica,sans-Serif" font-size="10.00" fill="#000000">traversalinit</text>
</a>
</g>
</g>
<!-- Node1840&#45;&gt;Node1843 -->
<g id="edge3" class="edge">
<title>Node1840&#45;&gt;Node1843</title>
<path fill="none" stroke="#191970" d="M56.2721,-48C66.5528,-48 78.4274,-48 89.7346,-48"/>
<polygon fill="#191970" stroke="#191970" points="89.8971,-51.5001 99.8971,-48 89.8971,-44.5001 89.8971,-51.5001"/>
</g>
<!-- Node1844 -->
<g id="node5" class="node">
<title>Node1844</title>
<g id="a_node5"><a xlink:href="triangle_8cpp.html#ad3192f7e5f00583e8041fdd4f5f1efb0" target="_top" xlink:title="subsegtraverse">
<polygon fill="#ffffff" stroke="#000000" points="92,-.5 92,-19.5 175,-19.5 175,-.5 92,-.5"/>
<text text-anchor="middle" x="133.5" y="-7.5" font-family="Helvetica,sans-Serif" font-size="10.00" fill="#000000">subsegtraverse</text>
</a>
</g>
</g>
<!-- Node1840&#45;&gt;Node1844 -->
<g id="edge4" class="edge">
<title>Node1840&#45;&gt;Node1844</title>
<path fill="none" stroke="#191970" d="M54.6221,-38.411C67.4915,-33.7756 83.1367,-28.1404 97.0895,-23.1147"/>
<polygon fill="#191970" stroke="#191970" points="98.6642,-26.2677 106.8864,-19.5859 96.292,-19.6819 98.6642,-26.2677"/>
</g>
<!-- Node1842 -->
<g id="node3" class="node">
<title>Node1842</title>
<g id="a_node3"><a xlink:href="triangle_8cpp.html#a648abfc70d158485620dbcb9aa990178" target="_top" xlink:title="triexit">
<polygon fill="#ffffff" stroke="#000000" points="216.5,-76.5 216.5,-95.5 257.5,-95.5 257.5,-76.5 216.5,-76.5"/>
<text text-anchor="middle" x="237" y="-83.5" font-family="Helvetica,sans-Serif" font-size="10.00" fill="#000000">triexit</text>
</a>
</g>
</g>
<!-- Node1841&#45;&gt;Node1842 -->
<g id="edge2" class="edge">
<title>Node1841&#45;&gt;Node1842</title>
<path fill="none" stroke="#191970" d="M160.1538,-86C174.2273,-86 191.5681,-86 206.2133,-86"/>
<polygon fill="#191970" stroke="#191970" points="206.3157,-89.5001 216.3156,-86 206.3156,-82.5001 206.3157,-89.5001"/>
</g>
<!-- Node1845 -->
<g id="node6" class="node">
<title>Node1845</title>
<g id="a_node6"><a xlink:href="triangle_8cpp.html#a908560980328e10c897c5c34bb733e9d" target="_top" xlink:title="traverse">
<polygon fill="#ffffff" stroke="#000000" points="211,-.5 211,-19.5 263,-19.5 263,-.5 211,-.5"/>
<text text-anchor="middle" x="237" y="-7.5" font-family="Helvetica,sans-Serif" font-size="10.00" fill="#000000">traverse</text>
</a>
</g>
</g>
<!-- Node1844&#45;&gt;Node1845 -->
<g id="edge5" class="edge">
<title>Node1844&#45;&gt;Node1845</title>
<path fill="none" stroke="#191970" d="M175.001,-10C183.5424,-10 192.4717,-10 200.8074,-10"/>
<polygon fill="#191970" stroke="#191970" points="200.9745,-13.5001 210.9744,-10 200.9744,-6.5001 200.9745,-13.5001"/>
</g>
</g>
</svg>
