<?xml version="1.0" encoding="UTF-8" standalone="no"?>
<!DOCTYPE svg PUBLIC "-//W3C//DTD SVG 1.1//EN"
 "http://www.w3.org/Graphics/SVG/1.1/DTD/svg11.dtd">
<!-- Generated by graphviz version 2.40.1 (20161225.0304)
 -->
<!-- Title: enqueuebadtri Pages: 1 -->
<svg width="809pt" height="237pt"
 viewBox="0.00 0.00 809.00 237.00" xmlns="http://www.w3.org/2000/svg" xmlns:xlink="http://www.w3.org/1999/xlink">
<g id="graph0" class="graph" transform="scale(1 1) rotate(0) translate(4 233)">
<title>enqueuebadtri</title>
<polygon fill="#ffffff" stroke="transparent" points="-4,4 -4,-233 805,-233 805,4 -4,4"/>
<!-- Node914 -->
<g id="node1" class="node">
<title>Node914</title>
<polygon fill="#bfbfbf" stroke="#000000" points="0,-57.5 0,-76.5 77,-76.5 77,-57.5 0,-57.5"/>
<text text-anchor="middle" x="38.5" y="-64.5" font-family="Helvetica,sans-Serif" font-size="10.00" fill="#000000">enqueuebadtri</text>
</g>
<!-- Node915 -->
<g id="node2" class="node">
<title>Node915</title>
<g id="a_node2"><a xlink:href="triangle_8cpp.html#a816cae4d440df52b7bc162b05f92cc75" target="_top" xlink:title="testtriangle">
<polygon fill="#ffffff" stroke="#000000" points="113,-57.5 113,-76.5 178,-76.5 178,-57.5 113,-57.5"/>
<text text-anchor="middle" x="145.5" y="-64.5" font-family="Helvetica,sans-Serif" font-size="10.00" fill="#000000">testtriangle</text>
</a>
</g>
</g>
<!-- Node914&#45;&gt;Node915 -->
<g id="edge1" class="edge">
<title>Node914&#45;&gt;Node915</title>
<path fill="none" stroke="#191970" d="M87.219,-67C95.9281,-67 104.8076,-67 112.9243,-67"/>
<polygon fill="#191970" stroke="#191970" points="87.1295,-63.5001 77.1295,-67 87.1294,-70.5001 87.1295,-63.5001"/>
</g>
<!-- Node916 -->
<g id="node3" class="node">
<title>Node916</title>
<g id="a_node3"><a xlink:href="triangle_8cpp.html#a2ede94743503e369e9b1c6c2a0ac9f7f" target="_top" xlink:title="insertvertex">
<polygon fill="#ffffff" stroke="#000000" points="227.5,-114.5 227.5,-133.5 295.5,-133.5 295.5,-114.5 227.5,-114.5"/>
<text text-anchor="middle" x="261.5" y="-121.5" font-family="Helvetica,sans-Serif" font-size="10.00" fill="#000000">insertvertex</text>
</a>
</g>
</g>
<!-- Node915&#45;&gt;Node916 -->
<g id="edge2" class="edge">
<title>Node915&#45;&gt;Node916</title>
<path fill="none" stroke="#191970" d="M170.2511,-81.7207C183.0994,-89.107 199.1728,-97.9563 214,-105 220.8994,-108.2776 228.5238,-111.4973 235.6075,-114.3281"/>
<polygon fill="#191970" stroke="#191970" points="171.9334,-78.6502 161.5296,-76.6476 168.4138,-84.701 171.9334,-78.6502"/>
</g>
<!-- Node930 -->
<g id="node12" class="node">
<title>Node930</title>
<g id="a_node12"><a xlink:href="triangle_8cpp.html#a8ab6fa4f05809e4cb6838ba724de2f88" target="_top" xlink:title="triangulatepolygon">
<polygon fill="#ffffff" stroke="#000000" points="214,-76.5 214,-95.5 309,-95.5 309,-76.5 214,-76.5"/>
<text text-anchor="middle" x="261.5" y="-83.5" font-family="Helvetica,sans-Serif" font-size="10.00" fill="#000000">triangulatepolygon</text>
</a>
</g>
</g>
<!-- Node915&#45;&gt;Node930 -->
<g id="edge15" class="edge">
<title>Node915&#45;&gt;Node930</title>
<path fill="none" stroke="#191970" d="M188.104,-73.9782C196.5209,-75.3569 205.4041,-76.8119 213.9719,-78.2152"/>
<polygon fill="#191970" stroke="#191970" points="188.5554,-70.5056 178.1212,-72.3431 187.4239,-77.4136 188.5554,-70.5056"/>
</g>
<!-- Node931 -->
<g id="node13" class="node">
<title>Node931</title>
<g id="a_node13"><a xlink:href="triangle_8cpp.html#a9a6911e4ef926cd4546bb41819b1c8c5" target="_top" xlink:title="deletevertex">
<polygon fill="#ffffff" stroke="#000000" points="362,-38.5 362,-57.5 432,-57.5 432,-38.5 362,-38.5"/>
<text text-anchor="middle" x="397" y="-45.5" font-family="Helvetica,sans-Serif" font-size="10.00" fill="#000000">deletevertex</text>
</a>
</g>
</g>
<!-- Node915&#45;&gt;Node931 -->
<g id="edge18" class="edge">
<title>Node915&#45;&gt;Node931</title>
<path fill="none" stroke="#191970" d="M188.3608,-63.762C237.1978,-60.0725 316.1113,-54.1109 361.6014,-50.6743"/>
<polygon fill="#191970" stroke="#191970" points="187.8293,-60.2921 178.1214,-64.5356 188.3567,-67.2722 187.8293,-60.2921"/>
</g>
<!-- Node932 -->
<g id="node14" class="node">
<title>Node932</title>
<g id="a_node14"><a xlink:href="triangle_8cpp.html#aff72cd32f2fdfedbedd4270ab70f212d" target="_top" xlink:title="tallyfaces">
<polygon fill="#ffffff" stroke="#000000" points="232,-.5 232,-19.5 291,-19.5 291,-.5 232,-.5"/>
<text text-anchor="middle" x="261.5" y="-7.5" font-family="Helvetica,sans-Serif" font-size="10.00" fill="#000000">tallyfaces</text>
</a>
</g>
</g>
<!-- Node915&#45;&gt;Node932 -->
<g id="edge19" class="edge">
<title>Node915&#45;&gt;Node932</title>
<path fill="none" stroke="#191970" d="M174.0669,-52.9628C195.2014,-42.5778 223.4299,-28.7069 242.0209,-19.5716"/>
<polygon fill="#191970" stroke="#191970" points="172.3472,-49.908 164.9158,-57.4595 175.4344,-56.1906 172.3472,-49.908"/>
</g>
<!-- Node917 -->
<g id="node4" class="node">
<title>Node917</title>
<g id="a_node4"><a xlink:href="triangle_8cpp.html#a4e3735a2f4c1fa18deb1a2e66aeda7bd" target="_top" xlink:title="undovertex">
<polygon fill="#ffffff" stroke="#000000" points="364.5,-114.5 364.5,-133.5 429.5,-133.5 429.5,-114.5 364.5,-114.5"/>
<text text-anchor="middle" x="397" y="-121.5" font-family="Helvetica,sans-Serif" font-size="10.00" fill="#000000">undovertex</text>
</a>
</g>
</g>
<!-- Node916&#45;&gt;Node917 -->
<g id="edge3" class="edge">
<title>Node916&#45;&gt;Node917</title>
<path fill="none" stroke="#191970" d="M305.9183,-124C324.9227,-124 346.717,-124 364.2208,-124"/>
<polygon fill="#191970" stroke="#191970" points="305.6924,-120.5001 295.6924,-124 305.6923,-127.5001 305.6924,-120.5001"/>
</g>
<!-- Node918 -->
<g id="node5" class="node">
<title>Node918</title>
<g id="a_node5"><a xlink:href="triangle_8cpp.html#a48fc63d369d988c08cbe8ab40f0b8af5" target="_top" xlink:title="splittriangle">
<polygon fill="#ffffff" stroke="#000000" points="491,-114.5 491,-133.5 557,-133.5 557,-114.5 491,-114.5"/>
<text text-anchor="middle" x="524" y="-121.5" font-family="Helvetica,sans-Serif" font-size="10.00" fill="#000000">splittriangle</text>
</a>
</g>
</g>
<!-- Node916&#45;&gt;Node918 -->
<g id="edge14" class="edge">
<title>Node916&#45;&gt;Node918</title>
<path fill="none" stroke="#191970" d="M305.2237,-135.8839C317.9504,-138.8149 331.9433,-141.5333 345,-143 390.9333,-148.16 403.133,-148.7195 449,-143 463.9284,-141.1385 480.1499,-137.2691 493.6757,-133.505"/>
<polygon fill="#191970" stroke="#191970" points="305.8715,-132.44 295.3306,-133.5075 304.2365,-139.2464 305.8715,-132.44"/>
</g>
<!-- Node924 -->
<g id="node7" class="node">
<title>Node924</title>
<g id="a_node7"><a xlink:href="triangle_8cpp.html#a496c50bca0cf0c214a0204419c3b181a" target="_top" xlink:title="segmentintersection">
<polygon fill="#ffffff" stroke="#000000" points="345,-190.5 345,-209.5 449,-209.5 449,-190.5 345,-190.5"/>
<text text-anchor="middle" x="397" y="-197.5" font-family="Helvetica,sans-Serif" font-size="10.00" fill="#000000">segmentintersection</text>
</a>
</g>
</g>
<!-- Node916&#45;&gt;Node924 -->
<g id="edge6" class="edge">
<title>Node916&#45;&gt;Node924</title>
<path fill="none" stroke="#191970" d="M284.1146,-139.1533C300.6598,-149.9736 323.8213,-164.5755 345,-176 354.5385,-181.1454 365.3814,-186.2601 374.6888,-190.4375"/>
<polygon fill="#191970" stroke="#191970" points="285.9328,-136.1599 275.658,-133.5753 282.0784,-142.0032 285.9328,-136.1599"/>
</g>
<!-- Node929 -->
<g id="node11" class="node">
<title>Node929</title>
<g id="a_node11"><a xlink:href="triangle_8cpp.html#adca37fc9e90f78c9ae794662de5428bd" target="_top" xlink:title="splitencsegs">
<polygon fill="#ffffff" stroke="#000000" points="488.5,-57.5 488.5,-76.5 559.5,-76.5 559.5,-57.5 488.5,-57.5"/>
<text text-anchor="middle" x="524" y="-64.5" font-family="Helvetica,sans-Serif" font-size="10.00" fill="#000000">splitencsegs</text>
</a>
</g>
</g>
<!-- Node916&#45;&gt;Node929 -->
<g id="edge12" class="edge">
<title>Node916&#45;&gt;Node929</title>
<path fill="none" stroke="#191970" d="M305.5124,-113.8591C318.2444,-110.9597 332.1678,-107.8219 345,-105 394.6441,-94.083 452.155,-81.9685 488.3069,-74.4178"/>
<polygon fill="#191970" stroke="#191970" points="304.5704,-110.484 295.6006,-116.1226 306.1289,-117.3084 304.5704,-110.484"/>
</g>
<!-- Node917&#45;&gt;Node918 -->
<g id="edge4" class="edge">
<title>Node917&#45;&gt;Node918</title>
<path fill="none" stroke="#191970" d="M439.7806,-124C456.4847,-124 475.3371,-124 490.9638,-124"/>
<polygon fill="#191970" stroke="#191970" points="439.7057,-120.5001 429.7057,-124 439.7056,-127.5001 439.7057,-120.5001"/>
</g>
<!-- Node919 -->
<g id="node6" class="node">
<title>Node919</title>
<g id="a_node6"><a xlink:href="triangle_8cpp.html#a5a654ff6b304f2166c64ffe9183b2995" target="_top" xlink:title="enforcequality">
<polygon fill="#ffffff" stroke="#ff0000" points="604.5,-57.5 604.5,-76.5 681.5,-76.5 681.5,-57.5 604.5,-57.5"/>
<text text-anchor="middle" x="643" y="-64.5" font-family="Helvetica,sans-Serif" font-size="10.00" fill="#000000">enforcequality</text>
</a>
</g>
</g>
<!-- Node918&#45;&gt;Node919 -->
<g id="edge5" class="edge">
<title>Node918&#45;&gt;Node919</title>
<path fill="none" stroke="#191970" d="M553.0132,-110.1029C574.7257,-99.7028 603.8594,-85.748 623.0171,-76.5716"/>
<polygon fill="#191970" stroke="#191970" points="551.4247,-106.9829 543.9179,-114.4595 554.4487,-113.2961 551.4247,-106.9829"/>
</g>
<!-- Node925 -->
<g id="node8" class="node">
<title>Node925</title>
<g id="a_node8"><a xlink:href="triangle_8cpp.html#ae9d4ed09a0fd07959568ba5f86cc4d0c" target="_top" xlink:title="scoutsegment">
<polygon fill="#ffffff" stroke="#000000" points="485,-171.5 485,-190.5 563,-190.5 563,-171.5 485,-171.5"/>
<text text-anchor="middle" x="524" y="-178.5" font-family="Helvetica,sans-Serif" font-size="10.00" fill="#000000">scoutsegment</text>
</a>
</g>
</g>
<!-- Node924&#45;&gt;Node925 -->
<g id="edge7" class="edge">
<title>Node924&#45;&gt;Node925</title>
<path fill="none" stroke="#191970" d="M459.1725,-190.6986C467.8652,-189.3981 476.5912,-188.0927 484.6983,-186.8798"/>
<polygon fill="#191970" stroke="#191970" points="458.3942,-187.276 449.0222,-192.2172 459.43,-194.1989 458.3942,-187.276"/>
</g>
<!-- Node926 -->
<g id="node9" class="node">
<title>Node926</title>
<g id="a_node9"><a xlink:href="triangle_8cpp.html#aded205ef0849b44d2a587f53fd720618" target="_top" xlink:title="constrainededge">
<polygon fill="#ffffff" stroke="#000000" points="599,-209.5 599,-228.5 687,-228.5 687,-209.5 599,-209.5"/>
<text text-anchor="middle" x="643" y="-216.5" font-family="Helvetica,sans-Serif" font-size="10.00" fill="#000000">constrainededge</text>
</a>
</g>
</g>
<!-- Node924&#45;&gt;Node926 -->
<g id="edge11" class="edge">
<title>Node924&#45;&gt;Node926</title>
<path fill="none" stroke="#191970" d="M459.3549,-204.816C502.8512,-208.1755 559.8425,-212.5773 598.7271,-215.5806"/>
<polygon fill="#191970" stroke="#191970" points="459.4101,-201.31 449.1703,-204.0294 458.871,-208.2892 459.4101,-201.31"/>
</g>
<!-- Node925&#45;&gt;Node926 -->
<g id="edge8" class="edge">
<title>Node925&#45;&gt;Node926</title>
<path fill="none" stroke="#191970" d="M563.7098,-193.6804C579.7886,-198.8148 598.0433,-204.6441 612.9809,-209.4141"/>
<polygon fill="#191970" stroke="#191970" points="564.6195,-190.2969 554.0287,-190.589 562.4901,-196.9652 564.6195,-190.2969"/>
</g>
<!-- Node927 -->
<g id="node10" class="node">
<title>Node927</title>
<g id="a_node10"><a xlink:href="triangle_8cpp.html#ae367b20189056436da2a1b633b392703" target="_top" xlink:title="insertsegment">
<polygon fill="#ffffff" stroke="#ff0000" points="723,-190.5 723,-209.5 801,-209.5 801,-190.5 723,-190.5"/>
<text text-anchor="middle" x="762" y="-197.5" font-family="Helvetica,sans-Serif" font-size="10.00" fill="#000000">insertsegment</text>
</a>
</g>
</g>
<!-- Node925&#45;&gt;Node927 -->
<g id="edge10" class="edge">
<title>Node925&#45;&gt;Node927</title>
<path fill="none" stroke="#191970" d="M573.0201,-184.9134C617.4101,-188.4571 681.9506,-193.6095 722.9443,-196.8821"/>
<polygon fill="#191970" stroke="#191970" points="573.2812,-181.4232 563.0344,-184.1162 572.7241,-188.401 573.2812,-181.4232"/>
</g>
<!-- Node926&#45;&gt;Node927 -->
<g id="edge9" class="edge">
<title>Node926&#45;&gt;Node927</title>
<path fill="none" stroke="#191970" d="M697.2778,-210.3338C705.862,-208.9632 714.5922,-207.5693 722.7464,-206.2674"/>
<polygon fill="#191970" stroke="#191970" points="696.6343,-206.8921 687.3112,-211.9251 697.738,-213.8046 696.6343,-206.8921"/>
</g>
<!-- Node929&#45;&gt;Node919 -->
<g id="edge13" class="edge">
<title>Node929&#45;&gt;Node919</title>
<path fill="none" stroke="#191970" d="M569.9205,-67C581.3163,-67 593.414,-67 604.4181,-67"/>
<polygon fill="#191970" stroke="#191970" points="569.704,-63.5001 559.7039,-67 569.7039,-70.5001 569.704,-63.5001"/>
</g>
<!-- Node930&#45;&gt;Node931 -->
<g id="edge16" class="edge">
<title>Node930&#45;&gt;Node931</title>
<path fill="none" stroke="#191970" d="M305.4246,-73.6817C324.0414,-68.4607 345.4087,-62.4684 362.8186,-57.5859"/>
<polygon fill="#191970" stroke="#191970" points="304.3758,-70.3407 295.6924,-76.411 306.266,-77.0807 304.3758,-70.3407"/>
</g>
<!-- Node931&#45;&gt;Node929 -->
<g id="edge17" class="edge">
<title>Node931&#45;&gt;Node929</title>
<path fill="none" stroke="#191970" d="M442.2039,-54.7628C457.3021,-57.0216 473.909,-59.5061 488.1916,-61.6428"/>
<polygon fill="#191970" stroke="#191970" points="442.4473,-51.2603 432.0395,-53.2421 441.4115,-58.1833 442.4473,-51.2603"/>
</g>
<!-- Node932&#45;&gt;Node919 -->
<g id="edge20" class="edge">
<title>Node932&#45;&gt;Node919</title>
<path fill="none" stroke="#191970" d="M301.265,-13.2841C339.2786,-16.5996 398.1629,-22.195 449,-29 499.9114,-35.815 512.6498,-37.8373 563,-48 576.8531,-50.7961 591.9558,-54.2711 605.2699,-57.4817"/>
<polygon fill="#191970" stroke="#191970" points="301.3842,-9.7815 291.1207,-12.4103 300.7835,-16.7556 301.3842,-9.7815"/>
</g>
</g>
</svg>
