<?xml version="1.0" encoding="UTF-8" standalone="no"?>
<!DOCTYPE svg PUBLIC "-//W3C//DTD SVG 1.1//EN"
 "http://www.w3.org/Graphics/SVG/1.1/DTD/svg11.dtd">
<!-- Generated by graphviz version 2.40.1 (20161225.0304)
 -->
<!-- Title: insertvertex Pages: 1 -->
<svg width="935pt" height="180pt"
 viewBox="0.00 0.00 935.00 180.00" xmlns="http://www.w3.org/2000/svg" xmlns:xlink="http://www.w3.org/1999/xlink">
<g id="graph0" class="graph" transform="scale(1 1) rotate(0) translate(4 176)">
<title>insertvertex</title>
<polygon fill="#ffffff" stroke="transparent" points="-4,4 -4,-176 931,-176 931,4 -4,4"/>
<!-- Node1113 -->
<g id="node1" class="node">
<title>Node1113</title>
<polygon fill="#bfbfbf" stroke="#000000" points="0,-95.5 0,-114.5 68,-114.5 68,-95.5 0,-95.5"/>
<text text-anchor="middle" x="34" y="-102.5" font-family="Helvetica,sans-Serif" font-size="10.00" fill="#000000">insertvertex</text>
</g>
<!-- Node1114 -->
<g id="node2" class="node">
<title>Node1114</title>
<g id="a_node2"><a xlink:href="triangle_8cpp.html#a4e3735a2f4c1fa18deb1a2e66aeda7bd" target="_top" xlink:title="undovertex">
<polygon fill="#ffffff" stroke="#000000" points="123.5,-152.5 123.5,-171.5 188.5,-171.5 188.5,-152.5 123.5,-152.5"/>
<text text-anchor="middle" x="156" y="-159.5" font-family="Helvetica,sans-Serif" font-size="10.00" fill="#000000">undovertex</text>
</a>
</g>
</g>
<!-- Node1113&#45;&gt;Node1114 -->
<g id="edge1" class="edge">
<title>Node1113&#45;&gt;Node1114</title>
<path fill="none" stroke="#191970" d="M63.2758,-118.8662C75.8072,-124.7848 90.6103,-131.754 104,-138 114.2723,-142.7918 125.7076,-148.0751 135.2331,-152.4621"/>
<polygon fill="#191970" stroke="#191970" points="64.7334,-115.6839 54.1968,-114.5744 61.7418,-122.0125 64.7334,-115.6839"/>
</g>
<!-- Node1115 -->
<g id="node3" class="node">
<title>Node1115</title>
<g id="a_node3"><a xlink:href="triangle_8cpp.html#a48fc63d369d988c08cbe8ab40f0b8af5" target="_top" xlink:title="splittriangle">
<polygon fill="#ffffff" stroke="#000000" points="250,-114.5 250,-133.5 316,-133.5 316,-114.5 250,-114.5"/>
<text text-anchor="middle" x="283" y="-121.5" font-family="Helvetica,sans-Serif" font-size="10.00" fill="#000000">splittriangle</text>
</a>
</g>
</g>
<!-- Node1113&#45;&gt;Node1115 -->
<g id="edge16" class="edge">
<title>Node1113&#45;&gt;Node1115</title>
<path fill="none" stroke="#191970" d="M78.1141,-108.3661C127.2215,-112.1133 205.4778,-118.0847 249.7084,-121.4597"/>
<polygon fill="#191970" stroke="#191970" points="78.3376,-104.8731 68.1003,-107.602 77.805,-111.8528 78.3376,-104.8731"/>
</g>
<!-- Node1121 -->
<g id="node7" class="node">
<title>Node1121</title>
<g id="a_node7"><a xlink:href="triangle_8cpp.html#a496c50bca0cf0c214a0204419c3b181a" target="_top" xlink:title="segmentintersection">
<polygon fill="#ffffff" stroke="#000000" points="104,-38.5 104,-57.5 208,-57.5 208,-38.5 104,-38.5"/>
<text text-anchor="middle" x="156" y="-45.5" font-family="Helvetica,sans-Serif" font-size="10.00" fill="#000000">segmentintersection</text>
</a>
</g>
</g>
<!-- Node1113&#45;&gt;Node1121 -->
<g id="edge6" class="edge">
<title>Node1113&#45;&gt;Node1121</title>
<path fill="none" stroke="#191970" d="M63.2758,-91.1338C75.8072,-85.2152 90.6103,-78.246 104,-72 114.2723,-67.2082 125.7076,-61.9249 135.2331,-57.5379"/>
<polygon fill="#191970" stroke="#191970" points="61.7418,-87.9875 54.1968,-95.4256 64.7334,-94.3161 61.7418,-87.9875"/>
</g>
<!-- Node1126 -->
<g id="node12" class="node">
<title>Node1126</title>
<g id="a_node12"><a xlink:href="triangle_8cpp.html#adca37fc9e90f78c9ae794662de5428bd" target="_top" xlink:title="splitencsegs">
<polygon fill="#ffffff" stroke="#000000" points="247.5,-76.5 247.5,-95.5 318.5,-95.5 318.5,-76.5 247.5,-76.5"/>
<text text-anchor="middle" x="283" y="-83.5" font-family="Helvetica,sans-Serif" font-size="10.00" fill="#000000">splitencsegs</text>
</a>
</g>
</g>
<!-- Node1113&#45;&gt;Node1126 -->
<g id="edge14" class="edge">
<title>Node1113&#45;&gt;Node1126</title>
<path fill="none" stroke="#191970" d="M78.2421,-101.6241C126.4773,-97.9435 202.7247,-92.1254 247.3006,-88.7241"/>
<polygon fill="#191970" stroke="#191970" points="77.805,-98.1472 68.1003,-102.398 78.3376,-105.1269 77.805,-98.1472"/>
</g>
<!-- Node1114&#45;&gt;Node1115 -->
<g id="edge2" class="edge">
<title>Node1114&#45;&gt;Node1115</title>
<path fill="none" stroke="#191970" d="M197.8943,-149.4647C215.1712,-144.2952 234.8707,-138.4009 250.9628,-133.5859"/>
<polygon fill="#191970" stroke="#191970" points="196.6245,-146.1912 188.0475,-152.411 198.6311,-152.8975 196.6245,-146.1912"/>
</g>
<!-- Node1116 -->
<g id="node4" class="node">
<title>Node1116</title>
<g id="a_node4"><a xlink:href="triangle_8cpp.html#a5a654ff6b304f2166c64ffe9183b2995" target="_top" xlink:title="enforcequality">
<polygon fill="#ffffff" stroke="#000000" points="363.5,-76.5 363.5,-95.5 440.5,-95.5 440.5,-76.5 363.5,-76.5"/>
<text text-anchor="middle" x="402" y="-83.5" font-family="Helvetica,sans-Serif" font-size="10.00" fill="#000000">enforcequality</text>
</a>
</g>
</g>
<!-- Node1115&#45;&gt;Node1116 -->
<g id="edge3" class="edge">
<title>Node1115&#45;&gt;Node1116</title>
<path fill="none" stroke="#191970" d="M322.7098,-111.3196C338.7886,-106.1852 357.0433,-100.3559 371.9809,-95.5859"/>
<polygon fill="#191970" stroke="#191970" points="321.4901,-108.0348 313.0287,-114.411 323.6195,-114.7031 321.4901,-108.0348"/>
</g>
<!-- Node1117 -->
<g id="node5" class="node">
<title>Node1117</title>
<g id="a_node5"><a xlink:href="triangle_8hpp.html#a4ca59bf5fe569672944651426b662ba6" target="_top" xlink:title="Call Triangle. ">
<polygon fill="#ffffff" stroke="#000000" points="705,-57.5 705,-76.5 767,-76.5 767,-57.5 705,-57.5"/>
<text text-anchor="middle" x="736" y="-64.5" font-family="Helvetica,sans-Serif" font-size="10.00" fill="#000000">triangulate</text>
</a>
</g>
</g>
<!-- Node1116&#45;&gt;Node1117 -->
<g id="edge4" class="edge">
<title>Node1116&#45;&gt;Node1117</title>
<path fill="none" stroke="#191970" d="M450.902,-83.2182C520.5217,-79.2577 646.2267,-72.1069 704.6174,-68.7852"/>
<polygon fill="#191970" stroke="#191970" points="450.4254,-79.7395 440.6403,-83.8019 450.823,-86.7282 450.4254,-79.7395"/>
</g>
<!-- Node1118 -->
<g id="node6" class="node">
<title>Node1118</title>
<g id="a_node6"><a xlink:href="classRiver_1_1Triangle.html#a0dae20b40d446e6009a88543e2c14daf" target="_top" xlink:title="Generate mesh. ">
<polygon fill="#ffffff" stroke="#ff0000" points="803,-57.5 803,-76.5 927,-76.5 927,-57.5 803,-57.5"/>
<text text-anchor="middle" x="865" y="-64.5" font-family="Helvetica,sans-Serif" font-size="10.00" fill="#000000">River::Triangle::generate</text>
</a>
</g>
</g>
<!-- Node1117&#45;&gt;Node1118 -->
<g id="edge5" class="edge">
<title>Node1117&#45;&gt;Node1118</title>
<path fill="none" stroke="#191970" d="M777.2629,-67C785.4682,-67 794.2527,-67 802.9767,-67"/>
<polygon fill="#191970" stroke="#191970" points="777.2273,-63.5001 767.2273,-67 777.2273,-70.5001 777.2273,-63.5001"/>
</g>
<!-- Node1122 -->
<g id="node8" class="node">
<title>Node1122</title>
<g id="a_node8"><a xlink:href="triangle_8cpp.html#ae9d4ed09a0fd07959568ba5f86cc4d0c" target="_top" xlink:title="scoutsegment">
<polygon fill="#ffffff" stroke="#000000" points="244,-38.5 244,-57.5 322,-57.5 322,-38.5 244,-38.5"/>
<text text-anchor="middle" x="283" y="-45.5" font-family="Helvetica,sans-Serif" font-size="10.00" fill="#000000">scoutsegment</text>
</a>
</g>
</g>
<!-- Node1121&#45;&gt;Node1122 -->
<g id="edge7" class="edge">
<title>Node1121&#45;&gt;Node1122</title>
<path fill="none" stroke="#191970" d="M218.1725,-48C226.8652,-48 235.5912,-48 243.6983,-48"/>
<polygon fill="#191970" stroke="#191970" points="218.0222,-44.5001 208.0222,-48 218.0222,-51.5001 218.0222,-44.5001"/>
</g>
<!-- Node1123 -->
<g id="node9" class="node">
<title>Node1123</title>
<g id="a_node9"><a xlink:href="triangle_8cpp.html#aded205ef0849b44d2a587f53fd720618" target="_top" xlink:title="constrainededge">
<polygon fill="#ffffff" stroke="#000000" points="358,-.5 358,-19.5 446,-19.5 446,-.5 358,-.5"/>
<text text-anchor="middle" x="402" y="-7.5" font-family="Helvetica,sans-Serif" font-size="10.00" fill="#000000">constrainededge</text>
</a>
</g>
</g>
<!-- Node1121&#45;&gt;Node1123 -->
<g id="edge13" class="edge">
<title>Node1121&#45;&gt;Node1123</title>
<path fill="none" stroke="#191970" d="M206.6108,-36.231C218.8115,-33.6273 231.837,-31.0398 244,-29 282.283,-22.5796 326.1359,-17.4836 357.9137,-14.1921"/>
<polygon fill="#191970" stroke="#191970" points="205.6207,-32.8644 196.5933,-38.4102 207.1088,-39.7044 205.6207,-32.8644"/>
</g>
<!-- Node1122&#45;&gt;Node1123 -->
<g id="edge8" class="edge">
<title>Node1122&#45;&gt;Node1123</title>
<path fill="none" stroke="#191970" d="M322.7098,-35.3196C338.7886,-30.1852 357.0433,-24.3559 371.9809,-19.5859"/>
<polygon fill="#191970" stroke="#191970" points="321.4901,-32.0348 313.0287,-38.411 323.6195,-38.7031 321.4901,-32.0348"/>
</g>
<!-- Node1124 -->
<g id="node10" class="node">
<title>Node1124</title>
<g id="a_node10"><a xlink:href="triangle_8cpp.html#ae367b20189056436da2a1b633b392703" target="_top" xlink:title="insertsegment">
<polygon fill="#ffffff" stroke="#000000" points="482,-38.5 482,-57.5 560,-57.5 560,-38.5 482,-38.5"/>
<text text-anchor="middle" x="521" y="-45.5" font-family="Helvetica,sans-Serif" font-size="10.00" fill="#000000">insertsegment</text>
</a>
</g>
</g>
<!-- Node1122&#45;&gt;Node1124 -->
<g id="edge12" class="edge">
<title>Node1122&#45;&gt;Node1124</title>
<path fill="none" stroke="#191970" d="M332.3008,-48C376.6817,-48 441.0369,-48 481.9443,-48"/>
<polygon fill="#191970" stroke="#191970" points="332.0344,-44.5001 322.0344,-48 332.0343,-51.5001 332.0344,-44.5001"/>
</g>
<!-- Node1123&#45;&gt;Node1124 -->
<g id="edge9" class="edge">
<title>Node1123&#45;&gt;Node1124</title>
<path fill="none" stroke="#191970" d="M441.7098,-22.6804C457.7886,-27.8148 476.0433,-33.6441 490.9809,-38.4141"/>
<polygon fill="#191970" stroke="#191970" points="442.6195,-19.2969 432.0287,-19.589 440.4901,-25.9652 442.6195,-19.2969"/>
</g>
<!-- Node1125 -->
<g id="node11" class="node">
<title>Node1125</title>
<g id="a_node11"><a xlink:href="triangle_8cpp.html#a77e7549672629c06d5926b7edcafc337" target="_top" xlink:title="formskeleton">
<polygon fill="#ffffff" stroke="#000000" points="596,-38.5 596,-57.5 669,-57.5 669,-38.5 596,-38.5"/>
<text text-anchor="middle" x="632.5" y="-45.5" font-family="Helvetica,sans-Serif" font-size="10.00" fill="#000000">formskeleton</text>
</a>
</g>
</g>
<!-- Node1124&#45;&gt;Node1125 -->
<g id="edge10" class="edge">
<title>Node1124&#45;&gt;Node1125</title>
<path fill="none" stroke="#191970" d="M570.5197,-48C579.0128,-48 587.7012,-48 595.7832,-48"/>
<polygon fill="#191970" stroke="#191970" points="570.3108,-44.5001 560.3107,-48 570.3107,-51.5001 570.3108,-44.5001"/>
</g>
<!-- Node1125&#45;&gt;Node1117 -->
<g id="edge11" class="edge">
<title>Node1125&#45;&gt;Node1117</title>
<path fill="none" stroke="#191970" d="M679.2894,-56.5894C687.9375,-58.1769 696.772,-59.7987 704.815,-61.2752"/>
<polygon fill="#191970" stroke="#191970" points="679.7493,-53.1154 669.2817,-54.7522 678.4853,-60.0003 679.7493,-53.1154"/>
</g>
<!-- Node1126&#45;&gt;Node1116 -->
<g id="edge15" class="edge">
<title>Node1126&#45;&gt;Node1116</title>
<path fill="none" stroke="#191970" d="M328.9205,-86C340.3163,-86 352.414,-86 363.4181,-86"/>
<polygon fill="#191970" stroke="#191970" points="328.704,-82.5001 318.7039,-86 328.7039,-89.5001 328.704,-82.5001"/>
</g>
</g>
</svg>
