<?xml version="1.0" encoding="UTF-8" standalone="no"?>
<!DOCTYPE svg PUBLIC "-//W3C//DTD SVG 1.1//EN"
 "http://www.w3.org/Graphics/SVG/1.1/DTD/svg11.dtd">
<!-- Generated by graphviz version 2.40.1 (20161225.0304)
 -->
<!-- Title: fast_expansion_sum_zeroelim Pages: 1 -->
<svg width="1269pt" height="560pt"
 viewBox="0.00 0.00 1269.00 560.00" xmlns="http://www.w3.org/2000/svg" xmlns:xlink="http://www.w3.org/1999/xlink">
<g id="graph0" class="graph" transform="scale(1 1) rotate(0) translate(4 556)">
<title>fast_expansion_sum_zeroelim</title>
<polygon fill="#ffffff" stroke="transparent" points="-4,4 -4,-556 1265,-556 1265,4 -4,4"/>
<!-- Node562 -->
<g id="node1" class="node">
<title>Node562</title>
<polygon fill="#bfbfbf" stroke="#000000" points="0,-147 0,-177 107,-177 107,-147 0,-147"/>
<text text-anchor="start" x="8" y="-165" font-family="Helvetica,sans-Serif" font-size="10.00" fill="#000000">fast_expansion_sum</text>
<text text-anchor="middle" x="53.5" y="-154" font-family="Helvetica,sans-Serif" font-size="10.00" fill="#000000">_zeroelim</text>
</g>
<!-- Node563 -->
<g id="node2" class="node">
<title>Node563</title>
<g id="a_node2"><a xlink:href="triangle_8cpp.html#abd5587da82afca7f6403c3ec3d17139a" target="_top" xlink:title="counterclockwiseadapt">
<polygon fill="#ffffff" stroke="#000000" points="143,-247.5 143,-266.5 259,-266.5 259,-247.5 143,-247.5"/>
<text text-anchor="middle" x="201" y="-254.5" font-family="Helvetica,sans-Serif" font-size="10.00" fill="#000000">counterclockwiseadapt</text>
</a>
</g>
</g>
<!-- Node562&#45;&gt;Node563 -->
<g id="edge1" class="edge">
<title>Node562&#45;&gt;Node563</title>
<path fill="none" stroke="#191970" d="M85.6035,-182.6768C116.6549,-202.676 162.3593,-232.1128 185.8436,-247.2383"/>
<polygon fill="#191970" stroke="#191970" points="87.1742,-179.5253 76.8718,-177.053 83.3838,-185.4104 87.1742,-179.5253"/>
</g>
<!-- Node591 -->
<g id="node25" class="node">
<title>Node591</title>
<g id="a_node25"><a xlink:href="triangle_8cpp.html#ade6dfff2bcdf2f287e419bc4e2a211dc" target="_top" xlink:title="incircleadapt">
<polygon fill="#ffffff" stroke="#000000" points="165.5,-152.5 165.5,-171.5 236.5,-171.5 236.5,-152.5 165.5,-152.5"/>
<text text-anchor="middle" x="201" y="-159.5" font-family="Helvetica,sans-Serif" font-size="10.00" fill="#000000">incircleadapt</text>
</a>
</g>
</g>
<!-- Node562&#45;&gt;Node591 -->
<g id="edge42" class="edge">
<title>Node562&#45;&gt;Node591</title>
<path fill="none" stroke="#191970" d="M117.2526,-162C133.6357,-162 150.6893,-162 165.0987,-162"/>
<polygon fill="#191970" stroke="#191970" points="117.1682,-158.5001 107.1681,-162 117.1681,-165.5001 117.1682,-158.5001"/>
</g>
<!-- Node596 -->
<g id="node30" class="node">
<title>Node596</title>
<g id="a_node30"><a xlink:href="triangle_8cpp.html#a49551af03108d1d44d1ff70af93dbdfd" target="_top" xlink:title="orient3dadapt">
<polygon fill="#ffffff" stroke="#000000" points="163.5,-86.5 163.5,-105.5 238.5,-105.5 238.5,-86.5 163.5,-86.5"/>
<text text-anchor="middle" x="201" y="-93.5" font-family="Helvetica,sans-Serif" font-size="10.00" fill="#000000">orient3dadapt</text>
</a>
</g>
</g>
<!-- Node562&#45;&gt;Node596 -->
<g id="edge51" class="edge">
<title>Node562&#45;&gt;Node596</title>
<path fill="none" stroke="#191970" d="M96.6736,-142.6816C123.9513,-130.476 158.0104,-115.236 179.6397,-105.5578"/>
<polygon fill="#191970" stroke="#191970" points="95.0378,-139.5791 87.3395,-146.8583 97.8969,-145.9686 95.0378,-139.5791"/>
</g>
<!-- Node564 -->
<g id="node3" class="node">
<title>Node564</title>
<g id="a_node3"><a xlink:href="triangle_8cpp.html#adbb7ef8fc2a92efceb7c1c152fbd22f1" target="_top" xlink:title="counterclockwise">
<polygon fill="#ffffff" stroke="#000000" points="295,-304.5 295,-323.5 387,-323.5 387,-304.5 295,-304.5"/>
<text text-anchor="middle" x="341" y="-311.5" font-family="Helvetica,sans-Serif" font-size="10.00" fill="#000000">counterclockwise</text>
</a>
</g>
</g>
<!-- Node563&#45;&gt;Node564 -->
<g id="edge2" class="edge">
<title>Node563&#45;&gt;Node564</title>
<path fill="none" stroke="#191970" d="M233.7671,-270.3409C259.4439,-280.795 294.548,-295.0874 317.4907,-304.4284"/>
<polygon fill="#191970" stroke="#191970" points="235.0145,-267.0698 224.4329,-266.5405 232.3748,-273.5531 235.0145,-267.0698"/>
</g>
<!-- Node565 -->
<g id="node4" class="node">
<title>Node565</title>
<g id="a_node4"><a xlink:href="triangle_8cpp.html#aeb60f84186be632487f896e6e0634e4a" target="_top" xlink:title="findcircumcenter">
<polygon fill="#ffffff" stroke="#000000" points="680,-408.5 680,-427.5 769,-427.5 769,-408.5 680,-408.5"/>
<text text-anchor="middle" x="724.5" y="-415.5" font-family="Helvetica,sans-Serif" font-size="10.00" fill="#000000">findcircumcenter</text>
</a>
</g>
</g>
<!-- Node564&#45;&gt;Node565 -->
<g id="edge3" class="edge">
<title>Node564&#45;&gt;Node565</title>
<path fill="none" stroke="#191970" d="M350.6551,-332.5811C363.6382,-355.3384 389.07,-392.8488 423,-409 506.6915,-448.8385 618.7832,-437.8902 679.9948,-427.3392"/>
<polygon fill="#191970" stroke="#191970" points="353.5922,-330.6573 345.7219,-323.5644 347.4512,-334.0171 353.5922,-330.6573"/>
</g>
<!-- Node572 -->
<g id="node9" class="node">
<title>Node572</title>
<g id="a_node9"><a xlink:href="triangle_8cpp.html#a34a6e2c35be028da265a50ab3d9d6be6" target="_top" xlink:title="preciselocate">
<polygon fill="#ffffff" stroke="#000000" points="433.5,-380.5 433.5,-399.5 507.5,-399.5 507.5,-380.5 433.5,-380.5"/>
<text text-anchor="middle" x="470.5" y="-387.5" font-family="Helvetica,sans-Serif" font-size="10.00" fill="#000000">preciselocate</text>
</a>
</g>
</g>
<!-- Node564&#45;&gt;Node572 -->
<g id="edge9" class="edge">
<title>Node564&#45;&gt;Node572</title>
<path fill="none" stroke="#191970" d="M364.0424,-329.4597C380.2767,-340.1409 402.6593,-354.4481 423,-366 431.8376,-371.0191 441.8503,-376.156 450.3967,-380.3829"/>
<polygon fill="#191970" stroke="#191970" points="365.5256,-326.2439 355.2563,-323.638 361.6592,-332.0792 365.5256,-326.2439"/>
</g>
<!-- Node573 -->
<g id="node10" class="node">
<title>Node573</title>
<g id="a_node10"><a xlink:href="triangle_8cpp.html#a51073193cbdba1daea4186d1458890e8" target="_top" xlink:title="locate">
<polygon fill="#ffffff" stroke="#000000" points="577.5,-456.5 577.5,-475.5 620.5,-475.5 620.5,-456.5 577.5,-456.5"/>
<text text-anchor="middle" x="599" y="-463.5" font-family="Helvetica,sans-Serif" font-size="10.00" fill="#000000">locate</text>
</a>
</g>
</g>
<!-- Node564&#45;&gt;Node573 -->
<g id="edge25" class="edge">
<title>Node564&#45;&gt;Node573</title>
<path fill="none" stroke="#191970" d="M347.4855,-333.5291C358.2102,-362.4916 382.567,-416.1815 423,-442 471.214,-472.787 541.9657,-471.5583 577.2779,-468.5467"/>
<polygon fill="#191970" stroke="#191970" points="350.6634,-332.0166 344.0374,-323.7494 344.0617,-334.3442 350.6634,-332.0166"/>
</g>
<!-- Node574 -->
<g id="node11" class="node">
<title>Node574</title>
<g id="a_node11"><a xlink:href="triangle_8cpp.html#a2ede94743503e369e9b1c6c2a0ac9f7f" target="_top" xlink:title="insertvertex">
<polygon fill="#ffffff" stroke="#ff0000" points="690.5,-342.5 690.5,-361.5 758.5,-361.5 758.5,-342.5 690.5,-342.5"/>
<text text-anchor="middle" x="724.5" y="-349.5" font-family="Helvetica,sans-Serif" font-size="10.00" fill="#000000">insertvertex</text>
</a>
</g>
</g>
<!-- Node564&#45;&gt;Node574 -->
<g id="edge26" class="edge">
<title>Node564&#45;&gt;Node574</title>
<path fill="none" stroke="#191970" d="M397.2664,-324.291C405.8675,-325.6656 414.6568,-326.9578 423,-328 519.6537,-340.0732 634.5402,-347.2511 690.4874,-350.2889"/>
<polygon fill="#191970" stroke="#191970" points="397.7297,-320.8202 387.294,-322.6495 396.5927,-327.7273 397.7297,-320.8202"/>
</g>
<!-- Node578 -->
<g id="node14" class="node">
<title>Node578</title>
<g id="a_node14"><a xlink:href="triangle_8cpp.html#aded205ef0849b44d2a587f53fd720618" target="_top" xlink:title="constrainededge">
<polygon fill="#ffffff" stroke="#000000" points="1059,-95.5 1059,-114.5 1147,-114.5 1147,-95.5 1059,-95.5"/>
<text text-anchor="middle" x="1103" y="-102.5" font-family="Helvetica,sans-Serif" font-size="10.00" fill="#000000">constrainededge</text>
</a>
</g>
</g>
<!-- Node564&#45;&gt;Node578 -->
<g id="edge36" class="edge">
<title>Node564&#45;&gt;Node578</title>
<path fill="none" stroke="#191970" d="M347.7852,-295.0695C365.9597,-244.5862 414.911,-110.1521 423,-104 485.5857,-56.4001 520.3698,-86 599,-86 599,-86 599,-86 857,-86 927.6786,-86 1009.4415,-93.893 1058.639,-99.5044"/>
<polygon fill="#191970" stroke="#191970" points="344.4875,-293.897 344.3999,-304.4915 351.0752,-296.264 344.4875,-293.897"/>
</g>
<!-- Node581 -->
<g id="node16" class="node">
<title>Node581</title>
<g id="a_node16"><a xlink:href="triangle_8cpp.html#adca37fc9e90f78c9ae794662de5428bd" target="_top" xlink:title="splitencsegs">
<polygon fill="#ffffff" stroke="#000000" points="821.5,-304.5 821.5,-323.5 892.5,-323.5 892.5,-304.5 821.5,-304.5"/>
<text text-anchor="middle" x="857" y="-311.5" font-family="Helvetica,sans-Serif" font-size="10.00" fill="#000000">splitencsegs</text>
</a>
</g>
</g>
<!-- Node564&#45;&gt;Node581 -->
<g id="edge38" class="edge">
<title>Node564&#45;&gt;Node581</title>
<path fill="none" stroke="#191970" d="M397.4998,-314C504.3009,-314 732.997,-314 821.2412,-314"/>
<polygon fill="#191970" stroke="#191970" points="397.2457,-310.5001 387.2457,-314 397.2456,-317.5001 397.2457,-310.5001"/>
</g>
<!-- Node582 -->
<g id="node17" class="node">
<title>Node582</title>
<g id="a_node17"><a xlink:href="triangle_8cpp.html#aa0ba1198ac22df6403aeaa25b4ebbe37" target="_top" xlink:title="carveholes">
<polygon fill="#ffffff" stroke="#000000" points="692.5,-446.5 692.5,-465.5 756.5,-465.5 756.5,-446.5 692.5,-446.5"/>
<text text-anchor="middle" x="724.5" y="-453.5" font-family="Helvetica,sans-Serif" font-size="10.00" fill="#000000">carveholes</text>
</a>
</g>
</g>
<!-- Node564&#45;&gt;Node582 -->
<g id="edge37" class="edge">
<title>Node564&#45;&gt;Node582</title>
<path fill="none" stroke="#191970" d="M345.2145,-333.7663C353.5737,-367.6783 375.6874,-436.4323 423,-469 504.1189,-524.8382 546.9888,-501.9412 644,-485 665.2185,-481.2946 688.2261,-472.483 704.1889,-465.5384"/>
<polygon fill="#191970" stroke="#191970" points="348.5511,-332.6598 342.8904,-323.704 341.7307,-334.2352 348.5511,-332.6598"/>
</g>
<!-- Node583 -->
<g id="node18" class="node">
<title>Node583</title>
<g id="a_node18"><a xlink:href="triangle_8cpp.html#a8b98b5137610f709b12bc0f9de701534" target="_top" xlink:title="mergehulls">
<polygon fill="#ffffff" stroke="#000000" points="438.5,-228.5 438.5,-247.5 502.5,-247.5 502.5,-228.5 438.5,-228.5"/>
<text text-anchor="middle" x="470.5" y="-235.5" font-family="Helvetica,sans-Serif" font-size="10.00" fill="#000000">mergehulls</text>
</a>
</g>
</g>
<!-- Node564&#45;&gt;Node583 -->
<g id="edge27" class="edge">
<title>Node564&#45;&gt;Node583</title>
<path fill="none" stroke="#191970" d="M364.0424,-298.5403C380.2767,-287.8591 402.6593,-273.5519 423,-262 431.8376,-256.9809 441.8503,-251.844 450.3967,-247.6171"/>
<polygon fill="#191970" stroke="#191970" points="361.6592,-295.9208 355.2563,-304.362 365.5256,-301.7561 361.6592,-295.9208"/>
</g>
<!-- Node584 -->
<g id="node19" class="node">
<title>Node584</title>
<g id="a_node19"><a xlink:href="triangle_8cpp.html#ae64549179195e9fea8a3589a003e44ac" target="_top" xlink:title="divconqrecurse">
<polygon fill="#ffffff" stroke="#000000" points="557.5,-247.5 557.5,-266.5 640.5,-266.5 640.5,-247.5 557.5,-247.5"/>
<text text-anchor="middle" x="599" y="-254.5" font-family="Helvetica,sans-Serif" font-size="10.00" fill="#000000">divconqrecurse</text>
</a>
</g>
</g>
<!-- Node564&#45;&gt;Node584 -->
<g id="edge30" class="edge">
<title>Node564&#45;&gt;Node584</title>
<path fill="none" stroke="#191970" d="M394.1552,-302.2564C442.5372,-291.5674 512.9919,-276.0018 557.3866,-266.1937"/>
<polygon fill="#191970" stroke="#191970" points="393.1929,-298.8845 384.1834,-304.4595 394.703,-305.7197 393.1929,-298.8845"/>
</g>
<!-- Node587 -->
<g id="node21" class="node">
<title>Node587</title>
<g id="a_node21"><a xlink:href="triangle_8cpp.html#add01d18cf8d218a091d600fd0c97fb67" target="_top" xlink:title="finddirection">
<polygon fill="#ffffff" stroke="#000000" points="690,-114.5 690,-133.5 759,-133.5 759,-114.5 690,-114.5"/>
<text text-anchor="middle" x="724.5" y="-121.5" font-family="Helvetica,sans-Serif" font-size="10.00" fill="#000000">finddirection</text>
</a>
</g>
</g>
<!-- Node564&#45;&gt;Node587 -->
<g id="edge31" class="edge">
<title>Node564&#45;&gt;Node587</title>
<path fill="none" stroke="#191970" d="M347.4983,-294.625C361.6042,-253.8133 395.9369,-161.2497 423,-143 504.9681,-87.7256 629.6924,-103.55 689.7663,-115.7377"/>
<polygon fill="#191970" stroke="#191970" points="344.1358,-293.6418 344.221,-304.2363 350.7612,-295.9011 344.1358,-293.6418"/>
</g>
<!-- Node588 -->
<g id="node22" class="node">
<title>Node588</title>
<g id="a_node22"><a xlink:href="triangle_8cpp.html#a4ea48503ae03dd0ab0e1c9dc926c3ce2" target="_top" xlink:title="delaunayfixup">
<polygon fill="#ffffff" stroke="#000000" points="432,-38.5 432,-57.5 509,-57.5 509,-38.5 432,-38.5"/>
<text text-anchor="middle" x="470.5" y="-45.5" font-family="Helvetica,sans-Serif" font-size="10.00" fill="#000000">delaunayfixup</text>
</a>
</g>
</g>
<!-- Node564&#45;&gt;Node588 -->
<g id="edge34" class="edge">
<title>Node564&#45;&gt;Node588</title>
<path fill="none" stroke="#191970" d="M347.7889,-294.646C356.8393,-268.7829 373.3073,-221.5048 387,-181 403.3385,-132.6687 389.707,-110.658 423,-72 428.1852,-65.9792 435.2472,-61.2951 442.3398,-57.7291"/>
<polygon fill="#191970" stroke="#191970" points="344.3971,-293.7421 344.394,-304.3369 351.0034,-296.0564 344.3971,-293.7421"/>
</g>
<!-- Node589 -->
<g id="node23" class="node">
<title>Node589</title>
<g id="a_node23"><a xlink:href="triangle_8cpp.html#ada18b75ad55debb3c033ba1db23ba2b4" target="_top" xlink:title="quality_statistics">
<polygon fill="#ffffff" stroke="#000000" points="554,-532.5 554,-551.5 644,-551.5 644,-532.5 554,-532.5"/>
<text text-anchor="middle" x="599" y="-539.5" font-family="Helvetica,sans-Serif" font-size="10.00" fill="#000000">quality_statistics</text>
</a>
</g>
</g>
<!-- Node564&#45;&gt;Node589 -->
<g id="edge39" class="edge">
<title>Node564&#45;&gt;Node589</title>
<path fill="none" stroke="#191970" d="M342.5783,-333.8689C347.03,-375.4619 363.559,-471.6706 423,-518 459.9709,-546.8158 515.0857,-549.8738 553.7649,-547.6026"/>
<polygon fill="#191970" stroke="#191970" points="346.0403,-333.3002 341.6173,-323.6727 339.0712,-333.957 346.0403,-333.3002"/>
</g>
<!-- Node566 -->
<g id="node5" class="node">
<title>Node566</title>
<g id="a_node5"><a xlink:href="triangle_8cpp.html#a48fc63d369d988c08cbe8ab40f0b8af5" target="_top" xlink:title="splittriangle">
<polygon fill="#ffffff" stroke="#000000" points="824,-361.5 824,-380.5 890,-380.5 890,-361.5 824,-361.5"/>
<text text-anchor="middle" x="857" y="-368.5" font-family="Helvetica,sans-Serif" font-size="10.00" fill="#000000">splittriangle</text>
</a>
</g>
</g>
<!-- Node565&#45;&gt;Node566 -->
<g id="edge4" class="edge">
<title>Node565&#45;&gt;Node566</title>
<path fill="none" stroke="#191970" d="M760.8868,-405.093C782.656,-397.3711 809.8655,-387.7194 829.7717,-380.6583"/>
<polygon fill="#191970" stroke="#191970" points="759.5679,-401.8471 751.3134,-408.4888 761.9081,-408.4443 759.5679,-401.8471"/>
</g>
<!-- Node571 -->
<g id="node8" class="node">
<title>Node571</title>
<g id="a_node8"><a xlink:href="triangle_8cpp.html#a63c072a0ec5fd1e7ab2f23ecc4dd576a" target="_top" xlink:title="writevoronoi">
<polygon fill="#ffffff" stroke="#000000" points="949.5,-408.5 949.5,-427.5 1018.5,-427.5 1018.5,-408.5 949.5,-408.5"/>
<text text-anchor="middle" x="984" y="-415.5" font-family="Helvetica,sans-Serif" font-size="10.00" fill="#000000">writevoronoi</text>
</a>
</g>
</g>
<!-- Node565&#45;&gt;Node571 -->
<g id="edge7" class="edge">
<title>Node565&#45;&gt;Node571</title>
<path fill="none" stroke="#191970" d="M779.3765,-418C830.7816,-418 906.0234,-418 949.4996,-418"/>
<polygon fill="#191970" stroke="#191970" points="779.1097,-414.5001 769.1096,-418 779.1096,-421.5001 779.1097,-414.5001"/>
</g>
<!-- Node567 -->
<g id="node6" class="node">
<title>Node567</title>
<g id="a_node6"><a xlink:href="triangle_8cpp.html#a5a654ff6b304f2166c64ffe9183b2995" target="_top" xlink:title="enforcequality">
<polygon fill="#ffffff" stroke="#000000" points="945.5,-361.5 945.5,-380.5 1022.5,-380.5 1022.5,-361.5 945.5,-361.5"/>
<text text-anchor="middle" x="984" y="-368.5" font-family="Helvetica,sans-Serif" font-size="10.00" fill="#000000">enforcequality</text>
</a>
</g>
</g>
<!-- Node566&#45;&gt;Node567 -->
<g id="edge5" class="edge">
<title>Node566&#45;&gt;Node567</title>
<path fill="none" stroke="#191970" d="M900.3221,-371C914.9021,-371 931.066,-371 945.2692,-371"/>
<polygon fill="#191970" stroke="#191970" points="900.0363,-367.5001 890.0362,-371 900.0362,-374.5001 900.0363,-367.5001"/>
</g>
<!-- Node568 -->
<g id="node7" class="node">
<title>Node568</title>
<g id="a_node7"><a xlink:href="triangle_8hpp.html#a848df2990f66cdbdc9d1ac87f4646527" target="_top" xlink:title="Call Triangle. ">
<polygon fill="#ffffff" stroke="#ff0000" points="1072,-427.5 1072,-446.5 1134,-446.5 1134,-427.5 1072,-427.5"/>
<text text-anchor="middle" x="1103" y="-434.5" font-family="Helvetica,sans-Serif" font-size="10.00" fill="#000000">triangulate</text>
</a>
</g>
</g>
<!-- Node567&#45;&gt;Node568 -->
<g id="edge6" class="edge">
<title>Node567&#45;&gt;Node568</title>
<path fill="none" stroke="#191970" d="M1010.1742,-385.5168C1033.1239,-398.2452 1065.8369,-416.3886 1085.6755,-427.3915"/>
<polygon fill="#191970" stroke="#191970" points="1011.7463,-382.3864 1001.3036,-380.597 1008.3511,-388.508 1011.7463,-382.3864"/>
</g>
<!-- Node571&#45;&gt;Node568 -->
<g id="edge8" class="edge">
<title>Node571&#45;&gt;Node568</title>
<path fill="none" stroke="#191970" d="M1028.8609,-425.1627C1043.121,-427.4395 1058.5773,-429.9073 1071.6685,-431.9975"/>
<polygon fill="#191970" stroke="#191970" points="1029.1664,-421.6672 1018.7396,-423.5467 1028.0627,-428.5796 1029.1664,-421.6672"/>
</g>
<!-- Node572&#45;&gt;Node573 -->
<g id="edge10" class="edge">
<title>Node572&#45;&gt;Node573</title>
<path fill="none" stroke="#191970" d="M495.6172,-404.8553C521.4494,-420.1335 560.9136,-443.4742 582.8575,-456.4527"/>
<polygon fill="#191970" stroke="#191970" points="497.1636,-401.7036 486.7746,-399.6255 493.6001,-407.7287 497.1636,-401.7036"/>
</g>
<!-- Node572&#45;&gt;Node574 -->
<g id="edge24" class="edge">
<title>Node572&#45;&gt;Node574</title>
<path fill="none" stroke="#191970" d="M517.705,-383.9206C552.6315,-379.3131 601.3413,-372.6578 644,-366 659.2772,-363.6156 676.1387,-360.7237 690.4658,-358.1886"/>
<polygon fill="#191970" stroke="#191970" points="517.2432,-380.4511 507.784,-385.2233 518.1545,-387.3916 517.2432,-380.4511"/>
</g>
<!-- Node573&#45;&gt;Node574 -->
<g id="edge11" class="edge">
<title>Node573&#45;&gt;Node574</title>
<path fill="none" stroke="#191970" d="M617.1849,-449.4815C643.7572,-425.3441 692.3622,-381.1929 713.827,-361.695"/>
<polygon fill="#191970" stroke="#191970" points="614.7488,-446.9659 609.7001,-456.2804 619.4555,-452.1473 614.7488,-446.9659"/>
</g>
<!-- Node579 -->
<g id="node15" class="node">
<title>Node579</title>
<g id="a_node15"><a xlink:href="triangle_8cpp.html#ae367b20189056436da2a1b633b392703" target="_top" xlink:title="insertsegment">
<polygon fill="#ffffff" stroke="#ff0000" points="1183,-133.5 1183,-152.5 1261,-152.5 1261,-133.5 1183,-133.5"/>
<text text-anchor="middle" x="1222" y="-140.5" font-family="Helvetica,sans-Serif" font-size="10.00" fill="#000000">insertsegment</text>
</a>
</g>
</g>
<!-- Node573&#45;&gt;Node579 -->
<g id="edge21" class="edge">
<title>Node573&#45;&gt;Node579</title>
<path fill="none" stroke="#191970" d="M630.0771,-479.3399C677.8987,-498.6229 772.8306,-532 857,-532 857,-532 857,-532 984,-532 1063.9321,-532 1096.4388,-517.9088 1147,-456 1187.0294,-406.9866 1214.9363,-199.6844 1220.8364,-152.5585"/>
<polygon fill="#191970" stroke="#191970" points="631.1886,-476.0129 620.6084,-475.4562 628.5322,-482.4893 631.1886,-476.0129"/>
</g>
<!-- Node573&#45;&gt;Node582 -->
<g id="edge22" class="edge">
<title>Node573&#45;&gt;Node582</title>
<path fill="none" stroke="#191970" d="M630.7518,-463.47C649.6139,-461.967 673.4661,-460.0664 692.3907,-458.5585"/>
<polygon fill="#191970" stroke="#191970" points="630.2646,-459.9976 620.5742,-464.2809 630.8207,-466.9755 630.2646,-459.9976"/>
</g>
<!-- Node574&#45;&gt;Node566 -->
<g id="edge20" class="edge">
<title>Node574&#45;&gt;Node566</title>
<path fill="none" stroke="#191970" d="M768.6311,-358.3282C786.6742,-360.9155 807.1899,-363.8574 823.9091,-366.2549"/>
<polygon fill="#191970" stroke="#191970" points="769.0176,-354.8479 758.622,-356.893 768.024,-361.7771 769.0176,-354.8479"/>
</g>
<!-- Node576 -->
<g id="node12" class="node">
<title>Node576</title>
<g id="a_node12"><a xlink:href="triangle_8cpp.html#a496c50bca0cf0c214a0204419c3b181a" target="_top" xlink:title="segmentintersection">
<polygon fill="#ffffff" stroke="#000000" points="805,-152.5 805,-171.5 909,-171.5 909,-152.5 805,-152.5"/>
<text text-anchor="middle" x="857" y="-159.5" font-family="Helvetica,sans-Serif" font-size="10.00" fill="#000000">segmentintersection</text>
</a>
</g>
</g>
<!-- Node574&#45;&gt;Node576 -->
<g id="edge12" class="edge">
<title>Node574&#45;&gt;Node576</title>
<path fill="none" stroke="#191970" d="M737.0969,-333.9365C764.5295,-294.5992 828.9096,-202.2806 850.1019,-171.8917"/>
<polygon fill="#191970" stroke="#191970" points="734.1022,-332.1121 731.2529,-342.3167 739.8439,-336.1163 734.1022,-332.1121"/>
</g>
<!-- Node574&#45;&gt;Node581 -->
<g id="edge18" class="edge">
<title>Node574&#45;&gt;Node581</title>
<path fill="none" stroke="#191970" d="M767.7039,-339.6094C785.8492,-334.4055 806.6294,-328.4459 823.5754,-323.5859"/>
<polygon fill="#191970" stroke="#191970" points="766.5829,-336.2898 757.9353,-342.411 768.5127,-343.0185 766.5829,-336.2898"/>
</g>
<!-- Node577 -->
<g id="node13" class="node">
<title>Node577</title>
<g id="a_node13"><a xlink:href="triangle_8cpp.html#ae9d4ed09a0fd07959568ba5f86cc4d0c" target="_top" xlink:title="scoutsegment">
<polygon fill="#ffffff" stroke="#000000" points="945,-114.5 945,-133.5 1023,-133.5 1023,-114.5 945,-114.5"/>
<text text-anchor="middle" x="984" y="-121.5" font-family="Helvetica,sans-Serif" font-size="10.00" fill="#000000">scoutsegment</text>
</a>
</g>
</g>
<!-- Node576&#45;&gt;Node577 -->
<g id="edge13" class="edge">
<title>Node576&#45;&gt;Node577</title>
<path fill="none" stroke="#191970" d="M898.8943,-149.4647C916.1712,-144.2952 935.8707,-138.4009 951.9628,-133.5859"/>
<polygon fill="#191970" stroke="#191970" points="897.6245,-146.1912 889.0475,-152.411 899.6311,-152.8975 897.6245,-146.1912"/>
</g>
<!-- Node576&#45;&gt;Node578 -->
<g id="edge17" class="edge">
<title>Node576&#45;&gt;Node578</title>
<path fill="none" stroke="#191970" d="M919.0716,-159.746C950.6702,-157.3865 989.405,-152.6133 1023,-143 1046.3568,-136.3164 1071.3562,-123.4079 1087.0735,-114.5043"/>
<polygon fill="#191970" stroke="#191970" points="918.8161,-156.2552 909.0786,-160.4303 919.2944,-163.2388 918.8161,-156.2552"/>
</g>
<!-- Node577&#45;&gt;Node578 -->
<g id="edge14" class="edge">
<title>Node577&#45;&gt;Node578</title>
<path fill="none" stroke="#191970" d="M1033.3907,-116.1141C1041.8196,-114.7683 1050.5273,-113.378 1058.8104,-112.0555"/>
<polygon fill="#191970" stroke="#191970" points="1032.6179,-112.6931 1023.2948,-117.726 1033.7216,-119.6055 1032.6179,-112.6931"/>
</g>
<!-- Node577&#45;&gt;Node579 -->
<g id="edge16" class="edge">
<title>Node577&#45;&gt;Node579</title>
<path fill="none" stroke="#191970" d="M1033.0201,-127.9134C1077.4101,-131.4571 1141.9506,-136.6095 1182.9443,-139.8821"/>
<polygon fill="#191970" stroke="#191970" points="1033.2812,-124.4232 1023.0344,-127.1162 1032.7241,-131.401 1033.2812,-124.4232"/>
</g>
<!-- Node578&#45;&gt;Node579 -->
<g id="edge15" class="edge">
<title>Node578&#45;&gt;Node579</title>
<path fill="none" stroke="#191970" d="M1142.7098,-117.6804C1158.7886,-122.8148 1177.0433,-128.6441 1191.9809,-133.4141"/>
<polygon fill="#191970" stroke="#191970" points="1143.6195,-114.2969 1133.0287,-114.589 1141.4901,-120.9652 1143.6195,-114.2969"/>
</g>
<!-- Node581&#45;&gt;Node567 -->
<g id="edge19" class="edge">
<title>Node581&#45;&gt;Node567</title>
<path fill="none" stroke="#191970" d="M887.6524,-327.7574C910.8567,-338.1719 942.1364,-352.2108 962.6737,-361.4284"/>
<polygon fill="#191970" stroke="#191970" points="888.8134,-324.4421 878.2569,-323.5405 885.947,-330.8284 888.8134,-324.4421"/>
</g>
<!-- Node582&#45;&gt;Node568 -->
<g id="edge23" class="edge">
<title>Node582&#45;&gt;Node568</title>
<path fill="none" stroke="#191970" d="M767.0465,-453.8642C843.9262,-450.005 1004.2708,-441.956 1071.875,-438.5624"/>
<polygon fill="#191970" stroke="#191970" points="766.5826,-450.383 756.7707,-454.3801 766.9336,-457.3742 766.5826,-450.383"/>
</g>
<!-- Node583&#45;&gt;Node584 -->
<g id="edge28" class="edge">
<title>Node583&#45;&gt;Node584</title>
<path fill="none" stroke="#191970" d="M512.6528,-244.2327C526.9345,-246.3444 542.8748,-248.7013 557.134,-250.8097"/>
<polygon fill="#191970" stroke="#191970" points="512.9989,-240.7459 502.5945,-242.7455 511.975,-247.6706 512.9989,-240.7459"/>
</g>
<!-- Node585 -->
<g id="node20" class="node">
<title>Node585</title>
<g id="a_node20"><a xlink:href="triangle_8cpp.html#a4a13891380126c239a32b46c88f06223" target="_top" xlink:title="divconqdelaunay">
<polygon fill="#ffffff" stroke="#ff0000" points="680,-247.5 680,-266.5 769,-266.5 769,-247.5 680,-247.5"/>
<text text-anchor="middle" x="724.5" y="-254.5" font-family="Helvetica,sans-Serif" font-size="10.00" fill="#000000">divconqdelaunay</text>
</a>
</g>
</g>
<!-- Node584&#45;&gt;Node585 -->
<g id="edge29" class="edge">
<title>Node584&#45;&gt;Node585</title>
<path fill="none" stroke="#191970" d="M651.0136,-257C660.6009,-257 670.5328,-257 679.8779,-257"/>
<polygon fill="#191970" stroke="#191970" points="650.7897,-253.5001 640.7897,-257 650.7896,-260.5001 650.7897,-253.5001"/>
</g>
<!-- Node587&#45;&gt;Node576 -->
<g id="edge32" class="edge">
<title>Node587&#45;&gt;Node576</title>
<path fill="none" stroke="#191970" d="M767.7039,-136.3906C785.8492,-141.5945 806.6294,-147.5541 823.5754,-152.4141"/>
<polygon fill="#191970" stroke="#191970" points="768.5127,-132.9815 757.9353,-133.589 766.5829,-139.7102 768.5127,-132.9815"/>
</g>
<!-- Node587&#45;&gt;Node577 -->
<g id="edge33" class="edge">
<title>Node587&#45;&gt;Node577</title>
<path fill="none" stroke="#191970" d="M769.3207,-124C818.812,-124 897.7055,-124 944.817,-124"/>
<polygon fill="#191970" stroke="#191970" points="769.2281,-120.5001 759.2281,-124 769.228,-127.5001 769.2281,-120.5001"/>
</g>
<!-- Node588&#45;&gt;Node578 -->
<g id="edge35" class="edge">
<title>Node588&#45;&gt;Node578</title>
<path fill="none" stroke="#191970" d="M519.336,-48C570.477,-48 653.1288,-48 724.5,-48 724.5,-48 724.5,-48 857,-48 931.5449,-48 951.1046,-52.3027 1023,-72 1044.4454,-77.8754 1067.8329,-87.9869 1083.7492,-95.4728"/>
<polygon fill="#191970" stroke="#191970" points="519.2288,-44.5001 509.2288,-48 519.2288,-51.5001 519.2288,-44.5001"/>
</g>
<!-- Node590 -->
<g id="node24" class="node">
<title>Node590</title>
<g id="a_node24"><a xlink:href="triangle_8cpp.html#af5c7ca5685bbb13d38d7dbb7a686634d" target="_top" xlink:title="statistics">
<polygon fill="#ffffff" stroke="#000000" points="829,-484.5 829,-503.5 885,-503.5 885,-484.5 829,-484.5"/>
<text text-anchor="middle" x="857" y="-491.5" font-family="Helvetica,sans-Serif" font-size="10.00" fill="#000000">statistics</text>
</a>
</g>
</g>
<!-- Node589&#45;&gt;Node590 -->
<g id="edge40" class="edge">
<title>Node589&#45;&gt;Node590</title>
<path fill="none" stroke="#191970" d="M654.2749,-531.7163C707.9386,-521.7324 787.226,-506.9812 828.9594,-499.2168"/>
<polygon fill="#191970" stroke="#191970" points="653.4265,-528.314 644.2354,-533.5841 654.7069,-535.1959 653.4265,-528.314"/>
</g>
<!-- Node590&#45;&gt;Node568 -->
<g id="edge41" class="edge">
<title>Node590&#45;&gt;Node568</title>
<path fill="none" stroke="#191970" d="M895.0213,-491.1976C929.0256,-488.0584 979.9874,-481.7842 1023,-470 1044.4454,-464.1246 1067.8329,-454.0131 1083.7492,-446.5272"/>
<polygon fill="#191970" stroke="#191970" points="894.6957,-487.7126 885.0402,-492.0738 895.308,-494.6858 894.6957,-487.7126"/>
</g>
<!-- Node592 -->
<g id="node26" class="node">
<title>Node592</title>
<g id="a_node26"><a xlink:href="triangle_8cpp.html#abbd721e83ed16c99082c2152fa55e2ee" target="_top" xlink:title="incircle">
<polygon fill="#ffffff" stroke="#000000" points="317.5,-152.5 317.5,-171.5 364.5,-171.5 364.5,-152.5 317.5,-152.5"/>
<text text-anchor="middle" x="341" y="-159.5" font-family="Helvetica,sans-Serif" font-size="10.00" fill="#000000">incircle</text>
</a>
</g>
</g>
<!-- Node591&#45;&gt;Node592 -->
<g id="edge43" class="edge">
<title>Node591&#45;&gt;Node592</title>
<path fill="none" stroke="#191970" d="M246.8193,-162C270.342,-162 298.018,-162 317.2559,-162"/>
<polygon fill="#191970" stroke="#191970" points="246.6902,-158.5001 236.6902,-162 246.6901,-165.5001 246.6902,-158.5001"/>
</g>
<!-- Node592&#45;&gt;Node574 -->
<g id="edge45" class="edge">
<title>Node592&#45;&gt;Node574</title>
<path fill="none" stroke="#191970" d="M374.7944,-169.8112C451.4429,-187.6176 632.7312,-230.2764 644,-238 664.5846,-252.1086 704.1664,-317.3287 718.8428,-342.2671"/>
<polygon fill="#191970" stroke="#191970" points="375.2343,-166.3203 364.702,-167.4698 373.6523,-173.1392 375.2343,-166.3203"/>
</g>
<!-- Node592&#45;&gt;Node583 -->
<g id="edge49" class="edge">
<title>Node592&#45;&gt;Node583</title>
<path fill="none" stroke="#191970" d="M364.0424,-177.4597C380.2767,-188.1409 402.6593,-202.4481 423,-214 431.8376,-219.0191 441.8503,-224.156 450.3967,-228.3829"/>
<polygon fill="#191970" stroke="#191970" points="365.5256,-174.2439 355.2563,-171.638 361.6592,-180.0792 365.5256,-174.2439"/>
</g>
<!-- Node592&#45;&gt;Node588 -->
<g id="edge50" class="edge">
<title>Node592&#45;&gt;Node588</title>
<path fill="none" stroke="#191970" d="M354.0195,-144.1928C368.9943,-124.6313 395.1253,-93.1845 423,-72 430.3561,-66.4095 439.2132,-61.5244 447.2761,-57.6468"/>
<polygon fill="#191970" stroke="#191970" points="351.1641,-142.1665 347.9579,-152.2646 356.7616,-146.37 351.1641,-142.1665"/>
</g>
<!-- Node593 -->
<g id="node27" class="node">
<title>Node593</title>
<g id="a_node27"><a xlink:href="triangle_8cpp.html#ac8f560afde1cc801e155bf3bcd1ed35b" target="_top" xlink:title="nonregular">
<polygon fill="#ffffff" stroke="#000000" points="439.5,-.5 439.5,-19.5 501.5,-19.5 501.5,-.5 439.5,-.5"/>
<text text-anchor="middle" x="470.5" y="-7.5" font-family="Helvetica,sans-Serif" font-size="10.00" fill="#000000">nonregular</text>
</a>
</g>
</g>
<!-- Node592&#45;&gt;Node593 -->
<g id="edge44" class="edge">
<title>Node592&#45;&gt;Node593</title>
<path fill="none" stroke="#191970" d="M348.3373,-142.5292C360.0251,-113.9414 385.4514,-60.5885 423,-29 427.7576,-24.9976 433.4649,-21.7634 439.2467,-19.1765"/>
<polygon fill="#191970" stroke="#191970" points="344.9457,-141.5894 344.5339,-152.1762 351.4579,-144.1569 344.9457,-141.5894"/>
</g>
<!-- Node594 -->
<g id="node28" class="node">
<title>Node594</title>
<g id="a_node28"><a xlink:href="triangle_8cpp.html#a8ab6fa4f05809e4cb6838ba724de2f88" target="_top" xlink:title="triangulatepolygon">
<polygon fill="#ffffff" stroke="#000000" points="423,-152.5 423,-171.5 518,-171.5 518,-152.5 423,-152.5"/>
<text text-anchor="middle" x="470.5" y="-159.5" font-family="Helvetica,sans-Serif" font-size="10.00" fill="#000000">triangulatepolygon</text>
</a>
</g>
</g>
<!-- Node592&#45;&gt;Node594 -->
<g id="edge46" class="edge">
<title>Node592&#45;&gt;Node594</title>
<path fill="none" stroke="#191970" d="M374.8566,-162C389.4827,-162 406.8556,-162 422.756,-162"/>
<polygon fill="#191970" stroke="#191970" points="374.7523,-158.5001 364.7523,-162 374.7523,-165.5001 374.7523,-158.5001"/>
</g>
<!-- Node595 -->
<g id="node29" class="node">
<title>Node595</title>
<g id="a_node29"><a xlink:href="triangle_8cpp.html#a9a6911e4ef926cd4546bb41819b1c8c5" target="_top" xlink:title="deletevertex">
<polygon fill="#ffffff" stroke="#000000" points="564,-152.5 564,-171.5 634,-171.5 634,-152.5 564,-152.5"/>
<text text-anchor="middle" x="599" y="-159.5" font-family="Helvetica,sans-Serif" font-size="10.00" fill="#000000">deletevertex</text>
</a>
</g>
</g>
<!-- Node594&#45;&gt;Node595 -->
<g id="edge47" class="edge">
<title>Node594&#45;&gt;Node595</title>
<path fill="none" stroke="#191970" d="M528.4243,-162C540.5498,-162 552.9788,-162 563.9611,-162"/>
<polygon fill="#191970" stroke="#191970" points="528.3487,-158.5001 518.3487,-162 528.3486,-165.5001 528.3487,-158.5001"/>
</g>
<!-- Node595&#45;&gt;Node581 -->
<g id="edge48" class="edge">
<title>Node595&#45;&gt;Node581</title>
<path fill="none" stroke="#191970" d="M636.2429,-175.0324C671.7826,-188.2883 726.1095,-210.727 769,-238 800.3435,-257.9306 832.0917,-288.4727 847.4707,-304.0761"/>
<polygon fill="#191970" stroke="#191970" points="637.3357,-171.7052 626.7422,-171.5407 634.921,-178.2755 637.3357,-171.7052"/>
</g>
<!-- Node597 -->
<g id="node31" class="node">
<title>Node597</title>
<g id="a_node31"><a xlink:href="triangle_8cpp.html#af2ba7764908abd3e47edf9d18b7a06d8" target="_top" xlink:title="orient3d">
<polygon fill="#ffffff" stroke="#000000" points="315.5,-29.5 315.5,-48.5 366.5,-48.5 366.5,-29.5 315.5,-29.5"/>
<text text-anchor="middle" x="341" y="-36.5" font-family="Helvetica,sans-Serif" font-size="10.00" fill="#000000">orient3d</text>
</a>
</g>
</g>
<!-- Node596&#45;&gt;Node597 -->
<g id="edge52" class="edge">
<title>Node596&#45;&gt;Node597</title>
<path fill="none" stroke="#191970" d="M233.7671,-82.6591C259.4439,-72.205 294.548,-57.9126 317.4907,-48.5716"/>
<polygon fill="#191970" stroke="#191970" points="232.3748,-79.4469 224.4329,-86.4595 235.0145,-85.9302 232.3748,-79.4469"/>
</g>
<!-- Node597&#45;&gt;Node593 -->
<g id="edge53" class="edge">
<title>Node597&#45;&gt;Node593</title>
<path fill="none" stroke="#191970" d="M376.4327,-31.0653C396.1681,-26.6457 420.5097,-21.1947 439.4867,-16.9451"/>
<polygon fill="#191970" stroke="#191970" points="375.5785,-27.6698 366.585,-33.2705 377.1082,-34.5006 375.5785,-27.6698"/>
</g>
</g>
</svg>
