<?xml version="1.0" encoding="UTF-8" standalone="no"?>
<!DOCTYPE svg PUBLIC "-//W3C//DTD SVG 1.1//EN"
 "http://www.w3.org/Graphics/SVG/1.1/DTD/svg11.dtd">
<!-- Generated by graphviz version 2.40.1 (20161225.0304)
 -->
<!-- Title: scale_expansion_zeroelim Pages: 1 -->
<svg width="857pt" height="275pt"
 viewBox="0.00 0.00 857.00 275.00" xmlns="http://www.w3.org/2000/svg" xmlns:xlink="http://www.w3.org/1999/xlink">
<g id="graph0" class="graph" transform="scale(1 1) rotate(0) translate(4 271)">
<title>scale_expansion_zeroelim</title>
<polygon fill="#ffffff" stroke="transparent" points="-4,4 -4,-271 853,-271 853,4 -4,4"/>
<!-- Node634 -->
<g id="node1" class="node">
<title>Node634</title>
<polygon fill="#bfbfbf" stroke="#000000" points="0,-211.5 0,-230.5 131,-230.5 131,-211.5 0,-211.5"/>
<text text-anchor="middle" x="65.5" y="-218.5" font-family="Helvetica,sans-Serif" font-size="10.00" fill="#000000">scale_expansion_zeroelim</text>
</g>
<!-- Node635 -->
<g id="node2" class="node">
<title>Node635</title>
<g id="a_node2"><a xlink:href="triangle_8cpp.html#ade6dfff2bcdf2f287e419bc4e2a211dc" target="_top" xlink:title="incircleadapt">
<polygon fill="#ffffff" stroke="#000000" points="169,-192.5 169,-211.5 240,-211.5 240,-192.5 169,-192.5"/>
<text text-anchor="middle" x="204.5" y="-199.5" font-family="Helvetica,sans-Serif" font-size="10.00" fill="#000000">incircleadapt</text>
</a>
</g>
</g>
<!-- Node634&#45;&gt;Node635 -->
<g id="edge1" class="edge">
<title>Node634&#45;&gt;Node635</title>
<path fill="none" stroke="#191970" d="M141.3256,-210.6353C150.8847,-209.3287 160.2829,-208.0441 168.7887,-206.8814"/>
<polygon fill="#191970" stroke="#191970" points="140.7703,-207.1786 131.3365,-212.0008 141.7184,-214.1141 140.7703,-207.1786"/>
</g>
<!-- Node659 -->
<g id="node19" class="node">
<title>Node659</title>
<g id="a_node19"><a xlink:href="triangle_8cpp.html#a49551af03108d1d44d1ff70af93dbdfd" target="_top" xlink:title="orient3dadapt">
<polygon fill="#ffffff" stroke="#000000" points="167,-239.5 167,-258.5 242,-258.5 242,-239.5 167,-239.5"/>
<text text-anchor="middle" x="204.5" y="-246.5" font-family="Helvetica,sans-Serif" font-size="10.00" fill="#000000">orient3dadapt</text>
</a>
</g>
</g>
<!-- Node634&#45;&gt;Node659 -->
<g id="edge23" class="edge">
<title>Node634&#45;&gt;Node659</title>
<path fill="none" stroke="#191970" d="M123.0447,-232.5917C137.852,-235.5745 153.4057,-238.7076 166.9075,-241.4274"/>
<polygon fill="#191970" stroke="#191970" points="123.4414,-229.1014 112.9471,-230.5577 122.0591,-235.9636 123.4414,-229.1014"/>
</g>
<!-- Node636 -->
<g id="node3" class="node">
<title>Node636</title>
<g id="a_node3"><a xlink:href="triangle_8cpp.html#abbd721e83ed16c99082c2152fa55e2ee" target="_top" xlink:title="incircle">
<polygon fill="#ffffff" stroke="#000000" points="280,-173.5 280,-192.5 327,-192.5 327,-173.5 280,-173.5"/>
<text text-anchor="middle" x="303.5" y="-180.5" font-family="Helvetica,sans-Serif" font-size="10.00" fill="#000000">incircle</text>
</a>
</g>
</g>
<!-- Node635&#45;&gt;Node636 -->
<g id="edge2" class="edge">
<title>Node635&#45;&gt;Node636</title>
<path fill="none" stroke="#191970" d="M250.3277,-193.2048C260.5491,-191.2431 270.9805,-189.2411 279.8657,-187.5359"/>
<polygon fill="#191970" stroke="#191970" points="249.4023,-189.8184 240.2413,-195.1406 250.7218,-196.693 249.4023,-189.8184"/>
</g>
<!-- Node637 -->
<g id="node4" class="node">
<title>Node637</title>
<g id="a_node4"><a xlink:href="triangle_8cpp.html#ac8f560afde1cc801e155bf3bcd1ed35b" target="_top" xlink:title="nonregular">
<polygon fill="#ffffff" stroke="#000000" points="381.5,-247.5 381.5,-266.5 443.5,-266.5 443.5,-247.5 381.5,-247.5"/>
<text text-anchor="middle" x="412.5" y="-254.5" font-family="Helvetica,sans-Serif" font-size="10.00" fill="#000000">nonregular</text>
</a>
</g>
</g>
<!-- Node636&#45;&gt;Node637 -->
<g id="edge3" class="edge">
<title>Node636&#45;&gt;Node637</title>
<path fill="none" stroke="#191970" d="M319.5036,-200.1977C331.2221,-212.0285 347.9878,-227.4504 365,-238 370.7367,-241.5574 377.2536,-244.6772 383.5819,-247.3056"/>
<polygon fill="#191970" stroke="#191970" points="321.7179,-197.452 312.2561,-192.685 316.68,-202.312 321.7179,-197.452"/>
</g>
<!-- Node638 -->
<g id="node5" class="node">
<title>Node638</title>
<g id="a_node5"><a xlink:href="triangle_8cpp.html#a2ede94743503e369e9b1c6c2a0ac9f7f" target="_top" xlink:title="insertvertex">
<polygon fill="#ffffff" stroke="#000000" points="378.5,-114.5 378.5,-133.5 446.5,-133.5 446.5,-114.5 378.5,-114.5"/>
<text text-anchor="middle" x="412.5" y="-121.5" font-family="Helvetica,sans-Serif" font-size="10.00" fill="#000000">insertvertex</text>
</a>
</g>
</g>
<!-- Node636&#45;&gt;Node638 -->
<g id="edge4" class="edge">
<title>Node636&#45;&gt;Node638</title>
<path fill="none" stroke="#191970" d="M330.4702,-168.4014C350.5595,-157.5274 377.4165,-142.9901 394.8358,-133.5614"/>
<polygon fill="#191970" stroke="#191970" points="328.6274,-165.419 321.4991,-173.2573 331.9596,-171.5751 328.6274,-165.419"/>
</g>
<!-- Node652 -->
<g id="node13" class="node">
<title>Node652</title>
<g id="a_node13"><a xlink:href="triangle_8cpp.html#a8ab6fa4f05809e4cb6838ba724de2f88" target="_top" xlink:title="triangulatepolygon">
<polygon fill="#ffffff" stroke="#000000" points="365,-38.5 365,-57.5 460,-57.5 460,-38.5 365,-38.5"/>
<text text-anchor="middle" x="412.5" y="-45.5" font-family="Helvetica,sans-Serif" font-size="10.00" fill="#000000">triangulatepolygon</text>
</a>
</g>
</g>
<!-- Node636&#45;&gt;Node652 -->
<g id="edge15" class="edge">
<title>Node636&#45;&gt;Node652</title>
<path fill="none" stroke="#191970" d="M317.1506,-165.4089C329.5251,-149.5292 348.324,-125.5711 365,-105 378.6279,-88.189 394.8257,-68.8946 404.3514,-57.6161"/>
<polygon fill="#191970" stroke="#191970" points="314.3686,-163.2849 310.9911,-173.327 319.8938,-167.583 314.3686,-163.2849"/>
</g>
<!-- Node654 -->
<g id="node15" class="node">
<title>Node654</title>
<g id="a_node15"><a xlink:href="triangle_8cpp.html#a8b98b5137610f709b12bc0f9de701534" target="_top" xlink:title="mergehulls">
<polygon fill="#ffffff" stroke="#000000" points="380.5,-209.5 380.5,-228.5 444.5,-228.5 444.5,-209.5 380.5,-209.5"/>
<text text-anchor="middle" x="412.5" y="-216.5" font-family="Helvetica,sans-Serif" font-size="10.00" fill="#000000">mergehulls</text>
</a>
</g>
</g>
<!-- Node636&#45;&gt;Node654 -->
<g id="edge18" class="edge">
<title>Node636&#45;&gt;Node654</title>
<path fill="none" stroke="#191970" d="M336.9774,-194.0568C351.8361,-198.9642 369.1569,-204.6848 383.46,-209.4088"/>
<polygon fill="#191970" stroke="#191970" points="337.7446,-190.6242 327.1514,-190.8115 335.5492,-197.2711 337.7446,-190.6242"/>
</g>
<!-- Node658 -->
<g id="node18" class="node">
<title>Node658</title>
<g id="a_node18"><a xlink:href="triangle_8cpp.html#a4ea48503ae03dd0ab0e1c9dc926c3ce2" target="_top" xlink:title="delaunayfixup">
<polygon fill="#ffffff" stroke="#000000" points="509.5,-190.5 509.5,-209.5 586.5,-209.5 586.5,-190.5 509.5,-190.5"/>
<text text-anchor="middle" x="548" y="-197.5" font-family="Helvetica,sans-Serif" font-size="10.00" fill="#000000">delaunayfixup</text>
</a>
</g>
</g>
<!-- Node636&#45;&gt;Node658 -->
<g id="edge21" class="edge">
<title>Node636&#45;&gt;Node658</title>
<path fill="none" stroke="#191970" d="M337.5345,-185.3664C382.6039,-188.5001 461.8921,-194.013 509.2245,-197.304"/>
<polygon fill="#191970" stroke="#191970" points="337.6076,-181.8631 327.3889,-184.661 337.122,-188.8463 337.6076,-181.8631"/>
</g>
<!-- Node639 -->
<g id="node6" class="node">
<title>Node639</title>
<g id="a_node6"><a xlink:href="triangle_8cpp.html#a4e3735a2f4c1fa18deb1a2e66aeda7bd" target="_top" xlink:title="undovertex">
<polygon fill="#ffffff" stroke="#000000" points="515.5,-76.5 515.5,-95.5 580.5,-95.5 580.5,-76.5 515.5,-76.5"/>
<text text-anchor="middle" x="548" y="-83.5" font-family="Helvetica,sans-Serif" font-size="10.00" fill="#000000">undovertex</text>
</a>
</g>
</g>
<!-- Node638&#45;&gt;Node639 -->
<g id="edge5" class="edge">
<title>Node638&#45;&gt;Node639</title>
<path fill="none" stroke="#191970" d="M456.3912,-111.691C475.5187,-106.3269 497.555,-100.1469 515.2208,-95.1927"/>
<polygon fill="#191970" stroke="#191970" points="455.3758,-108.3407 446.6924,-114.411 457.266,-115.0807 455.3758,-108.3407"/>
</g>
<!-- Node640 -->
<g id="node7" class="node">
<title>Node640</title>
<g id="a_node7"><a xlink:href="triangle_8cpp.html#a48fc63d369d988c08cbe8ab40f0b8af5" target="_top" xlink:title="splittriangle">
<polygon fill="#ffffff" stroke="#000000" points="647.5,-76.5 647.5,-95.5 713.5,-95.5 713.5,-76.5 647.5,-76.5"/>
<text text-anchor="middle" x="680.5" y="-83.5" font-family="Helvetica,sans-Serif" font-size="10.00" fill="#000000">splittriangle</text>
</a>
</g>
</g>
<!-- Node638&#45;&gt;Node640 -->
<g id="edge14" class="edge">
<title>Node638&#45;&gt;Node640</title>
<path fill="none" stroke="#191970" d="M456.7998,-121.1524C494.9321,-118.3103 551.3349,-113.1727 600,-105 615.7191,-102.3602 632.9411,-98.4375 647.4074,-94.8407"/>
<polygon fill="#191970" stroke="#191970" points="456.2721,-117.6813 446.5507,-121.8938 456.7772,-124.6631 456.2721,-117.6813"/>
</g>
<!-- Node646 -->
<g id="node9" class="node">
<title>Node646</title>
<g id="a_node9"><a xlink:href="triangle_8cpp.html#a496c50bca0cf0c214a0204419c3b181a" target="_top" xlink:title="segmentintersection">
<polygon fill="#ffffff" stroke="#000000" points="496,-152.5 496,-171.5 600,-171.5 600,-152.5 496,-152.5"/>
<text text-anchor="middle" x="548" y="-159.5" font-family="Helvetica,sans-Serif" font-size="10.00" fill="#000000">segmentintersection</text>
</a>
</g>
</g>
<!-- Node638&#45;&gt;Node646 -->
<g id="edge8" class="edge">
<title>Node638&#45;&gt;Node646</title>
<path fill="none" stroke="#191970" d="M456.4246,-136.3183C475.0414,-141.5393 496.4087,-147.5316 513.8186,-152.4141"/>
<polygon fill="#191970" stroke="#191970" points="457.266,-132.9193 446.6924,-133.589 455.3758,-139.6593 457.266,-132.9193"/>
</g>
<!-- Node651 -->
<g id="node12" class="node">
<title>Node651</title>
<g id="a_node12"><a xlink:href="triangle_8cpp.html#adca37fc9e90f78c9ae794662de5428bd" target="_top" xlink:title="splitencsegs">
<polygon fill="#ffffff" stroke="#000000" points="645,-38.5 645,-57.5 716,-57.5 716,-38.5 645,-38.5"/>
<text text-anchor="middle" x="680.5" y="-45.5" font-family="Helvetica,sans-Serif" font-size="10.00" fill="#000000">splitencsegs</text>
</a>
</g>
</g>
<!-- Node638&#45;&gt;Node651 -->
<g id="edge12" class="edge">
<title>Node638&#45;&gt;Node651</title>
<path fill="none" stroke="#191970" d="M430.8154,-107.479C446.7963,-94.107 471.2443,-76.0589 496,-67 545.2905,-48.963 606.6109,-46.1922 644.659,-46.5594"/>
<polygon fill="#191970" stroke="#191970" points="428.1469,-105.1585 422.8601,-114.34 432.7186,-110.4594 428.1469,-105.1585"/>
</g>
<!-- Node639&#45;&gt;Node640 -->
<g id="edge6" class="edge">
<title>Node639&#45;&gt;Node640</title>
<path fill="none" stroke="#191970" d="M590.8626,-86C609.134,-86 630.1281,-86 647.2036,-86"/>
<polygon fill="#191970" stroke="#191970" points="590.7529,-82.5001 580.7528,-86 590.7528,-89.5001 590.7529,-82.5001"/>
</g>
<!-- Node641 -->
<g id="node8" class="node">
<title>Node641</title>
<g id="a_node8"><a xlink:href="triangle_8cpp.html#a5a654ff6b304f2166c64ffe9183b2995" target="_top" xlink:title="enforcequality">
<polygon fill="#ffffff" stroke="#ff0000" points="766.5,-57.5 766.5,-76.5 843.5,-76.5 843.5,-57.5 766.5,-57.5"/>
<text text-anchor="middle" x="805" y="-64.5" font-family="Helvetica,sans-Serif" font-size="10.00" fill="#000000">enforcequality</text>
</a>
</g>
</g>
<!-- Node640&#45;&gt;Node641 -->
<g id="edge7" class="edge">
<title>Node640&#45;&gt;Node641</title>
<path fill="none" stroke="#191970" d="M723.7386,-79.4013C737.495,-77.302 752.6216,-74.9935 766.0556,-72.9433"/>
<polygon fill="#191970" stroke="#191970" points="722.8943,-75.9896 713.5369,-80.9582 723.9504,-82.9095 722.8943,-75.9896"/>
</g>
<!-- Node647 -->
<g id="node10" class="node">
<title>Node647</title>
<g id="a_node10"><a xlink:href="triangle_8cpp.html#ae9d4ed09a0fd07959568ba5f86cc4d0c" target="_top" xlink:title="scoutsegment">
<polygon fill="#ffffff" stroke="#ff0000" points="641.5,-152.5 641.5,-171.5 719.5,-171.5 719.5,-152.5 641.5,-152.5"/>
<text text-anchor="middle" x="680.5" y="-159.5" font-family="Helvetica,sans-Serif" font-size="10.00" fill="#000000">scoutsegment</text>
</a>
</g>
</g>
<!-- Node646&#45;&gt;Node647 -->
<g id="edge9" class="edge">
<title>Node646&#45;&gt;Node647</title>
<path fill="none" stroke="#191970" d="M610.6821,-162C621.0738,-162 631.5829,-162 641.1827,-162"/>
<polygon fill="#191970" stroke="#191970" points="610.3675,-158.5001 600.3675,-162 610.3675,-165.5001 610.3675,-158.5001"/>
</g>
<!-- Node648 -->
<g id="node11" class="node">
<title>Node648</title>
<g id="a_node11"><a xlink:href="triangle_8cpp.html#aded205ef0849b44d2a587f53fd720618" target="_top" xlink:title="constrainededge">
<polygon fill="#ffffff" stroke="#ff0000" points="761,-152.5 761,-171.5 849,-171.5 849,-152.5 761,-152.5"/>
<text text-anchor="middle" x="805" y="-159.5" font-family="Helvetica,sans-Serif" font-size="10.00" fill="#000000">constrainededge</text>
</a>
</g>
</g>
<!-- Node646&#45;&gt;Node648 -->
<g id="edge11" class="edge">
<title>Node646&#45;&gt;Node648</title>
<path fill="none" stroke="#191970" d="M593.7147,-150.2021C607.234,-147.2379 622.1292,-144.4804 636,-143 675.3322,-138.8023 685.713,-138.3987 725,-143 740.8797,-144.8598 758.1772,-148.729 772.6124,-152.4934"/>
<polygon fill="#191970" stroke="#191970" points="592.6549,-146.8539 583.6844,-152.4914 594.2125,-153.6784 592.6549,-146.8539"/>
</g>
<!-- Node647&#45;&gt;Node648 -->
<g id="edge10" class="edge">
<title>Node647&#45;&gt;Node648</title>
<path fill="none" stroke="#191970" d="M729.6484,-162C739.9578,-162 750.7693,-162 760.8814,-162"/>
<polygon fill="#191970" stroke="#191970" points="729.551,-158.5001 719.551,-162 729.551,-165.5001 729.551,-158.5001"/>
</g>
<!-- Node651&#45;&gt;Node641 -->
<g id="edge13" class="edge">
<title>Node651&#45;&gt;Node641</title>
<path fill="none" stroke="#191970" d="M726.4094,-55.0063C739.5072,-57.0051 753.6436,-59.1625 766.2673,-61.089"/>
<polygon fill="#191970" stroke="#191970" points="726.5903,-51.4934 716.1767,-53.4446 725.5342,-58.4133 726.5903,-51.4934"/>
</g>
<!-- Node653 -->
<g id="node14" class="node">
<title>Node653</title>
<g id="a_node14"><a xlink:href="triangle_8cpp.html#a9a6911e4ef926cd4546bb41819b1c8c5" target="_top" xlink:title="deletevertex">
<polygon fill="#ffffff" stroke="#000000" points="513,-.5 513,-19.5 583,-19.5 583,-.5 513,-.5"/>
<text text-anchor="middle" x="548" y="-7.5" font-family="Helvetica,sans-Serif" font-size="10.00" fill="#000000">deletevertex</text>
</a>
</g>
</g>
<!-- Node652&#45;&gt;Node653 -->
<g id="edge16" class="edge">
<title>Node652&#45;&gt;Node653</title>
<path fill="none" stroke="#191970" d="M456.4246,-35.6817C475.0414,-30.4607 496.4087,-24.4684 513.8186,-19.5859"/>
<polygon fill="#191970" stroke="#191970" points="455.3758,-32.3407 446.6924,-38.411 457.266,-39.0807 455.3758,-32.3407"/>
</g>
<!-- Node653&#45;&gt;Node651 -->
<g id="edge17" class="edge">
<title>Node653&#45;&gt;Node651</title>
<path fill="none" stroke="#191970" d="M591.2039,-22.3906C609.3492,-27.5945 630.1294,-33.5541 647.0754,-38.4141"/>
<polygon fill="#191970" stroke="#191970" points="592.0127,-18.9815 581.4353,-19.589 590.0829,-25.7102 592.0127,-18.9815"/>
</g>
<!-- Node655 -->
<g id="node16" class="node">
<title>Node655</title>
<g id="a_node16"><a xlink:href="triangle_8cpp.html#ae64549179195e9fea8a3589a003e44ac" target="_top" xlink:title="divconqrecurse">
<polygon fill="#ffffff" stroke="#000000" points="506.5,-228.5 506.5,-247.5 589.5,-247.5 589.5,-228.5 506.5,-228.5"/>
<text text-anchor="middle" x="548" y="-235.5" font-family="Helvetica,sans-Serif" font-size="10.00" fill="#000000">divconqrecurse</text>
</a>
</g>
</g>
<!-- Node654&#45;&gt;Node655 -->
<g id="edge19" class="edge">
<title>Node654&#45;&gt;Node655</title>
<path fill="none" stroke="#191970" d="M454.5296,-224.8935C471.0234,-227.2062 489.9055,-229.8539 506.3612,-232.1613"/>
<polygon fill="#191970" stroke="#191970" points="455.0008,-221.4254 444.6116,-223.5027 454.0287,-228.3575 455.0008,-221.4254"/>
</g>
<!-- Node656 -->
<g id="node17" class="node">
<title>Node656</title>
<g id="a_node17"><a xlink:href="triangle_8cpp.html#a4a13891380126c239a32b46c88f06223" target="_top" xlink:title="divconqdelaunay">
<polygon fill="#ffffff" stroke="#ff0000" points="636,-228.5 636,-247.5 725,-247.5 725,-228.5 636,-228.5"/>
<text text-anchor="middle" x="680.5" y="-235.5" font-family="Helvetica,sans-Serif" font-size="10.00" fill="#000000">divconqdelaunay</text>
</a>
</g>
</g>
<!-- Node655&#45;&gt;Node656 -->
<g id="edge20" class="edge">
<title>Node655&#45;&gt;Node656</title>
<path fill="none" stroke="#191970" d="M599.8187,-238C611.7308,-238 624.297,-238 635.8739,-238"/>
<polygon fill="#191970" stroke="#191970" points="599.5603,-234.5001 589.5603,-238 599.5603,-241.5001 599.5603,-234.5001"/>
</g>
<!-- Node658&#45;&gt;Node648 -->
<g id="edge22" class="edge">
<title>Node658&#45;&gt;Node648</title>
<path fill="none" stroke="#191970" d="M596.6623,-196.4409C632.3483,-193.4274 681.8903,-188.4026 725,-181 739.4914,-178.5116 755.2722,-174.9499 768.9589,-171.5813"/>
<polygon fill="#191970" stroke="#191970" points="596.1984,-192.9671 586.5189,-197.2749 596.7721,-199.9436 596.1984,-192.9671"/>
</g>
<!-- Node660 -->
<g id="node20" class="node">
<title>Node660</title>
<g id="a_node20"><a xlink:href="triangle_8cpp.html#af2ba7764908abd3e47edf9d18b7a06d8" target="_top" xlink:title="orient3d">
<polygon fill="#ffffff" stroke="#000000" points="278,-244.5 278,-263.5 329,-263.5 329,-244.5 278,-244.5"/>
<text text-anchor="middle" x="303.5" y="-251.5" font-family="Helvetica,sans-Serif" font-size="10.00" fill="#000000">orient3d</text>
</a>
</g>
</g>
<!-- Node659&#45;&gt;Node660 -->
<g id="edge24" class="edge">
<title>Node659&#45;&gt;Node660</title>
<path fill="none" stroke="#191970" d="M252.4242,-251.4204C261.2075,-251.864 270.0571,-252.311 277.8652,-252.7053"/>
<polygon fill="#191970" stroke="#191970" points="252.3739,-247.9135 242.2101,-250.9045 252.0208,-254.9046 252.3739,-247.9135"/>
</g>
<!-- Node660&#45;&gt;Node637 -->
<g id="edge25" class="edge">
<title>Node660&#45;&gt;Node637</title>
<path fill="none" stroke="#191970" d="M339.4512,-254.9895C352.9692,-255.3615 368.2158,-255.7812 381.2695,-256.1404"/>
<polygon fill="#191970" stroke="#191970" points="339.1482,-251.4799 329.0557,-254.7034 338.9555,-258.4773 339.1482,-251.4799"/>
</g>
</g>
</svg>
