<?xml version="1.0" encoding="UTF-8" standalone="no"?>
<!DOCTYPE svg PUBLIC "-//W3C//DTD SVG 1.1//EN"
 "http://www.w3.org/Graphics/SVG/1.1/DTD/svg11.dtd">
<!-- Generated by graphviz version 2.40.1 (20161225.0304)
 -->
<!-- Title: removeghosts Pages: 1 -->
<svg width="302pt" height="28pt"
 viewBox="0.00 0.00 302.00 28.00" xmlns="http://www.w3.org/2000/svg" xmlns:xlink="http://www.w3.org/1999/xlink">
<g id="graph0" class="graph" transform="scale(1 1) rotate(0) translate(4 24)">
<title>removeghosts</title>
<polygon fill="#ffffff" stroke="transparent" points="-4,4 -4,-24 298,-24 298,4 -4,4"/>
<!-- Node1219 -->
<g id="node1" class="node">
<title>Node1219</title>
<polygon fill="#bfbfbf" stroke="#000000" points="0,-.5 0,-19.5 78,-19.5 78,-.5 0,-.5"/>
<text text-anchor="middle" x="39" y="-7.5" font-family="Helvetica,sans-Serif" font-size="10.00" fill="#000000">removeghosts</text>
</g>
<!-- Node1220 -->
<g id="node2" class="node">
<title>Node1220</title>
<g id="a_node2"><a xlink:href="triangle_8cpp.html#a3bd3bd17a942635e55f283dc27f32ddb" target="_top" xlink:title="triangledealloc">
<polygon fill="#ffffff" stroke="#000000" points="114,-.5 114,-19.5 193,-19.5 193,-.5 114,-.5"/>
<text text-anchor="middle" x="153.5" y="-7.5" font-family="Helvetica,sans-Serif" font-size="10.00" fill="#000000">triangledealloc</text>
</a>
</g>
</g>
<!-- Node1219&#45;&gt;Node1220 -->
<g id="edge1" class="edge">
<title>Node1219&#45;&gt;Node1220</title>
<path fill="none" stroke="#191970" d="M78.0842,-10C86.2825,-10 95.0352,-10 103.5675,-10"/>
<polygon fill="#191970" stroke="#191970" points="103.8137,-13.5001 113.8137,-10 103.8136,-6.5001 103.8137,-13.5001"/>
</g>
<!-- Node1221 -->
<g id="node3" class="node">
<title>Node1221</title>
<g id="a_node3"><a xlink:href="triangle_8cpp.html#a3f4425b06c516b9f5d647a1384c74d51" target="_top" xlink:title="pooldealloc">
<polygon fill="#ffffff" stroke="#000000" points="229,-.5 229,-19.5 294,-19.5 294,-.5 229,-.5"/>
<text text-anchor="middle" x="261.5" y="-7.5" font-family="Helvetica,sans-Serif" font-size="10.00" fill="#000000">pooldealloc</text>
</a>
</g>
</g>
<!-- Node1220&#45;&gt;Node1221 -->
<g id="edge2" class="edge">
<title>Node1220&#45;&gt;Node1221</title>
<path fill="none" stroke="#191970" d="M193.102,-10C201.4907,-10 210.3794,-10 218.8748,-10"/>
<polygon fill="#191970" stroke="#191970" points="218.9821,-13.5001 228.982,-10 218.982,-6.5001 218.9821,-13.5001"/>
</g>
</g>
</svg>
