<?xml version="1.0" encoding="UTF-8" standalone="no"?>
<!DOCTYPE svg PUBLIC "-//W3C//DTD SVG 1.1//EN"
 "http://www.w3.org/Graphics/SVG/1.1/DTD/svg11.dtd">
<!-- Generated by graphviz version 2.40.1 (20161225.0304)
 -->
<!-- Title: findcircumcenter Pages: 1 -->
<svg width="751pt" height="66pt"
 viewBox="0.00 0.00 751.00 66.00" xmlns="http://www.w3.org/2000/svg" xmlns:xlink="http://www.w3.org/1999/xlink">
<g id="graph0" class="graph" transform="scale(1 1) rotate(0) translate(4 62)">
<title>findcircumcenter</title>
<polygon fill="#ffffff" stroke="transparent" points="-4,4 -4,-62 747,-62 747,4 -4,4"/>
<!-- Node849 -->
<g id="node1" class="node">
<title>Node849</title>
<polygon fill="#bfbfbf" stroke="#000000" points="0,-19.5 0,-38.5 89,-38.5 89,-19.5 0,-19.5"/>
<text text-anchor="middle" x="44.5" y="-26.5" font-family="Helvetica,sans-Serif" font-size="10.00" fill="#000000">findcircumcenter</text>
</g>
<!-- Node850 -->
<g id="node2" class="node">
<title>Node850</title>
<g id="a_node2"><a xlink:href="triangle_8cpp.html#a48fc63d369d988c08cbe8ab40f0b8af5" target="_top" xlink:title="splittriangle">
<polygon fill="#ffffff" stroke="#000000" points="125,-38.5 125,-57.5 191,-57.5 191,-38.5 125,-38.5"/>
<text text-anchor="middle" x="158" y="-45.5" font-family="Helvetica,sans-Serif" font-size="10.00" fill="#000000">splittriangle</text>
</a>
</g>
</g>
<!-- Node849&#45;&gt;Node850 -->
<g id="edge1" class="edge">
<title>Node849&#45;&gt;Node850</title>
<path fill="none" stroke="#191970" d="M98.9375,-38.1129C107.7795,-39.593 116.6964,-41.0857 124.8278,-42.4469"/>
<polygon fill="#191970" stroke="#191970" points="99.4731,-34.6539 89.0324,-36.4548 98.3173,-41.5579 99.4731,-34.6539"/>
</g>
<!-- Node856 -->
<g id="node7" class="node">
<title>Node856</title>
<g id="a_node7"><a xlink:href="triangle_8cpp.html#a63c072a0ec5fd1e7ab2f23ecc4dd576a" target="_top" xlink:title="writevoronoi">
<polygon fill="#ffffff" stroke="#000000" points="231,-.5 231,-19.5 300,-19.5 300,-.5 231,-.5"/>
<text text-anchor="middle" x="265.5" y="-7.5" font-family="Helvetica,sans-Serif" font-size="10.00" fill="#000000">writevoronoi</text>
</a>
</g>
</g>
<!-- Node849&#45;&gt;Node856 -->
<g id="edge6" class="edge">
<title>Node849&#45;&gt;Node856</title>
<path fill="none" stroke="#191970" d="M99.379,-24.2819C140.5921,-20.7387 195.7692,-15.995 230.9839,-12.9674"/>
<polygon fill="#191970" stroke="#191970" points="98.8861,-20.8113 89.2226,-25.1551 99.4857,-27.7855 98.8861,-20.8113"/>
</g>
<!-- Node851 -->
<g id="node3" class="node">
<title>Node851</title>
<g id="a_node3"><a xlink:href="triangle_8cpp.html#a5a654ff6b304f2166c64ffe9183b2995" target="_top" xlink:title="enforcequality">
<polygon fill="#ffffff" stroke="#000000" points="227,-38.5 227,-57.5 304,-57.5 304,-38.5 227,-38.5"/>
<text text-anchor="middle" x="265.5" y="-45.5" font-family="Helvetica,sans-Serif" font-size="10.00" fill="#000000">enforcequality</text>
</a>
</g>
</g>
<!-- Node850&#45;&gt;Node851 -->
<g id="edge2" class="edge">
<title>Node850&#45;&gt;Node851</title>
<path fill="none" stroke="#191970" d="M201.1635,-48C209.5833,-48 218.3639,-48 226.6342,-48"/>
<polygon fill="#191970" stroke="#191970" points="201.1307,-44.5001 191.1307,-48 201.1307,-51.5001 201.1307,-44.5001"/>
</g>
<!-- Node852 -->
<g id="node4" class="node">
<title>Node852</title>
<g id="a_node4"><a xlink:href="triangle_8hpp.html#a4ca59bf5fe569672944651426b662ba6" target="_top" xlink:title="Call Triangle. ">
<polygon fill="#ffffff" stroke="#000000" points="340,-19.5 340,-38.5 402,-38.5 402,-19.5 340,-19.5"/>
<text text-anchor="middle" x="371" y="-26.5" font-family="Helvetica,sans-Serif" font-size="10.00" fill="#000000">triangulate</text>
</a>
</g>
</g>
<!-- Node851&#45;&gt;Node852 -->
<g id="edge3" class="edge">
<title>Node851&#45;&gt;Node852</title>
<path fill="none" stroke="#191970" d="M314.2905,-39.2131C323.0043,-37.6438 331.863,-36.0484 339.9082,-34.5995"/>
<polygon fill="#191970" stroke="#191970" points="313.4065,-35.8159 304.1852,-41.033 314.6473,-42.7051 313.4065,-35.8159"/>
</g>
<!-- Node853 -->
<g id="node5" class="node">
<title>Node853</title>
<g id="a_node5"><a xlink:href="classRiver_1_1Triangle.html#a0dae20b40d446e6009a88543e2c14daf" target="_top" xlink:title="Generate mesh. ">
<polygon fill="#ffffff" stroke="#000000" points="438,-19.5 438,-38.5 562,-38.5 562,-19.5 438,-19.5"/>
<text text-anchor="middle" x="500" y="-26.5" font-family="Helvetica,sans-Serif" font-size="10.00" fill="#000000">River::Triangle::generate</text>
</a>
</g>
</g>
<!-- Node852&#45;&gt;Node853 -->
<g id="edge4" class="edge">
<title>Node852&#45;&gt;Node853</title>
<path fill="none" stroke="#191970" d="M412.2629,-29C420.4682,-29 429.2527,-29 437.9767,-29"/>
<polygon fill="#191970" stroke="#191970" points="412.2273,-25.5001 402.2273,-29 412.2273,-32.5001 412.2273,-25.5001"/>
</g>
<!-- Node854 -->
<g id="node6" class="node">
<title>Node854</title>
<g id="a_node6"><a xlink:href="namespaceRiver.html#af1a3f7c61809dd8032e4ff5920da83cc" target="_top" xlink:title="One step of forward river evolution. ">
<polygon fill="#ffffff" stroke="#ff0000" points="598,-19.5 598,-38.5 743,-38.5 743,-19.5 598,-19.5"/>
<text text-anchor="middle" x="670.5" y="-26.5" font-family="Helvetica,sans-Serif" font-size="10.00" fill="#000000">River::ForwardRiverEvolution</text>
</a>
</g>
</g>
<!-- Node853&#45;&gt;Node854 -->
<g id="edge5" class="edge">
<title>Node853&#45;&gt;Node854</title>
<path fill="none" stroke="#191970" d="M572.2431,-29C580.7006,-29 589.333,-29 597.7967,-29"/>
<polygon fill="#191970" stroke="#191970" points="572.0368,-25.5001 562.0367,-29 572.0367,-32.5001 572.0368,-25.5001"/>
</g>
<!-- Node856&#45;&gt;Node852 -->
<g id="edge7" class="edge">
<title>Node856&#45;&gt;Node852</title>
<path fill="none" stroke="#191970" d="M309.9417,-18.0037C320.0341,-19.8213 330.5427,-21.7138 339.9394,-23.4061"/>
<polygon fill="#191970" stroke="#191970" points="310.5067,-14.5492 300.0446,-16.2213 309.2659,-21.4384 310.5067,-14.5492"/>
</g>
</g>
</svg>
