<?xml version="1.0" encoding="UTF-8" standalone="no"?>
<!DOCTYPE svg PUBLIC "-//W3C//DTD SVG 1.1//EN"
 "http://www.w3.org/Graphics/SVG/1.1/DTD/svg11.dtd">
<!-- Generated by graphviz version 2.40.1 (20161225.0304)
 -->
<!-- Title: unflip Pages: 1 -->
<svg width="622pt" height="28pt"
 viewBox="0.00 0.00 622.00 28.00" xmlns="http://www.w3.org/2000/svg" xmlns:xlink="http://www.w3.org/1999/xlink">
<g id="graph0" class="graph" transform="scale(1 1) rotate(0) translate(4 24)">
<title>unflip</title>
<polygon fill="#ffffff" stroke="transparent" points="-4,4 -4,-24 618,-24 618,4 -4,4"/>
<!-- Node1080 -->
<g id="node1" class="node">
<title>Node1080</title>
<polygon fill="#bfbfbf" stroke="#000000" points="0,-.5 0,-19.5 40,-19.5 40,-.5 0,-.5"/>
<text text-anchor="middle" x="20" y="-7.5" font-family="Helvetica,sans-Serif" font-size="10.00" fill="#000000">unflip</text>
</g>
<!-- Node1081 -->
<g id="node2" class="node">
<title>Node1081</title>
<g id="a_node2"><a xlink:href="triangle_8cpp.html#a4e3735a2f4c1fa18deb1a2e66aeda7bd" target="_top" xlink:title="undovertex">
<polygon fill="#ffffff" stroke="#000000" points="76,-.5 76,-19.5 141,-19.5 141,-.5 76,-.5"/>
<text text-anchor="middle" x="108.5" y="-7.5" font-family="Helvetica,sans-Serif" font-size="10.00" fill="#000000">undovertex</text>
</a>
</g>
</g>
<!-- Node1080&#45;&gt;Node1081 -->
<g id="edge1" class="edge">
<title>Node1080&#45;&gt;Node1081</title>
<path fill="none" stroke="#191970" d="M50.3073,-10C58.4769,-10 67.3527,-10 75.654,-10"/>
<polygon fill="#191970" stroke="#191970" points="50.0821,-6.5001 40.082,-10 50.082,-13.5001 50.0821,-6.5001"/>
</g>
<!-- Node1082 -->
<g id="node3" class="node">
<title>Node1082</title>
<g id="a_node3"><a xlink:href="triangle_8cpp.html#a48fc63d369d988c08cbe8ab40f0b8af5" target="_top" xlink:title="splittriangle">
<polygon fill="#ffffff" stroke="#000000" points="177,-.5 177,-19.5 243,-19.5 243,-.5 177,-.5"/>
<text text-anchor="middle" x="210" y="-7.5" font-family="Helvetica,sans-Serif" font-size="10.00" fill="#000000">splittriangle</text>
</a>
</g>
</g>
<!-- Node1081&#45;&gt;Node1082 -->
<g id="edge2" class="edge">
<title>Node1081&#45;&gt;Node1082</title>
<path fill="none" stroke="#191970" d="M151.3065,-10C159.7909,-10 168.579,-10 176.6904,-10"/>
<polygon fill="#191970" stroke="#191970" points="151.174,-6.5001 141.1739,-10 151.1739,-13.5001 151.174,-6.5001"/>
</g>
<!-- Node1083 -->
<g id="node4" class="node">
<title>Node1083</title>
<g id="a_node4"><a xlink:href="triangle_8cpp.html#a5a654ff6b304f2166c64ffe9183b2995" target="_top" xlink:title="enforcequality">
<polygon fill="#ffffff" stroke="#000000" points="279,-.5 279,-19.5 356,-19.5 356,-.5 279,-.5"/>
<text text-anchor="middle" x="317.5" y="-7.5" font-family="Helvetica,sans-Serif" font-size="10.00" fill="#000000">enforcequality</text>
</a>
</g>
</g>
<!-- Node1082&#45;&gt;Node1083 -->
<g id="edge3" class="edge">
<title>Node1082&#45;&gt;Node1083</title>
<path fill="none" stroke="#191970" d="M253.1635,-10C261.5833,-10 270.3639,-10 278.6342,-10"/>
<polygon fill="#191970" stroke="#191970" points="253.1307,-6.5001 243.1307,-10 253.1307,-13.5001 253.1307,-6.5001"/>
</g>
<!-- Node1084 -->
<g id="node5" class="node">
<title>Node1084</title>
<g id="a_node5"><a xlink:href="triangle_8hpp.html#a4ca59bf5fe569672944651426b662ba6" target="_top" xlink:title="Call Triangle. ">
<polygon fill="#ffffff" stroke="#000000" points="392,-.5 392,-19.5 454,-19.5 454,-.5 392,-.5"/>
<text text-anchor="middle" x="423" y="-7.5" font-family="Helvetica,sans-Serif" font-size="10.00" fill="#000000">triangulate</text>
</a>
</g>
</g>
<!-- Node1083&#45;&gt;Node1084 -->
<g id="edge4" class="edge">
<title>Node1083&#45;&gt;Node1084</title>
<path fill="none" stroke="#191970" d="M366.2905,-10C375.0043,-10 383.863,-10 391.9082,-10"/>
<polygon fill="#191970" stroke="#191970" points="366.1853,-6.5001 356.1852,-10 366.1852,-13.5001 366.1853,-6.5001"/>
</g>
<!-- Node1085 -->
<g id="node6" class="node">
<title>Node1085</title>
<g id="a_node6"><a xlink:href="classRiver_1_1Triangle.html#a0dae20b40d446e6009a88543e2c14daf" target="_top" xlink:title="Generate mesh. ">
<polygon fill="#ffffff" stroke="#ff0000" points="490,-.5 490,-19.5 614,-19.5 614,-.5 490,-.5"/>
<text text-anchor="middle" x="552" y="-7.5" font-family="Helvetica,sans-Serif" font-size="10.00" fill="#000000">River::Triangle::generate</text>
</a>
</g>
</g>
<!-- Node1084&#45;&gt;Node1085 -->
<g id="edge5" class="edge">
<title>Node1084&#45;&gt;Node1085</title>
<path fill="none" stroke="#191970" d="M464.2629,-10C472.4682,-10 481.2527,-10 489.9767,-10"/>
<polygon fill="#191970" stroke="#191970" points="464.2273,-6.5001 454.2273,-10 464.2273,-13.5001 464.2273,-6.5001"/>
</g>
</g>
</svg>
