<?xml version="1.0" encoding="UTF-8" standalone="no"?>
<!DOCTYPE svg PUBLIC "-//W3C//DTD SVG 1.1//EN"
 "http://www.w3.org/Graphics/SVG/1.1/DTD/svg11.dtd">
<!-- Generated by graphviz version 2.40.1 (20161225.0304)
 -->
<!-- Title: triunsuitable Pages: 1 -->
<svg width="801pt" height="237pt"
 viewBox="0.00 0.00 801.00 237.00" xmlns="http://www.w3.org/2000/svg" xmlns:xlink="http://www.w3.org/1999/xlink">
<g id="graph0" class="graph" transform="scale(1 1) rotate(0) translate(4 233)">
<title>triunsuitable</title>
<polygon fill="#ffffff" stroke="transparent" points="-4,4 -4,-233 797,-233 797,4 -4,4"/>
<!-- Node8 -->
<g id="node1" class="node">
<title>Node8</title>
<polygon fill="#bfbfbf" stroke="#000000" points="0,-57.5 0,-76.5 69,-76.5 69,-57.5 0,-57.5"/>
<text text-anchor="middle" x="34.5" y="-64.5" font-family="Helvetica,sans-Serif" font-size="10.00" fill="#000000">triunsuitable</text>
</g>
<!-- Node9 -->
<g id="node2" class="node">
<title>Node9</title>
<g id="a_node2"><a xlink:href="triangle_8cpp.html#a816cae4d440df52b7bc162b05f92cc75" target="_top" xlink:title="testtriangle">
<polygon fill="#ffffff" stroke="#000000" points="105,-57.5 105,-76.5 170,-76.5 170,-57.5 105,-57.5"/>
<text text-anchor="middle" x="137.5" y="-64.5" font-family="Helvetica,sans-Serif" font-size="10.00" fill="#000000">testtriangle</text>
</a>
</g>
</g>
<!-- Node8&#45;&gt;Node9 -->
<g id="edge1" class="edge">
<title>Node8&#45;&gt;Node9</title>
<path fill="none" stroke="#191970" d="M79.0912,-67C87.7718,-67 96.719,-67 104.9223,-67"/>
<polygon fill="#191970" stroke="#191970" points="79.0841,-63.5001 69.084,-67 79.084,-70.5001 79.0841,-63.5001"/>
</g>
<!-- Node10 -->
<g id="node3" class="node">
<title>Node10</title>
<g id="a_node3"><a xlink:href="triangle_8cpp.html#a2ede94743503e369e9b1c6c2a0ac9f7f" target="_top" xlink:title="insertvertex">
<polygon fill="#ffffff" stroke="#000000" points="219.5,-114.5 219.5,-133.5 287.5,-133.5 287.5,-114.5 219.5,-114.5"/>
<text text-anchor="middle" x="253.5" y="-121.5" font-family="Helvetica,sans-Serif" font-size="10.00" fill="#000000">insertvertex</text>
</a>
</g>
</g>
<!-- Node9&#45;&gt;Node10 -->
<g id="edge2" class="edge">
<title>Node9&#45;&gt;Node10</title>
<path fill="none" stroke="#191970" d="M162.2511,-81.7207C175.0994,-89.107 191.1728,-97.9563 206,-105 212.8994,-108.2776 220.5238,-111.4973 227.6075,-114.3281"/>
<polygon fill="#191970" stroke="#191970" points="163.9334,-78.6502 153.5296,-76.6476 160.4138,-84.701 163.9334,-78.6502"/>
</g>
<!-- Node23 -->
<g id="node12" class="node">
<title>Node23</title>
<g id="a_node12"><a xlink:href="triangle_8cpp.html#a8ab6fa4f05809e4cb6838ba724de2f88" target="_top" xlink:title="triangulatepolygon">
<polygon fill="#ffffff" stroke="#000000" points="206,-76.5 206,-95.5 301,-95.5 301,-76.5 206,-76.5"/>
<text text-anchor="middle" x="253.5" y="-83.5" font-family="Helvetica,sans-Serif" font-size="10.00" fill="#000000">triangulatepolygon</text>
</a>
</g>
</g>
<!-- Node9&#45;&gt;Node23 -->
<g id="edge15" class="edge">
<title>Node9&#45;&gt;Node23</title>
<path fill="none" stroke="#191970" d="M180.104,-73.9782C188.5209,-75.3569 197.4041,-76.8119 205.9719,-78.2152"/>
<polygon fill="#191970" stroke="#191970" points="180.5554,-70.5056 170.1212,-72.3431 179.4239,-77.4136 180.5554,-70.5056"/>
</g>
<!-- Node24 -->
<g id="node13" class="node">
<title>Node24</title>
<g id="a_node13"><a xlink:href="triangle_8cpp.html#a9a6911e4ef926cd4546bb41819b1c8c5" target="_top" xlink:title="deletevertex">
<polygon fill="#ffffff" stroke="#000000" points="354,-38.5 354,-57.5 424,-57.5 424,-38.5 354,-38.5"/>
<text text-anchor="middle" x="389" y="-45.5" font-family="Helvetica,sans-Serif" font-size="10.00" fill="#000000">deletevertex</text>
</a>
</g>
</g>
<!-- Node9&#45;&gt;Node24 -->
<g id="edge18" class="edge">
<title>Node9&#45;&gt;Node24</title>
<path fill="none" stroke="#191970" d="M180.3608,-63.762C229.1978,-60.0725 308.1113,-54.1109 353.6014,-50.6743"/>
<polygon fill="#191970" stroke="#191970" points="179.8293,-60.2921 170.1214,-64.5356 180.3567,-67.2722 179.8293,-60.2921"/>
</g>
<!-- Node25 -->
<g id="node14" class="node">
<title>Node25</title>
<g id="a_node14"><a xlink:href="triangle_8cpp.html#aff72cd32f2fdfedbedd4270ab70f212d" target="_top" xlink:title="tallyfaces">
<polygon fill="#ffffff" stroke="#000000" points="224,-.5 224,-19.5 283,-19.5 283,-.5 224,-.5"/>
<text text-anchor="middle" x="253.5" y="-7.5" font-family="Helvetica,sans-Serif" font-size="10.00" fill="#000000">tallyfaces</text>
</a>
</g>
</g>
<!-- Node9&#45;&gt;Node25 -->
<g id="edge19" class="edge">
<title>Node9&#45;&gt;Node25</title>
<path fill="none" stroke="#191970" d="M166.0669,-52.9628C187.2014,-42.5778 215.4299,-28.7069 234.0209,-19.5716"/>
<polygon fill="#191970" stroke="#191970" points="164.3472,-49.908 156.9158,-57.4595 167.4344,-56.1906 164.3472,-49.908"/>
</g>
<!-- Node11 -->
<g id="node4" class="node">
<title>Node11</title>
<g id="a_node4"><a xlink:href="triangle_8cpp.html#a4e3735a2f4c1fa18deb1a2e66aeda7bd" target="_top" xlink:title="undovertex">
<polygon fill="#ffffff" stroke="#000000" points="356.5,-114.5 356.5,-133.5 421.5,-133.5 421.5,-114.5 356.5,-114.5"/>
<text text-anchor="middle" x="389" y="-121.5" font-family="Helvetica,sans-Serif" font-size="10.00" fill="#000000">undovertex</text>
</a>
</g>
</g>
<!-- Node10&#45;&gt;Node11 -->
<g id="edge3" class="edge">
<title>Node10&#45;&gt;Node11</title>
<path fill="none" stroke="#191970" d="M297.9183,-124C316.9227,-124 338.717,-124 356.2208,-124"/>
<polygon fill="#191970" stroke="#191970" points="297.6924,-120.5001 287.6924,-124 297.6923,-127.5001 297.6924,-120.5001"/>
</g>
<!-- Node12 -->
<g id="node5" class="node">
<title>Node12</title>
<g id="a_node5"><a xlink:href="triangle_8cpp.html#a48fc63d369d988c08cbe8ab40f0b8af5" target="_top" xlink:title="splittriangle">
<polygon fill="#ffffff" stroke="#000000" points="483,-114.5 483,-133.5 549,-133.5 549,-114.5 483,-114.5"/>
<text text-anchor="middle" x="516" y="-121.5" font-family="Helvetica,sans-Serif" font-size="10.00" fill="#000000">splittriangle</text>
</a>
</g>
</g>
<!-- Node10&#45;&gt;Node12 -->
<g id="edge14" class="edge">
<title>Node10&#45;&gt;Node12</title>
<path fill="none" stroke="#191970" d="M297.2237,-135.8839C309.9504,-138.8149 323.9433,-141.5333 337,-143 382.9333,-148.16 395.133,-148.7195 441,-143 455.9284,-141.1385 472.1499,-137.2691 485.6757,-133.505"/>
<polygon fill="#191970" stroke="#191970" points="297.8715,-132.44 287.3306,-133.5075 296.2365,-139.2464 297.8715,-132.44"/>
</g>
<!-- Node17 -->
<g id="node7" class="node">
<title>Node17</title>
<g id="a_node7"><a xlink:href="triangle_8cpp.html#a496c50bca0cf0c214a0204419c3b181a" target="_top" xlink:title="segmentintersection">
<polygon fill="#ffffff" stroke="#000000" points="337,-190.5 337,-209.5 441,-209.5 441,-190.5 337,-190.5"/>
<text text-anchor="middle" x="389" y="-197.5" font-family="Helvetica,sans-Serif" font-size="10.00" fill="#000000">segmentintersection</text>
</a>
</g>
</g>
<!-- Node10&#45;&gt;Node17 -->
<g id="edge6" class="edge">
<title>Node10&#45;&gt;Node17</title>
<path fill="none" stroke="#191970" d="M276.1146,-139.1533C292.6598,-149.9736 315.8213,-164.5755 337,-176 346.5385,-181.1454 357.3814,-186.2601 366.6888,-190.4375"/>
<polygon fill="#191970" stroke="#191970" points="277.9328,-136.1599 267.658,-133.5753 274.0784,-142.0032 277.9328,-136.1599"/>
</g>
<!-- Node22 -->
<g id="node11" class="node">
<title>Node22</title>
<g id="a_node11"><a xlink:href="triangle_8cpp.html#adca37fc9e90f78c9ae794662de5428bd" target="_top" xlink:title="splitencsegs">
<polygon fill="#ffffff" stroke="#000000" points="480.5,-57.5 480.5,-76.5 551.5,-76.5 551.5,-57.5 480.5,-57.5"/>
<text text-anchor="middle" x="516" y="-64.5" font-family="Helvetica,sans-Serif" font-size="10.00" fill="#000000">splitencsegs</text>
</a>
</g>
</g>
<!-- Node10&#45;&gt;Node22 -->
<g id="edge12" class="edge">
<title>Node10&#45;&gt;Node22</title>
<path fill="none" stroke="#191970" d="M297.5124,-113.8591C310.2444,-110.9597 324.1678,-107.8219 337,-105 386.6441,-94.083 444.155,-81.9685 480.3069,-74.4178"/>
<polygon fill="#191970" stroke="#191970" points="296.5704,-110.484 287.6006,-116.1226 298.1289,-117.3084 296.5704,-110.484"/>
</g>
<!-- Node11&#45;&gt;Node12 -->
<g id="edge4" class="edge">
<title>Node11&#45;&gt;Node12</title>
<path fill="none" stroke="#191970" d="M431.7806,-124C448.4847,-124 467.3371,-124 482.9638,-124"/>
<polygon fill="#191970" stroke="#191970" points="431.7057,-120.5001 421.7057,-124 431.7056,-127.5001 431.7057,-120.5001"/>
</g>
<!-- Node13 -->
<g id="node6" class="node">
<title>Node13</title>
<g id="a_node6"><a xlink:href="triangle_8cpp.html#a5a654ff6b304f2166c64ffe9183b2995" target="_top" xlink:title="enforcequality">
<polygon fill="#ffffff" stroke="#ff0000" points="596.5,-57.5 596.5,-76.5 673.5,-76.5 673.5,-57.5 596.5,-57.5"/>
<text text-anchor="middle" x="635" y="-64.5" font-family="Helvetica,sans-Serif" font-size="10.00" fill="#000000">enforcequality</text>
</a>
</g>
</g>
<!-- Node12&#45;&gt;Node13 -->
<g id="edge5" class="edge">
<title>Node12&#45;&gt;Node13</title>
<path fill="none" stroke="#191970" d="M545.0132,-110.1029C566.7257,-99.7028 595.8594,-85.748 615.0171,-76.5716"/>
<polygon fill="#191970" stroke="#191970" points="543.4247,-106.9829 535.9179,-114.4595 546.4487,-113.2961 543.4247,-106.9829"/>
</g>
<!-- Node18 -->
<g id="node8" class="node">
<title>Node18</title>
<g id="a_node8"><a xlink:href="triangle_8cpp.html#ae9d4ed09a0fd07959568ba5f86cc4d0c" target="_top" xlink:title="scoutsegment">
<polygon fill="#ffffff" stroke="#000000" points="477,-171.5 477,-190.5 555,-190.5 555,-171.5 477,-171.5"/>
<text text-anchor="middle" x="516" y="-178.5" font-family="Helvetica,sans-Serif" font-size="10.00" fill="#000000">scoutsegment</text>
</a>
</g>
</g>
<!-- Node17&#45;&gt;Node18 -->
<g id="edge7" class="edge">
<title>Node17&#45;&gt;Node18</title>
<path fill="none" stroke="#191970" d="M451.1725,-190.6986C459.8652,-189.3981 468.5912,-188.0927 476.6983,-186.8798"/>
<polygon fill="#191970" stroke="#191970" points="450.3942,-187.276 441.0222,-192.2172 451.43,-194.1989 450.3942,-187.276"/>
</g>
<!-- Node19 -->
<g id="node9" class="node">
<title>Node19</title>
<g id="a_node9"><a xlink:href="triangle_8cpp.html#aded205ef0849b44d2a587f53fd720618" target="_top" xlink:title="constrainededge">
<polygon fill="#ffffff" stroke="#000000" points="591,-209.5 591,-228.5 679,-228.5 679,-209.5 591,-209.5"/>
<text text-anchor="middle" x="635" y="-216.5" font-family="Helvetica,sans-Serif" font-size="10.00" fill="#000000">constrainededge</text>
</a>
</g>
</g>
<!-- Node17&#45;&gt;Node19 -->
<g id="edge11" class="edge">
<title>Node17&#45;&gt;Node19</title>
<path fill="none" stroke="#191970" d="M451.3549,-204.816C494.8512,-208.1755 551.8425,-212.5773 590.7271,-215.5806"/>
<polygon fill="#191970" stroke="#191970" points="451.4101,-201.31 441.1703,-204.0294 450.871,-208.2892 451.4101,-201.31"/>
</g>
<!-- Node18&#45;&gt;Node19 -->
<g id="edge8" class="edge">
<title>Node18&#45;&gt;Node19</title>
<path fill="none" stroke="#191970" d="M555.7098,-193.6804C571.7886,-198.8148 590.0433,-204.6441 604.9809,-209.4141"/>
<polygon fill="#191970" stroke="#191970" points="556.6195,-190.2969 546.0287,-190.589 554.4901,-196.9652 556.6195,-190.2969"/>
</g>
<!-- Node20 -->
<g id="node10" class="node">
<title>Node20</title>
<g id="a_node10"><a xlink:href="triangle_8cpp.html#ae367b20189056436da2a1b633b392703" target="_top" xlink:title="insertsegment">
<polygon fill="#ffffff" stroke="#ff0000" points="715,-190.5 715,-209.5 793,-209.5 793,-190.5 715,-190.5"/>
<text text-anchor="middle" x="754" y="-197.5" font-family="Helvetica,sans-Serif" font-size="10.00" fill="#000000">insertsegment</text>
</a>
</g>
</g>
<!-- Node18&#45;&gt;Node20 -->
<g id="edge10" class="edge">
<title>Node18&#45;&gt;Node20</title>
<path fill="none" stroke="#191970" d="M565.0201,-184.9134C609.4101,-188.4571 673.9506,-193.6095 714.9443,-196.8821"/>
<polygon fill="#191970" stroke="#191970" points="565.2812,-181.4232 555.0344,-184.1162 564.7241,-188.401 565.2812,-181.4232"/>
</g>
<!-- Node19&#45;&gt;Node20 -->
<g id="edge9" class="edge">
<title>Node19&#45;&gt;Node20</title>
<path fill="none" stroke="#191970" d="M689.2778,-210.3338C697.862,-208.9632 706.5922,-207.5693 714.7464,-206.2674"/>
<polygon fill="#191970" stroke="#191970" points="688.6343,-206.8921 679.3112,-211.9251 689.738,-213.8046 688.6343,-206.8921"/>
</g>
<!-- Node22&#45;&gt;Node13 -->
<g id="edge13" class="edge">
<title>Node22&#45;&gt;Node13</title>
<path fill="none" stroke="#191970" d="M561.9205,-67C573.3163,-67 585.414,-67 596.4181,-67"/>
<polygon fill="#191970" stroke="#191970" points="561.704,-63.5001 551.7039,-67 561.7039,-70.5001 561.704,-63.5001"/>
</g>
<!-- Node23&#45;&gt;Node24 -->
<g id="edge16" class="edge">
<title>Node23&#45;&gt;Node24</title>
<path fill="none" stroke="#191970" d="M297.4246,-73.6817C316.0414,-68.4607 337.4087,-62.4684 354.8186,-57.5859"/>
<polygon fill="#191970" stroke="#191970" points="296.3758,-70.3407 287.6924,-76.411 298.266,-77.0807 296.3758,-70.3407"/>
</g>
<!-- Node24&#45;&gt;Node22 -->
<g id="edge17" class="edge">
<title>Node24&#45;&gt;Node22</title>
<path fill="none" stroke="#191970" d="M434.2039,-54.7628C449.3021,-57.0216 465.909,-59.5061 480.1916,-61.6428"/>
<polygon fill="#191970" stroke="#191970" points="434.4473,-51.2603 424.0395,-53.2421 433.4115,-58.1833 434.4473,-51.2603"/>
</g>
<!-- Node25&#45;&gt;Node13 -->
<g id="edge20" class="edge">
<title>Node25&#45;&gt;Node13</title>
<path fill="none" stroke="#191970" d="M293.265,-13.2841C331.2786,-16.5996 390.1629,-22.195 441,-29 491.9114,-35.815 504.6498,-37.8373 555,-48 568.8531,-50.7961 583.9558,-54.2711 597.2699,-57.4817"/>
<polygon fill="#191970" stroke="#191970" points="293.3842,-9.7815 283.1207,-12.4103 292.7835,-16.7556 293.3842,-9.7815"/>
</g>
</g>
</svg>
