<?xml version="1.0" encoding="UTF-8" standalone="no"?>
<!DOCTYPE svg PUBLIC "-//W3C//DTD SVG 1.1//EN"
 "http://www.w3.org/Graphics/SVG/1.1/DTD/svg11.dtd">
<!-- Generated by graphviz version 2.40.1 (20161225.0304)
 -->
<!-- Title: internalerror Pages: 1 -->
<svg width="675pt" height="142pt"
 viewBox="0.00 0.00 675.00 142.00" xmlns="http://www.w3.org/2000/svg" xmlns:xlink="http://www.w3.org/1999/xlink">
<g id="graph0" class="graph" transform="scale(1 1) rotate(0) translate(4 138)">
<title>internalerror</title>
<polygon fill="#ffffff" stroke="transparent" points="-4,4 -4,-138 671,-138 671,4 -4,4"/>
<!-- Node145 -->
<g id="node1" class="node">
<title>Node145</title>
<polygon fill="#bfbfbf" stroke="#000000" points="0,-57.5 0,-76.5 68,-76.5 68,-57.5 0,-57.5"/>
<text text-anchor="middle" x="34" y="-64.5" font-family="Helvetica,sans-Serif" font-size="10.00" fill="#000000">internalerror</text>
</g>
<!-- Node146 -->
<g id="node2" class="node">
<title>Node146</title>
<g id="a_node2"><a xlink:href="triangle_8cpp.html#add01d18cf8d218a091d600fd0c97fb67" target="_top" xlink:title="finddirection">
<polygon fill="#ffffff" stroke="#000000" points="105,-76.5 105,-95.5 174,-95.5 174,-76.5 105,-76.5"/>
<text text-anchor="middle" x="139.5" y="-83.5" font-family="Helvetica,sans-Serif" font-size="10.00" fill="#000000">finddirection</text>
</a>
</g>
</g>
<!-- Node145&#45;&gt;Node146 -->
<g id="edge1" class="edge">
<title>Node145&#45;&gt;Node146</title>
<path fill="none" stroke="#191970" d="M78.3691,-74.9906C87.163,-76.5744 96.2759,-78.2156 104.6961,-79.732"/>
<polygon fill="#191970" stroke="#191970" points="78.7149,-71.4967 68.2528,-73.1688 77.4741,-78.3859 78.7149,-71.4967"/>
</g>
<!-- Node147 -->
<g id="node3" class="node">
<title>Node147</title>
<g id="a_node3"><a xlink:href="triangle_8cpp.html#a496c50bca0cf0c214a0204419c3b181a" target="_top" xlink:title="segmentintersection">
<polygon fill="#ffffff" stroke="#000000" points="211,-114.5 211,-133.5 315,-133.5 315,-114.5 211,-114.5"/>
<text text-anchor="middle" x="263" y="-121.5" font-family="Helvetica,sans-Serif" font-size="10.00" fill="#000000">segmentintersection</text>
</a>
</g>
</g>
<!-- Node145&#45;&gt;Node147 -->
<g id="edge9" class="edge">
<title>Node145&#45;&gt;Node147</title>
<path fill="none" stroke="#191970" d="M56.2337,-81.9023C69.5313,-90.0762 87.0844,-99.6162 104,-105 138.5709,-116.0031 179.2136,-120.7255 210.7541,-122.7114"/>
<polygon fill="#191970" stroke="#191970" points="58.0864,-78.9327 47.7678,-76.5295 54.3356,-84.843 58.0864,-78.9327"/>
</g>
<!-- Node150 -->
<g id="node6" class="node">
<title>Node150</title>
<g id="a_node6"><a xlink:href="triangle_8cpp.html#ae367b20189056436da2a1b633b392703" target="_top" xlink:title="insertsegment">
<polygon fill="#ffffff" stroke="#ff0000" points="589,-76.5 589,-95.5 667,-95.5 667,-76.5 589,-76.5"/>
<text text-anchor="middle" x="628" y="-83.5" font-family="Helvetica,sans-Serif" font-size="10.00" fill="#000000">insertsegment</text>
</a>
</g>
</g>
<!-- Node145&#45;&gt;Node150 -->
<g id="edge10" class="edge">
<title>Node145&#45;&gt;Node150</title>
<path fill="none" stroke="#191970" d="M78.0112,-61.1719C124.0514,-55.5866 198.4659,-48 263,-48 263,-48 263,-48 390,-48 461.9696,-48 544.6671,-65.1538 591.1886,-76.411"/>
<polygon fill="#191970" stroke="#191970" points="77.5638,-57.7004 68.0686,-62.4006 78.4224,-64.6476 77.5638,-57.7004"/>
</g>
<!-- Node155 -->
<g id="node7" class="node">
<title>Node155</title>
<g id="a_node7"><a xlink:href="triangle_8cpp.html#adca37fc9e90f78c9ae794662de5428bd" target="_top" xlink:title="splitencsegs">
<polygon fill="#ffffff" stroke="#000000" points="104,-.5 104,-19.5 175,-19.5 175,-.5 104,-.5"/>
<text text-anchor="middle" x="139.5" y="-7.5" font-family="Helvetica,sans-Serif" font-size="10.00" fill="#000000">splitencsegs</text>
</a>
</g>
</g>
<!-- Node145&#45;&gt;Node155 -->
<g id="edge11" class="edge">
<title>Node145&#45;&gt;Node155</title>
<path fill="none" stroke="#191970" d="M60.7499,-52.5475C79.9145,-42.1931 105.1847,-28.54 121.8677,-19.5265"/>
<polygon fill="#191970" stroke="#191970" points="59.0309,-49.4979 51.8966,-57.3307 62.3584,-55.6566 59.0309,-49.4979"/>
</g>
<!-- Node146&#45;&gt;Node147 -->
<g id="edge2" class="edge">
<title>Node146&#45;&gt;Node147</title>
<path fill="none" stroke="#191970" d="M180.2397,-98.5353C197.0405,-103.7048 216.197,-109.5991 231.8457,-114.4141"/>
<polygon fill="#191970" stroke="#191970" points="181.2514,-95.1847 170.6643,-95.589 179.1927,-101.8752 181.2514,-95.1847"/>
</g>
<!-- Node148 -->
<g id="node4" class="node">
<title>Node148</title>
<g id="a_node4"><a xlink:href="triangle_8cpp.html#ae9d4ed09a0fd07959568ba5f86cc4d0c" target="_top" xlink:title="scoutsegment">
<polygon fill="#ffffff" stroke="#000000" points="351,-76.5 351,-95.5 429,-95.5 429,-76.5 351,-76.5"/>
<text text-anchor="middle" x="390" y="-83.5" font-family="Helvetica,sans-Serif" font-size="10.00" fill="#000000">scoutsegment</text>
</a>
</g>
</g>
<!-- Node146&#45;&gt;Node148 -->
<g id="edge8" class="edge">
<title>Node146&#45;&gt;Node148</title>
<path fill="none" stroke="#191970" d="M184.3399,-86C231.7308,-86 305.7294,-86 350.847,-86"/>
<polygon fill="#191970" stroke="#191970" points="184.068,-82.5001 174.068,-86 184.0679,-89.5001 184.068,-82.5001"/>
</g>
<!-- Node147&#45;&gt;Node148 -->
<g id="edge3" class="edge">
<title>Node147&#45;&gt;Node148</title>
<path fill="none" stroke="#191970" d="M304.8943,-111.4647C322.1712,-106.2952 341.8707,-100.4009 357.9628,-95.5859"/>
<polygon fill="#191970" stroke="#191970" points="303.6245,-108.1912 295.0475,-114.411 305.6311,-114.8975 303.6245,-108.1912"/>
</g>
<!-- Node149 -->
<g id="node5" class="node">
<title>Node149</title>
<g id="a_node5"><a xlink:href="triangle_8cpp.html#aded205ef0849b44d2a587f53fd720618" target="_top" xlink:title="constrainededge">
<polygon fill="#ffffff" stroke="#000000" points="465,-114.5 465,-133.5 553,-133.5 553,-114.5 465,-114.5"/>
<text text-anchor="middle" x="509" y="-121.5" font-family="Helvetica,sans-Serif" font-size="10.00" fill="#000000">constrainededge</text>
</a>
</g>
</g>
<!-- Node147&#45;&gt;Node149 -->
<g id="edge7" class="edge">
<title>Node147&#45;&gt;Node149</title>
<path fill="none" stroke="#191970" d="M325.3549,-124C368.8512,-124 425.8425,-124 464.7271,-124"/>
<polygon fill="#191970" stroke="#191970" points="325.1703,-120.5001 315.1703,-124 325.1702,-127.5001 325.1703,-120.5001"/>
</g>
<!-- Node148&#45;&gt;Node149 -->
<g id="edge4" class="edge">
<title>Node148&#45;&gt;Node149</title>
<path fill="none" stroke="#191970" d="M429.7098,-98.6804C445.7886,-103.8148 464.0433,-109.6441 478.9809,-114.4141"/>
<polygon fill="#191970" stroke="#191970" points="430.6195,-95.2969 420.0287,-95.589 428.4901,-101.9652 430.6195,-95.2969"/>
</g>
<!-- Node148&#45;&gt;Node150 -->
<g id="edge6" class="edge">
<title>Node148&#45;&gt;Node150</title>
<path fill="none" stroke="#191970" d="M439.3008,-86C483.6817,-86 548.0369,-86 588.9443,-86"/>
<polygon fill="#191970" stroke="#191970" points="439.0344,-82.5001 429.0344,-86 439.0343,-89.5001 439.0344,-82.5001"/>
</g>
<!-- Node149&#45;&gt;Node150 -->
<g id="edge5" class="edge">
<title>Node149&#45;&gt;Node150</title>
<path fill="none" stroke="#191970" d="M548.7098,-111.3196C564.7886,-106.1852 583.0433,-100.3559 597.9809,-95.5859"/>
<polygon fill="#191970" stroke="#191970" points="547.4901,-108.0348 539.0287,-114.411 549.6195,-114.7031 547.4901,-108.0348"/>
</g>
<!-- Node156 -->
<g id="node8" class="node">
<title>Node156</title>
<g id="a_node8"><a xlink:href="triangle_8cpp.html#a5a654ff6b304f2166c64ffe9183b2995" target="_top" xlink:title="enforcequality">
<polygon fill="#ffffff" stroke="#000000" points="224.5,-.5 224.5,-19.5 301.5,-19.5 301.5,-.5 224.5,-.5"/>
<text text-anchor="middle" x="263" y="-7.5" font-family="Helvetica,sans-Serif" font-size="10.00" fill="#000000">enforcequality</text>
</a>
</g>
</g>
<!-- Node155&#45;&gt;Node156 -->
<g id="edge12" class="edge">
<title>Node155&#45;&gt;Node156</title>
<path fill="none" stroke="#191970" d="M185.2645,-10C198.1105,-10 211.9478,-10 224.3367,-10"/>
<polygon fill="#191970" stroke="#191970" points="185.2214,-6.5001 175.2213,-10 185.2213,-13.5001 185.2214,-6.5001"/>
</g>
<!-- Node152 -->
<g id="node9" class="node">
<title>Node152</title>
<g id="a_node9"><a xlink:href="triangle_8hpp.html#a848df2990f66cdbdc9d1ac87f4646527" target="_top" xlink:title="Call Triangle. ">
<polygon fill="#ffffff" stroke="#ff0000" points="359,-.5 359,-19.5 421,-19.5 421,-.5 359,-.5"/>
<text text-anchor="middle" x="390" y="-7.5" font-family="Helvetica,sans-Serif" font-size="10.00" fill="#000000">triangulate</text>
</a>
</g>
</g>
<!-- Node156&#45;&gt;Node152 -->
<g id="edge13" class="edge">
<title>Node156&#45;&gt;Node152</title>
<path fill="none" stroke="#191970" d="M311.8934,-10C327.604,-10 344.576,-10 358.6729,-10"/>
<polygon fill="#191970" stroke="#191970" points="311.7943,-6.5001 301.7943,-10 311.7942,-13.5001 311.7943,-6.5001"/>
</g>
</g>
</svg>
