<?xml version="1.0" encoding="UTF-8" standalone="no"?>
<!DOCTYPE svg PUBLIC "-//W3C//DTD SVG 1.1//EN"
 "http://www.w3.org/Graphics/SVG/1.1/DTD/svg11.dtd">
<!-- Generated by graphviz version 2.40.1 (20161225.0304)
 -->
<!-- Title: badsubsegtraverse Pages: 1 -->
<svg width="659pt" height="28pt"
 viewBox="0.00 0.00 659.00 28.00" xmlns="http://www.w3.org/2000/svg" xmlns:xlink="http://www.w3.org/1999/xlink">
<g id="graph0" class="graph" transform="scale(1 1) rotate(0) translate(4 24)">
<title>badsubsegtraverse</title>
<polygon fill="#ffffff" stroke="transparent" points="-4,4 -4,-24 655,-24 655,4 -4,4"/>
<!-- Node491 -->
<g id="node1" class="node">
<title>Node491</title>
<polygon fill="#bfbfbf" stroke="#000000" points="0,-.5 0,-19.5 99,-19.5 99,-.5 0,-.5"/>
<text text-anchor="middle" x="49.5" y="-7.5" font-family="Helvetica,sans-Serif" font-size="10.00" fill="#000000">badsubsegtraverse</text>
</g>
<!-- Node492 -->
<g id="node2" class="node">
<title>Node492</title>
<g id="a_node2"><a xlink:href="triangle_8cpp.html#adca37fc9e90f78c9ae794662de5428bd" target="_top" xlink:title="splitencsegs">
<polygon fill="#ffffff" stroke="#000000" points="135,-.5 135,-19.5 206,-19.5 206,-.5 135,-.5"/>
<text text-anchor="middle" x="170.5" y="-7.5" font-family="Helvetica,sans-Serif" font-size="10.00" fill="#000000">splitencsegs</text>
</a>
</g>
</g>
<!-- Node491&#45;&gt;Node492 -->
<g id="edge1" class="edge">
<title>Node491&#45;&gt;Node492</title>
<path fill="none" stroke="#191970" d="M109.294,-10C118.0532,-10 126.8322,-10 134.8964,-10"/>
<polygon fill="#191970" stroke="#191970" points="109.0645,-6.5001 99.0645,-10 109.0644,-13.5001 109.0645,-6.5001"/>
</g>
<!-- Node493 -->
<g id="node3" class="node">
<title>Node493</title>
<g id="a_node3"><a xlink:href="triangle_8cpp.html#a5a654ff6b304f2166c64ffe9183b2995" target="_top" xlink:title="enforcequality">
<polygon fill="#ffffff" stroke="#000000" points="242,-.5 242,-19.5 319,-19.5 319,-.5 242,-.5"/>
<text text-anchor="middle" x="280.5" y="-7.5" font-family="Helvetica,sans-Serif" font-size="10.00" fill="#000000">enforcequality</text>
</a>
</g>
</g>
<!-- Node492&#45;&gt;Node493 -->
<g id="edge2" class="edge">
<title>Node492&#45;&gt;Node493</title>
<path fill="none" stroke="#191970" d="M216.3765,-10C224.876,-10 233.6746,-10 241.9296,-10"/>
<polygon fill="#191970" stroke="#191970" points="216.2139,-6.5001 206.2138,-10 216.2138,-13.5001 216.2139,-6.5001"/>
</g>
<!-- Node494 -->
<g id="node4" class="node">
<title>Node494</title>
<g id="a_node4"><a xlink:href="triangle_8hpp.html#a848df2990f66cdbdc9d1ac87f4646527" target="_top" xlink:title="Call Triangle. ">
<polygon fill="#ffffff" stroke="#000000" points="355,-.5 355,-19.5 417,-19.5 417,-.5 355,-.5"/>
<text text-anchor="middle" x="386" y="-7.5" font-family="Helvetica,sans-Serif" font-size="10.00" fill="#000000">triangulate</text>
</a>
</g>
</g>
<!-- Node493&#45;&gt;Node494 -->
<g id="edge3" class="edge">
<title>Node493&#45;&gt;Node494</title>
<path fill="none" stroke="#191970" d="M329.2905,-10C338.0043,-10 346.863,-10 354.9082,-10"/>
<polygon fill="#191970" stroke="#191970" points="329.1853,-6.5001 319.1852,-10 329.1852,-13.5001 329.1853,-6.5001"/>
</g>
<!-- Node495 -->
<g id="node5" class="node">
<title>Node495</title>
<g id="a_node5"><a xlink:href="classRiver_1_1Triangle.html#a7bc9c5a5297dee136ab1489a923182dd" target="_top" xlink:title="Generate mesh. ">
<polygon fill="#ffffff" stroke="#000000" points="453,-.5 453,-19.5 577,-19.5 577,-.5 453,-.5"/>
<text text-anchor="middle" x="515" y="-7.5" font-family="Helvetica,sans-Serif" font-size="10.00" fill="#000000">River::Triangle::generate</text>
</a>
</g>
</g>
<!-- Node494&#45;&gt;Node495 -->
<g id="edge4" class="edge">
<title>Node494&#45;&gt;Node495</title>
<path fill="none" stroke="#191970" d="M427.2629,-10C435.4682,-10 444.2527,-10 452.9767,-10"/>
<polygon fill="#191970" stroke="#191970" points="427.2273,-6.5001 417.2273,-10 427.2273,-13.5001 427.2273,-6.5001"/>
</g>
<!-- Node496 -->
<g id="node6" class="node">
<title>Node496</title>
<g id="a_node6"><a xlink:href="main_8cpp.html#a0ddf1224851353fc92bfbff6f499fa97" target="_top" xlink:title="Entry point of RiverSim program. ">
<polygon fill="#ffffff" stroke="#000000" points="613,-.5 613,-19.5 651,-19.5 651,-.5 613,-.5"/>
<text text-anchor="middle" x="632" y="-7.5" font-family="Helvetica,sans-Serif" font-size="10.00" fill="#000000">main</text>
</a>
</g>
</g>
<!-- Node495&#45;&gt;Node496 -->
<g id="edge5" class="edge">
<title>Node495&#45;&gt;Node496</title>
<path fill="none" stroke="#191970" d="M587.5174,-10C596.8253,-10 605.6301,-10 612.912,-10"/>
<polygon fill="#191970" stroke="#191970" points="587.2682,-6.5001 577.2682,-10 587.2682,-13.5001 587.2682,-6.5001"/>
</g>
</g>
</svg>
