<?xml version="1.0" encoding="UTF-8" standalone="no"?>
<!DOCTYPE svg PUBLIC "-//W3C//DTD SVG 1.1//EN"
 "http://www.w3.org/Graphics/SVG/1.1/DTD/svg11.dtd">
<!-- Generated by graphviz version 2.40.1 (20161225.0304)
 -->
<!-- Title: deletevertex Pages: 1 -->
<svg width="737pt" height="28pt"
 viewBox="0.00 0.00 737.00 28.00" xmlns="http://www.w3.org/2000/svg" xmlns:xlink="http://www.w3.org/1999/xlink">
<g id="graph0" class="graph" transform="scale(1 1) rotate(0) translate(4 24)">
<title>deletevertex</title>
<polygon fill="#ffffff" stroke="transparent" points="-4,4 -4,-24 733,-24 733,4 -4,4"/>
<!-- Node1169 -->
<g id="node1" class="node">
<title>Node1169</title>
<polygon fill="#bfbfbf" stroke="#000000" points="0,-.5 0,-19.5 70,-19.5 70,-.5 0,-.5"/>
<text text-anchor="middle" x="35" y="-7.5" font-family="Helvetica,sans-Serif" font-size="10.00" fill="#000000">deletevertex</text>
</g>
<!-- Node1170 -->
<g id="node2" class="node">
<title>Node1170</title>
<g id="a_node2"><a xlink:href="triangle_8cpp.html#adca37fc9e90f78c9ae794662de5428bd" target="_top" xlink:title="splitencsegs">
<polygon fill="#ffffff" stroke="#000000" points="106,-.5 106,-19.5 177,-19.5 177,-.5 106,-.5"/>
<text text-anchor="middle" x="141.5" y="-7.5" font-family="Helvetica,sans-Serif" font-size="10.00" fill="#000000">splitencsegs</text>
</a>
</g>
</g>
<!-- Node1169&#45;&gt;Node1170 -->
<g id="edge1" class="edge">
<title>Node1169&#45;&gt;Node1170</title>
<path fill="none" stroke="#191970" d="M80.2997,-10C88.7666,-10 97.5079,-10 105.6411,-10"/>
<polygon fill="#191970" stroke="#191970" points="80.1673,-6.5001 70.1672,-10 80.1672,-13.5001 80.1673,-6.5001"/>
</g>
<!-- Node1171 -->
<g id="node3" class="node">
<title>Node1171</title>
<g id="a_node3"><a xlink:href="triangle_8cpp.html#a5a654ff6b304f2166c64ffe9183b2995" target="_top" xlink:title="enforcequality">
<polygon fill="#ffffff" stroke="#000000" points="213,-.5 213,-19.5 290,-19.5 290,-.5 213,-.5"/>
<text text-anchor="middle" x="251.5" y="-7.5" font-family="Helvetica,sans-Serif" font-size="10.00" fill="#000000">enforcequality</text>
</a>
</g>
</g>
<!-- Node1170&#45;&gt;Node1171 -->
<g id="edge2" class="edge">
<title>Node1170&#45;&gt;Node1171</title>
<path fill="none" stroke="#191970" d="M187.3765,-10C195.876,-10 204.6746,-10 212.9296,-10"/>
<polygon fill="#191970" stroke="#191970" points="187.2139,-6.5001 177.2138,-10 187.2138,-13.5001 187.2139,-6.5001"/>
</g>
<!-- Node1172 -->
<g id="node4" class="node">
<title>Node1172</title>
<g id="a_node4"><a xlink:href="triangle_8hpp.html#a4ca59bf5fe569672944651426b662ba6" target="_top" xlink:title="Call Triangle. ">
<polygon fill="#ffffff" stroke="#000000" points="326,-.5 326,-19.5 388,-19.5 388,-.5 326,-.5"/>
<text text-anchor="middle" x="357" y="-7.5" font-family="Helvetica,sans-Serif" font-size="10.00" fill="#000000">triangulate</text>
</a>
</g>
</g>
<!-- Node1171&#45;&gt;Node1172 -->
<g id="edge3" class="edge">
<title>Node1171&#45;&gt;Node1172</title>
<path fill="none" stroke="#191970" d="M300.2905,-10C309.0043,-10 317.863,-10 325.9082,-10"/>
<polygon fill="#191970" stroke="#191970" points="300.1853,-6.5001 290.1852,-10 300.1852,-13.5001 300.1853,-6.5001"/>
</g>
<!-- Node1173 -->
<g id="node5" class="node">
<title>Node1173</title>
<g id="a_node5"><a xlink:href="classRiver_1_1Triangle.html#a0dae20b40d446e6009a88543e2c14daf" target="_top" xlink:title="Generate mesh. ">
<polygon fill="#ffffff" stroke="#000000" points="424,-.5 424,-19.5 548,-19.5 548,-.5 424,-.5"/>
<text text-anchor="middle" x="486" y="-7.5" font-family="Helvetica,sans-Serif" font-size="10.00" fill="#000000">River::Triangle::generate</text>
</a>
</g>
</g>
<!-- Node1172&#45;&gt;Node1173 -->
<g id="edge4" class="edge">
<title>Node1172&#45;&gt;Node1173</title>
<path fill="none" stroke="#191970" d="M398.2629,-10C406.4682,-10 415.2527,-10 423.9767,-10"/>
<polygon fill="#191970" stroke="#191970" points="398.2273,-6.5001 388.2273,-10 398.2273,-13.5001 398.2273,-6.5001"/>
</g>
<!-- Node1174 -->
<g id="node6" class="node">
<title>Node1174</title>
<g id="a_node6"><a xlink:href="namespaceRiver.html#af1a3f7c61809dd8032e4ff5920da83cc" target="_top" xlink:title="One step of forward river evolution. ">
<polygon fill="#ffffff" stroke="#ff0000" points="584,-.5 584,-19.5 729,-19.5 729,-.5 584,-.5"/>
<text text-anchor="middle" x="656.5" y="-7.5" font-family="Helvetica,sans-Serif" font-size="10.00" fill="#000000">River::ForwardRiverEvolution</text>
</a>
</g>
</g>
<!-- Node1173&#45;&gt;Node1174 -->
<g id="edge5" class="edge">
<title>Node1173&#45;&gt;Node1174</title>
<path fill="none" stroke="#191970" d="M558.2431,-10C566.7006,-10 575.333,-10 583.7967,-10"/>
<polygon fill="#191970" stroke="#191970" points="558.0368,-6.5001 548.0367,-10 558.0367,-13.5001 558.0368,-6.5001"/>
</g>
</g>
</svg>
