<?xml version="1.0" encoding="UTF-8" standalone="no"?>
<!DOCTYPE svg PUBLIC "-//W3C//DTD SVG 1.1//EN"
 "http://www.w3.org/Graphics/SVG/1.1/DTD/svg11.dtd">
<!-- Generated by graphviz version 2.40.1 (20161225.0304)
 -->
<!-- Title: triangulatepolygon Pages: 1 -->
<svg width="650pt" height="192pt"
 viewBox="0.00 0.00 650.00 192.00" xmlns="http://www.w3.org/2000/svg" xmlns:xlink="http://www.w3.org/1999/xlink">
<g id="graph0" class="graph" transform="scale(1 1) rotate(0) translate(4 188)">
<title>triangulatepolygon</title>
<polygon fill="#ffffff" stroke="transparent" points="-4,4 -4,-188 646,-188 646,4 -4,4"/>
<!-- Node1127 -->
<g id="node1" class="node">
<title>Node1127</title>
<polygon fill="#bfbfbf" stroke="#000000" points="0,-77.5 0,-96.5 95,-96.5 95,-77.5 0,-77.5"/>
<text text-anchor="middle" x="47.5" y="-84.5" font-family="Helvetica,sans-Serif" font-size="10.00" fill="#000000">triangulatepolygon</text>
</g>
<!-- Node1128 -->
<g id="node2" class="node">
<title>Node1128</title>
<g id="a_node2"><a xlink:href="triangle_8cpp.html#abbd721e83ed16c99082c2152fa55e2ee" target="_top" xlink:title="incircle">
<polygon fill="#ffffff" stroke="#000000" points="140,-118.5 140,-137.5 187,-137.5 187,-118.5 140,-118.5"/>
<text text-anchor="middle" x="163.5" y="-125.5" font-family="Helvetica,sans-Serif" font-size="10.00" fill="#000000">incircle</text>
</a>
</g>
</g>
<!-- Node1127&#45;&gt;Node1128 -->
<g id="edge1" class="edge">
<title>Node1127&#45;&gt;Node1128</title>
<path fill="none" stroke="#191970" d="M74.4043,-96.5093C90.965,-102.3626 112.3278,-109.9133 129.9833,-116.1536"/>
<polygon fill="#191970" stroke="#191970" points="129.2911,-119.621 139.8858,-119.6536 131.6238,-113.0212 129.2911,-119.621"/>
</g>
<!-- Node1133 -->
<g id="node7" class="node">
<title>Node1133</title>
<g id="a_node7"><a xlink:href="triangle_8cpp.html#adaf57083638c866f831ae08a5e993b12" target="_top" xlink:title="flip">
<polygon fill="#ffffff" stroke="#000000" points="149,-77.5 149,-96.5 178,-96.5 178,-77.5 149,-77.5"/>
<text text-anchor="middle" x="163.5" y="-84.5" font-family="Helvetica,sans-Serif" font-size="10.00" fill="#000000">flip</text>
</a>
</g>
</g>
<!-- Node1127&#45;&gt;Node1133 -->
<g id="edge6" class="edge">
<title>Node1127&#45;&gt;Node1133</title>
<path fill="none" stroke="#191970" d="M95.0163,-87C110.0181,-87 125.9877,-87 138.7289,-87"/>
<polygon fill="#191970" stroke="#191970" points="138.9892,-90.5001 148.9891,-87 138.9891,-83.5001 138.9892,-90.5001"/>
</g>
<!-- Node1135 -->
<g id="node9" class="node">
<title>Node1135</title>
<g id="a_node9"><a xlink:href="triangle_8cpp.html#a816cae4d440df52b7bc162b05f92cc75" target="_top" xlink:title="testtriangle">
<polygon fill="#ffffff" stroke="#000000" points="131,-38.5 131,-57.5 196,-57.5 196,-38.5 131,-38.5"/>
<text text-anchor="middle" x="163.5" y="-45.5" font-family="Helvetica,sans-Serif" font-size="10.00" fill="#000000">testtriangle</text>
</a>
</g>
</g>
<!-- Node1127&#45;&gt;Node1135 -->
<g id="edge8" class="edge">
<title>Node1127&#45;&gt;Node1135</title>
<path fill="none" stroke="#191970" d="M75.8768,-77.4595C90.7629,-72.4547 109.2078,-66.2534 125.3292,-60.8333"/>
<polygon fill="#191970" stroke="#191970" points="126.6509,-64.0815 135.0141,-57.5771 124.4201,-57.4465 126.6509,-64.0815"/>
</g>
<!-- Node1129 -->
<g id="node3" class="node">
<title>Node1129</title>
<g id="a_node3"><a xlink:href="triangle_8cpp.html#ade6dfff2bcdf2f287e419bc4e2a211dc" target="_top" xlink:title="incircleadapt">
<polygon fill="#ffffff" stroke="#000000" points="235,-119.5 235,-138.5 306,-138.5 306,-119.5 235,-119.5"/>
<text text-anchor="middle" x="270.5" y="-126.5" font-family="Helvetica,sans-Serif" font-size="10.00" fill="#000000">incircleadapt</text>
</a>
</g>
</g>
<!-- Node1128&#45;&gt;Node1129 -->
<g id="edge2" class="edge">
<title>Node1128&#45;&gt;Node1129</title>
<path fill="none" stroke="#191970" d="M187.2468,-128.2219C198.2262,-128.3245 211.6569,-128.4501 224.4995,-128.5701"/>
<polygon fill="#191970" stroke="#191970" points="224.5825,-132.0709 234.6148,-128.6646 224.648,-125.0712 224.5825,-132.0709"/>
</g>
<!-- Node1130 -->
<g id="node4" class="node">
<title>Node1130</title>
<g id="a_node4"><a xlink:href="triangle_8cpp.html#abdcdaa8948d9a2937154d9d67f67da8d" target="_top" xlink:title="scale_expansion_zeroelim">
<polygon fill="#ffffff" stroke="#000000" points="345,-164.5 345,-183.5 476,-183.5 476,-164.5 345,-164.5"/>
<text text-anchor="middle" x="410.5" y="-171.5" font-family="Helvetica,sans-Serif" font-size="10.00" fill="#000000">scale_expansion_zeroelim</text>
</a>
</g>
</g>
<!-- Node1129&#45;&gt;Node1130 -->
<g id="edge3" class="edge">
<title>Node1129&#45;&gt;Node1130</title>
<path fill="none" stroke="#191970" d="M296.934,-138.6114C311.1231,-143.6727 328.9485,-149.875 345,-155 351.9791,-157.2283 359.4109,-159.4894 366.6689,-161.6373"/>
<polygon fill="#191970" stroke="#191970" points="365.8192,-165.0353 376.3996,-164.4823 367.7836,-158.3166 365.8192,-165.0353"/>
</g>
<!-- Node1131 -->
<g id="node5" class="node">
<title>Node1131</title>
<g id="a_node5"><a xlink:href="triangle_8cpp.html#a37646a7e0014e10c612e946bc95aeeea" target="_top" xlink:title="fast_expansion_sum\l_zeroelim">
<polygon fill="#ffffff" stroke="#000000" points="357,-115 357,-145 464,-145 464,-115 357,-115"/>
<text text-anchor="start" x="365" y="-133" font-family="Helvetica,sans-Serif" font-size="10.00" fill="#000000">fast_expansion_sum</text>
<text text-anchor="middle" x="410.5" y="-122" font-family="Helvetica,sans-Serif" font-size="10.00" fill="#000000">_zeroelim</text>
</a>
</g>
</g>
<!-- Node1129&#45;&gt;Node1131 -->
<g id="edge4" class="edge">
<title>Node1129&#45;&gt;Node1131</title>
<path fill="none" stroke="#191970" d="M306.1902,-129.2549C318.5762,-129.3434 332.8664,-129.4455 346.8189,-129.5451"/>
<polygon fill="#191970" stroke="#191970" points="346.862,-133.0454 356.8868,-129.617 346.9121,-126.0456 346.862,-133.0454"/>
</g>
<!-- Node1132 -->
<g id="node6" class="node">
<title>Node1132</title>
<g id="a_node6"><a xlink:href="triangle_8cpp.html#a3487d9f90ea72da543d5d38b3dab1fbc" target="_top" xlink:title="estimate">
<polygon fill="#ffffff" stroke="#000000" points="383.5,-76.5 383.5,-95.5 437.5,-95.5 437.5,-76.5 383.5,-76.5"/>
<text text-anchor="middle" x="410.5" y="-83.5" font-family="Helvetica,sans-Serif" font-size="10.00" fill="#000000">estimate</text>
</a>
</g>
</g>
<!-- Node1129&#45;&gt;Node1132 -->
<g id="edge5" class="edge">
<title>Node1129&#45;&gt;Node1132</title>
<path fill="none" stroke="#191970" d="M301.303,-119.467C314.7225,-115.3199 330.6364,-110.4101 345,-106 354.2652,-103.1553 364.2711,-100.0944 373.6065,-97.2434"/>
<polygon fill="#191970" stroke="#191970" points="374.8639,-100.5191 383.4066,-94.2523 372.8204,-93.824 374.8639,-100.5191"/>
</g>
<!-- Node1134 -->
<g id="node8" class="node">
<title>Node1134</title>
<g id="a_node8"><a xlink:href="triangle_8cpp.html#a62ccb7c855c68af7a6918e23ccb158e6" target="_top" xlink:title="printtriangle">
<polygon fill="#ffffff" stroke="#000000" points="237,-77.5 237,-96.5 304,-96.5 304,-77.5 237,-77.5"/>
<text text-anchor="middle" x="270.5" y="-84.5" font-family="Helvetica,sans-Serif" font-size="10.00" fill="#000000">printtriangle</text>
</a>
</g>
</g>
<!-- Node1133&#45;&gt;Node1134 -->
<g id="edge7" class="edge">
<title>Node1133&#45;&gt;Node1134</title>
<path fill="none" stroke="#191970" d="M178.3779,-87C190.8369,-87 209.2797,-87 226.3973,-87"/>
<polygon fill="#191970" stroke="#191970" points="226.819,-90.5001 236.8189,-87 226.8189,-83.5001 226.819,-90.5001"/>
</g>
<!-- Node1136 -->
<g id="node10" class="node">
<title>Node1136</title>
<g id="a_node10"><a xlink:href="triangle_8cpp.html#a6b67091e1472b3c8d48c8540148dc1a8" target="_top" xlink:title="enqueuebadtri">
<polygon fill="#ffffff" stroke="#000000" points="232,-38.5 232,-57.5 309,-57.5 309,-38.5 232,-38.5"/>
<text text-anchor="middle" x="270.5" y="-45.5" font-family="Helvetica,sans-Serif" font-size="10.00" fill="#000000">enqueuebadtri</text>
</a>
</g>
</g>
<!-- Node1135&#45;&gt;Node1136 -->
<g id="edge9" class="edge">
<title>Node1135&#45;&gt;Node1136</title>
<path fill="none" stroke="#191970" d="M196.1849,-48C204.1371,-48 212.8161,-48 221.3468,-48"/>
<polygon fill="#191970" stroke="#191970" points="221.62,-51.5001 231.6199,-48 221.6199,-44.5001 221.62,-51.5001"/>
</g>
<!-- Node1141 -->
<g id="node15" class="node">
<title>Node1141</title>
<g id="a_node15"><a xlink:href="triangle_8cpp.html#a435eb334f65dbd9268038e8881e24554" target="_top" xlink:title="triunsuitable">
<polygon fill="#ffffff" stroke="#000000" points="236,-.5 236,-19.5 305,-19.5 305,-.5 236,-.5"/>
<text text-anchor="middle" x="270.5" y="-7.5" font-family="Helvetica,sans-Serif" font-size="10.00" fill="#000000">triunsuitable</text>
</a>
</g>
</g>
<!-- Node1135&#45;&gt;Node1141 -->
<g id="edge14" class="edge">
<title>Node1135&#45;&gt;Node1141</title>
<path fill="none" stroke="#191970" d="M190.5006,-38.411C203.6797,-33.7306 219.729,-28.0308 233.9835,-22.9685"/>
<polygon fill="#191970" stroke="#191970" points="235.256,-26.2308 243.508,-19.5859 232.9133,-19.6344 235.256,-26.2308"/>
</g>
<!-- Node1137 -->
<g id="node11" class="node">
<title>Node1137</title>
<g id="a_node11"><a xlink:href="triangle_8cpp.html#ab1760445583959132ffd9998372c9aac" target="_top" xlink:title="poolalloc">
<polygon fill="#ffffff" stroke="#000000" points="383,-38.5 383,-57.5 438,-57.5 438,-38.5 383,-38.5"/>
<text text-anchor="middle" x="410.5" y="-45.5" font-family="Helvetica,sans-Serif" font-size="10.00" fill="#000000">poolalloc</text>
</a>
</g>
</g>
<!-- Node1136&#45;&gt;Node1137 -->
<g id="edge10" class="edge">
<title>Node1136&#45;&gt;Node1137</title>
<path fill="none" stroke="#191970" d="M309.1262,-48C328.8847,-48 352.848,-48 372.5144,-48"/>
<polygon fill="#191970" stroke="#191970" points="372.6522,-51.5001 382.6522,-48 372.6521,-44.5001 372.6522,-51.5001"/>
</g>
<!-- Node1140 -->
<g id="node14" class="node">
<title>Node1140</title>
<g id="a_node14"><a xlink:href="triangle_8cpp.html#a8b69474415bac9ddab3a5879974338b5" target="_top" xlink:title="enqueuebadtriang">
<polygon fill="#ffffff" stroke="#000000" points="364,-.5 364,-19.5 457,-19.5 457,-.5 364,-.5"/>
<text text-anchor="middle" x="410.5" y="-7.5" font-family="Helvetica,sans-Serif" font-size="10.00" fill="#000000">enqueuebadtriang</text>
</a>
</g>
</g>
<!-- Node1136&#45;&gt;Node1140 -->
<g id="edge13" class="edge">
<title>Node1136&#45;&gt;Node1140</title>
<path fill="none" stroke="#191970" d="M305.8279,-38.411C323.9006,-33.5056 346.0984,-27.4804 365.3945,-22.2429"/>
<polygon fill="#191970" stroke="#191970" points="366.4494,-25.5833 375.1834,-19.5859 364.6157,-18.8277 366.4494,-25.5833"/>
</g>
<!-- Node1138 -->
<g id="node12" class="node">
<title>Node1138</title>
<g id="a_node12"><a xlink:href="triangle_8cpp.html#a5f51f1d3957615b2c84a91fd9f5f09bf" target="_top" xlink:title="trimalloc">
<polygon fill="#ffffff" stroke="#000000" points="512,-38.5 512,-57.5 565,-57.5 565,-38.5 512,-38.5"/>
<text text-anchor="middle" x="538.5" y="-45.5" font-family="Helvetica,sans-Serif" font-size="10.00" fill="#000000">trimalloc</text>
</a>
</g>
</g>
<!-- Node1137&#45;&gt;Node1138 -->
<g id="edge11" class="edge">
<title>Node1137&#45;&gt;Node1138</title>
<path fill="none" stroke="#191970" d="M438.2741,-48C456.8075,-48 481.3842,-48 501.5619,-48"/>
<polygon fill="#191970" stroke="#191970" points="501.6573,-51.5001 511.6573,-48 501.6572,-44.5001 501.6573,-51.5001"/>
</g>
<!-- Node1139 -->
<g id="node13" class="node">
<title>Node1139</title>
<g id="a_node13"><a xlink:href="triangle_8cpp.html#a648abfc70d158485620dbcb9aa990178" target="_top" xlink:title="triexit">
<polygon fill="#ffffff" stroke="#000000" points="601,-38.5 601,-57.5 642,-57.5 642,-38.5 601,-38.5"/>
<text text-anchor="middle" x="621.5" y="-45.5" font-family="Helvetica,sans-Serif" font-size="10.00" fill="#000000">triexit</text>
</a>
</g>
</g>
<!-- Node1138&#45;&gt;Node1139 -->
<g id="edge12" class="edge">
<title>Node1138&#45;&gt;Node1139</title>
<path fill="none" stroke="#191970" d="M565.2186,-48C573.3489,-48 582.3499,-48 590.7251,-48"/>
<polygon fill="#191970" stroke="#191970" points="590.8865,-51.5001 600.8865,-48 590.8865,-44.5001 590.8865,-51.5001"/>
</g>
</g>
</svg>
