<?xml version="1.0" encoding="UTF-8" standalone="no"?>
<!DOCTYPE svg PUBLIC "-//W3C//DTD SVG 1.1//EN"
 "http://www.w3.org/Graphics/SVG/1.1/DTD/svg11.dtd">
<!-- Generated by graphviz version 2.40.1 (20161225.0304)
 -->
<!-- Title: quality_statistics Pages: 1 -->
<svg width="703pt" height="28pt"
 viewBox="0.00 0.00 703.00 28.00" xmlns="http://www.w3.org/2000/svg" xmlns:xlink="http://www.w3.org/1999/xlink">
<g id="graph0" class="graph" transform="scale(1 1) rotate(0) translate(4 24)">
<title>quality_statistics</title>
<polygon fill="#ffffff" stroke="transparent" points="-4,4 -4,-24 699,-24 699,4 -4,4"/>
<!-- Node1988 -->
<g id="node1" class="node">
<title>Node1988</title>
<polygon fill="#bfbfbf" stroke="#000000" points="0,-.5 0,-19.5 90,-19.5 90,-.5 0,-.5"/>
<text text-anchor="middle" x="45" y="-7.5" font-family="Helvetica,sans-Serif" font-size="10.00" fill="#000000">quality_statistics</text>
</g>
<!-- Node1989 -->
<g id="node2" class="node">
<title>Node1989</title>
<g id="a_node2"><a xlink:href="triangle_8cpp.html#af5c7ca5685bbb13d38d7dbb7a686634d" target="_top" xlink:title="statistics">
<polygon fill="#ffffff" stroke="#000000" points="126,-.5 126,-19.5 182,-19.5 182,-.5 126,-.5"/>
<text text-anchor="middle" x="154" y="-7.5" font-family="Helvetica,sans-Serif" font-size="10.00" fill="#000000">statistics</text>
</a>
</g>
</g>
<!-- Node1988&#45;&gt;Node1989 -->
<g id="edge1" class="edge">
<title>Node1988&#45;&gt;Node1989</title>
<path fill="none" stroke="#191970" d="M100.5379,-10C109.3095,-10 118.0451,-10 125.8357,-10"/>
<polygon fill="#191970" stroke="#191970" points="100.2789,-6.5001 90.2789,-10 100.2788,-13.5001 100.2789,-6.5001"/>
</g>
<!-- Node1990 -->
<g id="node3" class="node">
<title>Node1990</title>
<g id="a_node3"><a xlink:href="triangle_8hpp.html#a4ca59bf5fe569672944651426b662ba6" target="_top" xlink:title="Call Triangle. ">
<polygon fill="#ffffff" stroke="#000000" points="218,-.5 218,-19.5 280,-19.5 280,-.5 218,-.5"/>
<text text-anchor="middle" x="249" y="-7.5" font-family="Helvetica,sans-Serif" font-size="10.00" fill="#000000">triangulate</text>
</a>
</g>
</g>
<!-- Node1989&#45;&gt;Node1990 -->
<g id="edge2" class="edge">
<title>Node1989&#45;&gt;Node1990</title>
<path fill="none" stroke="#191970" d="M192.2737,-10C200.7213,-10 209.5739,-10 217.7063,-10"/>
<polygon fill="#191970" stroke="#191970" points="192.246,-6.5001 182.2459,-10 192.2459,-13.5001 192.246,-6.5001"/>
</g>
<!-- Node1991 -->
<g id="node4" class="node">
<title>Node1991</title>
<g id="a_node4"><a xlink:href="classRiver_1_1Triangle.html#a0dae20b40d446e6009a88543e2c14daf" target="_top" xlink:title="Generate mesh. ">
<polygon fill="#ffffff" stroke="#000000" points="316,-.5 316,-19.5 440,-19.5 440,-.5 316,-.5"/>
<text text-anchor="middle" x="378" y="-7.5" font-family="Helvetica,sans-Serif" font-size="10.00" fill="#000000">River::Triangle::generate</text>
</a>
</g>
</g>
<!-- Node1990&#45;&gt;Node1991 -->
<g id="edge3" class="edge">
<title>Node1990&#45;&gt;Node1991</title>
<path fill="none" stroke="#191970" d="M290.2629,-10C298.4682,-10 307.2527,-10 315.9767,-10"/>
<polygon fill="#191970" stroke="#191970" points="290.2273,-6.5001 280.2273,-10 290.2273,-13.5001 290.2273,-6.5001"/>
</g>
<!-- Node1992 -->
<g id="node5" class="node">
<title>Node1992</title>
<g id="a_node5"><a xlink:href="namespaceRiver.html#af1a3f7c61809dd8032e4ff5920da83cc" target="_top" xlink:title="One step of forward river evolution. ">
<polygon fill="#ffffff" stroke="#000000" points="476,-.5 476,-19.5 621,-19.5 621,-.5 476,-.5"/>
<text text-anchor="middle" x="548.5" y="-7.5" font-family="Helvetica,sans-Serif" font-size="10.00" fill="#000000">River::ForwardRiverEvolution</text>
</a>
</g>
</g>
<!-- Node1991&#45;&gt;Node1992 -->
<g id="edge4" class="edge">
<title>Node1991&#45;&gt;Node1992</title>
<path fill="none" stroke="#191970" d="M450.2431,-10C458.7006,-10 467.333,-10 475.7967,-10"/>
<polygon fill="#191970" stroke="#191970" points="450.0368,-6.5001 440.0367,-10 450.0367,-13.5001 450.0368,-6.5001"/>
</g>
<!-- Node1993 -->
<g id="node6" class="node">
<title>Node1993</title>
<g id="a_node6"><a xlink:href="main_8cpp.html#a0ddf1224851353fc92bfbff6f499fa97" target="_top" xlink:title="Entry point of RiverSim program. ">
<polygon fill="#ffffff" stroke="#000000" points="657,-.5 657,-19.5 695,-19.5 695,-.5 657,-.5"/>
<text text-anchor="middle" x="676" y="-7.5" font-family="Helvetica,sans-Serif" font-size="10.00" fill="#000000">main</text>
</a>
</g>
</g>
<!-- Node1992&#45;&gt;Node1993 -->
<g id="edge5" class="edge">
<title>Node1992&#45;&gt;Node1993</title>
<path fill="none" stroke="#191970" d="M631.2526,-10C640.7338,-10 649.5978,-10 656.8947,-10"/>
<polygon fill="#191970" stroke="#191970" points="631.1886,-6.5001 621.1886,-10 631.1885,-13.5001 631.1886,-6.5001"/>
</g>
</g>
</svg>
