<?xml version="1.0" encoding="UTF-8" standalone="no"?>
<!DOCTYPE svg PUBLIC "-//W3C//DTD SVG 1.1//EN"
 "http://www.w3.org/Graphics/SVG/1.1/DTD/svg11.dtd">
<!-- Generated by graphviz version 2.40.1 (20161225.0304)
 -->
<!-- Title: triangledeinit Pages: 1 -->
<svg width="592pt" height="28pt"
 viewBox="0.00 0.00 592.00 28.00" xmlns="http://www.w3.org/2000/svg" xmlns:xlink="http://www.w3.org/1999/xlink">
<g id="graph0" class="graph" transform="scale(1 1) rotate(0) translate(4 24)">
<title>triangledeinit</title>
<polygon fill="#ffffff" stroke="transparent" points="-4,4 -4,-24 588,-24 588,4 -4,4"/>
<!-- Node537 -->
<g id="node1" class="node">
<title>Node537</title>
<polygon fill="#bfbfbf" stroke="#000000" points="0,-.5 0,-19.5 71,-19.5 71,-.5 0,-.5"/>
<text text-anchor="middle" x="35.5" y="-7.5" font-family="Helvetica,sans-Serif" font-size="10.00" fill="#000000">triangledeinit</text>
</g>
<!-- Node538 -->
<g id="node2" class="node">
<title>Node538</title>
<g id="a_node2"><a xlink:href="triangle_8hpp.html#a4ca59bf5fe569672944651426b662ba6" target="_top" xlink:title="Call Triangle. ">
<polygon fill="#ffffff" stroke="#000000" points="107,-.5 107,-19.5 169,-19.5 169,-.5 107,-.5"/>
<text text-anchor="middle" x="138" y="-7.5" font-family="Helvetica,sans-Serif" font-size="10.00" fill="#000000">triangulate</text>
</a>
</g>
</g>
<!-- Node537&#45;&gt;Node538 -->
<g id="edge1" class="edge">
<title>Node537&#45;&gt;Node538</title>
<path fill="none" stroke="#191970" d="M81.1407,-10C89.8647,-10 98.8081,-10 106.9434,-10"/>
<polygon fill="#191970" stroke="#191970" points="81.0619,-6.5001 71.0619,-10 81.0618,-13.5001 81.0619,-6.5001"/>
</g>
<!-- Node539 -->
<g id="node3" class="node">
<title>Node539</title>
<g id="a_node3"><a xlink:href="classRiver_1_1Triangle.html#a0dae20b40d446e6009a88543e2c14daf" target="_top" xlink:title="Generate mesh. ">
<polygon fill="#ffffff" stroke="#000000" points="205,-.5 205,-19.5 329,-19.5 329,-.5 205,-.5"/>
<text text-anchor="middle" x="267" y="-7.5" font-family="Helvetica,sans-Serif" font-size="10.00" fill="#000000">River::Triangle::generate</text>
</a>
</g>
</g>
<!-- Node538&#45;&gt;Node539 -->
<g id="edge2" class="edge">
<title>Node538&#45;&gt;Node539</title>
<path fill="none" stroke="#191970" d="M179.2629,-10C187.4682,-10 196.2527,-10 204.9767,-10"/>
<polygon fill="#191970" stroke="#191970" points="179.2273,-6.5001 169.2273,-10 179.2273,-13.5001 179.2273,-6.5001"/>
</g>
<!-- Node540 -->
<g id="node4" class="node">
<title>Node540</title>
<g id="a_node4"><a xlink:href="namespaceRiver.html#af1a3f7c61809dd8032e4ff5920da83cc" target="_top" xlink:title="One step of forward river evolution. ">
<polygon fill="#ffffff" stroke="#000000" points="365,-.5 365,-19.5 510,-19.5 510,-.5 365,-.5"/>
<text text-anchor="middle" x="437.5" y="-7.5" font-family="Helvetica,sans-Serif" font-size="10.00" fill="#000000">River::ForwardRiverEvolution</text>
</a>
</g>
</g>
<!-- Node539&#45;&gt;Node540 -->
<g id="edge3" class="edge">
<title>Node539&#45;&gt;Node540</title>
<path fill="none" stroke="#191970" d="M339.2431,-10C347.7006,-10 356.333,-10 364.7967,-10"/>
<polygon fill="#191970" stroke="#191970" points="339.0368,-6.5001 329.0367,-10 339.0367,-13.5001 339.0368,-6.5001"/>
</g>
<!-- Node541 -->
<g id="node5" class="node">
<title>Node541</title>
<g id="a_node5"><a xlink:href="main_8cpp.html#a0ddf1224851353fc92bfbff6f499fa97" target="_top" xlink:title="Entry point of RiverSim program. ">
<polygon fill="#ffffff" stroke="#000000" points="546,-.5 546,-19.5 584,-19.5 584,-.5 546,-.5"/>
<text text-anchor="middle" x="565" y="-7.5" font-family="Helvetica,sans-Serif" font-size="10.00" fill="#000000">main</text>
</a>
</g>
</g>
<!-- Node540&#45;&gt;Node541 -->
<g id="edge4" class="edge">
<title>Node540&#45;&gt;Node541</title>
<path fill="none" stroke="#191970" d="M520.2526,-10C529.7338,-10 538.5978,-10 545.8947,-10"/>
<polygon fill="#191970" stroke="#191970" points="520.1886,-6.5001 510.1886,-10 520.1885,-13.5001 520.1886,-6.5001"/>
</g>
</g>
</svg>
