<?xml version="1.0" encoding="UTF-8" standalone="no"?>
<!DOCTYPE svg PUBLIC "-//W3C//DTD SVG 1.1//EN"
 "http://www.w3.org/Graphics/SVG/1.1/DTD/svg11.dtd">
<!-- Generated by graphviz version 2.40.1 (20161225.0304)
 -->
<!-- Title: writeedges Pages: 1 -->
<svg width="279pt" height="104pt"
 viewBox="0.00 0.00 279.00 104.00" xmlns="http://www.w3.org/2000/svg" xmlns:xlink="http://www.w3.org/1999/xlink">
<g id="graph0" class="graph" transform="scale(1 1) rotate(0) translate(4 100)">
<title>writeedges</title>
<polygon fill="#ffffff" stroke="transparent" points="-4,4 -4,-100 275,-100 275,4 -4,4"/>
<!-- Node1942 -->
<g id="node1" class="node">
<title>Node1942</title>
<polygon fill="#bfbfbf" stroke="#000000" points="0,-38.5 0,-57.5 64,-57.5 64,-38.5 0,-38.5"/>
<text text-anchor="middle" x="32" y="-45.5" font-family="Helvetica,sans-Serif" font-size="10.00" fill="#000000">writeedges</text>
</g>
<!-- Node1943 -->
<g id="node2" class="node">
<title>Node1943</title>
<g id="a_node2"><a xlink:href="triangle_8cpp.html#a5f51f1d3957615b2c84a91fd9f5f09bf" target="_top" xlink:title="trimalloc">
<polygon fill="#ffffff" stroke="#000000" points="115,-76.5 115,-95.5 168,-95.5 168,-76.5 115,-76.5"/>
<text text-anchor="middle" x="141.5" y="-83.5" font-family="Helvetica,sans-Serif" font-size="10.00" fill="#000000">trimalloc</text>
</a>
</g>
</g>
<!-- Node1942&#45;&gt;Node1943 -->
<g id="edge1" class="edge">
<title>Node1942&#45;&gt;Node1943</title>
<path fill="none" stroke="#191970" d="M59.6315,-57.589C73.3244,-62.3409 90.0449,-68.1434 104.7972,-73.2629"/>
<polygon fill="#191970" stroke="#191970" points="104.0396,-76.7048 114.6344,-76.6768 106.3346,-70.0917 104.0396,-76.7048"/>
</g>
<!-- Node1945 -->
<g id="node4" class="node">
<title>Node1945</title>
<g id="a_node4"><a xlink:href="triangle_8cpp.html#ac497210bc9192d88ed80659833ba5f55" target="_top" xlink:title="traversalinit">
<polygon fill="#ffffff" stroke="#000000" points="108,-38.5 108,-57.5 175,-57.5 175,-38.5 108,-38.5"/>
<text text-anchor="middle" x="141.5" y="-45.5" font-family="Helvetica,sans-Serif" font-size="10.00" fill="#000000">traversalinit</text>
</a>
</g>
</g>
<!-- Node1942&#45;&gt;Node1945 -->
<g id="edge3" class="edge">
<title>Node1942&#45;&gt;Node1945</title>
<path fill="none" stroke="#191970" d="M64.2614,-48C74.7907,-48 86.6632,-48 97.8842,-48"/>
<polygon fill="#191970" stroke="#191970" points="97.9489,-51.5001 107.9489,-48 97.9488,-44.5001 97.9489,-51.5001"/>
</g>
<!-- Node1946 -->
<g id="node5" class="node">
<title>Node1946</title>
<g id="a_node5"><a xlink:href="triangle_8cpp.html#ac5f43264b4c12a0300c268142b0b3ee6" target="_top" xlink:title="triangletraverse">
<polygon fill="#ffffff" stroke="#000000" points="100,-.5 100,-19.5 183,-19.5 183,-.5 100,-.5"/>
<text text-anchor="middle" x="141.5" y="-7.5" font-family="Helvetica,sans-Serif" font-size="10.00" fill="#000000">triangletraverse</text>
</a>
</g>
</g>
<!-- Node1942&#45;&gt;Node1946 -->
<g id="edge4" class="edge">
<title>Node1942&#45;&gt;Node1946</title>
<path fill="none" stroke="#191970" d="M59.6315,-38.411C73.1185,-33.7306 89.5427,-28.0308 104.1303,-22.9685"/>
<polygon fill="#191970" stroke="#191970" points="105.5776,-26.1711 113.8774,-19.5859 103.2826,-19.558 105.5776,-26.1711"/>
</g>
<!-- Node1944 -->
<g id="node3" class="node">
<title>Node1944</title>
<g id="a_node3"><a xlink:href="triangle_8cpp.html#a648abfc70d158485620dbcb9aa990178" target="_top" xlink:title="triexit">
<polygon fill="#ffffff" stroke="#000000" points="224.5,-76.5 224.5,-95.5 265.5,-95.5 265.5,-76.5 224.5,-76.5"/>
<text text-anchor="middle" x="245" y="-83.5" font-family="Helvetica,sans-Serif" font-size="10.00" fill="#000000">triexit</text>
</a>
</g>
</g>
<!-- Node1943&#45;&gt;Node1944 -->
<g id="edge2" class="edge">
<title>Node1943&#45;&gt;Node1944</title>
<path fill="none" stroke="#191970" d="M168.1538,-86C182.2273,-86 199.5681,-86 214.2133,-86"/>
<polygon fill="#191970" stroke="#191970" points="214.3157,-89.5001 224.3156,-86 214.3156,-82.5001 214.3157,-89.5001"/>
</g>
<!-- Node1947 -->
<g id="node6" class="node">
<title>Node1947</title>
<g id="a_node6"><a xlink:href="triangle_8cpp.html#a908560980328e10c897c5c34bb733e9d" target="_top" xlink:title="traverse">
<polygon fill="#ffffff" stroke="#000000" points="219,-.5 219,-19.5 271,-19.5 271,-.5 219,-.5"/>
<text text-anchor="middle" x="245" y="-7.5" font-family="Helvetica,sans-Serif" font-size="10.00" fill="#000000">traverse</text>
</a>
</g>
</g>
<!-- Node1946&#45;&gt;Node1947 -->
<g id="edge5" class="edge">
<title>Node1946&#45;&gt;Node1947</title>
<path fill="none" stroke="#191970" d="M183.001,-10C191.5424,-10 200.4717,-10 208.8074,-10"/>
<polygon fill="#191970" stroke="#191970" points="208.9745,-13.5001 218.9744,-10 208.9744,-6.5001 208.9745,-13.5001"/>
</g>
</g>
</svg>
