<?xml version="1.0" encoding="UTF-8" standalone="no"?>
<!DOCTYPE svg PUBLIC "-//W3C//DTD SVG 1.1//EN"
 "http://www.w3.org/Graphics/SVG/1.1/DTD/svg11.dtd">
<!-- Generated by graphviz version 2.40.1 (20161225.0304)
 -->
<!-- Title: alternateaxes Pages: 1 -->
<svg width="632pt" height="28pt"
 viewBox="0.00 0.00 632.00 28.00" xmlns="http://www.w3.org/2000/svg" xmlns:xlink="http://www.w3.org/1999/xlink">
<g id="graph0" class="graph" transform="scale(1 1) rotate(0) translate(4 24)">
<title>alternateaxes</title>
<polygon fill="#ffffff" stroke="transparent" points="-4,4 -4,-24 628,-24 628,4 -4,4"/>
<!-- Node1173 -->
<g id="node1" class="node">
<title>Node1173</title>
<polygon fill="#bfbfbf" stroke="#000000" points="0,-.5 0,-19.5 75,-19.5 75,-.5 0,-.5"/>
<text text-anchor="middle" x="37.5" y="-7.5" font-family="Helvetica,sans-Serif" font-size="10.00" fill="#000000">alternateaxes</text>
</g>
<!-- Node1174 -->
<g id="node2" class="node">
<title>Node1174</title>
<g id="a_node2"><a xlink:href="triangle_8cpp.html#a4a13891380126c239a32b46c88f06223" target="_top" xlink:title="divconqdelaunay">
<polygon fill="#ffffff" stroke="#000000" points="111,-.5 111,-19.5 200,-19.5 200,-.5 111,-.5"/>
<text text-anchor="middle" x="155.5" y="-7.5" font-family="Helvetica,sans-Serif" font-size="10.00" fill="#000000">divconqdelaunay</text>
</a>
</g>
</g>
<!-- Node1173&#45;&gt;Node1174 -->
<g id="edge1" class="edge">
<title>Node1173&#45;&gt;Node1174</title>
<path fill="none" stroke="#191970" d="M85.2423,-10C93.6772,-10 102.4309,-10 110.7789,-10"/>
<polygon fill="#191970" stroke="#191970" points="85.1604,-6.5001 75.1604,-10 85.1603,-13.5001 85.1604,-6.5001"/>
</g>
<!-- Node1175 -->
<g id="node3" class="node">
<title>Node1175</title>
<g id="a_node3"><a xlink:href="triangle_8cpp.html#ab67faa70960c7c39ee1150ab4d55f0a5" target="_top" xlink:title="delaunay">
<polygon fill="#ffffff" stroke="#000000" points="236,-.5 236,-19.5 292,-19.5 292,-.5 236,-.5"/>
<text text-anchor="middle" x="264" y="-7.5" font-family="Helvetica,sans-Serif" font-size="10.00" fill="#000000">delaunay</text>
</a>
</g>
</g>
<!-- Node1174&#45;&gt;Node1175 -->
<g id="edge2" class="edge">
<title>Node1174&#45;&gt;Node1175</title>
<path fill="none" stroke="#191970" d="M210.5013,-10C219.2639,-10 228.0004,-10 235.796,-10"/>
<polygon fill="#191970" stroke="#191970" points="210.2576,-6.5001 200.2575,-10 210.2575,-13.5001 210.2576,-6.5001"/>
</g>
<!-- Node1176 -->
<g id="node4" class="node">
<title>Node1176</title>
<g id="a_node4"><a xlink:href="triangle_8hpp.html#a848df2990f66cdbdc9d1ac87f4646527" target="_top" xlink:title="Call Triangle. ">
<polygon fill="#ffffff" stroke="#000000" points="328,-.5 328,-19.5 390,-19.5 390,-.5 328,-.5"/>
<text text-anchor="middle" x="359" y="-7.5" font-family="Helvetica,sans-Serif" font-size="10.00" fill="#000000">triangulate</text>
</a>
</g>
</g>
<!-- Node1175&#45;&gt;Node1176 -->
<g id="edge3" class="edge">
<title>Node1175&#45;&gt;Node1176</title>
<path fill="none" stroke="#191970" d="M302.2737,-10C310.7213,-10 319.5739,-10 327.7063,-10"/>
<polygon fill="#191970" stroke="#191970" points="302.246,-6.5001 292.2459,-10 302.2459,-13.5001 302.246,-6.5001"/>
</g>
<!-- Node1177 -->
<g id="node5" class="node">
<title>Node1177</title>
<g id="a_node5"><a xlink:href="classRiver_1_1Triangle.html#a7bc9c5a5297dee136ab1489a923182dd" target="_top" xlink:title="Generate mesh. ">
<polygon fill="#ffffff" stroke="#000000" points="426,-.5 426,-19.5 550,-19.5 550,-.5 426,-.5"/>
<text text-anchor="middle" x="488" y="-7.5" font-family="Helvetica,sans-Serif" font-size="10.00" fill="#000000">River::Triangle::generate</text>
</a>
</g>
</g>
<!-- Node1176&#45;&gt;Node1177 -->
<g id="edge4" class="edge">
<title>Node1176&#45;&gt;Node1177</title>
<path fill="none" stroke="#191970" d="M400.2629,-10C408.4682,-10 417.2527,-10 425.9767,-10"/>
<polygon fill="#191970" stroke="#191970" points="400.2273,-6.5001 390.2273,-10 400.2273,-13.5001 400.2273,-6.5001"/>
</g>
<!-- Node1178 -->
<g id="node6" class="node">
<title>Node1178</title>
<g id="a_node6"><a xlink:href="main_8cpp.html#a0ddf1224851353fc92bfbff6f499fa97" target="_top" xlink:title="Entry point of RiverSim program. ">
<polygon fill="#ffffff" stroke="#000000" points="586,-.5 586,-19.5 624,-19.5 624,-.5 586,-.5"/>
<text text-anchor="middle" x="605" y="-7.5" font-family="Helvetica,sans-Serif" font-size="10.00" fill="#000000">main</text>
</a>
</g>
</g>
<!-- Node1177&#45;&gt;Node1178 -->
<g id="edge5" class="edge">
<title>Node1177&#45;&gt;Node1178</title>
<path fill="none" stroke="#191970" d="M560.5174,-10C569.8253,-10 578.6301,-10 585.912,-10"/>
<polygon fill="#191970" stroke="#191970" points="560.2682,-6.5001 550.2682,-10 560.2682,-13.5001 560.2682,-6.5001"/>
</g>
</g>
</svg>
