<?xml version="1.0" encoding="UTF-8" standalone="no"?>
<!DOCTYPE svg PUBLIC "-//W3C//DTD SVG 1.1//EN"
 "http://www.w3.org/Graphics/SVG/1.1/DTD/svg11.dtd">
<!-- Generated by graphviz version 2.40.1 (20161225.0304)
 -->
<!-- Title: numbernodes Pages: 1 -->
<svg width="415pt" height="28pt"
 viewBox="0.00 0.00 415.00 28.00" xmlns="http://www.w3.org/2000/svg" xmlns:xlink="http://www.w3.org/1999/xlink">
<g id="graph0" class="graph" transform="scale(1 1) rotate(0) translate(4 24)">
<title>numbernodes</title>
<polygon fill="#ffffff" stroke="transparent" points="-4,4 -4,-24 411,-24 411,4 -4,4"/>
<!-- Node1826 -->
<g id="node1" class="node">
<title>Node1826</title>
<polygon fill="#bfbfbf" stroke="#000000" points="0,-.5 0,-19.5 75,-19.5 75,-.5 0,-.5"/>
<text text-anchor="middle" x="37.5" y="-7.5" font-family="Helvetica,sans-Serif" font-size="10.00" fill="#000000">numbernodes</text>
</g>
<!-- Node1827 -->
<g id="node2" class="node">
<title>Node1827</title>
<g id="a_node2"><a xlink:href="triangle_8hpp.html#a848df2990f66cdbdc9d1ac87f4646527" target="_top" xlink:title="Call Triangle. ">
<polygon fill="#ffffff" stroke="#000000" points="111,-.5 111,-19.5 173,-19.5 173,-.5 111,-.5"/>
<text text-anchor="middle" x="142" y="-7.5" font-family="Helvetica,sans-Serif" font-size="10.00" fill="#000000">triangulate</text>
</a>
</g>
</g>
<!-- Node1826&#45;&gt;Node1827 -->
<g id="edge1" class="edge">
<title>Node1826&#45;&gt;Node1827</title>
<path fill="none" stroke="#191970" d="M85.2845,-10C93.9664,-10 102.8139,-10 110.8588,-10"/>
<polygon fill="#191970" stroke="#191970" points="85.2269,-6.5001 75.2269,-10 85.2269,-13.5001 85.2269,-6.5001"/>
</g>
<!-- Node1828 -->
<g id="node3" class="node">
<title>Node1828</title>
<g id="a_node3"><a xlink:href="classRiver_1_1Triangle.html#a7bc9c5a5297dee136ab1489a923182dd" target="_top" xlink:title="Generate mesh. ">
<polygon fill="#ffffff" stroke="#000000" points="209,-.5 209,-19.5 333,-19.5 333,-.5 209,-.5"/>
<text text-anchor="middle" x="271" y="-7.5" font-family="Helvetica,sans-Serif" font-size="10.00" fill="#000000">River::Triangle::generate</text>
</a>
</g>
</g>
<!-- Node1827&#45;&gt;Node1828 -->
<g id="edge2" class="edge">
<title>Node1827&#45;&gt;Node1828</title>
<path fill="none" stroke="#191970" d="M183.2629,-10C191.4682,-10 200.2527,-10 208.9767,-10"/>
<polygon fill="#191970" stroke="#191970" points="183.2273,-6.5001 173.2273,-10 183.2273,-13.5001 183.2273,-6.5001"/>
</g>
<!-- Node1829 -->
<g id="node4" class="node">
<title>Node1829</title>
<g id="a_node4"><a xlink:href="main_8cpp.html#a0ddf1224851353fc92bfbff6f499fa97" target="_top" xlink:title="Entry point of RiverSim program. ">
<polygon fill="#ffffff" stroke="#000000" points="369,-.5 369,-19.5 407,-19.5 407,-.5 369,-.5"/>
<text text-anchor="middle" x="388" y="-7.5" font-family="Helvetica,sans-Serif" font-size="10.00" fill="#000000">main</text>
</a>
</g>
</g>
<!-- Node1828&#45;&gt;Node1829 -->
<g id="edge3" class="edge">
<title>Node1828&#45;&gt;Node1829</title>
<path fill="none" stroke="#191970" d="M343.5174,-10C352.8253,-10 361.6301,-10 368.912,-10"/>
<polygon fill="#191970" stroke="#191970" points="343.2682,-6.5001 333.2682,-10 343.2682,-13.5001 343.2682,-6.5001"/>
</g>
</g>
</svg>
