<?xml version="1.0" encoding="UTF-8" standalone="no"?>
<!DOCTYPE svg PUBLIC "-//W3C//DTD SVG 1.1//EN"
 "http://www.w3.org/Graphics/SVG/1.1/DTD/svg11.dtd">
<!-- Generated by graphviz version 2.40.1 (20161225.0304)
 -->
<!-- Title: writeedges Pages: 1 -->
<svg width="404pt" height="28pt"
 viewBox="0.00 0.00 404.00 28.00" xmlns="http://www.w3.org/2000/svg" xmlns:xlink="http://www.w3.org/1999/xlink">
<g id="graph0" class="graph" transform="scale(1 1) rotate(0) translate(4 24)">
<title>writeedges</title>
<polygon fill="#ffffff" stroke="transparent" points="-4,4 -4,-24 400,-24 400,4 -4,4"/>
<!-- Node1856 -->
<g id="node1" class="node">
<title>Node1856</title>
<polygon fill="#bfbfbf" stroke="#000000" points="0,-.5 0,-19.5 64,-19.5 64,-.5 0,-.5"/>
<text text-anchor="middle" x="32" y="-7.5" font-family="Helvetica,sans-Serif" font-size="10.00" fill="#000000">writeedges</text>
</g>
<!-- Node1857 -->
<g id="node2" class="node">
<title>Node1857</title>
<g id="a_node2"><a xlink:href="triangle_8hpp.html#a848df2990f66cdbdc9d1ac87f4646527" target="_top" xlink:title="Call Triangle. ">
<polygon fill="#ffffff" stroke="#000000" points="100,-.5 100,-19.5 162,-19.5 162,-.5 100,-.5"/>
<text text-anchor="middle" x="131" y="-7.5" font-family="Helvetica,sans-Serif" font-size="10.00" fill="#000000">triangulate</text>
</a>
</g>
</g>
<!-- Node1856&#45;&gt;Node1857 -->
<g id="edge1" class="edge">
<title>Node1856&#45;&gt;Node1857</title>
<path fill="none" stroke="#191970" d="M74.3157,-10C82.831,-10 91.636,-10 99.6938,-10"/>
<polygon fill="#191970" stroke="#191970" points="74.1425,-6.5001 64.1425,-10 74.1424,-13.5001 74.1425,-6.5001"/>
</g>
<!-- Node1858 -->
<g id="node3" class="node">
<title>Node1858</title>
<g id="a_node3"><a xlink:href="classRiver_1_1Triangle.html#a7bc9c5a5297dee136ab1489a923182dd" target="_top" xlink:title="Generate mesh. ">
<polygon fill="#ffffff" stroke="#000000" points="198,-.5 198,-19.5 322,-19.5 322,-.5 198,-.5"/>
<text text-anchor="middle" x="260" y="-7.5" font-family="Helvetica,sans-Serif" font-size="10.00" fill="#000000">River::Triangle::generate</text>
</a>
</g>
</g>
<!-- Node1857&#45;&gt;Node1858 -->
<g id="edge2" class="edge">
<title>Node1857&#45;&gt;Node1858</title>
<path fill="none" stroke="#191970" d="M172.2629,-10C180.4682,-10 189.2527,-10 197.9767,-10"/>
<polygon fill="#191970" stroke="#191970" points="172.2273,-6.5001 162.2273,-10 172.2273,-13.5001 172.2273,-6.5001"/>
</g>
<!-- Node1859 -->
<g id="node4" class="node">
<title>Node1859</title>
<g id="a_node4"><a xlink:href="main_8cpp.html#a0ddf1224851353fc92bfbff6f499fa97" target="_top" xlink:title="Entry point of RiverSim program. ">
<polygon fill="#ffffff" stroke="#000000" points="358,-.5 358,-19.5 396,-19.5 396,-.5 358,-.5"/>
<text text-anchor="middle" x="377" y="-7.5" font-family="Helvetica,sans-Serif" font-size="10.00" fill="#000000">main</text>
</a>
</g>
</g>
<!-- Node1858&#45;&gt;Node1859 -->
<g id="edge3" class="edge">
<title>Node1858&#45;&gt;Node1859</title>
<path fill="none" stroke="#191970" d="M332.5174,-10C341.8253,-10 350.6301,-10 357.912,-10"/>
<polygon fill="#191970" stroke="#191970" points="332.2682,-6.5001 322.2682,-10 332.2682,-13.5001 332.2682,-6.5001"/>
</g>
</g>
</svg>
