<?xml version="1.0" encoding="UTF-8" standalone="no"?>
<!DOCTYPE svg PUBLIC "-//W3C//DTD SVG 1.1//EN"
 "http://www.w3.org/Graphics/SVG/1.1/DTD/svg11.dtd">
<!-- Generated by graphviz version 2.40.1 (20161225.0304)
 -->
<!-- Title: infecthull Pages: 1 -->
<svg width="321pt" height="28pt"
 viewBox="0.00 0.00 321.00 28.00" xmlns="http://www.w3.org/2000/svg" xmlns:xlink="http://www.w3.org/1999/xlink">
<g id="graph0" class="graph" transform="scale(1 1) rotate(0) translate(4 24)">
<title>infecthull</title>
<polygon fill="#ffffff" stroke="transparent" points="-4,4 -4,-24 317,-24 317,4 -4,4"/>
<!-- Node1555 -->
<g id="node1" class="node">
<title>Node1555</title>
<polygon fill="#bfbfbf" stroke="#000000" points="0,-.5 0,-19.5 56,-19.5 56,-.5 0,-.5"/>
<text text-anchor="middle" x="28" y="-7.5" font-family="Helvetica,sans-Serif" font-size="10.00" fill="#000000">infecthull</text>
</g>
<!-- Node1556 -->
<g id="node2" class="node">
<title>Node1556</title>
<g id="a_node2"><a xlink:href="triangle_8cpp.html#ab1760445583959132ffd9998372c9aac" target="_top" xlink:title="poolalloc">
<polygon fill="#ffffff" stroke="#000000" points="92,-.5 92,-19.5 147,-19.5 147,-.5 92,-.5"/>
<text text-anchor="middle" x="119.5" y="-7.5" font-family="Helvetica,sans-Serif" font-size="10.00" fill="#000000">poolalloc</text>
</a>
</g>
</g>
<!-- Node1555&#45;&gt;Node1556 -->
<g id="edge1" class="edge">
<title>Node1555&#45;&gt;Node1556</title>
<path fill="none" stroke="#191970" d="M56.4496,-10C64.4311,-10 73.2364,-10 81.6711,-10"/>
<polygon fill="#191970" stroke="#191970" points="81.6957,-13.5001 91.6957,-10 81.6957,-6.5001 81.6957,-13.5001"/>
</g>
<!-- Node1557 -->
<g id="node3" class="node">
<title>Node1557</title>
<g id="a_node3"><a xlink:href="triangle_8cpp.html#a5f51f1d3957615b2c84a91fd9f5f09bf" target="_top" xlink:title="trimalloc">
<polygon fill="#ffffff" stroke="#000000" points="183,-.5 183,-19.5 236,-19.5 236,-.5 183,-.5"/>
<text text-anchor="middle" x="209.5" y="-7.5" font-family="Helvetica,sans-Serif" font-size="10.00" fill="#000000">trimalloc</text>
</a>
</g>
</g>
<!-- Node1556&#45;&gt;Node1557 -->
<g id="edge2" class="edge">
<title>Node1556&#45;&gt;Node1557</title>
<path fill="none" stroke="#191970" d="M147.4832,-10C155.4806,-10 164.3188,-10 172.7561,-10"/>
<polygon fill="#191970" stroke="#191970" points="172.7655,-13.5001 182.7654,-10 172.7654,-6.5001 172.7655,-13.5001"/>
</g>
<!-- Node1558 -->
<g id="node4" class="node">
<title>Node1558</title>
<g id="a_node4"><a xlink:href="triangle_8cpp.html#a648abfc70d158485620dbcb9aa990178" target="_top" xlink:title="triexit">
<polygon fill="#ffffff" stroke="#000000" points="272,-.5 272,-19.5 313,-19.5 313,-.5 272,-.5"/>
<text text-anchor="middle" x="292.5" y="-7.5" font-family="Helvetica,sans-Serif" font-size="10.00" fill="#000000">triexit</text>
</a>
</g>
</g>
<!-- Node1557&#45;&gt;Node1558 -->
<g id="edge3" class="edge">
<title>Node1557&#45;&gt;Node1558</title>
<path fill="none" stroke="#191970" d="M236.2186,-10C244.3489,-10 253.3499,-10 261.7251,-10"/>
<polygon fill="#191970" stroke="#191970" points="261.8865,-13.5001 271.8865,-10 261.8865,-6.5001 261.8865,-13.5001"/>
</g>
</g>
</svg>
