<?xml version="1.0" encoding="UTF-8" standalone="no"?>
<!DOCTYPE svg PUBLIC "-//W3C//DTD SVG 1.1//EN"
 "http://www.w3.org/Graphics/SVG/1.1/DTD/svg11.dtd">
<!-- Generated by graphviz version 2.40.1 (20161225.0304)
 -->
<!-- Title: printtriangle Pages: 1 -->
<svg width="879pt" height="332pt"
 viewBox="0.00 0.00 879.00 332.00" xmlns="http://www.w3.org/2000/svg" xmlns:xlink="http://www.w3.org/1999/xlink">
<g id="graph0" class="graph" transform="scale(1 1) rotate(0) translate(4 328)">
<title>printtriangle</title>
<polygon fill="#ffffff" stroke="transparent" points="-4,4 -4,-328 875,-328 875,4 -4,4"/>
<!-- Node164 -->
<g id="node1" class="node">
<title>Node164</title>
<polygon fill="#bfbfbf" stroke="#000000" points="0,-76.5 0,-95.5 67,-95.5 67,-76.5 0,-76.5"/>
<text text-anchor="middle" x="33.5" y="-83.5" font-family="Helvetica,sans-Serif" font-size="10.00" fill="#000000">printtriangle</text>
</g>
<!-- Node165 -->
<g id="node2" class="node">
<title>Node165</title>
<g id="a_node2"><a xlink:href="triangle_8cpp.html#adaf57083638c866f831ae08a5e993b12" target="_top" xlink:title="flip">
<polygon fill="#ffffff" stroke="#000000" points="122.5,-76.5 122.5,-95.5 151.5,-95.5 151.5,-76.5 122.5,-76.5"/>
<text text-anchor="middle" x="137" y="-83.5" font-family="Helvetica,sans-Serif" font-size="10.00" fill="#000000">flip</text>
</a>
</g>
</g>
<!-- Node164&#45;&gt;Node165 -->
<g id="edge1" class="edge">
<title>Node164&#45;&gt;Node165</title>
<path fill="none" stroke="#191970" d="M77.44,-86C93.4964,-86 110.5794,-86 122.3135,-86"/>
<polygon fill="#191970" stroke="#191970" points="77.1035,-82.5001 67.1035,-86 77.1035,-89.5001 77.1035,-82.5001"/>
</g>
<!-- Node177 -->
<g id="node12" class="node">
<title>Node177</title>
<g id="a_node12"><a xlink:href="triangle_8cpp.html#ad0519b3b99595506b2c45d5b0c5aa7cf" target="_top" xlink:title="unflip">
<polygon fill="#ffffff" stroke="#000000" points="117,-285.5 117,-304.5 157,-304.5 157,-285.5 117,-285.5"/>
<text text-anchor="middle" x="137" y="-292.5" font-family="Helvetica,sans-Serif" font-size="10.00" fill="#000000">unflip</text>
</a>
</g>
</g>
<!-- Node164&#45;&gt;Node177 -->
<g id="edge13" class="edge">
<title>Node164&#45;&gt;Node177</title>
<path fill="none" stroke="#191970" d="M39.0299,-105.5579C48.8422,-138.4434 71.2927,-206.1971 103,-257 109.6556,-267.664 119.3887,-278.1894 126.7374,-285.4488"/>
<polygon fill="#191970" stroke="#191970" points="42.3494,-104.4386 36.1917,-95.8169 35.6289,-106.3968 42.3494,-104.4386"/>
</g>
<!-- Node180 -->
<g id="node15" class="node">
<title>Node180</title>
<g id="a_node15"><a xlink:href="triangle_8cpp.html#a2ede94743503e369e9b1c6c2a0ac9f7f" target="_top" xlink:title="insertvertex">
<polygon fill="#ffffff" stroke="#000000" points="103,-228.5 103,-247.5 171,-247.5 171,-228.5 103,-228.5"/>
<text text-anchor="middle" x="137" y="-235.5" font-family="Helvetica,sans-Serif" font-size="10.00" fill="#000000">insertvertex</text>
</a>
</g>
</g>
<!-- Node164&#45;&gt;Node180 -->
<g id="edge17" class="edge">
<title>Node164&#45;&gt;Node180</title>
<path fill="none" stroke="#191970" d="M45.7763,-104.029C67.8728,-136.4799 113.6136,-203.6547 130.5281,-228.4953"/>
<polygon fill="#191970" stroke="#191970" points="48.4957,-101.8041 39.9744,-95.5083 42.7097,-105.7439 48.4957,-101.8041"/>
</g>
<!-- Node183 -->
<g id="node18" class="node">
<title>Node183</title>
<g id="a_node18"><a xlink:href="triangle_8cpp.html#a8b98b5137610f709b12bc0f9de701534" target="_top" xlink:title="mergehulls">
<polygon fill="#ffffff" stroke="#000000" points="105,-.5 105,-19.5 169,-19.5 169,-.5 105,-.5"/>
<text text-anchor="middle" x="137" y="-7.5" font-family="Helvetica,sans-Serif" font-size="10.00" fill="#000000">mergehulls</text>
</a>
</g>
</g>
<!-- Node164&#45;&gt;Node183 -->
<g id="edge26" class="edge">
<title>Node164&#45;&gt;Node183</title>
<path fill="none" stroke="#191970" d="M54.5164,-70.0387C68.2443,-59.6716 86.6009,-45.9193 103,-34 109.5459,-29.2423 116.8719,-24.0538 123.0426,-19.7222"/>
<polygon fill="#191970" stroke="#191970" points="52.0926,-67.4838 46.2308,-76.3093 56.3168,-73.0655 52.0926,-67.4838"/>
</g>
<!-- Node184 -->
<g id="node19" class="node">
<title>Node184</title>
<g id="a_node19"><a xlink:href="triangle_8cpp.html#ae64549179195e9fea8a3589a003e44ac" target="_top" xlink:title="divconqrecurse">
<polygon fill="#ffffff" stroke="#000000" points="217.5,-.5 217.5,-19.5 300.5,-19.5 300.5,-.5 217.5,-.5"/>
<text text-anchor="middle" x="259" y="-7.5" font-family="Helvetica,sans-Serif" font-size="10.00" fill="#000000">divconqrecurse</text>
</a>
</g>
</g>
<!-- Node164&#45;&gt;Node184 -->
<g id="edge31" class="edge">
<title>Node164&#45;&gt;Node184</title>
<path fill="none" stroke="#191970" d="M71.7553,-73.1069C116.7751,-57.9339 190.4745,-33.0951 230.6722,-19.5473"/>
<polygon fill="#191970" stroke="#191970" points="70.4182,-69.864 62.0597,-76.3745 72.6539,-76.4974 70.4182,-69.864"/>
</g>
<!-- Node166 -->
<g id="node3" class="node">
<title>Node166</title>
<g id="a_node3"><a xlink:href="triangle_8cpp.html#a8ab6fa4f05809e4cb6838ba724de2f88" target="_top" xlink:title="triangulatepolygon">
<polygon fill="#ffffff" stroke="#000000" points="211.5,-190.5 211.5,-209.5 306.5,-209.5 306.5,-190.5 211.5,-190.5"/>
<text text-anchor="middle" x="259" y="-197.5" font-family="Helvetica,sans-Serif" font-size="10.00" fill="#000000">triangulatepolygon</text>
</a>
</g>
</g>
<!-- Node165&#45;&gt;Node166 -->
<g id="edge2" class="edge">
<title>Node165&#45;&gt;Node166</title>
<path fill="none" stroke="#191970" d="M146.2938,-104.5143C157.83,-125.7587 179.4005,-160.3202 207,-181 212.0766,-184.8038 217.9919,-187.9092 223.976,-190.4234"/>
<polygon fill="#191970" stroke="#191970" points="149.327,-102.7621 141.5836,-95.5308 143.1275,-106.0126 149.327,-102.7621"/>
</g>
<!-- Node173 -->
<g id="node8" class="node">
<title>Node173</title>
<g id="a_node8"><a xlink:href="triangle_8cpp.html#a4ea48503ae03dd0ab0e1c9dc926c3ce2" target="_top" xlink:title="delaunayfixup">
<polygon fill="#ffffff" stroke="#000000" points="347.5,-76.5 347.5,-95.5 424.5,-95.5 424.5,-76.5 347.5,-76.5"/>
<text text-anchor="middle" x="386" y="-83.5" font-family="Helvetica,sans-Serif" font-size="10.00" fill="#000000">delaunayfixup</text>
</a>
</g>
</g>
<!-- Node165&#45;&gt;Node173 -->
<g id="edge7" class="edge">
<title>Node165&#45;&gt;Node173</title>
<path fill="none" stroke="#191970" d="M162.1005,-86C205.6754,-86 295.5932,-86 347.239,-86"/>
<polygon fill="#191970" stroke="#191970" points="161.8304,-82.5001 151.8304,-86 161.8304,-89.5001 161.8304,-82.5001"/>
</g>
<!-- Node174 -->
<g id="node9" class="node">
<title>Node174</title>
<g id="a_node9"><a xlink:href="triangle_8cpp.html#aded205ef0849b44d2a587f53fd720618" target="_top" xlink:title="constrainededge">
<polygon fill="#ffffff" stroke="#000000" points="461.5,-114.5 461.5,-133.5 549.5,-133.5 549.5,-114.5 461.5,-114.5"/>
<text text-anchor="middle" x="505.5" y="-121.5" font-family="Helvetica,sans-Serif" font-size="10.00" fill="#000000">constrainededge</text>
</a>
</g>
</g>
<!-- Node165&#45;&gt;Node174 -->
<g id="edge12" class="edge">
<title>Node165&#45;&gt;Node174</title>
<path fill="none" stroke="#191970" d="M161.219,-78.5643C211.6757,-64.3222 331.1615,-37.1413 425,-67 454.3729,-76.3462 482.2382,-100.7293 496.1944,-114.383"/>
<polygon fill="#191970" stroke="#191970" points="160.1581,-75.2277 151.5339,-81.3818 162.1135,-81.9491 160.1581,-75.2277"/>
</g>
<!-- Node167 -->
<g id="node4" class="node">
<title>Node167</title>
<g id="a_node4"><a xlink:href="triangle_8cpp.html#a9a6911e4ef926cd4546bb41819b1c8c5" target="_top" xlink:title="deletevertex">
<polygon fill="#ffffff" stroke="#000000" points="351,-190.5 351,-209.5 421,-209.5 421,-190.5 351,-190.5"/>
<text text-anchor="middle" x="386" y="-197.5" font-family="Helvetica,sans-Serif" font-size="10.00" fill="#000000">deletevertex</text>
</a>
</g>
</g>
<!-- Node166&#45;&gt;Node167 -->
<g id="edge3" class="edge">
<title>Node166&#45;&gt;Node167</title>
<path fill="none" stroke="#191970" d="M316.7475,-200C328.3567,-200 340.2245,-200 350.7815,-200"/>
<polygon fill="#191970" stroke="#191970" points="316.6515,-196.5001 306.6514,-200 316.6514,-203.5001 316.6515,-196.5001"/>
</g>
<!-- Node168 -->
<g id="node5" class="node">
<title>Node168</title>
<g id="a_node5"><a xlink:href="triangle_8cpp.html#adca37fc9e90f78c9ae794662de5428bd" target="_top" xlink:title="splitencsegs">
<polygon fill="#ffffff" stroke="#000000" points="470,-190.5 470,-209.5 541,-209.5 541,-190.5 470,-190.5"/>
<text text-anchor="middle" x="505.5" y="-197.5" font-family="Helvetica,sans-Serif" font-size="10.00" fill="#000000">splitencsegs</text>
</a>
</g>
</g>
<!-- Node167&#45;&gt;Node168 -->
<g id="edge4" class="edge">
<title>Node167&#45;&gt;Node168</title>
<path fill="none" stroke="#191970" d="M431.5564,-200C444.1918,-200 457.7262,-200 469.7169,-200"/>
<polygon fill="#191970" stroke="#191970" points="431.2076,-196.5001 421.2076,-200 431.2076,-203.5001 431.2076,-196.5001"/>
</g>
<!-- Node169 -->
<g id="node6" class="node">
<title>Node169</title>
<g id="a_node6"><a xlink:href="triangle_8cpp.html#a5a654ff6b304f2166c64ffe9183b2995" target="_top" xlink:title="enforcequality">
<polygon fill="#ffffff" stroke="#000000" points="586.5,-190.5 586.5,-209.5 663.5,-209.5 663.5,-190.5 586.5,-190.5"/>
<text text-anchor="middle" x="625" y="-197.5" font-family="Helvetica,sans-Serif" font-size="10.00" fill="#000000">enforcequality</text>
</a>
</g>
</g>
<!-- Node168&#45;&gt;Node169 -->
<g id="edge5" class="edge">
<title>Node168&#45;&gt;Node169</title>
<path fill="none" stroke="#191970" d="M551.052,-200C562.7363,-200 575.1895,-200 586.4802,-200"/>
<polygon fill="#191970" stroke="#191970" points="551.0304,-196.5001 541.0304,-200 551.0304,-203.5001 551.0304,-196.5001"/>
</g>
<!-- Node170 -->
<g id="node7" class="node">
<title>Node170</title>
<g id="a_node7"><a xlink:href="triangle_8hpp.html#a848df2990f66cdbdc9d1ac87f4646527" target="_top" xlink:title="Call Triangle. ">
<polygon fill="#ffffff" stroke="#ff0000" points="809,-133.5 809,-152.5 871,-152.5 871,-133.5 809,-133.5"/>
<text text-anchor="middle" x="840" y="-140.5" font-family="Helvetica,sans-Serif" font-size="10.00" fill="#000000">triangulate</text>
</a>
</g>
</g>
<!-- Node169&#45;&gt;Node170 -->
<g id="edge6" class="edge">
<title>Node169&#45;&gt;Node170</title>
<path fill="none" stroke="#191970" d="M672.9671,-188.0072C701.9726,-180.6748 739.6675,-171.0039 773,-162 784.6723,-158.847 797.449,-155.2582 808.6862,-152.055"/>
<polygon fill="#191970" stroke="#191970" points="671.9315,-184.6587 663.0912,-190.4982 673.6436,-191.4461 671.9315,-184.6587"/>
</g>
<!-- Node173&#45;&gt;Node174 -->
<g id="edge8" class="edge">
<title>Node173&#45;&gt;Node174</title>
<path fill="none" stroke="#191970" d="M425.8766,-98.6804C442.023,-103.8148 460.3544,-109.6441 475.3548,-114.4141"/>
<polygon fill="#191970" stroke="#191970" points="426.7453,-95.284 416.1549,-95.589 424.624,-101.9549 426.7453,-95.284"/>
</g>
<!-- Node175 -->
<g id="node10" class="node">
<title>Node175</title>
<g id="a_node10"><a xlink:href="triangle_8cpp.html#ae367b20189056436da2a1b633b392703" target="_top" xlink:title="insertsegment">
<polygon fill="#ffffff" stroke="#000000" points="586,-133.5 586,-152.5 664,-152.5 664,-133.5 586,-133.5"/>
<text text-anchor="middle" x="625" y="-140.5" font-family="Helvetica,sans-Serif" font-size="10.00" fill="#000000">insertsegment</text>
</a>
</g>
</g>
<!-- Node174&#45;&gt;Node175 -->
<g id="edge9" class="edge">
<title>Node174&#45;&gt;Node175</title>
<path fill="none" stroke="#191970" d="M559.8061,-132.6344C568.551,-134.0248 577.4527,-135.4402 585.7536,-136.76"/>
<polygon fill="#191970" stroke="#191970" points="560.0834,-129.1347 549.6579,-131.0209 558.9842,-136.0478 560.0834,-129.1347"/>
</g>
<!-- Node176 -->
<g id="node11" class="node">
<title>Node176</title>
<g id="a_node11"><a xlink:href="triangle_8cpp.html#a77e7549672629c06d5926b7edcafc337" target="_top" xlink:title="formskeleton">
<polygon fill="#ffffff" stroke="#000000" points="700,-133.5 700,-152.5 773,-152.5 773,-133.5 700,-133.5"/>
<text text-anchor="middle" x="736.5" y="-140.5" font-family="Helvetica,sans-Serif" font-size="10.00" fill="#000000">formskeleton</text>
</a>
</g>
</g>
<!-- Node175&#45;&gt;Node176 -->
<g id="edge10" class="edge">
<title>Node175&#45;&gt;Node176</title>
<path fill="none" stroke="#191970" d="M674.5197,-143C683.0128,-143 691.7012,-143 699.7832,-143"/>
<polygon fill="#191970" stroke="#191970" points="674.3108,-139.5001 664.3107,-143 674.3107,-146.5001 674.3108,-139.5001"/>
</g>
<!-- Node176&#45;&gt;Node170 -->
<g id="edge11" class="edge">
<title>Node176&#45;&gt;Node170</title>
<path fill="none" stroke="#191970" d="M783.2894,-143C791.9375,-143 800.772,-143 808.815,-143"/>
<polygon fill="#191970" stroke="#191970" points="783.2817,-139.5001 773.2817,-143 783.2816,-146.5001 783.2817,-139.5001"/>
</g>
<!-- Node178 -->
<g id="node13" class="node">
<title>Node178</title>
<g id="a_node13"><a xlink:href="triangle_8cpp.html#a4e3735a2f4c1fa18deb1a2e66aeda7bd" target="_top" xlink:title="undovertex">
<polygon fill="#ffffff" stroke="#000000" points="226.5,-304.5 226.5,-323.5 291.5,-323.5 291.5,-304.5 226.5,-304.5"/>
<text text-anchor="middle" x="259" y="-311.5" font-family="Helvetica,sans-Serif" font-size="10.00" fill="#000000">undovertex</text>
</a>
</g>
</g>
<!-- Node177&#45;&gt;Node178 -->
<g id="edge14" class="edge">
<title>Node177&#45;&gt;Node178</title>
<path fill="none" stroke="#191970" d="M167.1106,-299.6893C185.1114,-302.4928 207.9876,-306.0554 226.4114,-308.9247"/>
<polygon fill="#191970" stroke="#191970" points="167.5653,-296.2181 157.1458,-298.1375 166.4881,-303.1347 167.5653,-296.2181"/>
</g>
<!-- Node179 -->
<g id="node14" class="node">
<title>Node179</title>
<g id="a_node14"><a xlink:href="triangle_8cpp.html#a48fc63d369d988c08cbe8ab40f0b8af5" target="_top" xlink:title="splittriangle">
<polygon fill="#ffffff" stroke="#000000" points="353,-266.5 353,-285.5 419,-285.5 419,-266.5 353,-266.5"/>
<text text-anchor="middle" x="386" y="-273.5" font-family="Helvetica,sans-Serif" font-size="10.00" fill="#000000">splittriangle</text>
</a>
</g>
</g>
<!-- Node178&#45;&gt;Node179 -->
<g id="edge15" class="edge">
<title>Node178&#45;&gt;Node179</title>
<path fill="none" stroke="#191970" d="M300.8943,-301.4647C318.1712,-296.2952 337.8707,-290.4009 353.9628,-285.5859"/>
<polygon fill="#191970" stroke="#191970" points="299.6245,-298.1912 291.0475,-304.411 301.6311,-304.8975 299.6245,-298.1912"/>
</g>
<!-- Node179&#45;&gt;Node169 -->
<g id="edge16" class="edge">
<title>Node179&#45;&gt;Node169</title>
<path fill="none" stroke="#191970" d="M425.9457,-263.2976C473.6035,-248.1428 552.1931,-223.152 594.9763,-209.5473"/>
<polygon fill="#191970" stroke="#191970" points="424.7386,-260.0087 416.2695,-266.3745 426.86,-266.6795 424.7386,-260.0087"/>
</g>
<!-- Node180&#45;&gt;Node168 -->
<g id="edge24" class="edge">
<title>Node180&#45;&gt;Node168</title>
<path fill="none" stroke="#191970" d="M181.404,-237.3511C238.181,-235.9999 339.3951,-231.8355 425,-219 440.195,-216.7217 456.7511,-213.0286 470.876,-209.5015"/>
<polygon fill="#191970" stroke="#191970" points="181.2542,-233.8534 171.3334,-237.5721 181.4078,-240.8518 181.2542,-233.8534"/>
</g>
<!-- Node180&#45;&gt;Node178 -->
<g id="edge18" class="edge">
<title>Node180&#45;&gt;Node178</title>
<path fill="none" stroke="#191970" d="M156.5113,-254.207C170.1482,-265.0979 189.0588,-279.3511 207,-290 216.0633,-295.3795 226.5363,-300.4188 235.6977,-304.4774"/>
<polygon fill="#191970" stroke="#191970" points="158.3459,-251.1885 148.3747,-247.6074 153.9364,-256.625 158.3459,-251.1885"/>
</g>
<!-- Node180&#45;&gt;Node179 -->
<g id="edge25" class="edge">
<title>Node180&#45;&gt;Node179</title>
<path fill="none" stroke="#191970" d="M180.9833,-247.2441C189.5919,-248.9267 198.5651,-250.5925 207,-252 257.7201,-260.4633 316.9167,-267.9326 352.9138,-272.2081"/>
<polygon fill="#191970" stroke="#191970" points="181.5901,-243.7963 171.0991,-245.2755 180.2228,-250.6614 181.5901,-243.7963"/>
</g>
<!-- Node181 -->
<g id="node16" class="node">
<title>Node181</title>
<g id="a_node16"><a xlink:href="triangle_8cpp.html#a496c50bca0cf0c214a0204419c3b181a" target="_top" xlink:title="segmentintersection">
<polygon fill="#ffffff" stroke="#000000" points="207,-152.5 207,-171.5 311,-171.5 311,-152.5 207,-152.5"/>
<text text-anchor="middle" x="259" y="-159.5" font-family="Helvetica,sans-Serif" font-size="10.00" fill="#000000">segmentintersection</text>
</a>
</g>
</g>
<!-- Node180&#45;&gt;Node181 -->
<g id="edge19" class="edge">
<title>Node180&#45;&gt;Node181</title>
<path fill="none" stroke="#191970" d="M154.1791,-221.2438C167.6583,-208.8147 187.3671,-192.1591 207,-181 213.4342,-177.3429 220.7022,-174.1668 227.7204,-171.5133"/>
<polygon fill="#191970" stroke="#191970" points="151.5195,-218.9412 146.6478,-228.3496 156.3234,-224.0327 151.5195,-218.9412"/>
</g>
<!-- Node181&#45;&gt;Node174 -->
<g id="edge23" class="edge">
<title>Node181&#45;&gt;Node174</title>
<path fill="none" stroke="#191970" d="M309.6103,-150.2277C321.811,-147.6241 334.8366,-145.0376 347,-143 385.4036,-136.5668 429.3954,-131.472 461.2738,-128.1843"/>
<polygon fill="#191970" stroke="#191970" points="308.6202,-146.8612 299.5928,-152.407 310.1083,-153.7012 308.6202,-146.8612"/>
</g>
<!-- Node182 -->
<g id="node17" class="node">
<title>Node182</title>
<g id="a_node17"><a xlink:href="triangle_8cpp.html#ae9d4ed09a0fd07959568ba5f86cc4d0c" target="_top" xlink:title="scoutsegment">
<polygon fill="#ffffff" stroke="#000000" points="347,-152.5 347,-171.5 425,-171.5 425,-152.5 347,-152.5"/>
<text text-anchor="middle" x="386" y="-159.5" font-family="Helvetica,sans-Serif" font-size="10.00" fill="#000000">scoutsegment</text>
</a>
</g>
</g>
<!-- Node181&#45;&gt;Node182 -->
<g id="edge20" class="edge">
<title>Node181&#45;&gt;Node182</title>
<path fill="none" stroke="#191970" d="M321.1725,-162C329.8652,-162 338.5912,-162 346.6983,-162"/>
<polygon fill="#191970" stroke="#191970" points="321.0222,-158.5001 311.0222,-162 321.0222,-165.5001 321.0222,-158.5001"/>
</g>
<!-- Node182&#45;&gt;Node174 -->
<g id="edge21" class="edge">
<title>Node182&#45;&gt;Node174</title>
<path fill="none" stroke="#191970" d="M425.8766,-149.3196C442.023,-144.1852 460.3544,-138.3559 475.3548,-133.5859"/>
<polygon fill="#191970" stroke="#191970" points="424.624,-146.0451 416.1549,-152.411 426.7453,-152.716 424.624,-146.0451"/>
</g>
<!-- Node182&#45;&gt;Node175 -->
<g id="edge22" class="edge">
<title>Node182&#45;&gt;Node175</title>
<path fill="none" stroke="#191970" d="M435.2261,-158.0866C479.8025,-154.5429 544.6143,-149.3905 585.7802,-146.1179"/>
<polygon fill="#191970" stroke="#191970" points="434.8895,-154.6022 425.1984,-158.8838 435.4443,-161.5802 434.8895,-154.6022"/>
</g>
<!-- Node183&#45;&gt;Node184 -->
<g id="edge27" class="edge">
<title>Node183&#45;&gt;Node184</title>
<path fill="none" stroke="#191970" d="M179.0589,-10C191.3478,-10 204.7754,-10 217.0572,-10"/>
<polygon fill="#191970" stroke="#191970" points="179.0541,-6.5001 169.0541,-10 179.054,-13.5001 179.0541,-6.5001"/>
</g>
<!-- Node185 -->
<g id="node20" class="node">
<title>Node185</title>
<g id="a_node20"><a xlink:href="triangle_8cpp.html#a4a13891380126c239a32b46c88f06223" target="_top" xlink:title="divconqdelaunay">
<polygon fill="#ffffff" stroke="#000000" points="461,-38.5 461,-57.5 550,-57.5 550,-38.5 461,-38.5"/>
<text text-anchor="middle" x="505.5" y="-45.5" font-family="Helvetica,sans-Serif" font-size="10.00" fill="#000000">divconqdelaunay</text>
</a>
</g>
</g>
<!-- Node184&#45;&gt;Node185 -->
<g id="edge28" class="edge">
<title>Node184&#45;&gt;Node185</title>
<path fill="none" stroke="#191970" d="M310.9146,-17.1169C343.6733,-21.704 386.8555,-27.9269 425,-34 436.6275,-35.8512 449.1773,-37.9737 460.829,-39.9969"/>
<polygon fill="#191970" stroke="#191970" points="311.0521,-13.6023 300.6645,-15.6873 310.0851,-20.5352 311.0521,-13.6023"/>
</g>
<!-- Node186 -->
<g id="node21" class="node">
<title>Node186</title>
<g id="a_node21"><a xlink:href="triangle_8cpp.html#ab67faa70960c7c39ee1150ab4d55f0a5" target="_top" xlink:title="delaunay">
<polygon fill="#ffffff" stroke="#000000" points="708.5,-86.5 708.5,-105.5 764.5,-105.5 764.5,-86.5 708.5,-86.5"/>
<text text-anchor="middle" x="736.5" y="-93.5" font-family="Helvetica,sans-Serif" font-size="10.00" fill="#000000">delaunay</text>
</a>
</g>
</g>
<!-- Node185&#45;&gt;Node186 -->
<g id="edge29" class="edge">
<title>Node185&#45;&gt;Node186</title>
<path fill="none" stroke="#191970" d="M559.975,-59.3195C606.56,-68.9995 671.7258,-82.5404 708.449,-90.1712"/>
<polygon fill="#191970" stroke="#191970" points="560.5421,-55.8626 550.0391,-57.2549 559.1179,-62.7162 560.5421,-55.8626"/>
</g>
<!-- Node186&#45;&gt;Node170 -->
<g id="edge30" class="edge">
<title>Node186&#45;&gt;Node170</title>
<path fill="none" stroke="#191970" d="M766.7773,-109.7491C783.452,-117.3212 803.7421,-126.535 818.7311,-133.3417"/>
<polygon fill="#191970" stroke="#191970" points="767.9971,-106.4591 757.4448,-105.5112 765.1028,-112.8327 767.9971,-106.4591"/>
</g>
</g>
</svg>
