<?xml version="1.0" encoding="UTF-8" standalone="no"?>
<!DOCTYPE svg PUBLIC "-//W3C//DTD SVG 1.1//EN"
 "http://www.w3.org/Graphics/SVG/1.1/DTD/svg11.dtd">
<!-- Generated by graphviz version 2.40.1 (20161225.0304)
 -->
<!-- Title: triangleinit Pages: 1 -->
<svg width="158pt" height="66pt"
 viewBox="0.00 0.00 158.00 66.00" xmlns="http://www.w3.org/2000/svg" xmlns:xlink="http://www.w3.org/1999/xlink">
<g id="graph0" class="graph" transform="scale(1 1) rotate(0) translate(4 62)">
<title>triangleinit</title>
<polygon fill="#ffffff" stroke="transparent" points="-4,4 -4,-62 154,-62 154,4 -4,4"/>
<!-- Node857 -->
<g id="node1" class="node">
<title>Node857</title>
<polygon fill="#bfbfbf" stroke="#000000" points="0,-19.5 0,-38.5 61,-38.5 61,-19.5 0,-19.5"/>
<text text-anchor="middle" x="30.5" y="-26.5" font-family="Helvetica,sans-Serif" font-size="10.00" fill="#000000">triangleinit</text>
</g>
<!-- Node858 -->
<g id="node2" class="node">
<title>Node858</title>
<g id="a_node2"><a xlink:href="triangle_8cpp.html#a648dd8087d1bb748e403c1fefe8f720e" target="_top" xlink:title="poolzero">
<polygon fill="#ffffff" stroke="#000000" points="97,-38.5 97,-57.5 150,-57.5 150,-38.5 97,-38.5"/>
<text text-anchor="middle" x="123.5" y="-45.5" font-family="Helvetica,sans-Serif" font-size="10.00" fill="#000000">poolzero</text>
</a>
</g>
</g>
<!-- Node857&#45;&gt;Node858 -->
<g id="edge1" class="edge">
<title>Node857&#45;&gt;Node858</title>
<path fill="none" stroke="#191970" d="M61.2094,-35.274C69.4093,-36.9492 78.3526,-38.7763 86.8379,-40.5099"/>
<polygon fill="#191970" stroke="#191970" points="86.3819,-43.9889 96.8801,-42.5615 87.7831,-37.1306 86.3819,-43.9889"/>
</g>
<!-- Node859 -->
<g id="node3" class="node">
<title>Node859</title>
<g id="a_node3"><a xlink:href="triangle_8cpp.html#a32edc074e3e366c1748b3a27ea86caed" target="_top" xlink:title="exactinit">
<polygon fill="#ffffff" stroke="#000000" points="97,-.5 97,-19.5 150,-19.5 150,-.5 97,-.5"/>
<text text-anchor="middle" x="123.5" y="-7.5" font-family="Helvetica,sans-Serif" font-size="10.00" fill="#000000">exactinit</text>
</a>
</g>
</g>
<!-- Node857&#45;&gt;Node859 -->
<g id="edge2" class="edge">
<title>Node857&#45;&gt;Node859</title>
<path fill="none" stroke="#191970" d="M61.2094,-22.726C69.4093,-21.0508 78.3526,-19.2237 86.8379,-17.4901"/>
<polygon fill="#191970" stroke="#191970" points="87.7831,-20.8694 96.8801,-15.4385 86.3819,-14.0111 87.7831,-20.8694"/>
</g>
</g>
</svg>
