<?xml version="1.0" encoding="UTF-8" standalone="no"?>
<!DOCTYPE svg PUBLIC "-//W3C//DTD SVG 1.1//EN"
 "http://www.w3.org/Graphics/SVG/1.1/DTD/svg11.dtd">
<!-- Generated by graphviz version 2.40.1 (20161225.0304)
 -->
<!-- Title: nonregular Pages: 1 -->
<svg width="435pt" height="116pt"
 viewBox="0.00 0.00 435.00 116.00" xmlns="http://www.w3.org/2000/svg" xmlns:xlink="http://www.w3.org/1999/xlink">
<g id="graph0" class="graph" transform="scale(1 1) rotate(0) translate(4 112)">
<title>nonregular</title>
<polygon fill="#ffffff" stroke="transparent" points="-4,4 -4,-112 431,-112 431,4 -4,4"/>
<!-- Node835 -->
<g id="node1" class="node">
<title>Node835</title>
<polygon fill="#bfbfbf" stroke="#000000" points="0,-44.5 0,-63.5 62,-63.5 62,-44.5 0,-44.5"/>
<text text-anchor="middle" x="31" y="-51.5" font-family="Helvetica,sans-Serif" font-size="10.00" fill="#000000">nonregular</text>
</g>
<!-- Node836 -->
<g id="node2" class="node">
<title>Node836</title>
<g id="a_node2"><a xlink:href="triangle_8cpp.html#abbd721e83ed16c99082c2152fa55e2ee" target="_top" xlink:title="incircle">
<polygon fill="#ffffff" stroke="#000000" points="100,-63.5 100,-82.5 147,-82.5 147,-63.5 100,-63.5"/>
<text text-anchor="middle" x="123.5" y="-70.5" font-family="Helvetica,sans-Serif" font-size="10.00" fill="#000000">incircle</text>
</a>
</g>
</g>
<!-- Node835&#45;&gt;Node836 -->
<g id="edge1" class="edge">
<title>Node835&#45;&gt;Node836</title>
<path fill="none" stroke="#191970" d="M62.0585,-60.3796C71.058,-62.2281 80.9208,-64.254 90.0593,-66.1311"/>
<polygon fill="#191970" stroke="#191970" points="89.4848,-69.5861 99.9845,-68.1698 90.8933,-62.7292 89.4848,-69.5861"/>
</g>
<!-- Node841 -->
<g id="node7" class="node">
<title>Node841</title>
<g id="a_node7"><a xlink:href="triangle_8cpp.html#af2ba7764908abd3e47edf9d18b7a06d8" target="_top" xlink:title="orient3d">
<polygon fill="#ffffff" stroke="#000000" points="98,-25.5 98,-44.5 149,-44.5 149,-25.5 98,-25.5"/>
<text text-anchor="middle" x="123.5" y="-32.5" font-family="Helvetica,sans-Serif" font-size="10.00" fill="#000000">orient3d</text>
</a>
</g>
</g>
<!-- Node835&#45;&gt;Node841 -->
<g id="edge6" class="edge">
<title>Node835&#45;&gt;Node841</title>
<path fill="none" stroke="#191970" d="M62.0585,-47.6204C70.3421,-45.9189 79.357,-44.0672 87.8654,-42.3195"/>
<polygon fill="#191970" stroke="#191970" points="88.8179,-45.697 97.9092,-40.2565 87.4094,-38.8402 88.8179,-45.697"/>
</g>
<!-- Node837 -->
<g id="node3" class="node">
<title>Node837</title>
<g id="a_node3"><a xlink:href="triangle_8cpp.html#ade6dfff2bcdf2f287e419bc4e2a211dc" target="_top" xlink:title="incircleadapt">
<polygon fill="#ffffff" stroke="#000000" points="187,-63.5 187,-82.5 258,-82.5 258,-63.5 187,-63.5"/>
<text text-anchor="middle" x="222.5" y="-70.5" font-family="Helvetica,sans-Serif" font-size="10.00" fill="#000000">incircleadapt</text>
</a>
</g>
</g>
<!-- Node836&#45;&gt;Node837 -->
<g id="edge2" class="edge">
<title>Node836&#45;&gt;Node837</title>
<path fill="none" stroke="#191970" d="M147.213,-73C156.1367,-73 166.6118,-73 176.8644,-73"/>
<polygon fill="#191970" stroke="#191970" points="176.9773,-76.5001 186.9772,-73 176.9772,-69.5001 176.9773,-76.5001"/>
</g>
<!-- Node838 -->
<g id="node4" class="node">
<title>Node838</title>
<g id="a_node4"><a xlink:href="triangle_8cpp.html#abdcdaa8948d9a2937154d9d67f67da8d" target="_top" xlink:title="scale_expansion_zeroelim">
<polygon fill="#ffffff" stroke="#000000" points="296,-88.5 296,-107.5 427,-107.5 427,-88.5 296,-88.5"/>
<text text-anchor="middle" x="361.5" y="-95.5" font-family="Helvetica,sans-Serif" font-size="10.00" fill="#000000">scale_expansion_zeroelim</text>
</a>
</g>
</g>
<!-- Node837&#45;&gt;Node838 -->
<g id="edge3" class="edge">
<title>Node837&#45;&gt;Node838</title>
<path fill="none" stroke="#191970" d="M258.296,-79.4381C270.5943,-81.6501 284.7505,-84.1961 298.5583,-86.6796"/>
<polygon fill="#191970" stroke="#191970" points="298.0578,-90.1456 308.5194,-88.4711 299.2969,-83.2562 298.0578,-90.1456"/>
</g>
<!-- Node839 -->
<g id="node5" class="node">
<title>Node839</title>
<g id="a_node5"><a xlink:href="triangle_8cpp.html#a37646a7e0014e10c612e946bc95aeeea" target="_top" xlink:title="fast_expansion_sum\l_zeroelim">
<polygon fill="#ffffff" stroke="#000000" points="308,-39 308,-69 415,-69 415,-39 308,-39"/>
<text text-anchor="start" x="316" y="-57" font-family="Helvetica,sans-Serif" font-size="10.00" fill="#000000">fast_expansion_sum</text>
<text text-anchor="middle" x="361.5" y="-46" font-family="Helvetica,sans-Serif" font-size="10.00" fill="#000000">_zeroelim</text>
</a>
</g>
</g>
<!-- Node837&#45;&gt;Node839 -->
<g id="edge4" class="edge">
<title>Node837&#45;&gt;Node839</title>
<path fill="none" stroke="#191970" d="M258.296,-68.107C270.3467,-66.4598 284.1812,-64.5688 297.7239,-62.7176"/>
<polygon fill="#191970" stroke="#191970" points="298.555,-66.1366 307.9889,-61.3145 297.6069,-59.2011 298.555,-66.1366"/>
</g>
<!-- Node840 -->
<g id="node6" class="node">
<title>Node840</title>
<g id="a_node6"><a xlink:href="triangle_8cpp.html#a3487d9f90ea72da543d5d38b3dab1fbc" target="_top" xlink:title="estimate">
<polygon fill="#ffffff" stroke="#000000" points="334.5,-.5 334.5,-19.5 388.5,-19.5 388.5,-.5 334.5,-.5"/>
<text text-anchor="middle" x="361.5" y="-7.5" font-family="Helvetica,sans-Serif" font-size="10.00" fill="#000000">estimate</text>
</a>
</g>
</g>
<!-- Node837&#45;&gt;Node840 -->
<g id="edge5" class="edge">
<title>Node837&#45;&gt;Node840</title>
<path fill="none" stroke="#191970" d="M242.6271,-63.4437C248.3299,-60.5645 254.4846,-57.2909 260,-54 276.7281,-44.0186 278.4146,-37.3792 296,-29 304.9645,-24.7286 315.0852,-21.2166 324.6424,-18.425"/>
<polygon fill="#191970" stroke="#191970" points="325.6045,-21.7905 334.3259,-15.775 323.7567,-15.0388 325.6045,-21.7905"/>
</g>
<!-- Node842 -->
<g id="node8" class="node">
<title>Node842</title>
<g id="a_node8"><a xlink:href="triangle_8cpp.html#a49551af03108d1d44d1ff70af93dbdfd" target="_top" xlink:title="orient3dadapt">
<polygon fill="#ffffff" stroke="#000000" points="185,-25.5 185,-44.5 260,-44.5 260,-25.5 185,-25.5"/>
<text text-anchor="middle" x="222.5" y="-32.5" font-family="Helvetica,sans-Serif" font-size="10.00" fill="#000000">orient3dadapt</text>
</a>
</g>
</g>
<!-- Node841&#45;&gt;Node842 -->
<g id="edge7" class="edge">
<title>Node841&#45;&gt;Node842</title>
<path fill="none" stroke="#191970" d="M149.2526,-35C157.0765,-35 165.9377,-35 174.7262,-35"/>
<polygon fill="#191970" stroke="#191970" points="174.9434,-38.5001 184.9433,-35 174.9433,-31.5001 174.9434,-38.5001"/>
</g>
<!-- Node842&#45;&gt;Node838 -->
<g id="edge8" class="edge">
<title>Node842&#45;&gt;Node838</title>
<path fill="none" stroke="#191970" d="M242.5871,-44.6241C248.2893,-47.5045 254.4536,-50.7616 260,-54 276.6062,-63.6961 278.6199,-69.7715 296,-78 301.6418,-80.6711 307.7243,-83.0877 313.8295,-85.242"/>
<polygon fill="#191970" stroke="#191970" points="312.7886,-88.5842 323.382,-88.4101 314.9922,-81.94 312.7886,-88.5842"/>
</g>
<!-- Node842&#45;&gt;Node839 -->
<g id="edge9" class="edge">
<title>Node842&#45;&gt;Node839</title>
<path fill="none" stroke="#191970" d="M260.1154,-40.1417C271.7252,-41.7286 284.8506,-43.5227 297.7132,-45.2809"/>
<polygon fill="#191970" stroke="#191970" points="297.5565,-48.792 307.9384,-46.6786 298.5046,-41.8565 297.5565,-48.792"/>
</g>
<!-- Node842&#45;&gt;Node840 -->
<g id="edge10" class="edge">
<title>Node842&#45;&gt;Node840</title>
<path fill="none" stroke="#191970" d="M260.1154,-28.2346C280.1077,-24.6389 304.594,-20.2349 324.4938,-16.6558"/>
<polygon fill="#191970" stroke="#191970" points="325.2115,-20.083 334.434,-14.868 323.9723,-13.1935 325.2115,-20.083"/>
</g>
</g>
</svg>
