<?xml version="1.0" encoding="UTF-8" standalone="no"?>
<!DOCTYPE svg PUBLIC "-//W3C//DTD SVG 1.1//EN"
 "http://www.w3.org/Graphics/SVG/1.1/DTD/svg11.dtd">
<!-- Generated by graphviz version 2.40.1 (20161225.0304)
 -->
<!-- Title: reconstruct Pages: 1 -->
<svg width="405pt" height="28pt"
 viewBox="0.00 0.00 405.00 28.00" xmlns="http://www.w3.org/2000/svg" xmlns:xlink="http://www.w3.org/1999/xlink">
<g id="graph0" class="graph" transform="scale(1 1) rotate(0) translate(4 24)">
<title>reconstruct</title>
<polygon fill="#ffffff" stroke="transparent" points="-4,4 -4,-24 401,-24 401,4 -4,4"/>
<!-- Node1314 -->
<g id="node1" class="node">
<title>Node1314</title>
<polygon fill="#bfbfbf" stroke="#000000" points="0,-.5 0,-19.5 65,-19.5 65,-.5 0,-.5"/>
<text text-anchor="middle" x="32.5" y="-7.5" font-family="Helvetica,sans-Serif" font-size="10.00" fill="#000000">reconstruct</text>
</g>
<!-- Node1315 -->
<g id="node2" class="node">
<title>Node1315</title>
<g id="a_node2"><a xlink:href="triangle_8hpp.html#a848df2990f66cdbdc9d1ac87f4646527" target="_top" xlink:title="Call Triangle. ">
<polygon fill="#ffffff" stroke="#000000" points="101,-.5 101,-19.5 163,-19.5 163,-.5 101,-.5"/>
<text text-anchor="middle" x="132" y="-7.5" font-family="Helvetica,sans-Serif" font-size="10.00" fill="#000000">triangulate</text>
</a>
</g>
</g>
<!-- Node1314&#45;&gt;Node1315 -->
<g id="edge1" class="edge">
<title>Node1314&#45;&gt;Node1315</title>
<path fill="none" stroke="#191970" d="M75.2854,-10C83.8223,-10 92.6383,-10 100.7011,-10"/>
<polygon fill="#191970" stroke="#191970" points="75.0801,-6.5001 65.08,-10 75.08,-13.5001 75.0801,-6.5001"/>
</g>
<!-- Node1316 -->
<g id="node3" class="node">
<title>Node1316</title>
<g id="a_node3"><a xlink:href="classRiver_1_1Triangle.html#a7bc9c5a5297dee136ab1489a923182dd" target="_top" xlink:title="Generate mesh. ">
<polygon fill="#ffffff" stroke="#000000" points="199,-.5 199,-19.5 323,-19.5 323,-.5 199,-.5"/>
<text text-anchor="middle" x="261" y="-7.5" font-family="Helvetica,sans-Serif" font-size="10.00" fill="#000000">River::Triangle::generate</text>
</a>
</g>
</g>
<!-- Node1315&#45;&gt;Node1316 -->
<g id="edge2" class="edge">
<title>Node1315&#45;&gt;Node1316</title>
<path fill="none" stroke="#191970" d="M173.2629,-10C181.4682,-10 190.2527,-10 198.9767,-10"/>
<polygon fill="#191970" stroke="#191970" points="173.2273,-6.5001 163.2273,-10 173.2273,-13.5001 173.2273,-6.5001"/>
</g>
<!-- Node1317 -->
<g id="node4" class="node">
<title>Node1317</title>
<g id="a_node4"><a xlink:href="main_8cpp.html#a0ddf1224851353fc92bfbff6f499fa97" target="_top" xlink:title="Entry point of RiverSim program. ">
<polygon fill="#ffffff" stroke="#000000" points="359,-.5 359,-19.5 397,-19.5 397,-.5 359,-.5"/>
<text text-anchor="middle" x="378" y="-7.5" font-family="Helvetica,sans-Serif" font-size="10.00" fill="#000000">main</text>
</a>
</g>
</g>
<!-- Node1316&#45;&gt;Node1317 -->
<g id="edge3" class="edge">
<title>Node1316&#45;&gt;Node1317</title>
<path fill="none" stroke="#191970" d="M333.5174,-10C342.8253,-10 351.6301,-10 358.912,-10"/>
<polygon fill="#191970" stroke="#191970" points="333.2682,-6.5001 323.2682,-10 333.2682,-13.5001 333.2682,-6.5001"/>
</g>
</g>
</svg>
