<?xml version="1.0" encoding="UTF-8" standalone="no"?>
<!DOCTYPE svg PUBLIC "-//W3C//DTD SVG 1.1//EN"
 "http://www.w3.org/Graphics/SVG/1.1/DTD/svg11.dtd">
<!-- Generated by graphviz version 2.40.1 (20161225.0304)
 -->
<!-- Title: finddirection Pages: 1 -->
<svg width="678pt" height="66pt"
 viewBox="0.00 0.00 678.00 66.00" xmlns="http://www.w3.org/2000/svg" xmlns:xlink="http://www.w3.org/1999/xlink">
<g id="graph0" class="graph" transform="scale(1 1) rotate(0) translate(4 62)">
<title>finddirection</title>
<polygon fill="#ffffff" stroke="transparent" points="-4,4 -4,-62 674,-62 674,4 -4,4"/>
<!-- Node1325 -->
<g id="node1" class="node">
<title>Node1325</title>
<polygon fill="#bfbfbf" stroke="#000000" points="0,-19.5 0,-38.5 69,-38.5 69,-19.5 0,-19.5"/>
<text text-anchor="middle" x="34.5" y="-26.5" font-family="Helvetica,sans-Serif" font-size="10.00" fill="#000000">finddirection</text>
</g>
<!-- Node1326 -->
<g id="node2" class="node">
<title>Node1326</title>
<g id="a_node2"><a xlink:href="triangle_8cpp.html#a496c50bca0cf0c214a0204419c3b181a" target="_top" xlink:title="segmentintersection">
<polygon fill="#ffffff" stroke="#000000" points="105,-.5 105,-19.5 209,-19.5 209,-.5 105,-.5"/>
<text text-anchor="middle" x="157" y="-7.5" font-family="Helvetica,sans-Serif" font-size="10.00" fill="#000000">segmentintersection</text>
</a>
</g>
</g>
<!-- Node1325&#45;&gt;Node1326 -->
<g id="edge1" class="edge">
<title>Node1325&#45;&gt;Node1326</title>
<path fill="none" stroke="#191970" d="M79.4296,-22.0313C87.6639,-20.7542 96.3227,-19.4112 104.7492,-18.1042"/>
<polygon fill="#191970" stroke="#191970" points="78.6213,-18.6148 69.2759,-23.6062 79.6942,-25.5321 78.6213,-18.6148"/>
</g>
<!-- Node1327 -->
<g id="node3" class="node">
<title>Node1327</title>
<g id="a_node3"><a xlink:href="triangle_8cpp.html#ae9d4ed09a0fd07959568ba5f86cc4d0c" target="_top" xlink:title="scoutsegment">
<polygon fill="#ffffff" stroke="#000000" points="245,-38.5 245,-57.5 323,-57.5 323,-38.5 245,-38.5"/>
<text text-anchor="middle" x="284" y="-45.5" font-family="Helvetica,sans-Serif" font-size="10.00" fill="#000000">scoutsegment</text>
</a>
</g>
</g>
<!-- Node1325&#45;&gt;Node1327 -->
<g id="edge8" class="edge">
<title>Node1325&#45;&gt;Node1327</title>
<path fill="none" stroke="#191970" d="M79.4045,-32.4196C126.4999,-36.006 199.7822,-41.5866 244.6724,-45.0051"/>
<polygon fill="#191970" stroke="#191970" points="79.4288,-28.9114 69.1919,-31.6419 78.8972,-35.8912 79.4288,-28.9114"/>
</g>
<!-- Node1326&#45;&gt;Node1327 -->
<g id="edge2" class="edge">
<title>Node1326&#45;&gt;Node1327</title>
<path fill="none" stroke="#191970" d="M198.8943,-22.5353C216.1712,-27.7048 235.8707,-33.5991 251.9628,-38.4141"/>
<polygon fill="#191970" stroke="#191970" points="199.6311,-19.1025 189.0475,-19.589 197.6245,-25.8088 199.6311,-19.1025"/>
</g>
<!-- Node1328 -->
<g id="node4" class="node">
<title>Node1328</title>
<g id="a_node4"><a xlink:href="triangle_8cpp.html#aded205ef0849b44d2a587f53fd720618" target="_top" xlink:title="constrainededge">
<polygon fill="#ffffff" stroke="#000000" points="359,-.5 359,-19.5 447,-19.5 447,-.5 359,-.5"/>
<text text-anchor="middle" x="403" y="-7.5" font-family="Helvetica,sans-Serif" font-size="10.00" fill="#000000">constrainededge</text>
</a>
</g>
</g>
<!-- Node1326&#45;&gt;Node1328 -->
<g id="edge7" class="edge">
<title>Node1326&#45;&gt;Node1328</title>
<path fill="none" stroke="#191970" d="M219.3549,-10C262.8512,-10 319.8425,-10 358.7271,-10"/>
<polygon fill="#191970" stroke="#191970" points="219.1703,-6.5001 209.1703,-10 219.1702,-13.5001 219.1703,-6.5001"/>
</g>
<!-- Node1327&#45;&gt;Node1328 -->
<g id="edge3" class="edge">
<title>Node1327&#45;&gt;Node1328</title>
<path fill="none" stroke="#191970" d="M323.7098,-35.3196C339.7886,-30.1852 358.0433,-24.3559 372.9809,-19.5859"/>
<polygon fill="#191970" stroke="#191970" points="322.4901,-32.0348 314.0287,-38.411 324.6195,-38.7031 322.4901,-32.0348"/>
</g>
<!-- Node1329 -->
<g id="node5" class="node">
<title>Node1329</title>
<g id="a_node5"><a xlink:href="triangle_8cpp.html#ae367b20189056436da2a1b633b392703" target="_top" xlink:title="insertsegment">
<polygon fill="#ffffff" stroke="#000000" points="483,-19.5 483,-38.5 561,-38.5 561,-19.5 483,-19.5"/>
<text text-anchor="middle" x="522" y="-26.5" font-family="Helvetica,sans-Serif" font-size="10.00" fill="#000000">insertsegment</text>
</a>
</g>
</g>
<!-- Node1327&#45;&gt;Node1329 -->
<g id="edge6" class="edge">
<title>Node1327&#45;&gt;Node1329</title>
<path fill="none" stroke="#191970" d="M333.0201,-44.0866C377.4101,-40.5429 441.9506,-35.3905 482.9443,-32.1179"/>
<polygon fill="#191970" stroke="#191970" points="332.7241,-40.599 323.0344,-44.8838 333.2812,-47.5768 332.7241,-40.599"/>
</g>
<!-- Node1328&#45;&gt;Node1329 -->
<g id="edge4" class="edge">
<title>Node1328&#45;&gt;Node1329</title>
<path fill="none" stroke="#191970" d="M457.2778,-18.6662C465.862,-20.0368 474.5922,-21.4307 482.7464,-22.7326"/>
<polygon fill="#191970" stroke="#191970" points="457.738,-15.1954 447.3112,-17.0749 456.6343,-22.1079 457.738,-15.1954"/>
</g>
<!-- Node1330 -->
<g id="node6" class="node">
<title>Node1330</title>
<g id="a_node6"><a xlink:href="triangle_8cpp.html#a77e7549672629c06d5926b7edcafc337" target="_top" xlink:title="formskeleton">
<polygon fill="#ffffff" stroke="#ff0000" points="597,-19.5 597,-38.5 670,-38.5 670,-19.5 597,-19.5"/>
<text text-anchor="middle" x="633.5" y="-26.5" font-family="Helvetica,sans-Serif" font-size="10.00" fill="#000000">formskeleton</text>
</a>
</g>
</g>
<!-- Node1329&#45;&gt;Node1330 -->
<g id="edge5" class="edge">
<title>Node1329&#45;&gt;Node1330</title>
<path fill="none" stroke="#191970" d="M571.5197,-29C580.0128,-29 588.7012,-29 596.7832,-29"/>
<polygon fill="#191970" stroke="#191970" points="571.3108,-25.5001 561.3107,-29 571.3107,-32.5001 571.3108,-25.5001"/>
</g>
</g>
</svg>
