<?xml version="1.0" encoding="UTF-8" standalone="no"?>
<!DOCTYPE svg PUBLIC "-//W3C//DTD SVG 1.1//EN"
 "http://www.w3.org/Graphics/SVG/1.1/DTD/svg11.dtd">
<!-- Generated by graphviz version 2.40.1 (20161225.0304)
 -->
<!-- Title: orient3dadapt Pages: 1 -->
<svg width="268pt" height="28pt"
 viewBox="0.00 0.00 268.00 28.00" xmlns="http://www.w3.org/2000/svg" xmlns:xlink="http://www.w3.org/1999/xlink">
<g id="graph0" class="graph" transform="scale(1 1) rotate(0) translate(4 24)">
<title>orient3dadapt</title>
<polygon fill="#ffffff" stroke="transparent" points="-4,4 -4,-24 264,-24 264,4 -4,4"/>
<!-- Node825 -->
<g id="node1" class="node">
<title>Node825</title>
<polygon fill="#bfbfbf" stroke="#000000" points="0,-.5 0,-19.5 75,-19.5 75,-.5 0,-.5"/>
<text text-anchor="middle" x="37.5" y="-7.5" font-family="Helvetica,sans-Serif" font-size="10.00" fill="#000000">orient3dadapt</text>
</g>
<!-- Node826 -->
<g id="node2" class="node">
<title>Node826</title>
<g id="a_node2"><a xlink:href="triangle_8cpp.html#af2ba7764908abd3e47edf9d18b7a06d8" target="_top" xlink:title="orient3d">
<polygon fill="#ffffff" stroke="#000000" points="111,-.5 111,-19.5 162,-19.5 162,-.5 111,-.5"/>
<text text-anchor="middle" x="136.5" y="-7.5" font-family="Helvetica,sans-Serif" font-size="10.00" fill="#000000">orient3d</text>
</a>
</g>
</g>
<!-- Node825&#45;&gt;Node826 -->
<g id="edge1" class="edge">
<title>Node825&#45;&gt;Node826</title>
<path fill="none" stroke="#191970" d="M85.4242,-10C94.2075,-10 103.0571,-10 110.8652,-10"/>
<polygon fill="#191970" stroke="#191970" points="85.2101,-6.5001 75.2101,-10 85.21,-13.5001 85.2101,-6.5001"/>
</g>
<!-- Node827 -->
<g id="node3" class="node">
<title>Node827</title>
<g id="a_node3"><a xlink:href="triangle_8cpp.html#ac8f560afde1cc801e155bf3bcd1ed35b" target="_top" xlink:title="nonregular">
<polygon fill="#ffffff" stroke="#000000" points="198,-.5 198,-19.5 260,-19.5 260,-.5 198,-.5"/>
<text text-anchor="middle" x="229" y="-7.5" font-family="Helvetica,sans-Serif" font-size="10.00" fill="#000000">nonregular</text>
</a>
</g>
</g>
<!-- Node826&#45;&gt;Node827 -->
<g id="edge2" class="edge">
<title>Node826&#45;&gt;Node827</title>
<path fill="none" stroke="#191970" d="M172.4999,-10C180.8461,-10 189.6612,-10 197.7825,-10"/>
<polygon fill="#191970" stroke="#191970" points="172.2664,-6.5001 162.2664,-10 172.2664,-13.5001 172.2664,-6.5001"/>
</g>
</g>
</svg>
