<?xml version="1.0" encoding="UTF-8" standalone="no"?>
<!DOCTYPE svg PUBLIC "-//W3C//DTD SVG 1.1//EN"
 "http://www.w3.org/Graphics/SVG/1.1/DTD/svg11.dtd">
<!-- Generated by graphviz version 2.40.1 (20161225.0304)
 -->
<!-- Title: plague Pages: 1 -->
<svg width="346pt" height="218pt"
 viewBox="0.00 0.00 346.00 218.00" xmlns="http://www.w3.org/2000/svg" xmlns:xlink="http://www.w3.org/1999/xlink">
<g id="graph0" class="graph" transform="scale(1 1) rotate(0) translate(4 214)">
<title>plague</title>
<polygon fill="#ffffff" stroke="transparent" points="-4,4 -4,-214 342,-214 342,4 -4,4"/>
<!-- Node1564 -->
<g id="node1" class="node">
<title>Node1564</title>
<polygon fill="#bfbfbf" stroke="#000000" points="0,-95.5 0,-114.5 45,-114.5 45,-95.5 0,-95.5"/>
<text text-anchor="middle" x="22.5" y="-102.5" font-family="Helvetica,sans-Serif" font-size="10.00" fill="#000000">plague</text>
</g>
<!-- Node1565 -->
<g id="node2" class="node">
<title>Node1565</title>
<g id="a_node2"><a xlink:href="triangle_8cpp.html#ac497210bc9192d88ed80659833ba5f55" target="_top" xlink:title="traversalinit">
<polygon fill="#ffffff" stroke="#000000" points="87,-190.5 87,-209.5 154,-209.5 154,-190.5 87,-190.5"/>
<text text-anchor="middle" x="120.5" y="-197.5" font-family="Helvetica,sans-Serif" font-size="10.00" fill="#000000">traversalinit</text>
</a>
</g>
</g>
<!-- Node1564&#45;&gt;Node1565 -->
<g id="edge1" class="edge">
<title>Node1564&#45;&gt;Node1565</title>
<path fill="none" stroke="#191970" d="M27.835,-114.5631C36.9653,-130.2098 56.9489,-161.4886 81,-181 82.965,-182.5941 85.0858,-184.0946 87.289,-185.4989"/>
<polygon fill="#191970" stroke="#191970" points="85.6087,-188.5695 96.0383,-190.4334 89.0474,-182.4723 85.6087,-188.5695"/>
</g>
<!-- Node1566 -->
<g id="node3" class="node">
<title>Node1566</title>
<g id="a_node3"><a xlink:href="triangle_8cpp.html#a908560980328e10c897c5c34bb733e9d" target="_top" xlink:title="traverse">
<polygon fill="#ffffff" stroke="#000000" points="94.5,-152.5 94.5,-171.5 146.5,-171.5 146.5,-152.5 94.5,-152.5"/>
<text text-anchor="middle" x="120.5" y="-159.5" font-family="Helvetica,sans-Serif" font-size="10.00" fill="#000000">traverse</text>
</a>
</g>
</g>
<!-- Node1564&#45;&gt;Node1566 -->
<g id="edge2" class="edge">
<title>Node1564&#45;&gt;Node1566</title>
<path fill="none" stroke="#191970" d="M36.1387,-114.5704C47.8023,-122.5806 65.1651,-134.0966 81,-143 83.9186,-144.641 87.0008,-146.2792 90.1041,-147.8671"/>
<polygon fill="#191970" stroke="#191970" points="88.8198,-151.1365 99.3351,-152.4322 91.9229,-144.8618 88.8198,-151.1365"/>
</g>
<!-- Node1567 -->
<g id="node4" class="node">
<title>Node1567</title>
<g id="a_node4"><a xlink:href="triangle_8cpp.html#a97033ea575688968cec7d197fed57055" target="_top" xlink:title="subsegdealloc">
<polygon fill="#ffffff" stroke="#000000" points="81,-114.5 81,-133.5 160,-133.5 160,-114.5 81,-114.5"/>
<text text-anchor="middle" x="120.5" y="-121.5" font-family="Helvetica,sans-Serif" font-size="10.00" fill="#000000">subsegdealloc</text>
</a>
</g>
</g>
<!-- Node1564&#45;&gt;Node1567 -->
<g id="edge3" class="edge">
<title>Node1564&#45;&gt;Node1567</title>
<path fill="none" stroke="#191970" d="M45.2295,-109.4067C52.953,-110.9041 61.9127,-112.6412 70.8994,-114.3836"/>
<polygon fill="#191970" stroke="#191970" points="70.5093,-117.873 80.9927,-116.3404 71.8417,-111.001 70.5093,-117.873"/>
</g>
<!-- Node1569 -->
<g id="node6" class="node">
<title>Node1569</title>
<g id="a_node6"><a xlink:href="triangle_8cpp.html#ab1760445583959132ffd9998372c9aac" target="_top" xlink:title="poolalloc">
<polygon fill="#ffffff" stroke="#000000" points="93,-38.5 93,-57.5 148,-57.5 148,-38.5 93,-38.5"/>
<text text-anchor="middle" x="120.5" y="-45.5" font-family="Helvetica,sans-Serif" font-size="10.00" fill="#000000">poolalloc</text>
</a>
</g>
</g>
<!-- Node1564&#45;&gt;Node1569 -->
<g id="edge5" class="edge">
<title>Node1564&#45;&gt;Node1569</title>
<path fill="none" stroke="#191970" d="M36.1387,-95.4296C47.8023,-87.4194 65.1651,-75.9034 81,-67 83.9186,-65.359 87.0008,-63.7208 90.1041,-62.1329"/>
<polygon fill="#191970" stroke="#191970" points="91.9229,-65.1382 99.3351,-57.5678 88.8198,-58.8635 91.9229,-65.1382"/>
</g>
<!-- Node1572 -->
<g id="node9" class="node">
<title>Node1572</title>
<g id="a_node9"><a xlink:href="triangle_8cpp.html#a3bd3bd17a942635e55f283dc27f32ddb" target="_top" xlink:title="triangledealloc">
<polygon fill="#ffffff" stroke="#000000" points="81,-76.5 81,-95.5 160,-95.5 160,-76.5 81,-76.5"/>
<text text-anchor="middle" x="120.5" y="-83.5" font-family="Helvetica,sans-Serif" font-size="10.00" fill="#000000">triangledealloc</text>
</a>
</g>
</g>
<!-- Node1564&#45;&gt;Node1572 -->
<g id="edge8" class="edge">
<title>Node1564&#45;&gt;Node1572</title>
<path fill="none" stroke="#191970" d="M45.2295,-100.5933C52.953,-99.0959 61.9127,-97.3588 70.8994,-95.6164"/>
<polygon fill="#191970" stroke="#191970" points="71.8417,-98.999 80.9927,-93.6596 70.5093,-92.127 71.8417,-98.999"/>
</g>
<!-- Node1573 -->
<g id="node10" class="node">
<title>Node1573</title>
<g id="a_node10"><a xlink:href="triangle_8cpp.html#a2657afcbf1c107955b10ccf7dbf14c90" target="_top" xlink:title="poolrestart">
<polygon fill="#ffffff" stroke="#000000" points="89.5,-.5 89.5,-19.5 151.5,-19.5 151.5,-.5 89.5,-.5"/>
<text text-anchor="middle" x="120.5" y="-7.5" font-family="Helvetica,sans-Serif" font-size="10.00" fill="#000000">poolrestart</text>
</a>
</g>
</g>
<!-- Node1564&#45;&gt;Node1573 -->
<g id="edge10" class="edge">
<title>Node1564&#45;&gt;Node1573</title>
<path fill="none" stroke="#191970" d="M27.835,-95.4369C36.9653,-79.7902 56.9489,-48.5114 81,-29 82.965,-27.4059 85.0858,-25.9054 87.289,-24.5011"/>
<polygon fill="#191970" stroke="#191970" points="89.0474,-27.5277 96.0383,-19.5666 85.6087,-21.4305 89.0474,-27.5277"/>
</g>
<!-- Node1568 -->
<g id="node5" class="node">
<title>Node1568</title>
<g id="a_node5"><a xlink:href="triangle_8cpp.html#a3f4425b06c516b9f5d647a1384c74d51" target="_top" xlink:title="pooldealloc">
<polygon fill="#ffffff" stroke="#000000" points="196,-95.5 196,-114.5 261,-114.5 261,-95.5 196,-95.5"/>
<text text-anchor="middle" x="228.5" y="-102.5" font-family="Helvetica,sans-Serif" font-size="10.00" fill="#000000">pooldealloc</text>
</a>
</g>
</g>
<!-- Node1567&#45;&gt;Node1568 -->
<g id="edge4" class="edge">
<title>Node1567&#45;&gt;Node1568</title>
<path fill="none" stroke="#191970" d="M160.102,-117.033C168.4907,-115.5572 177.3794,-113.9934 185.8748,-112.4989"/>
<polygon fill="#191970" stroke="#191970" points="186.7397,-115.9005 195.982,-110.7208 185.5268,-109.0064 186.7397,-115.9005"/>
</g>
<!-- Node1570 -->
<g id="node7" class="node">
<title>Node1570</title>
<g id="a_node7"><a xlink:href="triangle_8cpp.html#a5f51f1d3957615b2c84a91fd9f5f09bf" target="_top" xlink:title="trimalloc">
<polygon fill="#ffffff" stroke="#000000" points="202,-38.5 202,-57.5 255,-57.5 255,-38.5 202,-38.5"/>
<text text-anchor="middle" x="228.5" y="-45.5" font-family="Helvetica,sans-Serif" font-size="10.00" fill="#000000">trimalloc</text>
</a>
</g>
</g>
<!-- Node1569&#45;&gt;Node1570 -->
<g id="edge6" class="edge">
<title>Node1569&#45;&gt;Node1570</title>
<path fill="none" stroke="#191970" d="M148.0324,-48C161.3088,-48 177.421,-48 191.7301,-48"/>
<polygon fill="#191970" stroke="#191970" points="191.7644,-51.5001 201.7644,-48 191.7643,-44.5001 191.7644,-51.5001"/>
</g>
<!-- Node1571 -->
<g id="node8" class="node">
<title>Node1571</title>
<g id="a_node8"><a xlink:href="triangle_8cpp.html#a648abfc70d158485620dbcb9aa990178" target="_top" xlink:title="triexit">
<polygon fill="#ffffff" stroke="#000000" points="297,-38.5 297,-57.5 338,-57.5 338,-38.5 297,-38.5"/>
<text text-anchor="middle" x="317.5" y="-45.5" font-family="Helvetica,sans-Serif" font-size="10.00" fill="#000000">triexit</text>
</a>
</g>
</g>
<!-- Node1570&#45;&gt;Node1571 -->
<g id="edge7" class="edge">
<title>Node1570&#45;&gt;Node1571</title>
<path fill="none" stroke="#191970" d="M255.2029,-48C265.0834,-48 276.3652,-48 286.5887,-48"/>
<polygon fill="#191970" stroke="#191970" points="286.7563,-51.5001 296.7563,-48 286.7563,-44.5001 286.7563,-51.5001"/>
</g>
<!-- Node1572&#45;&gt;Node1568 -->
<g id="edge9" class="edge">
<title>Node1572&#45;&gt;Node1568</title>
<path fill="none" stroke="#191970" d="M160.102,-92.967C168.4907,-94.4428 177.3794,-96.0066 185.8748,-97.5011"/>
<polygon fill="#191970" stroke="#191970" points="185.5268,-100.9936 195.982,-99.2792 186.7397,-94.0995 185.5268,-100.9936"/>
</g>
</g>
</svg>
