<?xml version="1.0" encoding="UTF-8" standalone="no"?>
<!DOCTYPE svg PUBLIC "-//W3C//DTD SVG 1.1//EN"
 "http://www.w3.org/Graphics/SVG/1.1/DTD/svg11.dtd">
<!-- Generated by graphviz version 2.40.1 (20161225.0304)
 -->
<!-- Title: divconqrecurse Pages: 1 -->
<svg width="715pt" height="154pt"
 viewBox="0.00 0.00 715.00 154.00" xmlns="http://www.w3.org/2000/svg" xmlns:xlink="http://www.w3.org/1999/xlink">
<g id="graph0" class="graph" transform="scale(1 1) rotate(0) translate(4 150)">
<title>divconqrecurse</title>
<polygon fill="#ffffff" stroke="transparent" points="-4,4 -4,-150 711,-150 711,4 -4,4"/>
<!-- Node1262 -->
<g id="node1" class="node">
<title>Node1262</title>
<polygon fill="#bfbfbf" stroke="#000000" points="0,-64.5 0,-83.5 83,-83.5 83,-64.5 0,-64.5"/>
<text text-anchor="middle" x="41.5" y="-71.5" font-family="Helvetica,sans-Serif" font-size="10.00" fill="#000000">divconqrecurse</text>
</g>
<!-- Node1263 -->
<g id="node2" class="node">
<title>Node1263</title>
<g id="a_node2"><a xlink:href="triangle_8cpp.html#a5f18f6286348f31f222aedb01e8516d4" target="_top" xlink:title="maketriangle">
<polygon fill="#ffffff" stroke="#000000" points="229,-121.5 229,-140.5 301,-140.5 301,-121.5 229,-121.5"/>
<text text-anchor="middle" x="265" y="-128.5" font-family="Helvetica,sans-Serif" font-size="10.00" fill="#000000">maketriangle</text>
</a>
</g>
</g>
<!-- Node1262&#45;&gt;Node1263 -->
<g id="edge1" class="edge">
<title>Node1262&#45;&gt;Node1263</title>
<path fill="none" stroke="#191970" d="M72.305,-83.6019C86.4722,-87.8991 103.5324,-92.9077 119,-97 152.3092,-105.8127 190.2136,-114.6036 219.052,-121.0382"/>
<polygon fill="#191970" stroke="#191970" points="218.3313,-124.4634 228.852,-123.2122 219.8473,-117.6295 218.3313,-124.4634"/>
</g>
<!-- Node1267 -->
<g id="node6" class="node">
<title>Node1267</title>
<g id="a_node6"><a xlink:href="triangle_8cpp.html#a62ccb7c855c68af7a6918e23ccb158e6" target="_top" xlink:title="printtriangle">
<polygon fill="#ffffff" stroke="#000000" points="231.5,-83.5 231.5,-102.5 298.5,-102.5 298.5,-83.5 231.5,-83.5"/>
<text text-anchor="middle" x="265" y="-90.5" font-family="Helvetica,sans-Serif" font-size="10.00" fill="#000000">printtriangle</text>
</a>
</g>
</g>
<!-- Node1262&#45;&gt;Node1267 -->
<g id="edge5" class="edge">
<title>Node1262&#45;&gt;Node1267</title>
<path fill="none" stroke="#191970" d="M83.0148,-77.5292C122.383,-80.876 181.3083,-85.8853 221.3615,-89.2902"/>
<polygon fill="#191970" stroke="#191970" points="221.1063,-92.7811 231.3669,-90.1408 221.6993,-85.8062 221.1063,-92.7811"/>
</g>
<!-- Node1268 -->
<g id="node7" class="node">
<title>Node1268</title>
<g id="a_node7"><a xlink:href="triangle_8cpp.html#adbb7ef8fc2a92efceb7c1c152fbd22f1" target="_top" xlink:title="counterclockwise">
<polygon fill="#ffffff" stroke="#000000" points="219,-7.5 219,-26.5 311,-26.5 311,-7.5 219,-7.5"/>
<text text-anchor="middle" x="265" y="-14.5" font-family="Helvetica,sans-Serif" font-size="10.00" fill="#000000">counterclockwise</text>
</a>
</g>
</g>
<!-- Node1262&#45;&gt;Node1268 -->
<g id="edge6" class="edge">
<title>Node1262&#45;&gt;Node1268</title>
<path fill="none" stroke="#191970" d="M57.1998,-64.3916C72.4283,-55.5417 96.4735,-42.7871 119,-36 147.8633,-27.3037 181.118,-22.5875 208.5925,-20.0299"/>
<polygon fill="#191970" stroke="#191970" points="209.1544,-23.4946 218.8182,-19.1516 208.5553,-16.5203 209.1544,-23.4946"/>
</g>
<!-- Node1272 -->
<g id="node11" class="node">
<title>Node1272</title>
<g id="a_node11"><a xlink:href="triangle_8cpp.html#a8b98b5137610f709b12bc0f9de701534" target="_top" xlink:title="mergehulls">
<polygon fill="#ffffff" stroke="#000000" points="119,-45.5 119,-64.5 183,-64.5 183,-45.5 119,-45.5"/>
<text text-anchor="middle" x="151" y="-52.5" font-family="Helvetica,sans-Serif" font-size="10.00" fill="#000000">mergehulls</text>
</a>
</g>
</g>
<!-- Node1262&#45;&gt;Node1272 -->
<g id="edge10" class="edge">
<title>Node1262&#45;&gt;Node1272</title>
<path fill="none" stroke="#191970" d="M83.2096,-66.7627C91.6314,-65.3014 100.4902,-63.7643 108.9245,-62.3008"/>
<polygon fill="#191970" stroke="#191970" points="109.6895,-65.7204 118.9439,-60.5622 108.4927,-58.8235 109.6895,-65.7204"/>
</g>
<!-- Node1264 -->
<g id="node3" class="node">
<title>Node1264</title>
<g id="a_node3"><a xlink:href="triangle_8cpp.html#ab1760445583959132ffd9998372c9aac" target="_top" xlink:title="poolalloc">
<polygon fill="#ffffff" stroke="#000000" points="377.5,-124.5 377.5,-143.5 432.5,-143.5 432.5,-124.5 377.5,-124.5"/>
<text text-anchor="middle" x="405" y="-131.5" font-family="Helvetica,sans-Serif" font-size="10.00" fill="#000000">poolalloc</text>
</a>
</g>
</g>
<!-- Node1263&#45;&gt;Node1264 -->
<g id="edge2" class="edge">
<title>Node1263&#45;&gt;Node1264</title>
<path fill="none" stroke="#191970" d="M301.0535,-131.7726C321.337,-132.2072 346.638,-132.7494 367.1997,-133.19"/>
<polygon fill="#191970" stroke="#191970" points="367.3957,-136.6949 377.4684,-133.41 367.5457,-129.6965 367.3957,-136.6949"/>
</g>
<!-- Node1265 -->
<g id="node4" class="node">
<title>Node1265</title>
<g id="a_node4"><a xlink:href="triangle_8cpp.html#a5f51f1d3957615b2c84a91fd9f5f09bf" target="_top" xlink:title="trimalloc">
<polygon fill="#ffffff" stroke="#000000" points="538,-126.5 538,-145.5 591,-145.5 591,-126.5 538,-126.5"/>
<text text-anchor="middle" x="564.5" y="-133.5" font-family="Helvetica,sans-Serif" font-size="10.00" fill="#000000">trimalloc</text>
</a>
</g>
</g>
<!-- Node1264&#45;&gt;Node1265 -->
<g id="edge3" class="edge">
<title>Node1264&#45;&gt;Node1265</title>
<path fill="none" stroke="#191970" d="M432.7828,-134.3484C459.0944,-134.6783 498.7734,-135.1758 527.7038,-135.5386"/>
<polygon fill="#191970" stroke="#191970" points="527.7882,-139.0398 537.8314,-135.6656 527.8761,-132.0404 527.7882,-139.0398"/>
</g>
<!-- Node1266 -->
<g id="node5" class="node">
<title>Node1266</title>
<g id="a_node5"><a xlink:href="triangle_8cpp.html#a648abfc70d158485620dbcb9aa990178" target="_top" xlink:title="triexit">
<polygon fill="#ffffff" stroke="#000000" points="666,-126.5 666,-145.5 707,-145.5 707,-126.5 666,-126.5"/>
<text text-anchor="middle" x="686.5" y="-133.5" font-family="Helvetica,sans-Serif" font-size="10.00" fill="#000000">triexit</text>
</a>
</g>
</g>
<!-- Node1265&#45;&gt;Node1266 -->
<g id="edge4" class="edge">
<title>Node1265&#45;&gt;Node1266</title>
<path fill="none" stroke="#191970" d="M591.2734,-136C610.2994,-136 635.8935,-136 655.7563,-136"/>
<polygon fill="#191970" stroke="#191970" points="655.8389,-139.5001 665.8389,-136 655.8388,-132.5001 655.8389,-139.5001"/>
</g>
<!-- Node1269 -->
<g id="node8" class="node">
<title>Node1269</title>
<g id="a_node8"><a xlink:href="triangle_8cpp.html#abd5587da82afca7f6403c3ec3d17139a" target="_top" xlink:title="counterclockwiseadapt">
<polygon fill="#ffffff" stroke="#000000" points="347,-7.5 347,-26.5 463,-26.5 463,-7.5 347,-7.5"/>
<text text-anchor="middle" x="405" y="-14.5" font-family="Helvetica,sans-Serif" font-size="10.00" fill="#000000">counterclockwiseadapt</text>
</a>
</g>
</g>
<!-- Node1268&#45;&gt;Node1269 -->
<g id="edge7" class="edge">
<title>Node1268&#45;&gt;Node1269</title>
<path fill="none" stroke="#191970" d="M311.2292,-17C319.3581,-17 327.9723,-17 336.5553,-17"/>
<polygon fill="#191970" stroke="#191970" points="336.5858,-20.5001 346.5858,-17 336.5857,-13.5001 336.5858,-20.5001"/>
</g>
<!-- Node1270 -->
<g id="node9" class="node">
<title>Node1270</title>
<g id="a_node9"><a xlink:href="triangle_8cpp.html#a3487d9f90ea72da543d5d38b3dab1fbc" target="_top" xlink:title="estimate">
<polygon fill="#ffffff" stroke="#000000" points="537.5,-.5 537.5,-19.5 591.5,-19.5 591.5,-.5 537.5,-.5"/>
<text text-anchor="middle" x="564.5" y="-7.5" font-family="Helvetica,sans-Serif" font-size="10.00" fill="#000000">estimate</text>
</a>
</g>
</g>
<!-- Node1269&#45;&gt;Node1270 -->
<g id="edge8" class="edge">
<title>Node1269&#45;&gt;Node1270</title>
<path fill="none" stroke="#191970" d="M463.0344,-14.453C484.3783,-13.5163 507.9686,-12.481 527.0275,-11.6446"/>
<polygon fill="#191970" stroke="#191970" points="527.2696,-15.1374 537.1065,-11.2022 526.9626,-8.1441 527.2696,-15.1374"/>
</g>
<!-- Node1271 -->
<g id="node10" class="node">
<title>Node1271</title>
<g id="a_node10"><a xlink:href="triangle_8cpp.html#a37646a7e0014e10c612e946bc95aeeea" target="_top" xlink:title="fast_expansion_sum\l_zeroelim">
<polygon fill="#ffffff" stroke="#000000" points="511,-39 511,-69 618,-69 618,-39 511,-39"/>
<text text-anchor="start" x="519" y="-57" font-family="Helvetica,sans-Serif" font-size="10.00" fill="#000000">fast_expansion_sum</text>
<text text-anchor="middle" x="564.5" y="-46" font-family="Helvetica,sans-Serif" font-size="10.00" fill="#000000">_zeroelim</text>
</a>
</g>
</g>
<!-- Node1269&#45;&gt;Node1271 -->
<g id="edge9" class="edge">
<title>Node1269&#45;&gt;Node1271</title>
<path fill="none" stroke="#191970" d="M446.0752,-26.5284C462.8187,-30.4125 482.5631,-34.9927 501.0803,-39.2882"/>
<polygon fill="#191970" stroke="#191970" points="500.3885,-42.7206 510.9208,-41.571 501.9704,-35.9017 500.3885,-42.7206"/>
</g>
<!-- Node1272&#45;&gt;Node1263 -->
<g id="edge12" class="edge">
<title>Node1272&#45;&gt;Node1263</title>
<path fill="none" stroke="#191970" d="M160.4045,-64.5234C172.8991,-76.7705 196.0746,-98.1122 219,-112 222.1409,-113.9027 225.5067,-115.6973 228.9362,-117.3672"/>
<polygon fill="#191970" stroke="#191970" points="227.4981,-120.5581 238.0523,-121.4852 230.3798,-114.1788 227.4981,-120.5581"/>
</g>
<!-- Node1272&#45;&gt;Node1267 -->
<g id="edge13" class="edge">
<title>Node1272&#45;&gt;Node1267</title>
<path fill="none" stroke="#191970" d="M179.767,-64.589C193.9433,-69.3144 211.2366,-75.0789 226.5322,-80.1774"/>
<polygon fill="#191970" stroke="#191970" points="225.6485,-83.5721 236.2422,-83.4141 227.8622,-76.9313 225.6485,-83.5721"/>
</g>
<!-- Node1272&#45;&gt;Node1268 -->
<g id="edge11" class="edge">
<title>Node1272&#45;&gt;Node1268</title>
<path fill="none" stroke="#191970" d="M179.767,-45.411C193.9433,-40.6856 211.2366,-34.9211 226.5322,-29.8226"/>
<polygon fill="#191970" stroke="#191970" points="227.8622,-33.0687 236.2422,-26.5859 225.6485,-26.4279 227.8622,-33.0687"/>
</g>
<!-- Node1273 -->
<g id="node12" class="node">
<title>Node1273</title>
<g id="a_node12"><a xlink:href="triangle_8cpp.html#abbd721e83ed16c99082c2152fa55e2ee" target="_top" xlink:title="incircle">
<polygon fill="#ffffff" stroke="#000000" points="241.5,-45.5 241.5,-64.5 288.5,-64.5 288.5,-45.5 241.5,-45.5"/>
<text text-anchor="middle" x="265" y="-52.5" font-family="Helvetica,sans-Serif" font-size="10.00" fill="#000000">incircle</text>
</a>
</g>
</g>
<!-- Node1272&#45;&gt;Node1273 -->
<g id="edge14" class="edge">
<title>Node1272&#45;&gt;Node1273</title>
<path fill="none" stroke="#191970" d="M183.0587,-55C198.148,-55 216.1421,-55 231.4192,-55"/>
<polygon fill="#191970" stroke="#191970" points="231.4926,-58.5001 241.4925,-55 231.4925,-51.5001 231.4926,-58.5001"/>
</g>
<!-- Node1274 -->
<g id="node13" class="node">
<title>Node1274</title>
<g id="a_node13"><a xlink:href="triangle_8cpp.html#ade6dfff2bcdf2f287e419bc4e2a211dc" target="_top" xlink:title="incircleadapt">
<polygon fill="#ffffff" stroke="#000000" points="369.5,-45.5 369.5,-64.5 440.5,-64.5 440.5,-45.5 369.5,-45.5"/>
<text text-anchor="middle" x="405" y="-52.5" font-family="Helvetica,sans-Serif" font-size="10.00" fill="#000000">incircleadapt</text>
</a>
</g>
</g>
<!-- Node1273&#45;&gt;Node1274 -->
<g id="edge15" class="edge">
<title>Node1273&#45;&gt;Node1274</title>
<path fill="none" stroke="#191970" d="M288.7491,-55C307.9808,-55 335.643,-55 359.1591,-55"/>
<polygon fill="#191970" stroke="#191970" points="359.2858,-58.5001 369.2858,-55 359.2857,-51.5001 359.2858,-58.5001"/>
</g>
<!-- Node1274&#45;&gt;Node1270 -->
<g id="edge18" class="edge">
<title>Node1274&#45;&gt;Node1270</title>
<path fill="none" stroke="#191970" d="M438.8258,-45.4567C464.8544,-38.1132 500.7836,-27.9764 527.5609,-20.4217"/>
<polygon fill="#191970" stroke="#191970" points="528.6618,-23.7478 537.3357,-17.6639 526.761,-17.0108 528.6618,-23.7478"/>
</g>
<!-- Node1274&#45;&gt;Node1271 -->
<g id="edge17" class="edge">
<title>Node1274&#45;&gt;Node1271</title>
<path fill="none" stroke="#191970" d="M440.7949,-54.7756C458.4738,-54.6647 480.3435,-54.5276 500.7545,-54.3997"/>
<polygon fill="#191970" stroke="#191970" points="500.9699,-57.8985 510.9477,-54.3358 500.9259,-50.8986 500.9699,-57.8985"/>
</g>
<!-- Node1275 -->
<g id="node14" class="node">
<title>Node1275</title>
<g id="a_node14"><a xlink:href="triangle_8cpp.html#abdcdaa8948d9a2937154d9d67f67da8d" target="_top" xlink:title="scale_expansion_zeroelim">
<polygon fill="#ffffff" stroke="#000000" points="499,-88.5 499,-107.5 630,-107.5 630,-88.5 499,-88.5"/>
<text text-anchor="middle" x="564.5" y="-95.5" font-family="Helvetica,sans-Serif" font-size="10.00" fill="#000000">scale_expansion_zeroelim</text>
</a>
</g>
</g>
<!-- Node1274&#45;&gt;Node1275 -->
<g id="edge16" class="edge">
<title>Node1274&#45;&gt;Node1275</title>
<path fill="none" stroke="#191970" d="M440.3982,-64.5431C463.6294,-70.806 494.2228,-79.0538 519.2208,-85.7931"/>
<polygon fill="#191970" stroke="#191970" points="518.6344,-89.2599 529.2007,-88.4836 520.4565,-82.5012 518.6344,-89.2599"/>
</g>
</g>
</svg>
