<?xml version="1.0" encoding="UTF-8" standalone="no"?>
<!DOCTYPE svg PUBLIC "-//W3C//DTD SVG 1.1//EN"
 "http://www.w3.org/Graphics/SVG/1.1/DTD/svg11.dtd">
<!-- Generated by graphviz version 2.40.1 (20161225.0304)
 -->
<!-- Title: splittriangle Pages: 1 -->
<svg width="700pt" height="28pt"
 viewBox="0.00 0.00 700.00 28.00" xmlns="http://www.w3.org/2000/svg" xmlns:xlink="http://www.w3.org/1999/xlink">
<g id="graph0" class="graph" transform="scale(1 1) rotate(0) translate(4 24)">
<title>splittriangle</title>
<polygon fill="#ffffff" stroke="transparent" points="-4,4 -4,-24 696,-24 696,4 -4,4"/>
<!-- Node1816 -->
<g id="node1" class="node">
<title>Node1816</title>
<polygon fill="#bfbfbf" stroke="#000000" points="0,-.5 0,-19.5 66,-19.5 66,-.5 0,-.5"/>
<text text-anchor="middle" x="33" y="-7.5" font-family="Helvetica,sans-Serif" font-size="10.00" fill="#000000">splittriangle</text>
</g>
<!-- Node1817 -->
<g id="node2" class="node">
<title>Node1817</title>
<g id="a_node2"><a xlink:href="triangle_8cpp.html#a5a654ff6b304f2166c64ffe9183b2995" target="_top" xlink:title="enforcequality">
<polygon fill="#ffffff" stroke="#000000" points="102,-.5 102,-19.5 179,-19.5 179,-.5 102,-.5"/>
<text text-anchor="middle" x="140.5" y="-7.5" font-family="Helvetica,sans-Serif" font-size="10.00" fill="#000000">enforcequality</text>
</a>
</g>
</g>
<!-- Node1816&#45;&gt;Node1817 -->
<g id="edge1" class="edge">
<title>Node1816&#45;&gt;Node1817</title>
<path fill="none" stroke="#191970" d="M76.1635,-10C84.5833,-10 93.3639,-10 101.6342,-10"/>
<polygon fill="#191970" stroke="#191970" points="76.1307,-6.5001 66.1307,-10 76.1307,-13.5001 76.1307,-6.5001"/>
</g>
<!-- Node1818 -->
<g id="node3" class="node">
<title>Node1818</title>
<g id="a_node3"><a xlink:href="triangle_8hpp.html#a4ca59bf5fe569672944651426b662ba6" target="_top" xlink:title="Call Triangle. ">
<polygon fill="#ffffff" stroke="#000000" points="215,-.5 215,-19.5 277,-19.5 277,-.5 215,-.5"/>
<text text-anchor="middle" x="246" y="-7.5" font-family="Helvetica,sans-Serif" font-size="10.00" fill="#000000">triangulate</text>
</a>
</g>
</g>
<!-- Node1817&#45;&gt;Node1818 -->
<g id="edge2" class="edge">
<title>Node1817&#45;&gt;Node1818</title>
<path fill="none" stroke="#191970" d="M189.2905,-10C198.0043,-10 206.863,-10 214.9082,-10"/>
<polygon fill="#191970" stroke="#191970" points="189.1853,-6.5001 179.1852,-10 189.1852,-13.5001 189.1853,-6.5001"/>
</g>
<!-- Node1819 -->
<g id="node4" class="node">
<title>Node1819</title>
<g id="a_node4"><a xlink:href="classRiver_1_1Triangle.html#a0dae20b40d446e6009a88543e2c14daf" target="_top" xlink:title="Generate mesh. ">
<polygon fill="#ffffff" stroke="#000000" points="313,-.5 313,-19.5 437,-19.5 437,-.5 313,-.5"/>
<text text-anchor="middle" x="375" y="-7.5" font-family="Helvetica,sans-Serif" font-size="10.00" fill="#000000">River::Triangle::generate</text>
</a>
</g>
</g>
<!-- Node1818&#45;&gt;Node1819 -->
<g id="edge3" class="edge">
<title>Node1818&#45;&gt;Node1819</title>
<path fill="none" stroke="#191970" d="M287.2629,-10C295.4682,-10 304.2527,-10 312.9767,-10"/>
<polygon fill="#191970" stroke="#191970" points="287.2273,-6.5001 277.2273,-10 287.2273,-13.5001 287.2273,-6.5001"/>
</g>
<!-- Node1820 -->
<g id="node5" class="node">
<title>Node1820</title>
<g id="a_node5"><a xlink:href="namespaceRiver.html#af1a3f7c61809dd8032e4ff5920da83cc" target="_top" xlink:title="One step of forward river evolution. ">
<polygon fill="#ffffff" stroke="#000000" points="473,-.5 473,-19.5 618,-19.5 618,-.5 473,-.5"/>
<text text-anchor="middle" x="545.5" y="-7.5" font-family="Helvetica,sans-Serif" font-size="10.00" fill="#000000">River::ForwardRiverEvolution</text>
</a>
</g>
</g>
<!-- Node1819&#45;&gt;Node1820 -->
<g id="edge4" class="edge">
<title>Node1819&#45;&gt;Node1820</title>
<path fill="none" stroke="#191970" d="M447.2431,-10C455.7006,-10 464.333,-10 472.7967,-10"/>
<polygon fill="#191970" stroke="#191970" points="447.0368,-6.5001 437.0367,-10 447.0367,-13.5001 447.0368,-6.5001"/>
</g>
<!-- Node1821 -->
<g id="node6" class="node">
<title>Node1821</title>
<g id="a_node6"><a xlink:href="main_8cpp.html#a0ddf1224851353fc92bfbff6f499fa97" target="_top" xlink:title="Entry point of RiverSim program. ">
<polygon fill="#ffffff" stroke="#000000" points="654,-.5 654,-19.5 692,-19.5 692,-.5 654,-.5"/>
<text text-anchor="middle" x="673" y="-7.5" font-family="Helvetica,sans-Serif" font-size="10.00" fill="#000000">main</text>
</a>
</g>
</g>
<!-- Node1820&#45;&gt;Node1821 -->
<g id="edge5" class="edge">
<title>Node1820&#45;&gt;Node1821</title>
<path fill="none" stroke="#191970" d="M628.2526,-10C637.7338,-10 646.5978,-10 653.8947,-10"/>
<polygon fill="#191970" stroke="#191970" points="628.1886,-6.5001 618.1886,-10 628.1885,-13.5001 628.1886,-6.5001"/>
</g>
</g>
</svg>
