<?xml version="1.0" encoding="UTF-8" standalone="no"?>
<!DOCTYPE svg PUBLIC "-//W3C//DTD SVG 1.1//EN"
 "http://www.w3.org/Graphics/SVG/1.1/DTD/svg11.dtd">
<!-- Generated by graphviz version 2.40.1 (20161225.0304)
 -->
<!-- Title: makesubseg Pages: 1 -->
<svg width="337pt" height="28pt"
 viewBox="0.00 0.00 337.00 28.00" xmlns="http://www.w3.org/2000/svg" xmlns:xlink="http://www.w3.org/1999/xlink">
<g id="graph0" class="graph" transform="scale(1 1) rotate(0) translate(4 24)">
<title>makesubseg</title>
<polygon fill="#ffffff" stroke="transparent" points="-4,4 -4,-24 333,-24 333,4 -4,4"/>
<!-- Node534 -->
<g id="node1" class="node">
<title>Node534</title>
<polygon fill="#bfbfbf" stroke="#000000" points="0,-.5 0,-19.5 72,-19.5 72,-.5 0,-.5"/>
<text text-anchor="middle" x="36" y="-7.5" font-family="Helvetica,sans-Serif" font-size="10.00" fill="#000000">makesubseg</text>
</g>
<!-- Node535 -->
<g id="node2" class="node">
<title>Node535</title>
<g id="a_node2"><a xlink:href="triangle_8cpp.html#ab1760445583959132ffd9998372c9aac" target="_top" xlink:title="poolalloc">
<polygon fill="#ffffff" stroke="#000000" points="108,-.5 108,-19.5 163,-19.5 163,-.5 108,-.5"/>
<text text-anchor="middle" x="135.5" y="-7.5" font-family="Helvetica,sans-Serif" font-size="10.00" fill="#000000">poolalloc</text>
</a>
</g>
</g>
<!-- Node534&#45;&gt;Node535 -->
<g id="edge1" class="edge">
<title>Node534&#45;&gt;Node535</title>
<path fill="none" stroke="#191970" d="M72.2033,-10C80.486,-10 89.311,-10 97.6605,-10"/>
<polygon fill="#191970" stroke="#191970" points="97.9056,-13.5001 107.9055,-10 97.9055,-6.5001 97.9056,-13.5001"/>
</g>
<!-- Node536 -->
<g id="node3" class="node">
<title>Node536</title>
<g id="a_node3"><a xlink:href="triangle_8cpp.html#a5f51f1d3957615b2c84a91fd9f5f09bf" target="_top" xlink:title="trimalloc">
<polygon fill="#ffffff" stroke="#000000" points="199,-.5 199,-19.5 252,-19.5 252,-.5 199,-.5"/>
<text text-anchor="middle" x="225.5" y="-7.5" font-family="Helvetica,sans-Serif" font-size="10.00" fill="#000000">trimalloc</text>
</a>
</g>
</g>
<!-- Node535&#45;&gt;Node536 -->
<g id="edge2" class="edge">
<title>Node535&#45;&gt;Node536</title>
<path fill="none" stroke="#191970" d="M163.4832,-10C171.4806,-10 180.3188,-10 188.7561,-10"/>
<polygon fill="#191970" stroke="#191970" points="188.7655,-13.5001 198.7654,-10 188.7654,-6.5001 188.7655,-13.5001"/>
</g>
<!-- Node537 -->
<g id="node4" class="node">
<title>Node537</title>
<g id="a_node4"><a xlink:href="triangle_8cpp.html#a648abfc70d158485620dbcb9aa990178" target="_top" xlink:title="triexit">
<polygon fill="#ffffff" stroke="#000000" points="288,-.5 288,-19.5 329,-19.5 329,-.5 288,-.5"/>
<text text-anchor="middle" x="308.5" y="-7.5" font-family="Helvetica,sans-Serif" font-size="10.00" fill="#000000">triexit</text>
</a>
</g>
</g>
<!-- Node536&#45;&gt;Node537 -->
<g id="edge3" class="edge">
<title>Node536&#45;&gt;Node537</title>
<path fill="none" stroke="#191970" d="M252.2186,-10C260.3489,-10 269.3499,-10 277.7251,-10"/>
<polygon fill="#191970" stroke="#191970" points="277.8865,-13.5001 287.8865,-10 277.8865,-6.5001 277.8865,-13.5001"/>
</g>
</g>
</svg>
