<?xml version="1.0" encoding="UTF-8" standalone="no"?>
<!DOCTYPE svg PUBLIC "-//W3C//DTD SVG 1.1//EN"
 "http://www.w3.org/Graphics/SVG/1.1/DTD/svg11.dtd">
<!-- Generated by graphviz version 2.40.1 (20161225.0304)
 -->
<!-- Title: delaunay Pages: 1 -->
<svg width="930pt" height="403pt"
 viewBox="0.00 0.00 930.00 403.00" xmlns="http://www.w3.org/2000/svg" xmlns:xlink="http://www.w3.org/1999/xlink">
<g id="graph0" class="graph" transform="scale(1 1) rotate(0) translate(4 399)">
<title>delaunay</title>
<polygon fill="#ffffff" stroke="transparent" points="-4,4 -4,-399 926,-399 926,4 -4,4"/>
<!-- Node1259 -->
<g id="node1" class="node">
<title>Node1259</title>
<polygon fill="#bfbfbf" stroke="#000000" points="0,-304.5 0,-323.5 56,-323.5 56,-304.5 0,-304.5"/>
<text text-anchor="middle" x="28" y="-311.5" font-family="Helvetica,sans-Serif" font-size="10.00" fill="#000000">delaunay</text>
</g>
<!-- Node1260 -->
<g id="node2" class="node">
<title>Node1260</title>
<g id="a_node2"><a xlink:href="triangle_8cpp.html#aabcda1f9b42d64b70f96964649ce167e" target="_top" xlink:title="initializetrisubpools">
<polygon fill="#ffffff" stroke="#000000" points="451,-375.5 451,-394.5 550,-394.5 550,-375.5 451,-375.5"/>
<text text-anchor="middle" x="500.5" y="-382.5" font-family="Helvetica,sans-Serif" font-size="10.00" fill="#000000">initializetrisubpools</text>
</a>
</g>
</g>
<!-- Node1259&#45;&gt;Node1260 -->
<g id="edge1" class="edge">
<title>Node1259&#45;&gt;Node1260</title>
<path fill="none" stroke="#191970" d="M52.6032,-323.5327C88.2314,-336.8478 156.5487,-360.5529 217,-371 293.5002,-384.2206 383.2092,-386.4714 440.8984,-386.2471"/>
<polygon fill="#191970" stroke="#191970" points="440.9565,-389.7469 450.9335,-386.1818 440.9109,-382.747 440.9565,-389.7469"/>
</g>
<!-- Node1266 -->
<g id="node8" class="node">
<title>Node1266</title>
<g id="a_node8"><a xlink:href="triangle_8cpp.html#a4a13891380126c239a32b46c88f06223" target="_top" xlink:title="divconqdelaunay">
<polygon fill="#ffffff" stroke="#000000" points="92,-228.5 92,-247.5 181,-247.5 181,-228.5 92,-228.5"/>
<text text-anchor="middle" x="136.5" y="-235.5" font-family="Helvetica,sans-Serif" font-size="10.00" fill="#000000">divconqdelaunay</text>
</a>
</g>
</g>
<!-- Node1259&#45;&gt;Node1266 -->
<g id="edge8" class="edge">
<title>Node1259&#45;&gt;Node1266</title>
<path fill="none" stroke="#191970" d="M41.7416,-304.3745C60.0848,-291.5259 92.7832,-268.6219 114.558,-253.3695"/>
<polygon fill="#191970" stroke="#191970" points="116.6874,-256.1512 122.87,-247.5473 112.6714,-250.4178 116.6874,-256.1512"/>
</g>
<!-- Node1261 -->
<g id="node3" class="node">
<title>Node1261</title>
<g id="a_node3"><a xlink:href="triangle_8cpp.html#a50d34a398ff84c3d02a81d8d73dd0ee9" target="_top" xlink:title="poolinit">
<polygon fill="#ffffff" stroke="#000000" points="620.5,-356.5 620.5,-375.5 667.5,-375.5 667.5,-356.5 620.5,-356.5"/>
<text text-anchor="middle" x="644" y="-363.5" font-family="Helvetica,sans-Serif" font-size="10.00" fill="#000000">poolinit</text>
</a>
</g>
</g>
<!-- Node1260&#45;&gt;Node1261 -->
<g id="edge2" class="edge">
<title>Node1260&#45;&gt;Node1261</title>
<path fill="none" stroke="#191970" d="M550.2866,-378.408C570.1813,-375.7739 592.5692,-372.8097 610.4728,-370.4391"/>
<polygon fill="#191970" stroke="#191970" points="610.9892,-373.9014 620.4433,-369.119 610.0703,-366.962 610.9892,-373.9014"/>
</g>
<!-- Node1265 -->
<g id="node7" class="node">
<title>Node1265</title>
<g id="a_node7"><a xlink:href="triangle_8cpp.html#ad5a7f66d52301dfbfe436b749004fc09" target="_top" xlink:title="dummyinit">
<polygon fill="#ffffff" stroke="#000000" points="613,-313.5 613,-332.5 675,-332.5 675,-313.5 613,-313.5"/>
<text text-anchor="middle" x="644" y="-320.5" font-family="Helvetica,sans-Serif" font-size="10.00" fill="#000000">dummyinit</text>
</a>
</g>
</g>
<!-- Node1260&#45;&gt;Node1265 -->
<g id="edge6" class="edge">
<title>Node1260&#45;&gt;Node1265</title>
<path fill="none" stroke="#191970" d="M527.2006,-375.4189C534.6547,-372.5643 542.7075,-369.3098 550,-366 566.4743,-358.523 569.6237,-354.6893 586,-347 593.7141,-343.3779 602.1277,-339.7292 610.0935,-336.408"/>
<polygon fill="#191970" stroke="#191970" points="611.5884,-339.5779 619.5109,-332.5432 608.9308,-333.102 611.5884,-339.5779"/>
</g>
<!-- Node1262 -->
<g id="node4" class="node">
<title>Node1262</title>
<g id="a_node4"><a xlink:href="triangle_8cpp.html#a5f51f1d3957615b2c84a91fd9f5f09bf" target="_top" xlink:title="trimalloc">
<polygon fill="#ffffff" stroke="#000000" points="765,-289.5 765,-308.5 818,-308.5 818,-289.5 765,-289.5"/>
<text text-anchor="middle" x="791.5" y="-296.5" font-family="Helvetica,sans-Serif" font-size="10.00" fill="#000000">trimalloc</text>
</a>
</g>
</g>
<!-- Node1261&#45;&gt;Node1262 -->
<g id="edge3" class="edge">
<title>Node1261&#45;&gt;Node1262</title>
<path fill="none" stroke="#191970" d="M667.5496,-356.6017C678.1384,-352.2872 690.7567,-347.0225 702,-342 722.7171,-332.7455 745.7907,-321.6401 763.3207,-313.0336"/>
<polygon fill="#191970" stroke="#191970" points="765.0184,-316.0989 772.4391,-308.537 761.9224,-309.8208 765.0184,-316.0989"/>
</g>
<!-- Node1264 -->
<g id="node6" class="node">
<title>Node1264</title>
<g id="a_node6"><a xlink:href="triangle_8cpp.html#a2657afcbf1c107955b10ccf7dbf14c90" target="_top" xlink:title="poolrestart">
<polygon fill="#ffffff" stroke="#000000" points="760.5,-356.5 760.5,-375.5 822.5,-375.5 822.5,-356.5 760.5,-356.5"/>
<text text-anchor="middle" x="791.5" y="-363.5" font-family="Helvetica,sans-Serif" font-size="10.00" fill="#000000">poolrestart</text>
</a>
</g>
</g>
<!-- Node1261&#45;&gt;Node1264 -->
<g id="edge5" class="edge">
<title>Node1261&#45;&gt;Node1264</title>
<path fill="none" stroke="#191970" d="M667.6984,-366C689.9131,-366 723.5993,-366 750.2272,-366"/>
<polygon fill="#191970" stroke="#191970" points="750.4148,-369.5001 760.4148,-366 750.4147,-362.5001 750.4148,-369.5001"/>
</g>
<!-- Node1263 -->
<g id="node5" class="node">
<title>Node1263</title>
<g id="a_node5"><a xlink:href="triangle_8cpp.html#a648abfc70d158485620dbcb9aa990178" target="_top" xlink:title="triexit">
<polygon fill="#ffffff" stroke="#000000" points="881,-289.5 881,-308.5 922,-308.5 922,-289.5 881,-289.5"/>
<text text-anchor="middle" x="901.5" y="-296.5" font-family="Helvetica,sans-Serif" font-size="10.00" fill="#000000">triexit</text>
</a>
</g>
</g>
<!-- Node1262&#45;&gt;Node1263 -->
<g id="edge4" class="edge">
<title>Node1262&#45;&gt;Node1263</title>
<path fill="none" stroke="#191970" d="M818.1279,-299C833.9841,-299 854.1726,-299 870.7117,-299"/>
<polygon fill="#191970" stroke="#191970" points="870.9711,-302.5001 880.9711,-299 870.9711,-295.5001 870.9711,-302.5001"/>
</g>
<!-- Node1265&#45;&gt;Node1262 -->
<g id="edge7" class="edge">
<title>Node1265&#45;&gt;Node1262</title>
<path fill="none" stroke="#191970" d="M675.281,-317.9102C698.5152,-314.1297 730.2802,-308.9612 754.7297,-304.983"/>
<polygon fill="#191970" stroke="#191970" points="755.406,-308.419 764.714,-303.3584 754.2817,-301.5099 755.406,-308.419"/>
</g>
<!-- Node1266&#45;&gt;Node1262 -->
<g id="edge9" class="edge">
<title>Node1266&#45;&gt;Node1262</title>
<path fill="none" stroke="#191970" d="M173.4685,-247.589C220.188,-258.8462 303.2355,-276 375.5,-276 375.5,-276 375.5,-276 500.5,-276 592.1492,-276 699.5313,-287.4778 754.6819,-294.217"/>
<polygon fill="#191970" stroke="#191970" points="754.3212,-297.699 764.676,-295.4567 755.1829,-290.7523 754.3212,-297.699"/>
</g>
<!-- Node1267 -->
<g id="node9" class="node">
<title>Node1267</title>
<g id="a_node9"><a xlink:href="triangle_8cpp.html#ac497210bc9192d88ed80659833ba5f55" target="_top" xlink:title="traversalinit">
<polygon fill="#ffffff" stroke="#000000" points="225,-152.5 225,-171.5 292,-171.5 292,-152.5 225,-152.5"/>
<text text-anchor="middle" x="258.5" y="-159.5" font-family="Helvetica,sans-Serif" font-size="10.00" fill="#000000">traversalinit</text>
</a>
</g>
</g>
<!-- Node1266&#45;&gt;Node1267 -->
<g id="edge10" class="edge">
<title>Node1266&#45;&gt;Node1267</title>
<path fill="none" stroke="#191970" d="M150.9062,-228.3893C166.9089,-217.7853 193.5806,-200.324 217,-186 221.9701,-182.9601 227.3251,-179.7883 232.4828,-176.7839"/>
<polygon fill="#191970" stroke="#191970" points="234.5163,-179.6514 241.428,-171.6215 231.0174,-173.5886 234.5163,-179.6514"/>
</g>
<!-- Node1268 -->
<g id="node10" class="node">
<title>Node1268</title>
<g id="a_node10"><a xlink:href="triangle_8cpp.html#a51f4784502224728d80a16b668f17014" target="_top" xlink:title="vertextraverse">
<polygon fill="#ffffff" stroke="#000000" points="219,-38.5 219,-57.5 298,-57.5 298,-38.5 219,-38.5"/>
<text text-anchor="middle" x="258.5" y="-45.5" font-family="Helvetica,sans-Serif" font-size="10.00" fill="#000000">vertextraverse</text>
</a>
</g>
</g>
<!-- Node1266&#45;&gt;Node1268 -->
<g id="edge11" class="edge">
<title>Node1266&#45;&gt;Node1268</title>
<path fill="none" stroke="#191970" d="M141.891,-228.4765C154.467,-206.4019 186.9615,-150.1755 217,-105 225.9847,-91.4877 236.7923,-76.6854 245.1257,-65.5522"/>
<polygon fill="#191970" stroke="#191970" points="247.9681,-67.596 251.1964,-57.505 242.3798,-63.3803 247.9681,-67.596"/>
</g>
<!-- Node1270 -->
<g id="node12" class="node">
<title>Node1270</title>
<g id="a_node12"><a xlink:href="triangle_8cpp.html#abaec7b741a89fa47c19684939642cf5d" target="_top" xlink:title="vertexsort">
<polygon fill="#ffffff" stroke="#000000" points="345.5,-190.5 345.5,-209.5 405.5,-209.5 405.5,-190.5 345.5,-190.5"/>
<text text-anchor="middle" x="375.5" y="-197.5" font-family="Helvetica,sans-Serif" font-size="10.00" fill="#000000">vertexsort</text>
</a>
</g>
</g>
<!-- Node1266&#45;&gt;Node1270 -->
<g id="edge13" class="edge">
<title>Node1266&#45;&gt;Node1270</title>
<path fill="none" stroke="#191970" d="M173.1882,-228.4223C186.8692,-225.0939 202.5782,-221.558 217,-219 256.8401,-211.9336 302.7891,-206.7476 334.9218,-203.5954"/>
<polygon fill="#191970" stroke="#191970" points="335.64,-207.0427 345.2605,-202.6046 334.9722,-200.0746 335.64,-207.0427"/>
</g>
<!-- Node1272 -->
<g id="node14" class="node">
<title>Node1272</title>
<g id="a_node14"><a xlink:href="triangle_8cpp.html#a41d2f44eb196388d68578697e33457d9" target="_top" xlink:title="alternateaxes">
<polygon fill="#ffffff" stroke="#000000" points="221,-228.5 221,-247.5 296,-247.5 296,-228.5 221,-228.5"/>
<text text-anchor="middle" x="258.5" y="-235.5" font-family="Helvetica,sans-Serif" font-size="10.00" fill="#000000">alternateaxes</text>
</a>
</g>
</g>
<!-- Node1266&#45;&gt;Node1272 -->
<g id="edge15" class="edge">
<title>Node1266&#45;&gt;Node1272</title>
<path fill="none" stroke="#191970" d="M181.2355,-238C190.8243,-238 200.9915,-238 210.6913,-238"/>
<polygon fill="#191970" stroke="#191970" points="210.9837,-241.5001 220.9837,-238 210.9837,-234.5001 210.9837,-241.5001"/>
</g>
<!-- Node1274 -->
<g id="node16" class="node">
<title>Node1274</title>
<g id="a_node16"><a xlink:href="triangle_8cpp.html#ae64549179195e9fea8a3589a003e44ac" target="_top" xlink:title="divconqrecurse">
<polygon fill="#ffffff" stroke="#000000" points="217,-114.5 217,-133.5 300,-133.5 300,-114.5 217,-114.5"/>
<text text-anchor="middle" x="258.5" y="-121.5" font-family="Helvetica,sans-Serif" font-size="10.00" fill="#000000">divconqrecurse</text>
</a>
</g>
</g>
<!-- Node1266&#45;&gt;Node1274 -->
<g id="edge18" class="edge">
<title>Node1266&#45;&gt;Node1274</title>
<path fill="none" stroke="#191970" d="M142.4968,-228.4403C154.5813,-209.8277 183.5772,-168.3338 217,-143 219.1747,-141.3516 221.5153,-139.8029 223.9379,-138.3568"/>
<polygon fill="#191970" stroke="#191970" points="225.7372,-141.364 232.9193,-133.5751 222.4475,-135.1852 225.7372,-141.364"/>
</g>
<!-- Node1286 -->
<g id="node27" class="node">
<title>Node1286</title>
<g id="a_node27"><a xlink:href="triangle_8cpp.html#a3b29a8b4c5ac87eff6c5b27e7e0c43c0" target="_top" xlink:title="trifree">
<polygon fill="#ffffff" stroke="#000000" points="238,-304.5 238,-323.5 279,-323.5 279,-304.5 238,-304.5"/>
<text text-anchor="middle" x="258.5" y="-311.5" font-family="Helvetica,sans-Serif" font-size="10.00" fill="#000000">trifree</text>
</a>
</g>
</g>
<!-- Node1266&#45;&gt;Node1286 -->
<g id="edge35" class="edge">
<title>Node1266&#45;&gt;Node1286</title>
<path fill="none" stroke="#191970" d="M150.9062,-247.6107C166.9089,-258.2147 193.5806,-275.676 217,-290 221.9701,-293.0399 227.3251,-296.2117 232.4828,-299.2161"/>
<polygon fill="#191970" stroke="#191970" points="231.0174,-302.4114 241.428,-304.3785 234.5163,-296.3486 231.0174,-302.4114"/>
</g>
<!-- Node1287 -->
<g id="node28" class="node">
<title>Node1287</title>
<g id="a_node28"><a xlink:href="triangle_8cpp.html#a98b88028b30bc1dd2a3878ed06ae144a" target="_top" xlink:title="removeghosts">
<polygon fill="#ffffff" stroke="#000000" points="219.5,-342.5 219.5,-361.5 297.5,-361.5 297.5,-342.5 219.5,-342.5"/>
<text text-anchor="middle" x="258.5" y="-349.5" font-family="Helvetica,sans-Serif" font-size="10.00" fill="#000000">removeghosts</text>
</a>
</g>
</g>
<!-- Node1266&#45;&gt;Node1287 -->
<g id="edge36" class="edge">
<title>Node1266&#45;&gt;Node1287</title>
<path fill="none" stroke="#191970" d="M142.4968,-247.5597C154.5813,-266.1723 183.5772,-307.6662 217,-333 219.1747,-334.6484 221.5153,-336.1971 223.9379,-337.6432"/>
<polygon fill="#191970" stroke="#191970" points="222.4475,-340.8148 232.9193,-342.4249 225.7372,-334.636 222.4475,-340.8148"/>
</g>
<!-- Node1269 -->
<g id="node11" class="node">
<title>Node1269</title>
<g id="a_node11"><a xlink:href="triangle_8cpp.html#a908560980328e10c897c5c34bb733e9d" target="_top" xlink:title="traverse">
<polygon fill="#ffffff" stroke="#000000" points="349.5,-.5 349.5,-19.5 401.5,-19.5 401.5,-.5 349.5,-.5"/>
<text text-anchor="middle" x="375.5" y="-7.5" font-family="Helvetica,sans-Serif" font-size="10.00" fill="#000000">traverse</text>
</a>
</g>
</g>
<!-- Node1268&#45;&gt;Node1269 -->
<g id="edge12" class="edge">
<title>Node1268&#45;&gt;Node1269</title>
<path fill="none" stroke="#191970" d="M288.024,-38.411C303.6089,-33.3492 322.8644,-27.0953 339.3387,-21.7447"/>
<polygon fill="#191970" stroke="#191970" points="340.7494,-24.9666 349.1791,-18.5487 338.587,-18.3089 340.7494,-24.9666"/>
</g>
<!-- Node1271 -->
<g id="node13" class="node">
<title>Node1271</title>
<g id="a_node13"><a xlink:href="triangle_8cpp.html#abafde1fa8bfde5489dced6485939a19f" target="_top" xlink:title="randomnation">
<polygon fill="#ffffff" stroke="#000000" points="463,-209.5 463,-228.5 538,-228.5 538,-209.5 463,-209.5"/>
<text text-anchor="middle" x="500.5" y="-216.5" font-family="Helvetica,sans-Serif" font-size="10.00" fill="#000000">randomnation</text>
</a>
</g>
</g>
<!-- Node1270&#45;&gt;Node1271 -->
<g id="edge14" class="edge">
<title>Node1270&#45;&gt;Node1271</title>
<path fill="none" stroke="#191970" d="M405.759,-204.5994C419.8655,-206.7436 436.9895,-209.3464 452.7786,-211.7464"/>
<polygon fill="#191970" stroke="#191970" points="452.504,-215.2447 462.9164,-213.2873 453.556,-208.3242 452.504,-215.2447"/>
</g>
<!-- Node1273 -->
<g id="node15" class="node">
<title>Node1273</title>
<g id="a_node15"><a xlink:href="triangle_8cpp.html#a29d28c0d5ce8c9f887072078d8c6235c" target="_top" xlink:title="vertexmedian">
<polygon fill="#ffffff" stroke="#000000" points="338,-228.5 338,-247.5 413,-247.5 413,-228.5 338,-228.5"/>
<text text-anchor="middle" x="375.5" y="-235.5" font-family="Helvetica,sans-Serif" font-size="10.00" fill="#000000">vertexmedian</text>
</a>
</g>
</g>
<!-- Node1272&#45;&gt;Node1273 -->
<g id="edge16" class="edge">
<title>Node1272&#45;&gt;Node1273</title>
<path fill="none" stroke="#191970" d="M296.1636,-238C306.1839,-238 317.1425,-238 327.6294,-238"/>
<polygon fill="#191970" stroke="#191970" points="327.907,-241.5001 337.907,-238 327.907,-234.5001 327.907,-241.5001"/>
</g>
<!-- Node1273&#45;&gt;Node1271 -->
<g id="edge17" class="edge">
<title>Node1273&#45;&gt;Node1271</title>
<path fill="none" stroke="#191970" d="M413.0041,-232.2994C425.3743,-230.4191 439.3086,-228.3011 452.3597,-226.3173"/>
<polygon fill="#191970" stroke="#191970" points="453.2299,-229.7253 462.5903,-224.7623 452.1779,-222.8048 453.2299,-229.7253"/>
</g>
<!-- Node1275 -->
<g id="node17" class="node">
<title>Node1275</title>
<g id="a_node17"><a xlink:href="triangle_8cpp.html#a5f18f6286348f31f222aedb01e8516d4" target="_top" xlink:title="maketriangle">
<polygon fill="#ffffff" stroke="#000000" points="464.5,-152.5 464.5,-171.5 536.5,-171.5 536.5,-152.5 464.5,-152.5"/>
<text text-anchor="middle" x="500.5" y="-159.5" font-family="Helvetica,sans-Serif" font-size="10.00" fill="#000000">maketriangle</text>
</a>
</g>
</g>
<!-- Node1274&#45;&gt;Node1275 -->
<g id="edge19" class="edge">
<title>Node1274&#45;&gt;Node1275</title>
<path fill="none" stroke="#191970" d="M300.2852,-131.8158C311.8411,-133.9043 324.3951,-136.1058 336,-138 375.7108,-144.4817 420.9553,-151.0214 453.9297,-155.6337"/>
<polygon fill="#191970" stroke="#191970" points="453.7948,-159.1486 464.1819,-157.0609 454.7601,-152.2154 453.7948,-159.1486"/>
</g>
<!-- Node1277 -->
<g id="node19" class="node">
<title>Node1277</title>
<g id="a_node19"><a xlink:href="triangle_8cpp.html#a62ccb7c855c68af7a6918e23ccb158e6" target="_top" xlink:title="printtriangle">
<polygon fill="#ffffff" stroke="#000000" points="467,-114.5 467,-133.5 534,-133.5 534,-114.5 467,-114.5"/>
<text text-anchor="middle" x="500.5" y="-121.5" font-family="Helvetica,sans-Serif" font-size="10.00" fill="#000000">printtriangle</text>
</a>
</g>
</g>
<!-- Node1274&#45;&gt;Node1277 -->
<g id="edge22" class="edge">
<title>Node1274&#45;&gt;Node1277</title>
<path fill="none" stroke="#191970" d="M300.1013,-124C343.7645,-124 412.124,-124 456.6228,-124"/>
<polygon fill="#191970" stroke="#191970" points="456.84,-127.5001 466.84,-124 456.84,-120.5001 456.84,-127.5001"/>
</g>
<!-- Node1278 -->
<g id="node20" class="node">
<title>Node1278</title>
<g id="a_node20"><a xlink:href="triangle_8cpp.html#adbb7ef8fc2a92efceb7c1c152fbd22f1" target="_top" xlink:title="counterclockwise">
<polygon fill="#ffffff" stroke="#000000" points="454.5,-38.5 454.5,-57.5 546.5,-57.5 546.5,-38.5 454.5,-38.5"/>
<text text-anchor="middle" x="500.5" y="-45.5" font-family="Helvetica,sans-Serif" font-size="10.00" fill="#000000">counterclockwise</text>
</a>
</g>
</g>
<!-- Node1274&#45;&gt;Node1278 -->
<g id="edge23" class="edge">
<title>Node1274&#45;&gt;Node1278</title>
<path fill="none" stroke="#191970" d="M267.994,-114.3792C281.6714,-101.1855 308.3315,-77.8773 336,-67 370.2827,-53.5225 411.4575,-48.7766 444.0367,-47.398"/>
<polygon fill="#191970" stroke="#191970" points="444.4127,-50.8877 454.2927,-47.062 444.1834,-43.8914 444.4127,-50.8877"/>
</g>
<!-- Node1282 -->
<g id="node24" class="node">
<title>Node1282</title>
<g id="a_node24"><a xlink:href="triangle_8cpp.html#a8b98b5137610f709b12bc0f9de701534" target="_top" xlink:title="mergehulls">
<polygon fill="#ffffff" stroke="#000000" points="343.5,-76.5 343.5,-95.5 407.5,-95.5 407.5,-76.5 343.5,-76.5"/>
<text text-anchor="middle" x="375.5" y="-83.5" font-family="Helvetica,sans-Serif" font-size="10.00" fill="#000000">mergehulls</text>
</a>
</g>
</g>
<!-- Node1274&#45;&gt;Node1282 -->
<g id="edge27" class="edge">
<title>Node1274&#45;&gt;Node1282</title>
<path fill="none" stroke="#191970" d="M288.024,-114.411C302.7119,-109.6406 320.6601,-103.8112 336.4678,-98.6771"/>
<polygon fill="#191970" stroke="#191970" points="337.5556,-102.0039 345.9854,-95.5859 335.3933,-95.3462 337.5556,-102.0039"/>
</g>
<!-- Node1276 -->
<g id="node18" class="node">
<title>Node1276</title>
<g id="a_node18"><a xlink:href="triangle_8cpp.html#ab1760445583959132ffd9998372c9aac" target="_top" xlink:title="poolalloc">
<polygon fill="#ffffff" stroke="#000000" points="616.5,-190.5 616.5,-209.5 671.5,-209.5 671.5,-190.5 616.5,-190.5"/>
<text text-anchor="middle" x="644" y="-197.5" font-family="Helvetica,sans-Serif" font-size="10.00" fill="#000000">poolalloc</text>
</a>
</g>
</g>
<!-- Node1275&#45;&gt;Node1276 -->
<g id="edge20" class="edge">
<title>Node1275&#45;&gt;Node1276</title>
<path fill="none" stroke="#191970" d="M536.7111,-171.589C558.0709,-177.2453 585.0524,-184.3902 606.6137,-190.0998"/>
<polygon fill="#191970" stroke="#191970" points="605.8433,-193.5164 616.4061,-192.6929 607.6352,-186.7496 605.8433,-193.5164"/>
</g>
<!-- Node1276&#45;&gt;Node1262 -->
<g id="edge21" class="edge">
<title>Node1276&#45;&gt;Node1262</title>
<path fill="none" stroke="#191970" d="M658.4115,-209.6728C684.1426,-226.9431 738.1637,-263.2014 768.8814,-283.8187"/>
<polygon fill="#191970" stroke="#191970" points="766.9935,-286.7668 777.2472,-289.4337 770.8946,-280.9546 766.9935,-286.7668"/>
</g>
<!-- Node1279 -->
<g id="node21" class="node">
<title>Node1279</title>
<g id="a_node21"><a xlink:href="triangle_8cpp.html#abd5587da82afca7f6403c3ec3d17139a" target="_top" xlink:title="counterclockwiseadapt">
<polygon fill="#ffffff" stroke="#000000" points="586,-38.5 586,-57.5 702,-57.5 702,-38.5 586,-38.5"/>
<text text-anchor="middle" x="644" y="-45.5" font-family="Helvetica,sans-Serif" font-size="10.00" fill="#000000">counterclockwiseadapt</text>
</a>
</g>
</g>
<!-- Node1278&#45;&gt;Node1279 -->
<g id="edge24" class="edge">
<title>Node1278&#45;&gt;Node1279</title>
<path fill="none" stroke="#191970" d="M546.6942,-48C555.9372,-48 565.8312,-48 575.6404,-48"/>
<polygon fill="#191970" stroke="#191970" points="575.8012,-51.5001 585.8011,-48 575.8011,-44.5001 575.8012,-51.5001"/>
</g>
<!-- Node1280 -->
<g id="node22" class="node">
<title>Node1280</title>
<g id="a_node22"><a xlink:href="triangle_8cpp.html#a3487d9f90ea72da543d5d38b3dab1fbc" target="_top" xlink:title="estimate">
<polygon fill="#ffffff" stroke="#000000" points="764.5,-79.5 764.5,-98.5 818.5,-98.5 818.5,-79.5 764.5,-79.5"/>
<text text-anchor="middle" x="791.5" y="-86.5" font-family="Helvetica,sans-Serif" font-size="10.00" fill="#000000">estimate</text>
</a>
</g>
</g>
<!-- Node1279&#45;&gt;Node1280 -->
<g id="edge25" class="edge">
<title>Node1279&#45;&gt;Node1280</title>
<path fill="none" stroke="#191970" d="M678.2102,-57.5093C701.0432,-63.8561 731.0552,-72.1984 754.4524,-78.702"/>
<polygon fill="#191970" stroke="#191970" points="753.7882,-82.15 764.3603,-81.4561 755.663,-75.4057 753.7882,-82.15"/>
</g>
<!-- Node1281 -->
<g id="node23" class="node">
<title>Node1281</title>
<g id="a_node23"><a xlink:href="triangle_8cpp.html#a37646a7e0014e10c612e946bc95aeeea" target="_top" xlink:title="fast_expansion_sum\l_zeroelim">
<polygon fill="#ffffff" stroke="#000000" points="738,-30 738,-60 845,-60 845,-30 738,-30"/>
<text text-anchor="start" x="746" y="-48" font-family="Helvetica,sans-Serif" font-size="10.00" fill="#000000">fast_expansion_sum</text>
<text text-anchor="middle" x="791.5" y="-37" font-family="Helvetica,sans-Serif" font-size="10.00" fill="#000000">_zeroelim</text>
</a>
</g>
</g>
<!-- Node1279&#45;&gt;Node1281 -->
<g id="edge26" class="edge">
<title>Node1279&#45;&gt;Node1281</title>
<path fill="none" stroke="#191970" d="M702.2959,-46.8143C710.6541,-46.6443 719.2897,-46.4687 727.7465,-46.2967"/>
<polygon fill="#191970" stroke="#191970" points="728.016,-49.792 737.9428,-46.0893 727.8736,-42.7935 728.016,-49.792"/>
</g>
<!-- Node1282&#45;&gt;Node1275 -->
<g id="edge29" class="edge">
<title>Node1282&#45;&gt;Node1275</title>
<path fill="none" stroke="#191970" d="M386.0851,-95.5303C400.1129,-107.7848 426.0119,-129.1345 451,-143 454.5214,-144.954 458.285,-146.795 462.105,-148.5046"/>
<polygon fill="#191970" stroke="#191970" points="461.0347,-151.8506 471.6113,-152.4731 463.7315,-145.3908 461.0347,-151.8506"/>
</g>
<!-- Node1282&#45;&gt;Node1277 -->
<g id="edge30" class="edge">
<title>Node1282&#45;&gt;Node1277</title>
<path fill="none" stroke="#191970" d="M407.0428,-95.589C422.883,-100.4044 442.2725,-106.2988 459.2763,-111.468"/>
<polygon fill="#191970" stroke="#191970" points="458.3816,-114.8541 468.9673,-114.4141 460.4177,-108.1567 458.3816,-114.8541"/>
</g>
<!-- Node1282&#45;&gt;Node1278 -->
<g id="edge28" class="edge">
<title>Node1282&#45;&gt;Node1278</title>
<path fill="none" stroke="#191970" d="M407.0428,-76.411C422.883,-71.5956 442.2725,-65.7012 459.2763,-60.532"/>
<polygon fill="#191970" stroke="#191970" points="460.4177,-63.8433 468.9673,-57.5859 458.3816,-57.1459 460.4177,-63.8433"/>
</g>
<!-- Node1283 -->
<g id="node25" class="node">
<title>Node1283</title>
<g id="a_node25"><a xlink:href="triangle_8cpp.html#abbd721e83ed16c99082c2152fa55e2ee" target="_top" xlink:title="incircle">
<polygon fill="#ffffff" stroke="#000000" points="477,-76.5 477,-95.5 524,-95.5 524,-76.5 477,-76.5"/>
<text text-anchor="middle" x="500.5" y="-83.5" font-family="Helvetica,sans-Serif" font-size="10.00" fill="#000000">incircle</text>
</a>
</g>
</g>
<!-- Node1282&#45;&gt;Node1283 -->
<g id="edge31" class="edge">
<title>Node1282&#45;&gt;Node1283</title>
<path fill="none" stroke="#191970" d="M407.6906,-86C425.7105,-86 448.1656,-86 466.4744,-86"/>
<polygon fill="#191970" stroke="#191970" points="466.7104,-89.5001 476.7104,-86 466.7103,-82.5001 466.7104,-89.5001"/>
</g>
<!-- Node1284 -->
<g id="node26" class="node">
<title>Node1284</title>
<g id="a_node26"><a xlink:href="triangle_8cpp.html#ade6dfff2bcdf2f287e419bc4e2a211dc" target="_top" xlink:title="incircleadapt">
<polygon fill="#ffffff" stroke="#ff0000" points="608.5,-76.5 608.5,-95.5 679.5,-95.5 679.5,-76.5 608.5,-76.5"/>
<text text-anchor="middle" x="644" y="-83.5" font-family="Helvetica,sans-Serif" font-size="10.00" fill="#000000">incircleadapt</text>
</a>
</g>
</g>
<!-- Node1283&#45;&gt;Node1284 -->
<g id="edge32" class="edge">
<title>Node1283&#45;&gt;Node1284</title>
<path fill="none" stroke="#191970" d="M524.1961,-86C544.2567,-86 573.5925,-86 598.2135,-86"/>
<polygon fill="#191970" stroke="#191970" points="598.436,-89.5001 608.4359,-86 598.4359,-82.5001 598.436,-89.5001"/>
</g>
<!-- Node1284&#45;&gt;Node1280 -->
<g id="edge34" class="edge">
<title>Node1284&#45;&gt;Node1280</title>
<path fill="none" stroke="#191970" d="M679.7056,-86.7262C702.3301,-87.1864 731.5325,-87.7803 754.4172,-88.2458"/>
<polygon fill="#191970" stroke="#191970" points="754.3717,-91.7455 764.4409,-88.4496 754.5141,-84.7469 754.3717,-91.7455"/>
</g>
<!-- Node1284&#45;&gt;Node1281 -->
<g id="edge33" class="edge">
<title>Node1284&#45;&gt;Node1281</title>
<path fill="none" stroke="#191970" d="M678.2102,-76.4907C693.0076,-72.3776 710.8201,-67.4263 727.8932,-62.6805"/>
<polygon fill="#191970" stroke="#191970" points="729.1345,-65.9683 737.8319,-59.9179 727.2598,-59.224 729.1345,-65.9683"/>
</g>
<!-- Node1288 -->
<g id="node29" class="node">
<title>Node1288</title>
<g id="a_node29"><a xlink:href="triangle_8cpp.html#a3bd3bd17a942635e55f283dc27f32ddb" target="_top" xlink:title="triangledealloc">
<polygon fill="#ffffff" stroke="#000000" points="336,-340.5 336,-359.5 415,-359.5 415,-340.5 336,-340.5"/>
<text text-anchor="middle" x="375.5" y="-347.5" font-family="Helvetica,sans-Serif" font-size="10.00" fill="#000000">triangledealloc</text>
</a>
</g>
</g>
<!-- Node1287&#45;&gt;Node1288 -->
<g id="edge37" class="edge">
<title>Node1287&#45;&gt;Node1288</title>
<path fill="none" stroke="#191970" d="M297.7848,-351.3285C306.6598,-351.1768 316.1986,-351.0137 325.4494,-350.8556"/>
<polygon fill="#191970" stroke="#191970" points="325.7821,-354.3505 335.7208,-350.68 325.6624,-347.3515 325.7821,-354.3505"/>
</g>
<!-- Node1289 -->
<g id="node30" class="node">
<title>Node1289</title>
<g id="a_node30"><a xlink:href="triangle_8cpp.html#a3f4425b06c516b9f5d647a1384c74d51" target="_top" xlink:title="pooldealloc">
<polygon fill="#ffffff" stroke="#000000" points="468,-337.5 468,-356.5 533,-356.5 533,-337.5 468,-337.5"/>
<text text-anchor="middle" x="500.5" y="-344.5" font-family="Helvetica,sans-Serif" font-size="10.00" fill="#000000">pooldealloc</text>
</a>
</g>
</g>
<!-- Node1288&#45;&gt;Node1289 -->
<g id="edge38" class="edge">
<title>Node1288&#45;&gt;Node1289</title>
<path fill="none" stroke="#191970" d="M415.0508,-349.0508C428.6161,-348.7252 443.8563,-348.3594 457.6693,-348.0279"/>
<polygon fill="#191970" stroke="#191970" points="457.9894,-351.5214 467.9025,-347.7823 457.8214,-344.5234 457.9894,-351.5214"/>
</g>
</g>
</svg>
