<?xml version="1.0" encoding="UTF-8" standalone="no"?>
<!DOCTYPE svg PUBLIC "-//W3C//DTD SVG 1.1//EN"
 "http://www.w3.org/Graphics/SVG/1.1/DTD/svg11.dtd">
<!-- Generated by graphviz version 2.40.1 (20161225.0304)
 -->
<!-- Title: triangulateiofree Pages: 1 -->
<svg width="467pt" height="39pt"
 viewBox="0.00 0.00 467.00 39.00" xmlns="http://www.w3.org/2000/svg" xmlns:xlink="http://www.w3.org/1999/xlink">
<g id="graph0" class="graph" transform="scale(1 1) rotate(0) translate(4 35)">
<title>triangulateiofree</title>
<polygon fill="#ffffff" stroke="transparent" points="-4,4 -4,-35 463,-35 463,4 -4,4"/>
<!-- Node139 -->
<g id="node1" class="node">
<title>Node139</title>
<polygon fill="#bfbfbf" stroke="#000000" points="0,-6 0,-25 86,-25 86,-6 0,-6"/>
<text text-anchor="middle" x="43" y="-13" font-family="Helvetica,sans-Serif" font-size="10.00" fill="#000000">triangulateiofree</text>
</g>
<!-- Node140 -->
<g id="node2" class="node">
<title>Node140</title>
<g id="a_node2"><a xlink:href="classRiver_1_1Triangle.html#a3f7788026746dcc85d607cfe375b7d20" target="_top" xlink:title="Freeups allocated memory for interface variables(in, out, vorout). ">
<polygon fill="#ffffff" stroke="#000000" points="122,-.5 122,-30.5 225,-30.5 225,-.5 122,-.5"/>
<text text-anchor="start" x="130" y="-18.5" font-family="Helvetica,sans-Serif" font-size="10.00" fill="#000000">River::Triangle::free</text>
<text text-anchor="middle" x="173.5" y="-7.5" font-family="Helvetica,sans-Serif" font-size="10.00" fill="#000000">_allocated_memory</text>
</a>
</g>
</g>
<!-- Node139&#45;&gt;Node140 -->
<g id="edge1" class="edge">
<title>Node139&#45;&gt;Node140</title>
<path fill="none" stroke="#191970" d="M96.2252,-15.5C104.6786,-15.5 113.4109,-15.5 121.8278,-15.5"/>
<polygon fill="#191970" stroke="#191970" points="96.0923,-12.0001 86.0923,-15.5 96.0922,-19.0001 96.0923,-12.0001"/>
</g>
<!-- Node141 -->
<g id="node3" class="node">
<title>Node141</title>
<g id="a_node3"><a xlink:href="classRiver_1_1Triangle.html#a7bc9c5a5297dee136ab1489a923182dd" target="_top" xlink:title="Generate mesh. ">
<polygon fill="#ffffff" stroke="#000000" points="261,-6 261,-25 385,-25 385,-6 261,-6"/>
<text text-anchor="middle" x="323" y="-13" font-family="Helvetica,sans-Serif" font-size="10.00" fill="#000000">River::Triangle::generate</text>
</a>
</g>
</g>
<!-- Node140&#45;&gt;Node141 -->
<g id="edge2" class="edge">
<title>Node140&#45;&gt;Node141</title>
<path fill="none" stroke="#191970" d="M235.4841,-15.5C243.8919,-15.5 252.5218,-15.5 260.9311,-15.5"/>
<polygon fill="#191970" stroke="#191970" points="235.3683,-12.0001 225.3683,-15.5 235.3682,-19.0001 235.3683,-12.0001"/>
</g>
<!-- Node142 -->
<g id="node4" class="node">
<title>Node142</title>
<g id="a_node4"><a xlink:href="main_8cpp.html#a0ddf1224851353fc92bfbff6f499fa97" target="_top" xlink:title="Entry point of RiverSim program. ">
<polygon fill="#ffffff" stroke="#000000" points="421,-6 421,-25 459,-25 459,-6 421,-6"/>
<text text-anchor="middle" x="440" y="-13" font-family="Helvetica,sans-Serif" font-size="10.00" fill="#000000">main</text>
</a>
</g>
</g>
<!-- Node141&#45;&gt;Node142 -->
<g id="edge3" class="edge">
<title>Node141&#45;&gt;Node142</title>
<path fill="none" stroke="#191970" d="M395.5174,-15.5C404.8253,-15.5 413.6301,-15.5 420.912,-15.5"/>
<polygon fill="#191970" stroke="#191970" points="395.2682,-12.0001 385.2682,-15.5 395.2682,-19.0001 395.2682,-12.0001"/>
</g>
</g>
</svg>
