<?xml version="1.0" encoding="UTF-8" standalone="no"?>
<!DOCTYPE svg PUBLIC "-//W3C//DTD SVG 1.1//EN"
 "http://www.w3.org/Graphics/SVG/1.1/DTD/svg11.dtd">
<!-- Generated by graphviz version 2.40.1 (20161225.0304)
 -->
<!-- Title: removeghosts Pages: 1 -->
<svg width="635pt" height="28pt"
 viewBox="0.00 0.00 635.00 28.00" xmlns="http://www.w3.org/2000/svg" xmlns:xlink="http://www.w3.org/1999/xlink">
<g id="graph0" class="graph" transform="scale(1 1) rotate(0) translate(4 24)">
<title>removeghosts</title>
<polygon fill="#ffffff" stroke="transparent" points="-4,4 -4,-24 631,-24 631,4 -4,4"/>
<!-- Node1222 -->
<g id="node1" class="node">
<title>Node1222</title>
<polygon fill="#bfbfbf" stroke="#000000" points="0,-.5 0,-19.5 78,-19.5 78,-.5 0,-.5"/>
<text text-anchor="middle" x="39" y="-7.5" font-family="Helvetica,sans-Serif" font-size="10.00" fill="#000000">removeghosts</text>
</g>
<!-- Node1223 -->
<g id="node2" class="node">
<title>Node1223</title>
<g id="a_node2"><a xlink:href="triangle_8cpp.html#a4a13891380126c239a32b46c88f06223" target="_top" xlink:title="divconqdelaunay">
<polygon fill="#ffffff" stroke="#000000" points="114,-.5 114,-19.5 203,-19.5 203,-.5 114,-.5"/>
<text text-anchor="middle" x="158.5" y="-7.5" font-family="Helvetica,sans-Serif" font-size="10.00" fill="#000000">divconqdelaunay</text>
</a>
</g>
</g>
<!-- Node1222&#45;&gt;Node1223 -->
<g id="edge1" class="edge">
<title>Node1222&#45;&gt;Node1223</title>
<path fill="none" stroke="#191970" d="M88.2855,-10C96.7697,-10 105.5444,-10 113.8964,-10"/>
<polygon fill="#191970" stroke="#191970" points="88.1288,-6.5001 78.1288,-10 88.1287,-13.5001 88.1288,-6.5001"/>
</g>
<!-- Node1224 -->
<g id="node3" class="node">
<title>Node1224</title>
<g id="a_node3"><a xlink:href="triangle_8cpp.html#ab67faa70960c7c39ee1150ab4d55f0a5" target="_top" xlink:title="delaunay">
<polygon fill="#ffffff" stroke="#000000" points="239,-.5 239,-19.5 295,-19.5 295,-.5 239,-.5"/>
<text text-anchor="middle" x="267" y="-7.5" font-family="Helvetica,sans-Serif" font-size="10.00" fill="#000000">delaunay</text>
</a>
</g>
</g>
<!-- Node1223&#45;&gt;Node1224 -->
<g id="edge2" class="edge">
<title>Node1223&#45;&gt;Node1224</title>
<path fill="none" stroke="#191970" d="M213.5013,-10C222.2639,-10 231.0004,-10 238.796,-10"/>
<polygon fill="#191970" stroke="#191970" points="213.2576,-6.5001 203.2575,-10 213.2575,-13.5001 213.2576,-6.5001"/>
</g>
<!-- Node1225 -->
<g id="node4" class="node">
<title>Node1225</title>
<g id="a_node4"><a xlink:href="triangle_8hpp.html#a848df2990f66cdbdc9d1ac87f4646527" target="_top" xlink:title="Call Triangle. ">
<polygon fill="#ffffff" stroke="#000000" points="331,-.5 331,-19.5 393,-19.5 393,-.5 331,-.5"/>
<text text-anchor="middle" x="362" y="-7.5" font-family="Helvetica,sans-Serif" font-size="10.00" fill="#000000">triangulate</text>
</a>
</g>
</g>
<!-- Node1224&#45;&gt;Node1225 -->
<g id="edge3" class="edge">
<title>Node1224&#45;&gt;Node1225</title>
<path fill="none" stroke="#191970" d="M305.2737,-10C313.7213,-10 322.5739,-10 330.7063,-10"/>
<polygon fill="#191970" stroke="#191970" points="305.246,-6.5001 295.2459,-10 305.2459,-13.5001 305.246,-6.5001"/>
</g>
<!-- Node1226 -->
<g id="node5" class="node">
<title>Node1226</title>
<g id="a_node5"><a xlink:href="classRiver_1_1Triangle.html#a7bc9c5a5297dee136ab1489a923182dd" target="_top" xlink:title="Generate mesh. ">
<polygon fill="#ffffff" stroke="#000000" points="429,-.5 429,-19.5 553,-19.5 553,-.5 429,-.5"/>
<text text-anchor="middle" x="491" y="-7.5" font-family="Helvetica,sans-Serif" font-size="10.00" fill="#000000">River::Triangle::generate</text>
</a>
</g>
</g>
<!-- Node1225&#45;&gt;Node1226 -->
<g id="edge4" class="edge">
<title>Node1225&#45;&gt;Node1226</title>
<path fill="none" stroke="#191970" d="M403.2629,-10C411.4682,-10 420.2527,-10 428.9767,-10"/>
<polygon fill="#191970" stroke="#191970" points="403.2273,-6.5001 393.2273,-10 403.2273,-13.5001 403.2273,-6.5001"/>
</g>
<!-- Node1227 -->
<g id="node6" class="node">
<title>Node1227</title>
<g id="a_node6"><a xlink:href="main_8cpp.html#a0ddf1224851353fc92bfbff6f499fa97" target="_top" xlink:title="Entry point of RiverSim program. ">
<polygon fill="#ffffff" stroke="#000000" points="589,-.5 589,-19.5 627,-19.5 627,-.5 589,-.5"/>
<text text-anchor="middle" x="608" y="-7.5" font-family="Helvetica,sans-Serif" font-size="10.00" fill="#000000">main</text>
</a>
</g>
</g>
<!-- Node1226&#45;&gt;Node1227 -->
<g id="edge5" class="edge">
<title>Node1226&#45;&gt;Node1227</title>
<path fill="none" stroke="#191970" d="M563.5174,-10C572.8253,-10 581.6301,-10 588.912,-10"/>
<polygon fill="#191970" stroke="#191970" points="563.2682,-6.5001 553.2682,-10 563.2682,-13.5001 563.2682,-6.5001"/>
</g>
</g>
</svg>
