<?xml version="1.0" encoding="UTF-8" standalone="no"?>
<!DOCTYPE svg PUBLIC "-//W3C//DTD SVG 1.1//EN"
 "http://www.w3.org/Graphics/SVG/1.1/DTD/svg11.dtd">
<!-- Generated by graphviz version 2.40.1 (20161225.0304)
 -->
<!-- Title: undovertex Pages: 1 -->
<svg width="889pt" height="484pt"
 viewBox="0.00 0.00 889.00 484.00" xmlns="http://www.w3.org/2000/svg" xmlns:xlink="http://www.w3.org/1999/xlink">
<g id="graph0" class="graph" transform="scale(1 1) rotate(0) translate(4 480)">
<title>undovertex</title>
<polygon fill="#ffffff" stroke="transparent" points="-4,4 -4,-480 885,-480 885,4 -4,4"/>
<!-- Node1176 -->
<g id="node1" class="node">
<title>Node1176</title>
<polygon fill="#bfbfbf" stroke="#000000" points="0,-228.5 0,-247.5 65,-247.5 65,-228.5 0,-228.5"/>
<text text-anchor="middle" x="32.5" y="-235.5" font-family="Helvetica,sans-Serif" font-size="10.00" fill="#000000">undovertex</text>
</g>
<!-- Node1177 -->
<g id="node2" class="node">
<title>Node1177</title>
<g id="a_node2"><a xlink:href="triangle_8cpp.html#a3bd3bd17a942635e55f283dc27f32ddb" target="_top" xlink:title="triangledealloc">
<polygon fill="#ffffff" stroke="#000000" points="101,-361.5 101,-380.5 180,-380.5 180,-361.5 101,-361.5"/>
<text text-anchor="middle" x="140.5" y="-368.5" font-family="Helvetica,sans-Serif" font-size="10.00" fill="#000000">triangledealloc</text>
</a>
</g>
</g>
<!-- Node1176&#45;&gt;Node1177 -->
<g id="edge1" class="edge">
<title>Node1176&#45;&gt;Node1177</title>
<path fill="none" stroke="#191970" d="M40.2671,-247.565C58.2381,-269.696 102.9136,-324.713 126.0698,-353.2294"/>
<polygon fill="#191970" stroke="#191970" points="123.4911,-355.6062 132.5119,-361.1628 128.9252,-351.1935 123.4911,-355.6062"/>
</g>
<!-- Node1179 -->
<g id="node4" class="node">
<title>Node1179</title>
<g id="a_node4"><a xlink:href="triangle_8cpp.html#a2ede94743503e369e9b1c6c2a0ac9f7f" target="_top" xlink:title="insertvertex">
<polygon fill="#ffffff" stroke="#000000" points="106.5,-228.5 106.5,-247.5 174.5,-247.5 174.5,-228.5 106.5,-228.5"/>
<text text-anchor="middle" x="140.5" y="-235.5" font-family="Helvetica,sans-Serif" font-size="10.00" fill="#000000">insertvertex</text>
</a>
</g>
</g>
<!-- Node1176&#45;&gt;Node1179 -->
<g id="edge3" class="edge">
<title>Node1176&#45;&gt;Node1179</title>
<path fill="none" stroke="#191970" d="M65.1966,-238C74.9749,-238 85.8631,-238 96.253,-238"/>
<polygon fill="#191970" stroke="#191970" points="96.4174,-241.5001 106.4173,-238 96.4173,-234.5001 96.4174,-241.5001"/>
</g>
<!-- Node1204 -->
<g id="node29" class="node">
<title>Node1204</title>
<g id="a_node29"><a xlink:href="triangle_8cpp.html#ad0519b3b99595506b2c45d5b0c5aa7cf" target="_top" xlink:title="unflip">
<polygon fill="#ffffff" stroke="#000000" points="120.5,-95.5 120.5,-114.5 160.5,-114.5 160.5,-95.5 120.5,-95.5"/>
<text text-anchor="middle" x="140.5" y="-102.5" font-family="Helvetica,sans-Serif" font-size="10.00" fill="#000000">unflip</text>
</a>
</g>
</g>
<!-- Node1176&#45;&gt;Node1204 -->
<g id="edge37" class="edge">
<title>Node1176&#45;&gt;Node1204</title>
<path fill="none" stroke="#191970" d="M40.2671,-228.435C58.2381,-206.304 102.9136,-151.287 126.0698,-122.7706"/>
<polygon fill="#191970" stroke="#191970" points="128.9252,-124.8065 132.5119,-114.8372 123.4911,-120.3938 128.9252,-124.8065"/>
</g>
<!-- Node1178 -->
<g id="node3" class="node">
<title>Node1178</title>
<g id="a_node3"><a xlink:href="triangle_8cpp.html#a3f4425b06c516b9f5d647a1384c74d51" target="_top" xlink:title="pooldealloc">
<polygon fill="#ffffff" stroke="#000000" points="235.5,-456.5 235.5,-475.5 300.5,-475.5 300.5,-456.5 235.5,-456.5"/>
<text text-anchor="middle" x="268" y="-463.5" font-family="Helvetica,sans-Serif" font-size="10.00" fill="#000000">pooldealloc</text>
</a>
</g>
</g>
<!-- Node1177&#45;&gt;Node1178 -->
<g id="edge2" class="edge">
<title>Node1177&#45;&gt;Node1178</title>
<path fill="none" stroke="#191970" d="M147.6144,-380.5001C159.9253,-396.3383 186.7101,-428.2465 216,-447 219.1392,-449.0099 222.5206,-450.8469 225.9988,-452.5172"/>
<polygon fill="#191970" stroke="#191970" points="224.7643,-455.7966 235.3321,-456.5537 227.543,-449.3717 224.7643,-455.7966"/>
</g>
<!-- Node1180 -->
<g id="node5" class="node">
<title>Node1180</title>
<g id="a_node5"><a xlink:href="triangle_8cpp.html#a51073193cbdba1daea4186d1458890e8" target="_top" xlink:title="locate">
<polygon fill="#ffffff" stroke="#000000" points="246.5,-143.5 246.5,-162.5 289.5,-162.5 289.5,-143.5 246.5,-143.5"/>
<text text-anchor="middle" x="268" y="-150.5" font-family="Helvetica,sans-Serif" font-size="10.00" fill="#000000">locate</text>
</a>
</g>
</g>
<!-- Node1179&#45;&gt;Node1180 -->
<g id="edge4" class="edge">
<title>Node1179&#45;&gt;Node1180</title>
<path fill="none" stroke="#191970" d="M154.0344,-228.4508C169.0633,-217.9006 194.0959,-200.4861 216,-186 225.002,-180.0466 234.9892,-173.6577 243.7854,-168.1022"/>
<polygon fill="#191970" stroke="#191970" points="245.8265,-170.9532 252.4295,-162.6676 242.1007,-165.0271 245.8265,-170.9532"/>
</g>
<!-- Node1182 -->
<g id="node7" class="node">
<title>Node1182</title>
<g id="a_node7"><a xlink:href="triangle_8cpp.html#adbb7ef8fc2a92efceb7c1c152fbd22f1" target="_top" xlink:title="counterclockwise">
<polygon fill="#ffffff" stroke="#000000" points="469.5,-112.5 469.5,-131.5 561.5,-131.5 561.5,-112.5 469.5,-112.5"/>
<text text-anchor="middle" x="515.5" y="-119.5" font-family="Helvetica,sans-Serif" font-size="10.00" fill="#000000">counterclockwise</text>
</a>
</g>
</g>
<!-- Node1179&#45;&gt;Node1182 -->
<g id="edge26" class="edge">
<title>Node1179&#45;&gt;Node1182</title>
<path fill="none" stroke="#191970" d="M174.5782,-228.8613C187.5025,-225.5438 202.3839,-221.9014 216,-219 311.7621,-198.5944 342.7065,-218.8661 433,-181 457.3883,-170.7723 481.5558,-152.2385 497.3676,-138.6646"/>
<polygon fill="#191970" stroke="#191970" points="500.0577,-140.9587 505.2406,-131.7181 495.4265,-135.7097 500.0577,-140.9587"/>
</g>
<!-- Node1186 -->
<g id="node11" class="node">
<title>Node1186</title>
<g id="a_node11"><a xlink:href="triangle_8cpp.html#a34a6e2c35be028da265a50ab3d9d6be6" target="_top" xlink:title="preciselocate">
<polygon fill="#ffffff" stroke="#000000" points="357.5,-76.5 357.5,-95.5 431.5,-95.5 431.5,-76.5 357.5,-76.5"/>
<text text-anchor="middle" x="394.5" y="-83.5" font-family="Helvetica,sans-Serif" font-size="10.00" fill="#000000">preciselocate</text>
</a>
</g>
</g>
<!-- Node1179&#45;&gt;Node1186 -->
<g id="edge12" class="edge">
<title>Node1179&#45;&gt;Node1186</title>
<path fill="none" stroke="#191970" d="M144.7663,-228.2606C154.3455,-207.5621 179.6083,-159.0454 216,-134 255.1445,-107.06 308.7271,-95.2259 346.9478,-90.0359"/>
<polygon fill="#191970" stroke="#191970" points="347.8078,-93.4557 357.2959,-88.7412 346.9388,-86.5099 347.8078,-93.4557"/>
</g>
<!-- Node1187 -->
<g id="node12" class="node">
<title>Node1187</title>
<g id="a_node12"><a xlink:href="triangle_8cpp.html#ab1760445583959132ffd9998372c9aac" target="_top" xlink:title="poolalloc">
<polygon fill="#ffffff" stroke="#000000" points="488,-342.5 488,-361.5 543,-361.5 543,-342.5 488,-342.5"/>
<text text-anchor="middle" x="515.5" y="-349.5" font-family="Helvetica,sans-Serif" font-size="10.00" fill="#000000">poolalloc</text>
</a>
</g>
</g>
<!-- Node1179&#45;&gt;Node1187 -->
<g id="edge13" class="edge">
<title>Node1179&#45;&gt;Node1187</title>
<path fill="none" stroke="#191970" d="M144.8203,-247.7505C154.3339,-267.8869 179.2126,-313.7866 216,-333 260.4758,-356.2289 407.5702,-355.2591 477.6869,-353.3547"/>
<polygon fill="#191970" stroke="#191970" points="477.959,-356.8483 487.8523,-353.0572 477.7541,-349.8513 477.959,-356.8483"/>
</g>
<!-- Node1190 -->
<g id="node15" class="node">
<title>Node1190</title>
<g id="a_node15"><a xlink:href="triangle_8cpp.html#a5f18f6286348f31f222aedb01e8516d4" target="_top" xlink:title="maketriangle">
<polygon fill="#ffffff" stroke="#000000" points="358.5,-304.5 358.5,-323.5 430.5,-323.5 430.5,-304.5 358.5,-304.5"/>
<text text-anchor="middle" x="394.5" y="-311.5" font-family="Helvetica,sans-Serif" font-size="10.00" fill="#000000">maketriangle</text>
</a>
</g>
</g>
<!-- Node1179&#45;&gt;Node1190 -->
<g id="edge16" class="edge">
<title>Node1179&#45;&gt;Node1190</title>
<path fill="none" stroke="#191970" d="M172.4121,-247.5485C218.1302,-261.2279 302.3156,-286.4173 352.8762,-301.5456"/>
<polygon fill="#191970" stroke="#191970" points="351.935,-304.9173 362.5187,-304.4308 353.9417,-298.211 351.935,-304.9173"/>
</g>
<!-- Node1191 -->
<g id="node16" class="node">
<title>Node1191</title>
<g id="a_node16"><a xlink:href="triangle_8cpp.html#a65e7d1a5e6cdb3f22124eca6e7744140" target="_top" xlink:title="insertsubseg">
<polygon fill="#ffffff" stroke="#000000" points="232,-418.5 232,-437.5 304,-437.5 304,-418.5 232,-418.5"/>
<text text-anchor="middle" x="268" y="-425.5" font-family="Helvetica,sans-Serif" font-size="10.00" fill="#000000">insertsubseg</text>
</a>
</g>
</g>
<!-- Node1179&#45;&gt;Node1191 -->
<g id="edge18" class="edge">
<title>Node1179&#45;&gt;Node1191</title>
<path fill="none" stroke="#191970" d="M143.7301,-247.9184C154.5911,-280.7485 190.5375,-385.1522 216,-409 218.1374,-411.0019 220.5027,-412.7964 223.0112,-414.4045"/>
<polygon fill="#191970" stroke="#191970" points="221.4992,-417.5648 231.9695,-419.1846 224.7946,-411.389 221.4992,-417.5648"/>
</g>
<!-- Node1194 -->
<g id="node19" class="node">
<title>Node1194</title>
<g id="a_node19"><a xlink:href="triangle_8cpp.html#a2657afcbf1c107955b10ccf7dbf14c90" target="_top" xlink:title="poolrestart">
<polygon fill="#ffffff" stroke="#000000" points="237,-304.5 237,-323.5 299,-323.5 299,-304.5 237,-304.5"/>
<text text-anchor="middle" x="268" y="-311.5" font-family="Helvetica,sans-Serif" font-size="10.00" fill="#000000">poolrestart</text>
</a>
</g>
</g>
<!-- Node1179&#45;&gt;Node1194 -->
<g id="edge22" class="edge">
<title>Node1179&#45;&gt;Node1194</title>
<path fill="none" stroke="#191970" d="M152.8945,-247.5179C167.5117,-258.5071 192.7663,-276.766 216,-290 222.2111,-293.5379 229.0346,-296.9814 235.6366,-300.1045"/>
<polygon fill="#191970" stroke="#191970" points="234.5053,-303.4362 245.0539,-304.4248 237.4241,-297.0738 234.5053,-303.4362"/>
</g>
<!-- Node1195 -->
<g id="node20" class="node">
<title>Node1195</title>
<g id="a_node20"><a xlink:href="triangle_8cpp.html#a62ccb7c855c68af7a6918e23ccb158e6" target="_top" xlink:title="printtriangle">
<polygon fill="#ffffff" stroke="#000000" points="234.5,-.5 234.5,-19.5 301.5,-19.5 301.5,-.5 234.5,-.5"/>
<text text-anchor="middle" x="268" y="-7.5" font-family="Helvetica,sans-Serif" font-size="10.00" fill="#000000">printtriangle</text>
</a>
</g>
</g>
<!-- Node1179&#45;&gt;Node1195 -->
<g id="edge23" class="edge">
<title>Node1179&#45;&gt;Node1195</title>
<path fill="none" stroke="#191970" d="M143.8572,-228.3018C157.5648,-188.7895 208.9001,-41.676 216,-34 219.497,-30.2192 223.7077,-26.9858 228.2001,-24.2331"/>
<polygon fill="#191970" stroke="#191970" points="229.8872,-27.3002 237.0729,-19.5145 226.6003,-21.1198 229.8872,-27.3002"/>
</g>
<!-- Node1196 -->
<g id="node21" class="node">
<title>Node1196</title>
<g id="a_node21"><a xlink:href="triangle_8cpp.html#a6f0c7fd3fa9fb9a02403f67c7651feac" target="_top" xlink:title="checkseg4encroach">
<polygon fill="#ffffff" stroke="#000000" points="216,-380.5 216,-399.5 320,-399.5 320,-380.5 216,-380.5"/>
<text text-anchor="middle" x="268" y="-387.5" font-family="Helvetica,sans-Serif" font-size="10.00" fill="#000000">checkseg4encroach</text>
</a>
</g>
</g>
<!-- Node1179&#45;&gt;Node1196 -->
<g id="edge24" class="edge">
<title>Node1179&#45;&gt;Node1196</title>
<path fill="none" stroke="#191970" d="M143.873,-247.6705C152.4403,-270.969 177.1525,-330.8732 216,-366 220.1484,-369.7511 224.9844,-373.0125 230.0054,-375.8183"/>
<polygon fill="#191970" stroke="#191970" points="228.6253,-379.0413 239.1347,-380.384 231.7564,-372.7806 228.6253,-379.0413"/>
</g>
<!-- Node1197 -->
<g id="node22" class="node">
<title>Node1197</title>
<g id="a_node22"><a xlink:href="triangle_8cpp.html#abbd721e83ed16c99082c2152fa55e2ee" target="_top" xlink:title="incircle">
<polygon fill="#ffffff" stroke="#000000" points="492,-54.5 492,-73.5 539,-73.5 539,-54.5 492,-54.5"/>
<text text-anchor="middle" x="515.5" y="-61.5" font-family="Helvetica,sans-Serif" font-size="10.00" fill="#000000">incircle</text>
</a>
</g>
</g>
<!-- Node1179&#45;&gt;Node1197 -->
<g id="edge27" class="edge">
<title>Node1179&#45;&gt;Node1197</title>
<path fill="none" stroke="#191970" d="M142.4282,-228.2403C148.2406,-201.588 168.2199,-127.2138 216,-92 295.7134,-33.2515 421.6516,-46.1701 481.6068,-56.8205"/>
<polygon fill="#191970" stroke="#191970" points="481.1958,-60.3042 491.6682,-58.6984 482.4802,-53.423 481.1958,-60.3042"/>
</g>
<!-- Node1200 -->
<g id="node25" class="node">
<title>Node1200</title>
<g id="a_node25"><a xlink:href="triangle_8cpp.html#a816cae4d440df52b7bc162b05f92cc75" target="_top" xlink:title="testtriangle">
<polygon fill="#ffffff" stroke="#000000" points="235.5,-228.5 235.5,-247.5 300.5,-247.5 300.5,-228.5 235.5,-228.5"/>
<text text-anchor="middle" x="268" y="-235.5" font-family="Helvetica,sans-Serif" font-size="10.00" fill="#000000">testtriangle</text>
</a>
</g>
</g>
<!-- Node1179&#45;&gt;Node1200 -->
<g id="edge32" class="edge">
<title>Node1179&#45;&gt;Node1200</title>
<path fill="none" stroke="#191970" d="M174.6677,-238C190.158,-238 208.6426,-238 225.0593,-238"/>
<polygon fill="#191970" stroke="#191970" points="225.4965,-241.5001 235.4965,-238 225.4964,-234.5001 225.4965,-241.5001"/>
</g>
<!-- Node1181 -->
<g id="node6" class="node">
<title>Node1181</title>
<g id="a_node6"><a xlink:href="triangle_8cpp.html#abafde1fa8bfde5489dced6485939a19f" target="_top" xlink:title="randomnation">
<polygon fill="#ffffff" stroke="#000000" points="357,-152.5 357,-171.5 432,-171.5 432,-152.5 357,-152.5"/>
<text text-anchor="middle" x="394.5" y="-159.5" font-family="Helvetica,sans-Serif" font-size="10.00" fill="#000000">randomnation</text>
</a>
</g>
</g>
<!-- Node1180&#45;&gt;Node1181 -->
<g id="edge5" class="edge">
<title>Node1180&#45;&gt;Node1181</title>
<path fill="none" stroke="#191970" d="M289.7461,-154.5472C305.4467,-155.6642 327.2559,-157.2158 346.9118,-158.6143"/>
<polygon fill="#191970" stroke="#191970" points="346.7272,-162.1099 356.9505,-159.3285 347.2241,-155.1276 346.7272,-162.1099"/>
</g>
<!-- Node1180&#45;&gt;Node1182 -->
<g id="edge6" class="edge">
<title>Node1180&#45;&gt;Node1182</title>
<path fill="none" stroke="#191970" d="M289.531,-150.3032C326.9862,-145.6118 405.2752,-135.8059 459.1072,-129.0633"/>
<polygon fill="#191970" stroke="#191970" points="459.7058,-132.5158 469.1933,-127.8 458.8358,-125.5701 459.7058,-132.5158"/>
</g>
<!-- Node1180&#45;&gt;Node1186 -->
<g id="edge10" class="edge">
<title>Node1180&#45;&gt;Node1186</title>
<path fill="none" stroke="#191970" d="M286.1244,-143.4005C307.3539,-132.1564 342.7358,-113.4166 367.2706,-100.4219"/>
<polygon fill="#191970" stroke="#191970" points="369.2104,-103.3552 376.4093,-95.5817 365.934,-97.1692 369.2104,-103.3552"/>
</g>
<!-- Node1183 -->
<g id="node8" class="node">
<title>Node1183</title>
<g id="a_node8"><a xlink:href="triangle_8cpp.html#abd5587da82afca7f6403c3ec3d17139a" target="_top" xlink:title="counterclockwiseadapt">
<polygon fill="#ffffff" stroke="#000000" points="598,-108.5 598,-127.5 714,-127.5 714,-108.5 598,-108.5"/>
<text text-anchor="middle" x="656" y="-115.5" font-family="Helvetica,sans-Serif" font-size="10.00" fill="#000000">counterclockwiseadapt</text>
</a>
</g>
</g>
<!-- Node1182&#45;&gt;Node1183 -->
<g id="edge7" class="edge">
<title>Node1182&#45;&gt;Node1183</title>
<path fill="none" stroke="#191970" d="M561.505,-120.6903C569.9363,-120.4502 578.8988,-120.1951 587.8168,-119.9412"/>
<polygon fill="#191970" stroke="#191970" points="587.9396,-123.4392 597.8359,-119.6559 587.7403,-116.442 587.9396,-123.4392"/>
</g>
<!-- Node1184 -->
<g id="node9" class="node">
<title>Node1184</title>
<g id="a_node9"><a xlink:href="triangle_8cpp.html#a3487d9f90ea72da543d5d38b3dab1fbc" target="_top" xlink:title="estimate">
<polygon fill="#ffffff" stroke="#000000" points="788.5,-64.5 788.5,-83.5 842.5,-83.5 842.5,-64.5 788.5,-64.5"/>
<text text-anchor="middle" x="815.5" y="-71.5" font-family="Helvetica,sans-Serif" font-size="10.00" fill="#000000">estimate</text>
</a>
</g>
</g>
<!-- Node1183&#45;&gt;Node1184 -->
<g id="edge8" class="edge">
<title>Node1183&#45;&gt;Node1184</title>
<path fill="none" stroke="#191970" d="M690.6091,-108.4527C716.6067,-101.2809 752.1472,-91.4766 778.6684,-84.1604"/>
<polygon fill="#191970" stroke="#191970" points="779.6435,-87.5223 788.3527,-81.4889 777.7819,-80.7743 779.6435,-87.5223"/>
</g>
<!-- Node1185 -->
<g id="node10" class="node">
<title>Node1185</title>
<g id="a_node10"><a xlink:href="triangle_8cpp.html#a37646a7e0014e10c612e946bc95aeeea" target="_top" xlink:title="fast_expansion_sum\l_zeroelim">
<polygon fill="#ffffff" stroke="#000000" points="762,-103 762,-133 869,-133 869,-103 762,-103"/>
<text text-anchor="start" x="770" y="-121" font-family="Helvetica,sans-Serif" font-size="10.00" fill="#000000">fast_expansion_sum</text>
<text text-anchor="middle" x="815.5" y="-110" font-family="Helvetica,sans-Serif" font-size="10.00" fill="#000000">_zeroelim</text>
</a>
</g>
</g>
<!-- Node1183&#45;&gt;Node1185 -->
<g id="edge9" class="edge">
<title>Node1183&#45;&gt;Node1185</title>
<path fill="none" stroke="#191970" d="M714.0344,-118C726.2122,-118 739.1213,-118 751.5028,-118"/>
<polygon fill="#191970" stroke="#191970" points="751.7516,-121.5001 761.7516,-118 751.7516,-114.5001 751.7516,-121.5001"/>
</g>
<!-- Node1186&#45;&gt;Node1182 -->
<g id="edge11" class="edge">
<title>Node1186&#45;&gt;Node1182</title>
<path fill="none" stroke="#191970" d="M426.6081,-95.5528C440.9663,-99.8247 458.0837,-104.9175 473.4464,-109.4882"/>
<polygon fill="#191970" stroke="#191970" points="472.659,-112.9055 483.2419,-112.4025 474.6552,-106.1961 472.659,-112.9055"/>
</g>
<!-- Node1188 -->
<g id="node13" class="node">
<title>Node1188</title>
<g id="a_node13"><a xlink:href="triangle_8cpp.html#a5f51f1d3957615b2c84a91fd9f5f09bf" target="_top" xlink:title="trimalloc">
<polygon fill="#ffffff" stroke="#000000" points="629.5,-342.5 629.5,-361.5 682.5,-361.5 682.5,-342.5 629.5,-342.5"/>
<text text-anchor="middle" x="656" y="-349.5" font-family="Helvetica,sans-Serif" font-size="10.00" fill="#000000">trimalloc</text>
</a>
</g>
</g>
<!-- Node1187&#45;&gt;Node1188 -->
<g id="edge14" class="edge">
<title>Node1187&#45;&gt;Node1188</title>
<path fill="none" stroke="#191970" d="M543.2583,-352C564.9933,-352 595.421,-352 619.1885,-352"/>
<polygon fill="#191970" stroke="#191970" points="619.2527,-355.5001 629.2527,-352 619.2526,-348.5001 619.2527,-355.5001"/>
</g>
<!-- Node1189 -->
<g id="node14" class="node">
<title>Node1189</title>
<g id="a_node14"><a xlink:href="triangle_8cpp.html#a648abfc70d158485620dbcb9aa990178" target="_top" xlink:title="triexit">
<polygon fill="#ffffff" stroke="#000000" points="795,-342.5 795,-361.5 836,-361.5 836,-342.5 795,-342.5"/>
<text text-anchor="middle" x="815.5" y="-349.5" font-family="Helvetica,sans-Serif" font-size="10.00" fill="#000000">triexit</text>
</a>
</g>
</g>
<!-- Node1188&#45;&gt;Node1189 -->
<g id="edge15" class="edge">
<title>Node1188&#45;&gt;Node1189</title>
<path fill="none" stroke="#191970" d="M682.6967,-352C710.8148,-352 755.0362,-352 784.6336,-352"/>
<polygon fill="#191970" stroke="#191970" points="784.8194,-355.5001 794.8193,-352 784.8193,-348.5001 784.8194,-355.5001"/>
</g>
<!-- Node1190&#45;&gt;Node1187 -->
<g id="edge17" class="edge">
<title>Node1190&#45;&gt;Node1187</title>
<path fill="none" stroke="#191970" d="M425.0334,-323.589C441.1861,-328.6617 461.1515,-334.9319 478.2134,-340.2901"/>
<polygon fill="#191970" stroke="#191970" points="477.2836,-343.6666 487.8729,-343.3237 479.381,-336.9882 477.2836,-343.6666"/>
</g>
<!-- Node1192 -->
<g id="node17" class="node">
<title>Node1192</title>
<g id="a_node17"><a xlink:href="triangle_8cpp.html#a38c1f489a079cd860973698d73d5128c" target="_top" xlink:title="makesubseg">
<polygon fill="#ffffff" stroke="#000000" points="358.5,-456.5 358.5,-475.5 430.5,-475.5 430.5,-456.5 358.5,-456.5"/>
<text text-anchor="middle" x="394.5" y="-463.5" font-family="Helvetica,sans-Serif" font-size="10.00" fill="#000000">makesubseg</text>
</a>
</g>
</g>
<!-- Node1191&#45;&gt;Node1192 -->
<g id="edge19" class="edge">
<title>Node1191&#45;&gt;Node1192</title>
<path fill="none" stroke="#191970" d="M299.9213,-437.589C315.9516,-442.4044 335.5738,-448.2988 352.7816,-453.468"/>
<polygon fill="#191970" stroke="#191970" points="352.0047,-456.8891 362.5889,-456.4141 354.0187,-450.185 352.0047,-456.8891"/>
</g>
<!-- Node1193 -->
<g id="node18" class="node">
<title>Node1193</title>
<g id="a_node18"><a xlink:href="triangle_8cpp.html#a3ced5ec1374d5a837ece08d2efe7bcb0" target="_top" xlink:title="printsubseg">
<polygon fill="#ffffff" stroke="#000000" points="361,-418.5 361,-437.5 428,-437.5 428,-418.5 361,-418.5"/>
<text text-anchor="middle" x="394.5" y="-425.5" font-family="Helvetica,sans-Serif" font-size="10.00" fill="#000000">printsubseg</text>
</a>
</g>
</g>
<!-- Node1191&#45;&gt;Node1193 -->
<g id="edge21" class="edge">
<title>Node1191&#45;&gt;Node1193</title>
<path fill="none" stroke="#191970" d="M304.2498,-428C318.7238,-428 335.5201,-428 350.6702,-428"/>
<polygon fill="#191970" stroke="#191970" points="350.8469,-431.5001 360.8469,-428 350.8469,-424.5001 350.8469,-431.5001"/>
</g>
<!-- Node1192&#45;&gt;Node1187 -->
<g id="edge20" class="edge">
<title>Node1192&#45;&gt;Node1187</title>
<path fill="none" stroke="#191970" d="M417.779,-456.3672C423.0244,-453.7021 428.3967,-450.5511 433,-447 462.078,-424.5686 488.5446,-390.6275 503.2889,-369.9685"/>
<polygon fill="#191970" stroke="#191970" points="506.1734,-371.951 509.0349,-361.7499 500.4365,-367.94 506.1734,-371.951"/>
</g>
<!-- Node1196&#45;&gt;Node1187 -->
<g id="edge25" class="edge">
<title>Node1196&#45;&gt;Node1187</title>
<path fill="none" stroke="#191970" d="M320.0671,-382.748C352.5663,-378.1418 395.2552,-371.9468 433,-366 447.5233,-363.7118 463.457,-361.0448 477.4163,-358.6562"/>
<polygon fill="#191970" stroke="#191970" points="478.3887,-362.0403 487.65,-356.8947 477.2012,-355.1418 478.3887,-362.0403"/>
</g>
<!-- Node1198 -->
<g id="node23" class="node">
<title>Node1198</title>
<g id="a_node23"><a xlink:href="triangle_8cpp.html#ade6dfff2bcdf2f287e419bc4e2a211dc" target="_top" xlink:title="incircleadapt">
<polygon fill="#ffffff" stroke="#000000" points="620.5,-62.5 620.5,-81.5 691.5,-81.5 691.5,-62.5 620.5,-62.5"/>
<text text-anchor="middle" x="656" y="-69.5" font-family="Helvetica,sans-Serif" font-size="10.00" fill="#000000">incircleadapt</text>
</a>
</g>
</g>
<!-- Node1197&#45;&gt;Node1198 -->
<g id="edge28" class="edge">
<title>Node1197&#45;&gt;Node1198</title>
<path fill="none" stroke="#191970" d="M539.0165,-65.339C558.3424,-66.4394 586.3042,-68.0316 610.0445,-69.3833"/>
<polygon fill="#191970" stroke="#191970" points="610.082,-72.891 620.2648,-69.9653 610.48,-65.9024 610.082,-72.891"/>
</g>
<!-- Node1198&#45;&gt;Node1184 -->
<g id="edge31" class="edge">
<title>Node1198&#45;&gt;Node1184</title>
<path fill="none" stroke="#191970" d="M691.7949,-72.4488C717.4656,-72.7707 751.9725,-73.2034 778.0191,-73.53"/>
<polygon fill="#191970" stroke="#191970" points="778.2148,-77.0327 788.258,-73.6584 778.3027,-70.0332 778.2148,-77.0327"/>
</g>
<!-- Node1198&#45;&gt;Node1185 -->
<g id="edge30" class="edge">
<title>Node1198&#45;&gt;Node1185</title>
<path fill="none" stroke="#191970" d="M689.0485,-81.5312C707.7274,-86.9183 731.6839,-93.8273 753.7118,-100.1802"/>
<polygon fill="#191970" stroke="#191970" points="752.7627,-103.5491 763.341,-102.9573 754.7025,-96.8232 752.7627,-103.5491"/>
</g>
<!-- Node1199 -->
<g id="node24" class="node">
<title>Node1199</title>
<g id="a_node24"><a xlink:href="triangle_8cpp.html#abdcdaa8948d9a2937154d9d67f67da8d" target="_top" xlink:title="scale_expansion_zeroelim">
<polygon fill="#ffffff" stroke="#000000" points="750,-26.5 750,-45.5 881,-45.5 881,-26.5 750,-26.5"/>
<text text-anchor="middle" x="815.5" y="-33.5" font-family="Helvetica,sans-Serif" font-size="10.00" fill="#000000">scale_expansion_zeroelim</text>
</a>
</g>
</g>
<!-- Node1198&#45;&gt;Node1199 -->
<g id="edge29" class="edge">
<title>Node1198&#45;&gt;Node1199</title>
<path fill="none" stroke="#191970" d="M691.7949,-63.9209C712.9313,-59.1503 740.0582,-53.0276 763.5206,-47.732"/>
<polygon fill="#191970" stroke="#191970" points="764.3394,-51.1353 773.3234,-45.5195 762.7982,-44.3071 764.3394,-51.1353"/>
</g>
<!-- Node1201 -->
<g id="node26" class="node">
<title>Node1201</title>
<g id="a_node26"><a xlink:href="triangle_8cpp.html#a6b67091e1472b3c8d48c8540148dc1a8" target="_top" xlink:title="enqueuebadtri">
<polygon fill="#ffffff" stroke="#000000" points="356,-266.5 356,-285.5 433,-285.5 433,-266.5 356,-266.5"/>
<text text-anchor="middle" x="394.5" y="-273.5" font-family="Helvetica,sans-Serif" font-size="10.00" fill="#000000">enqueuebadtri</text>
</a>
</g>
</g>
<!-- Node1200&#45;&gt;Node1201 -->
<g id="edge33" class="edge">
<title>Node1200&#45;&gt;Node1201</title>
<path fill="none" stroke="#191970" d="M299.9213,-247.589C315.9516,-252.4044 335.5738,-258.2988 352.7816,-263.468"/>
<polygon fill="#191970" stroke="#191970" points="352.0047,-266.8891 362.5889,-266.4141 354.0187,-260.185 352.0047,-266.8891"/>
</g>
<!-- Node1203 -->
<g id="node28" class="node">
<title>Node1203</title>
<g id="a_node28"><a xlink:href="triangle_8cpp.html#a435eb334f65dbd9268038e8881e24554" target="_top" xlink:title="triunsuitable">
<polygon fill="#ffffff" stroke="#000000" points="360,-228.5 360,-247.5 429,-247.5 429,-228.5 360,-228.5"/>
<text text-anchor="middle" x="394.5" y="-235.5" font-family="Helvetica,sans-Serif" font-size="10.00" fill="#000000">triunsuitable</text>
</a>
</g>
</g>
<!-- Node1200&#45;&gt;Node1203 -->
<g id="edge36" class="edge">
<title>Node1200&#45;&gt;Node1203</title>
<path fill="none" stroke="#191970" d="M300.5769,-238C315.4696,-238 333.3558,-238 349.5054,-238"/>
<polygon fill="#191970" stroke="#191970" points="349.8183,-241.5001 359.8183,-238 349.8183,-234.5001 349.8183,-241.5001"/>
</g>
<!-- Node1201&#45;&gt;Node1187 -->
<g id="edge34" class="edge">
<title>Node1201&#45;&gt;Node1187</title>
<path fill="none" stroke="#191970" d="M415.1744,-285.5129C421.0294,-288.3915 427.3457,-291.6755 433,-295 454.6526,-307.7309 478.104,-324.2172 494.4489,-336.182"/>
<polygon fill="#191970" stroke="#191970" points="492.6194,-339.1821 502.7416,-342.3113 496.7802,-333.5528 492.6194,-339.1821"/>
</g>
<!-- Node1202 -->
<g id="node27" class="node">
<title>Node1202</title>
<g id="a_node27"><a xlink:href="triangle_8cpp.html#a8b69474415bac9ddab3a5879974338b5" target="_top" xlink:title="enqueuebadtriang">
<polygon fill="#ffffff" stroke="#000000" points="469,-266.5 469,-285.5 562,-285.5 562,-266.5 469,-266.5"/>
<text text-anchor="middle" x="515.5" y="-273.5" font-family="Helvetica,sans-Serif" font-size="10.00" fill="#000000">enqueuebadtriang</text>
</a>
</g>
</g>
<!-- Node1201&#45;&gt;Node1202 -->
<g id="edge35" class="edge">
<title>Node1201&#45;&gt;Node1202</title>
<path fill="none" stroke="#191970" d="M433.1178,-276C441.2704,-276 450.0357,-276 458.6994,-276"/>
<polygon fill="#191970" stroke="#191970" points="458.7805,-279.5001 468.7805,-276 458.7804,-272.5001 458.7805,-279.5001"/>
</g>
<!-- Node1204&#45;&gt;Node1195 -->
<g id="edge38" class="edge">
<title>Node1204&#45;&gt;Node1195</title>
<path fill="none" stroke="#191970" d="M148.9738,-95.2233C162.1459,-80.4745 188.8537,-52.3158 216,-34 221.4631,-30.314 227.5831,-26.9279 233.6536,-23.9334"/>
<polygon fill="#191970" stroke="#191970" points="235.4592,-26.9538 243.0508,-19.5634 232.5074,-20.6065 235.4592,-26.9538"/>
</g>
</g>
</svg>
