<?xml version="1.0" encoding="UTF-8" standalone="no"?>
<!DOCTYPE svg PUBLIC "-//W3C//DTD SVG 1.1//EN"
 "http://www.w3.org/Graphics/SVG/1.1/DTD/svg11.dtd">
<!-- Generated by graphviz version 2.40.1 (20161225.0304)
 -->
<!-- Title: constrainededge Pages: 1 -->
<svg width="651pt" height="28pt"
 viewBox="0.00 0.00 651.00 28.00" xmlns="http://www.w3.org/2000/svg" xmlns:xlink="http://www.w3.org/1999/xlink">
<g id="graph0" class="graph" transform="scale(1 1) rotate(0) translate(4 24)">
<title>constrainededge</title>
<polygon fill="#ffffff" stroke="transparent" points="-4,4 -4,-24 647,-24 647,4 -4,4"/>
<!-- Node1455 -->
<g id="node1" class="node">
<title>Node1455</title>
<polygon fill="#bfbfbf" stroke="#000000" points="0,-.5 0,-19.5 88,-19.5 88,-.5 0,-.5"/>
<text text-anchor="middle" x="44" y="-7.5" font-family="Helvetica,sans-Serif" font-size="10.00" fill="#000000">constrainededge</text>
</g>
<!-- Node1456 -->
<g id="node2" class="node">
<title>Node1456</title>
<g id="a_node2"><a xlink:href="triangle_8cpp.html#ae367b20189056436da2a1b633b392703" target="_top" xlink:title="insertsegment">
<polygon fill="#ffffff" stroke="#000000" points="124,-.5 124,-19.5 202,-19.5 202,-.5 124,-.5"/>
<text text-anchor="middle" x="163" y="-7.5" font-family="Helvetica,sans-Serif" font-size="10.00" fill="#000000">insertsegment</text>
</a>
</g>
</g>
<!-- Node1455&#45;&gt;Node1456 -->
<g id="edge1" class="edge">
<title>Node1455&#45;&gt;Node1456</title>
<path fill="none" stroke="#191970" d="M98.5578,-10C107.0517,-10 115.6808,-10 123.7464,-10"/>
<polygon fill="#191970" stroke="#191970" points="98.3112,-6.5001 88.3112,-10 98.3112,-13.5001 98.3112,-6.5001"/>
</g>
<!-- Node1457 -->
<g id="node3" class="node">
<title>Node1457</title>
<g id="a_node3"><a xlink:href="triangle_8cpp.html#a77e7549672629c06d5926b7edcafc337" target="_top" xlink:title="formskeleton">
<polygon fill="#ffffff" stroke="#000000" points="238,-.5 238,-19.5 311,-19.5 311,-.5 238,-.5"/>
<text text-anchor="middle" x="274.5" y="-7.5" font-family="Helvetica,sans-Serif" font-size="10.00" fill="#000000">formskeleton</text>
</a>
</g>
</g>
<!-- Node1456&#45;&gt;Node1457 -->
<g id="edge2" class="edge">
<title>Node1456&#45;&gt;Node1457</title>
<path fill="none" stroke="#191970" d="M212.5197,-10C221.0128,-10 229.7012,-10 237.7832,-10"/>
<polygon fill="#191970" stroke="#191970" points="212.3108,-6.5001 202.3107,-10 212.3107,-13.5001 212.3108,-6.5001"/>
</g>
<!-- Node1458 -->
<g id="node4" class="node">
<title>Node1458</title>
<g id="a_node4"><a xlink:href="triangle_8hpp.html#a848df2990f66cdbdc9d1ac87f4646527" target="_top" xlink:title="Call Triangle. ">
<polygon fill="#ffffff" stroke="#000000" points="347,-.5 347,-19.5 409,-19.5 409,-.5 347,-.5"/>
<text text-anchor="middle" x="378" y="-7.5" font-family="Helvetica,sans-Serif" font-size="10.00" fill="#000000">triangulate</text>
</a>
</g>
</g>
<!-- Node1457&#45;&gt;Node1458 -->
<g id="edge3" class="edge">
<title>Node1457&#45;&gt;Node1458</title>
<path fill="none" stroke="#191970" d="M321.2894,-10C329.9375,-10 338.772,-10 346.815,-10"/>
<polygon fill="#191970" stroke="#191970" points="321.2817,-6.5001 311.2817,-10 321.2816,-13.5001 321.2817,-6.5001"/>
</g>
<!-- Node1459 -->
<g id="node5" class="node">
<title>Node1459</title>
<g id="a_node5"><a xlink:href="classRiver_1_1Triangle.html#a7bc9c5a5297dee136ab1489a923182dd" target="_top" xlink:title="Generate mesh. ">
<polygon fill="#ffffff" stroke="#000000" points="445,-.5 445,-19.5 569,-19.5 569,-.5 445,-.5"/>
<text text-anchor="middle" x="507" y="-7.5" font-family="Helvetica,sans-Serif" font-size="10.00" fill="#000000">River::Triangle::generate</text>
</a>
</g>
</g>
<!-- Node1458&#45;&gt;Node1459 -->
<g id="edge4" class="edge">
<title>Node1458&#45;&gt;Node1459</title>
<path fill="none" stroke="#191970" d="M419.2629,-10C427.4682,-10 436.2527,-10 444.9767,-10"/>
<polygon fill="#191970" stroke="#191970" points="419.2273,-6.5001 409.2273,-10 419.2273,-13.5001 419.2273,-6.5001"/>
</g>
<!-- Node1460 -->
<g id="node6" class="node">
<title>Node1460</title>
<g id="a_node6"><a xlink:href="main_8cpp.html#a0ddf1224851353fc92bfbff6f499fa97" target="_top" xlink:title="Entry point of RiverSim program. ">
<polygon fill="#ffffff" stroke="#000000" points="605,-.5 605,-19.5 643,-19.5 643,-.5 605,-.5"/>
<text text-anchor="middle" x="624" y="-7.5" font-family="Helvetica,sans-Serif" font-size="10.00" fill="#000000">main</text>
</a>
</g>
</g>
<!-- Node1459&#45;&gt;Node1460 -->
<g id="edge5" class="edge">
<title>Node1459&#45;&gt;Node1460</title>
<path fill="none" stroke="#191970" d="M579.5174,-10C588.8253,-10 597.6301,-10 604.912,-10"/>
<polygon fill="#191970" stroke="#191970" points="579.2682,-6.5001 569.2682,-10 579.2682,-13.5001 579.2682,-6.5001"/>
</g>
</g>
</svg>
