<?xml version="1.0" encoding="UTF-8" standalone="no"?>
<!DOCTYPE svg PUBLIC "-//W3C//DTD SVG 1.1//EN"
 "http://www.w3.org/Graphics/SVG/1.1/DTD/svg11.dtd">
<!-- Generated by graphviz version 2.40.1 (20161225.0304)
 -->
<!-- Title: dummyinit Pages: 1 -->
<svg width="236pt" height="28pt"
 viewBox="0.00 0.00 236.00 28.00" xmlns="http://www.w3.org/2000/svg" xmlns:xlink="http://www.w3.org/1999/xlink">
<g id="graph0" class="graph" transform="scale(1 1) rotate(0) translate(4 24)">
<title>dummyinit</title>
<polygon fill="#ffffff" stroke="transparent" points="-4,4 -4,-24 232,-24 232,4 -4,4"/>
<!-- Node375 -->
<g id="node1" class="node">
<title>Node375</title>
<polygon fill="#bfbfbf" stroke="#000000" points="0,-.5 0,-19.5 62,-19.5 62,-.5 0,-.5"/>
<text text-anchor="middle" x="31" y="-7.5" font-family="Helvetica,sans-Serif" font-size="10.00" fill="#000000">dummyinit</text>
</g>
<!-- Node376 -->
<g id="node2" class="node">
<title>Node376</title>
<g id="a_node2"><a xlink:href="triangle_8cpp.html#a5f51f1d3957615b2c84a91fd9f5f09bf" target="_top" xlink:title="trimalloc">
<polygon fill="#ffffff" stroke="#000000" points="98,-.5 98,-19.5 151,-19.5 151,-.5 98,-.5"/>
<text text-anchor="middle" x="124.5" y="-7.5" font-family="Helvetica,sans-Serif" font-size="10.00" fill="#000000">trimalloc</text>
</a>
</g>
</g>
<!-- Node375&#45;&gt;Node376 -->
<g id="edge1" class="edge">
<title>Node375&#45;&gt;Node376</title>
<path fill="none" stroke="#191970" d="M62.1341,-10C70.3675,-10 79.3308,-10 87.8278,-10"/>
<polygon fill="#191970" stroke="#191970" points="87.8807,-13.5001 97.8806,-10 87.8806,-6.5001 87.8807,-13.5001"/>
</g>
<!-- Node377 -->
<g id="node3" class="node">
<title>Node377</title>
<g id="a_node3"><a xlink:href="triangle_8cpp.html#a648abfc70d158485620dbcb9aa990178" target="_top" xlink:title="triexit">
<polygon fill="#ffffff" stroke="#000000" points="187,-.5 187,-19.5 228,-19.5 228,-.5 187,-.5"/>
<text text-anchor="middle" x="207.5" y="-7.5" font-family="Helvetica,sans-Serif" font-size="10.00" fill="#000000">triexit</text>
</a>
</g>
</g>
<!-- Node376&#45;&gt;Node377 -->
<g id="edge2" class="edge">
<title>Node376&#45;&gt;Node377</title>
<path fill="none" stroke="#191970" d="M151.2186,-10C159.3489,-10 168.3499,-10 176.7251,-10"/>
<polygon fill="#191970" stroke="#191970" points="176.8865,-13.5001 186.8865,-10 176.8865,-6.5001 176.8865,-13.5001"/>
</g>
</g>
</svg>
