<?xml version="1.0" encoding="UTF-8" standalone="no"?>
<!DOCTYPE svg PUBLIC "-//W3C//DTD SVG 1.1//EN"
 "http://www.w3.org/Graphics/SVG/1.1/DTD/svg11.dtd">
<!-- Generated by graphviz version 2.40.1 (20161225.0304)
 -->
<!-- Title: /home/oleg/Dev/riversim/source/river/triangle.hpp Pages: 1 -->
<svg width="394pt" height="207pt"
 viewBox="0.00 0.00 394.46 207.00" xmlns="http://www.w3.org/2000/svg" xmlns:xlink="http://www.w3.org/1999/xlink">
<g id="graph0" class="graph" transform="scale(1 1) rotate(0) translate(4 203)">
<title>/home/oleg/Dev/riversim/source/river/triangle.hpp</title>
<polygon fill="#ffffff" stroke="transparent" points="-4,4 -4,-203 390.4567,-203 390.4567,4 -4,4"/>
<!-- Node0 -->
<g id="node1" class="node">
<title>Node0</title>
<polygon fill="#bfbfbf" stroke="#000000" points="19.4567,-168.5 19.4567,-198.5 143.4567,-198.5 143.4567,-168.5 19.4567,-168.5"/>
<text text-anchor="start" x="27.4567" y="-186.5" font-family="Helvetica,sans-Serif" font-size="10.00" fill="#000000">/home/oleg/Dev/riversim</text>
<text text-anchor="middle" x="81.4567" y="-175.5" font-family="Helvetica,sans-Serif" font-size="10.00" fill="#000000">/source/river/triangle.hpp</text>
</g>
<!-- Node1 -->
<g id="node2" class="node">
<title>Node1</title>
<polygon fill="#ffffff" stroke="#bfbfbf" points="135.4567,-.5 135.4567,-19.5 179.4567,-19.5 179.4567,-.5 135.4567,-.5"/>
<text text-anchor="middle" x="157.4567" y="-7.5" font-family="Helvetica,sans-Serif" font-size="10.00" fill="#000000">vector</text>
</g>
<!-- Node0&#45;&gt;Node1 -->
<g id="edge1" class="edge">
<title>Node0&#45;&gt;Node1</title>
<path fill="none" stroke="#191970" d="M61.2609,-168.2802C31.0393,-143.6463 -19.5597,-93.9704 8.4567,-56 22.4003,-37.1023 85.8804,-22.6913 125.349,-15.3653"/>
<polygon fill="#191970" stroke="#191970" points="126.0808,-18.7899 135.3022,-13.573 124.8402,-11.9007 126.0808,-18.7899"/>
</g>
<!-- Node2 -->
<g id="node3" class="node">
<title>Node2</title>
<g id="a_node3"><a xlink:href="physmodel_8hpp.html" target="_top" xlink:title="Physical model incapsulation. ">
<polygon fill="#ffffff" stroke="#000000" points="132.9567,-112.5 132.9567,-131.5 215.9567,-131.5 215.9567,-112.5 132.9567,-112.5"/>
<text text-anchor="middle" x="174.4567" y="-119.5" font-family="Helvetica,sans-Serif" font-size="10.00" fill="#000000">physmodel.hpp</text>
</a>
</g>
</g>
<!-- Node0&#45;&gt;Node2 -->
<g id="edge2" class="edge">
<title>Node0&#45;&gt;Node2</title>
<path fill="none" stroke="#191970" d="M104.4454,-168.2977C118.6533,-158.9022 136.8352,-146.8787 151.1092,-137.4395"/>
<polygon fill="#191970" stroke="#191970" points="153.4334,-140.0986 159.8439,-131.6633 149.5722,-134.2598 153.4334,-140.0986"/>
</g>
<!-- Node3 -->
<g id="node4" class="node">
<title>Node3</title>
<polygon fill="#ffffff" stroke="#bfbfbf" points="332.4567,-.5 332.4567,-19.5 386.4567,-19.5 386.4567,-.5 332.4567,-.5"/>
<text text-anchor="middle" x="359.4567" y="-7.5" font-family="Helvetica,sans-Serif" font-size="10.00" fill="#000000">iostream</text>
</g>
<!-- Node2&#45;&gt;Node3 -->
<g id="edge3" class="edge">
<title>Node2&#45;&gt;Node3</title>
<path fill="none" stroke="#191970" d="M216.2671,-118.3447C268.7336,-112.7915 354.2003,-100.2154 373.4567,-76 384.1189,-62.5919 378.0295,-42.9631 370.8487,-28.5973"/>
<polygon fill="#191970" stroke="#191970" points="373.7955,-26.6934 365.8954,-19.6336 367.6687,-30.079 373.7955,-26.6934"/>
</g>
<!-- Node4 -->
<g id="node5" class="node">
<title>Node4</title>
<polygon fill="#ffffff" stroke="#bfbfbf" points="17.4567,-56.5 17.4567,-75.5 61.4567,-75.5 61.4567,-56.5 17.4567,-56.5"/>
<text text-anchor="middle" x="39.4567" y="-63.5" font-family="Helvetica,sans-Serif" font-size="10.00" fill="#000000">cmath</text>
</g>
<!-- Node2&#45;&gt;Node4 -->
<g id="edge4" class="edge">
<title>Node2&#45;&gt;Node4</title>
<path fill="none" stroke="#191970" d="M151.2494,-112.3733C129.0206,-103.1524 95.3179,-89.1721 70.7292,-78.9723"/>
<polygon fill="#191970" stroke="#191970" points="72.0451,-75.729 61.4672,-75.1303 69.363,-82.1948 72.0451,-75.729"/>
</g>
<!-- Node5 -->
<g id="node6" class="node">
<title>Node5</title>
<polygon fill="#ffffff" stroke="#bfbfbf" points="79.9567,-56.5 79.9567,-75.5 132.9567,-75.5 132.9567,-56.5 79.9567,-56.5"/>
<text text-anchor="middle" x="106.4567" y="-63.5" font-family="Helvetica,sans-Serif" font-size="10.00" fill="#000000">complex</text>
</g>
<!-- Node2&#45;&gt;Node5 -->
<g id="edge5" class="edge">
<title>Node2&#45;&gt;Node5</title>
<path fill="none" stroke="#191970" d="M162.612,-112.2455C152.5687,-103.9746 137.9572,-91.9416 126.1563,-82.2232"/>
<polygon fill="#191970" stroke="#191970" points="128.11,-79.298 118.1656,-75.6427 123.66,-84.7015 128.11,-79.298"/>
</g>
<!-- Node6 -->
<g id="node7" class="node">
<title>Node6</title>
<polygon fill="#ffffff" stroke="#bfbfbf" points="150.9567,-56.5 150.9567,-75.5 197.9567,-75.5 197.9567,-56.5 150.9567,-56.5"/>
<text text-anchor="middle" x="174.4567" y="-63.5" font-family="Helvetica,sans-Serif" font-size="10.00" fill="#000000">math.h</text>
</g>
<!-- Node2&#45;&gt;Node6 -->
<g id="edge6" class="edge">
<title>Node2&#45;&gt;Node6</title>
<path fill="none" stroke="#191970" d="M174.4567,-112.2455C174.4567,-104.9382 174.4567,-94.6944 174.4567,-85.7046"/>
<polygon fill="#191970" stroke="#191970" points="177.9568,-85.6426 174.4567,-75.6427 170.9568,-85.6427 177.9568,-85.6426"/>
</g>
<!-- Node7 -->
<g id="node8" class="node">
<title>Node7</title>
<polygon fill="#ffffff" stroke="#bfbfbf" points="216.4567,-56.5 216.4567,-75.5 272.4567,-75.5 272.4567,-56.5 216.4567,-56.5"/>
<text text-anchor="middle" x="244.4567" y="-63.5" font-family="Helvetica,sans-Serif" font-size="10.00" fill="#000000">algorithm</text>
</g>
<!-- Node2&#45;&gt;Node7 -->
<g id="edge7" class="edge">
<title>Node2&#45;&gt;Node7</title>
<path fill="none" stroke="#191970" d="M186.6497,-112.2455C197.0888,-103.8943 212.3221,-91.7076 224.5307,-81.9408"/>
<polygon fill="#191970" stroke="#191970" points="226.7811,-84.6227 232.4033,-75.6427 222.4082,-79.1566 226.7811,-84.6227"/>
</g>
<!-- Node8 -->
<g id="node9" class="node">
<title>Node8</title>
<g id="a_node9"><a xlink:href="common_8hpp.html" target="_top" xlink:title="Common geometric entities to whole program. ">
<polygon fill="#ffffff" stroke="#000000" points="290.9567,-56.5 290.9567,-75.5 363.9567,-75.5 363.9567,-56.5 290.9567,-56.5"/>
<text text-anchor="middle" x="327.4567" y="-63.5" font-family="Helvetica,sans-Serif" font-size="10.00" fill="#000000">common.hpp</text>
</a>
</g>
</g>
<!-- Node2&#45;&gt;Node8 -->
<g id="edge8" class="edge">
<title>Node2&#45;&gt;Node8</title>
<path fill="none" stroke="#191970" d="M200.7583,-112.3733C225.8695,-103.1822 263.9005,-89.2624 291.7439,-79.0713"/>
<polygon fill="#191970" stroke="#191970" points="293.3105,-82.2251 301.4983,-75.5011 290.9045,-75.6516 293.3105,-82.2251"/>
</g>
<!-- Node8&#45;&gt;Node1 -->
<g id="edge9" class="edge">
<title>Node8&#45;&gt;Node1</title>
<path fill="none" stroke="#191970" d="M298.2326,-56.3733C267.8227,-46.3559 220.3598,-30.721 189.0859,-20.419"/>
<polygon fill="#191970" stroke="#191970" points="190.136,-17.08 179.543,-17.2755 187.9458,-23.7286 190.136,-17.08"/>
</g>
<!-- Node8&#45;&gt;Node3 -->
<g id="edge10" class="edge">
<title>Node8&#45;&gt;Node3</title>
<path fill="none" stroke="#191970" d="M333.0307,-56.2455C337.3898,-48.617 343.5777,-37.7881 348.87,-28.5267"/>
<polygon fill="#191970" stroke="#191970" points="352.024,-30.0616 353.9466,-19.6427 345.9463,-26.5886 352.024,-30.0616"/>
</g>
</g>
</svg>
