<?xml version="1.0" encoding="UTF-8" standalone="no"?>
<!DOCTYPE svg PUBLIC "-//W3C//DTD SVG 1.1//EN"
 "http://www.w3.org/Graphics/SVG/1.1/DTD/svg11.dtd">
<!-- Generated by graphviz version 2.40.1 (20161225.0304)
 -->
<!-- Title: triangledeinit Pages: 1 -->
<svg width="250pt" height="47pt"
 viewBox="0.00 0.00 250.00 47.00" xmlns="http://www.w3.org/2000/svg" xmlns:xlink="http://www.w3.org/1999/xlink">
<g id="graph0" class="graph" transform="scale(1 1) rotate(0) translate(4 43)">
<title>triangledeinit</title>
<polygon fill="#ffffff" stroke="transparent" points="-4,4 -4,-43 246,-43 246,4 -4,4"/>
<!-- Node534 -->
<g id="node1" class="node">
<title>Node534</title>
<polygon fill="#bfbfbf" stroke="#000000" points="0,-.5 0,-19.5 71,-19.5 71,-.5 0,-.5"/>
<text text-anchor="middle" x="35.5" y="-7.5" font-family="Helvetica,sans-Serif" font-size="10.00" fill="#000000">triangledeinit</text>
</g>
<!-- Node535 -->
<g id="node2" class="node">
<title>Node535</title>
<g id="a_node2"><a xlink:href="triangle_8cpp.html#adce8bbec9a21ffa945c9cca035fd1f7b" target="_top" xlink:title="pooldeinit">
<polygon fill="#ffffff" stroke="#000000" points="107,-19.5 107,-38.5 165,-38.5 165,-19.5 107,-19.5"/>
<text text-anchor="middle" x="136" y="-26.5" font-family="Helvetica,sans-Serif" font-size="10.00" fill="#000000">pooldeinit</text>
</a>
</g>
</g>
<!-- Node534&#45;&gt;Node535 -->
<g id="edge1" class="edge">
<title>Node534&#45;&gt;Node535</title>
<path fill="none" stroke="#191970" d="M71.2155,-16.7522C79.4783,-18.3143 88.3147,-19.9849 96.7205,-21.574"/>
<polygon fill="#191970" stroke="#191970" points="96.2166,-25.0407 106.6928,-23.4593 97.517,-18.1625 96.2166,-25.0407"/>
</g>
<!-- Node536 -->
<g id="node3" class="node">
<title>Node536</title>
<g id="a_node3"><a xlink:href="triangle_8cpp.html#a3b29a8b4c5ac87eff6c5b27e7e0c43c0" target="_top" xlink:title="trifree">
<polygon fill="#ffffff" stroke="#000000" points="201,-.5 201,-19.5 242,-19.5 242,-.5 201,-.5"/>
<text text-anchor="middle" x="221.5" y="-7.5" font-family="Helvetica,sans-Serif" font-size="10.00" fill="#000000">trifree</text>
</a>
</g>
</g>
<!-- Node534&#45;&gt;Node536 -->
<g id="edge3" class="edge">
<title>Node534&#45;&gt;Node536</title>
<path fill="none" stroke="#191970" d="M71.3627,-10C105.8858,-10 157.5598,-10 190.3903,-10"/>
<polygon fill="#191970" stroke="#191970" points="190.7497,-13.5001 200.7497,-10 190.7497,-6.5001 190.7497,-13.5001"/>
</g>
<!-- Node535&#45;&gt;Node536 -->
<g id="edge2" class="edge">
<title>Node535&#45;&gt;Node536</title>
<path fill="none" stroke="#191970" d="M165.4242,-22.4613C173.6436,-20.6347 182.5932,-18.6459 190.8799,-16.8045"/>
<polygon fill="#191970" stroke="#191970" points="191.9143,-20.1601 200.9169,-14.574 190.3958,-13.3267 191.9143,-20.1601"/>
</g>
</g>
</svg>
