<?xml version="1.0" encoding="UTF-8" standalone="no"?>
<!DOCTYPE svg PUBLIC "-//W3C//DTD SVG 1.1//EN"
 "http://www.w3.org/Graphics/SVG/1.1/DTD/svg11.dtd">
<!-- Generated by graphviz version 2.40.1 (20161225.0304)
 -->
<!-- Title: subsegtraverse Pages: 1 -->
<svg width="628pt" height="104pt"
 viewBox="0.00 0.00 628.00 104.00" xmlns="http://www.w3.org/2000/svg" xmlns:xlink="http://www.w3.org/1999/xlink">
<g id="graph0" class="graph" transform="scale(1 1) rotate(0) translate(4 100)">
<title>subsegtraverse</title>
<polygon fill="#ffffff" stroke="transparent" points="-4,4 -4,-100 624,-100 624,4 -4,4"/>
<!-- Node452 -->
<g id="node1" class="node">
<title>Node452</title>
<polygon fill="#bfbfbf" stroke="#000000" points="0,-38.5 0,-57.5 83,-57.5 83,-38.5 0,-38.5"/>
<text text-anchor="middle" x="41.5" y="-45.5" font-family="Helvetica,sans-Serif" font-size="10.00" fill="#000000">subsegtraverse</text>
</g>
<!-- Node453 -->
<g id="node2" class="node">
<title>Node453</title>
<g id="a_node2"><a xlink:href="triangle_8cpp.html#a711adeeb3c28e4f2e3e173d729912c13" target="_top" xlink:title="reconstruct">
<polygon fill="#ffffff" stroke="#000000" points="217,-76.5 217,-95.5 282,-95.5 282,-76.5 217,-76.5"/>
<text text-anchor="middle" x="249.5" y="-83.5" font-family="Helvetica,sans-Serif" font-size="10.00" fill="#000000">reconstruct</text>
</a>
</g>
</g>
<!-- Node452&#45;&gt;Node453 -->
<g id="edge1" class="edge">
<title>Node452&#45;&gt;Node453</title>
<path fill="none" stroke="#191970" d="M87.0161,-59.9298C97.4808,-62.4575 108.5927,-64.9715 119,-67 152.1465,-73.4607 190.4195,-78.7839 216.9077,-82.1357"/>
<polygon fill="#191970" stroke="#191970" points="87.7722,-56.5115 77.2252,-57.5174 86.0975,-63.3082 87.7722,-56.5115"/>
</g>
<!-- Node457 -->
<g id="node6" class="node">
<title>Node457</title>
<g id="a_node6"><a xlink:href="triangle_8cpp.html#af8e72ce607fa7738b63bab87df6aef22" target="_top" xlink:title="tallyencs">
<polygon fill="#ffffff" stroke="#000000" points="119,-38.5 119,-57.5 175,-57.5 175,-38.5 119,-38.5"/>
<text text-anchor="middle" x="147" y="-45.5" font-family="Helvetica,sans-Serif" font-size="10.00" fill="#000000">tallyencs</text>
</a>
</g>
</g>
<!-- Node452&#45;&gt;Node457 -->
<g id="edge5" class="edge">
<title>Node452&#45;&gt;Node457</title>
<path fill="none" stroke="#191970" d="M93.4351,-48C102.2184,-48 111.0319,-48 118.9011,-48"/>
<polygon fill="#191970" stroke="#191970" points="93.1964,-44.5001 83.1964,-48 93.1964,-51.5001 93.1964,-44.5001"/>
</g>
<!-- Node459 -->
<g id="node8" class="node">
<title>Node459</title>
<g id="a_node8"><a xlink:href="triangle_8cpp.html#a168edddc256973c655b26f8a00d11e18" target="_top" xlink:title="writepoly">
<polygon fill="#ffffff" stroke="#000000" points="119,-.5 119,-19.5 175,-19.5 175,-.5 119,-.5"/>
<text text-anchor="middle" x="147" y="-7.5" font-family="Helvetica,sans-Serif" font-size="10.00" fill="#000000">writepoly</text>
</a>
</g>
</g>
<!-- Node452&#45;&gt;Node459 -->
<g id="edge8" class="edge">
<title>Node452&#45;&gt;Node459</title>
<path fill="none" stroke="#191970" d="M77.9197,-34.882C91.8733,-29.8561 107.5183,-24.2209 120.3864,-19.5859"/>
<polygon fill="#191970" stroke="#191970" points="76.3443,-31.7292 68.1221,-38.411 78.7165,-38.3151 76.3443,-31.7292"/>
</g>
<!-- Node454 -->
<g id="node3" class="node">
<title>Node454</title>
<g id="a_node3"><a xlink:href="triangle_8hpp.html#a848df2990f66cdbdc9d1ac87f4646527" target="_top" xlink:title="Call Triangle. ">
<polygon fill="#ffffff" stroke="#000000" points="324,-38.5 324,-57.5 386,-57.5 386,-38.5 324,-38.5"/>
<text text-anchor="middle" x="355" y="-45.5" font-family="Helvetica,sans-Serif" font-size="10.00" fill="#000000">triangulate</text>
</a>
</g>
</g>
<!-- Node453&#45;&gt;Node454 -->
<g id="edge2" class="edge">
<title>Node453&#45;&gt;Node454</title>
<path fill="none" stroke="#191970" d="M285.9197,-72.882C299.8733,-67.8561 315.5183,-62.2209 328.3864,-57.5859"/>
<polygon fill="#191970" stroke="#191970" points="284.3443,-69.7292 276.1221,-76.411 286.7165,-76.3151 284.3443,-69.7292"/>
</g>
<!-- Node455 -->
<g id="node4" class="node">
<title>Node455</title>
<g id="a_node4"><a xlink:href="classRiver_1_1Triangle.html#a7bc9c5a5297dee136ab1489a923182dd" target="_top" xlink:title="Generate mesh. ">
<polygon fill="#ffffff" stroke="#000000" points="422,-38.5 422,-57.5 546,-57.5 546,-38.5 422,-38.5"/>
<text text-anchor="middle" x="484" y="-45.5" font-family="Helvetica,sans-Serif" font-size="10.00" fill="#000000">River::Triangle::generate</text>
</a>
</g>
</g>
<!-- Node454&#45;&gt;Node455 -->
<g id="edge3" class="edge">
<title>Node454&#45;&gt;Node455</title>
<path fill="none" stroke="#191970" d="M396.2629,-48C404.4682,-48 413.2527,-48 421.9767,-48"/>
<polygon fill="#191970" stroke="#191970" points="396.2273,-44.5001 386.2273,-48 396.2273,-51.5001 396.2273,-44.5001"/>
</g>
<!-- Node456 -->
<g id="node5" class="node">
<title>Node456</title>
<g id="a_node5"><a xlink:href="main_8cpp.html#a0ddf1224851353fc92bfbff6f499fa97" target="_top" xlink:title="Entry point of RiverSim program. ">
<polygon fill="#ffffff" stroke="#000000" points="582,-38.5 582,-57.5 620,-57.5 620,-38.5 582,-38.5"/>
<text text-anchor="middle" x="601" y="-45.5" font-family="Helvetica,sans-Serif" font-size="10.00" fill="#000000">main</text>
</a>
</g>
</g>
<!-- Node455&#45;&gt;Node456 -->
<g id="edge4" class="edge">
<title>Node455&#45;&gt;Node456</title>
<path fill="none" stroke="#191970" d="M556.5174,-48C565.8253,-48 574.6301,-48 581.912,-48"/>
<polygon fill="#191970" stroke="#191970" points="556.2682,-44.5001 546.2682,-48 556.2682,-51.5001 556.2682,-44.5001"/>
</g>
<!-- Node458 -->
<g id="node7" class="node">
<title>Node458</title>
<g id="a_node7"><a xlink:href="triangle_8cpp.html#a5a654ff6b304f2166c64ffe9183b2995" target="_top" xlink:title="enforcequality">
<polygon fill="#ffffff" stroke="#000000" points="211,-38.5 211,-57.5 288,-57.5 288,-38.5 211,-38.5"/>
<text text-anchor="middle" x="249.5" y="-45.5" font-family="Helvetica,sans-Serif" font-size="10.00" fill="#000000">enforcequality</text>
</a>
</g>
</g>
<!-- Node457&#45;&gt;Node458 -->
<g id="edge6" class="edge">
<title>Node457&#45;&gt;Node458</title>
<path fill="none" stroke="#191970" d="M185.2364,-48C193.5762,-48 202.4084,-48 210.7674,-48"/>
<polygon fill="#191970" stroke="#191970" points="185.0086,-44.5001 175.0086,-48 185.0085,-51.5001 185.0086,-44.5001"/>
</g>
<!-- Node458&#45;&gt;Node454 -->
<g id="edge7" class="edge">
<title>Node458&#45;&gt;Node454</title>
<path fill="none" stroke="#191970" d="M298.2905,-48C307.0043,-48 315.863,-48 323.9082,-48"/>
<polygon fill="#191970" stroke="#191970" points="298.1853,-44.5001 288.1852,-48 298.1852,-51.5001 298.1853,-44.5001"/>
</g>
<!-- Node459&#45;&gt;Node454 -->
<g id="edge9" class="edge">
<title>Node459&#45;&gt;Node454</title>
<path fill="none" stroke="#191970" d="M184.9836,-13.6356C213.5062,-16.7235 253.4322,-21.8077 288,-29 300.1922,-31.5367 313.4195,-35.1079 324.8753,-38.4705"/>
<polygon fill="#191970" stroke="#191970" points="185.3336,-10.1532 175.0223,-12.5881 184.6014,-17.1148 185.3336,-10.1532"/>
</g>
</g>
</svg>
