<?xml version="1.0" encoding="UTF-8" standalone="no"?>
<!DOCTYPE svg PUBLIC "-//W3C//DTD SVG 1.1//EN"
 "http://www.w3.org/Graphics/SVG/1.1/DTD/svg11.dtd">
<!-- Generated by graphviz version 2.40.1 (20161225.0304)
 -->
<!-- Title: initializetrisubpools Pages: 1 -->
<svg width="721pt" height="66pt"
 viewBox="0.00 0.00 721.00 66.00" xmlns="http://www.w3.org/2000/svg" xmlns:xlink="http://www.w3.org/1999/xlink">
<g id="graph0" class="graph" transform="scale(1 1) rotate(0) translate(4 62)">
<title>initializetrisubpools</title>
<polygon fill="#ffffff" stroke="transparent" points="-4,4 -4,-62 717,-62 717,4 -4,4"/>
<!-- Node421 -->
<g id="node1" class="node">
<title>Node421</title>
<polygon fill="#bfbfbf" stroke="#000000" points="0,-19.5 0,-38.5 99,-38.5 99,-19.5 0,-19.5"/>
<text text-anchor="middle" x="49.5" y="-26.5" font-family="Helvetica,sans-Serif" font-size="10.00" fill="#000000">initializetrisubpools</text>
</g>
<!-- Node422 -->
<g id="node2" class="node">
<title>Node422</title>
<g id="a_node2"><a xlink:href="triangle_8cpp.html#ab67faa70960c7c39ee1150ab4d55f0a5" target="_top" xlink:title="delaunay">
<polygon fill="#ffffff" stroke="#000000" points="139.5,-38.5 139.5,-57.5 195.5,-57.5 195.5,-38.5 139.5,-38.5"/>
<text text-anchor="middle" x="167.5" y="-45.5" font-family="Helvetica,sans-Serif" font-size="10.00" fill="#000000">delaunay</text>
</a>
</g>
</g>
<!-- Node421&#45;&gt;Node422 -->
<g id="edge1" class="edge">
<title>Node421&#45;&gt;Node422</title>
<path fill="none" stroke="#191970" d="M109.2545,-38.6215C119.7762,-40.3157 130.2659,-42.0047 139.3848,-43.473"/>
<polygon fill="#191970" stroke="#191970" points="109.6299,-35.1369 99.2006,-37.0026 108.517,-42.0479 109.6299,-35.1369"/>
</g>
<!-- Node427 -->
<g id="node7" class="node">
<title>Node427</title>
<g id="a_node7"><a xlink:href="triangle_8cpp.html#a711adeeb3c28e4f2e3e173d729912c13" target="_top" xlink:title="reconstruct">
<polygon fill="#ffffff" stroke="#000000" points="135,-.5 135,-19.5 200,-19.5 200,-.5 135,-.5"/>
<text text-anchor="middle" x="167.5" y="-7.5" font-family="Helvetica,sans-Serif" font-size="10.00" fill="#000000">reconstruct</text>
</a>
</g>
</g>
<!-- Node421&#45;&gt;Node427 -->
<g id="edge6" class="edge">
<title>Node421&#45;&gt;Node427</title>
<path fill="none" stroke="#191970" d="M109.1978,-19.3876C118.0826,-17.957 126.9462,-16.5298 134.9827,-15.2358"/>
<polygon fill="#191970" stroke="#191970" points="108.517,-15.9521 99.2006,-20.9974 109.6299,-22.8631 108.517,-15.9521"/>
</g>
<!-- Node423 -->
<g id="node3" class="node">
<title>Node423</title>
<g id="a_node3"><a xlink:href="triangle_8hpp.html#a4ca59bf5fe569672944651426b662ba6" target="_top" xlink:title="Call Triangle. ">
<polygon fill="#ffffff" stroke="#000000" points="236,-19.5 236,-38.5 298,-38.5 298,-19.5 236,-19.5"/>
<text text-anchor="middle" x="267" y="-26.5" font-family="Helvetica,sans-Serif" font-size="10.00" fill="#000000">triangulate</text>
</a>
</g>
</g>
<!-- Node422&#45;&gt;Node423 -->
<g id="edge2" class="edge">
<title>Node422&#45;&gt;Node423</title>
<path fill="none" stroke="#191970" d="M205.8111,-40.6843C215.7621,-38.7841 226.3587,-36.7607 235.8885,-34.9409"/>
<polygon fill="#191970" stroke="#191970" points="204.9126,-37.2926 195.7466,-42.6062 206.2256,-44.1683 204.9126,-37.2926"/>
</g>
<!-- Node424 -->
<g id="node4" class="node">
<title>Node424</title>
<g id="a_node4"><a xlink:href="classRiver_1_1Triangle.html#a0dae20b40d446e6009a88543e2c14daf" target="_top" xlink:title="Generate mesh. ">
<polygon fill="#ffffff" stroke="#000000" points="334,-19.5 334,-38.5 458,-38.5 458,-19.5 334,-19.5"/>
<text text-anchor="middle" x="396" y="-26.5" font-family="Helvetica,sans-Serif" font-size="10.00" fill="#000000">River::Triangle::generate</text>
</a>
</g>
</g>
<!-- Node423&#45;&gt;Node424 -->
<g id="edge3" class="edge">
<title>Node423&#45;&gt;Node424</title>
<path fill="none" stroke="#191970" d="M308.2629,-29C316.4682,-29 325.2527,-29 333.9767,-29"/>
<polygon fill="#191970" stroke="#191970" points="308.2273,-25.5001 298.2273,-29 308.2273,-32.5001 308.2273,-25.5001"/>
</g>
<!-- Node425 -->
<g id="node5" class="node">
<title>Node425</title>
<g id="a_node5"><a xlink:href="namespaceRiver.html#af1a3f7c61809dd8032e4ff5920da83cc" target="_top" xlink:title="One step of forward river evolution. ">
<polygon fill="#ffffff" stroke="#000000" points="494,-19.5 494,-38.5 639,-38.5 639,-19.5 494,-19.5"/>
<text text-anchor="middle" x="566.5" y="-26.5" font-family="Helvetica,sans-Serif" font-size="10.00" fill="#000000">River::ForwardRiverEvolution</text>
</a>
</g>
</g>
<!-- Node424&#45;&gt;Node425 -->
<g id="edge4" class="edge">
<title>Node424&#45;&gt;Node425</title>
<path fill="none" stroke="#191970" d="M468.2431,-29C476.7006,-29 485.333,-29 493.7967,-29"/>
<polygon fill="#191970" stroke="#191970" points="468.0368,-25.5001 458.0367,-29 468.0367,-32.5001 468.0368,-25.5001"/>
</g>
<!-- Node426 -->
<g id="node6" class="node">
<title>Node426</title>
<g id="a_node6"><a xlink:href="main_8cpp.html#a0ddf1224851353fc92bfbff6f499fa97" target="_top" xlink:title="Entry point of RiverSim program. ">
<polygon fill="#ffffff" stroke="#000000" points="675,-19.5 675,-38.5 713,-38.5 713,-19.5 675,-19.5"/>
<text text-anchor="middle" x="694" y="-26.5" font-family="Helvetica,sans-Serif" font-size="10.00" fill="#000000">main</text>
</a>
</g>
</g>
<!-- Node425&#45;&gt;Node426 -->
<g id="edge5" class="edge">
<title>Node425&#45;&gt;Node426</title>
<path fill="none" stroke="#191970" d="M649.2526,-29C658.7338,-29 667.5978,-29 674.8947,-29"/>
<polygon fill="#191970" stroke="#191970" points="649.1886,-25.5001 639.1886,-29 649.1885,-32.5001 649.1886,-25.5001"/>
</g>
<!-- Node427&#45;&gt;Node423 -->
<g id="edge7" class="edge">
<title>Node427&#45;&gt;Node423</title>
<path fill="none" stroke="#191970" d="M210.004,-18.1163C218.6284,-19.7632 227.5497,-21.4668 235.7011,-23.0233"/>
<polygon fill="#191970" stroke="#191970" points="210.5591,-14.6592 200.08,-16.2213 209.246,-21.5349 210.5591,-14.6592"/>
</g>
</g>
</svg>
