<?xml version="1.0" encoding="UTF-8" standalone="no"?>
<!DOCTYPE svg PUBLIC "-//W3C//DTD SVG 1.1//EN"
 "http://www.w3.org/Graphics/SVG/1.1/DTD/svg11.dtd">
<!-- Generated by graphviz version 2.40.1 (20161225.0304)
 -->
<!-- Title: triangledeinit Pages: 1 -->
<svg width="411pt" height="28pt"
 viewBox="0.00 0.00 411.00 28.00" xmlns="http://www.w3.org/2000/svg" xmlns:xlink="http://www.w3.org/1999/xlink">
<g id="graph0" class="graph" transform="scale(1 1) rotate(0) translate(4 24)">
<title>triangledeinit</title>
<polygon fill="#ffffff" stroke="transparent" points="-4,4 -4,-24 407,-24 407,4 -4,4"/>
<!-- Node507 -->
<g id="node1" class="node">
<title>Node507</title>
<polygon fill="#bfbfbf" stroke="#000000" points="0,-.5 0,-19.5 71,-19.5 71,-.5 0,-.5"/>
<text text-anchor="middle" x="35.5" y="-7.5" font-family="Helvetica,sans-Serif" font-size="10.00" fill="#000000">triangledeinit</text>
</g>
<!-- Node508 -->
<g id="node2" class="node">
<title>Node508</title>
<g id="a_node2"><a xlink:href="triangle_8hpp.html#a848df2990f66cdbdc9d1ac87f4646527" target="_top" xlink:title="Call Triangle. ">
<polygon fill="#ffffff" stroke="#000000" points="107,-.5 107,-19.5 169,-19.5 169,-.5 107,-.5"/>
<text text-anchor="middle" x="138" y="-7.5" font-family="Helvetica,sans-Serif" font-size="10.00" fill="#000000">triangulate</text>
</a>
</g>
</g>
<!-- Node507&#45;&gt;Node508 -->
<g id="edge1" class="edge">
<title>Node507&#45;&gt;Node508</title>
<path fill="none" stroke="#191970" d="M81.1407,-10C89.8647,-10 98.8081,-10 106.9434,-10"/>
<polygon fill="#191970" stroke="#191970" points="81.0619,-6.5001 71.0619,-10 81.0618,-13.5001 81.0619,-6.5001"/>
</g>
<!-- Node509 -->
<g id="node3" class="node">
<title>Node509</title>
<g id="a_node3"><a xlink:href="classRiver_1_1Triangle.html#a7bc9c5a5297dee136ab1489a923182dd" target="_top" xlink:title="Generate mesh. ">
<polygon fill="#ffffff" stroke="#000000" points="205,-.5 205,-19.5 329,-19.5 329,-.5 205,-.5"/>
<text text-anchor="middle" x="267" y="-7.5" font-family="Helvetica,sans-Serif" font-size="10.00" fill="#000000">River::Triangle::generate</text>
</a>
</g>
</g>
<!-- Node508&#45;&gt;Node509 -->
<g id="edge2" class="edge">
<title>Node508&#45;&gt;Node509</title>
<path fill="none" stroke="#191970" d="M179.2629,-10C187.4682,-10 196.2527,-10 204.9767,-10"/>
<polygon fill="#191970" stroke="#191970" points="179.2273,-6.5001 169.2273,-10 179.2273,-13.5001 179.2273,-6.5001"/>
</g>
<!-- Node510 -->
<g id="node4" class="node">
<title>Node510</title>
<g id="a_node4"><a xlink:href="main_8cpp.html#a0ddf1224851353fc92bfbff6f499fa97" target="_top" xlink:title="Entry point of RiverSim program. ">
<polygon fill="#ffffff" stroke="#000000" points="365,-.5 365,-19.5 403,-19.5 403,-.5 365,-.5"/>
<text text-anchor="middle" x="384" y="-7.5" font-family="Helvetica,sans-Serif" font-size="10.00" fill="#000000">main</text>
</a>
</g>
</g>
<!-- Node509&#45;&gt;Node510 -->
<g id="edge3" class="edge">
<title>Node509&#45;&gt;Node510</title>
<path fill="none" stroke="#191970" d="M339.5174,-10C348.8253,-10 357.6301,-10 364.912,-10"/>
<polygon fill="#191970" stroke="#191970" points="339.2682,-6.5001 329.2682,-10 339.2682,-13.5001 339.2682,-6.5001"/>
</g>
</g>
</svg>
