<?xml version="1.0" encoding="UTF-8" standalone="no"?>
<!DOCTYPE svg PUBLIC "-//W3C//DTD SVG 1.1//EN"
 "http://www.w3.org/Graphics/SVG/1.1/DTD/svg11.dtd">
<!-- Generated by graphviz version 2.40.1 (20161225.0304)
 -->
<!-- Title: preciselocate Pages: 1 -->
<svg width="505pt" height="78pt"
 viewBox="0.00 0.00 505.00 77.50" xmlns="http://www.w3.org/2000/svg" xmlns:xlink="http://www.w3.org/1999/xlink">
<g id="graph0" class="graph" transform="scale(1 1) rotate(0) translate(4 73.5)">
<title>preciselocate</title>
<polygon fill="#ffffff" stroke="transparent" points="-4,4 -4,-73.5 501,-73.5 501,4 -4,4"/>
<!-- Node945 -->
<g id="node1" class="node">
<title>Node945</title>
<polygon fill="#bfbfbf" stroke="#000000" points="0,-28 0,-47 74,-47 74,-28 0,-28"/>
<text text-anchor="middle" x="37" y="-35" font-family="Helvetica,sans-Serif" font-size="10.00" fill="#000000">preciselocate</text>
</g>
<!-- Node946 -->
<g id="node2" class="node">
<title>Node946</title>
<g id="a_node2"><a xlink:href="triangle_8cpp.html#adbb7ef8fc2a92efceb7c1c152fbd22f1" target="_top" xlink:title="counterclockwise">
<polygon fill="#ffffff" stroke="#000000" points="110,-28 110,-47 202,-47 202,-28 110,-28"/>
<text text-anchor="middle" x="156" y="-35" font-family="Helvetica,sans-Serif" font-size="10.00" fill="#000000">counterclockwise</text>
</a>
</g>
</g>
<!-- Node945&#45;&gt;Node946 -->
<g id="edge1" class="edge">
<title>Node945&#45;&gt;Node946</title>
<path fill="none" stroke="#191970" d="M74,-37.5C82.1405,-37.5 90.9399,-37.5 99.6491,-37.5"/>
<polygon fill="#191970" stroke="#191970" points="99.7866,-41.0001 109.7866,-37.5 99.7865,-34.0001 99.7866,-41.0001"/>
</g>
<!-- Node947 -->
<g id="node3" class="node">
<title>Node947</title>
<g id="a_node3"><a xlink:href="triangle_8cpp.html#abd5587da82afca7f6403c3ec3d17139a" target="_top" xlink:title="counterclockwiseadapt">
<polygon fill="#ffffff" stroke="#000000" points="238,-28 238,-47 354,-47 354,-28 238,-28"/>
<text text-anchor="middle" x="296" y="-35" font-family="Helvetica,sans-Serif" font-size="10.00" fill="#000000">counterclockwiseadapt</text>
</a>
</g>
</g>
<!-- Node946&#45;&gt;Node947 -->
<g id="edge2" class="edge">
<title>Node946&#45;&gt;Node947</title>
<path fill="none" stroke="#191970" d="M202.2292,-37.5C210.3581,-37.5 218.9723,-37.5 227.5553,-37.5"/>
<polygon fill="#191970" stroke="#191970" points="227.5858,-41.0001 237.5858,-37.5 227.5857,-34.0001 227.5858,-41.0001"/>
</g>
<!-- Node948 -->
<g id="node4" class="node">
<title>Node948</title>
<g id="a_node4"><a xlink:href="triangle_8cpp.html#a3487d9f90ea72da543d5d38b3dab1fbc" target="_top" xlink:title="estimate">
<polygon fill="#ffffff" stroke="#000000" points="416.5,-50 416.5,-69 470.5,-69 470.5,-50 416.5,-50"/>
<text text-anchor="middle" x="443.5" y="-57" font-family="Helvetica,sans-Serif" font-size="10.00" fill="#000000">estimate</text>
</a>
</g>
</g>
<!-- Node947&#45;&gt;Node948 -->
<g id="edge3" class="edge">
<title>Node947&#45;&gt;Node948</title>
<path fill="none" stroke="#191970" d="M354.2959,-46.195C371.8667,-48.8157 390.6629,-51.6192 406.4486,-53.9737"/>
<polygon fill="#191970" stroke="#191970" points="405.9373,-57.4361 416.3442,-55.4496 406.97,-50.5126 405.9373,-57.4361"/>
</g>
<!-- Node949 -->
<g id="node5" class="node">
<title>Node949</title>
<g id="a_node5"><a xlink:href="triangle_8cpp.html#a37646a7e0014e10c612e946bc95aeeea" target="_top" xlink:title="fast_expansion_sum\l_zeroelim">
<polygon fill="#ffffff" stroke="#000000" points="390,-.5 390,-30.5 497,-30.5 497,-.5 390,-.5"/>
<text text-anchor="start" x="398" y="-18.5" font-family="Helvetica,sans-Serif" font-size="10.00" fill="#000000">fast_expansion_sum</text>
<text text-anchor="middle" x="443.5" y="-7.5" font-family="Helvetica,sans-Serif" font-size="10.00" fill="#000000">_zeroelim</text>
</a>
</g>
</g>
<!-- Node947&#45;&gt;Node949 -->
<g id="edge4" class="edge">
<title>Node947&#45;&gt;Node949</title>
<path fill="none" stroke="#191970" d="M354.2959,-28.805C362.746,-27.5447 371.4795,-26.242 380.0252,-24.9674"/>
<polygon fill="#191970" stroke="#191970" points="380.5685,-28.4252 389.9428,-23.4882 379.5358,-21.5018 380.5685,-28.4252"/>
</g>
</g>
</svg>
