<?xml version="1.0" encoding="UTF-8" standalone="no"?>
<!DOCTYPE svg PUBLIC "-//W3C//DTD SVG 1.1//EN"
 "http://www.w3.org/Graphics/SVG/1.1/DTD/svg11.dtd">
<!-- Generated by graphviz version 2.40.1 (20161225.0304)
 -->
<!-- Title: vertexdealloc Pages: 1 -->
<svg width="666pt" height="104pt"
 viewBox="0.00 0.00 666.00 104.00" xmlns="http://www.w3.org/2000/svg" xmlns:xlink="http://www.w3.org/1999/xlink">
<g id="graph0" class="graph" transform="scale(1 1) rotate(0) translate(4 100)">
<title>vertexdealloc</title>
<polygon fill="#ffffff" stroke="transparent" points="-4,4 -4,-100 662,-100 662,4 -4,4"/>
<!-- Node487 -->
<g id="node1" class="node">
<title>Node487</title>
<polygon fill="#bfbfbf" stroke="#000000" points="0,-38.5 0,-57.5 74,-57.5 74,-38.5 0,-38.5"/>
<text text-anchor="middle" x="37" y="-45.5" font-family="Helvetica,sans-Serif" font-size="10.00" fill="#000000">vertexdealloc</text>
</g>
<!-- Node488 -->
<g id="node2" class="node">
<title>Node488</title>
<g id="a_node2"><a xlink:href="triangle_8cpp.html#a9a6911e4ef926cd4546bb41819b1c8c5" target="_top" xlink:title="deletevertex">
<polygon fill="#ffffff" stroke="#000000" points="110,-38.5 110,-57.5 180,-57.5 180,-38.5 110,-38.5"/>
<text text-anchor="middle" x="145" y="-45.5" font-family="Helvetica,sans-Serif" font-size="10.00" fill="#000000">deletevertex</text>
</a>
</g>
</g>
<!-- Node487&#45;&gt;Node488 -->
<g id="edge1" class="edge">
<title>Node487&#45;&gt;Node488</title>
<path fill="none" stroke="#191970" d="M84.1676,-48C92.8259,-48 101.7223,-48 109.9472,-48"/>
<polygon fill="#191970" stroke="#191970" points="84.1675,-44.5001 74.1675,-48 84.1674,-51.5001 84.1675,-44.5001"/>
</g>
<!-- Node495 -->
<g id="node7" class="node">
<title>Node495</title>
<g id="a_node7"><a xlink:href="triangle_8cpp.html#a711adeeb3c28e4f2e3e173d729912c13" target="_top" xlink:title="reconstruct">
<polygon fill="#ffffff" stroke="#000000" points="219,-.5 219,-19.5 284,-19.5 284,-.5 219,-.5"/>
<text text-anchor="middle" x="251.5" y="-7.5" font-family="Helvetica,sans-Serif" font-size="10.00" fill="#000000">reconstruct</text>
</a>
</g>
</g>
<!-- Node487&#45;&gt;Node495 -->
<g id="edge6" class="edge">
<title>Node487&#45;&gt;Node495</title>
<path fill="none" stroke="#191970" d="M80.1489,-35.8466C89.9139,-33.3544 100.2721,-30.9118 110,-29 146.9683,-21.7349 189.921,-16.3988 218.7189,-13.2623"/>
<polygon fill="#191970" stroke="#191970" points="79.0259,-32.5226 70.2387,-38.4417 80.7992,-39.2943 79.0259,-32.5226"/>
</g>
<!-- Node496 -->
<g id="node8" class="node">
<title>Node496</title>
<g id="a_node8"><a xlink:href="triangle_8cpp.html#a48fc63d369d988c08cbe8ab40f0b8af5" target="_top" xlink:title="splittriangle">
<polygon fill="#ffffff" stroke="#000000" points="112,-76.5 112,-95.5 178,-95.5 178,-76.5 112,-76.5"/>
<text text-anchor="middle" x="145" y="-83.5" font-family="Helvetica,sans-Serif" font-size="10.00" fill="#000000">splittriangle</text>
</a>
</g>
</g>
<!-- Node487&#45;&gt;Node496 -->
<g id="edge8" class="edge">
<title>Node487&#45;&gt;Node496</title>
<path fill="none" stroke="#191970" d="M73.8672,-60.9718C88.2558,-66.0344 104.4548,-71.7341 117.7558,-76.4141"/>
<polygon fill="#191970" stroke="#191970" points="74.8478,-57.6065 64.253,-57.589 72.5244,-64.2097 74.8478,-57.6065"/>
</g>
<!-- Node489 -->
<g id="node3" class="node">
<title>Node489</title>
<g id="a_node3"><a xlink:href="triangle_8cpp.html#adca37fc9e90f78c9ae794662de5428bd" target="_top" xlink:title="splitencsegs">
<polygon fill="#ffffff" stroke="#000000" points="216,-38.5 216,-57.5 287,-57.5 287,-38.5 216,-38.5"/>
<text text-anchor="middle" x="251.5" y="-45.5" font-family="Helvetica,sans-Serif" font-size="10.00" fill="#000000">splitencsegs</text>
</a>
</g>
</g>
<!-- Node488&#45;&gt;Node489 -->
<g id="edge2" class="edge">
<title>Node488&#45;&gt;Node489</title>
<path fill="none" stroke="#191970" d="M190.2997,-48C198.7666,-48 207.5079,-48 215.6411,-48"/>
<polygon fill="#191970" stroke="#191970" points="190.1673,-44.5001 180.1672,-48 190.1672,-51.5001 190.1673,-44.5001"/>
</g>
<!-- Node490 -->
<g id="node4" class="node">
<title>Node490</title>
<g id="a_node4"><a xlink:href="triangle_8cpp.html#a5a654ff6b304f2166c64ffe9183b2995" target="_top" xlink:title="enforcequality">
<polygon fill="#ffffff" stroke="#000000" points="323,-38.5 323,-57.5 400,-57.5 400,-38.5 323,-38.5"/>
<text text-anchor="middle" x="361.5" y="-45.5" font-family="Helvetica,sans-Serif" font-size="10.00" fill="#000000">enforcequality</text>
</a>
</g>
</g>
<!-- Node489&#45;&gt;Node490 -->
<g id="edge3" class="edge">
<title>Node489&#45;&gt;Node490</title>
<path fill="none" stroke="#191970" d="M297.3765,-48C305.876,-48 314.6746,-48 322.9296,-48"/>
<polygon fill="#191970" stroke="#191970" points="297.2139,-44.5001 287.2138,-48 297.2138,-51.5001 297.2139,-44.5001"/>
</g>
<!-- Node491 -->
<g id="node5" class="node">
<title>Node491</title>
<g id="a_node5"><a xlink:href="triangle_8hpp.html#a4ca59bf5fe569672944651426b662ba6" target="_top" xlink:title="Call Triangle. ">
<polygon fill="#ffffff" stroke="#000000" points="436,-19.5 436,-38.5 498,-38.5 498,-19.5 436,-19.5"/>
<text text-anchor="middle" x="467" y="-26.5" font-family="Helvetica,sans-Serif" font-size="10.00" fill="#000000">triangulate</text>
</a>
</g>
</g>
<!-- Node490&#45;&gt;Node491 -->
<g id="edge4" class="edge">
<title>Node490&#45;&gt;Node491</title>
<path fill="none" stroke="#191970" d="M410.2905,-39.2131C419.0043,-37.6438 427.863,-36.0484 435.9082,-34.5995"/>
<polygon fill="#191970" stroke="#191970" points="409.4065,-35.8159 400.1852,-41.033 410.6473,-42.7051 409.4065,-35.8159"/>
</g>
<!-- Node492 -->
<g id="node6" class="node">
<title>Node492</title>
<g id="a_node6"><a xlink:href="classRiver_1_1Triangle.html#a0dae20b40d446e6009a88543e2c14daf" target="_top" xlink:title="Generate mesh. ">
<polygon fill="#ffffff" stroke="#ff0000" points="534,-19.5 534,-38.5 658,-38.5 658,-19.5 534,-19.5"/>
<text text-anchor="middle" x="596" y="-26.5" font-family="Helvetica,sans-Serif" font-size="10.00" fill="#000000">River::Triangle::generate</text>
</a>
</g>
</g>
<!-- Node491&#45;&gt;Node492 -->
<g id="edge5" class="edge">
<title>Node491&#45;&gt;Node492</title>
<path fill="none" stroke="#191970" d="M508.2629,-29C516.4682,-29 525.2527,-29 533.9767,-29"/>
<polygon fill="#191970" stroke="#191970" points="508.2273,-25.5001 498.2273,-29 508.2273,-32.5001 508.2273,-25.5001"/>
</g>
<!-- Node495&#45;&gt;Node491 -->
<g id="edge7" class="edge">
<title>Node495&#45;&gt;Node491</title>
<path fill="none" stroke="#191970" d="M294.3623,-13.779C336.0786,-17.457 398.4721,-22.9581 435.7166,-26.2418"/>
<polygon fill="#191970" stroke="#191970" points="294.4986,-10.2776 284.2298,-12.8857 293.8837,-17.2505 294.4986,-10.2776"/>
</g>
<!-- Node496&#45;&gt;Node490 -->
<g id="edge9" class="edge">
<title>Node496&#45;&gt;Node490</title>
<path fill="none" stroke="#191970" d="M188.1323,-81.5537C216.3881,-78.3157 254.0522,-73.383 287,-67 300.3665,-64.4105 314.9086,-60.8682 327.5676,-57.5435"/>
<polygon fill="#191970" stroke="#191970" points="187.7221,-78.0776 178.1741,-82.6695 188.5016,-85.0341 187.7221,-78.0776"/>
</g>
</g>
</svg>
