<?xml version="1.0" encoding="UTF-8" standalone="no"?>
<!DOCTYPE svg PUBLIC "-//W3C//DTD SVG 1.1//EN"
 "http://www.w3.org/Graphics/SVG/1.1/DTD/svg11.dtd">
<!-- Generated by graphviz version 2.40.1 (20161225.0304)
 -->
<!-- Title: divconqdelaunay Pages: 1 -->
<svg width="855pt" height="360pt"
 viewBox="0.00 0.00 855.00 360.00" xmlns="http://www.w3.org/2000/svg" xmlns:xlink="http://www.w3.org/1999/xlink">
<g id="graph0" class="graph" transform="scale(1 1) rotate(0) translate(4 356)">
<title>divconqdelaunay</title>
<polygon fill="#ffffff" stroke="transparent" points="-4,4 -4,-356 851,-356 851,4 -4,4"/>
<!-- Node1293 -->
<g id="node1" class="node">
<title>Node1293</title>
<polygon fill="#bfbfbf" stroke="#000000" points="0,-133.5 0,-152.5 89,-152.5 89,-133.5 0,-133.5"/>
<text text-anchor="middle" x="44.5" y="-140.5" font-family="Helvetica,sans-Serif" font-size="10.00" fill="#000000">divconqdelaunay</text>
</g>
<!-- Node1294 -->
<g id="node2" class="node">
<title>Node1294</title>
<g id="a_node2"><a xlink:href="triangle_8cpp.html#a5f51f1d3957615b2c84a91fd9f5f09bf" target="_top" xlink:title="trimalloc">
<polygon fill="#ffffff" stroke="#000000" points="678,-323.5 678,-342.5 731,-342.5 731,-323.5 678,-323.5"/>
<text text-anchor="middle" x="704.5" y="-330.5" font-family="Helvetica,sans-Serif" font-size="10.00" fill="#000000">trimalloc</text>
</a>
</g>
</g>
<!-- Node1293&#45;&gt;Node1294 -->
<g id="edge1" class="edge">
<title>Node1293&#45;&gt;Node1294</title>
<path fill="none" stroke="#191970" d="M49.2628,-152.5234C70.4559,-193.4099 160.5816,-352 283.5,-352 283.5,-352 283.5,-352 405,-352 499.7115,-352 610.9329,-342.4196 667.4602,-336.8647"/>
<polygon fill="#191970" stroke="#191970" points="668.0858,-340.3198 677.689,-335.8445 667.391,-333.3543 668.0858,-340.3198"/>
</g>
<!-- Node1296 -->
<g id="node4" class="node">
<title>Node1296</title>
<g id="a_node4"><a xlink:href="triangle_8cpp.html#ac497210bc9192d88ed80659833ba5f55" target="_top" xlink:title="traversalinit">
<polygon fill="#ffffff" stroke="#000000" points="133,-190.5 133,-209.5 200,-209.5 200,-190.5 133,-190.5"/>
<text text-anchor="middle" x="166.5" y="-197.5" font-family="Helvetica,sans-Serif" font-size="10.00" fill="#000000">traversalinit</text>
</a>
</g>
</g>
<!-- Node1293&#45;&gt;Node1296 -->
<g id="edge3" class="edge">
<title>Node1293&#45;&gt;Node1296</title>
<path fill="none" stroke="#191970" d="M64.6499,-152.5916C80.9143,-160.3144 104.3994,-171.4223 125,-181 128.6152,-182.6808 132.4123,-184.4348 136.1802,-186.1683"/>
<polygon fill="#191970" stroke="#191970" points="134.8172,-189.3937 145.3659,-190.3819 137.7358,-183.0312 134.8172,-189.3937"/>
</g>
<!-- Node1297 -->
<g id="node5" class="node">
<title>Node1297</title>
<g id="a_node5"><a xlink:href="triangle_8cpp.html#a51f4784502224728d80a16b668f17014" target="_top" xlink:title="vertextraverse">
<polygon fill="#ffffff" stroke="#000000" points="127,-152.5 127,-171.5 206,-171.5 206,-152.5 127,-152.5"/>
<text text-anchor="middle" x="166.5" y="-159.5" font-family="Helvetica,sans-Serif" font-size="10.00" fill="#000000">vertextraverse</text>
</a>
</g>
</g>
<!-- Node1293&#45;&gt;Node1297 -->
<g id="edge4" class="edge">
<title>Node1293&#45;&gt;Node1297</title>
<path fill="none" stroke="#191970" d="M89.2355,-149.967C98.1294,-151.3521 107.5208,-152.8147 116.5754,-154.2249"/>
<polygon fill="#191970" stroke="#191970" points="116.1912,-157.7071 126.6107,-155.7877 117.2684,-150.7905 116.1912,-157.7071"/>
</g>
<!-- Node1299 -->
<g id="node7" class="node">
<title>Node1299</title>
<g id="a_node7"><a xlink:href="triangle_8cpp.html#abaec7b741a89fa47c19684939642cf5d" target="_top" xlink:title="vertexsort">
<polygon fill="#ffffff" stroke="#000000" points="253.5,-76.5 253.5,-95.5 313.5,-95.5 313.5,-76.5 253.5,-76.5"/>
<text text-anchor="middle" x="283.5" y="-83.5" font-family="Helvetica,sans-Serif" font-size="10.00" fill="#000000">vertexsort</text>
</a>
</g>
</g>
<!-- Node1293&#45;&gt;Node1299 -->
<g id="edge6" class="edge">
<title>Node1293&#45;&gt;Node1299</title>
<path fill="none" stroke="#191970" d="M60.8438,-133.3567C76.6881,-124.4816 101.6824,-111.7094 125,-105 164.2936,-93.6937 210.9388,-89.1087 243.4119,-87.2531"/>
<polygon fill="#191970" stroke="#191970" points="243.6214,-90.7471 253.4298,-86.7415 243.2643,-83.7562 243.6214,-90.7471"/>
</g>
<!-- Node1301 -->
<g id="node9" class="node">
<title>Node1301</title>
<g id="a_node9"><a xlink:href="triangle_8cpp.html#a41d2f44eb196388d68578697e33457d9" target="_top" xlink:title="alternateaxes">
<polygon fill="#ffffff" stroke="#000000" points="129,-114.5 129,-133.5 204,-133.5 204,-114.5 129,-114.5"/>
<text text-anchor="middle" x="166.5" y="-121.5" font-family="Helvetica,sans-Serif" font-size="10.00" fill="#000000">alternateaxes</text>
</a>
</g>
</g>
<!-- Node1293&#45;&gt;Node1301 -->
<g id="edge8" class="edge">
<title>Node1293&#45;&gt;Node1301</title>
<path fill="none" stroke="#191970" d="M89.2355,-136.033C98.9263,-134.5238 109.2079,-132.9225 119.0007,-131.3974"/>
<polygon fill="#191970" stroke="#191970" points="119.6414,-134.8399 128.9837,-129.8427 118.5642,-127.9233 119.6414,-134.8399"/>
</g>
<!-- Node1303 -->
<g id="node11" class="node">
<title>Node1303</title>
<g id="a_node11"><a xlink:href="triangle_8cpp.html#ae64549179195e9fea8a3589a003e44ac" target="_top" xlink:title="divconqrecurse">
<polygon fill="#ffffff" stroke="#000000" points="125,-228.5 125,-247.5 208,-247.5 208,-228.5 125,-228.5"/>
<text text-anchor="middle" x="166.5" y="-235.5" font-family="Helvetica,sans-Serif" font-size="10.00" fill="#000000">divconqrecurse</text>
</a>
</g>
</g>
<!-- Node1293&#45;&gt;Node1303 -->
<g id="edge11" class="edge">
<title>Node1293&#45;&gt;Node1303</title>
<path fill="none" stroke="#191970" d="M53.0618,-152.9635C66.9171,-168.6211 95.6729,-199.2362 125,-219 127.5463,-220.716 130.2726,-222.3478 133.0661,-223.8817"/>
<polygon fill="#191970" stroke="#191970" points="131.5749,-227.0495 142.0794,-228.4302 134.7287,-220.8002 131.5749,-227.0495"/>
</g>
<!-- Node1315 -->
<g id="node23" class="node">
<title>Node1315</title>
<g id="a_node23"><a xlink:href="triangle_8cpp.html#a3b29a8b4c5ac87eff6c5b27e7e0c43c0" target="_top" xlink:title="trifree">
<polygon fill="#ffffff" stroke="#000000" points="146,-38.5 146,-57.5 187,-57.5 187,-38.5 146,-38.5"/>
<text text-anchor="middle" x="166.5" y="-45.5" font-family="Helvetica,sans-Serif" font-size="10.00" fill="#000000">trifree</text>
</a>
</g>
</g>
<!-- Node1293&#45;&gt;Node1315 -->
<g id="edge29" class="edge">
<title>Node1293&#45;&gt;Node1315</title>
<path fill="none" stroke="#191970" d="M54.3721,-133.1214C69.0339,-118.7307 97.7695,-91.5863 125,-72 129.5607,-68.7196 134.6016,-65.5005 139.5523,-62.5385"/>
<polygon fill="#191970" stroke="#191970" points="141.3287,-65.5544 148.2431,-57.5268 137.8318,-59.4904 141.3287,-65.5544"/>
</g>
<!-- Node1316 -->
<g id="node24" class="node">
<title>Node1316</title>
<g id="a_node24"><a xlink:href="triangle_8cpp.html#a98b88028b30bc1dd2a3878ed06ae144a" target="_top" xlink:title="removeghosts">
<polygon fill="#ffffff" stroke="#000000" points="127.5,-.5 127.5,-19.5 205.5,-19.5 205.5,-.5 127.5,-.5"/>
<text text-anchor="middle" x="166.5" y="-7.5" font-family="Helvetica,sans-Serif" font-size="10.00" fill="#000000">removeghosts</text>
</a>
</g>
</g>
<!-- Node1293&#45;&gt;Node1316 -->
<g id="edge30" class="edge">
<title>Node1293&#45;&gt;Node1316</title>
<path fill="none" stroke="#191970" d="M49.0176,-133.4635C59.5521,-112.1181 87.7094,-59.944 125,-29 126.7837,-27.5199 128.7015,-26.13 130.6996,-24.829"/>
<polygon fill="#191970" stroke="#191970" points="132.8171,-27.6529 139.8061,-19.6902 129.377,-21.5565 132.8171,-27.6529"/>
</g>
<!-- Node1295 -->
<g id="node3" class="node">
<title>Node1295</title>
<g id="a_node3"><a xlink:href="triangle_8cpp.html#a648abfc70d158485620dbcb9aa990178" target="_top" xlink:title="triexit">
<polygon fill="#ffffff" stroke="#000000" points="806,-323.5 806,-342.5 847,-342.5 847,-323.5 806,-323.5"/>
<text text-anchor="middle" x="826.5" y="-330.5" font-family="Helvetica,sans-Serif" font-size="10.00" fill="#000000">triexit</text>
</a>
</g>
</g>
<!-- Node1294&#45;&gt;Node1295 -->
<g id="edge2" class="edge">
<title>Node1294&#45;&gt;Node1295</title>
<path fill="none" stroke="#191970" d="M731.2734,-333C750.2994,-333 775.8935,-333 795.7563,-333"/>
<polygon fill="#191970" stroke="#191970" points="795.8389,-336.5001 805.8389,-333 795.8388,-329.5001 795.8389,-336.5001"/>
</g>
<!-- Node1298 -->
<g id="node6" class="node">
<title>Node1298</title>
<g id="a_node6"><a xlink:href="triangle_8cpp.html#a908560980328e10c897c5c34bb733e9d" target="_top" xlink:title="traverse">
<polygon fill="#ffffff" stroke="#000000" points="257.5,-152.5 257.5,-171.5 309.5,-171.5 309.5,-152.5 257.5,-152.5"/>
<text text-anchor="middle" x="283.5" y="-159.5" font-family="Helvetica,sans-Serif" font-size="10.00" fill="#000000">traverse</text>
</a>
</g>
</g>
<!-- Node1297&#45;&gt;Node1298 -->
<g id="edge5" class="edge">
<title>Node1297&#45;&gt;Node1298</title>
<path fill="none" stroke="#191970" d="M206.1109,-162C219.3977,-162 234.1408,-162 247.1641,-162"/>
<polygon fill="#191970" stroke="#191970" points="247.1792,-165.5001 257.1791,-162 247.1791,-158.5001 247.1792,-165.5001"/>
</g>
<!-- Node1300 -->
<g id="node8" class="node">
<title>Node1300</title>
<g id="a_node8"><a xlink:href="triangle_8cpp.html#abafde1fa8bfde5489dced6485939a19f" target="_top" xlink:title="randomnation">
<polygon fill="#ffffff" stroke="#000000" points="367.5,-95.5 367.5,-114.5 442.5,-114.5 442.5,-95.5 367.5,-95.5"/>
<text text-anchor="middle" x="405" y="-102.5" font-family="Helvetica,sans-Serif" font-size="10.00" fill="#000000">randomnation</text>
</a>
</g>
</g>
<!-- Node1299&#45;&gt;Node1300 -->
<g id="edge7" class="edge">
<title>Node1299&#45;&gt;Node1300</title>
<path fill="none" stroke="#191970" d="M313.5337,-90.6966C326.7801,-92.7681 342.6706,-95.253 357.4628,-97.5662"/>
<polygon fill="#191970" stroke="#191970" points="357.0613,-101.0459 367.482,-99.133 358.1429,-94.1299 357.0613,-101.0459"/>
</g>
<!-- Node1302 -->
<g id="node10" class="node">
<title>Node1302</title>
<g id="a_node10"><a xlink:href="triangle_8cpp.html#a29d28c0d5ce8c9f887072078d8c6235c" target="_top" xlink:title="vertexmedian">
<polygon fill="#ffffff" stroke="#000000" points="246,-114.5 246,-133.5 321,-133.5 321,-114.5 246,-114.5"/>
<text text-anchor="middle" x="283.5" y="-121.5" font-family="Helvetica,sans-Serif" font-size="10.00" fill="#000000">vertexmedian</text>
</a>
</g>
</g>
<!-- Node1301&#45;&gt;Node1302 -->
<g id="edge9" class="edge">
<title>Node1301&#45;&gt;Node1302</title>
<path fill="none" stroke="#191970" d="M204.1636,-124C214.1839,-124 225.1425,-124 235.6294,-124"/>
<polygon fill="#191970" stroke="#191970" points="235.907,-127.5001 245.907,-124 235.907,-120.5001 235.907,-127.5001"/>
</g>
<!-- Node1302&#45;&gt;Node1300 -->
<g id="edge10" class="edge">
<title>Node1302&#45;&gt;Node1300</title>
<path fill="none" stroke="#191970" d="M321.2773,-118.0924C332.5919,-116.3231 345.1532,-114.3588 357.0317,-112.5012"/>
<polygon fill="#191970" stroke="#191970" points="357.9069,-115.907 367.246,-110.9039 356.8253,-108.991 357.9069,-115.907"/>
</g>
<!-- Node1304 -->
<g id="node12" class="node">
<title>Node1304</title>
<g id="a_node12"><a xlink:href="triangle_8cpp.html#a5f18f6286348f31f222aedb01e8516d4" target="_top" xlink:title="maketriangle">
<polygon fill="#ffffff" stroke="#000000" points="369,-304.5 369,-323.5 441,-323.5 441,-304.5 369,-304.5"/>
<text text-anchor="middle" x="405" y="-311.5" font-family="Helvetica,sans-Serif" font-size="10.00" fill="#000000">maketriangle</text>
</a>
</g>
</g>
<!-- Node1303&#45;&gt;Node1304 -->
<g id="edge12" class="edge">
<title>Node1303&#45;&gt;Node1304</title>
<path fill="none" stroke="#191970" d="M183.2583,-247.5856C198.6412,-256.0496 222.2735,-268.2208 244,-276 281.6949,-289.4967 326.0812,-299.5629 358.6919,-305.9322"/>
<polygon fill="#191970" stroke="#191970" points="358.3637,-309.4327 368.8427,-307.87 359.6763,-302.5569 358.3637,-309.4327"/>
</g>
<!-- Node1306 -->
<g id="node14" class="node">
<title>Node1306</title>
<g id="a_node14"><a xlink:href="triangle_8cpp.html#a62ccb7c855c68af7a6918e23ccb158e6" target="_top" xlink:title="printtriangle">
<polygon fill="#ffffff" stroke="#000000" points="371.5,-266.5 371.5,-285.5 438.5,-285.5 438.5,-266.5 371.5,-266.5"/>
<text text-anchor="middle" x="405" y="-273.5" font-family="Helvetica,sans-Serif" font-size="10.00" fill="#000000">printtriangle</text>
</a>
</g>
</g>
<!-- Node1303&#45;&gt;Node1306 -->
<g id="edge15" class="edge">
<title>Node1303&#45;&gt;Node1306</title>
<path fill="none" stroke="#191970" d="M201.4121,-247.5263C214.6708,-250.8885 229.9589,-254.4603 244,-257 283.3612,-264.1196 328.6388,-269.19 361.1329,-272.2922"/>
<polygon fill="#191970" stroke="#191970" points="360.9286,-275.7882 371.21,-273.2303 361.5775,-268.8183 360.9286,-275.7882"/>
</g>
<!-- Node1307 -->
<g id="node15" class="node">
<title>Node1307</title>
<g id="a_node15"><a xlink:href="triangle_8cpp.html#adbb7ef8fc2a92efceb7c1c152fbd22f1" target="_top" xlink:title="counterclockwise">
<polygon fill="#ffffff" stroke="#000000" points="359,-190.5 359,-209.5 451,-209.5 451,-190.5 359,-190.5"/>
<text text-anchor="middle" x="405" y="-197.5" font-family="Helvetica,sans-Serif" font-size="10.00" fill="#000000">counterclockwise</text>
</a>
</g>
</g>
<!-- Node1303&#45;&gt;Node1307 -->
<g id="edge16" class="edge">
<title>Node1303&#45;&gt;Node1307</title>
<path fill="none" stroke="#191970" d="M201.4121,-228.4737C214.6708,-225.1115 229.9589,-221.5397 244,-219 278.5875,-212.7439 317.7432,-208.07 348.7794,-204.9235"/>
<polygon fill="#191970" stroke="#191970" points="349.3683,-208.3825 358.9751,-203.9149 348.6791,-201.4165 349.3683,-208.3825"/>
</g>
<!-- Node1311 -->
<g id="node19" class="node">
<title>Node1311</title>
<g id="a_node19"><a xlink:href="triangle_8cpp.html#a8b98b5137610f709b12bc0f9de701534" target="_top" xlink:title="mergehulls">
<polygon fill="#ffffff" stroke="#000000" points="251.5,-228.5 251.5,-247.5 315.5,-247.5 315.5,-228.5 251.5,-228.5"/>
<text text-anchor="middle" x="283.5" y="-235.5" font-family="Helvetica,sans-Serif" font-size="10.00" fill="#000000">mergehulls</text>
</a>
</g>
</g>
<!-- Node1303&#45;&gt;Node1311 -->
<g id="edge20" class="edge">
<title>Node1303&#45;&gt;Node1311</title>
<path fill="none" stroke="#191970" d="M208.0793,-238C218.8306,-238 230.4162,-238 241.2037,-238"/>
<polygon fill="#191970" stroke="#191970" points="241.2486,-241.5001 251.2486,-238 241.2486,-234.5001 241.2486,-241.5001"/>
</g>
<!-- Node1305 -->
<g id="node13" class="node">
<title>Node1305</title>
<g id="a_node13"><a xlink:href="triangle_8cpp.html#ab1760445583959132ffd9998372c9aac" target="_top" xlink:title="poolalloc">
<polygon fill="#ffffff" stroke="#000000" points="517.5,-304.5 517.5,-323.5 572.5,-323.5 572.5,-304.5 517.5,-304.5"/>
<text text-anchor="middle" x="545" y="-311.5" font-family="Helvetica,sans-Serif" font-size="10.00" fill="#000000">poolalloc</text>
</a>
</g>
</g>
<!-- Node1304&#45;&gt;Node1305 -->
<g id="edge13" class="edge">
<title>Node1304&#45;&gt;Node1305</title>
<path fill="none" stroke="#191970" d="M441.0535,-314C461.337,-314 486.638,-314 507.1997,-314"/>
<polygon fill="#191970" stroke="#191970" points="507.4685,-317.5001 517.4684,-314 507.4684,-310.5001 507.4685,-317.5001"/>
</g>
<!-- Node1305&#45;&gt;Node1294 -->
<g id="edge14" class="edge">
<title>Node1305&#45;&gt;Node1294</title>
<path fill="none" stroke="#191970" d="M572.7828,-317.3095C599.0944,-320.4439 638.7734,-325.1705 667.7038,-328.6168"/>
<polygon fill="#191970" stroke="#191970" points="667.4875,-332.1157 677.8314,-329.8232 668.3156,-325.1648 667.4875,-332.1157"/>
</g>
<!-- Node1308 -->
<g id="node16" class="node">
<title>Node1308</title>
<g id="a_node16"><a xlink:href="triangle_8cpp.html#abd5587da82afca7f6403c3ec3d17139a" target="_top" xlink:title="counterclockwiseadapt">
<polygon fill="#ffffff" stroke="#000000" points="487,-190.5 487,-209.5 603,-209.5 603,-190.5 487,-190.5"/>
<text text-anchor="middle" x="545" y="-197.5" font-family="Helvetica,sans-Serif" font-size="10.00" fill="#000000">counterclockwiseadapt</text>
</a>
</g>
</g>
<!-- Node1307&#45;&gt;Node1308 -->
<g id="edge17" class="edge">
<title>Node1307&#45;&gt;Node1308</title>
<path fill="none" stroke="#191970" d="M451.2292,-200C459.3581,-200 467.9723,-200 476.5553,-200"/>
<polygon fill="#191970" stroke="#191970" points="476.5858,-203.5001 486.5858,-200 476.5857,-196.5001 476.5858,-203.5001"/>
</g>
<!-- Node1309 -->
<g id="node17" class="node">
<title>Node1309</title>
<g id="a_node17"><a xlink:href="triangle_8cpp.html#a3487d9f90ea72da543d5d38b3dab1fbc" target="_top" xlink:title="estimate">
<polygon fill="#ffffff" stroke="#000000" points="677.5,-228.5 677.5,-247.5 731.5,-247.5 731.5,-228.5 677.5,-228.5"/>
<text text-anchor="middle" x="704.5" y="-235.5" font-family="Helvetica,sans-Serif" font-size="10.00" fill="#000000">estimate</text>
</a>
</g>
</g>
<!-- Node1308&#45;&gt;Node1309 -->
<g id="edge18" class="edge">
<title>Node1308&#45;&gt;Node1309</title>
<path fill="none" stroke="#191970" d="M585.2486,-209.589C610.4427,-215.5914 642.6735,-223.2702 667.2742,-229.1312"/>
<polygon fill="#191970" stroke="#191970" points="666.7685,-232.6086 677.3074,-231.5215 668.3909,-225.7992 666.7685,-232.6086"/>
</g>
<!-- Node1310 -->
<g id="node18" class="node">
<title>Node1310</title>
<g id="a_node18"><a xlink:href="triangle_8cpp.html#a37646a7e0014e10c612e946bc95aeeea" target="_top" xlink:title="fast_expansion_sum\l_zeroelim">
<polygon fill="#ffffff" stroke="#000000" points="651,-179 651,-209 758,-209 758,-179 651,-179"/>
<text text-anchor="start" x="659" y="-197" font-family="Helvetica,sans-Serif" font-size="10.00" fill="#000000">fast_expansion_sum</text>
<text text-anchor="middle" x="704.5" y="-186" font-family="Helvetica,sans-Serif" font-size="10.00" fill="#000000">_zeroelim</text>
</a>
</g>
</g>
<!-- Node1308&#45;&gt;Node1310 -->
<g id="edge19" class="edge">
<title>Node1308&#45;&gt;Node1310</title>
<path fill="none" stroke="#191970" d="M603.0344,-197.8169C615.2122,-197.3588 628.1213,-196.8732 640.5028,-196.4074"/>
<polygon fill="#191970" stroke="#191970" points="640.8903,-199.8954 650.7516,-196.0219 640.6271,-192.9004 640.8903,-199.8954"/>
</g>
<!-- Node1311&#45;&gt;Node1304 -->
<g id="edge22" class="edge">
<title>Node1311&#45;&gt;Node1304</title>
<path fill="none" stroke="#191970" d="M294.6299,-247.8563C308.8228,-260.0711 334.4738,-280.9837 359,-295 362.268,-296.8676 365.7558,-298.6498 369.294,-300.3215"/>
<polygon fill="#191970" stroke="#191970" points="368.1003,-303.6208 378.6609,-304.4716 370.9359,-297.2208 368.1003,-303.6208"/>
</g>
<!-- Node1311&#45;&gt;Node1306 -->
<g id="edge23" class="edge">
<title>Node1311&#45;&gt;Node1306</title>
<path fill="none" stroke="#191970" d="M314.1596,-247.589C329.4124,-252.3594 348.0509,-258.1888 364.4666,-263.3229"/>
<polygon fill="#191970" stroke="#191970" points="363.7614,-266.7694 374.3502,-266.4141 365.8509,-260.0886 363.7614,-266.7694"/>
</g>
<!-- Node1311&#45;&gt;Node1307 -->
<g id="edge21" class="edge">
<title>Node1311&#45;&gt;Node1307</title>
<path fill="none" stroke="#191970" d="M314.1596,-228.411C329.4124,-223.6406 348.0509,-217.8112 364.4666,-212.6771"/>
<polygon fill="#191970" stroke="#191970" points="365.8509,-215.9114 374.3502,-209.5859 363.7614,-209.2306 365.8509,-215.9114"/>
</g>
<!-- Node1312 -->
<g id="node20" class="node">
<title>Node1312</title>
<g id="a_node20"><a xlink:href="triangle_8cpp.html#abbd721e83ed16c99082c2152fa55e2ee" target="_top" xlink:title="incircle">
<polygon fill="#ffffff" stroke="#000000" points="381.5,-228.5 381.5,-247.5 428.5,-247.5 428.5,-228.5 381.5,-228.5"/>
<text text-anchor="middle" x="405" y="-235.5" font-family="Helvetica,sans-Serif" font-size="10.00" fill="#000000">incircle</text>
</a>
</g>
</g>
<!-- Node1311&#45;&gt;Node1312 -->
<g id="edge24" class="edge">
<title>Node1311&#45;&gt;Node1312</title>
<path fill="none" stroke="#191970" d="M315.7408,-238C332.8573,-238 353.8788,-238 371.221,-238"/>
<polygon fill="#191970" stroke="#191970" points="371.4757,-241.5001 381.4757,-238 371.4757,-234.5001 371.4757,-241.5001"/>
</g>
<!-- Node1313 -->
<g id="node21" class="node">
<title>Node1313</title>
<g id="a_node21"><a xlink:href="triangle_8cpp.html#ade6dfff2bcdf2f287e419bc4e2a211dc" target="_top" xlink:title="incircleadapt">
<polygon fill="#ffffff" stroke="#000000" points="509.5,-228.5 509.5,-247.5 580.5,-247.5 580.5,-228.5 509.5,-228.5"/>
<text text-anchor="middle" x="545" y="-235.5" font-family="Helvetica,sans-Serif" font-size="10.00" fill="#000000">incircleadapt</text>
</a>
</g>
</g>
<!-- Node1312&#45;&gt;Node1313 -->
<g id="edge25" class="edge">
<title>Node1312&#45;&gt;Node1313</title>
<path fill="none" stroke="#191970" d="M428.7491,-238C447.9808,-238 475.643,-238 499.1591,-238"/>
<polygon fill="#191970" stroke="#191970" points="499.2858,-241.5001 509.2858,-238 499.2857,-234.5001 499.2858,-241.5001"/>
</g>
<!-- Node1313&#45;&gt;Node1309 -->
<g id="edge28" class="edge">
<title>Node1313&#45;&gt;Node1309</title>
<path fill="none" stroke="#191970" d="M580.7949,-238C606.4656,-238 640.9725,-238 667.0191,-238"/>
<polygon fill="#191970" stroke="#191970" points="667.258,-241.5001 677.258,-238 667.2579,-234.5001 667.258,-241.5001"/>
</g>
<!-- Node1313&#45;&gt;Node1310 -->
<g id="edge27" class="edge">
<title>Node1313&#45;&gt;Node1310</title>
<path fill="none" stroke="#191970" d="M579.6091,-228.4527C597.5637,-223.4997 620.0699,-217.2911 641.0133,-211.5136"/>
<polygon fill="#191970" stroke="#191970" points="642.1127,-214.8411 650.8219,-208.8078 640.2512,-208.0931 642.1127,-214.8411"/>
</g>
<!-- Node1314 -->
<g id="node22" class="node">
<title>Node1314</title>
<g id="a_node22"><a xlink:href="triangle_8cpp.html#abdcdaa8948d9a2937154d9d67f67da8d" target="_top" xlink:title="scale_expansion_zeroelim">
<polygon fill="#ffffff" stroke="#000000" points="639,-266.5 639,-285.5 770,-285.5 770,-266.5 639,-266.5"/>
<text text-anchor="middle" x="704.5" y="-273.5" font-family="Helvetica,sans-Serif" font-size="10.00" fill="#000000">scale_expansion_zeroelim</text>
</a>
</g>
</g>
<!-- Node1313&#45;&gt;Node1314 -->
<g id="edge26" class="edge">
<title>Node1313&#45;&gt;Node1314</title>
<path fill="none" stroke="#191970" d="M580.7949,-246.5279C602.5742,-251.7167 630.714,-258.4209 654.6512,-264.1238"/>
<polygon fill="#191970" stroke="#191970" points="654.083,-267.5863 664.6219,-266.4993 655.7054,-260.7769 654.083,-267.5863"/>
</g>
<!-- Node1317 -->
<g id="node25" class="node">
<title>Node1317</title>
<g id="a_node25"><a xlink:href="triangle_8cpp.html#a3bd3bd17a942635e55f283dc27f32ddb" target="_top" xlink:title="triangledealloc">
<polygon fill="#ffffff" stroke="#000000" points="244,-.5 244,-19.5 323,-19.5 323,-.5 244,-.5"/>
<text text-anchor="middle" x="283.5" y="-7.5" font-family="Helvetica,sans-Serif" font-size="10.00" fill="#000000">triangledealloc</text>
</a>
</g>
</g>
<!-- Node1316&#45;&gt;Node1317 -->
<g id="edge31" class="edge">
<title>Node1316&#45;&gt;Node1317</title>
<path fill="none" stroke="#191970" d="M205.7848,-10C214.6598,-10 224.1986,-10 233.4494,-10"/>
<polygon fill="#191970" stroke="#191970" points="233.7208,-13.5001 243.7208,-10 233.7207,-6.5001 233.7208,-13.5001"/>
</g>
<!-- Node1318 -->
<g id="node26" class="node">
<title>Node1318</title>
<g id="a_node26"><a xlink:href="triangle_8cpp.html#a3f4425b06c516b9f5d647a1384c74d51" target="_top" xlink:title="pooldealloc">
<polygon fill="#ffffff" stroke="#000000" points="372.5,-.5 372.5,-19.5 437.5,-19.5 437.5,-.5 372.5,-.5"/>
<text text-anchor="middle" x="405" y="-7.5" font-family="Helvetica,sans-Serif" font-size="10.00" fill="#000000">pooldealloc</text>
</a>
</g>
</g>
<!-- Node1317&#45;&gt;Node1318 -->
<g id="edge32" class="edge">
<title>Node1317&#45;&gt;Node1318</title>
<path fill="none" stroke="#191970" d="M323.2836,-10C335.7195,-10 349.4913,-10 362.1298,-10"/>
<polygon fill="#191970" stroke="#191970" points="362.4253,-13.5001 372.4253,-10 362.4252,-6.5001 362.4253,-13.5001"/>
</g>
</g>
</svg>
