<?xml version="1.0" encoding="UTF-8" standalone="no"?>
<!DOCTYPE svg PUBLIC "-//W3C//DTD SVG 1.1//EN"
 "http://www.w3.org/Graphics/SVG/1.1/DTD/svg11.dtd">
<!-- Generated by graphviz version 2.40.1 (20161225.0304)
 -->
<!-- Title: vertextraverse Pages: 1 -->
<svg width="644pt" height="104pt"
 viewBox="0.00 0.00 644.00 104.00" xmlns="http://www.w3.org/2000/svg" xmlns:xlink="http://www.w3.org/1999/xlink">
<g id="graph0" class="graph" transform="scale(1 1) rotate(0) translate(4 100)">
<title>vertextraverse</title>
<polygon fill="#ffffff" stroke="transparent" points="-4,4 -4,-100 640,-100 640,4 -4,4"/>
<!-- Node473 -->
<g id="node1" class="node">
<title>Node473</title>
<polygon fill="#bfbfbf" stroke="#000000" points="0,-38.5 0,-57.5 79,-57.5 79,-38.5 0,-38.5"/>
<text text-anchor="middle" x="39.5" y="-45.5" font-family="Helvetica,sans-Serif" font-size="10.00" fill="#000000">vertextraverse</text>
</g>
<!-- Node474 -->
<g id="node2" class="node">
<title>Node474</title>
<g id="a_node2"><a xlink:href="triangle_8cpp.html#a4a13891380126c239a32b46c88f06223" target="_top" xlink:title="divconqdelaunay">
<polygon fill="#ffffff" stroke="#000000" points="115,-76.5 115,-95.5 204,-95.5 204,-76.5 115,-76.5"/>
<text text-anchor="middle" x="159.5" y="-83.5" font-family="Helvetica,sans-Serif" font-size="10.00" fill="#000000">divconqdelaunay</text>
</a>
</g>
</g>
<!-- Node473&#45;&gt;Node474 -->
<g id="edge1" class="edge">
<title>Node473&#45;&gt;Node474</title>
<path fill="none" stroke="#191970" d="M79.5435,-60.6804C95.7574,-65.8148 114.1656,-71.6441 129.2286,-76.4141"/>
<polygon fill="#191970" stroke="#191970" points="80.3711,-57.2713 69.7811,-57.589 78.2578,-63.9447 80.3711,-57.2713"/>
</g>
<!-- Node479 -->
<g id="node7" class="node">
<title>Node479</title>
<g id="a_node7"><a xlink:href="triangle_8cpp.html#a140789d6f7ad5b771f6d130fa3711874" target="_top" xlink:title="writenodes">
<polygon fill="#ffffff" stroke="#000000" points="240,-38.5 240,-57.5 304,-57.5 304,-38.5 240,-38.5"/>
<text text-anchor="middle" x="272" y="-45.5" font-family="Helvetica,sans-Serif" font-size="10.00" fill="#000000">writenodes</text>
</a>
</g>
</g>
<!-- Node473&#45;&gt;Node479 -->
<g id="edge6" class="edge">
<title>Node473&#45;&gt;Node479</title>
<path fill="none" stroke="#191970" d="M89.462,-48C135.0456,-48 201.0529,-48 239.9436,-48"/>
<polygon fill="#191970" stroke="#191970" points="89.204,-44.5001 79.204,-48 89.204,-51.5001 89.204,-44.5001"/>
</g>
<!-- Node480 -->
<g id="node8" class="node">
<title>Node480</title>
<g id="a_node8"><a xlink:href="triangle_8cpp.html#a160128d1b9589687db5d740723c4299b" target="_top" xlink:title="numbernodes">
<polygon fill="#ffffff" stroke="#000000" points="122,-.5 122,-19.5 197,-19.5 197,-.5 122,-.5"/>
<text text-anchor="middle" x="159.5" y="-7.5" font-family="Helvetica,sans-Serif" font-size="10.00" fill="#000000">numbernodes</text>
</a>
</g>
</g>
<!-- Node473&#45;&gt;Node480 -->
<g id="edge8" class="edge">
<title>Node473&#45;&gt;Node480</title>
<path fill="none" stroke="#191970" d="M79.5435,-35.3196C95.7574,-30.1852 114.1656,-24.3559 129.2286,-19.5859"/>
<polygon fill="#191970" stroke="#191970" points="78.2578,-32.0553 69.7811,-38.411 80.3711,-38.7287 78.2578,-32.0553"/>
</g>
<!-- Node475 -->
<g id="node3" class="node">
<title>Node475</title>
<g id="a_node3"><a xlink:href="triangle_8cpp.html#ab67faa70960c7c39ee1150ab4d55f0a5" target="_top" xlink:title="delaunay">
<polygon fill="#ffffff" stroke="#000000" points="244,-76.5 244,-95.5 300,-95.5 300,-76.5 244,-76.5"/>
<text text-anchor="middle" x="272" y="-83.5" font-family="Helvetica,sans-Serif" font-size="10.00" fill="#000000">delaunay</text>
</a>
</g>
</g>
<!-- Node474&#45;&gt;Node475 -->
<g id="edge2" class="edge">
<title>Node474&#45;&gt;Node475</title>
<path fill="none" stroke="#191970" d="M214.4237,-86C224.6304,-86 234.8954,-86 243.8734,-86"/>
<polygon fill="#191970" stroke="#191970" points="214.2863,-82.5001 204.2862,-86 214.2862,-89.5001 214.2863,-82.5001"/>
</g>
<!-- Node476 -->
<g id="node4" class="node">
<title>Node476</title>
<g id="a_node4"><a xlink:href="triangle_8hpp.html#a848df2990f66cdbdc9d1ac87f4646527" target="_top" xlink:title="Call Triangle. ">
<polygon fill="#ffffff" stroke="#000000" points="340,-38.5 340,-57.5 402,-57.5 402,-38.5 340,-38.5"/>
<text text-anchor="middle" x="371" y="-45.5" font-family="Helvetica,sans-Serif" font-size="10.00" fill="#000000">triangulate</text>
</a>
</g>
</g>
<!-- Node475&#45;&gt;Node476 -->
<g id="edge3" class="edge">
<title>Node475&#45;&gt;Node476</title>
<path fill="none" stroke="#191970" d="M306.5577,-72.7354C319.5546,-67.7467 334.068,-62.1759 346.0261,-57.5859"/>
<polygon fill="#191970" stroke="#191970" points="305.0635,-69.5599 296.9819,-76.411 307.572,-76.095 305.0635,-69.5599"/>
</g>
<!-- Node477 -->
<g id="node5" class="node">
<title>Node477</title>
<g id="a_node5"><a xlink:href="classRiver_1_1Triangle.html#a7bc9c5a5297dee136ab1489a923182dd" target="_top" xlink:title="Generate mesh. ">
<polygon fill="#ffffff" stroke="#000000" points="438,-38.5 438,-57.5 562,-57.5 562,-38.5 438,-38.5"/>
<text text-anchor="middle" x="500" y="-45.5" font-family="Helvetica,sans-Serif" font-size="10.00" fill="#000000">River::Triangle::generate</text>
</a>
</g>
</g>
<!-- Node476&#45;&gt;Node477 -->
<g id="edge4" class="edge">
<title>Node476&#45;&gt;Node477</title>
<path fill="none" stroke="#191970" d="M412.2629,-48C420.4682,-48 429.2527,-48 437.9767,-48"/>
<polygon fill="#191970" stroke="#191970" points="412.2273,-44.5001 402.2273,-48 412.2273,-51.5001 412.2273,-44.5001"/>
</g>
<!-- Node478 -->
<g id="node6" class="node">
<title>Node478</title>
<g id="a_node6"><a xlink:href="main_8cpp.html#a0ddf1224851353fc92bfbff6f499fa97" target="_top" xlink:title="Entry point of RiverSim program. ">
<polygon fill="#ffffff" stroke="#000000" points="598,-38.5 598,-57.5 636,-57.5 636,-38.5 598,-38.5"/>
<text text-anchor="middle" x="617" y="-45.5" font-family="Helvetica,sans-Serif" font-size="10.00" fill="#000000">main</text>
</a>
</g>
</g>
<!-- Node477&#45;&gt;Node478 -->
<g id="edge5" class="edge">
<title>Node477&#45;&gt;Node478</title>
<path fill="none" stroke="#191970" d="M572.5174,-48C581.8253,-48 590.6301,-48 597.912,-48"/>
<polygon fill="#191970" stroke="#191970" points="572.2682,-44.5001 562.2682,-48 572.2682,-51.5001 572.2682,-44.5001"/>
</g>
<!-- Node479&#45;&gt;Node476 -->
<g id="edge7" class="edge">
<title>Node479&#45;&gt;Node476</title>
<path fill="none" stroke="#191970" d="M314.3157,-48C322.831,-48 331.636,-48 339.6938,-48"/>
<polygon fill="#191970" stroke="#191970" points="314.1425,-44.5001 304.1425,-48 314.1424,-51.5001 314.1425,-44.5001"/>
</g>
<!-- Node480&#45;&gt;Node476 -->
<g id="edge9" class="edge">
<title>Node480&#45;&gt;Node476</title>
<path fill="none" stroke="#191970" d="M207.2089,-14.5073C235.5118,-17.619 271.9984,-22.3952 304,-29 316.1963,-31.5172 329.4244,-35.0846 340.8796,-38.4496"/>
<polygon fill="#191970" stroke="#191970" points="207.4904,-11.0175 197.1752,-13.4359 206.7471,-17.978 207.4904,-11.0175"/>
</g>
</g>
</svg>
