<?xml version="1.0" encoding="UTF-8" standalone="no"?>
<!DOCTYPE svg PUBLIC "-//W3C//DTD SVG 1.1//EN"
 "http://www.w3.org/Graphics/SVG/1.1/DTD/svg11.dtd">
<!-- Generated by graphviz version 2.40.1 (20161225.0304)
 -->
<!-- Title: insertsubseg Pages: 1 -->
<svg width="445pt" height="66pt"
 viewBox="0.00 0.00 445.00 66.00" xmlns="http://www.w3.org/2000/svg" xmlns:xlink="http://www.w3.org/1999/xlink">
<g id="graph0" class="graph" transform="scale(1 1) rotate(0) translate(4 62)">
<title>insertsubseg</title>
<polygon fill="#ffffff" stroke="transparent" points="-4,4 -4,-62 441,-62 441,4 -4,4"/>
<!-- Node1040 -->
<g id="node1" class="node">
<title>Node1040</title>
<polygon fill="#bfbfbf" stroke="#000000" points="0,-19.5 0,-38.5 72,-38.5 72,-19.5 0,-19.5"/>
<text text-anchor="middle" x="36" y="-26.5" font-family="Helvetica,sans-Serif" font-size="10.00" fill="#000000">insertsubseg</text>
</g>
<!-- Node1041 -->
<g id="node2" class="node">
<title>Node1041</title>
<g id="a_node2"><a xlink:href="triangle_8cpp.html#a38c1f489a079cd860973698d73d5128c" target="_top" xlink:title="makesubseg">
<polygon fill="#ffffff" stroke="#000000" points="108,-38.5 108,-57.5 180,-57.5 180,-38.5 108,-38.5"/>
<text text-anchor="middle" x="144" y="-45.5" font-family="Helvetica,sans-Serif" font-size="10.00" fill="#000000">makesubseg</text>
</a>
</g>
</g>
<!-- Node1040&#45;&gt;Node1041 -->
<g id="edge1" class="edge">
<title>Node1040&#45;&gt;Node1041</title>
<path fill="none" stroke="#191970" d="M72.2629,-35.3796C80.4552,-36.8208 89.2602,-38.3699 97.7994,-39.8721"/>
<polygon fill="#191970" stroke="#191970" points="97.1938,-43.3192 107.649,-41.6049 98.4067,-36.4251 97.1938,-43.3192"/>
</g>
<!-- Node1045 -->
<g id="node6" class="node">
<title>Node1045</title>
<g id="a_node6"><a xlink:href="triangle_8cpp.html#a3ced5ec1374d5a837ece08d2efe7bcb0" target="_top" xlink:title="printsubseg">
<polygon fill="#ffffff" stroke="#000000" points="110.5,-.5 110.5,-19.5 177.5,-19.5 177.5,-.5 110.5,-.5"/>
<text text-anchor="middle" x="144" y="-7.5" font-family="Helvetica,sans-Serif" font-size="10.00" fill="#000000">printsubseg</text>
</a>
</g>
</g>
<!-- Node1040&#45;&gt;Node1045 -->
<g id="edge5" class="edge">
<title>Node1040&#45;&gt;Node1045</title>
<path fill="none" stroke="#191970" d="M72.2629,-22.6204C81.2633,-21.037 91.0033,-19.3235 100.3179,-17.6848"/>
<polygon fill="#191970" stroke="#191970" points="100.9608,-21.1256 110.2031,-15.9458 99.7478,-14.2314 100.9608,-21.1256"/>
</g>
<!-- Node1042 -->
<g id="node3" class="node">
<title>Node1042</title>
<g id="a_node3"><a xlink:href="triangle_8cpp.html#ab1760445583959132ffd9998372c9aac" target="_top" xlink:title="poolalloc">
<polygon fill="#ffffff" stroke="#000000" points="216,-38.5 216,-57.5 271,-57.5 271,-38.5 216,-38.5"/>
<text text-anchor="middle" x="243.5" y="-45.5" font-family="Helvetica,sans-Serif" font-size="10.00" fill="#000000">poolalloc</text>
</a>
</g>
</g>
<!-- Node1041&#45;&gt;Node1042 -->
<g id="edge2" class="edge">
<title>Node1041&#45;&gt;Node1042</title>
<path fill="none" stroke="#191970" d="M180.2033,-48C188.486,-48 197.311,-48 205.6605,-48"/>
<polygon fill="#191970" stroke="#191970" points="205.9056,-51.5001 215.9055,-48 205.9055,-44.5001 205.9056,-51.5001"/>
</g>
<!-- Node1043 -->
<g id="node4" class="node">
<title>Node1043</title>
<g id="a_node4"><a xlink:href="triangle_8cpp.html#a5f51f1d3957615b2c84a91fd9f5f09bf" target="_top" xlink:title="trimalloc">
<polygon fill="#ffffff" stroke="#000000" points="307,-38.5 307,-57.5 360,-57.5 360,-38.5 307,-38.5"/>
<text text-anchor="middle" x="333.5" y="-45.5" font-family="Helvetica,sans-Serif" font-size="10.00" fill="#000000">trimalloc</text>
</a>
</g>
</g>
<!-- Node1042&#45;&gt;Node1043 -->
<g id="edge3" class="edge">
<title>Node1042&#45;&gt;Node1043</title>
<path fill="none" stroke="#191970" d="M271.4832,-48C279.4806,-48 288.3188,-48 296.7561,-48"/>
<polygon fill="#191970" stroke="#191970" points="296.7655,-51.5001 306.7654,-48 296.7654,-44.5001 296.7655,-51.5001"/>
</g>
<!-- Node1044 -->
<g id="node5" class="node">
<title>Node1044</title>
<g id="a_node5"><a xlink:href="triangle_8cpp.html#a648abfc70d158485620dbcb9aa990178" target="_top" xlink:title="triexit">
<polygon fill="#ffffff" stroke="#000000" points="396,-38.5 396,-57.5 437,-57.5 437,-38.5 396,-38.5"/>
<text text-anchor="middle" x="416.5" y="-45.5" font-family="Helvetica,sans-Serif" font-size="10.00" fill="#000000">triexit</text>
</a>
</g>
</g>
<!-- Node1043&#45;&gt;Node1044 -->
<g id="edge4" class="edge">
<title>Node1043&#45;&gt;Node1044</title>
<path fill="none" stroke="#191970" d="M360.2186,-48C368.3489,-48 377.3499,-48 385.7251,-48"/>
<polygon fill="#191970" stroke="#191970" points="385.8865,-51.5001 395.8865,-48 385.8865,-44.5001 385.8865,-51.5001"/>
</g>
</g>
</svg>
