<?xml version="1.0" encoding="UTF-8" standalone="no"?>
<!DOCTYPE svg PUBLIC "-//W3C//DTD SVG 1.1//EN"
 "http://www.w3.org/Graphics/SVG/1.1/DTD/svg11.dtd">
<!-- Generated by graphviz version 2.40.1 (20161225.0304)
 -->
<!-- Title: tallyfaces Pages: 1 -->
<svg width="693pt" height="28pt"
 viewBox="0.00 0.00 693.00 28.00" xmlns="http://www.w3.org/2000/svg" xmlns:xlink="http://www.w3.org/1999/xlink">
<g id="graph0" class="graph" transform="scale(1 1) rotate(0) translate(4 24)">
<title>tallyfaces</title>
<polygon fill="#ffffff" stroke="transparent" points="-4,4 -4,-24 689,-24 689,4 -4,4"/>
<!-- Node1777 -->
<g id="node1" class="node">
<title>Node1777</title>
<polygon fill="#bfbfbf" stroke="#000000" points="0,-.5 0,-19.5 59,-19.5 59,-.5 0,-.5"/>
<text text-anchor="middle" x="29.5" y="-7.5" font-family="Helvetica,sans-Serif" font-size="10.00" fill="#000000">tallyfaces</text>
</g>
<!-- Node1778 -->
<g id="node2" class="node">
<title>Node1778</title>
<g id="a_node2"><a xlink:href="triangle_8cpp.html#a5a654ff6b304f2166c64ffe9183b2995" target="_top" xlink:title="enforcequality">
<polygon fill="#ffffff" stroke="#000000" points="95,-.5 95,-19.5 172,-19.5 172,-.5 95,-.5"/>
<text text-anchor="middle" x="133.5" y="-7.5" font-family="Helvetica,sans-Serif" font-size="10.00" fill="#000000">enforcequality</text>
</a>
</g>
</g>
<!-- Node1777&#45;&gt;Node1778 -->
<g id="edge1" class="edge">
<title>Node1777&#45;&gt;Node1778</title>
<path fill="none" stroke="#191970" d="M69.0741,-10C77.5578,-10 86.5102,-10 94.9543,-10"/>
<polygon fill="#191970" stroke="#191970" points="69.0241,-6.5001 59.024,-10 69.024,-13.5001 69.0241,-6.5001"/>
</g>
<!-- Node1779 -->
<g id="node3" class="node">
<title>Node1779</title>
<g id="a_node3"><a xlink:href="triangle_8hpp.html#a4ca59bf5fe569672944651426b662ba6" target="_top" xlink:title="Call Triangle. ">
<polygon fill="#ffffff" stroke="#000000" points="208,-.5 208,-19.5 270,-19.5 270,-.5 208,-.5"/>
<text text-anchor="middle" x="239" y="-7.5" font-family="Helvetica,sans-Serif" font-size="10.00" fill="#000000">triangulate</text>
</a>
</g>
</g>
<!-- Node1778&#45;&gt;Node1779 -->
<g id="edge2" class="edge">
<title>Node1778&#45;&gt;Node1779</title>
<path fill="none" stroke="#191970" d="M182.2905,-10C191.0043,-10 199.863,-10 207.9082,-10"/>
<polygon fill="#191970" stroke="#191970" points="182.1853,-6.5001 172.1852,-10 182.1852,-13.5001 182.1853,-6.5001"/>
</g>
<!-- Node1780 -->
<g id="node4" class="node">
<title>Node1780</title>
<g id="a_node4"><a xlink:href="classRiver_1_1Triangle.html#a0dae20b40d446e6009a88543e2c14daf" target="_top" xlink:title="Generate mesh. ">
<polygon fill="#ffffff" stroke="#000000" points="306,-.5 306,-19.5 430,-19.5 430,-.5 306,-.5"/>
<text text-anchor="middle" x="368" y="-7.5" font-family="Helvetica,sans-Serif" font-size="10.00" fill="#000000">River::Triangle::generate</text>
</a>
</g>
</g>
<!-- Node1779&#45;&gt;Node1780 -->
<g id="edge3" class="edge">
<title>Node1779&#45;&gt;Node1780</title>
<path fill="none" stroke="#191970" d="M280.2629,-10C288.4682,-10 297.2527,-10 305.9767,-10"/>
<polygon fill="#191970" stroke="#191970" points="280.2273,-6.5001 270.2273,-10 280.2273,-13.5001 280.2273,-6.5001"/>
</g>
<!-- Node1781 -->
<g id="node5" class="node">
<title>Node1781</title>
<g id="a_node5"><a xlink:href="namespaceRiver.html#af1a3f7c61809dd8032e4ff5920da83cc" target="_top" xlink:title="One step of forward river evolution. ">
<polygon fill="#ffffff" stroke="#000000" points="466,-.5 466,-19.5 611,-19.5 611,-.5 466,-.5"/>
<text text-anchor="middle" x="538.5" y="-7.5" font-family="Helvetica,sans-Serif" font-size="10.00" fill="#000000">River::ForwardRiverEvolution</text>
</a>
</g>
</g>
<!-- Node1780&#45;&gt;Node1781 -->
<g id="edge4" class="edge">
<title>Node1780&#45;&gt;Node1781</title>
<path fill="none" stroke="#191970" d="M440.2431,-10C448.7006,-10 457.333,-10 465.7967,-10"/>
<polygon fill="#191970" stroke="#191970" points="440.0368,-6.5001 430.0367,-10 440.0367,-13.5001 440.0368,-6.5001"/>
</g>
<!-- Node1782 -->
<g id="node6" class="node">
<title>Node1782</title>
<g id="a_node6"><a xlink:href="main_8cpp.html#a0ddf1224851353fc92bfbff6f499fa97" target="_top" xlink:title="Entry point of RiverSim program. ">
<polygon fill="#ffffff" stroke="#000000" points="647,-.5 647,-19.5 685,-19.5 685,-.5 647,-.5"/>
<text text-anchor="middle" x="666" y="-7.5" font-family="Helvetica,sans-Serif" font-size="10.00" fill="#000000">main</text>
</a>
</g>
</g>
<!-- Node1781&#45;&gt;Node1782 -->
<g id="edge5" class="edge">
<title>Node1781&#45;&gt;Node1782</title>
<path fill="none" stroke="#191970" d="M621.2526,-10C630.7338,-10 639.5978,-10 646.8947,-10"/>
<polygon fill="#191970" stroke="#191970" points="621.1886,-6.5001 611.1886,-10 621.1885,-13.5001 621.1886,-6.5001"/>
</g>
</g>
</svg>
