<?xml version="1.0" encoding="UTF-8" standalone="no"?>
<!DOCTYPE svg PUBLIC "-//W3C//DTD SVG 1.1//EN"
 "http://www.w3.org/Graphics/SVG/1.1/DTD/svg11.dtd">
<!-- Generated by graphviz version 2.40.1 (20161225.0304)
 -->
<!-- Title: writeneighbors Pages: 1 -->
<svg width="420pt" height="28pt"
 viewBox="0.00 0.00 420.00 28.00" xmlns="http://www.w3.org/2000/svg" xmlns:xlink="http://www.w3.org/1999/xlink">
<g id="graph0" class="graph" transform="scale(1 1) rotate(0) translate(4 24)">
<title>writeneighbors</title>
<polygon fill="#ffffff" stroke="transparent" points="-4,4 -4,-24 416,-24 416,4 -4,4"/>
<!-- Node1881 -->
<g id="node1" class="node">
<title>Node1881</title>
<polygon fill="#bfbfbf" stroke="#000000" points="0,-.5 0,-19.5 80,-19.5 80,-.5 0,-.5"/>
<text text-anchor="middle" x="40" y="-7.5" font-family="Helvetica,sans-Serif" font-size="10.00" fill="#000000">writeneighbors</text>
</g>
<!-- Node1882 -->
<g id="node2" class="node">
<title>Node1882</title>
<g id="a_node2"><a xlink:href="triangle_8hpp.html#a848df2990f66cdbdc9d1ac87f4646527" target="_top" xlink:title="Call Triangle. ">
<polygon fill="#ffffff" stroke="#000000" points="116,-.5 116,-19.5 178,-19.5 178,-.5 116,-.5"/>
<text text-anchor="middle" x="147" y="-7.5" font-family="Helvetica,sans-Serif" font-size="10.00" fill="#000000">triangulate</text>
</a>
</g>
</g>
<!-- Node1881&#45;&gt;Node1882 -->
<g id="edge1" class="edge">
<title>Node1881&#45;&gt;Node1882</title>
<path fill="none" stroke="#191970" d="M90.3196,-10C99.0777,-10 107.9498,-10 115.9928,-10"/>
<polygon fill="#191970" stroke="#191970" points="90.1473,-6.5001 80.1473,-10 90.1472,-13.5001 90.1473,-6.5001"/>
</g>
<!-- Node1883 -->
<g id="node3" class="node">
<title>Node1883</title>
<g id="a_node3"><a xlink:href="classRiver_1_1Triangle.html#a7bc9c5a5297dee136ab1489a923182dd" target="_top" xlink:title="Generate mesh. ">
<polygon fill="#ffffff" stroke="#000000" points="214,-.5 214,-19.5 338,-19.5 338,-.5 214,-.5"/>
<text text-anchor="middle" x="276" y="-7.5" font-family="Helvetica,sans-Serif" font-size="10.00" fill="#000000">River::Triangle::generate</text>
</a>
</g>
</g>
<!-- Node1882&#45;&gt;Node1883 -->
<g id="edge2" class="edge">
<title>Node1882&#45;&gt;Node1883</title>
<path fill="none" stroke="#191970" d="M188.2629,-10C196.4682,-10 205.2527,-10 213.9767,-10"/>
<polygon fill="#191970" stroke="#191970" points="188.2273,-6.5001 178.2273,-10 188.2273,-13.5001 188.2273,-6.5001"/>
</g>
<!-- Node1884 -->
<g id="node4" class="node">
<title>Node1884</title>
<g id="a_node4"><a xlink:href="main_8cpp.html#a0ddf1224851353fc92bfbff6f499fa97" target="_top" xlink:title="Entry point of RiverSim program. ">
<polygon fill="#ffffff" stroke="#000000" points="374,-.5 374,-19.5 412,-19.5 412,-.5 374,-.5"/>
<text text-anchor="middle" x="393" y="-7.5" font-family="Helvetica,sans-Serif" font-size="10.00" fill="#000000">main</text>
</a>
</g>
</g>
<!-- Node1883&#45;&gt;Node1884 -->
<g id="edge3" class="edge">
<title>Node1883&#45;&gt;Node1884</title>
<path fill="none" stroke="#191970" d="M348.5174,-10C357.8253,-10 366.6301,-10 373.912,-10"/>
<polygon fill="#191970" stroke="#191970" points="348.2682,-6.5001 338.2682,-10 348.2682,-13.5001 348.2682,-6.5001"/>
</g>
</g>
</svg>
