<?xml version="1.0" encoding="UTF-8" standalone="no"?>
<!DOCTYPE svg PUBLIC "-//W3C//DTD SVG 1.1//EN"
 "http://www.w3.org/Graphics/SVG/1.1/DTD/svg11.dtd">
<!-- Generated by graphviz version 2.40.1 (20161225.0304)
 -->
<!-- Title: pooldeinit Pages: 1 -->
<svg width="686pt" height="66pt"
 viewBox="0.00 0.00 686.00 66.00" xmlns="http://www.w3.org/2000/svg" xmlns:xlink="http://www.w3.org/1999/xlink">
<g id="graph0" class="graph" transform="scale(1 1) rotate(0) translate(4 62)">
<title>pooldeinit</title>
<polygon fill="#ffffff" stroke="transparent" points="-4,4 -4,-62 682,-62 682,4 -4,4"/>
<!-- Node265 -->
<g id="node1" class="node">
<title>Node265</title>
<polygon fill="#bfbfbf" stroke="#000000" points="0,-19.5 0,-38.5 58,-38.5 58,-19.5 0,-19.5"/>
<text text-anchor="middle" x="29" y="-26.5" font-family="Helvetica,sans-Serif" font-size="10.00" fill="#000000">pooldeinit</text>
</g>
<!-- Node266 -->
<g id="node2" class="node">
<title>Node266</title>
<g id="a_node2"><a xlink:href="triangle_8cpp.html#a5049101399a72b39896dc0545dfbb41e" target="_top" xlink:title="triangledeinit">
<polygon fill="#ffffff" stroke="#000000" points="94,-38.5 94,-57.5 165,-57.5 165,-38.5 94,-38.5"/>
<text text-anchor="middle" x="129.5" y="-45.5" font-family="Helvetica,sans-Serif" font-size="10.00" fill="#000000">triangledeinit</text>
</a>
</g>
</g>
<!-- Node265&#45;&gt;Node266 -->
<g id="edge1" class="edge">
<title>Node265&#45;&gt;Node266</title>
<path fill="none" stroke="#191970" d="M68.0779,-36.3879C76.52,-37.9839 85.4052,-39.6637 93.7137,-41.2344"/>
<polygon fill="#191970" stroke="#191970" points="68.5449,-32.9142 58.0688,-34.4956 67.2445,-39.7924 68.5449,-32.9142"/>
</g>
<!-- Node271 -->
<g id="node7" class="node">
<title>Node271</title>
<g id="a_node7"><a xlink:href="triangle_8cpp.html#aa0ba1198ac22df6403aeaa25b4ebbe37" target="_top" xlink:title="carveholes">
<polygon fill="#ffffff" stroke="#000000" points="97.5,-.5 97.5,-19.5 161.5,-19.5 161.5,-.5 97.5,-.5"/>
<text text-anchor="middle" x="129.5" y="-7.5" font-family="Helvetica,sans-Serif" font-size="10.00" fill="#000000">carveholes</text>
</a>
</g>
</g>
<!-- Node265&#45;&gt;Node271 -->
<g id="edge6" class="edge">
<title>Node265&#45;&gt;Node271</title>
<path fill="none" stroke="#191970" d="M67.9214,-21.6417C77.6462,-19.8032 87.9682,-17.8518 97.3254,-16.0828"/>
<polygon fill="#191970" stroke="#191970" points="67.2445,-18.2076 58.0688,-23.5044 68.5449,-25.0858 67.2445,-18.2076"/>
</g>
<!-- Node267 -->
<g id="node3" class="node">
<title>Node267</title>
<g id="a_node3"><a xlink:href="triangle_8hpp.html#a4ca59bf5fe569672944651426b662ba6" target="_top" xlink:title="Call Triangle. ">
<polygon fill="#ffffff" stroke="#000000" points="201,-19.5 201,-38.5 263,-38.5 263,-19.5 201,-19.5"/>
<text text-anchor="middle" x="232" y="-26.5" font-family="Helvetica,sans-Serif" font-size="10.00" fill="#000000">triangulate</text>
</a>
</g>
</g>
<!-- Node266&#45;&gt;Node267 -->
<g id="edge2" class="edge">
<title>Node266&#45;&gt;Node267</title>
<path fill="none" stroke="#191970" d="M175.1407,-39.5398C183.8647,-37.9226 192.8081,-36.2648 200.9434,-34.7568"/>
<polygon fill="#191970" stroke="#191970" points="174.2564,-36.144 165.0619,-41.408 175.5323,-43.0267 174.2564,-36.144"/>
</g>
<!-- Node268 -->
<g id="node4" class="node">
<title>Node268</title>
<g id="a_node4"><a xlink:href="classRiver_1_1Triangle.html#a0dae20b40d446e6009a88543e2c14daf" target="_top" xlink:title="Generate mesh. ">
<polygon fill="#ffffff" stroke="#000000" points="299,-19.5 299,-38.5 423,-38.5 423,-19.5 299,-19.5"/>
<text text-anchor="middle" x="361" y="-26.5" font-family="Helvetica,sans-Serif" font-size="10.00" fill="#000000">River::Triangle::generate</text>
</a>
</g>
</g>
<!-- Node267&#45;&gt;Node268 -->
<g id="edge3" class="edge">
<title>Node267&#45;&gt;Node268</title>
<path fill="none" stroke="#191970" d="M273.2629,-29C281.4682,-29 290.2527,-29 298.9767,-29"/>
<polygon fill="#191970" stroke="#191970" points="273.2273,-25.5001 263.2273,-29 273.2273,-32.5001 273.2273,-25.5001"/>
</g>
<!-- Node269 -->
<g id="node5" class="node">
<title>Node269</title>
<g id="a_node5"><a xlink:href="namespaceRiver.html#af1a3f7c61809dd8032e4ff5920da83cc" target="_top" xlink:title="One step of forward river evolution. ">
<polygon fill="#ffffff" stroke="#000000" points="459,-19.5 459,-38.5 604,-38.5 604,-19.5 459,-19.5"/>
<text text-anchor="middle" x="531.5" y="-26.5" font-family="Helvetica,sans-Serif" font-size="10.00" fill="#000000">River::ForwardRiverEvolution</text>
</a>
</g>
</g>
<!-- Node268&#45;&gt;Node269 -->
<g id="edge4" class="edge">
<title>Node268&#45;&gt;Node269</title>
<path fill="none" stroke="#191970" d="M433.2431,-29C441.7006,-29 450.333,-29 458.7967,-29"/>
<polygon fill="#191970" stroke="#191970" points="433.0368,-25.5001 423.0367,-29 433.0367,-32.5001 433.0368,-25.5001"/>
</g>
<!-- Node270 -->
<g id="node6" class="node">
<title>Node270</title>
<g id="a_node6"><a xlink:href="main_8cpp.html#a0ddf1224851353fc92bfbff6f499fa97" target="_top" xlink:title="Entry point of RiverSim program. ">
<polygon fill="#ffffff" stroke="#000000" points="640,-19.5 640,-38.5 678,-38.5 678,-19.5 640,-19.5"/>
<text text-anchor="middle" x="659" y="-26.5" font-family="Helvetica,sans-Serif" font-size="10.00" fill="#000000">main</text>
</a>
</g>
</g>
<!-- Node269&#45;&gt;Node270 -->
<g id="edge5" class="edge">
<title>Node269&#45;&gt;Node270</title>
<path fill="none" stroke="#191970" d="M614.2526,-29C623.7338,-29 632.5978,-29 639.8947,-29"/>
<polygon fill="#191970" stroke="#191970" points="614.1886,-25.5001 604.1886,-29 614.1885,-32.5001 614.1886,-25.5001"/>
</g>
<!-- Node271&#45;&gt;Node267 -->
<g id="edge7" class="edge">
<title>Node271&#45;&gt;Node267</title>
<path fill="none" stroke="#191970" d="M171.5654,-17.7975C181.2974,-19.6015 191.4863,-21.4901 200.6657,-23.1917"/>
<polygon fill="#191970" stroke="#191970" points="172.1209,-14.3409 161.6504,-15.9596 170.845,-21.2237 172.1209,-14.3409"/>
</g>
</g>
</svg>
