<?xml version="1.0" encoding="UTF-8" standalone="no"?>
<!DOCTYPE svg PUBLIC "-//W3C//DTD SVG 1.1//EN"
 "http://www.w3.org/Graphics/SVG/1.1/DTD/svg11.dtd">
<!-- Generated by graphviz version 2.40.1 (20161225.0304)
 -->
<!-- Title: regionplague Pages: 1 -->
<svg width="692pt" height="28pt"
 viewBox="0.00 0.00 692.00 28.00" xmlns="http://www.w3.org/2000/svg" xmlns:xlink="http://www.w3.org/1999/xlink">
<g id="graph0" class="graph" transform="scale(1 1) rotate(0) translate(4 24)">
<title>regionplague</title>
<polygon fill="#ffffff" stroke="transparent" points="-4,4 -4,-24 688,-24 688,4 -4,4"/>
<!-- Node1664 -->
<g id="node1" class="node">
<title>Node1664</title>
<polygon fill="#bfbfbf" stroke="#000000" points="0,-.5 0,-19.5 71,-19.5 71,-.5 0,-.5"/>
<text text-anchor="middle" x="35.5" y="-7.5" font-family="Helvetica,sans-Serif" font-size="10.00" fill="#000000">regionplague</text>
</g>
<!-- Node1665 -->
<g id="node2" class="node">
<title>Node1665</title>
<g id="a_node2"><a xlink:href="triangle_8cpp.html#aa0ba1198ac22df6403aeaa25b4ebbe37" target="_top" xlink:title="carveholes">
<polygon fill="#ffffff" stroke="#000000" points="107,-.5 107,-19.5 171,-19.5 171,-.5 107,-.5"/>
<text text-anchor="middle" x="139" y="-7.5" font-family="Helvetica,sans-Serif" font-size="10.00" fill="#000000">carveholes</text>
</a>
</g>
</g>
<!-- Node1664&#45;&gt;Node1665 -->
<g id="edge1" class="edge">
<title>Node1664&#45;&gt;Node1665</title>
<path fill="none" stroke="#191970" d="M81.3949,-10C89.9602,-10 98.7422,-10 106.7861,-10"/>
<polygon fill="#191970" stroke="#191970" points="81.1189,-6.5001 71.1188,-10 81.1188,-13.5001 81.1189,-6.5001"/>
</g>
<!-- Node1666 -->
<g id="node3" class="node">
<title>Node1666</title>
<g id="a_node3"><a xlink:href="triangle_8hpp.html#a4ca59bf5fe569672944651426b662ba6" target="_top" xlink:title="Call Triangle. ">
<polygon fill="#ffffff" stroke="#000000" points="207,-.5 207,-19.5 269,-19.5 269,-.5 207,-.5"/>
<text text-anchor="middle" x="238" y="-7.5" font-family="Helvetica,sans-Serif" font-size="10.00" fill="#000000">triangulate</text>
</a>
</g>
</g>
<!-- Node1665&#45;&gt;Node1666 -->
<g id="edge2" class="edge">
<title>Node1665&#45;&gt;Node1666</title>
<path fill="none" stroke="#191970" d="M181.3157,-10C189.831,-10 198.636,-10 206.6938,-10"/>
<polygon fill="#191970" stroke="#191970" points="181.1425,-6.5001 171.1425,-10 181.1424,-13.5001 181.1425,-6.5001"/>
</g>
<!-- Node1667 -->
<g id="node4" class="node">
<title>Node1667</title>
<g id="a_node4"><a xlink:href="classRiver_1_1Triangle.html#a0dae20b40d446e6009a88543e2c14daf" target="_top" xlink:title="Generate mesh. ">
<polygon fill="#ffffff" stroke="#000000" points="305,-.5 305,-19.5 429,-19.5 429,-.5 305,-.5"/>
<text text-anchor="middle" x="367" y="-7.5" font-family="Helvetica,sans-Serif" font-size="10.00" fill="#000000">River::Triangle::generate</text>
</a>
</g>
</g>
<!-- Node1666&#45;&gt;Node1667 -->
<g id="edge3" class="edge">
<title>Node1666&#45;&gt;Node1667</title>
<path fill="none" stroke="#191970" d="M279.2629,-10C287.4682,-10 296.2527,-10 304.9767,-10"/>
<polygon fill="#191970" stroke="#191970" points="279.2273,-6.5001 269.2273,-10 279.2273,-13.5001 279.2273,-6.5001"/>
</g>
<!-- Node1668 -->
<g id="node5" class="node">
<title>Node1668</title>
<g id="a_node5"><a xlink:href="namespaceRiver.html#af1a3f7c61809dd8032e4ff5920da83cc" target="_top" xlink:title="One step of forward river evolution. ">
<polygon fill="#ffffff" stroke="#000000" points="465,-.5 465,-19.5 610,-19.5 610,-.5 465,-.5"/>
<text text-anchor="middle" x="537.5" y="-7.5" font-family="Helvetica,sans-Serif" font-size="10.00" fill="#000000">River::ForwardRiverEvolution</text>
</a>
</g>
</g>
<!-- Node1667&#45;&gt;Node1668 -->
<g id="edge4" class="edge">
<title>Node1667&#45;&gt;Node1668</title>
<path fill="none" stroke="#191970" d="M439.2431,-10C447.7006,-10 456.333,-10 464.7967,-10"/>
<polygon fill="#191970" stroke="#191970" points="439.0368,-6.5001 429.0367,-10 439.0367,-13.5001 439.0368,-6.5001"/>
</g>
<!-- Node1669 -->
<g id="node6" class="node">
<title>Node1669</title>
<g id="a_node6"><a xlink:href="main_8cpp.html#a0ddf1224851353fc92bfbff6f499fa97" target="_top" xlink:title="Entry point of RiverSim program. ">
<polygon fill="#ffffff" stroke="#000000" points="646,-.5 646,-19.5 684,-19.5 684,-.5 646,-.5"/>
<text text-anchor="middle" x="665" y="-7.5" font-family="Helvetica,sans-Serif" font-size="10.00" fill="#000000">main</text>
</a>
</g>
</g>
<!-- Node1668&#45;&gt;Node1669 -->
<g id="edge5" class="edge">
<title>Node1668&#45;&gt;Node1669</title>
<path fill="none" stroke="#191970" d="M620.2526,-10C629.7338,-10 638.5978,-10 645.8947,-10"/>
<polygon fill="#191970" stroke="#191970" points="620.1886,-6.5001 610.1886,-10 620.1885,-13.5001 620.1886,-6.5001"/>
</g>
</g>
</svg>
