<?xml version="1.0" encoding="UTF-8" standalone="no"?>
<!DOCTYPE svg PUBLIC "-//W3C//DTD SVG 1.1//EN"
 "http://www.w3.org/Graphics/SVG/1.1/DTD/svg11.dtd">
<!-- Generated by graphviz version 2.40.1 (20161225.0304)
 -->
<!-- Title: tallyfaces Pages: 1 -->
<svg width="512pt" height="28pt"
 viewBox="0.00 0.00 512.00 28.00" xmlns="http://www.w3.org/2000/svg" xmlns:xlink="http://www.w3.org/1999/xlink">
<g id="graph0" class="graph" transform="scale(1 1) rotate(0) translate(4 24)">
<title>tallyfaces</title>
<polygon fill="#ffffff" stroke="transparent" points="-4,4 -4,-24 508,-24 508,4 -4,4"/>
<!-- Node1694 -->
<g id="node1" class="node">
<title>Node1694</title>
<polygon fill="#bfbfbf" stroke="#000000" points="0,-.5 0,-19.5 59,-19.5 59,-.5 0,-.5"/>
<text text-anchor="middle" x="29.5" y="-7.5" font-family="Helvetica,sans-Serif" font-size="10.00" fill="#000000">tallyfaces</text>
</g>
<!-- Node1695 -->
<g id="node2" class="node">
<title>Node1695</title>
<g id="a_node2"><a xlink:href="triangle_8cpp.html#a5a654ff6b304f2166c64ffe9183b2995" target="_top" xlink:title="enforcequality">
<polygon fill="#ffffff" stroke="#000000" points="95,-.5 95,-19.5 172,-19.5 172,-.5 95,-.5"/>
<text text-anchor="middle" x="133.5" y="-7.5" font-family="Helvetica,sans-Serif" font-size="10.00" fill="#000000">enforcequality</text>
</a>
</g>
</g>
<!-- Node1694&#45;&gt;Node1695 -->
<g id="edge1" class="edge">
<title>Node1694&#45;&gt;Node1695</title>
<path fill="none" stroke="#191970" d="M69.0741,-10C77.5578,-10 86.5102,-10 94.9543,-10"/>
<polygon fill="#191970" stroke="#191970" points="69.0241,-6.5001 59.024,-10 69.024,-13.5001 69.0241,-6.5001"/>
</g>
<!-- Node1696 -->
<g id="node3" class="node">
<title>Node1696</title>
<g id="a_node3"><a xlink:href="triangle_8hpp.html#a848df2990f66cdbdc9d1ac87f4646527" target="_top" xlink:title="Call Triangle. ">
<polygon fill="#ffffff" stroke="#000000" points="208,-.5 208,-19.5 270,-19.5 270,-.5 208,-.5"/>
<text text-anchor="middle" x="239" y="-7.5" font-family="Helvetica,sans-Serif" font-size="10.00" fill="#000000">triangulate</text>
</a>
</g>
</g>
<!-- Node1695&#45;&gt;Node1696 -->
<g id="edge2" class="edge">
<title>Node1695&#45;&gt;Node1696</title>
<path fill="none" stroke="#191970" d="M182.2905,-10C191.0043,-10 199.863,-10 207.9082,-10"/>
<polygon fill="#191970" stroke="#191970" points="182.1853,-6.5001 172.1852,-10 182.1852,-13.5001 182.1853,-6.5001"/>
</g>
<!-- Node1697 -->
<g id="node4" class="node">
<title>Node1697</title>
<g id="a_node4"><a xlink:href="classRiver_1_1Triangle.html#a7bc9c5a5297dee136ab1489a923182dd" target="_top" xlink:title="Generate mesh. ">
<polygon fill="#ffffff" stroke="#000000" points="306,-.5 306,-19.5 430,-19.5 430,-.5 306,-.5"/>
<text text-anchor="middle" x="368" y="-7.5" font-family="Helvetica,sans-Serif" font-size="10.00" fill="#000000">River::Triangle::generate</text>
</a>
</g>
</g>
<!-- Node1696&#45;&gt;Node1697 -->
<g id="edge3" class="edge">
<title>Node1696&#45;&gt;Node1697</title>
<path fill="none" stroke="#191970" d="M280.2629,-10C288.4682,-10 297.2527,-10 305.9767,-10"/>
<polygon fill="#191970" stroke="#191970" points="280.2273,-6.5001 270.2273,-10 280.2273,-13.5001 280.2273,-6.5001"/>
</g>
<!-- Node1698 -->
<g id="node5" class="node">
<title>Node1698</title>
<g id="a_node5"><a xlink:href="main_8cpp.html#a0ddf1224851353fc92bfbff6f499fa97" target="_top" xlink:title="Entry point of RiverSim program. ">
<polygon fill="#ffffff" stroke="#000000" points="466,-.5 466,-19.5 504,-19.5 504,-.5 466,-.5"/>
<text text-anchor="middle" x="485" y="-7.5" font-family="Helvetica,sans-Serif" font-size="10.00" fill="#000000">main</text>
</a>
</g>
</g>
<!-- Node1697&#45;&gt;Node1698 -->
<g id="edge4" class="edge">
<title>Node1697&#45;&gt;Node1698</title>
<path fill="none" stroke="#191970" d="M440.5174,-10C449.8253,-10 458.6301,-10 465.912,-10"/>
<polygon fill="#191970" stroke="#191970" points="440.2682,-6.5001 430.2682,-10 440.2682,-13.5001 440.2682,-6.5001"/>
</g>
</g>
</svg>
