<?xml version="1.0" encoding="UTF-8" standalone="no"?>
<!DOCTYPE svg PUBLIC "-//W3C//DTD SVG 1.1//EN"
 "http://www.w3.org/Graphics/SVG/1.1/DTD/svg11.dtd">
<!-- Generated by graphviz version 2.40.1 (20161225.0304)
 -->
<!-- Title: numbernodes Pages: 1 -->
<svg width="596pt" height="28pt"
 viewBox="0.00 0.00 596.00 28.00" xmlns="http://www.w3.org/2000/svg" xmlns:xlink="http://www.w3.org/1999/xlink">
<g id="graph0" class="graph" transform="scale(1 1) rotate(0) translate(4 24)">
<title>numbernodes</title>
<polygon fill="#ffffff" stroke="transparent" points="-4,4 -4,-24 592,-24 592,4 -4,4"/>
<!-- Node1915 -->
<g id="node1" class="node">
<title>Node1915</title>
<polygon fill="#bfbfbf" stroke="#000000" points="0,-.5 0,-19.5 75,-19.5 75,-.5 0,-.5"/>
<text text-anchor="middle" x="37.5" y="-7.5" font-family="Helvetica,sans-Serif" font-size="10.00" fill="#000000">numbernodes</text>
</g>
<!-- Node1916 -->
<g id="node2" class="node">
<title>Node1916</title>
<g id="a_node2"><a xlink:href="triangle_8hpp.html#a4ca59bf5fe569672944651426b662ba6" target="_top" xlink:title="Call Triangle. ">
<polygon fill="#ffffff" stroke="#000000" points="111,-.5 111,-19.5 173,-19.5 173,-.5 111,-.5"/>
<text text-anchor="middle" x="142" y="-7.5" font-family="Helvetica,sans-Serif" font-size="10.00" fill="#000000">triangulate</text>
</a>
</g>
</g>
<!-- Node1915&#45;&gt;Node1916 -->
<g id="edge1" class="edge">
<title>Node1915&#45;&gt;Node1916</title>
<path fill="none" stroke="#191970" d="M85.2845,-10C93.9664,-10 102.8139,-10 110.8588,-10"/>
<polygon fill="#191970" stroke="#191970" points="85.2269,-6.5001 75.2269,-10 85.2269,-13.5001 85.2269,-6.5001"/>
</g>
<!-- Node1917 -->
<g id="node3" class="node">
<title>Node1917</title>
<g id="a_node3"><a xlink:href="classRiver_1_1Triangle.html#a0dae20b40d446e6009a88543e2c14daf" target="_top" xlink:title="Generate mesh. ">
<polygon fill="#ffffff" stroke="#000000" points="209,-.5 209,-19.5 333,-19.5 333,-.5 209,-.5"/>
<text text-anchor="middle" x="271" y="-7.5" font-family="Helvetica,sans-Serif" font-size="10.00" fill="#000000">River::Triangle::generate</text>
</a>
</g>
</g>
<!-- Node1916&#45;&gt;Node1917 -->
<g id="edge2" class="edge">
<title>Node1916&#45;&gt;Node1917</title>
<path fill="none" stroke="#191970" d="M183.2629,-10C191.4682,-10 200.2527,-10 208.9767,-10"/>
<polygon fill="#191970" stroke="#191970" points="183.2273,-6.5001 173.2273,-10 183.2273,-13.5001 183.2273,-6.5001"/>
</g>
<!-- Node1918 -->
<g id="node4" class="node">
<title>Node1918</title>
<g id="a_node4"><a xlink:href="namespaceRiver.html#af1a3f7c61809dd8032e4ff5920da83cc" target="_top" xlink:title="One step of forward river evolution. ">
<polygon fill="#ffffff" stroke="#000000" points="369,-.5 369,-19.5 514,-19.5 514,-.5 369,-.5"/>
<text text-anchor="middle" x="441.5" y="-7.5" font-family="Helvetica,sans-Serif" font-size="10.00" fill="#000000">River::ForwardRiverEvolution</text>
</a>
</g>
</g>
<!-- Node1917&#45;&gt;Node1918 -->
<g id="edge3" class="edge">
<title>Node1917&#45;&gt;Node1918</title>
<path fill="none" stroke="#191970" d="M343.2431,-10C351.7006,-10 360.333,-10 368.7967,-10"/>
<polygon fill="#191970" stroke="#191970" points="343.0368,-6.5001 333.0367,-10 343.0367,-13.5001 343.0368,-6.5001"/>
</g>
<!-- Node1919 -->
<g id="node5" class="node">
<title>Node1919</title>
<g id="a_node5"><a xlink:href="main_8cpp.html#a0ddf1224851353fc92bfbff6f499fa97" target="_top" xlink:title="Entry point of RiverSim program. ">
<polygon fill="#ffffff" stroke="#000000" points="550,-.5 550,-19.5 588,-19.5 588,-.5 550,-.5"/>
<text text-anchor="middle" x="569" y="-7.5" font-family="Helvetica,sans-Serif" font-size="10.00" fill="#000000">main</text>
</a>
</g>
</g>
<!-- Node1918&#45;&gt;Node1919 -->
<g id="edge4" class="edge">
<title>Node1918&#45;&gt;Node1919</title>
<path fill="none" stroke="#191970" d="M524.2526,-10C533.7338,-10 542.5978,-10 549.8947,-10"/>
<polygon fill="#191970" stroke="#191970" points="524.1886,-6.5001 514.1886,-10 524.1885,-13.5001 524.1886,-6.5001"/>
</g>
</g>
</svg>
