<?xml version="1.0" encoding="UTF-8" standalone="no"?>
<!DOCTYPE svg PUBLIC "-//W3C//DTD SVG 1.1//EN"
 "http://www.w3.org/Graphics/SVG/1.1/DTD/svg11.dtd">
<!-- Generated by graphviz version 2.40.1 (20161225.0304)
 -->
<!-- Title: writepoly Pages: 1 -->
<svg width="577pt" height="28pt"
 viewBox="0.00 0.00 577.00 28.00" xmlns="http://www.w3.org/2000/svg" xmlns:xlink="http://www.w3.org/1999/xlink">
<g id="graph0" class="graph" transform="scale(1 1) rotate(0) translate(4 24)">
<title>writepoly</title>
<polygon fill="#ffffff" stroke="transparent" points="-4,4 -4,-24 573,-24 573,4 -4,4"/>
<!-- Node1937 -->
<g id="node1" class="node">
<title>Node1937</title>
<polygon fill="#bfbfbf" stroke="#000000" points="0,-.5 0,-19.5 56,-19.5 56,-.5 0,-.5"/>
<text text-anchor="middle" x="28" y="-7.5" font-family="Helvetica,sans-Serif" font-size="10.00" fill="#000000">writepoly</text>
</g>
<!-- Node1938 -->
<g id="node2" class="node">
<title>Node1938</title>
<g id="a_node2"><a xlink:href="triangle_8hpp.html#a4ca59bf5fe569672944651426b662ba6" target="_top" xlink:title="Call Triangle. ">
<polygon fill="#ffffff" stroke="#000000" points="92,-.5 92,-19.5 154,-19.5 154,-.5 92,-.5"/>
<text text-anchor="middle" x="123" y="-7.5" font-family="Helvetica,sans-Serif" font-size="10.00" fill="#000000">triangulate</text>
</a>
</g>
</g>
<!-- Node1937&#45;&gt;Node1938 -->
<g id="edge1" class="edge">
<title>Node1937&#45;&gt;Node1938</title>
<path fill="none" stroke="#191970" d="M66.2737,-10C74.7213,-10 83.5739,-10 91.7063,-10"/>
<polygon fill="#191970" stroke="#191970" points="66.246,-6.5001 56.2459,-10 66.2459,-13.5001 66.246,-6.5001"/>
</g>
<!-- Node1939 -->
<g id="node3" class="node">
<title>Node1939</title>
<g id="a_node3"><a xlink:href="classRiver_1_1Triangle.html#a0dae20b40d446e6009a88543e2c14daf" target="_top" xlink:title="Generate mesh. ">
<polygon fill="#ffffff" stroke="#000000" points="190,-.5 190,-19.5 314,-19.5 314,-.5 190,-.5"/>
<text text-anchor="middle" x="252" y="-7.5" font-family="Helvetica,sans-Serif" font-size="10.00" fill="#000000">River::Triangle::generate</text>
</a>
</g>
</g>
<!-- Node1938&#45;&gt;Node1939 -->
<g id="edge2" class="edge">
<title>Node1938&#45;&gt;Node1939</title>
<path fill="none" stroke="#191970" d="M164.2629,-10C172.4682,-10 181.2527,-10 189.9767,-10"/>
<polygon fill="#191970" stroke="#191970" points="164.2273,-6.5001 154.2273,-10 164.2273,-13.5001 164.2273,-6.5001"/>
</g>
<!-- Node1940 -->
<g id="node4" class="node">
<title>Node1940</title>
<g id="a_node4"><a xlink:href="namespaceRiver.html#af1a3f7c61809dd8032e4ff5920da83cc" target="_top" xlink:title="One step of forward river evolution. ">
<polygon fill="#ffffff" stroke="#000000" points="350,-.5 350,-19.5 495,-19.5 495,-.5 350,-.5"/>
<text text-anchor="middle" x="422.5" y="-7.5" font-family="Helvetica,sans-Serif" font-size="10.00" fill="#000000">River::ForwardRiverEvolution</text>
</a>
</g>
</g>
<!-- Node1939&#45;&gt;Node1940 -->
<g id="edge3" class="edge">
<title>Node1939&#45;&gt;Node1940</title>
<path fill="none" stroke="#191970" d="M324.2431,-10C332.7006,-10 341.333,-10 349.7967,-10"/>
<polygon fill="#191970" stroke="#191970" points="324.0368,-6.5001 314.0367,-10 324.0367,-13.5001 324.0368,-6.5001"/>
</g>
<!-- Node1941 -->
<g id="node5" class="node">
<title>Node1941</title>
<g id="a_node5"><a xlink:href="main_8cpp.html#a0ddf1224851353fc92bfbff6f499fa97" target="_top" xlink:title="Entry point of RiverSim program. ">
<polygon fill="#ffffff" stroke="#000000" points="531,-.5 531,-19.5 569,-19.5 569,-.5 531,-.5"/>
<text text-anchor="middle" x="550" y="-7.5" font-family="Helvetica,sans-Serif" font-size="10.00" fill="#000000">main</text>
</a>
</g>
</g>
<!-- Node1940&#45;&gt;Node1941 -->
<g id="edge4" class="edge">
<title>Node1940&#45;&gt;Node1941</title>
<path fill="none" stroke="#191970" d="M505.2526,-10C514.7338,-10 523.5978,-10 530.8947,-10"/>
<polygon fill="#191970" stroke="#191970" points="505.1886,-6.5001 495.1886,-10 505.1885,-13.5001 505.1886,-6.5001"/>
</g>
</g>
</svg>
