<?xml version="1.0" encoding="UTF-8" standalone="no"?>
<!DOCTYPE svg PUBLIC "-//W3C//DTD SVG 1.1//EN"
 "http://www.w3.org/Graphics/SVG/1.1/DTD/svg11.dtd">
<!-- Generated by graphviz version 2.40.1 (20161225.0304)
 -->
<!-- Title: precisionerror Pages: 1 -->
<svg width="635pt" height="66pt"
 viewBox="0.00 0.00 635.00 66.00" xmlns="http://www.w3.org/2000/svg" xmlns:xlink="http://www.w3.org/1999/xlink">
<g id="graph0" class="graph" transform="scale(1 1) rotate(0) translate(4 62)">
<title>precisionerror</title>
<polygon fill="#ffffff" stroke="transparent" points="-4,4 -4,-62 631,-62 631,4 -4,4"/>
<!-- Node1633 -->
<g id="node1" class="node">
<title>Node1633</title>
<polygon fill="#bfbfbf" stroke="#000000" points="0,-19.5 0,-38.5 75,-38.5 75,-19.5 0,-19.5"/>
<text text-anchor="middle" x="37.5" y="-26.5" font-family="Helvetica,sans-Serif" font-size="10.00" fill="#000000">precisionerror</text>
</g>
<!-- Node1634 -->
<g id="node2" class="node">
<title>Node1634</title>
<g id="a_node2"><a xlink:href="triangle_8cpp.html#adca37fc9e90f78c9ae794662de5428bd" target="_top" xlink:title="splitencsegs">
<polygon fill="#ffffff" stroke="#000000" points="111,-38.5 111,-57.5 182,-57.5 182,-38.5 111,-38.5"/>
<text text-anchor="middle" x="146.5" y="-45.5" font-family="Helvetica,sans-Serif" font-size="10.00" fill="#000000">splitencsegs</text>
</a>
</g>
</g>
<!-- Node1633&#45;&gt;Node1634 -->
<g id="edge1" class="edge">
<title>Node1633&#45;&gt;Node1634</title>
<path fill="none" stroke="#191970" d="M84.9964,-37.2792C93.6409,-38.786 102.5244,-40.3345 110.7574,-41.7696"/>
<polygon fill="#191970" stroke="#191970" points="85.4641,-33.808 75.0116,-35.5387 84.262,-40.704 85.4641,-33.808"/>
</g>
<!-- Node1639 -->
<g id="node7" class="node">
<title>Node1639</title>
<g id="a_node7"><a xlink:href="triangle_8cpp.html#a48fc63d369d988c08cbe8ab40f0b8af5" target="_top" xlink:title="splittriangle">
<polygon fill="#ffffff" stroke="#000000" points="113.5,-.5 113.5,-19.5 179.5,-19.5 179.5,-.5 113.5,-.5"/>
<text text-anchor="middle" x="146.5" y="-7.5" font-family="Helvetica,sans-Serif" font-size="10.00" fill="#000000">splittriangle</text>
</a>
</g>
</g>
<!-- Node1633&#45;&gt;Node1639 -->
<g id="edge6" class="edge">
<title>Node1633&#45;&gt;Node1639</title>
<path fill="none" stroke="#191970" d="M85.1464,-20.6947C94.6395,-19.0399 104.4145,-17.336 113.2945,-15.7881"/>
<polygon fill="#191970" stroke="#191970" points="84.262,-17.296 75.0116,-22.4613 85.4641,-24.192 84.262,-17.296"/>
</g>
<!-- Node1635 -->
<g id="node3" class="node">
<title>Node1635</title>
<g id="a_node3"><a xlink:href="triangle_8cpp.html#a5a654ff6b304f2166c64ffe9183b2995" target="_top" xlink:title="enforcequality">
<polygon fill="#ffffff" stroke="#000000" points="218,-19.5 218,-38.5 295,-38.5 295,-19.5 218,-19.5"/>
<text text-anchor="middle" x="256.5" y="-26.5" font-family="Helvetica,sans-Serif" font-size="10.00" fill="#000000">enforcequality</text>
</a>
</g>
</g>
<!-- Node1634&#45;&gt;Node1635 -->
<g id="edge2" class="edge">
<title>Node1634&#45;&gt;Node1635</title>
<path fill="none" stroke="#191970" d="M192.0964,-40.1243C200.6826,-38.6412 209.5839,-37.1037 217.9296,-35.6622"/>
<polygon fill="#191970" stroke="#191970" points="191.4722,-36.6802 182.2138,-41.8312 192.6637,-43.578 191.4722,-36.6802"/>
</g>
<!-- Node1636 -->
<g id="node4" class="node">
<title>Node1636</title>
<g id="a_node4"><a xlink:href="triangle_8hpp.html#a848df2990f66cdbdc9d1ac87f4646527" target="_top" xlink:title="Call Triangle. ">
<polygon fill="#ffffff" stroke="#000000" points="331,-19.5 331,-38.5 393,-38.5 393,-19.5 331,-19.5"/>
<text text-anchor="middle" x="362" y="-26.5" font-family="Helvetica,sans-Serif" font-size="10.00" fill="#000000">triangulate</text>
</a>
</g>
</g>
<!-- Node1635&#45;&gt;Node1636 -->
<g id="edge3" class="edge">
<title>Node1635&#45;&gt;Node1636</title>
<path fill="none" stroke="#191970" d="M305.2905,-29C314.0043,-29 322.863,-29 330.9082,-29"/>
<polygon fill="#191970" stroke="#191970" points="305.1853,-25.5001 295.1852,-29 305.1852,-32.5001 305.1853,-25.5001"/>
</g>
<!-- Node1637 -->
<g id="node5" class="node">
<title>Node1637</title>
<g id="a_node5"><a xlink:href="classRiver_1_1Triangle.html#a7bc9c5a5297dee136ab1489a923182dd" target="_top" xlink:title="Generate mesh. ">
<polygon fill="#ffffff" stroke="#000000" points="429,-19.5 429,-38.5 553,-38.5 553,-19.5 429,-19.5"/>
<text text-anchor="middle" x="491" y="-26.5" font-family="Helvetica,sans-Serif" font-size="10.00" fill="#000000">River::Triangle::generate</text>
</a>
</g>
</g>
<!-- Node1636&#45;&gt;Node1637 -->
<g id="edge4" class="edge">
<title>Node1636&#45;&gt;Node1637</title>
<path fill="none" stroke="#191970" d="M403.2629,-29C411.4682,-29 420.2527,-29 428.9767,-29"/>
<polygon fill="#191970" stroke="#191970" points="403.2273,-25.5001 393.2273,-29 403.2273,-32.5001 403.2273,-25.5001"/>
</g>
<!-- Node1638 -->
<g id="node6" class="node">
<title>Node1638</title>
<g id="a_node6"><a xlink:href="main_8cpp.html#a0ddf1224851353fc92bfbff6f499fa97" target="_top" xlink:title="Entry point of RiverSim program. ">
<polygon fill="#ffffff" stroke="#000000" points="589,-19.5 589,-38.5 627,-38.5 627,-19.5 589,-19.5"/>
<text text-anchor="middle" x="608" y="-26.5" font-family="Helvetica,sans-Serif" font-size="10.00" fill="#000000">main</text>
</a>
</g>
</g>
<!-- Node1637&#45;&gt;Node1638 -->
<g id="edge5" class="edge">
<title>Node1637&#45;&gt;Node1638</title>
<path fill="none" stroke="#191970" d="M563.5174,-29C572.8253,-29 581.6301,-29 588.912,-29"/>
<polygon fill="#191970" stroke="#191970" points="563.2682,-25.5001 553.2682,-29 563.2682,-32.5001 563.2682,-25.5001"/>
</g>
<!-- Node1639&#45;&gt;Node1635 -->
<g id="edge7" class="edge">
<title>Node1639&#45;&gt;Node1635</title>
<path fill="none" stroke="#191970" d="M189.3862,-17.4076C198.721,-19.02 208.5457,-20.717 217.7109,-22.3001"/>
<polygon fill="#191970" stroke="#191970" points="189.9535,-13.9538 179.5036,-15.7006 188.762,-20.8517 189.9535,-13.9538"/>
</g>
</g>
</svg>
