<?xml version="1.0" encoding="UTF-8" standalone="no"?>
<!DOCTYPE svg PUBLIC "-//W3C//DTD SVG 1.1//EN"
 "http://www.w3.org/Graphics/SVG/1.1/DTD/svg11.dtd">
<!-- Generated by graphviz version 2.40.1 (20161225.0304)
 -->
<!-- Title: trifree Pages: 1 -->
<svg width="720pt" height="160pt"
 viewBox="0.00 0.00 720.00 160.26" xmlns="http://www.w3.org/2000/svg" xmlns:xlink="http://www.w3.org/1999/xlink">
<g id="graph0" class="graph" transform="scale(1 1) rotate(0) translate(4 156.2642)">
<title>trifree</title>
<polygon fill="#ffffff" stroke="transparent" points="-4,4 -4,-156.2642 716,-156.2642 716,4 -4,4"/>
<!-- Node132 -->
<g id="node1" class="node">
<title>Node132</title>
<polygon fill="#bfbfbf" stroke="#000000" points="0,-76.5 0,-95.5 41,-95.5 41,-76.5 0,-76.5"/>
<text text-anchor="middle" x="20.5" y="-83.5" font-family="Helvetica,sans-Serif" font-size="10.00" fill="#000000">trifree</text>
</g>
<!-- Node133 -->
<g id="node2" class="node">
<title>Node133</title>
<g id="a_node2"><a xlink:href="triangle_8cpp.html#adce8bbec9a21ffa945c9cca035fd1f7b" target="_top" xlink:title="pooldeinit">
<polygon fill="#ffffff" stroke="#000000" points="92.5,-114.5 92.5,-133.5 150.5,-133.5 150.5,-114.5 92.5,-114.5"/>
<text text-anchor="middle" x="121.5" y="-121.5" font-family="Helvetica,sans-Serif" font-size="10.00" fill="#000000">pooldeinit</text>
</a>
</g>
</g>
<!-- Node132&#45;&gt;Node133 -->
<g id="edge1" class="edge">
<title>Node132&#45;&gt;Node133</title>
<path fill="none" stroke="#191970" d="M50.892,-97.4346C65.267,-102.843 82.2401,-109.2289 95.9421,-114.3841"/>
<polygon fill="#191970" stroke="#191970" points="52.0193,-94.1193 41.4273,-93.8736 49.5542,-100.6709 52.0193,-94.1193"/>
</g>
<!-- Node134 -->
<g id="node3" class="node">
<title>Node134</title>
<g id="a_node3"><a xlink:href="triangle_8cpp.html#a5049101399a72b39896dc0545dfbb41e" target="_top" xlink:title="triangledeinit">
<polygon fill="#ffffff" stroke="#000000" points="202,-114.5 202,-133.5 273,-133.5 273,-114.5 202,-114.5"/>
<text text-anchor="middle" x="237.5" y="-121.5" font-family="Helvetica,sans-Serif" font-size="10.00" fill="#000000">triangledeinit</text>
</a>
</g>
</g>
<!-- Node132&#45;&gt;Node134 -->
<g id="edge8" class="edge">
<title>Node132&#45;&gt;Node134</title>
<path fill="none" stroke="#191970" d="M32.378,-104.1234C42.4324,-117.6749 58.1905,-135.1603 77,-143 123.1012,-162.2148 182.6882,-145.5233 214.7192,-133.5681"/>
<polygon fill="#191970" stroke="#191970" points="34.9663,-101.718 26.3612,-95.537 29.2336,-105.7351 34.9663,-101.718"/>
</g>
<!-- Node139 -->
<g id="node7" class="node">
<title>Node139</title>
<g id="a_node7"><a xlink:href="triangle_8cpp.html#aa0ba1198ac22df6403aeaa25b4ebbe37" target="_top" xlink:title="carveholes">
<polygon fill="#ffffff" stroke="#000000" points="205.5,-76.5 205.5,-95.5 269.5,-95.5 269.5,-76.5 205.5,-76.5"/>
<text text-anchor="middle" x="237.5" y="-83.5" font-family="Helvetica,sans-Serif" font-size="10.00" fill="#000000">carveholes</text>
</a>
</g>
</g>
<!-- Node132&#45;&gt;Node139 -->
<g id="edge14" class="edge">
<title>Node132&#45;&gt;Node139</title>
<path fill="none" stroke="#191970" d="M51.4737,-86C92.2985,-86 163.7774,-86 205.2363,-86"/>
<polygon fill="#191970" stroke="#191970" points="51.3069,-82.5001 41.3069,-86 51.3068,-89.5001 51.3069,-82.5001"/>
</g>
<!-- Node140 -->
<g id="node8" class="node">
<title>Node140</title>
<g id="a_node8"><a xlink:href="triangle_8cpp.html#a4a13891380126c239a32b46c88f06223" target="_top" xlink:title="divconqdelaunay">
<polygon fill="#ffffff" stroke="#000000" points="77,-38.5 77,-57.5 166,-57.5 166,-38.5 77,-38.5"/>
<text text-anchor="middle" x="121.5" y="-45.5" font-family="Helvetica,sans-Serif" font-size="10.00" fill="#000000">divconqdelaunay</text>
</a>
</g>
</g>
<!-- Node132&#45;&gt;Node140 -->
<g id="edge9" class="edge">
<title>Node132&#45;&gt;Node140</title>
<path fill="none" stroke="#191970" d="M50.892,-74.5654C65.267,-69.157 82.2401,-62.7711 95.9421,-57.6159"/>
<polygon fill="#191970" stroke="#191970" points="49.5542,-71.3291 41.4273,-78.1264 52.0193,-77.8807 49.5542,-71.3291"/>
</g>
<!-- Node142 -->
<g id="node10" class="node">
<title>Node142</title>
<g id="a_node10"><a xlink:href="triangle_8cpp.html#a711adeeb3c28e4f2e3e173d729912c13" target="_top" xlink:title="reconstruct">
<polygon fill="#ffffff" stroke="#000000" points="89,-.5 89,-19.5 154,-19.5 154,-.5 89,-.5"/>
<text text-anchor="middle" x="121.5" y="-7.5" font-family="Helvetica,sans-Serif" font-size="10.00" fill="#000000">reconstruct</text>
</a>
</g>
</g>
<!-- Node132&#45;&gt;Node142 -->
<g id="edge12" class="edge">
<title>Node132&#45;&gt;Node142</title>
<path fill="none" stroke="#191970" d="M34.5377,-68.6079C45.1767,-56.2955 60.7051,-40.0684 77,-29 82.2812,-25.4127 88.3487,-22.2808 94.2701,-19.6501"/>
<polygon fill="#191970" stroke="#191970" points="31.7504,-66.4846 28.0041,-76.395 37.1129,-70.9839 31.7504,-66.4846"/>
</g>
<!-- Node133&#45;&gt;Node134 -->
<g id="edge2" class="edge">
<title>Node133&#45;&gt;Node134</title>
<path fill="none" stroke="#191970" d="M160.9654,-124C174.1314,-124 188.7212,-124 201.6012,-124"/>
<polygon fill="#191970" stroke="#191970" points="160.7717,-120.5001 150.7717,-124 160.7717,-127.5001 160.7717,-120.5001"/>
</g>
<!-- Node133&#45;&gt;Node139 -->
<g id="edge6" class="edge">
<title>Node133&#45;&gt;Node139</title>
<path fill="none" stroke="#191970" d="M160.6528,-111.1741C176.2176,-106.0753 193.8141,-100.3109 208.2377,-95.5859"/>
<polygon fill="#191970" stroke="#191970" points="159.1852,-107.9718 150.7717,-114.411 161.3644,-114.6239 159.1852,-107.9718"/>
</g>
<!-- Node135 -->
<g id="node4" class="node">
<title>Node135</title>
<g id="a_node4"><a xlink:href="triangle_8hpp.html#a4ca59bf5fe569672944651426b662ba6" target="_top" xlink:title="Call Triangle. ">
<polygon fill="#ffffff" stroke="#000000" points="309,-57.5 309,-76.5 371,-76.5 371,-57.5 309,-57.5"/>
<text text-anchor="middle" x="340" y="-64.5" font-family="Helvetica,sans-Serif" font-size="10.00" fill="#000000">triangulate</text>
</a>
</g>
</g>
<!-- Node134&#45;&gt;Node135 -->
<g id="edge3" class="edge">
<title>Node134&#45;&gt;Node135</title>
<path fill="none" stroke="#191970" d="M264.5641,-109.6036C267.4176,-108.0593 270.2717,-106.5035 273,-105 290.2165,-95.5123 309.7527,-84.391 323.2677,-76.6406"/>
<polygon fill="#191970" stroke="#191970" points="262.7566,-106.6015 255.6061,-114.4195 266.0713,-112.767 262.7566,-106.6015"/>
</g>
<!-- Node136 -->
<g id="node5" class="node">
<title>Node136</title>
<g id="a_node5"><a xlink:href="classRiver_1_1Triangle.html#a0dae20b40d446e6009a88543e2c14daf" target="_top" xlink:title="Generate mesh. ">
<polygon fill="#ffffff" stroke="#000000" points="407,-57.5 407,-76.5 531,-76.5 531,-57.5 407,-57.5"/>
<text text-anchor="middle" x="469" y="-64.5" font-family="Helvetica,sans-Serif" font-size="10.00" fill="#000000">River::Triangle::generate</text>
</a>
</g>
</g>
<!-- Node135&#45;&gt;Node136 -->
<g id="edge4" class="edge">
<title>Node135&#45;&gt;Node136</title>
<path fill="none" stroke="#191970" d="M381.2629,-67C389.4682,-67 398.2527,-67 406.9767,-67"/>
<polygon fill="#191970" stroke="#191970" points="381.2273,-63.5001 371.2273,-67 381.2273,-70.5001 381.2273,-63.5001"/>
</g>
<!-- Node137 -->
<g id="node6" class="node">
<title>Node137</title>
<g id="a_node6"><a xlink:href="namespaceRiver.html#af1a3f7c61809dd8032e4ff5920da83cc" target="_top" xlink:title="One step of forward river evolution. ">
<polygon fill="#ffffff" stroke="#ff0000" points="567,-57.5 567,-76.5 712,-76.5 712,-57.5 567,-57.5"/>
<text text-anchor="middle" x="639.5" y="-64.5" font-family="Helvetica,sans-Serif" font-size="10.00" fill="#000000">River::ForwardRiverEvolution</text>
</a>
</g>
</g>
<!-- Node136&#45;&gt;Node137 -->
<g id="edge5" class="edge">
<title>Node136&#45;&gt;Node137</title>
<path fill="none" stroke="#191970" d="M541.2431,-67C549.7006,-67 558.333,-67 566.7967,-67"/>
<polygon fill="#191970" stroke="#191970" points="541.0368,-63.5001 531.0367,-67 541.0367,-70.5001 541.0368,-63.5001"/>
</g>
<!-- Node139&#45;&gt;Node135 -->
<g id="edge7" class="edge">
<title>Node139&#45;&gt;Node135</title>
<path fill="none" stroke="#191970" d="M279.5654,-78.2025C289.2974,-76.3985 299.4863,-74.5099 308.6657,-72.8083"/>
<polygon fill="#191970" stroke="#191970" points="278.845,-74.7763 269.6504,-80.0404 280.1209,-81.6591 278.845,-74.7763"/>
</g>
<!-- Node141 -->
<g id="node9" class="node">
<title>Node141</title>
<g id="a_node9"><a xlink:href="triangle_8cpp.html#ab67faa70960c7c39ee1150ab4d55f0a5" target="_top" xlink:title="delaunay">
<polygon fill="#ffffff" stroke="#000000" points="209.5,-38.5 209.5,-57.5 265.5,-57.5 265.5,-38.5 209.5,-38.5"/>
<text text-anchor="middle" x="237.5" y="-45.5" font-family="Helvetica,sans-Serif" font-size="10.00" fill="#000000">delaunay</text>
</a>
</g>
</g>
<!-- Node140&#45;&gt;Node141 -->
<g id="edge10" class="edge">
<title>Node140&#45;&gt;Node141</title>
<path fill="none" stroke="#191970" d="M176.0571,-48C187.5878,-48 199.3007,-48 209.3641,-48"/>
<polygon fill="#191970" stroke="#191970" points="176.0169,-44.5001 166.0169,-48 176.0168,-51.5001 176.0169,-44.5001"/>
</g>
<!-- Node141&#45;&gt;Node135 -->
<g id="edge11" class="edge">
<title>Node141&#45;&gt;Node135</title>
<path fill="none" stroke="#191970" d="M275.6437,-55.0705C286.5605,-57.0941 298.3277,-59.2754 308.7769,-61.2123"/>
<polygon fill="#191970" stroke="#191970" points="275.979,-51.5731 265.5086,-53.1918 274.7031,-58.4559 275.979,-51.5731"/>
</g>
<!-- Node142&#45;&gt;Node135 -->
<g id="edge13" class="edge">
<title>Node142&#45;&gt;Node135</title>
<path fill="none" stroke="#191970" d="M164.2374,-10.9305C195.136,-12.6584 237.5112,-17.2259 273,-29 293.0538,-35.6533 313.8753,-48.5689 326.8781,-57.4824"/>
<polygon fill="#191970" stroke="#191970" points="164.3824,-7.4335 154.2252,-10.4471 164.0448,-14.4254 164.3824,-7.4335"/>
</g>
</g>
</svg>
