<?xml version="1.0" encoding="UTF-8" standalone="no"?>
<!DOCTYPE svg PUBLIC "-//W3C//DTD SVG 1.1//EN"
 "http://www.w3.org/Graphics/SVG/1.1/DTD/svg11.dtd">
<!-- Generated by graphviz version 2.40.1 (20161225.0304)
 -->
<!-- Title: transfernodes Pages: 1 -->
<svg width="416pt" height="28pt"
 viewBox="0.00 0.00 416.00 28.00" xmlns="http://www.w3.org/2000/svg" xmlns:xlink="http://www.w3.org/1999/xlink">
<g id="graph0" class="graph" transform="scale(1 1) rotate(0) translate(4 24)">
<title>transfernodes</title>
<polygon fill="#ffffff" stroke="transparent" points="-4,4 -4,-24 412,-24 412,4 -4,4"/>
<!-- Node1808 -->
<g id="node1" class="node">
<title>Node1808</title>
<polygon fill="#bfbfbf" stroke="#000000" points="0,-.5 0,-19.5 76,-19.5 76,-.5 0,-.5"/>
<text text-anchor="middle" x="38" y="-7.5" font-family="Helvetica,sans-Serif" font-size="10.00" fill="#000000">transfernodes</text>
</g>
<!-- Node1809 -->
<g id="node2" class="node">
<title>Node1809</title>
<g id="a_node2"><a xlink:href="triangle_8hpp.html#a848df2990f66cdbdc9d1ac87f4646527" target="_top" xlink:title="Call Triangle. ">
<polygon fill="#ffffff" stroke="#000000" points="112,-.5 112,-19.5 174,-19.5 174,-.5 112,-.5"/>
<text text-anchor="middle" x="143" y="-7.5" font-family="Helvetica,sans-Serif" font-size="10.00" fill="#000000">triangulate</text>
</a>
</g>
</g>
<!-- Node1808&#45;&gt;Node1809 -->
<g id="edge1" class="edge">
<title>Node1808&#45;&gt;Node1809</title>
<path fill="none" stroke="#191970" d="M86.2862,-10C94.9842,-10 103.8375,-10 111.8828,-10"/>
<polygon fill="#191970" stroke="#191970" points="86.2045,-6.5001 76.2044,-10 86.2044,-13.5001 86.2045,-6.5001"/>
</g>
<!-- Node1810 -->
<g id="node3" class="node">
<title>Node1810</title>
<g id="a_node3"><a xlink:href="classRiver_1_1Triangle.html#a7bc9c5a5297dee136ab1489a923182dd" target="_top" xlink:title="Generate mesh. ">
<polygon fill="#ffffff" stroke="#000000" points="210,-.5 210,-19.5 334,-19.5 334,-.5 210,-.5"/>
<text text-anchor="middle" x="272" y="-7.5" font-family="Helvetica,sans-Serif" font-size="10.00" fill="#000000">River::Triangle::generate</text>
</a>
</g>
</g>
<!-- Node1809&#45;&gt;Node1810 -->
<g id="edge2" class="edge">
<title>Node1809&#45;&gt;Node1810</title>
<path fill="none" stroke="#191970" d="M184.2629,-10C192.4682,-10 201.2527,-10 209.9767,-10"/>
<polygon fill="#191970" stroke="#191970" points="184.2273,-6.5001 174.2273,-10 184.2273,-13.5001 184.2273,-6.5001"/>
</g>
<!-- Node1811 -->
<g id="node4" class="node">
<title>Node1811</title>
<g id="a_node4"><a xlink:href="main_8cpp.html#a0ddf1224851353fc92bfbff6f499fa97" target="_top" xlink:title="Entry point of RiverSim program. ">
<polygon fill="#ffffff" stroke="#000000" points="370,-.5 370,-19.5 408,-19.5 408,-.5 370,-.5"/>
<text text-anchor="middle" x="389" y="-7.5" font-family="Helvetica,sans-Serif" font-size="10.00" fill="#000000">main</text>
</a>
</g>
</g>
<!-- Node1810&#45;&gt;Node1811 -->
<g id="edge3" class="edge">
<title>Node1810&#45;&gt;Node1811</title>
<path fill="none" stroke="#191970" d="M344.5174,-10C353.8253,-10 362.6301,-10 369.912,-10"/>
<polygon fill="#191970" stroke="#191970" points="344.2682,-6.5001 334.2682,-10 344.2682,-13.5001 344.2682,-6.5001"/>
</g>
</g>
</svg>
