<?xml version="1.0" encoding="UTF-8" standalone="no"?>
<!DOCTYPE svg PUBLIC "-//W3C//DTD SVG 1.1//EN"
 "http://www.w3.org/Graphics/SVG/1.1/DTD/svg11.dtd">
<!-- Generated by graphviz version 2.40.1 (20161225.0304)
 -->
<!-- Title: deletevertex Pages: 1 -->
<svg width="630pt" height="28pt"
 viewBox="0.00 0.00 630.00 28.00" xmlns="http://www.w3.org/2000/svg" xmlns:xlink="http://www.w3.org/1999/xlink">
<g id="graph0" class="graph" transform="scale(1 1) rotate(0) translate(4 24)">
<title>deletevertex</title>
<polygon fill="#ffffff" stroke="transparent" points="-4,4 -4,-24 626,-24 626,4 -4,4"/>
<!-- Node1112 -->
<g id="node1" class="node">
<title>Node1112</title>
<polygon fill="#bfbfbf" stroke="#000000" points="0,-.5 0,-19.5 70,-19.5 70,-.5 0,-.5"/>
<text text-anchor="middle" x="35" y="-7.5" font-family="Helvetica,sans-Serif" font-size="10.00" fill="#000000">deletevertex</text>
</g>
<!-- Node1113 -->
<g id="node2" class="node">
<title>Node1113</title>
<g id="a_node2"><a xlink:href="triangle_8cpp.html#adca37fc9e90f78c9ae794662de5428bd" target="_top" xlink:title="splitencsegs">
<polygon fill="#ffffff" stroke="#000000" points="106,-.5 106,-19.5 177,-19.5 177,-.5 106,-.5"/>
<text text-anchor="middle" x="141.5" y="-7.5" font-family="Helvetica,sans-Serif" font-size="10.00" fill="#000000">splitencsegs</text>
</a>
</g>
</g>
<!-- Node1112&#45;&gt;Node1113 -->
<g id="edge1" class="edge">
<title>Node1112&#45;&gt;Node1113</title>
<path fill="none" stroke="#191970" d="M80.2997,-10C88.7666,-10 97.5079,-10 105.6411,-10"/>
<polygon fill="#191970" stroke="#191970" points="80.1673,-6.5001 70.1672,-10 80.1672,-13.5001 80.1673,-6.5001"/>
</g>
<!-- Node1114 -->
<g id="node3" class="node">
<title>Node1114</title>
<g id="a_node3"><a xlink:href="triangle_8cpp.html#a5a654ff6b304f2166c64ffe9183b2995" target="_top" xlink:title="enforcequality">
<polygon fill="#ffffff" stroke="#000000" points="213,-.5 213,-19.5 290,-19.5 290,-.5 213,-.5"/>
<text text-anchor="middle" x="251.5" y="-7.5" font-family="Helvetica,sans-Serif" font-size="10.00" fill="#000000">enforcequality</text>
</a>
</g>
</g>
<!-- Node1113&#45;&gt;Node1114 -->
<g id="edge2" class="edge">
<title>Node1113&#45;&gt;Node1114</title>
<path fill="none" stroke="#191970" d="M187.3765,-10C195.876,-10 204.6746,-10 212.9296,-10"/>
<polygon fill="#191970" stroke="#191970" points="187.2139,-6.5001 177.2138,-10 187.2138,-13.5001 187.2139,-6.5001"/>
</g>
<!-- Node1115 -->
<g id="node4" class="node">
<title>Node1115</title>
<g id="a_node4"><a xlink:href="triangle_8hpp.html#a848df2990f66cdbdc9d1ac87f4646527" target="_top" xlink:title="Call Triangle. ">
<polygon fill="#ffffff" stroke="#000000" points="326,-.5 326,-19.5 388,-19.5 388,-.5 326,-.5"/>
<text text-anchor="middle" x="357" y="-7.5" font-family="Helvetica,sans-Serif" font-size="10.00" fill="#000000">triangulate</text>
</a>
</g>
</g>
<!-- Node1114&#45;&gt;Node1115 -->
<g id="edge3" class="edge">
<title>Node1114&#45;&gt;Node1115</title>
<path fill="none" stroke="#191970" d="M300.2905,-10C309.0043,-10 317.863,-10 325.9082,-10"/>
<polygon fill="#191970" stroke="#191970" points="300.1853,-6.5001 290.1852,-10 300.1852,-13.5001 300.1853,-6.5001"/>
</g>
<!-- Node1116 -->
<g id="node5" class="node">
<title>Node1116</title>
<g id="a_node5"><a xlink:href="classRiver_1_1Triangle.html#a7bc9c5a5297dee136ab1489a923182dd" target="_top" xlink:title="Generate mesh. ">
<polygon fill="#ffffff" stroke="#000000" points="424,-.5 424,-19.5 548,-19.5 548,-.5 424,-.5"/>
<text text-anchor="middle" x="486" y="-7.5" font-family="Helvetica,sans-Serif" font-size="10.00" fill="#000000">River::Triangle::generate</text>
</a>
</g>
</g>
<!-- Node1115&#45;&gt;Node1116 -->
<g id="edge4" class="edge">
<title>Node1115&#45;&gt;Node1116</title>
<path fill="none" stroke="#191970" d="M398.2629,-10C406.4682,-10 415.2527,-10 423.9767,-10"/>
<polygon fill="#191970" stroke="#191970" points="398.2273,-6.5001 388.2273,-10 398.2273,-13.5001 398.2273,-6.5001"/>
</g>
<!-- Node1117 -->
<g id="node6" class="node">
<title>Node1117</title>
<g id="a_node6"><a xlink:href="main_8cpp.html#a0ddf1224851353fc92bfbff6f499fa97" target="_top" xlink:title="Entry point of RiverSim program. ">
<polygon fill="#ffffff" stroke="#000000" points="584,-.5 584,-19.5 622,-19.5 622,-.5 584,-.5"/>
<text text-anchor="middle" x="603" y="-7.5" font-family="Helvetica,sans-Serif" font-size="10.00" fill="#000000">main</text>
</a>
</g>
</g>
<!-- Node1116&#45;&gt;Node1117 -->
<g id="edge5" class="edge">
<title>Node1116&#45;&gt;Node1117</title>
<path fill="none" stroke="#191970" d="M558.5174,-10C567.8253,-10 576.6301,-10 583.912,-10"/>
<polygon fill="#191970" stroke="#191970" points="558.2682,-6.5001 548.2682,-10 558.2682,-13.5001 558.2682,-6.5001"/>
</g>
</g>
</svg>
