<?xml version="1.0" encoding="UTF-8" standalone="no"?>
<!DOCTYPE svg PUBLIC "-//W3C//DTD SVG 1.1//EN"
 "http://www.w3.org/Graphics/SVG/1.1/DTD/svg11.dtd">
<!-- Generated by graphviz version 2.40.1 (20161225.0304)
 -->
<!-- Title: poolinit Pages: 1 -->
<svg width="230pt" height="66pt"
 viewBox="0.00 0.00 230.00 66.00" xmlns="http://www.w3.org/2000/svg" xmlns:xlink="http://www.w3.org/1999/xlink">
<g id="graph0" class="graph" transform="scale(1 1) rotate(0) translate(4 62)">
<title>poolinit</title>
<polygon fill="#ffffff" stroke="transparent" points="-4,4 -4,-62 226,-62 226,4 -4,4"/>
<!-- Node247 -->
<g id="node1" class="node">
<title>Node247</title>
<polygon fill="#bfbfbf" stroke="#000000" points="0,-19.5 0,-38.5 47,-38.5 47,-19.5 0,-19.5"/>
<text text-anchor="middle" x="23.5" y="-26.5" font-family="Helvetica,sans-Serif" font-size="10.00" fill="#000000">poolinit</text>
</g>
<!-- Node248 -->
<g id="node2" class="node">
<title>Node248</title>
<g id="a_node2"><a xlink:href="triangle_8cpp.html#a5f51f1d3957615b2c84a91fd9f5f09bf" target="_top" xlink:title="trimalloc">
<polygon fill="#ffffff" stroke="#000000" points="87.5,-38.5 87.5,-57.5 140.5,-57.5 140.5,-38.5 87.5,-38.5"/>
<text text-anchor="middle" x="114" y="-45.5" font-family="Helvetica,sans-Serif" font-size="10.00" fill="#000000">trimalloc</text>
</a>
</g>
</g>
<!-- Node247&#45;&gt;Node248 -->
<g id="edge1" class="edge">
<title>Node247&#45;&gt;Node248</title>
<path fill="none" stroke="#191970" d="M47.2778,-33.992C56.4688,-35.9216 67.1984,-38.1742 77.3319,-40.3017"/>
<polygon fill="#191970" stroke="#191970" points="76.6818,-43.7415 87.1876,-42.3709 78.1201,-36.8908 76.6818,-43.7415"/>
</g>
<!-- Node250 -->
<g id="node4" class="node">
<title>Node250</title>
<g id="a_node4"><a xlink:href="triangle_8cpp.html#a2657afcbf1c107955b10ccf7dbf14c90" target="_top" xlink:title="poolrestart">
<polygon fill="#ffffff" stroke="#000000" points="83,-.5 83,-19.5 145,-19.5 145,-.5 83,-.5"/>
<text text-anchor="middle" x="114" y="-7.5" font-family="Helvetica,sans-Serif" font-size="10.00" fill="#000000">poolrestart</text>
</a>
</g>
</g>
<!-- Node247&#45;&gt;Node250 -->
<g id="edge3" class="edge">
<title>Node247&#45;&gt;Node250</title>
<path fill="none" stroke="#191970" d="M47.2778,-24.008C55.1923,-22.3464 64.2476,-20.4453 73.0808,-18.5908"/>
<polygon fill="#191970" stroke="#191970" points="73.8192,-22.0121 82.8867,-16.5321 72.3809,-15.1615 73.8192,-22.0121"/>
</g>
<!-- Node249 -->
<g id="node3" class="node">
<title>Node249</title>
<g id="a_node3"><a xlink:href="triangle_8cpp.html#a648abfc70d158485620dbcb9aa990178" target="_top" xlink:title="triexit">
<polygon fill="#ffffff" stroke="#000000" points="181,-38.5 181,-57.5 222,-57.5 222,-38.5 181,-38.5"/>
<text text-anchor="middle" x="201.5" y="-45.5" font-family="Helvetica,sans-Serif" font-size="10.00" fill="#000000">triexit</text>
</a>
</g>
</g>
<!-- Node248&#45;&gt;Node249 -->
<g id="edge2" class="edge">
<title>Node248&#45;&gt;Node249</title>
<path fill="none" stroke="#191970" d="M140.7283,-48C150.1769,-48 160.8803,-48 170.6431,-48"/>
<polygon fill="#191970" stroke="#191970" points="170.7638,-51.5001 180.7637,-48 170.7637,-44.5001 170.7638,-51.5001"/>
</g>
</g>
</svg>
