<?xml version="1.0" encoding="UTF-8" standalone="no"?>
<!DOCTYPE svg PUBLIC "-//W3C//DTD SVG 1.1//EN"
 "http://www.w3.org/Graphics/SVG/1.1/DTD/svg11.dtd">
<!-- Generated by graphviz version 2.40.1 (20161225.0304)
 -->
<!-- Title: counterclockwiseadapt Pages: 1 -->
<svg width="267pt" height="78pt"
 viewBox="0.00 0.00 267.00 77.50" xmlns="http://www.w3.org/2000/svg" xmlns:xlink="http://www.w3.org/1999/xlink">
<g id="graph0" class="graph" transform="scale(1 1) rotate(0) translate(4 73.5)">
<title>counterclockwiseadapt</title>
<polygon fill="#ffffff" stroke="transparent" points="-4,4 -4,-73.5 263,-73.5 263,4 -4,4"/>
<!-- Node701 -->
<g id="node1" class="node">
<title>Node701</title>
<polygon fill="#bfbfbf" stroke="#000000" points="0,-28 0,-47 116,-47 116,-28 0,-28"/>
<text text-anchor="middle" x="58" y="-35" font-family="Helvetica,sans-Serif" font-size="10.00" fill="#000000">counterclockwiseadapt</text>
</g>
<!-- Node702 -->
<g id="node2" class="node">
<title>Node702</title>
<g id="a_node2"><a xlink:href="triangle_8cpp.html#a3487d9f90ea72da543d5d38b3dab1fbc" target="_top" xlink:title="estimate">
<polygon fill="#ffffff" stroke="#000000" points="178.5,-50 178.5,-69 232.5,-69 232.5,-50 178.5,-50"/>
<text text-anchor="middle" x="205.5" y="-57" font-family="Helvetica,sans-Serif" font-size="10.00" fill="#000000">estimate</text>
</a>
</g>
</g>
<!-- Node701&#45;&gt;Node702 -->
<g id="edge1" class="edge">
<title>Node701&#45;&gt;Node702</title>
<path fill="none" stroke="#191970" d="M116.2959,-46.195C133.8667,-48.8157 152.6629,-51.6192 168.4486,-53.9737"/>
<polygon fill="#191970" stroke="#191970" points="167.9373,-57.4361 178.3442,-55.4496 168.97,-50.5126 167.9373,-57.4361"/>
</g>
<!-- Node703 -->
<g id="node3" class="node">
<title>Node703</title>
<g id="a_node3"><a xlink:href="triangle_8cpp.html#a37646a7e0014e10c612e946bc95aeeea" target="_top" xlink:title="fast_expansion_sum\l_zeroelim">
<polygon fill="#ffffff" stroke="#000000" points="152,-.5 152,-30.5 259,-30.5 259,-.5 152,-.5"/>
<text text-anchor="start" x="160" y="-18.5" font-family="Helvetica,sans-Serif" font-size="10.00" fill="#000000">fast_expansion_sum</text>
<text text-anchor="middle" x="205.5" y="-7.5" font-family="Helvetica,sans-Serif" font-size="10.00" fill="#000000">_zeroelim</text>
</a>
</g>
</g>
<!-- Node701&#45;&gt;Node703 -->
<g id="edge2" class="edge">
<title>Node701&#45;&gt;Node703</title>
<path fill="none" stroke="#191970" d="M116.2959,-28.805C124.746,-27.5447 133.4795,-26.242 142.0252,-24.9674"/>
<polygon fill="#191970" stroke="#191970" points="142.5685,-28.4252 151.9428,-23.4882 141.5358,-21.5018 142.5685,-28.4252"/>
</g>
</g>
</svg>
