<?xml version="1.0" encoding="UTF-8" standalone="no"?>
<!DOCTYPE svg PUBLIC "-//W3C//DTD SVG 1.1//EN"
 "http://www.w3.org/Graphics/SVG/1.1/DTD/svg11.dtd">
<!-- Generated by graphviz version 2.40.1 (20161225.0304)
 -->
<!-- Title: writevoronoi Pages: 1 -->
<svg width="590pt" height="28pt"
 viewBox="0.00 0.00 590.00 28.00" xmlns="http://www.w3.org/2000/svg" xmlns:xlink="http://www.w3.org/1999/xlink">
<g id="graph0" class="graph" transform="scale(1 1) rotate(0) translate(4 24)">
<title>writevoronoi</title>
<polygon fill="#ffffff" stroke="transparent" points="-4,4 -4,-24 586,-24 586,4 -4,4"/>
<!-- Node1964 -->
<g id="node1" class="node">
<title>Node1964</title>
<polygon fill="#bfbfbf" stroke="#000000" points="0,-.5 0,-19.5 69,-19.5 69,-.5 0,-.5"/>
<text text-anchor="middle" x="34.5" y="-7.5" font-family="Helvetica,sans-Serif" font-size="10.00" fill="#000000">writevoronoi</text>
</g>
<!-- Node1965 -->
<g id="node2" class="node">
<title>Node1965</title>
<g id="a_node2"><a xlink:href="triangle_8hpp.html#a4ca59bf5fe569672944651426b662ba6" target="_top" xlink:title="Call Triangle. ">
<polygon fill="#ffffff" stroke="#000000" points="105,-.5 105,-19.5 167,-19.5 167,-.5 105,-.5"/>
<text text-anchor="middle" x="136" y="-7.5" font-family="Helvetica,sans-Serif" font-size="10.00" fill="#000000">triangulate</text>
</a>
</g>
</g>
<!-- Node1964&#45;&gt;Node1965 -->
<g id="edge1" class="edge">
<title>Node1964&#45;&gt;Node1965</title>
<path fill="none" stroke="#191970" d="M79.1698,-10C87.8553,-10 96.7818,-10 104.912,-10"/>
<polygon fill="#191970" stroke="#191970" points="79.1467,-6.5001 69.1467,-10 79.1466,-13.5001 79.1467,-6.5001"/>
</g>
<!-- Node1966 -->
<g id="node3" class="node">
<title>Node1966</title>
<g id="a_node3"><a xlink:href="classRiver_1_1Triangle.html#a0dae20b40d446e6009a88543e2c14daf" target="_top" xlink:title="Generate mesh. ">
<polygon fill="#ffffff" stroke="#000000" points="203,-.5 203,-19.5 327,-19.5 327,-.5 203,-.5"/>
<text text-anchor="middle" x="265" y="-7.5" font-family="Helvetica,sans-Serif" font-size="10.00" fill="#000000">River::Triangle::generate</text>
</a>
</g>
</g>
<!-- Node1965&#45;&gt;Node1966 -->
<g id="edge2" class="edge">
<title>Node1965&#45;&gt;Node1966</title>
<path fill="none" stroke="#191970" d="M177.2629,-10C185.4682,-10 194.2527,-10 202.9767,-10"/>
<polygon fill="#191970" stroke="#191970" points="177.2273,-6.5001 167.2273,-10 177.2273,-13.5001 177.2273,-6.5001"/>
</g>
<!-- Node1967 -->
<g id="node4" class="node">
<title>Node1967</title>
<g id="a_node4"><a xlink:href="namespaceRiver.html#af1a3f7c61809dd8032e4ff5920da83cc" target="_top" xlink:title="One step of forward river evolution. ">
<polygon fill="#ffffff" stroke="#000000" points="363,-.5 363,-19.5 508,-19.5 508,-.5 363,-.5"/>
<text text-anchor="middle" x="435.5" y="-7.5" font-family="Helvetica,sans-Serif" font-size="10.00" fill="#000000">River::ForwardRiverEvolution</text>
</a>
</g>
</g>
<!-- Node1966&#45;&gt;Node1967 -->
<g id="edge3" class="edge">
<title>Node1966&#45;&gt;Node1967</title>
<path fill="none" stroke="#191970" d="M337.2431,-10C345.7006,-10 354.333,-10 362.7967,-10"/>
<polygon fill="#191970" stroke="#191970" points="337.0368,-6.5001 327.0367,-10 337.0367,-13.5001 337.0368,-6.5001"/>
</g>
<!-- Node1968 -->
<g id="node5" class="node">
<title>Node1968</title>
<g id="a_node5"><a xlink:href="main_8cpp.html#a0ddf1224851353fc92bfbff6f499fa97" target="_top" xlink:title="Entry point of RiverSim program. ">
<polygon fill="#ffffff" stroke="#000000" points="544,-.5 544,-19.5 582,-19.5 582,-.5 544,-.5"/>
<text text-anchor="middle" x="563" y="-7.5" font-family="Helvetica,sans-Serif" font-size="10.00" fill="#000000">main</text>
</a>
</g>
</g>
<!-- Node1967&#45;&gt;Node1968 -->
<g id="edge4" class="edge">
<title>Node1967&#45;&gt;Node1968</title>
<path fill="none" stroke="#191970" d="M518.2526,-10C527.7338,-10 536.5978,-10 543.8947,-10"/>
<polygon fill="#191970" stroke="#191970" points="518.1886,-6.5001 508.1886,-10 518.1885,-13.5001 518.1886,-6.5001"/>
</g>
</g>
</svg>
