<?xml version="1.0" encoding="UTF-8" standalone="no"?>
<!DOCTYPE svg PUBLIC "-//W3C//DTD SVG 1.1//EN"
 "http://www.w3.org/Graphics/SVG/1.1/DTD/svg11.dtd">
<!-- Generated by graphviz version 2.40.1 (20161225.0304)
 -->
<!-- Title: dummyinit Pages: 1 -->
<svg width="638pt" height="66pt"
 viewBox="0.00 0.00 638.00 66.00" xmlns="http://www.w3.org/2000/svg" xmlns:xlink="http://www.w3.org/1999/xlink">
<g id="graph0" class="graph" transform="scale(1 1) rotate(0) translate(4 62)">
<title>dummyinit</title>
<polygon fill="#ffffff" stroke="transparent" points="-4,4 -4,-62 634,-62 634,4 -4,4"/>
<!-- Node378 -->
<g id="node1" class="node">
<title>Node378</title>
<polygon fill="#bfbfbf" stroke="#000000" points="0,-19.5 0,-38.5 62,-38.5 62,-19.5 0,-19.5"/>
<text text-anchor="middle" x="31" y="-26.5" font-family="Helvetica,sans-Serif" font-size="10.00" fill="#000000">dummyinit</text>
</g>
<!-- Node379 -->
<g id="node2" class="node">
<title>Node379</title>
<g id="a_node2"><a xlink:href="triangle_8cpp.html#aabcda1f9b42d64b70f96964649ce167e" target="_top" xlink:title="initializetrisubpools">
<polygon fill="#ffffff" stroke="#000000" points="98,-19.5 98,-38.5 197,-38.5 197,-19.5 98,-19.5"/>
<text text-anchor="middle" x="147.5" y="-26.5" font-family="Helvetica,sans-Serif" font-size="10.00" fill="#000000">initializetrisubpools</text>
</a>
</g>
</g>
<!-- Node378&#45;&gt;Node379 -->
<g id="edge1" class="edge">
<title>Node378&#45;&gt;Node379</title>
<path fill="none" stroke="#191970" d="M72.3193,-29C80.5447,-29 89.2633,-29 97.7371,-29"/>
<polygon fill="#191970" stroke="#191970" points="72.2199,-25.5001 62.2199,-29 72.2198,-32.5001 72.2199,-25.5001"/>
</g>
<!-- Node380 -->
<g id="node3" class="node">
<title>Node380</title>
<g id="a_node3"><a xlink:href="triangle_8cpp.html#ab67faa70960c7c39ee1150ab4d55f0a5" target="_top" xlink:title="delaunay">
<polygon fill="#ffffff" stroke="#000000" points="237.5,-38.5 237.5,-57.5 293.5,-57.5 293.5,-38.5 237.5,-38.5"/>
<text text-anchor="middle" x="265.5" y="-45.5" font-family="Helvetica,sans-Serif" font-size="10.00" fill="#000000">delaunay</text>
</a>
</g>
</g>
<!-- Node379&#45;&gt;Node380 -->
<g id="edge2" class="edge">
<title>Node379&#45;&gt;Node380</title>
<path fill="none" stroke="#191970" d="M207.2545,-38.6215C217.7762,-40.3157 228.2659,-42.0047 237.3848,-43.473"/>
<polygon fill="#191970" stroke="#191970" points="207.6299,-35.1369 197.2006,-37.0026 206.517,-42.0479 207.6299,-35.1369"/>
</g>
<!-- Node384 -->
<g id="node7" class="node">
<title>Node384</title>
<g id="a_node7"><a xlink:href="triangle_8cpp.html#a711adeeb3c28e4f2e3e173d729912c13" target="_top" xlink:title="reconstruct">
<polygon fill="#ffffff" stroke="#000000" points="233,-.5 233,-19.5 298,-19.5 298,-.5 233,-.5"/>
<text text-anchor="middle" x="265.5" y="-7.5" font-family="Helvetica,sans-Serif" font-size="10.00" fill="#000000">reconstruct</text>
</a>
</g>
</g>
<!-- Node379&#45;&gt;Node384 -->
<g id="edge6" class="edge">
<title>Node379&#45;&gt;Node384</title>
<path fill="none" stroke="#191970" d="M207.1978,-19.3876C216.0826,-17.957 224.9462,-16.5298 232.9827,-15.2358"/>
<polygon fill="#191970" stroke="#191970" points="206.517,-15.9521 197.2006,-20.9974 207.6299,-22.8631 206.517,-15.9521"/>
</g>
<!-- Node381 -->
<g id="node4" class="node">
<title>Node381</title>
<g id="a_node4"><a xlink:href="triangle_8hpp.html#a848df2990f66cdbdc9d1ac87f4646527" target="_top" xlink:title="Call Triangle. ">
<polygon fill="#ffffff" stroke="#000000" points="334,-19.5 334,-38.5 396,-38.5 396,-19.5 334,-19.5"/>
<text text-anchor="middle" x="365" y="-26.5" font-family="Helvetica,sans-Serif" font-size="10.00" fill="#000000">triangulate</text>
</a>
</g>
</g>
<!-- Node380&#45;&gt;Node381 -->
<g id="edge3" class="edge">
<title>Node380&#45;&gt;Node381</title>
<path fill="none" stroke="#191970" d="M303.8111,-40.6843C313.7621,-38.7841 324.3587,-36.7607 333.8885,-34.9409"/>
<polygon fill="#191970" stroke="#191970" points="302.9126,-37.2926 293.7466,-42.6062 304.2256,-44.1683 302.9126,-37.2926"/>
</g>
<!-- Node382 -->
<g id="node5" class="node">
<title>Node382</title>
<g id="a_node5"><a xlink:href="classRiver_1_1Triangle.html#a7bc9c5a5297dee136ab1489a923182dd" target="_top" xlink:title="Generate mesh. ">
<polygon fill="#ffffff" stroke="#000000" points="432,-19.5 432,-38.5 556,-38.5 556,-19.5 432,-19.5"/>
<text text-anchor="middle" x="494" y="-26.5" font-family="Helvetica,sans-Serif" font-size="10.00" fill="#000000">River::Triangle::generate</text>
</a>
</g>
</g>
<!-- Node381&#45;&gt;Node382 -->
<g id="edge4" class="edge">
<title>Node381&#45;&gt;Node382</title>
<path fill="none" stroke="#191970" d="M406.2629,-29C414.4682,-29 423.2527,-29 431.9767,-29"/>
<polygon fill="#191970" stroke="#191970" points="406.2273,-25.5001 396.2273,-29 406.2273,-32.5001 406.2273,-25.5001"/>
</g>
<!-- Node383 -->
<g id="node6" class="node">
<title>Node383</title>
<g id="a_node6"><a xlink:href="main_8cpp.html#a0ddf1224851353fc92bfbff6f499fa97" target="_top" xlink:title="Entry point of RiverSim program. ">
<polygon fill="#ffffff" stroke="#000000" points="592,-19.5 592,-38.5 630,-38.5 630,-19.5 592,-19.5"/>
<text text-anchor="middle" x="611" y="-26.5" font-family="Helvetica,sans-Serif" font-size="10.00" fill="#000000">main</text>
</a>
</g>
</g>
<!-- Node382&#45;&gt;Node383 -->
<g id="edge5" class="edge">
<title>Node382&#45;&gt;Node383</title>
<path fill="none" stroke="#191970" d="M566.5174,-29C575.8253,-29 584.6301,-29 591.912,-29"/>
<polygon fill="#191970" stroke="#191970" points="566.2682,-25.5001 556.2682,-29 566.2682,-32.5001 566.2682,-25.5001"/>
</g>
<!-- Node384&#45;&gt;Node381 -->
<g id="edge7" class="edge">
<title>Node384&#45;&gt;Node381</title>
<path fill="none" stroke="#191970" d="M308.004,-18.1163C316.6284,-19.7632 325.5497,-21.4668 333.7011,-23.0233"/>
<polygon fill="#191970" stroke="#191970" points="308.5591,-14.6592 298.08,-16.2213 307.246,-21.5349 308.5591,-14.6592"/>
</g>
</g>
</svg>
