<?xml version="1.0" encoding="UTF-8" standalone="no"?>
<!DOCTYPE svg PUBLIC "-//W3C//DTD SVG 1.1//EN"
 "http://www.w3.org/Graphics/SVG/1.1/DTD/svg11.dtd">
<!-- Generated by graphviz version 2.40.1 (20161225.0304)
 -->
<!-- Title: locate Pages: 1 -->
<svg width="647pt" height="189pt"
 viewBox="0.00 0.00 647.00 189.00" xmlns="http://www.w3.org/2000/svg" xmlns:xlink="http://www.w3.org/1999/xlink">
<g id="graph0" class="graph" transform="scale(1 1) rotate(0) translate(4 185)">
<title>locate</title>
<polygon fill="#ffffff" stroke="transparent" points="-4,4 -4,-185 643,-185 643,4 -4,4"/>
<!-- Node973 -->
<g id="node1" class="node">
<title>Node973</title>
<polygon fill="#bfbfbf" stroke="#000000" points="0,-76.5 0,-95.5 43,-95.5 43,-76.5 0,-76.5"/>
<text text-anchor="middle" x="21.5" y="-83.5" font-family="Helvetica,sans-Serif" font-size="10.00" fill="#000000">locate</text>
</g>
<!-- Node974 -->
<g id="node2" class="node">
<title>Node974</title>
<g id="a_node2"><a xlink:href="triangle_8cpp.html#a2ede94743503e369e9b1c6c2a0ac9f7f" target="_top" xlink:title="insertvertex">
<polygon fill="#ffffff" stroke="#000000" points="79,-76.5 79,-95.5 147,-95.5 147,-76.5 79,-76.5"/>
<text text-anchor="middle" x="113" y="-83.5" font-family="Helvetica,sans-Serif" font-size="10.00" fill="#000000">insertvertex</text>
</a>
</g>
</g>
<!-- Node973&#45;&gt;Node974 -->
<g id="edge1" class="edge">
<title>Node973&#45;&gt;Node974</title>
<path fill="none" stroke="#191970" d="M53.244,-86C61.5477,-86 70.5328,-86 78.9511,-86"/>
<polygon fill="#191970" stroke="#191970" points="53.1843,-82.5001 43.1842,-86 53.1842,-89.5001 53.1843,-82.5001"/>
</g>
<!-- Node984 -->
<g id="node10" class="node">
<title>Node984</title>
<g id="a_node10"><a xlink:href="triangle_8cpp.html#ae367b20189056436da2a1b633b392703" target="_top" xlink:title="insertsegment">
<polygon fill="#ffffff" stroke="#ff0000" points="561,-133.5 561,-152.5 639,-152.5 639,-133.5 561,-133.5"/>
<text text-anchor="middle" x="600" y="-140.5" font-family="Helvetica,sans-Serif" font-size="10.00" fill="#000000">insertsegment</text>
</a>
</g>
</g>
<!-- Node973&#45;&gt;Node984 -->
<g id="edge15" class="edge">
<title>Node973&#45;&gt;Node984</title>
<path fill="none" stroke="#191970" d="M41.9701,-102.1222C78.5075,-129.2279 158.3295,-181 235,-181 235,-181 235,-181 362,-181 433.9696,-181 516.6671,-163.8462 563.1886,-152.589"/>
<polygon fill="#191970" stroke="#191970" points="43.7252,-99.0607 33.6418,-95.8089 39.4965,-104.6391 43.7252,-99.0607"/>
</g>
<!-- Node987 -->
<g id="node12" class="node">
<title>Node987</title>
<g id="a_node12"><a xlink:href="triangle_8cpp.html#aa0ba1198ac22df6403aeaa25b4ebbe37" target="_top" xlink:title="carveholes">
<polygon fill="#ffffff" stroke="#000000" points="81,-.5 81,-19.5 145,-19.5 145,-.5 81,-.5"/>
<text text-anchor="middle" x="113" y="-7.5" font-family="Helvetica,sans-Serif" font-size="10.00" fill="#000000">carveholes</text>
</a>
</g>
</g>
<!-- Node973&#45;&gt;Node987 -->
<g id="edge16" class="edge">
<title>Node973&#45;&gt;Node987</title>
<path fill="none" stroke="#191970" d="M40.857,-69.9221C59.2495,-54.6452 86.2913,-32.1843 101.5056,-19.5473"/>
<polygon fill="#191970" stroke="#191970" points="38.5448,-67.2927 33.0885,-76.3745 43.0174,-72.6775 38.5448,-67.2927"/>
</g>
<!-- Node975 -->
<g id="node3" class="node">
<title>Node975</title>
<g id="a_node3"><a xlink:href="triangle_8cpp.html#a4e3735a2f4c1fa18deb1a2e66aeda7bd" target="_top" xlink:title="undovertex">
<polygon fill="#ffffff" stroke="#000000" points="202.5,-57.5 202.5,-76.5 267.5,-76.5 267.5,-57.5 202.5,-57.5"/>
<text text-anchor="middle" x="235" y="-64.5" font-family="Helvetica,sans-Serif" font-size="10.00" fill="#000000">undovertex</text>
</a>
</g>
</g>
<!-- Node974&#45;&gt;Node975 -->
<g id="edge2" class="edge">
<title>Node974&#45;&gt;Node975</title>
<path fill="none" stroke="#191970" d="M157.3054,-79.1C172.1442,-76.789 188.4109,-74.2557 202.2085,-72.1069"/>
<polygon fill="#191970" stroke="#191970" points="156.6507,-75.6597 147.3085,-80.6569 157.728,-82.5763 156.6507,-75.6597"/>
</g>
<!-- Node976 -->
<g id="node4" class="node">
<title>Node976</title>
<g id="a_node4"><a xlink:href="triangle_8cpp.html#a48fc63d369d988c08cbe8ab40f0b8af5" target="_top" xlink:title="splittriangle">
<polygon fill="#ffffff" stroke="#000000" points="329,-57.5 329,-76.5 395,-76.5 395,-57.5 329,-57.5"/>
<text text-anchor="middle" x="362" y="-64.5" font-family="Helvetica,sans-Serif" font-size="10.00" fill="#000000">splittriangle</text>
</a>
</g>
</g>
<!-- Node974&#45;&gt;Node976 -->
<g id="edge14" class="edge">
<title>Node974&#45;&gt;Node976</title>
<path fill="none" stroke="#191970" d="M157.5961,-89.026C192.8594,-90.6909 243.2629,-91.4539 287,-86 301.9284,-84.1385 318.1499,-80.2691 331.6757,-76.505"/>
<polygon fill="#191970" stroke="#191970" points="157.33,-85.5077 147.1625,-88.4863 156.9683,-92.4983 157.33,-85.5077"/>
</g>
<!-- Node981 -->
<g id="node7" class="node">
<title>Node981</title>
<g id="a_node7"><a xlink:href="triangle_8cpp.html#a496c50bca0cf0c214a0204419c3b181a" target="_top" xlink:title="segmentintersection">
<polygon fill="#ffffff" stroke="#000000" points="183,-133.5 183,-152.5 287,-152.5 287,-133.5 183,-133.5"/>
<text text-anchor="middle" x="235" y="-140.5" font-family="Helvetica,sans-Serif" font-size="10.00" fill="#000000">segmentintersection</text>
</a>
</g>
</g>
<!-- Node974&#45;&gt;Node981 -->
<g id="edge6" class="edge">
<title>Node974&#45;&gt;Node981</title>
<path fill="none" stroke="#191970" d="M142.2758,-99.8662C154.8072,-105.7848 169.6103,-112.754 183,-119 193.2723,-123.7918 204.7076,-129.0751 214.2331,-133.4621"/>
<polygon fill="#191970" stroke="#191970" points="143.7334,-96.6839 133.1968,-95.5744 140.7418,-103.0125 143.7334,-96.6839"/>
</g>
<!-- Node986 -->
<g id="node11" class="node">
<title>Node986</title>
<g id="a_node11"><a xlink:href="triangle_8cpp.html#adca37fc9e90f78c9ae794662de5428bd" target="_top" xlink:title="splitencsegs">
<polygon fill="#ffffff" stroke="#000000" points="326.5,-19.5 326.5,-38.5 397.5,-38.5 397.5,-19.5 326.5,-19.5"/>
<text text-anchor="middle" x="362" y="-26.5" font-family="Helvetica,sans-Serif" font-size="10.00" fill="#000000">splitencsegs</text>
</a>
</g>
</g>
<!-- Node974&#45;&gt;Node986 -->
<g id="edge12" class="edge">
<title>Node974&#45;&gt;Node986</title>
<path fill="none" stroke="#191970" d="M135.2075,-71.0145C148.4963,-62.8125 166.0493,-53.2722 183,-48 231.0438,-33.0569 289.4561,-29.3945 326.1929,-28.7341"/>
<polygon fill="#191970" stroke="#191970" points="133.2974,-68.0815 126.7488,-76.4101 137.0619,-73.9831 133.2974,-68.0815"/>
</g>
<!-- Node975&#45;&gt;Node976 -->
<g id="edge3" class="edge">
<title>Node975&#45;&gt;Node976</title>
<path fill="none" stroke="#191970" d="M277.7806,-67C294.4847,-67 313.3371,-67 328.9638,-67"/>
<polygon fill="#191970" stroke="#191970" points="277.7057,-63.5001 267.7057,-67 277.7056,-70.5001 277.7057,-63.5001"/>
</g>
<!-- Node977 -->
<g id="node5" class="node">
<title>Node977</title>
<g id="a_node5"><a xlink:href="triangle_8cpp.html#a5a654ff6b304f2166c64ffe9183b2995" target="_top" xlink:title="enforcequality">
<polygon fill="#ffffff" stroke="#000000" points="442.5,-19.5 442.5,-38.5 519.5,-38.5 519.5,-19.5 442.5,-19.5"/>
<text text-anchor="middle" x="481" y="-26.5" font-family="Helvetica,sans-Serif" font-size="10.00" fill="#000000">enforcequality</text>
</a>
</g>
</g>
<!-- Node976&#45;&gt;Node977 -->
<g id="edge4" class="edge">
<title>Node976&#45;&gt;Node977</title>
<path fill="none" stroke="#191970" d="M401.7098,-54.3196C417.7886,-49.1852 436.0433,-43.3559 450.9809,-38.5859"/>
<polygon fill="#191970" stroke="#191970" points="400.4901,-51.0348 392.0287,-57.411 402.6195,-57.7031 400.4901,-51.0348"/>
</g>
<!-- Node978 -->
<g id="node6" class="node">
<title>Node978</title>
<g id="a_node6"><a xlink:href="triangle_8hpp.html#a848df2990f66cdbdc9d1ac87f4646527" target="_top" xlink:title="Call Triangle. ">
<polygon fill="#ffffff" stroke="#ff0000" points="569,-.5 569,-19.5 631,-19.5 631,-.5 569,-.5"/>
<text text-anchor="middle" x="600" y="-7.5" font-family="Helvetica,sans-Serif" font-size="10.00" fill="#000000">triangulate</text>
</a>
</g>
</g>
<!-- Node977&#45;&gt;Node978 -->
<g id="edge5" class="edge">
<title>Node977&#45;&gt;Node978</title>
<path fill="none" stroke="#191970" d="M529.549,-21.2485C542.7615,-19.1389 556.7202,-16.9102 568.6965,-14.998"/>
<polygon fill="#191970" stroke="#191970" points="528.959,-17.7983 519.6359,-22.8312 530.0627,-24.7107 528.959,-17.7983"/>
</g>
<!-- Node982 -->
<g id="node8" class="node">
<title>Node982</title>
<g id="a_node8"><a xlink:href="triangle_8cpp.html#ae9d4ed09a0fd07959568ba5f86cc4d0c" target="_top" xlink:title="scoutsegment">
<polygon fill="#ffffff" stroke="#000000" points="323,-133.5 323,-152.5 401,-152.5 401,-133.5 323,-133.5"/>
<text text-anchor="middle" x="362" y="-140.5" font-family="Helvetica,sans-Serif" font-size="10.00" fill="#000000">scoutsegment</text>
</a>
</g>
</g>
<!-- Node981&#45;&gt;Node982 -->
<g id="edge7" class="edge">
<title>Node981&#45;&gt;Node982</title>
<path fill="none" stroke="#191970" d="M297.1725,-143C305.8652,-143 314.5912,-143 322.6983,-143"/>
<polygon fill="#191970" stroke="#191970" points="297.0222,-139.5001 287.0222,-143 297.0222,-146.5001 297.0222,-139.5001"/>
</g>
<!-- Node983 -->
<g id="node9" class="node">
<title>Node983</title>
<g id="a_node9"><a xlink:href="triangle_8cpp.html#aded205ef0849b44d2a587f53fd720618" target="_top" xlink:title="constrainededge">
<polygon fill="#ffffff" stroke="#000000" points="437,-95.5 437,-114.5 525,-114.5 525,-95.5 437,-95.5"/>
<text text-anchor="middle" x="481" y="-102.5" font-family="Helvetica,sans-Serif" font-size="10.00" fill="#000000">constrainededge</text>
</a>
</g>
</g>
<!-- Node981&#45;&gt;Node983 -->
<g id="edge11" class="edge">
<title>Node981&#45;&gt;Node983</title>
<path fill="none" stroke="#191970" d="M285.6108,-131.231C297.8115,-128.6273 310.837,-126.0398 323,-124 361.283,-117.5796 405.1359,-112.4836 436.9137,-109.1921"/>
<polygon fill="#191970" stroke="#191970" points="284.6207,-127.8644 275.5933,-133.4102 286.1088,-134.7044 284.6207,-127.8644"/>
</g>
<!-- Node982&#45;&gt;Node983 -->
<g id="edge8" class="edge">
<title>Node982&#45;&gt;Node983</title>
<path fill="none" stroke="#191970" d="M401.7098,-130.3196C417.7886,-125.1852 436.0433,-119.3559 450.9809,-114.5859"/>
<polygon fill="#191970" stroke="#191970" points="400.4901,-127.0348 392.0287,-133.411 402.6195,-133.7031 400.4901,-127.0348"/>
</g>
<!-- Node982&#45;&gt;Node984 -->
<g id="edge10" class="edge">
<title>Node982&#45;&gt;Node984</title>
<path fill="none" stroke="#191970" d="M411.3008,-143C455.6817,-143 520.0369,-143 560.9443,-143"/>
<polygon fill="#191970" stroke="#191970" points="411.0344,-139.5001 401.0344,-143 411.0343,-146.5001 411.0344,-139.5001"/>
</g>
<!-- Node983&#45;&gt;Node984 -->
<g id="edge9" class="edge">
<title>Node983&#45;&gt;Node984</title>
<path fill="none" stroke="#191970" d="M520.7098,-117.6804C536.7886,-122.8148 555.0433,-128.6441 569.9809,-133.4141"/>
<polygon fill="#191970" stroke="#191970" points="521.6195,-114.2969 511.0287,-114.589 519.4901,-120.9652 521.6195,-114.2969"/>
</g>
<!-- Node986&#45;&gt;Node977 -->
<g id="edge13" class="edge">
<title>Node986&#45;&gt;Node977</title>
<path fill="none" stroke="#191970" d="M407.9205,-29C419.3163,-29 431.414,-29 442.4181,-29"/>
<polygon fill="#191970" stroke="#191970" points="407.704,-25.5001 397.7039,-29 407.7039,-32.5001 407.704,-25.5001"/>
</g>
<!-- Node987&#45;&gt;Node978 -->
<g id="edge17" class="edge">
<title>Node987&#45;&gt;Node978</title>
<path fill="none" stroke="#191970" d="M155.5734,-10C251.9019,-10 484.7304,-10 568.9444,-10"/>
<polygon fill="#191970" stroke="#191970" points="155.3306,-6.5001 145.3306,-10 155.3305,-13.5001 155.3306,-6.5001"/>
</g>
</g>
</svg>
