<?xml version="1.0" encoding="UTF-8" standalone="no"?>
<!DOCTYPE svg PUBLIC "-//W3C//DTD SVG 1.1//EN"
 "http://www.w3.org/Graphics/SVG/1.1/DTD/svg11.dtd">
<!-- Generated by graphviz version 2.40.1 (20161225.0304)
 -->
<!-- Title: vertexsort Pages: 1 -->
<svg width="617pt" height="28pt"
 viewBox="0.00 0.00 617.00 28.00" xmlns="http://www.w3.org/2000/svg" xmlns:xlink="http://www.w3.org/1999/xlink">
<g id="graph0" class="graph" transform="scale(1 1) rotate(0) translate(4 24)">
<title>vertexsort</title>
<polygon fill="#ffffff" stroke="transparent" points="-4,4 -4,-24 613,-24 613,4 -4,4"/>
<!-- Node1155 -->
<g id="node1" class="node">
<title>Node1155</title>
<polygon fill="#bfbfbf" stroke="#000000" points="0,-.5 0,-19.5 60,-19.5 60,-.5 0,-.5"/>
<text text-anchor="middle" x="30" y="-7.5" font-family="Helvetica,sans-Serif" font-size="10.00" fill="#000000">vertexsort</text>
</g>
<!-- Node1156 -->
<g id="node2" class="node">
<title>Node1156</title>
<g id="a_node2"><a xlink:href="triangle_8cpp.html#a4a13891380126c239a32b46c88f06223" target="_top" xlink:title="divconqdelaunay">
<polygon fill="#ffffff" stroke="#000000" points="96,-.5 96,-19.5 185,-19.5 185,-.5 96,-.5"/>
<text text-anchor="middle" x="140.5" y="-7.5" font-family="Helvetica,sans-Serif" font-size="10.00" fill="#000000">divconqdelaunay</text>
</a>
</g>
</g>
<!-- Node1155&#45;&gt;Node1156 -->
<g id="edge1" class="edge">
<title>Node1155&#45;&gt;Node1156</title>
<path fill="none" stroke="#191970" d="M70.3651,-10C78.647,-10 87.4111,-10 95.8341,-10"/>
<polygon fill="#191970" stroke="#191970" points="70.1946,-6.5001 60.1946,-10 70.1946,-13.5001 70.1946,-6.5001"/>
</g>
<!-- Node1157 -->
<g id="node3" class="node">
<title>Node1157</title>
<g id="a_node3"><a xlink:href="triangle_8cpp.html#ab67faa70960c7c39ee1150ab4d55f0a5" target="_top" xlink:title="delaunay">
<polygon fill="#ffffff" stroke="#000000" points="221,-.5 221,-19.5 277,-19.5 277,-.5 221,-.5"/>
<text text-anchor="middle" x="249" y="-7.5" font-family="Helvetica,sans-Serif" font-size="10.00" fill="#000000">delaunay</text>
</a>
</g>
</g>
<!-- Node1156&#45;&gt;Node1157 -->
<g id="edge2" class="edge">
<title>Node1156&#45;&gt;Node1157</title>
<path fill="none" stroke="#191970" d="M195.5013,-10C204.2639,-10 213.0004,-10 220.796,-10"/>
<polygon fill="#191970" stroke="#191970" points="195.2576,-6.5001 185.2575,-10 195.2575,-13.5001 195.2576,-6.5001"/>
</g>
<!-- Node1158 -->
<g id="node4" class="node">
<title>Node1158</title>
<g id="a_node4"><a xlink:href="triangle_8hpp.html#a848df2990f66cdbdc9d1ac87f4646527" target="_top" xlink:title="Call Triangle. ">
<polygon fill="#ffffff" stroke="#000000" points="313,-.5 313,-19.5 375,-19.5 375,-.5 313,-.5"/>
<text text-anchor="middle" x="344" y="-7.5" font-family="Helvetica,sans-Serif" font-size="10.00" fill="#000000">triangulate</text>
</a>
</g>
</g>
<!-- Node1157&#45;&gt;Node1158 -->
<g id="edge3" class="edge">
<title>Node1157&#45;&gt;Node1158</title>
<path fill="none" stroke="#191970" d="M287.2737,-10C295.7213,-10 304.5739,-10 312.7063,-10"/>
<polygon fill="#191970" stroke="#191970" points="287.246,-6.5001 277.2459,-10 287.2459,-13.5001 287.246,-6.5001"/>
</g>
<!-- Node1159 -->
<g id="node5" class="node">
<title>Node1159</title>
<g id="a_node5"><a xlink:href="classRiver_1_1Triangle.html#a7bc9c5a5297dee136ab1489a923182dd" target="_top" xlink:title="Generate mesh. ">
<polygon fill="#ffffff" stroke="#000000" points="411,-.5 411,-19.5 535,-19.5 535,-.5 411,-.5"/>
<text text-anchor="middle" x="473" y="-7.5" font-family="Helvetica,sans-Serif" font-size="10.00" fill="#000000">River::Triangle::generate</text>
</a>
</g>
</g>
<!-- Node1158&#45;&gt;Node1159 -->
<g id="edge4" class="edge">
<title>Node1158&#45;&gt;Node1159</title>
<path fill="none" stroke="#191970" d="M385.2629,-10C393.4682,-10 402.2527,-10 410.9767,-10"/>
<polygon fill="#191970" stroke="#191970" points="385.2273,-6.5001 375.2273,-10 385.2273,-13.5001 385.2273,-6.5001"/>
</g>
<!-- Node1160 -->
<g id="node6" class="node">
<title>Node1160</title>
<g id="a_node6"><a xlink:href="main_8cpp.html#a0ddf1224851353fc92bfbff6f499fa97" target="_top" xlink:title="Entry point of RiverSim program. ">
<polygon fill="#ffffff" stroke="#000000" points="571,-.5 571,-19.5 609,-19.5 609,-.5 571,-.5"/>
<text text-anchor="middle" x="590" y="-7.5" font-family="Helvetica,sans-Serif" font-size="10.00" fill="#000000">main</text>
</a>
</g>
</g>
<!-- Node1159&#45;&gt;Node1160 -->
<g id="edge5" class="edge">
<title>Node1159&#45;&gt;Node1160</title>
<path fill="none" stroke="#191970" d="M545.5174,-10C554.8253,-10 563.6301,-10 570.912,-10"/>
<polygon fill="#191970" stroke="#191970" points="545.2682,-6.5001 535.2682,-10 545.2682,-13.5001 545.2682,-6.5001"/>
</g>
</g>
</svg>
