<?xml version="1.0" encoding="UTF-8" standalone="no"?>
<!DOCTYPE svg PUBLIC "-//W3C//DTD SVG 1.1//EN"
 "http://www.w3.org/Graphics/SVG/1.1/DTD/svg11.dtd">
<!-- Generated by graphviz version 2.40.1 (20161225.0304)
 -->
<!-- Title: reconstruct Pages: 1 -->
<svg width="586pt" height="28pt"
 viewBox="0.00 0.00 586.00 28.00" xmlns="http://www.w3.org/2000/svg" xmlns:xlink="http://www.w3.org/1999/xlink">
<g id="graph0" class="graph" transform="scale(1 1) rotate(0) translate(4 24)">
<title>reconstruct</title>
<polygon fill="#ffffff" stroke="transparent" points="-4,4 -4,-24 582,-24 582,4 -4,4"/>
<!-- Node1381 -->
<g id="node1" class="node">
<title>Node1381</title>
<polygon fill="#bfbfbf" stroke="#000000" points="0,-.5 0,-19.5 65,-19.5 65,-.5 0,-.5"/>
<text text-anchor="middle" x="32.5" y="-7.5" font-family="Helvetica,sans-Serif" font-size="10.00" fill="#000000">reconstruct</text>
</g>
<!-- Node1382 -->
<g id="node2" class="node">
<title>Node1382</title>
<g id="a_node2"><a xlink:href="triangle_8hpp.html#a4ca59bf5fe569672944651426b662ba6" target="_top" xlink:title="Call Triangle. ">
<polygon fill="#ffffff" stroke="#000000" points="101,-.5 101,-19.5 163,-19.5 163,-.5 101,-.5"/>
<text text-anchor="middle" x="132" y="-7.5" font-family="Helvetica,sans-Serif" font-size="10.00" fill="#000000">triangulate</text>
</a>
</g>
</g>
<!-- Node1381&#45;&gt;Node1382 -->
<g id="edge1" class="edge">
<title>Node1381&#45;&gt;Node1382</title>
<path fill="none" stroke="#191970" d="M75.2854,-10C83.8223,-10 92.6383,-10 100.7011,-10"/>
<polygon fill="#191970" stroke="#191970" points="75.0801,-6.5001 65.08,-10 75.08,-13.5001 75.0801,-6.5001"/>
</g>
<!-- Node1383 -->
<g id="node3" class="node">
<title>Node1383</title>
<g id="a_node3"><a xlink:href="classRiver_1_1Triangle.html#a0dae20b40d446e6009a88543e2c14daf" target="_top" xlink:title="Generate mesh. ">
<polygon fill="#ffffff" stroke="#000000" points="199,-.5 199,-19.5 323,-19.5 323,-.5 199,-.5"/>
<text text-anchor="middle" x="261" y="-7.5" font-family="Helvetica,sans-Serif" font-size="10.00" fill="#000000">River::Triangle::generate</text>
</a>
</g>
</g>
<!-- Node1382&#45;&gt;Node1383 -->
<g id="edge2" class="edge">
<title>Node1382&#45;&gt;Node1383</title>
<path fill="none" stroke="#191970" d="M173.2629,-10C181.4682,-10 190.2527,-10 198.9767,-10"/>
<polygon fill="#191970" stroke="#191970" points="173.2273,-6.5001 163.2273,-10 173.2273,-13.5001 173.2273,-6.5001"/>
</g>
<!-- Node1384 -->
<g id="node4" class="node">
<title>Node1384</title>
<g id="a_node4"><a xlink:href="namespaceRiver.html#af1a3f7c61809dd8032e4ff5920da83cc" target="_top" xlink:title="One step of forward river evolution. ">
<polygon fill="#ffffff" stroke="#000000" points="359,-.5 359,-19.5 504,-19.5 504,-.5 359,-.5"/>
<text text-anchor="middle" x="431.5" y="-7.5" font-family="Helvetica,sans-Serif" font-size="10.00" fill="#000000">River::ForwardRiverEvolution</text>
</a>
</g>
</g>
<!-- Node1383&#45;&gt;Node1384 -->
<g id="edge3" class="edge">
<title>Node1383&#45;&gt;Node1384</title>
<path fill="none" stroke="#191970" d="M333.2431,-10C341.7006,-10 350.333,-10 358.7967,-10"/>
<polygon fill="#191970" stroke="#191970" points="333.0368,-6.5001 323.0367,-10 333.0367,-13.5001 333.0368,-6.5001"/>
</g>
<!-- Node1385 -->
<g id="node5" class="node">
<title>Node1385</title>
<g id="a_node5"><a xlink:href="main_8cpp.html#a0ddf1224851353fc92bfbff6f499fa97" target="_top" xlink:title="Entry point of RiverSim program. ">
<polygon fill="#ffffff" stroke="#000000" points="540,-.5 540,-19.5 578,-19.5 578,-.5 540,-.5"/>
<text text-anchor="middle" x="559" y="-7.5" font-family="Helvetica,sans-Serif" font-size="10.00" fill="#000000">main</text>
</a>
</g>
</g>
<!-- Node1384&#45;&gt;Node1385 -->
<g id="edge4" class="edge">
<title>Node1384&#45;&gt;Node1385</title>
<path fill="none" stroke="#191970" d="M514.2526,-10C523.7338,-10 532.5978,-10 539.8947,-10"/>
<polygon fill="#191970" stroke="#191970" points="514.1886,-6.5001 504.1886,-10 514.1885,-13.5001 514.1886,-6.5001"/>
</g>
</g>
</svg>
