<?xml version="1.0" encoding="UTF-8" standalone="no"?>
<!DOCTYPE svg PUBLIC "-//W3C//DTD SVG 1.1//EN"
 "http://www.w3.org/Graphics/SVG/1.1/DTD/svg11.dtd">
<!-- Generated by graphviz version 2.40.1 (20161225.0304)
 -->
<!-- Title: splitencsegs Pages: 1 -->
<svg width="1046pt" height="750pt"
 viewBox="0.00 0.00 1046.00 750.00" xmlns="http://www.w3.org/2000/svg" xmlns:xlink="http://www.w3.org/1999/xlink">
<g id="graph0" class="graph" transform="scale(1 1) rotate(0) translate(4 746)">
<title>splitencsegs</title>
<polygon fill="#ffffff" stroke="transparent" points="-4,4 -4,-746 1042,-746 1042,4 -4,4"/>
<!-- Node1722 -->
<g id="node1" class="node">
<title>Node1722</title>
<polygon fill="#bfbfbf" stroke="#000000" points="0,-190.5 0,-209.5 71,-209.5 71,-190.5 0,-190.5"/>
<text text-anchor="middle" x="35.5" y="-197.5" font-family="Helvetica,sans-Serif" font-size="10.00" fill="#000000">splitencsegs</text>
</g>
<!-- Node1723 -->
<g id="node2" class="node">
<title>Node1723</title>
<g id="a_node2"><a xlink:href="triangle_8cpp.html#ac497210bc9192d88ed80659833ba5f55" target="_top" xlink:title="traversalinit">
<polygon fill="#ffffff" stroke="#000000" points="123,-665.5 123,-684.5 190,-684.5 190,-665.5 123,-665.5"/>
<text text-anchor="middle" x="156.5" y="-672.5" font-family="Helvetica,sans-Serif" font-size="10.00" fill="#000000">traversalinit</text>
</a>
</g>
</g>
<!-- Node1722&#45;&gt;Node1723 -->
<g id="edge1" class="edge">
<title>Node1722&#45;&gt;Node1723</title>
<path fill="none" stroke="#191970" d="M35.7369,-209.7483C37.3683,-269.2988 48.6824,-583.8713 107,-656 108.9261,-658.3823 111.1881,-660.4663 113.666,-662.2893"/>
<polygon fill="#191970" stroke="#191970" points="112.3385,-665.5645 122.7483,-667.5361 115.8401,-659.5032 112.3385,-665.5645"/>
</g>
<!-- Node1724 -->
<g id="node3" class="node">
<title>Node1724</title>
<g id="a_node3"><a xlink:href="triangle_8cpp.html#abdc0a65518400e99b9a48b03aaca6d57" target="_top" xlink:title="badsubsegtraverse">
<polygon fill="#ffffff" stroke="#000000" points="107,-627.5 107,-646.5 206,-646.5 206,-627.5 107,-627.5"/>
<text text-anchor="middle" x="156.5" y="-634.5" font-family="Helvetica,sans-Serif" font-size="10.00" fill="#000000">badsubsegtraverse</text>
</a>
</g>
</g>
<!-- Node1722&#45;&gt;Node1724 -->
<g id="edge2" class="edge">
<title>Node1722&#45;&gt;Node1724</title>
<path fill="none" stroke="#191970" d="M35.8854,-209.663C38.3158,-266.0552 53.1952,-552.3895 107,-618 107.985,-619.2011 109.0552,-620.3265 110.1952,-621.3808"/>
<polygon fill="#191970" stroke="#191970" points="108.3938,-624.3952 118.5658,-627.3588 112.4621,-618.6988 108.3938,-624.3952"/>
</g>
<!-- Node1726 -->
<g id="node5" class="node">
<title>Node1726</title>
<g id="a_node5"><a xlink:href="triangle_8cpp.html#a9a6911e4ef926cd4546bb41819b1c8c5" target="_top" xlink:title="deletevertex">
<polygon fill="#ffffff" stroke="#000000" points="121.5,-551.5 121.5,-570.5 191.5,-570.5 191.5,-551.5 121.5,-551.5"/>
<text text-anchor="middle" x="156.5" y="-558.5" font-family="Helvetica,sans-Serif" font-size="10.00" fill="#000000">deletevertex</text>
</a>
</g>
</g>
<!-- Node1722&#45;&gt;Node1726 -->
<g id="edge4" class="edge">
<title>Node1722&#45;&gt;Node1726</title>
<path fill="none" stroke="#191970" d="M38.7365,-209.6559C55.0061,-258.1958 127.9509,-475.8244 150.1012,-541.9094"/>
<polygon fill="#191970" stroke="#191970" points="146.8131,-543.1128 153.3098,-551.482 153.4502,-540.8881 146.8131,-543.1128"/>
</g>
<!-- Node1739 -->
<g id="node18" class="node">
<title>Node1739</title>
<g id="a_node18"><a xlink:href="triangle_8cpp.html#ab1760445583959132ffd9998372c9aac" target="_top" xlink:title="poolalloc">
<polygon fill="#ffffff" stroke="#ff0000" points="645,-399.5 645,-418.5 700,-418.5 700,-399.5 645,-399.5"/>
<text text-anchor="middle" x="672.5" y="-406.5" font-family="Helvetica,sans-Serif" font-size="10.00" fill="#000000">poolalloc</text>
</a>
</g>
</g>
<!-- Node1722&#45;&gt;Node1739 -->
<g id="edge23" class="edge">
<title>Node1722&#45;&gt;Node1739</title>
<path fill="none" stroke="#191970" d="M71.004,-191.282C119.8835,-180.0631 210.8022,-162 289.5,-162 289.5,-162 289.5,-162 425,-162 501.7565,-162 533.1154,-161.4665 590,-213 593.5289,-216.1969 644.9752,-341.5961 664.7947,-390.1089"/>
<polygon fill="#191970" stroke="#191970" points="661.5951,-391.532 668.6152,-399.4673 668.0759,-388.8862 661.5951,-391.532"/>
</g>
<!-- Node1745 -->
<g id="node22" class="node">
<title>Node1745</title>
<g id="a_node22"><a xlink:href="triangle_8cpp.html#adbb7ef8fc2a92efceb7c1c152fbd22f1" target="_top" xlink:title="counterclockwise">
<polygon fill="#ffffff" stroke="#000000" points="626.5,-266.5 626.5,-285.5 718.5,-285.5 718.5,-266.5 626.5,-266.5"/>
<text text-anchor="middle" x="672.5" y="-273.5" font-family="Helvetica,sans-Serif" font-size="10.00" fill="#000000">counterclockwise</text>
</a>
</g>
</g>
<!-- Node1722&#45;&gt;Node1745 -->
<g id="edge24" class="edge">
<title>Node1722&#45;&gt;Node1745</title>
<path fill="none" stroke="#191970" d="M45.1734,-190.4597C58.0786,-178.3653 82.1959,-157.9006 107,-148 182.9803,-117.6722 207.6905,-124 289.5,-124 289.5,-124 289.5,-124 425,-124 499.105,-124 527.6653,-107.9258 590,-148 630.4252,-173.9888 655.0373,-227.6071 665.9109,-256.5138"/>
<polygon fill="#191970" stroke="#191970" points="662.7403,-258.0414 669.4099,-266.2735 669.3296,-255.679 662.7403,-258.0414"/>
</g>
<!-- Node1747 -->
<g id="node24" class="node">
<title>Node1747</title>
<g id="a_node24"><a xlink:href="triangle_8cpp.html#a82ca659affb40214baeea87b1b0ce480" target="_top" xlink:title="precisionerror">
<polygon fill="#ffffff" stroke="#000000" points="119,-76.5 119,-95.5 194,-95.5 194,-76.5 119,-76.5"/>
<text text-anchor="middle" x="156.5" y="-83.5" font-family="Helvetica,sans-Serif" font-size="10.00" fill="#000000">precisionerror</text>
</a>
</g>
</g>
<!-- Node1722&#45;&gt;Node1747 -->
<g id="edge28" class="edge">
<title>Node1722&#45;&gt;Node1747</title>
<path fill="none" stroke="#191970" d="M41.0653,-190.4293C51.8303,-172.6032 77.0982,-133.9564 107,-110 111.6317,-106.2893 116.9314,-102.9659 122.3019,-100.0605"/>
<polygon fill="#191970" stroke="#191970" points="123.9157,-103.1668 131.3015,-95.5708 120.7908,-96.903 123.9157,-103.1668"/>
</g>
<!-- Node1741 -->
<g id="node25" class="node">
<title>Node1741</title>
<g id="a_node25"><a xlink:href="triangle_8cpp.html#a648abfc70d158485620dbcb9aa990178" target="_top" xlink:title="triexit">
<polygon fill="#ffffff" stroke="#000000" points="269,-19.5 269,-38.5 310,-38.5 310,-19.5 269,-19.5"/>
<text text-anchor="middle" x="289.5" y="-26.5" font-family="Helvetica,sans-Serif" font-size="10.00" fill="#000000">triexit</text>
</a>
</g>
</g>
<!-- Node1722&#45;&gt;Node1741 -->
<g id="edge29" class="edge">
<title>Node1722&#45;&gt;Node1741</title>
<path fill="none" stroke="#191970" d="M37.6651,-190.459C43.7995,-165.7422 63.7292,-99.3117 107,-67 151.9172,-33.4589 219.6019,-27.91 258.6804,-27.8287"/>
<polygon fill="#191970" stroke="#191970" points="258.8664,-31.3307 268.9013,-27.9321 258.9372,-24.3311 258.8664,-31.3307"/>
</g>
<!-- Node1748 -->
<g id="node26" class="node">
<title>Node1748</title>
<g id="a_node26"><a xlink:href="triangle_8cpp.html#a2ede94743503e369e9b1c6c2a0ac9f7f" target="_top" xlink:title="insertvertex">
<polygon fill="#ffffff" stroke="#000000" points="255.5,-361.5 255.5,-380.5 323.5,-380.5 323.5,-361.5 255.5,-361.5"/>
<text text-anchor="middle" x="289.5" y="-368.5" font-family="Helvetica,sans-Serif" font-size="10.00" fill="#000000">insertvertex</text>
</a>
</g>
</g>
<!-- Node1722&#45;&gt;Node1748 -->
<g id="edge30" class="edge">
<title>Node1722&#45;&gt;Node1748</title>
<path fill="none" stroke="#191970" d="M49.8839,-209.6837C92.0585,-238.0768 215.6485,-321.2811 266.8646,-355.7612"/>
<polygon fill="#191970" stroke="#191970" points="265.0239,-358.7412 275.2739,-361.4226 268.9332,-352.9345 265.0239,-358.7412"/>
</g>
<!-- Node1757 -->
<g id="node35" class="node">
<title>Node1757</title>
<g id="a_node35"><a xlink:href="triangle_8cpp.html#a6f0c7fd3fa9fb9a02403f67c7651feac" target="_top" xlink:title="checkseg4encroach">
<polygon fill="#ffffff" stroke="#000000" points="373,-190.5 373,-209.5 477,-209.5 477,-190.5 373,-190.5"/>
<text text-anchor="middle" x="425" y="-197.5" font-family="Helvetica,sans-Serif" font-size="10.00" fill="#000000">checkseg4encroach</text>
</a>
</g>
</g>
<!-- Node1722&#45;&gt;Node1757 -->
<g id="edge53" class="edge">
<title>Node1722&#45;&gt;Node1757</title>
<path fill="none" stroke="#191970" d="M71.0981,-200C137.2831,-200 280.0332,-200 362.5851,-200"/>
<polygon fill="#191970" stroke="#191970" points="362.8363,-203.5001 372.8362,-200 362.8362,-196.5001 362.8363,-203.5001"/>
</g>
<!-- Node1758 -->
<g id="node36" class="node">
<title>Node1758</title>
<g id="a_node36"><a xlink:href="triangle_8cpp.html#acc5f6f0f74028ace8827250ac3e0e05e" target="_top" xlink:title="internalerror">
<polygon fill="#ffffff" stroke="#000000" points="122.5,-.5 122.5,-19.5 190.5,-19.5 190.5,-.5 122.5,-.5"/>
<text text-anchor="middle" x="156.5" y="-7.5" font-family="Helvetica,sans-Serif" font-size="10.00" fill="#000000">internalerror</text>
</a>
</g>
</g>
<!-- Node1722&#45;&gt;Node1758 -->
<g id="edge51" class="edge">
<title>Node1722&#45;&gt;Node1758</title>
<path fill="none" stroke="#191970" d="M37.1848,-190.4601C42.5203,-162.8192 61.4585,-81.6263 107,-34 110.4488,-30.3934 114.5518,-27.2592 118.8983,-24.5548"/>
<polygon fill="#191970" stroke="#191970" points="120.9142,-27.4429 128.0306,-19.5939 117.5727,-21.2919 120.9142,-27.4429"/>
</g>
<!-- Node1759 -->
<g id="node37" class="node">
<title>Node1759</title>
<g id="a_node37"><a xlink:href="triangle_8cpp.html#a4b434331e44bcd968e32c370cb354749" target="_top" xlink:title="badsubsegdealloc">
<polygon fill="#ffffff" stroke="#000000" points="109,-589.5 109,-608.5 204,-608.5 204,-589.5 109,-589.5"/>
<text text-anchor="middle" x="156.5" y="-596.5" font-family="Helvetica,sans-Serif" font-size="10.00" fill="#000000">badsubsegdealloc</text>
</a>
</g>
</g>
<!-- Node1722&#45;&gt;Node1759 -->
<g id="edge54" class="edge">
<title>Node1722&#45;&gt;Node1759</title>
<path fill="none" stroke="#191970" d="M36.0754,-209.8195C39.4021,-263.4779 57.7692,-520.9715 107,-580 107.9949,-581.1929 109.0738,-582.3111 110.2211,-583.3593"/>
<polygon fill="#191970" stroke="#191970" points="108.4412,-586.3875 118.625,-589.3098 112.4863,-580.6746 108.4412,-586.3875"/>
</g>
<!-- Node1725 -->
<g id="node4" class="node">
<title>Node1725</title>
<g id="a_node4"><a xlink:href="triangle_8cpp.html#a908560980328e10c897c5c34bb733e9d" target="_top" xlink:title="traverse">
<polygon fill="#ffffff" stroke="#000000" points="263.5,-722.5 263.5,-741.5 315.5,-741.5 315.5,-722.5 263.5,-722.5"/>
<text text-anchor="middle" x="289.5" y="-729.5" font-family="Helvetica,sans-Serif" font-size="10.00" fill="#000000">traverse</text>
</a>
</g>
</g>
<!-- Node1724&#45;&gt;Node1725 -->
<g id="edge3" class="edge">
<title>Node1724&#45;&gt;Node1725</title>
<path fill="none" stroke="#191970" d="M189.6726,-646.5471C195.4482,-649.073 201.1501,-652.1901 206,-656 228.1044,-673.3643 220.8036,-689.5383 242,-708 246.1803,-711.641 251.0104,-714.8936 255.956,-717.7399"/>
<polygon fill="#191970" stroke="#191970" points="254.3868,-720.8691 264.8674,-722.4206 257.6418,-714.6719 254.3868,-720.8691"/>
</g>
<!-- Node1727 -->
<g id="node6" class="node">
<title>Node1727</title>
<g id="a_node6"><a xlink:href="triangle_8cpp.html#a98df73a1a399900d056c423c18d5fd72" target="_top" xlink:title="vertexdealloc">
<polygon fill="#ffffff" stroke="#000000" points="252.5,-608.5 252.5,-627.5 326.5,-627.5 326.5,-608.5 252.5,-608.5"/>
<text text-anchor="middle" x="289.5" y="-615.5" font-family="Helvetica,sans-Serif" font-size="10.00" fill="#000000">vertexdealloc</text>
</a>
</g>
</g>
<!-- Node1726&#45;&gt;Node1727 -->
<g id="edge5" class="edge">
<title>Node1726&#45;&gt;Node1727</title>
<path fill="none" stroke="#191970" d="M182.3093,-570.5676C189.9727,-573.4996 198.3591,-576.7984 206,-580 224.1257,-587.5949 244.177,-596.6965 260.0868,-604.0879"/>
<polygon fill="#191970" stroke="#191970" points="258.8619,-607.3788 269.4034,-608.4404 261.8247,-601.0367 258.8619,-607.3788"/>
</g>
<!-- Node1729 -->
<g id="node8" class="node">
<title>Node1729</title>
<g id="a_node8"><a xlink:href="triangle_8cpp.html#a8ab6fa4f05809e4cb6838ba724de2f88" target="_top" xlink:title="triangulatepolygon">
<polygon fill="#ffffff" stroke="#000000" points="242,-532.5 242,-551.5 337,-551.5 337,-532.5 242,-532.5"/>
<text text-anchor="middle" x="289.5" y="-539.5" font-family="Helvetica,sans-Serif" font-size="10.00" fill="#000000">triangulatepolygon</text>
</a>
</g>
</g>
<!-- Node1726&#45;&gt;Node1729 -->
<g id="edge7" class="edge">
<title>Node1726&#45;&gt;Node1729</title>
<path fill="none" stroke="#191970" d="M191.7924,-555.9582C203.9347,-554.2236 217.8723,-552.2325 231.3455,-550.3078"/>
<polygon fill="#191970" stroke="#191970" points="232.1162,-553.7333 241.5207,-548.8542 231.1262,-546.8037 232.1162,-553.7333"/>
</g>
<!-- Node1737 -->
<g id="node16" class="node">
<title>Node1737</title>
<g id="a_node16"><a xlink:href="triangle_8cpp.html#a816cae4d440df52b7bc162b05f92cc75" target="_top" xlink:title="testtriangle">
<polygon fill="#ffffff" stroke="#000000" points="392.5,-608.5 392.5,-627.5 457.5,-627.5 457.5,-608.5 392.5,-608.5"/>
<text text-anchor="middle" x="425" y="-615.5" font-family="Helvetica,sans-Serif" font-size="10.00" fill="#000000">testtriangle</text>
</a>
</g>
</g>
<!-- Node1726&#45;&gt;Node1737 -->
<g id="edge20" class="edge">
<title>Node1726&#45;&gt;Node1737</title>
<path fill="none" stroke="#191970" d="M191.7898,-568.3734C228.1835,-575.9906 286.5753,-588.2486 337,-599 351.7608,-602.1472 367.9065,-605.6235 382.2923,-608.7328"/>
<polygon fill="#191970" stroke="#191970" points="381.8974,-612.2282 392.4114,-610.922 383.3776,-605.3865 381.8974,-612.2282"/>
</g>
<!-- Node1744 -->
<g id="node21" class="node">
<title>Node1744</title>
<g id="a_node21"><a xlink:href="triangle_8cpp.html#a3bd3bd17a942635e55f283dc27f32ddb" target="_top" xlink:title="triangledealloc">
<polygon fill="#ffffff" stroke="#000000" points="250,-646.5 250,-665.5 329,-665.5 329,-646.5 250,-646.5"/>
<text text-anchor="middle" x="289.5" y="-653.5" font-family="Helvetica,sans-Serif" font-size="10.00" fill="#000000">triangledealloc</text>
</a>
</g>
</g>
<!-- Node1726&#45;&gt;Node1744 -->
<g id="edge21" class="edge">
<title>Node1726&#45;&gt;Node1744</title>
<path fill="none" stroke="#191970" d="M190.3216,-570.6103C195.9059,-573.1127 201.374,-576.2053 206,-580 229.1661,-599.0028 218.9675,-617.8353 242,-637 243.9714,-638.6404 246.1024,-640.1524 248.3319,-641.5442"/>
<polygon fill="#191970" stroke="#191970" points="246.8211,-644.7052 257.2901,-646.3334 250.1214,-638.5321 246.8211,-644.7052"/>
</g>
<!-- Node1728 -->
<g id="node7" class="node">
<title>Node1728</title>
<g id="a_node7"><a xlink:href="triangle_8cpp.html#a3f4425b06c516b9f5d647a1384c74d51" target="_top" xlink:title="pooldealloc">
<polygon fill="#ffffff" stroke="#000000" points="392.5,-646.5 392.5,-665.5 457.5,-665.5 457.5,-646.5 392.5,-646.5"/>
<text text-anchor="middle" x="425" y="-653.5" font-family="Helvetica,sans-Serif" font-size="10.00" fill="#000000">pooldealloc</text>
</a>
</g>
</g>
<!-- Node1727&#45;&gt;Node1728 -->
<g id="edge6" class="edge">
<title>Node1727&#45;&gt;Node1728</title>
<path fill="none" stroke="#191970" d="M323.6924,-627.589C341.5026,-632.5838 363.4522,-638.7394 382.3617,-644.0424"/>
<polygon fill="#191970" stroke="#191970" points="381.6472,-647.477 392.2208,-646.8073 383.5374,-640.737 381.6472,-647.477"/>
</g>
<!-- Node1730 -->
<g id="node9" class="node">
<title>Node1730</title>
<g id="a_node9"><a xlink:href="triangle_8cpp.html#abbd721e83ed16c99082c2152fa55e2ee" target="_top" xlink:title="incircle">
<polygon fill="#ffffff" stroke="#000000" points="401.5,-532.5 401.5,-551.5 448.5,-551.5 448.5,-532.5 401.5,-532.5"/>
<text text-anchor="middle" x="425" y="-539.5" font-family="Helvetica,sans-Serif" font-size="10.00" fill="#000000">incircle</text>
</a>
</g>
</g>
<!-- Node1729&#45;&gt;Node1730 -->
<g id="edge8" class="edge">
<title>Node1729&#45;&gt;Node1730</title>
<path fill="none" stroke="#191970" d="M337.2722,-542C355.023,-542 374.7832,-542 391.049,-542"/>
<polygon fill="#191970" stroke="#191970" points="391.1772,-545.5001 401.1771,-542 391.1771,-538.5001 391.1772,-545.5001"/>
</g>
<!-- Node1735 -->
<g id="node14" class="node">
<title>Node1735</title>
<g id="a_node14"><a xlink:href="triangle_8cpp.html#adaf57083638c866f831ae08a5e993b12" target="_top" xlink:title="flip">
<polygon fill="#ffffff" stroke="#000000" points="410.5,-570.5 410.5,-589.5 439.5,-589.5 439.5,-570.5 410.5,-570.5"/>
<text text-anchor="middle" x="425" y="-577.5" font-family="Helvetica,sans-Serif" font-size="10.00" fill="#000000">flip</text>
</a>
</g>
</g>
<!-- Node1729&#45;&gt;Node1735 -->
<g id="edge13" class="edge">
<title>Node1729&#45;&gt;Node1735</title>
<path fill="none" stroke="#191970" d="M323.6924,-551.589C347.6778,-558.3156 379.1706,-567.1475 400.635,-573.167"/>
<polygon fill="#191970" stroke="#191970" points="399.716,-576.5443 410.2897,-575.8746 401.6063,-569.8043 399.716,-576.5443"/>
</g>
<!-- Node1729&#45;&gt;Node1737 -->
<g id="edge15" class="edge">
<title>Node1729&#45;&gt;Node1737</title>
<path fill="none" stroke="#191970" d="M311.4921,-551.5562C319.7747,-555.5501 329.096,-560.5356 337,-566 354.8537,-578.3432 354.4521,-587.7267 373,-599 376.2289,-600.9625 379.6924,-602.7703 383.2423,-604.4247"/>
<polygon fill="#191970" stroke="#191970" points="382.1657,-607.7697 392.739,-608.4463 384.8955,-601.3238 382.1657,-607.7697"/>
</g>
<!-- Node1731 -->
<g id="node10" class="node">
<title>Node1731</title>
<g id="a_node10"><a xlink:href="triangle_8cpp.html#ade6dfff2bcdf2f287e419bc4e2a211dc" target="_top" xlink:title="incircleadapt">
<polygon fill="#ffffff" stroke="#000000" points="777.5,-462.5 777.5,-481.5 848.5,-481.5 848.5,-462.5 777.5,-462.5"/>
<text text-anchor="middle" x="813" y="-469.5" font-family="Helvetica,sans-Serif" font-size="10.00" fill="#000000">incircleadapt</text>
</a>
</g>
</g>
<!-- Node1730&#45;&gt;Node1731 -->
<g id="edge9" class="edge">
<title>Node1730&#45;&gt;Node1731</title>
<path fill="none" stroke="#191970" d="M448.6681,-549.2128C480.8631,-558.0057 540.1622,-570.5779 590,-561 664.658,-546.6521 746.1218,-507.5766 786.8024,-486.2884"/>
<polygon fill="#191970" stroke="#191970" points="788.5784,-489.3084 795.7755,-481.5333 785.3007,-483.1232 788.5784,-489.3084"/>
</g>
<!-- Node1732 -->
<g id="node11" class="node">
<title>Node1732</title>
<g id="a_node11"><a xlink:href="triangle_8cpp.html#abdcdaa8948d9a2937154d9d67f67da8d" target="_top" xlink:title="scale_expansion_zeroelim">
<polygon fill="#ffffff" stroke="#000000" points="907,-484.5 907,-503.5 1038,-503.5 1038,-484.5 907,-484.5"/>
<text text-anchor="middle" x="972.5" y="-491.5" font-family="Helvetica,sans-Serif" font-size="10.00" fill="#000000">scale_expansion_zeroelim</text>
</a>
</g>
</g>
<!-- Node1731&#45;&gt;Node1732 -->
<g id="edge10" class="edge">
<title>Node1731&#45;&gt;Node1732</title>
<path fill="none" stroke="#191970" d="M848.7949,-476.9372C862.9423,-478.8886 879.7735,-481.2101 896.3932,-483.5025"/>
<polygon fill="#191970" stroke="#191970" points="896.3037,-487.0232 906.6882,-484.9225 897.2602,-480.0889 896.3037,-487.0232"/>
</g>
<!-- Node1733 -->
<g id="node12" class="node">
<title>Node1733</title>
<g id="a_node12"><a xlink:href="triangle_8cpp.html#a37646a7e0014e10c612e946bc95aeeea" target="_top" xlink:title="fast_expansion_sum\l_zeroelim">
<polygon fill="#ffffff" stroke="#000000" points="919,-435 919,-465 1026,-465 1026,-435 919,-435"/>
<text text-anchor="start" x="927" y="-453" font-family="Helvetica,sans-Serif" font-size="10.00" fill="#000000">fast_expansion_sum</text>
<text text-anchor="middle" x="972.5" y="-442" font-family="Helvetica,sans-Serif" font-size="10.00" fill="#000000">_zeroelim</text>
</a>
</g>
</g>
<!-- Node1731&#45;&gt;Node1733 -->
<g id="edge11" class="edge">
<title>Node1731&#45;&gt;Node1733</title>
<path fill="none" stroke="#191970" d="M848.7949,-467.0628C866.5545,-464.6132 888.5433,-461.5802 909.034,-458.7539"/>
<polygon fill="#191970" stroke="#191970" points="909.5198,-462.2202 918.9477,-457.3865 908.5632,-455.2858 909.5198,-462.2202"/>
</g>
<!-- Node1734 -->
<g id="node13" class="node">
<title>Node1734</title>
<g id="a_node13"><a xlink:href="triangle_8cpp.html#a3487d9f90ea72da543d5d38b3dab1fbc" target="_top" xlink:title="estimate">
<polygon fill="#ffffff" stroke="#000000" points="945.5,-396.5 945.5,-415.5 999.5,-415.5 999.5,-396.5 945.5,-396.5"/>
<text text-anchor="middle" x="972.5" y="-403.5" font-family="Helvetica,sans-Serif" font-size="10.00" fill="#000000">estimate</text>
</a>
</g>
</g>
<!-- Node1731&#45;&gt;Node1734 -->
<g id="edge12" class="edge">
<title>Node1731&#45;&gt;Node1734</title>
<path fill="none" stroke="#191970" d="M830.6392,-462.3171C849.2503,-452.3524 879.6199,-436.8005 907,-426 916.194,-422.3733 926.3232,-418.9931 935.811,-416.0818"/>
<polygon fill="#191970" stroke="#191970" points="936.8145,-419.4349 945.4,-413.2269 934.817,-412.726 936.8145,-419.4349"/>
</g>
<!-- Node1736 -->
<g id="node15" class="node">
<title>Node1736</title>
<g id="a_node15"><a xlink:href="triangle_8cpp.html#a62ccb7c855c68af7a6918e23ccb158e6" target="_top" xlink:title="printtriangle">
<polygon fill="#ffffff" stroke="#000000" points="518,-532.5 518,-551.5 585,-551.5 585,-532.5 518,-532.5"/>
<text text-anchor="middle" x="551.5" y="-539.5" font-family="Helvetica,sans-Serif" font-size="10.00" fill="#000000">printtriangle</text>
</a>
</g>
</g>
<!-- Node1735&#45;&gt;Node1736 -->
<g id="edge14" class="edge">
<title>Node1735&#45;&gt;Node1736</title>
<path fill="none" stroke="#191970" d="M439.5112,-575.6409C456.6228,-570.5007 485.8104,-561.7329 510.0979,-554.437"/>
<polygon fill="#191970" stroke="#191970" points="511.2431,-557.7476 519.8133,-551.5185 509.2292,-551.0435 511.2431,-557.7476"/>
</g>
<!-- Node1738 -->
<g id="node17" class="node">
<title>Node1738</title>
<g id="a_node17"><a xlink:href="triangle_8cpp.html#a6b67091e1472b3c8d48c8540148dc1a8" target="_top" xlink:title="enqueuebadtri">
<polygon fill="#ffffff" stroke="#000000" points="513,-608.5 513,-627.5 590,-627.5 590,-608.5 513,-608.5"/>
<text text-anchor="middle" x="551.5" y="-615.5" font-family="Helvetica,sans-Serif" font-size="10.00" fill="#000000">enqueuebadtri</text>
</a>
</g>
</g>
<!-- Node1737&#45;&gt;Node1738 -->
<g id="edge16" class="edge">
<title>Node1737&#45;&gt;Node1738</title>
<path fill="none" stroke="#191970" d="M457.5769,-618C471.2571,-618 487.4633,-618 502.529,-618"/>
<polygon fill="#191970" stroke="#191970" points="502.732,-621.5001 512.7319,-618 502.7319,-614.5001 502.732,-621.5001"/>
</g>
<!-- Node1743 -->
<g id="node20" class="node">
<title>Node1743</title>
<g id="a_node20"><a xlink:href="triangle_8cpp.html#a435eb334f65dbd9268038e8881e24554" target="_top" xlink:title="triunsuitable">
<polygon fill="#ffffff" stroke="#000000" points="517,-646.5 517,-665.5 586,-665.5 586,-646.5 517,-646.5"/>
<text text-anchor="middle" x="551.5" y="-653.5" font-family="Helvetica,sans-Serif" font-size="10.00" fill="#000000">triunsuitable</text>
</a>
</g>
</g>
<!-- Node1737&#45;&gt;Node1743 -->
<g id="edge19" class="edge">
<title>Node1737&#45;&gt;Node1743</title>
<path fill="none" stroke="#191970" d="M456.9213,-627.589C472.9516,-632.4044 492.5738,-638.2988 509.7816,-643.468"/>
<polygon fill="#191970" stroke="#191970" points="509.0047,-646.8891 519.5889,-646.4141 511.0187,-640.185 509.0047,-646.8891"/>
</g>
<!-- Node1738&#45;&gt;Node1739 -->
<g id="edge17" class="edge">
<title>Node1738&#45;&gt;Node1739</title>
<path fill="none" stroke="#191970" d="M558.6149,-608.1014C566.5782,-596.881 579.7121,-577.9446 590,-561 618.4358,-514.1651 648.2523,-456.8656 663.032,-427.8186"/>
<polygon fill="#191970" stroke="#191970" points="666.2108,-429.2886 667.6058,-418.786 659.9658,-426.1263 666.2108,-429.2886"/>
</g>
<!-- Node1742 -->
<g id="node19" class="node">
<title>Node1742</title>
<g id="a_node19"><a xlink:href="triangle_8cpp.html#a8b69474415bac9ddab3a5879974338b5" target="_top" xlink:title="enqueuebadtriang">
<polygon fill="#ffffff" stroke="#000000" points="626,-608.5 626,-627.5 719,-627.5 719,-608.5 626,-608.5"/>
<text text-anchor="middle" x="672.5" y="-615.5" font-family="Helvetica,sans-Serif" font-size="10.00" fill="#000000">enqueuebadtriang</text>
</a>
</g>
</g>
<!-- Node1738&#45;&gt;Node1742 -->
<g id="edge18" class="edge">
<title>Node1738&#45;&gt;Node1742</title>
<path fill="none" stroke="#191970" d="M590.1178,-618C598.2704,-618 607.0357,-618 615.6994,-618"/>
<polygon fill="#191970" stroke="#191970" points="615.7805,-621.5001 625.7805,-618 615.7804,-614.5001 615.7805,-621.5001"/>
</g>
<!-- Node1744&#45;&gt;Node1728 -->
<g id="edge22" class="edge">
<title>Node1744&#45;&gt;Node1728</title>
<path fill="none" stroke="#191970" d="M329.0565,-656C345.7461,-656 365.214,-656 382.2352,-656"/>
<polygon fill="#191970" stroke="#191970" points="382.4704,-659.5001 392.4703,-656 382.4703,-652.5001 382.4704,-659.5001"/>
</g>
<!-- Node1746 -->
<g id="node23" class="node">
<title>Node1746</title>
<g id="a_node23"><a xlink:href="triangle_8cpp.html#abd5587da82afca7f6403c3ec3d17139a" target="_top" xlink:title="counterclockwiseadapt">
<polygon fill="#ffffff" stroke="#000000" points="755,-396.5 755,-415.5 871,-415.5 871,-396.5 755,-396.5"/>
<text text-anchor="middle" x="813" y="-403.5" font-family="Helvetica,sans-Serif" font-size="10.00" fill="#000000">counterclockwiseadapt</text>
</a>
</g>
</g>
<!-- Node1745&#45;&gt;Node1746 -->
<g id="edge25" class="edge">
<title>Node1745&#45;&gt;Node1746</title>
<path fill="none" stroke="#191970" d="M683.0603,-285.7711C706.9772,-307.9006 765.4994,-362.0493 795.1533,-389.4871"/>
<polygon fill="#191970" stroke="#191970" points="792.9819,-392.2463 802.699,-396.4688 797.7359,-387.1083 792.9819,-392.2463"/>
</g>
<!-- Node1746&#45;&gt;Node1733 -->
<g id="edge27" class="edge">
<title>Node1746&#45;&gt;Node1733</title>
<path fill="none" stroke="#191970" d="M847.6091,-415.5473C865.5637,-420.5003 888.0699,-426.7089 909.0133,-432.4864"/>
<polygon fill="#191970" stroke="#191970" points="908.2512,-435.9069 918.8219,-435.1922 910.1127,-429.1589 908.2512,-435.9069"/>
</g>
<!-- Node1746&#45;&gt;Node1734 -->
<g id="edge26" class="edge">
<title>Node1746&#45;&gt;Node1734</title>
<path fill="none" stroke="#191970" d="M871.0344,-406C892.3783,-406 915.9686,-406 935.0275,-406"/>
<polygon fill="#191970" stroke="#191970" points="935.1065,-409.5001 945.1065,-406 935.1064,-402.5001 935.1065,-409.5001"/>
</g>
<!-- Node1748&#45;&gt;Node1730 -->
<g id="edge49" class="edge">
<title>Node1748&#45;&gt;Node1730</title>
<path fill="none" stroke="#191970" d="M292.5901,-380.576C301.2824,-406.1484 328.2696,-476.8846 373,-518 378.536,-523.0886 385.3391,-527.2651 392.1775,-530.6244"/>
<polygon fill="#191970" stroke="#191970" points="390.8478,-533.8633 401.409,-534.7076 393.6795,-527.4616 390.8478,-533.8633"/>
</g>
<!-- Node1748&#45;&gt;Node1736 -->
<g id="edge45" class="edge">
<title>Node1748&#45;&gt;Node1736</title>
<path fill="none" stroke="#191970" d="M293.8644,-380.5361C304.3276,-402.3448 332.9776,-456.1941 373,-485 384.2084,-493.0672 459.0793,-515.5098 508.2283,-529.7086"/>
<polygon fill="#191970" stroke="#191970" points="507.4131,-533.116 517.991,-532.5185 509.3492,-526.3891 507.4131,-533.116"/>
</g>
<!-- Node1748&#45;&gt;Node1737 -->
<g id="edge50" class="edge">
<title>Node1748&#45;&gt;Node1737</title>
<path fill="none" stroke="#191970" d="M292.4761,-380.5611C305.354,-421.7099 356.3761,-582.3884 373,-599 375.9002,-601.898 379.2776,-604.3578 382.8927,-606.4449"/>
<polygon fill="#191970" stroke="#191970" points="381.6997,-609.7536 392.2321,-610.9026 384.715,-603.4363 381.6997,-609.7536"/>
</g>
<!-- Node1748&#45;&gt;Node1739 -->
<g id="edge37" class="edge">
<title>Node1748&#45;&gt;Node1739</title>
<path fill="none" stroke="#191970" d="M323.7294,-378.6684C367.3877,-388.0212 445.3464,-403.2897 513,-409 554.4001,-412.4944 602.0603,-411.8927 634.4217,-410.796"/>
<polygon fill="#191970" stroke="#191970" points="634.916,-414.2801 644.7787,-410.4103 634.6554,-407.285 634.916,-414.2801"/>
</g>
<!-- Node1748&#45;&gt;Node1745 -->
<g id="edge48" class="edge">
<title>Node1748&#45;&gt;Node1745</title>
<path fill="none" stroke="#191970" d="M294.0837,-361.2403C304.604,-340.0924 332.7137,-290.238 373,-269 456.9411,-224.7481 573.355,-247.1262 633.3221,-263.6389"/>
<polygon fill="#191970" stroke="#191970" points="632.5697,-267.0636 643.1456,-266.4318 634.484,-260.3304 632.5697,-267.0636"/>
</g>
<!-- Node1749 -->
<g id="node27" class="node">
<title>Node1749</title>
<g id="a_node27"><a xlink:href="triangle_8cpp.html#a51073193cbdba1daea4186d1458890e8" target="_top" xlink:title="locate">
<polygon fill="#ffffff" stroke="#000000" points="403.5,-304.5 403.5,-323.5 446.5,-323.5 446.5,-304.5 403.5,-304.5"/>
<text text-anchor="middle" x="425" y="-311.5" font-family="Helvetica,sans-Serif" font-size="10.00" fill="#000000">locate</text>
</a>
</g>
</g>
<!-- Node1748&#45;&gt;Node1749 -->
<g id="edge31" class="edge">
<title>Node1748&#45;&gt;Node1749</title>
<path fill="none" stroke="#191970" d="M312.1797,-361.4595C334.5271,-352.0587 368.8479,-337.6212 393.768,-327.1382"/>
<polygon fill="#191970" stroke="#191970" points="395.2844,-330.2974 403.1449,-323.1937 392.5701,-323.8451 395.2844,-330.2974"/>
</g>
<!-- Node1751 -->
<g id="node29" class="node">
<title>Node1751</title>
<g id="a_node29"><a xlink:href="triangle_8cpp.html#a34a6e2c35be028da265a50ab3d9d6be6" target="_top" xlink:title="preciselocate">
<polygon fill="#ffffff" stroke="#000000" points="514.5,-266.5 514.5,-285.5 588.5,-285.5 588.5,-266.5 514.5,-266.5"/>
<text text-anchor="middle" x="551.5" y="-273.5" font-family="Helvetica,sans-Serif" font-size="10.00" fill="#000000">preciselocate</text>
</a>
</g>
</g>
<!-- Node1748&#45;&gt;Node1751 -->
<g id="edge36" class="edge">
<title>Node1748&#45;&gt;Node1751</title>
<path fill="none" stroke="#191970" d="M296.514,-361.4935C309.4872,-344.7337 339.0268,-310.2623 373,-295 414.5755,-276.3223 466.905,-272.7843 504.1322,-273.1836"/>
<polygon fill="#191970" stroke="#191970" points="504.1402,-276.6844 514.2102,-273.3913 504.2845,-269.6859 504.1402,-276.6844"/>
</g>
<!-- Node1752 -->
<g id="node30" class="node">
<title>Node1752</title>
<g id="a_node30"><a xlink:href="triangle_8cpp.html#a5f18f6286348f31f222aedb01e8516d4" target="_top" xlink:title="maketriangle">
<polygon fill="#ffffff" stroke="#000000" points="515.5,-380.5 515.5,-399.5 587.5,-399.5 587.5,-380.5 515.5,-380.5"/>
<text text-anchor="middle" x="551.5" y="-387.5" font-family="Helvetica,sans-Serif" font-size="10.00" fill="#000000">maketriangle</text>
</a>
</g>
</g>
<!-- Node1748&#45;&gt;Node1752 -->
<g id="edge38" class="edge">
<title>Node1748&#45;&gt;Node1752</title>
<path fill="none" stroke="#191970" d="M323.8228,-370.2834C361.5036,-369.8762 423.7346,-370.3215 477,-376 486.2258,-376.9835 496.0203,-378.4871 505.3706,-380.1497"/>
<polygon fill="#191970" stroke="#191970" points="504.8223,-383.6078 515.2943,-381.9992 506.1048,-376.7262 504.8223,-383.6078"/>
</g>
<!-- Node1753 -->
<g id="node31" class="node">
<title>Node1753</title>
<g id="a_node31"><a xlink:href="triangle_8cpp.html#a65e7d1a5e6cdb3f22124eca6e7744140" target="_top" xlink:title="insertsubseg">
<polygon fill="#ffffff" stroke="#000000" points="389,-456.5 389,-475.5 461,-475.5 461,-456.5 389,-456.5"/>
<text text-anchor="middle" x="425" y="-463.5" font-family="Helvetica,sans-Serif" font-size="10.00" fill="#000000">insertsubseg</text>
</a>
</g>
</g>
<!-- Node1748&#45;&gt;Node1753 -->
<g id="edge40" class="edge">
<title>Node1748&#45;&gt;Node1753</title>
<path fill="none" stroke="#191970" d="M297.8192,-380.7043C311.8639,-396.5542 341.8101,-428.1184 373,-447 376.2324,-448.9568 379.6983,-450.7607 383.2497,-452.4124"/>
<polygon fill="#191970" stroke="#191970" points="382.1753,-455.7582 392.7488,-456.43 384.9021,-449.3111 382.1753,-455.7582"/>
</g>
<!-- Node1756 -->
<g id="node34" class="node">
<title>Node1756</title>
<g id="a_node34"><a xlink:href="triangle_8cpp.html#a2657afcbf1c107955b10ccf7dbf14c90" target="_top" xlink:title="poolrestart">
<polygon fill="#ffffff" stroke="#000000" points="394,-418.5 394,-437.5 456,-437.5 456,-418.5 394,-418.5"/>
<text text-anchor="middle" x="425" y="-425.5" font-family="Helvetica,sans-Serif" font-size="10.00" fill="#000000">poolrestart</text>
</a>
</g>
</g>
<!-- Node1748&#45;&gt;Node1756 -->
<g id="edge44" class="edge">
<title>Node1748&#45;&gt;Node1756</title>
<path fill="none" stroke="#191970" d="M312.1797,-380.5405C334.261,-389.8294 368.0324,-404.0358 392.874,-414.4857"/>
<polygon fill="#191970" stroke="#191970" points="391.6716,-417.7769 402.2464,-418.4284 394.3859,-411.3246 391.6716,-417.7769"/>
</g>
<!-- Node1748&#45;&gt;Node1757 -->
<g id="edge46" class="edge">
<title>Node1748&#45;&gt;Node1757</title>
<path fill="none" stroke="#191970" d="M292.5901,-361.424C301.2824,-335.8516 328.2696,-265.1154 373,-224 377.1177,-220.2151 381.9364,-216.9348 386.9492,-214.12"/>
<polygon fill="#191970" stroke="#191970" points="388.7005,-217.1573 396.0725,-209.5479 385.5642,-210.8992 388.7005,-217.1573"/>
</g>
<!-- Node1749&#45;&gt;Node1745 -->
<g id="edge33" class="edge">
<title>Node1749&#45;&gt;Node1745</title>
<path fill="none" stroke="#191970" d="M446.7317,-312.2768C478.3935,-309.59 538.9915,-303.7823 590,-295 601.4271,-293.0326 613.646,-290.4734 625.0836,-287.8739"/>
<polygon fill="#191970" stroke="#191970" points="625.9464,-291.2668 634.8941,-285.5931 624.3613,-284.4486 625.9464,-291.2668"/>
</g>
<!-- Node1750 -->
<g id="node28" class="node">
<title>Node1750</title>
<g id="a_node28"><a xlink:href="triangle_8cpp.html#abafde1fa8bfde5489dced6485939a19f" target="_top" xlink:title="randomnation">
<polygon fill="#ffffff" stroke="#000000" points="514,-342.5 514,-361.5 589,-361.5 589,-342.5 514,-342.5"/>
<text text-anchor="middle" x="551.5" y="-349.5" font-family="Helvetica,sans-Serif" font-size="10.00" fill="#000000">randomnation</text>
</a>
</g>
</g>
<!-- Node1749&#45;&gt;Node1750 -->
<g id="edge32" class="edge">
<title>Node1749&#45;&gt;Node1750</title>
<path fill="none" stroke="#191970" d="M446.7461,-320.5324C464.0653,-325.735 488.8178,-333.1706 509.9134,-339.5076"/>
<polygon fill="#191970" stroke="#191970" points="509.0328,-342.8975 519.617,-342.4225 511.0467,-336.1934 509.0328,-342.8975"/>
</g>
<!-- Node1749&#45;&gt;Node1751 -->
<g id="edge34" class="edge">
<title>Node1749&#45;&gt;Node1751</title>
<path fill="none" stroke="#191970" d="M446.7461,-307.4676C464.0653,-302.265 488.8178,-294.8294 509.9134,-288.4924"/>
<polygon fill="#191970" stroke="#191970" points="511.0467,-291.8066 519.617,-285.5775 509.0328,-285.1025 511.0467,-291.8066"/>
</g>
<!-- Node1751&#45;&gt;Node1745 -->
<g id="edge35" class="edge">
<title>Node1751&#45;&gt;Node1745</title>
<path fill="none" stroke="#191970" d="M588.7913,-276C597.3681,-276 606.6784,-276 615.8691,-276"/>
<polygon fill="#191970" stroke="#191970" points="616.1494,-279.5001 626.1494,-276 616.1494,-272.5001 616.1494,-279.5001"/>
</g>
<!-- Node1752&#45;&gt;Node1739 -->
<g id="edge39" class="edge">
<title>Node1752&#45;&gt;Node1739</title>
<path fill="none" stroke="#191970" d="M587.804,-395.7006C602.6226,-398.0275 619.76,-400.7185 634.7263,-403.0686"/>
<polygon fill="#191970" stroke="#191970" points="634.2637,-406.5388 644.6856,-404.6324 635.3496,-399.6235 634.2637,-406.5388"/>
</g>
<!-- Node1754 -->
<g id="node32" class="node">
<title>Node1754</title>
<g id="a_node32"><a xlink:href="triangle_8cpp.html#a38c1f489a079cd860973698d73d5128c" target="_top" xlink:title="makesubseg">
<polygon fill="#ffffff" stroke="#000000" points="515.5,-456.5 515.5,-475.5 587.5,-475.5 587.5,-456.5 515.5,-456.5"/>
<text text-anchor="middle" x="551.5" y="-463.5" font-family="Helvetica,sans-Serif" font-size="10.00" fill="#000000">makesubseg</text>
</a>
</g>
</g>
<!-- Node1753&#45;&gt;Node1754 -->
<g id="edge41" class="edge">
<title>Node1753&#45;&gt;Node1754</title>
<path fill="none" stroke="#191970" d="M461.2498,-466C474.8797,-466 490.5688,-466 505.0034,-466"/>
<polygon fill="#191970" stroke="#191970" points="505.2449,-469.5001 515.2449,-466 505.2448,-462.5001 505.2449,-469.5001"/>
</g>
<!-- Node1755 -->
<g id="node33" class="node">
<title>Node1755</title>
<g id="a_node33"><a xlink:href="triangle_8cpp.html#a3ced5ec1374d5a837ece08d2efe7bcb0" target="_top" xlink:title="printsubseg">
<polygon fill="#ffffff" stroke="#000000" points="518,-494.5 518,-513.5 585,-513.5 585,-494.5 518,-494.5"/>
<text text-anchor="middle" x="551.5" y="-501.5" font-family="Helvetica,sans-Serif" font-size="10.00" fill="#000000">printsubseg</text>
</a>
</g>
</g>
<!-- Node1753&#45;&gt;Node1755 -->
<g id="edge43" class="edge">
<title>Node1753&#45;&gt;Node1755</title>
<path fill="none" stroke="#191970" d="M456.9213,-475.589C472.9516,-480.4044 492.5738,-486.2988 509.7816,-491.468"/>
<polygon fill="#191970" stroke="#191970" points="509.0047,-494.8891 519.5889,-494.4141 511.0187,-488.185 509.0047,-494.8891"/>
</g>
<!-- Node1754&#45;&gt;Node1739 -->
<g id="edge42" class="edge">
<title>Node1754&#45;&gt;Node1739</title>
<path fill="none" stroke="#191970" d="M571.7527,-456.4595C591.2094,-447.2939 620.8298,-433.3405 642.9243,-422.9324"/>
<polygon fill="#191970" stroke="#191970" points="644.6263,-425.9995 652.1812,-418.5716 641.6432,-419.667 644.6263,-425.9995"/>
</g>
<!-- Node1757&#45;&gt;Node1739 -->
<g id="edge47" class="edge">
<title>Node1757&#45;&gt;Node1739</title>
<path fill="none" stroke="#191970" d="M477.1341,-207.8488C512.3105,-215.4029 557.9789,-229.8604 590,-257 632.6178,-293.1209 656.8662,-357.0297 666.9345,-389.2527"/>
<polygon fill="#191970" stroke="#191970" points="663.6986,-390.6493 669.9113,-399.2315 670.4065,-388.6482 663.6986,-390.6493"/>
</g>
<!-- Node1758&#45;&gt;Node1741 -->
<g id="edge52" class="edge">
<title>Node1758&#45;&gt;Node1741</title>
<path fill="none" stroke="#191970" d="M190.7508,-14.893C211.7242,-17.8892 238.3446,-21.6921 258.66,-24.5943"/>
<polygon fill="#191970" stroke="#191970" points="258.2511,-28.0713 268.6456,-26.0208 259.2412,-21.1417 258.2511,-28.0713"/>
</g>
<!-- Node1759&#45;&gt;Node1728 -->
<g id="edge55" class="edge">
<title>Node1759&#45;&gt;Node1728</title>
<path fill="none" stroke="#191970" d="M190.3216,-608.6103C195.9059,-611.1127 201.374,-614.2053 206,-618 229.1661,-637.0028 215.759,-660.5368 242,-675 290.1485,-701.5379 356.2762,-683.802 394.4418,-669.3302"/>
<polygon fill="#191970" stroke="#191970" points="395.9581,-672.4944 403.9707,-665.5627 393.3843,-665.9847 395.9581,-672.4944"/>
</g>
</g>
</svg>
