<?xml version="1.0" encoding="UTF-8" standalone="no"?>
<!DOCTYPE svg PUBLIC "-//W3C//DTD SVG 1.1//EN"
 "http://www.w3.org/Graphics/SVG/1.1/DTD/svg11.dtd">
<!-- Generated by graphviz version 2.40.1 (20161225.0304)
 -->
<!-- Title: testtriangle Pages: 1 -->
<svg width="696pt" height="237pt"
 viewBox="0.00 0.00 696.00 237.00" xmlns="http://www.w3.org/2000/svg" xmlns:xlink="http://www.w3.org/1999/xlink">
<g id="graph0" class="graph" transform="scale(1 1) rotate(0) translate(4 233)">
<title>testtriangle</title>
<polygon fill="#ffffff" stroke="transparent" points="-4,4 -4,-233 692,-233 692,4 -4,4"/>
<!-- Node919 -->
<g id="node1" class="node">
<title>Node919</title>
<polygon fill="#bfbfbf" stroke="#000000" points="0,-57.5 0,-76.5 65,-76.5 65,-57.5 0,-57.5"/>
<text text-anchor="middle" x="32.5" y="-64.5" font-family="Helvetica,sans-Serif" font-size="10.00" fill="#000000">testtriangle</text>
</g>
<!-- Node920 -->
<g id="node2" class="node">
<title>Node920</title>
<g id="a_node2"><a xlink:href="triangle_8cpp.html#a2ede94743503e369e9b1c6c2a0ac9f7f" target="_top" xlink:title="insertvertex">
<polygon fill="#ffffff" stroke="#000000" points="114.5,-114.5 114.5,-133.5 182.5,-133.5 182.5,-114.5 114.5,-114.5"/>
<text text-anchor="middle" x="148.5" y="-121.5" font-family="Helvetica,sans-Serif" font-size="10.00" fill="#000000">insertvertex</text>
</a>
</g>
</g>
<!-- Node919&#45;&gt;Node920 -->
<g id="edge1" class="edge">
<title>Node919&#45;&gt;Node920</title>
<path fill="none" stroke="#191970" d="M57.2511,-81.7207C70.0994,-89.107 86.1728,-97.9563 101,-105 107.8994,-108.2776 115.5238,-111.4973 122.6075,-114.3281"/>
<polygon fill="#191970" stroke="#191970" points="58.9334,-78.6502 48.5296,-76.6476 55.4138,-84.701 58.9334,-78.6502"/>
</g>
<!-- Node933 -->
<g id="node12" class="node">
<title>Node933</title>
<g id="a_node12"><a xlink:href="triangle_8cpp.html#a8ab6fa4f05809e4cb6838ba724de2f88" target="_top" xlink:title="triangulatepolygon">
<polygon fill="#ffffff" stroke="#000000" points="101,-76.5 101,-95.5 196,-95.5 196,-76.5 101,-76.5"/>
<text text-anchor="middle" x="148.5" y="-83.5" font-family="Helvetica,sans-Serif" font-size="10.00" fill="#000000">triangulatepolygon</text>
</a>
</g>
</g>
<!-- Node919&#45;&gt;Node933 -->
<g id="edge15" class="edge">
<title>Node919&#45;&gt;Node933</title>
<path fill="none" stroke="#191970" d="M75.104,-73.9782C83.5209,-75.3569 92.4041,-76.8119 100.9719,-78.2152"/>
<polygon fill="#191970" stroke="#191970" points="75.5554,-70.5056 65.1212,-72.3431 74.4239,-77.4136 75.5554,-70.5056"/>
</g>
<!-- Node934 -->
<g id="node13" class="node">
<title>Node934</title>
<g id="a_node13"><a xlink:href="triangle_8cpp.html#a9a6911e4ef926cd4546bb41819b1c8c5" target="_top" xlink:title="deletevertex">
<polygon fill="#ffffff" stroke="#000000" points="249,-38.5 249,-57.5 319,-57.5 319,-38.5 249,-38.5"/>
<text text-anchor="middle" x="284" y="-45.5" font-family="Helvetica,sans-Serif" font-size="10.00" fill="#000000">deletevertex</text>
</a>
</g>
</g>
<!-- Node919&#45;&gt;Node934 -->
<g id="edge18" class="edge">
<title>Node919&#45;&gt;Node934</title>
<path fill="none" stroke="#191970" d="M75.3608,-63.762C124.1978,-60.0725 203.1113,-54.1109 248.6014,-50.6743"/>
<polygon fill="#191970" stroke="#191970" points="74.8293,-60.2921 65.1214,-64.5356 75.3567,-67.2722 74.8293,-60.2921"/>
</g>
<!-- Node935 -->
<g id="node14" class="node">
<title>Node935</title>
<g id="a_node14"><a xlink:href="triangle_8cpp.html#aff72cd32f2fdfedbedd4270ab70f212d" target="_top" xlink:title="tallyfaces">
<polygon fill="#ffffff" stroke="#000000" points="119,-.5 119,-19.5 178,-19.5 178,-.5 119,-.5"/>
<text text-anchor="middle" x="148.5" y="-7.5" font-family="Helvetica,sans-Serif" font-size="10.00" fill="#000000">tallyfaces</text>
</a>
</g>
</g>
<!-- Node919&#45;&gt;Node935 -->
<g id="edge19" class="edge">
<title>Node919&#45;&gt;Node935</title>
<path fill="none" stroke="#191970" d="M61.0669,-52.9628C82.2014,-42.5778 110.4299,-28.7069 129.0209,-19.5716"/>
<polygon fill="#191970" stroke="#191970" points="59.3472,-49.908 51.9158,-57.4595 62.4344,-56.1906 59.3472,-49.908"/>
</g>
<!-- Node921 -->
<g id="node3" class="node">
<title>Node921</title>
<g id="a_node3"><a xlink:href="triangle_8cpp.html#a4e3735a2f4c1fa18deb1a2e66aeda7bd" target="_top" xlink:title="undovertex">
<polygon fill="#ffffff" stroke="#000000" points="251.5,-114.5 251.5,-133.5 316.5,-133.5 316.5,-114.5 251.5,-114.5"/>
<text text-anchor="middle" x="284" y="-121.5" font-family="Helvetica,sans-Serif" font-size="10.00" fill="#000000">undovertex</text>
</a>
</g>
</g>
<!-- Node920&#45;&gt;Node921 -->
<g id="edge2" class="edge">
<title>Node920&#45;&gt;Node921</title>
<path fill="none" stroke="#191970" d="M192.9183,-124C211.9227,-124 233.717,-124 251.2208,-124"/>
<polygon fill="#191970" stroke="#191970" points="192.6924,-120.5001 182.6924,-124 192.6923,-127.5001 192.6924,-120.5001"/>
</g>
<!-- Node922 -->
<g id="node4" class="node">
<title>Node922</title>
<g id="a_node4"><a xlink:href="triangle_8cpp.html#a48fc63d369d988c08cbe8ab40f0b8af5" target="_top" xlink:title="splittriangle">
<polygon fill="#ffffff" stroke="#000000" points="378,-114.5 378,-133.5 444,-133.5 444,-114.5 378,-114.5"/>
<text text-anchor="middle" x="411" y="-121.5" font-family="Helvetica,sans-Serif" font-size="10.00" fill="#000000">splittriangle</text>
</a>
</g>
</g>
<!-- Node920&#45;&gt;Node922 -->
<g id="edge14" class="edge">
<title>Node920&#45;&gt;Node922</title>
<path fill="none" stroke="#191970" d="M192.2237,-135.8839C204.9504,-138.8149 218.9433,-141.5333 232,-143 277.9333,-148.16 290.133,-148.7195 336,-143 350.9284,-141.1385 367.1499,-137.2691 380.6757,-133.505"/>
<polygon fill="#191970" stroke="#191970" points="192.8715,-132.44 182.3306,-133.5075 191.2365,-139.2464 192.8715,-132.44"/>
</g>
<!-- Node927 -->
<g id="node7" class="node">
<title>Node927</title>
<g id="a_node7"><a xlink:href="triangle_8cpp.html#a496c50bca0cf0c214a0204419c3b181a" target="_top" xlink:title="segmentintersection">
<polygon fill="#ffffff" stroke="#000000" points="232,-190.5 232,-209.5 336,-209.5 336,-190.5 232,-190.5"/>
<text text-anchor="middle" x="284" y="-197.5" font-family="Helvetica,sans-Serif" font-size="10.00" fill="#000000">segmentintersection</text>
</a>
</g>
</g>
<!-- Node920&#45;&gt;Node927 -->
<g id="edge6" class="edge">
<title>Node920&#45;&gt;Node927</title>
<path fill="none" stroke="#191970" d="M171.1146,-139.1533C187.6598,-149.9736 210.8213,-164.5755 232,-176 241.5385,-181.1454 252.3814,-186.2601 261.6888,-190.4375"/>
<polygon fill="#191970" stroke="#191970" points="172.9328,-136.1599 162.658,-133.5753 169.0784,-142.0032 172.9328,-136.1599"/>
</g>
<!-- Node932 -->
<g id="node11" class="node">
<title>Node932</title>
<g id="a_node11"><a xlink:href="triangle_8cpp.html#adca37fc9e90f78c9ae794662de5428bd" target="_top" xlink:title="splitencsegs">
<polygon fill="#ffffff" stroke="#000000" points="375.5,-57.5 375.5,-76.5 446.5,-76.5 446.5,-57.5 375.5,-57.5"/>
<text text-anchor="middle" x="411" y="-64.5" font-family="Helvetica,sans-Serif" font-size="10.00" fill="#000000">splitencsegs</text>
</a>
</g>
</g>
<!-- Node920&#45;&gt;Node932 -->
<g id="edge12" class="edge">
<title>Node920&#45;&gt;Node932</title>
<path fill="none" stroke="#191970" d="M192.5124,-113.8591C205.2444,-110.9597 219.1678,-107.8219 232,-105 281.6441,-94.083 339.155,-81.9685 375.3069,-74.4178"/>
<polygon fill="#191970" stroke="#191970" points="191.5704,-110.484 182.6006,-116.1226 193.1289,-117.3084 191.5704,-110.484"/>
</g>
<!-- Node921&#45;&gt;Node922 -->
<g id="edge3" class="edge">
<title>Node921&#45;&gt;Node922</title>
<path fill="none" stroke="#191970" d="M326.7806,-124C343.4847,-124 362.3371,-124 377.9638,-124"/>
<polygon fill="#191970" stroke="#191970" points="326.7057,-120.5001 316.7057,-124 326.7056,-127.5001 326.7057,-120.5001"/>
</g>
<!-- Node923 -->
<g id="node5" class="node">
<title>Node923</title>
<g id="a_node5"><a xlink:href="triangle_8cpp.html#a5a654ff6b304f2166c64ffe9183b2995" target="_top" xlink:title="enforcequality">
<polygon fill="#ffffff" stroke="#000000" points="491.5,-57.5 491.5,-76.5 568.5,-76.5 568.5,-57.5 491.5,-57.5"/>
<text text-anchor="middle" x="530" y="-64.5" font-family="Helvetica,sans-Serif" font-size="10.00" fill="#000000">enforcequality</text>
</a>
</g>
</g>
<!-- Node922&#45;&gt;Node923 -->
<g id="edge4" class="edge">
<title>Node922&#45;&gt;Node923</title>
<path fill="none" stroke="#191970" d="M440.0132,-110.1029C461.7257,-99.7028 490.8594,-85.748 510.0171,-76.5716"/>
<polygon fill="#191970" stroke="#191970" points="438.4247,-106.9829 430.9179,-114.4595 441.4487,-113.2961 438.4247,-106.9829"/>
</g>
<!-- Node924 -->
<g id="node6" class="node">
<title>Node924</title>
<g id="a_node6"><a xlink:href="triangle_8hpp.html#a848df2990f66cdbdc9d1ac87f4646527" target="_top" xlink:title="Call Triangle. ">
<polygon fill="#ffffff" stroke="#ff0000" points="618,-57.5 618,-76.5 680,-76.5 680,-57.5 618,-57.5"/>
<text text-anchor="middle" x="649" y="-64.5" font-family="Helvetica,sans-Serif" font-size="10.00" fill="#000000">triangulate</text>
</a>
</g>
</g>
<!-- Node923&#45;&gt;Node924 -->
<g id="edge5" class="edge">
<title>Node923&#45;&gt;Node924</title>
<path fill="none" stroke="#191970" d="M578.9378,-67C592.035,-67 605.8376,-67 617.6965,-67"/>
<polygon fill="#191970" stroke="#191970" points="578.6359,-63.5001 568.6359,-67 578.6359,-70.5001 578.6359,-63.5001"/>
</g>
<!-- Node928 -->
<g id="node8" class="node">
<title>Node928</title>
<g id="a_node8"><a xlink:href="triangle_8cpp.html#ae9d4ed09a0fd07959568ba5f86cc4d0c" target="_top" xlink:title="scoutsegment">
<polygon fill="#ffffff" stroke="#000000" points="372,-171.5 372,-190.5 450,-190.5 450,-171.5 372,-171.5"/>
<text text-anchor="middle" x="411" y="-178.5" font-family="Helvetica,sans-Serif" font-size="10.00" fill="#000000">scoutsegment</text>
</a>
</g>
</g>
<!-- Node927&#45;&gt;Node928 -->
<g id="edge7" class="edge">
<title>Node927&#45;&gt;Node928</title>
<path fill="none" stroke="#191970" d="M346.1725,-190.6986C354.8652,-189.3981 363.5912,-188.0927 371.6983,-186.8798"/>
<polygon fill="#191970" stroke="#191970" points="345.3942,-187.276 336.0222,-192.2172 346.43,-194.1989 345.3942,-187.276"/>
</g>
<!-- Node929 -->
<g id="node9" class="node">
<title>Node929</title>
<g id="a_node9"><a xlink:href="triangle_8cpp.html#aded205ef0849b44d2a587f53fd720618" target="_top" xlink:title="constrainededge">
<polygon fill="#ffffff" stroke="#000000" points="486,-209.5 486,-228.5 574,-228.5 574,-209.5 486,-209.5"/>
<text text-anchor="middle" x="530" y="-216.5" font-family="Helvetica,sans-Serif" font-size="10.00" fill="#000000">constrainededge</text>
</a>
</g>
</g>
<!-- Node927&#45;&gt;Node929 -->
<g id="edge11" class="edge">
<title>Node927&#45;&gt;Node929</title>
<path fill="none" stroke="#191970" d="M346.3549,-204.816C389.8512,-208.1755 446.8425,-212.5773 485.7271,-215.5806"/>
<polygon fill="#191970" stroke="#191970" points="346.4101,-201.31 336.1703,-204.0294 345.871,-208.2892 346.4101,-201.31"/>
</g>
<!-- Node928&#45;&gt;Node929 -->
<g id="edge8" class="edge">
<title>Node928&#45;&gt;Node929</title>
<path fill="none" stroke="#191970" d="M450.7098,-193.6804C466.7886,-198.8148 485.0433,-204.6441 499.9809,-209.4141"/>
<polygon fill="#191970" stroke="#191970" points="451.6195,-190.2969 441.0287,-190.589 449.4901,-196.9652 451.6195,-190.2969"/>
</g>
<!-- Node930 -->
<g id="node10" class="node">
<title>Node930</title>
<g id="a_node10"><a xlink:href="triangle_8cpp.html#ae367b20189056436da2a1b633b392703" target="_top" xlink:title="insertsegment">
<polygon fill="#ffffff" stroke="#ff0000" points="610,-190.5 610,-209.5 688,-209.5 688,-190.5 610,-190.5"/>
<text text-anchor="middle" x="649" y="-197.5" font-family="Helvetica,sans-Serif" font-size="10.00" fill="#000000">insertsegment</text>
</a>
</g>
</g>
<!-- Node928&#45;&gt;Node930 -->
<g id="edge10" class="edge">
<title>Node928&#45;&gt;Node930</title>
<path fill="none" stroke="#191970" d="M460.0201,-184.9134C504.4101,-188.4571 568.9506,-193.6095 609.9443,-196.8821"/>
<polygon fill="#191970" stroke="#191970" points="460.2812,-181.4232 450.0344,-184.1162 459.7241,-188.401 460.2812,-181.4232"/>
</g>
<!-- Node929&#45;&gt;Node930 -->
<g id="edge9" class="edge">
<title>Node929&#45;&gt;Node930</title>
<path fill="none" stroke="#191970" d="M584.2778,-210.3338C592.862,-208.9632 601.5922,-207.5693 609.7464,-206.2674"/>
<polygon fill="#191970" stroke="#191970" points="583.6343,-206.8921 574.3112,-211.9251 584.738,-213.8046 583.6343,-206.8921"/>
</g>
<!-- Node932&#45;&gt;Node923 -->
<g id="edge13" class="edge">
<title>Node932&#45;&gt;Node923</title>
<path fill="none" stroke="#191970" d="M456.9205,-67C468.3163,-67 480.414,-67 491.4181,-67"/>
<polygon fill="#191970" stroke="#191970" points="456.704,-63.5001 446.7039,-67 456.7039,-70.5001 456.704,-63.5001"/>
</g>
<!-- Node933&#45;&gt;Node934 -->
<g id="edge16" class="edge">
<title>Node933&#45;&gt;Node934</title>
<path fill="none" stroke="#191970" d="M192.4246,-73.6817C211.0414,-68.4607 232.4087,-62.4684 249.8186,-57.5859"/>
<polygon fill="#191970" stroke="#191970" points="191.3758,-70.3407 182.6924,-76.411 193.266,-77.0807 191.3758,-70.3407"/>
</g>
<!-- Node934&#45;&gt;Node932 -->
<g id="edge17" class="edge">
<title>Node934&#45;&gt;Node932</title>
<path fill="none" stroke="#191970" d="M329.2039,-54.7628C344.3021,-57.0216 360.909,-59.5061 375.1916,-61.6428"/>
<polygon fill="#191970" stroke="#191970" points="329.4473,-51.2603 319.0395,-53.2421 328.4115,-58.1833 329.4473,-51.2603"/>
</g>
<!-- Node935&#45;&gt;Node923 -->
<g id="edge20" class="edge">
<title>Node935&#45;&gt;Node923</title>
<path fill="none" stroke="#191970" d="M188.265,-13.2841C226.2786,-16.5996 285.1629,-22.195 336,-29 386.9114,-35.815 399.6498,-37.8373 450,-48 463.8531,-50.7961 478.9558,-54.2711 492.2699,-57.4817"/>
<polygon fill="#191970" stroke="#191970" points="188.3842,-9.7815 178.1207,-12.4103 187.7835,-16.7556 188.3842,-9.7815"/>
</g>
</g>
</svg>
