<?xml version="1.0" encoding="UTF-8" standalone="no"?>
<!DOCTYPE svg PUBLIC "-//W3C//DTD SVG 1.1//EN"
 "http://www.w3.org/Graphics/SVG/1.1/DTD/svg11.dtd">
<!-- Generated by graphviz version 2.40.1 (20161225.0304)
 -->
<!-- Title: writevoronoi Pages: 1 -->
<svg width="409pt" height="28pt"
 viewBox="0.00 0.00 409.00 28.00" xmlns="http://www.w3.org/2000/svg" xmlns:xlink="http://www.w3.org/1999/xlink">
<g id="graph0" class="graph" transform="scale(1 1) rotate(0) translate(4 24)">
<title>writevoronoi</title>
<polygon fill="#ffffff" stroke="transparent" points="-4,4 -4,-24 405,-24 405,4 -4,4"/>
<!-- Node1871 -->
<g id="node1" class="node">
<title>Node1871</title>
<polygon fill="#bfbfbf" stroke="#000000" points="0,-.5 0,-19.5 69,-19.5 69,-.5 0,-.5"/>
<text text-anchor="middle" x="34.5" y="-7.5" font-family="Helvetica,sans-Serif" font-size="10.00" fill="#000000">writevoronoi</text>
</g>
<!-- Node1872 -->
<g id="node2" class="node">
<title>Node1872</title>
<g id="a_node2"><a xlink:href="triangle_8hpp.html#a848df2990f66cdbdc9d1ac87f4646527" target="_top" xlink:title="Call Triangle. ">
<polygon fill="#ffffff" stroke="#000000" points="105,-.5 105,-19.5 167,-19.5 167,-.5 105,-.5"/>
<text text-anchor="middle" x="136" y="-7.5" font-family="Helvetica,sans-Serif" font-size="10.00" fill="#000000">triangulate</text>
</a>
</g>
</g>
<!-- Node1871&#45;&gt;Node1872 -->
<g id="edge1" class="edge">
<title>Node1871&#45;&gt;Node1872</title>
<path fill="none" stroke="#191970" d="M79.1698,-10C87.8553,-10 96.7818,-10 104.912,-10"/>
<polygon fill="#191970" stroke="#191970" points="79.1467,-6.5001 69.1467,-10 79.1466,-13.5001 79.1467,-6.5001"/>
</g>
<!-- Node1873 -->
<g id="node3" class="node">
<title>Node1873</title>
<g id="a_node3"><a xlink:href="classRiver_1_1Triangle.html#a7bc9c5a5297dee136ab1489a923182dd" target="_top" xlink:title="Generate mesh. ">
<polygon fill="#ffffff" stroke="#000000" points="203,-.5 203,-19.5 327,-19.5 327,-.5 203,-.5"/>
<text text-anchor="middle" x="265" y="-7.5" font-family="Helvetica,sans-Serif" font-size="10.00" fill="#000000">River::Triangle::generate</text>
</a>
</g>
</g>
<!-- Node1872&#45;&gt;Node1873 -->
<g id="edge2" class="edge">
<title>Node1872&#45;&gt;Node1873</title>
<path fill="none" stroke="#191970" d="M177.2629,-10C185.4682,-10 194.2527,-10 202.9767,-10"/>
<polygon fill="#191970" stroke="#191970" points="177.2273,-6.5001 167.2273,-10 177.2273,-13.5001 177.2273,-6.5001"/>
</g>
<!-- Node1874 -->
<g id="node4" class="node">
<title>Node1874</title>
<g id="a_node4"><a xlink:href="main_8cpp.html#a0ddf1224851353fc92bfbff6f499fa97" target="_top" xlink:title="Entry point of RiverSim program. ">
<polygon fill="#ffffff" stroke="#000000" points="363,-.5 363,-19.5 401,-19.5 401,-.5 363,-.5"/>
<text text-anchor="middle" x="382" y="-7.5" font-family="Helvetica,sans-Serif" font-size="10.00" fill="#000000">main</text>
</a>
</g>
</g>
<!-- Node1873&#45;&gt;Node1874 -->
<g id="edge3" class="edge">
<title>Node1873&#45;&gt;Node1874</title>
<path fill="none" stroke="#191970" d="M337.5174,-10C346.8253,-10 355.6301,-10 362.912,-10"/>
<polygon fill="#191970" stroke="#191970" points="337.2682,-6.5001 327.2682,-10 337.2682,-13.5001 337.2682,-6.5001"/>
</g>
</g>
</svg>
