<?xml version="1.0" encoding="UTF-8" standalone="no"?>
<!DOCTYPE svg PUBLIC "-//W3C//DTD SVG 1.1//EN"
 "http://www.w3.org/Graphics/SVG/1.1/DTD/svg11.dtd">
<!-- Generated by graphviz version 2.40.1 (20161225.0304)
 -->
<!-- Title: incircleadapt Pages: 1 -->
<svg width="796pt" height="238pt"
 viewBox="0.00 0.00 796.00 238.39" xmlns="http://www.w3.org/2000/svg" xmlns:xlink="http://www.w3.org/1999/xlink">
<g id="graph0" class="graph" transform="scale(1 1) rotate(0) translate(4 234.3934)">
<title>incircleadapt</title>
<polygon fill="#ffffff" stroke="transparent" points="-4,4 -4,-234.3934 792,-234.3934 792,4 -4,4"/>
<!-- Node730 -->
<g id="node1" class="node">
<title>Node730</title>
<polygon fill="#bfbfbf" stroke="#000000" points="0,-114.5 0,-133.5 71,-133.5 71,-114.5 0,-114.5"/>
<text text-anchor="middle" x="35.5" y="-121.5" font-family="Helvetica,sans-Serif" font-size="10.00" fill="#000000">incircleadapt</text>
</g>
<!-- Node731 -->
<g id="node2" class="node">
<title>Node731</title>
<g id="a_node2"><a xlink:href="triangle_8cpp.html#abbd721e83ed16c99082c2152fa55e2ee" target="_top" xlink:title="incircle">
<polygon fill="#ffffff" stroke="#000000" points="107,-114.5 107,-133.5 154,-133.5 154,-114.5 107,-114.5"/>
<text text-anchor="middle" x="130.5" y="-121.5" font-family="Helvetica,sans-Serif" font-size="10.00" fill="#000000">incircle</text>
</a>
</g>
</g>
<!-- Node730&#45;&gt;Node731 -->
<g id="edge1" class="edge">
<title>Node730&#45;&gt;Node731</title>
<path fill="none" stroke="#191970" d="M81.3636,-124C90.1596,-124 99.0304,-124 106.7678,-124"/>
<polygon fill="#191970" stroke="#191970" points="81.1448,-120.5001 71.1448,-124 81.1447,-127.5001 81.1448,-120.5001"/>
</g>
<!-- Node732 -->
<g id="node3" class="node">
<title>Node732</title>
<g id="a_node3"><a xlink:href="triangle_8cpp.html#ac8f560afde1cc801e155bf3bcd1ed35b" target="_top" xlink:title="nonregular">
<polygon fill="#ffffff" stroke="#000000" points="206.5,-190.5 206.5,-209.5 268.5,-209.5 268.5,-190.5 206.5,-190.5"/>
<text text-anchor="middle" x="237.5" y="-197.5" font-family="Helvetica,sans-Serif" font-size="10.00" fill="#000000">nonregular</text>
</a>
</g>
</g>
<!-- Node731&#45;&gt;Node732 -->
<g id="edge2" class="edge">
<title>Node731&#45;&gt;Node732</title>
<path fill="none" stroke="#191970" d="M145.3781,-141.4626C156.6285,-153.8095 172.9979,-170.0488 190,-181 195.6748,-184.6552 202.1667,-187.8147 208.4902,-190.4507"/>
<polygon fill="#191970" stroke="#191970" points="147.7112,-138.8177 138.4624,-133.6494 142.4695,-143.4573 147.7112,-138.8177"/>
</g>
<!-- Node733 -->
<g id="node4" class="node">
<title>Node733</title>
<g id="a_node4"><a xlink:href="triangle_8cpp.html#a2ede94743503e369e9b1c6c2a0ac9f7f" target="_top" xlink:title="insertvertex">
<polygon fill="#ffffff" stroke="#000000" points="203.5,-152.5 203.5,-171.5 271.5,-171.5 271.5,-152.5 203.5,-152.5"/>
<text text-anchor="middle" x="237.5" y="-159.5" font-family="Helvetica,sans-Serif" font-size="10.00" fill="#000000">insertvertex</text>
</a>
</g>
</g>
<!-- Node731&#45;&gt;Node733 -->
<g id="edge3" class="edge">
<title>Node731&#45;&gt;Node733</title>
<path fill="none" stroke="#191970" d="M163.691,-135.7874C178.7046,-141.1194 196.2241,-147.3413 210.4259,-152.3849"/>
<polygon fill="#191970" stroke="#191970" points="164.8415,-132.4819 154.2468,-132.4334 162.4988,-139.0783 164.8415,-132.4819"/>
</g>
<!-- Node746 -->
<g id="node13" class="node">
<title>Node746</title>
<g id="a_node13"><a xlink:href="triangle_8cpp.html#a8ab6fa4f05809e4cb6838ba724de2f88" target="_top" xlink:title="triangulatepolygon">
<polygon fill="#ffffff" stroke="#000000" points="190,-114.5 190,-133.5 285,-133.5 285,-114.5 190,-114.5"/>
<text text-anchor="middle" x="237.5" y="-121.5" font-family="Helvetica,sans-Serif" font-size="10.00" fill="#000000">triangulatepolygon</text>
</a>
</g>
</g>
<!-- Node731&#45;&gt;Node746 -->
<g id="edge16" class="edge">
<title>Node731&#45;&gt;Node746</title>
<path fill="none" stroke="#191970" d="M164.3599,-124C172.4114,-124 181.152,-124 189.6966,-124"/>
<polygon fill="#191970" stroke="#191970" points="164.2468,-120.5001 154.2468,-124 164.2467,-127.5001 164.2468,-120.5001"/>
</g>
<!-- Node748 -->
<g id="node15" class="node">
<title>Node748</title>
<g id="a_node15"><a xlink:href="triangle_8cpp.html#a8b98b5137610f709b12bc0f9de701534" target="_top" xlink:title="mergehulls">
<polygon fill="#ffffff" stroke="#000000" points="205.5,-10.5 205.5,-29.5 269.5,-29.5 269.5,-10.5 205.5,-10.5"/>
<text text-anchor="middle" x="237.5" y="-17.5" font-family="Helvetica,sans-Serif" font-size="10.00" fill="#000000">mergehulls</text>
</a>
</g>
</g>
<!-- Node731&#45;&gt;Node748 -->
<g id="edge19" class="edge">
<title>Node731&#45;&gt;Node748</title>
<path fill="none" stroke="#191970" d="M146.6157,-106.9169C158.4319,-94.5304 174.9681,-77.4823 190,-63 202.1762,-51.2689 216.6388,-38.3093 226.3801,-29.7157"/>
<polygon fill="#191970" stroke="#191970" points="143.9436,-104.648 139.5956,-114.3095 149.0196,-109.4682 143.9436,-104.648"/>
</g>
<!-- Node752 -->
<g id="node19" class="node">
<title>Node752</title>
<g id="a_node19"><a xlink:href="triangle_8cpp.html#a4ea48503ae03dd0ab0e1c9dc926c3ce2" target="_top" xlink:title="delaunayfixup">
<polygon fill="#ffffff" stroke="#000000" points="334.5,-38.5 334.5,-57.5 411.5,-57.5 411.5,-38.5 334.5,-38.5"/>
<text text-anchor="middle" x="373" y="-45.5" font-family="Helvetica,sans-Serif" font-size="10.00" fill="#000000">delaunayfixup</text>
</a>
</g>
</g>
<!-- Node731&#45;&gt;Node752 -->
<g id="edge23" class="edge">
<title>Node731&#45;&gt;Node752</title>
<path fill="none" stroke="#191970" d="M163.8634,-113.2999C172.3816,-110.5807 181.5264,-107.6726 190,-105 243.474,-88.1345 305.8358,-68.7766 342.2189,-57.5141"/>
<polygon fill="#191970" stroke="#191970" points="162.6887,-110.0009 154.2294,-116.3798 164.8203,-116.6685 162.6887,-110.0009"/>
</g>
<!-- Node734 -->
<g id="node5" class="node">
<title>Node734</title>
<g id="a_node5"><a xlink:href="triangle_8cpp.html#a4e3735a2f4c1fa18deb1a2e66aeda7bd" target="_top" xlink:title="undovertex">
<polygon fill="#ffffff" stroke="#000000" points="340.5,-190.5 340.5,-209.5 405.5,-209.5 405.5,-190.5 340.5,-190.5"/>
<text text-anchor="middle" x="373" y="-197.5" font-family="Helvetica,sans-Serif" font-size="10.00" fill="#000000">undovertex</text>
</a>
</g>
</g>
<!-- Node733&#45;&gt;Node734 -->
<g id="edge4" class="edge">
<title>Node733&#45;&gt;Node734</title>
<path fill="none" stroke="#191970" d="M281.3912,-174.309C300.5187,-179.6731 322.555,-185.8531 340.2208,-190.8073"/>
<polygon fill="#191970" stroke="#191970" points="282.266,-170.9193 271.6924,-171.589 280.3758,-177.6593 282.266,-170.9193"/>
</g>
<!-- Node735 -->
<g id="node6" class="node">
<title>Node735</title>
<g id="a_node6"><a xlink:href="triangle_8cpp.html#a48fc63d369d988c08cbe8ab40f0b8af5" target="_top" xlink:title="splittriangle">
<polygon fill="#ffffff" stroke="#000000" points="472.5,-190.5 472.5,-209.5 538.5,-209.5 538.5,-190.5 472.5,-190.5"/>
<text text-anchor="middle" x="505.5" y="-197.5" font-family="Helvetica,sans-Serif" font-size="10.00" fill="#000000">splittriangle</text>
</a>
</g>
</g>
<!-- Node733&#45;&gt;Node735 -->
<g id="edge15" class="edge">
<title>Node733&#45;&gt;Node735</title>
<path fill="none" stroke="#191970" d="M276.341,-175.8713C279.356,-177.4448 282.2812,-179.154 285,-181 304.2473,-194.0681 299.6287,-209.8075 321,-219 374.9841,-242.2203 445.764,-222.6775 481.9571,-209.5415"/>
<polygon fill="#191970" stroke="#191970" points="277.6825,-172.6347 267.1426,-171.557 274.71,-178.9722 277.6825,-172.6347"/>
</g>
<!-- Node740 -->
<g id="node8" class="node">
<title>Node740</title>
<g id="a_node8"><a xlink:href="triangle_8cpp.html#a496c50bca0cf0c214a0204419c3b181a" target="_top" xlink:title="segmentintersection">
<polygon fill="#ffffff" stroke="#000000" points="321,-76.5 321,-95.5 425,-95.5 425,-76.5 321,-76.5"/>
<text text-anchor="middle" x="373" y="-83.5" font-family="Helvetica,sans-Serif" font-size="10.00" fill="#000000">segmentintersection</text>
</a>
</g>
</g>
<!-- Node733&#45;&gt;Node740 -->
<g id="edge7" class="edge">
<title>Node733&#45;&gt;Node740</title>
<path fill="none" stroke="#191970" d="M276.341,-148.1287C279.356,-146.5552 282.2812,-144.846 285,-143 304.2473,-129.9319 301.5576,-117.7761 321,-105 326.7031,-101.2524 333.2425,-98.1221 339.7158,-95.5549"/>
<polygon fill="#191970" stroke="#191970" points="274.71,-145.0278 267.1426,-152.443 277.6825,-151.3653 274.71,-145.0278"/>
</g>
<!-- Node745 -->
<g id="node12" class="node">
<title>Node745</title>
<g id="a_node12"><a xlink:href="triangle_8cpp.html#adca37fc9e90f78c9ae794662de5428bd" target="_top" xlink:title="splitencsegs">
<polygon fill="#ffffff" stroke="#000000" points="470,-152.5 470,-171.5 541,-171.5 541,-152.5 470,-152.5"/>
<text text-anchor="middle" x="505.5" y="-159.5" font-family="Helvetica,sans-Serif" font-size="10.00" fill="#000000">splitencsegs</text>
</a>
</g>
</g>
<!-- Node733&#45;&gt;Node745 -->
<g id="edge13" class="edge">
<title>Node733&#45;&gt;Node745</title>
<path fill="none" stroke="#191970" d="M281.7648,-162C334.4022,-162 421.2225,-162 469.7834,-162"/>
<polygon fill="#191970" stroke="#191970" points="281.7146,-158.5001 271.7146,-162 281.7146,-165.5001 281.7146,-158.5001"/>
</g>
<!-- Node734&#45;&gt;Node735 -->
<g id="edge5" class="edge">
<title>Node734&#45;&gt;Node735</title>
<path fill="none" stroke="#191970" d="M415.8626,-200C434.134,-200 455.1281,-200 472.2036,-200"/>
<polygon fill="#191970" stroke="#191970" points="415.7529,-196.5001 405.7528,-200 415.7528,-203.5001 415.7529,-196.5001"/>
</g>
<!-- Node736 -->
<g id="node7" class="node">
<title>Node736</title>
<g id="a_node7"><a xlink:href="triangle_8cpp.html#a5a654ff6b304f2166c64ffe9183b2995" target="_top" xlink:title="enforcequality">
<polygon fill="#ffffff" stroke="#ff0000" points="591.5,-171.5 591.5,-190.5 668.5,-190.5 668.5,-171.5 591.5,-171.5"/>
<text text-anchor="middle" x="630" y="-178.5" font-family="Helvetica,sans-Serif" font-size="10.00" fill="#000000">enforcequality</text>
</a>
</g>
</g>
<!-- Node735&#45;&gt;Node736 -->
<g id="edge6" class="edge">
<title>Node735&#45;&gt;Node736</title>
<path fill="none" stroke="#191970" d="M548.7386,-193.4013C562.495,-191.302 577.6216,-188.9935 591.0556,-186.9433"/>
<polygon fill="#191970" stroke="#191970" points="547.8943,-189.9896 538.5369,-194.9582 548.9504,-196.9095 547.8943,-189.9896"/>
</g>
<!-- Node741 -->
<g id="node9" class="node">
<title>Node741</title>
<g id="a_node9"><a xlink:href="triangle_8cpp.html#ae9d4ed09a0fd07959568ba5f86cc4d0c" target="_top" xlink:title="scoutsegment">
<polygon fill="#ffffff" stroke="#000000" points="466.5,-114.5 466.5,-133.5 544.5,-133.5 544.5,-114.5 466.5,-114.5"/>
<text text-anchor="middle" x="505.5" y="-121.5" font-family="Helvetica,sans-Serif" font-size="10.00" fill="#000000">scoutsegment</text>
</a>
</g>
</g>
<!-- Node740&#45;&gt;Node741 -->
<g id="edge8" class="edge">
<title>Node740&#45;&gt;Node741</title>
<path fill="none" stroke="#191970" d="M416.2039,-98.3906C434.3492,-103.5945 455.1294,-109.5541 472.0754,-114.4141"/>
<polygon fill="#191970" stroke="#191970" points="417.0127,-94.9815 406.4353,-95.589 415.0829,-101.7102 417.0127,-94.9815"/>
</g>
<!-- Node742 -->
<g id="node10" class="node">
<title>Node742</title>
<g id="a_node10"><a xlink:href="triangle_8cpp.html#aded205ef0849b44d2a587f53fd720618" target="_top" xlink:title="constrainededge">
<polygon fill="#ffffff" stroke="#000000" points="586,-76.5 586,-95.5 674,-95.5 674,-76.5 586,-76.5"/>
<text text-anchor="middle" x="630" y="-83.5" font-family="Helvetica,sans-Serif" font-size="10.00" fill="#000000">constrainededge</text>
</a>
</g>
</g>
<!-- Node740&#45;&gt;Node742 -->
<g id="edge12" class="edge">
<title>Node740&#45;&gt;Node742</title>
<path fill="none" stroke="#191970" d="M435.2755,-86C481.8057,-86 544.2777,-86 585.7744,-86"/>
<polygon fill="#191970" stroke="#191970" points="435.0078,-82.5001 425.0078,-86 435.0078,-89.5001 435.0078,-82.5001"/>
</g>
<!-- Node741&#45;&gt;Node742 -->
<g id="edge9" class="edge">
<title>Node741&#45;&gt;Node742</title>
<path fill="none" stroke="#191970" d="M546.5696,-111.4647C563.5064,-106.2952 582.8181,-100.4009 598.5934,-95.5859"/>
<polygon fill="#191970" stroke="#191970" points="545.4593,-108.1441 536.9166,-114.411 547.5028,-114.8392 545.4593,-108.1441"/>
</g>
<!-- Node743 -->
<g id="node11" class="node">
<title>Node743</title>
<g id="a_node11"><a xlink:href="triangle_8cpp.html#ae367b20189056436da2a1b633b392703" target="_top" xlink:title="insertsegment">
<polygon fill="#ffffff" stroke="#ff0000" points="710,-95.5 710,-114.5 788,-114.5 788,-95.5 710,-95.5"/>
<text text-anchor="middle" x="749" y="-102.5" font-family="Helvetica,sans-Serif" font-size="10.00" fill="#000000">insertsegment</text>
</a>
</g>
</g>
<!-- Node741&#45;&gt;Node743 -->
<g id="edge11" class="edge">
<title>Node741&#45;&gt;Node743</title>
<path fill="none" stroke="#191970" d="M554.6184,-120.1674C600.3968,-116.5953 667.7684,-111.3384 709.9746,-108.0451"/>
<polygon fill="#191970" stroke="#191970" points="554.3199,-116.6799 544.6225,-120.9473 554.8645,-123.6587 554.3199,-116.6799"/>
</g>
<!-- Node742&#45;&gt;Node743 -->
<g id="edge10" class="edge">
<title>Node742&#45;&gt;Node743</title>
<path fill="none" stroke="#191970" d="M684.2778,-94.6662C692.862,-96.0368 701.5922,-97.4307 709.7464,-98.7326"/>
<polygon fill="#191970" stroke="#191970" points="684.738,-91.1954 674.3112,-93.0749 683.6343,-98.1079 684.738,-91.1954"/>
</g>
<!-- Node745&#45;&gt;Node736 -->
<g id="edge14" class="edge">
<title>Node745&#45;&gt;Node736</title>
<path fill="none" stroke="#191970" d="M551.4094,-169.0063C564.5072,-171.0051 578.6436,-173.1625 591.2673,-175.089"/>
<polygon fill="#191970" stroke="#191970" points="551.5903,-165.4934 541.1767,-167.4446 550.5342,-172.4133 551.5903,-165.4934"/>
</g>
<!-- Node747 -->
<g id="node14" class="node">
<title>Node747</title>
<g id="a_node14"><a xlink:href="triangle_8cpp.html#a9a6911e4ef926cd4546bb41819b1c8c5" target="_top" xlink:title="deletevertex">
<polygon fill="#ffffff" stroke="#000000" points="338,-114.5 338,-133.5 408,-133.5 408,-114.5 338,-114.5"/>
<text text-anchor="middle" x="373" y="-121.5" font-family="Helvetica,sans-Serif" font-size="10.00" fill="#000000">deletevertex</text>
</a>
</g>
</g>
<!-- Node746&#45;&gt;Node747 -->
<g id="edge17" class="edge">
<title>Node746&#45;&gt;Node747</title>
<path fill="none" stroke="#191970" d="M295.5409,-124C309.8377,-124 324.7234,-124 337.5801,-124"/>
<polygon fill="#191970" stroke="#191970" points="295.2723,-120.5001 285.2722,-124 295.2722,-127.5001 295.2723,-120.5001"/>
</g>
<!-- Node747&#45;&gt;Node745 -->
<g id="edge18" class="edge">
<title>Node747&#45;&gt;Node745</title>
<path fill="none" stroke="#191970" d="M416.2039,-136.3906C434.3492,-141.5945 455.1294,-147.5541 472.0754,-152.4141"/>
<polygon fill="#191970" stroke="#191970" points="417.0127,-132.9815 406.4353,-133.589 415.0829,-139.7102 417.0127,-132.9815"/>
</g>
<!-- Node749 -->
<g id="node16" class="node">
<title>Node749</title>
<g id="a_node16"><a xlink:href="triangle_8cpp.html#ae64549179195e9fea8a3589a003e44ac" target="_top" xlink:title="divconqrecurse">
<polygon fill="#ffffff" stroke="#000000" points="331.5,-.5 331.5,-19.5 414.5,-19.5 414.5,-.5 331.5,-.5"/>
<text text-anchor="middle" x="373" y="-7.5" font-family="Helvetica,sans-Serif" font-size="10.00" fill="#000000">divconqrecurse</text>
</a>
</g>
</g>
<!-- Node748&#45;&gt;Node749 -->
<g id="edge20" class="edge">
<title>Node748&#45;&gt;Node749</title>
<path fill="none" stroke="#191970" d="M279.9971,-16.8637C296.3794,-15.6547 315.0607,-14.276 331.3612,-13.073"/>
<polygon fill="#191970" stroke="#191970" points="279.3269,-13.4035 269.6116,-17.6301 279.8421,-20.3846 279.3269,-13.4035"/>
</g>
<!-- Node750 -->
<g id="node17" class="node">
<title>Node750</title>
<g id="a_node17"><a xlink:href="triangle_8cpp.html#a4a13891380126c239a32b46c88f06223" target="_top" xlink:title="divconqdelaunay">
<polygon fill="#ffffff" stroke="#000000" points="461,-.5 461,-19.5 550,-19.5 550,-.5 461,-.5"/>
<text text-anchor="middle" x="505.5" y="-7.5" font-family="Helvetica,sans-Serif" font-size="10.00" fill="#000000">divconqdelaunay</text>
</a>
</g>
</g>
<!-- Node749&#45;&gt;Node750 -->
<g id="edge21" class="edge">
<title>Node749&#45;&gt;Node750</title>
<path fill="none" stroke="#191970" d="M424.8187,-10C436.7308,-10 449.297,-10 460.8739,-10"/>
<polygon fill="#191970" stroke="#191970" points="424.5603,-6.5001 414.5603,-10 424.5603,-13.5001 424.5603,-6.5001"/>
</g>
<!-- Node751 -->
<g id="node18" class="node">
<title>Node751</title>
<g id="a_node18"><a xlink:href="triangle_8cpp.html#ab67faa70960c7c39ee1150ab4d55f0a5" target="_top" xlink:title="delaunay">
<polygon fill="#ffffff" stroke="#ff0000" points="602,-.5 602,-19.5 658,-19.5 658,-.5 602,-.5"/>
<text text-anchor="middle" x="630" y="-7.5" font-family="Helvetica,sans-Serif" font-size="10.00" fill="#000000">delaunay</text>
</a>
</g>
</g>
<!-- Node750&#45;&gt;Node751 -->
<g id="edge22" class="edge">
<title>Node750&#45;&gt;Node751</title>
<path fill="none" stroke="#191970" d="M560.4171,-10C574.7813,-10 589.6736,-10 601.9773,-10"/>
<polygon fill="#191970" stroke="#191970" points="560.0957,-6.5001 550.0957,-10 560.0957,-13.5001 560.0957,-6.5001"/>
</g>
<!-- Node752&#45;&gt;Node742 -->
<g id="edge24" class="edge">
<title>Node752&#45;&gt;Node742</title>
<path fill="none" stroke="#191970" d="M421.7532,-55.2086C469.0137,-62.1966 540.0749,-72.7037 585.7476,-79.4568"/>
<polygon fill="#191970" stroke="#191970" points="422.1582,-51.7306 411.7538,-53.7301 421.1342,-58.6553 422.1582,-51.7306"/>
</g>
</g>
</svg>
