<?xml version="1.0" encoding="UTF-8" standalone="no"?>
<!DOCTYPE svg PUBLIC "-//W3C//DTD SVG 1.1//EN"
 "http://www.w3.org/Graphics/SVG/1.1/DTD/svg11.dtd">
<!-- Generated by graphviz version 2.40.1 (20161225.0304)
 -->
<!-- Title: divconqdelaunay Pages: 1 -->
<svg width="521pt" height="28pt"
 viewBox="0.00 0.00 521.00 28.00" xmlns="http://www.w3.org/2000/svg" xmlns:xlink="http://www.w3.org/1999/xlink">
<g id="graph0" class="graph" transform="scale(1 1) rotate(0) translate(4 24)">
<title>divconqdelaunay</title>
<polygon fill="#ffffff" stroke="transparent" points="-4,4 -4,-24 517,-24 517,4 -4,4"/>
<!-- Node1254 -->
<g id="node1" class="node">
<title>Node1254</title>
<polygon fill="#bfbfbf" stroke="#000000" points="0,-.5 0,-19.5 89,-19.5 89,-.5 0,-.5"/>
<text text-anchor="middle" x="44.5" y="-7.5" font-family="Helvetica,sans-Serif" font-size="10.00" fill="#000000">divconqdelaunay</text>
</g>
<!-- Node1255 -->
<g id="node2" class="node">
<title>Node1255</title>
<g id="a_node2"><a xlink:href="triangle_8cpp.html#ab67faa70960c7c39ee1150ab4d55f0a5" target="_top" xlink:title="delaunay">
<polygon fill="#ffffff" stroke="#000000" points="125,-.5 125,-19.5 181,-19.5 181,-.5 125,-.5"/>
<text text-anchor="middle" x="153" y="-7.5" font-family="Helvetica,sans-Serif" font-size="10.00" fill="#000000">delaunay</text>
</a>
</g>
</g>
<!-- Node1254&#45;&gt;Node1255 -->
<g id="edge1" class="edge">
<title>Node1254&#45;&gt;Node1255</title>
<path fill="none" stroke="#191970" d="M99.5013,-10C108.2639,-10 117.0004,-10 124.796,-10"/>
<polygon fill="#191970" stroke="#191970" points="99.2576,-6.5001 89.2575,-10 99.2575,-13.5001 99.2576,-6.5001"/>
</g>
<!-- Node1256 -->
<g id="node3" class="node">
<title>Node1256</title>
<g id="a_node3"><a xlink:href="triangle_8hpp.html#a848df2990f66cdbdc9d1ac87f4646527" target="_top" xlink:title="Call Triangle. ">
<polygon fill="#ffffff" stroke="#000000" points="217,-.5 217,-19.5 279,-19.5 279,-.5 217,-.5"/>
<text text-anchor="middle" x="248" y="-7.5" font-family="Helvetica,sans-Serif" font-size="10.00" fill="#000000">triangulate</text>
</a>
</g>
</g>
<!-- Node1255&#45;&gt;Node1256 -->
<g id="edge2" class="edge">
<title>Node1255&#45;&gt;Node1256</title>
<path fill="none" stroke="#191970" d="M191.2737,-10C199.7213,-10 208.5739,-10 216.7063,-10"/>
<polygon fill="#191970" stroke="#191970" points="191.246,-6.5001 181.2459,-10 191.2459,-13.5001 191.246,-6.5001"/>
</g>
<!-- Node1257 -->
<g id="node4" class="node">
<title>Node1257</title>
<g id="a_node4"><a xlink:href="classRiver_1_1Triangle.html#a7bc9c5a5297dee136ab1489a923182dd" target="_top" xlink:title="Generate mesh. ">
<polygon fill="#ffffff" stroke="#000000" points="315,-.5 315,-19.5 439,-19.5 439,-.5 315,-.5"/>
<text text-anchor="middle" x="377" y="-7.5" font-family="Helvetica,sans-Serif" font-size="10.00" fill="#000000">River::Triangle::generate</text>
</a>
</g>
</g>
<!-- Node1256&#45;&gt;Node1257 -->
<g id="edge3" class="edge">
<title>Node1256&#45;&gt;Node1257</title>
<path fill="none" stroke="#191970" d="M289.2629,-10C297.4682,-10 306.2527,-10 314.9767,-10"/>
<polygon fill="#191970" stroke="#191970" points="289.2273,-6.5001 279.2273,-10 289.2273,-13.5001 289.2273,-6.5001"/>
</g>
<!-- Node1258 -->
<g id="node5" class="node">
<title>Node1258</title>
<g id="a_node5"><a xlink:href="main_8cpp.html#a0ddf1224851353fc92bfbff6f499fa97" target="_top" xlink:title="Entry point of RiverSim program. ">
<polygon fill="#ffffff" stroke="#000000" points="475,-.5 475,-19.5 513,-19.5 513,-.5 475,-.5"/>
<text text-anchor="middle" x="494" y="-7.5" font-family="Helvetica,sans-Serif" font-size="10.00" fill="#000000">main</text>
</a>
</g>
</g>
<!-- Node1257&#45;&gt;Node1258 -->
<g id="edge4" class="edge">
<title>Node1257&#45;&gt;Node1258</title>
<path fill="none" stroke="#191970" d="M449.5174,-10C458.8253,-10 467.6301,-10 474.912,-10"/>
<polygon fill="#191970" stroke="#191970" points="449.2682,-6.5001 439.2682,-10 449.2682,-13.5001 449.2682,-6.5001"/>
</g>
</g>
</svg>
