<?xml version="1.0" encoding="UTF-8" standalone="no"?>
<!DOCTYPE svg PUBLIC "-//W3C//DTD SVG 1.1//EN"
 "http://www.w3.org/Graphics/SVG/1.1/DTD/svg11.dtd">
<!-- Generated by graphviz version 2.40.1 (20161225.0304)
 -->
<!-- Title: insertsegment Pages: 1 -->
<svg width="527pt" height="28pt"
 viewBox="0.00 0.00 527.00 28.00" xmlns="http://www.w3.org/2000/svg" xmlns:xlink="http://www.w3.org/1999/xlink">
<g id="graph0" class="graph" transform="scale(1 1) rotate(0) translate(4 24)">
<title>insertsegment</title>
<polygon fill="#ffffff" stroke="transparent" points="-4,4 -4,-24 523,-24 523,4 -4,4"/>
<!-- Node1494 -->
<g id="node1" class="node">
<title>Node1494</title>
<polygon fill="#bfbfbf" stroke="#000000" points="0,-.5 0,-19.5 78,-19.5 78,-.5 0,-.5"/>
<text text-anchor="middle" x="39" y="-7.5" font-family="Helvetica,sans-Serif" font-size="10.00" fill="#000000">insertsegment</text>
</g>
<!-- Node1495 -->
<g id="node2" class="node">
<title>Node1495</title>
<g id="a_node2"><a xlink:href="triangle_8cpp.html#a77e7549672629c06d5926b7edcafc337" target="_top" xlink:title="formskeleton">
<polygon fill="#ffffff" stroke="#000000" points="114,-.5 114,-19.5 187,-19.5 187,-.5 114,-.5"/>
<text text-anchor="middle" x="150.5" y="-7.5" font-family="Helvetica,sans-Serif" font-size="10.00" fill="#000000">formskeleton</text>
</a>
</g>
</g>
<!-- Node1494&#45;&gt;Node1495 -->
<g id="edge1" class="edge">
<title>Node1494&#45;&gt;Node1495</title>
<path fill="none" stroke="#191970" d="M88.5197,-10C97.0128,-10 105.7012,-10 113.7832,-10"/>
<polygon fill="#191970" stroke="#191970" points="88.3108,-6.5001 78.3107,-10 88.3107,-13.5001 88.3108,-6.5001"/>
</g>
<!-- Node1496 -->
<g id="node3" class="node">
<title>Node1496</title>
<g id="a_node3"><a xlink:href="triangle_8hpp.html#a848df2990f66cdbdc9d1ac87f4646527" target="_top" xlink:title="Call Triangle. ">
<polygon fill="#ffffff" stroke="#000000" points="223,-.5 223,-19.5 285,-19.5 285,-.5 223,-.5"/>
<text text-anchor="middle" x="254" y="-7.5" font-family="Helvetica,sans-Serif" font-size="10.00" fill="#000000">triangulate</text>
</a>
</g>
</g>
<!-- Node1495&#45;&gt;Node1496 -->
<g id="edge2" class="edge">
<title>Node1495&#45;&gt;Node1496</title>
<path fill="none" stroke="#191970" d="M197.2894,-10C205.9375,-10 214.772,-10 222.815,-10"/>
<polygon fill="#191970" stroke="#191970" points="197.2817,-6.5001 187.2817,-10 197.2816,-13.5001 197.2817,-6.5001"/>
</g>
<!-- Node1497 -->
<g id="node4" class="node">
<title>Node1497</title>
<g id="a_node4"><a xlink:href="classRiver_1_1Triangle.html#a7bc9c5a5297dee136ab1489a923182dd" target="_top" xlink:title="Generate mesh. ">
<polygon fill="#ffffff" stroke="#000000" points="321,-.5 321,-19.5 445,-19.5 445,-.5 321,-.5"/>
<text text-anchor="middle" x="383" y="-7.5" font-family="Helvetica,sans-Serif" font-size="10.00" fill="#000000">River::Triangle::generate</text>
</a>
</g>
</g>
<!-- Node1496&#45;&gt;Node1497 -->
<g id="edge3" class="edge">
<title>Node1496&#45;&gt;Node1497</title>
<path fill="none" stroke="#191970" d="M295.2629,-10C303.4682,-10 312.2527,-10 320.9767,-10"/>
<polygon fill="#191970" stroke="#191970" points="295.2273,-6.5001 285.2273,-10 295.2273,-13.5001 295.2273,-6.5001"/>
</g>
<!-- Node1498 -->
<g id="node5" class="node">
<title>Node1498</title>
<g id="a_node5"><a xlink:href="main_8cpp.html#a0ddf1224851353fc92bfbff6f499fa97" target="_top" xlink:title="Entry point of RiverSim program. ">
<polygon fill="#ffffff" stroke="#000000" points="481,-.5 481,-19.5 519,-19.5 519,-.5 481,-.5"/>
<text text-anchor="middle" x="500" y="-7.5" font-family="Helvetica,sans-Serif" font-size="10.00" fill="#000000">main</text>
</a>
</g>
</g>
<!-- Node1497&#45;&gt;Node1498 -->
<g id="edge4" class="edge">
<title>Node1497&#45;&gt;Node1498</title>
<path fill="none" stroke="#191970" d="M455.5174,-10C464.8253,-10 473.6301,-10 480.912,-10"/>
<polygon fill="#191970" stroke="#191970" points="455.2682,-6.5001 445.2682,-10 455.2682,-13.5001 455.2682,-6.5001"/>
</g>
</g>
</svg>
