<?xml version="1.0" encoding="UTF-8" standalone="no"?>
<!DOCTYPE svg PUBLIC "-//W3C//DTD SVG 1.1//EN"
 "http://www.w3.org/Graphics/SVG/1.1/DTD/svg11.dtd">
<!-- Generated by graphviz version 2.40.1 (20161225.0304)
 -->
<!-- Title: traversalinit Pages: 1 -->
<svg width="753pt" height="674pt"
 viewBox="0.00 0.00 753.00 674.00" xmlns="http://www.w3.org/2000/svg" xmlns:xlink="http://www.w3.org/1999/xlink">
<g id="graph0" class="graph" transform="scale(1 1) rotate(0) translate(4 670)">
<title>traversalinit</title>
<polygon fill="#ffffff" stroke="transparent" points="-4,4 -4,-670 749,-670 749,4 -4,4"/>
<!-- Node334 -->
<g id="node1" class="node">
<title>Node334</title>
<polygon fill="#bfbfbf" stroke="#000000" points="0,-323.5 0,-342.5 67,-342.5 67,-323.5 0,-323.5"/>
<text text-anchor="middle" x="33.5" y="-330.5" font-family="Helvetica,sans-Serif" font-size="10.00" fill="#000000">traversalinit</text>
</g>
<!-- Node335 -->
<g id="node2" class="node">
<title>Node335</title>
<g id="a_node2"><a xlink:href="triangle_8cpp.html#a0b4e7c06798ba40d7b435a2814f529d7" target="_top" xlink:title="makevertexmap">
<polygon fill="#ffffff" stroke="#000000" points="105,-646.5 105,-665.5 191,-665.5 191,-646.5 105,-646.5"/>
<text text-anchor="middle" x="148" y="-653.5" font-family="Helvetica,sans-Serif" font-size="10.00" fill="#000000">makevertexmap</text>
</a>
</g>
</g>
<!-- Node334&#45;&gt;Node335 -->
<g id="edge1" class="edge">
<title>Node334&#45;&gt;Node335</title>
<path fill="none" stroke="#191970" d="M35.6537,-352.6881C42.5889,-412.8698 66.0617,-592.9686 103,-637 106.2702,-640.8982 110.4794,-644.0128 115.0078,-646.497"/>
<polygon fill="#191970" stroke="#191970" points="39.1165,-352.1606 34.5197,-342.615 32.1605,-352.9438 39.1165,-352.1606"/>
</g>
<!-- Node341 -->
<g id="node7" class="node">
<title>Node341</title>
<g id="a_node7"><a xlink:href="triangle_8cpp.html#a4a13891380126c239a32b46c88f06223" target="_top" xlink:title="divconqdelaunay">
<polygon fill="#ffffff" stroke="#000000" points="103.5,-608.5 103.5,-627.5 192.5,-627.5 192.5,-608.5 103.5,-608.5"/>
<text text-anchor="middle" x="148" y="-615.5" font-family="Helvetica,sans-Serif" font-size="10.00" fill="#000000">divconqdelaunay</text>
</a>
</g>
</g>
<!-- Node334&#45;&gt;Node341 -->
<g id="edge6" class="edge">
<title>Node334&#45;&gt;Node341</title>
<path fill="none" stroke="#191970" d="M36.6324,-352.5439C45.5845,-406.4307 72.5997,-555.6708 103,-594 107.8418,-600.1047 114.6723,-604.8483 121.552,-608.4453"/>
<polygon fill="#191970" stroke="#191970" points="40.0689,-351.8709 35.0016,-342.5665 33.1606,-353.0002 40.0689,-351.8709"/>
</g>
<!-- Node343 -->
<g id="node9" class="node">
<title>Node343</title>
<g id="a_node9"><a xlink:href="triangle_8cpp.html#a711adeeb3c28e4f2e3e173d729912c13" target="_top" xlink:title="reconstruct">
<polygon fill="#ffffff" stroke="#000000" points="235,-541.5 235,-560.5 300,-560.5 300,-541.5 235,-541.5"/>
<text text-anchor="middle" x="267.5" y="-548.5" font-family="Helvetica,sans-Serif" font-size="10.00" fill="#000000">reconstruct</text>
</a>
</g>
</g>
<!-- Node334&#45;&gt;Node343 -->
<g id="edge9" class="edge">
<title>Node334&#45;&gt;Node343</title>
<path fill="none" stroke="#191970" d="M36.4521,-352.5047C44.526,-402.9542 68.6828,-535.5846 103,-561 145.0766,-592.1621 211.0566,-573.6621 245.2644,-560.5774"/>
<polygon fill="#191970" stroke="#191970" points="39.8988,-351.8911 34.8988,-342.5503 32.9825,-352.9704 39.8988,-351.8911"/>
</g>
<!-- Node344 -->
<g id="node10" class="node">
<title>Node344</title>
<g id="a_node10"><a xlink:href="triangle_8cpp.html#ac95223fa1691114186a9782fe701999d" target="_top" xlink:title="plague">
<polygon fill="#ffffff" stroke="#000000" points="125.5,-532.5 125.5,-551.5 170.5,-551.5 170.5,-532.5 125.5,-532.5"/>
<text text-anchor="middle" x="148" y="-539.5" font-family="Helvetica,sans-Serif" font-size="10.00" fill="#000000">plague</text>
</a>
</g>
</g>
<!-- Node334&#45;&gt;Node344 -->
<g id="edge11" class="edge">
<title>Node334&#45;&gt;Node344</title>
<path fill="none" stroke="#191970" d="M36.2801,-353.0245C42.313,-389.7576 59.7173,-468.6608 103,-518 108.9558,-524.7891 117.3094,-529.9782 125.2046,-533.7645"/>
<polygon fill="#191970" stroke="#191970" points="39.669,-352.0295 34.7026,-342.6708 32.7489,-353.084 39.669,-352.0295"/>
</g>
<!-- Node345 -->
<g id="node11" class="node">
<title>Node345</title>
<g id="a_node11"><a xlink:href="triangle_8cpp.html#aa0ba1198ac22df6403aeaa25b4ebbe37" target="_top" xlink:title="carveholes">
<polygon fill="#ffffff" stroke="#000000" points="235.5,-475.5 235.5,-494.5 299.5,-494.5 299.5,-475.5 235.5,-475.5"/>
<text text-anchor="middle" x="267.5" y="-482.5" font-family="Helvetica,sans-Serif" font-size="10.00" fill="#000000">carveholes</text>
</a>
</g>
</g>
<!-- Node334&#45;&gt;Node345 -->
<g id="edge16" class="edge">
<title>Node334&#45;&gt;Node345</title>
<path fill="none" stroke="#191970" d="M35.8349,-352.8713C41.0211,-386.8754 56.9379,-455.4125 103,-485 142.888,-510.6216 200.2138,-503.0152 235.5909,-494.5002"/>
<polygon fill="#191970" stroke="#191970" points="39.2767,-352.2059 34.4595,-342.7695 32.3407,-353.1503 39.2767,-352.2059"/>
</g>
<!-- Node346 -->
<g id="node12" class="node">
<title>Node346</title>
<g id="a_node12"><a xlink:href="triangle_8cpp.html#a4bd82f31b72b81818c6ff7671446cb47" target="_top" xlink:title="regionplague">
<polygon fill="#ffffff" stroke="#000000" points="112.5,-456.5 112.5,-475.5 183.5,-475.5 183.5,-456.5 112.5,-456.5"/>
<text text-anchor="middle" x="148" y="-463.5" font-family="Helvetica,sans-Serif" font-size="10.00" fill="#000000">regionplague</text>
</a>
</g>
</g>
<!-- Node334&#45;&gt;Node346 -->
<g id="edge14" class="edge">
<title>Node334&#45;&gt;Node346</title>
<path fill="none" stroke="#191970" d="M40.7426,-352.062C51.0794,-376.9679 72.2749,-420.5153 103,-447 107.3679,-450.7651 112.5904,-453.8705 117.9053,-456.4011"/>
<polygon fill="#191970" stroke="#191970" points="43.9375,-350.6248 36.9812,-342.6335 37.4358,-353.2186 43.9375,-350.6248"/>
</g>
<!-- Node347 -->
<g id="node13" class="node">
<title>Node347</title>
<g id="a_node13"><a xlink:href="triangle_8cpp.html#af8e72ce607fa7738b63bab87df6aef22" target="_top" xlink:title="tallyencs">
<polygon fill="#ffffff" stroke="#000000" points="120,-418.5 120,-437.5 176,-437.5 176,-418.5 120,-418.5"/>
<text text-anchor="middle" x="148" y="-425.5" font-family="Helvetica,sans-Serif" font-size="10.00" fill="#000000">tallyencs</text>
</a>
</g>
</g>
<!-- Node334&#45;&gt;Node347 -->
<g id="edge17" class="edge">
<title>Node334&#45;&gt;Node347</title>
<path fill="none" stroke="#191970" d="M46.3696,-351.063C59.1409,-367.9127 80.0779,-392.8157 103,-409 108.1264,-412.6195 114.0492,-415.7341 119.8796,-418.3332"/>
<polygon fill="#191970" stroke="#191970" points="48.9068,-348.6066 40.1537,-342.6371 43.2737,-352.7621 48.9068,-348.6066"/>
</g>
<!-- Node349 -->
<g id="node15" class="node">
<title>Node349</title>
<g id="a_node15"><a xlink:href="triangle_8cpp.html#adca37fc9e90f78c9ae794662de5428bd" target="_top" xlink:title="splitencsegs">
<polygon fill="#ffffff" stroke="#000000" points="112.5,-380.5 112.5,-399.5 183.5,-399.5 183.5,-380.5 112.5,-380.5"/>
<text text-anchor="middle" x="148" y="-387.5" font-family="Helvetica,sans-Serif" font-size="10.00" fill="#000000">splitencsegs</text>
</a>
</g>
</g>
<!-- Node334&#45;&gt;Node349 -->
<g id="edge20" class="edge">
<title>Node334&#45;&gt;Node349</title>
<path fill="none" stroke="#191970" d="M58.6936,-347.5738C71.7506,-354.9218 88.0532,-363.7811 103,-371 109.72,-374.2456 117.1373,-377.5049 123.9786,-380.3851"/>
<polygon fill="#191970" stroke="#191970" points="60.2492,-344.4322 49.8255,-342.5356 56.7913,-350.5186 60.2492,-344.4322"/>
</g>
<!-- Node350 -->
<g id="node16" class="node">
<title>Node350</title>
<g id="a_node16"><a xlink:href="triangle_8cpp.html#aff72cd32f2fdfedbedd4270ab70f212d" target="_top" xlink:title="tallyfaces">
<polygon fill="#ffffff" stroke="#000000" points="118.5,-342.5 118.5,-361.5 177.5,-361.5 177.5,-342.5 118.5,-342.5"/>
<text text-anchor="middle" x="148" y="-349.5" font-family="Helvetica,sans-Serif" font-size="10.00" fill="#000000">tallyfaces</text>
</a>
</g>
</g>
<!-- Node334&#45;&gt;Node350 -->
<g id="edge22" class="edge">
<title>Node334&#45;&gt;Node350</title>
<path fill="none" stroke="#191970" d="M77.4449,-340.2922C91.1445,-342.5655 105.92,-345.0173 118.3924,-347.087"/>
<polygon fill="#191970" stroke="#191970" points="77.6726,-336.7822 67.2345,-338.5979 76.5266,-343.6877 77.6726,-336.7822"/>
</g>
<!-- Node351 -->
<g id="node17" class="node">
<title>Node351</title>
<g id="a_node17"><a xlink:href="triangle_8cpp.html#a0a88bbfa9e08844c589160c5b7c9d05e" target="_top" xlink:title="highorder">
<polygon fill="#ffffff" stroke="#000000" points="239.5,-304.5 239.5,-323.5 295.5,-323.5 295.5,-304.5 239.5,-304.5"/>
<text text-anchor="middle" x="267.5" y="-311.5" font-family="Helvetica,sans-Serif" font-size="10.00" fill="#000000">highorder</text>
</a>
</g>
</g>
<!-- Node334&#45;&gt;Node351 -->
<g id="edge24" class="edge">
<title>Node334&#45;&gt;Node351</title>
<path fill="none" stroke="#191970" d="M76.9969,-329.4682C124.3843,-325.6205 198.8091,-319.5775 239.1758,-316.2998"/>
<polygon fill="#191970" stroke="#191970" points="76.7104,-325.9798 67.0265,-330.2778 77.277,-332.9569 76.7104,-325.9798"/>
</g>
<!-- Node352 -->
<g id="node18" class="node">
<title>Node352</title>
<g id="a_node18"><a xlink:href="triangle_8cpp.html#a140789d6f7ad5b771f6d130fa3711874" target="_top" xlink:title="writenodes">
<polygon fill="#ffffff" stroke="#000000" points="235.5,-266.5 235.5,-285.5 299.5,-285.5 299.5,-266.5 235.5,-266.5"/>
<text text-anchor="middle" x="267.5" y="-273.5" font-family="Helvetica,sans-Serif" font-size="10.00" fill="#000000">writenodes</text>
</a>
</g>
</g>
<!-- Node334&#45;&gt;Node352 -->
<g id="edge26" class="edge">
<title>Node334&#45;&gt;Node352</title>
<path fill="none" stroke="#191970" d="M76.9787,-322.3553C85.6007,-320.2471 94.5864,-318.0519 103,-316 148.9724,-304.7881 202.1837,-291.8578 235.3456,-283.805"/>
<polygon fill="#191970" stroke="#191970" points="75.9623,-319.0006 67.0802,-324.7764 77.6255,-325.8002 75.9623,-319.0006"/>
</g>
<!-- Node353 -->
<g id="node19" class="node">
<title>Node353</title>
<g id="a_node19"><a xlink:href="triangle_8cpp.html#a160128d1b9589687db5d740723c4299b" target="_top" xlink:title="numbernodes">
<polygon fill="#ffffff" stroke="#000000" points="230,-228.5 230,-247.5 305,-247.5 305,-228.5 230,-228.5"/>
<text text-anchor="middle" x="267.5" y="-235.5" font-family="Helvetica,sans-Serif" font-size="10.00" fill="#000000">numbernodes</text>
</a>
</g>
</g>
<!-- Node334&#45;&gt;Node353 -->
<g id="edge28" class="edge">
<title>Node334&#45;&gt;Node353</title>
<path fill="none" stroke="#191970" d="M55.2516,-317.5934C68.5745,-308.6596 86.2348,-297.6912 103,-290 144.9247,-270.7666 195.9376,-255.8558 229.9328,-247.027"/>
<polygon fill="#191970" stroke="#191970" points="53.0606,-314.8516 46.7852,-323.388 57.0143,-320.6282 53.0606,-314.8516"/>
</g>
<!-- Node354 -->
<g id="node20" class="node">
<title>Node354</title>
<g id="a_node20"><a xlink:href="triangle_8cpp.html#ae2aeed2f2751cc1e7087cc0f94d9f78f" target="_top" xlink:title="writeelements">
<polygon fill="#ffffff" stroke="#000000" points="229,-190.5 229,-209.5 306,-209.5 306,-190.5 229,-190.5"/>
<text text-anchor="middle" x="267.5" y="-197.5" font-family="Helvetica,sans-Serif" font-size="10.00" fill="#000000">writeelements</text>
</a>
</g>
</g>
<!-- Node334&#45;&gt;Node354 -->
<g id="edge30" class="edge">
<title>Node334&#45;&gt;Node354</title>
<path fill="none" stroke="#191970" d="M44.9099,-314.8507C57.18,-296.7373 78.2903,-269.3166 103,-253 141.6844,-227.4556 193.5915,-213.4398 228.6711,-206.3413"/>
<polygon fill="#191970" stroke="#191970" points="41.8828,-313.0845 39.327,-323.3664 47.7369,-316.9224 41.8828,-313.0845"/>
</g>
<!-- Node355 -->
<g id="node21" class="node">
<title>Node355</title>
<g id="a_node21"><a xlink:href="triangle_8cpp.html#a168edddc256973c655b26f8a00d11e18" target="_top" xlink:title="writepoly">
<polygon fill="#ffffff" stroke="#000000" points="239.5,-152.5 239.5,-171.5 295.5,-171.5 295.5,-152.5 239.5,-152.5"/>
<text text-anchor="middle" x="267.5" y="-159.5" font-family="Helvetica,sans-Serif" font-size="10.00" fill="#000000">writepoly</text>
</a>
</g>
</g>
<!-- Node334&#45;&gt;Node355 -->
<g id="edge32" class="edge">
<title>Node334&#45;&gt;Node355</title>
<path fill="none" stroke="#191970" d="M39.2099,-313.8082C48.275,-286.6565 68.552,-237.3025 103,-210 143.2185,-178.1239 203.9266,-167.4117 239.2504,-163.8149"/>
<polygon fill="#191970" stroke="#191970" points="35.8727,-312.7534 36.1857,-323.3436 42.5452,-314.8697 35.8727,-312.7534"/>
</g>
<!-- Node356 -->
<g id="node22" class="node">
<title>Node356</title>
<g id="a_node22"><a xlink:href="triangle_8cpp.html#ab285f09094d56a1431f965933235d7b3" target="_top" xlink:title="writeedges">
<polygon fill="#ffffff" stroke="#000000" points="116,-114.5 116,-133.5 180,-133.5 180,-114.5 116,-114.5"/>
<text text-anchor="middle" x="148" y="-121.5" font-family="Helvetica,sans-Serif" font-size="10.00" fill="#000000">writeedges</text>
</a>
</g>
</g>
<!-- Node334&#45;&gt;Node356 -->
<g id="edge34" class="edge">
<title>Node334&#45;&gt;Node356</title>
<path fill="none" stroke="#191970" d="M36.2801,-312.9755C42.313,-276.2424 59.7173,-197.3392 103,-148 108.2551,-142.0096 115.377,-137.2649 122.4036,-133.6304"/>
<polygon fill="#191970" stroke="#191970" points="32.7489,-312.916 34.7026,-323.3292 39.669,-313.9705 32.7489,-312.916"/>
</g>
<!-- Node357 -->
<g id="node23" class="node">
<title>Node357</title>
<g id="a_node23"><a xlink:href="triangle_8cpp.html#a63c072a0ec5fd1e7ab2f23ecc4dd576a" target="_top" xlink:title="writevoronoi">
<polygon fill="#ffffff" stroke="#000000" points="113.5,-76.5 113.5,-95.5 182.5,-95.5 182.5,-76.5 113.5,-76.5"/>
<text text-anchor="middle" x="148" y="-83.5" font-family="Helvetica,sans-Serif" font-size="10.00" fill="#000000">writevoronoi</text>
</a>
</g>
</g>
<!-- Node334&#45;&gt;Node357 -->
<g id="edge36" class="edge">
<title>Node334&#45;&gt;Node357</title>
<path fill="none" stroke="#191970" d="M37.2904,-313.2312C47.11,-263.7946 74.597,-136.5104 103,-105 106.4067,-101.2206 110.6885,-98.1691 115.2479,-95.7118"/>
<polygon fill="#191970" stroke="#191970" points="33.8088,-312.7989 35.3253,-323.2846 40.6788,-314.1418 33.8088,-312.7989"/>
</g>
<!-- Node358 -->
<g id="node24" class="node">
<title>Node358</title>
<g id="a_node24"><a xlink:href="triangle_8cpp.html#a43c01b56c588d0fca5611eed8ee3404d" target="_top" xlink:title="writeneighbors">
<polygon fill="#ffffff" stroke="#000000" points="108,-38.5 108,-57.5 188,-57.5 188,-38.5 108,-38.5"/>
<text text-anchor="middle" x="148" y="-45.5" font-family="Helvetica,sans-Serif" font-size="10.00" fill="#000000">writeneighbors</text>
</a>
</g>
</g>
<!-- Node334&#45;&gt;Node358 -->
<g id="edge38" class="edge">
<title>Node334&#45;&gt;Node358</title>
<path fill="none" stroke="#191970" d="M36.352,-313.3067C44.6605,-258.326 70.3386,-104.7372 103,-67 106.3298,-63.1527 110.5708,-60.0651 115.1127,-57.5924"/>
<polygon fill="#191970" stroke="#191970" points="32.8504,-313.06 34.8464,-323.4651 39.7748,-314.0863 32.8504,-313.06"/>
</g>
<!-- Node359 -->
<g id="node25" class="node">
<title>Node359</title>
<g id="a_node25"><a xlink:href="triangle_8cpp.html#ada18b75ad55debb3c033ba1db23ba2b4" target="_top" xlink:title="quality_statistics">
<polygon fill="#ffffff" stroke="#000000" points="103,-.5 103,-19.5 193,-19.5 193,-.5 103,-.5"/>
<text text-anchor="middle" x="148" y="-7.5" font-family="Helvetica,sans-Serif" font-size="10.00" fill="#000000">quality_statistics</text>
</a>
</g>
</g>
<!-- Node334&#45;&gt;Node359 -->
<g id="edge40" class="edge">
<title>Node334&#45;&gt;Node359</title>
<path fill="none" stroke="#191970" d="M35.6537,-313.3119C42.5889,-253.1302 66.0617,-73.0314 103,-29 106.2702,-25.1018 110.4794,-21.9872 115.0078,-19.503"/>
<polygon fill="#191970" stroke="#191970" points="32.1605,-313.0562 34.5197,-323.385 39.1165,-313.8394 32.1605,-313.0562"/>
</g>
<!-- Node336 -->
<g id="node3" class="node">
<title>Node336</title>
<g id="a_node3"><a xlink:href="triangle_8cpp.html#a77e7549672629c06d5926b7edcafc337" target="_top" xlink:title="formskeleton">
<polygon fill="#ffffff" stroke="#000000" points="231,-638.5 231,-657.5 304,-657.5 304,-638.5 231,-638.5"/>
<text text-anchor="middle" x="267.5" y="-645.5" font-family="Helvetica,sans-Serif" font-size="10.00" fill="#000000">formskeleton</text>
</a>
</g>
</g>
<!-- Node335&#45;&gt;Node336 -->
<g id="edge2" class="edge">
<title>Node335&#45;&gt;Node336</title>
<path fill="none" stroke="#191970" d="M201.353,-652.4283C211.2787,-651.7638 221.4426,-651.0833 230.7321,-650.4614"/>
<polygon fill="#191970" stroke="#191970" points="200.8861,-648.9516 191.1422,-653.1118 201.3537,-655.9359 200.8861,-648.9516"/>
</g>
<!-- Node337 -->
<g id="node4" class="node">
<title>Node337</title>
<g id="a_node4"><a xlink:href="triangle_8hpp.html#a4ca59bf5fe569672944651426b662ba6" target="_top" xlink:title="Call Triangle. ">
<polygon fill="#ffffff" stroke="#000000" points="342,-247.5 342,-266.5 404,-266.5 404,-247.5 342,-247.5"/>
<text text-anchor="middle" x="373" y="-254.5" font-family="Helvetica,sans-Serif" font-size="10.00" fill="#000000">triangulate</text>
</a>
</g>
</g>
<!-- Node336&#45;&gt;Node337 -->
<g id="edge3" class="edge">
<title>Node336&#45;&gt;Node337</title>
<path fill="none" stroke="#191970" d="M296.4076,-632.3956C300.0849,-629.3682 303.4478,-625.9024 306,-622 346.2884,-560.397 368.0343,-317.971 372.2414,-266.5982"/>
<polygon fill="#191970" stroke="#191970" points="294.1816,-629.6833 288.0478,-638.3221 298.23,-635.3939 294.1816,-629.6833"/>
</g>
<!-- Node338 -->
<g id="node5" class="node">
<title>Node338</title>
<g id="a_node5"><a xlink:href="classRiver_1_1Triangle.html#a0dae20b40d446e6009a88543e2c14daf" target="_top" xlink:title="Generate mesh. ">
<polygon fill="#ffffff" stroke="#000000" points="440,-247.5 440,-266.5 564,-266.5 564,-247.5 440,-247.5"/>
<text text-anchor="middle" x="502" y="-254.5" font-family="Helvetica,sans-Serif" font-size="10.00" fill="#000000">River::Triangle::generate</text>
</a>
</g>
</g>
<!-- Node337&#45;&gt;Node338 -->
<g id="edge4" class="edge">
<title>Node337&#45;&gt;Node338</title>
<path fill="none" stroke="#191970" d="M414.2629,-257C422.4682,-257 431.2527,-257 439.9767,-257"/>
<polygon fill="#191970" stroke="#191970" points="414.2273,-253.5001 404.2273,-257 414.2273,-260.5001 414.2273,-253.5001"/>
</g>
<!-- Node339 -->
<g id="node6" class="node">
<title>Node339</title>
<g id="a_node6"><a xlink:href="namespaceRiver.html#af1a3f7c61809dd8032e4ff5920da83cc" target="_top" xlink:title="One step of forward river evolution. ">
<polygon fill="#ffffff" stroke="#ff0000" points="600,-247.5 600,-266.5 745,-266.5 745,-247.5 600,-247.5"/>
<text text-anchor="middle" x="672.5" y="-254.5" font-family="Helvetica,sans-Serif" font-size="10.00" fill="#000000">River::ForwardRiverEvolution</text>
</a>
</g>
</g>
<!-- Node338&#45;&gt;Node339 -->
<g id="edge5" class="edge">
<title>Node338&#45;&gt;Node339</title>
<path fill="none" stroke="#191970" d="M574.2431,-257C582.7006,-257 591.333,-257 599.7967,-257"/>
<polygon fill="#191970" stroke="#191970" points="574.0368,-253.5001 564.0367,-257 574.0367,-260.5001 574.0368,-253.5001"/>
</g>
<!-- Node342 -->
<g id="node8" class="node">
<title>Node342</title>
<g id="a_node8"><a xlink:href="triangle_8cpp.html#ab67faa70960c7c39ee1150ab4d55f0a5" target="_top" xlink:title="delaunay">
<polygon fill="#ffffff" stroke="#000000" points="239.5,-593.5 239.5,-612.5 295.5,-612.5 295.5,-593.5 239.5,-593.5"/>
<text text-anchor="middle" x="267.5" y="-600.5" font-family="Helvetica,sans-Serif" font-size="10.00" fill="#000000">delaunay</text>
</a>
</g>
</g>
<!-- Node341&#45;&gt;Node342 -->
<g id="edge7" class="edge">
<title>Node341&#45;&gt;Node342</title>
<path fill="none" stroke="#191970" d="M202.8785,-611.1115C215.5318,-609.5232 228.4785,-607.8981 239.4283,-606.5236"/>
<polygon fill="#191970" stroke="#191970" points="202.3236,-607.6536 192.8374,-612.3719 203.1955,-614.5991 202.3236,-607.6536"/>
</g>
<!-- Node342&#45;&gt;Node337 -->
<g id="edge8" class="edge">
<title>Node342&#45;&gt;Node337</title>
<path fill="none" stroke="#191970" d="M291.0344,-587.0479C296.6905,-582.1832 302.1906,-576.4055 306,-570 338.098,-516.0278 365.7399,-313.4112 371.7777,-266.6642"/>
<polygon fill="#191970" stroke="#191970" points="288.5273,-584.5659 282.8149,-593.4888 292.8449,-590.0758 288.5273,-584.5659"/>
</g>
<!-- Node343&#45;&gt;Node337 -->
<g id="edge10" class="edge">
<title>Node343&#45;&gt;Node337</title>
<path fill="none" stroke="#191970" d="M284.2856,-534.1174C291.8653,-525.6769 300.3638,-514.9436 306,-504 349.9425,-418.6788 367.4303,-301.4943 371.8224,-266.9572"/>
<polygon fill="#191970" stroke="#191970" points="281.7079,-531.7495 277.4233,-541.4393 286.8154,-536.5363 281.7079,-531.7495"/>
</g>
<!-- Node344&#45;&gt;Node345 -->
<g id="edge12" class="edge">
<title>Node344&#45;&gt;Node345</title>
<path fill="none" stroke="#191970" d="M177.1351,-528.1029C198.9388,-517.7028 228.195,-503.748 247.4331,-494.5716"/>
<polygon fill="#191970" stroke="#191970" points="175.5206,-524.9952 168.0016,-532.4595 178.5343,-531.3133 175.5206,-524.9952"/>
</g>
<!-- Node345&#45;&gt;Node337 -->
<g id="edge13" class="edge">
<title>Node345&#45;&gt;Node337</title>
<path fill="none" stroke="#191970" d="M276.1569,-466.2912C297.6001,-419.9495 352.5994,-301.0886 368.5823,-266.5472"/>
<polygon fill="#191970" stroke="#191970" points="272.9219,-464.9481 271.8989,-475.4934 279.2748,-467.8877 272.9219,-464.9481"/>
</g>
<!-- Node346&#45;&gt;Node345 -->
<g id="edge15" class="edge">
<title>Node346&#45;&gt;Node345</title>
<path fill="none" stroke="#191970" d="M193.4124,-473.2204C207.3148,-475.4308 222.3178,-477.8162 235.1628,-479.8585"/>
<polygon fill="#191970" stroke="#191970" points="193.956,-469.7629 183.5304,-471.6492 192.8567,-476.6761 193.956,-469.7629"/>
</g>
<!-- Node348 -->
<g id="node14" class="node">
<title>Node348</title>
<g id="a_node14"><a xlink:href="triangle_8cpp.html#a5a654ff6b304f2166c64ffe9183b2995" target="_top" xlink:title="enforcequality">
<polygon fill="#ffffff" stroke="#000000" points="229,-361.5 229,-380.5 306,-380.5 306,-361.5 229,-361.5"/>
<text text-anchor="middle" x="267.5" y="-368.5" font-family="Helvetica,sans-Serif" font-size="10.00" fill="#000000">enforcequality</text>
</a>
</g>
</g>
<!-- Node347&#45;&gt;Node348 -->
<g id="edge18" class="edge">
<title>Node347&#45;&gt;Node348</title>
<path fill="none" stroke="#191970" d="M180.9014,-414.4328C184.9951,-412.6495 189.1077,-410.8115 193,-409 212.6137,-399.8716 234.6335,-388.4964 249.6142,-380.5821"/>
<polygon fill="#191970" stroke="#191970" points="179.3141,-411.305 171.4967,-418.4561 182.0674,-417.7408 179.3141,-411.305"/>
</g>
<!-- Node348&#45;&gt;Node337 -->
<g id="edge19" class="edge">
<title>Node348&#45;&gt;Node337</title>
<path fill="none" stroke="#191970" d="M285.1012,-354.1318C291.752,-347.6274 299.323,-340.064 306,-333 327.9904,-309.7349 352.5771,-281.137 364.9539,-266.5478"/>
<polygon fill="#191970" stroke="#191970" points="282.5675,-351.7133 277.8251,-361.1875 287.4406,-356.7385 282.5675,-351.7133"/>
</g>
<!-- Node349&#45;&gt;Node348 -->
<g id="edge21" class="edge">
<title>Node349&#45;&gt;Node348</title>
<path fill="none" stroke="#191970" d="M193.552,-382.7574C205.2363,-380.8997 217.6895,-378.9197 228.9802,-377.1245"/>
<polygon fill="#191970" stroke="#191970" points="192.8567,-379.3239 183.5304,-384.3508 193.956,-386.2371 192.8567,-379.3239"/>
</g>
<!-- Node350&#45;&gt;Node348 -->
<g id="edge23" class="edge">
<title>Node350&#45;&gt;Node348</title>
<path fill="none" stroke="#191970" d="M187.7687,-358.3231C200.9906,-360.4253 215.6877,-362.7621 228.8256,-364.8509"/>
<polygon fill="#191970" stroke="#191970" points="187.9649,-354.8104 177.5393,-356.6966 186.8657,-361.7235 187.9649,-354.8104"/>
</g>
<!-- Node351&#45;&gt;Node337 -->
<g id="edge25" class="edge">
<title>Node351&#45;&gt;Node337</title>
<path fill="none" stroke="#191970" d="M296.8089,-299.7549C299.9246,-298.1755 303.0361,-296.5702 306,-295 323.4888,-285.7349 343.1495,-274.4819 356.6255,-266.6361"/>
<polygon fill="#191970" stroke="#191970" points="294.9771,-296.7574 287.593,-304.3552 298.1034,-303.0205 294.9771,-296.7574"/>
</g>
<!-- Node352&#45;&gt;Node337 -->
<g id="edge27" class="edge">
<title>Node352&#45;&gt;Node337</title>
<path fill="none" stroke="#191970" d="M309.7171,-268.3969C320.3917,-266.4745 331.6662,-264.444 341.6946,-262.6379"/>
<polygon fill="#191970" stroke="#191970" points="308.948,-264.979 299.7267,-270.1961 310.1888,-271.8682 308.948,-264.979"/>
</g>
<!-- Node353&#45;&gt;Node337 -->
<g id="edge29" class="edge">
<title>Node353&#45;&gt;Node337</title>
<path fill="none" stroke="#191970" d="M315.2814,-246.6052C324.2533,-248.221 333.4187,-249.8716 341.7269,-251.3679"/>
<polygon fill="#191970" stroke="#191970" points="315.752,-243.1337 305.2899,-244.8058 314.5112,-250.0229 315.752,-243.1337"/>
</g>
<!-- Node354&#45;&gt;Node337 -->
<g id="edge31" class="edge">
<title>Node354&#45;&gt;Node337</title>
<path fill="none" stroke="#191970" d="M296.8089,-214.2451C299.9246,-215.8245 303.0361,-217.4298 306,-219 323.4888,-228.2651 343.1495,-239.5181 356.6255,-247.3639"/>
<polygon fill="#191970" stroke="#191970" points="298.1034,-210.9795 287.593,-209.6448 294.9771,-217.2426 298.1034,-210.9795"/>
</g>
<!-- Node355&#45;&gt;Node337 -->
<g id="edge33" class="edge">
<title>Node355&#45;&gt;Node337</title>
<path fill="none" stroke="#191970" d="M299.5786,-176.593C301.8149,-177.9824 303.9803,-179.4539 306,-181 331.6995,-200.6729 355.0683,-231.3277 366.1803,-247.0149"/>
<polygon fill="#191970" stroke="#191970" points="301.1956,-173.4872 290.7599,-171.6577 297.777,-179.5957 301.1956,-173.4872"/>
</g>
<!-- Node356&#45;&gt;Node337 -->
<g id="edge35" class="edge">
<title>Node356&#45;&gt;Node337</title>
<path fill="none" stroke="#191970" d="M190.2496,-119.3403C224.2149,-117.7484 271.7479,-120.5803 306,-143 344.8,-168.3965 364.0843,-224.6928 370.4934,-247.3128"/>
<polygon fill="#191970" stroke="#191970" points="189.9403,-115.8526 180.1739,-119.9596 190.3698,-122.8394 189.9403,-115.8526"/>
</g>
<!-- Node357&#45;&gt;Node337 -->
<g id="edge37" class="edge">
<title>Node357&#45;&gt;Node337</title>
<path fill="none" stroke="#191970" d="M192.9589,-84.0682C227.2302,-84.8823 273.8532,-91.1832 306,-116 350.4084,-150.2825 366.8063,-221.3129 371.4566,-247.2483"/>
<polygon fill="#191970" stroke="#191970" points="192.7801,-80.5666 182.7493,-83.9773 192.7177,-87.5663 192.7801,-80.5666"/>
</g>
<!-- Node358&#45;&gt;Node337 -->
<g id="edge39" class="edge">
<title>Node358&#45;&gt;Node337</title>
<path fill="none" stroke="#191970" d="M198.5459,-47.3025C232.5803,-49.4368 276.4728,-57.5888 306,-83 358.0152,-127.7645 369.8282,-217.7154 372.3524,-247.3137"/>
<polygon fill="#191970" stroke="#191970" points="198.4804,-43.7956 188.3267,-46.8209 198.1508,-50.7878 198.4804,-43.7956"/>
</g>
<!-- Node360 -->
<g id="node26" class="node">
<title>Node360</title>
<g id="a_node26"><a xlink:href="triangle_8cpp.html#af5c7ca5685bbb13d38d7dbb7a686634d" target="_top" xlink:title="statistics">
<polygon fill="#ffffff" stroke="#000000" points="239.5,-.5 239.5,-19.5 295.5,-19.5 295.5,-.5 239.5,-.5"/>
<text text-anchor="middle" x="267.5" y="-7.5" font-family="Helvetica,sans-Serif" font-size="10.00" fill="#000000">statistics</text>
</a>
</g>
</g>
<!-- Node359&#45;&gt;Node360 -->
<g id="edge41" class="edge">
<title>Node359&#45;&gt;Node360</title>
<path fill="none" stroke="#191970" d="M203.4795,-10C215.8684,-10 228.5033,-10 239.2393,-10"/>
<polygon fill="#191970" stroke="#191970" points="203.1779,-6.5001 193.1778,-10 203.1778,-13.5001 203.1779,-6.5001"/>
</g>
<!-- Node360&#45;&gt;Node337 -->
<g id="edge42" class="edge">
<title>Node360&#45;&gt;Node337</title>
<path fill="none" stroke="#191970" d="M297.2548,-25.3214C300.5175,-27.8904 303.5412,-30.7831 306,-34 359.0253,-103.3738 370.2686,-214.4362 372.4876,-247.4494"/>
<polygon fill="#191970" stroke="#191970" points="299.0764,-22.3277 288.8381,-19.6021 295.1421,-28.1174 299.0764,-22.3277"/>
</g>
</g>
</svg>
