<?xml version="1.0" encoding="UTF-8" standalone="no"?>
<!DOCTYPE svg PUBLIC "-//W3C//DTD SVG 1.1//EN"
 "http://www.w3.org/Graphics/SVG/1.1/DTD/svg11.dtd">
<!-- Generated by graphviz version 2.40.1 (20161225.0304)
 -->
<!-- Title: counterclockwiseadapt Pages: 1 -->
<svg width="1114pt" height="484pt"
 viewBox="0.00 0.00 1114.00 484.00" xmlns="http://www.w3.org/2000/svg" xmlns:xlink="http://www.w3.org/1999/xlink">
<g id="graph0" class="graph" transform="scale(1 1) rotate(0) translate(4 480)">
<title>counterclockwiseadapt</title>
<polygon fill="#ffffff" stroke="transparent" points="-4,4 -4,-480 1110,-480 1110,4 -4,4"/>
<!-- Node704 -->
<g id="node1" class="node">
<title>Node704</title>
<polygon fill="#bfbfbf" stroke="#000000" points="0,-247.5 0,-266.5 116,-266.5 116,-247.5 0,-247.5"/>
<text text-anchor="middle" x="58" y="-254.5" font-family="Helvetica,sans-Serif" font-size="10.00" fill="#000000">counterclockwiseadapt</text>
</g>
<!-- Node705 -->
<g id="node2" class="node">
<title>Node705</title>
<g id="a_node2"><a xlink:href="triangle_8cpp.html#adbb7ef8fc2a92efceb7c1c152fbd22f1" target="_top" xlink:title="counterclockwise">
<polygon fill="#ffffff" stroke="#000000" points="152,-247.5 152,-266.5 244,-266.5 244,-247.5 152,-247.5"/>
<text text-anchor="middle" x="198" y="-254.5" font-family="Helvetica,sans-Serif" font-size="10.00" fill="#000000">counterclockwise</text>
</a>
</g>
</g>
<!-- Node704&#45;&gt;Node705 -->
<g id="edge1" class="edge">
<title>Node704&#45;&gt;Node705</title>
<path fill="none" stroke="#191970" d="M126.2511,-257C134.8912,-257 143.5668,-257 151.751,-257"/>
<polygon fill="#191970" stroke="#191970" points="126.1564,-253.5001 116.1563,-257 126.1563,-260.5001 126.1564,-253.5001"/>
</g>
<!-- Node706 -->
<g id="node3" class="node">
<title>Node706</title>
<g id="a_node3"><a xlink:href="triangle_8cpp.html#aeb60f84186be632487f896e6e0634e4a" target="_top" xlink:title="findcircumcenter">
<polygon fill="#ffffff" stroke="#000000" points="657.5,-304.5 657.5,-323.5 746.5,-323.5 746.5,-304.5 657.5,-304.5"/>
<text text-anchor="middle" x="702" y="-311.5" font-family="Helvetica,sans-Serif" font-size="10.00" fill="#000000">findcircumcenter</text>
</a>
</g>
</g>
<!-- Node705&#45;&gt;Node706 -->
<g id="edge2" class="edge">
<title>Node705&#45;&gt;Node706</title>
<path fill="none" stroke="#191970" d="M237.5638,-269.4332C250.9338,-273.2762 266.0164,-277.2239 280,-280 415.7176,-306.9431 580.028,-312.6461 657.4915,-313.7777"/>
<polygon fill="#191970" stroke="#191970" points="238.3014,-266.002 227.7201,-266.5361 236.325,-272.7172 238.3014,-266.002"/>
</g>
<!-- Node714 -->
<g id="node8" class="node">
<title>Node714</title>
<g id="a_node8"><a xlink:href="triangle_8cpp.html#a34a6e2c35be028da265a50ab3d9d6be6" target="_top" xlink:title="preciselocate">
<polygon fill="#ffffff" stroke="#000000" points="288,-228.5 288,-247.5 362,-247.5 362,-228.5 288,-228.5"/>
<text text-anchor="middle" x="325" y="-235.5" font-family="Helvetica,sans-Serif" font-size="10.00" fill="#000000">preciselocate</text>
</a>
</g>
</g>
<!-- Node705&#45;&gt;Node714 -->
<g id="edge8" class="edge">
<title>Node705&#45;&gt;Node714</title>
<path fill="none" stroke="#191970" d="M254.1048,-248.6064C265.5025,-246.9012 277.2223,-245.1478 287.7686,-243.57"/>
<polygon fill="#191970" stroke="#191970" points="253.5812,-245.1457 244.2092,-250.0868 254.617,-252.0686 253.5812,-245.1457"/>
</g>
<!-- Node715 -->
<g id="node9" class="node">
<title>Node715</title>
<g id="a_node9"><a xlink:href="triangle_8cpp.html#a51073193cbdba1daea4186d1458890e8" target="_top" xlink:title="locate">
<polygon fill="#ffffff" stroke="#000000" points="426,-266.5 426,-285.5 469,-285.5 469,-266.5 426,-266.5"/>
<text text-anchor="middle" x="447.5" y="-273.5" font-family="Helvetica,sans-Serif" font-size="10.00" fill="#000000">locate</text>
</a>
</g>
</g>
<!-- Node705&#45;&gt;Node715 -->
<g id="edge26" class="edge">
<title>Node705&#45;&gt;Node715</title>
<path fill="none" stroke="#191970" d="M254.2227,-261.2815C308.5332,-265.4174 387.9677,-271.4665 425.8493,-274.3512"/>
<polygon fill="#191970" stroke="#191970" points="254.2898,-257.7766 244.0529,-260.507 253.7582,-264.7563 254.2898,-257.7766"/>
</g>
<!-- Node716 -->
<g id="node10" class="node">
<title>Node716</title>
<g id="a_node10"><a xlink:href="triangle_8cpp.html#a2ede94743503e369e9b1c6c2a0ac9f7f" target="_top" xlink:title="insertvertex">
<polygon fill="#ffffff" stroke="#000000" points="535.5,-190.5 535.5,-209.5 603.5,-209.5 603.5,-190.5 535.5,-190.5"/>
<text text-anchor="middle" x="569.5" y="-197.5" font-family="Helvetica,sans-Serif" font-size="10.00" fill="#000000">insertvertex</text>
</a>
</g>
</g>
<!-- Node705&#45;&gt;Node716 -->
<g id="edge27" class="edge">
<title>Node705&#45;&gt;Node716</title>
<path fill="none" stroke="#191970" d="M223.0711,-242.4305C238.8623,-234.0126 259.9811,-224.1062 280,-219 370.0469,-196.0317 480.6697,-196.3012 535.4386,-198.2434"/>
<polygon fill="#191970" stroke="#191970" points="221.0634,-239.54 213.9848,-247.4232 224.4344,-245.6749 221.0634,-239.54"/>
</g>
<!-- Node720 -->
<g id="node14" class="node">
<title>Node720</title>
<g id="a_node14"><a xlink:href="triangle_8cpp.html#aded205ef0849b44d2a587f53fd720618" target="_top" xlink:title="constrainededge">
<polygon fill="#ffffff" stroke="#000000" points="904,-57.5 904,-76.5 992,-76.5 992,-57.5 904,-57.5"/>
<text text-anchor="middle" x="948" y="-64.5" font-family="Helvetica,sans-Serif" font-size="10.00" fill="#000000">constrainededge</text>
</a>
</g>
</g>
<!-- Node705&#45;&gt;Node720 -->
<g id="edge39" class="edge">
<title>Node705&#45;&gt;Node720</title>
<path fill="none" stroke="#191970" d="M204.5099,-237.4978C215.512,-207.3115 240.5208,-149.1958 280,-115 340.6053,-62.5053 367.3209,-48 447.5,-48 447.5,-48 447.5,-48 702,-48 772.6786,-48 854.4415,-55.893 903.639,-61.5044"/>
<polygon fill="#191970" stroke="#191970" points="201.0933,-236.6645 201.0894,-247.2593 207.6995,-238.9794 201.0933,-236.6645"/>
</g>
<!-- Node723 -->
<g id="node16" class="node">
<title>Node723</title>
<g id="a_node16"><a xlink:href="triangle_8cpp.html#adca37fc9e90f78c9ae794662de5428bd" target="_top" xlink:title="splitencsegs">
<polygon fill="#ffffff" stroke="#000000" points="666.5,-152.5 666.5,-171.5 737.5,-171.5 737.5,-152.5 666.5,-152.5"/>
<text text-anchor="middle" x="702" y="-159.5" font-family="Helvetica,sans-Serif" font-size="10.00" fill="#000000">splitencsegs</text>
</a>
</g>
</g>
<!-- Node705&#45;&gt;Node723 -->
<g id="edge41" class="edge">
<title>Node705&#45;&gt;Node723</title>
<path fill="none" stroke="#191970" d="M215.8449,-240.0866C231.4519,-226.4172 255.4129,-208.0178 280,-199 415.8505,-149.1739 592.1493,-154.081 666.4793,-159.0214"/>
<polygon fill="#191970" stroke="#191970" points="213.1532,-237.8017 208.0828,-247.1045 217.8478,-242.9942 213.1532,-237.8017"/>
</g>
<!-- Node724 -->
<g id="node17" class="node">
<title>Node724</title>
<g id="a_node17"><a xlink:href="triangle_8cpp.html#aa0ba1198ac22df6403aeaa25b4ebbe37" target="_top" xlink:title="carveholes">
<polygon fill="#ffffff" stroke="#000000" points="537.5,-342.5 537.5,-361.5 601.5,-361.5 601.5,-342.5 537.5,-342.5"/>
<text text-anchor="middle" x="569.5" y="-349.5" font-family="Helvetica,sans-Serif" font-size="10.00" fill="#000000">carveholes</text>
</a>
</g>
</g>
<!-- Node705&#45;&gt;Node724 -->
<g id="edge40" class="edge">
<title>Node705&#45;&gt;Node724</title>
<path fill="none" stroke="#191970" d="M205.2124,-276.2388C216.4892,-303.1781 241.118,-351.072 280,-371 368.5278,-416.3727 492.7669,-380.4282 544.9252,-361.6311"/>
<polygon fill="#191970" stroke="#191970" points="208.3779,-274.7275 201.4254,-266.733 201.875,-277.3183 208.3779,-274.7275"/>
</g>
<!-- Node725 -->
<g id="node18" class="node">
<title>Node725</title>
<g id="a_node18"><a xlink:href="triangle_8cpp.html#a8b98b5137610f709b12bc0f9de701534" target="_top" xlink:title="mergehulls">
<polygon fill="#ffffff" stroke="#000000" points="293,-456.5 293,-475.5 357,-475.5 357,-456.5 293,-456.5"/>
<text text-anchor="middle" x="325" y="-463.5" font-family="Helvetica,sans-Serif" font-size="10.00" fill="#000000">mergehulls</text>
</a>
</g>
</g>
<!-- Node705&#45;&gt;Node725 -->
<g id="edge28" class="edge">
<title>Node705&#45;&gt;Node725</title>
<path fill="none" stroke="#191970" d="M202.1835,-276.5725C210.8796,-313.1346 234.0395,-392.5687 280,-442 285.5467,-447.9656 292.9185,-452.743 300.0872,-456.4158"/>
<polygon fill="#191970" stroke="#191970" points="205.5656,-275.6605 199.9399,-266.6827 198.7391,-277.2093 205.5656,-275.6605"/>
</g>
<!-- Node726 -->
<g id="node19" class="node">
<title>Node726</title>
<g id="a_node19"><a xlink:href="triangle_8cpp.html#ae64549179195e9fea8a3589a003e44ac" target="_top" xlink:title="divconqrecurse">
<polygon fill="#ffffff" stroke="#000000" points="406,-418.5 406,-437.5 489,-437.5 489,-418.5 406,-418.5"/>
<text text-anchor="middle" x="447.5" y="-425.5" font-family="Helvetica,sans-Serif" font-size="10.00" fill="#000000">divconqrecurse</text>
</a>
</g>
</g>
<!-- Node705&#45;&gt;Node726 -->
<g id="edge33" class="edge">
<title>Node705&#45;&gt;Node726</title>
<path fill="none" stroke="#191970" d="M202.8511,-276.5571C211.9795,-308.9073 234.9745,-373.0547 280,-404 317.0416,-429.4581 369.6367,-433.0585 405.9631,-431.8344"/>
<polygon fill="#191970" stroke="#191970" points="206.1413,-275.3107 200.1872,-266.5471 199.3767,-277.1109 206.1413,-275.3107"/>
</g>
<!-- Node729 -->
<g id="node22" class="node">
<title>Node729</title>
<g id="a_node22"><a xlink:href="triangle_8cpp.html#add01d18cf8d218a091d600fd0c97fb67" target="_top" xlink:title="finddirection">
<polygon fill="#ffffff" stroke="#000000" points="535,-114.5 535,-133.5 604,-133.5 604,-114.5 535,-114.5"/>
<text text-anchor="middle" x="569.5" y="-121.5" font-family="Helvetica,sans-Serif" font-size="10.00" fill="#000000">finddirection</text>
</a>
</g>
</g>
<!-- Node705&#45;&gt;Node729 -->
<g id="edge34" class="edge">
<title>Node705&#45;&gt;Node729</title>
<path fill="none" stroke="#191970" d="M206.1924,-237.9052C218.248,-212.4356 243.3731,-168.213 280,-148 362.1289,-102.6763 477.7393,-110.5442 534.8231,-118.2357"/>
<polygon fill="#191970" stroke="#191970" points="202.8962,-236.6996 201.9578,-247.2528 209.2725,-239.5882 202.8962,-236.6996"/>
</g>
<!-- Node730 -->
<g id="node23" class="node">
<title>Node730</title>
<g id="a_node23"><a xlink:href="triangle_8cpp.html#a4ea48503ae03dd0ab0e1c9dc926c3ce2" target="_top" xlink:title="delaunayfixup">
<polygon fill="#ffffff" stroke="#000000" points="790.5,-.5 790.5,-19.5 867.5,-19.5 867.5,-.5 790.5,-.5"/>
<text text-anchor="middle" x="829" y="-7.5" font-family="Helvetica,sans-Serif" font-size="10.00" fill="#000000">delaunayfixup</text>
</a>
</g>
</g>
<!-- Node705&#45;&gt;Node730 -->
<g id="edge37" class="edge">
<title>Node705&#45;&gt;Node730</title>
<path fill="none" stroke="#191970" d="M202.4743,-237.4749C214.1746,-188.1682 247.0595,-60.658 280,-34 338.4595,13.31 372.2953,-10 447.5,-10 447.5,-10 447.5,-10 569.5,-10 647.8906,-10 739.6015,-10 790.3109,-10"/>
<polygon fill="#191970" stroke="#191970" points="199.0591,-236.7087 200.1922,-247.2427 205.8756,-238.3013 199.0591,-236.7087"/>
</g>
<!-- Node731 -->
<g id="node24" class="node">
<title>Node731</title>
<g id="a_node24"><a xlink:href="triangle_8cpp.html#ada18b75ad55debb3c033ba1db23ba2b4" target="_top" xlink:title="quality_statistics">
<polygon fill="#ffffff" stroke="#000000" points="280,-342.5 280,-361.5 370,-361.5 370,-342.5 280,-342.5"/>
<text text-anchor="middle" x="325" y="-349.5" font-family="Helvetica,sans-Serif" font-size="10.00" fill="#000000">quality_statistics</text>
</a>
</g>
</g>
<!-- Node705&#45;&gt;Node731 -->
<g id="edge42" class="edge">
<title>Node705&#45;&gt;Node731</title>
<path fill="none" stroke="#191970" d="M214.9892,-273.7227C230.9593,-288.9381 255.9421,-311.4777 280,-328 287.7366,-333.3133 296.7815,-338.3412 304.7248,-342.4092"/>
<polygon fill="#191970" stroke="#191970" points="217.1375,-270.9317 207.5121,-266.5043 212.2757,-275.9679 217.1375,-270.9317"/>
</g>
<!-- Node707 -->
<g id="node4" class="node">
<title>Node707</title>
<g id="a_node4"><a xlink:href="triangle_8cpp.html#a48fc63d369d988c08cbe8ab40f0b8af5" target="_top" xlink:title="splittriangle">
<polygon fill="#ffffff" stroke="#000000" points="796,-228.5 796,-247.5 862,-247.5 862,-228.5 796,-228.5"/>
<text text-anchor="middle" x="829" y="-235.5" font-family="Helvetica,sans-Serif" font-size="10.00" fill="#000000">splittriangle</text>
</a>
</g>
</g>
<!-- Node706&#45;&gt;Node707 -->
<g id="edge3" class="edge">
<title>Node706&#45;&gt;Node707</title>
<path fill="none" stroke="#191970" d="M726.824,-299.1447C752.3546,-283.8665 791.3582,-260.5258 813.046,-247.5473"/>
<polygon fill="#191970" stroke="#191970" points="724.8683,-296.2362 718.0846,-304.3745 728.4628,-302.2428 724.8683,-296.2362"/>
</g>
<!-- Node713 -->
<g id="node7" class="node">
<title>Node713</title>
<g id="a_node7"><a xlink:href="triangle_8cpp.html#a63c072a0ec5fd1e7ab2f23ecc4dd576a" target="_top" xlink:title="writevoronoi">
<polygon fill="#ffffff" stroke="#000000" points="913.5,-304.5 913.5,-323.5 982.5,-323.5 982.5,-304.5 913.5,-304.5"/>
<text text-anchor="middle" x="948" y="-311.5" font-family="Helvetica,sans-Serif" font-size="10.00" fill="#000000">writevoronoi</text>
</a>
</g>
</g>
<!-- Node706&#45;&gt;Node713 -->
<g id="edge6" class="edge">
<title>Node706&#45;&gt;Node713</title>
<path fill="none" stroke="#191970" d="M756.7366,-314C804.5835,-314 872.5991,-314 913.3105,-314"/>
<polygon fill="#191970" stroke="#191970" points="756.5488,-310.5001 746.5487,-314 756.5487,-317.5001 756.5488,-310.5001"/>
</g>
<!-- Node708 -->
<g id="node5" class="node">
<title>Node708</title>
<g id="a_node5"><a xlink:href="triangle_8cpp.html#a5a654ff6b304f2166c64ffe9183b2995" target="_top" xlink:title="enforcequality">
<polygon fill="#ffffff" stroke="#000000" points="909.5,-228.5 909.5,-247.5 986.5,-247.5 986.5,-228.5 909.5,-228.5"/>
<text text-anchor="middle" x="948" y="-235.5" font-family="Helvetica,sans-Serif" font-size="10.00" fill="#000000">enforcequality</text>
</a>
</g>
</g>
<!-- Node707&#45;&gt;Node708 -->
<g id="edge4" class="edge">
<title>Node707&#45;&gt;Node708</title>
<path fill="none" stroke="#191970" d="M872.4105,-238C884.4278,-238 897.3919,-238 909.1327,-238"/>
<polygon fill="#191970" stroke="#191970" points="872.1482,-234.5001 862.1481,-238 872.1481,-241.5001 872.1482,-234.5001"/>
</g>
<!-- Node709 -->
<g id="node6" class="node">
<title>Node709</title>
<g id="a_node6"><a xlink:href="triangle_8hpp.html#a4ca59bf5fe569672944651426b662ba6" target="_top" xlink:title="Call Triangle. ">
<polygon fill="#ffffff" stroke="#ff0000" points="1036,-342.5 1036,-361.5 1098,-361.5 1098,-342.5 1036,-342.5"/>
<text text-anchor="middle" x="1067" y="-349.5" font-family="Helvetica,sans-Serif" font-size="10.00" fill="#000000">triangulate</text>
</a>
</g>
</g>
<!-- Node708&#45;&gt;Node709 -->
<g id="edge5" class="edge">
<title>Node708&#45;&gt;Node709</title>
<path fill="none" stroke="#191970" d="M965.57,-254.8317C990.8359,-279.0361 1036.6144,-322.8912 1056.8798,-342.305"/>
<polygon fill="#191970" stroke="#191970" points="967.7883,-252.1099 958.1459,-247.7196 962.9458,-257.1648 967.7883,-252.1099"/>
</g>
<!-- Node713&#45;&gt;Node709 -->
<g id="edge7" class="edge">
<title>Node713&#45;&gt;Node709</title>
<path fill="none" stroke="#191970" d="M987.7098,-326.6804C1003.7886,-331.8148 1022.0433,-337.6441 1036.9809,-342.4141"/>
<polygon fill="#191970" stroke="#191970" points="988.6195,-323.2969 978.0287,-323.589 986.4901,-329.9652 988.6195,-323.2969"/>
</g>
<!-- Node714&#45;&gt;Node715 -->
<g id="edge9" class="edge">
<title>Node714&#45;&gt;Node715</title>
<path fill="none" stroke="#191970" d="M365.4848,-250.5585C385.633,-256.8086 409.1816,-264.1135 425.8639,-269.2884"/>
<polygon fill="#191970" stroke="#191970" points="366.4999,-247.209 355.9119,-247.589 364.426,-253.8947 366.4999,-247.209"/>
</g>
<!-- Node714&#45;&gt;Node716 -->
<g id="edge25" class="edge">
<title>Node714&#45;&gt;Node716</title>
<path fill="none" stroke="#191970" d="M372.3758,-231.4106C405.1581,-226.7668 449.7725,-220.2802 489,-214 504.2677,-211.5557 521.1279,-208.6548 535.4565,-206.1293"/>
<polygon fill="#191970" stroke="#191970" points="371.5825,-227.9877 362.1698,-232.8509 372.5608,-234.9191 371.5825,-227.9877"/>
</g>
<!-- Node715&#45;&gt;Node716 -->
<g id="edge10" class="edge">
<title>Node715&#45;&gt;Node716</title>
<path fill="none" stroke="#191970" d="M473.5172,-261.2161C478.6749,-258.2117 484.0299,-255.0399 489,-252 512.4194,-237.676 539.0911,-220.2147 555.0938,-209.6107"/>
<polygon fill="#191970" stroke="#191970" points="471.4837,-258.3486 464.572,-266.3785 474.9826,-264.4114 471.4837,-258.3486"/>
</g>
<!-- Node721 -->
<g id="node15" class="node">
<title>Node721</title>
<g id="a_node15"><a xlink:href="triangle_8cpp.html#ae367b20189056436da2a1b633b392703" target="_top" xlink:title="insertsegment">
<polygon fill="#ffffff" stroke="#ff0000" points="1028,-95.5 1028,-114.5 1106,-114.5 1106,-95.5 1028,-95.5"/>
<text text-anchor="middle" x="1067" y="-102.5" font-family="Helvetica,sans-Serif" font-size="10.00" fill="#000000">insertsegment</text>
</a>
</g>
</g>
<!-- Node715&#45;&gt;Node721 -->
<g id="edge22" class="edge">
<title>Node715&#45;&gt;Node721</title>
<path fill="none" stroke="#191970" d="M479.4092,-276C527.6173,-276 621.8992,-276 702,-276 702,-276 702,-276 829,-276 901.9349,-276 932.3964,-299.0347 992,-257 1042.5003,-221.3853 1060.617,-141.9182 1065.4971,-114.5097"/>
<polygon fill="#191970" stroke="#191970" points="479.2879,-272.5001 469.2879,-276 479.2878,-279.5001 479.2879,-272.5001"/>
</g>
<!-- Node715&#45;&gt;Node724 -->
<g id="edge23" class="edge">
<title>Node715&#45;&gt;Node724</title>
<path fill="none" stroke="#191970" d="M471.6702,-291.0568C496.2005,-306.338 533.4315,-329.5311 554.1741,-342.4527"/>
<polygon fill="#191970" stroke="#191970" points="473.2898,-287.9422 462.9514,-285.6255 469.5886,-293.8837 473.2898,-287.9422"/>
</g>
<!-- Node716&#45;&gt;Node707 -->
<g id="edge21" class="edge">
<title>Node716&#45;&gt;Node707</title>
<path fill="none" stroke="#191970" d="M613.8091,-202.7457C651.3401,-205.5046 706.4696,-210.5782 754,-219 767.8875,-221.4607 783,-225.0992 795.9963,-228.5353"/>
<polygon fill="#191970" stroke="#191970" points="613.9341,-199.2458 603.7111,-202.0281 613.4378,-206.2282 613.9341,-199.2458"/>
</g>
<!-- Node717 -->
<g id="node11" class="node">
<title>Node717</title>
<g id="a_node11"><a xlink:href="triangle_8cpp.html#a4e3735a2f4c1fa18deb1a2e66aeda7bd" target="_top" xlink:title="undovertex">
<polygon fill="#ffffff" stroke="#000000" points="669.5,-228.5 669.5,-247.5 734.5,-247.5 734.5,-228.5 669.5,-228.5"/>
<text text-anchor="middle" x="702" y="-235.5" font-family="Helvetica,sans-Serif" font-size="10.00" fill="#000000">undovertex</text>
</a>
</g>
</g>
<!-- Node716&#45;&gt;Node717 -->
<g id="edge11" class="edge">
<title>Node716&#45;&gt;Node717</title>
<path fill="none" stroke="#191970" d="M612.602,-212.3613C631.0995,-217.6663 652.3508,-223.761 669.4914,-228.6768"/>
<polygon fill="#191970" stroke="#191970" points="613.5127,-208.9815 602.9353,-209.589 611.5829,-215.7102 613.5127,-208.9815"/>
</g>
<!-- Node718 -->
<g id="node12" class="node">
<title>Node718</title>
<g id="a_node12"><a xlink:href="triangle_8cpp.html#a496c50bca0cf0c214a0204419c3b181a" target="_top" xlink:title="segmentintersection">
<polygon fill="#ffffff" stroke="#000000" points="650,-114.5 650,-133.5 754,-133.5 754,-114.5 650,-114.5"/>
<text text-anchor="middle" x="702" y="-121.5" font-family="Helvetica,sans-Serif" font-size="10.00" fill="#000000">segmentintersection</text>
</a>
</g>
</g>
<!-- Node716&#45;&gt;Node718 -->
<g id="edge13" class="edge">
<title>Node716&#45;&gt;Node718</title>
<path fill="none" stroke="#191970" d="M588.7909,-184.1128C604.5343,-171.711 627.7377,-154.6813 650,-143 656.8088,-139.4273 664.4403,-136.2321 671.7153,-133.5273"/>
<polygon fill="#191970" stroke="#191970" points="586.4808,-181.4788 580.8655,-190.4632 590.8579,-186.9415 586.4808,-181.4788"/>
</g>
<!-- Node716&#45;&gt;Node723 -->
<g id="edge19" class="edge">
<title>Node716&#45;&gt;Node723</title>
<path fill="none" stroke="#191970" d="M612.7039,-187.6094C630.8492,-182.4055 651.6294,-176.4459 668.5754,-171.5859"/>
<polygon fill="#191970" stroke="#191970" points="611.5829,-184.2898 602.9353,-190.411 613.5127,-191.0185 611.5829,-184.2898"/>
</g>
<!-- Node717&#45;&gt;Node707 -->
<g id="edge12" class="edge">
<title>Node717&#45;&gt;Node707</title>
<path fill="none" stroke="#191970" d="M744.7806,-238C761.4847,-238 780.3371,-238 795.9638,-238"/>
<polygon fill="#191970" stroke="#191970" points="744.7057,-234.5001 734.7057,-238 744.7056,-241.5001 744.7057,-234.5001"/>
</g>
<!-- Node719 -->
<g id="node13" class="node">
<title>Node719</title>
<g id="a_node13"><a xlink:href="triangle_8cpp.html#ae9d4ed09a0fd07959568ba5f86cc4d0c" target="_top" xlink:title="scoutsegment">
<polygon fill="#ffffff" stroke="#000000" points="790,-76.5 790,-95.5 868,-95.5 868,-76.5 790,-76.5"/>
<text text-anchor="middle" x="829" y="-83.5" font-family="Helvetica,sans-Serif" font-size="10.00" fill="#000000">scoutsegment</text>
</a>
</g>
</g>
<!-- Node718&#45;&gt;Node719 -->
<g id="edge14" class="edge">
<title>Node718&#45;&gt;Node719</title>
<path fill="none" stroke="#191970" d="M743.8943,-111.4647C761.1712,-106.2952 780.8707,-100.4009 796.9628,-95.5859"/>
<polygon fill="#191970" stroke="#191970" points="742.6245,-108.1912 734.0475,-114.411 744.6311,-114.8975 742.6245,-108.1912"/>
</g>
<!-- Node718&#45;&gt;Node720 -->
<g id="edge18" class="edge">
<title>Node718&#45;&gt;Node720</title>
<path fill="none" stroke="#191970" d="M764.0716,-121.746C795.6702,-119.3865 834.405,-114.6133 868,-105 891.3568,-98.3164 916.3562,-85.4079 932.0735,-76.5043"/>
<polygon fill="#191970" stroke="#191970" points="763.8161,-118.2552 754.0786,-122.4303 764.2944,-125.2388 763.8161,-118.2552"/>
</g>
<!-- Node719&#45;&gt;Node720 -->
<g id="edge15" class="edge">
<title>Node719&#45;&gt;Node720</title>
<path fill="none" stroke="#191970" d="M878.3907,-78.1141C886.8196,-76.7683 895.5273,-75.378 903.8104,-74.0555"/>
<polygon fill="#191970" stroke="#191970" points="877.6179,-74.6931 868.2948,-79.726 878.7216,-81.6055 877.6179,-74.6931"/>
</g>
<!-- Node719&#45;&gt;Node721 -->
<g id="edge17" class="edge">
<title>Node719&#45;&gt;Node721</title>
<path fill="none" stroke="#191970" d="M878.0201,-89.9134C922.4101,-93.4571 986.9506,-98.6095 1027.9443,-101.8821"/>
<polygon fill="#191970" stroke="#191970" points="878.2812,-86.4232 868.0344,-89.1162 877.7241,-93.401 878.2812,-86.4232"/>
</g>
<!-- Node720&#45;&gt;Node721 -->
<g id="edge16" class="edge">
<title>Node720&#45;&gt;Node721</title>
<path fill="none" stroke="#191970" d="M987.7098,-79.6804C1003.7886,-84.8148 1022.0433,-90.6441 1036.9809,-95.4141"/>
<polygon fill="#191970" stroke="#191970" points="988.6195,-76.2969 978.0287,-76.589 986.4901,-82.9652 988.6195,-76.2969"/>
</g>
<!-- Node723&#45;&gt;Node708 -->
<g id="edge20" class="edge">
<title>Node723&#45;&gt;Node708</title>
<path fill="none" stroke="#191970" d="M742.8082,-174.6074C791.8307,-189.7526 872.9685,-214.8196 917.0969,-228.4527"/>
<polygon fill="#191970" stroke="#191970" points="743.7436,-171.2332 733.1561,-171.6255 741.6774,-177.9213 743.7436,-171.2332"/>
</g>
<!-- Node724&#45;&gt;Node709 -->
<g id="edge24" class="edge">
<title>Node724&#45;&gt;Node709</title>
<path fill="none" stroke="#191970" d="M611.8805,-352C709.7846,-352 949.849,-352 1035.7758,-352"/>
<polygon fill="#191970" stroke="#191970" points="611.7591,-348.5001 601.759,-352 611.759,-355.5001 611.7591,-348.5001"/>
</g>
<!-- Node725&#45;&gt;Node726 -->
<g id="edge29" class="edge">
<title>Node725&#45;&gt;Node726</title>
<path fill="none" stroke="#191970" d="M365.8777,-453.3196C382.4294,-448.1852 401.2211,-442.3559 416.598,-437.5859"/>
<polygon fill="#191970" stroke="#191970" points="364.426,-450.1053 355.9119,-456.411 366.4999,-456.791 364.426,-450.1053"/>
</g>
<!-- Node727 -->
<g id="node20" class="node">
<title>Node727</title>
<g id="a_node20"><a xlink:href="triangle_8cpp.html#a4a13891380126c239a32b46c88f06223" target="_top" xlink:title="divconqdelaunay">
<polygon fill="#ffffff" stroke="#000000" points="525,-418.5 525,-437.5 614,-437.5 614,-418.5 525,-418.5"/>
<text text-anchor="middle" x="569.5" y="-425.5" font-family="Helvetica,sans-Serif" font-size="10.00" fill="#000000">divconqdelaunay</text>
</a>
</g>
</g>
<!-- Node726&#45;&gt;Node727 -->
<g id="edge30" class="edge">
<title>Node726&#45;&gt;Node727</title>
<path fill="none" stroke="#191970" d="M499.2909,-428C507.7444,-428 516.4395,-428 524.7064,-428"/>
<polygon fill="#191970" stroke="#191970" points="499.1443,-424.5001 489.1443,-428 499.1442,-431.5001 499.1443,-424.5001"/>
</g>
<!-- Node728 -->
<g id="node21" class="node">
<title>Node728</title>
<g id="a_node21"><a xlink:href="triangle_8cpp.html#ab67faa70960c7c39ee1150ab4d55f0a5" target="_top" xlink:title="delaunay">
<polygon fill="#ffffff" stroke="#000000" points="801,-418.5 801,-437.5 857,-437.5 857,-418.5 801,-418.5"/>
<text text-anchor="middle" x="829" y="-425.5" font-family="Helvetica,sans-Serif" font-size="10.00" fill="#000000">delaunay</text>
</a>
</g>
</g>
<!-- Node727&#45;&gt;Node728 -->
<g id="edge31" class="edge">
<title>Node727&#45;&gt;Node728</title>
<path fill="none" stroke="#191970" d="M624.2133,-428C678.2659,-428 758.7905,-428 800.9534,-428"/>
<polygon fill="#191970" stroke="#191970" points="624.1097,-424.5001 614.1096,-428 624.1096,-431.5001 624.1097,-424.5001"/>
</g>
<!-- Node728&#45;&gt;Node709 -->
<g id="edge32" class="edge">
<title>Node728&#45;&gt;Node709</title>
<path fill="none" stroke="#191970" d="M867.4947,-427.2619C901.3554,-425.4752 951.4311,-420.0259 992,-404 1017.3463,-393.9875 1042.4897,-373.9557 1056.2611,-361.8878"/>
<polygon fill="#191970" stroke="#191970" points="866.9387,-423.783 857.1034,-427.722 867.2485,-430.7761 866.9387,-423.783"/>
</g>
<!-- Node729&#45;&gt;Node718 -->
<g id="edge35" class="edge">
<title>Node729&#45;&gt;Node718</title>
<path fill="none" stroke="#191970" d="M614.4791,-124C625.8861,-124 638.2343,-124 649.9593,-124"/>
<polygon fill="#191970" stroke="#191970" points="614.3128,-120.5001 604.3128,-124 614.3128,-127.5001 614.3128,-120.5001"/>
</g>
<!-- Node729&#45;&gt;Node719 -->
<g id="edge36" class="edge">
<title>Node729&#45;&gt;Node719</title>
<path fill="none" stroke="#191970" d="M614.1062,-112.4154C625.7317,-109.6872 638.2851,-106.9961 650,-105 697.7508,-96.8639 753.2984,-91.6148 789.6963,-88.7394"/>
<polygon fill="#191970" stroke="#191970" points="613.0767,-109.0631 604.1732,-114.8059 614.7146,-115.8688 613.0767,-109.0631"/>
</g>
<!-- Node730&#45;&gt;Node720 -->
<g id="edge38" class="edge">
<title>Node730&#45;&gt;Node720</title>
<path fill="none" stroke="#191970" d="M858.0132,-23.8971C879.7257,-34.2972 908.8594,-48.252 928.0171,-57.4284"/>
<polygon fill="#191970" stroke="#191970" points="859.4487,-20.7039 848.9179,-19.5405 856.4247,-27.0171 859.4487,-20.7039"/>
</g>
<!-- Node732 -->
<g id="node25" class="node">
<title>Node732</title>
<g id="a_node25"><a xlink:href="triangle_8cpp.html#af5c7ca5685bbb13d38d7dbb7a686634d" target="_top" xlink:title="statistics">
<polygon fill="#ffffff" stroke="#000000" points="419.5,-342.5 419.5,-361.5 475.5,-361.5 475.5,-342.5 419.5,-342.5"/>
<text text-anchor="middle" x="447.5" y="-349.5" font-family="Helvetica,sans-Serif" font-size="10.00" fill="#000000">statistics</text>
</a>
</g>
</g>
<!-- Node731&#45;&gt;Node732 -->
<g id="edge43" class="edge">
<title>Node731&#45;&gt;Node732</title>
<path fill="none" stroke="#191970" d="M380.479,-352C393.9878,-352 407.8744,-352 419.4788,-352"/>
<polygon fill="#191970" stroke="#191970" points="380.2665,-348.5001 370.2664,-352 380.2664,-355.5001 380.2665,-348.5001"/>
</g>
<!-- Node732&#45;&gt;Node709 -->
<g id="edge44" class="edge">
<title>Node732&#45;&gt;Node709</title>
<path fill="none" stroke="#191970" d="M485.7074,-362.4402C498.1611,-365.5545 512.1013,-368.737 525,-371 602.9283,-384.6721 622.8814,-390 702,-390 702,-390 702,-390 829,-390 903.8986,-390 990.416,-371.4215 1035.6856,-360.2454"/>
<polygon fill="#191970" stroke="#191970" points="486.2074,-358.9553 475.6514,-359.8619 484.4688,-365.7359 486.2074,-358.9553"/>
</g>
</g>
</svg>
