<?xml version="1.0" encoding="UTF-8" standalone="no"?>
<!DOCTYPE svg PUBLIC "-//W3C//DTD SVG 1.1//EN"
 "http://www.w3.org/Graphics/SVG/1.1/DTD/svg11.dtd">
<!-- Generated by graphviz version 2.40.1 (20161225.0304)
 -->
<!-- Title: formskeleton Pages: 1 -->
<svg width="1357pt" height="800pt"
 viewBox="0.00 0.00 1357.00 799.70" xmlns="http://www.w3.org/2000/svg" xmlns:xlink="http://www.w3.org/1999/xlink">
<g id="graph0" class="graph" transform="scale(1 1) rotate(0) translate(4 795.6954)">
<title>formskeleton</title>
<polygon fill="#ffffff" stroke="transparent" points="-4,4 -4,-795.6954 1353,-795.6954 1353,4 -4,4"/>
<!-- Node1586 -->
<g id="node1" class="node">
<title>Node1586</title>
<polygon fill="#bfbfbf" stroke="#000000" points="0,-696.1954 0,-715.1954 73,-715.1954 73,-696.1954 0,-696.1954"/>
<text text-anchor="middle" x="36.5" y="-703.1954" font-family="Helvetica,sans-Serif" font-size="10.00" fill="#000000">formskeleton</text>
</g>
<!-- Node1587 -->
<g id="node2" class="node">
<title>Node1587</title>
<g id="a_node2"><a xlink:href="triangle_8cpp.html#a0b4e7c06798ba40d7b435a2814f529d7" target="_top" xlink:title="makevertexmap">
<polygon fill="#ffffff" stroke="#000000" points="109,-753.1954 109,-772.1954 195,-772.1954 195,-753.1954 109,-753.1954"/>
<text text-anchor="middle" x="152" y="-760.1954" font-family="Helvetica,sans-Serif" font-size="10.00" fill="#000000">makevertexmap</text>
</a>
</g>
</g>
<!-- Node1586&#45;&gt;Node1587 -->
<g id="edge1" class="edge">
<title>Node1586&#45;&gt;Node1587</title>
<path fill="none" stroke="#191970" d="M53.9138,-715.2405C68.4971,-723.1327 89.9283,-734.4964 109,-743.6954 112.6181,-745.4406 116.4345,-747.217 120.2391,-748.9482"/>
<polygon fill="#191970" stroke="#191970" points="118.9951,-752.2259 129.5526,-753.1146 121.8536,-745.8361 118.9951,-752.2259"/>
</g>
<!-- Node1591 -->
<g id="node6" class="node">
<title>Node1591</title>
<g id="a_node6"><a xlink:href="triangle_8cpp.html#a1bf330df25b4dad6362ef676334b200f" target="_top" xlink:title="getvertex">
<polygon fill="#ffffff" stroke="#000000" points="123.5,-715.1954 123.5,-734.1954 180.5,-734.1954 180.5,-715.1954 123.5,-715.1954"/>
<text text-anchor="middle" x="152" y="-722.1954" font-family="Helvetica,sans-Serif" font-size="10.00" fill="#000000">getvertex</text>
</a>
</g>
</g>
<!-- Node1586&#45;&gt;Node1591 -->
<g id="edge5" class="edge">
<title>Node1586&#45;&gt;Node1591</title>
<path fill="none" stroke="#191970" d="M73.0449,-711.7071C85.8735,-713.8175 100.3233,-716.1945 113.3212,-718.3327"/>
<polygon fill="#191970" stroke="#191970" points="112.9397,-721.8169 123.3753,-719.9866 114.076,-714.9097 112.9397,-721.8169"/>
</g>
<!-- Node1592 -->
<g id="node7" class="node">
<title>Node1592</title>
<g id="a_node7"><a xlink:href="triangle_8cpp.html#ae367b20189056436da2a1b633b392703" target="_top" xlink:title="insertsegment">
<polygon fill="#ffffff" stroke="#000000" points="113,-544.1954 113,-563.1954 191,-563.1954 191,-544.1954 113,-544.1954"/>
<text text-anchor="middle" x="152" y="-551.1954" font-family="Helvetica,sans-Serif" font-size="10.00" fill="#000000">insertsegment</text>
</a>
</g>
</g>
<!-- Node1586&#45;&gt;Node1592 -->
<g id="edge6" class="edge">
<title>Node1586&#45;&gt;Node1592</title>
<path fill="none" stroke="#191970" d="M43.725,-696.1871C62.6847,-671.2358 114.0868,-603.5899 138.6199,-571.3039"/>
<polygon fill="#191970" stroke="#191970" points="141.5142,-573.2798 144.7777,-563.2001 135.9407,-569.0447 141.5142,-573.2798"/>
</g>
<!-- Node1625 -->
<g id="node34" class="node">
<title>Node1625</title>
<g id="a_node34"><a xlink:href="triangle_8cpp.html#ab7ca7ba248dc47379e3c0f2bb9962bd4" target="_top" xlink:title="markhull">
<polygon fill="#ffffff" stroke="#000000" points="367.5,-682.1954 367.5,-701.1954 420.5,-701.1954 420.5,-682.1954 367.5,-682.1954"/>
<text text-anchor="middle" x="394" y="-689.1954" font-family="Helvetica,sans-Serif" font-size="10.00" fill="#000000">markhull</text>
</a>
</g>
</g>
<!-- Node1586&#45;&gt;Node1625 -->
<g id="edge54" class="edge">
<title>Node1586&#45;&gt;Node1625</title>
<path fill="none" stroke="#191970" d="M73.0787,-704.263C141.4919,-701.5838 288.0956,-695.8427 356.9022,-693.1482"/>
<polygon fill="#191970" stroke="#191970" points="357.398,-696.6316 367.2533,-692.7428 357.124,-689.6369 357.398,-696.6316"/>
</g>
<!-- Node1588 -->
<g id="node3" class="node">
<title>Node1588</title>
<g id="a_node3"><a xlink:href="triangle_8cpp.html#ac497210bc9192d88ed80659833ba5f55" target="_top" xlink:title="traversalinit">
<polygon fill="#ffffff" stroke="#000000" points="241.5,-734.1954 241.5,-753.1954 308.5,-753.1954 308.5,-734.1954 241.5,-734.1954"/>
<text text-anchor="middle" x="275" y="-741.1954" font-family="Helvetica,sans-Serif" font-size="10.00" fill="#000000">traversalinit</text>
</a>
</g>
</g>
<!-- Node1587&#45;&gt;Node1588 -->
<g id="edge2" class="edge">
<title>Node1587&#45;&gt;Node1588</title>
<path fill="none" stroke="#191970" d="M195.0194,-756.0501C206.7001,-754.2458 219.3613,-752.29 231.0905,-750.4782"/>
<polygon fill="#191970" stroke="#191970" points="231.7615,-753.9161 241.11,-748.9305 230.6928,-746.9982 231.7615,-753.9161"/>
</g>
<!-- Node1589 -->
<g id="node4" class="node">
<title>Node1589</title>
<g id="a_node4"><a xlink:href="triangle_8cpp.html#ac5f43264b4c12a0300c268142b0b3ee6" target="_top" xlink:title="triangletraverse">
<polygon fill="#ffffff" stroke="#000000" points="233.5,-772.1954 233.5,-791.1954 316.5,-791.1954 316.5,-772.1954 233.5,-772.1954"/>
<text text-anchor="middle" x="275" y="-779.1954" font-family="Helvetica,sans-Serif" font-size="10.00" fill="#000000">triangletraverse</text>
</a>
</g>
</g>
<!-- Node1587&#45;&gt;Node1589 -->
<g id="edge3" class="edge">
<title>Node1587&#45;&gt;Node1589</title>
<path fill="none" stroke="#191970" d="M195.0194,-769.3407C204.1769,-770.7553 213.9371,-772.2629 223.3783,-773.7213"/>
<polygon fill="#191970" stroke="#191970" points="223.0372,-777.2101 233.4543,-775.2778 224.1058,-770.2921 223.0372,-777.2101"/>
</g>
<!-- Node1590 -->
<g id="node5" class="node">
<title>Node1590</title>
<g id="a_node5"><a xlink:href="triangle_8cpp.html#a908560980328e10c897c5c34bb733e9d" target="_top" xlink:title="traverse">
<polygon fill="#ffffff" stroke="#000000" points="368,-772.1954 368,-791.1954 420,-791.1954 420,-772.1954 368,-772.1954"/>
<text text-anchor="middle" x="394" y="-779.1954" font-family="Helvetica,sans-Serif" font-size="10.00" fill="#000000">traverse</text>
</a>
</g>
</g>
<!-- Node1589&#45;&gt;Node1590 -->
<g id="edge4" class="edge">
<title>Node1589&#45;&gt;Node1590</title>
<path fill="none" stroke="#191970" d="M316.6204,-781.6954C329.9205,-781.6954 344.5344,-781.6954 357.446,-781.6954"/>
<polygon fill="#191970" stroke="#191970" points="357.8252,-785.1955 367.8251,-781.6954 357.8251,-778.1955 357.8252,-785.1955"/>
</g>
<!-- Node1593 -->
<g id="node8" class="node">
<title>Node1593</title>
<g id="a_node8"><a xlink:href="triangle_8cpp.html#a51073193cbdba1daea4186d1458890e8" target="_top" xlink:title="locate">
<polygon fill="#ffffff" stroke="#000000" points="728.5,-70.1954 728.5,-89.1954 771.5,-89.1954 771.5,-70.1954 728.5,-70.1954"/>
<text text-anchor="middle" x="750" y="-77.1954" font-family="Helvetica,sans-Serif" font-size="10.00" fill="#000000">locate</text>
</a>
</g>
</g>
<!-- Node1592&#45;&gt;Node1593 -->
<g id="edge7" class="edge">
<title>Node1592&#45;&gt;Node1593</title>
<path fill="none" stroke="#191970" d="M152.2643,-543.7953C154.6459,-475.7273 177.7925,-79.6954 394,-79.6954 394,-79.6954 394,-79.6954 521,-79.6954 591.3352,-79.6954 673.8221,-79.6954 718.0751,-79.6954"/>
<polygon fill="#191970" stroke="#191970" points="718.2135,-83.1955 728.2134,-79.6954 718.2134,-76.1955 718.2135,-83.1955"/>
</g>
<!-- Node1600 -->
<g id="node15" class="node">
<title>Node1600</title>
<g id="a_node15"><a xlink:href="triangle_8cpp.html#acc5f6f0f74028ace8827250ac3e0e05e" target="_top" xlink:title="internalerror">
<polygon fill="#ffffff" stroke="#000000" points="716,-564.1954 716,-583.1954 784,-583.1954 784,-564.1954 716,-564.1954"/>
<text text-anchor="middle" x="750" y="-571.1954" font-family="Helvetica,sans-Serif" font-size="10.00" fill="#000000">internalerror</text>
</a>
</g>
</g>
<!-- Node1592&#45;&gt;Node1600 -->
<g id="edge15" class="edge">
<title>Node1592&#45;&gt;Node1600</title>
<path fill="none" stroke="#191970" d="M191.2299,-561.7258C203.8738,-564.0242 217.9828,-566.2861 231,-567.6954 405.9346,-586.6352 615.9621,-580.1725 705.7675,-576.0403"/>
<polygon fill="#191970" stroke="#191970" points="706.0365,-579.5316 715.8597,-575.5622 705.7052,-572.5395 706.0365,-579.5316"/>
</g>
<!-- Node1602 -->
<g id="node17" class="node">
<title>Node1602</title>
<g id="a_node17"><a xlink:href="triangle_8cpp.html#ae9d4ed09a0fd07959568ba5f86cc4d0c" target="_top" xlink:title="scoutsegment">
<polygon fill="#ffffff" stroke="#000000" points="355,-544.1954 355,-563.1954 433,-563.1954 433,-544.1954 355,-544.1954"/>
<text text-anchor="middle" x="394" y="-551.1954" font-family="Helvetica,sans-Serif" font-size="10.00" fill="#000000">scoutsegment</text>
</a>
</g>
</g>
<!-- Node1592&#45;&gt;Node1602 -->
<g id="edge17" class="edge">
<title>Node1592&#45;&gt;Node1602</title>
<path fill="none" stroke="#191970" d="M191.1504,-553.6954C232.9738,-553.6954 299.3575,-553.6954 344.7116,-553.6954"/>
<polygon fill="#191970" stroke="#191970" points="344.9059,-557.1955 354.9058,-553.6954 344.9058,-550.1955 344.9059,-557.1955"/>
</g>
<!-- Node1622 -->
<g id="node31" class="node">
<title>Node1622</title>
<g id="a_node31"><a xlink:href="triangle_8cpp.html#aded205ef0849b44d2a587f53fd720618" target="_top" xlink:title="constrainededge">
<polygon fill="#ffffff" stroke="#000000" points="231,-468.1954 231,-487.1954 319,-487.1954 319,-468.1954 231,-468.1954"/>
<text text-anchor="middle" x="275" y="-475.1954" font-family="Helvetica,sans-Serif" font-size="10.00" fill="#000000">constrainededge</text>
</a>
</g>
</g>
<!-- Node1592&#45;&gt;Node1622 -->
<g id="edge43" class="edge">
<title>Node1592&#45;&gt;Node1622</title>
<path fill="none" stroke="#191970" d="M167.578,-544.07C188.5574,-531.1071 226.1012,-507.9093 250.7809,-492.6601"/>
<polygon fill="#191970" stroke="#191970" points="252.8811,-495.4766 259.5485,-487.2427 249.2016,-489.5217 252.8811,-495.4766"/>
</g>
<!-- Node1594 -->
<g id="node9" class="node">
<title>Node1594</title>
<g id="a_node9"><a xlink:href="triangle_8cpp.html#abafde1fa8bfde5489dced6485939a19f" target="_top" xlink:title="randomnation">
<polygon fill="#ffffff" stroke="#000000" points="836.5,-32.1954 836.5,-51.1954 911.5,-51.1954 911.5,-32.1954 836.5,-32.1954"/>
<text text-anchor="middle" x="874" y="-39.1954" font-family="Helvetica,sans-Serif" font-size="10.00" fill="#000000">randomnation</text>
</a>
</g>
</g>
<!-- Node1593&#45;&gt;Node1594 -->
<g id="edge8" class="edge">
<title>Node1593&#45;&gt;Node1594</title>
<path fill="none" stroke="#191970" d="M771.5992,-73.0763C788.5342,-67.8865 812.5923,-60.5139 833.1344,-54.2188"/>
<polygon fill="#191970" stroke="#191970" points="834.354,-57.5057 842.8896,-51.2292 832.303,-50.8129 834.354,-57.5057"/>
</g>
<!-- Node1595 -->
<g id="node10" class="node">
<title>Node1595</title>
<g id="a_node10"><a xlink:href="triangle_8cpp.html#adbb7ef8fc2a92efceb7c1c152fbd22f1" target="_top" xlink:title="counterclockwise">
<polygon fill="#ffffff" stroke="#000000" points="962,-127.1954 962,-146.1954 1054,-146.1954 1054,-127.1954 962,-127.1954"/>
<text text-anchor="middle" x="1008" y="-134.1954" font-family="Helvetica,sans-Serif" font-size="10.00" fill="#000000">counterclockwise</text>
</a>
</g>
</g>
<!-- Node1593&#45;&gt;Node1595 -->
<g id="edge9" class="edge">
<title>Node1593&#45;&gt;Node1595</title>
<path fill="none" stroke="#191970" d="M771.552,-79.7799C805.1569,-80.4079 871.8072,-83.6536 926,-98.6954 945.7821,-104.1862 966.7636,-113.991 982.5508,-122.2656"/>
<polygon fill="#191970" stroke="#191970" points="981.1882,-125.5071 991.6521,-127.1677 984.5077,-119.3442 981.1882,-125.5071"/>
</g>
<!-- Node1599 -->
<g id="node14" class="node">
<title>Node1599</title>
<g id="a_node14"><a xlink:href="triangle_8cpp.html#a34a6e2c35be028da265a50ab3d9d6be6" target="_top" xlink:title="preciselocate">
<polygon fill="#ffffff" stroke="#000000" points="837,-108.1954 837,-127.1954 911,-127.1954 911,-108.1954 837,-108.1954"/>
<text text-anchor="middle" x="874" y="-115.1954" font-family="Helvetica,sans-Serif" font-size="10.00" fill="#000000">preciselocate</text>
</a>
</g>
</g>
<!-- Node1593&#45;&gt;Node1599 -->
<g id="edge13" class="edge">
<title>Node1593&#45;&gt;Node1599</title>
<path fill="none" stroke="#191970" d="M771.5992,-86.3145C788.5342,-91.5043 812.5923,-98.8769 833.1344,-105.1721"/>
<polygon fill="#191970" stroke="#191970" points="832.303,-108.5779 842.8896,-108.1616 834.354,-101.8851 832.303,-108.5779"/>
</g>
<!-- Node1596 -->
<g id="node11" class="node">
<title>Node1596</title>
<g id="a_node11"><a xlink:href="triangle_8cpp.html#abd5587da82afca7f6403c3ec3d17139a" target="_top" xlink:title="counterclockwiseadapt">
<polygon fill="#ffffff" stroke="#000000" points="1090,-127.1954 1090,-146.1954 1206,-146.1954 1206,-127.1954 1090,-127.1954"/>
<text text-anchor="middle" x="1148" y="-134.1954" font-family="Helvetica,sans-Serif" font-size="10.00" fill="#000000">counterclockwiseadapt</text>
</a>
</g>
</g>
<!-- Node1595&#45;&gt;Node1596 -->
<g id="edge10" class="edge">
<title>Node1595&#45;&gt;Node1596</title>
<path fill="none" stroke="#191970" d="M1054.2292,-136.6954C1062.3581,-136.6954 1070.9723,-136.6954 1079.5553,-136.6954"/>
<polygon fill="#191970" stroke="#191970" points="1079.5858,-140.1955 1089.5858,-136.6954 1079.5857,-133.1955 1079.5858,-140.1955"/>
</g>
<!-- Node1597 -->
<g id="node12" class="node">
<title>Node1597</title>
<g id="a_node12"><a xlink:href="triangle_8cpp.html#a3487d9f90ea72da543d5d38b3dab1fbc" target="_top" xlink:title="estimate">
<polygon fill="#ffffff" stroke="#000000" points="1268.5,-149.1954 1268.5,-168.1954 1322.5,-168.1954 1322.5,-149.1954 1268.5,-149.1954"/>
<text text-anchor="middle" x="1295.5" y="-156.1954" font-family="Helvetica,sans-Serif" font-size="10.00" fill="#000000">estimate</text>
</a>
</g>
</g>
<!-- Node1596&#45;&gt;Node1597 -->
<g id="edge11" class="edge">
<title>Node1596&#45;&gt;Node1597</title>
<path fill="none" stroke="#191970" d="M1206.2959,-145.3904C1223.8667,-148.0111 1242.6629,-150.8146 1258.4486,-153.1691"/>
<polygon fill="#191970" stroke="#191970" points="1257.9373,-156.6315 1268.3442,-154.6451 1258.97,-149.7081 1257.9373,-156.6315"/>
</g>
<!-- Node1598 -->
<g id="node13" class="node">
<title>Node1598</title>
<g id="a_node13"><a xlink:href="triangle_8cpp.html#a37646a7e0014e10c612e946bc95aeeea" target="_top" xlink:title="fast_expansion_sum\l_zeroelim">
<polygon fill="#ffffff" stroke="#000000" points="1242,-99.6954 1242,-129.6954 1349,-129.6954 1349,-99.6954 1242,-99.6954"/>
<text text-anchor="start" x="1250" y="-117.6954" font-family="Helvetica,sans-Serif" font-size="10.00" fill="#000000">fast_expansion_sum</text>
<text text-anchor="middle" x="1295.5" y="-106.6954" font-family="Helvetica,sans-Serif" font-size="10.00" fill="#000000">_zeroelim</text>
</a>
</g>
</g>
<!-- Node1596&#45;&gt;Node1598 -->
<g id="edge12" class="edge">
<title>Node1596&#45;&gt;Node1598</title>
<path fill="none" stroke="#191970" d="M1206.2959,-128.0004C1214.746,-126.7401 1223.4795,-125.4375 1232.0252,-124.1628"/>
<polygon fill="#191970" stroke="#191970" points="1232.5685,-127.6206 1241.9428,-122.6836 1231.5358,-120.6972 1232.5685,-127.6206"/>
</g>
<!-- Node1599&#45;&gt;Node1595 -->
<g id="edge14" class="edge">
<title>Node1599&#45;&gt;Node1595</title>
<path fill="none" stroke="#191970" d="M911.3265,-122.988C923.792,-124.7555 937.9748,-126.7665 951.563,-128.6932"/>
<polygon fill="#191970" stroke="#191970" points="951.4074,-132.206 961.7998,-130.1446 952.3902,-125.2754 951.4074,-132.206"/>
</g>
<!-- Node1601 -->
<g id="node16" class="node">
<title>Node1601</title>
<g id="a_node16"><a xlink:href="triangle_8cpp.html#a648abfc70d158485620dbcb9aa990178" target="_top" xlink:title="triexit">
<polygon fill="#ffffff" stroke="#000000" points="853.5,-564.1954 853.5,-583.1954 894.5,-583.1954 894.5,-564.1954 853.5,-564.1954"/>
<text text-anchor="middle" x="874" y="-571.1954" font-family="Helvetica,sans-Serif" font-size="10.00" fill="#000000">triexit</text>
</a>
</g>
</g>
<!-- Node1600&#45;&gt;Node1601 -->
<g id="edge16" class="edge">
<title>Node1600&#45;&gt;Node1601</title>
<path fill="none" stroke="#191970" d="M784.2118,-573.6954C802.7018,-573.6954 825.3491,-573.6954 843.2727,-573.6954"/>
<polygon fill="#191970" stroke="#191970" points="843.4772,-577.1955 853.4772,-573.6954 843.4772,-570.1955 843.4772,-577.1955"/>
</g>
<!-- Node1603 -->
<g id="node18" class="node">
<title>Node1603</title>
<g id="a_node18"><a xlink:href="triangle_8cpp.html#add01d18cf8d218a091d600fd0c97fb67" target="_top" xlink:title="finddirection">
<polygon fill="#ffffff" stroke="#000000" points="609,-497.1954 609,-516.1954 678,-516.1954 678,-497.1954 609,-497.1954"/>
<text text-anchor="middle" x="643.5" y="-504.1954" font-family="Helvetica,sans-Serif" font-size="10.00" fill="#000000">finddirection</text>
</a>
</g>
</g>
<!-- Node1602&#45;&gt;Node1603 -->
<g id="edge18" class="edge">
<title>Node1602&#45;&gt;Node1603</title>
<path fill="none" stroke="#191970" d="M433.2588,-546.3C478.2623,-537.8224 551.8662,-523.9571 598.9709,-515.0837"/>
<polygon fill="#191970" stroke="#191970" points="599.7108,-518.5059 608.89,-513.2151 598.4149,-511.6269 599.7108,-518.5059"/>
</g>
<!-- Node1604 -->
<g id="node19" class="node">
<title>Node1604</title>
<g id="a_node19"><a xlink:href="triangle_8cpp.html#a65e7d1a5e6cdb3f22124eca6e7744140" target="_top" xlink:title="insertsubseg">
<polygon fill="#ffffff" stroke="#000000" points="714,-621.1954 714,-640.1954 786,-640.1954 786,-621.1954 714,-621.1954"/>
<text text-anchor="middle" x="750" y="-628.1954" font-family="Helvetica,sans-Serif" font-size="10.00" fill="#000000">insertsubseg</text>
</a>
</g>
</g>
<!-- Node1602&#45;&gt;Node1604 -->
<g id="edge21" class="edge">
<title>Node1602&#45;&gt;Node1604</title>
<path fill="none" stroke="#191970" d="M433.1166,-562.156C499.3108,-576.4733 633.0946,-605.4097 703.7967,-620.702"/>
<polygon fill="#191970" stroke="#191970" points="703.241,-624.1627 713.7549,-622.8559 704.7209,-617.3209 703.241,-624.1627"/>
</g>
<!-- Node1609 -->
<g id="node23" class="node">
<title>Node1609</title>
<g id="a_node23"><a xlink:href="triangle_8cpp.html#a496c50bca0cf0c214a0204419c3b181a" target="_top" xlink:title="segmentintersection">
<polygon fill="#ffffff" stroke="#000000" points="469,-468.1954 469,-487.1954 573,-487.1954 573,-468.1954 469,-468.1954"/>
<text text-anchor="middle" x="521" y="-475.1954" font-family="Helvetica,sans-Serif" font-size="10.00" fill="#000000">segmentintersection</text>
</a>
</g>
</g>
<!-- Node1602&#45;&gt;Node1609 -->
<g id="edge25" class="edge">
<title>Node1602&#45;&gt;Node1609</title>
<path fill="none" stroke="#191970" d="M410.0846,-544.07C431.8417,-531.05 470.8528,-507.7047 496.3293,-492.459"/>
<polygon fill="#191970" stroke="#191970" points="498.2623,-495.3811 505.046,-487.2427 494.6678,-489.3745 498.2623,-495.3811"/>
</g>
<!-- Node1603&#45;&gt;Node1595 -->
<g id="edge19" class="edge">
<title>Node1603&#45;&gt;Node1595</title>
<path fill="none" stroke="#191970" d="M678.297,-509.1287C737.4776,-511.2502 857.9186,-506.5035 926,-440.6954 967.7244,-400.3643 996.6425,-217.828 1005.2967,-156.7068"/>
<polygon fill="#191970" stroke="#191970" points="1008.809,-156.8586 1006.7154,-146.4727 1001.8753,-155.8973 1008.809,-156.8586"/>
</g>
<!-- Node1603&#45;&gt;Node1600 -->
<g id="edge20" class="edge">
<title>Node1603&#45;&gt;Node1600</title>
<path fill="none" stroke="#191970" d="M658.7589,-516.2949C676.3947,-527.3897 705.6311,-545.7826 726.2483,-558.753"/>
<polygon fill="#191970" stroke="#191970" points="724.4414,-561.7513 734.7695,-564.1138 728.1689,-555.8262 724.4414,-561.7513"/>
</g>
<!-- Node1605 -->
<g id="node20" class="node">
<title>Node1605</title>
<g id="a_node20"><a xlink:href="triangle_8cpp.html#a38c1f489a079cd860973698d73d5128c" target="_top" xlink:title="makesubseg">
<polygon fill="#ffffff" stroke="#000000" points="838,-640.1954 838,-659.1954 910,-659.1954 910,-640.1954 838,-640.1954"/>
<text text-anchor="middle" x="874" y="-647.1954" font-family="Helvetica,sans-Serif" font-size="10.00" fill="#000000">makesubseg</text>
</a>
</g>
</g>
<!-- Node1604&#45;&gt;Node1605 -->
<g id="edge22" class="edge">
<title>Node1604&#45;&gt;Node1605</title>
<path fill="none" stroke="#191970" d="M786.1993,-636.2421C799.1872,-638.2322 814.0136,-640.504 827.7383,-642.6069"/>
<polygon fill="#191970" stroke="#191970" points="827.5553,-646.1197 837.9701,-644.1747 828.6156,-639.2004 827.5553,-646.1197"/>
</g>
<!-- Node1608 -->
<g id="node22" class="node">
<title>Node1608</title>
<g id="a_node22"><a xlink:href="triangle_8cpp.html#a3ced5ec1374d5a837ece08d2efe7bcb0" target="_top" xlink:title="printsubseg">
<polygon fill="#ffffff" stroke="#000000" points="840.5,-602.1954 840.5,-621.1954 907.5,-621.1954 907.5,-602.1954 840.5,-602.1954"/>
<text text-anchor="middle" x="874" y="-609.1954" font-family="Helvetica,sans-Serif" font-size="10.00" fill="#000000">printsubseg</text>
</a>
</g>
</g>
<!-- Node1604&#45;&gt;Node1608 -->
<g id="edge24" class="edge">
<title>Node1604&#45;&gt;Node1608</title>
<path fill="none" stroke="#191970" d="M786.1993,-625.1488C799.8898,-623.051 815.623,-620.6403 829.9554,-618.4442"/>
<polygon fill="#191970" stroke="#191970" points="830.7402,-621.8649 840.0947,-616.8906 829.6799,-614.9456 830.7402,-621.8649"/>
</g>
<!-- Node1606 -->
<g id="node21" class="node">
<title>Node1606</title>
<g id="a_node21"><a xlink:href="triangle_8cpp.html#ab1760445583959132ffd9998372c9aac" target="_top" xlink:title="poolalloc">
<polygon fill="#ffffff" stroke="#ff0000" points="980.5,-450.1954 980.5,-469.1954 1035.5,-469.1954 1035.5,-450.1954 980.5,-450.1954"/>
<text text-anchor="middle" x="1008" y="-457.1954" font-family="Helvetica,sans-Serif" font-size="10.00" fill="#000000">poolalloc</text>
</a>
</g>
</g>
<!-- Node1605&#45;&gt;Node1606 -->
<g id="edge23" class="edge">
<title>Node1605&#45;&gt;Node1606</title>
<path fill="none" stroke="#191970" d="M910.1883,-640.6404C915.9174,-638.0841 921.4449,-634.8295 926,-630.6954 972.419,-588.5666 995.1486,-514.517 1003.7499,-479.3302"/>
<polygon fill="#191970" stroke="#191970" points="1007.2121,-479.893 1006.0582,-469.3612 1000.3925,-478.3139 1007.2121,-479.893"/>
</g>
<!-- Node1609&#45;&gt;Node1600 -->
<g id="edge26" class="edge">
<title>Node1609&#45;&gt;Node1600</title>
<path fill="none" stroke="#191970" d="M543.6482,-487.2268C552.9102,-491.3604 563.6292,-496.4513 573,-501.6954 589.7806,-511.0863 591.7527,-517.1919 609,-525.6954 640.3278,-541.1411 677.8504,-553.6506 706.3091,-562.0222"/>
<polygon fill="#191970" stroke="#191970" points="705.3939,-565.4009 715.9722,-564.8089 707.3336,-558.675 705.3939,-565.4009"/>
</g>
<!-- Node1609&#45;&gt;Node1603 -->
<g id="edge42" class="edge">
<title>Node1609&#45;&gt;Node1603</title>
<path fill="none" stroke="#191970" d="M561.4506,-487.2715C573.4286,-490.1071 586.6109,-493.2278 598.8392,-496.1226"/>
<polygon fill="#191970" stroke="#191970" points="598.3017,-499.5921 608.8391,-498.49 599.9144,-492.7804 598.3017,-499.5921"/>
</g>
<!-- Node1609&#45;&gt;Node1606 -->
<g id="edge27" class="edge">
<title>Node1609&#45;&gt;Node1606</title>
<path fill="none" stroke="#191970" d="M573.2367,-479.8273C650.5108,-482.3818 799.7627,-485.0225 926,-473.6954 940.5574,-472.3892 956.4201,-469.9278 970.281,-467.4287"/>
<polygon fill="#191970" stroke="#191970" points="971.2498,-470.8083 980.4355,-465.5288 969.9624,-463.9277 971.2498,-470.8083"/>
</g>
<!-- Node1610 -->
<g id="node24" class="node">
<title>Node1610</title>
<g id="a_node24"><a xlink:href="triangle_8cpp.html#a2ede94743503e369e9b1c6c2a0ac9f7f" target="_top" xlink:title="insertvertex">
<polygon fill="#ffffff" stroke="#000000" points="609.5,-317.1954 609.5,-336.1954 677.5,-336.1954 677.5,-317.1954 609.5,-317.1954"/>
<text text-anchor="middle" x="643.5" y="-324.1954" font-family="Helvetica,sans-Serif" font-size="10.00" fill="#000000">insertvertex</text>
</a>
</g>
</g>
<!-- Node1609&#45;&gt;Node1610 -->
<g id="edge28" class="edge">
<title>Node1609&#45;&gt;Node1610</title>
<path fill="none" stroke="#191970" d="M529.0376,-467.7879C549.375,-442.7189 603.1012,-376.4931 629.0581,-344.4973"/>
<polygon fill="#191970" stroke="#191970" points="632.01,-346.4141 635.5921,-336.4431 626.5739,-342.004 632.01,-346.4141"/>
</g>
<!-- Node1610&#45;&gt;Node1593 -->
<g id="edge29" class="edge">
<title>Node1610&#45;&gt;Node1593</title>
<path fill="none" stroke="#191970" d="M645.4538,-317.0513C653.4665,-278.2483 684.7683,-133.9314 714,-98.6954 715.6582,-96.6966 717.5823,-94.8801 719.6616,-93.2347"/>
<polygon fill="#191970" stroke="#191970" points="721.7127,-96.0767 728.2173,-87.7136 717.9171,-90.195 721.7127,-96.0767"/>
</g>
<!-- Node1610&#45;&gt;Node1595 -->
<g id="edge39" class="edge">
<title>Node1610&#45;&gt;Node1595</title>
<path fill="none" stroke="#191970" d="M677.7272,-320.9611C707.3139,-315.2197 750.7489,-304.8831 786,-288.6954 867.7397,-251.1596 952.1184,-184.0908 988.9176,-153.156"/>
<polygon fill="#191970" stroke="#191970" points="991.4644,-155.5853 996.8248,-146.4465 986.9354,-150.2478 991.4644,-155.5853"/>
</g>
<!-- Node1610&#45;&gt;Node1599 -->
<g id="edge30" class="edge">
<title>Node1610&#45;&gt;Node1599</title>
<path fill="none" stroke="#191970" d="M650.8576,-316.8243C662.7991,-301.2933 687.7236,-270.8486 714,-250.6954 742.7112,-228.6749 757.2966,-234.7261 786,-212.6954 815.9832,-189.6824 844.5381,-155.9237 860.6095,-135.4583"/>
<polygon fill="#191970" stroke="#191970" points="863.5486,-137.3787 866.8884,-127.324 858.0073,-133.1014 863.5486,-137.3787"/>
</g>
<!-- Node1610&#45;&gt;Node1604 -->
<g id="edge34" class="edge">
<title>Node1610&#45;&gt;Node1604</title>
<path fill="none" stroke="#191970" d="M645.3629,-336.2138C653.6616,-378.1083 687.9961,-546.0678 714,-592.6954 718.2949,-600.3966 724.5059,-607.7191 730.5634,-613.8435"/>
<polygon fill="#191970" stroke="#191970" points="728.3353,-616.5542 737.9985,-620.8987 733.1537,-611.4764 728.3353,-616.5542"/>
</g>
<!-- Node1610&#45;&gt;Node1606 -->
<g id="edge31" class="edge">
<title>Node1610&#45;&gt;Node1606</title>
<path fill="none" stroke="#191970" d="M648.6601,-336.3888C658.729,-354.3361 682.7704,-392.7269 714,-412.6954 794.1096,-463.9184 910.8965,-465.7948 970.2854,-462.794"/>
<polygon fill="#191970" stroke="#191970" points="970.5612,-466.2839 980.3416,-462.2103 970.1556,-459.2957 970.5612,-466.2839"/>
</g>
<!-- Node1611 -->
<g id="node25" class="node">
<title>Node1611</title>
<g id="a_node25"><a xlink:href="triangle_8cpp.html#a5f18f6286348f31f222aedb01e8516d4" target="_top" xlink:title="maketriangle">
<polygon fill="#ffffff" stroke="#000000" points="838,-412.1954 838,-431.1954 910,-431.1954 910,-412.1954 838,-412.1954"/>
<text text-anchor="middle" x="874" y="-419.1954" font-family="Helvetica,sans-Serif" font-size="10.00" fill="#000000">maketriangle</text>
</a>
</g>
</g>
<!-- Node1610&#45;&gt;Node1611 -->
<g id="edge32" class="edge">
<title>Node1610&#45;&gt;Node1611</title>
<path fill="none" stroke="#191970" d="M652.0077,-336.4725C664.2968,-349.9447 688.3683,-373.9887 714,-386.6954 749.7464,-404.4164 794.3742,-413.2261 827.4086,-417.5695"/>
<polygon fill="#191970" stroke="#191970" points="827.3497,-421.0883 837.7007,-418.8284 828.1997,-414.1401 827.3497,-421.0883"/>
</g>
<!-- Node1612 -->
<g id="node26" class="node">
<title>Node1612</title>
<g id="a_node26"><a xlink:href="triangle_8cpp.html#a2657afcbf1c107955b10ccf7dbf14c90" target="_top" xlink:title="poolrestart">
<polygon fill="#ffffff" stroke="#000000" points="719,-260.1954 719,-279.1954 781,-279.1954 781,-260.1954 719,-260.1954"/>
<text text-anchor="middle" x="750" y="-267.1954" font-family="Helvetica,sans-Serif" font-size="10.00" fill="#000000">poolrestart</text>
</a>
</g>
</g>
<!-- Node1610&#45;&gt;Node1612 -->
<g id="edge35" class="edge">
<title>Node1610&#45;&gt;Node1612</title>
<path fill="none" stroke="#191970" d="M661.5663,-317.0261C678.4983,-307.9639 704.0208,-294.304 723.3017,-283.9846"/>
<polygon fill="#191970" stroke="#191970" points="725.0355,-287.0265 732.2005,-279.2219 721.7323,-280.8549 725.0355,-287.0265"/>
</g>
<!-- Node1613 -->
<g id="node27" class="node">
<title>Node1613</title>
<g id="a_node27"><a xlink:href="triangle_8cpp.html#a62ccb7c855c68af7a6918e23ccb158e6" target="_top" xlink:title="printtriangle">
<polygon fill="#ffffff" stroke="#000000" points="716.5,-184.1954 716.5,-203.1954 783.5,-203.1954 783.5,-184.1954 716.5,-184.1954"/>
<text text-anchor="middle" x="750" y="-191.1954" font-family="Helvetica,sans-Serif" font-size="10.00" fill="#000000">printtriangle</text>
</a>
</g>
</g>
<!-- Node1610&#45;&gt;Node1613 -->
<g id="edge36" class="edge">
<title>Node1610&#45;&gt;Node1613</title>
<path fill="none" stroke="#191970" d="M648.0403,-317.0323C657.8816,-296.8136 682.8249,-249.3065 714,-217.6954 717.0262,-214.6269 720.5043,-211.7282 724.0796,-209.0775"/>
<polygon fill="#191970" stroke="#191970" points="726.1438,-211.9062 732.4317,-203.379 722.1986,-206.1239 726.1438,-211.9062"/>
</g>
<!-- Node1614 -->
<g id="node28" class="node">
<title>Node1614</title>
<g id="a_node28"><a xlink:href="triangle_8cpp.html#a6f0c7fd3fa9fb9a02403f67c7651feac" target="_top" xlink:title="checkseg4encroach">
<polygon fill="#ffffff" stroke="#000000" points="822,-374.1954 822,-393.1954 926,-393.1954 926,-374.1954 822,-374.1954"/>
<text text-anchor="middle" x="874" y="-381.1954" font-family="Helvetica,sans-Serif" font-size="10.00" fill="#000000">checkseg4encroach</text>
</a>
</g>
</g>
<!-- Node1610&#45;&gt;Node1614 -->
<g id="edge37" class="edge">
<title>Node1610&#45;&gt;Node1614</title>
<path fill="none" stroke="#191970" d="M657.3755,-336.2259C671.108,-345.149 693.0535,-358.0715 714,-364.6954 745.2542,-374.579 781.4206,-379.3953 811.4534,-381.7125"/>
<polygon fill="#191970" stroke="#191970" points="811.5837,-385.2299 821.8024,-382.4321 812.0693,-378.2468 811.5837,-385.2299"/>
</g>
<!-- Node1615 -->
<g id="node29" class="node">
<title>Node1615</title>
<g id="a_node29"><a xlink:href="triangle_8cpp.html#abbd721e83ed16c99082c2152fa55e2ee" target="_top" xlink:title="incircle">
<polygon fill="#ffffff" stroke="#ff0000" points="726.5,-108.1954 726.5,-127.1954 773.5,-127.1954 773.5,-108.1954 726.5,-108.1954"/>
<text text-anchor="middle" x="750" y="-115.1954" font-family="Helvetica,sans-Serif" font-size="10.00" fill="#000000">incircle</text>
</a>
</g>
</g>
<!-- Node1610&#45;&gt;Node1615 -->
<g id="edge40" class="edge">
<title>Node1610&#45;&gt;Node1615</title>
<path fill="none" stroke="#191970" d="M647.5309,-316.8791C657.6994,-292.3872 685.6125,-226.807 714,-174.6954 721.2612,-161.3659 730.4043,-146.9134 737.6592,-135.8966"/>
<polygon fill="#191970" stroke="#191970" points="740.5888,-137.8118 743.2264,-127.5505 734.7655,-133.9274 740.5888,-137.8118"/>
</g>
<!-- Node1618 -->
<g id="node30" class="node">
<title>Node1618</title>
<g id="a_node30"><a xlink:href="triangle_8cpp.html#a816cae4d440df52b7bc162b05f92cc75" target="_top" xlink:title="testtriangle">
<polygon fill="#ffffff" stroke="#ff0000" points="717.5,-336.1954 717.5,-355.1954 782.5,-355.1954 782.5,-336.1954 717.5,-336.1954"/>
<text text-anchor="middle" x="750" y="-343.1954" font-family="Helvetica,sans-Serif" font-size="10.00" fill="#000000">testtriangle</text>
</a>
</g>
</g>
<!-- Node1610&#45;&gt;Node1618 -->
<g id="edge41" class="edge">
<title>Node1610&#45;&gt;Node1618</title>
<path fill="none" stroke="#191970" d="M677.7835,-332.8117C687.1706,-334.4864 697.4623,-336.3225 707.2597,-338.0704"/>
<polygon fill="#191970" stroke="#191970" points="706.7727,-341.5387 717.232,-339.8495 708.0021,-334.6475 706.7727,-341.5387"/>
</g>
<!-- Node1611&#45;&gt;Node1606 -->
<g id="edge33" class="edge">
<title>Node1611&#45;&gt;Node1606</title>
<path fill="none" stroke="#191970" d="M907.8139,-431.2844C926.8286,-436.6767 950.6142,-443.4218 970.2374,-448.9866"/>
<polygon fill="#191970" stroke="#191970" points="969.4968,-452.4145 980.0723,-451.7756 971.4066,-445.6801 969.4968,-452.4145"/>
</g>
<!-- Node1614&#45;&gt;Node1606 -->
<g id="edge38" class="edge">
<title>Node1614&#45;&gt;Node1606</title>
<path fill="none" stroke="#191970" d="M904.2628,-393.2647C911.5385,-395.9682 919.1757,-399.1523 926,-402.6954 948.5906,-414.4242 972.2391,-431.4469 988.3024,-443.8341"/>
<polygon fill="#191970" stroke="#191970" points="986.362,-446.7603 996.3911,-450.176 990.681,-441.2515 986.362,-446.7603"/>
</g>
<!-- Node1622&#45;&gt;Node1595 -->
<g id="edge50" class="edge">
<title>Node1622&#45;&gt;Node1595</title>
<path fill="none" stroke="#191970" d="M284.7848,-468.1588C329.472,-425.2555 520.3254,-248.9982 714,-174.6954 792.6963,-144.5038 891.0285,-137.3897 951.664,-136.1822"/>
<polygon fill="#191970" stroke="#191970" points="951.8521,-139.6799 961.7979,-136.0287 951.746,-132.6807 951.8521,-139.6799"/>
</g>
<!-- Node1622&#45;&gt;Node1602 -->
<g id="edge53" class="edge">
<title>Node1622&#45;&gt;Node1602</title>
<path fill="none" stroke="#191970" d="M289.3831,-487.1971C305.3444,-497.7057 331.901,-515.084 355,-529.6954 359.5856,-532.5961 364.4981,-535.6559 369.2373,-538.5839"/>
<polygon fill="#191970" stroke="#191970" points="367.654,-541.719 378.0057,-543.9755 371.3205,-535.7561 367.654,-541.719"/>
</g>
<!-- Node1622&#45;&gt;Node1604 -->
<g id="edge52" class="edge">
<title>Node1622&#45;&gt;Node1604</title>
<path fill="none" stroke="#191970" d="M314.5674,-487.2169C387.55,-505.2525 547.799,-547.0691 678,-596.6954 693.0717,-602.44 709.3616,-610.0111 722.6283,-616.5503"/>
<polygon fill="#191970" stroke="#191970" points="721.1847,-619.7417 731.6936,-621.0886 724.3184,-613.4822 721.1847,-619.7417"/>
</g>
<!-- Node1622&#45;&gt;Node1609 -->
<g id="edge51" class="edge">
<title>Node1622&#45;&gt;Node1609</title>
<path fill="none" stroke="#191970" d="M319.264,-477.6954C358.1952,-477.6954 415.2815,-477.6954 458.8008,-477.6954"/>
<polygon fill="#191970" stroke="#191970" points="458.9895,-481.1955 468.9895,-477.6954 458.9895,-474.1955 458.9895,-481.1955"/>
</g>
<!-- Node1623 -->
<g id="node32" class="node">
<title>Node1623</title>
<g id="a_node32"><a xlink:href="triangle_8cpp.html#adaf57083638c866f831ae08a5e993b12" target="_top" xlink:title="flip">
<polygon fill="#ffffff" stroke="#000000" points="629,-146.1954 629,-165.1954 658,-165.1954 658,-146.1954 629,-146.1954"/>
<text text-anchor="middle" x="643.5" y="-153.1954" font-family="Helvetica,sans-Serif" font-size="10.00" fill="#000000">flip</text>
</a>
</g>
</g>
<!-- Node1622&#45;&gt;Node1623 -->
<g id="edge44" class="edge">
<title>Node1622&#45;&gt;Node1623</title>
<path fill="none" stroke="#191970" d="M276.1242,-467.9758C281.7618,-421.0376 308.5378,-218.4945 355,-179.6954 394.577,-146.6459 556.0401,-151.1568 618.5856,-154.2501"/>
<polygon fill="#191970" stroke="#191970" points="618.564,-157.7537 628.7339,-154.7835 618.9315,-150.7633 618.564,-157.7537"/>
</g>
<!-- Node1624 -->
<g id="node33" class="node">
<title>Node1624</title>
<g id="a_node33"><a xlink:href="triangle_8cpp.html#a4ea48503ae03dd0ab0e1c9dc926c3ce2" target="_top" xlink:title="delaunayfixup">
<polygon fill="#ffffff" stroke="#000000" points="482.5,-108.1954 482.5,-127.1954 559.5,-127.1954 559.5,-108.1954 482.5,-108.1954"/>
<text text-anchor="middle" x="521" y="-115.1954" font-family="Helvetica,sans-Serif" font-size="10.00" fill="#000000">delaunayfixup</text>
</a>
</g>
</g>
<!-- Node1622&#45;&gt;Node1624 -->
<g id="edge46" class="edge">
<title>Node1622&#45;&gt;Node1624</title>
<path fill="none" stroke="#191970" d="M275.8506,-468.1709C280.5035,-418.3014 304.5337,-187.8051 355,-141.6954 386.2433,-113.1493 435.5143,-109.2802 472.2738,-111.2694"/>
<polygon fill="#191970" stroke="#191970" points="472.0647,-114.7633 482.2848,-111.9702 472.5536,-107.7804 472.0647,-114.7633"/>
</g>
<!-- Node1623&#45;&gt;Node1613 -->
<g id="edge45" class="edge">
<title>Node1623&#45;&gt;Node1613</title>
<path fill="none" stroke="#191970" d="M658.3084,-160.9792C672.5203,-166.0501 694.5546,-173.9121 713.4612,-180.6581"/>
<polygon fill="#191970" stroke="#191970" points="712.4105,-183.9993 723.0051,-184.0634 714.7629,-177.4064 712.4105,-183.9993"/>
</g>
<!-- Node1624&#45;&gt;Node1595 -->
<g id="edge47" class="edge">
<title>Node1624&#45;&gt;Node1595</title>
<path fill="none" stroke="#191970" d="M534.7479,-108.0429C588.0267,-71.9187 784.9248,49.6092 926,-22.6954 964.882,-42.6234 989.5108,-90.5173 1000.7876,-117.4566"/>
<polygon fill="#191970" stroke="#191970" points="997.6221,-118.9679 1004.5746,-126.9625 1004.125,-116.3772 997.6221,-118.9679"/>
</g>
<!-- Node1624&#45;&gt;Node1615 -->
<g id="edge48" class="edge">
<title>Node1624&#45;&gt;Node1615</title>
<path fill="none" stroke="#191970" d="M559.5878,-117.6954C603.443,-117.6954 674.3396,-117.6954 716.1325,-117.6954"/>
<polygon fill="#191970" stroke="#191970" points="716.348,-121.1955 726.348,-117.6954 716.3479,-114.1955 716.348,-121.1955"/>
</g>
<!-- Node1624&#45;&gt;Node1623 -->
<g id="edge49" class="edge">
<title>Node1624&#45;&gt;Node1623</title>
<path fill="none" stroke="#191970" d="M551.9119,-127.2844C572.8199,-133.7702 600.0376,-142.2132 619.3543,-148.2053"/>
<polygon fill="#191970" stroke="#191970" points="618.3331,-151.553 628.9212,-151.173 620.4071,-144.8673 618.3331,-151.553"/>
</g>
<!-- Node1625&#45;&gt;Node1604 -->
<g id="edge55" class="edge">
<title>Node1625&#45;&gt;Node1604</title>
<path fill="none" stroke="#191970" d="M420.5665,-693.888C471.7016,-697.2517 586.8153,-700.6464 678,-672.6954 696.6136,-666.9898 715.5476,-655.682 729.3249,-646.2358"/>
<polygon fill="#191970" stroke="#191970" points="731.4517,-649.0183 737.5786,-640.3747 727.3988,-643.3109 731.4517,-649.0183"/>
</g>
</g>
</svg>
