<?xml version="1.0" encoding="UTF-8" standalone="no"?>
<!DOCTYPE svg PUBLIC "-//W3C//DTD SVG 1.1//EN"
 "http://www.w3.org/Graphics/SVG/1.1/DTD/svg11.dtd">
<!-- Generated by graphviz version 2.40.1 (20161225.0304)
 -->
<!-- Title: makevertexmap Pages: 1 -->
<svg width="716pt" height="28pt"
 viewBox="0.00 0.00 716.00 28.00" xmlns="http://www.w3.org/2000/svg" xmlns:xlink="http://www.w3.org/1999/xlink">
<g id="graph0" class="graph" transform="scale(1 1) rotate(0) translate(4 24)">
<title>makevertexmap</title>
<polygon fill="#ffffff" stroke="transparent" points="-4,4 -4,-24 712,-24 712,4 -4,4"/>
<!-- Node989 -->
<g id="node1" class="node">
<title>Node989</title>
<polygon fill="#bfbfbf" stroke="#000000" points="0,-.5 0,-19.5 86,-19.5 86,-.5 0,-.5"/>
<text text-anchor="middle" x="43" y="-7.5" font-family="Helvetica,sans-Serif" font-size="10.00" fill="#000000">makevertexmap</text>
</g>
<!-- Node990 -->
<g id="node2" class="node">
<title>Node990</title>
<g id="a_node2"><a xlink:href="triangle_8cpp.html#a77e7549672629c06d5926b7edcafc337" target="_top" xlink:title="formskeleton">
<polygon fill="#ffffff" stroke="#000000" points="122,-.5 122,-19.5 195,-19.5 195,-.5 122,-.5"/>
<text text-anchor="middle" x="158.5" y="-7.5" font-family="Helvetica,sans-Serif" font-size="10.00" fill="#000000">formskeleton</text>
</a>
</g>
</g>
<!-- Node989&#45;&gt;Node990 -->
<g id="edge1" class="edge">
<title>Node989&#45;&gt;Node990</title>
<path fill="none" stroke="#191970" d="M96.1261,-10C104.8416,-10 113.6983,-10 121.8956,-10"/>
<polygon fill="#191970" stroke="#191970" points="96.008,-6.5001 86.0079,-10 96.0079,-13.5001 96.008,-6.5001"/>
</g>
<!-- Node991 -->
<g id="node3" class="node">
<title>Node991</title>
<g id="a_node3"><a xlink:href="triangle_8hpp.html#a4ca59bf5fe569672944651426b662ba6" target="_top" xlink:title="Call Triangle. ">
<polygon fill="#ffffff" stroke="#000000" points="231,-.5 231,-19.5 293,-19.5 293,-.5 231,-.5"/>
<text text-anchor="middle" x="262" y="-7.5" font-family="Helvetica,sans-Serif" font-size="10.00" fill="#000000">triangulate</text>
</a>
</g>
</g>
<!-- Node990&#45;&gt;Node991 -->
<g id="edge2" class="edge">
<title>Node990&#45;&gt;Node991</title>
<path fill="none" stroke="#191970" d="M205.2894,-10C213.9375,-10 222.772,-10 230.815,-10"/>
<polygon fill="#191970" stroke="#191970" points="205.2817,-6.5001 195.2817,-10 205.2816,-13.5001 205.2817,-6.5001"/>
</g>
<!-- Node992 -->
<g id="node4" class="node">
<title>Node992</title>
<g id="a_node4"><a xlink:href="classRiver_1_1Triangle.html#a0dae20b40d446e6009a88543e2c14daf" target="_top" xlink:title="Generate mesh. ">
<polygon fill="#ffffff" stroke="#000000" points="329,-.5 329,-19.5 453,-19.5 453,-.5 329,-.5"/>
<text text-anchor="middle" x="391" y="-7.5" font-family="Helvetica,sans-Serif" font-size="10.00" fill="#000000">River::Triangle::generate</text>
</a>
</g>
</g>
<!-- Node991&#45;&gt;Node992 -->
<g id="edge3" class="edge">
<title>Node991&#45;&gt;Node992</title>
<path fill="none" stroke="#191970" d="M303.2629,-10C311.4682,-10 320.2527,-10 328.9767,-10"/>
<polygon fill="#191970" stroke="#191970" points="303.2273,-6.5001 293.2273,-10 303.2273,-13.5001 303.2273,-6.5001"/>
</g>
<!-- Node993 -->
<g id="node5" class="node">
<title>Node993</title>
<g id="a_node5"><a xlink:href="namespaceRiver.html#af1a3f7c61809dd8032e4ff5920da83cc" target="_top" xlink:title="One step of forward river evolution. ">
<polygon fill="#ffffff" stroke="#000000" points="489,-.5 489,-19.5 634,-19.5 634,-.5 489,-.5"/>
<text text-anchor="middle" x="561.5" y="-7.5" font-family="Helvetica,sans-Serif" font-size="10.00" fill="#000000">River::ForwardRiverEvolution</text>
</a>
</g>
</g>
<!-- Node992&#45;&gt;Node993 -->
<g id="edge4" class="edge">
<title>Node992&#45;&gt;Node993</title>
<path fill="none" stroke="#191970" d="M463.2431,-10C471.7006,-10 480.333,-10 488.7967,-10"/>
<polygon fill="#191970" stroke="#191970" points="463.0368,-6.5001 453.0367,-10 463.0367,-13.5001 463.0368,-6.5001"/>
</g>
<!-- Node994 -->
<g id="node6" class="node">
<title>Node994</title>
<g id="a_node6"><a xlink:href="main_8cpp.html#a0ddf1224851353fc92bfbff6f499fa97" target="_top" xlink:title="Entry point of RiverSim program. ">
<polygon fill="#ffffff" stroke="#000000" points="670,-.5 670,-19.5 708,-19.5 708,-.5 670,-.5"/>
<text text-anchor="middle" x="689" y="-7.5" font-family="Helvetica,sans-Serif" font-size="10.00" fill="#000000">main</text>
</a>
</g>
</g>
<!-- Node993&#45;&gt;Node994 -->
<g id="edge5" class="edge">
<title>Node993&#45;&gt;Node994</title>
<path fill="none" stroke="#191970" d="M644.2526,-10C653.7338,-10 662.5978,-10 669.8947,-10"/>
<polygon fill="#191970" stroke="#191970" points="644.1886,-6.5001 634.1886,-10 644.1885,-13.5001 644.1886,-6.5001"/>
</g>
</g>
</svg>
