<?xml version="1.0" encoding="UTF-8" standalone="no"?>
<!DOCTYPE svg PUBLIC "-//W3C//DTD SVG 1.1//EN"
 "http://www.w3.org/Graphics/SVG/1.1/DTD/svg11.dtd">
<!-- Generated by graphviz version 2.40.1 (20161225.0304)
 -->
<!-- Title: checkseg4encroach Pages: 1 -->
<svg width="369pt" height="28pt"
 viewBox="0.00 0.00 369.00 28.00" xmlns="http://www.w3.org/2000/svg" xmlns:xlink="http://www.w3.org/1999/xlink">
<g id="graph0" class="graph" transform="scale(1 1) rotate(0) translate(4 24)">
<title>checkseg4encroach</title>
<polygon fill="#ffffff" stroke="transparent" points="-4,4 -4,-24 365,-24 365,4 -4,4"/>
<!-- Node893 -->
<g id="node1" class="node">
<title>Node893</title>
<polygon fill="#bfbfbf" stroke="#000000" points="0,-.5 0,-19.5 104,-19.5 104,-.5 0,-.5"/>
<text text-anchor="middle" x="52" y="-7.5" font-family="Helvetica,sans-Serif" font-size="10.00" fill="#000000">checkseg4encroach</text>
</g>
<!-- Node894 -->
<g id="node2" class="node">
<title>Node894</title>
<g id="a_node2"><a xlink:href="triangle_8cpp.html#ab1760445583959132ffd9998372c9aac" target="_top" xlink:title="poolalloc">
<polygon fill="#ffffff" stroke="#000000" points="140,-.5 140,-19.5 195,-19.5 195,-.5 140,-.5"/>
<text text-anchor="middle" x="167.5" y="-7.5" font-family="Helvetica,sans-Serif" font-size="10.00" fill="#000000">poolalloc</text>
</a>
</g>
</g>
<!-- Node893&#45;&gt;Node894 -->
<g id="edge1" class="edge">
<title>Node893&#45;&gt;Node894</title>
<path fill="none" stroke="#191970" d="M104.006,-10C112.6787,-10 121.526,-10 129.7549,-10"/>
<polygon fill="#191970" stroke="#191970" points="129.7879,-13.5001 139.7878,-10 129.7878,-6.5001 129.7879,-13.5001"/>
</g>
<!-- Node895 -->
<g id="node3" class="node">
<title>Node895</title>
<g id="a_node3"><a xlink:href="triangle_8cpp.html#a5f51f1d3957615b2c84a91fd9f5f09bf" target="_top" xlink:title="trimalloc">
<polygon fill="#ffffff" stroke="#000000" points="231,-.5 231,-19.5 284,-19.5 284,-.5 231,-.5"/>
<text text-anchor="middle" x="257.5" y="-7.5" font-family="Helvetica,sans-Serif" font-size="10.00" fill="#000000">trimalloc</text>
</a>
</g>
</g>
<!-- Node894&#45;&gt;Node895 -->
<g id="edge2" class="edge">
<title>Node894&#45;&gt;Node895</title>
<path fill="none" stroke="#191970" d="M195.4832,-10C203.4806,-10 212.3188,-10 220.7561,-10"/>
<polygon fill="#191970" stroke="#191970" points="220.7655,-13.5001 230.7654,-10 220.7654,-6.5001 220.7655,-13.5001"/>
</g>
<!-- Node896 -->
<g id="node4" class="node">
<title>Node896</title>
<g id="a_node4"><a xlink:href="triangle_8cpp.html#a648abfc70d158485620dbcb9aa990178" target="_top" xlink:title="triexit">
<polygon fill="#ffffff" stroke="#000000" points="320,-.5 320,-19.5 361,-19.5 361,-.5 320,-.5"/>
<text text-anchor="middle" x="340.5" y="-7.5" font-family="Helvetica,sans-Serif" font-size="10.00" fill="#000000">triexit</text>
</a>
</g>
</g>
<!-- Node895&#45;&gt;Node896 -->
<g id="edge3" class="edge">
<title>Node895&#45;&gt;Node896</title>
<path fill="none" stroke="#191970" d="M284.2186,-10C292.3489,-10 301.3499,-10 309.7251,-10"/>
<polygon fill="#191970" stroke="#191970" points="309.8865,-13.5001 319.8865,-10 309.8865,-6.5001 309.8865,-13.5001"/>
</g>
</g>
</svg>
