<?xml version="1.0" encoding="UTF-8" standalone="no"?>
<!DOCTYPE svg PUBLIC "-//W3C//DTD SVG 1.1//EN"
 "http://www.w3.org/Graphics/SVG/1.1/DTD/svg11.dtd">
<!-- Generated by graphviz version 2.40.1 (20161225.0304)
 -->
<!-- Title: findcircumcenter Pages: 1 -->
<svg width="520pt" height="78pt"
 viewBox="0.00 0.00 520.00 77.50" xmlns="http://www.w3.org/2000/svg" xmlns:xlink="http://www.w3.org/1999/xlink">
<g id="graph0" class="graph" transform="scale(1 1) rotate(0) translate(4 73.5)">
<title>findcircumcenter</title>
<polygon fill="#ffffff" stroke="transparent" points="-4,4 -4,-73.5 516,-73.5 516,4 -4,4"/>
<!-- Node844 -->
<g id="node1" class="node">
<title>Node844</title>
<polygon fill="#bfbfbf" stroke="#000000" points="0,-28 0,-47 89,-47 89,-28 0,-28"/>
<text text-anchor="middle" x="44.5" y="-35" font-family="Helvetica,sans-Serif" font-size="10.00" fill="#000000">findcircumcenter</text>
</g>
<!-- Node845 -->
<g id="node2" class="node">
<title>Node845</title>
<g id="a_node2"><a xlink:href="triangle_8cpp.html#adbb7ef8fc2a92efceb7c1c152fbd22f1" target="_top" xlink:title="counterclockwise">
<polygon fill="#ffffff" stroke="#000000" points="125,-28 125,-47 217,-47 217,-28 125,-28"/>
<text text-anchor="middle" x="171" y="-35" font-family="Helvetica,sans-Serif" font-size="10.00" fill="#000000">counterclockwise</text>
</a>
</g>
</g>
<!-- Node844&#45;&gt;Node845 -->
<g id="edge1" class="edge">
<title>Node844&#45;&gt;Node845</title>
<path fill="none" stroke="#191970" d="M89.0992,-37.5C97.2917,-37.5 105.9427,-37.5 114.4313,-37.5"/>
<polygon fill="#191970" stroke="#191970" points="114.6634,-41.0001 124.6634,-37.5 114.6634,-34.0001 114.6634,-41.0001"/>
</g>
<!-- Node846 -->
<g id="node3" class="node">
<title>Node846</title>
<g id="a_node3"><a xlink:href="triangle_8cpp.html#abd5587da82afca7f6403c3ec3d17139a" target="_top" xlink:title="counterclockwiseadapt">
<polygon fill="#ffffff" stroke="#000000" points="253,-28 253,-47 369,-47 369,-28 253,-28"/>
<text text-anchor="middle" x="311" y="-35" font-family="Helvetica,sans-Serif" font-size="10.00" fill="#000000">counterclockwiseadapt</text>
</a>
</g>
</g>
<!-- Node845&#45;&gt;Node846 -->
<g id="edge2" class="edge">
<title>Node845&#45;&gt;Node846</title>
<path fill="none" stroke="#191970" d="M217.2292,-37.5C225.3581,-37.5 233.9723,-37.5 242.5553,-37.5"/>
<polygon fill="#191970" stroke="#191970" points="242.5858,-41.0001 252.5858,-37.5 242.5857,-34.0001 242.5858,-41.0001"/>
</g>
<!-- Node847 -->
<g id="node4" class="node">
<title>Node847</title>
<g id="a_node4"><a xlink:href="triangle_8cpp.html#a3487d9f90ea72da543d5d38b3dab1fbc" target="_top" xlink:title="estimate">
<polygon fill="#ffffff" stroke="#000000" points="431.5,-50 431.5,-69 485.5,-69 485.5,-50 431.5,-50"/>
<text text-anchor="middle" x="458.5" y="-57" font-family="Helvetica,sans-Serif" font-size="10.00" fill="#000000">estimate</text>
</a>
</g>
</g>
<!-- Node846&#45;&gt;Node847 -->
<g id="edge3" class="edge">
<title>Node846&#45;&gt;Node847</title>
<path fill="none" stroke="#191970" d="M369.2959,-46.195C386.8667,-48.8157 405.6629,-51.6192 421.4486,-53.9737"/>
<polygon fill="#191970" stroke="#191970" points="420.9373,-57.4361 431.3442,-55.4496 421.97,-50.5126 420.9373,-57.4361"/>
</g>
<!-- Node848 -->
<g id="node5" class="node">
<title>Node848</title>
<g id="a_node5"><a xlink:href="triangle_8cpp.html#a37646a7e0014e10c612e946bc95aeeea" target="_top" xlink:title="fast_expansion_sum\l_zeroelim">
<polygon fill="#ffffff" stroke="#000000" points="405,-.5 405,-30.5 512,-30.5 512,-.5 405,-.5"/>
<text text-anchor="start" x="413" y="-18.5" font-family="Helvetica,sans-Serif" font-size="10.00" fill="#000000">fast_expansion_sum</text>
<text text-anchor="middle" x="458.5" y="-7.5" font-family="Helvetica,sans-Serif" font-size="10.00" fill="#000000">_zeroelim</text>
</a>
</g>
</g>
<!-- Node846&#45;&gt;Node848 -->
<g id="edge4" class="edge">
<title>Node846&#45;&gt;Node848</title>
<path fill="none" stroke="#191970" d="M369.2959,-28.805C377.746,-27.5447 386.4795,-26.242 395.0252,-24.9674"/>
<polygon fill="#191970" stroke="#191970" points="395.5685,-28.4252 404.9428,-23.4882 394.5358,-21.5018 395.5685,-28.4252"/>
</g>
</g>
</svg>
