<?xml version="1.0" encoding="UTF-8" standalone="no"?>
<!DOCTYPE svg PUBLIC "-//W3C//DTD SVG 1.1//EN"
 "http://www.w3.org/Graphics/SVG/1.1/DTD/svg11.dtd">
<!-- Generated by graphviz version 2.40.1 (20161225.0304)
 -->
<!-- Title: checkseg4encroach Pages: 1 -->
<svg width="708pt" height="199pt"
 viewBox="0.00 0.00 708.00 199.00" xmlns="http://www.w3.org/2000/svg" xmlns:xlink="http://www.w3.org/1999/xlink">
<g id="graph0" class="graph" transform="scale(1 1) rotate(0) translate(4 195)">
<title>checkseg4encroach</title>
<polygon fill="#ffffff" stroke="transparent" points="-4,4 -4,-195 704,-195 704,4 -4,4"/>
<!-- Node897 -->
<g id="node1" class="node">
<title>Node897</title>
<polygon fill="#bfbfbf" stroke="#000000" points="0,-38.5 0,-57.5 104,-57.5 104,-38.5 0,-38.5"/>
<text text-anchor="middle" x="52" y="-45.5" font-family="Helvetica,sans-Serif" font-size="10.00" fill="#000000">checkseg4encroach</text>
</g>
<!-- Node898 -->
<g id="node2" class="node">
<title>Node898</title>
<g id="a_node2"><a xlink:href="triangle_8cpp.html#a2ede94743503e369e9b1c6c2a0ac9f7f" target="_top" xlink:title="insertvertex">
<polygon fill="#ffffff" stroke="#000000" points="140,-76.5 140,-95.5 208,-95.5 208,-76.5 140,-76.5"/>
<text text-anchor="middle" x="174" y="-83.5" font-family="Helvetica,sans-Serif" font-size="10.00" fill="#000000">insertvertex</text>
</a>
</g>
</g>
<!-- Node897&#45;&gt;Node898 -->
<g id="edge1" class="edge">
<title>Node897&#45;&gt;Node898</title>
<path fill="none" stroke="#191970" d="M92.7108,-60.6804C109.195,-65.8148 127.91,-71.6441 143.2241,-76.4141"/>
<polygon fill="#191970" stroke="#191970" points="93.3742,-57.2213 82.7858,-57.589 91.2925,-63.9046 93.3742,-57.2213"/>
</g>
<!-- Node910 -->
<g id="node11" class="node">
<title>Node910</title>
<g id="a_node11"><a xlink:href="triangle_8cpp.html#adca37fc9e90f78c9ae794662de5428bd" target="_top" xlink:title="splitencsegs">
<polygon fill="#ffffff" stroke="#000000" points="260.5,-38.5 260.5,-57.5 331.5,-57.5 331.5,-38.5 260.5,-38.5"/>
<text text-anchor="middle" x="296" y="-45.5" font-family="Helvetica,sans-Serif" font-size="10.00" fill="#000000">splitencsegs</text>
</a>
</g>
</g>
<!-- Node897&#45;&gt;Node910 -->
<g id="edge17" class="edge">
<title>Node897&#45;&gt;Node910</title>
<path fill="none" stroke="#191970" d="M114.2586,-48C160.4979,-48 221.9391,-48 260.2181,-48"/>
<polygon fill="#191970" stroke="#191970" points="114.0449,-44.5001 104.0448,-48 114.0448,-51.5001 114.0449,-44.5001"/>
</g>
<!-- Node911 -->
<g id="node12" class="node">
<title>Node911</title>
<g id="a_node12"><a xlink:href="triangle_8cpp.html#af8e72ce607fa7738b63bab87df6aef22" target="_top" xlink:title="tallyencs">
<polygon fill="#ffffff" stroke="#000000" points="146,-.5 146,-19.5 202,-19.5 202,-.5 146,-.5"/>
<text text-anchor="middle" x="174" y="-7.5" font-family="Helvetica,sans-Serif" font-size="10.00" fill="#000000">tallyencs</text>
</a>
</g>
</g>
<!-- Node897&#45;&gt;Node911 -->
<g id="edge15" class="edge">
<title>Node897&#45;&gt;Node911</title>
<path fill="none" stroke="#191970" d="M92.693,-35.3251C110.0931,-29.9054 129.9816,-23.7107 145.7329,-18.8045"/>
<polygon fill="#191970" stroke="#191970" points="91.2925,-32.0954 82.7858,-38.411 93.3742,-38.7787 91.2925,-32.0954"/>
</g>
<!-- Node899 -->
<g id="node3" class="node">
<title>Node899</title>
<g id="a_node3"><a xlink:href="triangle_8cpp.html#a4e3735a2f4c1fa18deb1a2e66aeda7bd" target="_top" xlink:title="undovertex">
<polygon fill="#ffffff" stroke="#000000" points="263.5,-76.5 263.5,-95.5 328.5,-95.5 328.5,-76.5 263.5,-76.5"/>
<text text-anchor="middle" x="296" y="-83.5" font-family="Helvetica,sans-Serif" font-size="10.00" fill="#000000">undovertex</text>
</a>
</g>
</g>
<!-- Node898&#45;&gt;Node899 -->
<g id="edge2" class="edge">
<title>Node898&#45;&gt;Node899</title>
<path fill="none" stroke="#191970" d="M218.7339,-86C233.4568,-86 249.5436,-86 263.2085,-86"/>
<polygon fill="#191970" stroke="#191970" points="218.3085,-82.5001 208.3085,-86 218.3084,-89.5001 218.3085,-82.5001"/>
</g>
<!-- Node900 -->
<g id="node4" class="node">
<title>Node900</title>
<g id="a_node4"><a xlink:href="triangle_8cpp.html#a48fc63d369d988c08cbe8ab40f0b8af5" target="_top" xlink:title="splittriangle">
<polygon fill="#ffffff" stroke="#000000" points="390,-76.5 390,-95.5 456,-95.5 456,-76.5 390,-76.5"/>
<text text-anchor="middle" x="423" y="-83.5" font-family="Helvetica,sans-Serif" font-size="10.00" fill="#000000">splittriangle</text>
</a>
</g>
</g>
<!-- Node898&#45;&gt;Node900 -->
<g id="edge14" class="edge">
<title>Node898&#45;&gt;Node900</title>
<path fill="none" stroke="#191970" d="M212.1368,-98.3127C222.3742,-101.0762 233.5151,-103.6023 244,-105 289.8169,-111.1075 302.133,-110.7195 348,-105 362.9284,-103.1385 379.1499,-99.2691 392.6757,-95.505"/>
<polygon fill="#191970" stroke="#191970" points="212.8344,-94.8723 202.2583,-95.503 210.9193,-101.6053 212.8344,-94.8723"/>
</g>
<!-- Node905 -->
<g id="node7" class="node">
<title>Node905</title>
<g id="a_node7"><a xlink:href="triangle_8cpp.html#a496c50bca0cf0c214a0204419c3b181a" target="_top" xlink:title="segmentintersection">
<polygon fill="#ffffff" stroke="#000000" points="244,-152.5 244,-171.5 348,-171.5 348,-152.5 244,-152.5"/>
<text text-anchor="middle" x="296" y="-159.5" font-family="Helvetica,sans-Serif" font-size="10.00" fill="#000000">segmentintersection</text>
</a>
</g>
</g>
<!-- Node898&#45;&gt;Node905 -->
<g id="edge6" class="edge">
<title>Node898&#45;&gt;Node905</title>
<path fill="none" stroke="#191970" d="M193.5113,-102.207C207.1482,-113.0979 226.0588,-127.3511 244,-138 253.0633,-143.3795 263.5363,-148.4188 272.6977,-152.4774"/>
<polygon fill="#191970" stroke="#191970" points="195.3459,-99.1885 185.3747,-95.6074 190.9364,-104.625 195.3459,-99.1885"/>
</g>
<!-- Node898&#45;&gt;Node910 -->
<g id="edge12" class="edge">
<title>Node898&#45;&gt;Node910</title>
<path fill="none" stroke="#191970" d="M214.7108,-73.3196C231.195,-68.1852 249.91,-62.3559 265.2241,-57.5859"/>
<polygon fill="#191970" stroke="#191970" points="213.2925,-70.0954 204.7858,-76.411 215.3742,-76.7787 213.2925,-70.0954"/>
</g>
<!-- Node899&#45;&gt;Node900 -->
<g id="edge3" class="edge">
<title>Node899&#45;&gt;Node900</title>
<path fill="none" stroke="#191970" d="M338.7806,-86C355.4847,-86 374.3371,-86 389.9638,-86"/>
<polygon fill="#191970" stroke="#191970" points="338.7057,-82.5001 328.7057,-86 338.7056,-89.5001 338.7057,-82.5001"/>
</g>
<!-- Node901 -->
<g id="node5" class="node">
<title>Node901</title>
<g id="a_node5"><a xlink:href="triangle_8cpp.html#a5a654ff6b304f2166c64ffe9183b2995" target="_top" xlink:title="enforcequality">
<polygon fill="#ffffff" stroke="#000000" points="503.5,-38.5 503.5,-57.5 580.5,-57.5 580.5,-38.5 503.5,-38.5"/>
<text text-anchor="middle" x="542" y="-45.5" font-family="Helvetica,sans-Serif" font-size="10.00" fill="#000000">enforcequality</text>
</a>
</g>
</g>
<!-- Node900&#45;&gt;Node901 -->
<g id="edge4" class="edge">
<title>Node900&#45;&gt;Node901</title>
<path fill="none" stroke="#191970" d="M462.7098,-73.3196C478.7886,-68.1852 497.0433,-62.3559 511.9809,-57.5859"/>
<polygon fill="#191970" stroke="#191970" points="461.4901,-70.0348 453.0287,-76.411 463.6195,-76.7031 461.4901,-70.0348"/>
</g>
<!-- Node902 -->
<g id="node6" class="node">
<title>Node902</title>
<g id="a_node6"><a xlink:href="triangle_8hpp.html#a848df2990f66cdbdc9d1ac87f4646527" target="_top" xlink:title="Call Triangle. ">
<polygon fill="#ffffff" stroke="#ff0000" points="630,-38.5 630,-57.5 692,-57.5 692,-38.5 630,-38.5"/>
<text text-anchor="middle" x="661" y="-45.5" font-family="Helvetica,sans-Serif" font-size="10.00" fill="#000000">triangulate</text>
</a>
</g>
</g>
<!-- Node901&#45;&gt;Node902 -->
<g id="edge5" class="edge">
<title>Node901&#45;&gt;Node902</title>
<path fill="none" stroke="#191970" d="M590.9378,-48C604.035,-48 617.8376,-48 629.6965,-48"/>
<polygon fill="#191970" stroke="#191970" points="590.6359,-44.5001 580.6359,-48 590.6359,-51.5001 590.6359,-44.5001"/>
</g>
<!-- Node906 -->
<g id="node8" class="node">
<title>Node906</title>
<g id="a_node8"><a xlink:href="triangle_8cpp.html#ae9d4ed09a0fd07959568ba5f86cc4d0c" target="_top" xlink:title="scoutsegment">
<polygon fill="#ffffff" stroke="#000000" points="384,-133.5 384,-152.5 462,-152.5 462,-133.5 384,-133.5"/>
<text text-anchor="middle" x="423" y="-140.5" font-family="Helvetica,sans-Serif" font-size="10.00" fill="#000000">scoutsegment</text>
</a>
</g>
</g>
<!-- Node905&#45;&gt;Node906 -->
<g id="edge7" class="edge">
<title>Node905&#45;&gt;Node906</title>
<path fill="none" stroke="#191970" d="M358.1725,-152.6986C366.8652,-151.3981 375.5912,-150.0927 383.6983,-148.8798"/>
<polygon fill="#191970" stroke="#191970" points="357.3942,-149.276 348.0222,-154.2172 358.43,-156.1989 357.3942,-149.276"/>
</g>
<!-- Node907 -->
<g id="node9" class="node">
<title>Node907</title>
<g id="a_node9"><a xlink:href="triangle_8cpp.html#aded205ef0849b44d2a587f53fd720618" target="_top" xlink:title="constrainededge">
<polygon fill="#ffffff" stroke="#000000" points="498,-171.5 498,-190.5 586,-190.5 586,-171.5 498,-171.5"/>
<text text-anchor="middle" x="542" y="-178.5" font-family="Helvetica,sans-Serif" font-size="10.00" fill="#000000">constrainededge</text>
</a>
</g>
</g>
<!-- Node905&#45;&gt;Node907 -->
<g id="edge11" class="edge">
<title>Node905&#45;&gt;Node907</title>
<path fill="none" stroke="#191970" d="M358.3549,-166.816C401.8512,-170.1755 458.8425,-174.5773 497.7271,-177.5806"/>
<polygon fill="#191970" stroke="#191970" points="358.4101,-163.31 348.1703,-166.0294 357.871,-170.2892 358.4101,-163.31"/>
</g>
<!-- Node906&#45;&gt;Node907 -->
<g id="edge8" class="edge">
<title>Node906&#45;&gt;Node907</title>
<path fill="none" stroke="#191970" d="M462.7098,-155.6804C478.7886,-160.8148 497.0433,-166.6441 511.9809,-171.4141"/>
<polygon fill="#191970" stroke="#191970" points="463.6195,-152.2969 453.0287,-152.589 461.4901,-158.9652 463.6195,-152.2969"/>
</g>
<!-- Node908 -->
<g id="node10" class="node">
<title>Node908</title>
<g id="a_node10"><a xlink:href="triangle_8cpp.html#ae367b20189056436da2a1b633b392703" target="_top" xlink:title="insertsegment">
<polygon fill="#ffffff" stroke="#ff0000" points="622,-152.5 622,-171.5 700,-171.5 700,-152.5 622,-152.5"/>
<text text-anchor="middle" x="661" y="-159.5" font-family="Helvetica,sans-Serif" font-size="10.00" fill="#000000">insertsegment</text>
</a>
</g>
</g>
<!-- Node906&#45;&gt;Node908 -->
<g id="edge10" class="edge">
<title>Node906&#45;&gt;Node908</title>
<path fill="none" stroke="#191970" d="M472.0201,-146.9134C516.4101,-150.4571 580.9506,-155.6095 621.9443,-158.8821"/>
<polygon fill="#191970" stroke="#191970" points="472.2812,-143.4232 462.0344,-146.1162 471.7241,-150.401 472.2812,-143.4232"/>
</g>
<!-- Node907&#45;&gt;Node908 -->
<g id="edge9" class="edge">
<title>Node907&#45;&gt;Node908</title>
<path fill="none" stroke="#191970" d="M596.2778,-172.3338C604.862,-170.9632 613.5922,-169.5693 621.7464,-168.2674"/>
<polygon fill="#191970" stroke="#191970" points="595.6343,-168.8921 586.3112,-173.9251 596.738,-175.8046 595.6343,-168.8921"/>
</g>
<!-- Node910&#45;&gt;Node901 -->
<g id="edge13" class="edge">
<title>Node910&#45;&gt;Node901</title>
<path fill="none" stroke="#191970" d="M341.6062,-48C388.0924,-48 459.4196,-48 503.2564,-48"/>
<polygon fill="#191970" stroke="#191970" points="341.5078,-44.5001 331.5078,-48 341.5078,-51.5001 341.5078,-44.5001"/>
</g>
<!-- Node911&#45;&gt;Node901 -->
<g id="edge16" class="edge">
<title>Node911&#45;&gt;Node901</title>
<path fill="none" stroke="#191970" d="M212.4973,-13.9753C283.1245,-21.2683 432.6298,-36.7063 503.3618,-44.0102"/>
<polygon fill="#191970" stroke="#191970" points="212.5719,-10.4644 202.2653,-12.9187 211.8529,-17.4274 212.5719,-10.4644"/>
</g>
</g>
</svg>
