<?xml version="1.0" encoding="UTF-8" standalone="no"?>
<!DOCTYPE svg PUBLIC "-//W3C//DTD SVG 1.1//EN"
 "http://www.w3.org/Graphics/SVG/1.1/DTD/svg11.dtd">
<!-- Generated by graphviz version 2.40.1 (20161225.0304)
 -->
<!-- Title: poolzero Pages: 1 -->
<svg width="490pt" height="28pt"
 viewBox="0.00 0.00 490.00 28.00" xmlns="http://www.w3.org/2000/svg" xmlns:xlink="http://www.w3.org/1999/xlink">
<g id="graph0" class="graph" transform="scale(1 1) rotate(0) translate(4 24)">
<title>poolzero</title>
<polygon fill="#ffffff" stroke="transparent" points="-4,4 -4,-24 486,-24 486,4 -4,4"/>
<!-- Node206 -->
<g id="node1" class="node">
<title>Node206</title>
<polygon fill="#bfbfbf" stroke="#000000" points="0,-.5 0,-19.5 53,-19.5 53,-.5 0,-.5"/>
<text text-anchor="middle" x="26.5" y="-7.5" font-family="Helvetica,sans-Serif" font-size="10.00" fill="#000000">poolzero</text>
</g>
<!-- Node207 -->
<g id="node2" class="node">
<title>Node207</title>
<g id="a_node2"><a xlink:href="triangle_8cpp.html#affc45e9bc533a0e18b0d5ba8dc1409e9" target="_top" xlink:title="triangleinit">
<polygon fill="#ffffff" stroke="#000000" points="89,-.5 89,-19.5 150,-19.5 150,-.5 89,-.5"/>
<text text-anchor="middle" x="119.5" y="-7.5" font-family="Helvetica,sans-Serif" font-size="10.00" fill="#000000">triangleinit</text>
</a>
</g>
</g>
<!-- Node206&#45;&gt;Node207 -->
<g id="edge1" class="edge">
<title>Node206&#45;&gt;Node207</title>
<path fill="none" stroke="#191970" d="M63.6348,-10C71.9588,-10 80.7004,-10 88.7321,-10"/>
<polygon fill="#191970" stroke="#191970" points="63.3995,-6.5001 53.3995,-10 63.3994,-13.5001 63.3995,-6.5001"/>
</g>
<!-- Node208 -->
<g id="node3" class="node">
<title>Node208</title>
<g id="a_node3"><a xlink:href="triangle_8hpp.html#a848df2990f66cdbdc9d1ac87f4646527" target="_top" xlink:title="Call Triangle. ">
<polygon fill="#ffffff" stroke="#000000" points="186,-.5 186,-19.5 248,-19.5 248,-.5 186,-.5"/>
<text text-anchor="middle" x="217" y="-7.5" font-family="Helvetica,sans-Serif" font-size="10.00" fill="#000000">triangulate</text>
</a>
</g>
</g>
<!-- Node207&#45;&gt;Node208 -->
<g id="edge2" class="edge">
<title>Node207&#45;&gt;Node208</title>
<path fill="none" stroke="#191970" d="M160.2756,-10C168.8294,-10 177.72,-10 185.8551,-10"/>
<polygon fill="#191970" stroke="#191970" points="160.0821,-6.5001 150.0821,-10 160.0821,-13.5001 160.0821,-6.5001"/>
</g>
<!-- Node209 -->
<g id="node4" class="node">
<title>Node209</title>
<g id="a_node4"><a xlink:href="classRiver_1_1Triangle.html#a7bc9c5a5297dee136ab1489a923182dd" target="_top" xlink:title="Generate mesh. ">
<polygon fill="#ffffff" stroke="#000000" points="284,-.5 284,-19.5 408,-19.5 408,-.5 284,-.5"/>
<text text-anchor="middle" x="346" y="-7.5" font-family="Helvetica,sans-Serif" font-size="10.00" fill="#000000">River::Triangle::generate</text>
</a>
</g>
</g>
<!-- Node208&#45;&gt;Node209 -->
<g id="edge3" class="edge">
<title>Node208&#45;&gt;Node209</title>
<path fill="none" stroke="#191970" d="M258.2629,-10C266.4682,-10 275.2527,-10 283.9767,-10"/>
<polygon fill="#191970" stroke="#191970" points="258.2273,-6.5001 248.2273,-10 258.2273,-13.5001 258.2273,-6.5001"/>
</g>
<!-- Node210 -->
<g id="node5" class="node">
<title>Node210</title>
<g id="a_node5"><a xlink:href="main_8cpp.html#a0ddf1224851353fc92bfbff6f499fa97" target="_top" xlink:title="Entry point of RiverSim program. ">
<polygon fill="#ffffff" stroke="#000000" points="444,-.5 444,-19.5 482,-19.5 482,-.5 444,-.5"/>
<text text-anchor="middle" x="463" y="-7.5" font-family="Helvetica,sans-Serif" font-size="10.00" fill="#000000">main</text>
</a>
</g>
</g>
<!-- Node209&#45;&gt;Node210 -->
<g id="edge4" class="edge">
<title>Node209&#45;&gt;Node210</title>
<path fill="none" stroke="#191970" d="M418.5174,-10C427.8253,-10 436.6301,-10 443.912,-10"/>
<polygon fill="#191970" stroke="#191970" points="418.2682,-6.5001 408.2682,-10 418.2682,-13.5001 418.2682,-6.5001"/>
</g>
</g>
</svg>
