<?xml version="1.0" encoding="UTF-8" standalone="no"?>
<!DOCTYPE svg PUBLIC "-//W3C//DTD SVG 1.1//EN"
 "http://www.w3.org/Graphics/SVG/1.1/DTD/svg11.dtd">
<!-- Generated by graphviz version 2.40.1 (20161225.0304)
 -->
<!-- Title: triangleinit Pages: 1 -->
<svg width="401pt" height="28pt"
 viewBox="0.00 0.00 401.00 28.00" xmlns="http://www.w3.org/2000/svg" xmlns:xlink="http://www.w3.org/1999/xlink">
<g id="graph0" class="graph" transform="scale(1 1) rotate(0) translate(4 24)">
<title>triangleinit</title>
<polygon fill="#ffffff" stroke="transparent" points="-4,4 -4,-24 397,-24 397,4 -4,4"/>
<!-- Node818 -->
<g id="node1" class="node">
<title>Node818</title>
<polygon fill="#bfbfbf" stroke="#000000" points="0,-.5 0,-19.5 61,-19.5 61,-.5 0,-.5"/>
<text text-anchor="middle" x="30.5" y="-7.5" font-family="Helvetica,sans-Serif" font-size="10.00" fill="#000000">triangleinit</text>
</g>
<!-- Node819 -->
<g id="node2" class="node">
<title>Node819</title>
<g id="a_node2"><a xlink:href="triangle_8hpp.html#a848df2990f66cdbdc9d1ac87f4646527" target="_top" xlink:title="Call Triangle. ">
<polygon fill="#ffffff" stroke="#000000" points="97,-.5 97,-19.5 159,-19.5 159,-.5 97,-.5"/>
<text text-anchor="middle" x="128" y="-7.5" font-family="Helvetica,sans-Serif" font-size="10.00" fill="#000000">triangulate</text>
</a>
</g>
</g>
<!-- Node818&#45;&gt;Node819 -->
<g id="edge1" class="edge">
<title>Node818&#45;&gt;Node819</title>
<path fill="none" stroke="#191970" d="M71.2756,-10C79.8294,-10 88.72,-10 96.8551,-10"/>
<polygon fill="#191970" stroke="#191970" points="71.0821,-6.5001 61.0821,-10 71.0821,-13.5001 71.0821,-6.5001"/>
</g>
<!-- Node820 -->
<g id="node3" class="node">
<title>Node820</title>
<g id="a_node3"><a xlink:href="classRiver_1_1Triangle.html#a7bc9c5a5297dee136ab1489a923182dd" target="_top" xlink:title="Generate mesh. ">
<polygon fill="#ffffff" stroke="#000000" points="195,-.5 195,-19.5 319,-19.5 319,-.5 195,-.5"/>
<text text-anchor="middle" x="257" y="-7.5" font-family="Helvetica,sans-Serif" font-size="10.00" fill="#000000">River::Triangle::generate</text>
</a>
</g>
</g>
<!-- Node819&#45;&gt;Node820 -->
<g id="edge2" class="edge">
<title>Node819&#45;&gt;Node820</title>
<path fill="none" stroke="#191970" d="M169.2629,-10C177.4682,-10 186.2527,-10 194.9767,-10"/>
<polygon fill="#191970" stroke="#191970" points="169.2273,-6.5001 159.2273,-10 169.2273,-13.5001 169.2273,-6.5001"/>
</g>
<!-- Node821 -->
<g id="node4" class="node">
<title>Node821</title>
<g id="a_node4"><a xlink:href="main_8cpp.html#a0ddf1224851353fc92bfbff6f499fa97" target="_top" xlink:title="Entry point of RiverSim program. ">
<polygon fill="#ffffff" stroke="#000000" points="355,-.5 355,-19.5 393,-19.5 393,-.5 355,-.5"/>
<text text-anchor="middle" x="374" y="-7.5" font-family="Helvetica,sans-Serif" font-size="10.00" fill="#000000">main</text>
</a>
</g>
</g>
<!-- Node820&#45;&gt;Node821 -->
<g id="edge3" class="edge">
<title>Node820&#45;&gt;Node821</title>
<path fill="none" stroke="#191970" d="M329.5174,-10C338.8253,-10 347.6301,-10 354.912,-10"/>
<polygon fill="#191970" stroke="#191970" points="329.2682,-6.5001 319.2682,-10 329.2682,-13.5001 329.2682,-6.5001"/>
</g>
</g>
</svg>
