<?xml version="1.0" encoding="UTF-8" standalone="no"?>
<!DOCTYPE svg PUBLIC "-//W3C//DTD SVG 1.1//EN"
 "http://www.w3.org/Graphics/SVG/1.1/DTD/svg11.dtd">
<!-- Generated by graphviz version 2.40.1 (20161225.0304)
 -->
<!-- Title: dummyinit Pages: 1 -->
<svg width="745pt" height="66pt"
 viewBox="0.00 0.00 745.00 66.00" xmlns="http://www.w3.org/2000/svg" xmlns:xlink="http://www.w3.org/1999/xlink">
<g id="graph0" class="graph" transform="scale(1 1) rotate(0) translate(4 62)">
<title>dummyinit</title>
<polygon fill="#ffffff" stroke="transparent" points="-4,4 -4,-62 741,-62 741,4 -4,4"/>
<!-- Node396 -->
<g id="node1" class="node">
<title>Node396</title>
<polygon fill="#bfbfbf" stroke="#000000" points="0,-19.5 0,-38.5 62,-38.5 62,-19.5 0,-19.5"/>
<text text-anchor="middle" x="31" y="-26.5" font-family="Helvetica,sans-Serif" font-size="10.00" fill="#000000">dummyinit</text>
</g>
<!-- Node397 -->
<g id="node2" class="node">
<title>Node397</title>
<g id="a_node2"><a xlink:href="triangle_8cpp.html#aabcda1f9b42d64b70f96964649ce167e" target="_top" xlink:title="initializetrisubpools">
<polygon fill="#ffffff" stroke="#000000" points="98,-19.5 98,-38.5 197,-38.5 197,-19.5 98,-19.5"/>
<text text-anchor="middle" x="147.5" y="-26.5" font-family="Helvetica,sans-Serif" font-size="10.00" fill="#000000">initializetrisubpools</text>
</a>
</g>
</g>
<!-- Node396&#45;&gt;Node397 -->
<g id="edge1" class="edge">
<title>Node396&#45;&gt;Node397</title>
<path fill="none" stroke="#191970" d="M72.3193,-29C80.5447,-29 89.2633,-29 97.7371,-29"/>
<polygon fill="#191970" stroke="#191970" points="72.2199,-25.5001 62.2199,-29 72.2198,-32.5001 72.2199,-25.5001"/>
</g>
<!-- Node398 -->
<g id="node3" class="node">
<title>Node398</title>
<g id="a_node3"><a xlink:href="triangle_8cpp.html#ab67faa70960c7c39ee1150ab4d55f0a5" target="_top" xlink:title="delaunay">
<polygon fill="#ffffff" stroke="#000000" points="237.5,-38.5 237.5,-57.5 293.5,-57.5 293.5,-38.5 237.5,-38.5"/>
<text text-anchor="middle" x="265.5" y="-45.5" font-family="Helvetica,sans-Serif" font-size="10.00" fill="#000000">delaunay</text>
</a>
</g>
</g>
<!-- Node397&#45;&gt;Node398 -->
<g id="edge2" class="edge">
<title>Node397&#45;&gt;Node398</title>
<path fill="none" stroke="#191970" d="M207.2545,-38.6215C217.7762,-40.3157 228.2659,-42.0047 237.3848,-43.473"/>
<polygon fill="#191970" stroke="#191970" points="207.6299,-35.1369 197.2006,-37.0026 206.517,-42.0479 207.6299,-35.1369"/>
</g>
<!-- Node403 -->
<g id="node7" class="node">
<title>Node403</title>
<g id="a_node7"><a xlink:href="triangle_8cpp.html#a711adeeb3c28e4f2e3e173d729912c13" target="_top" xlink:title="reconstruct">
<polygon fill="#ffffff" stroke="#000000" points="233,-.5 233,-19.5 298,-19.5 298,-.5 233,-.5"/>
<text text-anchor="middle" x="265.5" y="-7.5" font-family="Helvetica,sans-Serif" font-size="10.00" fill="#000000">reconstruct</text>
</a>
</g>
</g>
<!-- Node397&#45;&gt;Node403 -->
<g id="edge6" class="edge">
<title>Node397&#45;&gt;Node403</title>
<path fill="none" stroke="#191970" d="M207.1978,-19.3876C216.0826,-17.957 224.9462,-16.5298 232.9827,-15.2358"/>
<polygon fill="#191970" stroke="#191970" points="206.517,-15.9521 197.2006,-20.9974 207.6299,-22.8631 206.517,-15.9521"/>
</g>
<!-- Node399 -->
<g id="node4" class="node">
<title>Node399</title>
<g id="a_node4"><a xlink:href="triangle_8hpp.html#a4ca59bf5fe569672944651426b662ba6" target="_top" xlink:title="Call Triangle. ">
<polygon fill="#ffffff" stroke="#000000" points="334,-19.5 334,-38.5 396,-38.5 396,-19.5 334,-19.5"/>
<text text-anchor="middle" x="365" y="-26.5" font-family="Helvetica,sans-Serif" font-size="10.00" fill="#000000">triangulate</text>
</a>
</g>
</g>
<!-- Node398&#45;&gt;Node399 -->
<g id="edge3" class="edge">
<title>Node398&#45;&gt;Node399</title>
<path fill="none" stroke="#191970" d="M303.8111,-40.6843C313.7621,-38.7841 324.3587,-36.7607 333.8885,-34.9409"/>
<polygon fill="#191970" stroke="#191970" points="302.9126,-37.2926 293.7466,-42.6062 304.2256,-44.1683 302.9126,-37.2926"/>
</g>
<!-- Node400 -->
<g id="node5" class="node">
<title>Node400</title>
<g id="a_node5"><a xlink:href="classRiver_1_1Triangle.html#a0dae20b40d446e6009a88543e2c14daf" target="_top" xlink:title="Generate mesh. ">
<polygon fill="#ffffff" stroke="#000000" points="432,-19.5 432,-38.5 556,-38.5 556,-19.5 432,-19.5"/>
<text text-anchor="middle" x="494" y="-26.5" font-family="Helvetica,sans-Serif" font-size="10.00" fill="#000000">River::Triangle::generate</text>
</a>
</g>
</g>
<!-- Node399&#45;&gt;Node400 -->
<g id="edge4" class="edge">
<title>Node399&#45;&gt;Node400</title>
<path fill="none" stroke="#191970" d="M406.2629,-29C414.4682,-29 423.2527,-29 431.9767,-29"/>
<polygon fill="#191970" stroke="#191970" points="406.2273,-25.5001 396.2273,-29 406.2273,-32.5001 406.2273,-25.5001"/>
</g>
<!-- Node401 -->
<g id="node6" class="node">
<title>Node401</title>
<g id="a_node6"><a xlink:href="namespaceRiver.html#af1a3f7c61809dd8032e4ff5920da83cc" target="_top" xlink:title="One step of forward river evolution. ">
<polygon fill="#ffffff" stroke="#ff0000" points="592,-19.5 592,-38.5 737,-38.5 737,-19.5 592,-19.5"/>
<text text-anchor="middle" x="664.5" y="-26.5" font-family="Helvetica,sans-Serif" font-size="10.00" fill="#000000">River::ForwardRiverEvolution</text>
</a>
</g>
</g>
<!-- Node400&#45;&gt;Node401 -->
<g id="edge5" class="edge">
<title>Node400&#45;&gt;Node401</title>
<path fill="none" stroke="#191970" d="M566.2431,-29C574.7006,-29 583.333,-29 591.7967,-29"/>
<polygon fill="#191970" stroke="#191970" points="566.0368,-25.5001 556.0367,-29 566.0367,-32.5001 566.0368,-25.5001"/>
</g>
<!-- Node403&#45;&gt;Node399 -->
<g id="edge7" class="edge">
<title>Node403&#45;&gt;Node399</title>
<path fill="none" stroke="#191970" d="M308.004,-18.1163C316.6284,-19.7632 325.5497,-21.4668 333.7011,-23.0233"/>
<polygon fill="#191970" stroke="#191970" points="308.5591,-14.6592 298.08,-16.2213 307.246,-21.5349 308.5591,-14.6592"/>
</g>
</g>
</svg>
