<?xml version="1.0" encoding="UTF-8" standalone="no"?>
<!DOCTYPE svg PUBLIC "-//W3C//DTD SVG 1.1//EN"
 "http://www.w3.org/Graphics/SVG/1.1/DTD/svg11.dtd">
<!-- Generated by graphviz version 2.40.1 (20161225.0304)
 -->
<!-- Title: makesubseg Pages: 1 -->
<svg width="991pt" height="278pt"
 viewBox="0.00 0.00 991.00 278.24" xmlns="http://www.w3.org/2000/svg" xmlns:xlink="http://www.w3.org/1999/xlink">
<g id="graph0" class="graph" transform="scale(1 1) rotate(0) translate(4 274.2386)">
<title>makesubseg</title>
<polygon fill="#ffffff" stroke="transparent" points="-4,4 -4,-274.2386 987,-274.2386 987,4 -4,4"/>
<!-- Node570 -->
<g id="node1" class="node">
<title>Node570</title>
<polygon fill="#bfbfbf" stroke="#000000" points="0,-127.7386 0,-146.7386 72,-146.7386 72,-127.7386 0,-127.7386"/>
<text text-anchor="middle" x="36" y="-134.7386" font-family="Helvetica,sans-Serif" font-size="10.00" fill="#000000">makesubseg</text>
</g>
<!-- Node571 -->
<g id="node2" class="node">
<title>Node571</title>
<g id="a_node2"><a xlink:href="triangle_8cpp.html#a65e7d1a5e6cdb3f22124eca6e7744140" target="_top" xlink:title="insertsubseg">
<polygon fill="#ffffff" stroke="#000000" points="108,-155.7386 108,-174.7386 180,-174.7386 180,-155.7386 108,-155.7386"/>
<text text-anchor="middle" x="144" y="-162.7386" font-family="Helvetica,sans-Serif" font-size="10.00" fill="#000000">insertsubseg</text>
</a>
</g>
</g>
<!-- Node570&#45;&gt;Node571 -->
<g id="edge1" class="edge">
<title>Node570&#45;&gt;Node571</title>
<path fill="none" stroke="#191970" d="M82.1088,-149.1927C90.6461,-151.4061 99.4523,-153.6892 107.649,-155.8142"/>
<polygon fill="#191970" stroke="#191970" points="82.8212,-145.7618 72.2629,-146.6401 81.0645,-152.5377 82.8212,-145.7618"/>
</g>
<!-- Node586 -->
<g id="node14" class="node">
<title>Node586</title>
<g id="a_node14"><a xlink:href="triangle_8cpp.html#a711adeeb3c28e4f2e3e173d729912c13" target="_top" xlink:title="reconstruct">
<polygon fill="#ffffff" stroke="#000000" points="217.5,-89.7386 217.5,-108.7386 282.5,-108.7386 282.5,-89.7386 217.5,-89.7386"/>
<text text-anchor="middle" x="250" y="-96.7386" font-family="Helvetica,sans-Serif" font-size="10.00" fill="#000000">reconstruct</text>
</a>
</g>
</g>
<!-- Node570&#45;&gt;Node586 -->
<g id="edge24" class="edge">
<title>Node570&#45;&gt;Node586</title>
<path fill="none" stroke="#191970" d="M82.26,-129.0242C123.0122,-121.7878 181.3413,-111.4303 217.3834,-105.0303"/>
<polygon fill="#191970" stroke="#191970" points="81.5362,-125.5979 72.3022,-130.7924 82.7601,-132.4901 81.5362,-125.5979"/>
</g>
<!-- Node572 -->
<g id="node3" class="node">
<title>Node572</title>
<g id="a_node3"><a xlink:href="triangle_8cpp.html#a2ede94743503e369e9b1c6c2a0ac9f7f" target="_top" xlink:title="insertvertex">
<polygon fill="#ffffff" stroke="#000000" points="216,-127.7386 216,-146.7386 284,-146.7386 284,-127.7386 216,-127.7386"/>
<text text-anchor="middle" x="250" y="-134.7386" font-family="Helvetica,sans-Serif" font-size="10.00" fill="#000000">insertvertex</text>
</a>
</g>
</g>
<!-- Node571&#45;&gt;Node572 -->
<g id="edge2" class="edge">
<title>Node571&#45;&gt;Node572</title>
<path fill="none" stroke="#191970" d="M190.1234,-153.055C198.7352,-150.7802 207.5935,-148.4403 215.7678,-146.281"/>
<polygon fill="#191970" stroke="#191970" points="188.9572,-149.743 180.1827,-155.6809 190.745,-156.5108 188.9572,-149.743"/>
</g>
<!-- Node581 -->
<g id="node9" class="node">
<title>Node581</title>
<g id="a_node9"><a xlink:href="triangle_8cpp.html#ae9d4ed09a0fd07959568ba5f86cc4d0c" target="_top" xlink:title="scoutsegment">
<polygon fill="#ffffff" stroke="#000000" points="460,-222.7386 460,-241.7386 538,-241.7386 538,-222.7386 460,-222.7386"/>
<text text-anchor="middle" x="499" y="-229.7386" font-family="Helvetica,sans-Serif" font-size="10.00" fill="#000000">scoutsegment</text>
</a>
</g>
</g>
<!-- Node571&#45;&gt;Node581 -->
<g id="edge20" class="edge">
<title>Node571&#45;&gt;Node581</title>
<path fill="none" stroke="#191970" d="M164.6542,-181.0399C178.423,-190.6669 197.3554,-202.2356 216,-208.2386 299.7799,-235.2132 404.3149,-236.2392 459.9293,-234.3882"/>
<polygon fill="#191970" stroke="#191970" points="166.56,-178.0988 156.4067,-175.0721 162.4565,-183.7699 166.56,-178.0988"/>
</g>
<!-- Node582 -->
<g id="node10" class="node">
<title>Node582</title>
<g id="a_node10"><a xlink:href="triangle_8cpp.html#aded205ef0849b44d2a587f53fd720618" target="_top" xlink:title="constrainededge">
<polygon fill="#ffffff" stroke="#000000" points="574,-184.7386 574,-203.7386 662,-203.7386 662,-184.7386 574,-184.7386"/>
<text text-anchor="middle" x="618" y="-191.7386" font-family="Helvetica,sans-Serif" font-size="10.00" fill="#000000">constrainededge</text>
</a>
</g>
</g>
<!-- Node571&#45;&gt;Node582 -->
<g id="edge21" class="edge">
<title>Node571&#45;&gt;Node582</title>
<path fill="none" stroke="#191970" d="M190.0634,-168.0568C281.3748,-173.6434 484.243,-186.0551 573.9158,-191.5414"/>
<polygon fill="#191970" stroke="#191970" points="190.2112,-164.5594 180.0161,-167.4421 189.7837,-171.5463 190.2112,-164.5594"/>
</g>
<!-- Node571&#45;&gt;Node586 -->
<g id="edge18" class="edge">
<title>Node571&#45;&gt;Node586</title>
<path fill="none" stroke="#191970" d="M166.6862,-149.8568C180.7355,-140.475 199.2355,-128.3782 216,-118.2386 221.2074,-115.089 226.9556,-111.8057 232.2207,-108.8719"/>
<polygon fill="#191970" stroke="#191970" points="164.5105,-147.1018 158.1595,-155.5821 168.4127,-152.9133 164.5105,-147.1018"/>
</g>
<!-- Node587 -->
<g id="node15" class="node">
<title>Node587</title>
<g id="a_node15"><a xlink:href="triangle_8cpp.html#ab7ca7ba248dc47379e3c0f2bb9962bd4" target="_top" xlink:title="markhull">
<polygon fill="#ffffff" stroke="#000000" points="710.5,-250.7386 710.5,-269.7386 763.5,-269.7386 763.5,-250.7386 710.5,-250.7386"/>
<text text-anchor="middle" x="737" y="-257.7386" font-family="Helvetica,sans-Serif" font-size="10.00" fill="#000000">markhull</text>
</a>
</g>
</g>
<!-- Node571&#45;&gt;Node587 -->
<g id="edge22" class="edge">
<title>Node571&#45;&gt;Node587</title>
<path fill="none" stroke="#191970" d="M159.3097,-182.8409C172.8375,-197.3306 193.8177,-217.3547 216,-229.2386 279.1909,-263.0922 300.3121,-270.2386 372,-270.2386 372,-270.2386 372,-270.2386 499,-270.2386 575.7152,-270.2386 666.2173,-264.988 710.246,-262.0961"/>
<polygon fill="#191970" stroke="#191970" points="161.5613,-180.1132 152.2532,-175.0525 156.3738,-184.8132 161.5613,-180.1132"/>
</g>
<!-- Node573 -->
<g id="node4" class="node">
<title>Node573</title>
<g id="a_node4"><a xlink:href="triangle_8cpp.html#a4e3735a2f4c1fa18deb1a2e66aeda7bd" target="_top" xlink:title="undovertex">
<polygon fill="#ffffff" stroke="#000000" points="339.5,-32.7386 339.5,-51.7386 404.5,-51.7386 404.5,-32.7386 339.5,-32.7386"/>
<text text-anchor="middle" x="372" y="-39.7386" font-family="Helvetica,sans-Serif" font-size="10.00" fill="#000000">undovertex</text>
</a>
</g>
</g>
<!-- Node572&#45;&gt;Node573 -->
<g id="edge3" class="edge">
<title>Node572&#45;&gt;Node573</title>
<path fill="none" stroke="#191970" d="M279.3241,-122.056C280.9626,-120.8425 282.536,-119.5685 284,-118.2386 304.8065,-99.3385 298.4798,-84.3218 320,-66.2386 327.0794,-60.2898 335.8778,-55.4958 344.2119,-51.8027"/>
<polygon fill="#191970" stroke="#191970" points="277.2711,-119.216 270.7919,-127.5988 281.0845,-125.0861 277.2711,-119.216"/>
</g>
<!-- Node574 -->
<g id="node5" class="node">
<title>Node574</title>
<g id="a_node5"><a xlink:href="triangle_8cpp.html#a48fc63d369d988c08cbe8ab40f0b8af5" target="_top" xlink:title="splittriangle">
<polygon fill="#ffffff" stroke="#000000" points="466,-70.7386 466,-89.7386 532,-89.7386 532,-70.7386 466,-70.7386"/>
<text text-anchor="middle" x="499" y="-77.7386" font-family="Helvetica,sans-Serif" font-size="10.00" fill="#000000">splittriangle</text>
</a>
</g>
</g>
<!-- Node572&#45;&gt;Node574 -->
<g id="edge17" class="edge">
<title>Node572&#45;&gt;Node574</title>
<path fill="none" stroke="#191970" d="M294.033,-126.4141C302.6373,-124.3359 311.5962,-122.1978 320,-120.2386 370.8584,-108.3815 430.0161,-95.3003 465.9674,-87.4295"/>
<polygon fill="#191970" stroke="#191970" points="293.0426,-123.0528 284.1497,-128.8119 294.693,-129.8555 293.0426,-123.0528"/>
</g>
<!-- Node580 -->
<g id="node8" class="node">
<title>Node580</title>
<g id="a_node8"><a xlink:href="triangle_8cpp.html#a496c50bca0cf0c214a0204419c3b181a" target="_top" xlink:title="segmentintersection">
<polygon fill="#ffffff" stroke="#000000" points="320,-146.7386 320,-165.7386 424,-165.7386 424,-146.7386 320,-146.7386"/>
<text text-anchor="middle" x="372" y="-153.7386" font-family="Helvetica,sans-Serif" font-size="10.00" fill="#000000">segmentintersection</text>
</a>
</g>
</g>
<!-- Node572&#45;&gt;Node580 -->
<g id="edge7" class="edge">
<title>Node572&#45;&gt;Node580</title>
<path fill="none" stroke="#191970" d="M294.4318,-144.1583C302.6462,-145.4376 311.2944,-146.7844 319.7163,-148.096"/>
<polygon fill="#191970" stroke="#191970" points="294.728,-140.6623 284.3085,-142.5817 293.6507,-147.5789 294.728,-140.6623"/>
</g>
<!-- Node585 -->
<g id="node13" class="node">
<title>Node585</title>
<g id="a_node13"><a xlink:href="triangle_8cpp.html#adca37fc9e90f78c9ae794662de5428bd" target="_top" xlink:title="splitencsegs">
<polygon fill="#ffffff" stroke="#000000" points="463.5,-108.7386 463.5,-127.7386 534.5,-127.7386 534.5,-108.7386 463.5,-108.7386"/>
<text text-anchor="middle" x="499" y="-115.7386" font-family="Helvetica,sans-Serif" font-size="10.00" fill="#000000">splitencsegs</text>
</a>
</g>
</g>
<!-- Node572&#45;&gt;Node585 -->
<g id="edge15" class="edge">
<title>Node572&#45;&gt;Node585</title>
<path fill="none" stroke="#191970" d="M294.2421,-133.8627C342.4773,-130.1821 418.7247,-124.364 463.3006,-120.9626"/>
<polygon fill="#191970" stroke="#191970" points="293.805,-130.3858 284.1003,-134.6365 294.3376,-137.3655 293.805,-130.3858"/>
</g>
<!-- Node573&#45;&gt;Node574 -->
<g id="edge4" class="edge">
<title>Node573&#45;&gt;Node574</title>
<path fill="none" stroke="#191970" d="M413.8943,-54.7739C431.1712,-59.9433 450.8707,-65.8377 466.9628,-70.6526"/>
<polygon fill="#191970" stroke="#191970" points="414.6311,-51.3411 404.0475,-51.8276 412.6245,-58.0473 414.6311,-51.3411"/>
</g>
<!-- Node575 -->
<g id="node6" class="node">
<title>Node575</title>
<g id="a_node6"><a xlink:href="triangle_8cpp.html#a5a654ff6b304f2166c64ffe9183b2995" target="_top" xlink:title="enforcequality">
<polygon fill="#ffffff" stroke="#000000" points="579.5,-89.7386 579.5,-108.7386 656.5,-108.7386 656.5,-89.7386 579.5,-89.7386"/>
<text text-anchor="middle" x="618" y="-96.7386" font-family="Helvetica,sans-Serif" font-size="10.00" fill="#000000">enforcequality</text>
</a>
</g>
</g>
<!-- Node574&#45;&gt;Node575 -->
<g id="edge5" class="edge">
<title>Node574&#45;&gt;Node575</title>
<path fill="none" stroke="#191970" d="M542.0467,-87.1116C554.1658,-89.0466 567.2734,-91.1394 579.1327,-93.0329"/>
<polygon fill="#191970" stroke="#191970" points="542.5749,-83.6517 532.1481,-85.5311 541.4712,-90.5641 542.5749,-83.6517"/>
</g>
<!-- Node576 -->
<g id="node7" class="node">
<title>Node576</title>
<g id="a_node7"><a xlink:href="triangle_8hpp.html#a4ca59bf5fe569672944651426b662ba6" target="_top" xlink:title="Call Triangle. ">
<polygon fill="#ffffff" stroke="#ff0000" points="921,-89.7386 921,-108.7386 983,-108.7386 983,-89.7386 921,-89.7386"/>
<text text-anchor="middle" x="952" y="-96.7386" font-family="Helvetica,sans-Serif" font-size="10.00" fill="#000000">triangulate</text>
</a>
</g>
</g>
<!-- Node575&#45;&gt;Node576 -->
<g id="edge6" class="edge">
<title>Node575&#45;&gt;Node576</title>
<path fill="none" stroke="#191970" d="M666.902,-99.2386C736.5217,-99.2386 862.2267,-99.2386 920.6174,-99.2386"/>
<polygon fill="#191970" stroke="#191970" points="666.6404,-95.7387 656.6403,-99.2386 666.6403,-102.7387 666.6404,-95.7387"/>
</g>
<!-- Node580&#45;&gt;Node581 -->
<g id="edge8" class="edge">
<title>Node580&#45;&gt;Node581</title>
<path fill="none" stroke="#191970" d="M396.824,-171.0939C422.3546,-186.372 461.3582,-209.7127 483.046,-222.6913"/>
<polygon fill="#191970" stroke="#191970" points="398.4628,-167.9958 388.0846,-165.864 394.8683,-174.0024 398.4628,-167.9958"/>
</g>
<!-- Node580&#45;&gt;Node582 -->
<g id="edge14" class="edge">
<title>Node580&#45;&gt;Node582</title>
<path fill="none" stroke="#191970" d="M434.3066,-164.8007C465.4794,-169.1979 503.7698,-174.7702 538,-180.2386 549.5564,-182.0847 562.0287,-184.2054 573.6081,-186.2286"/>
<polygon fill="#191970" stroke="#191970" points="434.4136,-161.2815 424.0239,-163.3564 433.4399,-168.2135 434.4136,-161.2815"/>
</g>
<!-- Node581&#45;&gt;Node582 -->
<g id="edge9" class="edge">
<title>Node581&#45;&gt;Node582</title>
<path fill="none" stroke="#191970" d="M538.7098,-219.5581C554.7886,-214.4237 573.0433,-208.5945 587.9809,-203.8245"/>
<polygon fill="#191970" stroke="#191970" points="537.4901,-216.2734 529.0287,-222.6496 539.6195,-222.9417 537.4901,-216.2734"/>
</g>
<!-- Node583 -->
<g id="node11" class="node">
<title>Node583</title>
<g id="a_node11"><a xlink:href="triangle_8cpp.html#ae367b20189056436da2a1b633b392703" target="_top" xlink:title="insertsegment">
<polygon fill="#ffffff" stroke="#000000" points="698,-203.7386 698,-222.7386 776,-222.7386 776,-203.7386 698,-203.7386"/>
<text text-anchor="middle" x="737" y="-210.7386" font-family="Helvetica,sans-Serif" font-size="10.00" fill="#000000">insertsegment</text>
</a>
</g>
</g>
<!-- Node581&#45;&gt;Node583 -->
<g id="edge13" class="edge">
<title>Node581&#45;&gt;Node583</title>
<path fill="none" stroke="#191970" d="M548.0201,-228.3252C592.4101,-224.7815 656.9506,-219.6291 697.9443,-216.3565"/>
<polygon fill="#191970" stroke="#191970" points="547.7241,-224.8376 538.0344,-229.1224 548.2812,-231.8154 547.7241,-224.8376"/>
</g>
<!-- Node582&#45;&gt;Node583 -->
<g id="edge10" class="edge">
<title>Node582&#45;&gt;Node583</title>
<path fill="none" stroke="#191970" d="M672.2778,-202.9048C680.862,-204.2754 689.5922,-205.6693 697.7464,-206.9712"/>
<polygon fill="#191970" stroke="#191970" points="672.738,-199.434 662.3112,-201.3135 671.6343,-206.3464 672.738,-199.434"/>
</g>
<!-- Node584 -->
<g id="node12" class="node">
<title>Node584</title>
<g id="a_node12"><a xlink:href="triangle_8cpp.html#a77e7549672629c06d5926b7edcafc337" target="_top" xlink:title="formskeleton">
<polygon fill="#ffffff" stroke="#000000" points="812,-203.7386 812,-222.7386 885,-222.7386 885,-203.7386 812,-203.7386"/>
<text text-anchor="middle" x="848.5" y="-210.7386" font-family="Helvetica,sans-Serif" font-size="10.00" fill="#000000">formskeleton</text>
</a>
</g>
</g>
<!-- Node583&#45;&gt;Node584 -->
<g id="edge11" class="edge">
<title>Node583&#45;&gt;Node584</title>
<path fill="none" stroke="#191970" d="M786.5197,-213.2386C795.0128,-213.2386 803.7012,-213.2386 811.7832,-213.2386"/>
<polygon fill="#191970" stroke="#191970" points="786.3108,-209.7387 776.3107,-213.2386 786.3107,-216.7387 786.3108,-209.7387"/>
</g>
<!-- Node584&#45;&gt;Node576 -->
<g id="edge12" class="edge">
<title>Node584&#45;&gt;Node576</title>
<path fill="none" stroke="#191970" d="M864.0678,-196.0914C886.1008,-171.8232 925.6485,-128.2634 943.198,-108.9335"/>
<polygon fill="#191970" stroke="#191970" points="861.4549,-193.7625 857.3244,-203.519 866.6376,-198.4678 861.4549,-193.7625"/>
</g>
<!-- Node585&#45;&gt;Node575 -->
<g id="edge16" class="edge">
<title>Node585&#45;&gt;Node575</title>
<path fill="none" stroke="#191970" d="M544.9205,-110.9067C556.3163,-109.0872 568.414,-107.1557 579.4181,-105.3987"/>
<polygon fill="#191970" stroke="#191970" points="544.027,-107.505 534.7039,-112.5379 545.1307,-114.4174 544.027,-107.505"/>
</g>
<!-- Node586&#45;&gt;Node576 -->
<g id="edge19" class="edge">
<title>Node586&#45;&gt;Node576</title>
<path fill="none" stroke="#191970" d="M261.1183,-80.9521C273.1794,-62.9133 294.209,-36.2136 320,-23.2386 391.4681,12.7157 418.9975,-4.2386 499,-4.2386 499,-4.2386 499,-4.2386 737,-4.2386 820.6561,-4.2386 908.2006,-65.1574 939.7615,-89.4297"/>
<polygon fill="#191970" stroke="#191970" points="258.1033,-79.1701 255.6509,-89.4772 263.9956,-82.949 258.1033,-79.1701"/>
</g>
<!-- Node587&#45;&gt;Node584 -->
<g id="edge23" class="edge">
<title>Node587&#45;&gt;Node584</title>
<path fill="none" stroke="#191970" d="M769.115,-246.7013C787.172,-239.0898 809.2886,-229.7671 825.5872,-222.8969"/>
<polygon fill="#191970" stroke="#191970" points="767.419,-243.6179 759.5637,-250.7274 770.138,-250.0683 767.419,-243.6179"/>
</g>
</g>
</svg>
