<?xml version="1.0" encoding="UTF-8" standalone="no"?>
<!DOCTYPE svg PUBLIC "-//W3C//DTD SVG 1.1//EN"
 "http://www.w3.org/Graphics/SVG/1.1/DTD/svg11.dtd">
<!-- Generated by graphviz version 2.40.1 (20161225.0304)
 -->
<!-- Title: delaunay Pages: 1 -->
<svg width="396pt" height="28pt"
 viewBox="0.00 0.00 396.00 28.00" xmlns="http://www.w3.org/2000/svg" xmlns:xlink="http://www.w3.org/1999/xlink">
<g id="graph0" class="graph" transform="scale(1 1) rotate(0) translate(4 24)">
<title>delaunay</title>
<polygon fill="#ffffff" stroke="transparent" points="-4,4 -4,-24 392,-24 392,4 -4,4"/>
<!-- Node1290 -->
<g id="node1" class="node">
<title>Node1290</title>
<polygon fill="#bfbfbf" stroke="#000000" points="0,-.5 0,-19.5 56,-19.5 56,-.5 0,-.5"/>
<text text-anchor="middle" x="28" y="-7.5" font-family="Helvetica,sans-Serif" font-size="10.00" fill="#000000">delaunay</text>
</g>
<!-- Node1291 -->
<g id="node2" class="node">
<title>Node1291</title>
<g id="a_node2"><a xlink:href="triangle_8hpp.html#a848df2990f66cdbdc9d1ac87f4646527" target="_top" xlink:title="Call Triangle. ">
<polygon fill="#ffffff" stroke="#000000" points="92,-.5 92,-19.5 154,-19.5 154,-.5 92,-.5"/>
<text text-anchor="middle" x="123" y="-7.5" font-family="Helvetica,sans-Serif" font-size="10.00" fill="#000000">triangulate</text>
</a>
</g>
</g>
<!-- Node1290&#45;&gt;Node1291 -->
<g id="edge1" class="edge">
<title>Node1290&#45;&gt;Node1291</title>
<path fill="none" stroke="#191970" d="M66.2737,-10C74.7213,-10 83.5739,-10 91.7063,-10"/>
<polygon fill="#191970" stroke="#191970" points="66.246,-6.5001 56.2459,-10 66.2459,-13.5001 66.246,-6.5001"/>
</g>
<!-- Node1292 -->
<g id="node3" class="node">
<title>Node1292</title>
<g id="a_node3"><a xlink:href="classRiver_1_1Triangle.html#a7bc9c5a5297dee136ab1489a923182dd" target="_top" xlink:title="Generate mesh. ">
<polygon fill="#ffffff" stroke="#000000" points="190,-.5 190,-19.5 314,-19.5 314,-.5 190,-.5"/>
<text text-anchor="middle" x="252" y="-7.5" font-family="Helvetica,sans-Serif" font-size="10.00" fill="#000000">River::Triangle::generate</text>
</a>
</g>
</g>
<!-- Node1291&#45;&gt;Node1292 -->
<g id="edge2" class="edge">
<title>Node1291&#45;&gt;Node1292</title>
<path fill="none" stroke="#191970" d="M164.2629,-10C172.4682,-10 181.2527,-10 189.9767,-10"/>
<polygon fill="#191970" stroke="#191970" points="164.2273,-6.5001 154.2273,-10 164.2273,-13.5001 164.2273,-6.5001"/>
</g>
<!-- Node1293 -->
<g id="node4" class="node">
<title>Node1293</title>
<g id="a_node4"><a xlink:href="main_8cpp.html#a0ddf1224851353fc92bfbff6f499fa97" target="_top" xlink:title="Entry point of RiverSim program. ">
<polygon fill="#ffffff" stroke="#000000" points="350,-.5 350,-19.5 388,-19.5 388,-.5 350,-.5"/>
<text text-anchor="middle" x="369" y="-7.5" font-family="Helvetica,sans-Serif" font-size="10.00" fill="#000000">main</text>
</a>
</g>
</g>
<!-- Node1292&#45;&gt;Node1293 -->
<g id="edge3" class="edge">
<title>Node1292&#45;&gt;Node1293</title>
<path fill="none" stroke="#191970" d="M324.5174,-10C333.8253,-10 342.6301,-10 349.912,-10"/>
<polygon fill="#191970" stroke="#191970" points="324.2682,-6.5001 314.2682,-10 324.2682,-13.5001 324.2682,-6.5001"/>
</g>
</g>
</svg>
