<?xml version="1.0" encoding="UTF-8" standalone="no"?>
<!DOCTYPE svg PUBLIC "-//W3C//DTD SVG 1.1//EN"
 "http://www.w3.org/Graphics/SVG/1.1/DTD/svg11.dtd">
<!-- Generated by graphviz version 2.40.1 (20161225.0304)
 -->
<!-- Title: divconqrecurse Pages: 1 -->
<svg width="747pt" height="28pt"
 viewBox="0.00 0.00 747.00 28.00" xmlns="http://www.w3.org/2000/svg" xmlns:xlink="http://www.w3.org/1999/xlink">
<g id="graph0" class="graph" transform="scale(1 1) rotate(0) translate(4 24)">
<title>divconqrecurse</title>
<polygon fill="#ffffff" stroke="transparent" points="-4,4 -4,-24 743,-24 743,4 -4,4"/>
<!-- Node1276 -->
<g id="node1" class="node">
<title>Node1276</title>
<polygon fill="#bfbfbf" stroke="#000000" points="0,-.5 0,-19.5 83,-19.5 83,-.5 0,-.5"/>
<text text-anchor="middle" x="41.5" y="-7.5" font-family="Helvetica,sans-Serif" font-size="10.00" fill="#000000">divconqrecurse</text>
</g>
<!-- Node1277 -->
<g id="node2" class="node">
<title>Node1277</title>
<g id="a_node2"><a xlink:href="triangle_8cpp.html#a4a13891380126c239a32b46c88f06223" target="_top" xlink:title="divconqdelaunay">
<polygon fill="#ffffff" stroke="#000000" points="119,-.5 119,-19.5 208,-19.5 208,-.5 119,-.5"/>
<text text-anchor="middle" x="163.5" y="-7.5" font-family="Helvetica,sans-Serif" font-size="10.00" fill="#000000">divconqdelaunay</text>
</a>
</g>
</g>
<!-- Node1276&#45;&gt;Node1277 -->
<g id="edge1" class="edge">
<title>Node1276&#45;&gt;Node1277</title>
<path fill="none" stroke="#191970" d="M93.2909,-10C101.7444,-10 110.4395,-10 118.7064,-10"/>
<polygon fill="#191970" stroke="#191970" points="93.1443,-6.5001 83.1443,-10 93.1442,-13.5001 93.1443,-6.5001"/>
</g>
<!-- Node1278 -->
<g id="node3" class="node">
<title>Node1278</title>
<g id="a_node3"><a xlink:href="triangle_8cpp.html#ab67faa70960c7c39ee1150ab4d55f0a5" target="_top" xlink:title="delaunay">
<polygon fill="#ffffff" stroke="#000000" points="244,-.5 244,-19.5 300,-19.5 300,-.5 244,-.5"/>
<text text-anchor="middle" x="272" y="-7.5" font-family="Helvetica,sans-Serif" font-size="10.00" fill="#000000">delaunay</text>
</a>
</g>
</g>
<!-- Node1277&#45;&gt;Node1278 -->
<g id="edge2" class="edge">
<title>Node1277&#45;&gt;Node1278</title>
<path fill="none" stroke="#191970" d="M218.5013,-10C227.2639,-10 236.0004,-10 243.796,-10"/>
<polygon fill="#191970" stroke="#191970" points="218.2576,-6.5001 208.2575,-10 218.2575,-13.5001 218.2576,-6.5001"/>
</g>
<!-- Node1279 -->
<g id="node4" class="node">
<title>Node1279</title>
<g id="a_node4"><a xlink:href="triangle_8hpp.html#a4ca59bf5fe569672944651426b662ba6" target="_top" xlink:title="Call Triangle. ">
<polygon fill="#ffffff" stroke="#000000" points="336,-.5 336,-19.5 398,-19.5 398,-.5 336,-.5"/>
<text text-anchor="middle" x="367" y="-7.5" font-family="Helvetica,sans-Serif" font-size="10.00" fill="#000000">triangulate</text>
</a>
</g>
</g>
<!-- Node1278&#45;&gt;Node1279 -->
<g id="edge3" class="edge">
<title>Node1278&#45;&gt;Node1279</title>
<path fill="none" stroke="#191970" d="M310.2737,-10C318.7213,-10 327.5739,-10 335.7063,-10"/>
<polygon fill="#191970" stroke="#191970" points="310.246,-6.5001 300.2459,-10 310.2459,-13.5001 310.246,-6.5001"/>
</g>
<!-- Node1280 -->
<g id="node5" class="node">
<title>Node1280</title>
<g id="a_node5"><a xlink:href="classRiver_1_1Triangle.html#a0dae20b40d446e6009a88543e2c14daf" target="_top" xlink:title="Generate mesh. ">
<polygon fill="#ffffff" stroke="#000000" points="434,-.5 434,-19.5 558,-19.5 558,-.5 434,-.5"/>
<text text-anchor="middle" x="496" y="-7.5" font-family="Helvetica,sans-Serif" font-size="10.00" fill="#000000">River::Triangle::generate</text>
</a>
</g>
</g>
<!-- Node1279&#45;&gt;Node1280 -->
<g id="edge4" class="edge">
<title>Node1279&#45;&gt;Node1280</title>
<path fill="none" stroke="#191970" d="M408.2629,-10C416.4682,-10 425.2527,-10 433.9767,-10"/>
<polygon fill="#191970" stroke="#191970" points="408.2273,-6.5001 398.2273,-10 408.2273,-13.5001 408.2273,-6.5001"/>
</g>
<!-- Node1281 -->
<g id="node6" class="node">
<title>Node1281</title>
<g id="a_node6"><a xlink:href="namespaceRiver.html#af1a3f7c61809dd8032e4ff5920da83cc" target="_top" xlink:title="One step of forward river evolution. ">
<polygon fill="#ffffff" stroke="#ff0000" points="594,-.5 594,-19.5 739,-19.5 739,-.5 594,-.5"/>
<text text-anchor="middle" x="666.5" y="-7.5" font-family="Helvetica,sans-Serif" font-size="10.00" fill="#000000">River::ForwardRiverEvolution</text>
</a>
</g>
</g>
<!-- Node1280&#45;&gt;Node1281 -->
<g id="edge5" class="edge">
<title>Node1280&#45;&gt;Node1281</title>
<path fill="none" stroke="#191970" d="M568.2431,-10C576.7006,-10 585.333,-10 593.7967,-10"/>
<polygon fill="#191970" stroke="#191970" points="568.0368,-6.5001 558.0367,-10 568.0367,-13.5001 568.0368,-6.5001"/>
</g>
</g>
</svg>
