<?xml version="1.0" encoding="UTF-8" standalone="no"?>
<!DOCTYPE svg PUBLIC "-//W3C//DTD SVG 1.1//EN"
 "http://www.w3.org/Graphics/SVG/1.1/DTD/svg11.dtd">
<!-- Generated by graphviz version 2.40.1 (20161225.0304)
 -->
<!-- Title: writenodes Pages: 1 -->
<svg width="585pt" height="28pt"
 viewBox="0.00 0.00 585.00 28.00" xmlns="http://www.w3.org/2000/svg" xmlns:xlink="http://www.w3.org/1999/xlink">
<g id="graph0" class="graph" transform="scale(1 1) rotate(0) translate(4 24)">
<title>writenodes</title>
<polygon fill="#ffffff" stroke="transparent" points="-4,4 -4,-24 581,-24 581,4 -4,4"/>
<!-- Node1906 -->
<g id="node1" class="node">
<title>Node1906</title>
<polygon fill="#bfbfbf" stroke="#000000" points="0,-.5 0,-19.5 64,-19.5 64,-.5 0,-.5"/>
<text text-anchor="middle" x="32" y="-7.5" font-family="Helvetica,sans-Serif" font-size="10.00" fill="#000000">writenodes</text>
</g>
<!-- Node1907 -->
<g id="node2" class="node">
<title>Node1907</title>
<g id="a_node2"><a xlink:href="triangle_8hpp.html#a4ca59bf5fe569672944651426b662ba6" target="_top" xlink:title="Call Triangle. ">
<polygon fill="#ffffff" stroke="#000000" points="100,-.5 100,-19.5 162,-19.5 162,-.5 100,-.5"/>
<text text-anchor="middle" x="131" y="-7.5" font-family="Helvetica,sans-Serif" font-size="10.00" fill="#000000">triangulate</text>
</a>
</g>
</g>
<!-- Node1906&#45;&gt;Node1907 -->
<g id="edge1" class="edge">
<title>Node1906&#45;&gt;Node1907</title>
<path fill="none" stroke="#191970" d="M74.3157,-10C82.831,-10 91.636,-10 99.6938,-10"/>
<polygon fill="#191970" stroke="#191970" points="74.1425,-6.5001 64.1425,-10 74.1424,-13.5001 74.1425,-6.5001"/>
</g>
<!-- Node1908 -->
<g id="node3" class="node">
<title>Node1908</title>
<g id="a_node3"><a xlink:href="classRiver_1_1Triangle.html#a0dae20b40d446e6009a88543e2c14daf" target="_top" xlink:title="Generate mesh. ">
<polygon fill="#ffffff" stroke="#000000" points="198,-.5 198,-19.5 322,-19.5 322,-.5 198,-.5"/>
<text text-anchor="middle" x="260" y="-7.5" font-family="Helvetica,sans-Serif" font-size="10.00" fill="#000000">River::Triangle::generate</text>
</a>
</g>
</g>
<!-- Node1907&#45;&gt;Node1908 -->
<g id="edge2" class="edge">
<title>Node1907&#45;&gt;Node1908</title>
<path fill="none" stroke="#191970" d="M172.2629,-10C180.4682,-10 189.2527,-10 197.9767,-10"/>
<polygon fill="#191970" stroke="#191970" points="172.2273,-6.5001 162.2273,-10 172.2273,-13.5001 172.2273,-6.5001"/>
</g>
<!-- Node1909 -->
<g id="node4" class="node">
<title>Node1909</title>
<g id="a_node4"><a xlink:href="namespaceRiver.html#af1a3f7c61809dd8032e4ff5920da83cc" target="_top" xlink:title="One step of forward river evolution. ">
<polygon fill="#ffffff" stroke="#000000" points="358,-.5 358,-19.5 503,-19.5 503,-.5 358,-.5"/>
<text text-anchor="middle" x="430.5" y="-7.5" font-family="Helvetica,sans-Serif" font-size="10.00" fill="#000000">River::ForwardRiverEvolution</text>
</a>
</g>
</g>
<!-- Node1908&#45;&gt;Node1909 -->
<g id="edge3" class="edge">
<title>Node1908&#45;&gt;Node1909</title>
<path fill="none" stroke="#191970" d="M332.2431,-10C340.7006,-10 349.333,-10 357.7967,-10"/>
<polygon fill="#191970" stroke="#191970" points="332.0368,-6.5001 322.0367,-10 332.0367,-13.5001 332.0368,-6.5001"/>
</g>
<!-- Node1910 -->
<g id="node5" class="node">
<title>Node1910</title>
<g id="a_node5"><a xlink:href="main_8cpp.html#a0ddf1224851353fc92bfbff6f499fa97" target="_top" xlink:title="Entry point of RiverSim program. ">
<polygon fill="#ffffff" stroke="#000000" points="539,-.5 539,-19.5 577,-19.5 577,-.5 539,-.5"/>
<text text-anchor="middle" x="558" y="-7.5" font-family="Helvetica,sans-Serif" font-size="10.00" fill="#000000">main</text>
</a>
</g>
</g>
<!-- Node1909&#45;&gt;Node1910 -->
<g id="edge4" class="edge">
<title>Node1909&#45;&gt;Node1910</title>
<path fill="none" stroke="#191970" d="M513.2526,-10C522.7338,-10 531.5978,-10 538.8947,-10"/>
<polygon fill="#191970" stroke="#191970" points="513.1886,-6.5001 503.1886,-10 513.1885,-13.5001 513.1886,-6.5001"/>
</g>
</g>
</svg>
