<?xml version="1.0" encoding="UTF-8" standalone="no"?>
<!DOCTYPE svg PUBLIC "-//W3C//DTD SVG 1.1//EN"
 "http://www.w3.org/Graphics/SVG/1.1/DTD/svg11.dtd">
<!-- Generated by graphviz version 2.40.1 (20161225.0304)
 -->
<!-- Title: initializetrisubpools Pages: 1 -->
<svg width="380pt" height="66pt"
 viewBox="0.00 0.00 380.00 66.00" xmlns="http://www.w3.org/2000/svg" xmlns:xlink="http://www.w3.org/1999/xlink">
<g id="graph0" class="graph" transform="scale(1 1) rotate(0) translate(4 62)">
<title>initializetrisubpools</title>
<polygon fill="#ffffff" stroke="transparent" points="-4,4 -4,-62 376,-62 376,4 -4,4"/>
<!-- Node395 -->
<g id="node1" class="node">
<title>Node395</title>
<polygon fill="#bfbfbf" stroke="#000000" points="0,-19.5 0,-38.5 99,-38.5 99,-19.5 0,-19.5"/>
<text text-anchor="middle" x="49.5" y="-26.5" font-family="Helvetica,sans-Serif" font-size="10.00" fill="#000000">initializetrisubpools</text>
</g>
<!-- Node396 -->
<g id="node2" class="node">
<title>Node396</title>
<g id="a_node2"><a xlink:href="triangle_8cpp.html#a50d34a398ff84c3d02a81d8d73dd0ee9" target="_top" xlink:title="poolinit">
<polygon fill="#ffffff" stroke="#000000" points="142.5,-.5 142.5,-19.5 189.5,-19.5 189.5,-.5 142.5,-.5"/>
<text text-anchor="middle" x="166" y="-7.5" font-family="Helvetica,sans-Serif" font-size="10.00" fill="#000000">poolinit</text>
</a>
</g>
</g>
<!-- Node395&#45;&gt;Node396 -->
<g id="edge1" class="edge">
<title>Node395&#45;&gt;Node396</title>
<path fill="none" stroke="#191970" d="M99.2444,-20.8872C110.4692,-19.0565 122.1246,-17.1556 132.4948,-15.4644"/>
<polygon fill="#191970" stroke="#191970" points="133.0668,-18.9174 142.373,-13.8533 131.94,-12.0087 133.0668,-18.9174"/>
</g>
<!-- Node400 -->
<g id="node6" class="node">
<title>Node400</title>
<g id="a_node6"><a xlink:href="triangle_8cpp.html#ad5a7f66d52301dfbfe436b749004fc09" target="_top" xlink:title="dummyinit">
<polygon fill="#ffffff" stroke="#000000" points="135,-38.5 135,-57.5 197,-57.5 197,-38.5 135,-38.5"/>
<text text-anchor="middle" x="166" y="-45.5" font-family="Helvetica,sans-Serif" font-size="10.00" fill="#000000">dummyinit</text>
</a>
</g>
</g>
<!-- Node395&#45;&gt;Node400 -->
<g id="edge5" class="edge">
<title>Node395&#45;&gt;Node400</title>
<path fill="none" stroke="#191970" d="M99.2444,-37.1128C107.862,-38.5183 116.7335,-39.9651 125.0823,-41.3267"/>
<polygon fill="#191970" stroke="#191970" points="124.5217,-44.7815 134.9547,-42.9368 125.6485,-37.8727 124.5217,-44.7815"/>
</g>
<!-- Node397 -->
<g id="node3" class="node">
<title>Node397</title>
<g id="a_node3"><a xlink:href="triangle_8cpp.html#a5f51f1d3957615b2c84a91fd9f5f09bf" target="_top" xlink:title="trimalloc">
<polygon fill="#ffffff" stroke="#000000" points="237.5,-38.5 237.5,-57.5 290.5,-57.5 290.5,-38.5 237.5,-38.5"/>
<text text-anchor="middle" x="264" y="-45.5" font-family="Helvetica,sans-Serif" font-size="10.00" fill="#000000">trimalloc</text>
</a>
</g>
</g>
<!-- Node396&#45;&gt;Node397 -->
<g id="edge2" class="edge">
<title>Node396&#45;&gt;Node397</title>
<path fill="none" stroke="#191970" d="M189.7231,-19.1987C201.8482,-23.9003 216.817,-29.7045 230.1326,-34.8677"/>
<polygon fill="#191970" stroke="#191970" points="228.883,-38.1371 239.472,-38.4891 231.4137,-31.6105 228.883,-38.1371"/>
</g>
<!-- Node399 -->
<g id="node5" class="node">
<title>Node399</title>
<g id="a_node5"><a xlink:href="triangle_8cpp.html#a2657afcbf1c107955b10ccf7dbf14c90" target="_top" xlink:title="poolrestart">
<polygon fill="#ffffff" stroke="#000000" points="233,-.5 233,-19.5 295,-19.5 295,-.5 233,-.5"/>
<text text-anchor="middle" x="264" y="-7.5" font-family="Helvetica,sans-Serif" font-size="10.00" fill="#000000">poolrestart</text>
</a>
</g>
</g>
<!-- Node396&#45;&gt;Node399 -->
<g id="edge4" class="edge">
<title>Node396&#45;&gt;Node399</title>
<path fill="none" stroke="#191970" d="M189.7231,-10C199.6115,-10 211.3913,-10 222.6232,-10"/>
<polygon fill="#191970" stroke="#191970" points="222.7143,-13.5001 232.7143,-10 222.7143,-6.5001 222.7143,-13.5001"/>
</g>
<!-- Node398 -->
<g id="node4" class="node">
<title>Node398</title>
<g id="a_node4"><a xlink:href="triangle_8cpp.html#a648abfc70d158485620dbcb9aa990178" target="_top" xlink:title="triexit">
<polygon fill="#ffffff" stroke="#000000" points="331,-38.5 331,-57.5 372,-57.5 372,-38.5 331,-38.5"/>
<text text-anchor="middle" x="351.5" y="-45.5" font-family="Helvetica,sans-Serif" font-size="10.00" fill="#000000">triexit</text>
</a>
</g>
</g>
<!-- Node397&#45;&gt;Node398 -->
<g id="edge3" class="edge">
<title>Node397&#45;&gt;Node398</title>
<path fill="none" stroke="#191970" d="M290.7283,-48C300.1769,-48 310.8803,-48 320.6431,-48"/>
<polygon fill="#191970" stroke="#191970" points="320.7638,-51.5001 330.7637,-48 320.7637,-44.5001 320.7638,-51.5001"/>
</g>
<!-- Node400&#45;&gt;Node397 -->
<g id="edge6" class="edge">
<title>Node400&#45;&gt;Node397</title>
<path fill="none" stroke="#191970" d="M197.0078,-48C206.6634,-48 217.4014,-48 227.4017,-48"/>
<polygon fill="#191970" stroke="#191970" points="227.4798,-51.5001 237.4798,-48 227.4798,-44.5001 227.4798,-51.5001"/>
</g>
</g>
</svg>
