<?xml version="1.0" encoding="UTF-8" standalone="no"?>
<!DOCTYPE svg PUBLIC "-//W3C//DTD SVG 1.1//EN"
 "http://www.w3.org/Graphics/SVG/1.1/DTD/svg11.dtd">
<!-- Generated by graphviz version 2.40.1 (20161225.0304)
 -->
<!-- Title: statistics Pages: 1 -->
<svg width="613pt" height="132pt"
 viewBox="0.00 0.00 613.00 131.50" xmlns="http://www.w3.org/2000/svg" xmlns:xlink="http://www.w3.org/1999/xlink">
<g id="graph0" class="graph" transform="scale(1 1) rotate(0) translate(4 127.5)">
<title>statistics</title>
<polygon fill="#ffffff" stroke="transparent" points="-4,4 -4,-127.5 609,-127.5 609,4 -4,4"/>
<!-- Node1898 -->
<g id="node1" class="node">
<title>Node1898</title>
<polygon fill="#bfbfbf" stroke="#000000" points="0,-66 0,-85 56,-85 56,-66 0,-66"/>
<text text-anchor="middle" x="28" y="-73" font-family="Helvetica,sans-Serif" font-size="10.00" fill="#000000">statistics</text>
</g>
<!-- Node1899 -->
<g id="node2" class="node">
<title>Node1899</title>
<g id="a_node2"><a xlink:href="triangle_8cpp.html#ada18b75ad55debb3c033ba1db23ba2b4" target="_top" xlink:title="quality_statistics">
<polygon fill="#ffffff" stroke="#000000" points="92,-66 92,-85 182,-85 182,-66 92,-66"/>
<text text-anchor="middle" x="137" y="-73" font-family="Helvetica,sans-Serif" font-size="10.00" fill="#000000">quality_statistics</text>
</a>
</g>
</g>
<!-- Node1898&#45;&gt;Node1899 -->
<g id="edge1" class="edge">
<title>Node1898&#45;&gt;Node1899</title>
<path fill="none" stroke="#191970" d="M56.0702,-75.5C63.8682,-75.5 72.6188,-75.5 81.4072,-75.5"/>
<polygon fill="#191970" stroke="#191970" points="81.6867,-79.0001 91.6866,-75.5 81.6866,-72.0001 81.6867,-79.0001"/>
</g>
<!-- Node1900 -->
<g id="node3" class="node">
<title>Node1900</title>
<g id="a_node3"><a xlink:href="triangle_8cpp.html#ac497210bc9192d88ed80659833ba5f55" target="_top" xlink:title="traversalinit">
<polygon fill="#ffffff" stroke="#000000" points="230.5,-104 230.5,-123 297.5,-123 297.5,-104 230.5,-104"/>
<text text-anchor="middle" x="264" y="-111" font-family="Helvetica,sans-Serif" font-size="10.00" fill="#000000">traversalinit</text>
</a>
</g>
</g>
<!-- Node1899&#45;&gt;Node1900 -->
<g id="edge2" class="edge">
<title>Node1899&#45;&gt;Node1900</title>
<path fill="none" stroke="#191970" d="M169.0475,-85.089C185.1411,-89.9044 204.8409,-95.7988 222.1167,-100.968"/>
<polygon fill="#191970" stroke="#191970" points="221.3791,-104.4006 231.9628,-103.9141 223.3858,-97.6943 221.3791,-104.4006"/>
</g>
<!-- Node1901 -->
<g id="node4" class="node">
<title>Node1901</title>
<g id="a_node4"><a xlink:href="triangle_8cpp.html#ac5f43264b4c12a0300c268142b0b3ee6" target="_top" xlink:title="triangletraverse">
<polygon fill="#ffffff" stroke="#000000" points="222.5,-66 222.5,-85 305.5,-85 305.5,-66 222.5,-66"/>
<text text-anchor="middle" x="264" y="-73" font-family="Helvetica,sans-Serif" font-size="10.00" fill="#000000">triangletraverse</text>
</a>
</g>
</g>
<!-- Node1899&#45;&gt;Node1901 -->
<g id="edge3" class="edge">
<title>Node1899&#45;&gt;Node1901</title>
<path fill="none" stroke="#191970" d="M182.133,-75.5C191.8694,-75.5 202.236,-75.5 212.2041,-75.5"/>
<polygon fill="#191970" stroke="#191970" points="212.4045,-79.0001 222.4045,-75.5 212.4044,-72.0001 212.4045,-79.0001"/>
</g>
<!-- Node1903 -->
<g id="node6" class="node">
<title>Node1903</title>
<g id="a_node6"><a xlink:href="triangle_8cpp.html#adbb7ef8fc2a92efceb7c1c152fbd22f1" target="_top" xlink:title="counterclockwise">
<polygon fill="#ffffff" stroke="#000000" points="218,-28 218,-47 310,-47 310,-28 218,-28"/>
<text text-anchor="middle" x="264" y="-35" font-family="Helvetica,sans-Serif" font-size="10.00" fill="#000000">counterclockwise</text>
</a>
</g>
</g>
<!-- Node1899&#45;&gt;Node1903 -->
<g id="edge5" class="edge">
<title>Node1899&#45;&gt;Node1903</title>
<path fill="none" stroke="#191970" d="M169.0475,-65.911C185.1411,-61.0956 204.8409,-55.2012 222.1167,-50.032"/>
<polygon fill="#191970" stroke="#191970" points="223.3858,-53.3057 231.9628,-47.0859 221.3791,-46.5994 223.3858,-53.3057"/>
</g>
<!-- Node1902 -->
<g id="node5" class="node">
<title>Node1902</title>
<g id="a_node5"><a xlink:href="triangle_8cpp.html#a908560980328e10c897c5c34bb733e9d" target="_top" xlink:title="traverse">
<polygon fill="#ffffff" stroke="#000000" points="378,-66 378,-85 430,-85 430,-66 378,-66"/>
<text text-anchor="middle" x="404" y="-73" font-family="Helvetica,sans-Serif" font-size="10.00" fill="#000000">traverse</text>
</a>
</g>
</g>
<!-- Node1901&#45;&gt;Node1902 -->
<g id="edge4" class="edge">
<title>Node1901&#45;&gt;Node1902</title>
<path fill="none" stroke="#191970" d="M305.6256,-75.5C325.3479,-75.5 348.6874,-75.5 367.6824,-75.5"/>
<polygon fill="#191970" stroke="#191970" points="367.7377,-79.0001 377.7377,-75.5 367.7376,-72.0001 367.7377,-79.0001"/>
</g>
<!-- Node1904 -->
<g id="node7" class="node">
<title>Node1904</title>
<g id="a_node7"><a xlink:href="triangle_8cpp.html#abd5587da82afca7f6403c3ec3d17139a" target="_top" xlink:title="counterclockwiseadapt">
<polygon fill="#ffffff" stroke="#000000" points="346,-28 346,-47 462,-47 462,-28 346,-28"/>
<text text-anchor="middle" x="404" y="-35" font-family="Helvetica,sans-Serif" font-size="10.00" fill="#000000">counterclockwiseadapt</text>
</a>
</g>
</g>
<!-- Node1903&#45;&gt;Node1904 -->
<g id="edge6" class="edge">
<title>Node1903&#45;&gt;Node1904</title>
<path fill="none" stroke="#191970" d="M310.2292,-37.5C318.3581,-37.5 326.9723,-37.5 335.5553,-37.5"/>
<polygon fill="#191970" stroke="#191970" points="335.5858,-41.0001 345.5858,-37.5 335.5857,-34.0001 335.5858,-41.0001"/>
</g>
<!-- Node1905 -->
<g id="node8" class="node">
<title>Node1905</title>
<g id="a_node8"><a xlink:href="triangle_8cpp.html#a3487d9f90ea72da543d5d38b3dab1fbc" target="_top" xlink:title="estimate">
<polygon fill="#ffffff" stroke="#000000" points="524.5,-50 524.5,-69 578.5,-69 578.5,-50 524.5,-50"/>
<text text-anchor="middle" x="551.5" y="-57" font-family="Helvetica,sans-Serif" font-size="10.00" fill="#000000">estimate</text>
</a>
</g>
</g>
<!-- Node1904&#45;&gt;Node1905 -->
<g id="edge7" class="edge">
<title>Node1904&#45;&gt;Node1905</title>
<path fill="none" stroke="#191970" d="M462.2959,-46.195C479.8667,-48.8157 498.6629,-51.6192 514.4486,-53.9737"/>
<polygon fill="#191970" stroke="#191970" points="513.9373,-57.4361 524.3442,-55.4496 514.97,-50.5126 513.9373,-57.4361"/>
</g>
<!-- Node1906 -->
<g id="node9" class="node">
<title>Node1906</title>
<g id="a_node9"><a xlink:href="triangle_8cpp.html#a37646a7e0014e10c612e946bc95aeeea" target="_top" xlink:title="fast_expansion_sum\l_zeroelim">
<polygon fill="#ffffff" stroke="#000000" points="498,-.5 498,-30.5 605,-30.5 605,-.5 498,-.5"/>
<text text-anchor="start" x="506" y="-18.5" font-family="Helvetica,sans-Serif" font-size="10.00" fill="#000000">fast_expansion_sum</text>
<text text-anchor="middle" x="551.5" y="-7.5" font-family="Helvetica,sans-Serif" font-size="10.00" fill="#000000">_zeroelim</text>
</a>
</g>
</g>
<!-- Node1904&#45;&gt;Node1906 -->
<g id="edge8" class="edge">
<title>Node1904&#45;&gt;Node1906</title>
<path fill="none" stroke="#191970" d="M462.2959,-28.805C470.746,-27.5447 479.4795,-26.242 488.0252,-24.9674"/>
<polygon fill="#191970" stroke="#191970" points="488.5685,-28.4252 497.9428,-23.4882 487.5358,-21.5018 488.5685,-28.4252"/>
</g>
</g>
</svg>
