<?xml version="1.0" encoding="UTF-8" standalone="no"?>
<!DOCTYPE svg PUBLIC "-//W3C//DTD SVG 1.1//EN"
 "http://www.w3.org/Graphics/SVG/1.1/DTD/svg11.dtd">
<!-- Generated by graphviz version 2.40.1 (20161225.0304)
 -->
<!-- Title: poolalloc Pages: 1 -->
<svg width="229pt" height="28pt"
 viewBox="0.00 0.00 229.00 28.00" xmlns="http://www.w3.org/2000/svg" xmlns:xlink="http://www.w3.org/1999/xlink">
<g id="graph0" class="graph" transform="scale(1 1) rotate(0) translate(4 24)">
<title>poolalloc</title>
<polygon fill="#ffffff" stroke="transparent" points="-4,4 -4,-24 225,-24 225,4 -4,4"/>
<!-- Node272 -->
<g id="node1" class="node">
<title>Node272</title>
<polygon fill="#bfbfbf" stroke="#000000" points="0,-.5 0,-19.5 55,-19.5 55,-.5 0,-.5"/>
<text text-anchor="middle" x="27.5" y="-7.5" font-family="Helvetica,sans-Serif" font-size="10.00" fill="#000000">poolalloc</text>
</g>
<!-- Node273 -->
<g id="node2" class="node">
<title>Node273</title>
<g id="a_node2"><a xlink:href="triangle_8cpp.html#a5f51f1d3957615b2c84a91fd9f5f09bf" target="_top" xlink:title="trimalloc">
<polygon fill="#ffffff" stroke="#000000" points="91,-.5 91,-19.5 144,-19.5 144,-.5 91,-.5"/>
<text text-anchor="middle" x="117.5" y="-7.5" font-family="Helvetica,sans-Serif" font-size="10.00" fill="#000000">trimalloc</text>
</a>
</g>
</g>
<!-- Node272&#45;&gt;Node273 -->
<g id="edge1" class="edge">
<title>Node272&#45;&gt;Node273</title>
<path fill="none" stroke="#191970" d="M55.4832,-10C63.4806,-10 72.3188,-10 80.7561,-10"/>
<polygon fill="#191970" stroke="#191970" points="80.7655,-13.5001 90.7654,-10 80.7654,-6.5001 80.7655,-13.5001"/>
</g>
<!-- Node274 -->
<g id="node3" class="node">
<title>Node274</title>
<g id="a_node3"><a xlink:href="triangle_8cpp.html#a648abfc70d158485620dbcb9aa990178" target="_top" xlink:title="triexit">
<polygon fill="#ffffff" stroke="#000000" points="180,-.5 180,-19.5 221,-19.5 221,-.5 180,-.5"/>
<text text-anchor="middle" x="200.5" y="-7.5" font-family="Helvetica,sans-Serif" font-size="10.00" fill="#000000">triexit</text>
</a>
</g>
</g>
<!-- Node273&#45;&gt;Node274 -->
<g id="edge2" class="edge">
<title>Node273&#45;&gt;Node274</title>
<path fill="none" stroke="#191970" d="M144.2186,-10C152.3489,-10 161.3499,-10 169.7251,-10"/>
<polygon fill="#191970" stroke="#191970" points="169.8865,-13.5001 179.8865,-10 169.8865,-6.5001 169.8865,-13.5001"/>
</g>
</g>
</svg>
