<?xml version="1.0" encoding="UTF-8" standalone="no"?>
<!DOCTYPE svg PUBLIC "-//W3C//DTD SVG 1.1//EN"
 "http://www.w3.org/Graphics/SVG/1.1/DTD/svg11.dtd">
<!-- Generated by graphviz version 2.40.1 (20161225.0304)
 -->
<!-- Title: writenodes Pages: 1 -->
<svg width="275pt" height="104pt"
 viewBox="0.00 0.00 275.00 104.00" xmlns="http://www.w3.org/2000/svg" xmlns:xlink="http://www.w3.org/1999/xlink">
<g id="graph0" class="graph" transform="scale(1 1) rotate(0) translate(4 100)">
<title>writenodes</title>
<polygon fill="#ffffff" stroke="transparent" points="-4,4 -4,-100 271,-100 271,4 -4,4"/>
<!-- Node1900 -->
<g id="node1" class="node">
<title>Node1900</title>
<polygon fill="#bfbfbf" stroke="#000000" points="0,-38.5 0,-57.5 64,-57.5 64,-38.5 0,-38.5"/>
<text text-anchor="middle" x="32" y="-45.5" font-family="Helvetica,sans-Serif" font-size="10.00" fill="#000000">writenodes</text>
</g>
<!-- Node1901 -->
<g id="node2" class="node">
<title>Node1901</title>
<g id="a_node2"><a xlink:href="triangle_8cpp.html#a5f51f1d3957615b2c84a91fd9f5f09bf" target="_top" xlink:title="trimalloc">
<polygon fill="#ffffff" stroke="#000000" points="113,-76.5 113,-95.5 166,-95.5 166,-76.5 113,-76.5"/>
<text text-anchor="middle" x="139.5" y="-83.5" font-family="Helvetica,sans-Serif" font-size="10.00" fill="#000000">trimalloc</text>
</a>
</g>
</g>
<!-- Node1900&#45;&gt;Node1901 -->
<g id="edge1" class="edge">
<title>Node1900&#45;&gt;Node1901</title>
<path fill="none" stroke="#191970" d="M59.1268,-57.589C72.4685,-62.3052 88.7381,-68.0562 103.1405,-73.1474"/>
<polygon fill="#191970" stroke="#191970" points="102.1595,-76.5127 112.7543,-76.5457 104.4925,-69.9129 102.1595,-76.5127"/>
</g>
<!-- Node1903 -->
<g id="node4" class="node">
<title>Node1903</title>
<g id="a_node4"><a xlink:href="triangle_8cpp.html#ac497210bc9192d88ed80659833ba5f55" target="_top" xlink:title="traversalinit">
<polygon fill="#ffffff" stroke="#000000" points="106,-38.5 106,-57.5 173,-57.5 173,-38.5 106,-38.5"/>
<text text-anchor="middle" x="139.5" y="-45.5" font-family="Helvetica,sans-Serif" font-size="10.00" fill="#000000">traversalinit</text>
</a>
</g>
</g>
<!-- Node1900&#45;&gt;Node1903 -->
<g id="edge3" class="edge">
<title>Node1900&#45;&gt;Node1903</title>
<path fill="none" stroke="#191970" d="M64.2535,-48C74.0869,-48 85.0696,-48 95.5394,-48"/>
<polygon fill="#191970" stroke="#191970" points="95.7767,-51.5001 105.7767,-48 95.7766,-44.5001 95.7767,-51.5001"/>
</g>
<!-- Node1904 -->
<g id="node5" class="node">
<title>Node1904</title>
<g id="a_node5"><a xlink:href="triangle_8cpp.html#a51f4784502224728d80a16b668f17014" target="_top" xlink:title="vertextraverse">
<polygon fill="#ffffff" stroke="#000000" points="100,-.5 100,-19.5 179,-19.5 179,-.5 100,-.5"/>
<text text-anchor="middle" x="139.5" y="-7.5" font-family="Helvetica,sans-Serif" font-size="10.00" fill="#000000">vertextraverse</text>
</a>
</g>
</g>
<!-- Node1900&#45;&gt;Node1904 -->
<g id="edge4" class="edge">
<title>Node1900&#45;&gt;Node1904</title>
<path fill="none" stroke="#191970" d="M59.1268,-38.411C72.3674,-33.7306 88.4917,-28.0308 102.8129,-22.9685"/>
<polygon fill="#191970" stroke="#191970" points="104.1201,-26.2187 112.3819,-19.5859 101.7871,-19.6189 104.1201,-26.2187"/>
</g>
<!-- Node1902 -->
<g id="node3" class="node">
<title>Node1902</title>
<g id="a_node3"><a xlink:href="triangle_8cpp.html#a648abfc70d158485620dbcb9aa990178" target="_top" xlink:title="triexit">
<polygon fill="#ffffff" stroke="#000000" points="220.5,-76.5 220.5,-95.5 261.5,-95.5 261.5,-76.5 220.5,-76.5"/>
<text text-anchor="middle" x="241" y="-83.5" font-family="Helvetica,sans-Serif" font-size="10.00" fill="#000000">triexit</text>
</a>
</g>
</g>
<!-- Node1901&#45;&gt;Node1902 -->
<g id="edge2" class="edge">
<title>Node1901&#45;&gt;Node1902</title>
<path fill="none" stroke="#191970" d="M166.1679,-86C179.6478,-86 196.0785,-86 210.1063,-86"/>
<polygon fill="#191970" stroke="#191970" points="210.2764,-89.5001 220.2764,-86 210.2763,-82.5001 210.2764,-89.5001"/>
</g>
<!-- Node1905 -->
<g id="node6" class="node">
<title>Node1905</title>
<g id="a_node6"><a xlink:href="triangle_8cpp.html#a908560980328e10c897c5c34bb733e9d" target="_top" xlink:title="traverse">
<polygon fill="#ffffff" stroke="#000000" points="215,-.5 215,-19.5 267,-19.5 267,-.5 215,-.5"/>
<text text-anchor="middle" x="241" y="-7.5" font-family="Helvetica,sans-Serif" font-size="10.00" fill="#000000">traverse</text>
</a>
</g>
</g>
<!-- Node1904&#45;&gt;Node1905 -->
<g id="edge5" class="edge">
<title>Node1904&#45;&gt;Node1905</title>
<path fill="none" stroke="#191970" d="M179.0332,-10C187.487,-10 196.378,-10 204.7029,-10"/>
<polygon fill="#191970" stroke="#191970" points="204.8695,-13.5001 214.8695,-10 204.8694,-6.5001 204.8695,-13.5001"/>
</g>
</g>
</svg>
