<?xml version="1.0" encoding="UTF-8" standalone="no"?>
<!DOCTYPE svg PUBLIC "-//W3C//DTD SVG 1.1//EN"
 "http://www.w3.org/Graphics/SVG/1.1/DTD/svg11.dtd">
<!-- Generated by graphviz version 2.40.1 (20161225.0304)
 -->
<!-- Title: /home/oleg/Dev/riversim/source/river/triangle.cpp Pages: 1 -->
<svg width="545pt" height="263pt"
 viewBox="0.00 0.00 545.00 263.00" xmlns="http://www.w3.org/2000/svg" xmlns:xlink="http://www.w3.org/1999/xlink">
<g id="graph0" class="graph" transform="scale(1 1) rotate(0) translate(4 259)">
<title>/home/oleg/Dev/riversim/source/river/triangle.cpp</title>
<polygon fill="#ffffff" stroke="transparent" points="-4,4 -4,-259 541,-259 541,4 -4,4"/>
<!-- Node0 -->
<g id="node1" class="node">
<title>Node0</title>
<polygon fill="#bfbfbf" stroke="#000000" points="93,-224.5 93,-254.5 217,-254.5 217,-224.5 93,-224.5"/>
<text text-anchor="start" x="101" y="-242.5" font-family="Helvetica,sans-Serif" font-size="10.00" fill="#000000">/home/oleg/Dev/riversim</text>
<text text-anchor="middle" x="155" y="-231.5" font-family="Helvetica,sans-Serif" font-size="10.00" fill="#000000">/source/river/triangle.cpp</text>
</g>
<!-- Node1 -->
<g id="node2" class="node">
<title>Node1</title>
<polygon fill="#ffffff" stroke="#bfbfbf" points="0,-168.5 0,-187.5 46,-187.5 46,-168.5 0,-168.5"/>
<text text-anchor="middle" x="23" y="-175.5" font-family="Helvetica,sans-Serif" font-size="10.00" fill="#000000">stdio.h</text>
</g>
<!-- Node0&#45;&gt;Node1 -->
<g id="edge1" class="edge">
<title>Node0&#45;&gt;Node1</title>
<path fill="none" stroke="#191970" d="M122.7092,-224.4554C101.3608,-214.509 73.5804,-201.5659 52.7667,-191.8686"/>
<polygon fill="#191970" stroke="#191970" points="53.9979,-188.581 43.4553,-187.5303 51.0416,-194.9262 53.9979,-188.581"/>
</g>
<!-- Node2 -->
<g id="node3" class="node">
<title>Node2</title>
<polygon fill="#ffffff" stroke="#bfbfbf" points="64,-168.5 64,-187.5 112,-187.5 112,-168.5 64,-168.5"/>
<text text-anchor="middle" x="88" y="-175.5" font-family="Helvetica,sans-Serif" font-size="10.00" fill="#000000">stdlib.h</text>
</g>
<!-- Node0&#45;&gt;Node2 -->
<g id="edge2" class="edge">
<title>Node0&#45;&gt;Node2</title>
<path fill="none" stroke="#191970" d="M138.4382,-224.2977C128.6535,-215.3163 116.2526,-203.9334 106.1957,-194.702"/>
<polygon fill="#191970" stroke="#191970" points="108.4613,-192.0307 98.7275,-187.8469 103.7278,-197.1876 108.4613,-192.0307"/>
</g>
<!-- Node3 -->
<g id="node4" class="node">
<title>Node3</title>
<polygon fill="#ffffff" stroke="#bfbfbf" points="130.5,-168.5 130.5,-187.5 179.5,-187.5 179.5,-168.5 130.5,-168.5"/>
<text text-anchor="middle" x="155" y="-175.5" font-family="Helvetica,sans-Serif" font-size="10.00" fill="#000000">string.h</text>
</g>
<!-- Node0&#45;&gt;Node3 -->
<g id="edge3" class="edge">
<title>Node0&#45;&gt;Node3</title>
<path fill="none" stroke="#191970" d="M155,-224.2977C155,-216.3834 155,-206.6043 155,-198.0759"/>
<polygon fill="#191970" stroke="#191970" points="158.5001,-197.8469 155,-187.8469 151.5001,-197.847 158.5001,-197.8469"/>
</g>
<!-- Node4 -->
<g id="node5" class="node">
<title>Node4</title>
<polygon fill="#ffffff" stroke="#bfbfbf" points="117.5,-56.5 117.5,-75.5 164.5,-75.5 164.5,-56.5 117.5,-56.5"/>
<text text-anchor="middle" x="141" y="-63.5" font-family="Helvetica,sans-Serif" font-size="10.00" fill="#000000">math.h</text>
</g>
<!-- Node0&#45;&gt;Node4 -->
<g id="edge4" class="edge">
<title>Node0&#45;&gt;Node4</title>
<path fill="none" stroke="#191970" d="M167.9535,-224.4249C175.4093,-214.7239 184.0599,-201.452 188,-188 190.4986,-179.4695 189.9042,-176.6825 188,-168 181.18,-136.9027 163.9397,-103.9795 152.3461,-84.2103"/>
<polygon fill="#191970" stroke="#191970" points="155.3352,-82.3894 147.1786,-75.6277 149.3383,-86.0001 155.3352,-82.3894"/>
</g>
<!-- Node5 -->
<g id="node6" class="node">
<title>Node5</title>
<g id="a_node6"><a xlink:href="triangle_8hpp.html" target="_top" xlink:title="Piece of Art Mesh Generation Tool, Winner of the 2003 James Hardy Wilkinson Prize in Numerical Softwa...">
<polygon fill="#ffffff" stroke="#000000" points="274.5,-168.5 274.5,-187.5 341.5,-187.5 341.5,-168.5 274.5,-168.5"/>
<text text-anchor="middle" x="308" y="-175.5" font-family="Helvetica,sans-Serif" font-size="10.00" fill="#000000">triangle.hpp</text>
</a>
</g>
</g>
<!-- Node0&#45;&gt;Node5 -->
<g id="edge5" class="edge">
<title>Node0&#45;&gt;Node5</title>
<path fill="none" stroke="#191970" d="M192.428,-224.4554C217.6206,-214.329 250.5407,-201.0964 274.7996,-191.3453"/>
<polygon fill="#191970" stroke="#191970" points="276.3173,-194.5074 284.2904,-187.5303 273.7066,-188.0125 276.3173,-194.5074"/>
</g>
<!-- Node6 -->
<g id="node7" class="node">
<title>Node6</title>
<polygon fill="#ffffff" stroke="#bfbfbf" points="493,-.5 493,-19.5 537,-19.5 537,-.5 493,-.5"/>
<text text-anchor="middle" x="515" y="-7.5" font-family="Helvetica,sans-Serif" font-size="10.00" fill="#000000">vector</text>
</g>
<!-- Node5&#45;&gt;Node6 -->
<g id="edge6" class="edge">
<title>Node5&#45;&gt;Node6</title>
<path fill="none" stroke="#191970" d="M341.7824,-171.9976C389.029,-161.6201 473.3772,-135.4312 512,-76 520.7787,-62.4917 520.8276,-43.9392 519.0834,-29.9436"/>
<polygon fill="#191970" stroke="#191970" points="522.5052,-29.1813 517.4327,-19.8797 515.5976,-30.3144 522.5052,-29.1813"/>
</g>
<!-- Node7 -->
<g id="node8" class="node">
<title>Node7</title>
<g id="a_node8"><a xlink:href="physmodel_8hpp.html" target="_top" xlink:title="Physical model incapsulation. ">
<polygon fill="#ffffff" stroke="#000000" points="266.5,-112.5 266.5,-131.5 349.5,-131.5 349.5,-112.5 266.5,-112.5"/>
<text text-anchor="middle" x="308" y="-119.5" font-family="Helvetica,sans-Serif" font-size="10.00" fill="#000000">physmodel.hpp</text>
</a>
</g>
</g>
<!-- Node5&#45;&gt;Node7 -->
<g id="edge7" class="edge">
<title>Node5&#45;&gt;Node7</title>
<path fill="none" stroke="#191970" d="M308,-168.2455C308,-160.9382 308,-150.6944 308,-141.7046"/>
<polygon fill="#191970" stroke="#191970" points="311.5001,-141.6426 308,-131.6427 304.5001,-141.6427 311.5001,-141.6426"/>
</g>
<!-- Node7&#45;&gt;Node4 -->
<g id="edge11" class="edge">
<title>Node7&#45;&gt;Node4</title>
<path fill="none" stroke="#191970" d="M279.2917,-112.3733C250.218,-102.624 205.2771,-87.554 174.5716,-77.2575"/>
<polygon fill="#191970" stroke="#191970" points="175.3415,-73.8242 164.7476,-73.9633 173.116,-80.461 175.3415,-73.8242"/>
</g>
<!-- Node8 -->
<g id="node9" class="node">
<title>Node8</title>
<polygon fill="#ffffff" stroke="#bfbfbf" points="405,-.5 405,-19.5 459,-19.5 459,-.5 405,-.5"/>
<text text-anchor="middle" x="432" y="-7.5" font-family="Helvetica,sans-Serif" font-size="10.00" fill="#000000">iostream</text>
</g>
<!-- Node7&#45;&gt;Node8 -->
<g id="edge8" class="edge">
<title>Node7&#45;&gt;Node8</title>
<path fill="none" stroke="#191970" d="M327.5657,-112.401C343.3087,-104.1022 365.4568,-91.0847 382,-76 397.3624,-61.992 411.325,-42.7469 420.5664,-28.6528"/>
<polygon fill="#191970" stroke="#191970" points="423.7545,-30.162 426.1692,-19.846 417.8484,-26.4046 423.7545,-30.162"/>
</g>
<!-- Node9 -->
<g id="node10" class="node">
<title>Node9</title>
<polygon fill="#ffffff" stroke="#bfbfbf" points="183,-56.5 183,-75.5 227,-75.5 227,-56.5 183,-56.5"/>
<text text-anchor="middle" x="205" y="-63.5" font-family="Helvetica,sans-Serif" font-size="10.00" fill="#000000">cmath</text>
</g>
<!-- Node7&#45;&gt;Node9 -->
<g id="edge9" class="edge">
<title>Node7&#45;&gt;Node9</title>
<path fill="none" stroke="#191970" d="M290.0588,-112.2455C273.96,-103.4928 250.1121,-90.527 231.7609,-80.5496"/>
<polygon fill="#191970" stroke="#191970" points="233.1929,-77.3444 222.7356,-75.6427 229.8493,-83.4942 233.1929,-77.3444"/>
</g>
<!-- Node10 -->
<g id="node11" class="node">
<title>Node10</title>
<polygon fill="#ffffff" stroke="#bfbfbf" points="245.5,-56.5 245.5,-75.5 298.5,-75.5 298.5,-56.5 245.5,-56.5"/>
<text text-anchor="middle" x="272" y="-63.5" font-family="Helvetica,sans-Serif" font-size="10.00" fill="#000000">complex</text>
</g>
<!-- Node7&#45;&gt;Node10 -->
<g id="edge10" class="edge">
<title>Node7&#45;&gt;Node10</title>
<path fill="none" stroke="#191970" d="M301.7293,-112.2455C296.7736,-104.5367 289.717,-93.5598 283.7224,-84.2348"/>
<polygon fill="#191970" stroke="#191970" points="286.5506,-82.1618 278.1989,-75.6427 280.6624,-85.9471 286.5506,-82.1618"/>
</g>
<!-- Node11 -->
<g id="node12" class="node">
<title>Node11</title>
<polygon fill="#ffffff" stroke="#bfbfbf" points="317,-56.5 317,-75.5 373,-75.5 373,-56.5 317,-56.5"/>
<text text-anchor="middle" x="345" y="-63.5" font-family="Helvetica,sans-Serif" font-size="10.00" fill="#000000">algorithm</text>
</g>
<!-- Node7&#45;&gt;Node11 -->
<g id="edge12" class="edge">
<title>Node7&#45;&gt;Node11</title>
<path fill="none" stroke="#191970" d="M314.4449,-112.2455C319.5382,-104.5367 326.7908,-93.5598 332.952,-84.2348"/>
<polygon fill="#191970" stroke="#191970" points="336.0365,-85.9155 338.6289,-75.6427 330.1962,-82.0566 336.0365,-85.9155"/>
</g>
<!-- Node12 -->
<g id="node13" class="node">
<title>Node12</title>
<g id="a_node13"><a xlink:href="common_8hpp.html" target="_top" xlink:title="Common geometric entities to whole program. ">
<polygon fill="#ffffff" stroke="#000000" points="429.5,-56.5 429.5,-75.5 502.5,-75.5 502.5,-56.5 429.5,-56.5"/>
<text text-anchor="middle" x="466" y="-63.5" font-family="Helvetica,sans-Serif" font-size="10.00" fill="#000000">common.hpp</text>
</a>
</g>
</g>
<!-- Node7&#45;&gt;Node12 -->
<g id="edge13" class="edge">
<title>Node7&#45;&gt;Node12</title>
<path fill="none" stroke="#191970" d="M335.1612,-112.3733C361.2067,-103.1419 400.7116,-89.1402 429.4979,-78.9375"/>
<polygon fill="#191970" stroke="#191970" points="430.937,-82.1408 439.1933,-75.5011 428.5985,-75.5429 430.937,-82.1408"/>
</g>
<!-- Node12&#45;&gt;Node6 -->
<g id="edge14" class="edge">
<title>Node12&#45;&gt;Node6</title>
<path fill="none" stroke="#191970" d="M474.5351,-56.2455C481.4912,-48.2958 491.4883,-36.8706 499.8051,-27.3656"/>
<polygon fill="#191970" stroke="#191970" points="502.6116,-29.4732 506.5627,-19.6427 497.3436,-24.8637 502.6116,-29.4732"/>
</g>
<!-- Node12&#45;&gt;Node8 -->
<g id="edge15" class="edge">
<title>Node12&#45;&gt;Node8</title>
<path fill="none" stroke="#191970" d="M460.0777,-56.2455C455.3973,-48.5367 448.7327,-37.5598 443.0711,-28.2348"/>
<polygon fill="#191970" stroke="#191970" points="446.0361,-26.3741 437.8545,-19.6427 440.0525,-30.007 446.0361,-26.3741"/>
</g>
</g>
</svg>
