<?xml version="1.0" encoding="UTF-8" standalone="no"?>
<!DOCTYPE svg PUBLIC "-//W3C//DTD SVG 1.1//EN"
 "http://www.w3.org/Graphics/SVG/1.1/DTD/svg11.dtd">
<!-- Generated by graphviz version 2.40.1 (20161225.0304)
 -->
<!-- Title: infecthull Pages: 1 -->
<svg width="496pt" height="28pt"
 viewBox="0.00 0.00 496.00 28.00" xmlns="http://www.w3.org/2000/svg" xmlns:xlink="http://www.w3.org/1999/xlink">
<g id="graph0" class="graph" transform="scale(1 1) rotate(0) translate(4 24)">
<title>infecthull</title>
<polygon fill="#ffffff" stroke="transparent" points="-4,4 -4,-24 492,-24 492,4 -4,4"/>
<!-- Node1559 -->
<g id="node1" class="node">
<title>Node1559</title>
<polygon fill="#bfbfbf" stroke="#000000" points="0,-.5 0,-19.5 56,-19.5 56,-.5 0,-.5"/>
<text text-anchor="middle" x="28" y="-7.5" font-family="Helvetica,sans-Serif" font-size="10.00" fill="#000000">infecthull</text>
</g>
<!-- Node1560 -->
<g id="node2" class="node">
<title>Node1560</title>
<g id="a_node2"><a xlink:href="triangle_8cpp.html#aa0ba1198ac22df6403aeaa25b4ebbe37" target="_top" xlink:title="carveholes">
<polygon fill="#ffffff" stroke="#000000" points="92,-.5 92,-19.5 156,-19.5 156,-.5 92,-.5"/>
<text text-anchor="middle" x="124" y="-7.5" font-family="Helvetica,sans-Serif" font-size="10.00" fill="#000000">carveholes</text>
</a>
</g>
</g>
<!-- Node1559&#45;&gt;Node1560 -->
<g id="edge1" class="edge">
<title>Node1559&#45;&gt;Node1560</title>
<path fill="none" stroke="#191970" d="M66.0853,-10C74.5704,-10 83.4877,-10 91.7131,-10"/>
<polygon fill="#191970" stroke="#191970" points="66.0253,-6.5001 56.0252,-10 66.0252,-13.5001 66.0253,-6.5001"/>
</g>
<!-- Node1561 -->
<g id="node3" class="node">
<title>Node1561</title>
<g id="a_node3"><a xlink:href="triangle_8hpp.html#a848df2990f66cdbdc9d1ac87f4646527" target="_top" xlink:title="Call Triangle. ">
<polygon fill="#ffffff" stroke="#000000" points="192,-.5 192,-19.5 254,-19.5 254,-.5 192,-.5"/>
<text text-anchor="middle" x="223" y="-7.5" font-family="Helvetica,sans-Serif" font-size="10.00" fill="#000000">triangulate</text>
</a>
</g>
</g>
<!-- Node1560&#45;&gt;Node1561 -->
<g id="edge2" class="edge">
<title>Node1560&#45;&gt;Node1561</title>
<path fill="none" stroke="#191970" d="M166.3157,-10C174.831,-10 183.636,-10 191.6938,-10"/>
<polygon fill="#191970" stroke="#191970" points="166.1425,-6.5001 156.1425,-10 166.1424,-13.5001 166.1425,-6.5001"/>
</g>
<!-- Node1562 -->
<g id="node4" class="node">
<title>Node1562</title>
<g id="a_node4"><a xlink:href="classRiver_1_1Triangle.html#a7bc9c5a5297dee136ab1489a923182dd" target="_top" xlink:title="Generate mesh. ">
<polygon fill="#ffffff" stroke="#000000" points="290,-.5 290,-19.5 414,-19.5 414,-.5 290,-.5"/>
<text text-anchor="middle" x="352" y="-7.5" font-family="Helvetica,sans-Serif" font-size="10.00" fill="#000000">River::Triangle::generate</text>
</a>
</g>
</g>
<!-- Node1561&#45;&gt;Node1562 -->
<g id="edge3" class="edge">
<title>Node1561&#45;&gt;Node1562</title>
<path fill="none" stroke="#191970" d="M264.2629,-10C272.4682,-10 281.2527,-10 289.9767,-10"/>
<polygon fill="#191970" stroke="#191970" points="264.2273,-6.5001 254.2273,-10 264.2273,-13.5001 264.2273,-6.5001"/>
</g>
<!-- Node1563 -->
<g id="node5" class="node">
<title>Node1563</title>
<g id="a_node5"><a xlink:href="main_8cpp.html#a0ddf1224851353fc92bfbff6f499fa97" target="_top" xlink:title="Entry point of RiverSim program. ">
<polygon fill="#ffffff" stroke="#000000" points="450,-.5 450,-19.5 488,-19.5 488,-.5 450,-.5"/>
<text text-anchor="middle" x="469" y="-7.5" font-family="Helvetica,sans-Serif" font-size="10.00" fill="#000000">main</text>
</a>
</g>
</g>
<!-- Node1562&#45;&gt;Node1563 -->
<g id="edge4" class="edge">
<title>Node1562&#45;&gt;Node1563</title>
<path fill="none" stroke="#191970" d="M424.5174,-10C433.8253,-10 442.6301,-10 449.912,-10"/>
<polygon fill="#191970" stroke="#191970" points="424.2682,-6.5001 414.2682,-10 424.2682,-13.5001 424.2682,-6.5001"/>
</g>
</g>
</svg>
