<?xml version="1.0" encoding="UTF-8" standalone="no"?>
<!DOCTYPE svg PUBLIC "-//W3C//DTD SVG 1.1//EN"
 "http://www.w3.org/Graphics/SVG/1.1/DTD/svg11.dtd">
<!-- Generated by graphviz version 2.40.1 (20161225.0304)
 -->
<!-- Title: triangulate Pages: 1 -->
<svg width="304pt" height="28pt"
 viewBox="0.00 0.00 304.00 28.00" xmlns="http://www.w3.org/2000/svg" xmlns:xlink="http://www.w3.org/1999/xlink">
<g id="graph0" class="graph" transform="scale(1 1) rotate(0) translate(4 24)">
<title>triangulate</title>
<polygon fill="#ffffff" stroke="transparent" points="-4,4 -4,-24 300,-24 300,4 -4,4"/>
<!-- Node2007 -->
<g id="node1" class="node">
<title>Node2007</title>
<polygon fill="#bfbfbf" stroke="#000000" points="0,-.5 0,-19.5 62,-19.5 62,-.5 0,-.5"/>
<text text-anchor="middle" x="31" y="-7.5" font-family="Helvetica,sans-Serif" font-size="10.00" fill="#000000">triangulate</text>
</g>
<!-- Node2008 -->
<g id="node2" class="node">
<title>Node2008</title>
<g id="a_node2"><a xlink:href="classRiver_1_1Triangle.html#a7bc9c5a5297dee136ab1489a923182dd" target="_top" xlink:title="Generate mesh. ">
<polygon fill="#ffffff" stroke="#000000" points="98,-.5 98,-19.5 222,-19.5 222,-.5 98,-.5"/>
<text text-anchor="middle" x="160" y="-7.5" font-family="Helvetica,sans-Serif" font-size="10.00" fill="#000000">River::Triangle::generate</text>
</a>
</g>
</g>
<!-- Node2007&#45;&gt;Node2008 -->
<g id="edge1" class="edge">
<title>Node2007&#45;&gt;Node2008</title>
<path fill="none" stroke="#191970" d="M72.2629,-10C80.4682,-10 89.2527,-10 97.9767,-10"/>
<polygon fill="#191970" stroke="#191970" points="72.2273,-6.5001 62.2273,-10 72.2273,-13.5001 72.2273,-6.5001"/>
</g>
<!-- Node2009 -->
<g id="node3" class="node">
<title>Node2009</title>
<g id="a_node3"><a xlink:href="main_8cpp.html#a0ddf1224851353fc92bfbff6f499fa97" target="_top" xlink:title="Entry point of RiverSim program. ">
<polygon fill="#ffffff" stroke="#000000" points="258,-.5 258,-19.5 296,-19.5 296,-.5 258,-.5"/>
<text text-anchor="middle" x="277" y="-7.5" font-family="Helvetica,sans-Serif" font-size="10.00" fill="#000000">main</text>
</a>
</g>
</g>
<!-- Node2008&#45;&gt;Node2009 -->
<g id="edge2" class="edge">
<title>Node2008&#45;&gt;Node2009</title>
<path fill="none" stroke="#191970" d="M232.5174,-10C241.8253,-10 250.6301,-10 257.912,-10"/>
<polygon fill="#191970" stroke="#191970" points="232.2682,-6.5001 222.2682,-10 232.2682,-13.5001 232.2682,-6.5001"/>
</g>
</g>
</svg>
