<?xml version="1.0" encoding="UTF-8" standalone="no"?>
<!DOCTYPE svg PUBLIC "-//W3C//DTD SVG 1.1//EN"
 "http://www.w3.org/Graphics/SVG/1.1/DTD/svg11.dtd">
<!-- Generated by graphviz version 2.40.1 (20161225.0304)
 -->
<!-- Title: triangleinit Pages: 1 -->
<svg width="582pt" height="28pt"
 viewBox="0.00 0.00 582.00 28.00" xmlns="http://www.w3.org/2000/svg" xmlns:xlink="http://www.w3.org/1999/xlink">
<g id="graph0" class="graph" transform="scale(1 1) rotate(0) translate(4 24)">
<title>triangleinit</title>
<polygon fill="#ffffff" stroke="transparent" points="-4,4 -4,-24 578,-24 578,4 -4,4"/>
<!-- Node860 -->
<g id="node1" class="node">
<title>Node860</title>
<polygon fill="#bfbfbf" stroke="#000000" points="0,-.5 0,-19.5 61,-19.5 61,-.5 0,-.5"/>
<text text-anchor="middle" x="30.5" y="-7.5" font-family="Helvetica,sans-Serif" font-size="10.00" fill="#000000">triangleinit</text>
</g>
<!-- Node861 -->
<g id="node2" class="node">
<title>Node861</title>
<g id="a_node2"><a xlink:href="triangle_8hpp.html#a4ca59bf5fe569672944651426b662ba6" target="_top" xlink:title="Call Triangle. ">
<polygon fill="#ffffff" stroke="#000000" points="97,-.5 97,-19.5 159,-19.5 159,-.5 97,-.5"/>
<text text-anchor="middle" x="128" y="-7.5" font-family="Helvetica,sans-Serif" font-size="10.00" fill="#000000">triangulate</text>
</a>
</g>
</g>
<!-- Node860&#45;&gt;Node861 -->
<g id="edge1" class="edge">
<title>Node860&#45;&gt;Node861</title>
<path fill="none" stroke="#191970" d="M71.2756,-10C79.8294,-10 88.72,-10 96.8551,-10"/>
<polygon fill="#191970" stroke="#191970" points="71.0821,-6.5001 61.0821,-10 71.0821,-13.5001 71.0821,-6.5001"/>
</g>
<!-- Node862 -->
<g id="node3" class="node">
<title>Node862</title>
<g id="a_node3"><a xlink:href="classRiver_1_1Triangle.html#a0dae20b40d446e6009a88543e2c14daf" target="_top" xlink:title="Generate mesh. ">
<polygon fill="#ffffff" stroke="#000000" points="195,-.5 195,-19.5 319,-19.5 319,-.5 195,-.5"/>
<text text-anchor="middle" x="257" y="-7.5" font-family="Helvetica,sans-Serif" font-size="10.00" fill="#000000">River::Triangle::generate</text>
</a>
</g>
</g>
<!-- Node861&#45;&gt;Node862 -->
<g id="edge2" class="edge">
<title>Node861&#45;&gt;Node862</title>
<path fill="none" stroke="#191970" d="M169.2629,-10C177.4682,-10 186.2527,-10 194.9767,-10"/>
<polygon fill="#191970" stroke="#191970" points="169.2273,-6.5001 159.2273,-10 169.2273,-13.5001 169.2273,-6.5001"/>
</g>
<!-- Node863 -->
<g id="node4" class="node">
<title>Node863</title>
<g id="a_node4"><a xlink:href="namespaceRiver.html#af1a3f7c61809dd8032e4ff5920da83cc" target="_top" xlink:title="One step of forward river evolution. ">
<polygon fill="#ffffff" stroke="#000000" points="355,-.5 355,-19.5 500,-19.5 500,-.5 355,-.5"/>
<text text-anchor="middle" x="427.5" y="-7.5" font-family="Helvetica,sans-Serif" font-size="10.00" fill="#000000">River::ForwardRiverEvolution</text>
</a>
</g>
</g>
<!-- Node862&#45;&gt;Node863 -->
<g id="edge3" class="edge">
<title>Node862&#45;&gt;Node863</title>
<path fill="none" stroke="#191970" d="M329.2431,-10C337.7006,-10 346.333,-10 354.7967,-10"/>
<polygon fill="#191970" stroke="#191970" points="329.0368,-6.5001 319.0367,-10 329.0367,-13.5001 329.0368,-6.5001"/>
</g>
<!-- Node864 -->
<g id="node5" class="node">
<title>Node864</title>
<g id="a_node5"><a xlink:href="main_8cpp.html#a0ddf1224851353fc92bfbff6f499fa97" target="_top" xlink:title="Entry point of RiverSim program. ">
<polygon fill="#ffffff" stroke="#000000" points="536,-.5 536,-19.5 574,-19.5 574,-.5 536,-.5"/>
<text text-anchor="middle" x="555" y="-7.5" font-family="Helvetica,sans-Serif" font-size="10.00" fill="#000000">main</text>
</a>
</g>
</g>
<!-- Node863&#45;&gt;Node864 -->
<g id="edge4" class="edge">
<title>Node863&#45;&gt;Node864</title>
<path fill="none" stroke="#191970" d="M510.2526,-10C519.7338,-10 528.5978,-10 535.8947,-10"/>
<polygon fill="#191970" stroke="#191970" points="510.1886,-6.5001 500.1886,-10 510.1885,-13.5001 510.1886,-6.5001"/>
</g>
</g>
</svg>
