<?xml version="1.0" encoding="UTF-8" standalone="no"?>
<!DOCTYPE svg PUBLIC "-//W3C//DTD SVG 1.1//EN"
 "http://www.w3.org/Graphics/SVG/1.1/DTD/svg11.dtd">
<!-- Generated by graphviz version 2.40.1 (20161225.0304)
 -->
<!-- Title: testtriangle Pages: 1 -->
<svg width="481pt" height="85pt"
 viewBox="0.00 0.00 481.00 85.00" xmlns="http://www.w3.org/2000/svg" xmlns:xlink="http://www.w3.org/1999/xlink">
<g id="graph0" class="graph" transform="scale(1 1) rotate(0) translate(4 81)">
<title>testtriangle</title>
<polygon fill="#ffffff" stroke="transparent" points="-4,4 -4,-81 477,-81 477,4 -4,4"/>
<!-- Node912 -->
<g id="node1" class="node">
<title>Node912</title>
<polygon fill="#bfbfbf" stroke="#000000" points="0,-19.5 0,-38.5 65,-38.5 65,-19.5 0,-19.5"/>
<text text-anchor="middle" x="32.5" y="-26.5" font-family="Helvetica,sans-Serif" font-size="10.00" fill="#000000">testtriangle</text>
</g>
<!-- Node913 -->
<g id="node2" class="node">
<title>Node913</title>
<g id="a_node2"><a xlink:href="triangle_8cpp.html#a6b67091e1472b3c8d48c8540148dc1a8" target="_top" xlink:title="enqueuebadtri">
<polygon fill="#ffffff" stroke="#000000" points="101,-38.5 101,-57.5 178,-57.5 178,-38.5 101,-38.5"/>
<text text-anchor="middle" x="139.5" y="-45.5" font-family="Helvetica,sans-Serif" font-size="10.00" fill="#000000">enqueuebadtri</text>
</a>
</g>
</g>
<!-- Node912&#45;&gt;Node913 -->
<g id="edge1" class="edge">
<title>Node912&#45;&gt;Node913</title>
<path fill="none" stroke="#191970" d="M65.1849,-34.8039C73.2245,-36.2314 82.007,-37.791 90.628,-39.3218"/>
<polygon fill="#191970" stroke="#191970" points="90.162,-42.7937 100.6199,-41.0961 91.3859,-35.9015 90.162,-42.7937"/>
</g>
<!-- Node918 -->
<g id="node7" class="node">
<title>Node918</title>
<g id="a_node7"><a xlink:href="triangle_8cpp.html#a435eb334f65dbd9268038e8881e24554" target="_top" xlink:title="triunsuitable">
<polygon fill="#ffffff" stroke="#000000" points="105,-.5 105,-19.5 174,-19.5 174,-.5 105,-.5"/>
<text text-anchor="middle" x="139.5" y="-7.5" font-family="Helvetica,sans-Serif" font-size="10.00" fill="#000000">triunsuitable</text>
</a>
</g>
</g>
<!-- Node912&#45;&gt;Node918 -->
<g id="edge6" class="edge">
<title>Node912&#45;&gt;Node918</title>
<path fill="none" stroke="#191970" d="M65.1849,-23.1961C74.4901,-21.5438 84.7906,-19.7147 94.684,-17.958"/>
<polygon fill="#191970" stroke="#191970" points="95.5539,-21.3584 104.7879,-16.1638 94.33,-14.4662 95.5539,-21.3584"/>
</g>
<!-- Node914 -->
<g id="node3" class="node">
<title>Node914</title>
<g id="a_node3"><a xlink:href="triangle_8cpp.html#ab1760445583959132ffd9998372c9aac" target="_top" xlink:title="poolalloc">
<polygon fill="#ffffff" stroke="#000000" points="233,-57.5 233,-76.5 288,-76.5 288,-57.5 233,-57.5"/>
<text text-anchor="middle" x="260.5" y="-64.5" font-family="Helvetica,sans-Serif" font-size="10.00" fill="#000000">poolalloc</text>
</a>
</g>
</g>
<!-- Node913&#45;&gt;Node914 -->
<g id="edge2" class="edge">
<title>Node913&#45;&gt;Node914</title>
<path fill="none" stroke="#191970" d="M178.1178,-54.064C192.4767,-56.3187 208.7362,-58.8718 222.994,-61.1106"/>
<polygon fill="#191970" stroke="#191970" points="222.5445,-64.5828 232.9664,-62.6765 223.6304,-57.6676 222.5445,-64.5828"/>
</g>
<!-- Node917 -->
<g id="node6" class="node">
<title>Node917</title>
<g id="a_node6"><a xlink:href="triangle_8cpp.html#a8b69474415bac9ddab3a5879974338b5" target="_top" xlink:title="enqueuebadtriang">
<polygon fill="#ffffff" stroke="#000000" points="214,-19.5 214,-38.5 307,-38.5 307,-19.5 214,-19.5"/>
<text text-anchor="middle" x="260.5" y="-26.5" font-family="Helvetica,sans-Serif" font-size="10.00" fill="#000000">enqueuebadtriang</text>
</a>
</g>
</g>
<!-- Node913&#45;&gt;Node917 -->
<g id="edge5" class="edge">
<title>Node913&#45;&gt;Node917</title>
<path fill="none" stroke="#191970" d="M178.1178,-41.936C186.2704,-40.6559 195.0357,-39.2795 203.6994,-37.9191"/>
<polygon fill="#191970" stroke="#191970" points="204.4445,-41.3451 213.7805,-36.3361 203.3585,-34.4298 204.4445,-41.3451"/>
</g>
<!-- Node915 -->
<g id="node4" class="node">
<title>Node915</title>
<g id="a_node4"><a xlink:href="triangle_8cpp.html#a5f51f1d3957615b2c84a91fd9f5f09bf" target="_top" xlink:title="trimalloc">
<polygon fill="#ffffff" stroke="#000000" points="343,-57.5 343,-76.5 396,-76.5 396,-57.5 343,-57.5"/>
<text text-anchor="middle" x="369.5" y="-64.5" font-family="Helvetica,sans-Serif" font-size="10.00" fill="#000000">trimalloc</text>
</a>
</g>
</g>
<!-- Node914&#45;&gt;Node915 -->
<g id="edge3" class="edge">
<title>Node914&#45;&gt;Node915</title>
<path fill="none" stroke="#191970" d="M288.0053,-67C301.5046,-67 317.9601,-67 332.5406,-67"/>
<polygon fill="#191970" stroke="#191970" points="332.7571,-70.5001 342.7571,-67 332.7571,-63.5001 332.7571,-70.5001"/>
</g>
<!-- Node916 -->
<g id="node5" class="node">
<title>Node916</title>
<g id="a_node5"><a xlink:href="triangle_8cpp.html#a648abfc70d158485620dbcb9aa990178" target="_top" xlink:title="triexit">
<polygon fill="#ffffff" stroke="#000000" points="432,-57.5 432,-76.5 473,-76.5 473,-57.5 432,-57.5"/>
<text text-anchor="middle" x="452.5" y="-64.5" font-family="Helvetica,sans-Serif" font-size="10.00" fill="#000000">triexit</text>
</a>
</g>
</g>
<!-- Node915&#45;&gt;Node916 -->
<g id="edge4" class="edge">
<title>Node915&#45;&gt;Node916</title>
<path fill="none" stroke="#191970" d="M396.2186,-67C404.3489,-67 413.3499,-67 421.7251,-67"/>
<polygon fill="#191970" stroke="#191970" points="421.8865,-70.5001 431.8865,-67 421.8865,-63.5001 421.8865,-70.5001"/>
</g>
</g>
</svg>
