<?xml version="1.0" encoding="UTF-8" standalone="no"?>
<!DOCTYPE svg PUBLIC "-//W3C//DTD SVG 1.1//EN"
 "http://www.w3.org/Graphics/SVG/1.1/DTD/svg11.dtd">
<!-- Generated by graphviz version 2.40.1 (20161225.0304)
 -->
<!-- Title: /home/oleg/Dev/riversim/source/river/utilities.cpp Pages: 1 -->
<svg width="148pt" height="151pt"
 viewBox="0.00 0.00 148.00 151.00" xmlns="http://www.w3.org/2000/svg" xmlns:xlink="http://www.w3.org/1999/xlink">
<g id="graph0" class="graph" transform="scale(1 1) rotate(0) translate(4 147)">
<title>/home/oleg/Dev/riversim/source/river/utilities.cpp</title>
<polygon fill="#ffffff" stroke="transparent" points="-4,4 -4,-147 144,-147 144,4 -4,4"/>
<!-- Node0 -->
<g id="node1" class="node">
<title>Node0</title>
<polygon fill="#bfbfbf" stroke="#000000" points="12.5,-112.5 12.5,-142.5 135.5,-142.5 135.5,-112.5 12.5,-112.5"/>
<text text-anchor="start" x="20.5" y="-130.5" font-family="Helvetica,sans-Serif" font-size="10.00" fill="#000000">/home/oleg/Dev/riversim</text>
<text text-anchor="middle" x="74" y="-119.5" font-family="Helvetica,sans-Serif" font-size="10.00" fill="#000000">/source/river/utilities.cpp</text>
</g>
<!-- Node1 -->
<g id="node2" class="node">
<title>Node1</title>
<g id="a_node2"><a xlink:href="utilities_8hpp.html" target="_top" xlink:title="Console printouts, version, title and program options processing. ">
<polygon fill="#ffffff" stroke="#000000" points="2,-56.5 2,-75.5 68,-75.5 68,-56.5 2,-56.5"/>
<text text-anchor="middle" x="35" y="-63.5" font-family="Helvetica,sans-Serif" font-size="10.00" fill="#000000">utilities.hpp</text>
</a>
</g>
</g>
<!-- Node0&#45;&gt;Node1 -->
<g id="edge1" class="edge">
<title>Node0&#45;&gt;Node1</title>
<path fill="none" stroke="#191970" d="M64.3595,-112.2977C59.0023,-103.8498 52.2978,-93.2773 46.6487,-84.369"/>
<polygon fill="#191970" stroke="#191970" points="49.5556,-82.4176 41.2444,-75.8469 43.6441,-86.1664 49.5556,-82.4176"/>
</g>
<!-- Node3 -->
<g id="node4" class="node">
<title>Node3</title>
<polygon fill="#ffffff" stroke="#bfbfbf" points="86,-56.5 86,-75.5 140,-75.5 140,-56.5 86,-56.5"/>
<text text-anchor="middle" x="113" y="-63.5" font-family="Helvetica,sans-Serif" font-size="10.00" fill="#000000">iostream</text>
</g>
<!-- Node0&#45;&gt;Node3 -->
<g id="edge3" class="edge">
<title>Node0&#45;&gt;Node3</title>
<path fill="none" stroke="#191970" d="M83.6405,-112.2977C88.9977,-103.8498 95.7022,-93.2773 101.3513,-84.369"/>
<polygon fill="#191970" stroke="#191970" points="104.3559,-86.1664 106.7556,-75.8469 98.4444,-82.4176 104.3559,-86.1664"/>
</g>
<!-- Node2 -->
<g id="node3" class="node">
<title>Node2</title>
<polygon fill="#ffffff" stroke="#bfbfbf" points="0,-.5 0,-19.5 70,-19.5 70,-.5 0,-.5"/>
<text text-anchor="middle" x="35" y="-7.5" font-family="Helvetica,sans-Serif" font-size="10.00" fill="#000000">cxxopts.hpp</text>
</g>
<!-- Node1&#45;&gt;Node2 -->
<g id="edge2" class="edge">
<title>Node1&#45;&gt;Node2</title>
<path fill="none" stroke="#191970" d="M35,-56.2455C35,-48.9382 35,-38.6944 35,-29.7046"/>
<polygon fill="#191970" stroke="#191970" points="38.5001,-29.6426 35,-19.6427 31.5001,-29.6427 38.5001,-29.6426"/>
</g>
</g>
</svg>
