<?xml version="1.0" encoding="UTF-8" standalone="no"?>
<!DOCTYPE svg PUBLIC "-//W3C//DTD SVG 1.1//EN"
 "http://www.w3.org/Graphics/SVG/1.1/DTD/svg11.dtd">
<!-- Generated by graphviz version 2.40.1 (20161225.0304)
 -->
<!-- Title: /home/oleg/Dev/riversim/source/river/utilities.hpp Pages: 1 -->
<svg width="345pt" height="173pt"
 viewBox="0.00 0.00 345.00 173.00" xmlns="http://www.w3.org/2000/svg" xmlns:xlink="http://www.w3.org/1999/xlink">
<g id="graph0" class="graph" transform="scale(1 1) rotate(0) translate(4 169)">
<title>/home/oleg/Dev/riversim/source/river/utilities.hpp</title>
<polygon fill="#ffffff" stroke="transparent" points="-4,4 -4,-169 341,-169 341,4 -4,4"/>
<!-- Node3 -->
<g id="node1" class="node">
<title>Node3</title>
<polygon fill="#bfbfbf" stroke="#000000" points="142,-134.5 142,-164.5 265,-164.5 265,-134.5 142,-134.5"/>
<text text-anchor="start" x="150" y="-152.5" font-family="Helvetica,sans-Serif" font-size="10.00" fill="#000000">/home/oleg/Dev/riversim</text>
<text text-anchor="middle" x="203.5" y="-141.5" font-family="Helvetica,sans-Serif" font-size="10.00" fill="#000000">/source/river/utilities.hpp</text>
</g>
<!-- Node4 -->
<g id="node2" class="node">
<title>Node4</title>
<g id="a_node2"><a xlink:href="riversim_8hpp.html" target="_top" xlink:title="/home/oleg/Dev/riversim\l/source/river/riversim.hpp">
<polygon fill="#ffffff" stroke="#000000" points="69,-67.5 69,-97.5 196,-97.5 196,-67.5 69,-67.5"/>
<text text-anchor="start" x="77" y="-85.5" font-family="Helvetica,sans-Serif" font-size="10.00" fill="#000000">/home/oleg/Dev/riversim</text>
<text text-anchor="middle" x="132.5" y="-74.5" font-family="Helvetica,sans-Serif" font-size="10.00" fill="#000000">/source/river/riversim.hpp</text>
</a>
</g>
</g>
<!-- Node3&#45;&gt;Node4 -->
<g id="edge1" class="edge">
<title>Node3&#45;&gt;Node4</title>
<path fill="none" stroke="#191970" d="M179.8806,-127.2113C169.5905,-117.5009 157.7949,-106.3698 148.5472,-97.6432"/>
<polygon fill="#191970" stroke="#191970" points="177.7139,-129.979 187.389,-134.2967 182.5181,-124.8879 177.7139,-129.979"/>
</g>
<!-- Node7 -->
<g id="node5" class="node">
<title>Node7</title>
<g id="a_node5"><a xlink:href="utilities_8cpp.html" target="_top" xlink:title="/home/oleg/Dev/riversim\l/source/river/utilities.cpp">
<polygon fill="#ffffff" stroke="#000000" points="214,-67.5 214,-97.5 337,-97.5 337,-67.5 214,-67.5"/>
<text text-anchor="start" x="222" y="-85.5" font-family="Helvetica,sans-Serif" font-size="10.00" fill="#000000">/home/oleg/Dev/riversim</text>
<text text-anchor="middle" x="275.5" y="-74.5" font-family="Helvetica,sans-Serif" font-size="10.00" fill="#000000">/source/river/utilities.cpp</text>
</a>
</g>
</g>
<!-- Node3&#45;&gt;Node7 -->
<g id="edge4" class="edge">
<title>Node3&#45;&gt;Node7</title>
<path fill="none" stroke="#191970" d="M227.452,-127.2113C237.8871,-117.5009 249.8488,-106.3698 259.2267,-97.6432"/>
<polygon fill="#191970" stroke="#191970" points="224.7743,-124.9221 219.8379,-134.2967 229.5429,-130.0466 224.7743,-124.9221"/>
</g>
<!-- Node5 -->
<g id="node3" class="node">
<title>Node5</title>
<g id="a_node3"><a xlink:href="main_8cpp.html" target="_top" xlink:title="Entry point of program and main loop handler. ">
<polygon fill="#ffffff" stroke="#000000" points="0,-.5 0,-30.5 123,-30.5 123,-.5 0,-.5"/>
<text text-anchor="start" x="8" y="-18.5" font-family="Helvetica,sans-Serif" font-size="10.00" fill="#000000">/home/oleg/Dev/riversim</text>
<text text-anchor="middle" x="61.5" y="-7.5" font-family="Helvetica,sans-Serif" font-size="10.00" fill="#000000">/source/main.cpp</text>
</a>
</g>
</g>
<!-- Node4&#45;&gt;Node5 -->
<g id="edge2" class="edge">
<title>Node4&#45;&gt;Node5</title>
<path fill="none" stroke="#191970" d="M108.8806,-60.2113C98.5905,-50.5009 86.7949,-39.3698 77.5472,-30.6432"/>
<polygon fill="#191970" stroke="#191970" points="106.7139,-62.979 116.389,-67.2967 111.5181,-57.8879 106.7139,-62.979"/>
</g>
<!-- Node6 -->
<g id="node4" class="node">
<title>Node6</title>
<g id="a_node4"><a xlink:href="riversim_8cpp.html" target="_top" xlink:title="/home/oleg/Dev/riversim\l/source/river/riversim.cpp">
<polygon fill="#ffffff" stroke="#000000" points="141,-.5 141,-30.5 268,-30.5 268,-.5 141,-.5"/>
<text text-anchor="start" x="149" y="-18.5" font-family="Helvetica,sans-Serif" font-size="10.00" fill="#000000">/home/oleg/Dev/riversim</text>
<text text-anchor="middle" x="204.5" y="-7.5" font-family="Helvetica,sans-Serif" font-size="10.00" fill="#000000">/source/river/riversim.cpp</text>
</a>
</g>
</g>
<!-- Node4&#45;&gt;Node6 -->
<g id="edge3" class="edge">
<title>Node4&#45;&gt;Node6</title>
<path fill="none" stroke="#191970" d="M156.452,-60.2113C166.8871,-50.5009 178.8488,-39.3698 188.2267,-30.6432"/>
<polygon fill="#191970" stroke="#191970" points="153.7743,-57.9221 148.8379,-67.2967 158.5429,-63.0466 153.7743,-57.9221"/>
</g>
</g>
</svg>
