<?xml version="1.0" encoding="UTF-8" standalone="no"?>
<!DOCTYPE svg PUBLIC "-//W3C//DTD SVG 1.1//EN"
 "http://www.w3.org/Graphics/SVG/1.1/DTD/svg11.dtd">
<!-- Generated by graphviz version 2.40.1 (20161225.0304)
 -->
<!-- Title: /home/oleg/Dev/riversim/source/river/utilities.hpp Pages: 1 -->
<svg width="150pt" height="95pt"
 viewBox="0.00 0.00 150.00 95.00" xmlns="http://www.w3.org/2000/svg" xmlns:xlink="http://www.w3.org/1999/xlink">
<g id="graph0" class="graph" transform="scale(1 1) rotate(0) translate(4 91)">
<title>/home/oleg/Dev/riversim/source/river/utilities.hpp</title>
<polygon fill="#ffffff" stroke="transparent" points="-4,4 -4,-91 146,-91 146,4 -4,4"/>
<!-- Node0 -->
<g id="node1" class="node">
<title>Node0</title>
<polygon fill="#bfbfbf" stroke="#000000" points="5.5,-56.5 5.5,-86.5 128.5,-86.5 128.5,-56.5 5.5,-56.5"/>
<text text-anchor="start" x="13.5" y="-74.5" font-family="Helvetica,sans-Serif" font-size="10.00" fill="#000000">/home/oleg/Dev/riversim</text>
<text text-anchor="middle" x="67" y="-63.5" font-family="Helvetica,sans-Serif" font-size="10.00" fill="#000000">/source/river/utilities.hpp</text>
</g>
<!-- Node1 -->
<g id="node2" class="node">
<title>Node1</title>
<polygon fill="#ffffff" stroke="#bfbfbf" points="0,-.5 0,-19.5 54,-19.5 54,-.5 0,-.5"/>
<text text-anchor="middle" x="27" y="-7.5" font-family="Helvetica,sans-Serif" font-size="10.00" fill="#000000">iostream</text>
</g>
<!-- Node0&#45;&gt;Node1 -->
<g id="edge1" class="edge">
<title>Node0&#45;&gt;Node1</title>
<path fill="none" stroke="#191970" d="M57.1124,-56.2977C51.6178,-47.8498 44.7414,-37.2773 38.9473,-28.369"/>
<polygon fill="#191970" stroke="#191970" points="41.7908,-26.3215 33.4045,-19.8469 35.9228,-30.1381 41.7908,-26.3215"/>
</g>
<!-- Node2 -->
<g id="node3" class="node">
<title>Node2</title>
<polygon fill="#ffffff" stroke="#bfbfbf" points="72,-.5 72,-19.5 142,-19.5 142,-.5 72,-.5"/>
<text text-anchor="middle" x="107" y="-7.5" font-family="Helvetica,sans-Serif" font-size="10.00" fill="#000000">cxxopts.hpp</text>
</g>
<!-- Node0&#45;&gt;Node2 -->
<g id="edge2" class="edge">
<title>Node0&#45;&gt;Node2</title>
<path fill="none" stroke="#191970" d="M76.8876,-56.2977C82.3822,-47.8498 89.2586,-37.2773 95.0527,-28.369"/>
<polygon fill="#191970" stroke="#191970" points="98.0772,-30.1381 100.5955,-19.8469 92.2092,-26.3215 98.0772,-30.1381"/>
</g>
</g>
</svg>
