<?xml version="1.0" encoding="UTF-8" standalone="no"?>
<!DOCTYPE svg PUBLIC "-//W3C//DTD SVG 1.1//EN"
 "http://www.w3.org/Graphics/SVG/1.1/DTD/svg11.dtd">
<!-- Generated by graphviz version 2.40.1 (20161225.0304)
 -->
<!-- Title: /home/oleg/Dev/riversim/source/river/utilities.hpp Pages: 1 -->
<svg width="202pt" height="95pt"
 viewBox="0.00 0.00 201.50 95.00" xmlns="http://www.w3.org/2000/svg" xmlns:xlink="http://www.w3.org/1999/xlink">
<g id="graph0" class="graph" transform="scale(1 1) rotate(0) translate(4 91)">
<title>/home/oleg/Dev/riversim/source/river/utilities.hpp</title>
<polygon fill="#ffffff" stroke="transparent" points="-4,4 -4,-91 197.5,-91 197.5,4 -4,4"/>
<!-- Node0 -->
<g id="node1" class="node">
<title>Node0</title>
<polygon fill="#bfbfbf" stroke="#000000" points="49.5,-56.5 49.5,-86.5 172.5,-86.5 172.5,-56.5 49.5,-56.5"/>
<text text-anchor="start" x="57.5" y="-74.5" font-family="Helvetica,sans-Serif" font-size="10.00" fill="#000000">/home/oleg/Dev/riversim</text>
<text text-anchor="middle" x="111" y="-63.5" font-family="Helvetica,sans-Serif" font-size="10.00" fill="#000000">/source/river/utilities.hpp</text>
</g>
<!-- Node1 -->
<g id="node2" class="node">
<title>Node1</title>
<polygon fill="#ffffff" stroke="#bfbfbf" points="0,-.5 0,-19.5 70,-19.5 70,-.5 0,-.5"/>
<text text-anchor="middle" x="35" y="-7.5" font-family="Helvetica,sans-Serif" font-size="10.00" fill="#000000">cxxopts.hpp</text>
</g>
<!-- Node0&#45;&gt;Node1 -->
<g id="edge1" class="edge">
<title>Node0&#45;&gt;Node1</title>
<path fill="none" stroke="#191970" d="M92.2135,-56.2977C80.8947,-47.1384 66.4895,-35.4816 54.9654,-26.1562"/>
<polygon fill="#191970" stroke="#191970" points="57.1439,-23.4167 47.1686,-19.8469 52.7405,-28.8583 57.1439,-23.4167"/>
</g>
<!-- Node2 -->
<g id="node3" class="node">
<title>Node2</title>
<polygon fill="#ffffff" stroke="#bfbfbf" points="88,-.5 88,-19.5 134,-19.5 134,-.5 88,-.5"/>
<text text-anchor="middle" x="111" y="-7.5" font-family="Helvetica,sans-Serif" font-size="10.00" fill="#000000">chrono</text>
</g>
<!-- Node0&#45;&gt;Node2 -->
<g id="edge2" class="edge">
<title>Node0&#45;&gt;Node2</title>
<path fill="none" stroke="#191970" d="M111,-56.2977C111,-48.3834 111,-38.6043 111,-30.0759"/>
<polygon fill="#191970" stroke="#191970" points="114.5001,-29.8469 111,-19.8469 107.5001,-29.847 114.5001,-29.8469"/>
</g>
<!-- Node3 -->
<g id="node4" class="node">
<title>Node3</title>
<polygon fill="#ffffff" stroke="#bfbfbf" points="152.5,-.5 152.5,-19.5 193.5,-19.5 193.5,-.5 152.5,-.5"/>
<text text-anchor="middle" x="173" y="-7.5" font-family="Helvetica,sans-Serif" font-size="10.00" fill="#000000">ctime</text>
</g>
<!-- Node0&#45;&gt;Node3 -->
<g id="edge3" class="edge">
<title>Node0&#45;&gt;Node3</title>
<path fill="none" stroke="#191970" d="M126.3258,-56.2977C135.2907,-47.4052 146.6288,-36.1586 155.8851,-26.9769"/>
<polygon fill="#191970" stroke="#191970" points="158.4382,-29.3742 163.073,-19.8469 153.5085,-24.4045 158.4382,-29.3742"/>
</g>
</g>
</svg>
